<?xml version="1.0" encoding="utf-8" standalone="no"?>
<!DOCTYPE svg PUBLIC "-//W3C//DTD SVG 1.1//EN"
  "http://www.w3.org/Graphics/SVG/1.1/DTD/svg11.dtd">
<!-- Created with matplotlib (http://matplotlib.org/) -->
<svg height="345pt" version="1.1" viewBox="0 0 460 345" width="460pt" xmlns="http://www.w3.org/2000/svg" xmlns:xlink="http://www.w3.org/1999/xlink">
 <defs>
  <style type="text/css">
*{stroke-linecap:butt;stroke-linejoin:round;}
  </style>
 </defs>
 <g id="figure_1">
  <g id="patch_1">
   <path d="M 0 345.6 
L 460.8 345.6 
L 460.8 0 
L 0 0 
z
" style="fill:#ffffff;"/>
  </g>
  <g id="axes_1">
   <g id="patch_2">
    <path d="M 57.6 307.584 
L 414.72 307.584 
L 414.72 41.472 
L 57.6 41.472 
z
" style="fill:#ffffff;"/>
   </g>
   <g id="matplotlib.axis_1">
    <g id="xtick_1">
     <g id="line2d_1">
      <defs>
       <path d="M 0 0 
L 0 3.5 
" id="m143b56b571" style="stroke:#000000;stroke-width:0.8;"/>
      </defs>
      <g>
       <use style="stroke:#000000;stroke-width:0.8;" x="73.832727" xlink:href="#m143b56b571" y="307.584"/>
      </g>
     </g>
     <g id="text_1">
      <!-- 0 -->
      <defs>
       <path d="M 31.78125 66.40625 
Q 24.171875 66.40625 20.328125 58.90625 
Q 16.5 51.421875 16.5 36.375 
Q 16.5 21.390625 20.328125 13.890625 
Q 24.171875 6.390625 31.78125 6.390625 
Q 39.453125 6.390625 43.28125 13.890625 
Q 47.125 21.390625 47.125 36.375 
Q 47.125 51.421875 43.28125 58.90625 
Q 39.453125 66.40625 31.78125 66.40625 
z
M 31.78125 74.21875 
Q 44.046875 74.21875 50.515625 64.515625 
Q 56.984375 54.828125 56.984375 36.375 
Q 56.984375 17.96875 50.515625 8.265625 
Q 44.046875 -1.421875 31.78125 -1.421875 
Q 19.53125 -1.421875 13.0625 8.265625 
Q 6.59375 17.96875 6.59375 36.375 
Q 6.59375 54.828125 13.0625 64.515625 
Q 19.53125 74.21875 31.78125 74.21875 
z
" id="DejaVuSans-30"/>
      </defs>
      <g transform="translate(70.651477 322.182437)scale(0.1 -0.1)">
       <use xlink:href="#DejaVuSans-30"/>
      </g>
     </g>
    </g>
    <g id="xtick_2">
     <g id="line2d_2">
      <g>
       <use style="stroke:#000000;stroke-width:0.8;" x="126.838851" xlink:href="#m143b56b571" y="307.584"/>
      </g>
     </g>
     <g id="text_2">
      <!-- 100 -->
      <defs>
       <path d="M 12.40625 8.296875 
L 28.515625 8.296875 
L 28.515625 63.921875 
L 10.984375 60.40625 
L 10.984375 69.390625 
L 28.421875 72.90625 
L 38.28125 72.90625 
L 38.28125 8.296875 
L 54.390625 8.296875 
L 54.390625 0 
L 12.40625 0 
z
" id="DejaVuSans-31"/>
      </defs>
      <g transform="translate(117.295101 322.182437)scale(0.1 -0.1)">
       <use xlink:href="#DejaVuSans-31"/>
       <use x="63.623047" xlink:href="#DejaVuSans-30"/>
       <use x="127.246094" xlink:href="#DejaVuSans-30"/>
      </g>
     </g>
    </g>
    <g id="xtick_3">
     <g id="line2d_3">
      <g>
       <use style="stroke:#000000;stroke-width:0.8;" x="179.844974" xlink:href="#m143b56b571" y="307.584"/>
      </g>
     </g>
     <g id="text_3">
      <!-- 200 -->
      <defs>
       <path d="M 19.1875 8.296875 
L 53.609375 8.296875 
L 53.609375 0 
L 7.328125 0 
L 7.328125 8.296875 
Q 12.9375 14.109375 22.625 23.890625 
Q 32.328125 33.6875 34.8125 36.53125 
Q 39.546875 41.84375 41.421875 45.53125 
Q 43.3125 49.21875 43.3125 52.78125 
Q 43.3125 58.59375 39.234375 62.25 
Q 35.15625 65.921875 28.609375 65.921875 
Q 23.96875 65.921875 18.8125 64.3125 
Q 13.671875 62.703125 7.8125 59.421875 
L 7.8125 69.390625 
Q 13.765625 71.78125 18.9375 73 
Q 24.125 74.21875 28.421875 74.21875 
Q 39.75 74.21875 46.484375 68.546875 
Q 53.21875 62.890625 53.21875 53.421875 
Q 53.21875 48.921875 51.53125 44.890625 
Q 49.859375 40.875 45.40625 35.40625 
Q 44.1875 33.984375 37.640625 27.21875 
Q 31.109375 20.453125 19.1875 8.296875 
z
" id="DejaVuSans-32"/>
      </defs>
      <g transform="translate(170.301224 322.182437)scale(0.1 -0.1)">
       <use xlink:href="#DejaVuSans-32"/>
       <use x="63.623047" xlink:href="#DejaVuSans-30"/>
       <use x="127.246094" xlink:href="#DejaVuSans-30"/>
      </g>
     </g>
    </g>
    <g id="xtick_4">
     <g id="line2d_4">
      <g>
       <use style="stroke:#000000;stroke-width:0.8;" x="232.851097" xlink:href="#m143b56b571" y="307.584"/>
      </g>
     </g>
     <g id="text_4">
      <!-- 300 -->
      <defs>
       <path d="M 40.578125 39.3125 
Q 47.65625 37.796875 51.625 33 
Q 55.609375 28.21875 55.609375 21.1875 
Q 55.609375 10.40625 48.1875 4.484375 
Q 40.765625 -1.421875 27.09375 -1.421875 
Q 22.515625 -1.421875 17.65625 -0.515625 
Q 12.796875 0.390625 7.625 2.203125 
L 7.625 11.71875 
Q 11.71875 9.328125 16.59375 8.109375 
Q 21.484375 6.890625 26.8125 6.890625 
Q 36.078125 6.890625 40.9375 10.546875 
Q 45.796875 14.203125 45.796875 21.1875 
Q 45.796875 27.640625 41.28125 31.265625 
Q 36.765625 34.90625 28.71875 34.90625 
L 20.21875 34.90625 
L 20.21875 43.015625 
L 29.109375 43.015625 
Q 36.375 43.015625 40.234375 45.921875 
Q 44.09375 48.828125 44.09375 54.296875 
Q 44.09375 59.90625 40.109375 62.90625 
Q 36.140625 65.921875 28.71875 65.921875 
Q 24.65625 65.921875 20.015625 65.03125 
Q 15.375 64.15625 9.8125 62.3125 
L 9.8125 71.09375 
Q 15.4375 72.65625 20.34375 73.4375 
Q 25.25 74.21875 29.59375 74.21875 
Q 40.828125 74.21875 47.359375 69.109375 
Q 53.90625 64.015625 53.90625 55.328125 
Q 53.90625 49.265625 50.4375 45.09375 
Q 46.96875 40.921875 40.578125 39.3125 
z
" id="DejaVuSans-33"/>
      </defs>
      <g transform="translate(223.307347 322.182437)scale(0.1 -0.1)">
       <use xlink:href="#DejaVuSans-33"/>
       <use x="63.623047" xlink:href="#DejaVuSans-30"/>
       <use x="127.246094" xlink:href="#DejaVuSans-30"/>
      </g>
     </g>
    </g>
    <g id="xtick_5">
     <g id="line2d_5">
      <g>
       <use style="stroke:#000000;stroke-width:0.8;" x="285.85722" xlink:href="#m143b56b571" y="307.584"/>
      </g>
     </g>
     <g id="text_5">
      <!-- 400 -->
      <defs>
       <path d="M 37.796875 64.3125 
L 12.890625 25.390625 
L 37.796875 25.390625 
z
M 35.203125 72.90625 
L 47.609375 72.90625 
L 47.609375 25.390625 
L 58.015625 25.390625 
L 58.015625 17.1875 
L 47.609375 17.1875 
L 47.609375 0 
L 37.796875 0 
L 37.796875 17.1875 
L 4.890625 17.1875 
L 4.890625 26.703125 
z
" id="DejaVuSans-34"/>
      </defs>
      <g transform="translate(276.31347 322.182437)scale(0.1 -0.1)">
       <use xlink:href="#DejaVuSans-34"/>
       <use x="63.623047" xlink:href="#DejaVuSans-30"/>
       <use x="127.246094" xlink:href="#DejaVuSans-30"/>
      </g>
     </g>
    </g>
    <g id="xtick_6">
     <g id="line2d_6">
      <g>
       <use style="stroke:#000000;stroke-width:0.8;" x="338.863344" xlink:href="#m143b56b571" y="307.584"/>
      </g>
     </g>
     <g id="text_6">
      <!-- 500 -->
      <defs>
       <path d="M 10.796875 72.90625 
L 49.515625 72.90625 
L 49.515625 64.59375 
L 19.828125 64.59375 
L 19.828125 46.734375 
Q 21.96875 47.46875 24.109375 47.828125 
Q 26.265625 48.1875 28.421875 48.1875 
Q 40.625 48.1875 47.75 41.5 
Q 54.890625 34.8125 54.890625 23.390625 
Q 54.890625 11.625 47.5625 5.09375 
Q 40.234375 -1.421875 26.90625 -1.421875 
Q 22.3125 -1.421875 17.546875 -0.640625 
Q 12.796875 0.140625 7.71875 1.703125 
L 7.71875 11.625 
Q 12.109375 9.234375 16.796875 8.0625 
Q 21.484375 6.890625 26.703125 6.890625 
Q 35.15625 6.890625 40.078125 11.328125 
Q 45.015625 15.765625 45.015625 23.390625 
Q 45.015625 31 40.078125 35.4375 
Q 35.15625 39.890625 26.703125 39.890625 
Q 22.75 39.890625 18.8125 39.015625 
Q 14.890625 38.140625 10.796875 36.28125 
z
" id="DejaVuSans-35"/>
      </defs>
      <g transform="translate(329.319594 322.182437)scale(0.1 -0.1)">
       <use xlink:href="#DejaVuSans-35"/>
       <use x="63.623047" xlink:href="#DejaVuSans-30"/>
       <use x="127.246094" xlink:href="#DejaVuSans-30"/>
      </g>
     </g>
    </g>
    <g id="xtick_7">
     <g id="line2d_7">
      <g>
       <use style="stroke:#000000;stroke-width:0.8;" x="391.869467" xlink:href="#m143b56b571" y="307.584"/>
      </g>
     </g>
     <g id="text_7">
      <!-- 600 -->
      <defs>
       <path d="M 33.015625 40.375 
Q 26.375 40.375 22.484375 35.828125 
Q 18.609375 31.296875 18.609375 23.390625 
Q 18.609375 15.53125 22.484375 10.953125 
Q 26.375 6.390625 33.015625 6.390625 
Q 39.65625 6.390625 43.53125 10.953125 
Q 47.40625 15.53125 47.40625 23.390625 
Q 47.40625 31.296875 43.53125 35.828125 
Q 39.65625 40.375 33.015625 40.375 
z
M 52.59375 71.296875 
L 52.59375 62.3125 
Q 48.875 64.0625 45.09375 64.984375 
Q 41.3125 65.921875 37.59375 65.921875 
Q 27.828125 65.921875 22.671875 59.328125 
Q 17.53125 52.734375 16.796875 39.40625 
Q 19.671875 43.65625 24.015625 45.921875 
Q 28.375 48.1875 33.59375 48.1875 
Q 44.578125 48.1875 50.953125 41.515625 
Q 57.328125 34.859375 57.328125 23.390625 
Q 57.328125 12.15625 50.6875 5.359375 
Q 44.046875 -1.421875 33.015625 -1.421875 
Q 20.359375 -1.421875 13.671875 8.265625 
Q 6.984375 17.96875 6.984375 36.375 
Q 6.984375 53.65625 15.1875 63.9375 
Q 23.390625 74.21875 37.203125 74.21875 
Q 40.921875 74.21875 44.703125 73.484375 
Q 48.484375 72.75 52.59375 71.296875 
z
" id="DejaVuSans-36"/>
      </defs>
      <g transform="translate(382.325717 322.182437)scale(0.1 -0.1)">
       <use xlink:href="#DejaVuSans-36"/>
       <use x="63.623047" xlink:href="#DejaVuSans-30"/>
       <use x="127.246094" xlink:href="#DejaVuSans-30"/>
      </g>
     </g>
    </g>
    <g id="text_8">
     <!-- t(s) -->
     <defs>
      <path d="M 18.3125 70.21875 
L 18.3125 54.6875 
L 36.8125 54.6875 
L 36.8125 47.703125 
L 18.3125 47.703125 
L 18.3125 18.015625 
Q 18.3125 11.328125 20.140625 9.421875 
Q 21.96875 7.515625 27.59375 7.515625 
L 36.8125 7.515625 
L 36.8125 0 
L 27.59375 0 
Q 17.1875 0 13.234375 3.875 
Q 9.28125 7.765625 9.28125 18.015625 
L 9.28125 47.703125 
L 2.6875 47.703125 
L 2.6875 54.6875 
L 9.28125 54.6875 
L 9.28125 70.21875 
z
" id="DejaVuSans-74"/>
      <path d="M 31 75.875 
Q 24.46875 64.65625 21.28125 53.65625 
Q 18.109375 42.671875 18.109375 31.390625 
Q 18.109375 20.125 21.3125 9.0625 
Q 24.515625 -2 31 -13.1875 
L 23.1875 -13.1875 
Q 15.875 -1.703125 12.234375 9.375 
Q 8.59375 20.453125 8.59375 31.390625 
Q 8.59375 42.28125 12.203125 53.3125 
Q 15.828125 64.359375 23.1875 75.875 
z
" id="DejaVuSans-28"/>
      <path d="M 44.28125 53.078125 
L 44.28125 44.578125 
Q 40.484375 46.53125 36.375 47.5 
Q 32.28125 48.484375 27.875 48.484375 
Q 21.1875 48.484375 17.84375 46.4375 
Q 14.5 44.390625 14.5 40.28125 
Q 14.5 37.15625 16.890625 35.375 
Q 19.28125 33.59375 26.515625 31.984375 
L 29.59375 31.296875 
Q 39.15625 29.25 43.1875 25.515625 
Q 47.21875 21.78125 47.21875 15.09375 
Q 47.21875 7.46875 41.1875 3.015625 
Q 35.15625 -1.421875 24.609375 -1.421875 
Q 20.21875 -1.421875 15.453125 -0.5625 
Q 10.6875 0.296875 5.421875 2 
L 5.421875 11.28125 
Q 10.40625 8.6875 15.234375 7.390625 
Q 20.0625 6.109375 24.8125 6.109375 
Q 31.15625 6.109375 34.5625 8.28125 
Q 37.984375 10.453125 37.984375 14.40625 
Q 37.984375 18.0625 35.515625 20.015625 
Q 33.0625 21.96875 24.703125 23.78125 
L 21.578125 24.515625 
Q 13.234375 26.265625 9.515625 29.90625 
Q 5.8125 33.546875 5.8125 39.890625 
Q 5.8125 47.609375 11.28125 51.796875 
Q 16.75 56 26.8125 56 
Q 31.78125 56 36.171875 55.265625 
Q 40.578125 54.546875 44.28125 53.078125 
z
" id="DejaVuSans-73"/>
      <path d="M 8.015625 75.875 
L 15.828125 75.875 
Q 23.140625 64.359375 26.78125 53.3125 
Q 30.421875 42.28125 30.421875 31.390625 
Q 30.421875 20.453125 26.78125 9.375 
Q 23.140625 -1.703125 15.828125 -13.1875 
L 8.015625 -13.1875 
Q 14.5 -2 17.703125 9.0625 
Q 20.90625 20.125 20.90625 31.390625 
Q 20.90625 42.671875 17.703125 53.65625 
Q 14.5 64.65625 8.015625 75.875 
z
" id="DejaVuSans-29"/>
     </defs>
     <g transform="translate(227.693594 335.860562)scale(0.1 -0.1)">
      <use xlink:href="#DejaVuSans-74"/>
      <use x="39.208984" xlink:href="#DejaVuSans-28"/>
      <use x="78.222656" xlink:href="#DejaVuSans-73"/>
      <use x="130.322266" xlink:href="#DejaVuSans-29"/>
     </g>
    </g>
   </g>
   <g id="matplotlib.axis_2">
    <g id="ytick_1">
     <g id="line2d_8">
      <defs>
       <path d="M 0 0 
L -3.5 0 
" id="m1be7d8b9fe" style="stroke:#000000;stroke-width:0.8;"/>
      </defs>
      <g>
       <use style="stroke:#000000;stroke-width:0.8;" x="57.6" xlink:href="#m1be7d8b9fe" y="306.135099"/>
      </g>
     </g>
     <g id="text_9">
      <!-- −6 -->
      <defs>
       <path d="M 10.59375 35.5 
L 73.1875 35.5 
L 73.1875 27.203125 
L 10.59375 27.203125 
z
" id="DejaVuSans-2212"/>
      </defs>
      <g transform="translate(35.857813 309.934318)scale(0.1 -0.1)">
       <use xlink:href="#DejaVuSans-2212"/>
       <use x="83.789062" xlink:href="#DejaVuSans-36"/>
      </g>
     </g>
    </g>
    <g id="ytick_2">
     <g id="line2d_9">
      <g>
       <use style="stroke:#000000;stroke-width:0.8;" x="57.6" xlink:href="#m1be7d8b9fe" y="262.681985"/>
      </g>
     </g>
     <g id="text_10">
      <!-- −4 -->
      <g transform="translate(35.857813 266.481204)scale(0.1 -0.1)">
       <use xlink:href="#DejaVuSans-2212"/>
       <use x="83.789062" xlink:href="#DejaVuSans-34"/>
      </g>
     </g>
    </g>
    <g id="ytick_3">
     <g id="line2d_10">
      <g>
       <use style="stroke:#000000;stroke-width:0.8;" x="57.6" xlink:href="#m1be7d8b9fe" y="219.228871"/>
      </g>
     </g>
     <g id="text_11">
      <!-- −2 -->
      <g transform="translate(35.857813 223.028089)scale(0.1 -0.1)">
       <use xlink:href="#DejaVuSans-2212"/>
       <use x="83.789062" xlink:href="#DejaVuSans-32"/>
      </g>
     </g>
    </g>
    <g id="ytick_4">
     <g id="line2d_11">
      <g>
       <use style="stroke:#000000;stroke-width:0.8;" x="57.6" xlink:href="#m1be7d8b9fe" y="175.775756"/>
      </g>
     </g>
     <g id="text_12">
      <!-- 0 -->
      <g transform="translate(44.2375 179.574975)scale(0.1 -0.1)">
       <use xlink:href="#DejaVuSans-30"/>
      </g>
     </g>
    </g>
    <g id="ytick_5">
     <g id="line2d_12">
      <g>
       <use style="stroke:#000000;stroke-width:0.8;" x="57.6" xlink:href="#m1be7d8b9fe" y="132.322642"/>
      </g>
     </g>
     <g id="text_13">
      <!-- 2 -->
      <g transform="translate(44.2375 136.121861)scale(0.1 -0.1)">
       <use xlink:href="#DejaVuSans-32"/>
      </g>
     </g>
    </g>
    <g id="ytick_6">
     <g id="line2d_13">
      <g>
       <use style="stroke:#000000;stroke-width:0.8;" x="57.6" xlink:href="#m1be7d8b9fe" y="88.869527"/>
      </g>
     </g>
     <g id="text_14">
      <!-- 4 -->
      <g transform="translate(44.2375 92.668746)scale(0.1 -0.1)">
       <use xlink:href="#DejaVuSans-34"/>
      </g>
     </g>
    </g>
    <g id="ytick_7">
     <g id="line2d_14">
      <g>
       <use style="stroke:#000000;stroke-width:0.8;" x="57.6" xlink:href="#m1be7d8b9fe" y="45.416413"/>
      </g>
     </g>
     <g id="text_15">
      <!-- 6 -->
      <g transform="translate(44.2375 49.215632)scale(0.1 -0.1)">
       <use xlink:href="#DejaVuSans-36"/>
      </g>
     </g>
    </g>
    <g id="text_16">
     <!-- Voltage (V) -->
     <defs>
      <path d="M 28.609375 0 
L 0.78125 72.90625 
L 11.078125 72.90625 
L 34.1875 11.53125 
L 57.328125 72.90625 
L 67.578125 72.90625 
L 39.796875 0 
z
" id="DejaVuSans-56"/>
      <path d="M 30.609375 48.390625 
Q 23.390625 48.390625 19.1875 42.75 
Q 14.984375 37.109375 14.984375 27.296875 
Q 14.984375 17.484375 19.15625 11.84375 
Q 23.34375 6.203125 30.609375 6.203125 
Q 37.796875 6.203125 41.984375 11.859375 
Q 46.1875 17.53125 46.1875 27.296875 
Q 46.1875 37.015625 41.984375 42.703125 
Q 37.796875 48.390625 30.609375 48.390625 
z
M 30.609375 56 
Q 42.328125 56 49.015625 48.375 
Q 55.71875 40.765625 55.71875 27.296875 
Q 55.71875 13.875 49.015625 6.21875 
Q 42.328125 -1.421875 30.609375 -1.421875 
Q 18.84375 -1.421875 12.171875 6.21875 
Q 5.515625 13.875 5.515625 27.296875 
Q 5.515625 40.765625 12.171875 48.375 
Q 18.84375 56 30.609375 56 
z
" id="DejaVuSans-6f"/>
      <path d="M 9.421875 75.984375 
L 18.40625 75.984375 
L 18.40625 0 
L 9.421875 0 
z
" id="DejaVuSans-6c"/>
      <path d="M 34.28125 27.484375 
Q 23.390625 27.484375 19.1875 25 
Q 14.984375 22.515625 14.984375 16.5 
Q 14.984375 11.71875 18.140625 8.90625 
Q 21.296875 6.109375 26.703125 6.109375 
Q 34.1875 6.109375 38.703125 11.40625 
Q 43.21875 16.703125 43.21875 25.484375 
L 43.21875 27.484375 
z
M 52.203125 31.203125 
L 52.203125 0 
L 43.21875 0 
L 43.21875 8.296875 
Q 40.140625 3.328125 35.546875 0.953125 
Q 30.953125 -1.421875 24.3125 -1.421875 
Q 15.921875 -1.421875 10.953125 3.296875 
Q 6 8.015625 6 15.921875 
Q 6 25.140625 12.171875 29.828125 
Q 18.359375 34.515625 30.609375 34.515625 
L 43.21875 34.515625 
L 43.21875 35.40625 
Q 43.21875 41.609375 39.140625 45 
Q 35.0625 48.390625 27.6875 48.390625 
Q 23 48.390625 18.546875 47.265625 
Q 14.109375 46.140625 10.015625 43.890625 
L 10.015625 52.203125 
Q 14.9375 54.109375 19.578125 55.046875 
Q 24.21875 56 28.609375 56 
Q 40.484375 56 46.34375 49.84375 
Q 52.203125 43.703125 52.203125 31.203125 
z
" id="DejaVuSans-61"/>
      <path d="M 45.40625 27.984375 
Q 45.40625 37.75 41.375 43.109375 
Q 37.359375 48.484375 30.078125 48.484375 
Q 22.859375 48.484375 18.828125 43.109375 
Q 14.796875 37.75 14.796875 27.984375 
Q 14.796875 18.265625 18.828125 12.890625 
Q 22.859375 7.515625 30.078125 7.515625 
Q 37.359375 7.515625 41.375 12.890625 
Q 45.40625 18.265625 45.40625 27.984375 
z
M 54.390625 6.78125 
Q 54.390625 -7.171875 48.1875 -13.984375 
Q 42 -20.796875 29.203125 -20.796875 
Q 24.46875 -20.796875 20.265625 -20.09375 
Q 16.0625 -19.390625 12.109375 -17.921875 
L 12.109375 -9.1875 
Q 16.0625 -11.328125 19.921875 -12.34375 
Q 23.78125 -13.375 27.78125 -13.375 
Q 36.625 -13.375 41.015625 -8.765625 
Q 45.40625 -4.15625 45.40625 5.171875 
L 45.40625 9.625 
Q 42.625 4.78125 38.28125 2.390625 
Q 33.9375 0 27.875 0 
Q 17.828125 0 11.671875 7.65625 
Q 5.515625 15.328125 5.515625 27.984375 
Q 5.515625 40.671875 11.671875 48.328125 
Q 17.828125 56 27.875 56 
Q 33.9375 56 38.28125 53.609375 
Q 42.625 51.21875 45.40625 46.390625 
L 45.40625 54.6875 
L 54.390625 54.6875 
z
" id="DejaVuSans-67"/>
      <path d="M 56.203125 29.59375 
L 56.203125 25.203125 
L 14.890625 25.203125 
Q 15.484375 15.921875 20.484375 11.0625 
Q 25.484375 6.203125 34.421875 6.203125 
Q 39.59375 6.203125 44.453125 7.46875 
Q 49.3125 8.734375 54.109375 11.28125 
L 54.109375 2.78125 
Q 49.265625 0.734375 44.1875 -0.34375 
Q 39.109375 -1.421875 33.890625 -1.421875 
Q 20.796875 -1.421875 13.15625 6.1875 
Q 5.515625 13.8125 5.515625 26.8125 
Q 5.515625 40.234375 12.765625 48.109375 
Q 20.015625 56 32.328125 56 
Q 43.359375 56 49.78125 48.890625 
Q 56.203125 41.796875 56.203125 29.59375 
z
M 47.21875 32.234375 
Q 47.125 39.59375 43.09375 43.984375 
Q 39.0625 48.390625 32.421875 48.390625 
Q 24.90625 48.390625 20.390625 44.140625 
Q 15.875 39.890625 15.1875 32.171875 
z
" id="DejaVuSans-65"/>
      <path id="DejaVuSans-20"/>
     </defs>
     <g transform="translate(29.778125 202.577219)rotate(-90)scale(0.1 -0.1)">
      <use xlink:href="#DejaVuSans-56"/>
      <use x="68.298828" xlink:href="#DejaVuSans-6f"/>
      <use x="129.480469" xlink:href="#DejaVuSans-6c"/>
      <use x="157.263672" xlink:href="#DejaVuSans-74"/>
      <use x="196.472656" xlink:href="#DejaVuSans-61"/>
      <use x="257.751953" xlink:href="#DejaVuSans-67"/>
      <use x="321.228516" xlink:href="#DejaVuSans-65"/>
      <use x="382.751953" xlink:href="#DejaVuSans-20"/>
      <use x="414.539062" xlink:href="#DejaVuSans-28"/>
      <use x="453.552734" xlink:href="#DejaVuSans-56"/>
      <use x="521.960938" xlink:href="#DejaVuSans-29"/>
     </g>
    </g>
   </g>
   <g id="line2d_15">
    <path clip-path="url(#p9924584456)" d="M 73.832727 292.284854 
L 74.838253 191.820623 
L 75.506131 151.1995 
L 76.5371 108.053643 
L 76.870508 88.882998 
L 77.203917 54.002966 
L 77.535205 55.987035 
L 78.53278 158.324203 
L 79.203308 200.553635 
L 80.230566 243.748159 
L 80.562915 260.446757 
L 80.896323 294.859016 
L 81.21648 292.460839 
L 82.215116 191.786665 
L 82.881402 151.192635 
L 83.911842 108.052991 
L 84.24525 88.841717 
L 84.577598 53.901068 
L 84.908357 55.869494 
L 85.906992 158.3068 
L 86.576989 200.576469 
L 87.604778 243.740772 
L 87.937127 260.444584 
L 88.269475 294.892258 
L 88.590162 292.479089 
L 89.588797 191.830617 
L 90.256675 151.227593 
L 91.287644 108.089274 
L 91.621052 88.823684 
L 91.953401 53.901503 
L 92.284689 55.878185 
L 93.282794 158.309712 
L 93.953322 200.58542 
L 94.98058 243.725564 
L 95.313459 260.466311 
L 95.650048 294.882481 
L 95.970735 292.469964 
L 96.96937 191.818624 
L 97.635657 151.219206 
L 98.674047 108.247661 
L 99.006925 88.876914 
L 99.339274 53.920839 
L 99.670562 55.915337 
L 100.668137 158.314339 
L 101.334954 200.658878 
L 102.364863 243.732299 
L 102.697742 260.485865 
L 103.03009 294.923979 
L 103.350777 292.484086 
L 104.353123 191.834072 
L 105.01994 151.238217 
L 106.053029 108.170532 
L 106.385378 88.893209 
L 106.717726 53.962554 
L 107.049545 55.92707 
L 108.04712 158.323312 
L 108.717647 200.649079 
L 109.748616 243.705141 
L 110.084675 260.474349 
L 110.417554 294.928758 
L 110.738241 292.50842 
L 111.736346 191.847216 
L 112.403163 151.207148 
L 113.113975 122.858988 
L 113.779732 88.850191 
L 114.116321 53.940176 
L 114.447079 55.899042 
L 115.446244 158.334067 
L 116.113062 200.669111 
L 117.146151 243.728388 
L 117.478499 260.515195 
L 117.811378 294.963304 
L 118.135775 292.535144 
L 119.13388 191.855168 
L 119.800168 151.23737 
L 120.835377 108.183568 
L 121.167725 88.868224 
L 121.500604 53.959513 
L 121.831892 55.91273 
L 122.833708 158.32227 
L 123.499995 200.680539 
L 124.533084 243.695147 
L 124.865963 260.562994 
L 125.198841 295.015447 
L 125.519528 292.595109 
L 126.518163 191.890909 
L 127.184981 151.251209 
L 128.22019 108.115346 
L 128.552539 88.817818 
L 128.885417 53.904762 
L 129.216175 55.834949 
L 130.21428 158.317968 
L 130.884808 200.64091 
L 131.914187 243.741424 
L 132.247065 260.576682 
L 132.583654 295.01523 
L 132.903811 292.60141 
L 133.901916 191.897101 
L 134.568733 151.251579 
L 135.599172 108.077977 
L 135.931521 88.891906 
L 136.263869 53.965379 
L 136.595158 56.03983 
L 137.593263 158.422364 
L 138.26273 200.628504 
L 139.290519 243.76402 
L 139.622867 260.43937 
L 139.959456 294.822298 
L 140.279613 292.344819 
L 141.277718 191.773781 
L 141.944535 151.303744 
L 142.974975 108.134248 
L 143.307853 89.084186 
L 143.640731 54.130066 
L 143.97255 56.082632 
L 144.974896 158.449609 
L 145.641713 200.658509 
L 146.669501 243.721436 
L 147.00238 260.446105 
L 147.335788 294.852933 
L 147.655945 292.481044 
L 148.658821 191.826598 
L 149.325638 151.274413 
L 150.358728 108.14685 
L 150.692136 88.967731 
L 151.024484 54.009701 
L 151.355773 55.963136 
L 152.354408 158.353838 
L 153.024405 200.678063 
L 154.053254 243.744249 
L 154.390373 260.411342 
L 154.722722 294.872704 
L 155.042879 292.44563 
L 156.040984 191.788185 
L 156.707801 151.256598 
L 157.418083 122.890709 
L 158.08384 89.018789 
L 158.420429 54.10117 
L 158.751717 56.061557 
L 159.749822 158.437768 
L 160.416639 200.686558 
L 161.450789 243.725564 
L 161.783137 260.441542 
L 162.115486 294.891606 
L 162.435643 292.470833 
L 163.433218 191.800396 
L 164.103215 151.350456 
L 165.134714 108.150978 
L 165.467593 89.028349 
L 165.803122 54.072708 
L 166.13441 56.018973 
L 167.132515 158.443873 
L 167.798802 200.710022 
L 168.834542 243.70362 
L 169.16689 260.44806 
L 169.499239 294.897472 
L 169.823106 292.469747 
L 170.822271 191.82386 
L 171.492799 151.31678 
L 172.54179 108.55683 
L 172.873608 89.002277 
L 173.207017 54.067276 
L 173.537775 56.063295 
L 174.536411 158.451977 
L 175.206938 200.70131 
L 176.234197 243.766844 
L 176.566545 260.458272 
L 176.899423 294.912246 
L 177.21958 292.495601 
L 178.221396 191.839069 
L 178.888213 151.301094 
L 179.920772 108.195952 
L 180.253651 89.003146 
L 180.587059 54.055109 
L 180.918348 56.010934 
L 181.916983 158.454041 
L 182.586981 200.707437 
L 183.61848 243.756416 
L 183.954539 260.474132 
L 184.286887 294.92463 
L 184.607574 292.530581 
L 185.606209 191.811802 
L 186.271966 151.266766 
L 187.310886 108.18574 
L 187.644295 88.993803 
L 187.976643 54.037728 
L 188.307931 56.024839 
L 189.306037 158.460929 
L 189.972324 200.746827 
L 191.000112 243.805083 
L 191.332461 260.510416 
L 191.665339 294.961348 
L 191.985496 292.544269 
L 192.987312 191.851866 
L 193.653599 151.292186 
L 194.687218 108.161407 
L 195.019567 89.008143 
L 195.351915 54.033817 
L 195.682673 56.00094 
L 196.685549 158.454541 
L 197.351836 200.715519 
L 198.383335 243.688194 
L 198.715684 260.51324 
L 199.048562 294.971125 
L 199.368719 292.563171 
L 200.366824 191.856993 
L 201.036292 151.338268 
L 202.071501 108.189868 
L 202.40385 88.986634 
L 202.736728 54.036859 
L 203.068547 55.992467 
L 204.066652 158.453585 
L 204.733469 200.718713 
L 205.771329 243.734906 
L 206.103677 260.52758 
L 206.437086 295.00415 
L 206.757243 292.585115 
L 207.755878 191.840937 
L 208.424815 151.331446 
L 209.460025 108.170532 
L 209.792373 88.979464 
L 210.125252 54.01296 
L 210.45654 55.992249 
L 211.454115 158.447132 
L 212.124113 200.644039 
L 213.155082 243.74338 
L 213.48743 260.532577 
L 213.820839 295.002194 
L 214.140466 292.597716 
L 215.143342 191.85343 
L 215.810158 151.291208 
L 216.843248 108.143808 
L 217.175596 88.971859 
L 217.509005 54.013177 
L 217.839763 55.990946 
L 218.838398 158.429316 
L 219.508396 200.695357 
L 220.535654 243.85223 
L 220.873303 260.547568 
L 221.205652 295.028918 
L 221.526339 292.604886 
L 222.523914 191.848368 
L 223.190201 151.265267 
L 223.899953 122.837044 
L 224.56571 88.843673 
L 224.898058 53.867826 
L 225.228816 55.837339 
L 226.231692 158.347081 
L 226.898509 200.745762 
L 227.930008 243.78705 
L 228.262357 260.657722 
L 228.595235 295.159712 
L 228.915392 292.766749 
L 229.913498 191.923433 
L 230.583495 151.310306 
L 231.615524 108.036479 
L 231.947873 88.824771 
L 232.283932 53.877169 
L 232.61522 55.841032 
L 233.613855 158.3828 
L 234.280142 200.765707 
L 235.314292 243.836152 
L 235.64717 260.659242 
L 235.979518 295.137551 
L 236.304446 292.710477 
L 237.302551 191.918697 
L 237.968838 151.272871 
L 239.001397 108.062985 
L 239.334276 88.861489 
L 239.666624 53.88347 
L 239.998443 55.841032 
L 240.996548 158.375435 
L 241.662835 200.76171 
L 242.695924 243.826592 
L 243.028803 260.646207 
L 243.361681 295.147762 
L 243.685549 292.737201 
L 244.683654 191.935883 
L 245.354711 151.28393 
L 246.388861 108.053208 
L 246.721209 88.817384 
L 247.054088 53.839582 
L 247.385376 55.813005 
L 248.382951 158.382691 
L 249.053479 200.693814 
L 250.083918 243.886558 
L 250.416266 260.679231 
L 250.752855 295.169489 
L 251.073012 292.780436 
L 252.071647 191.927431 
L 252.737934 151.24215 
L 253.774734 108.159234 
L 254.107613 88.785011 
L 254.440491 53.855008 
L 254.771249 55.826041 
L 255.769355 158.381083 
L 256.439352 200.750325 
L 257.468201 243.891555 
L 257.80479 260.699219 
L 258.137138 295.172748 
L 258.457295 292.759579 
L 259.45593 191.940662 
L 260.122747 151.277868 
L 260.833559 122.847038 
L 261.498786 88.796961 
L 261.831665 53.807644 
L 262.162423 55.804966 
L 263.160528 158.37626 
L 263.826815 200.779048 
L 264.858314 243.897421 
L 265.191193 260.700306 
L 265.524071 295.2099 
L 265.844228 292.804336 
L 266.843924 191.947615 
L 267.510211 151.265201 
L 268.54489 108.044518 
L 268.877769 88.804565 
L 269.213828 53.827198 
L 269.545116 55.810615 
L 270.544281 158.370329 
L 271.211098 200.75869 
L 272.242598 243.876346 
L 272.574946 260.713342 
L 272.907294 295.229454 
L 273.227981 292.81911 
L 274.226087 191.922195 
L 274.896084 151.346415 
L 275.929703 108.01649 
L 276.262052 88.790008 
L 276.59546 53.772664 
L 276.926749 55.755213 
L 277.925384 158.38821 
L 278.591671 200.804533 
L 279.62529 243.903939 
L 279.957639 260.715949 
L 280.289987 295.221632 
L 280.613854 292.80716 
L 281.61249 191.927735 
L 282.278777 151.252035 
L 283.312396 108.040172 
L 283.644745 88.790008 
L 283.977093 53.785048 
L 284.308911 55.781284 
L 285.307017 158.381453 
L 285.973834 200.776527 
L 287.011694 243.828982 
L 287.344572 260.725508 
L 287.677451 295.234017 
L 287.997608 292.812157 
L 288.995713 191.948397 
L 289.66518 151.264354 
L 290.696149 107.987377 
L 291.032208 88.77241 
L 291.365617 53.787873 
L 291.696375 55.740221 
L 292.69448 158.354686 
L 293.365007 200.70257 
L 294.392796 243.934573 
L 294.725145 260.756795 
L 295.062264 295.264216 
L 295.382421 292.847137 
L 296.381056 191.968125 
L 297.047343 151.245669 
L 298.086263 108.644388 
L 298.419141 88.765892 
L 298.75202 53.780703 
L 299.082778 55.77607 
L 300.081943 158.363268 
L 300.751941 200.810616 
L 301.78026 243.948044 
L 302.116849 260.703999 
L 302.449727 295.315926 
L 302.770414 292.916879 
L 303.769049 191.978097 
L 304.435336 151.224616 
L 305.146149 122.764477 
L 305.811375 88.739385 
L 306.147964 53.738336 
L 306.479783 55.746087 
L 307.478418 158.387862 
L 308.145765 200.778483 
L 309.179384 243.929359 
L 309.511733 260.810025 
L 309.844081 295.320923 
L 310.168479 292.906668 
L 311.166054 191.958934 
L 311.832341 151.245865 
L 312.86437 108.000196 
L 313.197249 88.752204 
L 313.530127 53.741378 
L 313.861415 55.725882 
L 314.858991 158.365049 
L 315.525277 200.788607 
L 316.558897 243.911978 
L 316.891245 260.794816 
L 317.224654 295.274645 
L 317.548521 292.860825 
L 318.546627 191.969255 
L 319.217154 151.269612 
L 320.252364 108.053208 
L 320.585772 88.776755 
L 320.918651 53.744202 
L 321.249939 55.721971 
L 322.249104 158.352535 
L 322.917511 200.760776 
L 323.94689 243.940439 
L 324.280299 260.795685 
L 324.616358 295.317229 
L 324.937045 292.896674 
L 325.939391 192.005299 
L 326.606208 151.286841 
L 327.638767 108.024312 
L 327.971645 88.755463 
L 328.303994 53.720738 
L 328.634752 55.711977 
L 329.633387 158.381496 
L 330.303915 200.791367 
L 331.331173 244.003881 
L 331.667762 260.8009 
L 332.000111 295.333741 
L 332.320798 292.909927 
L 333.318903 191.972079 
L 333.98572 151.278607 
L 334.696532 122.826398 
L 335.361759 88.761112 
L 335.698348 53.738771 
L 336.030166 55.726099 
L 337.027742 158.373327 
L 337.695089 200.765664 
L 338.729238 243.931749 
L 339.062116 260.800031 
L 339.395525 295.346126 
L 339.719392 292.92318 
L 340.718028 191.983268 
L 341.384845 151.271676 
L 342.416344 107.959567 
L 342.748692 88.753508 
L 343.082101 53.738771 
L 343.412859 55.71328 
L 344.410434 158.376195 
L 345.077251 200.827454 
L 346.115641 243.911978 
L 346.44799 260.836748 
L 346.781398 295.365245 
L 347.101555 292.95577 
L 348.099661 191.992285 
L 348.768598 151.260986 
L 349.798507 107.955873 
L 350.134566 88.714617 
L 350.467444 53.714654 
L 350.798732 55.684384 
L 351.797898 158.350601 
L 352.468425 200.726773 
L 353.498334 243.956952 
L 353.830683 260.843918 
L 354.167802 295.371111 
L 354.487958 292.979886 
L 355.485534 191.98744 
L 356.152351 151.254316 
L 357.18544 107.974775 
L 357.517789 88.74221 
L 357.850667 53.749199 
L 358.181955 55.697203 
L 359.184301 158.361464 
L 359.851118 200.790758 
L 360.879437 244.000405 
L 361.212315 260.84457 
L 361.545194 295.371546 
L 361.865351 292.954249 
L 362.863986 192.001149 
L 363.530273 151.245821 
L 364.568663 108.126644 
L 364.901541 88.716138 
L 365.23442 53.688582 
L 365.565178 55.672434 
L 366.563813 158.377738 
L 367.233811 200.81922 
L 368.26213 244.008009 
L 368.598719 260.852609 
L 368.931597 295.392403 
L 369.251754 292.987273 
L 370.250389 191.99059 
L 370.917206 151.226289 
L 371.628019 122.729498 
L 372.293245 88.670729 
L 372.630364 53.626879 
L 372.961653 55.608776 
L 373.959228 158.333806 
L 374.626045 200.798623 
L 375.661784 243.974985 
L 375.994663 260.874118 
L 376.328071 295.473443 
L 376.651409 293.068748 
L 377.650044 192.022724 
L 378.316331 151.213688 
L 379.34889 107.869402 
L 379.681769 88.649872 
L 380.014647 53.606673 
L 380.345406 55.568364 
L 381.344041 158.348059 
L 382.011388 200.827346 
L 383.044477 244.037992 
L 383.377356 260.940384 
L 383.710764 295.478006 
L 384.034102 293.040069 
L 385.031677 192.038063 
L 385.702734 151.23863 
L 386.732113 107.850717 
L 387.069232 88.666167 
L 387.402111 53.610367 
L 387.733399 55.584007 
L 388.731504 158.347625 
L 389.402032 200.760732 
L 390.77065 260.793295 
L 391.102998 295.458235 
L 391.423685 293.067662 
L 392.426031 192.02129 
L 393.092848 151.221618 
L 394.125493 107.916983 
L 394.457874 88.642919 
L 394.790256 53.568 
L 395.122107 55.55837 
L 396.120313 158.321705 
L 396.790907 200.846769 
L 397.818269 244.067323 
L 398.154891 260.924741 
L 398.487273 295.488 
L 398.487273 295.488 
" style="fill:none;stroke:#1f77b4;stroke-linecap:square;stroke-width:1.5;"/>
   </g>
   <g id="patch_3">
    <path d="M 57.6 307.584 
L 57.6 41.472 
" style="fill:none;stroke:#000000;stroke-linecap:square;stroke-linejoin:miter;stroke-width:0.8;"/>
   </g>
   <g id="patch_4">
    <path d="M 414.72 307.584 
L 414.72 41.472 
" style="fill:none;stroke:#000000;stroke-linecap:square;stroke-linejoin:miter;stroke-width:0.8;"/>
   </g>
   <g id="patch_5">
    <path d="M 57.6 307.584 
L 414.72 307.584 
" style="fill:none;stroke:#000000;stroke-linecap:square;stroke-linejoin:miter;stroke-width:0.8;"/>
   </g>
   <g id="patch_6">
    <path d="M 57.6 41.472 
L 414.72 41.472 
" style="fill:none;stroke:#000000;stroke-linecap:square;stroke-linejoin:miter;stroke-width:0.8;"/>
   </g>
   <g id="text_17">
    <!-- Voltage -->
    <g transform="translate(213.194063 35.472)scale(0.12 -0.12)">
     <use xlink:href="#DejaVuSans-56"/>
     <use x="68.298828" xlink:href="#DejaVuSans-6f"/>
     <use x="129.480469" xlink:href="#DejaVuSans-6c"/>
     <use x="157.263672" xlink:href="#DejaVuSans-74"/>
     <use x="196.472656" xlink:href="#DejaVuSans-61"/>
     <use x="257.751953" xlink:href="#DejaVuSans-67"/>
     <use x="321.228516" xlink:href="#DejaVuSans-65"/>
    </g>
   </g>
  </g>
 </g>
 <defs>
  <clipPath id="p9924584456">
   <rect height="266.112" width="357.12" x="57.6" y="41.472"/>
  </clipPath>
 </defs>
</svg>
