<?xml version="1.0" encoding="utf-8" standalone="no"?>
<!DOCTYPE svg PUBLIC "-//W3C//DTD SVG 1.1//EN"
  "http://www.w3.org/Graphics/SVG/1.1/DTD/svg11.dtd">
<!-- Created with matplotlib (http://matplotlib.org/) -->
<svg height="345pt" version="1.1" viewBox="0 0 460 345" width="460pt" xmlns="http://www.w3.org/2000/svg" xmlns:xlink="http://www.w3.org/1999/xlink">
 <defs>
  <style type="text/css">
*{stroke-linecap:butt;stroke-linejoin:round;}
  </style>
 </defs>
 <g id="figure_1">
  <g id="patch_1">
   <path d="M 0 345.6 
L 460.8 345.6 
L 460.8 0 
L 0 0 
z
" style="fill:#ffffff;"/>
  </g>
  <g id="axes_1">
   <g id="patch_2">
    <path d="M 57.6 307.584 
L 414.72 307.584 
L 414.72 41.472 
L 57.6 41.472 
z
" style="fill:#ffffff;"/>
   </g>
   <g id="matplotlib.axis_1">
    <g id="xtick_1">
     <g id="line2d_1">
      <defs>
       <path d="M 0 0 
L 0 3.5 
" id="mc631904133" style="stroke:#000000;stroke-width:0.8;"/>
      </defs>
      <g>
       <use style="stroke:#000000;stroke-width:0.8;" x="73.832727" xlink:href="#mc631904133" y="307.584"/>
      </g>
     </g>
     <g id="text_1">
      <!-- 0 -->
      <defs>
       <path d="M 31.78125 66.40625 
Q 24.171875 66.40625 20.328125 58.90625 
Q 16.5 51.421875 16.5 36.375 
Q 16.5 21.390625 20.328125 13.890625 
Q 24.171875 6.390625 31.78125 6.390625 
Q 39.453125 6.390625 43.28125 13.890625 
Q 47.125 21.390625 47.125 36.375 
Q 47.125 51.421875 43.28125 58.90625 
Q 39.453125 66.40625 31.78125 66.40625 
z
M 31.78125 74.21875 
Q 44.046875 74.21875 50.515625 64.515625 
Q 56.984375 54.828125 56.984375 36.375 
Q 56.984375 17.96875 50.515625 8.265625 
Q 44.046875 -1.421875 31.78125 -1.421875 
Q 19.53125 -1.421875 13.0625 8.265625 
Q 6.59375 17.96875 6.59375 36.375 
Q 6.59375 54.828125 13.0625 64.515625 
Q 19.53125 74.21875 31.78125 74.21875 
z
" id="DejaVuSans-30"/>
      </defs>
      <g transform="translate(70.651477 322.182437)scale(0.1 -0.1)">
       <use xlink:href="#DejaVuSans-30"/>
      </g>
     </g>
    </g>
    <g id="xtick_2">
     <g id="line2d_2">
      <g>
       <use style="stroke:#000000;stroke-width:0.8;" x="128.026391" xlink:href="#mc631904133" y="307.584"/>
      </g>
     </g>
     <g id="text_2">
      <!-- 100 -->
      <defs>
       <path d="M 12.40625 8.296875 
L 28.515625 8.296875 
L 28.515625 63.921875 
L 10.984375 60.40625 
L 10.984375 69.390625 
L 28.421875 72.90625 
L 38.28125 72.90625 
L 38.28125 8.296875 
L 54.390625 8.296875 
L 54.390625 0 
L 12.40625 0 
z
" id="DejaVuSans-31"/>
      </defs>
      <g transform="translate(118.482641 322.182437)scale(0.1 -0.1)">
       <use xlink:href="#DejaVuSans-31"/>
       <use x="63.623047" xlink:href="#DejaVuSans-30"/>
       <use x="127.246094" xlink:href="#DejaVuSans-30"/>
      </g>
     </g>
    </g>
    <g id="xtick_3">
     <g id="line2d_3">
      <g>
       <use style="stroke:#000000;stroke-width:0.8;" x="182.220056" xlink:href="#mc631904133" y="307.584"/>
      </g>
     </g>
     <g id="text_3">
      <!-- 200 -->
      <defs>
       <path d="M 19.1875 8.296875 
L 53.609375 8.296875 
L 53.609375 0 
L 7.328125 0 
L 7.328125 8.296875 
Q 12.9375 14.109375 22.625 23.890625 
Q 32.328125 33.6875 34.8125 36.53125 
Q 39.546875 41.84375 41.421875 45.53125 
Q 43.3125 49.21875 43.3125 52.78125 
Q 43.3125 58.59375 39.234375 62.25 
Q 35.15625 65.921875 28.609375 65.921875 
Q 23.96875 65.921875 18.8125 64.3125 
Q 13.671875 62.703125 7.8125 59.421875 
L 7.8125 69.390625 
Q 13.765625 71.78125 18.9375 73 
Q 24.125 74.21875 28.421875 74.21875 
Q 39.75 74.21875 46.484375 68.546875 
Q 53.21875 62.890625 53.21875 53.421875 
Q 53.21875 48.921875 51.53125 44.890625 
Q 49.859375 40.875 45.40625 35.40625 
Q 44.1875 33.984375 37.640625 27.21875 
Q 31.109375 20.453125 19.1875 8.296875 
z
" id="DejaVuSans-32"/>
      </defs>
      <g transform="translate(172.676306 322.182437)scale(0.1 -0.1)">
       <use xlink:href="#DejaVuSans-32"/>
       <use x="63.623047" xlink:href="#DejaVuSans-30"/>
       <use x="127.246094" xlink:href="#DejaVuSans-30"/>
      </g>
     </g>
    </g>
    <g id="xtick_4">
     <g id="line2d_4">
      <g>
       <use style="stroke:#000000;stroke-width:0.8;" x="236.41372" xlink:href="#mc631904133" y="307.584"/>
      </g>
     </g>
     <g id="text_4">
      <!-- 300 -->
      <defs>
       <path d="M 40.578125 39.3125 
Q 47.65625 37.796875 51.625 33 
Q 55.609375 28.21875 55.609375 21.1875 
Q 55.609375 10.40625 48.1875 4.484375 
Q 40.765625 -1.421875 27.09375 -1.421875 
Q 22.515625 -1.421875 17.65625 -0.515625 
Q 12.796875 0.390625 7.625 2.203125 
L 7.625 11.71875 
Q 11.71875 9.328125 16.59375 8.109375 
Q 21.484375 6.890625 26.8125 6.890625 
Q 36.078125 6.890625 40.9375 10.546875 
Q 45.796875 14.203125 45.796875 21.1875 
Q 45.796875 27.640625 41.28125 31.265625 
Q 36.765625 34.90625 28.71875 34.90625 
L 20.21875 34.90625 
L 20.21875 43.015625 
L 29.109375 43.015625 
Q 36.375 43.015625 40.234375 45.921875 
Q 44.09375 48.828125 44.09375 54.296875 
Q 44.09375 59.90625 40.109375 62.90625 
Q 36.140625 65.921875 28.71875 65.921875 
Q 24.65625 65.921875 20.015625 65.03125 
Q 15.375 64.15625 9.8125 62.3125 
L 9.8125 71.09375 
Q 15.4375 72.65625 20.34375 73.4375 
Q 25.25 74.21875 29.59375 74.21875 
Q 40.828125 74.21875 47.359375 69.109375 
Q 53.90625 64.015625 53.90625 55.328125 
Q 53.90625 49.265625 50.4375 45.09375 
Q 46.96875 40.921875 40.578125 39.3125 
z
" id="DejaVuSans-33"/>
      </defs>
      <g transform="translate(226.86997 322.182437)scale(0.1 -0.1)">
       <use xlink:href="#DejaVuSans-33"/>
       <use x="63.623047" xlink:href="#DejaVuSans-30"/>
       <use x="127.246094" xlink:href="#DejaVuSans-30"/>
      </g>
     </g>
    </g>
    <g id="xtick_5">
     <g id="line2d_5">
      <g>
       <use style="stroke:#000000;stroke-width:0.8;" x="290.607384" xlink:href="#mc631904133" y="307.584"/>
      </g>
     </g>
     <g id="text_5">
      <!-- 400 -->
      <defs>
       <path d="M 37.796875 64.3125 
L 12.890625 25.390625 
L 37.796875 25.390625 
z
M 35.203125 72.90625 
L 47.609375 72.90625 
L 47.609375 25.390625 
L 58.015625 25.390625 
L 58.015625 17.1875 
L 47.609375 17.1875 
L 47.609375 0 
L 37.796875 0 
L 37.796875 17.1875 
L 4.890625 17.1875 
L 4.890625 26.703125 
z
" id="DejaVuSans-34"/>
      </defs>
      <g transform="translate(281.063634 322.182437)scale(0.1 -0.1)">
       <use xlink:href="#DejaVuSans-34"/>
       <use x="63.623047" xlink:href="#DejaVuSans-30"/>
       <use x="127.246094" xlink:href="#DejaVuSans-30"/>
      </g>
     </g>
    </g>
    <g id="xtick_6">
     <g id="line2d_6">
      <g>
       <use style="stroke:#000000;stroke-width:0.8;" x="344.801048" xlink:href="#mc631904133" y="307.584"/>
      </g>
     </g>
     <g id="text_6">
      <!-- 500 -->
      <defs>
       <path d="M 10.796875 72.90625 
L 49.515625 72.90625 
L 49.515625 64.59375 
L 19.828125 64.59375 
L 19.828125 46.734375 
Q 21.96875 47.46875 24.109375 47.828125 
Q 26.265625 48.1875 28.421875 48.1875 
Q 40.625 48.1875 47.75 41.5 
Q 54.890625 34.8125 54.890625 23.390625 
Q 54.890625 11.625 47.5625 5.09375 
Q 40.234375 -1.421875 26.90625 -1.421875 
Q 22.3125 -1.421875 17.546875 -0.640625 
Q 12.796875 0.140625 7.71875 1.703125 
L 7.71875 11.625 
Q 12.109375 9.234375 16.796875 8.0625 
Q 21.484375 6.890625 26.703125 6.890625 
Q 35.15625 6.890625 40.078125 11.328125 
Q 45.015625 15.765625 45.015625 23.390625 
Q 45.015625 31 40.078125 35.4375 
Q 35.15625 39.890625 26.703125 39.890625 
Q 22.75 39.890625 18.8125 39.015625 
Q 14.890625 38.140625 10.796875 36.28125 
z
" id="DejaVuSans-35"/>
      </defs>
      <g transform="translate(335.257298 322.182437)scale(0.1 -0.1)">
       <use xlink:href="#DejaVuSans-35"/>
       <use x="63.623047" xlink:href="#DejaVuSans-30"/>
       <use x="127.246094" xlink:href="#DejaVuSans-30"/>
      </g>
     </g>
    </g>
    <g id="xtick_7">
     <g id="line2d_7">
      <g>
       <use style="stroke:#000000;stroke-width:0.8;" x="398.994713" xlink:href="#mc631904133" y="307.584"/>
      </g>
     </g>
     <g id="text_7">
      <!-- 600 -->
      <defs>
       <path d="M 33.015625 40.375 
Q 26.375 40.375 22.484375 35.828125 
Q 18.609375 31.296875 18.609375 23.390625 
Q 18.609375 15.53125 22.484375 10.953125 
Q 26.375 6.390625 33.015625 6.390625 
Q 39.65625 6.390625 43.53125 10.953125 
Q 47.40625 15.53125 47.40625 23.390625 
Q 47.40625 31.296875 43.53125 35.828125 
Q 39.65625 40.375 33.015625 40.375 
z
M 52.59375 71.296875 
L 52.59375 62.3125 
Q 48.875 64.0625 45.09375 64.984375 
Q 41.3125 65.921875 37.59375 65.921875 
Q 27.828125 65.921875 22.671875 59.328125 
Q 17.53125 52.734375 16.796875 39.40625 
Q 19.671875 43.65625 24.015625 45.921875 
Q 28.375 48.1875 33.59375 48.1875 
Q 44.578125 48.1875 50.953125 41.515625 
Q 57.328125 34.859375 57.328125 23.390625 
Q 57.328125 12.15625 50.6875 5.359375 
Q 44.046875 -1.421875 33.015625 -1.421875 
Q 20.359375 -1.421875 13.671875 8.265625 
Q 6.984375 17.96875 6.984375 36.375 
Q 6.984375 53.65625 15.1875 63.9375 
Q 23.390625 74.21875 37.203125 74.21875 
Q 40.921875 74.21875 44.703125 73.484375 
Q 48.484375 72.75 52.59375 71.296875 
z
" id="DejaVuSans-36"/>
      </defs>
      <g transform="translate(389.450963 322.182437)scale(0.1 -0.1)">
       <use xlink:href="#DejaVuSans-36"/>
       <use x="63.623047" xlink:href="#DejaVuSans-30"/>
       <use x="127.246094" xlink:href="#DejaVuSans-30"/>
      </g>
     </g>
    </g>
    <g id="text_8">
     <!-- t(s) -->
     <defs>
      <path d="M 18.3125 70.21875 
L 18.3125 54.6875 
L 36.8125 54.6875 
L 36.8125 47.703125 
L 18.3125 47.703125 
L 18.3125 18.015625 
Q 18.3125 11.328125 20.140625 9.421875 
Q 21.96875 7.515625 27.59375 7.515625 
L 36.8125 7.515625 
L 36.8125 0 
L 27.59375 0 
Q 17.1875 0 13.234375 3.875 
Q 9.28125 7.765625 9.28125 18.015625 
L 9.28125 47.703125 
L 2.6875 47.703125 
L 2.6875 54.6875 
L 9.28125 54.6875 
L 9.28125 70.21875 
z
" id="DejaVuSans-74"/>
      <path d="M 31 75.875 
Q 24.46875 64.65625 21.28125 53.65625 
Q 18.109375 42.671875 18.109375 31.390625 
Q 18.109375 20.125 21.3125 9.0625 
Q 24.515625 -2 31 -13.1875 
L 23.1875 -13.1875 
Q 15.875 -1.703125 12.234375 9.375 
Q 8.59375 20.453125 8.59375 31.390625 
Q 8.59375 42.28125 12.203125 53.3125 
Q 15.828125 64.359375 23.1875 75.875 
z
" id="DejaVuSans-28"/>
      <path d="M 44.28125 53.078125 
L 44.28125 44.578125 
Q 40.484375 46.53125 36.375 47.5 
Q 32.28125 48.484375 27.875 48.484375 
Q 21.1875 48.484375 17.84375 46.4375 
Q 14.5 44.390625 14.5 40.28125 
Q 14.5 37.15625 16.890625 35.375 
Q 19.28125 33.59375 26.515625 31.984375 
L 29.59375 31.296875 
Q 39.15625 29.25 43.1875 25.515625 
Q 47.21875 21.78125 47.21875 15.09375 
Q 47.21875 7.46875 41.1875 3.015625 
Q 35.15625 -1.421875 24.609375 -1.421875 
Q 20.21875 -1.421875 15.453125 -0.5625 
Q 10.6875 0.296875 5.421875 2 
L 5.421875 11.28125 
Q 10.40625 8.6875 15.234375 7.390625 
Q 20.0625 6.109375 24.8125 6.109375 
Q 31.15625 6.109375 34.5625 8.28125 
Q 37.984375 10.453125 37.984375 14.40625 
Q 37.984375 18.0625 35.515625 20.015625 
Q 33.0625 21.96875 24.703125 23.78125 
L 21.578125 24.515625 
Q 13.234375 26.265625 9.515625 29.90625 
Q 5.8125 33.546875 5.8125 39.890625 
Q 5.8125 47.609375 11.28125 51.796875 
Q 16.75 56 26.8125 56 
Q 31.78125 56 36.171875 55.265625 
Q 40.578125 54.546875 44.28125 53.078125 
z
" id="DejaVuSans-73"/>
      <path d="M 8.015625 75.875 
L 15.828125 75.875 
Q 23.140625 64.359375 26.78125 53.3125 
Q 30.421875 42.28125 30.421875 31.390625 
Q 30.421875 20.453125 26.78125 9.375 
Q 23.140625 -1.703125 15.828125 -13.1875 
L 8.015625 -13.1875 
Q 14.5 -2 17.703125 9.0625 
Q 20.90625 20.125 20.90625 31.390625 
Q 20.90625 42.671875 17.703125 53.65625 
Q 14.5 64.65625 8.015625 75.875 
z
" id="DejaVuSans-29"/>
     </defs>
     <g transform="translate(227.693594 335.860562)scale(0.1 -0.1)">
      <use xlink:href="#DejaVuSans-74"/>
      <use x="39.208984" xlink:href="#DejaVuSans-28"/>
      <use x="78.222656" xlink:href="#DejaVuSans-73"/>
      <use x="130.322266" xlink:href="#DejaVuSans-29"/>
     </g>
    </g>
   </g>
   <g id="matplotlib.axis_2">
    <g id="ytick_1">
     <g id="line2d_8">
      <defs>
       <path d="M 0 0 
L -3.5 0 
" id="ma284bdfd91" style="stroke:#000000;stroke-width:0.8;"/>
      </defs>
      <g>
       <use style="stroke:#000000;stroke-width:0.8;" x="57.6" xlink:href="#ma284bdfd91" y="275.591007"/>
      </g>
     </g>
     <g id="text_9">
      <!-- 4.4 -->
      <defs>
       <path d="M 10.6875 12.40625 
L 21 12.40625 
L 21 0 
L 10.6875 0 
z
" id="DejaVuSans-2e"/>
      </defs>
      <g transform="translate(34.696875 279.390226)scale(0.1 -0.1)">
       <use xlink:href="#DejaVuSans-34"/>
       <use x="63.623047" xlink:href="#DejaVuSans-2e"/>
       <use x="95.410156" xlink:href="#DejaVuSans-34"/>
      </g>
     </g>
    </g>
    <g id="ytick_2">
     <g id="line2d_9">
      <g>
       <use style="stroke:#000000;stroke-width:0.8;" x="57.6" xlink:href="#ma284bdfd91" y="232.27168"/>
      </g>
     </g>
     <g id="text_10">
      <!-- 4.6 -->
      <g transform="translate(34.696875 236.070899)scale(0.1 -0.1)">
       <use xlink:href="#DejaVuSans-34"/>
       <use x="63.623047" xlink:href="#DejaVuSans-2e"/>
       <use x="95.410156" xlink:href="#DejaVuSans-36"/>
      </g>
     </g>
    </g>
    <g id="ytick_3">
     <g id="line2d_10">
      <g>
       <use style="stroke:#000000;stroke-width:0.8;" x="57.6" xlink:href="#ma284bdfd91" y="188.952353"/>
      </g>
     </g>
     <g id="text_11">
      <!-- 4.8 -->
      <defs>
       <path d="M 31.78125 34.625 
Q 24.75 34.625 20.71875 30.859375 
Q 16.703125 27.09375 16.703125 20.515625 
Q 16.703125 13.921875 20.71875 10.15625 
Q 24.75 6.390625 31.78125 6.390625 
Q 38.8125 6.390625 42.859375 10.171875 
Q 46.921875 13.96875 46.921875 20.515625 
Q 46.921875 27.09375 42.890625 30.859375 
Q 38.875 34.625 31.78125 34.625 
z
M 21.921875 38.8125 
Q 15.578125 40.375 12.03125 44.71875 
Q 8.5 49.078125 8.5 55.328125 
Q 8.5 64.0625 14.71875 69.140625 
Q 20.953125 74.21875 31.78125 74.21875 
Q 42.671875 74.21875 48.875 69.140625 
Q 55.078125 64.0625 55.078125 55.328125 
Q 55.078125 49.078125 51.53125 44.71875 
Q 48 40.375 41.703125 38.8125 
Q 48.828125 37.15625 52.796875 32.3125 
Q 56.78125 27.484375 56.78125 20.515625 
Q 56.78125 9.90625 50.3125 4.234375 
Q 43.84375 -1.421875 31.78125 -1.421875 
Q 19.734375 -1.421875 13.25 4.234375 
Q 6.78125 9.90625 6.78125 20.515625 
Q 6.78125 27.484375 10.78125 32.3125 
Q 14.796875 37.15625 21.921875 38.8125 
z
M 18.3125 54.390625 
Q 18.3125 48.734375 21.84375 45.5625 
Q 25.390625 42.390625 31.78125 42.390625 
Q 38.140625 42.390625 41.71875 45.5625 
Q 45.3125 48.734375 45.3125 54.390625 
Q 45.3125 60.0625 41.71875 63.234375 
Q 38.140625 66.40625 31.78125 66.40625 
Q 25.390625 66.40625 21.84375 63.234375 
Q 18.3125 60.0625 18.3125 54.390625 
z
" id="DejaVuSans-38"/>
      </defs>
      <g transform="translate(34.696875 192.751572)scale(0.1 -0.1)">
       <use xlink:href="#DejaVuSans-34"/>
       <use x="63.623047" xlink:href="#DejaVuSans-2e"/>
       <use x="95.410156" xlink:href="#DejaVuSans-38"/>
      </g>
     </g>
    </g>
    <g id="ytick_4">
     <g id="line2d_11">
      <g>
       <use style="stroke:#000000;stroke-width:0.8;" x="57.6" xlink:href="#ma284bdfd91" y="145.633026"/>
      </g>
     </g>
     <g id="text_12">
      <!-- 5.0 -->
      <g transform="translate(34.696875 149.432245)scale(0.1 -0.1)">
       <use xlink:href="#DejaVuSans-35"/>
       <use x="63.623047" xlink:href="#DejaVuSans-2e"/>
       <use x="95.410156" xlink:href="#DejaVuSans-30"/>
      </g>
     </g>
    </g>
    <g id="ytick_5">
     <g id="line2d_12">
      <g>
       <use style="stroke:#000000;stroke-width:0.8;" x="57.6" xlink:href="#ma284bdfd91" y="102.313699"/>
      </g>
     </g>
     <g id="text_13">
      <!-- 5.2 -->
      <g transform="translate(34.696875 106.112918)scale(0.1 -0.1)">
       <use xlink:href="#DejaVuSans-35"/>
       <use x="63.623047" xlink:href="#DejaVuSans-2e"/>
       <use x="95.410156" xlink:href="#DejaVuSans-32"/>
      </g>
     </g>
    </g>
    <g id="ytick_6">
     <g id="line2d_13">
      <g>
       <use style="stroke:#000000;stroke-width:0.8;" x="57.6" xlink:href="#ma284bdfd91" y="58.994373"/>
      </g>
     </g>
     <g id="text_14">
      <!-- 5.4 -->
      <g transform="translate(34.696875 62.793591)scale(0.1 -0.1)">
       <use xlink:href="#DejaVuSans-35"/>
       <use x="63.623047" xlink:href="#DejaVuSans-2e"/>
       <use x="95.410156" xlink:href="#DejaVuSans-34"/>
      </g>
     </g>
    </g>
    <g id="text_15">
     <!-- Resistance (Ohm) -->
     <defs>
      <path d="M 44.390625 34.1875 
Q 47.5625 33.109375 50.5625 29.59375 
Q 53.5625 26.078125 56.59375 19.921875 
L 66.609375 0 
L 56 0 
L 46.6875 18.703125 
Q 43.0625 26.03125 39.671875 28.421875 
Q 36.28125 30.8125 30.421875 30.8125 
L 19.671875 30.8125 
L 19.671875 0 
L 9.8125 0 
L 9.8125 72.90625 
L 32.078125 72.90625 
Q 44.578125 72.90625 50.734375 67.671875 
Q 56.890625 62.453125 56.890625 51.90625 
Q 56.890625 45.015625 53.6875 40.46875 
Q 50.484375 35.9375 44.390625 34.1875 
z
M 19.671875 64.796875 
L 19.671875 38.921875 
L 32.078125 38.921875 
Q 39.203125 38.921875 42.84375 42.21875 
Q 46.484375 45.515625 46.484375 51.90625 
Q 46.484375 58.296875 42.84375 61.546875 
Q 39.203125 64.796875 32.078125 64.796875 
z
" id="DejaVuSans-52"/>
      <path d="M 56.203125 29.59375 
L 56.203125 25.203125 
L 14.890625 25.203125 
Q 15.484375 15.921875 20.484375 11.0625 
Q 25.484375 6.203125 34.421875 6.203125 
Q 39.59375 6.203125 44.453125 7.46875 
Q 49.3125 8.734375 54.109375 11.28125 
L 54.109375 2.78125 
Q 49.265625 0.734375 44.1875 -0.34375 
Q 39.109375 -1.421875 33.890625 -1.421875 
Q 20.796875 -1.421875 13.15625 6.1875 
Q 5.515625 13.8125 5.515625 26.8125 
Q 5.515625 40.234375 12.765625 48.109375 
Q 20.015625 56 32.328125 56 
Q 43.359375 56 49.78125 48.890625 
Q 56.203125 41.796875 56.203125 29.59375 
z
M 47.21875 32.234375 
Q 47.125 39.59375 43.09375 43.984375 
Q 39.0625 48.390625 32.421875 48.390625 
Q 24.90625 48.390625 20.390625 44.140625 
Q 15.875 39.890625 15.1875 32.171875 
z
" id="DejaVuSans-65"/>
      <path d="M 9.421875 54.6875 
L 18.40625 54.6875 
L 18.40625 0 
L 9.421875 0 
z
M 9.421875 75.984375 
L 18.40625 75.984375 
L 18.40625 64.59375 
L 9.421875 64.59375 
z
" id="DejaVuSans-69"/>
      <path d="M 34.28125 27.484375 
Q 23.390625 27.484375 19.1875 25 
Q 14.984375 22.515625 14.984375 16.5 
Q 14.984375 11.71875 18.140625 8.90625 
Q 21.296875 6.109375 26.703125 6.109375 
Q 34.1875 6.109375 38.703125 11.40625 
Q 43.21875 16.703125 43.21875 25.484375 
L 43.21875 27.484375 
z
M 52.203125 31.203125 
L 52.203125 0 
L 43.21875 0 
L 43.21875 8.296875 
Q 40.140625 3.328125 35.546875 0.953125 
Q 30.953125 -1.421875 24.3125 -1.421875 
Q 15.921875 -1.421875 10.953125 3.296875 
Q 6 8.015625 6 15.921875 
Q 6 25.140625 12.171875 29.828125 
Q 18.359375 34.515625 30.609375 34.515625 
L 43.21875 34.515625 
L 43.21875 35.40625 
Q 43.21875 41.609375 39.140625 45 
Q 35.0625 48.390625 27.6875 48.390625 
Q 23 48.390625 18.546875 47.265625 
Q 14.109375 46.140625 10.015625 43.890625 
L 10.015625 52.203125 
Q 14.9375 54.109375 19.578125 55.046875 
Q 24.21875 56 28.609375 56 
Q 40.484375 56 46.34375 49.84375 
Q 52.203125 43.703125 52.203125 31.203125 
z
" id="DejaVuSans-61"/>
      <path d="M 54.890625 33.015625 
L 54.890625 0 
L 45.90625 0 
L 45.90625 32.71875 
Q 45.90625 40.484375 42.875 44.328125 
Q 39.84375 48.1875 33.796875 48.1875 
Q 26.515625 48.1875 22.3125 43.546875 
Q 18.109375 38.921875 18.109375 30.90625 
L 18.109375 0 
L 9.078125 0 
L 9.078125 54.6875 
L 18.109375 54.6875 
L 18.109375 46.1875 
Q 21.34375 51.125 25.703125 53.5625 
Q 30.078125 56 35.796875 56 
Q 45.21875 56 50.046875 50.171875 
Q 54.890625 44.34375 54.890625 33.015625 
z
" id="DejaVuSans-6e"/>
      <path d="M 48.78125 52.59375 
L 48.78125 44.1875 
Q 44.96875 46.296875 41.140625 47.34375 
Q 37.3125 48.390625 33.40625 48.390625 
Q 24.65625 48.390625 19.8125 42.84375 
Q 14.984375 37.3125 14.984375 27.296875 
Q 14.984375 17.28125 19.8125 11.734375 
Q 24.65625 6.203125 33.40625 6.203125 
Q 37.3125 6.203125 41.140625 7.25 
Q 44.96875 8.296875 48.78125 10.40625 
L 48.78125 2.09375 
Q 45.015625 0.34375 40.984375 -0.53125 
Q 36.96875 -1.421875 32.421875 -1.421875 
Q 20.0625 -1.421875 12.78125 6.34375 
Q 5.515625 14.109375 5.515625 27.296875 
Q 5.515625 40.671875 12.859375 48.328125 
Q 20.21875 56 33.015625 56 
Q 37.15625 56 41.109375 55.140625 
Q 45.0625 54.296875 48.78125 52.59375 
z
" id="DejaVuSans-63"/>
      <path id="DejaVuSans-20"/>
      <path d="M 39.40625 66.21875 
Q 28.65625 66.21875 22.328125 58.203125 
Q 16.015625 50.203125 16.015625 36.375 
Q 16.015625 22.609375 22.328125 14.59375 
Q 28.65625 6.59375 39.40625 6.59375 
Q 50.140625 6.59375 56.421875 14.59375 
Q 62.703125 22.609375 62.703125 36.375 
Q 62.703125 50.203125 56.421875 58.203125 
Q 50.140625 66.21875 39.40625 66.21875 
z
M 39.40625 74.21875 
Q 54.734375 74.21875 63.90625 63.9375 
Q 73.09375 53.65625 73.09375 36.375 
Q 73.09375 19.140625 63.90625 8.859375 
Q 54.734375 -1.421875 39.40625 -1.421875 
Q 24.03125 -1.421875 14.8125 8.828125 
Q 5.609375 19.09375 5.609375 36.375 
Q 5.609375 53.65625 14.8125 63.9375 
Q 24.03125 74.21875 39.40625 74.21875 
z
" id="DejaVuSans-4f"/>
      <path d="M 54.890625 33.015625 
L 54.890625 0 
L 45.90625 0 
L 45.90625 32.71875 
Q 45.90625 40.484375 42.875 44.328125 
Q 39.84375 48.1875 33.796875 48.1875 
Q 26.515625 48.1875 22.3125 43.546875 
Q 18.109375 38.921875 18.109375 30.90625 
L 18.109375 0 
L 9.078125 0 
L 9.078125 75.984375 
L 18.109375 75.984375 
L 18.109375 46.1875 
Q 21.34375 51.125 25.703125 53.5625 
Q 30.078125 56 35.796875 56 
Q 45.21875 56 50.046875 50.171875 
Q 54.890625 44.34375 54.890625 33.015625 
z
" id="DejaVuSans-68"/>
      <path d="M 52 44.1875 
Q 55.375 50.25 60.0625 53.125 
Q 64.75 56 71.09375 56 
Q 79.640625 56 84.28125 50.015625 
Q 88.921875 44.046875 88.921875 33.015625 
L 88.921875 0 
L 79.890625 0 
L 79.890625 32.71875 
Q 79.890625 40.578125 77.09375 44.375 
Q 74.3125 48.1875 68.609375 48.1875 
Q 61.625 48.1875 57.5625 43.546875 
Q 53.515625 38.921875 53.515625 30.90625 
L 53.515625 0 
L 44.484375 0 
L 44.484375 32.71875 
Q 44.484375 40.625 41.703125 44.40625 
Q 38.921875 48.1875 33.109375 48.1875 
Q 26.21875 48.1875 22.15625 43.53125 
Q 18.109375 38.875 18.109375 30.90625 
L 18.109375 0 
L 9.078125 0 
L 9.078125 54.6875 
L 18.109375 54.6875 
L 18.109375 46.1875 
Q 21.1875 51.21875 25.484375 53.609375 
Q 29.78125 56 35.6875 56 
Q 41.65625 56 45.828125 52.96875 
Q 50 49.953125 52 44.1875 
z
" id="DejaVuSans-6d"/>
     </defs>
     <g transform="translate(28.617187 219.158469)rotate(-90)scale(0.1 -0.1)">
      <use xlink:href="#DejaVuSans-52"/>
      <use x="69.419922" xlink:href="#DejaVuSans-65"/>
      <use x="130.943359" xlink:href="#DejaVuSans-73"/>
      <use x="183.042969" xlink:href="#DejaVuSans-69"/>
      <use x="210.826172" xlink:href="#DejaVuSans-73"/>
      <use x="262.925781" xlink:href="#DejaVuSans-74"/>
      <use x="302.134766" xlink:href="#DejaVuSans-61"/>
      <use x="363.414062" xlink:href="#DejaVuSans-6e"/>
      <use x="426.792969" xlink:href="#DejaVuSans-63"/>
      <use x="481.773438" xlink:href="#DejaVuSans-65"/>
      <use x="543.296875" xlink:href="#DejaVuSans-20"/>
      <use x="575.083984" xlink:href="#DejaVuSans-28"/>
      <use x="614.097656" xlink:href="#DejaVuSans-4f"/>
      <use x="692.808594" xlink:href="#DejaVuSans-68"/>
      <use x="756.1875" xlink:href="#DejaVuSans-6d"/>
      <use x="853.599609" xlink:href="#DejaVuSans-29"/>
     </g>
    </g>
    <g id="text_16">
     <!-- 1e8 -->
     <g transform="translate(57.6 38.472)scale(0.1 -0.1)">
      <use xlink:href="#DejaVuSans-31"/>
      <use x="63.623047" xlink:href="#DejaVuSans-65"/>
      <use x="125.146484" xlink:href="#DejaVuSans-38"/>
     </g>
    </g>
   </g>
   <g id="line2d_14">
    <path clip-path="url(#p52361384e4)" d="M 73.832727 62.550872 
L 74.374718 63.050533 
L 74.916709 91.68681 
L 75.4587 53.568 
L 76.000691 73.989524 
L 76.542681 86.831093 
L 77.084672 93.947798 
L 78.168654 111.907336 
L 78.710645 115.295024 
L 79.252636 113.978396 
L 79.794627 109.599609 
L 80.336617 110.812354 
L 80.878608 109.140277 
L 81.420599 108.73623 
L 81.96259 111.619391 
L 82.504581 106.181617 
L 83.046571 105.716094 
L 83.588562 102.972202 
L 84.130553 118.549566 
L 84.672544 121.217041 
L 85.214535 126.514816 
L 85.756526 139.208771 
L 86.298517 145.742397 
L 86.840507 162.740334 
L 87.382498 158.319294 
L 87.924489 171.83788 
L 88.46648 178.449648 
L 89.008471 189.284939 
L 90.092452 203.984707 
L 90.634443 204.663878 
L 91.176434 207.270176 
L 91.718425 207.223034 
L 92.260416 204.323892 
L 92.802407 203.157983 
L 93.344397 199.311278 
L 93.886388 199.016678 
L 94.428379 199.262361 
L 94.97037 190.23372 
L 95.512361 192.126105 
L 97.138333 173.491566 
L 97.680324 175.18186 
L 98.222315 179.420381 
L 98.764306 180.586967 
L 99.306297 186.789512 
L 99.848287 184.074333 
L 100.932269 200.192012 
L 101.47426 206.501065 
L 102.016251 209.146018 
L 102.558242 209.245036 
L 103.100233 209.914205 
L 103.642223 211.734658 
L 104.184214 214.682963 
L 104.726205 214.116114 
L 105.268196 215.724078 
L 105.810187 224.414793 
L 106.352177 216.955132 
L 106.894168 224.321669 
L 107.436159 227.801034 
L 107.97815 226.410783 
L 108.520141 224.131351 
L 109.062132 230.750933 
L 109.604123 231.807167 
L 110.146113 235.099229 
L 110.688104 235.234933 
L 111.230095 232.127189 
L 111.772086 232.494811 
L 112.314077 229.925749 
L 112.856067 233.729188 
L 113.398058 233.456916 
L 113.940049 228.173852 
L 114.48204 235.511195 
L 115.024031 236.059292 
L 115.566022 236.284677 
L 116.650003 226.134475 
L 117.191994 230.152941 
L 117.733985 229.463058 
L 118.275976 232.768608 
L 118.817967 229.877701 
L 119.359957 224.599984 
L 119.901948 225.762148 
L 120.443939 224.647527 
L 120.98593 226.133472 
L 121.527921 218.935822 
L 122.069912 219.642342 
L 122.611903 224.879149 
L 123.695884 220.861886 
L 124.237875 220.908771 
L 124.779866 221.845563 
L 125.321857 229.092197 
L 126.405838 236.239211 
L 126.947829 246.367012 
L 127.48982 245.917435 
L 128.031811 252.118966 
L 128.573802 250.313573 
L 129.115793 253.922571 
L 129.657783 250.311617 
L 130.199774 252.295031 
L 130.741765 256.720684 
L 131.283756 256.721656 
L 131.825747 252.207007 
L 132.367737 251.417982 
L 132.909728 246.8044 
L 133.451719 251.156318 
L 134.535701 243.413328 
L 135.077692 235.648772 
L 135.619683 235.145793 
L 136.161673 232.408161 
L 136.703664 233.413181 
L 137.245655 230.844864 
L 137.787646 232.679019 
L 138.329637 231.258362 
L 138.871628 227.293092 
L 139.413618 231.808164 
L 139.955609 228.218059 
L 140.4976 235.828841 
L 141.039591 237.370637 
L 141.581582 242.155005 
L 142.123573 238.186514 
L 142.665563 248.672973 
L 143.749545 251.242578 
L 144.291536 253.749043 
L 144.833527 260.629809 
L 145.375518 265.448875 
L 145.917509 261.407864 
L 146.459499 259.980474 
L 147.00149 256.546212 
L 147.543481 268.566329 
L 148.085472 262.400226 
L 148.627463 259.89383 
L 149.169453 262.787022 
L 149.711444 257.20113 
L 150.253435 255.239567 
L 150.795426 260.066133 
L 151.337417 260.196047 
L 151.879408 254.714364 
L 152.421398 263.30452 
L 153.50538 251.196518 
L 154.047371 253.435953 
L 154.589362 251.856704 
L 155.131353 251.460113 
L 155.673343 259.851471 
L 156.215334 262.443326 
L 156.757325 252.866802 
L 157.299316 260.284574 
L 157.841307 257.983734 
L 158.383298 265.492667 
L 158.925289 252.560961 
L 159.467279 252.516974 
L 160.00927 249.206667 
L 160.551261 256.154393 
L 161.093252 246.810291 
L 161.635243 249.383784 
L 162.719224 238.508388 
L 163.261215 245.873831 
L 163.803206 240.629072 
L 164.345197 251.769578 
L 165.429178 255.151099 
L 165.971169 251.283747 
L 166.51316 251.327845 
L 167.055151 238.462136 
L 167.597142 234.963488 
L 168.681124 240.043851 
L 169.223114 247.60875 
L 169.765105 243.237987 
L 170.307096 254.668623 
L 170.849087 258.897279 
L 171.391078 254.008337 
L 171.933069 251.0632 
L 172.475059 257.768143 
L 173.01705 260.416365 
L 173.559041 265.15186 
L 174.101032 263.907407 
L 174.643023 260.847029 
L 175.185014 272.128522 
L 175.727004 272.25522 
L 176.268995 261.839576 
L 176.810986 265.408933 
L 177.352977 263.565474 
L 177.894968 260.284574 
L 178.436959 255.716614 
L 178.978949 252.384992 
L 179.52094 253.880657 
L 180.062931 251.896843 
L 180.604922 251.196518 
L 181.688904 237.917677 
L 182.230894 237.05398 
L 182.772885 238.459165 
L 183.314876 239.364614 
L 184.398858 248.808901 
L 184.940849 245.559642 
L 185.482839 244.891892 
L 186.02483 240.314495 
L 186.566821 234.324894 
L 187.108812 230.339012 
L 187.650803 238.958802 
L 188.192794 242.293713 
L 188.734784 247.255131 
L 189.276775 244.757839 
L 189.818766 253.790969 
L 190.360757 253.744168 
L 190.902748 248.671993 
L 191.98673 260.243218 
L 192.52872 252.95861 
L 193.070711 263.522474 
L 193.612702 262.444293 
L 194.154693 272.25522 
L 194.696684 269.927072 
L 195.238675 265.621129 
L 195.780665 260.413461 
L 196.322656 256.45798 
L 196.864647 266.946567 
L 197.406638 272.89012 
L 197.948629 276.333787 
L 199.03261 255.937985 
L 199.574601 256.109758 
L 200.116592 258.205051 
L 200.658583 262.269937 
L 201.200574 248.101178 
L 201.742564 241.167596 
L 202.284555 243.326651 
L 202.826546 246.275951 
L 203.368537 234.234593 
L 203.910528 238.506408 
L 204.453061 235.23692 
L 204.995052 238.098899 
L 205.537042 242.160924 
L 206.079033 237.239484 
L 206.621024 246.500627 
L 207.163015 253.527656 
L 207.705006 265.538381 
L 208.246996 269.117287 
L 208.788987 267.245355 
L 209.330978 275.455658 
L 209.872969 272.423142 
L 210.41496 267.715465 
L 210.956951 264.465663 
L 211.498942 268.907596 
L 212.040932 264.163215 
L 212.582923 264.724065 
L 213.124914 261.366606 
L 213.666905 259.633805 
L 214.208896 256.720684 
L 214.750887 245.248204 
L 215.834868 254.491465 
L 216.91885 245.070572 
L 217.460841 245.605241 
L 218.002832 237.01156 
L 218.544822 243.461094 
L 219.086813 241.395591 
L 219.628804 242.878242 
L 220.170795 242.340598 
L 220.712786 242.741668 
L 221.254777 245.38114 
L 221.796767 245.960053 
L 222.338758 250.83962 
L 222.880749 251.107318 
L 223.42274 260.891235 
L 223.964731 261.234104 
L 224.506722 262.48449 
L 225.048712 265.323257 
L 225.590703 256.851496 
L 226.132694 255.497091 
L 226.674685 255.80498 
L 227.216676 254.755231 
L 227.758667 255.323153 
L 228.300658 254.009312 
L 228.842648 241.171545 
L 229.384639 247.65318 
L 229.92663 244.581997 
L 230.468621 247.03178 
L 231.011154 244.799576 
L 231.553145 246.896346 
L 232.095135 240.6771 
L 232.637126 243.547747 
L 233.179117 249.520495 
L 233.721108 241.036476 
L 234.263099 248.49756 
L 234.80509 241.396578 
L 235.34708 230.201961 
L 235.889071 230.246983 
L 236.431062 232.130179 
L 236.973053 233.364466 
L 237.515044 227.153198 
L 238.057035 234.18894 
L 238.599025 233.502637 
L 239.141016 234.004294 
L 239.683007 232.862163 
L 240.224998 233.637784 
L 240.766989 239.862351 
L 241.308979 239.995764 
L 241.85097 241.439598 
L 242.392961 243.861249 
L 242.934952 247.341107 
L 243.476943 244.712163 
L 244.018934 236.916791 
L 244.561467 234.962494 
L 245.103457 238.911602 
L 245.645448 240.26841 
L 246.72943 235.005096 
L 247.813412 248.367429 
L 248.355402 250.531525 
L 248.897393 243.63734 
L 249.439384 239.996752 
L 249.981375 241.708492 
L 250.523366 241.798419 
L 251.065357 232.495807 
L 251.607347 233.364466 
L 252.149338 237.825059 
L 252.691329 235.917857 
L 253.23332 224.457331 
L 253.775311 223.946991 
L 254.859292 222.357038 
L 255.401283 226.229267 
L 255.943274 223.856795 
L 256.485265 227.108894 
L 257.027798 228.399846 
L 257.569789 224.927669 
L 258.11178 223.622689 
L 259.195761 215.488202 
L 259.737752 210.394117 
L 260.279743 215.061522 
L 260.821734 214.208097 
L 261.363724 213.732786 
L 261.905715 217.570043 
L 262.447706 210.728056 
L 262.989697 211.970257 
L 263.531688 209.770449 
L 264.073679 210.297356 
L 264.615669 211.207202 
L 265.15766 215.678735 
L 265.699651 217.287809 
L 266.241642 212.829483 
L 266.783633 216.957155 
L 267.325624 219.641333 
L 267.867614 221.659351 
L 268.409605 217.850098 
L 268.951596 218.232354 
L 269.493587 221.984925 
L 270.035578 226.596239 
L 270.577569 222.688194 
L 271.11956 233.95663 
L 271.66155 224.320664 
L 272.203541 230.704959 
L 272.745532 226.366413 
L 273.287523 228.537393 
L 274.371505 221.192007 
L 274.913495 231.805173 
L 276.539468 239.90353 
L 277.081459 246.762839 
L 277.62345 243.504915 
L 278.16544 248.719266 
L 278.707431 252.163965 
L 279.249422 250.535437 
L 279.791413 250.180015 
L 280.333404 251.109273 
L 280.875394 243.860265 
L 281.417385 245.430688 
L 281.959376 246.452164 
L 282.501367 237.780725 
L 283.043358 244.980256 
L 283.585349 238.278075 
L 284.12734 238.869346 
L 284.66933 245.293831 
L 285.211321 246.854793 
L 285.753312 249.516579 
L 286.295303 253.525706 
L 286.837294 254.010287 
L 287.379285 254.842796 
L 287.921275 245.427738 
L 288.463266 258.07072 
L 289.005257 254.097986 
L 289.547248 252.429966 
L 290.089239 238.370609 
L 290.63123 250.487355 
L 291.17322 257.418916 
L 291.715211 252.163965 
L 292.257202 251.415051 
L 292.799193 251.636416 
L 293.341184 250.313573 
L 293.883175 255.673885 
L 294.425166 253.000605 
L 294.967156 248.762616 
L 295.509147 249.160419 
L 296.051138 254.18567 
L 296.593129 250.399005 
L 297.13512 233.181507 
L 297.67711 243.236016 
L 298.219101 240.451738 
L 298.761092 232.906943 
L 299.845074 237.330228 
L 300.387065 237.279901 
L 300.929055 239.59047 
L 301.471046 244.803511 
L 302.013037 236.282692 
L 302.555028 248.40885 
L 303.097019 240.04484 
L 303.63901 249.649338 
L 304.181 244.444907 
L 304.722991 237.873351 
L 305.264982 248.54191 
L 305.806973 246.051172 
L 306.348964 242.563126 
L 306.890955 241.121589 
L 307.432946 249.779125 
L 307.974936 255.672912 
L 308.516927 244.804495 
L 309.058918 243.191186 
L 309.600909 245.472365 
L 310.1429 251.285702 
L 310.684866 243.68213 
L 311.227344 249.915727 
L 311.769823 251.153386 
L 312.312302 253.572527 
L 312.85478 257.154646 
L 313.397259 248.722206 
L 313.939737 253.045524 
L 314.482216 259.240598 
L 315.024694 255.849643 
L 315.567173 257.896733 
L 316.10911 256.109758 
L 316.651588 250.44416 
L 317.194067 295.488 
L 317.736545 263.60654 
L 318.820419 251.812654 
L 319.362355 256.982274 
L 319.904834 257.200158 
L 320.44677 258.851922 
L 320.988707 258.417538 
L 321.530644 257.153675 
L 322.07258 248.49266 
L 322.614517 252.251021 
L 323.156454 244.222247 
L 323.69839 248.101178 
L 324.240327 226.221248 
L 324.782264 237.103337 
L 325.3242 235.784326 
L 325.866137 228.959802 
L 326.408073 237.556023 
L 326.95001 234.233599 
L 327.491947 237.508692 
L 328.033883 236.694671 
L 328.57582 240.538931 
L 329.117757 237.828031 
L 329.659693 231.624632 
L 330.20163 244.222247 
L 330.743567 234.963488 
L 331.285503 230.798899 
L 331.82744 236.829939 
L 332.369377 238.413899 
L 332.911313 233.183498 
L 333.45325 239.005998 
L 333.995186 235.599276 
L 334.537123 236.419064 
L 335.07906 229.969798 
L 336.162933 243.994562 
L 336.70487 236.056315 
L 337.246806 230.613997 
L 337.788743 222.128274 
L 338.33068 224.18195 
L 338.872616 231.671518 
L 339.414553 258.07072 
L 339.95649 253.789019 
L 340.498426 247.831839 
L 341.040363 251.415051 
L 341.582299 255.761285 
L 342.124236 252.207007 
L 342.666173 251.589415 
L 343.208109 248.183081 
L 343.750046 247.696625 
L 344.291983 244.17849 
L 344.833919 237.96596 
L 345.375856 245.695442 
L 345.917793 239.002039 
L 346.459729 239.635629 
L 347.001666 237.328245 
L 347.543603 237.600377 
L 348.085539 233.549348 
L 348.627476 231.396119 
L 349.169412 233.683488 
L 349.711349 234.555045 
L 350.253286 236.101797 
L 350.795222 238.370609 
L 351.337159 226.550883 
L 351.879096 235.921828 
L 352.421032 233.414177 
L 353.504906 241.663522 
L 354.046842 245.472365 
L 355.130716 249.826295 
L 355.672652 247.073317 
L 356.214589 250.35678 
L 357.298462 264.037257 
L 357.840399 256.109758 
L 358.382335 261.753265 
L 358.924272 255.761285 
L 359.466209 259.589485 
L 360.008145 260.932535 
L 360.550082 260.282637 
L 361.092019 258.984101 
L 361.633955 259.285919 
L 362.175892 252.867778 
L 362.717829 254.362939 
L 363.259765 250.092588 
L 363.801702 256.980331 
L 364.343638 255.322179 
L 364.885575 260.974798 
L 365.427512 260.932535 
L 365.969448 266.00631 
L 366.511385 261.580595 
L 367.053322 272.382841 
L 367.595258 263.38959 
L 368.137195 257.725595 
L 368.679132 246.185855 
L 369.763005 232.862163 
L 370.304942 237.554041 
L 370.846878 246.717347 
L 371.388815 238.326324 
L 371.930751 235.826855 
L 373.014625 246.987294 
L 373.556561 246.941822 
L 374.098498 244.845244 
L 375.182371 248.717307 
L 375.724308 251.722589 
L 376.266245 251.413096 
L 376.808181 256.414345 
L 377.892055 253.394972 
L 378.433991 259.850502 
L 378.975928 260.76054 
L 379.518406 257.67819 
L 380.060343 260.888332 
L 380.60228 255.716614 
L 381.144216 256.547184 
L 381.686153 258.417538 
L 382.22809 253.221255 
L 382.770026 257.372453 
L 383.311963 248.274773 
L 383.853899 247.52086 
L 384.395836 242.426466 
L 384.938315 247.29763 
L 385.480251 246.853811 
L 386.02273 246.139327 
L 386.564667 244.444907 
L 387.106603 243.235031 
L 387.64854 248.98812 
L 388.190477 243.954723 
L 388.732413 241.483601 
L 389.27435 238.282036 
L 389.816286 234.235588 
L 390.358223 223.529418 
L 390.90016 219.029947 
L 391.442096 217.808993 
L 391.984033 223.812193 
L 392.52597 213.068634 
L 393.067906 213.208414 
L 393.609843 217.380219 
L 394.15178 214.635496 
L 394.693716 211.206185 
L 395.235653 223.668313 
L 395.77759 228.724063 
L 396.319526 216.387792 
L 396.861463 230.613997 
L 397.403399 234.780122 
L 397.945336 226.965944 
L 398.487273 233.549348 
L 398.487273 233.549348 
" style="fill:none;stroke:#1f77b4;stroke-linecap:square;stroke-width:1.5;"/>
   </g>
   <g id="patch_3">
    <path d="M 57.6 307.584 
L 57.6 41.472 
" style="fill:none;stroke:#000000;stroke-linecap:square;stroke-linejoin:miter;stroke-width:0.8;"/>
   </g>
   <g id="patch_4">
    <path d="M 414.72 307.584 
L 414.72 41.472 
" style="fill:none;stroke:#000000;stroke-linecap:square;stroke-linejoin:miter;stroke-width:0.8;"/>
   </g>
   <g id="patch_5">
    <path d="M 57.6 307.584 
L 414.72 307.584 
" style="fill:none;stroke:#000000;stroke-linecap:square;stroke-linejoin:miter;stroke-width:0.8;"/>
   </g>
   <g id="patch_6">
    <path d="M 57.6 41.472 
L 414.72 41.472 
" style="fill:none;stroke:#000000;stroke-linecap:square;stroke-linejoin:miter;stroke-width:0.8;"/>
   </g>
   <g id="text_17">
    <!-- Resistance with source voltage 1000.0 mV -->
    <defs>
     <path d="M 4.203125 54.6875 
L 13.1875 54.6875 
L 24.421875 12.015625 
L 35.59375 54.6875 
L 46.1875 54.6875 
L 57.421875 12.015625 
L 68.609375 54.6875 
L 77.59375 54.6875 
L 63.28125 0 
L 52.6875 0 
L 40.921875 44.828125 
L 29.109375 0 
L 18.5 0 
z
" id="DejaVuSans-77"/>
     <path d="M 30.609375 48.390625 
Q 23.390625 48.390625 19.1875 42.75 
Q 14.984375 37.109375 14.984375 27.296875 
Q 14.984375 17.484375 19.15625 11.84375 
Q 23.34375 6.203125 30.609375 6.203125 
Q 37.796875 6.203125 41.984375 11.859375 
Q 46.1875 17.53125 46.1875 27.296875 
Q 46.1875 37.015625 41.984375 42.703125 
Q 37.796875 48.390625 30.609375 48.390625 
z
M 30.609375 56 
Q 42.328125 56 49.015625 48.375 
Q 55.71875 40.765625 55.71875 27.296875 
Q 55.71875 13.875 49.015625 6.21875 
Q 42.328125 -1.421875 30.609375 -1.421875 
Q 18.84375 -1.421875 12.171875 6.21875 
Q 5.515625 13.875 5.515625 27.296875 
Q 5.515625 40.765625 12.171875 48.375 
Q 18.84375 56 30.609375 56 
z
" id="DejaVuSans-6f"/>
     <path d="M 8.5 21.578125 
L 8.5 54.6875 
L 17.484375 54.6875 
L 17.484375 21.921875 
Q 17.484375 14.15625 20.5 10.265625 
Q 23.53125 6.390625 29.59375 6.390625 
Q 36.859375 6.390625 41.078125 11.03125 
Q 45.3125 15.671875 45.3125 23.6875 
L 45.3125 54.6875 
L 54.296875 54.6875 
L 54.296875 0 
L 45.3125 0 
L 45.3125 8.40625 
Q 42.046875 3.421875 37.71875 1 
Q 33.40625 -1.421875 27.6875 -1.421875 
Q 18.265625 -1.421875 13.375 4.4375 
Q 8.5 10.296875 8.5 21.578125 
z
M 31.109375 56 
z
" id="DejaVuSans-75"/>
     <path d="M 41.109375 46.296875 
Q 39.59375 47.171875 37.8125 47.578125 
Q 36.03125 48 33.890625 48 
Q 26.265625 48 22.1875 43.046875 
Q 18.109375 38.09375 18.109375 28.8125 
L 18.109375 0 
L 9.078125 0 
L 9.078125 54.6875 
L 18.109375 54.6875 
L 18.109375 46.1875 
Q 20.953125 51.171875 25.484375 53.578125 
Q 30.03125 56 36.53125 56 
Q 37.453125 56 38.578125 55.875 
Q 39.703125 55.765625 41.0625 55.515625 
z
" id="DejaVuSans-72"/>
     <path d="M 2.984375 54.6875 
L 12.5 54.6875 
L 29.59375 8.796875 
L 46.6875 54.6875 
L 56.203125 54.6875 
L 35.6875 0 
L 23.484375 0 
z
" id="DejaVuSans-76"/>
     <path d="M 9.421875 75.984375 
L 18.40625 75.984375 
L 18.40625 0 
L 9.421875 0 
z
" id="DejaVuSans-6c"/>
     <path d="M 45.40625 27.984375 
Q 45.40625 37.75 41.375 43.109375 
Q 37.359375 48.484375 30.078125 48.484375 
Q 22.859375 48.484375 18.828125 43.109375 
Q 14.796875 37.75 14.796875 27.984375 
Q 14.796875 18.265625 18.828125 12.890625 
Q 22.859375 7.515625 30.078125 7.515625 
Q 37.359375 7.515625 41.375 12.890625 
Q 45.40625 18.265625 45.40625 27.984375 
z
M 54.390625 6.78125 
Q 54.390625 -7.171875 48.1875 -13.984375 
Q 42 -20.796875 29.203125 -20.796875 
Q 24.46875 -20.796875 20.265625 -20.09375 
Q 16.0625 -19.390625 12.109375 -17.921875 
L 12.109375 -9.1875 
Q 16.0625 -11.328125 19.921875 -12.34375 
Q 23.78125 -13.375 27.78125 -13.375 
Q 36.625 -13.375 41.015625 -8.765625 
Q 45.40625 -4.15625 45.40625 5.171875 
L 45.40625 9.625 
Q 42.625 4.78125 38.28125 2.390625 
Q 33.9375 0 27.875 0 
Q 17.828125 0 11.671875 7.65625 
Q 5.515625 15.328125 5.515625 27.984375 
Q 5.515625 40.671875 11.671875 48.328125 
Q 17.828125 56 27.875 56 
Q 33.9375 56 38.28125 53.609375 
Q 42.625 51.21875 45.40625 46.390625 
L 45.40625 54.6875 
L 54.390625 54.6875 
z
" id="DejaVuSans-67"/>
     <path d="M 28.609375 0 
L 0.78125 72.90625 
L 11.078125 72.90625 
L 34.1875 11.53125 
L 57.328125 72.90625 
L 67.578125 72.90625 
L 39.796875 0 
z
" id="DejaVuSans-56"/>
    </defs>
    <g transform="translate(107.881875 35.472)scale(0.12 -0.12)">
     <use xlink:href="#DejaVuSans-52"/>
     <use x="69.419922" xlink:href="#DejaVuSans-65"/>
     <use x="130.943359" xlink:href="#DejaVuSans-73"/>
     <use x="183.042969" xlink:href="#DejaVuSans-69"/>
     <use x="210.826172" xlink:href="#DejaVuSans-73"/>
     <use x="262.925781" xlink:href="#DejaVuSans-74"/>
     <use x="302.134766" xlink:href="#DejaVuSans-61"/>
     <use x="363.414062" xlink:href="#DejaVuSans-6e"/>
     <use x="426.792969" xlink:href="#DejaVuSans-63"/>
     <use x="481.773438" xlink:href="#DejaVuSans-65"/>
     <use x="543.296875" xlink:href="#DejaVuSans-20"/>
     <use x="575.083984" xlink:href="#DejaVuSans-77"/>
     <use x="656.871094" xlink:href="#DejaVuSans-69"/>
     <use x="684.654297" xlink:href="#DejaVuSans-74"/>
     <use x="723.863281" xlink:href="#DejaVuSans-68"/>
     <use x="787.242188" xlink:href="#DejaVuSans-20"/>
     <use x="819.029297" xlink:href="#DejaVuSans-73"/>
     <use x="871.128906" xlink:href="#DejaVuSans-6f"/>
     <use x="932.310547" xlink:href="#DejaVuSans-75"/>
     <use x="995.689453" xlink:href="#DejaVuSans-72"/>
     <use x="1036.771484" xlink:href="#DejaVuSans-63"/>
     <use x="1091.751953" xlink:href="#DejaVuSans-65"/>
     <use x="1153.275391" xlink:href="#DejaVuSans-20"/>
     <use x="1185.0625" xlink:href="#DejaVuSans-76"/>
     <use x="1244.242188" xlink:href="#DejaVuSans-6f"/>
     <use x="1305.423828" xlink:href="#DejaVuSans-6c"/>
     <use x="1333.207031" xlink:href="#DejaVuSans-74"/>
     <use x="1372.416016" xlink:href="#DejaVuSans-61"/>
     <use x="1433.695312" xlink:href="#DejaVuSans-67"/>
     <use x="1497.171875" xlink:href="#DejaVuSans-65"/>
     <use x="1558.695312" xlink:href="#DejaVuSans-20"/>
     <use x="1590.482422" xlink:href="#DejaVuSans-31"/>
     <use x="1654.105469" xlink:href="#DejaVuSans-30"/>
     <use x="1717.728516" xlink:href="#DejaVuSans-30"/>
     <use x="1781.351562" xlink:href="#DejaVuSans-30"/>
     <use x="1844.974609" xlink:href="#DejaVuSans-2e"/>
     <use x="1876.761719" xlink:href="#DejaVuSans-30"/>
     <use x="1940.384766" xlink:href="#DejaVuSans-20"/>
     <use x="1972.171875" xlink:href="#DejaVuSans-6d"/>
     <use x="2069.583984" xlink:href="#DejaVuSans-56"/>
    </g>
   </g>
  </g>
 </g>
 <defs>
  <clipPath id="p52361384e4">
   <rect height="266.112" width="357.12" x="57.6" y="41.472"/>
  </clipPath>
 </defs>
</svg>
