<?xml version="1.0" encoding="utf-8" standalone="no"?>
<!DOCTYPE svg PUBLIC "-//W3C//DTD SVG 1.1//EN"
  "http://www.w3.org/Graphics/SVG/1.1/DTD/svg11.dtd">
<!-- Created with matplotlib (http://matplotlib.org/) -->
<svg height="345pt" version="1.1" viewBox="0 0 460 345" width="460pt" xmlns="http://www.w3.org/2000/svg" xmlns:xlink="http://www.w3.org/1999/xlink">
 <defs>
  <style type="text/css">
*{stroke-linecap:butt;stroke-linejoin:round;}
  </style>
 </defs>
 <g id="figure_1">
  <g id="patch_1">
   <path d="M 0 345.6 
L 460.8 345.6 
L 460.8 0 
L 0 0 
z
" style="fill:#ffffff;"/>
  </g>
  <g id="axes_1">
   <g id="patch_2">
    <path d="M 57.6 307.584 
L 414.72 307.584 
L 414.72 41.472 
L 57.6 41.472 
z
" style="fill:#ffffff;"/>
   </g>
   <g id="matplotlib.axis_1">
    <g id="xtick_1">
     <g id="line2d_1">
      <defs>
       <path d="M 0 0 
L 0 3.5 
" id="mc56ede1a22" style="stroke:#000000;stroke-width:0.8;"/>
      </defs>
      <g>
       <use style="stroke:#000000;stroke-width:0.8;" x="73.832547" xlink:href="#mc56ede1a22" y="307.584"/>
      </g>
     </g>
     <g id="text_1">
      <!-- 0 -->
      <defs>
       <path d="M 31.78125 66.40625 
Q 24.171875 66.40625 20.328125 58.90625 
Q 16.5 51.421875 16.5 36.375 
Q 16.5 21.390625 20.328125 13.890625 
Q 24.171875 6.390625 31.78125 6.390625 
Q 39.453125 6.390625 43.28125 13.890625 
Q 47.125 21.390625 47.125 36.375 
Q 47.125 51.421875 43.28125 58.90625 
Q 39.453125 66.40625 31.78125 66.40625 
z
M 31.78125 74.21875 
Q 44.046875 74.21875 50.515625 64.515625 
Q 56.984375 54.828125 56.984375 36.375 
Q 56.984375 17.96875 50.515625 8.265625 
Q 44.046875 -1.421875 31.78125 -1.421875 
Q 19.53125 -1.421875 13.0625 8.265625 
Q 6.59375 17.96875 6.59375 36.375 
Q 6.59375 54.828125 13.0625 64.515625 
Q 19.53125 74.21875 31.78125 74.21875 
z
" id="DejaVuSans-30"/>
      </defs>
      <g transform="translate(70.651297 322.182437)scale(0.1 -0.1)">
       <use xlink:href="#DejaVuSans-30"/>
      </g>
     </g>
    </g>
    <g id="xtick_2">
     <g id="line2d_2">
      <g>
       <use style="stroke:#000000;stroke-width:0.8;" x="118.947994" xlink:href="#mc56ede1a22" y="307.584"/>
      </g>
     </g>
     <g id="text_2">
      <!-- 250 -->
      <defs>
       <path d="M 19.1875 8.296875 
L 53.609375 8.296875 
L 53.609375 0 
L 7.328125 0 
L 7.328125 8.296875 
Q 12.9375 14.109375 22.625 23.890625 
Q 32.328125 33.6875 34.8125 36.53125 
Q 39.546875 41.84375 41.421875 45.53125 
Q 43.3125 49.21875 43.3125 52.78125 
Q 43.3125 58.59375 39.234375 62.25 
Q 35.15625 65.921875 28.609375 65.921875 
Q 23.96875 65.921875 18.8125 64.3125 
Q 13.671875 62.703125 7.8125 59.421875 
L 7.8125 69.390625 
Q 13.765625 71.78125 18.9375 73 
Q 24.125 74.21875 28.421875 74.21875 
Q 39.75 74.21875 46.484375 68.546875 
Q 53.21875 62.890625 53.21875 53.421875 
Q 53.21875 48.921875 51.53125 44.890625 
Q 49.859375 40.875 45.40625 35.40625 
Q 44.1875 33.984375 37.640625 27.21875 
Q 31.109375 20.453125 19.1875 8.296875 
z
" id="DejaVuSans-32"/>
       <path d="M 10.796875 72.90625 
L 49.515625 72.90625 
L 49.515625 64.59375 
L 19.828125 64.59375 
L 19.828125 46.734375 
Q 21.96875 47.46875 24.109375 47.828125 
Q 26.265625 48.1875 28.421875 48.1875 
Q 40.625 48.1875 47.75 41.5 
Q 54.890625 34.8125 54.890625 23.390625 
Q 54.890625 11.625 47.5625 5.09375 
Q 40.234375 -1.421875 26.90625 -1.421875 
Q 22.3125 -1.421875 17.546875 -0.640625 
Q 12.796875 0.140625 7.71875 1.703125 
L 7.71875 11.625 
Q 12.109375 9.234375 16.796875 8.0625 
Q 21.484375 6.890625 26.703125 6.890625 
Q 35.15625 6.890625 40.078125 11.328125 
Q 45.015625 15.765625 45.015625 23.390625 
Q 45.015625 31 40.078125 35.4375 
Q 35.15625 39.890625 26.703125 39.890625 
Q 22.75 39.890625 18.8125 39.015625 
Q 14.890625 38.140625 10.796875 36.28125 
z
" id="DejaVuSans-35"/>
      </defs>
      <g transform="translate(109.404244 322.182437)scale(0.1 -0.1)">
       <use xlink:href="#DejaVuSans-32"/>
       <use x="63.623047" xlink:href="#DejaVuSans-35"/>
       <use x="127.246094" xlink:href="#DejaVuSans-30"/>
      </g>
     </g>
    </g>
    <g id="xtick_3">
     <g id="line2d_3">
      <g>
       <use style="stroke:#000000;stroke-width:0.8;" x="164.063441" xlink:href="#mc56ede1a22" y="307.584"/>
      </g>
     </g>
     <g id="text_3">
      <!-- 500 -->
      <g transform="translate(154.519691 322.182437)scale(0.1 -0.1)">
       <use xlink:href="#DejaVuSans-35"/>
       <use x="63.623047" xlink:href="#DejaVuSans-30"/>
       <use x="127.246094" xlink:href="#DejaVuSans-30"/>
      </g>
     </g>
    </g>
    <g id="xtick_4">
     <g id="line2d_4">
      <g>
       <use style="stroke:#000000;stroke-width:0.8;" x="209.178887" xlink:href="#mc56ede1a22" y="307.584"/>
      </g>
     </g>
     <g id="text_4">
      <!-- 750 -->
      <defs>
       <path d="M 8.203125 72.90625 
L 55.078125 72.90625 
L 55.078125 68.703125 
L 28.609375 0 
L 18.3125 0 
L 43.21875 64.59375 
L 8.203125 64.59375 
z
" id="DejaVuSans-37"/>
      </defs>
      <g transform="translate(199.635137 322.182437)scale(0.1 -0.1)">
       <use xlink:href="#DejaVuSans-37"/>
       <use x="63.623047" xlink:href="#DejaVuSans-35"/>
       <use x="127.246094" xlink:href="#DejaVuSans-30"/>
      </g>
     </g>
    </g>
    <g id="xtick_5">
     <g id="line2d_5">
      <g>
       <use style="stroke:#000000;stroke-width:0.8;" x="254.294334" xlink:href="#mc56ede1a22" y="307.584"/>
      </g>
     </g>
     <g id="text_5">
      <!-- 1000 -->
      <defs>
       <path d="M 12.40625 8.296875 
L 28.515625 8.296875 
L 28.515625 63.921875 
L 10.984375 60.40625 
L 10.984375 69.390625 
L 28.421875 72.90625 
L 38.28125 72.90625 
L 38.28125 8.296875 
L 54.390625 8.296875 
L 54.390625 0 
L 12.40625 0 
z
" id="DejaVuSans-31"/>
      </defs>
      <g transform="translate(241.569334 322.182437)scale(0.1 -0.1)">
       <use xlink:href="#DejaVuSans-31"/>
       <use x="63.623047" xlink:href="#DejaVuSans-30"/>
       <use x="127.246094" xlink:href="#DejaVuSans-30"/>
       <use x="190.869141" xlink:href="#DejaVuSans-30"/>
      </g>
     </g>
    </g>
    <g id="xtick_6">
     <g id="line2d_6">
      <g>
       <use style="stroke:#000000;stroke-width:0.8;" x="299.409781" xlink:href="#mc56ede1a22" y="307.584"/>
      </g>
     </g>
     <g id="text_6">
      <!-- 1250 -->
      <g transform="translate(286.684781 322.182437)scale(0.1 -0.1)">
       <use xlink:href="#DejaVuSans-31"/>
       <use x="63.623047" xlink:href="#DejaVuSans-32"/>
       <use x="127.246094" xlink:href="#DejaVuSans-35"/>
       <use x="190.869141" xlink:href="#DejaVuSans-30"/>
      </g>
     </g>
    </g>
    <g id="xtick_7">
     <g id="line2d_7">
      <g>
       <use style="stroke:#000000;stroke-width:0.8;" x="344.525228" xlink:href="#mc56ede1a22" y="307.584"/>
      </g>
     </g>
     <g id="text_7">
      <!-- 1500 -->
      <g transform="translate(331.800228 322.182437)scale(0.1 -0.1)">
       <use xlink:href="#DejaVuSans-31"/>
       <use x="63.623047" xlink:href="#DejaVuSans-35"/>
       <use x="127.246094" xlink:href="#DejaVuSans-30"/>
       <use x="190.869141" xlink:href="#DejaVuSans-30"/>
      </g>
     </g>
    </g>
    <g id="xtick_8">
     <g id="line2d_8">
      <g>
       <use style="stroke:#000000;stroke-width:0.8;" x="389.640675" xlink:href="#mc56ede1a22" y="307.584"/>
      </g>
     </g>
     <g id="text_8">
      <!-- 1750 -->
      <g transform="translate(376.915675 322.182437)scale(0.1 -0.1)">
       <use xlink:href="#DejaVuSans-31"/>
       <use x="63.623047" xlink:href="#DejaVuSans-37"/>
       <use x="127.246094" xlink:href="#DejaVuSans-35"/>
       <use x="190.869141" xlink:href="#DejaVuSans-30"/>
      </g>
     </g>
    </g>
    <g id="text_9">
     <!-- t(s) -->
     <defs>
      <path d="M 18.3125 70.21875 
L 18.3125 54.6875 
L 36.8125 54.6875 
L 36.8125 47.703125 
L 18.3125 47.703125 
L 18.3125 18.015625 
Q 18.3125 11.328125 20.140625 9.421875 
Q 21.96875 7.515625 27.59375 7.515625 
L 36.8125 7.515625 
L 36.8125 0 
L 27.59375 0 
Q 17.1875 0 13.234375 3.875 
Q 9.28125 7.765625 9.28125 18.015625 
L 9.28125 47.703125 
L 2.6875 47.703125 
L 2.6875 54.6875 
L 9.28125 54.6875 
L 9.28125 70.21875 
z
" id="DejaVuSans-74"/>
      <path d="M 31 75.875 
Q 24.46875 64.65625 21.28125 53.65625 
Q 18.109375 42.671875 18.109375 31.390625 
Q 18.109375 20.125 21.3125 9.0625 
Q 24.515625 -2 31 -13.1875 
L 23.1875 -13.1875 
Q 15.875 -1.703125 12.234375 9.375 
Q 8.59375 20.453125 8.59375 31.390625 
Q 8.59375 42.28125 12.203125 53.3125 
Q 15.828125 64.359375 23.1875 75.875 
z
" id="DejaVuSans-28"/>
      <path d="M 44.28125 53.078125 
L 44.28125 44.578125 
Q 40.484375 46.53125 36.375 47.5 
Q 32.28125 48.484375 27.875 48.484375 
Q 21.1875 48.484375 17.84375 46.4375 
Q 14.5 44.390625 14.5 40.28125 
Q 14.5 37.15625 16.890625 35.375 
Q 19.28125 33.59375 26.515625 31.984375 
L 29.59375 31.296875 
Q 39.15625 29.25 43.1875 25.515625 
Q 47.21875 21.78125 47.21875 15.09375 
Q 47.21875 7.46875 41.1875 3.015625 
Q 35.15625 -1.421875 24.609375 -1.421875 
Q 20.21875 -1.421875 15.453125 -0.5625 
Q 10.6875 0.296875 5.421875 2 
L 5.421875 11.28125 
Q 10.40625 8.6875 15.234375 7.390625 
Q 20.0625 6.109375 24.8125 6.109375 
Q 31.15625 6.109375 34.5625 8.28125 
Q 37.984375 10.453125 37.984375 14.40625 
Q 37.984375 18.0625 35.515625 20.015625 
Q 33.0625 21.96875 24.703125 23.78125 
L 21.578125 24.515625 
Q 13.234375 26.265625 9.515625 29.90625 
Q 5.8125 33.546875 5.8125 39.890625 
Q 5.8125 47.609375 11.28125 51.796875 
Q 16.75 56 26.8125 56 
Q 31.78125 56 36.171875 55.265625 
Q 40.578125 54.546875 44.28125 53.078125 
z
" id="DejaVuSans-73"/>
      <path d="M 8.015625 75.875 
L 15.828125 75.875 
Q 23.140625 64.359375 26.78125 53.3125 
Q 30.421875 42.28125 30.421875 31.390625 
Q 30.421875 20.453125 26.78125 9.375 
Q 23.140625 -1.703125 15.828125 -13.1875 
L 8.015625 -13.1875 
Q 14.5 -2 17.703125 9.0625 
Q 20.90625 20.125 20.90625 31.390625 
Q 20.90625 42.671875 17.703125 53.65625 
Q 14.5 64.65625 8.015625 75.875 
z
" id="DejaVuSans-29"/>
     </defs>
     <g transform="translate(227.693594 335.860562)scale(0.1 -0.1)">
      <use xlink:href="#DejaVuSans-74"/>
      <use x="39.208984" xlink:href="#DejaVuSans-28"/>
      <use x="78.222656" xlink:href="#DejaVuSans-73"/>
      <use x="130.322266" xlink:href="#DejaVuSans-29"/>
     </g>
    </g>
   </g>
   <g id="matplotlib.axis_2">
    <g id="ytick_1">
     <g id="line2d_9">
      <defs>
       <path d="M 0 0 
L -3.5 0 
" id="m4aa516508b" style="stroke:#000000;stroke-width:0.8;"/>
      </defs>
      <g>
       <use style="stroke:#000000;stroke-width:0.8;" x="57.6" xlink:href="#m4aa516508b" y="288.14318"/>
      </g>
     </g>
     <g id="text_10">
      <!-- 24.8 -->
      <defs>
       <path d="M 37.796875 64.3125 
L 12.890625 25.390625 
L 37.796875 25.390625 
z
M 35.203125 72.90625 
L 47.609375 72.90625 
L 47.609375 25.390625 
L 58.015625 25.390625 
L 58.015625 17.1875 
L 47.609375 17.1875 
L 47.609375 0 
L 37.796875 0 
L 37.796875 17.1875 
L 4.890625 17.1875 
L 4.890625 26.703125 
z
" id="DejaVuSans-34"/>
       <path d="M 10.6875 12.40625 
L 21 12.40625 
L 21 0 
L 10.6875 0 
z
" id="DejaVuSans-2e"/>
       <path d="M 31.78125 34.625 
Q 24.75 34.625 20.71875 30.859375 
Q 16.703125 27.09375 16.703125 20.515625 
Q 16.703125 13.921875 20.71875 10.15625 
Q 24.75 6.390625 31.78125 6.390625 
Q 38.8125 6.390625 42.859375 10.171875 
Q 46.921875 13.96875 46.921875 20.515625 
Q 46.921875 27.09375 42.890625 30.859375 
Q 38.875 34.625 31.78125 34.625 
z
M 21.921875 38.8125 
Q 15.578125 40.375 12.03125 44.71875 
Q 8.5 49.078125 8.5 55.328125 
Q 8.5 64.0625 14.71875 69.140625 
Q 20.953125 74.21875 31.78125 74.21875 
Q 42.671875 74.21875 48.875 69.140625 
Q 55.078125 64.0625 55.078125 55.328125 
Q 55.078125 49.078125 51.53125 44.71875 
Q 48 40.375 41.703125 38.8125 
Q 48.828125 37.15625 52.796875 32.3125 
Q 56.78125 27.484375 56.78125 20.515625 
Q 56.78125 9.90625 50.3125 4.234375 
Q 43.84375 -1.421875 31.78125 -1.421875 
Q 19.734375 -1.421875 13.25 4.234375 
Q 6.78125 9.90625 6.78125 20.515625 
Q 6.78125 27.484375 10.78125 32.3125 
Q 14.796875 37.15625 21.921875 38.8125 
z
M 18.3125 54.390625 
Q 18.3125 48.734375 21.84375 45.5625 
Q 25.390625 42.390625 31.78125 42.390625 
Q 38.140625 42.390625 41.71875 45.5625 
Q 45.3125 48.734375 45.3125 54.390625 
Q 45.3125 60.0625 41.71875 63.234375 
Q 38.140625 66.40625 31.78125 66.40625 
Q 25.390625 66.40625 21.84375 63.234375 
Q 18.3125 60.0625 18.3125 54.390625 
z
" id="DejaVuSans-38"/>
      </defs>
      <g transform="translate(28.334375 291.942399)scale(0.1 -0.1)">
       <use xlink:href="#DejaVuSans-32"/>
       <use x="63.623047" xlink:href="#DejaVuSans-34"/>
       <use x="127.246094" xlink:href="#DejaVuSans-2e"/>
       <use x="159.033203" xlink:href="#DejaVuSans-38"/>
      </g>
     </g>
    </g>
    <g id="ytick_2">
     <g id="line2d_10">
      <g>
       <use style="stroke:#000000;stroke-width:0.8;" x="57.6" xlink:href="#m4aa516508b" y="242.238057"/>
      </g>
     </g>
     <g id="text_11">
      <!-- 24.9 -->
      <defs>
       <path d="M 10.984375 1.515625 
L 10.984375 10.5 
Q 14.703125 8.734375 18.5 7.8125 
Q 22.3125 6.890625 25.984375 6.890625 
Q 35.75 6.890625 40.890625 13.453125 
Q 46.046875 20.015625 46.78125 33.40625 
Q 43.953125 29.203125 39.59375 26.953125 
Q 35.25 24.703125 29.984375 24.703125 
Q 19.046875 24.703125 12.671875 31.3125 
Q 6.296875 37.9375 6.296875 49.421875 
Q 6.296875 60.640625 12.9375 67.421875 
Q 19.578125 74.21875 30.609375 74.21875 
Q 43.265625 74.21875 49.921875 64.515625 
Q 56.59375 54.828125 56.59375 36.375 
Q 56.59375 19.140625 48.40625 8.859375 
Q 40.234375 -1.421875 26.421875 -1.421875 
Q 22.703125 -1.421875 18.890625 -0.6875 
Q 15.09375 0.046875 10.984375 1.515625 
z
M 30.609375 32.421875 
Q 37.25 32.421875 41.125 36.953125 
Q 45.015625 41.5 45.015625 49.421875 
Q 45.015625 57.28125 41.125 61.84375 
Q 37.25 66.40625 30.609375 66.40625 
Q 23.96875 66.40625 20.09375 61.84375 
Q 16.21875 57.28125 16.21875 49.421875 
Q 16.21875 41.5 20.09375 36.953125 
Q 23.96875 32.421875 30.609375 32.421875 
z
" id="DejaVuSans-39"/>
      </defs>
      <g transform="translate(28.334375 246.037276)scale(0.1 -0.1)">
       <use xlink:href="#DejaVuSans-32"/>
       <use x="63.623047" xlink:href="#DejaVuSans-34"/>
       <use x="127.246094" xlink:href="#DejaVuSans-2e"/>
       <use x="159.033203" xlink:href="#DejaVuSans-39"/>
      </g>
     </g>
    </g>
    <g id="ytick_3">
     <g id="line2d_11">
      <g>
       <use style="stroke:#000000;stroke-width:0.8;" x="57.6" xlink:href="#m4aa516508b" y="196.332934"/>
      </g>
     </g>
     <g id="text_12">
      <!-- 25.0 -->
      <g transform="translate(28.334375 200.132152)scale(0.1 -0.1)">
       <use xlink:href="#DejaVuSans-32"/>
       <use x="63.623047" xlink:href="#DejaVuSans-35"/>
       <use x="127.246094" xlink:href="#DejaVuSans-2e"/>
       <use x="159.033203" xlink:href="#DejaVuSans-30"/>
      </g>
     </g>
    </g>
    <g id="ytick_4">
     <g id="line2d_12">
      <g>
       <use style="stroke:#000000;stroke-width:0.8;" x="57.6" xlink:href="#m4aa516508b" y="150.42781"/>
      </g>
     </g>
     <g id="text_13">
      <!-- 25.1 -->
      <g transform="translate(28.334375 154.227029)scale(0.1 -0.1)">
       <use xlink:href="#DejaVuSans-32"/>
       <use x="63.623047" xlink:href="#DejaVuSans-35"/>
       <use x="127.246094" xlink:href="#DejaVuSans-2e"/>
       <use x="159.033203" xlink:href="#DejaVuSans-31"/>
      </g>
     </g>
    </g>
    <g id="ytick_5">
     <g id="line2d_13">
      <g>
       <use style="stroke:#000000;stroke-width:0.8;" x="57.6" xlink:href="#m4aa516508b" y="104.522687"/>
      </g>
     </g>
     <g id="text_14">
      <!-- 25.2 -->
      <g transform="translate(28.334375 108.321906)scale(0.1 -0.1)">
       <use xlink:href="#DejaVuSans-32"/>
       <use x="63.623047" xlink:href="#DejaVuSans-35"/>
       <use x="127.246094" xlink:href="#DejaVuSans-2e"/>
       <use x="159.033203" xlink:href="#DejaVuSans-32"/>
      </g>
     </g>
    </g>
    <g id="ytick_6">
     <g id="line2d_14">
      <g>
       <use style="stroke:#000000;stroke-width:0.8;" x="57.6" xlink:href="#m4aa516508b" y="58.617564"/>
      </g>
     </g>
     <g id="text_15">
      <!-- 25.3 -->
      <defs>
       <path d="M 40.578125 39.3125 
Q 47.65625 37.796875 51.625 33 
Q 55.609375 28.21875 55.609375 21.1875 
Q 55.609375 10.40625 48.1875 4.484375 
Q 40.765625 -1.421875 27.09375 -1.421875 
Q 22.515625 -1.421875 17.65625 -0.515625 
Q 12.796875 0.390625 7.625 2.203125 
L 7.625 11.71875 
Q 11.71875 9.328125 16.59375 8.109375 
Q 21.484375 6.890625 26.8125 6.890625 
Q 36.078125 6.890625 40.9375 10.546875 
Q 45.796875 14.203125 45.796875 21.1875 
Q 45.796875 27.640625 41.28125 31.265625 
Q 36.765625 34.90625 28.71875 34.90625 
L 20.21875 34.90625 
L 20.21875 43.015625 
L 29.109375 43.015625 
Q 36.375 43.015625 40.234375 45.921875 
Q 44.09375 48.828125 44.09375 54.296875 
Q 44.09375 59.90625 40.109375 62.90625 
Q 36.140625 65.921875 28.71875 65.921875 
Q 24.65625 65.921875 20.015625 65.03125 
Q 15.375 64.15625 9.8125 62.3125 
L 9.8125 71.09375 
Q 15.4375 72.65625 20.34375 73.4375 
Q 25.25 74.21875 29.59375 74.21875 
Q 40.828125 74.21875 47.359375 69.109375 
Q 53.90625 64.015625 53.90625 55.328125 
Q 53.90625 49.265625 50.4375 45.09375 
Q 46.96875 40.921875 40.578125 39.3125 
z
" id="DejaVuSans-33"/>
      </defs>
      <g transform="translate(28.334375 62.416782)scale(0.1 -0.1)">
       <use xlink:href="#DejaVuSans-32"/>
       <use x="63.623047" xlink:href="#DejaVuSans-35"/>
       <use x="127.246094" xlink:href="#DejaVuSans-2e"/>
       <use x="159.033203" xlink:href="#DejaVuSans-33"/>
      </g>
     </g>
    </g>
    <g id="text_16">
     <!-- Temperature (*C) -->
     <defs>
      <path d="M -0.296875 72.90625 
L 61.375 72.90625 
L 61.375 64.59375 
L 35.5 64.59375 
L 35.5 0 
L 25.59375 0 
L 25.59375 64.59375 
L -0.296875 64.59375 
z
" id="DejaVuSans-54"/>
      <path d="M 56.203125 29.59375 
L 56.203125 25.203125 
L 14.890625 25.203125 
Q 15.484375 15.921875 20.484375 11.0625 
Q 25.484375 6.203125 34.421875 6.203125 
Q 39.59375 6.203125 44.453125 7.46875 
Q 49.3125 8.734375 54.109375 11.28125 
L 54.109375 2.78125 
Q 49.265625 0.734375 44.1875 -0.34375 
Q 39.109375 -1.421875 33.890625 -1.421875 
Q 20.796875 -1.421875 13.15625 6.1875 
Q 5.515625 13.8125 5.515625 26.8125 
Q 5.515625 40.234375 12.765625 48.109375 
Q 20.015625 56 32.328125 56 
Q 43.359375 56 49.78125 48.890625 
Q 56.203125 41.796875 56.203125 29.59375 
z
M 47.21875 32.234375 
Q 47.125 39.59375 43.09375 43.984375 
Q 39.0625 48.390625 32.421875 48.390625 
Q 24.90625 48.390625 20.390625 44.140625 
Q 15.875 39.890625 15.1875 32.171875 
z
" id="DejaVuSans-65"/>
      <path d="M 52 44.1875 
Q 55.375 50.25 60.0625 53.125 
Q 64.75 56 71.09375 56 
Q 79.640625 56 84.28125 50.015625 
Q 88.921875 44.046875 88.921875 33.015625 
L 88.921875 0 
L 79.890625 0 
L 79.890625 32.71875 
Q 79.890625 40.578125 77.09375 44.375 
Q 74.3125 48.1875 68.609375 48.1875 
Q 61.625 48.1875 57.5625 43.546875 
Q 53.515625 38.921875 53.515625 30.90625 
L 53.515625 0 
L 44.484375 0 
L 44.484375 32.71875 
Q 44.484375 40.625 41.703125 44.40625 
Q 38.921875 48.1875 33.109375 48.1875 
Q 26.21875 48.1875 22.15625 43.53125 
Q 18.109375 38.875 18.109375 30.90625 
L 18.109375 0 
L 9.078125 0 
L 9.078125 54.6875 
L 18.109375 54.6875 
L 18.109375 46.1875 
Q 21.1875 51.21875 25.484375 53.609375 
Q 29.78125 56 35.6875 56 
Q 41.65625 56 45.828125 52.96875 
Q 50 49.953125 52 44.1875 
z
" id="DejaVuSans-6d"/>
      <path d="M 18.109375 8.203125 
L 18.109375 -20.796875 
L 9.078125 -20.796875 
L 9.078125 54.6875 
L 18.109375 54.6875 
L 18.109375 46.390625 
Q 20.953125 51.265625 25.265625 53.625 
Q 29.59375 56 35.59375 56 
Q 45.5625 56 51.78125 48.09375 
Q 58.015625 40.1875 58.015625 27.296875 
Q 58.015625 14.40625 51.78125 6.484375 
Q 45.5625 -1.421875 35.59375 -1.421875 
Q 29.59375 -1.421875 25.265625 0.953125 
Q 20.953125 3.328125 18.109375 8.203125 
z
M 48.6875 27.296875 
Q 48.6875 37.203125 44.609375 42.84375 
Q 40.53125 48.484375 33.40625 48.484375 
Q 26.265625 48.484375 22.1875 42.84375 
Q 18.109375 37.203125 18.109375 27.296875 
Q 18.109375 17.390625 22.1875 11.75 
Q 26.265625 6.109375 33.40625 6.109375 
Q 40.53125 6.109375 44.609375 11.75 
Q 48.6875 17.390625 48.6875 27.296875 
z
" id="DejaVuSans-70"/>
      <path d="M 41.109375 46.296875 
Q 39.59375 47.171875 37.8125 47.578125 
Q 36.03125 48 33.890625 48 
Q 26.265625 48 22.1875 43.046875 
Q 18.109375 38.09375 18.109375 28.8125 
L 18.109375 0 
L 9.078125 0 
L 9.078125 54.6875 
L 18.109375 54.6875 
L 18.109375 46.1875 
Q 20.953125 51.171875 25.484375 53.578125 
Q 30.03125 56 36.53125 56 
Q 37.453125 56 38.578125 55.875 
Q 39.703125 55.765625 41.0625 55.515625 
z
" id="DejaVuSans-72"/>
      <path d="M 34.28125 27.484375 
Q 23.390625 27.484375 19.1875 25 
Q 14.984375 22.515625 14.984375 16.5 
Q 14.984375 11.71875 18.140625 8.90625 
Q 21.296875 6.109375 26.703125 6.109375 
Q 34.1875 6.109375 38.703125 11.40625 
Q 43.21875 16.703125 43.21875 25.484375 
L 43.21875 27.484375 
z
M 52.203125 31.203125 
L 52.203125 0 
L 43.21875 0 
L 43.21875 8.296875 
Q 40.140625 3.328125 35.546875 0.953125 
Q 30.953125 -1.421875 24.3125 -1.421875 
Q 15.921875 -1.421875 10.953125 3.296875 
Q 6 8.015625 6 15.921875 
Q 6 25.140625 12.171875 29.828125 
Q 18.359375 34.515625 30.609375 34.515625 
L 43.21875 34.515625 
L 43.21875 35.40625 
Q 43.21875 41.609375 39.140625 45 
Q 35.0625 48.390625 27.6875 48.390625 
Q 23 48.390625 18.546875 47.265625 
Q 14.109375 46.140625 10.015625 43.890625 
L 10.015625 52.203125 
Q 14.9375 54.109375 19.578125 55.046875 
Q 24.21875 56 28.609375 56 
Q 40.484375 56 46.34375 49.84375 
Q 52.203125 43.703125 52.203125 31.203125 
z
" id="DejaVuSans-61"/>
      <path d="M 8.5 21.578125 
L 8.5 54.6875 
L 17.484375 54.6875 
L 17.484375 21.921875 
Q 17.484375 14.15625 20.5 10.265625 
Q 23.53125 6.390625 29.59375 6.390625 
Q 36.859375 6.390625 41.078125 11.03125 
Q 45.3125 15.671875 45.3125 23.6875 
L 45.3125 54.6875 
L 54.296875 54.6875 
L 54.296875 0 
L 45.3125 0 
L 45.3125 8.40625 
Q 42.046875 3.421875 37.71875 1 
Q 33.40625 -1.421875 27.6875 -1.421875 
Q 18.265625 -1.421875 13.375 4.4375 
Q 8.5 10.296875 8.5 21.578125 
z
M 31.109375 56 
z
" id="DejaVuSans-75"/>
      <path id="DejaVuSans-20"/>
      <path d="M 47.015625 60.890625 
L 29.5 51.421875 
L 47.015625 41.890625 
L 44.1875 37.109375 
L 27.78125 47.015625 
L 27.78125 28.609375 
L 22.21875 28.609375 
L 22.21875 47.015625 
L 5.8125 37.109375 
L 2.984375 41.890625 
L 20.515625 51.421875 
L 2.984375 60.890625 
L 5.8125 65.71875 
L 22.21875 55.8125 
L 22.21875 74.21875 
L 27.78125 74.21875 
L 27.78125 55.8125 
L 44.1875 65.71875 
z
" id="DejaVuSans-2a"/>
      <path d="M 64.40625 67.28125 
L 64.40625 56.890625 
Q 59.421875 61.53125 53.78125 63.8125 
Q 48.140625 66.109375 41.796875 66.109375 
Q 29.296875 66.109375 22.65625 58.46875 
Q 16.015625 50.828125 16.015625 36.375 
Q 16.015625 21.96875 22.65625 14.328125 
Q 29.296875 6.6875 41.796875 6.6875 
Q 48.140625 6.6875 53.78125 8.984375 
Q 59.421875 11.28125 64.40625 15.921875 
L 64.40625 5.609375 
Q 59.234375 2.09375 53.4375 0.328125 
Q 47.65625 -1.421875 41.21875 -1.421875 
Q 24.65625 -1.421875 15.125 8.703125 
Q 5.609375 18.84375 5.609375 36.375 
Q 5.609375 53.953125 15.125 64.078125 
Q 24.65625 74.21875 41.21875 74.21875 
Q 47.75 74.21875 53.53125 72.484375 
Q 59.328125 70.75 64.40625 67.28125 
z
" id="DejaVuSans-43"/>
     </defs>
     <g transform="translate(22.254687 218.627219)rotate(-90)scale(0.1 -0.1)">
      <use xlink:href="#DejaVuSans-54"/>
      <use x="60.818359" xlink:href="#DejaVuSans-65"/>
      <use x="122.341797" xlink:href="#DejaVuSans-6d"/>
      <use x="219.753906" xlink:href="#DejaVuSans-70"/>
      <use x="283.230469" xlink:href="#DejaVuSans-65"/>
      <use x="344.753906" xlink:href="#DejaVuSans-72"/>
      <use x="385.867188" xlink:href="#DejaVuSans-61"/>
      <use x="447.146484" xlink:href="#DejaVuSans-74"/>
      <use x="486.355469" xlink:href="#DejaVuSans-75"/>
      <use x="549.734375" xlink:href="#DejaVuSans-72"/>
      <use x="590.816406" xlink:href="#DejaVuSans-65"/>
      <use x="652.339844" xlink:href="#DejaVuSans-20"/>
      <use x="684.126953" xlink:href="#DejaVuSans-28"/>
      <use x="723.140625" xlink:href="#DejaVuSans-2a"/>
      <use x="773.140625" xlink:href="#DejaVuSans-43"/>
      <use x="842.964844" xlink:href="#DejaVuSans-29"/>
     </g>
    </g>
   </g>
   <g id="line2d_15">
    <path clip-path="url(#pab284bec26)" d="M 73.832727 196.332934 
L 398.487273 196.332934 
L 398.487273 196.332934 
" style="fill:none;stroke:#1f77b4;stroke-linecap:square;stroke-width:1.5;"/>
   </g>
   <g id="line2d_16">
    <path clip-path="url(#pab284bec26)" d="M 73.832727 194.496729 
L 74.013189 193.578626 
L 74.193651 194.95578 
L 74.374113 194.95578 
L 74.554574 194.037677 
L 74.735036 194.95578 
L 74.915678 194.496729 
L 75.09614 194.95578 
L 75.276602 193.578626 
L 75.457064 194.95578 
L 75.637526 194.95578 
L 75.817987 194.496729 
L 75.998449 194.496729 
L 76.178911 193.578626 
L 76.539835 194.496729 
L 76.720296 194.037677 
L 77.08122 195.414831 
L 77.261682 193.578626 
L 77.442143 194.037677 
L 77.622605 194.037677 
L 77.983529 194.95578 
L 78.344452 194.037677 
L 78.524914 194.95578 
L 78.705376 194.95578 
L 79.0663 193.119575 
L 79.427223 194.496729 
L 79.607685 194.037677 
L 79.788147 194.95578 
L 79.968608 194.037677 
L 80.14907 194.95578 
L 80.509994 193.578626 
L 80.870917 194.496729 
L 81.051379 194.037677 
L 81.231841 194.95578 
L 81.412303 193.578626 
L 81.592765 194.037677 
L 81.773226 193.578626 
L 81.953688 194.496729 
L 82.13415 193.578626 
L 82.314612 194.496729 
L 82.495074 194.496729 
L 82.675535 194.037677 
L 83.036459 194.95578 
L 83.216921 194.496729 
L 83.397382 193.119575 
L 83.758306 194.037677 
L 83.938768 193.119575 
L 84.299691 194.95578 
L 84.480153 194.037677 
L 84.841077 194.037677 
L 85.021539 194.95578 
L 85.202 194.037677 
L 85.382462 194.037677 
L 85.743386 194.95578 
L 85.923847 194.496729 
L 86.104309 194.95578 
L 86.284771 194.037677 
L 86.465233 194.037677 
L 86.645695 194.496729 
L 87.006618 193.578626 
L 87.18708 194.496729 
L 87.367542 194.496729 
L 87.548004 193.578626 
L 87.728465 194.037677 
L 88.269851 194.037677 
L 88.450313 194.95578 
L 88.630774 194.037677 
L 88.811236 194.95578 
L 88.991698 194.037677 
L 89.17234 194.496729 
L 89.352802 194.037677 
L 89.533264 194.037677 
L 89.713725 193.119575 
L 89.894187 193.578626 
L 90.074649 193.578626 
L 90.255111 194.037677 
L 90.435573 194.037677 
L 90.616034 194.95578 
L 90.796496 194.95578 
L 90.976958 194.037677 
L 91.337882 194.95578 
L 91.518343 194.037677 
L 91.879267 194.95578 
L 92.059729 194.037677 
L 92.24019 194.037677 
L 92.420652 193.119575 
L 92.601114 194.037677 
L 92.781576 194.037677 
L 93.142499 194.95578 
L 93.322961 193.578626 
L 93.503423 194.496729 
L 93.683885 194.496729 
L 93.864347 194.95578 
L 94.044808 194.496729 
L 94.766656 194.496729 
L 94.947117 193.578626 
L 95.127579 194.037677 
L 95.308041 193.578626 
L 95.488503 194.95578 
L 95.668964 193.578626 
L 95.849426 194.496729 
L 96.029888 194.037677 
L 96.390812 194.037677 
L 96.571273 194.95578 
L 96.751735 194.496729 
L 96.932197 194.496729 
L 97.112659 194.037677 
L 97.293121 194.496729 
L 97.473582 194.496729 
L 97.654044 193.578626 
L 97.834506 194.037677 
L 98.014968 193.578626 
L 98.195429 194.037677 
L 98.556353 194.037677 
L 98.736815 194.496729 
L 98.917277 193.578626 
L 99.2782 194.95578 
L 99.458662 193.578626 
L 99.639124 194.037677 
L 99.819586 194.037677 
L 100.180509 194.95578 
L 100.360971 194.95578 
L 100.541433 194.037677 
L 100.721895 194.037677 
L 100.902356 194.496729 
L 101.082818 194.496729 
L 101.26328 195.414831 
L 101.443742 194.95578 
L 101.624203 194.95578 
L 101.804665 194.037677 
L 101.985127 194.037677 
L 102.165589 194.496729 
L 102.706974 193.119575 
L 102.887436 194.95578 
L 103.067898 194.037677 
L 103.24836 194.037677 
L 103.428821 194.95578 
L 103.789745 193.578626 
L 103.970207 193.578626 
L 104.150668 194.037677 
L 104.33113 194.037677 
L 104.692054 194.95578 
L 104.872516 193.578626 
L 105.052977 194.95578 
L 105.233439 194.037677 
L 105.594363 194.037677 
L 105.955286 194.95578 
L 106.135748 194.496729 
L 106.31621 194.95578 
L 106.677134 194.037677 
L 106.857595 194.95578 
L 107.038057 194.037677 
L 107.218519 194.037677 
L 107.398981 193.578626 
L 107.579442 194.95578 
L 107.759904 194.95578 
L 108.120828 194.037677 
L 108.30129 194.95578 
L 108.481751 194.496729 
L 108.662213 194.95578 
L 109.023137 194.037677 
L 109.203599 194.037677 
L 109.564522 194.95578 
L 109.744984 193.119575 
L 109.925446 194.037677 
L 110.466831 194.037677 
L 110.647293 194.496729 
L 110.827755 192.660524 
L 111.188678 194.95578 
L 111.549602 194.037677 
L 111.730064 194.95578 
L 112.090987 193.578626 
L 112.271449 194.95578 
L 112.451911 194.037677 
L 112.812834 194.037677 
L 112.993296 194.496729 
L 113.173758 194.037677 
L 113.534681 194.037677 
L 113.715143 194.95578 
L 113.895605 194.95578 
L 114.076067 194.496729 
L 114.256529 194.95578 
L 114.617452 194.037677 
L 114.797914 194.95578 
L 115.158838 193.119575 
L 115.519761 194.496729 
L 115.700223 194.037677 
L 115.880685 194.95578 
L 116.061146 194.037677 
L 116.782994 194.037677 
L 116.963455 194.95578 
L 117.143917 194.037677 
L 117.324379 194.95578 
L 117.504841 194.496729 
L 117.685303 194.496729 
L 117.865764 194.037677 
L 118.046226 193.119575 
L 118.226688 194.496729 
L 118.40715 194.037677 
L 118.587611 194.95578 
L 118.948535 194.95578 
L 119.309459 193.578626 
L 119.48992 194.037677 
L 119.670382 194.037677 
L 119.850844 194.95578 
L 120.031306 193.119575 
L 120.211768 193.119575 
L 120.392229 194.496729 
L 120.572691 193.578626 
L 120.753153 194.496729 
L 120.933615 193.578626 
L 121.114077 194.037677 
L 121.475 194.037677 
L 121.655462 194.496729 
L 121.835924 194.496729 
L 122.016385 193.119575 
L 122.377309 194.496729 
L 122.557771 193.578626 
L 122.738233 194.037677 
L 122.918694 193.578626 
L 123.099156 194.496729 
L 123.279618 194.496729 
L 123.640542 193.578626 
L 124.001465 194.95578 
L 124.181927 193.578626 
L 124.362389 194.95578 
L 124.54285 194.95578 
L 124.723312 194.037677 
L 124.903774 194.496729 
L 125.084236 193.119575 
L 125.264698 193.578626 
L 125.445159 194.496729 
L 125.806083 193.578626 
L 125.986545 194.037677 
L 126.347468 194.037677 
L 126.52793 194.95578 
L 126.708392 194.95578 
L 126.888854 228.46652 
L 127.069315 295.488 
L 127.249777 295.488 
L 127.971624 197.251036 
L 128.332548 181.643294 
L 128.693472 175.675628 
L 128.873933 175.216577 
L 129.234857 177.511833 
L 129.415319 178.429935 
L 130.498089 190.824319 
L 130.678551 191.28337 
L 130.859013 193.578626 
L 131.219937 194.496729 
L 131.400398 194.496729 
L 131.58086 194.95578 
L 132.302707 194.95578 
L 132.483169 193.578626 
L 132.663631 194.037677 
L 132.844093 193.578626 
L 133.205016 192.201472 
L 133.385478 191.742421 
L 133.56594 192.660524 
L 133.746402 191.742421 
L 134.107325 191.742421 
L 134.287787 192.660524 
L 134.468249 192.201472 
L 134.648711 192.201472 
L 134.829172 192.660524 
L 135.009634 191.742421 
L 135.190096 191.742421 
L 135.370558 191.28337 
L 135.55102 191.742421 
L 135.731481 192.660524 
L 136.272867 192.660524 
L 136.814252 191.28337 
L 136.994714 192.660524 
L 137.175356 191.28337 
L 137.355818 192.201472 
L 137.53628 191.742421 
L 137.716741 193.119575 
L 137.897203 192.660524 
L 138.438589 192.660524 
L 138.61905 193.119575 
L 138.799512 192.201472 
L 138.979974 193.578626 
L 139.160616 192.201472 
L 139.341258 192.201472 
L 139.521901 191.742421 
L 139.883005 191.742421 
L 140.063467 192.660524 
L 140.243928 191.742421 
L 140.42439 191.742421 
L 140.604852 192.201472 
L 140.965775 192.201472 
L 141.146237 193.578626 
L 141.507161 192.660524 
L 141.687623 193.119575 
L 141.868084 192.660524 
L 142.229008 192.660524 
L 142.40947 191.742421 
L 143.131317 193.578626 
L 143.311779 192.660524 
L 143.49224 193.578626 
L 143.672702 192.660524 
L 143.853164 193.119575 
L 144.033626 193.119575 
L 144.214088 194.037677 
L 144.755473 192.660524 
L 145.116397 193.578626 
L 145.296858 193.578626 
L 145.477501 192.660524 
L 145.658143 193.119575 
L 146.019427 193.119575 
L 146.199889 193.578626 
L 146.380351 192.201472 
L 146.560813 193.119575 
L 146.921736 193.119575 
L 147.102198 192.660524 
L 147.28266 192.660524 
L 147.463122 193.578626 
L 148.004507 193.578626 
L 148.184969 193.119575 
L 148.545892 193.119575 
L 148.726354 194.037677 
L 148.906816 193.119575 
L 149.087278 194.037677 
L 149.26774 194.037677 
L 149.448201 192.660524 
L 149.628663 193.119575 
L 149.809125 193.119575 
L 149.989587 193.578626 
L 150.170048 193.578626 
L 150.35051 193.119575 
L 150.530972 193.119575 
L 150.711434 193.578626 
L 150.891896 193.119575 
L 151.072357 194.037677 
L 151.252819 193.578626 
L 151.613743 193.578626 
L 151.794205 194.037677 
L 151.974666 193.119575 
L 152.516052 193.119575 
L 152.696513 194.037677 
L 152.877156 193.119575 
L 153.057618 194.037677 
L 153.238079 193.119575 
L 153.418722 194.496729 
L 153.599183 194.496729 
L 153.779645 194.037677 
L 153.960287 192.660524 
L 154.140749 194.037677 
L 154.321391 192.201472 
L 154.501853 194.037677 
L 154.682315 193.119575 
L 154.862777 193.578626 
L 155.043239 193.578626 
L 155.2237 193.119575 
L 155.404162 194.037677 
L 155.584624 193.119575 
L 155.945548 194.95578 
L 156.126009 194.496729 
L 156.306471 193.119575 
L 156.486933 193.119575 
L 156.667395 194.037677 
L 157.028318 194.037677 
L 157.20878 193.578626 
L 157.389242 194.496729 
L 157.569704 194.037677 
L 157.750165 194.037677 
L 157.930627 193.578626 
L 158.111089 194.95578 
L 158.291551 193.578626 
L 158.472013 194.496729 
L 158.652474 194.037677 
L 158.832936 193.119575 
L 159.013398 194.037677 
L 159.19386 193.119575 
L 159.374321 193.578626 
L 159.554783 193.119575 
L 159.735245 194.037677 
L 159.915707 192.660524 
L 160.096169 194.037677 
L 160.27663 194.037677 
L 160.457092 193.119575 
L 160.637554 194.496729 
L 160.818016 194.037677 
L 160.998478 193.119575 
L 161.178939 194.496729 
L 161.359401 193.578626 
L 161.720325 193.578626 
L 161.900786 194.496729 
L 162.081248 194.037677 
L 162.442172 194.037677 
L 162.622634 194.496729 
L 162.983557 193.119575 
L 163.164019 194.037677 
L 163.344481 194.037677 
L 163.524943 193.119575 
L 163.705404 194.496729 
L 164.066328 194.496729 
L 164.427252 193.578626 
L 164.607713 194.037677 
L 164.788175 194.037677 
L 164.968637 193.578626 
L 165.149099 193.578626 
L 165.32956 194.95578 
L 165.510022 194.496729 
L 165.690484 193.119575 
L 165.870946 194.95578 
L 166.051408 194.037677 
L 166.231869 194.496729 
L 166.412331 194.037677 
L 167.134178 194.037677 
L 167.31464 193.578626 
L 167.495102 194.037677 
L 167.675564 193.119575 
L 167.856025 194.037677 
L 168.036487 193.578626 
L 168.216949 194.95578 
L 168.397411 193.119575 
L 168.577873 194.95578 
L 168.758334 194.496729 
L 168.938796 194.496729 
L 169.119258 194.95578 
L 169.29972 194.496729 
L 169.480182 194.496729 
L 169.660643 193.119575 
L 169.841105 194.496729 
L 170.021567 194.95578 
L 170.202029 193.119575 
L 170.562952 193.119575 
L 170.743414 194.037677 
L 170.923876 194.037677 
L 171.104338 193.578626 
L 171.284799 194.037677 
L 171.465261 193.578626 
L 171.645723 194.037677 
L 171.826185 194.037677 
L 172.006647 194.496729 
L 172.187108 194.037677 
L 172.548032 194.037677 
L 172.728494 193.578626 
L 173.089417 194.496729 
L 173.269879 194.496729 
L 173.450341 193.119575 
L 174.172188 193.119575 
L 174.35265 194.496729 
L 174.894035 193.119575 
L 175.074497 194.037677 
L 175.254959 194.037677 
L 175.435421 194.496729 
L 175.615882 194.037677 
L 175.796344 194.037677 
L 175.976806 194.95578 
L 176.337729 194.037677 
L 176.698653 194.037677 
L 176.879115 194.496729 
L 177.059577 194.037677 
L 177.4205 194.95578 
L 177.600962 194.037677 
L 177.781424 194.95578 
L 177.961886 194.496729 
L 178.142347 192.660524 
L 178.322809 193.578626 
L 178.503271 193.578626 
L 178.683733 194.037677 
L 178.864195 193.578626 
L 179.044656 194.95578 
L 179.225118 194.95578 
L 179.40558 194.496729 
L 179.586042 193.578626 
L 179.766503 194.037677 
L 179.946965 193.578626 
L 180.127427 194.496729 
L 180.307889 194.496729 
L 180.668812 195.414831 
L 180.849274 193.578626 
L 181.029736 193.119575 
L 181.39066 194.037677 
L 181.571121 194.037677 
L 181.751583 194.496729 
L 181.932045 193.578626 
L 182.112507 194.037677 
L 182.292968 194.95578 
L 182.47343 194.037677 
L 182.834354 194.037677 
L 183.014816 194.496729 
L 183.195277 194.037677 
L 183.556201 194.037677 
L 183.736663 194.95578 
L 183.917125 194.037677 
L 184.097586 194.037677 
L 184.278048 194.496729 
L 184.638972 193.578626 
L 184.819434 194.95578 
L 184.999895 193.578626 
L 185.180357 194.037677 
L 185.360819 194.95578 
L 185.541281 193.578626 
L 185.721742 194.496729 
L 185.902204 194.037677 
L 186.082666 194.037677 
L 186.44359 194.95578 
L 186.804513 193.578626 
L 186.984975 193.578626 
L 187.345899 195.414831 
L 187.706822 193.119575 
L 187.887284 194.496729 
L 188.067746 194.95578 
L 188.248207 194.037677 
L 188.609131 194.95578 
L 188.789593 194.95578 
L 189.150516 193.119575 
L 189.330978 194.95578 
L 189.51144 194.037677 
L 189.691902 194.037677 
L 190.052825 194.95578 
L 190.233287 194.037677 
L 190.594211 194.037677 
L 190.774672 194.95578 
L 190.955134 193.578626 
L 191.135596 194.037677 
L 191.316238 194.037677 
L 191.4967 194.496729 
L 191.677162 194.037677 
L 192.038086 194.037677 
L 192.399009 194.95578 
L 192.759933 193.578626 
L 192.940394 194.496729 
L 193.120856 194.037677 
L 193.301318 194.496729 
L 193.48178 194.037677 
L 193.842703 194.95578 
L 194.023165 193.578626 
L 194.384089 194.496729 
L 194.564551 194.037677 
L 194.745012 194.95578 
L 194.925474 194.037677 
L 195.105936 194.037677 
L 195.286398 193.119575 
L 195.466859 194.496729 
L 195.827783 193.578626 
L 196.188887 194.496729 
L 196.369349 194.496729 
L 196.549811 194.037677 
L 196.730272 194.037677 
L 196.910734 194.95578 
L 197.091196 194.496729 
L 197.271658 194.95578 
L 197.45212 194.95578 
L 197.632581 194.037677 
L 197.813043 194.496729 
L 197.993685 193.119575 
L 198.354609 194.95578 
L 198.535071 194.496729 
L 198.715713 193.578626 
L 198.896175 194.037677 
L 199.076637 194.037677 
L 199.257098 193.119575 
L 199.43756 194.496729 
L 199.618022 194.496729 
L 199.798484 193.578626 
L 199.978945 194.037677 
L 200.159407 193.578626 
L 200.339869 194.037677 
L 200.520331 193.578626 
L 200.700793 194.037677 
L 200.881254 193.578626 
L 201.061716 194.496729 
L 201.242178 193.119575 
L 201.42264 194.95578 
L 201.603102 194.496729 
L 201.783563 194.496729 
L 201.964025 194.037677 
L 202.144487 194.037677 
L 202.324949 194.95578 
L 202.505411 194.037677 
L 202.685872 194.037677 
L 202.866334 194.496729 
L 203.046796 192.660524 
L 203.227258 194.037677 
L 203.407719 194.037677 
L 203.588181 193.119575 
L 203.768643 193.578626 
L 203.949105 194.496729 
L 204.310028 193.578626 
L 204.49049 190.824319 
L 204.851414 55.404205 
L 205.031876 53.568 
L 205.212337 71.930049 
L 205.753723 184.397602 
L 206.114646 214.694983 
L 206.47557 227.089366 
L 206.836493 229.384622 
L 207.016955 229.843674 
L 207.377879 228.46652 
L 207.919264 219.285495 
L 208.280188 213.317829 
L 208.641111 206.432061 
L 209.362958 196.791985 
L 209.904344 192.201472 
L 210.445729 190.824319 
L 210.987115 192.201472 
L 211.167576 192.201472 
L 211.348038 193.119575 
L 211.5285 193.119575 
L 212.069885 195.873882 
L 212.250347 194.95578 
L 212.430809 194.95578 
L 212.611271 196.332934 
L 212.791732 195.414831 
L 212.972194 196.332934 
L 213.152656 196.332934 
L 213.333118 196.791985 
L 213.51358 196.332934 
L 213.694041 197.251036 
L 213.874503 196.332934 
L 214.235427 198.169139 
L 214.59635 197.251036 
L 214.776812 197.251036 
L 214.957274 196.332934 
L 215.137736 196.791985 
L 215.318197 195.873882 
L 215.498659 197.251036 
L 215.679121 195.873882 
L 215.859583 195.414831 
L 216.040045 196.791985 
L 216.220506 196.332934 
L 216.400968 195.414831 
L 216.761892 196.791985 
L 217.122815 196.791985 
L 217.303277 196.332934 
L 217.483739 196.332934 
L 217.664201 195.873882 
L 218.025124 195.873882 
L 218.205586 194.95578 
L 218.386048 196.332934 
L 218.746971 194.95578 
L 218.927433 195.873882 
L 219.107895 194.95578 
L 219.288357 196.332934 
L 219.468819 195.873882 
L 219.64928 195.873882 
L 219.829742 196.332934 
L 220.190666 196.332934 
L 220.371127 196.791985 
L 220.551589 194.95578 
L 220.732051 195.873882 
L 220.912513 195.414831 
L 221.092975 196.791985 
L 221.273436 194.496729 
L 221.453898 194.95578 
L 221.63436 195.873882 
L 221.814822 194.95578 
L 221.995284 194.95578 
L 222.175745 195.873882 
L 222.356207 195.873882 
L 222.536669 195.414831 
L 222.717131 195.414831 
L 222.897593 194.496729 
L 223.258516 195.414831 
L 223.438978 194.037677 
L 223.61944 196.332934 
L 223.799901 195.873882 
L 223.980363 194.496729 
L 224.160825 194.496729 
L 224.341287 194.95578 
L 224.521749 194.95578 
L 224.70221 195.873882 
L 224.882672 194.496729 
L 225.063134 195.414831 
L 225.243596 194.95578 
L 225.424058 194.95578 
L 225.604519 194.496729 
L 225.784981 194.95578 
L 225.965443 194.95578 
L 226.145905 194.037677 
L 226.326366 194.95578 
L 227.228675 194.95578 
L 227.409137 194.496729 
L 227.589599 194.496729 
L 227.770061 194.95578 
L 227.950523 195.873882 
L 228.311446 194.95578 
L 228.491908 196.332934 
L 228.852832 194.037677 
L 229.033293 194.95578 
L 229.394217 194.95578 
L 229.574679 195.414831 
L 229.935602 194.496729 
L 230.116064 194.95578 
L 230.296526 194.95578 
L 230.476988 194.037677 
L 230.837911 194.037677 
L 231.018373 194.496729 
L 231.559758 194.496729 
L 231.74022 194.95578 
L 232.101144 194.037677 
L 232.281605 194.037677 
L 232.462067 194.496729 
L 232.642529 195.414831 
L 233.003453 194.496729 
L 233.183914 194.496729 
L 233.364376 194.95578 
L 233.7253 193.578626 
L 233.905762 194.95578 
L 234.086223 194.95578 
L 234.266685 194.496729 
L 234.447147 195.414831 
L 234.80807 194.037677 
L 234.988532 194.95578 
L 235.168994 194.037677 
L 235.349456 194.037677 
L 235.529918 194.95578 
L 235.710379 194.95578 
L 235.890841 193.119575 
L 236.071303 194.95578 
L 236.251765 194.037677 
L 236.432227 194.037677 
L 236.79315 194.95578 
L 237.334536 194.95578 
L 237.514997 194.496729 
L 237.695459 194.95578 
L 238.056383 194.95578 
L 238.236844 194.496729 
L 238.597768 194.496729 
L 238.77823 194.037677 
L 238.958692 194.95578 
L 239.139153 194.037677 
L 239.319615 194.037677 
L 239.500077 194.95578 
L 239.680539 194.95578 
L 239.861001 194.037677 
L 240.221924 194.95578 
L 240.402386 194.496729 
L 240.582848 194.95578 
L 240.943771 193.578626 
L 241.124233 194.037677 
L 241.304695 194.037677 
L 241.485157 194.496729 
L 241.665618 194.037677 
L 241.84608 194.037677 
L 242.026542 194.496729 
L 242.207004 194.496729 
L 242.387466 194.037677 
L 242.567927 194.037677 
L 242.748389 194.95578 
L 242.928851 193.578626 
L 243.109313 194.037677 
L 243.289775 195.414831 
L 243.470236 194.037677 
L 243.83116 194.037677 
L 244.011622 194.95578 
L 244.192083 194.496729 
L 244.372545 194.95578 
L 244.733469 194.95578 
L 244.913931 194.037677 
L 245.094392 194.037677 
L 245.274854 194.496729 
L 245.455316 194.037677 
L 245.635778 194.95578 
L 245.81624 193.578626 
L 245.996701 194.496729 
L 246.177163 194.037677 
L 246.357625 194.496729 
L 246.538087 194.496729 
L 246.718548 193.119575 
L 246.89901 194.95578 
L 247.079472 195.414831 
L 247.620857 194.037677 
L 247.801319 194.95578 
L 247.981781 194.037677 
L 248.162243 194.496729 
L 248.342705 194.037677 
L 248.523166 194.95578 
L 248.703628 194.037677 
L 248.88409 194.037677 
L 249.064552 194.496729 
L 249.605937 194.496729 
L 249.786399 193.578626 
L 249.966861 194.496729 
L 250.147322 194.496729 
L 250.327784 195.414831 
L 250.688708 193.119575 
L 250.86917 194.496729 
L 251.230093 194.496729 
L 251.410555 194.037677 
L 251.771479 194.037677 
L 251.95194 194.496729 
L 252.132402 194.037677 
L 252.312864 194.95578 
L 252.493326 194.496729 
L 252.673787 194.496729 
L 252.854249 194.037677 
L 253.034711 194.95578 
L 253.215173 194.037677 
L 253.576096 194.037677 
L 253.756558 194.95578 
L 253.93702 193.578626 
L 254.297944 194.95578 
L 254.478405 194.95578 
L 254.658867 194.496729 
L 254.839329 194.95578 
L 255.019791 193.578626 
L 255.200252 194.95578 
L 255.561176 194.037677 
L 255.741638 194.037677 
L 255.9221 193.578626 
L 256.102561 194.95578 
L 256.283023 194.95578 
L 256.463485 194.037677 
L 256.643947 194.496729 
L 256.824409 194.496729 
L 257.00487 194.95578 
L 257.185332 194.037677 
L 257.365794 194.496729 
L 257.546256 193.578626 
L 257.726718 194.037677 
L 257.907179 193.578626 
L 258.087641 194.496729 
L 258.809488 194.496729 
L 258.98995 194.037677 
L 259.170412 194.037677 
L 259.350874 194.496729 
L 259.531335 194.037677 
L 259.711797 194.496729 
L 259.892259 194.496729 
L 260.072721 194.95578 
L 260.433644 194.037677 
L 260.614106 194.95578 
L 260.794568 193.578626 
L 260.97503 194.037677 
L 261.155491 193.578626 
L 261.335953 194.037677 
L 261.516415 194.95578 
L 261.696877 194.95578 
L 261.877339 194.037677 
L 262.0578 194.037677 
L 262.238262 195.414831 
L 262.418724 194.496729 
L 262.599186 194.95578 
L 262.779648 194.496729 
L 262.960109 194.95578 
L 263.140571 194.95578 
L 263.321033 194.496729 
L 263.681956 194.496729 
L 263.862418 193.578626 
L 264.04288 194.037677 
L 264.223342 195.414831 
L 264.403804 195.414831 
L 264.764727 193.119575 
L 265.125651 194.496729 
L 265.306113 193.578626 
L 265.486574 194.95578 
L 265.667036 194.496729 
L 265.847498 194.95578 
L 266.02796 193.119575 
L 266.388883 194.95578 
L 266.569345 194.037677 
L 266.749807 194.95578 
L 266.930269 194.037677 
L 267.11073 194.496729 
L 267.291192 194.496729 
L 267.471654 194.037677 
L 267.652116 194.037677 
L 268.013039 194.95578 
L 268.193501 194.037677 
L 268.554425 194.037677 
L 268.734887 193.578626 
L 268.915348 194.037677 
L 269.276272 194.037677 
L 269.456734 194.496729 
L 269.637195 194.496729 
L 269.817657 194.037677 
L 269.998119 194.496729 
L 270.178581 194.037677 
L 270.359043 194.496729 
L 270.539504 194.037677 
L 270.719966 194.037677 
L 270.900428 193.578626 
L 271.261352 195.873882 
L 271.441813 194.496729 
L 271.802737 193.578626 
L 271.983199 194.037677 
L 272.163661 194.037677 
L 272.344122 194.95578 
L 272.705046 193.578626 
L 272.885508 193.578626 
L 273.065969 195.414831 
L 273.426893 194.037677 
L 273.607355 194.037677 
L 273.787817 194.95578 
L 274.14874 194.037677 
L 274.329202 194.037677 
L 274.509664 194.496729 
L 274.690126 195.414831 
L 275.051049 194.496729 
L 275.231511 193.578626 
L 275.411973 194.496729 
L 275.592434 194.496729 
L 275.772896 194.037677 
L 275.953358 194.95578 
L 276.13382 193.578626 
L 276.314282 194.95578 
L 276.494743 194.037677 
L 276.675205 194.496729 
L 277.036129 193.578626 
L 277.216591 194.037677 
L 277.397052 193.578626 
L 277.577514 194.037677 
L 277.757976 193.119575 
L 278.1189 194.496729 
L 278.299361 194.95578 
L 278.479823 194.037677 
L 278.840747 194.037677 
L 279.021208 194.95578 
L 279.20167 193.578626 
L 279.382132 194.037677 
L 279.562594 194.037677 
L 279.743056 194.95578 
L 279.923517 194.95578 
L 280.103979 194.037677 
L 280.284441 194.037677 
L 280.464903 194.496729 
L 280.645365 193.119575 
L 281.006288 194.037677 
L 281.18675 194.037677 
L 281.367212 193.578626 
L 281.547673 194.037677 
L 281.728135 193.578626 
L 281.908597 194.496729 
L 282.089059 194.037677 
L 282.269521 194.496729 
L 282.630444 193.578626 
L 282.810906 194.037677 
L 282.991368 194.037677 
L 283.17183 194.496729 
L 283.352291 194.496729 
L 283.532753 193.578626 
L 283.713215 193.578626 
L 284.074138 195.414831 
L 284.2546 194.037677 
L 284.435062 194.95578 
L 284.615524 194.037677 
L 284.795986 194.496729 
L 284.976447 194.496729 
L 285.337371 193.578626 
L 285.517833 194.037677 
L 285.698295 195.873882 
L 285.878756 194.95578 
L 286.059218 194.95578 
L 286.23968 194.496729 
L 286.420142 193.578626 
L 286.600604 194.496729 
L 286.781065 194.496729 
L 286.961527 193.578626 
L 287.141989 193.578626 
L 287.322451 194.496729 
L 287.502912 194.037677 
L 287.683374 194.037677 
L 288.044298 194.95578 
L 288.22476 194.496729 
L 288.405221 194.95578 
L 288.585683 194.037677 
L 288.946607 194.037677 
L 289.127069 194.496729 
L 289.30753 194.037677 
L 289.487992 194.496729 
L 289.848916 193.578626 
L 290.029377 193.578626 
L 290.209839 194.496729 
L 290.390301 193.578626 
L 290.570763 194.037677 
L 290.751225 194.037677 
L 290.931686 194.496729 
L 291.112148 194.037677 
L 291.29261 194.95578 
L 291.473072 194.037677 
L 292.194919 194.037677 
L 292.375381 194.95578 
L 292.555843 194.496729 
L 292.736304 195.873882 
L 293.097228 194.037677 
L 293.27769 194.95578 
L 293.458151 194.496729 
L 293.638613 193.578626 
L 293.819075 194.496729 
L 294.179999 193.578626 
L 294.36046 194.496729 
L 294.540922 194.496729 
L 294.721384 194.037677 
L 294.901846 194.037677 
L 295.082308 193.578626 
L 295.262769 194.037677 
L 295.443231 193.119575 
L 295.623693 194.496729 
L 295.804155 194.496729 
L 295.984616 194.95578 
L 296.165078 194.95578 
L 296.34554 194.037677 
L 296.706464 194.037677 
L 296.886925 194.95578 
L 297.067387 193.578626 
L 297.247849 193.578626 
L 297.428311 194.95578 
L 297.608773 194.037677 
L 297.789234 194.496729 
L 297.969696 194.037677 
L 298.150158 194.95578 
L 298.33062 194.037677 
L 298.511081 194.95578 
L 298.691543 193.578626 
L 299.052467 194.95578 
L 299.232929 194.037677 
L 299.41339 194.95578 
L 299.593852 194.037677 
L 299.954776 194.95578 
L 300.135238 194.95578 
L 300.315699 193.578626 
L 300.496161 194.037677 
L 300.676623 194.037677 
L 300.857085 193.578626 
L 301.037547 195.414831 
L 301.218008 194.496729 
L 301.39847 194.496729 
L 301.578932 194.95578 
L 301.939855 193.578626 
L 302.120317 194.496729 
L 302.481241 193.578626 
L 302.661703 194.037677 
L 302.842164 194.037677 
L 303.022626 194.95578 
L 303.203088 194.95578 
L 303.38355 194.496729 
L 303.564012 194.496729 
L 303.744473 194.037677 
L 303.924935 194.95578 
L 304.105397 194.037677 
L 304.46632 194.95578 
L 304.646782 193.578626 
L 304.827244 194.037677 
L 305.007706 193.578626 
L 305.188168 194.037677 
L 305.549091 194.037677 
L 305.729553 194.95578 
L 305.910015 194.496729 
L 306.090477 194.95578 
L 306.270938 194.037677 
L 306.4514 194.95578 
L 306.631862 194.037677 
L 306.812324 194.037677 
L 306.992786 194.95578 
L 307.173247 194.037677 
L 307.353709 194.95578 
L 307.534171 194.037677 
L 307.714633 194.037677 
L 307.895094 193.578626 
L 308.256018 194.496729 
L 308.43648 194.037677 
L 308.616942 194.496729 
L 308.977865 193.578626 
L 309.158327 194.037677 
L 309.338789 193.119575 
L 309.519251 194.496729 
L 309.699712 194.95578 
L 309.880174 194.496729 
L 310.060636 193.578626 
L 310.241098 194.95578 
L 310.421559 195.414831 
L 310.602021 194.037677 
L 310.782483 194.037677 
L 310.962945 194.95578 
L 311.143407 194.037677 
L 311.323868 194.037677 
L 311.50433 194.496729 
L 311.684792 194.037677 
L 311.865254 194.037677 
L 312.045716 193.578626 
L 312.406639 194.496729 
L 312.587101 194.496729 
L 312.767563 193.578626 
L 312.948024 194.95578 
L 313.128486 194.95578 
L 313.308948 194.037677 
L 313.48941 194.95578 
L 313.669872 193.578626 
L 313.850333 194.037677 
L 314.211257 194.037677 
L 314.391719 193.578626 
L 314.572181 194.95578 
L 314.752642 194.496729 
L 314.933104 194.95578 
L 315.113566 194.95578 
L 315.294028 194.037677 
L 315.47449 194.95578 
L 315.654951 193.578626 
L 315.835413 194.037677 
L 316.015875 194.95578 
L 316.196337 193.578626 
L 316.376798 194.496729 
L 316.55726 194.037677 
L 316.918184 194.037677 
L 317.098646 193.578626 
L 317.279107 194.037677 
L 317.459569 194.037677 
L 317.640031 194.496729 
L 317.820493 194.496729 
L 318.000955 193.578626 
L 318.181416 194.037677 
L 318.361878 194.95578 
L 318.54234 194.037677 
L 318.722802 194.496729 
L 318.903263 194.037677 
L 319.083725 194.037677 
L 319.264187 193.119575 
L 319.444649 194.95578 
L 319.805572 194.037677 
L 319.986034 194.037677 
L 320.346958 193.119575 
L 320.707881 194.037677 
L 320.888343 194.95578 
L 321.068805 194.496729 
L 321.249267 195.414831 
L 321.429729 193.578626 
L 321.61019 194.496729 
L 321.790652 193.578626 
L 321.971114 194.037677 
L 322.151576 194.037677 
L 322.332037 194.496729 
L 322.692961 193.578626 
L 322.873423 194.037677 
L 323.053885 194.95578 
L 323.234346 194.037677 
L 323.414808 194.037677 
L 323.59527 194.95578 
L 323.775732 194.037677 
L 323.956194 194.037677 
L 324.136655 193.578626 
L 324.317117 193.578626 
L 324.497579 193.119575 
L 324.678041 193.578626 
L 324.858502 194.95578 
L 325.038964 193.578626 
L 325.219426 194.037677 
L 325.399888 195.414831 
L 325.58035 193.119575 
L 325.941273 194.95578 
L 326.121735 194.037677 
L 326.302197 194.95578 
L 326.482659 193.578626 
L 326.66312 193.578626 
L 326.843582 194.037677 
L 327.024044 194.95578 
L 327.204506 194.496729 
L 327.384967 194.95578 
L 327.565429 194.95578 
L 327.745891 194.037677 
L 327.926353 194.95578 
L 328.106815 194.037677 
L 328.287276 194.496729 
L 328.467738 194.496729 
L 328.6482 194.95578 
L 329.009124 193.578626 
L 329.189585 194.037677 
L 329.370047 193.578626 
L 329.550509 193.578626 
L 329.730971 194.95578 
L 330.091894 194.95578 
L 330.272356 194.496729 
L 330.452818 194.95578 
L 330.63328 193.578626 
L 330.813741 194.496729 
L 330.994203 194.037677 
L 331.174665 194.037677 
L 331.355127 194.496729 
L 331.535589 193.578626 
L 331.71605 194.037677 
L 331.896512 193.119575 
L 332.076974 194.95578 
L 332.257436 194.95578 
L 332.437898 194.037677 
L 332.798821 194.95578 
L 333.159745 194.95578 
L 333.340206 194.496729 
L 333.520668 193.578626 
L 333.881592 194.496729 
L 334.062054 194.496729 
L 334.242515 194.95578 
L 334.603439 193.578626 
L 334.783901 193.578626 
L 334.964363 194.037677 
L 335.144824 194.037677 
L 335.325286 193.578626 
L 335.505748 194.037677 
L 335.68621 194.95578 
L 335.866672 193.578626 
L 336.047133 194.95578 
L 336.227595 194.037677 
L 336.588519 194.037677 
L 336.76898 195.873882 
L 336.949442 194.496729 
L 337.129904 194.95578 
L 337.310366 194.037677 
L 337.490828 194.496729 
L 337.671289 193.578626 
L 337.851751 194.496729 
L 338.032213 194.037677 
L 338.573598 194.037677 
L 338.75406 194.496729 
L 339.114984 194.496729 
L 339.295445 194.95578 
L 339.475907 193.119575 
L 339.836831 194.496729 
L 340.017293 194.95578 
L 340.197754 194.037677 
L 340.378216 194.496729 
L 340.558678 194.496729 
L 340.73914 194.95578 
L 340.919602 194.496729 
L 341.100063 193.578626 
L 341.280525 194.496729 
L 341.821911 193.119575 
L 342.002372 194.95578 
L 342.182834 194.95578 
L 342.363296 194.496729 
L 342.543758 194.496729 
L 342.724219 194.95578 
L 342.904681 194.496729 
L 343.085143 194.496729 
L 343.265605 193.578626 
L 343.80699 194.95578 
L 344.167914 193.578626 
L 344.348376 194.496729 
L 344.528837 194.496729 
L 344.709299 195.414831 
L 344.889761 194.95578 
L 345.070223 194.037677 
L 345.250684 194.95578 
L 345.431146 193.578626 
L 345.611608 194.95578 
L 345.79207 194.496729 
L 345.972532 195.414831 
L 346.152993 193.119575 
L 346.333455 194.496729 
L 346.513917 194.95578 
L 346.694379 194.95578 
L 346.874841 194.037677 
L 347.055302 194.95578 
L 347.235764 194.037677 
L 347.596688 194.037677 
L 347.777149 194.95578 
L 348.138073 194.037677 
L 348.318535 194.496729 
L 348.679458 193.578626 
L 348.85992 194.95578 
L 349.040382 194.496729 
L 349.220844 193.119575 
L 349.401306 194.037677 
L 349.581767 194.037677 
L 349.762229 193.578626 
L 349.942691 194.95578 
L 350.123153 194.037677 
L 350.303615 194.037677 
L 350.484076 194.95578 
L 350.845 194.037677 
L 351.025462 194.037677 
L 351.205923 194.95578 
L 351.386385 193.578626 
L 351.566847 194.496729 
L 351.747309 193.578626 
L 351.927771 194.037677 
L 352.108232 195.414831 
L 352.469156 193.578626 
L 352.649618 194.037677 
L 353.010541 195.414831 
L 353.371465 193.119575 
L 353.551927 193.119575 
L 353.732388 194.496729 
L 353.91285 194.496729 
L 354.093312 194.95578 
L 354.273774 194.496729 
L 354.454236 194.95578 
L 354.634697 194.037677 
L 354.815159 194.496729 
L 354.995621 194.496729 
L 355.176083 194.037677 
L 355.356545 194.037677 
L 355.537006 194.496729 
L 355.89793 194.496729 
L 356.258854 193.578626 
L 356.439315 194.95578 
L 356.619777 193.578626 
L 356.800239 194.037677 
L 356.980701 194.037677 
L 357.161162 194.496729 
L 357.341624 194.496729 
L 357.522086 194.037677 
L 357.702548 194.037677 
L 358.063471 194.95578 
L 358.243933 194.037677 
L 358.785319 194.037677 
L 358.96578 193.119575 
L 359.146242 194.037677 
L 360.409475 194.037677 
L 360.589936 194.496729 
L 360.95086 194.496729 
L 361.311784 193.578626 
L 361.492245 194.037677 
L 361.672707 193.578626 
L 361.853169 194.95578 
L 362.033631 193.578626 
L 362.214092 194.496729 
L 362.394554 194.496729 
L 362.575016 194.95578 
L 362.755478 194.037677 
L 362.93594 194.037677 
L 363.116401 194.95578 
L 363.296863 194.95578 
L 363.477325 194.496729 
L 363.838249 194.496729 
L 364.01871 193.578626 
L 364.199172 194.496729 
L 364.379634 193.119575 
L 364.560096 194.496729 
L 364.740558 193.119575 
L 364.921019 194.496729 
L 365.101481 194.496729 
L 365.281943 194.037677 
L 365.462405 194.037677 
L 365.823328 194.95578 
L 366.00379 194.95578 
L 366.364714 194.037677 
L 366.545175 194.95578 
L 366.725637 193.578626 
L 366.906099 194.037677 
L 367.086561 194.037677 
L 367.267023 194.95578 
L 367.447484 194.037677 
L 367.627946 194.037677 
L 367.808408 194.95578 
L 368.169331 194.95578 
L 368.349793 194.037677 
L 368.530255 194.496729 
L 368.710717 195.414831 
L 368.891179 194.95578 
L 369.07164 194.037677 
L 369.252102 194.496729 
L 369.432564 194.496729 
L 369.613026 194.037677 
L 369.793488 194.95578 
L 369.973949 194.95578 
L 370.334873 193.578626 
L 370.515335 194.95578 
L 370.695797 195.414831 
L 370.876258 194.037677 
L 371.05672 194.496729 
L 371.237182 194.037677 
L 371.959029 194.037677 
L 372.139491 194.496729 
L 372.319953 194.496729 
L 372.500414 194.037677 
L 372.680876 194.496729 
L 372.861338 194.037677 
L 373.0418 194.95578 
L 373.222262 194.95578 
L 373.402723 194.496729 
L 373.583185 194.496729 
L 373.763647 193.578626 
L 373.944109 194.95578 
L 374.305032 194.037677 
L 374.485494 194.496729 
L 374.665956 193.578626 
L 374.846418 193.578626 
L 375.026879 194.037677 
L 375.207341 193.578626 
L 375.387803 194.037677 
L 375.568265 194.037677 
L 375.748727 193.578626 
L 375.929188 194.95578 
L 376.10965 194.037677 
L 376.290112 194.037677 
L 376.470574 194.95578 
L 376.651035 194.037677 
L 376.831497 195.414831 
L 377.011959 193.578626 
L 377.192421 193.578626 
L 377.372883 194.037677 
L 377.553344 194.95578 
L 377.733806 194.037677 
L 377.914268 194.95578 
L 378.275192 194.037677 
L 378.455653 194.037677 
L 378.816577 195.414831 
L 378.997039 194.037677 
L 379.177501 194.95578 
L 379.538424 193.578626 
L 379.718886 193.578626 
L 379.899348 194.037677 
L 380.079809 194.037677 
L 380.260271 194.95578 
L 380.621195 194.95578 
L 380.801657 193.578626 
L 380.982118 193.578626 
L 381.16258 194.037677 
L 381.343042 195.414831 
L 381.523504 193.578626 
L 381.703966 194.496729 
L 381.884427 194.037677 
L 382.064889 194.95578 
L 382.245351 194.037677 
L 382.425813 194.95578 
L 382.786917 194.037677 
L 383.508764 194.037677 
L 383.689226 194.496729 
L 383.869687 194.037677 
L 384.050149 194.037677 
L 384.230611 194.496729 
L 384.411073 193.578626 
L 384.591535 194.037677 
L 384.771996 194.95578 
L 384.952458 194.95578 
L 385.13292 194.496729 
L 385.493844 194.496729 
L 385.674305 194.037677 
L 386.035409 194.037677 
L 386.215871 193.578626 
L 386.396333 194.95578 
L 386.576795 194.496729 
L 386.757257 194.95578 
L 386.937718 193.578626 
L 387.11818 194.037677 
L 387.298642 194.95578 
L 387.479104 194.95578 
L 387.840027 193.578626 
L 388.020489 193.119575 
L 388.200951 194.037677 
L 388.381413 194.037677 
L 388.561874 194.496729 
L 388.742336 195.414831 
L 388.922798 194.95578 
L 389.10326 193.578626 
L 389.464183 194.496729 
L 389.644645 194.037677 
L 389.825107 194.496729 
L 390.186031 193.578626 
L 390.366492 194.496729 
L 390.546954 194.037677 
L 390.727416 194.95578 
L 391.088339 194.037677 
L 391.449263 194.037677 
L 391.629725 194.496729 
L 391.810187 193.578626 
L 391.990648 194.037677 
L 392.17111 194.95578 
L 392.351572 193.578626 
L 392.532034 194.037677 
L 392.712496 193.578626 
L 393.073419 194.95578 
L 393.253881 194.496729 
L 393.434343 194.496729 
L 393.795266 193.119575 
L 394.15619 194.95578 
L 394.336652 194.037677 
L 394.697575 194.95578 
L 394.878037 193.578626 
L 395.058499 193.578626 
L 395.419422 194.496729 
L 395.599884 194.037677 
L 396.141269 194.037677 
L 396.321731 194.95578 
L 396.502193 194.95578 
L 396.682655 194.037677 
L 396.863117 194.496729 
L 397.22404 193.119575 
L 397.404502 194.496729 
L 397.584964 194.496729 
L 397.765426 194.037677 
L 398.126349 194.95578 
L 398.306811 193.578626 
L 398.487273 194.95578 
L 398.487273 194.95578 
" style="fill:none;stroke:#ff7f0e;stroke-linecap:square;stroke-width:1.5;"/>
   </g>
   <g id="patch_3">
    <path d="M 57.6 307.584 
L 57.6 41.472 
" style="fill:none;stroke:#000000;stroke-linecap:square;stroke-linejoin:miter;stroke-width:0.8;"/>
   </g>
   <g id="patch_4">
    <path d="M 414.72 307.584 
L 414.72 41.472 
" style="fill:none;stroke:#000000;stroke-linecap:square;stroke-linejoin:miter;stroke-width:0.8;"/>
   </g>
   <g id="patch_5">
    <path d="M 57.6 307.584 
L 414.72 307.584 
" style="fill:none;stroke:#000000;stroke-linecap:square;stroke-linejoin:miter;stroke-width:0.8;"/>
   </g>
   <g id="patch_6">
    <path d="M 57.6 41.472 
L 414.72 41.472 
" style="fill:none;stroke:#000000;stroke-linecap:square;stroke-linejoin:miter;stroke-width:0.8;"/>
   </g>
   <g id="text_17">
    <!-- Temperatures of heater -->
    <defs>
     <path d="M 30.609375 48.390625 
Q 23.390625 48.390625 19.1875 42.75 
Q 14.984375 37.109375 14.984375 27.296875 
Q 14.984375 17.484375 19.15625 11.84375 
Q 23.34375 6.203125 30.609375 6.203125 
Q 37.796875 6.203125 41.984375 11.859375 
Q 46.1875 17.53125 46.1875 27.296875 
Q 46.1875 37.015625 41.984375 42.703125 
Q 37.796875 48.390625 30.609375 48.390625 
z
M 30.609375 56 
Q 42.328125 56 49.015625 48.375 
Q 55.71875 40.765625 55.71875 27.296875 
Q 55.71875 13.875 49.015625 6.21875 
Q 42.328125 -1.421875 30.609375 -1.421875 
Q 18.84375 -1.421875 12.171875 6.21875 
Q 5.515625 13.875 5.515625 27.296875 
Q 5.515625 40.765625 12.171875 48.375 
Q 18.84375 56 30.609375 56 
z
" id="DejaVuSans-6f"/>
     <path d="M 37.109375 75.984375 
L 37.109375 68.5 
L 28.515625 68.5 
Q 23.6875 68.5 21.796875 66.546875 
Q 19.921875 64.59375 19.921875 59.515625 
L 19.921875 54.6875 
L 34.71875 54.6875 
L 34.71875 47.703125 
L 19.921875 47.703125 
L 19.921875 0 
L 10.890625 0 
L 10.890625 47.703125 
L 2.296875 47.703125 
L 2.296875 54.6875 
L 10.890625 54.6875 
L 10.890625 58.5 
Q 10.890625 67.625 15.140625 71.796875 
Q 19.390625 75.984375 28.609375 75.984375 
z
" id="DejaVuSans-66"/>
     <path d="M 54.890625 33.015625 
L 54.890625 0 
L 45.90625 0 
L 45.90625 32.71875 
Q 45.90625 40.484375 42.875 44.328125 
Q 39.84375 48.1875 33.796875 48.1875 
Q 26.515625 48.1875 22.3125 43.546875 
Q 18.109375 38.921875 18.109375 30.90625 
L 18.109375 0 
L 9.078125 0 
L 9.078125 75.984375 
L 18.109375 75.984375 
L 18.109375 46.1875 
Q 21.34375 51.125 25.703125 53.5625 
Q 30.078125 56 35.796875 56 
Q 45.21875 56 50.046875 50.171875 
Q 54.890625 44.34375 54.890625 33.015625 
z
" id="DejaVuSans-68"/>
    </defs>
    <g transform="translate(164.614688 35.472)scale(0.12 -0.12)">
     <use xlink:href="#DejaVuSans-54"/>
     <use x="60.818359" xlink:href="#DejaVuSans-65"/>
     <use x="122.341797" xlink:href="#DejaVuSans-6d"/>
     <use x="219.753906" xlink:href="#DejaVuSans-70"/>
     <use x="283.230469" xlink:href="#DejaVuSans-65"/>
     <use x="344.753906" xlink:href="#DejaVuSans-72"/>
     <use x="385.867188" xlink:href="#DejaVuSans-61"/>
     <use x="447.146484" xlink:href="#DejaVuSans-74"/>
     <use x="486.355469" xlink:href="#DejaVuSans-75"/>
     <use x="549.734375" xlink:href="#DejaVuSans-72"/>
     <use x="590.816406" xlink:href="#DejaVuSans-65"/>
     <use x="652.339844" xlink:href="#DejaVuSans-73"/>
     <use x="704.439453" xlink:href="#DejaVuSans-20"/>
     <use x="736.226562" xlink:href="#DejaVuSans-6f"/>
     <use x="797.408203" xlink:href="#DejaVuSans-66"/>
     <use x="832.613281" xlink:href="#DejaVuSans-20"/>
     <use x="864.400391" xlink:href="#DejaVuSans-68"/>
     <use x="927.779297" xlink:href="#DejaVuSans-65"/>
     <use x="989.302734" xlink:href="#DejaVuSans-61"/>
     <use x="1050.582031" xlink:href="#DejaVuSans-74"/>
     <use x="1089.791016" xlink:href="#DejaVuSans-65"/>
     <use x="1151.314453" xlink:href="#DejaVuSans-72"/>
    </g>
   </g>
   <g id="legend_1">
    <g id="patch_7">
     <path d="M 328.585625 78.82825 
L 407.72 78.82825 
Q 409.72 78.82825 409.72 76.82825 
L 409.72 48.472 
Q 409.72 46.472 407.72 46.472 
L 328.585625 46.472 
Q 326.585625 46.472 326.585625 48.472 
L 326.585625 76.82825 
Q 326.585625 78.82825 328.585625 78.82825 
z
" style="fill:#ffffff;opacity:0.8;stroke:#cccccc;stroke-linejoin:miter;"/>
    </g>
    <g id="line2d_17">
     <path d="M 330.585625 54.570437 
L 350.585625 54.570437 
" style="fill:none;stroke:#1f77b4;stroke-linecap:square;stroke-width:1.5;"/>
    </g>
    <g id="line2d_18"/>
    <g id="text_18">
     <!-- Setpoints -->
     <defs>
      <path d="M 53.515625 70.515625 
L 53.515625 60.890625 
Q 47.90625 63.578125 42.921875 64.890625 
Q 37.9375 66.21875 33.296875 66.21875 
Q 25.25 66.21875 20.875 63.09375 
Q 16.5 59.96875 16.5 54.203125 
Q 16.5 49.359375 19.40625 46.890625 
Q 22.3125 44.4375 30.421875 42.921875 
L 36.375 41.703125 
Q 47.40625 39.59375 52.65625 34.296875 
Q 57.90625 29 57.90625 20.125 
Q 57.90625 9.515625 50.796875 4.046875 
Q 43.703125 -1.421875 29.984375 -1.421875 
Q 24.8125 -1.421875 18.96875 -0.25 
Q 13.140625 0.921875 6.890625 3.21875 
L 6.890625 13.375 
Q 12.890625 10.015625 18.65625 8.296875 
Q 24.421875 6.59375 29.984375 6.59375 
Q 38.421875 6.59375 43.015625 9.90625 
Q 47.609375 13.234375 47.609375 19.390625 
Q 47.609375 24.75 44.3125 27.78125 
Q 41.015625 30.8125 33.5 32.328125 
L 27.484375 33.5 
Q 16.453125 35.6875 11.515625 40.375 
Q 6.59375 45.0625 6.59375 53.421875 
Q 6.59375 63.09375 13.40625 68.65625 
Q 20.21875 74.21875 32.171875 74.21875 
Q 37.3125 74.21875 42.625 73.28125 
Q 47.953125 72.359375 53.515625 70.515625 
z
" id="DejaVuSans-53"/>
      <path d="M 9.421875 54.6875 
L 18.40625 54.6875 
L 18.40625 0 
L 9.421875 0 
z
M 9.421875 75.984375 
L 18.40625 75.984375 
L 18.40625 64.59375 
L 9.421875 64.59375 
z
" id="DejaVuSans-69"/>
      <path d="M 54.890625 33.015625 
L 54.890625 0 
L 45.90625 0 
L 45.90625 32.71875 
Q 45.90625 40.484375 42.875 44.328125 
Q 39.84375 48.1875 33.796875 48.1875 
Q 26.515625 48.1875 22.3125 43.546875 
Q 18.109375 38.921875 18.109375 30.90625 
L 18.109375 0 
L 9.078125 0 
L 9.078125 54.6875 
L 18.109375 54.6875 
L 18.109375 46.1875 
Q 21.34375 51.125 25.703125 53.5625 
Q 30.078125 56 35.796875 56 
Q 45.21875 56 50.046875 50.171875 
Q 54.890625 44.34375 54.890625 33.015625 
z
" id="DejaVuSans-6e"/>
     </defs>
     <g transform="translate(358.585625 58.070437)scale(0.1 -0.1)">
      <use xlink:href="#DejaVuSans-53"/>
      <use x="63.476562" xlink:href="#DejaVuSans-65"/>
      <use x="125" xlink:href="#DejaVuSans-74"/>
      <use x="164.208984" xlink:href="#DejaVuSans-70"/>
      <use x="227.685547" xlink:href="#DejaVuSans-6f"/>
      <use x="288.867188" xlink:href="#DejaVuSans-69"/>
      <use x="316.650391" xlink:href="#DejaVuSans-6e"/>
      <use x="380.029297" xlink:href="#DejaVuSans-74"/>
      <use x="419.238281" xlink:href="#DejaVuSans-73"/>
     </g>
    </g>
    <g id="line2d_19">
     <path d="M 330.585625 69.248562 
L 350.585625 69.248562 
" style="fill:none;stroke:#ff7f0e;stroke-linecap:square;stroke-width:1.5;"/>
    </g>
    <g id="line2d_20"/>
    <g id="text_19">
     <!-- Heater -->
     <defs>
      <path d="M 9.8125 72.90625 
L 19.671875 72.90625 
L 19.671875 43.015625 
L 55.515625 43.015625 
L 55.515625 72.90625 
L 65.375 72.90625 
L 65.375 0 
L 55.515625 0 
L 55.515625 34.71875 
L 19.671875 34.71875 
L 19.671875 0 
L 9.8125 0 
z
" id="DejaVuSans-48"/>
     </defs>
     <g transform="translate(358.585625 72.748562)scale(0.1 -0.1)">
      <use xlink:href="#DejaVuSans-48"/>
      <use x="75.195312" xlink:href="#DejaVuSans-65"/>
      <use x="136.71875" xlink:href="#DejaVuSans-61"/>
      <use x="197.998047" xlink:href="#DejaVuSans-74"/>
      <use x="237.207031" xlink:href="#DejaVuSans-65"/>
      <use x="298.730469" xlink:href="#DejaVuSans-72"/>
     </g>
    </g>
   </g>
  </g>
 </g>
 <defs>
  <clipPath id="pab284bec26">
   <rect height="266.112" width="357.12" x="57.6" y="41.472"/>
  </clipPath>
 </defs>
</svg>
