<?xml version="1.0" encoding="utf-8" standalone="no"?>
<!DOCTYPE svg PUBLIC "-//W3C//DTD SVG 1.1//EN"
  "http://www.w3.org/Graphics/SVG/1.1/DTD/svg11.dtd">
<!-- Created with matplotlib (http://matplotlib.org/) -->
<svg height="345pt" version="1.1" viewBox="0 0 460 345" width="460pt" xmlns="http://www.w3.org/2000/svg" xmlns:xlink="http://www.w3.org/1999/xlink">
 <defs>
  <style type="text/css">
*{stroke-linecap:butt;stroke-linejoin:round;}
  </style>
 </defs>
 <g id="figure_1">
  <g id="patch_1">
   <path d="M 0 345.6 
L 460.8 345.6 
L 460.8 0 
L 0 0 
z
" style="fill:#ffffff;"/>
  </g>
  <g id="axes_1">
   <g id="patch_2">
    <path d="M 57.6 307.584 
L 414.72 307.584 
L 414.72 41.472 
L 57.6 41.472 
z
" style="fill:#ffffff;"/>
   </g>
   <g id="matplotlib.axis_1">
    <g id="xtick_1">
     <g id="line2d_1">
      <defs>
       <path d="M 0 0 
L 0 3.5 
" id="m38f3e7fec5" style="stroke:#000000;stroke-width:0.8;"/>
      </defs>
      <g>
       <use style="stroke:#000000;stroke-width:0.8;" x="73.832547" xlink:href="#m38f3e7fec5" y="307.584"/>
      </g>
     </g>
     <g id="text_1">
      <!-- 0 -->
      <defs>
       <path d="M 31.78125 66.40625 
Q 24.171875 66.40625 20.328125 58.90625 
Q 16.5 51.421875 16.5 36.375 
Q 16.5 21.390625 20.328125 13.890625 
Q 24.171875 6.390625 31.78125 6.390625 
Q 39.453125 6.390625 43.28125 13.890625 
Q 47.125 21.390625 47.125 36.375 
Q 47.125 51.421875 43.28125 58.90625 
Q 39.453125 66.40625 31.78125 66.40625 
z
M 31.78125 74.21875 
Q 44.046875 74.21875 50.515625 64.515625 
Q 56.984375 54.828125 56.984375 36.375 
Q 56.984375 17.96875 50.515625 8.265625 
Q 44.046875 -1.421875 31.78125 -1.421875 
Q 19.53125 -1.421875 13.0625 8.265625 
Q 6.59375 17.96875 6.59375 36.375 
Q 6.59375 54.828125 13.0625 64.515625 
Q 19.53125 74.21875 31.78125 74.21875 
z
" id="DejaVuSans-30"/>
      </defs>
      <g transform="translate(70.651297 322.182437)scale(0.1 -0.1)">
       <use xlink:href="#DejaVuSans-30"/>
      </g>
     </g>
    </g>
    <g id="xtick_2">
     <g id="line2d_2">
      <g>
       <use style="stroke:#000000;stroke-width:0.8;" x="118.947994" xlink:href="#m38f3e7fec5" y="307.584"/>
      </g>
     </g>
     <g id="text_2">
      <!-- 250 -->
      <defs>
       <path d="M 19.1875 8.296875 
L 53.609375 8.296875 
L 53.609375 0 
L 7.328125 0 
L 7.328125 8.296875 
Q 12.9375 14.109375 22.625 23.890625 
Q 32.328125 33.6875 34.8125 36.53125 
Q 39.546875 41.84375 41.421875 45.53125 
Q 43.3125 49.21875 43.3125 52.78125 
Q 43.3125 58.59375 39.234375 62.25 
Q 35.15625 65.921875 28.609375 65.921875 
Q 23.96875 65.921875 18.8125 64.3125 
Q 13.671875 62.703125 7.8125 59.421875 
L 7.8125 69.390625 
Q 13.765625 71.78125 18.9375 73 
Q 24.125 74.21875 28.421875 74.21875 
Q 39.75 74.21875 46.484375 68.546875 
Q 53.21875 62.890625 53.21875 53.421875 
Q 53.21875 48.921875 51.53125 44.890625 
Q 49.859375 40.875 45.40625 35.40625 
Q 44.1875 33.984375 37.640625 27.21875 
Q 31.109375 20.453125 19.1875 8.296875 
z
" id="DejaVuSans-32"/>
       <path d="M 10.796875 72.90625 
L 49.515625 72.90625 
L 49.515625 64.59375 
L 19.828125 64.59375 
L 19.828125 46.734375 
Q 21.96875 47.46875 24.109375 47.828125 
Q 26.265625 48.1875 28.421875 48.1875 
Q 40.625 48.1875 47.75 41.5 
Q 54.890625 34.8125 54.890625 23.390625 
Q 54.890625 11.625 47.5625 5.09375 
Q 40.234375 -1.421875 26.90625 -1.421875 
Q 22.3125 -1.421875 17.546875 -0.640625 
Q 12.796875 0.140625 7.71875 1.703125 
L 7.71875 11.625 
Q 12.109375 9.234375 16.796875 8.0625 
Q 21.484375 6.890625 26.703125 6.890625 
Q 35.15625 6.890625 40.078125 11.328125 
Q 45.015625 15.765625 45.015625 23.390625 
Q 45.015625 31 40.078125 35.4375 
Q 35.15625 39.890625 26.703125 39.890625 
Q 22.75 39.890625 18.8125 39.015625 
Q 14.890625 38.140625 10.796875 36.28125 
z
" id="DejaVuSans-35"/>
      </defs>
      <g transform="translate(109.404244 322.182437)scale(0.1 -0.1)">
       <use xlink:href="#DejaVuSans-32"/>
       <use x="63.623047" xlink:href="#DejaVuSans-35"/>
       <use x="127.246094" xlink:href="#DejaVuSans-30"/>
      </g>
     </g>
    </g>
    <g id="xtick_3">
     <g id="line2d_3">
      <g>
       <use style="stroke:#000000;stroke-width:0.8;" x="164.063441" xlink:href="#m38f3e7fec5" y="307.584"/>
      </g>
     </g>
     <g id="text_3">
      <!-- 500 -->
      <g transform="translate(154.519691 322.182437)scale(0.1 -0.1)">
       <use xlink:href="#DejaVuSans-35"/>
       <use x="63.623047" xlink:href="#DejaVuSans-30"/>
       <use x="127.246094" xlink:href="#DejaVuSans-30"/>
      </g>
     </g>
    </g>
    <g id="xtick_4">
     <g id="line2d_4">
      <g>
       <use style="stroke:#000000;stroke-width:0.8;" x="209.178887" xlink:href="#m38f3e7fec5" y="307.584"/>
      </g>
     </g>
     <g id="text_4">
      <!-- 750 -->
      <defs>
       <path d="M 8.203125 72.90625 
L 55.078125 72.90625 
L 55.078125 68.703125 
L 28.609375 0 
L 18.3125 0 
L 43.21875 64.59375 
L 8.203125 64.59375 
z
" id="DejaVuSans-37"/>
      </defs>
      <g transform="translate(199.635137 322.182437)scale(0.1 -0.1)">
       <use xlink:href="#DejaVuSans-37"/>
       <use x="63.623047" xlink:href="#DejaVuSans-35"/>
       <use x="127.246094" xlink:href="#DejaVuSans-30"/>
      </g>
     </g>
    </g>
    <g id="xtick_5">
     <g id="line2d_5">
      <g>
       <use style="stroke:#000000;stroke-width:0.8;" x="254.294334" xlink:href="#m38f3e7fec5" y="307.584"/>
      </g>
     </g>
     <g id="text_5">
      <!-- 1000 -->
      <defs>
       <path d="M 12.40625 8.296875 
L 28.515625 8.296875 
L 28.515625 63.921875 
L 10.984375 60.40625 
L 10.984375 69.390625 
L 28.421875 72.90625 
L 38.28125 72.90625 
L 38.28125 8.296875 
L 54.390625 8.296875 
L 54.390625 0 
L 12.40625 0 
z
" id="DejaVuSans-31"/>
      </defs>
      <g transform="translate(241.569334 322.182437)scale(0.1 -0.1)">
       <use xlink:href="#DejaVuSans-31"/>
       <use x="63.623047" xlink:href="#DejaVuSans-30"/>
       <use x="127.246094" xlink:href="#DejaVuSans-30"/>
       <use x="190.869141" xlink:href="#DejaVuSans-30"/>
      </g>
     </g>
    </g>
    <g id="xtick_6">
     <g id="line2d_6">
      <g>
       <use style="stroke:#000000;stroke-width:0.8;" x="299.409781" xlink:href="#m38f3e7fec5" y="307.584"/>
      </g>
     </g>
     <g id="text_6">
      <!-- 1250 -->
      <g transform="translate(286.684781 322.182437)scale(0.1 -0.1)">
       <use xlink:href="#DejaVuSans-31"/>
       <use x="63.623047" xlink:href="#DejaVuSans-32"/>
       <use x="127.246094" xlink:href="#DejaVuSans-35"/>
       <use x="190.869141" xlink:href="#DejaVuSans-30"/>
      </g>
     </g>
    </g>
    <g id="xtick_7">
     <g id="line2d_7">
      <g>
       <use style="stroke:#000000;stroke-width:0.8;" x="344.525228" xlink:href="#m38f3e7fec5" y="307.584"/>
      </g>
     </g>
     <g id="text_7">
      <!-- 1500 -->
      <g transform="translate(331.800228 322.182437)scale(0.1 -0.1)">
       <use xlink:href="#DejaVuSans-31"/>
       <use x="63.623047" xlink:href="#DejaVuSans-35"/>
       <use x="127.246094" xlink:href="#DejaVuSans-30"/>
       <use x="190.869141" xlink:href="#DejaVuSans-30"/>
      </g>
     </g>
    </g>
    <g id="xtick_8">
     <g id="line2d_8">
      <g>
       <use style="stroke:#000000;stroke-width:0.8;" x="389.640675" xlink:href="#m38f3e7fec5" y="307.584"/>
      </g>
     </g>
     <g id="text_8">
      <!-- 1750 -->
      <g transform="translate(376.915675 322.182437)scale(0.1 -0.1)">
       <use xlink:href="#DejaVuSans-31"/>
       <use x="63.623047" xlink:href="#DejaVuSans-37"/>
       <use x="127.246094" xlink:href="#DejaVuSans-35"/>
       <use x="190.869141" xlink:href="#DejaVuSans-30"/>
      </g>
     </g>
    </g>
    <g id="text_9">
     <!-- t(s) -->
     <defs>
      <path d="M 18.3125 70.21875 
L 18.3125 54.6875 
L 36.8125 54.6875 
L 36.8125 47.703125 
L 18.3125 47.703125 
L 18.3125 18.015625 
Q 18.3125 11.328125 20.140625 9.421875 
Q 21.96875 7.515625 27.59375 7.515625 
L 36.8125 7.515625 
L 36.8125 0 
L 27.59375 0 
Q 17.1875 0 13.234375 3.875 
Q 9.28125 7.765625 9.28125 18.015625 
L 9.28125 47.703125 
L 2.6875 47.703125 
L 2.6875 54.6875 
L 9.28125 54.6875 
L 9.28125 70.21875 
z
" id="DejaVuSans-74"/>
      <path d="M 31 75.875 
Q 24.46875 64.65625 21.28125 53.65625 
Q 18.109375 42.671875 18.109375 31.390625 
Q 18.109375 20.125 21.3125 9.0625 
Q 24.515625 -2 31 -13.1875 
L 23.1875 -13.1875 
Q 15.875 -1.703125 12.234375 9.375 
Q 8.59375 20.453125 8.59375 31.390625 
Q 8.59375 42.28125 12.203125 53.3125 
Q 15.828125 64.359375 23.1875 75.875 
z
" id="DejaVuSans-28"/>
      <path d="M 44.28125 53.078125 
L 44.28125 44.578125 
Q 40.484375 46.53125 36.375 47.5 
Q 32.28125 48.484375 27.875 48.484375 
Q 21.1875 48.484375 17.84375 46.4375 
Q 14.5 44.390625 14.5 40.28125 
Q 14.5 37.15625 16.890625 35.375 
Q 19.28125 33.59375 26.515625 31.984375 
L 29.59375 31.296875 
Q 39.15625 29.25 43.1875 25.515625 
Q 47.21875 21.78125 47.21875 15.09375 
Q 47.21875 7.46875 41.1875 3.015625 
Q 35.15625 -1.421875 24.609375 -1.421875 
Q 20.21875 -1.421875 15.453125 -0.5625 
Q 10.6875 0.296875 5.421875 2 
L 5.421875 11.28125 
Q 10.40625 8.6875 15.234375 7.390625 
Q 20.0625 6.109375 24.8125 6.109375 
Q 31.15625 6.109375 34.5625 8.28125 
Q 37.984375 10.453125 37.984375 14.40625 
Q 37.984375 18.0625 35.515625 20.015625 
Q 33.0625 21.96875 24.703125 23.78125 
L 21.578125 24.515625 
Q 13.234375 26.265625 9.515625 29.90625 
Q 5.8125 33.546875 5.8125 39.890625 
Q 5.8125 47.609375 11.28125 51.796875 
Q 16.75 56 26.8125 56 
Q 31.78125 56 36.171875 55.265625 
Q 40.578125 54.546875 44.28125 53.078125 
z
" id="DejaVuSans-73"/>
      <path d="M 8.015625 75.875 
L 15.828125 75.875 
Q 23.140625 64.359375 26.78125 53.3125 
Q 30.421875 42.28125 30.421875 31.390625 
Q 30.421875 20.453125 26.78125 9.375 
Q 23.140625 -1.703125 15.828125 -13.1875 
L 8.015625 -13.1875 
Q 14.5 -2 17.703125 9.0625 
Q 20.90625 20.125 20.90625 31.390625 
Q 20.90625 42.671875 17.703125 53.65625 
Q 14.5 64.65625 8.015625 75.875 
z
" id="DejaVuSans-29"/>
     </defs>
     <g transform="translate(227.693594 335.860562)scale(0.1 -0.1)">
      <use xlink:href="#DejaVuSans-74"/>
      <use x="39.208984" xlink:href="#DejaVuSans-28"/>
      <use x="78.222656" xlink:href="#DejaVuSans-73"/>
      <use x="130.322266" xlink:href="#DejaVuSans-29"/>
     </g>
    </g>
   </g>
   <g id="matplotlib.axis_2">
    <g id="ytick_1">
     <g id="line2d_9">
      <defs>
       <path d="M 0 0 
L -3.5 0 
" id="mb0c23278e0" style="stroke:#000000;stroke-width:0.8;"/>
      </defs>
      <g>
       <use style="stroke:#000000;stroke-width:0.8;" x="57.6" xlink:href="#mb0c23278e0" y="289.224764"/>
      </g>
     </g>
     <g id="text_10">
      <!-- 0.0 -->
      <defs>
       <path d="M 10.6875 12.40625 
L 21 12.40625 
L 21 0 
L 10.6875 0 
z
" id="DejaVuSans-2e"/>
      </defs>
      <g transform="translate(34.696875 293.023983)scale(0.1 -0.1)">
       <use xlink:href="#DejaVuSans-30"/>
       <use x="63.623047" xlink:href="#DejaVuSans-2e"/>
       <use x="95.410156" xlink:href="#DejaVuSans-30"/>
      </g>
     </g>
    </g>
    <g id="ytick_2">
     <g id="line2d_10">
      <g>
       <use style="stroke:#000000;stroke-width:0.8;" x="57.6" xlink:href="#mb0c23278e0" y="255.803013"/>
      </g>
     </g>
     <g id="text_11">
      <!-- 0.5 -->
      <g transform="translate(34.696875 259.602232)scale(0.1 -0.1)">
       <use xlink:href="#DejaVuSans-30"/>
       <use x="63.623047" xlink:href="#DejaVuSans-2e"/>
       <use x="95.410156" xlink:href="#DejaVuSans-35"/>
      </g>
     </g>
    </g>
    <g id="ytick_3">
     <g id="line2d_11">
      <g>
       <use style="stroke:#000000;stroke-width:0.8;" x="57.6" xlink:href="#mb0c23278e0" y="222.381263"/>
      </g>
     </g>
     <g id="text_12">
      <!-- 1.0 -->
      <g transform="translate(34.696875 226.180481)scale(0.1 -0.1)">
       <use xlink:href="#DejaVuSans-31"/>
       <use x="63.623047" xlink:href="#DejaVuSans-2e"/>
       <use x="95.410156" xlink:href="#DejaVuSans-30"/>
      </g>
     </g>
    </g>
    <g id="ytick_4">
     <g id="line2d_12">
      <g>
       <use style="stroke:#000000;stroke-width:0.8;" x="57.6" xlink:href="#mb0c23278e0" y="188.959512"/>
      </g>
     </g>
     <g id="text_13">
      <!-- 1.5 -->
      <g transform="translate(34.696875 192.758731)scale(0.1 -0.1)">
       <use xlink:href="#DejaVuSans-31"/>
       <use x="63.623047" xlink:href="#DejaVuSans-2e"/>
       <use x="95.410156" xlink:href="#DejaVuSans-35"/>
      </g>
     </g>
    </g>
    <g id="ytick_5">
     <g id="line2d_13">
      <g>
       <use style="stroke:#000000;stroke-width:0.8;" x="57.6" xlink:href="#mb0c23278e0" y="155.537761"/>
      </g>
     </g>
     <g id="text_14">
      <!-- 2.0 -->
      <g transform="translate(34.696875 159.33698)scale(0.1 -0.1)">
       <use xlink:href="#DejaVuSans-32"/>
       <use x="63.623047" xlink:href="#DejaVuSans-2e"/>
       <use x="95.410156" xlink:href="#DejaVuSans-30"/>
      </g>
     </g>
    </g>
    <g id="ytick_6">
     <g id="line2d_14">
      <g>
       <use style="stroke:#000000;stroke-width:0.8;" x="57.6" xlink:href="#mb0c23278e0" y="122.116011"/>
      </g>
     </g>
     <g id="text_15">
      <!-- 2.5 -->
      <g transform="translate(34.696875 125.915229)scale(0.1 -0.1)">
       <use xlink:href="#DejaVuSans-32"/>
       <use x="63.623047" xlink:href="#DejaVuSans-2e"/>
       <use x="95.410156" xlink:href="#DejaVuSans-35"/>
      </g>
     </g>
    </g>
    <g id="ytick_7">
     <g id="line2d_15">
      <g>
       <use style="stroke:#000000;stroke-width:0.8;" x="57.6" xlink:href="#mb0c23278e0" y="88.69426"/>
      </g>
     </g>
     <g id="text_16">
      <!-- 3.0 -->
      <defs>
       <path d="M 40.578125 39.3125 
Q 47.65625 37.796875 51.625 33 
Q 55.609375 28.21875 55.609375 21.1875 
Q 55.609375 10.40625 48.1875 4.484375 
Q 40.765625 -1.421875 27.09375 -1.421875 
Q 22.515625 -1.421875 17.65625 -0.515625 
Q 12.796875 0.390625 7.625 2.203125 
L 7.625 11.71875 
Q 11.71875 9.328125 16.59375 8.109375 
Q 21.484375 6.890625 26.8125 6.890625 
Q 36.078125 6.890625 40.9375 10.546875 
Q 45.796875 14.203125 45.796875 21.1875 
Q 45.796875 27.640625 41.28125 31.265625 
Q 36.765625 34.90625 28.71875 34.90625 
L 20.21875 34.90625 
L 20.21875 43.015625 
L 29.109375 43.015625 
Q 36.375 43.015625 40.234375 45.921875 
Q 44.09375 48.828125 44.09375 54.296875 
Q 44.09375 59.90625 40.109375 62.90625 
Q 36.140625 65.921875 28.71875 65.921875 
Q 24.65625 65.921875 20.015625 65.03125 
Q 15.375 64.15625 9.8125 62.3125 
L 9.8125 71.09375 
Q 15.4375 72.65625 20.34375 73.4375 
Q 25.25 74.21875 29.59375 74.21875 
Q 40.828125 74.21875 47.359375 69.109375 
Q 53.90625 64.015625 53.90625 55.328125 
Q 53.90625 49.265625 50.4375 45.09375 
Q 46.96875 40.921875 40.578125 39.3125 
z
" id="DejaVuSans-33"/>
      </defs>
      <g transform="translate(34.696875 92.493479)scale(0.1 -0.1)">
       <use xlink:href="#DejaVuSans-33"/>
       <use x="63.623047" xlink:href="#DejaVuSans-2e"/>
       <use x="95.410156" xlink:href="#DejaVuSans-30"/>
      </g>
     </g>
    </g>
    <g id="ytick_8">
     <g id="line2d_16">
      <g>
       <use style="stroke:#000000;stroke-width:0.8;" x="57.6" xlink:href="#mb0c23278e0" y="55.272509"/>
      </g>
     </g>
     <g id="text_17">
      <!-- 3.5 -->
      <g transform="translate(34.696875 59.071728)scale(0.1 -0.1)">
       <use xlink:href="#DejaVuSans-33"/>
       <use x="63.623047" xlink:href="#DejaVuSans-2e"/>
       <use x="95.410156" xlink:href="#DejaVuSans-35"/>
      </g>
     </g>
    </g>
    <g id="text_18">
     <!-- Current (nA) -->
     <defs>
      <path d="M 64.40625 67.28125 
L 64.40625 56.890625 
Q 59.421875 61.53125 53.78125 63.8125 
Q 48.140625 66.109375 41.796875 66.109375 
Q 29.296875 66.109375 22.65625 58.46875 
Q 16.015625 50.828125 16.015625 36.375 
Q 16.015625 21.96875 22.65625 14.328125 
Q 29.296875 6.6875 41.796875 6.6875 
Q 48.140625 6.6875 53.78125 8.984375 
Q 59.421875 11.28125 64.40625 15.921875 
L 64.40625 5.609375 
Q 59.234375 2.09375 53.4375 0.328125 
Q 47.65625 -1.421875 41.21875 -1.421875 
Q 24.65625 -1.421875 15.125 8.703125 
Q 5.609375 18.84375 5.609375 36.375 
Q 5.609375 53.953125 15.125 64.078125 
Q 24.65625 74.21875 41.21875 74.21875 
Q 47.75 74.21875 53.53125 72.484375 
Q 59.328125 70.75 64.40625 67.28125 
z
" id="DejaVuSans-43"/>
      <path d="M 8.5 21.578125 
L 8.5 54.6875 
L 17.484375 54.6875 
L 17.484375 21.921875 
Q 17.484375 14.15625 20.5 10.265625 
Q 23.53125 6.390625 29.59375 6.390625 
Q 36.859375 6.390625 41.078125 11.03125 
Q 45.3125 15.671875 45.3125 23.6875 
L 45.3125 54.6875 
L 54.296875 54.6875 
L 54.296875 0 
L 45.3125 0 
L 45.3125 8.40625 
Q 42.046875 3.421875 37.71875 1 
Q 33.40625 -1.421875 27.6875 -1.421875 
Q 18.265625 -1.421875 13.375 4.4375 
Q 8.5 10.296875 8.5 21.578125 
z
M 31.109375 56 
z
" id="DejaVuSans-75"/>
      <path d="M 41.109375 46.296875 
Q 39.59375 47.171875 37.8125 47.578125 
Q 36.03125 48 33.890625 48 
Q 26.265625 48 22.1875 43.046875 
Q 18.109375 38.09375 18.109375 28.8125 
L 18.109375 0 
L 9.078125 0 
L 9.078125 54.6875 
L 18.109375 54.6875 
L 18.109375 46.1875 
Q 20.953125 51.171875 25.484375 53.578125 
Q 30.03125 56 36.53125 56 
Q 37.453125 56 38.578125 55.875 
Q 39.703125 55.765625 41.0625 55.515625 
z
" id="DejaVuSans-72"/>
      <path d="M 56.203125 29.59375 
L 56.203125 25.203125 
L 14.890625 25.203125 
Q 15.484375 15.921875 20.484375 11.0625 
Q 25.484375 6.203125 34.421875 6.203125 
Q 39.59375 6.203125 44.453125 7.46875 
Q 49.3125 8.734375 54.109375 11.28125 
L 54.109375 2.78125 
Q 49.265625 0.734375 44.1875 -0.34375 
Q 39.109375 -1.421875 33.890625 -1.421875 
Q 20.796875 -1.421875 13.15625 6.1875 
Q 5.515625 13.8125 5.515625 26.8125 
Q 5.515625 40.234375 12.765625 48.109375 
Q 20.015625 56 32.328125 56 
Q 43.359375 56 49.78125 48.890625 
Q 56.203125 41.796875 56.203125 29.59375 
z
M 47.21875 32.234375 
Q 47.125 39.59375 43.09375 43.984375 
Q 39.0625 48.390625 32.421875 48.390625 
Q 24.90625 48.390625 20.390625 44.140625 
Q 15.875 39.890625 15.1875 32.171875 
z
" id="DejaVuSans-65"/>
      <path d="M 54.890625 33.015625 
L 54.890625 0 
L 45.90625 0 
L 45.90625 32.71875 
Q 45.90625 40.484375 42.875 44.328125 
Q 39.84375 48.1875 33.796875 48.1875 
Q 26.515625 48.1875 22.3125 43.546875 
Q 18.109375 38.921875 18.109375 30.90625 
L 18.109375 0 
L 9.078125 0 
L 9.078125 54.6875 
L 18.109375 54.6875 
L 18.109375 46.1875 
Q 21.34375 51.125 25.703125 53.5625 
Q 30.078125 56 35.796875 56 
Q 45.21875 56 50.046875 50.171875 
Q 54.890625 44.34375 54.890625 33.015625 
z
" id="DejaVuSans-6e"/>
      <path id="DejaVuSans-20"/>
      <path d="M 34.1875 63.1875 
L 20.796875 26.90625 
L 47.609375 26.90625 
z
M 28.609375 72.90625 
L 39.796875 72.90625 
L 67.578125 0 
L 57.328125 0 
L 50.6875 18.703125 
L 17.828125 18.703125 
L 11.1875 0 
L 0.78125 0 
z
" id="DejaVuSans-41"/>
     </defs>
     <g transform="translate(28.617187 205.581906)rotate(-90)scale(0.1 -0.1)">
      <use xlink:href="#DejaVuSans-43"/>
      <use x="69.824219" xlink:href="#DejaVuSans-75"/>
      <use x="133.203125" xlink:href="#DejaVuSans-72"/>
      <use x="174.300781" xlink:href="#DejaVuSans-72"/>
      <use x="215.382812" xlink:href="#DejaVuSans-65"/>
      <use x="276.90625" xlink:href="#DejaVuSans-6e"/>
      <use x="340.285156" xlink:href="#DejaVuSans-74"/>
      <use x="379.494141" xlink:href="#DejaVuSans-20"/>
      <use x="411.28125" xlink:href="#DejaVuSans-28"/>
      <use x="450.294922" xlink:href="#DejaVuSans-6e"/>
      <use x="513.673828" xlink:href="#DejaVuSans-41"/>
      <use x="582.082031" xlink:href="#DejaVuSans-29"/>
     </g>
    </g>
   </g>
   <g id="line2d_17">
    <path clip-path="url(#p3e1a82d13a)" d="M 73.832727 269.820095 
L 74.193651 271.243862 
L 74.374113 264.131714 
L 74.554574 271.51792 
L 74.735036 271.451077 
L 74.915678 279.839936 
L 75.09614 262.687894 
L 75.276602 272.233146 
L 75.637526 271.638239 
L 75.817987 272.106143 
L 75.998449 272.0393 
L 76.720296 272.747841 
L 76.900758 272.19304 
L 77.08122 273.52991 
L 77.442143 272.360149 
L 77.622605 272.306674 
L 77.803067 272.447045 
L 77.983529 275.227735 
L 78.163991 240.61617 
L 78.344452 272.948371 
L 78.885838 269.178398 
L 79.0663 277.520467 
L 79.246761 275.989751 
L 79.427223 271.257231 
L 79.788147 270.789326 
L 80.14907 270.588796 
L 80.329532 269.666355 
L 80.509994 269.746568 
L 80.690456 269.385613 
L 80.870917 269.967151 
L 81.051379 269.372244 
L 81.231841 269.753252 
L 81.412303 269.612881 
L 81.592765 269.619565 
L 81.773226 270.167682 
L 81.953688 269.639618 
L 82.13415 270.515268 
L 82.314612 269.038027 
L 82.495074 269.71983 
L 82.675535 271.537973 
L 82.855997 271.992509 
L 83.036459 272.019247 
L 83.216921 272.159618 
L 83.397382 272.480467 
L 83.577844 272.400255 
L 83.758306 272.54731 
L 83.938768 273.262536 
L 84.11923 272.928318 
L 84.299691 273.028584 
L 84.480153 272.65426 
L 84.660615 272.828053 
L 84.841077 272.680997 
L 85.021539 272.694366 
L 85.202 272.861475 
L 85.743386 271.832085 
L 85.923847 271.67166 
L 86.104309 271.110175 
L 86.645695 271.257231 
L 87.18708 270.321422 
L 87.728465 270.388265 
L 87.908927 269.425719 
L 88.089389 270.100838 
L 88.269851 270.234525 
L 88.450313 270.85617 
L 88.630774 270.388265 
L 88.811236 270.615533 
L 88.991698 270.475162 
L 89.17234 270.147629 
L 89.352802 271.00991 
L 89.533264 270.943066 
L 89.713725 271.029963 
L 89.894187 270.542005 
L 90.074649 271.558027 
L 90.435573 272.019247 
L 90.616034 271.544658 
L 90.796496 271.464446 
L 90.976958 271.805347 
L 91.15742 271.805347 
L 91.337882 271.999194 
L 91.518343 271.745188 
L 91.698805 271.758557 
L 91.879267 271.477814 
L 92.24019 271.484499 
L 92.420652 271.377549 
L 92.601114 271.664976 
L 92.781576 270.695745 
L 92.962038 270.501899 
L 93.142499 270.90296 
L 93.322961 270.976488 
L 93.503423 271.477814 
L 93.683885 270.775958 
L 93.864347 270.836117 
L 94.044808 270.501899 
L 94.22527 270.722483 
L 94.405732 270.602164 
L 94.586194 270.729167 
L 94.766656 270.508584 
L 95.308041 271.083438 
L 96.029888 272.360149 
L 96.21035 273.182324 
L 96.390812 273.168955 
L 96.751735 273.295958 
L 97.112659 272.894897 
L 97.293121 271.791979 
L 97.473582 272.694366 
L 97.654044 272.012562 
L 98.014968 272.072721 
L 98.375891 271.698398 
L 98.556353 271.718451 
L 98.736815 271.130228 
L 99.097738 271.57808 
L 99.2782 271.531289 
L 99.458662 271.651607 
L 99.639124 271.544658 
L 99.819586 271.664976 
L 100.000047 271.324074 
L 100.360971 271.711767 
L 100.541433 271.558027 
L 100.721895 271.878875 
L 101.082818 271.604817 
L 101.26328 271.805347 
L 101.443742 271.73182 
L 101.624203 271.250546 
L 101.804665 271.872191 
L 101.985127 270.70243 
L 102.165589 270.74922 
L 102.346051 270.39495 
L 102.526512 269.452456 
L 102.887436 270.094154 
L 103.067898 270.849485 
L 103.428821 269.933729 
L 103.609283 270.74922 
L 103.789745 270.267947 
L 103.970207 271.016594 
L 104.150668 271.21044 
L 104.33113 270.39495 
L 104.511592 270.949751 
L 104.872516 270.435056 
L 105.052977 270.782642 
L 105.594363 270.214472 
L 105.774825 270.862854 
L 105.955286 271.965772 
L 106.135748 272.012562 
L 106.31621 272.186355 
L 106.496672 272.199724 
L 106.677134 272.447045 
L 107.038057 272.166302 
L 107.218519 272.447045 
L 107.398981 271.685029 
L 107.579442 272.179671 
L 107.940366 272.186355 
L 108.120828 272.440361 
L 108.30129 271.812032 
L 108.481751 272.647576 
L 108.662213 272.052668 
L 109.203599 272.052668 
L 109.38406 271.845454 
L 109.564522 272.213093 
L 109.744984 271.497867 
L 110.105907 271.93235 
L 110.466831 271.444393 
L 111.008216 271.999194 
L 111.188678 271.544658 
L 111.549602 271.878875 
L 111.910525 271.644923 
L 112.271449 270.909645 
L 112.632372 270.648955 
L 112.812834 270.715798 
L 112.993296 270.495215 
L 113.173758 269.920361 
L 113.534681 270.02731 
L 113.715143 270.923013 
L 113.895605 270.24121 
L 114.43699 270.735851 
L 114.617452 270.85617 
L 114.797914 270.642271 
L 114.978376 271.243862 
L 115.158838 270.85617 
L 115.339299 271.029963 
L 115.519761 271.016594 
L 115.880685 271.611501 
L 116.061146 271.110175 
L 116.42207 271.524605 
L 116.602532 271.417655 
L 116.963455 271.771926 
L 117.143917 271.67166 
L 117.324379 271.959088 
L 117.504841 271.664976 
L 117.685303 272.106143 
L 117.865764 271.945719 
L 118.226688 272.507204 
L 118.587611 272.373517 
L 118.768073 271.985825 
L 118.948535 272.072721 
L 119.128997 271.945719 
L 119.309459 272.948371 
L 119.670382 272.199724 
L 119.850844 272.467098 
L 120.031306 272.413623 
L 120.211768 272.660944 
L 120.392229 272.587416 
L 120.753153 271.858822 
L 120.933615 272.286621 
L 121.114077 272.172987 
L 121.294538 272.614154 
L 121.475 271.678345 
L 121.835924 271.852138 
L 122.016385 271.751873 
L 122.196847 272.025931 
L 122.738233 271.598133 
L 123.46008 272.186355 
L 123.821003 271.93235 
L 124.001465 271.785294 
L 124.181927 271.370865 
L 124.362389 271.718451 
L 124.54285 275.461687 
L 124.723312 252.019671 
L 124.903774 279.091289 
L 125.084236 284.645984 
L 125.445159 271.21044 
L 125.625621 272.400255 
L 125.806083 271.003225 
L 125.986545 272.273252 
L 126.167007 270.602164 
L 126.347468 271.832085 
L 126.52793 270.789326 
L 126.708392 271.591448 
L 127.069315 271.417655 
L 127.249777 272.754525 
L 127.430239 270.628902 
L 127.610701 271.023279 
L 127.791163 272.019247 
L 127.971624 276.658186 
L 128.152086 269.726515 
L 128.332548 274.519194 
L 128.51301 271.444393 
L 128.873933 280.635374 
L 129.054395 272.774578 
L 129.234857 277.146143 
L 129.415319 276.310599 
L 129.595781 276.217019 
L 129.776242 275.495109 
L 129.956704 276.156859 
L 130.317628 274.819989 
L 130.859013 273.844074 
L 131.039475 274.385507 
L 131.219937 274.499141 
L 131.400398 274.311979 
L 131.58086 274.412244 
L 131.761322 273.663597 
L 131.941784 274.318663 
L 132.122246 272.808 
L 132.302707 273.890865 
L 132.483169 274.178292 
L 132.663631 274.057973 
L 132.844093 273.703703 
L 133.024554 273.757178 
L 133.385478 273.630175 
L 133.56594 273.99113 
L 133.746402 274.031236 
L 133.926863 274.318663 
L 134.107325 274.111448 
L 134.287787 274.225082 
L 134.468249 273.743809 
L 135.009634 273.168955 
L 135.190096 272.828053 
L 135.370558 272.921634 
L 136.092405 270.816064 
L 136.272867 271.170334 
L 136.453328 271.183703 
L 136.63379 271.537973 
L 136.814252 271.350812 
L 136.994714 271.537973 
L 137.175356 271.050016 
L 137.355818 271.825401 
L 137.897203 271.136912 
L 138.077665 271.344127 
L 138.438589 272.052668 
L 138.61905 272.152934 
L 138.799512 272.607469 
L 138.979974 272.440361 
L 139.160616 272.08609 
L 139.521901 272.400255 
L 139.702543 271.872191 
L 139.883005 271.965772 
L 140.243928 272.279936 
L 140.604852 272.567363 
L 140.785314 272.0393 
L 140.965775 272.553995 
L 141.146237 272.440361 
L 141.687623 272.881528 
L 141.868084 272.714419 
L 142.048546 272.894897 
L 142.229008 272.801316 
L 142.40947 273.108796 
L 142.589932 272.868159 
L 143.311779 273.429645 
L 143.49224 273.289273 
L 143.853164 273.844074 
L 144.033626 273.556647 
L 144.575011 274.231767 
L 144.755473 273.690334 
L 144.935935 273.877496 
L 145.116397 273.743809 
L 145.296858 273.295958 
L 145.658143 273.68365 
L 145.838785 273.409592 
L 146.019427 273.750493 
L 146.199889 273.803968 
L 146.380351 273.583385 
L 146.560813 274.151554 
L 146.741275 273.209061 
L 146.921736 273.636859 
L 147.102198 273.516541 
L 147.28266 274.14487 
L 147.463122 273.543279 
L 147.824045 274.25182 
L 148.004507 273.516541 
L 148.184969 273.850759 
L 148.545892 273.509857 
L 148.726354 273.483119 
L 149.087278 273.041952 
L 149.26774 273.322695 
L 149.448201 272.928318 
L 149.628663 273.008531 
L 150.170048 272.580732 
L 150.35051 272.600785 
L 150.530972 272.152934 
L 150.711434 272.286621 
L 150.891896 271.678345 
L 151.072357 272.066037 
L 151.433281 270.468477 
L 151.613743 271.51792 
L 151.794205 271.491183 
L 151.974666 271.999194 
L 152.33559 271.337443 
L 152.516052 271.36418 
L 152.877156 271.156966 
L 153.057618 271.611501 
L 153.238079 273.235798 
L 153.418722 273.342748 
L 153.779645 272.935003 
L 153.960287 272.935003 
L 154.140749 273.135533 
L 154.321391 271.404286 
L 154.501853 272.219777 
L 154.682315 271.945719 
L 154.862777 272.487151 
L 155.043239 271.965772 
L 155.404162 272.226462 
L 155.765086 272.433676 
L 155.945548 272.299989 
L 157.20878 272.794631 
L 157.389242 272.801316 
L 157.569704 272.627523 
L 157.930627 272.91495 
L 158.291551 272.727788 
L 158.472013 272.948371 
L 158.652474 272.741156 
L 158.832936 272.988477 
L 159.19386 272.834737 
L 159.374321 273.175639 
L 159.735245 273.209061 
L 159.915707 273.349432 
L 160.096169 273.242483 
L 160.27663 273.83739 
L 160.457092 273.977761 
L 160.637554 273.549963 
L 160.818016 273.94434 
L 160.998478 273.94434 
L 161.178939 273.810653 
L 161.359401 274.031236 
L 161.539863 273.790599 
L 161.720325 273.342748 
L 161.900786 273.676966 
L 162.26171 273.536594 
L 162.622634 273.275905 
L 162.803095 273.656912 
L 162.983557 273.148902 
L 163.164019 273.73044 
L 163.344481 273.670281 
L 163.524943 272.928318 
L 163.705404 273.543279 
L 163.885866 273.37617 
L 164.066328 273.463066 
L 164.24679 272.828053 
L 164.607713 273.429645 
L 164.788175 272.848106 
L 164.968637 272.787947 
L 165.32956 272.513889 
L 165.870946 272.132881 
L 166.051408 271.150281 
L 166.231869 271.898928 
L 166.592793 271.618186 
L 166.953717 271.604817 
L 167.31464 272.286621 
L 167.495102 271.838769 
L 167.675564 271.698398 
L 167.856025 271.999194 
L 168.216949 271.611501 
L 168.758334 272.279936 
L 168.938796 272.440361 
L 169.119258 272.340095 
L 169.660643 273.309326 
L 170.382491 274.305294 
L 170.562952 274.25182 
L 170.923876 275.060626 
L 171.104338 274.532562 
L 171.284799 274.639512 
L 171.465261 274.525878 
L 171.645723 274.619459 
L 171.826185 274.14487 
L 172.187108 274.164923 
L 172.548032 274.532562 
L 172.728494 273.783915 
L 172.908956 274.071342 
L 173.089417 274.017867 
L 173.450341 273.563332 
L 173.630803 273.570016 
L 173.811264 271.417655 
L 174.172188 271.537973 
L 174.35265 271.263915 
L 174.713573 271.638239 
L 174.894035 271.377549 
L 175.074497 272.079406 
L 175.435421 272.400255 
L 175.615882 272.313358 
L 175.796344 272.420308 
L 176.157268 273.015215 
L 176.518191 272.841422 
L 177.059577 273.463066 
L 177.600962 273.556647 
L 177.781424 273.83739 
L 177.961886 273.503172 
L 178.142347 274.258504 
L 178.503271 273.469751 
L 178.683733 273.42296 
L 178.864195 273.496488 
L 179.044656 273.850759 
L 179.40558 273.94434 
L 179.586042 273.603438 
L 179.766503 273.890865 
L 179.946965 273.449698 
L 180.127427 273.757178 
L 180.307889 273.215745 
L 180.488351 273.295958 
L 181.210198 272.567363 
L 181.39066 272.079406 
L 181.571121 272.433676 
L 181.751583 272.139565 
L 181.932045 272.186355 
L 182.292968 271.330759 
L 182.834354 272.172987 
L 183.014816 271.751873 
L 183.195277 272.052668 
L 183.375739 271.177019 
L 183.556201 272.340095 
L 183.917125 272.721103 
L 184.278048 271.771926 
L 184.45851 272.08609 
L 184.638972 272.132881 
L 184.819434 272.467098 
L 184.999895 272.293305 
L 185.721742 272.273252 
L 185.902204 272.894897 
L 186.082666 272.333411 
L 186.44359 272.513889 
L 186.624051 272.874844 
L 186.804513 272.76121 
L 186.984975 272.413623 
L 187.165437 272.680997 
L 187.706822 272.553995 
L 187.887284 272.707735 
L 188.428669 272.76121 
L 188.789593 273.048637 
L 188.970055 272.928318 
L 189.330978 273.249167 
L 189.51144 273.951024 
L 189.691902 273.5767 
L 189.872364 274.024552 
L 190.052825 273.897549 
L 190.233287 274.565984 
L 190.413749 273.770546 
L 190.594211 274.532562 
L 190.774672 274.151554 
L 190.955134 274.799936 
L 191.135596 274.699671 
L 191.316238 274.465719 
L 191.4967 274.017867 
L 191.677162 273.88418 
L 191.857624 273.904233 
L 192.038086 273.456382 
L 192.218547 273.663597 
L 192.399009 273.168955 
L 192.579471 273.275905 
L 192.759933 273.235798 
L 193.120856 272.587416 
L 193.662242 272.366833 
L 193.842703 271.771926 
L 194.023165 271.945719 
L 194.203627 271.551342 
L 194.384089 271.638239 
L 194.564551 271.912297 
L 194.745012 271.297337 
L 194.925474 271.531289 
L 195.105936 272.139565 
L 195.466859 271.344127 
L 195.827783 272.306674 
L 196.008425 272.326727 
L 196.188887 271.872191 
L 196.369349 272.253199 
L 196.549811 272.132881 
L 196.730272 271.785294 
L 196.910734 271.999194 
L 197.091196 271.370865 
L 197.271658 272.326727 
L 197.45212 272.126196 
L 197.632581 272.413623 
L 197.993685 271.872191 
L 198.535071 272.460414 
L 198.715713 272.320042 
L 199.076637 272.426992 
L 199.257098 272.894897 
L 199.618022 273.209061 
L 199.798484 273.055321 
L 200.159407 273.142218 
L 200.520331 273.369485 
L 200.700793 273.028584 
L 200.881254 273.503172 
L 201.061716 273.095427 
L 201.242178 274.238451 
L 201.42264 273.122164 
L 201.783563 262.955268 
L 201.964025 275.421581 
L 202.144487 275.100732 
L 202.324949 271.845454 
L 202.505411 274.118133 
L 202.685872 272.467098 
L 202.866334 272.333411 
L 203.046796 273.710387 
L 203.227258 276.531183 
L 203.407719 270.328106 
L 203.588181 274.078027 
L 203.768643 274.813305 
L 204.129567 273.255851 
L 204.310028 274.572668 
L 204.49049 272.667629 
L 204.851414 274.773199 
L 205.031876 273.757178 
L 205.392799 270.455109 
L 205.573261 269.840149 
L 205.934184 271.156966 
L 206.114646 266.050122 
L 206.295108 271.330759 
L 206.47557 271.170334 
L 206.656032 271.705082 
L 206.836493 271.076753 
L 207.016955 271.310706 
L 207.377879 270.822748 
L 207.558341 271.404286 
L 207.738802 270.916329 
L 207.919264 269.419034 
L 208.099726 270.969804 
L 208.280188 270.622218 
L 208.641111 270.448424 
L 208.821573 269.693093 
L 209.002035 269.947098 
L 209.182497 270.000573 
L 209.362958 270.789326 
L 209.54342 269.505931 
L 209.723882 269.10487 
L 209.904344 269.619565 
L 210.084806 269.505931 
L 210.265267 269.599512 
L 210.445729 268.583491 
L 210.626191 256.805666 
L 210.806653 223.85182 
L 210.987115 295.488 
L 211.167576 280.160785 
L 211.5285 272.640891 
L 211.708962 273.389538 
L 211.889423 271.477814 
L 212.069885 271.812032 
L 212.250347 270.207788 
L 212.430809 271.283968 
L 212.611271 269.699777 
L 212.791732 270.715798 
L 213.152656 271.310706 
L 213.333118 270.24121 
L 213.51358 268.015321 
L 213.694041 251.498292 
L 213.874503 267.868265 
L 214.054965 269.251926 
L 214.235427 272.480467 
L 214.415889 270.501899 
L 214.59635 270.160997 
L 214.776812 270.087469 
L 214.957274 270.301369 
L 215.137736 270.147629 
L 215.318197 270.44174 
L 215.498659 270.44174 
L 215.859583 269.880255 
L 216.040045 280.528424 
L 216.220506 270.602164 
L 216.400968 272.440361 
L 216.58143 269.298716 
L 216.761892 270.555374 
L 216.942354 269.41235 
L 217.303277 269.185082 
L 217.483739 270.040679 
L 217.664201 268.877602 
L 217.844662 269.459141 
L 218.025124 269.559406 
L 218.205586 269.893623 
L 218.386048 269.017973 
L 218.56651 269.693093 
L 218.746971 269.071448 
L 218.927433 269.332138 
L 219.107895 268.817443 
L 219.468819 269.084817 
L 219.64928 268.269326 
L 220.010204 268.088849 
L 220.190666 268.035374 
L 220.551589 266.364286 
L 220.912513 267.059459 
L 221.092975 266.377655 
L 221.273436 266.58487 
L 221.453898 265.802801 
L 221.63436 266.497973 
L 221.814822 266.17044 
L 222.175745 267.213199 
L 222.356207 267.012668 
L 222.717131 268.088849 
L 222.897593 262.447257 
L 223.078054 270.214472 
L 223.258516 272.834737 
L 223.61944 268.95113 
L 223.799901 269.318769 
L 223.980363 268.991236 
L 224.160825 269.452456 
L 224.341287 269.251926 
L 224.521749 269.592828 
L 224.70221 269.325454 
L 224.882672 269.345507 
L 225.063134 269.231873 
L 225.243596 269.318769 
L 225.424058 268.90434 
L 225.604519 268.884286 
L 225.784981 268.64365 
L 225.965443 268.677072 
L 226.145905 268.155692 
L 226.326366 268.128955 
L 226.506828 267.714525 
L 226.68729 267.640997 
L 226.867752 261.738716 
L 227.048214 266.84556 
L 227.228675 267.694472 
L 227.409137 267.139671 
L 227.589599 267.567469 
L 227.950523 267.674419 
L 228.130984 267.320149 
L 228.311446 267.360255 
L 228.491908 267.587523 
L 228.67237 267.467204 
L 229.033293 266.778716 
L 229.213755 267.881634 
L 229.394217 266.925772 
L 229.574679 267.801422 
L 229.75514 267.179777 
L 229.935602 268.008637 
L 230.116064 267.066143 
L 230.296526 268.436435 
L 230.476988 268.456488 
L 230.657449 266.411077 
L 230.837911 268.496594 
L 231.018373 268.583491 
L 231.198835 266.745294 
L 231.379297 266.965878 
L 231.559758 266.84556 
L 231.74022 267.781369 
L 231.920682 267.333517 
L 232.101144 267.253305 
L 232.281605 267.547416 
L 232.462067 268.095533 
L 232.642529 267.928424 
L 232.822991 268.175745 
L 233.003453 267.360255 
L 233.183914 267.701156 
L 233.364376 267.607576 
L 233.7253 267.87495 
L 233.905762 267.420414 
L 234.266685 267.527363 
L 234.447147 268.329485 
L 234.988532 267.567469 
L 235.349456 267.393676 
L 235.529918 268.048743 
L 235.710379 267.908371 
L 236.071303 266.558133 
L 236.251765 267.246621 
L 236.432227 267.30678 
L 236.612688 267.66105 
L 236.79315 267.30678 
L 236.973612 267.266674 
L 237.334536 266.872297 
L 237.514997 267.727894 
L 237.695459 267.620944 
L 237.875921 266.544764 
L 238.056383 267.360255 
L 238.597768 267.50731 
L 238.77823 266.618292 
L 239.139153 267.534048 
L 239.319615 267.15304 
L 239.680539 267.587523 
L 239.861001 267.453836 
L 240.041462 267.714525 
L 240.221924 267.580838 
L 240.402386 267.794737 
L 240.582848 267.681103 
L 240.763309 284.111236 
L 241.124233 265.368318 
L 241.304695 266.451183 
L 241.485157 265.735958 
L 241.665618 266.939141 
L 241.84608 266.491289 
L 242.026542 267.594207 
L 242.207004 267.032721 
L 242.387466 267.413729 
L 242.567927 267.179777 
L 243.109313 267.567469 
L 243.289775 267.393676 
L 243.470236 267.741263 
L 243.650698 267.681103 
L 243.83116 268.38296 
L 244.011622 268.015321 
L 244.192083 268.717178 
L 244.553007 268.456488 
L 244.733469 269.238557 
L 244.913931 269.004605 
L 245.094392 269.21182 
L 245.274854 268.38296 
L 245.455316 268.650334 
L 245.635778 268.610228 
L 245.996701 268.977867 
L 246.177163 268.69044 
L 246.538087 268.763968 
L 246.718548 268.670387 
L 246.89901 268.449804 
L 247.079472 268.750599 
L 247.259934 268.356223 
L 247.440396 268.416382 
L 247.801319 268.068796 
L 247.981781 268.242589 
L 248.162243 267.707841 
L 248.342705 267.848212 
L 248.523166 267.687788 
L 248.88409 267.821475 
L 249.064552 267.701156 
L 250.147322 267.908371 
L 250.327784 267.600891 
L 250.86917 267.640997 
L 251.049631 267.259989 
L 251.410555 267.527363 
L 251.591017 268.322801 
L 252.132402 266.992615 
L 252.312864 267.988584 
L 252.493326 267.400361 
L 252.673787 267.761316 
L 252.854249 266.852244 
L 253.215173 267.106249 
L 253.756558 266.698504 
L 253.93702 267.580838 
L 254.117482 267.233252 
L 254.297944 267.366939 
L 254.478405 267.106249 
L 254.658867 267.493942 
L 254.839329 267.500626 
L 255.019791 267.92174 
L 255.200252 267.768 
L 255.561176 268.035374 
L 256.102561 268.984552 
L 256.283023 268.84418 
L 256.463485 269.345507 
L 256.643947 269.479194 
L 256.824409 269.338822 
L 257.365794 270.461793 
L 257.546256 270.435056 
L 257.726718 275.441634 
L 257.907179 263.777443 
L 258.087641 269.586143 
L 258.809488 267.119618 
L 258.98995 266.9993 
L 259.170412 267.059459 
L 259.350874 266.671767 
L 259.531335 266.798769 
L 259.711797 266.350918 
L 259.892259 266.638345 
L 260.253183 266.544764 
L 260.433644 266.096912 
L 260.614106 266.304127 
L 260.794568 266.083544 
L 261.335953 267.620944 
L 261.877339 268.583491 
L 262.0578 268.476541 
L 262.418724 269.124923 
L 262.779648 268.750599 
L 262.960109 269.078133 
L 263.140571 269.171714 
L 263.321033 269.779989 
L 263.681956 268.79739 
L 263.862418 269.459141 
L 264.04288 268.957814 
L 264.223342 268.897655 
L 264.584265 268.977867 
L 264.764727 268.496594 
L 264.945189 268.703809 
L 265.125651 268.730546 
L 265.306113 269.292032 
L 265.486574 268.342854 
L 265.667036 268.209167 
L 266.02796 268.356223 
L 266.569345 267.453836 
L 266.930269 267.61426 
L 267.11073 267.534048 
L 267.291192 267.293411 
L 267.471654 266.785401 
L 267.652116 266.872297 
L 267.832578 267.099565 
L 268.013039 266.772032 
L 268.193501 265.756011 
L 268.373963 266.745294 
L 268.554425 266.411077 
L 268.734887 265.448531 
L 269.456734 268.703809 
L 270.359043 271.618186 
L 270.539504 271.497867 
L 270.719966 270.662324 
L 271.08089 268.215851 
L 271.441813 266.190493 
L 271.622275 265.227947 
L 271.802737 53.568 
L 271.983199 264.673146 
L 272.163661 264.873676 
L 272.885508 270.862854 
L 273.246431 272.627523 
L 273.426893 272.707735 
L 274.509664 265.441846 
L 274.690126 264.753358 
L 275.051049 265.548796 
L 275.953358 271.304021 
L 276.13382 271.243862 
L 276.314282 271.905613 
L 276.494743 271.898928 
L 276.675205 271.297337 
L 276.855667 269.392297 
L 277.397052 267.099565 
L 277.757976 265.522058 
L 277.938438 265.675798 
L 278.1189 266.103597 
L 278.299361 265.923119 
L 278.479823 266.163756 
L 278.660285 267.513995 
L 279.021208 268.79739 
L 279.20167 269.512615 
L 279.562594 269.927045 
L 279.923517 271.16365 
L 280.103979 271.511236 
L 280.464903 270.775958 
L 280.645365 270.963119 
L 281.18675 267.714525 
L 281.367212 268.249273 
L 281.728135 267.032721 
L 281.908597 266.651714 
L 282.089059 266.885666 
L 282.269521 266.624976 
L 282.449982 266.671767 
L 282.630444 266.12365 
L 282.810906 266.945825 
L 282.991368 266.010016 
L 283.17183 267.654366 
L 284.615524 270.682377 
L 284.795986 270.374897 
L 284.976447 271.544658 
L 285.337371 270.368212 
L 285.517833 270.294684 
L 285.698295 269.271979 
L 285.878756 269.178398 
L 286.23968 267.941793 
L 286.600604 266.838875 
L 286.781065 266.685135 
L 287.141989 265.81617 
L 287.322451 265.66243 
L 287.502912 266.17044 
L 287.683374 266.257337 
L 287.863836 267.901687 
L 288.044298 268.082164 
L 288.405221 269.927045 
L 288.585683 270.521952 
L 288.766145 271.805347 
L 288.946607 272.08609 
L 289.127069 272.092775 
L 289.30753 271.658292 
L 289.668454 269.572775 
L 290.029377 267.193146 
L 290.209839 266.838875 
L 290.570763 265.361634 
L 290.931686 265.55548 
L 291.112148 268.389645 
L 291.29261 267.286727 
L 291.653534 268.817443 
L 291.833995 269.318769 
L 292.014457 269.479194 
L 292.555843 271.377549 
L 292.916766 270.281316 
L 293.097228 270.528637 
L 293.27769 270.448424 
L 293.458151 270.227841 
L 294.721384 267.039406 
L 294.901846 267.132987 
L 295.082308 266.43113 
L 295.262769 266.878981 
L 295.443231 266.304127 
L 295.984616 266.658398 
L 297.789234 271.243862 
L 297.969696 271.330759 
L 298.150158 271.170334 
L 298.511081 270.040679 
L 298.872005 267.386992 
L 299.052467 267.15304 
L 299.232929 266.558133 
L 299.41339 266.611607 
L 299.593852 266.297443 
L 299.774314 266.618292 
L 299.954776 267.213199 
L 300.496161 270.455109 
L 300.676623 270.936382 
L 300.857085 270.996541 
L 301.218008 271.644923 
L 301.39847 271.417655 
L 301.759394 268.824127 
L 302.120317 267.19983 
L 302.300779 267.119618 
L 302.661703 266.197178 
L 302.842164 266.464552 
L 303.022626 267.266674 
L 303.203088 267.540732 
L 303.38355 268.362907 
L 303.564012 267.908371 
L 303.744473 268.082164 
L 304.285859 266.885666 
L 304.46632 267.293411 
L 304.646782 266.852244 
L 304.827244 267.072828 
L 305.007706 266.69182 
L 305.188168 266.578186 
L 307.173247 271.484499 
L 307.534171 270.802695 
L 307.895094 271.257231 
L 308.075556 270.555374 
L 308.43648 268.249273 
L 308.977865 266.765347 
L 309.158327 266.645029 
L 309.338789 266.096912 
L 309.519251 266.010016 
L 309.699712 266.210546 
L 310.421559 268.175745 
L 310.602021 268.483225 
L 310.782483 269.271979 
L 310.962945 269.298716 
L 311.143407 269.82678 
L 311.323868 269.713146 
L 311.684792 269.733199 
L 311.865254 269.539353 
L 312.045716 269.87357 
L 312.226177 269.733199 
L 312.587101 269.973836 
L 312.767563 269.612881 
L 312.948024 270.18105 
L 313.308948 270.013942 
L 313.48941 270.207788 
L 313.669872 269.947098 
L 313.850333 268.971183 
L 314.030795 269.191767 
L 314.211257 269.124923 
L 314.572181 268.195798 
L 315.113566 267.333517 
L 315.654951 266.571501 
L 315.835413 266.618292 
L 316.015875 266.264021 
L 316.918184 268.824127 
L 317.279107 269.913676 
L 317.640031 270.54869 
L 317.820493 270.415003 
L 318.000955 271.123544 
L 318.181416 270.735851 
L 318.54234 271.003225 
L 318.903263 270.013942 
L 319.625111 267.768 
L 319.805572 267.834844 
L 319.986034 267.687788 
L 320.166496 266.785401 
L 320.346958 266.885666 
L 320.707881 266.297443 
L 320.888343 266.137019 
L 321.068805 266.43113 
L 322.151576 269.933729 
L 322.332037 269.860202 
L 322.512499 270.488531 
L 322.692961 270.662324 
L 322.873423 270.368212 
L 323.053885 270.44174 
L 323.234346 271.36418 
L 323.414808 271.297337 
L 323.59527 270.388265 
L 323.775732 270.562058 
L 323.956194 269.612881 
L 324.136655 269.900308 
L 324.858502 267.46052 
L 325.038964 267.534048 
L 325.219426 267.253305 
L 325.399888 266.765347 
L 325.58035 266.919088 
L 325.760811 266.391024 
L 325.941273 267.019353 
L 326.302197 266.745294 
L 326.66312 267.587523 
L 327.204506 268.723862 
L 327.384967 268.603544 
L 327.565429 268.683756 
L 328.287276 269.539353 
L 328.6482 269.10487 
L 329.009124 269.927045 
L 329.189585 270.648955 
L 329.370047 269.993889 
L 329.550509 270.321422 
L 329.911433 269.779989 
L 330.272356 270.247894 
L 330.452818 269.953782 
L 330.63328 269.87357 
L 330.813741 269.532668 
L 330.994203 269.840149 
L 331.174665 269.485878 
L 331.355127 269.439088 
L 331.896512 267.988584 
L 332.076974 268.222536 
L 332.257436 267.988584 
L 332.437898 268.396329 
L 332.798821 267.139671 
L 332.979283 267.413729 
L 333.159745 267.259989 
L 333.340206 267.727894 
L 333.520668 267.734578 
L 333.70113 267.928424 
L 334.242515 267.066143 
L 334.422977 267.500626 
L 334.603439 267.273358 
L 334.783901 267.727894 
L 334.964363 267.754631 
L 335.866672 269.312085 
L 336.047133 268.850865 
L 336.227595 269.459141 
L 336.408057 268.830812 
L 336.588519 269.82678 
L 336.76898 270.007257 
L 336.949442 269.860202 
L 337.129904 270.24121 
L 337.310366 269.345507 
L 337.490828 270.354844 
L 337.671289 270.475162 
L 337.851751 271.090122 
L 338.212675 269.893623 
L 338.393137 270.02731 
L 338.573598 269.419034 
L 338.75406 269.398981 
L 338.934522 269.05808 
L 339.114984 268.971183 
L 339.295445 269.031342 
L 339.475907 268.897655 
L 339.656369 268.543385 
L 339.836831 268.596859 
L 340.017293 268.102218 
L 340.197754 268.476541 
L 340.919602 268.235905 
L 341.100063 267.881634 
L 341.460987 267.888318 
L 341.821911 268.483225 
L 342.182834 267.580838 
L 342.363296 268.175745 
L 342.543758 267.901687 
L 342.724219 268.222536 
L 343.085143 267.968531 
L 343.265605 268.369592 
L 343.446067 267.955162 
L 343.626528 268.416382 
L 343.80699 268.469857 
L 343.987452 269.124923 
L 344.167914 268.289379 
L 344.709299 269.25861 
L 344.889761 268.516647 
L 345.250684 268.917708 
L 345.611608 268.356223 
L 345.79207 268.837496 
L 345.972532 268.436435 
L 346.333455 268.302748 
L 346.513917 268.5367 
L 346.694379 268.269326 
L 346.874841 268.610228 
L 347.235764 268.496594 
L 347.416226 268.757284 
L 347.957611 268.69044 
L 348.318535 268.730546 
L 348.679458 268.95113 
L 348.85992 268.890971 
L 349.040382 268.677072 
L 349.401306 268.977867 
L 349.581767 268.817443 
L 349.762229 268.937761 
L 349.942691 268.750599 
L 350.123153 268.817443 
L 350.484076 268.763968 
L 350.845 268.890971 
L 351.205923 268.977867 
L 351.386385 269.271979 
L 351.566847 268.991236 
L 351.747309 269.265294 
L 351.927771 269.278663 
L 352.108232 269.118239 
L 352.288694 269.278663 
L 352.469156 269.218504 
L 352.649618 269.332138 
L 352.83008 269.024658 
L 353.371465 269.713146 
L 353.551927 270.361528 
L 353.91285 268.64365 
L 354.093312 268.79739 
L 354.273774 268.683756 
L 354.454236 269.679724 
L 354.634697 268.857549 
L 354.995621 268.90434 
L 355.176083 268.623597 
L 355.356545 268.663703 
L 355.537006 268.316117 
L 355.717468 269.706462 
L 355.89793 269.352191 
L 356.078392 269.686408 
L 356.439315 269.312085 
L 356.619777 269.967151 
L 356.800239 268.683756 
L 356.980701 270.247894 
L 357.161162 269.67304 
L 357.341624 270.435056 
L 357.702548 269.218504 
L 357.88301 269.666355 
L 358.424395 269.144976 
L 358.604857 269.05808 
L 359.146242 269.231873 
L 359.507166 269.15166 
L 359.687627 268.991236 
L 359.868089 269.15166 
L 360.048551 269.031342 
L 360.229013 269.165029 
L 360.589936 268.556753 
L 360.770398 268.870918 
L 360.95086 268.717178 
L 361.311784 269.325454 
L 361.492245 268.817443 
L 361.853169 269.292032 
L 362.033631 269.305401 
L 362.214092 269.15166 
L 362.394554 269.505931 
L 362.575016 269.25861 
L 363.116401 269.271979 
L 363.296863 269.419034 
L 363.477325 269.144976 
L 363.657787 269.318769 
L 363.838249 269.198451 
L 364.01871 269.385613 
L 364.199172 269.05808 
L 364.379634 269.144976 
L 364.560096 269.445772 
L 364.921019 268.971183 
L 365.101481 269.205135 
L 365.281943 269.205135 
L 365.462405 268.964499 
L 366.00379 269.044711 
L 366.184252 268.884286 
L 366.364714 268.362907 
L 366.545175 269.031342 
L 366.725637 269.265294 
L 366.906099 268.99792 
L 367.267023 268.944446 
L 367.447484 269.278663 
L 367.627946 269.017973 
L 367.808408 269.492562 
L 367.98887 269.038027 
L 368.169331 269.265294 
L 368.349793 269.031342 
L 368.530255 269.425719 
L 368.710717 269.459141 
L 369.07164 269.378928 
L 369.252102 268.777337 
L 369.613026 269.071448 
L 369.793488 268.984552 
L 369.973949 269.05808 
L 370.154411 268.64365 
L 370.334873 268.95113 
L 371.05672 268.362907 
L 371.417644 267.928424 
L 371.778567 268.202483 
L 371.959029 268.128955 
L 372.139491 267.259989 
L 372.500414 268.149008 
L 372.680876 268.429751 
L 373.0418 268.088849 
L 373.402723 268.550069 
L 373.583185 268.396329 
L 374.12457 268.737231 
L 374.305032 269.078133 
L 374.485494 268.663703 
L 374.665956 269.191767 
L 375.026879 268.897655 
L 375.207341 269.158345 
L 375.929188 269.325454 
L 376.10965 270.127576 
L 376.290112 269.158345 
L 376.651035 269.425719 
L 377.011959 269.699777 
L 377.192421 269.659671 
L 377.553344 269.840149 
L 377.733806 270.094154 
L 377.914268 270.722483 
L 378.09473 270.809379 
L 378.275192 270.020626 
L 378.455653 270.147629 
L 378.636115 270.114207 
L 378.816577 270.448424 
L 379.177501 270.154313 
L 379.357962 270.354844 
L 379.538424 269.846833 
L 379.718886 269.853517 
L 380.079809 269.479194 
L 380.260271 269.619565 
L 380.621195 269.459141 
L 380.801657 269.318769 
L 380.982118 268.817443 
L 381.16258 268.870918 
L 381.343042 268.630281 
L 381.523504 268.877602 
L 381.884427 268.169061 
L 382.064889 268.22922 
L 382.245351 267.761316 
L 382.425813 268.38296 
L 382.606455 267.707841 
L 382.786917 267.681103 
L 382.967379 267.473889 
L 383.14784 268.33617 
L 383.508764 268.042058 
L 383.869687 266.645029 
L 384.230611 268.128955 
L 384.411073 268.128955 
L 384.771996 267.280042 
L 384.952458 268.222536 
L 385.313382 268.710493 
L 385.493844 268.22922 
L 385.674305 268.396329 
L 385.854948 267.681103 
L 386.396333 268.616912 
L 386.757257 268.309432 
L 386.937718 268.189114 
L 387.11818 268.590175 
L 387.479104 268.737231 
L 387.659565 268.824127 
L 387.840027 269.078133 
L 388.020489 268.991236 
L 388.381413 269.21182 
L 388.561874 269.051395 
L 388.922798 269.171714 
L 389.10326 269.465825 
L 389.283722 269.298716 
L 389.464183 269.56609 
L 389.825107 268.944446 
L 390.186031 269.231873 
L 390.546954 269.305401 
L 390.727416 269.038027 
L 391.268801 270.140944 
L 391.810187 269.138292 
L 392.17111 269.813411 
L 392.351572 269.5193 
L 392.532034 269.512615 
L 392.712496 269.726515 
L 392.892957 269.592828 
L 393.073419 269.893623 
L 393.253881 269.419034 
L 393.434343 269.606196 
L 393.614804 269.198451 
L 394.15619 269.646302 
L 394.697575 269.017973 
L 394.878037 269.452456 
L 395.058499 268.911024 
L 395.419422 269.251926 
L 395.780346 268.64365 
L 395.960808 268.957814 
L 396.321731 268.957814 
L 396.502193 269.726515 
L 396.863117 268.897655 
L 397.22404 269.352191 
L 397.584964 269.392297 
L 397.945887 269.846833 
L 398.126349 270.341475 
L 398.306811 269.559406 
L 398.487273 269.833464 
L 398.487273 269.833464 
" style="fill:none;stroke:#1f77b4;stroke-linecap:square;stroke-width:1.5;"/>
   </g>
   <g id="patch_3">
    <path d="M 57.6 307.584 
L 57.6 41.472 
" style="fill:none;stroke:#000000;stroke-linecap:square;stroke-linejoin:miter;stroke-width:0.8;"/>
   </g>
   <g id="patch_4">
    <path d="M 414.72 307.584 
L 414.72 41.472 
" style="fill:none;stroke:#000000;stroke-linecap:square;stroke-linejoin:miter;stroke-width:0.8;"/>
   </g>
   <g id="patch_5">
    <path d="M 57.6 307.584 
L 414.72 307.584 
" style="fill:none;stroke:#000000;stroke-linecap:square;stroke-linejoin:miter;stroke-width:0.8;"/>
   </g>
   <g id="patch_6">
    <path d="M 57.6 41.472 
L 414.72 41.472 
" style="fill:none;stroke:#000000;stroke-linecap:square;stroke-linejoin:miter;stroke-width:0.8;"/>
   </g>
   <g id="text_19">
    <!-- Current with source voltage 1000.0 mV -->
    <defs>
     <path d="M 4.203125 54.6875 
L 13.1875 54.6875 
L 24.421875 12.015625 
L 35.59375 54.6875 
L 46.1875 54.6875 
L 57.421875 12.015625 
L 68.609375 54.6875 
L 77.59375 54.6875 
L 63.28125 0 
L 52.6875 0 
L 40.921875 44.828125 
L 29.109375 0 
L 18.5 0 
z
" id="DejaVuSans-77"/>
     <path d="M 9.421875 54.6875 
L 18.40625 54.6875 
L 18.40625 0 
L 9.421875 0 
z
M 9.421875 75.984375 
L 18.40625 75.984375 
L 18.40625 64.59375 
L 9.421875 64.59375 
z
" id="DejaVuSans-69"/>
     <path d="M 54.890625 33.015625 
L 54.890625 0 
L 45.90625 0 
L 45.90625 32.71875 
Q 45.90625 40.484375 42.875 44.328125 
Q 39.84375 48.1875 33.796875 48.1875 
Q 26.515625 48.1875 22.3125 43.546875 
Q 18.109375 38.921875 18.109375 30.90625 
L 18.109375 0 
L 9.078125 0 
L 9.078125 75.984375 
L 18.109375 75.984375 
L 18.109375 46.1875 
Q 21.34375 51.125 25.703125 53.5625 
Q 30.078125 56 35.796875 56 
Q 45.21875 56 50.046875 50.171875 
Q 54.890625 44.34375 54.890625 33.015625 
z
" id="DejaVuSans-68"/>
     <path d="M 30.609375 48.390625 
Q 23.390625 48.390625 19.1875 42.75 
Q 14.984375 37.109375 14.984375 27.296875 
Q 14.984375 17.484375 19.15625 11.84375 
Q 23.34375 6.203125 30.609375 6.203125 
Q 37.796875 6.203125 41.984375 11.859375 
Q 46.1875 17.53125 46.1875 27.296875 
Q 46.1875 37.015625 41.984375 42.703125 
Q 37.796875 48.390625 30.609375 48.390625 
z
M 30.609375 56 
Q 42.328125 56 49.015625 48.375 
Q 55.71875 40.765625 55.71875 27.296875 
Q 55.71875 13.875 49.015625 6.21875 
Q 42.328125 -1.421875 30.609375 -1.421875 
Q 18.84375 -1.421875 12.171875 6.21875 
Q 5.515625 13.875 5.515625 27.296875 
Q 5.515625 40.765625 12.171875 48.375 
Q 18.84375 56 30.609375 56 
z
" id="DejaVuSans-6f"/>
     <path d="M 48.78125 52.59375 
L 48.78125 44.1875 
Q 44.96875 46.296875 41.140625 47.34375 
Q 37.3125 48.390625 33.40625 48.390625 
Q 24.65625 48.390625 19.8125 42.84375 
Q 14.984375 37.3125 14.984375 27.296875 
Q 14.984375 17.28125 19.8125 11.734375 
Q 24.65625 6.203125 33.40625 6.203125 
Q 37.3125 6.203125 41.140625 7.25 
Q 44.96875 8.296875 48.78125 10.40625 
L 48.78125 2.09375 
Q 45.015625 0.34375 40.984375 -0.53125 
Q 36.96875 -1.421875 32.421875 -1.421875 
Q 20.0625 -1.421875 12.78125 6.34375 
Q 5.515625 14.109375 5.515625 27.296875 
Q 5.515625 40.671875 12.859375 48.328125 
Q 20.21875 56 33.015625 56 
Q 37.15625 56 41.109375 55.140625 
Q 45.0625 54.296875 48.78125 52.59375 
z
" id="DejaVuSans-63"/>
     <path d="M 2.984375 54.6875 
L 12.5 54.6875 
L 29.59375 8.796875 
L 46.6875 54.6875 
L 56.203125 54.6875 
L 35.6875 0 
L 23.484375 0 
z
" id="DejaVuSans-76"/>
     <path d="M 9.421875 75.984375 
L 18.40625 75.984375 
L 18.40625 0 
L 9.421875 0 
z
" id="DejaVuSans-6c"/>
     <path d="M 34.28125 27.484375 
Q 23.390625 27.484375 19.1875 25 
Q 14.984375 22.515625 14.984375 16.5 
Q 14.984375 11.71875 18.140625 8.90625 
Q 21.296875 6.109375 26.703125 6.109375 
Q 34.1875 6.109375 38.703125 11.40625 
Q 43.21875 16.703125 43.21875 25.484375 
L 43.21875 27.484375 
z
M 52.203125 31.203125 
L 52.203125 0 
L 43.21875 0 
L 43.21875 8.296875 
Q 40.140625 3.328125 35.546875 0.953125 
Q 30.953125 -1.421875 24.3125 -1.421875 
Q 15.921875 -1.421875 10.953125 3.296875 
Q 6 8.015625 6 15.921875 
Q 6 25.140625 12.171875 29.828125 
Q 18.359375 34.515625 30.609375 34.515625 
L 43.21875 34.515625 
L 43.21875 35.40625 
Q 43.21875 41.609375 39.140625 45 
Q 35.0625 48.390625 27.6875 48.390625 
Q 23 48.390625 18.546875 47.265625 
Q 14.109375 46.140625 10.015625 43.890625 
L 10.015625 52.203125 
Q 14.9375 54.109375 19.578125 55.046875 
Q 24.21875 56 28.609375 56 
Q 40.484375 56 46.34375 49.84375 
Q 52.203125 43.703125 52.203125 31.203125 
z
" id="DejaVuSans-61"/>
     <path d="M 45.40625 27.984375 
Q 45.40625 37.75 41.375 43.109375 
Q 37.359375 48.484375 30.078125 48.484375 
Q 22.859375 48.484375 18.828125 43.109375 
Q 14.796875 37.75 14.796875 27.984375 
Q 14.796875 18.265625 18.828125 12.890625 
Q 22.859375 7.515625 30.078125 7.515625 
Q 37.359375 7.515625 41.375 12.890625 
Q 45.40625 18.265625 45.40625 27.984375 
z
M 54.390625 6.78125 
Q 54.390625 -7.171875 48.1875 -13.984375 
Q 42 -20.796875 29.203125 -20.796875 
Q 24.46875 -20.796875 20.265625 -20.09375 
Q 16.0625 -19.390625 12.109375 -17.921875 
L 12.109375 -9.1875 
Q 16.0625 -11.328125 19.921875 -12.34375 
Q 23.78125 -13.375 27.78125 -13.375 
Q 36.625 -13.375 41.015625 -8.765625 
Q 45.40625 -4.15625 45.40625 5.171875 
L 45.40625 9.625 
Q 42.625 4.78125 38.28125 2.390625 
Q 33.9375 0 27.875 0 
Q 17.828125 0 11.671875 7.65625 
Q 5.515625 15.328125 5.515625 27.984375 
Q 5.515625 40.671875 11.671875 48.328125 
Q 17.828125 56 27.875 56 
Q 33.9375 56 38.28125 53.609375 
Q 42.625 51.21875 45.40625 46.390625 
L 45.40625 54.6875 
L 54.390625 54.6875 
z
" id="DejaVuSans-67"/>
     <path d="M 52 44.1875 
Q 55.375 50.25 60.0625 53.125 
Q 64.75 56 71.09375 56 
Q 79.640625 56 84.28125 50.015625 
Q 88.921875 44.046875 88.921875 33.015625 
L 88.921875 0 
L 79.890625 0 
L 79.890625 32.71875 
Q 79.890625 40.578125 77.09375 44.375 
Q 74.3125 48.1875 68.609375 48.1875 
Q 61.625 48.1875 57.5625 43.546875 
Q 53.515625 38.921875 53.515625 30.90625 
L 53.515625 0 
L 44.484375 0 
L 44.484375 32.71875 
Q 44.484375 40.625 41.703125 44.40625 
Q 38.921875 48.1875 33.109375 48.1875 
Q 26.21875 48.1875 22.15625 43.53125 
Q 18.109375 38.875 18.109375 30.90625 
L 18.109375 0 
L 9.078125 0 
L 9.078125 54.6875 
L 18.109375 54.6875 
L 18.109375 46.1875 
Q 21.1875 51.21875 25.484375 53.609375 
Q 29.78125 56 35.6875 56 
Q 41.65625 56 45.828125 52.96875 
Q 50 49.953125 52 44.1875 
z
" id="DejaVuSans-6d"/>
     <path d="M 28.609375 0 
L 0.78125 72.90625 
L 11.078125 72.90625 
L 34.1875 11.53125 
L 57.328125 72.90625 
L 67.578125 72.90625 
L 39.796875 0 
z
" id="DejaVuSans-56"/>
    </defs>
    <g transform="translate(117.710625 35.472)scale(0.12 -0.12)">
     <use xlink:href="#DejaVuSans-43"/>
     <use x="69.824219" xlink:href="#DejaVuSans-75"/>
     <use x="133.203125" xlink:href="#DejaVuSans-72"/>
     <use x="174.300781" xlink:href="#DejaVuSans-72"/>
     <use x="215.382812" xlink:href="#DejaVuSans-65"/>
     <use x="276.90625" xlink:href="#DejaVuSans-6e"/>
     <use x="340.285156" xlink:href="#DejaVuSans-74"/>
     <use x="379.494141" xlink:href="#DejaVuSans-20"/>
     <use x="411.28125" xlink:href="#DejaVuSans-77"/>
     <use x="493.068359" xlink:href="#DejaVuSans-69"/>
     <use x="520.851562" xlink:href="#DejaVuSans-74"/>
     <use x="560.060547" xlink:href="#DejaVuSans-68"/>
     <use x="623.439453" xlink:href="#DejaVuSans-20"/>
     <use x="655.226562" xlink:href="#DejaVuSans-73"/>
     <use x="707.326172" xlink:href="#DejaVuSans-6f"/>
     <use x="768.507812" xlink:href="#DejaVuSans-75"/>
     <use x="831.886719" xlink:href="#DejaVuSans-72"/>
     <use x="872.96875" xlink:href="#DejaVuSans-63"/>
     <use x="927.949219" xlink:href="#DejaVuSans-65"/>
     <use x="989.472656" xlink:href="#DejaVuSans-20"/>
     <use x="1021.259766" xlink:href="#DejaVuSans-76"/>
     <use x="1080.439453" xlink:href="#DejaVuSans-6f"/>
     <use x="1141.621094" xlink:href="#DejaVuSans-6c"/>
     <use x="1169.404297" xlink:href="#DejaVuSans-74"/>
     <use x="1208.613281" xlink:href="#DejaVuSans-61"/>
     <use x="1269.892578" xlink:href="#DejaVuSans-67"/>
     <use x="1333.369141" xlink:href="#DejaVuSans-65"/>
     <use x="1394.892578" xlink:href="#DejaVuSans-20"/>
     <use x="1426.679688" xlink:href="#DejaVuSans-31"/>
     <use x="1490.302734" xlink:href="#DejaVuSans-30"/>
     <use x="1553.925781" xlink:href="#DejaVuSans-30"/>
     <use x="1617.548828" xlink:href="#DejaVuSans-30"/>
     <use x="1681.171875" xlink:href="#DejaVuSans-2e"/>
     <use x="1712.958984" xlink:href="#DejaVuSans-30"/>
     <use x="1776.582031" xlink:href="#DejaVuSans-20"/>
     <use x="1808.369141" xlink:href="#DejaVuSans-6d"/>
     <use x="1905.78125" xlink:href="#DejaVuSans-56"/>
    </g>
   </g>
  </g>
 </g>
 <defs>
  <clipPath id="p3e1a82d13a">
   <rect height="266.112" width="357.12" x="57.6" y="41.472"/>
  </clipPath>
 </defs>
</svg>
