<?xml version="1.0" encoding="utf-8" standalone="no"?>
<!DOCTYPE svg PUBLIC "-//W3C//DTD SVG 1.1//EN"
  "http://www.w3.org/Graphics/SVG/1.1/DTD/svg11.dtd">
<!-- Created with matplotlib (http://matplotlib.org/) -->
<svg height="345pt" version="1.1" viewBox="0 0 460 345" width="460pt" xmlns="http://www.w3.org/2000/svg" xmlns:xlink="http://www.w3.org/1999/xlink">
 <defs>
  <style type="text/css">
*{stroke-linecap:butt;stroke-linejoin:round;}
  </style>
 </defs>
 <g id="figure_1">
  <g id="patch_1">
   <path d="M 0 345.6 
L 460.8 345.6 
L 460.8 0 
L 0 0 
z
" style="fill:#ffffff;"/>
  </g>
  <g id="axes_1">
   <g id="patch_2">
    <path d="M 57.6 307.584 
L 414.72 307.584 
L 414.72 41.472 
L 57.6 41.472 
z
" style="fill:#ffffff;"/>
   </g>
   <g id="matplotlib.axis_1">
    <g id="xtick_1">
     <g id="line2d_1">
      <defs>
       <path d="M 0 0 
L 0 3.5 
" id="m53a647863f" style="stroke:#000000;stroke-width:0.8;"/>
      </defs>
      <g>
       <use style="stroke:#000000;stroke-width:0.8;" x="73.832727" xlink:href="#m53a647863f" y="307.584"/>
      </g>
     </g>
     <g id="text_1">
      <!-- 0 -->
      <defs>
       <path d="M 31.78125 66.40625 
Q 24.171875 66.40625 20.328125 58.90625 
Q 16.5 51.421875 16.5 36.375 
Q 16.5 21.390625 20.328125 13.890625 
Q 24.171875 6.390625 31.78125 6.390625 
Q 39.453125 6.390625 43.28125 13.890625 
Q 47.125 21.390625 47.125 36.375 
Q 47.125 51.421875 43.28125 58.90625 
Q 39.453125 66.40625 31.78125 66.40625 
z
M 31.78125 74.21875 
Q 44.046875 74.21875 50.515625 64.515625 
Q 56.984375 54.828125 56.984375 36.375 
Q 56.984375 17.96875 50.515625 8.265625 
Q 44.046875 -1.421875 31.78125 -1.421875 
Q 19.53125 -1.421875 13.0625 8.265625 
Q 6.59375 17.96875 6.59375 36.375 
Q 6.59375 54.828125 13.0625 64.515625 
Q 19.53125 74.21875 31.78125 74.21875 
z
" id="DejaVuSans-30"/>
      </defs>
      <g transform="translate(70.651477 322.182437)scale(0.1 -0.1)">
       <use xlink:href="#DejaVuSans-30"/>
      </g>
     </g>
    </g>
    <g id="xtick_2">
     <g id="line2d_2">
      <g>
       <use style="stroke:#000000;stroke-width:0.8;" x="128.026996" xlink:href="#m53a647863f" y="307.584"/>
      </g>
     </g>
     <g id="text_2">
      <!-- 100 -->
      <defs>
       <path d="M 12.40625 8.296875 
L 28.515625 8.296875 
L 28.515625 63.921875 
L 10.984375 60.40625 
L 10.984375 69.390625 
L 28.421875 72.90625 
L 38.28125 72.90625 
L 38.28125 8.296875 
L 54.390625 8.296875 
L 54.390625 0 
L 12.40625 0 
z
" id="DejaVuSans-31"/>
      </defs>
      <g transform="translate(118.483246 322.182437)scale(0.1 -0.1)">
       <use xlink:href="#DejaVuSans-31"/>
       <use x="63.623047" xlink:href="#DejaVuSans-30"/>
       <use x="127.246094" xlink:href="#DejaVuSans-30"/>
      </g>
     </g>
    </g>
    <g id="xtick_3">
     <g id="line2d_3">
      <g>
       <use style="stroke:#000000;stroke-width:0.8;" x="182.221264" xlink:href="#m53a647863f" y="307.584"/>
      </g>
     </g>
     <g id="text_3">
      <!-- 200 -->
      <defs>
       <path d="M 19.1875 8.296875 
L 53.609375 8.296875 
L 53.609375 0 
L 7.328125 0 
L 7.328125 8.296875 
Q 12.9375 14.109375 22.625 23.890625 
Q 32.328125 33.6875 34.8125 36.53125 
Q 39.546875 41.84375 41.421875 45.53125 
Q 43.3125 49.21875 43.3125 52.78125 
Q 43.3125 58.59375 39.234375 62.25 
Q 35.15625 65.921875 28.609375 65.921875 
Q 23.96875 65.921875 18.8125 64.3125 
Q 13.671875 62.703125 7.8125 59.421875 
L 7.8125 69.390625 
Q 13.765625 71.78125 18.9375 73 
Q 24.125 74.21875 28.421875 74.21875 
Q 39.75 74.21875 46.484375 68.546875 
Q 53.21875 62.890625 53.21875 53.421875 
Q 53.21875 48.921875 51.53125 44.890625 
Q 49.859375 40.875 45.40625 35.40625 
Q 44.1875 33.984375 37.640625 27.21875 
Q 31.109375 20.453125 19.1875 8.296875 
z
" id="DejaVuSans-32"/>
      </defs>
      <g transform="translate(172.677514 322.182437)scale(0.1 -0.1)">
       <use xlink:href="#DejaVuSans-32"/>
       <use x="63.623047" xlink:href="#DejaVuSans-30"/>
       <use x="127.246094" xlink:href="#DejaVuSans-30"/>
      </g>
     </g>
    </g>
    <g id="xtick_4">
     <g id="line2d_4">
      <g>
       <use style="stroke:#000000;stroke-width:0.8;" x="236.415533" xlink:href="#m53a647863f" y="307.584"/>
      </g>
     </g>
     <g id="text_4">
      <!-- 300 -->
      <defs>
       <path d="M 40.578125 39.3125 
Q 47.65625 37.796875 51.625 33 
Q 55.609375 28.21875 55.609375 21.1875 
Q 55.609375 10.40625 48.1875 4.484375 
Q 40.765625 -1.421875 27.09375 -1.421875 
Q 22.515625 -1.421875 17.65625 -0.515625 
Q 12.796875 0.390625 7.625 2.203125 
L 7.625 11.71875 
Q 11.71875 9.328125 16.59375 8.109375 
Q 21.484375 6.890625 26.8125 6.890625 
Q 36.078125 6.890625 40.9375 10.546875 
Q 45.796875 14.203125 45.796875 21.1875 
Q 45.796875 27.640625 41.28125 31.265625 
Q 36.765625 34.90625 28.71875 34.90625 
L 20.21875 34.90625 
L 20.21875 43.015625 
L 29.109375 43.015625 
Q 36.375 43.015625 40.234375 45.921875 
Q 44.09375 48.828125 44.09375 54.296875 
Q 44.09375 59.90625 40.109375 62.90625 
Q 36.140625 65.921875 28.71875 65.921875 
Q 24.65625 65.921875 20.015625 65.03125 
Q 15.375 64.15625 9.8125 62.3125 
L 9.8125 71.09375 
Q 15.4375 72.65625 20.34375 73.4375 
Q 25.25 74.21875 29.59375 74.21875 
Q 40.828125 74.21875 47.359375 69.109375 
Q 53.90625 64.015625 53.90625 55.328125 
Q 53.90625 49.265625 50.4375 45.09375 
Q 46.96875 40.921875 40.578125 39.3125 
z
" id="DejaVuSans-33"/>
      </defs>
      <g transform="translate(226.871783 322.182437)scale(0.1 -0.1)">
       <use xlink:href="#DejaVuSans-33"/>
       <use x="63.623047" xlink:href="#DejaVuSans-30"/>
       <use x="127.246094" xlink:href="#DejaVuSans-30"/>
      </g>
     </g>
    </g>
    <g id="xtick_5">
     <g id="line2d_5">
      <g>
       <use style="stroke:#000000;stroke-width:0.8;" x="290.609802" xlink:href="#m53a647863f" y="307.584"/>
      </g>
     </g>
     <g id="text_5">
      <!-- 400 -->
      <defs>
       <path d="M 37.796875 64.3125 
L 12.890625 25.390625 
L 37.796875 25.390625 
z
M 35.203125 72.90625 
L 47.609375 72.90625 
L 47.609375 25.390625 
L 58.015625 25.390625 
L 58.015625 17.1875 
L 47.609375 17.1875 
L 47.609375 0 
L 37.796875 0 
L 37.796875 17.1875 
L 4.890625 17.1875 
L 4.890625 26.703125 
z
" id="DejaVuSans-34"/>
      </defs>
      <g transform="translate(281.066052 322.182437)scale(0.1 -0.1)">
       <use xlink:href="#DejaVuSans-34"/>
       <use x="63.623047" xlink:href="#DejaVuSans-30"/>
       <use x="127.246094" xlink:href="#DejaVuSans-30"/>
      </g>
     </g>
    </g>
    <g id="xtick_6">
     <g id="line2d_6">
      <g>
       <use style="stroke:#000000;stroke-width:0.8;" x="344.80407" xlink:href="#m53a647863f" y="307.584"/>
      </g>
     </g>
     <g id="text_6">
      <!-- 500 -->
      <defs>
       <path d="M 10.796875 72.90625 
L 49.515625 72.90625 
L 49.515625 64.59375 
L 19.828125 64.59375 
L 19.828125 46.734375 
Q 21.96875 47.46875 24.109375 47.828125 
Q 26.265625 48.1875 28.421875 48.1875 
Q 40.625 48.1875 47.75 41.5 
Q 54.890625 34.8125 54.890625 23.390625 
Q 54.890625 11.625 47.5625 5.09375 
Q 40.234375 -1.421875 26.90625 -1.421875 
Q 22.3125 -1.421875 17.546875 -0.640625 
Q 12.796875 0.140625 7.71875 1.703125 
L 7.71875 11.625 
Q 12.109375 9.234375 16.796875 8.0625 
Q 21.484375 6.890625 26.703125 6.890625 
Q 35.15625 6.890625 40.078125 11.328125 
Q 45.015625 15.765625 45.015625 23.390625 
Q 45.015625 31 40.078125 35.4375 
Q 35.15625 39.890625 26.703125 39.890625 
Q 22.75 39.890625 18.8125 39.015625 
Q 14.890625 38.140625 10.796875 36.28125 
z
" id="DejaVuSans-35"/>
      </defs>
      <g transform="translate(335.26032 322.182437)scale(0.1 -0.1)">
       <use xlink:href="#DejaVuSans-35"/>
       <use x="63.623047" xlink:href="#DejaVuSans-30"/>
       <use x="127.246094" xlink:href="#DejaVuSans-30"/>
      </g>
     </g>
    </g>
    <g id="xtick_7">
     <g id="line2d_7">
      <g>
       <use style="stroke:#000000;stroke-width:0.8;" x="398.998339" xlink:href="#m53a647863f" y="307.584"/>
      </g>
     </g>
     <g id="text_7">
      <!-- 600 -->
      <defs>
       <path d="M 33.015625 40.375 
Q 26.375 40.375 22.484375 35.828125 
Q 18.609375 31.296875 18.609375 23.390625 
Q 18.609375 15.53125 22.484375 10.953125 
Q 26.375 6.390625 33.015625 6.390625 
Q 39.65625 6.390625 43.53125 10.953125 
Q 47.40625 15.53125 47.40625 23.390625 
Q 47.40625 31.296875 43.53125 35.828125 
Q 39.65625 40.375 33.015625 40.375 
z
M 52.59375 71.296875 
L 52.59375 62.3125 
Q 48.875 64.0625 45.09375 64.984375 
Q 41.3125 65.921875 37.59375 65.921875 
Q 27.828125 65.921875 22.671875 59.328125 
Q 17.53125 52.734375 16.796875 39.40625 
Q 19.671875 43.65625 24.015625 45.921875 
Q 28.375 48.1875 33.59375 48.1875 
Q 44.578125 48.1875 50.953125 41.515625 
Q 57.328125 34.859375 57.328125 23.390625 
Q 57.328125 12.15625 50.6875 5.359375 
Q 44.046875 -1.421875 33.015625 -1.421875 
Q 20.359375 -1.421875 13.671875 8.265625 
Q 6.984375 17.96875 6.984375 36.375 
Q 6.984375 53.65625 15.1875 63.9375 
Q 23.390625 74.21875 37.203125 74.21875 
Q 40.921875 74.21875 44.703125 73.484375 
Q 48.484375 72.75 52.59375 71.296875 
z
" id="DejaVuSans-36"/>
      </defs>
      <g transform="translate(389.454589 322.182437)scale(0.1 -0.1)">
       <use xlink:href="#DejaVuSans-36"/>
       <use x="63.623047" xlink:href="#DejaVuSans-30"/>
       <use x="127.246094" xlink:href="#DejaVuSans-30"/>
      </g>
     </g>
    </g>
    <g id="text_8">
     <!-- t(s) -->
     <defs>
      <path d="M 18.3125 70.21875 
L 18.3125 54.6875 
L 36.8125 54.6875 
L 36.8125 47.703125 
L 18.3125 47.703125 
L 18.3125 18.015625 
Q 18.3125 11.328125 20.140625 9.421875 
Q 21.96875 7.515625 27.59375 7.515625 
L 36.8125 7.515625 
L 36.8125 0 
L 27.59375 0 
Q 17.1875 0 13.234375 3.875 
Q 9.28125 7.765625 9.28125 18.015625 
L 9.28125 47.703125 
L 2.6875 47.703125 
L 2.6875 54.6875 
L 9.28125 54.6875 
L 9.28125 70.21875 
z
" id="DejaVuSans-74"/>
      <path d="M 31 75.875 
Q 24.46875 64.65625 21.28125 53.65625 
Q 18.109375 42.671875 18.109375 31.390625 
Q 18.109375 20.125 21.3125 9.0625 
Q 24.515625 -2 31 -13.1875 
L 23.1875 -13.1875 
Q 15.875 -1.703125 12.234375 9.375 
Q 8.59375 20.453125 8.59375 31.390625 
Q 8.59375 42.28125 12.203125 53.3125 
Q 15.828125 64.359375 23.1875 75.875 
z
" id="DejaVuSans-28"/>
      <path d="M 44.28125 53.078125 
L 44.28125 44.578125 
Q 40.484375 46.53125 36.375 47.5 
Q 32.28125 48.484375 27.875 48.484375 
Q 21.1875 48.484375 17.84375 46.4375 
Q 14.5 44.390625 14.5 40.28125 
Q 14.5 37.15625 16.890625 35.375 
Q 19.28125 33.59375 26.515625 31.984375 
L 29.59375 31.296875 
Q 39.15625 29.25 43.1875 25.515625 
Q 47.21875 21.78125 47.21875 15.09375 
Q 47.21875 7.46875 41.1875 3.015625 
Q 35.15625 -1.421875 24.609375 -1.421875 
Q 20.21875 -1.421875 15.453125 -0.5625 
Q 10.6875 0.296875 5.421875 2 
L 5.421875 11.28125 
Q 10.40625 8.6875 15.234375 7.390625 
Q 20.0625 6.109375 24.8125 6.109375 
Q 31.15625 6.109375 34.5625 8.28125 
Q 37.984375 10.453125 37.984375 14.40625 
Q 37.984375 18.0625 35.515625 20.015625 
Q 33.0625 21.96875 24.703125 23.78125 
L 21.578125 24.515625 
Q 13.234375 26.265625 9.515625 29.90625 
Q 5.8125 33.546875 5.8125 39.890625 
Q 5.8125 47.609375 11.28125 51.796875 
Q 16.75 56 26.8125 56 
Q 31.78125 56 36.171875 55.265625 
Q 40.578125 54.546875 44.28125 53.078125 
z
" id="DejaVuSans-73"/>
      <path d="M 8.015625 75.875 
L 15.828125 75.875 
Q 23.140625 64.359375 26.78125 53.3125 
Q 30.421875 42.28125 30.421875 31.390625 
Q 30.421875 20.453125 26.78125 9.375 
Q 23.140625 -1.703125 15.828125 -13.1875 
L 8.015625 -13.1875 
Q 14.5 -2 17.703125 9.0625 
Q 20.90625 20.125 20.90625 31.390625 
Q 20.90625 42.671875 17.703125 53.65625 
Q 14.5 64.65625 8.015625 75.875 
z
" id="DejaVuSans-29"/>
     </defs>
     <g transform="translate(227.693594 335.860562)scale(0.1 -0.1)">
      <use xlink:href="#DejaVuSans-74"/>
      <use x="39.208984" xlink:href="#DejaVuSans-28"/>
      <use x="78.222656" xlink:href="#DejaVuSans-73"/>
      <use x="130.322266" xlink:href="#DejaVuSans-29"/>
     </g>
    </g>
   </g>
   <g id="matplotlib.axis_2">
    <g id="ytick_1">
     <g id="line2d_8">
      <defs>
       <path d="M 0 0 
L -3.5 0 
" id="m6eab2e30b7" style="stroke:#000000;stroke-width:0.8;"/>
      </defs>
      <g>
       <use style="stroke:#000000;stroke-width:0.8;" x="57.6" xlink:href="#m6eab2e30b7" y="279.36"/>
      </g>
     </g>
     <g id="text_9">
      <!-- −0.000075 -->
      <defs>
       <path d="M 10.59375 35.5 
L 73.1875 35.5 
L 73.1875 27.203125 
L 10.59375 27.203125 
z
" id="DejaVuSans-2212"/>
       <path d="M 10.6875 12.40625 
L 21 12.40625 
L 21 0 
L 10.6875 0 
z
" id="DejaVuSans-2e"/>
       <path d="M 8.203125 72.90625 
L 55.078125 72.90625 
L 55.078125 68.703125 
L 28.609375 0 
L 18.3125 0 
L 43.21875 64.59375 
L 8.203125 64.59375 
z
" id="DejaVuSans-37"/>
      </defs>
      <g transform="translate(-5.495313 283.159219)scale(0.1 -0.1)">
       <use xlink:href="#DejaVuSans-2212"/>
       <use x="83.789062" xlink:href="#DejaVuSans-30"/>
       <use x="147.412109" xlink:href="#DejaVuSans-2e"/>
       <use x="179.199219" xlink:href="#DejaVuSans-30"/>
       <use x="242.822266" xlink:href="#DejaVuSans-30"/>
       <use x="306.445312" xlink:href="#DejaVuSans-30"/>
       <use x="370.068359" xlink:href="#DejaVuSans-30"/>
       <use x="433.691406" xlink:href="#DejaVuSans-37"/>
       <use x="497.314453" xlink:href="#DejaVuSans-35"/>
      </g>
     </g>
    </g>
    <g id="ytick_2">
     <g id="line2d_9">
      <g>
       <use style="stroke:#000000;stroke-width:0.8;" x="57.6" xlink:href="#m6eab2e30b7" y="242.705455"/>
      </g>
     </g>
     <g id="text_10">
      <!-- −0.000050 -->
      <g transform="translate(-5.495313 246.504673)scale(0.1 -0.1)">
       <use xlink:href="#DejaVuSans-2212"/>
       <use x="83.789062" xlink:href="#DejaVuSans-30"/>
       <use x="147.412109" xlink:href="#DejaVuSans-2e"/>
       <use x="179.199219" xlink:href="#DejaVuSans-30"/>
       <use x="242.822266" xlink:href="#DejaVuSans-30"/>
       <use x="306.445312" xlink:href="#DejaVuSans-30"/>
       <use x="370.068359" xlink:href="#DejaVuSans-30"/>
       <use x="433.691406" xlink:href="#DejaVuSans-35"/>
       <use x="497.314453" xlink:href="#DejaVuSans-30"/>
      </g>
     </g>
    </g>
    <g id="ytick_3">
     <g id="line2d_10">
      <g>
       <use style="stroke:#000000;stroke-width:0.8;" x="57.6" xlink:href="#m6eab2e30b7" y="206.050909"/>
      </g>
     </g>
     <g id="text_11">
      <!-- −0.000025 -->
      <g transform="translate(-5.495313 209.850128)scale(0.1 -0.1)">
       <use xlink:href="#DejaVuSans-2212"/>
       <use x="83.789062" xlink:href="#DejaVuSans-30"/>
       <use x="147.412109" xlink:href="#DejaVuSans-2e"/>
       <use x="179.199219" xlink:href="#DejaVuSans-30"/>
       <use x="242.822266" xlink:href="#DejaVuSans-30"/>
       <use x="306.445312" xlink:href="#DejaVuSans-30"/>
       <use x="370.068359" xlink:href="#DejaVuSans-30"/>
       <use x="433.691406" xlink:href="#DejaVuSans-32"/>
       <use x="497.314453" xlink:href="#DejaVuSans-35"/>
      </g>
     </g>
    </g>
    <g id="ytick_4">
     <g id="line2d_11">
      <g>
       <use style="stroke:#000000;stroke-width:0.8;" x="57.6" xlink:href="#m6eab2e30b7" y="169.396364"/>
      </g>
     </g>
     <g id="text_12">
      <!-- 0.000000 -->
      <g transform="translate(2.884375 173.195582)scale(0.1 -0.1)">
       <use xlink:href="#DejaVuSans-30"/>
       <use x="63.623047" xlink:href="#DejaVuSans-2e"/>
       <use x="95.410156" xlink:href="#DejaVuSans-30"/>
       <use x="159.033203" xlink:href="#DejaVuSans-30"/>
       <use x="222.65625" xlink:href="#DejaVuSans-30"/>
       <use x="286.279297" xlink:href="#DejaVuSans-30"/>
       <use x="349.902344" xlink:href="#DejaVuSans-30"/>
       <use x="413.525391" xlink:href="#DejaVuSans-30"/>
      </g>
     </g>
    </g>
    <g id="ytick_5">
     <g id="line2d_12">
      <g>
       <use style="stroke:#000000;stroke-width:0.8;" x="57.6" xlink:href="#m6eab2e30b7" y="132.741818"/>
      </g>
     </g>
     <g id="text_13">
      <!-- 0.000025 -->
      <g transform="translate(2.884375 136.541037)scale(0.1 -0.1)">
       <use xlink:href="#DejaVuSans-30"/>
       <use x="63.623047" xlink:href="#DejaVuSans-2e"/>
       <use x="95.410156" xlink:href="#DejaVuSans-30"/>
       <use x="159.033203" xlink:href="#DejaVuSans-30"/>
       <use x="222.65625" xlink:href="#DejaVuSans-30"/>
       <use x="286.279297" xlink:href="#DejaVuSans-30"/>
       <use x="349.902344" xlink:href="#DejaVuSans-32"/>
       <use x="413.525391" xlink:href="#DejaVuSans-35"/>
      </g>
     </g>
    </g>
    <g id="ytick_6">
     <g id="line2d_13">
      <g>
       <use style="stroke:#000000;stroke-width:0.8;" x="57.6" xlink:href="#m6eab2e30b7" y="96.087273"/>
      </g>
     </g>
     <g id="text_14">
      <!-- 0.000050 -->
      <g transform="translate(2.884375 99.886491)scale(0.1 -0.1)">
       <use xlink:href="#DejaVuSans-30"/>
       <use x="63.623047" xlink:href="#DejaVuSans-2e"/>
       <use x="95.410156" xlink:href="#DejaVuSans-30"/>
       <use x="159.033203" xlink:href="#DejaVuSans-30"/>
       <use x="222.65625" xlink:href="#DejaVuSans-30"/>
       <use x="286.279297" xlink:href="#DejaVuSans-30"/>
       <use x="349.902344" xlink:href="#DejaVuSans-35"/>
       <use x="413.525391" xlink:href="#DejaVuSans-30"/>
      </g>
     </g>
    </g>
    <g id="ytick_7">
     <g id="line2d_14">
      <g>
       <use style="stroke:#000000;stroke-width:0.8;" x="57.6" xlink:href="#m6eab2e30b7" y="59.432727"/>
      </g>
     </g>
     <g id="text_15">
      <!-- 0.000075 -->
      <g transform="translate(2.884375 63.231946)scale(0.1 -0.1)">
       <use xlink:href="#DejaVuSans-30"/>
       <use x="63.623047" xlink:href="#DejaVuSans-2e"/>
       <use x="95.410156" xlink:href="#DejaVuSans-30"/>
       <use x="159.033203" xlink:href="#DejaVuSans-30"/>
       <use x="222.65625" xlink:href="#DejaVuSans-30"/>
       <use x="286.279297" xlink:href="#DejaVuSans-30"/>
       <use x="349.902344" xlink:href="#DejaVuSans-37"/>
       <use x="413.525391" xlink:href="#DejaVuSans-35"/>
      </g>
     </g>
    </g>
    <g id="text_16">
     <!-- Voltage (V) -->
     <defs>
      <path d="M 28.609375 0 
L 0.78125 72.90625 
L 11.078125 72.90625 
L 34.1875 11.53125 
L 57.328125 72.90625 
L 67.578125 72.90625 
L 39.796875 0 
z
" id="DejaVuSans-56"/>
      <path d="M 30.609375 48.390625 
Q 23.390625 48.390625 19.1875 42.75 
Q 14.984375 37.109375 14.984375 27.296875 
Q 14.984375 17.484375 19.15625 11.84375 
Q 23.34375 6.203125 30.609375 6.203125 
Q 37.796875 6.203125 41.984375 11.859375 
Q 46.1875 17.53125 46.1875 27.296875 
Q 46.1875 37.015625 41.984375 42.703125 
Q 37.796875 48.390625 30.609375 48.390625 
z
M 30.609375 56 
Q 42.328125 56 49.015625 48.375 
Q 55.71875 40.765625 55.71875 27.296875 
Q 55.71875 13.875 49.015625 6.21875 
Q 42.328125 -1.421875 30.609375 -1.421875 
Q 18.84375 -1.421875 12.171875 6.21875 
Q 5.515625 13.875 5.515625 27.296875 
Q 5.515625 40.765625 12.171875 48.375 
Q 18.84375 56 30.609375 56 
z
" id="DejaVuSans-6f"/>
      <path d="M 9.421875 75.984375 
L 18.40625 75.984375 
L 18.40625 0 
L 9.421875 0 
z
" id="DejaVuSans-6c"/>
      <path d="M 34.28125 27.484375 
Q 23.390625 27.484375 19.1875 25 
Q 14.984375 22.515625 14.984375 16.5 
Q 14.984375 11.71875 18.140625 8.90625 
Q 21.296875 6.109375 26.703125 6.109375 
Q 34.1875 6.109375 38.703125 11.40625 
Q 43.21875 16.703125 43.21875 25.484375 
L 43.21875 27.484375 
z
M 52.203125 31.203125 
L 52.203125 0 
L 43.21875 0 
L 43.21875 8.296875 
Q 40.140625 3.328125 35.546875 0.953125 
Q 30.953125 -1.421875 24.3125 -1.421875 
Q 15.921875 -1.421875 10.953125 3.296875 
Q 6 8.015625 6 15.921875 
Q 6 25.140625 12.171875 29.828125 
Q 18.359375 34.515625 30.609375 34.515625 
L 43.21875 34.515625 
L 43.21875 35.40625 
Q 43.21875 41.609375 39.140625 45 
Q 35.0625 48.390625 27.6875 48.390625 
Q 23 48.390625 18.546875 47.265625 
Q 14.109375 46.140625 10.015625 43.890625 
L 10.015625 52.203125 
Q 14.9375 54.109375 19.578125 55.046875 
Q 24.21875 56 28.609375 56 
Q 40.484375 56 46.34375 49.84375 
Q 52.203125 43.703125 52.203125 31.203125 
z
" id="DejaVuSans-61"/>
      <path d="M 45.40625 27.984375 
Q 45.40625 37.75 41.375 43.109375 
Q 37.359375 48.484375 30.078125 48.484375 
Q 22.859375 48.484375 18.828125 43.109375 
Q 14.796875 37.75 14.796875 27.984375 
Q 14.796875 18.265625 18.828125 12.890625 
Q 22.859375 7.515625 30.078125 7.515625 
Q 37.359375 7.515625 41.375 12.890625 
Q 45.40625 18.265625 45.40625 27.984375 
z
M 54.390625 6.78125 
Q 54.390625 -7.171875 48.1875 -13.984375 
Q 42 -20.796875 29.203125 -20.796875 
Q 24.46875 -20.796875 20.265625 -20.09375 
Q 16.0625 -19.390625 12.109375 -17.921875 
L 12.109375 -9.1875 
Q 16.0625 -11.328125 19.921875 -12.34375 
Q 23.78125 -13.375 27.78125 -13.375 
Q 36.625 -13.375 41.015625 -8.765625 
Q 45.40625 -4.15625 45.40625 5.171875 
L 45.40625 9.625 
Q 42.625 4.78125 38.28125 2.390625 
Q 33.9375 0 27.875 0 
Q 17.828125 0 11.671875 7.65625 
Q 5.515625 15.328125 5.515625 27.984375 
Q 5.515625 40.671875 11.671875 48.328125 
Q 17.828125 56 27.875 56 
Q 33.9375 56 38.28125 53.609375 
Q 42.625 51.21875 45.40625 46.390625 
L 45.40625 54.6875 
L 54.390625 54.6875 
z
" id="DejaVuSans-67"/>
      <path d="M 56.203125 29.59375 
L 56.203125 25.203125 
L 14.890625 25.203125 
Q 15.484375 15.921875 20.484375 11.0625 
Q 25.484375 6.203125 34.421875 6.203125 
Q 39.59375 6.203125 44.453125 7.46875 
Q 49.3125 8.734375 54.109375 11.28125 
L 54.109375 2.78125 
Q 49.265625 0.734375 44.1875 -0.34375 
Q 39.109375 -1.421875 33.890625 -1.421875 
Q 20.796875 -1.421875 13.15625 6.1875 
Q 5.515625 13.8125 5.515625 26.8125 
Q 5.515625 40.234375 12.765625 48.109375 
Q 20.015625 56 32.328125 56 
Q 43.359375 56 49.78125 48.890625 
Q 56.203125 41.796875 56.203125 29.59375 
z
M 47.21875 32.234375 
Q 47.125 39.59375 43.09375 43.984375 
Q 39.0625 48.390625 32.421875 48.390625 
Q 24.90625 48.390625 20.390625 44.140625 
Q 15.875 39.890625 15.1875 32.171875 
z
" id="DejaVuSans-65"/>
      <path id="DejaVuSans-20"/>
     </defs>
     <g transform="translate(-11.575 202.577219)rotate(-90)scale(0.1 -0.1)">
      <use xlink:href="#DejaVuSans-56"/>
      <use x="68.298828" xlink:href="#DejaVuSans-6f"/>
      <use x="129.480469" xlink:href="#DejaVuSans-6c"/>
      <use x="157.263672" xlink:href="#DejaVuSans-74"/>
      <use x="196.472656" xlink:href="#DejaVuSans-61"/>
      <use x="257.751953" xlink:href="#DejaVuSans-67"/>
      <use x="321.228516" xlink:href="#DejaVuSans-65"/>
      <use x="382.751953" xlink:href="#DejaVuSans-20"/>
      <use x="414.539062" xlink:href="#DejaVuSans-28"/>
      <use x="453.552734" xlink:href="#DejaVuSans-56"/>
      <use x="521.960938" xlink:href="#DejaVuSans-29"/>
     </g>
    </g>
    <g id="text_17">
     <!-- +1 -->
     <defs>
      <path d="M 46 62.703125 
L 46 35.5 
L 73.1875 35.5 
L 73.1875 27.203125 
L 46 27.203125 
L 46 0 
L 37.796875 0 
L 37.796875 27.203125 
L 10.59375 27.203125 
L 10.59375 35.5 
L 37.796875 35.5 
L 37.796875 62.703125 
z
" id="DejaVuSans-2b"/>
     </defs>
     <g transform="translate(57.6 38.472)scale(0.1 -0.1)">
      <use xlink:href="#DejaVuSans-2b"/>
      <use x="83.789062" xlink:href="#DejaVuSans-31"/>
     </g>
    </g>
   </g>
   <g id="line2d_15">
    <path clip-path="url(#pfa098b6556)" d="M 73.832727 216.314182 
L 74.37467 134.208 
L 74.916613 141.538909 
L 75.458555 94.621091 
L 76.000498 134.208 
L 76.542441 148.869818 
L 77.084383 143.005091 
L 77.626326 169.396364 
L 78.168269 131.275636 
L 78.710211 82.891636 
L 79.252154 134.208 
L 79.794097 53.568 
L 80.33604 160.599273 
L 80.877982 167.930182 
L 81.419925 131.275636 
L 81.961868 213.381818 
L 82.50381 186.990545 
L 83.045753 216.314182 
L 83.587696 232.442182 
L 84.129638 192.855273 
L 84.671581 213.381818 
L 85.213524 228.043636 
L 85.755466 235.374545 
L 86.839352 175.261091 
L 87.381294 217.780364 
L 87.923237 208.983273 
L 88.46518 113.681455 
L 89.007122 191.389091 
L 89.549065 204.584727 
L 90.091008 213.381818 
L 90.632951 217.780364 
L 91.174893 164.997818 
L 91.716836 126.877091 
L 92.258779 154.734545 
L 92.800721 62.365091 
L 93.342664 99.019636 
L 93.884607 97.553455 
L 94.426549 141.538909 
L 94.968492 93.154909 
L 95.510435 109.282909 
L 96.052377 110.749091 
L 96.59432 93.154909 
L 97.136805 134.208 
L 97.678747 57.966545 
L 98.22069 144.471273 
L 98.762633 103.418182 
L 99.304575 103.418182 
L 99.846518 162.065455 
L 100.388461 172.328727 
L 100.930444 157.666909 
L 101.472441 170.862545 
L 102.014437 113.681455 
L 102.556434 110.749091 
L 103.098431 145.937455 
L 103.640428 192.855273 
L 104.182425 166.464 
L 104.724422 229.509818 
L 105.266419 159.133091 
L 105.808416 232.442182 
L 106.350413 252.968727 
L 106.892409 251.502545 
L 107.434406 233.908364 
L 107.976403 208.983273 
L 108.5184 214.848 
L 109.060397 210.449455 
L 109.602394 210.449455 
L 110.144391 203.118545 
L 110.686388 226.577455 
L 111.228384 201.652364 
L 111.770381 236.840727 
L 112.312378 191.389091 
L 112.854375 247.104 
L 113.938369 178.193455 
L 114.480366 185.524364 
L 115.022363 241.239273 
L 115.564359 238.306909 
L 116.106356 225.111273 
L 116.648353 172.328727 
L 117.19035 153.268364 
L 117.732347 110.749091 
L 118.274344 97.553455 
L 118.816341 109.282909 
L 119.358338 123.944727 
L 119.900334 94.621091 
L 120.442331 77.026909 
L 121.526325 148.869818 
L 122.068322 128.343273 
L 122.610319 160.599273 
L 123.152316 182.592 
L 123.694313 126.877091 
L 124.778306 166.464 
L 125.320303 115.147636 
L 125.8623 110.749091 
L 126.404297 186.990545 
L 126.946294 197.253818 
L 128.030288 182.592 
L 128.572285 164.997818 
L 129.656278 230.976 
L 130.198275 220.712727 
L 131.282269 229.509818 
L 131.824266 226.577455 
L 132.366263 208.983273 
L 132.90826 201.652364 
L 133.450256 211.915636 
L 133.992253 154.734545 
L 134.53425 214.848 
L 135.076247 211.915636 
L 135.618244 176.727273 
L 136.160241 109.282909 
L 137.244235 145.937455 
L 137.786231 166.464 
L 138.328228 126.877091 
L 138.870225 109.282909 
L 139.412222 103.418182 
L 139.954219 122.478545 
L 140.496216 147.403636 
L 141.038213 151.802182 
L 141.58021 88.756364 
L 142.122207 103.418182 
L 142.664203 173.794909 
L 143.2062 147.403636 
L 143.748197 172.328727 
L 144.290194 113.681455 
L 144.832191 131.275636 
L 145.374188 115.147636 
L 145.916185 182.592 
L 146.458182 188.456727 
L 147.000178 179.659636 
L 147.542175 197.253818 
L 148.084172 186.990545 
L 148.626169 204.584727 
L 149.168166 255.901091 
L 149.710163 229.509818 
L 150.25216 232.442182 
L 150.794157 229.509818 
L 151.336153 230.976 
L 151.87815 228.043636 
L 152.420147 244.171636 
L 152.962144 164.997818 
L 153.504141 189.922909 
L 154.046138 195.787636 
L 154.588135 189.922909 
L 155.130132 242.705455 
L 156.214125 112.215273 
L 156.756122 131.275636 
L 157.298119 128.343273 
L 157.840116 110.749091 
L 158.382113 81.425455 
L 158.92411 106.350545 
L 159.466107 88.756364 
L 160.008103 116.613818 
L 160.5501 126.877091 
L 161.092097 109.282909 
L 161.634094 109.282909 
L 162.176091 63.831273 
L 162.718088 131.275636 
L 163.260085 148.869818 
L 163.802082 160.599273 
L 164.344079 159.133091 
L 164.886076 135.674182 
L 165.428072 157.666909 
L 165.970611 134.208 
L 166.512608 141.538909 
L 167.054605 132.741818 
L 167.596602 156.200727 
L 168.138599 170.862545 
L 168.680596 179.659636 
L 169.222593 225.111273 
L 169.764589 208.983273 
L 170.306586 235.374545 
L 170.848583 222.178909 
L 171.39058 211.915636 
L 171.932577 250.036364 
L 172.474574 214.848 
L 173.016571 255.901091 
L 173.558568 222.178909 
L 174.100564 195.787636 
L 174.642561 217.780364 
L 175.184558 210.449455 
L 175.726555 140.072727 
L 176.268552 229.509818 
L 176.810549 178.193455 
L 177.352546 239.773091 
L 178.436539 115.147636 
L 178.978536 134.208 
L 179.520533 118.08 
L 180.06253 172.328727 
L 180.604527 138.606545 
L 181.146524 90.222545 
L 181.688521 123.944727 
L 182.230518 121.012364 
L 182.772514 121.012364 
L 183.314511 175.261091 
L 183.856508 131.275636 
L 184.398505 179.659636 
L 184.940502 140.072727 
L 185.482499 198.72 
L 186.024496 184.058182 
L 186.566493 115.147636 
L 187.10849 140.072727 
L 187.650486 248.570182 
L 188.192483 213.381818 
L 188.73448 235.374545 
L 189.276477 250.036364 
L 189.818474 228.043636 
L 190.360471 260.299636 
L 190.902468 211.915636 
L 191.444465 233.908364 
L 191.986461 194.321455 
L 192.528458 223.645091 
L 193.612452 88.756364 
L 194.154449 178.193455 
L 195.238443 94.621091 
L 195.78044 119.546182 
L 196.322437 97.553455 
L 196.864433 104.884364 
L 197.40643 126.877091 
L 197.948427 134.208 
L 198.490424 159.133091 
L 199.032421 115.147636 
L 199.574418 167.930182 
L 200.116415 121.012364 
L 200.658412 163.531636 
L 201.200409 175.261091 
L 201.742405 225.111273 
L 202.284402 189.922909 
L 202.826399 213.381818 
L 203.368396 211.915636 
L 203.910393 220.712727 
L 204.45239 222.178909 
L 204.994387 233.908364 
L 205.536383 228.043636 
L 206.07838 213.381818 
L 206.620377 228.043636 
L 207.162374 206.050909 
L 207.704371 219.246545 
L 208.246368 156.200727 
L 208.788365 232.442182 
L 209.330362 263.232 
L 210.414355 84.357818 
L 210.956352 134.208 
L 211.498349 103.418182 
L 212.040346 129.809455 
L 212.582343 106.350545 
L 213.12434 119.546182 
L 213.666337 113.681455 
L 214.208334 115.147636 
L 214.75033 141.538909 
L 215.292327 134.208 
L 215.834324 131.275636 
L 216.376321 170.862545 
L 216.918318 169.396364 
L 217.460315 116.613818 
L 218.002312 140.072727 
L 218.544309 194.321455 
L 219.086305 185.524364 
L 219.628302 192.855273 
L 220.170299 203.118545 
L 220.712296 241.239273 
L 221.254293 228.043636 
L 221.79629 188.456727 
L 222.338287 241.239273 
L 222.880284 143.005091 
L 223.422281 219.246545 
L 223.964277 198.72 
L 224.506274 201.652364 
L 225.048271 206.050909 
L 225.590268 162.065455 
L 226.132265 104.884364 
L 226.674262 131.275636 
L 227.216259 145.937455 
L 227.758255 131.275636 
L 228.300252 101.952 
L 228.842249 128.343273 
L 229.384246 125.410909 
L 229.926243 123.944727 
L 230.46824 141.538909 
L 231.010237 197.253818 
L 231.552234 154.734545 
L 232.094231 122.478545 
L 232.636228 125.410909 
L 233.178224 186.990545 
L 233.720221 204.584727 
L 234.262218 204.584727 
L 234.804215 208.983273 
L 235.346212 242.705455 
L 235.888209 222.178909 
L 236.430206 225.111273 
L 236.972203 206.050909 
L 237.514199 214.848 
L 238.056196 197.253818 
L 238.598193 206.050909 
L 239.14019 200.186182 
L 239.682187 295.488 
L 240.224184 214.848 
L 240.766181 188.456727 
L 241.308178 132.741818 
L 241.850174 138.606545 
L 242.392171 163.531636 
L 242.934168 107.816727 
L 243.476165 119.546182 
L 244.018162 101.952 
L 244.560159 115.147636 
L 245.102156 159.133091 
L 245.644153 144.471273 
L 246.186149 137.140364 
L 246.728146 167.930182 
L 247.270143 78.493091 
L 247.81214 131.275636 
L 248.354137 100.485818 
L 248.896134 156.200727 
L 249.438131 228.043636 
L 249.980128 219.246545 
L 250.522124 226.577455 
L 251.064121 261.765818 
L 251.606118 213.381818 
L 252.148115 225.111273 
L 252.690112 219.246545 
L 253.232109 266.164364 
L 253.774106 170.862545 
L 254.316103 173.794909 
L 254.858099 203.118545 
L 255.400096 170.862545 
L 255.942093 113.681455 
L 256.48409 164.997818 
L 257.026087 115.147636 
L 257.568084 141.538909 
L 258.110081 106.350545 
L 258.652078 135.674182 
L 259.194075 143.005091 
L 259.736071 147.403636 
L 260.278068 162.065455 
L 260.820065 107.816727 
L 261.362062 145.937455 
L 261.904059 151.802182 
L 262.446056 200.186182 
L 262.988053 201.652364 
L 263.53005 204.584727 
L 264.072046 225.111273 
L 264.614043 223.645091 
L 265.15604 238.306909 
L 265.698037 194.321455 
L 266.240034 213.381818 
L 266.782031 159.133091 
L 267.324028 192.855273 
L 267.866025 179.659636 
L 268.408022 170.862545 
L 268.950018 182.592 
L 269.492015 188.456727 
L 270.034012 84.357818 
L 270.576009 99.019636 
L 271.118006 134.208 
L 271.660003 122.478545 
L 272.202 101.952 
L 272.743997 112.215273 
L 273.285994 84.357818 
L 273.82799 141.538909 
L 274.369987 126.877091 
L 274.911984 162.065455 
L 275.453981 147.403636 
L 275.995978 103.418182 
L 276.537975 163.531636 
L 277.079972 132.741818 
L 277.621968 82.891636 
L 278.163965 157.666909 
L 278.705962 210.449455 
L 279.247959 203.118545 
L 279.789956 204.584727 
L 280.331953 210.449455 
L 280.87395 220.712727 
L 281.415947 228.043636 
L 281.957944 229.509818 
L 282.49994 250.036364 
L 283.041937 235.374545 
L 283.583934 185.524364 
L 284.125931 181.125818 
L 284.667928 192.855273 
L 285.209925 154.734545 
L 285.751922 208.983273 
L 286.293919 170.862545 
L 286.835915 222.178909 
L 287.377912 220.712727 
L 287.919909 204.584727 
L 288.461906 122.478545 
L 289.003903 100.485818 
L 289.5459 159.133091 
L 290.087897 131.275636 
L 290.629894 115.147636 
L 291.17189 144.471273 
L 291.713887 144.471273 
L 292.255884 85.824 
L 292.797881 122.478545 
L 293.339878 104.884364 
L 293.881875 147.403636 
L 294.423872 150.336 
L 294.965869 99.019636 
L 295.507866 182.592 
L 296.049862 132.741818 
L 296.591859 153.268364 
L 297.133856 188.456727 
L 297.675853 206.050909 
L 298.21785 191.389091 
L 298.759847 200.186182 
L 299.301844 247.104 
L 299.84384 230.976 
L 300.385837 242.705455 
L 300.927834 226.577455 
L 301.469831 220.712727 
L 302.011828 241.239273 
L 302.553825 185.524364 
L 303.095822 153.268364 
L 303.637819 162.065455 
L 304.179816 208.983273 
L 304.721813 210.449455 
L 305.263809 175.261091 
L 305.805806 163.531636 
L 306.347803 101.952 
L 306.8898 97.553455 
L 307.431797 145.937455 
L 307.973794 81.425455 
L 308.515791 119.546182 
L 309.057788 78.493091 
L 309.599784 115.147636 
L 310.141781 141.538909 
L 310.683778 125.410909 
L 311.225775 132.741818 
L 311.767772 188.456727 
L 312.309769 104.884364 
L 312.851766 145.937455 
L 313.393763 170.862545 
L 313.935759 96.087273 
L 314.477756 160.599273 
L 315.019753 72.628364 
L 315.56175 147.403636 
L 316.103747 247.104 
L 316.645744 197.253818 
L 317.187741 194.321455 
L 317.729738 250.036364 
L 318.271735 241.239273 
L 318.813731 216.314182 
L 319.355728 222.178909 
L 319.897725 248.570182 
L 320.439722 121.012364 
L 320.981719 172.328727 
L 321.523716 267.630545 
L 322.065713 250.036364 
L 322.60771 208.983273 
L 323.149706 206.050909 
L 323.691703 182.592 
L 324.2337 135.674182 
L 324.775697 132.741818 
L 325.317694 132.741818 
L 325.859691 135.674182 
L 326.401688 110.749091 
L 326.943685 143.005091 
L 327.485681 160.599273 
L 328.027678 107.816727 
L 328.569675 101.952 
L 329.111672 122.478545 
L 329.653669 154.734545 
L 330.195666 175.261091 
L 330.737663 148.869818 
L 331.27966 140.072727 
L 331.821656 175.261091 
L 332.363653 222.178909 
L 332.90565 222.178909 
L 333.447647 182.592 
L 333.989644 210.449455 
L 334.531641 195.787636 
L 335.073638 254.434909 
L 335.615635 241.239273 
L 336.157631 236.840727 
L 336.699628 200.186182 
L 337.241625 236.840727 
L 337.783622 208.983273 
L 338.325619 226.577455 
L 338.867616 181.125818 
L 339.409613 192.855273 
L 339.95161 179.659636 
L 340.493607 156.200727 
L 341.035604 82.891636 
L 341.5776 123.944727 
L 342.119597 131.275636 
L 343.203591 94.621091 
L 343.745588 125.410909 
L 344.287585 118.08 
L 344.829582 134.208 
L 345.371579 103.418182 
L 345.913575 145.937455 
L 346.455572 129.809455 
L 346.997569 181.125818 
L 347.539566 140.072727 
L 348.081563 144.471273 
L 348.62356 131.275636 
L 349.165557 106.350545 
L 349.707553 154.734545 
L 350.24955 157.666909 
L 350.791547 200.186182 
L 351.333544 217.780364 
L 351.875541 204.584727 
L 352.417538 220.712727 
L 352.959535 226.577455 
L 353.501532 223.645091 
L 354.043529 252.968727 
L 355.127522 214.848 
L 355.669519 251.502545 
L 356.211516 192.855273 
L 356.753513 204.584727 
L 357.29551 185.524364 
L 357.837507 269.096727 
L 358.379504 220.712727 
L 358.9215 134.208 
L 359.463497 131.275636 
L 360.005494 119.546182 
L 360.547491 99.019636 
L 361.089488 103.418182 
L 361.631485 88.756364 
L 362.173482 118.08 
L 362.715479 74.094545 
L 363.257476 137.140364 
L 364.341469 112.215273 
L 364.883466 88.756364 
L 365.425463 121.012364 
L 365.96746 131.275636 
L 367.593451 126.877091 
L 368.135447 141.538909 
L 368.677444 184.058182 
L 369.219441 176.727273 
L 369.761438 197.253818 
L 370.303435 210.449455 
L 370.845432 211.915636 
L 371.929425 230.976 
L 372.471422 260.299636 
L 373.013419 226.577455 
L 373.555416 203.118545 
L 374.097413 230.976 
L 374.63941 228.043636 
L 375.181407 200.186182 
L 375.723404 201.652364 
L 376.265401 173.794909 
L 376.807398 226.577455 
L 377.349395 206.050909 
L 377.891391 203.118545 
L 378.433388 198.72 
L 379.517382 112.215273 
L 380.059379 88.756364 
L 380.601376 115.147636 
L 381.143373 118.08 
L 381.685369 112.215273 
L 382.227366 118.08 
L 382.769363 110.749091 
L 383.31136 159.133091 
L 383.853357 118.08 
L 384.937351 154.734545 
L 385.479348 106.350545 
L 386.021344 169.396364 
L 386.563341 169.396364 
L 387.105338 173.794909 
L 387.647335 184.058182 
L 388.189332 159.133091 
L 388.731329 60.898909 
L 389.273326 132.741818 
L 389.815323 121.012364 
L 390.35732 106.350545 
L 390.899316 115.147636 
L 391.441313 182.592 
L 391.98331 143.005091 
L 392.525307 225.111273 
L 393.067304 182.592 
L 394.151298 188.456727 
L 394.693295 245.637818 
L 395.777288 184.058182 
L 396.319285 219.246545 
L 396.861282 228.043636 
L 397.403279 239.773091 
L 397.945276 184.058182 
L 398.487273 236.840727 
L 398.487273 236.840727 
" style="fill:none;stroke:#1f77b4;stroke-linecap:square;stroke-width:1.5;"/>
   </g>
   <g id="patch_3">
    <path d="M 57.6 307.584 
L 57.6 41.472 
" style="fill:none;stroke:#000000;stroke-linecap:square;stroke-linejoin:miter;stroke-width:0.8;"/>
   </g>
   <g id="patch_4">
    <path d="M 414.72 307.584 
L 414.72 41.472 
" style="fill:none;stroke:#000000;stroke-linecap:square;stroke-linejoin:miter;stroke-width:0.8;"/>
   </g>
   <g id="patch_5">
    <path d="M 57.6 307.584 
L 414.72 307.584 
" style="fill:none;stroke:#000000;stroke-linecap:square;stroke-linejoin:miter;stroke-width:0.8;"/>
   </g>
   <g id="patch_6">
    <path d="M 57.6 41.472 
L 414.72 41.472 
" style="fill:none;stroke:#000000;stroke-linecap:square;stroke-linejoin:miter;stroke-width:0.8;"/>
   </g>
   <g id="text_18">
    <!-- Voltage measured with source voltage 1000.0 mV -->
    <defs>
     <path d="M 52 44.1875 
Q 55.375 50.25 60.0625 53.125 
Q 64.75 56 71.09375 56 
Q 79.640625 56 84.28125 50.015625 
Q 88.921875 44.046875 88.921875 33.015625 
L 88.921875 0 
L 79.890625 0 
L 79.890625 32.71875 
Q 79.890625 40.578125 77.09375 44.375 
Q 74.3125 48.1875 68.609375 48.1875 
Q 61.625 48.1875 57.5625 43.546875 
Q 53.515625 38.921875 53.515625 30.90625 
L 53.515625 0 
L 44.484375 0 
L 44.484375 32.71875 
Q 44.484375 40.625 41.703125 44.40625 
Q 38.921875 48.1875 33.109375 48.1875 
Q 26.21875 48.1875 22.15625 43.53125 
Q 18.109375 38.875 18.109375 30.90625 
L 18.109375 0 
L 9.078125 0 
L 9.078125 54.6875 
L 18.109375 54.6875 
L 18.109375 46.1875 
Q 21.1875 51.21875 25.484375 53.609375 
Q 29.78125 56 35.6875 56 
Q 41.65625 56 45.828125 52.96875 
Q 50 49.953125 52 44.1875 
z
" id="DejaVuSans-6d"/>
     <path d="M 8.5 21.578125 
L 8.5 54.6875 
L 17.484375 54.6875 
L 17.484375 21.921875 
Q 17.484375 14.15625 20.5 10.265625 
Q 23.53125 6.390625 29.59375 6.390625 
Q 36.859375 6.390625 41.078125 11.03125 
Q 45.3125 15.671875 45.3125 23.6875 
L 45.3125 54.6875 
L 54.296875 54.6875 
L 54.296875 0 
L 45.3125 0 
L 45.3125 8.40625 
Q 42.046875 3.421875 37.71875 1 
Q 33.40625 -1.421875 27.6875 -1.421875 
Q 18.265625 -1.421875 13.375 4.4375 
Q 8.5 10.296875 8.5 21.578125 
z
M 31.109375 56 
z
" id="DejaVuSans-75"/>
     <path d="M 41.109375 46.296875 
Q 39.59375 47.171875 37.8125 47.578125 
Q 36.03125 48 33.890625 48 
Q 26.265625 48 22.1875 43.046875 
Q 18.109375 38.09375 18.109375 28.8125 
L 18.109375 0 
L 9.078125 0 
L 9.078125 54.6875 
L 18.109375 54.6875 
L 18.109375 46.1875 
Q 20.953125 51.171875 25.484375 53.578125 
Q 30.03125 56 36.53125 56 
Q 37.453125 56 38.578125 55.875 
Q 39.703125 55.765625 41.0625 55.515625 
z
" id="DejaVuSans-72"/>
     <path d="M 45.40625 46.390625 
L 45.40625 75.984375 
L 54.390625 75.984375 
L 54.390625 0 
L 45.40625 0 
L 45.40625 8.203125 
Q 42.578125 3.328125 38.25 0.953125 
Q 33.9375 -1.421875 27.875 -1.421875 
Q 17.96875 -1.421875 11.734375 6.484375 
Q 5.515625 14.40625 5.515625 27.296875 
Q 5.515625 40.1875 11.734375 48.09375 
Q 17.96875 56 27.875 56 
Q 33.9375 56 38.25 53.625 
Q 42.578125 51.265625 45.40625 46.390625 
z
M 14.796875 27.296875 
Q 14.796875 17.390625 18.875 11.75 
Q 22.953125 6.109375 30.078125 6.109375 
Q 37.203125 6.109375 41.296875 11.75 
Q 45.40625 17.390625 45.40625 27.296875 
Q 45.40625 37.203125 41.296875 42.84375 
Q 37.203125 48.484375 30.078125 48.484375 
Q 22.953125 48.484375 18.875 42.84375 
Q 14.796875 37.203125 14.796875 27.296875 
z
" id="DejaVuSans-64"/>
     <path d="M 4.203125 54.6875 
L 13.1875 54.6875 
L 24.421875 12.015625 
L 35.59375 54.6875 
L 46.1875 54.6875 
L 57.421875 12.015625 
L 68.609375 54.6875 
L 77.59375 54.6875 
L 63.28125 0 
L 52.6875 0 
L 40.921875 44.828125 
L 29.109375 0 
L 18.5 0 
z
" id="DejaVuSans-77"/>
     <path d="M 9.421875 54.6875 
L 18.40625 54.6875 
L 18.40625 0 
L 9.421875 0 
z
M 9.421875 75.984375 
L 18.40625 75.984375 
L 18.40625 64.59375 
L 9.421875 64.59375 
z
" id="DejaVuSans-69"/>
     <path d="M 54.890625 33.015625 
L 54.890625 0 
L 45.90625 0 
L 45.90625 32.71875 
Q 45.90625 40.484375 42.875 44.328125 
Q 39.84375 48.1875 33.796875 48.1875 
Q 26.515625 48.1875 22.3125 43.546875 
Q 18.109375 38.921875 18.109375 30.90625 
L 18.109375 0 
L 9.078125 0 
L 9.078125 75.984375 
L 18.109375 75.984375 
L 18.109375 46.1875 
Q 21.34375 51.125 25.703125 53.5625 
Q 30.078125 56 35.796875 56 
Q 45.21875 56 50.046875 50.171875 
Q 54.890625 44.34375 54.890625 33.015625 
z
" id="DejaVuSans-68"/>
     <path d="M 48.78125 52.59375 
L 48.78125 44.1875 
Q 44.96875 46.296875 41.140625 47.34375 
Q 37.3125 48.390625 33.40625 48.390625 
Q 24.65625 48.390625 19.8125 42.84375 
Q 14.984375 37.3125 14.984375 27.296875 
Q 14.984375 17.28125 19.8125 11.734375 
Q 24.65625 6.203125 33.40625 6.203125 
Q 37.3125 6.203125 41.140625 7.25 
Q 44.96875 8.296875 48.78125 10.40625 
L 48.78125 2.09375 
Q 45.015625 0.34375 40.984375 -0.53125 
Q 36.96875 -1.421875 32.421875 -1.421875 
Q 20.0625 -1.421875 12.78125 6.34375 
Q 5.515625 14.109375 5.515625 27.296875 
Q 5.515625 40.671875 12.859375 48.328125 
Q 20.21875 56 33.015625 56 
Q 37.15625 56 41.109375 55.140625 
Q 45.0625 54.296875 48.78125 52.59375 
z
" id="DejaVuSans-63"/>
     <path d="M 2.984375 54.6875 
L 12.5 54.6875 
L 29.59375 8.796875 
L 46.6875 54.6875 
L 56.203125 54.6875 
L 35.6875 0 
L 23.484375 0 
z
" id="DejaVuSans-76"/>
    </defs>
    <g transform="translate(85.5 35.472)scale(0.12 -0.12)">
     <use xlink:href="#DejaVuSans-56"/>
     <use x="68.298828" xlink:href="#DejaVuSans-6f"/>
     <use x="129.480469" xlink:href="#DejaVuSans-6c"/>
     <use x="157.263672" xlink:href="#DejaVuSans-74"/>
     <use x="196.472656" xlink:href="#DejaVuSans-61"/>
     <use x="257.751953" xlink:href="#DejaVuSans-67"/>
     <use x="321.228516" xlink:href="#DejaVuSans-65"/>
     <use x="382.751953" xlink:href="#DejaVuSans-20"/>
     <use x="414.539062" xlink:href="#DejaVuSans-6d"/>
     <use x="511.951172" xlink:href="#DejaVuSans-65"/>
     <use x="573.474609" xlink:href="#DejaVuSans-61"/>
     <use x="634.753906" xlink:href="#DejaVuSans-73"/>
     <use x="686.853516" xlink:href="#DejaVuSans-75"/>
     <use x="750.232422" xlink:href="#DejaVuSans-72"/>
     <use x="791.314453" xlink:href="#DejaVuSans-65"/>
     <use x="852.837891" xlink:href="#DejaVuSans-64"/>
     <use x="916.314453" xlink:href="#DejaVuSans-20"/>
     <use x="948.101562" xlink:href="#DejaVuSans-77"/>
     <use x="1029.888672" xlink:href="#DejaVuSans-69"/>
     <use x="1057.671875" xlink:href="#DejaVuSans-74"/>
     <use x="1096.880859" xlink:href="#DejaVuSans-68"/>
     <use x="1160.259766" xlink:href="#DejaVuSans-20"/>
     <use x="1192.046875" xlink:href="#DejaVuSans-73"/>
     <use x="1244.146484" xlink:href="#DejaVuSans-6f"/>
     <use x="1305.328125" xlink:href="#DejaVuSans-75"/>
     <use x="1368.707031" xlink:href="#DejaVuSans-72"/>
     <use x="1409.789062" xlink:href="#DejaVuSans-63"/>
     <use x="1464.769531" xlink:href="#DejaVuSans-65"/>
     <use x="1526.292969" xlink:href="#DejaVuSans-20"/>
     <use x="1558.080078" xlink:href="#DejaVuSans-76"/>
     <use x="1617.259766" xlink:href="#DejaVuSans-6f"/>
     <use x="1678.441406" xlink:href="#DejaVuSans-6c"/>
     <use x="1706.224609" xlink:href="#DejaVuSans-74"/>
     <use x="1745.433594" xlink:href="#DejaVuSans-61"/>
     <use x="1806.712891" xlink:href="#DejaVuSans-67"/>
     <use x="1870.189453" xlink:href="#DejaVuSans-65"/>
     <use x="1931.712891" xlink:href="#DejaVuSans-20"/>
     <use x="1963.5" xlink:href="#DejaVuSans-31"/>
     <use x="2027.123047" xlink:href="#DejaVuSans-30"/>
     <use x="2090.746094" xlink:href="#DejaVuSans-30"/>
     <use x="2154.369141" xlink:href="#DejaVuSans-30"/>
     <use x="2217.992188" xlink:href="#DejaVuSans-2e"/>
     <use x="2249.779297" xlink:href="#DejaVuSans-30"/>
     <use x="2313.402344" xlink:href="#DejaVuSans-20"/>
     <use x="2345.189453" xlink:href="#DejaVuSans-6d"/>
     <use x="2442.601562" xlink:href="#DejaVuSans-56"/>
    </g>
   </g>
  </g>
 </g>
 <defs>
  <clipPath id="pfa098b6556">
   <rect height="266.112" width="357.12" x="57.6" y="41.472"/>
  </clipPath>
 </defs>
</svg>
