<?xml version="1.0" encoding="utf-8" standalone="no"?>
<!DOCTYPE svg PUBLIC "-//W3C//DTD SVG 1.1//EN"
  "http://www.w3.org/Graphics/SVG/1.1/DTD/svg11.dtd">
<!-- Created with matplotlib (http://matplotlib.org/) -->
<svg height="345pt" version="1.1" viewBox="0 0 460 345" width="460pt" xmlns="http://www.w3.org/2000/svg" xmlns:xlink="http://www.w3.org/1999/xlink">
 <defs>
  <style type="text/css">
*{stroke-linecap:butt;stroke-linejoin:round;}
  </style>
 </defs>
 <g id="figure_1">
  <g id="patch_1">
   <path d="M 0 345.6 
L 460.8 345.6 
L 460.8 0 
L 0 0 
z
" style="fill:#ffffff;"/>
  </g>
  <g id="axes_1">
   <g id="patch_2">
    <path d="M 57.6 307.584 
L 414.72 307.584 
L 414.72 41.472 
L 57.6 41.472 
z
" style="fill:#ffffff;"/>
   </g>
   <g id="matplotlib.axis_1">
    <g id="xtick_1">
     <g id="line2d_1">
      <defs>
       <path d="M 0 0 
L 0 3.5 
" id="mbffde14152" style="stroke:#000000;stroke-width:0.8;"/>
      </defs>
      <g>
       <use style="stroke:#000000;stroke-width:0.8;" x="73.787625" xlink:href="#mbffde14152" y="307.584"/>
      </g>
     </g>
     <g id="text_1">
      <!-- 0 -->
      <defs>
       <path d="M 31.78125 66.40625 
Q 24.171875 66.40625 20.328125 58.90625 
Q 16.5 51.421875 16.5 36.375 
Q 16.5 21.390625 20.328125 13.890625 
Q 24.171875 6.390625 31.78125 6.390625 
Q 39.453125 6.390625 43.28125 13.890625 
Q 47.125 21.390625 47.125 36.375 
Q 47.125 51.421875 43.28125 58.90625 
Q 39.453125 66.40625 31.78125 66.40625 
z
M 31.78125 74.21875 
Q 44.046875 74.21875 50.515625 64.515625 
Q 56.984375 54.828125 56.984375 36.375 
Q 56.984375 17.96875 50.515625 8.265625 
Q 44.046875 -1.421875 31.78125 -1.421875 
Q 19.53125 -1.421875 13.0625 8.265625 
Q 6.59375 17.96875 6.59375 36.375 
Q 6.59375 54.828125 13.0625 64.515625 
Q 19.53125 74.21875 31.78125 74.21875 
z
" id="DejaVuSans-30"/>
      </defs>
      <g transform="translate(70.606375 322.182437)scale(0.1 -0.1)">
       <use xlink:href="#DejaVuSans-30"/>
      </g>
     </g>
    </g>
    <g id="xtick_2">
     <g id="line2d_2">
      <g>
       <use style="stroke:#000000;stroke-width:0.8;" x="118.889553" xlink:href="#mbffde14152" y="307.584"/>
      </g>
     </g>
     <g id="text_2">
      <!-- 1000 -->
      <defs>
       <path d="M 12.40625 8.296875 
L 28.515625 8.296875 
L 28.515625 63.921875 
L 10.984375 60.40625 
L 10.984375 69.390625 
L 28.421875 72.90625 
L 38.28125 72.90625 
L 38.28125 8.296875 
L 54.390625 8.296875 
L 54.390625 0 
L 12.40625 0 
z
" id="DejaVuSans-31"/>
      </defs>
      <g transform="translate(106.164553 322.182437)scale(0.1 -0.1)">
       <use xlink:href="#DejaVuSans-31"/>
       <use x="63.623047" xlink:href="#DejaVuSans-30"/>
       <use x="127.246094" xlink:href="#DejaVuSans-30"/>
       <use x="190.869141" xlink:href="#DejaVuSans-30"/>
      </g>
     </g>
    </g>
    <g id="xtick_3">
     <g id="line2d_3">
      <g>
       <use style="stroke:#000000;stroke-width:0.8;" x="163.991481" xlink:href="#mbffde14152" y="307.584"/>
      </g>
     </g>
     <g id="text_3">
      <!-- 2000 -->
      <defs>
       <path d="M 19.1875 8.296875 
L 53.609375 8.296875 
L 53.609375 0 
L 7.328125 0 
L 7.328125 8.296875 
Q 12.9375 14.109375 22.625 23.890625 
Q 32.328125 33.6875 34.8125 36.53125 
Q 39.546875 41.84375 41.421875 45.53125 
Q 43.3125 49.21875 43.3125 52.78125 
Q 43.3125 58.59375 39.234375 62.25 
Q 35.15625 65.921875 28.609375 65.921875 
Q 23.96875 65.921875 18.8125 64.3125 
Q 13.671875 62.703125 7.8125 59.421875 
L 7.8125 69.390625 
Q 13.765625 71.78125 18.9375 73 
Q 24.125 74.21875 28.421875 74.21875 
Q 39.75 74.21875 46.484375 68.546875 
Q 53.21875 62.890625 53.21875 53.421875 
Q 53.21875 48.921875 51.53125 44.890625 
Q 49.859375 40.875 45.40625 35.40625 
Q 44.1875 33.984375 37.640625 27.21875 
Q 31.109375 20.453125 19.1875 8.296875 
z
" id="DejaVuSans-32"/>
      </defs>
      <g transform="translate(151.266481 322.182437)scale(0.1 -0.1)">
       <use xlink:href="#DejaVuSans-32"/>
       <use x="63.623047" xlink:href="#DejaVuSans-30"/>
       <use x="127.246094" xlink:href="#DejaVuSans-30"/>
       <use x="190.869141" xlink:href="#DejaVuSans-30"/>
      </g>
     </g>
    </g>
    <g id="xtick_4">
     <g id="line2d_4">
      <g>
       <use style="stroke:#000000;stroke-width:0.8;" x="209.093409" xlink:href="#mbffde14152" y="307.584"/>
      </g>
     </g>
     <g id="text_4">
      <!-- 3000 -->
      <defs>
       <path d="M 40.578125 39.3125 
Q 47.65625 37.796875 51.625 33 
Q 55.609375 28.21875 55.609375 21.1875 
Q 55.609375 10.40625 48.1875 4.484375 
Q 40.765625 -1.421875 27.09375 -1.421875 
Q 22.515625 -1.421875 17.65625 -0.515625 
Q 12.796875 0.390625 7.625 2.203125 
L 7.625 11.71875 
Q 11.71875 9.328125 16.59375 8.109375 
Q 21.484375 6.890625 26.8125 6.890625 
Q 36.078125 6.890625 40.9375 10.546875 
Q 45.796875 14.203125 45.796875 21.1875 
Q 45.796875 27.640625 41.28125 31.265625 
Q 36.765625 34.90625 28.71875 34.90625 
L 20.21875 34.90625 
L 20.21875 43.015625 
L 29.109375 43.015625 
Q 36.375 43.015625 40.234375 45.921875 
Q 44.09375 48.828125 44.09375 54.296875 
Q 44.09375 59.90625 40.109375 62.90625 
Q 36.140625 65.921875 28.71875 65.921875 
Q 24.65625 65.921875 20.015625 65.03125 
Q 15.375 64.15625 9.8125 62.3125 
L 9.8125 71.09375 
Q 15.4375 72.65625 20.34375 73.4375 
Q 25.25 74.21875 29.59375 74.21875 
Q 40.828125 74.21875 47.359375 69.109375 
Q 53.90625 64.015625 53.90625 55.328125 
Q 53.90625 49.265625 50.4375 45.09375 
Q 46.96875 40.921875 40.578125 39.3125 
z
" id="DejaVuSans-33"/>
      </defs>
      <g transform="translate(196.368409 322.182437)scale(0.1 -0.1)">
       <use xlink:href="#DejaVuSans-33"/>
       <use x="63.623047" xlink:href="#DejaVuSans-30"/>
       <use x="127.246094" xlink:href="#DejaVuSans-30"/>
       <use x="190.869141" xlink:href="#DejaVuSans-30"/>
      </g>
     </g>
    </g>
    <g id="xtick_5">
     <g id="line2d_5">
      <g>
       <use style="stroke:#000000;stroke-width:0.8;" x="254.195336" xlink:href="#mbffde14152" y="307.584"/>
      </g>
     </g>
     <g id="text_5">
      <!-- 4000 -->
      <defs>
       <path d="M 37.796875 64.3125 
L 12.890625 25.390625 
L 37.796875 25.390625 
z
M 35.203125 72.90625 
L 47.609375 72.90625 
L 47.609375 25.390625 
L 58.015625 25.390625 
L 58.015625 17.1875 
L 47.609375 17.1875 
L 47.609375 0 
L 37.796875 0 
L 37.796875 17.1875 
L 4.890625 17.1875 
L 4.890625 26.703125 
z
" id="DejaVuSans-34"/>
      </defs>
      <g transform="translate(241.470336 322.182437)scale(0.1 -0.1)">
       <use xlink:href="#DejaVuSans-34"/>
       <use x="63.623047" xlink:href="#DejaVuSans-30"/>
       <use x="127.246094" xlink:href="#DejaVuSans-30"/>
       <use x="190.869141" xlink:href="#DejaVuSans-30"/>
      </g>
     </g>
    </g>
    <g id="xtick_6">
     <g id="line2d_6">
      <g>
       <use style="stroke:#000000;stroke-width:0.8;" x="299.297264" xlink:href="#mbffde14152" y="307.584"/>
      </g>
     </g>
     <g id="text_6">
      <!-- 5000 -->
      <defs>
       <path d="M 10.796875 72.90625 
L 49.515625 72.90625 
L 49.515625 64.59375 
L 19.828125 64.59375 
L 19.828125 46.734375 
Q 21.96875 47.46875 24.109375 47.828125 
Q 26.265625 48.1875 28.421875 48.1875 
Q 40.625 48.1875 47.75 41.5 
Q 54.890625 34.8125 54.890625 23.390625 
Q 54.890625 11.625 47.5625 5.09375 
Q 40.234375 -1.421875 26.90625 -1.421875 
Q 22.3125 -1.421875 17.546875 -0.640625 
Q 12.796875 0.140625 7.71875 1.703125 
L 7.71875 11.625 
Q 12.109375 9.234375 16.796875 8.0625 
Q 21.484375 6.890625 26.703125 6.890625 
Q 35.15625 6.890625 40.078125 11.328125 
Q 45.015625 15.765625 45.015625 23.390625 
Q 45.015625 31 40.078125 35.4375 
Q 35.15625 39.890625 26.703125 39.890625 
Q 22.75 39.890625 18.8125 39.015625 
Q 14.890625 38.140625 10.796875 36.28125 
z
" id="DejaVuSans-35"/>
      </defs>
      <g transform="translate(286.572264 322.182437)scale(0.1 -0.1)">
       <use xlink:href="#DejaVuSans-35"/>
       <use x="63.623047" xlink:href="#DejaVuSans-30"/>
       <use x="127.246094" xlink:href="#DejaVuSans-30"/>
       <use x="190.869141" xlink:href="#DejaVuSans-30"/>
      </g>
     </g>
    </g>
    <g id="xtick_7">
     <g id="line2d_7">
      <g>
       <use style="stroke:#000000;stroke-width:0.8;" x="344.399192" xlink:href="#mbffde14152" y="307.584"/>
      </g>
     </g>
     <g id="text_7">
      <!-- 6000 -->
      <defs>
       <path d="M 33.015625 40.375 
Q 26.375 40.375 22.484375 35.828125 
Q 18.609375 31.296875 18.609375 23.390625 
Q 18.609375 15.53125 22.484375 10.953125 
Q 26.375 6.390625 33.015625 6.390625 
Q 39.65625 6.390625 43.53125 10.953125 
Q 47.40625 15.53125 47.40625 23.390625 
Q 47.40625 31.296875 43.53125 35.828125 
Q 39.65625 40.375 33.015625 40.375 
z
M 52.59375 71.296875 
L 52.59375 62.3125 
Q 48.875 64.0625 45.09375 64.984375 
Q 41.3125 65.921875 37.59375 65.921875 
Q 27.828125 65.921875 22.671875 59.328125 
Q 17.53125 52.734375 16.796875 39.40625 
Q 19.671875 43.65625 24.015625 45.921875 
Q 28.375 48.1875 33.59375 48.1875 
Q 44.578125 48.1875 50.953125 41.515625 
Q 57.328125 34.859375 57.328125 23.390625 
Q 57.328125 12.15625 50.6875 5.359375 
Q 44.046875 -1.421875 33.015625 -1.421875 
Q 20.359375 -1.421875 13.671875 8.265625 
Q 6.984375 17.96875 6.984375 36.375 
Q 6.984375 53.65625 15.1875 63.9375 
Q 23.390625 74.21875 37.203125 74.21875 
Q 40.921875 74.21875 44.703125 73.484375 
Q 48.484375 72.75 52.59375 71.296875 
z
" id="DejaVuSans-36"/>
      </defs>
      <g transform="translate(331.674192 322.182437)scale(0.1 -0.1)">
       <use xlink:href="#DejaVuSans-36"/>
       <use x="63.623047" xlink:href="#DejaVuSans-30"/>
       <use x="127.246094" xlink:href="#DejaVuSans-30"/>
       <use x="190.869141" xlink:href="#DejaVuSans-30"/>
      </g>
     </g>
    </g>
    <g id="xtick_8">
     <g id="line2d_8">
      <g>
       <use style="stroke:#000000;stroke-width:0.8;" x="389.50112" xlink:href="#mbffde14152" y="307.584"/>
      </g>
     </g>
     <g id="text_8">
      <!-- 7000 -->
      <defs>
       <path d="M 8.203125 72.90625 
L 55.078125 72.90625 
L 55.078125 68.703125 
L 28.609375 0 
L 18.3125 0 
L 43.21875 64.59375 
L 8.203125 64.59375 
z
" id="DejaVuSans-37"/>
      </defs>
      <g transform="translate(376.77612 322.182437)scale(0.1 -0.1)">
       <use xlink:href="#DejaVuSans-37"/>
       <use x="63.623047" xlink:href="#DejaVuSans-30"/>
       <use x="127.246094" xlink:href="#DejaVuSans-30"/>
       <use x="190.869141" xlink:href="#DejaVuSans-30"/>
      </g>
     </g>
    </g>
    <g id="text_9">
     <!-- t(s) -->
     <defs>
      <path d="M 18.3125 70.21875 
L 18.3125 54.6875 
L 36.8125 54.6875 
L 36.8125 47.703125 
L 18.3125 47.703125 
L 18.3125 18.015625 
Q 18.3125 11.328125 20.140625 9.421875 
Q 21.96875 7.515625 27.59375 7.515625 
L 36.8125 7.515625 
L 36.8125 0 
L 27.59375 0 
Q 17.1875 0 13.234375 3.875 
Q 9.28125 7.765625 9.28125 18.015625 
L 9.28125 47.703125 
L 2.6875 47.703125 
L 2.6875 54.6875 
L 9.28125 54.6875 
L 9.28125 70.21875 
z
" id="DejaVuSans-74"/>
      <path d="M 31 75.875 
Q 24.46875 64.65625 21.28125 53.65625 
Q 18.109375 42.671875 18.109375 31.390625 
Q 18.109375 20.125 21.3125 9.0625 
Q 24.515625 -2 31 -13.1875 
L 23.1875 -13.1875 
Q 15.875 -1.703125 12.234375 9.375 
Q 8.59375 20.453125 8.59375 31.390625 
Q 8.59375 42.28125 12.203125 53.3125 
Q 15.828125 64.359375 23.1875 75.875 
z
" id="DejaVuSans-28"/>
      <path d="M 44.28125 53.078125 
L 44.28125 44.578125 
Q 40.484375 46.53125 36.375 47.5 
Q 32.28125 48.484375 27.875 48.484375 
Q 21.1875 48.484375 17.84375 46.4375 
Q 14.5 44.390625 14.5 40.28125 
Q 14.5 37.15625 16.890625 35.375 
Q 19.28125 33.59375 26.515625 31.984375 
L 29.59375 31.296875 
Q 39.15625 29.25 43.1875 25.515625 
Q 47.21875 21.78125 47.21875 15.09375 
Q 47.21875 7.46875 41.1875 3.015625 
Q 35.15625 -1.421875 24.609375 -1.421875 
Q 20.21875 -1.421875 15.453125 -0.5625 
Q 10.6875 0.296875 5.421875 2 
L 5.421875 11.28125 
Q 10.40625 8.6875 15.234375 7.390625 
Q 20.0625 6.109375 24.8125 6.109375 
Q 31.15625 6.109375 34.5625 8.28125 
Q 37.984375 10.453125 37.984375 14.40625 
Q 37.984375 18.0625 35.515625 20.015625 
Q 33.0625 21.96875 24.703125 23.78125 
L 21.578125 24.515625 
Q 13.234375 26.265625 9.515625 29.90625 
Q 5.8125 33.546875 5.8125 39.890625 
Q 5.8125 47.609375 11.28125 51.796875 
Q 16.75 56 26.8125 56 
Q 31.78125 56 36.171875 55.265625 
Q 40.578125 54.546875 44.28125 53.078125 
z
" id="DejaVuSans-73"/>
      <path d="M 8.015625 75.875 
L 15.828125 75.875 
Q 23.140625 64.359375 26.78125 53.3125 
Q 30.421875 42.28125 30.421875 31.390625 
Q 30.421875 20.453125 26.78125 9.375 
Q 23.140625 -1.703125 15.828125 -13.1875 
L 8.015625 -13.1875 
Q 14.5 -2 17.703125 9.0625 
Q 20.90625 20.125 20.90625 31.390625 
Q 20.90625 42.671875 17.703125 53.65625 
Q 14.5 64.65625 8.015625 75.875 
z
" id="DejaVuSans-29"/>
     </defs>
     <g transform="translate(227.693594 335.860562)scale(0.1 -0.1)">
      <use xlink:href="#DejaVuSans-74"/>
      <use x="39.208984" xlink:href="#DejaVuSans-28"/>
      <use x="78.222656" xlink:href="#DejaVuSans-73"/>
      <use x="130.322266" xlink:href="#DejaVuSans-29"/>
     </g>
    </g>
   </g>
   <g id="matplotlib.axis_2">
    <g id="ytick_1">
     <g id="line2d_9">
      <defs>
       <path d="M 0 0 
L -3.5 0 
" id="mef511cc447" style="stroke:#000000;stroke-width:0.8;"/>
      </defs>
      <g>
       <use style="stroke:#000000;stroke-width:0.8;" x="57.6" xlink:href="#mef511cc447" y="292.974966"/>
      </g>
     </g>
     <g id="text_10">
      <!-- −0.5 -->
      <defs>
       <path d="M 10.59375 35.5 
L 73.1875 35.5 
L 73.1875 27.203125 
L 10.59375 27.203125 
z
" id="DejaVuSans-2212"/>
       <path d="M 10.6875 12.40625 
L 21 12.40625 
L 21 0 
L 10.6875 0 
z
" id="DejaVuSans-2e"/>
      </defs>
      <g transform="translate(26.317187 296.774185)scale(0.1 -0.1)">
       <use xlink:href="#DejaVuSans-2212"/>
       <use x="83.789062" xlink:href="#DejaVuSans-30"/>
       <use x="147.412109" xlink:href="#DejaVuSans-2e"/>
       <use x="179.199219" xlink:href="#DejaVuSans-35"/>
      </g>
     </g>
    </g>
    <g id="ytick_2">
     <g id="line2d_10">
      <g>
       <use style="stroke:#000000;stroke-width:0.8;" x="57.6" xlink:href="#mef511cc447" y="245.086523"/>
      </g>
     </g>
     <g id="text_11">
      <!-- 0.0 -->
      <g transform="translate(34.696875 248.885742)scale(0.1 -0.1)">
       <use xlink:href="#DejaVuSans-30"/>
       <use x="63.623047" xlink:href="#DejaVuSans-2e"/>
       <use x="95.410156" xlink:href="#DejaVuSans-30"/>
      </g>
     </g>
    </g>
    <g id="ytick_3">
     <g id="line2d_11">
      <g>
       <use style="stroke:#000000;stroke-width:0.8;" x="57.6" xlink:href="#mef511cc447" y="197.198081"/>
      </g>
     </g>
     <g id="text_12">
      <!-- 0.5 -->
      <g transform="translate(34.696875 200.9973)scale(0.1 -0.1)">
       <use xlink:href="#DejaVuSans-30"/>
       <use x="63.623047" xlink:href="#DejaVuSans-2e"/>
       <use x="95.410156" xlink:href="#DejaVuSans-35"/>
      </g>
     </g>
    </g>
    <g id="ytick_4">
     <g id="line2d_12">
      <g>
       <use style="stroke:#000000;stroke-width:0.8;" x="57.6" xlink:href="#mef511cc447" y="149.309639"/>
      </g>
     </g>
     <g id="text_13">
      <!-- 1.0 -->
      <g transform="translate(34.696875 153.108858)scale(0.1 -0.1)">
       <use xlink:href="#DejaVuSans-31"/>
       <use x="63.623047" xlink:href="#DejaVuSans-2e"/>
       <use x="95.410156" xlink:href="#DejaVuSans-30"/>
      </g>
     </g>
    </g>
    <g id="ytick_5">
     <g id="line2d_13">
      <g>
       <use style="stroke:#000000;stroke-width:0.8;" x="57.6" xlink:href="#mef511cc447" y="101.421196"/>
      </g>
     </g>
     <g id="text_14">
      <!-- 1.5 -->
      <g transform="translate(34.696875 105.220415)scale(0.1 -0.1)">
       <use xlink:href="#DejaVuSans-31"/>
       <use x="63.623047" xlink:href="#DejaVuSans-2e"/>
       <use x="95.410156" xlink:href="#DejaVuSans-35"/>
      </g>
     </g>
    </g>
    <g id="ytick_6">
     <g id="line2d_14">
      <g>
       <use style="stroke:#000000;stroke-width:0.8;" x="57.6" xlink:href="#mef511cc447" y="53.532754"/>
      </g>
     </g>
     <g id="text_15">
      <!-- 2.0 -->
      <g transform="translate(34.696875 57.331973)scale(0.1 -0.1)">
       <use xlink:href="#DejaVuSans-32"/>
       <use x="63.623047" xlink:href="#DejaVuSans-2e"/>
       <use x="95.410156" xlink:href="#DejaVuSans-30"/>
      </g>
     </g>
    </g>
    <g id="text_16">
     <!-- Resistance (Ohm) -->
     <defs>
      <path d="M 44.390625 34.1875 
Q 47.5625 33.109375 50.5625 29.59375 
Q 53.5625 26.078125 56.59375 19.921875 
L 66.609375 0 
L 56 0 
L 46.6875 18.703125 
Q 43.0625 26.03125 39.671875 28.421875 
Q 36.28125 30.8125 30.421875 30.8125 
L 19.671875 30.8125 
L 19.671875 0 
L 9.8125 0 
L 9.8125 72.90625 
L 32.078125 72.90625 
Q 44.578125 72.90625 50.734375 67.671875 
Q 56.890625 62.453125 56.890625 51.90625 
Q 56.890625 45.015625 53.6875 40.46875 
Q 50.484375 35.9375 44.390625 34.1875 
z
M 19.671875 64.796875 
L 19.671875 38.921875 
L 32.078125 38.921875 
Q 39.203125 38.921875 42.84375 42.21875 
Q 46.484375 45.515625 46.484375 51.90625 
Q 46.484375 58.296875 42.84375 61.546875 
Q 39.203125 64.796875 32.078125 64.796875 
z
" id="DejaVuSans-52"/>
      <path d="M 56.203125 29.59375 
L 56.203125 25.203125 
L 14.890625 25.203125 
Q 15.484375 15.921875 20.484375 11.0625 
Q 25.484375 6.203125 34.421875 6.203125 
Q 39.59375 6.203125 44.453125 7.46875 
Q 49.3125 8.734375 54.109375 11.28125 
L 54.109375 2.78125 
Q 49.265625 0.734375 44.1875 -0.34375 
Q 39.109375 -1.421875 33.890625 -1.421875 
Q 20.796875 -1.421875 13.15625 6.1875 
Q 5.515625 13.8125 5.515625 26.8125 
Q 5.515625 40.234375 12.765625 48.109375 
Q 20.015625 56 32.328125 56 
Q 43.359375 56 49.78125 48.890625 
Q 56.203125 41.796875 56.203125 29.59375 
z
M 47.21875 32.234375 
Q 47.125 39.59375 43.09375 43.984375 
Q 39.0625 48.390625 32.421875 48.390625 
Q 24.90625 48.390625 20.390625 44.140625 
Q 15.875 39.890625 15.1875 32.171875 
z
" id="DejaVuSans-65"/>
      <path d="M 9.421875 54.6875 
L 18.40625 54.6875 
L 18.40625 0 
L 9.421875 0 
z
M 9.421875 75.984375 
L 18.40625 75.984375 
L 18.40625 64.59375 
L 9.421875 64.59375 
z
" id="DejaVuSans-69"/>
      <path d="M 34.28125 27.484375 
Q 23.390625 27.484375 19.1875 25 
Q 14.984375 22.515625 14.984375 16.5 
Q 14.984375 11.71875 18.140625 8.90625 
Q 21.296875 6.109375 26.703125 6.109375 
Q 34.1875 6.109375 38.703125 11.40625 
Q 43.21875 16.703125 43.21875 25.484375 
L 43.21875 27.484375 
z
M 52.203125 31.203125 
L 52.203125 0 
L 43.21875 0 
L 43.21875 8.296875 
Q 40.140625 3.328125 35.546875 0.953125 
Q 30.953125 -1.421875 24.3125 -1.421875 
Q 15.921875 -1.421875 10.953125 3.296875 
Q 6 8.015625 6 15.921875 
Q 6 25.140625 12.171875 29.828125 
Q 18.359375 34.515625 30.609375 34.515625 
L 43.21875 34.515625 
L 43.21875 35.40625 
Q 43.21875 41.609375 39.140625 45 
Q 35.0625 48.390625 27.6875 48.390625 
Q 23 48.390625 18.546875 47.265625 
Q 14.109375 46.140625 10.015625 43.890625 
L 10.015625 52.203125 
Q 14.9375 54.109375 19.578125 55.046875 
Q 24.21875 56 28.609375 56 
Q 40.484375 56 46.34375 49.84375 
Q 52.203125 43.703125 52.203125 31.203125 
z
" id="DejaVuSans-61"/>
      <path d="M 54.890625 33.015625 
L 54.890625 0 
L 45.90625 0 
L 45.90625 32.71875 
Q 45.90625 40.484375 42.875 44.328125 
Q 39.84375 48.1875 33.796875 48.1875 
Q 26.515625 48.1875 22.3125 43.546875 
Q 18.109375 38.921875 18.109375 30.90625 
L 18.109375 0 
L 9.078125 0 
L 9.078125 54.6875 
L 18.109375 54.6875 
L 18.109375 46.1875 
Q 21.34375 51.125 25.703125 53.5625 
Q 30.078125 56 35.796875 56 
Q 45.21875 56 50.046875 50.171875 
Q 54.890625 44.34375 54.890625 33.015625 
z
" id="DejaVuSans-6e"/>
      <path d="M 48.78125 52.59375 
L 48.78125 44.1875 
Q 44.96875 46.296875 41.140625 47.34375 
Q 37.3125 48.390625 33.40625 48.390625 
Q 24.65625 48.390625 19.8125 42.84375 
Q 14.984375 37.3125 14.984375 27.296875 
Q 14.984375 17.28125 19.8125 11.734375 
Q 24.65625 6.203125 33.40625 6.203125 
Q 37.3125 6.203125 41.140625 7.25 
Q 44.96875 8.296875 48.78125 10.40625 
L 48.78125 2.09375 
Q 45.015625 0.34375 40.984375 -0.53125 
Q 36.96875 -1.421875 32.421875 -1.421875 
Q 20.0625 -1.421875 12.78125 6.34375 
Q 5.515625 14.109375 5.515625 27.296875 
Q 5.515625 40.671875 12.859375 48.328125 
Q 20.21875 56 33.015625 56 
Q 37.15625 56 41.109375 55.140625 
Q 45.0625 54.296875 48.78125 52.59375 
z
" id="DejaVuSans-63"/>
      <path id="DejaVuSans-20"/>
      <path d="M 39.40625 66.21875 
Q 28.65625 66.21875 22.328125 58.203125 
Q 16.015625 50.203125 16.015625 36.375 
Q 16.015625 22.609375 22.328125 14.59375 
Q 28.65625 6.59375 39.40625 6.59375 
Q 50.140625 6.59375 56.421875 14.59375 
Q 62.703125 22.609375 62.703125 36.375 
Q 62.703125 50.203125 56.421875 58.203125 
Q 50.140625 66.21875 39.40625 66.21875 
z
M 39.40625 74.21875 
Q 54.734375 74.21875 63.90625 63.9375 
Q 73.09375 53.65625 73.09375 36.375 
Q 73.09375 19.140625 63.90625 8.859375 
Q 54.734375 -1.421875 39.40625 -1.421875 
Q 24.03125 -1.421875 14.8125 8.828125 
Q 5.609375 19.09375 5.609375 36.375 
Q 5.609375 53.65625 14.8125 63.9375 
Q 24.03125 74.21875 39.40625 74.21875 
z
" id="DejaVuSans-4f"/>
      <path d="M 54.890625 33.015625 
L 54.890625 0 
L 45.90625 0 
L 45.90625 32.71875 
Q 45.90625 40.484375 42.875 44.328125 
Q 39.84375 48.1875 33.796875 48.1875 
Q 26.515625 48.1875 22.3125 43.546875 
Q 18.109375 38.921875 18.109375 30.90625 
L 18.109375 0 
L 9.078125 0 
L 9.078125 75.984375 
L 18.109375 75.984375 
L 18.109375 46.1875 
Q 21.34375 51.125 25.703125 53.5625 
Q 30.078125 56 35.796875 56 
Q 45.21875 56 50.046875 50.171875 
Q 54.890625 44.34375 54.890625 33.015625 
z
" id="DejaVuSans-68"/>
      <path d="M 52 44.1875 
Q 55.375 50.25 60.0625 53.125 
Q 64.75 56 71.09375 56 
Q 79.640625 56 84.28125 50.015625 
Q 88.921875 44.046875 88.921875 33.015625 
L 88.921875 0 
L 79.890625 0 
L 79.890625 32.71875 
Q 79.890625 40.578125 77.09375 44.375 
Q 74.3125 48.1875 68.609375 48.1875 
Q 61.625 48.1875 57.5625 43.546875 
Q 53.515625 38.921875 53.515625 30.90625 
L 53.515625 0 
L 44.484375 0 
L 44.484375 32.71875 
Q 44.484375 40.625 41.703125 44.40625 
Q 38.921875 48.1875 33.109375 48.1875 
Q 26.21875 48.1875 22.15625 43.53125 
Q 18.109375 38.875 18.109375 30.90625 
L 18.109375 0 
L 9.078125 0 
L 9.078125 54.6875 
L 18.109375 54.6875 
L 18.109375 46.1875 
Q 21.1875 51.21875 25.484375 53.609375 
Q 29.78125 56 35.6875 56 
Q 41.65625 56 45.828125 52.96875 
Q 50 49.953125 52 44.1875 
z
" id="DejaVuSans-6d"/>
     </defs>
     <g transform="translate(20.2375 219.158469)rotate(-90)scale(0.1 -0.1)">
      <use xlink:href="#DejaVuSans-52"/>
      <use x="69.419922" xlink:href="#DejaVuSans-65"/>
      <use x="130.943359" xlink:href="#DejaVuSans-73"/>
      <use x="183.042969" xlink:href="#DejaVuSans-69"/>
      <use x="210.826172" xlink:href="#DejaVuSans-73"/>
      <use x="262.925781" xlink:href="#DejaVuSans-74"/>
      <use x="302.134766" xlink:href="#DejaVuSans-61"/>
      <use x="363.414062" xlink:href="#DejaVuSans-6e"/>
      <use x="426.792969" xlink:href="#DejaVuSans-63"/>
      <use x="481.773438" xlink:href="#DejaVuSans-65"/>
      <use x="543.296875" xlink:href="#DejaVuSans-20"/>
      <use x="575.083984" xlink:href="#DejaVuSans-28"/>
      <use x="614.097656" xlink:href="#DejaVuSans-4f"/>
      <use x="692.808594" xlink:href="#DejaVuSans-68"/>
      <use x="756.1875" xlink:href="#DejaVuSans-6d"/>
      <use x="853.599609" xlink:href="#DejaVuSans-29"/>
     </g>
    </g>
    <g id="text_17">
     <!-- 1e10 -->
     <g transform="translate(57.6 38.472)scale(0.1 -0.1)">
      <use xlink:href="#DejaVuSans-31"/>
      <use x="63.623047" xlink:href="#DejaVuSans-65"/>
      <use x="125.146484" xlink:href="#DejaVuSans-31"/>
      <use x="188.769531" xlink:href="#DejaVuSans-30"/>
     </g>
    </g>
   </g>
   <g id="line2d_15">
    <path clip-path="url(#p15e7d69e95)" d="M 73.832727 245.085145 
L 128.633148 245.003043 
L 128.813556 244.902644 
L 128.993963 245.03228 
L 129.896002 245.064849 
L 130.07641 245.019967 
L 130.121512 244.922544 
L 130.166614 243.909941 
L 130.211716 245.347835 
L 130.347021 245.388427 
L 130.392123 241.225074 
L 130.437225 244.87955 
L 130.617633 245.051194 
L 131.158856 245.058093 
L 131.294207 244.947581 
L 131.339309 245.756288 
L 131.384411 245.239769 
L 131.474615 245.297129 
L 131.519717 243.908657 
L 131.564818 244.934844 
L 131.790328 245.066523 
L 132.376653 245.02878 
L 132.421755 244.879854 
L 132.466857 245.445586 
L 132.557061 245.218697 
L 132.647265 245.207451 
L 132.692367 245.344639 
L 132.737469 237.300945 
L 132.782571 244.920515 
L 132.962978 245.059271 
L 133.549303 245.050086 
L 133.639507 244.948887 
L 133.684609 245.40627 
L 133.774813 245.197552 
L 133.910119 245.248181 
L 133.955221 245.637848 
L 134.000323 244.851931 
L 134.090526 245.019647 
L 134.451342 245.071979 
L 135.172973 244.999377 
L 135.218075 244.652778 
L 135.263177 245.481594 
L 135.35338 245.218331 
L 135.533788 245.167708 
L 135.669094 245.209977 
L 135.759298 245.38431 
L 135.8044 246.790248 
L 135.849502 244.631616 
L 135.939705 244.913064 
L 136.165215 245.046549 
L 137.112356 245.059422 
L 137.518273 245.007118 
L 137.608477 244.923291 
L 137.653579 244.291055 
L 137.698681 245.572428 
L 137.788884 245.285039 
L 138.104598 245.171108 
L 138.871331 245.071588 
L 139.683165 245.00307 
L 139.728267 244.881013 
L 139.773369 245.66453 
L 139.818471 245.321546 
L 139.953777 245.181778 
L 140.675408 245.327546 
L 140.72051 246.40005 
L 140.765657 245.245025 
L 140.946245 245.153451 
L 141.126833 245.212596 
L 141.17198 245.341787 
L 141.217127 244.928569 
L 141.262229 245.358754 
L 141.397535 245.149989 
L 141.578001 245.150737 
L 141.893746 245.243353 
L 141.938852 245.423072 
L 141.983958 253.202908 
L 142.029065 244.028426 
L 142.164384 244.983135 
L 142.435023 245.054376 
L 143.337152 245.047732 
L 143.427364 244.978172 
L 143.472471 245.365755 
L 143.517577 245.184906 
L 143.74311 245.173008 
L 143.833322 245.393117 
L 143.878429 295.488 
L 143.923535 244.874634 
L 144.103961 245.05804 
L 144.735496 245.051642 
L 144.825709 244.97676 
L 144.870816 245.317698 
L 144.961028 245.153106 
L 145.186561 245.224389 
L 145.231667 245.900078 
L 145.276774 244.761647 
L 145.366986 245.036849 
L 145.772944 245.069867 
L 146.133796 244.971557 
L 146.178902 245.374833 
L 146.224009 245.180405 
L 146.539754 245.176587 
L 146.58486 245.208416 
L 146.629967 245.558444 
L 146.675073 247.017227 
L 146.72018 244.88262 
L 146.900605 245.059902 
L 147.622353 245.061306 
L 147.892992 244.957435 
L 147.938098 244.126921 
L 147.983205 245.25199 
L 148.163631 245.14798 
L 148.434269 245.213632 
L 148.524482 246.173493 
L 148.569589 244.702961 
L 148.659801 245.013663 
L 149.020653 245.069871 
L 149.967888 245.002568 
L 150.012995 244.946175 
L 150.058101 244.667235 
L 150.103207 245.273982 
L 150.19342 245.167848 
L 150.644485 245.204247 
L 150.734698 245.61039 
L 150.779804 242.21045 
L 150.82491 244.881941 
L 151.005336 245.045376 
L 152.042784 245.070897 
L 152.087891 244.96392 
L 152.132997 245.451229 
L 152.178104 245.173882 
L 152.493849 245.178714 
L 152.538955 245.189162 
L 152.629168 245.553657 
L 152.674274 243.915636 
L 152.719381 244.920387 
L 152.899807 245.045509 
L 153.937255 245.06994 
L 154.388319 245.067851 
L 154.433426 245.255438 
L 154.523638 245.163973 
L 154.839383 245.180328 
L 154.929596 245.248894 
L 154.974703 244.883126 
L 155.064916 245.018479 
L 155.380661 245.070469 
L 156.012151 245.028144 
L 156.057257 244.957116 
L 156.102364 243.031425 
L 156.14747 245.227076 
L 156.327896 245.142991 
L 156.598535 245.191925 
L 156.688747 245.39753 
L 156.733854 245.899513 
L 156.77896 244.788175 
L 156.869173 245.003708 
L 157.275131 245.067213 
L 159.530453 244.989171 
L 159.575559 244.941555 
L 159.620666 244.713163 
L 159.665772 245.793281 
L 159.710879 245.213159 
L 159.981517 245.140836 
L 160.297262 245.183857 
L 160.387475 245.400296 
L 160.432582 235.412284 
L 160.477688 244.92723 
L 160.658114 245.054123 
L 161.921094 245.070015 
L 163.093862 245.00578 
L 163.184074 244.917 
L 163.229181 244.567181 
L 163.274287 245.311186 
L 163.3645 245.15813 
L 163.770458 245.238804 
L 163.815565 245.296076 
L 163.860671 245.659013 
L 163.905777 244.871388 
L 163.99599 245.01096 
L 164.401948 245.068146 
L 165.39429 245.020169 
L 165.484503 244.791498 
L 165.529609 245.299883 
L 165.619822 245.157914 
L 166.251312 245.198983 
L 166.431738 245.428064 
L 166.476844 247.293344 
L 166.521951 244.858631 
L 166.702377 245.031432 
L 167.28876 245.062202 
L 167.469186 245.017036 
L 167.514293 244.885231 
L 167.559399 245.222586 
L 167.649612 245.150036 
L 167.875144 245.170312 
L 167.92025 245.203446 
L 167.965357 245.38466 
L 168.010463 244.772454 
L 168.100676 245.038832 
L 168.506634 245.069104 
L 168.912552 244.989371 
L 168.957654 244.753994 
L 169.002756 245.195011 
L 169.09296 245.135078 
L 169.363571 245.166125 
L 169.408673 245.885314 
L 169.45382 245.394856 
L 169.498922 244.843424 
L 169.589126 245.038041 
L 170.040145 245.069246 
L 170.716674 244.99693 
L 170.761776 245.329158 
L 170.806878 245.191056 
L 170.942229 245.063605 
L 171.348146 245.022686 
L 171.393248 245.722861 
L 171.43835 245.16547 
L 171.618758 245.154158 
L 171.66386 245.221028 
L 171.708962 245.499523 
L 171.754064 244.960871 
L 171.844268 245.052068 
L 172.250185 245.061338 
L 172.385491 244.985029 
L 172.430593 246.093495 
L 172.475695 245.173059 
L 172.746306 245.150973 
L 172.83651 245.254709 
L 172.881612 245.342923 
L 172.926714 244.838835 
L 173.016918 245.033222 
L 173.377733 245.067092 
L 173.558141 245.027755 
L 173.603243 244.817503 
L 173.648345 245.190195 
L 173.738549 245.135181 
L 173.918956 245.165918 
L 174.00916 245.377441 
L 174.054262 244.893085 
L 174.144466 245.039873 
L 174.550383 245.065147 
L 174.730791 244.968141 
L 174.775893 245.216017 
L 174.866097 245.135161 
L 175.046505 245.225863 
L 175.091606 245.404708 
L 175.136708 244.91772 
L 175.226912 245.044653 
L 175.63283 245.067559 
L 175.948543 245.024122 
L 175.993645 244.931849 
L 176.038747 245.483563 
L 176.083849 245.180357 
L 176.309359 245.132615 
L 176.489766 245.237863 
L 176.534868 245.339153 
L 176.57997 247.633608 
L 176.625072 244.902373 
L 176.850582 245.056021 
L 177.617314 245.041337 
L 177.707518 244.944953 
L 177.75262 245.65018 
L 177.797722 245.172587 
L 178.068334 245.132861 
L 178.293843 245.241178 
L 178.338945 245.489803 
L 178.384047 244.706088 
L 178.474251 245.016348 
L 178.789965 245.070218 
L 179.466493 245.016514 
L 179.556697 244.679163 
L 179.601799 245.197932 
L 179.692003 245.147602 
L 179.962615 245.151199 
L 180.09792 245.270786 
L 180.143022 245.572709 
L 180.188124 244.860806 
L 180.278328 245.035217 
L 180.774449 245.067303 
L 181.090163 244.990949 
L 181.135265 244.76759 
L 181.180367 245.211394 
L 181.270571 245.147237 
L 181.541182 245.155854 
L 181.631386 245.235606 
L 181.676488 245.34878 
L 181.72159 244.772257 
L 181.811794 245.022962 
L 182.217711 245.070283 
L 182.804036 245.014727 
L 182.849138 244.914676 
L 182.89424 244.172731 
L 182.939342 245.19557 
L 183.209953 245.131354 
L 183.435463 245.269451 
L 183.480565 191.881666 
L 183.525667 244.902725 
L 183.706075 245.055743 
L 184.382604 245.051793 
L 184.517909 244.986799 
L 184.563011 243.692586 
L 184.608113 245.191688 
L 184.833623 245.131971 
L 185.149336 245.222518 
L 185.23954 245.64207 
L 185.284642 244.559213 
L 185.374846 245.005917 
L 186.096477 245.070069 
L 186.457292 245.16884 
L 186.547496 245.34799 
L 186.592598 244.83854 
L 186.682802 245.025638 
L 187.088719 245.069724 
L 187.629942 245.013708 
L 187.675044 244.548795 
L 187.720146 245.186684 
L 187.900554 245.131942 
L 188.080962 245.215186 
L 188.126064 245.283575 
L 188.171166 241.161873 
L 188.216267 244.927625 
L 188.396675 245.059494 
L 189.118306 245.052716 
L 189.20851 245.013979 
L 189.253612 244.802245 
L 189.298714 245.239583 
L 189.388918 245.143912 
L 189.659529 245.151832 
L 189.794835 245.308945 
L 189.839937 244.816678 
L 189.930141 245.039326 
L 190.290956 245.065988 
L 190.471364 245.029931 
L 190.516466 244.925623 
L 190.561568 245.257695 
L 190.651772 245.140568 
L 190.967485 245.179922 
L 191.102791 245.288196 
L 191.147893 245.525262 
L 191.192995 244.336667 
L 191.238097 244.874253 
L 191.463606 245.034011 
L 192.636256 245.070115 
L 193.402989 245.00917 
L 193.448091 244.764043 
L 193.493193 245.231196 
L 193.583397 245.143856 
L 193.89911 245.14456 
L 194.485435 245.293521 
L 194.530537 245.35449 
L 194.575639 246.060873 
L 194.620741 244.663341 
L 194.710945 244.979564 
L 195.026659 245.067002 
L 195.838493 245.015772 
L 195.883595 244.954261 
L 195.928697 244.585132 
L 195.973799 245.278985 
L 196.064003 245.147701 
L 196.46992 245.213788 
L 196.515022 245.312417 
L 196.560124 244.885045 
L 196.650328 245.0359 
L 197.056245 245.069814 
L 197.597468 245.021321 
L 197.64257 244.95109 
L 197.687672 239.063519 
L 197.732774 245.184303 
L 197.958284 245.128816 
L 198.364201 245.214165 
L 198.409303 245.282622 
L 198.454405 248.727651 
L 198.499507 244.80916 
L 198.725017 245.20726 
L 198.905515 245.259802 
L 198.995763 245.367808 
L 199.085967 244.185667 
L 199.131114 244.665419 
L 199.221318 245.06164 
L 199.311612 245.037087 
L 199.492155 244.780542 
L 199.537302 245.286936 
L 199.627596 245.165707 
L 199.853196 245.203945 
L 199.898298 245.267291 
L 199.9434 53.568 
L 199.988502 244.895568 
L 200.16891 245.053331 
L 201.161197 245.065798 
L 202.108338 245.044168 
L 202.333847 245.393499 
L 202.378949 244.576361 
L 202.424051 244.866185 
L 202.604459 245.030053 
L 203.416294 245.067898 
L 204.769351 244.944439 
L 204.814453 245.197813 
L 204.904657 245.147228 
L 205.67139 245.163315 
L 205.806696 245.30165 
L 205.851798 243.97432 
L 205.8969 244.75443 
L 206.032205 245.034506 
L 206.708734 245.069928 
L 207.836283 244.996908 
L 207.881384 244.842196 
L 207.926486 241.112705 
L 207.971588 245.195915 
L 208.197098 245.130659 
L 208.557913 245.201481 
L 208.648117 245.403959 
L 208.693219 244.677258 
L 208.783423 244.9951 
L 209.054035 245.066356 
L 210.001175 245.009446 
L 210.046277 244.957077 
L 210.091379 244.719687 
L 210.136481 245.538888 
L 210.181583 245.180579 
L 210.452194 245.127603 
L 211.624844 245.26781 
L 211.850354 245.464009 
L 211.895456 245.907803 
L 211.940558 241.84057 
L 211.98566 244.412166 
L 212.120966 244.900528 
L 212.166068 244.941977 
L 212.256317 246.335097 
L 212.301418 242.586349 
L 212.34652 244.732199 
L 212.526928 244.996465 
L 212.842642 245.043704 
L 213.564272 245.015928 
L 213.699578 244.87437 
L 213.74468 244.779738 
L 213.789782 244.38346 
L 213.834884 245.497712 
L 213.925088 245.238527 
L 214.331005 245.209752 
L 214.466311 245.307978 
L 214.511413 245.486063 
L 214.556515 244.413532 
L 214.601617 244.778062 
L 214.782025 245.033879 
L 215.864471 245.069624 
L 217.307732 244.977653 
L 217.352834 244.864354 
L 217.397936 240.175129 
L 217.443038 245.297315 
L 217.578344 245.162901 
L 218.254873 245.135275 
L 218.525485 245.195495 
L 218.570586 245.680975 
L 218.615688 244.780516 
L 218.705892 245.028805 
L 219.292217 245.064705 
L 219.472625 245.068023 
L 219.517727 244.84725 
L 219.562829 246.674719 
L 219.607931 245.065284 
L 220.194256 245.146112 
L 220.239358 245.188116 
L 220.28446 245.660676 
L 220.329562 244.963668 
L 220.419765 244.993877 
L 221.412008 245.069021 
L 223.125881 245.001755 
L 223.170983 244.938964 
L 223.216085 244.41442 
L 223.261187 245.456418 
L 223.351391 245.160185 
L 223.712206 245.126261 
L 224.478939 245.226088 
L 224.524041 245.288569 
L 224.569143 245.593995 
L 224.614245 244.622502 
L 224.704449 244.970248 
L 224.97506 245.053345 
L 226.192812 245.063832 
L 227.54587 244.981492 
L 227.590972 244.621575 
L 227.636074 245.193779 
L 227.726278 245.13785 
L 228.267501 245.193926 
L 228.312603 245.246389 
L 228.402807 247.069085 
L 228.447909 244.871429 
L 228.538112 244.996478 
L 228.853826 245.04651 
L 231.244228 244.933915 
L 231.28933 243.73758 
L 231.334432 245.276463 
L 231.469738 245.137458 
L 232.056063 245.182678 
L 232.101165 244.64438 
L 232.146267 244.934888 
L 232.326674 245.04998 
L 233.228713 245.068101 
L 234.220955 245.014826 
L 234.266057 244.944993 
L 234.311159 243.959749 
L 234.356261 245.258801 
L 234.536669 245.137035 
L 234.717077 245.126499 
L 236.611358 245.033109 
L 236.701561 244.918592 
L 236.746663 246.830976 
L 236.791765 245.176691 
L 237.062377 245.125959 
L 237.37809 245.219435 
L 237.423192 245.361 
L 237.468294 244.130732 
L 237.513396 244.879341 
L 237.693804 245.040721 
L 238.370333 245.069147 
L 239.317473 245.007167 
L 239.362575 244.96447 
L 239.407677 244.756827 
L 239.452779 247.451347 
L 239.497881 245.157861 
L 240.039104 245.184704 
L 240.084206 245.226321 
L 240.129308 246.071693 
L 240.17441 244.877342 
L 240.354818 245.056166 
L 241.031346 245.055702 
L 241.211754 244.984424 
L 241.256856 244.542317 
L 241.301958 245.323562 
L 241.392162 245.138451 
L 241.707875 245.174069 
L 241.752977 245.216506 
L 241.798079 244.640824 
L 241.843181 245.005147 
L 242.068691 245.069378 
L 242.339302 244.974381 
L 242.384404 245.413725 
L 242.429506 245.149124 
L 242.790322 245.146491 
L 242.925627 245.240705 
L 242.970729 247.492528 
L 243.015831 244.869026 
L 243.196239 245.058229 
L 243.782564 245.049803 
L 243.91787 244.939219 
L 243.962972 246.218567 
L 244.008074 245.177471 
L 244.233583 245.126358 
L 244.459093 245.225426 
L 244.504195 245.610167 
L 244.549297 244.869148 
L 244.639501 245.038783 
L 245.000316 245.067227 
L 245.270928 245.015515 
L 245.31603 244.932581 
L 245.361132 245.501273 
L 245.406233 245.158721 
L 245.676845 245.132862 
L 245.857253 245.210461 
L 245.902355 245.543841 
L 245.947457 244.806945 
L 246.03766 245.026632 
L 246.398476 245.069621 
L 246.984801 244.990113 
L 247.029903 244.0235 
L 247.075005 245.197909 
L 247.255412 245.125055 
L 247.480922 245.198327 
L 247.526024 245.295912 
L 247.571126 244.803213 
L 247.66133 245.033951 
L 248.067247 245.06906 
L 248.518266 244.989159 
L 248.563368 244.700789 
L 248.60847 246.07901 
L 248.653572 245.193003 
L 248.879082 245.134539 
L 249.645815 245.227515 
L 249.690917 245.358591 
L 249.736019 215.162143 
L 249.78112 244.710457 
L 249.961528 245.032629 
L 250.638057 245.069495 
L 251.314586 245.06819 
L 251.359688 245.197844 
L 251.449892 245.14454 
L 252.036217 245.131829 
L 252.442134 245.223707 
L 252.487236 245.322879 
L 252.532338 246.68518 
L 252.57744 244.741237 
L 252.757848 245.013056 
L 253.344173 245.031283 
L 253.569682 244.878836 
L 253.614784 244.60715 
L 253.659886 245.915569 
L 253.704988 245.247444 
L 253.9756 245.142168 
L 255.193352 245.124626 
L 256.050288 245.225878 
L 256.140492 245.487872 
L 256.185594 246.071874 
L 256.230696 244.624699 
L 256.3209 244.949273 
L 256.771919 245.055407 
L 258.034773 244.972186 
L 258.124977 244.870797 
L 258.170079 244.622693 
L 258.215181 253.636594 
L 258.260283 245.382271 
L 258.395589 245.178497 
L 258.621098 245.123925 
L 258.756404 245.154472 
L 258.801506 245.477243 
L 258.846608 244.984355 
L 258.936812 245.051625 
L 259.432978 245.03397 
L 259.47808 244.978098 
L 259.523182 244.257297 
L 259.568284 245.231682 
L 259.793794 245.123911 
L 259.929099 245.158973 
L 259.974201 247.667938 
L 260.019303 244.978159 
L 260.199711 245.061775 
L 261.056647 244.986412 
L 261.101749 244.803986 
L 261.146851 245.998526 
L 261.191953 245.214255 
L 261.462565 245.125901 
L 261.642973 245.151374 
L 261.688074 245.247015 
L 261.733176 244.781705 
L 261.778278 245.006488 
L 262.003788 245.06565 
L 262.409705 245.015939 
L 262.454807 244.901596 
L 262.499909 245.731795 
L 262.545011 245.199421 
L 262.815623 245.124206 
L 262.99603 245.18645 
L 263.041132 252.809809 
L 263.086234 244.991536 
L 263.311744 245.064204 
L 263.717661 245.02247 
L 263.762763 239.824905 
L 263.807865 245.021758 
L 263.852967 244.962383 
L 263.898069 244.238989 
L 263.943171 245.225026 
L 264.078477 245.133331 
L 264.303986 245.154144 
L 264.349088 246.010071 
L 264.39419 245.001474 
L 264.6197 245.067107 
L 264.935413 244.976262 
L 264.980515 245.960296 
L 265.025617 245.185179 
L 265.251127 245.124204 
L 265.341331 245.197598 
L 265.386433 244.875165 
L 265.431534 245.024041 
L 265.747248 245.069249 
L 266.108063 244.986735 
L 266.153165 244.801802 
L 266.198267 245.454284 
L 266.288471 245.170008 
L 266.513981 245.142234 
L 266.559083 245.766243 
L 266.604185 244.981211 
L 266.784592 245.063113 
L 267.145408 245.036845 
L 267.19051 244.745924 
L 267.235612 245.198851 
L 267.325815 245.132635 
L 267.551325 245.01892 
L 267.596472 245.361711 
L 267.641619 245.145958 
L 268.138236 244.993999 
L 268.183383 245.210362 
L 268.273587 245.157973 
L 268.409028 245.143453 
L 268.45413 245.208942 
L 268.499232 244.82955 
L 268.544334 245.009073 
L 268.814991 245.068835 
L 269.130704 245.009942 
L 269.175806 244.676131 
L 269.220908 245.276435 
L 269.311112 245.142206 
L 269.581724 245.143877 
L 269.626826 245.230443 
L 269.671928 244.897151 
L 269.762131 245.046377 
L 270.303355 245.056353 
L 270.43866 244.918636 
L 270.483762 246.268761 
L 270.528864 245.196149 
L 270.799521 245.134907 
L 270.844623 245.175351 
L 270.889725 244.71603 
L 270.934827 245.017664 
L 271.205438 245.068648 
L 271.521152 245.027848 
L 271.566254 244.943378 
L 271.611356 243.031316 
L 271.656457 245.208792 
L 271.927069 245.125042 
L 272.062375 245.159463 
L 272.107477 240.692983 
L 272.152579 245.005618 
L 272.42319 245.067925 
L 272.693802 245.000553 
L 272.738904 246.248667 
L 272.784006 245.180765 
L 272.964413 245.123982 
L 273.009515 245.140362 
L 273.054617 245.786089 
L 273.099719 245.009124 
L 273.325229 245.068036 
L 273.59584 245.02285 
L 273.640942 244.83953 
L 273.686044 245.250487 
L 273.776248 245.138169 
L 273.956656 245.151885 
L 274.001758 244.123014 
L 274.04686 245.023544 
L 274.317471 245.069226 
L 274.542981 244.989202 
L 274.588083 246.456558 
L 274.633185 245.191831 
L 274.858694 245.130202 
L 274.903796 245.152516 
L 274.948898 247.214854 
L 274.994 245.01445 
L 275.264612 245.069277 
L 275.625427 245.006598 
L 275.670529 244.899509 
L 275.715631 245.660963 
L 275.760733 245.203212 
L 276.031344 245.12334 
L 276.211752 245.199501 
L 276.256854 243.1238 
L 276.301956 244.984994 
L 276.527466 245.058932 
L 278.602154 245.061375 
L 279.053174 244.944918 
L 279.098276 243.814596 
L 279.143377 245.360297 
L 279.278683 245.133948 
L 279.955212 245.190608 
L 280.045416 245.296494 
L 280.090518 245.749685 
L 280.13562 243.727941 
L 280.180722 244.78523 
L 280.361129 245.017571 
L 283.202551 245.068289 
L 283.563592 245.025793 
L 283.608739 244.885499 
L 283.653886 245.225288 
L 283.74418 245.13812 
L 284.014972 245.13401 
L 284.060119 245.253187 
L 284.240572 244.812909 
L 284.285674 244.675125 
L 284.330776 243.417952 
L 284.375878 245.068792 
L 284.511228 244.925252 
L 284.646534 245.06747 
L 285.638777 245.190295 
L 285.774082 245.313279 
L 285.864286 246.303332 
L 285.909388 251.976933 
L 285.95449 243.570995 
L 286.044694 244.695726 
L 286.089796 246.127393 
L 286.134898 245.37187 
L 286.315306 245.192362 
L 286.585917 245.147014 
L 288.164485 245.04076 
L 289.201964 245.062751 
L 290.058901 244.99805 
L 290.104003 244.756628 
L 290.149105 245.400724 
L 290.239309 245.145628 
L 290.600124 245.139106 
L 290.73543 245.192748 
L 290.780532 245.361462 
L 290.825634 244.676302 
L 290.870736 244.971517 
L 291.051143 245.063702 
L 292.13359 245.028541 
L 292.223793 244.975825 
L 292.268895 244.69926 
L 292.313997 245.558053 
L 292.359099 245.186523 
L 292.584609 245.123734 
L 292.945424 245.199079 
L 292.990526 245.425137 
L 293.035628 244.019944 
L 293.08073 244.917447 
L 293.261138 245.054763 
L 294.072972 245.049819 
L 294.208278 245.00489 
L 294.25338 244.901853 
L 294.298482 245.631309 
L 294.343584 245.17843 
L 294.614196 245.123277 
L 294.975011 245.196584 
L 295.020113 245.362294 
L 295.065215 244.384369 
L 295.110317 244.940845 
L 295.290725 245.05721 
L 296.012355 245.05445 
L 296.237865 244.942838 
L 296.282967 242.767642 
L 296.328069 245.389009 
L 296.463375 245.134255 
L 297.139904 245.211676 
L 297.230107 245.387001 
L 297.275209 286.725816 
L 297.320311 244.589727 
L 297.500719 245.002619 
L 298.177248 245.06706 
L 299.485204 244.975003 
L 299.530306 244.215053 
L 299.575408 245.243459 
L 299.710713 245.132319 
L 300.251937 245.139181 
L 301.424587 245.194719 
L 301.469689 245.273059 
L 301.514791 245.747454 
L 301.559892 244.584799 
L 301.650096 245.005044 
L 301.920753 245.060359 
L 302.191545 245.013876 
L 302.236692 244.943274 
L 302.281839 244.505679 
L 302.326986 245.315963 
L 302.41728 245.173659 
L 302.462382 245.219735 
L 302.507484 245.689211 
L 302.552586 244.7983 
L 302.64279 245.018398 
L 302.687937 244.918136 
L 302.733084 245.716986 
L 302.778231 245.199169 
L 302.86848 245.188079 
L 302.958684 245.565561 
L 303.003786 244.643081 
L 303.048933 245.262051 
L 303.094035 246.80283 
L 303.139136 244.809865 
L 303.319544 245.050565 
L 303.409748 245.129367 
L 303.545099 245.066884 
L 303.725507 245.382801 
L 303.770609 244.145574 
L 303.81571 244.9559 
L 303.951016 245.050304 
L 304.04122 244.948675 
L 304.086322 245.218051 
L 304.176526 245.132335 
L 304.492239 245.176385 
L 304.537341 245.28472 
L 304.582443 244.60711 
L 304.627545 244.989892 
L 304.853055 245.067113 
L 305.574686 244.986417 
L 305.619788 244.784424 
L 305.66489 245.334818 
L 305.755093 245.138787 
L 306.792438 244.887674 
L 306.83754 245.351871 
L 306.927744 245.133321 
L 307.423865 245.171904 
L 307.514069 245.299285 
L 307.55917 243.111736 
L 307.604272 244.909929 
L 307.78468 245.057176 
L 308.461209 245.050141 
L 308.551413 244.997742 
L 308.596515 246.866727 
L 308.641617 245.158764 
L 308.912228 245.129389 
L 309.092636 245.228099 
L 309.137738 241.702222 
L 309.18284 244.926406 
L 309.363248 245.064084 
L 309.859369 245.029187 
L 309.904471 244.980085 
L 309.949573 245.489427 
L 309.994675 245.149682 
L 310.310388 245.140074 
L 310.445694 245.305412 
L 310.490796 244.417635 
L 310.535898 244.951502 
L 310.716305 245.05633 
L 311.257529 245.055292 
L 311.392834 244.912602 
L 311.437936 245.305363 
L 311.52814 245.131986 
L 311.798752 245.166538 
L 311.843854 245.251792 
L 311.888956 244.730853 
L 311.934057 245.008762 
L 312.069408 245.050101 
L 312.610631 245.057243 
L 312.791039 244.983099 
L 312.836141 244.796485 
L 312.881243 245.280492 
L 312.971447 245.133167 
L 313.422466 245.186876 
L 313.467568 245.318443 
L 313.51267 244.762412 
L 313.557772 245.004779 
L 313.783282 245.068427 
L 314.144097 245.004216 
L 314.189199 238.38906 
L 314.234301 245.165668 
L 314.504912 245.123132 
L 314.730422 245.187134 
L 314.775524 245.382436 
L 314.820626 244.033983 
L 314.865728 244.951153 
L 315.046136 245.057831 
L 315.722665 245.04095 
L 315.812868 244.984728 
L 315.903072 245.236342 
L 315.948174 245.150461 
L 316.263888 245.137235 
L 316.354092 245.192435 
L 316.399193 246.118584 
L 316.44434 245.833024 
L 316.489442 244.970184 
L 316.579646 245.056963 
L 317.030666 245.037153 
L 317.075767 244.992862 
L 317.120869 247.025311 
L 317.165971 245.178073 
L 317.391481 245.122143 
L 317.616991 245.2001 
L 317.662093 246.443118 
L 317.707194 244.922574 
L 317.887602 245.066067 
L 318.473927 245.032437 
L 318.519029 244.326415 
L 318.564131 245.032111 
L 318.609233 245.164262 
L 318.699437 245.13285 
L 319.46617 245.204536 
L 319.511272 245.405497 
L 319.556373 242.874531 
L 319.601475 244.87674 
L 319.781883 245.053221 
L 320.458412 245.060268 
L 320.683922 244.952491 
L 320.729024 245.569743 
L 320.774126 245.177594 
L 320.999725 245.132171 
L 321.270562 245.155921 
L 321.315709 245.208251 
L 321.360857 245.530309 
L 321.406004 244.892821 
L 321.496298 245.016101 
L 321.586547 244.973661 
L 321.631648 245.555094 
L 321.67675 245.149718 
L 322.037701 245.121643 
L 322.218109 245.179215 
L 322.263211 245.282837 
L 322.308313 244.604957 
L 322.353415 244.988598 
L 322.578924 245.066993 
L 323.210396 245.003184 
L 323.255498 250.320081 
L 323.3006 245.169533 
L 323.52611 245.127357 
L 323.661416 245.234775 
L 323.706518 244.717848 
L 323.751619 245.01838 
L 323.977129 245.068868 
L 324.608556 244.986608 
L 324.653658 244.729867 
L 324.69876 246.099956 
L 324.743862 245.155777 
L 325.330277 245.165033 
L 325.420481 245.254858 
L 325.465583 245.989209 
L 325.510685 244.949153 
L 325.781296 245.058378 
L 325.826398 245.032716 
L 325.8715 244.674451 
L 325.916602 245.222607 
L 326.006806 245.12992 
L 326.412723 245.167049 
L 326.502927 245.293191 
L 326.548029 250.787631 
L 326.593131 244.891044 
L 326.773539 245.052676 
L 327.450068 245.053856 
L 327.630475 244.984568 
L 327.675577 243.942319 
L 327.720679 245.25842 
L 327.901087 245.121817 
L 328.216801 245.171177 
L 328.261902 245.264197 
L 328.307004 244.724573 
L 328.352106 245.009775 
L 328.622718 245.068699 
L 329.028635 244.952076 
L 329.073737 245.673366 
L 329.118839 245.162341 
L 329.389451 245.122696 
L 329.61496 245.195697 
L 329.660062 245.454684 
L 329.705164 244.814037 
L 329.795368 245.034243 
L 330.111082 245.067889 
L 330.471897 244.996388 
L 330.516999 244.673362 
L 330.562101 245.346197 
L 330.652305 245.133457 
L 331.058222 245.168154 
L 331.148426 245.411784 
L 331.193528 244.765017 
L 331.283732 245.02443 
L 331.644547 245.068418 
L 332.230872 244.979226 
L 332.275974 251.557766 
L 332.321076 245.195406 
L 332.501484 245.120805 
L 333.67481 245.188101 
L 333.719912 245.489394 
L 333.765014 244.891051 
L 333.855218 245.051834 
L 334.351339 245.053525 
L 334.441543 245.007957 
L 334.486645 244.680894 
L 334.531747 245.229924 
L 334.621951 245.130721 
L 335.027868 245.143163 
L 335.208276 245.21949 
L 335.253378 245.415484 
L 335.29848 242.88456 
L 335.343582 244.909534 
L 335.523989 245.054113 
L 336.155416 245.058511 
L 336.426028 244.938399 
L 336.47113 243.571071 
L 336.516232 245.383018 
L 336.651538 245.141921 
L 337.282965 245.121494 
L 337.733984 245.225979 
L 337.779086 245.575666 
L 337.824188 244.861733 
L 337.914392 245.017926 
L 338.365411 245.065561 
L 340.575405 244.97743 
L 340.710711 244.887269 
L 340.846017 245.123383 
L 343.010954 245.126354 
L 343.101158 245.150756 
L 343.14626 245.585602 
L 343.191362 245.007503 
L 343.461974 245.066646 
L 344.048299 245.024945 
L 344.093401 244.924854 
L 344.138503 244.033963 
L 344.183605 245.525227 
L 344.273808 245.164796 
L 345.085643 244.85377 
L 345.130745 244.108167 
L 345.175847 245.713326 
L 345.266051 245.188238 
L 345.807274 245.123251 
L 345.987682 245.185836 
L 346.032784 257.856736 
L 346.077886 244.951389 
L 346.258293 245.049756 
L 347.11523 245.052037 
L 347.295638 244.973361 
L 347.34074 244.865044 
L 347.385841 244.209412 
L 347.430943 245.535302 
L 347.521147 245.208515 
L 347.927065 245.127177 
L 348.964409 245.200695 
L 349.144817 245.532605 
L 349.189919 245.732342 
L 349.23502 244.265884 
L 349.325224 244.93958 
L 349.550734 245.007052 
L 349.911549 244.934966 
L 349.956651 244.650007 
L 350.001753 249.998055 
L 350.046855 245.437589 
L 350.227263 245.162714 
L 350.723384 245.161316 
L 350.813588 245.229131 
L 350.903792 245.561127 
L 350.948894 228.573713 
L 350.993996 244.813459 
L 351.174403 245.016103 
L 351.760728 245.067436 
L 362.721354 244.989524 
L 362.766456 244.96171 
L 362.811558 244.632407 
L 362.85666 246.209364 
L 362.901762 245.268285 
L 363.082169 245.059264 
L 364.615635 245.211486 
L 364.660737 245.498974 
L 364.705839 244.120962 
L 364.750941 244.896286 
L 364.931348 245.052259 
L 365.788285 245.062231 
L 366.284406 244.982986 
L 366.37461 244.742532 
L 366.419712 246.422289 
L 366.464814 245.396683 
L 366.645222 245.140706 
L 367.32175 245.125031 
L 367.77277 245.250926 
L 367.817872 245.366525 
L 367.862974 248.857493 
L 367.908076 244.436289 
L 368.043381 245.009227 
L 368.584604 245.068515 
L 369.621949 244.981127 
L 369.667051 244.826509 
L 369.712153 245.538513 
L 369.757255 245.21385 
L 369.937662 245.128882 
L 370.884803 245.196367 
L 370.929905 245.227921 
L 370.975007 245.435777 
L 371.020109 250.101175 
L 371.06521 244.712108 
L 371.245618 245.020349 
L 371.741739 245.06893 
L 373.951779 244.981693 
L 373.996881 244.818632 
L 374.041983 245.52687 
L 374.087085 245.233858 
L 374.267492 245.130375 
L 377.424627 245.11991 
L 377.740341 245.194186 
L 377.830545 245.517188 
L 377.875647 243.826402 
L 377.920749 244.897828 
L 378.101156 245.035456 
L 378.912991 245.048531 
L 379.183603 244.914214 
L 379.228704 244.521542 
L 379.273806 245.266207 
L 379.36401 244.977482 
L 379.58952 245.063098 
L 380.446457 245.022862 
L 380.491558 244.986308 
L 380.53666 244.725964 
L 380.581762 245.371568 
L 380.671966 245.144606 
L 381.077884 245.128488 
L 381.258291 245.223568 
L 381.303393 239.794665 
L 381.348495 244.966425 
L 381.528903 245.0666 
L 382.115228 245.00238 
L 382.16033 244.869671 
L 382.205432 245.430667 
L 382.250534 245.270865 
L 382.385839 245.128554 
L 382.927063 245.170119 
L 383.017266 245.333904 
L 383.062368 244.441091 
L 383.10747 244.958609 
L 383.33298 245.058126 
L 384.099713 245.044065 
L 384.189917 244.959979 
L 384.235018 245.917913 
L 384.28012 245.177947 
L 384.50563 245.120948 
L 385.091955 245.181256 
L 385.137057 245.223313 
L 385.182159 245.667352 
L 385.227261 244.587418 
L 385.317465 245.011806 
L 385.67828 245.068443 
L 386.805828 244.97356 
L 387.30195 244.747036 
L 387.392153 244.653198 
L 387.482357 244.859317 
L 387.572561 244.418247 
L 387.662765 244.64089 
L 387.798071 244.70904 
L 387.843173 247.962577 
L 387.888275 245.541297 
L 388.068682 245.158665 
L 388.519702 245.119487 
L 390.413983 245.213693 
L 390.459084 245.684707 
L 390.504186 244.811973 
L 390.59439 245.028598 
L 391.000308 245.068829 
L 392.939691 244.957314 
L 392.984792 244.920432 
L 393.029894 244.542701 
L 393.074996 245.705653 
L 393.1652 245.189629 
L 393.39071 245.145327 
L 394.022137 245.122506 
L 394.157443 245.120797 
L 394.202544 246.47441 
L 394.247646 245.121401 
L 394.292748 244.924437 
L 394.382952 244.996052 
L 395.375195 245.050761 
L 396.006622 244.963741 
L 396.051724 244.835103 
L 396.096825 242.302 
L 396.141927 245.412811 
L 396.277233 245.164939 
L 396.953762 245.124375 
L 398.487273 245.171621 
L 398.487273 245.171621 
" style="fill:none;stroke:#1f77b4;stroke-linecap:square;stroke-width:1.5;"/>
   </g>
   <g id="patch_3">
    <path d="M 57.6 307.584 
L 57.6 41.472 
" style="fill:none;stroke:#000000;stroke-linecap:square;stroke-linejoin:miter;stroke-width:0.8;"/>
   </g>
   <g id="patch_4">
    <path d="M 414.72 307.584 
L 414.72 41.472 
" style="fill:none;stroke:#000000;stroke-linecap:square;stroke-linejoin:miter;stroke-width:0.8;"/>
   </g>
   <g id="patch_5">
    <path d="M 57.6 307.584 
L 414.72 307.584 
" style="fill:none;stroke:#000000;stroke-linecap:square;stroke-linejoin:miter;stroke-width:0.8;"/>
   </g>
   <g id="patch_6">
    <path d="M 57.6 41.472 
L 414.72 41.472 
" style="fill:none;stroke:#000000;stroke-linecap:square;stroke-linejoin:miter;stroke-width:0.8;"/>
   </g>
   <g id="text_18">
    <!-- Resistance with source voltage 100.0 mV -->
    <defs>
     <path d="M 4.203125 54.6875 
L 13.1875 54.6875 
L 24.421875 12.015625 
L 35.59375 54.6875 
L 46.1875 54.6875 
L 57.421875 12.015625 
L 68.609375 54.6875 
L 77.59375 54.6875 
L 63.28125 0 
L 52.6875 0 
L 40.921875 44.828125 
L 29.109375 0 
L 18.5 0 
z
" id="DejaVuSans-77"/>
     <path d="M 30.609375 48.390625 
Q 23.390625 48.390625 19.1875 42.75 
Q 14.984375 37.109375 14.984375 27.296875 
Q 14.984375 17.484375 19.15625 11.84375 
Q 23.34375 6.203125 30.609375 6.203125 
Q 37.796875 6.203125 41.984375 11.859375 
Q 46.1875 17.53125 46.1875 27.296875 
Q 46.1875 37.015625 41.984375 42.703125 
Q 37.796875 48.390625 30.609375 48.390625 
z
M 30.609375 56 
Q 42.328125 56 49.015625 48.375 
Q 55.71875 40.765625 55.71875 27.296875 
Q 55.71875 13.875 49.015625 6.21875 
Q 42.328125 -1.421875 30.609375 -1.421875 
Q 18.84375 -1.421875 12.171875 6.21875 
Q 5.515625 13.875 5.515625 27.296875 
Q 5.515625 40.765625 12.171875 48.375 
Q 18.84375 56 30.609375 56 
z
" id="DejaVuSans-6f"/>
     <path d="M 8.5 21.578125 
L 8.5 54.6875 
L 17.484375 54.6875 
L 17.484375 21.921875 
Q 17.484375 14.15625 20.5 10.265625 
Q 23.53125 6.390625 29.59375 6.390625 
Q 36.859375 6.390625 41.078125 11.03125 
Q 45.3125 15.671875 45.3125 23.6875 
L 45.3125 54.6875 
L 54.296875 54.6875 
L 54.296875 0 
L 45.3125 0 
L 45.3125 8.40625 
Q 42.046875 3.421875 37.71875 1 
Q 33.40625 -1.421875 27.6875 -1.421875 
Q 18.265625 -1.421875 13.375 4.4375 
Q 8.5 10.296875 8.5 21.578125 
z
M 31.109375 56 
z
" id="DejaVuSans-75"/>
     <path d="M 41.109375 46.296875 
Q 39.59375 47.171875 37.8125 47.578125 
Q 36.03125 48 33.890625 48 
Q 26.265625 48 22.1875 43.046875 
Q 18.109375 38.09375 18.109375 28.8125 
L 18.109375 0 
L 9.078125 0 
L 9.078125 54.6875 
L 18.109375 54.6875 
L 18.109375 46.1875 
Q 20.953125 51.171875 25.484375 53.578125 
Q 30.03125 56 36.53125 56 
Q 37.453125 56 38.578125 55.875 
Q 39.703125 55.765625 41.0625 55.515625 
z
" id="DejaVuSans-72"/>
     <path d="M 2.984375 54.6875 
L 12.5 54.6875 
L 29.59375 8.796875 
L 46.6875 54.6875 
L 56.203125 54.6875 
L 35.6875 0 
L 23.484375 0 
z
" id="DejaVuSans-76"/>
     <path d="M 9.421875 75.984375 
L 18.40625 75.984375 
L 18.40625 0 
L 9.421875 0 
z
" id="DejaVuSans-6c"/>
     <path d="M 45.40625 27.984375 
Q 45.40625 37.75 41.375 43.109375 
Q 37.359375 48.484375 30.078125 48.484375 
Q 22.859375 48.484375 18.828125 43.109375 
Q 14.796875 37.75 14.796875 27.984375 
Q 14.796875 18.265625 18.828125 12.890625 
Q 22.859375 7.515625 30.078125 7.515625 
Q 37.359375 7.515625 41.375 12.890625 
Q 45.40625 18.265625 45.40625 27.984375 
z
M 54.390625 6.78125 
Q 54.390625 -7.171875 48.1875 -13.984375 
Q 42 -20.796875 29.203125 -20.796875 
Q 24.46875 -20.796875 20.265625 -20.09375 
Q 16.0625 -19.390625 12.109375 -17.921875 
L 12.109375 -9.1875 
Q 16.0625 -11.328125 19.921875 -12.34375 
Q 23.78125 -13.375 27.78125 -13.375 
Q 36.625 -13.375 41.015625 -8.765625 
Q 45.40625 -4.15625 45.40625 5.171875 
L 45.40625 9.625 
Q 42.625 4.78125 38.28125 2.390625 
Q 33.9375 0 27.875 0 
Q 17.828125 0 11.671875 7.65625 
Q 5.515625 15.328125 5.515625 27.984375 
Q 5.515625 40.671875 11.671875 48.328125 
Q 17.828125 56 27.875 56 
Q 33.9375 56 38.28125 53.609375 
Q 42.625 51.21875 45.40625 46.390625 
L 45.40625 54.6875 
L 54.390625 54.6875 
z
" id="DejaVuSans-67"/>
     <path d="M 28.609375 0 
L 0.78125 72.90625 
L 11.078125 72.90625 
L 34.1875 11.53125 
L 57.328125 72.90625 
L 67.578125 72.90625 
L 39.796875 0 
z
" id="DejaVuSans-56"/>
    </defs>
    <g transform="translate(111.699375 35.472)scale(0.12 -0.12)">
     <use xlink:href="#DejaVuSans-52"/>
     <use x="69.419922" xlink:href="#DejaVuSans-65"/>
     <use x="130.943359" xlink:href="#DejaVuSans-73"/>
     <use x="183.042969" xlink:href="#DejaVuSans-69"/>
     <use x="210.826172" xlink:href="#DejaVuSans-73"/>
     <use x="262.925781" xlink:href="#DejaVuSans-74"/>
     <use x="302.134766" xlink:href="#DejaVuSans-61"/>
     <use x="363.414062" xlink:href="#DejaVuSans-6e"/>
     <use x="426.792969" xlink:href="#DejaVuSans-63"/>
     <use x="481.773438" xlink:href="#DejaVuSans-65"/>
     <use x="543.296875" xlink:href="#DejaVuSans-20"/>
     <use x="575.083984" xlink:href="#DejaVuSans-77"/>
     <use x="656.871094" xlink:href="#DejaVuSans-69"/>
     <use x="684.654297" xlink:href="#DejaVuSans-74"/>
     <use x="723.863281" xlink:href="#DejaVuSans-68"/>
     <use x="787.242188" xlink:href="#DejaVuSans-20"/>
     <use x="819.029297" xlink:href="#DejaVuSans-73"/>
     <use x="871.128906" xlink:href="#DejaVuSans-6f"/>
     <use x="932.310547" xlink:href="#DejaVuSans-75"/>
     <use x="995.689453" xlink:href="#DejaVuSans-72"/>
     <use x="1036.771484" xlink:href="#DejaVuSans-63"/>
     <use x="1091.751953" xlink:href="#DejaVuSans-65"/>
     <use x="1153.275391" xlink:href="#DejaVuSans-20"/>
     <use x="1185.0625" xlink:href="#DejaVuSans-76"/>
     <use x="1244.242188" xlink:href="#DejaVuSans-6f"/>
     <use x="1305.423828" xlink:href="#DejaVuSans-6c"/>
     <use x="1333.207031" xlink:href="#DejaVuSans-74"/>
     <use x="1372.416016" xlink:href="#DejaVuSans-61"/>
     <use x="1433.695312" xlink:href="#DejaVuSans-67"/>
     <use x="1497.171875" xlink:href="#DejaVuSans-65"/>
     <use x="1558.695312" xlink:href="#DejaVuSans-20"/>
     <use x="1590.482422" xlink:href="#DejaVuSans-31"/>
     <use x="1654.105469" xlink:href="#DejaVuSans-30"/>
     <use x="1717.728516" xlink:href="#DejaVuSans-30"/>
     <use x="1781.351562" xlink:href="#DejaVuSans-2e"/>
     <use x="1813.138672" xlink:href="#DejaVuSans-30"/>
     <use x="1876.761719" xlink:href="#DejaVuSans-20"/>
     <use x="1908.548828" xlink:href="#DejaVuSans-6d"/>
     <use x="2005.960938" xlink:href="#DejaVuSans-56"/>
    </g>
   </g>
  </g>
 </g>
 <defs>
  <clipPath id="p15e7d69e95">
   <rect height="266.112" width="357.12" x="57.6" y="41.472"/>
  </clipPath>
 </defs>
</svg>
