<?xml version="1.0" encoding="utf-8" standalone="no"?>
<!DOCTYPE svg PUBLIC "-//W3C//DTD SVG 1.1//EN"
  "http://www.w3.org/Graphics/SVG/1.1/DTD/svg11.dtd">
<!-- Created with matplotlib (http://matplotlib.org/) -->
<svg height="345pt" version="1.1" viewBox="0 0 460 345" width="460pt" xmlns="http://www.w3.org/2000/svg" xmlns:xlink="http://www.w3.org/1999/xlink">
 <defs>
  <style type="text/css">
*{stroke-linecap:butt;stroke-linejoin:round;}
  </style>
 </defs>
 <g id="figure_1">
  <g id="patch_1">
   <path d="M 0 345.6 
L 460.8 345.6 
L 460.8 0 
L 0 0 
z
" style="fill:#ffffff;"/>
  </g>
  <g id="axes_1">
   <g id="patch_2">
    <path d="M 57.6 307.584 
L 414.72 307.584 
L 414.72 41.472 
L 57.6 41.472 
z
" style="fill:#ffffff;"/>
   </g>
   <g id="matplotlib.axis_1">
    <g id="xtick_1">
     <g id="line2d_1">
      <defs>
       <path d="M 0 0 
L 0 3.5 
" id="m5b11521f72" style="stroke:#000000;stroke-width:0.8;"/>
      </defs>
      <g>
       <use style="stroke:#000000;stroke-width:0.8;" x="73.832727" xlink:href="#m5b11521f72" y="307.584"/>
      </g>
     </g>
     <g id="text_1">
      <!-- 0 -->
      <defs>
       <path d="M 31.78125 66.40625 
Q 24.171875 66.40625 20.328125 58.90625 
Q 16.5 51.421875 16.5 36.375 
Q 16.5 21.390625 20.328125 13.890625 
Q 24.171875 6.390625 31.78125 6.390625 
Q 39.453125 6.390625 43.28125 13.890625 
Q 47.125 21.390625 47.125 36.375 
Q 47.125 51.421875 43.28125 58.90625 
Q 39.453125 66.40625 31.78125 66.40625 
z
M 31.78125 74.21875 
Q 44.046875 74.21875 50.515625 64.515625 
Q 56.984375 54.828125 56.984375 36.375 
Q 56.984375 17.96875 50.515625 8.265625 
Q 44.046875 -1.421875 31.78125 -1.421875 
Q 19.53125 -1.421875 13.0625 8.265625 
Q 6.59375 17.96875 6.59375 36.375 
Q 6.59375 54.828125 13.0625 64.515625 
Q 19.53125 74.21875 31.78125 74.21875 
z
" id="DejaVuSans-30"/>
      </defs>
      <g transform="translate(70.651477 322.182437)scale(0.1 -0.1)">
       <use xlink:href="#DejaVuSans-30"/>
      </g>
     </g>
    </g>
    <g id="xtick_2">
     <g id="line2d_2">
      <g>
       <use style="stroke:#000000;stroke-width:0.8;" x="118.915572" xlink:href="#m5b11521f72" y="307.584"/>
      </g>
     </g>
     <g id="text_2">
      <!-- 250 -->
      <defs>
       <path d="M 19.1875 8.296875 
L 53.609375 8.296875 
L 53.609375 0 
L 7.328125 0 
L 7.328125 8.296875 
Q 12.9375 14.109375 22.625 23.890625 
Q 32.328125 33.6875 34.8125 36.53125 
Q 39.546875 41.84375 41.421875 45.53125 
Q 43.3125 49.21875 43.3125 52.78125 
Q 43.3125 58.59375 39.234375 62.25 
Q 35.15625 65.921875 28.609375 65.921875 
Q 23.96875 65.921875 18.8125 64.3125 
Q 13.671875 62.703125 7.8125 59.421875 
L 7.8125 69.390625 
Q 13.765625 71.78125 18.9375 73 
Q 24.125 74.21875 28.421875 74.21875 
Q 39.75 74.21875 46.484375 68.546875 
Q 53.21875 62.890625 53.21875 53.421875 
Q 53.21875 48.921875 51.53125 44.890625 
Q 49.859375 40.875 45.40625 35.40625 
Q 44.1875 33.984375 37.640625 27.21875 
Q 31.109375 20.453125 19.1875 8.296875 
z
" id="DejaVuSans-32"/>
       <path d="M 10.796875 72.90625 
L 49.515625 72.90625 
L 49.515625 64.59375 
L 19.828125 64.59375 
L 19.828125 46.734375 
Q 21.96875 47.46875 24.109375 47.828125 
Q 26.265625 48.1875 28.421875 48.1875 
Q 40.625 48.1875 47.75 41.5 
Q 54.890625 34.8125 54.890625 23.390625 
Q 54.890625 11.625 47.5625 5.09375 
Q 40.234375 -1.421875 26.90625 -1.421875 
Q 22.3125 -1.421875 17.546875 -0.640625 
Q 12.796875 0.140625 7.71875 1.703125 
L 7.71875 11.625 
Q 12.109375 9.234375 16.796875 8.0625 
Q 21.484375 6.890625 26.703125 6.890625 
Q 35.15625 6.890625 40.078125 11.328125 
Q 45.015625 15.765625 45.015625 23.390625 
Q 45.015625 31 40.078125 35.4375 
Q 35.15625 39.890625 26.703125 39.890625 
Q 22.75 39.890625 18.8125 39.015625 
Q 14.890625 38.140625 10.796875 36.28125 
z
" id="DejaVuSans-35"/>
      </defs>
      <g transform="translate(109.371822 322.182437)scale(0.1 -0.1)">
       <use xlink:href="#DejaVuSans-32"/>
       <use x="63.623047" xlink:href="#DejaVuSans-35"/>
       <use x="127.246094" xlink:href="#DejaVuSans-30"/>
      </g>
     </g>
    </g>
    <g id="xtick_3">
     <g id="line2d_3">
      <g>
       <use style="stroke:#000000;stroke-width:0.8;" x="163.998416" xlink:href="#m5b11521f72" y="307.584"/>
      </g>
     </g>
     <g id="text_3">
      <!-- 500 -->
      <g transform="translate(154.454666 322.182437)scale(0.1 -0.1)">
       <use xlink:href="#DejaVuSans-35"/>
       <use x="63.623047" xlink:href="#DejaVuSans-30"/>
       <use x="127.246094" xlink:href="#DejaVuSans-30"/>
      </g>
     </g>
    </g>
    <g id="xtick_4">
     <g id="line2d_4">
      <g>
       <use style="stroke:#000000;stroke-width:0.8;" x="209.08126" xlink:href="#m5b11521f72" y="307.584"/>
      </g>
     </g>
     <g id="text_4">
      <!-- 750 -->
      <defs>
       <path d="M 8.203125 72.90625 
L 55.078125 72.90625 
L 55.078125 68.703125 
L 28.609375 0 
L 18.3125 0 
L 43.21875 64.59375 
L 8.203125 64.59375 
z
" id="DejaVuSans-37"/>
      </defs>
      <g transform="translate(199.53751 322.182437)scale(0.1 -0.1)">
       <use xlink:href="#DejaVuSans-37"/>
       <use x="63.623047" xlink:href="#DejaVuSans-35"/>
       <use x="127.246094" xlink:href="#DejaVuSans-30"/>
      </g>
     </g>
    </g>
    <g id="xtick_5">
     <g id="line2d_5">
      <g>
       <use style="stroke:#000000;stroke-width:0.8;" x="254.164104" xlink:href="#m5b11521f72" y="307.584"/>
      </g>
     </g>
     <g id="text_5">
      <!-- 1000 -->
      <defs>
       <path d="M 12.40625 8.296875 
L 28.515625 8.296875 
L 28.515625 63.921875 
L 10.984375 60.40625 
L 10.984375 69.390625 
L 28.421875 72.90625 
L 38.28125 72.90625 
L 38.28125 8.296875 
L 54.390625 8.296875 
L 54.390625 0 
L 12.40625 0 
z
" id="DejaVuSans-31"/>
      </defs>
      <g transform="translate(241.439104 322.182437)scale(0.1 -0.1)">
       <use xlink:href="#DejaVuSans-31"/>
       <use x="63.623047" xlink:href="#DejaVuSans-30"/>
       <use x="127.246094" xlink:href="#DejaVuSans-30"/>
       <use x="190.869141" xlink:href="#DejaVuSans-30"/>
      </g>
     </g>
    </g>
    <g id="xtick_6">
     <g id="line2d_6">
      <g>
       <use style="stroke:#000000;stroke-width:0.8;" x="299.246949" xlink:href="#m5b11521f72" y="307.584"/>
      </g>
     </g>
     <g id="text_6">
      <!-- 1250 -->
      <g transform="translate(286.521949 322.182437)scale(0.1 -0.1)">
       <use xlink:href="#DejaVuSans-31"/>
       <use x="63.623047" xlink:href="#DejaVuSans-32"/>
       <use x="127.246094" xlink:href="#DejaVuSans-35"/>
       <use x="190.869141" xlink:href="#DejaVuSans-30"/>
      </g>
     </g>
    </g>
    <g id="xtick_7">
     <g id="line2d_7">
      <g>
       <use style="stroke:#000000;stroke-width:0.8;" x="344.329793" xlink:href="#m5b11521f72" y="307.584"/>
      </g>
     </g>
     <g id="text_7">
      <!-- 1500 -->
      <g transform="translate(331.604793 322.182437)scale(0.1 -0.1)">
       <use xlink:href="#DejaVuSans-31"/>
       <use x="63.623047" xlink:href="#DejaVuSans-35"/>
       <use x="127.246094" xlink:href="#DejaVuSans-30"/>
       <use x="190.869141" xlink:href="#DejaVuSans-30"/>
      </g>
     </g>
    </g>
    <g id="xtick_8">
     <g id="line2d_8">
      <g>
       <use style="stroke:#000000;stroke-width:0.8;" x="389.412637" xlink:href="#m5b11521f72" y="307.584"/>
      </g>
     </g>
     <g id="text_8">
      <!-- 1750 -->
      <g transform="translate(376.687637 322.182437)scale(0.1 -0.1)">
       <use xlink:href="#DejaVuSans-31"/>
       <use x="63.623047" xlink:href="#DejaVuSans-37"/>
       <use x="127.246094" xlink:href="#DejaVuSans-35"/>
       <use x="190.869141" xlink:href="#DejaVuSans-30"/>
      </g>
     </g>
    </g>
    <g id="text_9">
     <!-- t(s) -->
     <defs>
      <path d="M 18.3125 70.21875 
L 18.3125 54.6875 
L 36.8125 54.6875 
L 36.8125 47.703125 
L 18.3125 47.703125 
L 18.3125 18.015625 
Q 18.3125 11.328125 20.140625 9.421875 
Q 21.96875 7.515625 27.59375 7.515625 
L 36.8125 7.515625 
L 36.8125 0 
L 27.59375 0 
Q 17.1875 0 13.234375 3.875 
Q 9.28125 7.765625 9.28125 18.015625 
L 9.28125 47.703125 
L 2.6875 47.703125 
L 2.6875 54.6875 
L 9.28125 54.6875 
L 9.28125 70.21875 
z
" id="DejaVuSans-74"/>
      <path d="M 31 75.875 
Q 24.46875 64.65625 21.28125 53.65625 
Q 18.109375 42.671875 18.109375 31.390625 
Q 18.109375 20.125 21.3125 9.0625 
Q 24.515625 -2 31 -13.1875 
L 23.1875 -13.1875 
Q 15.875 -1.703125 12.234375 9.375 
Q 8.59375 20.453125 8.59375 31.390625 
Q 8.59375 42.28125 12.203125 53.3125 
Q 15.828125 64.359375 23.1875 75.875 
z
" id="DejaVuSans-28"/>
      <path d="M 44.28125 53.078125 
L 44.28125 44.578125 
Q 40.484375 46.53125 36.375 47.5 
Q 32.28125 48.484375 27.875 48.484375 
Q 21.1875 48.484375 17.84375 46.4375 
Q 14.5 44.390625 14.5 40.28125 
Q 14.5 37.15625 16.890625 35.375 
Q 19.28125 33.59375 26.515625 31.984375 
L 29.59375 31.296875 
Q 39.15625 29.25 43.1875 25.515625 
Q 47.21875 21.78125 47.21875 15.09375 
Q 47.21875 7.46875 41.1875 3.015625 
Q 35.15625 -1.421875 24.609375 -1.421875 
Q 20.21875 -1.421875 15.453125 -0.5625 
Q 10.6875 0.296875 5.421875 2 
L 5.421875 11.28125 
Q 10.40625 8.6875 15.234375 7.390625 
Q 20.0625 6.109375 24.8125 6.109375 
Q 31.15625 6.109375 34.5625 8.28125 
Q 37.984375 10.453125 37.984375 14.40625 
Q 37.984375 18.0625 35.515625 20.015625 
Q 33.0625 21.96875 24.703125 23.78125 
L 21.578125 24.515625 
Q 13.234375 26.265625 9.515625 29.90625 
Q 5.8125 33.546875 5.8125 39.890625 
Q 5.8125 47.609375 11.28125 51.796875 
Q 16.75 56 26.8125 56 
Q 31.78125 56 36.171875 55.265625 
Q 40.578125 54.546875 44.28125 53.078125 
z
" id="DejaVuSans-73"/>
      <path d="M 8.015625 75.875 
L 15.828125 75.875 
Q 23.140625 64.359375 26.78125 53.3125 
Q 30.421875 42.28125 30.421875 31.390625 
Q 30.421875 20.453125 26.78125 9.375 
Q 23.140625 -1.703125 15.828125 -13.1875 
L 8.015625 -13.1875 
Q 14.5 -2 17.703125 9.0625 
Q 20.90625 20.125 20.90625 31.390625 
Q 20.90625 42.671875 17.703125 53.65625 
Q 14.5 64.65625 8.015625 75.875 
z
" id="DejaVuSans-29"/>
     </defs>
     <g transform="translate(227.693594 335.860562)scale(0.1 -0.1)">
      <use xlink:href="#DejaVuSans-74"/>
      <use x="39.208984" xlink:href="#DejaVuSans-28"/>
      <use x="78.222656" xlink:href="#DejaVuSans-73"/>
      <use x="130.322266" xlink:href="#DejaVuSans-29"/>
     </g>
    </g>
   </g>
   <g id="matplotlib.axis_2">
    <g id="ytick_1">
     <g id="line2d_9">
      <defs>
       <path d="M 0 0 
L -3.5 0 
" id="m4ca05a5033" style="stroke:#000000;stroke-width:0.8;"/>
      </defs>
      <g>
       <use style="stroke:#000000;stroke-width:0.8;" x="57.6" xlink:href="#m4ca05a5033" y="304.732377"/>
      </g>
     </g>
     <g id="text_10">
      <!-- 1.22 -->
      <defs>
       <path d="M 10.6875 12.40625 
L 21 12.40625 
L 21 0 
L 10.6875 0 
z
" id="DejaVuSans-2e"/>
      </defs>
      <g transform="translate(28.334375 308.531596)scale(0.1 -0.1)">
       <use xlink:href="#DejaVuSans-31"/>
       <use x="63.623047" xlink:href="#DejaVuSans-2e"/>
       <use x="95.410156" xlink:href="#DejaVuSans-32"/>
       <use x="159.033203" xlink:href="#DejaVuSans-32"/>
      </g>
     </g>
    </g>
    <g id="ytick_2">
     <g id="line2d_10">
      <g>
       <use style="stroke:#000000;stroke-width:0.8;" x="57.6" xlink:href="#m4ca05a5033" y="266.532472"/>
      </g>
     </g>
     <g id="text_11">
      <!-- 1.24 -->
      <defs>
       <path d="M 37.796875 64.3125 
L 12.890625 25.390625 
L 37.796875 25.390625 
z
M 35.203125 72.90625 
L 47.609375 72.90625 
L 47.609375 25.390625 
L 58.015625 25.390625 
L 58.015625 17.1875 
L 47.609375 17.1875 
L 47.609375 0 
L 37.796875 0 
L 37.796875 17.1875 
L 4.890625 17.1875 
L 4.890625 26.703125 
z
" id="DejaVuSans-34"/>
      </defs>
      <g transform="translate(28.334375 270.331691)scale(0.1 -0.1)">
       <use xlink:href="#DejaVuSans-31"/>
       <use x="63.623047" xlink:href="#DejaVuSans-2e"/>
       <use x="95.410156" xlink:href="#DejaVuSans-32"/>
       <use x="159.033203" xlink:href="#DejaVuSans-34"/>
      </g>
     </g>
    </g>
    <g id="ytick_3">
     <g id="line2d_11">
      <g>
       <use style="stroke:#000000;stroke-width:0.8;" x="57.6" xlink:href="#m4ca05a5033" y="228.332567"/>
      </g>
     </g>
     <g id="text_12">
      <!-- 1.26 -->
      <defs>
       <path d="M 33.015625 40.375 
Q 26.375 40.375 22.484375 35.828125 
Q 18.609375 31.296875 18.609375 23.390625 
Q 18.609375 15.53125 22.484375 10.953125 
Q 26.375 6.390625 33.015625 6.390625 
Q 39.65625 6.390625 43.53125 10.953125 
Q 47.40625 15.53125 47.40625 23.390625 
Q 47.40625 31.296875 43.53125 35.828125 
Q 39.65625 40.375 33.015625 40.375 
z
M 52.59375 71.296875 
L 52.59375 62.3125 
Q 48.875 64.0625 45.09375 64.984375 
Q 41.3125 65.921875 37.59375 65.921875 
Q 27.828125 65.921875 22.671875 59.328125 
Q 17.53125 52.734375 16.796875 39.40625 
Q 19.671875 43.65625 24.015625 45.921875 
Q 28.375 48.1875 33.59375 48.1875 
Q 44.578125 48.1875 50.953125 41.515625 
Q 57.328125 34.859375 57.328125 23.390625 
Q 57.328125 12.15625 50.6875 5.359375 
Q 44.046875 -1.421875 33.015625 -1.421875 
Q 20.359375 -1.421875 13.671875 8.265625 
Q 6.984375 17.96875 6.984375 36.375 
Q 6.984375 53.65625 15.1875 63.9375 
Q 23.390625 74.21875 37.203125 74.21875 
Q 40.921875 74.21875 44.703125 73.484375 
Q 48.484375 72.75 52.59375 71.296875 
z
" id="DejaVuSans-36"/>
      </defs>
      <g transform="translate(28.334375 232.131785)scale(0.1 -0.1)">
       <use xlink:href="#DejaVuSans-31"/>
       <use x="63.623047" xlink:href="#DejaVuSans-2e"/>
       <use x="95.410156" xlink:href="#DejaVuSans-32"/>
       <use x="159.033203" xlink:href="#DejaVuSans-36"/>
      </g>
     </g>
    </g>
    <g id="ytick_4">
     <g id="line2d_12">
      <g>
       <use style="stroke:#000000;stroke-width:0.8;" x="57.6" xlink:href="#m4ca05a5033" y="190.132661"/>
      </g>
     </g>
     <g id="text_13">
      <!-- 1.28 -->
      <defs>
       <path d="M 31.78125 34.625 
Q 24.75 34.625 20.71875 30.859375 
Q 16.703125 27.09375 16.703125 20.515625 
Q 16.703125 13.921875 20.71875 10.15625 
Q 24.75 6.390625 31.78125 6.390625 
Q 38.8125 6.390625 42.859375 10.171875 
Q 46.921875 13.96875 46.921875 20.515625 
Q 46.921875 27.09375 42.890625 30.859375 
Q 38.875 34.625 31.78125 34.625 
z
M 21.921875 38.8125 
Q 15.578125 40.375 12.03125 44.71875 
Q 8.5 49.078125 8.5 55.328125 
Q 8.5 64.0625 14.71875 69.140625 
Q 20.953125 74.21875 31.78125 74.21875 
Q 42.671875 74.21875 48.875 69.140625 
Q 55.078125 64.0625 55.078125 55.328125 
Q 55.078125 49.078125 51.53125 44.71875 
Q 48 40.375 41.703125 38.8125 
Q 48.828125 37.15625 52.796875 32.3125 
Q 56.78125 27.484375 56.78125 20.515625 
Q 56.78125 9.90625 50.3125 4.234375 
Q 43.84375 -1.421875 31.78125 -1.421875 
Q 19.734375 -1.421875 13.25 4.234375 
Q 6.78125 9.90625 6.78125 20.515625 
Q 6.78125 27.484375 10.78125 32.3125 
Q 14.796875 37.15625 21.921875 38.8125 
z
M 18.3125 54.390625 
Q 18.3125 48.734375 21.84375 45.5625 
Q 25.390625 42.390625 31.78125 42.390625 
Q 38.140625 42.390625 41.71875 45.5625 
Q 45.3125 48.734375 45.3125 54.390625 
Q 45.3125 60.0625 41.71875 63.234375 
Q 38.140625 66.40625 31.78125 66.40625 
Q 25.390625 66.40625 21.84375 63.234375 
Q 18.3125 60.0625 18.3125 54.390625 
z
" id="DejaVuSans-38"/>
      </defs>
      <g transform="translate(28.334375 193.93188)scale(0.1 -0.1)">
       <use xlink:href="#DejaVuSans-31"/>
       <use x="63.623047" xlink:href="#DejaVuSans-2e"/>
       <use x="95.410156" xlink:href="#DejaVuSans-32"/>
       <use x="159.033203" xlink:href="#DejaVuSans-38"/>
      </g>
     </g>
    </g>
    <g id="ytick_5">
     <g id="line2d_13">
      <g>
       <use style="stroke:#000000;stroke-width:0.8;" x="57.6" xlink:href="#m4ca05a5033" y="151.932756"/>
      </g>
     </g>
     <g id="text_14">
      <!-- 1.30 -->
      <defs>
       <path d="M 40.578125 39.3125 
Q 47.65625 37.796875 51.625 33 
Q 55.609375 28.21875 55.609375 21.1875 
Q 55.609375 10.40625 48.1875 4.484375 
Q 40.765625 -1.421875 27.09375 -1.421875 
Q 22.515625 -1.421875 17.65625 -0.515625 
Q 12.796875 0.390625 7.625 2.203125 
L 7.625 11.71875 
Q 11.71875 9.328125 16.59375 8.109375 
Q 21.484375 6.890625 26.8125 6.890625 
Q 36.078125 6.890625 40.9375 10.546875 
Q 45.796875 14.203125 45.796875 21.1875 
Q 45.796875 27.640625 41.28125 31.265625 
Q 36.765625 34.90625 28.71875 34.90625 
L 20.21875 34.90625 
L 20.21875 43.015625 
L 29.109375 43.015625 
Q 36.375 43.015625 40.234375 45.921875 
Q 44.09375 48.828125 44.09375 54.296875 
Q 44.09375 59.90625 40.109375 62.90625 
Q 36.140625 65.921875 28.71875 65.921875 
Q 24.65625 65.921875 20.015625 65.03125 
Q 15.375 64.15625 9.8125 62.3125 
L 9.8125 71.09375 
Q 15.4375 72.65625 20.34375 73.4375 
Q 25.25 74.21875 29.59375 74.21875 
Q 40.828125 74.21875 47.359375 69.109375 
Q 53.90625 64.015625 53.90625 55.328125 
Q 53.90625 49.265625 50.4375 45.09375 
Q 46.96875 40.921875 40.578125 39.3125 
z
" id="DejaVuSans-33"/>
      </defs>
      <g transform="translate(28.334375 155.731975)scale(0.1 -0.1)">
       <use xlink:href="#DejaVuSans-31"/>
       <use x="63.623047" xlink:href="#DejaVuSans-2e"/>
       <use x="95.410156" xlink:href="#DejaVuSans-33"/>
       <use x="159.033203" xlink:href="#DejaVuSans-30"/>
      </g>
     </g>
    </g>
    <g id="ytick_6">
     <g id="line2d_14">
      <g>
       <use style="stroke:#000000;stroke-width:0.8;" x="57.6" xlink:href="#m4ca05a5033" y="113.732851"/>
      </g>
     </g>
     <g id="text_15">
      <!-- 1.32 -->
      <g transform="translate(28.334375 117.53207)scale(0.1 -0.1)">
       <use xlink:href="#DejaVuSans-31"/>
       <use x="63.623047" xlink:href="#DejaVuSans-2e"/>
       <use x="95.410156" xlink:href="#DejaVuSans-33"/>
       <use x="159.033203" xlink:href="#DejaVuSans-32"/>
      </g>
     </g>
    </g>
    <g id="ytick_7">
     <g id="line2d_15">
      <g>
       <use style="stroke:#000000;stroke-width:0.8;" x="57.6" xlink:href="#m4ca05a5033" y="75.532946"/>
      </g>
     </g>
     <g id="text_16">
      <!-- 1.34 -->
      <g transform="translate(28.334375 79.332164)scale(0.1 -0.1)">
       <use xlink:href="#DejaVuSans-31"/>
       <use x="63.623047" xlink:href="#DejaVuSans-2e"/>
       <use x="95.410156" xlink:href="#DejaVuSans-33"/>
       <use x="159.033203" xlink:href="#DejaVuSans-34"/>
      </g>
     </g>
    </g>
    <g id="text_17">
     <!-- Voltage (V) -->
     <defs>
      <path d="M 28.609375 0 
L 0.78125 72.90625 
L 11.078125 72.90625 
L 34.1875 11.53125 
L 57.328125 72.90625 
L 67.578125 72.90625 
L 39.796875 0 
z
" id="DejaVuSans-56"/>
      <path d="M 30.609375 48.390625 
Q 23.390625 48.390625 19.1875 42.75 
Q 14.984375 37.109375 14.984375 27.296875 
Q 14.984375 17.484375 19.15625 11.84375 
Q 23.34375 6.203125 30.609375 6.203125 
Q 37.796875 6.203125 41.984375 11.859375 
Q 46.1875 17.53125 46.1875 27.296875 
Q 46.1875 37.015625 41.984375 42.703125 
Q 37.796875 48.390625 30.609375 48.390625 
z
M 30.609375 56 
Q 42.328125 56 49.015625 48.375 
Q 55.71875 40.765625 55.71875 27.296875 
Q 55.71875 13.875 49.015625 6.21875 
Q 42.328125 -1.421875 30.609375 -1.421875 
Q 18.84375 -1.421875 12.171875 6.21875 
Q 5.515625 13.875 5.515625 27.296875 
Q 5.515625 40.765625 12.171875 48.375 
Q 18.84375 56 30.609375 56 
z
" id="DejaVuSans-6f"/>
      <path d="M 9.421875 75.984375 
L 18.40625 75.984375 
L 18.40625 0 
L 9.421875 0 
z
" id="DejaVuSans-6c"/>
      <path d="M 34.28125 27.484375 
Q 23.390625 27.484375 19.1875 25 
Q 14.984375 22.515625 14.984375 16.5 
Q 14.984375 11.71875 18.140625 8.90625 
Q 21.296875 6.109375 26.703125 6.109375 
Q 34.1875 6.109375 38.703125 11.40625 
Q 43.21875 16.703125 43.21875 25.484375 
L 43.21875 27.484375 
z
M 52.203125 31.203125 
L 52.203125 0 
L 43.21875 0 
L 43.21875 8.296875 
Q 40.140625 3.328125 35.546875 0.953125 
Q 30.953125 -1.421875 24.3125 -1.421875 
Q 15.921875 -1.421875 10.953125 3.296875 
Q 6 8.015625 6 15.921875 
Q 6 25.140625 12.171875 29.828125 
Q 18.359375 34.515625 30.609375 34.515625 
L 43.21875 34.515625 
L 43.21875 35.40625 
Q 43.21875 41.609375 39.140625 45 
Q 35.0625 48.390625 27.6875 48.390625 
Q 23 48.390625 18.546875 47.265625 
Q 14.109375 46.140625 10.015625 43.890625 
L 10.015625 52.203125 
Q 14.9375 54.109375 19.578125 55.046875 
Q 24.21875 56 28.609375 56 
Q 40.484375 56 46.34375 49.84375 
Q 52.203125 43.703125 52.203125 31.203125 
z
" id="DejaVuSans-61"/>
      <path d="M 45.40625 27.984375 
Q 45.40625 37.75 41.375 43.109375 
Q 37.359375 48.484375 30.078125 48.484375 
Q 22.859375 48.484375 18.828125 43.109375 
Q 14.796875 37.75 14.796875 27.984375 
Q 14.796875 18.265625 18.828125 12.890625 
Q 22.859375 7.515625 30.078125 7.515625 
Q 37.359375 7.515625 41.375 12.890625 
Q 45.40625 18.265625 45.40625 27.984375 
z
M 54.390625 6.78125 
Q 54.390625 -7.171875 48.1875 -13.984375 
Q 42 -20.796875 29.203125 -20.796875 
Q 24.46875 -20.796875 20.265625 -20.09375 
Q 16.0625 -19.390625 12.109375 -17.921875 
L 12.109375 -9.1875 
Q 16.0625 -11.328125 19.921875 -12.34375 
Q 23.78125 -13.375 27.78125 -13.375 
Q 36.625 -13.375 41.015625 -8.765625 
Q 45.40625 -4.15625 45.40625 5.171875 
L 45.40625 9.625 
Q 42.625 4.78125 38.28125 2.390625 
Q 33.9375 0 27.875 0 
Q 17.828125 0 11.671875 7.65625 
Q 5.515625 15.328125 5.515625 27.984375 
Q 5.515625 40.671875 11.671875 48.328125 
Q 17.828125 56 27.875 56 
Q 33.9375 56 38.28125 53.609375 
Q 42.625 51.21875 45.40625 46.390625 
L 45.40625 54.6875 
L 54.390625 54.6875 
z
" id="DejaVuSans-67"/>
      <path d="M 56.203125 29.59375 
L 56.203125 25.203125 
L 14.890625 25.203125 
Q 15.484375 15.921875 20.484375 11.0625 
Q 25.484375 6.203125 34.421875 6.203125 
Q 39.59375 6.203125 44.453125 7.46875 
Q 49.3125 8.734375 54.109375 11.28125 
L 54.109375 2.78125 
Q 49.265625 0.734375 44.1875 -0.34375 
Q 39.109375 -1.421875 33.890625 -1.421875 
Q 20.796875 -1.421875 13.15625 6.1875 
Q 5.515625 13.8125 5.515625 26.8125 
Q 5.515625 40.234375 12.765625 48.109375 
Q 20.015625 56 32.328125 56 
Q 43.359375 56 49.78125 48.890625 
Q 56.203125 41.796875 56.203125 29.59375 
z
M 47.21875 32.234375 
Q 47.125 39.59375 43.09375 43.984375 
Q 39.0625 48.390625 32.421875 48.390625 
Q 24.90625 48.390625 20.390625 44.140625 
Q 15.875 39.890625 15.1875 32.171875 
z
" id="DejaVuSans-65"/>
      <path id="DejaVuSans-20"/>
     </defs>
     <g transform="translate(22.254687 202.577219)rotate(-90)scale(0.1 -0.1)">
      <use xlink:href="#DejaVuSans-56"/>
      <use x="68.298828" xlink:href="#DejaVuSans-6f"/>
      <use x="129.480469" xlink:href="#DejaVuSans-6c"/>
      <use x="157.263672" xlink:href="#DejaVuSans-74"/>
      <use x="196.472656" xlink:href="#DejaVuSans-61"/>
      <use x="257.751953" xlink:href="#DejaVuSans-67"/>
      <use x="321.228516" xlink:href="#DejaVuSans-65"/>
      <use x="382.751953" xlink:href="#DejaVuSans-20"/>
      <use x="414.539062" xlink:href="#DejaVuSans-28"/>
      <use x="453.552734" xlink:href="#DejaVuSans-56"/>
      <use x="521.960938" xlink:href="#DejaVuSans-29"/>
     </g>
    </g>
   </g>
   <g id="line2d_16">
    <path clip-path="url(#p35c453472f)" d="M 73.832727 127.370217 
L 74.013059 128.649914 
L 74.19357 125.670321 
L 74.554233 129.624011 
L 74.734565 126.03322 
L 74.914896 125.574821 
L 75.095227 126.892718 
L 75.275559 120.990833 
L 75.45589 123.512027 
L 75.636402 128.401614 
L 75.816733 119.443737 
L 75.997064 124.581624 
L 76.357727 120.188635 
L 76.71839 125.288322 
L 76.898721 119.902135 
L 77.259384 126.969118 
L 77.439715 120.188635 
L 77.620047 120.417834 
L 77.800378 128.764514 
L 77.98071 121.430132 
L 78.161041 124.600724 
L 78.341372 124.199625 
L 78.521704 126.24332 
L 78.702035 125.823121 
L 79.062698 122.480629 
L 79.243029 119.959435 
L 79.603692 124.543424 
L 79.784023 123.454727 
L 79.964355 124.524324 
L 80.144686 122.423329 
L 80.325018 126.20512 
L 80.505349 122.881728 
L 80.68568 123.741226 
L 80.866012 135.965196 
L 81.226674 126.33882 
L 81.407006 124.371524 
L 81.587337 116.101245 
L 81.767669 123.263727 
L 81.948 117.877541 
L 82.128331 118.813438 
L 82.308843 123.855826 
L 82.489174 123.951325 
L 82.669506 121.850331 
L 82.849837 122.537929 
L 83.030169 121.200932 
L 83.2105 122.595229 
L 83.390831 122.977228 
L 83.571163 124.314225 
L 83.751494 128.306115 
L 83.931825 119.997635 
L 84.112157 118.14494 
L 84.292488 118.756138 
L 84.47282 123.301927 
L 84.653151 123.263727 
L 85.013814 118.641539 
L 85.374476 122.786228 
L 85.554808 119.883036 
L 85.735139 130.06331 
L 85.915471 120.284135 
L 86.095802 121.105432 
L 86.276133 124.925423 
L 86.456465 119.195437 
L 86.636796 118.966238 
L 86.997459 122.709829 
L 87.17779 118.737038 
L 87.358122 130.426209 
L 87.538453 110.829658 
L 87.718784 120.494234 
L 87.899116 117.247242 
L 88.079447 119.672936 
L 88.259778 129.967811 
L 88.44011 118.622439 
L 88.620441 122.09863 
L 88.800773 120.857133 
L 88.981104 127.542117 
L 89.341767 118.928038 
L 89.522098 123.015428 
L 89.702429 119.119037 
L 90.063092 121.162732 
L 90.423755 115.279947 
L 90.604086 126.472519 
L 90.784418 114.611449 
L 90.964749 119.844836 
L 91.14508 121.621131 
L 91.325412 115.776546 
L 91.505743 121.754831 
L 91.686075 122.709829 
L 91.866406 119.080838 
L 92.046737 120.666134 
L 92.4074 129.547612 
L 92.768063 115.661946 
L 92.948394 118.870738 
L 93.128726 127.484817 
L 93.309057 118.584239 
L 93.489388 123.913126 
L 93.66972 117.89664 
L 93.850051 120.494234 
L 94.030383 117.667441 
L 94.210714 121.621131 
L 94.391045 121.105432 
L 94.571377 120.226835 
L 94.751708 113.293552 
L 94.932039 118.756138 
L 95.112371 115.547346 
L 95.292702 125.536622 
L 95.473034 114.668748 
L 95.833696 121.372832 
L 96.014028 119.997635 
L 96.194359 129.203812 
L 96.555022 112.032955 
L 96.735353 119.157237 
L 96.915685 109.167962 
L 97.096016 122.633429 
L 97.276347 115.356347 
L 97.63701 122.442429 
L 97.997673 111.001558 
L 98.178004 116.693343 
L 98.358336 116.330444 
L 98.538667 116.960743 
L 98.718998 120.417834 
L 98.89933 116.005745 
L 99.079661 116.387744 
L 99.259992 117.552841 
L 99.440324 116.559644 
L 99.620655 123.034528 
L 99.981318 116.349544 
L 100.161649 115.604646 
L 100.341981 120.494234 
L 100.522312 119.271837 
L 100.702643 116.807943 
L 101.063306 119.921235 
L 101.423969 116.922543 
L 101.784632 121.888531 
L 101.964963 128.153315 
L 102.325626 119.252737 
L 102.505957 119.501036 
L 102.686289 122.04133 
L 102.86662 111.803756 
L 103.046951 113.408152 
L 103.227283 116.769743 
L 103.407614 114.17215 
L 103.588126 126.720819 
L 103.768457 112.873353 
L 103.948789 130.445309 
L 104.309451 118.526939 
L 104.489783 116.922543 
L 104.670114 118.813438 
L 104.850445 116.807943 
L 105.030777 118.928038 
L 105.211108 129.585811 
L 105.39144 117.056243 
L 105.571771 115.948445 
L 105.752102 127.542117 
L 105.932434 114.286749 
L 106.112765 119.004438 
L 106.293096 130.903708 
L 106.65394 113.350852 
L 106.834451 114.515949 
L 107.014783 120.780733 
L 107.195114 118.813438 
L 107.375445 121.869431 
L 107.555957 110.753258 
L 107.736288 116.636044 
L 107.91662 130.884608 
L 108.096951 115.432747 
L 108.277283 122.977228 
L 108.457614 112.892453 
L 108.818277 123.951325 
L 108.998608 122.728928 
L 109.178939 129.528512 
L 109.359271 115.069847 
L 109.539602 117.762941 
L 109.719934 122.996328 
L 109.900265 112.052055 
L 110.080596 111.498156 
L 110.260928 123.894026 
L 110.441259 113.675551 
L 110.801922 120.112235 
L 110.982253 119.424637 
L 111.162585 117.686541 
L 111.342916 117.686541 
L 111.523247 118.10674 
L 111.703579 122.366029 
L 111.88391 120.876233 
L 112.064242 123.817626 
L 112.244573 121.869431 
L 112.424904 122.939028 
L 112.605236 125.937721 
L 112.785567 104.622173 
L 112.965898 114.726048 
L 113.14623 114.802448 
L 113.326561 117.648341 
L 113.506893 117.228142 
L 113.687224 123.225527 
L 113.867555 122.709829 
L 114.047887 119.119037 
L 114.228218 110.753258 
L 114.408549 114.324949 
L 114.588881 127.523017 
L 114.769212 114.783348 
L 114.949544 117.266342 
L 115.129875 115.509146 
L 115.670869 118.985338 
L 116.031532 115.299047 
L 116.211863 116.597844 
L 116.392195 122.04133 
L 116.572526 117.113542 
L 116.752857 121.793031 
L 116.933189 121.029033 
L 117.11352 112.701453 
L 117.293851 121.067233 
L 117.474183 121.086333 
L 117.654514 113.86655 
L 117.834846 123.569326 
L 118.015177 110.562259 
L 118.37584 120.647034 
L 118.556171 113.694651 
L 118.736502 119.863936 
L 118.916834 114.783348 
L 119.097165 121.697531 
L 119.457828 114.554149 
L 119.638159 114.955248 
L 119.818491 113.751951 
L 119.998822 115.279947 
L 120.179153 122.824428 
L 120.359485 112.835153 
L 120.539816 111.861055 
L 120.720148 117.877541 
L 120.900479 114.382249 
L 121.08081 123.072728 
L 121.441473 116.024845 
L 121.621805 124.314225 
L 121.802136 126.930918 
L 121.982467 112.262154 
L 122.162799 121.831231 
L 122.34313 114.324949 
L 122.523461 116.349544 
L 122.703793 111.670056 
L 122.884124 110.218459 
L 123.425118 115.738346 
L 123.60545 122.25143 
L 123.785781 112.491354 
L 123.966112 109.473561 
L 124.326775 113.465451 
L 124.507107 114.324949 
L 124.687438 116.559644 
L 124.867769 115.031648 
L 125.048101 120.627934 
L 125.228432 110.753258 
L 125.408763 120.284135 
L 125.589095 112.835153 
L 125.769426 112.166655 
L 125.949758 118.584239 
L 126.130089 110.19936 
L 126.31042 111.058857 
L 126.490752 114.01935 
L 126.671083 109.187062 
L 126.851414 125.536622 
L 127.031746 111.841955 
L 127.212077 114.706948 
L 127.392409 104.583973 
L 127.57274 114.535049 
L 127.753071 111.689156 
L 127.933403 120.016735 
L 128.113734 117.705641 
L 128.294065 118.603339 
L 128.474397 122.537929 
L 128.654728 105.634471 
L 128.83506 111.307157 
L 129.015391 112.434054 
L 129.195722 117.094442 
L 129.376054 113.331752 
L 129.556385 120.131335 
L 129.736716 111.746456 
L 129.917048 115.432747 
L 130.097379 107.697266 
L 130.277711 119.730236 
L 130.458042 114.305849 
L 130.638373 116.922543 
L 130.818705 110.313959 
L 130.999036 108.384864 
L 131.179367 110.14206 
L 131.359699 107.410766 
L 131.54003 118.679739 
L 131.720362 107.735466 
L 132.261356 116.234945 
L 132.622019 107.525366 
L 132.982681 115.394547 
L 133.163013 113.828351 
L 133.343344 109.378062 
L 133.523675 125.231022 
L 133.704007 113.541851 
L 133.884338 110.753258 
L 134.06467 114.22945 
L 134.245001 113.94295 
L 134.425332 114.363149 
L 134.605664 111.841955 
L 134.785995 113.121652 
L 134.966326 111.058857 
L 135.146658 114.07665 
L 135.507321 111.039757 
L 135.687832 109.129762 
L 135.868164 114.783348 
L 136.048495 106.875968 
L 136.228826 115.050748 
L 136.589489 108.556764 
L 136.950152 114.515949 
L 137.130483 107.697266 
L 137.491146 106.704068 
L 137.671477 110.562259 
L 137.851809 106.895068 
L 138.03214 112.625054 
L 138.392803 107.563566 
L 138.573134 103.552576 
L 138.753466 110.06566 
L 139.114128 111.479056 
L 139.29446 108.728663 
L 139.474791 109.454461 
L 139.655123 107.429866 
L 140.015785 116.827043 
L 140.196117 113.618251 
L 140.376448 105.443471 
L 140.556779 112.930653 
L 140.737111 108.232064 
L 140.917442 109.683661 
L 141.097774 112.510454 
L 141.278105 109.89376 
L 141.458436 113.102552 
L 141.638768 109.569061 
L 141.819099 112.758753 
L 141.99943 108.728663 
L 142.179762 112.223955 
L 142.360093 109.301662 
L 142.540425 109.549961 
L 142.720756 108.251164 
L 142.901087 104.774973 
L 143.081419 106.05467 
L 143.26175 112.338554 
L 143.442081 109.339862 
L 143.622413 109.702761 
L 143.802744 106.570369 
L 143.983076 111.268957 
L 144.163407 107.143367 
L 144.52407 114.17215 
L 144.704401 107.678166 
L 144.884732 111.555456 
L 145.065064 110.390359 
L 145.245395 108.098365 
L 145.425727 110.638658 
L 145.606058 107.410766 
L 145.786389 115.795646 
L 146.507715 104.106475 
L 146.688046 107.334367 
L 146.868378 107.429866 
L 147.048709 112.663253 
L 147.22904 111.918355 
L 147.409372 106.761368 
L 147.770035 114.515949 
L 147.950366 103.705376 
L 148.130697 114.917048 
L 148.311029 109.110662 
L 148.49136 107.277067 
L 148.671691 108.824163 
L 148.852023 100.859483 
L 149.032354 109.206162 
L 149.212686 107.162467 
L 149.393017 77.86314 
L 149.573348 77.194641 
L 149.75368 84.853722 
L 149.934011 85.388521 
L 150.114342 76.602543 
L 150.294674 75.609345 
L 150.475005 67.205366 
L 150.655337 68.179464 
L 150.835668 69.974859 
L 151.015999 73.355551 
L 151.196331 79.142837 
L 151.376662 77.996839 
L 151.556993 79.295636 
L 151.737325 70.395058 
L 151.917656 72.954452 
L 152.097988 66.670568 
L 152.278319 70.757957 
L 152.45865 70.108559 
L 152.638982 77.175541 
L 152.819313 75.341946 
L 152.999644 71.789355 
L 153.179976 71.541055 
L 153.360307 82.160629 
L 153.540639 75.914945 
L 153.72097 81.415731 
L 153.901301 68.695162 
L 154.081633 79.009137 
L 154.261964 78.608038 
L 154.442295 69.78386 
L 154.622627 77.519341 
L 154.802958 68.294063 
L 154.98329 71.006257 
L 155.163621 70.032159 
L 155.343952 74.004949 
L 155.524284 69.82206 
L 155.704615 71.139956 
L 155.884946 70.796157 
L 156.065278 65.276271 
L 156.245609 66.804267 
L 156.425941 64.817872 
L 156.606272 67.797465 
L 156.786603 66.766067 
L 156.966935 72.954452 
L 157.147266 63.137076 
L 157.327597 62.697777 
L 157.507929 69.57376 
L 157.68826 70.872557 
L 157.868592 68.255864 
L 158.048923 63.633675 
L 158.229254 64.416773 
L 158.409586 62.201179 
L 158.589917 71.980354 
L 158.95058 60.768682 
L 159.311243 65.180771 
L 159.491574 64.741472 
L 159.671905 65.906569 
L 159.852237 61.112481 
L 160.032568 65.333571 
L 160.2129 79.352936 
L 160.753894 62.430378 
L 160.934225 64.856072 
L 161.114556 61.53268 
L 161.294888 62.716877 
L 161.475219 59.813685 
L 161.655551 65.238071 
L 161.835882 66.498668 
L 162.016213 60.157484 
L 162.196545 57.903689 
L 162.376876 66.326768 
L 162.557207 62.029279 
L 163.098202 58.877787 
L 163.278533 59.221586 
L 163.458864 58.648587 
L 163.639196 63.996574 
L 163.819527 57.76999 
L 163.999858 64.626873 
L 164.18019 55.344296 
L 164.360521 53.568 
L 164.540853 57.922789 
L 164.721184 57.025091 
L 164.901515 61.72368 
L 165.081847 58.190189 
L 165.262178 83.898725 
L 165.442509 155.962846 
L 165.803172 109.549961 
L 165.983504 130.36891 
L 166.163835 124.505224 
L 166.704829 151.799056 
L 166.88516 146.794869 
L 167.065492 154.606749 
L 167.245823 146.43197 
L 167.426155 128.630814 
L 167.606486 134.399 
L 167.786817 119.367337 
L 167.967149 118.966238 
L 168.14748 124.963623 
L 168.508143 121.353732 
L 168.868806 128.936413 
L 169.049137 126.10962 
L 169.229468 119.042638 
L 169.4098 128.191515 
L 169.590131 116.846143 
L 169.770463 122.900828 
L 170.311457 127.179217 
L 170.491788 117.99214 
L 170.852451 130.540809 
L 171.032782 115.852946 
L 171.213114 133.386702 
L 171.393445 127.007318 
L 171.573776 110.543159 
L 171.754108 125.383822 
L 171.934439 117.285442 
L 172.11477 114.687848 
L 172.655765 124.619824 
L 172.836096 126.10962 
L 173.016427 131.763206 
L 173.196759 123.454727 
L 173.37709 133.635001 
L 173.737753 125.059123 
L 173.918084 129.356612 
L 174.098416 116.731543 
L 174.278747 128.325215 
L 174.459078 116.330444 
L 174.63941 122.939028 
L 174.819741 117.247242 
L 175.000072 127.351117 
L 175.180404 121.391932 
L 175.360735 122.385129 
L 175.721398 126.22422 
L 175.901729 126.911818 
L 176.082061 126.12872 
L 176.262392 120.857133 
L 176.442723 129.757711 
L 176.803386 122.633429 
L 176.983718 123.149127 
L 177.34438 119.634736 
L 177.524712 124.237825 
L 177.705043 132.164305 
L 177.885374 125.250122 
L 178.065706 126.16692 
L 178.246037 128.879113 
L 178.426369 128.879113 
L 178.6067 128.153315 
L 178.787031 125.708521 
L 178.967363 127.599416 
L 179.147694 125.020923 
L 179.328025 126.20512 
L 179.508357 129.662211 
L 179.688688 123.779426 
L 180.049351 128.955513 
L 180.229682 125.517522 
L 180.590345 130.941908 
L 180.770677 124.295125 
L 180.951008 126.625319 
L 181.131339 120.035835 
L 181.311671 123.817626 
L 181.492002 131.171108 
L 181.672333 133.367602 
L 182.032996 124.390624 
L 182.213328 127.905016 
L 182.57399 122.862628 
L 182.754322 125.670321 
L 182.934653 131.304807 
L 183.114984 131.514907 
L 183.295316 132.680004 
L 183.475647 137.569592 
L 183.655979 125.097323 
L 184.016641 133.711401 
L 184.196973 124.085025 
L 184.377304 126.26242 
L 184.557635 126.33882 
L 184.737967 124.944523 
L 184.918298 135.353997 
L 185.278961 130.731809 
L 185.459292 131.992405 
L 185.639624 122.346929 
L 185.819955 126.14782 
L 186.000467 133.539502 
L 186.180979 128.802713 
L 186.36131 130.34981 
L 186.541641 130.636309 
L 186.721973 132.641804 
L 186.902304 129.910511 
L 187.082635 124.180525 
L 187.443298 138.639189 
L 187.62363 124.810823 
L 187.803961 122.919928 
L 187.984292 131.190207 
L 188.164624 132.030605 
L 188.344955 130.865508 
L 188.525286 132.278905 
L 188.705618 129.242012 
L 188.885949 128.267915 
L 189.066281 136.232595 
L 189.246612 126.797218 
L 189.426943 132.183405 
L 189.607275 131.132908 
L 189.967937 134.723699 
L 190.148269 131.896906 
L 190.3286 127.274717 
L 190.508932 133.310302 
L 190.689263 132.622704 
L 190.869594 129.738611 
L 191.049926 130.426209 
L 191.230257 127.828616 
L 191.410588 135.334897 
L 191.59092 130.12061 
L 191.771251 134.895598 
L 191.951583 129.681311 
L 192.131914 131.648606 
L 192.312245 129.299312 
L 192.492577 135.182098 
L 192.672908 127.694916 
L 192.853239 132.985603 
L 193.033571 127.293817 
L 193.213902 128.363414 
L 193.574565 133.444002 
L 193.754896 126.835418 
L 193.935228 139.594187 
L 194.115559 124.810823 
L 194.29589 133.959701 
L 194.476222 132.202505 
L 194.656553 136.652794 
L 194.836885 125.288322 
L 195.017216 132.622704 
L 195.197547 126.09052 
L 195.377879 135.564097 
L 195.55821 132.336205 
L 195.738541 133.405802 
L 195.918873 139.670586 
L 196.099204 123.817626 
L 196.459867 135.946096 
L 196.640198 123.282827 
L 197.000861 137.703291 
L 197.181193 134.551799 
L 197.361524 134.933798 
L 197.541855 132.259805 
L 197.722187 136.767394 
L 197.902518 136.671894 
L 198.082849 131.323907 
L 198.263181 134.551799 
L 198.443512 129.433012 
L 198.623844 131.075608 
L 198.804175 131.610406 
L 198.984506 144.579274 
L 199.345169 131.725006 
L 199.5255 136.595494 
L 199.705832 137.053893 
L 199.886163 127.465717 
L 200.246826 138.08529 
L 200.427157 139.918886 
L 200.607489 135.296697 
L 200.78782 134.723699 
L 200.968151 135.143898 
L 201.148483 132.469904 
L 201.328814 145.285973 
L 201.509146 142.058081 
L 201.689477 131.725006 
L 201.869808 138.12349 
L 202.05014 137.760591 
L 202.230471 133.615901 
L 202.410802 134.933798 
L 202.591134 135.124798 
L 202.771465 133.692301 
L 202.951797 144.903973 
L 203.132128 133.596802 
L 203.312459 140.205385 
L 203.492791 138.600989 
L 203.673122 132.087905 
L 203.853453 135.583197 
L 204.033785 160.909734 
L 204.214116 269.053666 
L 204.394448 261.012586 
L 204.574779 223.118279 
L 204.75511 254.098403 
L 204.935442 260.019388 
L 205.115773 247.814518 
L 205.476436 272.186058 
L 205.656767 272.224258 
L 205.837099 273.962353 
L 206.01743 272.548957 
L 206.197761 276.521747 
L 206.378093 272.816356 
L 206.558424 274.153353 
L 206.738755 273.523054 
L 206.919087 276.349847 
L 207.099418 276.598147 
L 207.27975 273.446655 
L 207.460081 278.450842 
L 207.640412 275.929649 
L 207.820744 278.011543 
L 208.001075 278.221643 
L 208.181407 281.583234 
L 208.361738 280.513637 
L 208.542069 272.472557 
L 208.722401 279.46314 
L 208.902912 278.909241 
L 209.083424 282.213533 
L 209.263936 271.11646 
L 209.444448 273.351155 
L 209.624959 272.739956 
L 209.805471 287.25592 
L 210.166494 274.057853 
L 210.346826 282.461832 
L 210.527157 276.502647 
L 210.707488 282.671932 
L 210.88782 279.55864 
L 211.068151 279.42494 
L 211.248663 284.180828 
L 211.428994 279.768739 
L 211.789657 286.530122 
L 211.969988 276.426247 
L 212.15032 278.298043 
L 212.330651 282.060733 
L 212.510983 275.662249 
L 212.691314 284.314528 
L 212.871645 284.715627 
L 213.232308 281.869734 
L 213.412639 284.639227 
L 213.773302 275.967848 
L 213.953634 285.938024 
L 214.133965 282.920231 
L 214.314296 276.426247 
L 214.494628 278.355342 
L 214.674959 281.697834 
L 214.85529 279.978838 
L 215.035622 279.902439 
L 215.215953 284.524627 
L 215.396285 284.677427 
L 215.576616 280.513637 
L 215.756947 281.774234 
L 215.937279 286.339123 
L 216.11761 282.595532 
L 216.297941 275.24205 
L 216.478273 280.666437 
L 216.658604 276.999246 
L 216.838936 295.488 
L 217.019267 280.055238 
L 217.199598 278.718242 
L 217.37993 286.339123 
L 217.560261 281.755134 
L 217.740592 285.269525 
L 217.920924 278.049743 
L 218.101255 285.995324 
L 218.462098 277.056546 
L 218.64243 278.469942 
L 218.822761 282.328133 
L 219.003092 280.590037 
L 219.183424 276.922846 
L 219.363755 283.741529 
L 219.544087 284.238128 
L 219.724418 277.572244 
L 219.904749 282.958431 
L 220.085081 275.26115 
L 220.265412 282.232633 
L 220.445743 280.418137 
L 220.626075 280.914736 
L 220.806406 282.022533 
L 220.986738 277.400345 
L 221.167069 278.126143 
L 221.528061 284.199928 
L 221.708554 288.764817 
L 221.889048 277.648644 
L 222.069542 282.423632 
L 222.250035 283.39773 
L 222.430529 278.240743 
L 222.611023 283.703329 
L 222.791516 282.328133 
L 222.97201 282.786532 
L 223.152503 281.201235 
L 223.332997 290.674812 
L 223.513491 289.318715 
L 223.693984 286.415523 
L 223.874478 279.577739 
L 224.054972 278.145243 
L 224.235465 281.411335 
L 224.415959 282.003433 
L 224.596453 286.205423 
L 224.776946 281.430435 
L 224.95744 282.270833 
L 225.137934 279.978838 
L 225.318427 280.723737 
L 225.498921 289.280515 
L 225.679415 287.084021 
L 225.859908 290.350113 
L 226.040402 277.916044 
L 226.401389 285.326825 
L 226.581883 281.105736 
L 226.762377 282.423632 
L 226.94287 281.124836 
L 227.123364 281.354035 
L 227.303858 287.179521 
L 227.845339 281.525935 
L 228.025832 281.086636 
L 228.206326 284.906626 
L 228.38682 279.17664 
L 228.567313 284.142628 
L 228.747807 276.254348 
L 228.9283 280.590037 
L 229.108794 276.254348 
L 229.650275 284.849326 
L 229.830769 282.003433 
L 230.191756 281.354035 
L 230.37225 289.987214 
L 230.552743 275.566749 
L 230.913731 279.978838 
L 231.094224 288.096318 
L 231.274718 281.105736 
L 231.455212 278.928341 
L 231.635705 291.59161 
L 231.816199 287.29412 
L 231.996693 293.291505 
L 232.177186 273.217455 
L 232.35768 283.626929 
L 232.538174 278.298043 
L 233.079655 291.57251 
L 233.260148 280.036138 
L 233.440642 279.978838 
L 233.621136 286.281823 
L 233.801629 274.707252 
L 233.982123 282.996631 
L 234.162617 284.562827 
L 234.34311 281.296735 
L 234.523604 283.092131 
L 234.704098 279.883339 
L 234.884591 281.411335 
L 235.065085 285.899824 
L 235.245578 285.135826 
L 235.426072 277.763244 
L 235.606566 282.022533 
L 235.787059 282.748332 
L 235.967553 280.933836 
L 236.148047 283.798829 
L 236.32854 293.883604 
L 236.509034 284.486427 
L 236.689528 288.592917 
L 236.870021 283.35953 
L 237.050515 289.051316 
L 237.231009 284.123528 
L 237.411502 284.085328 
L 237.591996 285.861624 
L 237.77249 283.37863 
L 237.952983 285.365025 
L 238.313971 276.655447 
L 238.855452 286.358223 
L 239.035945 277.514945 
L 239.396933 288.478317 
L 239.577426 285.021226 
L 239.75792 279.27214 
L 239.938414 280.991136 
L 240.118907 281.201235 
L 240.479895 285.556025 
L 240.660388 283.779729 
L 240.840882 283.665129 
L 241.021376 279.25304 
L 241.201869 279.50134 
L 241.382363 287.44692 
L 241.562857 283.49323 
L 241.74335 283.053931 
L 242.104337 280.093438 
L 242.465325 284.276328 
L 242.645818 279.19574 
L 242.826312 283.35953 
L 243.006806 284.543727 
L 243.187299 280.532737 
L 243.367793 279.768739 
L 243.72878 280.723737 
L 243.909274 284.295428 
L 244.089768 276.101548 
L 244.270261 278.355342 
L 244.450755 276.044248 
L 244.631249 276.693647 
L 244.992236 290.311913 
L 245.17273 276.483547 
L 245.353223 275.700449 
L 245.533717 282.538232 
L 245.714211 281.277635 
L 245.894704 276.693647 
L 246.075198 281.143936 
L 246.255692 281.354035 
L 246.436185 275.776849 
L 246.616679 275.18475 
L 246.977666 287.733419 
L 247.15816 275.45215 
L 247.338654 281.583234 
L 247.699641 280.227138 
L 247.880134 288.841216 
L 248.060628 279.48224 
L 248.241122 285.078526 
L 248.421615 282.691032 
L 248.602109 282.557332 
L 248.782603 284.123528 
L 248.963096 279.44404 
L 249.14359 281.220335 
L 249.324084 291.34331 
L 249.504577 278.565442 
L 249.685071 278.126143 
L 249.865565 287.38962 
L 250.046058 273.618554 
L 250.226552 282.098933 
L 250.407046 275.891449 
L 250.587539 287.217721 
L 250.768033 278.660942 
L 250.948527 283.56963 
L 251.12902 272.377057 
L 251.309514 283.856129 
L 251.490008 273.771354 
L 251.850995 280.112538 
L 252.031489 280.628237 
L 252.392476 280.647337 
L 252.57297 275.585849 
L 252.753463 278.909241 
L 253.114451 280.972036 
L 253.294944 273.503955 
L 253.475438 282.098933 
L 253.655932 281.029336 
L 253.836425 272.969156 
L 254.197413 280.093438 
L 254.377906 277.247545 
L 254.5584 280.437237 
L 254.738894 280.933836 
L 254.919387 276.865546 
L 255.099881 282.691032 
L 255.280374 280.819236 
L 255.460868 275.700449 
L 255.641362 277.190245 
L 256.002349 292.871306 
L 256.182843 279.692339 
L 256.363336 280.055238 
L 256.54383 277.152045 
L 256.724324 278.107043 
L 256.904817 287.179521 
L 257.085311 283.149431 
L 257.265805 274.669052 
L 257.446298 275.967848 
L 257.626792 273.312955 
L 257.807286 283.875229 
L 257.987779 277.132946 
L 258.348767 285.345925 
L 258.709754 276.063348 
L 258.890248 281.430435 
L 259.070741 278.412642 
L 259.251235 281.086636 
L 259.431729 279.19574 
L 259.612222 279.997938 
L 259.792716 283.684229 
L 259.97321 282.098933 
L 260.153703 279.34854 
L 260.334197 279.692339 
L 260.514691 281.354035 
L 260.695184 275.700449 
L 260.875678 276.273448 
L 261.236665 278.832841 
L 261.417159 277.744144 
L 261.597652 277.954243 
L 261.778146 275.662249 
L 261.95864 280.819236 
L 262.139133 277.744144 
L 262.319627 279.34854 
L 262.500121 278.049743 
L 262.680614 285.880724 
L 263.041602 276.177948 
L 263.222095 279.711439 
L 263.402589 275.49035 
L 263.583083 276.044248 
L 263.763576 279.883339 
L 263.94407 276.884646 
L 264.124564 281.124836 
L 264.305057 280.418137 
L 264.485551 283.37863 
L 264.666045 277.152045 
L 264.846538 277.152045 
L 265.027032 275.986948 
L 265.388019 281.124836 
L 265.568513 279.53954 
L 265.749007 276.177948 
L 266.109994 282.729232 
L 266.290488 279.44404 
L 266.651475 282.958431 
L 266.831968 280.800136 
L 267.012462 280.208038 
L 267.192956 284.658327 
L 267.373449 276.216148 
L 267.553943 279.902439 
L 267.734437 277.858744 
L 267.91493 277.973343 
L 268.095424 284.066228 
L 268.456411 280.475437 
L 268.636905 281.812434 
L 268.817399 279.654139 
L 268.997892 276.006048 
L 269.178386 279.25304 
L 269.35888 269.932263 
L 269.539373 280.895636 
L 269.719867 278.851941 
L 269.900361 283.53143 
L 270.080854 279.673239 
L 270.261348 281.678734 
L 270.441842 276.101548 
L 270.622335 279.940639 
L 270.802829 279.883339 
L 270.983323 277.629544 
L 271.163816 284.963926 
L 271.524804 278.355342 
L 271.705297 278.966541 
L 271.885791 281.315835 
L 272.066285 282.194433 
L 272.246778 285.345925 
L 272.427272 278.030643 
L 272.607766 282.729232 
L 272.788259 273.465755 
L 272.968753 272.415257 
L 273.149247 282.079833 
L 273.32974 278.278943 
L 273.510234 280.284438 
L 273.690727 279.787839 
L 273.871221 279.959739 
L 274.051715 283.684229 
L 274.232208 274.726351 
L 274.412702 274.306153 
L 274.593196 274.974651 
L 274.773689 284.620127 
L 274.954183 275.757749 
L 275.134677 280.876536 
L 275.315172 282.442732 
L 275.495683 274.248853 
L 275.676195 274.229753 
L 275.856707 281.506835 
L 276.037218 274.191553 
L 276.21773 279.673239 
L 276.398242 280.112538 
L 276.578573 276.941946 
L 276.758905 276.044248 
L 276.939236 280.628237 
L 277.119567 279.978838 
L 277.299899 281.774234 
L 277.48023 276.941946 
L 277.660561 279.730539 
L 277.840893 279.883339 
L 278.021224 277.572244 
L 278.201736 280.704637 
L 278.382067 278.775541 
L 278.562399 281.010236 
L 278.923061 274.096053 
L 279.103393 279.50134 
L 279.283724 280.742837 
L 279.464056 280.169838 
L 279.644387 278.145243 
L 279.824718 279.17664 
L 280.00505 274.344352 
L 280.185381 278.164343 
L 280.365893 279.29124 
L 280.546224 279.23394 
L 280.906887 276.197048 
L 281.087218 283.111231 
L 281.26755 278.641842 
L 281.447881 278.890141 
L 281.628212 281.124836 
L 281.808544 280.188938 
L 281.988875 277.686844 
L 282.169207 278.317143 
L 282.349538 281.315835 
L 282.529869 273.026456 
L 282.710201 278.546342 
L 283.070863 275.967848 
L 283.251195 280.399037 
L 283.431526 277.476745 
L 283.611858 279.17664 
L 283.792189 276.216148 
L 284.333183 278.909241 
L 284.513514 277.476745 
L 284.693846 282.060733 
L 284.874177 274.439852 
L 285.054509 273.561254 
L 285.23484 275.566749 
L 285.415171 283.053931 
L 285.595503 276.139748 
L 285.775834 278.068843 
L 285.956165 274.783651 
L 286.136497 278.775541 
L 286.316828 276.502647 
L 286.49716 280.761937 
L 286.677491 276.139748 
L 286.857822 277.343045 
L 287.038154 271.804059 
L 287.218485 280.570937 
L 287.398817 276.483547 
L 287.579148 277.247545 
L 287.759479 275.29935 
L 287.939811 275.12745 
L 288.120142 273.714054 
L 288.300473 274.688152 
L 288.480805 273.312955 
L 288.841468 280.112538 
L 289.021799 272.186058 
L 289.382462 280.017038 
L 289.562793 275.910549 
L 289.743124 276.846446 
L 289.923456 275.43305 
L 290.103787 275.089251 
L 290.46445 280.723737 
L 290.644781 277.190245 
L 290.825113 270.333362 
L 291.005444 275.853249 
L 291.185775 271.17376 
L 291.366107 271.918658 
L 291.546438 279.730539 
L 291.72677 275.28025 
L 291.907101 277.018346 
L 292.087432 271.17376 
L 292.267764 272.854556 
L 292.448095 277.457645 
L 293.169421 272.739956 
L 293.349752 274.306153 
L 293.530083 273.446655 
L 293.890746 277.686844 
L 294.071077 273.771354 
L 294.251409 276.426247 
L 294.612072 272.224258 
L 294.792403 275.37575 
L 294.972734 282.385432 
L 295.153066 270.619862 
L 295.333397 275.45215 
L 295.513728 272.262458 
L 295.69406 273.962353 
L 295.874572 273.312955 
L 296.054903 274.478052 
L 296.235234 277.916044 
L 296.415746 272.510757 
L 296.596077 270.868161 
L 296.776409 273.255655 
L 296.95674 271.078261 
L 297.137072 272.587157 
L 297.317403 270.314262 
L 297.497734 263.05628 
L 297.678066 273.503955 
L 298.038728 277.572244 
L 298.21906 276.636347 
L 298.399391 286.148123 
L 298.579723 274.363452 
L 298.760054 277.610444 
L 299.120717 268.136868 
L 299.301048 276.770046 
L 299.481379 276.617247 
L 299.661711 266.169573 
L 299.842042 271.09736 
L 300.022374 283.45503 
L 300.202705 264.164078 
L 300.563368 273.694954 
L 300.92403 272.128758 
L 301.284693 275.20385 
L 301.465025 271.47936 
L 301.645356 275.31845 
L 301.825687 267.793069 
L 302.006019 272.644457 
L 302.18635 270.161463 
L 302.366681 273.885954 
L 302.727344 271.708559 
L 302.907676 273.675854 
L 303.088007 270.562562 
L 303.268338 273.064656 
L 303.629001 268.862666 
L 303.989664 273.561254 
L 304.169995 267.487469 
L 304.350327 275.681349 
L 304.530658 277.495845 
L 304.710989 271.727659 
L 304.891321 270.791761 
L 305.071652 275.872349 
L 305.251983 274.573552 
L 305.432315 267.12457 
L 305.612646 273.370255 
L 305.792978 274.458952 
L 305.973309 273.427555 
L 306.15364 270.791761 
L 306.333972 286.778422 
L 306.514303 267.27737 
L 306.694634 278.909241 
L 306.874966 281.296735 
L 307.055297 274.134253 
L 307.41596 270.199663 
L 307.596291 275.33755 
L 307.776623 270.123263 
L 307.956954 274.688152 
L 308.137286 282.347233 
L 308.317617 271.32656 
L 308.497948 277.362145 
L 308.67828 268.557067 
L 308.858611 274.287053 
L 309.038942 274.955551 
L 309.219274 265.806674 
L 309.399605 276.598147 
L 309.579937 273.905054 
L 309.940599 273.465755 
L 310.301262 266.704371 
L 310.661925 272.529857 
L 311.022948 276.044248 
L 311.20328 279.826039 
L 311.383791 270.696261 
L 311.744454 276.273448 
L 312.105297 268.346967 
L 312.285628 275.43305 
L 312.646291 273.083756 
L 312.826803 277.763244 
L 313.007315 276.139748 
L 313.187646 271.727659 
L 313.367977 274.860051 
L 313.548309 271.059161 
L 313.72864 275.49035 
L 313.908972 274.630852 
L 314.089303 276.579047 
L 314.269634 274.000553 
L 314.449966 275.834149 
L 314.630297 274.287053 
L 314.99096 275.547649 
L 315.171291 275.26115 
L 315.351623 274.592652 
L 315.531954 272.644457 
L 315.712285 276.903746 
L 315.892617 276.770046 
L 316.072948 272.778156 
L 316.253279 274.840951 
L 316.433611 268.327867 
L 316.613942 270.505262 
L 316.794274 269.550264 
L 317.154936 272.128758 
L 317.335268 271.899559 
L 317.515599 277.457645 
L 317.69593 273.828654 
L 317.876262 272.491657 
L 318.056593 274.458952 
L 318.236925 272.415257 
L 318.417256 280.972036 
L 318.597587 268.346967 
L 318.777919 268.919966 
L 318.95825 269.989563 
L 319.138582 269.703064 
L 319.499244 276.158848 
L 319.859907 269.932263 
L 320.040238 271.995058 
L 320.22057 267.640269 
L 320.400901 270.906361 
L 320.581233 267.582969 
L 320.941895 269.894063 
L 321.122227 282.098933 
L 321.482889 266.226873 
L 321.843552 270.486162 
L 322.023884 272.682657 
L 322.204215 272.739956 
L 322.384546 266.494272 
L 322.564878 271.861359 
L 322.92554 271.25016 
L 323.105872 274.955551 
L 323.286203 269.492964 
L 323.466535 278.527242 
L 323.646866 264.679776 
L 324.007529 283.722429 
L 324.368191 268.442467 
L 324.548523 265.959473 
L 324.728854 271.46026 
L 324.909186 268.518867 
L 325.089517 276.197048 
L 325.269848 265.615674 
L 325.45018 268.404267 
L 325.630511 273.045556 
L 325.810842 273.198355 
L 325.991174 275.700449 
L 326.171505 271.25016 
L 326.532168 276.808246 
L 326.712499 266.971771 
L 326.892831 274.172453 
L 327.073162 273.809554 
L 327.253493 270.925461 
L 327.433825 271.040061 
L 327.614156 269.282865 
L 327.794488 269.836764 
L 327.974819 269.798564 
L 328.15515 274.478052 
L 328.335482 272.109658 
L 328.515813 278.336243 
L 328.876476 261.528284 
L 329.056807 271.593959 
L 329.237319 273.312955 
L 329.417831 269.110965 
L 329.598342 273.828654 
L 329.778854 271.40296 
L 329.959366 271.746759 
L 330.139878 268.728966 
L 330.320389 270.027763 
L 330.500901 275.45215 
L 330.861564 263.30458 
L 331.041895 262.884381 
L 331.402558 270.505262 
L 331.582889 266.971771 
L 331.763401 274.726351 
L 332.124064 268.786266 
L 332.304395 270.505262 
L 332.484726 265.921273 
L 332.665058 268.041368 
L 332.845389 272.739956 
L 333.025721 268.060468 
L 333.206052 271.861359 
L 333.386383 279.711439 
L 333.747046 268.939066 
L 333.927377 273.561254 
L 334.107709 267.27737 
L 334.28804 271.46026 
L 334.468372 269.664864 
L 334.648703 270.333362 
L 334.829034 268.709866 
L 335.009366 269.569364 
L 335.189697 271.689459 
L 335.370028 270.467062 
L 335.55036 274.688152 
L 335.730691 265.768474 
L 335.911023 270.944561 
L 336.091354 267.793069 
L 336.271685 271.823159 
L 336.452017 268.366067 
L 336.632348 268.977266 
L 336.812679 265.558374 
L 336.993011 271.40296 
L 337.173342 269.110965 
L 337.353674 272.090558 
L 337.534005 266.551572 
L 337.714336 271.46026 
L 337.894668 271.727659 
L 338.074999 266.914471 
L 338.25533 273.847754 
L 338.435662 263.457379 
L 338.615993 268.232368 
L 338.796325 266.952671 
L 338.976656 269.397465 
L 339.156987 265.634774 
L 339.337319 273.274755 
L 339.51765 267.812169 
L 339.697981 268.232368 
L 339.878313 266.284172 
L 340.058644 269.454765 
L 340.238976 268.461567 
L 340.419307 273.675854 
L 340.599638 273.962353 
L 340.77997 268.327867 
L 341.320964 273.332055 
L 341.501295 267.41107 
L 341.681627 268.614367 
L 341.861958 271.001861 
L 342.222621 266.742571 
L 342.583284 270.333362 
L 342.763615 266.054973 
L 343.124278 270.467062 
L 343.304609 266.838071 
L 343.48494 269.492964 
L 343.665272 267.37287 
L 343.845603 267.08637 
L 344.025935 272.797256 
L 344.206266 273.752254 
L 344.566929 263.629279 
L 344.74726 269.664864 
L 344.927591 269.970463 
L 345.107923 259.23629 
L 345.288254 269.053666 
L 345.468586 266.456072 
L 345.648917 269.206465 
L 345.829248 275.012851 
L 346.00958 266.284172 
L 346.189911 271.784959 
L 346.370242 262.903481 
L 346.550574 269.225565 
L 346.730905 265.787574 
L 346.911237 279.42494 
L 347.091568 265.405575 
L 347.271899 269.951363 
L 347.452231 265.520174 
L 347.632562 264.908976 
L 347.812893 271.21196 
L 347.993225 267.525669 
L 348.173556 267.029071 
L 348.353888 260.668786 
L 348.534219 267.984068 
L 348.894882 264.985376 
L 349.075213 269.779464 
L 349.255544 271.11646 
L 349.435876 273.599454 
L 349.616207 266.417872 
L 349.796539 268.251468 
L 349.97687 271.842259 
L 350.157201 269.874964 
L 350.517864 264.469677 
L 350.698195 264.870776 
L 350.878527 277.667744 
L 351.058858 266.303272 
L 351.23919 265.806674 
L 351.419521 267.18187 
L 351.599852 266.093173 
L 351.780184 270.008663 
L 351.960515 271.28836 
L 352.140847 260.668786 
L 352.321178 271.880459 
L 352.501509 264.507877 
L 352.862172 262.368682 
L 353.222835 269.416565 
L 353.403166 268.079568 
L 353.583498 261.948483 
L 353.763829 266.627972 
L 353.94416 265.940373 
L 354.304823 267.23917 
L 354.485154 261.413685 
L 354.665486 264.259577 
L 354.845817 271.555759 
L 355.026149 271.26926 
L 355.20648 261.528284 
L 355.567143 266.742571 
L 355.747474 268.442467 
L 355.927805 264.259577 
L 356.108137 269.340165 
L 356.288468 268.155968 
L 356.4688 262.254082 
L 356.649131 276.846446 
L 357.009794 262.215883 
L 357.190125 273.160155 
L 357.370456 269.760364 
L 357.550788 272.224258 
L 357.731119 265.405575 
L 357.911451 265.940373 
L 358.091782 262.483282 
L 358.272113 267.945868 
L 358.452445 262.712481 
L 358.632776 269.569364 
L 358.813107 264.794376 
L 358.993439 266.627972 
L 359.17377 263.686579 
L 359.354102 274.019653 
L 359.714764 264.450577 
L 359.895096 263.992178 
L 360.255939 272.338857 
L 360.43627 271.708559 
L 360.616602 265.558374 
L 360.977264 276.426247 
L 361.518258 265.768474 
L 361.69859 272.128758 
L 361.878921 269.397465 
L 362.059253 264.717976 
L 362.239584 267.33467 
L 362.419915 266.589772 
L 362.600247 267.22007 
L 362.780578 270.085063 
L 363.141241 264.278677 
L 363.321572 267.773969 
L 363.682235 260.248587 
L 364.223229 267.048171 
L 364.40356 261.490084 
L 364.583892 264.737076 
L 364.764223 260.324987 
L 364.944555 267.37287 
L 365.124886 264.030378 
L 365.305217 264.928076 
L 365.485549 266.570672 
L 365.66588 266.895371 
L 365.846211 269.149165 
L 366.026543 259.446389 
L 366.206874 260.114888 
L 366.387206 262.177683 
L 366.567537 268.060468 
L 366.747868 263.36188 
L 366.9282 261.566484 
L 367.108531 265.634774 
L 367.288862 266.035873 
L 367.469194 261.031685 
L 367.649525 267.33467 
L 367.829857 264.297777 
L 368.010188 269.301965 
L 368.370851 261.012586 
L 368.731514 266.054973 
L 368.911845 261.203585 
L 369.272508 266.456072 
L 369.452839 255.2062 
L 369.63317 262.101283 
L 369.813502 258.739691 
L 370.174165 270.104163 
L 370.354496 266.456072 
L 370.715159 265.138175 
L 370.89549 260.573287 
L 371.075821 267.735769 
L 371.256153 268.404267 
L 371.436484 257.192595 
L 371.616816 270.658062 
L 371.797147 269.817664 
L 372.15781 261.451884 
L 372.338141 264.641577 
L 372.518472 263.18998 
L 372.698804 260.344087 
L 372.879135 260.668786 
L 373.059467 265.596574 
L 373.239798 274.134253 
L 373.420129 253.735504 
L 373.780792 262.043983 
L 373.961123 264.412377 
L 374.141455 264.259577 
L 374.321786 271.059161 
L 374.502118 262.234982 
L 374.86278 268.385167 
L 375.043112 257.421794 
L 375.584106 266.532472 
L 375.764437 272.014158 
L 375.944769 259.427289 
L 376.305431 266.322372 
L 376.485763 262.712481 
L 376.666094 263.571979 
L 376.846425 262.922581 
L 377.026757 260.936186 
L 377.207088 267.08637 
L 377.38742 268.136868 
L 377.567751 265.176375 
L 377.748082 265.863973 
L 377.928414 267.06727 
L 378.108745 264.240477 
L 378.289076 258.090293 
L 378.469408 264.335977 
L 378.649739 263.36188 
L 378.830071 263.018081 
L 379.010402 256.084798 
L 379.371065 261.852983 
L 379.551396 262.082183 
L 379.731728 258.548692 
L 379.912059 262.922581 
L 380.272722 257.077995 
L 380.453053 265.692074 
L 380.633384 261.146285 
L 380.813716 265.902173 
L 380.994047 263.648379 
L 381.174379 259.560989 
L 381.35471 263.018081 
L 381.535041 259.25539 
L 382.076035 266.971771 
L 382.256367 264.431477 
L 382.436698 256.275797 
L 382.61703 256.237597 
L 382.797361 263.20908 
L 382.977873 263.992178 
L 383.158384 265.348275 
L 383.338896 262.578782 
L 383.519227 265.653874 
L 383.699559 265.405575 
L 383.87989 263.801179 
L 384.060222 259.656489 
L 384.240553 263.552879 
L 384.420884 261.986683 
L 384.601396 262.998981 
L 384.781727 260.859786 
L 384.962059 261.795684 
L 385.14239 257.937493 
L 385.322722 258.892491 
L 385.503053 259.23629 
L 385.683384 263.018081 
L 385.863716 259.866588 
L 386.044047 260.477787 
L 386.224378 260.687886 
L 386.40471 262.559682 
L 386.765373 257.880193 
L 386.945704 259.04529 
L 387.126035 258.567792 
L 387.306367 268.060468 
L 387.486698 265.672974 
L 387.667029 259.522789 
L 387.847361 258.586892 
L 388.027692 255.3017 
L 388.208024 258.586892 
L 388.388355 257.249895 
L 388.749018 260.993486 
L 388.929349 265.883073 
L 389.10968 262.578782 
L 389.290192 257.097095 
L 389.651035 262.330482 
L 389.831367 258.949791 
L 390.011698 260.210387 
L 390.192029 260.133988 
L 390.372361 257.612794 
L 390.552692 265.672974 
L 390.733024 263.992178 
L 390.913355 257.307195 
L 391.093686 263.20908 
L 391.274018 256.447697 
L 391.454349 271.001861 
L 391.63468 259.981188 
L 391.815012 257.937493 
L 391.995343 261.318185 
L 392.175675 261.127185 
L 392.356006 257.803793 
L 392.536337 257.211695 
L 392.716669 258.013893 
L 392.897 261.661984 
L 393.077331 255.970198 
L 393.257663 256.657796 
L 393.437994 268.652567 
L 393.618326 257.268995 
L 393.798657 257.765594 
L 393.978988 255.874698 
L 394.15932 257.402694 
L 394.519982 263.915778 
L 394.700314 260.439587 
L 394.880645 252.799606 
L 395.241308 262.636081 
L 395.421639 255.645499 
L 395.601971 258.052093 
L 395.782302 256.256697 
L 395.962633 255.836498 
L 396.142965 254.900601 
L 396.323296 260.821586 
L 396.503628 256.046598 
L 396.683959 261.146285 
L 396.86429 259.02619 
L 397.044622 259.446389 
L 397.224953 261.413685 
L 397.405284 256.734196 
L 397.585616 261.222685 
L 397.765947 252.895106 
L 397.946279 258.204892 
L 398.12661 257.498194 
L 398.306941 256.180297 
L 398.487273 261.413685 
L 398.487273 261.413685 
" style="fill:none;stroke:#1f77b4;stroke-linecap:square;stroke-width:1.5;"/>
   </g>
   <g id="patch_3">
    <path d="M 57.6 307.584 
L 57.6 41.472 
" style="fill:none;stroke:#000000;stroke-linecap:square;stroke-linejoin:miter;stroke-width:0.8;"/>
   </g>
   <g id="patch_4">
    <path d="M 414.72 307.584 
L 414.72 41.472 
" style="fill:none;stroke:#000000;stroke-linecap:square;stroke-linejoin:miter;stroke-width:0.8;"/>
   </g>
   <g id="patch_5">
    <path d="M 57.6 307.584 
L 414.72 307.584 
" style="fill:none;stroke:#000000;stroke-linecap:square;stroke-linejoin:miter;stroke-width:0.8;"/>
   </g>
   <g id="patch_6">
    <path d="M 57.6 41.472 
L 414.72 41.472 
" style="fill:none;stroke:#000000;stroke-linecap:square;stroke-linejoin:miter;stroke-width:0.8;"/>
   </g>
   <g id="text_18">
    <!-- Voltage -->
    <g transform="translate(213.194063 35.472)scale(0.12 -0.12)">
     <use xlink:href="#DejaVuSans-56"/>
     <use x="68.298828" xlink:href="#DejaVuSans-6f"/>
     <use x="129.480469" xlink:href="#DejaVuSans-6c"/>
     <use x="157.263672" xlink:href="#DejaVuSans-74"/>
     <use x="196.472656" xlink:href="#DejaVuSans-61"/>
     <use x="257.751953" xlink:href="#DejaVuSans-67"/>
     <use x="321.228516" xlink:href="#DejaVuSans-65"/>
    </g>
   </g>
  </g>
 </g>
 <defs>
  <clipPath id="p35c453472f">
   <rect height="266.112" width="357.12" x="57.6" y="41.472"/>
  </clipPath>
 </defs>
</svg>
