<?xml version="1.0" encoding="utf-8" standalone="no"?>
<!DOCTYPE svg PUBLIC "-//W3C//DTD SVG 1.1//EN"
  "http://www.w3.org/Graphics/SVG/1.1/DTD/svg11.dtd">
<!-- Created with matplotlib (http://matplotlib.org/) -->
<svg height="345pt" version="1.1" viewBox="0 0 460 345" width="460pt" xmlns="http://www.w3.org/2000/svg" xmlns:xlink="http://www.w3.org/1999/xlink">
 <defs>
  <style type="text/css">
*{stroke-linecap:butt;stroke-linejoin:round;}
  </style>
 </defs>
 <g id="figure_1">
  <g id="patch_1">
   <path d="M 0 345.6 
L 460.8 345.6 
L 460.8 0 
L 0 0 
z
" style="fill:#ffffff;"/>
  </g>
  <g id="axes_1">
   <g id="patch_2">
    <path d="M 57.6 307.584 
L 414.72 307.584 
L 414.72 41.472 
L 57.6 41.472 
z
" style="fill:#ffffff;"/>
   </g>
   <g id="matplotlib.axis_1">
    <g id="xtick_1">
     <g id="line2d_1">
      <defs>
       <path d="M 0 0 
L 0 3.5 
" id="mffb7350875" style="stroke:#000000;stroke-width:0.8;"/>
      </defs>
      <g>
       <use style="stroke:#000000;stroke-width:0.8;" x="73.289843" xlink:href="#mffb7350875" y="307.584"/>
      </g>
     </g>
     <g id="text_1">
      <!-- 0 -->
      <defs>
       <path d="M 31.78125 66.40625 
Q 24.171875 66.40625 20.328125 58.90625 
Q 16.5 51.421875 16.5 36.375 
Q 16.5 21.390625 20.328125 13.890625 
Q 24.171875 6.390625 31.78125 6.390625 
Q 39.453125 6.390625 43.28125 13.890625 
Q 47.125 21.390625 47.125 36.375 
Q 47.125 51.421875 43.28125 58.90625 
Q 39.453125 66.40625 31.78125 66.40625 
z
M 31.78125 74.21875 
Q 44.046875 74.21875 50.515625 64.515625 
Q 56.984375 54.828125 56.984375 36.375 
Q 56.984375 17.96875 50.515625 8.265625 
Q 44.046875 -1.421875 31.78125 -1.421875 
Q 19.53125 -1.421875 13.0625 8.265625 
Q 6.59375 17.96875 6.59375 36.375 
Q 6.59375 54.828125 13.0625 64.515625 
Q 19.53125 74.21875 31.78125 74.21875 
z
" id="DejaVuSans-30"/>
      </defs>
      <g transform="translate(70.108593 322.182437)scale(0.1 -0.1)">
       <use xlink:href="#DejaVuSans-30"/>
      </g>
     </g>
    </g>
    <g id="xtick_2">
     <g id="line2d_2">
      <g>
       <use style="stroke:#000000;stroke-width:0.8;" x="127.578267" xlink:href="#mffb7350875" y="307.584"/>
      </g>
     </g>
     <g id="text_2">
      <!-- 100 -->
      <defs>
       <path d="M 12.40625 8.296875 
L 28.515625 8.296875 
L 28.515625 63.921875 
L 10.984375 60.40625 
L 10.984375 69.390625 
L 28.421875 72.90625 
L 38.28125 72.90625 
L 38.28125 8.296875 
L 54.390625 8.296875 
L 54.390625 0 
L 12.40625 0 
z
" id="DejaVuSans-31"/>
      </defs>
      <g transform="translate(118.034517 322.182437)scale(0.1 -0.1)">
       <use xlink:href="#DejaVuSans-31"/>
       <use x="63.623047" xlink:href="#DejaVuSans-30"/>
       <use x="127.246094" xlink:href="#DejaVuSans-30"/>
      </g>
     </g>
    </g>
    <g id="xtick_3">
     <g id="line2d_3">
      <g>
       <use style="stroke:#000000;stroke-width:0.8;" x="181.86669" xlink:href="#mffb7350875" y="307.584"/>
      </g>
     </g>
     <g id="text_3">
      <!-- 200 -->
      <defs>
       <path d="M 19.1875 8.296875 
L 53.609375 8.296875 
L 53.609375 0 
L 7.328125 0 
L 7.328125 8.296875 
Q 12.9375 14.109375 22.625 23.890625 
Q 32.328125 33.6875 34.8125 36.53125 
Q 39.546875 41.84375 41.421875 45.53125 
Q 43.3125 49.21875 43.3125 52.78125 
Q 43.3125 58.59375 39.234375 62.25 
Q 35.15625 65.921875 28.609375 65.921875 
Q 23.96875 65.921875 18.8125 64.3125 
Q 13.671875 62.703125 7.8125 59.421875 
L 7.8125 69.390625 
Q 13.765625 71.78125 18.9375 73 
Q 24.125 74.21875 28.421875 74.21875 
Q 39.75 74.21875 46.484375 68.546875 
Q 53.21875 62.890625 53.21875 53.421875 
Q 53.21875 48.921875 51.53125 44.890625 
Q 49.859375 40.875 45.40625 35.40625 
Q 44.1875 33.984375 37.640625 27.21875 
Q 31.109375 20.453125 19.1875 8.296875 
z
" id="DejaVuSans-32"/>
      </defs>
      <g transform="translate(172.32294 322.182437)scale(0.1 -0.1)">
       <use xlink:href="#DejaVuSans-32"/>
       <use x="63.623047" xlink:href="#DejaVuSans-30"/>
       <use x="127.246094" xlink:href="#DejaVuSans-30"/>
      </g>
     </g>
    </g>
    <g id="xtick_4">
     <g id="line2d_4">
      <g>
       <use style="stroke:#000000;stroke-width:0.8;" x="236.155114" xlink:href="#mffb7350875" y="307.584"/>
      </g>
     </g>
     <g id="text_4">
      <!-- 300 -->
      <defs>
       <path d="M 40.578125 39.3125 
Q 47.65625 37.796875 51.625 33 
Q 55.609375 28.21875 55.609375 21.1875 
Q 55.609375 10.40625 48.1875 4.484375 
Q 40.765625 -1.421875 27.09375 -1.421875 
Q 22.515625 -1.421875 17.65625 -0.515625 
Q 12.796875 0.390625 7.625 2.203125 
L 7.625 11.71875 
Q 11.71875 9.328125 16.59375 8.109375 
Q 21.484375 6.890625 26.8125 6.890625 
Q 36.078125 6.890625 40.9375 10.546875 
Q 45.796875 14.203125 45.796875 21.1875 
Q 45.796875 27.640625 41.28125 31.265625 
Q 36.765625 34.90625 28.71875 34.90625 
L 20.21875 34.90625 
L 20.21875 43.015625 
L 29.109375 43.015625 
Q 36.375 43.015625 40.234375 45.921875 
Q 44.09375 48.828125 44.09375 54.296875 
Q 44.09375 59.90625 40.109375 62.90625 
Q 36.140625 65.921875 28.71875 65.921875 
Q 24.65625 65.921875 20.015625 65.03125 
Q 15.375 64.15625 9.8125 62.3125 
L 9.8125 71.09375 
Q 15.4375 72.65625 20.34375 73.4375 
Q 25.25 74.21875 29.59375 74.21875 
Q 40.828125 74.21875 47.359375 69.109375 
Q 53.90625 64.015625 53.90625 55.328125 
Q 53.90625 49.265625 50.4375 45.09375 
Q 46.96875 40.921875 40.578125 39.3125 
z
" id="DejaVuSans-33"/>
      </defs>
      <g transform="translate(226.611364 322.182437)scale(0.1 -0.1)">
       <use xlink:href="#DejaVuSans-33"/>
       <use x="63.623047" xlink:href="#DejaVuSans-30"/>
       <use x="127.246094" xlink:href="#DejaVuSans-30"/>
      </g>
     </g>
    </g>
    <g id="xtick_5">
     <g id="line2d_5">
      <g>
       <use style="stroke:#000000;stroke-width:0.8;" x="290.443538" xlink:href="#mffb7350875" y="307.584"/>
      </g>
     </g>
     <g id="text_5">
      <!-- 400 -->
      <defs>
       <path d="M 37.796875 64.3125 
L 12.890625 25.390625 
L 37.796875 25.390625 
z
M 35.203125 72.90625 
L 47.609375 72.90625 
L 47.609375 25.390625 
L 58.015625 25.390625 
L 58.015625 17.1875 
L 47.609375 17.1875 
L 47.609375 0 
L 37.796875 0 
L 37.796875 17.1875 
L 4.890625 17.1875 
L 4.890625 26.703125 
z
" id="DejaVuSans-34"/>
      </defs>
      <g transform="translate(280.899788 322.182437)scale(0.1 -0.1)">
       <use xlink:href="#DejaVuSans-34"/>
       <use x="63.623047" xlink:href="#DejaVuSans-30"/>
       <use x="127.246094" xlink:href="#DejaVuSans-30"/>
      </g>
     </g>
    </g>
    <g id="xtick_6">
     <g id="line2d_6">
      <g>
       <use style="stroke:#000000;stroke-width:0.8;" x="344.731961" xlink:href="#mffb7350875" y="307.584"/>
      </g>
     </g>
     <g id="text_6">
      <!-- 500 -->
      <defs>
       <path d="M 10.796875 72.90625 
L 49.515625 72.90625 
L 49.515625 64.59375 
L 19.828125 64.59375 
L 19.828125 46.734375 
Q 21.96875 47.46875 24.109375 47.828125 
Q 26.265625 48.1875 28.421875 48.1875 
Q 40.625 48.1875 47.75 41.5 
Q 54.890625 34.8125 54.890625 23.390625 
Q 54.890625 11.625 47.5625 5.09375 
Q 40.234375 -1.421875 26.90625 -1.421875 
Q 22.3125 -1.421875 17.546875 -0.640625 
Q 12.796875 0.140625 7.71875 1.703125 
L 7.71875 11.625 
Q 12.109375 9.234375 16.796875 8.0625 
Q 21.484375 6.890625 26.703125 6.890625 
Q 35.15625 6.890625 40.078125 11.328125 
Q 45.015625 15.765625 45.015625 23.390625 
Q 45.015625 31 40.078125 35.4375 
Q 35.15625 39.890625 26.703125 39.890625 
Q 22.75 39.890625 18.8125 39.015625 
Q 14.890625 38.140625 10.796875 36.28125 
z
" id="DejaVuSans-35"/>
      </defs>
      <g transform="translate(335.188211 322.182437)scale(0.1 -0.1)">
       <use xlink:href="#DejaVuSans-35"/>
       <use x="63.623047" xlink:href="#DejaVuSans-30"/>
       <use x="127.246094" xlink:href="#DejaVuSans-30"/>
      </g>
     </g>
    </g>
    <g id="xtick_7">
     <g id="line2d_7">
      <g>
       <use style="stroke:#000000;stroke-width:0.8;" x="399.020385" xlink:href="#mffb7350875" y="307.584"/>
      </g>
     </g>
     <g id="text_7">
      <!-- 600 -->
      <defs>
       <path d="M 33.015625 40.375 
Q 26.375 40.375 22.484375 35.828125 
Q 18.609375 31.296875 18.609375 23.390625 
Q 18.609375 15.53125 22.484375 10.953125 
Q 26.375 6.390625 33.015625 6.390625 
Q 39.65625 6.390625 43.53125 10.953125 
Q 47.40625 15.53125 47.40625 23.390625 
Q 47.40625 31.296875 43.53125 35.828125 
Q 39.65625 40.375 33.015625 40.375 
z
M 52.59375 71.296875 
L 52.59375 62.3125 
Q 48.875 64.0625 45.09375 64.984375 
Q 41.3125 65.921875 37.59375 65.921875 
Q 27.828125 65.921875 22.671875 59.328125 
Q 17.53125 52.734375 16.796875 39.40625 
Q 19.671875 43.65625 24.015625 45.921875 
Q 28.375 48.1875 33.59375 48.1875 
Q 44.578125 48.1875 50.953125 41.515625 
Q 57.328125 34.859375 57.328125 23.390625 
Q 57.328125 12.15625 50.6875 5.359375 
Q 44.046875 -1.421875 33.015625 -1.421875 
Q 20.359375 -1.421875 13.671875 8.265625 
Q 6.984375 17.96875 6.984375 36.375 
Q 6.984375 53.65625 15.1875 63.9375 
Q 23.390625 74.21875 37.203125 74.21875 
Q 40.921875 74.21875 44.703125 73.484375 
Q 48.484375 72.75 52.59375 71.296875 
z
" id="DejaVuSans-36"/>
      </defs>
      <g transform="translate(389.476635 322.182437)scale(0.1 -0.1)">
       <use xlink:href="#DejaVuSans-36"/>
       <use x="63.623047" xlink:href="#DejaVuSans-30"/>
       <use x="127.246094" xlink:href="#DejaVuSans-30"/>
      </g>
     </g>
    </g>
    <g id="text_8">
     <!-- t(s) -->
     <defs>
      <path d="M 18.3125 70.21875 
L 18.3125 54.6875 
L 36.8125 54.6875 
L 36.8125 47.703125 
L 18.3125 47.703125 
L 18.3125 18.015625 
Q 18.3125 11.328125 20.140625 9.421875 
Q 21.96875 7.515625 27.59375 7.515625 
L 36.8125 7.515625 
L 36.8125 0 
L 27.59375 0 
Q 17.1875 0 13.234375 3.875 
Q 9.28125 7.765625 9.28125 18.015625 
L 9.28125 47.703125 
L 2.6875 47.703125 
L 2.6875 54.6875 
L 9.28125 54.6875 
L 9.28125 70.21875 
z
" id="DejaVuSans-74"/>
      <path d="M 31 75.875 
Q 24.46875 64.65625 21.28125 53.65625 
Q 18.109375 42.671875 18.109375 31.390625 
Q 18.109375 20.125 21.3125 9.0625 
Q 24.515625 -2 31 -13.1875 
L 23.1875 -13.1875 
Q 15.875 -1.703125 12.234375 9.375 
Q 8.59375 20.453125 8.59375 31.390625 
Q 8.59375 42.28125 12.203125 53.3125 
Q 15.828125 64.359375 23.1875 75.875 
z
" id="DejaVuSans-28"/>
      <path d="M 44.28125 53.078125 
L 44.28125 44.578125 
Q 40.484375 46.53125 36.375 47.5 
Q 32.28125 48.484375 27.875 48.484375 
Q 21.1875 48.484375 17.84375 46.4375 
Q 14.5 44.390625 14.5 40.28125 
Q 14.5 37.15625 16.890625 35.375 
Q 19.28125 33.59375 26.515625 31.984375 
L 29.59375 31.296875 
Q 39.15625 29.25 43.1875 25.515625 
Q 47.21875 21.78125 47.21875 15.09375 
Q 47.21875 7.46875 41.1875 3.015625 
Q 35.15625 -1.421875 24.609375 -1.421875 
Q 20.21875 -1.421875 15.453125 -0.5625 
Q 10.6875 0.296875 5.421875 2 
L 5.421875 11.28125 
Q 10.40625 8.6875 15.234375 7.390625 
Q 20.0625 6.109375 24.8125 6.109375 
Q 31.15625 6.109375 34.5625 8.28125 
Q 37.984375 10.453125 37.984375 14.40625 
Q 37.984375 18.0625 35.515625 20.015625 
Q 33.0625 21.96875 24.703125 23.78125 
L 21.578125 24.515625 
Q 13.234375 26.265625 9.515625 29.90625 
Q 5.8125 33.546875 5.8125 39.890625 
Q 5.8125 47.609375 11.28125 51.796875 
Q 16.75 56 26.8125 56 
Q 31.78125 56 36.171875 55.265625 
Q 40.578125 54.546875 44.28125 53.078125 
z
" id="DejaVuSans-73"/>
      <path d="M 8.015625 75.875 
L 15.828125 75.875 
Q 23.140625 64.359375 26.78125 53.3125 
Q 30.421875 42.28125 30.421875 31.390625 
Q 30.421875 20.453125 26.78125 9.375 
Q 23.140625 -1.703125 15.828125 -13.1875 
L 8.015625 -13.1875 
Q 14.5 -2 17.703125 9.0625 
Q 20.90625 20.125 20.90625 31.390625 
Q 20.90625 42.671875 17.703125 53.65625 
Q 14.5 64.65625 8.015625 75.875 
z
" id="DejaVuSans-29"/>
     </defs>
     <g transform="translate(227.693594 335.860562)scale(0.1 -0.1)">
      <use xlink:href="#DejaVuSans-74"/>
      <use x="39.208984" xlink:href="#DejaVuSans-28"/>
      <use x="78.222656" xlink:href="#DejaVuSans-73"/>
      <use x="130.322266" xlink:href="#DejaVuSans-29"/>
     </g>
    </g>
   </g>
   <g id="matplotlib.axis_2">
    <g id="ytick_1">
     <g id="line2d_8">
      <defs>
       <path d="M 0 0 
L -3.5 0 
" id="mb820ff72f8" style="stroke:#000000;stroke-width:0.8;"/>
      </defs>
      <g>
       <use style="stroke:#000000;stroke-width:0.8;" x="57.6" xlink:href="#mb820ff72f8" y="268.608"/>
      </g>
     </g>
     <g id="text_9">
      <!-- 0.00002 -->
      <defs>
       <path d="M 10.6875 12.40625 
L 21 12.40625 
L 21 0 
L 10.6875 0 
z
" id="DejaVuSans-2e"/>
      </defs>
      <g transform="translate(9.246875 272.407219)scale(0.1 -0.1)">
       <use xlink:href="#DejaVuSans-30"/>
       <use x="63.623047" xlink:href="#DejaVuSans-2e"/>
       <use x="95.410156" xlink:href="#DejaVuSans-30"/>
       <use x="159.033203" xlink:href="#DejaVuSans-30"/>
       <use x="222.65625" xlink:href="#DejaVuSans-30"/>
       <use x="286.279297" xlink:href="#DejaVuSans-30"/>
       <use x="349.902344" xlink:href="#DejaVuSans-32"/>
      </g>
     </g>
    </g>
    <g id="ytick_2">
     <g id="line2d_9">
      <g>
       <use style="stroke:#000000;stroke-width:0.8;" x="57.6" xlink:href="#mb820ff72f8" y="214.848"/>
      </g>
     </g>
     <g id="text_10">
      <!-- 0.00004 -->
      <g transform="translate(9.246875 218.647219)scale(0.1 -0.1)">
       <use xlink:href="#DejaVuSans-30"/>
       <use x="63.623047" xlink:href="#DejaVuSans-2e"/>
       <use x="95.410156" xlink:href="#DejaVuSans-30"/>
       <use x="159.033203" xlink:href="#DejaVuSans-30"/>
       <use x="222.65625" xlink:href="#DejaVuSans-30"/>
       <use x="286.279297" xlink:href="#DejaVuSans-30"/>
       <use x="349.902344" xlink:href="#DejaVuSans-34"/>
      </g>
     </g>
    </g>
    <g id="ytick_3">
     <g id="line2d_10">
      <g>
       <use style="stroke:#000000;stroke-width:0.8;" x="57.6" xlink:href="#mb820ff72f8" y="161.088"/>
      </g>
     </g>
     <g id="text_11">
      <!-- 0.00006 -->
      <g transform="translate(9.246875 164.887219)scale(0.1 -0.1)">
       <use xlink:href="#DejaVuSans-30"/>
       <use x="63.623047" xlink:href="#DejaVuSans-2e"/>
       <use x="95.410156" xlink:href="#DejaVuSans-30"/>
       <use x="159.033203" xlink:href="#DejaVuSans-30"/>
       <use x="222.65625" xlink:href="#DejaVuSans-30"/>
       <use x="286.279297" xlink:href="#DejaVuSans-30"/>
       <use x="349.902344" xlink:href="#DejaVuSans-36"/>
      </g>
     </g>
    </g>
    <g id="ytick_4">
     <g id="line2d_11">
      <g>
       <use style="stroke:#000000;stroke-width:0.8;" x="57.6" xlink:href="#mb820ff72f8" y="107.328"/>
      </g>
     </g>
     <g id="text_12">
      <!-- 0.00008 -->
      <defs>
       <path d="M 31.78125 34.625 
Q 24.75 34.625 20.71875 30.859375 
Q 16.703125 27.09375 16.703125 20.515625 
Q 16.703125 13.921875 20.71875 10.15625 
Q 24.75 6.390625 31.78125 6.390625 
Q 38.8125 6.390625 42.859375 10.171875 
Q 46.921875 13.96875 46.921875 20.515625 
Q 46.921875 27.09375 42.890625 30.859375 
Q 38.875 34.625 31.78125 34.625 
z
M 21.921875 38.8125 
Q 15.578125 40.375 12.03125 44.71875 
Q 8.5 49.078125 8.5 55.328125 
Q 8.5 64.0625 14.71875 69.140625 
Q 20.953125 74.21875 31.78125 74.21875 
Q 42.671875 74.21875 48.875 69.140625 
Q 55.078125 64.0625 55.078125 55.328125 
Q 55.078125 49.078125 51.53125 44.71875 
Q 48 40.375 41.703125 38.8125 
Q 48.828125 37.15625 52.796875 32.3125 
Q 56.78125 27.484375 56.78125 20.515625 
Q 56.78125 9.90625 50.3125 4.234375 
Q 43.84375 -1.421875 31.78125 -1.421875 
Q 19.734375 -1.421875 13.25 4.234375 
Q 6.78125 9.90625 6.78125 20.515625 
Q 6.78125 27.484375 10.78125 32.3125 
Q 14.796875 37.15625 21.921875 38.8125 
z
M 18.3125 54.390625 
Q 18.3125 48.734375 21.84375 45.5625 
Q 25.390625 42.390625 31.78125 42.390625 
Q 38.140625 42.390625 41.71875 45.5625 
Q 45.3125 48.734375 45.3125 54.390625 
Q 45.3125 60.0625 41.71875 63.234375 
Q 38.140625 66.40625 31.78125 66.40625 
Q 25.390625 66.40625 21.84375 63.234375 
Q 18.3125 60.0625 18.3125 54.390625 
z
" id="DejaVuSans-38"/>
      </defs>
      <g transform="translate(9.246875 111.127219)scale(0.1 -0.1)">
       <use xlink:href="#DejaVuSans-30"/>
       <use x="63.623047" xlink:href="#DejaVuSans-2e"/>
       <use x="95.410156" xlink:href="#DejaVuSans-30"/>
       <use x="159.033203" xlink:href="#DejaVuSans-30"/>
       <use x="222.65625" xlink:href="#DejaVuSans-30"/>
       <use x="286.279297" xlink:href="#DejaVuSans-30"/>
       <use x="349.902344" xlink:href="#DejaVuSans-38"/>
      </g>
     </g>
    </g>
    <g id="ytick_5">
     <g id="line2d_12">
      <g>
       <use style="stroke:#000000;stroke-width:0.8;" x="57.6" xlink:href="#mb820ff72f8" y="53.568"/>
      </g>
     </g>
     <g id="text_13">
      <!-- 0.00010 -->
      <g transform="translate(9.246875 57.367219)scale(0.1 -0.1)">
       <use xlink:href="#DejaVuSans-30"/>
       <use x="63.623047" xlink:href="#DejaVuSans-2e"/>
       <use x="95.410156" xlink:href="#DejaVuSans-30"/>
       <use x="159.033203" xlink:href="#DejaVuSans-30"/>
       <use x="222.65625" xlink:href="#DejaVuSans-30"/>
       <use x="286.279297" xlink:href="#DejaVuSans-31"/>
       <use x="349.902344" xlink:href="#DejaVuSans-30"/>
      </g>
     </g>
    </g>
    <g id="text_14">
     <!-- Pressure (bar) -->
     <defs>
      <path d="M 19.671875 64.796875 
L 19.671875 37.40625 
L 32.078125 37.40625 
Q 38.96875 37.40625 42.71875 40.96875 
Q 46.484375 44.53125 46.484375 51.125 
Q 46.484375 57.671875 42.71875 61.234375 
Q 38.96875 64.796875 32.078125 64.796875 
z
M 9.8125 72.90625 
L 32.078125 72.90625 
Q 44.34375 72.90625 50.609375 67.359375 
Q 56.890625 61.8125 56.890625 51.125 
Q 56.890625 40.328125 50.609375 34.8125 
Q 44.34375 29.296875 32.078125 29.296875 
L 19.671875 29.296875 
L 19.671875 0 
L 9.8125 0 
z
" id="DejaVuSans-50"/>
      <path d="M 41.109375 46.296875 
Q 39.59375 47.171875 37.8125 47.578125 
Q 36.03125 48 33.890625 48 
Q 26.265625 48 22.1875 43.046875 
Q 18.109375 38.09375 18.109375 28.8125 
L 18.109375 0 
L 9.078125 0 
L 9.078125 54.6875 
L 18.109375 54.6875 
L 18.109375 46.1875 
Q 20.953125 51.171875 25.484375 53.578125 
Q 30.03125 56 36.53125 56 
Q 37.453125 56 38.578125 55.875 
Q 39.703125 55.765625 41.0625 55.515625 
z
" id="DejaVuSans-72"/>
      <path d="M 56.203125 29.59375 
L 56.203125 25.203125 
L 14.890625 25.203125 
Q 15.484375 15.921875 20.484375 11.0625 
Q 25.484375 6.203125 34.421875 6.203125 
Q 39.59375 6.203125 44.453125 7.46875 
Q 49.3125 8.734375 54.109375 11.28125 
L 54.109375 2.78125 
Q 49.265625 0.734375 44.1875 -0.34375 
Q 39.109375 -1.421875 33.890625 -1.421875 
Q 20.796875 -1.421875 13.15625 6.1875 
Q 5.515625 13.8125 5.515625 26.8125 
Q 5.515625 40.234375 12.765625 48.109375 
Q 20.015625 56 32.328125 56 
Q 43.359375 56 49.78125 48.890625 
Q 56.203125 41.796875 56.203125 29.59375 
z
M 47.21875 32.234375 
Q 47.125 39.59375 43.09375 43.984375 
Q 39.0625 48.390625 32.421875 48.390625 
Q 24.90625 48.390625 20.390625 44.140625 
Q 15.875 39.890625 15.1875 32.171875 
z
" id="DejaVuSans-65"/>
      <path d="M 8.5 21.578125 
L 8.5 54.6875 
L 17.484375 54.6875 
L 17.484375 21.921875 
Q 17.484375 14.15625 20.5 10.265625 
Q 23.53125 6.390625 29.59375 6.390625 
Q 36.859375 6.390625 41.078125 11.03125 
Q 45.3125 15.671875 45.3125 23.6875 
L 45.3125 54.6875 
L 54.296875 54.6875 
L 54.296875 0 
L 45.3125 0 
L 45.3125 8.40625 
Q 42.046875 3.421875 37.71875 1 
Q 33.40625 -1.421875 27.6875 -1.421875 
Q 18.265625 -1.421875 13.375 4.4375 
Q 8.5 10.296875 8.5 21.578125 
z
M 31.109375 56 
z
" id="DejaVuSans-75"/>
      <path id="DejaVuSans-20"/>
      <path d="M 48.6875 27.296875 
Q 48.6875 37.203125 44.609375 42.84375 
Q 40.53125 48.484375 33.40625 48.484375 
Q 26.265625 48.484375 22.1875 42.84375 
Q 18.109375 37.203125 18.109375 27.296875 
Q 18.109375 17.390625 22.1875 11.75 
Q 26.265625 6.109375 33.40625 6.109375 
Q 40.53125 6.109375 44.609375 11.75 
Q 48.6875 17.390625 48.6875 27.296875 
z
M 18.109375 46.390625 
Q 20.953125 51.265625 25.265625 53.625 
Q 29.59375 56 35.59375 56 
Q 45.5625 56 51.78125 48.09375 
Q 58.015625 40.1875 58.015625 27.296875 
Q 58.015625 14.40625 51.78125 6.484375 
Q 45.5625 -1.421875 35.59375 -1.421875 
Q 29.59375 -1.421875 25.265625 0.953125 
Q 20.953125 3.328125 18.109375 8.203125 
L 18.109375 0 
L 9.078125 0 
L 9.078125 75.984375 
L 18.109375 75.984375 
z
" id="DejaVuSans-62"/>
      <path d="M 34.28125 27.484375 
Q 23.390625 27.484375 19.1875 25 
Q 14.984375 22.515625 14.984375 16.5 
Q 14.984375 11.71875 18.140625 8.90625 
Q 21.296875 6.109375 26.703125 6.109375 
Q 34.1875 6.109375 38.703125 11.40625 
Q 43.21875 16.703125 43.21875 25.484375 
L 43.21875 27.484375 
z
M 52.203125 31.203125 
L 52.203125 0 
L 43.21875 0 
L 43.21875 8.296875 
Q 40.140625 3.328125 35.546875 0.953125 
Q 30.953125 -1.421875 24.3125 -1.421875 
Q 15.921875 -1.421875 10.953125 3.296875 
Q 6 8.015625 6 15.921875 
Q 6 25.140625 12.171875 29.828125 
Q 18.359375 34.515625 30.609375 34.515625 
L 43.21875 34.515625 
L 43.21875 35.40625 
Q 43.21875 41.609375 39.140625 45 
Q 35.0625 48.390625 27.6875 48.390625 
Q 23 48.390625 18.546875 47.265625 
Q 14.109375 46.140625 10.015625 43.890625 
L 10.015625 52.203125 
Q 14.9375 54.109375 19.578125 55.046875 
Q 24.21875 56 28.609375 56 
Q 40.484375 56 46.34375 49.84375 
Q 52.203125 43.703125 52.203125 31.203125 
z
" id="DejaVuSans-61"/>
     </defs>
     <g transform="translate(3.167187 209.9655)rotate(-90)scale(0.1 -0.1)">
      <use xlink:href="#DejaVuSans-50"/>
      <use x="60.287109" xlink:href="#DejaVuSans-72"/>
      <use x="101.369141" xlink:href="#DejaVuSans-65"/>
      <use x="162.892578" xlink:href="#DejaVuSans-73"/>
      <use x="214.992188" xlink:href="#DejaVuSans-73"/>
      <use x="267.091797" xlink:href="#DejaVuSans-75"/>
      <use x="330.470703" xlink:href="#DejaVuSans-72"/>
      <use x="371.552734" xlink:href="#DejaVuSans-65"/>
      <use x="433.076172" xlink:href="#DejaVuSans-20"/>
      <use x="464.863281" xlink:href="#DejaVuSans-28"/>
      <use x="503.876953" xlink:href="#DejaVuSans-62"/>
      <use x="567.353516" xlink:href="#DejaVuSans-61"/>
      <use x="628.632812" xlink:href="#DejaVuSans-72"/>
      <use x="669.746094" xlink:href="#DejaVuSans-29"/>
     </g>
    </g>
    <g id="text_15">
     <!-- +9.909e−1 -->
     <defs>
      <path d="M 46 62.703125 
L 46 35.5 
L 73.1875 35.5 
L 73.1875 27.203125 
L 46 27.203125 
L 46 0 
L 37.796875 0 
L 37.796875 27.203125 
L 10.59375 27.203125 
L 10.59375 35.5 
L 37.796875 35.5 
L 37.796875 62.703125 
z
" id="DejaVuSans-2b"/>
      <path d="M 10.984375 1.515625 
L 10.984375 10.5 
Q 14.703125 8.734375 18.5 7.8125 
Q 22.3125 6.890625 25.984375 6.890625 
Q 35.75 6.890625 40.890625 13.453125 
Q 46.046875 20.015625 46.78125 33.40625 
Q 43.953125 29.203125 39.59375 26.953125 
Q 35.25 24.703125 29.984375 24.703125 
Q 19.046875 24.703125 12.671875 31.3125 
Q 6.296875 37.9375 6.296875 49.421875 
Q 6.296875 60.640625 12.9375 67.421875 
Q 19.578125 74.21875 30.609375 74.21875 
Q 43.265625 74.21875 49.921875 64.515625 
Q 56.59375 54.828125 56.59375 36.375 
Q 56.59375 19.140625 48.40625 8.859375 
Q 40.234375 -1.421875 26.421875 -1.421875 
Q 22.703125 -1.421875 18.890625 -0.6875 
Q 15.09375 0.046875 10.984375 1.515625 
z
M 30.609375 32.421875 
Q 37.25 32.421875 41.125 36.953125 
Q 45.015625 41.5 45.015625 49.421875 
Q 45.015625 57.28125 41.125 61.84375 
Q 37.25 66.40625 30.609375 66.40625 
Q 23.96875 66.40625 20.09375 61.84375 
Q 16.21875 57.28125 16.21875 49.421875 
Q 16.21875 41.5 20.09375 36.953125 
Q 23.96875 32.421875 30.609375 32.421875 
z
" id="DejaVuSans-39"/>
      <path d="M 10.59375 35.5 
L 73.1875 35.5 
L 73.1875 27.203125 
L 10.59375 27.203125 
z
" id="DejaVuSans-2212"/>
     </defs>
     <g transform="translate(57.6 38.472)scale(0.1 -0.1)">
      <use xlink:href="#DejaVuSans-2b"/>
      <use x="83.789062" xlink:href="#DejaVuSans-39"/>
      <use x="147.412109" xlink:href="#DejaVuSans-2e"/>
      <use x="179.199219" xlink:href="#DejaVuSans-39"/>
      <use x="242.822266" xlink:href="#DejaVuSans-30"/>
      <use x="306.445312" xlink:href="#DejaVuSans-39"/>
      <use x="370.068359" xlink:href="#DejaVuSans-65"/>
      <use x="431.591797" xlink:href="#DejaVuSans-2212"/>
      <use x="515.380859" xlink:href="#DejaVuSans-31"/>
     </g>
    </g>
   </g>
   <g id="line2d_13">
    <path clip-path="url(#p6b53500461)" d="M 73.832727 214.848 
L 74.375612 214.848 
L 74.918496 241.728 
L 75.46138 214.848 
L 76.004264 161.088 
L 76.547148 241.728 
L 77.632917 187.968 
L 78.175801 187.968 
L 78.718685 214.848 
L 79.26157 187.968 
L 79.804454 241.728 
L 80.347338 134.208 
L 80.890222 187.968 
L 81.433107 214.848 
L 81.975991 214.848 
L 82.518875 241.728 
L 83.061759 187.968 
L 83.604644 214.848 
L 84.690412 161.088 
L 85.233296 161.088 
L 85.77618 107.328 
L 86.319065 187.968 
L 86.861949 214.848 
L 87.947717 161.088 
L 88.490602 187.968 
L 89.033486 161.088 
L 89.57637 214.848 
L 90.119254 241.728 
L 91.205023 187.968 
L 91.747907 241.728 
L 92.290791 187.968 
L 92.833676 214.848 
L 93.37656 161.088 
L 93.919444 161.088 
L 94.462328 187.968 
L 95.005212 241.728 
L 96.633865 241.728 
L 97.176749 214.848 
L 97.719634 214.848 
L 98.262518 268.608 
L 98.805402 187.968 
L 99.348286 214.848 
L 99.891171 187.968 
L 100.434055 214.848 
L 100.976939 161.088 
L 102.062708 161.088 
L 103.148476 214.848 
L 103.69136 214.848 
L 104.777129 161.088 
L 105.862897 161.088 
L 106.405781 214.848 
L 106.948666 187.968 
L 107.49155 214.848 
L 108.034434 295.488 
L 108.577318 187.968 
L 109.120203 241.728 
L 109.663087 187.968 
L 110.205971 187.968 
L 110.748855 241.728 
L 111.834624 187.968 
L 112.377508 214.848 
L 112.920392 187.968 
L 113.463277 214.848 
L 114.006161 214.848 
L 114.549045 187.968 
L 115.091929 214.848 
L 115.634813 187.968 
L 116.177698 214.848 
L 116.720582 268.608 
L 117.263466 134.208 
L 117.80635 214.848 
L 118.349235 187.968 
L 118.892119 241.728 
L 119.435003 187.968 
L 119.977887 161.088 
L 120.520772 161.088 
L 121.063656 214.848 
L 121.60654 187.968 
L 122.149424 187.968 
L 122.692309 161.088 
L 123.778077 161.088 
L 124.320961 187.968 
L 124.863846 268.608 
L 125.407273 187.968 
L 125.950157 214.848 
L 127.037011 161.088 
L 127.580438 161.088 
L 128.667293 214.848 
L 129.21072 214.848 
L 129.754147 187.968 
L 130.841001 187.968 
L 131.927855 134.208 
L 132.470739 214.848 
L 133.013624 187.968 
L 135.186789 187.968 
L 135.730216 241.728 
L 136.273101 241.728 
L 136.815985 214.848 
L 137.358869 134.208 
L 137.901753 161.088 
L 138.444638 214.848 
L 138.987522 214.848 
L 139.530406 80.448 
L 140.07329 161.088 
L 140.616175 214.848 
L 141.701943 161.088 
L 142.244827 241.728 
L 142.787711 161.088 
L 143.330596 187.968 
L 144.416364 187.968 
L 144.959248 214.848 
L 145.502133 187.968 
L 148.759438 187.968 
L 149.302322 161.088 
L 149.845207 214.848 
L 150.388091 161.088 
L 150.930975 187.968 
L 153.102512 187.968 
L 153.645396 214.848 
L 154.18828 187.968 
L 154.731165 241.728 
L 155.274049 161.088 
L 155.816933 161.088 
L 156.359817 214.848 
L 156.902702 134.208 
L 157.445586 187.968 
L 157.98847 214.848 
L 158.531354 187.968 
L 159.074239 187.968 
L 159.617123 214.848 
L 160.160007 134.208 
L 160.702891 187.968 
L 161.245776 187.968 
L 161.78866 134.208 
L 162.331544 214.848 
L 162.874428 187.968 
L 163.417312 187.968 
L 163.960197 214.848 
L 164.503081 161.088 
L 165.045965 161.088 
L 165.588849 187.968 
L 166.131734 187.968 
L 166.674618 134.208 
L 167.217502 187.968 
L 168.303271 187.968 
L 168.846155 134.208 
L 169.389039 161.088 
L 171.560576 161.088 
L 172.10346 187.968 
L 172.646344 187.968 
L 173.189229 134.208 
L 173.732113 134.208 
L 174.274997 161.088 
L 174.817881 134.208 
L 175.360766 161.088 
L 176.446534 161.088 
L 176.989418 214.848 
L 177.532303 161.088 
L 178.075187 187.968 
L 178.618071 187.968 
L 179.160955 134.208 
L 179.70384 187.968 
L 180.789608 134.208 
L 181.332492 161.088 
L 181.875377 214.848 
L 182.418261 134.208 
L 182.961145 161.088 
L 183.504029 161.088 
L 184.046913 187.968 
L 184.589798 187.968 
L 185.132682 161.088 
L 185.675566 187.968 
L 186.21845 187.968 
L 186.761335 241.728 
L 187.304219 80.448 
L 187.847103 134.208 
L 188.389987 134.208 
L 188.932872 214.848 
L 190.561524 134.208 
L 191.104409 134.208 
L 191.647293 187.968 
L 192.190177 214.848 
L 192.733061 161.088 
L 193.275945 134.208 
L 193.81883 134.208 
L 194.361714 187.968 
L 194.904598 161.088 
L 195.447482 161.088 
L 195.990367 134.208 
L 196.533251 161.088 
L 197.076135 134.208 
L 197.619019 161.088 
L 198.161904 107.328 
L 198.704788 134.208 
L 199.790556 134.208 
L 200.333441 107.328 
L 200.876325 161.088 
L 201.419209 134.208 
L 201.962093 187.968 
L 203.047862 187.968 
L 203.590746 134.208 
L 204.676514 187.968 
L 205.219399 161.088 
L 205.762283 214.848 
L 206.305167 107.328 
L 206.848051 161.088 
L 207.390936 107.328 
L 207.93382 161.088 
L 208.476704 107.328 
L 209.019588 161.088 
L 209.562473 53.568 
L 210.105357 134.208 
L 211.191668 134.208 
L 211.734552 107.328 
L 212.277437 161.088 
L 212.820321 161.088 
L 213.906089 107.328 
L 214.991858 107.328 
L 215.534742 187.968 
L 216.077626 187.968 
L 216.620511 214.848 
L 217.163395 134.208 
L 217.706279 161.088 
L 218.249163 107.328 
L 218.792047 161.088 
L 219.334932 187.968 
L 219.877816 161.088 
L 220.4207 161.088 
L 220.963584 241.728 
L 221.506469 134.208 
L 222.049353 107.328 
L 222.592237 107.328 
L 223.135121 134.208 
L 223.678006 187.968 
L 224.22089 161.088 
L 224.763774 187.968 
L 225.306658 187.968 
L 225.849543 161.088 
L 226.392427 161.088 
L 226.935311 134.208 
L 227.478195 161.088 
L 228.021079 161.088 
L 228.563964 134.208 
L 229.106848 134.208 
L 229.649732 187.968 
L 230.735501 134.208 
L 231.278385 80.448 
L 231.821269 161.088 
L 232.364153 134.208 
L 232.907038 161.088 
L 233.449922 161.088 
L 234.53569 107.328 
L 235.078575 134.208 
L 235.621459 134.208 
L 236.164343 107.328 
L 236.707227 161.088 
L 237.250111 134.208 
L 237.792996 134.208 
L 238.33588 161.088 
L 238.878764 80.448 
L 239.421648 134.208 
L 239.964533 214.848 
L 240.507417 161.088 
L 241.050301 161.088 
L 241.593185 134.208 
L 242.13607 214.848 
L 242.678954 80.448 
L 243.221838 134.208 
L 243.764722 161.088 
L 244.850491 161.088 
L 245.393375 134.208 
L 247.022028 134.208 
L 247.564912 161.088 
L 248.107796 134.208 
L 248.65068 214.848 
L 249.193565 187.968 
L 250.279333 187.968 
L 250.822217 134.208 
L 251.907986 134.208 
L 252.45087 107.328 
L 252.993754 187.968 
L 253.536639 161.088 
L 254.079523 161.088 
L 254.622407 134.208 
L 255.165291 161.088 
L 256.25106 161.088 
L 257.336828 107.328 
L 257.879712 161.088 
L 258.422597 161.088 
L 258.965481 134.208 
L 259.508365 161.088 
L 260.051249 161.088 
L 260.594134 134.208 
L 261.137018 161.088 
L 261.679902 161.088 
L 262.222786 134.208 
L 263.308555 187.968 
L 263.851439 161.088 
L 264.394323 187.968 
L 264.937208 161.088 
L 266.56586 161.088 
L 267.108745 134.208 
L 268.194513 134.208 
L 268.737397 161.088 
L 270.36605 161.088 
L 270.908934 187.968 
L 271.451818 161.088 
L 271.994703 161.088 
L 272.537587 134.208 
L 273.080471 161.088 
L 273.623355 161.088 
L 274.16624 134.208 
L 275.252008 134.208 
L 275.794892 161.088 
L 276.337777 134.208 
L 276.880661 161.088 
L 277.423545 107.328 
L 277.966429 161.088 
L 278.509313 161.088 
L 279.052198 134.208 
L 280.68085 134.208 
L 281.223735 187.968 
L 281.766619 187.968 
L 282.309503 134.208 
L 282.852387 107.328 
L 283.938156 161.088 
L 284.48104 134.208 
L 285.566809 187.968 
L 286.109693 161.088 
L 286.652577 107.328 
L 287.195461 134.208 
L 287.738345 134.208 
L 288.28123 187.968 
L 288.824114 134.208 
L 289.366998 161.088 
L 289.909882 161.088 
L 290.452767 214.848 
L 290.995651 80.448 
L 291.538535 134.208 
L 292.081419 161.088 
L 292.624304 107.328 
L 293.167188 187.968 
L 293.710072 161.088 
L 295.881609 161.088 
L 296.424493 187.968 
L 296.967378 161.088 
L 297.510262 187.968 
L 298.053146 161.088 
L 299.138914 161.088 
L 299.681799 214.848 
L 300.224683 107.328 
L 300.767567 161.088 
L 301.310451 161.088 
L 301.853336 134.208 
L 302.39622 161.088 
L 304.024873 161.088 
L 304.567757 107.328 
L 305.110641 187.968 
L 305.653525 134.208 
L 306.19641 134.208 
L 306.739294 107.328 
L 307.282178 134.208 
L 308.367946 134.208 
L 308.910831 187.968 
L 309.996599 134.208 
L 310.539483 161.088 
L 311.625252 107.328 
L 312.168136 134.208 
L 312.71102 80.448 
L 313.253905 214.848 
L 313.796789 107.328 
L 314.339673 107.328 
L 314.882557 161.088 
L 316.51121 161.088 
L 317.054094 187.968 
L 318.682747 187.968 
L 319.225631 107.328 
L 319.768515 187.968 
L 320.3114 187.968 
L 320.854284 134.208 
L 321.397168 187.968 
L 322.482937 134.208 
L 323.025821 161.088 
L 325.197358 161.088 
L 325.740242 134.208 
L 326.283126 134.208 
L 326.826011 187.968 
L 327.368895 107.328 
L 327.911779 107.328 
L 328.454663 161.088 
L 328.997547 161.088 
L 329.540432 134.208 
L 330.083316 134.208 
L 330.6262 161.088 
L 331.169084 134.208 
L 332.254853 134.208 
L 332.797737 80.448 
L 333.883506 134.208 
L 334.42639 107.328 
L 334.969274 107.328 
L 335.512158 161.088 
L 336.055043 134.208 
L 339.855232 134.208 
L 340.398116 80.448 
L 340.941001 161.088 
L 341.483885 214.848 
L 342.026769 134.208 
L 344.198306 134.208 
L 344.74119 107.328 
L 345.826959 161.088 
L 346.369843 161.088 
L 346.912727 187.968 
L 347.455612 107.328 
L 347.998496 187.968 
L 348.54138 80.448 
L 349.084264 134.208 
L 349.627148 107.328 
L 350.170033 134.208 
L 351.255801 134.208 
L 351.798685 161.088 
L 352.34157 134.208 
L 353.970222 134.208 
L 354.513107 161.088 
L 355.055991 134.208 
L 356.141759 134.208 
L 356.684644 80.448 
L 357.227528 161.088 
L 358.85618 161.088 
L 359.399608 187.968 
L 359.942492 107.328 
L 360.485376 161.088 
L 363.199797 161.088 
L 363.742682 134.208 
L 364.285566 187.968 
L 364.82845 134.208 
L 365.371334 134.208 
L 365.914219 161.088 
L 366.457103 80.448 
L 366.999987 161.088 
L 367.542871 161.088 
L 368.085755 80.448 
L 368.62864 80.448 
L 369.171524 134.208 
L 369.714408 80.448 
L 370.257292 107.328 
L 370.800177 161.088 
L 371.343061 134.208 
L 371.885945 134.208 
L 372.428829 161.088 
L 372.971714 134.208 
L 373.514598 161.088 
L 374.600366 107.328 
L 375.143251 134.208 
L 375.686135 107.328 
L 376.229019 107.328 
L 376.771903 134.208 
L 377.314788 134.208 
L 377.857672 53.568 
L 378.400556 161.088 
L 378.94344 134.208 
L 379.486324 161.088 
L 380.029209 80.448 
L 381.114977 134.208 
L 381.657861 107.328 
L 382.200746 187.968 
L 382.74363 107.328 
L 383.829398 161.088 
L 384.372283 107.328 
L 385.458051 161.088 
L 386.000935 161.088 
L 386.54382 134.208 
L 387.086704 134.208 
L 387.629588 161.088 
L 388.172472 134.208 
L 389.258241 134.208 
L 389.801125 161.088 
L 390.344009 161.088 
L 390.886893 107.328 
L 391.429778 107.328 
L 391.972662 134.208 
L 392.515546 107.328 
L 393.05843 187.968 
L 393.601315 134.208 
L 394.144199 161.088 
L 394.687083 134.208 
L 395.229967 134.208 
L 395.772852 107.328 
L 396.315736 107.328 
L 396.85862 187.968 
L 397.401504 107.328 
L 397.944388 161.088 
L 398.487273 134.208 
L 398.487273 134.208 
" style="fill:none;stroke:#1f77b4;stroke-linecap:square;stroke-width:1.5;"/>
   </g>
   <g id="patch_3">
    <path d="M 57.6 307.584 
L 57.6 41.472 
" style="fill:none;stroke:#000000;stroke-linecap:square;stroke-linejoin:miter;stroke-width:0.8;"/>
   </g>
   <g id="patch_4">
    <path d="M 414.72 307.584 
L 414.72 41.472 
" style="fill:none;stroke:#000000;stroke-linecap:square;stroke-linejoin:miter;stroke-width:0.8;"/>
   </g>
   <g id="patch_5">
    <path d="M 57.6 307.584 
L 414.72 307.584 
" style="fill:none;stroke:#000000;stroke-linecap:square;stroke-linejoin:miter;stroke-width:0.8;"/>
   </g>
   <g id="patch_6">
    <path d="M 57.6 41.472 
L 414.72 41.472 
" style="fill:none;stroke:#000000;stroke-linecap:square;stroke-linejoin:miter;stroke-width:0.8;"/>
   </g>
   <g id="text_16">
    <!-- Pressure in main chamber -->
    <defs>
     <path d="M 9.421875 54.6875 
L 18.40625 54.6875 
L 18.40625 0 
L 9.421875 0 
z
M 9.421875 75.984375 
L 18.40625 75.984375 
L 18.40625 64.59375 
L 9.421875 64.59375 
z
" id="DejaVuSans-69"/>
     <path d="M 54.890625 33.015625 
L 54.890625 0 
L 45.90625 0 
L 45.90625 32.71875 
Q 45.90625 40.484375 42.875 44.328125 
Q 39.84375 48.1875 33.796875 48.1875 
Q 26.515625 48.1875 22.3125 43.546875 
Q 18.109375 38.921875 18.109375 30.90625 
L 18.109375 0 
L 9.078125 0 
L 9.078125 54.6875 
L 18.109375 54.6875 
L 18.109375 46.1875 
Q 21.34375 51.125 25.703125 53.5625 
Q 30.078125 56 35.796875 56 
Q 45.21875 56 50.046875 50.171875 
Q 54.890625 44.34375 54.890625 33.015625 
z
" id="DejaVuSans-6e"/>
     <path d="M 52 44.1875 
Q 55.375 50.25 60.0625 53.125 
Q 64.75 56 71.09375 56 
Q 79.640625 56 84.28125 50.015625 
Q 88.921875 44.046875 88.921875 33.015625 
L 88.921875 0 
L 79.890625 0 
L 79.890625 32.71875 
Q 79.890625 40.578125 77.09375 44.375 
Q 74.3125 48.1875 68.609375 48.1875 
Q 61.625 48.1875 57.5625 43.546875 
Q 53.515625 38.921875 53.515625 30.90625 
L 53.515625 0 
L 44.484375 0 
L 44.484375 32.71875 
Q 44.484375 40.625 41.703125 44.40625 
Q 38.921875 48.1875 33.109375 48.1875 
Q 26.21875 48.1875 22.15625 43.53125 
Q 18.109375 38.875 18.109375 30.90625 
L 18.109375 0 
L 9.078125 0 
L 9.078125 54.6875 
L 18.109375 54.6875 
L 18.109375 46.1875 
Q 21.1875 51.21875 25.484375 53.609375 
Q 29.78125 56 35.6875 56 
Q 41.65625 56 45.828125 52.96875 
Q 50 49.953125 52 44.1875 
z
" id="DejaVuSans-6d"/>
     <path d="M 48.78125 52.59375 
L 48.78125 44.1875 
Q 44.96875 46.296875 41.140625 47.34375 
Q 37.3125 48.390625 33.40625 48.390625 
Q 24.65625 48.390625 19.8125 42.84375 
Q 14.984375 37.3125 14.984375 27.296875 
Q 14.984375 17.28125 19.8125 11.734375 
Q 24.65625 6.203125 33.40625 6.203125 
Q 37.3125 6.203125 41.140625 7.25 
Q 44.96875 8.296875 48.78125 10.40625 
L 48.78125 2.09375 
Q 45.015625 0.34375 40.984375 -0.53125 
Q 36.96875 -1.421875 32.421875 -1.421875 
Q 20.0625 -1.421875 12.78125 6.34375 
Q 5.515625 14.109375 5.515625 27.296875 
Q 5.515625 40.671875 12.859375 48.328125 
Q 20.21875 56 33.015625 56 
Q 37.15625 56 41.109375 55.140625 
Q 45.0625 54.296875 48.78125 52.59375 
z
" id="DejaVuSans-63"/>
     <path d="M 54.890625 33.015625 
L 54.890625 0 
L 45.90625 0 
L 45.90625 32.71875 
Q 45.90625 40.484375 42.875 44.328125 
Q 39.84375 48.1875 33.796875 48.1875 
Q 26.515625 48.1875 22.3125 43.546875 
Q 18.109375 38.921875 18.109375 30.90625 
L 18.109375 0 
L 9.078125 0 
L 9.078125 75.984375 
L 18.109375 75.984375 
L 18.109375 46.1875 
Q 21.34375 51.125 25.703125 53.5625 
Q 30.078125 56 35.796875 56 
Q 45.21875 56 50.046875 50.171875 
Q 54.890625 44.34375 54.890625 33.015625 
z
" id="DejaVuSans-68"/>
    </defs>
    <g transform="translate(157.405312 35.472)scale(0.12 -0.12)">
     <use xlink:href="#DejaVuSans-50"/>
     <use x="60.287109" xlink:href="#DejaVuSans-72"/>
     <use x="101.369141" xlink:href="#DejaVuSans-65"/>
     <use x="162.892578" xlink:href="#DejaVuSans-73"/>
     <use x="214.992188" xlink:href="#DejaVuSans-73"/>
     <use x="267.091797" xlink:href="#DejaVuSans-75"/>
     <use x="330.470703" xlink:href="#DejaVuSans-72"/>
     <use x="371.552734" xlink:href="#DejaVuSans-65"/>
     <use x="433.076172" xlink:href="#DejaVuSans-20"/>
     <use x="464.863281" xlink:href="#DejaVuSans-69"/>
     <use x="492.646484" xlink:href="#DejaVuSans-6e"/>
     <use x="556.025391" xlink:href="#DejaVuSans-20"/>
     <use x="587.8125" xlink:href="#DejaVuSans-6d"/>
     <use x="685.224609" xlink:href="#DejaVuSans-61"/>
     <use x="746.503906" xlink:href="#DejaVuSans-69"/>
     <use x="774.287109" xlink:href="#DejaVuSans-6e"/>
     <use x="837.666016" xlink:href="#DejaVuSans-20"/>
     <use x="869.453125" xlink:href="#DejaVuSans-63"/>
     <use x="924.433594" xlink:href="#DejaVuSans-68"/>
     <use x="987.8125" xlink:href="#DejaVuSans-61"/>
     <use x="1049.091797" xlink:href="#DejaVuSans-6d"/>
     <use x="1146.503906" xlink:href="#DejaVuSans-62"/>
     <use x="1209.980469" xlink:href="#DejaVuSans-65"/>
     <use x="1271.503906" xlink:href="#DejaVuSans-72"/>
    </g>
   </g>
  </g>
 </g>
 <defs>
  <clipPath id="p6b53500461">
   <rect height="266.112" width="357.12" x="57.6" y="41.472"/>
  </clipPath>
 </defs>
</svg>
