<?xml version="1.0" encoding="utf-8" standalone="no"?>
<!DOCTYPE svg PUBLIC "-//W3C//DTD SVG 1.1//EN"
  "http://www.w3.org/Graphics/SVG/1.1/DTD/svg11.dtd">
<!-- Created with matplotlib (http://matplotlib.org/) -->
<svg height="345pt" version="1.1" viewBox="0 0 460 345" width="460pt" xmlns="http://www.w3.org/2000/svg" xmlns:xlink="http://www.w3.org/1999/xlink">
 <defs>
  <style type="text/css">
*{stroke-linecap:butt;stroke-linejoin:round;}
  </style>
 </defs>
 <g id="figure_1">
  <g id="patch_1">
   <path d="M 0 345.6 
L 460.8 345.6 
L 460.8 0 
L 0 0 
z
" style="fill:#ffffff;"/>
  </g>
  <g id="axes_1">
   <g id="patch_2">
    <path d="M 57.6 307.584 
L 414.72 307.584 
L 414.72 41.472 
L 57.6 41.472 
z
" style="fill:#ffffff;"/>
   </g>
   <g id="matplotlib.axis_1">
    <g id="xtick_1">
     <g id="line2d_1">
      <defs>
       <path d="M 0 0 
L 0 3.5 
" id="m1c40c8a15b" style="stroke:#000000;stroke-width:0.8;"/>
      </defs>
      <g>
       <use style="stroke:#000000;stroke-width:0.8;" x="73.832727" xlink:href="#m1c40c8a15b" y="307.584"/>
      </g>
     </g>
     <g id="text_1">
      <!-- 0 -->
      <defs>
       <path d="M 31.78125 66.40625 
Q 24.171875 66.40625 20.328125 58.90625 
Q 16.5 51.421875 16.5 36.375 
Q 16.5 21.390625 20.328125 13.890625 
Q 24.171875 6.390625 31.78125 6.390625 
Q 39.453125 6.390625 43.28125 13.890625 
Q 47.125 21.390625 47.125 36.375 
Q 47.125 51.421875 43.28125 58.90625 
Q 39.453125 66.40625 31.78125 66.40625 
z
M 31.78125 74.21875 
Q 44.046875 74.21875 50.515625 64.515625 
Q 56.984375 54.828125 56.984375 36.375 
Q 56.984375 17.96875 50.515625 8.265625 
Q 44.046875 -1.421875 31.78125 -1.421875 
Q 19.53125 -1.421875 13.0625 8.265625 
Q 6.59375 17.96875 6.59375 36.375 
Q 6.59375 54.828125 13.0625 64.515625 
Q 19.53125 74.21875 31.78125 74.21875 
z
" id="DejaVuSans-30"/>
      </defs>
      <g transform="translate(70.651477 322.182437)scale(0.1 -0.1)">
       <use xlink:href="#DejaVuSans-30"/>
      </g>
     </g>
    </g>
    <g id="xtick_2">
     <g id="line2d_2">
      <g>
       <use style="stroke:#000000;stroke-width:0.8;" x="118.935079" xlink:href="#m1c40c8a15b" y="307.584"/>
      </g>
     </g>
     <g id="text_2">
      <!-- 500 -->
      <defs>
       <path d="M 10.796875 72.90625 
L 49.515625 72.90625 
L 49.515625 64.59375 
L 19.828125 64.59375 
L 19.828125 46.734375 
Q 21.96875 47.46875 24.109375 47.828125 
Q 26.265625 48.1875 28.421875 48.1875 
Q 40.625 48.1875 47.75 41.5 
Q 54.890625 34.8125 54.890625 23.390625 
Q 54.890625 11.625 47.5625 5.09375 
Q 40.234375 -1.421875 26.90625 -1.421875 
Q 22.3125 -1.421875 17.546875 -0.640625 
Q 12.796875 0.140625 7.71875 1.703125 
L 7.71875 11.625 
Q 12.109375 9.234375 16.796875 8.0625 
Q 21.484375 6.890625 26.703125 6.890625 
Q 35.15625 6.890625 40.078125 11.328125 
Q 45.015625 15.765625 45.015625 23.390625 
Q 45.015625 31 40.078125 35.4375 
Q 35.15625 39.890625 26.703125 39.890625 
Q 22.75 39.890625 18.8125 39.015625 
Q 14.890625 38.140625 10.796875 36.28125 
z
" id="DejaVuSans-35"/>
      </defs>
      <g transform="translate(109.391329 322.182437)scale(0.1 -0.1)">
       <use xlink:href="#DejaVuSans-35"/>
       <use x="63.623047" xlink:href="#DejaVuSans-30"/>
       <use x="127.246094" xlink:href="#DejaVuSans-30"/>
      </g>
     </g>
    </g>
    <g id="xtick_3">
     <g id="line2d_3">
      <g>
       <use style="stroke:#000000;stroke-width:0.8;" x="164.03743" xlink:href="#m1c40c8a15b" y="307.584"/>
      </g>
     </g>
     <g id="text_3">
      <!-- 1000 -->
      <defs>
       <path d="M 12.40625 8.296875 
L 28.515625 8.296875 
L 28.515625 63.921875 
L 10.984375 60.40625 
L 10.984375 69.390625 
L 28.421875 72.90625 
L 38.28125 72.90625 
L 38.28125 8.296875 
L 54.390625 8.296875 
L 54.390625 0 
L 12.40625 0 
z
" id="DejaVuSans-31"/>
      </defs>
      <g transform="translate(151.31243 322.182437)scale(0.1 -0.1)">
       <use xlink:href="#DejaVuSans-31"/>
       <use x="63.623047" xlink:href="#DejaVuSans-30"/>
       <use x="127.246094" xlink:href="#DejaVuSans-30"/>
       <use x="190.869141" xlink:href="#DejaVuSans-30"/>
      </g>
     </g>
    </g>
    <g id="xtick_4">
     <g id="line2d_4">
      <g>
       <use style="stroke:#000000;stroke-width:0.8;" x="209.139781" xlink:href="#m1c40c8a15b" y="307.584"/>
      </g>
     </g>
     <g id="text_4">
      <!-- 1500 -->
      <g transform="translate(196.414781 322.182437)scale(0.1 -0.1)">
       <use xlink:href="#DejaVuSans-31"/>
       <use x="63.623047" xlink:href="#DejaVuSans-35"/>
       <use x="127.246094" xlink:href="#DejaVuSans-30"/>
       <use x="190.869141" xlink:href="#DejaVuSans-30"/>
      </g>
     </g>
    </g>
    <g id="xtick_5">
     <g id="line2d_5">
      <g>
       <use style="stroke:#000000;stroke-width:0.8;" x="254.242132" xlink:href="#m1c40c8a15b" y="307.584"/>
      </g>
     </g>
     <g id="text_5">
      <!-- 2000 -->
      <defs>
       <path d="M 19.1875 8.296875 
L 53.609375 8.296875 
L 53.609375 0 
L 7.328125 0 
L 7.328125 8.296875 
Q 12.9375 14.109375 22.625 23.890625 
Q 32.328125 33.6875 34.8125 36.53125 
Q 39.546875 41.84375 41.421875 45.53125 
Q 43.3125 49.21875 43.3125 52.78125 
Q 43.3125 58.59375 39.234375 62.25 
Q 35.15625 65.921875 28.609375 65.921875 
Q 23.96875 65.921875 18.8125 64.3125 
Q 13.671875 62.703125 7.8125 59.421875 
L 7.8125 69.390625 
Q 13.765625 71.78125 18.9375 73 
Q 24.125 74.21875 28.421875 74.21875 
Q 39.75 74.21875 46.484375 68.546875 
Q 53.21875 62.890625 53.21875 53.421875 
Q 53.21875 48.921875 51.53125 44.890625 
Q 49.859375 40.875 45.40625 35.40625 
Q 44.1875 33.984375 37.640625 27.21875 
Q 31.109375 20.453125 19.1875 8.296875 
z
" id="DejaVuSans-32"/>
      </defs>
      <g transform="translate(241.517132 322.182437)scale(0.1 -0.1)">
       <use xlink:href="#DejaVuSans-32"/>
       <use x="63.623047" xlink:href="#DejaVuSans-30"/>
       <use x="127.246094" xlink:href="#DejaVuSans-30"/>
       <use x="190.869141" xlink:href="#DejaVuSans-30"/>
      </g>
     </g>
    </g>
    <g id="xtick_6">
     <g id="line2d_6">
      <g>
       <use style="stroke:#000000;stroke-width:0.8;" x="299.344484" xlink:href="#m1c40c8a15b" y="307.584"/>
      </g>
     </g>
     <g id="text_6">
      <!-- 2500 -->
      <g transform="translate(286.619484 322.182437)scale(0.1 -0.1)">
       <use xlink:href="#DejaVuSans-32"/>
       <use x="63.623047" xlink:href="#DejaVuSans-35"/>
       <use x="127.246094" xlink:href="#DejaVuSans-30"/>
       <use x="190.869141" xlink:href="#DejaVuSans-30"/>
      </g>
     </g>
    </g>
    <g id="xtick_7">
     <g id="line2d_7">
      <g>
       <use style="stroke:#000000;stroke-width:0.8;" x="344.446835" xlink:href="#m1c40c8a15b" y="307.584"/>
      </g>
     </g>
     <g id="text_7">
      <!-- 3000 -->
      <defs>
       <path d="M 40.578125 39.3125 
Q 47.65625 37.796875 51.625 33 
Q 55.609375 28.21875 55.609375 21.1875 
Q 55.609375 10.40625 48.1875 4.484375 
Q 40.765625 -1.421875 27.09375 -1.421875 
Q 22.515625 -1.421875 17.65625 -0.515625 
Q 12.796875 0.390625 7.625 2.203125 
L 7.625 11.71875 
Q 11.71875 9.328125 16.59375 8.109375 
Q 21.484375 6.890625 26.8125 6.890625 
Q 36.078125 6.890625 40.9375 10.546875 
Q 45.796875 14.203125 45.796875 21.1875 
Q 45.796875 27.640625 41.28125 31.265625 
Q 36.765625 34.90625 28.71875 34.90625 
L 20.21875 34.90625 
L 20.21875 43.015625 
L 29.109375 43.015625 
Q 36.375 43.015625 40.234375 45.921875 
Q 44.09375 48.828125 44.09375 54.296875 
Q 44.09375 59.90625 40.109375 62.90625 
Q 36.140625 65.921875 28.71875 65.921875 
Q 24.65625 65.921875 20.015625 65.03125 
Q 15.375 64.15625 9.8125 62.3125 
L 9.8125 71.09375 
Q 15.4375 72.65625 20.34375 73.4375 
Q 25.25 74.21875 29.59375 74.21875 
Q 40.828125 74.21875 47.359375 69.109375 
Q 53.90625 64.015625 53.90625 55.328125 
Q 53.90625 49.265625 50.4375 45.09375 
Q 46.96875 40.921875 40.578125 39.3125 
z
" id="DejaVuSans-33"/>
      </defs>
      <g transform="translate(331.721835 322.182437)scale(0.1 -0.1)">
       <use xlink:href="#DejaVuSans-33"/>
       <use x="63.623047" xlink:href="#DejaVuSans-30"/>
       <use x="127.246094" xlink:href="#DejaVuSans-30"/>
       <use x="190.869141" xlink:href="#DejaVuSans-30"/>
      </g>
     </g>
    </g>
    <g id="xtick_8">
     <g id="line2d_8">
      <g>
       <use style="stroke:#000000;stroke-width:0.8;" x="389.549186" xlink:href="#m1c40c8a15b" y="307.584"/>
      </g>
     </g>
     <g id="text_8">
      <!-- 3500 -->
      <g transform="translate(376.824186 322.182437)scale(0.1 -0.1)">
       <use xlink:href="#DejaVuSans-33"/>
       <use x="63.623047" xlink:href="#DejaVuSans-35"/>
       <use x="127.246094" xlink:href="#DejaVuSans-30"/>
       <use x="190.869141" xlink:href="#DejaVuSans-30"/>
      </g>
     </g>
    </g>
    <g id="text_9">
     <!-- t(s) -->
     <defs>
      <path d="M 18.3125 70.21875 
L 18.3125 54.6875 
L 36.8125 54.6875 
L 36.8125 47.703125 
L 18.3125 47.703125 
L 18.3125 18.015625 
Q 18.3125 11.328125 20.140625 9.421875 
Q 21.96875 7.515625 27.59375 7.515625 
L 36.8125 7.515625 
L 36.8125 0 
L 27.59375 0 
Q 17.1875 0 13.234375 3.875 
Q 9.28125 7.765625 9.28125 18.015625 
L 9.28125 47.703125 
L 2.6875 47.703125 
L 2.6875 54.6875 
L 9.28125 54.6875 
L 9.28125 70.21875 
z
" id="DejaVuSans-74"/>
      <path d="M 31 75.875 
Q 24.46875 64.65625 21.28125 53.65625 
Q 18.109375 42.671875 18.109375 31.390625 
Q 18.109375 20.125 21.3125 9.0625 
Q 24.515625 -2 31 -13.1875 
L 23.1875 -13.1875 
Q 15.875 -1.703125 12.234375 9.375 
Q 8.59375 20.453125 8.59375 31.390625 
Q 8.59375 42.28125 12.203125 53.3125 
Q 15.828125 64.359375 23.1875 75.875 
z
" id="DejaVuSans-28"/>
      <path d="M 44.28125 53.078125 
L 44.28125 44.578125 
Q 40.484375 46.53125 36.375 47.5 
Q 32.28125 48.484375 27.875 48.484375 
Q 21.1875 48.484375 17.84375 46.4375 
Q 14.5 44.390625 14.5 40.28125 
Q 14.5 37.15625 16.890625 35.375 
Q 19.28125 33.59375 26.515625 31.984375 
L 29.59375 31.296875 
Q 39.15625 29.25 43.1875 25.515625 
Q 47.21875 21.78125 47.21875 15.09375 
Q 47.21875 7.46875 41.1875 3.015625 
Q 35.15625 -1.421875 24.609375 -1.421875 
Q 20.21875 -1.421875 15.453125 -0.5625 
Q 10.6875 0.296875 5.421875 2 
L 5.421875 11.28125 
Q 10.40625 8.6875 15.234375 7.390625 
Q 20.0625 6.109375 24.8125 6.109375 
Q 31.15625 6.109375 34.5625 8.28125 
Q 37.984375 10.453125 37.984375 14.40625 
Q 37.984375 18.0625 35.515625 20.015625 
Q 33.0625 21.96875 24.703125 23.78125 
L 21.578125 24.515625 
Q 13.234375 26.265625 9.515625 29.90625 
Q 5.8125 33.546875 5.8125 39.890625 
Q 5.8125 47.609375 11.28125 51.796875 
Q 16.75 56 26.8125 56 
Q 31.78125 56 36.171875 55.265625 
Q 40.578125 54.546875 44.28125 53.078125 
z
" id="DejaVuSans-73"/>
      <path d="M 8.015625 75.875 
L 15.828125 75.875 
Q 23.140625 64.359375 26.78125 53.3125 
Q 30.421875 42.28125 30.421875 31.390625 
Q 30.421875 20.453125 26.78125 9.375 
Q 23.140625 -1.703125 15.828125 -13.1875 
L 8.015625 -13.1875 
Q 14.5 -2 17.703125 9.0625 
Q 20.90625 20.125 20.90625 31.390625 
Q 20.90625 42.671875 17.703125 53.65625 
Q 14.5 64.65625 8.015625 75.875 
z
" id="DejaVuSans-29"/>
     </defs>
     <g transform="translate(227.693594 335.860562)scale(0.1 -0.1)">
      <use xlink:href="#DejaVuSans-74"/>
      <use x="39.208984" xlink:href="#DejaVuSans-28"/>
      <use x="78.222656" xlink:href="#DejaVuSans-73"/>
      <use x="130.322266" xlink:href="#DejaVuSans-29"/>
     </g>
    </g>
   </g>
   <g id="matplotlib.axis_2">
    <g id="ytick_1">
     <g id="line2d_9">
      <defs>
       <path d="M 0 0 
L -3.5 0 
" id="m27d2871af4" style="stroke:#000000;stroke-width:0.8;"/>
      </defs>
      <g>
       <use style="stroke:#000000;stroke-width:0.8;" x="57.6" xlink:href="#m27d2871af4" y="278.382545"/>
      </g>
     </g>
     <g id="text_10">
      <!-- 24.825 -->
      <defs>
       <path d="M 37.796875 64.3125 
L 12.890625 25.390625 
L 37.796875 25.390625 
z
M 35.203125 72.90625 
L 47.609375 72.90625 
L 47.609375 25.390625 
L 58.015625 25.390625 
L 58.015625 17.1875 
L 47.609375 17.1875 
L 47.609375 0 
L 37.796875 0 
L 37.796875 17.1875 
L 4.890625 17.1875 
L 4.890625 26.703125 
z
" id="DejaVuSans-34"/>
       <path d="M 10.6875 12.40625 
L 21 12.40625 
L 21 0 
L 10.6875 0 
z
" id="DejaVuSans-2e"/>
       <path d="M 31.78125 34.625 
Q 24.75 34.625 20.71875 30.859375 
Q 16.703125 27.09375 16.703125 20.515625 
Q 16.703125 13.921875 20.71875 10.15625 
Q 24.75 6.390625 31.78125 6.390625 
Q 38.8125 6.390625 42.859375 10.171875 
Q 46.921875 13.96875 46.921875 20.515625 
Q 46.921875 27.09375 42.890625 30.859375 
Q 38.875 34.625 31.78125 34.625 
z
M 21.921875 38.8125 
Q 15.578125 40.375 12.03125 44.71875 
Q 8.5 49.078125 8.5 55.328125 
Q 8.5 64.0625 14.71875 69.140625 
Q 20.953125 74.21875 31.78125 74.21875 
Q 42.671875 74.21875 48.875 69.140625 
Q 55.078125 64.0625 55.078125 55.328125 
Q 55.078125 49.078125 51.53125 44.71875 
Q 48 40.375 41.703125 38.8125 
Q 48.828125 37.15625 52.796875 32.3125 
Q 56.78125 27.484375 56.78125 20.515625 
Q 56.78125 9.90625 50.3125 4.234375 
Q 43.84375 -1.421875 31.78125 -1.421875 
Q 19.734375 -1.421875 13.25 4.234375 
Q 6.78125 9.90625 6.78125 20.515625 
Q 6.78125 27.484375 10.78125 32.3125 
Q 14.796875 37.15625 21.921875 38.8125 
z
M 18.3125 54.390625 
Q 18.3125 48.734375 21.84375 45.5625 
Q 25.390625 42.390625 31.78125 42.390625 
Q 38.140625 42.390625 41.71875 45.5625 
Q 45.3125 48.734375 45.3125 54.390625 
Q 45.3125 60.0625 41.71875 63.234375 
Q 38.140625 66.40625 31.78125 66.40625 
Q 25.390625 66.40625 21.84375 63.234375 
Q 18.3125 60.0625 18.3125 54.390625 
z
" id="DejaVuSans-38"/>
      </defs>
      <g transform="translate(15.609375 282.181764)scale(0.1 -0.1)">
       <use xlink:href="#DejaVuSans-32"/>
       <use x="63.623047" xlink:href="#DejaVuSans-34"/>
       <use x="127.246094" xlink:href="#DejaVuSans-2e"/>
       <use x="159.033203" xlink:href="#DejaVuSans-38"/>
       <use x="222.65625" xlink:href="#DejaVuSans-32"/>
       <use x="286.279297" xlink:href="#DejaVuSans-35"/>
      </g>
     </g>
    </g>
    <g id="ytick_2">
     <g id="line2d_10">
      <g>
       <use style="stroke:#000000;stroke-width:0.8;" x="57.6" xlink:href="#m27d2871af4" y="247.837091"/>
      </g>
     </g>
     <g id="text_11">
      <!-- 24.850 -->
      <g transform="translate(15.609375 251.63631)scale(0.1 -0.1)">
       <use xlink:href="#DejaVuSans-32"/>
       <use x="63.623047" xlink:href="#DejaVuSans-34"/>
       <use x="127.246094" xlink:href="#DejaVuSans-2e"/>
       <use x="159.033203" xlink:href="#DejaVuSans-38"/>
       <use x="222.65625" xlink:href="#DejaVuSans-35"/>
       <use x="286.279297" xlink:href="#DejaVuSans-30"/>
      </g>
     </g>
    </g>
    <g id="ytick_3">
     <g id="line2d_11">
      <g>
       <use style="stroke:#000000;stroke-width:0.8;" x="57.6" xlink:href="#m27d2871af4" y="217.291636"/>
      </g>
     </g>
     <g id="text_12">
      <!-- 24.875 -->
      <defs>
       <path d="M 8.203125 72.90625 
L 55.078125 72.90625 
L 55.078125 68.703125 
L 28.609375 0 
L 18.3125 0 
L 43.21875 64.59375 
L 8.203125 64.59375 
z
" id="DejaVuSans-37"/>
      </defs>
      <g transform="translate(15.609375 221.090855)scale(0.1 -0.1)">
       <use xlink:href="#DejaVuSans-32"/>
       <use x="63.623047" xlink:href="#DejaVuSans-34"/>
       <use x="127.246094" xlink:href="#DejaVuSans-2e"/>
       <use x="159.033203" xlink:href="#DejaVuSans-38"/>
       <use x="222.65625" xlink:href="#DejaVuSans-37"/>
       <use x="286.279297" xlink:href="#DejaVuSans-35"/>
      </g>
     </g>
    </g>
    <g id="ytick_4">
     <g id="line2d_12">
      <g>
       <use style="stroke:#000000;stroke-width:0.8;" x="57.6" xlink:href="#m27d2871af4" y="186.746182"/>
      </g>
     </g>
     <g id="text_13">
      <!-- 24.900 -->
      <defs>
       <path d="M 10.984375 1.515625 
L 10.984375 10.5 
Q 14.703125 8.734375 18.5 7.8125 
Q 22.3125 6.890625 25.984375 6.890625 
Q 35.75 6.890625 40.890625 13.453125 
Q 46.046875 20.015625 46.78125 33.40625 
Q 43.953125 29.203125 39.59375 26.953125 
Q 35.25 24.703125 29.984375 24.703125 
Q 19.046875 24.703125 12.671875 31.3125 
Q 6.296875 37.9375 6.296875 49.421875 
Q 6.296875 60.640625 12.9375 67.421875 
Q 19.578125 74.21875 30.609375 74.21875 
Q 43.265625 74.21875 49.921875 64.515625 
Q 56.59375 54.828125 56.59375 36.375 
Q 56.59375 19.140625 48.40625 8.859375 
Q 40.234375 -1.421875 26.421875 -1.421875 
Q 22.703125 -1.421875 18.890625 -0.6875 
Q 15.09375 0.046875 10.984375 1.515625 
z
M 30.609375 32.421875 
Q 37.25 32.421875 41.125 36.953125 
Q 45.015625 41.5 45.015625 49.421875 
Q 45.015625 57.28125 41.125 61.84375 
Q 37.25 66.40625 30.609375 66.40625 
Q 23.96875 66.40625 20.09375 61.84375 
Q 16.21875 57.28125 16.21875 49.421875 
Q 16.21875 41.5 20.09375 36.953125 
Q 23.96875 32.421875 30.609375 32.421875 
z
" id="DejaVuSans-39"/>
      </defs>
      <g transform="translate(15.609375 190.545401)scale(0.1 -0.1)">
       <use xlink:href="#DejaVuSans-32"/>
       <use x="63.623047" xlink:href="#DejaVuSans-34"/>
       <use x="127.246094" xlink:href="#DejaVuSans-2e"/>
       <use x="159.033203" xlink:href="#DejaVuSans-39"/>
       <use x="222.65625" xlink:href="#DejaVuSans-30"/>
       <use x="286.279297" xlink:href="#DejaVuSans-30"/>
      </g>
     </g>
    </g>
    <g id="ytick_5">
     <g id="line2d_13">
      <g>
       <use style="stroke:#000000;stroke-width:0.8;" x="57.6" xlink:href="#m27d2871af4" y="156.200727"/>
      </g>
     </g>
     <g id="text_14">
      <!-- 24.925 -->
      <g transform="translate(15.609375 159.999946)scale(0.1 -0.1)">
       <use xlink:href="#DejaVuSans-32"/>
       <use x="63.623047" xlink:href="#DejaVuSans-34"/>
       <use x="127.246094" xlink:href="#DejaVuSans-2e"/>
       <use x="159.033203" xlink:href="#DejaVuSans-39"/>
       <use x="222.65625" xlink:href="#DejaVuSans-32"/>
       <use x="286.279297" xlink:href="#DejaVuSans-35"/>
      </g>
     </g>
    </g>
    <g id="ytick_6">
     <g id="line2d_14">
      <g>
       <use style="stroke:#000000;stroke-width:0.8;" x="57.6" xlink:href="#m27d2871af4" y="125.655273"/>
      </g>
     </g>
     <g id="text_15">
      <!-- 24.950 -->
      <g transform="translate(15.609375 129.454491)scale(0.1 -0.1)">
       <use xlink:href="#DejaVuSans-32"/>
       <use x="63.623047" xlink:href="#DejaVuSans-34"/>
       <use x="127.246094" xlink:href="#DejaVuSans-2e"/>
       <use x="159.033203" xlink:href="#DejaVuSans-39"/>
       <use x="222.65625" xlink:href="#DejaVuSans-35"/>
       <use x="286.279297" xlink:href="#DejaVuSans-30"/>
      </g>
     </g>
    </g>
    <g id="ytick_7">
     <g id="line2d_15">
      <g>
       <use style="stroke:#000000;stroke-width:0.8;" x="57.6" xlink:href="#m27d2871af4" y="95.109818"/>
      </g>
     </g>
     <g id="text_16">
      <!-- 24.975 -->
      <g transform="translate(15.609375 98.909037)scale(0.1 -0.1)">
       <use xlink:href="#DejaVuSans-32"/>
       <use x="63.623047" xlink:href="#DejaVuSans-34"/>
       <use x="127.246094" xlink:href="#DejaVuSans-2e"/>
       <use x="159.033203" xlink:href="#DejaVuSans-39"/>
       <use x="222.65625" xlink:href="#DejaVuSans-37"/>
       <use x="286.279297" xlink:href="#DejaVuSans-35"/>
      </g>
     </g>
    </g>
    <g id="ytick_8">
     <g id="line2d_16">
      <g>
       <use style="stroke:#000000;stroke-width:0.8;" x="57.6" xlink:href="#m27d2871af4" y="64.564364"/>
      </g>
     </g>
     <g id="text_17">
      <!-- 25.000 -->
      <g transform="translate(15.609375 68.363582)scale(0.1 -0.1)">
       <use xlink:href="#DejaVuSans-32"/>
       <use x="63.623047" xlink:href="#DejaVuSans-35"/>
       <use x="127.246094" xlink:href="#DejaVuSans-2e"/>
       <use x="159.033203" xlink:href="#DejaVuSans-30"/>
       <use x="222.65625" xlink:href="#DejaVuSans-30"/>
       <use x="286.279297" xlink:href="#DejaVuSans-30"/>
      </g>
     </g>
    </g>
    <g id="text_18">
     <!-- Temperature (*C) -->
     <defs>
      <path d="M -0.296875 72.90625 
L 61.375 72.90625 
L 61.375 64.59375 
L 35.5 64.59375 
L 35.5 0 
L 25.59375 0 
L 25.59375 64.59375 
L -0.296875 64.59375 
z
" id="DejaVuSans-54"/>
      <path d="M 56.203125 29.59375 
L 56.203125 25.203125 
L 14.890625 25.203125 
Q 15.484375 15.921875 20.484375 11.0625 
Q 25.484375 6.203125 34.421875 6.203125 
Q 39.59375 6.203125 44.453125 7.46875 
Q 49.3125 8.734375 54.109375 11.28125 
L 54.109375 2.78125 
Q 49.265625 0.734375 44.1875 -0.34375 
Q 39.109375 -1.421875 33.890625 -1.421875 
Q 20.796875 -1.421875 13.15625 6.1875 
Q 5.515625 13.8125 5.515625 26.8125 
Q 5.515625 40.234375 12.765625 48.109375 
Q 20.015625 56 32.328125 56 
Q 43.359375 56 49.78125 48.890625 
Q 56.203125 41.796875 56.203125 29.59375 
z
M 47.21875 32.234375 
Q 47.125 39.59375 43.09375 43.984375 
Q 39.0625 48.390625 32.421875 48.390625 
Q 24.90625 48.390625 20.390625 44.140625 
Q 15.875 39.890625 15.1875 32.171875 
z
" id="DejaVuSans-65"/>
      <path d="M 52 44.1875 
Q 55.375 50.25 60.0625 53.125 
Q 64.75 56 71.09375 56 
Q 79.640625 56 84.28125 50.015625 
Q 88.921875 44.046875 88.921875 33.015625 
L 88.921875 0 
L 79.890625 0 
L 79.890625 32.71875 
Q 79.890625 40.578125 77.09375 44.375 
Q 74.3125 48.1875 68.609375 48.1875 
Q 61.625 48.1875 57.5625 43.546875 
Q 53.515625 38.921875 53.515625 30.90625 
L 53.515625 0 
L 44.484375 0 
L 44.484375 32.71875 
Q 44.484375 40.625 41.703125 44.40625 
Q 38.921875 48.1875 33.109375 48.1875 
Q 26.21875 48.1875 22.15625 43.53125 
Q 18.109375 38.875 18.109375 30.90625 
L 18.109375 0 
L 9.078125 0 
L 9.078125 54.6875 
L 18.109375 54.6875 
L 18.109375 46.1875 
Q 21.1875 51.21875 25.484375 53.609375 
Q 29.78125 56 35.6875 56 
Q 41.65625 56 45.828125 52.96875 
Q 50 49.953125 52 44.1875 
z
" id="DejaVuSans-6d"/>
      <path d="M 18.109375 8.203125 
L 18.109375 -20.796875 
L 9.078125 -20.796875 
L 9.078125 54.6875 
L 18.109375 54.6875 
L 18.109375 46.390625 
Q 20.953125 51.265625 25.265625 53.625 
Q 29.59375 56 35.59375 56 
Q 45.5625 56 51.78125 48.09375 
Q 58.015625 40.1875 58.015625 27.296875 
Q 58.015625 14.40625 51.78125 6.484375 
Q 45.5625 -1.421875 35.59375 -1.421875 
Q 29.59375 -1.421875 25.265625 0.953125 
Q 20.953125 3.328125 18.109375 8.203125 
z
M 48.6875 27.296875 
Q 48.6875 37.203125 44.609375 42.84375 
Q 40.53125 48.484375 33.40625 48.484375 
Q 26.265625 48.484375 22.1875 42.84375 
Q 18.109375 37.203125 18.109375 27.296875 
Q 18.109375 17.390625 22.1875 11.75 
Q 26.265625 6.109375 33.40625 6.109375 
Q 40.53125 6.109375 44.609375 11.75 
Q 48.6875 17.390625 48.6875 27.296875 
z
" id="DejaVuSans-70"/>
      <path d="M 41.109375 46.296875 
Q 39.59375 47.171875 37.8125 47.578125 
Q 36.03125 48 33.890625 48 
Q 26.265625 48 22.1875 43.046875 
Q 18.109375 38.09375 18.109375 28.8125 
L 18.109375 0 
L 9.078125 0 
L 9.078125 54.6875 
L 18.109375 54.6875 
L 18.109375 46.1875 
Q 20.953125 51.171875 25.484375 53.578125 
Q 30.03125 56 36.53125 56 
Q 37.453125 56 38.578125 55.875 
Q 39.703125 55.765625 41.0625 55.515625 
z
" id="DejaVuSans-72"/>
      <path d="M 34.28125 27.484375 
Q 23.390625 27.484375 19.1875 25 
Q 14.984375 22.515625 14.984375 16.5 
Q 14.984375 11.71875 18.140625 8.90625 
Q 21.296875 6.109375 26.703125 6.109375 
Q 34.1875 6.109375 38.703125 11.40625 
Q 43.21875 16.703125 43.21875 25.484375 
L 43.21875 27.484375 
z
M 52.203125 31.203125 
L 52.203125 0 
L 43.21875 0 
L 43.21875 8.296875 
Q 40.140625 3.328125 35.546875 0.953125 
Q 30.953125 -1.421875 24.3125 -1.421875 
Q 15.921875 -1.421875 10.953125 3.296875 
Q 6 8.015625 6 15.921875 
Q 6 25.140625 12.171875 29.828125 
Q 18.359375 34.515625 30.609375 34.515625 
L 43.21875 34.515625 
L 43.21875 35.40625 
Q 43.21875 41.609375 39.140625 45 
Q 35.0625 48.390625 27.6875 48.390625 
Q 23 48.390625 18.546875 47.265625 
Q 14.109375 46.140625 10.015625 43.890625 
L 10.015625 52.203125 
Q 14.9375 54.109375 19.578125 55.046875 
Q 24.21875 56 28.609375 56 
Q 40.484375 56 46.34375 49.84375 
Q 52.203125 43.703125 52.203125 31.203125 
z
" id="DejaVuSans-61"/>
      <path d="M 8.5 21.578125 
L 8.5 54.6875 
L 17.484375 54.6875 
L 17.484375 21.921875 
Q 17.484375 14.15625 20.5 10.265625 
Q 23.53125 6.390625 29.59375 6.390625 
Q 36.859375 6.390625 41.078125 11.03125 
Q 45.3125 15.671875 45.3125 23.6875 
L 45.3125 54.6875 
L 54.296875 54.6875 
L 54.296875 0 
L 45.3125 0 
L 45.3125 8.40625 
Q 42.046875 3.421875 37.71875 1 
Q 33.40625 -1.421875 27.6875 -1.421875 
Q 18.265625 -1.421875 13.375 4.4375 
Q 8.5 10.296875 8.5 21.578125 
z
M 31.109375 56 
z
" id="DejaVuSans-75"/>
      <path id="DejaVuSans-20"/>
      <path d="M 47.015625 60.890625 
L 29.5 51.421875 
L 47.015625 41.890625 
L 44.1875 37.109375 
L 27.78125 47.015625 
L 27.78125 28.609375 
L 22.21875 28.609375 
L 22.21875 47.015625 
L 5.8125 37.109375 
L 2.984375 41.890625 
L 20.515625 51.421875 
L 2.984375 60.890625 
L 5.8125 65.71875 
L 22.21875 55.8125 
L 22.21875 74.21875 
L 27.78125 74.21875 
L 27.78125 55.8125 
L 44.1875 65.71875 
z
" id="DejaVuSans-2a"/>
      <path d="M 64.40625 67.28125 
L 64.40625 56.890625 
Q 59.421875 61.53125 53.78125 63.8125 
Q 48.140625 66.109375 41.796875 66.109375 
Q 29.296875 66.109375 22.65625 58.46875 
Q 16.015625 50.828125 16.015625 36.375 
Q 16.015625 21.96875 22.65625 14.328125 
Q 29.296875 6.6875 41.796875 6.6875 
Q 48.140625 6.6875 53.78125 8.984375 
Q 59.421875 11.28125 64.40625 15.921875 
L 64.40625 5.609375 
Q 59.234375 2.09375 53.4375 0.328125 
Q 47.65625 -1.421875 41.21875 -1.421875 
Q 24.65625 -1.421875 15.125 8.703125 
Q 5.609375 18.84375 5.609375 36.375 
Q 5.609375 53.953125 15.125 64.078125 
Q 24.65625 74.21875 41.21875 74.21875 
Q 47.75 74.21875 53.53125 72.484375 
Q 59.328125 70.75 64.40625 67.28125 
z
" id="DejaVuSans-43"/>
     </defs>
     <g transform="translate(9.529687 218.627219)rotate(-90)scale(0.1 -0.1)">
      <use xlink:href="#DejaVuSans-54"/>
      <use x="60.818359" xlink:href="#DejaVuSans-65"/>
      <use x="122.341797" xlink:href="#DejaVuSans-6d"/>
      <use x="219.753906" xlink:href="#DejaVuSans-70"/>
      <use x="283.230469" xlink:href="#DejaVuSans-65"/>
      <use x="344.753906" xlink:href="#DejaVuSans-72"/>
      <use x="385.867188" xlink:href="#DejaVuSans-61"/>
      <use x="447.146484" xlink:href="#DejaVuSans-74"/>
      <use x="486.355469" xlink:href="#DejaVuSans-75"/>
      <use x="549.734375" xlink:href="#DejaVuSans-72"/>
      <use x="590.816406" xlink:href="#DejaVuSans-65"/>
      <use x="652.339844" xlink:href="#DejaVuSans-20"/>
      <use x="684.126953" xlink:href="#DejaVuSans-28"/>
      <use x="723.140625" xlink:href="#DejaVuSans-2a"/>
      <use x="773.140625" xlink:href="#DejaVuSans-43"/>
      <use x="842.964844" xlink:href="#DejaVuSans-29"/>
     </g>
    </g>
   </g>
   <g id="line2d_17">
    <path clip-path="url(#p7e645d78ba)" d="M 73.832727 64.564364 
L 398.487273 64.564364 
L 398.487273 64.564364 
" style="fill:none;stroke:#1f77b4;stroke-linecap:square;stroke-width:1.5;"/>
   </g>
   <g id="line2d_18">
    <path clip-path="url(#p7e645d78ba)" d="M 73.832727 85.335273 
L 74.193582 282.048 
L 74.37401 295.488 
L 74.464223 295.488 
L 74.554437 294.266182 
L 74.644651 295.488 
L 74.915292 291.822545 
L 75.095719 295.488 
L 75.185933 291.822545 
L 75.276147 293.044364 
L 75.366361 290.600727 
L 75.456574 293.044364 
L 75.727215 289.378909 
L 75.817429 291.822545 
L 76.268498 284.491636 
L 76.358712 285.713455 
L 76.448925 280.826182 
L 76.539139 284.491636 
L 76.629353 282.048 
L 76.80978 283.269818 
L 76.990208 278.382545 
L 77.080421 278.382545 
L 77.711917 269.829818 
L 77.802131 271.051636 
L 78.2532 261.277091 
L 78.433627 261.277091 
L 78.523841 260.055273 
L 78.794482 252.724364 
L 78.884696 251.502545 
L 78.974909 253.946182 
L 79.335764 245.393455 
L 79.516192 245.393455 
L 79.877047 236.840727 
L 79.96726 236.840727 
L 80.057474 235.618909 
L 80.147688 231.953455 
L 80.237902 233.175273 
L 80.328115 229.509818 
L 80.418329 230.731636 
L 80.598756 227.066182 
L 80.779184 223.400727 
L 80.959611 218.513455 
L 81.049825 219.735273 
L 81.230253 216.069818 
L 81.320466 217.291636 
L 81.500894 209.960727 
L 81.591107 212.404364 
L 81.861749 205.073455 
L 81.951962 205.073455 
L 82.042176 201.408 
L 82.13239 202.629818 
L 82.312817 200.186182 
L 82.403031 198.964364 
L 82.583458 195.298909 
L 82.673672 195.298909 
L 82.763886 190.411636 
L 82.8541 192.855273 
L 83.214954 184.302545 
L 83.305168 186.746182 
L 83.395382 181.858909 
L 83.485596 183.080727 
L 83.936619 173.306182 
L 84.026824 174.528 
L 84.117029 173.306182 
L 84.297438 168.418909 
L 84.387643 168.418909 
L 84.477848 169.640727 
L 84.658257 163.531636 
L 84.748462 165.975273 
L 84.838666 158.644364 
L 84.928871 162.309818 
L 85.019076 158.644364 
L 85.109281 161.088 
L 85.199485 156.200727 
L 85.28969 158.644364 
L 85.470099 151.313455 
L 85.830918 151.313455 
L 86.011328 145.204364 
L 86.101532 148.869818 
L 86.281942 143.982545 
L 86.372146 143.982545 
L 86.462351 142.760727 
L 86.552556 139.095273 
L 86.64276 140.317091 
L 86.82317 136.651636 
L 87.454603 128.098909 
L 87.544807 131.764364 
L 87.815422 124.433455 
L 87.905626 125.655273 
L 87.995831 121.989818 
L 88.17624 124.433455 
L 88.35665 119.546182 
L 88.537059 120.768 
L 88.627264 120.768 
L 88.717469 119.546182 
L 88.897878 114.658909 
L 88.988083 117.102545 
L 89.348902 109.771636 
L 89.439106 108.549818 
L 89.529311 110.993455 
L 89.89013 106.106182 
L 90.070539 108.549818 
L 90.160744 107.328 
L 90.250949 103.662545 
L 90.341153 104.884364 
L 90.611767 99.997091 
L 90.882381 99.997091 
L 90.972586 101.218909 
L 91.2432 96.331636 
L 91.42361 97.553455 
L 91.604019 92.666182 
L 91.694224 93.888 
L 91.874633 92.666182 
L 91.964838 92.666182 
L 92.055043 90.222545 
L 92.145247 91.444364 
L 92.325657 89.000727 
L 92.415861 90.222545 
L 92.506066 86.557091 
L 92.596271 89.000727 
L 92.866885 85.335273 
L 92.95709 86.557091 
L 93.047294 82.891636 
L 93.137499 87.778909 
L 93.317908 85.335273 
L 93.408113 87.778909 
L 93.498318 81.669818 
L 93.588523 82.891636 
L 93.678727 82.891636 
L 93.768932 84.113455 
L 94.039546 79.226182 
L 94.129751 78.004364 
L 94.219955 81.669818 
L 94.400365 78.004364 
L 94.580774 78.004364 
L 94.761184 75.560727 
L 94.941593 78.004364 
L 95.122003 75.560727 
L 95.212207 78.004364 
L 95.392617 73.117091 
L 95.573026 75.560727 
L 95.84364 70.673455 
L 96.02405 70.673455 
L 96.204459 73.117091 
L 96.384868 73.117091 
L 96.475073 71.895273 
L 96.565278 73.117091 
L 96.745687 69.451636 
L 96.835892 69.451636 
L 96.926097 68.229818 
L 97.106506 69.451636 
L 97.286915 68.229818 
L 97.37712 70.673455 
L 97.467325 68.229818 
L 97.557529 69.451636 
L 97.647734 65.786182 
L 97.737939 68.229818 
L 97.828144 65.786182 
L 97.918348 67.008 
L 98.008553 65.786182 
L 98.098758 67.008 
L 98.279167 65.786182 
L 98.459576 68.229818 
L 98.639986 64.564364 
L 98.730191 68.229818 
L 99.000805 63.342545 
L 99.091009 65.786182 
L 99.181214 62.120727 
L 99.361624 65.786182 
L 99.451828 65.786182 
L 99.632238 60.898909 
L 99.722442 67.008 
L 99.812647 60.898909 
L 99.902852 63.342545 
L 99.993056 60.898909 
L 100.173466 63.342545 
L 100.353875 59.677091 
L 100.44408 63.342545 
L 100.534285 62.120727 
L 100.624489 63.342545 
L 100.804899 60.898909 
L 100.985308 60.898909 
L 101.165718 59.677091 
L 101.255922 60.898909 
L 101.346127 64.564364 
L 101.616741 60.898909 
L 101.706946 63.342545 
L 101.79715 58.455273 
L 101.887355 59.677091 
L 102.067765 58.455273 
L 102.157969 58.455273 
L 102.248174 57.233455 
L 102.428583 60.898909 
L 102.608993 60.898909 
L 102.789402 58.455273 
L 102.879607 59.677091 
L 102.969812 58.455273 
L 103.060016 59.677091 
L 103.240426 57.233455 
L 103.33063 60.898909 
L 103.420835 56.011636 
L 103.51104 59.677091 
L 103.601245 58.455273 
L 103.691449 59.677091 
L 103.781654 58.455273 
L 103.871859 59.677091 
L 103.962063 58.455273 
L 104.052268 60.898909 
L 104.232677 57.233455 
L 104.322882 59.677091 
L 104.413087 58.455273 
L 104.503292 59.677091 
L 104.593496 56.011636 
L 104.773906 58.455273 
L 105.224929 58.455273 
L 105.405339 57.233455 
L 105.495543 58.455273 
L 105.675953 56.011636 
L 105.766157 58.455273 
L 105.856362 56.011636 
L 106.036772 57.233455 
L 106.126976 57.233455 
L 106.217181 53.568 
L 106.307386 58.455273 
L 106.39759 54.789818 
L 106.578 58.455273 
L 106.668204 56.011636 
L 106.938819 59.677091 
L 107.299637 56.011636 
L 107.480047 58.455273 
L 107.660456 57.233455 
L 107.750661 58.455273 
L 107.840866 57.233455 
L 107.93107 58.455273 
L 108.021275 57.233455 
L 108.11148 58.455273 
L 108.201684 56.011636 
L 108.291889 58.455273 
L 108.382094 57.233455 
L 108.562503 58.455273 
L 108.652708 56.011636 
L 108.923322 58.455273 
L 109.013527 57.233455 
L 109.103731 58.455273 
L 109.193936 54.789818 
L 109.284141 57.233455 
L 109.374346 56.011636 
L 109.46455 57.233455 
L 109.554755 56.011636 
L 109.735164 58.455273 
L 109.915574 56.011636 
L 110.005778 56.011636 
L 110.276393 58.455273 
L 110.366597 56.011636 
L 110.547007 58.455273 
L 110.727416 56.011636 
L 110.907825 58.455273 
L 110.99803 53.568 
L 111.17844 56.011636 
L 111.358849 57.233455 
L 111.449054 54.789818 
L 111.719668 58.455273 
L 111.900077 57.233455 
L 112.080487 57.233455 
L 112.170691 56.011636 
L 112.260896 58.455273 
L 112.441305 57.233455 
L 112.621715 57.233455 
L 112.802124 58.455273 
L 112.892329 54.789818 
L 112.982534 56.011636 
L 113.072738 59.677091 
L 113.162943 57.233455 
L 113.253148 58.455273 
L 113.433557 56.011636 
L 113.523762 56.011636 
L 113.613967 57.233455 
L 113.794376 56.011636 
L 113.884581 56.011636 
L 114.06499 58.455273 
L 114.155195 57.233455 
L 114.335604 58.455273 
L 114.425809 56.011636 
L 114.516014 58.455273 
L 114.606218 56.011636 
L 114.696423 59.677091 
L 114.967037 57.233455 
L 115.057242 58.455273 
L 115.237651 56.011636 
L 115.418061 58.455273 
L 115.59847 57.233455 
L 115.688675 58.455273 
L 115.869084 56.011636 
L 115.959289 59.677091 
L 116.139698 56.011636 
L 116.229903 58.455273 
L 116.410312 57.233455 
L 116.500517 60.898909 
L 116.771131 56.011636 
L 116.861336 59.677091 
L 117.13195 54.789818 
L 117.312359 59.677091 
L 117.402564 59.677091 
L 117.492769 57.233455 
L 117.582973 60.898909 
L 117.673178 57.233455 
L 117.763383 59.677091 
L 117.853588 56.011636 
L 117.943792 60.898909 
L 118.124202 57.233455 
L 118.304611 57.233455 
L 118.48502 56.011636 
L 118.575225 58.455273 
L 118.66543 57.233455 
L 118.845839 58.455273 
L 118.936044 56.011636 
L 119.206658 58.455273 
L 119.296863 56.011636 
L 119.387067 59.677091 
L 119.477272 58.455273 
L 119.567477 59.677091 
L 119.657682 56.011636 
L 119.747886 59.677091 
L 119.928296 57.233455 
L 120.0185 59.677091 
L 120.108705 56.011636 
L 120.19891 57.233455 
L 120.289115 56.011636 
L 120.379319 57.233455 
L 120.469524 60.898909 
L 120.740138 56.011636 
L 120.830343 59.677091 
L 120.920547 57.233455 
L 121.010752 58.455273 
L 121.100957 56.011636 
L 121.191162 59.677091 
L 121.281366 58.455273 
L 121.371571 59.677091 
L 121.55198 56.011636 
L 121.642185 59.677091 
L 121.822594 56.011636 
L 121.912799 59.677091 
L 122.183413 57.233455 
L 122.273618 57.233455 
L 122.363823 58.455273 
L 122.454027 57.233455 
L 122.634437 60.898909 
L 122.814846 56.011636 
L 122.905051 59.677091 
L 123.08546 57.233455 
L 123.175665 60.898909 
L 123.26587 59.677091 
L 123.356074 54.789818 
L 123.536484 58.455273 
L 123.807098 54.789818 
L 123.987507 58.455273 
L 124.077712 58.455273 
L 124.167917 57.233455 
L 124.348326 58.455273 
L 124.528736 57.233455 
L 124.61894 59.677091 
L 124.709145 56.011636 
L 124.889554 59.677091 
L 125.069964 58.455273 
L 125.160168 58.455273 
L 125.340578 57.233455 
L 125.520987 58.455273 
L 125.611192 56.011636 
L 125.791601 60.898909 
L 126.062215 56.011636 
L 126.242625 58.455273 
L 126.423034 59.677091 
L 126.513239 58.455273 
L 126.603444 60.898909 
L 126.783853 57.233455 
L 126.874058 58.455273 
L 127.144672 56.011636 
L 127.234877 56.011636 
L 127.415286 60.898909 
L 127.595695 58.455273 
L 127.6859 59.677091 
L 127.86631 57.233455 
L 127.956514 58.455273 
L 128.136924 57.233455 
L 128.227128 59.677091 
L 128.317333 58.455273 
L 128.497742 60.898909 
L 128.587947 57.233455 
L 128.768357 58.455273 
L 128.948766 56.011636 
L 129.129175 60.898909 
L 129.21938 56.011636 
L 129.399789 60.898909 
L 129.489994 59.677091 
L 129.580199 60.898909 
L 129.670404 57.233455 
L 129.760608 59.677091 
L 129.850813 58.455273 
L 130.031222 60.898909 
L 130.211632 58.455273 
L 130.301836 57.233455 
L 130.482246 58.455273 
L 130.572451 56.011636 
L 130.662655 60.898909 
L 130.75286 57.233455 
L 130.843065 59.677091 
L 130.933269 58.455273 
L 131.023474 59.677091 
L 131.203884 58.455273 
L 131.294088 58.455273 
L 131.384293 59.677091 
L 131.474498 57.233455 
L 131.564702 58.455273 
L 131.745112 57.233455 
L 131.835316 57.233455 
L 131.925521 56.011636 
L 132.196135 60.898909 
L 132.28634 57.233455 
L 132.556954 60.898909 
L 132.647159 57.233455 
L 132.827568 59.677091 
L 132.917773 57.233455 
L 133.188387 59.677091 
L 133.368796 57.233455 
L 133.63941 60.898909 
L 133.81982 58.455273 
L 133.910025 57.233455 
L 134.000229 59.677091 
L 134.180639 58.455273 
L 134.270843 59.677091 
L 134.541458 57.233455 
L 134.721867 60.898909 
L 134.902276 58.455273 
L 134.992481 58.455273 
L 135.082686 59.677091 
L 135.263095 57.233455 
L 135.3533 59.677091 
L 135.533709 57.233455 
L 135.623914 60.898909 
L 135.894528 58.455273 
L 135.984733 58.455273 
L 136.165142 60.898909 
L 136.255347 57.233455 
L 136.525961 63.342545 
L 136.616166 57.233455 
L 136.70637 58.455273 
L 136.796575 58.455273 
L 136.88678 59.677091 
L 137.067189 57.233455 
L 137.157394 56.011636 
L 137.428008 59.677091 
L 137.608417 58.455273 
L 137.788827 60.898909 
L 137.879032 57.233455 
L 137.969236 59.677091 
L 138.059441 58.455273 
L 138.149646 60.898909 
L 138.23985 57.233455 
L 138.330055 58.455273 
L 138.42026 57.233455 
L 138.600669 59.677091 
L 138.781079 60.898909 
L 138.871283 57.233455 
L 139.051693 59.677091 
L 139.141897 59.677091 
L 139.232102 58.455273 
L 139.322307 59.677091 
L 139.502716 57.233455 
L 139.683126 58.455273 
L 139.77333 58.455273 
L 139.863535 60.898909 
L 140.043944 57.233455 
L 140.224354 58.455273 
L 140.314558 56.011636 
L 140.404763 63.342545 
L 140.585173 58.455273 
L 140.765582 60.898909 
L 140.945991 57.233455 
L 141.126401 59.677091 
L 141.30681 58.455273 
L 141.397015 58.455273 
L 141.48722 57.233455 
L 141.577424 60.898909 
L 141.667629 56.011636 
L 141.758195 59.677091 
L 141.938694 58.455273 
L 142.119104 62.120727 
L 142.389718 59.677091 
L 142.479922 60.898909 
L 142.570127 58.455273 
L 142.660332 60.898909 
L 142.840741 58.455273 
L 142.930946 59.677091 
L 143.291765 56.011636 
L 143.472174 60.898909 
L 143.742788 58.455273 
L 143.832993 60.898909 
L 144.103607 58.455273 
L 144.73504 58.455273 
L 144.915449 62.120727 
L 145.005654 57.233455 
L 145.186063 60.898909 
L 145.276268 60.898909 
L 145.456768 58.455273 
L 145.546972 58.455273 
L 145.637267 59.677091 
L 145.817767 58.455273 
L 145.998357 58.455273 
L 146.088652 57.233455 
L 146.178947 60.898909 
L 146.359356 58.455273 
L 146.539856 59.677091 
L 146.630151 57.233455 
L 146.81074 59.677091 
L 147.081354 57.233455 
L 147.261764 58.455273 
L 147.351969 58.455273 
L 147.442173 56.011636 
L 147.532378 60.898909 
L 147.712787 56.011636 
L 147.802992 60.898909 
L 147.893197 58.455273 
L 148.073606 60.898909 
L 148.163811 58.455273 
L 148.254016 59.677091 
L 148.34422 57.233455 
L 148.52463 58.455273 
L 148.614834 58.455273 
L 148.885448 60.898909 
L 149.065858 59.677091 
L 149.156063 60.898909 
L 149.336472 58.455273 
L 149.426677 58.455273 
L 149.516881 62.120727 
L 149.697291 58.455273 
L 149.8777 58.455273 
L 149.967905 60.898909 
L 150.148314 57.233455 
L 150.328724 60.898909 
L 150.509133 58.455273 
L 150.599338 58.455273 
L 150.689543 60.898909 
L 150.869952 57.233455 
L 151.050361 60.898909 
L 151.140566 58.455273 
L 151.230771 59.677091 
L 151.41118 58.455273 
L 151.501385 58.455273 
L 151.59159 60.898909 
L 151.771999 58.455273 
L 151.862204 59.677091 
L 152.132818 56.011636 
L 152.313227 60.898909 
L 152.493637 58.455273 
L 152.583841 58.455273 
L 152.764251 57.233455 
L 152.94466 60.898909 
L 153.034865 57.233455 
L 153.12516 60.898909 
L 153.30575 57.233455 
L 153.396044 59.677091 
L 153.486249 57.233455 
L 153.576454 60.898909 
L 153.756863 57.233455 
L 153.847068 60.898909 
L 153.937273 58.455273 
L 154.027477 60.898909 
L 154.117682 57.233455 
L 154.298182 62.120727 
L 154.388386 58.455273 
L 154.478591 60.898909 
L 154.568796 58.455273 
L 154.659 59.677091 
L 154.83941 58.455273 
L 154.929615 60.898909 
L 155.01991 57.233455 
L 155.110114 58.455273 
L 155.200319 57.233455 
L 155.470933 60.898909 
L 155.561138 57.233455 
L 155.651342 59.677091 
L 155.831752 58.455273 
L 155.921957 58.455273 
L 156.012161 59.677091 
L 156.192571 58.455273 
L 156.282775 60.898909 
L 156.37298 56.011636 
L 156.463185 58.455273 
L 156.553389 57.233455 
L 156.643684 60.898909 
L 156.733889 59.677091 
L 156.914298 60.898909 
L 157.094708 58.455273 
L 157.275117 58.455273 
L 157.365322 59.677091 
L 157.545731 58.455273 
L 157.635936 60.898909 
L 157.816345 58.455273 
L 157.90664 58.455273 
L 158.08705 59.677091 
L 158.177254 59.677091 
L 158.267459 60.898909 
L 158.447869 58.455273 
L 158.538073 59.677091 
L 158.628278 58.455273 
L 158.808687 60.898909 
L 158.898892 56.011636 
L 159.079302 59.677091 
L 159.259711 58.455273 
L 159.349916 59.677091 
L 159.44012 58.455273 
L 159.530325 59.677091 
L 159.710734 56.011636 
L 159.891144 60.898909 
L 159.981349 58.455273 
L 160.251963 60.898909 
L 160.342167 58.455273 
L 160.432372 60.898909 
L 160.522577 58.455273 
L 160.612781 60.898909 
L 160.702986 58.455273 
L 160.883396 60.898909 
L 160.9736 57.233455 
L 161.063805 58.455273 
L 161.15401 57.233455 
L 161.244214 59.677091 
L 161.334419 56.011636 
L 161.514828 59.677091 
L 161.605033 56.011636 
L 161.785443 60.898909 
L 161.875647 58.455273 
L 162.056057 60.898909 
L 162.236466 56.011636 
L 162.326671 60.898909 
L 162.50708 57.233455 
L 162.597285 58.455273 
L 162.777694 60.898909 
L 162.867899 58.455273 
L 162.958104 59.677091 
L 163.048308 58.455273 
L 163.318923 60.898909 
L 163.409127 57.233455 
L 163.499332 60.898909 
L 163.589537 56.011636 
L 163.769946 58.455273 
L 163.860151 58.455273 
L 163.950355 60.898909 
L 164.04056 58.455273 
L 164.130765 59.677091 
L 164.401379 57.233455 
L 164.491584 57.233455 
L 164.671993 59.677091 
L 164.762198 56.011636 
L 165.032812 62.120727 
L 165.213221 57.233455 
L 165.303426 58.455273 
L 165.393631 57.233455 
L 165.483835 59.677091 
L 165.57404 56.011636 
L 165.664245 57.233455 
L 165.75445 60.898909 
L 165.844654 59.677091 
L 165.934859 60.898909 
L 166.115268 58.455273 
L 166.205473 59.677091 
L 166.385882 58.455273 
L 166.566292 60.898909 
L 166.656497 59.677091 
L 166.746701 60.898909 
L 167.017315 56.011636 
L 167.197725 59.677091 
L 167.287929 56.011636 
L 167.378134 58.455273 
L 167.558544 56.011636 
L 167.738953 58.455273 
L 167.829158 58.455273 
L 167.919362 57.233455 
L 168.009567 62.120727 
L 168.189976 56.011636 
L 168.280181 60.898909 
L 168.370386 58.455273 
L 168.550795 60.898909 
L 168.641 58.455273 
L 168.731205 60.898909 
L 168.911614 58.455273 
L 169.001819 60.898909 
L 169.272433 58.455273 
L 169.362638 59.677091 
L 169.452842 56.011636 
L 169.543047 57.233455 
L 169.633252 56.011636 
L 169.994071 59.677091 
L 170.17448 58.455273 
L 170.354889 59.677091 
L 170.625503 56.011636 
L 170.805913 58.455273 
L 170.896118 59.677091 
L 171.166732 57.233455 
L 171.347141 58.455273 
L 171.437346 57.233455 
L 171.617755 59.677091 
L 171.798165 58.455273 
L 171.888369 60.898909 
L 171.978574 57.233455 
L 172.068779 58.455273 
L 172.158983 56.011636 
L 172.249188 58.455273 
L 172.429597 57.233455 
L 172.519802 59.677091 
L 172.700212 57.233455 
L 172.880621 58.455273 
L 172.970826 58.455273 
L 173.06103 59.677091 
L 173.24144 56.011636 
L 173.331645 60.898909 
L 173.512054 57.233455 
L 173.602259 59.677091 
L 173.782668 58.455273 
L 173.872873 60.898909 
L 174.143487 58.455273 
L 174.414101 58.455273 
L 174.504306 57.233455 
L 174.59451 58.455273 
L 174.77492 57.233455 
L 174.865124 60.898909 
L 175.045534 58.455273 
L 175.135739 58.455273 
L 175.225943 57.233455 
L 175.316148 60.898909 
L 175.406353 59.677091 
L 175.496557 60.898909 
L 175.586762 58.455273 
L 175.676967 60.898909 
L 175.767171 56.011636 
L 175.947581 59.677091 
L 176.037786 59.677091 
L 176.12799 58.455273 
L 176.218195 60.898909 
L 176.3084 59.677091 
L 176.398604 60.898909 
L 176.488809 58.455273 
L 176.579014 62.120727 
L 177.120242 56.011636 
L 177.210447 59.677091 
L 177.390856 57.233455 
L 177.481061 59.677091 
L 177.66147 58.455273 
L 177.751675 62.120727 
L 177.932084 58.455273 
L 178.022289 56.011636 
L 178.112494 58.455273 
L 178.202698 57.233455 
L 178.292903 58.455273 
L 178.473313 57.233455 
L 178.563517 59.677091 
L 178.834131 57.233455 
L 178.924336 59.677091 
L 179.19495 57.233455 
L 179.285155 60.898909 
L 179.465564 57.233455 
L 179.736178 60.898909 
L 179.826383 59.677091 
L 179.916588 60.898909 
L 180.277407 57.233455 
L 180.367611 59.677091 
L 180.457816 57.233455 
L 180.638225 59.677091 
L 180.72843 57.233455 
L 180.818635 60.898909 
L 180.999044 59.677091 
L 181.089249 60.898909 
L 181.179454 58.455273 
L 181.359863 60.898909 
L 181.810887 56.011636 
L 181.991296 60.898909 
L 182.171705 58.455273 
L 182.442319 58.455273 
L 182.532524 60.898909 
L 182.712934 58.455273 
L 182.893343 60.898909 
L 182.983548 57.233455 
L 183.163957 59.677091 
L 183.344366 58.455273 
L 183.434571 59.677091 
L 183.524776 58.455273 
L 183.705185 59.677091 
L 183.79539 57.233455 
L 183.975799 60.898909 
L 184.066004 57.233455 
L 184.336618 59.677091 
L 184.607232 57.233455 
L 184.877846 59.677091 
L 184.968051 59.677091 
L 185.148461 57.233455 
L 185.419075 59.677091 
L 185.509279 59.677091 
L 185.599484 57.233455 
L 185.689689 58.455273 
L 185.779893 57.233455 
L 185.870098 60.898909 
L 186.140712 56.011636 
L 186.230917 57.233455 
L 186.321122 60.898909 
L 186.591736 58.455273 
L 186.68194 58.455273 
L 186.86235 60.898909 
L 186.952555 57.233455 
L 187.132964 60.898909 
L 187.223169 57.233455 
L 187.313373 58.455273 
L 187.403578 57.233455 
L 187.493783 60.898909 
L 187.764397 58.455273 
L 187.944806 58.455273 
L 188.035011 60.898909 
L 188.21542 57.233455 
L 188.305625 60.898909 
L 188.39583 59.677091 
L 188.486035 60.898909 
L 188.666444 57.233455 
L 188.846853 58.455273 
L 188.937058 56.011636 
L 189.297877 60.898909 
L 189.388082 56.011636 
L 189.478286 59.677091 
L 189.568491 56.011636 
L 189.7489 59.677091 
L 189.839105 57.233455 
L 190.019514 60.898909 
L 190.199924 57.233455 
L 190.290129 60.898909 
L 190.470538 58.455273 
L 190.650947 58.455273 
L 190.741152 59.677091 
L 190.921562 57.233455 
L 191.101971 59.677091 
L 191.192176 58.455273 
L 191.28238 60.898909 
L 191.372585 58.455273 
L 191.552994 62.120727 
L 191.643199 58.455273 
L 191.733404 59.677091 
L 191.823609 56.011636 
L 192.004018 58.455273 
L 192.184427 58.455273 
L 192.274632 59.677091 
L 192.455041 58.455273 
L 192.635451 60.898909 
L 192.81586 58.455273 
L 192.906065 58.455273 
L 192.99627 56.011636 
L 193.176679 59.677091 
L 193.266884 58.455273 
L 193.447293 59.677091 
L 193.627703 56.011636 
L 193.808112 58.455273 
L 193.898317 58.455273 
L 193.988521 57.233455 
L 194.168931 60.898909 
L 194.259136 59.677091 
L 194.34934 58.455273 
L 194.439545 59.677091 
L 194.52975 56.011636 
L 194.619954 60.898909 
L 194.710159 58.455273 
L 194.800364 60.898909 
L 194.980773 57.233455 
L 195.070978 59.677091 
L 195.251387 58.455273 
L 195.341592 58.455273 
L 195.431797 59.677091 
L 195.612206 57.233455 
L 195.792615 59.677091 
L 195.973025 58.455273 
L 196.06323 58.455273 
L 196.153434 62.120727 
L 196.333844 56.011636 
L 196.424048 60.898909 
L 196.604458 57.233455 
L 196.694662 58.455273 
L 196.784867 56.011636 
L 196.965277 60.898909 
L 197.055481 58.455273 
L 197.235891 60.898909 
L 197.4163 57.233455 
L 197.686914 60.898909 
L 197.957528 56.011636 
L 198.137938 59.677091 
L 198.228142 57.233455 
L 198.318347 60.898909 
L 198.498757 58.455273 
L 198.588961 58.455273 
L 198.769371 60.898909 
L 198.859575 58.455273 
L 198.94978 59.677091 
L 199.039985 56.011636 
L 199.220394 58.455273 
L 199.400804 58.455273 
L 199.491008 57.233455 
L 199.581213 59.677091 
L 199.671418 57.233455 
L 199.761622 58.455273 
L 199.942032 57.233455 
L 200.032236 60.898909 
L 200.302851 56.011636 
L 200.393055 59.677091 
L 200.48326 58.455273 
L 200.573465 59.677091 
L 200.663669 58.455273 
L 200.753874 59.677091 
L 200.844079 57.233455 
L 200.934283 59.677091 
L 201.114693 57.233455 
L 201.295102 60.898909 
L 201.385307 57.233455 
L 201.565716 60.898909 
L 201.655921 58.455273 
L 201.746126 59.677091 
L 201.836331 56.011636 
L 201.926535 57.233455 
L 202.01674 60.898909 
L 202.106945 57.233455 
L 202.287354 60.898909 
L 202.377559 59.677091 
L 202.557968 59.677091 
L 202.918787 54.789818 
L 203.099196 59.677091 
L 203.189401 57.233455 
L 203.36981 59.677091 
L 203.55022 57.233455 
L 203.730629 59.677091 
L 203.911039 59.677091 
L 204.001243 56.011636 
L 204.091448 60.898909 
L 204.181653 57.233455 
L 204.452267 59.677091 
L 204.542472 58.455273 
L 204.632676 59.677091 
L 204.813086 56.011636 
L 204.90329 59.677091 
L 204.993495 56.011636 
L 205.0837 60.898909 
L 205.173905 58.455273 
L 205.264109 59.677091 
L 205.354314 58.455273 
L 205.534723 59.677091 
L 205.624928 57.233455 
L 205.715133 59.677091 
L 205.805337 57.233455 
L 205.895542 58.455273 
L 205.985747 57.233455 
L 206.075952 60.898909 
L 206.346566 58.455273 
L 206.526975 60.898909 
L 206.707384 57.233455 
L 206.797589 57.233455 
L 206.887794 59.677091 
L 206.977999 58.455273 
L 207.068203 59.677091 
L 207.158408 57.233455 
L 207.248613 59.677091 
L 207.338817 58.455273 
L 207.429022 60.898909 
L 207.699636 56.011636 
L 207.880046 60.898909 
L 207.97025 60.898909 
L 208.060455 59.677091 
L 208.15066 60.898909 
L 208.421274 57.233455 
L 208.601683 59.677091 
L 208.691888 58.455273 
L 208.782093 59.677091 
L 208.962502 56.011636 
L 209.143092 60.898909 
L 209.233387 57.233455 
L 209.323682 60.898909 
L 209.413886 58.455273 
L 209.504091 60.898909 
L 209.594296 57.233455 
L 209.6845 60.898909 
L 209.774705 57.233455 
L 209.955115 59.677091 
L 210.045319 60.898909 
L 210.135524 58.455273 
L 210.315933 60.898909 
L 210.586548 57.233455 
L 210.766957 58.455273 
L 210.857162 56.011636 
L 211.037571 59.677091 
L 211.127776 58.455273 
L 211.21798 59.677091 
L 211.39839 56.011636 
L 211.488595 56.011636 
L 211.669004 58.455273 
L 211.759209 58.455273 
L 211.849413 60.898909 
L 212.120027 58.455273 
L 212.210232 60.898909 
L 212.300437 58.455273 
L 212.390642 59.677091 
L 212.480846 57.233455 
L 212.571051 58.455273 
L 212.661256 56.011636 
L 212.841665 60.898909 
L 213.022074 57.233455 
L 213.292689 59.677091 
L 213.382893 59.677091 
L 213.473098 60.898909 
L 213.563303 57.233455 
L 213.653507 58.455273 
L 213.743712 57.233455 
L 213.833917 59.677091 
L 214.104531 56.011636 
L 214.465711 60.898909 
L 214.555915 58.455273 
L 214.64612 60.898909 
L 214.736325 58.455273 
L 214.826529 59.677091 
L 215.097143 57.233455 
L 215.187348 57.233455 
L 215.277643 60.898909 
L 215.458233 58.455273 
L 215.638732 58.455273 
L 215.728937 57.233455 
L 215.819142 59.677091 
L 215.999551 58.455273 
L 216.089756 58.455273 
L 216.179961 56.011636 
L 216.270165 60.898909 
L 216.36037 58.455273 
L 216.450575 59.677091 
L 216.54078 57.233455 
L 216.721189 60.898909 
L 216.811394 58.455273 
L 216.901598 59.677091 
L 217.082008 57.233455 
L 217.172212 60.898909 
L 217.352622 57.233455 
L 217.442827 60.898909 
L 217.533031 57.233455 
L 217.623236 59.677091 
L 217.713441 58.455273 
L 217.803645 60.898909 
L 217.89385 58.455273 
L 217.984055 60.898909 
L 218.074259 58.455273 
L 218.164464 59.677091 
L 218.254669 58.455273 
L 218.344874 59.677091 
L 218.525283 58.455273 
L 218.795897 58.455273 
L 218.976306 59.677091 
L 219.066511 56.011636 
L 219.246921 58.455273 
L 219.337125 59.677091 
L 219.42733 58.455273 
L 219.697944 60.898909 
L 219.788149 57.233455 
L 220.058763 60.898909 
L 220.148968 57.233455 
L 220.329377 60.898909 
L 220.509786 57.233455 
L 220.690196 60.898909 
L 220.780401 59.677091 
L 221.051015 57.233455 
L 221.411833 60.898909 
L 221.502038 57.233455 
L 221.682448 60.898909 
L 221.772652 60.898909 
L 222.043266 58.455273 
L 222.133471 58.455273 
L 222.223676 59.677091 
L 222.31388 56.011636 
L 222.404085 60.898909 
L 222.584495 59.677091 
L 222.674699 59.677091 
L 222.764904 60.898909 
L 222.945313 58.455273 
L 223.035518 58.455273 
L 223.125723 60.898909 
L 223.215927 59.677091 
L 223.306132 56.011636 
L 223.486542 60.898909 
L 223.666951 57.233455 
L 223.937565 59.677091 
L 224.117975 57.233455 
L 224.388589 60.898909 
L 224.568998 57.233455 
L 224.839612 60.898909 
L 225.110226 58.455273 
L 225.200431 60.898909 
L 225.290636 58.455273 
L 225.471045 60.898909 
L 225.56125 56.011636 
L 225.651454 57.233455 
L 225.741659 60.898909 
L 225.831864 58.455273 
L 225.922069 59.677091 
L 226.102478 58.455273 
L 226.192683 58.455273 
L 226.282887 60.898909 
L 226.553501 58.455273 
L 226.824116 60.898909 
L 227.004525 57.233455 
L 227.275139 59.677091 
L 227.365344 59.677091 
L 227.455549 57.233455 
L 227.545753 58.455273 
L 227.635958 57.233455 
L 227.816367 59.677091 
L 227.996777 58.455273 
L 228.177186 60.898909 
L 228.267391 60.898909 
L 228.357596 57.233455 
L 228.4478 59.677091 
L 228.62821 58.455273 
L 228.898824 58.455273 
L 228.989028 59.677091 
L 229.079233 57.233455 
L 229.349847 59.677091 
L 229.440052 59.677091 
L 229.530257 57.233455 
L 229.710666 58.455273 
L 229.800871 57.233455 
L 229.98128 58.455273 
L 230.071485 57.233455 
L 230.16169 60.898909 
L 230.251894 57.233455 
L 230.432304 60.898909 
L 230.522508 57.233455 
L 230.612713 60.898909 
L 230.793123 58.455273 
L 230.883327 59.677091 
L 230.973532 58.455273 
L 231.153941 59.677091 
L 231.244146 59.677091 
L 231.334351 57.233455 
L 231.51476 60.898909 
L 231.604965 58.455273 
L 231.69517 60.898909 
L 231.785374 57.233455 
L 231.965784 60.898909 
L 232.055988 57.233455 
L 232.236398 60.898909 
L 232.416807 57.233455 
L 232.507012 59.677091 
L 232.777626 57.233455 
L 232.958035 59.677091 
L 233.04824 58.455273 
L 233.138445 60.898909 
L 233.228649 58.455273 
L 233.499264 60.898909 
L 233.679673 57.233455 
L 233.769878 60.898909 
L 233.860082 56.011636 
L 233.950287 57.233455 
L 234.040492 60.898909 
L 234.220901 58.455273 
L 234.311106 57.233455 
L 234.491515 60.898909 
L 234.58172 58.455273 
L 234.671925 59.677091 
L 234.852334 57.233455 
L 234.942539 59.677091 
L 235.122948 58.455273 
L 235.303358 60.898909 
L 235.393562 57.233455 
L 235.573972 60.898909 
L 235.664176 57.233455 
L 235.754381 59.677091 
L 235.934791 58.455273 
L 236.1152 58.455273 
L 236.295609 57.233455 
L 236.476019 58.455273 
L 236.566223 58.455273 
L 236.656428 60.898909 
L 236.746633 57.233455 
L 236.836838 59.677091 
L 236.927042 57.233455 
L 237.197656 59.677091 
L 237.378066 58.455273 
L 237.46827 59.677091 
L 237.64868 56.011636 
L 237.738885 58.455273 
L 237.829089 56.011636 
L 238.009499 59.677091 
L 238.099703 57.233455 
L 238.189908 59.677091 
L 238.280113 57.233455 
L 238.370318 58.455273 
L 238.460522 57.233455 
L 238.550727 60.898909 
L 238.821341 58.455273 
L 239.00175 58.455273 
L 239.091955 56.011636 
L 239.272365 59.677091 
L 239.452774 57.233455 
L 239.723388 59.677091 
L 239.813593 59.677091 
L 239.903797 60.898909 
L 240.174412 56.011636 
L 240.264616 59.677091 
L 240.445026 57.233455 
L 240.53523 59.677091 
L 240.71564 58.455273 
L 240.805844 58.455273 
L 240.896049 56.011636 
L 240.986254 62.120727 
L 241.166663 58.455273 
L 241.256868 58.455273 
L 241.347073 56.011636 
L 241.527482 58.455273 
L 241.707892 60.898909 
L 241.798096 57.233455 
L 242.06871 60.898909 
L 242.158915 56.011636 
L 242.339324 60.898909 
L 242.519734 56.011636 
L 242.609939 59.677091 
L 242.880553 57.233455 
L 242.970757 58.455273 
L 243.060962 57.233455 
L 243.151167 59.677091 
L 243.331576 56.011636 
L 243.511986 60.898909 
L 243.60219 58.455273 
L 243.692395 59.677091 
L 243.7826 56.011636 
L 243.872804 59.677091 
L 243.963009 58.455273 
L 244.143418 60.898909 
L 244.233623 60.898909 
L 244.414033 57.233455 
L 244.504237 59.677091 
L 244.684647 56.011636 
L 244.774851 57.233455 
L 244.865056 59.677091 
L 245.045466 57.233455 
L 245.225875 60.898909 
L 245.31608 57.233455 
L 245.496489 60.898909 
L 245.586694 56.011636 
L 245.676898 60.898909 
L 245.857308 57.233455 
L 245.947513 60.898909 
L 246.037717 58.455273 
L 246.218127 60.898909 
L 246.398536 57.233455 
L 246.578945 59.677091 
L 246.759355 58.455273 
L 246.84956 59.677091 
L 247.029969 56.011636 
L 247.120174 60.898909 
L 247.210378 56.011636 
L 247.390788 59.677091 
L 247.661402 57.233455 
L 247.751607 58.455273 
L 247.841811 57.233455 
L 247.932016 60.898909 
L 248.112425 58.455273 
L 248.20263 59.677091 
L 248.292835 56.011636 
L 248.653654 59.677091 
L 248.834063 58.455273 
L 248.924268 59.677091 
L 249.104677 57.233455 
L 249.285087 58.455273 
L 249.375291 56.011636 
L 249.555701 59.677091 
L 249.645905 58.455273 
L 249.73611 59.677091 
L 249.916519 58.455273 
L 250.277338 58.455273 
L 250.457748 57.233455 
L 250.547952 59.677091 
L 250.818566 57.233455 
L 251.089181 60.898909 
L 251.179385 58.455273 
L 251.359795 60.898909 
L 251.449999 60.898909 
L 251.540204 58.455273 
L 251.630409 59.677091 
L 251.901023 57.233455 
L 252.081432 58.455273 
L 252.261842 58.455273 
L 252.442251 60.898909 
L 252.532456 57.233455 
L 252.622661 58.455273 
L 252.712865 57.233455 
L 252.80307 60.898909 
L 252.893275 59.677091 
L 252.983479 56.011636 
L 253.163889 59.677091 
L 253.344298 59.677091 
L 253.524708 57.233455 
L 253.705117 58.455273 
L 253.795322 58.455273 
L 253.885526 60.898909 
L 254.065936 58.455273 
L 254.15614 60.898909 
L 254.33655 57.233455 
L 254.426755 57.233455 
L 254.516959 56.011636 
L 254.607164 58.455273 
L 254.697369 57.233455 
L 254.787573 59.677091 
L 254.967983 58.455273 
L 255.058187 58.455273 
L 255.148392 60.898909 
L 255.238597 58.455273 
L 255.328802 59.677091 
L 255.419006 57.233455 
L 255.509211 59.677091 
L 255.68962 57.233455 
L 255.960235 60.898909 
L 256.050439 57.233455 
L 256.230849 58.455273 
L 256.321053 57.233455 
L 256.411258 58.455273 
L 256.501463 56.011636 
L 256.591667 59.677091 
L 256.862282 57.233455 
L 257.132896 59.677091 
L 257.2231 58.455273 
L 257.40351 60.898909 
L 257.493714 57.233455 
L 257.674124 59.677091 
L 257.764329 57.233455 
L 257.944738 58.455273 
L 258.034943 58.455273 
L 258.125147 57.233455 
L 258.305557 60.898909 
L 258.395761 58.455273 
L 258.666376 60.898909 
L 258.75658 57.233455 
L 258.93699 59.677091 
L 259.027194 59.677091 
L 259.117399 57.233455 
L 259.297809 59.677091 
L 259.388013 57.233455 
L 259.478218 58.455273 
L 259.568423 57.233455 
L 259.748832 60.898909 
L 259.929241 58.455273 
L 260.109651 58.455273 
L 260.29006 59.677091 
L 260.380265 57.233455 
L 260.650879 60.898909 
L 260.741084 57.233455 
L 260.921493 59.677091 
L 261.011698 58.455273 
L 261.101903 60.898909 
L 261.282312 58.455273 
L 261.372517 59.677091 
L 261.552926 58.455273 
L 261.733335 58.455273 
L 261.82354 60.898909 
L 262.00395 58.455273 
L 262.094154 58.455273 
L 262.184359 60.898909 
L 262.454973 58.455273 
L 262.725587 58.455273 
L 262.815792 57.233455 
L 262.905997 59.677091 
L 262.996201 57.233455 
L 263.086406 59.677091 
L 263.176611 57.233455 
L 263.266815 59.677091 
L 263.35702 56.011636 
L 263.53743 59.677091 
L 263.627634 59.677091 
L 263.898248 57.233455 
L 263.988453 60.898909 
L 264.168862 58.455273 
L 264.259067 59.677091 
L 264.349272 58.455273 
L 264.529681 59.677091 
L 264.619886 59.677091 
L 264.710091 56.011636 
L 264.8905 59.677091 
L 264.980705 57.233455 
L 265.161114 60.898909 
L 265.251319 58.455273 
L 265.341524 60.898909 
L 265.521933 57.233455 
L 265.612138 56.011636 
L 265.792547 59.677091 
L 265.882752 57.233455 
L 266.063161 60.898909 
L 266.153366 58.455273 
L 266.243571 60.898909 
L 266.42398 58.455273 
L 266.514185 59.677091 
L 266.604389 57.233455 
L 266.694594 58.455273 
L 266.784799 57.233455 
L 267.145618 60.898909 
L 267.326027 57.233455 
L 267.416232 56.011636 
L 267.506436 59.677091 
L 267.596641 58.455273 
L 267.777051 60.898909 
L 267.95746 57.233455 
L 268.047665 60.898909 
L 268.228074 57.233455 
L 268.408483 59.677091 
L 268.498688 58.455273 
L 268.588893 60.898909 
L 268.859507 56.011636 
L 269.039916 58.455273 
L 269.31053 58.455273 
L 269.400735 59.677091 
L 269.671349 57.233455 
L 269.851759 60.898909 
L 269.941963 60.898909 
L 270.122373 57.233455 
L 270.302782 60.898909 
L 270.392987 56.011636 
L 270.573396 58.455273 
L 270.663601 58.455273 
L 270.753806 56.011636 
L 270.934215 60.898909 
L 271.02442 58.455273 
L 271.114625 59.677091 
L 271.295034 57.233455 
L 271.385239 60.898909 
L 271.655943 58.455273 
L 271.836352 58.455273 
L 271.926557 59.677091 
L 272.106966 58.455273 
L 272.197171 58.455273 
L 272.287376 56.011636 
L 272.467785 58.455273 
L 272.648195 58.455273 
L 272.738399 59.677091 
L 272.828604 57.233455 
L 273.099218 60.898909 
L 273.369832 58.455273 
L 273.460037 59.677091 
L 273.550242 57.233455 
L 273.640446 60.898909 
L 273.820856 57.233455 
L 273.911061 57.233455 
L 274.001265 59.677091 
L 274.181675 58.455273 
L 274.271879 59.677091 
L 274.452289 56.011636 
L 274.542493 58.455273 
L 274.632698 56.011636 
L 274.722903 59.677091 
L 274.993517 57.233455 
L 275.083722 60.898909 
L 275.173926 57.233455 
L 275.264131 58.455273 
L 275.354336 57.233455 
L 275.534745 60.898909 
L 275.715155 58.455273 
L 275.805359 59.677091 
L 275.895564 58.455273 
L 275.985769 59.677091 
L 276.075973 56.011636 
L 276.256383 59.677091 
L 276.436792 57.233455 
L 276.707406 59.677091 
L 276.887816 59.677091 
L 277.068225 56.011636 
L 277.248635 58.455273 
L 277.429044 58.455273 
L 277.609453 60.898909 
L 277.699658 59.677091 
L 277.880067 56.011636 
L 277.970272 59.677091 
L 278.060477 58.455273 
L 278.240886 59.677091 
L 278.331091 59.677091 
L 278.5115 58.455273 
L 278.601705 58.455273 
L 278.69191 60.898909 
L 278.872319 58.455273 
L 279.052729 58.455273 
L 279.142933 57.233455 
L 279.323343 58.455273 
L 279.413547 58.455273 
L 279.503842 59.677091 
L 279.684252 57.233455 
L 279.864661 58.455273 
L 279.954866 58.455273 
L 280.045071 60.898909 
L 280.22548 58.455273 
L 280.405889 59.677091 
L 280.496094 59.677091 
L 280.586299 58.455273 
L 280.676503 59.677091 
L 280.766708 63.342545 
L 280.947118 56.011636 
L 281.127527 60.898909 
L 281.398141 57.233455 
L 281.488346 59.677091 
L 281.57855 57.233455 
L 281.75896 59.677091 
L 281.849165 58.455273 
L 281.939369 60.898909 
L 282.300188 57.233455 
L 282.480597 58.455273 
L 282.570802 57.233455 
L 282.661007 60.898909 
L 282.841416 58.455273 
L 283.021826 62.120727 
L 283.11203 57.233455 
L 283.202235 60.898909 
L 283.29244 56.011636 
L 283.472849 59.677091 
L 283.563054 57.233455 
L 283.833668 59.677091 
L 284.014077 58.455273 
L 284.104282 59.677091 
L 284.194487 58.455273 
L 284.284692 59.677091 
L 284.374896 58.455273 
L 284.465101 59.677091 
L 284.735715 56.011636 
L 284.916124 58.455273 
L 285.006329 58.455273 
L 285.186739 59.677091 
L 285.276943 58.455273 
L 285.367148 59.677091 
L 285.547557 57.233455 
L 285.637762 58.455273 
L 285.727967 57.233455 
L 285.818171 58.455273 
L 285.908376 57.233455 
L 286.088786 60.898909 
L 286.17899 57.233455 
L 286.269195 60.898909 
L 286.539809 56.011636 
L 286.630014 57.233455 
L 286.810423 58.455273 
L 286.900628 58.455273 
L 286.990833 59.677091 
L 287.081037 57.233455 
L 287.261447 60.898909 
L 287.351651 58.455273 
L 287.441856 60.898909 
L 287.532151 58.455273 
L 287.622356 60.898909 
L 287.802765 56.011636 
L 287.89297 59.677091 
L 287.983175 56.011636 
L 288.163584 59.677091 
L 288.343993 57.233455 
L 288.434198 57.233455 
L 288.704812 60.898909 
L 288.795017 57.233455 
L 288.885222 59.677091 
L 289.246131 56.011636 
L 289.42654 59.677091 
L 289.606949 58.455273 
L 289.787359 58.455273 
L 290.057973 60.898909 
L 290.238382 57.233455 
L 290.328587 58.455273 
L 290.418792 56.011636 
L 290.508996 58.455273 
L 290.599201 56.011636 
L 290.689406 60.898909 
L 290.779611 58.455273 
L 290.869815 60.898909 
L 291.050225 58.455273 
L 291.140429 58.455273 
L 291.230634 57.233455 
L 291.411043 60.898909 
L 291.591453 57.233455 
L 291.681658 59.677091 
L 291.862067 58.455273 
L 291.952272 60.898909 
L 292.132681 57.233455 
L 292.222886 58.455273 
L 292.403295 58.455273 
L 292.4935 59.677091 
L 292.673909 56.011636 
L 292.854319 59.677091 
L 292.944523 57.233455 
L 293.215137 59.677091 
L 293.305342 59.677091 
L 293.395547 58.455273 
L 293.485752 59.677091 
L 293.575956 56.011636 
L 293.756366 60.898909 
L 293.936775 58.455273 
L 294.02698 57.233455 
L 294.117185 58.455273 
L 294.207389 56.011636 
L 294.387799 59.677091 
L 294.478003 58.455273 
L 294.568208 59.677091 
L 294.658413 58.455273 
L 294.748617 60.898909 
L 294.929027 58.455273 
L 295.019232 58.455273 
L 295.109436 57.233455 
L 295.199641 59.677091 
L 295.289846 58.455273 
L 295.38005 59.677091 
L 295.56046 57.233455 
L 295.650664 58.455273 
L 295.740869 57.233455 
L 295.831074 60.898909 
L 295.921279 54.789818 
L 296.011483 59.677091 
L 296.282097 57.233455 
L 296.462507 59.677091 
L 296.642916 57.233455 
L 296.823326 59.677091 
L 296.91353 60.898909 
L 297.09394 58.455273 
L 297.184144 59.677091 
L 297.274349 56.011636 
L 297.454759 60.898909 
L 297.635168 57.233455 
L 297.725373 57.233455 
L 297.815577 56.011636 
L 297.905782 60.898909 
L 298.086191 57.233455 
L 298.176396 58.455273 
L 298.266601 59.677091 
L 298.356806 58.455273 
L 298.537215 59.677091 
L 298.62742 56.011636 
L 298.807829 58.455273 
L 298.898034 58.455273 
L 298.988238 59.677091 
L 299.168648 58.455273 
L 299.349057 58.455273 
L 299.439262 57.233455 
L 299.529467 59.677091 
L 299.619671 58.455273 
L 299.709876 60.898909 
L 299.800081 56.011636 
L 300.070695 59.677091 
L 300.1609 57.233455 
L 300.251104 60.898909 
L 300.431514 58.455273 
L 300.521718 58.455273 
L 300.702128 57.233455 
L 300.882537 60.898909 
L 300.972742 58.455273 
L 301.062947 59.677091 
L 301.153151 57.233455 
L 301.243356 60.898909 
L 301.333561 58.455273 
L 301.423765 62.120727 
L 301.51397 58.455273 
L 301.604175 59.677091 
L 301.69438 57.233455 
L 301.784584 60.898909 
L 302.055198 58.455273 
L 302.145403 59.677091 
L 302.325812 58.455273 
L 302.416017 58.455273 
L 302.506222 57.233455 
L 302.596517 59.677091 
L 302.686721 57.233455 
L 302.776926 62.120727 
L 303.04754 57.233455 
L 303.22795 59.677091 
L 303.318154 57.233455 
L 303.588768 59.677091 
L 303.769178 58.455273 
L 303.859383 58.455273 
L 303.949587 57.233455 
L 304.129997 59.677091 
L 304.220201 58.455273 
L 304.400611 60.898909 
L 304.490816 57.233455 
L 304.671225 59.677091 
L 304.76143 59.677091 
L 304.851634 60.898909 
L 304.941839 57.233455 
L 305.122248 59.677091 
L 305.212453 57.233455 
L 305.302658 58.455273 
L 305.392863 57.233455 
L 305.483067 60.898909 
L 305.663477 58.455273 
L 305.753681 57.233455 
L 306.024295 62.120727 
L 306.204705 57.233455 
L 306.29491 58.455273 
L 306.385114 62.120727 
L 306.475319 57.233455 
L 306.655728 58.455273 
L 306.745933 57.233455 
L 306.926342 59.677091 
L 307.106752 56.011636 
L 307.196957 60.898909 
L 307.287161 57.233455 
L 307.377366 58.455273 
L 307.467571 57.233455 
L 307.557775 60.898909 
L 307.738185 58.455273 
L 307.82839 57.233455 
L 308.008799 60.898909 
L 308.279413 56.011636 
L 308.459822 58.455273 
L 308.550027 57.233455 
L 308.640232 60.898909 
L 308.730437 56.011636 
L 309.091255 59.677091 
L 309.18146 57.233455 
L 309.361869 60.898909 
L 309.452074 58.455273 
L 309.632484 60.898909 
L 309.722688 59.677091 
L 309.812893 63.342545 
L 309.993302 59.677091 
L 310.083507 58.455273 
L 310.173712 60.898909 
L 310.354121 59.677091 
L 310.534531 59.677091 
L 310.624735 57.233455 
L 310.71494 60.898909 
L 311.075759 56.011636 
L 311.346373 60.898909 
L 311.436578 59.677091 
L 311.526782 60.898909 
L 311.707192 58.455273 
L 311.797396 58.455273 
L 311.977806 59.677091 
L 312.068011 56.011636 
L 312.338625 60.898909 
L 312.428829 58.455273 
L 312.609239 60.898909 
L 312.789648 58.455273 
L 312.970058 57.233455 
L 313.060262 57.233455 
L 313.150467 60.898909 
L 313.421081 56.011636 
L 313.511286 59.677091 
L 313.691695 57.233455 
L 313.7819 58.455273 
L 313.872105 56.011636 
L 314.233014 60.898909 
L 314.413423 58.455273 
L 314.503628 58.455273 
L 314.593832 60.898909 
L 314.864447 56.011636 
L 315.044856 60.898909 
L 315.135061 59.677091 
L 315.225265 60.898909 
L 315.405675 58.455273 
L 315.495879 59.677091 
L 315.676289 58.455273 
L 315.856698 58.455273 
L 315.946903 57.233455 
L 316.127312 59.677091 
L 316.307722 57.233455 
L 316.488131 58.455273 
L 316.578336 58.455273 
L 316.668541 60.898909 
L 316.84895 58.455273 
L 317.029359 58.455273 
L 317.119564 59.677091 
L 317.299973 58.455273 
L 317.390178 58.455273 
L 317.480383 60.898909 
L 317.660792 57.233455 
L 317.750997 58.455273 
L 317.841202 58.455273 
L 317.931406 59.677091 
L 318.111816 58.455273 
L 318.38243 58.455273 
L 318.472635 57.233455 
L 318.653044 60.898909 
L 318.743249 60.898909 
L 318.833453 57.233455 
L 319.013863 62.120727 
L 319.194272 59.677091 
L 319.284477 59.677091 
L 319.374682 56.011636 
L 319.555091 58.455273 
L 319.645296 57.233455 
L 319.7355 58.455273 
L 319.825705 57.233455 
L 319.91591 60.898909 
L 320.006205 58.455273 
L 320.096409 60.898909 
L 320.186614 58.455273 
L 320.367024 60.898909 
L 320.457228 57.233455 
L 320.547433 59.677091 
L 320.908252 56.011636 
L 321.088661 60.898909 
L 321.178866 58.455273 
L 321.359275 60.898909 
L 321.44948 60.898909 
L 321.629889 58.455273 
L 321.720094 58.455273 
L 321.810299 60.898909 
L 321.900504 58.455273 
L 322.080913 59.677091 
L 322.171118 57.233455 
L 322.351527 60.898909 
L 322.441822 56.011636 
L 322.622231 60.898909 
L 322.802641 58.455273 
L 322.892845 58.455273 
L 322.98305 60.898909 
L 323.16346 58.455273 
L 323.253664 59.677091 
L 323.343869 57.233455 
L 323.434074 58.455273 
L 323.524278 57.233455 
L 323.614483 62.120727 
L 323.794892 56.011636 
L 323.885097 60.898909 
L 324.065687 57.233455 
L 324.246277 59.677091 
L 324.516891 57.233455 
L 324.6973 59.677091 
L 324.787505 57.233455 
L 325.058119 60.898909 
L 325.148324 56.011636 
L 325.238529 60.898909 
L 325.328733 57.233455 
L 325.509143 60.898909 
L 325.689552 58.455273 
L 325.779757 58.455273 
L 325.869961 56.011636 
L 326.050371 58.455273 
L 326.23078 57.233455 
L 326.320985 60.898909 
L 326.501394 58.455273 
L 326.591599 58.455273 
L 326.681804 59.677091 
L 326.772008 58.455273 
L 326.862213 60.898909 
L 326.952508 58.455273 
L 327.042803 59.677091 
L 327.133098 56.011636 
L 327.223393 60.898909 
L 327.313598 56.011636 
L 327.403802 60.898909 
L 327.494007 56.011636 
L 327.674416 60.898909 
L 327.764621 59.677091 
L 327.854826 62.120727 
L 328.035235 58.455273 
L 328.305849 58.455273 
L 328.396054 56.011636 
L 328.576644 60.898909 
L 328.666939 57.233455 
L 328.757234 60.898909 
L 328.847438 58.455273 
L 328.937643 60.898909 
L 329.118052 57.233455 
L 329.298462 60.898909 
L 329.478871 58.455273 
L 329.569076 58.455273 
L 329.749485 59.677091 
L 329.929895 56.011636 
L 330.020099 57.233455 
L 330.110304 57.233455 
L 330.290714 59.677091 
L 330.471123 56.011636 
L 330.651532 59.677091 
L 330.922146 56.011636 
L 331.012351 60.898909 
L 331.282965 57.233455 
L 331.37317 60.898909 
L 331.643784 56.011636 
L 331.733989 60.898909 
L 331.914398 57.233455 
L 332.004603 59.677091 
L 332.094808 56.011636 
L 332.275217 59.677091 
L 332.365422 58.455273 
L 332.455626 57.233455 
L 332.545831 60.898909 
L 332.72624 57.233455 
L 332.90665 57.233455 
L 332.996855 60.898909 
L 333.087059 58.455273 
L 333.177264 59.677091 
L 333.267469 57.233455 
L 333.357673 60.898909 
L 333.628288 58.455273 
L 333.808697 58.455273 
L 333.898902 60.898909 
L 334.079311 56.011636 
L 334.44013 60.898909 
L 334.530335 57.233455 
L 334.620539 59.677091 
L 334.891153 57.233455 
L 334.981358 58.455273 
L 335.071563 57.233455 
L 335.161767 59.677091 
L 335.432472 56.011636 
L 335.522676 60.898909 
L 335.612881 57.233455 
L 335.883495 60.898909 
L 336.063905 56.011636 
L 336.154109 57.233455 
L 336.244314 60.898909 
L 336.424724 58.455273 
L 336.514928 59.677091 
L 336.605133 58.455273 
L 336.695338 62.120727 
L 336.785542 59.677091 
L 336.875747 60.898909 
L 336.965952 57.233455 
L 337.146361 60.898909 
L 337.236566 58.455273 
L 337.326771 59.677091 
L 337.50718 57.233455 
L 337.597385 60.898909 
L 337.687589 58.455273 
L 337.867999 59.677091 
L 338.048408 58.455273 
L 338.138613 58.455273 
L 338.228818 57.233455 
L 338.409227 60.898909 
L 338.499432 60.898909 
L 338.679931 59.677091 
L 338.770136 60.898909 
L 338.950545 57.233455 
L 339.04075 59.677091 
L 339.130955 57.233455 
L 339.401569 59.677091 
L 339.491774 59.677091 
L 339.672183 58.455273 
L 339.852592 60.898909 
L 339.942797 60.898909 
L 340.033002 58.455273 
L 340.123207 60.898909 
L 340.303616 57.233455 
L 340.484025 59.677091 
L 340.57423 58.455273 
L 340.664435 59.677091 
L 340.754639 58.455273 
L 340.844844 60.898909 
L 340.935049 57.233455 
L 341.025254 58.455273 
L 341.205663 57.233455 
L 341.386072 58.455273 
L 341.476277 58.455273 
L 341.566482 60.898909 
L 341.746891 58.455273 
L 341.927301 59.677091 
L 342.017505 59.677091 
L 342.288119 57.233455 
L 342.378324 60.898909 
L 342.558733 57.233455 
L 342.829348 59.677091 
L 343.009757 58.455273 
L 343.280371 58.455273 
L 343.370576 59.677091 
L 343.46078 57.233455 
L 343.64119 60.898909 
L 343.821599 58.455273 
L 344.002009 58.455273 
L 344.092213 60.898909 
L 344.272623 58.455273 
L 344.453032 60.898909 
L 344.543237 59.677091 
L 344.723646 63.342545 
L 344.904056 57.233455 
L 344.99426 60.898909 
L 345.17467 57.233455 
L 345.264875 57.233455 
L 345.355079 59.677091 
L 345.445284 58.455273 
L 345.535489 60.898909 
L 345.806103 58.455273 
L 345.896307 59.677091 
L 345.986512 57.233455 
L 346.076717 58.455273 
L 346.166922 57.233455 
L 346.347331 60.898909 
L 346.437536 57.233455 
L 346.617945 58.455273 
L 346.70815 58.455273 
L 346.798354 57.233455 
L 346.888559 60.898909 
L 347.068969 57.233455 
L 347.339583 60.898909 
L 347.519992 57.233455 
L 347.610197 59.677091 
L 347.790606 56.011636 
L 347.880811 60.898909 
L 348.24163 57.233455 
L 348.331834 57.233455 
L 348.512244 60.898909 
L 348.602449 59.677091 
L 348.692653 57.233455 
L 348.873063 59.677091 
L 348.963267 59.677091 
L 349.053472 56.011636 
L 349.233881 60.898909 
L 349.324086 59.677091 
L 349.414291 63.342545 
L 349.5947 57.233455 
L 349.684905 59.677091 
L 349.77511 58.455273 
L 350.045724 60.898909 
L 350.135928 58.455273 
L 350.226133 60.898909 
L 350.406543 57.233455 
L 350.677157 59.677091 
L 350.857566 56.011636 
L 351.037976 60.898909 
L 351.12818 56.011636 
L 351.30859 59.677091 
L 351.398794 57.233455 
L 351.579204 58.455273 
L 351.669408 56.011636 
L 351.759613 57.233455 
L 351.849818 60.898909 
L 352.030227 58.455273 
L 352.300841 60.898909 
L 352.571455 57.233455 
L 352.751865 59.677091 
L 352.84207 59.677091 
L 352.932274 57.233455 
L 353.112774 59.677091 
L 353.202979 57.233455 
L 353.383388 59.677091 
L 353.473593 57.233455 
L 353.563797 60.898909 
L 353.924616 57.233455 
L 354.105026 59.677091 
L 354.19523 56.011636 
L 354.37564 59.677091 
L 354.465844 57.233455 
L 354.646254 58.455273 
L 354.736459 63.342545 
L 354.826663 57.233455 
L 354.916868 58.455273 
L 355.007073 58.455273 
L 355.097277 59.677091 
L 355.277687 56.011636 
L 355.548301 59.677091 
L 355.638506 58.455273 
L 355.72871 62.120727 
L 355.90912 58.455273 
L 355.999324 60.898909 
L 356.179734 58.455273 
L 356.360143 60.898909 
L 356.450348 56.011636 
L 356.720962 60.898909 
L 356.811167 60.898909 
L 356.991576 59.677091 
L 357.171985 59.677091 
L 357.26219 57.233455 
L 357.352395 60.898909 
L 357.623009 57.233455 
L 357.803418 59.677091 
L 357.983828 59.677091 
L 358.164237 58.455273 
L 358.344647 58.455273 
L 358.434851 56.011636 
L 358.615261 58.455273 
L 358.705465 58.455273 
L 358.885875 59.677091 
L 358.97608 57.233455 
L 359.156489 59.677091 
L 359.336898 57.233455 
L 359.517308 60.898909 
L 359.607512 58.455273 
L 359.697807 60.898909 
L 359.878217 56.011636 
L 360.058626 60.898909 
L 360.148831 57.233455 
L 360.32924 58.455273 
L 360.50965 58.455273 
L 360.599854 56.011636 
L 360.690059 57.233455 
L 360.780264 60.898909 
L 360.960673 57.233455 
L 361.050878 60.898909 
L 361.141083 57.233455 
L 361.321492 59.677091 
L 361.501901 57.233455 
L 361.592106 57.233455 
L 361.682311 56.011636 
L 361.772516 58.455273 
L 361.86272 57.233455 
L 362.04313 62.120727 
L 362.133334 58.455273 
L 362.223539 59.677091 
L 362.313744 58.455273 
L 362.403948 59.677091 
L 362.494153 56.011636 
L 362.674563 60.898909 
L 362.945177 58.455273 
L 363.035381 59.677091 
L 363.125586 58.455273 
L 363.305995 59.677091 
L 363.3962 58.455273 
L 363.486405 59.677091 
L 363.57661 58.455273 
L 363.757019 60.898909 
L 364.027633 56.011636 
L 364.208042 59.677091 
L 364.298247 58.455273 
L 364.388452 56.011636 
L 364.659066 60.898909 
L 364.839475 56.011636 
L 364.92968 60.898909 
L 365.019885 58.455273 
L 365.11009 60.898909 
L 365.290499 58.455273 
L 365.470908 60.898909 
L 365.561113 57.233455 
L 365.741522 59.677091 
L 365.831727 58.455273 
L 365.921932 59.677091 
L 366.102341 58.455273 
L 366.282751 58.455273 
L 366.372955 57.233455 
L 366.553365 59.677091 
L 366.643569 59.677091 
L 366.733774 58.455273 
L 367.004388 60.898909 
L 367.275002 58.455273 
L 367.365207 58.455273 
L 367.455412 60.898909 
L 367.545616 57.233455 
L 367.635821 60.898909 
L 367.816231 58.455273 
L 367.906435 59.677091 
L 367.99664 57.233455 
L 368.267254 59.677091 
L 368.357459 59.677091 
L 368.537868 58.455273 
L 368.628073 60.898909 
L 368.718278 56.011636 
L 368.898687 58.455273 
L 368.988892 58.455273 
L 369.079096 59.677091 
L 369.259506 56.011636 
L 369.349711 57.233455 
L 369.439915 59.677091 
L 369.53012 57.233455 
L 369.620325 59.677091 
L 369.710529 57.233455 
L 369.890939 58.455273 
L 370.251758 58.455273 
L 370.432167 59.677091 
L 370.522372 58.455273 
L 370.792986 60.898909 
L 370.973395 58.455273 
L 371.334214 58.455273 
L 371.424419 56.011636 
L 371.514623 60.898909 
L 371.785237 56.011636 
L 371.875442 59.677091 
L 371.965647 58.455273 
L 372.055852 59.677091 
L 372.146056 58.455273 
L 372.236261 59.677091 
L 372.326466 58.455273 
L 372.41667 59.677091 
L 372.59708 57.233455 
L 372.687285 57.233455 
L 372.957899 59.677091 
L 373.048103 58.455273 
L 373.138308 59.677091 
L 373.318717 58.455273 
L 373.408922 58.455273 
L 373.499127 60.898909 
L 373.589332 58.455273 
L 373.769741 60.898909 
L 373.95015 58.455273 
L 374.040355 60.898909 
L 374.401174 56.011636 
L 374.581583 59.677091 
L 374.671788 57.233455 
L 374.761993 59.677091 
L 374.852197 57.233455 
L 374.942402 58.455273 
L 375.032607 57.233455 
L 375.122811 60.898909 
L 375.303221 57.233455 
L 375.573835 60.898909 
L 375.844449 58.455273 
L 375.934654 58.455273 
L 376.115063 59.677091 
L 376.295473 59.677091 
L 376.385677 57.233455 
L 376.566087 60.898909 
L 376.656291 58.455273 
L 376.746496 59.677091 
L 376.836701 57.233455 
L 376.926906 62.120727 
L 377.107315 58.455273 
L 377.19752 58.455273 
L 377.287724 56.011636 
L 377.468134 60.898909 
L 377.648543 57.233455 
L 377.919157 60.898909 
L 378.099567 54.789818 
L 378.189771 56.011636 
L 378.279976 60.898909 
L 378.460385 58.455273 
L 378.55059 58.455273 
L 378.731 60.898909 
L 378.821204 60.898909 
L 379.001614 58.455273 
L 379.272228 58.455273 
L 379.362433 57.233455 
L 379.633047 60.898909 
L 379.723251 56.011636 
L 379.903661 59.677091 
L 379.993865 59.677091 
L 380.174275 57.233455 
L 380.444889 60.898909 
L 380.625298 57.233455 
L 380.715503 57.233455 
L 380.805708 60.898909 
L 380.895912 57.233455 
L 380.986117 60.898909 
L 381.166527 57.233455 
L 381.256731 58.455273 
L 381.346936 57.233455 
L 381.527345 58.455273 
L 381.61755 58.455273 
L 381.707755 60.898909 
L 381.888164 57.233455 
L 382.068574 59.677091 
L 382.339188 57.233455 
L 382.519597 58.455273 
L 382.700007 57.233455 
L 382.970621 59.677091 
L 383.060825 58.455273 
L 383.15103 59.677091 
L 383.331439 58.455273 
L 383.511939 58.455273 
L 383.602144 59.677091 
L 383.692348 56.011636 
L 383.872758 58.455273 
L 384.053167 57.233455 
L 384.143372 59.677091 
L 384.233577 58.455273 
L 384.323781 60.898909 
L 384.413986 56.011636 
L 384.594395 59.677091 
L 384.6846 60.898909 
L 384.86501 58.455273 
L 384.955214 57.233455 
L 385.135624 59.677091 
L 385.406238 54.789818 
L 385.496443 59.677091 
L 385.586647 58.455273 
L 385.676852 59.677091 
L 385.767057 57.233455 
L 385.947466 60.898909 
L 386.037671 57.233455 
L 386.21808 58.455273 
L 386.39849 57.233455 
L 386.488694 57.233455 
L 386.578899 60.898909 
L 386.669104 58.455273 
L 386.759308 59.677091 
L 386.939718 58.455273 
L 387.029922 58.455273 
L 387.120127 57.233455 
L 387.300537 60.898909 
L 387.390741 59.677091 
L 387.480946 57.233455 
L 387.571151 59.677091 
L 387.661355 58.455273 
L 387.75156 59.677091 
L 387.841765 56.011636 
L 388.022174 59.677091 
L 388.202584 57.233455 
L 388.382993 63.342545 
L 388.473198 57.233455 
L 388.653607 59.677091 
L 388.924221 57.233455 
L 389.014426 59.677091 
L 389.104631 57.233455 
L 389.194835 58.455273 
L 389.375425 57.233455 
L 389.646129 59.677091 
L 389.826539 57.233455 
L 390.006948 59.677091 
L 390.097153 58.455273 
L 390.187358 59.677091 
L 390.367857 58.455273 
L 390.458152 60.898909 
L 390.728947 56.011636 
L 390.909356 58.455273 
L 391.089765 57.233455 
L 391.17997 59.677091 
L 391.36038 57.233455 
L 391.540789 59.677091 
L 391.630994 57.233455 
L 391.721198 60.898909 
L 391.901698 57.233455 
L 391.991993 58.455273 
L 392.082288 59.677091 
L 392.262787 58.455273 
L 392.352992 58.455273 
L 392.533402 60.898909 
L 392.713811 56.011636 
L 392.89422 59.677091 
L 392.984425 60.898909 
L 393.07463 57.233455 
L 393.164834 60.898909 
L 393.255039 57.233455 
L 393.345244 60.898909 
L 393.435449 58.455273 
L 393.525743 60.898909 
L 393.616038 56.011636 
L 393.796448 60.898909 
L 393.886653 57.233455 
L 393.976857 58.455273 
L 394.157267 57.233455 
L 394.337676 59.677091 
L 394.518085 58.455273 
L 394.60829 59.677091 
L 394.7887 58.455273 
L 394.878904 59.677091 
L 395.059404 58.455273 
L 395.330018 58.455273 
L 395.420223 60.898909 
L 395.510427 58.455273 
L 395.600632 59.677091 
L 395.871246 57.233455 
L 395.961451 60.898909 
L 396.051656 57.233455 
L 396.32227 60.898909 
L 396.412474 56.011636 
L 396.592884 59.677091 
L 396.773383 58.455273 
L 397.043997 60.898909 
L 397.134202 56.011636 
L 397.224407 58.455273 
L 397.404816 57.233455 
L 397.585226 57.233455 
L 397.67543 60.898909 
L 397.85584 57.233455 
L 397.946045 57.233455 
L 398.036249 58.455273 
L 398.126454 57.233455 
L 398.216659 60.898909 
L 398.397068 57.233455 
L 398.487273 57.233455 
L 398.487273 57.233455 
" style="fill:none;stroke:#ff7f0e;stroke-linecap:square;stroke-width:1.5;"/>
   </g>
   <g id="patch_3">
    <path d="M 57.6 307.584 
L 57.6 41.472 
" style="fill:none;stroke:#000000;stroke-linecap:square;stroke-linejoin:miter;stroke-width:0.8;"/>
   </g>
   <g id="patch_4">
    <path d="M 414.72 307.584 
L 414.72 41.472 
" style="fill:none;stroke:#000000;stroke-linecap:square;stroke-linejoin:miter;stroke-width:0.8;"/>
   </g>
   <g id="patch_5">
    <path d="M 57.6 307.584 
L 414.72 307.584 
" style="fill:none;stroke:#000000;stroke-linecap:square;stroke-linejoin:miter;stroke-width:0.8;"/>
   </g>
   <g id="patch_6">
    <path d="M 57.6 41.472 
L 414.72 41.472 
" style="fill:none;stroke:#000000;stroke-linecap:square;stroke-linejoin:miter;stroke-width:0.8;"/>
   </g>
   <g id="text_19">
    <!-- Temperatures of heater -->
    <defs>
     <path d="M 30.609375 48.390625 
Q 23.390625 48.390625 19.1875 42.75 
Q 14.984375 37.109375 14.984375 27.296875 
Q 14.984375 17.484375 19.15625 11.84375 
Q 23.34375 6.203125 30.609375 6.203125 
Q 37.796875 6.203125 41.984375 11.859375 
Q 46.1875 17.53125 46.1875 27.296875 
Q 46.1875 37.015625 41.984375 42.703125 
Q 37.796875 48.390625 30.609375 48.390625 
z
M 30.609375 56 
Q 42.328125 56 49.015625 48.375 
Q 55.71875 40.765625 55.71875 27.296875 
Q 55.71875 13.875 49.015625 6.21875 
Q 42.328125 -1.421875 30.609375 -1.421875 
Q 18.84375 -1.421875 12.171875 6.21875 
Q 5.515625 13.875 5.515625 27.296875 
Q 5.515625 40.765625 12.171875 48.375 
Q 18.84375 56 30.609375 56 
z
" id="DejaVuSans-6f"/>
     <path d="M 37.109375 75.984375 
L 37.109375 68.5 
L 28.515625 68.5 
Q 23.6875 68.5 21.796875 66.546875 
Q 19.921875 64.59375 19.921875 59.515625 
L 19.921875 54.6875 
L 34.71875 54.6875 
L 34.71875 47.703125 
L 19.921875 47.703125 
L 19.921875 0 
L 10.890625 0 
L 10.890625 47.703125 
L 2.296875 47.703125 
L 2.296875 54.6875 
L 10.890625 54.6875 
L 10.890625 58.5 
Q 10.890625 67.625 15.140625 71.796875 
Q 19.390625 75.984375 28.609375 75.984375 
z
" id="DejaVuSans-66"/>
     <path d="M 54.890625 33.015625 
L 54.890625 0 
L 45.90625 0 
L 45.90625 32.71875 
Q 45.90625 40.484375 42.875 44.328125 
Q 39.84375 48.1875 33.796875 48.1875 
Q 26.515625 48.1875 22.3125 43.546875 
Q 18.109375 38.921875 18.109375 30.90625 
L 18.109375 0 
L 9.078125 0 
L 9.078125 75.984375 
L 18.109375 75.984375 
L 18.109375 46.1875 
Q 21.34375 51.125 25.703125 53.5625 
Q 30.078125 56 35.796875 56 
Q 45.21875 56 50.046875 50.171875 
Q 54.890625 44.34375 54.890625 33.015625 
z
" id="DejaVuSans-68"/>
    </defs>
    <g transform="translate(164.614688 35.472)scale(0.12 -0.12)">
     <use xlink:href="#DejaVuSans-54"/>
     <use x="60.818359" xlink:href="#DejaVuSans-65"/>
     <use x="122.341797" xlink:href="#DejaVuSans-6d"/>
     <use x="219.753906" xlink:href="#DejaVuSans-70"/>
     <use x="283.230469" xlink:href="#DejaVuSans-65"/>
     <use x="344.753906" xlink:href="#DejaVuSans-72"/>
     <use x="385.867188" xlink:href="#DejaVuSans-61"/>
     <use x="447.146484" xlink:href="#DejaVuSans-74"/>
     <use x="486.355469" xlink:href="#DejaVuSans-75"/>
     <use x="549.734375" xlink:href="#DejaVuSans-72"/>
     <use x="590.816406" xlink:href="#DejaVuSans-65"/>
     <use x="652.339844" xlink:href="#DejaVuSans-73"/>
     <use x="704.439453" xlink:href="#DejaVuSans-20"/>
     <use x="736.226562" xlink:href="#DejaVuSans-6f"/>
     <use x="797.408203" xlink:href="#DejaVuSans-66"/>
     <use x="832.613281" xlink:href="#DejaVuSans-20"/>
     <use x="864.400391" xlink:href="#DejaVuSans-68"/>
     <use x="927.779297" xlink:href="#DejaVuSans-65"/>
     <use x="989.302734" xlink:href="#DejaVuSans-61"/>
     <use x="1050.582031" xlink:href="#DejaVuSans-74"/>
     <use x="1089.791016" xlink:href="#DejaVuSans-65"/>
     <use x="1151.314453" xlink:href="#DejaVuSans-72"/>
    </g>
   </g>
   <g id="legend_1">
    <g id="patch_7">
     <path d="M 328.585625 302.584 
L 407.72 302.584 
Q 409.72 302.584 409.72 300.584 
L 409.72 272.22775 
Q 409.72 270.22775 407.72 270.22775 
L 328.585625 270.22775 
Q 326.585625 270.22775 326.585625 272.22775 
L 326.585625 300.584 
Q 326.585625 302.584 328.585625 302.584 
z
" style="fill:#ffffff;opacity:0.8;stroke:#cccccc;stroke-linejoin:miter;"/>
    </g>
    <g id="line2d_19">
     <path d="M 330.585625 278.326187 
L 350.585625 278.326187 
" style="fill:none;stroke:#1f77b4;stroke-linecap:square;stroke-width:1.5;"/>
    </g>
    <g id="line2d_20"/>
    <g id="text_20">
     <!-- Setpoints -->
     <defs>
      <path d="M 53.515625 70.515625 
L 53.515625 60.890625 
Q 47.90625 63.578125 42.921875 64.890625 
Q 37.9375 66.21875 33.296875 66.21875 
Q 25.25 66.21875 20.875 63.09375 
Q 16.5 59.96875 16.5 54.203125 
Q 16.5 49.359375 19.40625 46.890625 
Q 22.3125 44.4375 30.421875 42.921875 
L 36.375 41.703125 
Q 47.40625 39.59375 52.65625 34.296875 
Q 57.90625 29 57.90625 20.125 
Q 57.90625 9.515625 50.796875 4.046875 
Q 43.703125 -1.421875 29.984375 -1.421875 
Q 24.8125 -1.421875 18.96875 -0.25 
Q 13.140625 0.921875 6.890625 3.21875 
L 6.890625 13.375 
Q 12.890625 10.015625 18.65625 8.296875 
Q 24.421875 6.59375 29.984375 6.59375 
Q 38.421875 6.59375 43.015625 9.90625 
Q 47.609375 13.234375 47.609375 19.390625 
Q 47.609375 24.75 44.3125 27.78125 
Q 41.015625 30.8125 33.5 32.328125 
L 27.484375 33.5 
Q 16.453125 35.6875 11.515625 40.375 
Q 6.59375 45.0625 6.59375 53.421875 
Q 6.59375 63.09375 13.40625 68.65625 
Q 20.21875 74.21875 32.171875 74.21875 
Q 37.3125 74.21875 42.625 73.28125 
Q 47.953125 72.359375 53.515625 70.515625 
z
" id="DejaVuSans-53"/>
      <path d="M 9.421875 54.6875 
L 18.40625 54.6875 
L 18.40625 0 
L 9.421875 0 
z
M 9.421875 75.984375 
L 18.40625 75.984375 
L 18.40625 64.59375 
L 9.421875 64.59375 
z
" id="DejaVuSans-69"/>
      <path d="M 54.890625 33.015625 
L 54.890625 0 
L 45.90625 0 
L 45.90625 32.71875 
Q 45.90625 40.484375 42.875 44.328125 
Q 39.84375 48.1875 33.796875 48.1875 
Q 26.515625 48.1875 22.3125 43.546875 
Q 18.109375 38.921875 18.109375 30.90625 
L 18.109375 0 
L 9.078125 0 
L 9.078125 54.6875 
L 18.109375 54.6875 
L 18.109375 46.1875 
Q 21.34375 51.125 25.703125 53.5625 
Q 30.078125 56 35.796875 56 
Q 45.21875 56 50.046875 50.171875 
Q 54.890625 44.34375 54.890625 33.015625 
z
" id="DejaVuSans-6e"/>
     </defs>
     <g transform="translate(358.585625 281.826187)scale(0.1 -0.1)">
      <use xlink:href="#DejaVuSans-53"/>
      <use x="63.476562" xlink:href="#DejaVuSans-65"/>
      <use x="125" xlink:href="#DejaVuSans-74"/>
      <use x="164.208984" xlink:href="#DejaVuSans-70"/>
      <use x="227.685547" xlink:href="#DejaVuSans-6f"/>
      <use x="288.867188" xlink:href="#DejaVuSans-69"/>
      <use x="316.650391" xlink:href="#DejaVuSans-6e"/>
      <use x="380.029297" xlink:href="#DejaVuSans-74"/>
      <use x="419.238281" xlink:href="#DejaVuSans-73"/>
     </g>
    </g>
    <g id="line2d_21">
     <path d="M 330.585625 293.004312 
L 350.585625 293.004312 
" style="fill:none;stroke:#ff7f0e;stroke-linecap:square;stroke-width:1.5;"/>
    </g>
    <g id="line2d_22"/>
    <g id="text_21">
     <!-- Heater -->
     <defs>
      <path d="M 9.8125 72.90625 
L 19.671875 72.90625 
L 19.671875 43.015625 
L 55.515625 43.015625 
L 55.515625 72.90625 
L 65.375 72.90625 
L 65.375 0 
L 55.515625 0 
L 55.515625 34.71875 
L 19.671875 34.71875 
L 19.671875 0 
L 9.8125 0 
z
" id="DejaVuSans-48"/>
     </defs>
     <g transform="translate(358.585625 296.504312)scale(0.1 -0.1)">
      <use xlink:href="#DejaVuSans-48"/>
      <use x="75.195312" xlink:href="#DejaVuSans-65"/>
      <use x="136.71875" xlink:href="#DejaVuSans-61"/>
      <use x="197.998047" xlink:href="#DejaVuSans-74"/>
      <use x="237.207031" xlink:href="#DejaVuSans-65"/>
      <use x="298.730469" xlink:href="#DejaVuSans-72"/>
     </g>
    </g>
   </g>
  </g>
 </g>
 <defs>
  <clipPath id="p7e645d78ba">
   <rect height="266.112" width="357.12" x="57.6" y="41.472"/>
  </clipPath>
 </defs>
</svg>
