<?xml version="1.0" encoding="utf-8" standalone="no"?>
<!DOCTYPE svg PUBLIC "-//W3C//DTD SVG 1.1//EN"
  "http://www.w3.org/Graphics/SVG/1.1/DTD/svg11.dtd">
<!-- Created with matplotlib (http://matplotlib.org/) -->
<svg height="345pt" version="1.1" viewBox="0 0 460 345" width="460pt" xmlns="http://www.w3.org/2000/svg" xmlns:xlink="http://www.w3.org/1999/xlink">
 <defs>
  <style type="text/css">
*{stroke-linecap:butt;stroke-linejoin:round;}
  </style>
 </defs>
 <g id="figure_1">
  <g id="patch_1">
   <path d="M 0 345.6 
L 460.8 345.6 
L 460.8 0 
L 0 0 
z
" style="fill:#ffffff;"/>
  </g>
  <g id="axes_1">
   <g id="patch_2">
    <path d="M 57.6 307.584 
L 414.72 307.584 
L 414.72 41.472 
L 57.6 41.472 
z
" style="fill:#ffffff;"/>
   </g>
   <g id="matplotlib.axis_1">
    <g id="xtick_1">
     <g id="line2d_1">
      <defs>
       <path d="M 0 0 
L 0 3.5 
" id="m5e797dd681" style="stroke:#000000;stroke-width:0.8;"/>
      </defs>
      <g>
       <use style="stroke:#000000;stroke-width:0.8;" x="73.652037" xlink:href="#m5e797dd681" y="307.584"/>
      </g>
     </g>
     <g id="text_1">
      <!-- 0 -->
      <defs>
       <path d="M 31.78125 66.40625 
Q 24.171875 66.40625 20.328125 58.90625 
Q 16.5 51.421875 16.5 36.375 
Q 16.5 21.390625 20.328125 13.890625 
Q 24.171875 6.390625 31.78125 6.390625 
Q 39.453125 6.390625 43.28125 13.890625 
Q 47.125 21.390625 47.125 36.375 
Q 47.125 51.421875 43.28125 58.90625 
Q 39.453125 66.40625 31.78125 66.40625 
z
M 31.78125 74.21875 
Q 44.046875 74.21875 50.515625 64.515625 
Q 56.984375 54.828125 56.984375 36.375 
Q 56.984375 17.96875 50.515625 8.265625 
Q 44.046875 -1.421875 31.78125 -1.421875 
Q 19.53125 -1.421875 13.0625 8.265625 
Q 6.59375 17.96875 6.59375 36.375 
Q 6.59375 54.828125 13.0625 64.515625 
Q 19.53125 74.21875 31.78125 74.21875 
z
" id="DejaVuSans-30"/>
      </defs>
      <g transform="translate(70.470787 322.182437)scale(0.1 -0.1)">
       <use xlink:href="#DejaVuSans-30"/>
      </g>
     </g>
    </g>
    <g id="xtick_2">
     <g id="line2d_2">
      <g>
       <use style="stroke:#000000;stroke-width:0.8;" x="118.779499" xlink:href="#m5e797dd681" y="307.584"/>
      </g>
     </g>
     <g id="text_2">
      <!-- 500 -->
      <defs>
       <path d="M 10.796875 72.90625 
L 49.515625 72.90625 
L 49.515625 64.59375 
L 19.828125 64.59375 
L 19.828125 46.734375 
Q 21.96875 47.46875 24.109375 47.828125 
Q 26.265625 48.1875 28.421875 48.1875 
Q 40.625 48.1875 47.75 41.5 
Q 54.890625 34.8125 54.890625 23.390625 
Q 54.890625 11.625 47.5625 5.09375 
Q 40.234375 -1.421875 26.90625 -1.421875 
Q 22.3125 -1.421875 17.546875 -0.640625 
Q 12.796875 0.140625 7.71875 1.703125 
L 7.71875 11.625 
Q 12.109375 9.234375 16.796875 8.0625 
Q 21.484375 6.890625 26.703125 6.890625 
Q 35.15625 6.890625 40.078125 11.328125 
Q 45.015625 15.765625 45.015625 23.390625 
Q 45.015625 31 40.078125 35.4375 
Q 35.15625 39.890625 26.703125 39.890625 
Q 22.75 39.890625 18.8125 39.015625 
Q 14.890625 38.140625 10.796875 36.28125 
z
" id="DejaVuSans-35"/>
      </defs>
      <g transform="translate(109.235749 322.182437)scale(0.1 -0.1)">
       <use xlink:href="#DejaVuSans-35"/>
       <use x="63.623047" xlink:href="#DejaVuSans-30"/>
       <use x="127.246094" xlink:href="#DejaVuSans-30"/>
      </g>
     </g>
    </g>
    <g id="xtick_3">
     <g id="line2d_3">
      <g>
       <use style="stroke:#000000;stroke-width:0.8;" x="163.906962" xlink:href="#m5e797dd681" y="307.584"/>
      </g>
     </g>
     <g id="text_3">
      <!-- 1000 -->
      <defs>
       <path d="M 12.40625 8.296875 
L 28.515625 8.296875 
L 28.515625 63.921875 
L 10.984375 60.40625 
L 10.984375 69.390625 
L 28.421875 72.90625 
L 38.28125 72.90625 
L 38.28125 8.296875 
L 54.390625 8.296875 
L 54.390625 0 
L 12.40625 0 
z
" id="DejaVuSans-31"/>
      </defs>
      <g transform="translate(151.181962 322.182437)scale(0.1 -0.1)">
       <use xlink:href="#DejaVuSans-31"/>
       <use x="63.623047" xlink:href="#DejaVuSans-30"/>
       <use x="127.246094" xlink:href="#DejaVuSans-30"/>
       <use x="190.869141" xlink:href="#DejaVuSans-30"/>
      </g>
     </g>
    </g>
    <g id="xtick_4">
     <g id="line2d_4">
      <g>
       <use style="stroke:#000000;stroke-width:0.8;" x="209.034424" xlink:href="#m5e797dd681" y="307.584"/>
      </g>
     </g>
     <g id="text_4">
      <!-- 1500 -->
      <g transform="translate(196.309424 322.182437)scale(0.1 -0.1)">
       <use xlink:href="#DejaVuSans-31"/>
       <use x="63.623047" xlink:href="#DejaVuSans-35"/>
       <use x="127.246094" xlink:href="#DejaVuSans-30"/>
       <use x="190.869141" xlink:href="#DejaVuSans-30"/>
      </g>
     </g>
    </g>
    <g id="xtick_5">
     <g id="line2d_5">
      <g>
       <use style="stroke:#000000;stroke-width:0.8;" x="254.161886" xlink:href="#m5e797dd681" y="307.584"/>
      </g>
     </g>
     <g id="text_5">
      <!-- 2000 -->
      <defs>
       <path d="M 19.1875 8.296875 
L 53.609375 8.296875 
L 53.609375 0 
L 7.328125 0 
L 7.328125 8.296875 
Q 12.9375 14.109375 22.625 23.890625 
Q 32.328125 33.6875 34.8125 36.53125 
Q 39.546875 41.84375 41.421875 45.53125 
Q 43.3125 49.21875 43.3125 52.78125 
Q 43.3125 58.59375 39.234375 62.25 
Q 35.15625 65.921875 28.609375 65.921875 
Q 23.96875 65.921875 18.8125 64.3125 
Q 13.671875 62.703125 7.8125 59.421875 
L 7.8125 69.390625 
Q 13.765625 71.78125 18.9375 73 
Q 24.125 74.21875 28.421875 74.21875 
Q 39.75 74.21875 46.484375 68.546875 
Q 53.21875 62.890625 53.21875 53.421875 
Q 53.21875 48.921875 51.53125 44.890625 
Q 49.859375 40.875 45.40625 35.40625 
Q 44.1875 33.984375 37.640625 27.21875 
Q 31.109375 20.453125 19.1875 8.296875 
z
" id="DejaVuSans-32"/>
      </defs>
      <g transform="translate(241.436886 322.182437)scale(0.1 -0.1)">
       <use xlink:href="#DejaVuSans-32"/>
       <use x="63.623047" xlink:href="#DejaVuSans-30"/>
       <use x="127.246094" xlink:href="#DejaVuSans-30"/>
       <use x="190.869141" xlink:href="#DejaVuSans-30"/>
      </g>
     </g>
    </g>
    <g id="xtick_6">
     <g id="line2d_6">
      <g>
       <use style="stroke:#000000;stroke-width:0.8;" x="299.289349" xlink:href="#m5e797dd681" y="307.584"/>
      </g>
     </g>
     <g id="text_6">
      <!-- 2500 -->
      <g transform="translate(286.564349 322.182437)scale(0.1 -0.1)">
       <use xlink:href="#DejaVuSans-32"/>
       <use x="63.623047" xlink:href="#DejaVuSans-35"/>
       <use x="127.246094" xlink:href="#DejaVuSans-30"/>
       <use x="190.869141" xlink:href="#DejaVuSans-30"/>
      </g>
     </g>
    </g>
    <g id="xtick_7">
     <g id="line2d_7">
      <g>
       <use style="stroke:#000000;stroke-width:0.8;" x="344.416811" xlink:href="#m5e797dd681" y="307.584"/>
      </g>
     </g>
     <g id="text_7">
      <!-- 3000 -->
      <defs>
       <path d="M 40.578125 39.3125 
Q 47.65625 37.796875 51.625 33 
Q 55.609375 28.21875 55.609375 21.1875 
Q 55.609375 10.40625 48.1875 4.484375 
Q 40.765625 -1.421875 27.09375 -1.421875 
Q 22.515625 -1.421875 17.65625 -0.515625 
Q 12.796875 0.390625 7.625 2.203125 
L 7.625 11.71875 
Q 11.71875 9.328125 16.59375 8.109375 
Q 21.484375 6.890625 26.8125 6.890625 
Q 36.078125 6.890625 40.9375 10.546875 
Q 45.796875 14.203125 45.796875 21.1875 
Q 45.796875 27.640625 41.28125 31.265625 
Q 36.765625 34.90625 28.71875 34.90625 
L 20.21875 34.90625 
L 20.21875 43.015625 
L 29.109375 43.015625 
Q 36.375 43.015625 40.234375 45.921875 
Q 44.09375 48.828125 44.09375 54.296875 
Q 44.09375 59.90625 40.109375 62.90625 
Q 36.140625 65.921875 28.71875 65.921875 
Q 24.65625 65.921875 20.015625 65.03125 
Q 15.375 64.15625 9.8125 62.3125 
L 9.8125 71.09375 
Q 15.4375 72.65625 20.34375 73.4375 
Q 25.25 74.21875 29.59375 74.21875 
Q 40.828125 74.21875 47.359375 69.109375 
Q 53.90625 64.015625 53.90625 55.328125 
Q 53.90625 49.265625 50.4375 45.09375 
Q 46.96875 40.921875 40.578125 39.3125 
z
" id="DejaVuSans-33"/>
      </defs>
      <g transform="translate(331.691811 322.182437)scale(0.1 -0.1)">
       <use xlink:href="#DejaVuSans-33"/>
       <use x="63.623047" xlink:href="#DejaVuSans-30"/>
       <use x="127.246094" xlink:href="#DejaVuSans-30"/>
       <use x="190.869141" xlink:href="#DejaVuSans-30"/>
      </g>
     </g>
    </g>
    <g id="xtick_8">
     <g id="line2d_8">
      <g>
       <use style="stroke:#000000;stroke-width:0.8;" x="389.544273" xlink:href="#m5e797dd681" y="307.584"/>
      </g>
     </g>
     <g id="text_8">
      <!-- 3500 -->
      <g transform="translate(376.819273 322.182437)scale(0.1 -0.1)">
       <use xlink:href="#DejaVuSans-33"/>
       <use x="63.623047" xlink:href="#DejaVuSans-35"/>
       <use x="127.246094" xlink:href="#DejaVuSans-30"/>
       <use x="190.869141" xlink:href="#DejaVuSans-30"/>
      </g>
     </g>
    </g>
    <g id="text_9">
     <!-- t(s) -->
     <defs>
      <path d="M 18.3125 70.21875 
L 18.3125 54.6875 
L 36.8125 54.6875 
L 36.8125 47.703125 
L 18.3125 47.703125 
L 18.3125 18.015625 
Q 18.3125 11.328125 20.140625 9.421875 
Q 21.96875 7.515625 27.59375 7.515625 
L 36.8125 7.515625 
L 36.8125 0 
L 27.59375 0 
Q 17.1875 0 13.234375 3.875 
Q 9.28125 7.765625 9.28125 18.015625 
L 9.28125 47.703125 
L 2.6875 47.703125 
L 2.6875 54.6875 
L 9.28125 54.6875 
L 9.28125 70.21875 
z
" id="DejaVuSans-74"/>
      <path d="M 31 75.875 
Q 24.46875 64.65625 21.28125 53.65625 
Q 18.109375 42.671875 18.109375 31.390625 
Q 18.109375 20.125 21.3125 9.0625 
Q 24.515625 -2 31 -13.1875 
L 23.1875 -13.1875 
Q 15.875 -1.703125 12.234375 9.375 
Q 8.59375 20.453125 8.59375 31.390625 
Q 8.59375 42.28125 12.203125 53.3125 
Q 15.828125 64.359375 23.1875 75.875 
z
" id="DejaVuSans-28"/>
      <path d="M 44.28125 53.078125 
L 44.28125 44.578125 
Q 40.484375 46.53125 36.375 47.5 
Q 32.28125 48.484375 27.875 48.484375 
Q 21.1875 48.484375 17.84375 46.4375 
Q 14.5 44.390625 14.5 40.28125 
Q 14.5 37.15625 16.890625 35.375 
Q 19.28125 33.59375 26.515625 31.984375 
L 29.59375 31.296875 
Q 39.15625 29.25 43.1875 25.515625 
Q 47.21875 21.78125 47.21875 15.09375 
Q 47.21875 7.46875 41.1875 3.015625 
Q 35.15625 -1.421875 24.609375 -1.421875 
Q 20.21875 -1.421875 15.453125 -0.5625 
Q 10.6875 0.296875 5.421875 2 
L 5.421875 11.28125 
Q 10.40625 8.6875 15.234375 7.390625 
Q 20.0625 6.109375 24.8125 6.109375 
Q 31.15625 6.109375 34.5625 8.28125 
Q 37.984375 10.453125 37.984375 14.40625 
Q 37.984375 18.0625 35.515625 20.015625 
Q 33.0625 21.96875 24.703125 23.78125 
L 21.578125 24.515625 
Q 13.234375 26.265625 9.515625 29.90625 
Q 5.8125 33.546875 5.8125 39.890625 
Q 5.8125 47.609375 11.28125 51.796875 
Q 16.75 56 26.8125 56 
Q 31.78125 56 36.171875 55.265625 
Q 40.578125 54.546875 44.28125 53.078125 
z
" id="DejaVuSans-73"/>
      <path d="M 8.015625 75.875 
L 15.828125 75.875 
Q 23.140625 64.359375 26.78125 53.3125 
Q 30.421875 42.28125 30.421875 31.390625 
Q 30.421875 20.453125 26.78125 9.375 
Q 23.140625 -1.703125 15.828125 -13.1875 
L 8.015625 -13.1875 
Q 14.5 -2 17.703125 9.0625 
Q 20.90625 20.125 20.90625 31.390625 
Q 20.90625 42.671875 17.703125 53.65625 
Q 14.5 64.65625 8.015625 75.875 
z
" id="DejaVuSans-29"/>
     </defs>
     <g transform="translate(227.693594 335.860562)scale(0.1 -0.1)">
      <use xlink:href="#DejaVuSans-74"/>
      <use x="39.208984" xlink:href="#DejaVuSans-28"/>
      <use x="78.222656" xlink:href="#DejaVuSans-73"/>
      <use x="130.322266" xlink:href="#DejaVuSans-29"/>
     </g>
    </g>
   </g>
   <g id="matplotlib.axis_2">
    <g id="ytick_1">
     <g id="line2d_9">
      <defs>
       <path d="M 0 0 
L -3.5 0 
" id="mf66fced065" style="stroke:#000000;stroke-width:0.8;"/>
      </defs>
      <g>
       <use style="stroke:#000000;stroke-width:0.8;" x="57.6" xlink:href="#mf66fced065" y="304.469268"/>
      </g>
     </g>
     <g id="text_10">
      <!-- 3250 -->
      <g transform="translate(25.15 308.268487)scale(0.1 -0.1)">
       <use xlink:href="#DejaVuSans-33"/>
       <use x="63.623047" xlink:href="#DejaVuSans-32"/>
       <use x="127.246094" xlink:href="#DejaVuSans-35"/>
       <use x="190.869141" xlink:href="#DejaVuSans-30"/>
      </g>
     </g>
    </g>
    <g id="ytick_2">
     <g id="line2d_10">
      <g>
       <use style="stroke:#000000;stroke-width:0.8;" x="57.6" xlink:href="#mf66fced065" y="272.208967"/>
      </g>
     </g>
     <g id="text_11">
      <!-- 3300 -->
      <g transform="translate(25.15 276.008185)scale(0.1 -0.1)">
       <use xlink:href="#DejaVuSans-33"/>
       <use x="63.623047" xlink:href="#DejaVuSans-33"/>
       <use x="127.246094" xlink:href="#DejaVuSans-30"/>
       <use x="190.869141" xlink:href="#DejaVuSans-30"/>
      </g>
     </g>
    </g>
    <g id="ytick_3">
     <g id="line2d_11">
      <g>
       <use style="stroke:#000000;stroke-width:0.8;" x="57.6" xlink:href="#mf66fced065" y="239.948665"/>
      </g>
     </g>
     <g id="text_12">
      <!-- 3350 -->
      <g transform="translate(25.15 243.747884)scale(0.1 -0.1)">
       <use xlink:href="#DejaVuSans-33"/>
       <use x="63.623047" xlink:href="#DejaVuSans-33"/>
       <use x="127.246094" xlink:href="#DejaVuSans-35"/>
       <use x="190.869141" xlink:href="#DejaVuSans-30"/>
      </g>
     </g>
    </g>
    <g id="ytick_4">
     <g id="line2d_12">
      <g>
       <use style="stroke:#000000;stroke-width:0.8;" x="57.6" xlink:href="#mf66fced065" y="207.688364"/>
      </g>
     </g>
     <g id="text_13">
      <!-- 3400 -->
      <defs>
       <path d="M 37.796875 64.3125 
L 12.890625 25.390625 
L 37.796875 25.390625 
z
M 35.203125 72.90625 
L 47.609375 72.90625 
L 47.609375 25.390625 
L 58.015625 25.390625 
L 58.015625 17.1875 
L 47.609375 17.1875 
L 47.609375 0 
L 37.796875 0 
L 37.796875 17.1875 
L 4.890625 17.1875 
L 4.890625 26.703125 
z
" id="DejaVuSans-34"/>
      </defs>
      <g transform="translate(25.15 211.487583)scale(0.1 -0.1)">
       <use xlink:href="#DejaVuSans-33"/>
       <use x="63.623047" xlink:href="#DejaVuSans-34"/>
       <use x="127.246094" xlink:href="#DejaVuSans-30"/>
       <use x="190.869141" xlink:href="#DejaVuSans-30"/>
      </g>
     </g>
    </g>
    <g id="ytick_5">
     <g id="line2d_13">
      <g>
       <use style="stroke:#000000;stroke-width:0.8;" x="57.6" xlink:href="#mf66fced065" y="175.428062"/>
      </g>
     </g>
     <g id="text_14">
      <!-- 3450 -->
      <g transform="translate(25.15 179.227281)scale(0.1 -0.1)">
       <use xlink:href="#DejaVuSans-33"/>
       <use x="63.623047" xlink:href="#DejaVuSans-34"/>
       <use x="127.246094" xlink:href="#DejaVuSans-35"/>
       <use x="190.869141" xlink:href="#DejaVuSans-30"/>
      </g>
     </g>
    </g>
    <g id="ytick_6">
     <g id="line2d_14">
      <g>
       <use style="stroke:#000000;stroke-width:0.8;" x="57.6" xlink:href="#mf66fced065" y="143.167761"/>
      </g>
     </g>
     <g id="text_15">
      <!-- 3500 -->
      <g transform="translate(25.15 146.96698)scale(0.1 -0.1)">
       <use xlink:href="#DejaVuSans-33"/>
       <use x="63.623047" xlink:href="#DejaVuSans-35"/>
       <use x="127.246094" xlink:href="#DejaVuSans-30"/>
       <use x="190.869141" xlink:href="#DejaVuSans-30"/>
      </g>
     </g>
    </g>
    <g id="ytick_7">
     <g id="line2d_15">
      <g>
       <use style="stroke:#000000;stroke-width:0.8;" x="57.6" xlink:href="#mf66fced065" y="110.90746"/>
      </g>
     </g>
     <g id="text_16">
      <!-- 3550 -->
      <g transform="translate(25.15 114.706678)scale(0.1 -0.1)">
       <use xlink:href="#DejaVuSans-33"/>
       <use x="63.623047" xlink:href="#DejaVuSans-35"/>
       <use x="127.246094" xlink:href="#DejaVuSans-35"/>
       <use x="190.869141" xlink:href="#DejaVuSans-30"/>
      </g>
     </g>
    </g>
    <g id="ytick_8">
     <g id="line2d_16">
      <g>
       <use style="stroke:#000000;stroke-width:0.8;" x="57.6" xlink:href="#mf66fced065" y="78.647158"/>
      </g>
     </g>
     <g id="text_17">
      <!-- 3600 -->
      <defs>
       <path d="M 33.015625 40.375 
Q 26.375 40.375 22.484375 35.828125 
Q 18.609375 31.296875 18.609375 23.390625 
Q 18.609375 15.53125 22.484375 10.953125 
Q 26.375 6.390625 33.015625 6.390625 
Q 39.65625 6.390625 43.53125 10.953125 
Q 47.40625 15.53125 47.40625 23.390625 
Q 47.40625 31.296875 43.53125 35.828125 
Q 39.65625 40.375 33.015625 40.375 
z
M 52.59375 71.296875 
L 52.59375 62.3125 
Q 48.875 64.0625 45.09375 64.984375 
Q 41.3125 65.921875 37.59375 65.921875 
Q 27.828125 65.921875 22.671875 59.328125 
Q 17.53125 52.734375 16.796875 39.40625 
Q 19.671875 43.65625 24.015625 45.921875 
Q 28.375 48.1875 33.59375 48.1875 
Q 44.578125 48.1875 50.953125 41.515625 
Q 57.328125 34.859375 57.328125 23.390625 
Q 57.328125 12.15625 50.6875 5.359375 
Q 44.046875 -1.421875 33.015625 -1.421875 
Q 20.359375 -1.421875 13.671875 8.265625 
Q 6.984375 17.96875 6.984375 36.375 
Q 6.984375 53.65625 15.1875 63.9375 
Q 23.390625 74.21875 37.203125 74.21875 
Q 40.921875 74.21875 44.703125 73.484375 
Q 48.484375 72.75 52.59375 71.296875 
z
" id="DejaVuSans-36"/>
      </defs>
      <g transform="translate(25.15 82.446377)scale(0.1 -0.1)">
       <use xlink:href="#DejaVuSans-33"/>
       <use x="63.623047" xlink:href="#DejaVuSans-36"/>
       <use x="127.246094" xlink:href="#DejaVuSans-30"/>
       <use x="190.869141" xlink:href="#DejaVuSans-30"/>
      </g>
     </g>
    </g>
    <g id="ytick_9">
     <g id="line2d_17">
      <g>
       <use style="stroke:#000000;stroke-width:0.8;" x="57.6" xlink:href="#mf66fced065" y="46.386857"/>
      </g>
     </g>
     <g id="text_18">
      <!-- 3650 -->
      <g transform="translate(25.15 50.186076)scale(0.1 -0.1)">
       <use xlink:href="#DejaVuSans-33"/>
       <use x="63.623047" xlink:href="#DejaVuSans-36"/>
       <use x="127.246094" xlink:href="#DejaVuSans-35"/>
       <use x="190.869141" xlink:href="#DejaVuSans-30"/>
      </g>
     </g>
    </g>
    <g id="text_19">
     <!-- Current (nA) -->
     <defs>
      <path d="M 64.40625 67.28125 
L 64.40625 56.890625 
Q 59.421875 61.53125 53.78125 63.8125 
Q 48.140625 66.109375 41.796875 66.109375 
Q 29.296875 66.109375 22.65625 58.46875 
Q 16.015625 50.828125 16.015625 36.375 
Q 16.015625 21.96875 22.65625 14.328125 
Q 29.296875 6.6875 41.796875 6.6875 
Q 48.140625 6.6875 53.78125 8.984375 
Q 59.421875 11.28125 64.40625 15.921875 
L 64.40625 5.609375 
Q 59.234375 2.09375 53.4375 0.328125 
Q 47.65625 -1.421875 41.21875 -1.421875 
Q 24.65625 -1.421875 15.125 8.703125 
Q 5.609375 18.84375 5.609375 36.375 
Q 5.609375 53.953125 15.125 64.078125 
Q 24.65625 74.21875 41.21875 74.21875 
Q 47.75 74.21875 53.53125 72.484375 
Q 59.328125 70.75 64.40625 67.28125 
z
" id="DejaVuSans-43"/>
      <path d="M 8.5 21.578125 
L 8.5 54.6875 
L 17.484375 54.6875 
L 17.484375 21.921875 
Q 17.484375 14.15625 20.5 10.265625 
Q 23.53125 6.390625 29.59375 6.390625 
Q 36.859375 6.390625 41.078125 11.03125 
Q 45.3125 15.671875 45.3125 23.6875 
L 45.3125 54.6875 
L 54.296875 54.6875 
L 54.296875 0 
L 45.3125 0 
L 45.3125 8.40625 
Q 42.046875 3.421875 37.71875 1 
Q 33.40625 -1.421875 27.6875 -1.421875 
Q 18.265625 -1.421875 13.375 4.4375 
Q 8.5 10.296875 8.5 21.578125 
z
M 31.109375 56 
z
" id="DejaVuSans-75"/>
      <path d="M 41.109375 46.296875 
Q 39.59375 47.171875 37.8125 47.578125 
Q 36.03125 48 33.890625 48 
Q 26.265625 48 22.1875 43.046875 
Q 18.109375 38.09375 18.109375 28.8125 
L 18.109375 0 
L 9.078125 0 
L 9.078125 54.6875 
L 18.109375 54.6875 
L 18.109375 46.1875 
Q 20.953125 51.171875 25.484375 53.578125 
Q 30.03125 56 36.53125 56 
Q 37.453125 56 38.578125 55.875 
Q 39.703125 55.765625 41.0625 55.515625 
z
" id="DejaVuSans-72"/>
      <path d="M 56.203125 29.59375 
L 56.203125 25.203125 
L 14.890625 25.203125 
Q 15.484375 15.921875 20.484375 11.0625 
Q 25.484375 6.203125 34.421875 6.203125 
Q 39.59375 6.203125 44.453125 7.46875 
Q 49.3125 8.734375 54.109375 11.28125 
L 54.109375 2.78125 
Q 49.265625 0.734375 44.1875 -0.34375 
Q 39.109375 -1.421875 33.890625 -1.421875 
Q 20.796875 -1.421875 13.15625 6.1875 
Q 5.515625 13.8125 5.515625 26.8125 
Q 5.515625 40.234375 12.765625 48.109375 
Q 20.015625 56 32.328125 56 
Q 43.359375 56 49.78125 48.890625 
Q 56.203125 41.796875 56.203125 29.59375 
z
M 47.21875 32.234375 
Q 47.125 39.59375 43.09375 43.984375 
Q 39.0625 48.390625 32.421875 48.390625 
Q 24.90625 48.390625 20.390625 44.140625 
Q 15.875 39.890625 15.1875 32.171875 
z
" id="DejaVuSans-65"/>
      <path d="M 54.890625 33.015625 
L 54.890625 0 
L 45.90625 0 
L 45.90625 32.71875 
Q 45.90625 40.484375 42.875 44.328125 
Q 39.84375 48.1875 33.796875 48.1875 
Q 26.515625 48.1875 22.3125 43.546875 
Q 18.109375 38.921875 18.109375 30.90625 
L 18.109375 0 
L 9.078125 0 
L 9.078125 54.6875 
L 18.109375 54.6875 
L 18.109375 46.1875 
Q 21.34375 51.125 25.703125 53.5625 
Q 30.078125 56 35.796875 56 
Q 45.21875 56 50.046875 50.171875 
Q 54.890625 44.34375 54.890625 33.015625 
z
" id="DejaVuSans-6e"/>
      <path id="DejaVuSans-20"/>
      <path d="M 34.1875 63.1875 
L 20.796875 26.90625 
L 47.609375 26.90625 
z
M 28.609375 72.90625 
L 39.796875 72.90625 
L 67.578125 0 
L 57.328125 0 
L 50.6875 18.703125 
L 17.828125 18.703125 
L 11.1875 0 
L 0.78125 0 
z
" id="DejaVuSans-41"/>
     </defs>
     <g transform="translate(19.070312 205.581906)rotate(-90)scale(0.1 -0.1)">
      <use xlink:href="#DejaVuSans-43"/>
      <use x="69.824219" xlink:href="#DejaVuSans-75"/>
      <use x="133.203125" xlink:href="#DejaVuSans-72"/>
      <use x="174.300781" xlink:href="#DejaVuSans-72"/>
      <use x="215.382812" xlink:href="#DejaVuSans-65"/>
      <use x="276.90625" xlink:href="#DejaVuSans-6e"/>
      <use x="340.285156" xlink:href="#DejaVuSans-74"/>
      <use x="379.494141" xlink:href="#DejaVuSans-20"/>
      <use x="411.28125" xlink:href="#DejaVuSans-28"/>
      <use x="450.294922" xlink:href="#DejaVuSans-6e"/>
      <use x="513.673828" xlink:href="#DejaVuSans-41"/>
      <use x="582.082031" xlink:href="#DejaVuSans-29"/>
     </g>
    </g>
   </g>
   <g id="line2d_18">
    <path clip-path="url(#p6a202ac785)" d="M 73.832727 277.738382 
L 73.922982 284.861457 
L 74.013237 277.318998 
L 74.193837 283.9001 
L 74.464783 292.797491 
L 74.555037 288.016514 
L 74.735547 294.649232 
L 74.825802 295.488 
L 74.916057 294.300821 
L 75.006312 294.468574 
L 75.096567 293.57819 
L 75.186912 293.997574 
L 75.367422 288.758501 
L 75.457677 290.990914 
L 75.728442 281.693495 
L 75.818697 282.83551 
L 75.908952 279.428822 
L 75.999206 280.241782 
L 76.179716 273.91231 
L 76.269971 280.596645 
L 76.360226 267.479606 
L 76.630991 276.525395 
L 76.811501 273.028378 
L 76.901756 274.5059 
L 76.992011 269.828156 
L 77.082266 274.041352 
L 77.172521 266.8344 
L 77.35303 275.686627 
L 77.623795 264.227768 
L 77.71405 267.479606 
L 77.89456 266.273071 
L 77.984815 261.1953 
L 78.07507 263.485781 
L 78.165325 262.963164 
L 78.25558 261.111423 
L 78.345835 263.530945 
L 78.436089 263.034137 
L 78.526344 263.13737 
L 78.797109 259.259682 
L 78.887364 264.324549 
L 78.977619 259.711326 
L 79.158129 265.711742 
L 79.248384 262.466356 
L 79.338639 266.066605 
L 79.699658 256.401419 
L 79.880168 257.749899 
L 79.970423 257.207926 
L 80.060678 261.356601 
L 80.241188 252.452758 
L 80.331443 254.717431 
L 80.511953 250.29777 
L 80.602208 251.084921 
L 80.782717 248.297631 
L 81.053482 253.278622 
L 81.143737 251.723675 
L 81.414502 271.796035 
L 81.504757 273.105803 
L 81.595012 270.337869 
L 81.685267 270.628212 
L 81.775522 270.066883 
L 81.865777 273.699392 
L 81.956032 288.577843 
L 82.046286 274.815599 
L 82.226796 291.236092 
L 82.678071 263.285767 
L 82.768326 263.156726 
L 82.858581 265.885947 
L 83.039091 283.596853 
L 83.129346 264.04711 
L 83.309855 287.177746 
L 83.58062 280.532124 
L 83.94164 290.3199 
L 84.031895 287.551966 
L 84.12215 289.565009 
L 84.30266 277.744834 
L 84.392914 280.55148 
L 84.663679 269.441033 
L 84.753934 268.74421 
L 84.844189 269.311991 
L 84.934444 269.170046 
L 85.024699 266.55051 
L 85.114954 269.086169 
L 85.205209 265.647221 
L 85.295464 271.370199 
L 85.385719 270.170115 
L 85.566228 268.724854 
L 85.746738 262.853479 
L 86.107758 254.439993 
L 86.198013 258.633832 
L 86.378523 250.11066 
L 86.468778 249.542879 
L 86.649288 247.045931 
L 86.739543 248.426672 
L 86.829797 246.458794 
L 86.920052 248.058905 
L 87.010307 245.561958 
L 87.100562 249.491262 
L 87.190817 245.284519 
L 87.371327 249.67192 
L 87.461582 265.434303 
L 87.551837 246.549123 
L 87.732347 263.16963 
L 87.822602 263.337384 
L 88.003111 266.305331 
L 88.093366 264.537467 
L 88.183621 264.950399 
L 88.273876 250.897811 
L 88.364131 251.310743 
L 88.544641 261.214656 
L 88.634896 259.156449 
L 88.725151 269.11843 
L 89.356935 248.839604 
L 89.44719 250.117112 
L 89.6277 244.277998 
L 89.717955 247.684685 
L 89.98872 243.787641 
L 90.078975 241.322954 
L 90.259485 243.774737 
L 90.34974 241.432639 
L 90.439994 241.451995 
L 90.620504 249.510618 
L 90.710759 247.716946 
L 90.801014 241.916544 
L 90.981524 247.336274 
L 91.071779 246.523315 
L 91.523054 264.647152 
L 91.703563 260.4146 
L 91.793818 263.20189 
L 91.884073 261.214656 
L 91.974328 261.517903 
L 92.154838 266.227907 
L 92.335348 267.092483 
L 92.425603 271.370199 
L 92.515858 270.312061 
L 92.696368 276.402806 
L 92.786622 275.809216 
L 92.876877 273.744557 
L 93.147642 277.970656 
L 93.237897 279.706261 
L 93.328152 278.060985 
L 93.418407 278.977178 
L 93.508662 284.3711 
L 93.689172 275.596298 
L 93.779427 280.667618 
L 93.959936 277.228669 
L 94.050191 278.17067 
L 94.140446 275.38338 
L 94.411211 283.08714 
L 94.591721 277.76419 
L 94.681976 281.506385 
L 94.772231 273.944571 
L 94.952741 283.661374 
L 95.042996 279.183644 
L 95.133251 285.706677 
L 95.31376 278.822328 
L 95.404015 282.61614 
L 95.67478 277.338354 
L 95.765035 278.196478 
L 95.85529 276.835094 
L 96.126055 268.628073 
L 96.21631 269.099073 
L 96.306565 266.189194 
L 96.396819 266.840852 
L 96.577329 259.259682 
L 96.667584 255.130363 
L 96.757839 258.724161 
L 96.848094 258.414462 
L 97.118859 261.711464 
L 97.209114 255.181979 
L 97.389624 258.420914 
L 97.479879 255.375541 
L 97.570133 258.717708 
L 97.750643 254.156102 
L 97.931153 260.375888 
L 98.111663 255.49813 
L 98.201918 250.020331 
L 98.292173 252.162415 
L 98.382428 248.962193 
L 98.472683 253.5238 
L 98.562938 248.239563 
L 98.653193 248.252467 
L 98.743447 248.20085 
L 98.833702 247.878247 
L 98.923957 257.866037 
L 99.014212 250.29777 
L 99.194722 260.646875 
L 99.375232 254.498061 
L 99.465487 253.814143 
L 99.555742 254.323855 
L 99.645997 256.78209 
L 99.736252 251.878525 
L 100.007016 269.505553 
L 100.097271 268.331278 
L 100.187526 274.305886 
L 100.277781 271.144377 
L 100.458291 283.925908 
L 100.548546 277.899684 
L 100.638801 278.422301 
L 100.729056 275.022065 
L 100.819311 281.274111 
L 100.909566 275.41564 
L 100.999821 275.609202 
L 101.18033 275.815668 
L 101.270585 271.215349 
L 101.36084 274.467188 
L 101.631605 267.292497 
L 101.72186 271.054048 
L 101.992625 258.859654 
L 102.08288 264.092275 
L 102.353644 255.375541 
L 102.443899 258.020886 
L 102.534154 255.207788 
L 102.714664 260.982382 
L 102.895174 252.375333 
L 102.985429 254.80776 
L 103.075684 253.020539 
L 103.346449 236.264539 
L 103.436704 240.413213 
L 103.526959 239.529281 
L 103.617213 232.064247 
L 103.707468 240.226104 
L 103.797723 239.490569 
L 103.887978 236.374224 
L 103.978233 244.09734 
L 104.068488 239.845432 
L 104.158743 241.258433 
L 104.248998 241.116488 
L 104.339253 234.535387 
L 104.429508 234.67088 
L 104.610018 240.568063 
L 104.700273 236.845224 
L 104.790527 237.464622 
L 104.880782 239.451857 
L 105.061292 233.883728 
L 105.151547 239.000212 
L 105.241802 238.903431 
L 105.332057 234.057934 
L 105.512567 237.20654 
L 105.602822 237.477526 
L 105.693077 238.955048 
L 105.873587 237.413005 
L 105.963841 238.755034 
L 106.144351 232.212645 
L 106.234606 237.819485 
L 106.415116 226.199325 
L 106.595626 233.219166 
L 106.685881 236.225826 
L 106.956646 257.098241 
L 107.046901 253.77543 
L 107.137155 257.691831 
L 107.40792 252.317265 
L 107.76894 265.569797 
L 107.859195 262.634109 
L 108.039705 263.647083 
L 108.220215 267.905442 
L 108.400724 262.434095 
L 108.490979 265.240741 
L 108.761744 261.892122 
L 108.851999 261.795341 
L 108.942254 259.588737 
L 109.122764 261.150135 
L 109.213019 256.014295 
L 109.303274 259.304846 
L 109.483784 248.839604 
L 109.664293 256.188501 
L 109.754548 251.039757 
L 109.844803 253.485088 
L 110.025313 249.42029 
L 110.115568 246.91689 
L 110.205823 238.535664 
L 110.296078 240.851954 
L 110.386333 232.477179 
L 110.476588 233.548221 
L 110.566843 227.722011 
L 110.837607 237.703348 
L 110.927862 235.025743 
L 111.018117 240.490638 
L 111.108372 232.090056 
L 111.288882 240.045446 
L 111.379137 235.683853 
L 111.559647 240.742269 
L 111.649902 240.768077 
L 111.740157 238.245321 
L 111.830412 238.580828 
L 111.920667 239.709939 
L 112.101176 235.748374 
L 112.191431 246.278136 
L 112.281686 244.478011 
L 112.462196 245.703903 
L 112.552451 243.858614 
L 112.642706 250.020331 
L 112.732961 247.497576 
L 112.823216 247.79437 
L 112.913471 247.69759 
L 113.003726 252.607607 
L 113.093981 248.323439 
L 113.184235 249.768701 
L 113.27449 253.588321 
L 113.364745 252.168867 
L 113.725765 265.827879 
L 113.906275 270.563691 
L 113.99653 263.595466 
L 114.086785 266.279523 
L 114.17704 263.995494 
L 114.267295 258.414462 
L 114.357549 261.846958 
L 114.447804 261.085615 
L 114.538059 257.265995 
L 114.628314 260.679135 
L 114.808824 249.755797 
L 114.989334 250.807483 
L 115.169844 248.446029 
L 115.260099 246.974959 
L 115.350354 247.181425 
L 115.621118 222.579719 
L 115.801628 228.805957 
L 115.891883 230.322191 
L 115.982138 235.458031 
L 116.072393 235.174141 
L 116.162648 239.026021 
L 116.252903 236.212922 
L 116.343158 240.864858 
L 116.433413 238.671157 
L 116.613923 250.781674 
L 116.704178 240.884214 
L 116.794432 249.994523 
L 116.884687 245.078053 
L 116.974942 251.123634 
L 117.155452 246.607191 
L 117.245707 250.207441 
L 117.335962 244.497368 
L 117.426217 247.942768 
L 117.516472 243.226312 
L 117.606727 246.058766 
L 117.696982 245.774876 
L 117.787237 240.013186 
L 117.877492 241.400379 
L 117.967746 240.561611 
L 118.058001 247.07174 
L 118.238511 239.709939 
L 118.328766 239.509925 
L 118.419021 238.632445 
L 118.509276 240.516446 
L 118.599531 246.129739 
L 118.870296 236.109689 
L 118.960551 236.445196 
L 119.050806 235.980648 
L 119.14106 242.245599 
L 119.32157 237.64528 
L 119.411825 243.135983 
L 119.50208 243.097271 
L 119.68259 245.503889 
L 119.8631 242.890805 
L 119.953355 241.684269 
L 120.22412 244.639313 
L 120.314374 256.846611 
L 120.404629 255.7175 
L 120.494884 253.343142 
L 120.585139 243.87797 
L 120.675394 248.20085 
L 120.765649 248.129878 
L 120.855904 250.962332 
L 120.946159 248.323439 
L 121.036414 249.852578 
L 121.216924 241.322954 
L 121.397434 232.464275 
L 121.487689 226.315462 
L 121.577943 227.825244 
L 121.668198 226.960668 
L 121.758453 227.818792 
L 121.938963 223.012007 
L 122.029218 224.457268 
L 122.119473 222.831349 
L 122.209728 223.166856 
L 122.480493 227.780079 
L 122.570748 225.121831 
L 122.661003 226.547736 
L 122.841512 232.251357 
L 122.931767 234.419249 
L 123.022022 233.780496 
L 123.112277 235.709662 
L 123.202532 233.432084 
L 123.292787 227.915573 
L 123.473297 234.490222 
L 123.563552 234.580551 
L 123.744062 238.000143 
L 124.014826 241.684269 
L 124.105081 238.33565 
L 124.195336 240.755173 
L 124.285591 237.86465 
L 124.375846 241.27779 
L 124.466101 239.780912 
L 124.646611 245.452273 
L 124.736866 240.626131 
L 125.097886 261.085615 
L 125.18814 257.246639 
L 125.278395 259.369367 
L 125.36865 256.794995 
L 125.54916 264.085823 
L 125.639415 262.614753 
L 125.72967 263.82774 
L 125.819925 260.033929 
L 125.91018 260.769464 
L 126.09069 262.563136 
L 126.180945 260.85334 
L 126.2712 262.640561 
L 126.361454 261.208204 
L 126.541964 250.220345 
L 126.632219 259.859723 
L 126.722474 258.517695 
L 126.902984 252.878594 
L 126.993239 254.052869 
L 127.083494 253.943184 
L 127.173749 253.543156 
L 127.264004 254.685171 
L 127.534768 247.91696 
L 127.625023 251.936593 
L 127.805533 239.929309 
L 127.895788 241.251981 
L 127.986043 240.503542 
L 128.076298 245.168382 
L 128.256808 237.103307 
L 128.437318 244.878039 
L 129.159357 216.314768 
L 129.249612 213.437149 
L 129.339867 215.295343 
L 129.430122 220.10858 
L 129.520377 217.314838 
L 129.610632 219.48273 
L 129.791142 225.373461 
L 129.881397 224.160474 
L 129.971651 227.780079 
L 130.061906 226.96712 
L 130.332671 235.832251 
L 130.422926 234.257948 
L 130.603436 238.696965 
L 130.783946 237.006526 
L 130.874201 232.012631 
L 130.964456 245.723259 
L 131.054711 242.264955 
L 131.23522 250.291318 
L 131.325475 253.259266 
L 131.41573 252.549539 
L 131.505985 254.594842 
L 131.59624 253.130224 
L 131.77675 256.601433 
L 132.047515 252.543087 
L 132.13777 251.61399 
L 132.228025 254.285143 
L 132.408534 250.95588 
L 132.498789 253.665745 
L 132.589044 249.23318 
L 132.679299 253.168937 
L 132.859809 246.633 
L 132.950064 246.749137 
L 133.040319 249.594495 
L 133.130574 244.75545 
L 133.311084 249.600947 
L 133.491593 240.697104 
L 133.581848 241.103584 
L 133.672103 243.903778 
L 133.762358 235.245113 
L 133.852613 237.174279 
L 133.942868 237.890458 
L 134.033123 236.387128 
L 134.123378 238.942144 
L 134.213633 235.335442 
L 134.303888 241.316502 
L 134.664908 218.302003 
L 135.025927 214.288821 
L 135.116182 217.218057 
L 135.206437 214.263013 
L 135.296692 221.728047 
L 135.386947 220.940896 
L 135.657712 227.851052 
L 135.747967 227.173586 
L 136.108986 237.329129 
L 136.289496 233.870824 
L 136.379751 234.257948 
L 136.560261 247.020123 
L 136.650516 246.903986 
L 136.740771 255.001322 
L 136.831026 253.672197 
L 137.011536 252.155963 
L 137.10179 249.536427 
L 137.192045 242.471421 
L 137.2823 242.832736 
L 137.372555 241.645557 
L 137.46281 248.252467 
L 137.82383 230.180246 
L 137.914085 237.703348 
L 138.00434 237.690444 
L 138.455614 225.702516 
L 138.545869 228.43819 
L 138.726379 217.579372 
L 138.816634 219.676292 
L 138.906889 219.26336 
L 138.997144 217.560016 
L 139.087399 209.565913 
L 139.177654 211.178928 
L 139.267909 215.553425 
L 139.358164 209.753023 
L 139.538673 217.082564 
L 139.719183 212.282231 
L 139.989948 221.224786 
L 140.080203 221.39254 
L 140.260713 227.992997 
L 140.350968 228.393025 
L 140.621733 219.392401 
L 140.711987 216.856741 
L 140.802242 219.360141 
L 140.892497 232.238453 
L 140.982752 219.663388 
L 141.073007 231.793261 
L 141.163262 228.683368 
L 141.253517 232.599769 
L 141.343772 231.057726 
L 141.434027 234.432154 
L 141.524282 230.509301 
L 141.704792 234.309564 
L 141.885301 242.710147 
L 141.975556 242.516585 
L 142.065811 241.787502 
L 142.156066 242.774668 
L 142.246321 247.704042 
L 142.336576 246.394273 
L 142.426831 249.904194 
L 142.517086 247.768562 
L 142.607341 248.194398 
L 142.697596 249.717084 
L 142.787851 248.38796 
L 142.878106 251.601086 
L 142.968361 249.562235 
L 143.14887 253.485088 
L 143.239125 253.388307 
L 143.32938 248.813796 
L 143.419635 251.007496 
L 143.600145 246.781397 
L 143.6904 254.956157 
L 144.05142 244.78771 
L 144.322184 251.065565 
L 144.412439 248.63959 
L 144.502694 250.155825 
L 144.683204 245.542601 
L 144.863714 242.34238 
L 145.224734 223.528172 
L 145.314989 231.825521 
L 145.495498 228.534971 
L 145.585753 230.354452 
L 145.676008 234.522482 
L 145.766263 211.482175 
L 145.856518 215.243726 
L 145.946773 230.128629 
L 146.037028 218.289099 
L 146.217538 234.851538 
L 146.307883 230.941589 
L 146.398138 235.232209 
L 146.488393 233.483701 
L 146.578648 216.669632 
L 146.759248 241.858475 
L 146.849503 213.011314 
L 146.939758 250.426811 
L 147.120358 215.895384 
L 147.210613 216.198631 
L 147.300868 211.204737 
L 147.391123 215.430836 
L 147.481378 211.017627 
L 147.571633 217.018043 
L 147.661887 208.494871 
L 147.752142 211.249901 
L 147.842397 211.114408 
L 148.113162 203.133209 
L 148.383927 211.514436 
L 148.474182 210.927298 
L 148.564437 212.456436 
L 148.654692 210.591791 
L 148.744947 205.855979 
L 148.835201 208.101296 
L 149.015711 217.598728 
L 149.105966 217.037399 
L 149.196221 217.869715 
L 149.286476 214.927575 
L 149.376731 219.998895 
L 149.466986 216.379289 
L 149.737751 228.451094 
L 149.828006 227.767175 
L 149.918261 229.470519 
L 150.008515 227.528449 
L 150.09877 229.593108 
L 150.189025 227.057449 
L 150.27928 215.546973 
L 150.45979 229.496328 
L 150.550045 231.786809 
L 150.730555 224.050789 
L 150.82081 227.767175 
L 150.911065 219.114963 
L 151.091575 226.663873 
L 151.18183 226.554188 
L 151.272084 230.63189 
L 151.362339 247.549192 
L 151.452594 231.044822 
L 151.633104 254.498061 
L 152.084379 239.703487 
L 152.174634 242.387544 
L 152.264889 229.012423 
L 152.355144 229.657629 
L 152.445489 228.199463 
L 152.535744 230.347999 
L 152.625999 224.379844 
L 152.716253 227.40586 
L 152.806508 227.360696 
L 152.896763 228.547875 
L 152.987018 232.993344 
L 153.077273 232.773974 
L 153.167528 234.109551 
L 153.528548 227.43812 
L 153.618803 221.657074 
L 153.889567 228.257532 
L 153.979822 228.115587 
L 154.160332 221.573197 
L 154.250587 223.070075 
L 154.431097 221.295759 
L 154.611607 223.341062 
L 154.972627 205.875335 
L 155.062882 207.443185 
L 155.333646 200.462056 
L 155.423901 199.945891 
L 155.514156 205.1398 
L 155.604411 203.978429 
L 155.694666 200.403988 
L 155.784921 200.810468 
L 155.965431 205.236581 
L 156.145941 206.404404 
L 156.236196 206.004376 
L 156.50696 213.082286 
L 156.597215 204.73332 
L 156.68747 214.295274 
L 156.777725 210.127243 
L 156.86798 210.24338 
L 156.958235 215.03726 
L 157.04849 208.30131 
L 157.229 218.566537 
L 157.40951 221.895801 
L 157.499764 219.469826 
L 157.590019 223.708829 
L 157.770529 215.22437 
L 157.951039 228.244628 
L 158.041294 229.018875 
L 158.131549 241.684269 
L 158.221804 241.387475 
L 158.312059 240.65194 
L 158.402314 245.426464 
L 158.492569 242.135914 
L 158.582824 242.897257 
L 158.763333 239.380884 
L 158.853588 241.381023 
L 159.124353 231.928754 
L 159.214608 237.806581 
L 159.304863 236.980717 
L 159.485373 226.954216 
L 159.575628 227.050997 
L 159.665883 224.295967 
L 159.756138 225.083118 
L 159.846393 222.450678 
L 159.936647 228.554327 
L 160.026902 227.767175 
L 160.207412 225.121831 
L 160.297667 225.721872 
L 160.387922 223.908843 
L 160.568432 212.417724 
L 160.658687 213.50167 
L 160.929452 207.191555 
L 161.019707 208.643269 
L 161.109961 199.545864 
L 161.200216 202.049263 
L 161.290471 201.636331 
L 161.380726 200.236234 
L 161.651491 206.468924 
L 161.832001 202.455743 
L 162.012511 205.075279 
L 162.102856 204.07521 
L 162.373621 199.868467 
L 162.554131 204.017141 
L 162.644385 203.810676 
L 162.73464 201.855701 
L 162.91515 203.584853 
L 163.005405 202.152496 
L 163.09566 202.771894 
L 163.185915 204.255868 
L 163.27617 200.533029 
L 163.366425 201.216947 
L 163.546935 202.526716 
L 163.63719 198.326424 
L 163.727445 207.572227 
L 163.817699 202.275085 
L 163.998209 206.326979 
L 164.178719 201.558907 
L 164.268974 202.558976 
L 164.359229 210.327256 
L 164.449484 204.617183 
L 164.629994 213.508122 
L 164.720249 205.39143 
L 164.810504 207.107678 
L 164.900759 206.010828 
L 165.081268 217.13418 
L 165.171523 217.147084 
L 165.442288 220.837663 
L 165.532543 220.482799 
L 165.622798 214.592068 
L 166.074073 222.74102 
L 166.164328 221.566745 
L 166.254582 217.611632 
L 166.344837 222.70876 
L 166.435092 213.359725 
L 166.615602 220.218265 
L 166.705857 216.179275 
L 166.796112 219.005278 
L 166.886367 218.392332 
L 166.976622 217.72777 
L 167.066877 220.166648 
L 167.337642 213.553287 
L 167.427896 215.346959 
L 167.608406 222.844253 
L 167.698661 218.811716 
L 167.788916 223.889487 
L 167.969426 216.063138 
L 168.149936 220.947348 
L 168.240191 219.695648 
L 168.420701 212.8113 
L 168.60121 217.514852 
L 168.691465 216.501878 
L 168.78172 216.992235 
L 168.871975 213.843629 
L 168.96223 218.973017 
L 169.052485 218.185866 
L 169.14274 220.39247 
L 169.32325 212.153189 
L 169.413505 216.159919 
L 169.594015 210.456298 
L 169.774525 218.689127 
L 169.955034 212.166094 
L 170.045289 215.063069 
L 170.225799 209.352995 
L 170.316054 211.695093 
L 170.406309 208.088392 
L 170.496564 208.159364 
L 170.586819 207.73998 
L 170.677074 205.262389 
L 170.767329 207.591583 
L 170.857584 231.599699 
L 170.947839 200.733043 
L 171.038093 202.713825 
L 171.128348 208.017419 
L 171.308858 206.055993 
L 171.399113 205.804362 
L 171.489368 201.939578 
L 171.579623 206.649582 
L 171.850388 200.526577 
L 171.940643 203.455812 
L 172.121153 197.771547 
L 172.211407 203.455812 
L 172.301662 202.558976 
L 172.572427 200.494317 
L 172.662682 203.126757 
L 172.752937 197.390876 
L 172.933447 199.965248 
L 173.023702 198.287712 
L 173.204212 205.83017 
L 173.294467 204.843005 
L 173.474976 198.75226 
L 173.655486 202.533168 
L 173.745741 199.926535 
L 173.835996 202.249277 
L 173.926251 198.249 
L 174.016506 199.791042 
L 174.106761 196.835998 
L 174.197016 201.236304 
L 174.287271 199.487795 
L 174.377526 203.404196 
L 174.467781 201.158879 
L 174.558036 202.713825 
L 174.64829 201.675044 
L 174.738545 203.842936 
L 174.8288 198.397397 
L 174.919055 200.145905 
L 175.099565 195.313312 
L 175.18982 197.190862 
L 175.280075 193.106708 
L 175.37033 195.11975 
L 175.460585 193.409954 
L 175.55084 193.777722 
L 175.73135 195.2746 
L 175.821604 187.461155 
L 175.911859 189.280636 
L 176.002114 188.577361 
L 176.092369 196.18434 
L 176.182624 193.100256 
L 176.272879 197.145697 
L 176.453389 194.035804 
L 176.543644 194.926189 
L 176.633899 202.713825 
L 176.814409 194.739079 
L 176.904664 203.19773 
L 177.085173 196.971492 
L 177.265683 204.352649 
L 177.355938 199.520055 
L 177.446193 203.662278 
L 177.536448 201.91377 
L 177.807213 207.578679 
L 177.897468 201.939578 
L 177.987723 202.888031 
L 178.077978 205.055923 
L 178.168232 201.055646 
L 178.258487 204.849457 
L 178.348742 203.862292 
L 178.438997 204.73332 
L 178.529252 201.494386 
L 178.619507 204.713964 
L 178.709762 203.913909 
L 178.800017 206.843144 
L 179.161037 198.836137 
L 179.251292 201.72666 
L 179.522056 194.906832 
L 179.612311 195.693984 
L 179.792821 186.241715 
L 179.973331 197.984465 
L 180.063586 192.874433 
L 180.153841 193.526091 
L 180.244096 195.190723 
L 180.334351 194.90038 
L 180.424606 194.622942 
L 180.605115 192.429241 
L 180.785625 196.635985 
L 180.966135 190.093595 
L 181.05639 196.700505 
L 181.146645 196.177888 
L 181.2369 196.9973 
L 181.327155 195.726244 
L 181.41741 197.758643 
L 181.507665 197.384424 
L 181.59792 196.255313 
L 181.688175 199.481343 
L 181.778429 196.539204 
L 181.868775 200.062029 
L 181.95903 197.758643 
L 182.049285 202.223469 
L 182.139539 202.210565 
L 182.229794 199.513603 
L 182.320049 202.862223 
L 182.500559 196.248861 
L 182.590814 197.81026 
L 182.771324 194.751983 
L 182.861579 195.010065 
L 182.951834 193.77127 
L 183.042089 197.597342 
L 183.222599 192.906694 
L 183.312853 194.287435 
L 183.493454 188.82254 
L 183.583708 192.003405 
L 183.764218 184.202864 
L 183.854473 186.086866 
L 184.034983 181.002642 
L 184.125238 186.403017 
L 184.215493 183.318932 
L 184.305748 184.931947 
L 184.486258 188.609622 
L 184.576513 187.745045 
L 184.666768 185.119057 
L 184.757022 187.138552 
L 184.847277 180.067094 
L 185.027787 184.570632 
L 185.118132 187.345018 
L 185.298642 185.602961 
L 185.388897 215.998617 
L 185.479152 184.738385 
L 185.659662 220.786046 
L 185.749917 226.921955 
L 185.840172 225.012146 
L 185.930427 220.637649 
L 186.020682 222.96039 
L 186.110937 220.289237 
L 186.201192 224.683091 
L 186.381701 221.934513 
L 186.471956 222.992651 
L 186.562211 220.315046 
L 186.742721 222.850705 
L 186.923231 213.669424 
L 187.103741 219.508538 
L 187.193996 212.727423 
L 187.284251 213.211327 
L 187.374506 214.475931 
L 187.555015 210.74664 
L 187.64527 214.172684 
L 187.735525 213.882342 
L 187.916035 209.830448 
L 188.187071 220.044059 
L 188.277416 215.617946 
L 188.367671 221.024772 
L 188.457926 220.689265 
L 188.548181 223.328158 
L 188.638436 213.114546 
L 188.72869 216.630919 
L 188.9092 208.449707 
L 188.999455 209.86916 
L 189.179965 208.385186 
L 189.27022 213.308108 
L 189.45073 209.378804 
L 189.540985 210.043366 
L 189.63124 203.965525 
L 189.721495 210.449846 
L 189.902004 202.597688 
L 190.082695 205.726937 
L 190.263385 217.643893 
L 190.443895 209.862708 
L 190.804915 203.107401 
L 190.985425 199.178096 
L 191.165934 196.926327 
L 191.256189 203.210634 
L 191.346444 202.468647 
L 191.436699 196.855355 
L 191.526954 197.726383 
L 191.617209 199.236165 
L 191.797719 191.984049 
L 191.887974 191.932433 
L 191.978229 190.538788 
L 192.249174 200.823372 
L 192.610194 182.776959 
L 192.700449 183.557658 
L 192.790704 186.706264 
L 193.061468 178.718613 
L 193.151723 181.628492 
L 193.332233 179.950957 
L 193.512833 183.951234 
L 193.783598 188.596717 
L 193.873853 186.499798 
L 194.054363 191.816296 
L 194.144618 191.448528 
L 194.234873 192.70668 
L 194.325128 191.538857 
L 194.505637 198.655479 
L 194.595892 196.84245 
L 194.686147 198.623219 
L 194.776402 197.913492 
L 194.866657 199.152288 
L 194.956912 195.719792 
L 195.047257 195.764956 
L 195.318022 195.752052 
L 195.408277 191.584021 
L 196.040061 219.173031 
L 196.220571 213.87589 
L 196.310826 216.185727 
L 196.401081 215.792151 
L 196.581591 211.830586 
L 196.852356 215.811508 
L 197.032866 209.798187 
L 197.12312 211.166024 
L 197.30363 207.443185 
L 197.393885 210.030462 
L 197.66465 205.630157 
L 197.84516 206.597966 
L 198.02567 198.984534 
L 198.20618 209.61753 
L 198.386689 205.539828 
L 198.476944 205.978568 
L 198.657454 202.546072 
L 198.747709 201.500838 
L 198.928219 203.984881 
L 199.018474 201.171783 
L 199.108729 205.049471 
L 199.289239 201.907318 
L 199.379494 202.455743 
L 199.650258 206.004376 
L 199.740513 204.094566 
L 199.830768 204.475238 
L 200.011368 207.501254 
L 200.101623 205.965664 
L 200.191878 209.17879 
L 200.552898 197.481204 
L 200.643153 197.952205 
L 200.823663 195.048778 
L 200.913918 195.958518 
L 201.094427 195.268148 
L 201.184682 197.061821 
L 201.816467 171.389073 
L 201.906722 173.956993 
L 201.996977 172.505279 
L 202.177487 173.911828 
L 202.267741 179.49286 
L 202.357996 177.402393 
L 202.538506 181.499451 
L 202.628761 177.602407 
L 202.809271 185.519085 
L 202.899526 186.409469 
L 203.170291 193.590612 
L 203.260546 193.293817 
L 203.350801 189.596787 
L 203.441055 201.616975 
L 203.53131 193.016379 
L 203.621565 194.345503 
L 203.71182 193.17768 
L 203.802075 193.745462 
L 203.89233 199.352302 
L 203.982585 198.319972 
L 204.343605 211.140216 
L 204.43386 210.230476 
L 204.524115 215.166302 
L 204.704624 208.094844 
L 204.794879 211.069243 
L 204.975389 201.571811 
L 205.155899 211.772518 
L 205.246154 201.855701 
L 205.336409 203.875196 
L 205.516919 207.869021 
L 205.607174 202.513811 
L 205.787684 206.262458 
L 205.877938 204.313936 
L 205.968193 207.843213 
L 206.058448 203.720347 
L 206.148703 208.404542 
L 206.238958 208.081939 
L 206.329213 202.610592 
L 206.419468 204.352649 
L 206.509723 204.113922 
L 206.599978 205.152704 
L 206.690233 200.965317 
L 206.870743 208.043227 
L 206.961088 202.255729 
L 207.051343 203.797771 
L 207.231853 200.991125 
L 207.322107 204.113922 
L 207.412362 201.294372 
L 207.502617 193.216393 
L 207.592872 196.106916 
L 207.683127 191.500145 
L 207.773382 192.809913 
L 207.863637 196.461779 
L 208.044147 193.964832 
L 208.134402 188.383799 
L 208.224657 190.125856 
L 208.314912 187.848278 
L 208.405167 191.151733 
L 208.495422 189.016101 
L 208.675931 194.113229 
L 208.766186 192.700228 
L 208.856441 195.2746 
L 208.946696 192.803461 
L 209.127206 196.377902 
L 209.307716 188.248306 
L 209.397971 191.20335 
L 209.578481 186.564318 
L 209.668736 193.603516 
L 209.75899 189.874225 
L 209.849245 194.706819 
L 209.9395 193.164776 
L 210.029755 188.04184 
L 210.210265 198.990987 
L 210.30052 193.506735 
L 210.390775 194.539065 
L 210.84205 181.357506 
L 211.022559 170.195442 
L 211.112814 175.163528 
L 211.293324 166.80811 
L 211.383579 167.788823 
L 211.564089 162.936874 
L 211.654344 171.556826 
L 211.744599 166.569384 
L 211.925109 173.802143 
L 212.015364 173.492444 
L 212.105619 173.892472 
L 212.195873 171.421333 
L 212.286128 171.989114 
L 212.376383 172.376238 
L 212.466638 170.950333 
L 212.647148 175.76357 
L 212.737403 173.060156 
L 212.917913 175.744213 
L 213.098423 175.311925 
L 213.188678 172.279457 
L 213.278933 174.015061 
L 213.369187 169.859934 
L 213.549697 178.737969 
L 213.639952 175.802282 
L 213.730207 173.866664 
L 213.820462 174.311856 
L 214.000972 177.383037 
L 214.091227 174.286048 
L 214.271737 182.570493 
L 214.542501 172.027827 
L 214.723011 173.627938 
L 214.903521 169.634112 
L 214.993776 170.50514 
L 215.084031 173.892472 
L 215.174286 173.789239 
L 215.354796 172.13106 
L 215.445051 173.860212 
L 215.625561 187.35147 
L 215.806161 168.788892 
L 215.896416 166.066123 
L 215.986671 167.672686 
L 216.076925 167.65333 
L 216.16718 162.601367 
L 216.257435 168.169495 
L 216.34769 166.99522 
L 216.5282 174.602199 
L 216.798965 172.731101 
L 216.88922 173.679554 
L 217.06973 183.228603 
L 217.159985 180.667135 
L 217.25033 182.615658 
L 217.340585 189.093526 
L 217.43084 187.396634 
L 217.611349 190.100047 
L 217.791859 187.377278 
L 217.882114 187.506319 
L 217.972369 188.325731 
L 218.062624 187.667621 
L 218.243134 190.629116 
L 218.423644 182.544685 
L 218.694409 187.041771 
L 218.784663 178.776682 
L 219.055428 192.964762 
L 219.145683 188.880608 
L 219.235938 190.429103 
L 219.326193 190.35813 
L 219.596958 175.905515 
L 219.687213 174.828021 
L 219.777468 167.782371 
L 219.867723 170.195442 
L 219.957977 165.975794 
L 220.048232 167.05974 
L 220.138487 170.421264 
L 220.228742 162.252955 
L 220.318997 162.323928 
L 220.409252 166.317753 
L 220.499507 164.614409 
L 220.680017 165.356396 
L 220.770272 167.324275 
L 220.860527 173.002088 
L 220.950782 164.769259 
L 221.041037 170.169633 
L 221.221546 164.724094 
L 221.402056 169.743797 
L 221.492311 164.401491 
L 221.672821 174.279596 
L 221.763076 174.440897 
L 221.943586 180.33808 
L 222.033841 176.415228 
L 222.214351 179.260586 
L 222.304605 183.325384 
L 222.39486 180.596163 
L 222.485115 185.66103 
L 222.57537 182.054328 
L 222.665625 193.035735 
L 222.846135 189.964554 
L 222.93639 192.396981 
L 223.1169 188.893512 
L 223.207155 192.89379 
L 223.29741 158.097829 
L 223.387665 161.194817 
L 223.568174 169.550235 
L 223.748684 166.453247 
L 223.838939 165.504794 
L 223.929194 163.304641 
L 224.019449 167.859796 
L 224.109704 166.362918 
L 224.199959 172.079443 
L 224.290214 169.401838 
L 224.380469 169.692181 
L 224.560979 173.492444 
L 224.651234 173.285978 
L 224.741488 174.524774 
L 224.831743 169.201824 
L 225.012253 174.718336 
L 225.283108 168.846961 
L 225.463618 172.782718 
L 225.553873 170.963237 
L 225.734383 174.234431 
L 225.824638 173.324691 
L 225.914893 175.440967 
L 226.005148 174.769952 
L 226.095403 180.434861 
L 226.275912 175.066747 
L 226.366167 178.221805 
L 226.546677 167.395247 
L 226.636932 170.795483 
L 226.727277 165.111218 
L 226.817623 165.614479 
L 226.998223 154.297565 
L 227.088478 157.504239 
L 227.178732 157.452622 
L 227.268987 155.407319 
L 227.359242 157.742965 
L 227.449497 155.633141 
L 227.539752 157.078403 
L 227.630007 155.749279 
L 227.810607 160.033447 
L 227.991298 177.395941 
L 228.081643 178.421818 
L 228.171898 169.859934 
L 228.352407 178.963791 
L 228.442662 175.886159 
L 228.623172 181.009095 
L 228.803682 178.847654 
L 228.893937 178.9896 
L 228.984192 175.273213 
L 229.164702 181.131684 
L 229.254957 174.802213 
L 229.616337 197.332807 
L 229.796847 198.481274 
L 229.887102 195.210079 
L 229.977357 196.094011 
L 230.067612 198.255452 
L 230.157867 197.281191 
L 230.338377 192.26794 
L 230.428632 197.242478 
L 230.518887 191.248514 
L 230.609142 193.151872 
L 230.879906 175.079651 
L 231.060416 178.421818 
L 231.240926 175.905515 
L 231.511691 158.994665 
L 231.692201 162.465873 
L 231.782456 156.826773 
L 231.962965 160.601228 
L 232.05322 154.18788 
L 232.41424 166.550027 
L 232.59475 174.744144 
L 232.685005 175.853898 
L 232.77526 178.36375 
L 232.95577 175.724857 
L 233.046025 178.279873 
L 233.316789 189.3258 
L 233.407044 189.835513 
L 233.497299 185.519085 
L 233.587554 191.661446 
L 233.677809 189.164499 
L 233.858319 198.003821 
L 234.129264 166.65326 
L 234.219519 170.930976 
L 234.309864 165.74352 
L 234.400119 167.021028 
L 234.490374 160.330241 
L 234.580629 161.343215 
L 234.670884 156.052525 
L 234.851394 160.820598 
L 235.031904 155.25247 
L 235.122159 156.581594 
L 235.212414 158.181705 
L 235.302668 149.671438 
L 235.392923 156.529978 
L 235.483178 149.355287 
L 235.753943 157.678445 
L 235.934543 171.743936 
L 236.024798 171.750388 
L 236.115053 175.866803 
L 236.295563 172.247197 
L 236.476073 173.627938 
L 236.566328 170.466428 
L 236.656583 180.796177 
L 236.746838 179.344463 
L 236.837092 180.512286 
L 237.017602 184.648057 
L 237.198112 182.49952 
L 237.288367 191.809843 
L 237.378622 190.590404 
L 237.559132 186.31914 
L 237.739642 192.887338 
L 237.829897 191.996953 
L 238.010406 187.532127 
L 238.100661 187.686977 
L 238.371426 175.408706 
L 238.461681 174.298952 
L 238.642191 168.117878 
L 238.732446 168.472741 
L 238.822701 168.872769 
L 238.912956 171.440689 
L 239.093466 168.375961 
L 239.18372 165.717712 
L 239.273975 171.576182 
L 239.634995 152.194193 
L 239.72525 161.943256 
L 239.815505 161.098037 
L 239.90576 155.168593 
L 239.996015 157.478431 
L 240.176525 153.465249 
L 240.26678 148.903643 
L 240.357035 153.742688 
L 240.718054 143.432296 
L 240.808309 147.535806 
L 241.079074 143.832323 
L 241.259584 149.826287 
L 241.349839 147.32934 
L 241.530349 155.304086 
L 241.620603 153.974962 
L 241.710858 158.03976 
L 241.801113 157.330033 
L 241.891368 155.078264 
L 241.981623 166.356466 
L 242.071878 163.524011 
L 242.342643 172.563348 
L 242.613408 168.021097 
L 242.793917 173.47954 
L 242.884172 170.498688 
L 243.064682 174.679623 
L 243.154937 172.563348 
L 243.245192 166.382274 
L 243.335447 175.195788 
L 243.515957 170.853552 
L 243.606212 170.234154 
L 243.696467 167.421056 
L 243.967322 174.202171 
L 244.057577 171.808457 
L 244.328341 177.873393 
L 244.418596 175.808734 
L 244.508851 177.376585 
L 244.599106 176.757187 
L 244.779706 180.886505 
L 244.869961 178.42827 
L 244.960216 182.925356 
L 245.050471 181.802698 
L 245.140726 176.518461 
L 245.321236 179.221874 
L 245.411491 185.886852 
L 245.592001 179.854176 
L 245.682256 179.873532 
L 245.772511 180.647779 
L 245.862765 186.525606 
L 245.95302 185.377139 
L 246.043275 187.274045 
L 246.223785 184.622248 
L 246.31404 184.151248 
L 246.404295 184.770646 
L 246.49455 192.145351 
L 246.67506 183.460877 
L 246.765315 183.641535 
L 246.945825 185.467468 
L 247.126334 182.493068 
L 247.216589 183.899618 
L 247.848374 172.82143 
L 248.209393 161.969065 
L 248.299648 169.530879 
L 248.480158 163.040107 
L 248.570413 163.672409 
L 248.660668 169.679277 
L 248.750923 162.220695 
L 248.931433 167.46622 
L 249.021688 168.317892 
L 249.111943 166.750041 
L 249.202198 162.633627 
L 249.382707 165.77578 
L 249.743727 156.613855 
L 249.924237 168.601783 
L 250.014492 166.866178 
L 250.195002 156.09769 
L 250.285257 160.401214 
L 250.465767 154.110455 
L 250.556022 159.768912 
L 250.826786 148.090683 
L 251.097551 160.678653 
L 251.187806 158.213966 
L 251.368316 165.917726 
L 251.458571 165.840301 
L 251.548826 164.30471 
L 251.729336 167.459768 
L 251.909845 164.536985 
L 252.0001 164.201478 
L 252.090355 160.427022 
L 252.270865 165.104766 
L 252.36112 161.898092 
L 252.451375 163.840162 
L 252.631885 161.48516 
L 252.72214 162.401353 
L 252.812395 164.49182 
L 252.90265 159.349528 
L 252.992904 170.03414 
L 253.083159 167.162973 
L 253.173414 157.355842 
L 253.263669 165.182191 
L 253.353924 159.626967 
L 253.444179 164.046628 
L 253.534434 162.285216 
L 253.624689 163.343354 
L 253.805199 158.788199 
L 253.895454 162.698147 
L 253.985709 160.962543 
L 254.075964 162.091654 
L 254.166218 158.001048 
L 254.346728 168.743728 
L 254.436983 165.27252 
L 254.527238 165.737068 
L 254.617493 170.62773 
L 254.798003 165.207999 
L 254.978513 173.563417 
L 255.068768 152.845851 
L 255.159023 154.987935 
L 255.249278 154.213688 
L 255.429787 143.69683 
L 255.520042 145.174352 
L 255.610297 143.387131 
L 255.790897 137.509304 
L 255.881152 152.129673 
L 255.971407 138.586798 
L 256.061662 141.896705 
L 256.152007 157.846198 
L 256.422772 145.580832 
L 256.513027 156.046073 
L 256.693537 143.612953 
L 256.874047 136.173728 
L 257.054557 144.148474 
L 257.144812 138.702935 
L 257.415576 143.671022 
L 257.505831 153.194263 
L 257.596086 152.439372 
L 257.686341 153.736236 
L 257.866851 161.904544 
L 257.957106 161.259338 
L 258.047361 161.433544 
L 258.227871 167.698494 
L 258.318126 164.485368 
L 258.58889 177.370133 
L 258.679145 171.647155 
L 258.7694 172.589156 
L 258.859655 177.253995 
L 259.220675 155.781539 
L 259.31093 156.110594 
L 259.401185 157.555855 
L 259.762204 143.942008 
L 259.852459 145.277585 
L 259.942714 131.612121 
L 260.303734 142.729021 
L 260.393989 143.574241 
L 260.574499 153.910441 
L 260.755008 152.471632 
L 260.935518 137.064112 
L 261.116028 139.290073 
L 261.386793 156.123498 
L 261.477048 156.310608 
L 261.567303 178.796038 
L 261.657558 171.576182 
L 261.747813 173.369855 
L 261.928323 157.639732 
L 262.018577 164.007916 
L 262.108832 162.020681 
L 262.289342 167.692042 
L 262.650362 175.447419 
L 262.921127 165.3693 
L 263.011382 167.05974 
L 263.101637 171.085826 
L 263.372401 146.503476 
L 263.552911 158.136541 
L 263.643166 156.53643 
L 263.733421 159.007569 
L 263.913931 145.813106 
L 264.004186 149.032684 
L 264.184696 140.367567 
L 264.45546 133.438054 
L 264.726225 143.129049 
L 264.99699 157.323581 
L 265.1775 150.419877 
L 265.267755 151.123151 
L 265.448265 161.9239 
L 265.53852 157.801034 
L 266.080049 173.537609 
L 266.170304 172.97628 
L 266.260559 170.589017 
L 266.350814 175.802282 
L 266.711834 166.020959 
L 266.802088 166.659712 
L 266.982598 171.460045 
L 267.072853 177.092694 
L 267.253363 175.157076 
L 267.343618 175.318377 
L 267.433873 176.557173 
L 267.704638 166.988768 
L 267.794893 165.891917 
L 268.065657 155.994457 
L 268.155912 158.091376 
L 268.336422 153.129742 
L 268.426677 155.162141 
L 268.697442 150.484397 
L 268.787697 142.612884 
L 268.968207 154.942771 
L 269.148716 154.458867 
L 269.238971 151.561891 
L 269.329226 154.078195 
L 269.509826 147.98745 
L 269.600172 147.103518 
L 269.780862 137.580277 
L 269.871117 142.38061 
L 269.961372 140.799855 
L 270.141882 142.509651 
L 270.232137 139.980443 
L 270.322392 140.348211 
L 270.412646 141.554746 
L 270.502901 151.723193 
L 270.593156 150.761836 
L 270.863921 154.394346 
L 270.954176 150.252123 
L 271.044431 156.826773 
L 271.134686 155.665402 
L 271.224941 151.323165 
L 271.58596 171.866525 
L 271.676215 170.014784 
L 271.76647 172.260101 
L 271.856725 172.169772 
L 271.94698 171.679415 
L 272.037235 172.098799 
L 272.398255 164.575697 
L 272.48851 167.556549 
L 272.578765 160.956091 
L 272.66902 161.865832 
L 272.759275 163.549819 
L 272.849529 160.717365 
L 273.120294 166.627452 
L 273.210639 161.910996 
L 273.39133 165.188643 
L 273.481675 169.37603 
L 273.662185 161.917448 
L 273.93295 158.065568 
L 274.113459 155.646046 
L 274.203714 152.187741 
L 274.293969 144.238803 
L 274.384224 150.213411 
L 274.474479 149.832739 
L 274.564734 153.93625 
L 274.745244 142.032198 
L 274.835499 145.064667 
L 274.925754 144.374296 
L 275.106264 131.534696 
L 275.196518 134.45748 
L 275.286773 133.128355 
L 275.377119 135.889837 
L 275.467464 131.760518 
L 275.648154 149.439164 
L 275.918919 133.560643 
L 276.009174 134.231658 
L 276.099429 130.212024 
L 276.279939 132.418629 
L 276.370194 131.579861 
L 276.460448 124.934239 
L 276.550703 130.153955 
L 276.640958 126.153678 
L 276.731213 127.063419 
L 276.911723 129.799092 
L 277.092233 133.386438 
L 277.182488 126.553706 
L 277.272743 127.521515 
L 277.362998 133.889698 
L 277.453253 128.960324 
L 277.543508 129.160338 
L 277.633762 130.082983 
L 277.724017 129.773284 
L 277.814272 130.553983 
L 277.904527 130.057175 
L 277.994782 127.708625 
L 278.085037 128.76031 
L 278.175292 123.547046 
L 278.355802 129.682955 
L 278.446057 127.366665 
L 278.536312 130.321709 
L 278.626567 128.97968 
L 278.716822 129.528106 
L 278.807076 129.173242 
L 278.897331 128.050584 
L 278.987586 128.347379 
L 279.077841 126.869857 
L 279.258351 132.786396 
L 279.348606 123.701895 
L 279.709626 137.71577 
L 279.799881 128.405447 
L 279.980391 134.48974 
L 280.070645 133.154163 
L 280.251155 140.4708 
L 280.34141 133.650972 
L 280.431665 140.083676 
L 280.52192 134.599425 
L 280.612175 137.077016 
L 280.70243 135.935001 
L 280.88294 140.341759 
L 280.973195 141.703143 
L 281.06345 136.393098 
L 281.153705 142.864514 
L 281.334214 136.625372 
L 281.424469 138.128702 
L 281.514724 136.051139 
L 281.695234 139.490087 
L 281.785489 137.786743 
L 281.875744 133.592904 
L 281.965999 138.709387 
L 282.146509 134.689754 
L 282.236764 140.806307 
L 282.327019 140.683718 
L 282.417273 141.31602 
L 282.507528 140.083676 
L 282.688038 145.045311 
L 282.868548 138.754552 
L 282.958803 144.638831 
L 283.049058 138.457757 
L 283.410078 157.517143 
L 283.500333 157.530047 
L 283.590588 160.156036 
L 283.680842 155.549265 
L 283.861352 164.924108 
L 284.132117 155.607333 
L 284.222372 155.523456 
L 284.312627 159.930214 
L 284.493137 154.600812 
L 284.763902 157.304225 
L 284.854156 154.775017 
L 284.944411 156.271895 
L 285.034666 159.846337 
L 285.124921 156.555786 
L 285.215176 160.026995 
L 285.305431 156.368676 
L 285.486031 164.343423 
L 285.756796 154.284661 
L 285.937306 158.388171 
L 286.117816 156.252539 
L 286.208071 156.046073 
L 286.38858 154.104003 
L 286.478835 154.562099 
L 286.56909 158.355911 
L 286.659345 157.801034 
L 286.7496 159.588254 
L 286.93011 153.833017 
L 287.020365 154.749209 
L 287.11062 155.600881 
L 287.29113 158.213966 
L 287.47164 155.452484 
L 287.561894 149.555301 
L 287.652149 153.174907 
L 287.742404 152.43292 
L 287.832659 154.426606 
L 287.922914 150.336 
L 288.103424 154.058839 
L 288.464444 140.322402 
L 288.554699 138.044825 
L 288.915718 143.464556 
L 289.096228 122.146949 
L 289.276738 118.062795 
L 289.547503 125.231033 
L 289.637758 123.463169 
L 289.728013 124.643896 
L 289.818268 119.824207 
L 289.908523 120.566194 
L 289.998777 119.282234 
L 290.179287 114.778696 
L 290.269542 115.817478 
L 290.450052 124.798745 
L 290.540307 120.056481 
L 290.630562 123.55995 
L 290.720817 119.991961 
L 290.991582 125.779459 
L 291.172091 125.53428 
L 291.262346 123.792224 
L 291.352601 129.663599 
L 291.442856 125.424595 
L 291.533111 131.747614 
L 291.713621 127.063419 
L 291.803876 128.121556 
L 291.984386 139.232004 
L 292.074641 136.967331 
L 292.164896 137.412523 
L 292.255151 136.425358 
L 292.345405 141.31602 
L 292.525915 131.870203 
L 292.61617 145.342105 
L 292.706425 144.716256 
L 293.247955 160.291529 
L 293.33821 156.413841 
L 293.428465 162.782024 
L 293.699229 155.484744 
L 293.789484 160.001186 
L 294.060249 142.309637 
L 294.150504 152.68455 
L 294.240759 145.103379 
L 294.331014 149.748863 
L 294.421269 143.677474 
L 294.511524 150.039205 
L 294.692034 138.709387 
L 294.782288 138.864237 
L 294.872543 140.244978 
L 294.962798 135.599494 
L 295.053053 140.490156 
L 295.233563 126.927925 
L 295.323818 129.637791 
L 295.504328 115.527135 
L 295.594583 123.385744 
L 295.684838 121.592071 
L 295.775093 119.669358 
L 295.865348 120.643619 
L 296.045948 114.38512 
L 296.136203 121.075907 
L 296.226457 110.088048 
L 296.587477 118.869302 
L 296.677732 118.89511 
L 296.767987 120.243591 
L 296.858242 115.630368 
L 297.038752 118.48863 
L 297.219262 112.378529 
L 297.309517 114.501257 
L 297.399771 114.443189 
L 297.490026 113.5399 
L 297.670627 118.359589 
L 297.760881 113.230201 
L 297.851136 116.023943 
L 297.941391 109.391225 
L 298.031646 112.41079 
L 298.121901 108.358896 
L 298.302411 115.249696 
L 298.392666 116.352999 
L 298.482921 115.901354 
L 298.573176 119.501604 
L 298.663431 116.211053 
L 298.844031 123.321224 
L 298.934286 120.927509 
L 299.024541 123.753512 
L 299.114796 118.469274 
L 299.20505 119.527412 
L 299.295305 115.172272 
L 299.56607 130.786257 
L 299.836835 138.799716 
L 299.92709 145.987311 
L 300.017345 144.335584 
L 300.1076 147.703559 
L 300.197855 146.303462 
L 300.378365 153.807208 
L 300.649129 145.755037 
L 300.739384 145.703421 
L 300.829639 140.53532 
L 300.919894 143.232282 
L 301.010149 141.509582 
L 301.190659 145.309845 
L 301.371169 136.909263 
L 301.551679 139.425566 
L 301.732188 131.154025 
L 301.912698 137.928688 
L 302.002953 131.083052 
L 302.183463 134.586521 
L 302.544483 124.921335 
L 303.086012 109.255732 
L 303.266522 108.423416 
L 303.537287 113.107612 
L 303.627542 111.894625 
L 303.808052 115.475518 
L 303.988561 111.649447 
L 304.078816 112.204324 
L 304.169071 111.97205 
L 304.349581 114.991614 
L 304.439836 109.733185 
L 304.620346 114.53997 
L 304.710601 113.372147 
L 304.800856 112.720489 
L 304.891111 113.223749 
L 304.981366 111.63009 
L 305.161876 115.740053 
L 305.342385 113.023735 
L 305.43264 113.520544 
L 305.522895 115.359381 
L 305.61315 113.907668 
L 305.703405 107.810471 
L 305.883915 112.120447 
L 305.97417 114.888381 
L 306.064425 108.275019 
L 306.244935 115.862642 
L 306.33519 112.636612 
L 306.876719 126.418213 
L 306.966974 123.721251 
L 307.057229 127.095679 
L 307.237739 122.779251 
L 307.327994 121.559811 
L 307.508504 124.605184 
L 307.598758 134.670398 
L 307.689013 134.476836 
L 307.779268 141.75476 
L 307.869523 136.193084 
L 307.959778 136.786673 
L 308.140288 147.168038 
L 308.230543 145.542119 
L 308.320798 146.768011 
L 308.411053 142.729021 
L 308.501308 146.432504 
L 308.591563 143.380679 
L 308.681818 144.774324 
L 308.952582 131.908916 
L 309.133092 135.99307 
L 309.223347 133.941315 
L 309.313602 128.734502 
L 309.494112 131.818587 
L 309.584367 125.198773 
L 309.674622 127.534419 
L 309.764877 127.140843 
L 309.855132 129.13453 
L 310.125896 110.088048 
L 310.216151 113.107612 
L 310.577171 104.797359 
L 310.667426 109.017006 
L 310.847936 105.481277 
L 311.028446 110.100952 
L 311.118701 104.294098 
L 311.29921 109.133143 
L 311.570065 103.539207 
L 311.750575 115.546491 
L 311.84083 109.804157 
L 311.931085 110.584857 
L 312.111595 107.887895 
L 312.20185 107.655621 
L 312.38236 104.287646 
L 312.472615 113.385051 
L 312.56287 111.384912 
L 312.653125 107.197525 
L 312.743379 109.146047 
L 312.923889 104.08118 
L 313.014144 106.178099 
L 313.104399 114.114134 
L 313.194654 112.075283 
L 313.284909 106.120031 
L 313.375164 110.113856 
L 313.465419 107.945964 
L 313.555674 110.791323 
L 313.736184 105.287715 
L 313.916693 118.372493 
L 314.006948 121.443674 
L 314.097203 117.449849 
L 314.187458 122.327606 
L 314.277713 121.366249 
L 314.367968 122.4631 
L 314.548478 121.301729 
L 314.728988 128.405447 
L 314.819243 125.966568 
L 314.909498 128.115104 
L 314.999753 120.875893 
L 315.180262 123.540594 
L 315.451027 114.152846 
L 315.631537 117.875685 
L 315.721792 111.391364 
L 315.812047 112.346269 
L 315.902302 108.487937 
L 315.992557 110.90746 
L 316.173067 105.681291 
L 316.353576 103.590823 
L 316.534086 107.462059 
L 316.624341 106.178099 
L 316.714596 102.526233 
L 316.804851 103.500494 
L 316.985361 106.732977 
L 317.075616 106.965251 
L 317.165871 105.842592 
L 317.256126 109.178308 
L 317.346381 106.655552 
L 317.436636 109.629952 
L 317.52689 107.913704 
L 317.617145 110.410651 
L 317.7074 105.487729 
L 317.88791 117.236931 
L 317.978165 114.462545 
L 318.158675 121.863058 
L 318.24893 125.75365 
L 318.339185 125.579445 
L 318.42944 125.760102 
L 318.519695 130.715285 
L 318.700204 126.185938 
L 318.790459 129.811996 
L 318.880714 129.153886 
L 319.061224 123.024429 
L 319.151479 123.837388 
L 319.241734 120.224235 
L 319.331989 126.715007 
L 319.422244 120.966222 
L 319.512499 128.334474 
L 319.602754 127.392474 
L 319.783264 124.043854 
L 319.873519 124.411622 
L 319.963773 121.914674 
L 320.054028 122.134045 
L 320.234538 124.495499 
L 320.324793 123.895457 
L 320.505303 122.405031 
L 320.595558 129.13453 
L 320.685813 121.746921 
L 320.776068 123.30832 
L 320.956578 129.624887 
L 321.046833 128.076392 
L 321.137087 130.992723 
L 321.227342 128.573201 
L 321.498107 117.069177 
L 321.678617 112.875338 
L 321.768872 115.140011 
L 321.859127 108.746019 
L 321.949382 111.178446 
L 322.310401 102.313315 
L 322.400656 106.791045 
L 322.581166 95.099912 
L 322.671421 100.842246 
L 322.942186 96.532269 
L 323.122696 99.261491 
L 323.212951 97.048434 
L 323.57397 105.158674 
L 323.664225 103.448878 
L 323.75448 104.223125 
L 323.93499 95.706406 
L 324.025245 99.829272 
L 324.1155 97.951723 
L 324.205755 114.462545 
L 324.29601 96.583886 
L 324.386265 97.764613 
L 324.47661 97.66138 
L 324.566865 96.40968 
L 324.65712 98.545312 
L 324.747375 104.152153 
L 324.83772 121.992099 
L 324.927975 101.506808 
L 325.01823 118.591863 
L 325.19874 99.913149 
L 325.379249 122.985716 
L 325.469504 121.656592 
L 325.830524 134.263918 
L 325.920779 131.741162 
L 326.011034 137.560921 
L 326.101289 132.921889 
L 326.191544 136.689893 
L 326.281799 131.257258 
L 326.372054 132.412177 
L 326.462309 131.870203 
L 326.642818 137.819003 
L 326.733073 136.386646 
L 327.003838 127.676364 
L 327.094093 132.696067 
L 327.635623 114.185106 
L 327.725877 119.991961 
L 327.816132 116.307834 
L 327.906387 116.746574 
L 328.086897 119.701618 
L 328.177152 117.056273 
L 328.267407 118.959631 
L 328.538172 108.984746 
L 328.628427 105.823236 
L 328.718682 106.087771 
L 328.808937 106.932991 
L 328.899191 101.771342 
L 329.169956 113.243105 
L 329.260211 102.874645 
L 329.350466 114.739983 
L 329.440721 103.648892 
L 329.621231 111.455885 
L 329.711486 105.636126 
L 329.801741 108.249211 
L 329.891996 116.488492 
L 329.982251 114.423833 
L 330.072505 115.656176 
L 330.34327 127.786049 
L 330.433525 127.895734 
L 330.52378 132.979958 
L 330.794545 128.889352 
L 330.975055 138.935209 
L 331.06531 137.031852 
L 331.24582 140.296594 
L 331.516584 126.934377 
L 331.606839 129.153886 
L 331.697184 126.456925 
L 331.877875 119.791947 
L 331.96822 119.669358 
L 332.14882 113.862503 
L 332.239075 113.501188 
L 332.32933 114.669011 
L 332.419675 114.327052 
L 332.600365 112.088187 
L 332.690711 113.365695 
L 333.052091 94.912802 
L 333.142346 103.803741 
L 333.232601 96.925845 
L 333.322856 101.222917 
L 333.413111 97.267804 
L 333.503366 98.996956 
L 333.593621 98.042051 
L 333.774131 91.389977 
L 333.864386 93.686911 
L 333.954641 93.048157 
L 334.044895 86.647713 
L 334.13515 94.086939 
L 334.225405 86.989672 
L 334.31566 92.060992 
L 334.405915 90.157634 
L 334.49617 95.945132 
L 334.586425 94.912802 
L 334.67668 91.89969 
L 334.766935 92.499732 
L 334.947445 99.396984 
L 335.127955 121.817894 
L 335.21821 121.256564 
L 335.308464 118.927371 
L 335.488974 122.972812 
L 335.579229 118.340233 
L 335.759739 128.644173 
L 335.849994 124.372909 
L 335.940249 124.62454 
L 336.030504 122.656661 
L 336.120759 118.127315 
L 336.211014 119.166097 
L 336.391524 111.139734 
L 336.572033 114.101229 
L 336.662288 113.668941 
L 336.842798 105.745811 
L 336.933053 106.281332 
L 337.023308 103.655344 
L 337.203818 112.939859 
L 337.384328 103.997303 
L 337.474583 103.448878 
L 337.655092 91.990019 
L 337.835602 95.151528 
L 338.106367 90.789936 
L 338.196622 92.602965 
L 338.377132 88.757537 
L 338.467387 80.195653 
L 338.738152 95.945132 
L 338.828407 94.983775 
L 339.099171 107.171717 
L 339.189426 105.242551 
L 339.279681 109.978363 
L 339.640701 98.674353 
L 339.821211 109.21702 
L 339.911466 111.236515 
L 340.001721 110.997789 
L 340.091975 109.591239 
L 340.272485 112.133351 
L 340.452995 108.823444 
L 340.633505 109.049266 
L 340.72376 111.281679 
L 340.994525 107.378183 
L 341.08478 107.862087 
L 341.175035 109.629952 
L 341.265289 105.236099 
L 341.355544 107.700786 
L 341.536054 92.77717 
L 341.626309 97.887202 
L 341.716564 86.118644 
L 341.897074 89.376935 
L 341.987329 84.312067 
L 342.077584 85.434726 
L 342.167839 86.679973 
L 342.258094 78.692323 
L 342.528858 89.906003 
L 342.619113 83.821711 
L 342.709368 89.36403 
L 342.799623 84.273355 
L 342.889878 91.964211 
L 342.980133 89.98988 
L 343.070388 95.403159 
L 343.160643 94.022418 
L 343.341153 101.197109 
L 343.521663 97.796873 
L 343.882682 108.494389 
L 344.063192 98.635641 
L 344.153447 103.371453 
L 344.243702 102.487521 
L 344.333957 103.648892 
L 344.424212 106.326497 
L 344.514467 102.016521 
L 344.875486 116.114272 
L 344.965741 116.798191 
L 345.055996 118.720905 
L 345.146251 125.637513 
L 345.236506 123.34058 
L 345.326761 124.695512 
L 345.417016 127.979611 
L 345.507271 123.863197 
L 345.597526 124.547115 
L 345.687781 121.2114 
L 345.778036 124.998759 
L 345.868291 118.26926 
L 345.958546 118.559603 
L 346.0488 115.2626 
L 346.139055 117.39178 
L 346.500075 102.184274 
L 346.680585 106.261976 
L 346.77084 107.403991 
L 346.95135 98.080764 
L 347.041605 97.171023 
L 347.312369 81.034421 
L 347.402624 83.686217 
L 347.492879 82.750669 
L 347.583134 83.847519 
L 347.853899 93.267527 
L 347.944154 90.977045 
L 348.214919 100.293821 
L 348.305174 100.790629 
L 348.395429 96.700023 
L 348.575938 109.081527 
L 348.756448 103.365001 
L 348.846703 104.745742 
L 349.027213 104.1457 
L 349.117468 106.700716 
L 349.207723 106.339401 
L 349.297978 104.036015 
L 349.388323 104.700578 
L 349.478578 97.803325 
L 349.568833 101.822959 
L 349.659088 95.299926 
L 349.839598 101.364863 
L 349.929853 106.752333 
L 350.290872 96.267735 
L 350.381127 98.229161 
L 350.471382 95.56446 
L 350.561637 99.842176 
L 350.651892 99.003408 
L 350.832402 91.977115 
L 350.922657 92.957828 
L 351.012912 93.43528 
L 351.103167 90.731867 
L 351.283676 95.706406 
L 351.373931 92.222293 
L 351.464186 97.351681 
L 351.554441 97.312969 
L 351.734951 92.022279 
L 351.825206 89.744702 
L 352.095971 94.157911 
L 352.186226 88.034906 
L 352.276481 93.835308 
L 352.366735 87.951029 
L 352.45699 91.719032 
L 352.547245 89.196277 
L 352.727755 99.874437 
L 352.81801 96.558078 
L 352.908265 96.925845 
L 353.088775 94.519227 
L 353.269285 99.306655 
L 353.35954 98.713066 
L 353.540049 102.810124 
L 353.630304 103.029494 
L 353.720559 97.235544 
L 353.810814 100.971287 
L 353.901069 95.758022 
L 354.171834 104.384427 
L 354.352344 96.822612 
L 354.623109 105.597414 
L 354.713364 102.894001 
L 354.803618 106.855566 
L 354.893873 104.77155 
L 355.074383 110.739706 
L 355.164638 109.636404 
L 355.254893 113.888312 
L 355.345148 109.333157 
L 355.435403 112.236584 
L 355.525658 119.185453 
L 355.706168 109.971911 
L 355.796423 113.739914 
L 355.886678 111.617186 
L 356.067187 115.178724 
L 356.247697 111.075213 
L 356.518462 113.778626 
L 356.608717 110.75261 
L 356.698972 117.14015 
L 356.789227 112.230132 
L 356.879482 118.378945 
L 356.969737 112.320461 
L 357.059992 118.107959 
L 357.330756 112.326913 
L 357.421011 113.997997 
L 357.511266 118.875754 
L 357.601521 113.843147 
L 357.782031 118.714453 
L 357.872286 114.578682 
L 358.052796 88.325249 
L 358.143051 91.106087 
L 358.233306 97.745257 
L 358.323561 95.841899 
L 358.413815 116.120724 
L 358.50407 114.288339 
L 358.68458 112.417242 
L 358.774835 108.520197 
L 358.86509 116.404615 
L 358.955345 109.378321 
L 359.0456 114.462545 
L 359.135855 112.533379 
L 359.22611 107.874991 
L 359.316365 114.856121 
L 359.496875 108.726663 
L 359.587129 112.746297 
L 359.677384 105.790976 
L 359.767639 110.584857 
L 359.948149 104.132796 
L 360.038404 109.617048 
L 360.128659 107.636265 
L 360.218914 113.314078 
L 360.399424 103.584371 
L 360.489679 104.687674 
L 360.579934 102.061685 
L 360.670189 105.152222 
L 360.760443 104.95866 
L 360.850698 102.190726 
L 360.940953 105.107057 
L 361.031208 102.726247 
L 361.121463 107.674977 
L 361.211718 107.126552 
L 361.301973 106.365209 
L 361.482483 109.926746 
L 361.572738 109.06217 
L 361.662993 113.97864 
L 361.753248 109.410582 
L 361.843503 117.404684 
L 362.114267 110.926816 
L 362.294777 115.720697 
L 362.385032 110.797775 
L 362.565542 113.223749 
L 362.655797 113.10116 
L 363.016817 94.68698 
L 363.197326 90.893169 
L 363.287581 78.576186 
L 363.648782 94.43535 
L 363.739036 88.241372 
L 363.919637 92.415855 
L 364.009892 77.137376 
L 364.100146 96.906489 
L 364.190401 93.409472 
L 364.280656 83.434587 
L 364.370911 100.997095 
L 364.461166 82.357093 
L 364.551421 84.183026 
L 364.822186 99.313107 
L 365.002696 93.364308 
L 365.092951 93.912733 
L 365.45397 86.95096 
L 365.544225 97.822681 
L 365.63448 93.209458 
L 365.724735 94.641816 
L 365.81499 88.402673 
L 365.905245 91.848074 
L 365.9955 89.060784 
L 366.17601 94.228884 
L 366.266265 95.299926 
L 366.35652 98.609833 
L 366.446774 90.389908 
L 366.627284 103.365001 
L 366.717539 99.938957 
L 366.807794 105.55225 
L 366.898049 101.558424 
L 367.078559 109.023458 
L 367.168814 107.816923 
L 367.259069 108.584718 
L 367.349324 108.262115 
L 367.439579 101.435835 
L 367.529834 107.520128 
L 367.710343 99.984122 
L 367.800598 109.913842 
L 367.981108 96.203214 
L 368.071363 102.397192 
L 368.161618 101.797151 
L 368.342128 98.784038 
L 368.522638 88.280084 
L 368.612893 86.131548 
L 368.703148 104.913496 
L 368.793403 85.441178 
L 368.883657 89.131756 
L 369.064167 107.545936 
L 369.154422 99.951861 
L 369.334932 106.86847 
L 369.425187 106.726525 
L 370.147226 84.518533 
L 370.237481 85.015342 
L 370.327736 85.434726 
L 370.417991 85.318589 
L 370.508246 86.234781 
L 370.688756 89.125304 
L 370.779011 88.841414 
L 370.869266 87.512289 
L 371.140031 72.653194 
L 371.230285 77.485787 
L 371.410795 68.840027 
L 371.591305 73.621003 
L 371.68156 71.827331 
L 371.771815 66.252751 
L 371.86207 69.052945 
L 371.952325 67.059258 
L 372.132835 69.014232 
L 372.22309 66.143065 
L 372.403599 70.982111 
L 372.493854 68.104492 
L 372.584109 74.853347 
L 372.674364 66.43986 
L 372.764619 66.994737 
L 372.945129 76.730896 
L 373.035384 75.169498 
L 373.125639 76.05343 
L 373.215894 74.343634 
L 373.306149 76.176019 
L 373.396404 74.317826 
L 373.486659 77.892267 
L 373.667168 75.111429 
L 373.757423 76.330869 
L 373.847678 80.834407 
L 373.937933 77.795486 
L 374.118443 87.17033 
L 374.208698 84.783068 
L 374.298953 85.628288 
L 374.389208 84.873396 
L 374.479463 86.234781 
L 374.930737 109.546075 
L 375.111247 106.829758 
L 375.201502 99.338916 
L 375.382012 104.429591 
L 375.743032 82.363545 
L 375.923542 93.828856 
L 376.013796 88.622043 
L 376.104051 89.815675 
L 376.194306 91.351265 
L 376.555326 70.278836 
L 376.645581 70.846617 
L 376.735836 68.16256 
L 376.916346 72.343495 
L 377.006601 67.162491 
L 377.096856 70.388521 
L 377.187111 66.826984 
L 377.277365 69.982041 
L 377.36762 65.12364 
L 377.457875 69.291671 
L 377.54813 67.09797 
L 377.638385 68.265793 
L 377.72864 65.736586 
L 377.818895 73.67262 
L 377.90915 71.091796 
L 378.08966 79.737556 
L 378.179915 78.027761 
L 378.360425 75.524361 
L 378.540934 79.131063 
L 378.631189 78.969761 
L 378.721444 77.259965 
L 378.811699 83.828163 
L 378.901954 81.582846 
L 378.992209 83.060368 
L 379.082464 81.369928 
L 379.353229 86.518672 
L 379.443484 82.157079 
L 379.533739 89.73825 
L 379.623993 86.312206 
L 379.714248 90.977045 
L 379.804503 87.938125 
L 380.075268 100.758369 
L 380.165523 99.138902 
L 380.346033 103.584371 
L 380.436288 103.119823 
L 380.526543 103.365001 
L 380.616798 105.249003 
L 380.707053 98.835655 
L 380.797307 99.235683 
L 381.068072 95.97094 
L 381.158327 87.318727 
L 381.248582 92.05454 
L 381.429092 82.750669 
L 381.519347 80.31179 
L 381.609602 80.485995 
L 381.699857 83.544272 
L 382.151131 58.581251 
L 382.241386 61.787925 
L 382.331641 59.845855 
L 382.421896 60.852376 
L 382.512151 69.143274 
L 382.602406 66.568901 
L 382.692661 76.801869 
L 382.782916 75.634046 
L 382.963426 71.304714 
L 383.23419 82.292572 
L 383.324445 81.757051 
L 383.4147 82.028038 
L 383.504955 74.156524 
L 383.77572 84.00882 
L 383.95623 99.119546 
L 384.046485 95.196693 
L 384.226995 101.810055 
L 384.678269 88.634948 
L 384.768524 88.660756 
L 384.858779 78.079377 
L 384.949034 78.769747 
L 385.039289 78.15035 
L 385.129544 83.344258 
L 385.490564 60.762047 
L 385.580818 62.846063 
L 385.671073 62.097624 
L 386.122348 81.505421 
L 386.212603 78.098733 
L 386.302858 81.750599 
L 386.573623 104.287646 
L 386.934642 89.95762 
L 387.024897 88.886578 
L 387.115152 80.027899 
L 387.205407 83.550724 
L 387.295662 77.614829 
L 387.385917 81.253791 
L 387.476172 79.782721 
L 387.656682 61.607267 
L 387.746937 59.968444 
L 387.837192 61.362089 
L 387.927447 57.529565 
L 388.107956 64.846201 
L 388.198211 68.640013 
L 388.288466 68.620657 
L 388.378721 69.923973 
L 388.559231 66.988285 
L 388.920251 77.421267 
L 389.010506 74.659785 
L 389.100761 79.034282 
L 389.191015 76.046978 
L 389.28127 78.698775 
L 389.371525 76.453458 
L 389.46178 66.801176 
L 389.732545 85.44763 
L 390.093565 98.113024 
L 390.18382 93.061061 
L 390.36433 97.19038 
L 390.454584 87.434864 
L 390.544839 91.267388 
L 390.635094 87.738111 
L 390.725349 89.615661 
L 390.815604 88.92529 
L 390.905859 82.318381 
L 390.996114 84.686287 
L 391.086369 82.06675 
L 391.176624 84.963725 
L 391.447389 79.047186 
L 391.537644 79.292364 
L 391.627898 80.518256 
L 391.808408 77.795486 
L 391.898663 81.898997 
L 392.079173 75.027552 
L 392.259683 82.634532 
L 392.349938 77.621281 
L 392.440193 80.653749 
L 392.530448 72.001536 
L 392.620703 78.756843 
L 392.710958 76.414745 
L 392.801212 79.582707 
L 392.891467 71.459563 
L 393.071977 76.788965 
L 393.252487 56.284317 
L 393.342742 59.478087 
L 393.432997 56.916619 
L 393.523252 60.149101 
L 393.613507 58.632867 
L 393.703762 60.168458 
L 393.794017 60.013608 
L 394.064781 54.406768 
L 394.155036 61.207239 
L 394.335546 53.568 
L 394.425801 62.387966 
L 394.516056 57.245674 
L 394.606311 62.52346 
L 394.696566 59.490991 
L 394.786821 60.845924 
L 394.877076 70.872426 
L 394.967331 65.478503 
L 395.057586 72.162838 
L 395.147841 66.523737 
L 395.238095 68.272245 
L 395.418605 76.285704 
L 395.50886 74.672689 
L 395.599115 68.665821 
L 395.68937 71.38859 
L 395.779625 80.221461 
L 395.86988 78.498761 
L 396.140645 95.441871 
L 396.2309 96.880681 
L 396.321155 88.628496 
L 396.411409 94.267596 
L 396.501664 88.060714 
L 396.591919 91.27384 
L 396.682174 91.002854 
L 396.952939 75.917937 
L 397.043194 84.654026 
L 397.133449 77.363198 
L 397.313959 82.382901 
L 397.404214 73.762949 
L 397.584723 78.472953 
L 397.855488 68.472259 
L 398.126253 79.827885 
L 398.306763 73.227428 
L 398.397018 79.008474 
L 398.487273 74.401703 
L 398.487273 74.401703 
" style="fill:none;stroke:#1f77b4;stroke-linecap:square;stroke-width:1.5;"/>
   </g>
   <g id="patch_3">
    <path d="M 57.6 307.584 
L 57.6 41.472 
" style="fill:none;stroke:#000000;stroke-linecap:square;stroke-linejoin:miter;stroke-width:0.8;"/>
   </g>
   <g id="patch_4">
    <path d="M 414.72 307.584 
L 414.72 41.472 
" style="fill:none;stroke:#000000;stroke-linecap:square;stroke-linejoin:miter;stroke-width:0.8;"/>
   </g>
   <g id="patch_5">
    <path d="M 57.6 307.584 
L 414.72 307.584 
" style="fill:none;stroke:#000000;stroke-linecap:square;stroke-linejoin:miter;stroke-width:0.8;"/>
   </g>
   <g id="patch_6">
    <path d="M 57.6 41.472 
L 414.72 41.472 
" style="fill:none;stroke:#000000;stroke-linecap:square;stroke-linejoin:miter;stroke-width:0.8;"/>
   </g>
   <g id="text_20">
    <!-- Current with source voltage 100.0 mV -->
    <defs>
     <path d="M 4.203125 54.6875 
L 13.1875 54.6875 
L 24.421875 12.015625 
L 35.59375 54.6875 
L 46.1875 54.6875 
L 57.421875 12.015625 
L 68.609375 54.6875 
L 77.59375 54.6875 
L 63.28125 0 
L 52.6875 0 
L 40.921875 44.828125 
L 29.109375 0 
L 18.5 0 
z
" id="DejaVuSans-77"/>
     <path d="M 9.421875 54.6875 
L 18.40625 54.6875 
L 18.40625 0 
L 9.421875 0 
z
M 9.421875 75.984375 
L 18.40625 75.984375 
L 18.40625 64.59375 
L 9.421875 64.59375 
z
" id="DejaVuSans-69"/>
     <path d="M 54.890625 33.015625 
L 54.890625 0 
L 45.90625 0 
L 45.90625 32.71875 
Q 45.90625 40.484375 42.875 44.328125 
Q 39.84375 48.1875 33.796875 48.1875 
Q 26.515625 48.1875 22.3125 43.546875 
Q 18.109375 38.921875 18.109375 30.90625 
L 18.109375 0 
L 9.078125 0 
L 9.078125 75.984375 
L 18.109375 75.984375 
L 18.109375 46.1875 
Q 21.34375 51.125 25.703125 53.5625 
Q 30.078125 56 35.796875 56 
Q 45.21875 56 50.046875 50.171875 
Q 54.890625 44.34375 54.890625 33.015625 
z
" id="DejaVuSans-68"/>
     <path d="M 30.609375 48.390625 
Q 23.390625 48.390625 19.1875 42.75 
Q 14.984375 37.109375 14.984375 27.296875 
Q 14.984375 17.484375 19.15625 11.84375 
Q 23.34375 6.203125 30.609375 6.203125 
Q 37.796875 6.203125 41.984375 11.859375 
Q 46.1875 17.53125 46.1875 27.296875 
Q 46.1875 37.015625 41.984375 42.703125 
Q 37.796875 48.390625 30.609375 48.390625 
z
M 30.609375 56 
Q 42.328125 56 49.015625 48.375 
Q 55.71875 40.765625 55.71875 27.296875 
Q 55.71875 13.875 49.015625 6.21875 
Q 42.328125 -1.421875 30.609375 -1.421875 
Q 18.84375 -1.421875 12.171875 6.21875 
Q 5.515625 13.875 5.515625 27.296875 
Q 5.515625 40.765625 12.171875 48.375 
Q 18.84375 56 30.609375 56 
z
" id="DejaVuSans-6f"/>
     <path d="M 48.78125 52.59375 
L 48.78125 44.1875 
Q 44.96875 46.296875 41.140625 47.34375 
Q 37.3125 48.390625 33.40625 48.390625 
Q 24.65625 48.390625 19.8125 42.84375 
Q 14.984375 37.3125 14.984375 27.296875 
Q 14.984375 17.28125 19.8125 11.734375 
Q 24.65625 6.203125 33.40625 6.203125 
Q 37.3125 6.203125 41.140625 7.25 
Q 44.96875 8.296875 48.78125 10.40625 
L 48.78125 2.09375 
Q 45.015625 0.34375 40.984375 -0.53125 
Q 36.96875 -1.421875 32.421875 -1.421875 
Q 20.0625 -1.421875 12.78125 6.34375 
Q 5.515625 14.109375 5.515625 27.296875 
Q 5.515625 40.671875 12.859375 48.328125 
Q 20.21875 56 33.015625 56 
Q 37.15625 56 41.109375 55.140625 
Q 45.0625 54.296875 48.78125 52.59375 
z
" id="DejaVuSans-63"/>
     <path d="M 2.984375 54.6875 
L 12.5 54.6875 
L 29.59375 8.796875 
L 46.6875 54.6875 
L 56.203125 54.6875 
L 35.6875 0 
L 23.484375 0 
z
" id="DejaVuSans-76"/>
     <path d="M 9.421875 75.984375 
L 18.40625 75.984375 
L 18.40625 0 
L 9.421875 0 
z
" id="DejaVuSans-6c"/>
     <path d="M 34.28125 27.484375 
Q 23.390625 27.484375 19.1875 25 
Q 14.984375 22.515625 14.984375 16.5 
Q 14.984375 11.71875 18.140625 8.90625 
Q 21.296875 6.109375 26.703125 6.109375 
Q 34.1875 6.109375 38.703125 11.40625 
Q 43.21875 16.703125 43.21875 25.484375 
L 43.21875 27.484375 
z
M 52.203125 31.203125 
L 52.203125 0 
L 43.21875 0 
L 43.21875 8.296875 
Q 40.140625 3.328125 35.546875 0.953125 
Q 30.953125 -1.421875 24.3125 -1.421875 
Q 15.921875 -1.421875 10.953125 3.296875 
Q 6 8.015625 6 15.921875 
Q 6 25.140625 12.171875 29.828125 
Q 18.359375 34.515625 30.609375 34.515625 
L 43.21875 34.515625 
L 43.21875 35.40625 
Q 43.21875 41.609375 39.140625 45 
Q 35.0625 48.390625 27.6875 48.390625 
Q 23 48.390625 18.546875 47.265625 
Q 14.109375 46.140625 10.015625 43.890625 
L 10.015625 52.203125 
Q 14.9375 54.109375 19.578125 55.046875 
Q 24.21875 56 28.609375 56 
Q 40.484375 56 46.34375 49.84375 
Q 52.203125 43.703125 52.203125 31.203125 
z
" id="DejaVuSans-61"/>
     <path d="M 45.40625 27.984375 
Q 45.40625 37.75 41.375 43.109375 
Q 37.359375 48.484375 30.078125 48.484375 
Q 22.859375 48.484375 18.828125 43.109375 
Q 14.796875 37.75 14.796875 27.984375 
Q 14.796875 18.265625 18.828125 12.890625 
Q 22.859375 7.515625 30.078125 7.515625 
Q 37.359375 7.515625 41.375 12.890625 
Q 45.40625 18.265625 45.40625 27.984375 
z
M 54.390625 6.78125 
Q 54.390625 -7.171875 48.1875 -13.984375 
Q 42 -20.796875 29.203125 -20.796875 
Q 24.46875 -20.796875 20.265625 -20.09375 
Q 16.0625 -19.390625 12.109375 -17.921875 
L 12.109375 -9.1875 
Q 16.0625 -11.328125 19.921875 -12.34375 
Q 23.78125 -13.375 27.78125 -13.375 
Q 36.625 -13.375 41.015625 -8.765625 
Q 45.40625 -4.15625 45.40625 5.171875 
L 45.40625 9.625 
Q 42.625 4.78125 38.28125 2.390625 
Q 33.9375 0 27.875 0 
Q 17.828125 0 11.671875 7.65625 
Q 5.515625 15.328125 5.515625 27.984375 
Q 5.515625 40.671875 11.671875 48.328125 
Q 17.828125 56 27.875 56 
Q 33.9375 56 38.28125 53.609375 
Q 42.625 51.21875 45.40625 46.390625 
L 45.40625 54.6875 
L 54.390625 54.6875 
z
" id="DejaVuSans-67"/>
     <path d="M 10.6875 12.40625 
L 21 12.40625 
L 21 0 
L 10.6875 0 
z
" id="DejaVuSans-2e"/>
     <path d="M 52 44.1875 
Q 55.375 50.25 60.0625 53.125 
Q 64.75 56 71.09375 56 
Q 79.640625 56 84.28125 50.015625 
Q 88.921875 44.046875 88.921875 33.015625 
L 88.921875 0 
L 79.890625 0 
L 79.890625 32.71875 
Q 79.890625 40.578125 77.09375 44.375 
Q 74.3125 48.1875 68.609375 48.1875 
Q 61.625 48.1875 57.5625 43.546875 
Q 53.515625 38.921875 53.515625 30.90625 
L 53.515625 0 
L 44.484375 0 
L 44.484375 32.71875 
Q 44.484375 40.625 41.703125 44.40625 
Q 38.921875 48.1875 33.109375 48.1875 
Q 26.21875 48.1875 22.15625 43.53125 
Q 18.109375 38.875 18.109375 30.90625 
L 18.109375 0 
L 9.078125 0 
L 9.078125 54.6875 
L 18.109375 54.6875 
L 18.109375 46.1875 
Q 21.1875 51.21875 25.484375 53.609375 
Q 29.78125 56 35.6875 56 
Q 41.65625 56 45.828125 52.96875 
Q 50 49.953125 52 44.1875 
z
" id="DejaVuSans-6d"/>
     <path d="M 28.609375 0 
L 0.78125 72.90625 
L 11.078125 72.90625 
L 34.1875 11.53125 
L 57.328125 72.90625 
L 67.578125 72.90625 
L 39.796875 0 
z
" id="DejaVuSans-56"/>
    </defs>
    <g transform="translate(121.528125 35.472)scale(0.12 -0.12)">
     <use xlink:href="#DejaVuSans-43"/>
     <use x="69.824219" xlink:href="#DejaVuSans-75"/>
     <use x="133.203125" xlink:href="#DejaVuSans-72"/>
     <use x="174.300781" xlink:href="#DejaVuSans-72"/>
     <use x="215.382812" xlink:href="#DejaVuSans-65"/>
     <use x="276.90625" xlink:href="#DejaVuSans-6e"/>
     <use x="340.285156" xlink:href="#DejaVuSans-74"/>
     <use x="379.494141" xlink:href="#DejaVuSans-20"/>
     <use x="411.28125" xlink:href="#DejaVuSans-77"/>
     <use x="493.068359" xlink:href="#DejaVuSans-69"/>
     <use x="520.851562" xlink:href="#DejaVuSans-74"/>
     <use x="560.060547" xlink:href="#DejaVuSans-68"/>
     <use x="623.439453" xlink:href="#DejaVuSans-20"/>
     <use x="655.226562" xlink:href="#DejaVuSans-73"/>
     <use x="707.326172" xlink:href="#DejaVuSans-6f"/>
     <use x="768.507812" xlink:href="#DejaVuSans-75"/>
     <use x="831.886719" xlink:href="#DejaVuSans-72"/>
     <use x="872.96875" xlink:href="#DejaVuSans-63"/>
     <use x="927.949219" xlink:href="#DejaVuSans-65"/>
     <use x="989.472656" xlink:href="#DejaVuSans-20"/>
     <use x="1021.259766" xlink:href="#DejaVuSans-76"/>
     <use x="1080.439453" xlink:href="#DejaVuSans-6f"/>
     <use x="1141.621094" xlink:href="#DejaVuSans-6c"/>
     <use x="1169.404297" xlink:href="#DejaVuSans-74"/>
     <use x="1208.613281" xlink:href="#DejaVuSans-61"/>
     <use x="1269.892578" xlink:href="#DejaVuSans-67"/>
     <use x="1333.369141" xlink:href="#DejaVuSans-65"/>
     <use x="1394.892578" xlink:href="#DejaVuSans-20"/>
     <use x="1426.679688" xlink:href="#DejaVuSans-31"/>
     <use x="1490.302734" xlink:href="#DejaVuSans-30"/>
     <use x="1553.925781" xlink:href="#DejaVuSans-30"/>
     <use x="1617.548828" xlink:href="#DejaVuSans-2e"/>
     <use x="1649.335938" xlink:href="#DejaVuSans-30"/>
     <use x="1712.958984" xlink:href="#DejaVuSans-20"/>
     <use x="1744.746094" xlink:href="#DejaVuSans-6d"/>
     <use x="1842.158203" xlink:href="#DejaVuSans-56"/>
    </g>
   </g>
  </g>
 </g>
 <defs>
  <clipPath id="p6a202ac785">
   <rect height="266.112" width="357.12" x="57.6" y="41.472"/>
  </clipPath>
 </defs>
</svg>
