<?xml version="1.0" encoding="utf-8" standalone="no"?>
<!DOCTYPE svg PUBLIC "-//W3C//DTD SVG 1.1//EN"
  "http://www.w3.org/Graphics/SVG/1.1/DTD/svg11.dtd">
<!-- Created with matplotlib (http://matplotlib.org/) -->
<svg height="345pt" version="1.1" viewBox="0 0 460 345" width="460pt" xmlns="http://www.w3.org/2000/svg" xmlns:xlink="http://www.w3.org/1999/xlink">
 <defs>
  <style type="text/css">
*{stroke-linecap:butt;stroke-linejoin:round;}
  </style>
 </defs>
 <g id="figure_1">
  <g id="patch_1">
   <path d="M 0 345.6 
L 460.8 345.6 
L 460.8 0 
L 0 0 
z
" style="fill:#ffffff;"/>
  </g>
  <g id="axes_1">
   <g id="patch_2">
    <path d="M 57.6 307.584 
L 414.72 307.584 
L 414.72 41.472 
L 57.6 41.472 
z
" style="fill:#ffffff;"/>
   </g>
   <g id="matplotlib.axis_1">
    <g id="xtick_1">
     <g id="line2d_1">
      <defs>
       <path d="M 0 0 
L 0 3.5 
" id="mfd6f4fa8ec" style="stroke:#000000;stroke-width:0.8;"/>
      </defs>
      <g>
       <use style="stroke:#000000;stroke-width:0.8;" x="73.832727" xlink:href="#mfd6f4fa8ec" y="307.584"/>
      </g>
     </g>
     <g id="text_1">
      <!-- 0 -->
      <defs>
       <path d="M 31.78125 66.40625 
Q 24.171875 66.40625 20.328125 58.90625 
Q 16.5 51.421875 16.5 36.375 
Q 16.5 21.390625 20.328125 13.890625 
Q 24.171875 6.390625 31.78125 6.390625 
Q 39.453125 6.390625 43.28125 13.890625 
Q 47.125 21.390625 47.125 36.375 
Q 47.125 51.421875 43.28125 58.90625 
Q 39.453125 66.40625 31.78125 66.40625 
z
M 31.78125 74.21875 
Q 44.046875 74.21875 50.515625 64.515625 
Q 56.984375 54.828125 56.984375 36.375 
Q 56.984375 17.96875 50.515625 8.265625 
Q 44.046875 -1.421875 31.78125 -1.421875 
Q 19.53125 -1.421875 13.0625 8.265625 
Q 6.59375 17.96875 6.59375 36.375 
Q 6.59375 54.828125 13.0625 64.515625 
Q 19.53125 74.21875 31.78125 74.21875 
z
" id="DejaVuSans-30"/>
      </defs>
      <g transform="translate(70.651477 322.182437)scale(0.1 -0.1)">
       <use xlink:href="#DejaVuSans-30"/>
      </g>
     </g>
    </g>
    <g id="xtick_2">
     <g id="line2d_2">
      <g>
       <use style="stroke:#000000;stroke-width:0.8;" x="127.970692" xlink:href="#mfd6f4fa8ec" y="307.584"/>
      </g>
     </g>
     <g id="text_2">
      <!-- 10 -->
      <defs>
       <path d="M 12.40625 8.296875 
L 28.515625 8.296875 
L 28.515625 63.921875 
L 10.984375 60.40625 
L 10.984375 69.390625 
L 28.421875 72.90625 
L 38.28125 72.90625 
L 38.28125 8.296875 
L 54.390625 8.296875 
L 54.390625 0 
L 12.40625 0 
z
" id="DejaVuSans-31"/>
      </defs>
      <g transform="translate(121.608192 322.182437)scale(0.1 -0.1)">
       <use xlink:href="#DejaVuSans-31"/>
       <use x="63.623047" xlink:href="#DejaVuSans-30"/>
      </g>
     </g>
    </g>
    <g id="xtick_3">
     <g id="line2d_3">
      <g>
       <use style="stroke:#000000;stroke-width:0.8;" x="182.108656" xlink:href="#mfd6f4fa8ec" y="307.584"/>
      </g>
     </g>
     <g id="text_3">
      <!-- 20 -->
      <defs>
       <path d="M 19.1875 8.296875 
L 53.609375 8.296875 
L 53.609375 0 
L 7.328125 0 
L 7.328125 8.296875 
Q 12.9375 14.109375 22.625 23.890625 
Q 32.328125 33.6875 34.8125 36.53125 
Q 39.546875 41.84375 41.421875 45.53125 
Q 43.3125 49.21875 43.3125 52.78125 
Q 43.3125 58.59375 39.234375 62.25 
Q 35.15625 65.921875 28.609375 65.921875 
Q 23.96875 65.921875 18.8125 64.3125 
Q 13.671875 62.703125 7.8125 59.421875 
L 7.8125 69.390625 
Q 13.765625 71.78125 18.9375 73 
Q 24.125 74.21875 28.421875 74.21875 
Q 39.75 74.21875 46.484375 68.546875 
Q 53.21875 62.890625 53.21875 53.421875 
Q 53.21875 48.921875 51.53125 44.890625 
Q 49.859375 40.875 45.40625 35.40625 
Q 44.1875 33.984375 37.640625 27.21875 
Q 31.109375 20.453125 19.1875 8.296875 
z
" id="DejaVuSans-32"/>
      </defs>
      <g transform="translate(175.746156 322.182437)scale(0.1 -0.1)">
       <use xlink:href="#DejaVuSans-32"/>
       <use x="63.623047" xlink:href="#DejaVuSans-30"/>
      </g>
     </g>
    </g>
    <g id="xtick_4">
     <g id="line2d_4">
      <g>
       <use style="stroke:#000000;stroke-width:0.8;" x="236.24662" xlink:href="#mfd6f4fa8ec" y="307.584"/>
      </g>
     </g>
     <g id="text_4">
      <!-- 30 -->
      <defs>
       <path d="M 40.578125 39.3125 
Q 47.65625 37.796875 51.625 33 
Q 55.609375 28.21875 55.609375 21.1875 
Q 55.609375 10.40625 48.1875 4.484375 
Q 40.765625 -1.421875 27.09375 -1.421875 
Q 22.515625 -1.421875 17.65625 -0.515625 
Q 12.796875 0.390625 7.625 2.203125 
L 7.625 11.71875 
Q 11.71875 9.328125 16.59375 8.109375 
Q 21.484375 6.890625 26.8125 6.890625 
Q 36.078125 6.890625 40.9375 10.546875 
Q 45.796875 14.203125 45.796875 21.1875 
Q 45.796875 27.640625 41.28125 31.265625 
Q 36.765625 34.90625 28.71875 34.90625 
L 20.21875 34.90625 
L 20.21875 43.015625 
L 29.109375 43.015625 
Q 36.375 43.015625 40.234375 45.921875 
Q 44.09375 48.828125 44.09375 54.296875 
Q 44.09375 59.90625 40.109375 62.90625 
Q 36.140625 65.921875 28.71875 65.921875 
Q 24.65625 65.921875 20.015625 65.03125 
Q 15.375 64.15625 9.8125 62.3125 
L 9.8125 71.09375 
Q 15.4375 72.65625 20.34375 73.4375 
Q 25.25 74.21875 29.59375 74.21875 
Q 40.828125 74.21875 47.359375 69.109375 
Q 53.90625 64.015625 53.90625 55.328125 
Q 53.90625 49.265625 50.4375 45.09375 
Q 46.96875 40.921875 40.578125 39.3125 
z
" id="DejaVuSans-33"/>
      </defs>
      <g transform="translate(229.88412 322.182437)scale(0.1 -0.1)">
       <use xlink:href="#DejaVuSans-33"/>
       <use x="63.623047" xlink:href="#DejaVuSans-30"/>
      </g>
     </g>
    </g>
    <g id="xtick_5">
     <g id="line2d_5">
      <g>
       <use style="stroke:#000000;stroke-width:0.8;" x="290.384585" xlink:href="#mfd6f4fa8ec" y="307.584"/>
      </g>
     </g>
     <g id="text_5">
      <!-- 40 -->
      <defs>
       <path d="M 37.796875 64.3125 
L 12.890625 25.390625 
L 37.796875 25.390625 
z
M 35.203125 72.90625 
L 47.609375 72.90625 
L 47.609375 25.390625 
L 58.015625 25.390625 
L 58.015625 17.1875 
L 47.609375 17.1875 
L 47.609375 0 
L 37.796875 0 
L 37.796875 17.1875 
L 4.890625 17.1875 
L 4.890625 26.703125 
z
" id="DejaVuSans-34"/>
      </defs>
      <g transform="translate(284.022085 322.182437)scale(0.1 -0.1)">
       <use xlink:href="#DejaVuSans-34"/>
       <use x="63.623047" xlink:href="#DejaVuSans-30"/>
      </g>
     </g>
    </g>
    <g id="xtick_6">
     <g id="line2d_6">
      <g>
       <use style="stroke:#000000;stroke-width:0.8;" x="344.522549" xlink:href="#mfd6f4fa8ec" y="307.584"/>
      </g>
     </g>
     <g id="text_6">
      <!-- 50 -->
      <defs>
       <path d="M 10.796875 72.90625 
L 49.515625 72.90625 
L 49.515625 64.59375 
L 19.828125 64.59375 
L 19.828125 46.734375 
Q 21.96875 47.46875 24.109375 47.828125 
Q 26.265625 48.1875 28.421875 48.1875 
Q 40.625 48.1875 47.75 41.5 
Q 54.890625 34.8125 54.890625 23.390625 
Q 54.890625 11.625 47.5625 5.09375 
Q 40.234375 -1.421875 26.90625 -1.421875 
Q 22.3125 -1.421875 17.546875 -0.640625 
Q 12.796875 0.140625 7.71875 1.703125 
L 7.71875 11.625 
Q 12.109375 9.234375 16.796875 8.0625 
Q 21.484375 6.890625 26.703125 6.890625 
Q 35.15625 6.890625 40.078125 11.328125 
Q 45.015625 15.765625 45.015625 23.390625 
Q 45.015625 31 40.078125 35.4375 
Q 35.15625 39.890625 26.703125 39.890625 
Q 22.75 39.890625 18.8125 39.015625 
Q 14.890625 38.140625 10.796875 36.28125 
z
" id="DejaVuSans-35"/>
      </defs>
      <g transform="translate(338.160049 322.182437)scale(0.1 -0.1)">
       <use xlink:href="#DejaVuSans-35"/>
       <use x="63.623047" xlink:href="#DejaVuSans-30"/>
      </g>
     </g>
    </g>
    <g id="xtick_7">
     <g id="line2d_7">
      <g>
       <use style="stroke:#000000;stroke-width:0.8;" x="398.660513" xlink:href="#mfd6f4fa8ec" y="307.584"/>
      </g>
     </g>
     <g id="text_7">
      <!-- 60 -->
      <defs>
       <path d="M 33.015625 40.375 
Q 26.375 40.375 22.484375 35.828125 
Q 18.609375 31.296875 18.609375 23.390625 
Q 18.609375 15.53125 22.484375 10.953125 
Q 26.375 6.390625 33.015625 6.390625 
Q 39.65625 6.390625 43.53125 10.953125 
Q 47.40625 15.53125 47.40625 23.390625 
Q 47.40625 31.296875 43.53125 35.828125 
Q 39.65625 40.375 33.015625 40.375 
z
M 52.59375 71.296875 
L 52.59375 62.3125 
Q 48.875 64.0625 45.09375 64.984375 
Q 41.3125 65.921875 37.59375 65.921875 
Q 27.828125 65.921875 22.671875 59.328125 
Q 17.53125 52.734375 16.796875 39.40625 
Q 19.671875 43.65625 24.015625 45.921875 
Q 28.375 48.1875 33.59375 48.1875 
Q 44.578125 48.1875 50.953125 41.515625 
Q 57.328125 34.859375 57.328125 23.390625 
Q 57.328125 12.15625 50.6875 5.359375 
Q 44.046875 -1.421875 33.015625 -1.421875 
Q 20.359375 -1.421875 13.671875 8.265625 
Q 6.984375 17.96875 6.984375 36.375 
Q 6.984375 53.65625 15.1875 63.9375 
Q 23.390625 74.21875 37.203125 74.21875 
Q 40.921875 74.21875 44.703125 73.484375 
Q 48.484375 72.75 52.59375 71.296875 
z
" id="DejaVuSans-36"/>
      </defs>
      <g transform="translate(392.298013 322.182437)scale(0.1 -0.1)">
       <use xlink:href="#DejaVuSans-36"/>
       <use x="63.623047" xlink:href="#DejaVuSans-30"/>
      </g>
     </g>
    </g>
    <g id="text_8">
     <!-- t(s) -->
     <defs>
      <path d="M 18.3125 70.21875 
L 18.3125 54.6875 
L 36.8125 54.6875 
L 36.8125 47.703125 
L 18.3125 47.703125 
L 18.3125 18.015625 
Q 18.3125 11.328125 20.140625 9.421875 
Q 21.96875 7.515625 27.59375 7.515625 
L 36.8125 7.515625 
L 36.8125 0 
L 27.59375 0 
Q 17.1875 0 13.234375 3.875 
Q 9.28125 7.765625 9.28125 18.015625 
L 9.28125 47.703125 
L 2.6875 47.703125 
L 2.6875 54.6875 
L 9.28125 54.6875 
L 9.28125 70.21875 
z
" id="DejaVuSans-74"/>
      <path d="M 31 75.875 
Q 24.46875 64.65625 21.28125 53.65625 
Q 18.109375 42.671875 18.109375 31.390625 
Q 18.109375 20.125 21.3125 9.0625 
Q 24.515625 -2 31 -13.1875 
L 23.1875 -13.1875 
Q 15.875 -1.703125 12.234375 9.375 
Q 8.59375 20.453125 8.59375 31.390625 
Q 8.59375 42.28125 12.203125 53.3125 
Q 15.828125 64.359375 23.1875 75.875 
z
" id="DejaVuSans-28"/>
      <path d="M 44.28125 53.078125 
L 44.28125 44.578125 
Q 40.484375 46.53125 36.375 47.5 
Q 32.28125 48.484375 27.875 48.484375 
Q 21.1875 48.484375 17.84375 46.4375 
Q 14.5 44.390625 14.5 40.28125 
Q 14.5 37.15625 16.890625 35.375 
Q 19.28125 33.59375 26.515625 31.984375 
L 29.59375 31.296875 
Q 39.15625 29.25 43.1875 25.515625 
Q 47.21875 21.78125 47.21875 15.09375 
Q 47.21875 7.46875 41.1875 3.015625 
Q 35.15625 -1.421875 24.609375 -1.421875 
Q 20.21875 -1.421875 15.453125 -0.5625 
Q 10.6875 0.296875 5.421875 2 
L 5.421875 11.28125 
Q 10.40625 8.6875 15.234375 7.390625 
Q 20.0625 6.109375 24.8125 6.109375 
Q 31.15625 6.109375 34.5625 8.28125 
Q 37.984375 10.453125 37.984375 14.40625 
Q 37.984375 18.0625 35.515625 20.015625 
Q 33.0625 21.96875 24.703125 23.78125 
L 21.578125 24.515625 
Q 13.234375 26.265625 9.515625 29.90625 
Q 5.8125 33.546875 5.8125 39.890625 
Q 5.8125 47.609375 11.28125 51.796875 
Q 16.75 56 26.8125 56 
Q 31.78125 56 36.171875 55.265625 
Q 40.578125 54.546875 44.28125 53.078125 
z
" id="DejaVuSans-73"/>
      <path d="M 8.015625 75.875 
L 15.828125 75.875 
Q 23.140625 64.359375 26.78125 53.3125 
Q 30.421875 42.28125 30.421875 31.390625 
Q 30.421875 20.453125 26.78125 9.375 
Q 23.140625 -1.703125 15.828125 -13.1875 
L 8.015625 -13.1875 
Q 14.5 -2 17.703125 9.0625 
Q 20.90625 20.125 20.90625 31.390625 
Q 20.90625 42.671875 17.703125 53.65625 
Q 14.5 64.65625 8.015625 75.875 
z
" id="DejaVuSans-29"/>
     </defs>
     <g transform="translate(227.693594 335.860562)scale(0.1 -0.1)">
      <use xlink:href="#DejaVuSans-74"/>
      <use x="39.208984" xlink:href="#DejaVuSans-28"/>
      <use x="78.222656" xlink:href="#DejaVuSans-73"/>
      <use x="130.322266" xlink:href="#DejaVuSans-29"/>
     </g>
    </g>
   </g>
   <g id="matplotlib.axis_2">
    <g id="ytick_1">
     <g id="line2d_8">
      <defs>
       <path d="M 0 0 
L -3.5 0 
" id="m4779244d47" style="stroke:#000000;stroke-width:0.8;"/>
      </defs>
      <g>
       <use style="stroke:#000000;stroke-width:0.8;" x="57.6" xlink:href="#m4779244d47" y="273.922316"/>
      </g>
     </g>
     <g id="text_9">
      <!-- 2.98 -->
      <defs>
       <path d="M 10.6875 12.40625 
L 21 12.40625 
L 21 0 
L 10.6875 0 
z
" id="DejaVuSans-2e"/>
       <path d="M 10.984375 1.515625 
L 10.984375 10.5 
Q 14.703125 8.734375 18.5 7.8125 
Q 22.3125 6.890625 25.984375 6.890625 
Q 35.75 6.890625 40.890625 13.453125 
Q 46.046875 20.015625 46.78125 33.40625 
Q 43.953125 29.203125 39.59375 26.953125 
Q 35.25 24.703125 29.984375 24.703125 
Q 19.046875 24.703125 12.671875 31.3125 
Q 6.296875 37.9375 6.296875 49.421875 
Q 6.296875 60.640625 12.9375 67.421875 
Q 19.578125 74.21875 30.609375 74.21875 
Q 43.265625 74.21875 49.921875 64.515625 
Q 56.59375 54.828125 56.59375 36.375 
Q 56.59375 19.140625 48.40625 8.859375 
Q 40.234375 -1.421875 26.421875 -1.421875 
Q 22.703125 -1.421875 18.890625 -0.6875 
Q 15.09375 0.046875 10.984375 1.515625 
z
M 30.609375 32.421875 
Q 37.25 32.421875 41.125 36.953125 
Q 45.015625 41.5 45.015625 49.421875 
Q 45.015625 57.28125 41.125 61.84375 
Q 37.25 66.40625 30.609375 66.40625 
Q 23.96875 66.40625 20.09375 61.84375 
Q 16.21875 57.28125 16.21875 49.421875 
Q 16.21875 41.5 20.09375 36.953125 
Q 23.96875 32.421875 30.609375 32.421875 
z
" id="DejaVuSans-39"/>
       <path d="M 31.78125 34.625 
Q 24.75 34.625 20.71875 30.859375 
Q 16.703125 27.09375 16.703125 20.515625 
Q 16.703125 13.921875 20.71875 10.15625 
Q 24.75 6.390625 31.78125 6.390625 
Q 38.8125 6.390625 42.859375 10.171875 
Q 46.921875 13.96875 46.921875 20.515625 
Q 46.921875 27.09375 42.890625 30.859375 
Q 38.875 34.625 31.78125 34.625 
z
M 21.921875 38.8125 
Q 15.578125 40.375 12.03125 44.71875 
Q 8.5 49.078125 8.5 55.328125 
Q 8.5 64.0625 14.71875 69.140625 
Q 20.953125 74.21875 31.78125 74.21875 
Q 42.671875 74.21875 48.875 69.140625 
Q 55.078125 64.0625 55.078125 55.328125 
Q 55.078125 49.078125 51.53125 44.71875 
Q 48 40.375 41.703125 38.8125 
Q 48.828125 37.15625 52.796875 32.3125 
Q 56.78125 27.484375 56.78125 20.515625 
Q 56.78125 9.90625 50.3125 4.234375 
Q 43.84375 -1.421875 31.78125 -1.421875 
Q 19.734375 -1.421875 13.25 4.234375 
Q 6.78125 9.90625 6.78125 20.515625 
Q 6.78125 27.484375 10.78125 32.3125 
Q 14.796875 37.15625 21.921875 38.8125 
z
M 18.3125 54.390625 
Q 18.3125 48.734375 21.84375 45.5625 
Q 25.390625 42.390625 31.78125 42.390625 
Q 38.140625 42.390625 41.71875 45.5625 
Q 45.3125 48.734375 45.3125 54.390625 
Q 45.3125 60.0625 41.71875 63.234375 
Q 38.140625 66.40625 31.78125 66.40625 
Q 25.390625 66.40625 21.84375 63.234375 
Q 18.3125 60.0625 18.3125 54.390625 
z
" id="DejaVuSans-38"/>
      </defs>
      <g transform="translate(28.334375 277.721535)scale(0.1 -0.1)">
       <use xlink:href="#DejaVuSans-32"/>
       <use x="63.623047" xlink:href="#DejaVuSans-2e"/>
       <use x="95.410156" xlink:href="#DejaVuSans-39"/>
       <use x="159.033203" xlink:href="#DejaVuSans-38"/>
      </g>
     </g>
    </g>
    <g id="ytick_2">
     <g id="line2d_9">
      <g>
       <use style="stroke:#000000;stroke-width:0.8;" x="57.6" xlink:href="#m4779244d47" y="218.010685"/>
      </g>
     </g>
     <g id="text_10">
      <!-- 3.00 -->
      <g transform="translate(28.334375 221.809904)scale(0.1 -0.1)">
       <use xlink:href="#DejaVuSans-33"/>
       <use x="63.623047" xlink:href="#DejaVuSans-2e"/>
       <use x="95.410156" xlink:href="#DejaVuSans-30"/>
       <use x="159.033203" xlink:href="#DejaVuSans-30"/>
      </g>
     </g>
    </g>
    <g id="ytick_3">
     <g id="line2d_10">
      <g>
       <use style="stroke:#000000;stroke-width:0.8;" x="57.6" xlink:href="#m4779244d47" y="162.099053"/>
      </g>
     </g>
     <g id="text_11">
      <!-- 3.02 -->
      <g transform="translate(28.334375 165.898272)scale(0.1 -0.1)">
       <use xlink:href="#DejaVuSans-33"/>
       <use x="63.623047" xlink:href="#DejaVuSans-2e"/>
       <use x="95.410156" xlink:href="#DejaVuSans-30"/>
       <use x="159.033203" xlink:href="#DejaVuSans-32"/>
      </g>
     </g>
    </g>
    <g id="ytick_4">
     <g id="line2d_11">
      <g>
       <use style="stroke:#000000;stroke-width:0.8;" x="57.6" xlink:href="#m4779244d47" y="106.187421"/>
      </g>
     </g>
     <g id="text_12">
      <!-- 3.04 -->
      <g transform="translate(28.334375 109.98664)scale(0.1 -0.1)">
       <use xlink:href="#DejaVuSans-33"/>
       <use x="63.623047" xlink:href="#DejaVuSans-2e"/>
       <use x="95.410156" xlink:href="#DejaVuSans-30"/>
       <use x="159.033203" xlink:href="#DejaVuSans-34"/>
      </g>
     </g>
    </g>
    <g id="ytick_5">
     <g id="line2d_12">
      <g>
       <use style="stroke:#000000;stroke-width:0.8;" x="57.6" xlink:href="#m4779244d47" y="50.27579"/>
      </g>
     </g>
     <g id="text_13">
      <!-- 3.06 -->
      <g transform="translate(28.334375 54.075009)scale(0.1 -0.1)">
       <use xlink:href="#DejaVuSans-33"/>
       <use x="63.623047" xlink:href="#DejaVuSans-2e"/>
       <use x="95.410156" xlink:href="#DejaVuSans-30"/>
       <use x="159.033203" xlink:href="#DejaVuSans-36"/>
      </g>
     </g>
    </g>
    <g id="text_14">
     <!-- Resistance (Ohm) -->
     <defs>
      <path d="M 44.390625 34.1875 
Q 47.5625 33.109375 50.5625 29.59375 
Q 53.5625 26.078125 56.59375 19.921875 
L 66.609375 0 
L 56 0 
L 46.6875 18.703125 
Q 43.0625 26.03125 39.671875 28.421875 
Q 36.28125 30.8125 30.421875 30.8125 
L 19.671875 30.8125 
L 19.671875 0 
L 9.8125 0 
L 9.8125 72.90625 
L 32.078125 72.90625 
Q 44.578125 72.90625 50.734375 67.671875 
Q 56.890625 62.453125 56.890625 51.90625 
Q 56.890625 45.015625 53.6875 40.46875 
Q 50.484375 35.9375 44.390625 34.1875 
z
M 19.671875 64.796875 
L 19.671875 38.921875 
L 32.078125 38.921875 
Q 39.203125 38.921875 42.84375 42.21875 
Q 46.484375 45.515625 46.484375 51.90625 
Q 46.484375 58.296875 42.84375 61.546875 
Q 39.203125 64.796875 32.078125 64.796875 
z
" id="DejaVuSans-52"/>
      <path d="M 56.203125 29.59375 
L 56.203125 25.203125 
L 14.890625 25.203125 
Q 15.484375 15.921875 20.484375 11.0625 
Q 25.484375 6.203125 34.421875 6.203125 
Q 39.59375 6.203125 44.453125 7.46875 
Q 49.3125 8.734375 54.109375 11.28125 
L 54.109375 2.78125 
Q 49.265625 0.734375 44.1875 -0.34375 
Q 39.109375 -1.421875 33.890625 -1.421875 
Q 20.796875 -1.421875 13.15625 6.1875 
Q 5.515625 13.8125 5.515625 26.8125 
Q 5.515625 40.234375 12.765625 48.109375 
Q 20.015625 56 32.328125 56 
Q 43.359375 56 49.78125 48.890625 
Q 56.203125 41.796875 56.203125 29.59375 
z
M 47.21875 32.234375 
Q 47.125 39.59375 43.09375 43.984375 
Q 39.0625 48.390625 32.421875 48.390625 
Q 24.90625 48.390625 20.390625 44.140625 
Q 15.875 39.890625 15.1875 32.171875 
z
" id="DejaVuSans-65"/>
      <path d="M 9.421875 54.6875 
L 18.40625 54.6875 
L 18.40625 0 
L 9.421875 0 
z
M 9.421875 75.984375 
L 18.40625 75.984375 
L 18.40625 64.59375 
L 9.421875 64.59375 
z
" id="DejaVuSans-69"/>
      <path d="M 34.28125 27.484375 
Q 23.390625 27.484375 19.1875 25 
Q 14.984375 22.515625 14.984375 16.5 
Q 14.984375 11.71875 18.140625 8.90625 
Q 21.296875 6.109375 26.703125 6.109375 
Q 34.1875 6.109375 38.703125 11.40625 
Q 43.21875 16.703125 43.21875 25.484375 
L 43.21875 27.484375 
z
M 52.203125 31.203125 
L 52.203125 0 
L 43.21875 0 
L 43.21875 8.296875 
Q 40.140625 3.328125 35.546875 0.953125 
Q 30.953125 -1.421875 24.3125 -1.421875 
Q 15.921875 -1.421875 10.953125 3.296875 
Q 6 8.015625 6 15.921875 
Q 6 25.140625 12.171875 29.828125 
Q 18.359375 34.515625 30.609375 34.515625 
L 43.21875 34.515625 
L 43.21875 35.40625 
Q 43.21875 41.609375 39.140625 45 
Q 35.0625 48.390625 27.6875 48.390625 
Q 23 48.390625 18.546875 47.265625 
Q 14.109375 46.140625 10.015625 43.890625 
L 10.015625 52.203125 
Q 14.9375 54.109375 19.578125 55.046875 
Q 24.21875 56 28.609375 56 
Q 40.484375 56 46.34375 49.84375 
Q 52.203125 43.703125 52.203125 31.203125 
z
" id="DejaVuSans-61"/>
      <path d="M 54.890625 33.015625 
L 54.890625 0 
L 45.90625 0 
L 45.90625 32.71875 
Q 45.90625 40.484375 42.875 44.328125 
Q 39.84375 48.1875 33.796875 48.1875 
Q 26.515625 48.1875 22.3125 43.546875 
Q 18.109375 38.921875 18.109375 30.90625 
L 18.109375 0 
L 9.078125 0 
L 9.078125 54.6875 
L 18.109375 54.6875 
L 18.109375 46.1875 
Q 21.34375 51.125 25.703125 53.5625 
Q 30.078125 56 35.796875 56 
Q 45.21875 56 50.046875 50.171875 
Q 54.890625 44.34375 54.890625 33.015625 
z
" id="DejaVuSans-6e"/>
      <path d="M 48.78125 52.59375 
L 48.78125 44.1875 
Q 44.96875 46.296875 41.140625 47.34375 
Q 37.3125 48.390625 33.40625 48.390625 
Q 24.65625 48.390625 19.8125 42.84375 
Q 14.984375 37.3125 14.984375 27.296875 
Q 14.984375 17.28125 19.8125 11.734375 
Q 24.65625 6.203125 33.40625 6.203125 
Q 37.3125 6.203125 41.140625 7.25 
Q 44.96875 8.296875 48.78125 10.40625 
L 48.78125 2.09375 
Q 45.015625 0.34375 40.984375 -0.53125 
Q 36.96875 -1.421875 32.421875 -1.421875 
Q 20.0625 -1.421875 12.78125 6.34375 
Q 5.515625 14.109375 5.515625 27.296875 
Q 5.515625 40.671875 12.859375 48.328125 
Q 20.21875 56 33.015625 56 
Q 37.15625 56 41.109375 55.140625 
Q 45.0625 54.296875 48.78125 52.59375 
z
" id="DejaVuSans-63"/>
      <path id="DejaVuSans-20"/>
      <path d="M 39.40625 66.21875 
Q 28.65625 66.21875 22.328125 58.203125 
Q 16.015625 50.203125 16.015625 36.375 
Q 16.015625 22.609375 22.328125 14.59375 
Q 28.65625 6.59375 39.40625 6.59375 
Q 50.140625 6.59375 56.421875 14.59375 
Q 62.703125 22.609375 62.703125 36.375 
Q 62.703125 50.203125 56.421875 58.203125 
Q 50.140625 66.21875 39.40625 66.21875 
z
M 39.40625 74.21875 
Q 54.734375 74.21875 63.90625 63.9375 
Q 73.09375 53.65625 73.09375 36.375 
Q 73.09375 19.140625 63.90625 8.859375 
Q 54.734375 -1.421875 39.40625 -1.421875 
Q 24.03125 -1.421875 14.8125 8.828125 
Q 5.609375 19.09375 5.609375 36.375 
Q 5.609375 53.65625 14.8125 63.9375 
Q 24.03125 74.21875 39.40625 74.21875 
z
" id="DejaVuSans-4f"/>
      <path d="M 54.890625 33.015625 
L 54.890625 0 
L 45.90625 0 
L 45.90625 32.71875 
Q 45.90625 40.484375 42.875 44.328125 
Q 39.84375 48.1875 33.796875 48.1875 
Q 26.515625 48.1875 22.3125 43.546875 
Q 18.109375 38.921875 18.109375 30.90625 
L 18.109375 0 
L 9.078125 0 
L 9.078125 75.984375 
L 18.109375 75.984375 
L 18.109375 46.1875 
Q 21.34375 51.125 25.703125 53.5625 
Q 30.078125 56 35.796875 56 
Q 45.21875 56 50.046875 50.171875 
Q 54.890625 44.34375 54.890625 33.015625 
z
" id="DejaVuSans-68"/>
      <path d="M 52 44.1875 
Q 55.375 50.25 60.0625 53.125 
Q 64.75 56 71.09375 56 
Q 79.640625 56 84.28125 50.015625 
Q 88.921875 44.046875 88.921875 33.015625 
L 88.921875 0 
L 79.890625 0 
L 79.890625 32.71875 
Q 79.890625 40.578125 77.09375 44.375 
Q 74.3125 48.1875 68.609375 48.1875 
Q 61.625 48.1875 57.5625 43.546875 
Q 53.515625 38.921875 53.515625 30.90625 
L 53.515625 0 
L 44.484375 0 
L 44.484375 32.71875 
Q 44.484375 40.625 41.703125 44.40625 
Q 38.921875 48.1875 33.109375 48.1875 
Q 26.21875 48.1875 22.15625 43.53125 
Q 18.109375 38.875 18.109375 30.90625 
L 18.109375 0 
L 9.078125 0 
L 9.078125 54.6875 
L 18.109375 54.6875 
L 18.109375 46.1875 
Q 21.1875 51.21875 25.484375 53.609375 
Q 29.78125 56 35.6875 56 
Q 41.65625 56 45.828125 52.96875 
Q 50 49.953125 52 44.1875 
z
" id="DejaVuSans-6d"/>
     </defs>
     <g transform="translate(22.254687 219.158469)rotate(-90)scale(0.1 -0.1)">
      <use xlink:href="#DejaVuSans-52"/>
      <use x="69.419922" xlink:href="#DejaVuSans-65"/>
      <use x="130.943359" xlink:href="#DejaVuSans-73"/>
      <use x="183.042969" xlink:href="#DejaVuSans-69"/>
      <use x="210.826172" xlink:href="#DejaVuSans-73"/>
      <use x="262.925781" xlink:href="#DejaVuSans-74"/>
      <use x="302.134766" xlink:href="#DejaVuSans-61"/>
      <use x="363.414062" xlink:href="#DejaVuSans-6e"/>
      <use x="426.792969" xlink:href="#DejaVuSans-63"/>
      <use x="481.773438" xlink:href="#DejaVuSans-65"/>
      <use x="543.296875" xlink:href="#DejaVuSans-20"/>
      <use x="575.083984" xlink:href="#DejaVuSans-28"/>
      <use x="614.097656" xlink:href="#DejaVuSans-4f"/>
      <use x="692.808594" xlink:href="#DejaVuSans-68"/>
      <use x="756.1875" xlink:href="#DejaVuSans-6d"/>
      <use x="853.599609" xlink:href="#DejaVuSans-29"/>
     </g>
    </g>
    <g id="text_15">
     <!-- 1e7 -->
     <defs>
      <path d="M 8.203125 72.90625 
L 55.078125 72.90625 
L 55.078125 68.703125 
L 28.609375 0 
L 18.3125 0 
L 43.21875 64.59375 
L 8.203125 64.59375 
z
" id="DejaVuSans-37"/>
     </defs>
     <g transform="translate(57.6 38.472)scale(0.1 -0.1)">
      <use xlink:href="#DejaVuSans-31"/>
      <use x="63.623047" xlink:href="#DejaVuSans-65"/>
      <use x="125.146484" xlink:href="#DejaVuSans-37"/>
     </g>
    </g>
   </g>
   <g id="line2d_13">
    <path clip-path="url(#pb1876afda3)" d="M 73.832727 223.881524 
L 74.103418 236.714809 
L 74.374108 222.287925 
L 74.644797 238.446999 
L 74.915487 227.459939 
L 75.186178 241.690918 
L 75.456866 224.244769 
L 75.727557 241.328167 
L 75.998246 223.46196 
L 76.268937 238.05741 
L 76.545039 180.572606 
L 76.81573 267.287918 
L 77.091834 183.556372 
L 77.367937 221.028042 
L 77.64404 170.366197 
L 77.914731 295.488 
L 78.18542 171.774754 
L 78.45611 295.345982 
L 78.726799 172.443776 
L 78.99749 295.319588 
L 79.268179 172.134245 
L 79.544283 271.185915 
L 79.814972 187.754746 
L 80.085663 291.402908 
L 80.356352 175.128261 
L 80.627042 290.78828 
L 80.903147 177.546516 
L 81.173836 283.748336 
L 81.449939 186.019117 
L 81.726043 261.411056 
L 82.002146 208.049449 
L 82.272836 228.23556 
L 82.54894 238.728845 
L 82.81963 226.425049 
L 83.090321 232.830972 
L 83.361009 226.507893 
L 83.637113 258.601312 
L 83.907803 206.09984 
L 84.178492 259.210965 
L 84.449182 200.646477 
L 84.719873 258.873915 
L 84.990562 197.657833 
L 85.261252 285.171468 
L 85.537356 174.381288 
L 85.813459 288.760143 
L 86.08415 170.992038 
L 86.360253 292.298398 
L 86.636356 169.608402 
L 86.907047 289.415766 
L 87.18315 173.130061 
L 87.453839 282.531196 
L 87.729944 185.265706 
L 88.006048 228.42685 
L 88.282149 207.742275 
L 88.55284 244.803968 
L 88.828945 227.993507 
L 89.105048 201.683345 
L 89.375737 251.861454 
L 89.646427 202.186902 
L 89.917118 253.958988 
L 90.193222 179.751825 
L 90.469323 286.41027 
L 90.740014 167.57306 
L 91.010704 288.083929 
L 91.281393 248.29117 
L 91.552083 286.770067 
L 91.822774 168.919264 
L 92.093462 285.93731 
L 92.364153 168.50067 
L 92.634843 282.4205 
L 92.905533 172.110405 
L 93.181636 287.221943 
L 93.452326 163.770186 
L 93.723017 284.054644 
L 93.999118 163.600712 
L 94.269809 285.593226 
L 94.540499 163.79382 
L 94.81119 284.062565 
L 95.087293 171.03529 
L 95.363396 271.595737 
L 95.634087 175.803087 
L 95.904775 271.010404 
L 96.175466 178.49123 
L 96.446155 272.347498 
L 96.716846 242.445778 
L 96.992949 254.930984 
L 97.269052 203.604219 
L 97.539743 243.823016 
L 98.091949 199.278977 
L 98.36264 243.281731 
L 98.633329 198.132311 
L 98.904019 242.470311 
L 99.174708 198.859419 
L 99.445399 272.241714 
L 99.721503 184.168242 
L 100.067986 167.505488 
L 100.344089 270.453495 
L 100.614778 177.177007 
L 100.890883 262.910655 
L 101.161572 183.103705 
L 101.432263 265.228253 
L 101.708365 195.875942 
L 101.979056 243.628748 
L 102.25516 216.780198 
L 102.525848 225.946645 
L 102.796539 218.989461 
L 103.067229 224.438208 
L 103.337919 215.130055 
L 103.614021 198.860568 
L 103.884712 229.249147 
L 104.155401 198.132311 
L 104.426091 244.23324 
L 104.696781 197.572735 
L 104.967471 237.300583 
L 105.238161 175.706344 
L 105.508851 242.612541 
L 105.77954 197.266847 
L 106.050231 239.116904 
L 106.320919 197.210102 
L 106.59161 227.292665 
L 106.8623 204.786923 
L 107.132989 246.131986 
L 107.403679 202.355428 
L 107.67437 238.585548 
L 107.945059 200.230075 
L 108.221162 253.673173 
L 108.491853 161.298142 
L 108.767956 278.335922 
L 109.038646 163.021506 
L 109.309335 278.085651 
L 109.580026 186.147025 
L 109.850716 278.141535 
L 110.126819 157.670769 
L 110.402923 280.928173 
L 110.679027 162.946284 
L 110.949717 276.080305 
L 111.22582 170.013664 
L 111.496509 267.857981 
L 111.7672 187.276166 
L 112.043303 259.751202 
L 112.313993 177.677551 
L 112.584683 262.438185 
L 112.855373 176.916892 
L 113.131476 241.167531 
L 113.40758 211.186668 
L 113.683683 197.685994 
L 113.954373 281.313618 
L 114.225062 187.844851 
L 114.495753 237.159844 
L 114.766443 196.286409 
L 115.042546 258.585894 
L 115.313237 183.863658 
L 115.583926 258.61465 
L 115.854616 183.136879 
L 116.125305 258.562003 
L 116.395996 175.058095 
L 116.666686 259.119713 
L 116.942789 167.58517 
L 117.213478 273.221011 
L 117.484169 158.570101 
L 117.760272 278.139732 
L 118.030962 156.059436 
L 118.307066 279.130336 
L 118.577755 154.844131 
L 118.853858 273.39888 
L 119.129963 168.949191 
L 119.400652 263.473653 
L 119.671343 220.023987 
L 119.947446 215.579088 
L 120.223549 193.530006 
L 120.49424 239.043746 
L 120.770343 199.772367 
L 121.041032 218.765235 
L 121.311723 206.405191 
L 121.858516 233.832727 
L 122.13462 173.095679 
L 122.40531 269.18192 
L 122.681414 157.67741 
L 122.957517 276.015056 
L 123.23362 151.401261 
L 123.504311 275.59077 
L 123.780415 157.124032 
L 124.056517 262.441291 
L 124.327207 164.467493 
L 124.597897 260.986982 
L 124.868586 160.38685 
L 125.139276 264.422198 
L 125.409967 189.303042 
L 125.680655 232.369205 
L 125.951346 162.512144 
L 126.222036 259.728281 
L 126.492726 162.36998 
L 126.768829 252.128339 
L 127.039519 169.245821 
L 127.31021 252.352381 
L 127.580898 173.585275 
L 127.857002 232.983772 
L 128.127692 211.546233 
L 128.398383 233.373939 
L 128.674486 209.060707 
L 128.950589 196.874608 
L 129.22128 225.726644 
L 129.491968 189.158263 
L 129.762659 233.357507 
L 130.038763 166.60682 
L 130.314866 270.564042 
L 130.585556 160.364925 
L 130.856245 268.553946 
L 131.126936 178.854686 
L 131.40304 260.376873 
L 131.679142 147.151836 
L 131.949833 270.393267 
L 132.220522 149.669522 
L 132.491212 269.474419 
L 132.761901 148.547075 
L 133.032592 270.114414 
L 133.308697 152.481153 
L 133.584798 255.346541 
L 133.855489 181.571765 
L 134.131593 251.542029 
L 134.402282 164.044414 
L 134.672972 253.724388 
L 134.943662 170.036848 
L 135.214353 248.222623 
L 135.490455 183.5913 
L 135.761145 230.07939 
L 136.313351 188.766854 
L 136.584042 216.780567 
L 136.854732 161.031676 
L 137.125423 264.720182 
L 137.396111 182.530852 
L 137.666802 227.767655 
L 137.937491 187.705671 
L 138.208181 227.403651 
L 138.47887 187.173878 
L 138.749561 227.263042 
L 139.025666 168.454643 
L 139.301767 265.732971 
L 139.572458 149.256099 
L 139.848562 268.977119 
L 140.119251 145.924575 
L 140.395355 270.114935 
L 140.666044 146.420923 
L 140.936735 268.32389 
L 141.212838 152.563129 
L 141.488941 256.798259 
L 141.759632 154.599395 
L 142.030322 255.318616 
L 142.306425 171.268382 
L 142.582529 147.319682 
L 142.858633 225.170596 
L 143.134736 193.828179 
L 143.410839 236.373065 
L 143.68153 167.562754 
L 143.952219 248.027127 
L 144.222909 169.907921 
L 144.493599 248.024126 
L 144.764289 164.229063 
L 145.034978 240.981866 
L 145.305669 146.448852 
L 145.581772 253.359238 
L 145.852462 151.584402 
L 146.123151 262.404508 
L 146.393841 148.895924 
L 146.669946 267.744683 
L 146.946049 142.69639 
L 147.222152 262.566349 
L 147.498256 156.243638 
L 147.77436 244.62038 
L 148.050463 181.297777 
L 148.321153 168.737755 
L 148.591842 185.301879 
L 148.862533 231.584045 
L 149.138636 195.441539 
L 149.414739 190.502987 
L 149.68543 220.358809 
L 149.95612 186.334528 
L 150.226809 219.268684 
L 150.502913 169.660091 
L 150.773603 239.084312 
L 151.044292 146.091066 
L 151.320395 254.393149 
L 151.591086 146.801709 
L 151.867191 265.477712 
L 152.143292 141.643196 
L 152.413983 264.527812 
L 152.684673 140.765971 
L 152.955363 263.663096 
L 153.231466 146.840558 
L 153.507569 251.075983 
L 153.783674 155.365383 
L 154.054363 163.311058 
L 154.325053 174.589556 
L 154.595744 244.565331 
L 154.866433 156.90064 
L 155.142536 229.014053 
L 155.41864 187.548219 
L 155.68933 214.490435 
L 155.96002 187.857429 
L 156.230709 213.484604 
L 156.506813 211.469416 
L 156.782918 146.066701 
L 157.059019 251.460751 
L 157.32971 149.662065 
L 157.6004 251.79609 
L 157.871091 150.666816 
L 158.147194 261.849249 
L 158.423297 137.837204 
L 158.693987 262.402733 
L 158.970092 142.449133 
L 159.246193 253.169437 
L 159.516884 147.606264 
L 159.787574 185.946967 
L 160.058263 165.430704 
L 160.334368 245.849783 
L 160.605057 151.094052 
L 160.875748 244.813692 
L 161.15185 162.872113 
L 161.422541 231.303164 
L 161.698645 175.091269 
L 161.969333 225.523512 
L 162.240024 180.885473 
L 162.516127 155.731978 
L 162.786818 205.680444 
L 163.062921 172.158562 
L 163.33361 225.530047 
L 163.604301 171.625028 
L 163.874989 228.017466 
L 164.151094 152.246111 
L 164.421783 240.898258 
L 164.692474 148.426694 
L 164.968577 257.54642 
L 165.24468 134.701615 
L 165.515371 185.331316 
L 165.786059 148.522576 
L 166.05675 258.495181 
L 166.32744 133.354587 
L 166.59813 258.465624 
L 166.874233 135.365568 
L 167.144923 255.974545 
L 167.415614 135.003524 
L 167.686302 255.586833 
L 167.956993 134.44566 
L 168.233096 247.281158 
L 168.503787 139.553535 
L 168.77989 242.306491 
L 169.050579 148.606693 
L 169.32127 242.665099 
L 169.591958 142.696479 
L 169.862649 241.272756 
L 170.133339 145.829628 
L 170.40403 240.461567 
L 170.680131 150.913368 
L 170.950822 228.537711 
L 171.226926 244.961904 
L 171.503028 149.121643 
L 171.773719 192.951749 
L 172.044409 190.454517 
L 172.315099 190.15555 
L 172.591202 174.846905 
L 172.861892 206.073432 
L 173.132583 178.870586 
L 173.403271 205.123698 
L 173.673962 177.275395 
L 173.944651 203.612576 
L 174.220756 158.048231 
L 174.496859 252.152207 
L 174.767548 135.078566 
L 175.043653 254.114074 
L 175.314341 131.60419 
L 175.585032 253.553067 
L 175.855721 129.47475 
L 176.131825 253.489381 
L 176.407928 136.600645 
L 176.678618 248.1515 
L 176.949309 136.476503 
L 177.225413 242.280019 
L 177.501515 145.926424 
L 177.772206 230.490586 
L 178.04831 160.221825 
L 178.318998 222.004652 
L 178.589689 162.968204 
L 178.860379 222.228091 
L 179.131069 166.076912 
L 179.407171 202.028748 
L 179.677862 179.470998 
L 179.948552 205.660266 
L 180.219241 180.808989 
L 180.489931 201.106375 
L 180.760622 181.53624 
L 181.036726 183.097013 
L 181.312827 226.535418 
L 181.583518 167.322229 
L 181.854208 228.519549 
L 182.124897 159.878917 
L 182.395587 221.337261 
L 182.666278 131.297154 
L 182.936967 221.532448 
L 183.21307 139.031079 
L 183.489175 249.80628 
L 183.759864 130.653131 
L 184.030554 249.192225 
L 184.301243 128.447799 
L 184.571934 248.883338 
L 184.848038 123.811862 
L 185.118727 249.469115 
L 185.389418 124.574723 
L 185.660107 248.713555 
L 185.93621 142.483176 
L 186.2069 243.910704 
L 186.477591 126.220646 
L 186.74828 245.333713 
L 187.024383 130.99065 
L 187.295074 238.623731 
L 187.571177 132.731243 
L 187.841866 229.207866 
L 188.112556 138.442388 
L 188.383247 207.846863 
L 188.659351 148.177823 
L 188.935453 200.71814 
L 189.206144 159.00053 
L 189.476833 205.245345 
L 189.747523 163.877747 
L 190.018212 200.217421 
L 190.288903 165.080701 
L 190.559593 205.272386 
L 190.835696 182.464269 
L 191.106387 187.799511 
L 191.38249 206.940624 
L 191.65318 124.356548 
L 191.923869 207.723459 
L 192.19456 175.995614 
L 192.465249 204.367837 
L 192.741352 139.312327 
L 193.017456 241.929143 
L 193.288146 127.21617 
L 193.558837 240.811686 
L 193.83494 122.070429 
L 194.105629 241.957085 
L 194.37632 121.534155 
L 194.652422 243.603368 
L 194.923113 121.554406 
L 195.199217 238.740426 
L 195.47532 129.210088 
L 195.751423 224.795196 
L 196.022114 141.841605 
L 196.292803 223.455426 
L 196.568908 155.328228 
L 196.84501 193.617942 
L 197.1157 173.17644 
L 197.386391 194.510889 
L 197.657079 171.691768 
L 197.92777 196.077652 
L 198.19846 170.965951 
L 198.46915 195.85258 
L 198.745252 186.782477 
L 199.015943 168.168456 
L 199.292047 216.808861 
L 199.568149 131.022864 
L 199.83884 241.653503 
L 200.114944 120.499179 
L 200.385634 241.815709 
L 200.661737 118.168485 
L 200.937841 239.857495 
L 201.20853 122.088802 
L 201.484635 232.728829 
L 201.760738 134.994946 
L 202.031427 226.415971 
L 202.302118 128.41212 
L 202.572806 222.143269 
L 202.848911 147.009389 
L 203.1196 211.839238 
L 203.390291 144.572373 
L 203.666394 196.72368 
L 203.942497 178.859231 
L 204.213188 178.970074 
L 204.483876 184.262953 
L 204.754567 177.404284 
L 205.025256 177.773011 
L 205.295947 179.88429 
L 205.57205 226.928679 
L 205.848153 132.393412 
L 206.118844 223.543834 
L 206.394948 116.96759 
L 206.67105 240.166796 
L 206.941741 116.194498 
L 207.217845 238.825279 
L 207.488533 115.67258 
L 207.759224 239.550403 
L 208.029914 115.335835 
L 208.300605 240.556824 
L 208.576706 121.906535 
L 208.847397 231.22084 
L 209.118087 118.883928 
L 209.388776 234.156069 
L 209.659466 118.939884 
L 209.930157 232.78749 
L 210.206261 127.053321 
L 210.482363 218.792486 
L 210.753054 136.074217 
L 211.029158 208.376526 
L 211.299846 178.586641 
L 211.570537 206.671056 
L 211.841227 147.372504 
L 212.111917 208.292556 
L 212.388019 164.508203 
L 212.65871 186.573596 
L 212.929399 168.566013 
L 213.200089 193.365978 
L 213.470779 166.607334 
L 213.741469 183.080935 
L 214.017574 189.60786 
L 214.293675 136.51973 
L 214.564366 236.421784 
L 214.835056 139.68843 
L 215.105745 206.299306 
L 215.376435 141.354664 
L 215.647126 211.806107 
L 215.917814 141.054732 
L 216.188505 205.935584 
L 216.459194 152.807942 
L 216.729885 207.863535 
L 217.005988 113.414095 
L 217.282091 233.601299 
L 217.552782 111.875209 
L 217.823472 234.021202 
L 218.099575 110.383941 
L 218.370265 236.169798 
L 218.640955 111.538449 
L 218.911645 236.33852 
L 219.182334 112.185047 
L 219.458438 232.399441 
L 219.729128 113.130915 
L 220.005231 201.226024 
L 220.275922 140.431827 
L 220.552025 216.167555 
L 220.822714 127.071293 
L 221.098819 209.241591 
L 221.369508 136.658522 
L 221.640199 211.7276 
L 221.916301 153.162413 
L 222.186992 193.707838 
L 222.463096 175.896592 
L 222.733784 147.01995 
L 223.004475 172.288295 
L 223.275165 170.107829 
L 223.551269 190.196039 
L 223.821957 153.255302 
L 224.092648 193.551058 
L 224.363337 148.42518 
L 224.634027 186.839327 
L 224.904717 150.825469 
L 225.175407 180.912946 
L 225.446097 152.117509 
L 225.7222 220.356627 
L 225.998304 108.918639 
L 226.274408 231.591236 
L 226.545098 109.247777 
L 226.821201 230.108657 
L 227.097305 112.786787 
L 227.367995 225.692619 
L 227.644098 117.661784 
L 227.914787 215.553202 
L 228.185478 119.897519 
L 228.456168 203.264613 
L 228.726857 118.634244 
L 229.002962 214.046271 
L 229.273651 127.323203 
L 229.544341 212.566324 
L 229.81503 124.744391 
L 230.085721 213.599533 
L 230.356411 126.117794 
L 230.637927 191.222756 
L 230.908618 160.19595 
L 231.184721 156.256288 
L 231.455412 222.507659 
L 231.731515 110.242028 
L 232.007618 219.352108 
L 232.278309 116.164489 
L 232.548997 218.094525 
L 232.819688 118.692903 
L 233.090377 217.451714 
L 233.361068 116.961861 
L 233.637171 230.695141 
L 233.907861 108.461216 
L 234.178551 226.839955 
L 234.454653 108.330123 
L 234.725344 232.872775 
L 235.001448 110.859547 
L 235.272138 230.106481 
L 235.548241 117.729796 
L 235.81893 223.596932 
L 236.089621 118.259423 
L 236.36031 222.590996 
L 236.631 114.557684 
L 236.90169 218.681075 
L 237.172381 217.312034 
L 237.448484 185.979637 
L 237.724587 131.720219 
L 237.995278 204.35422 
L 238.265966 127.93444 
L 238.536657 203.685968 
L 238.812761 148.848578 
L 239.364967 188.54496 
L 239.635658 146.526949 
L 239.906347 213.174522 
L 240.177038 142.301793 
L 240.45314 211.750397 
L 240.723831 120.074161 
L 240.99452 209.318251 
L 241.270623 109.372718 
L 241.541314 220.66524 
L 241.812004 107.065805 
L 242.082694 222.453127 
L 242.358796 103.782019 
L 242.629487 226.337521 
L 242.905591 186.392025 
L 243.181693 198.486946 
L 243.452384 110.319366 
L 243.723073 223.038759 
L 243.993764 109.923332 
L 244.269867 215.078608 
L 244.54597 126.432108 
L 244.816661 204.21734 
L 245.092765 139.297772 
L 245.639558 192.449611 
L 245.915662 150.605843 
L 246.18635 180.156239 
L 246.457041 147.195062 
L 246.733144 201.886306 
L 247.003835 120.806136 
L 247.279938 216.278256 
L 247.550628 111.664182 
L 247.821318 212.33815 
L 248.092007 105.706317 
L 248.368111 223.319635 
L 248.6388 158.353487 
L 248.909491 216.334308 
L 249.18018 100.912697 
L 249.45087 223.095796 
L 249.72156 99.307505 
L 249.99225 222.872517 
L 250.262939 102.930259 
L 250.53363 222.593102 
L 250.804318 99.652695 
L 251.080423 223.543004 
L 251.351113 100.687733 
L 251.627216 218.709147 
L 251.897906 104.845668 
L 252.168596 218.597411 
L 252.439286 103.537645 
L 252.715391 216.725886 
L 252.991492 115.344526 
L 253.262183 203.127202 
L 253.538287 130.133637 
L 253.814389 185.300919 
L 254.08508 145.025061 
L 254.355769 172.924714 
L 254.62646 141.178707 
L 255.173253 169.253304 
L 255.449357 132.651336 
L 255.725461 206.46828 
L 256.001563 102.257752 
L 256.272254 220.525426 
L 256.548358 98.00343 
L 256.819046 222.45326 
L 257.089737 98.289157 
L 257.360427 222.53663 
L 257.631118 97.141083 
L 257.907219 218.290064 
L 258.17791 98.3623 
L 258.4486 221.251097 
L 258.719289 98.749174 
L 258.989979 222.00561 
L 259.26067 96.588949 
L 259.531359 221.307065 
L 259.807462 101.472158 
L 260.078153 202.564248 
L 260.354256 109.30202 
L 260.624946 203.602629 
L 260.90105 117.814641 
L 261.17174 192.57092 
L 261.447844 134.772212 
L 261.718532 179.824869 
L 261.989223 132.079317 
L 262.259912 179.41203 
L 262.530602 133.764957 
L 262.801292 179.683667 
L 263.071982 202.415862 
L 263.348087 116.325715 
L 263.624188 178.315808 
L 263.894879 136.855763 
L 264.170984 196.628334 
L 264.447086 111.03583 
L 264.723189 217.56366 
L 264.99388 93.499661 
L 265.269983 216.949064 
L 265.540673 93.27712 
L 265.811362 203.257096 
L 266.082053 91.560618 
L 266.352743 214.825346 
L 266.634259 101.948987 
L 266.90495 209.9949 
L 267.17564 104.925886 
L 267.44633 207.537518 
L 267.722433 109.480556 
L 267.993123 197.265031 
L 268.263814 113.542727 
L 268.539916 184.24688 
L 268.810606 126.58212 
L 269.081296 156.018324 
L 269.351987 123.645534 
L 269.62809 166.007793 
L 269.904193 165.755517 
L 270.174884 148.355936 
L 270.445572 161.021345 
L 270.716263 144.40891 
L 270.986952 163.716147 
L 271.257643 148.079919 
L 271.533746 212.728145 
L 271.809849 113.079541 
L 272.08054 198.866885 
L 272.351228 112.95296 
L 272.621919 203.813106 
L 272.898023 94.365609 
L 273.168713 214.238309 
L 273.444816 92.057878 
L 273.715505 217.926872 
L 273.986196 92.776104 
L 274.256885 216.306232 
L 274.527575 91.480489 
L 274.798265 210.775266 
L 275.068956 90.727716 
L 275.345059 211.557022 
L 275.621162 95.494154 
L 275.891853 207.536262 
L 276.162541 98.113305 
L 276.433232 208.262391 
L 276.703921 98.104904 
L 276.974612 208.848415 
L 277.250715 126.095325 
L 277.526818 192.376469 
L 277.797509 116.939271 
L 278.073613 173.321153 
L 278.349715 148.288947 
L 278.620406 149.450152 
L 278.89651 174.067658 
L 279.167198 134.311809 
L 279.437889 171.30072 
L 279.708579 133.778127 
L 279.97927 168.808449 
L 280.255371 105.00281 
L 280.526062 207.113692 
L 280.802166 91.298613 
L 281.078268 209.459967 
L 281.348959 87.330546 
L 281.619648 210.773458 
L 281.890339 88.253586 
L 282.166442 212.953817 
L 282.437132 89.485273 
L 282.713236 208.736958 
L 282.983924 103.822515 
L 283.254615 209.490721 
L 283.525305 95.44655 
L 283.795996 206.947373 
L 284.072099 102.151956 
L 284.348202 191.849833 
L 284.618892 106.963381 
L 284.889581 193.188992 
L 285.160272 105.854901 
L 285.430961 193.415061 
L 285.701652 105.166194 
L 285.977755 176.846212 
L 286.253858 171.239669 
L 286.524549 161.714619 
L 286.795237 139.266242 
L 287.065928 159.829948 
L 287.342032 161.953108 
L 287.618135 123.564605 
L 287.888825 184.386227 
L 288.164929 97.063216 
L 288.435618 201.074372 
L 288.706309 92.957706 
L 288.982411 210.132029 
L 289.253102 86.317005 
L 289.523791 208.147115 
L 289.794481 87.907521 
L 290.065171 208.203587 
L 290.335861 85.612398 
L 290.60655 208.762489 
L 290.877241 85.620346 
L 291.14793 205.771912 
L 291.418621 83.555537 
L 291.694724 208.287895 
L 291.965413 93.526283 
L 292.236104 206.805109 
L 292.506793 84.586726 
L 292.777483 207.280266 
L 293.048173 83.711547 
L 293.318864 207.645504 
L 293.594966 84.922391 
L 293.865656 204.656352 
L 294.141761 93.643859 
L 294.417862 175.480335 
L 294.688553 102.71743 
L 294.964657 185.618865 
L 295.235347 109.577803 
L 295.506037 182.097215 
L 295.776726 102.020276 
L 296.047417 181.146241 
L 296.32352 125.580893 
L 296.605036 131.849137 
L 296.875727 168.389112 
L 297.151831 102.058332 
L 297.42252 185.171468 
L 297.698624 86.877763 
L 297.974728 205.073223 
L 298.245418 82.350365 
L 298.516107 204.878018 
L 298.786797 82.491577 
L 299.062901 205.996652 
L 299.333591 83.118712 
L 299.609694 200.103542 
L 299.880385 88.283569 
L 300.156488 176.792416 
L 300.427177 93.21843 
L 300.697867 193.74232 
L 300.968558 94.429277 
L 301.239247 198.45921 
L 301.51535 102.100764 
L 301.791454 173.74852 
L 302.062144 115.677003 
L 302.332833 177.960893 
L 302.603523 115.114254 
L 302.874214 174.671365 
L 303.144903 136.929477 
L 303.415593 140.699587 
L 303.691697 133.819058 
L 303.9678 144.898011 
L 304.23849 149.741217 
L 304.509179 143.391042 
L 304.77987 142.041059 
L 305.05056 141.847081 
L 305.326663 172.757007 
L 305.602767 102.34379 
L 305.873457 202.918619 
L 306.144146 102.003558 
L 306.414836 189.952305 
L 306.685527 93.579266 
L 306.956216 190.764663 
L 307.232319 83.004113 
L 307.50301 201.581701 
L 307.779113 79.508644 
L 308.049804 203.14488 
L 308.325907 83.654257 
L 308.60201 194.968105 
L 308.872701 88.153469 
L 309.143389 182.631352 
L 309.41408 85.994779 
L 309.684769 196.447339 
L 309.95546 87.676497 
L 310.231563 187.879203 
L 310.502253 93.167457 
L 310.772943 191.482636 
L 311.043632 95.374626 
L 311.319736 180.590679 
L 311.590426 116.22036 
L 311.861116 184.841301 
L 312.137219 113.256116 
L 312.407909 168.162891 
L 312.6786 114.825024 
L 312.949288 173.69621 
L 313.219979 114.5214 
L 313.490668 169.781631 
L 313.761358 112.764668 
L 314.032048 172.99048 
L 314.302738 113.386589 
L 314.578841 78.900164 
L 314.849531 161.823852 
L 315.125635 128.635048 
L 315.396325 157.149656 
L 315.667014 134.174547 
L 315.937704 148.987775 
L 316.208395 130.286212 
L 316.479084 154.163432 
L 316.755187 103.472738 
L 317.025877 176.699012 
L 317.296568 108.006104 
L 317.572672 190.456721 
L 317.848774 78.918395 
L 318.119465 203.062395 
L 318.390154 80.539576 
L 318.666257 202.419135 
L 318.936948 78.930921 
L 319.207637 201.106038 
L 319.483742 78.669407 
L 319.759845 191.532402 
L 320.035948 93.82046 
L 320.306639 143.931671 
L 320.577327 122.383117 
L 320.848018 185.953633 
L 321.118707 92.715926 
L 321.389398 182.123349 
L 321.665501 100.285197 
L 321.936191 174.531307 
L 322.206881 104.729996 
L 322.482983 160.326918 
L 322.753674 120.490397 
L 323.029778 103.165503 
L 323.305881 162.043701 
L 323.576571 110.75716 
L 323.852675 177.681735 
L 324.123365 88.948132 
L 324.394055 177.180712 
L 324.670157 75.237109 
L 324.940848 190.541929 
L 325.211538 75.962982 
L 325.482227 191.688678 
L 325.752917 80.112669 
L 326.023608 153.229086 
L 326.294296 77.189574 
L 326.564987 194.259879 
L 326.841091 74.522736 
L 327.11178 198.17138 
L 327.387883 75.541959 
L 327.658573 196.94485 
L 327.929264 75.683251 
L 328.199952 197.614361 
L 328.470643 74.714957 
L 328.741333 199.768307 
L 329.012023 76.318127 
L 329.288126 193.259405 
L 329.564229 88.940357 
L 329.83492 186.060543 
L 330.105608 88.468489 
L 330.376299 187.542272 
L 330.646989 84.937061 
L 330.91768 186.898085 
L 331.193783 92.098966 
L 331.464472 180.957411 
L 331.735163 171.07944 
L 332.011265 153.747973 
L 332.281956 109.192581 
L 332.55806 149.724911 
L 332.828749 123.070732 
L 333.099439 148.292994 
L 333.370129 121.357617 
L 333.916921 141.735015 
L 334.187612 131.089828 
L 334.458302 180.123735 
L 334.734406 118.788549 
L 335.005095 155.81397 
L 335.275785 114.580372 
L 335.546476 153.909922 
L 335.817164 117.853923 
L 336.087855 156.706033 
L 336.358544 120.202657 
L 336.629235 148.425876 
L 336.905337 91.323965 
L 337.176028 179.050407 
L 337.452132 127.264116 
L 337.728234 184.4532 
L 337.998925 73.923825 
L 338.269614 197.332893 
L 338.540305 74.468231 
L 338.816408 195.938392 
L 339.092511 78.966144 
L 339.363202 190.552085 
L 339.639306 85.163609 
L 339.915408 175.849261 
L 340.186099 93.535578 
L 340.462203 158.262188 
L 340.732891 109.234715 
L 341.008995 145.055257 
L 341.279685 125.94147 
L 341.550376 142.285258 
L 341.821064 124.033095 
L 342.091755 142.930197 
L 342.362445 123.185962 
L 342.633134 144.185379 
L 342.903824 126.479264 
L 343.174515 84.999691 
L 343.450619 187.536408 
L 343.72672 107.210707 
L 343.997411 167.363863 
L 344.268101 98.447704 
L 344.53879 166.574041 
L 344.80948 100.980486 
L 345.080171 168.061134 
L 345.35086 101.782086 
L 345.626963 187.046169 
L 345.897654 79.978337 
L 346.173757 191.130361 
L 346.444447 71.522702 
L 346.720551 196.860188 
L 346.991241 72.190983 
L 347.261931 196.021552 
L 347.538033 74.631028 
L 347.808724 194.599631 
L 348.079414 75.392103 
L 348.350103 190.824628 
L 348.620793 74.225769 
L 348.891484 78.536452 
L 349.167588 99.067031 
L 349.443689 179.533743 
L 349.71438 85.02235 
L 349.98507 175.927562 
L 350.255759 86.700182 
L 350.531864 167.55104 
L 350.802553 92.985776 
L 351.078658 151.413967 
L 351.349346 111.087641 
L 351.620037 152.225393 
L 351.896141 127.625853 
L 352.16683 130.535224 
L 352.442933 153.071273 
L 352.719038 85.172738 
L 352.989727 174.717949 
L 353.265832 77.696021 
L 353.541934 191.158572 
L 353.812624 67.831809 
L 354.083315 190.849854 
L 354.359417 68.138976 
L 354.630107 166.629017 
L 354.900797 70.307863 
L 355.171488 191.134659 
L 355.447591 73.278016 
L 355.71828 187.697419 
L 355.988971 73.407296 
L 356.25966 185.158956 
L 356.535764 80.5405 
L 356.811868 165.685845 
L 357.087971 103.757406 
L 357.358661 136.014406 
L 357.634765 116.545384 
L 357.905454 134.770265 
L 358.176145 120.126176 
L 358.452247 118.686651 
L 358.722938 146.215842 
L 358.999042 92.892573 
L 359.26973 164.825127 
L 359.540421 86.854627 
L 359.816524 178.327315 
L 360.087215 80.264929 
L 360.363318 187.471469 
L 360.639421 74.128069 
L 360.910112 189.399665 
L 361.1808 65.549339 
L 361.451491 188.449395 
L 361.72218 64.548398 
L 361.992871 187.051121 
L 362.268974 67.495509 
L 362.539664 184.766203 
L 362.810355 64.254817 
L 363.081043 169.506066 
L 363.351734 66.042237 
L 363.622423 183.981939 
L 363.893114 66.498958 
L 364.169216 176.559073 
L 364.439907 73.659602 
L 364.716011 169.311259 
L 364.986699 81.366419 
L 365.25739 169.753705 
L 365.52808 79.618328 
L 365.798771 167.836801 
L 366.074872 186.103649 
L 366.345563 124.989395 
L 366.616253 91.437425 
L 366.886942 157.741098 
L 367.163046 105.864045 
L 367.433736 147.253794 
L 367.704427 104.424883 
L 367.980529 128.066858 
L 368.251219 127.75487 
L 368.527324 98.419742 
L 368.803425 169.464055 
L 369.074116 78.100169 
L 369.344806 169.382154 
L 369.615497 78.571394 
L 369.8916 182.161656 
L 370.162289 64.333837 
L 370.43298 181.711689 
L 370.709082 60.605718 
L 370.979773 184.059986 
L 371.250462 59.371724 
L 371.521153 182.916078 
L 371.797256 127.009044 
L 372.067946 162.27506 
L 372.338636 59.371724 
L 372.609325 181.742533 
L 372.880015 58.920961 
L 373.150705 180.821576 
L 373.421396 56.248836 
L 373.697498 177.807594 
L 373.968188 61.209876 
L 374.238878 177.613641 
L 374.509568 60.954911 
L 374.785672 167.964909 
L 375.061775 81.576004 
L 375.332466 160.795588 
L 375.608569 90.391904 
L 375.879258 150.81283 
L 376.149949 87.004094 
L 376.420637 153.191999 
L 376.691328 88.979968 
L 376.962018 154.313536 
L 377.232709 86.259 
L 377.50881 101.658517 
L 377.779501 99.868212 
L 378.050191 129.089069 
L 378.32088 103.149056 
L 378.59157 127.698129 
L 378.862261 103.603898 
L 379.132949 130.246227 
L 379.40364 104.330041 
L 379.674329 127.898235 
L 379.94502 108.030127 
L 380.221123 106.233273 
L 380.497226 178.304926 
L 380.767917 59.985565 
L 381.044021 173.045515 
L 381.320123 58.333501 
L 381.590814 180.234066 
L 381.861503 58.167255 
L 382.132193 180.626365 
L 382.402882 57.408743 
L 382.673573 178.894839 
L 382.944263 58.229598 
L 383.220366 176.154638 
L 383.491057 57.890719 
L 383.76716 176.712225 
L 384.037849 60.231015 
L 384.308539 177.693423 
L 384.57923 61.221127 
L 384.855334 172.255662 
L 385.131436 75.850137 
L 385.402126 163.302685 
L 385.672816 77.859399 
L 385.943506 162.830139 
L 386.490299 111.381639 
L 386.76099 83.924397 
L 387.037092 137.448145 
L 387.307783 98.184858 
L 387.578472 133.506875 
L 387.849162 95.92238 
L 388.119851 138.851979 
L 388.390542 98.411068 
L 388.661232 144.750712 
L 388.937335 146.413726 
L 389.208026 116.004599 
L 389.478715 123.92337 
L 389.754818 104.673274 
L 390.025508 139.06425 
L 390.296199 91.749594 
L 390.572303 161.36294 
L 390.842991 71.175107 
L 391.113682 164.437601 
L 391.389785 56.942846 
L 391.660475 167.987283 
L 391.931164 101.115531 
L 392.201855 171.877777 
L 392.472545 57.061179 
L 392.748648 176.962884 
L 393.019338 53.568 
L 393.295441 177.552915 
L 393.566131 55.272905 
L 393.842235 171.418124 
L 394.112925 58.900263 
L 394.389029 163.807528 
L 394.665132 98.594249 
L 394.941235 140.413834 
L 395.211926 90.826886 
L 395.48803 120.789346 
L 395.758718 112.356634 
L 396.034823 99.049171 
L 396.310927 156.077938 
L 396.581616 77.911419 
L 396.857719 171.594177 
L 397.128409 61.718566 
L 397.3991 170.840607 
L 397.669788 70.946985 
L 397.940479 174.131901 
L 398.216583 54.255811 
L 398.487273 176.769346 
L 398.487273 176.769346 
" style="fill:none;stroke:#1f77b4;stroke-linecap:square;stroke-width:1.5;"/>
   </g>
   <g id="patch_3">
    <path d="M 57.6 307.584 
L 57.6 41.472 
" style="fill:none;stroke:#000000;stroke-linecap:square;stroke-linejoin:miter;stroke-width:0.8;"/>
   </g>
   <g id="patch_4">
    <path d="M 414.72 307.584 
L 414.72 41.472 
" style="fill:none;stroke:#000000;stroke-linecap:square;stroke-linejoin:miter;stroke-width:0.8;"/>
   </g>
   <g id="patch_5">
    <path d="M 57.6 307.584 
L 414.72 307.584 
" style="fill:none;stroke:#000000;stroke-linecap:square;stroke-linejoin:miter;stroke-width:0.8;"/>
   </g>
   <g id="patch_6">
    <path d="M 57.6 41.472 
L 414.72 41.472 
" style="fill:none;stroke:#000000;stroke-linecap:square;stroke-linejoin:miter;stroke-width:0.8;"/>
   </g>
   <g id="text_16">
    <!-- Resistance -->
    <g transform="translate(203.562187 35.472)scale(0.12 -0.12)">
     <use xlink:href="#DejaVuSans-52"/>
     <use x="69.419922" xlink:href="#DejaVuSans-65"/>
     <use x="130.943359" xlink:href="#DejaVuSans-73"/>
     <use x="183.042969" xlink:href="#DejaVuSans-69"/>
     <use x="210.826172" xlink:href="#DejaVuSans-73"/>
     <use x="262.925781" xlink:href="#DejaVuSans-74"/>
     <use x="302.134766" xlink:href="#DejaVuSans-61"/>
     <use x="363.414062" xlink:href="#DejaVuSans-6e"/>
     <use x="426.792969" xlink:href="#DejaVuSans-63"/>
     <use x="481.773438" xlink:href="#DejaVuSans-65"/>
    </g>
   </g>
  </g>
 </g>
 <defs>
  <clipPath id="pb1876afda3">
   <rect height="266.112" width="357.12" x="57.6" y="41.472"/>
  </clipPath>
 </defs>
</svg>
