<?xml version="1.0" encoding="utf-8" standalone="no"?>
<!DOCTYPE svg PUBLIC "-//W3C//DTD SVG 1.1//EN"
  "http://www.w3.org/Graphics/SVG/1.1/DTD/svg11.dtd">
<!-- Created with matplotlib (http://matplotlib.org/) -->
<svg height="345pt" version="1.1" viewBox="0 0 460 345" width="460pt" xmlns="http://www.w3.org/2000/svg" xmlns:xlink="http://www.w3.org/1999/xlink">
 <defs>
  <style type="text/css">
*{stroke-linecap:butt;stroke-linejoin:round;}
  </style>
 </defs>
 <g id="figure_1">
  <g id="patch_1">
   <path d="M 0 345.6 
L 460.8 345.6 
L 460.8 0 
L 0 0 
z
" style="fill:#ffffff;"/>
  </g>
  <g id="axes_1">
   <g id="patch_2">
    <path d="M 57.6 307.584 
L 414.72 307.584 
L 414.72 41.472 
L 57.6 41.472 
z
" style="fill:#ffffff;"/>
   </g>
   <g id="matplotlib.axis_1">
    <g id="xtick_1">
     <g id="line2d_1">
      <defs>
       <path d="M 0 0 
L 0 3.5 
" id="meb0e792529" style="stroke:#000000;stroke-width:0.8;"/>
      </defs>
      <g>
       <use style="stroke:#000000;stroke-width:0.8;" x="73.832727" xlink:href="#meb0e792529" y="307.584"/>
      </g>
     </g>
     <g id="text_1">
      <!-- 0 -->
      <defs>
       <path d="M 31.78125 66.40625 
Q 24.171875 66.40625 20.328125 58.90625 
Q 16.5 51.421875 16.5 36.375 
Q 16.5 21.390625 20.328125 13.890625 
Q 24.171875 6.390625 31.78125 6.390625 
Q 39.453125 6.390625 43.28125 13.890625 
Q 47.125 21.390625 47.125 36.375 
Q 47.125 51.421875 43.28125 58.90625 
Q 39.453125 66.40625 31.78125 66.40625 
z
M 31.78125 74.21875 
Q 44.046875 74.21875 50.515625 64.515625 
Q 56.984375 54.828125 56.984375 36.375 
Q 56.984375 17.96875 50.515625 8.265625 
Q 44.046875 -1.421875 31.78125 -1.421875 
Q 19.53125 -1.421875 13.0625 8.265625 
Q 6.59375 17.96875 6.59375 36.375 
Q 6.59375 54.828125 13.0625 64.515625 
Q 19.53125 74.21875 31.78125 74.21875 
z
" id="DejaVuSans-30"/>
      </defs>
      <g transform="translate(70.651477 322.182437)scale(0.1 -0.1)">
       <use xlink:href="#DejaVuSans-30"/>
      </g>
     </g>
    </g>
    <g id="xtick_2">
     <g id="line2d_2">
      <g>
       <use style="stroke:#000000;stroke-width:0.8;" x="128.032151" xlink:href="#meb0e792529" y="307.584"/>
      </g>
     </g>
     <g id="text_2">
      <!-- 100 -->
      <defs>
       <path d="M 12.40625 8.296875 
L 28.515625 8.296875 
L 28.515625 63.921875 
L 10.984375 60.40625 
L 10.984375 69.390625 
L 28.421875 72.90625 
L 38.28125 72.90625 
L 38.28125 8.296875 
L 54.390625 8.296875 
L 54.390625 0 
L 12.40625 0 
z
" id="DejaVuSans-31"/>
      </defs>
      <g transform="translate(118.488401 322.182437)scale(0.1 -0.1)">
       <use xlink:href="#DejaVuSans-31"/>
       <use x="63.623047" xlink:href="#DejaVuSans-30"/>
       <use x="127.246094" xlink:href="#DejaVuSans-30"/>
      </g>
     </g>
    </g>
    <g id="xtick_3">
     <g id="line2d_3">
      <g>
       <use style="stroke:#000000;stroke-width:0.8;" x="182.231574" xlink:href="#meb0e792529" y="307.584"/>
      </g>
     </g>
     <g id="text_3">
      <!-- 200 -->
      <defs>
       <path d="M 19.1875 8.296875 
L 53.609375 8.296875 
L 53.609375 0 
L 7.328125 0 
L 7.328125 8.296875 
Q 12.9375 14.109375 22.625 23.890625 
Q 32.328125 33.6875 34.8125 36.53125 
Q 39.546875 41.84375 41.421875 45.53125 
Q 43.3125 49.21875 43.3125 52.78125 
Q 43.3125 58.59375 39.234375 62.25 
Q 35.15625 65.921875 28.609375 65.921875 
Q 23.96875 65.921875 18.8125 64.3125 
Q 13.671875 62.703125 7.8125 59.421875 
L 7.8125 69.390625 
Q 13.765625 71.78125 18.9375 73 
Q 24.125 74.21875 28.421875 74.21875 
Q 39.75 74.21875 46.484375 68.546875 
Q 53.21875 62.890625 53.21875 53.421875 
Q 53.21875 48.921875 51.53125 44.890625 
Q 49.859375 40.875 45.40625 35.40625 
Q 44.1875 33.984375 37.640625 27.21875 
Q 31.109375 20.453125 19.1875 8.296875 
z
" id="DejaVuSans-32"/>
      </defs>
      <g transform="translate(172.687824 322.182437)scale(0.1 -0.1)">
       <use xlink:href="#DejaVuSans-32"/>
       <use x="63.623047" xlink:href="#DejaVuSans-30"/>
       <use x="127.246094" xlink:href="#DejaVuSans-30"/>
      </g>
     </g>
    </g>
    <g id="xtick_4">
     <g id="line2d_4">
      <g>
       <use style="stroke:#000000;stroke-width:0.8;" x="236.430997" xlink:href="#meb0e792529" y="307.584"/>
      </g>
     </g>
     <g id="text_4">
      <!-- 300 -->
      <defs>
       <path d="M 40.578125 39.3125 
Q 47.65625 37.796875 51.625 33 
Q 55.609375 28.21875 55.609375 21.1875 
Q 55.609375 10.40625 48.1875 4.484375 
Q 40.765625 -1.421875 27.09375 -1.421875 
Q 22.515625 -1.421875 17.65625 -0.515625 
Q 12.796875 0.390625 7.625 2.203125 
L 7.625 11.71875 
Q 11.71875 9.328125 16.59375 8.109375 
Q 21.484375 6.890625 26.8125 6.890625 
Q 36.078125 6.890625 40.9375 10.546875 
Q 45.796875 14.203125 45.796875 21.1875 
Q 45.796875 27.640625 41.28125 31.265625 
Q 36.765625 34.90625 28.71875 34.90625 
L 20.21875 34.90625 
L 20.21875 43.015625 
L 29.109375 43.015625 
Q 36.375 43.015625 40.234375 45.921875 
Q 44.09375 48.828125 44.09375 54.296875 
Q 44.09375 59.90625 40.109375 62.90625 
Q 36.140625 65.921875 28.71875 65.921875 
Q 24.65625 65.921875 20.015625 65.03125 
Q 15.375 64.15625 9.8125 62.3125 
L 9.8125 71.09375 
Q 15.4375 72.65625 20.34375 73.4375 
Q 25.25 74.21875 29.59375 74.21875 
Q 40.828125 74.21875 47.359375 69.109375 
Q 53.90625 64.015625 53.90625 55.328125 
Q 53.90625 49.265625 50.4375 45.09375 
Q 46.96875 40.921875 40.578125 39.3125 
z
" id="DejaVuSans-33"/>
      </defs>
      <g transform="translate(226.887247 322.182437)scale(0.1 -0.1)">
       <use xlink:href="#DejaVuSans-33"/>
       <use x="63.623047" xlink:href="#DejaVuSans-30"/>
       <use x="127.246094" xlink:href="#DejaVuSans-30"/>
      </g>
     </g>
    </g>
    <g id="xtick_5">
     <g id="line2d_5">
      <g>
       <use style="stroke:#000000;stroke-width:0.8;" x="290.63042" xlink:href="#meb0e792529" y="307.584"/>
      </g>
     </g>
     <g id="text_5">
      <!-- 400 -->
      <defs>
       <path d="M 37.796875 64.3125 
L 12.890625 25.390625 
L 37.796875 25.390625 
z
M 35.203125 72.90625 
L 47.609375 72.90625 
L 47.609375 25.390625 
L 58.015625 25.390625 
L 58.015625 17.1875 
L 47.609375 17.1875 
L 47.609375 0 
L 37.796875 0 
L 37.796875 17.1875 
L 4.890625 17.1875 
L 4.890625 26.703125 
z
" id="DejaVuSans-34"/>
      </defs>
      <g transform="translate(281.08667 322.182437)scale(0.1 -0.1)">
       <use xlink:href="#DejaVuSans-34"/>
       <use x="63.623047" xlink:href="#DejaVuSans-30"/>
       <use x="127.246094" xlink:href="#DejaVuSans-30"/>
      </g>
     </g>
    </g>
    <g id="xtick_6">
     <g id="line2d_6">
      <g>
       <use style="stroke:#000000;stroke-width:0.8;" x="344.829844" xlink:href="#meb0e792529" y="307.584"/>
      </g>
     </g>
     <g id="text_6">
      <!-- 500 -->
      <defs>
       <path d="M 10.796875 72.90625 
L 49.515625 72.90625 
L 49.515625 64.59375 
L 19.828125 64.59375 
L 19.828125 46.734375 
Q 21.96875 47.46875 24.109375 47.828125 
Q 26.265625 48.1875 28.421875 48.1875 
Q 40.625 48.1875 47.75 41.5 
Q 54.890625 34.8125 54.890625 23.390625 
Q 54.890625 11.625 47.5625 5.09375 
Q 40.234375 -1.421875 26.90625 -1.421875 
Q 22.3125 -1.421875 17.546875 -0.640625 
Q 12.796875 0.140625 7.71875 1.703125 
L 7.71875 11.625 
Q 12.109375 9.234375 16.796875 8.0625 
Q 21.484375 6.890625 26.703125 6.890625 
Q 35.15625 6.890625 40.078125 11.328125 
Q 45.015625 15.765625 45.015625 23.390625 
Q 45.015625 31 40.078125 35.4375 
Q 35.15625 39.890625 26.703125 39.890625 
Q 22.75 39.890625 18.8125 39.015625 
Q 14.890625 38.140625 10.796875 36.28125 
z
" id="DejaVuSans-35"/>
      </defs>
      <g transform="translate(335.286094 322.182437)scale(0.1 -0.1)">
       <use xlink:href="#DejaVuSans-35"/>
       <use x="63.623047" xlink:href="#DejaVuSans-30"/>
       <use x="127.246094" xlink:href="#DejaVuSans-30"/>
      </g>
     </g>
    </g>
    <g id="xtick_7">
     <g id="line2d_7">
      <g>
       <use style="stroke:#000000;stroke-width:0.8;" x="399.029267" xlink:href="#meb0e792529" y="307.584"/>
      </g>
     </g>
     <g id="text_7">
      <!-- 600 -->
      <defs>
       <path d="M 33.015625 40.375 
Q 26.375 40.375 22.484375 35.828125 
Q 18.609375 31.296875 18.609375 23.390625 
Q 18.609375 15.53125 22.484375 10.953125 
Q 26.375 6.390625 33.015625 6.390625 
Q 39.65625 6.390625 43.53125 10.953125 
Q 47.40625 15.53125 47.40625 23.390625 
Q 47.40625 31.296875 43.53125 35.828125 
Q 39.65625 40.375 33.015625 40.375 
z
M 52.59375 71.296875 
L 52.59375 62.3125 
Q 48.875 64.0625 45.09375 64.984375 
Q 41.3125 65.921875 37.59375 65.921875 
Q 27.828125 65.921875 22.671875 59.328125 
Q 17.53125 52.734375 16.796875 39.40625 
Q 19.671875 43.65625 24.015625 45.921875 
Q 28.375 48.1875 33.59375 48.1875 
Q 44.578125 48.1875 50.953125 41.515625 
Q 57.328125 34.859375 57.328125 23.390625 
Q 57.328125 12.15625 50.6875 5.359375 
Q 44.046875 -1.421875 33.015625 -1.421875 
Q 20.359375 -1.421875 13.671875 8.265625 
Q 6.984375 17.96875 6.984375 36.375 
Q 6.984375 53.65625 15.1875 63.9375 
Q 23.390625 74.21875 37.203125 74.21875 
Q 40.921875 74.21875 44.703125 73.484375 
Q 48.484375 72.75 52.59375 71.296875 
z
" id="DejaVuSans-36"/>
      </defs>
      <g transform="translate(389.485517 322.182437)scale(0.1 -0.1)">
       <use xlink:href="#DejaVuSans-36"/>
       <use x="63.623047" xlink:href="#DejaVuSans-30"/>
       <use x="127.246094" xlink:href="#DejaVuSans-30"/>
      </g>
     </g>
    </g>
    <g id="text_8">
     <!-- t(s) -->
     <defs>
      <path d="M 18.3125 70.21875 
L 18.3125 54.6875 
L 36.8125 54.6875 
L 36.8125 47.703125 
L 18.3125 47.703125 
L 18.3125 18.015625 
Q 18.3125 11.328125 20.140625 9.421875 
Q 21.96875 7.515625 27.59375 7.515625 
L 36.8125 7.515625 
L 36.8125 0 
L 27.59375 0 
Q 17.1875 0 13.234375 3.875 
Q 9.28125 7.765625 9.28125 18.015625 
L 9.28125 47.703125 
L 2.6875 47.703125 
L 2.6875 54.6875 
L 9.28125 54.6875 
L 9.28125 70.21875 
z
" id="DejaVuSans-74"/>
      <path d="M 31 75.875 
Q 24.46875 64.65625 21.28125 53.65625 
Q 18.109375 42.671875 18.109375 31.390625 
Q 18.109375 20.125 21.3125 9.0625 
Q 24.515625 -2 31 -13.1875 
L 23.1875 -13.1875 
Q 15.875 -1.703125 12.234375 9.375 
Q 8.59375 20.453125 8.59375 31.390625 
Q 8.59375 42.28125 12.203125 53.3125 
Q 15.828125 64.359375 23.1875 75.875 
z
" id="DejaVuSans-28"/>
      <path d="M 44.28125 53.078125 
L 44.28125 44.578125 
Q 40.484375 46.53125 36.375 47.5 
Q 32.28125 48.484375 27.875 48.484375 
Q 21.1875 48.484375 17.84375 46.4375 
Q 14.5 44.390625 14.5 40.28125 
Q 14.5 37.15625 16.890625 35.375 
Q 19.28125 33.59375 26.515625 31.984375 
L 29.59375 31.296875 
Q 39.15625 29.25 43.1875 25.515625 
Q 47.21875 21.78125 47.21875 15.09375 
Q 47.21875 7.46875 41.1875 3.015625 
Q 35.15625 -1.421875 24.609375 -1.421875 
Q 20.21875 -1.421875 15.453125 -0.5625 
Q 10.6875 0.296875 5.421875 2 
L 5.421875 11.28125 
Q 10.40625 8.6875 15.234375 7.390625 
Q 20.0625 6.109375 24.8125 6.109375 
Q 31.15625 6.109375 34.5625 8.28125 
Q 37.984375 10.453125 37.984375 14.40625 
Q 37.984375 18.0625 35.515625 20.015625 
Q 33.0625 21.96875 24.703125 23.78125 
L 21.578125 24.515625 
Q 13.234375 26.265625 9.515625 29.90625 
Q 5.8125 33.546875 5.8125 39.890625 
Q 5.8125 47.609375 11.28125 51.796875 
Q 16.75 56 26.8125 56 
Q 31.78125 56 36.171875 55.265625 
Q 40.578125 54.546875 44.28125 53.078125 
z
" id="DejaVuSans-73"/>
      <path d="M 8.015625 75.875 
L 15.828125 75.875 
Q 23.140625 64.359375 26.78125 53.3125 
Q 30.421875 42.28125 30.421875 31.390625 
Q 30.421875 20.453125 26.78125 9.375 
Q 23.140625 -1.703125 15.828125 -13.1875 
L 8.015625 -13.1875 
Q 14.5 -2 17.703125 9.0625 
Q 20.90625 20.125 20.90625 31.390625 
Q 20.90625 42.671875 17.703125 53.65625 
Q 14.5 64.65625 8.015625 75.875 
z
" id="DejaVuSans-29"/>
     </defs>
     <g transform="translate(227.693594 335.860562)scale(0.1 -0.1)">
      <use xlink:href="#DejaVuSans-74"/>
      <use x="39.208984" xlink:href="#DejaVuSans-28"/>
      <use x="78.222656" xlink:href="#DejaVuSans-73"/>
      <use x="130.322266" xlink:href="#DejaVuSans-29"/>
     </g>
    </g>
   </g>
   <g id="matplotlib.axis_2">
    <g id="ytick_1">
     <g id="line2d_8">
      <defs>
       <path d="M 0 0 
L -3.5 0 
" id="mb3935a2bd4" style="stroke:#000000;stroke-width:0.8;"/>
      </defs>
      <g>
       <use style="stroke:#000000;stroke-width:0.8;" x="57.6" xlink:href="#mb3935a2bd4" y="289.252968"/>
      </g>
     </g>
     <g id="text_9">
      <!-- −3.370 -->
      <defs>
       <path d="M 10.59375 35.5 
L 73.1875 35.5 
L 73.1875 27.203125 
L 10.59375 27.203125 
z
" id="DejaVuSans-2212"/>
       <path d="M 10.6875 12.40625 
L 21 12.40625 
L 21 0 
L 10.6875 0 
z
" id="DejaVuSans-2e"/>
       <path d="M 8.203125 72.90625 
L 55.078125 72.90625 
L 55.078125 68.703125 
L 28.609375 0 
L 18.3125 0 
L 43.21875 64.59375 
L 8.203125 64.59375 
z
" id="DejaVuSans-37"/>
      </defs>
      <g transform="translate(13.592188 293.052187)scale(0.1 -0.1)">
       <use xlink:href="#DejaVuSans-2212"/>
       <use x="83.789062" xlink:href="#DejaVuSans-33"/>
       <use x="147.412109" xlink:href="#DejaVuSans-2e"/>
       <use x="179.199219" xlink:href="#DejaVuSans-33"/>
       <use x="242.822266" xlink:href="#DejaVuSans-37"/>
       <use x="306.445312" xlink:href="#DejaVuSans-30"/>
      </g>
     </g>
    </g>
    <g id="ytick_2">
     <g id="line2d_9">
      <g>
       <use style="stroke:#000000;stroke-width:0.8;" x="57.6" xlink:href="#mb3935a2bd4" y="239.220593"/>
      </g>
     </g>
     <g id="text_10">
      <!-- −3.368 -->
      <defs>
       <path d="M 31.78125 34.625 
Q 24.75 34.625 20.71875 30.859375 
Q 16.703125 27.09375 16.703125 20.515625 
Q 16.703125 13.921875 20.71875 10.15625 
Q 24.75 6.390625 31.78125 6.390625 
Q 38.8125 6.390625 42.859375 10.171875 
Q 46.921875 13.96875 46.921875 20.515625 
Q 46.921875 27.09375 42.890625 30.859375 
Q 38.875 34.625 31.78125 34.625 
z
M 21.921875 38.8125 
Q 15.578125 40.375 12.03125 44.71875 
Q 8.5 49.078125 8.5 55.328125 
Q 8.5 64.0625 14.71875 69.140625 
Q 20.953125 74.21875 31.78125 74.21875 
Q 42.671875 74.21875 48.875 69.140625 
Q 55.078125 64.0625 55.078125 55.328125 
Q 55.078125 49.078125 51.53125 44.71875 
Q 48 40.375 41.703125 38.8125 
Q 48.828125 37.15625 52.796875 32.3125 
Q 56.78125 27.484375 56.78125 20.515625 
Q 56.78125 9.90625 50.3125 4.234375 
Q 43.84375 -1.421875 31.78125 -1.421875 
Q 19.734375 -1.421875 13.25 4.234375 
Q 6.78125 9.90625 6.78125 20.515625 
Q 6.78125 27.484375 10.78125 32.3125 
Q 14.796875 37.15625 21.921875 38.8125 
z
M 18.3125 54.390625 
Q 18.3125 48.734375 21.84375 45.5625 
Q 25.390625 42.390625 31.78125 42.390625 
Q 38.140625 42.390625 41.71875 45.5625 
Q 45.3125 48.734375 45.3125 54.390625 
Q 45.3125 60.0625 41.71875 63.234375 
Q 38.140625 66.40625 31.78125 66.40625 
Q 25.390625 66.40625 21.84375 63.234375 
Q 18.3125 60.0625 18.3125 54.390625 
z
" id="DejaVuSans-38"/>
      </defs>
      <g transform="translate(13.592188 243.019812)scale(0.1 -0.1)">
       <use xlink:href="#DejaVuSans-2212"/>
       <use x="83.789062" xlink:href="#DejaVuSans-33"/>
       <use x="147.412109" xlink:href="#DejaVuSans-2e"/>
       <use x="179.199219" xlink:href="#DejaVuSans-33"/>
       <use x="242.822266" xlink:href="#DejaVuSans-36"/>
       <use x="306.445312" xlink:href="#DejaVuSans-38"/>
      </g>
     </g>
    </g>
    <g id="ytick_3">
     <g id="line2d_10">
      <g>
       <use style="stroke:#000000;stroke-width:0.8;" x="57.6" xlink:href="#mb3935a2bd4" y="189.188218"/>
      </g>
     </g>
     <g id="text_11">
      <!-- −3.366 -->
      <g transform="translate(13.592188 192.987436)scale(0.1 -0.1)">
       <use xlink:href="#DejaVuSans-2212"/>
       <use x="83.789062" xlink:href="#DejaVuSans-33"/>
       <use x="147.412109" xlink:href="#DejaVuSans-2e"/>
       <use x="179.199219" xlink:href="#DejaVuSans-33"/>
       <use x="242.822266" xlink:href="#DejaVuSans-36"/>
       <use x="306.445312" xlink:href="#DejaVuSans-36"/>
      </g>
     </g>
    </g>
    <g id="ytick_4">
     <g id="line2d_11">
      <g>
       <use style="stroke:#000000;stroke-width:0.8;" x="57.6" xlink:href="#mb3935a2bd4" y="139.155842"/>
      </g>
     </g>
     <g id="text_12">
      <!-- −3.364 -->
      <g transform="translate(13.592188 142.955061)scale(0.1 -0.1)">
       <use xlink:href="#DejaVuSans-2212"/>
       <use x="83.789062" xlink:href="#DejaVuSans-33"/>
       <use x="147.412109" xlink:href="#DejaVuSans-2e"/>
       <use x="179.199219" xlink:href="#DejaVuSans-33"/>
       <use x="242.822266" xlink:href="#DejaVuSans-36"/>
       <use x="306.445312" xlink:href="#DejaVuSans-34"/>
      </g>
     </g>
    </g>
    <g id="ytick_5">
     <g id="line2d_12">
      <g>
       <use style="stroke:#000000;stroke-width:0.8;" x="57.6" xlink:href="#mb3935a2bd4" y="89.123467"/>
      </g>
     </g>
     <g id="text_13">
      <!-- −3.362 -->
      <g transform="translate(13.592188 92.922686)scale(0.1 -0.1)">
       <use xlink:href="#DejaVuSans-2212"/>
       <use x="83.789062" xlink:href="#DejaVuSans-33"/>
       <use x="147.412109" xlink:href="#DejaVuSans-2e"/>
       <use x="179.199219" xlink:href="#DejaVuSans-33"/>
       <use x="242.822266" xlink:href="#DejaVuSans-36"/>
       <use x="306.445312" xlink:href="#DejaVuSans-32"/>
      </g>
     </g>
    </g>
    <g id="text_14">
     <!-- Resistance (Ohm) -->
     <defs>
      <path d="M 44.390625 34.1875 
Q 47.5625 33.109375 50.5625 29.59375 
Q 53.5625 26.078125 56.59375 19.921875 
L 66.609375 0 
L 56 0 
L 46.6875 18.703125 
Q 43.0625 26.03125 39.671875 28.421875 
Q 36.28125 30.8125 30.421875 30.8125 
L 19.671875 30.8125 
L 19.671875 0 
L 9.8125 0 
L 9.8125 72.90625 
L 32.078125 72.90625 
Q 44.578125 72.90625 50.734375 67.671875 
Q 56.890625 62.453125 56.890625 51.90625 
Q 56.890625 45.015625 53.6875 40.46875 
Q 50.484375 35.9375 44.390625 34.1875 
z
M 19.671875 64.796875 
L 19.671875 38.921875 
L 32.078125 38.921875 
Q 39.203125 38.921875 42.84375 42.21875 
Q 46.484375 45.515625 46.484375 51.90625 
Q 46.484375 58.296875 42.84375 61.546875 
Q 39.203125 64.796875 32.078125 64.796875 
z
" id="DejaVuSans-52"/>
      <path d="M 56.203125 29.59375 
L 56.203125 25.203125 
L 14.890625 25.203125 
Q 15.484375 15.921875 20.484375 11.0625 
Q 25.484375 6.203125 34.421875 6.203125 
Q 39.59375 6.203125 44.453125 7.46875 
Q 49.3125 8.734375 54.109375 11.28125 
L 54.109375 2.78125 
Q 49.265625 0.734375 44.1875 -0.34375 
Q 39.109375 -1.421875 33.890625 -1.421875 
Q 20.796875 -1.421875 13.15625 6.1875 
Q 5.515625 13.8125 5.515625 26.8125 
Q 5.515625 40.234375 12.765625 48.109375 
Q 20.015625 56 32.328125 56 
Q 43.359375 56 49.78125 48.890625 
Q 56.203125 41.796875 56.203125 29.59375 
z
M 47.21875 32.234375 
Q 47.125 39.59375 43.09375 43.984375 
Q 39.0625 48.390625 32.421875 48.390625 
Q 24.90625 48.390625 20.390625 44.140625 
Q 15.875 39.890625 15.1875 32.171875 
z
" id="DejaVuSans-65"/>
      <path d="M 9.421875 54.6875 
L 18.40625 54.6875 
L 18.40625 0 
L 9.421875 0 
z
M 9.421875 75.984375 
L 18.40625 75.984375 
L 18.40625 64.59375 
L 9.421875 64.59375 
z
" id="DejaVuSans-69"/>
      <path d="M 34.28125 27.484375 
Q 23.390625 27.484375 19.1875 25 
Q 14.984375 22.515625 14.984375 16.5 
Q 14.984375 11.71875 18.140625 8.90625 
Q 21.296875 6.109375 26.703125 6.109375 
Q 34.1875 6.109375 38.703125 11.40625 
Q 43.21875 16.703125 43.21875 25.484375 
L 43.21875 27.484375 
z
M 52.203125 31.203125 
L 52.203125 0 
L 43.21875 0 
L 43.21875 8.296875 
Q 40.140625 3.328125 35.546875 0.953125 
Q 30.953125 -1.421875 24.3125 -1.421875 
Q 15.921875 -1.421875 10.953125 3.296875 
Q 6 8.015625 6 15.921875 
Q 6 25.140625 12.171875 29.828125 
Q 18.359375 34.515625 30.609375 34.515625 
L 43.21875 34.515625 
L 43.21875 35.40625 
Q 43.21875 41.609375 39.140625 45 
Q 35.0625 48.390625 27.6875 48.390625 
Q 23 48.390625 18.546875 47.265625 
Q 14.109375 46.140625 10.015625 43.890625 
L 10.015625 52.203125 
Q 14.9375 54.109375 19.578125 55.046875 
Q 24.21875 56 28.609375 56 
Q 40.484375 56 46.34375 49.84375 
Q 52.203125 43.703125 52.203125 31.203125 
z
" id="DejaVuSans-61"/>
      <path d="M 54.890625 33.015625 
L 54.890625 0 
L 45.90625 0 
L 45.90625 32.71875 
Q 45.90625 40.484375 42.875 44.328125 
Q 39.84375 48.1875 33.796875 48.1875 
Q 26.515625 48.1875 22.3125 43.546875 
Q 18.109375 38.921875 18.109375 30.90625 
L 18.109375 0 
L 9.078125 0 
L 9.078125 54.6875 
L 18.109375 54.6875 
L 18.109375 46.1875 
Q 21.34375 51.125 25.703125 53.5625 
Q 30.078125 56 35.796875 56 
Q 45.21875 56 50.046875 50.171875 
Q 54.890625 44.34375 54.890625 33.015625 
z
" id="DejaVuSans-6e"/>
      <path d="M 48.78125 52.59375 
L 48.78125 44.1875 
Q 44.96875 46.296875 41.140625 47.34375 
Q 37.3125 48.390625 33.40625 48.390625 
Q 24.65625 48.390625 19.8125 42.84375 
Q 14.984375 37.3125 14.984375 27.296875 
Q 14.984375 17.28125 19.8125 11.734375 
Q 24.65625 6.203125 33.40625 6.203125 
Q 37.3125 6.203125 41.140625 7.25 
Q 44.96875 8.296875 48.78125 10.40625 
L 48.78125 2.09375 
Q 45.015625 0.34375 40.984375 -0.53125 
Q 36.96875 -1.421875 32.421875 -1.421875 
Q 20.0625 -1.421875 12.78125 6.34375 
Q 5.515625 14.109375 5.515625 27.296875 
Q 5.515625 40.671875 12.859375 48.328125 
Q 20.21875 56 33.015625 56 
Q 37.15625 56 41.109375 55.140625 
Q 45.0625 54.296875 48.78125 52.59375 
z
" id="DejaVuSans-63"/>
      <path id="DejaVuSans-20"/>
      <path d="M 39.40625 66.21875 
Q 28.65625 66.21875 22.328125 58.203125 
Q 16.015625 50.203125 16.015625 36.375 
Q 16.015625 22.609375 22.328125 14.59375 
Q 28.65625 6.59375 39.40625 6.59375 
Q 50.140625 6.59375 56.421875 14.59375 
Q 62.703125 22.609375 62.703125 36.375 
Q 62.703125 50.203125 56.421875 58.203125 
Q 50.140625 66.21875 39.40625 66.21875 
z
M 39.40625 74.21875 
Q 54.734375 74.21875 63.90625 63.9375 
Q 73.09375 53.65625 73.09375 36.375 
Q 73.09375 19.140625 63.90625 8.859375 
Q 54.734375 -1.421875 39.40625 -1.421875 
Q 24.03125 -1.421875 14.8125 8.828125 
Q 5.609375 19.09375 5.609375 36.375 
Q 5.609375 53.65625 14.8125 63.9375 
Q 24.03125 74.21875 39.40625 74.21875 
z
" id="DejaVuSans-4f"/>
      <path d="M 54.890625 33.015625 
L 54.890625 0 
L 45.90625 0 
L 45.90625 32.71875 
Q 45.90625 40.484375 42.875 44.328125 
Q 39.84375 48.1875 33.796875 48.1875 
Q 26.515625 48.1875 22.3125 43.546875 
Q 18.109375 38.921875 18.109375 30.90625 
L 18.109375 0 
L 9.078125 0 
L 9.078125 75.984375 
L 18.109375 75.984375 
L 18.109375 46.1875 
Q 21.34375 51.125 25.703125 53.5625 
Q 30.078125 56 35.796875 56 
Q 45.21875 56 50.046875 50.171875 
Q 54.890625 44.34375 54.890625 33.015625 
z
" id="DejaVuSans-68"/>
      <path d="M 52 44.1875 
Q 55.375 50.25 60.0625 53.125 
Q 64.75 56 71.09375 56 
Q 79.640625 56 84.28125 50.015625 
Q 88.921875 44.046875 88.921875 33.015625 
L 88.921875 0 
L 79.890625 0 
L 79.890625 32.71875 
Q 79.890625 40.578125 77.09375 44.375 
Q 74.3125 48.1875 68.609375 48.1875 
Q 61.625 48.1875 57.5625 43.546875 
Q 53.515625 38.921875 53.515625 30.90625 
L 53.515625 0 
L 44.484375 0 
L 44.484375 32.71875 
Q 44.484375 40.625 41.703125 44.40625 
Q 38.921875 48.1875 33.109375 48.1875 
Q 26.21875 48.1875 22.15625 43.53125 
Q 18.109375 38.875 18.109375 30.90625 
L 18.109375 0 
L 9.078125 0 
L 9.078125 54.6875 
L 18.109375 54.6875 
L 18.109375 46.1875 
Q 21.1875 51.21875 25.484375 53.609375 
Q 29.78125 56 35.6875 56 
Q 41.65625 56 45.828125 52.96875 
Q 50 49.953125 52 44.1875 
z
" id="DejaVuSans-6d"/>
     </defs>
     <g transform="translate(7.5125 219.158469)rotate(-90)scale(0.1 -0.1)">
      <use xlink:href="#DejaVuSans-52"/>
      <use x="69.419922" xlink:href="#DejaVuSans-65"/>
      <use x="130.943359" xlink:href="#DejaVuSans-73"/>
      <use x="183.042969" xlink:href="#DejaVuSans-69"/>
      <use x="210.826172" xlink:href="#DejaVuSans-73"/>
      <use x="262.925781" xlink:href="#DejaVuSans-74"/>
      <use x="302.134766" xlink:href="#DejaVuSans-61"/>
      <use x="363.414062" xlink:href="#DejaVuSans-6e"/>
      <use x="426.792969" xlink:href="#DejaVuSans-63"/>
      <use x="481.773438" xlink:href="#DejaVuSans-65"/>
      <use x="543.296875" xlink:href="#DejaVuSans-20"/>
      <use x="575.083984" xlink:href="#DejaVuSans-28"/>
      <use x="614.097656" xlink:href="#DejaVuSans-4f"/>
      <use x="692.808594" xlink:href="#DejaVuSans-68"/>
      <use x="756.1875" xlink:href="#DejaVuSans-6d"/>
      <use x="853.599609" xlink:href="#DejaVuSans-29"/>
     </g>
    </g>
    <g id="text_15">
     <!-- 1e7 -->
     <g transform="translate(57.6 38.472)scale(0.1 -0.1)">
      <use xlink:href="#DejaVuSans-31"/>
      <use x="63.623047" xlink:href="#DejaVuSans-65"/>
      <use x="125.146484" xlink:href="#DejaVuSans-37"/>
     </g>
    </g>
   </g>
   <g id="line2d_13">
    <path clip-path="url(#p0f207abf7b)" d="M 73.832727 108.160264 
L 74.374722 112.005157 
L 74.916716 111.164044 
L 75.45871 111.095452 
L 76.000704 135.1298 
L 76.542698 250.569896 
L 77.084693 208.600451 
L 77.626687 116.733574 
L 78.168681 114.938044 
L 78.710675 115.688409 
L 79.25267 125.647586 
L 79.794664 138.018186 
L 80.336658 138.336386 
L 80.878652 139.222877 
L 81.420647 156.119802 
L 81.962641 161.531756 
L 82.504635 178.315617 
L 83.046629 180.359799 
L 83.588623 200.945826 
L 84.130618 183.477308 
L 84.672612 202.855425 
L 85.214606 189.212734 
L 85.7566 206.607816 
L 86.298595 168.448676 
L 86.840589 218.206995 
L 87.382583 228.345991 
L 87.924577 254.217496 
L 88.466572 243.49949 
L 89.008566 257.654364 
L 89.55056 244.065777 
L 90.092554 258.813033 
L 90.634548 263.500974 
L 91.176543 264.290319 
L 91.718537 277.538749 
L 92.260531 284.043869 
L 92.802525 269.016767 
L 93.34452 282.515368 
L 93.886514 282.92324 
L 94.428508 270.294564 
L 94.970502 268.793503 
L 95.512497 274.694156 
L 96.054491 286.573279 
L 96.596485 284.516883 
L 97.138479 295.488 
L 98.222468 279.763285 
L 98.764462 275.352306 
L 99.306456 283.070417 
L 99.84845 279.72528 
L 100.390445 283.598179 
L 100.932439 281.09606 
L 101.474433 273.443184 
L 102.016427 275.760254 
L 102.558422 272.654242 
L 103.100416 260.906793 
L 103.64241 274.655897 
L 104.184404 278.185985 
L 104.726399 277.157966 
L 105.268393 274.971443 
L 105.810387 281.977097 
L 106.352381 284.376192 
L 106.894375 275.510065 
L 107.43637 285.284528 
L 107.978364 284.544263 
L 108.520358 280.633599 
L 109.062352 284.359215 
L 109.604347 291.402009 
L 110.146341 279.95899 
L 110.688335 285.174922 
L 111.230329 281.922492 
L 111.772324 283.72851 
L 112.314318 275.167446 
L 112.856312 270.294564 
L 113.398306 260.037312 
L 113.940301 259.286781 
L 114.482295 252.031651 
L 115.024289 263.343095 
L 115.566283 250.096065 
L 116.108277 253.150999 
L 116.650272 238.930391 
L 117.73426 219.590675 
L 118.276254 229.17359 
L 118.818249 218.758125 
L 119.360243 222.117697 
L 119.902237 210.360206 
L 120.444231 227.330424 
L 120.986226 216.180375 
L 121.52822 216.889697 
L 122.070214 221.4591 
L 122.612208 230.266262 
L 123.154202 232.926206 
L 123.696197 228.305421 
L 124.238191 221.392701 
L 124.780185 234.519269 
L 125.322179 229.59675 
L 125.864174 241.18196 
L 126.406168 236.100699 
L 126.948162 247.660223 
L 127.490156 251.623486 
L 128.032151 252.532005 
L 128.574145 253.809345 
L 129.116139 254.230306 
L 129.658133 250.872948 
L 130.200127 255.718588 
L 130.742122 263.289611 
L 131.284116 266.476409 
L 131.82611 263.105003 
L 132.368104 258.37833 
L 132.910099 268.858956 
L 133.452093 269.201491 
L 133.994087 271.915017 
L 134.536081 272.981138 
L 135.078076 271.915017 
L 136.162064 242.288517 
L 136.704058 249.46404 
L 137.246053 227.554928 
L 137.788047 231.49136 
L 138.330041 220.892367 
L 138.872035 218.115147 
L 139.956024 190.456937 
L 140.498018 204.789969 
L 141.040012 198.852875 
L 141.582006 187.162468 
L 142.124001 190.231341 
L 142.665995 182.659689 
L 143.207989 180.884342 
L 143.749983 177.656601 
L 144.291978 170.219391 
L 144.833972 160.690055 
L 145.375966 160.598789 
L 145.91796 148.568805 
L 147.001949 143.521362 
L 147.543943 123.237132 
L 148.085937 126.534567 
L 148.627931 132.242059 
L 149.169926 109.391126 
L 149.71192 99.611786 
L 150.253914 104.273499 
L 150.795908 96.33841 
L 151.337903 94.768774 
L 151.879897 96.131732 
L 152.421891 93.677686 
L 152.963885 88.287026 
L 153.505879 81.741018 
L 154.047874 77.71798 
L 154.589868 79.537968 
L 155.131862 85.013924 
L 155.673856 81.331249 
L 156.215851 87.062545 
L 156.757845 74.807064 
L 157.841833 89.951804 
L 158.383828 94.634822 
L 158.925822 95.156725 
L 159.467816 99.749432 
L 160.00981 89.813776 
L 160.551805 113.255742 
L 161.093799 120.963434 
L 162.177787 128.580951 
L 162.719781 122.123204 
L 163.261776 133.083459 
L 163.80377 118.917589 
L 164.345764 132.424024 
L 164.887758 134.720549 
L 165.429753 148.433104 
L 165.971747 153.73038 
L 166.513741 162.214611 
L 167.055735 160.781323 
L 167.59773 177.589328 
L 168.681718 203.380685 
L 169.223712 210.135191 
L 169.765706 208.400498 
L 170.307701 217.956834 
L 170.849695 217.732044 
L 171.391689 214.337486 
L 171.933683 217.864988 
L 172.475678 222.82733 
L 173.017672 217.022673 
L 173.559666 213.637527 
L 174.10166 226.55427 
L 174.643655 205.407023 
L 175.185649 199.261535 
L 175.727643 197.852238 
L 176.269637 179.090284 
L 176.811632 177.156293 
L 177.353626 158.188637 
L 177.89562 151.776126 
L 178.437614 137.449824 
L 178.979608 115.619905 
L 179.521603 124.396914 
L 180.063597 97.045272 
L 180.605591 87.153066 
L 181.147585 88.856332 
L 182.231574 73.258079 
L 182.773568 66.984123 
L 183.315562 65.893346 
L 183.857557 72.299594 
L 184.399551 58.799906 
L 184.941545 71.618564 
L 185.483539 63.023708 
L 186.025533 75.593618 
L 186.567528 60.001488 
L 187.109522 74.300709 
L 187.651516 71.847705 
L 188.19351 70.388842 
L 188.735505 72.869236 
L 189.277499 77.142672 
L 189.819493 77.323539 
L 190.361487 85.919054 
L 190.903482 99.608437 
L 191.445476 116.322611 
L 191.98747 102.428912 
L 192.529464 125.464752 
L 193.071458 113.253893 
L 193.613453 135.653576 
L 194.155447 144.205413 
L 195.239435 165.514162 
L 195.78143 167.833112 
L 196.865418 201.49592 
L 197.407412 211.461579 
L 197.949407 218.400416 
L 198.491401 232.437119 
L 199.575389 250.899317 
L 200.117384 266.372233 
L 200.659378 276.238535 
L 201.201372 280.595636 
L 201.743366 280.818578 
L 202.28536 281.411484 
L 202.827355 282.227299 
L 203.369349 292.64317 
L 203.911343 284.767073 
L 204.453337 279.578338 
L 204.995332 269.22841 
L 205.537326 272.41539 
L 206.07932 265.764565 
L 206.621314 271.453061 
L 207.163309 242.56479 
L 207.705303 246.501523 
L 208.247297 236.560845 
L 208.789291 235.243901 
L 209.331285 224.195669 
L 209.87328 203.380685 
L 210.415274 193.25777 
L 210.957268 171.672309 
L 211.499262 158.50643 
L 212.041257 152.2062 
L 212.583251 124.487817 
L 213.125245 118.371301 
L 213.667239 99.840081 
L 214.209234 96.769769 
L 214.751228 78.489499 
L 215.293222 79.942219 
L 215.835216 77.787237 
L 216.377211 65.122213 
L 216.919205 66.073968 
L 217.461199 69.09631 
L 218.003193 69.20757 
L 218.545187 64.635579 
L 219.087182 71.055387 
L 219.629176 79.825008 
L 220.17117 77.190796 
L 220.713164 83.486714 
L 221.255159 76.051684 
L 221.797153 70.958528 
L 222.339147 70.388842 
L 222.881141 68.047224 
L 223.423136 73.20976 
L 223.96513 71.549176 
L 224.507124 72.612783 
L 225.049118 67.046667 
L 225.591112 64.343899 
L 226.133107 66.344914 
L 226.675101 69.228485 
L 227.217095 67.185621 
L 227.759089 60.370183 
L 228.301084 62.252607 
L 228.843078 63.503229 
L 229.385072 67.387139 
L 229.927066 65.413916 
L 230.469061 60.550689 
L 231.011055 69.20757 
L 231.553049 67.644146 
L 232.095043 72.556058 
L 232.637037 73.508203 
L 233.179032 86.152609 
L 233.721026 88.132043 
L 234.26302 91.655125 
L 234.805014 91.176467 
L 235.347009 98.451791 
L 235.889003 109.501728 
L 236.430997 103.454379 
L 236.972991 99.499315 
L 237.514986 99.067914 
L 238.05698 116.120159 
L 238.598974 105.364704 
L 239.140968 116.097839 
L 239.682963 116.483437 
L 240.224957 110.276484 
L 240.766951 116.802058 
L 241.308945 110.458001 
L 241.850939 100.046525 
L 242.392934 120.917499 
L 242.934928 109.025862 
L 243.476922 92.884074 
L 244.018916 100.499782 
L 244.560911 106.093065 
L 245.102905 106.274494 
L 245.644899 96.476182 
L 246.186893 95.678661 
L 246.728888 93.858869 
L 247.270882 79.218636 
L 247.812876 96.178904 
L 248.35487 89.632685 
L 248.896864 97.201145 
L 249.438859 92.767779 
L 249.980853 100.63415 
L 250.522847 92.3365 
L 251.064841 97.088768 
L 251.606836 106.365212 
L 252.14883 109.572612 
L 252.690824 119.462658 
L 253.232818 104.911185 
L 253.774813 121.464638 
L 254.316807 124.283448 
L 254.858801 126.147855 
L 255.400795 137.676166 
L 256.484784 150.616571 
L 257.026778 149.683813 
L 257.568772 150.387539 
L 258.110766 167.376411 
L 258.652761 157.255746 
L 259.194755 165.78421 
L 259.736749 185.478503 
L 260.278743 176.309315 
L 260.820738 188.730444 
L 261.362732 183.703107 
L 261.904726 187.412622 
L 262.44672 189.822603 
L 262.988715 205.056876 
L 263.530709 224.920625 
L 264.072703 227.580596 
L 264.614697 236.152546 
L 265.156691 253.098128 
L 265.698686 247.962949 
L 266.24068 257.088298 
L 266.782674 263.209397 
L 267.324668 263.474226 
L 267.866663 285.322257 
L 268.408657 286.36075 
L 268.950651 283.173427 
L 269.492645 293.115931 
L 270.03464 287.323892 
L 270.576634 279.224876 
L 271.118628 277.065512 
L 271.660622 274.416886 
L 272.202616 271.153 
L 272.744611 266.083345 
L 273.286605 257.957714 
L 273.828599 243.736011 
L 274.370593 245.065544 
L 274.912588 242.313212 
L 275.454582 221.852139 
L 275.996576 205.590479 
L 277.080565 191.055501 
L 277.622559 226.590527 
L 278.164553 164.287109 
L 278.706547 139.656166 
L 279.248542 126.056497 
L 279.790536 94.94998 
L 280.33253 93.604732 
L 280.874524 86.850564 
L 281.958513 80.916066 
L 282.500507 64.725886 
L 283.042501 60.112383 
L 283.584495 66.296249 
L 284.12649 64.232838 
L 284.668484 76.75982 
L 285.210478 85.514173 
L 285.752472 85.083039 
L 286.294467 96.088291 
L 286.836461 102.113055 
L 287.378455 113.937556 
L 287.920449 136.858494 
L 288.462443 143.680408 
L 289.004438 148.863475 
L 289.546432 156.07276 
L 290.088426 179.725067 
L 290.63042 177.382286 
L 291.172415 184.953816 
L 291.714409 199.236718 
L 292.256403 206.357656 
L 292.798397 206.424354 
L 293.340392 212.244485 
L 293.882386 221.826642 
L 294.42438 218.0233 
L 294.966374 226.620566 
L 295.508368 240.129172 
L 296.050363 233.216708 
L 296.592357 240.549573 
L 297.134351 255.218224 
L 297.676345 250.912392 
L 298.21834 255.876536 
L 298.760334 250.333006 
L 299.302328 252.729334 
L 299.844322 254.033066 
L 300.386317 268.635685 
L 300.928311 266.699748 
L 301.470305 266.199399 
L 302.012299 262.643516 
L 302.554294 268.489533 
L 303.096288 263.012702 
L 303.638282 265.910531 
L 304.180276 271.295271 
L 304.72227 270.386941 
L 305.264265 277.353842 
L 305.806259 272.703933 
L 306.890247 280.459339 
L 307.974236 285.240051 
L 308.51623 284.266694 
L 309.058224 279.197655 
L 309.600219 285.637587 
L 310.142213 290.57655 
L 311.226201 284.396986 
L 311.768195 283.701155 
L 312.31019 287.193704 
L 312.852184 281.911898 
L 313.394178 267.477137 
L 313.936172 284.348815 
L 314.478167 283.940916 
L 315.020161 273.878215 
L 315.562155 259.327623 
L 316.104149 265.859954 
L 316.646144 243.67005 
L 317.188138 240.996132 
L 317.730132 228.19858 
L 318.272126 198.035531 
L 319.356115 178.022381 
L 319.898109 161.761696 
L 320.440103 152.552448 
L 321.524092 125.897263 
L 322.066086 115.208825 
L 322.60808 111.547253 
L 323.150074 103.542153 
L 323.692069 104.339401 
L 324.776057 81.304611 
L 325.318051 78.393382 
L 325.860046 73.251831 
L 326.40204 79.644091 
L 327.486028 73.050012 
L 328.028022 74.279642 
L 328.570017 70.325997 
L 329.112011 72.209212 
L 329.654005 74.870311 
L 330.195999 70.075878 
L 330.737994 63.162819 
L 331.279988 73.508203 
L 331.821982 72.007457 
L 332.363976 65.962841 
L 332.905971 78.148949 
L 333.447965 72.125205 
L 333.989959 78.191313 
L 334.531953 86.355063 
L 335.073947 79.330294 
L 335.615942 85.583278 
L 336.157936 77.489031 
L 336.69993 67.644146 
L 337.241924 72.507706 
L 337.783919 61.509773 
L 338.325913 58.910748 
L 338.867907 66.386572 
L 339.409901 53.568 
L 339.951896 68.047224 
L 340.49389 69.186656 
L 341.035884 64.184069 
L 341.577878 60.731202 
L 342.119873 68.387707 
L 342.661867 71.41039 
L 343.203861 53.928765 
L 343.745855 59.021598 
L 344.287849 65.476319 
L 344.829844 78.435765 
L 345.371838 74.300709 
L 345.913832 76.322951 
L 346.455826 74.391112 
L 346.997821 73.480939 
L 347.539815 69.297921 
L 348.081809 66.977186 
L 348.623803 72.278587 
L 349.165798 66.233773 
L 349.707792 66.775686 
L 350.249786 70.618027 
L 350.79178 69.367355 
L 351.333774 63.913185 
L 351.875769 62.683293 
L 352.417763 53.957592 
L 352.959757 70.618027 
L 353.501751 70.0274 
L 354.043746 59.751364 
L 355.127734 74.098847 
L 355.669728 69.554716 
L 356.211723 72.736811 
L 356.753717 80.373267 
L 357.295711 69.144833 
L 357.837705 74.689502 
L 358.379699 77.009944 
L 358.921694 75.147577 
L 359.463688 83.353541 
L 360.005682 81.150322 
L 361.089671 75.216887 
L 361.631665 84.74242 
L 362.173659 85.583278 
L 362.715653 81.150322 
L 363.257648 72.194573 
L 363.799642 73.487162 
L 364.341636 92.176955 
L 364.88363 77.989265 
L 365.425625 80.809749 
L 365.967619 81.71973 
L 366.509613 87.062545 
L 367.051607 95.993932 
L 367.593601 101.250133 
L 368.135596 107.68451 
L 368.67759 104.342229 
L 369.219584 95.225635 
L 369.761578 100.659241 
L 370.303573 100.637386 
L 370.845567 102.500717 
L 371.387561 91.586142 
L 371.929555 105.114577 
L 372.47155 101.931707 
L 373.013544 95.337933 
L 373.555538 86.902952 
L 374.097532 88.946876 
L 374.639526 82.970277 
L 375.181521 94.246861 
L 375.723515 99.042696 
L 376.265509 86.131189 
L 376.807503 80.607584 
L 377.349498 87.472245 
L 377.891492 99.271012 
L 378.433486 92.314894 
L 378.97548 101.112548 
L 379.517475 99.771261 
L 380.059469 94.156268 
L 380.601463 97.567243 
L 381.685452 99.771261 
L 382.227446 115.097362 
L 382.76944 121.828093 
L 383.311434 122.282453 
L 383.853428 136.198402 
L 384.395423 142.656723 
L 384.937417 158.962669 
L 385.479411 166.852273 
L 386.021405 171.148068 
L 386.5634 173.44729 
L 387.105394 193.641833 
L 387.647388 204.673274 
L 388.189382 221.208938 
L 388.731377 227.054599 
L 389.273371 243.381244 
L 389.815365 242.432832 
L 390.357359 255.033774 
L 390.899353 251.768085 
L 391.441348 266.160718 
L 391.983342 255.823503 
L 392.525336 263.539788 
L 393.06733 260.010669 
L 393.609325 276.325941 
L 394.151319 283.135593 
L 394.693313 286.110558 
L 395.235307 278.392681 
L 395.777302 278.5776 
L 396.319296 267.792795 
L 396.86129 271.229865 
L 397.403284 275.733139 
L 397.945278 270.702538 
L 398.487273 277.391964 
L 398.487273 277.391964 
" style="fill:none;stroke:#1f77b4;stroke-linecap:square;stroke-width:1.5;"/>
   </g>
   <g id="patch_3">
    <path d="M 57.6 307.584 
L 57.6 41.472 
" style="fill:none;stroke:#000000;stroke-linecap:square;stroke-linejoin:miter;stroke-width:0.8;"/>
   </g>
   <g id="patch_4">
    <path d="M 414.72 307.584 
L 414.72 41.472 
" style="fill:none;stroke:#000000;stroke-linecap:square;stroke-linejoin:miter;stroke-width:0.8;"/>
   </g>
   <g id="patch_5">
    <path d="M 57.6 307.584 
L 414.72 307.584 
" style="fill:none;stroke:#000000;stroke-linecap:square;stroke-linejoin:miter;stroke-width:0.8;"/>
   </g>
   <g id="patch_6">
    <path d="M 57.6 41.472 
L 414.72 41.472 
" style="fill:none;stroke:#000000;stroke-linecap:square;stroke-linejoin:miter;stroke-width:0.8;"/>
   </g>
   <g id="text_16">
    <!-- Resistance with source current 1e-07 A -->
    <defs>
     <path d="M 4.203125 54.6875 
L 13.1875 54.6875 
L 24.421875 12.015625 
L 35.59375 54.6875 
L 46.1875 54.6875 
L 57.421875 12.015625 
L 68.609375 54.6875 
L 77.59375 54.6875 
L 63.28125 0 
L 52.6875 0 
L 40.921875 44.828125 
L 29.109375 0 
L 18.5 0 
z
" id="DejaVuSans-77"/>
     <path d="M 30.609375 48.390625 
Q 23.390625 48.390625 19.1875 42.75 
Q 14.984375 37.109375 14.984375 27.296875 
Q 14.984375 17.484375 19.15625 11.84375 
Q 23.34375 6.203125 30.609375 6.203125 
Q 37.796875 6.203125 41.984375 11.859375 
Q 46.1875 17.53125 46.1875 27.296875 
Q 46.1875 37.015625 41.984375 42.703125 
Q 37.796875 48.390625 30.609375 48.390625 
z
M 30.609375 56 
Q 42.328125 56 49.015625 48.375 
Q 55.71875 40.765625 55.71875 27.296875 
Q 55.71875 13.875 49.015625 6.21875 
Q 42.328125 -1.421875 30.609375 -1.421875 
Q 18.84375 -1.421875 12.171875 6.21875 
Q 5.515625 13.875 5.515625 27.296875 
Q 5.515625 40.765625 12.171875 48.375 
Q 18.84375 56 30.609375 56 
z
" id="DejaVuSans-6f"/>
     <path d="M 8.5 21.578125 
L 8.5 54.6875 
L 17.484375 54.6875 
L 17.484375 21.921875 
Q 17.484375 14.15625 20.5 10.265625 
Q 23.53125 6.390625 29.59375 6.390625 
Q 36.859375 6.390625 41.078125 11.03125 
Q 45.3125 15.671875 45.3125 23.6875 
L 45.3125 54.6875 
L 54.296875 54.6875 
L 54.296875 0 
L 45.3125 0 
L 45.3125 8.40625 
Q 42.046875 3.421875 37.71875 1 
Q 33.40625 -1.421875 27.6875 -1.421875 
Q 18.265625 -1.421875 13.375 4.4375 
Q 8.5 10.296875 8.5 21.578125 
z
M 31.109375 56 
z
" id="DejaVuSans-75"/>
     <path d="M 41.109375 46.296875 
Q 39.59375 47.171875 37.8125 47.578125 
Q 36.03125 48 33.890625 48 
Q 26.265625 48 22.1875 43.046875 
Q 18.109375 38.09375 18.109375 28.8125 
L 18.109375 0 
L 9.078125 0 
L 9.078125 54.6875 
L 18.109375 54.6875 
L 18.109375 46.1875 
Q 20.953125 51.171875 25.484375 53.578125 
Q 30.03125 56 36.53125 56 
Q 37.453125 56 38.578125 55.875 
Q 39.703125 55.765625 41.0625 55.515625 
z
" id="DejaVuSans-72"/>
     <path d="M 4.890625 31.390625 
L 31.203125 31.390625 
L 31.203125 23.390625 
L 4.890625 23.390625 
z
" id="DejaVuSans-2d"/>
     <path d="M 34.1875 63.1875 
L 20.796875 26.90625 
L 47.609375 26.90625 
z
M 28.609375 72.90625 
L 39.796875 72.90625 
L 67.578125 0 
L 57.328125 0 
L 50.6875 18.703125 
L 17.828125 18.703125 
L 11.1875 0 
L 0.78125 0 
z
" id="DejaVuSans-41"/>
    </defs>
    <g transform="translate(117.9525 35.472)scale(0.12 -0.12)">
     <use xlink:href="#DejaVuSans-52"/>
     <use x="69.419922" xlink:href="#DejaVuSans-65"/>
     <use x="130.943359" xlink:href="#DejaVuSans-73"/>
     <use x="183.042969" xlink:href="#DejaVuSans-69"/>
     <use x="210.826172" xlink:href="#DejaVuSans-73"/>
     <use x="262.925781" xlink:href="#DejaVuSans-74"/>
     <use x="302.134766" xlink:href="#DejaVuSans-61"/>
     <use x="363.414062" xlink:href="#DejaVuSans-6e"/>
     <use x="426.792969" xlink:href="#DejaVuSans-63"/>
     <use x="481.773438" xlink:href="#DejaVuSans-65"/>
     <use x="543.296875" xlink:href="#DejaVuSans-20"/>
     <use x="575.083984" xlink:href="#DejaVuSans-77"/>
     <use x="656.871094" xlink:href="#DejaVuSans-69"/>
     <use x="684.654297" xlink:href="#DejaVuSans-74"/>
     <use x="723.863281" xlink:href="#DejaVuSans-68"/>
     <use x="787.242188" xlink:href="#DejaVuSans-20"/>
     <use x="819.029297" xlink:href="#DejaVuSans-73"/>
     <use x="871.128906" xlink:href="#DejaVuSans-6f"/>
     <use x="932.310547" xlink:href="#DejaVuSans-75"/>
     <use x="995.689453" xlink:href="#DejaVuSans-72"/>
     <use x="1036.771484" xlink:href="#DejaVuSans-63"/>
     <use x="1091.751953" xlink:href="#DejaVuSans-65"/>
     <use x="1153.275391" xlink:href="#DejaVuSans-20"/>
     <use x="1185.0625" xlink:href="#DejaVuSans-63"/>
     <use x="1240.042969" xlink:href="#DejaVuSans-75"/>
     <use x="1303.421875" xlink:href="#DejaVuSans-72"/>
     <use x="1344.519531" xlink:href="#DejaVuSans-72"/>
     <use x="1385.601562" xlink:href="#DejaVuSans-65"/>
     <use x="1447.125" xlink:href="#DejaVuSans-6e"/>
     <use x="1510.503906" xlink:href="#DejaVuSans-74"/>
     <use x="1549.712891" xlink:href="#DejaVuSans-20"/>
     <use x="1581.5" xlink:href="#DejaVuSans-31"/>
     <use x="1645.123047" xlink:href="#DejaVuSans-65"/>
     <use x="1706.646484" xlink:href="#DejaVuSans-2d"/>
     <use x="1742.730469" xlink:href="#DejaVuSans-30"/>
     <use x="1806.353516" xlink:href="#DejaVuSans-37"/>
     <use x="1869.976562" xlink:href="#DejaVuSans-20"/>
     <use x="1901.763672" xlink:href="#DejaVuSans-41"/>
    </g>
   </g>
  </g>
 </g>
 <defs>
  <clipPath id="p0f207abf7b">
   <rect height="266.112" width="357.12" x="57.6" y="41.472"/>
  </clipPath>
 </defs>
</svg>
