<?xml version="1.0" encoding="utf-8" standalone="no"?>
<!DOCTYPE svg PUBLIC "-//W3C//DTD SVG 1.1//EN"
  "http://www.w3.org/Graphics/SVG/1.1/DTD/svg11.dtd">
<!-- Created with matplotlib (http://matplotlib.org/) -->
<svg height="345pt" version="1.1" viewBox="0 0 460 345" width="460pt" xmlns="http://www.w3.org/2000/svg" xmlns:xlink="http://www.w3.org/1999/xlink">
 <defs>
  <style type="text/css">
*{stroke-linecap:butt;stroke-linejoin:round;}
  </style>
 </defs>
 <g id="figure_1">
  <g id="patch_1">
   <path d="M 0 345.6 
L 460.8 345.6 
L 460.8 0 
L 0 0 
z
" style="fill:#ffffff;"/>
  </g>
  <g id="axes_1">
   <g id="patch_2">
    <path d="M 57.6 307.584 
L 414.72 307.584 
L 414.72 41.472 
L 57.6 41.472 
z
" style="fill:#ffffff;"/>
   </g>
   <g id="matplotlib.axis_1">
    <g id="xtick_1">
     <g id="line2d_1">
      <defs>
       <path d="M 0 0 
L 0 3.5 
" id="m0e6f827883" style="stroke:#000000;stroke-width:0.8;"/>
      </defs>
      <g>
       <use style="stroke:#000000;stroke-width:0.8;" x="73.832727" xlink:href="#m0e6f827883" y="307.584"/>
      </g>
     </g>
     <g id="text_1">
      <!-- 0 -->
      <defs>
       <path d="M 31.78125 66.40625 
Q 24.171875 66.40625 20.328125 58.90625 
Q 16.5 51.421875 16.5 36.375 
Q 16.5 21.390625 20.328125 13.890625 
Q 24.171875 6.390625 31.78125 6.390625 
Q 39.453125 6.390625 43.28125 13.890625 
Q 47.125 21.390625 47.125 36.375 
Q 47.125 51.421875 43.28125 58.90625 
Q 39.453125 66.40625 31.78125 66.40625 
z
M 31.78125 74.21875 
Q 44.046875 74.21875 50.515625 64.515625 
Q 56.984375 54.828125 56.984375 36.375 
Q 56.984375 17.96875 50.515625 8.265625 
Q 44.046875 -1.421875 31.78125 -1.421875 
Q 19.53125 -1.421875 13.0625 8.265625 
Q 6.59375 17.96875 6.59375 36.375 
Q 6.59375 54.828125 13.0625 64.515625 
Q 19.53125 74.21875 31.78125 74.21875 
z
" id="DejaVuSans-30"/>
      </defs>
      <g transform="translate(70.651477 322.182437)scale(0.1 -0.1)">
       <use xlink:href="#DejaVuSans-30"/>
      </g>
     </g>
    </g>
    <g id="xtick_2">
     <g id="line2d_2">
      <g>
       <use style="stroke:#000000;stroke-width:0.8;" x="128.031698" xlink:href="#m0e6f827883" y="307.584"/>
      </g>
     </g>
     <g id="text_2">
      <!-- 100 -->
      <defs>
       <path d="M 12.40625 8.296875 
L 28.515625 8.296875 
L 28.515625 63.921875 
L 10.984375 60.40625 
L 10.984375 69.390625 
L 28.421875 72.90625 
L 38.28125 72.90625 
L 38.28125 8.296875 
L 54.390625 8.296875 
L 54.390625 0 
L 12.40625 0 
z
" id="DejaVuSans-31"/>
      </defs>
      <g transform="translate(118.487948 322.182437)scale(0.1 -0.1)">
       <use xlink:href="#DejaVuSans-31"/>
       <use x="63.623047" xlink:href="#DejaVuSans-30"/>
       <use x="127.246094" xlink:href="#DejaVuSans-30"/>
      </g>
     </g>
    </g>
    <g id="xtick_3">
     <g id="line2d_3">
      <g>
       <use style="stroke:#000000;stroke-width:0.8;" x="182.230669" xlink:href="#m0e6f827883" y="307.584"/>
      </g>
     </g>
     <g id="text_3">
      <!-- 200 -->
      <defs>
       <path d="M 19.1875 8.296875 
L 53.609375 8.296875 
L 53.609375 0 
L 7.328125 0 
L 7.328125 8.296875 
Q 12.9375 14.109375 22.625 23.890625 
Q 32.328125 33.6875 34.8125 36.53125 
Q 39.546875 41.84375 41.421875 45.53125 
Q 43.3125 49.21875 43.3125 52.78125 
Q 43.3125 58.59375 39.234375 62.25 
Q 35.15625 65.921875 28.609375 65.921875 
Q 23.96875 65.921875 18.8125 64.3125 
Q 13.671875 62.703125 7.8125 59.421875 
L 7.8125 69.390625 
Q 13.765625 71.78125 18.9375 73 
Q 24.125 74.21875 28.421875 74.21875 
Q 39.75 74.21875 46.484375 68.546875 
Q 53.21875 62.890625 53.21875 53.421875 
Q 53.21875 48.921875 51.53125 44.890625 
Q 49.859375 40.875 45.40625 35.40625 
Q 44.1875 33.984375 37.640625 27.21875 
Q 31.109375 20.453125 19.1875 8.296875 
z
" id="DejaVuSans-32"/>
      </defs>
      <g transform="translate(172.686919 322.182437)scale(0.1 -0.1)">
       <use xlink:href="#DejaVuSans-32"/>
       <use x="63.623047" xlink:href="#DejaVuSans-30"/>
       <use x="127.246094" xlink:href="#DejaVuSans-30"/>
      </g>
     </g>
    </g>
    <g id="xtick_4">
     <g id="line2d_4">
      <g>
       <use style="stroke:#000000;stroke-width:0.8;" x="236.42964" xlink:href="#m0e6f827883" y="307.584"/>
      </g>
     </g>
     <g id="text_4">
      <!-- 300 -->
      <defs>
       <path d="M 40.578125 39.3125 
Q 47.65625 37.796875 51.625 33 
Q 55.609375 28.21875 55.609375 21.1875 
Q 55.609375 10.40625 48.1875 4.484375 
Q 40.765625 -1.421875 27.09375 -1.421875 
Q 22.515625 -1.421875 17.65625 -0.515625 
Q 12.796875 0.390625 7.625 2.203125 
L 7.625 11.71875 
Q 11.71875 9.328125 16.59375 8.109375 
Q 21.484375 6.890625 26.8125 6.890625 
Q 36.078125 6.890625 40.9375 10.546875 
Q 45.796875 14.203125 45.796875 21.1875 
Q 45.796875 27.640625 41.28125 31.265625 
Q 36.765625 34.90625 28.71875 34.90625 
L 20.21875 34.90625 
L 20.21875 43.015625 
L 29.109375 43.015625 
Q 36.375 43.015625 40.234375 45.921875 
Q 44.09375 48.828125 44.09375 54.296875 
Q 44.09375 59.90625 40.109375 62.90625 
Q 36.140625 65.921875 28.71875 65.921875 
Q 24.65625 65.921875 20.015625 65.03125 
Q 15.375 64.15625 9.8125 62.3125 
L 9.8125 71.09375 
Q 15.4375 72.65625 20.34375 73.4375 
Q 25.25 74.21875 29.59375 74.21875 
Q 40.828125 74.21875 47.359375 69.109375 
Q 53.90625 64.015625 53.90625 55.328125 
Q 53.90625 49.265625 50.4375 45.09375 
Q 46.96875 40.921875 40.578125 39.3125 
z
" id="DejaVuSans-33"/>
      </defs>
      <g transform="translate(226.88589 322.182437)scale(0.1 -0.1)">
       <use xlink:href="#DejaVuSans-33"/>
       <use x="63.623047" xlink:href="#DejaVuSans-30"/>
       <use x="127.246094" xlink:href="#DejaVuSans-30"/>
      </g>
     </g>
    </g>
    <g id="xtick_5">
     <g id="line2d_5">
      <g>
       <use style="stroke:#000000;stroke-width:0.8;" x="290.628611" xlink:href="#m0e6f827883" y="307.584"/>
      </g>
     </g>
     <g id="text_5">
      <!-- 400 -->
      <defs>
       <path d="M 37.796875 64.3125 
L 12.890625 25.390625 
L 37.796875 25.390625 
z
M 35.203125 72.90625 
L 47.609375 72.90625 
L 47.609375 25.390625 
L 58.015625 25.390625 
L 58.015625 17.1875 
L 47.609375 17.1875 
L 47.609375 0 
L 37.796875 0 
L 37.796875 17.1875 
L 4.890625 17.1875 
L 4.890625 26.703125 
z
" id="DejaVuSans-34"/>
      </defs>
      <g transform="translate(281.084861 322.182437)scale(0.1 -0.1)">
       <use xlink:href="#DejaVuSans-34"/>
       <use x="63.623047" xlink:href="#DejaVuSans-30"/>
       <use x="127.246094" xlink:href="#DejaVuSans-30"/>
      </g>
     </g>
    </g>
    <g id="xtick_6">
     <g id="line2d_6">
      <g>
       <use style="stroke:#000000;stroke-width:0.8;" x="344.827582" xlink:href="#m0e6f827883" y="307.584"/>
      </g>
     </g>
     <g id="text_6">
      <!-- 500 -->
      <defs>
       <path d="M 10.796875 72.90625 
L 49.515625 72.90625 
L 49.515625 64.59375 
L 19.828125 64.59375 
L 19.828125 46.734375 
Q 21.96875 47.46875 24.109375 47.828125 
Q 26.265625 48.1875 28.421875 48.1875 
Q 40.625 48.1875 47.75 41.5 
Q 54.890625 34.8125 54.890625 23.390625 
Q 54.890625 11.625 47.5625 5.09375 
Q 40.234375 -1.421875 26.90625 -1.421875 
Q 22.3125 -1.421875 17.546875 -0.640625 
Q 12.796875 0.140625 7.71875 1.703125 
L 7.71875 11.625 
Q 12.109375 9.234375 16.796875 8.0625 
Q 21.484375 6.890625 26.703125 6.890625 
Q 35.15625 6.890625 40.078125 11.328125 
Q 45.015625 15.765625 45.015625 23.390625 
Q 45.015625 31 40.078125 35.4375 
Q 35.15625 39.890625 26.703125 39.890625 
Q 22.75 39.890625 18.8125 39.015625 
Q 14.890625 38.140625 10.796875 36.28125 
z
" id="DejaVuSans-35"/>
      </defs>
      <g transform="translate(335.283832 322.182437)scale(0.1 -0.1)">
       <use xlink:href="#DejaVuSans-35"/>
       <use x="63.623047" xlink:href="#DejaVuSans-30"/>
       <use x="127.246094" xlink:href="#DejaVuSans-30"/>
      </g>
     </g>
    </g>
    <g id="xtick_7">
     <g id="line2d_7">
      <g>
       <use style="stroke:#000000;stroke-width:0.8;" x="399.026552" xlink:href="#m0e6f827883" y="307.584"/>
      </g>
     </g>
     <g id="text_7">
      <!-- 600 -->
      <defs>
       <path d="M 33.015625 40.375 
Q 26.375 40.375 22.484375 35.828125 
Q 18.609375 31.296875 18.609375 23.390625 
Q 18.609375 15.53125 22.484375 10.953125 
Q 26.375 6.390625 33.015625 6.390625 
Q 39.65625 6.390625 43.53125 10.953125 
Q 47.40625 15.53125 47.40625 23.390625 
Q 47.40625 31.296875 43.53125 35.828125 
Q 39.65625 40.375 33.015625 40.375 
z
M 52.59375 71.296875 
L 52.59375 62.3125 
Q 48.875 64.0625 45.09375 64.984375 
Q 41.3125 65.921875 37.59375 65.921875 
Q 27.828125 65.921875 22.671875 59.328125 
Q 17.53125 52.734375 16.796875 39.40625 
Q 19.671875 43.65625 24.015625 45.921875 
Q 28.375 48.1875 33.59375 48.1875 
Q 44.578125 48.1875 50.953125 41.515625 
Q 57.328125 34.859375 57.328125 23.390625 
Q 57.328125 12.15625 50.6875 5.359375 
Q 44.046875 -1.421875 33.015625 -1.421875 
Q 20.359375 -1.421875 13.671875 8.265625 
Q 6.984375 17.96875 6.984375 36.375 
Q 6.984375 53.65625 15.1875 63.9375 
Q 23.390625 74.21875 37.203125 74.21875 
Q 40.921875 74.21875 44.703125 73.484375 
Q 48.484375 72.75 52.59375 71.296875 
z
" id="DejaVuSans-36"/>
      </defs>
      <g transform="translate(389.482802 322.182437)scale(0.1 -0.1)">
       <use xlink:href="#DejaVuSans-36"/>
       <use x="63.623047" xlink:href="#DejaVuSans-30"/>
       <use x="127.246094" xlink:href="#DejaVuSans-30"/>
      </g>
     </g>
    </g>
    <g id="text_8">
     <!-- t(s) -->
     <defs>
      <path d="M 18.3125 70.21875 
L 18.3125 54.6875 
L 36.8125 54.6875 
L 36.8125 47.703125 
L 18.3125 47.703125 
L 18.3125 18.015625 
Q 18.3125 11.328125 20.140625 9.421875 
Q 21.96875 7.515625 27.59375 7.515625 
L 36.8125 7.515625 
L 36.8125 0 
L 27.59375 0 
Q 17.1875 0 13.234375 3.875 
Q 9.28125 7.765625 9.28125 18.015625 
L 9.28125 47.703125 
L 2.6875 47.703125 
L 2.6875 54.6875 
L 9.28125 54.6875 
L 9.28125 70.21875 
z
" id="DejaVuSans-74"/>
      <path d="M 31 75.875 
Q 24.46875 64.65625 21.28125 53.65625 
Q 18.109375 42.671875 18.109375 31.390625 
Q 18.109375 20.125 21.3125 9.0625 
Q 24.515625 -2 31 -13.1875 
L 23.1875 -13.1875 
Q 15.875 -1.703125 12.234375 9.375 
Q 8.59375 20.453125 8.59375 31.390625 
Q 8.59375 42.28125 12.203125 53.3125 
Q 15.828125 64.359375 23.1875 75.875 
z
" id="DejaVuSans-28"/>
      <path d="M 44.28125 53.078125 
L 44.28125 44.578125 
Q 40.484375 46.53125 36.375 47.5 
Q 32.28125 48.484375 27.875 48.484375 
Q 21.1875 48.484375 17.84375 46.4375 
Q 14.5 44.390625 14.5 40.28125 
Q 14.5 37.15625 16.890625 35.375 
Q 19.28125 33.59375 26.515625 31.984375 
L 29.59375 31.296875 
Q 39.15625 29.25 43.1875 25.515625 
Q 47.21875 21.78125 47.21875 15.09375 
Q 47.21875 7.46875 41.1875 3.015625 
Q 35.15625 -1.421875 24.609375 -1.421875 
Q 20.21875 -1.421875 15.453125 -0.5625 
Q 10.6875 0.296875 5.421875 2 
L 5.421875 11.28125 
Q 10.40625 8.6875 15.234375 7.390625 
Q 20.0625 6.109375 24.8125 6.109375 
Q 31.15625 6.109375 34.5625 8.28125 
Q 37.984375 10.453125 37.984375 14.40625 
Q 37.984375 18.0625 35.515625 20.015625 
Q 33.0625 21.96875 24.703125 23.78125 
L 21.578125 24.515625 
Q 13.234375 26.265625 9.515625 29.90625 
Q 5.8125 33.546875 5.8125 39.890625 
Q 5.8125 47.609375 11.28125 51.796875 
Q 16.75 56 26.8125 56 
Q 31.78125 56 36.171875 55.265625 
Q 40.578125 54.546875 44.28125 53.078125 
z
" id="DejaVuSans-73"/>
      <path d="M 8.015625 75.875 
L 15.828125 75.875 
Q 23.140625 64.359375 26.78125 53.3125 
Q 30.421875 42.28125 30.421875 31.390625 
Q 30.421875 20.453125 26.78125 9.375 
Q 23.140625 -1.703125 15.828125 -13.1875 
L 8.015625 -13.1875 
Q 14.5 -2 17.703125 9.0625 
Q 20.90625 20.125 20.90625 31.390625 
Q 20.90625 42.671875 17.703125 53.65625 
Q 14.5 64.65625 8.015625 75.875 
z
" id="DejaVuSans-29"/>
     </defs>
     <g transform="translate(227.693594 335.860562)scale(0.1 -0.1)">
      <use xlink:href="#DejaVuSans-74"/>
      <use x="39.208984" xlink:href="#DejaVuSans-28"/>
      <use x="78.222656" xlink:href="#DejaVuSans-73"/>
      <use x="130.322266" xlink:href="#DejaVuSans-29"/>
     </g>
    </g>
   </g>
   <g id="matplotlib.axis_2">
    <g id="ytick_1">
     <g id="line2d_8">
      <defs>
       <path d="M 0 0 
L -3.5 0 
" id="m5016576807" style="stroke:#000000;stroke-width:0.8;"/>
      </defs>
      <g>
       <use style="stroke:#000000;stroke-width:0.8;" x="57.6" xlink:href="#m5016576807" y="287.684129"/>
      </g>
     </g>
     <g id="text_9">
      <!-- −0.00015 -->
      <defs>
       <path d="M 10.59375 35.5 
L 73.1875 35.5 
L 73.1875 27.203125 
L 10.59375 27.203125 
z
" id="DejaVuSans-2212"/>
       <path d="M 10.6875 12.40625 
L 21 12.40625 
L 21 0 
L 10.6875 0 
z
" id="DejaVuSans-2e"/>
      </defs>
      <g transform="translate(0.867188 291.483348)scale(0.1 -0.1)">
       <use xlink:href="#DejaVuSans-2212"/>
       <use x="83.789062" xlink:href="#DejaVuSans-30"/>
       <use x="147.412109" xlink:href="#DejaVuSans-2e"/>
       <use x="179.199219" xlink:href="#DejaVuSans-30"/>
       <use x="242.822266" xlink:href="#DejaVuSans-30"/>
       <use x="306.445312" xlink:href="#DejaVuSans-30"/>
       <use x="370.068359" xlink:href="#DejaVuSans-31"/>
       <use x="433.691406" xlink:href="#DejaVuSans-35"/>
      </g>
     </g>
    </g>
    <g id="ytick_2">
     <g id="line2d_9">
      <g>
       <use style="stroke:#000000;stroke-width:0.8;" x="57.6" xlink:href="#m5016576807" y="248.664774"/>
      </g>
     </g>
     <g id="text_10">
      <!-- −0.00010 -->
      <g transform="translate(0.867188 252.463993)scale(0.1 -0.1)">
       <use xlink:href="#DejaVuSans-2212"/>
       <use x="83.789062" xlink:href="#DejaVuSans-30"/>
       <use x="147.412109" xlink:href="#DejaVuSans-2e"/>
       <use x="179.199219" xlink:href="#DejaVuSans-30"/>
       <use x="242.822266" xlink:href="#DejaVuSans-30"/>
       <use x="306.445312" xlink:href="#DejaVuSans-30"/>
       <use x="370.068359" xlink:href="#DejaVuSans-31"/>
       <use x="433.691406" xlink:href="#DejaVuSans-30"/>
      </g>
     </g>
    </g>
    <g id="ytick_3">
     <g id="line2d_10">
      <g>
       <use style="stroke:#000000;stroke-width:0.8;" x="57.6" xlink:href="#m5016576807" y="209.645419"/>
      </g>
     </g>
     <g id="text_11">
      <!-- −0.00005 -->
      <g transform="translate(0.867188 213.444638)scale(0.1 -0.1)">
       <use xlink:href="#DejaVuSans-2212"/>
       <use x="83.789062" xlink:href="#DejaVuSans-30"/>
       <use x="147.412109" xlink:href="#DejaVuSans-2e"/>
       <use x="179.199219" xlink:href="#DejaVuSans-30"/>
       <use x="242.822266" xlink:href="#DejaVuSans-30"/>
       <use x="306.445312" xlink:href="#DejaVuSans-30"/>
       <use x="370.068359" xlink:href="#DejaVuSans-30"/>
       <use x="433.691406" xlink:href="#DejaVuSans-35"/>
      </g>
     </g>
    </g>
    <g id="ytick_4">
     <g id="line2d_11">
      <g>
       <use style="stroke:#000000;stroke-width:0.8;" x="57.6" xlink:href="#m5016576807" y="170.626065"/>
      </g>
     </g>
     <g id="text_12">
      <!-- 0.00000 -->
      <g transform="translate(9.246875 174.425283)scale(0.1 -0.1)">
       <use xlink:href="#DejaVuSans-30"/>
       <use x="63.623047" xlink:href="#DejaVuSans-2e"/>
       <use x="95.410156" xlink:href="#DejaVuSans-30"/>
       <use x="159.033203" xlink:href="#DejaVuSans-30"/>
       <use x="222.65625" xlink:href="#DejaVuSans-30"/>
       <use x="286.279297" xlink:href="#DejaVuSans-30"/>
       <use x="349.902344" xlink:href="#DejaVuSans-30"/>
      </g>
     </g>
    </g>
    <g id="ytick_5">
     <g id="line2d_12">
      <g>
       <use style="stroke:#000000;stroke-width:0.8;" x="57.6" xlink:href="#m5016576807" y="131.60671"/>
      </g>
     </g>
     <g id="text_13">
      <!-- 0.00005 -->
      <g transform="translate(9.246875 135.405928)scale(0.1 -0.1)">
       <use xlink:href="#DejaVuSans-30"/>
       <use x="63.623047" xlink:href="#DejaVuSans-2e"/>
       <use x="95.410156" xlink:href="#DejaVuSans-30"/>
       <use x="159.033203" xlink:href="#DejaVuSans-30"/>
       <use x="222.65625" xlink:href="#DejaVuSans-30"/>
       <use x="286.279297" xlink:href="#DejaVuSans-30"/>
       <use x="349.902344" xlink:href="#DejaVuSans-35"/>
      </g>
     </g>
    </g>
    <g id="ytick_6">
     <g id="line2d_13">
      <g>
       <use style="stroke:#000000;stroke-width:0.8;" x="57.6" xlink:href="#m5016576807" y="92.587355"/>
      </g>
     </g>
     <g id="text_14">
      <!-- 0.00010 -->
      <g transform="translate(9.246875 96.386574)scale(0.1 -0.1)">
       <use xlink:href="#DejaVuSans-30"/>
       <use x="63.623047" xlink:href="#DejaVuSans-2e"/>
       <use x="95.410156" xlink:href="#DejaVuSans-30"/>
       <use x="159.033203" xlink:href="#DejaVuSans-30"/>
       <use x="222.65625" xlink:href="#DejaVuSans-30"/>
       <use x="286.279297" xlink:href="#DejaVuSans-31"/>
       <use x="349.902344" xlink:href="#DejaVuSans-30"/>
      </g>
     </g>
    </g>
    <g id="ytick_7">
     <g id="line2d_14">
      <g>
       <use style="stroke:#000000;stroke-width:0.8;" x="57.6" xlink:href="#m5016576807" y="53.568"/>
      </g>
     </g>
     <g id="text_15">
      <!-- 0.00015 -->
      <g transform="translate(9.246875 57.367219)scale(0.1 -0.1)">
       <use xlink:href="#DejaVuSans-30"/>
       <use x="63.623047" xlink:href="#DejaVuSans-2e"/>
       <use x="95.410156" xlink:href="#DejaVuSans-30"/>
       <use x="159.033203" xlink:href="#DejaVuSans-30"/>
       <use x="222.65625" xlink:href="#DejaVuSans-30"/>
       <use x="286.279297" xlink:href="#DejaVuSans-31"/>
       <use x="349.902344" xlink:href="#DejaVuSans-35"/>
      </g>
     </g>
    </g>
    <g id="text_16">
     <!-- Voltage (V) -->
     <defs>
      <path d="M 28.609375 0 
L 0.78125 72.90625 
L 11.078125 72.90625 
L 34.1875 11.53125 
L 57.328125 72.90625 
L 67.578125 72.90625 
L 39.796875 0 
z
" id="DejaVuSans-56"/>
      <path d="M 30.609375 48.390625 
Q 23.390625 48.390625 19.1875 42.75 
Q 14.984375 37.109375 14.984375 27.296875 
Q 14.984375 17.484375 19.15625 11.84375 
Q 23.34375 6.203125 30.609375 6.203125 
Q 37.796875 6.203125 41.984375 11.859375 
Q 46.1875 17.53125 46.1875 27.296875 
Q 46.1875 37.015625 41.984375 42.703125 
Q 37.796875 48.390625 30.609375 48.390625 
z
M 30.609375 56 
Q 42.328125 56 49.015625 48.375 
Q 55.71875 40.765625 55.71875 27.296875 
Q 55.71875 13.875 49.015625 6.21875 
Q 42.328125 -1.421875 30.609375 -1.421875 
Q 18.84375 -1.421875 12.171875 6.21875 
Q 5.515625 13.875 5.515625 27.296875 
Q 5.515625 40.765625 12.171875 48.375 
Q 18.84375 56 30.609375 56 
z
" id="DejaVuSans-6f"/>
      <path d="M 9.421875 75.984375 
L 18.40625 75.984375 
L 18.40625 0 
L 9.421875 0 
z
" id="DejaVuSans-6c"/>
      <path d="M 34.28125 27.484375 
Q 23.390625 27.484375 19.1875 25 
Q 14.984375 22.515625 14.984375 16.5 
Q 14.984375 11.71875 18.140625 8.90625 
Q 21.296875 6.109375 26.703125 6.109375 
Q 34.1875 6.109375 38.703125 11.40625 
Q 43.21875 16.703125 43.21875 25.484375 
L 43.21875 27.484375 
z
M 52.203125 31.203125 
L 52.203125 0 
L 43.21875 0 
L 43.21875 8.296875 
Q 40.140625 3.328125 35.546875 0.953125 
Q 30.953125 -1.421875 24.3125 -1.421875 
Q 15.921875 -1.421875 10.953125 3.296875 
Q 6 8.015625 6 15.921875 
Q 6 25.140625 12.171875 29.828125 
Q 18.359375 34.515625 30.609375 34.515625 
L 43.21875 34.515625 
L 43.21875 35.40625 
Q 43.21875 41.609375 39.140625 45 
Q 35.0625 48.390625 27.6875 48.390625 
Q 23 48.390625 18.546875 47.265625 
Q 14.109375 46.140625 10.015625 43.890625 
L 10.015625 52.203125 
Q 14.9375 54.109375 19.578125 55.046875 
Q 24.21875 56 28.609375 56 
Q 40.484375 56 46.34375 49.84375 
Q 52.203125 43.703125 52.203125 31.203125 
z
" id="DejaVuSans-61"/>
      <path d="M 45.40625 27.984375 
Q 45.40625 37.75 41.375 43.109375 
Q 37.359375 48.484375 30.078125 48.484375 
Q 22.859375 48.484375 18.828125 43.109375 
Q 14.796875 37.75 14.796875 27.984375 
Q 14.796875 18.265625 18.828125 12.890625 
Q 22.859375 7.515625 30.078125 7.515625 
Q 37.359375 7.515625 41.375 12.890625 
Q 45.40625 18.265625 45.40625 27.984375 
z
M 54.390625 6.78125 
Q 54.390625 -7.171875 48.1875 -13.984375 
Q 42 -20.796875 29.203125 -20.796875 
Q 24.46875 -20.796875 20.265625 -20.09375 
Q 16.0625 -19.390625 12.109375 -17.921875 
L 12.109375 -9.1875 
Q 16.0625 -11.328125 19.921875 -12.34375 
Q 23.78125 -13.375 27.78125 -13.375 
Q 36.625 -13.375 41.015625 -8.765625 
Q 45.40625 -4.15625 45.40625 5.171875 
L 45.40625 9.625 
Q 42.625 4.78125 38.28125 2.390625 
Q 33.9375 0 27.875 0 
Q 17.828125 0 11.671875 7.65625 
Q 5.515625 15.328125 5.515625 27.984375 
Q 5.515625 40.671875 11.671875 48.328125 
Q 17.828125 56 27.875 56 
Q 33.9375 56 38.28125 53.609375 
Q 42.625 51.21875 45.40625 46.390625 
L 45.40625 54.6875 
L 54.390625 54.6875 
z
" id="DejaVuSans-67"/>
      <path d="M 56.203125 29.59375 
L 56.203125 25.203125 
L 14.890625 25.203125 
Q 15.484375 15.921875 20.484375 11.0625 
Q 25.484375 6.203125 34.421875 6.203125 
Q 39.59375 6.203125 44.453125 7.46875 
Q 49.3125 8.734375 54.109375 11.28125 
L 54.109375 2.78125 
Q 49.265625 0.734375 44.1875 -0.34375 
Q 39.109375 -1.421875 33.890625 -1.421875 
Q 20.796875 -1.421875 13.15625 6.1875 
Q 5.515625 13.8125 5.515625 26.8125 
Q 5.515625 40.234375 12.765625 48.109375 
Q 20.015625 56 32.328125 56 
Q 43.359375 56 49.78125 48.890625 
Q 56.203125 41.796875 56.203125 29.59375 
z
M 47.21875 32.234375 
Q 47.125 39.59375 43.09375 43.984375 
Q 39.0625 48.390625 32.421875 48.390625 
Q 24.90625 48.390625 20.390625 44.140625 
Q 15.875 39.890625 15.1875 32.171875 
z
" id="DejaVuSans-65"/>
      <path id="DejaVuSans-20"/>
     </defs>
     <g transform="translate(-5.2125 202.577219)rotate(-90)scale(0.1 -0.1)">
      <use xlink:href="#DejaVuSans-56"/>
      <use x="68.298828" xlink:href="#DejaVuSans-6f"/>
      <use x="129.480469" xlink:href="#DejaVuSans-6c"/>
      <use x="157.263672" xlink:href="#DejaVuSans-74"/>
      <use x="196.472656" xlink:href="#DejaVuSans-61"/>
      <use x="257.751953" xlink:href="#DejaVuSans-67"/>
      <use x="321.228516" xlink:href="#DejaVuSans-65"/>
      <use x="382.751953" xlink:href="#DejaVuSans-20"/>
      <use x="414.539062" xlink:href="#DejaVuSans-28"/>
      <use x="453.552734" xlink:href="#DejaVuSans-56"/>
      <use x="521.960938" xlink:href="#DejaVuSans-29"/>
     </g>
    </g>
    <g id="text_17">
     <!-- +4 -->
     <defs>
      <path d="M 46 62.703125 
L 46 35.5 
L 73.1875 35.5 
L 73.1875 27.203125 
L 46 27.203125 
L 46 0 
L 37.796875 0 
L 37.796875 27.203125 
L 10.59375 27.203125 
L 10.59375 35.5 
L 37.796875 35.5 
L 37.796875 62.703125 
z
" id="DejaVuSans-2b"/>
     </defs>
     <g transform="translate(57.6 38.472)scale(0.1 -0.1)">
      <use xlink:href="#DejaVuSans-2b"/>
      <use x="83.789062" xlink:href="#DejaVuSans-34"/>
     </g>
    </g>
   </g>
   <g id="line2d_15">
    <path clip-path="url(#pf19b409683)" d="M 73.832727 100.391226 
L 74.374717 240.860903 
L 74.916707 248.664774 
L 75.458696 240.860903 
L 76.000686 256.468645 
L 76.542676 155.018323 
L 77.084666 194.037677 
L 77.626655 256.468645 
L 78.168645 233.057032 
L 78.710635 217.44929 
L 79.252624 233.057032 
L 79.794614 194.037677 
L 80.336604 240.860903 
L 80.878593 209.645419 
L 81.420583 264.272516 
L 81.963115 225.253161 
L 82.505105 264.272516 
L 83.047094 248.664774 
L 83.589084 240.860903 
L 84.131616 248.664774 
L 84.673605 240.860903 
L 85.215595 240.860903 
L 85.757585 100.391226 
L 86.300117 248.664774 
L 86.842106 225.253161 
L 87.384096 248.664774 
L 87.926086 201.841548 
L 88.468075 256.468645 
L 89.010607 201.841548 
L 89.552597 209.645419 
L 90.094586 248.664774 
L 90.636576 240.860903 
L 91.178566 225.253161 
L 91.720556 233.057032 
L 92.262545 217.44929 
L 92.804535 248.664774 
L 94.430504 248.664774 
L 94.972494 240.860903 
L 95.514484 248.664774 
L 96.056473 233.057032 
L 96.598463 240.860903 
L 97.140453 240.860903 
L 97.682442 209.645419 
L 98.224432 240.860903 
L 98.766422 248.664774 
L 99.850401 217.44929 
L 100.392391 240.860903 
L 100.934381 194.037677 
L 102.01836 240.860903 
L 102.56035 233.057032 
L 103.102339 264.272516 
L 103.644329 256.468645 
L 104.186319 233.057032 
L 104.728309 233.057032 
L 105.270298 248.664774 
L 105.812288 225.253161 
L 106.354278 240.860903 
L 106.896267 240.860903 
L 107.438257 225.253161 
L 107.980247 256.468645 
L 108.522237 233.057032 
L 109.064226 256.468645 
L 109.606216 186.233806 
L 110.148206 264.272516 
L 110.690195 248.664774 
L 111.774175 201.841548 
L 112.316165 264.272516 
L 112.858154 170.626065 
L 113.400144 217.44929 
L 113.942134 201.841548 
L 114.484123 155.018323 
L 115.026113 155.018323 
L 115.568103 162.822194 
L 116.110092 131.60671 
L 116.652082 139.410581 
L 117.194072 139.410581 
L 117.736062 170.626065 
L 118.278051 131.60671 
L 118.820041 162.822194 
L 119.362031 115.998968 
L 119.90402 100.391226 
L 120.44601 100.391226 
L 120.988 178.429935 
L 121.52999 139.410581 
L 122.071979 155.018323 
L 122.613969 123.802839 
L 123.155959 155.018323 
L 123.697948 123.802839 
L 124.239938 123.802839 
L 124.781928 100.391226 
L 125.323918 139.410581 
L 125.865907 108.195097 
L 126.407897 123.802839 
L 126.949887 92.587355 
L 127.491876 131.60671 
L 128.033866 61.371871 
L 128.575856 123.802839 
L 129.117845 123.802839 
L 129.659835 108.195097 
L 130.201825 61.371871 
L 130.743815 61.371871 
L 131.285804 131.60671 
L 131.827794 155.018323 
L 132.369784 139.410581 
L 132.911773 162.822194 
L 133.453763 194.037677 
L 133.995753 201.841548 
L 134.537743 170.626065 
L 135.079732 155.018323 
L 135.621722 147.214452 
L 136.163712 201.841548 
L 136.705701 170.626065 
L 137.247691 178.429935 
L 137.789681 194.037677 
L 138.331671 123.802839 
L 138.87366 123.802839 
L 139.41565 115.998968 
L 139.95764 139.410581 
L 140.499629 155.018323 
L 141.041619 139.410581 
L 141.583609 100.391226 
L 142.125598 147.214452 
L 142.667588 92.587355 
L 143.209578 108.195097 
L 143.751568 115.998968 
L 144.293557 92.587355 
L 144.835547 115.998968 
L 145.919526 131.60671 
L 146.461516 100.391226 
L 147.003506 92.587355 
L 147.545496 100.391226 
L 148.087485 115.998968 
L 148.629475 123.802839 
L 149.171465 115.998968 
L 150.255444 233.057032 
L 150.797434 217.44929 
L 151.339424 209.645419 
L 151.881413 186.233806 
L 152.423403 186.233806 
L 152.965393 217.44929 
L 153.507382 155.018323 
L 154.591362 240.860903 
L 155.133351 178.429935 
L 155.675341 201.841548 
L 156.217331 194.037677 
L 156.759321 240.860903 
L 157.30131 201.841548 
L 157.8433 248.664774 
L 158.38529 233.057032 
L 158.927279 240.860903 
L 159.469269 186.233806 
L 160.011259 201.841548 
L 160.553249 233.057032 
L 161.637228 186.233806 
L 162.179218 225.253161 
L 162.721207 201.841548 
L 163.263197 123.802839 
L 163.805187 162.822194 
L 164.347177 123.802839 
L 164.889166 155.018323 
L 165.431156 147.214452 
L 165.973146 131.60671 
L 166.515135 147.214452 
L 167.057125 170.626065 
L 167.599115 170.626065 
L 168.141104 162.822194 
L 168.683094 115.998968 
L 169.225084 147.214452 
L 169.767074 123.802839 
L 170.309063 131.60671 
L 170.851053 131.60671 
L 171.393043 115.998968 
L 171.935032 84.783484 
L 172.477022 115.998968 
L 173.019012 131.60671 
L 173.561002 84.783484 
L 174.102991 123.802839 
L 174.644981 123.802839 
L 175.186971 139.410581 
L 175.72896 201.841548 
L 176.27095 155.018323 
L 176.81294 53.568 
L 177.35493 147.214452 
L 177.896919 170.626065 
L 178.438909 100.391226 
L 178.980899 100.391226 
L 179.522888 155.018323 
L 180.064878 115.998968 
L 181.148858 248.664774 
L 181.690847 256.468645 
L 182.232837 217.44929 
L 182.774827 201.841548 
L 183.316816 225.253161 
L 183.858806 256.468645 
L 184.400796 201.841548 
L 184.942785 170.626065 
L 185.484775 178.429935 
L 186.026765 209.645419 
L 187.652734 162.822194 
L 188.194724 131.60671 
L 188.736713 217.44929 
L 189.278703 201.841548 
L 189.820693 170.626065 
L 190.362683 209.645419 
L 190.904672 194.037677 
L 193.072631 256.468645 
L 193.614621 240.860903 
L 194.156611 209.645419 
L 194.6986 240.860903 
L 195.24059 201.841548 
L 195.78258 217.44929 
L 196.324569 240.860903 
L 196.866559 233.057032 
L 197.950538 248.664774 
L 199.034518 217.44929 
L 199.576508 256.468645 
L 200.118497 233.057032 
L 200.660487 155.018323 
L 201.202477 225.253161 
L 201.744466 217.44929 
L 202.286456 186.233806 
L 202.828446 186.233806 
L 203.370436 209.645419 
L 203.912425 225.253161 
L 204.454415 170.626065 
L 204.996405 194.037677 
L 205.538394 240.860903 
L 206.080384 186.233806 
L 206.622374 162.822194 
L 207.164364 186.233806 
L 207.706353 170.626065 
L 208.248343 131.60671 
L 208.790333 155.018323 
L 210.416302 178.429935 
L 210.958291 162.822194 
L 211.500281 240.860903 
L 212.042271 178.429935 
L 212.584261 194.037677 
L 213.12625 225.253161 
L 213.66824 194.037677 
L 214.21023 131.60671 
L 214.752219 147.214452 
L 215.294209 194.037677 
L 215.836199 256.468645 
L 216.378189 170.626065 
L 216.920178 217.44929 
L 217.462168 287.684129 
L 218.004158 295.488 
L 218.546147 201.841548 
L 219.088137 279.880258 
L 219.630127 201.841548 
L 220.172117 194.037677 
L 220.714106 194.037677 
L 221.256096 170.626065 
L 221.798086 233.057032 
L 222.340075 217.44929 
L 222.882065 233.057032 
L 223.966044 248.664774 
L 224.508034 225.253161 
L 225.050024 217.44929 
L 225.592014 217.44929 
L 226.134003 194.037677 
L 226.675993 194.037677 
L 227.759972 256.468645 
L 228.301962 264.272516 
L 228.843952 256.468645 
L 229.385942 186.233806 
L 229.927931 225.253161 
L 230.469921 217.44929 
L 231.011911 217.44929 
L 231.5539 256.468645 
L 232.09589 233.057032 
L 232.63788 162.822194 
L 233.17987 178.429935 
L 233.721859 209.645419 
L 234.263849 217.44929 
L 234.805839 178.429935 
L 235.347828 194.037677 
L 235.889818 233.057032 
L 236.431808 170.626065 
L 236.973797 194.037677 
L 237.515787 233.057032 
L 238.057777 201.841548 
L 238.599767 225.253161 
L 239.141756 186.233806 
L 239.683746 186.233806 
L 240.225736 194.037677 
L 240.767725 186.233806 
L 241.309715 264.272516 
L 241.851705 209.645419 
L 242.393695 233.057032 
L 242.935684 233.057032 
L 243.477674 209.645419 
L 244.019664 240.860903 
L 244.561653 217.44929 
L 245.645633 201.841548 
L 246.187623 264.272516 
L 246.729612 225.253161 
L 247.271602 225.253161 
L 248.355581 76.979613 
L 248.897571 147.214452 
L 249.439561 139.410581 
L 249.98155 69.175742 
L 251.06553 201.841548 
L 251.60752 155.018323 
L 252.149509 178.429935 
L 252.691499 139.410581 
L 253.233489 131.60671 
L 253.775478 186.233806 
L 254.317468 147.214452 
L 254.859458 131.60671 
L 255.401448 147.214452 
L 255.943437 123.802839 
L 257.027417 123.802839 
L 257.569406 108.195097 
L 258.111396 108.195097 
L 258.653386 123.802839 
L 259.195376 100.391226 
L 259.737365 100.391226 
L 260.279355 108.195097 
L 260.821345 108.195097 
L 261.363334 131.60671 
L 261.905324 139.410581 
L 262.447314 170.626065 
L 262.989304 92.587355 
L 263.531293 186.233806 
L 264.073283 92.587355 
L 264.615273 69.175742 
L 265.157262 162.822194 
L 265.699252 115.998968 
L 266.241242 162.822194 
L 266.783231 131.60671 
L 267.325221 131.60671 
L 267.867211 92.587355 
L 268.409201 115.998968 
L 268.95119 131.60671 
L 269.49318 186.233806 
L 270.03517 162.822194 
L 270.577159 131.60671 
L 271.119149 225.253161 
L 271.661139 139.410581 
L 272.203129 256.468645 
L 272.745118 264.272516 
L 273.287108 233.057032 
L 273.829098 178.429935 
L 274.371087 233.057032 
L 274.913077 209.645419 
L 275.455067 217.44929 
L 275.997057 201.841548 
L 276.539046 194.037677 
L 277.081036 256.468645 
L 277.623026 256.468645 
L 278.165015 209.645419 
L 278.707005 233.057032 
L 279.248995 233.057032 
L 279.790984 201.841548 
L 280.332974 209.645419 
L 280.874964 209.645419 
L 281.416954 201.841548 
L 281.958943 209.645419 
L 282.500933 209.645419 
L 283.042923 233.057032 
L 283.584912 209.645419 
L 284.126902 170.626065 
L 284.668892 209.645419 
L 285.210882 209.645419 
L 285.752871 186.233806 
L 286.294861 76.979613 
L 286.836851 123.802839 
L 287.37884 155.018323 
L 287.92083 155.018323 
L 289.00481 76.979613 
L 289.546799 100.391226 
L 290.088789 108.195097 
L 290.630779 178.429935 
L 291.172768 108.195097 
L 291.714758 131.60671 
L 292.798737 131.60671 
L 293.340727 123.802839 
L 293.882717 84.783484 
L 294.424707 131.60671 
L 294.966696 92.587355 
L 295.508686 115.998968 
L 296.050676 115.998968 
L 296.592665 100.391226 
L 297.134655 115.998968 
L 297.676645 108.195097 
L 298.218635 115.998968 
L 298.760624 108.195097 
L 299.302614 123.802839 
L 299.844604 131.60671 
L 300.386593 115.998968 
L 301.470573 131.60671 
L 302.012563 147.214452 
L 302.554552 100.391226 
L 303.096542 139.410581 
L 303.638532 123.802839 
L 304.180521 76.979613 
L 304.722511 147.214452 
L 305.264501 123.802839 
L 305.80649 115.998968 
L 306.34848 194.037677 
L 306.89047 155.018323 
L 307.43246 217.44929 
L 307.974449 201.841548 
L 308.516439 201.841548 
L 309.058429 194.037677 
L 309.600418 201.841548 
L 310.142408 170.626065 
L 310.684398 194.037677 
L 311.226388 170.626065 
L 311.768377 186.233806 
L 312.310367 155.018323 
L 312.852357 233.057032 
L 313.394346 256.468645 
L 313.936336 240.860903 
L 314.478326 209.645419 
L 315.020316 186.233806 
L 315.562305 194.037677 
L 316.104295 233.057032 
L 316.646285 240.860903 
L 317.188274 201.841548 
L 317.730264 233.057032 
L 318.272254 225.253161 
L 318.814243 248.664774 
L 319.356233 240.860903 
L 319.898223 194.037677 
L 320.440213 256.468645 
L 320.982202 194.037677 
L 321.524192 209.645419 
L 322.066182 264.272516 
L 322.608171 162.822194 
L 323.150161 217.44929 
L 323.692151 194.037677 
L 324.234141 233.057032 
L 324.77613 53.568 
L 325.31812 147.214452 
L 325.86011 76.979613 
L 326.402099 186.233806 
L 326.944089 147.214452 
L 327.486079 155.018323 
L 328.028069 170.626065 
L 328.570058 162.822194 
L 329.112048 131.60671 
L 329.654038 108.195097 
L 330.196027 131.60671 
L 330.738017 147.214452 
L 331.280007 84.783484 
L 331.821996 115.998968 
L 332.363986 123.802839 
L 332.905976 100.391226 
L 333.447966 123.802839 
L 333.989955 162.822194 
L 334.531945 100.391226 
L 335.073935 155.018323 
L 336.157914 108.195097 
L 336.699904 115.998968 
L 337.241894 115.998968 
L 337.783883 155.018323 
L 338.325873 84.783484 
L 338.867863 155.018323 
L 339.409852 108.195097 
L 339.951842 100.391226 
L 340.493832 178.429935 
L 341.035822 170.626065 
L 341.577811 256.468645 
L 342.119801 194.037677 
L 342.661791 186.233806 
L 343.20378 287.684129 
L 343.74577 170.626065 
L 344.28776 194.037677 
L 345.371739 209.645419 
L 345.913729 209.645419 
L 346.455719 225.253161 
L 346.997708 209.645419 
L 347.539698 233.057032 
L 348.081688 240.860903 
L 348.623677 225.253161 
L 349.165667 233.057032 
L 349.707657 233.057032 
L 350.249647 225.253161 
L 350.791636 162.822194 
L 351.333626 272.076387 
L 351.875616 178.429935 
L 352.417605 194.037677 
L 352.959595 217.44929 
L 353.501585 155.018323 
L 354.043575 170.626065 
L 354.585564 115.998968 
L 355.127554 139.410581 
L 355.669544 131.60671 
L 356.211533 92.587355 
L 356.753523 186.233806 
L 357.295513 155.018323 
L 357.837503 147.214452 
L 358.379492 155.018323 
L 358.921482 217.44929 
L 359.463472 147.214452 
L 360.005461 131.60671 
L 360.547451 131.60671 
L 361.63143 115.998968 
L 362.17342 147.214452 
L 362.71541 155.018323 
L 363.2574 100.391226 
L 363.799389 123.802839 
L 364.341379 108.195097 
L 364.883369 123.802839 
L 365.425358 84.783484 
L 365.967348 84.783484 
L 367.051328 115.998968 
L 367.593317 84.783484 
L 368.677297 115.998968 
L 369.219286 100.391226 
L 369.761276 100.391226 
L 370.303266 123.802839 
L 370.845256 115.998968 
L 371.387245 131.60671 
L 372.471225 115.998968 
L 373.013756 131.60671 
L 374.097736 115.998968 
L 374.639726 201.841548 
L 375.181715 115.998968 
L 375.723705 256.468645 
L 376.265695 217.44929 
L 376.807684 240.860903 
L 377.891664 225.253161 
L 378.433654 139.410581 
L 378.975643 162.822194 
L 379.517633 178.429935 
L 380.059623 256.468645 
L 381.143602 209.645419 
L 381.685592 201.841548 
L 382.227581 225.253161 
L 382.769571 209.645419 
L 383.311561 225.253161 
L 383.853551 256.468645 
L 384.39554 264.272516 
L 385.47952 248.664774 
L 386.021509 233.057032 
L 387.105489 248.664774 
L 387.647479 233.057032 
L 388.189468 233.057032 
L 388.731458 240.860903 
L 389.273448 225.253161 
L 389.815437 287.684129 
L 390.357427 240.860903 
L 390.899417 233.057032 
L 391.441407 256.468645 
L 391.983396 240.860903 
L 392.525386 248.664774 
L 393.067376 233.057032 
L 393.609365 256.468645 
L 394.151355 217.44929 
L 394.693345 264.272516 
L 395.235334 225.253161 
L 395.777324 240.860903 
L 396.319314 240.860903 
L 396.861304 264.272516 
L 397.403293 209.645419 
L 397.945283 233.057032 
L 398.487273 225.253161 
L 398.487273 225.253161 
" style="fill:none;stroke:#1f77b4;stroke-linecap:square;stroke-width:1.5;"/>
   </g>
   <g id="patch_3">
    <path d="M 57.6 307.584 
L 57.6 41.472 
" style="fill:none;stroke:#000000;stroke-linecap:square;stroke-linejoin:miter;stroke-width:0.8;"/>
   </g>
   <g id="patch_4">
    <path d="M 414.72 307.584 
L 414.72 41.472 
" style="fill:none;stroke:#000000;stroke-linecap:square;stroke-linejoin:miter;stroke-width:0.8;"/>
   </g>
   <g id="patch_5">
    <path d="M 57.6 307.584 
L 414.72 307.584 
" style="fill:none;stroke:#000000;stroke-linecap:square;stroke-linejoin:miter;stroke-width:0.8;"/>
   </g>
   <g id="patch_6">
    <path d="M 57.6 41.472 
L 414.72 41.472 
" style="fill:none;stroke:#000000;stroke-linecap:square;stroke-linejoin:miter;stroke-width:0.8;"/>
   </g>
   <g id="text_18">
    <!-- Voltage measured with source voltage 4000.0 mV -->
    <defs>
     <path d="M 52 44.1875 
Q 55.375 50.25 60.0625 53.125 
Q 64.75 56 71.09375 56 
Q 79.640625 56 84.28125 50.015625 
Q 88.921875 44.046875 88.921875 33.015625 
L 88.921875 0 
L 79.890625 0 
L 79.890625 32.71875 
Q 79.890625 40.578125 77.09375 44.375 
Q 74.3125 48.1875 68.609375 48.1875 
Q 61.625 48.1875 57.5625 43.546875 
Q 53.515625 38.921875 53.515625 30.90625 
L 53.515625 0 
L 44.484375 0 
L 44.484375 32.71875 
Q 44.484375 40.625 41.703125 44.40625 
Q 38.921875 48.1875 33.109375 48.1875 
Q 26.21875 48.1875 22.15625 43.53125 
Q 18.109375 38.875 18.109375 30.90625 
L 18.109375 0 
L 9.078125 0 
L 9.078125 54.6875 
L 18.109375 54.6875 
L 18.109375 46.1875 
Q 21.1875 51.21875 25.484375 53.609375 
Q 29.78125 56 35.6875 56 
Q 41.65625 56 45.828125 52.96875 
Q 50 49.953125 52 44.1875 
z
" id="DejaVuSans-6d"/>
     <path d="M 8.5 21.578125 
L 8.5 54.6875 
L 17.484375 54.6875 
L 17.484375 21.921875 
Q 17.484375 14.15625 20.5 10.265625 
Q 23.53125 6.390625 29.59375 6.390625 
Q 36.859375 6.390625 41.078125 11.03125 
Q 45.3125 15.671875 45.3125 23.6875 
L 45.3125 54.6875 
L 54.296875 54.6875 
L 54.296875 0 
L 45.3125 0 
L 45.3125 8.40625 
Q 42.046875 3.421875 37.71875 1 
Q 33.40625 -1.421875 27.6875 -1.421875 
Q 18.265625 -1.421875 13.375 4.4375 
Q 8.5 10.296875 8.5 21.578125 
z
M 31.109375 56 
z
" id="DejaVuSans-75"/>
     <path d="M 41.109375 46.296875 
Q 39.59375 47.171875 37.8125 47.578125 
Q 36.03125 48 33.890625 48 
Q 26.265625 48 22.1875 43.046875 
Q 18.109375 38.09375 18.109375 28.8125 
L 18.109375 0 
L 9.078125 0 
L 9.078125 54.6875 
L 18.109375 54.6875 
L 18.109375 46.1875 
Q 20.953125 51.171875 25.484375 53.578125 
Q 30.03125 56 36.53125 56 
Q 37.453125 56 38.578125 55.875 
Q 39.703125 55.765625 41.0625 55.515625 
z
" id="DejaVuSans-72"/>
     <path d="M 45.40625 46.390625 
L 45.40625 75.984375 
L 54.390625 75.984375 
L 54.390625 0 
L 45.40625 0 
L 45.40625 8.203125 
Q 42.578125 3.328125 38.25 0.953125 
Q 33.9375 -1.421875 27.875 -1.421875 
Q 17.96875 -1.421875 11.734375 6.484375 
Q 5.515625 14.40625 5.515625 27.296875 
Q 5.515625 40.1875 11.734375 48.09375 
Q 17.96875 56 27.875 56 
Q 33.9375 56 38.25 53.625 
Q 42.578125 51.265625 45.40625 46.390625 
z
M 14.796875 27.296875 
Q 14.796875 17.390625 18.875 11.75 
Q 22.953125 6.109375 30.078125 6.109375 
Q 37.203125 6.109375 41.296875 11.75 
Q 45.40625 17.390625 45.40625 27.296875 
Q 45.40625 37.203125 41.296875 42.84375 
Q 37.203125 48.484375 30.078125 48.484375 
Q 22.953125 48.484375 18.875 42.84375 
Q 14.796875 37.203125 14.796875 27.296875 
z
" id="DejaVuSans-64"/>
     <path d="M 4.203125 54.6875 
L 13.1875 54.6875 
L 24.421875 12.015625 
L 35.59375 54.6875 
L 46.1875 54.6875 
L 57.421875 12.015625 
L 68.609375 54.6875 
L 77.59375 54.6875 
L 63.28125 0 
L 52.6875 0 
L 40.921875 44.828125 
L 29.109375 0 
L 18.5 0 
z
" id="DejaVuSans-77"/>
     <path d="M 9.421875 54.6875 
L 18.40625 54.6875 
L 18.40625 0 
L 9.421875 0 
z
M 9.421875 75.984375 
L 18.40625 75.984375 
L 18.40625 64.59375 
L 9.421875 64.59375 
z
" id="DejaVuSans-69"/>
     <path d="M 54.890625 33.015625 
L 54.890625 0 
L 45.90625 0 
L 45.90625 32.71875 
Q 45.90625 40.484375 42.875 44.328125 
Q 39.84375 48.1875 33.796875 48.1875 
Q 26.515625 48.1875 22.3125 43.546875 
Q 18.109375 38.921875 18.109375 30.90625 
L 18.109375 0 
L 9.078125 0 
L 9.078125 75.984375 
L 18.109375 75.984375 
L 18.109375 46.1875 
Q 21.34375 51.125 25.703125 53.5625 
Q 30.078125 56 35.796875 56 
Q 45.21875 56 50.046875 50.171875 
Q 54.890625 44.34375 54.890625 33.015625 
z
" id="DejaVuSans-68"/>
     <path d="M 48.78125 52.59375 
L 48.78125 44.1875 
Q 44.96875 46.296875 41.140625 47.34375 
Q 37.3125 48.390625 33.40625 48.390625 
Q 24.65625 48.390625 19.8125 42.84375 
Q 14.984375 37.3125 14.984375 27.296875 
Q 14.984375 17.28125 19.8125 11.734375 
Q 24.65625 6.203125 33.40625 6.203125 
Q 37.3125 6.203125 41.140625 7.25 
Q 44.96875 8.296875 48.78125 10.40625 
L 48.78125 2.09375 
Q 45.015625 0.34375 40.984375 -0.53125 
Q 36.96875 -1.421875 32.421875 -1.421875 
Q 20.0625 -1.421875 12.78125 6.34375 
Q 5.515625 14.109375 5.515625 27.296875 
Q 5.515625 40.671875 12.859375 48.328125 
Q 20.21875 56 33.015625 56 
Q 37.15625 56 41.109375 55.140625 
Q 45.0625 54.296875 48.78125 52.59375 
z
" id="DejaVuSans-63"/>
     <path d="M 2.984375 54.6875 
L 12.5 54.6875 
L 29.59375 8.796875 
L 46.6875 54.6875 
L 56.203125 54.6875 
L 35.6875 0 
L 23.484375 0 
z
" id="DejaVuSans-76"/>
    </defs>
    <g transform="translate(85.5 35.472)scale(0.12 -0.12)">
     <use xlink:href="#DejaVuSans-56"/>
     <use x="68.298828" xlink:href="#DejaVuSans-6f"/>
     <use x="129.480469" xlink:href="#DejaVuSans-6c"/>
     <use x="157.263672" xlink:href="#DejaVuSans-74"/>
     <use x="196.472656" xlink:href="#DejaVuSans-61"/>
     <use x="257.751953" xlink:href="#DejaVuSans-67"/>
     <use x="321.228516" xlink:href="#DejaVuSans-65"/>
     <use x="382.751953" xlink:href="#DejaVuSans-20"/>
     <use x="414.539062" xlink:href="#DejaVuSans-6d"/>
     <use x="511.951172" xlink:href="#DejaVuSans-65"/>
     <use x="573.474609" xlink:href="#DejaVuSans-61"/>
     <use x="634.753906" xlink:href="#DejaVuSans-73"/>
     <use x="686.853516" xlink:href="#DejaVuSans-75"/>
     <use x="750.232422" xlink:href="#DejaVuSans-72"/>
     <use x="791.314453" xlink:href="#DejaVuSans-65"/>
     <use x="852.837891" xlink:href="#DejaVuSans-64"/>
     <use x="916.314453" xlink:href="#DejaVuSans-20"/>
     <use x="948.101562" xlink:href="#DejaVuSans-77"/>
     <use x="1029.888672" xlink:href="#DejaVuSans-69"/>
     <use x="1057.671875" xlink:href="#DejaVuSans-74"/>
     <use x="1096.880859" xlink:href="#DejaVuSans-68"/>
     <use x="1160.259766" xlink:href="#DejaVuSans-20"/>
     <use x="1192.046875" xlink:href="#DejaVuSans-73"/>
     <use x="1244.146484" xlink:href="#DejaVuSans-6f"/>
     <use x="1305.328125" xlink:href="#DejaVuSans-75"/>
     <use x="1368.707031" xlink:href="#DejaVuSans-72"/>
     <use x="1409.789062" xlink:href="#DejaVuSans-63"/>
     <use x="1464.769531" xlink:href="#DejaVuSans-65"/>
     <use x="1526.292969" xlink:href="#DejaVuSans-20"/>
     <use x="1558.080078" xlink:href="#DejaVuSans-76"/>
     <use x="1617.259766" xlink:href="#DejaVuSans-6f"/>
     <use x="1678.441406" xlink:href="#DejaVuSans-6c"/>
     <use x="1706.224609" xlink:href="#DejaVuSans-74"/>
     <use x="1745.433594" xlink:href="#DejaVuSans-61"/>
     <use x="1806.712891" xlink:href="#DejaVuSans-67"/>
     <use x="1870.189453" xlink:href="#DejaVuSans-65"/>
     <use x="1931.712891" xlink:href="#DejaVuSans-20"/>
     <use x="1963.5" xlink:href="#DejaVuSans-34"/>
     <use x="2027.123047" xlink:href="#DejaVuSans-30"/>
     <use x="2090.746094" xlink:href="#DejaVuSans-30"/>
     <use x="2154.369141" xlink:href="#DejaVuSans-30"/>
     <use x="2217.992188" xlink:href="#DejaVuSans-2e"/>
     <use x="2249.779297" xlink:href="#DejaVuSans-30"/>
     <use x="2313.402344" xlink:href="#DejaVuSans-20"/>
     <use x="2345.189453" xlink:href="#DejaVuSans-6d"/>
     <use x="2442.601562" xlink:href="#DejaVuSans-56"/>
    </g>
   </g>
  </g>
 </g>
 <defs>
  <clipPath id="pf19b409683">
   <rect height="266.112" width="357.12" x="57.6" y="41.472"/>
  </clipPath>
 </defs>
</svg>
