<?xml version="1.0" encoding="utf-8" standalone="no"?>
<!DOCTYPE svg PUBLIC "-//W3C//DTD SVG 1.1//EN"
  "http://www.w3.org/Graphics/SVG/1.1/DTD/svg11.dtd">
<!-- Created with matplotlib (http://matplotlib.org/) -->
<svg height="345pt" version="1.1" viewBox="0 0 460 345" width="460pt" xmlns="http://www.w3.org/2000/svg" xmlns:xlink="http://www.w3.org/1999/xlink">
 <defs>
  <style type="text/css">
*{stroke-linecap:butt;stroke-linejoin:round;}
  </style>
 </defs>
 <g id="figure_1">
  <g id="patch_1">
   <path d="M 0 345.6 
L 460.8 345.6 
L 460.8 0 
L 0 0 
z
" style="fill:#ffffff;"/>
  </g>
  <g id="axes_1">
   <g id="patch_2">
    <path d="M 57.6 307.584 
L 414.72 307.584 
L 414.72 41.472 
L 57.6 41.472 
z
" style="fill:#ffffff;"/>
   </g>
   <g id="matplotlib.axis_1">
    <g id="xtick_1">
     <g id="line2d_1">
      <path clip-path="url(#pee5881d309)" d="M 73.832727 307.584 
L 73.832727 41.472 
" style="fill:none;stroke:#b0b0b0;stroke-linecap:square;stroke-width:0.8;"/>
     </g>
     <g id="line2d_2">
      <defs>
       <path d="M 0 0 
L 0 3.5 
" id="m036ec5e690" style="stroke:#000000;stroke-width:0.8;"/>
      </defs>
      <g>
       <use style="stroke:#000000;stroke-width:0.8;" x="73.832727" xlink:href="#m036ec5e690" y="307.584"/>
      </g>
     </g>
     <g id="text_1">
      <!-- 0 -->
      <defs>
       <path d="M 31.78125 66.40625 
Q 24.171875 66.40625 20.328125 58.90625 
Q 16.5 51.421875 16.5 36.375 
Q 16.5 21.390625 20.328125 13.890625 
Q 24.171875 6.390625 31.78125 6.390625 
Q 39.453125 6.390625 43.28125 13.890625 
Q 47.125 21.390625 47.125 36.375 
Q 47.125 51.421875 43.28125 58.90625 
Q 39.453125 66.40625 31.78125 66.40625 
z
M 31.78125 74.21875 
Q 44.046875 74.21875 50.515625 64.515625 
Q 56.984375 54.828125 56.984375 36.375 
Q 56.984375 17.96875 50.515625 8.265625 
Q 44.046875 -1.421875 31.78125 -1.421875 
Q 19.53125 -1.421875 13.0625 8.265625 
Q 6.59375 17.96875 6.59375 36.375 
Q 6.59375 54.828125 13.0625 64.515625 
Q 19.53125 74.21875 31.78125 74.21875 
z
" id="DejaVuSans-30"/>
      </defs>
      <g transform="translate(70.651477 322.182437)scale(0.1 -0.1)">
       <use xlink:href="#DejaVuSans-30"/>
      </g>
     </g>
    </g>
    <g id="xtick_2">
     <g id="line2d_3">
      <path clip-path="url(#pee5881d309)" d="M 118.927764 307.584 
L 118.927764 41.472 
" style="fill:none;stroke:#b0b0b0;stroke-linecap:square;stroke-width:0.8;"/>
     </g>
     <g id="line2d_4">
      <g>
       <use style="stroke:#000000;stroke-width:0.8;" x="118.927764" xlink:href="#m036ec5e690" y="307.584"/>
      </g>
     </g>
     <g id="text_2">
      <!-- 1000 -->
      <defs>
       <path d="M 12.40625 8.296875 
L 28.515625 8.296875 
L 28.515625 63.921875 
L 10.984375 60.40625 
L 10.984375 69.390625 
L 28.421875 72.90625 
L 38.28125 72.90625 
L 38.28125 8.296875 
L 54.390625 8.296875 
L 54.390625 0 
L 12.40625 0 
z
" id="DejaVuSans-31"/>
      </defs>
      <g transform="translate(106.202764 322.182437)scale(0.1 -0.1)">
       <use xlink:href="#DejaVuSans-31"/>
       <use x="63.623047" xlink:href="#DejaVuSans-30"/>
       <use x="127.246094" xlink:href="#DejaVuSans-30"/>
       <use x="190.869141" xlink:href="#DejaVuSans-30"/>
      </g>
     </g>
    </g>
    <g id="xtick_3">
     <g id="line2d_5">
      <path clip-path="url(#pee5881d309)" d="M 164.0228 307.584 
L 164.0228 41.472 
" style="fill:none;stroke:#b0b0b0;stroke-linecap:square;stroke-width:0.8;"/>
     </g>
     <g id="line2d_6">
      <g>
       <use style="stroke:#000000;stroke-width:0.8;" x="164.0228" xlink:href="#m036ec5e690" y="307.584"/>
      </g>
     </g>
     <g id="text_3">
      <!-- 2000 -->
      <defs>
       <path d="M 19.1875 8.296875 
L 53.609375 8.296875 
L 53.609375 0 
L 7.328125 0 
L 7.328125 8.296875 
Q 12.9375 14.109375 22.625 23.890625 
Q 32.328125 33.6875 34.8125 36.53125 
Q 39.546875 41.84375 41.421875 45.53125 
Q 43.3125 49.21875 43.3125 52.78125 
Q 43.3125 58.59375 39.234375 62.25 
Q 35.15625 65.921875 28.609375 65.921875 
Q 23.96875 65.921875 18.8125 64.3125 
Q 13.671875 62.703125 7.8125 59.421875 
L 7.8125 69.390625 
Q 13.765625 71.78125 18.9375 73 
Q 24.125 74.21875 28.421875 74.21875 
Q 39.75 74.21875 46.484375 68.546875 
Q 53.21875 62.890625 53.21875 53.421875 
Q 53.21875 48.921875 51.53125 44.890625 
Q 49.859375 40.875 45.40625 35.40625 
Q 44.1875 33.984375 37.640625 27.21875 
Q 31.109375 20.453125 19.1875 8.296875 
z
" id="DejaVuSans-32"/>
      </defs>
      <g transform="translate(151.2978 322.182437)scale(0.1 -0.1)">
       <use xlink:href="#DejaVuSans-32"/>
       <use x="63.623047" xlink:href="#DejaVuSans-30"/>
       <use x="127.246094" xlink:href="#DejaVuSans-30"/>
       <use x="190.869141" xlink:href="#DejaVuSans-30"/>
      </g>
     </g>
    </g>
    <g id="xtick_4">
     <g id="line2d_7">
      <path clip-path="url(#pee5881d309)" d="M 209.117837 307.584 
L 209.117837 41.472 
" style="fill:none;stroke:#b0b0b0;stroke-linecap:square;stroke-width:0.8;"/>
     </g>
     <g id="line2d_8">
      <g>
       <use style="stroke:#000000;stroke-width:0.8;" x="209.117837" xlink:href="#m036ec5e690" y="307.584"/>
      </g>
     </g>
     <g id="text_4">
      <!-- 3000 -->
      <defs>
       <path d="M 40.578125 39.3125 
Q 47.65625 37.796875 51.625 33 
Q 55.609375 28.21875 55.609375 21.1875 
Q 55.609375 10.40625 48.1875 4.484375 
Q 40.765625 -1.421875 27.09375 -1.421875 
Q 22.515625 -1.421875 17.65625 -0.515625 
Q 12.796875 0.390625 7.625 2.203125 
L 7.625 11.71875 
Q 11.71875 9.328125 16.59375 8.109375 
Q 21.484375 6.890625 26.8125 6.890625 
Q 36.078125 6.890625 40.9375 10.546875 
Q 45.796875 14.203125 45.796875 21.1875 
Q 45.796875 27.640625 41.28125 31.265625 
Q 36.765625 34.90625 28.71875 34.90625 
L 20.21875 34.90625 
L 20.21875 43.015625 
L 29.109375 43.015625 
Q 36.375 43.015625 40.234375 45.921875 
Q 44.09375 48.828125 44.09375 54.296875 
Q 44.09375 59.90625 40.109375 62.90625 
Q 36.140625 65.921875 28.71875 65.921875 
Q 24.65625 65.921875 20.015625 65.03125 
Q 15.375 64.15625 9.8125 62.3125 
L 9.8125 71.09375 
Q 15.4375 72.65625 20.34375 73.4375 
Q 25.25 74.21875 29.59375 74.21875 
Q 40.828125 74.21875 47.359375 69.109375 
Q 53.90625 64.015625 53.90625 55.328125 
Q 53.90625 49.265625 50.4375 45.09375 
Q 46.96875 40.921875 40.578125 39.3125 
z
" id="DejaVuSans-33"/>
      </defs>
      <g transform="translate(196.392837 322.182437)scale(0.1 -0.1)">
       <use xlink:href="#DejaVuSans-33"/>
       <use x="63.623047" xlink:href="#DejaVuSans-30"/>
       <use x="127.246094" xlink:href="#DejaVuSans-30"/>
       <use x="190.869141" xlink:href="#DejaVuSans-30"/>
      </g>
     </g>
    </g>
    <g id="xtick_5">
     <g id="line2d_9">
      <path clip-path="url(#pee5881d309)" d="M 254.212873 307.584 
L 254.212873 41.472 
" style="fill:none;stroke:#b0b0b0;stroke-linecap:square;stroke-width:0.8;"/>
     </g>
     <g id="line2d_10">
      <g>
       <use style="stroke:#000000;stroke-width:0.8;" x="254.212873" xlink:href="#m036ec5e690" y="307.584"/>
      </g>
     </g>
     <g id="text_5">
      <!-- 4000 -->
      <defs>
       <path d="M 37.796875 64.3125 
L 12.890625 25.390625 
L 37.796875 25.390625 
z
M 35.203125 72.90625 
L 47.609375 72.90625 
L 47.609375 25.390625 
L 58.015625 25.390625 
L 58.015625 17.1875 
L 47.609375 17.1875 
L 47.609375 0 
L 37.796875 0 
L 37.796875 17.1875 
L 4.890625 17.1875 
L 4.890625 26.703125 
z
" id="DejaVuSans-34"/>
      </defs>
      <g transform="translate(241.487873 322.182437)scale(0.1 -0.1)">
       <use xlink:href="#DejaVuSans-34"/>
       <use x="63.623047" xlink:href="#DejaVuSans-30"/>
       <use x="127.246094" xlink:href="#DejaVuSans-30"/>
       <use x="190.869141" xlink:href="#DejaVuSans-30"/>
      </g>
     </g>
    </g>
    <g id="xtick_6">
     <g id="line2d_11">
      <path clip-path="url(#pee5881d309)" d="M 299.30791 307.584 
L 299.30791 41.472 
" style="fill:none;stroke:#b0b0b0;stroke-linecap:square;stroke-width:0.8;"/>
     </g>
     <g id="line2d_12">
      <g>
       <use style="stroke:#000000;stroke-width:0.8;" x="299.30791" xlink:href="#m036ec5e690" y="307.584"/>
      </g>
     </g>
     <g id="text_6">
      <!-- 5000 -->
      <defs>
       <path d="M 10.796875 72.90625 
L 49.515625 72.90625 
L 49.515625 64.59375 
L 19.828125 64.59375 
L 19.828125 46.734375 
Q 21.96875 47.46875 24.109375 47.828125 
Q 26.265625 48.1875 28.421875 48.1875 
Q 40.625 48.1875 47.75 41.5 
Q 54.890625 34.8125 54.890625 23.390625 
Q 54.890625 11.625 47.5625 5.09375 
Q 40.234375 -1.421875 26.90625 -1.421875 
Q 22.3125 -1.421875 17.546875 -0.640625 
Q 12.796875 0.140625 7.71875 1.703125 
L 7.71875 11.625 
Q 12.109375 9.234375 16.796875 8.0625 
Q 21.484375 6.890625 26.703125 6.890625 
Q 35.15625 6.890625 40.078125 11.328125 
Q 45.015625 15.765625 45.015625 23.390625 
Q 45.015625 31 40.078125 35.4375 
Q 35.15625 39.890625 26.703125 39.890625 
Q 22.75 39.890625 18.8125 39.015625 
Q 14.890625 38.140625 10.796875 36.28125 
z
" id="DejaVuSans-35"/>
      </defs>
      <g transform="translate(286.58291 322.182437)scale(0.1 -0.1)">
       <use xlink:href="#DejaVuSans-35"/>
       <use x="63.623047" xlink:href="#DejaVuSans-30"/>
       <use x="127.246094" xlink:href="#DejaVuSans-30"/>
       <use x="190.869141" xlink:href="#DejaVuSans-30"/>
      </g>
     </g>
    </g>
    <g id="xtick_7">
     <g id="line2d_13">
      <path clip-path="url(#pee5881d309)" d="M 344.402947 307.584 
L 344.402947 41.472 
" style="fill:none;stroke:#b0b0b0;stroke-linecap:square;stroke-width:0.8;"/>
     </g>
     <g id="line2d_14">
      <g>
       <use style="stroke:#000000;stroke-width:0.8;" x="344.402947" xlink:href="#m036ec5e690" y="307.584"/>
      </g>
     </g>
     <g id="text_7">
      <!-- 6000 -->
      <defs>
       <path d="M 33.015625 40.375 
Q 26.375 40.375 22.484375 35.828125 
Q 18.609375 31.296875 18.609375 23.390625 
Q 18.609375 15.53125 22.484375 10.953125 
Q 26.375 6.390625 33.015625 6.390625 
Q 39.65625 6.390625 43.53125 10.953125 
Q 47.40625 15.53125 47.40625 23.390625 
Q 47.40625 31.296875 43.53125 35.828125 
Q 39.65625 40.375 33.015625 40.375 
z
M 52.59375 71.296875 
L 52.59375 62.3125 
Q 48.875 64.0625 45.09375 64.984375 
Q 41.3125 65.921875 37.59375 65.921875 
Q 27.828125 65.921875 22.671875 59.328125 
Q 17.53125 52.734375 16.796875 39.40625 
Q 19.671875 43.65625 24.015625 45.921875 
Q 28.375 48.1875 33.59375 48.1875 
Q 44.578125 48.1875 50.953125 41.515625 
Q 57.328125 34.859375 57.328125 23.390625 
Q 57.328125 12.15625 50.6875 5.359375 
Q 44.046875 -1.421875 33.015625 -1.421875 
Q 20.359375 -1.421875 13.671875 8.265625 
Q 6.984375 17.96875 6.984375 36.375 
Q 6.984375 53.65625 15.1875 63.9375 
Q 23.390625 74.21875 37.203125 74.21875 
Q 40.921875 74.21875 44.703125 73.484375 
Q 48.484375 72.75 52.59375 71.296875 
z
" id="DejaVuSans-36"/>
      </defs>
      <g transform="translate(331.677947 322.182437)scale(0.1 -0.1)">
       <use xlink:href="#DejaVuSans-36"/>
       <use x="63.623047" xlink:href="#DejaVuSans-30"/>
       <use x="127.246094" xlink:href="#DejaVuSans-30"/>
       <use x="190.869141" xlink:href="#DejaVuSans-30"/>
      </g>
     </g>
    </g>
    <g id="xtick_8">
     <g id="line2d_15">
      <path clip-path="url(#pee5881d309)" d="M 389.497983 307.584 
L 389.497983 41.472 
" style="fill:none;stroke:#b0b0b0;stroke-linecap:square;stroke-width:0.8;"/>
     </g>
     <g id="line2d_16">
      <g>
       <use style="stroke:#000000;stroke-width:0.8;" x="389.497983" xlink:href="#m036ec5e690" y="307.584"/>
      </g>
     </g>
     <g id="text_8">
      <!-- 7000 -->
      <defs>
       <path d="M 8.203125 72.90625 
L 55.078125 72.90625 
L 55.078125 68.703125 
L 28.609375 0 
L 18.3125 0 
L 43.21875 64.59375 
L 8.203125 64.59375 
z
" id="DejaVuSans-37"/>
      </defs>
      <g transform="translate(376.772983 322.182437)scale(0.1 -0.1)">
       <use xlink:href="#DejaVuSans-37"/>
       <use x="63.623047" xlink:href="#DejaVuSans-30"/>
       <use x="127.246094" xlink:href="#DejaVuSans-30"/>
       <use x="190.869141" xlink:href="#DejaVuSans-30"/>
      </g>
     </g>
    </g>
    <g id="text_9">
     <!-- t(s) -->
     <defs>
      <path d="M 18.3125 70.21875 
L 18.3125 54.6875 
L 36.8125 54.6875 
L 36.8125 47.703125 
L 18.3125 47.703125 
L 18.3125 18.015625 
Q 18.3125 11.328125 20.140625 9.421875 
Q 21.96875 7.515625 27.59375 7.515625 
L 36.8125 7.515625 
L 36.8125 0 
L 27.59375 0 
Q 17.1875 0 13.234375 3.875 
Q 9.28125 7.765625 9.28125 18.015625 
L 9.28125 47.703125 
L 2.6875 47.703125 
L 2.6875 54.6875 
L 9.28125 54.6875 
L 9.28125 70.21875 
z
" id="DejaVuSans-74"/>
      <path d="M 31 75.875 
Q 24.46875 64.65625 21.28125 53.65625 
Q 18.109375 42.671875 18.109375 31.390625 
Q 18.109375 20.125 21.3125 9.0625 
Q 24.515625 -2 31 -13.1875 
L 23.1875 -13.1875 
Q 15.875 -1.703125 12.234375 9.375 
Q 8.59375 20.453125 8.59375 31.390625 
Q 8.59375 42.28125 12.203125 53.3125 
Q 15.828125 64.359375 23.1875 75.875 
z
" id="DejaVuSans-28"/>
      <path d="M 44.28125 53.078125 
L 44.28125 44.578125 
Q 40.484375 46.53125 36.375 47.5 
Q 32.28125 48.484375 27.875 48.484375 
Q 21.1875 48.484375 17.84375 46.4375 
Q 14.5 44.390625 14.5 40.28125 
Q 14.5 37.15625 16.890625 35.375 
Q 19.28125 33.59375 26.515625 31.984375 
L 29.59375 31.296875 
Q 39.15625 29.25 43.1875 25.515625 
Q 47.21875 21.78125 47.21875 15.09375 
Q 47.21875 7.46875 41.1875 3.015625 
Q 35.15625 -1.421875 24.609375 -1.421875 
Q 20.21875 -1.421875 15.453125 -0.5625 
Q 10.6875 0.296875 5.421875 2 
L 5.421875 11.28125 
Q 10.40625 8.6875 15.234375 7.390625 
Q 20.0625 6.109375 24.8125 6.109375 
Q 31.15625 6.109375 34.5625 8.28125 
Q 37.984375 10.453125 37.984375 14.40625 
Q 37.984375 18.0625 35.515625 20.015625 
Q 33.0625 21.96875 24.703125 23.78125 
L 21.578125 24.515625 
Q 13.234375 26.265625 9.515625 29.90625 
Q 5.8125 33.546875 5.8125 39.890625 
Q 5.8125 47.609375 11.28125 51.796875 
Q 16.75 56 26.8125 56 
Q 31.78125 56 36.171875 55.265625 
Q 40.578125 54.546875 44.28125 53.078125 
z
" id="DejaVuSans-73"/>
      <path d="M 8.015625 75.875 
L 15.828125 75.875 
Q 23.140625 64.359375 26.78125 53.3125 
Q 30.421875 42.28125 30.421875 31.390625 
Q 30.421875 20.453125 26.78125 9.375 
Q 23.140625 -1.703125 15.828125 -13.1875 
L 8.015625 -13.1875 
Q 14.5 -2 17.703125 9.0625 
Q 20.90625 20.125 20.90625 31.390625 
Q 20.90625 42.671875 17.703125 53.65625 
Q 14.5 64.65625 8.015625 75.875 
z
" id="DejaVuSans-29"/>
     </defs>
     <g transform="translate(227.693594 335.860562)scale(0.1 -0.1)">
      <use xlink:href="#DejaVuSans-74"/>
      <use x="39.208984" xlink:href="#DejaVuSans-28"/>
      <use x="78.222656" xlink:href="#DejaVuSans-73"/>
      <use x="130.322266" xlink:href="#DejaVuSans-29"/>
     </g>
    </g>
   </g>
   <g id="matplotlib.axis_2">
    <g id="ytick_1">
     <g id="line2d_17">
      <path clip-path="url(#pee5881d309)" d="M 57.6 307.584 
L 414.72 307.584 
" style="fill:none;stroke:#b0b0b0;stroke-linecap:square;stroke-width:0.8;"/>
     </g>
     <g id="line2d_18">
      <defs>
       <path d="M 0 0 
L -3.5 0 
" id="m12fef62d04" style="stroke:#000000;stroke-width:0.8;"/>
      </defs>
      <g>
       <use style="stroke:#000000;stroke-width:0.8;" x="57.6" xlink:href="#m12fef62d04" y="307.584"/>
      </g>
     </g>
     <g id="text_10">
      <!-- 0 -->
      <g transform="translate(44.2375 311.383219)scale(0.1 -0.1)">
       <use xlink:href="#DejaVuSans-30"/>
      </g>
     </g>
    </g>
    <g id="ytick_2">
     <g id="line2d_19">
      <path clip-path="url(#pee5881d309)" d="M 57.6 263.232 
L 414.72 263.232 
" style="fill:none;stroke:#b0b0b0;stroke-linecap:square;stroke-width:0.8;"/>
     </g>
     <g id="line2d_20">
      <g>
       <use style="stroke:#000000;stroke-width:0.8;" x="57.6" xlink:href="#m12fef62d04" y="263.232"/>
      </g>
     </g>
     <g id="text_11">
      <!-- 5 -->
      <g transform="translate(44.2375 267.031219)scale(0.1 -0.1)">
       <use xlink:href="#DejaVuSans-35"/>
      </g>
     </g>
    </g>
    <g id="ytick_3">
     <g id="line2d_21">
      <path clip-path="url(#pee5881d309)" d="M 57.6 218.88 
L 414.72 218.88 
" style="fill:none;stroke:#b0b0b0;stroke-linecap:square;stroke-width:0.8;"/>
     </g>
     <g id="line2d_22">
      <g>
       <use style="stroke:#000000;stroke-width:0.8;" x="57.6" xlink:href="#m12fef62d04" y="218.88"/>
      </g>
     </g>
     <g id="text_12">
      <!-- 10 -->
      <g transform="translate(37.875 222.679219)scale(0.1 -0.1)">
       <use xlink:href="#DejaVuSans-31"/>
       <use x="63.623047" xlink:href="#DejaVuSans-30"/>
      </g>
     </g>
    </g>
    <g id="ytick_4">
     <g id="line2d_23">
      <path clip-path="url(#pee5881d309)" d="M 57.6 174.528 
L 414.72 174.528 
" style="fill:none;stroke:#b0b0b0;stroke-linecap:square;stroke-width:0.8;"/>
     </g>
     <g id="line2d_24">
      <g>
       <use style="stroke:#000000;stroke-width:0.8;" x="57.6" xlink:href="#m12fef62d04" y="174.528"/>
      </g>
     </g>
     <g id="text_13">
      <!-- 15 -->
      <g transform="translate(37.875 178.327219)scale(0.1 -0.1)">
       <use xlink:href="#DejaVuSans-31"/>
       <use x="63.623047" xlink:href="#DejaVuSans-35"/>
      </g>
     </g>
    </g>
    <g id="ytick_5">
     <g id="line2d_25">
      <path clip-path="url(#pee5881d309)" d="M 57.6 130.176 
L 414.72 130.176 
" style="fill:none;stroke:#b0b0b0;stroke-linecap:square;stroke-width:0.8;"/>
     </g>
     <g id="line2d_26">
      <g>
       <use style="stroke:#000000;stroke-width:0.8;" x="57.6" xlink:href="#m12fef62d04" y="130.176"/>
      </g>
     </g>
     <g id="text_14">
      <!-- 20 -->
      <g transform="translate(37.875 133.975219)scale(0.1 -0.1)">
       <use xlink:href="#DejaVuSans-32"/>
       <use x="63.623047" xlink:href="#DejaVuSans-30"/>
      </g>
     </g>
    </g>
    <g id="ytick_6">
     <g id="line2d_27">
      <path clip-path="url(#pee5881d309)" d="M 57.6 85.824 
L 414.72 85.824 
" style="fill:none;stroke:#b0b0b0;stroke-linecap:square;stroke-width:0.8;"/>
     </g>
     <g id="line2d_28">
      <g>
       <use style="stroke:#000000;stroke-width:0.8;" x="57.6" xlink:href="#m12fef62d04" y="85.824"/>
      </g>
     </g>
     <g id="text_15">
      <!-- 25 -->
      <g transform="translate(37.875 89.623219)scale(0.1 -0.1)">
       <use xlink:href="#DejaVuSans-32"/>
       <use x="63.623047" xlink:href="#DejaVuSans-35"/>
      </g>
     </g>
    </g>
    <g id="ytick_7">
     <g id="line2d_29">
      <path clip-path="url(#pee5881d309)" d="M 57.6 41.472 
L 414.72 41.472 
" style="fill:none;stroke:#b0b0b0;stroke-linecap:square;stroke-width:0.8;"/>
     </g>
     <g id="line2d_30">
      <g>
       <use style="stroke:#000000;stroke-width:0.8;" x="57.6" xlink:href="#m12fef62d04" y="41.472"/>
      </g>
     </g>
     <g id="text_16">
      <!-- 30 -->
      <g transform="translate(37.875 45.271219)scale(0.1 -0.1)">
       <use xlink:href="#DejaVuSans-33"/>
       <use x="63.623047" xlink:href="#DejaVuSans-30"/>
      </g>
     </g>
    </g>
    <g id="text_17">
     <!-- Resistance (M$\Omega$) -->
     <defs>
      <path d="M 44.390625 34.1875 
Q 47.5625 33.109375 50.5625 29.59375 
Q 53.5625 26.078125 56.59375 19.921875 
L 66.609375 0 
L 56 0 
L 46.6875 18.703125 
Q 43.0625 26.03125 39.671875 28.421875 
Q 36.28125 30.8125 30.421875 30.8125 
L 19.671875 30.8125 
L 19.671875 0 
L 9.8125 0 
L 9.8125 72.90625 
L 32.078125 72.90625 
Q 44.578125 72.90625 50.734375 67.671875 
Q 56.890625 62.453125 56.890625 51.90625 
Q 56.890625 45.015625 53.6875 40.46875 
Q 50.484375 35.9375 44.390625 34.1875 
z
M 19.671875 64.796875 
L 19.671875 38.921875 
L 32.078125 38.921875 
Q 39.203125 38.921875 42.84375 42.21875 
Q 46.484375 45.515625 46.484375 51.90625 
Q 46.484375 58.296875 42.84375 61.546875 
Q 39.203125 64.796875 32.078125 64.796875 
z
" id="DejaVuSans-52"/>
      <path d="M 56.203125 29.59375 
L 56.203125 25.203125 
L 14.890625 25.203125 
Q 15.484375 15.921875 20.484375 11.0625 
Q 25.484375 6.203125 34.421875 6.203125 
Q 39.59375 6.203125 44.453125 7.46875 
Q 49.3125 8.734375 54.109375 11.28125 
L 54.109375 2.78125 
Q 49.265625 0.734375 44.1875 -0.34375 
Q 39.109375 -1.421875 33.890625 -1.421875 
Q 20.796875 -1.421875 13.15625 6.1875 
Q 5.515625 13.8125 5.515625 26.8125 
Q 5.515625 40.234375 12.765625 48.109375 
Q 20.015625 56 32.328125 56 
Q 43.359375 56 49.78125 48.890625 
Q 56.203125 41.796875 56.203125 29.59375 
z
M 47.21875 32.234375 
Q 47.125 39.59375 43.09375 43.984375 
Q 39.0625 48.390625 32.421875 48.390625 
Q 24.90625 48.390625 20.390625 44.140625 
Q 15.875 39.890625 15.1875 32.171875 
z
" id="DejaVuSans-65"/>
      <path d="M 9.421875 54.6875 
L 18.40625 54.6875 
L 18.40625 0 
L 9.421875 0 
z
M 9.421875 75.984375 
L 18.40625 75.984375 
L 18.40625 64.59375 
L 9.421875 64.59375 
z
" id="DejaVuSans-69"/>
      <path d="M 34.28125 27.484375 
Q 23.390625 27.484375 19.1875 25 
Q 14.984375 22.515625 14.984375 16.5 
Q 14.984375 11.71875 18.140625 8.90625 
Q 21.296875 6.109375 26.703125 6.109375 
Q 34.1875 6.109375 38.703125 11.40625 
Q 43.21875 16.703125 43.21875 25.484375 
L 43.21875 27.484375 
z
M 52.203125 31.203125 
L 52.203125 0 
L 43.21875 0 
L 43.21875 8.296875 
Q 40.140625 3.328125 35.546875 0.953125 
Q 30.953125 -1.421875 24.3125 -1.421875 
Q 15.921875 -1.421875 10.953125 3.296875 
Q 6 8.015625 6 15.921875 
Q 6 25.140625 12.171875 29.828125 
Q 18.359375 34.515625 30.609375 34.515625 
L 43.21875 34.515625 
L 43.21875 35.40625 
Q 43.21875 41.609375 39.140625 45 
Q 35.0625 48.390625 27.6875 48.390625 
Q 23 48.390625 18.546875 47.265625 
Q 14.109375 46.140625 10.015625 43.890625 
L 10.015625 52.203125 
Q 14.9375 54.109375 19.578125 55.046875 
Q 24.21875 56 28.609375 56 
Q 40.484375 56 46.34375 49.84375 
Q 52.203125 43.703125 52.203125 31.203125 
z
" id="DejaVuSans-61"/>
      <path d="M 54.890625 33.015625 
L 54.890625 0 
L 45.90625 0 
L 45.90625 32.71875 
Q 45.90625 40.484375 42.875 44.328125 
Q 39.84375 48.1875 33.796875 48.1875 
Q 26.515625 48.1875 22.3125 43.546875 
Q 18.109375 38.921875 18.109375 30.90625 
L 18.109375 0 
L 9.078125 0 
L 9.078125 54.6875 
L 18.109375 54.6875 
L 18.109375 46.1875 
Q 21.34375 51.125 25.703125 53.5625 
Q 30.078125 56 35.796875 56 
Q 45.21875 56 50.046875 50.171875 
Q 54.890625 44.34375 54.890625 33.015625 
z
" id="DejaVuSans-6e"/>
      <path d="M 48.78125 52.59375 
L 48.78125 44.1875 
Q 44.96875 46.296875 41.140625 47.34375 
Q 37.3125 48.390625 33.40625 48.390625 
Q 24.65625 48.390625 19.8125 42.84375 
Q 14.984375 37.3125 14.984375 27.296875 
Q 14.984375 17.28125 19.8125 11.734375 
Q 24.65625 6.203125 33.40625 6.203125 
Q 37.3125 6.203125 41.140625 7.25 
Q 44.96875 8.296875 48.78125 10.40625 
L 48.78125 2.09375 
Q 45.015625 0.34375 40.984375 -0.53125 
Q 36.96875 -1.421875 32.421875 -1.421875 
Q 20.0625 -1.421875 12.78125 6.34375 
Q 5.515625 14.109375 5.515625 27.296875 
Q 5.515625 40.671875 12.859375 48.328125 
Q 20.21875 56 33.015625 56 
Q 37.15625 56 41.109375 55.140625 
Q 45.0625 54.296875 48.78125 52.59375 
z
" id="DejaVuSans-63"/>
      <path id="DejaVuSans-20"/>
      <path d="M 9.8125 72.90625 
L 24.515625 72.90625 
L 43.109375 23.296875 
L 61.8125 72.90625 
L 76.515625 72.90625 
L 76.515625 0 
L 66.890625 0 
L 66.890625 64.015625 
L 48.09375 14.015625 
L 38.1875 14.015625 
L 19.390625 64.015625 
L 19.390625 0 
L 9.8125 0 
z
" id="DejaVuSans-4d"/>
      <path d="M 72.609375 8.6875 
L 72.609375 0 
L 43.3125 0 
L 43.3125 8.6875 
Q 51.953125 13.421875 56.78125 21.53125 
Q 61.625 29.640625 61.625 39.5 
Q 61.625 51.21875 55.171875 58.296875 
Q 48.734375 65.375 38.1875 65.375 
Q 27.640625 65.375 21.171875 58.265625 
Q 14.703125 51.171875 14.703125 39.5 
Q 14.703125 29.640625 19.53125 21.53125 
Q 24.421875 13.421875 33.109375 8.6875 
L 33.109375 0 
L 3.8125 0 
L 3.8125 8.6875 
L 19.390625 8.6875 
Q 11.671875 15.484375 8.109375 22.75 
Q 4.59375 30.03125 4.59375 39.015625 
Q 4.59375 54.546875 13.96875 64.15625 
Q 23.296875 73.78125 38.1875 73.78125 
Q 52.984375 73.78125 62.40625 64.15625 
Q 71.78125 54.59375 71.78125 39.5 
Q 71.78125 30.03125 68.3125 22.796875 
Q 64.84375 15.578125 56.984375 8.6875 
z
" id="DejaVuSans-3a9"/>
     </defs>
     <g transform="translate(31.795312 215.328)rotate(-90)scale(0.1 -0.1)">
      <use transform="translate(0 0.015625)" xlink:href="#DejaVuSans-52"/>
      <use transform="translate(69.482422 0.015625)" xlink:href="#DejaVuSans-65"/>
      <use transform="translate(131.005859 0.015625)" xlink:href="#DejaVuSans-73"/>
      <use transform="translate(183.105469 0.015625)" xlink:href="#DejaVuSans-69"/>
      <use transform="translate(210.888672 0.015625)" xlink:href="#DejaVuSans-73"/>
      <use transform="translate(262.988281 0.015625)" xlink:href="#DejaVuSans-74"/>
      <use transform="translate(302.197266 0.015625)" xlink:href="#DejaVuSans-61"/>
      <use transform="translate(363.476562 0.015625)" xlink:href="#DejaVuSans-6e"/>
      <use transform="translate(426.855469 0.015625)" xlink:href="#DejaVuSans-63"/>
      <use transform="translate(481.835938 0.015625)" xlink:href="#DejaVuSans-65"/>
      <use transform="translate(543.359375 0.015625)" xlink:href="#DejaVuSans-20"/>
      <use transform="translate(575.146484 0.015625)" xlink:href="#DejaVuSans-28"/>
      <use transform="translate(614.160156 0.015625)" xlink:href="#DejaVuSans-4d"/>
      <use transform="translate(700.439453 0.015625)" xlink:href="#DejaVuSans-3a9"/>
      <use transform="translate(776.855469 0.015625)" xlink:href="#DejaVuSans-29"/>
     </g>
    </g>
   </g>
   <g id="line2d_31">
    <path clip-path="url(#pee5881d309)" d="M 73.832727 87.195255 
L 73.877822 87.156919 
L 74.013107 87.551037 
L 74.283678 86.851269 
L 74.328773 86.794611 
L 74.464058 86.439229 
L 74.509153 86.497206 
L 74.644438 85.572907 
L 74.689533 85.725272 
L 74.734628 85.979567 
L 74.779723 85.073248 
L 74.869913 85.43524 
L 74.915008 85.863688 
L 74.960103 84.953279 
L 75.005198 86.174715 
L 75.050293 85.405641 
L 75.095388 85.801379 
L 75.320863 87.729464 
L 75.365959 87.43746 
L 75.411054 87.936554 
L 75.501289 87.915456 
L 75.907144 86.300646 
L 75.952239 87.061587 
L 75.997334 84.176592 
L 76.087524 84.733808 
L 76.132619 84.577604 
L 76.49338 88.391811 
L 76.538475 88.005919 
L 76.67376 87.547559 
L 76.718855 87.599928 
L 76.899235 84.513684 
L 77.350185 88.370801 
L 77.48547 87.252826 
L 77.57566 87.56895 
L 77.801136 85.161851 
L 77.846231 85.212478 
L 77.891326 85.18951 
L 77.936421 84.516807 
L 77.981516 84.81642 
L 78.116801 85.989531 
L 78.161896 85.703296 
L 78.206991 85.819786 
L 78.252086 85.450133 
L 78.297181 86.997955 
L 78.387371 86.795028 
L 78.477561 86.932772 
L 78.522656 87.375803 
L 78.612846 87.343438 
L 78.883416 86.831062 
L 78.973607 86.516865 
L 79.153987 85.056947 
L 79.199082 85.091549 
L 79.244177 85.141542 
L 79.514747 86.32801 
L 79.559842 86.149507 
L 79.604937 86.245198 
L 79.650032 86.352959 
L 79.740222 87.240153 
L 79.785317 87.195034 
L 79.830412 86.729503 
L 79.875507 87.286759 
L 80.055887 86.705982 
L 80.100982 86.760504 
L 80.281363 85.874106 
L 80.326458 86.061477 
L 80.371553 86.020967 
L 80.461743 85.176579 
L 80.506838 84.845057 
L 80.551933 85.246588 
L 80.597028 84.905228 
L 80.732313 85.791175 
L 80.867598 85.268211 
L 81.002883 85.930616 
L 80.957788 85.131737 
L 81.047978 85.764997 
L 81.138168 85.787181 
L 81.183263 85.656889 
L 81.228358 85.774758 
L 81.408739 86.031149 
L 81.498929 86.1546 
L 81.544024 86.636426 
L 81.589119 86.378566 
L 81.724404 86.157027 
L 81.904784 86.893241 
L 81.949879 86.061914 
L 81.994974 86.616821 
L 82.040069 86.521898 
L 82.130259 86.000601 
L 82.175354 86.191949 
L 82.265544 86.246969 
L 82.310639 86.051952 
L 82.355734 82.666506 
L 82.400829 86.299097 
L 82.536114 85.950109 
L 82.581209 86.277014 
L 82.626304 85.856594 
L 82.806685 86.303732 
L 82.896875 85.906464 
L 82.94197 86.142437 
L 82.987065 86.251617 
L 83.21254 85.71218 
L 83.347825 86.162112 
L 83.39292 85.650897 
L 83.48311 85.888291 
L 83.66349 85.436128 
L 83.798775 85.705293 
L 83.84387 85.3945 
L 83.934061 85.438572 
L 84.204631 85.926185 
L 84.249726 86.312559 
L 84.294821 86.133809 
L 84.339916 85.949887 
L 84.385011 86.121201 
L 84.430106 86.602737 
L 84.475201 85.895827 
L 84.565391 85.877431 
L 84.610486 86.203663 
L 84.655581 86.166089 
L 84.835961 85.736816 
L 84.881056 85.943463 
L 84.926151 85.682872 
L 84.971246 85.406985 
L 85.106531 85.923969 
L 85.151627 85.88408 
L 85.332007 85.304317 
L 85.422197 85.36578 
L 85.557482 84.943016 
L 85.602577 85.130162 
L 85.647672 85.106065 
L 85.782957 84.766504 
L 85.828052 85.169207 
L 85.873147 84.933398 
L 86.008432 84.715451 
L 86.053527 84.828054 
L 86.098622 84.395371 
L 86.188812 84.451737 
L 86.233907 85.51977 
L 86.279002 84.787776 
L 86.414288 85.284036 
L 86.549573 84.894048 
L 86.594668 85.001331 
L 86.639763 84.975628 
L 86.684858 84.806816 
L 86.729953 84.823574 
L 87.000523 85.927956 
L 87.045618 85.86923 
L 87.090713 86.430619 
L 87.135808 86.314329 
L 87.271093 85.901811 
L 87.316188 85.969155 
L 87.361283 85.891395 
L 87.406378 85.815351 
L 87.451473 85.32415 
L 87.541663 85.389179 
L 87.586759 85.397622 
L 87.902424 84.538797 
L 87.947519 84.621555 
L 87.992614 84.29603 
L 88.037709 84.379639 
L 88.127899 84.949494 
L 88.263184 84.311997 
L 88.488659 85.198215 
L 88.533754 84.446347 
L 88.623944 84.537459 
L 88.669039 84.416939 
L 88.714134 84.59869 
L 88.84942 84.770069 
L 88.93961 84.575819 
L 89.0298 84.929613 
L 89.074895 84.711439 
L 89.165085 84.592 
L 89.255275 84.855575 
L 89.345465 84.798719 
L 89.39056 84.725535 
L 89.435655 84.775915 
L 89.616035 85.052032 
L 89.66113 84.942125 
L 89.706225 85.128383 
L 89.796415 85.07347 
L 89.84151 85.155828 
L 89.886605 84.64779 
L 89.9317 85.223182 
L 90.02189 85.368236 
L 90.066986 85.171447 
L 90.157176 85.245254 
L 90.202271 85.239903 
L 90.247366 85.558012 
L 90.382651 84.948381 
L 90.472841 85.287148 
L 90.517936 85.018774 
L 90.698316 84.723251 
L 90.743411 84.731802 
L 91.013981 83.908421 
L 91.149266 84.316054 
L 91.284552 83.831046 
L 91.419837 84.613721 
L 91.510027 84.274438 
L 91.555122 84.592415 
L 91.645312 84.445231 
L 91.690407 84.187845 
L 91.735502 84.304814 
L 91.870787 84.65473 
L 92.006072 84.052289 
L 92.096262 84.663706 
L 92.141357 84.289292 
L 92.186452 84.497299 
L 92.231547 84.502017 
L 92.276642 84.175698 
L 92.321737 84.288846 
L 92.366832 84.590631 
L 92.411927 84.260291 
L 92.457022 84.540837 
L 92.637403 83.961455 
L 92.727593 84.169848 
L 92.772688 84.176592 
L 92.817783 84.492358 
L 92.907973 84.378969 
L 92.953068 84.159264 
L 92.998163 84.300311 
L 93.088353 84.216642 
L 93.133448 84.60318 
L 93.178543 84.271088 
L 93.223638 84.569098 
L 93.268733 84.657435 
L 93.449113 84.00337 
L 93.539303 84.256231 
L 93.674588 83.914333 
L 93.719683 84.311328 
L 93.764779 84.288399 
L 93.945159 83.83306 
L 93.990254 83.799191 
L 94.035349 84.446124 
L 94.080444 83.782924 
L 94.215729 83.903005 
L 94.351014 83.60752 
L 94.441204 84.062214 
L 94.486299 84.042364 
L 94.666679 83.318498 
L 94.711774 83.861724 
L 94.801964 83.623813 
L 94.892154 83.51498 
L 94.937249 83.844571 
L 94.982345 83.707032 
L 95.02744 83.379057 
L 95.072535 83.923104 
L 95.11763 83.595089 
L 95.20782 83.612279 
L 95.252915 83.65141 
L 95.29801 84.295583 
L 95.343105 83.55549 
L 95.3882 83.493907 
L 95.433295 84.063331 
L 95.47839 83.277455 
L 95.56858 83.995722 
L 95.613675 83.335283 
L 95.65877 83.509992 
L 95.703865 83.703397 
L 95.74896 83.559131 
L 95.794055 83.254989 
L 95.884245 83.276783 
L 95.92934 83.501643 
L 95.974435 83.466329 
L 96.01953 83.33304 
L 96.064625 83.56955 
L 96.154815 83.469019 
L 96.19991 83.602368 
L 96.245006 83.444514 
L 96.290101 83.114417 
L 96.335196 83.712064 
L 96.380291 82.997088 
L 96.425386 82.976883 
L 96.470481 83.279698 
L 96.515576 83.091469 
L 96.650861 82.562294 
L 96.786146 84.243645 
L 96.831241 83.999569 
L 96.876336 84.012405 
L 96.921431 84.270865 
L 96.966526 83.963468 
L 97.011621 84.238468 
L 97.056716 83.864906 
L 97.101811 84.16672 
L 97.192001 84.064449 
L 97.237096 83.657287 
L 97.282191 83.957877 
L 97.372381 84.779061 
L 97.417476 83.787848 
L 97.507667 84.088137 
L 97.552762 83.72784 
L 97.643177 84.855352 
L 97.688317 84.512089 
L 97.733412 84.535897 
L 97.959248 83.444574 
L 98.004388 83.750606 
L 98.049483 83.71313 
L 98.184949 82.948892 
L 98.230044 83.247746 
L 98.275139 82.637827 
L 98.320234 82.91161 
L 98.455519 83.621797 
L 98.545709 82.908615 
L 98.590804 83.430944 
L 98.726089 82.959146 
L 98.816279 83.298732 
L 98.861374 83.088706 
L 99.041755 82.933173 
L 99.08685 82.946573 
L 99.267275 83.525628 
L 99.31237 83.469019 
L 99.357465 82.865627 
L 99.447655 83.032997 
L 99.537845 83.584672 
L 99.58294 83.554817 
L 99.628035 83.254765 
L 99.67313 83.567477 
L 99.76332 83.379506 
L 99.808415 83.046681 
L 99.85351 83.307831 
L 99.988795 83.651634 
L 100.124081 82.869222 
L 100.304461 84.496853 
L 100.394651 83.420064 
L 100.484841 83.713802 
L 100.529936 83.770511 
L 100.575031 84.085411 
L 100.620126 83.797625 
L 100.665221 83.898978 
L 100.710316 83.849991 
L 100.755411 83.724877 
L 100.845601 84.145732 
L 100.890696 83.742048 
L 100.935791 84.278943 
L 101.071076 83.662044 
L 101.116171 84.105433 
L 101.161266 84.095512 
L 101.206361 83.858766 
L 101.251456 84.078575 
L 101.341647 84.122099 
L 101.386742 83.848375 
L 101.431837 84.36502 
L 101.522027 84.203605 
L 101.612217 84.076875 
L 101.657312 84.142157 
L 101.702452 84.412886 
L 101.747592 84.3264 
L 101.792732 83.97273 
L 101.837827 84.249268 
L 101.928017 84.181772 
L 102.063348 84.665266 
L 102.108443 84.591969 
L 102.153538 83.966645 
L 102.198633 84.237798 
L 102.243728 84.793594 
L 102.333918 84.563491 
L 102.379013 84.182219 
L 102.424108 84.57515 
L 102.469203 84.530065 
L 102.514298 84.966256 
L 102.559393 84.641295 
L 102.604488 84.580311 
L 102.739773 85.028364 
L 102.875058 84.463631 
L 102.965248 85.09446 
L 103.010343 84.894048 
L 103.055438 85.206904 
L 103.100533 84.777252 
L 103.145628 84.93676 
L 103.190723 84.804562 
L 103.235818 84.687004 
L 103.326009 85.261527 
L 103.371104 85.016082 
L 103.551484 84.658772 
L 103.596579 85.015637 
L 103.641674 84.344595 
L 103.731864 84.491912 
L 103.776959 84.473516 
L 103.822054 84.758233 
L 103.867149 84.517699 
L 103.957339 84.727318 
L 104.002434 84.459134 
L 104.047529 84.535897 
L 104.182814 84.745896 
L 104.227909 84.496407 
L 104.318099 84.563937 
L 104.453384 84.68901 
L 104.633765 84.467904 
L 104.723955 84.384809 
L 104.76905 84.741635 
L 104.814145 84.534782 
L 104.85924 84.617288 
L 104.904335 84.661476 
L 104.94943 84.306639 
L 105.03962 84.367289 
L 105.12981 84.592192 
L 105.22 84.509858 
L 105.265095 84.083803 
L 105.31019 84.707845 
L 105.49057 84.459134 
L 105.625855 84.738738 
L 105.761141 84.633432 
L 105.851331 85.17947 
L 105.941521 85.124806 
L 106.076806 84.775469 
L 106.121901 84.919748 
L 106.166996 85.237457 
L 106.212091 85.086432 
L 106.257186 84.797656 
L 106.347376 84.875048 
L 106.437566 85.071672 
L 106.482661 84.789558 
L 106.527756 85.168985 
L 106.617946 84.833648 
L 106.663041 84.927586 
L 106.753231 84.775024 
L 106.798326 85.086432 
L 106.843421 84.999105 
L 106.888516 84.833648 
L 106.933611 85.128605 
L 106.978706 84.684494 
L 107.068897 84.722387 
L 107.113992 84.75063 
L 107.159087 84.954637 
L 107.204182 84.857579 
L 107.294372 84.768955 
L 107.339467 84.926228 
L 107.429657 84.852902 
L 107.519847 84.673989 
L 107.564942 84.905451 
L 107.610037 84.663899 
L 107.655132 84.659693 
L 107.700227 84.788418 
L 107.790417 84.017592 
L 107.835512 84.878834 
L 107.880607 84.558552 
L 107.925702 84.441403 
L 107.970797 84.810603 
L 108.015892 84.194811 
L 108.106082 84.357394 
L 108.151177 83.962797 
L 108.196272 84.142827 
L 108.241368 84.161498 
L 108.511938 85.239222 
L 108.602128 85.722608 
L 108.692318 85.577347 
L 108.782508 85.415428 
L 108.827603 85.521547 
L 108.872698 85.327928 
L 108.917793 85.596241 
L 109.007983 85.661554 
L 109.053078 85.428565 
L 109.098173 86.055275 
L 109.188363 85.845287 
L 109.233458 85.683538 
L 109.323648 86.039119 
L 109.549124 85.158959 
L 109.594219 85.185269 
L 109.909884 84.458722 
L 109.954979 84.694833 
L 110.000074 84.466789 
L 110.135359 84.614836 
L 110.225549 84.220703 
L 110.270644 84.543067 
L 110.315739 84.334028 
L 110.360834 83.974519 
L 110.405929 84.362788 
L 110.451024 84.310211 
L 110.496119 84.350437 
L 111.03726 86.370616 
L 111.082355 86.195048 
L 111.12745 86.266635 
L 111.172545 85.7894 
L 111.21764 85.84573 
L 111.262735 86.054388 
L 111.443115 85.199549 
L 111.623495 84.782403 
L 111.71373 84.831396 
L 111.758871 83.92852 
L 111.804011 84.411547 
L 111.984571 85.776977 
L 112.029666 85.839079 
L 112.119901 86.18289 
L 112.164996 86.173387 
L 112.210092 86.226204 
L 112.345377 85.610686 
L 112.525757 84.816 
L 112.616037 84.132687 
L 112.661132 84.155871 
L 112.706227 84.515245 
L 112.751322 84.322344 
L 112.796417 84.240965 
L 112.841512 84.385702 
L 113.021937 85.765883 
L 113.067032 85.402743 
L 113.112128 85.687536 
L 113.157223 86.075415 
L 113.202318 86.033364 
L 113.292553 85.617572 
L 113.337648 86.155256 
L 113.427838 85.919538 
L 113.472933 85.725716 
L 113.518028 86.138008 
L 113.563123 86.034029 
L 113.788598 85.21359 
L 113.923883 84.762716 
L 113.968978 84.986355 
L 114.014073 84.976741 
L 114.059168 85.255732 
L 114.104263 84.944352 
L 114.149358 84.687672 
L 114.194453 84.964677 
L 114.419929 85.55668 
L 114.465024 85.458158 
L 114.510119 84.798076 
L 114.555214 85.224961 
L 114.600309 85.845287 
L 114.645404 85.501537 
L 114.870879 84.913713 
L 114.961069 84.995301 
L 115.09649 85.507541 
L 115.141585 85.420548 
L 115.27687 85.844178 
L 115.321965 85.815573 
L 115.36706 85.927515 
L 115.412155 85.749686 
L 115.502345 85.422557 
L 115.682725 86.299097 
L 115.772915 85.940141 
L 115.81801 86.33906 
L 115.863105 86.217148 
L 115.9082 86.088686 
L 115.953295 86.287392 
L 115.998435 86.19217 
L 116.04353 85.770986 
L 116.088625 86.210517 
L 116.13372 85.811802 
L 116.269006 85.631788 
L 116.314101 85.75501 
L 116.449386 85.298511 
L 116.539576 85.428787 
L 116.674861 84.951498 
L 116.719956 85.141987 
L 116.810146 85.118114 
L 116.900336 84.373799 
L 116.945431 84.654284 
L 117.080716 85.161851 
L 117.170906 85.410307 
L 117.261096 85.274449 
L 117.306191 85.194419 
L 117.396381 85.573123 
L 117.441476 85.18036 
L 117.486572 85.515107 
L 117.531667 85.501973 
L 117.666952 85.80404 
L 117.712047 85.661332 
L 117.892427 86.135359 
L 117.982617 85.977794 
L 118.027712 86.046198 
L 118.117902 86.038455 
L 118.162997 86.412529 
L 118.253187 86.321176 
L 118.298282 85.878761 
L 118.343377 86.161226 
L 118.478662 86.14995 
L 118.523757 86.325146 
L 118.568852 86.265528 
L 118.613947 86.187751 
L 118.704138 86.51462 
L 118.794328 86.171394 
L 118.839423 86.18753 
L 118.929613 86.196589 
L 119.200183 85.363558 
L 119.245278 85.481071 
L 119.290373 85.501981 
L 119.335468 85.652668 
L 119.470753 85.217386 
L 119.515848 85.614238 
L 119.606038 84.783071 
L 119.651133 85.168985 
L 119.786418 85.463053 
L 119.831513 85.056724 
L 119.876608 85.590463 
L 119.921704 85.456381 
L 120.102084 86.116771 
L 120.192274 86.058813 
L 120.417749 87.421288 
L 120.462844 87.199849 
L 120.507939 86.886868 
L 120.553034 87.052796 
L 120.598129 87.468917 
L 120.643224 87.448167 
L 120.823604 86.701785 
L 120.868699 86.816983 
L 121.049079 86.047754 
L 121.094174 86.654903 
L 121.184365 86.472525 
L 121.22946 86.674502 
L 121.364745 86.169632 
L 121.454935 86.364436 
L 121.50003 87.030863 
L 121.59022 86.867525 
L 121.68041 86.617705 
L 121.725505 86.73063 
L 121.7706 86.824464 
L 121.905885 86.618147 
L 121.95098 86.698052 
L 121.99612 86.668558 
L 122.086355 86.145308 
L 122.311876 87.160886 
L 122.537351 87.700896 
L 122.582446 87.552577 
L 122.627541 87.906062 
L 122.672636 87.218918 
L 122.717731 88.097842 
L 122.762826 87.904136 
L 122.853016 87.980715 
L 122.943206 88.030293 
L 122.988301 87.621528 
L 123.033396 87.813368 
L 123.078491 87.737551 
L 123.123586 87.632656 
L 123.168681 87.917433 
L 123.213776 87.276257 
L 123.258871 87.626542 
L 123.303967 87.851916 
L 123.349062 87.534442 
L 123.394157 87.779594 
L 123.484347 87.714435 
L 123.529442 87.392862 
L 123.574537 87.714655 
L 123.709822 87.497145 
L 123.845107 87.903697 
L 123.890202 87.880666 
L 124.070582 87.701556 
L 124.115677 87.801378 
L 124.160772 87.419967 
L 124.250962 87.445966 
L 124.341152 87.406876 
L 124.386247 87.643169 
L 124.431342 87.616953 
L 124.656818 88.251116 
L 124.747008 87.56807 
L 124.792103 88.105248 
L 124.882293 88.067284 
L 124.927388 87.927214 
L 124.972483 88.028976 
L 125.062673 88.197689 
L 125.107768 87.754948 
L 125.152863 88.065472 
L 125.243053 87.988348 
L 125.378338 88.225751 
L 125.423433 87.811829 
L 125.468528 88.1313 
L 125.558718 87.944796 
L 125.603813 88.227346 
L 125.648908 87.964237 
L 125.739099 63.393929 
L 125.784194 88.881258 
L 125.874384 88.704412 
L 125.919479 90.202571 
L 125.964574 88.281738 
L 126.054764 83.41395 
L 126.099859 88.752643 
L 126.190049 88.264594 
L 126.235144 88.418296 
L 126.280239 87.996804 
L 126.370429 88.09159 
L 126.415524 87.874345 
L 126.460619 88.31229 
L 126.505714 88.054004 
L 126.550809 88.094443 
L 126.776284 88.854 
L 126.821379 89.012702 
L 126.866474 88.859906 
L 126.956664 88.357398 
L 127.09195 89.399782 
L 127.137045 88.913169 
L 127.18214 89.063128 
L 127.227235 89.755146 
L 127.317425 89.747836 
L 127.36252 89.711037 
L 127.407615 89.819534 
L 127.768375 99.364369 
L 129.572177 141.50241 
L 130.113362 151.560351 
L 131.917164 179.144749 
L 133.49549 196.856193 
L 134.12682 202.149999 
L 134.713056 206.68465 
L 136.246287 215.51059 
L 136.967808 218.726811 
L 137.238378 219.919786 
L 137.283473 219.788164 
L 137.463853 220.526871 
L 137.644233 220.993171 
L 138.095184 222.435789 
L 140.080042 227.274487 
L 140.170232 227.360273 
L 141.117227 228.923927 
L 141.207418 229.055529 
L 141.658368 229.692555 
L 142.515219 230.795021 
L 143.372611 231.699596 
L 143.598176 231.990606 
L 143.913886 232.26051 
L 144.274647 232.577024 
L 144.590312 232.765737 
L 144.770737 232.976261 
L 145.086493 233.295514 
L 145.402203 233.65153 
L 145.447298 233.577093 
L 145.492393 233.657544 
L 148.739236 235.767844 
L 149.054901 235.880961 
L 149.641136 236.123724 
L 150.001897 236.333088 
L 150.182277 236.339025 
L 150.407752 236.517539 
L 151.129273 236.911971 
L 151.264558 237.040462 
L 151.309653 236.981648 
L 151.850793 237.233978 
L 152.256649 237.351332 
L 152.707599 237.559056 
L 152.797789 237.56923 
L 152.933074 237.584 
L 153.113454 237.656779 
L 153.203644 237.778813 
L 153.248739 237.744729 
L 153.338929 237.757784 
L 153.654595 237.955708 
L 153.88007 238.037118 
L 154.105545 238.185728 
L 154.466305 238.317482 
L 154.736876 238.376055 
L 154.917256 238.41888 
L 155.323111 238.515487 
L 155.593681 238.633738 
L 155.638776 238.544384 
L 155.683871 238.631716 
L 155.864251 238.741884 
L 156.134822 238.805524 
L 156.315202 238.89536 
L 156.540677 238.952605 
L 156.946532 239.078768 
L 158.389799 239.585805 
L 158.79588 239.691255 
L 159.11159 239.795066 
L 160.419481 240.182899 
L 160.599907 240.331803 
L 160.735192 240.346172 
L 160.960712 240.432501 
L 161.276377 240.491113 
L 161.501853 240.544049 
L 161.907708 240.650646 
L 162.088088 240.614707 
L 162.990124 240.891071 
L 163.576359 241.112898 
L 163.84693 241.088782 
L 164.38807 241.210721 
L 164.703781 241.458899 
L 164.748921 241.406745 
L 165.019716 241.452557 
L 165.245237 241.594113 
L 166.147182 241.584784 
L 166.507943 241.963133 
L 166.688323 241.91877 
L 167.094178 241.903277 
L 167.725689 241.999312 
L 168.26683 242.212619 
L 168.672685 242.400992 
L 168.80797 242.419907 
L 170.251011 242.652137 
L 170.701961 242.836231 
L 171.152912 242.877181 
L 171.513672 242.84809 
L 172.821428 243.278584 
L 173.001808 243.297097 
L 173.272379 243.323545 
L 173.317474 243.415382 
L 173.407664 243.359596 
L 174.670325 243.602337 
L 174.850705 243.633703 
L 180.80343 244.775574 
L 181.074 244.841309 
L 183.599322 245.354295 
L 183.824798 245.426992 
L 184.230653 245.42842 
L 184.591413 245.446523 
L 184.952173 245.469771 
L 185.448219 245.720589 
L 186.485405 245.750528 
L 186.755975 245.952075 
L 187.567686 246.003418 
L 187.883351 246.005751 
L 188.559776 246.237363 
L 188.740156 246.291187 
L 188.875442 246.30014 
L 189.100917 246.350422 
L 189.642057 246.350434 
L 191.175288 246.718368 
L 192.167379 246.752838 
L 192.843805 247.02733 
L 193.565325 246.996137 
L 193.971181 247.173203 
L 194.196656 247.231278 
L 194.422131 247.243388 
L 194.918176 247.171942 
L 195.188747 247.395538 
L 195.414222 247.458018 
L 195.549507 247.407139 
L 195.774982 247.283467 
L 196.316123 247.582528 
L 196.586693 247.548689 
L 196.902358 247.514113 
L 197.037643 247.652841 
L 197.263118 247.651803 
L 197.804259 247.710955 
L 199.472775 247.999673 
L 199.78844 248.025609 
L 201.186387 248.324978 
L 201.321672 248.338238 
L 201.502052 248.423074 
L 201.682432 248.411313 
L 202.268667 248.439523 
L 202.449048 248.435835 
L 202.629428 248.432463 
L 203.215663 248.624756 
L 203.531328 248.686045 
L 203.756804 248.765266 
L 205.24494 248.88026 
L 205.921365 249.083656 
L 207.093836 249.157383 
L 207.545102 249.262356 
L 207.860948 249.231689 
L 208.672659 249.475948 
L 208.988324 249.473742 
L 209.258894 249.527269 
L 209.619654 249.561589 
L 221.660074 251.28556 
L 221.795359 251.264037 
L 223.012925 251.47406 
L 223.689351 251.564735 
L 224.005016 251.639265 
L 224.140301 251.661821 
L 224.726537 251.747059 
L 224.952012 251.778625 
L 226.259768 251.953536 
L 226.575433 252.000622 
L 227.342049 252.070527 
L 227.387144 249.467037 
L 227.432239 252.141602 
L 227.657714 252.164547 
L 228.24395 252.192039 
L 228.87528 252.313445 
L 229.100755 252.325182 
L 230.047886 252.439833 
L 233.430059 252.958782 
L 233.475154 252.693172 
L 233.520249 253.0748 
L 233.655534 252.940021 
L 233.9712 252.934316 
L 234.377055 252.935081 
L 236.271047 253.255639 
L 236.451427 253.274877 
L 236.496522 252.937947 
L 236.541617 253.198571 
L 236.676902 253.296637 
L 237.804278 253.412957 
L 238.074848 253.457748 
L 238.300323 253.471064 
L 238.841464 253.616041 
L 238.886559 253.748953 
L 238.931654 253.554733 
L 238.976749 253.653877 
L 239.021844 254.366656 
L 239.066939 253.56348 
L 239.202224 253.712115 
L 239.337509 253.585631 
L 239.427699 253.802548 
L 239.517889 253.654246 
L 239.608079 253.624851 
L 239.698269 253.734089 
L 239.743364 253.699622 
L 239.788459 253.60411 
L 239.833554 253.727646 
L 239.96884 253.721506 
L 240.013935 253.923996 
L 240.05903 253.740088 
L 240.419925 253.790363 
L 240.780685 253.811834 
L 243.486433 254.113493 
L 244.117763 254.213603 
L 244.298143 254.272249 
L 244.794189 254.269044 
L 244.974569 254.309924 
L 246.282325 254.451872 
L 246.462705 254.565302 
L 246.552895 254.472019 
L 246.59799 254.522223 
L 247.544986 254.650932 
L 248.852742 254.712721 
L 249.033122 254.758322 
L 249.168407 254.958212 
L 249.258597 254.995959 
L 249.393883 254.792793 
L 249.438978 254.884796 
L 249.484073 254.921197 
L 249.619358 254.736918 
L 249.664453 254.732039 
L 249.709548 254.945626 
L 249.754643 254.890737 
L 249.935023 254.66972 
L 250.611449 254.462635 
L 250.972209 254.345149 
L 251.152589 254.358566 
L 257.06071 253.592322 
L 257.241108 253.570334 
L 257.466696 253.597197 
L 257.647095 253.514874 
L 257.782393 253.450162 
L 257.917692 253.406009 
L 258.05299 253.360191 
L 258.368687 253.281878 
L 258.954981 253.304514 
L 259.13538 253.164546 
L 259.405977 253.071107 
L 259.451076 253.029589 
L 259.496176 253.167264 
L 259.541275 253.044239 
L 259.721674 252.919771 
L 259.856972 252.955174 
L 259.902072 252.989704 
L 259.947171 252.914042 
L 260.398212 252.900707 
L 260.533511 252.882361 
L 261.210004 252.678507 
L 261.390402 252.553885 
L 261.6159 252.539521 
L 261.976696 252.506522 
L 262.021796 252.59071 
L 262.066895 252.551034 
L 262.247293 252.433571 
L 262.382592 252.51441 
L 262.698289 252.41294 
L 262.923787 252.24516 
L 263.194384 252.263093 
L 263.284583 252.156527 
L 263.329682 252.220983 
L 263.510126 252.079587 
L 263.780723 252.05211 
L 265.720003 251.373303 
L 265.765103 251.556596 
L 265.810203 251.345693 
L 266.0357 251.260404 
L 266.531795 251.097259 
L 266.576895 250.849829 
L 266.621994 250.974424 
L 266.892592 251.005659 
L 267.343587 250.774003 
L 267.659284 250.701564 
L 267.929881 250.521842 
L 268.110279 250.485846 
L 269.01227 250.09484 
L 269.05737 250.117876 
L 269.102469 250.020919 
L 272.48498 248.703953 
L 273.116374 248.563228 
L 273.296772 248.470423 
L 273.612469 248.440942 
L 273.792867 248.281995 
L 274.153664 248.166996 
L 274.198763 248.243076 
L 274.243863 247.612636 
L 274.288962 247.656348 
L 274.334062 248.263749 
L 274.424261 248.083834 
L 274.46936 248.342885 
L 274.51446 248.165517 
L 274.55956 248.119478 
L 274.604659 248.22338 
L 274.739958 248.195501 
L 274.920356 248.174539 
L 274.965455 247.888155 
L 275.010555 248.124362 
L 275.190953 247.993685 
L 275.50665 247.845915 
L 275.867446 247.683222 
L 275.912546 247.879734 
L 276.092944 245.707397 
L 276.949836 234.734357 
L 277.716528 228.290393 
L 278.438301 224.041437 
L 279.430491 219.858056 
L 279.475591 219.7917 
L 279.701088 218.825591 
L 279.881486 218.126047 
L 279.926631 218.276714 
L 280.06193 217.528894 
L 280.107029 217.578688 
L 280.332527 216.980688 
L 280.422726 216.974029 
L 280.648224 216.416841 
L 281.956111 213.57925 
L 282.00121 213.675315 
L 282.632604 212.760093 
L 283.083599 211.911575 
L 283.173798 212.118081 
L 283.218898 212.007445 
L 283.444441 211.728774 
L 283.579739 211.849507 
L 283.850337 211.502124 
L 283.895436 211.605063 
L 283.940536 211.472606 
L 285.428821 210.256898 
L 286.195513 210.091493 
L 286.736708 209.756912 
L 286.781807 209.803084 
L 286.826907 209.733467 
L 286.917106 209.709026 
L 286.962205 209.753969 
L 287.097504 209.561149 
L 287.142604 209.622056 
L 287.187703 209.546555 
L 287.413201 209.520063 
L 287.5034 209.396914 
L 287.548499 209.470469 
L 287.819097 209.320678 
L 287.954395 209.533959 
L 288.044594 209.312165 
L 288.089694 209.553453 
L 288.134794 209.377543 
L 288.179893 209.26414 
L 288.224993 209.315432 
L 288.270092 209.396514 
L 288.405391 209.21597 
L 288.49559 209.46129 
L 288.540689 209.057838 
L 288.630889 209.193942 
L 288.766187 209.187778 
L 288.811287 209.263739 
L 288.856386 209.125061 
L 289.126984 209.125317 
L 289.307382 209.099495 
L 290.254472 209.132592 
L 290.389771 209.141638 
L 290.525115 209.063408 
L 291.111409 208.888006 
L 291.9683 208.864755 
L 292.148698 208.675821 
L 292.374196 208.707907 
L 293.997825 208.580158 
L 294.403735 208.425349 
L 294.493925 208.453565 
L 294.53902 208.380179 
L 294.584115 208.4595 
L 294.945191 208.645425 
L 295.351136 208.482193 
L 295.531516 208.49614 
L 295.711987 208.392877 
L 295.757082 208.452323 
L 295.802177 208.382398 
L 296.072792 208.311028 
L 296.208122 208.296185 
L 296.433597 208.361469 
L 296.613978 208.473997 
L 296.659118 208.404897 
L 296.704258 208.478724 
L 296.884638 208.569551 
L 297.200393 208.29033 
L 297.741534 208.054535 
L 298.012104 208.238322 
L 298.372864 208.356992 
L 298.417959 208.217435 
L 298.463054 208.356893 
L 298.733625 208.280326 
L 298.9591 208.217336 
L 299.004195 208.108928 
L 299.04929 208.224511 
L 299.41005 208.185861 
L 299.545335 208.153828 
L 299.725715 208.106377 
L 300.402186 207.980375 
L 300.492376 207.839553 
L 300.537471 207.87593 
L 300.808312 208.027305 
L 300.943642 208.044826 
L 301.079018 208.153032 
L 301.124158 208.054015 
L 301.259443 207.935266 
L 301.530058 207.92213 
L 301.575153 207.825369 
L 301.620248 207.875731 
L 301.755533 207.896575 
L 301.935913 207.735686 
L 301.981008 207.85884 
L 302.071199 207.806019 
L 302.341769 207.649543 
L 302.522149 207.738707 
L 302.973099 207.882977 
L 303.108384 207.667554 
L 303.153479 207.884919 
L 303.243669 207.855477 
L 303.378955 207.806418 
L 303.51424 207.749346 
L 303.829905 207.517643 
L 303.920095 207.831303 
L 303.96519 207.752517 
L 304.10052 207.64919 
L 304.957371 207.352559 
L 305.002511 207.065298 
L 305.047606 207.46689 
L 305.318176 207.556936 
L 305.453462 207.63841 
L 305.498557 207.491701 
L 305.543652 207.585955 
L 305.769172 207.568415 
L 305.949552 207.405261 
L 306.039742 207.347798 
L 306.265353 207.16587 
L 306.400638 207.168244 
L 306.490828 207.156643 
L 306.716303 207.284729 
L 306.851588 207.316003 
L 307.392774 207.330134 
L 307.618249 207.157977 
L 307.888819 207.102405 
L 308.024104 207.026722 
L 308.159389 207.04288 
L 308.384864 206.866808 
L 308.61034 206.846759 
L 309.016195 207.033629 
L 309.106385 206.998685 
L 309.15148 207.057491 
L 309.196575 207.102504 
L 309.24167 207.03393 
L 309.376955 206.946528 
L 309.42205 207.086232 
L 309.467145 207.021492 
L 309.69262 207.020452 
L 309.827906 206.971505 
L 310.098476 206.803295 
L 310.639616 206.486452 
L 310.684711 206.568598 
L 310.955281 206.827984 
L 311.406232 206.84622 
L 311.721897 206.530156 
L 312.037562 206.36281 
L 312.082657 206.470318 
L 312.127752 206.368282 
L 312.398323 206.427654 
L 312.849273 206.629732 
L 312.894368 206.495669 
L 312.984558 206.574792 
L 313.119843 206.643215 
L 313.164938 206.535872 
L 313.255128 206.587241 
L 313.841364 206.240227 
L 313.886459 206.290699 
L 313.931554 206.164259 
L 313.976649 206.237058 
L 314.202124 206.196311 
L 314.337409 206.081557 
L 314.472694 206.22442 
L 314.607979 206.031589 
L 314.653074 206.091254 
L 314.96874 206.208956 
L 315.013835 206.139395 
L 315.05893 206.302814 
L 315.14912 206.214647 
L 315.284405 206.12483 
L 315.645165 206.030472 
L 315.78045 206.247985 
L 315.87064 205.946139 
L 315.915736 206.050289 
L 315.960831 206.083778 
L 316.005926 206.003226 
L 316.051021 205.955556 
L 316.096116 206.016777 
L 316.186306 206.074486 
L 316.321591 205.923147 
L 316.456876 205.944216 
L 316.547066 205.862932 
L 316.592161 205.921982 
L 316.772541 205.860091 
L 316.862731 205.887118 
L 316.907826 205.769731 
L 316.952921 205.82082 
L 317.043111 205.942645 
L 317.133301 205.865774 
L 317.674442 205.723523 
L 317.719537 205.817419 
L 317.764632 205.686284 
L 317.854822 205.650698 
L 317.899917 205.609224 
L 317.945012 205.668825 
L 317.990107 205.730692 
L 318.035202 205.609735 
L 318.937103 205.755095 
L 319.523338 205.341184 
L 319.658624 205.311454 
L 319.884099 205.42136 
L 322.003565 205.240458 
L 322.138851 205.32535 
L 322.860371 205.044731 
L 322.995656 205.016846 
L 323.311321 204.890979 
L 323.446607 204.896264 
L 323.581892 204.834044 
L 323.717177 204.871381 
L 323.852462 204.785471 
L 323.987747 204.78128 
L 324.032842 204.850071 
L 324.077937 204.798471 
L 324.213222 204.742257 
L 324.438697 204.679704 
L 324.573983 204.845987 
L 324.664173 204.62268 
L 324.709268 204.722292 
L 324.799458 204.789045 
L 324.934743 204.564293 
L 325.250408 204.614005 
L 325.385693 204.546652 
L 325.566073 204.705302 
L 325.611168 204.55602 
L 325.656263 204.671285 
L 325.926834 204.576399 
L 326.062119 204.511298 
L 326.242499 204.533033 
L 326.377784 204.488836 
L 326.918924 204.445359 
L 326.964019 204.367427 
L 327.009114 204.508029 
L 327.1444 204.412699 
L 327.189495 204.571803 
L 327.23459 204.4739 
L 327.369875 204.450194 
L 327.460065 204.59399 
L 327.50516 204.487147 
L 327.68554 204.585041 
L 327.86592 204.363411 
L 327.95611 204.30658 
L 328.452156 204.146857 
L 328.542346 204.130381 
L 328.587441 204.008755 
L 328.632536 204.10352 
L 328.722726 204.068603 
L 328.767821 203.982038 
L 328.812916 204.069397 
L 329.354056 204.026686 
L 329.489341 204.010452 
L 329.624627 203.987085 
L 329.714817 204.126623 
L 329.850192 204.01107 
L 329.940472 203.935622 
L 330.301413 203.755373 
L 330.436788 203.796262 
L 330.572118 203.826933 
L 330.707404 203.860448 
L 330.842734 203.760753 
L 330.933014 203.812358 
L 330.978109 203.711706 
L 331.023204 203.803859 
L 331.158534 203.83462 
L 331.203629 203.876069 
L 331.248724 203.784532 
L 331.474245 203.741483 
L 332.376145 203.482841 
L 332.556526 203.317361 
L 332.827096 203.505348 
L 332.962381 203.512855 
L 333.007476 203.672635 
L 333.097666 203.632272 
L 333.187856 203.56969 
L 333.278046 203.506617 
L 333.413331 203.56066 
L 334.044662 203.320803 
L 334.315232 203.329485 
L 334.360327 203.226353 
L 334.450517 203.287912 
L 334.585802 203.261737 
L 335.081848 203.190865 
L 335.397513 202.932912 
L 335.577893 203.264528 
L 335.487703 202.882896 
L 335.622988 203.213921 
L 335.668083 203.187838 
L 335.758273 203.395584 
L 335.803368 203.317726 
L 335.848463 203.052036 
L 335.938653 203.129736 
L 336.073938 203.169348 
L 336.119033 203.263669 
L 336.164128 203.117051 
L 336.389604 203.185926 
L 336.434699 203.130084 
L 336.479794 203.182842 
L 336.615079 203.156719 
L 336.885649 202.925525 
L 337.111124 202.80223 
L 337.156219 202.68098 
L 337.201314 202.707952 
L 337.246409 202.765674 
L 337.291504 202.72302 
L 337.426789 202.652438 
L 337.60717 202.978762 
L 337.652265 202.928602 
L 337.832645 203.173638 
L 338.05812 202.734299 
L 338.103215 203.005937 
L 338.14831 202.610724 
L 338.193405 202.848994 
L 338.283595 202.749065 
L 338.463975 202.596742 
L 338.59926 202.801601 
L 338.68945 202.918409 
L 338.779641 202.97847 
L 338.824736 202.524008 
L 338.914926 202.664867 
L 339.095306 202.721676 
L 339.320781 202.839624 
L 339.591351 202.696982 
L 339.636446 202.746863 
L 339.681541 202.673116 
L 340.493252 202.313491 
L 340.899107 202.345423 
L 341.079487 202.428692 
L 341.124582 202.50555 
L 341.169677 202.428497 
L 341.530438 202.469424 
L 341.575533 202.571675 
L 341.620628 202.534261 
L 341.846103 202.307666 
L 341.891198 202.354057 
L 341.936293 202.290303 
L 342.116673 202.226797 
L 342.297053 202.135275 
L 342.432339 202.093985 
L 342.522529 202.185182 
L 342.567624 202.125444 
L 342.748004 201.940299 
L 342.883289 201.974143 
L 342.928384 201.916071 
L 342.973479 202.011745 
L 343.198954 202.050914 
L 343.379334 202.189112 
L 343.830285 201.988817 
L 343.87538 202.08688 
L 343.920475 202.034895 
L 343.96557 201.969335 
L 344.010665 202.076314 
L 344.23614 202.028921 
L 344.41652 202.006106 
L 344.732185 201.949729 
L 344.86747 201.849094 
L 345.092946 201.85098 
L 345.228231 201.749441 
L 345.273326 201.853298 
L 345.363516 201.79877 
L 345.904656 201.760804 
L 346.130132 201.64549 
L 346.310512 201.65138 
L 346.581082 201.522084 
L 346.761462 201.619225 
L 346.941842 201.491321 
L 346.986937 201.623123 
L 347.032032 201.44594 
L 348.114313 201.440329 
L 348.655454 201.384314 
L 348.880929 201.400728 
L 349.286784 201.370214 
L 349.331879 201.421698 
L 349.376974 201.340107 
L 349.422069 201.297247 
L 349.512259 201.486453 
L 349.557354 201.453661 
L 349.96321 201.233322 
L 350.14359 201.114392 
L 350.910205 201.044273 
L 351.090586 200.992744 
L 351.225871 201.023474 
L 351.316061 201.075508 
L 351.361156 200.910063 
L 351.406251 200.97577 
L 351.451346 200.900763 
L 351.947391 200.895844 
L 352.037581 200.954522 
L 352.082676 200.917541 
L 352.263056 200.990179 
L 352.308152 200.877346 
L 352.353247 200.941916 
L 352.488532 201.061973 
L 352.533627 201.001496 
L 352.623817 200.992531 
L 352.849292 201.032329 
L 353.390432 200.69979 
L 353.525717 200.741104 
L 353.661003 200.653416 
L 353.706098 200.695723 
L 353.751193 200.631391 
L 353.931573 200.654497 
L 354.157048 200.738011 
L 354.292333 200.7947 
L 354.382523 200.420772 
L 354.427618 200.50885 
L 354.562903 200.500766 
L 354.698188 200.604398 
L 354.833474 200.56547 
L 355.013854 200.626012 
L 355.194234 200.553092 
L 355.239329 200.647719 
L 355.284424 200.546634 
L 355.329519 200.503787 
L 355.374614 200.667694 
L 355.419709 200.621181 
L 355.464804 200.540183 
L 355.509899 200.605059 
L 355.600089 200.643317 
L 355.825564 200.535772 
L 355.960849 200.586559 
L 356.096135 200.44548 
L 356.817655 200.336875 
L 357.178415 200.237078 
L 357.358796 200.223838 
L 357.494081 200.105784 
L 357.539176 200.181596 
L 357.674461 200.236627 
L 357.809746 200.181715 
L 358.125411 200.239783 
L 358.486172 200.120346 
L 358.711647 200.1275 
L 359.027312 200.046517 
L 359.478262 199.959974 
L 359.658642 200.023704 
L 359.839023 199.861936 
L 360.064498 199.849283 
L 360.335068 199.795285 
L 360.515448 199.704492 
L 360.740923 199.811555 
L 360.831113 199.702675 
L 360.876208 199.772707 
L 361.913394 199.703072 
L 362.138869 199.600743 
L 362.31925 199.653497 
L 362.995675 199.599142 
L 363.176055 199.49528 
L 363.31134 199.57414 
L 363.446626 199.432239 
L 363.581911 199.486188 
L 363.942671 199.460031 
L 364.123051 199.412327 
L 364.393621 199.397403 
L 364.574001 199.392298 
L 364.889667 199.309986 
L 365.024952 199.433254 
L 365.160237 199.292739 
L 365.205332 199.394223 
L 365.250427 199.320386 
L 365.430807 199.30782 
L 365.520997 199.350205 
L 365.611187 199.25393 
L 365.656282 199.339856 
L 365.791567 199.309489 
L 365.881758 199.229546 
L 365.926853 199.158049 
L 365.971948 199.229352 
L 366.152328 199.251524 
L 366.287613 199.212685 
L 366.603278 199.165157 
L 367.234609 198.977452 
L 367.279704 199.091851 
L 367.324799 199.013505 
L 367.460084 198.93825 
L 367.640554 199.056554 
L 367.775884 198.93347 
L 367.956445 199.089088 
L 368.001585 198.930156 
L 368.091865 199.007863 
L 368.272336 198.987082 
L 368.588136 198.844477 
L 368.768516 198.835741 
L 369.580407 198.783668 
L 369.805882 198.604364 
L 369.941168 198.575087 
L 370.076453 198.701985 
L 370.121548 198.626654 
L 370.617638 198.667691 
L 370.752923 198.612366 
L 370.933304 198.617144 
L 371.203874 198.590833 
L 371.248969 198.482684 
L 371.294064 198.566613 
L 372.286155 198.414456 
L 372.33125 198.58099 
L 372.376345 198.438526 
L 372.42144 198.398659 
L 372.51163 198.548429 
L 372.556725 198.484713 
L 372.646915 198.573312 
L 372.69201 198.518358 
L 373.05277 198.283975 
L 373.14296 198.510202 
L 373.188055 198.451736 
L 373.23315 198.445459 
L 373.278245 198.262169 
L 373.368435 198.360435 
L 374.044861 198.169453 
L 374.135051 198.192282 
L 374.270336 198.089001 
L 374.315431 198.193084 
L 374.360526 198.113762 
L 374.405621 198.075702 
L 374.450716 198.22075 
L 374.540906 198.189839 
L 374.946762 198.00682 
L 375.262427 198.064848 
L 375.442807 198.041056 
L 375.578092 198.069743 
L 375.848662 198.027784 
L 375.983948 198.038312 
L 376.254518 198.037178 
L 376.389803 197.951912 
L 376.570183 197.895382 
L 376.750563 197.928473 
L 376.930943 197.871031 
L 377.066228 197.92015 
L 377.201514 197.91026 
L 377.426989 197.904876 
L 377.562274 197.926749 
L 377.742654 197.8714 
L 377.877939 197.889627 
L 378.013224 197.874923 
L 378.148509 197.832514 
L 378.68965 197.717189 
L 378.734745 197.90319 
L 378.77984 197.755387 
L 378.96031 197.70444 
L 379.140871 197.469628 
L 379.186011 197.679843 
L 379.276201 197.619455 
L 379.411531 197.599333 
L 379.592001 197.587872 
L 379.727332 197.549052 
L 379.772427 197.634052 
L 379.862617 197.578632 
L 379.997902 197.552132 
L 380.223422 197.593658 
L 380.358707 197.532735 
L 380.629368 197.546453 
L 380.809793 197.450487 
L 380.945078 197.457149 
L 381.080408 197.441245 
L 381.260788 197.381918 
L 381.801929 197.269032 
L 381.892119 197.302719 
L 382.027404 197.205998 
L 382.162689 197.286595 
L 382.297974 197.311655 
L 382.343069 197.337694 
L 382.388164 197.229342 
L 382.433259 197.380926 
L 383.290065 197.179847 
L 383.42535 197.197205 
L 383.650825 197.090566 
L 384.101776 197.004391 
L 384.237061 196.887146 
L 384.372346 197.003727 
L 384.417441 196.842648 
L 384.462536 196.921397 
L 384.688011 196.950271 
L 384.733106 196.862554 
L 384.823296 196.919021 
L 384.958581 196.884552 
L 385.093866 196.927193 
L 385.274247 196.94552 
L 385.364437 196.917645 
L 385.499722 196.945083 
L 385.905577 196.863272 
L 386.040862 196.856136 
L 386.627098 196.81676 
L 386.717288 196.850111 
L 386.852573 196.81582 
L 387.032953 196.942102 
L 387.078048 196.859622 
L 387.123143 196.943039 
L 387.258428 197.002128 
L 387.438808 196.778185 
L 387.664284 196.710763 
L 387.889759 196.65558 
L 388.340709 196.522523 
L 388.430899 196.586008 
L 388.475994 196.531869 
L 388.566184 196.535481 
L 388.611279 196.412893 
L 388.656374 196.473446 
L 388.791659 196.577397 
L 388.926945 196.431343 
L 389.06223 196.582954 
L 389.377895 196.397683 
L 389.558275 196.606007 
L 389.60337 196.238406 
L 389.69356 196.352007 
L 390.324891 196.442485 
L 390.505271 196.580398 
L 390.640556 196.530368 
L 390.685651 196.58851 
L 390.730746 196.472223 
L 390.820936 196.580065 
L 390.866031 196.500216 
L 391.136601 196.137348 
L 391.181696 196.222806 
L 391.226791 196.12788 
L 391.362077 196.168875 
L 391.407172 195.984739 
L 391.452267 196.096329 
L 391.903217 196.512348 
L 391.948312 196.128103 
L 392.038502 196.232258 
L 392.128692 196.373378 
L 392.173787 196.308691 
L 392.218882 196.28619 
L 392.354258 196.461755 
L 392.534683 196.073506 
L 392.669968 196.062514 
L 392.805253 195.922257 
L 393.120918 195.852714 
L 393.391489 196.133321 
L 393.436584 196.091233 
L 393.481679 196.151634 
L 393.797344 196.232542 
L 394.699245 195.711688 
L 395.01491 195.776105 
L 395.240385 196.028998 
L 395.28548 195.97558 
L 395.37567 195.953684 
L 395.420765 196.156676 
L 395.510955 196.068425 
L 395.73643 195.955805 
L 395.781525 195.963051 
L 395.961906 195.759283 
L 396.232476 195.469266 
L 396.277571 195.527813 
L 396.322666 195.625443 
L 396.367761 195.479144 
L 396.593236 195.41677 
L 396.863806 195.786103 
L 396.908901 195.714466 
L 396.999137 195.951097 
L 397.044232 195.880697 
L 397.089327 196.045256 
L 397.134422 195.89695 
L 397.224612 195.867746 
L 397.495182 195.499087 
L 397.720657 195.481793 
L 397.765752 195.36591 
L 397.810847 195.463893 
L 397.946132 195.367218 
L 397.991227 195.285044 
L 398.036322 195.377603 
L 398.081417 195.416434 
L 398.126512 195.297539 
L 398.216703 195.349433 
L 398.306893 195.412066 
L 398.442178 195.517089 
L 398.487273 195.470194 
" style="fill:none;stroke:#1f77b4;stroke-linecap:square;stroke-width:1.5;"/>
   </g>
   <g id="line2d_32">
    <path clip-path="url(#pee5881d309)" d="M 276.318442 240.853759 
L 277.168676 232.894095 
L 278.01891 226.89693 
L 278.892124 222.273153 
L 279.765337 218.815947 
L 280.638551 216.230989 
L 281.534744 214.254553 
L 282.453916 212.755884 
L 283.419046 211.60554 
L 284.453115 210.721404 
L 285.60208 210.037588 
L 286.93488 209.511727 
L 288.56641 209.117141 
L 290.726465 208.836688 
L 293.966546 208.660876 
L 299.274765 208.585776 
L 299.274765 208.585776 
" style="fill:none;stroke:#ff7f0e;stroke-linecap:square;stroke-width:1.5;"/>
   </g>
   <g id="patch_3">
    <path d="M 57.6 307.584 
L 57.6 41.472 
" style="fill:none;stroke:#000000;stroke-linecap:square;stroke-linejoin:miter;stroke-width:0.8;"/>
   </g>
   <g id="patch_4">
    <path d="M 414.72 307.584 
L 414.72 41.472 
" style="fill:none;stroke:#000000;stroke-linecap:square;stroke-linejoin:miter;stroke-width:0.8;"/>
   </g>
   <g id="patch_5">
    <path d="M 57.6 307.584 
L 414.72 307.584 
" style="fill:none;stroke:#000000;stroke-linecap:square;stroke-linejoin:miter;stroke-width:0.8;"/>
   </g>
   <g id="patch_6">
    <path d="M 57.6 41.472 
L 414.72 41.472 
" style="fill:none;stroke:#000000;stroke-linecap:square;stroke-linejoin:miter;stroke-width:0.8;"/>
   </g>
   <g id="legend_1">
    <g id="patch_7">
     <path d="M 326.654375 78.82825 
L 407.72 78.82825 
Q 409.72 78.82825 409.72 76.82825 
L 409.72 48.472 
Q 409.72 46.472 407.72 46.472 
L 326.654375 46.472 
Q 324.654375 46.472 324.654375 48.472 
L 324.654375 76.82825 
Q 324.654375 78.82825 326.654375 78.82825 
z
" style="fill:#ffffff;opacity:0.8;stroke:#cccccc;stroke-linejoin:miter;"/>
    </g>
    <g id="line2d_33">
     <path d="M 328.654375 54.570437 
L 348.654375 54.570437 
" style="fill:none;stroke:#1f77b4;stroke-linecap:square;stroke-width:1.5;"/>
    </g>
    <g id="line2d_34"/>
    <g id="text_18">
     <!-- Measured -->
     <defs>
      <path d="M 8.5 21.578125 
L 8.5 54.6875 
L 17.484375 54.6875 
L 17.484375 21.921875 
Q 17.484375 14.15625 20.5 10.265625 
Q 23.53125 6.390625 29.59375 6.390625 
Q 36.859375 6.390625 41.078125 11.03125 
Q 45.3125 15.671875 45.3125 23.6875 
L 45.3125 54.6875 
L 54.296875 54.6875 
L 54.296875 0 
L 45.3125 0 
L 45.3125 8.40625 
Q 42.046875 3.421875 37.71875 1 
Q 33.40625 -1.421875 27.6875 -1.421875 
Q 18.265625 -1.421875 13.375 4.4375 
Q 8.5 10.296875 8.5 21.578125 
z
M 31.109375 56 
z
" id="DejaVuSans-75"/>
      <path d="M 41.109375 46.296875 
Q 39.59375 47.171875 37.8125 47.578125 
Q 36.03125 48 33.890625 48 
Q 26.265625 48 22.1875 43.046875 
Q 18.109375 38.09375 18.109375 28.8125 
L 18.109375 0 
L 9.078125 0 
L 9.078125 54.6875 
L 18.109375 54.6875 
L 18.109375 46.1875 
Q 20.953125 51.171875 25.484375 53.578125 
Q 30.03125 56 36.53125 56 
Q 37.453125 56 38.578125 55.875 
Q 39.703125 55.765625 41.0625 55.515625 
z
" id="DejaVuSans-72"/>
      <path d="M 45.40625 46.390625 
L 45.40625 75.984375 
L 54.390625 75.984375 
L 54.390625 0 
L 45.40625 0 
L 45.40625 8.203125 
Q 42.578125 3.328125 38.25 0.953125 
Q 33.9375 -1.421875 27.875 -1.421875 
Q 17.96875 -1.421875 11.734375 6.484375 
Q 5.515625 14.40625 5.515625 27.296875 
Q 5.515625 40.1875 11.734375 48.09375 
Q 17.96875 56 27.875 56 
Q 33.9375 56 38.25 53.625 
Q 42.578125 51.265625 45.40625 46.390625 
z
M 14.796875 27.296875 
Q 14.796875 17.390625 18.875 11.75 
Q 22.953125 6.109375 30.078125 6.109375 
Q 37.203125 6.109375 41.296875 11.75 
Q 45.40625 17.390625 45.40625 27.296875 
Q 45.40625 37.203125 41.296875 42.84375 
Q 37.203125 48.484375 30.078125 48.484375 
Q 22.953125 48.484375 18.875 42.84375 
Q 14.796875 37.203125 14.796875 27.296875 
z
" id="DejaVuSans-64"/>
     </defs>
     <g transform="translate(356.654375 58.070437)scale(0.1 -0.1)">
      <use xlink:href="#DejaVuSans-4d"/>
      <use x="86.279297" xlink:href="#DejaVuSans-65"/>
      <use x="147.802734" xlink:href="#DejaVuSans-61"/>
      <use x="209.082031" xlink:href="#DejaVuSans-73"/>
      <use x="261.181641" xlink:href="#DejaVuSans-75"/>
      <use x="324.560547" xlink:href="#DejaVuSans-72"/>
      <use x="365.642578" xlink:href="#DejaVuSans-65"/>
      <use x="427.166016" xlink:href="#DejaVuSans-64"/>
     </g>
    </g>
    <g id="line2d_35">
     <path d="M 328.654375 69.248562 
L 348.654375 69.248562 
" style="fill:none;stroke:#ff7f0e;stroke-linecap:square;stroke-width:1.5;"/>
    </g>
    <g id="line2d_36"/>
    <g id="text_19">
     <!-- Fit -->
     <defs>
      <path d="M 9.8125 72.90625 
L 51.703125 72.90625 
L 51.703125 64.59375 
L 19.671875 64.59375 
L 19.671875 43.109375 
L 48.578125 43.109375 
L 48.578125 34.8125 
L 19.671875 34.8125 
L 19.671875 0 
L 9.8125 0 
z
" id="DejaVuSans-46"/>
     </defs>
     <g transform="translate(356.654375 72.748562)scale(0.1 -0.1)">
      <use xlink:href="#DejaVuSans-46"/>
      <use x="57.410156" xlink:href="#DejaVuSans-69"/>
      <use x="85.193359" xlink:href="#DejaVuSans-74"/>
     </g>
    </g>
   </g>
  </g>
 </g>
 <defs>
  <clipPath id="pee5881d309">
   <rect height="266.112" width="357.12" x="57.6" y="41.472"/>
  </clipPath>
 </defs>
</svg>
