<?xml version="1.0" encoding="utf-8" standalone="no"?>
<!DOCTYPE svg PUBLIC "-//W3C//DTD SVG 1.1//EN"
  "http://www.w3.org/Graphics/SVG/1.1/DTD/svg11.dtd">
<!-- Created with matplotlib (http://matplotlib.org/) -->
<svg height="345pt" version="1.1" viewBox="0 0 460 345" width="460pt" xmlns="http://www.w3.org/2000/svg" xmlns:xlink="http://www.w3.org/1999/xlink">
 <defs>
  <style type="text/css">
*{stroke-linecap:butt;stroke-linejoin:round;}
  </style>
 </defs>
 <g id="figure_1">
  <g id="patch_1">
   <path d="M 0 345.6 
L 460.8 345.6 
L 460.8 0 
L 0 0 
z
" style="fill:#ffffff;"/>
  </g>
  <g id="axes_1">
   <g id="patch_2">
    <path d="M 57.6 307.584 
L 414.72 307.584 
L 414.72 41.472 
L 57.6 41.472 
z
" style="fill:#ffffff;"/>
   </g>
   <g id="matplotlib.axis_1">
    <g id="xtick_1">
     <g id="line2d_1">
      <defs>
       <path d="M 0 0 
L 0 3.5 
" id="mfe2c22f194" style="stroke:#000000;stroke-width:0.8;"/>
      </defs>
      <g>
       <use style="stroke:#000000;stroke-width:0.8;" x="73.832727" xlink:href="#mfe2c22f194" y="307.584"/>
      </g>
     </g>
     <g id="text_1">
      <!-- 0 -->
      <defs>
       <path d="M 31.78125 66.40625 
Q 24.171875 66.40625 20.328125 58.90625 
Q 16.5 51.421875 16.5 36.375 
Q 16.5 21.390625 20.328125 13.890625 
Q 24.171875 6.390625 31.78125 6.390625 
Q 39.453125 6.390625 43.28125 13.890625 
Q 47.125 21.390625 47.125 36.375 
Q 47.125 51.421875 43.28125 58.90625 
Q 39.453125 66.40625 31.78125 66.40625 
z
M 31.78125 74.21875 
Q 44.046875 74.21875 50.515625 64.515625 
Q 56.984375 54.828125 56.984375 36.375 
Q 56.984375 17.96875 50.515625 8.265625 
Q 44.046875 -1.421875 31.78125 -1.421875 
Q 19.53125 -1.421875 13.0625 8.265625 
Q 6.59375 17.96875 6.59375 36.375 
Q 6.59375 54.828125 13.0625 64.515625 
Q 19.53125 74.21875 31.78125 74.21875 
z
" id="DejaVuSans-30"/>
      </defs>
      <g transform="translate(70.651477 322.182437)scale(0.1 -0.1)">
       <use xlink:href="#DejaVuSans-30"/>
      </g>
     </g>
    </g>
    <g id="xtick_2">
     <g id="line2d_2">
      <g>
       <use style="stroke:#000000;stroke-width:0.8;" x="128.030691" xlink:href="#mfe2c22f194" y="307.584"/>
      </g>
     </g>
     <g id="text_2">
      <!-- 100 -->
      <defs>
       <path d="M 12.40625 8.296875 
L 28.515625 8.296875 
L 28.515625 63.921875 
L 10.984375 60.40625 
L 10.984375 69.390625 
L 28.421875 72.90625 
L 38.28125 72.90625 
L 38.28125 8.296875 
L 54.390625 8.296875 
L 54.390625 0 
L 12.40625 0 
z
" id="DejaVuSans-31"/>
      </defs>
      <g transform="translate(118.486941 322.182437)scale(0.1 -0.1)">
       <use xlink:href="#DejaVuSans-31"/>
       <use x="63.623047" xlink:href="#DejaVuSans-30"/>
       <use x="127.246094" xlink:href="#DejaVuSans-30"/>
      </g>
     </g>
    </g>
    <g id="xtick_3">
     <g id="line2d_3">
      <g>
       <use style="stroke:#000000;stroke-width:0.8;" x="182.228655" xlink:href="#mfe2c22f194" y="307.584"/>
      </g>
     </g>
     <g id="text_3">
      <!-- 200 -->
      <defs>
       <path d="M 19.1875 8.296875 
L 53.609375 8.296875 
L 53.609375 0 
L 7.328125 0 
L 7.328125 8.296875 
Q 12.9375 14.109375 22.625 23.890625 
Q 32.328125 33.6875 34.8125 36.53125 
Q 39.546875 41.84375 41.421875 45.53125 
Q 43.3125 49.21875 43.3125 52.78125 
Q 43.3125 58.59375 39.234375 62.25 
Q 35.15625 65.921875 28.609375 65.921875 
Q 23.96875 65.921875 18.8125 64.3125 
Q 13.671875 62.703125 7.8125 59.421875 
L 7.8125 69.390625 
Q 13.765625 71.78125 18.9375 73 
Q 24.125 74.21875 28.421875 74.21875 
Q 39.75 74.21875 46.484375 68.546875 
Q 53.21875 62.890625 53.21875 53.421875 
Q 53.21875 48.921875 51.53125 44.890625 
Q 49.859375 40.875 45.40625 35.40625 
Q 44.1875 33.984375 37.640625 27.21875 
Q 31.109375 20.453125 19.1875 8.296875 
z
" id="DejaVuSans-32"/>
      </defs>
      <g transform="translate(172.684905 322.182437)scale(0.1 -0.1)">
       <use xlink:href="#DejaVuSans-32"/>
       <use x="63.623047" xlink:href="#DejaVuSans-30"/>
       <use x="127.246094" xlink:href="#DejaVuSans-30"/>
      </g>
     </g>
    </g>
    <g id="xtick_4">
     <g id="line2d_4">
      <g>
       <use style="stroke:#000000;stroke-width:0.8;" x="236.426619" xlink:href="#mfe2c22f194" y="307.584"/>
      </g>
     </g>
     <g id="text_4">
      <!-- 300 -->
      <defs>
       <path d="M 40.578125 39.3125 
Q 47.65625 37.796875 51.625 33 
Q 55.609375 28.21875 55.609375 21.1875 
Q 55.609375 10.40625 48.1875 4.484375 
Q 40.765625 -1.421875 27.09375 -1.421875 
Q 22.515625 -1.421875 17.65625 -0.515625 
Q 12.796875 0.390625 7.625 2.203125 
L 7.625 11.71875 
Q 11.71875 9.328125 16.59375 8.109375 
Q 21.484375 6.890625 26.8125 6.890625 
Q 36.078125 6.890625 40.9375 10.546875 
Q 45.796875 14.203125 45.796875 21.1875 
Q 45.796875 27.640625 41.28125 31.265625 
Q 36.765625 34.90625 28.71875 34.90625 
L 20.21875 34.90625 
L 20.21875 43.015625 
L 29.109375 43.015625 
Q 36.375 43.015625 40.234375 45.921875 
Q 44.09375 48.828125 44.09375 54.296875 
Q 44.09375 59.90625 40.109375 62.90625 
Q 36.140625 65.921875 28.71875 65.921875 
Q 24.65625 65.921875 20.015625 65.03125 
Q 15.375 64.15625 9.8125 62.3125 
L 9.8125 71.09375 
Q 15.4375 72.65625 20.34375 73.4375 
Q 25.25 74.21875 29.59375 74.21875 
Q 40.828125 74.21875 47.359375 69.109375 
Q 53.90625 64.015625 53.90625 55.328125 
Q 53.90625 49.265625 50.4375 45.09375 
Q 46.96875 40.921875 40.578125 39.3125 
z
" id="DejaVuSans-33"/>
      </defs>
      <g transform="translate(226.882869 322.182437)scale(0.1 -0.1)">
       <use xlink:href="#DejaVuSans-33"/>
       <use x="63.623047" xlink:href="#DejaVuSans-30"/>
       <use x="127.246094" xlink:href="#DejaVuSans-30"/>
      </g>
     </g>
    </g>
    <g id="xtick_5">
     <g id="line2d_5">
      <g>
       <use style="stroke:#000000;stroke-width:0.8;" x="290.624583" xlink:href="#mfe2c22f194" y="307.584"/>
      </g>
     </g>
     <g id="text_5">
      <!-- 400 -->
      <defs>
       <path d="M 37.796875 64.3125 
L 12.890625 25.390625 
L 37.796875 25.390625 
z
M 35.203125 72.90625 
L 47.609375 72.90625 
L 47.609375 25.390625 
L 58.015625 25.390625 
L 58.015625 17.1875 
L 47.609375 17.1875 
L 47.609375 0 
L 37.796875 0 
L 37.796875 17.1875 
L 4.890625 17.1875 
L 4.890625 26.703125 
z
" id="DejaVuSans-34"/>
      </defs>
      <g transform="translate(281.080833 322.182437)scale(0.1 -0.1)">
       <use xlink:href="#DejaVuSans-34"/>
       <use x="63.623047" xlink:href="#DejaVuSans-30"/>
       <use x="127.246094" xlink:href="#DejaVuSans-30"/>
      </g>
     </g>
    </g>
    <g id="xtick_6">
     <g id="line2d_6">
      <g>
       <use style="stroke:#000000;stroke-width:0.8;" x="344.822547" xlink:href="#mfe2c22f194" y="307.584"/>
      </g>
     </g>
     <g id="text_6">
      <!-- 500 -->
      <defs>
       <path d="M 10.796875 72.90625 
L 49.515625 72.90625 
L 49.515625 64.59375 
L 19.828125 64.59375 
L 19.828125 46.734375 
Q 21.96875 47.46875 24.109375 47.828125 
Q 26.265625 48.1875 28.421875 48.1875 
Q 40.625 48.1875 47.75 41.5 
Q 54.890625 34.8125 54.890625 23.390625 
Q 54.890625 11.625 47.5625 5.09375 
Q 40.234375 -1.421875 26.90625 -1.421875 
Q 22.3125 -1.421875 17.546875 -0.640625 
Q 12.796875 0.140625 7.71875 1.703125 
L 7.71875 11.625 
Q 12.109375 9.234375 16.796875 8.0625 
Q 21.484375 6.890625 26.703125 6.890625 
Q 35.15625 6.890625 40.078125 11.328125 
Q 45.015625 15.765625 45.015625 23.390625 
Q 45.015625 31 40.078125 35.4375 
Q 35.15625 39.890625 26.703125 39.890625 
Q 22.75 39.890625 18.8125 39.015625 
Q 14.890625 38.140625 10.796875 36.28125 
z
" id="DejaVuSans-35"/>
      </defs>
      <g transform="translate(335.278797 322.182437)scale(0.1 -0.1)">
       <use xlink:href="#DejaVuSans-35"/>
       <use x="63.623047" xlink:href="#DejaVuSans-30"/>
       <use x="127.246094" xlink:href="#DejaVuSans-30"/>
      </g>
     </g>
    </g>
    <g id="xtick_7">
     <g id="line2d_7">
      <g>
       <use style="stroke:#000000;stroke-width:0.8;" x="399.020511" xlink:href="#mfe2c22f194" y="307.584"/>
      </g>
     </g>
     <g id="text_7">
      <!-- 600 -->
      <defs>
       <path d="M 33.015625 40.375 
Q 26.375 40.375 22.484375 35.828125 
Q 18.609375 31.296875 18.609375 23.390625 
Q 18.609375 15.53125 22.484375 10.953125 
Q 26.375 6.390625 33.015625 6.390625 
Q 39.65625 6.390625 43.53125 10.953125 
Q 47.40625 15.53125 47.40625 23.390625 
Q 47.40625 31.296875 43.53125 35.828125 
Q 39.65625 40.375 33.015625 40.375 
z
M 52.59375 71.296875 
L 52.59375 62.3125 
Q 48.875 64.0625 45.09375 64.984375 
Q 41.3125 65.921875 37.59375 65.921875 
Q 27.828125 65.921875 22.671875 59.328125 
Q 17.53125 52.734375 16.796875 39.40625 
Q 19.671875 43.65625 24.015625 45.921875 
Q 28.375 48.1875 33.59375 48.1875 
Q 44.578125 48.1875 50.953125 41.515625 
Q 57.328125 34.859375 57.328125 23.390625 
Q 57.328125 12.15625 50.6875 5.359375 
Q 44.046875 -1.421875 33.015625 -1.421875 
Q 20.359375 -1.421875 13.671875 8.265625 
Q 6.984375 17.96875 6.984375 36.375 
Q 6.984375 53.65625 15.1875 63.9375 
Q 23.390625 74.21875 37.203125 74.21875 
Q 40.921875 74.21875 44.703125 73.484375 
Q 48.484375 72.75 52.59375 71.296875 
z
" id="DejaVuSans-36"/>
      </defs>
      <g transform="translate(389.476761 322.182437)scale(0.1 -0.1)">
       <use xlink:href="#DejaVuSans-36"/>
       <use x="63.623047" xlink:href="#DejaVuSans-30"/>
       <use x="127.246094" xlink:href="#DejaVuSans-30"/>
      </g>
     </g>
    </g>
    <g id="text_8">
     <!-- t(s) -->
     <defs>
      <path d="M 18.3125 70.21875 
L 18.3125 54.6875 
L 36.8125 54.6875 
L 36.8125 47.703125 
L 18.3125 47.703125 
L 18.3125 18.015625 
Q 18.3125 11.328125 20.140625 9.421875 
Q 21.96875 7.515625 27.59375 7.515625 
L 36.8125 7.515625 
L 36.8125 0 
L 27.59375 0 
Q 17.1875 0 13.234375 3.875 
Q 9.28125 7.765625 9.28125 18.015625 
L 9.28125 47.703125 
L 2.6875 47.703125 
L 2.6875 54.6875 
L 9.28125 54.6875 
L 9.28125 70.21875 
z
" id="DejaVuSans-74"/>
      <path d="M 31 75.875 
Q 24.46875 64.65625 21.28125 53.65625 
Q 18.109375 42.671875 18.109375 31.390625 
Q 18.109375 20.125 21.3125 9.0625 
Q 24.515625 -2 31 -13.1875 
L 23.1875 -13.1875 
Q 15.875 -1.703125 12.234375 9.375 
Q 8.59375 20.453125 8.59375 31.390625 
Q 8.59375 42.28125 12.203125 53.3125 
Q 15.828125 64.359375 23.1875 75.875 
z
" id="DejaVuSans-28"/>
      <path d="M 44.28125 53.078125 
L 44.28125 44.578125 
Q 40.484375 46.53125 36.375 47.5 
Q 32.28125 48.484375 27.875 48.484375 
Q 21.1875 48.484375 17.84375 46.4375 
Q 14.5 44.390625 14.5 40.28125 
Q 14.5 37.15625 16.890625 35.375 
Q 19.28125 33.59375 26.515625 31.984375 
L 29.59375 31.296875 
Q 39.15625 29.25 43.1875 25.515625 
Q 47.21875 21.78125 47.21875 15.09375 
Q 47.21875 7.46875 41.1875 3.015625 
Q 35.15625 -1.421875 24.609375 -1.421875 
Q 20.21875 -1.421875 15.453125 -0.5625 
Q 10.6875 0.296875 5.421875 2 
L 5.421875 11.28125 
Q 10.40625 8.6875 15.234375 7.390625 
Q 20.0625 6.109375 24.8125 6.109375 
Q 31.15625 6.109375 34.5625 8.28125 
Q 37.984375 10.453125 37.984375 14.40625 
Q 37.984375 18.0625 35.515625 20.015625 
Q 33.0625 21.96875 24.703125 23.78125 
L 21.578125 24.515625 
Q 13.234375 26.265625 9.515625 29.90625 
Q 5.8125 33.546875 5.8125 39.890625 
Q 5.8125 47.609375 11.28125 51.796875 
Q 16.75 56 26.8125 56 
Q 31.78125 56 36.171875 55.265625 
Q 40.578125 54.546875 44.28125 53.078125 
z
" id="DejaVuSans-73"/>
      <path d="M 8.015625 75.875 
L 15.828125 75.875 
Q 23.140625 64.359375 26.78125 53.3125 
Q 30.421875 42.28125 30.421875 31.390625 
Q 30.421875 20.453125 26.78125 9.375 
Q 23.140625 -1.703125 15.828125 -13.1875 
L 8.015625 -13.1875 
Q 14.5 -2 17.703125 9.0625 
Q 20.90625 20.125 20.90625 31.390625 
Q 20.90625 42.671875 17.703125 53.65625 
Q 14.5 64.65625 8.015625 75.875 
z
" id="DejaVuSans-29"/>
     </defs>
     <g transform="translate(227.693594 335.860562)scale(0.1 -0.1)">
      <use xlink:href="#DejaVuSans-74"/>
      <use x="39.208984" xlink:href="#DejaVuSans-28"/>
      <use x="78.222656" xlink:href="#DejaVuSans-73"/>
      <use x="130.322266" xlink:href="#DejaVuSans-29"/>
     </g>
    </g>
   </g>
   <g id="matplotlib.axis_2">
    <g id="ytick_1">
     <g id="line2d_8">
      <defs>
       <path d="M 0 0 
L -3.5 0 
" id="mc9044ddde4" style="stroke:#000000;stroke-width:0.8;"/>
      </defs>
      <g>
       <use style="stroke:#000000;stroke-width:0.8;" x="57.6" xlink:href="#mc9044ddde4" y="288.726978"/>
      </g>
     </g>
     <g id="text_9">
      <!-- 3400000 -->
      <g transform="translate(6.0625 292.526197)scale(0.1 -0.1)">
       <use xlink:href="#DejaVuSans-33"/>
       <use x="63.623047" xlink:href="#DejaVuSans-34"/>
       <use x="127.246094" xlink:href="#DejaVuSans-30"/>
       <use x="190.869141" xlink:href="#DejaVuSans-30"/>
       <use x="254.492188" xlink:href="#DejaVuSans-30"/>
       <use x="318.115234" xlink:href="#DejaVuSans-30"/>
       <use x="381.738281" xlink:href="#DejaVuSans-30"/>
      </g>
     </g>
    </g>
    <g id="ytick_2">
     <g id="line2d_9">
      <g>
       <use style="stroke:#000000;stroke-width:0.8;" x="57.6" xlink:href="#mc9044ddde4" y="249.626084"/>
      </g>
     </g>
     <g id="text_10">
      <!-- 3600000 -->
      <g transform="translate(6.0625 253.425303)scale(0.1 -0.1)">
       <use xlink:href="#DejaVuSans-33"/>
       <use x="63.623047" xlink:href="#DejaVuSans-36"/>
       <use x="127.246094" xlink:href="#DejaVuSans-30"/>
       <use x="190.869141" xlink:href="#DejaVuSans-30"/>
       <use x="254.492188" xlink:href="#DejaVuSans-30"/>
       <use x="318.115234" xlink:href="#DejaVuSans-30"/>
       <use x="381.738281" xlink:href="#DejaVuSans-30"/>
      </g>
     </g>
    </g>
    <g id="ytick_3">
     <g id="line2d_10">
      <g>
       <use style="stroke:#000000;stroke-width:0.8;" x="57.6" xlink:href="#mc9044ddde4" y="210.52519"/>
      </g>
     </g>
     <g id="text_11">
      <!-- 3800000 -->
      <defs>
       <path d="M 31.78125 34.625 
Q 24.75 34.625 20.71875 30.859375 
Q 16.703125 27.09375 16.703125 20.515625 
Q 16.703125 13.921875 20.71875 10.15625 
Q 24.75 6.390625 31.78125 6.390625 
Q 38.8125 6.390625 42.859375 10.171875 
Q 46.921875 13.96875 46.921875 20.515625 
Q 46.921875 27.09375 42.890625 30.859375 
Q 38.875 34.625 31.78125 34.625 
z
M 21.921875 38.8125 
Q 15.578125 40.375 12.03125 44.71875 
Q 8.5 49.078125 8.5 55.328125 
Q 8.5 64.0625 14.71875 69.140625 
Q 20.953125 74.21875 31.78125 74.21875 
Q 42.671875 74.21875 48.875 69.140625 
Q 55.078125 64.0625 55.078125 55.328125 
Q 55.078125 49.078125 51.53125 44.71875 
Q 48 40.375 41.703125 38.8125 
Q 48.828125 37.15625 52.796875 32.3125 
Q 56.78125 27.484375 56.78125 20.515625 
Q 56.78125 9.90625 50.3125 4.234375 
Q 43.84375 -1.421875 31.78125 -1.421875 
Q 19.734375 -1.421875 13.25 4.234375 
Q 6.78125 9.90625 6.78125 20.515625 
Q 6.78125 27.484375 10.78125 32.3125 
Q 14.796875 37.15625 21.921875 38.8125 
z
M 18.3125 54.390625 
Q 18.3125 48.734375 21.84375 45.5625 
Q 25.390625 42.390625 31.78125 42.390625 
Q 38.140625 42.390625 41.71875 45.5625 
Q 45.3125 48.734375 45.3125 54.390625 
Q 45.3125 60.0625 41.71875 63.234375 
Q 38.140625 66.40625 31.78125 66.40625 
Q 25.390625 66.40625 21.84375 63.234375 
Q 18.3125 60.0625 18.3125 54.390625 
z
" id="DejaVuSans-38"/>
      </defs>
      <g transform="translate(6.0625 214.324409)scale(0.1 -0.1)">
       <use xlink:href="#DejaVuSans-33"/>
       <use x="63.623047" xlink:href="#DejaVuSans-38"/>
       <use x="127.246094" xlink:href="#DejaVuSans-30"/>
       <use x="190.869141" xlink:href="#DejaVuSans-30"/>
       <use x="254.492188" xlink:href="#DejaVuSans-30"/>
       <use x="318.115234" xlink:href="#DejaVuSans-30"/>
       <use x="381.738281" xlink:href="#DejaVuSans-30"/>
      </g>
     </g>
    </g>
    <g id="ytick_4">
     <g id="line2d_11">
      <g>
       <use style="stroke:#000000;stroke-width:0.8;" x="57.6" xlink:href="#mc9044ddde4" y="171.424296"/>
      </g>
     </g>
     <g id="text_12">
      <!-- 4000000 -->
      <g transform="translate(6.0625 175.223515)scale(0.1 -0.1)">
       <use xlink:href="#DejaVuSans-34"/>
       <use x="63.623047" xlink:href="#DejaVuSans-30"/>
       <use x="127.246094" xlink:href="#DejaVuSans-30"/>
       <use x="190.869141" xlink:href="#DejaVuSans-30"/>
       <use x="254.492188" xlink:href="#DejaVuSans-30"/>
       <use x="318.115234" xlink:href="#DejaVuSans-30"/>
       <use x="381.738281" xlink:href="#DejaVuSans-30"/>
      </g>
     </g>
    </g>
    <g id="ytick_5">
     <g id="line2d_12">
      <g>
       <use style="stroke:#000000;stroke-width:0.8;" x="57.6" xlink:href="#mc9044ddde4" y="132.323402"/>
      </g>
     </g>
     <g id="text_13">
      <!-- 4200000 -->
      <g transform="translate(6.0625 136.122621)scale(0.1 -0.1)">
       <use xlink:href="#DejaVuSans-34"/>
       <use x="63.623047" xlink:href="#DejaVuSans-32"/>
       <use x="127.246094" xlink:href="#DejaVuSans-30"/>
       <use x="190.869141" xlink:href="#DejaVuSans-30"/>
       <use x="254.492188" xlink:href="#DejaVuSans-30"/>
       <use x="318.115234" xlink:href="#DejaVuSans-30"/>
       <use x="381.738281" xlink:href="#DejaVuSans-30"/>
      </g>
     </g>
    </g>
    <g id="ytick_6">
     <g id="line2d_13">
      <g>
       <use style="stroke:#000000;stroke-width:0.8;" x="57.6" xlink:href="#mc9044ddde4" y="93.222508"/>
      </g>
     </g>
     <g id="text_14">
      <!-- 4400000 -->
      <g transform="translate(6.0625 97.021727)scale(0.1 -0.1)">
       <use xlink:href="#DejaVuSans-34"/>
       <use x="63.623047" xlink:href="#DejaVuSans-34"/>
       <use x="127.246094" xlink:href="#DejaVuSans-30"/>
       <use x="190.869141" xlink:href="#DejaVuSans-30"/>
       <use x="254.492188" xlink:href="#DejaVuSans-30"/>
       <use x="318.115234" xlink:href="#DejaVuSans-30"/>
       <use x="381.738281" xlink:href="#DejaVuSans-30"/>
      </g>
     </g>
    </g>
    <g id="ytick_7">
     <g id="line2d_14">
      <g>
       <use style="stroke:#000000;stroke-width:0.8;" x="57.6" xlink:href="#mc9044ddde4" y="54.121614"/>
      </g>
     </g>
     <g id="text_15">
      <!-- 4600000 -->
      <g transform="translate(6.0625 57.920833)scale(0.1 -0.1)">
       <use xlink:href="#DejaVuSans-34"/>
       <use x="63.623047" xlink:href="#DejaVuSans-36"/>
       <use x="127.246094" xlink:href="#DejaVuSans-30"/>
       <use x="190.869141" xlink:href="#DejaVuSans-30"/>
       <use x="254.492188" xlink:href="#DejaVuSans-30"/>
       <use x="318.115234" xlink:href="#DejaVuSans-30"/>
       <use x="381.738281" xlink:href="#DejaVuSans-30"/>
      </g>
     </g>
    </g>
    <g id="text_16">
     <!-- Resistance (Ohm) -->
     <defs>
      <path d="M 44.390625 34.1875 
Q 47.5625 33.109375 50.5625 29.59375 
Q 53.5625 26.078125 56.59375 19.921875 
L 66.609375 0 
L 56 0 
L 46.6875 18.703125 
Q 43.0625 26.03125 39.671875 28.421875 
Q 36.28125 30.8125 30.421875 30.8125 
L 19.671875 30.8125 
L 19.671875 0 
L 9.8125 0 
L 9.8125 72.90625 
L 32.078125 72.90625 
Q 44.578125 72.90625 50.734375 67.671875 
Q 56.890625 62.453125 56.890625 51.90625 
Q 56.890625 45.015625 53.6875 40.46875 
Q 50.484375 35.9375 44.390625 34.1875 
z
M 19.671875 64.796875 
L 19.671875 38.921875 
L 32.078125 38.921875 
Q 39.203125 38.921875 42.84375 42.21875 
Q 46.484375 45.515625 46.484375 51.90625 
Q 46.484375 58.296875 42.84375 61.546875 
Q 39.203125 64.796875 32.078125 64.796875 
z
" id="DejaVuSans-52"/>
      <path d="M 56.203125 29.59375 
L 56.203125 25.203125 
L 14.890625 25.203125 
Q 15.484375 15.921875 20.484375 11.0625 
Q 25.484375 6.203125 34.421875 6.203125 
Q 39.59375 6.203125 44.453125 7.46875 
Q 49.3125 8.734375 54.109375 11.28125 
L 54.109375 2.78125 
Q 49.265625 0.734375 44.1875 -0.34375 
Q 39.109375 -1.421875 33.890625 -1.421875 
Q 20.796875 -1.421875 13.15625 6.1875 
Q 5.515625 13.8125 5.515625 26.8125 
Q 5.515625 40.234375 12.765625 48.109375 
Q 20.015625 56 32.328125 56 
Q 43.359375 56 49.78125 48.890625 
Q 56.203125 41.796875 56.203125 29.59375 
z
M 47.21875 32.234375 
Q 47.125 39.59375 43.09375 43.984375 
Q 39.0625 48.390625 32.421875 48.390625 
Q 24.90625 48.390625 20.390625 44.140625 
Q 15.875 39.890625 15.1875 32.171875 
z
" id="DejaVuSans-65"/>
      <path d="M 9.421875 54.6875 
L 18.40625 54.6875 
L 18.40625 0 
L 9.421875 0 
z
M 9.421875 75.984375 
L 18.40625 75.984375 
L 18.40625 64.59375 
L 9.421875 64.59375 
z
" id="DejaVuSans-69"/>
      <path d="M 34.28125 27.484375 
Q 23.390625 27.484375 19.1875 25 
Q 14.984375 22.515625 14.984375 16.5 
Q 14.984375 11.71875 18.140625 8.90625 
Q 21.296875 6.109375 26.703125 6.109375 
Q 34.1875 6.109375 38.703125 11.40625 
Q 43.21875 16.703125 43.21875 25.484375 
L 43.21875 27.484375 
z
M 52.203125 31.203125 
L 52.203125 0 
L 43.21875 0 
L 43.21875 8.296875 
Q 40.140625 3.328125 35.546875 0.953125 
Q 30.953125 -1.421875 24.3125 -1.421875 
Q 15.921875 -1.421875 10.953125 3.296875 
Q 6 8.015625 6 15.921875 
Q 6 25.140625 12.171875 29.828125 
Q 18.359375 34.515625 30.609375 34.515625 
L 43.21875 34.515625 
L 43.21875 35.40625 
Q 43.21875 41.609375 39.140625 45 
Q 35.0625 48.390625 27.6875 48.390625 
Q 23 48.390625 18.546875 47.265625 
Q 14.109375 46.140625 10.015625 43.890625 
L 10.015625 52.203125 
Q 14.9375 54.109375 19.578125 55.046875 
Q 24.21875 56 28.609375 56 
Q 40.484375 56 46.34375 49.84375 
Q 52.203125 43.703125 52.203125 31.203125 
z
" id="DejaVuSans-61"/>
      <path d="M 54.890625 33.015625 
L 54.890625 0 
L 45.90625 0 
L 45.90625 32.71875 
Q 45.90625 40.484375 42.875 44.328125 
Q 39.84375 48.1875 33.796875 48.1875 
Q 26.515625 48.1875 22.3125 43.546875 
Q 18.109375 38.921875 18.109375 30.90625 
L 18.109375 0 
L 9.078125 0 
L 9.078125 54.6875 
L 18.109375 54.6875 
L 18.109375 46.1875 
Q 21.34375 51.125 25.703125 53.5625 
Q 30.078125 56 35.796875 56 
Q 45.21875 56 50.046875 50.171875 
Q 54.890625 44.34375 54.890625 33.015625 
z
" id="DejaVuSans-6e"/>
      <path d="M 48.78125 52.59375 
L 48.78125 44.1875 
Q 44.96875 46.296875 41.140625 47.34375 
Q 37.3125 48.390625 33.40625 48.390625 
Q 24.65625 48.390625 19.8125 42.84375 
Q 14.984375 37.3125 14.984375 27.296875 
Q 14.984375 17.28125 19.8125 11.734375 
Q 24.65625 6.203125 33.40625 6.203125 
Q 37.3125 6.203125 41.140625 7.25 
Q 44.96875 8.296875 48.78125 10.40625 
L 48.78125 2.09375 
Q 45.015625 0.34375 40.984375 -0.53125 
Q 36.96875 -1.421875 32.421875 -1.421875 
Q 20.0625 -1.421875 12.78125 6.34375 
Q 5.515625 14.109375 5.515625 27.296875 
Q 5.515625 40.671875 12.859375 48.328125 
Q 20.21875 56 33.015625 56 
Q 37.15625 56 41.109375 55.140625 
Q 45.0625 54.296875 48.78125 52.59375 
z
" id="DejaVuSans-63"/>
      <path id="DejaVuSans-20"/>
      <path d="M 39.40625 66.21875 
Q 28.65625 66.21875 22.328125 58.203125 
Q 16.015625 50.203125 16.015625 36.375 
Q 16.015625 22.609375 22.328125 14.59375 
Q 28.65625 6.59375 39.40625 6.59375 
Q 50.140625 6.59375 56.421875 14.59375 
Q 62.703125 22.609375 62.703125 36.375 
Q 62.703125 50.203125 56.421875 58.203125 
Q 50.140625 66.21875 39.40625 66.21875 
z
M 39.40625 74.21875 
Q 54.734375 74.21875 63.90625 63.9375 
Q 73.09375 53.65625 73.09375 36.375 
Q 73.09375 19.140625 63.90625 8.859375 
Q 54.734375 -1.421875 39.40625 -1.421875 
Q 24.03125 -1.421875 14.8125 8.828125 
Q 5.609375 19.09375 5.609375 36.375 
Q 5.609375 53.65625 14.8125 63.9375 
Q 24.03125 74.21875 39.40625 74.21875 
z
" id="DejaVuSans-4f"/>
      <path d="M 54.890625 33.015625 
L 54.890625 0 
L 45.90625 0 
L 45.90625 32.71875 
Q 45.90625 40.484375 42.875 44.328125 
Q 39.84375 48.1875 33.796875 48.1875 
Q 26.515625 48.1875 22.3125 43.546875 
Q 18.109375 38.921875 18.109375 30.90625 
L 18.109375 0 
L 9.078125 0 
L 9.078125 75.984375 
L 18.109375 75.984375 
L 18.109375 46.1875 
Q 21.34375 51.125 25.703125 53.5625 
Q 30.078125 56 35.796875 56 
Q 45.21875 56 50.046875 50.171875 
Q 54.890625 44.34375 54.890625 33.015625 
z
" id="DejaVuSans-68"/>
      <path d="M 52 44.1875 
Q 55.375 50.25 60.0625 53.125 
Q 64.75 56 71.09375 56 
Q 79.640625 56 84.28125 50.015625 
Q 88.921875 44.046875 88.921875 33.015625 
L 88.921875 0 
L 79.890625 0 
L 79.890625 32.71875 
Q 79.890625 40.578125 77.09375 44.375 
Q 74.3125 48.1875 68.609375 48.1875 
Q 61.625 48.1875 57.5625 43.546875 
Q 53.515625 38.921875 53.515625 30.90625 
L 53.515625 0 
L 44.484375 0 
L 44.484375 32.71875 
Q 44.484375 40.625 41.703125 44.40625 
Q 38.921875 48.1875 33.109375 48.1875 
Q 26.21875 48.1875 22.15625 43.53125 
Q 18.109375 38.875 18.109375 30.90625 
L 18.109375 0 
L 9.078125 0 
L 9.078125 54.6875 
L 18.109375 54.6875 
L 18.109375 46.1875 
Q 21.1875 51.21875 25.484375 53.609375 
Q 29.78125 56 35.6875 56 
Q 41.65625 56 45.828125 52.96875 
Q 50 49.953125 52 44.1875 
z
" id="DejaVuSans-6d"/>
     </defs>
     <g transform="translate(-0.017188 219.158469)rotate(-90)scale(0.1 -0.1)">
      <use xlink:href="#DejaVuSans-52"/>
      <use x="69.419922" xlink:href="#DejaVuSans-65"/>
      <use x="130.943359" xlink:href="#DejaVuSans-73"/>
      <use x="183.042969" xlink:href="#DejaVuSans-69"/>
      <use x="210.826172" xlink:href="#DejaVuSans-73"/>
      <use x="262.925781" xlink:href="#DejaVuSans-74"/>
      <use x="302.134766" xlink:href="#DejaVuSans-61"/>
      <use x="363.414062" xlink:href="#DejaVuSans-6e"/>
      <use x="426.792969" xlink:href="#DejaVuSans-63"/>
      <use x="481.773438" xlink:href="#DejaVuSans-65"/>
      <use x="543.296875" xlink:href="#DejaVuSans-20"/>
      <use x="575.083984" xlink:href="#DejaVuSans-28"/>
      <use x="614.097656" xlink:href="#DejaVuSans-4f"/>
      <use x="692.808594" xlink:href="#DejaVuSans-68"/>
      <use x="756.1875" xlink:href="#DejaVuSans-6d"/>
      <use x="853.599609" xlink:href="#DejaVuSans-29"/>
     </g>
    </g>
   </g>
   <g id="line2d_15">
    <path clip-path="url(#p289fb4397f)" d="M 73.832727 69.981456 
L 74.374761 239.58724 
L 74.916795 249.861502 
L 76.000863 262.211163 
L 76.542896 261.511134 
L 77.08493 259.088988 
L 77.626964 263.517668 
L 78.168998 275.991822 
L 78.711032 278.933576 
L 79.253066 278.860079 
L 80.337133 288.058285 
L 80.879167 290.83045 
L 81.421201 289.43361 
L 81.963235 290.098089 
L 82.505269 295.488 
L 83.047303 292.556454 
L 83.589336 291.14632 
L 84.13137 291.863999 
L 84.673404 292.943034 
L 85.215438 289.326534 
L 85.757433 284.800387 
L 86.299413 286.632966 
L 86.841393 292.769597 
L 87.383372 292.399185 
L 87.925352 285.366188 
L 88.467874 267.203603 
L 90.095438 128.342635 
L 90.63796 111.462025 
L 91.180482 64.76869 
L 91.723003 61.602139 
L 92.265525 57.540763 
L 92.808046 95.95435 
L 93.350568 167.758199 
L 93.892548 181.036117 
L 94.434527 189.481135 
L 94.977049 231.030974 
L 95.519571 258.704988 
L 96.06155 260.969459 
L 96.60353 259.092531 
L 97.687489 276.346457 
L 98.229469 279.203715 
L 98.771448 278.680131 
L 99.313428 281.03251 
L 99.855408 282.749653 
L 100.939367 289.807886 
L 101.481347 292.320129 
L 102.023326 289.75263 
L 103.107286 291.968133 
L 103.649265 294.722779 
L 104.191245 294.999845 
L 104.733224 294.172568 
L 105.275204 291.70659 
L 105.817184 291.886232 
L 106.359163 291.204756 
L 106.901143 292.023824 
L 107.443123 291.807772 
L 107.985102 290.844476 
L 108.527082 292.328663 
L 109.069062 292.260675 
L 109.611041 290.609264 
L 110.153021 290.009638 
L 110.695 291.719112 
L 111.23698 290.682089 
L 111.77896 291.465268 
L 112.320939 291.291566 
L 112.862919 290.973629 
L 113.404899 290.948531 
L 113.946878 292.395723 
L 114.488858 292.112248 
L 115.030838 293.259582 
L 115.572817 293.953972 
L 116.114797 293.912115 
L 116.656776 291.02816 
L 117.198756 289.993878 
L 117.740736 291.40515 
L 118.282715 291.59117 
L 118.824695 292.021995 
L 119.366675 291.691318 
L 119.908654 292.500915 
L 120.450634 289.127024 
L 120.992614 286.737839 
L 121.534593 290.794148 
L 122.076573 290.093469 
L 122.618553 282.93759 
L 123.160532 280.094825 
L 123.702512 291.35557 
L 124.244491 288.935764 
L 124.786471 291.755353 
L 125.328451 292.074118 
L 125.87043 292.695503 
L 126.41241 292.929895 
L 126.954932 291.970425 
L 127.496911 290.431571 
L 128.038891 289.562533 
L 128.58087 289.087854 
L 129.12285 290.266068 
L 129.66483 290.607567 
L 130.206809 292.3842 
L 130.748789 291.625184 
L 131.290769 289.059563 
L 131.832748 285.476864 
L 132.374728 286.958965 
L 132.916708 290.374549 
L 134.000667 292.98857 
L 134.542647 292.874102 
L 135.084626 291.228917 
L 135.626606 290.305348 
L 136.168585 291.603799 
L 136.710565 294.82593 
L 137.252545 294.543618 
L 137.794524 290.389886 
L 138.336504 290.55599 
L 138.878484 290.972857 
L 139.420463 290.576735 
L 141.046402 279.949215 
L 141.588382 278.159417 
L 142.130361 276.809449 
L 143.214321 259.689246 
L 143.7563 260.609796 
L 144.84026 255.582589 
L 145.382239 251.769704 
L 145.924219 240.95256 
L 147.008178 226.756901 
L 148.092137 203.963155 
L 148.634117 261.549778 
L 149.176097 185.076562 
L 149.718076 255.033033 
L 150.260056 155.248926 
L 150.802036 258.115849 
L 151.344015 255.665878 
L 151.885995 257.120002 
L 152.427975 259.711155 
L 152.969954 261.13375 
L 153.511934 259.773382 
L 154.053914 274.598027 
L 154.595893 99.288215 
L 155.137873 279.491619 
L 155.679852 100.753147 
L 156.221832 286.962327 
L 156.763812 100.168321 
L 157.305791 100.019873 
L 157.847771 98.590873 
L 158.389751 98.039121 
L 158.93173 89.91495 
L 159.47371 89.043067 
L 160.01569 84.990531 
L 160.557669 90.056916 
L 161.099649 84.737573 
L 161.641628 85.350416 
L 162.183608 83.571506 
L 162.725588 84.996893 
L 163.267567 88.954425 
L 163.809547 95.172867 
L 164.351527 97.499832 
L 164.893506 101.300647 
L 165.435486 109.533338 
L 165.977466 132.75099 
L 166.519445 146.295917 
L 167.061425 151.413726 
L 167.603405 159.029056 
L 168.145384 170.809916 
L 168.687364 178.473468 
L 169.229343 181.984787 
L 169.771323 187.995974 
L 170.855282 194.882011 
L 171.397262 200.44632 
L 171.939242 203.507292 
L 172.481221 205.809685 
L 174.10716 217.340784 
L 174.64914 219.710692 
L 175.191119 229.235322 
L 175.733099 228.738463 
L 176.275079 244.288606 
L 176.817058 254.113679 
L 177.359038 255.405381 
L 177.901018 260.131766 
L 178.442997 263.08956 
L 178.984977 277.031476 
L 179.526957 276.775362 
L 180.068936 286.988651 
L 180.610916 289.600979 
L 181.152895 289.01414 
L 181.694875 240.414423 
L 182.236855 240.175817 
L 182.778834 245.527704 
L 183.320814 246.470022 
L 183.862794 246.761344 
L 184.946753 242.920914 
L 185.488733 292.056881 
L 186.030712 240.158777 
L 186.572692 292.45018 
L 187.114672 291.111083 
L 187.656651 282.472375 
L 188.198631 280.43459 
L 188.74061 282.541161 
L 189.28259 282.949952 
L 189.82457 282.046185 
L 190.366549 282.620482 
L 190.908529 280.808729 
L 191.450509 281.745294 
L 191.992488 281.573015 
L 192.534468 281.73863 
L 193.076448 161.990074 
L 194.160407 133.600246 
L 194.702386 109.654911 
L 196.870305 64.405147 
L 197.412285 66.003227 
L 197.954264 60.941793 
L 198.496244 61.659594 
L 199.038224 68.337884 
L 199.580203 68.351257 
L 200.664162 61.683108 
L 201.206142 63.13557 
L 201.748122 59.237609 
L 202.832081 63.641194 
L 203.91604 62.077889 
L 204.45802 57.005679 
L 205 56.253731 
L 205.541979 57.108428 
L 206.083959 57.572041 
L 206.625939 59.096605 
L 207.167918 61.638753 
L 207.709898 65.551754 
L 208.251877 64.894868 
L 208.793857 62.769631 
L 209.335837 64.043724 
L 209.877816 61.085151 
L 210.419796 65.441495 
L 211.503755 67.997976 
L 212.045735 70.799877 
L 212.587715 66.89424 
L 213.129694 69.142597 
L 214.213653 60.585274 
L 214.755633 64.849555 
L 215.297613 64.233451 
L 215.839592 53.568 
L 216.381572 61.209502 
L 216.923552 62.641546 
L 217.465531 62.456184 
L 218.007511 67.59823 
L 218.549491 68.212291 
L 219.09147 61.772196 
L 219.63345 76.520329 
L 220.17543 80.165298 
L 220.717409 80.794333 
L 221.259389 89.95345 
L 223.427307 145.198993 
L 223.969287 151.50247 
L 225.053246 173.291222 
L 225.595226 182.03126 
L 226.137206 185.337658 
L 226.679185 191.876734 
L 228.305124 200.319331 
L 228.847104 204.819888 
L 229.389083 205.185012 
L 229.931063 209.22265 
L 230.473043 211.658788 
L 232.098982 224.638949 
L 232.640961 225.690905 
L 234.2669 234.668998 
L 234.80888 236.556608 
L 235.350859 239.300413 
L 235.892839 244.629495 
L 236.976798 251.527158 
L 237.518778 254.857942 
L 238.602737 259.475143 
L 239.144717 262.613016 
L 239.686697 263.368637 
L 240.228676 268.039833 
L 240.770656 274.977905 
L 241.854615 282.255668 
L 242.396595 285.773964 
L 242.938574 292.466327 
L 243.480554 290.982498 
L 244.564513 295.018001 
L 245.106493 291.315059 
L 245.648473 291.54437 
L 246.190452 293.965262 
L 246.732432 290.991072 
L 247.274411 288.638959 
L 247.816391 287.962624 
L 248.358371 289.355722 
L 248.90035 290.189028 
L 249.44233 292.76381 
L 249.98431 292.061763 
L 251.068269 283.267127 
L 251.610249 280.887403 
L 252.152228 281.22301 
L 252.694208 282.394363 
L 253.236187 280.927458 
L 253.778167 275.629137 
L 254.320689 231.673847 
L 254.862668 229.748454 
L 255.404648 220.945005 
L 255.946628 218.014373 
L 257.030587 203.501785 
L 258.114546 195.980709 
L 258.656526 193.369885 
L 259.198505 185.955853 
L 259.740485 180.715524 
L 260.282465 177.650785 
L 260.824444 171.89167 
L 261.366424 163.542727 
L 262.450383 153.720156 
L 262.992363 151.283949 
L 263.534343 145.367862 
L 264.076322 141.805457 
L 264.618302 132.865809 
L 265.160281 131.392839 
L 265.702261 122.604468 
L 266.244241 120.670498 
L 266.78622 115.571622 
L 267.3282 121.500561 
L 267.87018 119.516432 
L 268.412159 121.703135 
L 268.954139 121.650886 
L 269.496119 138.231377 
L 270.038098 138.204996 
L 271.122058 151.032851 
L 271.664037 160.707303 
L 272.206017 164.9714 
L 272.747996 174.801265 
L 273.289976 178.582408 
L 273.831956 190.238096 
L 274.915915 203.641722 
L 275.457895 212.23219 
L 275.999874 223.225306 
L 277.625813 248.72194 
L 278.167793 251.323229 
L 278.709772 263.095644 
L 279.251752 266.913058 
L 279.793732 268.197669 
L 280.335711 271.360186 
L 280.877691 271.270096 
L 281.419671 275.888615 
L 281.96165 277.227375 
L 282.50363 279.504742 
L 283.04561 278.541592 
L 283.587589 280.598962 
L 284.671549 280.269983 
L 285.213528 281.578097 
L 285.755508 283.493909 
L 286.297487 282.424685 
L 286.839467 291.218513 
L 287.923426 287.288641 
L 288.465406 290.922548 
L 289.007386 291.130209 
L 289.549365 290.809207 
L 290.091345 292.301174 
L 290.633325 289.495021 
L 291.175304 285.758784 
L 291.717284 283.042015 
L 292.801243 270.920997 
L 293.343223 260.377794 
L 293.885202 260.523536 
L 294.427182 256.071582 
L 294.969162 249.697584 
L 295.511141 241.966214 
L 296.053121 238.467351 
L 296.595101 231.012349 
L 297.13708 226.657263 
L 298.221039 213.252182 
L 298.763019 209.663593 
L 299.304999 204.044845 
L 299.846978 199.836674 
L 300.388958 194.673743 
L 300.930938 191.64535 
L 302.014897 178.519488 
L 302.556877 165.024666 
L 303.640836 134.610093 
L 304.182816 106.1152 
L 305.266775 76.655771 
L 305.808754 66.028283 
L 306.350734 62.622142 
L 306.892714 63.995568 
L 307.434693 63.119845 
L 307.976673 57.753158 
L 308.518653 58.865644 
L 309.060632 62.155991 
L 309.602612 64.176338 
L 310.144592 67.920888 
L 310.686571 79.048771 
L 311.228551 79.697067 
L 311.77053 89.70785 
L 312.31251 90.844261 
L 312.85449 107.685488 
L 313.396469 108.009055 
L 313.938449 110.023243 
L 314.480429 113.386466 
L 317.190327 143.009164 
L 317.732306 147.489858 
L 318.274286 149.53651 
L 318.816266 152.738441 
L 320.442205 170.798961 
L 320.984184 173.649057 
L 321.526164 180.072103 
L 322.068144 184.404915 
L 322.610123 193.018165 
L 323.152103 194.349672 
L 323.694083 197.069348 
L 324.236062 197.897892 
L 324.778042 199.609487 
L 325.320021 199.46068 
L 326.403981 206.64999 
L 326.94596 211.45904 
L 327.48794 212.653155 
L 328.02992 211.772221 
L 328.571899 213.478206 
L 329.113879 209.103215 
L 329.655859 206.706083 
L 330.197838 202.204262 
L 331.823777 194.178015 
L 332.365757 189.266969 
L 332.907736 182.130837 
L 333.449716 178.299795 
L 333.991696 173.044402 
L 334.533675 172.928345 
L 335.075655 160.997328 
L 335.617635 159.355844 
L 336.159614 133.801212 
L 336.701594 114.940103 
L 337.243574 108.45625 
L 337.785553 137.761183 
L 338.327533 128.399997 
L 338.869512 75.033635 
L 339.411492 117.576164 
L 339.953472 114.073084 
L 340.495451 109.578204 
L 341.037431 108.587949 
L 341.579411 109.352887 
L 342.12139 108.712669 
L 342.66337 106.903758 
L 343.20535 102.381416 
L 343.747329 101.383624 
L 344.289309 102.781658 
L 344.831288 103.422076 
L 345.373268 107.494634 
L 345.915248 106.53224 
L 346.457227 107.276084 
L 346.999207 108.594738 
L 348.083166 112.283473 
L 348.625146 116.262303 
L 349.167126 117.806115 
L 350.251085 126.329958 
L 350.793064 134.069035 
L 351.335044 139.137989 
L 351.877024 145.830346 
L 352.419003 146.466536 
L 353.502963 156.164586 
L 354.044942 163.412614 
L 354.586922 161.453255 
L 355.670881 167.893208 
L 356.212861 166.649965 
L 356.754841 163.194642 
L 357.29682 161.597484 
L 357.8388 157.448945 
L 358.380779 154.46792 
L 358.922759 150.303308 
L 359.464739 148.541096 
L 360.006718 140.737901 
L 360.548698 125.218772 
L 361.090678 125.701463 
L 362.174637 116.306995 
L 363.258596 110.469927 
L 363.800576 98.964406 
L 364.342555 83.317069 
L 365.426515 71.190659 
L 365.968494 62.146081 
L 366.510474 57.615405 
L 367.052454 56.818351 
L 367.594433 60.77141 
L 368.136413 62.894909 
L 368.678393 59.643358 
L 369.220372 78.089542 
L 369.762352 182.689527 
L 370.304331 198.874785 
L 371.93027 258.623125 
L 372.47225 264.098649 
L 373.01423 279.243916 
L 373.556209 290.717113 
L 374.098189 294.442528 
L 374.640169 291.830671 
L 375.182148 285.198716 
L 375.724128 290.521352 
L 376.266108 281.749204 
L 376.808087 281.692178 
L 377.350067 267.626944 
L 377.892046 265.775009 
L 378.434026 259.626867 
L 378.976006 238.765034 
L 379.517985 230.738287 
L 380.059965 219.630264 
L 380.601945 201.596178 
L 381.143924 195.877885 
L 381.685904 179.922136 
L 382.227884 181.166543 
L 382.769863 153.869879 
L 383.311843 275.535761 
L 384.937782 284.126912 
L 385.479761 285.454988 
L 386.021741 288.365713 
L 386.563721 290.389627 
L 387.1057 290.73641 
L 387.64768 291.625287 
L 388.18966 293.915905 
L 388.731639 294.208136 
L 389.273619 292.549659 
L 389.815599 292.747362 
L 390.357578 291.623046 
L 390.899558 292.256456 
L 391.441537 291.013774 
L 391.983517 291.218364 
L 392.525497 292.648195 
L 393.067476 292.456318 
L 393.609456 292.710975 
L 394.151436 293.570626 
L 394.693415 293.450585 
L 395.235395 293.059136 
L 396.319354 289.8944 
L 396.861334 289.634649 
L 397.403313 288.418411 
L 397.945293 289.874272 
L 398.487273 290.595781 
L 398.487273 290.595781 
" style="fill:none;stroke:#1f77b4;stroke-linecap:square;stroke-width:1.5;"/>
   </g>
   <g id="patch_3">
    <path d="M 57.6 307.584 
L 57.6 41.472 
" style="fill:none;stroke:#000000;stroke-linecap:square;stroke-linejoin:miter;stroke-width:0.8;"/>
   </g>
   <g id="patch_4">
    <path d="M 414.72 307.584 
L 414.72 41.472 
" style="fill:none;stroke:#000000;stroke-linecap:square;stroke-linejoin:miter;stroke-width:0.8;"/>
   </g>
   <g id="patch_5">
    <path d="M 57.6 307.584 
L 414.72 307.584 
" style="fill:none;stroke:#000000;stroke-linecap:square;stroke-linejoin:miter;stroke-width:0.8;"/>
   </g>
   <g id="patch_6">
    <path d="M 57.6 41.472 
L 414.72 41.472 
" style="fill:none;stroke:#000000;stroke-linecap:square;stroke-linejoin:miter;stroke-width:0.8;"/>
   </g>
   <g id="text_17">
    <!-- Resistance with source voltage 1000.0 mV -->
    <defs>
     <path d="M 4.203125 54.6875 
L 13.1875 54.6875 
L 24.421875 12.015625 
L 35.59375 54.6875 
L 46.1875 54.6875 
L 57.421875 12.015625 
L 68.609375 54.6875 
L 77.59375 54.6875 
L 63.28125 0 
L 52.6875 0 
L 40.921875 44.828125 
L 29.109375 0 
L 18.5 0 
z
" id="DejaVuSans-77"/>
     <path d="M 30.609375 48.390625 
Q 23.390625 48.390625 19.1875 42.75 
Q 14.984375 37.109375 14.984375 27.296875 
Q 14.984375 17.484375 19.15625 11.84375 
Q 23.34375 6.203125 30.609375 6.203125 
Q 37.796875 6.203125 41.984375 11.859375 
Q 46.1875 17.53125 46.1875 27.296875 
Q 46.1875 37.015625 41.984375 42.703125 
Q 37.796875 48.390625 30.609375 48.390625 
z
M 30.609375 56 
Q 42.328125 56 49.015625 48.375 
Q 55.71875 40.765625 55.71875 27.296875 
Q 55.71875 13.875 49.015625 6.21875 
Q 42.328125 -1.421875 30.609375 -1.421875 
Q 18.84375 -1.421875 12.171875 6.21875 
Q 5.515625 13.875 5.515625 27.296875 
Q 5.515625 40.765625 12.171875 48.375 
Q 18.84375 56 30.609375 56 
z
" id="DejaVuSans-6f"/>
     <path d="M 8.5 21.578125 
L 8.5 54.6875 
L 17.484375 54.6875 
L 17.484375 21.921875 
Q 17.484375 14.15625 20.5 10.265625 
Q 23.53125 6.390625 29.59375 6.390625 
Q 36.859375 6.390625 41.078125 11.03125 
Q 45.3125 15.671875 45.3125 23.6875 
L 45.3125 54.6875 
L 54.296875 54.6875 
L 54.296875 0 
L 45.3125 0 
L 45.3125 8.40625 
Q 42.046875 3.421875 37.71875 1 
Q 33.40625 -1.421875 27.6875 -1.421875 
Q 18.265625 -1.421875 13.375 4.4375 
Q 8.5 10.296875 8.5 21.578125 
z
M 31.109375 56 
z
" id="DejaVuSans-75"/>
     <path d="M 41.109375 46.296875 
Q 39.59375 47.171875 37.8125 47.578125 
Q 36.03125 48 33.890625 48 
Q 26.265625 48 22.1875 43.046875 
Q 18.109375 38.09375 18.109375 28.8125 
L 18.109375 0 
L 9.078125 0 
L 9.078125 54.6875 
L 18.109375 54.6875 
L 18.109375 46.1875 
Q 20.953125 51.171875 25.484375 53.578125 
Q 30.03125 56 36.53125 56 
Q 37.453125 56 38.578125 55.875 
Q 39.703125 55.765625 41.0625 55.515625 
z
" id="DejaVuSans-72"/>
     <path d="M 2.984375 54.6875 
L 12.5 54.6875 
L 29.59375 8.796875 
L 46.6875 54.6875 
L 56.203125 54.6875 
L 35.6875 0 
L 23.484375 0 
z
" id="DejaVuSans-76"/>
     <path d="M 9.421875 75.984375 
L 18.40625 75.984375 
L 18.40625 0 
L 9.421875 0 
z
" id="DejaVuSans-6c"/>
     <path d="M 45.40625 27.984375 
Q 45.40625 37.75 41.375 43.109375 
Q 37.359375 48.484375 30.078125 48.484375 
Q 22.859375 48.484375 18.828125 43.109375 
Q 14.796875 37.75 14.796875 27.984375 
Q 14.796875 18.265625 18.828125 12.890625 
Q 22.859375 7.515625 30.078125 7.515625 
Q 37.359375 7.515625 41.375 12.890625 
Q 45.40625 18.265625 45.40625 27.984375 
z
M 54.390625 6.78125 
Q 54.390625 -7.171875 48.1875 -13.984375 
Q 42 -20.796875 29.203125 -20.796875 
Q 24.46875 -20.796875 20.265625 -20.09375 
Q 16.0625 -19.390625 12.109375 -17.921875 
L 12.109375 -9.1875 
Q 16.0625 -11.328125 19.921875 -12.34375 
Q 23.78125 -13.375 27.78125 -13.375 
Q 36.625 -13.375 41.015625 -8.765625 
Q 45.40625 -4.15625 45.40625 5.171875 
L 45.40625 9.625 
Q 42.625 4.78125 38.28125 2.390625 
Q 33.9375 0 27.875 0 
Q 17.828125 0 11.671875 7.65625 
Q 5.515625 15.328125 5.515625 27.984375 
Q 5.515625 40.671875 11.671875 48.328125 
Q 17.828125 56 27.875 56 
Q 33.9375 56 38.28125 53.609375 
Q 42.625 51.21875 45.40625 46.390625 
L 45.40625 54.6875 
L 54.390625 54.6875 
z
" id="DejaVuSans-67"/>
     <path d="M 10.6875 12.40625 
L 21 12.40625 
L 21 0 
L 10.6875 0 
z
" id="DejaVuSans-2e"/>
     <path d="M 28.609375 0 
L 0.78125 72.90625 
L 11.078125 72.90625 
L 34.1875 11.53125 
L 57.328125 72.90625 
L 67.578125 72.90625 
L 39.796875 0 
z
" id="DejaVuSans-56"/>
    </defs>
    <g transform="translate(107.881875 35.472)scale(0.12 -0.12)">
     <use xlink:href="#DejaVuSans-52"/>
     <use x="69.419922" xlink:href="#DejaVuSans-65"/>
     <use x="130.943359" xlink:href="#DejaVuSans-73"/>
     <use x="183.042969" xlink:href="#DejaVuSans-69"/>
     <use x="210.826172" xlink:href="#DejaVuSans-73"/>
     <use x="262.925781" xlink:href="#DejaVuSans-74"/>
     <use x="302.134766" xlink:href="#DejaVuSans-61"/>
     <use x="363.414062" xlink:href="#DejaVuSans-6e"/>
     <use x="426.792969" xlink:href="#DejaVuSans-63"/>
     <use x="481.773438" xlink:href="#DejaVuSans-65"/>
     <use x="543.296875" xlink:href="#DejaVuSans-20"/>
     <use x="575.083984" xlink:href="#DejaVuSans-77"/>
     <use x="656.871094" xlink:href="#DejaVuSans-69"/>
     <use x="684.654297" xlink:href="#DejaVuSans-74"/>
     <use x="723.863281" xlink:href="#DejaVuSans-68"/>
     <use x="787.242188" xlink:href="#DejaVuSans-20"/>
     <use x="819.029297" xlink:href="#DejaVuSans-73"/>
     <use x="871.128906" xlink:href="#DejaVuSans-6f"/>
     <use x="932.310547" xlink:href="#DejaVuSans-75"/>
     <use x="995.689453" xlink:href="#DejaVuSans-72"/>
     <use x="1036.771484" xlink:href="#DejaVuSans-63"/>
     <use x="1091.751953" xlink:href="#DejaVuSans-65"/>
     <use x="1153.275391" xlink:href="#DejaVuSans-20"/>
     <use x="1185.0625" xlink:href="#DejaVuSans-76"/>
     <use x="1244.242188" xlink:href="#DejaVuSans-6f"/>
     <use x="1305.423828" xlink:href="#DejaVuSans-6c"/>
     <use x="1333.207031" xlink:href="#DejaVuSans-74"/>
     <use x="1372.416016" xlink:href="#DejaVuSans-61"/>
     <use x="1433.695312" xlink:href="#DejaVuSans-67"/>
     <use x="1497.171875" xlink:href="#DejaVuSans-65"/>
     <use x="1558.695312" xlink:href="#DejaVuSans-20"/>
     <use x="1590.482422" xlink:href="#DejaVuSans-31"/>
     <use x="1654.105469" xlink:href="#DejaVuSans-30"/>
     <use x="1717.728516" xlink:href="#DejaVuSans-30"/>
     <use x="1781.351562" xlink:href="#DejaVuSans-30"/>
     <use x="1844.974609" xlink:href="#DejaVuSans-2e"/>
     <use x="1876.761719" xlink:href="#DejaVuSans-30"/>
     <use x="1940.384766" xlink:href="#DejaVuSans-20"/>
     <use x="1972.171875" xlink:href="#DejaVuSans-6d"/>
     <use x="2069.583984" xlink:href="#DejaVuSans-56"/>
    </g>
   </g>
  </g>
 </g>
 <defs>
  <clipPath id="p289fb4397f">
   <rect height="266.112" width="357.12" x="57.6" y="41.472"/>
  </clipPath>
 </defs>
</svg>
