<?xml version="1.0" encoding="utf-8" standalone="no"?>
<!DOCTYPE svg PUBLIC "-//W3C//DTD SVG 1.1//EN"
  "http://www.w3.org/Graphics/SVG/1.1/DTD/svg11.dtd">
<!-- Created with matplotlib (http://matplotlib.org/) -->
<svg height="345pt" version="1.1" viewBox="0 0 460 345" width="460pt" xmlns="http://www.w3.org/2000/svg" xmlns:xlink="http://www.w3.org/1999/xlink">
 <defs>
  <style type="text/css">
*{stroke-linecap:butt;stroke-linejoin:round;}
  </style>
 </defs>
 <g id="figure_1">
  <g id="patch_1">
   <path d="M 0 345.6 
L 460.8 345.6 
L 460.8 0 
L 0 0 
z
" style="fill:#ffffff;"/>
  </g>
  <g id="axes_1">
   <g id="patch_2">
    <path d="M 57.6 307.584 
L 414.72 307.584 
L 414.72 41.472 
L 57.6 41.472 
z
" style="fill:#ffffff;"/>
   </g>
   <g id="matplotlib.axis_1">
    <g id="xtick_1">
     <g id="line2d_1">
      <defs>
       <path d="M 0 0 
L 0 3.5 
" id="m1fb4bde11b" style="stroke:#000000;stroke-width:0.8;"/>
      </defs>
      <g>
       <use style="stroke:#000000;stroke-width:0.8;" x="73.832727" xlink:href="#m1fb4bde11b" y="307.584"/>
      </g>
     </g>
     <g id="text_1">
      <!-- 0 -->
      <defs>
       <path d="M 31.78125 66.40625 
Q 24.171875 66.40625 20.328125 58.90625 
Q 16.5 51.421875 16.5 36.375 
Q 16.5 21.390625 20.328125 13.890625 
Q 24.171875 6.390625 31.78125 6.390625 
Q 39.453125 6.390625 43.28125 13.890625 
Q 47.125 21.390625 47.125 36.375 
Q 47.125 51.421875 43.28125 58.90625 
Q 39.453125 66.40625 31.78125 66.40625 
z
M 31.78125 74.21875 
Q 44.046875 74.21875 50.515625 64.515625 
Q 56.984375 54.828125 56.984375 36.375 
Q 56.984375 17.96875 50.515625 8.265625 
Q 44.046875 -1.421875 31.78125 -1.421875 
Q 19.53125 -1.421875 13.0625 8.265625 
Q 6.59375 17.96875 6.59375 36.375 
Q 6.59375 54.828125 13.0625 64.515625 
Q 19.53125 74.21875 31.78125 74.21875 
z
" id="DejaVuSans-30"/>
      </defs>
      <g transform="translate(70.651477 322.182437)scale(0.1 -0.1)">
       <use xlink:href="#DejaVuSans-30"/>
      </g>
     </g>
    </g>
    <g id="xtick_2">
     <g id="line2d_2">
      <g>
       <use style="stroke:#000000;stroke-width:0.8;" x="127.949061" xlink:href="#m1fb4bde11b" y="307.584"/>
      </g>
     </g>
     <g id="text_2">
      <!-- 100 -->
      <defs>
       <path d="M 12.40625 8.296875 
L 28.515625 8.296875 
L 28.515625 63.921875 
L 10.984375 60.40625 
L 10.984375 69.390625 
L 28.421875 72.90625 
L 38.28125 72.90625 
L 38.28125 8.296875 
L 54.390625 8.296875 
L 54.390625 0 
L 12.40625 0 
z
" id="DejaVuSans-31"/>
      </defs>
      <g transform="translate(118.405311 322.182437)scale(0.1 -0.1)">
       <use xlink:href="#DejaVuSans-31"/>
       <use x="63.623047" xlink:href="#DejaVuSans-30"/>
       <use x="127.246094" xlink:href="#DejaVuSans-30"/>
      </g>
     </g>
    </g>
    <g id="xtick_3">
     <g id="line2d_3">
      <g>
       <use style="stroke:#000000;stroke-width:0.8;" x="182.065394" xlink:href="#m1fb4bde11b" y="307.584"/>
      </g>
     </g>
     <g id="text_3">
      <!-- 200 -->
      <defs>
       <path d="M 19.1875 8.296875 
L 53.609375 8.296875 
L 53.609375 0 
L 7.328125 0 
L 7.328125 8.296875 
Q 12.9375 14.109375 22.625 23.890625 
Q 32.328125 33.6875 34.8125 36.53125 
Q 39.546875 41.84375 41.421875 45.53125 
Q 43.3125 49.21875 43.3125 52.78125 
Q 43.3125 58.59375 39.234375 62.25 
Q 35.15625 65.921875 28.609375 65.921875 
Q 23.96875 65.921875 18.8125 64.3125 
Q 13.671875 62.703125 7.8125 59.421875 
L 7.8125 69.390625 
Q 13.765625 71.78125 18.9375 73 
Q 24.125 74.21875 28.421875 74.21875 
Q 39.75 74.21875 46.484375 68.546875 
Q 53.21875 62.890625 53.21875 53.421875 
Q 53.21875 48.921875 51.53125 44.890625 
Q 49.859375 40.875 45.40625 35.40625 
Q 44.1875 33.984375 37.640625 27.21875 
Q 31.109375 20.453125 19.1875 8.296875 
z
" id="DejaVuSans-32"/>
      </defs>
      <g transform="translate(172.521644 322.182437)scale(0.1 -0.1)">
       <use xlink:href="#DejaVuSans-32"/>
       <use x="63.623047" xlink:href="#DejaVuSans-30"/>
       <use x="127.246094" xlink:href="#DejaVuSans-30"/>
      </g>
     </g>
    </g>
    <g id="xtick_4">
     <g id="line2d_4">
      <g>
       <use style="stroke:#000000;stroke-width:0.8;" x="236.181727" xlink:href="#m1fb4bde11b" y="307.584"/>
      </g>
     </g>
     <g id="text_4">
      <!-- 300 -->
      <defs>
       <path d="M 40.578125 39.3125 
Q 47.65625 37.796875 51.625 33 
Q 55.609375 28.21875 55.609375 21.1875 
Q 55.609375 10.40625 48.1875 4.484375 
Q 40.765625 -1.421875 27.09375 -1.421875 
Q 22.515625 -1.421875 17.65625 -0.515625 
Q 12.796875 0.390625 7.625 2.203125 
L 7.625 11.71875 
Q 11.71875 9.328125 16.59375 8.109375 
Q 21.484375 6.890625 26.8125 6.890625 
Q 36.078125 6.890625 40.9375 10.546875 
Q 45.796875 14.203125 45.796875 21.1875 
Q 45.796875 27.640625 41.28125 31.265625 
Q 36.765625 34.90625 28.71875 34.90625 
L 20.21875 34.90625 
L 20.21875 43.015625 
L 29.109375 43.015625 
Q 36.375 43.015625 40.234375 45.921875 
Q 44.09375 48.828125 44.09375 54.296875 
Q 44.09375 59.90625 40.109375 62.90625 
Q 36.140625 65.921875 28.71875 65.921875 
Q 24.65625 65.921875 20.015625 65.03125 
Q 15.375 64.15625 9.8125 62.3125 
L 9.8125 71.09375 
Q 15.4375 72.65625 20.34375 73.4375 
Q 25.25 74.21875 29.59375 74.21875 
Q 40.828125 74.21875 47.359375 69.109375 
Q 53.90625 64.015625 53.90625 55.328125 
Q 53.90625 49.265625 50.4375 45.09375 
Q 46.96875 40.921875 40.578125 39.3125 
z
" id="DejaVuSans-33"/>
      </defs>
      <g transform="translate(226.637977 322.182437)scale(0.1 -0.1)">
       <use xlink:href="#DejaVuSans-33"/>
       <use x="63.623047" xlink:href="#DejaVuSans-30"/>
       <use x="127.246094" xlink:href="#DejaVuSans-30"/>
      </g>
     </g>
    </g>
    <g id="xtick_5">
     <g id="line2d_5">
      <g>
       <use style="stroke:#000000;stroke-width:0.8;" x="290.298061" xlink:href="#m1fb4bde11b" y="307.584"/>
      </g>
     </g>
     <g id="text_5">
      <!-- 400 -->
      <defs>
       <path d="M 37.796875 64.3125 
L 12.890625 25.390625 
L 37.796875 25.390625 
z
M 35.203125 72.90625 
L 47.609375 72.90625 
L 47.609375 25.390625 
L 58.015625 25.390625 
L 58.015625 17.1875 
L 47.609375 17.1875 
L 47.609375 0 
L 37.796875 0 
L 37.796875 17.1875 
L 4.890625 17.1875 
L 4.890625 26.703125 
z
" id="DejaVuSans-34"/>
      </defs>
      <g transform="translate(280.754311 322.182437)scale(0.1 -0.1)">
       <use xlink:href="#DejaVuSans-34"/>
       <use x="63.623047" xlink:href="#DejaVuSans-30"/>
       <use x="127.246094" xlink:href="#DejaVuSans-30"/>
      </g>
     </g>
    </g>
    <g id="xtick_6">
     <g id="line2d_6">
      <g>
       <use style="stroke:#000000;stroke-width:0.8;" x="344.414394" xlink:href="#m1fb4bde11b" y="307.584"/>
      </g>
     </g>
     <g id="text_6">
      <!-- 500 -->
      <defs>
       <path d="M 10.796875 72.90625 
L 49.515625 72.90625 
L 49.515625 64.59375 
L 19.828125 64.59375 
L 19.828125 46.734375 
Q 21.96875 47.46875 24.109375 47.828125 
Q 26.265625 48.1875 28.421875 48.1875 
Q 40.625 48.1875 47.75 41.5 
Q 54.890625 34.8125 54.890625 23.390625 
Q 54.890625 11.625 47.5625 5.09375 
Q 40.234375 -1.421875 26.90625 -1.421875 
Q 22.3125 -1.421875 17.546875 -0.640625 
Q 12.796875 0.140625 7.71875 1.703125 
L 7.71875 11.625 
Q 12.109375 9.234375 16.796875 8.0625 
Q 21.484375 6.890625 26.703125 6.890625 
Q 35.15625 6.890625 40.078125 11.328125 
Q 45.015625 15.765625 45.015625 23.390625 
Q 45.015625 31 40.078125 35.4375 
Q 35.15625 39.890625 26.703125 39.890625 
Q 22.75 39.890625 18.8125 39.015625 
Q 14.890625 38.140625 10.796875 36.28125 
z
" id="DejaVuSans-35"/>
      </defs>
      <g transform="translate(334.870644 322.182437)scale(0.1 -0.1)">
       <use xlink:href="#DejaVuSans-35"/>
       <use x="63.623047" xlink:href="#DejaVuSans-30"/>
       <use x="127.246094" xlink:href="#DejaVuSans-30"/>
      </g>
     </g>
    </g>
    <g id="xtick_7">
     <g id="line2d_7">
      <g>
       <use style="stroke:#000000;stroke-width:0.8;" x="398.530727" xlink:href="#m1fb4bde11b" y="307.584"/>
      </g>
     </g>
     <g id="text_7">
      <!-- 600 -->
      <defs>
       <path d="M 33.015625 40.375 
Q 26.375 40.375 22.484375 35.828125 
Q 18.609375 31.296875 18.609375 23.390625 
Q 18.609375 15.53125 22.484375 10.953125 
Q 26.375 6.390625 33.015625 6.390625 
Q 39.65625 6.390625 43.53125 10.953125 
Q 47.40625 15.53125 47.40625 23.390625 
Q 47.40625 31.296875 43.53125 35.828125 
Q 39.65625 40.375 33.015625 40.375 
z
M 52.59375 71.296875 
L 52.59375 62.3125 
Q 48.875 64.0625 45.09375 64.984375 
Q 41.3125 65.921875 37.59375 65.921875 
Q 27.828125 65.921875 22.671875 59.328125 
Q 17.53125 52.734375 16.796875 39.40625 
Q 19.671875 43.65625 24.015625 45.921875 
Q 28.375 48.1875 33.59375 48.1875 
Q 44.578125 48.1875 50.953125 41.515625 
Q 57.328125 34.859375 57.328125 23.390625 
Q 57.328125 12.15625 50.6875 5.359375 
Q 44.046875 -1.421875 33.015625 -1.421875 
Q 20.359375 -1.421875 13.671875 8.265625 
Q 6.984375 17.96875 6.984375 36.375 
Q 6.984375 53.65625 15.1875 63.9375 
Q 23.390625 74.21875 37.203125 74.21875 
Q 40.921875 74.21875 44.703125 73.484375 
Q 48.484375 72.75 52.59375 71.296875 
z
" id="DejaVuSans-36"/>
      </defs>
      <g transform="translate(388.986977 322.182437)scale(0.1 -0.1)">
       <use xlink:href="#DejaVuSans-36"/>
       <use x="63.623047" xlink:href="#DejaVuSans-30"/>
       <use x="127.246094" xlink:href="#DejaVuSans-30"/>
      </g>
     </g>
    </g>
    <g id="text_8">
     <!-- t(s) -->
     <defs>
      <path d="M 18.3125 70.21875 
L 18.3125 54.6875 
L 36.8125 54.6875 
L 36.8125 47.703125 
L 18.3125 47.703125 
L 18.3125 18.015625 
Q 18.3125 11.328125 20.140625 9.421875 
Q 21.96875 7.515625 27.59375 7.515625 
L 36.8125 7.515625 
L 36.8125 0 
L 27.59375 0 
Q 17.1875 0 13.234375 3.875 
Q 9.28125 7.765625 9.28125 18.015625 
L 9.28125 47.703125 
L 2.6875 47.703125 
L 2.6875 54.6875 
L 9.28125 54.6875 
L 9.28125 70.21875 
z
" id="DejaVuSans-74"/>
      <path d="M 31 75.875 
Q 24.46875 64.65625 21.28125 53.65625 
Q 18.109375 42.671875 18.109375 31.390625 
Q 18.109375 20.125 21.3125 9.0625 
Q 24.515625 -2 31 -13.1875 
L 23.1875 -13.1875 
Q 15.875 -1.703125 12.234375 9.375 
Q 8.59375 20.453125 8.59375 31.390625 
Q 8.59375 42.28125 12.203125 53.3125 
Q 15.828125 64.359375 23.1875 75.875 
z
" id="DejaVuSans-28"/>
      <path d="M 44.28125 53.078125 
L 44.28125 44.578125 
Q 40.484375 46.53125 36.375 47.5 
Q 32.28125 48.484375 27.875 48.484375 
Q 21.1875 48.484375 17.84375 46.4375 
Q 14.5 44.390625 14.5 40.28125 
Q 14.5 37.15625 16.890625 35.375 
Q 19.28125 33.59375 26.515625 31.984375 
L 29.59375 31.296875 
Q 39.15625 29.25 43.1875 25.515625 
Q 47.21875 21.78125 47.21875 15.09375 
Q 47.21875 7.46875 41.1875 3.015625 
Q 35.15625 -1.421875 24.609375 -1.421875 
Q 20.21875 -1.421875 15.453125 -0.5625 
Q 10.6875 0.296875 5.421875 2 
L 5.421875 11.28125 
Q 10.40625 8.6875 15.234375 7.390625 
Q 20.0625 6.109375 24.8125 6.109375 
Q 31.15625 6.109375 34.5625 8.28125 
Q 37.984375 10.453125 37.984375 14.40625 
Q 37.984375 18.0625 35.515625 20.015625 
Q 33.0625 21.96875 24.703125 23.78125 
L 21.578125 24.515625 
Q 13.234375 26.265625 9.515625 29.90625 
Q 5.8125 33.546875 5.8125 39.890625 
Q 5.8125 47.609375 11.28125 51.796875 
Q 16.75 56 26.8125 56 
Q 31.78125 56 36.171875 55.265625 
Q 40.578125 54.546875 44.28125 53.078125 
z
" id="DejaVuSans-73"/>
      <path d="M 8.015625 75.875 
L 15.828125 75.875 
Q 23.140625 64.359375 26.78125 53.3125 
Q 30.421875 42.28125 30.421875 31.390625 
Q 30.421875 20.453125 26.78125 9.375 
Q 23.140625 -1.703125 15.828125 -13.1875 
L 8.015625 -13.1875 
Q 14.5 -2 17.703125 9.0625 
Q 20.90625 20.125 20.90625 31.390625 
Q 20.90625 42.671875 17.703125 53.65625 
Q 14.5 64.65625 8.015625 75.875 
z
" id="DejaVuSans-29"/>
     </defs>
     <g transform="translate(227.693594 335.860562)scale(0.1 -0.1)">
      <use xlink:href="#DejaVuSans-74"/>
      <use x="39.208984" xlink:href="#DejaVuSans-28"/>
      <use x="78.222656" xlink:href="#DejaVuSans-73"/>
      <use x="130.322266" xlink:href="#DejaVuSans-29"/>
     </g>
    </g>
   </g>
   <g id="matplotlib.axis_2">
    <g id="ytick_1">
     <g id="line2d_8">
      <defs>
       <path d="M 0 0 
L -3.5 0 
" id="mb84f4e1609" style="stroke:#000000;stroke-width:0.8;"/>
      </defs>
      <g>
       <use style="stroke:#000000;stroke-width:0.8;" x="57.6" xlink:href="#mb84f4e1609" y="262.099006"/>
      </g>
     </g>
     <g id="text_9">
      <!-- 1 -->
      <g transform="translate(44.2375 265.898225)scale(0.1 -0.1)">
       <use xlink:href="#DejaVuSans-31"/>
      </g>
     </g>
    </g>
    <g id="ytick_2">
     <g id="line2d_9">
      <g>
       <use style="stroke:#000000;stroke-width:0.8;" x="57.6" xlink:href="#mb84f4e1609" y="211.804294"/>
      </g>
     </g>
     <g id="text_10">
      <!-- 2 -->
      <g transform="translate(44.2375 215.603513)scale(0.1 -0.1)">
       <use xlink:href="#DejaVuSans-32"/>
      </g>
     </g>
    </g>
    <g id="ytick_3">
     <g id="line2d_10">
      <g>
       <use style="stroke:#000000;stroke-width:0.8;" x="57.6" xlink:href="#mb84f4e1609" y="161.509583"/>
      </g>
     </g>
     <g id="text_11">
      <!-- 3 -->
      <g transform="translate(44.2375 165.308801)scale(0.1 -0.1)">
       <use xlink:href="#DejaVuSans-33"/>
      </g>
     </g>
    </g>
    <g id="ytick_4">
     <g id="line2d_11">
      <g>
       <use style="stroke:#000000;stroke-width:0.8;" x="57.6" xlink:href="#mb84f4e1609" y="111.214871"/>
      </g>
     </g>
     <g id="text_12">
      <!-- 4 -->
      <g transform="translate(44.2375 115.01409)scale(0.1 -0.1)">
       <use xlink:href="#DejaVuSans-34"/>
      </g>
     </g>
    </g>
    <g id="ytick_5">
     <g id="line2d_12">
      <g>
       <use style="stroke:#000000;stroke-width:0.8;" x="57.6" xlink:href="#mb84f4e1609" y="60.920159"/>
      </g>
     </g>
     <g id="text_13">
      <!-- 5 -->
      <g transform="translate(44.2375 64.719378)scale(0.1 -0.1)">
       <use xlink:href="#DejaVuSans-35"/>
      </g>
     </g>
    </g>
    <g id="text_14">
     <!-- Resistance (Ohm) -->
     <defs>
      <path d="M 44.390625 34.1875 
Q 47.5625 33.109375 50.5625 29.59375 
Q 53.5625 26.078125 56.59375 19.921875 
L 66.609375 0 
L 56 0 
L 46.6875 18.703125 
Q 43.0625 26.03125 39.671875 28.421875 
Q 36.28125 30.8125 30.421875 30.8125 
L 19.671875 30.8125 
L 19.671875 0 
L 9.8125 0 
L 9.8125 72.90625 
L 32.078125 72.90625 
Q 44.578125 72.90625 50.734375 67.671875 
Q 56.890625 62.453125 56.890625 51.90625 
Q 56.890625 45.015625 53.6875 40.46875 
Q 50.484375 35.9375 44.390625 34.1875 
z
M 19.671875 64.796875 
L 19.671875 38.921875 
L 32.078125 38.921875 
Q 39.203125 38.921875 42.84375 42.21875 
Q 46.484375 45.515625 46.484375 51.90625 
Q 46.484375 58.296875 42.84375 61.546875 
Q 39.203125 64.796875 32.078125 64.796875 
z
" id="DejaVuSans-52"/>
      <path d="M 56.203125 29.59375 
L 56.203125 25.203125 
L 14.890625 25.203125 
Q 15.484375 15.921875 20.484375 11.0625 
Q 25.484375 6.203125 34.421875 6.203125 
Q 39.59375 6.203125 44.453125 7.46875 
Q 49.3125 8.734375 54.109375 11.28125 
L 54.109375 2.78125 
Q 49.265625 0.734375 44.1875 -0.34375 
Q 39.109375 -1.421875 33.890625 -1.421875 
Q 20.796875 -1.421875 13.15625 6.1875 
Q 5.515625 13.8125 5.515625 26.8125 
Q 5.515625 40.234375 12.765625 48.109375 
Q 20.015625 56 32.328125 56 
Q 43.359375 56 49.78125 48.890625 
Q 56.203125 41.796875 56.203125 29.59375 
z
M 47.21875 32.234375 
Q 47.125 39.59375 43.09375 43.984375 
Q 39.0625 48.390625 32.421875 48.390625 
Q 24.90625 48.390625 20.390625 44.140625 
Q 15.875 39.890625 15.1875 32.171875 
z
" id="DejaVuSans-65"/>
      <path d="M 9.421875 54.6875 
L 18.40625 54.6875 
L 18.40625 0 
L 9.421875 0 
z
M 9.421875 75.984375 
L 18.40625 75.984375 
L 18.40625 64.59375 
L 9.421875 64.59375 
z
" id="DejaVuSans-69"/>
      <path d="M 34.28125 27.484375 
Q 23.390625 27.484375 19.1875 25 
Q 14.984375 22.515625 14.984375 16.5 
Q 14.984375 11.71875 18.140625 8.90625 
Q 21.296875 6.109375 26.703125 6.109375 
Q 34.1875 6.109375 38.703125 11.40625 
Q 43.21875 16.703125 43.21875 25.484375 
L 43.21875 27.484375 
z
M 52.203125 31.203125 
L 52.203125 0 
L 43.21875 0 
L 43.21875 8.296875 
Q 40.140625 3.328125 35.546875 0.953125 
Q 30.953125 -1.421875 24.3125 -1.421875 
Q 15.921875 -1.421875 10.953125 3.296875 
Q 6 8.015625 6 15.921875 
Q 6 25.140625 12.171875 29.828125 
Q 18.359375 34.515625 30.609375 34.515625 
L 43.21875 34.515625 
L 43.21875 35.40625 
Q 43.21875 41.609375 39.140625 45 
Q 35.0625 48.390625 27.6875 48.390625 
Q 23 48.390625 18.546875 47.265625 
Q 14.109375 46.140625 10.015625 43.890625 
L 10.015625 52.203125 
Q 14.9375 54.109375 19.578125 55.046875 
Q 24.21875 56 28.609375 56 
Q 40.484375 56 46.34375 49.84375 
Q 52.203125 43.703125 52.203125 31.203125 
z
" id="DejaVuSans-61"/>
      <path d="M 54.890625 33.015625 
L 54.890625 0 
L 45.90625 0 
L 45.90625 32.71875 
Q 45.90625 40.484375 42.875 44.328125 
Q 39.84375 48.1875 33.796875 48.1875 
Q 26.515625 48.1875 22.3125 43.546875 
Q 18.109375 38.921875 18.109375 30.90625 
L 18.109375 0 
L 9.078125 0 
L 9.078125 54.6875 
L 18.109375 54.6875 
L 18.109375 46.1875 
Q 21.34375 51.125 25.703125 53.5625 
Q 30.078125 56 35.796875 56 
Q 45.21875 56 50.046875 50.171875 
Q 54.890625 44.34375 54.890625 33.015625 
z
" id="DejaVuSans-6e"/>
      <path d="M 48.78125 52.59375 
L 48.78125 44.1875 
Q 44.96875 46.296875 41.140625 47.34375 
Q 37.3125 48.390625 33.40625 48.390625 
Q 24.65625 48.390625 19.8125 42.84375 
Q 14.984375 37.3125 14.984375 27.296875 
Q 14.984375 17.28125 19.8125 11.734375 
Q 24.65625 6.203125 33.40625 6.203125 
Q 37.3125 6.203125 41.140625 7.25 
Q 44.96875 8.296875 48.78125 10.40625 
L 48.78125 2.09375 
Q 45.015625 0.34375 40.984375 -0.53125 
Q 36.96875 -1.421875 32.421875 -1.421875 
Q 20.0625 -1.421875 12.78125 6.34375 
Q 5.515625 14.109375 5.515625 27.296875 
Q 5.515625 40.671875 12.859375 48.328125 
Q 20.21875 56 33.015625 56 
Q 37.15625 56 41.109375 55.140625 
Q 45.0625 54.296875 48.78125 52.59375 
z
" id="DejaVuSans-63"/>
      <path id="DejaVuSans-20"/>
      <path d="M 39.40625 66.21875 
Q 28.65625 66.21875 22.328125 58.203125 
Q 16.015625 50.203125 16.015625 36.375 
Q 16.015625 22.609375 22.328125 14.59375 
Q 28.65625 6.59375 39.40625 6.59375 
Q 50.140625 6.59375 56.421875 14.59375 
Q 62.703125 22.609375 62.703125 36.375 
Q 62.703125 50.203125 56.421875 58.203125 
Q 50.140625 66.21875 39.40625 66.21875 
z
M 39.40625 74.21875 
Q 54.734375 74.21875 63.90625 63.9375 
Q 73.09375 53.65625 73.09375 36.375 
Q 73.09375 19.140625 63.90625 8.859375 
Q 54.734375 -1.421875 39.40625 -1.421875 
Q 24.03125 -1.421875 14.8125 8.828125 
Q 5.609375 19.09375 5.609375 36.375 
Q 5.609375 53.65625 14.8125 63.9375 
Q 24.03125 74.21875 39.40625 74.21875 
z
" id="DejaVuSans-4f"/>
      <path d="M 54.890625 33.015625 
L 54.890625 0 
L 45.90625 0 
L 45.90625 32.71875 
Q 45.90625 40.484375 42.875 44.328125 
Q 39.84375 48.1875 33.796875 48.1875 
Q 26.515625 48.1875 22.3125 43.546875 
Q 18.109375 38.921875 18.109375 30.90625 
L 18.109375 0 
L 9.078125 0 
L 9.078125 75.984375 
L 18.109375 75.984375 
L 18.109375 46.1875 
Q 21.34375 51.125 25.703125 53.5625 
Q 30.078125 56 35.796875 56 
Q 45.21875 56 50.046875 50.171875 
Q 54.890625 44.34375 54.890625 33.015625 
z
" id="DejaVuSans-68"/>
      <path d="M 52 44.1875 
Q 55.375 50.25 60.0625 53.125 
Q 64.75 56 71.09375 56 
Q 79.640625 56 84.28125 50.015625 
Q 88.921875 44.046875 88.921875 33.015625 
L 88.921875 0 
L 79.890625 0 
L 79.890625 32.71875 
Q 79.890625 40.578125 77.09375 44.375 
Q 74.3125 48.1875 68.609375 48.1875 
Q 61.625 48.1875 57.5625 43.546875 
Q 53.515625 38.921875 53.515625 30.90625 
L 53.515625 0 
L 44.484375 0 
L 44.484375 32.71875 
Q 44.484375 40.625 41.703125 44.40625 
Q 38.921875 48.1875 33.109375 48.1875 
Q 26.21875 48.1875 22.15625 43.53125 
Q 18.109375 38.875 18.109375 30.90625 
L 18.109375 0 
L 9.078125 0 
L 9.078125 54.6875 
L 18.109375 54.6875 
L 18.109375 46.1875 
Q 21.1875 51.21875 25.484375 53.609375 
Q 29.78125 56 35.6875 56 
Q 41.65625 56 45.828125 52.96875 
Q 50 49.953125 52 44.1875 
z
" id="DejaVuSans-6d"/>
     </defs>
     <g transform="translate(38.157812 219.158469)rotate(-90)scale(0.1 -0.1)">
      <use xlink:href="#DejaVuSans-52"/>
      <use x="69.419922" xlink:href="#DejaVuSans-65"/>
      <use x="130.943359" xlink:href="#DejaVuSans-73"/>
      <use x="183.042969" xlink:href="#DejaVuSans-69"/>
      <use x="210.826172" xlink:href="#DejaVuSans-73"/>
      <use x="262.925781" xlink:href="#DejaVuSans-74"/>
      <use x="302.134766" xlink:href="#DejaVuSans-61"/>
      <use x="363.414062" xlink:href="#DejaVuSans-6e"/>
      <use x="426.792969" xlink:href="#DejaVuSans-63"/>
      <use x="481.773438" xlink:href="#DejaVuSans-65"/>
      <use x="543.296875" xlink:href="#DejaVuSans-20"/>
      <use x="575.083984" xlink:href="#DejaVuSans-28"/>
      <use x="614.097656" xlink:href="#DejaVuSans-4f"/>
      <use x="692.808594" xlink:href="#DejaVuSans-68"/>
      <use x="756.1875" xlink:href="#DejaVuSans-6d"/>
      <use x="853.599609" xlink:href="#DejaVuSans-29"/>
     </g>
    </g>
    <g id="text_15">
     <!-- 1e7 -->
     <defs>
      <path d="M 8.203125 72.90625 
L 55.078125 72.90625 
L 55.078125 68.703125 
L 28.609375 0 
L 18.3125 0 
L 43.21875 64.59375 
L 8.203125 64.59375 
z
" id="DejaVuSans-37"/>
     </defs>
     <g transform="translate(57.6 38.472)scale(0.1 -0.1)">
      <use xlink:href="#DejaVuSans-31"/>
      <use x="63.623047" xlink:href="#DejaVuSans-65"/>
      <use x="125.146484" xlink:href="#DejaVuSans-37"/>
     </g>
    </g>
   </g>
   <g id="line2d_13">
    <path clip-path="url(#p90259c7c1b)" d="M 73.832727 281.998411 
L 74.373834 295.488 
L 74.914401 270.596614 
L 75.995535 56.000938 
L 76.536102 55.520285 
L 77.076669 54.630227 
L 77.617236 54.923363 
L 78.157803 55.998118 
L 78.69837 55.98556 
L 79.238936 56.198129 
L 79.779503 56.137716 
L 80.32007 56.454523 
L 80.860637 56.340068 
L 81.401204 56.349775 
L 81.941771 55.920439 
L 83.022905 56.687466 
L 83.563472 56.986639 
L 84.104039 56.425401 
L 84.644606 56.141559 
L 85.185173 56.260822 
L 85.72574 57.039785 
L 86.266306 56.206311 
L 86.806873 56.912116 
L 87.34744 56.919728 
L 87.888007 56.15359 
L 88.428574 55.894279 
L 88.969141 56.256705 
L 89.509708 56.896838 
L 90.050275 56.90905 
L 90.590842 56.266932 
L 91.131409 55.801394 
L 91.671976 56.613788 
L 92.212543 55.686603 
L 93.293676 56.245197 
L 93.834243 57.361453 
L 94.37481 56.507121 
L 94.915377 57.127954 
L 95.455944 56.322422 
L 96.537078 56.161776 
L 97.077645 55.98556 
L 98.158779 55.89274 
L 99.239913 56.270773 
L 99.78048 56.131065 
L 100.321046 56.345678 
L 100.861613 56.298905 
L 101.40218 56.497173 
L 101.942747 56.986383 
L 102.483314 56.739713 
L 103.023881 57.246288 
L 103.564448 57.37617 
L 104.105015 57.182063 
L 104.645582 56.392458 
L 105.726715 56.316789 
L 106.267282 55.73849 
L 106.807849 55.592541 
L 107.348416 55.867857 
L 107.888983 55.172008 
L 108.42955 55.46238 
L 108.970117 56.006317 
L 109.510684 56.125427 
L 110.591818 56.989903 
L 111.132385 57.514504 
L 111.672952 57.840569 
L 112.213519 56.895305 
L 112.754085 57.334566 
L 113.294652 56.667089 
L 113.835219 56.481081 
L 114.375786 55.929927 
L 114.916353 56.141047 
L 115.45692 55.85272 
L 115.997487 55.762372 
L 116.538054 55.459811 
L 117.078621 55.5514 
L 117.619188 56.033479 
L 118.159755 55.952745 
L 118.700322 56.743804 
L 119.240889 55.424282 
L 119.781455 57.256169 
L 120.322022 57.633501 
L 120.862589 57.78877 
L 121.403156 57.518072 
L 121.943723 56.922283 
L 122.48429 55.947107 
L 123.024857 55.655261 
L 123.565424 54.943752 
L 124.105991 55.552941 
L 124.646558 55.985816 
L 125.187125 54.565705 
L 126.268258 56.154885 
L 126.808825 56.693348 
L 127.349392 56.400624 
L 127.889959 56.84031 
L 128.430526 56.453244 
L 128.971093 57.195778 
L 129.51166 56.388873 
L 130.052227 56.738691 
L 130.592794 56.689768 
L 131.133361 56.006323 
L 131.673928 56.024257 
L 132.214495 55.292921 
L 132.755061 55.80165 
L 133.295628 55.698165 
L 133.836195 54.94689 
L 134.376762 55.081434 
L 134.917329 55.910951 
L 135.457896 56.097526 
L 135.998463 56.824306 
L 136.53903 57.111424 
L 137.079597 56.676255 
L 137.620164 57.710395 
L 138.701297 56.522442 
L 139.241864 56.209898 
L 139.782431 56.352079 
L 140.322998 56.025026 
L 140.863565 56.181234 
L 141.404132 55.582253 
L 141.944699 55.971718 
L 142.485266 55.735667 
L 143.025833 56.245966 
L 143.5664 55.987354 
L 144.106967 56.609184 
L 144.647534 56.32191 
L 145.188101 56.454267 
L 145.728667 56.014778 
L 146.269234 56.633152 
L 146.809801 56.519116 
L 147.890935 56.662486 
L 148.431502 57.504901 
L 148.972069 56.633408 
L 149.512636 54.999849 
L 150.053203 55.868114 
L 150.59377 55.438953 
L 151.134337 55.394166 
L 151.674903 53.568 
L 152.756037 55.546777 
L 154.377738 57.296267 
L 154.918305 57.413936 
L 155.999439 58.148891 
L 157.080573 56.084711 
L 157.62114 55.855799 
L 158.161706 55.199859 
L 158.702273 55.277206 
L 159.24284 55.04039 
L 159.783407 54.022658 
L 160.323974 54.764068 
L 161.405108 56.889684 
L 162.486242 57.182063 
L 163.026809 57.127954 
L 164.107943 58.457989 
L 164.64851 56.961462 
L 165.189076 55.800624 
L 165.729643 55.027221 
L 166.27021 54.709981 
L 166.810777 54.52682 
L 167.351344 54.036964 
L 168.973045 56.964272 
L 169.513612 57.103827 
L 170.054179 57.542118 
L 170.594746 58.752279 
L 171.675879 56.690279 
L 172.216446 55.932748 
L 173.838147 55.737463 
L 174.378714 54.592394 
L 174.919281 56.182259 
L 176.000415 56.25773 
L 176.540982 56.358969 
L 177.081549 56.776437 
L 177.622116 56.673954 
L 178.162682 56.818172 
L 178.703249 57.813526 
L 179.243816 56.89786 
L 179.784383 56.833458 
L 180.32495 56.256193 
L 181.406084 55.453365 
L 181.946651 55.303749 
L 182.487218 54.130864 
L 183.027785 54.064279 
L 184.108918 56.384265 
L 184.649485 56.785293 
L 185.190052 57.441316 
L 185.730619 57.68358 
L 186.271186 58.890119 
L 186.811753 58.187442 
L 187.892887 55.633925 
L 188.433454 55.407298 
L 188.974021 55.394937 
L 189.514588 55.879914 
L 190.055155 54.644468 
L 190.595722 55.394423 
L 191.136502 54.946632 
L 191.677827 56.377659 
L 192.760478 56.337764 
L 193.301803 57.152586 
L 193.843129 57.129996 
L 194.384454 56.716021 
L 194.925779 57.167325 
L 196.00843 56.357688 
L 196.549755 56.331618 
L 197.09108 55.931722 
L 197.632406 56.111857 
L 198.173731 54.564673 
L 198.715056 55.750303 
L 199.256382 55.251172 
L 199.797707 56.049365 
L 200.339032 56.098541 
L 200.880358 56.672931 
L 201.421683 56.120815 
L 201.963008 56.846699 
L 202.504333 56.37021 
L 203.045659 55.592027 
L 203.586984 56.40344 
L 204.128309 56.37789 
L 204.669635 55.33003 
L 205.21096 55.21404 
L 205.752285 55.984534 
L 206.293611 55.743366 
L 206.834936 56.245966 
L 207.376261 56.417748 
L 207.917586 56.730041 
L 208.458912 56.679324 
L 209.000237 57.154118 
L 210.082888 57.038764 
L 210.624213 56.805439 
L 211.165538 57.063925 
L 212.248189 56.701489 
L 212.789514 56.153077 
L 213.33084 56.416213 
L 214.41349 56.090606 
L 214.954815 56.101104 
L 215.496141 56.42796 
L 216.037466 56.454267 
L 216.578791 57.349541 
L 217.120117 57.287664 
L 217.661442 57.022223 
L 218.202767 56.105973 
L 218.744093 55.639317 
L 219.826743 55.447455 
L 220.368068 54.790974 
L 220.909394 55.553969 
L 221.450719 55.720002 
L 221.992044 56.124402 
L 222.53337 56.258754 
L 224.157346 57.85167 
L 224.698671 57.775117 
L 225.239996 57.259741 
L 225.781322 56.936791 
L 227.405297 55.252233 
L 227.946623 55.635723 
L 228.487948 54.844255 
L 229.029273 55.209153 
L 229.570599 55.095369 
L 230.111924 55.856055 
L 231.194575 56.263365 
L 231.7359 56.156409 
L 232.277225 56.209385 
L 232.81855 56.792195 
L 233.359876 56.009906 
L 233.901201 56.10136 
L 234.442526 55.709469 
L 234.983852 56.425145 
L 236.066502 56.070889 
L 236.607828 56.620657 
L 237.149153 56.483354 
L 238.773129 57.076376 
L 239.314454 56.908028 
L 239.855779 56.271029 
L 240.397105 56.947467 
L 240.93843 56.141303 
L 241.479755 56.372002 
L 242.021081 56.277433 
L 242.562406 56.446361 
L 243.645057 55.542393 
L 244.186382 56.15154 
L 244.727707 55.330287 
L 245.269033 55.564773 
L 245.810358 56.440986 
L 246.351683 55.750817 
L 246.893008 56.359225 
L 247.434334 56.088043 
L 247.975659 55.993759 
L 249.05831 56.291478 
L 249.599635 56.244429 
L 250.14096 56.362041 
L 250.682285 55.249886 
L 251.223611 55.907103 
L 251.764936 56.309896 
L 252.306261 55.957361 
L 253.930237 56.21731 
L 254.471563 56.405488 
L 255.012888 57.308949 
L 255.554213 56.062943 
L 256.095539 55.540338 
L 256.636864 55.750303 
L 257.178189 55.512816 
L 257.719514 55.802933 
L 258.26084 55.954028 
L 260.426141 57.202092 
L 260.967466 56.790661 
L 261.508792 56.532645 
L 262.050117 58.239333 
L 262.591442 56.985617 
L 263.132767 57.853961 
L 263.674093 56.793728 
L 264.215959 56.512751 
L 264.757284 56.68137 
L 265.298609 56.104948 
L 265.839935 56.39704 
L 266.38126 55.696625 
L 266.922586 56.232663 
L 267.463911 56.544637 
L 268.005236 56.049878 
L 268.546561 55.094083 
L 269.087887 56.375586 
L 269.629212 56.481849 
L 270.170537 56.415701 
L 270.711863 56.230102 
L 271.253188 56.495637 
L 271.794513 56.267188 
L 272.877164 56.271798 
L 273.418489 56.37533 
L 273.959815 56.974434 
L 274.50114 55.589973 
L 275.042465 56.089324 
L 275.58379 56.283816 
L 277.207766 57.560043 
L 277.749092 57.103827 
L 278.290417 57.219632 
L 278.831742 57.479063 
L 279.373067 57.168601 
L 279.914393 57.45424 
L 280.455718 56.319371 
L 281.538369 56.433335 
L 282.621019 55.822955 
L 283.70367 56.325239 
L 284.78632 56.479801 
L 285.327646 56.185846 
L 285.868971 56.356664 
L 286.410296 56.300186 
L 286.951622 56.45785 
L 287.492947 56.350287 
L 288.034272 57.477024 
L 288.575598 56.714487 
L 289.116923 56.452988 
L 290.199574 56.744826 
L 290.740899 56.397066 
L 291.282224 55.208381 
L 291.823549 55.917618 
L 292.364875 55.800367 
L 292.9062 55.802677 
L 293.447525 54.880983 
L 294.530176 55.751586 
L 295.612827 56.780227 
L 296.154152 56.825791 
L 296.695477 57.478043 
L 297.236803 57.284093 
L 297.778128 58.532607 
L 298.319453 57.892093 
L 298.860778 56.617332 
L 299.402104 56.632896 
L 299.943429 56.317557 
L 300.484754 55.474734 
L 301.02608 55.26509 
L 301.567405 55.5658 
L 302.10873 55.209667 
L 302.650055 56.623471 
L 303.191381 56.452476 
L 303.732706 56.451708 
L 304.274031 56.620183 
L 304.815357 56.484408 
L 305.356682 56.210922 
L 305.898007 57.011555 
L 306.439333 56.193517 
L 306.980658 57.013598 
L 308.063308 56.255681 
L 308.604634 56.333667 
L 309.145959 56.261572 
L 309.687284 56.519404 
L 310.769935 56.631873 
L 311.31126 56.324727 
L 311.852586 56.324471 
L 312.393911 56.843377 
L 312.935236 55.906077 
L 313.476562 55.671703 
L 314.017887 56.521163 
L 314.559212 56.093425 
L 316.183188 57.396673 
L 316.724513 57.091889 
L 317.265839 57.467417 
L 318.348489 57.076121 
L 318.889815 56.363833 
L 319.972465 56.035024 
L 320.513791 55.602827 
L 321.055116 55.500723 
L 321.596441 55.000106 
L 322.137766 55.001393 
L 322.679092 56.20836 
L 323.220417 56.37021 
L 323.761742 57.327243 
L 324.844393 57.384255 
L 325.385718 59.21143 
L 325.927044 58.021065 
L 326.468369 56.516813 
L 327.009694 56.547963 
L 327.551019 55.242653 
L 328.092345 55.663744 
L 328.63367 55.553455 
L 329.174995 54.842967 
L 330.257646 55.432786 
L 330.798971 56.301978 
L 331.340296 56.37661 
L 331.881622 56.739713 
L 332.422947 56.453244 
L 332.964273 57.440297 
L 333.505598 58.121403 
L 334.046923 58.200544 
L 335.129574 56.62727 
L 336.75355 55.11912 
L 337.294875 53.955242 
L 337.8362 54.118376 
L 338.377525 56.106229 
L 338.918851 55.787538 
L 339.460176 57.210513 
L 340.001502 57.648698 
L 340.542827 57.517563 
L 341.625477 57.710395 
L 342.166803 56.846699 
L 342.708128 56.348239 
L 343.249453 56.423097 
L 344.873429 56.102129 
L 345.414754 55.264061 
L 345.95608 55.013536 
L 346.497405 55.869396 
L 347.580056 56.757565 
L 348.121381 56.641848 
L 348.662706 57.474474 
L 349.204032 57.064691 
L 349.745357 57.491727 
L 350.286682 58.355124 
L 350.828007 56.738435 
L 351.369333 56.787083 
L 351.910658 55.74979 
L 352.993309 56.187624 
L 353.534792 55.512816 
L 354.076388 55.146467 
L 354.617984 56.583164 
L 355.15958 56.068069 
L 355.701176 56.45913 
L 356.242773 56.651784 
L 357.325965 57.244502 
L 357.867561 57.815309 
L 358.409157 57.259741 
L 358.950753 57.736695 
L 359.492349 57.412916 
L 360.575542 56.081635 
L 361.658734 55.658855 
L 362.20033 54.406743 
L 362.741927 55.316376 
L 363.283523 54.923106 
L 363.825119 56.156152 
L 364.366715 56.577316 
L 364.908311 56.60637 
L 365.449907 57.078418 
L 365.991503 57.207451 
L 366.533099 57.80013 
L 367.074696 58.904163 
L 367.616292 57.062648 
L 368.157888 56.622703 
L 369.24108 56.118776 
L 369.782676 55.242653 
L 370.324273 54.803653 
L 370.865869 54.089264 
L 371.407465 54.972986 
L 371.949061 56.071905 
L 372.490657 56.848232 
L 373.032253 57.264519 
L 373.57385 57.445141 
L 374.115446 57.748824 
L 374.657042 58.339751 
L 375.198638 57.502861 
L 375.740234 57.207451 
L 377.365023 55.800111 
L 377.906619 55.94762 
L 378.448215 54.933196 
L 378.989811 55.618249 
L 379.531407 55.33003 
L 380.073003 56.318837 
L 380.6146 56.56299 
L 381.156196 56.424889 
L 381.697792 56.776648 
L 382.239388 56.803395 
L 382.780984 57.026309 
L 383.32258 56.063199 
L 384.405773 56.700978 
L 384.947369 56.297113 
L 386.030561 56.50098 
L 387.113753 57.00063 
L 387.65535 56.321398 
L 388.196946 57.012576 
L 390.36333 57.219122 
L 390.904927 56.765445 
L 391.446523 56.486681 
L 391.988119 56.644623 
L 392.529715 56.202228 
L 393.071311 56.561489 
L 393.612907 57.696734 
L 394.154503 56.637244 
L 394.6961 57.336352 
L 395.237696 56.740225 
L 395.779292 57.697243 
L 396.320888 56.696886 
L 396.862484 56.60944 
L 397.40408 56.864233 
L 397.945677 56.657115 
L 398.487273 56.880025 
L 398.487273 56.880025 
" style="fill:none;stroke:#1f77b4;stroke-linecap:square;stroke-width:1.5;"/>
   </g>
   <g id="patch_3">
    <path d="M 57.6 307.584 
L 57.6 41.472 
" style="fill:none;stroke:#000000;stroke-linecap:square;stroke-linejoin:miter;stroke-width:0.8;"/>
   </g>
   <g id="patch_4">
    <path d="M 414.72 307.584 
L 414.72 41.472 
" style="fill:none;stroke:#000000;stroke-linecap:square;stroke-linejoin:miter;stroke-width:0.8;"/>
   </g>
   <g id="patch_5">
    <path d="M 57.6 307.584 
L 414.72 307.584 
" style="fill:none;stroke:#000000;stroke-linecap:square;stroke-linejoin:miter;stroke-width:0.8;"/>
   </g>
   <g id="patch_6">
    <path d="M 57.6 41.472 
L 414.72 41.472 
" style="fill:none;stroke:#000000;stroke-linecap:square;stroke-linejoin:miter;stroke-width:0.8;"/>
   </g>
   <g id="text_16">
    <!-- Resistance with source voltage 100.0 mV -->
    <defs>
     <path d="M 4.203125 54.6875 
L 13.1875 54.6875 
L 24.421875 12.015625 
L 35.59375 54.6875 
L 46.1875 54.6875 
L 57.421875 12.015625 
L 68.609375 54.6875 
L 77.59375 54.6875 
L 63.28125 0 
L 52.6875 0 
L 40.921875 44.828125 
L 29.109375 0 
L 18.5 0 
z
" id="DejaVuSans-77"/>
     <path d="M 30.609375 48.390625 
Q 23.390625 48.390625 19.1875 42.75 
Q 14.984375 37.109375 14.984375 27.296875 
Q 14.984375 17.484375 19.15625 11.84375 
Q 23.34375 6.203125 30.609375 6.203125 
Q 37.796875 6.203125 41.984375 11.859375 
Q 46.1875 17.53125 46.1875 27.296875 
Q 46.1875 37.015625 41.984375 42.703125 
Q 37.796875 48.390625 30.609375 48.390625 
z
M 30.609375 56 
Q 42.328125 56 49.015625 48.375 
Q 55.71875 40.765625 55.71875 27.296875 
Q 55.71875 13.875 49.015625 6.21875 
Q 42.328125 -1.421875 30.609375 -1.421875 
Q 18.84375 -1.421875 12.171875 6.21875 
Q 5.515625 13.875 5.515625 27.296875 
Q 5.515625 40.765625 12.171875 48.375 
Q 18.84375 56 30.609375 56 
z
" id="DejaVuSans-6f"/>
     <path d="M 8.5 21.578125 
L 8.5 54.6875 
L 17.484375 54.6875 
L 17.484375 21.921875 
Q 17.484375 14.15625 20.5 10.265625 
Q 23.53125 6.390625 29.59375 6.390625 
Q 36.859375 6.390625 41.078125 11.03125 
Q 45.3125 15.671875 45.3125 23.6875 
L 45.3125 54.6875 
L 54.296875 54.6875 
L 54.296875 0 
L 45.3125 0 
L 45.3125 8.40625 
Q 42.046875 3.421875 37.71875 1 
Q 33.40625 -1.421875 27.6875 -1.421875 
Q 18.265625 -1.421875 13.375 4.4375 
Q 8.5 10.296875 8.5 21.578125 
z
M 31.109375 56 
z
" id="DejaVuSans-75"/>
     <path d="M 41.109375 46.296875 
Q 39.59375 47.171875 37.8125 47.578125 
Q 36.03125 48 33.890625 48 
Q 26.265625 48 22.1875 43.046875 
Q 18.109375 38.09375 18.109375 28.8125 
L 18.109375 0 
L 9.078125 0 
L 9.078125 54.6875 
L 18.109375 54.6875 
L 18.109375 46.1875 
Q 20.953125 51.171875 25.484375 53.578125 
Q 30.03125 56 36.53125 56 
Q 37.453125 56 38.578125 55.875 
Q 39.703125 55.765625 41.0625 55.515625 
z
" id="DejaVuSans-72"/>
     <path d="M 2.984375 54.6875 
L 12.5 54.6875 
L 29.59375 8.796875 
L 46.6875 54.6875 
L 56.203125 54.6875 
L 35.6875 0 
L 23.484375 0 
z
" id="DejaVuSans-76"/>
     <path d="M 9.421875 75.984375 
L 18.40625 75.984375 
L 18.40625 0 
L 9.421875 0 
z
" id="DejaVuSans-6c"/>
     <path d="M 45.40625 27.984375 
Q 45.40625 37.75 41.375 43.109375 
Q 37.359375 48.484375 30.078125 48.484375 
Q 22.859375 48.484375 18.828125 43.109375 
Q 14.796875 37.75 14.796875 27.984375 
Q 14.796875 18.265625 18.828125 12.890625 
Q 22.859375 7.515625 30.078125 7.515625 
Q 37.359375 7.515625 41.375 12.890625 
Q 45.40625 18.265625 45.40625 27.984375 
z
M 54.390625 6.78125 
Q 54.390625 -7.171875 48.1875 -13.984375 
Q 42 -20.796875 29.203125 -20.796875 
Q 24.46875 -20.796875 20.265625 -20.09375 
Q 16.0625 -19.390625 12.109375 -17.921875 
L 12.109375 -9.1875 
Q 16.0625 -11.328125 19.921875 -12.34375 
Q 23.78125 -13.375 27.78125 -13.375 
Q 36.625 -13.375 41.015625 -8.765625 
Q 45.40625 -4.15625 45.40625 5.171875 
L 45.40625 9.625 
Q 42.625 4.78125 38.28125 2.390625 
Q 33.9375 0 27.875 0 
Q 17.828125 0 11.671875 7.65625 
Q 5.515625 15.328125 5.515625 27.984375 
Q 5.515625 40.671875 11.671875 48.328125 
Q 17.828125 56 27.875 56 
Q 33.9375 56 38.28125 53.609375 
Q 42.625 51.21875 45.40625 46.390625 
L 45.40625 54.6875 
L 54.390625 54.6875 
z
" id="DejaVuSans-67"/>
     <path d="M 10.6875 12.40625 
L 21 12.40625 
L 21 0 
L 10.6875 0 
z
" id="DejaVuSans-2e"/>
     <path d="M 28.609375 0 
L 0.78125 72.90625 
L 11.078125 72.90625 
L 34.1875 11.53125 
L 57.328125 72.90625 
L 67.578125 72.90625 
L 39.796875 0 
z
" id="DejaVuSans-56"/>
    </defs>
    <g transform="translate(111.699375 35.472)scale(0.12 -0.12)">
     <use xlink:href="#DejaVuSans-52"/>
     <use x="69.419922" xlink:href="#DejaVuSans-65"/>
     <use x="130.943359" xlink:href="#DejaVuSans-73"/>
     <use x="183.042969" xlink:href="#DejaVuSans-69"/>
     <use x="210.826172" xlink:href="#DejaVuSans-73"/>
     <use x="262.925781" xlink:href="#DejaVuSans-74"/>
     <use x="302.134766" xlink:href="#DejaVuSans-61"/>
     <use x="363.414062" xlink:href="#DejaVuSans-6e"/>
     <use x="426.792969" xlink:href="#DejaVuSans-63"/>
     <use x="481.773438" xlink:href="#DejaVuSans-65"/>
     <use x="543.296875" xlink:href="#DejaVuSans-20"/>
     <use x="575.083984" xlink:href="#DejaVuSans-77"/>
     <use x="656.871094" xlink:href="#DejaVuSans-69"/>
     <use x="684.654297" xlink:href="#DejaVuSans-74"/>
     <use x="723.863281" xlink:href="#DejaVuSans-68"/>
     <use x="787.242188" xlink:href="#DejaVuSans-20"/>
     <use x="819.029297" xlink:href="#DejaVuSans-73"/>
     <use x="871.128906" xlink:href="#DejaVuSans-6f"/>
     <use x="932.310547" xlink:href="#DejaVuSans-75"/>
     <use x="995.689453" xlink:href="#DejaVuSans-72"/>
     <use x="1036.771484" xlink:href="#DejaVuSans-63"/>
     <use x="1091.751953" xlink:href="#DejaVuSans-65"/>
     <use x="1153.275391" xlink:href="#DejaVuSans-20"/>
     <use x="1185.0625" xlink:href="#DejaVuSans-76"/>
     <use x="1244.242188" xlink:href="#DejaVuSans-6f"/>
     <use x="1305.423828" xlink:href="#DejaVuSans-6c"/>
     <use x="1333.207031" xlink:href="#DejaVuSans-74"/>
     <use x="1372.416016" xlink:href="#DejaVuSans-61"/>
     <use x="1433.695312" xlink:href="#DejaVuSans-67"/>
     <use x="1497.171875" xlink:href="#DejaVuSans-65"/>
     <use x="1558.695312" xlink:href="#DejaVuSans-20"/>
     <use x="1590.482422" xlink:href="#DejaVuSans-31"/>
     <use x="1654.105469" xlink:href="#DejaVuSans-30"/>
     <use x="1717.728516" xlink:href="#DejaVuSans-30"/>
     <use x="1781.351562" xlink:href="#DejaVuSans-2e"/>
     <use x="1813.138672" xlink:href="#DejaVuSans-30"/>
     <use x="1876.761719" xlink:href="#DejaVuSans-20"/>
     <use x="1908.548828" xlink:href="#DejaVuSans-6d"/>
     <use x="2005.960938" xlink:href="#DejaVuSans-56"/>
    </g>
   </g>
  </g>
 </g>
 <defs>
  <clipPath id="p90259c7c1b">
   <rect height="266.112" width="357.12" x="57.6" y="41.472"/>
  </clipPath>
 </defs>
</svg>
