<?xml version="1.0" encoding="utf-8" standalone="no"?>
<!DOCTYPE svg PUBLIC "-//W3C//DTD SVG 1.1//EN"
  "http://www.w3.org/Graphics/SVG/1.1/DTD/svg11.dtd">
<!-- Created with matplotlib (http://matplotlib.org/) -->
<svg height="345pt" version="1.1" viewBox="0 0 460 345" width="460pt" xmlns="http://www.w3.org/2000/svg" xmlns:xlink="http://www.w3.org/1999/xlink">
 <defs>
  <style type="text/css">
*{stroke-linecap:butt;stroke-linejoin:round;}
  </style>
 </defs>
 <g id="figure_1">
  <g id="patch_1">
   <path d="M 0 345.6 
L 460.8 345.6 
L 460.8 0 
L 0 0 
z
" style="fill:#ffffff;"/>
  </g>
  <g id="axes_1">
   <g id="patch_2">
    <path d="M 57.6 307.584 
L 414.72 307.584 
L 414.72 41.472 
L 57.6 41.472 
z
" style="fill:#ffffff;"/>
   </g>
   <g id="matplotlib.axis_1">
    <g id="xtick_1">
     <g id="line2d_1">
      <path clip-path="url(#p8e4922c25b)" d="M 73.832727 307.584 
L 73.832727 41.472 
" style="fill:none;stroke:#b0b0b0;stroke-linecap:square;stroke-width:0.8;"/>
     </g>
     <g id="line2d_2">
      <defs>
       <path d="M 0 0 
L 0 3.5 
" id="m3e5cd35d82" style="stroke:#000000;stroke-width:0.8;"/>
      </defs>
      <g>
       <use style="stroke:#000000;stroke-width:0.8;" x="73.832727" xlink:href="#m3e5cd35d82" y="307.584"/>
      </g>
     </g>
     <g id="text_1">
      <!-- 0 -->
      <defs>
       <path d="M 31.78125 66.40625 
Q 24.171875 66.40625 20.328125 58.90625 
Q 16.5 51.421875 16.5 36.375 
Q 16.5 21.390625 20.328125 13.890625 
Q 24.171875 6.390625 31.78125 6.390625 
Q 39.453125 6.390625 43.28125 13.890625 
Q 47.125 21.390625 47.125 36.375 
Q 47.125 51.421875 43.28125 58.90625 
Q 39.453125 66.40625 31.78125 66.40625 
z
M 31.78125 74.21875 
Q 44.046875 74.21875 50.515625 64.515625 
Q 56.984375 54.828125 56.984375 36.375 
Q 56.984375 17.96875 50.515625 8.265625 
Q 44.046875 -1.421875 31.78125 -1.421875 
Q 19.53125 -1.421875 13.0625 8.265625 
Q 6.59375 17.96875 6.59375 36.375 
Q 6.59375 54.828125 13.0625 64.515625 
Q 19.53125 74.21875 31.78125 74.21875 
z
" id="DejaVuSans-30"/>
      </defs>
      <g transform="translate(70.651477 322.182437)scale(0.1 -0.1)">
       <use xlink:href="#DejaVuSans-30"/>
      </g>
     </g>
    </g>
    <g id="xtick_2">
     <g id="line2d_3">
      <path clip-path="url(#p8e4922c25b)" d="M 118.903605 307.584 
L 118.903605 41.472 
" style="fill:none;stroke:#b0b0b0;stroke-linecap:square;stroke-width:0.8;"/>
     </g>
     <g id="line2d_4">
      <g>
       <use style="stroke:#000000;stroke-width:0.8;" x="118.903605" xlink:href="#m3e5cd35d82" y="307.584"/>
      </g>
     </g>
     <g id="text_2">
      <!-- 25 -->
      <defs>
       <path d="M 19.1875 8.296875 
L 53.609375 8.296875 
L 53.609375 0 
L 7.328125 0 
L 7.328125 8.296875 
Q 12.9375 14.109375 22.625 23.890625 
Q 32.328125 33.6875 34.8125 36.53125 
Q 39.546875 41.84375 41.421875 45.53125 
Q 43.3125 49.21875 43.3125 52.78125 
Q 43.3125 58.59375 39.234375 62.25 
Q 35.15625 65.921875 28.609375 65.921875 
Q 23.96875 65.921875 18.8125 64.3125 
Q 13.671875 62.703125 7.8125 59.421875 
L 7.8125 69.390625 
Q 13.765625 71.78125 18.9375 73 
Q 24.125 74.21875 28.421875 74.21875 
Q 39.75 74.21875 46.484375 68.546875 
Q 53.21875 62.890625 53.21875 53.421875 
Q 53.21875 48.921875 51.53125 44.890625 
Q 49.859375 40.875 45.40625 35.40625 
Q 44.1875 33.984375 37.640625 27.21875 
Q 31.109375 20.453125 19.1875 8.296875 
z
" id="DejaVuSans-32"/>
       <path d="M 10.796875 72.90625 
L 49.515625 72.90625 
L 49.515625 64.59375 
L 19.828125 64.59375 
L 19.828125 46.734375 
Q 21.96875 47.46875 24.109375 47.828125 
Q 26.265625 48.1875 28.421875 48.1875 
Q 40.625 48.1875 47.75 41.5 
Q 54.890625 34.8125 54.890625 23.390625 
Q 54.890625 11.625 47.5625 5.09375 
Q 40.234375 -1.421875 26.90625 -1.421875 
Q 22.3125 -1.421875 17.546875 -0.640625 
Q 12.796875 0.140625 7.71875 1.703125 
L 7.71875 11.625 
Q 12.109375 9.234375 16.796875 8.0625 
Q 21.484375 6.890625 26.703125 6.890625 
Q 35.15625 6.890625 40.078125 11.328125 
Q 45.015625 15.765625 45.015625 23.390625 
Q 45.015625 31 40.078125 35.4375 
Q 35.15625 39.890625 26.703125 39.890625 
Q 22.75 39.890625 18.8125 39.015625 
Q 14.890625 38.140625 10.796875 36.28125 
z
" id="DejaVuSans-35"/>
      </defs>
      <g transform="translate(112.541105 322.182437)scale(0.1 -0.1)">
       <use xlink:href="#DejaVuSans-32"/>
       <use x="63.623047" xlink:href="#DejaVuSans-35"/>
      </g>
     </g>
    </g>
    <g id="xtick_3">
     <g id="line2d_5">
      <path clip-path="url(#p8e4922c25b)" d="M 163.974482 307.584 
L 163.974482 41.472 
" style="fill:none;stroke:#b0b0b0;stroke-linecap:square;stroke-width:0.8;"/>
     </g>
     <g id="line2d_6">
      <g>
       <use style="stroke:#000000;stroke-width:0.8;" x="163.974482" xlink:href="#m3e5cd35d82" y="307.584"/>
      </g>
     </g>
     <g id="text_3">
      <!-- 50 -->
      <g transform="translate(157.611982 322.182437)scale(0.1 -0.1)">
       <use xlink:href="#DejaVuSans-35"/>
       <use x="63.623047" xlink:href="#DejaVuSans-30"/>
      </g>
     </g>
    </g>
    <g id="xtick_4">
     <g id="line2d_7">
      <path clip-path="url(#p8e4922c25b)" d="M 209.04536 307.584 
L 209.04536 41.472 
" style="fill:none;stroke:#b0b0b0;stroke-linecap:square;stroke-width:0.8;"/>
     </g>
     <g id="line2d_8">
      <g>
       <use style="stroke:#000000;stroke-width:0.8;" x="209.04536" xlink:href="#m3e5cd35d82" y="307.584"/>
      </g>
     </g>
     <g id="text_4">
      <!-- 75 -->
      <defs>
       <path d="M 8.203125 72.90625 
L 55.078125 72.90625 
L 55.078125 68.703125 
L 28.609375 0 
L 18.3125 0 
L 43.21875 64.59375 
L 8.203125 64.59375 
z
" id="DejaVuSans-37"/>
      </defs>
      <g transform="translate(202.68286 322.182437)scale(0.1 -0.1)">
       <use xlink:href="#DejaVuSans-37"/>
       <use x="63.623047" xlink:href="#DejaVuSans-35"/>
      </g>
     </g>
    </g>
    <g id="xtick_5">
     <g id="line2d_9">
      <path clip-path="url(#p8e4922c25b)" d="M 254.116237 307.584 
L 254.116237 41.472 
" style="fill:none;stroke:#b0b0b0;stroke-linecap:square;stroke-width:0.8;"/>
     </g>
     <g id="line2d_10">
      <g>
       <use style="stroke:#000000;stroke-width:0.8;" x="254.116237" xlink:href="#m3e5cd35d82" y="307.584"/>
      </g>
     </g>
     <g id="text_5">
      <!-- 100 -->
      <defs>
       <path d="M 12.40625 8.296875 
L 28.515625 8.296875 
L 28.515625 63.921875 
L 10.984375 60.40625 
L 10.984375 69.390625 
L 28.421875 72.90625 
L 38.28125 72.90625 
L 38.28125 8.296875 
L 54.390625 8.296875 
L 54.390625 0 
L 12.40625 0 
z
" id="DejaVuSans-31"/>
      </defs>
      <g transform="translate(244.572487 322.182437)scale(0.1 -0.1)">
       <use xlink:href="#DejaVuSans-31"/>
       <use x="63.623047" xlink:href="#DejaVuSans-30"/>
       <use x="127.246094" xlink:href="#DejaVuSans-30"/>
      </g>
     </g>
    </g>
    <g id="xtick_6">
     <g id="line2d_11">
      <path clip-path="url(#p8e4922c25b)" d="M 299.187115 307.584 
L 299.187115 41.472 
" style="fill:none;stroke:#b0b0b0;stroke-linecap:square;stroke-width:0.8;"/>
     </g>
     <g id="line2d_12">
      <g>
       <use style="stroke:#000000;stroke-width:0.8;" x="299.187115" xlink:href="#m3e5cd35d82" y="307.584"/>
      </g>
     </g>
     <g id="text_6">
      <!-- 125 -->
      <g transform="translate(289.643365 322.182437)scale(0.1 -0.1)">
       <use xlink:href="#DejaVuSans-31"/>
       <use x="63.623047" xlink:href="#DejaVuSans-32"/>
       <use x="127.246094" xlink:href="#DejaVuSans-35"/>
      </g>
     </g>
    </g>
    <g id="xtick_7">
     <g id="line2d_13">
      <path clip-path="url(#p8e4922c25b)" d="M 344.257993 307.584 
L 344.257993 41.472 
" style="fill:none;stroke:#b0b0b0;stroke-linecap:square;stroke-width:0.8;"/>
     </g>
     <g id="line2d_14">
      <g>
       <use style="stroke:#000000;stroke-width:0.8;" x="344.257993" xlink:href="#m3e5cd35d82" y="307.584"/>
      </g>
     </g>
     <g id="text_7">
      <!-- 150 -->
      <g transform="translate(334.714243 322.182437)scale(0.1 -0.1)">
       <use xlink:href="#DejaVuSans-31"/>
       <use x="63.623047" xlink:href="#DejaVuSans-35"/>
       <use x="127.246094" xlink:href="#DejaVuSans-30"/>
      </g>
     </g>
    </g>
    <g id="xtick_8">
     <g id="line2d_15">
      <path clip-path="url(#p8e4922c25b)" d="M 389.32887 307.584 
L 389.32887 41.472 
" style="fill:none;stroke:#b0b0b0;stroke-linecap:square;stroke-width:0.8;"/>
     </g>
     <g id="line2d_16">
      <g>
       <use style="stroke:#000000;stroke-width:0.8;" x="389.32887" xlink:href="#m3e5cd35d82" y="307.584"/>
      </g>
     </g>
     <g id="text_8">
      <!-- 175 -->
      <g transform="translate(379.78512 322.182437)scale(0.1 -0.1)">
       <use xlink:href="#DejaVuSans-31"/>
       <use x="63.623047" xlink:href="#DejaVuSans-37"/>
       <use x="127.246094" xlink:href="#DejaVuSans-35"/>
      </g>
     </g>
    </g>
    <g id="text_9">
     <!-- t(s) -->
     <defs>
      <path d="M 18.3125 70.21875 
L 18.3125 54.6875 
L 36.8125 54.6875 
L 36.8125 47.703125 
L 18.3125 47.703125 
L 18.3125 18.015625 
Q 18.3125 11.328125 20.140625 9.421875 
Q 21.96875 7.515625 27.59375 7.515625 
L 36.8125 7.515625 
L 36.8125 0 
L 27.59375 0 
Q 17.1875 0 13.234375 3.875 
Q 9.28125 7.765625 9.28125 18.015625 
L 9.28125 47.703125 
L 2.6875 47.703125 
L 2.6875 54.6875 
L 9.28125 54.6875 
L 9.28125 70.21875 
z
" id="DejaVuSans-74"/>
      <path d="M 31 75.875 
Q 24.46875 64.65625 21.28125 53.65625 
Q 18.109375 42.671875 18.109375 31.390625 
Q 18.109375 20.125 21.3125 9.0625 
Q 24.515625 -2 31 -13.1875 
L 23.1875 -13.1875 
Q 15.875 -1.703125 12.234375 9.375 
Q 8.59375 20.453125 8.59375 31.390625 
Q 8.59375 42.28125 12.203125 53.3125 
Q 15.828125 64.359375 23.1875 75.875 
z
" id="DejaVuSans-28"/>
      <path d="M 44.28125 53.078125 
L 44.28125 44.578125 
Q 40.484375 46.53125 36.375 47.5 
Q 32.28125 48.484375 27.875 48.484375 
Q 21.1875 48.484375 17.84375 46.4375 
Q 14.5 44.390625 14.5 40.28125 
Q 14.5 37.15625 16.890625 35.375 
Q 19.28125 33.59375 26.515625 31.984375 
L 29.59375 31.296875 
Q 39.15625 29.25 43.1875 25.515625 
Q 47.21875 21.78125 47.21875 15.09375 
Q 47.21875 7.46875 41.1875 3.015625 
Q 35.15625 -1.421875 24.609375 -1.421875 
Q 20.21875 -1.421875 15.453125 -0.5625 
Q 10.6875 0.296875 5.421875 2 
L 5.421875 11.28125 
Q 10.40625 8.6875 15.234375 7.390625 
Q 20.0625 6.109375 24.8125 6.109375 
Q 31.15625 6.109375 34.5625 8.28125 
Q 37.984375 10.453125 37.984375 14.40625 
Q 37.984375 18.0625 35.515625 20.015625 
Q 33.0625 21.96875 24.703125 23.78125 
L 21.578125 24.515625 
Q 13.234375 26.265625 9.515625 29.90625 
Q 5.8125 33.546875 5.8125 39.890625 
Q 5.8125 47.609375 11.28125 51.796875 
Q 16.75 56 26.8125 56 
Q 31.78125 56 36.171875 55.265625 
Q 40.578125 54.546875 44.28125 53.078125 
z
" id="DejaVuSans-73"/>
      <path d="M 8.015625 75.875 
L 15.828125 75.875 
Q 23.140625 64.359375 26.78125 53.3125 
Q 30.421875 42.28125 30.421875 31.390625 
Q 30.421875 20.453125 26.78125 9.375 
Q 23.140625 -1.703125 15.828125 -13.1875 
L 8.015625 -13.1875 
Q 14.5 -2 17.703125 9.0625 
Q 20.90625 20.125 20.90625 31.390625 
Q 20.90625 42.671875 17.703125 53.65625 
Q 14.5 64.65625 8.015625 75.875 
z
" id="DejaVuSans-29"/>
     </defs>
     <g transform="translate(227.693594 335.860562)scale(0.1 -0.1)">
      <use xlink:href="#DejaVuSans-74"/>
      <use x="39.208984" xlink:href="#DejaVuSans-28"/>
      <use x="78.222656" xlink:href="#DejaVuSans-73"/>
      <use x="130.322266" xlink:href="#DejaVuSans-29"/>
     </g>
    </g>
   </g>
   <g id="matplotlib.axis_2">
    <g id="ytick_1">
     <g id="line2d_17">
      <path clip-path="url(#p8e4922c25b)" d="M 57.6 270.758204 
L 414.72 270.758204 
" style="fill:none;stroke:#b0b0b0;stroke-linecap:square;stroke-width:0.8;"/>
     </g>
     <g id="line2d_18">
      <defs>
       <path d="M 0 0 
L -3.5 0 
" id="m427b2dc413" style="stroke:#000000;stroke-width:0.8;"/>
      </defs>
      <g>
       <use style="stroke:#000000;stroke-width:0.8;" x="57.6" xlink:href="#m427b2dc413" y="270.758204"/>
      </g>
     </g>
     <g id="text_10">
      <!-- 1.244 -->
      <defs>
       <path d="M 10.6875 12.40625 
L 21 12.40625 
L 21 0 
L 10.6875 0 
z
" id="DejaVuSans-2e"/>
       <path d="M 37.796875 64.3125 
L 12.890625 25.390625 
L 37.796875 25.390625 
z
M 35.203125 72.90625 
L 47.609375 72.90625 
L 47.609375 25.390625 
L 58.015625 25.390625 
L 58.015625 17.1875 
L 47.609375 17.1875 
L 47.609375 0 
L 37.796875 0 
L 37.796875 17.1875 
L 4.890625 17.1875 
L 4.890625 26.703125 
z
" id="DejaVuSans-34"/>
      </defs>
      <g transform="translate(21.971875 274.557423)scale(0.1 -0.1)">
       <use xlink:href="#DejaVuSans-31"/>
       <use x="63.623047" xlink:href="#DejaVuSans-2e"/>
       <use x="95.410156" xlink:href="#DejaVuSans-32"/>
       <use x="159.033203" xlink:href="#DejaVuSans-34"/>
       <use x="222.65625" xlink:href="#DejaVuSans-34"/>
      </g>
     </g>
    </g>
    <g id="ytick_2">
     <g id="line2d_19">
      <path clip-path="url(#p8e4922c25b)" d="M 57.6 226.676571 
L 414.72 226.676571 
" style="fill:none;stroke:#b0b0b0;stroke-linecap:square;stroke-width:0.8;"/>
     </g>
     <g id="line2d_20">
      <g>
       <use style="stroke:#000000;stroke-width:0.8;" x="57.6" xlink:href="#m427b2dc413" y="226.676571"/>
      </g>
     </g>
     <g id="text_11">
      <!-- 1.246 -->
      <defs>
       <path d="M 33.015625 40.375 
Q 26.375 40.375 22.484375 35.828125 
Q 18.609375 31.296875 18.609375 23.390625 
Q 18.609375 15.53125 22.484375 10.953125 
Q 26.375 6.390625 33.015625 6.390625 
Q 39.65625 6.390625 43.53125 10.953125 
Q 47.40625 15.53125 47.40625 23.390625 
Q 47.40625 31.296875 43.53125 35.828125 
Q 39.65625 40.375 33.015625 40.375 
z
M 52.59375 71.296875 
L 52.59375 62.3125 
Q 48.875 64.0625 45.09375 64.984375 
Q 41.3125 65.921875 37.59375 65.921875 
Q 27.828125 65.921875 22.671875 59.328125 
Q 17.53125 52.734375 16.796875 39.40625 
Q 19.671875 43.65625 24.015625 45.921875 
Q 28.375 48.1875 33.59375 48.1875 
Q 44.578125 48.1875 50.953125 41.515625 
Q 57.328125 34.859375 57.328125 23.390625 
Q 57.328125 12.15625 50.6875 5.359375 
Q 44.046875 -1.421875 33.015625 -1.421875 
Q 20.359375 -1.421875 13.671875 8.265625 
Q 6.984375 17.96875 6.984375 36.375 
Q 6.984375 53.65625 15.1875 63.9375 
Q 23.390625 74.21875 37.203125 74.21875 
Q 40.921875 74.21875 44.703125 73.484375 
Q 48.484375 72.75 52.59375 71.296875 
z
" id="DejaVuSans-36"/>
      </defs>
      <g transform="translate(21.971875 230.47579)scale(0.1 -0.1)">
       <use xlink:href="#DejaVuSans-31"/>
       <use x="63.623047" xlink:href="#DejaVuSans-2e"/>
       <use x="95.410156" xlink:href="#DejaVuSans-32"/>
       <use x="159.033203" xlink:href="#DejaVuSans-34"/>
       <use x="222.65625" xlink:href="#DejaVuSans-36"/>
      </g>
     </g>
    </g>
    <g id="ytick_3">
     <g id="line2d_21">
      <path clip-path="url(#p8e4922c25b)" d="M 57.6 182.594939 
L 414.72 182.594939 
" style="fill:none;stroke:#b0b0b0;stroke-linecap:square;stroke-width:0.8;"/>
     </g>
     <g id="line2d_22">
      <g>
       <use style="stroke:#000000;stroke-width:0.8;" x="57.6" xlink:href="#m427b2dc413" y="182.594939"/>
      </g>
     </g>
     <g id="text_12">
      <!-- 1.248 -->
      <defs>
       <path d="M 31.78125 34.625 
Q 24.75 34.625 20.71875 30.859375 
Q 16.703125 27.09375 16.703125 20.515625 
Q 16.703125 13.921875 20.71875 10.15625 
Q 24.75 6.390625 31.78125 6.390625 
Q 38.8125 6.390625 42.859375 10.171875 
Q 46.921875 13.96875 46.921875 20.515625 
Q 46.921875 27.09375 42.890625 30.859375 
Q 38.875 34.625 31.78125 34.625 
z
M 21.921875 38.8125 
Q 15.578125 40.375 12.03125 44.71875 
Q 8.5 49.078125 8.5 55.328125 
Q 8.5 64.0625 14.71875 69.140625 
Q 20.953125 74.21875 31.78125 74.21875 
Q 42.671875 74.21875 48.875 69.140625 
Q 55.078125 64.0625 55.078125 55.328125 
Q 55.078125 49.078125 51.53125 44.71875 
Q 48 40.375 41.703125 38.8125 
Q 48.828125 37.15625 52.796875 32.3125 
Q 56.78125 27.484375 56.78125 20.515625 
Q 56.78125 9.90625 50.3125 4.234375 
Q 43.84375 -1.421875 31.78125 -1.421875 
Q 19.734375 -1.421875 13.25 4.234375 
Q 6.78125 9.90625 6.78125 20.515625 
Q 6.78125 27.484375 10.78125 32.3125 
Q 14.796875 37.15625 21.921875 38.8125 
z
M 18.3125 54.390625 
Q 18.3125 48.734375 21.84375 45.5625 
Q 25.390625 42.390625 31.78125 42.390625 
Q 38.140625 42.390625 41.71875 45.5625 
Q 45.3125 48.734375 45.3125 54.390625 
Q 45.3125 60.0625 41.71875 63.234375 
Q 38.140625 66.40625 31.78125 66.40625 
Q 25.390625 66.40625 21.84375 63.234375 
Q 18.3125 60.0625 18.3125 54.390625 
z
" id="DejaVuSans-38"/>
      </defs>
      <g transform="translate(21.971875 186.394158)scale(0.1 -0.1)">
       <use xlink:href="#DejaVuSans-31"/>
       <use x="63.623047" xlink:href="#DejaVuSans-2e"/>
       <use x="95.410156" xlink:href="#DejaVuSans-32"/>
       <use x="159.033203" xlink:href="#DejaVuSans-34"/>
       <use x="222.65625" xlink:href="#DejaVuSans-38"/>
      </g>
     </g>
    </g>
    <g id="ytick_4">
     <g id="line2d_23">
      <path clip-path="url(#p8e4922c25b)" d="M 57.6 138.513306 
L 414.72 138.513306 
" style="fill:none;stroke:#b0b0b0;stroke-linecap:square;stroke-width:0.8;"/>
     </g>
     <g id="line2d_24">
      <g>
       <use style="stroke:#000000;stroke-width:0.8;" x="57.6" xlink:href="#m427b2dc413" y="138.513306"/>
      </g>
     </g>
     <g id="text_13">
      <!-- 1.250 -->
      <g transform="translate(21.971875 142.312525)scale(0.1 -0.1)">
       <use xlink:href="#DejaVuSans-31"/>
       <use x="63.623047" xlink:href="#DejaVuSans-2e"/>
       <use x="95.410156" xlink:href="#DejaVuSans-32"/>
       <use x="159.033203" xlink:href="#DejaVuSans-35"/>
       <use x="222.65625" xlink:href="#DejaVuSans-30"/>
      </g>
     </g>
    </g>
    <g id="ytick_5">
     <g id="line2d_25">
      <path clip-path="url(#p8e4922c25b)" d="M 57.6 94.431673 
L 414.72 94.431673 
" style="fill:none;stroke:#b0b0b0;stroke-linecap:square;stroke-width:0.8;"/>
     </g>
     <g id="line2d_26">
      <g>
       <use style="stroke:#000000;stroke-width:0.8;" x="57.6" xlink:href="#m427b2dc413" y="94.431673"/>
      </g>
     </g>
     <g id="text_14">
      <!-- 1.252 -->
      <g transform="translate(21.971875 98.230892)scale(0.1 -0.1)">
       <use xlink:href="#DejaVuSans-31"/>
       <use x="63.623047" xlink:href="#DejaVuSans-2e"/>
       <use x="95.410156" xlink:href="#DejaVuSans-32"/>
       <use x="159.033203" xlink:href="#DejaVuSans-35"/>
       <use x="222.65625" xlink:href="#DejaVuSans-32"/>
      </g>
     </g>
    </g>
    <g id="ytick_6">
     <g id="line2d_27">
      <path clip-path="url(#p8e4922c25b)" d="M 57.6 50.350041 
L 414.72 50.350041 
" style="fill:none;stroke:#b0b0b0;stroke-linecap:square;stroke-width:0.8;"/>
     </g>
     <g id="line2d_28">
      <g>
       <use style="stroke:#000000;stroke-width:0.8;" x="57.6" xlink:href="#m427b2dc413" y="50.350041"/>
      </g>
     </g>
     <g id="text_15">
      <!-- 1.254 -->
      <g transform="translate(21.971875 54.14926)scale(0.1 -0.1)">
       <use xlink:href="#DejaVuSans-31"/>
       <use x="63.623047" xlink:href="#DejaVuSans-2e"/>
       <use x="95.410156" xlink:href="#DejaVuSans-32"/>
       <use x="159.033203" xlink:href="#DejaVuSans-35"/>
       <use x="222.65625" xlink:href="#DejaVuSans-34"/>
      </g>
     </g>
    </g>
    <g id="text_16">
     <!-- Voltage (V) -->
     <defs>
      <path d="M 28.609375 0 
L 0.78125 72.90625 
L 11.078125 72.90625 
L 34.1875 11.53125 
L 57.328125 72.90625 
L 67.578125 72.90625 
L 39.796875 0 
z
" id="DejaVuSans-56"/>
      <path d="M 30.609375 48.390625 
Q 23.390625 48.390625 19.1875 42.75 
Q 14.984375 37.109375 14.984375 27.296875 
Q 14.984375 17.484375 19.15625 11.84375 
Q 23.34375 6.203125 30.609375 6.203125 
Q 37.796875 6.203125 41.984375 11.859375 
Q 46.1875 17.53125 46.1875 27.296875 
Q 46.1875 37.015625 41.984375 42.703125 
Q 37.796875 48.390625 30.609375 48.390625 
z
M 30.609375 56 
Q 42.328125 56 49.015625 48.375 
Q 55.71875 40.765625 55.71875 27.296875 
Q 55.71875 13.875 49.015625 6.21875 
Q 42.328125 -1.421875 30.609375 -1.421875 
Q 18.84375 -1.421875 12.171875 6.21875 
Q 5.515625 13.875 5.515625 27.296875 
Q 5.515625 40.765625 12.171875 48.375 
Q 18.84375 56 30.609375 56 
z
" id="DejaVuSans-6f"/>
      <path d="M 9.421875 75.984375 
L 18.40625 75.984375 
L 18.40625 0 
L 9.421875 0 
z
" id="DejaVuSans-6c"/>
      <path d="M 34.28125 27.484375 
Q 23.390625 27.484375 19.1875 25 
Q 14.984375 22.515625 14.984375 16.5 
Q 14.984375 11.71875 18.140625 8.90625 
Q 21.296875 6.109375 26.703125 6.109375 
Q 34.1875 6.109375 38.703125 11.40625 
Q 43.21875 16.703125 43.21875 25.484375 
L 43.21875 27.484375 
z
M 52.203125 31.203125 
L 52.203125 0 
L 43.21875 0 
L 43.21875 8.296875 
Q 40.140625 3.328125 35.546875 0.953125 
Q 30.953125 -1.421875 24.3125 -1.421875 
Q 15.921875 -1.421875 10.953125 3.296875 
Q 6 8.015625 6 15.921875 
Q 6 25.140625 12.171875 29.828125 
Q 18.359375 34.515625 30.609375 34.515625 
L 43.21875 34.515625 
L 43.21875 35.40625 
Q 43.21875 41.609375 39.140625 45 
Q 35.0625 48.390625 27.6875 48.390625 
Q 23 48.390625 18.546875 47.265625 
Q 14.109375 46.140625 10.015625 43.890625 
L 10.015625 52.203125 
Q 14.9375 54.109375 19.578125 55.046875 
Q 24.21875 56 28.609375 56 
Q 40.484375 56 46.34375 49.84375 
Q 52.203125 43.703125 52.203125 31.203125 
z
" id="DejaVuSans-61"/>
      <path d="M 45.40625 27.984375 
Q 45.40625 37.75 41.375 43.109375 
Q 37.359375 48.484375 30.078125 48.484375 
Q 22.859375 48.484375 18.828125 43.109375 
Q 14.796875 37.75 14.796875 27.984375 
Q 14.796875 18.265625 18.828125 12.890625 
Q 22.859375 7.515625 30.078125 7.515625 
Q 37.359375 7.515625 41.375 12.890625 
Q 45.40625 18.265625 45.40625 27.984375 
z
M 54.390625 6.78125 
Q 54.390625 -7.171875 48.1875 -13.984375 
Q 42 -20.796875 29.203125 -20.796875 
Q 24.46875 -20.796875 20.265625 -20.09375 
Q 16.0625 -19.390625 12.109375 -17.921875 
L 12.109375 -9.1875 
Q 16.0625 -11.328125 19.921875 -12.34375 
Q 23.78125 -13.375 27.78125 -13.375 
Q 36.625 -13.375 41.015625 -8.765625 
Q 45.40625 -4.15625 45.40625 5.171875 
L 45.40625 9.625 
Q 42.625 4.78125 38.28125 2.390625 
Q 33.9375 0 27.875 0 
Q 17.828125 0 11.671875 7.65625 
Q 5.515625 15.328125 5.515625 27.984375 
Q 5.515625 40.671875 11.671875 48.328125 
Q 17.828125 56 27.875 56 
Q 33.9375 56 38.28125 53.609375 
Q 42.625 51.21875 45.40625 46.390625 
L 45.40625 54.6875 
L 54.390625 54.6875 
z
" id="DejaVuSans-67"/>
      <path d="M 56.203125 29.59375 
L 56.203125 25.203125 
L 14.890625 25.203125 
Q 15.484375 15.921875 20.484375 11.0625 
Q 25.484375 6.203125 34.421875 6.203125 
Q 39.59375 6.203125 44.453125 7.46875 
Q 49.3125 8.734375 54.109375 11.28125 
L 54.109375 2.78125 
Q 49.265625 0.734375 44.1875 -0.34375 
Q 39.109375 -1.421875 33.890625 -1.421875 
Q 20.796875 -1.421875 13.15625 6.1875 
Q 5.515625 13.8125 5.515625 26.8125 
Q 5.515625 40.234375 12.765625 48.109375 
Q 20.015625 56 32.328125 56 
Q 43.359375 56 49.78125 48.890625 
Q 56.203125 41.796875 56.203125 29.59375 
z
M 47.21875 32.234375 
Q 47.125 39.59375 43.09375 43.984375 
Q 39.0625 48.390625 32.421875 48.390625 
Q 24.90625 48.390625 20.390625 44.140625 
Q 15.875 39.890625 15.1875 32.171875 
z
" id="DejaVuSans-65"/>
      <path id="DejaVuSans-20"/>
     </defs>
     <g transform="translate(15.892187 202.577219)rotate(-90)scale(0.1 -0.1)">
      <use xlink:href="#DejaVuSans-56"/>
      <use x="68.298828" xlink:href="#DejaVuSans-6f"/>
      <use x="129.480469" xlink:href="#DejaVuSans-6c"/>
      <use x="157.263672" xlink:href="#DejaVuSans-74"/>
      <use x="196.472656" xlink:href="#DejaVuSans-61"/>
      <use x="257.751953" xlink:href="#DejaVuSans-67"/>
      <use x="321.228516" xlink:href="#DejaVuSans-65"/>
      <use x="382.751953" xlink:href="#DejaVuSans-20"/>
      <use x="414.539062" xlink:href="#DejaVuSans-28"/>
      <use x="453.552734" xlink:href="#DejaVuSans-56"/>
      <use x="521.960938" xlink:href="#DejaVuSans-29"/>
     </g>
    </g>
   </g>
   <g id="line2d_29">
    <path clip-path="url(#p8e4922c25b)" d="M 73.832727 107.105143 
L 74.193294 104.460245 
L 74.373578 96.437388 
L 74.553861 98.66351 
L 74.734145 95.621878 
L 75.096515 99.919837 
L 75.276799 87.951673 
L 75.640971 108.868408 
L 75.821255 106.465959 
L 76.003341 87.929633 
L 76.183624 105.474122 
L 76.363908 89.957388 
L 76.544191 88.304327 
L 76.724475 102.785143 
L 76.904758 105.408 
L 77.085042 116.384327 
L 77.265325 119.99902 
L 77.445609 131.923102 
L 77.806176 134.788408 
L 77.98646 141.797388 
L 78.166743 132.540245 
L 78.347026 147.968816 
L 78.52731 149.026776 
L 78.707593 149.379429 
L 78.887877 153.412898 
L 79.432333 125.090449 
L 79.614419 125.509224 
L 79.794703 124.274939 
L 79.976789 119.337796 
L 80.157073 122.092898 
L 80.337356 143.582694 
L 80.51764 103.292082 
L 80.697923 103.292082 
L 80.878207 99.523102 
L 81.058491 113.210449 
L 81.238774 99.302694 
L 81.419057 97.627592 
L 81.959908 117.288 
L 82.320475 156.168 
L 82.500759 116.626776 
L 82.681042 109.816163 
L 82.861326 109.970449 
L 83.043412 114.554939 
L 83.223696 97.03249 
L 83.405782 96.062694 
L 83.587868 100.55902 
L 83.768152 85.43902 
L 84.130522 78.67249 
L 84.310805 96.635755 
L 84.671372 85.43902 
L 84.851655 86.364735 
L 85.031939 88.194122 
L 85.212223 88.083918 
L 85.392506 111.270857 
L 85.57279 83.785959 
L 85.753073 88.502694 
L 86.11364 109.309224 
L 86.293923 138.160653 
L 86.474207 129.145959 
L 86.65449 136.860245 
L 86.834774 139.372898 
L 87.016861 131.901061 
L 87.197145 130.314122 
L 87.379231 137.587592 
L 87.559514 130.578612 
L 87.921884 106.950857 
L 88.284254 118.323918 
L 88.464537 129.123918 
L 88.825104 95.996571 
L 89.005388 97.539429 
L 89.185671 80.457796 
L 89.365954 91.169633 
L 89.546238 82.860245 
L 89.728325 95.996571 
L 89.908608 84.998204 
L 90.090694 87.356571 
L 90.270978 91.301878 
L 90.633348 109.419429 
L 90.813631 104.790857 
L 90.995717 120.219429 
L 91.176001 149.379429 
L 91.356285 109.19902 
L 91.716852 114.048 
L 92.077419 129.895347 
L 92.437986 114.841469 
L 92.618269 118.676571 
L 92.798553 127.757388 
L 92.978836 129.542694 
L 93.15912 122.335347 
L 93.339403 136.99249 
L 93.519687 121.938612 
L 93.69997 117.464327 
L 93.880254 123.569633 
L 94.060537 149.026776 
L 94.240821 143.957388 
L 94.601388 128.220245 
L 94.781671 131.438204 
L 95.144042 140.474939 
L 95.326128 137.080653 
L 95.506411 136.397388 
L 95.686695 126.655347 
L 95.868781 126.501061 
L 96.049065 119.293714 
L 96.231151 125.861878 
L 96.411434 128.065959 
L 96.772001 126.765551 
L 96.952285 136.860245 
L 97.132568 175.123102 
L 97.312852 146.888816 
L 97.493135 147.417796 
L 97.673419 134.237388 
L 97.853702 137.102694 
L 98.033986 132.628408 
L 98.214269 135.956571 
L 98.394553 161.501878 
L 98.576639 140.056163 
L 98.756923 152.641469 
L 99.119293 141.003918 
L 99.301379 140.188408 
L 99.481662 126.853714 
L 99.661946 135.008816 
L 100.024316 124.649633 
L 100.204599 136.000653 
L 100.384883 119.007184 
L 100.565166 205.252898 
L 100.74545 192.07249 
L 101.106017 91.698612 
L 101.286301 93.26351 
L 101.466584 111.667592 
L 101.646867 104.107592 
L 101.827151 104.85698 
L 102.007434 110.675755 
L 102.187718 102.917388 
L 102.368001 101.815347 
L 102.548285 127.977796 
L 102.728568 125.795755 
L 102.908852 162.273306 
L 103.269419 115.590857 
L 103.449702 122.489633 
L 103.629986 135.207184 
L 103.810269 160.443918 
L 103.990553 167.541061 
L 104.170836 169.326367 
L 104.35112 160.796571 
L 104.531404 171.398204 
L 104.71349 161.634122 
L 104.893774 92.095347 
L 105.256143 150.723918 
L 105.436427 104.834939 
L 105.618513 105.055347 
L 105.798797 118.478204 
L 105.980883 55.331265 
L 106.702017 101.947592 
L 106.8823 95.974531 
L 107.062584 99.765551 
L 107.424954 113.320653 
L 107.605238 95.732082 
L 108.149694 163.617796 
L 108.512063 122.092898 
L 108.692347 117.55249 
L 108.872631 127.206367 
L 109.052914 123.371265 
L 109.233198 126.919837 
L 109.413481 121.321469 
L 109.593764 123.812082 
L 109.774048 146.844735 
L 109.954331 135.493714 
L 110.134615 157.225959 
L 110.314899 134.920653 
L 110.495182 134.964735 
L 110.675466 129.278204 
L 110.855749 179.443102 
L 111.036033 161.457796 
L 111.216316 163.132898 
L 111.396599 126.699429 
L 111.576883 123.50351 
L 111.93745 128.683102 
L 112.298017 190.926367 
L 112.478301 165.447184 
L 112.658584 183.652898 
L 113.019151 157.270041 
L 113.379718 92.051265 
L 113.742089 97.252898 
L 114.104458 97.252898 
L 114.286544 99.919837 
L 114.46863 95.445551 
L 114.648914 108.251265 
L 114.829198 100.316571 
L 115.009481 106.818612 
L 115.189765 103.710857 
L 115.370048 120.505959 
L 115.550332 156.961469 
L 115.730615 145.654531 
L 115.910899 123.856163 
L 116.091182 129.410449 
L 116.271466 99.699429 
L 116.451749 122.445551 
L 116.632033 95.864327 
L 116.812316 92.492082 
L 116.9926 135.868408 
L 117.172883 111.226776 
L 117.353167 153.324735 
L 117.535253 120.572082 
L 117.715537 124.825959 
L 117.897623 124.429224 
L 118.077907 130.049633 
L 118.259993 104.328 
L 118.622363 108.339429 
L 118.802646 137.146776 
L 118.98293 98.024327 
L 119.163213 98.024327 
L 119.343497 132.474122 
L 119.52378 135.295347 
L 119.704064 113.49698 
L 119.884347 112.571265 
L 120.064631 116.560653 
L 120.244914 123.768 
L 120.425198 168.57698 
L 120.785765 110.124735 
L 120.966048 108.537796 
L 121.146332 116.428408 
L 121.326615 110.918204 
L 121.688986 131.129633 
L 121.871072 109.772082 
L 122.051355 114.532898 
L 122.233441 164.785959 
L 122.415528 175.652082 
L 122.595811 132.93698 
L 122.776095 117.199837 
L 122.956378 126.214531 
L 123.136662 121.916571 
L 123.316945 113.651265 
L 123.497229 115.128 
L 123.677512 107.942694 
L 124.038079 111.204735 
L 124.218363 150.172898 
L 124.57893 129.256163 
L 124.939497 204.878204 
L 125.11978 182.462694 
L 125.300064 131.570449 
L 125.48215 130.931265 
L 125.662434 100.977796 
L 125.84452 101.088 
L 126.024804 95.599837 
L 126.20689 101.484735 
L 126.567457 104.548408 
L 126.929827 86.695347 
L 127.11011 84.204735 
L 127.290394 77.967184 
L 127.650961 111.182694 
L 127.831245 96.481469 
L 128.011528 102.322286 
L 128.191811 127.338612 
L 128.372095 60.709224 
L 128.732662 129.454531 
L 128.912945 107.854531 
L 129.093229 53.568 
L 129.273512 65.249633 
L 129.455599 93.616163 
L 129.635883 60.907592 
L 129.817969 89.230041 
L 130.000055 67.211265 
L 130.182141 62.384327 
L 130.362425 62.097796 
L 130.542708 71.068408 
L 130.722992 94.916571 
L 130.903276 103.77698 
L 131.083559 96.459429 
L 131.444126 142.194122 
L 131.624409 105.892898 
L 131.804693 103.203918 
L 131.984976 146.381878 
L 132.16526 140.034122 
L 132.525827 69.812082 
L 132.706111 95.004735 
L 132.886394 99.324735 
L 133.066677 97.274939 
L 133.246961 133.972898 
L 133.429048 102.366367 
L 133.791417 122.95249 
L 133.971701 148.255347 
L 134.153787 140.364735 
L 134.33407 107.479837 
L 134.514354 121.05698 
L 134.69644 108.317388 
L 134.876724 109.904327 
L 135.057007 106.620245 
L 135.237291 153.104327 
L 135.417575 124.429224 
L 135.597858 141.797388 
L 135.778142 173.315755 
L 136.138708 178.29698 
L 136.318992 175.07902 
L 136.499275 117.574531 
L 136.679559 118.830857 
L 136.859843 122.643918 
L 137.22041 183.785143 
L 137.400693 178.848 
L 137.580977 191.852082 
L 137.76126 182.771265 
L 137.941543 185.239837 
L 138.121827 112.527184 
L 138.302111 107.700245 
L 138.482394 114.070041 
L 138.662678 106.928816 
L 138.842961 115.458612 
L 139.023245 110.455347 
L 139.383812 125.134531 
L 139.564095 132.540245 
L 139.744378 122.665959 
L 139.924662 133.22351 
L 140.104946 132.231673 
L 140.465513 146.403918 
L 140.82608 123.944327 
L 141.006363 134.744327 
L 141.186647 131.217796 
L 141.368733 139.505143 
L 141.549017 123.834122 
L 141.731103 120.660245 
L 141.913189 124.010449 
L 142.093473 122.974531 
L 142.275559 117.508408 
L 142.455843 131.901061 
L 142.636126 123.525551 
L 142.81641 125.531265 
L 142.996693 128.991673 
L 143.176977 126.941878 
L 143.35726 126.74351 
L 144.078394 149.577796 
L 144.258678 145.764735 
L 144.438961 194.739429 
L 144.619245 179.266776 
L 144.799528 174.109224 
L 144.979812 184.865143 
L 145.342182 109.507592 
L 145.522466 120.417796 
L 145.704552 123.415347 
L 145.884835 171.265959 
L 146.609575 134.479837 
L 146.789858 144.310041 
L 146.970142 143.230041 
L 147.330709 157.314122 
L 147.691276 139.196571 
L 147.871559 137.785959 
L 148.051843 141.797388 
L 148.232126 137.565551 
L 148.41241 137.962286 
L 148.592693 182.683102 
L 148.772977 178.781878 
L 148.95326 155.859429 
L 149.133544 147.307592 
L 149.315631 132.231673 
L 149.495914 167.474939 
L 149.678 157.424327 
L 149.858284 160.267592 
L 150.220653 125.619429 
L 150.400937 129.895347 
L 150.763307 162.603918 
L 151.123874 201.594122 
L 151.304157 199.676571 
L 151.484441 177.768 
L 151.664725 191.25698 
L 151.845008 163.970449 
L 152.027094 172.874939 
L 152.389464 165.116571 
L 152.569748 167.849633 
L 152.751834 167.607184 
L 152.932117 172.830857 
L 153.112401 185.901061 
L 153.294487 153.787592 
L 153.474771 147.858612 
L 153.835338 153.346776 
L 154.376189 187.994939 
L 154.556472 170.626776 
L 154.736756 179.553306 
L 154.917039 156.873306 
L 155.097322 179.465143 
L 155.277606 178.517388 
L 155.459693 173.514122 
L 155.639976 184.336163 
L 155.822062 206.839837 
L 156.546802 180.501061 
L 156.727085 194.695347 
L 156.907369 188.457796 
L 157.087652 158.129633 
L 157.267936 165.447184 
L 157.44822 150.305143 
L 157.628503 151.076571 
L 157.808787 143.450449 
L 157.990873 151.495347 
L 158.171156 154.294531 
L 158.35144 151.451265 
L 158.533526 167.981878 
L 158.895896 124.098612 
L 159.258266 134.744327 
L 159.438549 136.772082 
L 159.618833 147.858612 
L 159.9794 133.642286 
L 160.159683 153.148408 
L 160.339967 153.280653 
L 160.520251 145.830857 
L 160.880818 165.667592 
L 161.061101 185.394122 
L 161.241384 149.555755 
L 161.421668 142.458612 
L 161.601951 169.502694 
L 161.964322 150.349224 
L 162.146408 150.150857 
L 162.328494 158.305959 
L 162.51058 154.294531 
L 163.231714 178.230857 
L 163.411998 205.671673 
L 163.592282 134.281469 
L 163.772565 136.066776 
L 163.952849 132.275755 
L 164.134935 150.834122 
L 164.315218 155.110041 
L 164.495502 144.177796 
L 164.677588 151.561469 
L 164.857872 150.900245 
L 165.039958 157.909224 
L 165.220242 153.787592 
L 165.402328 146.073306 
L 165.582611 150.21698 
L 165.762895 144.111673 
L 165.943178 134.215347 
L 166.123462 136.639837 
L 166.484029 149.070857 
L 166.664313 143.979429 
L 166.846399 148.05698 
L 167.026683 157.336163 
L 167.208769 158.702694 
L 167.389053 154.53698 
L 167.571139 152.928 
L 167.751422 150.283102 
L 167.931706 203.732082 
L 168.113792 158.283918 
L 168.294076 142.061878 
L 168.474359 150.635755 
L 168.654642 150.150857 
L 168.834926 160.421878 
L 169.015209 163.19902 
L 169.195493 161.766367 
L 169.375776 165.182694 
L 169.55606 163.309224 
L 169.916627 152.773714 
L 170.277194 169.414531 
L 170.457477 161.700245 
L 170.637761 162.251265 
L 170.818044 163.17698 
L 171.539179 149.269224 
L 171.719462 188.986776 
L 171.899746 198.221878 
L 172.080029 162.295347 
L 172.260312 172.522286 
L 172.440596 143.582694 
L 172.62088 145.478204 
L 172.801163 148.938612 
L 172.98325 155.374531 
L 173.34562 142.634939 
L 173.527706 175.431673 
L 173.890075 135.758204 
L 174.070359 122.842286 
L 174.430926 132.650449 
L 174.61121 128.859429 
L 174.793296 128.859429 
L 174.97358 132.275755 
L 175.155666 181.470857 
L 175.33595 191.940245 
L 175.518036 164.25698 
L 175.698319 169.282286 
L 175.878603 189.427592 
L 176.060689 173.315755 
L 176.240973 137.874122 
L 176.601539 161.083102 
L 176.781823 157.490449 
L 176.962106 149.181061 
L 177.14239 132.011265 
L 177.322674 141.070041 
L 177.502957 136.287184 
L 177.683241 135.824327 
L 177.863524 155.308408 
L 178.043808 128.154122 
L 178.224091 127.603102 
L 178.404374 123.018612 
L 178.584658 121.585959 
L 178.764942 113.739429 
L 178.945225 87.378612 
L 179.125509 89.296163 
L 179.305792 128.396571 
L 179.666359 135.537796 
L 179.846643 96.349224 
L 180.026926 81.405551 
L 180.20721 85.020245 
L 180.74806 114.070041 
L 180.928344 117.574531 
L 181.108627 113.012082 
L 181.469194 130.688816 
L 181.649478 124.671673 
L 181.829761 129.454531 
L 182.010045 179.641469 
L 182.190328 180.19249 
L 182.370612 143.318204 
L 182.550896 158.460245 
L 182.732982 116.340245 
L 182.915068 119.425959 
L 183.277438 130.049633 
L 183.457722 188.01698 
L 183.639808 197.869224 
L 183.820091 190.353306 
L 184.000375 205.539429 
L 184.180658 174.748408 
L 184.360942 184.402286 
L 184.541225 178.495347 
L 184.721509 192.910041 
L 184.903595 176.886367 
L 185.083879 183.101878 
L 185.265965 181.140245 
L 185.448051 127.82351 
L 185.810421 138.976163 
L 185.990705 150.327184 
L 186.170988 141.202286 
L 186.351272 194.100245 
L 186.531555 161.898612 
L 187.072406 174.968816 
L 187.252689 184.622694 
L 187.432973 178.385143 
L 187.79354 186.363918 
L 187.973823 181.801469 
L 188.154107 168.114122 
L 188.33439 173.624327 
L 188.514674 175.123102 
L 188.694958 165.160653 
L 189.057328 178.759837 
L 189.239414 175.608 
L 189.419697 174.417796 
L 189.599981 182.418612 
L 189.782067 177.084735 
L 189.962351 167.23249 
L 190.144437 166.372898 
L 190.32472 176.335347 
L 190.505004 164.499429 
L 190.685287 172.500245 
L 190.865571 172.301878 
L 191.045854 180.434939 
L 191.226138 181.867592 
L 191.406421 192.513306 
L 191.588508 212.261878 
L 191.950878 203.533714 
L 192.313248 183.98351 
L 192.493531 182.176163 
L 192.673815 228.660245 
L 192.855901 241.554122 
L 193.036184 224.516571 
L 193.216468 194.651265 
L 193.396752 198.442286 
L 193.578838 185.328 
L 193.759121 214.75249 
L 193.939405 209.969633 
L 194.121491 171.883102 
L 194.301775 173.007184 
L 194.483861 171.55249 
L 194.664144 172.213714 
L 194.844428 200.932898 
L 195.026514 197.47249 
L 195.206798 160.488 
L 195.387081 166.064327 
L 195.567365 166.240653 
L 195.747648 172.698612 
L 195.927932 172.125551 
L 196.288499 169.282286 
L 196.468783 174.175347 
L 196.649066 170.296163 
L 196.829349 172.522286 
L 197.009633 179.487184 
L 197.189916 172.015347 
L 197.3702 170.494531 
L 197.550483 204.613714 
L 197.730767 174.131265 
L 198.091334 169.524735 
L 198.451901 155.330449 
L 198.632184 157.931265 
L 198.812468 163.419429 
L 198.992751 162.339429 
L 199.353319 157.115755 
L 199.533602 158.85698 
L 199.713886 152.421061 
L 199.894169 159.077388 
L 200.074453 159.782694 
L 200.435019 219.292898 
L 200.795587 150.635755 
L 200.97587 164.323102 
L 201.156154 156.123918 
L 201.336437 158.06351 
L 201.516721 147.550041 
L 201.698807 166.70351 
L 202.24146 142.128 
L 202.421744 145.345959 
L 202.60383 144.111673 
L 202.784114 143.670857 
L 202.9662 145.015347 
L 203.146484 139.725551 
L 203.326767 144.574531 
L 203.50705 140.695347 
L 203.687334 139.835755 
L 203.867618 134.347592 
L 204.047901 151.517388 
L 204.228185 133.069224 
L 204.408468 139.328816 
L 204.588752 128.264327 
L 204.769035 126.280653 
L 204.949319 127.691265 
L 205.129602 126.038204 
L 205.309886 127.250449 
L 205.490169 129.586776 
L 205.670453 136.99249 
L 205.850736 158.328 
L 206.03102 131.283918 
L 206.211303 132.231673 
L 206.391587 143.428408 
L 206.752154 131.217796 
L 206.932437 146.646367 
L 207.112721 179.641469 
L 207.293004 180.390857 
L 207.475091 200.71249 
L 207.839263 144.574531 
L 208.201633 141.025959 
L 208.5622 154.845551 
L 208.742484 147.814531 
L 208.922767 154.426776 
L 209.283334 139.086367 
L 209.825988 165.182694 
L 210.008074 160.069224 
L 210.188357 163.044735 
L 210.368641 160.950857 
L 211.273664 193.879837 
L 211.453948 187.267592 
L 211.634231 191.168816 
L 212.175082 184.51249 
L 212.355365 177.723918 
L 212.535649 198.772898 
L 212.715932 178.914122 
L 212.896216 179.487184 
L 213.076499 207.589224 
L 213.256783 157.732898 
L 213.437066 159.518204 
L 213.61735 188.237388 
L 213.797634 147.528 
L 213.97972 142.590857 
L 214.160003 151.429224 
L 214.340287 154.625143 
L 214.884743 178.803918 
L 215.065027 143.891265 
L 215.247113 144.684735 
L 215.427396 141.070041 
L 215.60768 166.108408 
L 215.97005 141.59902 
L 216.152136 153.434939 
L 216.334223 148.718204 
L 216.696592 166.086367 
L 216.876876 156.101878 
L 217.237443 204.834122 
L 217.59801 161.986776 
L 217.778293 161.347592 
L 217.958577 179.465143 
L 218.13886 163.882286 
L 218.503033 169.238204 
L 218.685119 175.718204 
L 218.867205 174.417796 
L 219.227773 183.873306 
L 219.408056 165.910041 
L 219.58834 171.971265 
L 219.768623 164.323102 
L 219.948907 165.954122 
L 220.12919 170.119837 
L 220.309474 179.354939 
L 220.49156 175.585959 
L 220.671844 180.346776 
L 220.85393 207.082286 
L 221.036016 199.830857 
L 221.2163 218.852082 
L 221.398386 210.807184 
L 221.57867 193.527184 
L 221.758953 204.261061 
L 221.939236 156.035755 
L 222.11952 173.624327 
L 222.299804 141.488816 
L 222.480087 182.132082 
L 222.660371 165.865959 
L 222.840654 173.822694 
L 223.201221 133.840653 
L 223.381505 130.424327 
L 223.561788 117.464327 
L 223.742072 119.425959 
L 223.922355 132.011265 
L 224.102639 202.211265 
L 224.465009 162.603918 
L 224.645293 160.465959 
L 224.827379 170.73698 
L 225.009465 174.461878 
L 225.189749 170.781061 
L 225.371835 139.372898 
L 225.552118 131.416163 
L 225.732402 131.085551 
L 225.912685 149.291265 
L 226.092969 147.814531 
L 226.273252 152.509224 
L 226.453536 154.140245 
L 226.633819 154.338612 
L 226.814103 154.140245 
L 226.994386 172.874939 
L 227.17467 179.024327 
L 227.354953 177.481469 
L 227.71552 162.780245 
L 227.895804 166.901878 
L 228.076087 165.138612 
L 228.256371 155.815347 
L 228.438457 197.47249 
L 228.618741 158.195755 
L 228.982913 163.705959 
L 229.163197 217.022694 
L 229.345283 213.231673 
L 229.525567 159.606367 
L 229.886134 173.161469 
L 230.246701 159.67249 
L 230.426984 158.989224 
L 230.607268 172.654531 
L 230.787551 159.099429 
L 230.967835 163.46351 
L 231.148118 155.088 
L 231.508685 125.024327 
L 231.869252 117.001469 
L 232.049536 122.798204 
L 232.22982 138.910041 
L 232.411906 181.625143 
L 232.59219 124.517388 
L 232.774276 159.95902 
L 232.956362 172.698612 
L 233.136646 202.630041 
L 233.318732 128.661061 
L 233.499015 126.060245 
L 233.679299 143.494531 
L 233.859582 121.696163 
L 234.039866 133.532082 
L 234.220149 132.121469 
L 234.580716 171.927184 
L 234.761 169.987592 
L 234.941283 172.63249 
L 235.121567 145.566367 
L 235.662417 168.31249 
L 235.842701 168.973714 
L 236.022984 158.350041 
L 236.203268 160.267592 
L 236.565638 171.354122 
L 236.747724 166.41698 
L 236.928008 165.777796 
L 237.108292 205.781878 
L 237.290378 209.065959 
L 237.470661 228.065143 
L 237.833031 166.659429 
L 238.013314 163.551673 
L 238.193598 174.197388 
L 238.373882 149.181061 
L 238.554165 157.821061 
L 238.734448 153.941878 
L 238.914732 147.660245 
L 239.096819 147.373714 
L 239.277102 149.798204 
L 239.639472 168.378612 
L 239.821558 190.573714 
L 240.001841 182.749224 
L 240.182125 193.990041 
L 240.364211 246.62351 
L 240.544495 199.808816 
L 240.905062 180.258612 
L 241.085345 174.704327 
L 241.265629 181.581061 
L 241.445913 179.641469 
L 241.80648 194.342694 
L 241.986763 182.594939 
L 242.34733 193.042286 
L 242.527613 180.74351 
L 242.707897 181.713306 
L 242.888181 196.414531 
L 243.068464 158.724735 
L 243.429031 140.717388 
L 243.609315 149.688 
L 243.969881 205.473306 
L 244.150165 204.613714 
L 244.330449 204.834122 
L 244.510732 142.304327 
L 244.691016 176.95249 
L 244.871299 138.888 
L 245.051583 182.35249 
L 245.596039 203.313306 
L 245.776322 125.222694 
L 245.956606 159.694531 
L 246.138692 108.802286 
L 246.318976 127.735347 
L 246.681346 143.75902 
L 246.863432 201.021061 
L 247.225802 221.342694 
L 247.407888 187.884735 
L 247.588172 133.950857 
L 247.770258 128.220245 
L 247.950542 111.182694 
L 248.130825 112.945959 
L 248.491392 154.514939 
L 248.671675 115.612898 
L 248.851959 105.275755 
L 249.212526 127.096163 
L 249.39281 126.148408 
L 249.573093 122.445551 
L 249.935463 166.394939 
L 250.297833 173.029224 
L 250.479919 191.102694 
L 251.383139 115.767184 
L 251.563423 113.585143 
L 251.743707 107.479837 
L 251.92399 112.174531 
L 252.106077 127.625143 
L 252.28636 100.228408 
L 252.466644 90.398204 
L 252.64873 87.709224 
L 252.829014 89.692898 
L 253.0111 96.966367 
L 253.191383 90.420245 
L 253.37347 93.417796 
L 253.553753 154.492898 
L 253.734037 138.645551 
L 253.916123 163.595755 
L 254.096407 167.166367 
L 254.458777 108.868408 
L 255.3638 139.15249 
L 255.544083 153.655347 
L 255.72617 151.914122 
L 255.908256 157.666776 
L 256.270626 149.776163 
L 256.452712 153.765551 
L 256.632996 206.002286 
L 256.995366 150.569633 
L 257.177452 141.400653 
L 257.359538 138.204735 
L 257.539822 138.270857 
L 257.720105 141.532898 
L 258.082475 130.51249 
L 258.262758 134.964735 
L 258.443042 156.079837 
L 258.623325 153.721469 
L 258.803609 180.060245 
L 258.983892 141.466776 
L 259.164176 129.278204 
L 259.344459 140.78351 
L 259.524743 138.888 
L 259.705027 159.67249 
L 259.887113 160.488 
L 260.067397 201.638204 
L 260.431569 159.099429 
L 260.611853 205.892082 
L 260.793939 196.304327 
L 260.974222 168.995755 
L 261.334789 153.412898 
L 261.695356 161.810449 
L 261.87564 159.363918 
L 262.055923 161.369633 
L 262.236207 155.198204 
L 262.41649 161.435755 
L 262.596774 157.865143 
L 262.777058 158.085551 
L 262.957341 168.510857 
L 263.137624 166.901878 
L 263.317908 176.379429 
L 263.678475 167.673306 
L 263.860562 163.904327 
L 264.040845 167.034122 
L 264.222931 165.292898 
L 264.405017 168.246367 
L 264.585301 164.102694 
L 264.767387 164.54351 
L 265.488521 189.780245 
L 265.668805 169.017796 
L 265.849089 185.636571 
L 266.029372 179.332898 
L 266.209655 182.264327 
L 266.389939 156.190041 
L 266.570222 210.873306 
L 266.750506 157.79902 
L 267.111073 133.906776 
L 267.291357 142.370449 
L 267.47164 143.494531 
L 267.651924 151.870041 
L 267.83401 142.150041 
L 268.014294 161.347592 
L 268.19638 157.115755 
L 268.378466 162.581878 
L 268.92112 130.137796 
L 269.101403 142.326367 
L 269.281686 127.669224 
L 269.46197 130.490449 
L 269.642253 129.586776 
L 269.822537 133.532082 
L 270.00282 127.096163 
L 270.183104 131.746776 
L 270.363388 125.090449 
L 270.543671 133.311673 
L 270.723955 158.504327 
L 270.904238 157.071673 
L 271.084521 152.972082 
L 271.264805 187.377796 
L 271.445088 163.485551 
L 271.625372 173.293714 
L 271.807459 125.994122 
L 271.987742 116.141878 
L 272.169829 149.930449 
L 272.350112 105.099429 
L 272.530396 116.362286 
L 272.712482 107.457796 
L 272.892765 181.514939 
L 273.074851 178.186776 
L 273.255135 132.848816 
L 273.615702 101.749224 
L 273.795986 157.358204 
L 273.976269 115.811265 
L 274.156552 107.01698 
L 274.336836 133.730449 
L 274.697403 98.37698 
L 274.877687 100.096163 
L 275.05797 103.049633 
L 275.238254 112.020245 
L 275.418537 106.003102 
L 275.598821 105.716571 
L 275.779104 101.947592 
L 275.959387 89.097796 
L 276.319955 83.631673 
L 276.500238 100.052082 
L 276.680522 94.409633 
L 276.860805 105.562286 
L 277.041089 126.19249 
L 277.221372 124.31902 
L 277.401656 124.693714 
L 277.581939 137.367184 
L 277.762223 133.620245 
L 277.942506 154.338612 
L 278.12279 155.771265 
L 278.303073 141.268408 
L 278.48516 148.87249 
L 278.665444 143.362286 
L 278.84753 141.819429 
L 279.027813 142.348408 
L 279.208097 143.230041 
L 279.390183 153.412898 
L 279.570467 149.313306 
L 279.752553 141.643102 
L 279.932836 145.191673 
L 280.11312 135.030857 
L 280.293403 146.007184 
L 280.473687 136.926367 
L 280.65397 140.276571 
L 280.834254 133.355755 
L 281.014537 133.465959 
L 281.375104 104.989224 
L 281.555388 110.785959 
L 281.735672 125.685551 
L 282.096238 109.948408 
L 282.276522 119.117388 
L 282.458608 118.345959 
L 282.640695 122.555755 
L 282.822781 146.888816 
L 283.003064 128.35249 
L 283.183348 130.997388 
L 283.365434 143.75902 
L 283.545718 135.559837 
L 283.906285 155.793306 
L 284.086568 142.767184 
L 284.266852 142.436571 
L 284.447135 145.676571 
L 284.627419 139.571265 
L 284.807703 137.763918 
L 284.987986 140.254531 
L 285.168269 137.675755 
L 285.528836 140.959837 
L 285.70912 144.199837 
L 285.889403 156.101878 
L 286.069687 153.501061 
L 286.249971 169.789224 
L 286.432057 171.949224 
L 286.612341 141.841469 
L 286.97471 130.953306 
L 287.154994 120.26351 
L 287.33708 121.519837 
L 287.517364 118.125551 
L 287.69945 121.916571 
L 287.879734 110.896163 
L 288.060017 117.905143 
L 288.2403 112.15249 
L 288.420584 113.100245 
L 288.600867 121.233306 
L 288.781151 122.599837 
L 288.961434 127.448816 
L 289.141718 119.029224 
L 289.322002 120.417796 
L 289.502285 103.953306 
L 289.682569 103.644735 
L 289.862852 101.859429 
L 290.043135 80.545959 
L 290.223419 90.354122 
L 290.405506 91.698612 
L 290.587592 97.870041 
L 290.769678 88.745143 
L 290.949962 94.211265 
L 291.132048 91.742694 
L 291.312331 90.905143 
L 291.492615 99.545143 
L 291.672898 115.502694 
L 291.853182 108.361469 
L 292.213749 135.581878 
L 292.394033 118.610449 
L 292.756403 142.061878 
L 292.938489 138.006367 
L 293.118772 136.705959 
L 293.299056 128.484735 
L 293.481142 132.253714 
L 293.661426 140.056163 
L 293.843512 134.810449 
L 294.023796 152.773714 
L 294.204079 136.573714 
L 294.384362 150.966367 
L 294.564646 153.258612 
L 294.744929 143.714939 
L 295.105496 157.115755 
L 295.287583 138.292898 
L 295.484092 135.934531 
L 295.664376 138.182694 
L 295.846462 218.587592 
L 296.026745 213.826776 
L 296.208832 205.230857 
L 296.389115 214.554122 
L 296.569399 135.846367 
L 296.749682 157.424327 
L 297.110249 129.961469 
L 297.290532 132.584327 
L 297.6511 148.762286 
L 297.831383 145.125551 
L 298.011667 148.519837 
L 298.19195 142.789224 
L 298.372234 155.065959 
L 298.552517 152.310857 
L 298.732801 170.670857 
L 298.913084 161.457796 
L 299.093368 146.249633 
L 299.455738 138.62351 
L 299.636022 135.273306 
L 299.998391 121.233306 
L 300.180477 177.459429 
L 300.362563 169.65698 
L 300.542847 111.733714 
L 300.723131 108.603918 
L 300.903414 114.819429 
L 301.083698 103.225959 
L 301.263981 155.594939 
L 301.444265 129.652898 
L 301.624548 147.924735 
L 301.804832 147.704327 
L 302.165399 104.834939 
L 302.345682 103.358204 
L 302.525966 99.214531 
L 302.706249 101.132082 
L 303.06862 130.314122 
L 303.250706 127.933714 
L 303.432792 160.245551 
L 303.613075 162.846367 
L 303.975445 129.057796 
L 304.155729 120.417796 
L 304.336012 123.922286 
L 304.516296 131.834939 
L 304.696579 131.548408 
L 305.057146 122.048816 
L 305.417713 133.906776 
L 305.597997 159.187592 
L 305.77828 156.079837 
L 305.958564 123.812082 
L 306.138847 143.73698 
L 306.319131 140.034122 
L 306.499414 140.100245 
L 306.679698 138.116571 
L 307.040265 149.754122 
L 307.220548 128.242286 
L 307.402635 144.177796 
L 307.765005 153.787592 
L 307.945288 169.128 
L 308.127374 158.460245 
L 308.307658 174.043102 
L 308.487942 167.827592 
L 308.670028 188.920653 
L 308.850311 223.94351 
L 309.030595 207.853714 
L 309.391162 130.005551 
L 309.571445 134.30351 
L 309.751729 162.91249 
L 309.932012 215.457796 
L 310.112296 170.516571 
L 310.292579 157.843102 
L 310.472863 154.977796 
L 310.653147 146.866776 
L 310.83343 147.021061 
L 311.013713 156.322286 
L 311.193997 149.247184 
L 311.376083 151.781878 
L 311.556367 152.465143 
L 311.918737 141.31249 
L 312.100823 156.895347 
L 312.281106 153.126367 
L 312.46139 142.745143 
L 312.643476 146.051265 
L 312.82376 152.66351 
L 313.004043 147.373714 
L 313.184327 145.808816 
L 313.36461 155.021878 
L 313.544894 149.599837 
L 313.725178 149.203102 
L 313.905461 160.950857 
L 314.266028 138.513306 
L 314.446311 129.212082 
L 314.626595 140.541061 
L 314.806878 121.299429 
L 314.987162 134.30351 
L 315.167446 136.99249 
L 315.347729 112.15249 
L 315.528013 117.574531 
L 315.708296 116.384327 
L 315.888579 104.482286 
L 316.249146 120.483918 
L 316.42943 115.612898 
L 316.609714 188.590041 
L 316.789997 118.147592 
L 317.150564 101.683102 
L 317.330848 99.655347 
L 317.511131 105.385959 
L 317.871698 128.63902 
L 318.232265 109.794122 
L 318.412549 120.043102 
L 318.592832 123.745959 
L 318.773116 122.599837 
L 318.953399 141.510857 
L 319.133683 142.348408 
L 319.315769 158.173714 
L 319.496053 148.299429 
L 319.858422 211.51249 
L 320.038706 218.212898 
L 320.220792 211.644735 
L 320.401076 222.488816 
L 320.583162 199.654531 
L 320.763445 154.27249 
L 320.943729 141.224327 
L 321.304296 176.842286 
L 321.48458 167.078204 
L 321.664863 175.938612 
L 321.845147 170.781061 
L 322.02543 174.858612 
L 322.205714 169.524735 
L 322.385997 175.982694 
L 322.566281 177.613714 
L 322.746564 170.274122 
L 322.926848 179.11249 
L 323.289218 165.777796 
L 323.469502 171.728816 
L 323.651588 172.478204 
L 323.831871 168.731265 
L 324.012155 170.847184 
L 324.194241 167.144327 
L 324.374525 170.516571 
L 324.556611 168.643102 
L 324.736894 171.772898 
L 324.917178 181.933714 
L 325.097461 210.366367 
L 325.277745 205.649633 
L 325.458028 188.369633 
L 325.638312 218.212898 
L 325.818595 224.230041 
L 326.180966 179.332898 
L 326.363052 182.991673 
L 326.543335 184.093714 
L 326.905705 181.955755 
L 327.085988 175.740245 
L 327.268075 187.289633 
L 327.448358 189.229224 
L 327.628642 189.648 
L 327.808925 181.713306 
L 327.991012 180.434939 
L 328.351579 184.358204 
L 328.533665 187.267592 
L 328.715751 185.041469 
L 328.897838 189.559837 
L 329.078121 190.639837 
L 329.258405 184.490449 
L 329.438688 196.877388 
L 329.618972 192.006367 
L 329.799255 204.128816 
L 329.979539 267.341878 
L 330.161625 243.890449 
L 330.522192 163.926367 
L 330.704278 165.381061 
L 330.884562 168.400653 
L 331.246932 210.520653 
L 331.429018 188.435755 
L 331.609301 221.717388 
L 331.971672 158.901061 
L 332.151955 162.780245 
L 332.514325 151.230857 
L 332.696411 154.27249 
L 332.878497 165.711673 
L 333.239064 157.093714 
L 333.419348 172.478204 
L 333.599632 159.231673 
L 333.781718 171.772898 
L 333.962002 171.662694 
L 334.144088 170.274122 
L 334.324372 175.05698 
L 334.506458 171.905143 
L 335.049111 185.680653 
L 335.409678 199.147592 
L 335.589962 184.181878 
L 335.770245 190.19902 
L 336.130812 214.179429 
L 336.311095 295.488 
L 336.491379 211.115755 
L 336.671663 215.568 
L 337.03223 187.796571 
L 337.212513 199.235755 
L 337.57308 190.728 
L 337.933647 201.241469 
L 338.113931 203.048816 
L 338.294214 203.092898 
L 338.474498 205.759837 
L 338.654781 189.824327 
L 338.835065 188.545959 
L 339.015348 278.384327 
L 339.195632 189.141061 
L 339.375915 204.569633 
L 339.556199 191.984327 
L 339.918569 266.261878 
L 340.098853 186.231673 
L 340.461222 151.208816 
L 340.643308 147.682286 
L 340.825394 138.425143 
L 341.005678 150.988408 
L 341.185962 183.98351 
L 341.366245 113.320653 
L 341.546529 108.758204 
L 341.726812 110.234939 
L 342.087379 124.892082 
L 342.267663 126.302694 
L 342.447946 126.611265 
L 342.808513 113.254531 
L 342.988797 114.621061 
L 343.349364 129.586776 
L 343.529647 211.049633 
L 343.709931 192.204735 
L 343.892017 117.905143 
L 344.254387 90.81698 
L 344.494164 95.665959 
L 344.674448 90.045551 
L 344.856534 92.249633 
L 345.036818 102.608816 
L 345.217101 101.925551 
L 345.397384 102.035755 
L 345.579471 102.366367 
L 345.761557 103.953306 
L 345.941841 100.404735 
L 346.304211 103.887184 
L 346.486297 157.027592 
L 346.846864 127.338612 
L 347.387714 153.126367 
L 347.567998 150.062694 
L 347.748282 153.787592 
L 347.928565 154.82351 
L 348.108849 146.646367 
L 348.289132 156.851265 
L 348.469415 158.372082 
L 348.649699 149.533714 
L 348.831786 202.453714 
L 349.012069 184.203918 
L 349.194155 145.169633 
L 349.556525 127.382694 
L 349.738611 123.679837 
L 349.918895 211.137796 
L 350.099178 147.373714 
L 350.279462 155.749224 
L 350.459745 130.270041 
L 350.640029 129.652898 
L 350.820313 132.606367 
L 351.000596 133.355755 
L 351.18088 141.268408 
L 351.361163 138.381061 
L 351.72173 148.960653 
L 351.902013 164.984327 
L 352.082297 159.716571 
L 352.262581 165.07249 
L 352.442864 145.566367 
L 352.623148 154.757388 
L 352.985518 179.553306 
L 353.167604 149.004735 
L 353.71206 209.859429 
L 353.892344 203.004735 
L 354.252911 135.493714 
L 354.433194 156.212082 
L 354.613477 152.354939 
L 354.793761 132.14351 
L 354.974044 145.874939 
L 355.154328 144.332082 
L 355.334612 133.003102 
L 355.514895 145.963102 
L 355.695179 130.975347 
L 356.236029 144.221878 
L 356.416312 124.848 
L 356.778683 147.79249 
L 356.958966 150.481469 
L 357.141052 167.893714 
L 357.321336 211.248 
L 357.503422 149.13698 
L 357.685508 173.492082 
L 357.865792 176.291265 
L 358.046075 168.951673 
L 358.226359 179.068408 
L 358.408446 178.010449 
L 358.588729 213.606367 
L 358.770815 193.659429 
L 358.952902 147.307592 
L 359.133185 134.634122 
L 359.495555 152.39902 
L 359.675838 132.474122 
L 359.856122 127.404735 
L 360.036406 132.011265 
L 360.216689 147.968816 
L 360.396973 133.333714 
L 360.577256 182.220245 
L 360.757539 121.101061 
L 360.937823 120.880653 
L 361.118106 118.147592 
L 361.29839 117.596571 
L 361.478674 108.229224 
L 361.658957 109.838204 
L 361.839241 128.925551 
L 362.019524 112.923918 
L 362.199808 107.03902 
L 362.380091 116.847184 
L 362.560374 106.091265 
L 362.920942 113.078204 
L 363.101225 122.665959 
L 363.281509 125.11249 
L 363.461792 138.645551 
L 363.642076 116.47249 
L 363.822359 110.918204 
L 364.002643 108.91249 
L 364.182926 115.480653 
L 364.36321 117.199837 
L 364.543493 131.151673 
L 364.723777 108.38351 
L 364.90406 110.852082 
L 365.084344 109.19902 
L 365.264627 112.593306 
L 365.444911 104.173714 
L 365.626997 124.737796 
L 365.809084 109.309224 
L 366.171454 127.228408 
L 366.35354 176.996571 
L 366.533823 166.879837 
L 366.714107 126.038204 
L 366.89439 131.967184 
L 367.074674 125.39902 
L 367.254957 128.065959 
L 367.435241 182.220245 
L 367.795808 140.254531 
L 367.976091 142.194122 
L 368.156375 146.073306 
L 368.336658 176.401469 
L 368.516942 151.605551 
L 368.697225 153.19249 
L 368.877509 168.973714 
L 369.057792 172.059429 
L 369.238076 189.537796 
L 369.598643 175.960653 
L 369.778927 162.537796 
L 369.95921 158.790857 
L 370.139493 184.027592 
L 370.50006 157.600653 
L 370.680344 152.509224 
L 370.860627 153.765551 
L 371.040911 184.997388 
L 371.221195 154.250449 
L 371.581762 140.320653 
L 372.122612 150.393306 
L 372.302895 164.631673 
L 372.483179 234.148408 
L 372.663463 236.264327 
L 373.02403 160.994939 
L 373.204313 215.590041 
L 373.384597 224.516571 
L 373.566683 216.515755 
L 373.746967 154.250449 
L 373.929053 154.713306 
L 374.111139 171.376163 
L 374.291423 175.233306 
L 374.473509 197.362286 
L 374.653793 166.350857 
L 375.014359 153.941878 
L 375.374926 179.905959 
L 375.735494 194.563102 
L 376.096061 174.726367 
L 376.276344 186.341878 
L 376.456628 171.971265 
L 376.636911 169.745143 
L 376.817194 184.137796 
L 376.997478 236.220245 
L 377.177762 208.074122 
L 377.358045 210.741061 
L 377.540132 200.249633 
L 377.720416 181.074122 
L 377.902502 195.532898 
L 378.084588 189.670041 
L 378.264871 197.648816 
L 378.446957 240.606367 
L 378.627241 241.025143 
L 378.807525 251.075755 
L 378.987808 244.860245 
L 379.168092 246.491265 
L 379.348375 240.892898 
L 379.528659 217.948408 
L 379.889225 265.556571 
L 380.069509 256.87249 
L 380.249793 191.27902 
L 380.61036 167.056163 
L 380.790643 181.867592 
L 380.970927 184.049633 
L 381.15121 143.362286 
L 381.331494 160.972898 
L 381.51358 151.429224 
L 381.693864 150.018612 
L 381.87595 157.534531 
L 382.056233 158.526367 
L 382.418603 163.419429 
L 382.598887 173.205551 
L 382.780973 174.770449 
L 382.961256 184.600653 
L 383.321824 169.282286 
L 383.502107 183.190041 
L 383.862674 159.848816 
L 384.042958 158.504327 
L 384.225044 161.744327 
L 384.587414 179.905959 
L 384.767698 250.811265 
L 384.949784 237.322286 
L 385.130067 164.565551 
L 385.310351 150.50351 
L 385.492437 159.187592 
L 385.672721 159.452082 
L 385.853004 139.328816 
L 386.033288 142.899429 
L 386.213571 141.687184 
L 386.393855 137.25698 
L 386.574138 135.692082 
L 386.754422 137.367184 
L 386.934705 137.962286 
L 387.114989 126.963918 
L 387.295272 125.310857 
L 387.475556 133.796571 
L 387.657642 130.314122 
L 387.837926 144.133714 
L 388.020012 138.491265 
L 388.380579 227.271673 
L 388.562665 183.168 
L 388.742949 230.930449 
L 388.925035 234.633306 
L 389.105319 188.435755 
L 389.285602 175.299429 
L 389.646169 137.27902 
L 389.826453 135.978612 
L 390.18702 165.138612 
L 390.367303 165.160653 
L 390.547587 172.764735 
L 390.72787 168.488816 
L 390.908154 182.110041 
L 391.088437 171.55249 
L 391.268721 209.683102 
L 391.449004 161.369633 
L 391.629288 180.126367 
L 391.809572 158.901061 
L 391.989855 172.963102 
L 392.170138 173.073306 
L 392.350422 188.127184 
L 392.530705 179.597388 
L 392.891272 204.856163 
L 393.071556 193.923918 
L 393.25184 203.13698 
L 393.432123 184.666776 
L 393.612407 148.806367 
L 393.79269 151.473306 
L 393.972973 182.661061 
L 394.153257 183.630857 
L 394.33354 210.630857 
L 394.513824 151.473306 
L 394.694108 141.797388 
L 395.236761 200.315755 
L 395.599131 171.133714 
L 395.779414 172.478204 
L 395.959698 179.465143 
L 396.141784 156.101878 
L 396.322068 162.449633 
L 396.504154 232.605551 
L 397.045004 144.420245 
L 397.225288 147.197388 
L 397.405571 156.168 
L 397.766139 191.631673 
L 397.946422 174.065143 
L 398.126706 145.434122 
L 398.306989 144.177796 
L 398.487273 146.095347 
L 398.487273 146.095347 
" style="fill:none;stroke:#1f77b4;stroke-linecap:square;stroke-width:1.5;"/>
   </g>
   <g id="patch_3">
    <path d="M 57.6 307.584 
L 57.6 41.472 
" style="fill:none;stroke:#000000;stroke-linecap:square;stroke-linejoin:miter;stroke-width:0.8;"/>
   </g>
   <g id="patch_4">
    <path d="M 414.72 307.584 
L 414.72 41.472 
" style="fill:none;stroke:#000000;stroke-linecap:square;stroke-linejoin:miter;stroke-width:0.8;"/>
   </g>
   <g id="patch_5">
    <path d="M 57.6 307.584 
L 414.72 307.584 
" style="fill:none;stroke:#000000;stroke-linecap:square;stroke-linejoin:miter;stroke-width:0.8;"/>
   </g>
   <g id="patch_6">
    <path d="M 57.6 41.472 
L 414.72 41.472 
" style="fill:none;stroke:#000000;stroke-linecap:square;stroke-linejoin:miter;stroke-width:0.8;"/>
   </g>
   <g id="text_17">
    <!-- Voltage -->
    <g transform="translate(213.194063 35.472)scale(0.12 -0.12)">
     <use xlink:href="#DejaVuSans-56"/>
     <use x="68.298828" xlink:href="#DejaVuSans-6f"/>
     <use x="129.480469" xlink:href="#DejaVuSans-6c"/>
     <use x="157.263672" xlink:href="#DejaVuSans-74"/>
     <use x="196.472656" xlink:href="#DejaVuSans-61"/>
     <use x="257.751953" xlink:href="#DejaVuSans-67"/>
     <use x="321.228516" xlink:href="#DejaVuSans-65"/>
    </g>
   </g>
  </g>
 </g>
 <defs>
  <clipPath id="p8e4922c25b">
   <rect height="266.112" width="357.12" x="57.6" y="41.472"/>
  </clipPath>
 </defs>
</svg>
