<?xml version="1.0" encoding="utf-8" standalone="no"?>
<!DOCTYPE svg PUBLIC "-//W3C//DTD SVG 1.1//EN"
  "http://www.w3.org/Graphics/SVG/1.1/DTD/svg11.dtd">
<!-- Created with matplotlib (http://matplotlib.org/) -->
<svg height="345pt" version="1.1" viewBox="0 0 460 345" width="460pt" xmlns="http://www.w3.org/2000/svg" xmlns:xlink="http://www.w3.org/1999/xlink">
 <defs>
  <style type="text/css">
*{stroke-linecap:butt;stroke-linejoin:round;}
  </style>
 </defs>
 <g id="figure_1">
  <g id="patch_1">
   <path d="M 0 345.6 
L 460.8 345.6 
L 460.8 0 
L 0 0 
z
" style="fill:#ffffff;"/>
  </g>
  <g id="axes_1">
   <g id="patch_2">
    <path d="M 57.6 307.584 
L 414.72 307.584 
L 414.72 41.472 
L 57.6 41.472 
z
" style="fill:#ffffff;"/>
   </g>
   <g id="matplotlib.axis_1">
    <g id="xtick_1">
     <g id="line2d_1">
      <defs>
       <path d="M 0 0 
L 0 3.5 
" id="m955112d1ad" style="stroke:#000000;stroke-width:0.8;"/>
      </defs>
      <g>
       <use style="stroke:#000000;stroke-width:0.8;" x="73.832727" xlink:href="#m955112d1ad" y="307.584"/>
      </g>
     </g>
     <g id="text_1">
      <!-- 0 -->
      <defs>
       <path d="M 31.78125 66.40625 
Q 24.171875 66.40625 20.328125 58.90625 
Q 16.5 51.421875 16.5 36.375 
Q 16.5 21.390625 20.328125 13.890625 
Q 24.171875 6.390625 31.78125 6.390625 
Q 39.453125 6.390625 43.28125 13.890625 
Q 47.125 21.390625 47.125 36.375 
Q 47.125 51.421875 43.28125 58.90625 
Q 39.453125 66.40625 31.78125 66.40625 
z
M 31.78125 74.21875 
Q 44.046875 74.21875 50.515625 64.515625 
Q 56.984375 54.828125 56.984375 36.375 
Q 56.984375 17.96875 50.515625 8.265625 
Q 44.046875 -1.421875 31.78125 -1.421875 
Q 19.53125 -1.421875 13.0625 8.265625 
Q 6.59375 17.96875 6.59375 36.375 
Q 6.59375 54.828125 13.0625 64.515625 
Q 19.53125 74.21875 31.78125 74.21875 
z
" id="DejaVuSans-30"/>
      </defs>
      <g transform="translate(70.651477 322.182437)scale(0.1 -0.1)">
       <use xlink:href="#DejaVuSans-30"/>
      </g>
     </g>
    </g>
    <g id="xtick_2">
     <g id="line2d_2">
      <g>
       <use style="stroke:#000000;stroke-width:0.8;" x="127.939383" xlink:href="#m955112d1ad" y="307.584"/>
      </g>
     </g>
     <g id="text_2">
      <!-- 100 -->
      <defs>
       <path d="M 12.40625 8.296875 
L 28.515625 8.296875 
L 28.515625 63.921875 
L 10.984375 60.40625 
L 10.984375 69.390625 
L 28.421875 72.90625 
L 38.28125 72.90625 
L 38.28125 8.296875 
L 54.390625 8.296875 
L 54.390625 0 
L 12.40625 0 
z
" id="DejaVuSans-31"/>
      </defs>
      <g transform="translate(118.395633 322.182437)scale(0.1 -0.1)">
       <use xlink:href="#DejaVuSans-31"/>
       <use x="63.623047" xlink:href="#DejaVuSans-30"/>
       <use x="127.246094" xlink:href="#DejaVuSans-30"/>
      </g>
     </g>
    </g>
    <g id="xtick_3">
     <g id="line2d_3">
      <g>
       <use style="stroke:#000000;stroke-width:0.8;" x="182.04604" xlink:href="#m955112d1ad" y="307.584"/>
      </g>
     </g>
     <g id="text_3">
      <!-- 200 -->
      <defs>
       <path d="M 19.1875 8.296875 
L 53.609375 8.296875 
L 53.609375 0 
L 7.328125 0 
L 7.328125 8.296875 
Q 12.9375 14.109375 22.625 23.890625 
Q 32.328125 33.6875 34.8125 36.53125 
Q 39.546875 41.84375 41.421875 45.53125 
Q 43.3125 49.21875 43.3125 52.78125 
Q 43.3125 58.59375 39.234375 62.25 
Q 35.15625 65.921875 28.609375 65.921875 
Q 23.96875 65.921875 18.8125 64.3125 
Q 13.671875 62.703125 7.8125 59.421875 
L 7.8125 69.390625 
Q 13.765625 71.78125 18.9375 73 
Q 24.125 74.21875 28.421875 74.21875 
Q 39.75 74.21875 46.484375 68.546875 
Q 53.21875 62.890625 53.21875 53.421875 
Q 53.21875 48.921875 51.53125 44.890625 
Q 49.859375 40.875 45.40625 35.40625 
Q 44.1875 33.984375 37.640625 27.21875 
Q 31.109375 20.453125 19.1875 8.296875 
z
" id="DejaVuSans-32"/>
      </defs>
      <g transform="translate(172.50229 322.182437)scale(0.1 -0.1)">
       <use xlink:href="#DejaVuSans-32"/>
       <use x="63.623047" xlink:href="#DejaVuSans-30"/>
       <use x="127.246094" xlink:href="#DejaVuSans-30"/>
      </g>
     </g>
    </g>
    <g id="xtick_4">
     <g id="line2d_4">
      <g>
       <use style="stroke:#000000;stroke-width:0.8;" x="236.152696" xlink:href="#m955112d1ad" y="307.584"/>
      </g>
     </g>
     <g id="text_4">
      <!-- 300 -->
      <defs>
       <path d="M 40.578125 39.3125 
Q 47.65625 37.796875 51.625 33 
Q 55.609375 28.21875 55.609375 21.1875 
Q 55.609375 10.40625 48.1875 4.484375 
Q 40.765625 -1.421875 27.09375 -1.421875 
Q 22.515625 -1.421875 17.65625 -0.515625 
Q 12.796875 0.390625 7.625 2.203125 
L 7.625 11.71875 
Q 11.71875 9.328125 16.59375 8.109375 
Q 21.484375 6.890625 26.8125 6.890625 
Q 36.078125 6.890625 40.9375 10.546875 
Q 45.796875 14.203125 45.796875 21.1875 
Q 45.796875 27.640625 41.28125 31.265625 
Q 36.765625 34.90625 28.71875 34.90625 
L 20.21875 34.90625 
L 20.21875 43.015625 
L 29.109375 43.015625 
Q 36.375 43.015625 40.234375 45.921875 
Q 44.09375 48.828125 44.09375 54.296875 
Q 44.09375 59.90625 40.109375 62.90625 
Q 36.140625 65.921875 28.71875 65.921875 
Q 24.65625 65.921875 20.015625 65.03125 
Q 15.375 64.15625 9.8125 62.3125 
L 9.8125 71.09375 
Q 15.4375 72.65625 20.34375 73.4375 
Q 25.25 74.21875 29.59375 74.21875 
Q 40.828125 74.21875 47.359375 69.109375 
Q 53.90625 64.015625 53.90625 55.328125 
Q 53.90625 49.265625 50.4375 45.09375 
Q 46.96875 40.921875 40.578125 39.3125 
z
" id="DejaVuSans-33"/>
      </defs>
      <g transform="translate(226.608946 322.182437)scale(0.1 -0.1)">
       <use xlink:href="#DejaVuSans-33"/>
       <use x="63.623047" xlink:href="#DejaVuSans-30"/>
       <use x="127.246094" xlink:href="#DejaVuSans-30"/>
      </g>
     </g>
    </g>
    <g id="xtick_5">
     <g id="line2d_5">
      <g>
       <use style="stroke:#000000;stroke-width:0.8;" x="290.259352" xlink:href="#m955112d1ad" y="307.584"/>
      </g>
     </g>
     <g id="text_5">
      <!-- 400 -->
      <defs>
       <path d="M 37.796875 64.3125 
L 12.890625 25.390625 
L 37.796875 25.390625 
z
M 35.203125 72.90625 
L 47.609375 72.90625 
L 47.609375 25.390625 
L 58.015625 25.390625 
L 58.015625 17.1875 
L 47.609375 17.1875 
L 47.609375 0 
L 37.796875 0 
L 37.796875 17.1875 
L 4.890625 17.1875 
L 4.890625 26.703125 
z
" id="DejaVuSans-34"/>
      </defs>
      <g transform="translate(280.715602 322.182437)scale(0.1 -0.1)">
       <use xlink:href="#DejaVuSans-34"/>
       <use x="63.623047" xlink:href="#DejaVuSans-30"/>
       <use x="127.246094" xlink:href="#DejaVuSans-30"/>
      </g>
     </g>
    </g>
    <g id="xtick_6">
     <g id="line2d_6">
      <g>
       <use style="stroke:#000000;stroke-width:0.8;" x="344.366008" xlink:href="#m955112d1ad" y="307.584"/>
      </g>
     </g>
     <g id="text_6">
      <!-- 500 -->
      <defs>
       <path d="M 10.796875 72.90625 
L 49.515625 72.90625 
L 49.515625 64.59375 
L 19.828125 64.59375 
L 19.828125 46.734375 
Q 21.96875 47.46875 24.109375 47.828125 
Q 26.265625 48.1875 28.421875 48.1875 
Q 40.625 48.1875 47.75 41.5 
Q 54.890625 34.8125 54.890625 23.390625 
Q 54.890625 11.625 47.5625 5.09375 
Q 40.234375 -1.421875 26.90625 -1.421875 
Q 22.3125 -1.421875 17.546875 -0.640625 
Q 12.796875 0.140625 7.71875 1.703125 
L 7.71875 11.625 
Q 12.109375 9.234375 16.796875 8.0625 
Q 21.484375 6.890625 26.703125 6.890625 
Q 35.15625 6.890625 40.078125 11.328125 
Q 45.015625 15.765625 45.015625 23.390625 
Q 45.015625 31 40.078125 35.4375 
Q 35.15625 39.890625 26.703125 39.890625 
Q 22.75 39.890625 18.8125 39.015625 
Q 14.890625 38.140625 10.796875 36.28125 
z
" id="DejaVuSans-35"/>
      </defs>
      <g transform="translate(334.822258 322.182437)scale(0.1 -0.1)">
       <use xlink:href="#DejaVuSans-35"/>
       <use x="63.623047" xlink:href="#DejaVuSans-30"/>
       <use x="127.246094" xlink:href="#DejaVuSans-30"/>
      </g>
     </g>
    </g>
    <g id="xtick_7">
     <g id="line2d_7">
      <g>
       <use style="stroke:#000000;stroke-width:0.8;" x="398.472664" xlink:href="#m955112d1ad" y="307.584"/>
      </g>
     </g>
     <g id="text_7">
      <!-- 600 -->
      <defs>
       <path d="M 33.015625 40.375 
Q 26.375 40.375 22.484375 35.828125 
Q 18.609375 31.296875 18.609375 23.390625 
Q 18.609375 15.53125 22.484375 10.953125 
Q 26.375 6.390625 33.015625 6.390625 
Q 39.65625 6.390625 43.53125 10.953125 
Q 47.40625 15.53125 47.40625 23.390625 
Q 47.40625 31.296875 43.53125 35.828125 
Q 39.65625 40.375 33.015625 40.375 
z
M 52.59375 71.296875 
L 52.59375 62.3125 
Q 48.875 64.0625 45.09375 64.984375 
Q 41.3125 65.921875 37.59375 65.921875 
Q 27.828125 65.921875 22.671875 59.328125 
Q 17.53125 52.734375 16.796875 39.40625 
Q 19.671875 43.65625 24.015625 45.921875 
Q 28.375 48.1875 33.59375 48.1875 
Q 44.578125 48.1875 50.953125 41.515625 
Q 57.328125 34.859375 57.328125 23.390625 
Q 57.328125 12.15625 50.6875 5.359375 
Q 44.046875 -1.421875 33.015625 -1.421875 
Q 20.359375 -1.421875 13.671875 8.265625 
Q 6.984375 17.96875 6.984375 36.375 
Q 6.984375 53.65625 15.1875 63.9375 
Q 23.390625 74.21875 37.203125 74.21875 
Q 40.921875 74.21875 44.703125 73.484375 
Q 48.484375 72.75 52.59375 71.296875 
z
" id="DejaVuSans-36"/>
      </defs>
      <g transform="translate(388.928914 322.182437)scale(0.1 -0.1)">
       <use xlink:href="#DejaVuSans-36"/>
       <use x="63.623047" xlink:href="#DejaVuSans-30"/>
       <use x="127.246094" xlink:href="#DejaVuSans-30"/>
      </g>
     </g>
    </g>
    <g id="text_8">
     <!-- t(s) -->
     <defs>
      <path d="M 18.3125 70.21875 
L 18.3125 54.6875 
L 36.8125 54.6875 
L 36.8125 47.703125 
L 18.3125 47.703125 
L 18.3125 18.015625 
Q 18.3125 11.328125 20.140625 9.421875 
Q 21.96875 7.515625 27.59375 7.515625 
L 36.8125 7.515625 
L 36.8125 0 
L 27.59375 0 
Q 17.1875 0 13.234375 3.875 
Q 9.28125 7.765625 9.28125 18.015625 
L 9.28125 47.703125 
L 2.6875 47.703125 
L 2.6875 54.6875 
L 9.28125 54.6875 
L 9.28125 70.21875 
z
" id="DejaVuSans-74"/>
      <path d="M 31 75.875 
Q 24.46875 64.65625 21.28125 53.65625 
Q 18.109375 42.671875 18.109375 31.390625 
Q 18.109375 20.125 21.3125 9.0625 
Q 24.515625 -2 31 -13.1875 
L 23.1875 -13.1875 
Q 15.875 -1.703125 12.234375 9.375 
Q 8.59375 20.453125 8.59375 31.390625 
Q 8.59375 42.28125 12.203125 53.3125 
Q 15.828125 64.359375 23.1875 75.875 
z
" id="DejaVuSans-28"/>
      <path d="M 44.28125 53.078125 
L 44.28125 44.578125 
Q 40.484375 46.53125 36.375 47.5 
Q 32.28125 48.484375 27.875 48.484375 
Q 21.1875 48.484375 17.84375 46.4375 
Q 14.5 44.390625 14.5 40.28125 
Q 14.5 37.15625 16.890625 35.375 
Q 19.28125 33.59375 26.515625 31.984375 
L 29.59375 31.296875 
Q 39.15625 29.25 43.1875 25.515625 
Q 47.21875 21.78125 47.21875 15.09375 
Q 47.21875 7.46875 41.1875 3.015625 
Q 35.15625 -1.421875 24.609375 -1.421875 
Q 20.21875 -1.421875 15.453125 -0.5625 
Q 10.6875 0.296875 5.421875 2 
L 5.421875 11.28125 
Q 10.40625 8.6875 15.234375 7.390625 
Q 20.0625 6.109375 24.8125 6.109375 
Q 31.15625 6.109375 34.5625 8.28125 
Q 37.984375 10.453125 37.984375 14.40625 
Q 37.984375 18.0625 35.515625 20.015625 
Q 33.0625 21.96875 24.703125 23.78125 
L 21.578125 24.515625 
Q 13.234375 26.265625 9.515625 29.90625 
Q 5.8125 33.546875 5.8125 39.890625 
Q 5.8125 47.609375 11.28125 51.796875 
Q 16.75 56 26.8125 56 
Q 31.78125 56 36.171875 55.265625 
Q 40.578125 54.546875 44.28125 53.078125 
z
" id="DejaVuSans-73"/>
      <path d="M 8.015625 75.875 
L 15.828125 75.875 
Q 23.140625 64.359375 26.78125 53.3125 
Q 30.421875 42.28125 30.421875 31.390625 
Q 30.421875 20.453125 26.78125 9.375 
Q 23.140625 -1.703125 15.828125 -13.1875 
L 8.015625 -13.1875 
Q 14.5 -2 17.703125 9.0625 
Q 20.90625 20.125 20.90625 31.390625 
Q 20.90625 42.671875 17.703125 53.65625 
Q 14.5 64.65625 8.015625 75.875 
z
" id="DejaVuSans-29"/>
     </defs>
     <g transform="translate(227.693594 335.860562)scale(0.1 -0.1)">
      <use xlink:href="#DejaVuSans-74"/>
      <use x="39.208984" xlink:href="#DejaVuSans-28"/>
      <use x="78.222656" xlink:href="#DejaVuSans-73"/>
      <use x="130.322266" xlink:href="#DejaVuSans-29"/>
     </g>
    </g>
   </g>
   <g id="matplotlib.axis_2">
    <g id="ytick_1">
     <g id="line2d_8">
      <defs>
       <path d="M 0 0 
L -3.5 0 
" id="m8470fe8678" style="stroke:#000000;stroke-width:0.8;"/>
      </defs>
      <g>
       <use style="stroke:#000000;stroke-width:0.8;" x="57.6" xlink:href="#m8470fe8678" y="284.037475"/>
      </g>
     </g>
     <g id="text_9">
      <!-- −0.00006 -->
      <defs>
       <path d="M 10.59375 35.5 
L 73.1875 35.5 
L 73.1875 27.203125 
L 10.59375 27.203125 
z
" id="DejaVuSans-2212"/>
       <path d="M 10.6875 12.40625 
L 21 12.40625 
L 21 0 
L 10.6875 0 
z
" id="DejaVuSans-2e"/>
      </defs>
      <g transform="translate(0.867188 287.836693)scale(0.1 -0.1)">
       <use xlink:href="#DejaVuSans-2212"/>
       <use x="83.789062" xlink:href="#DejaVuSans-30"/>
       <use x="147.412109" xlink:href="#DejaVuSans-2e"/>
       <use x="179.199219" xlink:href="#DejaVuSans-30"/>
       <use x="242.822266" xlink:href="#DejaVuSans-30"/>
       <use x="306.445312" xlink:href="#DejaVuSans-30"/>
       <use x="370.068359" xlink:href="#DejaVuSans-30"/>
       <use x="433.691406" xlink:href="#DejaVuSans-36"/>
      </g>
     </g>
    </g>
    <g id="ytick_2">
     <g id="line2d_9">
      <g>
       <use style="stroke:#000000;stroke-width:0.8;" x="57.6" xlink:href="#m8470fe8678" y="236.974074"/>
      </g>
     </g>
     <g id="text_10">
      <!-- −0.00004 -->
      <g transform="translate(0.867188 240.773292)scale(0.1 -0.1)">
       <use xlink:href="#DejaVuSans-2212"/>
       <use x="83.789062" xlink:href="#DejaVuSans-30"/>
       <use x="147.412109" xlink:href="#DejaVuSans-2e"/>
       <use x="179.199219" xlink:href="#DejaVuSans-30"/>
       <use x="242.822266" xlink:href="#DejaVuSans-30"/>
       <use x="306.445312" xlink:href="#DejaVuSans-30"/>
       <use x="370.068359" xlink:href="#DejaVuSans-30"/>
       <use x="433.691406" xlink:href="#DejaVuSans-34"/>
      </g>
     </g>
    </g>
    <g id="ytick_3">
     <g id="line2d_10">
      <g>
       <use style="stroke:#000000;stroke-width:0.8;" x="57.6" xlink:href="#m8470fe8678" y="189.910673"/>
      </g>
     </g>
     <g id="text_11">
      <!-- −0.00002 -->
      <g transform="translate(0.867188 193.709891)scale(0.1 -0.1)">
       <use xlink:href="#DejaVuSans-2212"/>
       <use x="83.789062" xlink:href="#DejaVuSans-30"/>
       <use x="147.412109" xlink:href="#DejaVuSans-2e"/>
       <use x="179.199219" xlink:href="#DejaVuSans-30"/>
       <use x="242.822266" xlink:href="#DejaVuSans-30"/>
       <use x="306.445312" xlink:href="#DejaVuSans-30"/>
       <use x="370.068359" xlink:href="#DejaVuSans-30"/>
       <use x="433.691406" xlink:href="#DejaVuSans-32"/>
      </g>
     </g>
    </g>
    <g id="ytick_4">
     <g id="line2d_11">
      <g>
       <use style="stroke:#000000;stroke-width:0.8;" x="57.6" xlink:href="#m8470fe8678" y="142.847272"/>
      </g>
     </g>
     <g id="text_12">
      <!-- 0.00000 -->
      <g transform="translate(9.246875 146.64649)scale(0.1 -0.1)">
       <use xlink:href="#DejaVuSans-30"/>
       <use x="63.623047" xlink:href="#DejaVuSans-2e"/>
       <use x="95.410156" xlink:href="#DejaVuSans-30"/>
       <use x="159.033203" xlink:href="#DejaVuSans-30"/>
       <use x="222.65625" xlink:href="#DejaVuSans-30"/>
       <use x="286.279297" xlink:href="#DejaVuSans-30"/>
       <use x="349.902344" xlink:href="#DejaVuSans-30"/>
      </g>
     </g>
    </g>
    <g id="ytick_5">
     <g id="line2d_12">
      <g>
       <use style="stroke:#000000;stroke-width:0.8;" x="57.6" xlink:href="#m8470fe8678" y="95.783871"/>
      </g>
     </g>
     <g id="text_13">
      <!-- 0.00002 -->
      <g transform="translate(9.246875 99.583089)scale(0.1 -0.1)">
       <use xlink:href="#DejaVuSans-30"/>
       <use x="63.623047" xlink:href="#DejaVuSans-2e"/>
       <use x="95.410156" xlink:href="#DejaVuSans-30"/>
       <use x="159.033203" xlink:href="#DejaVuSans-30"/>
       <use x="222.65625" xlink:href="#DejaVuSans-30"/>
       <use x="286.279297" xlink:href="#DejaVuSans-30"/>
       <use x="349.902344" xlink:href="#DejaVuSans-32"/>
      </g>
     </g>
    </g>
    <g id="ytick_6">
     <g id="line2d_13">
      <g>
       <use style="stroke:#000000;stroke-width:0.8;" x="57.6" xlink:href="#m8470fe8678" y="48.72047"/>
      </g>
     </g>
     <g id="text_14">
      <!-- 0.00004 -->
      <g transform="translate(9.246875 52.519688)scale(0.1 -0.1)">
       <use xlink:href="#DejaVuSans-30"/>
       <use x="63.623047" xlink:href="#DejaVuSans-2e"/>
       <use x="95.410156" xlink:href="#DejaVuSans-30"/>
       <use x="159.033203" xlink:href="#DejaVuSans-30"/>
       <use x="222.65625" xlink:href="#DejaVuSans-30"/>
       <use x="286.279297" xlink:href="#DejaVuSans-30"/>
       <use x="349.902344" xlink:href="#DejaVuSans-34"/>
      </g>
     </g>
    </g>
    <g id="text_15">
     <!-- Pressure (bar) -->
     <defs>
      <path d="M 19.671875 64.796875 
L 19.671875 37.40625 
L 32.078125 37.40625 
Q 38.96875 37.40625 42.71875 40.96875 
Q 46.484375 44.53125 46.484375 51.125 
Q 46.484375 57.671875 42.71875 61.234375 
Q 38.96875 64.796875 32.078125 64.796875 
z
M 9.8125 72.90625 
L 32.078125 72.90625 
Q 44.34375 72.90625 50.609375 67.359375 
Q 56.890625 61.8125 56.890625 51.125 
Q 56.890625 40.328125 50.609375 34.8125 
Q 44.34375 29.296875 32.078125 29.296875 
L 19.671875 29.296875 
L 19.671875 0 
L 9.8125 0 
z
" id="DejaVuSans-50"/>
      <path d="M 41.109375 46.296875 
Q 39.59375 47.171875 37.8125 47.578125 
Q 36.03125 48 33.890625 48 
Q 26.265625 48 22.1875 43.046875 
Q 18.109375 38.09375 18.109375 28.8125 
L 18.109375 0 
L 9.078125 0 
L 9.078125 54.6875 
L 18.109375 54.6875 
L 18.109375 46.1875 
Q 20.953125 51.171875 25.484375 53.578125 
Q 30.03125 56 36.53125 56 
Q 37.453125 56 38.578125 55.875 
Q 39.703125 55.765625 41.0625 55.515625 
z
" id="DejaVuSans-72"/>
      <path d="M 56.203125 29.59375 
L 56.203125 25.203125 
L 14.890625 25.203125 
Q 15.484375 15.921875 20.484375 11.0625 
Q 25.484375 6.203125 34.421875 6.203125 
Q 39.59375 6.203125 44.453125 7.46875 
Q 49.3125 8.734375 54.109375 11.28125 
L 54.109375 2.78125 
Q 49.265625 0.734375 44.1875 -0.34375 
Q 39.109375 -1.421875 33.890625 -1.421875 
Q 20.796875 -1.421875 13.15625 6.1875 
Q 5.515625 13.8125 5.515625 26.8125 
Q 5.515625 40.234375 12.765625 48.109375 
Q 20.015625 56 32.328125 56 
Q 43.359375 56 49.78125 48.890625 
Q 56.203125 41.796875 56.203125 29.59375 
z
M 47.21875 32.234375 
Q 47.125 39.59375 43.09375 43.984375 
Q 39.0625 48.390625 32.421875 48.390625 
Q 24.90625 48.390625 20.390625 44.140625 
Q 15.875 39.890625 15.1875 32.171875 
z
" id="DejaVuSans-65"/>
      <path d="M 8.5 21.578125 
L 8.5 54.6875 
L 17.484375 54.6875 
L 17.484375 21.921875 
Q 17.484375 14.15625 20.5 10.265625 
Q 23.53125 6.390625 29.59375 6.390625 
Q 36.859375 6.390625 41.078125 11.03125 
Q 45.3125 15.671875 45.3125 23.6875 
L 45.3125 54.6875 
L 54.296875 54.6875 
L 54.296875 0 
L 45.3125 0 
L 45.3125 8.40625 
Q 42.046875 3.421875 37.71875 1 
Q 33.40625 -1.421875 27.6875 -1.421875 
Q 18.265625 -1.421875 13.375 4.4375 
Q 8.5 10.296875 8.5 21.578125 
z
M 31.109375 56 
z
" id="DejaVuSans-75"/>
      <path id="DejaVuSans-20"/>
      <path d="M 48.6875 27.296875 
Q 48.6875 37.203125 44.609375 42.84375 
Q 40.53125 48.484375 33.40625 48.484375 
Q 26.265625 48.484375 22.1875 42.84375 
Q 18.109375 37.203125 18.109375 27.296875 
Q 18.109375 17.390625 22.1875 11.75 
Q 26.265625 6.109375 33.40625 6.109375 
Q 40.53125 6.109375 44.609375 11.75 
Q 48.6875 17.390625 48.6875 27.296875 
z
M 18.109375 46.390625 
Q 20.953125 51.265625 25.265625 53.625 
Q 29.59375 56 35.59375 56 
Q 45.5625 56 51.78125 48.09375 
Q 58.015625 40.1875 58.015625 27.296875 
Q 58.015625 14.40625 51.78125 6.484375 
Q 45.5625 -1.421875 35.59375 -1.421875 
Q 29.59375 -1.421875 25.265625 0.953125 
Q 20.953125 3.328125 18.109375 8.203125 
L 18.109375 0 
L 9.078125 0 
L 9.078125 75.984375 
L 18.109375 75.984375 
z
" id="DejaVuSans-62"/>
      <path d="M 34.28125 27.484375 
Q 23.390625 27.484375 19.1875 25 
Q 14.984375 22.515625 14.984375 16.5 
Q 14.984375 11.71875 18.140625 8.90625 
Q 21.296875 6.109375 26.703125 6.109375 
Q 34.1875 6.109375 38.703125 11.40625 
Q 43.21875 16.703125 43.21875 25.484375 
L 43.21875 27.484375 
z
M 52.203125 31.203125 
L 52.203125 0 
L 43.21875 0 
L 43.21875 8.296875 
Q 40.140625 3.328125 35.546875 0.953125 
Q 30.953125 -1.421875 24.3125 -1.421875 
Q 15.921875 -1.421875 10.953125 3.296875 
Q 6 8.015625 6 15.921875 
Q 6 25.140625 12.171875 29.828125 
Q 18.359375 34.515625 30.609375 34.515625 
L 43.21875 34.515625 
L 43.21875 35.40625 
Q 43.21875 41.609375 39.140625 45 
Q 35.0625 48.390625 27.6875 48.390625 
Q 23 48.390625 18.546875 47.265625 
Q 14.109375 46.140625 10.015625 43.890625 
L 10.015625 52.203125 
Q 14.9375 54.109375 19.578125 55.046875 
Q 24.21875 56 28.609375 56 
Q 40.484375 56 46.34375 49.84375 
Q 52.203125 43.703125 52.203125 31.203125 
z
" id="DejaVuSans-61"/>
     </defs>
     <g transform="translate(-5.2125 209.9655)rotate(-90)scale(0.1 -0.1)">
      <use xlink:href="#DejaVuSans-50"/>
      <use x="60.287109" xlink:href="#DejaVuSans-72"/>
      <use x="101.369141" xlink:href="#DejaVuSans-65"/>
      <use x="162.892578" xlink:href="#DejaVuSans-73"/>
      <use x="214.992188" xlink:href="#DejaVuSans-73"/>
      <use x="267.091797" xlink:href="#DejaVuSans-75"/>
      <use x="330.470703" xlink:href="#DejaVuSans-72"/>
      <use x="371.552734" xlink:href="#DejaVuSans-65"/>
      <use x="433.076172" xlink:href="#DejaVuSans-20"/>
      <use x="464.863281" xlink:href="#DejaVuSans-28"/>
      <use x="503.876953" xlink:href="#DejaVuSans-62"/>
      <use x="567.353516" xlink:href="#DejaVuSans-61"/>
      <use x="628.632812" xlink:href="#DejaVuSans-72"/>
      <use x="669.746094" xlink:href="#DejaVuSans-29"/>
     </g>
    </g>
    <g id="text_16">
     <!-- +9.91e−1 -->
     <defs>
      <path d="M 46 62.703125 
L 46 35.5 
L 73.1875 35.5 
L 73.1875 27.203125 
L 46 27.203125 
L 46 0 
L 37.796875 0 
L 37.796875 27.203125 
L 10.59375 27.203125 
L 10.59375 35.5 
L 37.796875 35.5 
L 37.796875 62.703125 
z
" id="DejaVuSans-2b"/>
      <path d="M 10.984375 1.515625 
L 10.984375 10.5 
Q 14.703125 8.734375 18.5 7.8125 
Q 22.3125 6.890625 25.984375 6.890625 
Q 35.75 6.890625 40.890625 13.453125 
Q 46.046875 20.015625 46.78125 33.40625 
Q 43.953125 29.203125 39.59375 26.953125 
Q 35.25 24.703125 29.984375 24.703125 
Q 19.046875 24.703125 12.671875 31.3125 
Q 6.296875 37.9375 6.296875 49.421875 
Q 6.296875 60.640625 12.9375 67.421875 
Q 19.578125 74.21875 30.609375 74.21875 
Q 43.265625 74.21875 49.921875 64.515625 
Q 56.59375 54.828125 56.59375 36.375 
Q 56.59375 19.140625 48.40625 8.859375 
Q 40.234375 -1.421875 26.421875 -1.421875 
Q 22.703125 -1.421875 18.890625 -0.6875 
Q 15.09375 0.046875 10.984375 1.515625 
z
M 30.609375 32.421875 
Q 37.25 32.421875 41.125 36.953125 
Q 45.015625 41.5 45.015625 49.421875 
Q 45.015625 57.28125 41.125 61.84375 
Q 37.25 66.40625 30.609375 66.40625 
Q 23.96875 66.40625 20.09375 61.84375 
Q 16.21875 57.28125 16.21875 49.421875 
Q 16.21875 41.5 20.09375 36.953125 
Q 23.96875 32.421875 30.609375 32.421875 
z
" id="DejaVuSans-39"/>
     </defs>
     <g transform="translate(57.6 38.472)scale(0.1 -0.1)">
      <use xlink:href="#DejaVuSans-2b"/>
      <use x="83.789062" xlink:href="#DejaVuSans-39"/>
      <use x="147.412109" xlink:href="#DejaVuSans-2e"/>
      <use x="179.199219" xlink:href="#DejaVuSans-39"/>
      <use x="242.822266" xlink:href="#DejaVuSans-31"/>
      <use x="306.445312" xlink:href="#DejaVuSans-65"/>
      <use x="367.96875" xlink:href="#DejaVuSans-2212"/>
      <use x="451.757812" xlink:href="#DejaVuSans-31"/>
     </g>
    </g>
   </g>
   <g id="line2d_14">
    <path clip-path="url(#p033f4a9d2a)" d="M 73.832727 188.21639 
L 74.374335 192.92979 
L 74.915943 220.98193 
L 75.998076 155.900306 
L 76.539142 221.205481 
L 77.080209 240.506182 
L 77.621275 193.376892 
L 78.162342 173.629089 
L 78.703409 286.061201 
L 79.244475 166.447214 
L 79.785542 171.384165 
L 80.326608 260.253985 
L 80.867675 164.428194 
L 81.408741 206.841731 
L 81.949808 233.997313 
L 82.490874 189.788308 
L 83.031941 53.568 
L 83.573008 231.305287 
L 84.114074 199.212754 
L 85.196207 169.588696 
L 85.737274 219.186461 
L 86.27834 190.908417 
L 86.819407 212.228137 
L 87.360473 176.770571 
L 87.90154 185.971466 
L 88.442607 209.759662 
L 88.983673 209.536111 
L 89.52474 244.32067 
L 90.065806 168.468587 
L 90.606873 194.94881 
L 91.147939 180.361509 
L 91.689006 235.119776 
L 92.230073 163.305732 
L 92.771139 197.193734 
L 93.312206 166.000112 
L 93.853272 190.684866 
L 94.394339 100.02193 
L 94.935405 227.714349 
L 95.476472 248.35871 
L 96.017538 219.859468 
L 96.558605 176.54702 
L 97.099672 169.8146 
L 97.640738 182.606433 
L 98.181805 233.547858 
L 98.722871 200.784671 
L 99.263938 202.130685 
L 99.805004 251.502545 
L 100.346071 221.654937 
L 100.887138 148.49488 
L 101.428204 174.528 
L 101.969271 227.714349 
L 102.510337 218.513455 
L 103.051404 220.532474 
L 103.59247 225.918881 
L 104.133537 133.907579 
L 104.674603 199.662209 
L 105.21567 180.810964 
L 105.756737 192.480334 
L 106.297803 171.610069 
L 106.83887 212.677593 
L 107.379936 203.700249 
L 107.921003 168.915689 
L 108.462069 213.800055 
L 109.003136 167.569676 
L 109.544202 209.31256 
L 110.085269 163.305732 
L 110.626336 187.093928 
L 111.167402 168.019132 
L 111.708469 210.209117 
L 112.249535 194.499354 
L 112.790602 183.728895 
L 113.331668 231.528838 
L 113.872735 168.915689 
L 114.413802 188.439941 
L 114.954868 201.457678 
L 115.495935 165.550656 
L 116.037001 212.454042 
L 116.578068 244.544222 
L 117.119134 195.845367 
L 117.660201 216.044979 
L 118.201267 164.204643 
L 118.742334 208.190098 
L 119.283401 195.398265 
L 119.824467 199.662209 
L 120.365534 195.398265 
L 120.9066 187.543384 
L 121.447667 192.256783 
L 121.988733 233.547858 
L 122.5298 150.066797 
L 123.070867 172.506627 
L 123.611933 218.737006 
L 124.153 192.030879 
L 124.694066 227.937901 
L 125.235133 198.316196 
L 125.776199 148.49488 
L 126.317266 185.524364 
L 126.858332 195.398265 
L 127.399399 183.728895 
L 127.940466 234.220865 
L 128.481532 180.137957 
L 129.022599 157.472223 
L 129.563665 178.791944 
L 130.104732 220.756026 
L 130.645798 163.305732 
L 131.727931 233.098403 
L 132.268998 189.562403 
L 132.810065 204.149705 
L 133.351131 195.845367 
L 133.892198 126.502152 
L 134.433264 233.098403 
L 134.974331 174.751551 
L 135.515397 179.912053 
L 136.056464 242.075746 
L 136.597531 206.841731 
L 137.138597 210.432669 
L 137.679664 250.603634 
L 138.22073 262.72246 
L 138.761797 183.952446 
L 139.302863 151.636362 
L 139.84393 210.432669 
L 140.384996 189.562403 
L 140.926063 185.298459 
L 141.467671 270.351438 
L 142.008737 171.610069 
L 142.549804 197.193734 
L 143.09087 229.283914 
L 143.631937 190.908417 
L 144.173003 224.796419 
L 144.71407 217.390992 
L 145.255137 166.223663 
L 145.796203 214.24951 
L 146.33727 193.376892 
L 146.878336 200.558767 
L 147.419403 110.792389 
L 147.960469 198.090292 
L 148.501536 218.063999 
L 149.042602 179.015495 
L 149.583669 206.841731 
L 150.124736 217.614544 
L 150.665802 193.602796 
L 151.206869 217.614544 
L 151.747935 147.595969 
L 152.289002 177.893033 
L 152.830068 201.231774 
L 153.371135 164.204643 
L 153.912202 173.405538 
L 154.453268 153.655382 
L 154.994335 244.094766 
L 155.535401 206.394629 
L 156.076468 208.863104 
L 156.617534 198.316196 
L 157.158601 159.491243 
L 157.699667 198.763298 
L 158.240734 147.595969 
L 158.781801 215.369619 
L 159.322867 155.003748 
L 159.863934 204.59916 
L 160.405 179.912053 
L 161.487133 161.736168 
L 162.0282 144.454487 
L 162.569267 187.319832 
L 163.110333 148.944335 
L 163.6514 186.420921 
L 164.192466 177.443578 
L 164.733533 163.305732 
L 165.274599 192.256783 
L 165.815666 195.172361 
L 166.356732 199.212754 
L 166.897799 239.830822 
L 167.438866 178.56604 
L 167.979932 204.373256 
L 168.520999 212.004586 
L 169.062065 131.888559 
L 169.603132 180.58506 
L 170.144739 136.825509 
L 170.685806 216.044979 
L 171.226873 139.517536 
L 171.767939 143.332025 
L 172.309006 194.052252 
L 172.850072 201.90478 
L 173.391139 145.127493 
L 173.932205 218.737006 
L 174.473272 198.989203 
L 175.014338 142.884922 
L 175.555405 174.302096 
L 176.096472 163.978739 
L 176.637538 179.015495 
L 177.178605 155.003748 
L 177.719671 222.777399 
L 178.260738 218.960557 
L 178.801804 194.725259 
L 179.342871 179.464951 
L 179.883937 232.201845 
L 180.425004 156.573313 
L 180.966071 202.130685 
L 181.507678 149.391438 
L 182.049286 224.346963 
L 182.590352 198.763298 
L 183.131419 164.651745 
L 183.672486 150.5139 
L 184.213552 174.078545 
L 184.754619 216.717986 
L 185.295685 172.956082 
L 185.836752 175.874013 
L 186.377818 157.246319 
L 186.918885 192.256783 
L 187.459952 237.138795 
L 188.001018 150.5139 
L 188.542085 231.305287 
L 189.083151 196.071272 
L 189.624218 179.015495 
L 190.165284 184.625453 
L 190.706351 156.573313 
L 191.247417 227.041343 
L 191.789025 229.283914 
L 192.330092 124.706684 
L 192.871158 165.774207 
L 193.412225 173.405538 
L 193.953291 215.819075 
L 194.494358 188.439941 
L 195.035424 187.093928 
L 195.576491 170.711158 
L 196.117558 192.480334 
L 196.658624 171.610069 
L 197.199691 181.034515 
L 197.740757 156.573313 
L 198.282365 201.457678 
L 198.823431 158.592332 
L 199.364498 162.409174 
L 199.905564 224.123412 
L 200.446631 167.569676 
L 200.987698 187.093928 
L 201.528764 177.443578 
L 202.069831 217.614544 
L 202.610897 197.417285 
L 203.151964 240.280277 
L 203.69303 173.179634 
L 204.234097 149.391438 
L 204.775164 161.063161 
L 205.31623 193.153341 
L 205.857297 187.543384 
L 206.398363 197.417285 
L 206.93943 159.267692 
L 207.480496 217.390992 
L 208.021563 176.996475 
L 208.563171 164.428194 
L 209.104778 227.714349 
L 209.646386 150.066797 
L 210.187994 99.572474 
L 210.729601 216.717986 
L 211.271209 202.577787 
L 211.812816 108.99692 
L 212.354424 237.811802 
L 212.896032 265.414487 
L 213.437098 224.572867 
L 213.978165 237.588251 
L 214.519231 134.580585 
L 215.060298 193.153341 
L 215.601906 196.96783 
L 216.142972 214.696613 
L 216.684039 152.085817 
L 217.225105 197.193734 
L 217.766172 173.629089 
L 218.307779 228.610907 
L 218.848846 210.882124 
L 219.389913 174.302096 
L 219.930979 211.33158 
L 220.472046 202.577787 
L 221.013112 122.238208 
L 221.554179 191.134321 
L 222.095245 236.465789 
L 222.636312 161.510263 
L 223.177378 198.989203 
L 223.718445 157.695775 
L 224.259512 164.87765 
L 224.800578 176.770571 
L 225.341645 243.198208 
L 225.882711 207.067635 
L 226.423778 159.041788 
L 226.965385 218.960557 
L 227.506452 154.554293 
L 228.047519 210.658573 
L 228.588585 232.201845 
L 229.129652 224.123412 
L 229.670718 196.294823 
L 230.211785 199.662209 
L 230.752851 161.736168 
L 231.293918 206.394629 
L 231.834984 189.562403 
L 232.376051 209.985566 
L 232.917118 178.56604 
L 233.458184 166.673118 
L 233.999251 180.58506 
L 234.540317 249.03407 
L 235.081925 158.368781 
L 235.623533 267.43586 
L 236.16514 216.044979 
L 236.706207 204.149705 
L 237.247814 221.205481 
L 237.788881 251.726097 
L 238.329947 191.357872 
L 238.871014 165.774207 
L 239.412081 180.137957 
L 239.953147 227.264894 
L 240.494214 170.937063 
L 241.03528 238.261258 
L 241.576347 175.648109 
L 242.117413 171.384165 
L 242.65848 185.298459 
L 243.199546 193.153341 
L 243.740613 155.45085 
L 244.28168 243.647664 
L 244.822746 181.034515 
L 245.363813 160.387801 
L 245.904879 195.172361 
L 246.445946 170.937063 
L 246.987012 216.492081 
L 247.52862 163.755188 
L 248.070228 193.153341 
L 248.611294 202.577787 
L 249.152361 188.439941 
L 249.693427 208.863104 
L 250.234494 146.249956 
L 250.775561 150.739804 
L 251.316627 207.517091 
L 251.857694 175.874013 
L 252.39876 196.96783 
L 253.480893 225.692976 
L 254.02196 166.223663 
L 254.563026 222.551494 
L 255.104093 247.238601 
L 255.64516 200.784671 
L 256.186226 200.558767 
L 256.727293 192.92979 
L 257.268359 220.532474 
L 257.809426 142.211916 
L 258.350492 212.454042 
L 258.891559 190.23541 
L 259.432625 191.134321 
L 259.973692 229.060363 
L 260.514759 243.42176 
L 261.055825 175.201007 
L 261.596892 243.198208 
L 262.137958 168.019132 
L 262.679025 233.098403 
L 263.220091 216.717986 
L 263.761158 164.651745 
L 264.302225 152.758824 
L 264.843291 207.067635 
L 265.384358 204.822711 
L 265.925424 206.168724 
L 266.466491 176.770571 
L 267.007557 193.826348 
L 267.548624 184.175997 
L 268.08969 253.298014 
L 268.630757 167.346125 
L 269.171824 174.078545 
L 269.71289 222.777399 
L 270.253957 176.54702 
L 270.795023 117.077706 
L 271.33609 207.740642 
L 271.877156 161.063161 
L 272.418223 223.673956 
L 272.95929 219.633563 
L 273.500356 177.669482 
L 274.041423 205.721622 
L 274.582489 149.167886 
L 275.123556 183.055888 
L 275.664622 203.027242 
L 276.205689 184.401902 
L 276.746755 219.410012 
L 277.287822 192.030879 
L 277.828889 179.688502 
L 278.369955 193.376892 
L 278.911022 126.725704 
L 279.452088 260.030434 
L 279.993155 140.639998 
L 280.534221 202.130685 
L 281.075288 249.930628 
L 281.616354 213.574151 
L 282.157421 148.045424 
L 282.698488 197.193734 
L 283.780621 155.900306 
L 284.321687 210.658573 
L 284.862754 290.551049 
L 285.40382 142.211916 
L 285.944887 217.838095 
L 286.485954 235.792782 
L 287.02702 140.639998 
L 287.568087 161.510263 
L 288.65022 176.097564 
L 289.191286 178.791944 
L 289.732353 193.153341 
L 290.273419 171.610069 
L 290.814486 237.362347 
L 291.355553 158.818237 
L 291.896619 234.220865 
L 292.437686 157.919326 
L 292.978752 151.412811 
L 293.519819 227.264894 
L 294.060885 219.410012 
L 294.601952 233.098403 
L 295.143019 241.40274 
L 295.684085 152.982375 
L 296.225152 175.874013 
L 296.766218 227.714349 
L 297.307285 191.807328 
L 297.848351 251.502545 
L 298.389418 235.119776 
L 298.930484 186.870377 
L 299.471551 149.840893 
L 300.012618 238.484809 
L 300.553684 85.881731 
L 301.094751 177.443578 
L 301.635817 203.926153 
L 302.176884 168.468587 
L 302.71795 220.532474 
L 303.259017 182.606433 
L 303.800084 180.137957 
L 304.34115 209.31256 
L 304.882217 205.048616 
L 305.423283 149.840893 
L 305.96435 216.941537 
L 306.505416 107.650907 
L 307.046483 239.830822 
L 307.587549 185.524364 
L 308.128616 174.078545 
L 308.669683 198.539747 
L 309.210749 150.290349 
L 309.751816 210.658573 
L 310.292882 202.354236 
L 310.833949 172.283076 
L 311.375015 163.082181 
L 311.916082 196.294823 
L 312.457148 159.940699 
L 312.998215 201.008223 
L 313.539282 177.669482 
L 314.080348 172.283076 
L 314.621415 233.324307 
L 315.162481 158.368781 
L 315.703548 167.120221 
L 316.244614 158.14523 
L 316.785681 145.802853 
L 317.326748 226.142432 
L 317.867814 156.573313 
L 318.949947 205.048616 
L 319.491014 209.536111 
L 320.03208 216.044979 
L 320.573147 202.577787 
L 321.114213 145.127493 
L 321.65528 198.989203 
L 322.196347 127.848166 
L 322.737413 158.818237 
L 323.27848 210.209117 
L 323.819546 148.718431 
L 324.360613 139.517536 
L 324.901679 295.488 
L 325.442746 164.204643 
L 325.983813 237.588251 
L 326.524879 219.859468 
L 327.065946 260.70344 
L 327.607012 179.015495 
L 328.148079 146.922962 
L 328.689145 194.499354 
L 329.230212 200.558767 
L 329.771278 128.07407 
L 330.312345 211.33158 
L 330.853412 233.773762 
L 331.394478 243.42176 
L 331.935545 222.551494 
L 332.476611 149.617342 
L 333.017678 256.439496 
L 333.558744 216.941537 
L 334.099811 206.168724 
L 334.640877 189.338852 
L 335.181944 141.313005 
L 335.723011 207.517091 
L 336.264077 127.848166 
L 337.346751 227.041343 
L 337.887818 173.179634 
L 338.428884 232.425396 
L 338.969951 169.141594 
L 339.511018 203.253147 
L 340.052084 223.00095 
L 340.593151 210.432669 
L 341.134217 241.852195 
L 341.675284 184.849004 
L 342.21635 222.102039 
L 342.757417 209.536111 
L 343.298483 135.703047 
L 343.83955 146.026404 
L 344.380617 242.075746 
L 344.921683 155.227299 
L 345.46275 147.372418 
L 346.003816 257.336054 
L 346.544883 217.614544 
L 347.627016 125.603242 
L 348.168083 269.678431 
L 348.709149 198.090292 
L 349.250216 194.725259 
L 349.791282 215.369619 
L 350.873415 160.16425 
L 351.414482 198.090292 
L 351.955548 192.92979 
L 352.496615 197.640836 
L 353.037682 184.625453 
L 353.578748 217.614544 
L 354.119815 169.588696 
L 354.660881 221.429032 
L 355.201948 252.399103 
L 355.743014 226.815438 
L 356.284081 262.049454 
L 356.825148 222.327943 
L 357.366214 202.130685 
L 357.907281 189.788308 
L 358.448347 244.770126 
L 358.989414 212.677593 
L 359.53048 235.792782 
L 360.071547 220.532474 
L 360.612613 168.468587 
L 361.15368 214.023606 
L 361.694747 170.264056 
L 362.235813 203.700249 
L 362.77688 157.695775 
L 363.317946 179.464951 
L 363.859013 217.390992 
L 364.400079 181.034515 
L 364.941146 208.6372 
L 365.482212 209.31256 
L 366.023279 227.041343 
L 366.564346 217.390992 
L 367.105412 170.937063 
L 367.646479 159.267692 
L 368.187545 169.588696 
L 368.728612 190.011859 
L 369.269678 250.380083 
L 369.810745 230.182825 
L 370.351812 182.156977 
L 370.892878 181.034515 
L 371.433945 178.56604 
L 371.975011 161.736168 
L 372.516078 220.756026 
L 373.057144 180.810964 
L 373.598211 234.446769 
L 374.139277 201.231774 
L 374.680344 133.011021 
L 375.221411 184.401902 
L 375.762477 249.930628 
L 376.303544 226.591887 
L 376.84461 227.488445 
L 377.385677 226.591887 
L 378.46781 162.18327 
L 379.008877 263.844922 
L 379.549943 179.015495 
L 380.09101 219.633563 
L 380.632076 205.048616 
L 381.173143 114.832782 
L 381.714209 223.673956 
L 382.255276 205.495718 
L 382.796342 151.186906 
L 383.337409 191.581423 
L 383.878476 198.316196 
L 384.419542 212.901144 
L 384.960609 183.055888 
L 385.501675 255.317034 
L 386.042742 147.372418 
L 386.583808 164.428194 
L 387.124875 224.123412 
L 387.665942 164.651745 
L 388.207008 183.728895 
L 388.748075 225.469425 
L 389.289141 203.700249 
L 389.830208 242.075746 
L 390.371274 150.5139 
L 390.912341 98.673563 
L 391.453407 240.506182 
L 392.535541 132.785117 
L 393.076607 201.90478 
L 393.617674 181.483971 
L 394.15874 122.46176 
L 394.699807 204.822711 
L 395.240873 190.908417 
L 395.78194 211.105675 
L 396.323006 170.038152 
L 396.864073 209.536111 
L 397.40514 92.167048 
L 397.946206 208.6372 
L 398.487273 195.172361 
L 398.487273 195.172361 
" style="fill:none;stroke:#1f77b4;stroke-linecap:square;stroke-width:1.5;"/>
   </g>
   <g id="patch_3">
    <path d="M 57.6 307.584 
L 57.6 41.472 
" style="fill:none;stroke:#000000;stroke-linecap:square;stroke-linejoin:miter;stroke-width:0.8;"/>
   </g>
   <g id="patch_4">
    <path d="M 414.72 307.584 
L 414.72 41.472 
" style="fill:none;stroke:#000000;stroke-linecap:square;stroke-linejoin:miter;stroke-width:0.8;"/>
   </g>
   <g id="patch_5">
    <path d="M 57.6 307.584 
L 414.72 307.584 
" style="fill:none;stroke:#000000;stroke-linecap:square;stroke-linejoin:miter;stroke-width:0.8;"/>
   </g>
   <g id="patch_6">
    <path d="M 57.6 41.472 
L 414.72 41.472 
" style="fill:none;stroke:#000000;stroke-linecap:square;stroke-linejoin:miter;stroke-width:0.8;"/>
   </g>
   <g id="text_17">
    <!-- Pressure in main chamber -->
    <defs>
     <path d="M 9.421875 54.6875 
L 18.40625 54.6875 
L 18.40625 0 
L 9.421875 0 
z
M 9.421875 75.984375 
L 18.40625 75.984375 
L 18.40625 64.59375 
L 9.421875 64.59375 
z
" id="DejaVuSans-69"/>
     <path d="M 54.890625 33.015625 
L 54.890625 0 
L 45.90625 0 
L 45.90625 32.71875 
Q 45.90625 40.484375 42.875 44.328125 
Q 39.84375 48.1875 33.796875 48.1875 
Q 26.515625 48.1875 22.3125 43.546875 
Q 18.109375 38.921875 18.109375 30.90625 
L 18.109375 0 
L 9.078125 0 
L 9.078125 54.6875 
L 18.109375 54.6875 
L 18.109375 46.1875 
Q 21.34375 51.125 25.703125 53.5625 
Q 30.078125 56 35.796875 56 
Q 45.21875 56 50.046875 50.171875 
Q 54.890625 44.34375 54.890625 33.015625 
z
" id="DejaVuSans-6e"/>
     <path d="M 52 44.1875 
Q 55.375 50.25 60.0625 53.125 
Q 64.75 56 71.09375 56 
Q 79.640625 56 84.28125 50.015625 
Q 88.921875 44.046875 88.921875 33.015625 
L 88.921875 0 
L 79.890625 0 
L 79.890625 32.71875 
Q 79.890625 40.578125 77.09375 44.375 
Q 74.3125 48.1875 68.609375 48.1875 
Q 61.625 48.1875 57.5625 43.546875 
Q 53.515625 38.921875 53.515625 30.90625 
L 53.515625 0 
L 44.484375 0 
L 44.484375 32.71875 
Q 44.484375 40.625 41.703125 44.40625 
Q 38.921875 48.1875 33.109375 48.1875 
Q 26.21875 48.1875 22.15625 43.53125 
Q 18.109375 38.875 18.109375 30.90625 
L 18.109375 0 
L 9.078125 0 
L 9.078125 54.6875 
L 18.109375 54.6875 
L 18.109375 46.1875 
Q 21.1875 51.21875 25.484375 53.609375 
Q 29.78125 56 35.6875 56 
Q 41.65625 56 45.828125 52.96875 
Q 50 49.953125 52 44.1875 
z
" id="DejaVuSans-6d"/>
     <path d="M 48.78125 52.59375 
L 48.78125 44.1875 
Q 44.96875 46.296875 41.140625 47.34375 
Q 37.3125 48.390625 33.40625 48.390625 
Q 24.65625 48.390625 19.8125 42.84375 
Q 14.984375 37.3125 14.984375 27.296875 
Q 14.984375 17.28125 19.8125 11.734375 
Q 24.65625 6.203125 33.40625 6.203125 
Q 37.3125 6.203125 41.140625 7.25 
Q 44.96875 8.296875 48.78125 10.40625 
L 48.78125 2.09375 
Q 45.015625 0.34375 40.984375 -0.53125 
Q 36.96875 -1.421875 32.421875 -1.421875 
Q 20.0625 -1.421875 12.78125 6.34375 
Q 5.515625 14.109375 5.515625 27.296875 
Q 5.515625 40.671875 12.859375 48.328125 
Q 20.21875 56 33.015625 56 
Q 37.15625 56 41.109375 55.140625 
Q 45.0625 54.296875 48.78125 52.59375 
z
" id="DejaVuSans-63"/>
     <path d="M 54.890625 33.015625 
L 54.890625 0 
L 45.90625 0 
L 45.90625 32.71875 
Q 45.90625 40.484375 42.875 44.328125 
Q 39.84375 48.1875 33.796875 48.1875 
Q 26.515625 48.1875 22.3125 43.546875 
Q 18.109375 38.921875 18.109375 30.90625 
L 18.109375 0 
L 9.078125 0 
L 9.078125 75.984375 
L 18.109375 75.984375 
L 18.109375 46.1875 
Q 21.34375 51.125 25.703125 53.5625 
Q 30.078125 56 35.796875 56 
Q 45.21875 56 50.046875 50.171875 
Q 54.890625 44.34375 54.890625 33.015625 
z
" id="DejaVuSans-68"/>
    </defs>
    <g transform="translate(157.405312 35.472)scale(0.12 -0.12)">
     <use xlink:href="#DejaVuSans-50"/>
     <use x="60.287109" xlink:href="#DejaVuSans-72"/>
     <use x="101.369141" xlink:href="#DejaVuSans-65"/>
     <use x="162.892578" xlink:href="#DejaVuSans-73"/>
     <use x="214.992188" xlink:href="#DejaVuSans-73"/>
     <use x="267.091797" xlink:href="#DejaVuSans-75"/>
     <use x="330.470703" xlink:href="#DejaVuSans-72"/>
     <use x="371.552734" xlink:href="#DejaVuSans-65"/>
     <use x="433.076172" xlink:href="#DejaVuSans-20"/>
     <use x="464.863281" xlink:href="#DejaVuSans-69"/>
     <use x="492.646484" xlink:href="#DejaVuSans-6e"/>
     <use x="556.025391" xlink:href="#DejaVuSans-20"/>
     <use x="587.8125" xlink:href="#DejaVuSans-6d"/>
     <use x="685.224609" xlink:href="#DejaVuSans-61"/>
     <use x="746.503906" xlink:href="#DejaVuSans-69"/>
     <use x="774.287109" xlink:href="#DejaVuSans-6e"/>
     <use x="837.666016" xlink:href="#DejaVuSans-20"/>
     <use x="869.453125" xlink:href="#DejaVuSans-63"/>
     <use x="924.433594" xlink:href="#DejaVuSans-68"/>
     <use x="987.8125" xlink:href="#DejaVuSans-61"/>
     <use x="1049.091797" xlink:href="#DejaVuSans-6d"/>
     <use x="1146.503906" xlink:href="#DejaVuSans-62"/>
     <use x="1209.980469" xlink:href="#DejaVuSans-65"/>
     <use x="1271.503906" xlink:href="#DejaVuSans-72"/>
    </g>
   </g>
  </g>
 </g>
 <defs>
  <clipPath id="p033f4a9d2a">
   <rect height="266.112" width="357.12" x="57.6" y="41.472"/>
  </clipPath>
 </defs>
</svg>
