<?xml version="1.0" encoding="utf-8" standalone="no"?>
<!DOCTYPE svg PUBLIC "-//W3C//DTD SVG 1.1//EN"
  "http://www.w3.org/Graphics/SVG/1.1/DTD/svg11.dtd">
<!-- Created with matplotlib (http://matplotlib.org/) -->
<svg height="345pt" version="1.1" viewBox="0 0 460 345" width="460pt" xmlns="http://www.w3.org/2000/svg" xmlns:xlink="http://www.w3.org/1999/xlink">
 <defs>
  <style type="text/css">
*{stroke-linecap:butt;stroke-linejoin:round;}
  </style>
 </defs>
 <g id="figure_1">
  <g id="patch_1">
   <path d="M 0 345.6 
L 460.8 345.6 
L 460.8 0 
L 0 0 
z
" style="fill:#ffffff;"/>
  </g>
  <g id="axes_1">
   <g id="patch_2">
    <path d="M 57.6 307.584 
L 414.72 307.584 
L 414.72 41.472 
L 57.6 41.472 
z
" style="fill:#ffffff;"/>
   </g>
   <g id="matplotlib.axis_1">
    <g id="xtick_1">
     <g id="line2d_1">
      <defs>
       <path d="M 0 0 
L 0 3.5 
" id="m3456bb91e0" style="stroke:#000000;stroke-width:0.8;"/>
      </defs>
      <g>
       <use style="stroke:#000000;stroke-width:0.8;" x="73.832727" xlink:href="#m3456bb91e0" y="307.584"/>
      </g>
     </g>
     <g id="text_1">
      <!-- 0 -->
      <defs>
       <path d="M 31.78125 66.40625 
Q 24.171875 66.40625 20.328125 58.90625 
Q 16.5 51.421875 16.5 36.375 
Q 16.5 21.390625 20.328125 13.890625 
Q 24.171875 6.390625 31.78125 6.390625 
Q 39.453125 6.390625 43.28125 13.890625 
Q 47.125 21.390625 47.125 36.375 
Q 47.125 51.421875 43.28125 58.90625 
Q 39.453125 66.40625 31.78125 66.40625 
z
M 31.78125 74.21875 
Q 44.046875 74.21875 50.515625 64.515625 
Q 56.984375 54.828125 56.984375 36.375 
Q 56.984375 17.96875 50.515625 8.265625 
Q 44.046875 -1.421875 31.78125 -1.421875 
Q 19.53125 -1.421875 13.0625 8.265625 
Q 6.59375 17.96875 6.59375 36.375 
Q 6.59375 54.828125 13.0625 64.515625 
Q 19.53125 74.21875 31.78125 74.21875 
z
" id="DejaVuSans-30"/>
      </defs>
      <g transform="translate(70.651477 322.182437)scale(0.1 -0.1)">
       <use xlink:href="#DejaVuSans-30"/>
      </g>
     </g>
    </g>
    <g id="xtick_2">
     <g id="line2d_2">
      <g>
       <use style="stroke:#000000;stroke-width:0.8;" x="128.031608" xlink:href="#m3456bb91e0" y="307.584"/>
      </g>
     </g>
     <g id="text_2">
      <!-- 100 -->
      <defs>
       <path d="M 12.40625 8.296875 
L 28.515625 8.296875 
L 28.515625 63.921875 
L 10.984375 60.40625 
L 10.984375 69.390625 
L 28.421875 72.90625 
L 38.28125 72.90625 
L 38.28125 8.296875 
L 54.390625 8.296875 
L 54.390625 0 
L 12.40625 0 
z
" id="DejaVuSans-31"/>
      </defs>
      <g transform="translate(118.487858 322.182437)scale(0.1 -0.1)">
       <use xlink:href="#DejaVuSans-31"/>
       <use x="63.623047" xlink:href="#DejaVuSans-30"/>
       <use x="127.246094" xlink:href="#DejaVuSans-30"/>
      </g>
     </g>
    </g>
    <g id="xtick_3">
     <g id="line2d_3">
      <g>
       <use style="stroke:#000000;stroke-width:0.8;" x="182.230488" xlink:href="#m3456bb91e0" y="307.584"/>
      </g>
     </g>
     <g id="text_3">
      <!-- 200 -->
      <defs>
       <path d="M 19.1875 8.296875 
L 53.609375 8.296875 
L 53.609375 0 
L 7.328125 0 
L 7.328125 8.296875 
Q 12.9375 14.109375 22.625 23.890625 
Q 32.328125 33.6875 34.8125 36.53125 
Q 39.546875 41.84375 41.421875 45.53125 
Q 43.3125 49.21875 43.3125 52.78125 
Q 43.3125 58.59375 39.234375 62.25 
Q 35.15625 65.921875 28.609375 65.921875 
Q 23.96875 65.921875 18.8125 64.3125 
Q 13.671875 62.703125 7.8125 59.421875 
L 7.8125 69.390625 
Q 13.765625 71.78125 18.9375 73 
Q 24.125 74.21875 28.421875 74.21875 
Q 39.75 74.21875 46.484375 68.546875 
Q 53.21875 62.890625 53.21875 53.421875 
Q 53.21875 48.921875 51.53125 44.890625 
Q 49.859375 40.875 45.40625 35.40625 
Q 44.1875 33.984375 37.640625 27.21875 
Q 31.109375 20.453125 19.1875 8.296875 
z
" id="DejaVuSans-32"/>
      </defs>
      <g transform="translate(172.686738 322.182437)scale(0.1 -0.1)">
       <use xlink:href="#DejaVuSans-32"/>
       <use x="63.623047" xlink:href="#DejaVuSans-30"/>
       <use x="127.246094" xlink:href="#DejaVuSans-30"/>
      </g>
     </g>
    </g>
    <g id="xtick_4">
     <g id="line2d_4">
      <g>
       <use style="stroke:#000000;stroke-width:0.8;" x="236.429368" xlink:href="#m3456bb91e0" y="307.584"/>
      </g>
     </g>
     <g id="text_4">
      <!-- 300 -->
      <defs>
       <path d="M 40.578125 39.3125 
Q 47.65625 37.796875 51.625 33 
Q 55.609375 28.21875 55.609375 21.1875 
Q 55.609375 10.40625 48.1875 4.484375 
Q 40.765625 -1.421875 27.09375 -1.421875 
Q 22.515625 -1.421875 17.65625 -0.515625 
Q 12.796875 0.390625 7.625 2.203125 
L 7.625 11.71875 
Q 11.71875 9.328125 16.59375 8.109375 
Q 21.484375 6.890625 26.8125 6.890625 
Q 36.078125 6.890625 40.9375 10.546875 
Q 45.796875 14.203125 45.796875 21.1875 
Q 45.796875 27.640625 41.28125 31.265625 
Q 36.765625 34.90625 28.71875 34.90625 
L 20.21875 34.90625 
L 20.21875 43.015625 
L 29.109375 43.015625 
Q 36.375 43.015625 40.234375 45.921875 
Q 44.09375 48.828125 44.09375 54.296875 
Q 44.09375 59.90625 40.109375 62.90625 
Q 36.140625 65.921875 28.71875 65.921875 
Q 24.65625 65.921875 20.015625 65.03125 
Q 15.375 64.15625 9.8125 62.3125 
L 9.8125 71.09375 
Q 15.4375 72.65625 20.34375 73.4375 
Q 25.25 74.21875 29.59375 74.21875 
Q 40.828125 74.21875 47.359375 69.109375 
Q 53.90625 64.015625 53.90625 55.328125 
Q 53.90625 49.265625 50.4375 45.09375 
Q 46.96875 40.921875 40.578125 39.3125 
z
" id="DejaVuSans-33"/>
      </defs>
      <g transform="translate(226.885618 322.182437)scale(0.1 -0.1)">
       <use xlink:href="#DejaVuSans-33"/>
       <use x="63.623047" xlink:href="#DejaVuSans-30"/>
       <use x="127.246094" xlink:href="#DejaVuSans-30"/>
      </g>
     </g>
    </g>
    <g id="xtick_5">
     <g id="line2d_5">
      <g>
       <use style="stroke:#000000;stroke-width:0.8;" x="290.628249" xlink:href="#m3456bb91e0" y="307.584"/>
      </g>
     </g>
     <g id="text_5">
      <!-- 400 -->
      <defs>
       <path d="M 37.796875 64.3125 
L 12.890625 25.390625 
L 37.796875 25.390625 
z
M 35.203125 72.90625 
L 47.609375 72.90625 
L 47.609375 25.390625 
L 58.015625 25.390625 
L 58.015625 17.1875 
L 47.609375 17.1875 
L 47.609375 0 
L 37.796875 0 
L 37.796875 17.1875 
L 4.890625 17.1875 
L 4.890625 26.703125 
z
" id="DejaVuSans-34"/>
      </defs>
      <g transform="translate(281.084499 322.182437)scale(0.1 -0.1)">
       <use xlink:href="#DejaVuSans-34"/>
       <use x="63.623047" xlink:href="#DejaVuSans-30"/>
       <use x="127.246094" xlink:href="#DejaVuSans-30"/>
      </g>
     </g>
    </g>
    <g id="xtick_6">
     <g id="line2d_6">
      <g>
       <use style="stroke:#000000;stroke-width:0.8;" x="344.827129" xlink:href="#m3456bb91e0" y="307.584"/>
      </g>
     </g>
     <g id="text_6">
      <!-- 500 -->
      <defs>
       <path d="M 10.796875 72.90625 
L 49.515625 72.90625 
L 49.515625 64.59375 
L 19.828125 64.59375 
L 19.828125 46.734375 
Q 21.96875 47.46875 24.109375 47.828125 
Q 26.265625 48.1875 28.421875 48.1875 
Q 40.625 48.1875 47.75 41.5 
Q 54.890625 34.8125 54.890625 23.390625 
Q 54.890625 11.625 47.5625 5.09375 
Q 40.234375 -1.421875 26.90625 -1.421875 
Q 22.3125 -1.421875 17.546875 -0.640625 
Q 12.796875 0.140625 7.71875 1.703125 
L 7.71875 11.625 
Q 12.109375 9.234375 16.796875 8.0625 
Q 21.484375 6.890625 26.703125 6.890625 
Q 35.15625 6.890625 40.078125 11.328125 
Q 45.015625 15.765625 45.015625 23.390625 
Q 45.015625 31 40.078125 35.4375 
Q 35.15625 39.890625 26.703125 39.890625 
Q 22.75 39.890625 18.8125 39.015625 
Q 14.890625 38.140625 10.796875 36.28125 
z
" id="DejaVuSans-35"/>
      </defs>
      <g transform="translate(335.283379 322.182437)scale(0.1 -0.1)">
       <use xlink:href="#DejaVuSans-35"/>
       <use x="63.623047" xlink:href="#DejaVuSans-30"/>
       <use x="127.246094" xlink:href="#DejaVuSans-30"/>
      </g>
     </g>
    </g>
    <g id="xtick_7">
     <g id="line2d_7">
      <g>
       <use style="stroke:#000000;stroke-width:0.8;" x="399.02601" xlink:href="#m3456bb91e0" y="307.584"/>
      </g>
     </g>
     <g id="text_7">
      <!-- 600 -->
      <defs>
       <path d="M 33.015625 40.375 
Q 26.375 40.375 22.484375 35.828125 
Q 18.609375 31.296875 18.609375 23.390625 
Q 18.609375 15.53125 22.484375 10.953125 
Q 26.375 6.390625 33.015625 6.390625 
Q 39.65625 6.390625 43.53125 10.953125 
Q 47.40625 15.53125 47.40625 23.390625 
Q 47.40625 31.296875 43.53125 35.828125 
Q 39.65625 40.375 33.015625 40.375 
z
M 52.59375 71.296875 
L 52.59375 62.3125 
Q 48.875 64.0625 45.09375 64.984375 
Q 41.3125 65.921875 37.59375 65.921875 
Q 27.828125 65.921875 22.671875 59.328125 
Q 17.53125 52.734375 16.796875 39.40625 
Q 19.671875 43.65625 24.015625 45.921875 
Q 28.375 48.1875 33.59375 48.1875 
Q 44.578125 48.1875 50.953125 41.515625 
Q 57.328125 34.859375 57.328125 23.390625 
Q 57.328125 12.15625 50.6875 5.359375 
Q 44.046875 -1.421875 33.015625 -1.421875 
Q 20.359375 -1.421875 13.671875 8.265625 
Q 6.984375 17.96875 6.984375 36.375 
Q 6.984375 53.65625 15.1875 63.9375 
Q 23.390625 74.21875 37.203125 74.21875 
Q 40.921875 74.21875 44.703125 73.484375 
Q 48.484375 72.75 52.59375 71.296875 
z
" id="DejaVuSans-36"/>
      </defs>
      <g transform="translate(389.48226 322.182437)scale(0.1 -0.1)">
       <use xlink:href="#DejaVuSans-36"/>
       <use x="63.623047" xlink:href="#DejaVuSans-30"/>
       <use x="127.246094" xlink:href="#DejaVuSans-30"/>
      </g>
     </g>
    </g>
    <g id="text_8">
     <!-- t(s) -->
     <defs>
      <path d="M 18.3125 70.21875 
L 18.3125 54.6875 
L 36.8125 54.6875 
L 36.8125 47.703125 
L 18.3125 47.703125 
L 18.3125 18.015625 
Q 18.3125 11.328125 20.140625 9.421875 
Q 21.96875 7.515625 27.59375 7.515625 
L 36.8125 7.515625 
L 36.8125 0 
L 27.59375 0 
Q 17.1875 0 13.234375 3.875 
Q 9.28125 7.765625 9.28125 18.015625 
L 9.28125 47.703125 
L 2.6875 47.703125 
L 2.6875 54.6875 
L 9.28125 54.6875 
L 9.28125 70.21875 
z
" id="DejaVuSans-74"/>
      <path d="M 31 75.875 
Q 24.46875 64.65625 21.28125 53.65625 
Q 18.109375 42.671875 18.109375 31.390625 
Q 18.109375 20.125 21.3125 9.0625 
Q 24.515625 -2 31 -13.1875 
L 23.1875 -13.1875 
Q 15.875 -1.703125 12.234375 9.375 
Q 8.59375 20.453125 8.59375 31.390625 
Q 8.59375 42.28125 12.203125 53.3125 
Q 15.828125 64.359375 23.1875 75.875 
z
" id="DejaVuSans-28"/>
      <path d="M 44.28125 53.078125 
L 44.28125 44.578125 
Q 40.484375 46.53125 36.375 47.5 
Q 32.28125 48.484375 27.875 48.484375 
Q 21.1875 48.484375 17.84375 46.4375 
Q 14.5 44.390625 14.5 40.28125 
Q 14.5 37.15625 16.890625 35.375 
Q 19.28125 33.59375 26.515625 31.984375 
L 29.59375 31.296875 
Q 39.15625 29.25 43.1875 25.515625 
Q 47.21875 21.78125 47.21875 15.09375 
Q 47.21875 7.46875 41.1875 3.015625 
Q 35.15625 -1.421875 24.609375 -1.421875 
Q 20.21875 -1.421875 15.453125 -0.5625 
Q 10.6875 0.296875 5.421875 2 
L 5.421875 11.28125 
Q 10.40625 8.6875 15.234375 7.390625 
Q 20.0625 6.109375 24.8125 6.109375 
Q 31.15625 6.109375 34.5625 8.28125 
Q 37.984375 10.453125 37.984375 14.40625 
Q 37.984375 18.0625 35.515625 20.015625 
Q 33.0625 21.96875 24.703125 23.78125 
L 21.578125 24.515625 
Q 13.234375 26.265625 9.515625 29.90625 
Q 5.8125 33.546875 5.8125 39.890625 
Q 5.8125 47.609375 11.28125 51.796875 
Q 16.75 56 26.8125 56 
Q 31.78125 56 36.171875 55.265625 
Q 40.578125 54.546875 44.28125 53.078125 
z
" id="DejaVuSans-73"/>
      <path d="M 8.015625 75.875 
L 15.828125 75.875 
Q 23.140625 64.359375 26.78125 53.3125 
Q 30.421875 42.28125 30.421875 31.390625 
Q 30.421875 20.453125 26.78125 9.375 
Q 23.140625 -1.703125 15.828125 -13.1875 
L 8.015625 -13.1875 
Q 14.5 -2 17.703125 9.0625 
Q 20.90625 20.125 20.90625 31.390625 
Q 20.90625 42.671875 17.703125 53.65625 
Q 14.5 64.65625 8.015625 75.875 
z
" id="DejaVuSans-29"/>
     </defs>
     <g transform="translate(227.693594 335.860562)scale(0.1 -0.1)">
      <use xlink:href="#DejaVuSans-74"/>
      <use x="39.208984" xlink:href="#DejaVuSans-28"/>
      <use x="78.222656" xlink:href="#DejaVuSans-73"/>
      <use x="130.322266" xlink:href="#DejaVuSans-29"/>
     </g>
    </g>
   </g>
   <g id="matplotlib.axis_2">
    <g id="ytick_1">
     <g id="line2d_8">
      <defs>
       <path d="M 0 0 
L -3.5 0 
" id="mc8d404da58" style="stroke:#000000;stroke-width:0.8;"/>
      </defs>
      <g>
       <use style="stroke:#000000;stroke-width:0.8;" x="57.6" xlink:href="#mc8d404da58" y="285.546082"/>
      </g>
     </g>
     <g id="text_9">
      <!-- 2.50 -->
      <defs>
       <path d="M 10.6875 12.40625 
L 21 12.40625 
L 21 0 
L 10.6875 0 
z
" id="DejaVuSans-2e"/>
      </defs>
      <g transform="translate(28.334375 289.345301)scale(0.1 -0.1)">
       <use xlink:href="#DejaVuSans-32"/>
       <use x="63.623047" xlink:href="#DejaVuSans-2e"/>
       <use x="95.410156" xlink:href="#DejaVuSans-35"/>
       <use x="159.033203" xlink:href="#DejaVuSans-30"/>
      </g>
     </g>
    </g>
    <g id="ytick_2">
     <g id="line2d_9">
      <g>
       <use style="stroke:#000000;stroke-width:0.8;" x="57.6" xlink:href="#mc8d404da58" y="252.406356"/>
      </g>
     </g>
     <g id="text_10">
      <!-- 2.51 -->
      <g transform="translate(28.334375 256.205575)scale(0.1 -0.1)">
       <use xlink:href="#DejaVuSans-32"/>
       <use x="63.623047" xlink:href="#DejaVuSans-2e"/>
       <use x="95.410156" xlink:href="#DejaVuSans-35"/>
       <use x="159.033203" xlink:href="#DejaVuSans-31"/>
      </g>
     </g>
    </g>
    <g id="ytick_3">
     <g id="line2d_10">
      <g>
       <use style="stroke:#000000;stroke-width:0.8;" x="57.6" xlink:href="#mc8d404da58" y="219.26663"/>
      </g>
     </g>
     <g id="text_11">
      <!-- 2.52 -->
      <g transform="translate(28.334375 223.065849)scale(0.1 -0.1)">
       <use xlink:href="#DejaVuSans-32"/>
       <use x="63.623047" xlink:href="#DejaVuSans-2e"/>
       <use x="95.410156" xlink:href="#DejaVuSans-35"/>
       <use x="159.033203" xlink:href="#DejaVuSans-32"/>
      </g>
     </g>
    </g>
    <g id="ytick_4">
     <g id="line2d_11">
      <g>
       <use style="stroke:#000000;stroke-width:0.8;" x="57.6" xlink:href="#mc8d404da58" y="186.126904"/>
      </g>
     </g>
     <g id="text_12">
      <!-- 2.53 -->
      <g transform="translate(28.334375 189.926123)scale(0.1 -0.1)">
       <use xlink:href="#DejaVuSans-32"/>
       <use x="63.623047" xlink:href="#DejaVuSans-2e"/>
       <use x="95.410156" xlink:href="#DejaVuSans-35"/>
       <use x="159.033203" xlink:href="#DejaVuSans-33"/>
      </g>
     </g>
    </g>
    <g id="ytick_5">
     <g id="line2d_12">
      <g>
       <use style="stroke:#000000;stroke-width:0.8;" x="57.6" xlink:href="#mc8d404da58" y="152.987178"/>
      </g>
     </g>
     <g id="text_13">
      <!-- 2.54 -->
      <g transform="translate(28.334375 156.786397)scale(0.1 -0.1)">
       <use xlink:href="#DejaVuSans-32"/>
       <use x="63.623047" xlink:href="#DejaVuSans-2e"/>
       <use x="95.410156" xlink:href="#DejaVuSans-35"/>
       <use x="159.033203" xlink:href="#DejaVuSans-34"/>
      </g>
     </g>
    </g>
    <g id="ytick_6">
     <g id="line2d_13">
      <g>
       <use style="stroke:#000000;stroke-width:0.8;" x="57.6" xlink:href="#mc8d404da58" y="119.847452"/>
      </g>
     </g>
     <g id="text_14">
      <!-- 2.55 -->
      <g transform="translate(28.334375 123.646671)scale(0.1 -0.1)">
       <use xlink:href="#DejaVuSans-32"/>
       <use x="63.623047" xlink:href="#DejaVuSans-2e"/>
       <use x="95.410156" xlink:href="#DejaVuSans-35"/>
       <use x="159.033203" xlink:href="#DejaVuSans-35"/>
      </g>
     </g>
    </g>
    <g id="ytick_7">
     <g id="line2d_14">
      <g>
       <use style="stroke:#000000;stroke-width:0.8;" x="57.6" xlink:href="#mc8d404da58" y="86.707726"/>
      </g>
     </g>
     <g id="text_15">
      <!-- 2.56 -->
      <g transform="translate(28.334375 90.506945)scale(0.1 -0.1)">
       <use xlink:href="#DejaVuSans-32"/>
       <use x="63.623047" xlink:href="#DejaVuSans-2e"/>
       <use x="95.410156" xlink:href="#DejaVuSans-35"/>
       <use x="159.033203" xlink:href="#DejaVuSans-36"/>
      </g>
     </g>
    </g>
    <g id="ytick_8">
     <g id="line2d_15">
      <g>
       <use style="stroke:#000000;stroke-width:0.8;" x="57.6" xlink:href="#mc8d404da58" y="53.568"/>
      </g>
     </g>
     <g id="text_16">
      <!-- 2.57 -->
      <defs>
       <path d="M 8.203125 72.90625 
L 55.078125 72.90625 
L 55.078125 68.703125 
L 28.609375 0 
L 18.3125 0 
L 43.21875 64.59375 
L 8.203125 64.59375 
z
" id="DejaVuSans-37"/>
      </defs>
      <g transform="translate(28.334375 57.367219)scale(0.1 -0.1)">
       <use xlink:href="#DejaVuSans-32"/>
       <use x="63.623047" xlink:href="#DejaVuSans-2e"/>
       <use x="95.410156" xlink:href="#DejaVuSans-35"/>
       <use x="159.033203" xlink:href="#DejaVuSans-37"/>
      </g>
     </g>
    </g>
    <g id="text_17">
     <!-- Current (nA) -->
     <defs>
      <path d="M 64.40625 67.28125 
L 64.40625 56.890625 
Q 59.421875 61.53125 53.78125 63.8125 
Q 48.140625 66.109375 41.796875 66.109375 
Q 29.296875 66.109375 22.65625 58.46875 
Q 16.015625 50.828125 16.015625 36.375 
Q 16.015625 21.96875 22.65625 14.328125 
Q 29.296875 6.6875 41.796875 6.6875 
Q 48.140625 6.6875 53.78125 8.984375 
Q 59.421875 11.28125 64.40625 15.921875 
L 64.40625 5.609375 
Q 59.234375 2.09375 53.4375 0.328125 
Q 47.65625 -1.421875 41.21875 -1.421875 
Q 24.65625 -1.421875 15.125 8.703125 
Q 5.609375 18.84375 5.609375 36.375 
Q 5.609375 53.953125 15.125 64.078125 
Q 24.65625 74.21875 41.21875 74.21875 
Q 47.75 74.21875 53.53125 72.484375 
Q 59.328125 70.75 64.40625 67.28125 
z
" id="DejaVuSans-43"/>
      <path d="M 8.5 21.578125 
L 8.5 54.6875 
L 17.484375 54.6875 
L 17.484375 21.921875 
Q 17.484375 14.15625 20.5 10.265625 
Q 23.53125 6.390625 29.59375 6.390625 
Q 36.859375 6.390625 41.078125 11.03125 
Q 45.3125 15.671875 45.3125 23.6875 
L 45.3125 54.6875 
L 54.296875 54.6875 
L 54.296875 0 
L 45.3125 0 
L 45.3125 8.40625 
Q 42.046875 3.421875 37.71875 1 
Q 33.40625 -1.421875 27.6875 -1.421875 
Q 18.265625 -1.421875 13.375 4.4375 
Q 8.5 10.296875 8.5 21.578125 
z
M 31.109375 56 
z
" id="DejaVuSans-75"/>
      <path d="M 41.109375 46.296875 
Q 39.59375 47.171875 37.8125 47.578125 
Q 36.03125 48 33.890625 48 
Q 26.265625 48 22.1875 43.046875 
Q 18.109375 38.09375 18.109375 28.8125 
L 18.109375 0 
L 9.078125 0 
L 9.078125 54.6875 
L 18.109375 54.6875 
L 18.109375 46.1875 
Q 20.953125 51.171875 25.484375 53.578125 
Q 30.03125 56 36.53125 56 
Q 37.453125 56 38.578125 55.875 
Q 39.703125 55.765625 41.0625 55.515625 
z
" id="DejaVuSans-72"/>
      <path d="M 56.203125 29.59375 
L 56.203125 25.203125 
L 14.890625 25.203125 
Q 15.484375 15.921875 20.484375 11.0625 
Q 25.484375 6.203125 34.421875 6.203125 
Q 39.59375 6.203125 44.453125 7.46875 
Q 49.3125 8.734375 54.109375 11.28125 
L 54.109375 2.78125 
Q 49.265625 0.734375 44.1875 -0.34375 
Q 39.109375 -1.421875 33.890625 -1.421875 
Q 20.796875 -1.421875 13.15625 6.1875 
Q 5.515625 13.8125 5.515625 26.8125 
Q 5.515625 40.234375 12.765625 48.109375 
Q 20.015625 56 32.328125 56 
Q 43.359375 56 49.78125 48.890625 
Q 56.203125 41.796875 56.203125 29.59375 
z
M 47.21875 32.234375 
Q 47.125 39.59375 43.09375 43.984375 
Q 39.0625 48.390625 32.421875 48.390625 
Q 24.90625 48.390625 20.390625 44.140625 
Q 15.875 39.890625 15.1875 32.171875 
z
" id="DejaVuSans-65"/>
      <path d="M 54.890625 33.015625 
L 54.890625 0 
L 45.90625 0 
L 45.90625 32.71875 
Q 45.90625 40.484375 42.875 44.328125 
Q 39.84375 48.1875 33.796875 48.1875 
Q 26.515625 48.1875 22.3125 43.546875 
Q 18.109375 38.921875 18.109375 30.90625 
L 18.109375 0 
L 9.078125 0 
L 9.078125 54.6875 
L 18.109375 54.6875 
L 18.109375 46.1875 
Q 21.34375 51.125 25.703125 53.5625 
Q 30.078125 56 35.796875 56 
Q 45.21875 56 50.046875 50.171875 
Q 54.890625 44.34375 54.890625 33.015625 
z
" id="DejaVuSans-6e"/>
      <path id="DejaVuSans-20"/>
      <path d="M 34.1875 63.1875 
L 20.796875 26.90625 
L 47.609375 26.90625 
z
M 28.609375 72.90625 
L 39.796875 72.90625 
L 67.578125 0 
L 57.328125 0 
L 50.6875 18.703125 
L 17.828125 18.703125 
L 11.1875 0 
L 0.78125 0 
z
" id="DejaVuSans-41"/>
     </defs>
     <g transform="translate(22.254687 205.581906)rotate(-90)scale(0.1 -0.1)">
      <use xlink:href="#DejaVuSans-43"/>
      <use x="69.824219" xlink:href="#DejaVuSans-75"/>
      <use x="133.203125" xlink:href="#DejaVuSans-72"/>
      <use x="174.300781" xlink:href="#DejaVuSans-72"/>
      <use x="215.382812" xlink:href="#DejaVuSans-65"/>
      <use x="276.90625" xlink:href="#DejaVuSans-6e"/>
      <use x="340.285156" xlink:href="#DejaVuSans-74"/>
      <use x="379.494141" xlink:href="#DejaVuSans-20"/>
      <use x="411.28125" xlink:href="#DejaVuSans-28"/>
      <use x="450.294922" xlink:href="#DejaVuSans-6e"/>
      <use x="513.673828" xlink:href="#DejaVuSans-41"/>
      <use x="582.082031" xlink:href="#DejaVuSans-29"/>
     </g>
    </g>
   </g>
   <g id="line2d_16">
    <path clip-path="url(#p34b1c370b0)" d="M 73.832727 53.568 
L 74.374716 79.085589 
L 74.917247 58.870356 
L 75.459236 76.103014 
L 76.001224 87.039123 
L 76.543213 81.736767 
L 77.085202 94.992658 
L 77.627191 93.667068 
L 78.16918 100.295014 
L 78.711168 89.690301 
L 79.253157 121.173041 
L 79.795146 110.568329 
L 80.337135 123.824219 
L 80.879124 131.446356 
L 81.421112 147.022027 
L 81.963101 151.992986 
L 82.50509 133.43474 
L 83.047079 136.085918 
L 83.589068 140.062685 
L 84.131056 156.301151 
L 84.673045 134.097534 
L 85.215034 139.731288 
L 85.757023 185.795507 
L 86.299012 166.574466 
L 86.841542 163.923288 
L 87.92552 155.969753 
L 88.467509 158.620932 
L 89.009498 150.998795 
L 89.551486 128.132384 
L 90.093475 130.452164 
L 90.635464 126.806795 
L 91.177453 121.173041 
L 91.719442 125.481205 
L 92.261431 105.59737 
L 92.803419 107.254356 
L 93.345408 97.312438 
L 93.887397 115.870685 
L 94.429386 95.324055 
L 94.971375 126.806795 
L 95.513363 103.940384 
L 96.055352 99.963616 
L 96.597341 126.144 
L 97.13933 111.562521 
L 97.681319 116.533479 
L 98.223307 114.213699 
L 98.765296 103.608986 
L 99.307285 118.190466 
L 99.849274 115.20789 
L 100.391263 134.428932 
L 100.933251 118.521863 
L 101.47524 113.882301 
L 102.017229 130.120767 
L 102.559218 110.899726 
L 103.101207 129.457973 
L 103.643195 122.49863 
L 104.185184 121.504438 
L 104.727173 146.027836 
L 105.269162 121.504438 
L 105.811151 110.568329 
L 106.353139 128.463781 
L 106.895128 102.614795 
L 107.437117 122.830027 
L 107.979106 126.475397 
L 108.521095 149.010411 
L 109.063083 151.992986 
L 109.605072 132.440548 
L 110.147061 107.254356 
L 110.68905 133.43474 
L 111.231039 107.585753 
L 111.773027 130.452164 
L 112.315016 123.492822 
L 112.857005 159.283726 
L 113.398994 110.899726 
L 113.940983 136.085918 
L 114.482971 152.324384 
L 115.02496 138.737096 
L 115.566949 137.08011 
L 116.108938 152.987178 
L 116.650927 116.864877 
L 117.192915 148.679014 
L 117.734904 146.69063 
L 118.276893 146.359233 
L 118.818882 126.144 
L 119.360871 165.580274 
L 119.90286 160.940712 
L 120.444848 100.957808 
L 120.986837 139.39989 
L 121.528826 99.963616 
L 122.070815 126.144 
L 122.612804 107.585753 
L 123.154792 107.585753 
L 123.696781 97.975233 
L 124.780759 129.126575 
L 125.322748 116.533479 
L 125.864736 111.231123 
L 126.406725 126.475397 
L 126.948714 129.457973 
L 127.490703 146.69063 
L 128.032692 141.388274 
L 128.57468 143.708055 
L 129.116669 158.620932 
L 129.658658 164.254685 
L 130.200647 164.254685 
L 130.742636 162.929096 
L 131.284624 172.539616 
L 131.826613 167.568658 
L 132.368602 176.184986 
L 132.910591 164.254685 
L 133.45258 170.88263 
L 133.994568 150.998795 
L 134.536557 158.289534 
L 135.078546 162.929096 
L 135.620535 157.958137 
L 136.162524 166.574466 
L 136.704512 158.620932 
L 137.246501 159.615123 
L 137.78849 160.940712 
L 138.330479 154.644164 
L 138.872468 159.946521 
L 139.414456 155.638356 
L 139.956445 152.655781 
L 140.498434 159.283726 
L 141.040423 171.876822 
L 141.582412 166.574466 
L 142.1244 166.574466 
L 142.666389 153.649973 
L 143.208378 167.568658 
L 143.750367 169.557041 
L 144.292356 170.219836 
L 144.834345 174.528 
L 145.376333 163.260493 
L 145.918322 161.27211 
L 146.460311 168.562849 
L 147.0023 170.551233 
L 147.544289 173.202411 
L 148.086277 162.266301 
L 148.628266 172.871014 
L 149.170255 174.196603 
L 149.712244 165.580274 
L 150.254233 173.202411 
L 150.796221 160.940712 
L 151.33821 165.248877 
L 151.880199 176.516384 
L 152.422188 172.208219 
L 152.964177 177.179178 
L 153.506165 171.214027 
L 154.048154 168.894247 
L 154.590143 170.219836 
L 155.132132 166.243068 
L 156.216109 181.155945 
L 156.758098 162.597699 
L 157.300087 170.551233 
L 157.842076 157.958137 
L 158.384065 181.81874 
L 158.926053 184.801315 
L 159.468042 174.528 
L 160.010031 193.749041 
L 160.55202 189.440877 
L 161.094009 201.702575 
L 161.635997 191.42926 
L 162.177986 191.097863 
L 162.719975 180.493151 
L 163.261964 212.307288 
L 163.803953 199.051397 
L 164.345941 205.347945 
L 164.88793 225.563178 
L 165.429919 231.528329 
L 165.971908 224.900384 
L 166.513897 230.534137 
L 167.055885 226.225973 
L 167.597874 241.801644 
L 168.139863 230.20274 
L 168.681852 215.289863 
L 169.223841 212.638685 
L 169.765829 213.301479 
L 170.307818 225.563178 
L 170.849807 211.313096 
L 171.391796 207.999123 
L 172.475774 190.435068 
L 173.017762 185.795507 
L 173.559751 191.42926 
L 174.643729 172.539616 
L 175.185718 156.963945 
L 175.727706 147.353425 
L 176.269695 168.231452 
L 176.811684 151.661589 
L 177.353673 154.975562 
L 177.895662 170.551233 
L 178.43765 151.992986 
L 178.979639 163.260493 
L 179.521628 152.655781 
L 180.063617 173.202411 
L 180.605606 169.225644 
L 181.147594 162.597699 
L 181.689583 165.911671 
L 182.231572 155.306959 
L 182.773561 161.934904 
L 183.31555 166.574466 
L 183.857538 165.911671 
L 184.399527 159.946521 
L 184.941516 185.46411 
L 185.483505 193.086247 
L 186.025494 170.551233 
L 186.567482 174.859397 
L 187.109471 180.493151 
L 187.65146 203.028164 
L 188.193449 175.522192 
L 188.735438 174.196603 
L 189.277426 169.557041 
L 190.361404 209.65611 
L 190.903393 182.150137 
L 191.445382 181.487342 
L 191.98737 206.673534 
L 192.529359 189.772274 
L 193.071348 181.487342 
L 193.613337 225.563178 
L 194.155326 195.737425 
L 194.697314 194.411836 
L 195.239303 194.743233 
L 195.781292 195.737425 
L 196.323281 223.574795 
L 196.86527 220.592219 
L 197.407258 208.993315 
L 197.949247 222.580603 
L 198.491236 221.586411 
L 199.033225 229.539945 
L 199.575214 204.022356 
L 200.117203 215.289863 
L 200.659191 202.696767 
L 201.20118 211.644493 
L 201.743169 235.173699 
L 202.285158 232.853918 
L 202.827147 232.191123 
L 203.369135 194.080438 
L 203.911124 219.598027 
L 204.453113 224.900384 
L 204.995102 212.638685 
L 205.537091 204.685151 
L 206.079079 213.964274 
L 206.621068 197.394411 
L 207.163057 199.051397 
L 207.705046 185.132712 
L 208.247035 196.400219 
L 209.331012 185.46411 
L 209.873001 187.452493 
L 210.41499 194.743233 
L 210.956979 190.103671 
L 211.498967 181.487342 
L 212.040956 167.900055 
L 212.582945 187.121096 
L 213.124934 164.254685 
L 213.666923 183.144329 
L 214.208911 174.196603 
L 214.7509 193.749041 
L 215.292889 189.772274 
L 215.834878 174.196603 
L 216.376867 195.07463 
L 216.918855 199.051397 
L 217.460844 207.336329 
L 218.002833 198.72 
L 219.086811 207.999123 
L 219.628799 232.522521 
L 220.170788 202.696767 
L 220.712777 195.737425 
L 221.254766 183.144329 
L 221.796755 201.371178 
L 222.338743 192.423452 
L 222.880732 190.103671 
L 223.422721 205.679342 
L 223.96471 150.336 
L 224.506699 185.132712 
L 225.048688 166.243068 
L 225.590676 175.190795 
L 226.132665 170.551233 
L 226.674654 172.208219 
L 227.216643 167.900055 
L 227.758632 156.632548 
L 228.30062 165.248877 
L 228.842609 176.184986 
L 229.384598 177.510575 
L 229.926587 179.167562 
L 230.468576 194.080438 
L 231.010564 187.78389 
L 231.552553 192.092055 
L 232.094542 172.871014 
L 232.636531 179.498959 
L 233.720508 186.458301 
L 234.262497 204.022356 
L 234.804486 203.690959 
L 235.346475 199.051397 
L 235.888464 201.371178 
L 236.430452 161.934904 
L 236.972441 198.72 
L 237.51443 185.132712 
L 238.056419 191.097863 
L 238.598408 202.696767 
L 239.140396 198.388603 
L 239.682385 215.62126 
L 240.224374 211.97589 
L 240.766363 209.987507 
L 241.308352 218.935233 
L 241.85034 219.26663 
L 242.392871 208.661918 
L 242.935402 207.667726 
L 243.477933 196.400219 
L 244.019922 195.406027 
L 244.56191 216.284055 
L 245.103899 208.661918 
L 245.645888 208.661918 
L 246.187877 219.26663 
L 246.729866 210.981699 
L 247.271854 217.941041 
L 247.813843 221.917808 
L 248.355832 231.196932 
L 248.897821 248.098192 
L 249.43981 244.121425 
L 250.523787 235.173699 
L 251.065776 248.098192 
L 251.607765 249.092384 
L 252.149754 256.714521 
L 252.691742 258.371507 
L 253.233731 247.435397 
L 253.776262 257.708712 
L 254.318251 271.296 
L 254.86024 245.778411 
L 255.402228 266.987836 
L 255.944217 254.39474 
L 256.486206 256.383123 
L 257.028195 238.487671 
L 257.570184 254.726137 
L 258.112172 250.417973 
L 258.654161 210.981699 
L 259.19615 241.470247 
L 259.738139 225.563178 
L 260.280128 221.255014 
L 260.822116 224.900384 
L 261.906094 189.772274 
L 262.448083 188.446685 
L 262.990072 174.196603 
L 263.532061 177.179178 
L 264.616038 146.69063 
L 265.158027 132.440548 
L 265.700016 151.330192 
L 266.242005 137.411507 
L 266.783993 136.085918 
L 267.325982 119.184658 
L 267.867971 136.085918 
L 268.40996 141.056877 
L 268.951949 170.551233 
L 269.493937 181.487342 
L 270.035926 181.81874 
L 270.577915 175.522192 
L 271.119904 194.743233 
L 271.661893 197.063014 
L 272.203881 201.702575 
L 272.74587 214.958466 
L 273.829848 227.220164 
L 274.371837 231.196932 
L 274.913825 248.760986 
L 275.455814 252.074959 
L 275.997803 256.714521 
L 276.539792 268.644822 
L 277.081781 295.488 
L 277.623769 278.918137 
L 278.165758 245.447014 
L 278.707747 266.656438 
L 279.249736 233.516712 
L 279.791725 255.388932 
L 280.333713 219.929425 
L 280.875702 230.534137 
L 281.417691 224.237589 
L 281.95968 206.673534 
L 282.501669 243.127233 
L 283.043657 245.778411 
L 283.585646 250.74937 
L 284.127635 261.022685 
L 284.669624 243.45863 
L 285.211613 245.447014 
L 285.753601 248.760986 
L 286.29559 241.138849 
L 286.837579 222.249205 
L 287.921557 248.098192 
L 288.463546 230.865534 
L 289.005534 242.133041 
L 289.547523 237.162082 
L 290.089512 248.429589 
L 291.715478 216.284055 
L 292.257467 217.278247 
L 292.799456 221.917808 
L 293.883434 198.388603 
L 294.425422 208.661918 
L 294.967411 210.981699 
L 295.5094 202.36537 
L 296.051389 210.318904 
L 296.593378 206.673534 
L 297.135366 205.347945 
L 297.677355 208.993315 
L 298.219344 208.330521 
L 298.761333 206.342137 
L 299.303322 199.051397 
L 299.84531 199.714192 
L 300.387299 195.737425 
L 300.929288 187.121096 
L 301.471277 196.068822 
L 302.013266 189.440877 
L 302.555254 184.469918 
L 303.097243 226.55737 
L 303.639232 228.214356 
L 304.181221 236.16789 
L 304.72321 242.133041 
L 305.265198 244.784219 
L 305.807187 242.464438 
L 306.349176 263.342466 
L 306.891165 265.993644 
L 307.433154 262.348274 
L 307.975142 274.609973 
L 308.517131 246.109808 
L 309.05912 271.296 
L 309.601109 272.290192 
L 310.143098 265.993644 
L 310.685086 253.069151 
L 311.227075 269.970411 
L 311.769064 255.388932 
L 312.311053 253.069151 
L 312.853042 247.766795 
L 313.39503 245.115616 
L 313.937019 229.871342 
L 314.479008 255.720329 
L 315.020997 237.162082 
L 315.562986 230.20274 
L 316.104975 221.586411 
L 316.646963 226.225973 
L 317.188952 232.853918 
L 317.730941 226.225973 
L 318.27293 235.836493 
L 318.814919 235.505096 
L 319.356907 236.16789 
L 319.898896 250.086575 
L 320.440885 230.20274 
L 320.982874 218.603836 
L 321.524863 226.225973 
L 322.066851 206.673534 
L 322.60884 198.72 
L 323.150829 195.737425 
L 323.692818 191.097863 
L 324.234807 184.469918 
L 324.776795 169.557041 
L 325.318784 187.452493 
L 325.860773 165.911671 
L 326.402762 163.260493 
L 326.944751 199.714192 
L 327.486739 210.981699 
L 328.028728 205.347945 
L 328.570717 193.749041 
L 329.112706 200.376986 
L 329.654695 214.958466 
L 330.196683 215.952658 
L 330.738672 207.667726 
L 331.280661 208.330521 
L 331.82265 231.196932 
L 332.364639 196.068822 
L 332.906627 189.109479 
L 333.448616 225.563178 
L 333.990605 226.888767 
L 334.532594 217.278247 
L 335.074583 216.615452 
L 336.15856 187.78389 
L 336.700549 193.417644 
L 337.242538 189.772274 
L 337.784527 191.097863 
L 338.326515 190.435068 
L 338.868504 199.382795 
L 339.410493 203.028164 
L 339.952482 203.028164 
L 340.494471 211.97589 
L 341.036459 209.65611 
L 341.578448 213.301479 
L 342.120437 221.255014 
L 342.662426 222.249205 
L 343.204415 224.237589 
L 343.746404 228.877151 
L 344.288392 229.208548 
L 344.830381 232.853918 
L 345.37237 218.272438 
L 346.456348 234.179507 
L 346.998336 229.871342 
L 347.540325 223.243397 
L 348.624303 229.539945 
L 349.166292 241.138849 
L 349.70828 224.568986 
L 350.250269 235.836493 
L 350.792258 221.917808 
L 351.334247 229.208548 
L 351.876236 248.429589 
L 352.418224 219.26663 
L 352.960213 219.598027 
L 353.502202 229.539945 
L 354.044191 228.214356 
L 354.58618 234.842301 
L 355.128168 236.16789 
L 355.670157 230.865534 
L 356.212146 236.830685 
L 356.754135 234.842301 
L 357.296124 233.516712 
L 357.838112 236.499288 
L 358.380101 236.830685 
L 358.92209 233.185315 
L 359.464079 228.545753 
L 360.006068 230.20274 
L 361.090045 238.487671 
L 361.632034 238.819068 
L 362.716012 230.534137 
L 363.258 238.487671 
L 363.799989 238.487671 
L 364.341978 234.510904 
L 364.883967 226.888767 
L 365.425956 237.493479 
L 365.967944 239.150466 
L 366.509933 237.824877 
L 367.593911 239.150466 
L 368.1359 233.84811 
L 368.677889 238.156274 
L 369.219877 232.522521 
L 369.761866 233.516712 
L 370.303855 237.162082 
L 370.845844 230.534137 
L 371.387833 221.586411 
L 371.929821 225.894575 
L 372.47181 245.447014 
L 373.013799 237.493479 
L 373.555788 238.819068 
L 374.097777 232.522521 
L 374.639765 236.16789 
L 375.181754 230.534137 
L 375.723743 226.225973 
L 376.265732 244.784219 
L 376.807721 243.45863 
L 377.349709 236.830685 
L 377.891698 241.138849 
L 378.433687 243.45863 
L 378.975676 241.801644 
L 379.517665 239.481863 
L 380.059653 240.807452 
L 380.601642 242.795836 
L 381.143631 256.383123 
L 381.68562 241.470247 
L 382.769597 275.604164 
L 383.311586 241.801644 
L 383.853575 253.069151 
L 384.395564 260.35989 
L 384.937553 239.481863 
L 385.479541 239.481863 
L 386.02153 233.84811 
L 386.563519 239.481863 
L 387.105508 248.760986 
L 387.647497 249.423781 
L 388.189485 242.464438 
L 388.731474 240.144658 
L 389.273463 231.528329 
L 389.815452 241.801644 
L 390.357441 248.429589 
L 390.899429 238.819068 
L 391.441418 253.069151 
L 391.983407 257.377315 
L 392.525396 234.510904 
L 393.067385 235.836493 
L 393.609373 261.354082 
L 394.151362 254.39474 
L 394.693351 231.859726 
L 395.23534 255.057534 
L 395.777329 256.383123 
L 396.319318 253.400548 
L 397.403295 273.284384 
L 397.945284 285.877479 
L 398.487273 257.045918 
L 398.487273 257.045918 
" style="fill:none;stroke:#1f77b4;stroke-linecap:square;stroke-width:1.5;"/>
   </g>
   <g id="patch_3">
    <path d="M 57.6 307.584 
L 57.6 41.472 
" style="fill:none;stroke:#000000;stroke-linecap:square;stroke-linejoin:miter;stroke-width:0.8;"/>
   </g>
   <g id="patch_4">
    <path d="M 414.72 307.584 
L 414.72 41.472 
" style="fill:none;stroke:#000000;stroke-linecap:square;stroke-linejoin:miter;stroke-width:0.8;"/>
   </g>
   <g id="patch_5">
    <path d="M 57.6 307.584 
L 414.72 307.584 
" style="fill:none;stroke:#000000;stroke-linecap:square;stroke-linejoin:miter;stroke-width:0.8;"/>
   </g>
   <g id="patch_6">
    <path d="M 57.6 41.472 
L 414.72 41.472 
" style="fill:none;stroke:#000000;stroke-linecap:square;stroke-linejoin:miter;stroke-width:0.8;"/>
   </g>
   <g id="text_18">
    <!-- Current with source voltage 100.0 mV -->
    <defs>
     <path d="M 4.203125 54.6875 
L 13.1875 54.6875 
L 24.421875 12.015625 
L 35.59375 54.6875 
L 46.1875 54.6875 
L 57.421875 12.015625 
L 68.609375 54.6875 
L 77.59375 54.6875 
L 63.28125 0 
L 52.6875 0 
L 40.921875 44.828125 
L 29.109375 0 
L 18.5 0 
z
" id="DejaVuSans-77"/>
     <path d="M 9.421875 54.6875 
L 18.40625 54.6875 
L 18.40625 0 
L 9.421875 0 
z
M 9.421875 75.984375 
L 18.40625 75.984375 
L 18.40625 64.59375 
L 9.421875 64.59375 
z
" id="DejaVuSans-69"/>
     <path d="M 54.890625 33.015625 
L 54.890625 0 
L 45.90625 0 
L 45.90625 32.71875 
Q 45.90625 40.484375 42.875 44.328125 
Q 39.84375 48.1875 33.796875 48.1875 
Q 26.515625 48.1875 22.3125 43.546875 
Q 18.109375 38.921875 18.109375 30.90625 
L 18.109375 0 
L 9.078125 0 
L 9.078125 75.984375 
L 18.109375 75.984375 
L 18.109375 46.1875 
Q 21.34375 51.125 25.703125 53.5625 
Q 30.078125 56 35.796875 56 
Q 45.21875 56 50.046875 50.171875 
Q 54.890625 44.34375 54.890625 33.015625 
z
" id="DejaVuSans-68"/>
     <path d="M 30.609375 48.390625 
Q 23.390625 48.390625 19.1875 42.75 
Q 14.984375 37.109375 14.984375 27.296875 
Q 14.984375 17.484375 19.15625 11.84375 
Q 23.34375 6.203125 30.609375 6.203125 
Q 37.796875 6.203125 41.984375 11.859375 
Q 46.1875 17.53125 46.1875 27.296875 
Q 46.1875 37.015625 41.984375 42.703125 
Q 37.796875 48.390625 30.609375 48.390625 
z
M 30.609375 56 
Q 42.328125 56 49.015625 48.375 
Q 55.71875 40.765625 55.71875 27.296875 
Q 55.71875 13.875 49.015625 6.21875 
Q 42.328125 -1.421875 30.609375 -1.421875 
Q 18.84375 -1.421875 12.171875 6.21875 
Q 5.515625 13.875 5.515625 27.296875 
Q 5.515625 40.765625 12.171875 48.375 
Q 18.84375 56 30.609375 56 
z
" id="DejaVuSans-6f"/>
     <path d="M 48.78125 52.59375 
L 48.78125 44.1875 
Q 44.96875 46.296875 41.140625 47.34375 
Q 37.3125 48.390625 33.40625 48.390625 
Q 24.65625 48.390625 19.8125 42.84375 
Q 14.984375 37.3125 14.984375 27.296875 
Q 14.984375 17.28125 19.8125 11.734375 
Q 24.65625 6.203125 33.40625 6.203125 
Q 37.3125 6.203125 41.140625 7.25 
Q 44.96875 8.296875 48.78125 10.40625 
L 48.78125 2.09375 
Q 45.015625 0.34375 40.984375 -0.53125 
Q 36.96875 -1.421875 32.421875 -1.421875 
Q 20.0625 -1.421875 12.78125 6.34375 
Q 5.515625 14.109375 5.515625 27.296875 
Q 5.515625 40.671875 12.859375 48.328125 
Q 20.21875 56 33.015625 56 
Q 37.15625 56 41.109375 55.140625 
Q 45.0625 54.296875 48.78125 52.59375 
z
" id="DejaVuSans-63"/>
     <path d="M 2.984375 54.6875 
L 12.5 54.6875 
L 29.59375 8.796875 
L 46.6875 54.6875 
L 56.203125 54.6875 
L 35.6875 0 
L 23.484375 0 
z
" id="DejaVuSans-76"/>
     <path d="M 9.421875 75.984375 
L 18.40625 75.984375 
L 18.40625 0 
L 9.421875 0 
z
" id="DejaVuSans-6c"/>
     <path d="M 34.28125 27.484375 
Q 23.390625 27.484375 19.1875 25 
Q 14.984375 22.515625 14.984375 16.5 
Q 14.984375 11.71875 18.140625 8.90625 
Q 21.296875 6.109375 26.703125 6.109375 
Q 34.1875 6.109375 38.703125 11.40625 
Q 43.21875 16.703125 43.21875 25.484375 
L 43.21875 27.484375 
z
M 52.203125 31.203125 
L 52.203125 0 
L 43.21875 0 
L 43.21875 8.296875 
Q 40.140625 3.328125 35.546875 0.953125 
Q 30.953125 -1.421875 24.3125 -1.421875 
Q 15.921875 -1.421875 10.953125 3.296875 
Q 6 8.015625 6 15.921875 
Q 6 25.140625 12.171875 29.828125 
Q 18.359375 34.515625 30.609375 34.515625 
L 43.21875 34.515625 
L 43.21875 35.40625 
Q 43.21875 41.609375 39.140625 45 
Q 35.0625 48.390625 27.6875 48.390625 
Q 23 48.390625 18.546875 47.265625 
Q 14.109375 46.140625 10.015625 43.890625 
L 10.015625 52.203125 
Q 14.9375 54.109375 19.578125 55.046875 
Q 24.21875 56 28.609375 56 
Q 40.484375 56 46.34375 49.84375 
Q 52.203125 43.703125 52.203125 31.203125 
z
" id="DejaVuSans-61"/>
     <path d="M 45.40625 27.984375 
Q 45.40625 37.75 41.375 43.109375 
Q 37.359375 48.484375 30.078125 48.484375 
Q 22.859375 48.484375 18.828125 43.109375 
Q 14.796875 37.75 14.796875 27.984375 
Q 14.796875 18.265625 18.828125 12.890625 
Q 22.859375 7.515625 30.078125 7.515625 
Q 37.359375 7.515625 41.375 12.890625 
Q 45.40625 18.265625 45.40625 27.984375 
z
M 54.390625 6.78125 
Q 54.390625 -7.171875 48.1875 -13.984375 
Q 42 -20.796875 29.203125 -20.796875 
Q 24.46875 -20.796875 20.265625 -20.09375 
Q 16.0625 -19.390625 12.109375 -17.921875 
L 12.109375 -9.1875 
Q 16.0625 -11.328125 19.921875 -12.34375 
Q 23.78125 -13.375 27.78125 -13.375 
Q 36.625 -13.375 41.015625 -8.765625 
Q 45.40625 -4.15625 45.40625 5.171875 
L 45.40625 9.625 
Q 42.625 4.78125 38.28125 2.390625 
Q 33.9375 0 27.875 0 
Q 17.828125 0 11.671875 7.65625 
Q 5.515625 15.328125 5.515625 27.984375 
Q 5.515625 40.671875 11.671875 48.328125 
Q 17.828125 56 27.875 56 
Q 33.9375 56 38.28125 53.609375 
Q 42.625 51.21875 45.40625 46.390625 
L 45.40625 54.6875 
L 54.390625 54.6875 
z
" id="DejaVuSans-67"/>
     <path d="M 52 44.1875 
Q 55.375 50.25 60.0625 53.125 
Q 64.75 56 71.09375 56 
Q 79.640625 56 84.28125 50.015625 
Q 88.921875 44.046875 88.921875 33.015625 
L 88.921875 0 
L 79.890625 0 
L 79.890625 32.71875 
Q 79.890625 40.578125 77.09375 44.375 
Q 74.3125 48.1875 68.609375 48.1875 
Q 61.625 48.1875 57.5625 43.546875 
Q 53.515625 38.921875 53.515625 30.90625 
L 53.515625 0 
L 44.484375 0 
L 44.484375 32.71875 
Q 44.484375 40.625 41.703125 44.40625 
Q 38.921875 48.1875 33.109375 48.1875 
Q 26.21875 48.1875 22.15625 43.53125 
Q 18.109375 38.875 18.109375 30.90625 
L 18.109375 0 
L 9.078125 0 
L 9.078125 54.6875 
L 18.109375 54.6875 
L 18.109375 46.1875 
Q 21.1875 51.21875 25.484375 53.609375 
Q 29.78125 56 35.6875 56 
Q 41.65625 56 45.828125 52.96875 
Q 50 49.953125 52 44.1875 
z
" id="DejaVuSans-6d"/>
     <path d="M 28.609375 0 
L 0.78125 72.90625 
L 11.078125 72.90625 
L 34.1875 11.53125 
L 57.328125 72.90625 
L 67.578125 72.90625 
L 39.796875 0 
z
" id="DejaVuSans-56"/>
    </defs>
    <g transform="translate(121.528125 35.472)scale(0.12 -0.12)">
     <use xlink:href="#DejaVuSans-43"/>
     <use x="69.824219" xlink:href="#DejaVuSans-75"/>
     <use x="133.203125" xlink:href="#DejaVuSans-72"/>
     <use x="174.300781" xlink:href="#DejaVuSans-72"/>
     <use x="215.382812" xlink:href="#DejaVuSans-65"/>
     <use x="276.90625" xlink:href="#DejaVuSans-6e"/>
     <use x="340.285156" xlink:href="#DejaVuSans-74"/>
     <use x="379.494141" xlink:href="#DejaVuSans-20"/>
     <use x="411.28125" xlink:href="#DejaVuSans-77"/>
     <use x="493.068359" xlink:href="#DejaVuSans-69"/>
     <use x="520.851562" xlink:href="#DejaVuSans-74"/>
     <use x="560.060547" xlink:href="#DejaVuSans-68"/>
     <use x="623.439453" xlink:href="#DejaVuSans-20"/>
     <use x="655.226562" xlink:href="#DejaVuSans-73"/>
     <use x="707.326172" xlink:href="#DejaVuSans-6f"/>
     <use x="768.507812" xlink:href="#DejaVuSans-75"/>
     <use x="831.886719" xlink:href="#DejaVuSans-72"/>
     <use x="872.96875" xlink:href="#DejaVuSans-63"/>
     <use x="927.949219" xlink:href="#DejaVuSans-65"/>
     <use x="989.472656" xlink:href="#DejaVuSans-20"/>
     <use x="1021.259766" xlink:href="#DejaVuSans-76"/>
     <use x="1080.439453" xlink:href="#DejaVuSans-6f"/>
     <use x="1141.621094" xlink:href="#DejaVuSans-6c"/>
     <use x="1169.404297" xlink:href="#DejaVuSans-74"/>
     <use x="1208.613281" xlink:href="#DejaVuSans-61"/>
     <use x="1269.892578" xlink:href="#DejaVuSans-67"/>
     <use x="1333.369141" xlink:href="#DejaVuSans-65"/>
     <use x="1394.892578" xlink:href="#DejaVuSans-20"/>
     <use x="1426.679688" xlink:href="#DejaVuSans-31"/>
     <use x="1490.302734" xlink:href="#DejaVuSans-30"/>
     <use x="1553.925781" xlink:href="#DejaVuSans-30"/>
     <use x="1617.548828" xlink:href="#DejaVuSans-2e"/>
     <use x="1649.335938" xlink:href="#DejaVuSans-30"/>
     <use x="1712.958984" xlink:href="#DejaVuSans-20"/>
     <use x="1744.746094" xlink:href="#DejaVuSans-6d"/>
     <use x="1842.158203" xlink:href="#DejaVuSans-56"/>
    </g>
   </g>
  </g>
 </g>
 <defs>
  <clipPath id="p34b1c370b0">
   <rect height="266.112" width="357.12" x="57.6" y="41.472"/>
  </clipPath>
 </defs>
</svg>
