<?xml version="1.0" encoding="utf-8" standalone="no"?>
<!DOCTYPE svg PUBLIC "-//W3C//DTD SVG 1.1//EN"
  "http://www.w3.org/Graphics/SVG/1.1/DTD/svg11.dtd">
<!-- Created with matplotlib (http://matplotlib.org/) -->
<svg height="345pt" version="1.1" viewBox="0 0 460 345" width="460pt" xmlns="http://www.w3.org/2000/svg" xmlns:xlink="http://www.w3.org/1999/xlink">
 <defs>
  <style type="text/css">
*{stroke-linecap:butt;stroke-linejoin:round;}
  </style>
 </defs>
 <g id="figure_1">
  <g id="patch_1">
   <path d="M 0 345.6 
L 460.8 345.6 
L 460.8 0 
L 0 0 
z
" style="fill:#ffffff;"/>
  </g>
  <g id="axes_1">
   <g id="patch_2">
    <path d="M 57.6 307.584 
L 414.72 307.584 
L 414.72 41.472 
L 57.6 41.472 
z
" style="fill:#ffffff;"/>
   </g>
   <g id="matplotlib.axis_1">
    <g id="xtick_1">
     <g id="line2d_1">
      <defs>
       <path d="M 0 0 
L 0 3.5 
" id="mdb078d00f1" style="stroke:#000000;stroke-width:0.8;"/>
      </defs>
      <g>
       <use style="stroke:#000000;stroke-width:0.8;" x="73.832727" xlink:href="#mdb078d00f1" y="307.584"/>
      </g>
     </g>
     <g id="text_1">
      <!-- 0 -->
      <defs>
       <path d="M 31.78125 66.40625 
Q 24.171875 66.40625 20.328125 58.90625 
Q 16.5 51.421875 16.5 36.375 
Q 16.5 21.390625 20.328125 13.890625 
Q 24.171875 6.390625 31.78125 6.390625 
Q 39.453125 6.390625 43.28125 13.890625 
Q 47.125 21.390625 47.125 36.375 
Q 47.125 51.421875 43.28125 58.90625 
Q 39.453125 66.40625 31.78125 66.40625 
z
M 31.78125 74.21875 
Q 44.046875 74.21875 50.515625 64.515625 
Q 56.984375 54.828125 56.984375 36.375 
Q 56.984375 17.96875 50.515625 8.265625 
Q 44.046875 -1.421875 31.78125 -1.421875 
Q 19.53125 -1.421875 13.0625 8.265625 
Q 6.59375 17.96875 6.59375 36.375 
Q 6.59375 54.828125 13.0625 64.515625 
Q 19.53125 74.21875 31.78125 74.21875 
z
" id="DejaVuSans-30"/>
      </defs>
      <g transform="translate(70.651477 322.182437)scale(0.1 -0.1)">
       <use xlink:href="#DejaVuSans-30"/>
      </g>
     </g>
    </g>
    <g id="xtick_2">
     <g id="line2d_2">
      <g>
       <use style="stroke:#000000;stroke-width:0.8;" x="128.031427" xlink:href="#mdb078d00f1" y="307.584"/>
      </g>
     </g>
     <g id="text_2">
      <!-- 100 -->
      <defs>
       <path d="M 12.40625 8.296875 
L 28.515625 8.296875 
L 28.515625 63.921875 
L 10.984375 60.40625 
L 10.984375 69.390625 
L 28.421875 72.90625 
L 38.28125 72.90625 
L 38.28125 8.296875 
L 54.390625 8.296875 
L 54.390625 0 
L 12.40625 0 
z
" id="DejaVuSans-31"/>
      </defs>
      <g transform="translate(118.487677 322.182437)scale(0.1 -0.1)">
       <use xlink:href="#DejaVuSans-31"/>
       <use x="63.623047" xlink:href="#DejaVuSans-30"/>
       <use x="127.246094" xlink:href="#DejaVuSans-30"/>
      </g>
     </g>
    </g>
    <g id="xtick_3">
     <g id="line2d_3">
      <g>
       <use style="stroke:#000000;stroke-width:0.8;" x="182.230126" xlink:href="#mdb078d00f1" y="307.584"/>
      </g>
     </g>
     <g id="text_3">
      <!-- 200 -->
      <defs>
       <path d="M 19.1875 8.296875 
L 53.609375 8.296875 
L 53.609375 0 
L 7.328125 0 
L 7.328125 8.296875 
Q 12.9375 14.109375 22.625 23.890625 
Q 32.328125 33.6875 34.8125 36.53125 
Q 39.546875 41.84375 41.421875 45.53125 
Q 43.3125 49.21875 43.3125 52.78125 
Q 43.3125 58.59375 39.234375 62.25 
Q 35.15625 65.921875 28.609375 65.921875 
Q 23.96875 65.921875 18.8125 64.3125 
Q 13.671875 62.703125 7.8125 59.421875 
L 7.8125 69.390625 
Q 13.765625 71.78125 18.9375 73 
Q 24.125 74.21875 28.421875 74.21875 
Q 39.75 74.21875 46.484375 68.546875 
Q 53.21875 62.890625 53.21875 53.421875 
Q 53.21875 48.921875 51.53125 44.890625 
Q 49.859375 40.875 45.40625 35.40625 
Q 44.1875 33.984375 37.640625 27.21875 
Q 31.109375 20.453125 19.1875 8.296875 
z
" id="DejaVuSans-32"/>
      </defs>
      <g transform="translate(172.686376 322.182437)scale(0.1 -0.1)">
       <use xlink:href="#DejaVuSans-32"/>
       <use x="63.623047" xlink:href="#DejaVuSans-30"/>
       <use x="127.246094" xlink:href="#DejaVuSans-30"/>
      </g>
     </g>
    </g>
    <g id="xtick_4">
     <g id="line2d_4">
      <g>
       <use style="stroke:#000000;stroke-width:0.8;" x="236.428826" xlink:href="#mdb078d00f1" y="307.584"/>
      </g>
     </g>
     <g id="text_4">
      <!-- 300 -->
      <defs>
       <path d="M 40.578125 39.3125 
Q 47.65625 37.796875 51.625 33 
Q 55.609375 28.21875 55.609375 21.1875 
Q 55.609375 10.40625 48.1875 4.484375 
Q 40.765625 -1.421875 27.09375 -1.421875 
Q 22.515625 -1.421875 17.65625 -0.515625 
Q 12.796875 0.390625 7.625 2.203125 
L 7.625 11.71875 
Q 11.71875 9.328125 16.59375 8.109375 
Q 21.484375 6.890625 26.8125 6.890625 
Q 36.078125 6.890625 40.9375 10.546875 
Q 45.796875 14.203125 45.796875 21.1875 
Q 45.796875 27.640625 41.28125 31.265625 
Q 36.765625 34.90625 28.71875 34.90625 
L 20.21875 34.90625 
L 20.21875 43.015625 
L 29.109375 43.015625 
Q 36.375 43.015625 40.234375 45.921875 
Q 44.09375 48.828125 44.09375 54.296875 
Q 44.09375 59.90625 40.109375 62.90625 
Q 36.140625 65.921875 28.71875 65.921875 
Q 24.65625 65.921875 20.015625 65.03125 
Q 15.375 64.15625 9.8125 62.3125 
L 9.8125 71.09375 
Q 15.4375 72.65625 20.34375 73.4375 
Q 25.25 74.21875 29.59375 74.21875 
Q 40.828125 74.21875 47.359375 69.109375 
Q 53.90625 64.015625 53.90625 55.328125 
Q 53.90625 49.265625 50.4375 45.09375 
Q 46.96875 40.921875 40.578125 39.3125 
z
" id="DejaVuSans-33"/>
      </defs>
      <g transform="translate(226.885076 322.182437)scale(0.1 -0.1)">
       <use xlink:href="#DejaVuSans-33"/>
       <use x="63.623047" xlink:href="#DejaVuSans-30"/>
       <use x="127.246094" xlink:href="#DejaVuSans-30"/>
      </g>
     </g>
    </g>
    <g id="xtick_5">
     <g id="line2d_5">
      <g>
       <use style="stroke:#000000;stroke-width:0.8;" x="290.627525" xlink:href="#mdb078d00f1" y="307.584"/>
      </g>
     </g>
     <g id="text_5">
      <!-- 400 -->
      <defs>
       <path d="M 37.796875 64.3125 
L 12.890625 25.390625 
L 37.796875 25.390625 
z
M 35.203125 72.90625 
L 47.609375 72.90625 
L 47.609375 25.390625 
L 58.015625 25.390625 
L 58.015625 17.1875 
L 47.609375 17.1875 
L 47.609375 0 
L 37.796875 0 
L 37.796875 17.1875 
L 4.890625 17.1875 
L 4.890625 26.703125 
z
" id="DejaVuSans-34"/>
      </defs>
      <g transform="translate(281.083775 322.182437)scale(0.1 -0.1)">
       <use xlink:href="#DejaVuSans-34"/>
       <use x="63.623047" xlink:href="#DejaVuSans-30"/>
       <use x="127.246094" xlink:href="#DejaVuSans-30"/>
      </g>
     </g>
    </g>
    <g id="xtick_6">
     <g id="line2d_6">
      <g>
       <use style="stroke:#000000;stroke-width:0.8;" x="344.826224" xlink:href="#mdb078d00f1" y="307.584"/>
      </g>
     </g>
     <g id="text_6">
      <!-- 500 -->
      <defs>
       <path d="M 10.796875 72.90625 
L 49.515625 72.90625 
L 49.515625 64.59375 
L 19.828125 64.59375 
L 19.828125 46.734375 
Q 21.96875 47.46875 24.109375 47.828125 
Q 26.265625 48.1875 28.421875 48.1875 
Q 40.625 48.1875 47.75 41.5 
Q 54.890625 34.8125 54.890625 23.390625 
Q 54.890625 11.625 47.5625 5.09375 
Q 40.234375 -1.421875 26.90625 -1.421875 
Q 22.3125 -1.421875 17.546875 -0.640625 
Q 12.796875 0.140625 7.71875 1.703125 
L 7.71875 11.625 
Q 12.109375 9.234375 16.796875 8.0625 
Q 21.484375 6.890625 26.703125 6.890625 
Q 35.15625 6.890625 40.078125 11.328125 
Q 45.015625 15.765625 45.015625 23.390625 
Q 45.015625 31 40.078125 35.4375 
Q 35.15625 39.890625 26.703125 39.890625 
Q 22.75 39.890625 18.8125 39.015625 
Q 14.890625 38.140625 10.796875 36.28125 
z
" id="DejaVuSans-35"/>
      </defs>
      <g transform="translate(335.282474 322.182437)scale(0.1 -0.1)">
       <use xlink:href="#DejaVuSans-35"/>
       <use x="63.623047" xlink:href="#DejaVuSans-30"/>
       <use x="127.246094" xlink:href="#DejaVuSans-30"/>
      </g>
     </g>
    </g>
    <g id="xtick_7">
     <g id="line2d_7">
      <g>
       <use style="stroke:#000000;stroke-width:0.8;" x="399.024924" xlink:href="#mdb078d00f1" y="307.584"/>
      </g>
     </g>
     <g id="text_7">
      <!-- 600 -->
      <defs>
       <path d="M 33.015625 40.375 
Q 26.375 40.375 22.484375 35.828125 
Q 18.609375 31.296875 18.609375 23.390625 
Q 18.609375 15.53125 22.484375 10.953125 
Q 26.375 6.390625 33.015625 6.390625 
Q 39.65625 6.390625 43.53125 10.953125 
Q 47.40625 15.53125 47.40625 23.390625 
Q 47.40625 31.296875 43.53125 35.828125 
Q 39.65625 40.375 33.015625 40.375 
z
M 52.59375 71.296875 
L 52.59375 62.3125 
Q 48.875 64.0625 45.09375 64.984375 
Q 41.3125 65.921875 37.59375 65.921875 
Q 27.828125 65.921875 22.671875 59.328125 
Q 17.53125 52.734375 16.796875 39.40625 
Q 19.671875 43.65625 24.015625 45.921875 
Q 28.375 48.1875 33.59375 48.1875 
Q 44.578125 48.1875 50.953125 41.515625 
Q 57.328125 34.859375 57.328125 23.390625 
Q 57.328125 12.15625 50.6875 5.359375 
Q 44.046875 -1.421875 33.015625 -1.421875 
Q 20.359375 -1.421875 13.671875 8.265625 
Q 6.984375 17.96875 6.984375 36.375 
Q 6.984375 53.65625 15.1875 63.9375 
Q 23.390625 74.21875 37.203125 74.21875 
Q 40.921875 74.21875 44.703125 73.484375 
Q 48.484375 72.75 52.59375 71.296875 
z
" id="DejaVuSans-36"/>
      </defs>
      <g transform="translate(389.481174 322.182437)scale(0.1 -0.1)">
       <use xlink:href="#DejaVuSans-36"/>
       <use x="63.623047" xlink:href="#DejaVuSans-30"/>
       <use x="127.246094" xlink:href="#DejaVuSans-30"/>
      </g>
     </g>
    </g>
    <g id="text_8">
     <!-- t(s) -->
     <defs>
      <path d="M 18.3125 70.21875 
L 18.3125 54.6875 
L 36.8125 54.6875 
L 36.8125 47.703125 
L 18.3125 47.703125 
L 18.3125 18.015625 
Q 18.3125 11.328125 20.140625 9.421875 
Q 21.96875 7.515625 27.59375 7.515625 
L 36.8125 7.515625 
L 36.8125 0 
L 27.59375 0 
Q 17.1875 0 13.234375 3.875 
Q 9.28125 7.765625 9.28125 18.015625 
L 9.28125 47.703125 
L 2.6875 47.703125 
L 2.6875 54.6875 
L 9.28125 54.6875 
L 9.28125 70.21875 
z
" id="DejaVuSans-74"/>
      <path d="M 31 75.875 
Q 24.46875 64.65625 21.28125 53.65625 
Q 18.109375 42.671875 18.109375 31.390625 
Q 18.109375 20.125 21.3125 9.0625 
Q 24.515625 -2 31 -13.1875 
L 23.1875 -13.1875 
Q 15.875 -1.703125 12.234375 9.375 
Q 8.59375 20.453125 8.59375 31.390625 
Q 8.59375 42.28125 12.203125 53.3125 
Q 15.828125 64.359375 23.1875 75.875 
z
" id="DejaVuSans-28"/>
      <path d="M 44.28125 53.078125 
L 44.28125 44.578125 
Q 40.484375 46.53125 36.375 47.5 
Q 32.28125 48.484375 27.875 48.484375 
Q 21.1875 48.484375 17.84375 46.4375 
Q 14.5 44.390625 14.5 40.28125 
Q 14.5 37.15625 16.890625 35.375 
Q 19.28125 33.59375 26.515625 31.984375 
L 29.59375 31.296875 
Q 39.15625 29.25 43.1875 25.515625 
Q 47.21875 21.78125 47.21875 15.09375 
Q 47.21875 7.46875 41.1875 3.015625 
Q 35.15625 -1.421875 24.609375 -1.421875 
Q 20.21875 -1.421875 15.453125 -0.5625 
Q 10.6875 0.296875 5.421875 2 
L 5.421875 11.28125 
Q 10.40625 8.6875 15.234375 7.390625 
Q 20.0625 6.109375 24.8125 6.109375 
Q 31.15625 6.109375 34.5625 8.28125 
Q 37.984375 10.453125 37.984375 14.40625 
Q 37.984375 18.0625 35.515625 20.015625 
Q 33.0625 21.96875 24.703125 23.78125 
L 21.578125 24.515625 
Q 13.234375 26.265625 9.515625 29.90625 
Q 5.8125 33.546875 5.8125 39.890625 
Q 5.8125 47.609375 11.28125 51.796875 
Q 16.75 56 26.8125 56 
Q 31.78125 56 36.171875 55.265625 
Q 40.578125 54.546875 44.28125 53.078125 
z
" id="DejaVuSans-73"/>
      <path d="M 8.015625 75.875 
L 15.828125 75.875 
Q 23.140625 64.359375 26.78125 53.3125 
Q 30.421875 42.28125 30.421875 31.390625 
Q 30.421875 20.453125 26.78125 9.375 
Q 23.140625 -1.703125 15.828125 -13.1875 
L 8.015625 -13.1875 
Q 14.5 -2 17.703125 9.0625 
Q 20.90625 20.125 20.90625 31.390625 
Q 20.90625 42.671875 17.703125 53.65625 
Q 14.5 64.65625 8.015625 75.875 
z
" id="DejaVuSans-29"/>
     </defs>
     <g transform="translate(227.693594 335.860562)scale(0.1 -0.1)">
      <use xlink:href="#DejaVuSans-74"/>
      <use x="39.208984" xlink:href="#DejaVuSans-28"/>
      <use x="78.222656" xlink:href="#DejaVuSans-73"/>
      <use x="130.322266" xlink:href="#DejaVuSans-29"/>
     </g>
    </g>
   </g>
   <g id="matplotlib.axis_2">
    <g id="ytick_1">
     <g id="line2d_8">
      <defs>
       <path d="M 0 0 
L -3.5 0 
" id="m1da1364d7e" style="stroke:#000000;stroke-width:0.8;"/>
      </defs>
      <g>
       <use style="stroke:#000000;stroke-width:0.8;" x="57.6" xlink:href="#m1da1364d7e" y="288.913346"/>
      </g>
     </g>
     <g id="text_9">
      <!-- 2.125 -->
      <defs>
       <path d="M 10.6875 12.40625 
L 21 12.40625 
L 21 0 
L 10.6875 0 
z
" id="DejaVuSans-2e"/>
      </defs>
      <g transform="translate(21.971875 292.712565)scale(0.1 -0.1)">
       <use xlink:href="#DejaVuSans-32"/>
       <use x="63.623047" xlink:href="#DejaVuSans-2e"/>
       <use x="95.410156" xlink:href="#DejaVuSans-31"/>
       <use x="159.033203" xlink:href="#DejaVuSans-32"/>
       <use x="222.65625" xlink:href="#DejaVuSans-35"/>
      </g>
     </g>
    </g>
    <g id="ytick_2">
     <g id="line2d_9">
      <g>
       <use style="stroke:#000000;stroke-width:0.8;" x="57.6" xlink:href="#m1da1364d7e" y="256.387599"/>
      </g>
     </g>
     <g id="text_10">
      <!-- 2.150 -->
      <g transform="translate(21.971875 260.186818)scale(0.1 -0.1)">
       <use xlink:href="#DejaVuSans-32"/>
       <use x="63.623047" xlink:href="#DejaVuSans-2e"/>
       <use x="95.410156" xlink:href="#DejaVuSans-31"/>
       <use x="159.033203" xlink:href="#DejaVuSans-35"/>
       <use x="222.65625" xlink:href="#DejaVuSans-30"/>
      </g>
     </g>
    </g>
    <g id="ytick_3">
     <g id="line2d_10">
      <g>
       <use style="stroke:#000000;stroke-width:0.8;" x="57.6" xlink:href="#m1da1364d7e" y="223.861852"/>
      </g>
     </g>
     <g id="text_11">
      <!-- 2.175 -->
      <defs>
       <path d="M 8.203125 72.90625 
L 55.078125 72.90625 
L 55.078125 68.703125 
L 28.609375 0 
L 18.3125 0 
L 43.21875 64.59375 
L 8.203125 64.59375 
z
" id="DejaVuSans-37"/>
      </defs>
      <g transform="translate(21.971875 227.661071)scale(0.1 -0.1)">
       <use xlink:href="#DejaVuSans-32"/>
       <use x="63.623047" xlink:href="#DejaVuSans-2e"/>
       <use x="95.410156" xlink:href="#DejaVuSans-31"/>
       <use x="159.033203" xlink:href="#DejaVuSans-37"/>
       <use x="222.65625" xlink:href="#DejaVuSans-35"/>
      </g>
     </g>
    </g>
    <g id="ytick_4">
     <g id="line2d_11">
      <g>
       <use style="stroke:#000000;stroke-width:0.8;" x="57.6" xlink:href="#m1da1364d7e" y="191.336105"/>
      </g>
     </g>
     <g id="text_12">
      <!-- 2.200 -->
      <g transform="translate(21.971875 195.135324)scale(0.1 -0.1)">
       <use xlink:href="#DejaVuSans-32"/>
       <use x="63.623047" xlink:href="#DejaVuSans-2e"/>
       <use x="95.410156" xlink:href="#DejaVuSans-32"/>
       <use x="159.033203" xlink:href="#DejaVuSans-30"/>
       <use x="222.65625" xlink:href="#DejaVuSans-30"/>
      </g>
     </g>
    </g>
    <g id="ytick_5">
     <g id="line2d_12">
      <g>
       <use style="stroke:#000000;stroke-width:0.8;" x="57.6" xlink:href="#m1da1364d7e" y="158.810358"/>
      </g>
     </g>
     <g id="text_13">
      <!-- 2.225 -->
      <g transform="translate(21.971875 162.609577)scale(0.1 -0.1)">
       <use xlink:href="#DejaVuSans-32"/>
       <use x="63.623047" xlink:href="#DejaVuSans-2e"/>
       <use x="95.410156" xlink:href="#DejaVuSans-32"/>
       <use x="159.033203" xlink:href="#DejaVuSans-32"/>
       <use x="222.65625" xlink:href="#DejaVuSans-35"/>
      </g>
     </g>
    </g>
    <g id="ytick_6">
     <g id="line2d_13">
      <g>
       <use style="stroke:#000000;stroke-width:0.8;" x="57.6" xlink:href="#m1da1364d7e" y="126.284611"/>
      </g>
     </g>
     <g id="text_14">
      <!-- 2.250 -->
      <g transform="translate(21.971875 130.08383)scale(0.1 -0.1)">
       <use xlink:href="#DejaVuSans-32"/>
       <use x="63.623047" xlink:href="#DejaVuSans-2e"/>
       <use x="95.410156" xlink:href="#DejaVuSans-32"/>
       <use x="159.033203" xlink:href="#DejaVuSans-35"/>
       <use x="222.65625" xlink:href="#DejaVuSans-30"/>
      </g>
     </g>
    </g>
    <g id="ytick_7">
     <g id="line2d_14">
      <g>
       <use style="stroke:#000000;stroke-width:0.8;" x="57.6" xlink:href="#m1da1364d7e" y="93.758864"/>
      </g>
     </g>
     <g id="text_15">
      <!-- 2.275 -->
      <g transform="translate(21.971875 97.558083)scale(0.1 -0.1)">
       <use xlink:href="#DejaVuSans-32"/>
       <use x="63.623047" xlink:href="#DejaVuSans-2e"/>
       <use x="95.410156" xlink:href="#DejaVuSans-32"/>
       <use x="159.033203" xlink:href="#DejaVuSans-37"/>
       <use x="222.65625" xlink:href="#DejaVuSans-35"/>
      </g>
     </g>
    </g>
    <g id="ytick_8">
     <g id="line2d_15">
      <g>
       <use style="stroke:#000000;stroke-width:0.8;" x="57.6" xlink:href="#m1da1364d7e" y="61.233117"/>
      </g>
     </g>
     <g id="text_16">
      <!-- 2.300 -->
      <g transform="translate(21.971875 65.032336)scale(0.1 -0.1)">
       <use xlink:href="#DejaVuSans-32"/>
       <use x="63.623047" xlink:href="#DejaVuSans-2e"/>
       <use x="95.410156" xlink:href="#DejaVuSans-33"/>
       <use x="159.033203" xlink:href="#DejaVuSans-30"/>
       <use x="222.65625" xlink:href="#DejaVuSans-30"/>
      </g>
     </g>
    </g>
    <g id="text_17">
     <!-- Resistance (Ohm) -->
     <defs>
      <path d="M 44.390625 34.1875 
Q 47.5625 33.109375 50.5625 29.59375 
Q 53.5625 26.078125 56.59375 19.921875 
L 66.609375 0 
L 56 0 
L 46.6875 18.703125 
Q 43.0625 26.03125 39.671875 28.421875 
Q 36.28125 30.8125 30.421875 30.8125 
L 19.671875 30.8125 
L 19.671875 0 
L 9.8125 0 
L 9.8125 72.90625 
L 32.078125 72.90625 
Q 44.578125 72.90625 50.734375 67.671875 
Q 56.890625 62.453125 56.890625 51.90625 
Q 56.890625 45.015625 53.6875 40.46875 
Q 50.484375 35.9375 44.390625 34.1875 
z
M 19.671875 64.796875 
L 19.671875 38.921875 
L 32.078125 38.921875 
Q 39.203125 38.921875 42.84375 42.21875 
Q 46.484375 45.515625 46.484375 51.90625 
Q 46.484375 58.296875 42.84375 61.546875 
Q 39.203125 64.796875 32.078125 64.796875 
z
" id="DejaVuSans-52"/>
      <path d="M 56.203125 29.59375 
L 56.203125 25.203125 
L 14.890625 25.203125 
Q 15.484375 15.921875 20.484375 11.0625 
Q 25.484375 6.203125 34.421875 6.203125 
Q 39.59375 6.203125 44.453125 7.46875 
Q 49.3125 8.734375 54.109375 11.28125 
L 54.109375 2.78125 
Q 49.265625 0.734375 44.1875 -0.34375 
Q 39.109375 -1.421875 33.890625 -1.421875 
Q 20.796875 -1.421875 13.15625 6.1875 
Q 5.515625 13.8125 5.515625 26.8125 
Q 5.515625 40.234375 12.765625 48.109375 
Q 20.015625 56 32.328125 56 
Q 43.359375 56 49.78125 48.890625 
Q 56.203125 41.796875 56.203125 29.59375 
z
M 47.21875 32.234375 
Q 47.125 39.59375 43.09375 43.984375 
Q 39.0625 48.390625 32.421875 48.390625 
Q 24.90625 48.390625 20.390625 44.140625 
Q 15.875 39.890625 15.1875 32.171875 
z
" id="DejaVuSans-65"/>
      <path d="M 9.421875 54.6875 
L 18.40625 54.6875 
L 18.40625 0 
L 9.421875 0 
z
M 9.421875 75.984375 
L 18.40625 75.984375 
L 18.40625 64.59375 
L 9.421875 64.59375 
z
" id="DejaVuSans-69"/>
      <path d="M 34.28125 27.484375 
Q 23.390625 27.484375 19.1875 25 
Q 14.984375 22.515625 14.984375 16.5 
Q 14.984375 11.71875 18.140625 8.90625 
Q 21.296875 6.109375 26.703125 6.109375 
Q 34.1875 6.109375 38.703125 11.40625 
Q 43.21875 16.703125 43.21875 25.484375 
L 43.21875 27.484375 
z
M 52.203125 31.203125 
L 52.203125 0 
L 43.21875 0 
L 43.21875 8.296875 
Q 40.140625 3.328125 35.546875 0.953125 
Q 30.953125 -1.421875 24.3125 -1.421875 
Q 15.921875 -1.421875 10.953125 3.296875 
Q 6 8.015625 6 15.921875 
Q 6 25.140625 12.171875 29.828125 
Q 18.359375 34.515625 30.609375 34.515625 
L 43.21875 34.515625 
L 43.21875 35.40625 
Q 43.21875 41.609375 39.140625 45 
Q 35.0625 48.390625 27.6875 48.390625 
Q 23 48.390625 18.546875 47.265625 
Q 14.109375 46.140625 10.015625 43.890625 
L 10.015625 52.203125 
Q 14.9375 54.109375 19.578125 55.046875 
Q 24.21875 56 28.609375 56 
Q 40.484375 56 46.34375 49.84375 
Q 52.203125 43.703125 52.203125 31.203125 
z
" id="DejaVuSans-61"/>
      <path d="M 54.890625 33.015625 
L 54.890625 0 
L 45.90625 0 
L 45.90625 32.71875 
Q 45.90625 40.484375 42.875 44.328125 
Q 39.84375 48.1875 33.796875 48.1875 
Q 26.515625 48.1875 22.3125 43.546875 
Q 18.109375 38.921875 18.109375 30.90625 
L 18.109375 0 
L 9.078125 0 
L 9.078125 54.6875 
L 18.109375 54.6875 
L 18.109375 46.1875 
Q 21.34375 51.125 25.703125 53.5625 
Q 30.078125 56 35.796875 56 
Q 45.21875 56 50.046875 50.171875 
Q 54.890625 44.34375 54.890625 33.015625 
z
" id="DejaVuSans-6e"/>
      <path d="M 48.78125 52.59375 
L 48.78125 44.1875 
Q 44.96875 46.296875 41.140625 47.34375 
Q 37.3125 48.390625 33.40625 48.390625 
Q 24.65625 48.390625 19.8125 42.84375 
Q 14.984375 37.3125 14.984375 27.296875 
Q 14.984375 17.28125 19.8125 11.734375 
Q 24.65625 6.203125 33.40625 6.203125 
Q 37.3125 6.203125 41.140625 7.25 
Q 44.96875 8.296875 48.78125 10.40625 
L 48.78125 2.09375 
Q 45.015625 0.34375 40.984375 -0.53125 
Q 36.96875 -1.421875 32.421875 -1.421875 
Q 20.0625 -1.421875 12.78125 6.34375 
Q 5.515625 14.109375 5.515625 27.296875 
Q 5.515625 40.671875 12.859375 48.328125 
Q 20.21875 56 33.015625 56 
Q 37.15625 56 41.109375 55.140625 
Q 45.0625 54.296875 48.78125 52.59375 
z
" id="DejaVuSans-63"/>
      <path id="DejaVuSans-20"/>
      <path d="M 39.40625 66.21875 
Q 28.65625 66.21875 22.328125 58.203125 
Q 16.015625 50.203125 16.015625 36.375 
Q 16.015625 22.609375 22.328125 14.59375 
Q 28.65625 6.59375 39.40625 6.59375 
Q 50.140625 6.59375 56.421875 14.59375 
Q 62.703125 22.609375 62.703125 36.375 
Q 62.703125 50.203125 56.421875 58.203125 
Q 50.140625 66.21875 39.40625 66.21875 
z
M 39.40625 74.21875 
Q 54.734375 74.21875 63.90625 63.9375 
Q 73.09375 53.65625 73.09375 36.375 
Q 73.09375 19.140625 63.90625 8.859375 
Q 54.734375 -1.421875 39.40625 -1.421875 
Q 24.03125 -1.421875 14.8125 8.828125 
Q 5.609375 19.09375 5.609375 36.375 
Q 5.609375 53.65625 14.8125 63.9375 
Q 24.03125 74.21875 39.40625 74.21875 
z
" id="DejaVuSans-4f"/>
      <path d="M 54.890625 33.015625 
L 54.890625 0 
L 45.90625 0 
L 45.90625 32.71875 
Q 45.90625 40.484375 42.875 44.328125 
Q 39.84375 48.1875 33.796875 48.1875 
Q 26.515625 48.1875 22.3125 43.546875 
Q 18.109375 38.921875 18.109375 30.90625 
L 18.109375 0 
L 9.078125 0 
L 9.078125 75.984375 
L 18.109375 75.984375 
L 18.109375 46.1875 
Q 21.34375 51.125 25.703125 53.5625 
Q 30.078125 56 35.796875 56 
Q 45.21875 56 50.046875 50.171875 
Q 54.890625 44.34375 54.890625 33.015625 
z
" id="DejaVuSans-68"/>
      <path d="M 52 44.1875 
Q 55.375 50.25 60.0625 53.125 
Q 64.75 56 71.09375 56 
Q 79.640625 56 84.28125 50.015625 
Q 88.921875 44.046875 88.921875 33.015625 
L 88.921875 0 
L 79.890625 0 
L 79.890625 32.71875 
Q 79.890625 40.578125 77.09375 44.375 
Q 74.3125 48.1875 68.609375 48.1875 
Q 61.625 48.1875 57.5625 43.546875 
Q 53.515625 38.921875 53.515625 30.90625 
L 53.515625 0 
L 44.484375 0 
L 44.484375 32.71875 
Q 44.484375 40.625 41.703125 44.40625 
Q 38.921875 48.1875 33.109375 48.1875 
Q 26.21875 48.1875 22.15625 43.53125 
Q 18.109375 38.875 18.109375 30.90625 
L 18.109375 0 
L 9.078125 0 
L 9.078125 54.6875 
L 18.109375 54.6875 
L 18.109375 46.1875 
Q 21.1875 51.21875 25.484375 53.609375 
Q 29.78125 56 35.6875 56 
Q 41.65625 56 45.828125 52.96875 
Q 50 49.953125 52 44.1875 
z
" id="DejaVuSans-6d"/>
     </defs>
     <g transform="translate(15.892187 219.158469)rotate(-90)scale(0.1 -0.1)">
      <use xlink:href="#DejaVuSans-52"/>
      <use x="69.419922" xlink:href="#DejaVuSans-65"/>
      <use x="130.943359" xlink:href="#DejaVuSans-73"/>
      <use x="183.042969" xlink:href="#DejaVuSans-69"/>
      <use x="210.826172" xlink:href="#DejaVuSans-73"/>
      <use x="262.925781" xlink:href="#DejaVuSans-74"/>
      <use x="302.134766" xlink:href="#DejaVuSans-61"/>
      <use x="363.414062" xlink:href="#DejaVuSans-6e"/>
      <use x="426.792969" xlink:href="#DejaVuSans-63"/>
      <use x="481.773438" xlink:href="#DejaVuSans-65"/>
      <use x="543.296875" xlink:href="#DejaVuSans-20"/>
      <use x="575.083984" xlink:href="#DejaVuSans-28"/>
      <use x="614.097656" xlink:href="#DejaVuSans-4f"/>
      <use x="692.808594" xlink:href="#DejaVuSans-68"/>
      <use x="756.1875" xlink:href="#DejaVuSans-6d"/>
      <use x="853.599609" xlink:href="#DejaVuSans-29"/>
     </g>
    </g>
    <g id="text_18">
     <!-- 1e7 -->
     <g transform="translate(57.6 38.472)scale(0.1 -0.1)">
      <use xlink:href="#DejaVuSans-31"/>
      <use x="63.623047" xlink:href="#DejaVuSans-65"/>
      <use x="125.146484" xlink:href="#DejaVuSans-37"/>
     </g>
    </g>
   </g>
   <g id="line2d_16">
    <path clip-path="url(#pb443efe9cd)" d="M 73.832727 284.642988 
L 74.374714 285.989419 
L 75.459772 283.707288 
L 76.002301 276.751509 
L 76.544288 276.282844 
L 77.086817 285.315984 
L 77.628804 282.44339 
L 78.170791 282.499643 
L 78.712778 290.863841 
L 79.254765 284.252569 
L 79.796752 288.025601 
L 80.338739 286.319727 
L 80.880726 289.150397 
L 81.422713 288.159763 
L 81.9647 291.969776 
L 82.506687 286.339844 
L 83.049216 287.269458 
L 83.591745 292.433132 
L 84.134274 295.488 
L 85.218248 287.507481 
L 85.760235 286.90543 
L 86.302222 288.800681 
L 86.844209 289.78256 
L 87.386196 285.063744 
L 87.928183 282.616029 
L 88.47017 284.345536 
L 89.012699 278.667105 
L 89.554686 284.273932 
L 90.096673 283.132115 
L 90.63866 280.184762 
L 91.180647 279.651681 
L 91.722634 277.335727 
L 92.264621 277.590267 
L 92.806608 275.20316 
L 93.348595 277.610604 
L 93.890582 279.168246 
L 94.432569 275.013039 
L 94.974556 273.43969 
L 95.516543 270.541208 
L 96.05853 269.813795 
L 96.600517 271.238744 
L 97.142504 265.128149 
L 97.684491 268.93954 
L 98.226478 261.272779 
L 98.768465 260.756948 
L 99.310452 262.66724 
L 99.852439 259.391351 
L 100.394426 266.601974 
L 100.936413 259.498861 
L 101.4784 261.940231 
L 102.020387 265.720099 
L 102.562374 260.330326 
L 103.646348 263.18923 
L 104.188335 260.153194 
L 104.730322 258.267458 
L 105.272309 262.482034 
L 105.814296 263.086272 
L 106.356283 260.013677 
L 106.89827 257.760371 
L 107.440257 259.244841 
L 107.982244 257.093723 
L 108.524231 259.028447 
L 109.066218 256.884005 
L 109.608205 258.049565 
L 110.150192 254.713871 
L 110.692179 256.980476 
L 111.234166 258.076087 
L 111.776153 260.188031 
L 112.31814 258.905595 
L 112.860127 258.862331 
L 113.944101 260.501848 
L 114.486088 265.382332 
L 115.028075 271.898038 
L 115.570062 264.556688 
L 116.112049 261.544478 
L 116.654036 265.501834 
L 117.196023 263.519129 
L 117.73801 262.199357 
L 118.279997 271.503917 
L 118.821984 266.003228 
L 119.363971 262.405407 
L 119.905958 269.155652 
L 120.447945 262.280056 
L 120.989932 265.333731 
L 121.531919 257.969925 
L 122.073906 255.173096 
L 122.615893 264.129733 
L 123.15788 254.757288 
L 123.699867 254.642462 
L 124.241854 256.040703 
L 124.783841 256.040703 
L 125.325828 255.682525 
L 125.867815 255.017696 
L 126.409802 251.068236 
L 126.951789 257.580063 
L 127.493776 251.235547 
L 128.57775 252.412572 
L 129.119737 252.269707 
L 129.661724 248.992006 
L 130.203711 247.268519 
L 130.745698 247.4024 
L 132.371659 249.697389 
L 132.913645 236.497333 
L 133.455632 240.609271 
L 133.997619 240.695408 
L 134.539606 250.526321 
L 135.081593 240.912274 
L 135.62358 233.750632 
L 136.165567 237.270379 
L 136.707554 237.298543 
L 137.249541 233.160967 
L 137.791528 236.927076 
L 138.333515 233.866304 
L 138.875502 233.43281 
L 139.417489 229.66581 
L 139.959476 233.074437 
L 140.501463 233.735614 
L 141.04345 235.981083 
L 142.127424 228.037326 
L 143.211398 237.410198 
L 143.753385 236.403503 
L 144.295372 237.53393 
L 144.837359 226.176132 
L 145.379346 230.397492 
L 145.921333 230.23628 
L 146.46332 230.520011 
L 147.005307 235.791482 
L 147.547294 236.242048 
L 148.089281 231.967718 
L 148.631268 233.302082 
L 149.173255 232.150405 
L 149.715242 225.411034 
L 150.257229 231.235145 
L 150.799216 238.706677 
L 151.341203 235.921913 
L 151.88319 232.197483 
L 152.425177 236.216692 
L 152.967164 235.861854 
L 153.509151 236.068429 
L 154.051138 238.157414 
L 154.593125 235.35479 
L 155.135112 236.181037 
L 155.677099 234.349481 
L 156.219086 233.566348 
L 156.761073 222.002207 
L 157.30306 249.698936 
L 157.845047 244.980452 
L 158.387034 237.21223 
L 158.929021 227.783366 
L 159.471008 228.302543 
L 160.012995 245.245423 
L 160.554982 238.41979 
L 161.096969 237.51885 
L 161.638956 233.869124 
L 162.180943 232.922012 
L 162.72293 233.593632 
L 163.264917 230.007283 
L 163.806904 228.70452 
L 164.890878 224.513258 
L 165.432865 220.138633 
L 165.974852 222.583585 
L 166.516839 218.757092 
L 167.058826 218.889727 
L 167.600813 215.38468 
L 168.1428 215.097251 
L 168.684787 209.66792 
L 169.226774 215.463098 
L 169.768761 212.186453 
L 170.852735 210.151349 
L 171.394722 205.91919 
L 171.936709 208.167004 
L 172.478696 208.347997 
L 173.020683 207.323602 
L 173.56267 206.610352 
L 174.104657 211.478535 
L 174.646644 204.062301 
L 175.188631 210.79825 
L 176.272605 205.995115 
L 176.814592 207.575144 
L 177.356579 210.817724 
L 177.898566 212.965017 
L 178.440553 212.459764 
L 178.98254 214.387479 
L 179.524527 212.682813 
L 180.066514 214.531772 
L 180.608501 211.687077 
L 181.150488 214.229983 
L 181.692475 219.843599 
L 182.234462 220.721601 
L 182.776449 215.015451 
L 183.318436 221.007325 
L 183.860423 219.305002 
L 184.40241 211.023957 
L 184.944397 210.345886 
L 185.486384 210.721917 
L 186.028371 212.011188 
L 186.570358 211.683791 
L 187.112345 215.147824 
L 187.654332 215.243288 
L 188.196319 218.50492 
L 188.738306 216.233687 
L 189.280293 214.587539 
L 189.82228 219.683928 
L 190.364267 214.455115 
L 190.906254 216.998725 
L 191.448241 212.877426 
L 191.990228 216.571415 
L 192.532215 218.041202 
L 193.074202 217.268211 
L 193.616189 216.26206 
L 194.158176 208.89614 
L 194.700163 210.201707 
L 195.24215 186.456204 
L 195.784137 194.9951 
L 196.326124 189.253701 
L 196.868111 191.238785 
L 197.410098 188.663109 
L 197.952085 189.164858 
L 198.494072 184.576614 
L 199.036059 190.603163 
L 199.578046 191.181534 
L 200.120033 189.067367 
L 200.66202 189.147671 
L 201.204007 192.929495 
L 201.745994 191.579379 
L 202.287981 191.891257 
L 202.829968 197.2317 
L 203.371955 197.385281 
L 203.913942 198.912481 
L 204.455929 203.639332 
L 204.997916 202.83037 
L 205.539903 204.71448 
L 206.08189 201.904495 
L 206.623877 206.697937 
L 207.165864 206.474026 
L 207.707851 207.739492 
L 208.249838 200.901201 
L 208.791825 197.57079 
L 209.333812 198.055133 
L 209.875799 204.796803 
L 210.417786 201.617375 
L 210.959773 199.800362 
L 211.50176 197.063425 
L 212.043747 197.052375 
L 212.585734 196.47611 
L 213.127721 196.179393 
L 213.669708 193.758448 
L 214.211695 193.798433 
L 214.753682 188.717659 
L 215.295669 189.586123 
L 215.837656 192.266046 
L 216.379643 188.519614 
L 216.92163 187.038994 
L 217.463617 186.209289 
L 218.005604 187.343563 
L 218.547591 186.145979 
L 219.089578 185.741049 
L 219.631565 181.602793 
L 220.173552 181.043802 
L 220.715539 178.325519 
L 221.799513 176.909623 
L 222.3415 177.765018 
L 222.883487 179.540959 
L 223.425474 179.292726 
L 223.967461 177.848715 
L 224.509448 171.176138 
L 225.051435 175.740899 
L 225.593422 175.402425 
L 226.135409 173.441616 
L 226.677396 173.331372 
L 227.219383 176.247197 
L 227.76137 176.368708 
L 228.303357 179.113708 
L 228.845343 172.45897 
L 229.38733 171.14443 
L 229.929317 173.235922 
L 230.471304 167.951213 
L 231.013291 175.972148 
L 231.555278 172.707985 
L 232.097265 174.006702 
L 232.639252 174.522247 
L 233.181239 172.676708 
L 233.723226 174.522247 
L 234.265213 174.672697 
L 234.8072 176.105532 
L 235.349187 176.678518 
L 235.891174 172.96066 
L 236.433161 177.294083 
L 236.975148 175.032213 
L 237.517135 179.578322 
L 238.059122 178.749852 
L 238.601109 176.007359 
L 239.143096 176.267672 
L 239.685083 180.75538 
L 240.22707 181.479078 
L 240.769057 177.308464 
L 241.311044 177.438512 
L 241.853031 179.737164 
L 242.395018 175.914595 
L 242.937005 175.526887 
L 243.478992 175.358899 
L 244.020979 168.648789 
L 244.562966 172.534296 
L 245.64694 167.170905 
L 246.188927 171.211173 
L 246.730914 170.996523 
L 247.272901 169.294626 
L 247.814888 169.381641 
L 248.356875 171.971082 
L 248.898862 169.026307 
L 249.440849 169.073449 
L 249.982836 166.915274 
L 250.524823 166.281094 
L 251.06681 166.570257 
L 251.608797 164.671276 
L 252.692771 161.980305 
L 253.234758 157.481063 
L 253.776745 158.212453 
L 254.318732 157.790286 
L 254.860719 154.259088 
L 255.402706 156.97529 
L 256.48668 148.858239 
L 257.028667 147.901611 
L 257.570654 152.822418 
L 258.112641 150.67493 
L 258.654628 152.907398 
L 259.196615 145.619765 
L 259.738602 152.642882 
L 260.280589 151.384339 
L 261.364563 154.359314 
L 261.90655 152.810815 
L 262.448537 153.145762 
L 262.990524 156.170081 
L 263.532511 157.588968 
L 264.074498 153.113005 
L 264.616485 159.126578 
L 265.158472 153.686161 
L 265.700459 154.221396 
L 266.242446 159.188076 
L 266.784433 155.841618 
L 267.32642 156.512957 
L 267.868407 149.393444 
L 268.952381 153.542379 
L 269.494368 150.792856 
L 270.036355 150.283346 
L 270.578342 144.884257 
L 271.120329 145.696392 
L 271.662316 139.247697 
L 272.204303 139.746555 
L 272.74629 139.874156 
L 273.288277 141.056994 
L 273.830264 142.586055 
L 274.914238 146.192994 
L 275.456225 146.468395 
L 275.998212 147.517998 
L 276.540199 147.029648 
L 277.082186 151.461575 
L 277.624173 146.963723 
L 278.16616 151.526309 
L 278.708147 152.740336 
L 279.250134 149.855887 
L 279.792121 152.095426 
L 280.334108 147.352309 
L 280.876095 145.088059 
L 281.418082 147.108123 
L 281.960069 142.91459 
L 282.502056 147.763097 
L 283.044043 148.915385 
L 283.58603 146.097935 
L 284.128017 137.594301 
L 284.670004 143.50528 
L 285.211991 146.106658 
L 285.753978 139.524536 
L 286.295965 142.547121 
L 286.837952 137.754167 
L 287.379939 136.709418 
L 287.921926 144.699747 
L 289.547887 137.707513 
L 290.089874 137.870282 
L 290.631861 140.938236 
L 291.173848 137.807852 
L 291.715835 135.816938 
L 292.257822 139.500063 
L 292.799809 142.301116 
L 293.341796 140.399008 
L 293.883783 138.909588 
L 294.42577 141.708862 
L 294.967757 140.787427 
L 295.509744 140.478803 
L 296.051731 137.588469 
L 296.593718 138.286807 
L 297.135705 139.995917 
L 297.677692 143.565619 
L 298.219679 141.827553 
L 298.761666 137.451918 
L 299.303653 138.327621 
L 299.84564 137.665488 
L 300.387627 135.982816 
L 300.929614 134.74205 
L 301.471601 134.599398 
L 302.013588 131.485925 
L 302.555575 131.964382 
L 303.097562 131.297789 
L 303.639549 121.838588 
L 304.181536 131.704595 
L 305.26551 127.01773 
L 305.807497 128.275282 
L 306.349484 127.089414 
L 306.891471 129.160744 
L 307.433458 127.721227 
L 307.975445 127.305887 
L 308.517432 126.568525 
L 309.059419 125.287558 
L 309.601406 125.710748 
L 310.143393 122.925942 
L 310.68538 124.096308 
L 311.227367 122.735282 
L 311.769354 121.743203 
L 312.311341 122.538574 
L 312.853328 118.591958 
L 313.395315 121.928105 
L 313.937302 117.426098 
L 314.479289 115.849579 
L 315.021276 111.132167 
L 315.563263 107.643969 
L 316.10525 107.603776 
L 316.647237 109.765256 
L 317.189224 108.737391 
L 317.731211 101.817244 
L 318.273198 105.365357 
L 318.815185 110.082818 
L 319.357172 110.175529 
L 319.899159 111.819898 
L 320.441146 115.554831 
L 320.983133 111.354205 
L 321.52512 111.411915 
L 322.067107 111.856997 
L 322.609094 113.914568 
L 323.151081 112.006522 
L 323.693068 114.113819 
L 324.235055 113.616518 
L 324.777041 114.006252 
L 325.319028 115.86891 
L 325.861015 113.815244 
L 326.403002 112.480194 
L 326.944989 114.2302 
L 327.486976 113.906939 
L 328.028963 112.747901 
L 328.57095 115.597674 
L 329.112937 111.962898 
L 329.654924 114.48285 
L 330.196911 109.838852 
L 331.280885 115.366303 
L 331.822872 112.932609 
L 332.364859 115.86891 
L 332.906846 113.261963 
L 333.448833 117.192055 
L 333.99082 119.248052 
L 334.532807 113.819936 
L 335.074794 116.698693 
L 335.616781 108.986329 
L 336.158768 113.524804 
L 336.700755 105.899736 
L 337.242742 119.199475 
L 337.784729 105.205197 
L 338.326716 107.171057 
L 338.868703 103.694173 
L 339.41069 107.898988 
L 339.952677 106.349476 
L 340.494664 98.703841 
L 341.036651 102.486796 
L 341.578638 95.865529 
L 342.120625 96.932126 
L 342.662612 95.892149 
L 343.204599 94.35885 
L 343.746586 86.771896 
L 344.288573 95.005929 
L 344.83056 91.81074 
L 345.372547 98.114496 
L 345.914534 96.406317 
L 346.456521 96.382659 
L 346.998508 94.311502 
L 347.540495 97.518998 
L 348.082482 97.951492 
L 348.624469 98.806409 
L 349.166456 97.136646 
L 349.708443 97.772856 
L 350.25043 93.779583 
L 350.792417 94.833661 
L 351.334404 99.374799 
L 351.876391 97.241443 
L 352.418378 97.597986 
L 352.960365 98.309986 
L 353.502352 99.412337 
L 354.044339 96.268921 
L 354.586326 96.648547 
L 355.128313 96.104894 
L 355.6703 94.815145 
L 356.212287 90.199879 
L 356.754274 92.156713 
L 357.296261 97.153569 
L 357.838248 94.859526 
L 358.380235 93.392542 
L 358.922222 92.338199 
L 359.464209 94.062954 
L 360.006196 92.320432 
L 360.548183 97.793546 
L 361.09017 95.332643 
L 361.632157 93.536121 
L 362.174144 92.344122 
L 362.716131 95.759834 
L 363.258118 98.286344 
L 363.800105 97.950658 
L 364.342092 86.009693 
L 364.884079 91.921891 
L 365.426066 91.792969 
L 365.968053 95.142671 
L 366.51004 94.241982 
L 367.052027 89.005181 
L 367.594014 84.864456 
L 368.136001 89.143244 
L 368.677988 86.677536 
L 369.219975 88.068045 
L 369.761962 89.828092 
L 370.303949 85.61537 
L 370.845936 84.390184 
L 371.387923 85.370676 
L 371.92991 84.675525 
L 372.471897 85.373645 
L 373.013884 83.888516 
L 373.555871 84.890095 
L 374.097858 83.066963 
L 374.639845 84.677959 
L 375.181832 80.336177 
L 375.723819 84.122596 
L 376.265806 79.825206 
L 376.807793 82.479211 
L 377.34978 80.41007 
L 377.891767 81.656347 
L 378.433754 80.329794 
L 378.975741 80.111505 
L 379.517728 79.710495 
L 380.059715 80.141672 
L 380.601702 78.539126 
L 381.143689 84.516798 
L 381.685676 82.392012 
L 382.227663 81.904574 
L 382.76965 80.752727 
L 383.311637 77.200965 
L 383.853624 76.860835 
L 384.395611 74.855266 
L 384.937598 73.917443 
L 385.479585 75.299512 
L 386.021572 73.962138 
L 386.563559 74.513918 
L 387.105546 70.320338 
L 387.647533 67.849485 
L 388.18952 67.897103 
L 388.731507 66.338299 
L 389.273494 69.031954 
L 389.815481 66.514304 
L 390.357468 67.238651 
L 390.899455 67.721396 
L 391.441442 65.697069 
L 391.983429 65.440495 
L 392.525416 58.093774 
L 393.067403 62.901948 
L 394.151377 53.568 
L 394.693364 53.643176 
L 395.235351 56.761792 
L 395.777338 63.655001 
L 396.319325 60.011718 
L 396.861312 59.403675 
L 397.403299 58.417554 
L 398.487273 63.395022 
L 398.487273 63.395022 
" style="fill:none;stroke:#1f77b4;stroke-linecap:square;stroke-width:1.5;"/>
   </g>
   <g id="patch_3">
    <path d="M 57.6 307.584 
L 57.6 41.472 
" style="fill:none;stroke:#000000;stroke-linecap:square;stroke-linejoin:miter;stroke-width:0.8;"/>
   </g>
   <g id="patch_4">
    <path d="M 414.72 307.584 
L 414.72 41.472 
" style="fill:none;stroke:#000000;stroke-linecap:square;stroke-linejoin:miter;stroke-width:0.8;"/>
   </g>
   <g id="patch_5">
    <path d="M 57.6 307.584 
L 414.72 307.584 
" style="fill:none;stroke:#000000;stroke-linecap:square;stroke-linejoin:miter;stroke-width:0.8;"/>
   </g>
   <g id="patch_6">
    <path d="M 57.6 41.472 
L 414.72 41.472 
" style="fill:none;stroke:#000000;stroke-linecap:square;stroke-linejoin:miter;stroke-width:0.8;"/>
   </g>
   <g id="text_19">
    <!-- Resistance with source voltage 100.0 mV -->
    <defs>
     <path d="M 4.203125 54.6875 
L 13.1875 54.6875 
L 24.421875 12.015625 
L 35.59375 54.6875 
L 46.1875 54.6875 
L 57.421875 12.015625 
L 68.609375 54.6875 
L 77.59375 54.6875 
L 63.28125 0 
L 52.6875 0 
L 40.921875 44.828125 
L 29.109375 0 
L 18.5 0 
z
" id="DejaVuSans-77"/>
     <path d="M 30.609375 48.390625 
Q 23.390625 48.390625 19.1875 42.75 
Q 14.984375 37.109375 14.984375 27.296875 
Q 14.984375 17.484375 19.15625 11.84375 
Q 23.34375 6.203125 30.609375 6.203125 
Q 37.796875 6.203125 41.984375 11.859375 
Q 46.1875 17.53125 46.1875 27.296875 
Q 46.1875 37.015625 41.984375 42.703125 
Q 37.796875 48.390625 30.609375 48.390625 
z
M 30.609375 56 
Q 42.328125 56 49.015625 48.375 
Q 55.71875 40.765625 55.71875 27.296875 
Q 55.71875 13.875 49.015625 6.21875 
Q 42.328125 -1.421875 30.609375 -1.421875 
Q 18.84375 -1.421875 12.171875 6.21875 
Q 5.515625 13.875 5.515625 27.296875 
Q 5.515625 40.765625 12.171875 48.375 
Q 18.84375 56 30.609375 56 
z
" id="DejaVuSans-6f"/>
     <path d="M 8.5 21.578125 
L 8.5 54.6875 
L 17.484375 54.6875 
L 17.484375 21.921875 
Q 17.484375 14.15625 20.5 10.265625 
Q 23.53125 6.390625 29.59375 6.390625 
Q 36.859375 6.390625 41.078125 11.03125 
Q 45.3125 15.671875 45.3125 23.6875 
L 45.3125 54.6875 
L 54.296875 54.6875 
L 54.296875 0 
L 45.3125 0 
L 45.3125 8.40625 
Q 42.046875 3.421875 37.71875 1 
Q 33.40625 -1.421875 27.6875 -1.421875 
Q 18.265625 -1.421875 13.375 4.4375 
Q 8.5 10.296875 8.5 21.578125 
z
M 31.109375 56 
z
" id="DejaVuSans-75"/>
     <path d="M 41.109375 46.296875 
Q 39.59375 47.171875 37.8125 47.578125 
Q 36.03125 48 33.890625 48 
Q 26.265625 48 22.1875 43.046875 
Q 18.109375 38.09375 18.109375 28.8125 
L 18.109375 0 
L 9.078125 0 
L 9.078125 54.6875 
L 18.109375 54.6875 
L 18.109375 46.1875 
Q 20.953125 51.171875 25.484375 53.578125 
Q 30.03125 56 36.53125 56 
Q 37.453125 56 38.578125 55.875 
Q 39.703125 55.765625 41.0625 55.515625 
z
" id="DejaVuSans-72"/>
     <path d="M 2.984375 54.6875 
L 12.5 54.6875 
L 29.59375 8.796875 
L 46.6875 54.6875 
L 56.203125 54.6875 
L 35.6875 0 
L 23.484375 0 
z
" id="DejaVuSans-76"/>
     <path d="M 9.421875 75.984375 
L 18.40625 75.984375 
L 18.40625 0 
L 9.421875 0 
z
" id="DejaVuSans-6c"/>
     <path d="M 45.40625 27.984375 
Q 45.40625 37.75 41.375 43.109375 
Q 37.359375 48.484375 30.078125 48.484375 
Q 22.859375 48.484375 18.828125 43.109375 
Q 14.796875 37.75 14.796875 27.984375 
Q 14.796875 18.265625 18.828125 12.890625 
Q 22.859375 7.515625 30.078125 7.515625 
Q 37.359375 7.515625 41.375 12.890625 
Q 45.40625 18.265625 45.40625 27.984375 
z
M 54.390625 6.78125 
Q 54.390625 -7.171875 48.1875 -13.984375 
Q 42 -20.796875 29.203125 -20.796875 
Q 24.46875 -20.796875 20.265625 -20.09375 
Q 16.0625 -19.390625 12.109375 -17.921875 
L 12.109375 -9.1875 
Q 16.0625 -11.328125 19.921875 -12.34375 
Q 23.78125 -13.375 27.78125 -13.375 
Q 36.625 -13.375 41.015625 -8.765625 
Q 45.40625 -4.15625 45.40625 5.171875 
L 45.40625 9.625 
Q 42.625 4.78125 38.28125 2.390625 
Q 33.9375 0 27.875 0 
Q 17.828125 0 11.671875 7.65625 
Q 5.515625 15.328125 5.515625 27.984375 
Q 5.515625 40.671875 11.671875 48.328125 
Q 17.828125 56 27.875 56 
Q 33.9375 56 38.28125 53.609375 
Q 42.625 51.21875 45.40625 46.390625 
L 45.40625 54.6875 
L 54.390625 54.6875 
z
" id="DejaVuSans-67"/>
     <path d="M 28.609375 0 
L 0.78125 72.90625 
L 11.078125 72.90625 
L 34.1875 11.53125 
L 57.328125 72.90625 
L 67.578125 72.90625 
L 39.796875 0 
z
" id="DejaVuSans-56"/>
    </defs>
    <g transform="translate(111.699375 35.472)scale(0.12 -0.12)">
     <use xlink:href="#DejaVuSans-52"/>
     <use x="69.419922" xlink:href="#DejaVuSans-65"/>
     <use x="130.943359" xlink:href="#DejaVuSans-73"/>
     <use x="183.042969" xlink:href="#DejaVuSans-69"/>
     <use x="210.826172" xlink:href="#DejaVuSans-73"/>
     <use x="262.925781" xlink:href="#DejaVuSans-74"/>
     <use x="302.134766" xlink:href="#DejaVuSans-61"/>
     <use x="363.414062" xlink:href="#DejaVuSans-6e"/>
     <use x="426.792969" xlink:href="#DejaVuSans-63"/>
     <use x="481.773438" xlink:href="#DejaVuSans-65"/>
     <use x="543.296875" xlink:href="#DejaVuSans-20"/>
     <use x="575.083984" xlink:href="#DejaVuSans-77"/>
     <use x="656.871094" xlink:href="#DejaVuSans-69"/>
     <use x="684.654297" xlink:href="#DejaVuSans-74"/>
     <use x="723.863281" xlink:href="#DejaVuSans-68"/>
     <use x="787.242188" xlink:href="#DejaVuSans-20"/>
     <use x="819.029297" xlink:href="#DejaVuSans-73"/>
     <use x="871.128906" xlink:href="#DejaVuSans-6f"/>
     <use x="932.310547" xlink:href="#DejaVuSans-75"/>
     <use x="995.689453" xlink:href="#DejaVuSans-72"/>
     <use x="1036.771484" xlink:href="#DejaVuSans-63"/>
     <use x="1091.751953" xlink:href="#DejaVuSans-65"/>
     <use x="1153.275391" xlink:href="#DejaVuSans-20"/>
     <use x="1185.0625" xlink:href="#DejaVuSans-76"/>
     <use x="1244.242188" xlink:href="#DejaVuSans-6f"/>
     <use x="1305.423828" xlink:href="#DejaVuSans-6c"/>
     <use x="1333.207031" xlink:href="#DejaVuSans-74"/>
     <use x="1372.416016" xlink:href="#DejaVuSans-61"/>
     <use x="1433.695312" xlink:href="#DejaVuSans-67"/>
     <use x="1497.171875" xlink:href="#DejaVuSans-65"/>
     <use x="1558.695312" xlink:href="#DejaVuSans-20"/>
     <use x="1590.482422" xlink:href="#DejaVuSans-31"/>
     <use x="1654.105469" xlink:href="#DejaVuSans-30"/>
     <use x="1717.728516" xlink:href="#DejaVuSans-30"/>
     <use x="1781.351562" xlink:href="#DejaVuSans-2e"/>
     <use x="1813.138672" xlink:href="#DejaVuSans-30"/>
     <use x="1876.761719" xlink:href="#DejaVuSans-20"/>
     <use x="1908.548828" xlink:href="#DejaVuSans-6d"/>
     <use x="2005.960938" xlink:href="#DejaVuSans-56"/>
    </g>
   </g>
  </g>
 </g>
 <defs>
  <clipPath id="pb443efe9cd">
   <rect height="266.112" width="357.12" x="57.6" y="41.472"/>
  </clipPath>
 </defs>
</svg>
