<?xml version="1.0" encoding="utf-8" standalone="no"?>
<!DOCTYPE svg PUBLIC "-//W3C//DTD SVG 1.1//EN"
  "http://www.w3.org/Graphics/SVG/1.1/DTD/svg11.dtd">
<!-- Created with matplotlib (http://matplotlib.org/) -->
<svg height="345pt" version="1.1" viewBox="0 0 460 345" width="460pt" xmlns="http://www.w3.org/2000/svg" xmlns:xlink="http://www.w3.org/1999/xlink">
 <defs>
  <style type="text/css">
*{stroke-linecap:butt;stroke-linejoin:round;}
  </style>
 </defs>
 <g id="figure_1">
  <g id="patch_1">
   <path d="M 0 345.6 
L 460.8 345.6 
L 460.8 0 
L 0 0 
z
" style="fill:#ffffff;"/>
  </g>
  <g id="axes_1">
   <g id="patch_2">
    <path d="M 57.6 307.584 
L 414.72 307.584 
L 414.72 41.472 
L 57.6 41.472 
z
" style="fill:#ffffff;"/>
   </g>
   <g id="matplotlib.axis_1">
    <g id="xtick_1">
     <g id="line2d_1">
      <defs>
       <path d="M 0 0 
L 0 3.5 
" id="md03fe4ade9" style="stroke:#000000;stroke-width:0.8;"/>
      </defs>
      <g>
       <use style="stroke:#000000;stroke-width:0.8;" x="73.832727" xlink:href="#md03fe4ade9" y="307.584"/>
      </g>
     </g>
     <g id="text_1">
      <!-- 0 -->
      <defs>
       <path d="M 31.78125 66.40625 
Q 24.171875 66.40625 20.328125 58.90625 
Q 16.5 51.421875 16.5 36.375 
Q 16.5 21.390625 20.328125 13.890625 
Q 24.171875 6.390625 31.78125 6.390625 
Q 39.453125 6.390625 43.28125 13.890625 
Q 47.125 21.390625 47.125 36.375 
Q 47.125 51.421875 43.28125 58.90625 
Q 39.453125 66.40625 31.78125 66.40625 
z
M 31.78125 74.21875 
Q 44.046875 74.21875 50.515625 64.515625 
Q 56.984375 54.828125 56.984375 36.375 
Q 56.984375 17.96875 50.515625 8.265625 
Q 44.046875 -1.421875 31.78125 -1.421875 
Q 19.53125 -1.421875 13.0625 8.265625 
Q 6.59375 17.96875 6.59375 36.375 
Q 6.59375 54.828125 13.0625 64.515625 
Q 19.53125 74.21875 31.78125 74.21875 
z
" id="DejaVuSans-30"/>
      </defs>
      <g transform="translate(70.651477 322.182437)scale(0.1 -0.1)">
       <use xlink:href="#DejaVuSans-30"/>
      </g>
     </g>
    </g>
    <g id="xtick_2">
     <g id="line2d_2">
      <g>
       <use style="stroke:#000000;stroke-width:0.8;" x="128.026994" xlink:href="#md03fe4ade9" y="307.584"/>
      </g>
     </g>
     <g id="text_2">
      <!-- 100 -->
      <defs>
       <path d="M 12.40625 8.296875 
L 28.515625 8.296875 
L 28.515625 63.921875 
L 10.984375 60.40625 
L 10.984375 69.390625 
L 28.421875 72.90625 
L 38.28125 72.90625 
L 38.28125 8.296875 
L 54.390625 8.296875 
L 54.390625 0 
L 12.40625 0 
z
" id="DejaVuSans-31"/>
      </defs>
      <g transform="translate(118.483244 322.182437)scale(0.1 -0.1)">
       <use xlink:href="#DejaVuSans-31"/>
       <use x="63.623047" xlink:href="#DejaVuSans-30"/>
       <use x="127.246094" xlink:href="#DejaVuSans-30"/>
      </g>
     </g>
    </g>
    <g id="xtick_3">
     <g id="line2d_3">
      <g>
       <use style="stroke:#000000;stroke-width:0.8;" x="182.22126" xlink:href="#md03fe4ade9" y="307.584"/>
      </g>
     </g>
     <g id="text_3">
      <!-- 200 -->
      <defs>
       <path d="M 19.1875 8.296875 
L 53.609375 8.296875 
L 53.609375 0 
L 7.328125 0 
L 7.328125 8.296875 
Q 12.9375 14.109375 22.625 23.890625 
Q 32.328125 33.6875 34.8125 36.53125 
Q 39.546875 41.84375 41.421875 45.53125 
Q 43.3125 49.21875 43.3125 52.78125 
Q 43.3125 58.59375 39.234375 62.25 
Q 35.15625 65.921875 28.609375 65.921875 
Q 23.96875 65.921875 18.8125 64.3125 
Q 13.671875 62.703125 7.8125 59.421875 
L 7.8125 69.390625 
Q 13.765625 71.78125 18.9375 73 
Q 24.125 74.21875 28.421875 74.21875 
Q 39.75 74.21875 46.484375 68.546875 
Q 53.21875 62.890625 53.21875 53.421875 
Q 53.21875 48.921875 51.53125 44.890625 
Q 49.859375 40.875 45.40625 35.40625 
Q 44.1875 33.984375 37.640625 27.21875 
Q 31.109375 20.453125 19.1875 8.296875 
z
" id="DejaVuSans-32"/>
      </defs>
      <g transform="translate(172.67751 322.182437)scale(0.1 -0.1)">
       <use xlink:href="#DejaVuSans-32"/>
       <use x="63.623047" xlink:href="#DejaVuSans-30"/>
       <use x="127.246094" xlink:href="#DejaVuSans-30"/>
      </g>
     </g>
    </g>
    <g id="xtick_4">
     <g id="line2d_4">
      <g>
       <use style="stroke:#000000;stroke-width:0.8;" x="236.415526" xlink:href="#md03fe4ade9" y="307.584"/>
      </g>
     </g>
     <g id="text_4">
      <!-- 300 -->
      <defs>
       <path d="M 40.578125 39.3125 
Q 47.65625 37.796875 51.625 33 
Q 55.609375 28.21875 55.609375 21.1875 
Q 55.609375 10.40625 48.1875 4.484375 
Q 40.765625 -1.421875 27.09375 -1.421875 
Q 22.515625 -1.421875 17.65625 -0.515625 
Q 12.796875 0.390625 7.625 2.203125 
L 7.625 11.71875 
Q 11.71875 9.328125 16.59375 8.109375 
Q 21.484375 6.890625 26.8125 6.890625 
Q 36.078125 6.890625 40.9375 10.546875 
Q 45.796875 14.203125 45.796875 21.1875 
Q 45.796875 27.640625 41.28125 31.265625 
Q 36.765625 34.90625 28.71875 34.90625 
L 20.21875 34.90625 
L 20.21875 43.015625 
L 29.109375 43.015625 
Q 36.375 43.015625 40.234375 45.921875 
Q 44.09375 48.828125 44.09375 54.296875 
Q 44.09375 59.90625 40.109375 62.90625 
Q 36.140625 65.921875 28.71875 65.921875 
Q 24.65625 65.921875 20.015625 65.03125 
Q 15.375 64.15625 9.8125 62.3125 
L 9.8125 71.09375 
Q 15.4375 72.65625 20.34375 73.4375 
Q 25.25 74.21875 29.59375 74.21875 
Q 40.828125 74.21875 47.359375 69.109375 
Q 53.90625 64.015625 53.90625 55.328125 
Q 53.90625 49.265625 50.4375 45.09375 
Q 46.96875 40.921875 40.578125 39.3125 
z
" id="DejaVuSans-33"/>
      </defs>
      <g transform="translate(226.871776 322.182437)scale(0.1 -0.1)">
       <use xlink:href="#DejaVuSans-33"/>
       <use x="63.623047" xlink:href="#DejaVuSans-30"/>
       <use x="127.246094" xlink:href="#DejaVuSans-30"/>
      </g>
     </g>
    </g>
    <g id="xtick_5">
     <g id="line2d_5">
      <g>
       <use style="stroke:#000000;stroke-width:0.8;" x="290.609792" xlink:href="#md03fe4ade9" y="307.584"/>
      </g>
     </g>
     <g id="text_5">
      <!-- 400 -->
      <defs>
       <path d="M 37.796875 64.3125 
L 12.890625 25.390625 
L 37.796875 25.390625 
z
M 35.203125 72.90625 
L 47.609375 72.90625 
L 47.609375 25.390625 
L 58.015625 25.390625 
L 58.015625 17.1875 
L 47.609375 17.1875 
L 47.609375 0 
L 37.796875 0 
L 37.796875 17.1875 
L 4.890625 17.1875 
L 4.890625 26.703125 
z
" id="DejaVuSans-34"/>
      </defs>
      <g transform="translate(281.066042 322.182437)scale(0.1 -0.1)">
       <use xlink:href="#DejaVuSans-34"/>
       <use x="63.623047" xlink:href="#DejaVuSans-30"/>
       <use x="127.246094" xlink:href="#DejaVuSans-30"/>
      </g>
     </g>
    </g>
    <g id="xtick_6">
     <g id="line2d_6">
      <g>
       <use style="stroke:#000000;stroke-width:0.8;" x="344.804058" xlink:href="#md03fe4ade9" y="307.584"/>
      </g>
     </g>
     <g id="text_6">
      <!-- 500 -->
      <defs>
       <path d="M 10.796875 72.90625 
L 49.515625 72.90625 
L 49.515625 64.59375 
L 19.828125 64.59375 
L 19.828125 46.734375 
Q 21.96875 47.46875 24.109375 47.828125 
Q 26.265625 48.1875 28.421875 48.1875 
Q 40.625 48.1875 47.75 41.5 
Q 54.890625 34.8125 54.890625 23.390625 
Q 54.890625 11.625 47.5625 5.09375 
Q 40.234375 -1.421875 26.90625 -1.421875 
Q 22.3125 -1.421875 17.546875 -0.640625 
Q 12.796875 0.140625 7.71875 1.703125 
L 7.71875 11.625 
Q 12.109375 9.234375 16.796875 8.0625 
Q 21.484375 6.890625 26.703125 6.890625 
Q 35.15625 6.890625 40.078125 11.328125 
Q 45.015625 15.765625 45.015625 23.390625 
Q 45.015625 31 40.078125 35.4375 
Q 35.15625 39.890625 26.703125 39.890625 
Q 22.75 39.890625 18.8125 39.015625 
Q 14.890625 38.140625 10.796875 36.28125 
z
" id="DejaVuSans-35"/>
      </defs>
      <g transform="translate(335.260308 322.182437)scale(0.1 -0.1)">
       <use xlink:href="#DejaVuSans-35"/>
       <use x="63.623047" xlink:href="#DejaVuSans-30"/>
       <use x="127.246094" xlink:href="#DejaVuSans-30"/>
      </g>
     </g>
    </g>
    <g id="xtick_7">
     <g id="line2d_7">
      <g>
       <use style="stroke:#000000;stroke-width:0.8;" x="398.998325" xlink:href="#md03fe4ade9" y="307.584"/>
      </g>
     </g>
     <g id="text_7">
      <!-- 600 -->
      <defs>
       <path d="M 33.015625 40.375 
Q 26.375 40.375 22.484375 35.828125 
Q 18.609375 31.296875 18.609375 23.390625 
Q 18.609375 15.53125 22.484375 10.953125 
Q 26.375 6.390625 33.015625 6.390625 
Q 39.65625 6.390625 43.53125 10.953125 
Q 47.40625 15.53125 47.40625 23.390625 
Q 47.40625 31.296875 43.53125 35.828125 
Q 39.65625 40.375 33.015625 40.375 
z
M 52.59375 71.296875 
L 52.59375 62.3125 
Q 48.875 64.0625 45.09375 64.984375 
Q 41.3125 65.921875 37.59375 65.921875 
Q 27.828125 65.921875 22.671875 59.328125 
Q 17.53125 52.734375 16.796875 39.40625 
Q 19.671875 43.65625 24.015625 45.921875 
Q 28.375 48.1875 33.59375 48.1875 
Q 44.578125 48.1875 50.953125 41.515625 
Q 57.328125 34.859375 57.328125 23.390625 
Q 57.328125 12.15625 50.6875 5.359375 
Q 44.046875 -1.421875 33.015625 -1.421875 
Q 20.359375 -1.421875 13.671875 8.265625 
Q 6.984375 17.96875 6.984375 36.375 
Q 6.984375 53.65625 15.1875 63.9375 
Q 23.390625 74.21875 37.203125 74.21875 
Q 40.921875 74.21875 44.703125 73.484375 
Q 48.484375 72.75 52.59375 71.296875 
z
" id="DejaVuSans-36"/>
      </defs>
      <g transform="translate(389.454575 322.182437)scale(0.1 -0.1)">
       <use xlink:href="#DejaVuSans-36"/>
       <use x="63.623047" xlink:href="#DejaVuSans-30"/>
       <use x="127.246094" xlink:href="#DejaVuSans-30"/>
      </g>
     </g>
    </g>
    <g id="text_8">
     <!-- t(s) -->
     <defs>
      <path d="M 18.3125 70.21875 
L 18.3125 54.6875 
L 36.8125 54.6875 
L 36.8125 47.703125 
L 18.3125 47.703125 
L 18.3125 18.015625 
Q 18.3125 11.328125 20.140625 9.421875 
Q 21.96875 7.515625 27.59375 7.515625 
L 36.8125 7.515625 
L 36.8125 0 
L 27.59375 0 
Q 17.1875 0 13.234375 3.875 
Q 9.28125 7.765625 9.28125 18.015625 
L 9.28125 47.703125 
L 2.6875 47.703125 
L 2.6875 54.6875 
L 9.28125 54.6875 
L 9.28125 70.21875 
z
" id="DejaVuSans-74"/>
      <path d="M 31 75.875 
Q 24.46875 64.65625 21.28125 53.65625 
Q 18.109375 42.671875 18.109375 31.390625 
Q 18.109375 20.125 21.3125 9.0625 
Q 24.515625 -2 31 -13.1875 
L 23.1875 -13.1875 
Q 15.875 -1.703125 12.234375 9.375 
Q 8.59375 20.453125 8.59375 31.390625 
Q 8.59375 42.28125 12.203125 53.3125 
Q 15.828125 64.359375 23.1875 75.875 
z
" id="DejaVuSans-28"/>
      <path d="M 44.28125 53.078125 
L 44.28125 44.578125 
Q 40.484375 46.53125 36.375 47.5 
Q 32.28125 48.484375 27.875 48.484375 
Q 21.1875 48.484375 17.84375 46.4375 
Q 14.5 44.390625 14.5 40.28125 
Q 14.5 37.15625 16.890625 35.375 
Q 19.28125 33.59375 26.515625 31.984375 
L 29.59375 31.296875 
Q 39.15625 29.25 43.1875 25.515625 
Q 47.21875 21.78125 47.21875 15.09375 
Q 47.21875 7.46875 41.1875 3.015625 
Q 35.15625 -1.421875 24.609375 -1.421875 
Q 20.21875 -1.421875 15.453125 -0.5625 
Q 10.6875 0.296875 5.421875 2 
L 5.421875 11.28125 
Q 10.40625 8.6875 15.234375 7.390625 
Q 20.0625 6.109375 24.8125 6.109375 
Q 31.15625 6.109375 34.5625 8.28125 
Q 37.984375 10.453125 37.984375 14.40625 
Q 37.984375 18.0625 35.515625 20.015625 
Q 33.0625 21.96875 24.703125 23.78125 
L 21.578125 24.515625 
Q 13.234375 26.265625 9.515625 29.90625 
Q 5.8125 33.546875 5.8125 39.890625 
Q 5.8125 47.609375 11.28125 51.796875 
Q 16.75 56 26.8125 56 
Q 31.78125 56 36.171875 55.265625 
Q 40.578125 54.546875 44.28125 53.078125 
z
" id="DejaVuSans-73"/>
      <path d="M 8.015625 75.875 
L 15.828125 75.875 
Q 23.140625 64.359375 26.78125 53.3125 
Q 30.421875 42.28125 30.421875 31.390625 
Q 30.421875 20.453125 26.78125 9.375 
Q 23.140625 -1.703125 15.828125 -13.1875 
L 8.015625 -13.1875 
Q 14.5 -2 17.703125 9.0625 
Q 20.90625 20.125 20.90625 31.390625 
Q 20.90625 42.671875 17.703125 53.65625 
Q 14.5 64.65625 8.015625 75.875 
z
" id="DejaVuSans-29"/>
     </defs>
     <g transform="translate(227.693594 335.860562)scale(0.1 -0.1)">
      <use xlink:href="#DejaVuSans-74"/>
      <use x="39.208984" xlink:href="#DejaVuSans-28"/>
      <use x="78.222656" xlink:href="#DejaVuSans-73"/>
      <use x="130.322266" xlink:href="#DejaVuSans-29"/>
     </g>
    </g>
   </g>
   <g id="matplotlib.axis_2">
    <g id="ytick_1">
     <g id="line2d_8">
      <defs>
       <path d="M 0 0 
L -3.5 0 
" id="m354decb3f8" style="stroke:#000000;stroke-width:0.8;"/>
      </defs>
      <g>
       <use style="stroke:#000000;stroke-width:0.8;" x="57.6" xlink:href="#m354decb3f8" y="264.604596"/>
      </g>
     </g>
     <g id="text_9">
      <!-- −0.000004 -->
      <defs>
       <path d="M 10.59375 35.5 
L 73.1875 35.5 
L 73.1875 27.203125 
L 10.59375 27.203125 
z
" id="DejaVuSans-2212"/>
       <path d="M 10.6875 12.40625 
L 21 12.40625 
L 21 0 
L 10.6875 0 
z
" id="DejaVuSans-2e"/>
      </defs>
      <g transform="translate(-5.495313 268.403814)scale(0.1 -0.1)">
       <use xlink:href="#DejaVuSans-2212"/>
       <use x="83.789062" xlink:href="#DejaVuSans-30"/>
       <use x="147.412109" xlink:href="#DejaVuSans-2e"/>
       <use x="179.199219" xlink:href="#DejaVuSans-30"/>
       <use x="242.822266" xlink:href="#DejaVuSans-30"/>
       <use x="306.445312" xlink:href="#DejaVuSans-30"/>
       <use x="370.068359" xlink:href="#DejaVuSans-30"/>
       <use x="433.691406" xlink:href="#DejaVuSans-30"/>
       <use x="497.314453" xlink:href="#DejaVuSans-34"/>
      </g>
     </g>
    </g>
    <g id="ytick_2">
     <g id="line2d_9">
      <g>
       <use style="stroke:#000000;stroke-width:0.8;" x="57.6" xlink:href="#m354decb3f8" y="213.132255"/>
      </g>
     </g>
     <g id="text_10">
      <!-- −0.000002 -->
      <g transform="translate(-5.495313 216.931474)scale(0.1 -0.1)">
       <use xlink:href="#DejaVuSans-2212"/>
       <use x="83.789062" xlink:href="#DejaVuSans-30"/>
       <use x="147.412109" xlink:href="#DejaVuSans-2e"/>
       <use x="179.199219" xlink:href="#DejaVuSans-30"/>
       <use x="242.822266" xlink:href="#DejaVuSans-30"/>
       <use x="306.445312" xlink:href="#DejaVuSans-30"/>
       <use x="370.068359" xlink:href="#DejaVuSans-30"/>
       <use x="433.691406" xlink:href="#DejaVuSans-30"/>
       <use x="497.314453" xlink:href="#DejaVuSans-32"/>
      </g>
     </g>
    </g>
    <g id="ytick_3">
     <g id="line2d_10">
      <g>
       <use style="stroke:#000000;stroke-width:0.8;" x="57.6" xlink:href="#m354decb3f8" y="161.659915"/>
      </g>
     </g>
     <g id="text_11">
      <!-- 0.000000 -->
      <g transform="translate(2.884375 165.459134)scale(0.1 -0.1)">
       <use xlink:href="#DejaVuSans-30"/>
       <use x="63.623047" xlink:href="#DejaVuSans-2e"/>
       <use x="95.410156" xlink:href="#DejaVuSans-30"/>
       <use x="159.033203" xlink:href="#DejaVuSans-30"/>
       <use x="222.65625" xlink:href="#DejaVuSans-30"/>
       <use x="286.279297" xlink:href="#DejaVuSans-30"/>
       <use x="349.902344" xlink:href="#DejaVuSans-30"/>
       <use x="413.525391" xlink:href="#DejaVuSans-30"/>
      </g>
     </g>
    </g>
    <g id="ytick_4">
     <g id="line2d_11">
      <g>
       <use style="stroke:#000000;stroke-width:0.8;" x="57.6" xlink:href="#m354decb3f8" y="110.187574"/>
      </g>
     </g>
     <g id="text_12">
      <!-- 0.000002 -->
      <g transform="translate(2.884375 113.986793)scale(0.1 -0.1)">
       <use xlink:href="#DejaVuSans-30"/>
       <use x="63.623047" xlink:href="#DejaVuSans-2e"/>
       <use x="95.410156" xlink:href="#DejaVuSans-30"/>
       <use x="159.033203" xlink:href="#DejaVuSans-30"/>
       <use x="222.65625" xlink:href="#DejaVuSans-30"/>
       <use x="286.279297" xlink:href="#DejaVuSans-30"/>
       <use x="349.902344" xlink:href="#DejaVuSans-30"/>
       <use x="413.525391" xlink:href="#DejaVuSans-32"/>
      </g>
     </g>
    </g>
    <g id="ytick_5">
     <g id="line2d_12">
      <g>
       <use style="stroke:#000000;stroke-width:0.8;" x="57.6" xlink:href="#m354decb3f8" y="58.715234"/>
      </g>
     </g>
     <g id="text_13">
      <!-- 0.000004 -->
      <g transform="translate(2.884375 62.514453)scale(0.1 -0.1)">
       <use xlink:href="#DejaVuSans-30"/>
       <use x="63.623047" xlink:href="#DejaVuSans-2e"/>
       <use x="95.410156" xlink:href="#DejaVuSans-30"/>
       <use x="159.033203" xlink:href="#DejaVuSans-30"/>
       <use x="222.65625" xlink:href="#DejaVuSans-30"/>
       <use x="286.279297" xlink:href="#DejaVuSans-30"/>
       <use x="349.902344" xlink:href="#DejaVuSans-30"/>
       <use x="413.525391" xlink:href="#DejaVuSans-34"/>
      </g>
     </g>
    </g>
    <g id="text_14">
     <!-- Voltage (V) -->
     <defs>
      <path d="M 28.609375 0 
L 0.78125 72.90625 
L 11.078125 72.90625 
L 34.1875 11.53125 
L 57.328125 72.90625 
L 67.578125 72.90625 
L 39.796875 0 
z
" id="DejaVuSans-56"/>
      <path d="M 30.609375 48.390625 
Q 23.390625 48.390625 19.1875 42.75 
Q 14.984375 37.109375 14.984375 27.296875 
Q 14.984375 17.484375 19.15625 11.84375 
Q 23.34375 6.203125 30.609375 6.203125 
Q 37.796875 6.203125 41.984375 11.859375 
Q 46.1875 17.53125 46.1875 27.296875 
Q 46.1875 37.015625 41.984375 42.703125 
Q 37.796875 48.390625 30.609375 48.390625 
z
M 30.609375 56 
Q 42.328125 56 49.015625 48.375 
Q 55.71875 40.765625 55.71875 27.296875 
Q 55.71875 13.875 49.015625 6.21875 
Q 42.328125 -1.421875 30.609375 -1.421875 
Q 18.84375 -1.421875 12.171875 6.21875 
Q 5.515625 13.875 5.515625 27.296875 
Q 5.515625 40.765625 12.171875 48.375 
Q 18.84375 56 30.609375 56 
z
" id="DejaVuSans-6f"/>
      <path d="M 9.421875 75.984375 
L 18.40625 75.984375 
L 18.40625 0 
L 9.421875 0 
z
" id="DejaVuSans-6c"/>
      <path d="M 34.28125 27.484375 
Q 23.390625 27.484375 19.1875 25 
Q 14.984375 22.515625 14.984375 16.5 
Q 14.984375 11.71875 18.140625 8.90625 
Q 21.296875 6.109375 26.703125 6.109375 
Q 34.1875 6.109375 38.703125 11.40625 
Q 43.21875 16.703125 43.21875 25.484375 
L 43.21875 27.484375 
z
M 52.203125 31.203125 
L 52.203125 0 
L 43.21875 0 
L 43.21875 8.296875 
Q 40.140625 3.328125 35.546875 0.953125 
Q 30.953125 -1.421875 24.3125 -1.421875 
Q 15.921875 -1.421875 10.953125 3.296875 
Q 6 8.015625 6 15.921875 
Q 6 25.140625 12.171875 29.828125 
Q 18.359375 34.515625 30.609375 34.515625 
L 43.21875 34.515625 
L 43.21875 35.40625 
Q 43.21875 41.609375 39.140625 45 
Q 35.0625 48.390625 27.6875 48.390625 
Q 23 48.390625 18.546875 47.265625 
Q 14.109375 46.140625 10.015625 43.890625 
L 10.015625 52.203125 
Q 14.9375 54.109375 19.578125 55.046875 
Q 24.21875 56 28.609375 56 
Q 40.484375 56 46.34375 49.84375 
Q 52.203125 43.703125 52.203125 31.203125 
z
" id="DejaVuSans-61"/>
      <path d="M 45.40625 27.984375 
Q 45.40625 37.75 41.375 43.109375 
Q 37.359375 48.484375 30.078125 48.484375 
Q 22.859375 48.484375 18.828125 43.109375 
Q 14.796875 37.75 14.796875 27.984375 
Q 14.796875 18.265625 18.828125 12.890625 
Q 22.859375 7.515625 30.078125 7.515625 
Q 37.359375 7.515625 41.375 12.890625 
Q 45.40625 18.265625 45.40625 27.984375 
z
M 54.390625 6.78125 
Q 54.390625 -7.171875 48.1875 -13.984375 
Q 42 -20.796875 29.203125 -20.796875 
Q 24.46875 -20.796875 20.265625 -20.09375 
Q 16.0625 -19.390625 12.109375 -17.921875 
L 12.109375 -9.1875 
Q 16.0625 -11.328125 19.921875 -12.34375 
Q 23.78125 -13.375 27.78125 -13.375 
Q 36.625 -13.375 41.015625 -8.765625 
Q 45.40625 -4.15625 45.40625 5.171875 
L 45.40625 9.625 
Q 42.625 4.78125 38.28125 2.390625 
Q 33.9375 0 27.875 0 
Q 17.828125 0 11.671875 7.65625 
Q 5.515625 15.328125 5.515625 27.984375 
Q 5.515625 40.671875 11.671875 48.328125 
Q 17.828125 56 27.875 56 
Q 33.9375 56 38.28125 53.609375 
Q 42.625 51.21875 45.40625 46.390625 
L 45.40625 54.6875 
L 54.390625 54.6875 
z
" id="DejaVuSans-67"/>
      <path d="M 56.203125 29.59375 
L 56.203125 25.203125 
L 14.890625 25.203125 
Q 15.484375 15.921875 20.484375 11.0625 
Q 25.484375 6.203125 34.421875 6.203125 
Q 39.59375 6.203125 44.453125 7.46875 
Q 49.3125 8.734375 54.109375 11.28125 
L 54.109375 2.78125 
Q 49.265625 0.734375 44.1875 -0.34375 
Q 39.109375 -1.421875 33.890625 -1.421875 
Q 20.796875 -1.421875 13.15625 6.1875 
Q 5.515625 13.8125 5.515625 26.8125 
Q 5.515625 40.234375 12.765625 48.109375 
Q 20.015625 56 32.328125 56 
Q 43.359375 56 49.78125 48.890625 
Q 56.203125 41.796875 56.203125 29.59375 
z
M 47.21875 32.234375 
Q 47.125 39.59375 43.09375 43.984375 
Q 39.0625 48.390625 32.421875 48.390625 
Q 24.90625 48.390625 20.390625 44.140625 
Q 15.875 39.890625 15.1875 32.171875 
z
" id="DejaVuSans-65"/>
      <path id="DejaVuSans-20"/>
     </defs>
     <g transform="translate(-11.575 202.577219)rotate(-90)scale(0.1 -0.1)">
      <use xlink:href="#DejaVuSans-56"/>
      <use x="68.298828" xlink:href="#DejaVuSans-6f"/>
      <use x="129.480469" xlink:href="#DejaVuSans-6c"/>
      <use x="157.263672" xlink:href="#DejaVuSans-74"/>
      <use x="196.472656" xlink:href="#DejaVuSans-61"/>
      <use x="257.751953" xlink:href="#DejaVuSans-67"/>
      <use x="321.228516" xlink:href="#DejaVuSans-65"/>
      <use x="382.751953" xlink:href="#DejaVuSans-20"/>
      <use x="414.539062" xlink:href="#DejaVuSans-28"/>
      <use x="453.552734" xlink:href="#DejaVuSans-56"/>
      <use x="521.960938" xlink:href="#DejaVuSans-29"/>
     </g>
    </g>
    <g id="text_15">
     <!-- +1e−1 -->
     <defs>
      <path d="M 46 62.703125 
L 46 35.5 
L 73.1875 35.5 
L 73.1875 27.203125 
L 46 27.203125 
L 46 0 
L 37.796875 0 
L 37.796875 27.203125 
L 10.59375 27.203125 
L 10.59375 35.5 
L 37.796875 35.5 
L 37.796875 62.703125 
z
" id="DejaVuSans-2b"/>
     </defs>
     <g transform="translate(57.6 38.472)scale(0.1 -0.1)">
      <use xlink:href="#DejaVuSans-2b"/>
      <use x="83.789062" xlink:href="#DejaVuSans-31"/>
      <use x="147.412109" xlink:href="#DejaVuSans-65"/>
      <use x="208.935547" xlink:href="#DejaVuSans-2212"/>
      <use x="292.724609" xlink:href="#DejaVuSans-31"/>
     </g>
    </g>
   </g>
   <g id="line2d_13">
    <path clip-path="url(#p13db401fa6)" d="M 73.832727 189.969702 
L 74.37467 164.233532 
L 74.917155 197.690553 
L 75.459097 159.086298 
L 76.00104 169.380766 
L 76.542982 151.365447 
L 77.084925 171.954383 
L 77.626868 146.218213 
L 78.16881 174.528 
L 78.710753 151.365447 
L 79.252696 164.233532 
L 79.794638 161.659915 
L 80.336581 164.233532 
L 80.879066 177.101617 
L 81.42155 169.380766 
L 81.963493 164.233532 
L 82.505436 148.79183 
L 83.047378 166.807149 
L 83.589321 169.380766 
L 84.131264 174.528 
L 84.673206 148.79183 
L 85.215149 177.101617 
L 85.757092 169.380766 
L 86.841519 169.380766 
L 87.383462 159.086298 
L 87.925404 182.248851 
L 88.467347 161.659915 
L 89.00929 179.675234 
L 89.551232 146.218213 
L 90.093175 174.528 
L 90.635118 169.380766 
L 91.17706 169.380766 
L 91.719003 171.954383 
L 92.260946 169.380766 
L 92.80343 146.218213 
L 93.345373 164.233532 
L 93.887315 135.923745 
L 94.429258 143.644596 
L 94.971201 189.969702 
L 95.513143 159.086298 
L 96.055086 192.543319 
L 96.597029 192.543319 
L 97.138971 205.411404 
L 97.680914 120.482043 
L 98.222857 174.528 
L 98.764799 133.350128 
L 99.306742 192.543319 
L 99.848685 138.497362 
L 100.390627 123.05566 
L 100.93257 231.147574 
L 101.474513 182.248851 
L 102.016455 223.426723 
L 102.558398 146.218213 
L 103.100341 179.675234 
L 103.642283 161.659915 
L 104.184226 202.837787 
L 104.726169 166.807149 
L 105.268111 174.528 
L 105.810054 174.528 
L 106.351997 161.659915 
L 106.893939 184.822468 
L 107.435882 161.659915 
L 107.977825 171.954383 
L 108.519767 169.380766 
L 109.06171 169.380766 
L 109.603653 161.659915 
L 110.145595 159.086298 
L 110.687538 146.218213 
L 111.229481 182.248851 
L 111.771423 197.690553 
L 112.313366 184.822468 
L 112.855309 151.365447 
L 113.397251 143.644596 
L 113.939194 143.644596 
L 114.481137 156.512681 
L 115.023079 159.086298 
L 115.565022 179.675234 
L 116.106965 123.05566 
L 116.648907 254.310128 
L 117.19085 138.497362 
L 117.732793 125.629277 
L 118.274735 200.26417 
L 118.816678 202.837787 
L 119.358621 197.690553 
L 120.442506 125.629277 
L 120.984449 128.202894 
L 121.526391 148.79183 
L 122.068334 161.659915 
L 122.610277 123.05566 
L 123.152219 146.218213 
L 123.694162 148.79183 
L 124.236105 164.233532 
L 124.778047 161.659915 
L 125.31999 153.939064 
L 125.861933 169.380766 
L 126.403875 166.807149 
L 126.945818 148.79183 
L 127.48776 148.79183 
L 128.029703 177.101617 
L 128.571646 110.187574 
L 129.113588 179.675234 
L 129.655531 161.659915 
L 130.197474 187.396085 
L 130.739416 197.690553 
L 131.281359 295.488 
L 131.823302 169.380766 
L 132.907187 117.908426 
L 133.44913 164.233532 
L 133.991072 182.248851 
L 134.533015 135.923745 
L 135.074958 267.178213 
L 135.6169 171.954383 
L 136.158843 141.070979 
L 136.700786 171.954383 
L 137.242728 164.233532 
L 137.784671 184.822468 
L 138.326614 184.822468 
L 138.868556 179.675234 
L 139.410499 164.233532 
L 139.952442 161.659915 
L 141.036327 161.659915 
L 141.57827 135.923745 
L 142.120212 182.248851 
L 142.662155 187.396085 
L 143.204098 187.396085 
L 144.829926 148.79183 
L 145.371868 156.512681 
L 145.913811 282.619915 
L 146.455754 187.396085 
L 146.997696 125.629277 
L 148.081582 195.116936 
L 148.623524 151.365447 
L 149.165467 146.218213 
L 149.70741 177.101617 
L 150.249352 267.178213 
L 150.791295 189.969702 
L 151.333238 177.101617 
L 151.87518 120.482043 
L 152.417123 151.365447 
L 152.959066 200.26417 
L 153.501008 94.745872 
L 154.042951 171.954383 
L 155.126836 138.497362 
L 155.668779 179.675234 
L 156.210722 161.659915 
L 156.752664 159.086298 
L 157.294607 146.218213 
L 157.83655 166.807149 
L 158.378492 166.807149 
L 159.462378 156.512681 
L 160.00432 177.101617 
L 160.546263 166.807149 
L 161.088206 135.923745 
L 161.630148 192.543319 
L 162.172091 123.05566 
L 162.714034 130.776511 
L 163.255976 202.837787 
L 163.797919 202.837787 
L 164.339862 207.985021 
L 164.881804 141.070979 
L 165.423747 220.853106 
L 165.96569 220.853106 
L 166.507632 115.334809 
L 167.049575 231.147574 
L 167.591518 143.644596 
L 168.13346 179.675234 
L 168.675403 179.675234 
L 169.217345 187.396085 
L 169.759288 156.512681 
L 170.301231 184.822468 
L 170.843716 223.426723 
L 171.385658 164.233532 
L 171.928143 238.868426 
L 172.470085 249.162894 
L 173.01257 133.350128 
L 173.554513 143.644596 
L 174.096455 169.380766 
L 174.638398 123.05566 
L 175.180341 174.528 
L 175.722283 138.497362 
L 176.264226 146.218213 
L 176.806169 151.365447 
L 177.348111 151.365447 
L 177.890054 156.512681 
L 178.973939 171.954383 
L 179.515882 171.954383 
L 180.057825 169.380766 
L 180.599767 177.101617 
L 181.684194 123.05566 
L 182.226137 159.086298 
L 182.76808 115.334809 
L 183.310022 156.512681 
L 183.851965 238.868426 
L 184.393908 125.629277 
L 184.93585 169.380766 
L 185.477793 197.690553 
L 186.019736 195.116936 
L 186.561678 215.705872 
L 187.103621 164.233532 
L 187.645564 146.218213 
L 188.187506 115.334809 
L 188.729449 151.365447 
L 189.271392 171.954383 
L 189.813334 202.837787 
L 190.355277 169.380766 
L 190.89722 177.101617 
L 191.439162 148.79183 
L 191.981105 128.202894 
L 192.523048 156.512681 
L 193.06499 200.26417 
L 193.606933 153.939064 
L 194.148876 177.101617 
L 194.691361 156.512681 
L 195.233845 148.79183 
L 195.77633 123.05566 
L 196.318814 130.776511 
L 196.861299 125.629277 
L 197.403783 151.365447 
L 197.946268 151.365447 
L 198.488211 169.380766 
L 199.030695 153.939064 
L 199.572638 192.543319 
L 200.114581 177.101617 
L 200.656523 223.426723 
L 201.198466 192.543319 
L 201.740409 117.908426 
L 202.282351 174.528 
L 202.824294 182.248851 
L 203.366237 169.380766 
L 203.908179 195.116936 
L 204.450122 177.101617 
L 204.992065 184.822468 
L 205.534007 164.233532 
L 206.07595 174.528 
L 206.617893 207.985021 
L 207.159835 187.396085 
L 207.701778 156.512681 
L 208.243721 205.411404 
L 208.785663 179.675234 
L 209.327606 246.589277 
L 209.869549 218.279489 
L 210.411491 171.954383 
L 210.953434 143.644596 
L 211.495377 92.172255 
L 212.037861 135.923745 
L 212.580346 153.939064 
L 213.122288 138.497362 
L 213.664231 151.365447 
L 214.206174 151.365447 
L 214.748116 169.380766 
L 215.290601 153.939064 
L 215.832544 164.233532 
L 216.374486 117.908426 
L 216.916429 94.745872 
L 217.458372 187.396085 
L 218.000314 141.070979 
L 218.542799 120.482043 
L 219.084742 207.985021 
L 219.626684 143.644596 
L 220.168627 159.086298 
L 220.71057 143.644596 
L 221.252512 182.248851 
L 221.794455 171.954383 
L 222.336398 192.543319 
L 222.87834 179.675234 
L 223.420283 161.659915 
L 223.962225 179.675234 
L 224.504168 220.853106 
L 225.046111 141.070979 
L 225.588053 179.675234 
L 226.129996 159.086298 
L 226.671939 171.954383 
L 227.213881 148.79183 
L 227.755824 115.334809 
L 228.297767 156.512681 
L 228.839709 151.365447 
L 229.381652 171.954383 
L 229.924679 166.807149 
L 230.466621 164.233532 
L 231.009106 153.939064 
L 231.551049 120.482043 
L 232.092991 115.334809 
L 232.634934 179.675234 
L 233.176877 182.248851 
L 233.718819 195.116936 
L 234.260762 189.969702 
L 234.802705 207.985021 
L 235.344647 169.380766 
L 235.88659 105.04034 
L 236.429074 130.776511 
L 236.971017 141.070979 
L 237.51296 130.776511 
L 238.054902 143.644596 
L 238.596845 164.233532 
L 239.138788 151.365447 
L 239.68073 159.086298 
L 240.222673 151.365447 
L 240.764616 135.923745 
L 241.306558 182.248851 
L 241.848501 159.086298 
L 242.390444 171.954383 
L 242.932386 156.512681 
L 243.474329 159.086298 
L 244.016272 171.954383 
L 244.558214 120.482043 
L 245.100157 102.466723 
L 245.6421 256.883745 
L 246.184042 187.396085 
L 246.725985 177.101617 
L 247.267928 143.644596 
L 247.80987 223.426723 
L 248.352355 174.528 
L 248.89484 164.233532 
L 249.436782 177.101617 
L 249.978725 156.512681 
L 250.520668 166.807149 
L 251.06261 156.512681 
L 251.605095 184.822468 
L 252.147038 238.868426 
L 253.230923 153.939064 
L 253.772866 161.659915 
L 254.314808 138.497362 
L 254.856751 182.248851 
L 255.398693 197.690553 
L 255.940636 128.202894 
L 256.482579 146.218213 
L 257.024521 171.954383 
L 257.566464 159.086298 
L 258.108407 141.070979 
L 258.650349 138.497362 
L 259.192292 125.629277 
L 259.734235 192.543319 
L 260.276719 205.411404 
L 260.818662 107.613957 
L 261.360605 143.644596 
L 261.902547 189.969702 
L 262.44449 171.954383 
L 262.986433 182.248851 
L 263.528375 179.675234 
L 264.070318 161.659915 
L 264.612261 130.776511 
L 265.154203 146.218213 
L 265.696146 182.248851 
L 266.780031 99.893106 
L 267.321974 143.644596 
L 267.863917 148.79183 
L 268.947802 177.101617 
L 269.489745 138.497362 
L 270.031687 169.380766 
L 270.57363 94.745872 
L 271.115573 128.202894 
L 271.657515 133.350128 
L 272.2 177.101617 
L 272.741943 171.954383 
L 273.283885 177.101617 
L 273.825828 177.101617 
L 274.372106 156.512681 
L 274.914591 238.868426 
L 275.456533 153.939064 
L 275.998476 102.466723 
L 276.540419 128.202894 
L 277.082361 236.294809 
L 277.625388 146.218213 
L 278.167331 151.365447 
L 278.709273 153.939064 
L 279.251216 169.380766 
L 279.793159 143.644596 
L 280.335101 174.528 
L 280.877044 169.380766 
L 281.418987 169.380766 
L 281.960929 182.248851 
L 282.502872 177.101617 
L 283.044815 231.147574 
L 283.586757 184.822468 
L 284.1287 66.436085 
L 284.670643 153.939064 
L 285.212585 61.288851 
L 285.754528 187.396085 
L 286.296471 267.178213 
L 286.838413 151.365447 
L 287.380356 169.380766 
L 287.922299 207.985021 
L 288.464241 200.26417 
L 289.006184 189.969702 
L 289.548126 205.411404 
L 290.090069 169.380766 
L 290.632012 184.822468 
L 291.173954 166.807149 
L 291.715897 187.396085 
L 292.25784 146.218213 
L 292.799782 171.954383 
L 293.341725 153.939064 
L 293.883668 112.761191 
L 294.967553 156.512681 
L 295.509496 166.807149 
L 296.05198 128.202894 
L 297.13695 159.086298 
L 297.678892 156.512681 
L 298.220835 164.233532 
L 298.762778 148.79183 
L 300.389147 184.822468 
L 300.93109 141.070979 
L 301.473033 207.985021 
L 302.014975 87.025021 
L 302.556918 159.086298 
L 303.098861 146.218213 
L 303.640803 166.807149 
L 304.182746 226.00034 
L 304.724689 238.868426 
L 305.266631 166.807149 
L 305.808574 182.248851 
L 306.892459 166.807149 
L 307.434402 164.233532 
L 307.976345 187.396085 
L 308.518287 153.939064 
L 309.06023 151.365447 
L 310.144115 177.101617 
L 310.686058 184.822468 
L 311.228001 179.675234 
L 311.769943 153.939064 
L 312.311886 153.939064 
L 312.853829 215.705872 
L 313.395771 148.79183 
L 313.937714 195.116936 
L 314.479657 161.659915 
L 315.021599 151.365447 
L 315.563542 128.202894 
L 316.105485 189.969702 
L 316.647427 187.396085 
L 317.18937 146.218213 
L 317.731313 218.279489 
L 318.273255 187.396085 
L 318.815198 166.807149 
L 319.357141 179.675234 
L 319.899625 159.086298 
L 320.44211 166.807149 
L 320.984053 187.396085 
L 321.525995 182.248851 
L 322.06848 81.877787 
L 322.610965 143.644596 
L 323.153449 138.497362 
L 323.695934 146.218213 
L 324.238418 164.233532 
L 324.780903 151.365447 
L 325.323388 156.512681 
L 325.86533 159.086298 
L 326.407815 187.396085 
L 326.949757 171.954383 
L 327.4917 189.969702 
L 328.576127 151.365447 
L 329.11807 182.248851 
L 329.660013 226.00034 
L 330.201955 133.350128 
L 330.743898 202.837787 
L 331.285841 97.319489 
L 331.827783 207.985021 
L 332.369726 184.822468 
L 332.911669 202.837787 
L 333.453611 169.380766 
L 333.995554 179.675234 
L 334.537497 171.954383 
L 335.079439 184.822468 
L 336.163325 169.380766 
L 336.705267 215.705872 
L 337.24721 177.101617 
L 337.789153 184.822468 
L 338.331095 169.380766 
L 338.873038 164.233532 
L 339.414981 177.101617 
L 340.498866 141.070979 
L 341.040809 159.086298 
L 341.582751 161.659915 
L 342.124694 187.396085 
L 342.666637 189.969702 
L 343.208579 179.675234 
L 343.750522 138.497362 
L 344.292465 177.101617 
L 344.834407 138.497362 
L 345.37635 218.279489 
L 345.918293 146.218213 
L 346.460235 156.512681 
L 347.002178 133.350128 
L 347.544121 177.101617 
L 348.086063 254.310128 
L 348.628006 164.233532 
L 349.169949 164.233532 
L 349.711891 171.954383 
L 350.253834 166.807149 
L 350.795777 156.512681 
L 351.337719 135.923745 
L 351.879662 171.954383 
L 352.421605 141.070979 
L 352.963547 161.659915 
L 353.50549 161.659915 
L 354.047433 153.939064 
L 354.589375 135.923745 
L 355.131318 146.218213 
L 355.67326 171.954383 
L 356.215203 133.350128 
L 356.757146 174.528 
L 357.299088 135.923745 
L 357.841031 166.807149 
L 358.382974 169.380766 
L 359.466859 146.218213 
L 360.008802 169.380766 
L 360.550744 120.482043 
L 361.092687 128.202894 
L 362.176572 169.380766 
L 362.718515 241.442043 
L 363.260458 189.969702 
L 363.8024 177.101617 
L 364.344343 182.248851 
L 364.886286 192.543319 
L 365.428228 153.939064 
L 365.970171 179.675234 
L 366.512114 177.101617 
L 367.054056 148.79183 
L 367.595999 195.116936 
L 368.137942 153.939064 
L 368.679884 159.086298 
L 369.221827 161.659915 
L 369.76377 236.294809 
L 370.305712 156.512681 
L 370.847655 125.629277 
L 371.389598 133.350128 
L 371.93154 156.512681 
L 372.473483 256.883745 
L 373.015426 189.969702 
L 373.557368 146.218213 
L 374.099311 171.954383 
L 374.641254 151.365447 
L 375.183196 107.613957 
L 375.725139 174.528 
L 376.267082 153.939064 
L 376.809024 156.512681 
L 377.350967 156.512681 
L 377.89291 125.629277 
L 378.434852 156.512681 
L 378.976795 161.659915 
L 379.518738 146.218213 
L 380.06068 153.939064 
L 380.602623 192.543319 
L 381.144566 148.79183 
L 381.686508 195.116936 
L 382.228451 169.380766 
L 382.770394 192.543319 
L 383.312336 125.629277 
L 383.854279 189.969702 
L 384.396222 184.822468 
L 384.938164 174.528 
L 385.480107 187.396085 
L 386.02205 166.807149 
L 386.563992 177.101617 
L 387.105935 159.086298 
L 387.647878 148.79183 
L 388.18982 159.086298 
L 388.731763 256.883745 
L 389.273706 53.568 
L 389.815648 151.365447 
L 390.357591 97.319489 
L 390.899534 169.380766 
L 391.441476 107.613957 
L 391.983419 115.334809 
L 392.525362 161.659915 
L 393.067304 146.218213 
L 393.609247 125.629277 
L 394.15119 179.675234 
L 394.693132 156.512681 
L 395.235075 143.644596 
L 395.777018 141.070979 
L 396.31896 171.954383 
L 396.861445 231.147574 
L 397.403387 166.807149 
L 397.94533 117.908426 
L 398.487273 249.162894 
L 398.487273 249.162894 
" style="fill:none;stroke:#1f77b4;stroke-linecap:square;stroke-width:1.5;"/>
   </g>
   <g id="patch_3">
    <path d="M 57.6 307.584 
L 57.6 41.472 
" style="fill:none;stroke:#000000;stroke-linecap:square;stroke-linejoin:miter;stroke-width:0.8;"/>
   </g>
   <g id="patch_4">
    <path d="M 414.72 307.584 
L 414.72 41.472 
" style="fill:none;stroke:#000000;stroke-linecap:square;stroke-linejoin:miter;stroke-width:0.8;"/>
   </g>
   <g id="patch_5">
    <path d="M 57.6 307.584 
L 414.72 307.584 
" style="fill:none;stroke:#000000;stroke-linecap:square;stroke-linejoin:miter;stroke-width:0.8;"/>
   </g>
   <g id="patch_6">
    <path d="M 57.6 41.472 
L 414.72 41.472 
" style="fill:none;stroke:#000000;stroke-linecap:square;stroke-linejoin:miter;stroke-width:0.8;"/>
   </g>
   <g id="text_16">
    <!-- Voltage measured with source voltage 100.0 mV -->
    <defs>
     <path d="M 52 44.1875 
Q 55.375 50.25 60.0625 53.125 
Q 64.75 56 71.09375 56 
Q 79.640625 56 84.28125 50.015625 
Q 88.921875 44.046875 88.921875 33.015625 
L 88.921875 0 
L 79.890625 0 
L 79.890625 32.71875 
Q 79.890625 40.578125 77.09375 44.375 
Q 74.3125 48.1875 68.609375 48.1875 
Q 61.625 48.1875 57.5625 43.546875 
Q 53.515625 38.921875 53.515625 30.90625 
L 53.515625 0 
L 44.484375 0 
L 44.484375 32.71875 
Q 44.484375 40.625 41.703125 44.40625 
Q 38.921875 48.1875 33.109375 48.1875 
Q 26.21875 48.1875 22.15625 43.53125 
Q 18.109375 38.875 18.109375 30.90625 
L 18.109375 0 
L 9.078125 0 
L 9.078125 54.6875 
L 18.109375 54.6875 
L 18.109375 46.1875 
Q 21.1875 51.21875 25.484375 53.609375 
Q 29.78125 56 35.6875 56 
Q 41.65625 56 45.828125 52.96875 
Q 50 49.953125 52 44.1875 
z
" id="DejaVuSans-6d"/>
     <path d="M 8.5 21.578125 
L 8.5 54.6875 
L 17.484375 54.6875 
L 17.484375 21.921875 
Q 17.484375 14.15625 20.5 10.265625 
Q 23.53125 6.390625 29.59375 6.390625 
Q 36.859375 6.390625 41.078125 11.03125 
Q 45.3125 15.671875 45.3125 23.6875 
L 45.3125 54.6875 
L 54.296875 54.6875 
L 54.296875 0 
L 45.3125 0 
L 45.3125 8.40625 
Q 42.046875 3.421875 37.71875 1 
Q 33.40625 -1.421875 27.6875 -1.421875 
Q 18.265625 -1.421875 13.375 4.4375 
Q 8.5 10.296875 8.5 21.578125 
z
M 31.109375 56 
z
" id="DejaVuSans-75"/>
     <path d="M 41.109375 46.296875 
Q 39.59375 47.171875 37.8125 47.578125 
Q 36.03125 48 33.890625 48 
Q 26.265625 48 22.1875 43.046875 
Q 18.109375 38.09375 18.109375 28.8125 
L 18.109375 0 
L 9.078125 0 
L 9.078125 54.6875 
L 18.109375 54.6875 
L 18.109375 46.1875 
Q 20.953125 51.171875 25.484375 53.578125 
Q 30.03125 56 36.53125 56 
Q 37.453125 56 38.578125 55.875 
Q 39.703125 55.765625 41.0625 55.515625 
z
" id="DejaVuSans-72"/>
     <path d="M 45.40625 46.390625 
L 45.40625 75.984375 
L 54.390625 75.984375 
L 54.390625 0 
L 45.40625 0 
L 45.40625 8.203125 
Q 42.578125 3.328125 38.25 0.953125 
Q 33.9375 -1.421875 27.875 -1.421875 
Q 17.96875 -1.421875 11.734375 6.484375 
Q 5.515625 14.40625 5.515625 27.296875 
Q 5.515625 40.1875 11.734375 48.09375 
Q 17.96875 56 27.875 56 
Q 33.9375 56 38.25 53.625 
Q 42.578125 51.265625 45.40625 46.390625 
z
M 14.796875 27.296875 
Q 14.796875 17.390625 18.875 11.75 
Q 22.953125 6.109375 30.078125 6.109375 
Q 37.203125 6.109375 41.296875 11.75 
Q 45.40625 17.390625 45.40625 27.296875 
Q 45.40625 37.203125 41.296875 42.84375 
Q 37.203125 48.484375 30.078125 48.484375 
Q 22.953125 48.484375 18.875 42.84375 
Q 14.796875 37.203125 14.796875 27.296875 
z
" id="DejaVuSans-64"/>
     <path d="M 4.203125 54.6875 
L 13.1875 54.6875 
L 24.421875 12.015625 
L 35.59375 54.6875 
L 46.1875 54.6875 
L 57.421875 12.015625 
L 68.609375 54.6875 
L 77.59375 54.6875 
L 63.28125 0 
L 52.6875 0 
L 40.921875 44.828125 
L 29.109375 0 
L 18.5 0 
z
" id="DejaVuSans-77"/>
     <path d="M 9.421875 54.6875 
L 18.40625 54.6875 
L 18.40625 0 
L 9.421875 0 
z
M 9.421875 75.984375 
L 18.40625 75.984375 
L 18.40625 64.59375 
L 9.421875 64.59375 
z
" id="DejaVuSans-69"/>
     <path d="M 54.890625 33.015625 
L 54.890625 0 
L 45.90625 0 
L 45.90625 32.71875 
Q 45.90625 40.484375 42.875 44.328125 
Q 39.84375 48.1875 33.796875 48.1875 
Q 26.515625 48.1875 22.3125 43.546875 
Q 18.109375 38.921875 18.109375 30.90625 
L 18.109375 0 
L 9.078125 0 
L 9.078125 75.984375 
L 18.109375 75.984375 
L 18.109375 46.1875 
Q 21.34375 51.125 25.703125 53.5625 
Q 30.078125 56 35.796875 56 
Q 45.21875 56 50.046875 50.171875 
Q 54.890625 44.34375 54.890625 33.015625 
z
" id="DejaVuSans-68"/>
     <path d="M 48.78125 52.59375 
L 48.78125 44.1875 
Q 44.96875 46.296875 41.140625 47.34375 
Q 37.3125 48.390625 33.40625 48.390625 
Q 24.65625 48.390625 19.8125 42.84375 
Q 14.984375 37.3125 14.984375 27.296875 
Q 14.984375 17.28125 19.8125 11.734375 
Q 24.65625 6.203125 33.40625 6.203125 
Q 37.3125 6.203125 41.140625 7.25 
Q 44.96875 8.296875 48.78125 10.40625 
L 48.78125 2.09375 
Q 45.015625 0.34375 40.984375 -0.53125 
Q 36.96875 -1.421875 32.421875 -1.421875 
Q 20.0625 -1.421875 12.78125 6.34375 
Q 5.515625 14.109375 5.515625 27.296875 
Q 5.515625 40.671875 12.859375 48.328125 
Q 20.21875 56 33.015625 56 
Q 37.15625 56 41.109375 55.140625 
Q 45.0625 54.296875 48.78125 52.59375 
z
" id="DejaVuSans-63"/>
     <path d="M 2.984375 54.6875 
L 12.5 54.6875 
L 29.59375 8.796875 
L 46.6875 54.6875 
L 56.203125 54.6875 
L 35.6875 0 
L 23.484375 0 
z
" id="DejaVuSans-76"/>
    </defs>
    <g transform="translate(89.3175 35.472)scale(0.12 -0.12)">
     <use xlink:href="#DejaVuSans-56"/>
     <use x="68.298828" xlink:href="#DejaVuSans-6f"/>
     <use x="129.480469" xlink:href="#DejaVuSans-6c"/>
     <use x="157.263672" xlink:href="#DejaVuSans-74"/>
     <use x="196.472656" xlink:href="#DejaVuSans-61"/>
     <use x="257.751953" xlink:href="#DejaVuSans-67"/>
     <use x="321.228516" xlink:href="#DejaVuSans-65"/>
     <use x="382.751953" xlink:href="#DejaVuSans-20"/>
     <use x="414.539062" xlink:href="#DejaVuSans-6d"/>
     <use x="511.951172" xlink:href="#DejaVuSans-65"/>
     <use x="573.474609" xlink:href="#DejaVuSans-61"/>
     <use x="634.753906" xlink:href="#DejaVuSans-73"/>
     <use x="686.853516" xlink:href="#DejaVuSans-75"/>
     <use x="750.232422" xlink:href="#DejaVuSans-72"/>
     <use x="791.314453" xlink:href="#DejaVuSans-65"/>
     <use x="852.837891" xlink:href="#DejaVuSans-64"/>
     <use x="916.314453" xlink:href="#DejaVuSans-20"/>
     <use x="948.101562" xlink:href="#DejaVuSans-77"/>
     <use x="1029.888672" xlink:href="#DejaVuSans-69"/>
     <use x="1057.671875" xlink:href="#DejaVuSans-74"/>
     <use x="1096.880859" xlink:href="#DejaVuSans-68"/>
     <use x="1160.259766" xlink:href="#DejaVuSans-20"/>
     <use x="1192.046875" xlink:href="#DejaVuSans-73"/>
     <use x="1244.146484" xlink:href="#DejaVuSans-6f"/>
     <use x="1305.328125" xlink:href="#DejaVuSans-75"/>
     <use x="1368.707031" xlink:href="#DejaVuSans-72"/>
     <use x="1409.789062" xlink:href="#DejaVuSans-63"/>
     <use x="1464.769531" xlink:href="#DejaVuSans-65"/>
     <use x="1526.292969" xlink:href="#DejaVuSans-20"/>
     <use x="1558.080078" xlink:href="#DejaVuSans-76"/>
     <use x="1617.259766" xlink:href="#DejaVuSans-6f"/>
     <use x="1678.441406" xlink:href="#DejaVuSans-6c"/>
     <use x="1706.224609" xlink:href="#DejaVuSans-74"/>
     <use x="1745.433594" xlink:href="#DejaVuSans-61"/>
     <use x="1806.712891" xlink:href="#DejaVuSans-67"/>
     <use x="1870.189453" xlink:href="#DejaVuSans-65"/>
     <use x="1931.712891" xlink:href="#DejaVuSans-20"/>
     <use x="1963.5" xlink:href="#DejaVuSans-31"/>
     <use x="2027.123047" xlink:href="#DejaVuSans-30"/>
     <use x="2090.746094" xlink:href="#DejaVuSans-30"/>
     <use x="2154.369141" xlink:href="#DejaVuSans-2e"/>
     <use x="2186.15625" xlink:href="#DejaVuSans-30"/>
     <use x="2249.779297" xlink:href="#DejaVuSans-20"/>
     <use x="2281.566406" xlink:href="#DejaVuSans-6d"/>
     <use x="2378.978516" xlink:href="#DejaVuSans-56"/>
    </g>
   </g>
  </g>
 </g>
 <defs>
  <clipPath id="p13db401fa6">
   <rect height="266.112" width="357.12" x="57.6" y="41.472"/>
  </clipPath>
 </defs>
</svg>
