<?xml version="1.0" encoding="utf-8" standalone="no"?>
<!DOCTYPE svg PUBLIC "-//W3C//DTD SVG 1.1//EN"
  "http://www.w3.org/Graphics/SVG/1.1/DTD/svg11.dtd">
<!-- Created with matplotlib (http://matplotlib.org/) -->
<svg height="345pt" version="1.1" viewBox="0 0 460 345" width="460pt" xmlns="http://www.w3.org/2000/svg" xmlns:xlink="http://www.w3.org/1999/xlink">
 <defs>
  <style type="text/css">
*{stroke-linecap:butt;stroke-linejoin:round;}
  </style>
 </defs>
 <g id="figure_1">
  <g id="patch_1">
   <path d="M 0 345.6 
L 460.8 345.6 
L 460.8 0 
L 0 0 
z
" style="fill:#ffffff;"/>
  </g>
  <g id="axes_1">
   <g id="patch_2">
    <path d="M 57.6 307.584 
L 414.72 307.584 
L 414.72 41.472 
L 57.6 41.472 
z
" style="fill:#ffffff;"/>
   </g>
   <g id="matplotlib.axis_1">
    <g id="xtick_1">
     <g id="line2d_1">
      <defs>
       <path d="M 0 0 
L 0 3.5 
" id="mcfbb8576c1" style="stroke:#000000;stroke-width:0.8;"/>
      </defs>
      <g>
       <use style="stroke:#000000;stroke-width:0.8;" x="73.832727" xlink:href="#mcfbb8576c1" y="307.584"/>
      </g>
     </g>
     <g id="text_1">
      <!-- 0 -->
      <defs>
       <path d="M 31.78125 66.40625 
Q 24.171875 66.40625 20.328125 58.90625 
Q 16.5 51.421875 16.5 36.375 
Q 16.5 21.390625 20.328125 13.890625 
Q 24.171875 6.390625 31.78125 6.390625 
Q 39.453125 6.390625 43.28125 13.890625 
Q 47.125 21.390625 47.125 36.375 
Q 47.125 51.421875 43.28125 58.90625 
Q 39.453125 66.40625 31.78125 66.40625 
z
M 31.78125 74.21875 
Q 44.046875 74.21875 50.515625 64.515625 
Q 56.984375 54.828125 56.984375 36.375 
Q 56.984375 17.96875 50.515625 8.265625 
Q 44.046875 -1.421875 31.78125 -1.421875 
Q 19.53125 -1.421875 13.0625 8.265625 
Q 6.59375 17.96875 6.59375 36.375 
Q 6.59375 54.828125 13.0625 64.515625 
Q 19.53125 74.21875 31.78125 74.21875 
z
" id="DejaVuSans-30"/>
      </defs>
      <g transform="translate(70.651477 322.182437)scale(0.1 -0.1)">
       <use xlink:href="#DejaVuSans-30"/>
      </g>
     </g>
    </g>
    <g id="xtick_2">
     <g id="line2d_2">
      <g>
       <use style="stroke:#000000;stroke-width:0.8;" x="128.026994" xlink:href="#mcfbb8576c1" y="307.584"/>
      </g>
     </g>
     <g id="text_2">
      <!-- 100 -->
      <defs>
       <path d="M 12.40625 8.296875 
L 28.515625 8.296875 
L 28.515625 63.921875 
L 10.984375 60.40625 
L 10.984375 69.390625 
L 28.421875 72.90625 
L 38.28125 72.90625 
L 38.28125 8.296875 
L 54.390625 8.296875 
L 54.390625 0 
L 12.40625 0 
z
" id="DejaVuSans-31"/>
      </defs>
      <g transform="translate(118.483244 322.182437)scale(0.1 -0.1)">
       <use xlink:href="#DejaVuSans-31"/>
       <use x="63.623047" xlink:href="#DejaVuSans-30"/>
       <use x="127.246094" xlink:href="#DejaVuSans-30"/>
      </g>
     </g>
    </g>
    <g id="xtick_3">
     <g id="line2d_3">
      <g>
       <use style="stroke:#000000;stroke-width:0.8;" x="182.22126" xlink:href="#mcfbb8576c1" y="307.584"/>
      </g>
     </g>
     <g id="text_3">
      <!-- 200 -->
      <defs>
       <path d="M 19.1875 8.296875 
L 53.609375 8.296875 
L 53.609375 0 
L 7.328125 0 
L 7.328125 8.296875 
Q 12.9375 14.109375 22.625 23.890625 
Q 32.328125 33.6875 34.8125 36.53125 
Q 39.546875 41.84375 41.421875 45.53125 
Q 43.3125 49.21875 43.3125 52.78125 
Q 43.3125 58.59375 39.234375 62.25 
Q 35.15625 65.921875 28.609375 65.921875 
Q 23.96875 65.921875 18.8125 64.3125 
Q 13.671875 62.703125 7.8125 59.421875 
L 7.8125 69.390625 
Q 13.765625 71.78125 18.9375 73 
Q 24.125 74.21875 28.421875 74.21875 
Q 39.75 74.21875 46.484375 68.546875 
Q 53.21875 62.890625 53.21875 53.421875 
Q 53.21875 48.921875 51.53125 44.890625 
Q 49.859375 40.875 45.40625 35.40625 
Q 44.1875 33.984375 37.640625 27.21875 
Q 31.109375 20.453125 19.1875 8.296875 
z
" id="DejaVuSans-32"/>
      </defs>
      <g transform="translate(172.67751 322.182437)scale(0.1 -0.1)">
       <use xlink:href="#DejaVuSans-32"/>
       <use x="63.623047" xlink:href="#DejaVuSans-30"/>
       <use x="127.246094" xlink:href="#DejaVuSans-30"/>
      </g>
     </g>
    </g>
    <g id="xtick_4">
     <g id="line2d_4">
      <g>
       <use style="stroke:#000000;stroke-width:0.8;" x="236.415526" xlink:href="#mcfbb8576c1" y="307.584"/>
      </g>
     </g>
     <g id="text_4">
      <!-- 300 -->
      <defs>
       <path d="M 40.578125 39.3125 
Q 47.65625 37.796875 51.625 33 
Q 55.609375 28.21875 55.609375 21.1875 
Q 55.609375 10.40625 48.1875 4.484375 
Q 40.765625 -1.421875 27.09375 -1.421875 
Q 22.515625 -1.421875 17.65625 -0.515625 
Q 12.796875 0.390625 7.625 2.203125 
L 7.625 11.71875 
Q 11.71875 9.328125 16.59375 8.109375 
Q 21.484375 6.890625 26.8125 6.890625 
Q 36.078125 6.890625 40.9375 10.546875 
Q 45.796875 14.203125 45.796875 21.1875 
Q 45.796875 27.640625 41.28125 31.265625 
Q 36.765625 34.90625 28.71875 34.90625 
L 20.21875 34.90625 
L 20.21875 43.015625 
L 29.109375 43.015625 
Q 36.375 43.015625 40.234375 45.921875 
Q 44.09375 48.828125 44.09375 54.296875 
Q 44.09375 59.90625 40.109375 62.90625 
Q 36.140625 65.921875 28.71875 65.921875 
Q 24.65625 65.921875 20.015625 65.03125 
Q 15.375 64.15625 9.8125 62.3125 
L 9.8125 71.09375 
Q 15.4375 72.65625 20.34375 73.4375 
Q 25.25 74.21875 29.59375 74.21875 
Q 40.828125 74.21875 47.359375 69.109375 
Q 53.90625 64.015625 53.90625 55.328125 
Q 53.90625 49.265625 50.4375 45.09375 
Q 46.96875 40.921875 40.578125 39.3125 
z
" id="DejaVuSans-33"/>
      </defs>
      <g transform="translate(226.871776 322.182437)scale(0.1 -0.1)">
       <use xlink:href="#DejaVuSans-33"/>
       <use x="63.623047" xlink:href="#DejaVuSans-30"/>
       <use x="127.246094" xlink:href="#DejaVuSans-30"/>
      </g>
     </g>
    </g>
    <g id="xtick_5">
     <g id="line2d_5">
      <g>
       <use style="stroke:#000000;stroke-width:0.8;" x="290.609792" xlink:href="#mcfbb8576c1" y="307.584"/>
      </g>
     </g>
     <g id="text_5">
      <!-- 400 -->
      <defs>
       <path d="M 37.796875 64.3125 
L 12.890625 25.390625 
L 37.796875 25.390625 
z
M 35.203125 72.90625 
L 47.609375 72.90625 
L 47.609375 25.390625 
L 58.015625 25.390625 
L 58.015625 17.1875 
L 47.609375 17.1875 
L 47.609375 0 
L 37.796875 0 
L 37.796875 17.1875 
L 4.890625 17.1875 
L 4.890625 26.703125 
z
" id="DejaVuSans-34"/>
      </defs>
      <g transform="translate(281.066042 322.182437)scale(0.1 -0.1)">
       <use xlink:href="#DejaVuSans-34"/>
       <use x="63.623047" xlink:href="#DejaVuSans-30"/>
       <use x="127.246094" xlink:href="#DejaVuSans-30"/>
      </g>
     </g>
    </g>
    <g id="xtick_6">
     <g id="line2d_6">
      <g>
       <use style="stroke:#000000;stroke-width:0.8;" x="344.804058" xlink:href="#mcfbb8576c1" y="307.584"/>
      </g>
     </g>
     <g id="text_6">
      <!-- 500 -->
      <defs>
       <path d="M 10.796875 72.90625 
L 49.515625 72.90625 
L 49.515625 64.59375 
L 19.828125 64.59375 
L 19.828125 46.734375 
Q 21.96875 47.46875 24.109375 47.828125 
Q 26.265625 48.1875 28.421875 48.1875 
Q 40.625 48.1875 47.75 41.5 
Q 54.890625 34.8125 54.890625 23.390625 
Q 54.890625 11.625 47.5625 5.09375 
Q 40.234375 -1.421875 26.90625 -1.421875 
Q 22.3125 -1.421875 17.546875 -0.640625 
Q 12.796875 0.140625 7.71875 1.703125 
L 7.71875 11.625 
Q 12.109375 9.234375 16.796875 8.0625 
Q 21.484375 6.890625 26.703125 6.890625 
Q 35.15625 6.890625 40.078125 11.328125 
Q 45.015625 15.765625 45.015625 23.390625 
Q 45.015625 31 40.078125 35.4375 
Q 35.15625 39.890625 26.703125 39.890625 
Q 22.75 39.890625 18.8125 39.015625 
Q 14.890625 38.140625 10.796875 36.28125 
z
" id="DejaVuSans-35"/>
      </defs>
      <g transform="translate(335.260308 322.182437)scale(0.1 -0.1)">
       <use xlink:href="#DejaVuSans-35"/>
       <use x="63.623047" xlink:href="#DejaVuSans-30"/>
       <use x="127.246094" xlink:href="#DejaVuSans-30"/>
      </g>
     </g>
    </g>
    <g id="xtick_7">
     <g id="line2d_7">
      <g>
       <use style="stroke:#000000;stroke-width:0.8;" x="398.998325" xlink:href="#mcfbb8576c1" y="307.584"/>
      </g>
     </g>
     <g id="text_7">
      <!-- 600 -->
      <defs>
       <path d="M 33.015625 40.375 
Q 26.375 40.375 22.484375 35.828125 
Q 18.609375 31.296875 18.609375 23.390625 
Q 18.609375 15.53125 22.484375 10.953125 
Q 26.375 6.390625 33.015625 6.390625 
Q 39.65625 6.390625 43.53125 10.953125 
Q 47.40625 15.53125 47.40625 23.390625 
Q 47.40625 31.296875 43.53125 35.828125 
Q 39.65625 40.375 33.015625 40.375 
z
M 52.59375 71.296875 
L 52.59375 62.3125 
Q 48.875 64.0625 45.09375 64.984375 
Q 41.3125 65.921875 37.59375 65.921875 
Q 27.828125 65.921875 22.671875 59.328125 
Q 17.53125 52.734375 16.796875 39.40625 
Q 19.671875 43.65625 24.015625 45.921875 
Q 28.375 48.1875 33.59375 48.1875 
Q 44.578125 48.1875 50.953125 41.515625 
Q 57.328125 34.859375 57.328125 23.390625 
Q 57.328125 12.15625 50.6875 5.359375 
Q 44.046875 -1.421875 33.015625 -1.421875 
Q 20.359375 -1.421875 13.671875 8.265625 
Q 6.984375 17.96875 6.984375 36.375 
Q 6.984375 53.65625 15.1875 63.9375 
Q 23.390625 74.21875 37.203125 74.21875 
Q 40.921875 74.21875 44.703125 73.484375 
Q 48.484375 72.75 52.59375 71.296875 
z
" id="DejaVuSans-36"/>
      </defs>
      <g transform="translate(389.454575 322.182437)scale(0.1 -0.1)">
       <use xlink:href="#DejaVuSans-36"/>
       <use x="63.623047" xlink:href="#DejaVuSans-30"/>
       <use x="127.246094" xlink:href="#DejaVuSans-30"/>
      </g>
     </g>
    </g>
    <g id="text_8">
     <!-- t(s) -->
     <defs>
      <path d="M 18.3125 70.21875 
L 18.3125 54.6875 
L 36.8125 54.6875 
L 36.8125 47.703125 
L 18.3125 47.703125 
L 18.3125 18.015625 
Q 18.3125 11.328125 20.140625 9.421875 
Q 21.96875 7.515625 27.59375 7.515625 
L 36.8125 7.515625 
L 36.8125 0 
L 27.59375 0 
Q 17.1875 0 13.234375 3.875 
Q 9.28125 7.765625 9.28125 18.015625 
L 9.28125 47.703125 
L 2.6875 47.703125 
L 2.6875 54.6875 
L 9.28125 54.6875 
L 9.28125 70.21875 
z
" id="DejaVuSans-74"/>
      <path d="M 31 75.875 
Q 24.46875 64.65625 21.28125 53.65625 
Q 18.109375 42.671875 18.109375 31.390625 
Q 18.109375 20.125 21.3125 9.0625 
Q 24.515625 -2 31 -13.1875 
L 23.1875 -13.1875 
Q 15.875 -1.703125 12.234375 9.375 
Q 8.59375 20.453125 8.59375 31.390625 
Q 8.59375 42.28125 12.203125 53.3125 
Q 15.828125 64.359375 23.1875 75.875 
z
" id="DejaVuSans-28"/>
      <path d="M 44.28125 53.078125 
L 44.28125 44.578125 
Q 40.484375 46.53125 36.375 47.5 
Q 32.28125 48.484375 27.875 48.484375 
Q 21.1875 48.484375 17.84375 46.4375 
Q 14.5 44.390625 14.5 40.28125 
Q 14.5 37.15625 16.890625 35.375 
Q 19.28125 33.59375 26.515625 31.984375 
L 29.59375 31.296875 
Q 39.15625 29.25 43.1875 25.515625 
Q 47.21875 21.78125 47.21875 15.09375 
Q 47.21875 7.46875 41.1875 3.015625 
Q 35.15625 -1.421875 24.609375 -1.421875 
Q 20.21875 -1.421875 15.453125 -0.5625 
Q 10.6875 0.296875 5.421875 2 
L 5.421875 11.28125 
Q 10.40625 8.6875 15.234375 7.390625 
Q 20.0625 6.109375 24.8125 6.109375 
Q 31.15625 6.109375 34.5625 8.28125 
Q 37.984375 10.453125 37.984375 14.40625 
Q 37.984375 18.0625 35.515625 20.015625 
Q 33.0625 21.96875 24.703125 23.78125 
L 21.578125 24.515625 
Q 13.234375 26.265625 9.515625 29.90625 
Q 5.8125 33.546875 5.8125 39.890625 
Q 5.8125 47.609375 11.28125 51.796875 
Q 16.75 56 26.8125 56 
Q 31.78125 56 36.171875 55.265625 
Q 40.578125 54.546875 44.28125 53.078125 
z
" id="DejaVuSans-73"/>
      <path d="M 8.015625 75.875 
L 15.828125 75.875 
Q 23.140625 64.359375 26.78125 53.3125 
Q 30.421875 42.28125 30.421875 31.390625 
Q 30.421875 20.453125 26.78125 9.375 
Q 23.140625 -1.703125 15.828125 -13.1875 
L 8.015625 -13.1875 
Q 14.5 -2 17.703125 9.0625 
Q 20.90625 20.125 20.90625 31.390625 
Q 20.90625 42.671875 17.703125 53.65625 
Q 14.5 64.65625 8.015625 75.875 
z
" id="DejaVuSans-29"/>
     </defs>
     <g transform="translate(227.693594 335.860562)scale(0.1 -0.1)">
      <use xlink:href="#DejaVuSans-74"/>
      <use x="39.208984" xlink:href="#DejaVuSans-28"/>
      <use x="78.222656" xlink:href="#DejaVuSans-73"/>
      <use x="130.322266" xlink:href="#DejaVuSans-29"/>
     </g>
    </g>
   </g>
   <g id="matplotlib.axis_2">
    <g id="ytick_1">
     <g id="line2d_8">
      <defs>
       <path d="M 0 0 
L -3.5 0 
" id="m8442434a62" style="stroke:#000000;stroke-width:0.8;"/>
      </defs>
      <g>
       <use style="stroke:#000000;stroke-width:0.8;" x="57.6" xlink:href="#m8442434a62" y="305.704384"/>
      </g>
     </g>
     <g id="text_9">
      <!-- 4.4 -->
      <defs>
       <path d="M 10.6875 12.40625 
L 21 12.40625 
L 21 0 
L 10.6875 0 
z
" id="DejaVuSans-2e"/>
      </defs>
      <g transform="translate(34.696875 309.503603)scale(0.1 -0.1)">
       <use xlink:href="#DejaVuSans-34"/>
       <use x="63.623047" xlink:href="#DejaVuSans-2e"/>
       <use x="95.410156" xlink:href="#DejaVuSans-34"/>
      </g>
     </g>
    </g>
    <g id="ytick_2">
     <g id="line2d_9">
      <g>
       <use style="stroke:#000000;stroke-width:0.8;" x="57.6" xlink:href="#m8442434a62" y="256.110288"/>
      </g>
     </g>
     <g id="text_10">
      <!-- 4.5 -->
      <g transform="translate(34.696875 259.909507)scale(0.1 -0.1)">
       <use xlink:href="#DejaVuSans-34"/>
       <use x="63.623047" xlink:href="#DejaVuSans-2e"/>
       <use x="95.410156" xlink:href="#DejaVuSans-35"/>
      </g>
     </g>
    </g>
    <g id="ytick_3">
     <g id="line2d_10">
      <g>
       <use style="stroke:#000000;stroke-width:0.8;" x="57.6" xlink:href="#m8442434a62" y="206.516192"/>
      </g>
     </g>
     <g id="text_11">
      <!-- 4.6 -->
      <g transform="translate(34.696875 210.315411)scale(0.1 -0.1)">
       <use xlink:href="#DejaVuSans-34"/>
       <use x="63.623047" xlink:href="#DejaVuSans-2e"/>
       <use x="95.410156" xlink:href="#DejaVuSans-36"/>
      </g>
     </g>
    </g>
    <g id="ytick_4">
     <g id="line2d_11">
      <g>
       <use style="stroke:#000000;stroke-width:0.8;" x="57.6" xlink:href="#m8442434a62" y="156.922096"/>
      </g>
     </g>
     <g id="text_12">
      <!-- 4.7 -->
      <defs>
       <path d="M 8.203125 72.90625 
L 55.078125 72.90625 
L 55.078125 68.703125 
L 28.609375 0 
L 18.3125 0 
L 43.21875 64.59375 
L 8.203125 64.59375 
z
" id="DejaVuSans-37"/>
      </defs>
      <g transform="translate(34.696875 160.721315)scale(0.1 -0.1)">
       <use xlink:href="#DejaVuSans-34"/>
       <use x="63.623047" xlink:href="#DejaVuSans-2e"/>
       <use x="95.410156" xlink:href="#DejaVuSans-37"/>
      </g>
     </g>
    </g>
    <g id="ytick_5">
     <g id="line2d_12">
      <g>
       <use style="stroke:#000000;stroke-width:0.8;" x="57.6" xlink:href="#m8442434a62" y="107.328"/>
      </g>
     </g>
     <g id="text_13">
      <!-- 4.8 -->
      <defs>
       <path d="M 31.78125 34.625 
Q 24.75 34.625 20.71875 30.859375 
Q 16.703125 27.09375 16.703125 20.515625 
Q 16.703125 13.921875 20.71875 10.15625 
Q 24.75 6.390625 31.78125 6.390625 
Q 38.8125 6.390625 42.859375 10.171875 
Q 46.921875 13.96875 46.921875 20.515625 
Q 46.921875 27.09375 42.890625 30.859375 
Q 38.875 34.625 31.78125 34.625 
z
M 21.921875 38.8125 
Q 15.578125 40.375 12.03125 44.71875 
Q 8.5 49.078125 8.5 55.328125 
Q 8.5 64.0625 14.71875 69.140625 
Q 20.953125 74.21875 31.78125 74.21875 
Q 42.671875 74.21875 48.875 69.140625 
Q 55.078125 64.0625 55.078125 55.328125 
Q 55.078125 49.078125 51.53125 44.71875 
Q 48 40.375 41.703125 38.8125 
Q 48.828125 37.15625 52.796875 32.3125 
Q 56.78125 27.484375 56.78125 20.515625 
Q 56.78125 9.90625 50.3125 4.234375 
Q 43.84375 -1.421875 31.78125 -1.421875 
Q 19.734375 -1.421875 13.25 4.234375 
Q 6.78125 9.90625 6.78125 20.515625 
Q 6.78125 27.484375 10.78125 32.3125 
Q 14.796875 37.15625 21.921875 38.8125 
z
M 18.3125 54.390625 
Q 18.3125 48.734375 21.84375 45.5625 
Q 25.390625 42.390625 31.78125 42.390625 
Q 38.140625 42.390625 41.71875 45.5625 
Q 45.3125 48.734375 45.3125 54.390625 
Q 45.3125 60.0625 41.71875 63.234375 
Q 38.140625 66.40625 31.78125 66.40625 
Q 25.390625 66.40625 21.84375 63.234375 
Q 18.3125 60.0625 18.3125 54.390625 
z
" id="DejaVuSans-38"/>
      </defs>
      <g transform="translate(34.696875 111.127219)scale(0.1 -0.1)">
       <use xlink:href="#DejaVuSans-34"/>
       <use x="63.623047" xlink:href="#DejaVuSans-2e"/>
       <use x="95.410156" xlink:href="#DejaVuSans-38"/>
      </g>
     </g>
    </g>
    <g id="ytick_6">
     <g id="line2d_13">
      <g>
       <use style="stroke:#000000;stroke-width:0.8;" x="57.6" xlink:href="#m8442434a62" y="57.733904"/>
      </g>
     </g>
     <g id="text_14">
      <!-- 4.9 -->
      <defs>
       <path d="M 10.984375 1.515625 
L 10.984375 10.5 
Q 14.703125 8.734375 18.5 7.8125 
Q 22.3125 6.890625 25.984375 6.890625 
Q 35.75 6.890625 40.890625 13.453125 
Q 46.046875 20.015625 46.78125 33.40625 
Q 43.953125 29.203125 39.59375 26.953125 
Q 35.25 24.703125 29.984375 24.703125 
Q 19.046875 24.703125 12.671875 31.3125 
Q 6.296875 37.9375 6.296875 49.421875 
Q 6.296875 60.640625 12.9375 67.421875 
Q 19.578125 74.21875 30.609375 74.21875 
Q 43.265625 74.21875 49.921875 64.515625 
Q 56.59375 54.828125 56.59375 36.375 
Q 56.59375 19.140625 48.40625 8.859375 
Q 40.234375 -1.421875 26.421875 -1.421875 
Q 22.703125 -1.421875 18.890625 -0.6875 
Q 15.09375 0.046875 10.984375 1.515625 
z
M 30.609375 32.421875 
Q 37.25 32.421875 41.125 36.953125 
Q 45.015625 41.5 45.015625 49.421875 
Q 45.015625 57.28125 41.125 61.84375 
Q 37.25 66.40625 30.609375 66.40625 
Q 23.96875 66.40625 20.09375 61.84375 
Q 16.21875 57.28125 16.21875 49.421875 
Q 16.21875 41.5 20.09375 36.953125 
Q 23.96875 32.421875 30.609375 32.421875 
z
" id="DejaVuSans-39"/>
      </defs>
      <g transform="translate(34.696875 61.533123)scale(0.1 -0.1)">
       <use xlink:href="#DejaVuSans-34"/>
       <use x="63.623047" xlink:href="#DejaVuSans-2e"/>
       <use x="95.410156" xlink:href="#DejaVuSans-39"/>
      </g>
     </g>
    </g>
    <g id="text_15">
     <!-- Current (nA) -->
     <defs>
      <path d="M 64.40625 67.28125 
L 64.40625 56.890625 
Q 59.421875 61.53125 53.78125 63.8125 
Q 48.140625 66.109375 41.796875 66.109375 
Q 29.296875 66.109375 22.65625 58.46875 
Q 16.015625 50.828125 16.015625 36.375 
Q 16.015625 21.96875 22.65625 14.328125 
Q 29.296875 6.6875 41.796875 6.6875 
Q 48.140625 6.6875 53.78125 8.984375 
Q 59.421875 11.28125 64.40625 15.921875 
L 64.40625 5.609375 
Q 59.234375 2.09375 53.4375 0.328125 
Q 47.65625 -1.421875 41.21875 -1.421875 
Q 24.65625 -1.421875 15.125 8.703125 
Q 5.609375 18.84375 5.609375 36.375 
Q 5.609375 53.953125 15.125 64.078125 
Q 24.65625 74.21875 41.21875 74.21875 
Q 47.75 74.21875 53.53125 72.484375 
Q 59.328125 70.75 64.40625 67.28125 
z
" id="DejaVuSans-43"/>
      <path d="M 8.5 21.578125 
L 8.5 54.6875 
L 17.484375 54.6875 
L 17.484375 21.921875 
Q 17.484375 14.15625 20.5 10.265625 
Q 23.53125 6.390625 29.59375 6.390625 
Q 36.859375 6.390625 41.078125 11.03125 
Q 45.3125 15.671875 45.3125 23.6875 
L 45.3125 54.6875 
L 54.296875 54.6875 
L 54.296875 0 
L 45.3125 0 
L 45.3125 8.40625 
Q 42.046875 3.421875 37.71875 1 
Q 33.40625 -1.421875 27.6875 -1.421875 
Q 18.265625 -1.421875 13.375 4.4375 
Q 8.5 10.296875 8.5 21.578125 
z
M 31.109375 56 
z
" id="DejaVuSans-75"/>
      <path d="M 41.109375 46.296875 
Q 39.59375 47.171875 37.8125 47.578125 
Q 36.03125 48 33.890625 48 
Q 26.265625 48 22.1875 43.046875 
Q 18.109375 38.09375 18.109375 28.8125 
L 18.109375 0 
L 9.078125 0 
L 9.078125 54.6875 
L 18.109375 54.6875 
L 18.109375 46.1875 
Q 20.953125 51.171875 25.484375 53.578125 
Q 30.03125 56 36.53125 56 
Q 37.453125 56 38.578125 55.875 
Q 39.703125 55.765625 41.0625 55.515625 
z
" id="DejaVuSans-72"/>
      <path d="M 56.203125 29.59375 
L 56.203125 25.203125 
L 14.890625 25.203125 
Q 15.484375 15.921875 20.484375 11.0625 
Q 25.484375 6.203125 34.421875 6.203125 
Q 39.59375 6.203125 44.453125 7.46875 
Q 49.3125 8.734375 54.109375 11.28125 
L 54.109375 2.78125 
Q 49.265625 0.734375 44.1875 -0.34375 
Q 39.109375 -1.421875 33.890625 -1.421875 
Q 20.796875 -1.421875 13.15625 6.1875 
Q 5.515625 13.8125 5.515625 26.8125 
Q 5.515625 40.234375 12.765625 48.109375 
Q 20.015625 56 32.328125 56 
Q 43.359375 56 49.78125 48.890625 
Q 56.203125 41.796875 56.203125 29.59375 
z
M 47.21875 32.234375 
Q 47.125 39.59375 43.09375 43.984375 
Q 39.0625 48.390625 32.421875 48.390625 
Q 24.90625 48.390625 20.390625 44.140625 
Q 15.875 39.890625 15.1875 32.171875 
z
" id="DejaVuSans-65"/>
      <path d="M 54.890625 33.015625 
L 54.890625 0 
L 45.90625 0 
L 45.90625 32.71875 
Q 45.90625 40.484375 42.875 44.328125 
Q 39.84375 48.1875 33.796875 48.1875 
Q 26.515625 48.1875 22.3125 43.546875 
Q 18.109375 38.921875 18.109375 30.90625 
L 18.109375 0 
L 9.078125 0 
L 9.078125 54.6875 
L 18.109375 54.6875 
L 18.109375 46.1875 
Q 21.34375 51.125 25.703125 53.5625 
Q 30.078125 56 35.796875 56 
Q 45.21875 56 50.046875 50.171875 
Q 54.890625 44.34375 54.890625 33.015625 
z
" id="DejaVuSans-6e"/>
      <path id="DejaVuSans-20"/>
      <path d="M 34.1875 63.1875 
L 20.796875 26.90625 
L 47.609375 26.90625 
z
M 28.609375 72.90625 
L 39.796875 72.90625 
L 67.578125 0 
L 57.328125 0 
L 50.6875 18.703125 
L 17.828125 18.703125 
L 11.1875 0 
L 0.78125 0 
z
" id="DejaVuSans-41"/>
     </defs>
     <g transform="translate(28.617187 205.581906)rotate(-90)scale(0.1 -0.1)">
      <use xlink:href="#DejaVuSans-43"/>
      <use x="69.824219" xlink:href="#DejaVuSans-75"/>
      <use x="133.203125" xlink:href="#DejaVuSans-72"/>
      <use x="174.300781" xlink:href="#DejaVuSans-72"/>
      <use x="215.382812" xlink:href="#DejaVuSans-65"/>
      <use x="276.90625" xlink:href="#DejaVuSans-6e"/>
      <use x="340.285156" xlink:href="#DejaVuSans-74"/>
      <use x="379.494141" xlink:href="#DejaVuSans-20"/>
      <use x="411.28125" xlink:href="#DejaVuSans-28"/>
      <use x="450.294922" xlink:href="#DejaVuSans-6e"/>
      <use x="513.673828" xlink:href="#DejaVuSans-41"/>
      <use x="582.082031" xlink:href="#DejaVuSans-29"/>
     </g>
    </g>
   </g>
   <g id="line2d_14">
    <path clip-path="url(#p4d6abf67e6)" d="M 73.832727 55.551764 
L 74.37467 53.568 
L 75.459097 57.535528 
L 76.00104 58.329033 
L 76.542982 55.799734 
L 77.084925 60.411985 
L 77.626868 53.766376 
L 78.16881 62.742908 
L 78.710753 63.387631 
L 79.252696 66.313683 
L 79.794638 65.173018 
L 80.336581 67.950288 
L 80.879066 66.859218 
L 81.42155 67.156782 
L 81.963493 72.116192 
L 82.505436 70.578775 
L 83.047378 71.917815 
L 83.589321 70.826745 
L 84.673206 73.008886 
L 85.215149 74.447114 
L 85.757092 77.42276 
L 86.299034 79.108959 
L 86.841519 78.761801 
L 87.383462 82.035011 
L 87.925404 80.547188 
L 88.467347 84.018775 
L 89.00929 85.952945 
L 89.551232 85.40741 
L 90.093175 89.424531 
L 90.635118 87.936708 
L 91.17706 90.069255 
L 91.719003 88.631026 
L 92.260946 90.366819 
L 92.80343 87.986303 
L 93.345373 82.233387 
L 93.887315 87.291985 
L 94.429258 87.490362 
L 94.971201 91.507483 
L 95.513143 91.755454 
L 96.055086 94.235159 
L 96.597029 95.524605 
L 97.138971 93.739218 
L 97.680914 97.657151 
L 98.222857 99.888886 
L 98.764799 99.194568 
L 99.306742 100.632797 
L 99.848685 99.392945 
L 100.390627 103.757225 
L 100.93257 106.088148 
L 101.474513 105.740989 
L 102.016455 105.740989 
L 102.558398 111.047557 
L 103.100341 109.014199 
L 103.642283 110.502022 
L 104.184226 113.824827 
L 104.726169 115.362244 
L 105.268111 113.428074 
L 105.810054 115.312649 
L 106.351997 118.337889 
L 106.893939 117.246819 
L 107.435882 117.296413 
L 107.977825 114.915897 
L 108.519767 115.263055 
L 109.06171 117.147631 
L 109.603653 116.552502 
L 110.145595 117.693166 
L 110.687538 117.147631 
L 111.229481 119.627336 
L 111.771423 120.569624 
L 112.313366 123.198111 
L 112.855309 121.313535 
L 113.397251 120.123277 
L 113.939194 120.470435 
L 115.023079 124.388369 
L 115.565022 122.602982 
L 116.106965 123.892428 
L 116.648907 123.892428 
L 117.19085 123.098923 
L 117.732793 124.388369 
L 118.274735 123.198111 
L 118.816678 121.313535 
L 119.358621 126.520915 
L 119.900563 125.479439 
L 120.442506 126.967262 
L 120.984449 127.810362 
L 121.526391 127.512797 
L 122.068334 125.925786 
L 122.610277 129.744531 
L 123.152219 128.107926 
L 123.694162 131.18276 
L 124.236105 128.256708 
L 124.778047 127.116044 
L 125.31999 129.149402 
L 125.861933 129.050214 
L 126.403875 124.487557 
L 126.945818 124.289181 
L 127.48776 126.322539 
L 128.029703 131.926672 
L 128.571646 131.728295 
L 129.113588 135.596635 
L 129.655531 135.199882 
L 130.197474 136.092576 
L 130.739416 139.41538 
L 131.281359 141.299956 
L 131.823302 141.34955 
L 132.365244 139.712945 
L 132.907187 144.62276 
L 133.44913 143.978037 
L 133.991072 144.176413 
L 134.533015 148.788664 
L 135.074958 146.308959 
L 135.6169 147.003277 
L 136.158843 145.069107 
L 136.700786 147.846376 
L 137.242728 146.755306 
L 137.784671 153.301727 
L 138.326614 152.706598 
L 138.868556 152.409033 
L 139.410499 152.409033 
L 139.952442 154.888738 
L 140.494384 159.550583 
L 141.036327 155.087114 
L 141.57827 155.533461 
L 142.120212 155.136708 
L 142.662155 151.466745 
L 143.204098 155.285491 
L 144.287983 153.202539 
L 144.829926 154.095232 
L 145.371868 154.491985 
L 145.913811 152.85538 
L 146.997696 156.773314 
L 147.539639 156.326967 
L 148.081582 156.227779 
L 148.623524 156.72372 
L 149.165467 159.203424 
L 149.70741 159.649771 
L 150.249352 157.81479 
L 150.791295 156.426155 
L 151.333238 156.12859 
L 152.417123 155.087114 
L 152.959066 159.99693 
L 153.501008 158.509107 
L 154.042951 158.657889 
L 154.584894 162.228664 
L 155.126836 162.922982 
L 155.668779 160.096118 
L 156.210722 164.460399 
L 156.752664 157.864384 
L 157.294607 159.550583 
L 157.83655 160.84003 
L 158.378492 156.72372 
L 158.920435 156.12859 
L 159.462378 158.459513 
L 160.00432 156.475749 
L 160.546263 158.657889 
L 161.630148 165.005934 
L 162.172091 166.394568 
L 162.714034 166.741727 
L 163.255976 167.981579 
L 163.797919 171.353978 
L 164.339862 171.056413 
L 164.881804 173.982465 
L 165.96569 176.065417 
L 166.507632 175.867041 
L 167.049575 179.437815 
L 167.591518 177.55324 
L 168.13346 177.404458 
L 168.675403 182.611838 
L 169.217345 181.619956 
L 169.759288 182.512649 
L 170.301231 184.298037 
L 170.843716 176.115011 
L 171.385658 174.478406 
L 172.470085 172.296266 
L 173.01257 172.197077 
L 173.554513 175.718258 
L 174.096455 173.585712 
L 174.638398 175.519882 
L 175.180341 175.172723 
L 175.722283 173.486524 
L 176.264226 172.742613 
L 176.806169 175.519882 
L 177.348111 173.387336 
L 178.431997 177.206081 
L 178.973939 176.610952 
L 179.515882 178.545122 
L 180.057825 172.891395 
L 181.142252 176.71014 
L 181.684194 178.64431 
L 182.226137 179.537004 
L 182.76808 179.685786 
L 183.310022 182.314273 
L 183.851965 185.637077 
L 184.393908 188.067188 
L 184.93585 187.72003 
L 185.477793 189.703793 
L 186.019736 186.579365 
L 186.561678 188.513535 
L 187.103621 185.835454 
L 187.645564 189.604605 
L 188.187506 188.662317 
L 188.729449 189.505417 
L 189.271392 193.522539 
L 189.813334 190.050952 
L 190.355277 192.282686 
L 190.89722 196.299808 
L 191.439162 191.786745 
L 191.981105 191.042834 
L 192.523048 194.663203 
L 193.06499 193.423351 
L 193.606933 190.497299 
L 194.148876 191.489181 
L 194.691361 186.529771 
L 195.233845 193.621727 
L 195.77633 189.356635 
L 196.861299 184.446819 
L 197.403783 186.87693 
L 197.946268 183.157373 
L 198.488211 190.298923 
L 199.030695 190.745269 
L 199.572638 195.307926 
L 200.114581 194.365638 
L 200.656523 196.746155 
L 201.198466 198.38276 
L 201.740409 200.515306 
L 202.282351 199.672207 
L 202.824294 201.556782 
L 203.366237 204.43324 
L 203.908179 204.43324 
L 204.450122 207.111321 
L 204.992065 211.227631 
L 205.534007 209.095085 
L 206.07595 212.715454 
L 206.617893 211.773166 
L 207.159835 208.599144 
L 207.701778 208.946303 
L 208.243721 203.887705 
L 209.869549 200.267336 
L 210.411491 199.126672 
L 211.495377 201.65597 
L 212.037861 193.076192 
L 212.580346 195.655085 
L 213.122288 196.845343 
L 213.664231 196.894937 
L 214.206174 195.704679 
L 214.748116 198.085196 
L 215.290601 199.275454 
L 215.832544 203.689328 
L 216.374486 205.226745 
L 216.916429 204.284458 
L 217.458372 205.177151 
L 218.000314 205.821875 
L 218.542799 205.821875 
L 219.084742 209.095085 
L 219.626684 210.086967 
L 220.168627 212.814642 
L 220.71057 210.830878 
L 221.252512 211.624384 
L 221.794455 212.169919 
L 222.336398 210.533314 
L 222.87834 211.624384 
L 223.420283 212.169919 
L 224.504168 205.276339 
L 225.046111 205.425122 
L 225.588053 207.012133 
L 226.129996 210.334937 
L 226.671939 209.442244 
L 227.755824 204.383646 
L 228.297767 212.963424 
L 228.839709 210.48372 
L 229.381652 209.838996 
L 229.924679 213.260989 
L 230.466621 210.037373 
L 231.551049 215.343941 
L 232.092991 214.550435 
L 232.634934 214.748812 
L 233.176877 216.087852 
L 234.260762 213.508959 
L 234.802705 216.633387 
L 235.344647 214.401653 
L 235.88659 215.542317 
L 236.429074 215.6911 
L 236.971017 211.475601 
L 237.51296 215.046376 
L 238.054902 215.839882 
L 238.596845 212.269107 
L 239.138788 211.624384 
L 239.68073 212.021137 
L 240.222673 213.75693 
L 240.764616 212.467483 
L 241.306558 212.715454 
L 241.848501 215.839882 
L 242.390444 214.054494 
L 242.932386 214.60003 
L 243.474329 212.814642 
L 244.016272 219.410657 
L 244.558214 220.948074 
L 245.100157 215.591911 
L 245.6421 223.278996 
L 246.184042 224.667631 
L 246.725985 226.552207 
L 247.267928 227.940841 
L 248.352355 232.40431 
L 249.436782 236.570214 
L 249.978725 235.330362 
L 250.520668 232.949845 
L 251.06261 232.156339 
L 251.605095 226.304236 
L 252.147038 224.965196 
L 252.68898 225.361948 
L 253.772866 222.485491 
L 254.314808 224.221284 
L 254.856751 223.031026 
L 255.398693 217.476487 
L 255.940636 218.468369 
L 256.482579 212.715454 
L 257.024521 230.718111 
L 257.566464 208.946303 
L 258.650349 221.691985 
L 259.192292 224.122096 
L 259.734235 227.940841 
L 260.276719 236.52062 
L 260.818662 230.618923 
L 261.360605 236.76859 
L 261.902547 240.289771 
L 262.44449 241.529624 
L 262.986433 244.207705 
L 263.528375 248.324015 
L 264.070318 236.421432 
L 264.612261 233.743351 
L 265.154203 232.65228 
L 265.696146 228.833535 
L 266.238089 229.081506 
L 266.780031 228.932723 
L 267.321974 223.874125 
L 267.863917 223.477373 
L 268.405859 223.824531 
L 268.947802 225.26276 
L 269.489745 227.345712 
L 270.031687 233.148221 
L 270.57363 236.718996 
L 271.115573 237.859661 
L 271.657515 242.5711 
L 272.2 241.827188 
L 272.741943 242.075159 
L 273.283885 239.149107 
L 273.825828 246.191469 
L 274.372106 224.766819 
L 274.914591 237.264531 
L 275.456533 232.949845 
L 275.998476 234.090509 
L 276.540419 235.727114 
L 277.082361 236.867779 
L 277.625388 238.306007 
L 278.167331 226.205048 
L 278.709273 233.297004 
L 279.793159 235.330362 
L 280.335101 231.858775 
L 281.418987 235.727114 
L 281.960929 236.669402 
L 282.502872 237.066155 
L 283.044815 240.289771 
L 283.586757 241.827188 
L 284.1287 242.273535 
L 284.670643 242.273535 
L 285.212585 243.91014 
L 285.754528 242.521506 
L 286.296471 243.116635 
L 286.838413 246.885786 
L 287.380356 243.463793 
L 287.922299 250.952502 
L 288.464241 246.439439 
L 289.006184 245.00121 
L 289.548126 247.133756 
L 290.090069 245.149993 
L 290.632012 248.621579 
L 291.173954 253.630583 
L 291.715897 251.448443 
L 292.25784 251.498037 
L 292.799782 248.522391 
L 293.341725 248.621579 
L 293.883668 244.554863 
L 294.42561 242.967852 
L 294.967553 243.017446 
L 295.509496 242.223941 
L 296.05198 242.323129 
L 296.594465 242.81907 
L 297.13695 241.876782 
L 298.220835 243.315011 
L 298.762778 244.009328 
L 299.305262 242.422317 
L 299.847205 244.604458 
L 300.389147 244.158111 
L 300.93109 245.249181 
L 301.473033 247.084162 
L 302.014975 250.406967 
L 302.556918 251.101284 
L 303.098861 253.382613 
L 303.640803 251.845196 
L 304.724689 256.655823 
L 305.266631 252.539513 
L 305.808574 254.027336 
L 306.892459 255.564753 
L 307.434402 257.201358 
L 307.976345 254.672059 
L 308.518287 256.110288 
L 309.06023 254.523277 
L 309.602173 257.846081 
L 310.144115 253.580989 
L 310.686058 256.854199 
L 311.228001 254.92003 
L 311.769943 254.572871 
L 312.311886 256.755011 
L 312.853829 253.432207 
L 313.395771 254.721653 
L 313.937714 253.580989 
L 314.479657 254.820841 
L 315.021599 255.267188 
L 315.563542 254.027336 
L 316.105485 258.094052 
L 316.647427 259.681063 
L 317.18937 260.276192 
L 317.731313 260.028221 
L 318.273255 262.55752 
L 319.357141 257.399734 
L 319.899625 264.789255 
L 320.44211 260.821727 
L 320.984053 263.450214 
L 321.525995 259.135528 
L 322.06848 256.308664 
L 322.610965 259.28431 
L 323.153449 256.606229 
L 323.695934 258.887557 
L 324.238418 257.002982 
L 324.780903 253.382613 
L 325.323388 250.952502 
L 325.86533 253.977742 
L 326.407815 259.929033 
L 326.949757 259.036339 
L 327.4917 259.036339 
L 328.033643 258.490804 
L 328.576127 263.103055 
L 329.11807 263.40062 
L 329.660013 266.921801 
L 330.201955 262.656708 
L 330.743898 266.574642 
L 331.285841 265.979513 
L 331.827783 265.58276 
L 332.369726 268.955159 
L 332.911669 269.4511 
L 333.453611 267.467336 
L 333.995554 268.905565 
L 334.537497 267.467336 
L 335.079439 271.980399 
L 335.621382 266.574642 
L 336.163325 268.707188 
L 336.705267 269.302317 
L 337.24721 270.244605 
L 337.789153 272.476339 
L 338.331095 271.782022 
L 338.873038 271.534052 
L 339.414981 268.310435 
L 339.956923 267.665712 
L 340.498866 268.85597 
L 341.040809 270.591764 
L 341.582751 269.748664 
L 342.124694 271.087705 
L 342.666637 270.343793 
L 343.208579 270.988517 
L 343.750522 271.385269 
L 344.292465 269.054347 
L 345.918293 270.740546 
L 346.460235 266.67383 
L 347.002178 269.947041 
L 347.544121 268.062465 
L 348.086063 265.037225 
L 348.628006 266.525048 
L 349.169949 269.004753 
L 349.711891 269.153535 
L 350.253834 269.847852 
L 350.795777 274.261727 
L 351.337719 265.33479 
L 351.879662 273.021875 
L 352.421605 269.500694 
L 352.963547 265.037225 
L 353.50549 267.7649 
L 354.047433 263.053461 
L 354.589375 261.46645 
L 355.131318 262.855085 
L 355.67326 268.112059 
L 356.215203 267.51693 
L 356.757146 268.062465 
L 357.299088 266.227483 
L 357.841031 265.979513 
L 358.382974 271.484458 
L 358.924916 273.418627 
L 359.466859 273.468221 
L 360.008802 276.84062 
L 360.550744 275.898332 
L 361.092687 281.452871 
L 361.63463 280.708959 
L 362.176572 277.882096 
L 362.718515 283.039882 
L 363.260458 283.783793 
L 363.8024 285.767557 
L 364.344343 283.188664 
L 364.886286 285.023646 
L 365.428228 283.486229 
L 365.970171 286.709845 
L 366.512114 282.494347 
L 367.054056 282.246376 
L 367.595999 282.543941 
L 368.137942 280.064236 
L 368.679884 280.014642 
L 369.221827 280.907336 
L 369.76377 281.155306 
L 370.305712 279.617889 
L 370.847655 279.617889 
L 371.389598 277.634125 
L 371.93154 276.394273 
L 372.473483 279.518701 
L 373.015426 276.344679 
L 373.557368 281.006524 
L 374.099311 278.873978 
L 374.641254 275.600768 
L 375.183196 274.559292 
L 375.725139 274.112945 
L 376.267082 272.72431 
L 376.809024 275.699956 
L 377.350967 272.674716 
L 377.89291 272.575528 
L 378.434852 270.095823 
L 378.976795 273.666598 
L 379.518738 275.055232 
L 380.06068 279.717077 
L 380.602623 283.238258 
L 381.144566 284.329328 
L 381.686508 285.817151 
L 382.770394 290.131838 
L 383.312336 291.619661 
L 383.854279 295.24003 
L 384.938164 292.066007 
L 385.480107 295.488 
L 386.02205 293.702613 
L 386.563992 294.148959 
L 387.105935 290.925343 
L 387.647878 289.635897 
L 388.18982 287.800915 
L 388.731763 287.503351 
L 389.815648 282.196782 
L 390.357591 283.337446 
L 390.899534 283.932576 
L 391.441476 281.105712 
L 391.983419 279.072354 
L 392.525362 281.750435 
L 393.067304 277.435749 
L 393.609247 278.824384 
L 394.15119 278.179661 
L 394.693132 279.369919 
L 395.235075 278.675601 
L 395.777018 281.105712 
L 396.31896 282.940694 
L 396.861445 290.627779 
L 397.403387 291.421284 
L 397.94533 291.917225 
L 398.487273 294.148959 
L 398.487273 294.148959 
" style="fill:none;stroke:#1f77b4;stroke-linecap:square;stroke-width:1.5;"/>
   </g>
   <g id="patch_3">
    <path d="M 57.6 307.584 
L 57.6 41.472 
" style="fill:none;stroke:#000000;stroke-linecap:square;stroke-linejoin:miter;stroke-width:0.8;"/>
   </g>
   <g id="patch_4">
    <path d="M 414.72 307.584 
L 414.72 41.472 
" style="fill:none;stroke:#000000;stroke-linecap:square;stroke-linejoin:miter;stroke-width:0.8;"/>
   </g>
   <g id="patch_5">
    <path d="M 57.6 307.584 
L 414.72 307.584 
" style="fill:none;stroke:#000000;stroke-linecap:square;stroke-linejoin:miter;stroke-width:0.8;"/>
   </g>
   <g id="patch_6">
    <path d="M 57.6 41.472 
L 414.72 41.472 
" style="fill:none;stroke:#000000;stroke-linecap:square;stroke-linejoin:miter;stroke-width:0.8;"/>
   </g>
   <g id="text_16">
    <!-- Current with source voltage 100.0 mV -->
    <defs>
     <path d="M 4.203125 54.6875 
L 13.1875 54.6875 
L 24.421875 12.015625 
L 35.59375 54.6875 
L 46.1875 54.6875 
L 57.421875 12.015625 
L 68.609375 54.6875 
L 77.59375 54.6875 
L 63.28125 0 
L 52.6875 0 
L 40.921875 44.828125 
L 29.109375 0 
L 18.5 0 
z
" id="DejaVuSans-77"/>
     <path d="M 9.421875 54.6875 
L 18.40625 54.6875 
L 18.40625 0 
L 9.421875 0 
z
M 9.421875 75.984375 
L 18.40625 75.984375 
L 18.40625 64.59375 
L 9.421875 64.59375 
z
" id="DejaVuSans-69"/>
     <path d="M 54.890625 33.015625 
L 54.890625 0 
L 45.90625 0 
L 45.90625 32.71875 
Q 45.90625 40.484375 42.875 44.328125 
Q 39.84375 48.1875 33.796875 48.1875 
Q 26.515625 48.1875 22.3125 43.546875 
Q 18.109375 38.921875 18.109375 30.90625 
L 18.109375 0 
L 9.078125 0 
L 9.078125 75.984375 
L 18.109375 75.984375 
L 18.109375 46.1875 
Q 21.34375 51.125 25.703125 53.5625 
Q 30.078125 56 35.796875 56 
Q 45.21875 56 50.046875 50.171875 
Q 54.890625 44.34375 54.890625 33.015625 
z
" id="DejaVuSans-68"/>
     <path d="M 30.609375 48.390625 
Q 23.390625 48.390625 19.1875 42.75 
Q 14.984375 37.109375 14.984375 27.296875 
Q 14.984375 17.484375 19.15625 11.84375 
Q 23.34375 6.203125 30.609375 6.203125 
Q 37.796875 6.203125 41.984375 11.859375 
Q 46.1875 17.53125 46.1875 27.296875 
Q 46.1875 37.015625 41.984375 42.703125 
Q 37.796875 48.390625 30.609375 48.390625 
z
M 30.609375 56 
Q 42.328125 56 49.015625 48.375 
Q 55.71875 40.765625 55.71875 27.296875 
Q 55.71875 13.875 49.015625 6.21875 
Q 42.328125 -1.421875 30.609375 -1.421875 
Q 18.84375 -1.421875 12.171875 6.21875 
Q 5.515625 13.875 5.515625 27.296875 
Q 5.515625 40.765625 12.171875 48.375 
Q 18.84375 56 30.609375 56 
z
" id="DejaVuSans-6f"/>
     <path d="M 48.78125 52.59375 
L 48.78125 44.1875 
Q 44.96875 46.296875 41.140625 47.34375 
Q 37.3125 48.390625 33.40625 48.390625 
Q 24.65625 48.390625 19.8125 42.84375 
Q 14.984375 37.3125 14.984375 27.296875 
Q 14.984375 17.28125 19.8125 11.734375 
Q 24.65625 6.203125 33.40625 6.203125 
Q 37.3125 6.203125 41.140625 7.25 
Q 44.96875 8.296875 48.78125 10.40625 
L 48.78125 2.09375 
Q 45.015625 0.34375 40.984375 -0.53125 
Q 36.96875 -1.421875 32.421875 -1.421875 
Q 20.0625 -1.421875 12.78125 6.34375 
Q 5.515625 14.109375 5.515625 27.296875 
Q 5.515625 40.671875 12.859375 48.328125 
Q 20.21875 56 33.015625 56 
Q 37.15625 56 41.109375 55.140625 
Q 45.0625 54.296875 48.78125 52.59375 
z
" id="DejaVuSans-63"/>
     <path d="M 2.984375 54.6875 
L 12.5 54.6875 
L 29.59375 8.796875 
L 46.6875 54.6875 
L 56.203125 54.6875 
L 35.6875 0 
L 23.484375 0 
z
" id="DejaVuSans-76"/>
     <path d="M 9.421875 75.984375 
L 18.40625 75.984375 
L 18.40625 0 
L 9.421875 0 
z
" id="DejaVuSans-6c"/>
     <path d="M 34.28125 27.484375 
Q 23.390625 27.484375 19.1875 25 
Q 14.984375 22.515625 14.984375 16.5 
Q 14.984375 11.71875 18.140625 8.90625 
Q 21.296875 6.109375 26.703125 6.109375 
Q 34.1875 6.109375 38.703125 11.40625 
Q 43.21875 16.703125 43.21875 25.484375 
L 43.21875 27.484375 
z
M 52.203125 31.203125 
L 52.203125 0 
L 43.21875 0 
L 43.21875 8.296875 
Q 40.140625 3.328125 35.546875 0.953125 
Q 30.953125 -1.421875 24.3125 -1.421875 
Q 15.921875 -1.421875 10.953125 3.296875 
Q 6 8.015625 6 15.921875 
Q 6 25.140625 12.171875 29.828125 
Q 18.359375 34.515625 30.609375 34.515625 
L 43.21875 34.515625 
L 43.21875 35.40625 
Q 43.21875 41.609375 39.140625 45 
Q 35.0625 48.390625 27.6875 48.390625 
Q 23 48.390625 18.546875 47.265625 
Q 14.109375 46.140625 10.015625 43.890625 
L 10.015625 52.203125 
Q 14.9375 54.109375 19.578125 55.046875 
Q 24.21875 56 28.609375 56 
Q 40.484375 56 46.34375 49.84375 
Q 52.203125 43.703125 52.203125 31.203125 
z
" id="DejaVuSans-61"/>
     <path d="M 45.40625 27.984375 
Q 45.40625 37.75 41.375 43.109375 
Q 37.359375 48.484375 30.078125 48.484375 
Q 22.859375 48.484375 18.828125 43.109375 
Q 14.796875 37.75 14.796875 27.984375 
Q 14.796875 18.265625 18.828125 12.890625 
Q 22.859375 7.515625 30.078125 7.515625 
Q 37.359375 7.515625 41.375 12.890625 
Q 45.40625 18.265625 45.40625 27.984375 
z
M 54.390625 6.78125 
Q 54.390625 -7.171875 48.1875 -13.984375 
Q 42 -20.796875 29.203125 -20.796875 
Q 24.46875 -20.796875 20.265625 -20.09375 
Q 16.0625 -19.390625 12.109375 -17.921875 
L 12.109375 -9.1875 
Q 16.0625 -11.328125 19.921875 -12.34375 
Q 23.78125 -13.375 27.78125 -13.375 
Q 36.625 -13.375 41.015625 -8.765625 
Q 45.40625 -4.15625 45.40625 5.171875 
L 45.40625 9.625 
Q 42.625 4.78125 38.28125 2.390625 
Q 33.9375 0 27.875 0 
Q 17.828125 0 11.671875 7.65625 
Q 5.515625 15.328125 5.515625 27.984375 
Q 5.515625 40.671875 11.671875 48.328125 
Q 17.828125 56 27.875 56 
Q 33.9375 56 38.28125 53.609375 
Q 42.625 51.21875 45.40625 46.390625 
L 45.40625 54.6875 
L 54.390625 54.6875 
z
" id="DejaVuSans-67"/>
     <path d="M 52 44.1875 
Q 55.375 50.25 60.0625 53.125 
Q 64.75 56 71.09375 56 
Q 79.640625 56 84.28125 50.015625 
Q 88.921875 44.046875 88.921875 33.015625 
L 88.921875 0 
L 79.890625 0 
L 79.890625 32.71875 
Q 79.890625 40.578125 77.09375 44.375 
Q 74.3125 48.1875 68.609375 48.1875 
Q 61.625 48.1875 57.5625 43.546875 
Q 53.515625 38.921875 53.515625 30.90625 
L 53.515625 0 
L 44.484375 0 
L 44.484375 32.71875 
Q 44.484375 40.625 41.703125 44.40625 
Q 38.921875 48.1875 33.109375 48.1875 
Q 26.21875 48.1875 22.15625 43.53125 
Q 18.109375 38.875 18.109375 30.90625 
L 18.109375 0 
L 9.078125 0 
L 9.078125 54.6875 
L 18.109375 54.6875 
L 18.109375 46.1875 
Q 21.1875 51.21875 25.484375 53.609375 
Q 29.78125 56 35.6875 56 
Q 41.65625 56 45.828125 52.96875 
Q 50 49.953125 52 44.1875 
z
" id="DejaVuSans-6d"/>
     <path d="M 28.609375 0 
L 0.78125 72.90625 
L 11.078125 72.90625 
L 34.1875 11.53125 
L 57.328125 72.90625 
L 67.578125 72.90625 
L 39.796875 0 
z
" id="DejaVuSans-56"/>
    </defs>
    <g transform="translate(121.528125 35.472)scale(0.12 -0.12)">
     <use xlink:href="#DejaVuSans-43"/>
     <use x="69.824219" xlink:href="#DejaVuSans-75"/>
     <use x="133.203125" xlink:href="#DejaVuSans-72"/>
     <use x="174.300781" xlink:href="#DejaVuSans-72"/>
     <use x="215.382812" xlink:href="#DejaVuSans-65"/>
     <use x="276.90625" xlink:href="#DejaVuSans-6e"/>
     <use x="340.285156" xlink:href="#DejaVuSans-74"/>
     <use x="379.494141" xlink:href="#DejaVuSans-20"/>
     <use x="411.28125" xlink:href="#DejaVuSans-77"/>
     <use x="493.068359" xlink:href="#DejaVuSans-69"/>
     <use x="520.851562" xlink:href="#DejaVuSans-74"/>
     <use x="560.060547" xlink:href="#DejaVuSans-68"/>
     <use x="623.439453" xlink:href="#DejaVuSans-20"/>
     <use x="655.226562" xlink:href="#DejaVuSans-73"/>
     <use x="707.326172" xlink:href="#DejaVuSans-6f"/>
     <use x="768.507812" xlink:href="#DejaVuSans-75"/>
     <use x="831.886719" xlink:href="#DejaVuSans-72"/>
     <use x="872.96875" xlink:href="#DejaVuSans-63"/>
     <use x="927.949219" xlink:href="#DejaVuSans-65"/>
     <use x="989.472656" xlink:href="#DejaVuSans-20"/>
     <use x="1021.259766" xlink:href="#DejaVuSans-76"/>
     <use x="1080.439453" xlink:href="#DejaVuSans-6f"/>
     <use x="1141.621094" xlink:href="#DejaVuSans-6c"/>
     <use x="1169.404297" xlink:href="#DejaVuSans-74"/>
     <use x="1208.613281" xlink:href="#DejaVuSans-61"/>
     <use x="1269.892578" xlink:href="#DejaVuSans-67"/>
     <use x="1333.369141" xlink:href="#DejaVuSans-65"/>
     <use x="1394.892578" xlink:href="#DejaVuSans-20"/>
     <use x="1426.679688" xlink:href="#DejaVuSans-31"/>
     <use x="1490.302734" xlink:href="#DejaVuSans-30"/>
     <use x="1553.925781" xlink:href="#DejaVuSans-30"/>
     <use x="1617.548828" xlink:href="#DejaVuSans-2e"/>
     <use x="1649.335938" xlink:href="#DejaVuSans-30"/>
     <use x="1712.958984" xlink:href="#DejaVuSans-20"/>
     <use x="1744.746094" xlink:href="#DejaVuSans-6d"/>
     <use x="1842.158203" xlink:href="#DejaVuSans-56"/>
    </g>
   </g>
  </g>
 </g>
 <defs>
  <clipPath id="p4d6abf67e6">
   <rect height="266.112" width="357.12" x="57.6" y="41.472"/>
  </clipPath>
 </defs>
</svg>
