<?xml version="1.0" encoding="utf-8" standalone="no"?>
<!DOCTYPE svg PUBLIC "-//W3C//DTD SVG 1.1//EN"
  "http://www.w3.org/Graphics/SVG/1.1/DTD/svg11.dtd">
<!-- Created with matplotlib (http://matplotlib.org/) -->
<svg height="345pt" version="1.1" viewBox="0 0 460 345" width="460pt" xmlns="http://www.w3.org/2000/svg" xmlns:xlink="http://www.w3.org/1999/xlink">
 <defs>
  <style type="text/css">
*{stroke-linecap:butt;stroke-linejoin:round;}
  </style>
 </defs>
 <g id="figure_1">
  <g id="patch_1">
   <path d="M 0 345.6 
L 460.8 345.6 
L 460.8 0 
L 0 0 
z
" style="fill:#ffffff;"/>
  </g>
  <g id="axes_1">
   <g id="patch_2">
    <path d="M 57.6 307.584 
L 414.72 307.584 
L 414.72 41.472 
L 57.6 41.472 
z
" style="fill:#ffffff;"/>
   </g>
   <g id="matplotlib.axis_1">
    <g id="xtick_1">
     <g id="line2d_1">
      <path clip-path="url(#p3b1ef72a2c)" d="M 73.832727 307.584 
L 73.832727 41.472 
" style="fill:none;stroke:#b0b0b0;stroke-linecap:square;stroke-width:0.8;"/>
     </g>
     <g id="line2d_2">
      <defs>
       <path d="M 0 0 
L 0 3.5 
" id="m64ba53efef" style="stroke:#000000;stroke-width:0.8;"/>
      </defs>
      <g>
       <use style="stroke:#000000;stroke-width:0.8;" x="73.832727" xlink:href="#m64ba53efef" y="307.584"/>
      </g>
     </g>
     <g id="text_1">
      <!-- 0 -->
      <defs>
       <path d="M 31.78125 66.40625 
Q 24.171875 66.40625 20.328125 58.90625 
Q 16.5 51.421875 16.5 36.375 
Q 16.5 21.390625 20.328125 13.890625 
Q 24.171875 6.390625 31.78125 6.390625 
Q 39.453125 6.390625 43.28125 13.890625 
Q 47.125 21.390625 47.125 36.375 
Q 47.125 51.421875 43.28125 58.90625 
Q 39.453125 66.40625 31.78125 66.40625 
z
M 31.78125 74.21875 
Q 44.046875 74.21875 50.515625 64.515625 
Q 56.984375 54.828125 56.984375 36.375 
Q 56.984375 17.96875 50.515625 8.265625 
Q 44.046875 -1.421875 31.78125 -1.421875 
Q 19.53125 -1.421875 13.0625 8.265625 
Q 6.59375 17.96875 6.59375 36.375 
Q 6.59375 54.828125 13.0625 64.515625 
Q 19.53125 74.21875 31.78125 74.21875 
z
" id="DejaVuSans-30"/>
      </defs>
      <g transform="translate(70.651477 322.182437)scale(0.1 -0.1)">
       <use xlink:href="#DejaVuSans-30"/>
      </g>
     </g>
    </g>
    <g id="xtick_2">
     <g id="line2d_3">
      <path clip-path="url(#p3b1ef72a2c)" d="M 118.902103 307.584 
L 118.902103 41.472 
" style="fill:none;stroke:#b0b0b0;stroke-linecap:square;stroke-width:0.8;"/>
     </g>
     <g id="line2d_4">
      <g>
       <use style="stroke:#000000;stroke-width:0.8;" x="118.902103" xlink:href="#m64ba53efef" y="307.584"/>
      </g>
     </g>
     <g id="text_2">
      <!-- 25 -->
      <defs>
       <path d="M 19.1875 8.296875 
L 53.609375 8.296875 
L 53.609375 0 
L 7.328125 0 
L 7.328125 8.296875 
Q 12.9375 14.109375 22.625 23.890625 
Q 32.328125 33.6875 34.8125 36.53125 
Q 39.546875 41.84375 41.421875 45.53125 
Q 43.3125 49.21875 43.3125 52.78125 
Q 43.3125 58.59375 39.234375 62.25 
Q 35.15625 65.921875 28.609375 65.921875 
Q 23.96875 65.921875 18.8125 64.3125 
Q 13.671875 62.703125 7.8125 59.421875 
L 7.8125 69.390625 
Q 13.765625 71.78125 18.9375 73 
Q 24.125 74.21875 28.421875 74.21875 
Q 39.75 74.21875 46.484375 68.546875 
Q 53.21875 62.890625 53.21875 53.421875 
Q 53.21875 48.921875 51.53125 44.890625 
Q 49.859375 40.875 45.40625 35.40625 
Q 44.1875 33.984375 37.640625 27.21875 
Q 31.109375 20.453125 19.1875 8.296875 
z
" id="DejaVuSans-32"/>
       <path d="M 10.796875 72.90625 
L 49.515625 72.90625 
L 49.515625 64.59375 
L 19.828125 64.59375 
L 19.828125 46.734375 
Q 21.96875 47.46875 24.109375 47.828125 
Q 26.265625 48.1875 28.421875 48.1875 
Q 40.625 48.1875 47.75 41.5 
Q 54.890625 34.8125 54.890625 23.390625 
Q 54.890625 11.625 47.5625 5.09375 
Q 40.234375 -1.421875 26.90625 -1.421875 
Q 22.3125 -1.421875 17.546875 -0.640625 
Q 12.796875 0.140625 7.71875 1.703125 
L 7.71875 11.625 
Q 12.109375 9.234375 16.796875 8.0625 
Q 21.484375 6.890625 26.703125 6.890625 
Q 35.15625 6.890625 40.078125 11.328125 
Q 45.015625 15.765625 45.015625 23.390625 
Q 45.015625 31 40.078125 35.4375 
Q 35.15625 39.890625 26.703125 39.890625 
Q 22.75 39.890625 18.8125 39.015625 
Q 14.890625 38.140625 10.796875 36.28125 
z
" id="DejaVuSans-35"/>
      </defs>
      <g transform="translate(112.539603 322.182437)scale(0.1 -0.1)">
       <use xlink:href="#DejaVuSans-32"/>
       <use x="63.623047" xlink:href="#DejaVuSans-35"/>
      </g>
     </g>
    </g>
    <g id="xtick_3">
     <g id="line2d_5">
      <path clip-path="url(#p3b1ef72a2c)" d="M 163.971479 307.584 
L 163.971479 41.472 
" style="fill:none;stroke:#b0b0b0;stroke-linecap:square;stroke-width:0.8;"/>
     </g>
     <g id="line2d_6">
      <g>
       <use style="stroke:#000000;stroke-width:0.8;" x="163.971479" xlink:href="#m64ba53efef" y="307.584"/>
      </g>
     </g>
     <g id="text_3">
      <!-- 50 -->
      <g transform="translate(157.608979 322.182437)scale(0.1 -0.1)">
       <use xlink:href="#DejaVuSans-35"/>
       <use x="63.623047" xlink:href="#DejaVuSans-30"/>
      </g>
     </g>
    </g>
    <g id="xtick_4">
     <g id="line2d_7">
      <path clip-path="url(#p3b1ef72a2c)" d="M 209.040855 307.584 
L 209.040855 41.472 
" style="fill:none;stroke:#b0b0b0;stroke-linecap:square;stroke-width:0.8;"/>
     </g>
     <g id="line2d_8">
      <g>
       <use style="stroke:#000000;stroke-width:0.8;" x="209.040855" xlink:href="#m64ba53efef" y="307.584"/>
      </g>
     </g>
     <g id="text_4">
      <!-- 75 -->
      <defs>
       <path d="M 8.203125 72.90625 
L 55.078125 72.90625 
L 55.078125 68.703125 
L 28.609375 0 
L 18.3125 0 
L 43.21875 64.59375 
L 8.203125 64.59375 
z
" id="DejaVuSans-37"/>
      </defs>
      <g transform="translate(202.678355 322.182437)scale(0.1 -0.1)">
       <use xlink:href="#DejaVuSans-37"/>
       <use x="63.623047" xlink:href="#DejaVuSans-35"/>
      </g>
     </g>
    </g>
    <g id="xtick_5">
     <g id="line2d_9">
      <path clip-path="url(#p3b1ef72a2c)" d="M 254.110231 307.584 
L 254.110231 41.472 
" style="fill:none;stroke:#b0b0b0;stroke-linecap:square;stroke-width:0.8;"/>
     </g>
     <g id="line2d_10">
      <g>
       <use style="stroke:#000000;stroke-width:0.8;" x="254.110231" xlink:href="#m64ba53efef" y="307.584"/>
      </g>
     </g>
     <g id="text_5">
      <!-- 100 -->
      <defs>
       <path d="M 12.40625 8.296875 
L 28.515625 8.296875 
L 28.515625 63.921875 
L 10.984375 60.40625 
L 10.984375 69.390625 
L 28.421875 72.90625 
L 38.28125 72.90625 
L 38.28125 8.296875 
L 54.390625 8.296875 
L 54.390625 0 
L 12.40625 0 
z
" id="DejaVuSans-31"/>
      </defs>
      <g transform="translate(244.566481 322.182437)scale(0.1 -0.1)">
       <use xlink:href="#DejaVuSans-31"/>
       <use x="63.623047" xlink:href="#DejaVuSans-30"/>
       <use x="127.246094" xlink:href="#DejaVuSans-30"/>
      </g>
     </g>
    </g>
    <g id="xtick_6">
     <g id="line2d_11">
      <path clip-path="url(#p3b1ef72a2c)" d="M 299.179607 307.584 
L 299.179607 41.472 
" style="fill:none;stroke:#b0b0b0;stroke-linecap:square;stroke-width:0.8;"/>
     </g>
     <g id="line2d_12">
      <g>
       <use style="stroke:#000000;stroke-width:0.8;" x="299.179607" xlink:href="#m64ba53efef" y="307.584"/>
      </g>
     </g>
     <g id="text_6">
      <!-- 125 -->
      <g transform="translate(289.635857 322.182437)scale(0.1 -0.1)">
       <use xlink:href="#DejaVuSans-31"/>
       <use x="63.623047" xlink:href="#DejaVuSans-32"/>
       <use x="127.246094" xlink:href="#DejaVuSans-35"/>
      </g>
     </g>
    </g>
    <g id="xtick_7">
     <g id="line2d_13">
      <path clip-path="url(#p3b1ef72a2c)" d="M 344.248983 307.584 
L 344.248983 41.472 
" style="fill:none;stroke:#b0b0b0;stroke-linecap:square;stroke-width:0.8;"/>
     </g>
     <g id="line2d_14">
      <g>
       <use style="stroke:#000000;stroke-width:0.8;" x="344.248983" xlink:href="#m64ba53efef" y="307.584"/>
      </g>
     </g>
     <g id="text_7">
      <!-- 150 -->
      <g transform="translate(334.705233 322.182437)scale(0.1 -0.1)">
       <use xlink:href="#DejaVuSans-31"/>
       <use x="63.623047" xlink:href="#DejaVuSans-35"/>
       <use x="127.246094" xlink:href="#DejaVuSans-30"/>
      </g>
     </g>
    </g>
    <g id="xtick_8">
     <g id="line2d_15">
      <path clip-path="url(#p3b1ef72a2c)" d="M 389.318359 307.584 
L 389.318359 41.472 
" style="fill:none;stroke:#b0b0b0;stroke-linecap:square;stroke-width:0.8;"/>
     </g>
     <g id="line2d_16">
      <g>
       <use style="stroke:#000000;stroke-width:0.8;" x="389.318359" xlink:href="#m64ba53efef" y="307.584"/>
      </g>
     </g>
     <g id="text_8">
      <!-- 175 -->
      <g transform="translate(379.774609 322.182437)scale(0.1 -0.1)">
       <use xlink:href="#DejaVuSans-31"/>
       <use x="63.623047" xlink:href="#DejaVuSans-37"/>
       <use x="127.246094" xlink:href="#DejaVuSans-35"/>
      </g>
     </g>
    </g>
    <g id="text_9">
     <!-- t(s) -->
     <defs>
      <path d="M 18.3125 70.21875 
L 18.3125 54.6875 
L 36.8125 54.6875 
L 36.8125 47.703125 
L 18.3125 47.703125 
L 18.3125 18.015625 
Q 18.3125 11.328125 20.140625 9.421875 
Q 21.96875 7.515625 27.59375 7.515625 
L 36.8125 7.515625 
L 36.8125 0 
L 27.59375 0 
Q 17.1875 0 13.234375 3.875 
Q 9.28125 7.765625 9.28125 18.015625 
L 9.28125 47.703125 
L 2.6875 47.703125 
L 2.6875 54.6875 
L 9.28125 54.6875 
L 9.28125 70.21875 
z
" id="DejaVuSans-74"/>
      <path d="M 31 75.875 
Q 24.46875 64.65625 21.28125 53.65625 
Q 18.109375 42.671875 18.109375 31.390625 
Q 18.109375 20.125 21.3125 9.0625 
Q 24.515625 -2 31 -13.1875 
L 23.1875 -13.1875 
Q 15.875 -1.703125 12.234375 9.375 
Q 8.59375 20.453125 8.59375 31.390625 
Q 8.59375 42.28125 12.203125 53.3125 
Q 15.828125 64.359375 23.1875 75.875 
z
" id="DejaVuSans-28"/>
      <path d="M 44.28125 53.078125 
L 44.28125 44.578125 
Q 40.484375 46.53125 36.375 47.5 
Q 32.28125 48.484375 27.875 48.484375 
Q 21.1875 48.484375 17.84375 46.4375 
Q 14.5 44.390625 14.5 40.28125 
Q 14.5 37.15625 16.890625 35.375 
Q 19.28125 33.59375 26.515625 31.984375 
L 29.59375 31.296875 
Q 39.15625 29.25 43.1875 25.515625 
Q 47.21875 21.78125 47.21875 15.09375 
Q 47.21875 7.46875 41.1875 3.015625 
Q 35.15625 -1.421875 24.609375 -1.421875 
Q 20.21875 -1.421875 15.453125 -0.5625 
Q 10.6875 0.296875 5.421875 2 
L 5.421875 11.28125 
Q 10.40625 8.6875 15.234375 7.390625 
Q 20.0625 6.109375 24.8125 6.109375 
Q 31.15625 6.109375 34.5625 8.28125 
Q 37.984375 10.453125 37.984375 14.40625 
Q 37.984375 18.0625 35.515625 20.015625 
Q 33.0625 21.96875 24.703125 23.78125 
L 21.578125 24.515625 
Q 13.234375 26.265625 9.515625 29.90625 
Q 5.8125 33.546875 5.8125 39.890625 
Q 5.8125 47.609375 11.28125 51.796875 
Q 16.75 56 26.8125 56 
Q 31.78125 56 36.171875 55.265625 
Q 40.578125 54.546875 44.28125 53.078125 
z
" id="DejaVuSans-73"/>
      <path d="M 8.015625 75.875 
L 15.828125 75.875 
Q 23.140625 64.359375 26.78125 53.3125 
Q 30.421875 42.28125 30.421875 31.390625 
Q 30.421875 20.453125 26.78125 9.375 
Q 23.140625 -1.703125 15.828125 -13.1875 
L 8.015625 -13.1875 
Q 14.5 -2 17.703125 9.0625 
Q 20.90625 20.125 20.90625 31.390625 
Q 20.90625 42.671875 17.703125 53.65625 
Q 14.5 64.65625 8.015625 75.875 
z
" id="DejaVuSans-29"/>
     </defs>
     <g transform="translate(227.693594 335.860562)scale(0.1 -0.1)">
      <use xlink:href="#DejaVuSans-74"/>
      <use x="39.208984" xlink:href="#DejaVuSans-28"/>
      <use x="78.222656" xlink:href="#DejaVuSans-73"/>
      <use x="130.322266" xlink:href="#DejaVuSans-29"/>
     </g>
    </g>
   </g>
   <g id="matplotlib.axis_2">
    <g id="ytick_1">
     <g id="line2d_17">
      <path clip-path="url(#p3b1ef72a2c)" d="M 57.6 297.215204 
L 414.72 297.215204 
" style="fill:none;stroke:#b0b0b0;stroke-linecap:square;stroke-width:0.8;"/>
     </g>
     <g id="line2d_18">
      <defs>
       <path d="M 0 0 
L -3.5 0 
" id="mad7f027e77" style="stroke:#000000;stroke-width:0.8;"/>
      </defs>
      <g>
       <use style="stroke:#000000;stroke-width:0.8;" x="57.6" xlink:href="#mad7f027e77" y="297.215204"/>
      </g>
     </g>
     <g id="text_10">
      <!-- 1.204 -->
      <defs>
       <path d="M 10.6875 12.40625 
L 21 12.40625 
L 21 0 
L 10.6875 0 
z
" id="DejaVuSans-2e"/>
       <path d="M 37.796875 64.3125 
L 12.890625 25.390625 
L 37.796875 25.390625 
z
M 35.203125 72.90625 
L 47.609375 72.90625 
L 47.609375 25.390625 
L 58.015625 25.390625 
L 58.015625 17.1875 
L 47.609375 17.1875 
L 47.609375 0 
L 37.796875 0 
L 37.796875 17.1875 
L 4.890625 17.1875 
L 4.890625 26.703125 
z
" id="DejaVuSans-34"/>
      </defs>
      <g transform="translate(21.971875 301.014423)scale(0.1 -0.1)">
       <use xlink:href="#DejaVuSans-31"/>
       <use x="63.623047" xlink:href="#DejaVuSans-2e"/>
       <use x="95.410156" xlink:href="#DejaVuSans-32"/>
       <use x="159.033203" xlink:href="#DejaVuSans-30"/>
       <use x="222.65625" xlink:href="#DejaVuSans-34"/>
      </g>
     </g>
    </g>
    <g id="ytick_2">
     <g id="line2d_19">
      <path clip-path="url(#p3b1ef72a2c)" d="M 57.6 241.498944 
L 414.72 241.498944 
" style="fill:none;stroke:#b0b0b0;stroke-linecap:square;stroke-width:0.8;"/>
     </g>
     <g id="line2d_20">
      <g>
       <use style="stroke:#000000;stroke-width:0.8;" x="57.6" xlink:href="#mad7f027e77" y="241.498944"/>
      </g>
     </g>
     <g id="text_11">
      <!-- 1.205 -->
      <g transform="translate(21.971875 245.298163)scale(0.1 -0.1)">
       <use xlink:href="#DejaVuSans-31"/>
       <use x="63.623047" xlink:href="#DejaVuSans-2e"/>
       <use x="95.410156" xlink:href="#DejaVuSans-32"/>
       <use x="159.033203" xlink:href="#DejaVuSans-30"/>
       <use x="222.65625" xlink:href="#DejaVuSans-35"/>
      </g>
     </g>
    </g>
    <g id="ytick_3">
     <g id="line2d_21">
      <path clip-path="url(#p3b1ef72a2c)" d="M 57.6 185.782684 
L 414.72 185.782684 
" style="fill:none;stroke:#b0b0b0;stroke-linecap:square;stroke-width:0.8;"/>
     </g>
     <g id="line2d_22">
      <g>
       <use style="stroke:#000000;stroke-width:0.8;" x="57.6" xlink:href="#mad7f027e77" y="185.782684"/>
      </g>
     </g>
     <g id="text_12">
      <!-- 1.206 -->
      <defs>
       <path d="M 33.015625 40.375 
Q 26.375 40.375 22.484375 35.828125 
Q 18.609375 31.296875 18.609375 23.390625 
Q 18.609375 15.53125 22.484375 10.953125 
Q 26.375 6.390625 33.015625 6.390625 
Q 39.65625 6.390625 43.53125 10.953125 
Q 47.40625 15.53125 47.40625 23.390625 
Q 47.40625 31.296875 43.53125 35.828125 
Q 39.65625 40.375 33.015625 40.375 
z
M 52.59375 71.296875 
L 52.59375 62.3125 
Q 48.875 64.0625 45.09375 64.984375 
Q 41.3125 65.921875 37.59375 65.921875 
Q 27.828125 65.921875 22.671875 59.328125 
Q 17.53125 52.734375 16.796875 39.40625 
Q 19.671875 43.65625 24.015625 45.921875 
Q 28.375 48.1875 33.59375 48.1875 
Q 44.578125 48.1875 50.953125 41.515625 
Q 57.328125 34.859375 57.328125 23.390625 
Q 57.328125 12.15625 50.6875 5.359375 
Q 44.046875 -1.421875 33.015625 -1.421875 
Q 20.359375 -1.421875 13.671875 8.265625 
Q 6.984375 17.96875 6.984375 36.375 
Q 6.984375 53.65625 15.1875 63.9375 
Q 23.390625 74.21875 37.203125 74.21875 
Q 40.921875 74.21875 44.703125 73.484375 
Q 48.484375 72.75 52.59375 71.296875 
z
" id="DejaVuSans-36"/>
      </defs>
      <g transform="translate(21.971875 189.581903)scale(0.1 -0.1)">
       <use xlink:href="#DejaVuSans-31"/>
       <use x="63.623047" xlink:href="#DejaVuSans-2e"/>
       <use x="95.410156" xlink:href="#DejaVuSans-32"/>
       <use x="159.033203" xlink:href="#DejaVuSans-30"/>
       <use x="222.65625" xlink:href="#DejaVuSans-36"/>
      </g>
     </g>
    </g>
    <g id="ytick_4">
     <g id="line2d_23">
      <path clip-path="url(#p3b1ef72a2c)" d="M 57.6 130.066425 
L 414.72 130.066425 
" style="fill:none;stroke:#b0b0b0;stroke-linecap:square;stroke-width:0.8;"/>
     </g>
     <g id="line2d_24">
      <g>
       <use style="stroke:#000000;stroke-width:0.8;" x="57.6" xlink:href="#mad7f027e77" y="130.066425"/>
      </g>
     </g>
     <g id="text_13">
      <!-- 1.207 -->
      <g transform="translate(21.971875 133.865643)scale(0.1 -0.1)">
       <use xlink:href="#DejaVuSans-31"/>
       <use x="63.623047" xlink:href="#DejaVuSans-2e"/>
       <use x="95.410156" xlink:href="#DejaVuSans-32"/>
       <use x="159.033203" xlink:href="#DejaVuSans-30"/>
       <use x="222.65625" xlink:href="#DejaVuSans-37"/>
      </g>
     </g>
    </g>
    <g id="ytick_5">
     <g id="line2d_25">
      <path clip-path="url(#p3b1ef72a2c)" d="M 57.6 74.350165 
L 414.72 74.350165 
" style="fill:none;stroke:#b0b0b0;stroke-linecap:square;stroke-width:0.8;"/>
     </g>
     <g id="line2d_26">
      <g>
       <use style="stroke:#000000;stroke-width:0.8;" x="57.6" xlink:href="#mad7f027e77" y="74.350165"/>
      </g>
     </g>
     <g id="text_14">
      <!-- 1.208 -->
      <defs>
       <path d="M 31.78125 34.625 
Q 24.75 34.625 20.71875 30.859375 
Q 16.703125 27.09375 16.703125 20.515625 
Q 16.703125 13.921875 20.71875 10.15625 
Q 24.75 6.390625 31.78125 6.390625 
Q 38.8125 6.390625 42.859375 10.171875 
Q 46.921875 13.96875 46.921875 20.515625 
Q 46.921875 27.09375 42.890625 30.859375 
Q 38.875 34.625 31.78125 34.625 
z
M 21.921875 38.8125 
Q 15.578125 40.375 12.03125 44.71875 
Q 8.5 49.078125 8.5 55.328125 
Q 8.5 64.0625 14.71875 69.140625 
Q 20.953125 74.21875 31.78125 74.21875 
Q 42.671875 74.21875 48.875 69.140625 
Q 55.078125 64.0625 55.078125 55.328125 
Q 55.078125 49.078125 51.53125 44.71875 
Q 48 40.375 41.703125 38.8125 
Q 48.828125 37.15625 52.796875 32.3125 
Q 56.78125 27.484375 56.78125 20.515625 
Q 56.78125 9.90625 50.3125 4.234375 
Q 43.84375 -1.421875 31.78125 -1.421875 
Q 19.734375 -1.421875 13.25 4.234375 
Q 6.78125 9.90625 6.78125 20.515625 
Q 6.78125 27.484375 10.78125 32.3125 
Q 14.796875 37.15625 21.921875 38.8125 
z
M 18.3125 54.390625 
Q 18.3125 48.734375 21.84375 45.5625 
Q 25.390625 42.390625 31.78125 42.390625 
Q 38.140625 42.390625 41.71875 45.5625 
Q 45.3125 48.734375 45.3125 54.390625 
Q 45.3125 60.0625 41.71875 63.234375 
Q 38.140625 66.40625 31.78125 66.40625 
Q 25.390625 66.40625 21.84375 63.234375 
Q 18.3125 60.0625 18.3125 54.390625 
z
" id="DejaVuSans-38"/>
      </defs>
      <g transform="translate(21.971875 78.149384)scale(0.1 -0.1)">
       <use xlink:href="#DejaVuSans-31"/>
       <use x="63.623047" xlink:href="#DejaVuSans-2e"/>
       <use x="95.410156" xlink:href="#DejaVuSans-32"/>
       <use x="159.033203" xlink:href="#DejaVuSans-30"/>
       <use x="222.65625" xlink:href="#DejaVuSans-38"/>
      </g>
     </g>
    </g>
    <g id="text_15">
     <!-- Voltage (V) -->
     <defs>
      <path d="M 28.609375 0 
L 0.78125 72.90625 
L 11.078125 72.90625 
L 34.1875 11.53125 
L 57.328125 72.90625 
L 67.578125 72.90625 
L 39.796875 0 
z
" id="DejaVuSans-56"/>
      <path d="M 30.609375 48.390625 
Q 23.390625 48.390625 19.1875 42.75 
Q 14.984375 37.109375 14.984375 27.296875 
Q 14.984375 17.484375 19.15625 11.84375 
Q 23.34375 6.203125 30.609375 6.203125 
Q 37.796875 6.203125 41.984375 11.859375 
Q 46.1875 17.53125 46.1875 27.296875 
Q 46.1875 37.015625 41.984375 42.703125 
Q 37.796875 48.390625 30.609375 48.390625 
z
M 30.609375 56 
Q 42.328125 56 49.015625 48.375 
Q 55.71875 40.765625 55.71875 27.296875 
Q 55.71875 13.875 49.015625 6.21875 
Q 42.328125 -1.421875 30.609375 -1.421875 
Q 18.84375 -1.421875 12.171875 6.21875 
Q 5.515625 13.875 5.515625 27.296875 
Q 5.515625 40.765625 12.171875 48.375 
Q 18.84375 56 30.609375 56 
z
" id="DejaVuSans-6f"/>
      <path d="M 9.421875 75.984375 
L 18.40625 75.984375 
L 18.40625 0 
L 9.421875 0 
z
" id="DejaVuSans-6c"/>
      <path d="M 34.28125 27.484375 
Q 23.390625 27.484375 19.1875 25 
Q 14.984375 22.515625 14.984375 16.5 
Q 14.984375 11.71875 18.140625 8.90625 
Q 21.296875 6.109375 26.703125 6.109375 
Q 34.1875 6.109375 38.703125 11.40625 
Q 43.21875 16.703125 43.21875 25.484375 
L 43.21875 27.484375 
z
M 52.203125 31.203125 
L 52.203125 0 
L 43.21875 0 
L 43.21875 8.296875 
Q 40.140625 3.328125 35.546875 0.953125 
Q 30.953125 -1.421875 24.3125 -1.421875 
Q 15.921875 -1.421875 10.953125 3.296875 
Q 6 8.015625 6 15.921875 
Q 6 25.140625 12.171875 29.828125 
Q 18.359375 34.515625 30.609375 34.515625 
L 43.21875 34.515625 
L 43.21875 35.40625 
Q 43.21875 41.609375 39.140625 45 
Q 35.0625 48.390625 27.6875 48.390625 
Q 23 48.390625 18.546875 47.265625 
Q 14.109375 46.140625 10.015625 43.890625 
L 10.015625 52.203125 
Q 14.9375 54.109375 19.578125 55.046875 
Q 24.21875 56 28.609375 56 
Q 40.484375 56 46.34375 49.84375 
Q 52.203125 43.703125 52.203125 31.203125 
z
" id="DejaVuSans-61"/>
      <path d="M 45.40625 27.984375 
Q 45.40625 37.75 41.375 43.109375 
Q 37.359375 48.484375 30.078125 48.484375 
Q 22.859375 48.484375 18.828125 43.109375 
Q 14.796875 37.75 14.796875 27.984375 
Q 14.796875 18.265625 18.828125 12.890625 
Q 22.859375 7.515625 30.078125 7.515625 
Q 37.359375 7.515625 41.375 12.890625 
Q 45.40625 18.265625 45.40625 27.984375 
z
M 54.390625 6.78125 
Q 54.390625 -7.171875 48.1875 -13.984375 
Q 42 -20.796875 29.203125 -20.796875 
Q 24.46875 -20.796875 20.265625 -20.09375 
Q 16.0625 -19.390625 12.109375 -17.921875 
L 12.109375 -9.1875 
Q 16.0625 -11.328125 19.921875 -12.34375 
Q 23.78125 -13.375 27.78125 -13.375 
Q 36.625 -13.375 41.015625 -8.765625 
Q 45.40625 -4.15625 45.40625 5.171875 
L 45.40625 9.625 
Q 42.625 4.78125 38.28125 2.390625 
Q 33.9375 0 27.875 0 
Q 17.828125 0 11.671875 7.65625 
Q 5.515625 15.328125 5.515625 27.984375 
Q 5.515625 40.671875 11.671875 48.328125 
Q 17.828125 56 27.875 56 
Q 33.9375 56 38.28125 53.609375 
Q 42.625 51.21875 45.40625 46.390625 
L 45.40625 54.6875 
L 54.390625 54.6875 
z
" id="DejaVuSans-67"/>
      <path d="M 56.203125 29.59375 
L 56.203125 25.203125 
L 14.890625 25.203125 
Q 15.484375 15.921875 20.484375 11.0625 
Q 25.484375 6.203125 34.421875 6.203125 
Q 39.59375 6.203125 44.453125 7.46875 
Q 49.3125 8.734375 54.109375 11.28125 
L 54.109375 2.78125 
Q 49.265625 0.734375 44.1875 -0.34375 
Q 39.109375 -1.421875 33.890625 -1.421875 
Q 20.796875 -1.421875 13.15625 6.1875 
Q 5.515625 13.8125 5.515625 26.8125 
Q 5.515625 40.234375 12.765625 48.109375 
Q 20.015625 56 32.328125 56 
Q 43.359375 56 49.78125 48.890625 
Q 56.203125 41.796875 56.203125 29.59375 
z
M 47.21875 32.234375 
Q 47.125 39.59375 43.09375 43.984375 
Q 39.0625 48.390625 32.421875 48.390625 
Q 24.90625 48.390625 20.390625 44.140625 
Q 15.875 39.890625 15.1875 32.171875 
z
" id="DejaVuSans-65"/>
      <path id="DejaVuSans-20"/>
     </defs>
     <g transform="translate(15.892187 202.577219)rotate(-90)scale(0.1 -0.1)">
      <use xlink:href="#DejaVuSans-56"/>
      <use x="68.298828" xlink:href="#DejaVuSans-6f"/>
      <use x="129.480469" xlink:href="#DejaVuSans-6c"/>
      <use x="157.263672" xlink:href="#DejaVuSans-74"/>
      <use x="196.472656" xlink:href="#DejaVuSans-61"/>
      <use x="257.751953" xlink:href="#DejaVuSans-67"/>
      <use x="321.228516" xlink:href="#DejaVuSans-65"/>
      <use x="382.751953" xlink:href="#DejaVuSans-20"/>
      <use x="414.539062" xlink:href="#DejaVuSans-28"/>
      <use x="453.552734" xlink:href="#DejaVuSans-56"/>
      <use x="521.960938" xlink:href="#DejaVuSans-29"/>
     </g>
    </g>
   </g>
   <g id="line2d_27">
    <path clip-path="url(#p3b1ef72a2c)" d="M 73.832727 152.965807 
L 74.013005 137.14239 
L 74.195085 142.936881 
L 74.55564 131.013601 
L 74.73772 131.292182 
L 74.917998 108.504232 
L 75.45883 127.837774 
L 75.640911 123.43619 
L 76.003268 148.731372 
L 76.183546 148.341358 
L 76.545903 139.148175 
L 76.726181 155.695904 
L 76.906459 148.89852 
L 77.086736 149.567116 
L 77.268816 143.54976 
L 77.449094 147.784195 
L 77.629371 138.758161 
L 77.809649 135.582334 
L 78.532562 171.407889 
L 78.714642 173.246526 
L 78.89492 183.108304 
L 79.257277 224.505485 
L 79.439357 200.826075 
L 79.801716 193.694393 
L 80.164073 157.311676 
L 80.346153 155.473039 
L 80.526431 137.14239 
L 80.710314 142.212569 
L 81.074475 112.40437 
L 81.254752 115.524481 
L 81.79919 140.763947 
L 81.98127 135.192321 
L 82.161548 138.92531 
L 83.066541 201.160372 
L 83.246818 219.769603 
L 83.427096 225.61981 
L 83.967928 188.178484 
L 84.148206 201.104656 
L 84.328484 201.9404 
L 84.510564 207.289161 
L 84.692644 217.206655 
L 85.056804 211.412164 
L 85.237082 202.553279 
L 85.417359 180.266775 
L 85.59944 176.589502 
L 85.78152 178.595287 
L 85.961798 176.812367 
L 86.325958 155.417323 
L 86.506236 164.220492 
L 86.688316 159.540326 
L 86.868594 166.727724 
L 87.413032 134.245144 
L 87.593309 136.028064 
L 87.955667 127.614909 
L 88.135944 133.242251 
L 88.318025 131.62648 
L 88.500105 136.975241 
L 89.22482 200.101763 
L 89.405098 197.594532 
L 89.587178 184.445494 
L 89.767456 181.158235 
L 90.311894 163.217599 
L 90.493974 178.539571 
L 90.674252 178.595287 
L 91.034806 199.934614 
L 91.215084 196.368774 
L 91.395361 188.2342 
L 91.575639 193.638677 
L 91.755917 190.852864 
L 91.936194 185.281238 
L 92.116472 186.674145 
L 92.296749 201.717535 
L 92.477027 197.928829 
L 92.659107 198.374559 
L 92.839385 195.198732 
L 93.021465 200.937507 
L 93.74618 239.883173 
L 94.108539 249.466369 
L 94.290618 267.797019 
L 94.652976 228.349907 
L 94.835056 222.889713 
L 95.015334 222.165402 
L 95.375889 228.127042 
L 95.557969 233.754384 
L 95.740049 229.241367 
L 95.920327 220.326766 
L 96.102407 223.948322 
L 96.282685 233.587235 
L 96.645043 216.370911 
L 96.82532 217.262371 
L 97.0074 217.095222 
L 97.187678 181.882546 
L 97.550036 188.512781 
L 97.732116 182.606858 
L 97.912393 187.119875 
L 98.092671 204.837645 
L 98.274751 208.124905 
L 98.455029 203.389023 
L 98.635306 203.110441 
L 98.815584 198.318843 
L 98.995861 196.758788 
L 99.176138 217.708101 
L 99.536694 186.395563 
L 99.716971 226.121257 
L 99.897249 223.781174 
L 100.077526 242.167539 
L 100.257804 239.270294 
L 100.438081 201.9404 
L 100.618359 203.221874 
L 100.798636 188.958511 
L 100.980717 188.178484 
L 101.160994 190.01712 
L 101.343074 201.04894 
L 101.523352 200.937507 
L 101.705432 188.847079 
L 101.885709 187.454172 
L 102.065987 191.967189 
L 102.610425 156.141634 
L 102.972783 158.091703 
L 103.154863 144.608368 
L 103.336943 157.868838 
L 103.517221 143.159746 
L 103.879579 149.399967 
L 104.061659 141.488258 
L 104.243739 142.546867 
L 104.424017 135.192321 
L 104.606097 141.209677 
L 104.966652 164.387641 
L 105.148733 167.173454 
L 105.330813 160.041772 
L 105.875251 175.140879 
L 106.057331 174.193702 
L 106.237609 174.193702 
L 106.599967 188.457065 
L 106.782047 199.767466 
L 106.962324 200.881791 
L 107.144404 200.380345 
L 107.324682 204.503348 
L 107.685237 201.606102 
L 107.865514 197.984545 
L 108.045792 211.356448 
L 108.226069 211.412164 
L 108.406347 206.007687 
L 108.586624 206.063403 
L 108.766902 211.635029 
L 108.947179 209.907825 
L 109.127457 204.893362 
L 109.488012 175.196595 
L 109.66829 157.144527 
L 109.848567 177.369529 
L 110.028844 179.876761 
L 110.389399 191.242878 
L 110.569677 180.322491 
L 110.749954 177.648111 
L 110.930232 196.647355 
L 111.110509 199.154587 
L 111.290787 190.295702 
L 111.653145 219.546738 
L 111.833423 222.611132 
L 112.015503 220.326766 
L 112.197583 225.564094 
L 112.37786 226.566987 
L 112.55994 223.279727 
L 112.920496 213.529382 
L 113.100773 219.045292 
L 113.281051 207.512026 
L 113.461328 209.907825 
L 113.641606 205.450524 
L 113.821883 213.195084 
L 114.00216 227.179865 
L 114.364519 207.344877 
L 114.544796 201.104656 
L 114.726876 199.377452 
L 114.908957 205.673389 
L 115.091037 187.844186 
L 115.271314 201.717535 
L 115.451592 190.072836 
L 115.631869 205.227659 
L 115.812147 193.30438 
L 115.994227 190.351418 
L 116.356585 204.726213 
L 116.538665 188.289916 
L 116.718943 187.621321 
L 116.901023 185.838401 
L 117.0813 195.588746 
L 117.263381 166.393426 
L 117.443659 195.477314 
L 117.625739 190.852864 
L 117.807819 198.820289 
L 118.170176 203.667604 
L 118.350454 215.368018 
L 118.530731 216.593776 
L 118.711009 209.127797 
L 119.251842 249.132072 
L 119.432119 227.235582 
L 119.612396 228.294191 
L 119.792674 226.06554 
L 119.972951 220.549631 
L 120.153229 226.51127 
L 120.333506 212.860787 
L 120.513784 213.752247 
L 120.694062 203.110441 
L 121.05642 216.593776 
L 121.2385 217.930966 
L 121.418777 212.693638 
L 121.600857 236.373048 
L 121.781135 227.959893 
L 121.961413 231.191436 
L 122.32377 211.857894 
L 122.684325 227.681312 
L 122.864603 234.032965 
L 123.04488 215.590883 
L 123.225158 217.262371 
L 123.405435 237.041643 
L 123.76599 211.690745 
L 123.946268 223.725457 
L 124.126545 221.273942 
L 124.306823 220.995361 
L 124.4871 228.572772 
L 124.667378 218.655278 
L 125.027933 190.797148 
L 125.20821 202.107549 
L 125.388487 220.939644 
L 125.568765 222.833997 
L 125.931123 241.276079 
L 126.113203 242.446121 
L 126.293481 262.225393 
L 126.475561 262.002528 
L 126.655838 279.163136 
L 127.198474 230.355692 
L 127.378751 247.404868 
L 127.739306 243.727595 
L 127.921387 232.02718 
L 128.103467 227.904177 
L 128.285547 208.626351 
L 128.465825 208.7935 
L 128.828183 183.944048 
L 129.012066 171.909336 
L 129.192343 179.988193 
L 129.372621 167.953481 
L 129.552898 182.71829 
L 129.915256 154.525863 
L 130.095533 158.816015 
L 130.456088 176.923799 
L 130.636366 171.017876 
L 130.998724 181.715398 
L 131.180804 179.041017 
L 131.362884 162.60472 
L 131.544965 160.041772 
L 131.727045 145.388396 
L 132.0876 159.596042 
L 132.267877 174.137986 
L 132.448155 177.536678 
L 132.80871 166.226277 
L 132.99079 155.75162 
L 133.171068 154.302998 
L 133.353148 143.494043 
L 133.535228 152.965807 
L 133.897586 148.619939 
L 134.258141 127.614909 
L 134.438419 124.049069 
L 134.618696 123.714771 
L 134.979251 113.908709 
L 135.159528 128.784951 
L 135.339806 127.392044 
L 135.520083 123.213325 
L 135.700361 87.610635 
L 135.880639 94.463735 
L 136.060916 90.897894 
L 136.605354 102.542592 
L 136.969514 134.858023 
L 137.149792 121.931851 
L 137.330069 129.509262 
L 137.51215 125.441975 
L 137.69423 125.21911 
L 138.418946 169.179239 
L 138.599223 166.894872 
L 138.959778 204.391915 
L 139.320333 181.436816 
L 139.500611 197.538815 
L 139.680888 198.541708 
L 139.864771 188.457065 
L 140.045049 197.705964 
L 140.227129 175.308028 
L 140.587684 207.066296 
L 140.767962 208.904932 
L 140.948239 200.547493 
L 141.130319 200.881791 
L 141.310597 198.708857 
L 141.490874 198.65314 
L 141.851429 167.563468 
L 142.031707 167.619184 
L 142.211984 167.284886 
L 142.392262 162.939018 
L 142.9367 137.420971 
L 143.116978 140.206784 
L 143.297255 139.649621 
L 143.841693 106.609879 
L 144.021971 109.339976 
L 144.204051 127.169179 
L 144.386131 132.629373 
L 144.928767 172.577931 
L 145.110846 177.20238 
L 145.291124 169.123523 
L 145.653482 166.226277 
L 145.835562 177.870976 
L 146.01584 178.260989 
L 146.196117 167.6749 
L 146.378197 166.560575 
L 146.924439 188.178484 
L 147.286796 214.532275 
L 147.467074 211.077866 
L 147.649154 232.250045 
L 147.829431 234.478696 
L 148.189986 223.558309 
L 148.370264 209.907825 
L 148.552344 205.450524 
L 148.732622 214.699423 
L 148.914702 211.690745 
L 149.639418 182.328276 
L 149.819695 182.495425 
L 149.999973 182.941155 
L 150.18025 173.580824 
L 150.540805 192.468636 
L 150.721082 174.193702 
L 150.90136 182.71829 
L 151.261915 169.624969 
L 151.442193 198.374559 
L 151.624273 173.692256 
L 151.806353 196.758788 
L 151.988433 196.368774 
L 152.168711 163.05045 
L 152.350791 160.264637 
L 152.531069 163.886194 
L 152.891624 136.195213 
L 153.071901 124.884813 
L 153.252179 125.609124 
L 153.432456 137.699552 
L 153.612734 134.858023 
L 153.973289 158.14742 
L 154.155369 152.241496 
L 154.335647 181.325384 
L 154.517727 190.964297 
L 154.698004 193.30438 
L 154.878282 166.504859 
L 155.060362 162.549004 
L 155.24064 162.437572 
L 155.42272 156.754513 
L 155.602998 157.033094 
L 155.965355 176.923799 
L 156.147436 170.572146 
L 156.327713 187.34274 
L 156.507991 193.360096 
L 156.690071 193.694393 
L 156.870348 203.890469 
L 157.050626 195.198732 
L 157.230903 192.412919 
L 157.593261 169.067807 
L 157.773539 181.102519 
L 157.953816 169.624969 
L 158.135896 167.842049 
L 158.498254 186.618428 
L 158.860612 196.201625 
L 159.04089 201.104656 
L 159.22297 184.724076 
L 159.403247 186.061266 
L 159.583525 195.254449 
L 159.765605 185.782684 
L 160.127963 221.218226 
L 160.30824 220.661063 
L 160.668795 196.368774 
L 160.850876 205.673389 
L 161.211431 192.524352 
L 161.393511 171.742187 
L 161.754066 193.471528 
L 161.934343 170.293564 
L 162.307518 154.024416 
L 162.487795 175.809474 
L 162.669875 177.648111 
L 163.034036 189.181376 
L 163.578474 139.983919 
L 163.758752 141.098244 
L 163.939029 132.51794 
L 164.119307 138.869594 
L 164.299584 132.016494 
L 164.479861 144.831234 
L 164.660139 134.468009 
L 165.200972 91.622205 
L 165.381249 100.481091 
L 165.561527 87.8335 
L 165.922082 100.982537 
L 166.104162 109.172827 
L 166.286243 108.448516 
L 166.468323 120.706093 
L 166.828878 110.565734 
L 167.010958 119.591768 
L 167.191235 100.035361 
L 167.553594 119.090322 
L 167.915951 111.95864 
L 168.278309 138.200999 
L 168.458586 125.497691 
L 168.640666 122.154716 
L 168.820944 112.515803 
L 169.001221 115.635913 
L 169.181499 107.891353 
L 169.361777 110.008571 
L 169.722331 84.434808 
L 169.902609 81.370414 
L 170.082886 75.130193 
L 170.263164 79.866075 
L 170.623719 100.592523 
L 170.803997 99.756779 
L 170.984274 101.372551 
L 171.164552 112.682952 
L 171.346632 112.237222 
L 171.52691 102.598309 
L 171.70899 100.369658 
L 171.896479 124.661947 
L 172.078558 130.790736 
L 172.258836 150.124278 
L 172.439114 139.315324 
L 172.621194 151.907199 
L 172.803274 155.250174 
L 172.985354 170.237848 
L 173.345909 179.15245 
L 173.526187 176.088055 
L 174.068822 123.714771 
L 174.252705 120.817526 
L 174.434786 116.025927 
L 174.616866 107.167042 
L 174.797143 92.457949 
L 175.159501 118.588875 
L 175.339779 123.213325 
L 175.521859 166.226277 
L 175.886019 122.433297 
L 176.246574 130.28929 
L 176.428654 149.845697 
L 176.97129 109.841422 
L 177.15337 145.276964 
L 177.333648 146.502721 
L 177.513925 91.287908 
L 177.694203 78.640317 
L 178.058363 117.864564 
L 178.238641 121.541837 
L 178.418918 128.060639 
L 178.792093 153.52297 
L 178.974173 151.851482 
L 179.156254 151.684333 
L 179.698889 164.889087 
L 179.879166 150.904306 
L 180.061246 156.420216 
L 180.241524 153.300105 
L 180.603881 121.653269 
L 180.784159 130.790736 
L 180.964436 127.280612 
L 181.144714 144.719801 
L 181.505269 124.884813 
L 181.685547 138.92531 
L 181.865824 137.420971 
L 182.046102 113.574412 
L 182.226379 107.724205 
L 182.40846 124.104785 
L 183.134978 72.400096 
L 183.315255 77.525992 
L 183.497336 93.516558 
L 183.677614 73.068691 
L 183.859694 88.557811 
L 184.041773 67.775646 
L 184.222051 79.308912 
L 184.764686 66.38274 
L 185.125241 91.956503 
L 185.305519 100.369658 
L 185.485797 93.739423 
L 185.666074 106.498447 
L 185.846351 93.460842 
L 186.026629 97.026683 
L 186.387184 113.29583 
L 186.567461 136.863808 
L 186.747739 139.649621 
L 186.928016 135.693767 
L 187.108294 136.808092 
L 187.288572 138.646729 
L 187.468849 138.03385 
L 187.649126 137.978134 
L 188.011484 156.977378 
L 188.193565 147.1156 
L 188.375645 149.232818 
L 188.555923 149.734264 
L 189.280638 103.155471 
L 189.823274 90.173583 
L 190.005353 75.01876 
L 190.185631 83.376199 
L 190.365909 70.728608 
L 190.728266 85.604849 
L 190.908544 83.710497 
L 191.088821 80.590386 
L 191.269099 80.478953 
L 191.449376 82.874753 
L 191.629654 98.363873 
L 191.809931 100.202509 
L 192.170486 129.39783 
L 192.532844 120.483228 
L 192.714924 119.758917 
L 192.895202 117.697415 
L 193.077282 122.154716 
L 193.257559 116.917387 
L 193.437837 127.837774 
L 193.619917 116.917387 
L 193.800195 117.585982 
L 193.980472 113.574412 
L 194.16075 118.031713 
L 194.341027 118.978889 
L 194.521305 126.779165 
L 194.701582 125.330543 
L 194.883663 127.113463 
L 195.065743 139.928203 
L 195.247823 137.420971 
L 195.428101 130.623587 
L 195.608378 130.957885 
L 195.790458 128.283504 
L 196.151013 104.604094 
L 196.331291 112.40437 
L 196.511569 111.401478 
L 196.872124 94.798032 
L 197.052401 103.266904 
L 197.232678 100.369658 
L 197.412956 102.932606 
L 197.593233 92.123652 
L 197.773511 102.542592 
L 197.953788 123.770487 
L 198.314344 110.342869 
L 198.674899 84.991971 
L 198.855176 83.153334 
L 199.037257 76.968829 
L 199.219337 99.478198 
L 199.401417 106.721312 
L 199.581695 118.533159 
L 199.763775 116.193076 
L 200.126133 143.605476 
L 200.48849 131.682196 
L 200.668768 157.757406 
L 200.849046 139.203891 
L 201.029323 149.957129 
L 201.209601 125.887705 
L 201.391681 120.761809 
L 201.571958 140.373933 
L 201.752236 145.109815 
L 202.112791 118.198861 
L 202.294871 113.908709 
L 202.475149 123.324757 
L 202.657229 123.547622 
L 202.839309 108.337083 
L 203.019587 109.28426 
L 203.564024 136.808092 
L 203.744302 170.460713 
L 203.926383 162.883302 
L 204.10666 165.557682 
L 204.286938 163.05045 
L 204.649295 178.038124 
L 204.831375 174.583716 
L 205.011653 154.748728 
L 205.193733 155.640188 
L 205.37401 159.596042 
L 205.554288 157.478825 
L 205.734566 135.192321 
L 205.916646 127.00203 
L 206.098726 142.435434 
L 206.279004 144.162638 
L 206.459281 152.798659 
L 206.641361 150.792873 
L 206.821639 145.499829 
L 207.003719 146.66987 
L 207.183997 157.144527 
L 207.724829 103.935499 
L 207.90691 120.984674 
L 208.269267 109.507125 
L 208.449545 124.550515 
L 208.631625 107.334191 
L 208.813705 107.055609 
L 209.17426 133.85513 
L 209.534815 153.132956 
L 209.89537 189.849971 
L 210.075648 203.779036 
L 210.436203 178.149557 
L 210.796758 190.741432 
L 210.977035 180.433924 
L 211.157313 188.958511 
L 211.33759 190.295702 
L 211.517868 206.174836 
L 211.698145 201.438953 
L 211.880226 223.056862 
L 212.060504 218.710994 
L 212.242584 249.410653 
L 212.422861 240.496052 
L 212.604941 214.810856 
L 212.787021 207.177728 
L 212.967299 213.139368 
L 213.508132 172.800796 
L 213.688409 186.00555 
L 213.868687 169.624969 
L 214.048964 168.287779 
L 214.229242 163.496181 
L 214.409519 185.002657 
L 214.589796 182.216844 
L 214.770074 192.970082 
L 214.950351 214.587991 
L 215.310907 206.509133 
L 215.491184 162.660437 
L 215.671462 159.03888 
L 216.032017 169.792118 
L 216.212294 167.006305 
L 216.392571 177.703827 
L 216.572849 180.211058 
L 216.753127 200.826075 
L 216.933404 203.556171 
L 217.293959 179.096733 
L 217.474237 201.438953 
L 217.654514 187.454172 
L 217.834792 182.439709 
L 218.015069 207.679175 
L 218.375624 173.525107 
L 218.555902 172.577931 
L 218.736179 174.472284 
L 218.916457 196.257341 
L 219.096734 199.934614 
L 219.277012 191.131445 
L 219.637567 203.667604 
L 219.817844 188.512781 
L 219.998122 184.166913 
L 220.722837 217.540953 
L 220.903115 216.09233 
L 221.085195 195.254449 
L 221.267275 192.691501 
L 221.629633 183.052588 
L 221.991991 194.585854 
L 222.536429 226.901284 
L 222.716707 225.61981 
L 223.079065 232.138613 
L 223.261145 228.90707 
L 223.623502 259.941026 
L 223.80378 255.037995 
L 223.984057 260.442473 
L 224.166137 245.900529 
L 224.346415 205.50624 
L 224.526693 196.034476 
L 224.70697 204.16905 
L 225.069328 231.692883 
L 225.431686 228.294191 
L 225.611964 218.76671 
L 226.154599 257.65666 
L 226.336679 295.488 
L 226.516956 245.343366 
L 226.699037 249.633518 
L 226.879315 249.466369 
L 227.243474 221.385374 
L 227.605832 223.056862 
L 227.78611 222.221118 
L 228.146665 241.610377 
L 228.326942 238.044536 
L 228.50722 239.158861 
L 228.687498 224.672634 
L 228.867775 226.009824 
L 229.048052 194.920151 
L 229.22833 186.284131 
L 229.408607 186.284131 
L 229.588885 181.213951 
L 229.769162 191.410027 
L 229.94944 195.143016 
L 230.129717 214.476558 
L 230.309995 209.907825 
L 230.67055 179.431031 
L 230.850827 166.059129 
L 231.031105 164.276208 
L 231.39166 186.729861 
L 231.571937 159.651759 
L 231.752215 152.130064 
L 231.932492 164.944803 
L 232.114573 156.085918 
L 232.294851 161.71326 
L 232.476931 150.904306 
L 232.657208 157.645973 
L 233.199843 201.606102 
L 233.381923 195.644462 
L 233.562201 197.817397 
L 233.742479 189.181376 
L 233.922756 205.673389 
L 234.103034 200.826075 
L 234.465392 225.508378 
L 234.647472 204.61478 
L 234.82775 197.260234 
L 235.370385 213.362233 
L 235.552465 214.532275 
L 235.732742 219.825319 
L 235.91302 232.250045 
L 236.273575 235.147291 
L 236.455655 230.745706 
L 236.635933 214.142261 
L 236.818013 215.089437 
L 236.998291 213.919396 
L 237.180371 199.711749 
L 237.360648 195.477314 
L 237.540926 176.75665 
L 237.723006 188.178484 
L 238.085364 195.421597 
L 238.265642 203.611888 
L 238.447722 195.811611 
L 238.627999 194.362988 
L 238.808277 195.53303 
L 238.990357 198.597424 
L 239.350912 171.185024 
L 239.53119 170.627862 
L 239.71327 179.263882 
L 239.89535 180.099626 
L 240.075628 178.428138 
L 240.257708 179.375315 
L 240.437985 192.412919 
L 240.620065 174.639433 
L 240.800343 170.739294 
L 240.982423 171.129308 
L 241.1627 183.16402 
L 241.525059 144.664085 
L 241.705336 144.496936 
L 241.887416 140.819663 
L 242.067694 149.177102 
L 242.249774 163.440464 
L 242.610329 146.781303 
L 242.792409 154.470146 
L 242.972687 171.240741 
L 243.152964 172.967945 
L 243.333242 165.00052 
L 243.513519 183.386885 
L 243.693797 180.266775 
L 244.234629 191.744324 
L 244.414907 186.785577 
L 244.595184 197.427383 
L 244.775462 199.711749 
L 244.955739 216.872357 
L 245.136017 216.259479 
L 245.316294 222.221118 
L 245.857127 155.194458 
L 246.217682 149.121386 
L 246.397959 142.379718 
L 246.578237 141.15396 
L 246.938792 163.663329 
L 247.119069 153.9687 
L 247.30115 154.470146 
L 247.48323 135.582334 
L 247.66531 143.215462 
L 247.845588 136.362362 
L 248.027668 142.379718 
L 248.207945 139.81677 
L 248.388223 140.2625 
L 248.5685 142.825448 
L 248.748778 147.394181 
L 248.929055 136.083781 
L 249.109333 131.905061 
L 249.289611 133.465117 
L 249.650166 130.73502 
L 249.830443 130.400722 
L 250.01072 130.902169 
L 250.190998 137.532404 
L 250.553356 105.439838 
L 250.735436 108.894246 
L 251.097794 126.612017 
L 251.279874 130.400722 
L 251.82251 156.810229 
L 252.184868 130.623587 
L 252.366948 133.799414 
L 252.729305 170.126415 
L 252.909583 171.240741 
L 253.08986 169.90355 
L 253.452219 181.603965 
L 253.816379 210.632136 
L 254.176934 205.171943 
L 254.357211 225.452661 
L 255.260402 162.60472 
L 255.440679 160.041772 
L 255.620956 165.111952 
L 255.801234 145.109815 
L 255.981511 147.449898 
L 256.342066 114.633021 
L 256.522344 102.988322 
L 256.702622 104.65981 
L 256.882899 121.931851 
L 257.063177 114.075858 
L 257.24706 118.198861 
L 257.427337 116.527374 
L 257.789695 110.287152 
L 258.152052 80.256088 
L 258.512608 114.187291 
L 259.05344 170.349281 
L 259.413995 193.638677 
L 259.594272 194.975867 
L 260.135105 165.669115 
L 260.49566 181.158235 
L 260.675938 171.519322 
L 260.856215 186.89701 
L 261.036493 163.886194 
L 261.218573 156.921662 
L 261.398851 171.686471 
L 261.580931 173.19081 
L 261.763011 163.607613 
L 261.943289 165.947696 
L 262.125369 151.071455 
L 262.305646 148.00706 
L 262.487727 173.915121 
L 262.668005 170.739294 
L 262.850085 164.944803 
L 263.394522 181.993979 
L 263.755077 152.074347 
L 263.935355 143.215462 
L 264.115632 147.505614 
L 264.29591 107.334191 
L 264.656465 124.606231 
L 264.836742 124.160501 
L 265.557852 154.693012 
L 265.73813 144.385503 
L 265.918407 153.132956 
L 266.100488 152.910091 
L 266.462846 126.834882 
L 266.643123 119.7032 
L 266.825203 129.954992 
L 267.005481 122.54473 
L 267.185758 125.609124 
L 267.367838 142.156853 
L 267.548116 126.277719 
L 267.728394 127.392044 
L 268.271029 171.017876 
L 268.451307 179.375315 
L 268.633387 169.45782 
L 268.813665 174.026554 
L 268.995745 167.396319 
L 269.176022 166.449142 
L 269.3563 147.672763 
L 269.53838 160.431786 
L 269.898935 148.619939 
L 270.081016 155.640188 
L 270.623651 133.130819 
L 270.805731 119.480335 
L 271.168088 135.805199 
L 271.348366 126.946314 
L 271.528643 132.183643 
L 271.710724 123.826204 
L 271.891002 136.083781 
L 272.61752 110.788599 
L 272.797797 110.287152 
L 273.158352 85.604849 
L 273.338629 91.900787 
L 273.518907 93.405126 
L 273.699185 84.54624 
L 273.881265 60.4211 
L 274.063345 53.568 
L 274.245425 54.515176 
L 274.425703 63.09548 
L 274.607783 77.581708 
L 274.788061 76.523099 
L 275.330696 115.190183 
L 275.693054 109.451409 
L 275.875134 121.374688 
L 276.055412 121.764702 
L 276.237492 121.207539 
L 276.417769 115.524481 
L 276.598047 113.630128 
L 276.778324 109.72999 
L 276.958602 117.195969 
L 277.140682 137.420971 
L 277.501237 119.758917 
L 277.683317 121.653269 
L 278.045675 135.470902 
L 278.225953 128.840667 
L 278.408033 142.992597 
L 278.58831 128.673518 
L 278.768588 125.943421 
L 278.948865 136.473795 
L 279.129143 135.582334 
L 279.311224 143.828341 
L 279.491501 170.293564 
L 279.673581 156.364499 
L 279.855661 170.182132 
L 280.035939 143.939773 
L 280.218019 149.344251 
L 280.398297 141.042528 
L 280.578574 151.29432 
L 280.758851 154.41443 
L 281.119406 175.140879 
L 281.299684 185.949833 
L 281.479962 183.60975 
L 281.840517 174.249419 
L 282.020794 179.041017 
L 282.201072 173.079377 
L 282.381349 162.493288 
L 282.561626 176.255204 
L 282.741904 174.026554 
L 282.922182 163.774762 
L 283.102459 168.789225 
L 283.282737 152.575794 
L 283.463014 153.857268 
L 283.643292 144.719801 
L 283.823569 154.804444 
L 284.003847 146.391289 
L 284.184124 152.63151 
L 284.364401 151.405752 
L 284.544679 144.44122 
L 284.72676 130.790736 
L 284.90884 129.676411 
L 285.09092 130.679304 
L 285.271198 148.731372 
L 285.453278 138.813877 
L 285.633555 140.039635 
L 286.174388 153.244389 
L 286.354665 155.695904 
L 286.534943 151.684333 
L 286.71522 161.880409 
L 286.895498 160.097489 
L 287.438134 145.165531 
L 287.802294 131.459331 
L 287.982571 121.931851 
L 288.164651 122.210432 
L 288.344929 104.492661 
L 288.527009 106.832744 
L 288.707287 117.92028 
L 288.889367 120.873242 
L 289.249922 141.933988 
L 289.432002 140.2625 
L 289.61228 150.737157 
L 289.79436 152.352929 
L 289.974637 146.781303 
L 290.154915 146.279856 
L 290.335192 146.335573 
L 290.51547 139.036743 
L 290.695748 146.948451 
L 290.876025 159.818907 
L 291.056303 150.904306 
L 291.416858 158.203136 
L 291.597135 156.921662 
L 291.95769 180.601072 
L 292.137967 182.551141 
L 292.318245 187.955619 
L 292.498523 187.844186 
L 292.6788 201.884684 
L 292.859078 195.254449 
L 293.039355 209.68496 
L 293.219633 206.954863 
L 293.401713 200.436061 
L 293.581991 202.776144 
L 293.764071 179.765328 
L 293.946151 174.695149 
L 294.126429 161.546111 
L 294.488786 177.035232 
L 294.849341 163.384748 
L 295.029619 158.258852 
L 295.209896 149.789981 
L 295.390174 148.842804 
L 295.572254 146.502721 
L 295.752532 153.745835 
L 295.934612 138.646729 
L 296.295167 169.569253 
L 296.477247 145.165531 
L 296.839605 154.915877 
L 297.019882 151.851482 
L 297.20016 137.810985 
L 297.384043 138.591012 
L 297.564321 158.871731 
L 297.746401 148.174209 
L 297.926679 106.999893 
L 298.108758 98.865319 
L 298.289036 112.348654 
L 298.469314 102.87689 
L 298.649591 102.375444 
L 298.829869 108.3928 
L 299.190424 122.711878 
L 299.372504 148.285642 
L 299.552782 157.144527 
L 299.733059 156.810229 
L 299.915139 154.525863 
L 300.095417 145.555545 
L 300.638052 159.763191 
L 300.820132 144.051206 
L 301.180687 174.639433 
L 301.362768 178.651003 
L 301.544848 178.985301 
L 301.735942 174.97373 
L 301.918022 175.363744 
L 302.100103 172.689363 
L 302.282183 172.967945 
L 302.462461 163.440464 
L 302.644541 164.220492 
L 302.824818 151.684333 
L 303.185373 161.991842 
L 303.365651 155.027309 
L 303.547731 152.408645 
L 303.729812 140.652514 
L 303.911892 138.03385 
L 304.092169 146.558438 
L 304.272447 146.001275 
L 304.454527 151.572901 
L 304.634804 149.567116 
L 304.816885 154.247281 
L 304.997163 150.792873 
L 305.361322 130.345006 
L 305.5416 131.292182 
L 305.903958 143.215462 
L 306.086038 141.59969 
L 306.450199 109.841422 
L 306.632279 118.310294 
L 306.812556 102.87689 
L 306.992834 109.785706 
L 307.356995 87.164905 
L 307.537272 97.918143 
L 307.719352 92.123652 
L 307.901432 79.141763 
L 308.08171 84.601957 
L 308.624346 60.476816 
L 309.166981 75.01876 
L 309.347258 78.194587 
L 309.529338 95.633776 
L 309.709616 96.02379 
L 309.891696 101.651132 
L 310.071973 102.598309 
L 310.432529 115.858778 
L 310.612806 103.266904 
L 310.793084 122.489013 
L 311.157244 113.072965 
L 311.339324 119.146038 
L 311.701682 141.265393 
L 312.06404 130.567871 
L 312.246121 133.4094 
L 312.428201 130.512155 
L 312.608478 130.345006 
L 312.788756 129.787843 
L 312.969033 133.186535 
L 313.691946 172.132201 
L 313.872223 177.703827 
L 314.052501 177.926692 
L 314.413056 187.844186 
L 314.773611 176.199488 
L 315.135969 188.345632 
L 315.316247 179.653896 
L 315.858882 228.349907 
L 316.22124 201.271805 
L 316.40332 203.221874 
L 316.583597 210.353555 
L 316.765678 193.471528 
L 316.945955 221.942537 
L 317.128035 194.362988 
L 317.310115 189.181376 
L 317.490393 195.143016 
L 317.672473 194.19584 
L 317.852751 199.377452 
L 318.034831 193.805826 
L 318.216911 193.805826 
L 318.397189 186.674145 
L 318.579269 191.521459 
L 318.759547 201.49467 
L 318.941627 182.049695 
L 319.302182 199.043154 
L 319.482459 203.556171 
L 319.662737 178.985301 
L 319.843014 177.425246 
L 320.023292 165.89198 
L 320.38565 168.064914 
L 320.56773 162.326139 
L 320.74981 143.828341 
L 320.930088 145.555545 
L 321.112168 141.432542 
L 321.292446 129.787843 
L 321.472723 129.732127 
L 321.653 147.56133 
L 321.833278 125.386259 
L 322.013555 137.866701 
L 322.217269 144.106922 
L 322.395744 155.640188 
L 322.576021 149.511399 
L 322.774327 151.962915 
L 323.134882 150.84859 
L 323.316962 152.018631 
L 323.49724 158.370285 
L 323.67932 151.405752 
L 323.859597 152.018631 
L 324.292263 167.563468 
L 324.472541 177.146664 
L 324.652818 174.695149 
L 325.013373 185.392671 
L 325.193651 181.715398 
L 325.373928 192.914366 
L 325.554206 194.19584 
L 325.734483 189.459958 
L 325.914761 189.57139 
L 326.095038 188.401349 
L 326.275316 189.905688 
L 326.455593 180.211058 
L 326.635871 163.161883 
L 326.817951 157.590257 
L 326.998229 160.710368 
L 327.364192 186.284131 
L 327.72655 210.910718 
L 327.90863 209.573527 
L 328.09071 207.010579 
L 328.270988 219.602454 
L 328.453068 208.7935 
L 328.819031 221.552523 
L 328.999309 221.831105 
L 329.179587 206.954863 
L 329.359864 221.329658 
L 329.540142 210.966434 
L 329.722222 213.027936 
L 329.902499 209.406379 
L 330.082777 209.406379 
L 330.263054 206.230552 
L 330.443332 205.450524 
L 330.80569 179.932477 
L 330.98777 179.709612 
L 331.16985 177.425246 
L 331.350128 178.260989 
L 331.892763 151.795766 
L 332.253318 130.846452 
L 332.433595 133.075103 
L 332.613873 126.444868 
L 332.79415 128.506369 
L 333.154705 122.266148 
L 333.336786 132.685089 
L 333.700946 159.094596 
L 334.243581 179.319598 
L 334.423859 183.776899 
L 334.604136 176.75665 
L 334.784414 178.929585 
L 335.144969 196.145909 
L 335.325246 193.861542 
L 335.505524 170.460713 
L 335.685802 161.657544 
L 335.866079 141.933988 
L 336.046356 162.047558 
L 336.226634 163.663329 
L 336.587189 141.042528 
L 336.767466 154.191565 
L 336.947744 137.643836 
L 337.128022 137.866701 
L 337.310102 143.661192 
L 337.492182 159.540326 
L 337.674262 189.794255 
L 337.85454 186.674145 
L 338.216898 190.797148 
L 338.397175 178.818152 
L 338.75773 202.664711 
L 338.938008 184.946941 
L 339.118285 191.298594 
L 339.300366 171.630754 
L 339.480643 174.918014 
L 339.660921 184.612643 
L 339.843001 186.284131 
L 340.205359 163.161883 
L 340.385636 165.44625 
L 340.926469 133.85513 
L 341.29063 116.415941 
L 341.47271 131.125034 
L 341.833265 109.72999 
L 342.195622 121.708986 
L 342.3759 137.866701 
L 342.556177 134.356577 
L 342.736455 133.186535 
L 342.916732 146.892735 
L 343.09701 139.983919 
L 343.277287 138.535296 
L 343.457565 138.758161 
L 343.637842 141.488258 
L 343.819922 136.473795 
L 344.0002 141.822556 
L 344.180477 141.321109 
L 344.360755 142.714016 
L 344.723113 170.126415 
L 344.905193 170.182132 
L 345.267551 178.149557 
L 345.449631 165.390533 
L 345.629909 161.768977 
L 345.810186 184.222629 
L 345.990463 178.205273 
L 346.351018 181.436816 
L 346.531296 180.991086 
L 346.711574 189.515674 
L 346.891851 208.124905 
L 347.072129 213.306517 
L 347.254209 200.993223 
L 347.434487 208.124905 
L 348.159202 172.187917 
L 348.33948 185.114089 
L 348.52156 176.533785 
L 348.701837 180.601072 
L 348.882115 174.026554 
L 349.064195 182.495425 
L 349.246276 182.829723 
L 349.608633 172.187917 
L 349.790713 169.569253 
L 349.970991 155.918769 
L 350.153071 167.897765 
L 350.335152 162.493288 
L 350.699312 142.491151 
L 351.06167 171.240741 
L 351.24375 164.944803 
L 351.42583 170.683578 
L 351.606108 181.436816 
L 351.968465 186.729861 
L 352.148743 180.04391 
L 352.330824 182.105411 
L 352.512904 180.823937 
L 352.875262 218.098115 
L 353.073567 208.682067 
L 353.255647 210.409271 
L 353.435925 210.799285 
L 353.97856 242.223256 
L 354.340917 221.886821 
L 354.521195 219.379589 
L 354.701472 223.168295 
L 354.88175 218.265264 
L 355.062028 230.68999 
L 355.242305 227.569879 
L 355.604663 210.687853 
L 355.786743 218.822427 
L 356.149101 196.480206 
L 356.331181 194.530137 
L 356.511458 185.559819 
L 356.691736 192.245771 
L 356.873817 190.01712 
L 357.055897 182.941155 
L 357.237977 196.758788 
L 357.418255 189.682823 
L 357.780613 164.889087 
L 357.962693 161.936125 
L 358.505328 171.463606 
L 358.685606 185.002657 
L 359.047963 180.879654 
L 359.228241 160.097489 
L 359.410321 171.240741 
L 359.590599 174.137986 
L 359.772679 180.266775 
L 359.952957 166.616291 
L 360.135037 175.140879 
L 360.317117 170.349281 
L 360.499197 172.243633 
L 360.679474 157.813122 
L 360.859752 153.132956 
L 361.220307 167.842049 
L 361.400585 156.810229 
L 361.582665 159.261745 
L 361.764745 171.909336 
L 362.125301 177.870976 
L 362.30738 173.19081 
L 362.487658 164.053343 
L 362.848213 170.906443 
L 363.028491 179.59818 
L 363.210571 179.096733 
L 363.390848 181.938263 
L 363.571126 189.57139 
L 363.753206 182.941155 
L 363.935287 172.020768 
L 364.117367 178.483854 
L 364.297644 189.627106 
L 364.479724 186.339847 
L 364.660002 188.067051 
L 364.842082 177.926692 
L 365.02236 182.105411 
L 365.747075 139.092459 
L 365.927353 140.206784 
L 366.109433 138.981026 
L 366.28971 157.813122 
L 366.469988 147.505614 
L 366.650265 145.77841 
L 366.830543 141.989704 
L 367.191098 174.695149 
L 367.553456 187.78847 
L 367.917616 158.760298 
L 368.097894 167.117737 
L 368.279974 182.774006 
L 368.460251 182.662574 
L 368.82261 173.970837 
L 369.002887 172.355066 
L 369.365245 197.76168 
L 369.727602 181.492532 
L 369.90788 183.776899 
L 370.08996 177.926692 
L 370.270238 185.392671 
L 370.450515 184.501211 
L 370.630793 170.627862 
L 370.81107 175.753758 
L 370.991348 185.002657 
L 371.171625 178.706719 
L 371.351903 196.090193 
L 371.53218 192.412919 
L 371.712458 207.177728 
L 371.892735 205.004794 
L 372.073013 194.530137 
L 372.25329 195.254449 
L 372.613845 181.325384 
L 373.154678 186.284131 
L 373.518839 188.178484 
L 373.700919 177.703827 
L 373.881196 159.93034 
L 374.436451 140.819663 
L 374.797006 132.51794 
L 374.977284 148.619939 
L 375.159364 154.358714 
L 375.339641 129.564978 
L 375.700196 131.403615 
L 375.880474 130.902169 
L 376.060751 129.509262 
L 376.242832 157.645973 
L 376.424912 153.411538 
L 376.78727 157.367392 
L 377.149627 178.651003 
L 377.329905 166.78344 
L 377.511986 167.284886 
L 377.694066 164.443357 
L 377.874343 181.325384 
L 378.054621 177.926692 
L 378.236701 176.868083 
L 378.418781 172.967945 
L 378.599058 160.8218 
L 378.779336 160.877516 
L 378.961417 164.610506 
L 379.143497 165.947696 
L 379.323774 160.933233 
L 379.505854 150.458576 
L 379.686132 160.487503 
L 379.868212 156.810229 
L 380.04849 177.648111 
L 380.228767 183.721183 
L 380.409044 184.334062 
L 380.589322 193.025798 
L 380.7696 191.465743 
L 380.949877 184.835508 
L 381.130155 188.512781 
L 381.310432 187.008442 
L 381.49071 180.48964 
L 381.670987 199.266019 
L 381.851265 203.779036 
L 382.033345 199.488884 
L 382.213623 200.993223 
L 382.3939 192.078622 
L 382.938338 207.790607 
L 383.118615 208.403486 
L 383.47917 198.597424 
L 383.659448 184.166913 
L 383.841528 181.548249 
L 384.021806 206.230552 
L 384.203886 212.080759 
L 384.385966 229.909962 
L 384.748324 219.435305 
L 384.928602 228.405623 
L 385.110682 225.954108 
L 385.29096 235.481588 
L 385.471237 233.141505 
L 385.651514 220.493914 
L 385.831792 240.440335 
L 386.012069 246.290543 
L 386.192347 245.454799 
L 386.736785 265.122638 
L 386.918865 255.539442 
L 387.099143 256.598051 
L 387.459698 245.900529 
L 387.822055 262.838272 
L 388.002333 264.899773 
L 388.184414 253.199359 
L 388.364691 256.319469 
L 388.546771 256.876632 
L 388.727049 246.791989 
L 388.909129 244.006176 
L 389.091209 257.322362 
L 389.453567 225.452661 
L 389.633845 233.754384 
L 389.815925 236.2059 
L 390.178283 217.262371 
L 390.720918 241.164647 
L 390.902999 255.483725 
L 391.085079 251.639304 
L 391.267159 259.88531 
L 391.449239 258.99385 
L 391.809794 251.24929 
L 391.990071 238.991713 
L 392.170349 244.451906 
L 392.350626 255.483725 
L 392.711182 261.946812 
L 393.253817 216.148046 
L 393.798255 187.175591 
L 393.978532 184.05548 
L 394.34089 203.946185 
L 394.521168 210.074974 
L 394.701445 208.960649 
L 394.881723 215.145153 
L 395.062 208.124905 
L 395.242278 212.247908 
L 395.422555 205.561957 
L 395.78311 213.585098 
L 395.963388 199.711749 
L 396.143665 204.057618 
L 396.323943 193.75011 
L 396.50422 200.15748 
L 396.684498 192.245771 
L 396.864775 194.362988 
L 397.045053 198.263127 
L 397.405607 155.250174 
L 397.766163 134.30086 
L 397.94644 131.905061 
L 398.126718 126.11057 
L 398.306995 127.00203 
L 398.487273 114.187291 
L 398.487273 114.187291 
" style="fill:none;stroke:#1f77b4;stroke-linecap:square;stroke-width:1.5;"/>
   </g>
   <g id="patch_3">
    <path d="M 57.6 307.584 
L 57.6 41.472 
" style="fill:none;stroke:#000000;stroke-linecap:square;stroke-linejoin:miter;stroke-width:0.8;"/>
   </g>
   <g id="patch_4">
    <path d="M 414.72 307.584 
L 414.72 41.472 
" style="fill:none;stroke:#000000;stroke-linecap:square;stroke-linejoin:miter;stroke-width:0.8;"/>
   </g>
   <g id="patch_5">
    <path d="M 57.6 307.584 
L 414.72 307.584 
" style="fill:none;stroke:#000000;stroke-linecap:square;stroke-linejoin:miter;stroke-width:0.8;"/>
   </g>
   <g id="patch_6">
    <path d="M 57.6 41.472 
L 414.72 41.472 
" style="fill:none;stroke:#000000;stroke-linecap:square;stroke-linejoin:miter;stroke-width:0.8;"/>
   </g>
   <g id="text_16">
    <!-- Voltage -->
    <g transform="translate(213.194063 35.472)scale(0.12 -0.12)">
     <use xlink:href="#DejaVuSans-56"/>
     <use x="68.298828" xlink:href="#DejaVuSans-6f"/>
     <use x="129.480469" xlink:href="#DejaVuSans-6c"/>
     <use x="157.263672" xlink:href="#DejaVuSans-74"/>
     <use x="196.472656" xlink:href="#DejaVuSans-61"/>
     <use x="257.751953" xlink:href="#DejaVuSans-67"/>
     <use x="321.228516" xlink:href="#DejaVuSans-65"/>
    </g>
   </g>
  </g>
 </g>
 <defs>
  <clipPath id="p3b1ef72a2c">
   <rect height="266.112" width="357.12" x="57.6" y="41.472"/>
  </clipPath>
 </defs>
</svg>
