<?xml version="1.0" encoding="utf-8" standalone="no"?>
<!DOCTYPE svg PUBLIC "-//W3C//DTD SVG 1.1//EN"
  "http://www.w3.org/Graphics/SVG/1.1/DTD/svg11.dtd">
<!-- Created with matplotlib (http://matplotlib.org/) -->
<svg height="345pt" version="1.1" viewBox="0 0 460 345" width="460pt" xmlns="http://www.w3.org/2000/svg" xmlns:xlink="http://www.w3.org/1999/xlink">
 <defs>
  <style type="text/css">
*{stroke-linecap:butt;stroke-linejoin:round;}
  </style>
 </defs>
 <g id="figure_1">
  <g id="patch_1">
   <path d="M 0 345.6 
L 460.8 345.6 
L 460.8 0 
L 0 0 
z
" style="fill:#ffffff;"/>
  </g>
  <g id="axes_1">
   <g id="patch_2">
    <path d="M 57.6 307.584 
L 414.72 307.584 
L 414.72 41.472 
L 57.6 41.472 
z
" style="fill:#ffffff;"/>
   </g>
   <g id="matplotlib.axis_1">
    <g id="xtick_1">
     <g id="line2d_1">
      <defs>
       <path d="M 0 0 
L 0 3.5 
" id="m33a6002f48" style="stroke:#000000;stroke-width:0.8;"/>
      </defs>
      <g>
       <use style="stroke:#000000;stroke-width:0.8;" x="73.832727" xlink:href="#m33a6002f48" y="307.584"/>
      </g>
     </g>
     <g id="text_1">
      <!-- 0 -->
      <defs>
       <path d="M 31.78125 66.40625 
Q 24.171875 66.40625 20.328125 58.90625 
Q 16.5 51.421875 16.5 36.375 
Q 16.5 21.390625 20.328125 13.890625 
Q 24.171875 6.390625 31.78125 6.390625 
Q 39.453125 6.390625 43.28125 13.890625 
Q 47.125 21.390625 47.125 36.375 
Q 47.125 51.421875 43.28125 58.90625 
Q 39.453125 66.40625 31.78125 66.40625 
z
M 31.78125 74.21875 
Q 44.046875 74.21875 50.515625 64.515625 
Q 56.984375 54.828125 56.984375 36.375 
Q 56.984375 17.96875 50.515625 8.265625 
Q 44.046875 -1.421875 31.78125 -1.421875 
Q 19.53125 -1.421875 13.0625 8.265625 
Q 6.59375 17.96875 6.59375 36.375 
Q 6.59375 54.828125 13.0625 64.515625 
Q 19.53125 74.21875 31.78125 74.21875 
z
" id="DejaVuSans-30"/>
      </defs>
      <g transform="translate(70.651477 322.182437)scale(0.1 -0.1)">
       <use xlink:href="#DejaVuSans-30"/>
      </g>
     </g>
    </g>
    <g id="xtick_2">
     <g id="line2d_2">
      <g>
       <use style="stroke:#000000;stroke-width:0.8;" x="127.901357" xlink:href="#m33a6002f48" y="307.584"/>
      </g>
     </g>
     <g id="text_2">
      <!-- 100 -->
      <defs>
       <path d="M 12.40625 8.296875 
L 28.515625 8.296875 
L 28.515625 63.921875 
L 10.984375 60.40625 
L 10.984375 69.390625 
L 28.421875 72.90625 
L 38.28125 72.90625 
L 38.28125 8.296875 
L 54.390625 8.296875 
L 54.390625 0 
L 12.40625 0 
z
" id="DejaVuSans-31"/>
      </defs>
      <g transform="translate(118.357607 322.182437)scale(0.1 -0.1)">
       <use xlink:href="#DejaVuSans-31"/>
       <use x="63.623047" xlink:href="#DejaVuSans-30"/>
       <use x="127.246094" xlink:href="#DejaVuSans-30"/>
      </g>
     </g>
    </g>
    <g id="xtick_3">
     <g id="line2d_3">
      <g>
       <use style="stroke:#000000;stroke-width:0.8;" x="181.969986" xlink:href="#m33a6002f48" y="307.584"/>
      </g>
     </g>
     <g id="text_3">
      <!-- 200 -->
      <defs>
       <path d="M 19.1875 8.296875 
L 53.609375 8.296875 
L 53.609375 0 
L 7.328125 0 
L 7.328125 8.296875 
Q 12.9375 14.109375 22.625 23.890625 
Q 32.328125 33.6875 34.8125 36.53125 
Q 39.546875 41.84375 41.421875 45.53125 
Q 43.3125 49.21875 43.3125 52.78125 
Q 43.3125 58.59375 39.234375 62.25 
Q 35.15625 65.921875 28.609375 65.921875 
Q 23.96875 65.921875 18.8125 64.3125 
Q 13.671875 62.703125 7.8125 59.421875 
L 7.8125 69.390625 
Q 13.765625 71.78125 18.9375 73 
Q 24.125 74.21875 28.421875 74.21875 
Q 39.75 74.21875 46.484375 68.546875 
Q 53.21875 62.890625 53.21875 53.421875 
Q 53.21875 48.921875 51.53125 44.890625 
Q 49.859375 40.875 45.40625 35.40625 
Q 44.1875 33.984375 37.640625 27.21875 
Q 31.109375 20.453125 19.1875 8.296875 
z
" id="DejaVuSans-32"/>
      </defs>
      <g transform="translate(172.426236 322.182437)scale(0.1 -0.1)">
       <use xlink:href="#DejaVuSans-32"/>
       <use x="63.623047" xlink:href="#DejaVuSans-30"/>
       <use x="127.246094" xlink:href="#DejaVuSans-30"/>
      </g>
     </g>
    </g>
    <g id="xtick_4">
     <g id="line2d_4">
      <g>
       <use style="stroke:#000000;stroke-width:0.8;" x="236.038616" xlink:href="#m33a6002f48" y="307.584"/>
      </g>
     </g>
     <g id="text_4">
      <!-- 300 -->
      <defs>
       <path d="M 40.578125 39.3125 
Q 47.65625 37.796875 51.625 33 
Q 55.609375 28.21875 55.609375 21.1875 
Q 55.609375 10.40625 48.1875 4.484375 
Q 40.765625 -1.421875 27.09375 -1.421875 
Q 22.515625 -1.421875 17.65625 -0.515625 
Q 12.796875 0.390625 7.625 2.203125 
L 7.625 11.71875 
Q 11.71875 9.328125 16.59375 8.109375 
Q 21.484375 6.890625 26.8125 6.890625 
Q 36.078125 6.890625 40.9375 10.546875 
Q 45.796875 14.203125 45.796875 21.1875 
Q 45.796875 27.640625 41.28125 31.265625 
Q 36.765625 34.90625 28.71875 34.90625 
L 20.21875 34.90625 
L 20.21875 43.015625 
L 29.109375 43.015625 
Q 36.375 43.015625 40.234375 45.921875 
Q 44.09375 48.828125 44.09375 54.296875 
Q 44.09375 59.90625 40.109375 62.90625 
Q 36.140625 65.921875 28.71875 65.921875 
Q 24.65625 65.921875 20.015625 65.03125 
Q 15.375 64.15625 9.8125 62.3125 
L 9.8125 71.09375 
Q 15.4375 72.65625 20.34375 73.4375 
Q 25.25 74.21875 29.59375 74.21875 
Q 40.828125 74.21875 47.359375 69.109375 
Q 53.90625 64.015625 53.90625 55.328125 
Q 53.90625 49.265625 50.4375 45.09375 
Q 46.96875 40.921875 40.578125 39.3125 
z
" id="DejaVuSans-33"/>
      </defs>
      <g transform="translate(226.494866 322.182437)scale(0.1 -0.1)">
       <use xlink:href="#DejaVuSans-33"/>
       <use x="63.623047" xlink:href="#DejaVuSans-30"/>
       <use x="127.246094" xlink:href="#DejaVuSans-30"/>
      </g>
     </g>
    </g>
    <g id="xtick_5">
     <g id="line2d_5">
      <g>
       <use style="stroke:#000000;stroke-width:0.8;" x="290.107245" xlink:href="#m33a6002f48" y="307.584"/>
      </g>
     </g>
     <g id="text_5">
      <!-- 400 -->
      <defs>
       <path d="M 37.796875 64.3125 
L 12.890625 25.390625 
L 37.796875 25.390625 
z
M 35.203125 72.90625 
L 47.609375 72.90625 
L 47.609375 25.390625 
L 58.015625 25.390625 
L 58.015625 17.1875 
L 47.609375 17.1875 
L 47.609375 0 
L 37.796875 0 
L 37.796875 17.1875 
L 4.890625 17.1875 
L 4.890625 26.703125 
z
" id="DejaVuSans-34"/>
      </defs>
      <g transform="translate(280.563495 322.182437)scale(0.1 -0.1)">
       <use xlink:href="#DejaVuSans-34"/>
       <use x="63.623047" xlink:href="#DejaVuSans-30"/>
       <use x="127.246094" xlink:href="#DejaVuSans-30"/>
      </g>
     </g>
    </g>
    <g id="xtick_6">
     <g id="line2d_6">
      <g>
       <use style="stroke:#000000;stroke-width:0.8;" x="344.175875" xlink:href="#m33a6002f48" y="307.584"/>
      </g>
     </g>
     <g id="text_6">
      <!-- 500 -->
      <defs>
       <path d="M 10.796875 72.90625 
L 49.515625 72.90625 
L 49.515625 64.59375 
L 19.828125 64.59375 
L 19.828125 46.734375 
Q 21.96875 47.46875 24.109375 47.828125 
Q 26.265625 48.1875 28.421875 48.1875 
Q 40.625 48.1875 47.75 41.5 
Q 54.890625 34.8125 54.890625 23.390625 
Q 54.890625 11.625 47.5625 5.09375 
Q 40.234375 -1.421875 26.90625 -1.421875 
Q 22.3125 -1.421875 17.546875 -0.640625 
Q 12.796875 0.140625 7.71875 1.703125 
L 7.71875 11.625 
Q 12.109375 9.234375 16.796875 8.0625 
Q 21.484375 6.890625 26.703125 6.890625 
Q 35.15625 6.890625 40.078125 11.328125 
Q 45.015625 15.765625 45.015625 23.390625 
Q 45.015625 31 40.078125 35.4375 
Q 35.15625 39.890625 26.703125 39.890625 
Q 22.75 39.890625 18.8125 39.015625 
Q 14.890625 38.140625 10.796875 36.28125 
z
" id="DejaVuSans-35"/>
      </defs>
      <g transform="translate(334.632125 322.182437)scale(0.1 -0.1)">
       <use xlink:href="#DejaVuSans-35"/>
       <use x="63.623047" xlink:href="#DejaVuSans-30"/>
       <use x="127.246094" xlink:href="#DejaVuSans-30"/>
      </g>
     </g>
    </g>
    <g id="xtick_7">
     <g id="line2d_7">
      <g>
       <use style="stroke:#000000;stroke-width:0.8;" x="398.244505" xlink:href="#m33a6002f48" y="307.584"/>
      </g>
     </g>
     <g id="text_7">
      <!-- 600 -->
      <defs>
       <path d="M 33.015625 40.375 
Q 26.375 40.375 22.484375 35.828125 
Q 18.609375 31.296875 18.609375 23.390625 
Q 18.609375 15.53125 22.484375 10.953125 
Q 26.375 6.390625 33.015625 6.390625 
Q 39.65625 6.390625 43.53125 10.953125 
Q 47.40625 15.53125 47.40625 23.390625 
Q 47.40625 31.296875 43.53125 35.828125 
Q 39.65625 40.375 33.015625 40.375 
z
M 52.59375 71.296875 
L 52.59375 62.3125 
Q 48.875 64.0625 45.09375 64.984375 
Q 41.3125 65.921875 37.59375 65.921875 
Q 27.828125 65.921875 22.671875 59.328125 
Q 17.53125 52.734375 16.796875 39.40625 
Q 19.671875 43.65625 24.015625 45.921875 
Q 28.375 48.1875 33.59375 48.1875 
Q 44.578125 48.1875 50.953125 41.515625 
Q 57.328125 34.859375 57.328125 23.390625 
Q 57.328125 12.15625 50.6875 5.359375 
Q 44.046875 -1.421875 33.015625 -1.421875 
Q 20.359375 -1.421875 13.671875 8.265625 
Q 6.984375 17.96875 6.984375 36.375 
Q 6.984375 53.65625 15.1875 63.9375 
Q 23.390625 74.21875 37.203125 74.21875 
Q 40.921875 74.21875 44.703125 73.484375 
Q 48.484375 72.75 52.59375 71.296875 
z
" id="DejaVuSans-36"/>
      </defs>
      <g transform="translate(388.700755 322.182437)scale(0.1 -0.1)">
       <use xlink:href="#DejaVuSans-36"/>
       <use x="63.623047" xlink:href="#DejaVuSans-30"/>
       <use x="127.246094" xlink:href="#DejaVuSans-30"/>
      </g>
     </g>
    </g>
    <g id="text_8">
     <!-- t(s) -->
     <defs>
      <path d="M 18.3125 70.21875 
L 18.3125 54.6875 
L 36.8125 54.6875 
L 36.8125 47.703125 
L 18.3125 47.703125 
L 18.3125 18.015625 
Q 18.3125 11.328125 20.140625 9.421875 
Q 21.96875 7.515625 27.59375 7.515625 
L 36.8125 7.515625 
L 36.8125 0 
L 27.59375 0 
Q 17.1875 0 13.234375 3.875 
Q 9.28125 7.765625 9.28125 18.015625 
L 9.28125 47.703125 
L 2.6875 47.703125 
L 2.6875 54.6875 
L 9.28125 54.6875 
L 9.28125 70.21875 
z
" id="DejaVuSans-74"/>
      <path d="M 31 75.875 
Q 24.46875 64.65625 21.28125 53.65625 
Q 18.109375 42.671875 18.109375 31.390625 
Q 18.109375 20.125 21.3125 9.0625 
Q 24.515625 -2 31 -13.1875 
L 23.1875 -13.1875 
Q 15.875 -1.703125 12.234375 9.375 
Q 8.59375 20.453125 8.59375 31.390625 
Q 8.59375 42.28125 12.203125 53.3125 
Q 15.828125 64.359375 23.1875 75.875 
z
" id="DejaVuSans-28"/>
      <path d="M 44.28125 53.078125 
L 44.28125 44.578125 
Q 40.484375 46.53125 36.375 47.5 
Q 32.28125 48.484375 27.875 48.484375 
Q 21.1875 48.484375 17.84375 46.4375 
Q 14.5 44.390625 14.5 40.28125 
Q 14.5 37.15625 16.890625 35.375 
Q 19.28125 33.59375 26.515625 31.984375 
L 29.59375 31.296875 
Q 39.15625 29.25 43.1875 25.515625 
Q 47.21875 21.78125 47.21875 15.09375 
Q 47.21875 7.46875 41.1875 3.015625 
Q 35.15625 -1.421875 24.609375 -1.421875 
Q 20.21875 -1.421875 15.453125 -0.5625 
Q 10.6875 0.296875 5.421875 2 
L 5.421875 11.28125 
Q 10.40625 8.6875 15.234375 7.390625 
Q 20.0625 6.109375 24.8125 6.109375 
Q 31.15625 6.109375 34.5625 8.28125 
Q 37.984375 10.453125 37.984375 14.40625 
Q 37.984375 18.0625 35.515625 20.015625 
Q 33.0625 21.96875 24.703125 23.78125 
L 21.578125 24.515625 
Q 13.234375 26.265625 9.515625 29.90625 
Q 5.8125 33.546875 5.8125 39.890625 
Q 5.8125 47.609375 11.28125 51.796875 
Q 16.75 56 26.8125 56 
Q 31.78125 56 36.171875 55.265625 
Q 40.578125 54.546875 44.28125 53.078125 
z
" id="DejaVuSans-73"/>
      <path d="M 8.015625 75.875 
L 15.828125 75.875 
Q 23.140625 64.359375 26.78125 53.3125 
Q 30.421875 42.28125 30.421875 31.390625 
Q 30.421875 20.453125 26.78125 9.375 
Q 23.140625 -1.703125 15.828125 -13.1875 
L 8.015625 -13.1875 
Q 14.5 -2 17.703125 9.0625 
Q 20.90625 20.125 20.90625 31.390625 
Q 20.90625 42.671875 17.703125 53.65625 
Q 14.5 64.65625 8.015625 75.875 
z
" id="DejaVuSans-29"/>
     </defs>
     <g transform="translate(227.693594 335.860562)scale(0.1 -0.1)">
      <use xlink:href="#DejaVuSans-74"/>
      <use x="39.208984" xlink:href="#DejaVuSans-28"/>
      <use x="78.222656" xlink:href="#DejaVuSans-73"/>
      <use x="130.322266" xlink:href="#DejaVuSans-29"/>
     </g>
    </g>
   </g>
   <g id="matplotlib.axis_2">
    <g id="ytick_1">
     <g id="line2d_8">
      <defs>
       <path d="M 0 0 
L -3.5 0 
" id="mf4fc2a668e" style="stroke:#000000;stroke-width:0.8;"/>
      </defs>
      <g>
       <use style="stroke:#000000;stroke-width:0.8;" x="57.6" xlink:href="#mf4fc2a668e" y="293.839244"/>
      </g>
     </g>
     <g id="text_9">
      <!-- 1.0003 -->
      <defs>
       <path d="M 10.6875 12.40625 
L 21 12.40625 
L 21 0 
L 10.6875 0 
z
" id="DejaVuSans-2e"/>
      </defs>
      <g transform="translate(15.609375 297.638462)scale(0.1 -0.1)">
       <use xlink:href="#DejaVuSans-31"/>
       <use x="63.623047" xlink:href="#DejaVuSans-2e"/>
       <use x="95.410156" xlink:href="#DejaVuSans-30"/>
       <use x="159.033203" xlink:href="#DejaVuSans-30"/>
       <use x="222.65625" xlink:href="#DejaVuSans-30"/>
       <use x="286.279297" xlink:href="#DejaVuSans-33"/>
      </g>
     </g>
    </g>
    <g id="ytick_2">
     <g id="line2d_9">
      <g>
       <use style="stroke:#000000;stroke-width:0.8;" x="57.6" xlink:href="#mf4fc2a668e" y="263.419386"/>
      </g>
     </g>
     <g id="text_10">
      <!-- 1.0004 -->
      <g transform="translate(15.609375 267.218605)scale(0.1 -0.1)">
       <use xlink:href="#DejaVuSans-31"/>
       <use x="63.623047" xlink:href="#DejaVuSans-2e"/>
       <use x="95.410156" xlink:href="#DejaVuSans-30"/>
       <use x="159.033203" xlink:href="#DejaVuSans-30"/>
       <use x="222.65625" xlink:href="#DejaVuSans-30"/>
       <use x="286.279297" xlink:href="#DejaVuSans-34"/>
      </g>
     </g>
    </g>
    <g id="ytick_3">
     <g id="line2d_10">
      <g>
       <use style="stroke:#000000;stroke-width:0.8;" x="57.6" xlink:href="#mf4fc2a668e" y="232.999529"/>
      </g>
     </g>
     <g id="text_11">
      <!-- 1.0005 -->
      <g transform="translate(15.609375 236.798748)scale(0.1 -0.1)">
       <use xlink:href="#DejaVuSans-31"/>
       <use x="63.623047" xlink:href="#DejaVuSans-2e"/>
       <use x="95.410156" xlink:href="#DejaVuSans-30"/>
       <use x="159.033203" xlink:href="#DejaVuSans-30"/>
       <use x="222.65625" xlink:href="#DejaVuSans-30"/>
       <use x="286.279297" xlink:href="#DejaVuSans-35"/>
      </g>
     </g>
    </g>
    <g id="ytick_4">
     <g id="line2d_11">
      <g>
       <use style="stroke:#000000;stroke-width:0.8;" x="57.6" xlink:href="#mf4fc2a668e" y="202.579672"/>
      </g>
     </g>
     <g id="text_12">
      <!-- 1.0006 -->
      <g transform="translate(15.609375 206.37889)scale(0.1 -0.1)">
       <use xlink:href="#DejaVuSans-31"/>
       <use x="63.623047" xlink:href="#DejaVuSans-2e"/>
       <use x="95.410156" xlink:href="#DejaVuSans-30"/>
       <use x="159.033203" xlink:href="#DejaVuSans-30"/>
       <use x="222.65625" xlink:href="#DejaVuSans-30"/>
       <use x="286.279297" xlink:href="#DejaVuSans-36"/>
      </g>
     </g>
    </g>
    <g id="ytick_5">
     <g id="line2d_12">
      <g>
       <use style="stroke:#000000;stroke-width:0.8;" x="57.6" xlink:href="#mf4fc2a668e" y="172.159814"/>
      </g>
     </g>
     <g id="text_13">
      <!-- 1.0007 -->
      <defs>
       <path d="M 8.203125 72.90625 
L 55.078125 72.90625 
L 55.078125 68.703125 
L 28.609375 0 
L 18.3125 0 
L 43.21875 64.59375 
L 8.203125 64.59375 
z
" id="DejaVuSans-37"/>
      </defs>
      <g transform="translate(15.609375 175.959033)scale(0.1 -0.1)">
       <use xlink:href="#DejaVuSans-31"/>
       <use x="63.623047" xlink:href="#DejaVuSans-2e"/>
       <use x="95.410156" xlink:href="#DejaVuSans-30"/>
       <use x="159.033203" xlink:href="#DejaVuSans-30"/>
       <use x="222.65625" xlink:href="#DejaVuSans-30"/>
       <use x="286.279297" xlink:href="#DejaVuSans-37"/>
      </g>
     </g>
    </g>
    <g id="ytick_6">
     <g id="line2d_13">
      <g>
       <use style="stroke:#000000;stroke-width:0.8;" x="57.6" xlink:href="#mf4fc2a668e" y="141.739957"/>
      </g>
     </g>
     <g id="text_14">
      <!-- 1.0008 -->
      <defs>
       <path d="M 31.78125 34.625 
Q 24.75 34.625 20.71875 30.859375 
Q 16.703125 27.09375 16.703125 20.515625 
Q 16.703125 13.921875 20.71875 10.15625 
Q 24.75 6.390625 31.78125 6.390625 
Q 38.8125 6.390625 42.859375 10.171875 
Q 46.921875 13.96875 46.921875 20.515625 
Q 46.921875 27.09375 42.890625 30.859375 
Q 38.875 34.625 31.78125 34.625 
z
M 21.921875 38.8125 
Q 15.578125 40.375 12.03125 44.71875 
Q 8.5 49.078125 8.5 55.328125 
Q 8.5 64.0625 14.71875 69.140625 
Q 20.953125 74.21875 31.78125 74.21875 
Q 42.671875 74.21875 48.875 69.140625 
Q 55.078125 64.0625 55.078125 55.328125 
Q 55.078125 49.078125 51.53125 44.71875 
Q 48 40.375 41.703125 38.8125 
Q 48.828125 37.15625 52.796875 32.3125 
Q 56.78125 27.484375 56.78125 20.515625 
Q 56.78125 9.90625 50.3125 4.234375 
Q 43.84375 -1.421875 31.78125 -1.421875 
Q 19.734375 -1.421875 13.25 4.234375 
Q 6.78125 9.90625 6.78125 20.515625 
Q 6.78125 27.484375 10.78125 32.3125 
Q 14.796875 37.15625 21.921875 38.8125 
z
M 18.3125 54.390625 
Q 18.3125 48.734375 21.84375 45.5625 
Q 25.390625 42.390625 31.78125 42.390625 
Q 38.140625 42.390625 41.71875 45.5625 
Q 45.3125 48.734375 45.3125 54.390625 
Q 45.3125 60.0625 41.71875 63.234375 
Q 38.140625 66.40625 31.78125 66.40625 
Q 25.390625 66.40625 21.84375 63.234375 
Q 18.3125 60.0625 18.3125 54.390625 
z
" id="DejaVuSans-38"/>
      </defs>
      <g transform="translate(15.609375 145.539175)scale(0.1 -0.1)">
       <use xlink:href="#DejaVuSans-31"/>
       <use x="63.623047" xlink:href="#DejaVuSans-2e"/>
       <use x="95.410156" xlink:href="#DejaVuSans-30"/>
       <use x="159.033203" xlink:href="#DejaVuSans-30"/>
       <use x="222.65625" xlink:href="#DejaVuSans-30"/>
       <use x="286.279297" xlink:href="#DejaVuSans-38"/>
      </g>
     </g>
    </g>
    <g id="ytick_7">
     <g id="line2d_14">
      <g>
       <use style="stroke:#000000;stroke-width:0.8;" x="57.6" xlink:href="#mf4fc2a668e" y="111.320099"/>
      </g>
     </g>
     <g id="text_15">
      <!-- 1.0009 -->
      <defs>
       <path d="M 10.984375 1.515625 
L 10.984375 10.5 
Q 14.703125 8.734375 18.5 7.8125 
Q 22.3125 6.890625 25.984375 6.890625 
Q 35.75 6.890625 40.890625 13.453125 
Q 46.046875 20.015625 46.78125 33.40625 
Q 43.953125 29.203125 39.59375 26.953125 
Q 35.25 24.703125 29.984375 24.703125 
Q 19.046875 24.703125 12.671875 31.3125 
Q 6.296875 37.9375 6.296875 49.421875 
Q 6.296875 60.640625 12.9375 67.421875 
Q 19.578125 74.21875 30.609375 74.21875 
Q 43.265625 74.21875 49.921875 64.515625 
Q 56.59375 54.828125 56.59375 36.375 
Q 56.59375 19.140625 48.40625 8.859375 
Q 40.234375 -1.421875 26.421875 -1.421875 
Q 22.703125 -1.421875 18.890625 -0.6875 
Q 15.09375 0.046875 10.984375 1.515625 
z
M 30.609375 32.421875 
Q 37.25 32.421875 41.125 36.953125 
Q 45.015625 41.5 45.015625 49.421875 
Q 45.015625 57.28125 41.125 61.84375 
Q 37.25 66.40625 30.609375 66.40625 
Q 23.96875 66.40625 20.09375 61.84375 
Q 16.21875 57.28125 16.21875 49.421875 
Q 16.21875 41.5 20.09375 36.953125 
Q 23.96875 32.421875 30.609375 32.421875 
z
" id="DejaVuSans-39"/>
      </defs>
      <g transform="translate(15.609375 115.119318)scale(0.1 -0.1)">
       <use xlink:href="#DejaVuSans-31"/>
       <use x="63.623047" xlink:href="#DejaVuSans-2e"/>
       <use x="95.410156" xlink:href="#DejaVuSans-30"/>
       <use x="159.033203" xlink:href="#DejaVuSans-30"/>
       <use x="222.65625" xlink:href="#DejaVuSans-30"/>
       <use x="286.279297" xlink:href="#DejaVuSans-39"/>
      </g>
     </g>
    </g>
    <g id="ytick_8">
     <g id="line2d_15">
      <g>
       <use style="stroke:#000000;stroke-width:0.8;" x="57.6" xlink:href="#mf4fc2a668e" y="80.900242"/>
      </g>
     </g>
     <g id="text_16">
      <!-- 1.0010 -->
      <g transform="translate(15.609375 84.699461)scale(0.1 -0.1)">
       <use xlink:href="#DejaVuSans-31"/>
       <use x="63.623047" xlink:href="#DejaVuSans-2e"/>
       <use x="95.410156" xlink:href="#DejaVuSans-30"/>
       <use x="159.033203" xlink:href="#DejaVuSans-30"/>
       <use x="222.65625" xlink:href="#DejaVuSans-31"/>
       <use x="286.279297" xlink:href="#DejaVuSans-30"/>
      </g>
     </g>
    </g>
    <g id="ytick_9">
     <g id="line2d_16">
      <g>
       <use style="stroke:#000000;stroke-width:0.8;" x="57.6" xlink:href="#mf4fc2a668e" y="50.480384"/>
      </g>
     </g>
     <g id="text_17">
      <!-- 1.0011 -->
      <g transform="translate(15.609375 54.279603)scale(0.1 -0.1)">
       <use xlink:href="#DejaVuSans-31"/>
       <use x="63.623047" xlink:href="#DejaVuSans-2e"/>
       <use x="95.410156" xlink:href="#DejaVuSans-30"/>
       <use x="159.033203" xlink:href="#DejaVuSans-30"/>
       <use x="222.65625" xlink:href="#DejaVuSans-31"/>
       <use x="286.279297" xlink:href="#DejaVuSans-31"/>
      </g>
     </g>
    </g>
    <g id="text_18">
     <!-- Pressure (bar) -->
     <defs>
      <path d="M 19.671875 64.796875 
L 19.671875 37.40625 
L 32.078125 37.40625 
Q 38.96875 37.40625 42.71875 40.96875 
Q 46.484375 44.53125 46.484375 51.125 
Q 46.484375 57.671875 42.71875 61.234375 
Q 38.96875 64.796875 32.078125 64.796875 
z
M 9.8125 72.90625 
L 32.078125 72.90625 
Q 44.34375 72.90625 50.609375 67.359375 
Q 56.890625 61.8125 56.890625 51.125 
Q 56.890625 40.328125 50.609375 34.8125 
Q 44.34375 29.296875 32.078125 29.296875 
L 19.671875 29.296875 
L 19.671875 0 
L 9.8125 0 
z
" id="DejaVuSans-50"/>
      <path d="M 41.109375 46.296875 
Q 39.59375 47.171875 37.8125 47.578125 
Q 36.03125 48 33.890625 48 
Q 26.265625 48 22.1875 43.046875 
Q 18.109375 38.09375 18.109375 28.8125 
L 18.109375 0 
L 9.078125 0 
L 9.078125 54.6875 
L 18.109375 54.6875 
L 18.109375 46.1875 
Q 20.953125 51.171875 25.484375 53.578125 
Q 30.03125 56 36.53125 56 
Q 37.453125 56 38.578125 55.875 
Q 39.703125 55.765625 41.0625 55.515625 
z
" id="DejaVuSans-72"/>
      <path d="M 56.203125 29.59375 
L 56.203125 25.203125 
L 14.890625 25.203125 
Q 15.484375 15.921875 20.484375 11.0625 
Q 25.484375 6.203125 34.421875 6.203125 
Q 39.59375 6.203125 44.453125 7.46875 
Q 49.3125 8.734375 54.109375 11.28125 
L 54.109375 2.78125 
Q 49.265625 0.734375 44.1875 -0.34375 
Q 39.109375 -1.421875 33.890625 -1.421875 
Q 20.796875 -1.421875 13.15625 6.1875 
Q 5.515625 13.8125 5.515625 26.8125 
Q 5.515625 40.234375 12.765625 48.109375 
Q 20.015625 56 32.328125 56 
Q 43.359375 56 49.78125 48.890625 
Q 56.203125 41.796875 56.203125 29.59375 
z
M 47.21875 32.234375 
Q 47.125 39.59375 43.09375 43.984375 
Q 39.0625 48.390625 32.421875 48.390625 
Q 24.90625 48.390625 20.390625 44.140625 
Q 15.875 39.890625 15.1875 32.171875 
z
" id="DejaVuSans-65"/>
      <path d="M 8.5 21.578125 
L 8.5 54.6875 
L 17.484375 54.6875 
L 17.484375 21.921875 
Q 17.484375 14.15625 20.5 10.265625 
Q 23.53125 6.390625 29.59375 6.390625 
Q 36.859375 6.390625 41.078125 11.03125 
Q 45.3125 15.671875 45.3125 23.6875 
L 45.3125 54.6875 
L 54.296875 54.6875 
L 54.296875 0 
L 45.3125 0 
L 45.3125 8.40625 
Q 42.046875 3.421875 37.71875 1 
Q 33.40625 -1.421875 27.6875 -1.421875 
Q 18.265625 -1.421875 13.375 4.4375 
Q 8.5 10.296875 8.5 21.578125 
z
M 31.109375 56 
z
" id="DejaVuSans-75"/>
      <path id="DejaVuSans-20"/>
      <path d="M 48.6875 27.296875 
Q 48.6875 37.203125 44.609375 42.84375 
Q 40.53125 48.484375 33.40625 48.484375 
Q 26.265625 48.484375 22.1875 42.84375 
Q 18.109375 37.203125 18.109375 27.296875 
Q 18.109375 17.390625 22.1875 11.75 
Q 26.265625 6.109375 33.40625 6.109375 
Q 40.53125 6.109375 44.609375 11.75 
Q 48.6875 17.390625 48.6875 27.296875 
z
M 18.109375 46.390625 
Q 20.953125 51.265625 25.265625 53.625 
Q 29.59375 56 35.59375 56 
Q 45.5625 56 51.78125 48.09375 
Q 58.015625 40.1875 58.015625 27.296875 
Q 58.015625 14.40625 51.78125 6.484375 
Q 45.5625 -1.421875 35.59375 -1.421875 
Q 29.59375 -1.421875 25.265625 0.953125 
Q 20.953125 3.328125 18.109375 8.203125 
L 18.109375 0 
L 9.078125 0 
L 9.078125 75.984375 
L 18.109375 75.984375 
z
" id="DejaVuSans-62"/>
      <path d="M 34.28125 27.484375 
Q 23.390625 27.484375 19.1875 25 
Q 14.984375 22.515625 14.984375 16.5 
Q 14.984375 11.71875 18.140625 8.90625 
Q 21.296875 6.109375 26.703125 6.109375 
Q 34.1875 6.109375 38.703125 11.40625 
Q 43.21875 16.703125 43.21875 25.484375 
L 43.21875 27.484375 
z
M 52.203125 31.203125 
L 52.203125 0 
L 43.21875 0 
L 43.21875 8.296875 
Q 40.140625 3.328125 35.546875 0.953125 
Q 30.953125 -1.421875 24.3125 -1.421875 
Q 15.921875 -1.421875 10.953125 3.296875 
Q 6 8.015625 6 15.921875 
Q 6 25.140625 12.171875 29.828125 
Q 18.359375 34.515625 30.609375 34.515625 
L 43.21875 34.515625 
L 43.21875 35.40625 
Q 43.21875 41.609375 39.140625 45 
Q 35.0625 48.390625 27.6875 48.390625 
Q 23 48.390625 18.546875 47.265625 
Q 14.109375 46.140625 10.015625 43.890625 
L 10.015625 52.203125 
Q 14.9375 54.109375 19.578125 55.046875 
Q 24.21875 56 28.609375 56 
Q 40.484375 56 46.34375 49.84375 
Q 52.203125 43.703125 52.203125 31.203125 
z
" id="DejaVuSans-61"/>
     </defs>
     <g transform="translate(9.529687 209.9655)rotate(-90)scale(0.1 -0.1)">
      <use xlink:href="#DejaVuSans-50"/>
      <use x="60.287109" xlink:href="#DejaVuSans-72"/>
      <use x="101.369141" xlink:href="#DejaVuSans-65"/>
      <use x="162.892578" xlink:href="#DejaVuSans-73"/>
      <use x="214.992188" xlink:href="#DejaVuSans-73"/>
      <use x="267.091797" xlink:href="#DejaVuSans-75"/>
      <use x="330.470703" xlink:href="#DejaVuSans-72"/>
      <use x="371.552734" xlink:href="#DejaVuSans-65"/>
      <use x="433.076172" xlink:href="#DejaVuSans-20"/>
      <use x="464.863281" xlink:href="#DejaVuSans-28"/>
      <use x="503.876953" xlink:href="#DejaVuSans-62"/>
      <use x="567.353516" xlink:href="#DejaVuSans-61"/>
      <use x="628.632812" xlink:href="#DejaVuSans-72"/>
      <use x="669.746094" xlink:href="#DejaVuSans-29"/>
     </g>
    </g>
   </g>
   <g id="line2d_17">
    <path clip-path="url(#pd14ab23414)" d="M 73.832727 76.282508 
L 74.159843 78.226336 
L 74.485876 81.417379 
L 74.812992 78.545745 
L 75.139566 71.147636 
L 75.466681 77.325909 
L 75.793256 71.610017 
L 76.11929 80.489574 
L 76.446405 77.383706 
L 76.772979 82.22959 
L 77.099554 82.606796 
L 77.426128 86.899038 
L 77.752162 75.847504 
L 78.079277 80.431776 
L 78.405311 72.741636 
L 78.732427 76.717511 
L 79.059001 56.147604 
L 79.385035 55.597004 
L 79.71215 53.568 
L 80.038725 73.118842 
L 80.364758 80.05457 
L 80.691333 74.308259 
L 81.017908 71.959846 
L 81.345023 72.163659 
L 81.671057 78.341932 
L 82.324206 73.20706 
L 82.65078 76.22471 
L 82.977355 73.931053 
L 83.303929 81.621193 
L 83.631044 85.767419 
L 83.957619 71.84425 
L 84.284193 82.576376 
L 84.610768 80.720765 
L 84.937342 80.081948 
L 85.263917 76.513698 
L 85.590491 83.911808 
L 85.917066 83.969605 
L 86.244181 79.154142 
L 86.570756 84.377232 
L 86.89733 78.66134 
L 87.223905 88.523458 
L 87.55102 85.709621 
L 87.877595 79.415753 
L 88.204169 91.337295 
L 88.530744 84.492827 
L 88.857318 86.348438 
L 89.183893 84.142999 
L 89.510467 86.552251 
L 89.837042 77.645317 
L 90.163616 79.561768 
L 90.490191 74.223083 
L 90.816765 85.913434 
L 91.796489 78.719138 
L 92.449638 82.548998 
L 92.776753 81.067551 
L 93.103328 75.035293 
L 93.429902 76.455901 
L 93.756477 68.507192 
L 94.083051 78.195917 
L 94.409626 77.81871 
L 94.7362 80.227963 
L 95.062775 77.760913 
L 95.389349 81.040173 
L 95.715924 74.134866 
L 96.042498 75.528095 
L 96.369073 86.956835 
L 96.695647 83.388586 
L 97.022222 76.252088 
L 97.348796 80.86678 
L 98.001945 78.226336 
L 98.32852 78.776936 
L 98.655094 72.568243 
L 98.981669 87.537855 
L 99.308244 85.594026 
L 99.634818 82.780189 
L 99.961393 91.106104 
L 100.287967 94.239349 
L 100.614542 78.138119 
L 100.941116 81.940601 
L 101.267691 83.82359 
L 101.594265 84.057823 
L 101.92084 85.855637 
L 102.247414 85.390213 
L 102.573989 88.380485 
L 102.900563 79.561768 
L 103.553712 92.441536 
L 103.880287 92.703147 
L 104.86001 80.05457 
L 105.186585 89.335668 
L 105.513159 89.335668 
L 105.839734 85.073846 
L 106.166308 88.146252 
L 106.492883 84.985629 
L 106.819458 87.945481 
L 107.146032 87.68387 
L 107.799181 81.706368 
L 108.125756 93.311544 
L 108.45233 87.391839 
L 109.105479 99.316424 
L 109.432054 88.988882 
L 109.758628 89.250493 
L 110.085203 87.857263 
L 110.411777 93.68875 
L 110.738352 90.439909 
L 111.064926 93.253746 
L 111.718075 84.69664 
L 112.04465 96.879793 
L 112.370684 101.956867 
L 112.697799 88.988882 
L 113.023833 82.4912 
L 113.350948 88.146252 
L 113.677522 104.828502 
L 114.004097 98.446416 
L 114.330131 106.221731 
L 114.657246 97.284377 
L 114.983821 99.170408 
L 115.309854 101.753054 
L 115.636429 96.298774 
L 115.963544 95.921567 
L 116.290119 100.216851 
L 116.616152 95.602159 
L 116.943268 101.086859 
L 117.269842 100.998642 
L 117.596957 98.242603 
L 117.922991 102.738658 
L 118.250106 93.281124 
L 118.57614 106.279529 
L 118.902715 106.452922 
L 119.229289 103.669505 
L 119.555864 98.184805 
L 119.882438 84.955209 
L 120.209013 83.388586 
L 120.535587 87.68387 
L 120.862162 74.627667 
L 121.189277 70.855605 
L 122.169541 78.430149 
L 122.496116 78.138119 
L 123.149265 67.664562 
L 123.47584 68.041768 
L 123.802414 67.840997 
L 124.128989 69.146009 
L 124.455563 65.431744 
L 124.782138 70.916445 
L 125.108712 70.797807 
L 125.435287 65.227931 
L 125.761861 57.483036 
L 126.088976 55.800818 
L 126.415551 60.731876 
L 126.742125 61.836117 
L 127.0687 64.792927 
L 127.395274 66.505565 
L 127.721849 59.715853 
L 128.048424 59.049658 
L 128.374998 79.473551 
L 128.701573 66.070561 
L 129.028147 64.881145 
L 129.355262 68.449394 
L 129.682378 58.584234 
L 130.008952 64.473519 
L 130.335527 63.837744 
L 130.662101 69.523215 
L 130.988676 68.711005 
L 131.31525 74.773683 
L 131.641825 64.446141 
L 131.968399 66.970989 
L 132.294974 80.197543 
L 132.621548 70.916445 
L 132.948123 66.417348 
L 133.274697 72.191037 
L 133.601272 71.147636 
L 133.927846 75.701488 
L 134.580995 61.775278 
L 134.90757 69.812204 
L 135.234144 67.144382 
L 135.560719 91.744921 
L 135.887294 89.366088 
L 136.213868 85.50885 
L 136.540443 87.452679 
L 137.520166 95.921567 
L 137.846741 91.136524 
L 138.173315 105.786727 
L 138.49989 100.359825 
L 138.826464 108.658362 
L 139.153039 111.965 
L 139.479613 102.537886 
L 139.806188 115.156043 
L 140.132762 110.948977 
L 140.459337 114.663242 
L 140.785911 110.167187 
L 141.112486 117.18809 
L 141.43906 112.111016 
L 141.765635 114.401631 
L 142.092209 113.443405 
L 142.418784 117.477078 
L 142.745358 114.374253 
L 143.071933 127.485212 
L 143.398508 127.600807 
L 143.725082 123.104752 
L 144.051657 124.266791 
L 144.378231 122.584572 
L 144.704806 102.507467 
L 145.03138 104.597311 
L 145.357955 109.847778 
L 146.011104 102.623062 
L 146.337137 107.931327 
L 146.663712 102.71128 
L 146.990287 100.825248 
L 147.317402 101.229833 
L 147.643976 112.168813 
L 147.970551 105.786727 
L 148.297666 102.334073 
L 148.624241 112.573397 
L 148.950274 108.627942 
L 149.27739 100.679233 
L 149.603964 103.088486 
L 149.930539 106.656735 
L 150.257113 106.337327 
L 150.583688 107.35335 
L 150.910262 103.350097 
L 151.236837 103.000268 
L 151.563411 97.780221 
L 151.889445 102.13026 
L 152.21656 102.391871 
L 152.869169 105.728929 
L 153.195743 105.409521 
L 153.522318 102.826875 
L 153.849433 102.796455 
L 154.176007 99.839645 
L 154.502582 101.31805 
L 154.829156 93.281124 
L 155.157894 102.857295 
L 155.488794 107.091739 
L 155.815909 102.102882 
L 156.141943 100.913466 
L 156.468517 100.998642 
L 156.795092 100.244229 
L 157.122207 105.467319 
L 157.448781 98.096587 
L 158.101931 109.208961 
L 158.428505 107.119117 
L 158.75508 111.326183 
L 159.081113 109.732183 
L 159.407688 101.926447 
L 159.734803 97.634205 
L 160.386871 99.751428 
L 160.713445 98.592431 
L 161.366594 107.35335 
L 161.693169 97.256999 
L 162.019743 103.49307 
L 162.346318 101.144657 
L 162.672893 104.016292 
L 162.999467 101.549241 
L 163.326042 104.539513 
L 163.652616 97.780221 
L 163.979191 99.72405 
L 164.305765 97.110984 
L 164.63234 107.672758 
L 164.958914 100.101256 
L 165.612063 104.798082 
L 165.938638 92.557131 
L 166.265212 104.682486 
L 166.591787 102.623062 
L 166.918361 107.119117 
L 167.244936 106.830128 
L 167.57151 102.71128 
L 167.898085 105.756307 
L 168.224659 100.159054 
L 168.551234 92.499334 
L 168.878349 102.188058 
L 169.204924 104.393498 
L 169.531498 110.979397 
L 169.858073 107.496323 
L 170.184647 102.537886 
L 170.511222 108.804377 
L 170.838337 101.579661 
L 171.164911 101.029062 
L 171.491486 99.432019 
L 171.81806 107.149537 
L 172.144635 102.391871 
L 172.471209 95.602159 
L 173.450933 106.279529 
L 173.778048 111.761187 
L 174.104623 109.354976 
L 174.431197 108.049965 
L 174.757772 112.138393 
L 175.084346 111.965 
L 175.410921 114.778837 
L 175.737496 107.32293 
L 176.06407 110.921599 
L 176.390645 109.297179 
L 176.717219 116.172067 
L 177.043794 113.677638 
L 177.370368 109.674385 
L 177.696943 108.107762 
L 178.023517 110.863801 
L 178.350092 107.091739 
L 178.676666 104.655109 
L 179.003241 112.430424 
L 179.329815 107.873529 
L 179.65639 107.003522 
L 179.983505 99.897443 
L 180.310079 104.539513 
L 180.636654 105.321303 
L 180.963228 104.944097 
L 181.289803 105.263506 
L 181.616378 102.449669 
L 181.942952 98.534633 
L 182.269527 99.404641 
L 182.596101 98.765824 
L 182.922676 100.013038 
L 183.24925 102.303654 
L 183.575825 102.218478 
L 183.902399 101.433646 
L 184.228974 105.756307 
L 184.555548 104.104509 
L 184.882123 104.974517 
L 185.208697 97.603786 
L 185.535272 96.067583 
L 185.861846 101.783474 
L 186.188421 103.234501 
L 186.514995 106.830128 
L 186.84157 106.80275 
L 187.168144 103.058066 
L 187.494719 109.440152 
L 188.147868 105.552494 
L 188.474443 106.395124 
L 188.801017 95.86377 
L 189.127592 102.942471 
L 189.454166 102.303654 
L 189.780741 100.913466 
L 190.43389 114.924852 
L 190.760464 110.486595 
L 191.087039 102.537886 
L 191.413613 103.204081 
L 191.740188 104.974517 
L 192.066762 114.054844 
L 192.393337 111.210588 
L 192.719911 110.717786 
L 193.37306 106.075716 
L 193.699635 97.807599 
L 194.025669 107.411148 
L 194.352243 107.033941 
L 194.679358 103.727303 
L 195.005933 108.077342 
L 195.332508 108.512346 
L 195.658541 101.810852 
L 195.985116 109.239381 
L 196.31169 99.289046 
L 196.638265 105.236128 
L 196.96538 102.042043 
L 197.291414 102.595684 
L 197.617989 105.902323 
L 197.944563 101.810852 
L 198.271678 106.048338 
L 198.597712 103.985872 
L 198.924287 101.114237 
L 199.250861 103.842898 
L 199.577436 102.595684 
L 199.90401 103.727303 
L 200.557159 114.343833 
L 200.883734 108.484969 
L 201.210308 109.151163 
L 201.536883 106.656735 
L 201.863457 102.653482 
L 202.190032 105.14791 
L 202.516606 101.984245 
L 202.843181 108.308533 
L 203.169755 104.104509 
L 203.49633 98.215225 
L 203.822904 97.083606 
L 204.149479 106.51072 
L 204.476054 108.627942 
L 204.802628 108.862175 
L 205.129203 108.369373 
L 205.455777 108.773957 
L 205.782352 110.109389 
L 206.108926 113.35823 
L 206.435501 114.663242 
L 206.762075 112.688993 
L 207.08865 117.565296 
L 207.415224 107.961747 
L 207.741799 113.443405 
L 208.068373 109.674385 
L 208.394948 103.377475 
L 208.721522 109.586167 
L 209.048097 111.15279 
L 209.374671 110.775584 
L 209.701246 110.806004 
L 210.02782 119.33269 
L 210.354395 107.265132 
L 210.680969 115.910456 
L 211.007544 119.217094 
L 211.334119 111.818985 
L 211.987268 116.664868 
L 212.313842 122.843141 
L 212.640417 120.464308 
L 212.966991 116.753086 
L 213.293566 117.215468 
L 213.946715 113.300432 
L 214.273289 112.835008 
L 214.599864 125.048581 
L 214.926979 119.682518 
L 215.253553 108.369373 
L 215.580128 112.138393 
L 215.906702 112.080596 
L 216.233277 111.676012 
L 216.559852 107.526743 
L 216.886426 117.361483 
L 217.213001 115.883078 
L 217.539575 120.059724 
L 217.86669 112.573397 
L 218.519839 116.810884 
L 218.846414 113.184837 
L 219.172988 112.661615 
L 219.826137 121.83016 
L 220.162985 124.120775 
L 220.489559 119.305312 
L 220.816134 116.287662 
L 221.469283 124.701795 
L 221.795857 115.79486 
L 222.122432 116.461055 
L 222.449007 121.075748 
L 222.775581 116.026051 
L 223.755305 138.886574 
L 224.081879 129.721071 
L 224.408994 135.087134 
L 224.735569 125.194596 
L 225.062143 122.931359 
L 225.388718 126.295795 
L 225.715292 125.310192 
L 226.041867 134.217126 
L 226.368442 136.01494 
L 226.695016 120.263537 
L 227.021591 128.762846 
L 227.67474 133.374496 
L 228.001314 129.864044 
L 228.327889 129.16743 
L 228.654463 127.400036 
L 228.981038 126.846395 
L 229.307612 134.478737 
L 229.634187 137.292574 
L 229.960761 138.363353 
L 230.287336 131.403289 
L 230.61391 135.43392 
L 230.940485 130.910487 
L 231.267059 138.104784 
L 231.593634 129.371243 
L 231.920208 137.058341 
L 232.246783 134.506115 
L 232.573357 133.8095 
L 232.899932 129.225227 
L 233.226506 139.698784 
L 233.553081 138.916994 
L 233.879656 145.26866 
L 234.20623 137.63936 
L 234.532805 139.2942 
L 234.859379 136.045359 
L 235.512528 143.324831 
L 235.839103 137.234776 
L 236.165677 143.382629 
L 236.492252 136.449943 
L 237.14486 146.546294 
L 237.471975 143.324831 
L 237.79855 136.623337 
L 238.451158 144.921874 
L 238.778273 132.562286 
L 239.104307 148.258932 
L 239.757456 132.127282 
L 240.084031 142.193213 
L 240.410605 144.021446 
L 240.73718 138.305555 
L 241.063754 138.624963 
L 241.390329 138.046986 
L 241.716903 150.199719 
L 242.043478 144.891454 
L 242.370052 136.799772 
L 242.696627 136.595959 
L 243.023202 132.562286 
L 243.349776 139.787002 
L 243.676351 141.119392 
L 244.003466 146.226886 
L 244.656615 137.523764 
L 244.983189 149.506146 
L 245.309764 146.458077 
L 245.636338 148.459703 
L 245.962913 145.384256 
L 246.289487 150.984551 
L 246.616062 145.414675 
L 246.942636 147.4741 
L 247.269211 146.08087 
L 247.595785 146.138668 
L 247.92236 147.008676 
L 248.248934 148.751734 
L 248.575509 158.410039 
L 248.902084 157.716466 
L 249.555233 152.11617 
L 250.208382 158.845043 
L 250.534956 156.46621 
L 250.861531 156.350614 
L 251.188105 157.047229 
L 251.51468 151.623368 
L 251.841254 150.46133 
L 252.167829 146.400279 
L 252.494403 147.793508 
L 252.820978 147.562317 
L 253.147552 144.718061 
L 253.474127 143.790255 
L 253.800701 147.4741 
L 254.127276 144.690683 
L 254.780425 147.096894 
L 255.106999 150.172341 
L 255.433574 149.010303 
L 255.760149 147.300707 
L 256.086723 154.233392 
L 256.413298 146.254264 
L 256.739872 156.265439 
L 257.066447 158.063252 
L 257.393021 150.695563 
L 257.719596 155.568824 
L 258.04617 148.721314 
L 258.372745 154.58322 
L 258.699319 149.64912 
L 259.025894 154.233392 
L 259.352468 154.464583 
L 259.679043 156.089003 
L 260.005617 151.361758 
L 260.332192 153.971781 
L 260.658766 151.827181 
L 260.985341 158.032832 
L 261.311915 159.803268 
L 261.63849 163.633128 
L 261.965064 152.812785 
L 262.291639 153.247789 
L 262.618214 152.347361 
L 262.944788 155.538404 
L 263.271363 153.189991 
L 263.597937 158.005454 
L 263.924512 158.440458 
L 264.251086 155.334591 
L 265.23081 163.633128 
L 265.557384 166.535182 
L 265.883959 166.157976 
L 266.210533 162.501509 
L 266.537108 160.353867 
L 266.863682 165.75035 
L 267.190257 160.615478 
L 267.516831 166.30095 
L 267.843406 160.673276 
L 268.16998 162.355494 
L 268.496555 171.493619 
L 268.823129 159.718092 
L 269.149704 163.487113 
L 269.476278 158.410039 
L 269.802853 156.207641 
L 270.129428 170.13081 
L 270.456002 160.238272 
L 270.782577 167.231797 
L 271.109151 160.007081 
L 271.435726 165.315346 
L 271.7623 160.353867 
L 273.068598 171.727852 
L 273.395173 168.332996 
L 273.721747 171.870825 
L 274.048322 161.400311 
L 274.374896 160.180474 
L 274.701471 168.971813 
L 275.027505 170.045634 
L 275.354079 160.5881 
L 275.680654 166.708576 
L 276.007228 169.114786 
L 276.333803 159.687673 
L 276.660377 168.594607 
L 276.986952 160.992684 
L 277.313526 169.175626 
L 277.640101 166.389167 
L 277.966675 172.59786 
L 278.29325 168.360374 
L 278.619825 166.446965 
L 278.946399 168.479011 
L 279.272974 167.055362 
L 279.599548 172.655658 
L 279.926123 160.268692 
L 280.252697 165.808148 
L 280.579272 168.360374 
L 280.905846 175.265682 
L 281.232961 164.764747 
L 281.559536 178.514522 
L 281.88611 174.395674 
L 282.212685 172.220654 
L 282.539259 166.535182 
L 282.865834 170.742249 
L 283.192408 180.981573 
L 283.518983 171.989463 
L 283.845558 176.658911 
L 284.172132 172.482265 
L 284.498707 170.711829 
L 284.825281 177.528919 
L 285.151856 169.464615 
L 285.47843 178.690957 
L 285.805005 177.644514 
L 286.131579 175.934918 
L 286.458154 183.040997 
L 286.784728 183.649394 
L 287.111303 176.543316 
L 287.437877 180.023347 
L 287.764452 185.188639 
L 288.091026 185.188639 
L 288.417601 185.362032 
L 289.07075 189.626896 
L 289.397324 188.525697 
L 289.723899 181.997596 
L 290.050473 191.801916 
L 290.377048 184.869231 
L 290.703622 193.456756 
L 291.030197 185.769658 
L 291.683346 179.095542 
L 292.009921 180.22716 
L 292.336495 175.758483 
L 292.66307 181.58997 
L 292.989644 183.156593 
L 293.316219 191.686321 
L 293.642793 186.405433 
L 293.969368 189.569098 
L 294.622517 177.355526 
L 294.949091 179.007324 
L 295.275666 185.100421 
L 295.602781 188.464858 
L 295.929355 185.188639 
L 296.25593 186.493651 
L 296.582505 194.037776 
L 296.909079 195.835589 
L 297.235654 186.581868 
L 297.562228 191.020126 
L 297.889343 188.930281 
L 298.215918 191.628523 
L 298.542492 191.105301 
L 298.869067 191.482508 
L 299.195642 184.838811 
L 299.522216 192.933535 
L 299.848791 187.451876 
L 300.175365 202.421488 
L 300.50194 192.063527 
L 300.828514 197.228819 
L 301.155089 192.352515 
L 301.481663 197.167979 
L 301.808238 199.026632 
L 302.787961 190.642919 
L 303.114536 191.975309 
L 303.441651 187.683067 
L 303.768225 195.805169 
L 304.0948 190.265713 
L 304.421375 188.784266 
L 304.747949 181.824203 
L 305.401098 197.228819 
L 305.728213 200.620633 
L 306.381362 191.309114 
L 306.707937 191.628523 
L 307.034511 198.996212 
L 307.361086 191.975309 
L 307.68766 197.256196 
L 308.014235 206.047535 
L 308.340809 197.72162 
L 308.667384 193.514554 
L 308.993958 206.309146 
L 309.320533 200.505037 
L 309.646567 201.028259 
L 309.973682 199.230445 
L 310.299716 203.842096 
L 310.626831 202.391068 
L 310.952865 199.607651 
L 311.27998 192.352515 
L 311.932589 207.814929 
L 312.259704 202.652679 
L 312.585738 204.450493 
L 312.912312 196.0972 
L 313.238887 196.994586 
L 313.565461 206.655932 
L 313.892036 196.212795 
L 314.21861 200.44724 
L 314.545185 198.911037 
L 314.871759 204.915917 
L 315.198334 202.044282 
L 315.524908 196.532204 
L 315.851483 199.86622 
L 316.178057 195.312368 
L 316.504632 207.322127 
L 316.831206 208.715357 
L 317.157781 204.53871 
L 317.484355 205.05889 
L 317.81093 204.681684 
L 318.464079 210.370197 
L 318.790654 205.843722 
L 319.117228 198.418235 
L 319.443803 208.10696 
L 319.770377 208.164757 
L 320.096952 205.293123 
L 320.423526 212.834205 
L 320.750101 214.635061 
L 321.40325 200.070033 
L 321.729824 215.039645 
L 322.056399 206.598135 
L 322.382973 210.631808 
L 322.710088 205.001092 
L 323.036663 211.209785 
L 323.363237 210.339777 
L 323.689812 216.837459 
L 324.016387 214.400828 
L 324.342961 222.611148 
L 324.669536 210.108586 
L 324.99611 210.890377 
L 325.322685 217.795684 
L 325.649259 215.620664 
L 325.976374 215.447271 
L 326.302949 211.617411 
L 326.629523 209.73138 
L 326.956098 209.180781 
L 327.282672 211.009014 
L 327.609247 210.193762 
L 328.262396 224.874385 
L 328.58897 214.400828 
L 328.915545 218.869505 
L 329.242119 219.769933 
L 329.568694 222.00275 
L 330.221843 212.660812 
L 330.548418 221.914533 
L 330.874992 215.155241 
L 331.201567 216.201684 
L 331.528141 220.290112 
L 331.854716 212.371824 
L 332.18129 218.72349 
L 332.507865 217.129489 
L 332.834439 217.564493 
L 333.161014 224.17777 
L 333.487588 218.638314 
L 333.814163 226.848634 
L 334.140737 229.543833 
L 334.467312 231.083078 
L 334.793886 225.948206 
L 335.120461 229.023654 
L 335.447035 228.473054 
L 335.77361 221.972331 
L 336.100184 223.018774 
L 336.426759 218.434501 
L 336.753334 228.55823 
L 337.079908 224.932183 
L 337.406483 233.839117 
L 337.733057 234.304541 
L 338.059632 224.381583 
L 338.386206 223.36556 
L 338.712781 225.339809 
L 339.039355 231.460284 
L 339.36593 219.450524 
L 339.692504 228.03805 
L 340.019079 231.864868 
L 340.672228 225.975584 
L 340.998802 232.880891 
L 341.325377 230.648074 
L 341.651951 235.463537 
L 341.978526 232.330292 
L 342.3051 232.126479 
L 342.631675 226.498805 
L 342.958249 228.935436 
L 343.284824 234.185903 
L 343.611399 233.142502 
L 343.937973 226.325412 
L 344.264548 236.449141 
L 344.591122 235.201927 
L 344.917697 235.055911 
L 345.244271 235.609553 
L 345.570846 238.189157 
L 345.89742 227.311016 
L 346.223454 224.469801 
L 346.550569 231.02528 
L 346.877144 231.983506 
L 347.203178 229.835864 
L 347.530293 226.702618 
L 348.182901 233.084705 
L 348.510016 225.571 
L 348.83605 227.399233 
L 349.163165 231.895288 
L 349.48974 228.065428 
L 350.468923 240.567989 
L 350.795497 242.630456 
L 351.122072 235.694728 
L 351.448646 234.420136 
L 352.101795 237.696355 
L 352.42837 245.906674 
L 352.754944 244.078441 
L 353.081519 239.843997 
L 353.408093 237.553382 
L 353.734668 248.924324 
L 354.061243 245.325655 
L 354.388899 245.906674 
L 354.719258 242.511818 
L 355.046914 242.396223 
L 355.374029 242.600036 
L 355.700063 241.441039 
L 356.026637 243.296651 
L 356.353212 238.073561 
L 356.679786 238.596783 
L 357.332935 248.401103 
L 357.65951 249.213313 
L 357.986084 250.490947 
L 358.312659 250.344932 
L 358.639233 245.559888 
L 358.965808 259.078473 
L 359.292383 257.974232 
L 359.618957 252.9002 
L 359.945532 257.48143 
L 360.272106 248.750931 
L 360.598681 246.168285 
L 360.925255 248.662713 
L 361.25183 256.961251 
L 361.578404 253.970979 
L 362.231553 242.889025 
L 362.558128 247.357702 
L 362.884702 246.8649 
L 363.211277 249.998145 
L 363.537851 249.389748 
L 363.864426 250.287134 
L 364.191541 248.720511 
L 364.518116 248.866527 
L 364.84469 253.362581 
L 365.171265 249.709157 
L 365.49838 251.969352 
L 365.824954 247.388121 
L 366.478103 255.160395 
L 366.804678 255.656239 
L 367.131252 253.566395 
L 367.457827 250.722138 
L 367.784401 241.903421 
L 368.110976 251.680363 
L 368.43755 247.269484 
L 368.764125 254.698013 
L 369.090699 249.359328 
L 369.417274 246.372098 
L 369.743848 252.376978 
L 370.070423 254.348185 
L 370.396998 259.078473 
L 370.723572 259.540855 
L 371.050147 262.096123 
L 371.376721 259.948481 
L 371.703296 260.356107 
L 372.02987 261.545523 
L 372.356445 261.080099 
L 372.683019 262.327313 
L 373.009594 258.585671 
L 373.336168 263.197321 
L 373.662743 257.51185 
L 373.989858 258.932457 
L 374.316433 264.763944 
L 374.643007 267.927609 
L 374.969582 255.102597 
L 375.296156 261.283912 
L 375.622731 256.903453 
L 375.949305 268.563384 
L 376.27588 259.601694 
L 376.602995 262.588924 
L 376.929569 267.084979 
L 377.256685 261.718916 
L 377.583259 261.283912 
L 377.909834 262.531126 
L 378.236408 266.011158 
L 378.562983 260.064076 
L 379.216132 265.113772 
L 379.543247 264.502333 
L 379.869821 260.210091 
L 380.196937 268.12838 
L 380.524052 268.593804 
L 380.850626 266.969384 
L 381.177201 266.649975 
L 381.503775 265.606574 
L 381.83035 270.33382 
L 382.156925 271.261626 
L 382.483499 272.712653 
L 382.810074 266.738193 
L 383.136648 272.162053 
L 383.463223 270.914839 
L 383.789797 281.211961 
L 384.116372 285.072241 
L 384.442946 278.601937 
L 384.770061 275.00631 
L 385.096636 280.226358 
L 385.42321 276.746326 
L 385.749785 275.383516 
L 386.07636 269.174823 
L 386.402934 274.279275 
L 386.729509 268.855415 
L 387.056083 274.105882 
L 387.382658 272.131633 
L 387.709773 268.7094 
L 388.035807 274.860295 
L 388.362922 270.799244 
L 388.689496 273.062481 
L 389.016071 276.134887 
L 389.342645 282.866801 
L 389.66922 282.520015 
L 389.995794 280.865175 
L 390.322369 284.664615 
L 390.648943 281.184583 
L 390.974977 282.34358 
L 391.301552 275.7881 
L 391.628667 283.274427 
L 391.955242 278.574559 
L 392.281816 279.036941 
L 392.608391 281.473572 
L 392.934424 274.540886 
L 393.260999 277.643712 
L 393.914148 277.123532 
L 394.240723 287.82828 
L 394.567297 286.492848 
L 394.893872 289.945502 
L 395.220446 284.956645 
L 395.547021 295.488 
L 395.873595 287.305058 
L 396.20017 286.523268 
L 396.526744 291.62772 
L 396.853319 288.348459 
L 397.180434 289.626093 
L 397.507008 293.860538 
L 397.834124 293.25214 
L 398.160698 288.61007 
L 398.487273 288.032093 
L 398.487273 288.032093 
" style="fill:none;stroke:#1f77b4;stroke-linecap:square;stroke-width:1.5;"/>
   </g>
   <g id="patch_3">
    <path d="M 57.6 307.584 
L 57.6 41.472 
" style="fill:none;stroke:#000000;stroke-linecap:square;stroke-linejoin:miter;stroke-width:0.8;"/>
   </g>
   <g id="patch_4">
    <path d="M 414.72 307.584 
L 414.72 41.472 
" style="fill:none;stroke:#000000;stroke-linecap:square;stroke-linejoin:miter;stroke-width:0.8;"/>
   </g>
   <g id="patch_5">
    <path d="M 57.6 307.584 
L 414.72 307.584 
" style="fill:none;stroke:#000000;stroke-linecap:square;stroke-linejoin:miter;stroke-width:0.8;"/>
   </g>
   <g id="patch_6">
    <path d="M 57.6 41.472 
L 414.72 41.472 
" style="fill:none;stroke:#000000;stroke-linecap:square;stroke-linejoin:miter;stroke-width:0.8;"/>
   </g>
   <g id="text_19">
    <!-- Pressure in main chamber -->
    <defs>
     <path d="M 9.421875 54.6875 
L 18.40625 54.6875 
L 18.40625 0 
L 9.421875 0 
z
M 9.421875 75.984375 
L 18.40625 75.984375 
L 18.40625 64.59375 
L 9.421875 64.59375 
z
" id="DejaVuSans-69"/>
     <path d="M 54.890625 33.015625 
L 54.890625 0 
L 45.90625 0 
L 45.90625 32.71875 
Q 45.90625 40.484375 42.875 44.328125 
Q 39.84375 48.1875 33.796875 48.1875 
Q 26.515625 48.1875 22.3125 43.546875 
Q 18.109375 38.921875 18.109375 30.90625 
L 18.109375 0 
L 9.078125 0 
L 9.078125 54.6875 
L 18.109375 54.6875 
L 18.109375 46.1875 
Q 21.34375 51.125 25.703125 53.5625 
Q 30.078125 56 35.796875 56 
Q 45.21875 56 50.046875 50.171875 
Q 54.890625 44.34375 54.890625 33.015625 
z
" id="DejaVuSans-6e"/>
     <path d="M 52 44.1875 
Q 55.375 50.25 60.0625 53.125 
Q 64.75 56 71.09375 56 
Q 79.640625 56 84.28125 50.015625 
Q 88.921875 44.046875 88.921875 33.015625 
L 88.921875 0 
L 79.890625 0 
L 79.890625 32.71875 
Q 79.890625 40.578125 77.09375 44.375 
Q 74.3125 48.1875 68.609375 48.1875 
Q 61.625 48.1875 57.5625 43.546875 
Q 53.515625 38.921875 53.515625 30.90625 
L 53.515625 0 
L 44.484375 0 
L 44.484375 32.71875 
Q 44.484375 40.625 41.703125 44.40625 
Q 38.921875 48.1875 33.109375 48.1875 
Q 26.21875 48.1875 22.15625 43.53125 
Q 18.109375 38.875 18.109375 30.90625 
L 18.109375 0 
L 9.078125 0 
L 9.078125 54.6875 
L 18.109375 54.6875 
L 18.109375 46.1875 
Q 21.1875 51.21875 25.484375 53.609375 
Q 29.78125 56 35.6875 56 
Q 41.65625 56 45.828125 52.96875 
Q 50 49.953125 52 44.1875 
z
" id="DejaVuSans-6d"/>
     <path d="M 48.78125 52.59375 
L 48.78125 44.1875 
Q 44.96875 46.296875 41.140625 47.34375 
Q 37.3125 48.390625 33.40625 48.390625 
Q 24.65625 48.390625 19.8125 42.84375 
Q 14.984375 37.3125 14.984375 27.296875 
Q 14.984375 17.28125 19.8125 11.734375 
Q 24.65625 6.203125 33.40625 6.203125 
Q 37.3125 6.203125 41.140625 7.25 
Q 44.96875 8.296875 48.78125 10.40625 
L 48.78125 2.09375 
Q 45.015625 0.34375 40.984375 -0.53125 
Q 36.96875 -1.421875 32.421875 -1.421875 
Q 20.0625 -1.421875 12.78125 6.34375 
Q 5.515625 14.109375 5.515625 27.296875 
Q 5.515625 40.671875 12.859375 48.328125 
Q 20.21875 56 33.015625 56 
Q 37.15625 56 41.109375 55.140625 
Q 45.0625 54.296875 48.78125 52.59375 
z
" id="DejaVuSans-63"/>
     <path d="M 54.890625 33.015625 
L 54.890625 0 
L 45.90625 0 
L 45.90625 32.71875 
Q 45.90625 40.484375 42.875 44.328125 
Q 39.84375 48.1875 33.796875 48.1875 
Q 26.515625 48.1875 22.3125 43.546875 
Q 18.109375 38.921875 18.109375 30.90625 
L 18.109375 0 
L 9.078125 0 
L 9.078125 75.984375 
L 18.109375 75.984375 
L 18.109375 46.1875 
Q 21.34375 51.125 25.703125 53.5625 
Q 30.078125 56 35.796875 56 
Q 45.21875 56 50.046875 50.171875 
Q 54.890625 44.34375 54.890625 33.015625 
z
" id="DejaVuSans-68"/>
    </defs>
    <g transform="translate(157.405312 35.472)scale(0.12 -0.12)">
     <use xlink:href="#DejaVuSans-50"/>
     <use x="60.287109" xlink:href="#DejaVuSans-72"/>
     <use x="101.369141" xlink:href="#DejaVuSans-65"/>
     <use x="162.892578" xlink:href="#DejaVuSans-73"/>
     <use x="214.992188" xlink:href="#DejaVuSans-73"/>
     <use x="267.091797" xlink:href="#DejaVuSans-75"/>
     <use x="330.470703" xlink:href="#DejaVuSans-72"/>
     <use x="371.552734" xlink:href="#DejaVuSans-65"/>
     <use x="433.076172" xlink:href="#DejaVuSans-20"/>
     <use x="464.863281" xlink:href="#DejaVuSans-69"/>
     <use x="492.646484" xlink:href="#DejaVuSans-6e"/>
     <use x="556.025391" xlink:href="#DejaVuSans-20"/>
     <use x="587.8125" xlink:href="#DejaVuSans-6d"/>
     <use x="685.224609" xlink:href="#DejaVuSans-61"/>
     <use x="746.503906" xlink:href="#DejaVuSans-69"/>
     <use x="774.287109" xlink:href="#DejaVuSans-6e"/>
     <use x="837.666016" xlink:href="#DejaVuSans-20"/>
     <use x="869.453125" xlink:href="#DejaVuSans-63"/>
     <use x="924.433594" xlink:href="#DejaVuSans-68"/>
     <use x="987.8125" xlink:href="#DejaVuSans-61"/>
     <use x="1049.091797" xlink:href="#DejaVuSans-6d"/>
     <use x="1146.503906" xlink:href="#DejaVuSans-62"/>
     <use x="1209.980469" xlink:href="#DejaVuSans-65"/>
     <use x="1271.503906" xlink:href="#DejaVuSans-72"/>
    </g>
   </g>
  </g>
 </g>
 <defs>
  <clipPath id="pd14ab23414">
   <rect height="266.112" width="357.12" x="57.6" y="41.472"/>
  </clipPath>
 </defs>
</svg>
