<?xml version="1.0" encoding="utf-8" standalone="no"?>
<!DOCTYPE svg PUBLIC "-//W3C//DTD SVG 1.1//EN"
  "http://www.w3.org/Graphics/SVG/1.1/DTD/svg11.dtd">
<!-- Created with matplotlib (http://matplotlib.org/) -->
<svg height="345pt" version="1.1" viewBox="0 0 460 345" width="460pt" xmlns="http://www.w3.org/2000/svg" xmlns:xlink="http://www.w3.org/1999/xlink">
 <defs>
  <style type="text/css">
*{stroke-linecap:butt;stroke-linejoin:round;}
  </style>
 </defs>
 <g id="figure_1">
  <g id="patch_1">
   <path d="M 0 345.6 
L 460.8 345.6 
L 460.8 0 
L 0 0 
z
" style="fill:#ffffff;"/>
  </g>
  <g id="axes_1">
   <g id="patch_2">
    <path d="M 57.6 307.584 
L 414.72 307.584 
L 414.72 41.472 
L 57.6 41.472 
z
" style="fill:#ffffff;"/>
   </g>
   <g id="matplotlib.axis_1">
    <g id="xtick_1">
     <g id="line2d_1">
      <defs>
       <path d="M 0 0 
L 0 3.5 
" id="mb70599f10a" style="stroke:#000000;stroke-width:0.8;"/>
      </defs>
      <g>
       <use style="stroke:#000000;stroke-width:0.8;" x="73.832727" xlink:href="#mb70599f10a" y="307.584"/>
      </g>
     </g>
     <g id="text_1">
      <!-- 0 -->
      <defs>
       <path d="M 31.78125 66.40625 
Q 24.171875 66.40625 20.328125 58.90625 
Q 16.5 51.421875 16.5 36.375 
Q 16.5 21.390625 20.328125 13.890625 
Q 24.171875 6.390625 31.78125 6.390625 
Q 39.453125 6.390625 43.28125 13.890625 
Q 47.125 21.390625 47.125 36.375 
Q 47.125 51.421875 43.28125 58.90625 
Q 39.453125 66.40625 31.78125 66.40625 
z
M 31.78125 74.21875 
Q 44.046875 74.21875 50.515625 64.515625 
Q 56.984375 54.828125 56.984375 36.375 
Q 56.984375 17.96875 50.515625 8.265625 
Q 44.046875 -1.421875 31.78125 -1.421875 
Q 19.53125 -1.421875 13.0625 8.265625 
Q 6.59375 17.96875 6.59375 36.375 
Q 6.59375 54.828125 13.0625 64.515625 
Q 19.53125 74.21875 31.78125 74.21875 
z
" id="DejaVuSans-30"/>
      </defs>
      <g transform="translate(70.651477 322.182437)scale(0.1 -0.1)">
       <use xlink:href="#DejaVuSans-30"/>
      </g>
     </g>
    </g>
    <g id="xtick_2">
     <g id="line2d_2">
      <g>
       <use style="stroke:#000000;stroke-width:0.8;" x="118.924481" xlink:href="#mb70599f10a" y="307.584"/>
      </g>
     </g>
     <g id="text_2">
      <!-- 1000 -->
      <defs>
       <path d="M 12.40625 8.296875 
L 28.515625 8.296875 
L 28.515625 63.921875 
L 10.984375 60.40625 
L 10.984375 69.390625 
L 28.421875 72.90625 
L 38.28125 72.90625 
L 38.28125 8.296875 
L 54.390625 8.296875 
L 54.390625 0 
L 12.40625 0 
z
" id="DejaVuSans-31"/>
      </defs>
      <g transform="translate(106.199481 322.182437)scale(0.1 -0.1)">
       <use xlink:href="#DejaVuSans-31"/>
       <use x="63.623047" xlink:href="#DejaVuSans-30"/>
       <use x="127.246094" xlink:href="#DejaVuSans-30"/>
       <use x="190.869141" xlink:href="#DejaVuSans-30"/>
      </g>
     </g>
    </g>
    <g id="xtick_3">
     <g id="line2d_3">
      <g>
       <use style="stroke:#000000;stroke-width:0.8;" x="164.016234" xlink:href="#mb70599f10a" y="307.584"/>
      </g>
     </g>
     <g id="text_3">
      <!-- 2000 -->
      <defs>
       <path d="M 19.1875 8.296875 
L 53.609375 8.296875 
L 53.609375 0 
L 7.328125 0 
L 7.328125 8.296875 
Q 12.9375 14.109375 22.625 23.890625 
Q 32.328125 33.6875 34.8125 36.53125 
Q 39.546875 41.84375 41.421875 45.53125 
Q 43.3125 49.21875 43.3125 52.78125 
Q 43.3125 58.59375 39.234375 62.25 
Q 35.15625 65.921875 28.609375 65.921875 
Q 23.96875 65.921875 18.8125 64.3125 
Q 13.671875 62.703125 7.8125 59.421875 
L 7.8125 69.390625 
Q 13.765625 71.78125 18.9375 73 
Q 24.125 74.21875 28.421875 74.21875 
Q 39.75 74.21875 46.484375 68.546875 
Q 53.21875 62.890625 53.21875 53.421875 
Q 53.21875 48.921875 51.53125 44.890625 
Q 49.859375 40.875 45.40625 35.40625 
Q 44.1875 33.984375 37.640625 27.21875 
Q 31.109375 20.453125 19.1875 8.296875 
z
" id="DejaVuSans-32"/>
      </defs>
      <g transform="translate(151.291234 322.182437)scale(0.1 -0.1)">
       <use xlink:href="#DejaVuSans-32"/>
       <use x="63.623047" xlink:href="#DejaVuSans-30"/>
       <use x="127.246094" xlink:href="#DejaVuSans-30"/>
       <use x="190.869141" xlink:href="#DejaVuSans-30"/>
      </g>
     </g>
    </g>
    <g id="xtick_4">
     <g id="line2d_4">
      <g>
       <use style="stroke:#000000;stroke-width:0.8;" x="209.107987" xlink:href="#mb70599f10a" y="307.584"/>
      </g>
     </g>
     <g id="text_4">
      <!-- 3000 -->
      <defs>
       <path d="M 40.578125 39.3125 
Q 47.65625 37.796875 51.625 33 
Q 55.609375 28.21875 55.609375 21.1875 
Q 55.609375 10.40625 48.1875 4.484375 
Q 40.765625 -1.421875 27.09375 -1.421875 
Q 22.515625 -1.421875 17.65625 -0.515625 
Q 12.796875 0.390625 7.625 2.203125 
L 7.625 11.71875 
Q 11.71875 9.328125 16.59375 8.109375 
Q 21.484375 6.890625 26.8125 6.890625 
Q 36.078125 6.890625 40.9375 10.546875 
Q 45.796875 14.203125 45.796875 21.1875 
Q 45.796875 27.640625 41.28125 31.265625 
Q 36.765625 34.90625 28.71875 34.90625 
L 20.21875 34.90625 
L 20.21875 43.015625 
L 29.109375 43.015625 
Q 36.375 43.015625 40.234375 45.921875 
Q 44.09375 48.828125 44.09375 54.296875 
Q 44.09375 59.90625 40.109375 62.90625 
Q 36.140625 65.921875 28.71875 65.921875 
Q 24.65625 65.921875 20.015625 65.03125 
Q 15.375 64.15625 9.8125 62.3125 
L 9.8125 71.09375 
Q 15.4375 72.65625 20.34375 73.4375 
Q 25.25 74.21875 29.59375 74.21875 
Q 40.828125 74.21875 47.359375 69.109375 
Q 53.90625 64.015625 53.90625 55.328125 
Q 53.90625 49.265625 50.4375 45.09375 
Q 46.96875 40.921875 40.578125 39.3125 
z
" id="DejaVuSans-33"/>
      </defs>
      <g transform="translate(196.382987 322.182437)scale(0.1 -0.1)">
       <use xlink:href="#DejaVuSans-33"/>
       <use x="63.623047" xlink:href="#DejaVuSans-30"/>
       <use x="127.246094" xlink:href="#DejaVuSans-30"/>
       <use x="190.869141" xlink:href="#DejaVuSans-30"/>
      </g>
     </g>
    </g>
    <g id="xtick_5">
     <g id="line2d_5">
      <g>
       <use style="stroke:#000000;stroke-width:0.8;" x="254.199741" xlink:href="#mb70599f10a" y="307.584"/>
      </g>
     </g>
     <g id="text_5">
      <!-- 4000 -->
      <defs>
       <path d="M 37.796875 64.3125 
L 12.890625 25.390625 
L 37.796875 25.390625 
z
M 35.203125 72.90625 
L 47.609375 72.90625 
L 47.609375 25.390625 
L 58.015625 25.390625 
L 58.015625 17.1875 
L 47.609375 17.1875 
L 47.609375 0 
L 37.796875 0 
L 37.796875 17.1875 
L 4.890625 17.1875 
L 4.890625 26.703125 
z
" id="DejaVuSans-34"/>
      </defs>
      <g transform="translate(241.474741 322.182437)scale(0.1 -0.1)">
       <use xlink:href="#DejaVuSans-34"/>
       <use x="63.623047" xlink:href="#DejaVuSans-30"/>
       <use x="127.246094" xlink:href="#DejaVuSans-30"/>
       <use x="190.869141" xlink:href="#DejaVuSans-30"/>
      </g>
     </g>
    </g>
    <g id="xtick_6">
     <g id="line2d_6">
      <g>
       <use style="stroke:#000000;stroke-width:0.8;" x="299.291494" xlink:href="#mb70599f10a" y="307.584"/>
      </g>
     </g>
     <g id="text_6">
      <!-- 5000 -->
      <defs>
       <path d="M 10.796875 72.90625 
L 49.515625 72.90625 
L 49.515625 64.59375 
L 19.828125 64.59375 
L 19.828125 46.734375 
Q 21.96875 47.46875 24.109375 47.828125 
Q 26.265625 48.1875 28.421875 48.1875 
Q 40.625 48.1875 47.75 41.5 
Q 54.890625 34.8125 54.890625 23.390625 
Q 54.890625 11.625 47.5625 5.09375 
Q 40.234375 -1.421875 26.90625 -1.421875 
Q 22.3125 -1.421875 17.546875 -0.640625 
Q 12.796875 0.140625 7.71875 1.703125 
L 7.71875 11.625 
Q 12.109375 9.234375 16.796875 8.0625 
Q 21.484375 6.890625 26.703125 6.890625 
Q 35.15625 6.890625 40.078125 11.328125 
Q 45.015625 15.765625 45.015625 23.390625 
Q 45.015625 31 40.078125 35.4375 
Q 35.15625 39.890625 26.703125 39.890625 
Q 22.75 39.890625 18.8125 39.015625 
Q 14.890625 38.140625 10.796875 36.28125 
z
" id="DejaVuSans-35"/>
      </defs>
      <g transform="translate(286.566494 322.182437)scale(0.1 -0.1)">
       <use xlink:href="#DejaVuSans-35"/>
       <use x="63.623047" xlink:href="#DejaVuSans-30"/>
       <use x="127.246094" xlink:href="#DejaVuSans-30"/>
       <use x="190.869141" xlink:href="#DejaVuSans-30"/>
      </g>
     </g>
    </g>
    <g id="xtick_7">
     <g id="line2d_7">
      <g>
       <use style="stroke:#000000;stroke-width:0.8;" x="344.383247" xlink:href="#mb70599f10a" y="307.584"/>
      </g>
     </g>
     <g id="text_7">
      <!-- 6000 -->
      <defs>
       <path d="M 33.015625 40.375 
Q 26.375 40.375 22.484375 35.828125 
Q 18.609375 31.296875 18.609375 23.390625 
Q 18.609375 15.53125 22.484375 10.953125 
Q 26.375 6.390625 33.015625 6.390625 
Q 39.65625 6.390625 43.53125 10.953125 
Q 47.40625 15.53125 47.40625 23.390625 
Q 47.40625 31.296875 43.53125 35.828125 
Q 39.65625 40.375 33.015625 40.375 
z
M 52.59375 71.296875 
L 52.59375 62.3125 
Q 48.875 64.0625 45.09375 64.984375 
Q 41.3125 65.921875 37.59375 65.921875 
Q 27.828125 65.921875 22.671875 59.328125 
Q 17.53125 52.734375 16.796875 39.40625 
Q 19.671875 43.65625 24.015625 45.921875 
Q 28.375 48.1875 33.59375 48.1875 
Q 44.578125 48.1875 50.953125 41.515625 
Q 57.328125 34.859375 57.328125 23.390625 
Q 57.328125 12.15625 50.6875 5.359375 
Q 44.046875 -1.421875 33.015625 -1.421875 
Q 20.359375 -1.421875 13.671875 8.265625 
Q 6.984375 17.96875 6.984375 36.375 
Q 6.984375 53.65625 15.1875 63.9375 
Q 23.390625 74.21875 37.203125 74.21875 
Q 40.921875 74.21875 44.703125 73.484375 
Q 48.484375 72.75 52.59375 71.296875 
z
" id="DejaVuSans-36"/>
      </defs>
      <g transform="translate(331.658247 322.182437)scale(0.1 -0.1)">
       <use xlink:href="#DejaVuSans-36"/>
       <use x="63.623047" xlink:href="#DejaVuSans-30"/>
       <use x="127.246094" xlink:href="#DejaVuSans-30"/>
       <use x="190.869141" xlink:href="#DejaVuSans-30"/>
      </g>
     </g>
    </g>
    <g id="xtick_8">
     <g id="line2d_8">
      <g>
       <use style="stroke:#000000;stroke-width:0.8;" x="389.475001" xlink:href="#mb70599f10a" y="307.584"/>
      </g>
     </g>
     <g id="text_8">
      <!-- 7000 -->
      <defs>
       <path d="M 8.203125 72.90625 
L 55.078125 72.90625 
L 55.078125 68.703125 
L 28.609375 0 
L 18.3125 0 
L 43.21875 64.59375 
L 8.203125 64.59375 
z
" id="DejaVuSans-37"/>
      </defs>
      <g transform="translate(376.750001 322.182437)scale(0.1 -0.1)">
       <use xlink:href="#DejaVuSans-37"/>
       <use x="63.623047" xlink:href="#DejaVuSans-30"/>
       <use x="127.246094" xlink:href="#DejaVuSans-30"/>
       <use x="190.869141" xlink:href="#DejaVuSans-30"/>
      </g>
     </g>
    </g>
    <g id="text_9">
     <!-- t(s) -->
     <defs>
      <path d="M 18.3125 70.21875 
L 18.3125 54.6875 
L 36.8125 54.6875 
L 36.8125 47.703125 
L 18.3125 47.703125 
L 18.3125 18.015625 
Q 18.3125 11.328125 20.140625 9.421875 
Q 21.96875 7.515625 27.59375 7.515625 
L 36.8125 7.515625 
L 36.8125 0 
L 27.59375 0 
Q 17.1875 0 13.234375 3.875 
Q 9.28125 7.765625 9.28125 18.015625 
L 9.28125 47.703125 
L 2.6875 47.703125 
L 2.6875 54.6875 
L 9.28125 54.6875 
L 9.28125 70.21875 
z
" id="DejaVuSans-74"/>
      <path d="M 31 75.875 
Q 24.46875 64.65625 21.28125 53.65625 
Q 18.109375 42.671875 18.109375 31.390625 
Q 18.109375 20.125 21.3125 9.0625 
Q 24.515625 -2 31 -13.1875 
L 23.1875 -13.1875 
Q 15.875 -1.703125 12.234375 9.375 
Q 8.59375 20.453125 8.59375 31.390625 
Q 8.59375 42.28125 12.203125 53.3125 
Q 15.828125 64.359375 23.1875 75.875 
z
" id="DejaVuSans-28"/>
      <path d="M 44.28125 53.078125 
L 44.28125 44.578125 
Q 40.484375 46.53125 36.375 47.5 
Q 32.28125 48.484375 27.875 48.484375 
Q 21.1875 48.484375 17.84375 46.4375 
Q 14.5 44.390625 14.5 40.28125 
Q 14.5 37.15625 16.890625 35.375 
Q 19.28125 33.59375 26.515625 31.984375 
L 29.59375 31.296875 
Q 39.15625 29.25 43.1875 25.515625 
Q 47.21875 21.78125 47.21875 15.09375 
Q 47.21875 7.46875 41.1875 3.015625 
Q 35.15625 -1.421875 24.609375 -1.421875 
Q 20.21875 -1.421875 15.453125 -0.5625 
Q 10.6875 0.296875 5.421875 2 
L 5.421875 11.28125 
Q 10.40625 8.6875 15.234375 7.390625 
Q 20.0625 6.109375 24.8125 6.109375 
Q 31.15625 6.109375 34.5625 8.28125 
Q 37.984375 10.453125 37.984375 14.40625 
Q 37.984375 18.0625 35.515625 20.015625 
Q 33.0625 21.96875 24.703125 23.78125 
L 21.578125 24.515625 
Q 13.234375 26.265625 9.515625 29.90625 
Q 5.8125 33.546875 5.8125 39.890625 
Q 5.8125 47.609375 11.28125 51.796875 
Q 16.75 56 26.8125 56 
Q 31.78125 56 36.171875 55.265625 
Q 40.578125 54.546875 44.28125 53.078125 
z
" id="DejaVuSans-73"/>
      <path d="M 8.015625 75.875 
L 15.828125 75.875 
Q 23.140625 64.359375 26.78125 53.3125 
Q 30.421875 42.28125 30.421875 31.390625 
Q 30.421875 20.453125 26.78125 9.375 
Q 23.140625 -1.703125 15.828125 -13.1875 
L 8.015625 -13.1875 
Q 14.5 -2 17.703125 9.0625 
Q 20.90625 20.125 20.90625 31.390625 
Q 20.90625 42.671875 17.703125 53.65625 
Q 14.5 64.65625 8.015625 75.875 
z
" id="DejaVuSans-29"/>
     </defs>
     <g transform="translate(227.693594 335.860562)scale(0.1 -0.1)">
      <use xlink:href="#DejaVuSans-74"/>
      <use x="39.208984" xlink:href="#DejaVuSans-28"/>
      <use x="78.222656" xlink:href="#DejaVuSans-73"/>
      <use x="130.322266" xlink:href="#DejaVuSans-29"/>
     </g>
    </g>
   </g>
   <g id="matplotlib.axis_2">
    <g id="ytick_1">
     <g id="line2d_9">
      <defs>
       <path d="M 0 0 
L -3.5 0 
" id="mbdb4e1a3d8" style="stroke:#000000;stroke-width:0.8;"/>
      </defs>
      <g>
       <use style="stroke:#000000;stroke-width:0.8;" x="57.6" xlink:href="#mbdb4e1a3d8" y="299.623694"/>
      </g>
     </g>
     <g id="text_10">
      <!-- 0 -->
      <g transform="translate(44.2375 303.422913)scale(0.1 -0.1)">
       <use xlink:href="#DejaVuSans-30"/>
      </g>
     </g>
    </g>
    <g id="ytick_2">
     <g id="line2d_10">
      <g>
       <use style="stroke:#000000;stroke-width:0.8;" x="57.6" xlink:href="#mbdb4e1a3d8" y="248.522846"/>
      </g>
     </g>
     <g id="text_11">
      <!-- 50 -->
      <g transform="translate(37.875 252.322064)scale(0.1 -0.1)">
       <use xlink:href="#DejaVuSans-35"/>
       <use x="63.623047" xlink:href="#DejaVuSans-30"/>
      </g>
     </g>
    </g>
    <g id="ytick_3">
     <g id="line2d_11">
      <g>
       <use style="stroke:#000000;stroke-width:0.8;" x="57.6" xlink:href="#mbdb4e1a3d8" y="197.421998"/>
      </g>
     </g>
     <g id="text_12">
      <!-- 100 -->
      <g transform="translate(31.5125 201.221216)scale(0.1 -0.1)">
       <use xlink:href="#DejaVuSans-31"/>
       <use x="63.623047" xlink:href="#DejaVuSans-30"/>
       <use x="127.246094" xlink:href="#DejaVuSans-30"/>
      </g>
     </g>
    </g>
    <g id="ytick_4">
     <g id="line2d_12">
      <g>
       <use style="stroke:#000000;stroke-width:0.8;" x="57.6" xlink:href="#mbdb4e1a3d8" y="146.321149"/>
      </g>
     </g>
     <g id="text_13">
      <!-- 150 -->
      <g transform="translate(31.5125 150.120368)scale(0.1 -0.1)">
       <use xlink:href="#DejaVuSans-31"/>
       <use x="63.623047" xlink:href="#DejaVuSans-35"/>
       <use x="127.246094" xlink:href="#DejaVuSans-30"/>
      </g>
     </g>
    </g>
    <g id="ytick_5">
     <g id="line2d_13">
      <g>
       <use style="stroke:#000000;stroke-width:0.8;" x="57.6" xlink:href="#mbdb4e1a3d8" y="95.220301"/>
      </g>
     </g>
     <g id="text_14">
      <!-- 200 -->
      <g transform="translate(31.5125 99.01952)scale(0.1 -0.1)">
       <use xlink:href="#DejaVuSans-32"/>
       <use x="63.623047" xlink:href="#DejaVuSans-30"/>
       <use x="127.246094" xlink:href="#DejaVuSans-30"/>
      </g>
     </g>
    </g>
    <g id="ytick_6">
     <g id="line2d_14">
      <g>
       <use style="stroke:#000000;stroke-width:0.8;" x="57.6" xlink:href="#mbdb4e1a3d8" y="44.119453"/>
      </g>
     </g>
     <g id="text_15">
      <!-- 250 -->
      <g transform="translate(31.5125 47.918672)scale(0.1 -0.1)">
       <use xlink:href="#DejaVuSans-32"/>
       <use x="63.623047" xlink:href="#DejaVuSans-35"/>
       <use x="127.246094" xlink:href="#DejaVuSans-30"/>
      </g>
     </g>
    </g>
    <g id="text_16">
     <!-- Current (nA) -->
     <defs>
      <path d="M 64.40625 67.28125 
L 64.40625 56.890625 
Q 59.421875 61.53125 53.78125 63.8125 
Q 48.140625 66.109375 41.796875 66.109375 
Q 29.296875 66.109375 22.65625 58.46875 
Q 16.015625 50.828125 16.015625 36.375 
Q 16.015625 21.96875 22.65625 14.328125 
Q 29.296875 6.6875 41.796875 6.6875 
Q 48.140625 6.6875 53.78125 8.984375 
Q 59.421875 11.28125 64.40625 15.921875 
L 64.40625 5.609375 
Q 59.234375 2.09375 53.4375 0.328125 
Q 47.65625 -1.421875 41.21875 -1.421875 
Q 24.65625 -1.421875 15.125 8.703125 
Q 5.609375 18.84375 5.609375 36.375 
Q 5.609375 53.953125 15.125 64.078125 
Q 24.65625 74.21875 41.21875 74.21875 
Q 47.75 74.21875 53.53125 72.484375 
Q 59.328125 70.75 64.40625 67.28125 
z
" id="DejaVuSans-43"/>
      <path d="M 8.5 21.578125 
L 8.5 54.6875 
L 17.484375 54.6875 
L 17.484375 21.921875 
Q 17.484375 14.15625 20.5 10.265625 
Q 23.53125 6.390625 29.59375 6.390625 
Q 36.859375 6.390625 41.078125 11.03125 
Q 45.3125 15.671875 45.3125 23.6875 
L 45.3125 54.6875 
L 54.296875 54.6875 
L 54.296875 0 
L 45.3125 0 
L 45.3125 8.40625 
Q 42.046875 3.421875 37.71875 1 
Q 33.40625 -1.421875 27.6875 -1.421875 
Q 18.265625 -1.421875 13.375 4.4375 
Q 8.5 10.296875 8.5 21.578125 
z
M 31.109375 56 
z
" id="DejaVuSans-75"/>
      <path d="M 41.109375 46.296875 
Q 39.59375 47.171875 37.8125 47.578125 
Q 36.03125 48 33.890625 48 
Q 26.265625 48 22.1875 43.046875 
Q 18.109375 38.09375 18.109375 28.8125 
L 18.109375 0 
L 9.078125 0 
L 9.078125 54.6875 
L 18.109375 54.6875 
L 18.109375 46.1875 
Q 20.953125 51.171875 25.484375 53.578125 
Q 30.03125 56 36.53125 56 
Q 37.453125 56 38.578125 55.875 
Q 39.703125 55.765625 41.0625 55.515625 
z
" id="DejaVuSans-72"/>
      <path d="M 56.203125 29.59375 
L 56.203125 25.203125 
L 14.890625 25.203125 
Q 15.484375 15.921875 20.484375 11.0625 
Q 25.484375 6.203125 34.421875 6.203125 
Q 39.59375 6.203125 44.453125 7.46875 
Q 49.3125 8.734375 54.109375 11.28125 
L 54.109375 2.78125 
Q 49.265625 0.734375 44.1875 -0.34375 
Q 39.109375 -1.421875 33.890625 -1.421875 
Q 20.796875 -1.421875 13.15625 6.1875 
Q 5.515625 13.8125 5.515625 26.8125 
Q 5.515625 40.234375 12.765625 48.109375 
Q 20.015625 56 32.328125 56 
Q 43.359375 56 49.78125 48.890625 
Q 56.203125 41.796875 56.203125 29.59375 
z
M 47.21875 32.234375 
Q 47.125 39.59375 43.09375 43.984375 
Q 39.0625 48.390625 32.421875 48.390625 
Q 24.90625 48.390625 20.390625 44.140625 
Q 15.875 39.890625 15.1875 32.171875 
z
" id="DejaVuSans-65"/>
      <path d="M 54.890625 33.015625 
L 54.890625 0 
L 45.90625 0 
L 45.90625 32.71875 
Q 45.90625 40.484375 42.875 44.328125 
Q 39.84375 48.1875 33.796875 48.1875 
Q 26.515625 48.1875 22.3125 43.546875 
Q 18.109375 38.921875 18.109375 30.90625 
L 18.109375 0 
L 9.078125 0 
L 9.078125 54.6875 
L 18.109375 54.6875 
L 18.109375 46.1875 
Q 21.34375 51.125 25.703125 53.5625 
Q 30.078125 56 35.796875 56 
Q 45.21875 56 50.046875 50.171875 
Q 54.890625 44.34375 54.890625 33.015625 
z
" id="DejaVuSans-6e"/>
      <path id="DejaVuSans-20"/>
      <path d="M 34.1875 63.1875 
L 20.796875 26.90625 
L 47.609375 26.90625 
z
M 28.609375 72.90625 
L 39.796875 72.90625 
L 67.578125 0 
L 57.328125 0 
L 50.6875 18.703125 
L 17.828125 18.703125 
L 11.1875 0 
L 0.78125 0 
z
" id="DejaVuSans-41"/>
     </defs>
     <g transform="translate(25.432812 205.581906)rotate(-90)scale(0.1 -0.1)">
      <use xlink:href="#DejaVuSans-43"/>
      <use x="69.824219" xlink:href="#DejaVuSans-75"/>
      <use x="133.203125" xlink:href="#DejaVuSans-72"/>
      <use x="174.300781" xlink:href="#DejaVuSans-72"/>
      <use x="215.382812" xlink:href="#DejaVuSans-65"/>
      <use x="276.90625" xlink:href="#DejaVuSans-6e"/>
      <use x="340.285156" xlink:href="#DejaVuSans-74"/>
      <use x="379.494141" xlink:href="#DejaVuSans-20"/>
      <use x="411.28125" xlink:href="#DejaVuSans-28"/>
      <use x="450.294922" xlink:href="#DejaVuSans-6e"/>
      <use x="513.673828" xlink:href="#DejaVuSans-41"/>
      <use x="582.082031" xlink:href="#DejaVuSans-29"/>
     </g>
    </g>
   </g>
   <g id="line2d_15">
    <path clip-path="url(#p3ca4e7d6da)" d="M 73.832727 295.267551 
L 81.994515 295.334289 
L 82.535616 295.340932 
L 89.164104 295.40164 
L 89.56993 295.378338 
L 92.455802 295.376294 
L 92.771444 295.413597 
L 93.989057 295.41278 
L 94.394882 295.406239 
L 95.837819 295.441396 
L 97.370938 295.437717 
L 101.925431 295.451718 
L 128.711375 295.253856 
L 129.072109 295.249461 
L 129.838669 295.253754 
L 130.740504 295.231065 
L 136.286835 295.217881 
L 136.331972 295.132134 
L 136.377108 295.22156 
L 137.18876 295.204288 
L 137.910273 295.01869 
L 138.271007 292.974451 
L 138.767016 288.300257 
L 139.172842 282.178171 
L 139.714124 270.230077 
L 140.435772 248.386304 
L 141.067237 227.09534 
L 141.202512 261.379819 
L 141.247604 260.536655 
L 142.194666 162.62743 
L 142.375033 133.57762 
L 142.420125 136.198071 
L 142.465217 135.136196 
L 142.780859 143.442128 
L 142.871042 143.634267 
L 142.961226 146.552125 
L 143.006363 141.080246 
L 143.051455 144.754397 
L 143.502372 177.096124 
L 143.547464 176.055711 
L 143.592556 175.926937 
L 143.637647 174.42355 
L 143.682739 174.754683 
L 143.727831 175.745018 
L 143.908198 168.05945 
L 144.268977 156.50146 
L 144.314114 159.908865 
L 144.359206 158.752964 
L 144.539573 150.953952 
L 144.584664 143.754865 
L 144.629756 146.145363 
L 144.674893 150.153713 
L 144.719985 147.996235 
L 144.765076 146.182155 
L 144.900352 137.832277 
L 144.945443 136.524095 
L 144.99058 138.782752 
L 145.035672 136.692728 
L 145.351314 123.486224 
L 145.531862 142.686857 
L 145.622045 140.023481 
L 145.667137 138.925835 
L 145.712229 133.549003 
L 145.757366 139.220176 
L 145.847639 136.270635 
L 145.892776 129.83295 
L 145.937868 130.469666 
L 146.118235 138.335109 
L 146.163327 138.133772 
L 146.433877 123.222544 
L 146.479014 126.406127 
L 146.569243 134.330846 
L 146.614334 133.610324 
L 146.659426 130.373597 
L 146.704518 132.124312 
L 146.794746 136.316625 
L 146.839838 134.06921 
L 146.930067 124.847551 
L 146.975159 124.858793 
L 147.065342 124.207768 
L 147.426076 103.776627 
L 147.561396 88.316577 
L 147.606488 88.806123 
L 147.741854 76.761653 
L 147.786945 76.875097 
L 147.832037 76.658429 
L 147.877129 76.705442 
L 147.922221 71.322479 
L 147.967312 76.788225 
L 148.057496 76.624703 
L 148.147679 77.415744 
L 148.282955 56.82619 
L 148.41823 78.321251 
L 148.463367 74.995608 
L 148.508459 76.488774 
L 148.598642 76.813776 
L 148.643734 76.361022 
L 148.688826 77.648764 
L 148.733917 76.657407 
L 148.779009 76.728948 
L 148.824101 78.164882 
L 148.869193 77.562914 
L 149.229927 69.165001 
L 149.410294 57.572262 
L 149.545569 53.568 
L 149.996486 89.861866 
L 150.041578 89.101486 
L 150.08667 87.776952 
L 150.312129 100.569538 
L 150.808138 113.71983 
L 150.988505 116.405691 
L 151.168872 119.907121 
L 151.213964 119.554525 
L 151.304147 123.576162 
L 151.349239 121.813183 
L 151.529606 127.473113 
L 151.574698 125.149046 
L 151.709973 131.796244 
L 151.755065 128.688291 
L 151.800157 132.289879 
L 151.845248 132.532097 
L 151.89034 126.925312 
L 151.935432 131.665426 
L 152.025615 126.324366 
L 152.115799 126.612574 
L 152.160891 126.797559 
L 152.296166 118.116547 
L 152.341258 118.840135 
L 152.386349 118.856488 
L 152.611808 110.102912 
L 152.747083 100.669696 
L 152.92745 82.385812 
L 153.198001 68.598803 
L 153.243093 68.745974 
L 153.288184 64.192888 
L 153.333276 69.051557 
L 153.378368 68.846132 
L 153.558735 70.5529 
L 153.784194 83.026617 
L 153.829285 81.273858 
L 153.964561 89.671771 
L 154.009652 90.403535 
L 154.054744 89.184269 
L 154.099836 89.830184 
L 154.280203 78.218027 
L 154.370386 76.383507 
L 154.505662 72.151334 
L 154.595845 67.929382 
L 154.640937 68.442435 
L 154.776212 72.62044 
L 154.821304 72.604088 
L 154.866396 72.11863 
L 154.911487 72.280109 
L 154.956579 75.482088 
L 155.001671 74.235227 
L 155.046763 73.437032 
L 155.091855 77.099941 
L 155.136946 75.831618 
L 155.227175 73.127361 
L 155.272267 75.01707 
L 155.317358 73.95826 
L 155.452634 71.331677 
L 155.542907 87.936386 
L 155.678228 105.933083 
L 155.723319 106.900933 
L 155.903867 139.503274 
L 155.948959 138.456729 
L 156.039142 140.296359 
L 156.084234 140.156343 
L 156.129326 147.513843 
L 156.174417 140.314756 
L 156.219509 140.693924 
L 156.264601 140.437398 
L 156.309693 138.703035 
L 156.354784 140.902416 
L 156.399876 140.864601 
L 156.49006 141.518692 
L 156.580243 147.894034 
L 156.625335 145.60165 
L 156.670472 155.008294 
L 156.760655 154.436986 
L 156.896021 116.833916 
L 157.031341 101.838883 
L 157.076433 101.749968 
L 157.301892 94.712359 
L 157.346983 95.96433 
L 157.482304 84.28983 
L 157.572532 76.863855 
L 157.843128 104.599351 
L 157.88822 101.917578 
L 157.933311 105.108315 
L 158.248954 126.238516 
L 158.339137 130.250955 
L 158.519549 143.048651 
L 158.7901 151.272822 
L 159.105742 161.398966 
L 159.150834 161.116889 
L 159.241017 165.134438 
L 159.421429 143.743623 
L 159.737162 102.908935 
L 159.782254 103.915622 
L 159.872482 91.43475 
L 160.052849 140.939208 
L 160.233306 152.020938 
L 160.278443 127.22374 
L 160.32358 139.831342 
L 160.368672 141.092511 
L 160.413764 164.216666 
L 160.458855 143.332772 
L 160.503947 144.072712 
L 160.594176 153.08588 
L 160.684449 164.984201 
L 160.729541 163.609588 
L 160.95518 106.334736 
L 161.045364 104.038264 
L 161.225731 95.201905 
L 161.315959 86.545421 
L 161.631737 139.97749 
L 161.857196 151.857415 
L 161.992471 156.654763 
L 162.037563 155.778894 
L 162.21793 166.612274 
L 162.398297 169.826518 
L 162.488525 166.02257 
L 162.623801 116.550817 
L 162.849259 105.793067 
L 162.894351 139.420491 
L 162.939443 100.348782 
L 162.984535 95.877458 
L 163.029626 133.914886 
L 163.11981 133.583752 
L 163.210084 92.140964 
L 163.300312 112.321711 
L 163.390586 98.821889 
L 163.435723 90.90228 
L 163.48086 96.930136 
L 163.75159 148.400954 
L 163.796682 148.685075 
L 164.157461 156.449338 
L 164.202553 155.098231 
L 164.247645 156.904135 
L 164.337828 157.227092 
L 164.563287 159.322227 
L 164.698562 161.671844 
L 164.743654 159.4602 
L 165.014205 174.07402 
L 165.059296 173.11639 
L 165.194572 178.665942 
L 165.374939 173.077554 
L 165.510214 106.47373 
L 165.735763 97.2163 
L 165.7809 96.070619 
L 165.825991 99.231718 
L 165.871083 128.782316 
L 165.961312 121.847931 
L 166.141814 102.090299 
L 166.231998 102.920177 
L 166.277089 104.670892 
L 166.322181 103.516013 
L 166.367273 103.355556 
L 166.412365 103.417899 
L 166.54764 106.229468 
L 166.592732 105.798177 
L 166.637823 106.434893 
L 166.682915 105.834969 
L 166.81819 107.964853 
L 167.043649 113.669752 
L 167.088741 113.863935 
L 167.269108 115.303957 
L 167.3142 115.070937 
L 167.359291 115.382652 
L 167.404383 115.188469 
L 167.449475 117.168116 
L 167.494567 115.11795 
L 167.539658 114.927854 
L 167.58475 115.331551 
L 167.629842 114.91048 
L 167.720025 114.490431 
L 167.810254 106.598416 
L 167.855346 107.403766 
L 167.900438 106.311229 
L 167.945529 107.499835 
L 167.990621 106.511545 
L 168.125896 108.127354 
L 168.351355 100.525591 
L 168.396447 104.959101 
L 168.48663 103.977965 
L 168.531722 104.840547 
L 168.621951 103.709174 
L 168.983 166.71141 
L 169.073184 166.279097 
L 169.118276 164.92288 
L 169.253596 177.100212 
L 169.298688 177.713422 
L 169.388916 185.148596 
L 169.569328 164.224843 
L 169.839879 150.918182 
L 169.930063 152.629038 
L 170.155521 163.12413 
L 170.200613 162.797085 
L 170.335888 172.129122 
L 170.38098 165.116041 
L 170.426072 171.011035 
L 170.516255 177.541724 
L 170.561347 174.346899 
L 170.606439 147.870527 
L 170.651531 176.461452 
L 170.696622 182.864388 
L 170.741714 171.886904 
L 170.786851 174.68212 
L 170.877034 183.360066 
L 170.922126 181.554162 
L 171.01231 179.38442 
L 171.057401 164.692926 
L 171.147585 165.636248 
L 171.192677 163.974448 
L 171.373044 150.231386 
L 171.463227 148.800563 
L 171.598593 141.319398 
L 171.64373 141.626004 
L 171.688866 177.973015 
L 171.733958 137.186362 
L 171.77905 137.696348 
L 171.959417 130.893803 
L 172.184876 129.799223 
L 172.229967 130.014869 
L 172.275059 130.328628 
L 172.320151 129.962746 
L 172.365243 130.239713 
L 172.410379 130.053705 
L 172.455516 130.082322 
L 172.545745 132.355288 
L 172.635928 132.14884 
L 172.68102 132.802931 
L 172.726112 136.299251 
L 172.771204 134.20105 
L 172.816295 133.761583 
L 172.861432 137.879289 
L 172.951616 137.700436 
L 173.086891 133.513233 
L 173.132028 186.799153 
L 173.177165 135.302785 
L 173.222302 132.692553 
L 173.267393 184.525166 
L 173.31253 131.399702 
L 173.357622 182.12036 
L 173.402714 180.710998 
L 173.537989 190.211668 
L 173.673264 134.241931 
L 173.718356 134.310406 
L 173.853676 133.077854 
L 173.898813 133.137131 
L 173.94395 133.779979 
L 174.034179 133.601126 
L 174.07927 132.362442 
L 174.124362 125.670275 
L 174.169454 132.023132 
L 174.259637 132.977696 
L 174.304729 135.679909 
L 174.394913 134.624165 
L 174.485096 137.80366 
L 174.530233 135.952787 
L 174.57537 136.228732 
L 174.620507 138.291162 
L 174.665644 136.507743 
L 174.710735 136.773467 
L 174.755827 136.706014 
L 174.936194 140.364835 
L 174.981286 137.414272 
L 175.026378 139.74958 
L 175.071469 141.677104 
L 175.116561 137.240529 
L 175.206745 138.977958 
L 175.251881 140.962715 
L 175.296973 135.669689 
L 175.387247 136.456642 
L 175.567704 133.744209 
L 175.612796 157.389593 
L 175.657933 132.162126 
L 175.883572 123.842908 
L 176.018937 110.57304 
L 176.064029 108.208093 
L 176.289578 137.92017 
L 176.424853 146.330348 
L 176.469945 145.569967 
L 176.515037 147.18271 
L 176.695494 163.755737 
L 176.830769 160.716258 
L 177.056228 152.978568 
L 177.10132 153.037845 
L 177.146411 152.781319 
L 177.326778 159.752496 
L 177.37187 159.803597 
L 177.462054 158.514834 
L 177.642421 166.253546 
L 177.958063 177.797228 
L 178.093338 182.819419 
L 178.13843 137.559398 
L 178.183567 150.905918 
L 178.318932 163.385767 
L 178.364024 161.916106 
L 178.499344 192.777952 
L 178.63462 192.728896 
L 178.679711 192.233217 
L 178.724803 186.738854 
L 178.769895 189.975582 
L 178.814987 191.946031 
L 178.860078 190.275033 
L 178.90517 190.845318 
L 179.040445 187.578952 
L 179.130719 191.644536 
L 179.175856 189.334777 
L 179.220993 190.666465 
L 179.266085 191.598545 
L 179.356268 186.953478 
L 179.40136 188.02864 
L 179.446452 187.716924 
L 179.536635 184.81644 
L 179.626819 188.339333 
L 179.67191 183.172015 
L 179.717002 184.030509 
L 179.762094 187.856941 
L 179.852277 187.370461 
L 180.032825 192.363014 
L 180.077917 192.159632 
L 180.16819 192.520404 
L 180.348647 194.281339 
L 180.438831 194.405004 
L 180.483923 194.966091 
L 180.574106 180.534189 
L 180.619198 197.166493 
L 180.66429 176.082283 
L 180.709381 177.22081 
L 180.754473 174.189508 
L 180.79961 178.07215 
L 180.844702 177.235119 
L 180.889839 195.422932 
L 180.980022 192.632826 
L 181.025114 191.950119 
L 181.250618 181.956837 
L 181.295755 182.270596 
L 181.385938 179.587802 
L 181.656489 171.219527 
L 181.70158 170.798456 
L 182.062405 145.77948 
L 182.107541 149.288065 
L 182.152633 148.645216 
L 182.378137 126.177195 
L 182.423229 136.372836 
L 182.468321 135.428493 
L 182.513412 127.280973 
L 182.603596 130.729259 
L 182.829055 118.754286 
L 182.874191 118.97913 
L 182.919328 118.703185 
L 183.009512 113.679972 
L 183.054604 150.602379 
L 183.144832 148.7791 
L 183.235016 159.765783 
L 183.280107 159.183233 
L 183.325244 152.093501 
L 183.370336 155.860656 
L 183.415428 118.063402 
L 183.505611 119.680233 
L 183.550703 118.88306 
L 183.595795 119.606648 
L 183.685978 121.133541 
L 183.73107 118.797211 
L 183.776162 123.949198 
L 183.866345 122.238342 
L 184.001621 199.805341 
L 184.317263 187.978561 
L 184.49763 179.51115 
L 185.26419 117.313242 
L 185.309281 115.088311 
L 185.354373 116.660173 
L 185.805291 136.173543 
L 185.850382 135.462219 
L 185.895474 136.334 
L 185.940566 136.754049 
L 186.166025 141.687325 
L 186.391483 145.993082 
L 186.436575 145.668081 
L 186.481667 149.449543 
L 186.57185 148.458187 
L 186.616942 148.904808 
L 186.797309 155.125826 
L 186.842401 156.469778 
L 186.887493 163.354084 
L 186.932584 160.302341 
L 187.248542 116.483364 
L 187.293634 116.717406 
L 187.383818 119.033297 
L 187.428955 126.360136 
L 187.474046 126.334586 
L 187.519138 122.241408 
L 187.56423 127.710221 
L 187.654413 128.089389 
L 187.699505 122.513264 
L 187.789779 156.255154 
L 187.879962 153.472202 
L 187.925099 162.180809 
L 188.015283 158.388104 
L 188.19565 144.468233 
L 188.240786 154.579047 
L 188.285878 151.356627 
L 188.691704 117.765996 
L 188.736841 120.2311 
L 188.781933 116.760331 
L 188.827024 119.980706 
L 188.872116 120.870883 
L 188.962345 120.145251 
L 189.052528 126.459272 
L 189.097665 123.201082 
L 189.142757 125.571139 
L 189.323124 137.78833 
L 189.683858 163.12413 
L 189.728995 159.72899 
L 190.044637 201.919894 
L 190.450463 164.735851 
L 190.630875 142.220817 
L 190.676012 145.683411 
L 190.901696 167.783506 
L 190.946833 171.640598 
L 190.991924 167.412514 
L 191.172292 149.310549 
L 191.217428 159.659493 
L 191.307612 155.442651 
L 191.442977 166.164631 
L 191.668436 149.520063 
L 191.713573 164.623429 
L 191.758665 155.816709 
L 191.984123 131.310786 
L 192.16449 122.207681 
L 192.209627 124.826089 
L 192.254719 123.249117 
L 192.299811 123.183707 
L 192.389994 119.09564 
L 192.435086 120.836134 
L 192.480178 120.771747 
L 192.52527 121.211215 
L 192.660545 125.887964 
L 192.705682 121.290932 
L 192.795865 123.155091 
L 192.841002 119.380782 
L 192.886094 120.951622 
L 192.931186 122.436613 
L 192.976277 120.845333 
L 193.021369 122.038026 
L 193.156644 124.647236 
L 193.201781 119.943914 
L 193.291965 121.450367 
L 193.382193 118.841157 
L 193.472467 132.171325 
L 193.56265 128.669894 
L 193.652834 124.489845 
L 193.697971 133.050259 
L 193.788154 129.403703 
L 193.968521 124.345741 
L 194.013613 123.663033 
L 194.103797 123.801006 
L 194.239072 118.891236 
L 194.780173 141.980643 
L 195.095815 153.253491 
L 195.546733 197.606983 
L 195.591824 196.038187 
L 195.772191 204.996165 
L 197.170036 160.222624 
L 197.350403 143.730336 
L 197.395495 146.396779 
L 197.621134 181.07177 
L 197.756544 202.761014 
L 197.891865 200.591272 
L 198.252734 154.107897 
L 198.297826 154.596421 
L 198.342917 154.488087 
L 198.388009 155.824885 
L 198.523284 152.768032 
L 198.568376 154.618905 
L 198.613468 152.851838 
L 198.65856 152.849794 
L 198.748743 153.500819 
L 199.109477 167.814166 
L 199.154614 160.426006 
L 199.199706 163.035215 
L 199.470256 175.97906 
L 199.56044 174.791476 
L 199.966266 157.610349 
L 200.011357 159.706506 
L 200.056449 157.421276 
L 200.372182 138.405628 
L 200.417273 137.763801 
L 200.462365 140.031657 
L 200.507457 137.307982 
L 200.59764 137.542024 
L 200.642732 137.161833 
L 200.687824 137.590059 
L 200.778007 138.138882 
L 200.958374 141.450217 
L 201.09365 144.663438 
L 201.138786 138.436289 
L 201.183878 141.429776 
L 201.274062 142.913745 
L 201.319153 145.016034 
L 201.36429 140.805324 
L 201.454474 141.885596 
L 201.589749 144.389537 
L 201.679978 140.879931 
L 201.725069 141.241725 
L 201.815253 142.191179 
L 201.86039 138.49761 
L 201.905482 139.738338 
L 202.13094 146.303775 
L 202.176077 142.843226 
L 202.221169 145.27767 
L 202.581903 154.703733 
L 202.717178 161.026952 
L 202.897545 170.214884 
L 203.393555 202.187663 
L 203.438646 201.940335 
L 203.52883 202.545369 
L 203.573922 207.023847 
L 203.754514 149.414795 
L 204.16034 158.895024 
L 204.43089 182.028378 
L 204.611393 163.121064 
L 204.881943 192.248548 
L 204.92708 181.246535 
L 204.972172 183.672803 
L 205.062355 200.474762 
L 205.197721 180.95526 
L 205.242812 184.037663 
L 205.287949 173.674411 
L 205.333041 178.076238 
L 205.648683 202.781455 
L 205.738867 202.421705 
L 205.783959 202.985858 
L 205.874142 202.940889 
L 205.919234 206.374866 
L 206.009417 206.210321 
L 206.054509 205.902694 
L 206.144738 200.410375 
L 206.189829 201.276024 
L 206.370196 202.573985 
L 206.415288 202.636328 
L 206.505472 203.355828 
L 206.73093 207.855769 
L 206.776022 205.247581 
L 206.866206 206.209299 
L 206.911297 206.324787 
L 207.001481 205.151512 
L 207.046573 205.680917 
L 207.181983 183.989629 
L 207.227075 185.143486 
L 207.452534 192.821899 
L 207.542717 192.364036 
L 207.587809 192.51325 
L 207.632901 196.746444 
L 207.723084 182.599686 
L 207.813268 185.182322 
L 207.85836 184.150085 
L 207.99368 165.085381 
L 208.038772 166.379254 
L 208.354594 122.671677 
L 208.399731 131.481463 
L 208.625325 185.855832 
L 208.715509 188.882024 
L 208.850829 205.911892 
L 209.031241 184.290102 
L 209.211698 142.725694 
L 209.482249 122.700293 
L 209.527341 124.746371 
L 209.752799 139.626938 
L 210.384084 189.686351 
L 210.474267 197.931984 
L 210.609543 207.232338 
L 210.654634 205.717709 
L 210.744818 202.957241 
L 211.015368 163.737341 
L 211.240827 152.029114 
L 211.466286 147.777524 
L 211.511378 147.657948 
L 211.55647 147.714159 
L 211.601561 148.614556 
L 211.646653 147.867461 
L 211.691745 147.772414 
L 211.736837 147.853153 
L 211.82702 148.157714 
L 211.917204 147.915496 
L 211.962295 148.024852 
L 212.007387 147.875637 
L 212.052479 146.977284 
L 212.187889 183.445916 
L 212.458575 207.238471 
L 212.503712 183.56958 
L 212.593941 192.003264 
L 212.684124 194.944628 
L 212.909583 202.673121 
L 213.135042 206.869522 
L 213.180133 207.083124 
L 213.225225 208.784782 
L 213.3605 203.538769 
L 213.405592 203.740106 
L 213.450684 203.713534 
L 214.036877 170.549084 
L 214.081968 169.918499 
L 214.12706 172.763794 
L 214.172152 168.938385 
L 214.352519 167.233661 
L 214.397611 167.123283 
L 214.532886 164.015329 
L 214.668161 152.920313 
L 214.713253 158.653828 
L 214.803436 157.857677 
L 214.848528 146.895523 
L 214.89362 157.589908 
L 215.073987 160.784733 
L 215.209262 139.291717 
L 215.254354 140.034723 
L 215.434721 133.030841 
L 215.479813 135.522518 
L 215.66018 124.970193 
L 215.750408 124.263979 
L 215.840682 127.502751 
L 216.562421 206.542477 
L 216.607558 205.946641 
L 216.652649 207.758677 
L 216.833061 189.189651 
L 217.013474 159.647229 
L 217.05861 158.251153 
L 217.239068 139.332597 
L 217.284159 139.404139 
L 217.464526 122.97215 
L 217.599847 137.189428 
L 217.870487 181.089144 
L 218.050899 193.088646 
L 218.141128 206.283907 
L 218.186265 204.100878 
L 218.411859 152.935643 
L 218.502088 145.549527 
L 218.6825 131.944437 
L 218.772683 129.595842 
L 218.81782 123.030405 
L 218.908004 124.260913 
L 219.133507 134.148927 
L 219.178599 133.299631 
L 219.223691 133.722746 
L 219.494241 125.935999 
L 219.58447 129.96479 
L 219.629562 128.796625 
L 219.674654 127.69489 
L 219.71979 134.916462 
L 219.809974 133.627699 
L 219.900157 129.359756 
L 219.945294 139.885509 
L 220.035478 135.250662 
L 220.170753 130.943882 
L 220.21589 144.126879 
L 220.306073 139.599344 
L 220.576624 133.215826 
L 220.711899 142.274984 
L 220.756991 142.11555 
L 220.937358 151.77872 
L 221.117725 158.997226 
L 221.162817 156.570958 
L 221.253 165.156922 
L 221.298092 165.000553 
L 221.343184 164.300472 
L 221.433367 170.888393 
L 221.478459 168.602141 
L 221.523551 169.284849 
L 221.613734 174.744463 
L 221.703918 174.269225 
L 221.794146 176.205947 
L 221.88442 181.533722 
L 221.929512 128.184436 
L 221.974603 183.241512 
L 222.01974 144.240323 
L 222.064832 184.175636 
L 222.109924 149.213457 
L 222.155016 150.402063 
L 222.200107 149.74695 
L 222.245199 146.334436 
L 222.290291 153.258601 
L 222.380519 197.335126 
L 222.425656 192.759556 
L 222.561067 202.365494 
L 222.696477 207.152621 
L 222.741569 206.139802 
L 222.831753 207.128093 
L 223.057302 187.510477 
L 223.102393 187.825258 
L 223.14753 175.829845 
L 223.237714 178.798804 
L 223.463172 185.148596 
L 223.508309 173.457744 
L 223.598493 174.364273 
L 223.77886 160.891023 
L 223.823952 160.082608 
L 224.094502 148.172022 
L 224.139594 148.126031 
L 224.184686 148.290576 
L 224.229777 145.618002 
L 224.274869 147.260383 
L 224.410144 189.489102 
L 224.500373 173.451612 
L 224.680875 151.427146 
L 224.725967 152.706711 
L 224.861242 141.772152 
L 224.906334 140.997463 
L 224.951426 143.852978 
L 224.996563 139.832364 
L 225.17693 139.134326 
L 225.357342 130.410389 
L 225.44757 127.327986 
L 225.537754 124.016651 
L 225.582891 124.017673 
L 226.484726 177.046045 
L 226.529817 178.151868 
L 226.620001 183.870053 
L 226.665093 131.750254 
L 226.755276 131.989406 
L 226.800368 131.105361 
L 226.84546 131.92093 
L 226.890552 132.685399 
L 226.980735 129.678625 
L 227.025827 130.68429 
L 227.070919 130.78547 
L 227.11601 130.094586 
L 227.161102 125.0448 
L 227.251286 125.489378 
L 227.296377 125.62224 
L 227.431653 124.473493 
L 227.521836 122.580717 
L 227.566928 122.7238 
L 227.61202 122.679853 
L 227.702203 127.290172 
L 227.747295 126.296771 
L 227.792387 126.231362 
L 228.017845 141.723095 
L 228.333488 163.550311 
L 228.513855 167.203 
L 228.558946 166.936254 
L 228.604038 165.843717 
L 228.64913 167.18256 
L 228.829497 169.155052 
L 228.874589 169.088621 
L 228.964772 167.791682 
L 229.009864 168.284294 
L 229.145139 165.300004 
L 229.821515 126.971302 
L 229.866607 127.230895 
L 229.911699 127.586557 
L 229.956791 127.094966 
L 230.001883 126.3213 
L 230.092066 122.738108 
L 230.227341 125.134738 
L 230.272433 125.549677 
L 230.633167 137.636049 
L 231.038993 146.522487 
L 231.084085 146.160693 
L 231.174268 147.328858 
L 231.21936 146.694186 
L 231.354635 145.146852 
L 231.760461 136.779599 
L 231.98592 127.490487 
L 232.166287 122.810671 
L 232.211378 122.415151 
L 232.25647 123.377891 
L 232.436837 130.237669 
L 232.481929 127.78585 
L 233.248489 204.449386 
L 233.338672 208.829751 
L 233.383764 205.420302 
L 233.519039 197.09904 
L 233.78959 169.538309 
L 233.834682 171.808208 
L 233.879773 170.69421 
L 234.06014 167.774308 
L 234.105232 170.19751 
L 234.150324 165.905038 
L 234.240507 166.112508 
L 234.420874 166.774775 
L 234.55615 168.802457 
L 234.646333 167.551508 
L 234.961975 150.155757 
L 235.097386 124.735129 
L 235.142523 131.907644 
L 235.458436 207.886429 
L 235.728986 174.684164 
L 235.909443 147.469897 
L 236.270177 140.32191 
L 236.315269 142.083867 
L 236.585865 124.615553 
L 236.631002 127.29426 
L 236.676093 127.036711 
L 236.856505 151.834931 
L 236.901597 153.166619 
L 237.127056 169.767241 
L 237.172148 166.459994 
L 237.307423 174.912074 
L 237.352515 175.446589 
L 237.487835 183.073901 
L 237.578019 183.886405 
L 237.758386 188.133907 
L 237.803477 187.729189 
L 238.254395 207.816932 
L 239.020955 129.090965 
L 239.111138 192.162698 
L 239.15623 126.792449 
L 239.246413 140.690858 
L 239.562056 182.451493 
L 239.832606 196.826162 
L 239.877743 205.149468 
L 239.92288 203.104412 
L 240.058155 187.886579 
L 240.238612 148.778078 
L 240.374023 122.387556 
L 240.41916 129.677603 
L 240.509343 132.97463 
L 240.6898 177.809492 
L 241.050534 199.534507 
L 241.18581 205.91087 
L 241.321085 191.541312 
L 241.681864 133.332336 
L 241.817139 122.546991 
L 242.22301 176.74455 
L 242.673928 204.765189 
L 242.71902 205.029892 
L 242.764111 207.389729 
L 242.809203 206.332963 
L 243.575763 147.545526 
L 243.801222 146.22508 
L 243.936542 138.133772 
L 244.026725 137.108689 
L 244.162046 123.882767 
L 244.207183 126.057619 
L 244.252274 200.072088 
L 244.297411 199.188043 
L 244.342548 160.831746 
L 244.38764 207.661586 
L 244.432777 175.678587 
L 244.477868 202.458497 
L 244.523005 196.016724 
L 244.703372 164.772644 
L 244.793601 202.570919 
L 244.838693 153.038867 
L 244.883784 204.718177 
L 244.928921 203.135072 
L 245.470338 126.719886 
L 245.51543 127.856369 
L 245.740888 120.599027 
L 246.011484 144.089064 
L 246.056576 143.168227 
L 246.282035 168.906702 
L 246.507538 188.66229 
L 246.687951 207.422434 
L 247.003593 183.328384 
L 247.138913 122.998722 
L 247.184005 159.195497 
L 247.229097 156.71404 
L 247.274188 126.010606 
L 247.364372 137.279365 
L 247.499782 162.590637 
L 247.589966 170.395781 
L 247.635058 121.987948 
L 247.68015 179.387486 
L 247.725241 125.388198 
L 248.041019 184.658028 
L 248.086111 185.340735 
L 248.311569 204.393175 
L 248.356706 202.050712 
L 248.987991 137.194538 
L 249.123266 127.768476 
L 249.258541 121.109013 
L 250.160376 206.238938 
L 250.205468 201.720601 
L 250.385835 147.039627 
L 250.430927 145.463677 
L 250.611429 121.65477 
L 250.656566 122.277178 
L 250.746795 131.242311 
L 250.927297 183.412189 
L 251.242939 205.584847 
L 251.288031 201.419106 
L 251.513535 154.353181 
L 251.829177 120.101304 
L 251.874269 124.777032 
L 252.054636 167.262277 
L 252.325186 206.002852 
L 252.370278 184.581376 
L 252.41537 189.932657 
L 252.550645 205.214877 
L 252.595737 204.328788 
L 252.68592 195.768374 
L 252.821241 121.200995 
L 252.911514 125.312569 
L 252.956606 130.569824 
L 253.137018 175.211525 
L 253.45266 205.487755 
L 253.588026 190.541779 
L 253.813575 145.142764 
L 253.993942 120.18511 
L 254.039034 124.54299 
L 254.129217 143.779393 
L 254.309584 183.56958 
L 254.490041 206.075415 
L 254.535133 201.802362 
L 254.71559 155.770718 
L 254.760682 201.891278 
L 254.850866 192.039034 
L 255.121596 122.096281 
L 255.301963 178.075216 
L 255.482421 203.444744 
L 255.527512 202.182553 
L 255.617696 190.669532 
L 255.798108 148.117855 
L 256.068704 118.941315 
L 256.158887 126.513439 
L 256.699988 205.093257 
L 256.790172 186.129732 
L 256.925447 151.511974 
L 257.060722 195.329929 
L 257.195997 205.619596 
L 257.376364 181.747323 
L 257.692007 141.52789 
L 257.827282 127.834907 
L 257.962557 120.252563 
L 258.052741 129.448671 
L 258.323291 168.782016 
L 258.684025 198.668858 
L 258.774209 204.80096 
L 258.954576 175.418994 
L 259.180215 118.571345 
L 259.270399 125.229785 
L 259.946775 197.164449 
L 260.036958 202.585227 
L 260.08205 201.667456 
L 260.307554 182.009982 
L 260.442874 157.877095 
L 260.57815 153.104276 
L 260.668378 144.89237 
L 260.71347 144.958801 
L 260.758562 144.925074 
L 260.893837 145.747798 
L 260.938929 149.193017 
L 260.98402 146.58483 
L 261.119296 150.304972 
L 261.344754 156.564825 
L 261.434938 158.341091 
L 261.48003 157.696198 
L 261.525121 158.078433 
L 262.066222 141.62907 
L 262.201498 138.03157 
L 262.24659 138.716321 
L 262.472048 126.616662 
L 262.607324 124.29464 
L 262.652415 124.913982 
L 262.697507 120.643995 
L 262.742599 120.860663 
L 262.832782 123.632373 
L 262.922966 120.531573 
L 262.968058 120.933226 
L 263.058241 121.38598 
L 263.103333 124.367203 
L 263.148425 122.021674 
L 263.418975 124.026871 
L 263.464067 124.016651 
L 263.509159 128.01887 
L 263.55425 125.116342 
L 263.599342 125.082615 
L 263.779709 124.507219 
L 263.824801 124.491889 
L 264.185535 117.537064 
L 264.230627 118.419064 
L 264.365902 123.029383 
L 264.410994 122.630796 
L 264.591361 134.706949 
L 264.907003 154.752789 
L 264.952095 154.710887 
L 264.997186 152.545233 
L 265.267782 170.787214 
L 265.312874 170.081 
L 265.493241 173.531329 
L 265.538333 170.082022 
L 265.583424 173.449568 
L 265.628516 173.508845 
L 265.673608 174.386757 
L 265.7187 173.23801 
L 266.034342 168.118727 
L 266.079434 163.023973 
L 266.169617 164.575394 
L 266.304892 163.273345 
L 266.575443 168.695145 
L 266.620535 166.890263 
L 266.800902 177.728753 
L 266.891085 180.104942 
L 266.936177 179.481512 
L 267.206727 196.483786 
L 267.477278 203.00732 
L 267.612553 198.394958 
L 267.657645 199.429239 
L 267.838012 194.298714 
L 267.883104 197.619247 
L 268.198746 171.834781 
L 268.55948 156.639433 
L 268.785119 125.656988 
L 268.830211 125.689693 
L 268.875303 132.14373 
L 268.92044 118.99957 
L 268.965576 119.388958 
L 269.05585 141.009727 
L 269.146034 136.707036 
L 269.461676 122.054379 
L 269.551859 121.596515 
L 269.642133 142.489608 
L 269.732362 202.464629 
L 269.777499 197.911544 
L 269.82259 197.816496 
L 269.912819 192.900595 
L 269.958001 185.847655 
L 270.048184 188.414962 
L 270.093276 187.651515 
L 270.408918 200.291821 
L 270.45401 200.751729 
L 270.544194 188.004111 
L 270.679469 163.622875 
L 270.859836 138.997376 
L 271.085295 117.826295 
L 271.130386 121.501468 
L 271.581304 181.164774 
L 271.716579 187.946878 
L 271.8519 202.223433 
L 271.896991 197.633555 
L 271.942083 197.889059 
L 272.077358 149.404575 
L 272.12245 173.416863 
L 272.257725 126.211944 
L 272.347909 117.365365 
L 272.393001 118.28007 
L 272.438092 140.222774 
L 272.528276 133.559224 
L 272.663596 116.140989 
L 272.979509 198.190554 
L 273.069738 196.788347 
L 273.159921 181.448894 
L 273.340378 140.738893 
L 273.610974 116.883995 
L 273.656066 120.826936 
L 273.746249 124.2742 
L 274.107028 176.943844 
L 274.15212 177.382289 
L 274.467762 199.189065 
L 274.557946 202.234675 
L 274.648129 196.526711 
L 274.783405 134.76827 
L 274.828496 131.695065 
L 274.873588 177.303594 
L 274.91868 121.870416 
L 275.05409 117.736357 
L 275.189366 146.099372 
L 275.234457 122.842354 
L 275.279549 160.440314 
L 275.324641 117.197754 
L 275.595237 140.446596 
L 275.910879 168.891372 
L 276.406888 200.762971 
L 276.587255 176.606578 
L 276.767622 149.538459 
L 277.038173 133.896489 
L 277.263631 117.227393 
L 277.353815 121.425838 
L 277.398907 121.91334 
L 277.48909 120.101304 
L 277.534182 149.754104 
L 277.579274 122.884256 
L 277.669457 127.311634 
L 277.894916 145.750864 
L 278.030191 189.723144 
L 278.165466 199.974996 
L 278.345837 175.703115 
L 278.571318 141.467591 
L 278.706607 192.861758 
L 279.067377 201.018475 
L 279.15757 200.656681 
L 279.202666 200.840644 
L 279.337955 195.897148 
L 279.383051 195.842981 
L 279.428147 195.501628 
L 279.653629 183.837348 
L 280.059495 151.903406 
L 280.465361 136.377946 
L 280.645746 129.931063 
L 280.871228 114.032568 
L 281.547672 197.473098 
L 281.637864 194.379453 
L 281.998634 142.103285 
L 282.539789 114.586501 
L 282.584886 113.568572 
L 283.171137 159.594084 
L 283.306471 174.361207 
L 283.757434 188.386346 
L 283.80253 187.81095 
L 283.892722 192.432511 
L 284.028011 198.855887 
L 284.073107 198.18851 
L 284.298589 175.546747 
L 284.52407 150.006543 
L 284.88493 112.712122 
L 284.975123 117.850823 
L 285.020219 118.429285 
L 285.2457 138.13275 
L 285.290797 136.37488 
L 285.967241 178.611775 
L 286.102529 184.863453 
L 286.282914 198.7915 
L 287.094647 112.695769 
L 287.771091 179.957772 
L 288.26715 198.252897 
L 289.033786 137.487857 
L 289.078883 137.05861 
L 289.259268 132.557647 
L 289.304364 131.846323 
L 289.574942 114.396406 
L 289.620038 114.701989 
L 289.665134 113.818966 
L 289.890615 137.905862 
L 290.251386 170.845468 
L 290.567059 179.349672 
L 290.702393 190.090048 
L 290.792586 190.735963 
L 290.837682 191.498387 
L 290.882778 189.924481 
L 290.927875 190.246416 
L 291.063163 194.098398 
L 291.10826 192.309869 
L 291.153356 195.489364 
L 291.243548 195.114283 
L 291.288645 195.301312 
L 291.423934 197.519089 
L 291.604319 192.184161 
L 291.649415 192.615452 
L 291.694511 192.234239 
L 291.919992 184.398435 
L 292.010185 184.624301 
L 292.19057 162.302429 
L 292.280762 159.072855 
L 292.325859 122.140228 
L 292.370955 158.344157 
L 292.416051 153.56214 
L 292.506244 153.885097 
L 292.55134 158.944081 
L 292.641533 156.925597 
L 292.776821 160.636541 
L 292.821963 151.553876 
L 292.867059 158.028354 
L 292.912155 157.379373 
L 293.137637 184.657006 
L 293.408214 196.790391 
L 293.543503 194.282361 
L 293.588599 194.612473 
L 293.723888 196.7444 
L 293.994466 173.167491 
L 294.174851 145.132544 
L 294.400332 130.940816 
L 294.490524 127.281995 
L 294.761102 111.416204 
L 294.851295 120.3425 
L 294.986583 147.976817 
L 295.03168 153.372044 
L 295.212065 127.79096 
L 295.257161 127.06635 
L 295.437546 110.695682 
L 295.663027 145.809119 
L 295.888509 170.201598 
L 296.068894 180.086546 
L 296.11399 179.482534 
L 296.339471 195.810277 
L 296.429664 190.96285 
L 296.47476 191.469771 
L 297.106108 143.074202 
L 297.55707 121.885746 
L 297.692359 114.569126 
L 297.737455 115.840516 
L 297.91784 112.189871 
L 297.962937 112.305359 
L 298.008033 113.014639 
L 298.053129 112.236884 
L 298.143322 111.790262 
L 298.458996 119.759951 
L 298.684477 128.742458 
L 299.090343 135.550113 
L 299.135439 135.797441 
L 299.541306 150.130207 
L 299.811883 172.96922 
L 299.992268 190.566308 
L 300.127557 195.247145 
L 300.307942 193.319621 
L 300.353039 193.245014 
L 300.488327 190.055299 
L 300.533424 190.564264 
L 300.894194 170.144365 
L 301.209868 151.557964 
L 301.615734 131.621479 
L 301.886312 124.292596 
L 302.0216 121.721201 
L 302.247082 114.053008 
L 302.292178 115.291692 
L 302.427467 109.330267 
L 303.058814 151.986189 
L 303.103911 152.488 
L 303.149007 148.767858 
L 303.194103 153.275975 
L 303.239199 153.423145 
L 303.329392 152.322433 
L 303.96074 110.727365 
L 304.005836 110.633339 
L 304.050932 110.217378 
L 304.096028 110.529093 
L 304.276413 117.88966 
L 304.546991 129.813531 
L 305.088146 140.932054 
L 305.268531 147.79592 
L 305.539109 155.055306 
L 305.584205 151.914648 
L 305.629301 152.771098 
L 305.854783 156.310343 
L 306.035168 167.147811 
L 306.215553 179.970036 
L 306.441034 193.862312 
L 306.891997 171.481163 
L 306.982189 168.260788 
L 307.027285 185.627922 
L 307.117478 165.721075 
L 307.162574 185.482795 
L 307.252767 185.125089 
L 307.388056 190.418115 
L 307.433152 189.329667 
L 307.478248 189.947988 
L 307.613537 153.406793 
L 307.793922 151.144047 
L 308.154692 140.154299 
L 308.289981 129.471156 
L 308.560558 106.570822 
L 308.650751 106.624989 
L 308.78604 110.092692 
L 308.831136 109.438601 
L 308.876232 109.497878 
L 308.921328 110.129485 
L 308.966425 113.448996 
L 309.011521 110.327756 
L 309.101714 113.018727 
L 309.14681 111.180118 
L 309.372291 106.745587 
L 309.417387 106.993937 
L 309.462484 106.827348 
L 309.50758 106.854942 
L 309.552676 107.037883 
L 309.597772 106.901955 
L 309.733061 125.402506 
L 309.778157 112.861336 
L 309.823254 126.618706 
L 310.138928 129.026578 
L 310.499698 147.667146 
L 310.544794 143.417599 
L 310.634986 151.217633 
L 310.680083 132.571955 
L 310.770275 133.907731 
L 310.815371 134.946101 
L 310.95066 139.134326 
L 311.176142 141.536066 
L 311.266334 140.83394 
L 311.31143 143.549439 
L 311.356527 139.757757 
L 311.536912 138.581415 
L 311.627149 131.817707 
L 311.672246 131.995538 
L 311.717342 132.055837 
L 311.852631 131.808509 
L 311.897727 132.818261 
L 311.942823 131.823839 
L 312.033016 131.86472 
L 312.438882 131.296478 
L 312.574171 128.793559 
L 312.619267 129.469112 
L 312.664363 129.405747 
L 312.799652 131.428318 
L 312.934941 131.364953 
L 313.115326 134.575108 
L 313.160422 135.019686 
L 313.340807 141.048564 
L 313.385904 140.871755 
L 313.521192 143.278605 
L 313.611385 150.924314 
L 313.701577 148.775012 
L 313.927059 152.923379 
L 313.972155 154.33785 
L 314.017251 149.916605 
L 314.107444 150.426592 
L 314.197636 150.077062 
L 314.242733 152.591224 
L 314.468214 144.842291 
L 314.51331 146.091196 
L 314.558406 145.294022 
L 314.828984 135.760648 
L 315.099562 126.226252 
L 315.325043 121.655792 
L 315.460332 118.983218 
L 315.550524 119.791633 
L 315.730909 122.078907 
L 315.821102 122.673721 
L 315.956391 125.144958 
L 316.046583 125.496532 
L 316.181872 126.123028 
L 316.272064 128.762898 
L 316.317161 125.662099 
L 316.407353 125.827665 
L 316.542642 125.159266 
L 316.587738 125.185839 
L 316.858316 121.763104 
L 316.903412 121.627176 
L 316.948508 122.944555 
L 317.128893 116.061271 
L 317.17399 117.08431 
L 317.309278 113.364168 
L 317.399471 112.676351 
L 317.444567 113.056541 
L 317.715145 118.830937 
L 317.850434 120.786056 
L 317.89553 120.83409 
L 317.940626 121.222457 
L 318.436685 104.636144 
L 318.571974 109.501966 
L 318.61707 109.352752 
L 318.707263 110.46675 
L 318.752359 112.608898 
L 318.797455 109.50401 
L 318.842551 112.583347 
L 318.932744 113.427534 
L 318.97784 111.295606 
L 319.022936 114.740825 
L 319.113129 114.479189 
L 319.158225 114.681548 
L 319.203321 114.05403 
L 319.248418 114.402538 
L 319.473899 115.949871 
L 319.564092 119.393047 
L 319.609188 114.958515 
L 319.654284 116.421021 
L 319.789573 131.848367 
L 319.879765 131.225959 
L 320.015054 138.770488 
L 320.105247 139.659643 
L 320.285632 134.66709 
L 320.330728 134.364573 
L 320.420921 136.750983 
L 320.466017 135.762692 
L 320.511113 129.559049 
L 320.556209 135.26497 
L 320.646402 137.943676 
L 320.871883 140.164519 
L 320.916979 140.405715 
L 321.097364 142.791103 
L 321.142461 142.583633 
L 321.277749 147.210304 
L 321.367942 146.349766 
L 321.548327 155.352713 
L 321.593423 154.865211 
L 321.63852 155.927087 
L 321.728712 156.750833 
L 321.818905 151.034692 
L 321.864001 154.563716 
L 321.954193 153.423145 
L 322.044386 152.086347 
L 322.089482 152.475736 
L 322.224771 143.239768 
L 322.269867 147.401421 
L 322.314964 146.210772 
L 322.450252 143.254077 
L 322.495349 146.71156 
L 322.540445 140.331108 
L 322.585541 146.585852 
L 322.675734 146.602204 
L 322.765926 147.910386 
L 322.811022 147.553702 
L 322.901215 146.00739 
L 322.991407 142.497784 
L 323.036504 140.059252 
L 323.081596 129.077679 
L 323.126688 135.101447 
L 323.262098 157.375285 
L 323.30719 156.718128 
L 323.667924 143.23057 
L 323.713061 152.054665 
L 323.803245 148.345765 
L 324.163979 131.346557 
L 324.254162 126.36729 
L 324.299254 180.099832 
L 324.344391 181.034978 
L 324.389528 180.822398 
L 324.434664 174.226301 
L 324.479756 183.125002 
L 324.615031 185.330515 
L 324.660168 186.107248 
L 324.750352 188.713391 
L 324.795444 155.861678 
L 325.201405 184.428074 
L 325.471955 188.257571 
L 325.787597 173.699962 
L 326.058148 151.060242 
L 326.148331 147.239943 
L 326.283652 131.894358 
L 326.599294 123.212324 
L 326.689568 105.36382 
L 326.734705 107.126799 
L 326.870025 124.391731 
L 327.0053 126.786317 
L 327.050392 126.874211 
L 327.095484 122.609334 
L 327.230894 174.851775 
L 327.276031 165.327599 
L 327.366215 162.121532 
L 327.411351 154.943907 
L 327.456488 175.304528 
L 327.50158 174.391867 
L 327.591764 178.6547 
L 327.6369 137.569618 
L 327.727129 182.781605 
L 327.772266 168.635868 
L 327.952633 156.320563 
L 328.178182 127.021381 
L 328.223274 127.550786 
L 328.358594 116.523223 
L 328.584053 109.572486 
L 328.629144 109.626652 
L 328.719328 111.637982 
L 328.899695 120.182044 
L 328.944832 115.50325 
L 328.989924 118.920875 
L 329.125199 124.011541 
L 329.215472 116.963712 
L 329.305656 119.373628 
L 329.531115 127.402593 
L 329.621298 126.950862 
L 329.666435 122.410041 
L 329.756619 124.007453 
L 329.846847 145.651728 
L 329.891984 141.110907 
L 330.207897 161.834345 
L 330.29808 154.510571 
L 330.343172 160.006979 
L 330.388264 181.100387 
L 330.433356 163.12924 
L 330.65886 184.303388 
L 330.703996 184.090808 
L 330.884408 150.43579 
L 331.335506 116.902391 
L 331.42569 118.921897 
L 331.606057 124.960995 
L 331.651194 120.21066 
L 331.741377 121.875526 
L 331.831561 121.683387 
L 332.011928 126.643235 
L 332.147203 126.265089 
L 332.192295 126.056597 
L 332.237387 126.648345 
L 332.282523 126.082148 
L 332.463026 100.93542 
L 332.508117 111.536802 
L 333.004442 181.465247 
L 333.049534 179.326165 
L 333.094626 176.279533 
L 333.275038 149.276823 
L 333.32013 152.486978 
L 333.455405 145.115169 
L 333.59068 143.612804 
L 333.771137 127.483333 
L 333.816229 129.354646 
L 333.861321 127.972879 
L 333.906413 128.462425 
L 333.951504 128.441985 
L 333.996596 132.344045 
L 334.041688 128.645366 
L 334.08678 128.903936 
L 334.131917 125.213433 
L 334.2221 125.787807 
L 334.267192 124.932378 
L 334.312284 125.923735 
L 334.357375 125.948263 
L 334.492651 125.214455 
L 334.537742 126.545121 
L 334.582834 125.162332 
L 334.627971 120.455944 
L 334.718154 120.520331 
L 334.943613 115.942717 
L 335.214164 107.166658 
L 335.259255 107.612257 
L 335.394531 142.773729 
L 335.439622 103.503749 
L 335.484714 144.117681 
L 335.75531 159.726946 
L 335.845538 103.963656 
L 335.89063 106.741499 
L 335.935767 164.496699 
L 335.980904 134.671178 
L 336.025996 134.145861 
L 336.071087 130.602529 
L 336.116179 131.750254 
L 336.161271 132.253086 
L 336.251454 121.028274 
L 336.296546 126.419413 
L 336.341638 127.087812 
L 336.567097 105.833947 
L 336.612188 109.634829 
L 336.702372 109.611322 
L 336.747464 107.458954 
L 336.792555 108.996068 
L 336.882739 109.550001 
L 336.972922 116.098064 
L 337.198562 163.883489 
L 337.243653 164.388365 
L 337.514384 182.305345 
L 337.604568 185.093407 
L 337.649659 181.485687 
L 337.739843 181.817843 
L 337.784935 182.04473 
L 337.92021 179.505018 
L 337.965302 174.781256 
L 338.190941 124.551166 
L 338.281124 174.050514 
L 338.371308 124.795428 
L 338.4164 125.683561 
L 338.461491 126.629949 
L 338.506583 124.301794 
L 338.551675 181.05133 
L 338.641949 170.784147 
L 338.68704 122.503044 
L 338.732177 160.082608 
L 338.777269 167.132481 
L 338.822406 148.229255 
L 338.912589 155.093121 
L 338.957681 161.037172 
L 339.047865 159.717748 
L 339.18314 165.920369 
L 339.228232 163.009664 
L 339.273368 150.889565 
L 339.363552 152.327543 
L 339.408644 153.021493 
L 339.543964 140.576392 
L 339.679239 137.9355 
L 339.81456 127.813444 
L 340.175294 122.621598 
L 340.445844 114.792948 
L 340.490936 114.181782 
L 340.581119 107.719569 
L 340.626211 111.461173 
L 341.032037 97.899008 
L 341.392771 109.060455 
L 341.528046 125.463827 
L 341.573138 124.021761 
L 341.663322 134.168346 
L 341.708413 133.451912 
L 341.798597 139.186449 
L 341.843689 138.724497 
L 341.88878 136.337066 
L 341.933872 139.952962 
L 341.978964 138.010108 
L 342.069192 135.760648 
L 342.114284 136.395321 
L 342.159376 135.763714 
L 342.339743 128.481843 
L 342.429926 135.24453 
L 342.475018 135.041148 
L 342.52011 130.132401 
L 342.565202 134.411586 
L 342.610293 133.514255 
L 342.655385 128.477755 
L 342.700477 131.325095 
L 342.925936 139.748558 
L 342.971027 136.643671 
L 343.016119 140.386297 
L 343.061211 139.264122 
L 343.106303 124.967127 
L 343.196486 129.558027 
L 343.241578 128.943795 
L 343.55722 135.484704 
L 343.602312 135.621654 
L 343.647404 141.619871 
L 343.737587 140.446596 
L 343.827771 135.105535 
L 343.872863 136.083606 
L 343.917954 134.40341 
L 343.963046 138.717343 
L 344.05323 138.656022 
L 344.188505 133.742165 
L 344.233597 133.716614 
L 344.32378 134.214337 
L 344.594331 140.896283 
L 344.819789 146.279247 
L 344.864881 146.369184 
L 344.909973 151.962683 
L 344.955065 145.031364 
L 345.09034 141.130325 
L 345.676578 107.017443 
L 345.721715 99.192881 
L 345.766851 101.65492 
L 345.992491 152.532969 
L 346.037582 151.17062 
L 346.082719 156.999183 
L 346.172903 155.196345 
L 346.308178 156.98794 
L 346.35327 157.286369 
L 346.398361 157.08912 
L 346.578728 156.137622 
L 346.62382 156.161129 
L 346.668912 153.891229 
L 346.714004 156.196899 
L 346.804187 157.007359 
L 347.029781 182.296147 
L 347.074873 182.023268 
L 347.25524 176.590226 
L 347.345424 173.464898 
L 347.706158 156.000672 
L 347.886525 142.462013 
L 348.111983 134.811194 
L 348.247304 124.598179 
L 348.337487 124.9334 
L 348.427671 123.403441 
L 348.517854 123.485202 
L 348.65313 123.790786 
L 348.698221 123.757059 
L 348.878588 130.103784 
L 348.92368 127.245203 
L 349.013864 127.859435 
L 349.104047 128.264154 
L 349.149139 131.404812 
L 349.194231 129.451737 
L 349.239322 128.899848 
L 349.284414 129.531455 
L 349.329506 129.541675 
L 349.374598 132.27046 
L 349.464781 131.409922 
L 349.509873 131.747188 
L 349.645148 136.758137 
L 349.735332 131.43445 
L 349.780423 136.449488 
L 349.870607 135.320159 
L 350.005882 130.254021 
L 350.050974 130.204964 
L 350.186249 128.886562 
L 350.231341 129.467068 
L 350.276433 133.312918 
L 350.321524 129.167617 
L 350.366616 129.213608 
L 350.411708 130.807954 
L 350.4568 129.069503 
L 350.501891 129.277995 
L 350.546983 129.24018 
L 350.592075 132.358354 
L 350.637167 129.023512 
L 350.682258 129.150242 
L 350.72735 128.37351 
L 350.772442 129.287193 
L 350.862625 129.808421 
L 350.907717 130.950014 
L 350.997901 130.930596 
L 351.133176 132.860164 
L 351.403726 141.569793 
L 351.448818 142.894327 
L 351.584093 153.480378 
L 351.719369 142.498806 
L 351.76446 152.824243 
L 351.854644 148.564477 
L 352.035011 137.993755 
L 352.080103 140.390385 
L 352.305607 124.122941 
L 352.440882 122.140228 
L 352.576202 115.37141 
L 352.711477 115.61465 
L 352.756569 115.505294 
L 352.801661 116.546729 
L 352.846753 115.395938 
L 352.89189 111.168876 
L 352.982073 111.474459 
L 353.072257 112.409605 
L 353.117348 115.506316 
L 353.207532 114.458749 
L 353.252624 114.510871 
L 353.297715 114.076514 
L 353.342807 114.536422 
L 353.387899 114.101043 
L 353.432991 113.894595 
L 353.478082 115.527778 
L 353.613358 111.584837 
L 353.748633 110.989001 
L 353.793725 111.39372 
L 353.838816 110.966517 
L 353.929 110.396231 
L 353.974092 110.612899 
L 354.109367 102.429609 
L 354.154459 102.564515 
L 354.19955 102.559405 
L 354.334826 94.220769 
L 354.560284 110.788686 
L 354.740651 144.21375 
L 355.326844 179.143224 
L 356.183588 110.647647 
L 356.228679 109.63074 
L 356.409046 93.049537 
L 356.724734 141.638268 
L 356.769825 121.655792 
L 356.860009 130.516679 
L 356.905101 131.389482 
L 357.085468 149.855284 
L 357.761844 178.254069 
L 358.393129 125.530258 
L 358.663679 113.863935 
L 358.844046 107.776802 
L 359.069505 96.092082 
L 359.114597 96.164645 
L 359.159688 102.908935 
L 359.20478 94.097105 
L 359.385147 102.206809 
L 359.520422 150.975415 
L 359.655698 154.04862 
L 359.97134 175.336211 
L 360.151842 163.806838 
L 360.603121 101.325831 
L 360.693304 98.426369 
L 360.873671 93.839556 
L 361.550228 159.431583 
L 361.730595 164.564152 
L 361.911007 172.584941 
L 361.956099 172.677945 
L 362.271741 145.656838 
L 362.4972 122.604224 
L 362.587383 121.51271 
L 362.812842 112.616052 
L 362.948117 107.497791 
L 363.128574 94.979105 
L 363.173711 94.452767 
L 363.218803 91.614625 
L 363.489399 138.866558 
L 363.53449 137.9355 
L 363.714857 156.452404 
L 363.850223 167.19278 
L 363.89536 145.871462 
L 363.940451 173.163403 
L 363.985588 154.599487 
L 364.030725 172.596184 
L 364.120954 170.766773 
L 364.211137 173.146029 
L 364.301321 173.925828 
L 364.391594 141.001551 
L 365.158289 92.927917 
L 365.293565 101.600753 
L 365.519204 142.123726 
L 365.834846 159.422385 
L 365.879983 160.116334 
L 366.06035 175.400598 
L 366.105442 175.496668 
L 366.240762 154.365445 
L 366.285854 144.748265 
L 366.330991 165.840651 
L 366.376128 141.355169 
L 366.511403 113.307958 
L 366.556495 122.51633 
L 366.601586 119.122212 
L 366.736997 93.489005 
L 366.782134 94.950489 
L 367.05291 159.782135 
L 367.32346 173.025431 
L 367.368597 170.811742 
L 367.413689 171.075422 
L 367.639238 132.600572 
L 367.819605 127.762343 
L 367.954925 114.299314 
L 368.315659 92.540573 
L 368.360751 92.572255 
L 368.496026 98.382422 
L 368.721485 136.98298 
L 368.766577 134.329824 
L 368.901942 155.90358 
L 369.037262 171.960489 
L 369.082354 172.157738 
L 369.172538 175.161446 
L 369.398042 148.517464 
L 369.713684 115.179271 
L 369.984415 89.333484 
L 370.345329 154.482977 
L 370.390421 155.498862 
L 370.435513 154.625037 
L 370.570833 171.970709 
L 370.615925 171.394292 
L 370.661016 175.210503 
L 370.706108 172.74131 
L 371.157161 109.624608 
L 371.292436 102.256888 
L 371.427712 92.27076 
L 371.472848 94.07973 
L 371.698397 136.489346 
L 371.833673 141.218219 
L 371.878764 138.905394 
L 372.104268 153.066461 
L 372.284635 158.200053 
L 372.465002 171.268584 
L 372.510094 171.479119 
L 372.600277 169.38194 
L 372.690461 164.078694 
L 372.735553 164.423114 
L 372.961102 127.622327 
L 373.412109 91.451103 
L 373.457201 90.522089 
L 373.547385 98.232185 
L 373.727752 131.603083 
L 373.772843 90.029477 
L 373.863027 94.940269 
L 373.908119 99.098856 
L 373.95321 98.333365 
L 373.998302 161.511388 
L 374.088531 135.451999 
L 374.223896 165.193715 
L 374.269033 162.903375 
L 374.494582 121.292976 
L 374.720086 109.015486 
L 374.765178 108.097715 
L 375.035909 87.363035 
L 375.081 88.452505 
L 375.351551 121.845887 
L 375.622146 136.542491 
L 375.667238 136.540447 
L 375.71233 137.237463 
L 375.802513 144.007303 
L 375.847605 140.052097 
L 376.073064 152.691381 
L 376.163247 153.041933 
L 376.208339 156.471822 
L 376.253431 107.535606 
L 376.298523 115.544131 
L 376.524162 157.05846 
L 376.614345 162.758248 
L 376.839804 122.891411 
L 377.020171 112.854182 
L 377.065263 112.72643 
L 377.336039 95.988858 
L 377.381176 100.747369 
L 377.426313 94.904498 
L 377.471449 94.28209 
L 377.561723 86.325688 
L 377.60686 92.077599 
L 377.651952 91.432706 
L 377.742135 91.565569 
L 377.832319 91.745444 
L 377.87741 91.669814 
L 378.057823 112.879732 
L 378.463739 156.383928 
L 378.599059 172.551215 
L 379.365664 89.02279 
L 379.455847 98.408994 
L 379.681351 145.184667 
L 379.726443 147.121389 
L 379.951992 171.198064 
L 380.087267 150.393887 
L 380.312771 112.670219 
L 380.357863 112.071317 
L 380.583322 88.817365 
L 380.628413 89.12397 
L 380.718597 96.986347 
L 380.989192 140.502807 
L 381.034329 145.497404 
L 381.079421 91.731135 
L 381.124558 112.796949 
L 381.16965 121.098793 
L 381.214741 163.25086 
L 381.259833 124.303838 
L 381.485337 151.195148 
L 381.665839 111.912904 
L 381.756068 106.662803 
L 381.93648 87.397783 
L 382.477716 171.498537 
L 383.19932 85.974114 
L 383.244456 90.800078 
L 383.379732 115.892638 
L 383.515007 138.314669 
L 383.560099 88.991108 
L 383.60519 144.655262 
L 383.650282 93.623911 
L 383.695374 95.673055 
L 383.875876 146.216904 
L 384.011152 157.799422 
L 384.281702 110.639471 
L 384.507206 84.288808 
L 384.552298 89.787259 
L 384.597389 91.722959 
L 384.822848 140.703122 
L 384.913032 149.140894 
L 385.00326 85.503986 
L 385.048397 94.88508 
L 385.228899 150.067864 
L 385.319173 170.540907 
L 385.364265 165.078227 
L 385.454448 159.854698 
L 385.724999 118.451769 
L 386.175916 87.620583 
L 386.221008 84.433934 
L 386.2661 89.014614 
L 386.446467 117.810964 
L 386.762109 144.488673 
L 386.807201 144.803454 
L 386.852293 144.256675 
L 386.897384 147.326814 
L 387.032705 165.315335 
L 387.16798 168.846403 
L 387.528714 129.125714 
L 387.754308 91.929407 
L 387.889583 83.43338 
L 388.06995 107.084896 
L 388.250363 141.77113 
L 388.385728 166.010306 
L 388.430865 163.980581 
L 388.656369 123.229698 
L 388.926919 105.794089 
L 389.062194 99.494376 
L 389.152423 86.551553 
L 389.19756 88.845982 
L 389.648523 143.495273 
L 389.82898 165.358259 
L 389.874071 164.113443 
L 390.280033 91.931451 
L 390.415308 82.763959 
L 390.505536 105.209495 
L 390.686039 148.172022 
L 391.001681 168.954737 
L 391.22714 146.524531 
L 391.407642 103.174659 
L 391.633101 86.043611 
L 391.678193 87.56846 
L 391.723284 87.705411 
L 391.768376 87.313978 
L 392.084018 138.640692 
L 392.12911 138.522138 
L 392.580028 167.398205 
L 392.625119 166.044033 
L 393.391679 84.697615 
L 393.481908 92.137898 
L 393.752458 133.874005 
L 394.023009 151.319834 
L 394.248468 167.336884 
L 394.338651 162.613122 
L 394.969981 82.464508 
L 395.015072 86.753913 
L 395.150348 96.472272 
L 395.375806 131.593885 
L 395.691539 166.830986 
L 396.458099 97.601601 
L 396.728649 80.625899 
L 397.630484 166.879021 
L 398.397044 82.248862 
L 398.487273 93.399067 
L 398.487273 93.399067 
" style="fill:none;stroke:#1f77b4;stroke-linecap:square;stroke-width:1.5;"/>
   </g>
   <g id="patch_3">
    <path d="M 57.6 307.584 
L 57.6 41.472 
" style="fill:none;stroke:#000000;stroke-linecap:square;stroke-linejoin:miter;stroke-width:0.8;"/>
   </g>
   <g id="patch_4">
    <path d="M 414.72 307.584 
L 414.72 41.472 
" style="fill:none;stroke:#000000;stroke-linecap:square;stroke-linejoin:miter;stroke-width:0.8;"/>
   </g>
   <g id="patch_5">
    <path d="M 57.6 307.584 
L 414.72 307.584 
" style="fill:none;stroke:#000000;stroke-linecap:square;stroke-linejoin:miter;stroke-width:0.8;"/>
   </g>
   <g id="patch_6">
    <path d="M 57.6 41.472 
L 414.72 41.472 
" style="fill:none;stroke:#000000;stroke-linecap:square;stroke-linejoin:miter;stroke-width:0.8;"/>
   </g>
   <g id="text_17">
    <!-- Current with source voltage 100.0 mV -->
    <defs>
     <path d="M 4.203125 54.6875 
L 13.1875 54.6875 
L 24.421875 12.015625 
L 35.59375 54.6875 
L 46.1875 54.6875 
L 57.421875 12.015625 
L 68.609375 54.6875 
L 77.59375 54.6875 
L 63.28125 0 
L 52.6875 0 
L 40.921875 44.828125 
L 29.109375 0 
L 18.5 0 
z
" id="DejaVuSans-77"/>
     <path d="M 9.421875 54.6875 
L 18.40625 54.6875 
L 18.40625 0 
L 9.421875 0 
z
M 9.421875 75.984375 
L 18.40625 75.984375 
L 18.40625 64.59375 
L 9.421875 64.59375 
z
" id="DejaVuSans-69"/>
     <path d="M 54.890625 33.015625 
L 54.890625 0 
L 45.90625 0 
L 45.90625 32.71875 
Q 45.90625 40.484375 42.875 44.328125 
Q 39.84375 48.1875 33.796875 48.1875 
Q 26.515625 48.1875 22.3125 43.546875 
Q 18.109375 38.921875 18.109375 30.90625 
L 18.109375 0 
L 9.078125 0 
L 9.078125 75.984375 
L 18.109375 75.984375 
L 18.109375 46.1875 
Q 21.34375 51.125 25.703125 53.5625 
Q 30.078125 56 35.796875 56 
Q 45.21875 56 50.046875 50.171875 
Q 54.890625 44.34375 54.890625 33.015625 
z
" id="DejaVuSans-68"/>
     <path d="M 30.609375 48.390625 
Q 23.390625 48.390625 19.1875 42.75 
Q 14.984375 37.109375 14.984375 27.296875 
Q 14.984375 17.484375 19.15625 11.84375 
Q 23.34375 6.203125 30.609375 6.203125 
Q 37.796875 6.203125 41.984375 11.859375 
Q 46.1875 17.53125 46.1875 27.296875 
Q 46.1875 37.015625 41.984375 42.703125 
Q 37.796875 48.390625 30.609375 48.390625 
z
M 30.609375 56 
Q 42.328125 56 49.015625 48.375 
Q 55.71875 40.765625 55.71875 27.296875 
Q 55.71875 13.875 49.015625 6.21875 
Q 42.328125 -1.421875 30.609375 -1.421875 
Q 18.84375 -1.421875 12.171875 6.21875 
Q 5.515625 13.875 5.515625 27.296875 
Q 5.515625 40.765625 12.171875 48.375 
Q 18.84375 56 30.609375 56 
z
" id="DejaVuSans-6f"/>
     <path d="M 48.78125 52.59375 
L 48.78125 44.1875 
Q 44.96875 46.296875 41.140625 47.34375 
Q 37.3125 48.390625 33.40625 48.390625 
Q 24.65625 48.390625 19.8125 42.84375 
Q 14.984375 37.3125 14.984375 27.296875 
Q 14.984375 17.28125 19.8125 11.734375 
Q 24.65625 6.203125 33.40625 6.203125 
Q 37.3125 6.203125 41.140625 7.25 
Q 44.96875 8.296875 48.78125 10.40625 
L 48.78125 2.09375 
Q 45.015625 0.34375 40.984375 -0.53125 
Q 36.96875 -1.421875 32.421875 -1.421875 
Q 20.0625 -1.421875 12.78125 6.34375 
Q 5.515625 14.109375 5.515625 27.296875 
Q 5.515625 40.671875 12.859375 48.328125 
Q 20.21875 56 33.015625 56 
Q 37.15625 56 41.109375 55.140625 
Q 45.0625 54.296875 48.78125 52.59375 
z
" id="DejaVuSans-63"/>
     <path d="M 2.984375 54.6875 
L 12.5 54.6875 
L 29.59375 8.796875 
L 46.6875 54.6875 
L 56.203125 54.6875 
L 35.6875 0 
L 23.484375 0 
z
" id="DejaVuSans-76"/>
     <path d="M 9.421875 75.984375 
L 18.40625 75.984375 
L 18.40625 0 
L 9.421875 0 
z
" id="DejaVuSans-6c"/>
     <path d="M 34.28125 27.484375 
Q 23.390625 27.484375 19.1875 25 
Q 14.984375 22.515625 14.984375 16.5 
Q 14.984375 11.71875 18.140625 8.90625 
Q 21.296875 6.109375 26.703125 6.109375 
Q 34.1875 6.109375 38.703125 11.40625 
Q 43.21875 16.703125 43.21875 25.484375 
L 43.21875 27.484375 
z
M 52.203125 31.203125 
L 52.203125 0 
L 43.21875 0 
L 43.21875 8.296875 
Q 40.140625 3.328125 35.546875 0.953125 
Q 30.953125 -1.421875 24.3125 -1.421875 
Q 15.921875 -1.421875 10.953125 3.296875 
Q 6 8.015625 6 15.921875 
Q 6 25.140625 12.171875 29.828125 
Q 18.359375 34.515625 30.609375 34.515625 
L 43.21875 34.515625 
L 43.21875 35.40625 
Q 43.21875 41.609375 39.140625 45 
Q 35.0625 48.390625 27.6875 48.390625 
Q 23 48.390625 18.546875 47.265625 
Q 14.109375 46.140625 10.015625 43.890625 
L 10.015625 52.203125 
Q 14.9375 54.109375 19.578125 55.046875 
Q 24.21875 56 28.609375 56 
Q 40.484375 56 46.34375 49.84375 
Q 52.203125 43.703125 52.203125 31.203125 
z
" id="DejaVuSans-61"/>
     <path d="M 45.40625 27.984375 
Q 45.40625 37.75 41.375 43.109375 
Q 37.359375 48.484375 30.078125 48.484375 
Q 22.859375 48.484375 18.828125 43.109375 
Q 14.796875 37.75 14.796875 27.984375 
Q 14.796875 18.265625 18.828125 12.890625 
Q 22.859375 7.515625 30.078125 7.515625 
Q 37.359375 7.515625 41.375 12.890625 
Q 45.40625 18.265625 45.40625 27.984375 
z
M 54.390625 6.78125 
Q 54.390625 -7.171875 48.1875 -13.984375 
Q 42 -20.796875 29.203125 -20.796875 
Q 24.46875 -20.796875 20.265625 -20.09375 
Q 16.0625 -19.390625 12.109375 -17.921875 
L 12.109375 -9.1875 
Q 16.0625 -11.328125 19.921875 -12.34375 
Q 23.78125 -13.375 27.78125 -13.375 
Q 36.625 -13.375 41.015625 -8.765625 
Q 45.40625 -4.15625 45.40625 5.171875 
L 45.40625 9.625 
Q 42.625 4.78125 38.28125 2.390625 
Q 33.9375 0 27.875 0 
Q 17.828125 0 11.671875 7.65625 
Q 5.515625 15.328125 5.515625 27.984375 
Q 5.515625 40.671875 11.671875 48.328125 
Q 17.828125 56 27.875 56 
Q 33.9375 56 38.28125 53.609375 
Q 42.625 51.21875 45.40625 46.390625 
L 45.40625 54.6875 
L 54.390625 54.6875 
z
" id="DejaVuSans-67"/>
     <path d="M 10.6875 12.40625 
L 21 12.40625 
L 21 0 
L 10.6875 0 
z
" id="DejaVuSans-2e"/>
     <path d="M 52 44.1875 
Q 55.375 50.25 60.0625 53.125 
Q 64.75 56 71.09375 56 
Q 79.640625 56 84.28125 50.015625 
Q 88.921875 44.046875 88.921875 33.015625 
L 88.921875 0 
L 79.890625 0 
L 79.890625 32.71875 
Q 79.890625 40.578125 77.09375 44.375 
Q 74.3125 48.1875 68.609375 48.1875 
Q 61.625 48.1875 57.5625 43.546875 
Q 53.515625 38.921875 53.515625 30.90625 
L 53.515625 0 
L 44.484375 0 
L 44.484375 32.71875 
Q 44.484375 40.625 41.703125 44.40625 
Q 38.921875 48.1875 33.109375 48.1875 
Q 26.21875 48.1875 22.15625 43.53125 
Q 18.109375 38.875 18.109375 30.90625 
L 18.109375 0 
L 9.078125 0 
L 9.078125 54.6875 
L 18.109375 54.6875 
L 18.109375 46.1875 
Q 21.1875 51.21875 25.484375 53.609375 
Q 29.78125 56 35.6875 56 
Q 41.65625 56 45.828125 52.96875 
Q 50 49.953125 52 44.1875 
z
" id="DejaVuSans-6d"/>
     <path d="M 28.609375 0 
L 0.78125 72.90625 
L 11.078125 72.90625 
L 34.1875 11.53125 
L 57.328125 72.90625 
L 67.578125 72.90625 
L 39.796875 0 
z
" id="DejaVuSans-56"/>
    </defs>
    <g transform="translate(121.528125 35.472)scale(0.12 -0.12)">
     <use xlink:href="#DejaVuSans-43"/>
     <use x="69.824219" xlink:href="#DejaVuSans-75"/>
     <use x="133.203125" xlink:href="#DejaVuSans-72"/>
     <use x="174.300781" xlink:href="#DejaVuSans-72"/>
     <use x="215.382812" xlink:href="#DejaVuSans-65"/>
     <use x="276.90625" xlink:href="#DejaVuSans-6e"/>
     <use x="340.285156" xlink:href="#DejaVuSans-74"/>
     <use x="379.494141" xlink:href="#DejaVuSans-20"/>
     <use x="411.28125" xlink:href="#DejaVuSans-77"/>
     <use x="493.068359" xlink:href="#DejaVuSans-69"/>
     <use x="520.851562" xlink:href="#DejaVuSans-74"/>
     <use x="560.060547" xlink:href="#DejaVuSans-68"/>
     <use x="623.439453" xlink:href="#DejaVuSans-20"/>
     <use x="655.226562" xlink:href="#DejaVuSans-73"/>
     <use x="707.326172" xlink:href="#DejaVuSans-6f"/>
     <use x="768.507812" xlink:href="#DejaVuSans-75"/>
     <use x="831.886719" xlink:href="#DejaVuSans-72"/>
     <use x="872.96875" xlink:href="#DejaVuSans-63"/>
     <use x="927.949219" xlink:href="#DejaVuSans-65"/>
     <use x="989.472656" xlink:href="#DejaVuSans-20"/>
     <use x="1021.259766" xlink:href="#DejaVuSans-76"/>
     <use x="1080.439453" xlink:href="#DejaVuSans-6f"/>
     <use x="1141.621094" xlink:href="#DejaVuSans-6c"/>
     <use x="1169.404297" xlink:href="#DejaVuSans-74"/>
     <use x="1208.613281" xlink:href="#DejaVuSans-61"/>
     <use x="1269.892578" xlink:href="#DejaVuSans-67"/>
     <use x="1333.369141" xlink:href="#DejaVuSans-65"/>
     <use x="1394.892578" xlink:href="#DejaVuSans-20"/>
     <use x="1426.679688" xlink:href="#DejaVuSans-31"/>
     <use x="1490.302734" xlink:href="#DejaVuSans-30"/>
     <use x="1553.925781" xlink:href="#DejaVuSans-30"/>
     <use x="1617.548828" xlink:href="#DejaVuSans-2e"/>
     <use x="1649.335938" xlink:href="#DejaVuSans-30"/>
     <use x="1712.958984" xlink:href="#DejaVuSans-20"/>
     <use x="1744.746094" xlink:href="#DejaVuSans-6d"/>
     <use x="1842.158203" xlink:href="#DejaVuSans-56"/>
    </g>
   </g>
  </g>
 </g>
 <defs>
  <clipPath id="p3ca4e7d6da">
   <rect height="266.112" width="357.12" x="57.6" y="41.472"/>
  </clipPath>
 </defs>
</svg>
