<?xml version="1.0" encoding="utf-8" standalone="no"?>
<!DOCTYPE svg PUBLIC "-//W3C//DTD SVG 1.1//EN"
  "http://www.w3.org/Graphics/SVG/1.1/DTD/svg11.dtd">
<!-- Created with matplotlib (http://matplotlib.org/) -->
<svg height="345pt" version="1.1" viewBox="0 0 460 345" width="460pt" xmlns="http://www.w3.org/2000/svg" xmlns:xlink="http://www.w3.org/1999/xlink">
 <defs>
  <style type="text/css">
*{stroke-linecap:butt;stroke-linejoin:round;}
  </style>
 </defs>
 <g id="figure_1">
  <g id="patch_1">
   <path d="M 0 345.6 
L 460.8 345.6 
L 460.8 0 
L 0 0 
z
" style="fill:#ffffff;"/>
  </g>
  <g id="axes_1">
   <g id="patch_2">
    <path d="M 57.6 307.584 
L 414.72 307.584 
L 414.72 41.472 
L 57.6 41.472 
z
" style="fill:#ffffff;"/>
   </g>
   <g id="matplotlib.axis_1">
    <g id="xtick_1">
     <g id="line2d_1">
      <defs>
       <path d="M 0 0 
L 0 3.5 
" id="m078752eaf1" style="stroke:#000000;stroke-width:0.8;"/>
      </defs>
      <g>
       <use style="stroke:#000000;stroke-width:0.8;" x="73.832727" xlink:href="#m078752eaf1" y="307.584"/>
      </g>
     </g>
     <g id="text_1">
      <!-- 0 -->
      <defs>
       <path d="M 31.78125 66.40625 
Q 24.171875 66.40625 20.328125 58.90625 
Q 16.5 51.421875 16.5 36.375 
Q 16.5 21.390625 20.328125 13.890625 
Q 24.171875 6.390625 31.78125 6.390625 
Q 39.453125 6.390625 43.28125 13.890625 
Q 47.125 21.390625 47.125 36.375 
Q 47.125 51.421875 43.28125 58.90625 
Q 39.453125 66.40625 31.78125 66.40625 
z
M 31.78125 74.21875 
Q 44.046875 74.21875 50.515625 64.515625 
Q 56.984375 54.828125 56.984375 36.375 
Q 56.984375 17.96875 50.515625 8.265625 
Q 44.046875 -1.421875 31.78125 -1.421875 
Q 19.53125 -1.421875 13.0625 8.265625 
Q 6.59375 17.96875 6.59375 36.375 
Q 6.59375 54.828125 13.0625 64.515625 
Q 19.53125 74.21875 31.78125 74.21875 
z
" id="DejaVuSans-30"/>
      </defs>
      <g transform="translate(70.651477 322.182437)scale(0.1 -0.1)">
       <use xlink:href="#DejaVuSans-30"/>
      </g>
     </g>
    </g>
    <g id="xtick_2">
     <g id="line2d_2">
      <g>
       <use style="stroke:#000000;stroke-width:0.8;" x="118.934223" xlink:href="#m078752eaf1" y="307.584"/>
      </g>
     </g>
     <g id="text_2">
      <!-- 500 -->
      <defs>
       <path d="M 10.796875 72.90625 
L 49.515625 72.90625 
L 49.515625 64.59375 
L 19.828125 64.59375 
L 19.828125 46.734375 
Q 21.96875 47.46875 24.109375 47.828125 
Q 26.265625 48.1875 28.421875 48.1875 
Q 40.625 48.1875 47.75 41.5 
Q 54.890625 34.8125 54.890625 23.390625 
Q 54.890625 11.625 47.5625 5.09375 
Q 40.234375 -1.421875 26.90625 -1.421875 
Q 22.3125 -1.421875 17.546875 -0.640625 
Q 12.796875 0.140625 7.71875 1.703125 
L 7.71875 11.625 
Q 12.109375 9.234375 16.796875 8.0625 
Q 21.484375 6.890625 26.703125 6.890625 
Q 35.15625 6.890625 40.078125 11.328125 
Q 45.015625 15.765625 45.015625 23.390625 
Q 45.015625 31 40.078125 35.4375 
Q 35.15625 39.890625 26.703125 39.890625 
Q 22.75 39.890625 18.8125 39.015625 
Q 14.890625 38.140625 10.796875 36.28125 
z
" id="DejaVuSans-35"/>
      </defs>
      <g transform="translate(109.390473 322.182437)scale(0.1 -0.1)">
       <use xlink:href="#DejaVuSans-35"/>
       <use x="63.623047" xlink:href="#DejaVuSans-30"/>
       <use x="127.246094" xlink:href="#DejaVuSans-30"/>
      </g>
     </g>
    </g>
    <g id="xtick_3">
     <g id="line2d_3">
      <g>
       <use style="stroke:#000000;stroke-width:0.8;" x="164.035718" xlink:href="#m078752eaf1" y="307.584"/>
      </g>
     </g>
     <g id="text_3">
      <!-- 1000 -->
      <defs>
       <path d="M 12.40625 8.296875 
L 28.515625 8.296875 
L 28.515625 63.921875 
L 10.984375 60.40625 
L 10.984375 69.390625 
L 28.421875 72.90625 
L 38.28125 72.90625 
L 38.28125 8.296875 
L 54.390625 8.296875 
L 54.390625 0 
L 12.40625 0 
z
" id="DejaVuSans-31"/>
      </defs>
      <g transform="translate(151.310718 322.182437)scale(0.1 -0.1)">
       <use xlink:href="#DejaVuSans-31"/>
       <use x="63.623047" xlink:href="#DejaVuSans-30"/>
       <use x="127.246094" xlink:href="#DejaVuSans-30"/>
       <use x="190.869141" xlink:href="#DejaVuSans-30"/>
      </g>
     </g>
    </g>
    <g id="xtick_4">
     <g id="line2d_4">
      <g>
       <use style="stroke:#000000;stroke-width:0.8;" x="209.137214" xlink:href="#m078752eaf1" y="307.584"/>
      </g>
     </g>
     <g id="text_4">
      <!-- 1500 -->
      <g transform="translate(196.412214 322.182437)scale(0.1 -0.1)">
       <use xlink:href="#DejaVuSans-31"/>
       <use x="63.623047" xlink:href="#DejaVuSans-35"/>
       <use x="127.246094" xlink:href="#DejaVuSans-30"/>
       <use x="190.869141" xlink:href="#DejaVuSans-30"/>
      </g>
     </g>
    </g>
    <g id="xtick_5">
     <g id="line2d_5">
      <g>
       <use style="stroke:#000000;stroke-width:0.8;" x="254.238709" xlink:href="#m078752eaf1" y="307.584"/>
      </g>
     </g>
     <g id="text_5">
      <!-- 2000 -->
      <defs>
       <path d="M 19.1875 8.296875 
L 53.609375 8.296875 
L 53.609375 0 
L 7.328125 0 
L 7.328125 8.296875 
Q 12.9375 14.109375 22.625 23.890625 
Q 32.328125 33.6875 34.8125 36.53125 
Q 39.546875 41.84375 41.421875 45.53125 
Q 43.3125 49.21875 43.3125 52.78125 
Q 43.3125 58.59375 39.234375 62.25 
Q 35.15625 65.921875 28.609375 65.921875 
Q 23.96875 65.921875 18.8125 64.3125 
Q 13.671875 62.703125 7.8125 59.421875 
L 7.8125 69.390625 
Q 13.765625 71.78125 18.9375 73 
Q 24.125 74.21875 28.421875 74.21875 
Q 39.75 74.21875 46.484375 68.546875 
Q 53.21875 62.890625 53.21875 53.421875 
Q 53.21875 48.921875 51.53125 44.890625 
Q 49.859375 40.875 45.40625 35.40625 
Q 44.1875 33.984375 37.640625 27.21875 
Q 31.109375 20.453125 19.1875 8.296875 
z
" id="DejaVuSans-32"/>
      </defs>
      <g transform="translate(241.513709 322.182437)scale(0.1 -0.1)">
       <use xlink:href="#DejaVuSans-32"/>
       <use x="63.623047" xlink:href="#DejaVuSans-30"/>
       <use x="127.246094" xlink:href="#DejaVuSans-30"/>
       <use x="190.869141" xlink:href="#DejaVuSans-30"/>
      </g>
     </g>
    </g>
    <g id="xtick_6">
     <g id="line2d_6">
      <g>
       <use style="stroke:#000000;stroke-width:0.8;" x="299.340204" xlink:href="#m078752eaf1" y="307.584"/>
      </g>
     </g>
     <g id="text_6">
      <!-- 2500 -->
      <g transform="translate(286.615204 322.182437)scale(0.1 -0.1)">
       <use xlink:href="#DejaVuSans-32"/>
       <use x="63.623047" xlink:href="#DejaVuSans-35"/>
       <use x="127.246094" xlink:href="#DejaVuSans-30"/>
       <use x="190.869141" xlink:href="#DejaVuSans-30"/>
      </g>
     </g>
    </g>
    <g id="xtick_7">
     <g id="line2d_7">
      <g>
       <use style="stroke:#000000;stroke-width:0.8;" x="344.4417" xlink:href="#m078752eaf1" y="307.584"/>
      </g>
     </g>
     <g id="text_7">
      <!-- 3000 -->
      <defs>
       <path d="M 40.578125 39.3125 
Q 47.65625 37.796875 51.625 33 
Q 55.609375 28.21875 55.609375 21.1875 
Q 55.609375 10.40625 48.1875 4.484375 
Q 40.765625 -1.421875 27.09375 -1.421875 
Q 22.515625 -1.421875 17.65625 -0.515625 
Q 12.796875 0.390625 7.625 2.203125 
L 7.625 11.71875 
Q 11.71875 9.328125 16.59375 8.109375 
Q 21.484375 6.890625 26.8125 6.890625 
Q 36.078125 6.890625 40.9375 10.546875 
Q 45.796875 14.203125 45.796875 21.1875 
Q 45.796875 27.640625 41.28125 31.265625 
Q 36.765625 34.90625 28.71875 34.90625 
L 20.21875 34.90625 
L 20.21875 43.015625 
L 29.109375 43.015625 
Q 36.375 43.015625 40.234375 45.921875 
Q 44.09375 48.828125 44.09375 54.296875 
Q 44.09375 59.90625 40.109375 62.90625 
Q 36.140625 65.921875 28.71875 65.921875 
Q 24.65625 65.921875 20.015625 65.03125 
Q 15.375 64.15625 9.8125 62.3125 
L 9.8125 71.09375 
Q 15.4375 72.65625 20.34375 73.4375 
Q 25.25 74.21875 29.59375 74.21875 
Q 40.828125 74.21875 47.359375 69.109375 
Q 53.90625 64.015625 53.90625 55.328125 
Q 53.90625 49.265625 50.4375 45.09375 
Q 46.96875 40.921875 40.578125 39.3125 
z
" id="DejaVuSans-33"/>
      </defs>
      <g transform="translate(331.7167 322.182437)scale(0.1 -0.1)">
       <use xlink:href="#DejaVuSans-33"/>
       <use x="63.623047" xlink:href="#DejaVuSans-30"/>
       <use x="127.246094" xlink:href="#DejaVuSans-30"/>
       <use x="190.869141" xlink:href="#DejaVuSans-30"/>
      </g>
     </g>
    </g>
    <g id="xtick_8">
     <g id="line2d_8">
      <g>
       <use style="stroke:#000000;stroke-width:0.8;" x="389.543195" xlink:href="#m078752eaf1" y="307.584"/>
      </g>
     </g>
     <g id="text_8">
      <!-- 3500 -->
      <g transform="translate(376.818195 322.182437)scale(0.1 -0.1)">
       <use xlink:href="#DejaVuSans-33"/>
       <use x="63.623047" xlink:href="#DejaVuSans-35"/>
       <use x="127.246094" xlink:href="#DejaVuSans-30"/>
       <use x="190.869141" xlink:href="#DejaVuSans-30"/>
      </g>
     </g>
    </g>
    <g id="text_9">
     <!-- t(s) -->
     <defs>
      <path d="M 18.3125 70.21875 
L 18.3125 54.6875 
L 36.8125 54.6875 
L 36.8125 47.703125 
L 18.3125 47.703125 
L 18.3125 18.015625 
Q 18.3125 11.328125 20.140625 9.421875 
Q 21.96875 7.515625 27.59375 7.515625 
L 36.8125 7.515625 
L 36.8125 0 
L 27.59375 0 
Q 17.1875 0 13.234375 3.875 
Q 9.28125 7.765625 9.28125 18.015625 
L 9.28125 47.703125 
L 2.6875 47.703125 
L 2.6875 54.6875 
L 9.28125 54.6875 
L 9.28125 70.21875 
z
" id="DejaVuSans-74"/>
      <path d="M 31 75.875 
Q 24.46875 64.65625 21.28125 53.65625 
Q 18.109375 42.671875 18.109375 31.390625 
Q 18.109375 20.125 21.3125 9.0625 
Q 24.515625 -2 31 -13.1875 
L 23.1875 -13.1875 
Q 15.875 -1.703125 12.234375 9.375 
Q 8.59375 20.453125 8.59375 31.390625 
Q 8.59375 42.28125 12.203125 53.3125 
Q 15.828125 64.359375 23.1875 75.875 
z
" id="DejaVuSans-28"/>
      <path d="M 44.28125 53.078125 
L 44.28125 44.578125 
Q 40.484375 46.53125 36.375 47.5 
Q 32.28125 48.484375 27.875 48.484375 
Q 21.1875 48.484375 17.84375 46.4375 
Q 14.5 44.390625 14.5 40.28125 
Q 14.5 37.15625 16.890625 35.375 
Q 19.28125 33.59375 26.515625 31.984375 
L 29.59375 31.296875 
Q 39.15625 29.25 43.1875 25.515625 
Q 47.21875 21.78125 47.21875 15.09375 
Q 47.21875 7.46875 41.1875 3.015625 
Q 35.15625 -1.421875 24.609375 -1.421875 
Q 20.21875 -1.421875 15.453125 -0.5625 
Q 10.6875 0.296875 5.421875 2 
L 5.421875 11.28125 
Q 10.40625 8.6875 15.234375 7.390625 
Q 20.0625 6.109375 24.8125 6.109375 
Q 31.15625 6.109375 34.5625 8.28125 
Q 37.984375 10.453125 37.984375 14.40625 
Q 37.984375 18.0625 35.515625 20.015625 
Q 33.0625 21.96875 24.703125 23.78125 
L 21.578125 24.515625 
Q 13.234375 26.265625 9.515625 29.90625 
Q 5.8125 33.546875 5.8125 39.890625 
Q 5.8125 47.609375 11.28125 51.796875 
Q 16.75 56 26.8125 56 
Q 31.78125 56 36.171875 55.265625 
Q 40.578125 54.546875 44.28125 53.078125 
z
" id="DejaVuSans-73"/>
      <path d="M 8.015625 75.875 
L 15.828125 75.875 
Q 23.140625 64.359375 26.78125 53.3125 
Q 30.421875 42.28125 30.421875 31.390625 
Q 30.421875 20.453125 26.78125 9.375 
Q 23.140625 -1.703125 15.828125 -13.1875 
L 8.015625 -13.1875 
Q 14.5 -2 17.703125 9.0625 
Q 20.90625 20.125 20.90625 31.390625 
Q 20.90625 42.671875 17.703125 53.65625 
Q 14.5 64.65625 8.015625 75.875 
z
" id="DejaVuSans-29"/>
     </defs>
     <g transform="translate(227.693594 335.860562)scale(0.1 -0.1)">
      <use xlink:href="#DejaVuSans-74"/>
      <use x="39.208984" xlink:href="#DejaVuSans-28"/>
      <use x="78.222656" xlink:href="#DejaVuSans-73"/>
      <use x="130.322266" xlink:href="#DejaVuSans-29"/>
     </g>
    </g>
   </g>
   <g id="matplotlib.axis_2">
    <g id="ytick_1">
     <g id="line2d_9">
      <defs>
       <path d="M 0 0 
L -3.5 0 
" id="mc72e0913e7" style="stroke:#000000;stroke-width:0.8;"/>
      </defs>
      <g>
       <use style="stroke:#000000;stroke-width:0.8;" x="57.6" xlink:href="#mc72e0913e7" y="274.677677"/>
      </g>
     </g>
     <g id="text_10">
      <!-- −0.00004 -->
      <defs>
       <path d="M 10.59375 35.5 
L 73.1875 35.5 
L 73.1875 27.203125 
L 10.59375 27.203125 
z
" id="DejaVuSans-2212"/>
       <path d="M 10.6875 12.40625 
L 21 12.40625 
L 21 0 
L 10.6875 0 
z
" id="DejaVuSans-2e"/>
       <path d="M 37.796875 64.3125 
L 12.890625 25.390625 
L 37.796875 25.390625 
z
M 35.203125 72.90625 
L 47.609375 72.90625 
L 47.609375 25.390625 
L 58.015625 25.390625 
L 58.015625 17.1875 
L 47.609375 17.1875 
L 47.609375 0 
L 37.796875 0 
L 37.796875 17.1875 
L 4.890625 17.1875 
L 4.890625 26.703125 
z
" id="DejaVuSans-34"/>
      </defs>
      <g transform="translate(0.867188 278.476896)scale(0.1 -0.1)">
       <use xlink:href="#DejaVuSans-2212"/>
       <use x="83.789062" xlink:href="#DejaVuSans-30"/>
       <use x="147.412109" xlink:href="#DejaVuSans-2e"/>
       <use x="179.199219" xlink:href="#DejaVuSans-30"/>
       <use x="242.822266" xlink:href="#DejaVuSans-30"/>
       <use x="306.445312" xlink:href="#DejaVuSans-30"/>
       <use x="370.068359" xlink:href="#DejaVuSans-30"/>
       <use x="433.691406" xlink:href="#DejaVuSans-34"/>
      </g>
     </g>
    </g>
    <g id="ytick_2">
     <g id="line2d_10">
      <g>
       <use style="stroke:#000000;stroke-width:0.8;" x="57.6" xlink:href="#mc72e0913e7" y="222.651871"/>
      </g>
     </g>
     <g id="text_11">
      <!-- −0.00002 -->
      <g transform="translate(0.867188 226.45109)scale(0.1 -0.1)">
       <use xlink:href="#DejaVuSans-2212"/>
       <use x="83.789062" xlink:href="#DejaVuSans-30"/>
       <use x="147.412109" xlink:href="#DejaVuSans-2e"/>
       <use x="179.199219" xlink:href="#DejaVuSans-30"/>
       <use x="242.822266" xlink:href="#DejaVuSans-30"/>
       <use x="306.445312" xlink:href="#DejaVuSans-30"/>
       <use x="370.068359" xlink:href="#DejaVuSans-30"/>
       <use x="433.691406" xlink:href="#DejaVuSans-32"/>
      </g>
     </g>
    </g>
    <g id="ytick_3">
     <g id="line2d_11">
      <g>
       <use style="stroke:#000000;stroke-width:0.8;" x="57.6" xlink:href="#mc72e0913e7" y="170.626065"/>
      </g>
     </g>
     <g id="text_12">
      <!-- 0.00000 -->
      <g transform="translate(9.246875 174.425283)scale(0.1 -0.1)">
       <use xlink:href="#DejaVuSans-30"/>
       <use x="63.623047" xlink:href="#DejaVuSans-2e"/>
       <use x="95.410156" xlink:href="#DejaVuSans-30"/>
       <use x="159.033203" xlink:href="#DejaVuSans-30"/>
       <use x="222.65625" xlink:href="#DejaVuSans-30"/>
       <use x="286.279297" xlink:href="#DejaVuSans-30"/>
       <use x="349.902344" xlink:href="#DejaVuSans-30"/>
      </g>
     </g>
    </g>
    <g id="ytick_4">
     <g id="line2d_12">
      <g>
       <use style="stroke:#000000;stroke-width:0.8;" x="57.6" xlink:href="#mc72e0913e7" y="118.600258"/>
      </g>
     </g>
     <g id="text_13">
      <!-- 0.00002 -->
      <g transform="translate(9.246875 122.399477)scale(0.1 -0.1)">
       <use xlink:href="#DejaVuSans-30"/>
       <use x="63.623047" xlink:href="#DejaVuSans-2e"/>
       <use x="95.410156" xlink:href="#DejaVuSans-30"/>
       <use x="159.033203" xlink:href="#DejaVuSans-30"/>
       <use x="222.65625" xlink:href="#DejaVuSans-30"/>
       <use x="286.279297" xlink:href="#DejaVuSans-30"/>
       <use x="349.902344" xlink:href="#DejaVuSans-32"/>
      </g>
     </g>
    </g>
    <g id="ytick_5">
     <g id="line2d_13">
      <g>
       <use style="stroke:#000000;stroke-width:0.8;" x="57.6" xlink:href="#mc72e0913e7" y="66.574452"/>
      </g>
     </g>
     <g id="text_14">
      <!-- 0.00004 -->
      <g transform="translate(9.246875 70.37367)scale(0.1 -0.1)">
       <use xlink:href="#DejaVuSans-30"/>
       <use x="63.623047" xlink:href="#DejaVuSans-2e"/>
       <use x="95.410156" xlink:href="#DejaVuSans-30"/>
       <use x="159.033203" xlink:href="#DejaVuSans-30"/>
       <use x="222.65625" xlink:href="#DejaVuSans-30"/>
       <use x="286.279297" xlink:href="#DejaVuSans-30"/>
       <use x="349.902344" xlink:href="#DejaVuSans-34"/>
      </g>
     </g>
    </g>
    <g id="text_15">
     <!-- Voltage (V) -->
     <defs>
      <path d="M 28.609375 0 
L 0.78125 72.90625 
L 11.078125 72.90625 
L 34.1875 11.53125 
L 57.328125 72.90625 
L 67.578125 72.90625 
L 39.796875 0 
z
" id="DejaVuSans-56"/>
      <path d="M 30.609375 48.390625 
Q 23.390625 48.390625 19.1875 42.75 
Q 14.984375 37.109375 14.984375 27.296875 
Q 14.984375 17.484375 19.15625 11.84375 
Q 23.34375 6.203125 30.609375 6.203125 
Q 37.796875 6.203125 41.984375 11.859375 
Q 46.1875 17.53125 46.1875 27.296875 
Q 46.1875 37.015625 41.984375 42.703125 
Q 37.796875 48.390625 30.609375 48.390625 
z
M 30.609375 56 
Q 42.328125 56 49.015625 48.375 
Q 55.71875 40.765625 55.71875 27.296875 
Q 55.71875 13.875 49.015625 6.21875 
Q 42.328125 -1.421875 30.609375 -1.421875 
Q 18.84375 -1.421875 12.171875 6.21875 
Q 5.515625 13.875 5.515625 27.296875 
Q 5.515625 40.765625 12.171875 48.375 
Q 18.84375 56 30.609375 56 
z
" id="DejaVuSans-6f"/>
      <path d="M 9.421875 75.984375 
L 18.40625 75.984375 
L 18.40625 0 
L 9.421875 0 
z
" id="DejaVuSans-6c"/>
      <path d="M 34.28125 27.484375 
Q 23.390625 27.484375 19.1875 25 
Q 14.984375 22.515625 14.984375 16.5 
Q 14.984375 11.71875 18.140625 8.90625 
Q 21.296875 6.109375 26.703125 6.109375 
Q 34.1875 6.109375 38.703125 11.40625 
Q 43.21875 16.703125 43.21875 25.484375 
L 43.21875 27.484375 
z
M 52.203125 31.203125 
L 52.203125 0 
L 43.21875 0 
L 43.21875 8.296875 
Q 40.140625 3.328125 35.546875 0.953125 
Q 30.953125 -1.421875 24.3125 -1.421875 
Q 15.921875 -1.421875 10.953125 3.296875 
Q 6 8.015625 6 15.921875 
Q 6 25.140625 12.171875 29.828125 
Q 18.359375 34.515625 30.609375 34.515625 
L 43.21875 34.515625 
L 43.21875 35.40625 
Q 43.21875 41.609375 39.140625 45 
Q 35.0625 48.390625 27.6875 48.390625 
Q 23 48.390625 18.546875 47.265625 
Q 14.109375 46.140625 10.015625 43.890625 
L 10.015625 52.203125 
Q 14.9375 54.109375 19.578125 55.046875 
Q 24.21875 56 28.609375 56 
Q 40.484375 56 46.34375 49.84375 
Q 52.203125 43.703125 52.203125 31.203125 
z
" id="DejaVuSans-61"/>
      <path d="M 45.40625 27.984375 
Q 45.40625 37.75 41.375 43.109375 
Q 37.359375 48.484375 30.078125 48.484375 
Q 22.859375 48.484375 18.828125 43.109375 
Q 14.796875 37.75 14.796875 27.984375 
Q 14.796875 18.265625 18.828125 12.890625 
Q 22.859375 7.515625 30.078125 7.515625 
Q 37.359375 7.515625 41.375 12.890625 
Q 45.40625 18.265625 45.40625 27.984375 
z
M 54.390625 6.78125 
Q 54.390625 -7.171875 48.1875 -13.984375 
Q 42 -20.796875 29.203125 -20.796875 
Q 24.46875 -20.796875 20.265625 -20.09375 
Q 16.0625 -19.390625 12.109375 -17.921875 
L 12.109375 -9.1875 
Q 16.0625 -11.328125 19.921875 -12.34375 
Q 23.78125 -13.375 27.78125 -13.375 
Q 36.625 -13.375 41.015625 -8.765625 
Q 45.40625 -4.15625 45.40625 5.171875 
L 45.40625 9.625 
Q 42.625 4.78125 38.28125 2.390625 
Q 33.9375 0 27.875 0 
Q 17.828125 0 11.671875 7.65625 
Q 5.515625 15.328125 5.515625 27.984375 
Q 5.515625 40.671875 11.671875 48.328125 
Q 17.828125 56 27.875 56 
Q 33.9375 56 38.28125 53.609375 
Q 42.625 51.21875 45.40625 46.390625 
L 45.40625 54.6875 
L 54.390625 54.6875 
z
" id="DejaVuSans-67"/>
      <path d="M 56.203125 29.59375 
L 56.203125 25.203125 
L 14.890625 25.203125 
Q 15.484375 15.921875 20.484375 11.0625 
Q 25.484375 6.203125 34.421875 6.203125 
Q 39.59375 6.203125 44.453125 7.46875 
Q 49.3125 8.734375 54.109375 11.28125 
L 54.109375 2.78125 
Q 49.265625 0.734375 44.1875 -0.34375 
Q 39.109375 -1.421875 33.890625 -1.421875 
Q 20.796875 -1.421875 13.15625 6.1875 
Q 5.515625 13.8125 5.515625 26.8125 
Q 5.515625 40.234375 12.765625 48.109375 
Q 20.015625 56 32.328125 56 
Q 43.359375 56 49.78125 48.890625 
Q 56.203125 41.796875 56.203125 29.59375 
z
M 47.21875 32.234375 
Q 47.125 39.59375 43.09375 43.984375 
Q 39.0625 48.390625 32.421875 48.390625 
Q 24.90625 48.390625 20.390625 44.140625 
Q 15.875 39.890625 15.1875 32.171875 
z
" id="DejaVuSans-65"/>
      <path id="DejaVuSans-20"/>
     </defs>
     <g transform="translate(-5.2125 202.577219)rotate(-90)scale(0.1 -0.1)">
      <use xlink:href="#DejaVuSans-56"/>
      <use x="68.298828" xlink:href="#DejaVuSans-6f"/>
      <use x="129.480469" xlink:href="#DejaVuSans-6c"/>
      <use x="157.263672" xlink:href="#DejaVuSans-74"/>
      <use x="196.472656" xlink:href="#DejaVuSans-61"/>
      <use x="257.751953" xlink:href="#DejaVuSans-67"/>
      <use x="321.228516" xlink:href="#DejaVuSans-65"/>
      <use x="382.751953" xlink:href="#DejaVuSans-20"/>
      <use x="414.539062" xlink:href="#DejaVuSans-28"/>
      <use x="453.552734" xlink:href="#DejaVuSans-56"/>
      <use x="521.960938" xlink:href="#DejaVuSans-29"/>
     </g>
    </g>
    <g id="text_16">
     <!-- +1 -->
     <defs>
      <path d="M 46 62.703125 
L 46 35.5 
L 73.1875 35.5 
L 73.1875 27.203125 
L 46 27.203125 
L 46 0 
L 37.796875 0 
L 37.796875 27.203125 
L 10.59375 27.203125 
L 10.59375 35.5 
L 37.796875 35.5 
L 37.796875 62.703125 
z
" id="DejaVuSans-2b"/>
     </defs>
     <g transform="translate(57.6 38.472)scale(0.1 -0.1)">
      <use xlink:href="#DejaVuSans-2b"/>
      <use x="83.789062" xlink:href="#DejaVuSans-31"/>
     </g>
    </g>
   </g>
   <g id="line2d_14">
    <path clip-path="url(#p7af7048952)" d="M 73.832727 131.60671 
L 73.92302 186.233806 
L 74.103607 157.619613 
L 74.19381 160.220903 
L 74.284013 160.220903 
L 74.464419 191.436387 
L 74.554712 162.822194 
L 74.644915 170.626065 
L 74.735118 155.018323 
L 74.825321 157.619613 
L 75.005727 162.822194 
L 75.09593 157.619613 
L 75.186133 168.024774 
L 75.276336 157.619613 
L 75.546945 178.429935 
L 75.637148 165.423484 
L 75.727351 175.828645 
L 75.817554 162.822194 
L 75.907757 178.429935 
L 75.99796 170.626065 
L 76.088163 199.240258 
L 76.178366 188.835097 
L 76.268569 199.240258 
L 76.358772 191.436387 
L 76.448975 196.638968 
L 76.539178 209.645419 
L 76.629381 183.632516 
L 76.719584 217.44929 
L 76.89999 178.429935 
L 77.080396 204.442839 
L 77.170599 204.442839 
L 77.260802 238.259613 
L 77.351005 201.841548 
L 77.441208 209.645419 
L 77.531411 259.069935 
L 77.621614 214.848 
L 77.711817 217.44929 
L 77.892223 155.018323 
L 77.982426 214.848 
L 78.253035 149.815742 
L 78.433441 155.018323 
L 78.613847 126.404129 
L 78.70405 181.031226 
L 78.974659 118.600258 
L 79.155065 144.613161 
L 79.245268 139.410581 
L 79.335471 121.201548 
L 79.515877 134.208 
L 79.606079 92.587355 
L 79.696282 136.80929 
L 79.786485 76.979613 
L 79.876688 126.404129 
L 79.966891 113.397677 
L 80.057094 123.802839 
L 80.2375 209.645419 
L 80.327703 134.208 
L 80.417906 183.632516 
L 80.508109 149.815742 
L 80.688515 168.024774 
L 80.868921 188.835097 
L 80.959124 181.031226 
L 81.049327 201.841548 
L 81.13953 188.835097 
L 81.319936 222.651871 
L 81.410139 196.638968 
L 81.500342 222.651871 
L 81.680748 194.037677 
L 81.770951 201.841548 
L 81.861154 183.632516 
L 82.04156 194.037677 
L 82.221966 191.436387 
L 82.402372 212.24671 
L 82.492575 194.037677 
L 82.582778 201.841548 
L 82.672981 186.233806 
L 82.763184 199.240258 
L 82.853387 188.835097 
L 82.94359 212.24671 
L 83.033793 191.436387 
L 83.123996 194.037677 
L 83.214199 194.037677 
L 83.304402 199.240258 
L 83.394605 194.037677 
L 83.484808 207.044129 
L 83.575011 186.233806 
L 83.755417 194.037677 
L 83.84562 186.233806 
L 84.116319 212.24671 
L 84.296725 194.037677 
L 84.386928 199.240258 
L 84.477131 191.436387 
L 84.567334 212.24671 
L 84.657537 199.240258 
L 84.74774 207.044129 
L 84.837943 181.031226 
L 84.928146 220.050581 
L 85.018349 217.44929 
L 85.198755 175.828645 
L 85.379161 183.632516 
L 85.469454 188.835097 
L 85.64986 183.632516 
L 85.830266 199.240258 
L 85.920469 183.632516 
L 86.010672 186.233806 
L 86.100875 183.632516 
L 86.191078 194.037677 
L 86.281281 186.233806 
L 86.371484 188.835097 
L 86.55189 162.822194 
L 86.642093 165.423484 
L 86.732296 173.227355 
L 86.822499 152.417032 
L 86.912702 183.632516 
L 87.183311 131.60671 
L 87.273514 160.220903 
L 87.363717 155.018323 
L 87.45392 155.018323 
L 87.544123 121.201548 
L 87.724529 136.80929 
L 87.814732 136.80929 
L 88.085341 115.998968 
L 88.265747 147.214452 
L 88.35595 121.201548 
L 88.536356 152.417032 
L 88.626559 139.410581 
L 88.806965 144.613161 
L 88.987371 108.195097 
L 89.077574 108.195097 
L 89.167777 95.188645 
L 89.25798 110.796387 
L 89.348183 147.214452 
L 89.528589 89.986065 
L 89.799198 170.626065 
L 89.889401 144.613161 
L 89.979604 155.018323 
L 90.069807 149.815742 
L 90.16001 186.233806 
L 90.250213 152.417032 
L 90.340416 191.436387 
L 90.430619 165.423484 
L 90.520822 201.841548 
L 90.611025 194.037677 
L 90.791431 222.651871 
L 90.971837 183.632516 
L 91.06204 220.050581 
L 91.152243 196.638968 
L 91.422852 225.253161 
L 91.693461 199.240258 
L 91.873867 233.057032 
L 91.96407 235.658323 
L 92.144566 196.638968 
L 92.234859 222.651871 
L 92.415445 181.031226 
L 92.505739 199.240258 
L 92.595942 181.031226 
L 92.776348 186.233806 
L 92.866551 186.233806 
L 92.956754 188.835097 
L 93.13734 157.619613 
L 93.227633 188.835097 
L 93.40822 144.613161 
L 93.498513 108.195097 
L 93.588806 113.397677 
L 93.769392 160.220903 
L 93.859685 115.998968 
L 94.040182 131.60671 
L 94.130385 134.208 
L 94.220588 155.018323 
L 94.400994 134.208 
L 94.5814 149.815742 
L 94.761896 131.60671 
L 94.852099 129.005419 
L 95.122708 175.828645 
L 95.303114 144.613161 
L 95.393317 142.011871 
L 95.48352 178.429935 
L 95.573723 157.619613 
L 95.663926 162.822194 
L 95.754129 191.436387 
L 95.844332 155.018323 
L 95.934535 175.828645 
L 96.024738 168.024774 
L 96.114941 173.227355 
L 96.295347 162.822194 
L 96.38555 157.619613 
L 96.565956 173.227355 
L 96.656159 175.828645 
L 96.836565 152.417032 
L 96.926768 165.423484 
L 97.016971 162.822194 
L 97.107174 173.227355 
L 97.197377 152.417032 
L 97.28758 186.233806 
L 97.467986 157.619613 
L 97.648392 201.841548 
L 97.828797 149.815742 
L 98.009203 220.050581 
L 98.099406 212.24671 
L 98.370015 160.220903 
L 98.550421 178.429935 
L 98.640624 165.423484 
L 98.730827 168.024774 
L 98.82103 191.436387 
L 99.001436 155.018323 
L 99.091639 186.233806 
L 99.181842 162.822194 
L 99.272045 170.626065 
L 99.542654 227.854452 
L 99.72306 235.658323 
L 99.813263 233.057032 
L 99.993669 199.240258 
L 100.174075 149.815742 
L 100.264278 183.632516 
L 100.354481 147.214452 
L 100.534887 204.442839 
L 100.62509 168.024774 
L 100.715293 191.436387 
L 100.895699 157.619613 
L 100.985902 168.024774 
L 101.166308 139.410581 
L 101.256511 136.80929 
L 101.436917 160.220903 
L 101.52712 123.802839 
L 101.617323 149.815742 
L 101.797729 121.201548 
L 101.978135 142.011871 
L 102.068338 100.391226 
L 102.158541 123.802839 
L 102.248744 92.587355 
L 102.42915 110.796387 
L 102.519353 165.423484 
L 102.609556 160.220903 
L 102.789962 178.429935 
L 102.880165 168.024774 
L 102.970368 178.429935 
L 103.060571 165.423484 
L 103.150774 178.429935 
L 103.240977 160.220903 
L 103.33118 209.645419 
L 103.421383 199.240258 
L 103.511586 183.632516 
L 103.601789 214.848 
L 103.691992 196.638968 
L 103.782195 199.240258 
L 103.872398 183.632516 
L 103.962601 225.253161 
L 104.052804 196.638968 
L 104.23321 230.455742 
L 104.413616 212.24671 
L 104.503819 243.462194 
L 104.594022 204.442839 
L 104.684225 243.462194 
L 104.774428 235.658323 
L 104.864631 209.645419 
L 104.954834 225.253161 
L 105.13524 157.619613 
L 105.315646 225.253161 
L 105.405849 121.201548 
L 105.586255 214.848 
L 105.766661 155.018323 
L 105.947067 204.442839 
L 106.127473 155.018323 
L 106.217676 152.417032 
L 106.307879 134.208 
L 106.398082 183.632516 
L 106.488285 175.828645 
L 106.578488 183.632516 
L 106.668691 129.005419 
L 106.758894 134.208 
L 106.93939 186.233806 
L 107.119796 149.815742 
L 107.300202 188.835097 
L 107.480608 126.404129 
L 107.661014 162.822194 
L 107.751217 123.802839 
L 107.84142 165.423484 
L 107.931623 149.815742 
L 108.021826 155.018323 
L 108.112029 118.600258 
L 108.202232 139.410581 
L 108.292435 136.80929 
L 108.472841 118.600258 
L 108.563044 139.410581 
L 108.653247 126.404129 
L 108.74345 92.587355 
L 108.833653 149.815742 
L 109.014059 92.587355 
L 109.104262 108.195097 
L 109.194465 149.815742 
L 109.284668 136.80929 
L 109.374871 175.828645 
L 109.64557 113.397677 
L 109.735773 178.429935 
L 109.825976 108.195097 
L 109.916179 196.638968 
L 110.096585 136.80929 
L 110.186788 186.233806 
L 110.276991 152.417032 
L 110.457397 188.835097 
L 110.637803 152.417032 
L 110.818209 183.632516 
L 111.088818 214.848 
L 111.179021 196.638968 
L 111.269224 230.455742 
L 111.359427 201.841548 
L 111.44963 217.44929 
L 111.810441 191.436387 
L 111.990847 199.240258 
L 112.08105 222.651871 
L 112.261456 201.841548 
L 112.351659 233.057032 
L 112.532065 175.828645 
L 112.802674 212.24671 
L 112.892877 196.638968 
L 113.073283 220.050581 
L 113.163486 207.044129 
L 113.524388 240.860903 
L 113.614591 204.442839 
L 113.704794 240.860903 
L 113.794997 194.037677 
L 113.8852 248.664774 
L 113.975403 160.220903 
L 114.065606 233.057032 
L 114.246012 170.626065 
L 114.336215 191.436387 
L 114.426418 173.227355 
L 114.516621 204.442839 
L 114.78723 155.018323 
L 114.877433 178.429935 
L 115.148042 144.613161 
L 115.238245 165.423484 
L 115.508854 118.600258 
L 115.68926 162.822194 
L 115.779463 123.802839 
L 115.869666 139.410581 
L 115.959869 136.80929 
L 116.050072 113.397677 
L 116.230478 144.613161 
L 116.320681 92.587355 
L 116.410884 121.201548 
L 116.501087 105.593806 
L 116.59129 136.80929 
L 116.681493 102.992516 
L 116.771696 178.429935 
L 116.861899 162.822194 
L 116.952102 136.80929 
L 117.222711 214.848 
L 117.403117 123.802839 
L 117.583523 188.835097 
L 117.673726 181.031226 
L 117.763929 188.835097 
L 118.034538 152.417032 
L 118.214944 162.822194 
L 118.39535 160.220903 
L 118.485553 147.214452 
L 118.665959 186.233806 
L 118.756162 204.442839 
L 119.026771 155.018323 
L 119.207177 191.436387 
L 119.29738 201.841548 
L 119.387583 152.417032 
L 119.477786 162.822194 
L 119.567989 188.835097 
L 119.658192 173.227355 
L 119.748395 199.240258 
L 119.838598 160.220903 
L 120.019004 222.651871 
L 120.109207 196.638968 
L 120.19941 222.651871 
L 120.379816 165.423484 
L 120.560222 227.854452 
L 120.650425 201.841548 
L 120.830831 233.057032 
L 120.921034 209.645419 
L 121.011237 225.253161 
L 121.10144 209.645419 
L 121.191643 212.24671 
L 121.281846 201.841548 
L 121.372049 204.442839 
L 121.552455 222.651871 
L 121.642658 209.645419 
L 121.732861 214.848 
L 121.823064 243.462194 
L 122.00347 227.854452 
L 122.183876 121.201548 
L 122.364282 134.208 
L 122.454485 129.005419 
L 122.544688 100.391226 
L 122.634891 144.613161 
L 122.725094 79.580903 
L 122.9055 178.429935 
L 122.995703 178.429935 
L 123.085906 121.201548 
L 123.176109 207.044129 
L 123.356514 136.80929 
L 123.627123 217.44929 
L 123.717326 194.037677 
L 123.807529 220.050581 
L 123.987935 173.227355 
L 124.078138 214.848 
L 124.168341 204.442839 
L 124.348747 214.848 
L 124.43895 212.24671 
L 124.529153 199.240258 
L 124.619356 251.266065 
L 124.709559 235.658323 
L 124.889965 160.220903 
L 124.980168 191.436387 
L 125.070371 188.835097 
L 125.160574 144.613161 
L 125.250777 152.417032 
L 125.34098 147.214452 
L 125.431183 129.005419 
L 125.611589 160.220903 
L 125.701792 123.802839 
L 125.791995 129.005419 
L 125.882198 126.404129 
L 126.062604 108.195097 
L 126.152807 134.208 
L 126.24301 105.593806 
L 126.333213 108.195097 
L 126.423416 100.391226 
L 126.513619 76.979613 
L 126.694025 134.208 
L 126.874431 175.828645 
L 126.964634 209.645419 
L 127.14504 155.018323 
L 127.235243 170.626065 
L 127.325446 160.220903 
L 127.415649 188.835097 
L 127.505852 183.632516 
L 127.596055 201.841548 
L 127.776461 183.632516 
L 127.866664 233.057032 
L 127.956867 227.854452 
L 128.04707 199.240258 
L 128.227476 222.651871 
L 128.317679 220.050581 
L 128.407882 204.442839 
L 128.498085 246.063484 
L 128.588288 199.240258 
L 128.678491 264.272516 
L 128.768694 222.651871 
L 128.858897 248.664774 
L 128.9491 162.822194 
L 129.129506 225.253161 
L 129.219709 157.619613 
L 129.309912 183.632516 
L 129.400115 157.619613 
L 129.490318 173.227355 
L 129.760927 149.815742 
L 129.85113 152.417032 
L 129.941333 131.60671 
L 130.031536 155.018323 
L 130.121739 139.410581 
L 130.211942 152.417032 
L 130.302145 123.802839 
L 130.392348 144.613161 
L 130.572754 129.005419 
L 130.662957 126.404129 
L 130.75316 155.018323 
L 130.843363 105.593806 
L 130.933566 110.796387 
L 131.023769 134.208 
L 131.113972 92.587355 
L 131.204175 152.417032 
L 131.294378 110.796387 
L 131.384581 160.220903 
L 131.474784 121.201548 
L 131.564987 183.632516 
L 131.65519 170.626065 
L 131.745393 147.214452 
L 131.925799 212.24671 
L 132.016002 186.233806 
L 132.106205 209.645419 
L 132.196408 194.037677 
L 132.286611 199.240258 
L 132.376814 196.638968 
L 132.55722 225.253161 
L 132.737626 201.841548 
L 132.827829 240.860903 
L 132.918032 233.057032 
L 133.008235 209.645419 
L 133.188641 274.677677 
L 133.278843 220.050581 
L 133.369046 251.266065 
L 133.729858 149.815742 
L 133.820061 181.031226 
L 133.910264 165.423484 
L 134.000467 196.638968 
L 134.09067 165.423484 
L 134.180873 186.233806 
L 134.271076 183.632516 
L 134.451482 152.417032 
L 134.541685 142.011871 
L 134.631888 157.619613 
L 134.902497 131.60671 
L 134.9927 175.828645 
L 135.263309 108.195097 
L 135.443715 139.410581 
L 135.533918 118.600258 
L 135.624121 126.404129 
L 135.714324 157.619613 
L 135.804527 97.789935 
L 135.89473 134.208 
L 136.075136 76.979613 
L 136.435948 178.429935 
L 136.526151 136.80929 
L 136.616354 178.429935 
L 136.706557 170.626065 
L 136.79676 168.024774 
L 136.886963 181.031226 
L 136.977166 165.423484 
L 137.067369 214.848 
L 137.247775 186.233806 
L 137.337978 225.253161 
L 137.518384 168.024774 
L 137.69879 186.233806 
L 137.788993 183.632516 
L 137.879196 201.841548 
L 138.059602 178.429935 
L 138.149805 188.835097 
L 138.240008 183.632516 
L 138.420414 188.835097 
L 138.60082 214.848 
L 138.691023 209.645419 
L 138.781226 186.233806 
L 138.871429 196.638968 
L 138.961632 191.436387 
L 139.051835 194.037677 
L 139.142038 186.233806 
L 139.232241 168.024774 
L 139.322444 173.227355 
L 139.50285 191.436387 
L 139.593053 204.442839 
L 139.773459 188.835097 
L 139.953865 212.24671 
L 140.134271 178.429935 
L 140.224474 186.233806 
L 140.40488 212.24671 
L 140.495083 217.44929 
L 140.585286 214.848 
L 140.675489 168.024774 
L 140.765692 191.436387 
L 140.855895 188.835097 
L 140.946098 191.436387 
L 141.216707 165.423484 
L 141.30691 220.050581 
L 141.397113 214.848 
L 141.487316 207.044129 
L 141.667722 175.828645 
L 141.757925 207.044129 
L 141.848128 178.429935 
L 141.938331 186.233806 
L 142.20894 136.80929 
L 142.299143 201.841548 
L 142.479549 139.410581 
L 142.569752 201.841548 
L 142.659955 144.613161 
L 142.750158 207.044129 
L 142.840361 194.037677 
L 143.201172 217.44929 
L 143.381578 196.638968 
L 143.471781 204.442839 
L 143.561984 199.240258 
L 143.652187 204.442839 
L 143.832593 134.208 
L 143.922796 108.195097 
L 144.103202 118.600258 
L 144.193405 105.593806 
L 144.373811 126.404129 
L 144.464014 100.391226 
L 144.554217 191.436387 
L 144.64442 113.397677 
L 144.734623 118.600258 
L 145.005232 199.240258 
L 145.095435 136.80929 
L 145.185638 178.429935 
L 145.275841 170.626065 
L 145.366044 139.410581 
L 145.456247 149.815742 
L 145.636653 201.841548 
L 145.726856 152.417032 
L 145.907262 207.044129 
L 145.997465 209.645419 
L 146.177871 173.227355 
L 146.44848 230.455742 
L 146.628886 214.848 
L 146.719089 217.44929 
L 146.809292 204.442839 
L 146.899495 131.60671 
L 146.989698 181.031226 
L 147.079901 149.815742 
L 147.170104 194.037677 
L 147.35051 142.011871 
L 147.440713 183.632516 
L 147.621119 102.992516 
L 147.801525 123.802839 
L 147.981931 204.442839 
L 148.162337 207.044129 
L 148.25254 204.442839 
L 148.342743 209.645419 
L 148.432946 225.253161 
L 148.613352 209.645419 
L 148.703555 201.841548 
L 148.793758 246.063484 
L 148.883961 240.860903 
L 148.974164 178.429935 
L 149.064367 261.671226 
L 149.15457 194.037677 
L 149.244773 238.259613 
L 149.334976 217.44929 
L 149.425179 160.220903 
L 149.605585 222.651871 
L 149.876194 139.410581 
L 150.146803 220.050581 
L 150.417412 160.220903 
L 150.507615 188.835097 
L 150.688021 129.005419 
L 150.868427 199.240258 
L 150.95863 155.018323 
L 151.139036 183.632516 
L 151.229239 235.658323 
L 151.319532 230.455742 
L 151.409735 235.658323 
L 151.499938 199.240258 
L 151.680344 264.272516 
L 151.770547 181.031226 
L 151.86075 233.057032 
L 151.950953 181.031226 
L 152.131449 217.44929 
L 152.221742 212.24671 
L 152.312035 217.44929 
L 152.402329 157.619613 
L 152.582735 243.462194 
L 152.763231 157.619613 
L 152.853524 235.658323 
L 152.943817 199.240258 
L 153.124313 235.658323 
L 153.214516 230.455742 
L 153.394922 160.220903 
L 153.665531 147.214452 
L 153.845937 155.018323 
L 154.026343 134.208 
L 154.296952 105.593806 
L 154.387155 147.214452 
L 154.567561 95.188645 
L 154.83817 199.240258 
L 154.928373 123.802839 
L 155.018576 134.208 
L 155.198982 178.429935 
L 155.379388 186.233806 
L 155.469591 152.417032 
L 155.7402 201.841548 
L 155.920606 186.233806 
L 156.010809 186.233806 
L 156.191215 233.057032 
L 156.371621 199.240258 
L 156.552027 225.253161 
L 156.732433 199.240258 
L 156.822726 238.259613 
L 157.003313 196.638968 
L 157.093516 246.063484 
L 157.274012 186.233806 
L 157.364215 230.455742 
L 157.544621 123.802839 
L 157.634824 139.410581 
L 157.725027 214.848 
L 157.81523 115.998968 
L 157.905523 123.802839 
L 158.176402 142.011871 
L 158.266605 183.632516 
L 158.447011 134.208 
L 158.537214 147.214452 
L 158.807823 131.60671 
L 158.898026 152.417032 
L 158.988229 118.600258 
L 159.078432 144.613161 
L 159.168635 136.80929 
L 159.258838 115.998968 
L 159.349041 118.600258 
L 159.439244 173.227355 
L 159.529447 165.423484 
L 159.709853 144.613161 
L 159.800056 155.018323 
L 159.890349 115.998968 
L 159.980643 121.201548 
L 160.161049 136.80929 
L 160.341545 129.005419 
L 160.431748 121.201548 
L 160.521951 134.208 
L 160.612244 118.600258 
L 160.79265 136.80929 
L 161.063259 97.789935 
L 161.153462 123.802839 
L 161.243665 95.188645 
L 161.333958 115.998968 
L 161.514545 84.783484 
L 161.604838 115.998968 
L 161.695041 79.580903 
L 161.785244 134.208 
L 161.875447 100.391226 
L 162.055853 131.60671 
L 162.146056 97.789935 
L 162.326462 217.44929 
L 162.416755 194.037677 
L 162.507048 220.050581 
L 162.777837 152.417032 
L 162.86804 199.240258 
L 162.958243 194.037677 
L 163.048446 209.645419 
L 163.138649 142.011871 
L 163.228852 144.613161 
L 163.319055 186.233806 
L 163.409258 102.992516 
L 163.499461 201.841548 
L 163.679867 131.60671 
L 163.77007 183.632516 
L 163.860273 181.031226 
L 163.950476 152.417032 
L 164.040679 160.220903 
L 164.221175 191.436387 
L 164.401762 152.417032 
L 164.582258 199.240258 
L 164.672461 178.429935 
L 164.852867 227.854452 
L 165.033273 186.233806 
L 165.213679 214.848 
L 165.394085 181.031226 
L 165.574491 235.658323 
L 165.664694 199.240258 
L 165.754987 230.455742 
L 165.935573 191.436387 
L 166.11607 207.044129 
L 166.206273 207.044129 
L 166.386679 214.848 
L 166.476882 212.24671 
L 166.657288 201.841548 
L 166.747491 230.455742 
L 166.837694 227.854452 
L 166.927897 230.455742 
L 167.0181 212.24671 
L 167.108303 217.44929 
L 167.198596 142.011871 
L 167.288889 238.259613 
L 167.469385 152.417032 
L 167.559588 212.24671 
L 167.649791 126.404129 
L 167.739994 147.214452 
L 167.9204 123.802839 
L 168.010693 136.80929 
L 168.191099 222.651871 
L 168.281302 162.822194 
L 168.371505 188.835097 
L 168.461708 152.417032 
L 168.642114 183.632516 
L 168.82252 123.802839 
L 168.912813 155.018323 
L 169.273986 84.783484 
L 169.634798 188.835097 
L 169.725091 136.80929 
L 169.815294 152.417032 
L 169.9957 204.442839 
L 170.176106 188.835097 
L 170.356512 214.848 
L 170.536918 204.442839 
L 170.627121 209.645419 
L 170.717324 204.442839 
L 170.807527 238.259613 
L 170.89773 201.841548 
L 170.987933 246.063484 
L 171.168339 204.442839 
L 171.258542 186.233806 
L 171.348745 217.44929 
L 171.438948 157.619613 
L 171.529151 191.436387 
L 171.619354 186.233806 
L 171.709557 136.80929 
L 171.980256 175.828645 
L 172.070459 165.423484 
L 172.160662 121.201548 
L 172.250865 131.60671 
L 172.341068 165.423484 
L 172.611677 134.208 
L 172.70188 129.005419 
L 172.792083 115.998968 
L 172.882286 142.011871 
L 173.062692 87.384774 
L 173.423504 173.227355 
L 173.513707 162.822194 
L 173.694113 178.429935 
L 173.784316 178.429935 
L 173.874519 204.442839 
L 173.964722 201.841548 
L 174.054925 191.436387 
L 174.145128 212.24671 
L 174.235331 204.442839 
L 174.325534 217.44929 
L 174.415737 204.442839 
L 174.596233 233.057032 
L 174.686436 220.050581 
L 174.776639 222.651871 
L 174.957045 157.619613 
L 175.047338 196.638968 
L 175.137632 173.227355 
L 175.227925 227.854452 
L 175.318218 222.651871 
L 175.408421 217.44929 
L 175.498624 175.828645 
L 175.588827 209.645419 
L 175.67903 155.018323 
L 175.769233 196.638968 
L 175.859436 175.828645 
L 175.949639 196.638968 
L 176.039842 157.619613 
L 176.130045 165.423484 
L 176.220248 191.436387 
L 176.490857 139.410581 
L 176.671443 196.638968 
L 176.851939 160.220903 
L 176.942142 178.429935 
L 177.122548 147.214452 
L 177.212751 178.429935 
L 177.302954 155.018323 
L 177.393157 162.822194 
L 177.573563 131.60671 
L 177.663766 155.018323 
L 177.934375 131.60671 
L 178.024578 134.208 
L 178.204984 110.796387 
L 178.38539 121.201548 
L 178.475593 79.580903 
L 178.655999 139.410581 
L 178.746202 110.796387 
L 178.926608 175.828645 
L 179.016811 168.024774 
L 179.107014 173.227355 
L 179.28742 209.645419 
L 179.558029 191.436387 
L 179.648232 207.044129 
L 179.738435 204.442839 
L 179.918841 222.651871 
L 180.009044 204.442839 
L 180.099247 227.854452 
L 180.18945 207.044129 
L 180.279653 240.860903 
L 180.460059 178.429935 
L 180.550262 196.638968 
L 180.820871 152.417032 
L 180.911074 178.429935 
L 181.09148 144.613161 
L 181.181683 160.220903 
L 181.271886 155.018323 
L 181.542495 113.397677 
L 181.632698 147.214452 
L 181.722901 95.188645 
L 181.813104 142.011871 
L 181.903307 100.391226 
L 181.99351 102.992516 
L 182.083713 175.828645 
L 182.173916 123.802839 
L 182.264119 188.835097 
L 182.444525 157.619613 
L 182.534728 196.638968 
L 182.624931 157.619613 
L 182.715134 212.24671 
L 182.805337 186.233806 
L 182.89554 209.645419 
L 182.985743 186.233806 
L 183.166149 209.645419 
L 183.256352 204.442839 
L 183.436758 227.854452 
L 183.526961 204.442839 
L 183.707367 227.854452 
L 183.79757 209.645419 
L 183.887773 238.259613 
L 183.977976 217.44929 
L 184.068179 243.462194 
L 184.248585 209.645419 
L 184.338788 222.651871 
L 184.428991 165.423484 
L 184.609397 191.436387 
L 184.6996 188.835097 
L 184.789803 147.214452 
L 184.880006 178.429935 
L 185.060412 147.214452 
L 185.150615 139.410581 
L 185.331021 144.613161 
L 185.421224 121.201548 
L 185.511427 142.011871 
L 185.691833 121.201548 
L 185.782036 136.80929 
L 185.962442 95.188645 
L 186.23305 162.822194 
L 186.323253 178.429935 
L 186.413456 162.822194 
L 186.593862 178.429935 
L 186.774268 149.815742 
L 186.954674 178.429935 
L 187.044877 165.423484 
L 187.495892 214.848 
L 187.586095 175.828645 
L 187.676298 178.429935 
L 187.946907 214.848 
L 188.03711 209.645419 
L 188.217516 222.651871 
L 188.307719 204.442839 
L 188.397922 209.645419 
L 188.578328 246.063484 
L 188.668531 217.44929 
L 188.758734 227.854452 
L 188.848937 170.626065 
L 188.93914 173.227355 
L 189.029343 175.828645 
L 189.119546 173.227355 
L 189.209749 209.645419 
L 189.570561 139.410581 
L 189.660764 149.815742 
L 189.750967 136.80929 
L 189.84117 147.214452 
L 189.931373 129.005419 
L 190.021576 139.410581 
L 190.111779 102.992516 
L 190.201982 121.201548 
L 190.292185 168.024774 
L 190.382388 157.619613 
L 190.472591 142.011871 
L 190.562794 149.815742 
L 190.833403 201.841548 
L 190.923606 186.233806 
L 191.013809 217.44929 
L 191.104012 212.24671 
L 191.284418 227.854452 
L 191.555027 168.024774 
L 191.64523 220.050581 
L 191.915839 142.011871 
L 192.006042 142.011871 
L 192.096245 147.214452 
L 192.186448 134.208 
L 192.276651 139.410581 
L 192.366854 134.208 
L 192.457057 139.410581 
L 192.637463 95.188645 
L 192.727666 170.626065 
L 192.908072 142.011871 
L 193.088478 168.024774 
L 193.178681 207.044129 
L 193.268884 199.240258 
L 193.44929 212.24671 
L 193.539493 188.835097 
L 193.629696 212.24671 
L 193.719899 201.841548 
L 193.810102 225.253161 
L 193.900305 209.645419 
L 193.990508 217.44929 
L 194.080711 238.259613 
L 194.170914 217.44929 
L 194.261117 235.658323 
L 194.35132 199.240258 
L 194.441523 212.24671 
L 194.531726 188.835097 
L 194.712132 214.848 
L 194.892538 165.423484 
L 194.982741 173.227355 
L 195.072944 204.442839 
L 195.163147 175.828645 
L 195.25335 191.436387 
L 195.433756 173.227355 
L 195.614162 183.632516 
L 195.794568 155.018323 
L 196.065176 173.227355 
L 196.155379 139.410581 
L 196.245582 152.417032 
L 196.516191 131.60671 
L 196.606394 149.815742 
L 196.696597 144.613161 
L 196.7868 155.018323 
L 196.877003 181.031226 
L 196.967206 139.410581 
L 197.057409 147.214452 
L 197.147612 139.410581 
L 197.237815 157.619613 
L 197.328018 155.018323 
L 197.418221 155.018323 
L 197.508424 168.024774 
L 197.598627 110.796387 
L 197.779033 157.619613 
L 197.869327 97.789935 
L 197.95962 139.410581 
L 198.049913 126.404129 
L 198.140206 142.011871 
L 198.230499 136.80929 
L 198.320702 149.815742 
L 198.410995 144.613161 
L 198.501289 123.802839 
L 198.591582 160.220903 
L 198.681785 123.802839 
L 198.771988 165.423484 
L 198.952394 113.397677 
L 199.042597 126.404129 
L 199.1328 121.201548 
L 199.313296 136.80929 
L 199.403499 136.80929 
L 199.583905 108.195097 
L 199.674108 134.208 
L 199.854514 110.796387 
L 199.944717 108.195097 
L 200.03492 168.024774 
L 200.215326 142.011871 
L 200.395732 178.429935 
L 200.485935 165.423484 
L 200.576138 183.632516 
L 200.666341 178.429935 
L 200.846837 199.240258 
L 200.93713 149.815742 
L 201.117717 175.828645 
L 201.20801 191.436387 
L 201.388416 157.619613 
L 201.659025 201.841548 
L 201.749228 188.835097 
L 201.839431 212.24671 
L 201.929634 209.645419 
L 202.019837 220.050581 
L 202.11004 204.442839 
L 202.200243 230.455742 
L 202.290446 227.854452 
L 202.380649 225.253161 
L 202.470852 157.619613 
L 202.651258 217.44929 
L 202.741461 173.227355 
L 202.831664 181.031226 
L 202.921957 183.632516 
L 203.01216 217.44929 
L 203.102363 209.645419 
L 203.192566 233.057032 
L 203.373062 201.841548 
L 203.463265 253.867355 
L 203.643671 147.214452 
L 203.733874 199.240258 
L 203.824077 113.397677 
L 203.91428 131.60671 
L 204.004483 118.600258 
L 204.094686 134.208 
L 204.184889 102.992516 
L 204.275092 123.802839 
L 204.455588 92.587355 
L 204.726197 194.037677 
L 204.8164 178.429935 
L 205.177212 188.835097 
L 205.267415 212.24671 
L 205.357618 186.233806 
L 205.447821 225.253161 
L 205.538024 209.645419 
L 205.71843 225.253161 
L 205.808633 220.050581 
L 205.989039 238.259613 
L 206.079242 240.860903 
L 206.169445 227.854452 
L 206.259648 173.227355 
L 206.349851 181.031226 
L 206.440054 181.031226 
L 206.530257 144.613161 
L 206.62046 175.828645 
L 206.800866 152.417032 
L 206.891069 157.619613 
L 206.981272 131.60671 
L 207.071475 149.815742 
L 207.161678 147.214452 
L 207.251881 118.600258 
L 207.342084 136.80929 
L 207.432287 121.201548 
L 207.52249 136.80929 
L 207.612783 134.208 
L 207.703076 121.201548 
L 207.793369 144.613161 
L 207.973956 136.80929 
L 208.064249 139.410581 
L 208.244835 183.632516 
L 208.335038 149.815742 
L 208.425241 170.626065 
L 208.69594 134.208 
L 208.876437 222.651871 
L 208.96664 136.80929 
L 209.056933 170.626065 
L 209.147226 131.60671 
L 209.237519 175.828645 
L 209.327812 152.417032 
L 209.418106 160.220903 
L 209.508399 142.011871 
L 209.598692 181.031226 
L 209.688895 157.619613 
L 209.779098 199.240258 
L 209.959504 144.613161 
L 210.049707 157.619613 
L 210.13991 149.815742 
L 210.230113 113.397677 
L 210.410609 147.214452 
L 210.500812 149.815742 
L 210.591015 121.201548 
L 210.681218 136.80929 
L 210.771421 118.600258 
L 210.861624 129.005419 
L 210.951827 123.802839 
L 211.04203 136.80929 
L 211.132233 100.391226 
L 211.312639 123.802839 
L 211.402842 92.587355 
L 211.493045 149.815742 
L 211.583248 115.998968 
L 211.673451 147.214452 
L 211.763654 121.201548 
L 211.853857 186.233806 
L 211.94406 149.815742 
L 212.034263 178.429935 
L 212.124466 175.828645 
L 212.214669 178.429935 
L 212.395075 225.253161 
L 212.575481 194.037677 
L 212.665684 230.455742 
L 212.755887 209.645419 
L 212.84609 220.050581 
L 212.936293 204.442839 
L 213.026496 233.057032 
L 213.206902 209.645419 
L 213.297105 225.253161 
L 213.387308 186.233806 
L 213.477511 201.841548 
L 213.657917 155.018323 
L 213.74812 168.024774 
L 213.838323 149.815742 
L 214.018729 157.619613 
L 214.108932 121.201548 
L 214.199135 165.423484 
L 214.289338 139.410581 
L 214.379541 149.815742 
L 214.469744 134.208 
L 214.559947 157.619613 
L 214.830556 121.201548 
L 215.010962 147.214452 
L 215.101165 131.60671 
L 215.281571 149.815742 
L 215.371774 144.613161 
L 215.461977 113.397677 
L 215.642383 136.80929 
L 215.822879 110.796387 
L 215.913082 121.201548 
L 216.003285 115.998968 
L 216.183691 131.60671 
L 216.364097 123.802839 
L 216.4543 126.404129 
L 216.544503 134.208 
L 216.724909 118.600258 
L 216.905405 126.404129 
L 216.995608 108.195097 
L 217.085811 129.005419 
L 217.176014 100.391226 
L 217.446623 147.214452 
L 217.627029 97.789935 
L 217.717232 214.848 
L 217.807435 92.587355 
L 217.897638 238.259613 
L 217.987841 214.848 
L 218.168247 264.272516 
L 218.25845 186.233806 
L 218.348653 222.651871 
L 218.438856 168.024774 
L 218.619262 230.455742 
L 218.709465 134.208 
L 218.799668 196.638968 
L 218.889871 165.423484 
L 218.980074 207.044129 
L 219.16057 162.822194 
L 219.250863 191.436387 
L 219.341156 168.024774 
L 219.431449 251.266065 
L 219.521743 207.044129 
L 219.612036 225.253161 
L 219.702329 220.050581 
L 219.792622 201.841548 
L 219.973028 225.253161 
L 220.063231 222.651871 
L 220.153434 225.253161 
L 220.243637 240.860903 
L 220.514517 207.044129 
L 220.60472 220.050581 
L 220.695013 183.632516 
L 220.875419 214.848 
L 220.965622 201.841548 
L 221.236321 220.050581 
L 221.326524 212.24671 
L 221.416727 230.455742 
L 221.50702 227.854452 
L 221.687426 201.841548 
L 221.777629 207.044129 
L 221.867832 222.651871 
L 222.048238 214.848 
L 222.138441 235.658323 
L 222.228644 196.638968 
L 222.318847 261.671226 
L 222.589456 155.018323 
L 222.679659 199.240258 
L 222.769862 196.638968 
L 222.860065 162.822194 
L 222.950268 181.031226 
L 223.040471 160.220903 
L 223.220877 183.632516 
L 223.401283 144.613161 
L 223.491486 162.822194 
L 223.581689 126.404129 
L 223.762095 152.417032 
L 223.942501 110.796387 
L 224.122907 147.214452 
L 224.21311 129.005419 
L 224.303313 136.80929 
L 224.483719 121.201548 
L 224.664125 136.80929 
L 224.754328 102.992516 
L 224.844531 139.410581 
L 225.025027 113.397677 
L 225.11523 115.998968 
L 225.205433 126.404129 
L 225.295636 95.188645 
L 225.385839 139.410581 
L 225.476042 123.802839 
L 225.566245 170.626065 
L 225.656448 139.410581 
L 225.746651 209.645419 
L 225.836854 152.417032 
L 226.01726 186.233806 
L 226.197666 178.429935 
L 226.378072 207.044129 
L 226.468275 246.063484 
L 226.558478 170.626065 
L 226.738884 209.645419 
L 226.829087 217.44929 
L 227.009493 214.848 
L 227.189899 230.455742 
L 227.370395 212.24671 
L 227.460598 212.24671 
L 227.550801 214.848 
L 227.641004 209.645419 
L 227.82141 233.057032 
L 228.182222 204.442839 
L 228.272425 251.266065 
L 228.452831 220.050581 
L 228.543034 264.272516 
L 228.633237 173.227355 
L 228.72344 214.848 
L 228.813643 165.423484 
L 228.903846 238.259613 
L 228.994049 131.60671 
L 229.084252 207.044129 
L 229.264658 160.220903 
L 229.354861 168.024774 
L 229.62547 129.005419 
L 229.715673 155.018323 
L 229.805876 105.593806 
L 229.986282 170.626065 
L 230.166688 123.802839 
L 230.256891 129.005419 
L 230.5275 115.998968 
L 230.617703 115.998968 
L 230.707906 134.208 
L 230.888312 95.188645 
L 230.978515 115.998968 
L 231.068718 97.789935 
L 231.158921 134.208 
L 231.249124 121.201548 
L 231.339327 152.417032 
L 231.42953 142.011871 
L 231.609936 191.436387 
L 231.700139 149.815742 
L 231.790342 201.841548 
L 231.880545 181.031226 
L 231.970748 183.632516 
L 232.060951 238.259613 
L 232.151154 186.233806 
L 232.241357 194.037677 
L 232.33156 225.253161 
L 232.421763 209.645419 
L 232.511966 222.651871 
L 232.782575 207.044129 
L 232.872777 269.475097 
L 233.053183 188.835097 
L 233.143386 212.24671 
L 233.233589 142.011871 
L 233.323792 181.031226 
L 233.413995 165.423484 
L 233.504198 168.024774 
L 233.594401 160.220903 
L 233.684604 165.423484 
L 233.774807 118.600258 
L 233.955213 147.214452 
L 234.045416 102.992516 
L 234.135619 160.220903 
L 234.225822 147.214452 
L 234.406228 123.802839 
L 234.496431 129.005419 
L 234.76704 113.397677 
L 234.857243 131.60671 
L 234.947446 105.593806 
L 235.037649 108.195097 
L 235.127852 144.613161 
L 235.218055 87.384774 
L 235.308258 168.024774 
L 235.398461 118.600258 
L 235.578867 181.031226 
L 235.759273 142.011871 
L 235.939679 214.848 
L 236.029882 131.60671 
L 236.210288 188.835097 
L 236.390694 157.619613 
L 236.661303 212.24671 
L 236.751506 199.240258 
L 236.841709 246.063484 
L 236.931912 173.227355 
L 237.022115 194.037677 
L 237.112408 246.063484 
L 237.202611 155.018323 
L 237.383017 209.645419 
L 237.47322 217.44929 
L 237.563423 207.044129 
L 237.743829 220.050581 
L 237.834032 220.050581 
L 237.924235 214.848 
L 238.014438 240.860903 
L 238.104731 214.848 
L 238.194934 243.462194 
L 238.285137 209.645419 
L 238.37534 253.867355 
L 238.555746 160.220903 
L 238.645949 214.848 
L 238.736152 129.005419 
L 238.826355 199.240258 
L 239.006761 152.417032 
L 239.096964 168.024774 
L 239.187167 129.005419 
L 239.367573 178.429935 
L 239.547979 118.600258 
L 239.638182 134.208 
L 239.728385 118.600258 
L 239.818588 139.410581 
L 239.998994 105.593806 
L 240.089197 118.600258 
L 240.269603 217.44929 
L 240.359806 207.044129 
L 240.540212 168.024774 
L 240.630415 173.227355 
L 240.720618 214.848 
L 240.810821 209.645419 
L 240.901024 199.240258 
L 240.991227 235.658323 
L 241.08143 186.233806 
L 241.171633 194.037677 
L 241.352039 220.050581 
L 241.442242 209.645419 
L 241.712851 220.050581 
L 241.803054 222.651871 
L 241.893257 212.24671 
L 241.98346 246.063484 
L 242.073663 191.436387 
L 242.163866 269.475097 
L 242.254069 214.848 
L 242.344272 217.44929 
L 242.705084 157.619613 
L 242.795287 199.240258 
L 242.88549 196.638968 
L 242.975693 222.651871 
L 243.156099 144.613161 
L 243.246302 139.410581 
L 243.336505 207.044129 
L 243.426708 204.442839 
L 243.516911 220.050581 
L 243.607114 199.240258 
L 243.697317 113.397677 
L 243.78752 152.417032 
L 243.877723 144.613161 
L 244.058129 126.404129 
L 244.148332 129.005419 
L 244.238535 136.80929 
L 244.418941 113.397677 
L 244.599347 129.005419 
L 244.68955 108.195097 
L 244.779843 121.201548 
L 244.870136 118.600258 
L 244.960429 126.404129 
L 245.050723 113.397677 
L 245.141016 147.214452 
L 245.231309 92.587355 
L 245.411715 149.815742 
L 245.501918 108.195097 
L 245.592121 126.404129 
L 245.772527 118.600258 
L 245.86273 121.201548 
L 245.953113 139.410581 
L 246.043406 121.201548 
L 246.1337 144.613161 
L 246.223993 108.195097 
L 246.314286 160.220903 
L 246.404579 131.60671 
L 246.585075 144.613161 
L 246.675369 142.011871 
L 246.765572 155.018323 
L 247.036181 123.802839 
L 247.126384 134.208 
L 247.216587 123.802839 
L 247.306789 126.404129 
L 247.396992 121.201548 
L 247.667601 79.580903 
L 247.757804 97.789935 
L 248.028413 188.835097 
L 248.208819 115.998968 
L 248.389225 123.802839 
L 248.569631 220.050581 
L 248.659834 170.626065 
L 248.84024 235.658323 
L 248.930443 220.050581 
L 249.020646 186.233806 
L 249.110849 235.658323 
L 249.201052 214.848 
L 249.291255 222.651871 
L 249.381458 220.050581 
L 249.561864 227.854452 
L 249.652067 225.253161 
L 249.74227 227.854452 
L 249.832473 261.671226 
L 250.012969 209.645419 
L 250.193375 212.24671 
L 250.283578 230.455742 
L 250.373781 212.24671 
L 250.463984 214.848 
L 250.554187 152.417032 
L 250.64439 220.050581 
L 250.824796 157.619613 
L 251.005202 173.227355 
L 251.095405 144.613161 
L 251.185608 165.423484 
L 251.366014 89.986065 
L 251.456217 97.789935 
L 251.726826 142.011871 
L 251.817029 115.998968 
L 251.907232 126.404129 
L 252.087638 113.397677 
L 252.268044 139.410581 
L 252.358247 131.60671 
L 252.44845 97.789935 
L 252.628856 139.410581 
L 252.719059 92.587355 
L 252.899465 157.619613 
L 252.989668 102.992516 
L 253.260277 178.429935 
L 253.530886 121.201548 
L 253.711292 214.848 
L 253.801495 136.80929 
L 253.891698 139.410581 
L 254.072104 181.031226 
L 254.162307 152.417032 
L 254.25251 204.442839 
L 254.342713 194.037677 
L 254.432916 196.638968 
L 254.523119 209.645419 
L 254.613322 196.638968 
L 254.793728 235.658323 
L 254.974134 181.031226 
L 255.064337 186.233806 
L 255.15454 233.057032 
L 255.244743 201.841548 
L 255.425149 217.44929 
L 255.515352 220.050581 
L 255.695758 207.044129 
L 255.785961 212.24671 
L 255.876164 204.442839 
L 256.05657 217.44929 
L 256.146773 214.848 
L 256.327179 209.645419 
L 256.417382 217.44929 
L 256.507585 209.645419 
L 256.687991 225.253161 
L 256.868487 207.044129 
L 256.95869 199.240258 
L 257.139096 222.651871 
L 257.229299 196.638968 
L 257.319502 220.050581 
L 257.409705 194.037677 
L 257.499908 201.841548 
L 257.680314 191.436387 
L 257.770517 196.638968 
L 257.950923 188.835097 
L 258.041126 196.638968 
L 258.221532 188.835097 
L 258.311735 147.214452 
L 258.401938 168.024774 
L 258.582344 142.011871 
L 258.672547 155.018323 
L 258.76275 126.404129 
L 258.943156 152.417032 
L 259.033359 142.011871 
L 259.123562 92.587355 
L 259.303968 162.822194 
L 259.66478 121.201548 
L 259.754983 131.60671 
L 259.935389 129.005419 
L 260.115795 108.195097 
L 260.296201 134.208 
L 260.386404 134.208 
L 260.476607 131.60671 
L 260.657013 110.796387 
L 260.747216 147.214452 
L 260.837419 89.986065 
L 260.927622 92.587355 
L 261.017824 165.423484 
L 261.108027 121.201548 
L 261.468839 209.645419 
L 261.559042 121.201548 
L 261.649245 183.632516 
L 261.739448 178.429935 
L 261.829651 162.822194 
L 261.919854 204.442839 
L 262.010057 186.233806 
L 262.10026 199.240258 
L 262.190463 194.037677 
L 262.280666 201.841548 
L 262.370869 230.455742 
L 262.461072 188.835097 
L 262.731681 220.050581 
L 262.912087 214.848 
L 263.00229 217.44929 
L 263.092493 230.455742 
L 263.363102 207.044129 
L 263.453305 243.462194 
L 263.633711 191.436387 
L 263.723914 240.860903 
L 263.90432 175.828645 
L 263.994523 162.822194 
L 264.084726 207.044129 
L 264.174929 168.024774 
L 264.265132 214.848 
L 264.355335 136.80929 
L 264.445538 152.417032 
L 264.535741 209.645419 
L 264.80635 152.417032 
L 264.896553 188.835097 
L 264.986756 118.600258 
L 265.076959 157.619613 
L 265.167162 131.60671 
L 265.347568 170.626065 
L 265.437771 162.822194 
L 265.618177 134.208 
L 265.70838 136.80929 
L 265.798583 113.397677 
L 265.888786 139.410581 
L 265.978989 118.600258 
L 266.069192 129.005419 
L 266.159395 74.378323 
L 266.339801 149.815742 
L 266.430004 108.195097 
L 266.520207 214.848 
L 266.61041 144.613161 
L 266.700613 194.037677 
L 266.790816 165.423484 
L 266.971222 212.24671 
L 267.061425 188.835097 
L 267.151628 251.266065 
L 267.241831 165.423484 
L 267.51244 225.253161 
L 267.602643 220.050581 
L 267.692846 225.253161 
L 267.783049 204.442839 
L 267.873252 230.455742 
L 267.963455 178.429935 
L 268.053658 227.854452 
L 268.234064 168.024774 
L 268.324267 183.632516 
L 268.504673 144.613161 
L 268.594876 115.998968 
L 268.685079 160.220903 
L 268.865485 123.802839 
L 268.955688 129.005419 
L 269.045891 115.998968 
L 269.136094 123.802839 
L 269.226297 108.195097 
L 269.3165 142.011871 
L 269.496906 110.796387 
L 269.587109 165.423484 
L 269.767515 121.201548 
L 269.857718 183.632516 
L 269.947921 168.024774 
L 270.21853 259.069935 
L 270.308733 188.835097 
L 270.398936 194.037677 
L 270.489139 214.848 
L 270.579342 201.841548 
L 270.759748 222.651871 
L 270.84995 217.44929 
L 270.940153 225.253161 
L 271.030356 214.848 
L 271.210762 240.860903 
L 271.300965 199.240258 
L 271.391168 272.076387 
L 271.481371 188.835097 
L 271.571574 225.253161 
L 271.75198 152.417032 
L 271.842183 222.651871 
L 272.022589 118.600258 
L 272.112792 183.632516 
L 272.202995 181.031226 
L 272.293198 183.632516 
L 272.473604 102.992516 
L 272.563807 152.417032 
L 272.65401 126.404129 
L 272.744213 157.619613 
L 272.834416 129.005419 
L 272.924619 173.227355 
L 273.195228 115.998968 
L 273.285431 134.208 
L 273.375634 115.998968 
L 273.465837 126.404129 
L 273.646243 92.587355 
L 273.736446 139.410581 
L 273.826649 126.404129 
L 273.916852 84.783484 
L 274.007055 186.233806 
L 274.097258 113.397677 
L 274.277664 173.227355 
L 274.45807 113.397677 
L 274.548273 126.404129 
L 274.638476 220.050581 
L 274.728679 201.841548 
L 274.818882 118.600258 
L 274.999288 183.632516 
L 275.089491 162.822194 
L 275.179694 183.632516 
L 275.269897 147.214452 
L 275.3601 238.259613 
L 275.450303 230.455742 
L 275.630709 191.436387 
L 275.901318 274.677677 
L 275.991521 162.822194 
L 276.26213 235.658323 
L 276.352333 209.645419 
L 276.442536 212.24671 
L 276.532739 212.24671 
L 276.622942 233.057032 
L 276.713145 214.848 
L 276.803348 233.057032 
L 276.893551 209.645419 
L 276.983754 295.488 
L 277.073957 170.626065 
L 277.16416 222.651871 
L 277.254363 196.638968 
L 277.344566 214.848 
L 277.524972 97.789935 
L 277.615175 115.998968 
L 277.705378 76.979613 
L 277.795581 160.220903 
L 277.885784 144.613161 
L 278.156393 113.397677 
L 278.246596 115.998968 
L 278.336799 152.417032 
L 278.427002 97.789935 
L 278.607408 126.404129 
L 278.697611 227.854452 
L 278.787814 118.600258 
L 278.878017 168.024774 
L 279.058423 126.404129 
L 279.148626 196.638968 
L 279.238829 157.619613 
L 279.419235 201.841548 
L 279.599641 214.848 
L 279.689844 214.848 
L 279.87025 259.069935 
L 280.050656 170.626065 
L 280.231062 209.645419 
L 280.321265 144.613161 
L 280.411468 225.253161 
L 280.591874 139.410581 
L 280.682077 139.410581 
L 280.772279 74.378323 
L 280.862482 144.613161 
L 280.952685 136.80929 
L 281.223294 115.998968 
L 281.313497 139.410581 
L 281.4037 113.397677 
L 281.493903 53.568 
L 281.674309 186.233806 
L 281.764512 152.417032 
L 281.854715 168.024774 
L 281.944918 204.442839 
L 282.035121 188.835097 
L 282.125324 209.645419 
L 282.215527 181.031226 
L 282.30573 274.677677 
L 282.395933 207.044129 
L 282.486136 209.645419 
L 282.666542 225.253161 
L 282.756745 225.253161 
L 282.846948 217.44929 
L 283.027354 173.227355 
L 283.20776 220.050581 
L 283.388166 139.410581 
L 283.568572 225.253161 
L 283.658775 157.619613 
L 283.748978 209.645419 
L 283.839181 152.417032 
L 283.929384 181.031226 
L 284.019587 266.873806 
L 284.199993 220.050581 
L 284.290196 222.651871 
L 284.380399 235.658323 
L 284.651008 56.16929 
L 284.741211 142.011871 
L 284.831414 118.600258 
L 285.01182 214.848 
L 285.102023 108.195097 
L 285.192226 191.436387 
L 285.282429 126.404129 
L 285.372632 183.632516 
L 285.462835 165.423484 
L 285.553038 214.848 
L 285.733444 165.423484 
L 285.823647 209.645419 
L 285.91385 186.233806 
L 286.274662 230.455742 
L 286.364865 238.259613 
L 286.455068 209.645419 
L 286.545271 233.057032 
L 286.635474 201.841548 
L 286.725677 277.278968 
L 286.81588 170.626065 
L 286.906083 225.253161 
L 286.996286 155.018323 
L 287.086489 199.240258 
L 287.176692 191.436387 
L 287.266895 113.397677 
L 287.357098 178.429935 
L 287.537504 113.397677 
L 287.808113 157.619613 
L 287.898316 76.979613 
L 287.988519 149.815742 
L 288.078722 139.410581 
L 288.168925 147.214452 
L 288.259128 121.201548 
L 288.439534 136.80929 
L 288.529737 118.600258 
L 288.61994 168.024774 
L 288.710143 129.005419 
L 288.890549 227.854452 
L 288.980752 110.796387 
L 289.070955 207.044129 
L 289.161158 194.037677 
L 289.251361 196.638968 
L 289.431767 227.854452 
L 289.52197 214.848 
L 289.612173 220.050581 
L 289.702376 217.44929 
L 290.063188 282.481548 
L 290.153391 162.822194 
L 290.243594 207.044129 
L 290.333797 162.822194 
L 290.424 238.259613 
L 290.514203 113.397677 
L 290.604405 225.253161 
L 290.694608 139.410581 
L 290.784811 220.050581 
L 290.965217 129.005419 
L 291.235826 191.436387 
L 291.326029 126.404129 
L 291.416232 139.410581 
L 291.596638 113.397677 
L 291.686841 131.60671 
L 291.777044 113.397677 
L 291.95745 181.031226 
L 292.047653 113.397677 
L 292.137856 162.822194 
L 292.228059 147.214452 
L 292.318262 97.789935 
L 292.498668 220.050581 
L 292.588871 160.220903 
L 292.679074 227.854452 
L 292.769277 181.031226 
L 292.85948 230.455742 
L 292.949683 194.037677 
L 293.130089 225.253161 
L 293.220292 207.044129 
L 293.400698 225.253161 
L 293.581104 186.233806 
L 293.671307 279.880258 
L 293.941916 199.240258 
L 294.032119 230.455742 
L 294.122322 121.201548 
L 294.212525 214.848 
L 294.392931 144.613161 
L 294.483134 173.227355 
L 294.573337 113.397677 
L 294.66354 168.024774 
L 294.843946 147.214452 
L 294.934149 168.024774 
L 295.024352 123.802839 
L 295.114555 155.018323 
L 295.475367 129.005419 
L 295.56557 105.593806 
L 295.836179 131.60671 
L 295.926382 95.188645 
L 296.016585 113.397677 
L 296.196991 69.175742 
L 296.287194 131.60671 
L 296.377397 108.195097 
L 296.557803 160.220903 
L 296.738209 118.600258 
L 296.918615 204.442839 
L 297.008818 118.600258 
L 297.099021 123.802839 
L 297.189224 170.626065 
L 297.279427 144.613161 
L 297.459833 175.828645 
L 297.550036 157.619613 
L 297.640239 175.828645 
L 297.730442 123.802839 
L 297.820645 157.619613 
L 297.910848 136.80929 
L 298.001051 227.854452 
L 298.181457 118.600258 
L 298.27166 139.410581 
L 298.361863 134.208 
L 298.452066 139.410581 
L 298.542269 181.031226 
L 298.632472 129.005419 
L 298.722675 142.011871 
L 298.812878 108.195097 
L 298.903081 256.468645 
L 298.993284 235.658323 
L 299.083487 110.796387 
L 299.17369 113.397677 
L 299.263893 199.240258 
L 299.354096 181.031226 
L 299.444299 188.835097 
L 299.534502 123.802839 
L 299.624705 142.011871 
L 299.805111 233.057032 
L 299.985517 201.841548 
L 300.165923 181.031226 
L 300.256126 261.671226 
L 300.346329 222.651871 
L 300.436531 253.867355 
L 300.526734 207.044129 
L 300.616937 214.848 
L 300.887546 168.024774 
L 300.977749 196.638968 
L 301.067952 175.828645 
L 301.158155 181.031226 
L 301.248358 253.867355 
L 301.428764 204.442839 
L 301.518967 261.671226 
L 301.699373 178.429935 
L 301.879779 181.031226 
L 301.969982 188.835097 
L 302.060185 209.645419 
L 302.240591 152.417032 
L 302.330794 173.227355 
L 302.5112 162.822194 
L 302.601403 207.044129 
L 302.872012 168.024774 
L 302.962215 162.822194 
L 303.142621 170.626065 
L 303.232824 196.638968 
L 303.323027 194.037677 
L 303.41323 134.208 
L 303.503433 155.018323 
L 303.593636 136.80929 
L 303.683839 168.024774 
L 303.774042 162.822194 
L 304.044651 220.050581 
L 304.134854 238.259613 
L 304.225057 183.632516 
L 304.31526 204.442839 
L 304.405463 194.037677 
L 304.585869 214.848 
L 304.676072 209.645419 
L 304.766275 212.24671 
L 304.946681 225.253161 
L 305.127087 214.848 
L 305.21729 235.658323 
L 305.307493 194.037677 
L 305.397696 235.658323 
L 305.487899 194.037677 
L 305.578102 227.854452 
L 305.668305 220.050581 
L 305.758508 160.220903 
L 305.848711 240.860903 
L 306.029117 110.796387 
L 306.11932 217.44929 
L 306.299726 149.815742 
L 306.389929 152.417032 
L 306.480132 178.429935 
L 306.570335 155.018323 
L 306.660538 162.822194 
L 306.750741 113.397677 
L 306.840944 139.410581 
L 306.931147 126.404129 
L 307.02135 160.220903 
L 307.111553 149.815742 
L 307.201756 152.417032 
L 307.382162 121.201548 
L 307.472365 129.005419 
L 307.562568 123.802839 
L 307.652771 126.404129 
L 307.742974 105.593806 
L 307.833177 121.201548 
L 307.92338 115.998968 
L 308.013583 95.188645 
L 308.193989 108.195097 
L 308.284192 129.005419 
L 308.374395 126.404129 
L 308.554801 71.777032 
L 308.645004 168.024774 
L 308.735207 160.220903 
L 308.915613 110.796387 
L 309.005816 110.796387 
L 309.096019 129.005419 
L 309.186222 123.802839 
L 309.276425 139.410581 
L 309.366628 175.828645 
L 309.456831 131.60671 
L 309.547034 170.626065 
L 309.637237 162.822194 
L 309.72744 131.60671 
L 309.998049 220.050581 
L 310.088252 209.645419 
L 310.178455 147.214452 
L 310.539266 191.436387 
L 310.809875 139.410581 
L 310.990281 227.854452 
L 311.080484 222.651871 
L 311.26089 186.233806 
L 311.441296 199.240258 
L 311.531499 147.214452 
L 311.711905 217.44929 
L 311.802108 212.24671 
L 311.892311 191.436387 
L 311.982514 214.848 
L 312.072717 165.423484 
L 312.16292 181.031226 
L 312.253123 173.227355 
L 312.523732 220.050581 
L 312.613935 186.233806 
L 312.704138 194.037677 
L 312.794341 209.645419 
L 312.974747 136.80929 
L 313.335559 204.442839 
L 313.515965 220.050581 
L 313.606168 199.240258 
L 313.696371 121.201548 
L 313.876777 230.455742 
L 313.96698 173.227355 
L 314.057183 194.037677 
L 314.147386 191.436387 
L 314.237589 181.031226 
L 314.327792 220.050581 
L 314.508198 144.613161 
L 314.598401 181.031226 
L 314.778807 126.404129 
L 314.86901 102.992516 
L 314.959213 108.195097 
L 315.049416 92.587355 
L 315.139619 147.214452 
L 315.320025 115.998968 
L 315.410228 113.397677 
L 315.590634 123.802839 
L 315.680837 113.397677 
L 315.77104 118.600258 
L 315.861243 113.397677 
L 316.041649 123.802839 
L 316.131852 126.404129 
L 316.222055 134.208 
L 316.312258 129.005419 
L 316.582867 173.227355 
L 316.67307 82.182194 
L 316.763273 155.018323 
L 316.853476 131.60671 
L 317.033882 170.626065 
L 317.124085 155.018323 
L 317.214288 209.645419 
L 317.394694 126.404129 
L 317.665303 240.860903 
L 317.755506 196.638968 
L 317.935912 227.854452 
L 318.026115 207.044129 
L 318.206521 225.253161 
L 318.296724 181.031226 
L 318.47713 227.854452 
L 318.657536 165.423484 
L 318.747739 217.44929 
L 318.837942 214.848 
L 319.018348 92.587355 
L 319.108551 131.60671 
L 319.198754 129.005419 
L 319.288957 118.600258 
L 319.469363 155.018323 
L 319.559566 121.201548 
L 319.649769 126.404129 
L 319.739972 121.201548 
L 319.830175 199.240258 
L 319.920378 170.626065 
L 320.010581 204.442839 
L 320.100783 115.998968 
L 320.281189 214.848 
L 320.461595 105.593806 
L 320.551798 123.802839 
L 320.822407 144.613161 
L 320.91261 157.619613 
L 321.002813 87.384774 
L 321.183219 131.60671 
L 321.273422 142.011871 
L 321.363625 199.240258 
L 321.453828 165.423484 
L 321.634234 212.24671 
L 321.724437 201.841548 
L 322.085249 246.063484 
L 322.175452 240.860903 
L 322.355858 212.24671 
L 322.446061 220.050581 
L 322.626467 194.037677 
L 322.71667 243.462194 
L 322.806873 188.835097 
L 322.987279 217.44929 
L 323.167685 160.220903 
L 323.348091 204.442839 
L 323.6187 100.391226 
L 323.708903 147.214452 
L 323.799106 108.195097 
L 323.979512 126.404129 
L 324.250121 134.208 
L 324.340324 149.815742 
L 324.430527 144.613161 
L 324.52073 157.619613 
L 324.610933 131.60671 
L 324.701136 155.018323 
L 324.791339 118.600258 
L 324.881542 209.645419 
L 324.971745 147.214452 
L 325.061948 225.253161 
L 325.152151 183.632516 
L 325.242354 230.455742 
L 325.332557 183.632516 
L 325.512963 266.873806 
L 325.603166 196.638968 
L 325.693369 238.259613 
L 325.783572 201.841548 
L 325.963978 225.253161 
L 326.054181 214.848 
L 326.144384 220.050581 
L 326.234587 217.44929 
L 326.414993 196.638968 
L 326.505196 201.841548 
L 326.595399 248.664774 
L 326.685602 191.436387 
L 326.775805 204.442839 
L 326.866008 178.429935 
L 326.956211 207.044129 
L 327.136617 162.822194 
L 327.22682 212.24671 
L 327.317023 129.005419 
L 327.407226 170.626065 
L 327.587632 129.005419 
L 327.677835 142.011871 
L 327.768038 113.397677 
L 327.858241 115.998968 
L 327.948444 110.796387 
L 328.038647 131.60671 
L 328.219053 118.600258 
L 328.309256 108.195097 
L 328.399459 129.005419 
L 328.489662 123.802839 
L 328.579865 131.60671 
L 328.670068 123.802839 
L 328.760271 129.005419 
L 328.940677 123.802839 
L 329.121083 147.214452 
L 329.211286 162.822194 
L 329.301489 155.018323 
L 329.391692 115.998968 
L 329.481895 118.600258 
L 329.572098 142.011871 
L 329.662301 121.201548 
L 329.752504 155.018323 
L 329.842707 147.214452 
L 330.023112 144.613161 
L 330.113315 126.404129 
L 330.203518 142.011871 
L 330.293721 131.60671 
L 330.383924 136.80929 
L 330.56433 165.423484 
L 330.654533 162.822194 
L 330.744736 165.423484 
L 330.834939 173.227355 
L 330.925142 162.822194 
L 331.015345 108.195097 
L 331.285954 199.240258 
L 331.46636 134.208 
L 331.556563 191.436387 
L 331.646766 160.220903 
L 331.736969 162.822194 
L 331.827172 147.214452 
L 332.097781 207.044129 
L 332.187984 142.011871 
L 332.278187 168.024774 
L 332.36839 147.214452 
L 332.548796 220.050581 
L 332.638999 178.429935 
L 332.729202 217.44929 
L 332.819405 183.632516 
L 332.909608 240.860903 
L 332.999811 238.259613 
L 333.090014 248.664774 
L 333.27042 217.44929 
L 333.360623 227.854452 
L 333.450826 204.442839 
L 333.541029 214.848 
L 333.721435 181.031226 
L 333.901841 201.841548 
L 333.992044 196.638968 
L 334.082247 199.240258 
L 334.17245 196.638968 
L 334.262653 165.423484 
L 334.352856 191.436387 
L 334.533262 139.410581 
L 334.623465 165.423484 
L 334.713668 152.417032 
L 334.803871 209.645419 
L 334.984277 155.018323 
L 335.07448 165.423484 
L 335.254886 131.60671 
L 335.345089 144.613161 
L 335.435292 134.208 
L 335.525495 66.574452 
L 335.705901 110.796387 
L 335.796104 129.005419 
L 335.97651 102.992516 
L 336.066713 131.60671 
L 336.247119 113.397677 
L 336.337322 121.201548 
L 336.517728 149.815742 
L 336.607931 149.815742 
L 336.698134 170.626065 
L 336.788337 82.182194 
L 336.87854 87.384774 
L 337.058946 168.024774 
L 337.329555 126.404129 
L 337.419758 126.404129 
L 337.690367 181.031226 
L 337.78057 144.613161 
L 337.870773 147.214452 
L 337.960976 155.018323 
L 338.051179 178.429935 
L 338.141382 175.828645 
L 338.231585 181.031226 
L 338.321788 134.208 
L 338.411991 165.423484 
L 338.502194 144.613161 
L 338.6826 207.044129 
L 338.772803 194.037677 
L 338.863006 230.455742 
L 339.043412 178.429935 
L 339.133615 186.233806 
L 339.223818 233.057032 
L 339.404224 178.429935 
L 339.58463 220.050581 
L 339.674833 170.626065 
L 339.765035 181.031226 
L 339.945441 220.050581 
L 340.035644 191.436387 
L 340.125847 194.037677 
L 340.21605 204.442839 
L 340.396456 240.860903 
L 340.486659 248.664774 
L 340.667065 209.645419 
L 340.757268 207.044129 
L 340.847471 248.664774 
L 340.937674 235.658323 
L 341.027877 240.860903 
L 341.11808 222.651871 
L 341.208283 240.860903 
L 341.478892 207.044129 
L 341.659298 225.253161 
L 342.02011 157.619613 
L 342.110313 259.069935 
L 342.200516 253.867355 
L 342.380922 186.233806 
L 342.471125 186.233806 
L 342.561328 191.436387 
L 342.741734 209.645419 
L 343.012343 170.626065 
L 343.102546 240.860903 
L 343.282952 152.417032 
L 343.463358 183.632516 
L 343.553561 178.429935 
L 343.733967 139.410581 
L 343.914373 235.658323 
L 344.004576 227.854452 
L 344.184982 113.397677 
L 344.275185 131.60671 
L 344.365388 115.998968 
L 344.455591 188.835097 
L 344.545794 115.998968 
L 344.635997 170.626065 
L 344.7262 123.802839 
L 344.816403 162.822194 
L 344.906606 118.600258 
L 344.996809 212.24671 
L 345.087012 165.423484 
L 345.177215 214.848 
L 345.267418 105.593806 
L 345.357621 149.815742 
L 345.447824 121.201548 
L 345.62823 181.031226 
L 345.718433 181.031226 
L 345.808636 217.44929 
L 345.989042 188.835097 
L 346.079245 178.429935 
L 346.259651 217.44929 
L 346.349854 181.031226 
L 346.440057 240.860903 
L 346.53026 162.822194 
L 346.620463 191.436387 
L 346.710666 183.632516 
L 346.891072 227.854452 
L 347.071478 207.044129 
L 347.161681 209.645419 
L 347.251884 217.44929 
L 347.43238 188.835097 
L 347.612786 196.638968 
L 347.702989 196.638968 
L 347.793192 191.436387 
L 347.883395 204.442839 
L 348.063801 194.037677 
L 348.154004 220.050581 
L 348.244207 217.44929 
L 348.33441 217.44929 
L 348.424613 209.645419 
L 348.605019 225.253161 
L 348.785425 207.044129 
L 348.965831 217.44929 
L 349.056034 222.651871 
L 349.146237 220.050581 
L 349.23644 222.651871 
L 349.416846 196.638968 
L 349.507049 194.037677 
L 349.597252 170.626065 
L 349.687455 251.266065 
L 349.777658 194.037677 
L 349.867861 212.24671 
L 350.048267 183.632516 
L 350.13847 212.24671 
L 350.228673 183.632516 
L 350.318876 199.240258 
L 350.409079 123.802839 
L 350.499282 201.841548 
L 350.589485 147.214452 
L 350.679688 178.429935 
L 351.0405 82.182194 
L 351.311109 136.80929 
L 351.401312 121.201548 
L 351.491515 121.201548 
L 351.67192 129.005419 
L 351.762123 129.005419 
L 351.852326 157.619613 
L 351.942529 142.011871 
L 352.032732 178.429935 
L 352.122935 162.822194 
L 352.303341 168.024774 
L 352.393544 160.220903 
L 352.483747 126.404129 
L 352.664153 186.233806 
L 352.754356 84.783484 
L 352.844559 126.404129 
L 353.024965 89.986065 
L 353.115168 102.992516 
L 353.205371 97.789935 
L 353.295574 144.613161 
L 353.385777 102.992516 
L 353.47598 108.195097 
L 353.566183 121.201548 
L 353.656386 118.600258 
L 353.926995 136.80929 
L 354.017198 121.201548 
L 354.107401 123.802839 
L 354.197604 113.397677 
L 354.287807 129.005419 
L 354.468213 105.593806 
L 354.648619 129.005419 
L 354.919228 118.600258 
L 355.099634 142.011871 
L 355.189837 136.80929 
L 355.28004 139.410581 
L 355.370243 194.037677 
L 355.460446 95.188645 
L 355.640852 168.024774 
L 355.731055 136.80929 
L 355.911461 178.429935 
L 356.001664 105.593806 
L 356.091867 188.835097 
L 356.18207 155.018323 
L 356.272273 175.828645 
L 356.362476 139.410581 
L 356.452679 194.037677 
L 356.542882 188.835097 
L 356.633085 204.442839 
L 356.723288 186.233806 
L 356.813491 264.272516 
L 356.903694 207.044129 
L 356.993897 238.259613 
L 357.174303 209.645419 
L 357.264506 233.057032 
L 357.535115 209.645419 
L 357.625318 217.44929 
L 357.805724 196.638968 
L 357.895927 196.638968 
L 358.076333 160.220903 
L 358.437145 261.671226 
L 358.617551 183.632516 
L 358.797957 264.272516 
L 359.068566 160.220903 
L 359.248972 225.253161 
L 359.339175 220.050581 
L 359.429378 256.468645 
L 359.79019 147.214452 
L 359.970596 186.233806 
L 360.060799 178.429935 
L 360.151002 160.220903 
L 360.241205 194.037677 
L 360.331408 181.031226 
L 360.421611 183.632516 
L 360.511814 194.037677 
L 360.782423 173.227355 
L 360.872626 152.417032 
L 361.053032 259.069935 
L 361.143235 183.632516 
L 361.233438 225.253161 
L 361.323641 217.44929 
L 361.413843 175.828645 
L 361.504046 243.462194 
L 361.594249 136.80929 
L 361.684452 183.632516 
L 361.864858 121.201548 
L 362.045264 175.828645 
L 362.135467 131.60671 
L 362.22567 178.429935 
L 362.315873 76.979613 
L 362.496279 110.796387 
L 362.586482 131.60671 
L 362.766888 110.796387 
L 362.857091 131.60671 
L 362.947294 129.005419 
L 363.037497 129.005419 
L 363.1277 131.60671 
L 363.217903 123.802839 
L 363.308106 134.208 
L 363.398309 123.802839 
L 363.488512 152.417032 
L 363.578715 149.815742 
L 363.668918 144.613161 
L 363.849324 183.632516 
L 364.119933 82.182194 
L 364.210136 105.593806 
L 364.300339 79.580903 
L 364.390542 113.397677 
L 364.480745 84.783484 
L 364.661151 129.005419 
L 364.841557 82.182194 
L 364.93176 82.182194 
L 365.021963 147.214452 
L 365.112166 89.986065 
L 365.202369 95.188645 
L 365.292572 186.233806 
L 365.382775 173.227355 
L 365.563181 155.018323 
L 365.743587 139.410581 
L 365.923993 149.815742 
L 366.104399 121.201548 
L 366.194602 126.404129 
L 366.284805 123.802839 
L 366.375008 139.410581 
L 366.555414 123.802839 
L 366.645617 129.005419 
L 366.73582 121.201548 
L 366.826023 131.60671 
L 366.916226 123.802839 
L 367.096632 144.613161 
L 367.186835 139.410581 
L 367.277038 149.815742 
L 367.367241 144.613161 
L 367.547647 155.018323 
L 367.63785 181.031226 
L 367.728053 157.619613 
L 367.818256 82.182194 
L 367.908459 100.391226 
L 368.088865 63.973161 
L 368.179068 87.384774 
L 368.269271 76.979613 
L 368.449677 129.005419 
L 368.53988 152.417032 
L 368.630083 149.815742 
L 368.900692 76.979613 
L 368.990895 100.391226 
L 369.171301 181.031226 
L 369.261504 142.011871 
L 369.351707 144.613161 
L 369.532113 147.214452 
L 369.622316 129.005419 
L 369.712519 139.410581 
L 369.802722 123.802839 
L 369.983128 129.005419 
L 370.073331 131.60671 
L 370.34394 121.201548 
L 370.434143 108.195097 
L 370.614549 126.404129 
L 370.704752 126.404129 
L 370.794955 123.802839 
L 370.885158 126.404129 
L 370.975361 95.188645 
L 371.065564 105.593806 
L 371.155767 102.992516 
L 371.336172 134.208 
L 371.426375 129.005419 
L 371.606781 118.600258 
L 371.87739 136.80929 
L 371.967593 160.220903 
L 372.057796 69.175742 
L 372.147999 152.417032 
L 372.238202 144.613161 
L 372.418608 152.417032 
L 372.508811 194.037677 
L 372.599014 134.208 
L 372.689217 139.410581 
L 372.869623 222.651871 
L 373.140232 108.195097 
L 373.320638 129.005419 
L 373.410841 108.195097 
L 373.68145 220.050581 
L 373.771653 207.044129 
L 373.952059 235.658323 
L 374.042262 225.253161 
L 374.132465 191.436387 
L 374.222668 204.442839 
L 374.312871 188.835097 
L 374.403074 238.259613 
L 374.493277 233.057032 
L 374.58348 222.651871 
L 374.673683 238.259613 
L 374.944292 121.201548 
L 375.034495 123.802839 
L 375.124698 102.992516 
L 375.214901 144.613161 
L 375.305104 102.992516 
L 375.395307 105.593806 
L 375.48551 92.587355 
L 375.575713 95.188645 
L 375.846322 118.600258 
L 375.936525 201.841548 
L 376.116931 136.80929 
L 376.297337 217.44929 
L 376.38754 220.050581 
L 376.567946 269.475097 
L 376.658149 240.860903 
L 376.748352 274.677677 
L 376.838555 196.638968 
L 377.018961 225.253161 
L 377.109164 238.259613 
L 377.199367 212.24671 
L 377.28957 134.208 
L 377.379773 227.854452 
L 377.469976 173.227355 
L 377.560179 230.455742 
L 377.650382 173.227355 
L 377.920991 230.455742 
L 378.101397 220.050581 
L 378.1916 222.651871 
L 378.281803 108.195097 
L 378.372006 175.828645 
L 378.462209 105.593806 
L 378.552412 201.841548 
L 378.642615 152.417032 
L 378.732818 217.44929 
L 378.823021 194.037677 
L 379.003427 233.057032 
L 379.09363 188.835097 
L 379.183833 222.651871 
L 379.274036 155.018323 
L 379.364239 162.822194 
L 379.454442 233.057032 
L 379.544645 183.632516 
L 379.815254 227.854452 
L 380.085863 157.619613 
L 380.266269 199.240258 
L 380.356472 160.220903 
L 380.446675 165.423484 
L 380.536878 233.057032 
L 380.807487 160.220903 
L 380.89769 165.423484 
L 380.987893 181.031226 
L 381.078095 222.651871 
L 381.168298 162.822194 
L 381.258501 277.278968 
L 381.348704 162.822194 
L 381.52911 220.050581 
L 381.619313 209.645419 
L 381.889922 230.455742 
L 382.160531 246.063484 
L 382.250734 212.24671 
L 382.340937 290.285419 
L 382.611546 162.822194 
L 382.791952 225.253161 
L 382.882155 191.436387 
L 382.972358 264.272516 
L 383.152764 181.031226 
L 383.33317 121.201548 
L 383.423373 194.037677 
L 383.513576 139.410581 
L 383.603779 149.815742 
L 383.693982 118.600258 
L 383.874388 170.626065 
L 384.054794 113.397677 
L 384.2352 212.24671 
L 384.325403 207.044129 
L 384.505809 227.854452 
L 384.686215 209.645419 
L 384.776418 220.050581 
L 384.866621 243.462194 
L 384.956824 240.860903 
L 385.047027 230.455742 
L 385.227433 282.481548 
L 385.317636 168.024774 
L 385.407839 173.227355 
L 385.498042 181.031226 
L 385.588245 204.442839 
L 385.678448 118.600258 
L 385.768651 214.848 
L 385.949057 160.220903 
L 386.03926 165.423484 
L 386.309869 113.397677 
L 386.400072 188.835097 
L 386.580478 118.600258 
L 386.670681 129.005419 
L 386.760884 126.404129 
L 386.851087 110.796387 
L 386.94129 113.397677 
L 387.031493 121.201548 
L 387.121696 97.789935 
L 387.211899 157.619613 
L 387.302102 63.973161 
L 387.392305 194.037677 
L 387.572711 129.005419 
L 387.753117 188.835097 
L 387.933523 113.397677 
L 388.023726 121.201548 
L 388.204132 186.233806 
L 388.294335 144.613161 
L 388.384538 199.240258 
L 388.564944 115.998968 
L 388.655147 191.436387 
L 388.74535 188.835097 
L 388.835553 217.44929 
L 388.925756 175.828645 
L 389.106162 196.638968 
L 389.196365 181.031226 
L 389.376771 209.645419 
L 389.64738 217.44929 
L 389.737583 225.253161 
L 389.917989 217.44929 
L 390.008192 253.867355 
L 390.098395 186.233806 
L 390.188598 253.867355 
L 390.369004 157.619613 
L 390.459207 209.645419 
L 390.54941 108.195097 
L 390.639613 188.835097 
L 390.820019 136.80929 
L 390.910221 123.802839 
L 391.000424 129.005419 
L 391.090627 165.423484 
L 391.18083 155.018323 
L 391.271033 191.436387 
L 391.361236 139.410581 
L 391.451439 142.011871 
L 391.541642 123.802839 
L 391.631845 129.005419 
L 391.812251 121.201548 
L 391.992657 139.410581 
L 392.263266 105.593806 
L 392.443672 115.998968 
L 392.533875 108.195097 
L 392.624078 113.397677 
L 392.804484 134.208 
L 392.98489 108.195097 
L 393.075093 139.410581 
L 393.255499 79.580903 
L 393.345702 149.815742 
L 393.435905 139.410581 
L 393.526108 178.429935 
L 393.616311 142.011871 
L 393.706514 251.266065 
L 393.796717 92.587355 
L 393.88692 194.037677 
L 393.977123 165.423484 
L 394.067326 227.854452 
L 394.157529 175.828645 
L 394.247732 186.233806 
L 394.337935 157.619613 
L 394.428138 243.462194 
L 394.608544 173.227355 
L 394.879153 274.677677 
L 395.059559 152.417032 
L 395.149762 183.632516 
L 395.239965 157.619613 
L 395.420371 186.233806 
L 395.510574 175.828645 
L 395.69098 194.037677 
L 395.961589 162.822194 
L 396.141995 194.037677 
L 396.232198 168.024774 
L 396.502807 274.677677 
L 396.863619 173.227355 
L 396.953822 181.031226 
L 397.044025 259.069935 
L 397.134228 181.031226 
L 397.224431 186.233806 
L 397.314634 191.436387 
L 397.404837 277.278968 
L 397.585243 173.227355 
L 397.675446 178.429935 
L 397.946055 264.272516 
L 398.216664 183.632516 
L 398.306867 194.037677 
L 398.487273 204.442839 
L 398.487273 204.442839 
" style="fill:none;stroke:#1f77b4;stroke-linecap:square;stroke-width:1.5;"/>
   </g>
   <g id="patch_3">
    <path d="M 57.6 307.584 
L 57.6 41.472 
" style="fill:none;stroke:#000000;stroke-linecap:square;stroke-linejoin:miter;stroke-width:0.8;"/>
   </g>
   <g id="patch_4">
    <path d="M 414.72 307.584 
L 414.72 41.472 
" style="fill:none;stroke:#000000;stroke-linecap:square;stroke-linejoin:miter;stroke-width:0.8;"/>
   </g>
   <g id="patch_5">
    <path d="M 57.6 307.584 
L 414.72 307.584 
" style="fill:none;stroke:#000000;stroke-linecap:square;stroke-linejoin:miter;stroke-width:0.8;"/>
   </g>
   <g id="patch_6">
    <path d="M 57.6 41.472 
L 414.72 41.472 
" style="fill:none;stroke:#000000;stroke-linecap:square;stroke-linejoin:miter;stroke-width:0.8;"/>
   </g>
   <g id="text_17">
    <!-- Voltage measured with source voltage 1000.0 mV -->
    <defs>
     <path d="M 52 44.1875 
Q 55.375 50.25 60.0625 53.125 
Q 64.75 56 71.09375 56 
Q 79.640625 56 84.28125 50.015625 
Q 88.921875 44.046875 88.921875 33.015625 
L 88.921875 0 
L 79.890625 0 
L 79.890625 32.71875 
Q 79.890625 40.578125 77.09375 44.375 
Q 74.3125 48.1875 68.609375 48.1875 
Q 61.625 48.1875 57.5625 43.546875 
Q 53.515625 38.921875 53.515625 30.90625 
L 53.515625 0 
L 44.484375 0 
L 44.484375 32.71875 
Q 44.484375 40.625 41.703125 44.40625 
Q 38.921875 48.1875 33.109375 48.1875 
Q 26.21875 48.1875 22.15625 43.53125 
Q 18.109375 38.875 18.109375 30.90625 
L 18.109375 0 
L 9.078125 0 
L 9.078125 54.6875 
L 18.109375 54.6875 
L 18.109375 46.1875 
Q 21.1875 51.21875 25.484375 53.609375 
Q 29.78125 56 35.6875 56 
Q 41.65625 56 45.828125 52.96875 
Q 50 49.953125 52 44.1875 
z
" id="DejaVuSans-6d"/>
     <path d="M 8.5 21.578125 
L 8.5 54.6875 
L 17.484375 54.6875 
L 17.484375 21.921875 
Q 17.484375 14.15625 20.5 10.265625 
Q 23.53125 6.390625 29.59375 6.390625 
Q 36.859375 6.390625 41.078125 11.03125 
Q 45.3125 15.671875 45.3125 23.6875 
L 45.3125 54.6875 
L 54.296875 54.6875 
L 54.296875 0 
L 45.3125 0 
L 45.3125 8.40625 
Q 42.046875 3.421875 37.71875 1 
Q 33.40625 -1.421875 27.6875 -1.421875 
Q 18.265625 -1.421875 13.375 4.4375 
Q 8.5 10.296875 8.5 21.578125 
z
M 31.109375 56 
z
" id="DejaVuSans-75"/>
     <path d="M 41.109375 46.296875 
Q 39.59375 47.171875 37.8125 47.578125 
Q 36.03125 48 33.890625 48 
Q 26.265625 48 22.1875 43.046875 
Q 18.109375 38.09375 18.109375 28.8125 
L 18.109375 0 
L 9.078125 0 
L 9.078125 54.6875 
L 18.109375 54.6875 
L 18.109375 46.1875 
Q 20.953125 51.171875 25.484375 53.578125 
Q 30.03125 56 36.53125 56 
Q 37.453125 56 38.578125 55.875 
Q 39.703125 55.765625 41.0625 55.515625 
z
" id="DejaVuSans-72"/>
     <path d="M 45.40625 46.390625 
L 45.40625 75.984375 
L 54.390625 75.984375 
L 54.390625 0 
L 45.40625 0 
L 45.40625 8.203125 
Q 42.578125 3.328125 38.25 0.953125 
Q 33.9375 -1.421875 27.875 -1.421875 
Q 17.96875 -1.421875 11.734375 6.484375 
Q 5.515625 14.40625 5.515625 27.296875 
Q 5.515625 40.1875 11.734375 48.09375 
Q 17.96875 56 27.875 56 
Q 33.9375 56 38.25 53.625 
Q 42.578125 51.265625 45.40625 46.390625 
z
M 14.796875 27.296875 
Q 14.796875 17.390625 18.875 11.75 
Q 22.953125 6.109375 30.078125 6.109375 
Q 37.203125 6.109375 41.296875 11.75 
Q 45.40625 17.390625 45.40625 27.296875 
Q 45.40625 37.203125 41.296875 42.84375 
Q 37.203125 48.484375 30.078125 48.484375 
Q 22.953125 48.484375 18.875 42.84375 
Q 14.796875 37.203125 14.796875 27.296875 
z
" id="DejaVuSans-64"/>
     <path d="M 4.203125 54.6875 
L 13.1875 54.6875 
L 24.421875 12.015625 
L 35.59375 54.6875 
L 46.1875 54.6875 
L 57.421875 12.015625 
L 68.609375 54.6875 
L 77.59375 54.6875 
L 63.28125 0 
L 52.6875 0 
L 40.921875 44.828125 
L 29.109375 0 
L 18.5 0 
z
" id="DejaVuSans-77"/>
     <path d="M 9.421875 54.6875 
L 18.40625 54.6875 
L 18.40625 0 
L 9.421875 0 
z
M 9.421875 75.984375 
L 18.40625 75.984375 
L 18.40625 64.59375 
L 9.421875 64.59375 
z
" id="DejaVuSans-69"/>
     <path d="M 54.890625 33.015625 
L 54.890625 0 
L 45.90625 0 
L 45.90625 32.71875 
Q 45.90625 40.484375 42.875 44.328125 
Q 39.84375 48.1875 33.796875 48.1875 
Q 26.515625 48.1875 22.3125 43.546875 
Q 18.109375 38.921875 18.109375 30.90625 
L 18.109375 0 
L 9.078125 0 
L 9.078125 75.984375 
L 18.109375 75.984375 
L 18.109375 46.1875 
Q 21.34375 51.125 25.703125 53.5625 
Q 30.078125 56 35.796875 56 
Q 45.21875 56 50.046875 50.171875 
Q 54.890625 44.34375 54.890625 33.015625 
z
" id="DejaVuSans-68"/>
     <path d="M 48.78125 52.59375 
L 48.78125 44.1875 
Q 44.96875 46.296875 41.140625 47.34375 
Q 37.3125 48.390625 33.40625 48.390625 
Q 24.65625 48.390625 19.8125 42.84375 
Q 14.984375 37.3125 14.984375 27.296875 
Q 14.984375 17.28125 19.8125 11.734375 
Q 24.65625 6.203125 33.40625 6.203125 
Q 37.3125 6.203125 41.140625 7.25 
Q 44.96875 8.296875 48.78125 10.40625 
L 48.78125 2.09375 
Q 45.015625 0.34375 40.984375 -0.53125 
Q 36.96875 -1.421875 32.421875 -1.421875 
Q 20.0625 -1.421875 12.78125 6.34375 
Q 5.515625 14.109375 5.515625 27.296875 
Q 5.515625 40.671875 12.859375 48.328125 
Q 20.21875 56 33.015625 56 
Q 37.15625 56 41.109375 55.140625 
Q 45.0625 54.296875 48.78125 52.59375 
z
" id="DejaVuSans-63"/>
     <path d="M 2.984375 54.6875 
L 12.5 54.6875 
L 29.59375 8.796875 
L 46.6875 54.6875 
L 56.203125 54.6875 
L 35.6875 0 
L 23.484375 0 
z
" id="DejaVuSans-76"/>
    </defs>
    <g transform="translate(85.5 35.472)scale(0.12 -0.12)">
     <use xlink:href="#DejaVuSans-56"/>
     <use x="68.298828" xlink:href="#DejaVuSans-6f"/>
     <use x="129.480469" xlink:href="#DejaVuSans-6c"/>
     <use x="157.263672" xlink:href="#DejaVuSans-74"/>
     <use x="196.472656" xlink:href="#DejaVuSans-61"/>
     <use x="257.751953" xlink:href="#DejaVuSans-67"/>
     <use x="321.228516" xlink:href="#DejaVuSans-65"/>
     <use x="382.751953" xlink:href="#DejaVuSans-20"/>
     <use x="414.539062" xlink:href="#DejaVuSans-6d"/>
     <use x="511.951172" xlink:href="#DejaVuSans-65"/>
     <use x="573.474609" xlink:href="#DejaVuSans-61"/>
     <use x="634.753906" xlink:href="#DejaVuSans-73"/>
     <use x="686.853516" xlink:href="#DejaVuSans-75"/>
     <use x="750.232422" xlink:href="#DejaVuSans-72"/>
     <use x="791.314453" xlink:href="#DejaVuSans-65"/>
     <use x="852.837891" xlink:href="#DejaVuSans-64"/>
     <use x="916.314453" xlink:href="#DejaVuSans-20"/>
     <use x="948.101562" xlink:href="#DejaVuSans-77"/>
     <use x="1029.888672" xlink:href="#DejaVuSans-69"/>
     <use x="1057.671875" xlink:href="#DejaVuSans-74"/>
     <use x="1096.880859" xlink:href="#DejaVuSans-68"/>
     <use x="1160.259766" xlink:href="#DejaVuSans-20"/>
     <use x="1192.046875" xlink:href="#DejaVuSans-73"/>
     <use x="1244.146484" xlink:href="#DejaVuSans-6f"/>
     <use x="1305.328125" xlink:href="#DejaVuSans-75"/>
     <use x="1368.707031" xlink:href="#DejaVuSans-72"/>
     <use x="1409.789062" xlink:href="#DejaVuSans-63"/>
     <use x="1464.769531" xlink:href="#DejaVuSans-65"/>
     <use x="1526.292969" xlink:href="#DejaVuSans-20"/>
     <use x="1558.080078" xlink:href="#DejaVuSans-76"/>
     <use x="1617.259766" xlink:href="#DejaVuSans-6f"/>
     <use x="1678.441406" xlink:href="#DejaVuSans-6c"/>
     <use x="1706.224609" xlink:href="#DejaVuSans-74"/>
     <use x="1745.433594" xlink:href="#DejaVuSans-61"/>
     <use x="1806.712891" xlink:href="#DejaVuSans-67"/>
     <use x="1870.189453" xlink:href="#DejaVuSans-65"/>
     <use x="1931.712891" xlink:href="#DejaVuSans-20"/>
     <use x="1963.5" xlink:href="#DejaVuSans-31"/>
     <use x="2027.123047" xlink:href="#DejaVuSans-30"/>
     <use x="2090.746094" xlink:href="#DejaVuSans-30"/>
     <use x="2154.369141" xlink:href="#DejaVuSans-30"/>
     <use x="2217.992188" xlink:href="#DejaVuSans-2e"/>
     <use x="2249.779297" xlink:href="#DejaVuSans-30"/>
     <use x="2313.402344" xlink:href="#DejaVuSans-20"/>
     <use x="2345.189453" xlink:href="#DejaVuSans-6d"/>
     <use x="2442.601562" xlink:href="#DejaVuSans-56"/>
    </g>
   </g>
  </g>
 </g>
 <defs>
  <clipPath id="p7af7048952">
   <rect height="266.112" width="357.12" x="57.6" y="41.472"/>
  </clipPath>
 </defs>
</svg>
