<?xml version="1.0" encoding="utf-8" standalone="no"?>
<!DOCTYPE svg PUBLIC "-//W3C//DTD SVG 1.1//EN"
  "http://www.w3.org/Graphics/SVG/1.1/DTD/svg11.dtd">
<!-- Created with matplotlib (http://matplotlib.org/) -->
<svg height="345pt" version="1.1" viewBox="0 0 460 345" width="460pt" xmlns="http://www.w3.org/2000/svg" xmlns:xlink="http://www.w3.org/1999/xlink">
 <defs>
  <style type="text/css">
*{stroke-linecap:butt;stroke-linejoin:round;}
  </style>
 </defs>
 <g id="figure_1">
  <g id="patch_1">
   <path d="M 0 345.6 
L 460.8 345.6 
L 460.8 0 
L 0 0 
z
" style="fill:#ffffff;"/>
  </g>
  <g id="axes_1">
   <g id="patch_2">
    <path d="M 57.6 307.584 
L 414.72 307.584 
L 414.72 41.472 
L 57.6 41.472 
z
" style="fill:#ffffff;"/>
   </g>
   <g id="matplotlib.axis_1">
    <g id="xtick_1">
     <g id="line2d_1">
      <defs>
       <path d="M 0 0 
L 0 3.5 
" id="mce53086122" style="stroke:#000000;stroke-width:0.8;"/>
      </defs>
      <g>
       <use style="stroke:#000000;stroke-width:0.8;" x="73.832727" xlink:href="#mce53086122" y="307.584"/>
      </g>
     </g>
     <g id="text_1">
      <!-- 0 -->
      <defs>
       <path d="M 31.78125 66.40625 
Q 24.171875 66.40625 20.328125 58.90625 
Q 16.5 51.421875 16.5 36.375 
Q 16.5 21.390625 20.328125 13.890625 
Q 24.171875 6.390625 31.78125 6.390625 
Q 39.453125 6.390625 43.28125 13.890625 
Q 47.125 21.390625 47.125 36.375 
Q 47.125 51.421875 43.28125 58.90625 
Q 39.453125 66.40625 31.78125 66.40625 
z
M 31.78125 74.21875 
Q 44.046875 74.21875 50.515625 64.515625 
Q 56.984375 54.828125 56.984375 36.375 
Q 56.984375 17.96875 50.515625 8.265625 
Q 44.046875 -1.421875 31.78125 -1.421875 
Q 19.53125 -1.421875 13.0625 8.265625 
Q 6.59375 17.96875 6.59375 36.375 
Q 6.59375 54.828125 13.0625 64.515625 
Q 19.53125 74.21875 31.78125 74.21875 
z
" id="DejaVuSans-30"/>
      </defs>
      <g transform="translate(70.651477 322.182437)scale(0.1 -0.1)">
       <use xlink:href="#DejaVuSans-30"/>
      </g>
     </g>
    </g>
    <g id="xtick_2">
     <g id="line2d_2">
      <g>
       <use style="stroke:#000000;stroke-width:0.8;" x="127.858086" xlink:href="#mce53086122" y="307.584"/>
      </g>
     </g>
     <g id="text_2">
      <!-- 50 -->
      <defs>
       <path d="M 10.796875 72.90625 
L 49.515625 72.90625 
L 49.515625 64.59375 
L 19.828125 64.59375 
L 19.828125 46.734375 
Q 21.96875 47.46875 24.109375 47.828125 
Q 26.265625 48.1875 28.421875 48.1875 
Q 40.625 48.1875 47.75 41.5 
Q 54.890625 34.8125 54.890625 23.390625 
Q 54.890625 11.625 47.5625 5.09375 
Q 40.234375 -1.421875 26.90625 -1.421875 
Q 22.3125 -1.421875 17.546875 -0.640625 
Q 12.796875 0.140625 7.71875 1.703125 
L 7.71875 11.625 
Q 12.109375 9.234375 16.796875 8.0625 
Q 21.484375 6.890625 26.703125 6.890625 
Q 35.15625 6.890625 40.078125 11.328125 
Q 45.015625 15.765625 45.015625 23.390625 
Q 45.015625 31 40.078125 35.4375 
Q 35.15625 39.890625 26.703125 39.890625 
Q 22.75 39.890625 18.8125 39.015625 
Q 14.890625 38.140625 10.796875 36.28125 
z
" id="DejaVuSans-35"/>
      </defs>
      <g transform="translate(121.495586 322.182437)scale(0.1 -0.1)">
       <use xlink:href="#DejaVuSans-35"/>
       <use x="63.623047" xlink:href="#DejaVuSans-30"/>
      </g>
     </g>
    </g>
    <g id="xtick_3">
     <g id="line2d_3">
      <g>
       <use style="stroke:#000000;stroke-width:0.8;" x="181.883445" xlink:href="#mce53086122" y="307.584"/>
      </g>
     </g>
     <g id="text_3">
      <!-- 100 -->
      <defs>
       <path d="M 12.40625 8.296875 
L 28.515625 8.296875 
L 28.515625 63.921875 
L 10.984375 60.40625 
L 10.984375 69.390625 
L 28.421875 72.90625 
L 38.28125 72.90625 
L 38.28125 8.296875 
L 54.390625 8.296875 
L 54.390625 0 
L 12.40625 0 
z
" id="DejaVuSans-31"/>
      </defs>
      <g transform="translate(172.339695 322.182437)scale(0.1 -0.1)">
       <use xlink:href="#DejaVuSans-31"/>
       <use x="63.623047" xlink:href="#DejaVuSans-30"/>
       <use x="127.246094" xlink:href="#DejaVuSans-30"/>
      </g>
     </g>
    </g>
    <g id="xtick_4">
     <g id="line2d_4">
      <g>
       <use style="stroke:#000000;stroke-width:0.8;" x="235.908804" xlink:href="#mce53086122" y="307.584"/>
      </g>
     </g>
     <g id="text_4">
      <!-- 150 -->
      <g transform="translate(226.365054 322.182437)scale(0.1 -0.1)">
       <use xlink:href="#DejaVuSans-31"/>
       <use x="63.623047" xlink:href="#DejaVuSans-35"/>
       <use x="127.246094" xlink:href="#DejaVuSans-30"/>
      </g>
     </g>
    </g>
    <g id="xtick_5">
     <g id="line2d_5">
      <g>
       <use style="stroke:#000000;stroke-width:0.8;" x="289.934162" xlink:href="#mce53086122" y="307.584"/>
      </g>
     </g>
     <g id="text_5">
      <!-- 200 -->
      <defs>
       <path d="M 19.1875 8.296875 
L 53.609375 8.296875 
L 53.609375 0 
L 7.328125 0 
L 7.328125 8.296875 
Q 12.9375 14.109375 22.625 23.890625 
Q 32.328125 33.6875 34.8125 36.53125 
Q 39.546875 41.84375 41.421875 45.53125 
Q 43.3125 49.21875 43.3125 52.78125 
Q 43.3125 58.59375 39.234375 62.25 
Q 35.15625 65.921875 28.609375 65.921875 
Q 23.96875 65.921875 18.8125 64.3125 
Q 13.671875 62.703125 7.8125 59.421875 
L 7.8125 69.390625 
Q 13.765625 71.78125 18.9375 73 
Q 24.125 74.21875 28.421875 74.21875 
Q 39.75 74.21875 46.484375 68.546875 
Q 53.21875 62.890625 53.21875 53.421875 
Q 53.21875 48.921875 51.53125 44.890625 
Q 49.859375 40.875 45.40625 35.40625 
Q 44.1875 33.984375 37.640625 27.21875 
Q 31.109375 20.453125 19.1875 8.296875 
z
" id="DejaVuSans-32"/>
      </defs>
      <g transform="translate(280.390412 322.182437)scale(0.1 -0.1)">
       <use xlink:href="#DejaVuSans-32"/>
       <use x="63.623047" xlink:href="#DejaVuSans-30"/>
       <use x="127.246094" xlink:href="#DejaVuSans-30"/>
      </g>
     </g>
    </g>
    <g id="xtick_6">
     <g id="line2d_6">
      <g>
       <use style="stroke:#000000;stroke-width:0.8;" x="343.959521" xlink:href="#mce53086122" y="307.584"/>
      </g>
     </g>
     <g id="text_6">
      <!-- 250 -->
      <g transform="translate(334.415771 322.182437)scale(0.1 -0.1)">
       <use xlink:href="#DejaVuSans-32"/>
       <use x="63.623047" xlink:href="#DejaVuSans-35"/>
       <use x="127.246094" xlink:href="#DejaVuSans-30"/>
      </g>
     </g>
    </g>
    <g id="xtick_7">
     <g id="line2d_7">
      <g>
       <use style="stroke:#000000;stroke-width:0.8;" x="397.98488" xlink:href="#mce53086122" y="307.584"/>
      </g>
     </g>
     <g id="text_7">
      <!-- 300 -->
      <defs>
       <path d="M 40.578125 39.3125 
Q 47.65625 37.796875 51.625 33 
Q 55.609375 28.21875 55.609375 21.1875 
Q 55.609375 10.40625 48.1875 4.484375 
Q 40.765625 -1.421875 27.09375 -1.421875 
Q 22.515625 -1.421875 17.65625 -0.515625 
Q 12.796875 0.390625 7.625 2.203125 
L 7.625 11.71875 
Q 11.71875 9.328125 16.59375 8.109375 
Q 21.484375 6.890625 26.8125 6.890625 
Q 36.078125 6.890625 40.9375 10.546875 
Q 45.796875 14.203125 45.796875 21.1875 
Q 45.796875 27.640625 41.28125 31.265625 
Q 36.765625 34.90625 28.71875 34.90625 
L 20.21875 34.90625 
L 20.21875 43.015625 
L 29.109375 43.015625 
Q 36.375 43.015625 40.234375 45.921875 
Q 44.09375 48.828125 44.09375 54.296875 
Q 44.09375 59.90625 40.109375 62.90625 
Q 36.140625 65.921875 28.71875 65.921875 
Q 24.65625 65.921875 20.015625 65.03125 
Q 15.375 64.15625 9.8125 62.3125 
L 9.8125 71.09375 
Q 15.4375 72.65625 20.34375 73.4375 
Q 25.25 74.21875 29.59375 74.21875 
Q 40.828125 74.21875 47.359375 69.109375 
Q 53.90625 64.015625 53.90625 55.328125 
Q 53.90625 49.265625 50.4375 45.09375 
Q 46.96875 40.921875 40.578125 39.3125 
z
" id="DejaVuSans-33"/>
      </defs>
      <g transform="translate(388.44113 322.182437)scale(0.1 -0.1)">
       <use xlink:href="#DejaVuSans-33"/>
       <use x="63.623047" xlink:href="#DejaVuSans-30"/>
       <use x="127.246094" xlink:href="#DejaVuSans-30"/>
      </g>
     </g>
    </g>
    <g id="text_8">
     <!-- t(s) -->
     <defs>
      <path d="M 18.3125 70.21875 
L 18.3125 54.6875 
L 36.8125 54.6875 
L 36.8125 47.703125 
L 18.3125 47.703125 
L 18.3125 18.015625 
Q 18.3125 11.328125 20.140625 9.421875 
Q 21.96875 7.515625 27.59375 7.515625 
L 36.8125 7.515625 
L 36.8125 0 
L 27.59375 0 
Q 17.1875 0 13.234375 3.875 
Q 9.28125 7.765625 9.28125 18.015625 
L 9.28125 47.703125 
L 2.6875 47.703125 
L 2.6875 54.6875 
L 9.28125 54.6875 
L 9.28125 70.21875 
z
" id="DejaVuSans-74"/>
      <path d="M 31 75.875 
Q 24.46875 64.65625 21.28125 53.65625 
Q 18.109375 42.671875 18.109375 31.390625 
Q 18.109375 20.125 21.3125 9.0625 
Q 24.515625 -2 31 -13.1875 
L 23.1875 -13.1875 
Q 15.875 -1.703125 12.234375 9.375 
Q 8.59375 20.453125 8.59375 31.390625 
Q 8.59375 42.28125 12.203125 53.3125 
Q 15.828125 64.359375 23.1875 75.875 
z
" id="DejaVuSans-28"/>
      <path d="M 44.28125 53.078125 
L 44.28125 44.578125 
Q 40.484375 46.53125 36.375 47.5 
Q 32.28125 48.484375 27.875 48.484375 
Q 21.1875 48.484375 17.84375 46.4375 
Q 14.5 44.390625 14.5 40.28125 
Q 14.5 37.15625 16.890625 35.375 
Q 19.28125 33.59375 26.515625 31.984375 
L 29.59375 31.296875 
Q 39.15625 29.25 43.1875 25.515625 
Q 47.21875 21.78125 47.21875 15.09375 
Q 47.21875 7.46875 41.1875 3.015625 
Q 35.15625 -1.421875 24.609375 -1.421875 
Q 20.21875 -1.421875 15.453125 -0.5625 
Q 10.6875 0.296875 5.421875 2 
L 5.421875 11.28125 
Q 10.40625 8.6875 15.234375 7.390625 
Q 20.0625 6.109375 24.8125 6.109375 
Q 31.15625 6.109375 34.5625 8.28125 
Q 37.984375 10.453125 37.984375 14.40625 
Q 37.984375 18.0625 35.515625 20.015625 
Q 33.0625 21.96875 24.703125 23.78125 
L 21.578125 24.515625 
Q 13.234375 26.265625 9.515625 29.90625 
Q 5.8125 33.546875 5.8125 39.890625 
Q 5.8125 47.609375 11.28125 51.796875 
Q 16.75 56 26.8125 56 
Q 31.78125 56 36.171875 55.265625 
Q 40.578125 54.546875 44.28125 53.078125 
z
" id="DejaVuSans-73"/>
      <path d="M 8.015625 75.875 
L 15.828125 75.875 
Q 23.140625 64.359375 26.78125 53.3125 
Q 30.421875 42.28125 30.421875 31.390625 
Q 30.421875 20.453125 26.78125 9.375 
Q 23.140625 -1.703125 15.828125 -13.1875 
L 8.015625 -13.1875 
Q 14.5 -2 17.703125 9.0625 
Q 20.90625 20.125 20.90625 31.390625 
Q 20.90625 42.671875 17.703125 53.65625 
Q 14.5 64.65625 8.015625 75.875 
z
" id="DejaVuSans-29"/>
     </defs>
     <g transform="translate(227.693594 335.860562)scale(0.1 -0.1)">
      <use xlink:href="#DejaVuSans-74"/>
      <use x="39.208984" xlink:href="#DejaVuSans-28"/>
      <use x="78.222656" xlink:href="#DejaVuSans-73"/>
      <use x="130.322266" xlink:href="#DejaVuSans-29"/>
     </g>
    </g>
   </g>
   <g id="matplotlib.axis_2">
    <g id="ytick_1">
     <g id="line2d_8">
      <defs>
       <path d="M 0 0 
L -3.5 0 
" id="m8454d911b1" style="stroke:#000000;stroke-width:0.8;"/>
      </defs>
      <g>
       <use style="stroke:#000000;stroke-width:0.8;" x="57.6" xlink:href="#m8454d911b1" y="295.488"/>
      </g>
     </g>
     <g id="text_9">
      <!-- 0.000 -->
      <defs>
       <path d="M 10.6875 12.40625 
L 21 12.40625 
L 21 0 
L 10.6875 0 
z
" id="DejaVuSans-2e"/>
      </defs>
      <g transform="translate(21.971875 299.287219)scale(0.1 -0.1)">
       <use xlink:href="#DejaVuSans-30"/>
       <use x="63.623047" xlink:href="#DejaVuSans-2e"/>
       <use x="95.410156" xlink:href="#DejaVuSans-30"/>
       <use x="159.033203" xlink:href="#DejaVuSans-30"/>
       <use x="222.65625" xlink:href="#DejaVuSans-30"/>
      </g>
     </g>
    </g>
    <g id="ytick_2">
     <g id="line2d_9">
      <g>
       <use style="stroke:#000000;stroke-width:0.8;" x="57.6" xlink:href="#m8454d911b1" y="260.928"/>
      </g>
     </g>
     <g id="text_10">
      <!-- 0.001 -->
      <g transform="translate(21.971875 264.727219)scale(0.1 -0.1)">
       <use xlink:href="#DejaVuSans-30"/>
       <use x="63.623047" xlink:href="#DejaVuSans-2e"/>
       <use x="95.410156" xlink:href="#DejaVuSans-30"/>
       <use x="159.033203" xlink:href="#DejaVuSans-30"/>
       <use x="222.65625" xlink:href="#DejaVuSans-31"/>
      </g>
     </g>
    </g>
    <g id="ytick_3">
     <g id="line2d_10">
      <g>
       <use style="stroke:#000000;stroke-width:0.8;" x="57.6" xlink:href="#m8454d911b1" y="226.368"/>
      </g>
     </g>
     <g id="text_11">
      <!-- 0.002 -->
      <g transform="translate(21.971875 230.167219)scale(0.1 -0.1)">
       <use xlink:href="#DejaVuSans-30"/>
       <use x="63.623047" xlink:href="#DejaVuSans-2e"/>
       <use x="95.410156" xlink:href="#DejaVuSans-30"/>
       <use x="159.033203" xlink:href="#DejaVuSans-30"/>
       <use x="222.65625" xlink:href="#DejaVuSans-32"/>
      </g>
     </g>
    </g>
    <g id="ytick_4">
     <g id="line2d_11">
      <g>
       <use style="stroke:#000000;stroke-width:0.8;" x="57.6" xlink:href="#m8454d911b1" y="191.808"/>
      </g>
     </g>
     <g id="text_12">
      <!-- 0.003 -->
      <g transform="translate(21.971875 195.607219)scale(0.1 -0.1)">
       <use xlink:href="#DejaVuSans-30"/>
       <use x="63.623047" xlink:href="#DejaVuSans-2e"/>
       <use x="95.410156" xlink:href="#DejaVuSans-30"/>
       <use x="159.033203" xlink:href="#DejaVuSans-30"/>
       <use x="222.65625" xlink:href="#DejaVuSans-33"/>
      </g>
     </g>
    </g>
    <g id="ytick_5">
     <g id="line2d_12">
      <g>
       <use style="stroke:#000000;stroke-width:0.8;" x="57.6" xlink:href="#m8454d911b1" y="157.248"/>
      </g>
     </g>
     <g id="text_13">
      <!-- 0.004 -->
      <defs>
       <path d="M 37.796875 64.3125 
L 12.890625 25.390625 
L 37.796875 25.390625 
z
M 35.203125 72.90625 
L 47.609375 72.90625 
L 47.609375 25.390625 
L 58.015625 25.390625 
L 58.015625 17.1875 
L 47.609375 17.1875 
L 47.609375 0 
L 37.796875 0 
L 37.796875 17.1875 
L 4.890625 17.1875 
L 4.890625 26.703125 
z
" id="DejaVuSans-34"/>
      </defs>
      <g transform="translate(21.971875 161.047219)scale(0.1 -0.1)">
       <use xlink:href="#DejaVuSans-30"/>
       <use x="63.623047" xlink:href="#DejaVuSans-2e"/>
       <use x="95.410156" xlink:href="#DejaVuSans-30"/>
       <use x="159.033203" xlink:href="#DejaVuSans-30"/>
       <use x="222.65625" xlink:href="#DejaVuSans-34"/>
      </g>
     </g>
    </g>
    <g id="ytick_6">
     <g id="line2d_13">
      <g>
       <use style="stroke:#000000;stroke-width:0.8;" x="57.6" xlink:href="#m8454d911b1" y="122.688"/>
      </g>
     </g>
     <g id="text_14">
      <!-- 0.005 -->
      <g transform="translate(21.971875 126.487219)scale(0.1 -0.1)">
       <use xlink:href="#DejaVuSans-30"/>
       <use x="63.623047" xlink:href="#DejaVuSans-2e"/>
       <use x="95.410156" xlink:href="#DejaVuSans-30"/>
       <use x="159.033203" xlink:href="#DejaVuSans-30"/>
       <use x="222.65625" xlink:href="#DejaVuSans-35"/>
      </g>
     </g>
    </g>
    <g id="ytick_7">
     <g id="line2d_14">
      <g>
       <use style="stroke:#000000;stroke-width:0.8;" x="57.6" xlink:href="#m8454d911b1" y="88.128"/>
      </g>
     </g>
     <g id="text_15">
      <!-- 0.006 -->
      <defs>
       <path d="M 33.015625 40.375 
Q 26.375 40.375 22.484375 35.828125 
Q 18.609375 31.296875 18.609375 23.390625 
Q 18.609375 15.53125 22.484375 10.953125 
Q 26.375 6.390625 33.015625 6.390625 
Q 39.65625 6.390625 43.53125 10.953125 
Q 47.40625 15.53125 47.40625 23.390625 
Q 47.40625 31.296875 43.53125 35.828125 
Q 39.65625 40.375 33.015625 40.375 
z
M 52.59375 71.296875 
L 52.59375 62.3125 
Q 48.875 64.0625 45.09375 64.984375 
Q 41.3125 65.921875 37.59375 65.921875 
Q 27.828125 65.921875 22.671875 59.328125 
Q 17.53125 52.734375 16.796875 39.40625 
Q 19.671875 43.65625 24.015625 45.921875 
Q 28.375 48.1875 33.59375 48.1875 
Q 44.578125 48.1875 50.953125 41.515625 
Q 57.328125 34.859375 57.328125 23.390625 
Q 57.328125 12.15625 50.6875 5.359375 
Q 44.046875 -1.421875 33.015625 -1.421875 
Q 20.359375 -1.421875 13.671875 8.265625 
Q 6.984375 17.96875 6.984375 36.375 
Q 6.984375 53.65625 15.1875 63.9375 
Q 23.390625 74.21875 37.203125 74.21875 
Q 40.921875 74.21875 44.703125 73.484375 
Q 48.484375 72.75 52.59375 71.296875 
z
" id="DejaVuSans-36"/>
      </defs>
      <g transform="translate(21.971875 91.927219)scale(0.1 -0.1)">
       <use xlink:href="#DejaVuSans-30"/>
       <use x="63.623047" xlink:href="#DejaVuSans-2e"/>
       <use x="95.410156" xlink:href="#DejaVuSans-30"/>
       <use x="159.033203" xlink:href="#DejaVuSans-30"/>
       <use x="222.65625" xlink:href="#DejaVuSans-36"/>
      </g>
     </g>
    </g>
    <g id="ytick_8">
     <g id="line2d_15">
      <g>
       <use style="stroke:#000000;stroke-width:0.8;" x="57.6" xlink:href="#m8454d911b1" y="53.568"/>
      </g>
     </g>
     <g id="text_16">
      <!-- 0.007 -->
      <defs>
       <path d="M 8.203125 72.90625 
L 55.078125 72.90625 
L 55.078125 68.703125 
L 28.609375 0 
L 18.3125 0 
L 43.21875 64.59375 
L 8.203125 64.59375 
z
" id="DejaVuSans-37"/>
      </defs>
      <g transform="translate(21.971875 57.367219)scale(0.1 -0.1)">
       <use xlink:href="#DejaVuSans-30"/>
       <use x="63.623047" xlink:href="#DejaVuSans-2e"/>
       <use x="95.410156" xlink:href="#DejaVuSans-30"/>
       <use x="159.033203" xlink:href="#DejaVuSans-30"/>
       <use x="222.65625" xlink:href="#DejaVuSans-37"/>
      </g>
     </g>
    </g>
    <g id="text_17">
     <!-- Temperature (*C) -->
     <defs>
      <path d="M -0.296875 72.90625 
L 61.375 72.90625 
L 61.375 64.59375 
L 35.5 64.59375 
L 35.5 0 
L 25.59375 0 
L 25.59375 64.59375 
L -0.296875 64.59375 
z
" id="DejaVuSans-54"/>
      <path d="M 56.203125 29.59375 
L 56.203125 25.203125 
L 14.890625 25.203125 
Q 15.484375 15.921875 20.484375 11.0625 
Q 25.484375 6.203125 34.421875 6.203125 
Q 39.59375 6.203125 44.453125 7.46875 
Q 49.3125 8.734375 54.109375 11.28125 
L 54.109375 2.78125 
Q 49.265625 0.734375 44.1875 -0.34375 
Q 39.109375 -1.421875 33.890625 -1.421875 
Q 20.796875 -1.421875 13.15625 6.1875 
Q 5.515625 13.8125 5.515625 26.8125 
Q 5.515625 40.234375 12.765625 48.109375 
Q 20.015625 56 32.328125 56 
Q 43.359375 56 49.78125 48.890625 
Q 56.203125 41.796875 56.203125 29.59375 
z
M 47.21875 32.234375 
Q 47.125 39.59375 43.09375 43.984375 
Q 39.0625 48.390625 32.421875 48.390625 
Q 24.90625 48.390625 20.390625 44.140625 
Q 15.875 39.890625 15.1875 32.171875 
z
" id="DejaVuSans-65"/>
      <path d="M 52 44.1875 
Q 55.375 50.25 60.0625 53.125 
Q 64.75 56 71.09375 56 
Q 79.640625 56 84.28125 50.015625 
Q 88.921875 44.046875 88.921875 33.015625 
L 88.921875 0 
L 79.890625 0 
L 79.890625 32.71875 
Q 79.890625 40.578125 77.09375 44.375 
Q 74.3125 48.1875 68.609375 48.1875 
Q 61.625 48.1875 57.5625 43.546875 
Q 53.515625 38.921875 53.515625 30.90625 
L 53.515625 0 
L 44.484375 0 
L 44.484375 32.71875 
Q 44.484375 40.625 41.703125 44.40625 
Q 38.921875 48.1875 33.109375 48.1875 
Q 26.21875 48.1875 22.15625 43.53125 
Q 18.109375 38.875 18.109375 30.90625 
L 18.109375 0 
L 9.078125 0 
L 9.078125 54.6875 
L 18.109375 54.6875 
L 18.109375 46.1875 
Q 21.1875 51.21875 25.484375 53.609375 
Q 29.78125 56 35.6875 56 
Q 41.65625 56 45.828125 52.96875 
Q 50 49.953125 52 44.1875 
z
" id="DejaVuSans-6d"/>
      <path d="M 18.109375 8.203125 
L 18.109375 -20.796875 
L 9.078125 -20.796875 
L 9.078125 54.6875 
L 18.109375 54.6875 
L 18.109375 46.390625 
Q 20.953125 51.265625 25.265625 53.625 
Q 29.59375 56 35.59375 56 
Q 45.5625 56 51.78125 48.09375 
Q 58.015625 40.1875 58.015625 27.296875 
Q 58.015625 14.40625 51.78125 6.484375 
Q 45.5625 -1.421875 35.59375 -1.421875 
Q 29.59375 -1.421875 25.265625 0.953125 
Q 20.953125 3.328125 18.109375 8.203125 
z
M 48.6875 27.296875 
Q 48.6875 37.203125 44.609375 42.84375 
Q 40.53125 48.484375 33.40625 48.484375 
Q 26.265625 48.484375 22.1875 42.84375 
Q 18.109375 37.203125 18.109375 27.296875 
Q 18.109375 17.390625 22.1875 11.75 
Q 26.265625 6.109375 33.40625 6.109375 
Q 40.53125 6.109375 44.609375 11.75 
Q 48.6875 17.390625 48.6875 27.296875 
z
" id="DejaVuSans-70"/>
      <path d="M 41.109375 46.296875 
Q 39.59375 47.171875 37.8125 47.578125 
Q 36.03125 48 33.890625 48 
Q 26.265625 48 22.1875 43.046875 
Q 18.109375 38.09375 18.109375 28.8125 
L 18.109375 0 
L 9.078125 0 
L 9.078125 54.6875 
L 18.109375 54.6875 
L 18.109375 46.1875 
Q 20.953125 51.171875 25.484375 53.578125 
Q 30.03125 56 36.53125 56 
Q 37.453125 56 38.578125 55.875 
Q 39.703125 55.765625 41.0625 55.515625 
z
" id="DejaVuSans-72"/>
      <path d="M 34.28125 27.484375 
Q 23.390625 27.484375 19.1875 25 
Q 14.984375 22.515625 14.984375 16.5 
Q 14.984375 11.71875 18.140625 8.90625 
Q 21.296875 6.109375 26.703125 6.109375 
Q 34.1875 6.109375 38.703125 11.40625 
Q 43.21875 16.703125 43.21875 25.484375 
L 43.21875 27.484375 
z
M 52.203125 31.203125 
L 52.203125 0 
L 43.21875 0 
L 43.21875 8.296875 
Q 40.140625 3.328125 35.546875 0.953125 
Q 30.953125 -1.421875 24.3125 -1.421875 
Q 15.921875 -1.421875 10.953125 3.296875 
Q 6 8.015625 6 15.921875 
Q 6 25.140625 12.171875 29.828125 
Q 18.359375 34.515625 30.609375 34.515625 
L 43.21875 34.515625 
L 43.21875 35.40625 
Q 43.21875 41.609375 39.140625 45 
Q 35.0625 48.390625 27.6875 48.390625 
Q 23 48.390625 18.546875 47.265625 
Q 14.109375 46.140625 10.015625 43.890625 
L 10.015625 52.203125 
Q 14.9375 54.109375 19.578125 55.046875 
Q 24.21875 56 28.609375 56 
Q 40.484375 56 46.34375 49.84375 
Q 52.203125 43.703125 52.203125 31.203125 
z
" id="DejaVuSans-61"/>
      <path d="M 8.5 21.578125 
L 8.5 54.6875 
L 17.484375 54.6875 
L 17.484375 21.921875 
Q 17.484375 14.15625 20.5 10.265625 
Q 23.53125 6.390625 29.59375 6.390625 
Q 36.859375 6.390625 41.078125 11.03125 
Q 45.3125 15.671875 45.3125 23.6875 
L 45.3125 54.6875 
L 54.296875 54.6875 
L 54.296875 0 
L 45.3125 0 
L 45.3125 8.40625 
Q 42.046875 3.421875 37.71875 1 
Q 33.40625 -1.421875 27.6875 -1.421875 
Q 18.265625 -1.421875 13.375 4.4375 
Q 8.5 10.296875 8.5 21.578125 
z
M 31.109375 56 
z
" id="DejaVuSans-75"/>
      <path id="DejaVuSans-20"/>
      <path d="M 47.015625 60.890625 
L 29.5 51.421875 
L 47.015625 41.890625 
L 44.1875 37.109375 
L 27.78125 47.015625 
L 27.78125 28.609375 
L 22.21875 28.609375 
L 22.21875 47.015625 
L 5.8125 37.109375 
L 2.984375 41.890625 
L 20.515625 51.421875 
L 2.984375 60.890625 
L 5.8125 65.71875 
L 22.21875 55.8125 
L 22.21875 74.21875 
L 27.78125 74.21875 
L 27.78125 55.8125 
L 44.1875 65.71875 
z
" id="DejaVuSans-2a"/>
      <path d="M 64.40625 67.28125 
L 64.40625 56.890625 
Q 59.421875 61.53125 53.78125 63.8125 
Q 48.140625 66.109375 41.796875 66.109375 
Q 29.296875 66.109375 22.65625 58.46875 
Q 16.015625 50.828125 16.015625 36.375 
Q 16.015625 21.96875 22.65625 14.328125 
Q 29.296875 6.6875 41.796875 6.6875 
Q 48.140625 6.6875 53.78125 8.984375 
Q 59.421875 11.28125 64.40625 15.921875 
L 64.40625 5.609375 
Q 59.234375 2.09375 53.4375 0.328125 
Q 47.65625 -1.421875 41.21875 -1.421875 
Q 24.65625 -1.421875 15.125 8.703125 
Q 5.609375 18.84375 5.609375 36.375 
Q 5.609375 53.953125 15.125 64.078125 
Q 24.65625 74.21875 41.21875 74.21875 
Q 47.75 74.21875 53.53125 72.484375 
Q 59.328125 70.75 64.40625 67.28125 
z
" id="DejaVuSans-43"/>
     </defs>
     <g transform="translate(15.892187 218.627219)rotate(-90)scale(0.1 -0.1)">
      <use xlink:href="#DejaVuSans-54"/>
      <use x="60.818359" xlink:href="#DejaVuSans-65"/>
      <use x="122.341797" xlink:href="#DejaVuSans-6d"/>
      <use x="219.753906" xlink:href="#DejaVuSans-70"/>
      <use x="283.230469" xlink:href="#DejaVuSans-65"/>
      <use x="344.753906" xlink:href="#DejaVuSans-72"/>
      <use x="385.867188" xlink:href="#DejaVuSans-61"/>
      <use x="447.146484" xlink:href="#DejaVuSans-74"/>
      <use x="486.355469" xlink:href="#DejaVuSans-75"/>
      <use x="549.734375" xlink:href="#DejaVuSans-72"/>
      <use x="590.816406" xlink:href="#DejaVuSans-65"/>
      <use x="652.339844" xlink:href="#DejaVuSans-20"/>
      <use x="684.126953" xlink:href="#DejaVuSans-28"/>
      <use x="723.140625" xlink:href="#DejaVuSans-2a"/>
      <use x="773.140625" xlink:href="#DejaVuSans-43"/>
      <use x="842.964844" xlink:href="#DejaVuSans-29"/>
     </g>
    </g>
    <g id="text_18">
     <!-- +2.5e1 -->
     <defs>
      <path d="M 46 62.703125 
L 46 35.5 
L 73.1875 35.5 
L 73.1875 27.203125 
L 46 27.203125 
L 46 0 
L 37.796875 0 
L 37.796875 27.203125 
L 10.59375 27.203125 
L 10.59375 35.5 
L 37.796875 35.5 
L 37.796875 62.703125 
z
" id="DejaVuSans-2b"/>
     </defs>
     <g transform="translate(57.6 38.472)scale(0.1 -0.1)">
      <use xlink:href="#DejaVuSans-2b"/>
      <use x="83.789062" xlink:href="#DejaVuSans-32"/>
      <use x="147.412109" xlink:href="#DejaVuSans-2e"/>
      <use x="179.199219" xlink:href="#DejaVuSans-35"/>
      <use x="242.822266" xlink:href="#DejaVuSans-65"/>
      <use x="304.345703" xlink:href="#DejaVuSans-31"/>
     </g>
    </g>
   </g>
   <g id="line2d_16">
    <path clip-path="url(#p8558213260)" d="M 73.832727 295.488 
L 398.487273 295.488 
L 398.487273 295.488 
" style="fill:none;stroke:#1f77b4;stroke-linecap:square;stroke-width:1.5;"/>
   </g>
   <g id="line2d_17">
    <path clip-path="url(#p8558213260)" d="M 73.832727 122.688 
L 74.525401 191.808 
L 75.90967 122.688 
L 76.602344 191.808 
L 77.300421 122.688 
L 77.992015 226.368 
L 78.68469 122.688 
L 79.376283 88.128 
L 80.067877 122.688 
L 80.761632 122.688 
L 81.453226 88.128 
L 82.144819 191.808 
L 82.836413 122.688 
L 83.528007 157.248 
L 84.220681 157.248 
L 85.60495 88.128 
L 86.297624 157.248 
L 86.989217 122.688 
L 89.065079 122.688 
L 89.756673 157.248 
L 90.448267 157.248 
L 91.140941 122.688 
L 91.832535 122.688 
L 92.525209 191.808 
L 93.216803 191.808 
L 93.908397 226.368 
L 94.602152 122.688 
L 95.293745 122.688 
L 95.985339 88.128 
L 96.678014 157.248 
L 97.369607 157.248 
L 98.061201 191.808 
L 99.445469 53.568 
L 100.138144 53.568 
L 100.829737 191.808 
L 101.522412 191.808 
L 102.214006 122.688 
L 102.90668 157.248 
L 103.598274 88.128 
L 104.290948 122.688 
L 104.983622 191.808 
L 105.675216 122.688 
L 106.36789 122.688 
L 107.059484 88.128 
L 107.751078 88.128 
L 108.445913 191.808 
L 109.137507 122.688 
L 110.520694 122.688 
L 111.212288 157.248 
L 112.597637 88.128 
L 113.289231 157.248 
L 113.981905 53.568 
L 114.67458 191.808 
L 115.366173 191.808 
L 116.058848 122.688 
L 116.750442 88.128 
L 117.442035 122.688 
L 118.13471 88.128 
L 118.826303 191.808 
L 119.517897 88.128 
L 120.210571 157.248 
L 120.902165 88.128 
L 121.593759 88.128 
L 122.286433 122.688 
L 122.978027 191.808 
L 123.669621 88.128 
L 124.362295 157.248 
L 125.053889 122.688 
L 125.745483 191.808 
L 126.438157 122.688 
L 127.129751 122.688 
L 127.822425 157.248 
L 128.512938 122.688 
L 129.204532 122.688 
L 129.897206 157.248 
L 130.5888 122.688 
L 131.281474 122.688 
L 131.973068 88.128 
L 132.665743 122.688 
L 133.357336 88.128 
L 134.740524 157.248 
L 135.432117 122.688 
L 136.126953 122.688 
L 136.818547 88.128 
L 138.202815 157.248 
L 138.894409 122.688 
L 139.587083 157.248 
L 140.279758 157.248 
L 141.664025 88.128 
L 142.355619 191.808 
L 143.048294 191.808 
L 143.740968 157.248 
L 144.432562 88.128 
L 145.124155 88.128 
L 145.81683 122.688 
L 146.508424 260.928 
L 147.200017 122.688 
L 147.892692 157.248 
L 149.275879 157.248 
L 149.969634 88.128 
L 150.661228 88.128 
L 151.353902 122.688 
L 152.73709 53.568 
L 153.430845 88.128 
L 154.815113 88.128 
L 155.507787 157.248 
L 156.199381 53.568 
L 156.890975 122.688 
L 157.583649 157.248 
L 158.275243 122.688 
L 158.966837 122.688 
L 159.659511 88.128 
L 161.043779 226.368 
L 161.735373 122.688 
L 162.426966 157.248 
L 163.119641 157.248 
L 163.811235 122.688 
L 164.502828 157.248 
L 165.195503 88.128 
L 165.886016 53.568 
L 166.576529 191.808 
L 167.268123 53.568 
L 167.960797 157.248 
L 168.652391 122.688 
L 169.345065 122.688 
L 170.036659 88.128 
L 170.729333 122.688 
L 171.420927 191.808 
L 172.805195 122.688 
L 173.496789 191.808 
L 174.882137 53.568 
L 175.573731 122.688 
L 176.265325 88.128 
L 177.649593 157.248 
L 178.341187 157.248 
L 179.033861 122.688 
L 179.725455 157.248 
L 180.417049 157.248 
L 181.111884 122.688 
L 181.803478 157.248 
L 182.496153 88.128 
L 183.87934 157.248 
L 184.572014 53.568 
L 185.956282 191.808 
L 186.646795 191.808 
L 187.33947 122.688 
L 188.032144 122.688 
L 188.724818 157.248 
L 189.416412 88.128 
L 190.108006 122.688 
L 190.80068 88.128 
L 191.493355 157.248 
L 192.184949 122.688 
L 192.877623 157.248 
L 194.954565 157.248 
L 195.646159 88.128 
L 197.030427 226.368 
L 197.722021 122.688 
L 198.413615 191.808 
L 199.106289 88.128 
L 199.819495 157.248 
L 200.512169 122.688 
L 201.203763 191.808 
L 201.895357 157.248 
L 202.588031 260.928 
L 203.279625 122.688 
L 203.971219 157.248 
L 204.663893 122.688 
L 205.355487 53.568 
L 206.047081 122.688 
L 206.740835 88.128 
L 207.432429 157.248 
L 208.151039 122.688 
L 208.853438 122.688 
L 209.553677 157.248 
L 210.245271 88.128 
L 210.937945 53.568 
L 211.629539 157.248 
L 212.321133 88.128 
L 213.014887 191.808 
L 213.706481 122.688 
L 214.398075 122.688 
L 215.09183 88.128 
L 216.475018 88.128 
L 217.859285 157.248 
L 218.550879 122.688 
L 219.243554 226.368 
L 219.935148 122.688 
L 220.626741 191.808 
L 221.319416 122.688 
L 222.01101 157.248 
L 222.703684 122.688 
L 223.395277 157.248 
L 224.086871 53.568 
L 224.779546 157.248 
L 225.471139 157.248 
L 226.162733 88.128 
L 227.548082 226.368 
L 228.239675 88.128 
L 228.93235 122.688 
L 229.623944 88.128 
L 230.315537 122.688 
L 231.699805 53.568 
L 232.390319 122.688 
L 233.082993 122.688 
L 233.774587 191.808 
L 235.850449 88.128 
L 236.543123 122.688 
L 237.928472 122.688 
L 238.621146 88.128 
L 239.31274 122.688 
L 240.004333 122.688 
L 240.697008 191.808 
L 241.388601 191.808 
L 242.080195 122.688 
L 242.77287 191.808 
L 243.464464 191.808 
L 244.156057 122.688 
L 244.848732 88.128 
L 245.540325 122.688 
L 246.233 191.808 
L 246.924593 191.808 
L 248.309942 122.688 
L 249.002616 191.808 
L 249.69421 191.808 
L 251.770072 88.128 
L 253.15434 157.248 
L 253.845934 122.688 
L 255.230202 191.808 
L 255.922876 122.688 
L 256.61447 122.688 
L 257.306064 191.808 
L 257.997658 122.688 
L 258.690332 122.688 
L 259.381926 157.248 
L 260.0746 157.248 
L 260.766194 122.688 
L 261.457787 191.808 
L 262.150462 122.688 
L 262.842056 157.248 
L 263.533649 157.248 
L 264.225243 191.808 
L 264.917917 88.128 
L 265.609511 122.688 
L 266.993779 122.688 
L 267.685373 157.248 
L 268.378048 88.128 
L 269.069641 122.688 
L 269.762316 122.688 
L 270.453909 191.808 
L 271.145503 122.688 
L 271.837097 157.248 
L 272.529771 122.688 
L 273.914039 191.808 
L 274.605633 122.688 
L 275.297227 157.248 
L 276.682576 88.128 
L 277.374169 122.688 
L 278.758437 122.688 
L 279.450031 88.128 
L 280.834299 157.248 
L 281.525893 122.688 
L 282.910161 122.688 
L 283.602835 191.808 
L 284.29551 191.808 
L 286.371372 88.128 
L 287.062965 157.248 
L 287.755639 157.248 
L 288.447233 53.568 
L 289.138827 122.688 
L 289.831502 157.248 
L 290.523095 122.688 
L 291.214689 157.248 
L 291.907363 157.248 
L 292.598957 88.128 
L 293.290551 122.688 
L 294.674819 122.688 
L 295.366413 157.248 
L 296.059087 88.128 
L 296.750681 157.248 
L 297.443355 122.688 
L 298.134949 226.368 
L 298.826543 122.688 
L 301.595079 122.688 
L 302.978266 191.808 
L 303.670941 88.128 
L 304.362534 122.688 
L 305.054128 53.568 
L 305.746803 122.688 
L 306.438396 157.248 
L 307.12999 88.128 
L 307.822664 122.688 
L 308.514258 122.688 
L 309.206932 88.128 
L 309.897446 122.688 
L 311.282794 53.568 
L 311.974388 191.808 
L 312.665982 88.128 
L 313.358656 191.808 
L 314.05133 191.808 
L 314.742924 122.688 
L 315.435599 122.688 
L 316.127193 88.128 
L 316.818786 191.808 
L 317.511461 53.568 
L 318.203054 157.248 
L 318.895729 157.248 
L 319.587322 122.688 
L 320.278916 157.248 
L 320.971591 157.248 
L 321.664265 122.688 
L 322.355859 122.688 
L 323.048533 157.248 
L 323.740127 88.128 
L 324.43172 191.808 
L 325.124395 157.248 
L 325.815989 88.128 
L 326.507582 191.808 
L 327.89185 191.808 
L 328.583444 122.688 
L 329.275038 157.248 
L 329.966632 88.128 
L 330.658225 88.128 
L 331.3509 122.688 
L 332.042493 191.808 
L 332.734087 53.568 
L 334.119436 122.688 
L 334.81103 88.128 
L 335.503704 191.808 
L 336.196378 157.248 
L 336.889053 88.128 
L 337.580646 191.808 
L 338.27224 122.688 
L 338.964915 122.688 
L 339.656509 191.808 
L 340.348102 122.688 
L 341.041857 88.128 
L 341.733451 122.688 
L 342.425045 226.368 
L 343.117719 191.808 
L 343.809313 122.688 
L 344.500907 157.248 
L 345.885174 157.248 
L 346.577849 122.688 
L 347.962117 122.688 
L 348.653711 88.128 
L 350.037979 157.248 
L 350.730653 122.688 
L 351.422247 191.808 
L 352.806515 122.688 
L 353.498109 157.248 
L 354.189703 88.128 
L 354.882377 88.128 
L 355.575051 191.808 
L 357.650913 191.808 
L 358.343588 122.688 
L 359.036262 191.808 
L 359.727856 157.248 
L 360.42053 157.248 
L 361.112124 122.688 
L 361.803717 191.808 
L 362.496392 122.688 
L 363.187986 157.248 
L 363.879579 88.128 
L 364.572254 122.688 
L 365.264928 122.688 
L 365.956522 53.568 
L 366.649196 191.808 
L 368.032384 122.688 
L 368.725058 157.248 
L 369.416652 157.248 
L 370.80092 88.128 
L 371.492513 122.688 
L 372.185188 122.688 
L 372.877862 88.128 
L 373.569456 157.248 
L 374.26213 53.568 
L 374.953724 157.248 
L 375.645318 191.808 
L 377.029586 191.808 
L 377.72118 88.128 
L 378.413854 88.128 
L 379.106528 157.248 
L 379.798122 53.568 
L 381.18239 122.688 
L 381.873984 122.688 
L 382.567739 191.808 
L 383.259333 191.808 
L 383.952007 88.128 
L 384.644681 53.568 
L 386.03003 191.808 
L 386.721624 122.688 
L 388.797486 122.688 
L 389.49016 157.248 
L 390.182835 88.128 
L 391.566022 157.248 
L 392.258696 53.568 
L 392.951371 157.248 
L 393.644045 122.688 
L 394.335639 191.808 
L 395.027232 157.248 
L 397.103094 157.248 
L 397.795748 191.808 
L 398.487273 122.688 
L 398.487273 122.688 
" style="fill:none;stroke:#ff7f0e;stroke-linecap:square;stroke-width:1.5;"/>
   </g>
   <g id="patch_3">
    <path d="M 57.6 307.584 
L 57.6 41.472 
" style="fill:none;stroke:#000000;stroke-linecap:square;stroke-linejoin:miter;stroke-width:0.8;"/>
   </g>
   <g id="patch_4">
    <path d="M 414.72 307.584 
L 414.72 41.472 
" style="fill:none;stroke:#000000;stroke-linecap:square;stroke-linejoin:miter;stroke-width:0.8;"/>
   </g>
   <g id="patch_5">
    <path d="M 57.6 307.584 
L 414.72 307.584 
" style="fill:none;stroke:#000000;stroke-linecap:square;stroke-linejoin:miter;stroke-width:0.8;"/>
   </g>
   <g id="patch_6">
    <path d="M 57.6 41.472 
L 414.72 41.472 
" style="fill:none;stroke:#000000;stroke-linecap:square;stroke-linejoin:miter;stroke-width:0.8;"/>
   </g>
   <g id="text_19">
    <!-- Temperatures of heater -->
    <defs>
     <path d="M 30.609375 48.390625 
Q 23.390625 48.390625 19.1875 42.75 
Q 14.984375 37.109375 14.984375 27.296875 
Q 14.984375 17.484375 19.15625 11.84375 
Q 23.34375 6.203125 30.609375 6.203125 
Q 37.796875 6.203125 41.984375 11.859375 
Q 46.1875 17.53125 46.1875 27.296875 
Q 46.1875 37.015625 41.984375 42.703125 
Q 37.796875 48.390625 30.609375 48.390625 
z
M 30.609375 56 
Q 42.328125 56 49.015625 48.375 
Q 55.71875 40.765625 55.71875 27.296875 
Q 55.71875 13.875 49.015625 6.21875 
Q 42.328125 -1.421875 30.609375 -1.421875 
Q 18.84375 -1.421875 12.171875 6.21875 
Q 5.515625 13.875 5.515625 27.296875 
Q 5.515625 40.765625 12.171875 48.375 
Q 18.84375 56 30.609375 56 
z
" id="DejaVuSans-6f"/>
     <path d="M 37.109375 75.984375 
L 37.109375 68.5 
L 28.515625 68.5 
Q 23.6875 68.5 21.796875 66.546875 
Q 19.921875 64.59375 19.921875 59.515625 
L 19.921875 54.6875 
L 34.71875 54.6875 
L 34.71875 47.703125 
L 19.921875 47.703125 
L 19.921875 0 
L 10.890625 0 
L 10.890625 47.703125 
L 2.296875 47.703125 
L 2.296875 54.6875 
L 10.890625 54.6875 
L 10.890625 58.5 
Q 10.890625 67.625 15.140625 71.796875 
Q 19.390625 75.984375 28.609375 75.984375 
z
" id="DejaVuSans-66"/>
     <path d="M 54.890625 33.015625 
L 54.890625 0 
L 45.90625 0 
L 45.90625 32.71875 
Q 45.90625 40.484375 42.875 44.328125 
Q 39.84375 48.1875 33.796875 48.1875 
Q 26.515625 48.1875 22.3125 43.546875 
Q 18.109375 38.921875 18.109375 30.90625 
L 18.109375 0 
L 9.078125 0 
L 9.078125 75.984375 
L 18.109375 75.984375 
L 18.109375 46.1875 
Q 21.34375 51.125 25.703125 53.5625 
Q 30.078125 56 35.796875 56 
Q 45.21875 56 50.046875 50.171875 
Q 54.890625 44.34375 54.890625 33.015625 
z
" id="DejaVuSans-68"/>
    </defs>
    <g transform="translate(164.614688 35.472)scale(0.12 -0.12)">
     <use xlink:href="#DejaVuSans-54"/>
     <use x="60.818359" xlink:href="#DejaVuSans-65"/>
     <use x="122.341797" xlink:href="#DejaVuSans-6d"/>
     <use x="219.753906" xlink:href="#DejaVuSans-70"/>
     <use x="283.230469" xlink:href="#DejaVuSans-65"/>
     <use x="344.753906" xlink:href="#DejaVuSans-72"/>
     <use x="385.867188" xlink:href="#DejaVuSans-61"/>
     <use x="447.146484" xlink:href="#DejaVuSans-74"/>
     <use x="486.355469" xlink:href="#DejaVuSans-75"/>
     <use x="549.734375" xlink:href="#DejaVuSans-72"/>
     <use x="590.816406" xlink:href="#DejaVuSans-65"/>
     <use x="652.339844" xlink:href="#DejaVuSans-73"/>
     <use x="704.439453" xlink:href="#DejaVuSans-20"/>
     <use x="736.226562" xlink:href="#DejaVuSans-6f"/>
     <use x="797.408203" xlink:href="#DejaVuSans-66"/>
     <use x="832.613281" xlink:href="#DejaVuSans-20"/>
     <use x="864.400391" xlink:href="#DejaVuSans-68"/>
     <use x="927.779297" xlink:href="#DejaVuSans-65"/>
     <use x="989.302734" xlink:href="#DejaVuSans-61"/>
     <use x="1050.582031" xlink:href="#DejaVuSans-74"/>
     <use x="1089.791016" xlink:href="#DejaVuSans-65"/>
     <use x="1151.314453" xlink:href="#DejaVuSans-72"/>
    </g>
   </g>
   <g id="legend_1">
    <g id="patch_7">
     <path d="M 328.585625 190.706125 
L 407.72 190.706125 
Q 409.72 190.706125 409.72 188.706125 
L 409.72 160.349875 
Q 409.72 158.349875 407.72 158.349875 
L 328.585625 158.349875 
Q 326.585625 158.349875 326.585625 160.349875 
L 326.585625 188.706125 
Q 326.585625 190.706125 328.585625 190.706125 
z
" style="fill:#ffffff;opacity:0.8;stroke:#cccccc;stroke-linejoin:miter;"/>
    </g>
    <g id="line2d_18">
     <path d="M 330.585625 166.448312 
L 350.585625 166.448312 
" style="fill:none;stroke:#1f77b4;stroke-linecap:square;stroke-width:1.5;"/>
    </g>
    <g id="line2d_19"/>
    <g id="text_20">
     <!-- Setpoints -->
     <defs>
      <path d="M 53.515625 70.515625 
L 53.515625 60.890625 
Q 47.90625 63.578125 42.921875 64.890625 
Q 37.9375 66.21875 33.296875 66.21875 
Q 25.25 66.21875 20.875 63.09375 
Q 16.5 59.96875 16.5 54.203125 
Q 16.5 49.359375 19.40625 46.890625 
Q 22.3125 44.4375 30.421875 42.921875 
L 36.375 41.703125 
Q 47.40625 39.59375 52.65625 34.296875 
Q 57.90625 29 57.90625 20.125 
Q 57.90625 9.515625 50.796875 4.046875 
Q 43.703125 -1.421875 29.984375 -1.421875 
Q 24.8125 -1.421875 18.96875 -0.25 
Q 13.140625 0.921875 6.890625 3.21875 
L 6.890625 13.375 
Q 12.890625 10.015625 18.65625 8.296875 
Q 24.421875 6.59375 29.984375 6.59375 
Q 38.421875 6.59375 43.015625 9.90625 
Q 47.609375 13.234375 47.609375 19.390625 
Q 47.609375 24.75 44.3125 27.78125 
Q 41.015625 30.8125 33.5 32.328125 
L 27.484375 33.5 
Q 16.453125 35.6875 11.515625 40.375 
Q 6.59375 45.0625 6.59375 53.421875 
Q 6.59375 63.09375 13.40625 68.65625 
Q 20.21875 74.21875 32.171875 74.21875 
Q 37.3125 74.21875 42.625 73.28125 
Q 47.953125 72.359375 53.515625 70.515625 
z
" id="DejaVuSans-53"/>
      <path d="M 9.421875 54.6875 
L 18.40625 54.6875 
L 18.40625 0 
L 9.421875 0 
z
M 9.421875 75.984375 
L 18.40625 75.984375 
L 18.40625 64.59375 
L 9.421875 64.59375 
z
" id="DejaVuSans-69"/>
      <path d="M 54.890625 33.015625 
L 54.890625 0 
L 45.90625 0 
L 45.90625 32.71875 
Q 45.90625 40.484375 42.875 44.328125 
Q 39.84375 48.1875 33.796875 48.1875 
Q 26.515625 48.1875 22.3125 43.546875 
Q 18.109375 38.921875 18.109375 30.90625 
L 18.109375 0 
L 9.078125 0 
L 9.078125 54.6875 
L 18.109375 54.6875 
L 18.109375 46.1875 
Q 21.34375 51.125 25.703125 53.5625 
Q 30.078125 56 35.796875 56 
Q 45.21875 56 50.046875 50.171875 
Q 54.890625 44.34375 54.890625 33.015625 
z
" id="DejaVuSans-6e"/>
     </defs>
     <g transform="translate(358.585625 169.948312)scale(0.1 -0.1)">
      <use xlink:href="#DejaVuSans-53"/>
      <use x="63.476562" xlink:href="#DejaVuSans-65"/>
      <use x="125" xlink:href="#DejaVuSans-74"/>
      <use x="164.208984" xlink:href="#DejaVuSans-70"/>
      <use x="227.685547" xlink:href="#DejaVuSans-6f"/>
      <use x="288.867188" xlink:href="#DejaVuSans-69"/>
      <use x="316.650391" xlink:href="#DejaVuSans-6e"/>
      <use x="380.029297" xlink:href="#DejaVuSans-74"/>
      <use x="419.238281" xlink:href="#DejaVuSans-73"/>
     </g>
    </g>
    <g id="line2d_20">
     <path d="M 330.585625 181.126437 
L 350.585625 181.126437 
" style="fill:none;stroke:#ff7f0e;stroke-linecap:square;stroke-width:1.5;"/>
    </g>
    <g id="line2d_21"/>
    <g id="text_21">
     <!-- Heater -->
     <defs>
      <path d="M 9.8125 72.90625 
L 19.671875 72.90625 
L 19.671875 43.015625 
L 55.515625 43.015625 
L 55.515625 72.90625 
L 65.375 72.90625 
L 65.375 0 
L 55.515625 0 
L 55.515625 34.71875 
L 19.671875 34.71875 
L 19.671875 0 
L 9.8125 0 
z
" id="DejaVuSans-48"/>
     </defs>
     <g transform="translate(358.585625 184.626437)scale(0.1 -0.1)">
      <use xlink:href="#DejaVuSans-48"/>
      <use x="75.195312" xlink:href="#DejaVuSans-65"/>
      <use x="136.71875" xlink:href="#DejaVuSans-61"/>
      <use x="197.998047" xlink:href="#DejaVuSans-74"/>
      <use x="237.207031" xlink:href="#DejaVuSans-65"/>
      <use x="298.730469" xlink:href="#DejaVuSans-72"/>
     </g>
    </g>
   </g>
  </g>
 </g>
 <defs>
  <clipPath id="p8558213260">
   <rect height="266.112" width="357.12" x="57.6" y="41.472"/>
  </clipPath>
 </defs>
</svg>
