<?xml version="1.0" encoding="utf-8" standalone="no"?>
<!DOCTYPE svg PUBLIC "-//W3C//DTD SVG 1.1//EN"
  "http://www.w3.org/Graphics/SVG/1.1/DTD/svg11.dtd">
<!-- Created with matplotlib (http://matplotlib.org/) -->
<svg height="345pt" version="1.1" viewBox="0 0 460 345" width="460pt" xmlns="http://www.w3.org/2000/svg" xmlns:xlink="http://www.w3.org/1999/xlink">
 <defs>
  <style type="text/css">
*{stroke-linecap:butt;stroke-linejoin:round;}
  </style>
 </defs>
 <g id="figure_1">
  <g id="patch_1">
   <path d="M 0 345.6 
L 460.8 345.6 
L 460.8 0 
L 0 0 
z
" style="fill:#ffffff;"/>
  </g>
  <g id="axes_1">
   <g id="patch_2">
    <path d="M 57.6 307.584 
L 414.72 307.584 
L 414.72 41.472 
L 57.6 41.472 
z
" style="fill:#ffffff;"/>
   </g>
   <g id="matplotlib.axis_1">
    <g id="xtick_1">
     <g id="line2d_1">
      <defs>
       <path d="M 0 0 
L 0 3.5 
" id="m793de05025" style="stroke:#000000;stroke-width:0.8;"/>
      </defs>
      <g>
       <use style="stroke:#000000;stroke-width:0.8;" x="73.832727" xlink:href="#m793de05025" y="307.584"/>
      </g>
     </g>
     <g id="text_1">
      <!-- 0 -->
      <defs>
       <path d="M 31.78125 66.40625 
Q 24.171875 66.40625 20.328125 58.90625 
Q 16.5 51.421875 16.5 36.375 
Q 16.5 21.390625 20.328125 13.890625 
Q 24.171875 6.390625 31.78125 6.390625 
Q 39.453125 6.390625 43.28125 13.890625 
Q 47.125 21.390625 47.125 36.375 
Q 47.125 51.421875 43.28125 58.90625 
Q 39.453125 66.40625 31.78125 66.40625 
z
M 31.78125 74.21875 
Q 44.046875 74.21875 50.515625 64.515625 
Q 56.984375 54.828125 56.984375 36.375 
Q 56.984375 17.96875 50.515625 8.265625 
Q 44.046875 -1.421875 31.78125 -1.421875 
Q 19.53125 -1.421875 13.0625 8.265625 
Q 6.59375 17.96875 6.59375 36.375 
Q 6.59375 54.828125 13.0625 64.515625 
Q 19.53125 74.21875 31.78125 74.21875 
z
" id="DejaVuSans-30"/>
      </defs>
      <g transform="translate(70.651477 322.182437)scale(0.1 -0.1)">
       <use xlink:href="#DejaVuSans-30"/>
      </g>
     </g>
    </g>
    <g id="xtick_2">
     <g id="line2d_2">
      <g>
       <use style="stroke:#000000;stroke-width:0.8;" x="127.953544" xlink:href="#m793de05025" y="307.584"/>
      </g>
     </g>
     <g id="text_2">
      <!-- 10 -->
      <defs>
       <path d="M 12.40625 8.296875 
L 28.515625 8.296875 
L 28.515625 63.921875 
L 10.984375 60.40625 
L 10.984375 69.390625 
L 28.421875 72.90625 
L 38.28125 72.90625 
L 38.28125 8.296875 
L 54.390625 8.296875 
L 54.390625 0 
L 12.40625 0 
z
" id="DejaVuSans-31"/>
      </defs>
      <g transform="translate(121.591044 322.182437)scale(0.1 -0.1)">
       <use xlink:href="#DejaVuSans-31"/>
       <use x="63.623047" xlink:href="#DejaVuSans-30"/>
      </g>
     </g>
    </g>
    <g id="xtick_3">
     <g id="line2d_3">
      <g>
       <use style="stroke:#000000;stroke-width:0.8;" x="182.074361" xlink:href="#m793de05025" y="307.584"/>
      </g>
     </g>
     <g id="text_3">
      <!-- 20 -->
      <defs>
       <path d="M 19.1875 8.296875 
L 53.609375 8.296875 
L 53.609375 0 
L 7.328125 0 
L 7.328125 8.296875 
Q 12.9375 14.109375 22.625 23.890625 
Q 32.328125 33.6875 34.8125 36.53125 
Q 39.546875 41.84375 41.421875 45.53125 
Q 43.3125 49.21875 43.3125 52.78125 
Q 43.3125 58.59375 39.234375 62.25 
Q 35.15625 65.921875 28.609375 65.921875 
Q 23.96875 65.921875 18.8125 64.3125 
Q 13.671875 62.703125 7.8125 59.421875 
L 7.8125 69.390625 
Q 13.765625 71.78125 18.9375 73 
Q 24.125 74.21875 28.421875 74.21875 
Q 39.75 74.21875 46.484375 68.546875 
Q 53.21875 62.890625 53.21875 53.421875 
Q 53.21875 48.921875 51.53125 44.890625 
Q 49.859375 40.875 45.40625 35.40625 
Q 44.1875 33.984375 37.640625 27.21875 
Q 31.109375 20.453125 19.1875 8.296875 
z
" id="DejaVuSans-32"/>
      </defs>
      <g transform="translate(175.711861 322.182437)scale(0.1 -0.1)">
       <use xlink:href="#DejaVuSans-32"/>
       <use x="63.623047" xlink:href="#DejaVuSans-30"/>
      </g>
     </g>
    </g>
    <g id="xtick_4">
     <g id="line2d_4">
      <g>
       <use style="stroke:#000000;stroke-width:0.8;" x="236.195179" xlink:href="#m793de05025" y="307.584"/>
      </g>
     </g>
     <g id="text_4">
      <!-- 30 -->
      <defs>
       <path d="M 40.578125 39.3125 
Q 47.65625 37.796875 51.625 33 
Q 55.609375 28.21875 55.609375 21.1875 
Q 55.609375 10.40625 48.1875 4.484375 
Q 40.765625 -1.421875 27.09375 -1.421875 
Q 22.515625 -1.421875 17.65625 -0.515625 
Q 12.796875 0.390625 7.625 2.203125 
L 7.625 11.71875 
Q 11.71875 9.328125 16.59375 8.109375 
Q 21.484375 6.890625 26.8125 6.890625 
Q 36.078125 6.890625 40.9375 10.546875 
Q 45.796875 14.203125 45.796875 21.1875 
Q 45.796875 27.640625 41.28125 31.265625 
Q 36.765625 34.90625 28.71875 34.90625 
L 20.21875 34.90625 
L 20.21875 43.015625 
L 29.109375 43.015625 
Q 36.375 43.015625 40.234375 45.921875 
Q 44.09375 48.828125 44.09375 54.296875 
Q 44.09375 59.90625 40.109375 62.90625 
Q 36.140625 65.921875 28.71875 65.921875 
Q 24.65625 65.921875 20.015625 65.03125 
Q 15.375 64.15625 9.8125 62.3125 
L 9.8125 71.09375 
Q 15.4375 72.65625 20.34375 73.4375 
Q 25.25 74.21875 29.59375 74.21875 
Q 40.828125 74.21875 47.359375 69.109375 
Q 53.90625 64.015625 53.90625 55.328125 
Q 53.90625 49.265625 50.4375 45.09375 
Q 46.96875 40.921875 40.578125 39.3125 
z
" id="DejaVuSans-33"/>
      </defs>
      <g transform="translate(229.832679 322.182437)scale(0.1 -0.1)">
       <use xlink:href="#DejaVuSans-33"/>
       <use x="63.623047" xlink:href="#DejaVuSans-30"/>
      </g>
     </g>
    </g>
    <g id="xtick_5">
     <g id="line2d_5">
      <g>
       <use style="stroke:#000000;stroke-width:0.8;" x="290.315996" xlink:href="#m793de05025" y="307.584"/>
      </g>
     </g>
     <g id="text_5">
      <!-- 40 -->
      <defs>
       <path d="M 37.796875 64.3125 
L 12.890625 25.390625 
L 37.796875 25.390625 
z
M 35.203125 72.90625 
L 47.609375 72.90625 
L 47.609375 25.390625 
L 58.015625 25.390625 
L 58.015625 17.1875 
L 47.609375 17.1875 
L 47.609375 0 
L 37.796875 0 
L 37.796875 17.1875 
L 4.890625 17.1875 
L 4.890625 26.703125 
z
" id="DejaVuSans-34"/>
      </defs>
      <g transform="translate(283.953496 322.182437)scale(0.1 -0.1)">
       <use xlink:href="#DejaVuSans-34"/>
       <use x="63.623047" xlink:href="#DejaVuSans-30"/>
      </g>
     </g>
    </g>
    <g id="xtick_6">
     <g id="line2d_6">
      <g>
       <use style="stroke:#000000;stroke-width:0.8;" x="344.436813" xlink:href="#m793de05025" y="307.584"/>
      </g>
     </g>
     <g id="text_6">
      <!-- 50 -->
      <defs>
       <path d="M 10.796875 72.90625 
L 49.515625 72.90625 
L 49.515625 64.59375 
L 19.828125 64.59375 
L 19.828125 46.734375 
Q 21.96875 47.46875 24.109375 47.828125 
Q 26.265625 48.1875 28.421875 48.1875 
Q 40.625 48.1875 47.75 41.5 
Q 54.890625 34.8125 54.890625 23.390625 
Q 54.890625 11.625 47.5625 5.09375 
Q 40.234375 -1.421875 26.90625 -1.421875 
Q 22.3125 -1.421875 17.546875 -0.640625 
Q 12.796875 0.140625 7.71875 1.703125 
L 7.71875 11.625 
Q 12.109375 9.234375 16.796875 8.0625 
Q 21.484375 6.890625 26.703125 6.890625 
Q 35.15625 6.890625 40.078125 11.328125 
Q 45.015625 15.765625 45.015625 23.390625 
Q 45.015625 31 40.078125 35.4375 
Q 35.15625 39.890625 26.703125 39.890625 
Q 22.75 39.890625 18.8125 39.015625 
Q 14.890625 38.140625 10.796875 36.28125 
z
" id="DejaVuSans-35"/>
      </defs>
      <g transform="translate(338.074313 322.182437)scale(0.1 -0.1)">
       <use xlink:href="#DejaVuSans-35"/>
       <use x="63.623047" xlink:href="#DejaVuSans-30"/>
      </g>
     </g>
    </g>
    <g id="xtick_7">
     <g id="line2d_7">
      <g>
       <use style="stroke:#000000;stroke-width:0.8;" x="398.55763" xlink:href="#m793de05025" y="307.584"/>
      </g>
     </g>
     <g id="text_7">
      <!-- 60 -->
      <defs>
       <path d="M 33.015625 40.375 
Q 26.375 40.375 22.484375 35.828125 
Q 18.609375 31.296875 18.609375 23.390625 
Q 18.609375 15.53125 22.484375 10.953125 
Q 26.375 6.390625 33.015625 6.390625 
Q 39.65625 6.390625 43.53125 10.953125 
Q 47.40625 15.53125 47.40625 23.390625 
Q 47.40625 31.296875 43.53125 35.828125 
Q 39.65625 40.375 33.015625 40.375 
z
M 52.59375 71.296875 
L 52.59375 62.3125 
Q 48.875 64.0625 45.09375 64.984375 
Q 41.3125 65.921875 37.59375 65.921875 
Q 27.828125 65.921875 22.671875 59.328125 
Q 17.53125 52.734375 16.796875 39.40625 
Q 19.671875 43.65625 24.015625 45.921875 
Q 28.375 48.1875 33.59375 48.1875 
Q 44.578125 48.1875 50.953125 41.515625 
Q 57.328125 34.859375 57.328125 23.390625 
Q 57.328125 12.15625 50.6875 5.359375 
Q 44.046875 -1.421875 33.015625 -1.421875 
Q 20.359375 -1.421875 13.671875 8.265625 
Q 6.984375 17.96875 6.984375 36.375 
Q 6.984375 53.65625 15.1875 63.9375 
Q 23.390625 74.21875 37.203125 74.21875 
Q 40.921875 74.21875 44.703125 73.484375 
Q 48.484375 72.75 52.59375 71.296875 
z
" id="DejaVuSans-36"/>
      </defs>
      <g transform="translate(392.19513 322.182437)scale(0.1 -0.1)">
       <use xlink:href="#DejaVuSans-36"/>
       <use x="63.623047" xlink:href="#DejaVuSans-30"/>
      </g>
     </g>
    </g>
    <g id="text_8">
     <!-- t(s) -->
     <defs>
      <path d="M 18.3125 70.21875 
L 18.3125 54.6875 
L 36.8125 54.6875 
L 36.8125 47.703125 
L 18.3125 47.703125 
L 18.3125 18.015625 
Q 18.3125 11.328125 20.140625 9.421875 
Q 21.96875 7.515625 27.59375 7.515625 
L 36.8125 7.515625 
L 36.8125 0 
L 27.59375 0 
Q 17.1875 0 13.234375 3.875 
Q 9.28125 7.765625 9.28125 18.015625 
L 9.28125 47.703125 
L 2.6875 47.703125 
L 2.6875 54.6875 
L 9.28125 54.6875 
L 9.28125 70.21875 
z
" id="DejaVuSans-74"/>
      <path d="M 31 75.875 
Q 24.46875 64.65625 21.28125 53.65625 
Q 18.109375 42.671875 18.109375 31.390625 
Q 18.109375 20.125 21.3125 9.0625 
Q 24.515625 -2 31 -13.1875 
L 23.1875 -13.1875 
Q 15.875 -1.703125 12.234375 9.375 
Q 8.59375 20.453125 8.59375 31.390625 
Q 8.59375 42.28125 12.203125 53.3125 
Q 15.828125 64.359375 23.1875 75.875 
z
" id="DejaVuSans-28"/>
      <path d="M 44.28125 53.078125 
L 44.28125 44.578125 
Q 40.484375 46.53125 36.375 47.5 
Q 32.28125 48.484375 27.875 48.484375 
Q 21.1875 48.484375 17.84375 46.4375 
Q 14.5 44.390625 14.5 40.28125 
Q 14.5 37.15625 16.890625 35.375 
Q 19.28125 33.59375 26.515625 31.984375 
L 29.59375 31.296875 
Q 39.15625 29.25 43.1875 25.515625 
Q 47.21875 21.78125 47.21875 15.09375 
Q 47.21875 7.46875 41.1875 3.015625 
Q 35.15625 -1.421875 24.609375 -1.421875 
Q 20.21875 -1.421875 15.453125 -0.5625 
Q 10.6875 0.296875 5.421875 2 
L 5.421875 11.28125 
Q 10.40625 8.6875 15.234375 7.390625 
Q 20.0625 6.109375 24.8125 6.109375 
Q 31.15625 6.109375 34.5625 8.28125 
Q 37.984375 10.453125 37.984375 14.40625 
Q 37.984375 18.0625 35.515625 20.015625 
Q 33.0625 21.96875 24.703125 23.78125 
L 21.578125 24.515625 
Q 13.234375 26.265625 9.515625 29.90625 
Q 5.8125 33.546875 5.8125 39.890625 
Q 5.8125 47.609375 11.28125 51.796875 
Q 16.75 56 26.8125 56 
Q 31.78125 56 36.171875 55.265625 
Q 40.578125 54.546875 44.28125 53.078125 
z
" id="DejaVuSans-73"/>
      <path d="M 8.015625 75.875 
L 15.828125 75.875 
Q 23.140625 64.359375 26.78125 53.3125 
Q 30.421875 42.28125 30.421875 31.390625 
Q 30.421875 20.453125 26.78125 9.375 
Q 23.140625 -1.703125 15.828125 -13.1875 
L 8.015625 -13.1875 
Q 14.5 -2 17.703125 9.0625 
Q 20.90625 20.125 20.90625 31.390625 
Q 20.90625 42.671875 17.703125 53.65625 
Q 14.5 64.65625 8.015625 75.875 
z
" id="DejaVuSans-29"/>
     </defs>
     <g transform="translate(227.693594 335.860562)scale(0.1 -0.1)">
      <use xlink:href="#DejaVuSans-74"/>
      <use x="39.208984" xlink:href="#DejaVuSans-28"/>
      <use x="78.222656" xlink:href="#DejaVuSans-73"/>
      <use x="130.322266" xlink:href="#DejaVuSans-29"/>
     </g>
    </g>
   </g>
   <g id="matplotlib.axis_2">
    <g id="ytick_1">
     <g id="line2d_8">
      <defs>
       <path d="M 0 0 
L -3.5 0 
" id="m4fff6dc89d" style="stroke:#000000;stroke-width:0.8;"/>
      </defs>
      <g>
       <use style="stroke:#000000;stroke-width:0.8;" x="57.6" xlink:href="#m4fff6dc89d" y="289.587512"/>
      </g>
     </g>
     <g id="text_9">
      <!-- −0.02 -->
      <defs>
       <path d="M 10.59375 35.5 
L 73.1875 35.5 
L 73.1875 27.203125 
L 10.59375 27.203125 
z
" id="DejaVuSans-2212"/>
       <path d="M 10.6875 12.40625 
L 21 12.40625 
L 21 0 
L 10.6875 0 
z
" id="DejaVuSans-2e"/>
      </defs>
      <g transform="translate(19.954687 293.386731)scale(0.1 -0.1)">
       <use xlink:href="#DejaVuSans-2212"/>
       <use x="83.789062" xlink:href="#DejaVuSans-30"/>
       <use x="147.412109" xlink:href="#DejaVuSans-2e"/>
       <use x="179.199219" xlink:href="#DejaVuSans-30"/>
       <use x="242.822266" xlink:href="#DejaVuSans-32"/>
      </g>
     </g>
    </g>
    <g id="ytick_2">
     <g id="line2d_9">
      <g>
       <use style="stroke:#000000;stroke-width:0.8;" x="57.6" xlink:href="#m4fff6dc89d" y="230.582634"/>
      </g>
     </g>
     <g id="text_10">
      <!-- −0.01 -->
      <g transform="translate(19.954687 234.381853)scale(0.1 -0.1)">
       <use xlink:href="#DejaVuSans-2212"/>
       <use x="83.789062" xlink:href="#DejaVuSans-30"/>
       <use x="147.412109" xlink:href="#DejaVuSans-2e"/>
       <use x="179.199219" xlink:href="#DejaVuSans-30"/>
       <use x="242.822266" xlink:href="#DejaVuSans-31"/>
      </g>
     </g>
    </g>
    <g id="ytick_3">
     <g id="line2d_10">
      <g>
       <use style="stroke:#000000;stroke-width:0.8;" x="57.6" xlink:href="#m4fff6dc89d" y="171.577756"/>
      </g>
     </g>
     <g id="text_11">
      <!-- 0.00 -->
      <g transform="translate(28.334375 175.376975)scale(0.1 -0.1)">
       <use xlink:href="#DejaVuSans-30"/>
       <use x="63.623047" xlink:href="#DejaVuSans-2e"/>
       <use x="95.410156" xlink:href="#DejaVuSans-30"/>
       <use x="159.033203" xlink:href="#DejaVuSans-30"/>
      </g>
     </g>
    </g>
    <g id="ytick_4">
     <g id="line2d_11">
      <g>
       <use style="stroke:#000000;stroke-width:0.8;" x="57.6" xlink:href="#m4fff6dc89d" y="112.572878"/>
      </g>
     </g>
     <g id="text_12">
      <!-- 0.01 -->
      <g transform="translate(28.334375 116.372097)scale(0.1 -0.1)">
       <use xlink:href="#DejaVuSans-30"/>
       <use x="63.623047" xlink:href="#DejaVuSans-2e"/>
       <use x="95.410156" xlink:href="#DejaVuSans-30"/>
       <use x="159.033203" xlink:href="#DejaVuSans-31"/>
      </g>
     </g>
    </g>
    <g id="ytick_5">
     <g id="line2d_12">
      <g>
       <use style="stroke:#000000;stroke-width:0.8;" x="57.6" xlink:href="#m4fff6dc89d" y="53.568"/>
      </g>
     </g>
     <g id="text_13">
      <!-- 0.02 -->
      <g transform="translate(28.334375 57.367219)scale(0.1 -0.1)">
       <use xlink:href="#DejaVuSans-30"/>
       <use x="63.623047" xlink:href="#DejaVuSans-2e"/>
       <use x="95.410156" xlink:href="#DejaVuSans-30"/>
       <use x="159.033203" xlink:href="#DejaVuSans-32"/>
      </g>
     </g>
    </g>
    <g id="text_14">
     <!-- Current (nA) -->
     <defs>
      <path d="M 64.40625 67.28125 
L 64.40625 56.890625 
Q 59.421875 61.53125 53.78125 63.8125 
Q 48.140625 66.109375 41.796875 66.109375 
Q 29.296875 66.109375 22.65625 58.46875 
Q 16.015625 50.828125 16.015625 36.375 
Q 16.015625 21.96875 22.65625 14.328125 
Q 29.296875 6.6875 41.796875 6.6875 
Q 48.140625 6.6875 53.78125 8.984375 
Q 59.421875 11.28125 64.40625 15.921875 
L 64.40625 5.609375 
Q 59.234375 2.09375 53.4375 0.328125 
Q 47.65625 -1.421875 41.21875 -1.421875 
Q 24.65625 -1.421875 15.125 8.703125 
Q 5.609375 18.84375 5.609375 36.375 
Q 5.609375 53.953125 15.125 64.078125 
Q 24.65625 74.21875 41.21875 74.21875 
Q 47.75 74.21875 53.53125 72.484375 
Q 59.328125 70.75 64.40625 67.28125 
z
" id="DejaVuSans-43"/>
      <path d="M 8.5 21.578125 
L 8.5 54.6875 
L 17.484375 54.6875 
L 17.484375 21.921875 
Q 17.484375 14.15625 20.5 10.265625 
Q 23.53125 6.390625 29.59375 6.390625 
Q 36.859375 6.390625 41.078125 11.03125 
Q 45.3125 15.671875 45.3125 23.6875 
L 45.3125 54.6875 
L 54.296875 54.6875 
L 54.296875 0 
L 45.3125 0 
L 45.3125 8.40625 
Q 42.046875 3.421875 37.71875 1 
Q 33.40625 -1.421875 27.6875 -1.421875 
Q 18.265625 -1.421875 13.375 4.4375 
Q 8.5 10.296875 8.5 21.578125 
z
M 31.109375 56 
z
" id="DejaVuSans-75"/>
      <path d="M 41.109375 46.296875 
Q 39.59375 47.171875 37.8125 47.578125 
Q 36.03125 48 33.890625 48 
Q 26.265625 48 22.1875 43.046875 
Q 18.109375 38.09375 18.109375 28.8125 
L 18.109375 0 
L 9.078125 0 
L 9.078125 54.6875 
L 18.109375 54.6875 
L 18.109375 46.1875 
Q 20.953125 51.171875 25.484375 53.578125 
Q 30.03125 56 36.53125 56 
Q 37.453125 56 38.578125 55.875 
Q 39.703125 55.765625 41.0625 55.515625 
z
" id="DejaVuSans-72"/>
      <path d="M 56.203125 29.59375 
L 56.203125 25.203125 
L 14.890625 25.203125 
Q 15.484375 15.921875 20.484375 11.0625 
Q 25.484375 6.203125 34.421875 6.203125 
Q 39.59375 6.203125 44.453125 7.46875 
Q 49.3125 8.734375 54.109375 11.28125 
L 54.109375 2.78125 
Q 49.265625 0.734375 44.1875 -0.34375 
Q 39.109375 -1.421875 33.890625 -1.421875 
Q 20.796875 -1.421875 13.15625 6.1875 
Q 5.515625 13.8125 5.515625 26.8125 
Q 5.515625 40.234375 12.765625 48.109375 
Q 20.015625 56 32.328125 56 
Q 43.359375 56 49.78125 48.890625 
Q 56.203125 41.796875 56.203125 29.59375 
z
M 47.21875 32.234375 
Q 47.125 39.59375 43.09375 43.984375 
Q 39.0625 48.390625 32.421875 48.390625 
Q 24.90625 48.390625 20.390625 44.140625 
Q 15.875 39.890625 15.1875 32.171875 
z
" id="DejaVuSans-65"/>
      <path d="M 54.890625 33.015625 
L 54.890625 0 
L 45.90625 0 
L 45.90625 32.71875 
Q 45.90625 40.484375 42.875 44.328125 
Q 39.84375 48.1875 33.796875 48.1875 
Q 26.515625 48.1875 22.3125 43.546875 
Q 18.109375 38.921875 18.109375 30.90625 
L 18.109375 0 
L 9.078125 0 
L 9.078125 54.6875 
L 18.109375 54.6875 
L 18.109375 46.1875 
Q 21.34375 51.125 25.703125 53.5625 
Q 30.078125 56 35.796875 56 
Q 45.21875 56 50.046875 50.171875 
Q 54.890625 44.34375 54.890625 33.015625 
z
" id="DejaVuSans-6e"/>
      <path id="DejaVuSans-20"/>
      <path d="M 34.1875 63.1875 
L 20.796875 26.90625 
L 47.609375 26.90625 
z
M 28.609375 72.90625 
L 39.796875 72.90625 
L 67.578125 0 
L 57.328125 0 
L 50.6875 18.703125 
L 17.828125 18.703125 
L 11.1875 0 
L 0.78125 0 
z
" id="DejaVuSans-41"/>
     </defs>
     <g transform="translate(13.875 205.581906)rotate(-90)scale(0.1 -0.1)">
      <use xlink:href="#DejaVuSans-43"/>
      <use x="69.824219" xlink:href="#DejaVuSans-75"/>
      <use x="133.203125" xlink:href="#DejaVuSans-72"/>
      <use x="174.300781" xlink:href="#DejaVuSans-72"/>
      <use x="215.382812" xlink:href="#DejaVuSans-65"/>
      <use x="276.90625" xlink:href="#DejaVuSans-6e"/>
      <use x="340.285156" xlink:href="#DejaVuSans-74"/>
      <use x="379.494141" xlink:href="#DejaVuSans-20"/>
      <use x="411.28125" xlink:href="#DejaVuSans-28"/>
      <use x="450.294922" xlink:href="#DejaVuSans-6e"/>
      <use x="513.673828" xlink:href="#DejaVuSans-41"/>
      <use x="582.082031" xlink:href="#DejaVuSans-29"/>
     </g>
    </g>
    <g id="text_15">
     <!-- +1e2 -->
     <defs>
      <path d="M 46 62.703125 
L 46 35.5 
L 73.1875 35.5 
L 73.1875 27.203125 
L 46 27.203125 
L 46 0 
L 37.796875 0 
L 37.796875 27.203125 
L 10.59375 27.203125 
L 10.59375 35.5 
L 37.796875 35.5 
L 37.796875 62.703125 
z
" id="DejaVuSans-2b"/>
     </defs>
     <g transform="translate(57.6 38.472)scale(0.1 -0.1)">
      <use xlink:href="#DejaVuSans-2b"/>
      <use x="83.789062" xlink:href="#DejaVuSans-31"/>
      <use x="147.412109" xlink:href="#DejaVuSans-65"/>
      <use x="208.935547" xlink:href="#DejaVuSans-32"/>
     </g>
    </g>
   </g>
   <g id="line2d_13">
    <path clip-path="url(#p253daff3a7)" d="M 73.832727 136.174829 
L 74.103332 254.184585 
L 74.373935 112.572878 
L 74.64454 230.582634 
L 74.915144 159.77678 
L 75.185749 248.284098 
L 75.461765 147.975805 
L 75.73778 236.483122 
L 76.008385 159.77678 
L 76.284402 224.682146 
L 76.560416 195.179707 
L 76.831021 218.781659 
L 77.101625 136.174829 
L 77.653657 236.483122 
L 77.924261 189.27922 
L 78.470882 136.174829 
L 78.741486 248.284098 
L 79.012091 165.677268 
L 79.288105 183.378732 
L 79.55871 183.378732 
L 79.829314 260.085073 
L 80.099919 183.378732 
L 80.375935 218.781659 
L 80.65195 147.975805 
L 80.922555 224.682146 
L 81.193158 136.174829 
L 81.463763 230.582634 
L 81.734367 124.373854 
L 82.004972 224.682146 
L 82.280987 124.373854 
L 82.557003 248.284098 
L 82.827608 142.075317 
L 83.103625 224.682146 
L 83.379639 177.478244 
L 83.650244 206.980683 
L 83.920848 206.980683 
L 84.191452 147.975805 
L 84.732661 224.682146 
L 85.003263 153.876293 
L 85.549885 254.184585 
L 85.825901 183.378732 
L 86.096505 218.781659 
L 86.372521 189.27922 
L 86.643125 201.080195 
L 86.919142 159.77678 
L 87.195158 195.179707 
L 87.465761 142.075317 
L 87.736367 165.677268 
L 88.006969 171.577756 
L 88.282986 206.980683 
L 88.559003 142.075317 
L 88.829606 265.985561 
L 89.10021 153.876293 
L 89.370814 224.682146 
L 89.641419 106.67239 
L 89.912022 212.881171 
L 90.182627 130.274341 
L 90.453231 224.682146 
L 90.723836 106.67239 
L 90.99985 265.985561 
L 91.270455 106.67239 
L 91.546472 248.284098 
L 91.817075 106.67239 
L 92.08768 277.786537 
L 92.358283 118.473366 
L 92.628889 248.284098 
L 92.904903 112.572878 
L 93.175508 206.980683 
L 93.446112 142.075317 
L 93.716716 195.179707 
L 93.987319 118.473366 
L 94.257925 218.781659 
L 94.528527 147.975805 
L 94.799132 242.38361 
L 95.069736 142.075317 
L 95.340341 165.677268 
L 95.616357 136.174829 
L 95.88696 212.881171 
L 96.157566 189.27922 
L 96.428168 224.682146 
L 96.698773 171.577756 
L 96.974789 177.478244 
L 97.245394 189.27922 
L 97.521409 153.876293 
L 97.797425 206.980683 
L 98.06803 171.577756 
L 98.338634 171.577756 
L 98.614649 189.27922 
L 98.885255 171.577756 
L 99.155858 142.075317 
L 99.431874 189.27922 
L 99.707891 124.373854 
L 99.983906 265.985561 
L 100.254511 171.577756 
L 100.525114 242.38361 
L 100.795719 94.871415 
L 101.071736 218.781659 
L 101.342338 118.473366 
L 101.612943 254.184585 
L 101.883547 118.473366 
L 102.154152 212.881171 
L 102.430167 147.975805 
L 102.700772 260.085073 
L 102.971376 165.677268 
L 103.241979 201.080195 
L 103.512583 136.174829 
L 103.783188 201.080195 
L 104.053792 136.174829 
L 104.329808 248.284098 
L 104.600413 165.677268 
L 104.876428 230.582634 
L 105.147032 201.080195 
L 105.423049 189.27922 
L 105.699064 165.677268 
L 105.96967 159.77678 
L 106.516289 206.980683 
L 106.786894 189.27922 
L 107.057498 136.174829 
L 107.333513 224.682146 
L 107.604117 165.677268 
L 107.874722 218.781659 
L 108.150738 83.070439 
L 108.426753 195.179707 
L 108.697358 100.771902 
L 108.973375 289.587512 
L 109.249389 159.77678 
L 109.519995 248.284098 
L 109.790598 124.373854 
L 110.061204 242.38361 
L 110.337219 142.075317 
L 110.607823 195.179707 
L 110.878428 183.378732 
L 111.154442 201.080195 
L 111.425047 177.478244 
L 111.695651 195.179707 
L 111.966256 171.577756 
L 112.242272 212.881171 
L 112.518287 206.980683 
L 112.788892 177.478244 
L 113.059495 201.080195 
L 113.3301 159.77678 
L 113.600704 195.179707 
L 113.871309 159.77678 
L 114.147325 218.781659 
L 114.42334 136.174829 
L 114.693945 218.781659 
L 114.964548 165.677268 
L 115.240565 224.682146 
L 115.51117 159.77678 
L 115.781774 195.179707 
L 116.057789 159.77678 
L 116.328393 218.781659 
L 116.598998 153.876293 
L 116.875015 177.478244 
L 117.151029 130.274341 
L 117.421634 248.284098 
L 117.692238 153.876293 
L 117.968253 212.881171 
L 118.238859 147.975805 
L 118.509462 248.284098 
L 118.780068 118.473366 
L 119.056082 165.677268 
L 119.326687 118.473366 
L 119.597291 183.378732 
L 119.867895 153.876293 
L 120.143911 165.677268 
L 120.68512 224.682146 
L 120.961135 218.781659 
L 121.23174 183.378732 
L 121.502343 230.582634 
L 121.778359 165.677268 
L 122.048964 212.881171 
L 122.319568 153.876293 
L 122.590173 206.980683 
L 122.866187 165.677268 
L 123.136792 218.781659 
L 123.412809 159.77678 
L 123.683412 189.27922 
L 123.954017 153.876293 
L 124.224621 206.980683 
L 124.500637 147.975805 
L 124.776653 254.184585 
L 125.047257 147.975805 
L 125.317862 218.781659 
L 125.588464 142.075317 
L 125.85907 206.980683 
L 126.129673 147.975805 
L 126.400279 218.781659 
L 126.676293 88.970927 
L 126.946898 260.085073 
L 127.217502 83.070439 
L 127.488106 236.483122 
L 127.758709 106.67239 
L 128.029314 248.284098 
L 128.305331 112.572878 
L 128.581346 248.284098 
L 128.851951 183.378732 
L 129.122554 242.38361 
L 129.393158 130.274341 
L 129.663762 254.184585 
L 129.934367 142.075317 
L 130.210384 189.27922 
L 130.486398 177.478244 
L 130.757003 201.080195 
L 131.03302 265.985561 
L 131.309034 147.975805 
L 131.57964 183.378732 
L 131.855656 165.677268 
L 132.131672 218.781659 
L 132.402276 147.975805 
L 132.678292 212.881171 
L 132.948896 165.677268 
L 133.219501 224.682146 
L 133.495516 112.572878 
L 133.766121 242.38361 
L 134.042138 118.473366 
L 134.31274 230.582634 
L 134.588757 130.274341 
L 134.859361 206.980683 
L 135.411393 142.075317 
L 135.68741 165.677268 
L 135.958014 130.274341 
L 136.234031 236.483122 
L 136.504633 171.577756 
L 136.775238 254.184585 
L 137.051255 106.67239 
L 137.32727 224.682146 
L 137.603286 136.174829 
L 137.873891 218.781659 
L 138.144495 153.876293 
L 138.415099 183.378732 
L 138.685703 183.378732 
L 138.956308 171.577756 
L 139.22691 118.473366 
L 139.497515 212.881171 
L 139.773531 124.373854 
L 140.044136 265.985561 
L 140.320152 130.274341 
L 140.590755 248.284098 
L 140.866772 130.274341 
L 141.142789 206.980683 
L 141.413392 218.781659 
L 141.689408 147.975805 
L 141.960012 177.478244 
L 142.230616 153.876293 
L 142.782648 195.179707 
L 143.323856 183.378732 
L 143.594461 171.577756 
L 143.865065 201.080195 
L 144.406273 201.080195 
L 144.676878 177.478244 
L 144.947482 177.478244 
L 145.223497 236.483122 
L 145.494102 165.677268 
L 145.764706 201.080195 
L 146.040721 165.677268 
L 146.311325 242.38361 
L 146.58193 177.478244 
L 147.123138 218.781659 
L 147.393742 212.881171 
L 147.664347 142.075317 
L 147.93495 224.682146 
L 148.205555 159.77678 
L 148.481571 189.27922 
L 148.757587 189.27922 
L 149.033603 230.582634 
L 149.309619 130.274341 
L 149.580223 254.184585 
L 149.850828 124.373854 
L 150.126844 212.881171 
L 150.397448 136.174829 
L 150.668053 201.080195 
L 150.938655 100.771902 
L 151.20926 277.786537 
L 151.479864 130.274341 
L 151.755881 189.27922 
L 152.031897 177.478244 
L 152.3025 212.881171 
L 152.84912 142.075317 
L 153.119725 171.577756 
L 153.390329 142.075317 
L 153.660934 171.577756 
L 153.936949 112.572878 
L 154.212965 195.179707 
L 154.48357 183.378732 
L 154.754172 230.582634 
L 155.024778 136.174829 
L 155.300794 236.483122 
L 155.571398 183.378732 
L 155.847414 206.980683 
L 156.123431 177.478244 
L 156.394034 218.781659 
L 156.664639 189.27922 
L 156.962302 248.284098 
L 157.232907 183.378732 
L 157.503511 171.577756 
L 157.774116 153.876293 
L 158.050131 183.378732 
L 158.320735 183.378732 
L 158.59134 136.174829 
L 158.861943 230.582634 
L 159.132548 153.876293 
L 159.403152 189.27922 
L 159.673757 171.577756 
L 159.949771 189.27922 
L 160.220376 189.27922 
L 160.49098 224.682146 
L 160.761584 183.378732 
L 161.032188 260.085073 
L 161.302793 189.27922 
L 161.573395 159.77678 
L 161.844 165.677268 
L 162.114604 177.478244 
L 162.385209 183.378732 
L 162.931829 142.075317 
L 163.207846 206.980683 
L 163.478448 118.473366 
L 163.749053 201.080195 
L 164.019657 147.975805 
L 164.290262 195.179707 
L 164.566278 124.373854 
L 164.836882 171.577756 
L 165.112898 106.67239 
L 165.388915 183.378732 
L 165.664929 136.174829 
L 165.935534 212.881171 
L 166.206138 136.174829 
L 166.476742 230.582634 
L 166.752759 159.77678 
L 167.023363 177.478244 
L 167.293968 118.473366 
L 167.569982 218.781659 
L 167.840587 224.682146 
L 168.111191 218.781659 
L 168.381795 206.980683 
L 168.652399 236.483122 
L 169.464211 147.975805 
L 169.740228 177.478244 
L 170.010832 218.781659 
L 170.281436 183.378732 
L 170.55204 201.080195 
L 170.822645 230.582634 
L 171.098659 165.677268 
L 171.645281 218.781659 
L 171.915885 165.677268 
L 172.186489 242.38361 
L 172.457093 206.980683 
L 172.727698 195.179707 
L 173.003712 159.77678 
L 173.274317 230.582634 
L 173.544921 153.876293 
L 173.815526 189.27922 
L 174.091541 147.975805 
L 174.367557 236.483122 
L 174.638162 118.473366 
L 174.914179 212.881171 
L 175.190193 153.876293 
L 175.460798 236.483122 
L 175.731402 136.174829 
L 176.002006 260.085073 
L 176.27261 147.975805 
L 176.543215 248.284098 
L 176.819232 201.080195 
L 177.365851 159.77678 
L 177.641868 195.179707 
L 177.91247 189.27922 
L 178.188487 195.179707 
L 178.459091 206.980683 
L 178.729696 183.378732 
L 179.000299 183.378732 
L 179.270904 201.080195 
L 179.546921 201.080195 
L 179.817523 224.682146 
L 180.088128 195.179707 
L 180.364144 118.473366 
L 180.634749 165.677268 
L 180.905351 94.871415 
L 181.175957 224.682146 
L 181.44656 171.577756 
L 181.717164 171.577756 
L 181.993181 201.080195 
L 182.269196 195.179707 
L 182.539802 153.876293 
L 182.815817 254.184585 
L 183.091833 118.473366 
L 183.362438 283.687024 
L 183.638455 77.169951 
L 183.914469 201.080195 
L 184.195897 189.27922 
L 184.466502 212.881171 
L 184.737106 183.378732 
L 185.013122 195.179707 
L 185.283727 189.27922 
L 185.554331 165.677268 
L 185.824935 206.980683 
L 186.10095 177.478244 
L 186.371555 201.080195 
L 186.642159 153.876293 
L 186.912763 224.682146 
L 187.183367 142.075317 
L 187.453972 236.483122 
L 187.724574 165.677268 
L 187.995179 206.980683 
L 188.271196 171.577756 
L 188.547212 153.876293 
L 188.823227 159.77678 
L 189.093832 260.085073 
L 189.364436 183.378732 
L 189.640453 254.184585 
L 189.916469 106.67239 
L 190.192484 260.085073 
L 190.463089 142.075317 
L 190.733692 254.184585 
L 191.004297 136.174829 
L 191.274901 206.980683 
L 191.545506 206.980683 
L 191.826933 159.77678 
L 192.10295 165.677268 
L 192.373554 147.975805 
L 192.644159 206.980683 
L 192.920173 136.174829 
L 193.190778 230.582634 
L 193.461382 212.881171 
L 193.737397 224.682146 
L 194.008003 142.075317 
L 194.284018 224.682146 
L 194.554623 183.378732 
L 194.830639 242.38361 
L 195.106654 88.970927 
L 195.377259 224.682146 
L 195.647862 183.378732 
L 195.918467 218.781659 
L 196.189071 171.577756 
L 196.459676 254.184585 
L 196.735691 106.67239 
L 197.006295 218.781659 
L 197.2769 153.876293 
L 197.552915 242.38361 
L 197.82352 142.075317 
L 198.099537 183.378732 
L 198.37014 159.77678 
L 198.646156 171.577756 
L 198.91676 142.075317 
L 199.187365 153.876293 
L 199.463382 189.27922 
L 199.739396 206.980683 
L 200.010001 189.27922 
L 200.280605 136.174829 
L 200.551209 183.378732 
L 200.821812 124.373854 
L 201.092418 189.27922 
L 201.36302 147.975805 
L 201.904229 183.378732 
L 202.174834 242.38361 
L 202.45085 171.577756 
L 202.721453 242.38361 
L 202.992059 130.274341 
L 203.268073 212.881171 
L 203.538678 171.577756 
L 203.809282 230.582634 
L 204.079887 177.478244 
L 204.355902 260.085073 
L 204.631918 124.373854 
L 204.902523 248.284098 
L 205.173126 153.876293 
L 205.443731 206.980683 
L 205.719748 130.274341 
L 205.990351 230.582634 
L 206.266367 159.77678 
L 206.536971 242.38361 
L 206.807576 124.373854 
L 207.078178 289.587512 
L 207.348783 118.473366 
L 207.6248 260.085073 
L 207.895404 147.975805 
L 208.442023 224.682146 
L 208.712629 224.682146 
L 208.983231 177.478244 
L 209.253836 218.781659 
L 209.529853 165.677268 
L 209.800457 195.179707 
L 210.071061 171.577756 
L 210.341665 183.378732 
L 210.61227 159.77678 
L 210.882872 201.080195 
L 211.153477 189.27922 
L 211.429493 183.378732 
L 211.700098 265.985561 
L 211.976113 171.577756 
L 212.252129 260.085073 
L 212.522734 130.274341 
L 212.798751 212.881171 
L 213.074765 130.274341 
L 213.34537 212.881171 
L 213.615974 118.473366 
L 213.886578 224.682146 
L 214.157182 195.179707 
L 214.427787 236.483122 
L 214.703804 65.368976 
L 214.979818 230.582634 
L 215.255835 147.975805 
L 215.531851 153.876293 
L 215.802455 183.378732 
L 216.078471 195.179707 
L 216.349076 171.577756 
L 216.61968 171.577756 
L 216.890284 212.881171 
L 217.166299 177.478244 
L 217.436904 212.881171 
L 217.712921 171.577756 
L 217.988935 183.378732 
L 218.25954 130.274341 
L 218.535557 153.876293 
L 218.806161 159.77678 
L 219.082177 201.080195 
L 219.35278 153.876293 
L 219.899401 177.478244 
L 220.170005 224.682146 
L 220.44061 53.568 
L 220.716625 212.881171 
L 220.987229 142.075317 
L 221.257833 236.483122 
L 221.528438 100.771902 
L 221.799041 283.687024 
L 222.069646 147.975805 
L 222.34025 248.284098 
L 222.610854 136.174829 
L 222.881457 218.781659 
L 223.152062 100.771902 
L 223.428079 201.080195 
L 223.704094 159.77678 
L 223.974699 260.085073 
L 224.250715 142.075317 
L 225.067939 224.682146 
L 225.338544 183.378732 
L 225.614559 165.677268 
L 225.885163 183.378732 
L 226.155768 212.881171 
L 226.431784 212.881171 
L 226.702388 171.577756 
L 226.972991 183.378732 
L 227.243596 201.080195 
L 227.519612 206.980683 
L 227.795628 159.77678 
L 228.066233 218.781659 
L 228.336836 171.577756 
L 228.60744 206.980683 
L 228.878044 177.478244 
L 229.148649 230.582634 
L 229.419252 136.174829 
L 229.689857 248.284098 
L 229.960461 147.975805 
L 230.231066 248.284098 
L 230.507081 201.080195 
L 230.777685 201.080195 
L 231.324305 112.572878 
L 231.605733 136.174829 
L 231.876338 230.582634 
L 232.146942 153.876293 
L 232.417546 260.085073 
L 232.68815 142.075317 
L 232.958755 230.582634 
L 233.234772 189.27922 
L 233.510786 189.27922 
L 233.781391 183.378732 
L 234.051995 195.179707 
L 234.322599 183.378732 
L 234.863807 212.881171 
L 235.13441 201.080195 
L 235.405015 171.577756 
L 235.675619 183.378732 
L 235.946224 171.577756 
L 236.22224 177.478244 
L 236.492843 201.080195 
L 236.763449 189.27922 
L 237.039463 171.577756 
L 237.310068 171.577756 
L 237.586085 265.985561 
L 237.856689 177.478244 
L 238.132704 230.582634 
L 238.403308 183.378732 
L 238.673913 201.080195 
L 238.944516 195.179707 
L 239.215121 242.38361 
L 239.485724 165.677268 
L 239.75633 230.582634 
L 240.032345 183.378732 
L 240.308361 218.781659 
L 240.578966 118.473366 
L 240.849568 277.786537 
L 241.120173 165.677268 
L 241.390777 230.582634 
L 241.661382 201.080195 
L 241.937398 248.284098 
L 242.208002 112.572878 
L 242.478607 236.483122 
L 242.754621 130.274341 
L 243.025226 242.38361 
L 243.29583 177.478244 
L 243.566435 271.886049 
L 243.842451 130.274341 
L 244.118466 212.881171 
L 244.389071 165.677268 
L 244.659674 236.483122 
L 244.930279 165.677268 
L 245.200883 201.080195 
L 245.471488 153.876293 
L 246.018107 206.980683 
L 246.288712 189.27922 
L 246.559315 153.876293 
L 246.82992 153.876293 
L 247.100524 201.080195 
L 247.376541 159.77678 
L 247.652556 171.577756 
L 247.92316 159.77678 
L 248.193765 212.881171 
L 248.464368 171.577756 
L 249.005577 206.980683 
L 249.276182 236.483122 
L 249.552196 147.975805 
L 249.822801 177.478244 
L 250.093405 159.77678 
L 250.364009 206.980683 
L 250.640025 177.478244 
L 250.910629 189.27922 
L 251.181234 124.373854 
L 251.457249 230.582634 
L 251.733265 118.473366 
L 252.003871 230.582634 
L 252.274473 124.373854 
L 252.545078 230.582634 
L 252.815682 142.075317 
L 253.086287 201.080195 
L 253.362301 94.871415 
L 253.632906 260.085073 
L 253.90351 88.970927 
L 254.174114 248.284098 
L 254.450131 112.572878 
L 254.720735 265.985561 
L 254.99134 112.572878 
L 255.267354 242.38361 
L 255.537959 130.274341 
L 255.808563 265.985561 
L 256.079167 171.577756 
L 256.349771 277.786537 
L 256.620376 118.473366 
L 256.890978 224.682146 
L 257.432187 271.886049 
L 257.702792 147.975805 
L 257.978808 171.577756 
L 258.249412 177.478244 
L 258.520017 201.080195 
L 258.790619 195.179707 
L 259.061225 206.980683 
L 259.331828 159.77678 
L 259.602434 242.38361 
L 259.878448 153.876293 
L 260.419657 130.274341 
L 260.690261 142.075317 
L 260.960864 189.27922 
L 261.231469 177.478244 
L 261.502072 177.478244 
L 261.772677 201.080195 
L 262.043281 165.677268 
L 262.313886 171.577756 
L 262.589902 201.080195 
L 262.865917 165.677268 
L 263.136522 201.080195 
L 263.407126 165.677268 
L 263.683142 248.284098 
L 263.953747 171.577756 
L 264.500366 147.975805 
L 264.77097 206.980683 
L 265.041575 189.27922 
L 265.312179 242.38361 
L 265.588194 147.975805 
L 265.858799 183.378732 
L 266.134815 118.473366 
L 266.405419 201.080195 
L 266.676023 100.771902 
L 266.946628 218.781659 
L 267.217232 153.876293 
L 267.493247 271.886049 
L 267.763852 118.473366 
L 268.039868 206.980683 
L 268.310472 136.174829 
L 268.581075 224.682146 
L 268.85168 100.771902 
L 269.122284 242.38361 
L 269.3983 142.075317 
L 269.674317 195.179707 
L 269.94492 189.27922 
L 270.486128 159.77678 
L 271.027337 206.980683 
L 271.573958 230.582634 
L 271.849973 212.881171 
L 272.120577 206.980683 
L 272.391181 206.980683 
L 272.661786 177.478244 
L 272.93239 189.27922 
L 273.208405 195.179707 
L 273.484422 159.77678 
L 273.755026 206.980683 
L 274.02563 159.77678 
L 274.296234 224.682146 
L 274.566839 183.378732 
L 274.837443 165.677268 
L 275.113458 130.274341 
L 275.384063 212.881171 
L 275.654667 147.975805 
L 275.925271 230.582634 
L 276.201286 130.274341 
L 276.471891 212.881171 
L 276.742495 136.174829 
L 277.018511 254.184585 
L 277.289116 206.980683 
L 277.565131 230.582634 
L 277.835737 136.174829 
L 278.111752 201.080195 
L 278.382356 112.572878 
L 278.652961 271.886049 
L 278.923564 165.677268 
L 279.194169 218.781659 
L 279.470184 136.174829 
L 279.740789 171.577756 
L 280.016805 171.577756 
L 280.29282 201.080195 
L 280.563425 165.677268 
L 281.104633 177.478244 
L 281.375237 195.179707 
L 281.645842 195.179707 
L 281.921858 165.677268 
L 282.197873 218.781659 
L 282.468478 224.682146 
L 283.009686 171.577756 
L 283.285703 171.577756 
L 283.561718 118.473366 
L 283.832322 230.582634 
L 284.102926 130.274341 
L 284.373531 206.980683 
L 284.644134 153.876293 
L 284.914739 195.179707 
L 285.185342 118.473366 
L 285.455948 254.184585 
L 285.731963 112.572878 
L 286.007979 254.184585 
L 286.278584 165.677268 
L 286.554601 265.985561 
L 286.830615 142.075317 
L 287.10122 254.184585 
L 287.371824 118.473366 
L 287.642428 248.284098 
L 287.913031 124.373854 
L 288.183636 260.085073 
L 288.454239 106.67239 
L 288.724844 171.577756 
L 289.000861 201.080195 
L 289.276876 183.378732 
L 289.552892 177.478244 
L 289.828909 153.876293 
L 290.104926 183.378732 
L 290.375529 183.378732 
L 290.651545 195.179707 
L 290.922149 165.677268 
L 291.198166 212.881171 
L 291.468771 142.075317 
L 291.744785 218.781659 
L 292.01539 142.075317 
L 292.285994 260.085073 
L 292.562009 124.373854 
L 292.832614 236.483122 
L 293.103218 147.975805 
L 293.373823 230.582634 
L 293.649838 77.169951 
L 293.920443 236.483122 
L 294.191047 159.77678 
L 294.46165 212.881171 
L 294.732254 112.572878 
L 295.002859 189.27922 
L 295.273462 124.373854 
L 295.544067 254.184585 
L 295.814671 147.975805 
L 296.085276 236.483122 
L 296.361291 136.174829 
L 296.631895 201.080195 
L 296.9025 118.473366 
L 297.178515 189.27922 
L 297.44912 206.980683 
L 297.719724 212.881171 
L 297.990329 153.876293 
L 298.266344 218.781659 
L 298.536948 201.080195 
L 298.812965 136.174829 
L 299.083567 206.980683 
L 299.354173 189.27922 
L 299.624776 206.980683 
L 299.895381 165.677268 
L 300.171397 201.080195 
L 300.442001 159.77678 
L 300.712606 218.781659 
L 300.983208 171.577756 
L 301.253814 206.980683 
L 301.524417 171.577756 
L 301.795023 212.881171 
L 302.071037 159.77678 
L 302.341642 171.577756 
L 302.612246 142.075317 
L 302.88285 212.881171 
L 303.158866 195.179707 
L 303.42947 195.179707 
L 303.700075 147.975805 
L 303.97609 230.582634 
L 304.246695 130.274341 
L 304.517298 218.781659 
L 304.787902 118.473366 
L 305.058506 230.582634 
L 305.329111 118.473366 
L 305.599714 242.38361 
L 305.870319 142.075317 
L 306.146336 242.38361 
L 306.41694 112.572878 
L 306.687543 248.284098 
L 306.958147 136.174829 
L 307.234164 265.985561 
L 307.504767 171.577756 
L 307.775372 224.682146 
L 308.045975 94.871415 
L 308.316581 248.284098 
L 308.592596 153.876293 
L 309.139217 177.478244 
L 309.409821 195.179707 
L 309.685836 195.179707 
L 309.956441 189.27922 
L 310.227045 171.577756 
L 310.497649 195.179707 
L 310.773664 153.876293 
L 311.049681 153.876293 
L 311.320286 165.677268 
L 311.596301 189.27922 
L 311.866906 183.378732 
L 312.137509 142.075317 
L 312.408113 195.179707 
L 312.678717 142.075317 
L 312.949322 212.881171 
L 313.219926 183.378732 
L 313.495942 230.582634 
L 313.766547 153.876293 
L 314.037151 230.582634 
L 314.578358 142.075317 
L 314.854375 136.174829 
L 315.130392 254.184585 
L 315.406406 130.274341 
L 315.677011 254.184585 
L 315.953028 147.975805 
L 316.223632 224.682146 
L 316.499647 142.075317 
L 316.770251 195.179707 
L 317.040856 130.274341 
L 317.311459 242.38361 
L 317.582064 147.975805 
L 317.852668 195.179707 
L 318.123272 153.876293 
L 318.399288 236.483122 
L 318.675304 165.677268 
L 318.945909 212.881171 
L 319.216512 201.080195 
L 319.487117 195.179707 
L 319.75772 171.577756 
L 320.028324 212.881171 
L 320.304341 201.080195 
L 320.574945 195.179707 
L 320.84555 171.577756 
L 321.116153 159.77678 
L 321.386758 212.881171 
L 321.662773 183.378732 
L 321.933377 212.881171 
L 322.209394 118.473366 
L 322.479998 183.378732 
L 322.750603 189.27922 
L 323.021205 236.483122 
L 323.297222 147.975805 
L 323.573239 195.179707 
L 323.843843 106.67239 
L 324.119858 254.184585 
L 324.390462 106.67239 
L 324.661067 260.085073 
L 324.937083 153.876293 
L 325.213098 254.184585 
L 325.483703 136.174829 
L 325.754307 236.483122 
L 326.030323 218.781659 
L 326.30634 177.478244 
L 326.576943 183.378732 
L 326.847548 195.179707 
L 327.123564 183.378732 
L 327.39958 165.677268 
L 327.670185 177.478244 
L 327.946201 159.77678 
L 328.222216 230.582634 
L 328.492821 165.677268 
L 328.763425 218.781659 
L 329.03944 171.577756 
L 329.310045 230.582634 
L 329.580649 171.577756 
L 329.851254 201.080195 
L 330.127268 118.473366 
L 330.397874 195.179707 
L 330.668477 124.373854 
L 330.944493 248.284098 
L 331.215098 65.368976 
L 331.485702 224.682146 
L 331.756307 118.473366 
L 332.032321 212.881171 
L 332.302926 112.572878 
L 332.57353 242.38361 
L 332.849546 147.975805 
L 333.396166 195.179707 
L 333.942787 159.77678 
L 334.213391 177.478244 
L 334.76001 165.677268 
L 335.030615 183.378732 
L 335.306632 165.677268 
L 335.577236 206.980683 
L 335.853251 165.677268 
L 336.123855 206.980683 
L 336.39446 153.876293 
L 336.670477 236.483122 
L 336.946491 136.174829 
L 337.217096 248.284098 
L 337.493113 165.677268 
L 337.769127 248.284098 
L 338.039733 142.075317 
L 338.315749 212.881171 
L 338.591765 112.572878 
L 338.862369 201.080195 
L 339.132973 159.77678 
L 339.403578 201.080195 
L 339.67418 130.274341 
L 339.944785 212.881171 
L 340.215389 165.677268 
L 340.485994 189.27922 
L 341.038025 201.080195 
L 341.30863 189.27922 
L 341.579233 195.179707 
L 341.85525 212.881171 
L 342.125855 142.075317 
L 342.40187 236.483122 
L 342.672474 159.77678 
L 342.948491 195.179707 
L 343.219095 136.174829 
L 343.4897 230.582634 
L 343.765714 142.075317 
L 344.036319 206.980683 
L 344.306923 159.77678 
L 344.577527 248.284098 
L 344.853544 189.27922 
L 345.124148 236.483122 
L 345.394753 83.070439 
L 345.670767 242.38361 
L 345.941372 147.975805 
L 346.217389 248.284098 
L 346.487991 195.179707 
L 346.758597 206.980683 
L 347.034612 242.38361 
L 347.57582 136.174829 
L 347.846425 242.38361 
L 348.117029 189.27922 
L 348.387633 254.184585 
L 348.658236 130.274341 
L 348.928841 153.876293 
L 349.204858 124.373854 
L 349.480872 230.582634 
L 349.751478 218.781659 
L 350.027494 177.478244 
L 350.298097 189.27922 
L 350.568702 177.478244 
L 350.839306 189.27922 
L 351.109911 189.27922 
L 351.385925 230.582634 
L 351.65653 183.378732 
L 351.927134 236.483122 
L 352.197738 142.075317 
L 352.473755 212.881171 
L 352.74977 136.174829 
L 353.020375 195.179707 
L 353.290978 153.876293 
L 353.561583 153.876293 
L 353.832187 136.174829 
L 354.102791 183.378732 
L 354.378808 142.075317 
L 354.654823 206.980683 
L 354.925428 136.174829 
L 355.196031 248.284098 
L 355.466636 130.274341 
L 355.73724 218.781659 
L 356.007844 124.373854 
L 356.278447 248.284098 
L 356.549052 106.67239 
L 356.819656 206.980683 
L 357.095672 153.876293 
L 357.366277 224.682146 
L 357.912896 224.682146 
L 358.188913 165.677268 
L 358.459517 260.085073 
L 358.730122 159.77678 
L 359.000725 224.682146 
L 359.27133 136.174829 
L 359.541933 248.284098 
L 359.812537 177.478244 
L 360.083141 248.284098 
L 360.353746 136.174829 
L 360.629762 218.781659 
L 360.905777 171.577756 
L 361.176382 177.478244 
L 361.446986 189.27922 
L 361.71759 183.378732 
L 361.993606 195.179707 
L 362.264211 189.27922 
L 362.540228 248.284098 
L 362.816242 171.577756 
L 363.086847 206.980683 
L 363.362864 118.473366 
L 363.638879 254.184585 
L 363.909483 112.572878 
L 364.180087 218.781659 
L 364.450692 171.577756 
L 364.721294 218.781659 
L 364.9919 189.27922 
L 365.262503 260.085073 
L 365.533109 159.77678 
L 365.809124 236.483122 
L 366.079728 130.274341 
L 366.350333 236.483122 
L 366.620936 147.975805 
L 366.891541 260.085073 
L 367.162145 142.075317 
L 367.438161 254.184585 
L 367.714177 130.274341 
L 367.984781 242.38361 
L 368.255386 142.075317 
L 368.5314 206.980683 
L 368.802005 142.075317 
L 369.072609 165.677268 
L 369.343214 130.274341 
L 369.613817 236.483122 
L 369.884422 130.274341 
L 370.155026 159.77678 
L 370.431041 165.677268 
L 370.701646 195.179707 
L 370.977662 201.080195 
L 371.524282 171.577756 
L 371.794886 195.179707 
L 372.070903 195.179707 
L 372.341506 142.075317 
L 372.612111 195.179707 
L 372.882714 165.677268 
L 373.15332 201.080195 
L 373.429335 159.77678 
L 373.699939 189.27922 
L 373.970544 171.577756 
L 374.241147 201.080195 
L 374.511752 124.373854 
L 374.787767 171.577756 
L 375.058372 142.075317 
L 375.334388 206.980683 
L 375.610403 136.174829 
L 375.881008 230.582634 
L 376.151611 100.771902 
L 376.422216 236.483122 
L 376.698233 159.77678 
L 376.968837 224.682146 
L 377.244852 124.373854 
L 377.515456 212.881171 
L 377.786061 130.274341 
L 378.062078 195.179707 
L 378.338092 183.378732 
L 378.608697 177.478244 
L 378.879301 195.179707 
L 379.149905 171.577756 
L 379.420509 236.483122 
L 379.691114 212.881171 
L 379.967131 171.577756 
L 380.243145 165.677268 
L 380.51375 295.488 
L 380.789767 142.075317 
L 381.065781 201.080195 
L 381.336386 165.677268 
L 381.612403 230.582634 
L 381.883007 177.478244 
L 382.159022 254.184585 
L 382.429626 136.174829 
L 382.700231 224.682146 
L 382.970834 136.174829 
L 383.241439 206.980683 
L 383.517456 118.473366 
L 383.78806 248.284098 
L 384.058663 165.677268 
L 384.329267 230.582634 
L 384.599872 94.871415 
L 384.870475 248.284098 
L 385.146492 153.876293 
L 385.417096 265.985561 
L 385.687701 100.771902 
L 385.963716 230.582634 
L 386.23432 195.179707 
L 386.504925 248.284098 
L 386.780939 206.980683 
L 387.051545 242.38361 
L 387.327561 177.478244 
L 387.598165 159.77678 
L 387.874181 195.179707 
L 388.144785 189.27922 
L 388.41539 165.677268 
L 388.685992 212.881171 
L 388.956597 189.27922 
L 389.232614 136.174829 
L 389.503218 201.080195 
L 389.779233 130.274341 
L 390.049837 195.179707 
L 390.320442 124.373854 
L 390.596459 189.27922 
L 390.872473 189.27922 
L 391.143079 218.781659 
L 391.413682 177.478244 
L 391.684286 254.184585 
L 391.95489 201.080195 
L 392.225495 230.582634 
L 392.496099 147.975805 
L 392.772114 189.27922 
L 393.04272 124.373854 
L 393.313323 183.378732 
L 393.583927 112.572878 
L 393.854531 242.38361 
L 394.125136 153.876293 
L 394.401152 236.483122 
L 394.677167 147.975805 
L 394.953184 230.582634 
L 395.223788 177.478244 
L 395.494392 206.980683 
L 395.764996 118.473366 
L 396.035601 230.582634 
L 396.311617 147.975805 
L 396.858237 189.27922 
L 397.128841 171.577756 
L 397.399444 195.179707 
L 397.670048 106.67239 
L 398.211257 189.27922 
L 398.487273 171.577756 
L 398.487273 171.577756 
" style="fill:none;stroke:#1f77b4;stroke-linecap:square;stroke-width:1.5;"/>
   </g>
   <g id="patch_3">
    <path d="M 57.6 307.584 
L 57.6 41.472 
" style="fill:none;stroke:#000000;stroke-linecap:square;stroke-linejoin:miter;stroke-width:0.8;"/>
   </g>
   <g id="patch_4">
    <path d="M 414.72 307.584 
L 414.72 41.472 
" style="fill:none;stroke:#000000;stroke-linecap:square;stroke-linejoin:miter;stroke-width:0.8;"/>
   </g>
   <g id="patch_5">
    <path d="M 57.6 307.584 
L 414.72 307.584 
" style="fill:none;stroke:#000000;stroke-linecap:square;stroke-linejoin:miter;stroke-width:0.8;"/>
   </g>
   <g id="patch_6">
    <path d="M 57.6 41.472 
L 414.72 41.472 
" style="fill:none;stroke:#000000;stroke-linecap:square;stroke-linejoin:miter;stroke-width:0.8;"/>
   </g>
   <g id="text_16">
    <!-- Current -->
    <g transform="translate(213.390938 35.472)scale(0.12 -0.12)">
     <use xlink:href="#DejaVuSans-43"/>
     <use x="69.824219" xlink:href="#DejaVuSans-75"/>
     <use x="133.203125" xlink:href="#DejaVuSans-72"/>
     <use x="174.300781" xlink:href="#DejaVuSans-72"/>
     <use x="215.382812" xlink:href="#DejaVuSans-65"/>
     <use x="276.90625" xlink:href="#DejaVuSans-6e"/>
     <use x="340.285156" xlink:href="#DejaVuSans-74"/>
    </g>
   </g>
  </g>
 </g>
 <defs>
  <clipPath id="p253daff3a7">
   <rect height="266.112" width="357.12" x="57.6" y="41.472"/>
  </clipPath>
 </defs>
</svg>
