<?xml version="1.0" encoding="utf-8" standalone="no"?>
<!DOCTYPE svg PUBLIC "-//W3C//DTD SVG 1.1//EN"
  "http://www.w3.org/Graphics/SVG/1.1/DTD/svg11.dtd">
<!-- Created with matplotlib (http://matplotlib.org/) -->
<svg height="345pt" version="1.1" viewBox="0 0 460 345" width="460pt" xmlns="http://www.w3.org/2000/svg" xmlns:xlink="http://www.w3.org/1999/xlink">
 <defs>
  <style type="text/css">
*{stroke-linecap:butt;stroke-linejoin:round;}
  </style>
 </defs>
 <g id="figure_1">
  <g id="patch_1">
   <path d="M 0 345.6 
L 460.8 345.6 
L 460.8 0 
L 0 0 
z
" style="fill:#ffffff;"/>
  </g>
  <g id="axes_1">
   <g id="patch_2">
    <path d="M 57.6 307.584 
L 414.72 307.584 
L 414.72 41.472 
L 57.6 41.472 
z
" style="fill:#ffffff;"/>
   </g>
   <g id="matplotlib.axis_1">
    <g id="xtick_1">
     <g id="line2d_1">
      <defs>
       <path d="M 0 0 
L 0 3.5 
" id="m2e29ac4b45" style="stroke:#000000;stroke-width:0.8;"/>
      </defs>
      <g>
       <use style="stroke:#000000;stroke-width:0.8;" x="73.832684" xlink:href="#m2e29ac4b45" y="307.584"/>
      </g>
     </g>
     <g id="text_1">
      <!-- 0 -->
      <defs>
       <path d="M 31.78125 66.40625 
Q 24.171875 66.40625 20.328125 58.90625 
Q 16.5 51.421875 16.5 36.375 
Q 16.5 21.390625 20.328125 13.890625 
Q 24.171875 6.390625 31.78125 6.390625 
Q 39.453125 6.390625 43.28125 13.890625 
Q 47.125 21.390625 47.125 36.375 
Q 47.125 51.421875 43.28125 58.90625 
Q 39.453125 66.40625 31.78125 66.40625 
z
M 31.78125 74.21875 
Q 44.046875 74.21875 50.515625 64.515625 
Q 56.984375 54.828125 56.984375 36.375 
Q 56.984375 17.96875 50.515625 8.265625 
Q 44.046875 -1.421875 31.78125 -1.421875 
Q 19.53125 -1.421875 13.0625 8.265625 
Q 6.59375 17.96875 6.59375 36.375 
Q 6.59375 54.828125 13.0625 64.515625 
Q 19.53125 74.21875 31.78125 74.21875 
z
" id="DejaVuSans-30"/>
      </defs>
      <g transform="translate(70.651434 322.182437)scale(0.1 -0.1)">
       <use xlink:href="#DejaVuSans-30"/>
      </g>
     </g>
    </g>
    <g id="xtick_2">
     <g id="line2d_2">
      <g>
       <use style="stroke:#000000;stroke-width:0.8;" x="117.124504" xlink:href="#m2e29ac4b45" y="307.584"/>
      </g>
     </g>
     <g id="text_2">
      <!-- 1000 -->
      <defs>
       <path d="M 12.40625 8.296875 
L 28.515625 8.296875 
L 28.515625 63.921875 
L 10.984375 60.40625 
L 10.984375 69.390625 
L 28.421875 72.90625 
L 38.28125 72.90625 
L 38.28125 8.296875 
L 54.390625 8.296875 
L 54.390625 0 
L 12.40625 0 
z
" id="DejaVuSans-31"/>
      </defs>
      <g transform="translate(104.399504 322.182437)scale(0.1 -0.1)">
       <use xlink:href="#DejaVuSans-31"/>
       <use x="63.623047" xlink:href="#DejaVuSans-30"/>
       <use x="127.246094" xlink:href="#DejaVuSans-30"/>
       <use x="190.869141" xlink:href="#DejaVuSans-30"/>
      </g>
     </g>
    </g>
    <g id="xtick_3">
     <g id="line2d_3">
      <g>
       <use style="stroke:#000000;stroke-width:0.8;" x="160.416324" xlink:href="#m2e29ac4b45" y="307.584"/>
      </g>
     </g>
     <g id="text_3">
      <!-- 2000 -->
      <defs>
       <path d="M 19.1875 8.296875 
L 53.609375 8.296875 
L 53.609375 0 
L 7.328125 0 
L 7.328125 8.296875 
Q 12.9375 14.109375 22.625 23.890625 
Q 32.328125 33.6875 34.8125 36.53125 
Q 39.546875 41.84375 41.421875 45.53125 
Q 43.3125 49.21875 43.3125 52.78125 
Q 43.3125 58.59375 39.234375 62.25 
Q 35.15625 65.921875 28.609375 65.921875 
Q 23.96875 65.921875 18.8125 64.3125 
Q 13.671875 62.703125 7.8125 59.421875 
L 7.8125 69.390625 
Q 13.765625 71.78125 18.9375 73 
Q 24.125 74.21875 28.421875 74.21875 
Q 39.75 74.21875 46.484375 68.546875 
Q 53.21875 62.890625 53.21875 53.421875 
Q 53.21875 48.921875 51.53125 44.890625 
Q 49.859375 40.875 45.40625 35.40625 
Q 44.1875 33.984375 37.640625 27.21875 
Q 31.109375 20.453125 19.1875 8.296875 
z
" id="DejaVuSans-32"/>
      </defs>
      <g transform="translate(147.691324 322.182437)scale(0.1 -0.1)">
       <use xlink:href="#DejaVuSans-32"/>
       <use x="63.623047" xlink:href="#DejaVuSans-30"/>
       <use x="127.246094" xlink:href="#DejaVuSans-30"/>
       <use x="190.869141" xlink:href="#DejaVuSans-30"/>
      </g>
     </g>
    </g>
    <g id="xtick_4">
     <g id="line2d_4">
      <g>
       <use style="stroke:#000000;stroke-width:0.8;" x="203.708144" xlink:href="#m2e29ac4b45" y="307.584"/>
      </g>
     </g>
     <g id="text_4">
      <!-- 3000 -->
      <defs>
       <path d="M 40.578125 39.3125 
Q 47.65625 37.796875 51.625 33 
Q 55.609375 28.21875 55.609375 21.1875 
Q 55.609375 10.40625 48.1875 4.484375 
Q 40.765625 -1.421875 27.09375 -1.421875 
Q 22.515625 -1.421875 17.65625 -0.515625 
Q 12.796875 0.390625 7.625 2.203125 
L 7.625 11.71875 
Q 11.71875 9.328125 16.59375 8.109375 
Q 21.484375 6.890625 26.8125 6.890625 
Q 36.078125 6.890625 40.9375 10.546875 
Q 45.796875 14.203125 45.796875 21.1875 
Q 45.796875 27.640625 41.28125 31.265625 
Q 36.765625 34.90625 28.71875 34.90625 
L 20.21875 34.90625 
L 20.21875 43.015625 
L 29.109375 43.015625 
Q 36.375 43.015625 40.234375 45.921875 
Q 44.09375 48.828125 44.09375 54.296875 
Q 44.09375 59.90625 40.109375 62.90625 
Q 36.140625 65.921875 28.71875 65.921875 
Q 24.65625 65.921875 20.015625 65.03125 
Q 15.375 64.15625 9.8125 62.3125 
L 9.8125 71.09375 
Q 15.4375 72.65625 20.34375 73.4375 
Q 25.25 74.21875 29.59375 74.21875 
Q 40.828125 74.21875 47.359375 69.109375 
Q 53.90625 64.015625 53.90625 55.328125 
Q 53.90625 49.265625 50.4375 45.09375 
Q 46.96875 40.921875 40.578125 39.3125 
z
" id="DejaVuSans-33"/>
      </defs>
      <g transform="translate(190.983144 322.182437)scale(0.1 -0.1)">
       <use xlink:href="#DejaVuSans-33"/>
       <use x="63.623047" xlink:href="#DejaVuSans-30"/>
       <use x="127.246094" xlink:href="#DejaVuSans-30"/>
       <use x="190.869141" xlink:href="#DejaVuSans-30"/>
      </g>
     </g>
    </g>
    <g id="xtick_5">
     <g id="line2d_5">
      <g>
       <use style="stroke:#000000;stroke-width:0.8;" x="246.999965" xlink:href="#m2e29ac4b45" y="307.584"/>
      </g>
     </g>
     <g id="text_5">
      <!-- 4000 -->
      <defs>
       <path d="M 37.796875 64.3125 
L 12.890625 25.390625 
L 37.796875 25.390625 
z
M 35.203125 72.90625 
L 47.609375 72.90625 
L 47.609375 25.390625 
L 58.015625 25.390625 
L 58.015625 17.1875 
L 47.609375 17.1875 
L 47.609375 0 
L 37.796875 0 
L 37.796875 17.1875 
L 4.890625 17.1875 
L 4.890625 26.703125 
z
" id="DejaVuSans-34"/>
      </defs>
      <g transform="translate(234.274965 322.182437)scale(0.1 -0.1)">
       <use xlink:href="#DejaVuSans-34"/>
       <use x="63.623047" xlink:href="#DejaVuSans-30"/>
       <use x="127.246094" xlink:href="#DejaVuSans-30"/>
       <use x="190.869141" xlink:href="#DejaVuSans-30"/>
      </g>
     </g>
    </g>
    <g id="xtick_6">
     <g id="line2d_6">
      <g>
       <use style="stroke:#000000;stroke-width:0.8;" x="290.291785" xlink:href="#m2e29ac4b45" y="307.584"/>
      </g>
     </g>
     <g id="text_6">
      <!-- 5000 -->
      <defs>
       <path d="M 10.796875 72.90625 
L 49.515625 72.90625 
L 49.515625 64.59375 
L 19.828125 64.59375 
L 19.828125 46.734375 
Q 21.96875 47.46875 24.109375 47.828125 
Q 26.265625 48.1875 28.421875 48.1875 
Q 40.625 48.1875 47.75 41.5 
Q 54.890625 34.8125 54.890625 23.390625 
Q 54.890625 11.625 47.5625 5.09375 
Q 40.234375 -1.421875 26.90625 -1.421875 
Q 22.3125 -1.421875 17.546875 -0.640625 
Q 12.796875 0.140625 7.71875 1.703125 
L 7.71875 11.625 
Q 12.109375 9.234375 16.796875 8.0625 
Q 21.484375 6.890625 26.703125 6.890625 
Q 35.15625 6.890625 40.078125 11.328125 
Q 45.015625 15.765625 45.015625 23.390625 
Q 45.015625 31 40.078125 35.4375 
Q 35.15625 39.890625 26.703125 39.890625 
Q 22.75 39.890625 18.8125 39.015625 
Q 14.890625 38.140625 10.796875 36.28125 
z
" id="DejaVuSans-35"/>
      </defs>
      <g transform="translate(277.566785 322.182437)scale(0.1 -0.1)">
       <use xlink:href="#DejaVuSans-35"/>
       <use x="63.623047" xlink:href="#DejaVuSans-30"/>
       <use x="127.246094" xlink:href="#DejaVuSans-30"/>
       <use x="190.869141" xlink:href="#DejaVuSans-30"/>
      </g>
     </g>
    </g>
    <g id="xtick_7">
     <g id="line2d_7">
      <g>
       <use style="stroke:#000000;stroke-width:0.8;" x="333.583605" xlink:href="#m2e29ac4b45" y="307.584"/>
      </g>
     </g>
     <g id="text_7">
      <!-- 6000 -->
      <defs>
       <path d="M 33.015625 40.375 
Q 26.375 40.375 22.484375 35.828125 
Q 18.609375 31.296875 18.609375 23.390625 
Q 18.609375 15.53125 22.484375 10.953125 
Q 26.375 6.390625 33.015625 6.390625 
Q 39.65625 6.390625 43.53125 10.953125 
Q 47.40625 15.53125 47.40625 23.390625 
Q 47.40625 31.296875 43.53125 35.828125 
Q 39.65625 40.375 33.015625 40.375 
z
M 52.59375 71.296875 
L 52.59375 62.3125 
Q 48.875 64.0625 45.09375 64.984375 
Q 41.3125 65.921875 37.59375 65.921875 
Q 27.828125 65.921875 22.671875 59.328125 
Q 17.53125 52.734375 16.796875 39.40625 
Q 19.671875 43.65625 24.015625 45.921875 
Q 28.375 48.1875 33.59375 48.1875 
Q 44.578125 48.1875 50.953125 41.515625 
Q 57.328125 34.859375 57.328125 23.390625 
Q 57.328125 12.15625 50.6875 5.359375 
Q 44.046875 -1.421875 33.015625 -1.421875 
Q 20.359375 -1.421875 13.671875 8.265625 
Q 6.984375 17.96875 6.984375 36.375 
Q 6.984375 53.65625 15.1875 63.9375 
Q 23.390625 74.21875 37.203125 74.21875 
Q 40.921875 74.21875 44.703125 73.484375 
Q 48.484375 72.75 52.59375 71.296875 
z
" id="DejaVuSans-36"/>
      </defs>
      <g transform="translate(320.858605 322.182437)scale(0.1 -0.1)">
       <use xlink:href="#DejaVuSans-36"/>
       <use x="63.623047" xlink:href="#DejaVuSans-30"/>
       <use x="127.246094" xlink:href="#DejaVuSans-30"/>
       <use x="190.869141" xlink:href="#DejaVuSans-30"/>
      </g>
     </g>
    </g>
    <g id="xtick_8">
     <g id="line2d_8">
      <g>
       <use style="stroke:#000000;stroke-width:0.8;" x="376.875425" xlink:href="#m2e29ac4b45" y="307.584"/>
      </g>
     </g>
     <g id="text_8">
      <!-- 7000 -->
      <defs>
       <path d="M 8.203125 72.90625 
L 55.078125 72.90625 
L 55.078125 68.703125 
L 28.609375 0 
L 18.3125 0 
L 43.21875 64.59375 
L 8.203125 64.59375 
z
" id="DejaVuSans-37"/>
      </defs>
      <g transform="translate(364.150425 322.182437)scale(0.1 -0.1)">
       <use xlink:href="#DejaVuSans-37"/>
       <use x="63.623047" xlink:href="#DejaVuSans-30"/>
       <use x="127.246094" xlink:href="#DejaVuSans-30"/>
       <use x="190.869141" xlink:href="#DejaVuSans-30"/>
      </g>
     </g>
    </g>
    <g id="text_9">
     <!-- t(s) -->
     <defs>
      <path d="M 18.3125 70.21875 
L 18.3125 54.6875 
L 36.8125 54.6875 
L 36.8125 47.703125 
L 18.3125 47.703125 
L 18.3125 18.015625 
Q 18.3125 11.328125 20.140625 9.421875 
Q 21.96875 7.515625 27.59375 7.515625 
L 36.8125 7.515625 
L 36.8125 0 
L 27.59375 0 
Q 17.1875 0 13.234375 3.875 
Q 9.28125 7.765625 9.28125 18.015625 
L 9.28125 47.703125 
L 2.6875 47.703125 
L 2.6875 54.6875 
L 9.28125 54.6875 
L 9.28125 70.21875 
z
" id="DejaVuSans-74"/>
      <path d="M 31 75.875 
Q 24.46875 64.65625 21.28125 53.65625 
Q 18.109375 42.671875 18.109375 31.390625 
Q 18.109375 20.125 21.3125 9.0625 
Q 24.515625 -2 31 -13.1875 
L 23.1875 -13.1875 
Q 15.875 -1.703125 12.234375 9.375 
Q 8.59375 20.453125 8.59375 31.390625 
Q 8.59375 42.28125 12.203125 53.3125 
Q 15.828125 64.359375 23.1875 75.875 
z
" id="DejaVuSans-28"/>
      <path d="M 44.28125 53.078125 
L 44.28125 44.578125 
Q 40.484375 46.53125 36.375 47.5 
Q 32.28125 48.484375 27.875 48.484375 
Q 21.1875 48.484375 17.84375 46.4375 
Q 14.5 44.390625 14.5 40.28125 
Q 14.5 37.15625 16.890625 35.375 
Q 19.28125 33.59375 26.515625 31.984375 
L 29.59375 31.296875 
Q 39.15625 29.25 43.1875 25.515625 
Q 47.21875 21.78125 47.21875 15.09375 
Q 47.21875 7.46875 41.1875 3.015625 
Q 35.15625 -1.421875 24.609375 -1.421875 
Q 20.21875 -1.421875 15.453125 -0.5625 
Q 10.6875 0.296875 5.421875 2 
L 5.421875 11.28125 
Q 10.40625 8.6875 15.234375 7.390625 
Q 20.0625 6.109375 24.8125 6.109375 
Q 31.15625 6.109375 34.5625 8.28125 
Q 37.984375 10.453125 37.984375 14.40625 
Q 37.984375 18.0625 35.515625 20.015625 
Q 33.0625 21.96875 24.703125 23.78125 
L 21.578125 24.515625 
Q 13.234375 26.265625 9.515625 29.90625 
Q 5.8125 33.546875 5.8125 39.890625 
Q 5.8125 47.609375 11.28125 51.796875 
Q 16.75 56 26.8125 56 
Q 31.78125 56 36.171875 55.265625 
Q 40.578125 54.546875 44.28125 53.078125 
z
" id="DejaVuSans-73"/>
      <path d="M 8.015625 75.875 
L 15.828125 75.875 
Q 23.140625 64.359375 26.78125 53.3125 
Q 30.421875 42.28125 30.421875 31.390625 
Q 30.421875 20.453125 26.78125 9.375 
Q 23.140625 -1.703125 15.828125 -13.1875 
L 8.015625 -13.1875 
Q 14.5 -2 17.703125 9.0625 
Q 20.90625 20.125 20.90625 31.390625 
Q 20.90625 42.671875 17.703125 53.65625 
Q 14.5 64.65625 8.015625 75.875 
z
" id="DejaVuSans-29"/>
     </defs>
     <g transform="translate(227.693594 335.860562)scale(0.1 -0.1)">
      <use xlink:href="#DejaVuSans-74"/>
      <use x="39.208984" xlink:href="#DejaVuSans-28"/>
      <use x="78.222656" xlink:href="#DejaVuSans-73"/>
      <use x="130.322266" xlink:href="#DejaVuSans-29"/>
     </g>
    </g>
   </g>
   <g id="matplotlib.axis_2">
    <g id="ytick_1">
     <g id="line2d_9">
      <defs>
       <path d="M 0 0 
L -3.5 0 
" id="m31c07ae4ac" style="stroke:#000000;stroke-width:0.8;"/>
      </defs>
      <g>
       <use style="stroke:#000000;stroke-width:0.8;" x="57.6" xlink:href="#m31c07ae4ac" y="295.556121"/>
      </g>
     </g>
     <g id="text_10">
      <!-- 0.08 -->
      <defs>
       <path d="M 10.6875 12.40625 
L 21 12.40625 
L 21 0 
L 10.6875 0 
z
" id="DejaVuSans-2e"/>
       <path d="M 31.78125 34.625 
Q 24.75 34.625 20.71875 30.859375 
Q 16.703125 27.09375 16.703125 20.515625 
Q 16.703125 13.921875 20.71875 10.15625 
Q 24.75 6.390625 31.78125 6.390625 
Q 38.8125 6.390625 42.859375 10.171875 
Q 46.921875 13.96875 46.921875 20.515625 
Q 46.921875 27.09375 42.890625 30.859375 
Q 38.875 34.625 31.78125 34.625 
z
M 21.921875 38.8125 
Q 15.578125 40.375 12.03125 44.71875 
Q 8.5 49.078125 8.5 55.328125 
Q 8.5 64.0625 14.71875 69.140625 
Q 20.953125 74.21875 31.78125 74.21875 
Q 42.671875 74.21875 48.875 69.140625 
Q 55.078125 64.0625 55.078125 55.328125 
Q 55.078125 49.078125 51.53125 44.71875 
Q 48 40.375 41.703125 38.8125 
Q 48.828125 37.15625 52.796875 32.3125 
Q 56.78125 27.484375 56.78125 20.515625 
Q 56.78125 9.90625 50.3125 4.234375 
Q 43.84375 -1.421875 31.78125 -1.421875 
Q 19.734375 -1.421875 13.25 4.234375 
Q 6.78125 9.90625 6.78125 20.515625 
Q 6.78125 27.484375 10.78125 32.3125 
Q 14.796875 37.15625 21.921875 38.8125 
z
M 18.3125 54.390625 
Q 18.3125 48.734375 21.84375 45.5625 
Q 25.390625 42.390625 31.78125 42.390625 
Q 38.140625 42.390625 41.71875 45.5625 
Q 45.3125 48.734375 45.3125 54.390625 
Q 45.3125 60.0625 41.71875 63.234375 
Q 38.140625 66.40625 31.78125 66.40625 
Q 25.390625 66.40625 21.84375 63.234375 
Q 18.3125 60.0625 18.3125 54.390625 
z
" id="DejaVuSans-38"/>
      </defs>
      <g transform="translate(28.334375 299.355339)scale(0.1 -0.1)">
       <use xlink:href="#DejaVuSans-30"/>
       <use x="63.623047" xlink:href="#DejaVuSans-2e"/>
       <use x="95.410156" xlink:href="#DejaVuSans-30"/>
       <use x="159.033203" xlink:href="#DejaVuSans-38"/>
      </g>
     </g>
    </g>
    <g id="ytick_2">
     <g id="line2d_10">
      <g>
       <use style="stroke:#000000;stroke-width:0.8;" x="57.6" xlink:href="#m31c07ae4ac" y="255.485228"/>
      </g>
     </g>
     <g id="text_11">
      <!-- 0.10 -->
      <g transform="translate(28.334375 259.284447)scale(0.1 -0.1)">
       <use xlink:href="#DejaVuSans-30"/>
       <use x="63.623047" xlink:href="#DejaVuSans-2e"/>
       <use x="95.410156" xlink:href="#DejaVuSans-31"/>
       <use x="159.033203" xlink:href="#DejaVuSans-30"/>
      </g>
     </g>
    </g>
    <g id="ytick_3">
     <g id="line2d_11">
      <g>
       <use style="stroke:#000000;stroke-width:0.8;" x="57.6" xlink:href="#m31c07ae4ac" y="215.414335"/>
      </g>
     </g>
     <g id="text_12">
      <!-- 0.12 -->
      <g transform="translate(28.334375 219.213554)scale(0.1 -0.1)">
       <use xlink:href="#DejaVuSans-30"/>
       <use x="63.623047" xlink:href="#DejaVuSans-2e"/>
       <use x="95.410156" xlink:href="#DejaVuSans-31"/>
       <use x="159.033203" xlink:href="#DejaVuSans-32"/>
      </g>
     </g>
    </g>
    <g id="ytick_4">
     <g id="line2d_12">
      <g>
       <use style="stroke:#000000;stroke-width:0.8;" x="57.6" xlink:href="#m31c07ae4ac" y="175.343443"/>
      </g>
     </g>
     <g id="text_13">
      <!-- 0.14 -->
      <g transform="translate(28.334375 179.142661)scale(0.1 -0.1)">
       <use xlink:href="#DejaVuSans-30"/>
       <use x="63.623047" xlink:href="#DejaVuSans-2e"/>
       <use x="95.410156" xlink:href="#DejaVuSans-31"/>
       <use x="159.033203" xlink:href="#DejaVuSans-34"/>
      </g>
     </g>
    </g>
    <g id="ytick_5">
     <g id="line2d_13">
      <g>
       <use style="stroke:#000000;stroke-width:0.8;" x="57.6" xlink:href="#m31c07ae4ac" y="135.27255"/>
      </g>
     </g>
     <g id="text_14">
      <!-- 0.16 -->
      <g transform="translate(28.334375 139.071769)scale(0.1 -0.1)">
       <use xlink:href="#DejaVuSans-30"/>
       <use x="63.623047" xlink:href="#DejaVuSans-2e"/>
       <use x="95.410156" xlink:href="#DejaVuSans-31"/>
       <use x="159.033203" xlink:href="#DejaVuSans-36"/>
      </g>
     </g>
    </g>
    <g id="ytick_6">
     <g id="line2d_14">
      <g>
       <use style="stroke:#000000;stroke-width:0.8;" x="57.6" xlink:href="#m31c07ae4ac" y="95.201657"/>
      </g>
     </g>
     <g id="text_15">
      <!-- 0.18 -->
      <g transform="translate(28.334375 99.000876)scale(0.1 -0.1)">
       <use xlink:href="#DejaVuSans-30"/>
       <use x="63.623047" xlink:href="#DejaVuSans-2e"/>
       <use x="95.410156" xlink:href="#DejaVuSans-31"/>
       <use x="159.033203" xlink:href="#DejaVuSans-38"/>
      </g>
     </g>
    </g>
    <g id="ytick_7">
     <g id="line2d_15">
      <g>
       <use style="stroke:#000000;stroke-width:0.8;" x="57.6" xlink:href="#m31c07ae4ac" y="55.130765"/>
      </g>
     </g>
     <g id="text_16">
      <!-- 0.20 -->
      <g transform="translate(28.334375 58.929984)scale(0.1 -0.1)">
       <use xlink:href="#DejaVuSans-30"/>
       <use x="63.623047" xlink:href="#DejaVuSans-2e"/>
       <use x="95.410156" xlink:href="#DejaVuSans-32"/>
       <use x="159.033203" xlink:href="#DejaVuSans-30"/>
      </g>
     </g>
    </g>
    <g id="text_17">
     <!-- Pressure (bar) -->
     <defs>
      <path d="M 19.671875 64.796875 
L 19.671875 37.40625 
L 32.078125 37.40625 
Q 38.96875 37.40625 42.71875 40.96875 
Q 46.484375 44.53125 46.484375 51.125 
Q 46.484375 57.671875 42.71875 61.234375 
Q 38.96875 64.796875 32.078125 64.796875 
z
M 9.8125 72.90625 
L 32.078125 72.90625 
Q 44.34375 72.90625 50.609375 67.359375 
Q 56.890625 61.8125 56.890625 51.125 
Q 56.890625 40.328125 50.609375 34.8125 
Q 44.34375 29.296875 32.078125 29.296875 
L 19.671875 29.296875 
L 19.671875 0 
L 9.8125 0 
z
" id="DejaVuSans-50"/>
      <path d="M 41.109375 46.296875 
Q 39.59375 47.171875 37.8125 47.578125 
Q 36.03125 48 33.890625 48 
Q 26.265625 48 22.1875 43.046875 
Q 18.109375 38.09375 18.109375 28.8125 
L 18.109375 0 
L 9.078125 0 
L 9.078125 54.6875 
L 18.109375 54.6875 
L 18.109375 46.1875 
Q 20.953125 51.171875 25.484375 53.578125 
Q 30.03125 56 36.53125 56 
Q 37.453125 56 38.578125 55.875 
Q 39.703125 55.765625 41.0625 55.515625 
z
" id="DejaVuSans-72"/>
      <path d="M 56.203125 29.59375 
L 56.203125 25.203125 
L 14.890625 25.203125 
Q 15.484375 15.921875 20.484375 11.0625 
Q 25.484375 6.203125 34.421875 6.203125 
Q 39.59375 6.203125 44.453125 7.46875 
Q 49.3125 8.734375 54.109375 11.28125 
L 54.109375 2.78125 
Q 49.265625 0.734375 44.1875 -0.34375 
Q 39.109375 -1.421875 33.890625 -1.421875 
Q 20.796875 -1.421875 13.15625 6.1875 
Q 5.515625 13.8125 5.515625 26.8125 
Q 5.515625 40.234375 12.765625 48.109375 
Q 20.015625 56 32.328125 56 
Q 43.359375 56 49.78125 48.890625 
Q 56.203125 41.796875 56.203125 29.59375 
z
M 47.21875 32.234375 
Q 47.125 39.59375 43.09375 43.984375 
Q 39.0625 48.390625 32.421875 48.390625 
Q 24.90625 48.390625 20.390625 44.140625 
Q 15.875 39.890625 15.1875 32.171875 
z
" id="DejaVuSans-65"/>
      <path d="M 8.5 21.578125 
L 8.5 54.6875 
L 17.484375 54.6875 
L 17.484375 21.921875 
Q 17.484375 14.15625 20.5 10.265625 
Q 23.53125 6.390625 29.59375 6.390625 
Q 36.859375 6.390625 41.078125 11.03125 
Q 45.3125 15.671875 45.3125 23.6875 
L 45.3125 54.6875 
L 54.296875 54.6875 
L 54.296875 0 
L 45.3125 0 
L 45.3125 8.40625 
Q 42.046875 3.421875 37.71875 1 
Q 33.40625 -1.421875 27.6875 -1.421875 
Q 18.265625 -1.421875 13.375 4.4375 
Q 8.5 10.296875 8.5 21.578125 
z
M 31.109375 56 
z
" id="DejaVuSans-75"/>
      <path id="DejaVuSans-20"/>
      <path d="M 48.6875 27.296875 
Q 48.6875 37.203125 44.609375 42.84375 
Q 40.53125 48.484375 33.40625 48.484375 
Q 26.265625 48.484375 22.1875 42.84375 
Q 18.109375 37.203125 18.109375 27.296875 
Q 18.109375 17.390625 22.1875 11.75 
Q 26.265625 6.109375 33.40625 6.109375 
Q 40.53125 6.109375 44.609375 11.75 
Q 48.6875 17.390625 48.6875 27.296875 
z
M 18.109375 46.390625 
Q 20.953125 51.265625 25.265625 53.625 
Q 29.59375 56 35.59375 56 
Q 45.5625 56 51.78125 48.09375 
Q 58.015625 40.1875 58.015625 27.296875 
Q 58.015625 14.40625 51.78125 6.484375 
Q 45.5625 -1.421875 35.59375 -1.421875 
Q 29.59375 -1.421875 25.265625 0.953125 
Q 20.953125 3.328125 18.109375 8.203125 
L 18.109375 0 
L 9.078125 0 
L 9.078125 75.984375 
L 18.109375 75.984375 
z
" id="DejaVuSans-62"/>
      <path d="M 34.28125 27.484375 
Q 23.390625 27.484375 19.1875 25 
Q 14.984375 22.515625 14.984375 16.5 
Q 14.984375 11.71875 18.140625 8.90625 
Q 21.296875 6.109375 26.703125 6.109375 
Q 34.1875 6.109375 38.703125 11.40625 
Q 43.21875 16.703125 43.21875 25.484375 
L 43.21875 27.484375 
z
M 52.203125 31.203125 
L 52.203125 0 
L 43.21875 0 
L 43.21875 8.296875 
Q 40.140625 3.328125 35.546875 0.953125 
Q 30.953125 -1.421875 24.3125 -1.421875 
Q 15.921875 -1.421875 10.953125 3.296875 
Q 6 8.015625 6 15.921875 
Q 6 25.140625 12.171875 29.828125 
Q 18.359375 34.515625 30.609375 34.515625 
L 43.21875 34.515625 
L 43.21875 35.40625 
Q 43.21875 41.609375 39.140625 45 
Q 35.0625 48.390625 27.6875 48.390625 
Q 23 48.390625 18.546875 47.265625 
Q 14.109375 46.140625 10.015625 43.890625 
L 10.015625 52.203125 
Q 14.9375 54.109375 19.578125 55.046875 
Q 24.21875 56 28.609375 56 
Q 40.484375 56 46.34375 49.84375 
Q 52.203125 43.703125 52.203125 31.203125 
z
" id="DejaVuSans-61"/>
     </defs>
     <g transform="translate(22.254687 209.9655)rotate(-90)scale(0.1 -0.1)">
      <use xlink:href="#DejaVuSans-50"/>
      <use x="60.287109" xlink:href="#DejaVuSans-72"/>
      <use x="101.369141" xlink:href="#DejaVuSans-65"/>
      <use x="162.892578" xlink:href="#DejaVuSans-73"/>
      <use x="214.992188" xlink:href="#DejaVuSans-73"/>
      <use x="267.091797" xlink:href="#DejaVuSans-75"/>
      <use x="330.470703" xlink:href="#DejaVuSans-72"/>
      <use x="371.552734" xlink:href="#DejaVuSans-65"/>
      <use x="433.076172" xlink:href="#DejaVuSans-20"/>
      <use x="464.863281" xlink:href="#DejaVuSans-28"/>
      <use x="503.876953" xlink:href="#DejaVuSans-62"/>
      <use x="567.353516" xlink:href="#DejaVuSans-61"/>
      <use x="628.632812" xlink:href="#DejaVuSans-72"/>
      <use x="669.746094" xlink:href="#DejaVuSans-29"/>
     </g>
    </g>
   </g>
   <g id="line2d_16">
    <path clip-path="url(#p2e92fc5fa2)" d="M 73.832727 295.073266 
L 73.919354 295.113337 
L 74.785234 295.488 
L 74.958401 295.403851 
L 75.218152 295.283638 
L 75.477903 294.85488 
L 75.780989 294.872912 
L 75.910865 295.107327 
L 75.954156 295.083284 
L 76.084032 295.103319 
L 76.213907 295.121351 
L 76.430366 295.201493 
L 76.733409 295.323709 
L 76.863285 295.29566 
L 76.99316 295.315695 
L 77.555997 294.876919 
L 77.729164 294.949046 
L 78.118791 295.051227 
L 78.465125 295.231546 
L 79.28767 295.031192 
L 79.417545 294.870908 
L 79.937047 295.23956 
L 80.586468 295.031192 
L 80.629759 291.873605 
L 80.673051 293.546565 
L 80.759635 293.87715 
L 80.802927 293.869136 
L 80.932802 293.652753 
L 81.062721 54.289276 
L 81.149305 53.568 
L 81.192596 53.808425 
L 81.712098 55.271013 
L 81.75539 55.130765 
L 81.885266 53.768354 
L 81.928557 53.868532 
L 82.318184 55.070658 
L 82.404767 54.44956 
L 82.491351 53.888567 
L 82.534643 53.928638 
L 82.70781 54.44956 
L 82.924269 55.030588 
L 83.054145 54.569772 
L 83.140728 54.00878 
L 83.227312 54.028815 
L 83.530355 54.830233 
L 83.616938 54.910375 
L 83.66023 54.810198 
L 83.833397 54.028815 
L 84.266316 54.830233 
L 84.309607 54.770127 
L 84.526067 54.169063 
L 84.61265 54.329347 
L 84.699234 54.489631 
L 84.915693 54.770127 
L 85.002277 54.569772 
L 85.218736 54.209134 
L 85.348611 54.469595 
L 85.56507 54.689985 
L 85.651654 54.629879 
L 85.911405 54.22917 
L 86.04128 54.409489 
L 86.344323 54.629879 
L 86.690658 54.22917 
L 86.950409 54.589808 
L 87.080284 54.609843 
L 87.383327 54.22917 
L 87.513202 54.389453 
L 87.599786 54.429524 
L 87.859537 54.629879 
L 87.989412 54.369418 
L 88.119288 54.249205 
L 88.552206 54.589808 
L 88.855249 54.289276 
L 89.115 54.569772 
L 89.37475 54.489631 
L 89.634501 54.249205 
L 89.677793 54.329347 
L 89.937544 54.549737 
L 90.154003 54.469595 
L 90.370462 54.349382 
L 90.586921 54.44956 
L 90.933256 54.509666 
L 91.106423 54.289276 
L 91.149715 54.349382 
L 91.669217 54.509666 
L 91.842384 54.349382 
L 91.97226 54.349382 
L 92.102135 54.349382 
L 92.491762 54.609843 
L 92.664929 54.389453 
L 92.881388 54.289276 
L 93.054555 54.489631 
L 93.184431 54.589808 
L 93.617349 54.309312 
L 93.963683 54.589808 
L 94.006975 54.66995 
L 94.050267 54.609843 
L 94.439893 54.289276 
L 94.483185 54.349382 
L 94.786228 54.609843 
L 95.002687 54.389453 
L 95.392313 54.489631 
L 95.565481 54.589808 
L 95.78194 54.369418 
L 96.431317 54.569772 
L 96.604484 54.429524 
L 96.777652 54.349382 
L 97.080694 54.549737 
L 97.21057 54.489631 
L 97.643488 54.389453 
L 97.859947 54.509666 
L 98.206282 54.429524 
L 98.379449 54.389453 
L 98.422741 54.489631 
L 98.466033 54.44956 
L 98.595908 54.389453 
L 98.812367 54.549737 
L 99.072118 54.349382 
L 99.678247 54.509666 
L 99.938041 54.409489 
L 100.197792 54.509666 
L 100.241084 54.409489 
L 100.327668 54.469595 
L 100.500835 54.369418 
L 100.717294 54.429524 
L 101.063628 54.529701 
L 101.193504 54.409489 
L 101.58313 54.469595 
L 102.752009 54.389453 
L 102.795301 54.349382 
L 102.838593 54.44956 
L 105.30627 54.409489 
L 105.392854 54.329347 
L 105.566021 54.509666 
L 105.609313 54.469595 
L 105.652605 54.549737 
L 105.825772 54.569772 
L 105.912356 54.509666 
L 106.085523 54.369418 
L 106.345274 54.44956 
L 106.561733 54.609843 
L 106.605025 54.549737 
L 106.734943 54.469595 
L 106.908111 54.329347 
L 107.12457 54.509666 
L 107.297737 54.549737 
L 107.427613 54.629879 
L 107.687364 54.309312 
L 107.860531 54.369418 
L 108.033698 54.589808 
L 108.250157 54.569772 
L 108.423324 54.309312 
L 109.072702 54.529701 
L 109.245869 54.349382 
L 109.375745 54.369418 
L 109.592204 54.369418 
L 109.722079 54.549737 
L 110.284873 54.389453 
L 110.414748 54.429524 
L 110.847666 54.509666 
L 110.890958 54.309312 
L 110.977542 54.329347 
L 111.540336 54.509666 
L 111.756795 54.289276 
L 111.973384 54.489631 
L 112.276513 54.509666 
L 112.579815 54.349382 
L 112.796318 54.44956 
L 113.09949 54.489631 
L 113.532409 54.369418 
L 113.662284 54.569772 
L 113.748868 54.489631 
L 113.878743 54.329347 
L 113.922035 54.369418 
L 114.05191 54.389453 
L 114.181786 54.44956 
L 114.441537 54.589808 
L 114.701288 54.349382 
L 115.393957 54.549737 
L 115.567124 54.329347 
L 115.740291 54.369418 
L 115.870167 54.469595 
L 116.259793 54.529701 
L 116.562836 54.349382 
L 116.952462 54.569772 
L 117.082381 54.549737 
L 117.255548 54.409489 
L 117.342132 54.309312 
L 117.385424 54.349382 
L 117.731758 54.569772 
L 118.294552 54.389453 
L 118.467719 54.469595 
L 118.597595 54.429524 
L 118.684179 54.529701 
L 118.72747 54.489631 
L 119.20368 54.389453 
L 119.376848 54.369418 
L 119.853058 54.489631 
L 120.112809 54.389453 
L 120.63231 54.549737 
L 121.021937 54.329347 
L 121.281688 54.529701 
L 121.541439 54.549737 
L 121.80119 54.44956 
L 122.104232 54.409489 
L 122.320691 54.509666 
L 122.363983 54.429524 
L 122.450567 54.489631 
L 122.667026 54.549737 
L 123.186528 54.409489 
L 123.446279 54.589808 
L 123.879197 54.309312 
L 124.095656 54.44956 
L 124.312115 54.549737 
L 124.355407 54.609843 
L 124.398699 54.569772 
L 124.745033 54.389453 
L 125.091368 54.489631 
L 125.307827 54.589808 
L 125.437702 54.469595 
L 125.740745 54.389453 
L 125.913912 54.469595 
L 126.130372 54.469595 
L 126.260247 54.509666 
L 126.519998 54.349382 
L 126.823041 54.509666 
L 127.255959 54.429524 
L 127.51571 54.549737 
L 127.732169 54.44956 
L 127.862044 54.469595 
L 128.035212 54.369418 
L 128.424838 54.509666 
L 128.598005 54.409489 
L 128.94434 54.489631 
L 129.030924 54.44956 
L 129.117507 54.489631 
L 129.160799 54.44956 
L 129.290674 54.469595 
L 129.507134 54.409489 
L 129.637009 54.409489 
L 129.723593 54.469595 
L 129.766884 54.409489 
L 131.58579 54.509666 
L 131.715709 54.489631 
L 135.828432 54.429524 
L 135.958307 54.329347 
L 136.088183 54.409489 
L 136.434517 54.44956 
L 137.776564 54.509666 
L 137.906439 54.549737 
L 138.079607 54.44956 
L 138.382649 54.389453 
L 138.555817 54.469595 
L 138.945443 54.389453 
L 139.11861 54.309312 
L 139.335069 54.489631 
L 139.724696 54.429524 
L 139.941155 54.289276 
L 140.114322 54.469595 
L 140.374073 54.649914 
L 140.590532 54.22917 
L 140.633824 54.289276 
L 140.850283 54.469595 
L 140.980159 54.549737 
L 141.110034 54.589808 
L 141.542952 54.309312 
L 141.802703 54.549737 
L 142.365497 54.409489 
L 142.581956 54.469595 
L 142.711831 54.549737 
L 142.92829 54.489631 
L 143.101458 54.389453 
L 143.404501 54.489631 
L 143.534376 54.509666 
L 143.707543 54.469595 
L 143.837419 54.409489 
L 144.270337 54.509666 
L 144.486796 54.489631 
L 144.876422 54.429524 
L 145.309341 54.529701 
L 145.612383 54.389453 
L 145.828842 54.409489 
L 146.261761 54.509666 
L 146.521555 54.329347 
L 146.65143 54.409489 
L 146.911225 54.549737 
L 147.43077 54.429524 
L 148.38319 54.509666 
L 148.513065 54.529701 
L 148.772816 54.349382 
L 148.989275 54.409489 
L 149.119151 54.509666 
L 149.33561 54.489631 
L 149.768528 54.409489 
L 150.028279 54.549737 
L 150.28803 54.369418 
L 150.331322 54.429524 
L 150.374613 54.389453 
L 150.461197 54.389453 
L 150.634364 54.469595 
L 151.067326 54.389453 
L 151.197201 54.389453 
L 151.41366 54.469595 
L 151.586828 54.44956 
L 151.716703 54.44956 
L 151.759995 54.369418 
L 151.846579 54.429524 
L 151.976454 54.469595 
L 152.322789 54.549737 
L 152.625831 54.409489 
L 153.102041 54.44956 
L 153.145333 54.529701 
L 153.231917 54.469595 
L 153.3185 54.509666 
L 153.491668 54.389453 
L 153.621543 54.44956 
L 153.924586 54.409489 
L 154.054461 54.389453 
L 154.48738 54.489631 
L 154.790422 54.469595 
L 154.96359 54.44956 
L 155.180049 54.469595 
L 155.353216 54.369418 
L 155.483091 54.369418 
L 155.612967 54.529701 
L 155.656259 54.489631 
L 155.742842 54.489631 
L 155.872718 54.529701 
L 156.132469 54.409489 
L 156.608679 54.469595 
L 156.738554 54.529701 
L 157.258056 54.389453 
L 157.82085 54.569772 
L 157.950725 54.469595 
L 158.210476 54.369418 
L 158.729978 54.589808 
L 158.903145 54.409489 
L 159.033021 54.409489 
L 159.162896 54.409489 
L 159.379355 54.509666 
L 159.422647 54.549737 
L 159.465939 54.489631 
L 159.855565 54.429524 
L 161.240904 54.529701 
L 161.370779 54.509666 
L 161.414071 54.429524 
L 161.500654 54.489631 
L 161.803697 54.44956 
L 161.890281 54.289276 
L 161.933573 54.349382 
L 162.453075 54.509666 
L 162.58295 54.409489 
L 162.626242 54.44956 
L 162.842701 54.429524 
L 162.929285 54.329347 
L 162.972576 54.409489 
L 163.318911 54.469595 
L 163.751829 54.389453 
L 163.924996 54.489631 
L 164.141456 54.529701 
L 164.314623 54.389453 
L 164.48779 54.349382 
L 164.660957 54.489631 
L 164.834125 54.509666 
L 165.050584 54.369418 
L 165.310335 54.429524 
L 165.44021 54.569772 
L 165.526794 54.469595 
L 165.570086 54.529701 
L 166.046296 54.329347 
L 166.176171 54.469595 
L 166.219463 54.429524 
L 166.262755 54.489631 
L 166.522506 54.589808 
L 166.738965 54.309312 
L 166.86884 54.269241 
L 167.042007 54.469595 
L 167.215175 54.569772 
L 167.474926 54.569772 
L 167.691385 54.269241 
L 167.82126 54.369418 
L 168.29747 54.489631 
L 168.384054 54.409489 
L 168.513929 54.289276 
L 168.643805 54.309312 
L 168.816972 54.509666 
L 169.033561 54.529701 
L 169.380026 54.329347 
L 169.423361 54.429524 
L 169.466696 54.409489 
L 169.510031 54.329347 
L 169.553366 54.389453 
L 169.986457 54.469595 
L 170.20296 54.369418 
L 170.809045 54.529701 
L 170.982212 54.469595 
L 171.198672 54.289276 
L 171.458423 54.489631 
L 171.63159 54.469595 
L 171.674882 54.549737 
L 171.718173 54.489631 
L 172.194383 54.329347 
L 172.367551 54.489631 
L 172.497426 54.489631 
L 172.670593 54.529701 
L 172.800469 54.429524 
L 173.06022 54.309312 
L 173.190095 54.409489 
L 173.579722 54.529701 
L 173.796181 54.309312 
L 173.926056 54.349382 
L 173.969348 54.289276 
L 174.01264 54.389453 
L 174.185807 54.569772 
L 174.229099 54.509666 
L 174.445558 54.389453 
L 174.532142 54.409489 
L 174.662017 54.369418 
L 174.96506 54.509666 
L 175.44127 54.409489 
L 175.657729 54.469595 
L 175.830896 54.549737 
L 175.960772 54.409489 
L 176.523565 54.509666 
L 176.740025 54.509666 
L 177.216235 54.409489 
L 177.432737 54.629879 
L 177.476029 54.589808 
L 177.779072 54.289276 
L 177.908947 54.369418 
L 177.995531 54.409489 
L 178.125406 54.509666 
L 178.341865 54.489631 
L 178.471741 54.489631 
L 178.558324 54.369418 
L 178.601616 54.409489 
L 178.774783 54.329347 
L 178.991243 54.469595 
L 179.121118 54.469595 
L 179.294285 54.489631 
L 179.380869 54.429524 
L 179.424161 54.469595 
L 179.770495 54.389453 
L 179.857079 54.349382 
L 179.986954 54.469595 
L 180.11683 54.44956 
L 180.419873 54.469595 
L 180.722915 54.369418 
L 180.852791 54.389453 
L 181.025958 54.489631 
L 181.415584 54.409489 
L 181.54546 54.429524 
L 181.632044 54.349382 
L 181.675335 54.409489 
L 182.238129 54.509666 
L 182.324713 54.469595 
L 182.368004 54.389453 
L 182.454588 54.44956 
L 185.181973 54.369418 
L 185.311848 54.389453 
L 185.571599 54.44956 
L 185.701475 54.489631 
L 186.004517 54.429524 
L 186.177685 54.349382 
L 186.567311 54.589808 
L 186.610603 54.429524 
L 186.697186 54.469595 
L 186.913646 54.529701 
L 187.346564 54.369418 
L 187.389856 54.589808 
L 187.476439 54.569772 
L 187.909357 54.309312 
L 188.342276 54.569772 
L 188.602027 54.349382 
L 188.861778 54.429524 
L 189.16482 54.569772 
L 189.294696 54.469595 
L 189.511155 54.389453 
L 189.64103 54.389453 
L 189.770906 54.409489 
L 189.944073 54.549737 
L 190.073948 54.529701 
L 190.160532 54.489631 
L 190.376991 54.369418 
L 190.766618 54.569772 
L 190.809909 54.469595 
L 190.896493 54.429524 
L 191.06966 54.529701 
L 191.199536 54.529701 
L 191.502579 54.349382 
L 191.892205 54.489631 
L 192.02208 54.44956 
L 192.065372 54.589808 
L 192.151956 54.509666 
L 192.368415 54.289276 
L 192.454999 54.369418 
L 192.844625 54.649914 
L 193.277543 54.289276 
L 193.320835 54.349382 
L 193.407419 54.409489 
L 193.623878 54.649914 
L 194.100088 54.329347 
L 194.446422 54.629879 
L 194.489714 54.569772 
L 195.052508 54.429524 
L 195.268967 54.549737 
L 195.398842 54.529701 
L 195.658593 54.349382 
L 196.091511 54.489631 
L 196.221387 54.44956 
L 197.606725 54.369418 
L 197.693309 54.369418 
L 197.909768 54.489631 
L 198.082935 54.44956 
L 198.212811 54.489631 
L 198.472562 54.309312 
L 198.645729 54.44956 
L 198.818896 54.44956 
L 199.035355 54.509666 
L 199.165231 54.489631 
L 199.468273 54.349382 
L 199.598149 54.349382 
L 199.771316 54.489631 
L 199.901192 54.489631 
L 201.199946 54.44956 
L 201.243238 54.369418 
L 201.329822 54.429524 
L 201.459697 54.429524 
L 201.589573 54.489631 
L 201.849324 54.389453 
L 202.109074 54.409489 
L 202.23895 54.429524 
L 203.407829 54.509666 
L 203.494413 54.589808 
L 203.537705 54.529701 
L 203.754164 54.329347 
L 203.797455 54.249205 
L 203.840747 54.309312 
L 204.403541 54.469595 
L 204.793167 54.349382 
L 204.966335 54.469595 
L 205.139502 54.509666 
L 205.226086 54.469595 
L 205.355961 54.44956 
L 208.819307 54.389453 
L 208.949182 54.369418 
L 209.165641 54.489631 
L 209.338808 54.469595 
L 209.3821 54.529701 
L 209.425392 54.489631 
L 209.685143 54.369418 
L 210.118061 54.469595 
L 210.291228 54.489631 
L 210.421104 54.489631 
L 210.854022 54.389453 
L 211.243649 54.44956 
L 211.416816 54.429524 
L 211.633275 54.429524 
L 211.849734 54.469595 
L 211.979609 54.429524 
L 212.022901 54.509666 
L 212.066193 54.469595 
L 212.152777 54.469595 
L 212.282652 54.44956 
L 212.542403 54.44956 
L 213.451531 54.389453 
L 213.624699 54.289276 
L 213.754574 54.389453 
L 213.971033 54.489631 
L 214.014325 54.589808 
L 214.057617 54.549737 
L 214.317368 54.369418 
L 214.533827 54.349382 
L 214.577119 54.309312 
L 214.62041 54.409489 
L 215.010037 54.509666 
L 215.139912 54.44956 
L 215.529539 54.389453 
L 215.745998 54.469595 
L 215.78929 54.509666 
L 215.832581 54.44956 
L 215.962457 54.509666 
L 216.005749 54.589808 
L 216.049041 54.489631 
L 216.178916 54.409489 
L 216.395375 54.309312 
L 216.785002 54.549737 
L 217.174628 54.269241 
L 217.347795 54.429524 
L 217.520962 54.489631 
L 217.564254 54.549737 
L 217.607546 54.489631 
L 217.867297 54.389453 
L 218.343507 54.489631 
L 218.516674 54.509666 
L 218.733133 54.389453 
L 218.906301 54.349382 
L 219.425803 54.469595 
L 219.858721 54.389453 
L 220.248347 54.44956 
L 221.850144 54.389453 
L 221.936728 54.329347 
L 222.066604 54.409489 
L 222.109895 54.369418 
L 222.239771 54.509666 
L 222.802565 54.349382 
L 223.235483 54.529701 
L 223.40865 54.389453 
L 223.711693 54.329347 
L 223.88486 54.469595 
L 223.928152 54.409489 
L 223.971444 54.44956 
L 224.101319 54.509666 
L 224.187903 54.44956 
L 224.231195 54.509666 
L 224.490945 54.329347 
L 224.707405 54.44956 
L 224.967156 54.409489 
L 225.010447 54.509666 
L 225.097031 54.469595 
L 225.31349 54.469595 
L 225.659825 54.409489 
L 225.7897 54.44956 
L 225.919576 54.429524 
L 228.387209 54.329347 
L 228.560377 54.369418 
L 228.690252 54.44956 
L 228.776836 54.44956 
L 228.863419 54.369418 
L 229.036587 54.509666 
L 229.382921 54.429524 
L 229.556088 54.169063 
L 229.902423 54.609843 
L 229.945715 54.549737 
L 230.07559 54.509666 
L 230.292049 54.309312 
L 230.5518 54.429524 
L 230.595092 54.389453 
L 230.638384 54.44956 
L 230.941427 54.469595 
L 231.157886 54.289276 
L 231.287761 54.289276 
L 231.417637 54.389453 
L 231.460929 54.509666 
L 231.547512 54.469595 
L 231.634096 54.509666 
L 231.720679 54.409489 
L 231.763971 54.469595 
L 231.893847 54.44956 
L 232.110306 54.469595 
L 232.283473 54.349382 
L 232.45664 54.309312 
L 232.586516 54.44956 
L 232.629808 54.489631 
L 232.673099 54.409489 
L 234.015146 54.44956 
L 234.058438 54.529701 
L 234.145021 54.469595 
L 234.404772 54.369418 
L 234.534648 54.329347 
L 234.621231 54.409489 
L 234.837691 54.489631 
L 234.924274 54.489631 
L 234.967566 54.569772 
L 235.010858 54.529701 
L 235.357192 54.309312 
L 235.487068 54.369418 
L 235.53036 54.329347 
L 235.573651 54.389453 
L 235.833402 54.489631 
L 236.049861 54.389453 
L 236.223029 54.409489 
L 236.48278 54.409489 
L 241.24488 54.349382 
L 241.288172 54.289276 
L 241.331464 54.349382 
L 241.504631 54.429524 
L 241.807674 54.409489 
L 242.933261 54.349382 
L 243.063136 54.329347 
L 243.669222 54.529701 
L 243.842389 54.349382 
L 244.058848 54.369418 
L 244.318599 54.469595 
L 244.491766 54.549737 
L 244.535058 54.44956 
L 244.664934 54.349382 
L 244.881393 54.329347 
L 245.227727 54.529701 
L 245.487478 54.329347 
L 245.963688 54.429524 
L 247.002692 54.469595 
L 247.089276 54.529701 
L 247.132567 54.489631 
L 247.262443 54.489631 
L 247.43561 54.309312 
L 247.652069 54.409489 
L 248.041696 54.509666 
L 248.38803 54.309312 
L 248.517906 54.409489 
L 248.647781 54.529701 
L 248.734365 54.429524 
L 248.777657 54.489631 
L 248.994116 54.369418 
L 249.167283 54.409489 
L 249.297158 54.409489 
L 249.470326 54.489631 
L 249.643493 54.409489 
L 249.773368 54.409489 
L 250.033119 54.409489 
L 250.076411 54.509666 
L 250.119703 54.409489 
L 250.379454 54.44956 
L 250.595913 54.389453 
L 250.812372 54.409489 
L 250.942248 54.44956 
L 251.072123 54.349382 
L 251.331874 54.44956 
L 253.236714 54.349382 
L 253.323298 54.309312 
L 253.36659 54.369418 
L 253.539757 54.409489 
L 253.669632 54.489631 
L 253.886091 54.409489 
L 253.972675 54.429524 
L 254.189134 54.289276 
L 254.405593 54.489631 
L 254.79522 54.389453 
L 255.054971 54.389453 
L 255.314721 54.469595 
L 255.487889 54.489631 
L 255.964099 54.389453 
L 256.137266 54.44956 
L 256.310433 54.409489 
L 256.397017 54.509666 
L 256.440309 54.469595 
L 256.570184 54.429524 
L 256.743352 54.369418 
L 256.873227 54.409489 
L 258.778067 54.369418 
L 258.821359 54.289276 
L 258.864651 54.329347 
L 259.08111 54.44956 
L 259.254277 54.469595 
L 259.687195 54.389453 
L 259.946946 54.509666 
L 260.120113 54.489631 
L 260.553032 54.369418 
L 260.769491 54.44956 
L 261.808494 54.369418 
L 261.93837 54.389453 
L 262.284704 54.469595 
L 262.457872 54.369418 
L 262.587747 54.469595 
L 262.717623 54.329347 
L 262.847498 54.409489 
L 263.020665 54.429524 
L 263.237125 54.409489 
L 267.046805 54.489631 
L 267.17668 54.469595 
L 267.393139 54.369418 
L 267.523015 54.309312 
L 267.65289 54.44956 
L 267.696182 54.389453 
L 268.518727 54.489631 
L 268.562018 54.529701 
L 268.60531 54.429524 
L 268.865061 54.389453 
L 268.951645 54.289276 
L 268.994937 54.369418 
L 269.254688 54.429524 
L 269.427855 54.509666 
L 269.644314 54.309312 
L 269.774189 54.369418 
L 269.860773 54.349382 
L 270.03394 54.429524 
L 270.553442 54.409489 
L 270.640026 54.309312 
L 270.683318 54.329347 
L 270.856485 54.429524 
L 271.029652 54.44956 
L 271.46257 54.349382 
L 271.93878 54.44956 
L 272.111948 54.329347 
L 272.674828 54.549737 
L 272.71812 54.44956 
L 272.761412 54.489631 
L 272.804703 54.529701 
L 272.847995 54.44956 
L 273.19433 54.249205 
L 273.410789 54.549737 
L 273.886999 54.22917 
L 274.363209 54.549737 
L 274.579668 54.309312 
L 274.882711 54.389453 
L 275.055878 54.529701 
L 275.445504 54.289276 
L 275.661963 54.369418 
L 275.878423 54.549737 
L 276.008298 54.489631 
L 276.181465 54.309312 
L 276.311341 54.309312 
L 276.571092 54.349382 
L 276.787551 54.629879 
L 277.00401 54.389453 
L 277.133885 54.289276 
L 277.177177 54.22917 
L 277.220469 54.269241 
L 277.610095 54.509666 
L 277.783263 54.44956 
L 277.913138 54.289276 
L 277.95643 54.329347 
L 278.043014 54.329347 
L 278.216181 54.489631 
L 278.259473 54.549737 
L 278.302765 54.509666 
L 278.346056 54.389453 
L 278.43264 54.44956 
L 278.822266 54.389453 
L 279.38506 54.429524 
L 279.514935 54.469595 
L 279.904562 54.409489 
L 280.727106 54.489631 
L 280.770398 54.529701 
L 280.81369 54.469595 
L 280.986857 54.429524 
L 281.592943 54.489631 
L 281.636235 54.569772 
L 281.679526 54.489631 
L 281.809402 54.389453 
L 281.939277 54.289276 
L 281.982569 54.329347 
L 282.025861 54.409489 
L 282.069153 54.369418 
L 282.155737 54.369418 
L 282.285612 54.489631 
L 282.415487 54.489631 
L 282.545363 54.469595 
L 282.71853 54.389453 
L 282.848449 54.389453 
L 282.978324 54.429524 
L 283.194783 54.369418 
L 283.541161 54.469595 
L 283.627745 54.469595 
L 283.757664 54.429524 
L 283.887669 54.409489 
L 284.190842 54.369418 
L 284.32076 54.44956 
L 284.364096 54.349382 
L 284.407431 54.369418 
L 284.624106 54.489631 
L 285.057024 54.289276 
L 285.100316 54.389453 
L 285.230192 54.469595 
L 285.360067 54.44956 
L 285.489943 54.529701 
L 285.533234 54.469595 
L 285.619818 54.429524 
L 285.792985 54.269241 
L 285.966153 54.329347 
L 286.312531 54.529701 
L 286.918616 54.369418 
L 287.091783 54.509666 
L 287.351534 54.409489 
L 287.567993 54.349382 
L 287.827744 54.44956 
L 288.044203 54.429524 
L 288.347289 54.329347 
L 288.477165 54.429524 
L 288.650332 54.44956 
L 288.780337 54.389453 
L 288.953635 54.429524 
L 289.170094 54.44956 
L 289.300012 54.389453 
L 289.559893 54.389453 
L 292.374078 54.489631 
L 292.547245 54.489631 
L 292.89358 54.289276 
L 293.456373 54.489631 
L 293.629541 54.369418 
L 294.019167 54.429524 
L 294.149043 54.489631 
L 294.32221 54.409489 
L 297.65568 54.329347 
L 297.742264 54.249205 
L 298.002015 54.66995 
L 298.175182 54.569772 
L 298.348349 54.189099 
L 298.651392 54.44956 
L 298.824559 54.609843 
L 298.997726 54.44956 
L 299.170894 54.149028 
L 299.214186 54.189099 
L 299.56052 54.609843 
L 299.820271 54.369418 
L 299.993438 54.189099 
L 300.03673 54.22917 
L 300.296481 54.629879 
L 300.339773 54.589808 
L 300.599524 54.269241 
L 300.772691 54.329347 
L 301.075734 54.569772 
L 301.508652 54.289276 
L 301.681819 54.389453 
L 301.898278 54.509666 
L 302.028154 54.549737 
L 302.158029 54.329347 
L 302.201321 54.369418 
L 302.287905 54.269241 
L 302.331197 54.309312 
L 302.547656 54.409489 
L 302.764115 54.509666 
L 302.980574 54.369418 
L 303.110449 54.369418 
L 303.283617 54.329347 
L 303.500076 54.469595 
L 303.629951 54.409489 
L 303.803119 54.429524 
L 304.062869 54.329347 
L 304.322644 54.409489 
L 304.409236 54.489631 
L 304.452532 54.429524 
L 304.669013 54.409489 
L 304.972086 54.389453 
L 305.058678 54.329347 
L 305.145271 54.369418 
L 305.275159 54.409489 
L 306.877116 54.489631 
L 306.920413 54.589808 
L 307.007005 54.549737 
L 307.18019 54.349382 
L 307.266782 54.249205 
L 307.310078 54.269241 
L 307.699743 54.569772 
L 307.829632 54.649914 
L 308.132705 54.189099 
L 308.176001 54.22917 
L 308.608962 54.629879 
L 308.652259 54.549737 
L 308.912036 54.189099 
L 308.955332 54.22917 
L 309.344997 54.66995 
L 309.474885 54.429524 
L 309.691366 54.189099 
L 310.21092 54.529701 
L 310.470697 54.329347 
L 310.903658 54.469595 
L 311.033547 54.44956 
L 311.33662 54.349382 
L 311.466508 54.289276 
L 311.682989 54.529701 
L 312.332431 54.289276 
L 312.548912 54.489631 
L 312.851985 54.509666 
L 313.02517 54.269241 
L 313.068466 54.369418 
L 313.284947 54.349382 
L 313.544723 54.529701 
L 313.717908 54.469595 
L 313.761204 54.349382 
L 313.847797 54.409489 
L 314.020981 54.309312 
L 314.194166 54.369418 
L 314.583831 54.469595 
L 314.800312 54.329347 
L 314.973496 54.429524 
L 315.016793 54.349382 
L 315.060089 54.409489 
L 315.363162 54.429524 
L 315.579643 54.309312 
L 315.752827 54.409489 
L 315.926012 54.44956 
L 316.0559 54.389453 
L 316.358973 54.409489 
L 317.224896 54.329347 
L 317.268192 54.249205 
L 317.311488 54.289276 
L 317.657858 54.549737 
L 317.787746 54.389453 
L 317.917635 54.389453 
L 318.134115 54.189099 
L 318.437188 54.609843 
L 318.740261 54.389453 
L 318.87015 54.249205 
L 319.173223 54.509666 
L 319.519592 54.489631 
L 319.649481 54.289276 
L 320.255627 54.489631 
L 320.472107 54.269241 
L 320.515404 54.309312 
L 320.905069 54.529701 
L 321.12155 54.429524 
L 321.294734 54.349382 
L 321.467919 54.369418 
L 321.90088 54.44956 
L 322.074065 54.349382 
L 322.247249 54.349382 
L 322.377138 54.429524 
L 322.507026 54.469595 
L 322.636915 54.569772 
L 322.723507 54.469595 
L 322.896692 54.309312 
L 323.02658 54.389453 
L 323.069876 54.44956 
L 323.113172 54.409489 
L 323.199765 54.329347 
L 323.243061 54.389453 
L 323.459542 54.469595 
L 323.719319 54.369418 
L 324.195576 54.44956 
L 324.368761 54.509666 
L 324.71513 54.309312 
L 324.845018 54.389453 
L 325.018203 54.509666 
L 325.061499 54.44956 
L 325.104795 54.509666 
L 325.148092 54.569772 
L 325.191388 54.489631 
L 325.407868 54.289276 
L 325.537757 54.249205 
L 325.927422 54.569772 
L 326.057311 54.369418 
L 326.100607 54.409489 
L 326.40368 54.349382 
L 326.576864 54.469595 
L 326.836641 54.469595 
L 327.053122 54.289276 
L 327.356195 54.489631 
L 327.615972 54.369418 
L 327.962341 54.409489 
L 329.521003 54.349382 
L 329.650891 54.329347 
L 329.780779 54.429524 
L 329.953964 54.529701 
L 330.257037 54.269241 
L 330.300333 54.329347 
L 330.819887 54.44956 
L 330.993072 54.269241 
L 331.166256 54.389453 
L 331.296145 54.409489 
L 331.382737 54.489631 
L 331.555922 54.549737 
L 331.945587 54.309312 
L 332.465141 54.469595 
L 332.595029 54.369418 
L 332.81151 54.309312 
L 332.854806 54.389453 
L 332.941398 54.329347 
L 333.157879 54.469595 
L 333.417656 54.429524 
L 333.504248 54.309312 
L 333.547544 54.349382 
L 333.720729 54.309312 
L 333.764025 54.269241 
L 333.807321 54.369418 
L 333.93721 54.429524 
L 334.240283 54.469595 
L 334.413467 54.269241 
L 334.673244 54.409489 
L 334.889725 54.409489 
L 335.019614 54.429524 
L 335.27939 54.369418 
L 335.365983 54.289276 
L 335.409279 54.349382 
L 335.669056 54.469595 
L 336.015425 54.409489 
L 336.18861 54.309312 
L 336.318498 54.369418 
L 336.534979 54.349382 
L 336.708163 54.44956 
L 337.141125 54.349382 
L 337.271013 54.389453 
L 337.444198 54.409489 
L 337.487494 54.349382 
L 337.53079 54.389453 
L 337.660679 54.44956 
L 337.790567 54.309312 
L 337.833863 54.349382 
L 338.007048 54.369418 
L 338.136936 54.389453 
L 338.440009 54.409489 
L 338.526602 54.349382 
L 338.569898 54.389453 
L 338.786379 54.349382 
L 338.959563 54.44956 
L 339.479117 54.329347 
L 339.695598 54.44956 
L 339.912078 54.369418 
L 340.085263 54.349382 
L 340.90789 54.429524 
L 340.951186 54.469595 
L 340.994482 54.409489 
L 341.210963 54.309312 
L 341.47074 54.429524 
L 342.163478 54.349382 
L 342.206774 54.309312 
L 342.25007 54.389453 
L 342.423255 54.509666 
L 342.59644 54.44956 
L 342.726328 54.349382 
L 342.899513 54.329347 
L 343.029401 54.349382 
L 343.289178 54.529701 
L 343.332474 54.429524 
L 343.419067 54.489631 
L 343.808732 54.269241 
L 344.068509 54.469595 
L 344.328286 54.489631 
L 344.544766 54.309312 
L 345.107616 54.44956 
L 345.367393 54.289276 
L 345.497282 54.389453 
L 345.62717 54.349382 
L 346.016835 54.429524 
L 346.406501 54.349382 
L 346.579685 54.409489 
L 346.969351 54.349382 
L 347.229195 54.44956 
L 347.402492 54.469595 
L 347.575746 54.409489 
L 347.92221 54.309312 
L 348.095421 54.369418 
L 348.355172 54.469595 
L 348.571631 54.389453 
L 348.744798 54.329347 
L 348.78809 54.289276 
L 348.831382 54.369418 
L 349.177716 54.44956 
L 349.221008 54.549737 
L 349.350884 54.269241 
L 349.480759 54.309312 
L 349.653926 54.329347 
L 349.827094 54.489631 
L 350.043553 54.409489 
L 350.260012 54.22917 
L 350.303304 54.309312 
L 350.433179 54.349382 
L 350.736222 54.489631 
L 350.952681 54.429524 
L 351.342307 54.349382 
L 351.472183 54.509666 
L 351.515475 54.44956 
L 351.948393 54.329347 
L 352.12156 54.429524 
L 352.251436 54.429524 
L 352.424603 54.409489 
L 352.554478 54.44956 
L 352.59777 54.329347 
L 352.684354 54.389453 
L 352.900813 54.409489 
L 353.07398 54.469595 
L 353.117272 54.349382 
L 353.203856 54.389453 
L 353.506898 54.369418 
L 353.593482 54.429524 
L 353.636947 54.389453 
L 353.853406 54.44956 
L 354.026573 54.209134 
L 354.243033 54.389453 
L 354.459492 54.469595 
L 354.762534 54.329347 
L 355.108869 54.429524 
L 355.325328 54.429524 
L 355.498495 54.349382 
L 355.541787 54.409489 
L 355.585079 54.329347 
L 356.927125 54.389453 
L 357.057001 54.429524 
L 357.27346 54.289276 
L 357.576503 54.389453 
L 357.836254 54.389453 
L 360.217304 54.309312 
L 360.347179 54.309312 
L 360.953265 54.529701 
L 361.169724 54.289276 
L 361.472766 54.369418 
L 361.689226 54.509666 
L 361.948977 54.269241 
L 362.03556 54.169063 
L 362.078852 54.22917 
L 362.122144 54.22917 
L 362.295311 54.469595 
L 362.338603 54.44956 
L 362.425187 54.569772 
L 362.468478 54.549737 
L 362.51177 54.569772 
L 362.728229 54.289276 
L 362.858105 54.249205 
L 363.204439 54.549737 
L 363.247731 54.489631 
L 363.637358 54.249205 
L 363.853817 54.429524 
L 364.026984 54.529701 
L 364.286735 54.209134 
L 364.762945 54.549737 
L 365.022696 54.249205 
L 365.239155 54.309312 
L 365.412322 54.469595 
L 365.585489 54.489631 
L 365.758657 54.289276 
L 365.931824 54.269241 
L 366.234867 54.569772 
L 366.408034 54.409489 
L 366.711077 54.249205 
L 367.014119 54.549737 
L 367.490329 54.249205 
L 367.663497 54.349382 
L 367.923248 54.44956 
L 368.096415 54.389453 
L 368.269582 54.22917 
L 368.486041 54.389453 
L 369.005543 54.309312 
L 369.092127 54.209134 
L 369.135419 54.289276 
L 369.308586 54.389453 
L 369.568337 54.409489 
L 370.044547 54.289276 
L 370.520757 54.429524 
L 370.737216 54.309312 
L 370.867091 54.429524 
L 371.040259 54.389453 
L 371.170134 54.389453 
L 371.343301 54.309312 
L 371.516469 54.369418 
L 371.732928 54.329347 
L 371.906095 54.429524 
L 372.079262 54.329347 
L 372.382305 54.349382 
L 372.555472 54.389453 
L 373.074974 54.289276 
L 373.161558 54.189099 
L 373.20485 54.269241 
L 373.291433 54.349382 
L 373.421309 54.489631 
L 373.464601 54.429524 
L 373.507892 54.469595 
L 373.594476 54.549737 
L 373.810935 54.249205 
L 374.373729 54.44956 
L 374.590188 54.249205 
L 374.63348 54.22917 
L 374.676772 54.349382 
L 374.763355 54.289276 
L 374.936523 54.489631 
L 374.979814 54.409489 
L 375.369441 54.329347 
L 375.672484 54.389453 
L 375.802359 54.349382 
L 375.845651 54.429524 
L 375.888943 54.309312 
L 376.105402 54.369418 
L 376.365153 54.329347 
L 376.53832 54.409489 
L 376.798071 54.309312 
L 376.884654 54.369418 
L 376.927946 54.269241 
L 377.01453 54.329347 
L 377.187697 54.509666 
L 377.360864 54.44956 
L 377.49074 54.309312 
L 377.534032 54.349382 
L 377.837075 54.309312 
L 378.140117 54.469595 
L 378.399868 54.429524 
L 378.529744 54.249205 
L 378.702911 54.329347 
L 378.876078 54.44956 
L 379.092537 54.429524 
L 379.352288 54.289276 
L 379.87179 54.409489 
L 380.261416 54.329347 
L 380.651043 54.429524 
L 380.910794 54.289276 
L 381.083961 54.389453 
L 381.343712 54.389453 
L 381.560171 54.469595 
L 381.690047 54.429524 
L 381.863214 54.389453 
L 381.949797 54.269241 
L 381.993089 54.329347 
L 382.036381 54.409489 
L 382.079673 54.329347 
L 382.166257 54.309312 
L 382.382716 54.429524 
L 382.555883 54.44956 
L 382.72905 54.469595 
L 382.988801 54.269241 
L 383.594887 54.44956 
L 383.897929 54.289276 
L 384.417431 54.44956 
L 384.547307 54.389453 
L 384.63389 54.409489 
L 384.763766 54.329347 
L 384.893641 54.349382 
L 384.936933 54.389453 
L 384.980225 54.289276 
L 385.023517 54.249205 
L 385.1101 54.409489 
L 385.153392 54.369418 
L 385.499727 54.44956 
L 385.672894 54.329347 
L 385.716186 54.369418 
L 385.759478 54.309312 
L 385.932645 54.289276 
L 386.149104 54.489631 
L 386.798481 54.309312 
L 387.01494 54.409489 
L 387.058232 54.469595 
L 387.101524 54.429524 
L 387.274691 54.369418 
L 387.447859 54.329347 
L 387.70761 54.309312 
L 387.924069 54.409489 
L 388.18382 54.389453 
L 388.44357 54.409489 
L 388.573446 54.389453 
L 388.616738 54.429524 
L 388.66003 54.309312 
L 388.746613 54.349382 
L 388.963072 54.409489 
L 389.179531 54.189099 
L 389.222823 54.389453 
L 389.309407 54.369418 
L 389.39599 54.329347 
L 389.439282 54.369418 
L 389.61245 54.389453 
L 389.742325 54.369418 
L 390.002076 54.369418 
L 398.487273 54.369418 
L 398.487273 54.369418 
" style="fill:none;stroke:#1f77b4;stroke-linecap:square;stroke-width:1.5;"/>
   </g>
   <g id="patch_3">
    <path d="M 57.6 307.584 
L 57.6 41.472 
" style="fill:none;stroke:#000000;stroke-linecap:square;stroke-linejoin:miter;stroke-width:0.8;"/>
   </g>
   <g id="patch_4">
    <path d="M 414.72 307.584 
L 414.72 41.472 
" style="fill:none;stroke:#000000;stroke-linecap:square;stroke-linejoin:miter;stroke-width:0.8;"/>
   </g>
   <g id="patch_5">
    <path d="M 57.6 307.584 
L 414.72 307.584 
" style="fill:none;stroke:#000000;stroke-linecap:square;stroke-linejoin:miter;stroke-width:0.8;"/>
   </g>
   <g id="patch_6">
    <path d="M 57.6 41.472 
L 414.72 41.472 
" style="fill:none;stroke:#000000;stroke-linecap:square;stroke-linejoin:miter;stroke-width:0.8;"/>
   </g>
   <g id="text_18">
    <!-- Pressure in main chamber -->
    <defs>
     <path d="M 9.421875 54.6875 
L 18.40625 54.6875 
L 18.40625 0 
L 9.421875 0 
z
M 9.421875 75.984375 
L 18.40625 75.984375 
L 18.40625 64.59375 
L 9.421875 64.59375 
z
" id="DejaVuSans-69"/>
     <path d="M 54.890625 33.015625 
L 54.890625 0 
L 45.90625 0 
L 45.90625 32.71875 
Q 45.90625 40.484375 42.875 44.328125 
Q 39.84375 48.1875 33.796875 48.1875 
Q 26.515625 48.1875 22.3125 43.546875 
Q 18.109375 38.921875 18.109375 30.90625 
L 18.109375 0 
L 9.078125 0 
L 9.078125 54.6875 
L 18.109375 54.6875 
L 18.109375 46.1875 
Q 21.34375 51.125 25.703125 53.5625 
Q 30.078125 56 35.796875 56 
Q 45.21875 56 50.046875 50.171875 
Q 54.890625 44.34375 54.890625 33.015625 
z
" id="DejaVuSans-6e"/>
     <path d="M 52 44.1875 
Q 55.375 50.25 60.0625 53.125 
Q 64.75 56 71.09375 56 
Q 79.640625 56 84.28125 50.015625 
Q 88.921875 44.046875 88.921875 33.015625 
L 88.921875 0 
L 79.890625 0 
L 79.890625 32.71875 
Q 79.890625 40.578125 77.09375 44.375 
Q 74.3125 48.1875 68.609375 48.1875 
Q 61.625 48.1875 57.5625 43.546875 
Q 53.515625 38.921875 53.515625 30.90625 
L 53.515625 0 
L 44.484375 0 
L 44.484375 32.71875 
Q 44.484375 40.625 41.703125 44.40625 
Q 38.921875 48.1875 33.109375 48.1875 
Q 26.21875 48.1875 22.15625 43.53125 
Q 18.109375 38.875 18.109375 30.90625 
L 18.109375 0 
L 9.078125 0 
L 9.078125 54.6875 
L 18.109375 54.6875 
L 18.109375 46.1875 
Q 21.1875 51.21875 25.484375 53.609375 
Q 29.78125 56 35.6875 56 
Q 41.65625 56 45.828125 52.96875 
Q 50 49.953125 52 44.1875 
z
" id="DejaVuSans-6d"/>
     <path d="M 48.78125 52.59375 
L 48.78125 44.1875 
Q 44.96875 46.296875 41.140625 47.34375 
Q 37.3125 48.390625 33.40625 48.390625 
Q 24.65625 48.390625 19.8125 42.84375 
Q 14.984375 37.3125 14.984375 27.296875 
Q 14.984375 17.28125 19.8125 11.734375 
Q 24.65625 6.203125 33.40625 6.203125 
Q 37.3125 6.203125 41.140625 7.25 
Q 44.96875 8.296875 48.78125 10.40625 
L 48.78125 2.09375 
Q 45.015625 0.34375 40.984375 -0.53125 
Q 36.96875 -1.421875 32.421875 -1.421875 
Q 20.0625 -1.421875 12.78125 6.34375 
Q 5.515625 14.109375 5.515625 27.296875 
Q 5.515625 40.671875 12.859375 48.328125 
Q 20.21875 56 33.015625 56 
Q 37.15625 56 41.109375 55.140625 
Q 45.0625 54.296875 48.78125 52.59375 
z
" id="DejaVuSans-63"/>
     <path d="M 54.890625 33.015625 
L 54.890625 0 
L 45.90625 0 
L 45.90625 32.71875 
Q 45.90625 40.484375 42.875 44.328125 
Q 39.84375 48.1875 33.796875 48.1875 
Q 26.515625 48.1875 22.3125 43.546875 
Q 18.109375 38.921875 18.109375 30.90625 
L 18.109375 0 
L 9.078125 0 
L 9.078125 75.984375 
L 18.109375 75.984375 
L 18.109375 46.1875 
Q 21.34375 51.125 25.703125 53.5625 
Q 30.078125 56 35.796875 56 
Q 45.21875 56 50.046875 50.171875 
Q 54.890625 44.34375 54.890625 33.015625 
z
" id="DejaVuSans-68"/>
    </defs>
    <g transform="translate(157.405312 35.472)scale(0.12 -0.12)">
     <use xlink:href="#DejaVuSans-50"/>
     <use x="60.287109" xlink:href="#DejaVuSans-72"/>
     <use x="101.369141" xlink:href="#DejaVuSans-65"/>
     <use x="162.892578" xlink:href="#DejaVuSans-73"/>
     <use x="214.992188" xlink:href="#DejaVuSans-73"/>
     <use x="267.091797" xlink:href="#DejaVuSans-75"/>
     <use x="330.470703" xlink:href="#DejaVuSans-72"/>
     <use x="371.552734" xlink:href="#DejaVuSans-65"/>
     <use x="433.076172" xlink:href="#DejaVuSans-20"/>
     <use x="464.863281" xlink:href="#DejaVuSans-69"/>
     <use x="492.646484" xlink:href="#DejaVuSans-6e"/>
     <use x="556.025391" xlink:href="#DejaVuSans-20"/>
     <use x="587.8125" xlink:href="#DejaVuSans-6d"/>
     <use x="685.224609" xlink:href="#DejaVuSans-61"/>
     <use x="746.503906" xlink:href="#DejaVuSans-69"/>
     <use x="774.287109" xlink:href="#DejaVuSans-6e"/>
     <use x="837.666016" xlink:href="#DejaVuSans-20"/>
     <use x="869.453125" xlink:href="#DejaVuSans-63"/>
     <use x="924.433594" xlink:href="#DejaVuSans-68"/>
     <use x="987.8125" xlink:href="#DejaVuSans-61"/>
     <use x="1049.091797" xlink:href="#DejaVuSans-6d"/>
     <use x="1146.503906" xlink:href="#DejaVuSans-62"/>
     <use x="1209.980469" xlink:href="#DejaVuSans-65"/>
     <use x="1271.503906" xlink:href="#DejaVuSans-72"/>
    </g>
   </g>
  </g>
 </g>
 <defs>
  <clipPath id="p2e92fc5fa2">
   <rect height="266.112" width="357.12" x="57.6" y="41.472"/>
  </clipPath>
 </defs>
</svg>
