<?xml version="1.0" encoding="utf-8" standalone="no"?>
<!DOCTYPE svg PUBLIC "-//W3C//DTD SVG 1.1//EN"
  "http://www.w3.org/Graphics/SVG/1.1/DTD/svg11.dtd">
<!-- Created with matplotlib (http://matplotlib.org/) -->
<svg height="345pt" version="1.1" viewBox="0 0 460 345" width="460pt" xmlns="http://www.w3.org/2000/svg" xmlns:xlink="http://www.w3.org/1999/xlink">
 <defs>
  <style type="text/css">
*{stroke-linecap:butt;stroke-linejoin:round;}
  </style>
 </defs>
 <g id="figure_1">
  <g id="patch_1">
   <path d="M 0 345.6 
L 460.8 345.6 
L 460.8 0 
L 0 0 
z
" style="fill:#ffffff;"/>
  </g>
  <g id="axes_1">
   <g id="patch_2">
    <path d="M 57.6 307.584 
L 414.72 307.584 
L 414.72 41.472 
L 57.6 41.472 
z
" style="fill:#ffffff;"/>
   </g>
   <g id="matplotlib.axis_1">
    <g id="xtick_1">
     <g id="line2d_1">
      <defs>
       <path d="M 0 0 
L 0 3.5 
" id="me526ec5327" style="stroke:#000000;stroke-width:0.8;"/>
      </defs>
      <g>
       <use style="stroke:#000000;stroke-width:0.8;" x="73.832727" xlink:href="#me526ec5327" y="307.584"/>
      </g>
     </g>
     <g id="text_1">
      <!-- 0 -->
      <defs>
       <path d="M 31.78125 66.40625 
Q 24.171875 66.40625 20.328125 58.90625 
Q 16.5 51.421875 16.5 36.375 
Q 16.5 21.390625 20.328125 13.890625 
Q 24.171875 6.390625 31.78125 6.390625 
Q 39.453125 6.390625 43.28125 13.890625 
Q 47.125 21.390625 47.125 36.375 
Q 47.125 51.421875 43.28125 58.90625 
Q 39.453125 66.40625 31.78125 66.40625 
z
M 31.78125 74.21875 
Q 44.046875 74.21875 50.515625 64.515625 
Q 56.984375 54.828125 56.984375 36.375 
Q 56.984375 17.96875 50.515625 8.265625 
Q 44.046875 -1.421875 31.78125 -1.421875 
Q 19.53125 -1.421875 13.0625 8.265625 
Q 6.59375 17.96875 6.59375 36.375 
Q 6.59375 54.828125 13.0625 64.515625 
Q 19.53125 74.21875 31.78125 74.21875 
z
" id="DejaVuSans-30"/>
      </defs>
      <g transform="translate(70.651477 322.182437)scale(0.1 -0.1)">
       <use xlink:href="#DejaVuSans-30"/>
      </g>
     </g>
    </g>
    <g id="xtick_2">
     <g id="line2d_2">
      <g>
       <use style="stroke:#000000;stroke-width:0.8;" x="128.02374" xlink:href="#me526ec5327" y="307.584"/>
      </g>
     </g>
     <g id="text_2">
      <!-- 100 -->
      <defs>
       <path d="M 12.40625 8.296875 
L 28.515625 8.296875 
L 28.515625 63.921875 
L 10.984375 60.40625 
L 10.984375 69.390625 
L 28.421875 72.90625 
L 38.28125 72.90625 
L 38.28125 8.296875 
L 54.390625 8.296875 
L 54.390625 0 
L 12.40625 0 
z
" id="DejaVuSans-31"/>
      </defs>
      <g transform="translate(118.47999 322.182437)scale(0.1 -0.1)">
       <use xlink:href="#DejaVuSans-31"/>
       <use x="63.623047" xlink:href="#DejaVuSans-30"/>
       <use x="127.246094" xlink:href="#DejaVuSans-30"/>
      </g>
     </g>
    </g>
    <g id="xtick_3">
     <g id="line2d_3">
      <g>
       <use style="stroke:#000000;stroke-width:0.8;" x="182.214752" xlink:href="#me526ec5327" y="307.584"/>
      </g>
     </g>
     <g id="text_3">
      <!-- 200 -->
      <defs>
       <path d="M 19.1875 8.296875 
L 53.609375 8.296875 
L 53.609375 0 
L 7.328125 0 
L 7.328125 8.296875 
Q 12.9375 14.109375 22.625 23.890625 
Q 32.328125 33.6875 34.8125 36.53125 
Q 39.546875 41.84375 41.421875 45.53125 
Q 43.3125 49.21875 43.3125 52.78125 
Q 43.3125 58.59375 39.234375 62.25 
Q 35.15625 65.921875 28.609375 65.921875 
Q 23.96875 65.921875 18.8125 64.3125 
Q 13.671875 62.703125 7.8125 59.421875 
L 7.8125 69.390625 
Q 13.765625 71.78125 18.9375 73 
Q 24.125 74.21875 28.421875 74.21875 
Q 39.75 74.21875 46.484375 68.546875 
Q 53.21875 62.890625 53.21875 53.421875 
Q 53.21875 48.921875 51.53125 44.890625 
Q 49.859375 40.875 45.40625 35.40625 
Q 44.1875 33.984375 37.640625 27.21875 
Q 31.109375 20.453125 19.1875 8.296875 
z
" id="DejaVuSans-32"/>
      </defs>
      <g transform="translate(172.671002 322.182437)scale(0.1 -0.1)">
       <use xlink:href="#DejaVuSans-32"/>
       <use x="63.623047" xlink:href="#DejaVuSans-30"/>
       <use x="127.246094" xlink:href="#DejaVuSans-30"/>
      </g>
     </g>
    </g>
    <g id="xtick_4">
     <g id="line2d_4">
      <g>
       <use style="stroke:#000000;stroke-width:0.8;" x="236.405764" xlink:href="#me526ec5327" y="307.584"/>
      </g>
     </g>
     <g id="text_4">
      <!-- 300 -->
      <defs>
       <path d="M 40.578125 39.3125 
Q 47.65625 37.796875 51.625 33 
Q 55.609375 28.21875 55.609375 21.1875 
Q 55.609375 10.40625 48.1875 4.484375 
Q 40.765625 -1.421875 27.09375 -1.421875 
Q 22.515625 -1.421875 17.65625 -0.515625 
Q 12.796875 0.390625 7.625 2.203125 
L 7.625 11.71875 
Q 11.71875 9.328125 16.59375 8.109375 
Q 21.484375 6.890625 26.8125 6.890625 
Q 36.078125 6.890625 40.9375 10.546875 
Q 45.796875 14.203125 45.796875 21.1875 
Q 45.796875 27.640625 41.28125 31.265625 
Q 36.765625 34.90625 28.71875 34.90625 
L 20.21875 34.90625 
L 20.21875 43.015625 
L 29.109375 43.015625 
Q 36.375 43.015625 40.234375 45.921875 
Q 44.09375 48.828125 44.09375 54.296875 
Q 44.09375 59.90625 40.109375 62.90625 
Q 36.140625 65.921875 28.71875 65.921875 
Q 24.65625 65.921875 20.015625 65.03125 
Q 15.375 64.15625 9.8125 62.3125 
L 9.8125 71.09375 
Q 15.4375 72.65625 20.34375 73.4375 
Q 25.25 74.21875 29.59375 74.21875 
Q 40.828125 74.21875 47.359375 69.109375 
Q 53.90625 64.015625 53.90625 55.328125 
Q 53.90625 49.265625 50.4375 45.09375 
Q 46.96875 40.921875 40.578125 39.3125 
z
" id="DejaVuSans-33"/>
      </defs>
      <g transform="translate(226.862014 322.182437)scale(0.1 -0.1)">
       <use xlink:href="#DejaVuSans-33"/>
       <use x="63.623047" xlink:href="#DejaVuSans-30"/>
       <use x="127.246094" xlink:href="#DejaVuSans-30"/>
      </g>
     </g>
    </g>
    <g id="xtick_5">
     <g id="line2d_5">
      <g>
       <use style="stroke:#000000;stroke-width:0.8;" x="290.596776" xlink:href="#me526ec5327" y="307.584"/>
      </g>
     </g>
     <g id="text_5">
      <!-- 400 -->
      <defs>
       <path d="M 37.796875 64.3125 
L 12.890625 25.390625 
L 37.796875 25.390625 
z
M 35.203125 72.90625 
L 47.609375 72.90625 
L 47.609375 25.390625 
L 58.015625 25.390625 
L 58.015625 17.1875 
L 47.609375 17.1875 
L 47.609375 0 
L 37.796875 0 
L 37.796875 17.1875 
L 4.890625 17.1875 
L 4.890625 26.703125 
z
" id="DejaVuSans-34"/>
      </defs>
      <g transform="translate(281.053026 322.182437)scale(0.1 -0.1)">
       <use xlink:href="#DejaVuSans-34"/>
       <use x="63.623047" xlink:href="#DejaVuSans-30"/>
       <use x="127.246094" xlink:href="#DejaVuSans-30"/>
      </g>
     </g>
    </g>
    <g id="xtick_6">
     <g id="line2d_6">
      <g>
       <use style="stroke:#000000;stroke-width:0.8;" x="344.787789" xlink:href="#me526ec5327" y="307.584"/>
      </g>
     </g>
     <g id="text_6">
      <!-- 500 -->
      <defs>
       <path d="M 10.796875 72.90625 
L 49.515625 72.90625 
L 49.515625 64.59375 
L 19.828125 64.59375 
L 19.828125 46.734375 
Q 21.96875 47.46875 24.109375 47.828125 
Q 26.265625 48.1875 28.421875 48.1875 
Q 40.625 48.1875 47.75 41.5 
Q 54.890625 34.8125 54.890625 23.390625 
Q 54.890625 11.625 47.5625 5.09375 
Q 40.234375 -1.421875 26.90625 -1.421875 
Q 22.3125 -1.421875 17.546875 -0.640625 
Q 12.796875 0.140625 7.71875 1.703125 
L 7.71875 11.625 
Q 12.109375 9.234375 16.796875 8.0625 
Q 21.484375 6.890625 26.703125 6.890625 
Q 35.15625 6.890625 40.078125 11.328125 
Q 45.015625 15.765625 45.015625 23.390625 
Q 45.015625 31 40.078125 35.4375 
Q 35.15625 39.890625 26.703125 39.890625 
Q 22.75 39.890625 18.8125 39.015625 
Q 14.890625 38.140625 10.796875 36.28125 
z
" id="DejaVuSans-35"/>
      </defs>
      <g transform="translate(335.244039 322.182437)scale(0.1 -0.1)">
       <use xlink:href="#DejaVuSans-35"/>
       <use x="63.623047" xlink:href="#DejaVuSans-30"/>
       <use x="127.246094" xlink:href="#DejaVuSans-30"/>
      </g>
     </g>
    </g>
    <g id="xtick_7">
     <g id="line2d_7">
      <g>
       <use style="stroke:#000000;stroke-width:0.8;" x="398.978801" xlink:href="#me526ec5327" y="307.584"/>
      </g>
     </g>
     <g id="text_7">
      <!-- 600 -->
      <defs>
       <path d="M 33.015625 40.375 
Q 26.375 40.375 22.484375 35.828125 
Q 18.609375 31.296875 18.609375 23.390625 
Q 18.609375 15.53125 22.484375 10.953125 
Q 26.375 6.390625 33.015625 6.390625 
Q 39.65625 6.390625 43.53125 10.953125 
Q 47.40625 15.53125 47.40625 23.390625 
Q 47.40625 31.296875 43.53125 35.828125 
Q 39.65625 40.375 33.015625 40.375 
z
M 52.59375 71.296875 
L 52.59375 62.3125 
Q 48.875 64.0625 45.09375 64.984375 
Q 41.3125 65.921875 37.59375 65.921875 
Q 27.828125 65.921875 22.671875 59.328125 
Q 17.53125 52.734375 16.796875 39.40625 
Q 19.671875 43.65625 24.015625 45.921875 
Q 28.375 48.1875 33.59375 48.1875 
Q 44.578125 48.1875 50.953125 41.515625 
Q 57.328125 34.859375 57.328125 23.390625 
Q 57.328125 12.15625 50.6875 5.359375 
Q 44.046875 -1.421875 33.015625 -1.421875 
Q 20.359375 -1.421875 13.671875 8.265625 
Q 6.984375 17.96875 6.984375 36.375 
Q 6.984375 53.65625 15.1875 63.9375 
Q 23.390625 74.21875 37.203125 74.21875 
Q 40.921875 74.21875 44.703125 73.484375 
Q 48.484375 72.75 52.59375 71.296875 
z
" id="DejaVuSans-36"/>
      </defs>
      <g transform="translate(389.435051 322.182437)scale(0.1 -0.1)">
       <use xlink:href="#DejaVuSans-36"/>
       <use x="63.623047" xlink:href="#DejaVuSans-30"/>
       <use x="127.246094" xlink:href="#DejaVuSans-30"/>
      </g>
     </g>
    </g>
    <g id="text_8">
     <!-- t(s) -->
     <defs>
      <path d="M 18.3125 70.21875 
L 18.3125 54.6875 
L 36.8125 54.6875 
L 36.8125 47.703125 
L 18.3125 47.703125 
L 18.3125 18.015625 
Q 18.3125 11.328125 20.140625 9.421875 
Q 21.96875 7.515625 27.59375 7.515625 
L 36.8125 7.515625 
L 36.8125 0 
L 27.59375 0 
Q 17.1875 0 13.234375 3.875 
Q 9.28125 7.765625 9.28125 18.015625 
L 9.28125 47.703125 
L 2.6875 47.703125 
L 2.6875 54.6875 
L 9.28125 54.6875 
L 9.28125 70.21875 
z
" id="DejaVuSans-74"/>
      <path d="M 31 75.875 
Q 24.46875 64.65625 21.28125 53.65625 
Q 18.109375 42.671875 18.109375 31.390625 
Q 18.109375 20.125 21.3125 9.0625 
Q 24.515625 -2 31 -13.1875 
L 23.1875 -13.1875 
Q 15.875 -1.703125 12.234375 9.375 
Q 8.59375 20.453125 8.59375 31.390625 
Q 8.59375 42.28125 12.203125 53.3125 
Q 15.828125 64.359375 23.1875 75.875 
z
" id="DejaVuSans-28"/>
      <path d="M 44.28125 53.078125 
L 44.28125 44.578125 
Q 40.484375 46.53125 36.375 47.5 
Q 32.28125 48.484375 27.875 48.484375 
Q 21.1875 48.484375 17.84375 46.4375 
Q 14.5 44.390625 14.5 40.28125 
Q 14.5 37.15625 16.890625 35.375 
Q 19.28125 33.59375 26.515625 31.984375 
L 29.59375 31.296875 
Q 39.15625 29.25 43.1875 25.515625 
Q 47.21875 21.78125 47.21875 15.09375 
Q 47.21875 7.46875 41.1875 3.015625 
Q 35.15625 -1.421875 24.609375 -1.421875 
Q 20.21875 -1.421875 15.453125 -0.5625 
Q 10.6875 0.296875 5.421875 2 
L 5.421875 11.28125 
Q 10.40625 8.6875 15.234375 7.390625 
Q 20.0625 6.109375 24.8125 6.109375 
Q 31.15625 6.109375 34.5625 8.28125 
Q 37.984375 10.453125 37.984375 14.40625 
Q 37.984375 18.0625 35.515625 20.015625 
Q 33.0625 21.96875 24.703125 23.78125 
L 21.578125 24.515625 
Q 13.234375 26.265625 9.515625 29.90625 
Q 5.8125 33.546875 5.8125 39.890625 
Q 5.8125 47.609375 11.28125 51.796875 
Q 16.75 56 26.8125 56 
Q 31.78125 56 36.171875 55.265625 
Q 40.578125 54.546875 44.28125 53.078125 
z
" id="DejaVuSans-73"/>
      <path d="M 8.015625 75.875 
L 15.828125 75.875 
Q 23.140625 64.359375 26.78125 53.3125 
Q 30.421875 42.28125 30.421875 31.390625 
Q 30.421875 20.453125 26.78125 9.375 
Q 23.140625 -1.703125 15.828125 -13.1875 
L 8.015625 -13.1875 
Q 14.5 -2 17.703125 9.0625 
Q 20.90625 20.125 20.90625 31.390625 
Q 20.90625 42.671875 17.703125 53.65625 
Q 14.5 64.65625 8.015625 75.875 
z
" id="DejaVuSans-29"/>
     </defs>
     <g transform="translate(227.693594 335.860562)scale(0.1 -0.1)">
      <use xlink:href="#DejaVuSans-74"/>
      <use x="39.208984" xlink:href="#DejaVuSans-28"/>
      <use x="78.222656" xlink:href="#DejaVuSans-73"/>
      <use x="130.322266" xlink:href="#DejaVuSans-29"/>
     </g>
    </g>
   </g>
   <g id="matplotlib.axis_2">
    <g id="ytick_1">
     <g id="line2d_8">
      <defs>
       <path d="M 0 0 
L -3.5 0 
" id="m64baf28762" style="stroke:#000000;stroke-width:0.8;"/>
      </defs>
      <g>
       <use style="stroke:#000000;stroke-width:0.8;" x="57.6" xlink:href="#m64baf28762" y="295.488"/>
      </g>
     </g>
     <g id="text_9">
      <!-- 0.000 -->
      <defs>
       <path d="M 10.6875 12.40625 
L 21 12.40625 
L 21 0 
L 10.6875 0 
z
" id="DejaVuSans-2e"/>
      </defs>
      <g transform="translate(21.971875 299.287219)scale(0.1 -0.1)">
       <use xlink:href="#DejaVuSans-30"/>
       <use x="63.623047" xlink:href="#DejaVuSans-2e"/>
       <use x="95.410156" xlink:href="#DejaVuSans-30"/>
       <use x="159.033203" xlink:href="#DejaVuSans-30"/>
       <use x="222.65625" xlink:href="#DejaVuSans-30"/>
      </g>
     </g>
    </g>
    <g id="ytick_2">
     <g id="line2d_9">
      <g>
       <use style="stroke:#000000;stroke-width:0.8;" x="57.6" xlink:href="#m64baf28762" y="265.248"/>
      </g>
     </g>
     <g id="text_10">
      <!-- 0.001 -->
      <g transform="translate(21.971875 269.047219)scale(0.1 -0.1)">
       <use xlink:href="#DejaVuSans-30"/>
       <use x="63.623047" xlink:href="#DejaVuSans-2e"/>
       <use x="95.410156" xlink:href="#DejaVuSans-30"/>
       <use x="159.033203" xlink:href="#DejaVuSans-30"/>
       <use x="222.65625" xlink:href="#DejaVuSans-31"/>
      </g>
     </g>
    </g>
    <g id="ytick_3">
     <g id="line2d_10">
      <g>
       <use style="stroke:#000000;stroke-width:0.8;" x="57.6" xlink:href="#m64baf28762" y="235.008"/>
      </g>
     </g>
     <g id="text_11">
      <!-- 0.002 -->
      <g transform="translate(21.971875 238.807219)scale(0.1 -0.1)">
       <use xlink:href="#DejaVuSans-30"/>
       <use x="63.623047" xlink:href="#DejaVuSans-2e"/>
       <use x="95.410156" xlink:href="#DejaVuSans-30"/>
       <use x="159.033203" xlink:href="#DejaVuSans-30"/>
       <use x="222.65625" xlink:href="#DejaVuSans-32"/>
      </g>
     </g>
    </g>
    <g id="ytick_4">
     <g id="line2d_11">
      <g>
       <use style="stroke:#000000;stroke-width:0.8;" x="57.6" xlink:href="#m64baf28762" y="204.768"/>
      </g>
     </g>
     <g id="text_12">
      <!-- 0.003 -->
      <g transform="translate(21.971875 208.567219)scale(0.1 -0.1)">
       <use xlink:href="#DejaVuSans-30"/>
       <use x="63.623047" xlink:href="#DejaVuSans-2e"/>
       <use x="95.410156" xlink:href="#DejaVuSans-30"/>
       <use x="159.033203" xlink:href="#DejaVuSans-30"/>
       <use x="222.65625" xlink:href="#DejaVuSans-33"/>
      </g>
     </g>
    </g>
    <g id="ytick_5">
     <g id="line2d_12">
      <g>
       <use style="stroke:#000000;stroke-width:0.8;" x="57.6" xlink:href="#m64baf28762" y="174.528"/>
      </g>
     </g>
     <g id="text_13">
      <!-- 0.004 -->
      <g transform="translate(21.971875 178.327219)scale(0.1 -0.1)">
       <use xlink:href="#DejaVuSans-30"/>
       <use x="63.623047" xlink:href="#DejaVuSans-2e"/>
       <use x="95.410156" xlink:href="#DejaVuSans-30"/>
       <use x="159.033203" xlink:href="#DejaVuSans-30"/>
       <use x="222.65625" xlink:href="#DejaVuSans-34"/>
      </g>
     </g>
    </g>
    <g id="ytick_6">
     <g id="line2d_13">
      <g>
       <use style="stroke:#000000;stroke-width:0.8;" x="57.6" xlink:href="#m64baf28762" y="144.288"/>
      </g>
     </g>
     <g id="text_14">
      <!-- 0.005 -->
      <g transform="translate(21.971875 148.087219)scale(0.1 -0.1)">
       <use xlink:href="#DejaVuSans-30"/>
       <use x="63.623047" xlink:href="#DejaVuSans-2e"/>
       <use x="95.410156" xlink:href="#DejaVuSans-30"/>
       <use x="159.033203" xlink:href="#DejaVuSans-30"/>
       <use x="222.65625" xlink:href="#DejaVuSans-35"/>
      </g>
     </g>
    </g>
    <g id="ytick_7">
     <g id="line2d_14">
      <g>
       <use style="stroke:#000000;stroke-width:0.8;" x="57.6" xlink:href="#m64baf28762" y="114.048"/>
      </g>
     </g>
     <g id="text_15">
      <!-- 0.006 -->
      <g transform="translate(21.971875 117.847219)scale(0.1 -0.1)">
       <use xlink:href="#DejaVuSans-30"/>
       <use x="63.623047" xlink:href="#DejaVuSans-2e"/>
       <use x="95.410156" xlink:href="#DejaVuSans-30"/>
       <use x="159.033203" xlink:href="#DejaVuSans-30"/>
       <use x="222.65625" xlink:href="#DejaVuSans-36"/>
      </g>
     </g>
    </g>
    <g id="ytick_8">
     <g id="line2d_15">
      <g>
       <use style="stroke:#000000;stroke-width:0.8;" x="57.6" xlink:href="#m64baf28762" y="83.808"/>
      </g>
     </g>
     <g id="text_16">
      <!-- 0.007 -->
      <defs>
       <path d="M 8.203125 72.90625 
L 55.078125 72.90625 
L 55.078125 68.703125 
L 28.609375 0 
L 18.3125 0 
L 43.21875 64.59375 
L 8.203125 64.59375 
z
" id="DejaVuSans-37"/>
      </defs>
      <g transform="translate(21.971875 87.607219)scale(0.1 -0.1)">
       <use xlink:href="#DejaVuSans-30"/>
       <use x="63.623047" xlink:href="#DejaVuSans-2e"/>
       <use x="95.410156" xlink:href="#DejaVuSans-30"/>
       <use x="159.033203" xlink:href="#DejaVuSans-30"/>
       <use x="222.65625" xlink:href="#DejaVuSans-37"/>
      </g>
     </g>
    </g>
    <g id="ytick_9">
     <g id="line2d_16">
      <g>
       <use style="stroke:#000000;stroke-width:0.8;" x="57.6" xlink:href="#m64baf28762" y="53.568"/>
      </g>
     </g>
     <g id="text_17">
      <!-- 0.008 -->
      <defs>
       <path d="M 31.78125 34.625 
Q 24.75 34.625 20.71875 30.859375 
Q 16.703125 27.09375 16.703125 20.515625 
Q 16.703125 13.921875 20.71875 10.15625 
Q 24.75 6.390625 31.78125 6.390625 
Q 38.8125 6.390625 42.859375 10.171875 
Q 46.921875 13.96875 46.921875 20.515625 
Q 46.921875 27.09375 42.890625 30.859375 
Q 38.875 34.625 31.78125 34.625 
z
M 21.921875 38.8125 
Q 15.578125 40.375 12.03125 44.71875 
Q 8.5 49.078125 8.5 55.328125 
Q 8.5 64.0625 14.71875 69.140625 
Q 20.953125 74.21875 31.78125 74.21875 
Q 42.671875 74.21875 48.875 69.140625 
Q 55.078125 64.0625 55.078125 55.328125 
Q 55.078125 49.078125 51.53125 44.71875 
Q 48 40.375 41.703125 38.8125 
Q 48.828125 37.15625 52.796875 32.3125 
Q 56.78125 27.484375 56.78125 20.515625 
Q 56.78125 9.90625 50.3125 4.234375 
Q 43.84375 -1.421875 31.78125 -1.421875 
Q 19.734375 -1.421875 13.25 4.234375 
Q 6.78125 9.90625 6.78125 20.515625 
Q 6.78125 27.484375 10.78125 32.3125 
Q 14.796875 37.15625 21.921875 38.8125 
z
M 18.3125 54.390625 
Q 18.3125 48.734375 21.84375 45.5625 
Q 25.390625 42.390625 31.78125 42.390625 
Q 38.140625 42.390625 41.71875 45.5625 
Q 45.3125 48.734375 45.3125 54.390625 
Q 45.3125 60.0625 41.71875 63.234375 
Q 38.140625 66.40625 31.78125 66.40625 
Q 25.390625 66.40625 21.84375 63.234375 
Q 18.3125 60.0625 18.3125 54.390625 
z
" id="DejaVuSans-38"/>
      </defs>
      <g transform="translate(21.971875 57.367219)scale(0.1 -0.1)">
       <use xlink:href="#DejaVuSans-30"/>
       <use x="63.623047" xlink:href="#DejaVuSans-2e"/>
       <use x="95.410156" xlink:href="#DejaVuSans-30"/>
       <use x="159.033203" xlink:href="#DejaVuSans-30"/>
       <use x="222.65625" xlink:href="#DejaVuSans-38"/>
      </g>
     </g>
    </g>
    <g id="text_18">
     <!-- Temperature (*C) -->
     <defs>
      <path d="M -0.296875 72.90625 
L 61.375 72.90625 
L 61.375 64.59375 
L 35.5 64.59375 
L 35.5 0 
L 25.59375 0 
L 25.59375 64.59375 
L -0.296875 64.59375 
z
" id="DejaVuSans-54"/>
      <path d="M 56.203125 29.59375 
L 56.203125 25.203125 
L 14.890625 25.203125 
Q 15.484375 15.921875 20.484375 11.0625 
Q 25.484375 6.203125 34.421875 6.203125 
Q 39.59375 6.203125 44.453125 7.46875 
Q 49.3125 8.734375 54.109375 11.28125 
L 54.109375 2.78125 
Q 49.265625 0.734375 44.1875 -0.34375 
Q 39.109375 -1.421875 33.890625 -1.421875 
Q 20.796875 -1.421875 13.15625 6.1875 
Q 5.515625 13.8125 5.515625 26.8125 
Q 5.515625 40.234375 12.765625 48.109375 
Q 20.015625 56 32.328125 56 
Q 43.359375 56 49.78125 48.890625 
Q 56.203125 41.796875 56.203125 29.59375 
z
M 47.21875 32.234375 
Q 47.125 39.59375 43.09375 43.984375 
Q 39.0625 48.390625 32.421875 48.390625 
Q 24.90625 48.390625 20.390625 44.140625 
Q 15.875 39.890625 15.1875 32.171875 
z
" id="DejaVuSans-65"/>
      <path d="M 52 44.1875 
Q 55.375 50.25 60.0625 53.125 
Q 64.75 56 71.09375 56 
Q 79.640625 56 84.28125 50.015625 
Q 88.921875 44.046875 88.921875 33.015625 
L 88.921875 0 
L 79.890625 0 
L 79.890625 32.71875 
Q 79.890625 40.578125 77.09375 44.375 
Q 74.3125 48.1875 68.609375 48.1875 
Q 61.625 48.1875 57.5625 43.546875 
Q 53.515625 38.921875 53.515625 30.90625 
L 53.515625 0 
L 44.484375 0 
L 44.484375 32.71875 
Q 44.484375 40.625 41.703125 44.40625 
Q 38.921875 48.1875 33.109375 48.1875 
Q 26.21875 48.1875 22.15625 43.53125 
Q 18.109375 38.875 18.109375 30.90625 
L 18.109375 0 
L 9.078125 0 
L 9.078125 54.6875 
L 18.109375 54.6875 
L 18.109375 46.1875 
Q 21.1875 51.21875 25.484375 53.609375 
Q 29.78125 56 35.6875 56 
Q 41.65625 56 45.828125 52.96875 
Q 50 49.953125 52 44.1875 
z
" id="DejaVuSans-6d"/>
      <path d="M 18.109375 8.203125 
L 18.109375 -20.796875 
L 9.078125 -20.796875 
L 9.078125 54.6875 
L 18.109375 54.6875 
L 18.109375 46.390625 
Q 20.953125 51.265625 25.265625 53.625 
Q 29.59375 56 35.59375 56 
Q 45.5625 56 51.78125 48.09375 
Q 58.015625 40.1875 58.015625 27.296875 
Q 58.015625 14.40625 51.78125 6.484375 
Q 45.5625 -1.421875 35.59375 -1.421875 
Q 29.59375 -1.421875 25.265625 0.953125 
Q 20.953125 3.328125 18.109375 8.203125 
z
M 48.6875 27.296875 
Q 48.6875 37.203125 44.609375 42.84375 
Q 40.53125 48.484375 33.40625 48.484375 
Q 26.265625 48.484375 22.1875 42.84375 
Q 18.109375 37.203125 18.109375 27.296875 
Q 18.109375 17.390625 22.1875 11.75 
Q 26.265625 6.109375 33.40625 6.109375 
Q 40.53125 6.109375 44.609375 11.75 
Q 48.6875 17.390625 48.6875 27.296875 
z
" id="DejaVuSans-70"/>
      <path d="M 41.109375 46.296875 
Q 39.59375 47.171875 37.8125 47.578125 
Q 36.03125 48 33.890625 48 
Q 26.265625 48 22.1875 43.046875 
Q 18.109375 38.09375 18.109375 28.8125 
L 18.109375 0 
L 9.078125 0 
L 9.078125 54.6875 
L 18.109375 54.6875 
L 18.109375 46.1875 
Q 20.953125 51.171875 25.484375 53.578125 
Q 30.03125 56 36.53125 56 
Q 37.453125 56 38.578125 55.875 
Q 39.703125 55.765625 41.0625 55.515625 
z
" id="DejaVuSans-72"/>
      <path d="M 34.28125 27.484375 
Q 23.390625 27.484375 19.1875 25 
Q 14.984375 22.515625 14.984375 16.5 
Q 14.984375 11.71875 18.140625 8.90625 
Q 21.296875 6.109375 26.703125 6.109375 
Q 34.1875 6.109375 38.703125 11.40625 
Q 43.21875 16.703125 43.21875 25.484375 
L 43.21875 27.484375 
z
M 52.203125 31.203125 
L 52.203125 0 
L 43.21875 0 
L 43.21875 8.296875 
Q 40.140625 3.328125 35.546875 0.953125 
Q 30.953125 -1.421875 24.3125 -1.421875 
Q 15.921875 -1.421875 10.953125 3.296875 
Q 6 8.015625 6 15.921875 
Q 6 25.140625 12.171875 29.828125 
Q 18.359375 34.515625 30.609375 34.515625 
L 43.21875 34.515625 
L 43.21875 35.40625 
Q 43.21875 41.609375 39.140625 45 
Q 35.0625 48.390625 27.6875 48.390625 
Q 23 48.390625 18.546875 47.265625 
Q 14.109375 46.140625 10.015625 43.890625 
L 10.015625 52.203125 
Q 14.9375 54.109375 19.578125 55.046875 
Q 24.21875 56 28.609375 56 
Q 40.484375 56 46.34375 49.84375 
Q 52.203125 43.703125 52.203125 31.203125 
z
" id="DejaVuSans-61"/>
      <path d="M 8.5 21.578125 
L 8.5 54.6875 
L 17.484375 54.6875 
L 17.484375 21.921875 
Q 17.484375 14.15625 20.5 10.265625 
Q 23.53125 6.390625 29.59375 6.390625 
Q 36.859375 6.390625 41.078125 11.03125 
Q 45.3125 15.671875 45.3125 23.6875 
L 45.3125 54.6875 
L 54.296875 54.6875 
L 54.296875 0 
L 45.3125 0 
L 45.3125 8.40625 
Q 42.046875 3.421875 37.71875 1 
Q 33.40625 -1.421875 27.6875 -1.421875 
Q 18.265625 -1.421875 13.375 4.4375 
Q 8.5 10.296875 8.5 21.578125 
z
M 31.109375 56 
z
" id="DejaVuSans-75"/>
      <path id="DejaVuSans-20"/>
      <path d="M 47.015625 60.890625 
L 29.5 51.421875 
L 47.015625 41.890625 
L 44.1875 37.109375 
L 27.78125 47.015625 
L 27.78125 28.609375 
L 22.21875 28.609375 
L 22.21875 47.015625 
L 5.8125 37.109375 
L 2.984375 41.890625 
L 20.515625 51.421875 
L 2.984375 60.890625 
L 5.8125 65.71875 
L 22.21875 55.8125 
L 22.21875 74.21875 
L 27.78125 74.21875 
L 27.78125 55.8125 
L 44.1875 65.71875 
z
" id="DejaVuSans-2a"/>
      <path d="M 64.40625 67.28125 
L 64.40625 56.890625 
Q 59.421875 61.53125 53.78125 63.8125 
Q 48.140625 66.109375 41.796875 66.109375 
Q 29.296875 66.109375 22.65625 58.46875 
Q 16.015625 50.828125 16.015625 36.375 
Q 16.015625 21.96875 22.65625 14.328125 
Q 29.296875 6.6875 41.796875 6.6875 
Q 48.140625 6.6875 53.78125 8.984375 
Q 59.421875 11.28125 64.40625 15.921875 
L 64.40625 5.609375 
Q 59.234375 2.09375 53.4375 0.328125 
Q 47.65625 -1.421875 41.21875 -1.421875 
Q 24.65625 -1.421875 15.125 8.703125 
Q 5.609375 18.84375 5.609375 36.375 
Q 5.609375 53.953125 15.125 64.078125 
Q 24.65625 74.21875 41.21875 74.21875 
Q 47.75 74.21875 53.53125 72.484375 
Q 59.328125 70.75 64.40625 67.28125 
z
" id="DejaVuSans-43"/>
     </defs>
     <g transform="translate(15.892187 218.627219)rotate(-90)scale(0.1 -0.1)">
      <use xlink:href="#DejaVuSans-54"/>
      <use x="60.818359" xlink:href="#DejaVuSans-65"/>
      <use x="122.341797" xlink:href="#DejaVuSans-6d"/>
      <use x="219.753906" xlink:href="#DejaVuSans-70"/>
      <use x="283.230469" xlink:href="#DejaVuSans-65"/>
      <use x="344.753906" xlink:href="#DejaVuSans-72"/>
      <use x="385.867188" xlink:href="#DejaVuSans-61"/>
      <use x="447.146484" xlink:href="#DejaVuSans-74"/>
      <use x="486.355469" xlink:href="#DejaVuSans-75"/>
      <use x="549.734375" xlink:href="#DejaVuSans-72"/>
      <use x="590.816406" xlink:href="#DejaVuSans-65"/>
      <use x="652.339844" xlink:href="#DejaVuSans-20"/>
      <use x="684.126953" xlink:href="#DejaVuSans-28"/>
      <use x="723.140625" xlink:href="#DejaVuSans-2a"/>
      <use x="773.140625" xlink:href="#DejaVuSans-43"/>
      <use x="842.964844" xlink:href="#DejaVuSans-29"/>
     </g>
    </g>
    <g id="text_19">
     <!-- +2.5e1 -->
     <defs>
      <path d="M 46 62.703125 
L 46 35.5 
L 73.1875 35.5 
L 73.1875 27.203125 
L 46 27.203125 
L 46 0 
L 37.796875 0 
L 37.796875 27.203125 
L 10.59375 27.203125 
L 10.59375 35.5 
L 37.796875 35.5 
L 37.796875 62.703125 
z
" id="DejaVuSans-2b"/>
     </defs>
     <g transform="translate(57.6 38.472)scale(0.1 -0.1)">
      <use xlink:href="#DejaVuSans-2b"/>
      <use x="83.789062" xlink:href="#DejaVuSans-32"/>
      <use x="147.412109" xlink:href="#DejaVuSans-2e"/>
      <use x="179.199219" xlink:href="#DejaVuSans-35"/>
      <use x="242.822266" xlink:href="#DejaVuSans-65"/>
      <use x="304.345703" xlink:href="#DejaVuSans-31"/>
     </g>
    </g>
   </g>
   <g id="line2d_17">
    <path clip-path="url(#p7fd76b1a07)" d="M 73.832727 295.488 
L 398.487273 295.488 
L 398.487273 295.488 
" style="fill:none;stroke:#1f77b4;stroke-linecap:square;stroke-width:1.5;"/>
   </g>
   <g id="line2d_18">
    <path clip-path="url(#p7fd76b1a07)" d="M 73.832727 114.048 
L 74.374637 114.048 
L 74.916548 204.768 
L 75.458458 144.288 
L 76.000368 114.048 
L 76.542278 204.768 
L 77.084188 144.288 
L 77.626098 204.768 
L 78.168008 174.528 
L 78.709918 174.528 
L 79.25237 144.288 
L 79.79428 204.768 
L 80.336191 144.288 
L 80.878101 204.768 
L 81.420011 204.768 
L 81.961921 114.048 
L 82.503831 204.768 
L 83.587651 204.768 
L 84.129561 114.048 
L 84.671472 144.288 
L 85.213382 204.768 
L 86.297202 144.288 
L 86.839112 144.288 
L 87.381022 204.768 
L 88.464842 144.288 
L 89.006753 174.528 
L 89.548663 174.528 
L 90.632483 114.048 
L 91.174393 114.048 
L 91.716303 204.768 
L 92.258213 144.288 
L 92.800123 144.288 
L 93.342034 204.768 
L 93.883944 114.048 
L 94.425854 204.768 
L 94.967764 144.288 
L 95.509674 204.768 
L 96.051584 83.808 
L 96.593494 144.288 
L 97.677315 144.288 
L 98.219225 174.528 
L 98.761135 114.048 
L 99.303045 204.768 
L 99.844955 114.048 
L 100.928775 174.528 
L 101.470685 144.288 
L 102.012596 144.288 
L 102.554506 114.048 
L 103.096416 174.528 
L 103.638326 144.288 
L 104.180236 144.288 
L 104.722688 114.048 
L 105.264598 204.768 
L 105.806508 144.288 
L 106.348418 204.768 
L 106.890328 174.528 
L 107.432239 114.048 
L 107.974149 144.288 
L 108.516059 114.048 
L 109.057969 114.048 
L 109.599879 83.808 
L 110.141789 144.288 
L 111.225609 144.288 
L 111.76752 114.048 
L 112.30943 235.008 
L 113.39325 53.568 
L 113.93516 144.288 
L 114.47707 144.288 
L 115.01898 174.528 
L 116.102801 114.048 
L 116.644711 114.048 
L 117.186621 144.288 
L 117.728531 144.288 
L 118.270441 204.768 
L 118.812351 144.288 
L 120.979992 144.288 
L 121.521902 114.048 
L 122.063812 174.528 
L 123.147632 114.048 
L 123.689542 204.768 
L 124.231452 174.528 
L 124.773363 174.528 
L 125.315273 144.288 
L 125.857183 144.288 
L 126.399093 114.048 
L 127.482913 174.528 
L 128.024823 174.528 
L 128.566733 144.288 
L 129.108644 144.288 
L 129.650554 114.048 
L 130.192464 144.288 
L 130.734374 204.768 
L 131.276284 144.288 
L 131.818194 114.048 
L 132.360104 144.288 
L 132.902014 144.288 
L 133.443925 114.048 
L 133.985835 114.048 
L 134.527745 144.288 
L 136.695385 144.288 
L 137.237295 204.768 
L 137.779205 114.048 
L 138.321116 114.048 
L 139.404936 174.528 
L 140.488756 114.048 
L 142.114486 204.768 
L 142.656397 204.768 
L 143.198307 144.288 
L 144.282127 204.768 
L 144.824037 144.288 
L 145.365947 174.528 
L 145.907857 114.048 
L 146.449767 114.048 
L 146.991678 204.768 
L 147.533588 144.288 
L 148.075498 174.528 
L 148.617408 174.528 
L 149.159318 204.768 
L 149.701228 114.048 
L 150.785048 114.048 
L 151.326959 144.288 
L 151.868869 114.048 
L 152.410779 114.048 
L 152.952689 204.768 
L 153.494599 204.768 
L 154.036509 114.048 
L 154.578419 204.768 
L 155.120329 114.048 
L 156.20415 174.528 
L 156.74606 114.048 
L 157.28797 174.528 
L 157.82988 144.288 
L 158.37179 144.288 
L 158.9137 114.048 
L 159.45561 144.288 
L 159.997521 114.048 
L 160.539431 204.768 
L 161.081341 144.288 
L 161.623251 204.768 
L 162.165161 204.768 
L 162.707071 144.288 
L 163.248981 174.528 
L 163.790891 174.528 
L 164.332802 204.768 
L 164.874712 174.528 
L 165.416622 204.768 
L 166.500442 144.288 
L 167.042352 174.528 
L 167.584262 144.288 
L 168.126172 174.528 
L 168.668082 114.048 
L 169.751903 114.048 
L 170.293813 144.288 
L 170.835723 144.288 
L 171.377633 114.048 
L 171.919543 114.048 
L 172.461453 144.288 
L 173.545274 144.288 
L 174.087184 114.048 
L 174.629094 174.528 
L 175.171004 144.288 
L 176.254824 144.288 
L 176.796734 114.048 
L 177.338644 114.048 
L 177.880555 144.288 
L 178.422465 204.768 
L 178.964375 114.048 
L 179.506285 174.528 
L 180.048195 144.288 
L 180.590105 204.768 
L 181.673925 83.808 
L 182.215836 174.528 
L 182.757746 144.288 
L 184.925386 144.288 
L 185.467296 204.768 
L 186.551117 204.768 
L 187.093027 83.808 
L 187.634937 144.288 
L 188.176847 144.288 
L 188.718757 114.048 
L 189.260667 174.528 
L 189.802577 114.048 
L 190.344487 114.048 
L 190.886398 144.288 
L 191.428308 144.288 
L 191.970218 114.048 
L 192.512128 204.768 
L 193.054038 114.048 
L 193.595948 114.048 
L 194.679768 174.528 
L 195.763589 114.048 
L 197.389319 114.048 
L 197.931229 144.288 
L 199.015049 144.288 
L 199.556959 174.528 
L 200.09887 144.288 
L 200.64078 174.528 
L 201.7246 114.048 
L 202.26651 114.048 
L 202.80842 204.768 
L 203.35033 204.768 
L 203.89224 174.528 
L 204.434151 204.768 
L 204.976061 114.048 
L 205.517971 114.048 
L 206.059881 83.808 
L 206.601791 114.048 
L 207.143701 114.048 
L 207.685611 144.288 
L 209.311342 144.288 
L 209.853252 174.528 
L 210.395162 114.048 
L 210.937072 174.528 
L 211.478982 204.768 
L 212.020892 174.528 
L 212.562802 204.768 
L 213.104713 174.528 
L 213.646623 83.808 
L 214.188533 114.048 
L 214.730443 174.528 
L 215.814263 114.048 
L 216.356173 174.528 
L 217.439994 114.048 
L 217.981904 114.048 
L 218.523814 204.768 
L 219.065724 114.048 
L 219.607634 174.528 
L 220.149544 144.288 
L 220.691454 204.768 
L 221.233364 204.768 
L 221.775275 114.048 
L 222.317185 204.768 
L 222.859095 144.288 
L 223.401005 144.288 
L 223.942915 204.768 
L 224.484825 174.528 
L 225.026735 174.528 
L 225.568645 144.288 
L 226.110555 174.528 
L 226.652466 114.048 
L 227.194376 144.288 
L 227.736286 144.288 
L 228.278196 204.768 
L 228.820106 174.528 
L 229.362016 114.048 
L 229.903926 204.768 
L 230.445836 114.048 
L 230.987747 144.288 
L 231.529657 114.048 
L 232.071567 114.048 
L 232.613477 144.288 
L 233.697297 144.288 
L 234.239207 174.528 
L 234.781117 174.528 
L 235.323028 144.288 
L 235.864938 174.528 
L 236.406848 114.048 
L 236.948758 174.528 
L 237.490668 174.528 
L 238.032578 144.288 
L 239.658309 144.288 
L 240.200219 174.528 
L 240.742129 144.288 
L 242.367859 144.288 
L 242.909769 174.528 
L 243.451679 174.528 
L 244.5355 114.048 
L 245.07741 174.528 
L 245.61932 204.768 
L 246.16123 204.768 
L 247.24505 144.288 
L 249.954601 144.288 
L 250.496511 204.768 
L 251.580331 204.768 
L 252.122241 114.048 
L 252.664151 114.048 
L 253.206062 144.288 
L 253.747972 204.768 
L 254.289882 174.528 
L 254.831792 114.048 
L 255.373702 144.288 
L 255.915612 204.768 
L 256.457522 174.528 
L 256.999432 174.528 
L 257.541343 144.288 
L 258.083253 174.528 
L 258.625163 114.048 
L 259.167073 174.528 
L 259.708983 114.048 
L 260.792803 174.528 
L 261.334713 144.288 
L 261.876624 174.528 
L 262.418534 114.048 
L 262.960444 144.288 
L 263.502354 83.808 
L 264.044264 144.288 
L 264.586174 144.288 
L 265.128084 204.768 
L 265.669994 174.528 
L 266.211905 174.528 
L 267.295725 53.568 
L 267.837635 174.528 
L 268.379545 114.048 
L 270.005275 114.048 
L 270.547186 144.288 
L 271.089096 114.048 
L 271.631006 174.528 
L 272.172916 144.288 
L 273.256736 144.288 
L 273.798646 114.048 
L 274.340556 204.768 
L 274.882467 144.288 
L 275.424377 144.288 
L 275.966287 204.768 
L 276.508197 204.768 
L 277.050107 114.048 
L 277.592017 174.528 
L 278.133927 204.768 
L 278.675837 204.768 
L 279.217748 114.048 
L 279.759658 174.528 
L 280.301568 204.768 
L 280.843478 174.528 
L 281.385388 204.768 
L 281.927298 114.048 
L 282.469208 204.768 
L 283.011118 174.528 
L 283.553028 174.528 
L 284.094939 144.288 
L 284.636849 204.768 
L 285.178759 174.528 
L 285.720669 83.808 
L 286.804489 204.768 
L 287.346399 114.048 
L 287.888309 174.528 
L 288.43022 204.768 
L 288.97213 144.288 
L 289.51404 114.048 
L 290.05595 174.528 
L 290.59786 144.288 
L 291.13977 174.528 
L 291.68168 83.808 
L 292.22359 204.768 
L 292.765501 114.048 
L 293.307411 174.528 
L 293.849321 174.528 
L 294.391231 114.048 
L 294.933141 204.768 
L 295.475051 174.528 
L 296.558871 174.528 
L 297.100782 144.288 
L 298.184602 204.768 
L 298.726512 114.048 
L 299.268422 144.288 
L 299.810332 204.768 
L 300.352242 114.048 
L 300.894152 144.288 
L 301.436063 114.048 
L 301.977973 114.048 
L 302.519883 144.288 
L 303.061793 204.768 
L 303.603703 204.768 
L 304.145613 114.048 
L 304.687523 144.288 
L 305.229433 144.288 
L 305.771344 114.048 
L 306.313254 114.048 
L 306.855164 174.528 
L 307.397074 204.768 
L 307.938984 114.048 
L 308.480894 114.048 
L 309.022804 144.288 
L 310.106625 144.288 
L 310.648535 174.528 
L 311.190445 144.288 
L 311.732355 144.288 
L 312.274265 204.768 
L 313.358085 204.768 
L 313.899995 174.528 
L 314.441905 114.048 
L 314.983816 204.768 
L 315.525726 144.288 
L 316.067636 204.768 
L 317.151456 204.768 
L 317.693366 114.048 
L 318.235276 114.048 
L 318.777186 144.288 
L 319.319097 114.048 
L 319.861007 144.288 
L 320.402917 114.048 
L 320.944827 114.048 
L 321.486737 174.528 
L 322.028647 114.048 
L 322.570557 144.288 
L 323.112467 144.288 
L 323.654378 204.768 
L 324.196288 204.768 
L 324.738198 144.288 
L 325.280108 114.048 
L 325.822018 144.288 
L 326.363928 114.048 
L 326.905838 174.528 
L 327.447748 144.288 
L 327.989659 174.528 
L 328.531569 114.048 
L 329.073479 114.048 
L 329.615389 144.288 
L 330.157299 204.768 
L 330.699209 114.048 
L 331.783029 174.528 
L 332.86685 114.048 
L 333.40876 144.288 
L 333.95067 144.288 
L 334.49258 174.528 
L 335.03449 83.808 
L 335.5764 144.288 
L 336.660221 144.288 
L 337.202131 83.808 
L 337.744041 204.768 
L 338.285951 174.528 
L 338.827861 204.768 
L 339.369771 114.048 
L 339.911681 174.528 
L 340.453591 204.768 
L 340.995501 144.288 
L 342.079322 204.768 
L 342.621232 204.768 
L 343.163142 114.048 
L 343.705052 174.528 
L 344.78935 114.048 
L 345.874145 174.528 
L 346.416543 144.288 
L 346.958941 174.528 
L 347.501339 174.528 
L 348.043737 204.768 
L 349.128532 204.768 
L 349.67093 144.288 
L 350.213328 144.288 
L 350.755725 114.048 
L 351.298123 174.528 
L 352.382919 174.528 
L 352.925317 144.288 
L 354.010112 204.768 
L 355.094908 204.768 
L 355.637306 114.048 
L 356.179703 114.048 
L 356.722101 204.768 
L 357.264499 114.048 
L 357.806897 114.048 
L 358.349295 204.768 
L 358.891692 114.048 
L 359.43409 144.288 
L 360.518886 144.288 
L 361.061284 114.048 
L 361.603681 204.768 
L 362.146079 204.768 
L 362.688477 144.288 
L 363.230875 174.528 
L 363.773272 144.288 
L 364.31567 174.528 
L 364.858068 144.288 
L 365.400466 144.288 
L 365.942864 114.048 
L 366.485261 144.288 
L 367.027659 144.288 
L 367.570057 114.048 
L 368.112997 174.528 
L 368.655394 114.048 
L 369.197792 174.528 
L 370.824986 174.528 
L 371.367383 114.048 
L 371.909781 114.048 
L 372.452179 174.528 
L 372.994577 114.048 
L 373.536974 114.048 
L 374.079372 204.768 
L 374.62177 144.288 
L 375.706566 204.768 
L 376.248963 114.048 
L 376.791361 204.768 
L 377.333759 174.528 
L 377.876157 83.808 
L 378.960952 144.288 
L 379.50335 144.288 
L 380.045748 114.048 
L 380.588146 144.288 
L 381.130543 204.768 
L 381.672941 114.048 
L 382.215339 144.288 
L 382.757737 144.288 
L 383.300135 174.528 
L 383.842532 174.528 
L 384.38493 144.288 
L 384.927328 174.528 
L 385.469726 114.048 
L 387.096919 204.768 
L 387.639317 144.288 
L 388.181715 174.528 
L 388.724113 174.528 
L 389.808908 114.048 
L 390.351306 114.048 
L 390.893704 144.288 
L 391.436101 144.288 
L 391.978499 174.528 
L 392.520897 114.048 
L 393.063295 174.528 
L 393.605693 204.768 
L 394.14809 144.288 
L 394.690488 114.048 
L 396.317682 114.048 
L 396.860079 144.288 
L 397.944875 144.288 
L 398.487273 114.048 
L 398.487273 114.048 
" style="fill:none;stroke:#ff7f0e;stroke-linecap:square;stroke-width:1.5;"/>
   </g>
   <g id="patch_3">
    <path d="M 57.6 307.584 
L 57.6 41.472 
" style="fill:none;stroke:#000000;stroke-linecap:square;stroke-linejoin:miter;stroke-width:0.8;"/>
   </g>
   <g id="patch_4">
    <path d="M 414.72 307.584 
L 414.72 41.472 
" style="fill:none;stroke:#000000;stroke-linecap:square;stroke-linejoin:miter;stroke-width:0.8;"/>
   </g>
   <g id="patch_5">
    <path d="M 57.6 307.584 
L 414.72 307.584 
" style="fill:none;stroke:#000000;stroke-linecap:square;stroke-linejoin:miter;stroke-width:0.8;"/>
   </g>
   <g id="patch_6">
    <path d="M 57.6 41.472 
L 414.72 41.472 
" style="fill:none;stroke:#000000;stroke-linecap:square;stroke-linejoin:miter;stroke-width:0.8;"/>
   </g>
   <g id="text_20">
    <!-- Temperatures of heater -->
    <defs>
     <path d="M 30.609375 48.390625 
Q 23.390625 48.390625 19.1875 42.75 
Q 14.984375 37.109375 14.984375 27.296875 
Q 14.984375 17.484375 19.15625 11.84375 
Q 23.34375 6.203125 30.609375 6.203125 
Q 37.796875 6.203125 41.984375 11.859375 
Q 46.1875 17.53125 46.1875 27.296875 
Q 46.1875 37.015625 41.984375 42.703125 
Q 37.796875 48.390625 30.609375 48.390625 
z
M 30.609375 56 
Q 42.328125 56 49.015625 48.375 
Q 55.71875 40.765625 55.71875 27.296875 
Q 55.71875 13.875 49.015625 6.21875 
Q 42.328125 -1.421875 30.609375 -1.421875 
Q 18.84375 -1.421875 12.171875 6.21875 
Q 5.515625 13.875 5.515625 27.296875 
Q 5.515625 40.765625 12.171875 48.375 
Q 18.84375 56 30.609375 56 
z
" id="DejaVuSans-6f"/>
     <path d="M 37.109375 75.984375 
L 37.109375 68.5 
L 28.515625 68.5 
Q 23.6875 68.5 21.796875 66.546875 
Q 19.921875 64.59375 19.921875 59.515625 
L 19.921875 54.6875 
L 34.71875 54.6875 
L 34.71875 47.703125 
L 19.921875 47.703125 
L 19.921875 0 
L 10.890625 0 
L 10.890625 47.703125 
L 2.296875 47.703125 
L 2.296875 54.6875 
L 10.890625 54.6875 
L 10.890625 58.5 
Q 10.890625 67.625 15.140625 71.796875 
Q 19.390625 75.984375 28.609375 75.984375 
z
" id="DejaVuSans-66"/>
     <path d="M 54.890625 33.015625 
L 54.890625 0 
L 45.90625 0 
L 45.90625 32.71875 
Q 45.90625 40.484375 42.875 44.328125 
Q 39.84375 48.1875 33.796875 48.1875 
Q 26.515625 48.1875 22.3125 43.546875 
Q 18.109375 38.921875 18.109375 30.90625 
L 18.109375 0 
L 9.078125 0 
L 9.078125 75.984375 
L 18.109375 75.984375 
L 18.109375 46.1875 
Q 21.34375 51.125 25.703125 53.5625 
Q 30.078125 56 35.796875 56 
Q 45.21875 56 50.046875 50.171875 
Q 54.890625 44.34375 54.890625 33.015625 
z
" id="DejaVuSans-68"/>
    </defs>
    <g transform="translate(164.614688 35.472)scale(0.12 -0.12)">
     <use xlink:href="#DejaVuSans-54"/>
     <use x="60.818359" xlink:href="#DejaVuSans-65"/>
     <use x="122.341797" xlink:href="#DejaVuSans-6d"/>
     <use x="219.753906" xlink:href="#DejaVuSans-70"/>
     <use x="283.230469" xlink:href="#DejaVuSans-65"/>
     <use x="344.753906" xlink:href="#DejaVuSans-72"/>
     <use x="385.867188" xlink:href="#DejaVuSans-61"/>
     <use x="447.146484" xlink:href="#DejaVuSans-74"/>
     <use x="486.355469" xlink:href="#DejaVuSans-75"/>
     <use x="549.734375" xlink:href="#DejaVuSans-72"/>
     <use x="590.816406" xlink:href="#DejaVuSans-65"/>
     <use x="652.339844" xlink:href="#DejaVuSans-73"/>
     <use x="704.439453" xlink:href="#DejaVuSans-20"/>
     <use x="736.226562" xlink:href="#DejaVuSans-6f"/>
     <use x="797.408203" xlink:href="#DejaVuSans-66"/>
     <use x="832.613281" xlink:href="#DejaVuSans-20"/>
     <use x="864.400391" xlink:href="#DejaVuSans-68"/>
     <use x="927.779297" xlink:href="#DejaVuSans-65"/>
     <use x="989.302734" xlink:href="#DejaVuSans-61"/>
     <use x="1050.582031" xlink:href="#DejaVuSans-74"/>
     <use x="1089.791016" xlink:href="#DejaVuSans-65"/>
     <use x="1151.314453" xlink:href="#DejaVuSans-72"/>
    </g>
   </g>
   <g id="legend_1">
    <g id="patch_7">
     <path d="M 328.585625 78.82825 
L 407.72 78.82825 
Q 409.72 78.82825 409.72 76.82825 
L 409.72 48.472 
Q 409.72 46.472 407.72 46.472 
L 328.585625 46.472 
Q 326.585625 46.472 326.585625 48.472 
L 326.585625 76.82825 
Q 326.585625 78.82825 328.585625 78.82825 
z
" style="fill:#ffffff;opacity:0.8;stroke:#cccccc;stroke-linejoin:miter;"/>
    </g>
    <g id="line2d_19">
     <path d="M 330.585625 54.570437 
L 350.585625 54.570437 
" style="fill:none;stroke:#1f77b4;stroke-linecap:square;stroke-width:1.5;"/>
    </g>
    <g id="line2d_20"/>
    <g id="text_21">
     <!-- Setpoints -->
     <defs>
      <path d="M 53.515625 70.515625 
L 53.515625 60.890625 
Q 47.90625 63.578125 42.921875 64.890625 
Q 37.9375 66.21875 33.296875 66.21875 
Q 25.25 66.21875 20.875 63.09375 
Q 16.5 59.96875 16.5 54.203125 
Q 16.5 49.359375 19.40625 46.890625 
Q 22.3125 44.4375 30.421875 42.921875 
L 36.375 41.703125 
Q 47.40625 39.59375 52.65625 34.296875 
Q 57.90625 29 57.90625 20.125 
Q 57.90625 9.515625 50.796875 4.046875 
Q 43.703125 -1.421875 29.984375 -1.421875 
Q 24.8125 -1.421875 18.96875 -0.25 
Q 13.140625 0.921875 6.890625 3.21875 
L 6.890625 13.375 
Q 12.890625 10.015625 18.65625 8.296875 
Q 24.421875 6.59375 29.984375 6.59375 
Q 38.421875 6.59375 43.015625 9.90625 
Q 47.609375 13.234375 47.609375 19.390625 
Q 47.609375 24.75 44.3125 27.78125 
Q 41.015625 30.8125 33.5 32.328125 
L 27.484375 33.5 
Q 16.453125 35.6875 11.515625 40.375 
Q 6.59375 45.0625 6.59375 53.421875 
Q 6.59375 63.09375 13.40625 68.65625 
Q 20.21875 74.21875 32.171875 74.21875 
Q 37.3125 74.21875 42.625 73.28125 
Q 47.953125 72.359375 53.515625 70.515625 
z
" id="DejaVuSans-53"/>
      <path d="M 9.421875 54.6875 
L 18.40625 54.6875 
L 18.40625 0 
L 9.421875 0 
z
M 9.421875 75.984375 
L 18.40625 75.984375 
L 18.40625 64.59375 
L 9.421875 64.59375 
z
" id="DejaVuSans-69"/>
      <path d="M 54.890625 33.015625 
L 54.890625 0 
L 45.90625 0 
L 45.90625 32.71875 
Q 45.90625 40.484375 42.875 44.328125 
Q 39.84375 48.1875 33.796875 48.1875 
Q 26.515625 48.1875 22.3125 43.546875 
Q 18.109375 38.921875 18.109375 30.90625 
L 18.109375 0 
L 9.078125 0 
L 9.078125 54.6875 
L 18.109375 54.6875 
L 18.109375 46.1875 
Q 21.34375 51.125 25.703125 53.5625 
Q 30.078125 56 35.796875 56 
Q 45.21875 56 50.046875 50.171875 
Q 54.890625 44.34375 54.890625 33.015625 
z
" id="DejaVuSans-6e"/>
     </defs>
     <g transform="translate(358.585625 58.070437)scale(0.1 -0.1)">
      <use xlink:href="#DejaVuSans-53"/>
      <use x="63.476562" xlink:href="#DejaVuSans-65"/>
      <use x="125" xlink:href="#DejaVuSans-74"/>
      <use x="164.208984" xlink:href="#DejaVuSans-70"/>
      <use x="227.685547" xlink:href="#DejaVuSans-6f"/>
      <use x="288.867188" xlink:href="#DejaVuSans-69"/>
      <use x="316.650391" xlink:href="#DejaVuSans-6e"/>
      <use x="380.029297" xlink:href="#DejaVuSans-74"/>
      <use x="419.238281" xlink:href="#DejaVuSans-73"/>
     </g>
    </g>
    <g id="line2d_21">
     <path d="M 330.585625 69.248562 
L 350.585625 69.248562 
" style="fill:none;stroke:#ff7f0e;stroke-linecap:square;stroke-width:1.5;"/>
    </g>
    <g id="line2d_22"/>
    <g id="text_22">
     <!-- Heater -->
     <defs>
      <path d="M 9.8125 72.90625 
L 19.671875 72.90625 
L 19.671875 43.015625 
L 55.515625 43.015625 
L 55.515625 72.90625 
L 65.375 72.90625 
L 65.375 0 
L 55.515625 0 
L 55.515625 34.71875 
L 19.671875 34.71875 
L 19.671875 0 
L 9.8125 0 
z
" id="DejaVuSans-48"/>
     </defs>
     <g transform="translate(358.585625 72.748562)scale(0.1 -0.1)">
      <use xlink:href="#DejaVuSans-48"/>
      <use x="75.195312" xlink:href="#DejaVuSans-65"/>
      <use x="136.71875" xlink:href="#DejaVuSans-61"/>
      <use x="197.998047" xlink:href="#DejaVuSans-74"/>
      <use x="237.207031" xlink:href="#DejaVuSans-65"/>
      <use x="298.730469" xlink:href="#DejaVuSans-72"/>
     </g>
    </g>
   </g>
  </g>
 </g>
 <defs>
  <clipPath id="p7fd76b1a07">
   <rect height="266.112" width="357.12" x="57.6" y="41.472"/>
  </clipPath>
 </defs>
</svg>
