<?xml version="1.0" encoding="utf-8" standalone="no"?>
<!DOCTYPE svg PUBLIC "-//W3C//DTD SVG 1.1//EN"
  "http://www.w3.org/Graphics/SVG/1.1/DTD/svg11.dtd">
<!-- Created with matplotlib (http://matplotlib.org/) -->
<svg height="345pt" version="1.1" viewBox="0 0 460 345" width="460pt" xmlns="http://www.w3.org/2000/svg" xmlns:xlink="http://www.w3.org/1999/xlink">
 <defs>
  <style type="text/css">
*{stroke-linecap:butt;stroke-linejoin:round;}
  </style>
 </defs>
 <g id="figure_1">
  <g id="patch_1">
   <path d="M 0 345.6 
L 460.8 345.6 
L 460.8 0 
L 0 0 
z
" style="fill:#ffffff;"/>
  </g>
  <g id="axes_1">
   <g id="patch_2">
    <path d="M 57.6 307.584 
L 414.72 307.584 
L 414.72 41.472 
L 57.6 41.472 
z
" style="fill:#ffffff;"/>
   </g>
   <g id="matplotlib.axis_1">
    <g id="xtick_1">
     <g id="line2d_1">
      <defs>
       <path d="M 0 0 
L 0 3.5 
" id="m920f10a572" style="stroke:#000000;stroke-width:0.8;"/>
      </defs>
      <g>
       <use style="stroke:#000000;stroke-width:0.8;" x="73.832727" xlink:href="#m920f10a572" y="307.584"/>
      </g>
     </g>
     <g id="text_1">
      <!-- 0 -->
      <defs>
       <path d="M 31.78125 66.40625 
Q 24.171875 66.40625 20.328125 58.90625 
Q 16.5 51.421875 16.5 36.375 
Q 16.5 21.390625 20.328125 13.890625 
Q 24.171875 6.390625 31.78125 6.390625 
Q 39.453125 6.390625 43.28125 13.890625 
Q 47.125 21.390625 47.125 36.375 
Q 47.125 51.421875 43.28125 58.90625 
Q 39.453125 66.40625 31.78125 66.40625 
z
M 31.78125 74.21875 
Q 44.046875 74.21875 50.515625 64.515625 
Q 56.984375 54.828125 56.984375 36.375 
Q 56.984375 17.96875 50.515625 8.265625 
Q 44.046875 -1.421875 31.78125 -1.421875 
Q 19.53125 -1.421875 13.0625 8.265625 
Q 6.59375 17.96875 6.59375 36.375 
Q 6.59375 54.828125 13.0625 64.515625 
Q 19.53125 74.21875 31.78125 74.21875 
z
" id="DejaVuSans-30"/>
      </defs>
      <g transform="translate(70.651477 322.182437)scale(0.1 -0.1)">
       <use xlink:href="#DejaVuSans-30"/>
      </g>
     </g>
    </g>
    <g id="xtick_2">
     <g id="line2d_2">
      <g>
       <use style="stroke:#000000;stroke-width:0.8;" x="128.031789" xlink:href="#m920f10a572" y="307.584"/>
      </g>
     </g>
     <g id="text_2">
      <!-- 100 -->
      <defs>
       <path d="M 12.40625 8.296875 
L 28.515625 8.296875 
L 28.515625 63.921875 
L 10.984375 60.40625 
L 10.984375 69.390625 
L 28.421875 72.90625 
L 38.28125 72.90625 
L 38.28125 8.296875 
L 54.390625 8.296875 
L 54.390625 0 
L 12.40625 0 
z
" id="DejaVuSans-31"/>
      </defs>
      <g transform="translate(118.488039 322.182437)scale(0.1 -0.1)">
       <use xlink:href="#DejaVuSans-31"/>
       <use x="63.623047" xlink:href="#DejaVuSans-30"/>
       <use x="127.246094" xlink:href="#DejaVuSans-30"/>
      </g>
     </g>
    </g>
    <g id="xtick_3">
     <g id="line2d_3">
      <g>
       <use style="stroke:#000000;stroke-width:0.8;" x="182.23085" xlink:href="#m920f10a572" y="307.584"/>
      </g>
     </g>
     <g id="text_3">
      <!-- 200 -->
      <defs>
       <path d="M 19.1875 8.296875 
L 53.609375 8.296875 
L 53.609375 0 
L 7.328125 0 
L 7.328125 8.296875 
Q 12.9375 14.109375 22.625 23.890625 
Q 32.328125 33.6875 34.8125 36.53125 
Q 39.546875 41.84375 41.421875 45.53125 
Q 43.3125 49.21875 43.3125 52.78125 
Q 43.3125 58.59375 39.234375 62.25 
Q 35.15625 65.921875 28.609375 65.921875 
Q 23.96875 65.921875 18.8125 64.3125 
Q 13.671875 62.703125 7.8125 59.421875 
L 7.8125 69.390625 
Q 13.765625 71.78125 18.9375 73 
Q 24.125 74.21875 28.421875 74.21875 
Q 39.75 74.21875 46.484375 68.546875 
Q 53.21875 62.890625 53.21875 53.421875 
Q 53.21875 48.921875 51.53125 44.890625 
Q 49.859375 40.875 45.40625 35.40625 
Q 44.1875 33.984375 37.640625 27.21875 
Q 31.109375 20.453125 19.1875 8.296875 
z
" id="DejaVuSans-32"/>
      </defs>
      <g transform="translate(172.6871 322.182437)scale(0.1 -0.1)">
       <use xlink:href="#DejaVuSans-32"/>
       <use x="63.623047" xlink:href="#DejaVuSans-30"/>
       <use x="127.246094" xlink:href="#DejaVuSans-30"/>
      </g>
     </g>
    </g>
    <g id="xtick_4">
     <g id="line2d_4">
      <g>
       <use style="stroke:#000000;stroke-width:0.8;" x="236.429911" xlink:href="#m920f10a572" y="307.584"/>
      </g>
     </g>
     <g id="text_4">
      <!-- 300 -->
      <defs>
       <path d="M 40.578125 39.3125 
Q 47.65625 37.796875 51.625 33 
Q 55.609375 28.21875 55.609375 21.1875 
Q 55.609375 10.40625 48.1875 4.484375 
Q 40.765625 -1.421875 27.09375 -1.421875 
Q 22.515625 -1.421875 17.65625 -0.515625 
Q 12.796875 0.390625 7.625 2.203125 
L 7.625 11.71875 
Q 11.71875 9.328125 16.59375 8.109375 
Q 21.484375 6.890625 26.8125 6.890625 
Q 36.078125 6.890625 40.9375 10.546875 
Q 45.796875 14.203125 45.796875 21.1875 
Q 45.796875 27.640625 41.28125 31.265625 
Q 36.765625 34.90625 28.71875 34.90625 
L 20.21875 34.90625 
L 20.21875 43.015625 
L 29.109375 43.015625 
Q 36.375 43.015625 40.234375 45.921875 
Q 44.09375 48.828125 44.09375 54.296875 
Q 44.09375 59.90625 40.109375 62.90625 
Q 36.140625 65.921875 28.71875 65.921875 
Q 24.65625 65.921875 20.015625 65.03125 
Q 15.375 64.15625 9.8125 62.3125 
L 9.8125 71.09375 
Q 15.4375 72.65625 20.34375 73.4375 
Q 25.25 74.21875 29.59375 74.21875 
Q 40.828125 74.21875 47.359375 69.109375 
Q 53.90625 64.015625 53.90625 55.328125 
Q 53.90625 49.265625 50.4375 45.09375 
Q 46.96875 40.921875 40.578125 39.3125 
z
" id="DejaVuSans-33"/>
      </defs>
      <g transform="translate(226.886161 322.182437)scale(0.1 -0.1)">
       <use xlink:href="#DejaVuSans-33"/>
       <use x="63.623047" xlink:href="#DejaVuSans-30"/>
       <use x="127.246094" xlink:href="#DejaVuSans-30"/>
      </g>
     </g>
    </g>
    <g id="xtick_5">
     <g id="line2d_5">
      <g>
       <use style="stroke:#000000;stroke-width:0.8;" x="290.628973" xlink:href="#m920f10a572" y="307.584"/>
      </g>
     </g>
     <g id="text_5">
      <!-- 400 -->
      <defs>
       <path d="M 37.796875 64.3125 
L 12.890625 25.390625 
L 37.796875 25.390625 
z
M 35.203125 72.90625 
L 47.609375 72.90625 
L 47.609375 25.390625 
L 58.015625 25.390625 
L 58.015625 17.1875 
L 47.609375 17.1875 
L 47.609375 0 
L 37.796875 0 
L 37.796875 17.1875 
L 4.890625 17.1875 
L 4.890625 26.703125 
z
" id="DejaVuSans-34"/>
      </defs>
      <g transform="translate(281.085223 322.182437)scale(0.1 -0.1)">
       <use xlink:href="#DejaVuSans-34"/>
       <use x="63.623047" xlink:href="#DejaVuSans-30"/>
       <use x="127.246094" xlink:href="#DejaVuSans-30"/>
      </g>
     </g>
    </g>
    <g id="xtick_6">
     <g id="line2d_6">
      <g>
       <use style="stroke:#000000;stroke-width:0.8;" x="344.828034" xlink:href="#m920f10a572" y="307.584"/>
      </g>
     </g>
     <g id="text_6">
      <!-- 500 -->
      <defs>
       <path d="M 10.796875 72.90625 
L 49.515625 72.90625 
L 49.515625 64.59375 
L 19.828125 64.59375 
L 19.828125 46.734375 
Q 21.96875 47.46875 24.109375 47.828125 
Q 26.265625 48.1875 28.421875 48.1875 
Q 40.625 48.1875 47.75 41.5 
Q 54.890625 34.8125 54.890625 23.390625 
Q 54.890625 11.625 47.5625 5.09375 
Q 40.234375 -1.421875 26.90625 -1.421875 
Q 22.3125 -1.421875 17.546875 -0.640625 
Q 12.796875 0.140625 7.71875 1.703125 
L 7.71875 11.625 
Q 12.109375 9.234375 16.796875 8.0625 
Q 21.484375 6.890625 26.703125 6.890625 
Q 35.15625 6.890625 40.078125 11.328125 
Q 45.015625 15.765625 45.015625 23.390625 
Q 45.015625 31 40.078125 35.4375 
Q 35.15625 39.890625 26.703125 39.890625 
Q 22.75 39.890625 18.8125 39.015625 
Q 14.890625 38.140625 10.796875 36.28125 
z
" id="DejaVuSans-35"/>
      </defs>
      <g transform="translate(335.284284 322.182437)scale(0.1 -0.1)">
       <use xlink:href="#DejaVuSans-35"/>
       <use x="63.623047" xlink:href="#DejaVuSans-30"/>
       <use x="127.246094" xlink:href="#DejaVuSans-30"/>
      </g>
     </g>
    </g>
    <g id="xtick_7">
     <g id="line2d_7">
      <g>
       <use style="stroke:#000000;stroke-width:0.8;" x="399.027095" xlink:href="#m920f10a572" y="307.584"/>
      </g>
     </g>
     <g id="text_7">
      <!-- 600 -->
      <defs>
       <path d="M 33.015625 40.375 
Q 26.375 40.375 22.484375 35.828125 
Q 18.609375 31.296875 18.609375 23.390625 
Q 18.609375 15.53125 22.484375 10.953125 
Q 26.375 6.390625 33.015625 6.390625 
Q 39.65625 6.390625 43.53125 10.953125 
Q 47.40625 15.53125 47.40625 23.390625 
Q 47.40625 31.296875 43.53125 35.828125 
Q 39.65625 40.375 33.015625 40.375 
z
M 52.59375 71.296875 
L 52.59375 62.3125 
Q 48.875 64.0625 45.09375 64.984375 
Q 41.3125 65.921875 37.59375 65.921875 
Q 27.828125 65.921875 22.671875 59.328125 
Q 17.53125 52.734375 16.796875 39.40625 
Q 19.671875 43.65625 24.015625 45.921875 
Q 28.375 48.1875 33.59375 48.1875 
Q 44.578125 48.1875 50.953125 41.515625 
Q 57.328125 34.859375 57.328125 23.390625 
Q 57.328125 12.15625 50.6875 5.359375 
Q 44.046875 -1.421875 33.015625 -1.421875 
Q 20.359375 -1.421875 13.671875 8.265625 
Q 6.984375 17.96875 6.984375 36.375 
Q 6.984375 53.65625 15.1875 63.9375 
Q 23.390625 74.21875 37.203125 74.21875 
Q 40.921875 74.21875 44.703125 73.484375 
Q 48.484375 72.75 52.59375 71.296875 
z
" id="DejaVuSans-36"/>
      </defs>
      <g transform="translate(389.483345 322.182437)scale(0.1 -0.1)">
       <use xlink:href="#DejaVuSans-36"/>
       <use x="63.623047" xlink:href="#DejaVuSans-30"/>
       <use x="127.246094" xlink:href="#DejaVuSans-30"/>
      </g>
     </g>
    </g>
    <g id="text_8">
     <!-- t(s) -->
     <defs>
      <path d="M 18.3125 70.21875 
L 18.3125 54.6875 
L 36.8125 54.6875 
L 36.8125 47.703125 
L 18.3125 47.703125 
L 18.3125 18.015625 
Q 18.3125 11.328125 20.140625 9.421875 
Q 21.96875 7.515625 27.59375 7.515625 
L 36.8125 7.515625 
L 36.8125 0 
L 27.59375 0 
Q 17.1875 0 13.234375 3.875 
Q 9.28125 7.765625 9.28125 18.015625 
L 9.28125 47.703125 
L 2.6875 47.703125 
L 2.6875 54.6875 
L 9.28125 54.6875 
L 9.28125 70.21875 
z
" id="DejaVuSans-74"/>
      <path d="M 31 75.875 
Q 24.46875 64.65625 21.28125 53.65625 
Q 18.109375 42.671875 18.109375 31.390625 
Q 18.109375 20.125 21.3125 9.0625 
Q 24.515625 -2 31 -13.1875 
L 23.1875 -13.1875 
Q 15.875 -1.703125 12.234375 9.375 
Q 8.59375 20.453125 8.59375 31.390625 
Q 8.59375 42.28125 12.203125 53.3125 
Q 15.828125 64.359375 23.1875 75.875 
z
" id="DejaVuSans-28"/>
      <path d="M 44.28125 53.078125 
L 44.28125 44.578125 
Q 40.484375 46.53125 36.375 47.5 
Q 32.28125 48.484375 27.875 48.484375 
Q 21.1875 48.484375 17.84375 46.4375 
Q 14.5 44.390625 14.5 40.28125 
Q 14.5 37.15625 16.890625 35.375 
Q 19.28125 33.59375 26.515625 31.984375 
L 29.59375 31.296875 
Q 39.15625 29.25 43.1875 25.515625 
Q 47.21875 21.78125 47.21875 15.09375 
Q 47.21875 7.46875 41.1875 3.015625 
Q 35.15625 -1.421875 24.609375 -1.421875 
Q 20.21875 -1.421875 15.453125 -0.5625 
Q 10.6875 0.296875 5.421875 2 
L 5.421875 11.28125 
Q 10.40625 8.6875 15.234375 7.390625 
Q 20.0625 6.109375 24.8125 6.109375 
Q 31.15625 6.109375 34.5625 8.28125 
Q 37.984375 10.453125 37.984375 14.40625 
Q 37.984375 18.0625 35.515625 20.015625 
Q 33.0625 21.96875 24.703125 23.78125 
L 21.578125 24.515625 
Q 13.234375 26.265625 9.515625 29.90625 
Q 5.8125 33.546875 5.8125 39.890625 
Q 5.8125 47.609375 11.28125 51.796875 
Q 16.75 56 26.8125 56 
Q 31.78125 56 36.171875 55.265625 
Q 40.578125 54.546875 44.28125 53.078125 
z
" id="DejaVuSans-73"/>
      <path d="M 8.015625 75.875 
L 15.828125 75.875 
Q 23.140625 64.359375 26.78125 53.3125 
Q 30.421875 42.28125 30.421875 31.390625 
Q 30.421875 20.453125 26.78125 9.375 
Q 23.140625 -1.703125 15.828125 -13.1875 
L 8.015625 -13.1875 
Q 14.5 -2 17.703125 9.0625 
Q 20.90625 20.125 20.90625 31.390625 
Q 20.90625 42.671875 17.703125 53.65625 
Q 14.5 64.65625 8.015625 75.875 
z
" id="DejaVuSans-29"/>
     </defs>
     <g transform="translate(227.693594 335.860562)scale(0.1 -0.1)">
      <use xlink:href="#DejaVuSans-74"/>
      <use x="39.208984" xlink:href="#DejaVuSans-28"/>
      <use x="78.222656" xlink:href="#DejaVuSans-73"/>
      <use x="130.322266" xlink:href="#DejaVuSans-29"/>
     </g>
    </g>
   </g>
   <g id="matplotlib.axis_2">
    <g id="ytick_1">
     <g id="line2d_8">
      <defs>
       <path d="M 0 0 
L -3.5 0 
" id="ma1b055eda2" style="stroke:#000000;stroke-width:0.8;"/>
      </defs>
      <g>
       <use style="stroke:#000000;stroke-width:0.8;" x="57.6" xlink:href="#ma1b055eda2" y="274.451478"/>
      </g>
     </g>
     <g id="text_9">
      <!-- 64.995 -->
      <defs>
       <path d="M 10.6875 12.40625 
L 21 12.40625 
L 21 0 
L 10.6875 0 
z
" id="DejaVuSans-2e"/>
       <path d="M 10.984375 1.515625 
L 10.984375 10.5 
Q 14.703125 8.734375 18.5 7.8125 
Q 22.3125 6.890625 25.984375 6.890625 
Q 35.75 6.890625 40.890625 13.453125 
Q 46.046875 20.015625 46.78125 33.40625 
Q 43.953125 29.203125 39.59375 26.953125 
Q 35.25 24.703125 29.984375 24.703125 
Q 19.046875 24.703125 12.671875 31.3125 
Q 6.296875 37.9375 6.296875 49.421875 
Q 6.296875 60.640625 12.9375 67.421875 
Q 19.578125 74.21875 30.609375 74.21875 
Q 43.265625 74.21875 49.921875 64.515625 
Q 56.59375 54.828125 56.59375 36.375 
Q 56.59375 19.140625 48.40625 8.859375 
Q 40.234375 -1.421875 26.421875 -1.421875 
Q 22.703125 -1.421875 18.890625 -0.6875 
Q 15.09375 0.046875 10.984375 1.515625 
z
M 30.609375 32.421875 
Q 37.25 32.421875 41.125 36.953125 
Q 45.015625 41.5 45.015625 49.421875 
Q 45.015625 57.28125 41.125 61.84375 
Q 37.25 66.40625 30.609375 66.40625 
Q 23.96875 66.40625 20.09375 61.84375 
Q 16.21875 57.28125 16.21875 49.421875 
Q 16.21875 41.5 20.09375 36.953125 
Q 23.96875 32.421875 30.609375 32.421875 
z
" id="DejaVuSans-39"/>
      </defs>
      <g transform="translate(15.609375 278.250697)scale(0.1 -0.1)">
       <use xlink:href="#DejaVuSans-36"/>
       <use x="63.623047" xlink:href="#DejaVuSans-34"/>
       <use x="127.246094" xlink:href="#DejaVuSans-2e"/>
       <use x="159.033203" xlink:href="#DejaVuSans-39"/>
       <use x="222.65625" xlink:href="#DejaVuSans-39"/>
       <use x="286.279297" xlink:href="#DejaVuSans-35"/>
      </g>
     </g>
    </g>
    <g id="ytick_2">
     <g id="line2d_9">
      <g>
       <use style="stroke:#000000;stroke-width:0.8;" x="57.6" xlink:href="#ma1b055eda2" y="221.860174"/>
      </g>
     </g>
     <g id="text_10">
      <!-- 65.000 -->
      <g transform="translate(15.609375 225.659393)scale(0.1 -0.1)">
       <use xlink:href="#DejaVuSans-36"/>
       <use x="63.623047" xlink:href="#DejaVuSans-35"/>
       <use x="127.246094" xlink:href="#DejaVuSans-2e"/>
       <use x="159.033203" xlink:href="#DejaVuSans-30"/>
       <use x="222.65625" xlink:href="#DejaVuSans-30"/>
       <use x="286.279297" xlink:href="#DejaVuSans-30"/>
      </g>
     </g>
    </g>
    <g id="ytick_3">
     <g id="line2d_10">
      <g>
       <use style="stroke:#000000;stroke-width:0.8;" x="57.6" xlink:href="#ma1b055eda2" y="169.26887"/>
      </g>
     </g>
     <g id="text_11">
      <!-- 65.005 -->
      <g transform="translate(15.609375 173.068088)scale(0.1 -0.1)">
       <use xlink:href="#DejaVuSans-36"/>
       <use x="63.623047" xlink:href="#DejaVuSans-35"/>
       <use x="127.246094" xlink:href="#DejaVuSans-2e"/>
       <use x="159.033203" xlink:href="#DejaVuSans-30"/>
       <use x="222.65625" xlink:href="#DejaVuSans-30"/>
       <use x="286.279297" xlink:href="#DejaVuSans-35"/>
      </g>
     </g>
    </g>
    <g id="ytick_4">
     <g id="line2d_11">
      <g>
       <use style="stroke:#000000;stroke-width:0.8;" x="57.6" xlink:href="#ma1b055eda2" y="116.677565"/>
      </g>
     </g>
     <g id="text_12">
      <!-- 65.010 -->
      <g transform="translate(15.609375 120.476784)scale(0.1 -0.1)">
       <use xlink:href="#DejaVuSans-36"/>
       <use x="63.623047" xlink:href="#DejaVuSans-35"/>
       <use x="127.246094" xlink:href="#DejaVuSans-2e"/>
       <use x="159.033203" xlink:href="#DejaVuSans-30"/>
       <use x="222.65625" xlink:href="#DejaVuSans-31"/>
       <use x="286.279297" xlink:href="#DejaVuSans-30"/>
      </g>
     </g>
    </g>
    <g id="ytick_5">
     <g id="line2d_12">
      <g>
       <use style="stroke:#000000;stroke-width:0.8;" x="57.6" xlink:href="#ma1b055eda2" y="64.086261"/>
      </g>
     </g>
     <g id="text_13">
      <!-- 65.015 -->
      <g transform="translate(15.609375 67.88548)scale(0.1 -0.1)">
       <use xlink:href="#DejaVuSans-36"/>
       <use x="63.623047" xlink:href="#DejaVuSans-35"/>
       <use x="127.246094" xlink:href="#DejaVuSans-2e"/>
       <use x="159.033203" xlink:href="#DejaVuSans-30"/>
       <use x="222.65625" xlink:href="#DejaVuSans-31"/>
       <use x="286.279297" xlink:href="#DejaVuSans-35"/>
      </g>
     </g>
    </g>
    <g id="text_14">
     <!-- Temperature (*C) -->
     <defs>
      <path d="M -0.296875 72.90625 
L 61.375 72.90625 
L 61.375 64.59375 
L 35.5 64.59375 
L 35.5 0 
L 25.59375 0 
L 25.59375 64.59375 
L -0.296875 64.59375 
z
" id="DejaVuSans-54"/>
      <path d="M 56.203125 29.59375 
L 56.203125 25.203125 
L 14.890625 25.203125 
Q 15.484375 15.921875 20.484375 11.0625 
Q 25.484375 6.203125 34.421875 6.203125 
Q 39.59375 6.203125 44.453125 7.46875 
Q 49.3125 8.734375 54.109375 11.28125 
L 54.109375 2.78125 
Q 49.265625 0.734375 44.1875 -0.34375 
Q 39.109375 -1.421875 33.890625 -1.421875 
Q 20.796875 -1.421875 13.15625 6.1875 
Q 5.515625 13.8125 5.515625 26.8125 
Q 5.515625 40.234375 12.765625 48.109375 
Q 20.015625 56 32.328125 56 
Q 43.359375 56 49.78125 48.890625 
Q 56.203125 41.796875 56.203125 29.59375 
z
M 47.21875 32.234375 
Q 47.125 39.59375 43.09375 43.984375 
Q 39.0625 48.390625 32.421875 48.390625 
Q 24.90625 48.390625 20.390625 44.140625 
Q 15.875 39.890625 15.1875 32.171875 
z
" id="DejaVuSans-65"/>
      <path d="M 52 44.1875 
Q 55.375 50.25 60.0625 53.125 
Q 64.75 56 71.09375 56 
Q 79.640625 56 84.28125 50.015625 
Q 88.921875 44.046875 88.921875 33.015625 
L 88.921875 0 
L 79.890625 0 
L 79.890625 32.71875 
Q 79.890625 40.578125 77.09375 44.375 
Q 74.3125 48.1875 68.609375 48.1875 
Q 61.625 48.1875 57.5625 43.546875 
Q 53.515625 38.921875 53.515625 30.90625 
L 53.515625 0 
L 44.484375 0 
L 44.484375 32.71875 
Q 44.484375 40.625 41.703125 44.40625 
Q 38.921875 48.1875 33.109375 48.1875 
Q 26.21875 48.1875 22.15625 43.53125 
Q 18.109375 38.875 18.109375 30.90625 
L 18.109375 0 
L 9.078125 0 
L 9.078125 54.6875 
L 18.109375 54.6875 
L 18.109375 46.1875 
Q 21.1875 51.21875 25.484375 53.609375 
Q 29.78125 56 35.6875 56 
Q 41.65625 56 45.828125 52.96875 
Q 50 49.953125 52 44.1875 
z
" id="DejaVuSans-6d"/>
      <path d="M 18.109375 8.203125 
L 18.109375 -20.796875 
L 9.078125 -20.796875 
L 9.078125 54.6875 
L 18.109375 54.6875 
L 18.109375 46.390625 
Q 20.953125 51.265625 25.265625 53.625 
Q 29.59375 56 35.59375 56 
Q 45.5625 56 51.78125 48.09375 
Q 58.015625 40.1875 58.015625 27.296875 
Q 58.015625 14.40625 51.78125 6.484375 
Q 45.5625 -1.421875 35.59375 -1.421875 
Q 29.59375 -1.421875 25.265625 0.953125 
Q 20.953125 3.328125 18.109375 8.203125 
z
M 48.6875 27.296875 
Q 48.6875 37.203125 44.609375 42.84375 
Q 40.53125 48.484375 33.40625 48.484375 
Q 26.265625 48.484375 22.1875 42.84375 
Q 18.109375 37.203125 18.109375 27.296875 
Q 18.109375 17.390625 22.1875 11.75 
Q 26.265625 6.109375 33.40625 6.109375 
Q 40.53125 6.109375 44.609375 11.75 
Q 48.6875 17.390625 48.6875 27.296875 
z
" id="DejaVuSans-70"/>
      <path d="M 41.109375 46.296875 
Q 39.59375 47.171875 37.8125 47.578125 
Q 36.03125 48 33.890625 48 
Q 26.265625 48 22.1875 43.046875 
Q 18.109375 38.09375 18.109375 28.8125 
L 18.109375 0 
L 9.078125 0 
L 9.078125 54.6875 
L 18.109375 54.6875 
L 18.109375 46.1875 
Q 20.953125 51.171875 25.484375 53.578125 
Q 30.03125 56 36.53125 56 
Q 37.453125 56 38.578125 55.875 
Q 39.703125 55.765625 41.0625 55.515625 
z
" id="DejaVuSans-72"/>
      <path d="M 34.28125 27.484375 
Q 23.390625 27.484375 19.1875 25 
Q 14.984375 22.515625 14.984375 16.5 
Q 14.984375 11.71875 18.140625 8.90625 
Q 21.296875 6.109375 26.703125 6.109375 
Q 34.1875 6.109375 38.703125 11.40625 
Q 43.21875 16.703125 43.21875 25.484375 
L 43.21875 27.484375 
z
M 52.203125 31.203125 
L 52.203125 0 
L 43.21875 0 
L 43.21875 8.296875 
Q 40.140625 3.328125 35.546875 0.953125 
Q 30.953125 -1.421875 24.3125 -1.421875 
Q 15.921875 -1.421875 10.953125 3.296875 
Q 6 8.015625 6 15.921875 
Q 6 25.140625 12.171875 29.828125 
Q 18.359375 34.515625 30.609375 34.515625 
L 43.21875 34.515625 
L 43.21875 35.40625 
Q 43.21875 41.609375 39.140625 45 
Q 35.0625 48.390625 27.6875 48.390625 
Q 23 48.390625 18.546875 47.265625 
Q 14.109375 46.140625 10.015625 43.890625 
L 10.015625 52.203125 
Q 14.9375 54.109375 19.578125 55.046875 
Q 24.21875 56 28.609375 56 
Q 40.484375 56 46.34375 49.84375 
Q 52.203125 43.703125 52.203125 31.203125 
z
" id="DejaVuSans-61"/>
      <path d="M 8.5 21.578125 
L 8.5 54.6875 
L 17.484375 54.6875 
L 17.484375 21.921875 
Q 17.484375 14.15625 20.5 10.265625 
Q 23.53125 6.390625 29.59375 6.390625 
Q 36.859375 6.390625 41.078125 11.03125 
Q 45.3125 15.671875 45.3125 23.6875 
L 45.3125 54.6875 
L 54.296875 54.6875 
L 54.296875 0 
L 45.3125 0 
L 45.3125 8.40625 
Q 42.046875 3.421875 37.71875 1 
Q 33.40625 -1.421875 27.6875 -1.421875 
Q 18.265625 -1.421875 13.375 4.4375 
Q 8.5 10.296875 8.5 21.578125 
z
M 31.109375 56 
z
" id="DejaVuSans-75"/>
      <path id="DejaVuSans-20"/>
      <path d="M 47.015625 60.890625 
L 29.5 51.421875 
L 47.015625 41.890625 
L 44.1875 37.109375 
L 27.78125 47.015625 
L 27.78125 28.609375 
L 22.21875 28.609375 
L 22.21875 47.015625 
L 5.8125 37.109375 
L 2.984375 41.890625 
L 20.515625 51.421875 
L 2.984375 60.890625 
L 5.8125 65.71875 
L 22.21875 55.8125 
L 22.21875 74.21875 
L 27.78125 74.21875 
L 27.78125 55.8125 
L 44.1875 65.71875 
z
" id="DejaVuSans-2a"/>
      <path d="M 64.40625 67.28125 
L 64.40625 56.890625 
Q 59.421875 61.53125 53.78125 63.8125 
Q 48.140625 66.109375 41.796875 66.109375 
Q 29.296875 66.109375 22.65625 58.46875 
Q 16.015625 50.828125 16.015625 36.375 
Q 16.015625 21.96875 22.65625 14.328125 
Q 29.296875 6.6875 41.796875 6.6875 
Q 48.140625 6.6875 53.78125 8.984375 
Q 59.421875 11.28125 64.40625 15.921875 
L 64.40625 5.609375 
Q 59.234375 2.09375 53.4375 0.328125 
Q 47.65625 -1.421875 41.21875 -1.421875 
Q 24.65625 -1.421875 15.125 8.703125 
Q 5.609375 18.84375 5.609375 36.375 
Q 5.609375 53.953125 15.125 64.078125 
Q 24.65625 74.21875 41.21875 74.21875 
Q 47.75 74.21875 53.53125 72.484375 
Q 59.328125 70.75 64.40625 67.28125 
z
" id="DejaVuSans-43"/>
     </defs>
     <g transform="translate(9.529687 218.627219)rotate(-90)scale(0.1 -0.1)">
      <use xlink:href="#DejaVuSans-54"/>
      <use x="60.818359" xlink:href="#DejaVuSans-65"/>
      <use x="122.341797" xlink:href="#DejaVuSans-6d"/>
      <use x="219.753906" xlink:href="#DejaVuSans-70"/>
      <use x="283.230469" xlink:href="#DejaVuSans-65"/>
      <use x="344.753906" xlink:href="#DejaVuSans-72"/>
      <use x="385.867188" xlink:href="#DejaVuSans-61"/>
      <use x="447.146484" xlink:href="#DejaVuSans-74"/>
      <use x="486.355469" xlink:href="#DejaVuSans-75"/>
      <use x="549.734375" xlink:href="#DejaVuSans-72"/>
      <use x="590.816406" xlink:href="#DejaVuSans-65"/>
      <use x="652.339844" xlink:href="#DejaVuSans-20"/>
      <use x="684.126953" xlink:href="#DejaVuSans-28"/>
      <use x="723.140625" xlink:href="#DejaVuSans-2a"/>
      <use x="773.140625" xlink:href="#DejaVuSans-43"/>
      <use x="842.964844" xlink:href="#DejaVuSans-29"/>
     </g>
    </g>
   </g>
   <g id="line2d_13">
    <path clip-path="url(#p90e88c4edc)" d="M 73.832727 221.860174 
L 398.487273 221.860174 
L 398.487273 221.860174 
" style="fill:none;stroke:#1f77b4;stroke-linecap:square;stroke-width:1.5;"/>
   </g>
   <g id="line2d_14">
    <path clip-path="url(#p90e88c4edc)" d="M 73.832727 127.195826 
L 74.37526 221.860174 
L 74.91725 64.086261 
L 76.001232 295.488 
L 76.543222 53.568 
L 77.085213 148.232348 
L 77.627204 148.232348 
L 78.169194 74.604522 
L 78.711185 221.860174 
L 79.253175 116.677565 
L 79.795166 137.714087 
L 80.337157 148.232348 
L 80.879147 137.714087 
L 81.421138 169.26887 
L 83.04711 137.714087 
L 83.5891 148.232348 
L 84.131091 127.195826 
L 84.673081 158.750609 
L 85.757063 137.714087 
L 86.299053 284.969739 
L 86.841044 74.604522 
L 87.383035 179.78713 
L 87.925025 179.78713 
L 88.467016 116.677565 
L 89.009006 169.26887 
L 89.550997 116.677565 
L 90.092988 116.677565 
L 90.634978 158.750609 
L 91.176969 85.122783 
L 91.718959 179.78713 
L 92.802941 95.641043 
L 93.344931 200.823652 
L 93.886922 137.714087 
L 94.428913 127.195826 
L 94.970903 169.26887 
L 95.512894 148.232348 
L 96.054884 169.26887 
L 96.596875 137.714087 
L 97.138866 158.750609 
L 97.680856 148.232348 
L 98.222847 169.26887 
L 98.764837 137.714087 
L 99.306828 158.750609 
L 99.848819 169.26887 
L 100.390809 158.750609 
L 100.9328 169.26887 
L 101.474791 169.26887 
L 102.016781 158.750609 
L 102.558772 158.750609 
L 103.100762 179.78713 
L 103.642753 158.750609 
L 104.184744 148.232348 
L 104.726734 158.750609 
L 105.268725 190.305391 
L 105.810715 200.823652 
L 106.352706 190.305391 
L 106.894697 148.232348 
L 107.436687 169.26887 
L 107.978678 148.232348 
L 108.520668 179.78713 
L 109.062659 179.78713 
L 109.60465 148.232348 
L 110.14664 137.714087 
L 110.688631 169.26887 
L 111.230622 169.26887 
L 111.772612 200.823652 
L 112.314603 158.750609 
L 112.856593 190.305391 
L 113.398584 158.750609 
L 113.940575 158.750609 
L 114.482565 148.232348 
L 115.024556 169.26887 
L 115.566546 179.78713 
L 116.108537 179.78713 
L 116.650528 148.232348 
L 117.192518 190.305391 
L 117.734509 148.232348 
L 118.2765 179.78713 
L 118.81849 190.305391 
L 119.360481 169.26887 
L 120.444462 190.305391 
L 120.986453 137.714087 
L 121.528443 179.78713 
L 122.070434 169.26887 
L 122.612424 137.714087 
L 123.696406 179.78713 
L 124.238396 137.714087 
L 124.780387 158.750609 
L 125.864368 179.78713 
L 126.948349 179.78713 
L 128.032331 137.714087 
L 128.574321 169.26887 
L 129.658302 148.232348 
L 130.742284 190.305391 
L 131.284274 148.232348 
L 131.826265 169.26887 
L 132.368255 158.750609 
L 132.910246 179.78713 
L 133.452237 169.26887 
L 133.994227 200.823652 
L 134.536218 169.26887 
L 135.078209 179.78713 
L 135.620199 179.78713 
L 136.16219 137.714087 
L 136.70418 158.750609 
L 137.788162 158.750609 
L 138.330152 169.26887 
L 138.872143 148.232348 
L 139.414133 158.750609 
L 139.956124 190.305391 
L 140.498115 169.26887 
L 141.040105 179.78713 
L 142.124087 179.78713 
L 143.208068 158.750609 
L 143.750058 158.750609 
L 144.292049 190.305391 
L 144.83404 158.750609 
L 145.37603 179.78713 
L 145.918021 158.750609 
L 146.460011 190.305391 
L 147.002002 169.26887 
L 147.543993 158.750609 
L 148.085983 190.305391 
L 148.627974 158.750609 
L 149.169965 169.26887 
L 149.711955 190.305391 
L 150.253946 158.750609 
L 150.795936 169.26887 
L 151.337927 190.305391 
L 151.879918 190.305391 
L 152.421908 148.232348 
L 152.963899 169.26887 
L 153.505889 179.78713 
L 154.589871 179.78713 
L 155.131861 190.305391 
L 155.673852 169.26887 
L 156.215842 190.305391 
L 157.841814 158.750609 
L 158.383805 158.750609 
L 158.925796 169.26887 
L 159.467786 169.26887 
L 160.009777 211.341913 
L 160.551767 169.26887 
L 161.093758 190.305391 
L 161.635749 158.750609 
L 162.177739 179.78713 
L 162.71973 158.750609 
L 163.26172 179.78713 
L 163.803711 190.305391 
L 164.345702 190.305391 
L 164.887692 127.195826 
L 165.429683 190.305391 
L 165.971674 169.26887 
L 166.513664 169.26887 
L 167.055655 179.78713 
L 167.597645 148.232348 
L 168.139636 190.305391 
L 168.681627 137.714087 
L 169.223617 179.78713 
L 170.307598 179.78713 
L 170.849589 158.750609 
L 171.39158 158.750609 
L 171.93357 179.78713 
L 172.475561 179.78713 
L 173.017552 158.750609 
L 173.559542 169.26887 
L 174.643523 211.341913 
L 175.185514 148.232348 
L 175.727505 179.78713 
L 176.269495 158.750609 
L 176.811486 169.26887 
L 177.353476 158.750609 
L 177.895467 158.750609 
L 178.437458 169.26887 
L 178.979448 158.750609 
L 179.521439 190.305391 
L 180.063429 169.26887 
L 180.60542 158.750609 
L 181.147411 158.750609 
L 181.689401 179.78713 
L 182.231392 190.305391 
L 182.773383 190.305391 
L 183.315373 179.78713 
L 184.399354 200.823652 
L 184.941345 158.750609 
L 185.483336 200.823652 
L 186.025326 158.750609 
L 187.109307 179.78713 
L 187.651298 158.750609 
L 188.193289 158.750609 
L 188.735279 179.78713 
L 189.27727 190.305391 
L 189.819261 169.26887 
L 190.361251 158.750609 
L 190.903242 190.305391 
L 191.445232 190.305391 
L 191.987223 169.26887 
L 192.529214 179.78713 
L 193.071204 158.750609 
L 193.613195 158.750609 
L 194.155185 179.78713 
L 194.697176 179.78713 
L 195.239167 169.26887 
L 196.323148 169.26887 
L 196.865139 148.232348 
L 197.407129 169.26887 
L 197.94912 169.26887 
L 199.033101 190.305391 
L 199.575092 190.305391 
L 200.117082 158.750609 
L 200.659073 190.305391 
L 201.201063 169.26887 
L 201.743054 190.305391 
L 202.827035 190.305391 
L 203.369026 221.860174 
L 203.911016 158.750609 
L 204.994998 179.78713 
L 205.536988 179.78713 
L 206.078979 190.305391 
L 206.62097 179.78713 
L 208.246941 179.78713 
L 208.788932 190.305391 
L 209.330923 148.232348 
L 209.872913 169.26887 
L 210.414904 158.750609 
L 210.956894 158.750609 
L 211.498885 190.305391 
L 212.040876 169.26887 
L 212.582866 158.750609 
L 213.666848 179.78713 
L 214.208838 158.750609 
L 215.83481 158.750609 
L 216.376801 200.823652 
L 216.918791 148.232348 
L 217.460782 179.78713 
L 218.002772 190.305391 
L 218.544763 190.305391 
L 219.086754 169.26887 
L 219.628744 158.750609 
L 220.170735 179.78713 
L 220.712725 158.750609 
L 221.254716 179.78713 
L 221.796707 158.750609 
L 222.338697 148.232348 
L 222.880688 190.305391 
L 223.422679 158.750609 
L 223.964669 190.305391 
L 224.50666 169.26887 
L 225.590641 190.305391 
L 226.674622 169.26887 
L 227.216613 169.26887 
L 228.300594 148.232348 
L 228.842585 200.823652 
L 229.384575 169.26887 
L 229.927108 158.750609 
L 230.469099 190.305391 
L 231.011089 179.78713 
L 231.553622 200.823652 
L 232.095612 158.750609 
L 233.179594 179.78713 
L 233.721584 148.232348 
L 234.263575 169.26887 
L 234.805565 158.750609 
L 235.347556 169.26887 
L 235.889547 137.714087 
L 236.431537 200.823652 
L 236.973528 158.750609 
L 237.515519 190.305391 
L 238.057509 169.26887 
L 238.5995 200.823652 
L 239.14149 190.305391 
L 239.683481 158.750609 
L 240.225472 190.305391 
L 240.767462 190.305391 
L 241.309453 158.750609 
L 241.851443 179.78713 
L 242.393434 137.714087 
L 242.935425 169.26887 
L 243.477415 190.305391 
L 244.019406 190.305391 
L 244.561397 169.26887 
L 245.645378 169.26887 
L 246.187368 158.750609 
L 246.729359 179.78713 
L 247.27135 148.232348 
L 247.81334 179.78713 
L 248.355331 200.823652 
L 248.897321 169.26887 
L 249.439312 169.26887 
L 249.981303 148.232348 
L 250.523293 190.305391 
L 251.065284 158.750609 
L 251.607275 158.750609 
L 252.149265 169.26887 
L 252.691256 158.750609 
L 253.233246 179.78713 
L 253.775237 179.78713 
L 254.317228 190.305391 
L 254.859218 179.78713 
L 255.943199 179.78713 
L 256.48519 158.750609 
L 257.027181 179.78713 
L 257.569171 190.305391 
L 258.111162 137.714087 
L 258.653152 190.305391 
L 259.195143 148.232348 
L 259.737134 190.305391 
L 260.279124 158.750609 
L 260.821115 137.714087 
L 261.363106 179.78713 
L 261.905096 179.78713 
L 262.447087 190.305391 
L 262.989077 190.305391 
L 263.531068 200.823652 
L 264.073059 169.26887 
L 264.615049 169.26887 
L 265.15704 158.750609 
L 265.69903 190.305391 
L 266.241021 179.78713 
L 266.783012 200.823652 
L 267.325002 158.750609 
L 267.866993 200.823652 
L 268.408984 169.26887 
L 268.950974 190.305391 
L 270.034955 169.26887 
L 270.576946 190.305391 
L 271.118937 169.26887 
L 271.660927 169.26887 
L 272.202918 200.823652 
L 272.744908 158.750609 
L 273.82889 179.78713 
L 274.37088 179.78713 
L 274.912871 190.305391 
L 275.454861 148.232348 
L 275.996852 190.305391 
L 276.538843 179.78713 
L 277.080833 158.750609 
L 277.622824 179.78713 
L 278.164815 169.26887 
L 278.706805 190.305391 
L 279.248796 158.750609 
L 279.790786 190.305391 
L 280.332777 169.26887 
L 281.416758 190.305391 
L 281.958749 158.750609 
L 282.500739 179.78713 
L 283.043272 179.78713 
L 283.585263 148.232348 
L 284.127253 169.26887 
L 284.669244 158.750609 
L 285.211234 190.305391 
L 285.753225 190.305391 
L 286.295216 158.750609 
L 286.837206 169.26887 
L 287.379197 169.26887 
L 287.921188 190.305391 
L 288.463178 137.714087 
L 289.005169 190.305391 
L 289.547159 190.305391 
L 290.08915 148.232348 
L 290.631141 200.823652 
L 291.715122 158.750609 
L 292.257112 169.26887 
L 292.799103 158.750609 
L 293.341094 179.78713 
L 293.883084 137.714087 
L 294.425075 169.26887 
L 294.967066 158.750609 
L 295.509056 190.305391 
L 296.051047 169.26887 
L 296.593037 158.750609 
L 297.135028 190.305391 
L 297.677019 158.750609 
L 298.219009 169.26887 
L 298.761 190.305391 
L 299.30299 158.750609 
L 299.844981 179.78713 
L 300.386972 148.232348 
L 300.928962 158.750609 
L 301.470953 179.78713 
L 302.012944 190.305391 
L 302.554934 169.26887 
L 303.096925 169.26887 
L 303.638915 179.78713 
L 304.722897 179.78713 
L 305.264887 190.305391 
L 305.806878 137.714087 
L 306.348868 169.26887 
L 306.890859 169.26887 
L 307.43285 158.750609 
L 307.97484 169.26887 
L 308.516831 158.750609 
L 309.058821 179.78713 
L 309.600812 169.26887 
L 310.142803 190.305391 
L 310.684793 190.305391 
L 311.226784 169.26887 
L 311.768775 190.305391 
L 312.310765 169.26887 
L 312.852756 190.305391 
L 313.394746 158.750609 
L 313.936737 158.750609 
L 314.478728 190.305391 
L 315.020718 158.750609 
L 315.562709 158.750609 
L 316.64669 179.78713 
L 317.188681 200.823652 
L 318.272662 158.750609 
L 318.814653 158.750609 
L 319.898634 179.78713 
L 320.440624 169.26887 
L 320.982615 148.232348 
L 321.524606 179.78713 
L 322.066596 200.823652 
L 322.608587 148.232348 
L 323.150577 190.305391 
L 323.692568 179.78713 
L 324.234559 158.750609 
L 324.776549 200.823652 
L 325.31854 169.26887 
L 326.402521 190.305391 
L 326.944512 190.305391 
L 327.486502 179.78713 
L 328.028493 158.750609 
L 328.570484 190.305391 
L 329.112474 148.232348 
L 329.654465 158.750609 
L 330.196455 190.305391 
L 330.738446 158.750609 
L 331.280437 179.78713 
L 331.822427 190.305391 
L 332.364418 190.305391 
L 332.906408 158.750609 
L 333.448399 179.78713 
L 333.99039 169.26887 
L 335.074371 190.305391 
L 335.616362 190.305391 
L 336.700343 169.26887 
L 337.242333 169.26887 
L 337.784324 148.232348 
L 338.326315 169.26887 
L 338.868305 148.232348 
L 339.410296 169.26887 
L 339.952286 158.750609 
L 340.494277 158.750609 
L 341.036268 148.232348 
L 341.578258 190.305391 
L 342.66224 169.26887 
L 343.20423 169.26887 
L 343.746221 200.823652 
L 344.288211 158.750609 
L 344.830202 158.750609 
L 345.372193 211.341913 
L 345.914183 158.750609 
L 346.456174 179.78713 
L 346.998164 158.750609 
L 347.540155 190.305391 
L 348.082146 148.232348 
L 348.624136 169.26887 
L 349.166127 179.78713 
L 349.708118 158.750609 
L 350.250108 179.78713 
L 350.792099 158.750609 
L 351.334089 169.26887 
L 351.87608 190.305391 
L 352.418071 169.26887 
L 352.960061 179.78713 
L 353.502052 179.78713 
L 354.044042 158.750609 
L 354.586033 158.750609 
L 355.128024 190.305391 
L 355.670014 158.750609 
L 356.212005 179.78713 
L 356.753995 169.26887 
L 357.295986 190.305391 
L 357.837977 169.26887 
L 358.379967 158.750609 
L 358.921958 179.78713 
L 359.463949 190.305391 
L 360.005939 190.305391 
L 360.54793 158.750609 
L 361.08992 200.823652 
L 361.631911 179.78713 
L 362.173902 169.26887 
L 362.715892 211.341913 
L 363.257883 158.750609 
L 363.799873 169.26887 
L 364.341864 158.750609 
L 364.883855 158.750609 
L 365.425845 190.305391 
L 365.967836 179.78713 
L 366.509827 190.305391 
L 367.051817 158.750609 
L 367.593808 179.78713 
L 368.135798 169.26887 
L 369.21978 169.26887 
L 369.76177 190.305391 
L 370.845751 190.305391 
L 371.387742 158.750609 
L 371.929733 169.26887 
L 372.471723 158.750609 
L 373.013714 179.78713 
L 373.555705 158.750609 
L 374.097695 169.26887 
L 374.639686 158.750609 
L 375.181676 158.750609 
L 375.723667 190.305391 
L 376.265658 169.26887 
L 376.807648 190.305391 
L 377.349639 137.714087 
L 377.891629 179.78713 
L 378.43362 179.78713 
L 378.975611 148.232348 
L 379.517601 190.305391 
L 380.059592 200.823652 
L 380.601582 190.305391 
L 381.143573 190.305391 
L 381.685564 158.750609 
L 382.227554 169.26887 
L 382.769545 169.26887 
L 383.311536 190.305391 
L 383.853526 179.78713 
L 384.395517 179.78713 
L 384.937507 169.26887 
L 385.479498 179.78713 
L 386.021489 158.750609 
L 386.563479 158.750609 
L 387.10547 179.78713 
L 387.64746 190.305391 
L 388.189451 169.26887 
L 388.731442 179.78713 
L 389.273432 179.78713 
L 389.815423 211.341913 
L 390.357414 148.232348 
L 391.441395 169.26887 
L 392.525376 169.26887 
L 393.067367 190.305391 
L 393.609357 158.750609 
L 394.151348 158.750609 
L 394.693338 200.823652 
L 395.235329 179.78713 
L 395.77732 169.26887 
L 397.403292 200.823652 
L 397.945282 158.750609 
L 398.487273 190.305391 
L 398.487273 190.305391 
" style="fill:none;stroke:#ff7f0e;stroke-linecap:square;stroke-width:1.5;"/>
   </g>
   <g id="patch_3">
    <path d="M 57.6 307.584 
L 57.6 41.472 
" style="fill:none;stroke:#000000;stroke-linecap:square;stroke-linejoin:miter;stroke-width:0.8;"/>
   </g>
   <g id="patch_4">
    <path d="M 414.72 307.584 
L 414.72 41.472 
" style="fill:none;stroke:#000000;stroke-linecap:square;stroke-linejoin:miter;stroke-width:0.8;"/>
   </g>
   <g id="patch_5">
    <path d="M 57.6 307.584 
L 414.72 307.584 
" style="fill:none;stroke:#000000;stroke-linecap:square;stroke-linejoin:miter;stroke-width:0.8;"/>
   </g>
   <g id="patch_6">
    <path d="M 57.6 41.472 
L 414.72 41.472 
" style="fill:none;stroke:#000000;stroke-linecap:square;stroke-linejoin:miter;stroke-width:0.8;"/>
   </g>
   <g id="text_15">
    <!-- Temperatures of heater -->
    <defs>
     <path d="M 30.609375 48.390625 
Q 23.390625 48.390625 19.1875 42.75 
Q 14.984375 37.109375 14.984375 27.296875 
Q 14.984375 17.484375 19.15625 11.84375 
Q 23.34375 6.203125 30.609375 6.203125 
Q 37.796875 6.203125 41.984375 11.859375 
Q 46.1875 17.53125 46.1875 27.296875 
Q 46.1875 37.015625 41.984375 42.703125 
Q 37.796875 48.390625 30.609375 48.390625 
z
M 30.609375 56 
Q 42.328125 56 49.015625 48.375 
Q 55.71875 40.765625 55.71875 27.296875 
Q 55.71875 13.875 49.015625 6.21875 
Q 42.328125 -1.421875 30.609375 -1.421875 
Q 18.84375 -1.421875 12.171875 6.21875 
Q 5.515625 13.875 5.515625 27.296875 
Q 5.515625 40.765625 12.171875 48.375 
Q 18.84375 56 30.609375 56 
z
" id="DejaVuSans-6f"/>
     <path d="M 37.109375 75.984375 
L 37.109375 68.5 
L 28.515625 68.5 
Q 23.6875 68.5 21.796875 66.546875 
Q 19.921875 64.59375 19.921875 59.515625 
L 19.921875 54.6875 
L 34.71875 54.6875 
L 34.71875 47.703125 
L 19.921875 47.703125 
L 19.921875 0 
L 10.890625 0 
L 10.890625 47.703125 
L 2.296875 47.703125 
L 2.296875 54.6875 
L 10.890625 54.6875 
L 10.890625 58.5 
Q 10.890625 67.625 15.140625 71.796875 
Q 19.390625 75.984375 28.609375 75.984375 
z
" id="DejaVuSans-66"/>
     <path d="M 54.890625 33.015625 
L 54.890625 0 
L 45.90625 0 
L 45.90625 32.71875 
Q 45.90625 40.484375 42.875 44.328125 
Q 39.84375 48.1875 33.796875 48.1875 
Q 26.515625 48.1875 22.3125 43.546875 
Q 18.109375 38.921875 18.109375 30.90625 
L 18.109375 0 
L 9.078125 0 
L 9.078125 75.984375 
L 18.109375 75.984375 
L 18.109375 46.1875 
Q 21.34375 51.125 25.703125 53.5625 
Q 30.078125 56 35.796875 56 
Q 45.21875 56 50.046875 50.171875 
Q 54.890625 44.34375 54.890625 33.015625 
z
" id="DejaVuSans-68"/>
    </defs>
    <g transform="translate(164.614688 35.472)scale(0.12 -0.12)">
     <use xlink:href="#DejaVuSans-54"/>
     <use x="60.818359" xlink:href="#DejaVuSans-65"/>
     <use x="122.341797" xlink:href="#DejaVuSans-6d"/>
     <use x="219.753906" xlink:href="#DejaVuSans-70"/>
     <use x="283.230469" xlink:href="#DejaVuSans-65"/>
     <use x="344.753906" xlink:href="#DejaVuSans-72"/>
     <use x="385.867188" xlink:href="#DejaVuSans-61"/>
     <use x="447.146484" xlink:href="#DejaVuSans-74"/>
     <use x="486.355469" xlink:href="#DejaVuSans-75"/>
     <use x="549.734375" xlink:href="#DejaVuSans-72"/>
     <use x="590.816406" xlink:href="#DejaVuSans-65"/>
     <use x="652.339844" xlink:href="#DejaVuSans-73"/>
     <use x="704.439453" xlink:href="#DejaVuSans-20"/>
     <use x="736.226562" xlink:href="#DejaVuSans-6f"/>
     <use x="797.408203" xlink:href="#DejaVuSans-66"/>
     <use x="832.613281" xlink:href="#DejaVuSans-20"/>
     <use x="864.400391" xlink:href="#DejaVuSans-68"/>
     <use x="927.779297" xlink:href="#DejaVuSans-65"/>
     <use x="989.302734" xlink:href="#DejaVuSans-61"/>
     <use x="1050.582031" xlink:href="#DejaVuSans-74"/>
     <use x="1089.791016" xlink:href="#DejaVuSans-65"/>
     <use x="1151.314453" xlink:href="#DejaVuSans-72"/>
    </g>
   </g>
   <g id="legend_1">
    <g id="patch_7">
     <path d="M 328.585625 78.82825 
L 407.72 78.82825 
Q 409.72 78.82825 409.72 76.82825 
L 409.72 48.472 
Q 409.72 46.472 407.72 46.472 
L 328.585625 46.472 
Q 326.585625 46.472 326.585625 48.472 
L 326.585625 76.82825 
Q 326.585625 78.82825 328.585625 78.82825 
z
" style="fill:#ffffff;opacity:0.8;stroke:#cccccc;stroke-linejoin:miter;"/>
    </g>
    <g id="line2d_15">
     <path d="M 330.585625 54.570437 
L 350.585625 54.570437 
" style="fill:none;stroke:#1f77b4;stroke-linecap:square;stroke-width:1.5;"/>
    </g>
    <g id="line2d_16"/>
    <g id="text_16">
     <!-- Setpoints -->
     <defs>
      <path d="M 53.515625 70.515625 
L 53.515625 60.890625 
Q 47.90625 63.578125 42.921875 64.890625 
Q 37.9375 66.21875 33.296875 66.21875 
Q 25.25 66.21875 20.875 63.09375 
Q 16.5 59.96875 16.5 54.203125 
Q 16.5 49.359375 19.40625 46.890625 
Q 22.3125 44.4375 30.421875 42.921875 
L 36.375 41.703125 
Q 47.40625 39.59375 52.65625 34.296875 
Q 57.90625 29 57.90625 20.125 
Q 57.90625 9.515625 50.796875 4.046875 
Q 43.703125 -1.421875 29.984375 -1.421875 
Q 24.8125 -1.421875 18.96875 -0.25 
Q 13.140625 0.921875 6.890625 3.21875 
L 6.890625 13.375 
Q 12.890625 10.015625 18.65625 8.296875 
Q 24.421875 6.59375 29.984375 6.59375 
Q 38.421875 6.59375 43.015625 9.90625 
Q 47.609375 13.234375 47.609375 19.390625 
Q 47.609375 24.75 44.3125 27.78125 
Q 41.015625 30.8125 33.5 32.328125 
L 27.484375 33.5 
Q 16.453125 35.6875 11.515625 40.375 
Q 6.59375 45.0625 6.59375 53.421875 
Q 6.59375 63.09375 13.40625 68.65625 
Q 20.21875 74.21875 32.171875 74.21875 
Q 37.3125 74.21875 42.625 73.28125 
Q 47.953125 72.359375 53.515625 70.515625 
z
" id="DejaVuSans-53"/>
      <path d="M 9.421875 54.6875 
L 18.40625 54.6875 
L 18.40625 0 
L 9.421875 0 
z
M 9.421875 75.984375 
L 18.40625 75.984375 
L 18.40625 64.59375 
L 9.421875 64.59375 
z
" id="DejaVuSans-69"/>
      <path d="M 54.890625 33.015625 
L 54.890625 0 
L 45.90625 0 
L 45.90625 32.71875 
Q 45.90625 40.484375 42.875 44.328125 
Q 39.84375 48.1875 33.796875 48.1875 
Q 26.515625 48.1875 22.3125 43.546875 
Q 18.109375 38.921875 18.109375 30.90625 
L 18.109375 0 
L 9.078125 0 
L 9.078125 54.6875 
L 18.109375 54.6875 
L 18.109375 46.1875 
Q 21.34375 51.125 25.703125 53.5625 
Q 30.078125 56 35.796875 56 
Q 45.21875 56 50.046875 50.171875 
Q 54.890625 44.34375 54.890625 33.015625 
z
" id="DejaVuSans-6e"/>
     </defs>
     <g transform="translate(358.585625 58.070437)scale(0.1 -0.1)">
      <use xlink:href="#DejaVuSans-53"/>
      <use x="63.476562" xlink:href="#DejaVuSans-65"/>
      <use x="125" xlink:href="#DejaVuSans-74"/>
      <use x="164.208984" xlink:href="#DejaVuSans-70"/>
      <use x="227.685547" xlink:href="#DejaVuSans-6f"/>
      <use x="288.867188" xlink:href="#DejaVuSans-69"/>
      <use x="316.650391" xlink:href="#DejaVuSans-6e"/>
      <use x="380.029297" xlink:href="#DejaVuSans-74"/>
      <use x="419.238281" xlink:href="#DejaVuSans-73"/>
     </g>
    </g>
    <g id="line2d_17">
     <path d="M 330.585625 69.248562 
L 350.585625 69.248562 
" style="fill:none;stroke:#ff7f0e;stroke-linecap:square;stroke-width:1.5;"/>
    </g>
    <g id="line2d_18"/>
    <g id="text_17">
     <!-- Heater -->
     <defs>
      <path d="M 9.8125 72.90625 
L 19.671875 72.90625 
L 19.671875 43.015625 
L 55.515625 43.015625 
L 55.515625 72.90625 
L 65.375 72.90625 
L 65.375 0 
L 55.515625 0 
L 55.515625 34.71875 
L 19.671875 34.71875 
L 19.671875 0 
L 9.8125 0 
z
" id="DejaVuSans-48"/>
     </defs>
     <g transform="translate(358.585625 72.748562)scale(0.1 -0.1)">
      <use xlink:href="#DejaVuSans-48"/>
      <use x="75.195312" xlink:href="#DejaVuSans-65"/>
      <use x="136.71875" xlink:href="#DejaVuSans-61"/>
      <use x="197.998047" xlink:href="#DejaVuSans-74"/>
      <use x="237.207031" xlink:href="#DejaVuSans-65"/>
      <use x="298.730469" xlink:href="#DejaVuSans-72"/>
     </g>
    </g>
   </g>
  </g>
 </g>
 <defs>
  <clipPath id="p90e88c4edc">
   <rect height="266.112" width="357.12" x="57.6" y="41.472"/>
  </clipPath>
 </defs>
</svg>
