<?xml version="1.0" encoding="utf-8" standalone="no"?>
<!DOCTYPE svg PUBLIC "-//W3C//DTD SVG 1.1//EN"
  "http://www.w3.org/Graphics/SVG/1.1/DTD/svg11.dtd">
<!-- Created with matplotlib (http://matplotlib.org/) -->
<svg height="345pt" version="1.1" viewBox="0 0 460 345" width="460pt" xmlns="http://www.w3.org/2000/svg" xmlns:xlink="http://www.w3.org/1999/xlink">
 <defs>
  <style type="text/css">
*{stroke-linecap:butt;stroke-linejoin:round;}
  </style>
 </defs>
 <g id="figure_1">
  <g id="patch_1">
   <path d="M 0 345.6 
L 460.8 345.6 
L 460.8 0 
L 0 0 
z
" style="fill:#ffffff;"/>
  </g>
  <g id="axes_1">
   <g id="patch_2">
    <path d="M 57.6 307.584 
L 414.72 307.584 
L 414.72 41.472 
L 57.6 41.472 
z
" style="fill:#ffffff;"/>
   </g>
   <g id="matplotlib.axis_1">
    <g id="xtick_1">
     <g id="line2d_1">
      <defs>
       <path d="M 0 0 
L 0 3.5 
" id="m5e93676147" style="stroke:#000000;stroke-width:0.8;"/>
      </defs>
      <g>
       <use style="stroke:#000000;stroke-width:0.8;" x="73.832727" xlink:href="#m5e93676147" y="307.584"/>
      </g>
     </g>
     <g id="text_1">
      <!-- 0 -->
      <defs>
       <path d="M 31.78125 66.40625 
Q 24.171875 66.40625 20.328125 58.90625 
Q 16.5 51.421875 16.5 36.375 
Q 16.5 21.390625 20.328125 13.890625 
Q 24.171875 6.390625 31.78125 6.390625 
Q 39.453125 6.390625 43.28125 13.890625 
Q 47.125 21.390625 47.125 36.375 
Q 47.125 51.421875 43.28125 58.90625 
Q 39.453125 66.40625 31.78125 66.40625 
z
M 31.78125 74.21875 
Q 44.046875 74.21875 50.515625 64.515625 
Q 56.984375 54.828125 56.984375 36.375 
Q 56.984375 17.96875 50.515625 8.265625 
Q 44.046875 -1.421875 31.78125 -1.421875 
Q 19.53125 -1.421875 13.0625 8.265625 
Q 6.59375 17.96875 6.59375 36.375 
Q 6.59375 54.828125 13.0625 64.515625 
Q 19.53125 74.21875 31.78125 74.21875 
z
" id="DejaVuSans-30"/>
      </defs>
      <g transform="translate(70.651477 322.182437)scale(0.1 -0.1)">
       <use xlink:href="#DejaVuSans-30"/>
      </g>
     </g>
    </g>
    <g id="xtick_2">
     <g id="line2d_2">
      <g>
       <use style="stroke:#000000;stroke-width:0.8;" x="128.031789" xlink:href="#m5e93676147" y="307.584"/>
      </g>
     </g>
     <g id="text_2">
      <!-- 100 -->
      <defs>
       <path d="M 12.40625 8.296875 
L 28.515625 8.296875 
L 28.515625 63.921875 
L 10.984375 60.40625 
L 10.984375 69.390625 
L 28.421875 72.90625 
L 38.28125 72.90625 
L 38.28125 8.296875 
L 54.390625 8.296875 
L 54.390625 0 
L 12.40625 0 
z
" id="DejaVuSans-31"/>
      </defs>
      <g transform="translate(118.488039 322.182437)scale(0.1 -0.1)">
       <use xlink:href="#DejaVuSans-31"/>
       <use x="63.623047" xlink:href="#DejaVuSans-30"/>
       <use x="127.246094" xlink:href="#DejaVuSans-30"/>
      </g>
     </g>
    </g>
    <g id="xtick_3">
     <g id="line2d_3">
      <g>
       <use style="stroke:#000000;stroke-width:0.8;" x="182.23085" xlink:href="#m5e93676147" y="307.584"/>
      </g>
     </g>
     <g id="text_3">
      <!-- 200 -->
      <defs>
       <path d="M 19.1875 8.296875 
L 53.609375 8.296875 
L 53.609375 0 
L 7.328125 0 
L 7.328125 8.296875 
Q 12.9375 14.109375 22.625 23.890625 
Q 32.328125 33.6875 34.8125 36.53125 
Q 39.546875 41.84375 41.421875 45.53125 
Q 43.3125 49.21875 43.3125 52.78125 
Q 43.3125 58.59375 39.234375 62.25 
Q 35.15625 65.921875 28.609375 65.921875 
Q 23.96875 65.921875 18.8125 64.3125 
Q 13.671875 62.703125 7.8125 59.421875 
L 7.8125 69.390625 
Q 13.765625 71.78125 18.9375 73 
Q 24.125 74.21875 28.421875 74.21875 
Q 39.75 74.21875 46.484375 68.546875 
Q 53.21875 62.890625 53.21875 53.421875 
Q 53.21875 48.921875 51.53125 44.890625 
Q 49.859375 40.875 45.40625 35.40625 
Q 44.1875 33.984375 37.640625 27.21875 
Q 31.109375 20.453125 19.1875 8.296875 
z
" id="DejaVuSans-32"/>
      </defs>
      <g transform="translate(172.6871 322.182437)scale(0.1 -0.1)">
       <use xlink:href="#DejaVuSans-32"/>
       <use x="63.623047" xlink:href="#DejaVuSans-30"/>
       <use x="127.246094" xlink:href="#DejaVuSans-30"/>
      </g>
     </g>
    </g>
    <g id="xtick_4">
     <g id="line2d_4">
      <g>
       <use style="stroke:#000000;stroke-width:0.8;" x="236.429911" xlink:href="#m5e93676147" y="307.584"/>
      </g>
     </g>
     <g id="text_4">
      <!-- 300 -->
      <defs>
       <path d="M 40.578125 39.3125 
Q 47.65625 37.796875 51.625 33 
Q 55.609375 28.21875 55.609375 21.1875 
Q 55.609375 10.40625 48.1875 4.484375 
Q 40.765625 -1.421875 27.09375 -1.421875 
Q 22.515625 -1.421875 17.65625 -0.515625 
Q 12.796875 0.390625 7.625 2.203125 
L 7.625 11.71875 
Q 11.71875 9.328125 16.59375 8.109375 
Q 21.484375 6.890625 26.8125 6.890625 
Q 36.078125 6.890625 40.9375 10.546875 
Q 45.796875 14.203125 45.796875 21.1875 
Q 45.796875 27.640625 41.28125 31.265625 
Q 36.765625 34.90625 28.71875 34.90625 
L 20.21875 34.90625 
L 20.21875 43.015625 
L 29.109375 43.015625 
Q 36.375 43.015625 40.234375 45.921875 
Q 44.09375 48.828125 44.09375 54.296875 
Q 44.09375 59.90625 40.109375 62.90625 
Q 36.140625 65.921875 28.71875 65.921875 
Q 24.65625 65.921875 20.015625 65.03125 
Q 15.375 64.15625 9.8125 62.3125 
L 9.8125 71.09375 
Q 15.4375 72.65625 20.34375 73.4375 
Q 25.25 74.21875 29.59375 74.21875 
Q 40.828125 74.21875 47.359375 69.109375 
Q 53.90625 64.015625 53.90625 55.328125 
Q 53.90625 49.265625 50.4375 45.09375 
Q 46.96875 40.921875 40.578125 39.3125 
z
" id="DejaVuSans-33"/>
      </defs>
      <g transform="translate(226.886161 322.182437)scale(0.1 -0.1)">
       <use xlink:href="#DejaVuSans-33"/>
       <use x="63.623047" xlink:href="#DejaVuSans-30"/>
       <use x="127.246094" xlink:href="#DejaVuSans-30"/>
      </g>
     </g>
    </g>
    <g id="xtick_5">
     <g id="line2d_5">
      <g>
       <use style="stroke:#000000;stroke-width:0.8;" x="290.628973" xlink:href="#m5e93676147" y="307.584"/>
      </g>
     </g>
     <g id="text_5">
      <!-- 400 -->
      <defs>
       <path d="M 37.796875 64.3125 
L 12.890625 25.390625 
L 37.796875 25.390625 
z
M 35.203125 72.90625 
L 47.609375 72.90625 
L 47.609375 25.390625 
L 58.015625 25.390625 
L 58.015625 17.1875 
L 47.609375 17.1875 
L 47.609375 0 
L 37.796875 0 
L 37.796875 17.1875 
L 4.890625 17.1875 
L 4.890625 26.703125 
z
" id="DejaVuSans-34"/>
      </defs>
      <g transform="translate(281.085223 322.182437)scale(0.1 -0.1)">
       <use xlink:href="#DejaVuSans-34"/>
       <use x="63.623047" xlink:href="#DejaVuSans-30"/>
       <use x="127.246094" xlink:href="#DejaVuSans-30"/>
      </g>
     </g>
    </g>
    <g id="xtick_6">
     <g id="line2d_6">
      <g>
       <use style="stroke:#000000;stroke-width:0.8;" x="344.828034" xlink:href="#m5e93676147" y="307.584"/>
      </g>
     </g>
     <g id="text_6">
      <!-- 500 -->
      <defs>
       <path d="M 10.796875 72.90625 
L 49.515625 72.90625 
L 49.515625 64.59375 
L 19.828125 64.59375 
L 19.828125 46.734375 
Q 21.96875 47.46875 24.109375 47.828125 
Q 26.265625 48.1875 28.421875 48.1875 
Q 40.625 48.1875 47.75 41.5 
Q 54.890625 34.8125 54.890625 23.390625 
Q 54.890625 11.625 47.5625 5.09375 
Q 40.234375 -1.421875 26.90625 -1.421875 
Q 22.3125 -1.421875 17.546875 -0.640625 
Q 12.796875 0.140625 7.71875 1.703125 
L 7.71875 11.625 
Q 12.109375 9.234375 16.796875 8.0625 
Q 21.484375 6.890625 26.703125 6.890625 
Q 35.15625 6.890625 40.078125 11.328125 
Q 45.015625 15.765625 45.015625 23.390625 
Q 45.015625 31 40.078125 35.4375 
Q 35.15625 39.890625 26.703125 39.890625 
Q 22.75 39.890625 18.8125 39.015625 
Q 14.890625 38.140625 10.796875 36.28125 
z
" id="DejaVuSans-35"/>
      </defs>
      <g transform="translate(335.284284 322.182437)scale(0.1 -0.1)">
       <use xlink:href="#DejaVuSans-35"/>
       <use x="63.623047" xlink:href="#DejaVuSans-30"/>
       <use x="127.246094" xlink:href="#DejaVuSans-30"/>
      </g>
     </g>
    </g>
    <g id="xtick_7">
     <g id="line2d_7">
      <g>
       <use style="stroke:#000000;stroke-width:0.8;" x="399.027095" xlink:href="#m5e93676147" y="307.584"/>
      </g>
     </g>
     <g id="text_7">
      <!-- 600 -->
      <defs>
       <path d="M 33.015625 40.375 
Q 26.375 40.375 22.484375 35.828125 
Q 18.609375 31.296875 18.609375 23.390625 
Q 18.609375 15.53125 22.484375 10.953125 
Q 26.375 6.390625 33.015625 6.390625 
Q 39.65625 6.390625 43.53125 10.953125 
Q 47.40625 15.53125 47.40625 23.390625 
Q 47.40625 31.296875 43.53125 35.828125 
Q 39.65625 40.375 33.015625 40.375 
z
M 52.59375 71.296875 
L 52.59375 62.3125 
Q 48.875 64.0625 45.09375 64.984375 
Q 41.3125 65.921875 37.59375 65.921875 
Q 27.828125 65.921875 22.671875 59.328125 
Q 17.53125 52.734375 16.796875 39.40625 
Q 19.671875 43.65625 24.015625 45.921875 
Q 28.375 48.1875 33.59375 48.1875 
Q 44.578125 48.1875 50.953125 41.515625 
Q 57.328125 34.859375 57.328125 23.390625 
Q 57.328125 12.15625 50.6875 5.359375 
Q 44.046875 -1.421875 33.015625 -1.421875 
Q 20.359375 -1.421875 13.671875 8.265625 
Q 6.984375 17.96875 6.984375 36.375 
Q 6.984375 53.65625 15.1875 63.9375 
Q 23.390625 74.21875 37.203125 74.21875 
Q 40.921875 74.21875 44.703125 73.484375 
Q 48.484375 72.75 52.59375 71.296875 
z
" id="DejaVuSans-36"/>
      </defs>
      <g transform="translate(389.483345 322.182437)scale(0.1 -0.1)">
       <use xlink:href="#DejaVuSans-36"/>
       <use x="63.623047" xlink:href="#DejaVuSans-30"/>
       <use x="127.246094" xlink:href="#DejaVuSans-30"/>
      </g>
     </g>
    </g>
    <g id="text_8">
     <!-- t(s) -->
     <defs>
      <path d="M 18.3125 70.21875 
L 18.3125 54.6875 
L 36.8125 54.6875 
L 36.8125 47.703125 
L 18.3125 47.703125 
L 18.3125 18.015625 
Q 18.3125 11.328125 20.140625 9.421875 
Q 21.96875 7.515625 27.59375 7.515625 
L 36.8125 7.515625 
L 36.8125 0 
L 27.59375 0 
Q 17.1875 0 13.234375 3.875 
Q 9.28125 7.765625 9.28125 18.015625 
L 9.28125 47.703125 
L 2.6875 47.703125 
L 2.6875 54.6875 
L 9.28125 54.6875 
L 9.28125 70.21875 
z
" id="DejaVuSans-74"/>
      <path d="M 31 75.875 
Q 24.46875 64.65625 21.28125 53.65625 
Q 18.109375 42.671875 18.109375 31.390625 
Q 18.109375 20.125 21.3125 9.0625 
Q 24.515625 -2 31 -13.1875 
L 23.1875 -13.1875 
Q 15.875 -1.703125 12.234375 9.375 
Q 8.59375 20.453125 8.59375 31.390625 
Q 8.59375 42.28125 12.203125 53.3125 
Q 15.828125 64.359375 23.1875 75.875 
z
" id="DejaVuSans-28"/>
      <path d="M 44.28125 53.078125 
L 44.28125 44.578125 
Q 40.484375 46.53125 36.375 47.5 
Q 32.28125 48.484375 27.875 48.484375 
Q 21.1875 48.484375 17.84375 46.4375 
Q 14.5 44.390625 14.5 40.28125 
Q 14.5 37.15625 16.890625 35.375 
Q 19.28125 33.59375 26.515625 31.984375 
L 29.59375 31.296875 
Q 39.15625 29.25 43.1875 25.515625 
Q 47.21875 21.78125 47.21875 15.09375 
Q 47.21875 7.46875 41.1875 3.015625 
Q 35.15625 -1.421875 24.609375 -1.421875 
Q 20.21875 -1.421875 15.453125 -0.5625 
Q 10.6875 0.296875 5.421875 2 
L 5.421875 11.28125 
Q 10.40625 8.6875 15.234375 7.390625 
Q 20.0625 6.109375 24.8125 6.109375 
Q 31.15625 6.109375 34.5625 8.28125 
Q 37.984375 10.453125 37.984375 14.40625 
Q 37.984375 18.0625 35.515625 20.015625 
Q 33.0625 21.96875 24.703125 23.78125 
L 21.578125 24.515625 
Q 13.234375 26.265625 9.515625 29.90625 
Q 5.8125 33.546875 5.8125 39.890625 
Q 5.8125 47.609375 11.28125 51.796875 
Q 16.75 56 26.8125 56 
Q 31.78125 56 36.171875 55.265625 
Q 40.578125 54.546875 44.28125 53.078125 
z
" id="DejaVuSans-73"/>
      <path d="M 8.015625 75.875 
L 15.828125 75.875 
Q 23.140625 64.359375 26.78125 53.3125 
Q 30.421875 42.28125 30.421875 31.390625 
Q 30.421875 20.453125 26.78125 9.375 
Q 23.140625 -1.703125 15.828125 -13.1875 
L 8.015625 -13.1875 
Q 14.5 -2 17.703125 9.0625 
Q 20.90625 20.125 20.90625 31.390625 
Q 20.90625 42.671875 17.703125 53.65625 
Q 14.5 64.65625 8.015625 75.875 
z
" id="DejaVuSans-29"/>
     </defs>
     <g transform="translate(227.693594 335.860562)scale(0.1 -0.1)">
      <use xlink:href="#DejaVuSans-74"/>
      <use x="39.208984" xlink:href="#DejaVuSans-28"/>
      <use x="78.222656" xlink:href="#DejaVuSans-73"/>
      <use x="130.322266" xlink:href="#DejaVuSans-29"/>
     </g>
    </g>
   </g>
   <g id="matplotlib.axis_2">
    <g id="ytick_1">
     <g id="line2d_8">
      <defs>
       <path d="M 0 0 
L -3.5 0 
" id="me1148a0783" style="stroke:#000000;stroke-width:0.8;"/>
      </defs>
      <g>
       <use style="stroke:#000000;stroke-width:0.8;" x="57.6" xlink:href="#me1148a0783" y="289.115881"/>
      </g>
     </g>
     <g id="text_9">
      <!-- −2.5 -->
      <defs>
       <path d="M 10.59375 35.5 
L 73.1875 35.5 
L 73.1875 27.203125 
L 10.59375 27.203125 
z
" id="DejaVuSans-2212"/>
       <path d="M 10.6875 12.40625 
L 21 12.40625 
L 21 0 
L 10.6875 0 
z
" id="DejaVuSans-2e"/>
      </defs>
      <g transform="translate(26.317187 292.9151)scale(0.1 -0.1)">
       <use xlink:href="#DejaVuSans-2212"/>
       <use x="83.789062" xlink:href="#DejaVuSans-32"/>
       <use x="147.412109" xlink:href="#DejaVuSans-2e"/>
       <use x="179.199219" xlink:href="#DejaVuSans-35"/>
      </g>
     </g>
    </g>
    <g id="ytick_2">
     <g id="line2d_9">
      <g>
       <use style="stroke:#000000;stroke-width:0.8;" x="57.6" xlink:href="#me1148a0783" y="253.978198"/>
      </g>
     </g>
     <g id="text_10">
      <!-- −2.0 -->
      <g transform="translate(26.317187 257.777417)scale(0.1 -0.1)">
       <use xlink:href="#DejaVuSans-2212"/>
       <use x="83.789062" xlink:href="#DejaVuSans-32"/>
       <use x="147.412109" xlink:href="#DejaVuSans-2e"/>
       <use x="179.199219" xlink:href="#DejaVuSans-30"/>
      </g>
     </g>
    </g>
    <g id="ytick_3">
     <g id="line2d_10">
      <g>
       <use style="stroke:#000000;stroke-width:0.8;" x="57.6" xlink:href="#me1148a0783" y="218.840516"/>
      </g>
     </g>
     <g id="text_11">
      <!-- −1.5 -->
      <g transform="translate(26.317187 222.639734)scale(0.1 -0.1)">
       <use xlink:href="#DejaVuSans-2212"/>
       <use x="83.789062" xlink:href="#DejaVuSans-31"/>
       <use x="147.412109" xlink:href="#DejaVuSans-2e"/>
       <use x="179.199219" xlink:href="#DejaVuSans-35"/>
      </g>
     </g>
    </g>
    <g id="ytick_4">
     <g id="line2d_11">
      <g>
       <use style="stroke:#000000;stroke-width:0.8;" x="57.6" xlink:href="#me1148a0783" y="183.702833"/>
      </g>
     </g>
     <g id="text_12">
      <!-- −1.0 -->
      <g transform="translate(26.317187 187.502052)scale(0.1 -0.1)">
       <use xlink:href="#DejaVuSans-2212"/>
       <use x="83.789062" xlink:href="#DejaVuSans-31"/>
       <use x="147.412109" xlink:href="#DejaVuSans-2e"/>
       <use x="179.199219" xlink:href="#DejaVuSans-30"/>
      </g>
     </g>
    </g>
    <g id="ytick_5">
     <g id="line2d_12">
      <g>
       <use style="stroke:#000000;stroke-width:0.8;" x="57.6" xlink:href="#me1148a0783" y="148.56515"/>
      </g>
     </g>
     <g id="text_13">
      <!-- −0.5 -->
      <g transform="translate(26.317187 152.364369)scale(0.1 -0.1)">
       <use xlink:href="#DejaVuSans-2212"/>
       <use x="83.789062" xlink:href="#DejaVuSans-30"/>
       <use x="147.412109" xlink:href="#DejaVuSans-2e"/>
       <use x="179.199219" xlink:href="#DejaVuSans-35"/>
      </g>
     </g>
    </g>
    <g id="ytick_6">
     <g id="line2d_13">
      <g>
       <use style="stroke:#000000;stroke-width:0.8;" x="57.6" xlink:href="#me1148a0783" y="113.427467"/>
      </g>
     </g>
     <g id="text_14">
      <!-- 0.0 -->
      <g transform="translate(34.696875 117.226686)scale(0.1 -0.1)">
       <use xlink:href="#DejaVuSans-30"/>
       <use x="63.623047" xlink:href="#DejaVuSans-2e"/>
       <use x="95.410156" xlink:href="#DejaVuSans-30"/>
      </g>
     </g>
    </g>
    <g id="ytick_7">
     <g id="line2d_14">
      <g>
       <use style="stroke:#000000;stroke-width:0.8;" x="57.6" xlink:href="#me1148a0783" y="78.289784"/>
      </g>
     </g>
     <g id="text_15">
      <!-- 0.5 -->
      <g transform="translate(34.696875 82.089003)scale(0.1 -0.1)">
       <use xlink:href="#DejaVuSans-30"/>
       <use x="63.623047" xlink:href="#DejaVuSans-2e"/>
       <use x="95.410156" xlink:href="#DejaVuSans-35"/>
      </g>
     </g>
    </g>
    <g id="ytick_8">
     <g id="line2d_15">
      <g>
       <use style="stroke:#000000;stroke-width:0.8;" x="57.6" xlink:href="#me1148a0783" y="43.152101"/>
      </g>
     </g>
     <g id="text_16">
      <!-- 1.0 -->
      <g transform="translate(34.696875 46.95132)scale(0.1 -0.1)">
       <use xlink:href="#DejaVuSans-31"/>
       <use x="63.623047" xlink:href="#DejaVuSans-2e"/>
       <use x="95.410156" xlink:href="#DejaVuSans-30"/>
      </g>
     </g>
    </g>
    <g id="text_17">
     <!-- Resistance (Ohm) -->
     <defs>
      <path d="M 44.390625 34.1875 
Q 47.5625 33.109375 50.5625 29.59375 
Q 53.5625 26.078125 56.59375 19.921875 
L 66.609375 0 
L 56 0 
L 46.6875 18.703125 
Q 43.0625 26.03125 39.671875 28.421875 
Q 36.28125 30.8125 30.421875 30.8125 
L 19.671875 30.8125 
L 19.671875 0 
L 9.8125 0 
L 9.8125 72.90625 
L 32.078125 72.90625 
Q 44.578125 72.90625 50.734375 67.671875 
Q 56.890625 62.453125 56.890625 51.90625 
Q 56.890625 45.015625 53.6875 40.46875 
Q 50.484375 35.9375 44.390625 34.1875 
z
M 19.671875 64.796875 
L 19.671875 38.921875 
L 32.078125 38.921875 
Q 39.203125 38.921875 42.84375 42.21875 
Q 46.484375 45.515625 46.484375 51.90625 
Q 46.484375 58.296875 42.84375 61.546875 
Q 39.203125 64.796875 32.078125 64.796875 
z
" id="DejaVuSans-52"/>
      <path d="M 56.203125 29.59375 
L 56.203125 25.203125 
L 14.890625 25.203125 
Q 15.484375 15.921875 20.484375 11.0625 
Q 25.484375 6.203125 34.421875 6.203125 
Q 39.59375 6.203125 44.453125 7.46875 
Q 49.3125 8.734375 54.109375 11.28125 
L 54.109375 2.78125 
Q 49.265625 0.734375 44.1875 -0.34375 
Q 39.109375 -1.421875 33.890625 -1.421875 
Q 20.796875 -1.421875 13.15625 6.1875 
Q 5.515625 13.8125 5.515625 26.8125 
Q 5.515625 40.234375 12.765625 48.109375 
Q 20.015625 56 32.328125 56 
Q 43.359375 56 49.78125 48.890625 
Q 56.203125 41.796875 56.203125 29.59375 
z
M 47.21875 32.234375 
Q 47.125 39.59375 43.09375 43.984375 
Q 39.0625 48.390625 32.421875 48.390625 
Q 24.90625 48.390625 20.390625 44.140625 
Q 15.875 39.890625 15.1875 32.171875 
z
" id="DejaVuSans-65"/>
      <path d="M 9.421875 54.6875 
L 18.40625 54.6875 
L 18.40625 0 
L 9.421875 0 
z
M 9.421875 75.984375 
L 18.40625 75.984375 
L 18.40625 64.59375 
L 9.421875 64.59375 
z
" id="DejaVuSans-69"/>
      <path d="M 34.28125 27.484375 
Q 23.390625 27.484375 19.1875 25 
Q 14.984375 22.515625 14.984375 16.5 
Q 14.984375 11.71875 18.140625 8.90625 
Q 21.296875 6.109375 26.703125 6.109375 
Q 34.1875 6.109375 38.703125 11.40625 
Q 43.21875 16.703125 43.21875 25.484375 
L 43.21875 27.484375 
z
M 52.203125 31.203125 
L 52.203125 0 
L 43.21875 0 
L 43.21875 8.296875 
Q 40.140625 3.328125 35.546875 0.953125 
Q 30.953125 -1.421875 24.3125 -1.421875 
Q 15.921875 -1.421875 10.953125 3.296875 
Q 6 8.015625 6 15.921875 
Q 6 25.140625 12.171875 29.828125 
Q 18.359375 34.515625 30.609375 34.515625 
L 43.21875 34.515625 
L 43.21875 35.40625 
Q 43.21875 41.609375 39.140625 45 
Q 35.0625 48.390625 27.6875 48.390625 
Q 23 48.390625 18.546875 47.265625 
Q 14.109375 46.140625 10.015625 43.890625 
L 10.015625 52.203125 
Q 14.9375 54.109375 19.578125 55.046875 
Q 24.21875 56 28.609375 56 
Q 40.484375 56 46.34375 49.84375 
Q 52.203125 43.703125 52.203125 31.203125 
z
" id="DejaVuSans-61"/>
      <path d="M 54.890625 33.015625 
L 54.890625 0 
L 45.90625 0 
L 45.90625 32.71875 
Q 45.90625 40.484375 42.875 44.328125 
Q 39.84375 48.1875 33.796875 48.1875 
Q 26.515625 48.1875 22.3125 43.546875 
Q 18.109375 38.921875 18.109375 30.90625 
L 18.109375 0 
L 9.078125 0 
L 9.078125 54.6875 
L 18.109375 54.6875 
L 18.109375 46.1875 
Q 21.34375 51.125 25.703125 53.5625 
Q 30.078125 56 35.796875 56 
Q 45.21875 56 50.046875 50.171875 
Q 54.890625 44.34375 54.890625 33.015625 
z
" id="DejaVuSans-6e"/>
      <path d="M 48.78125 52.59375 
L 48.78125 44.1875 
Q 44.96875 46.296875 41.140625 47.34375 
Q 37.3125 48.390625 33.40625 48.390625 
Q 24.65625 48.390625 19.8125 42.84375 
Q 14.984375 37.3125 14.984375 27.296875 
Q 14.984375 17.28125 19.8125 11.734375 
Q 24.65625 6.203125 33.40625 6.203125 
Q 37.3125 6.203125 41.140625 7.25 
Q 44.96875 8.296875 48.78125 10.40625 
L 48.78125 2.09375 
Q 45.015625 0.34375 40.984375 -0.53125 
Q 36.96875 -1.421875 32.421875 -1.421875 
Q 20.0625 -1.421875 12.78125 6.34375 
Q 5.515625 14.109375 5.515625 27.296875 
Q 5.515625 40.671875 12.859375 48.328125 
Q 20.21875 56 33.015625 56 
Q 37.15625 56 41.109375 55.140625 
Q 45.0625 54.296875 48.78125 52.59375 
z
" id="DejaVuSans-63"/>
      <path id="DejaVuSans-20"/>
      <path d="M 39.40625 66.21875 
Q 28.65625 66.21875 22.328125 58.203125 
Q 16.015625 50.203125 16.015625 36.375 
Q 16.015625 22.609375 22.328125 14.59375 
Q 28.65625 6.59375 39.40625 6.59375 
Q 50.140625 6.59375 56.421875 14.59375 
Q 62.703125 22.609375 62.703125 36.375 
Q 62.703125 50.203125 56.421875 58.203125 
Q 50.140625 66.21875 39.40625 66.21875 
z
M 39.40625 74.21875 
Q 54.734375 74.21875 63.90625 63.9375 
Q 73.09375 53.65625 73.09375 36.375 
Q 73.09375 19.140625 63.90625 8.859375 
Q 54.734375 -1.421875 39.40625 -1.421875 
Q 24.03125 -1.421875 14.8125 8.828125 
Q 5.609375 19.09375 5.609375 36.375 
Q 5.609375 53.65625 14.8125 63.9375 
Q 24.03125 74.21875 39.40625 74.21875 
z
" id="DejaVuSans-4f"/>
      <path d="M 54.890625 33.015625 
L 54.890625 0 
L 45.90625 0 
L 45.90625 32.71875 
Q 45.90625 40.484375 42.875 44.328125 
Q 39.84375 48.1875 33.796875 48.1875 
Q 26.515625 48.1875 22.3125 43.546875 
Q 18.109375 38.921875 18.109375 30.90625 
L 18.109375 0 
L 9.078125 0 
L 9.078125 75.984375 
L 18.109375 75.984375 
L 18.109375 46.1875 
Q 21.34375 51.125 25.703125 53.5625 
Q 30.078125 56 35.796875 56 
Q 45.21875 56 50.046875 50.171875 
Q 54.890625 44.34375 54.890625 33.015625 
z
" id="DejaVuSans-68"/>
      <path d="M 52 44.1875 
Q 55.375 50.25 60.0625 53.125 
Q 64.75 56 71.09375 56 
Q 79.640625 56 84.28125 50.015625 
Q 88.921875 44.046875 88.921875 33.015625 
L 88.921875 0 
L 79.890625 0 
L 79.890625 32.71875 
Q 79.890625 40.578125 77.09375 44.375 
Q 74.3125 48.1875 68.609375 48.1875 
Q 61.625 48.1875 57.5625 43.546875 
Q 53.515625 38.921875 53.515625 30.90625 
L 53.515625 0 
L 44.484375 0 
L 44.484375 32.71875 
Q 44.484375 40.625 41.703125 44.40625 
Q 38.921875 48.1875 33.109375 48.1875 
Q 26.21875 48.1875 22.15625 43.53125 
Q 18.109375 38.875 18.109375 30.90625 
L 18.109375 0 
L 9.078125 0 
L 9.078125 54.6875 
L 18.109375 54.6875 
L 18.109375 46.1875 
Q 21.1875 51.21875 25.484375 53.609375 
Q 29.78125 56 35.6875 56 
Q 41.65625 56 45.828125 52.96875 
Q 50 49.953125 52 44.1875 
z
" id="DejaVuSans-6d"/>
     </defs>
     <g transform="translate(20.2375 219.158469)rotate(-90)scale(0.1 -0.1)">
      <use xlink:href="#DejaVuSans-52"/>
      <use x="69.419922" xlink:href="#DejaVuSans-65"/>
      <use x="130.943359" xlink:href="#DejaVuSans-73"/>
      <use x="183.042969" xlink:href="#DejaVuSans-69"/>
      <use x="210.826172" xlink:href="#DejaVuSans-73"/>
      <use x="262.925781" xlink:href="#DejaVuSans-74"/>
      <use x="302.134766" xlink:href="#DejaVuSans-61"/>
      <use x="363.414062" xlink:href="#DejaVuSans-6e"/>
      <use x="426.792969" xlink:href="#DejaVuSans-63"/>
      <use x="481.773438" xlink:href="#DejaVuSans-65"/>
      <use x="543.296875" xlink:href="#DejaVuSans-20"/>
      <use x="575.083984" xlink:href="#DejaVuSans-28"/>
      <use x="614.097656" xlink:href="#DejaVuSans-4f"/>
      <use x="692.808594" xlink:href="#DejaVuSans-68"/>
      <use x="756.1875" xlink:href="#DejaVuSans-6d"/>
      <use x="853.599609" xlink:href="#DejaVuSans-29"/>
     </g>
    </g>
    <g id="text_18">
     <!-- 1e10 -->
     <g transform="translate(57.6 38.472)scale(0.1 -0.1)">
      <use xlink:href="#DejaVuSans-31"/>
      <use x="63.623047" xlink:href="#DejaVuSans-65"/>
      <use x="125.146484" xlink:href="#DejaVuSans-31"/>
      <use x="188.769531" xlink:href="#DejaVuSans-30"/>
     </g>
    </g>
   </g>
   <g id="line2d_16">
    <path clip-path="url(#pd52c649b8e)" d="M 73.832727 90.126616 
L 74.37526 90.142058 
L 74.91725 88.498235 
L 76.001232 88.436252 
L 76.543222 88.346987 
L 77.085213 86.808064 
L 78.169194 87.097244 
L 78.711185 86.440026 
L 79.253175 87.428494 
L 79.795166 87.360989 
L 80.337157 87.087428 
L 80.879147 85.551479 
L 81.421138 86.512406 
L 81.963128 86.898477 
L 82.505119 87.844957 
L 83.04711 88.560084 
L 83.5891 87.835538 
L 84.131091 87.807523 
L 85.215072 88.682645 
L 85.757063 88.630281 
L 86.299053 88.275225 
L 86.841044 89.110707 
L 87.383035 89.49174 
L 87.925025 89.35234 
L 88.467016 89.043232 
L 89.009006 89.789604 
L 89.550997 89.4754 
L 90.092988 90.080169 
L 90.634978 89.91616 
L 91.176969 89.077053 
L 91.718959 89.829315 
L 92.26095 89.621449 
L 92.802941 89.725826 
L 93.886922 89.152705 
L 94.428913 88.603954 
L 94.970903 88.699984 
L 95.512894 88.409512 
L 96.596875 88.524761 
L 97.680856 87.322179 
L 98.222847 87.835641 
L 98.764837 88.112134 
L 99.306828 87.70442 
L 99.848819 87.965404 
L 100.9328 87.965378 
L 101.474791 87.360989 
L 102.016781 88.02061 
L 102.558772 87.57195 
L 103.100762 88.002226 
L 103.642753 87.798231 
L 104.184744 86.76767 
L 104.726734 87.322257 
L 105.268725 88.700058 
L 105.810715 87.928448 
L 106.352706 88.302202 
L 106.894697 87.505163 
L 107.436687 88.898593 
L 107.978678 88.656503 
L 108.520668 88.212076 
L 109.60465 88.595331 
L 110.688631 89.043256 
L 111.230622 89.169464 
L 111.772612 88.898544 
L 112.856593 89.244737 
L 113.398584 88.803979 
L 113.940575 89.252886 
L 114.482565 89.000878 
L 115.024556 88.941301 
L 116.108537 89.060191 
L 116.650528 89.360513 
L 117.192518 89.169464 
L 118.2765 89.837261 
L 118.81849 89.236267 
L 119.360481 89.677766 
L 119.902471 89.000854 
L 120.444462 89.360561 
L 120.986453 88.915704 
L 121.528443 89.119167 
L 122.070434 88.230133 
L 122.612424 87.84488 
L 123.154415 88.94983 
L 123.696406 87.409216 
L 124.238396 86.797923 
L 124.780387 89.947582 
L 125.864368 86.57406 
L 126.406359 87.609919 
L 126.948349 87.723237 
L 127.49034 86.79795 
L 128.032331 86.706822 
L 128.574321 86.019006 
L 129.116312 86.029691 
L 130.200293 86.666121 
L 130.742284 87.293133 
L 131.284274 86.336016 
L 132.368255 86.398507 
L 132.910246 86.666094 
L 133.994227 86.188953 
L 134.536218 85.716333 
L 135.078209 85.954662 
L 135.620199 85.890098 
L 136.16219 86.24172 
L 136.70418 84.871853 
L 137.246171 85.62864 
L 137.788162 87.185759 
L 138.872143 85.617667 
L 139.414133 84.267564 
L 139.956124 92.170593 
L 140.498115 85.529319 
L 141.040105 85.727256 
L 141.582096 85.351069 
L 142.666077 85.997555 
L 143.208068 86.262711 
L 143.750058 87.07763 
L 144.292049 87.185732 
L 144.83404 86.594513 
L 145.37603 87.087401 
L 145.918021 86.502093 
L 146.460011 86.655899 
L 148.085983 86.325541 
L 148.627974 86.818116 
L 149.169965 84.883509 
L 149.711955 86.346401 
L 150.253946 86.367284 
L 150.795936 87.09727 
L 151.337927 87.028006 
L 151.879918 85.339791 
L 152.421908 85.694517 
L 152.963899 84.303847 
L 153.505889 81.235394 
L 154.04788 85.8685 
L 154.589871 85.384652 
L 155.131861 84.566947 
L 155.673852 86.18898 
L 156.215842 85.485004 
L 156.757833 85.694489 
L 157.299824 86.273153 
L 157.841814 85.462765 
L 158.383805 86.512379 
L 158.925796 85.814357 
L 159.467786 87.657307 
L 160.009777 86.696632 
L 160.551767 86.38808 
L 161.093758 86.7271 
L 161.635749 86.64567 
L 162.177739 87.156329 
L 162.71973 87.254173 
L 163.803711 89.393556 
L 164.345702 85.339875 
L 164.887692 87.146556 
L 165.429683 87.166093 
L 165.971674 86.14663 
L 166.513664 84.060499 
L 167.055655 84.555061 
L 167.597645 74.941506 
L 168.139636 85.451605 
L 168.681627 81.771929 
L 169.223617 83.057819 
L 169.765608 83.227542 
L 170.307598 82.469187 
L 170.849589 83.266396 
L 171.39158 82.414539 
L 172.475561 84.685044 
L 173.017552 89.127548 
L 173.559542 83.356707 
L 174.643523 83.30518 
L 175.185514 83.837869 
L 175.727505 82.685899 
L 176.269495 82.482819 
L 176.811486 83.433683 
L 177.353476 83.700155 
L 177.895467 83.201534 
L 178.979448 82.806423 
L 179.521439 82.359728 
L 180.063429 82.23556 
L 180.60542 82.618513 
L 181.147411 82.373426 
L 181.689401 83.018395 
L 183.315373 81.871398 
L 183.857364 81.828863 
L 184.399354 80.862488 
L 184.941345 82.124471 
L 185.483336 80.695611 
L 186.025326 82.054536 
L 186.567317 81.323632 
L 187.109307 81.323632 
L 187.651298 81.800421 
L 188.193289 80.619206 
L 188.735279 80.573224 
L 189.27727 81.425934 
L 189.819261 85.976152 
L 190.361251 86.199534 
L 190.903242 85.429369 
L 191.445232 87.205289 
L 191.987223 85.97618 
L 192.529214 86.07235 
L 193.071204 85.58464 
L 194.155185 86.767643 
L 195.239167 86.05101 
L 195.781157 85.954662 
L 196.323148 84.825365 
L 196.865139 85.606685 
L 197.94912 84.459764 
L 198.49111 84.133683 
L 199.575092 82.414477 
L 200.117082 82.55083 
L 200.659073 81.542092 
L 201.743054 80.907664 
L 202.285045 81.98435 
L 202.827035 80.922738 
L 203.369026 81.027607 
L 203.911016 81.455085 
L 204.453007 81.382189 
L 204.994998 81.4405 
L 205.536988 80.997672 
L 206.62097 83.110226 
L 207.16296 83.750251 
L 207.704951 82.806362 
L 208.246941 53.568 
L 209.330923 96.011002 
L 209.872913 82.318439 
L 210.414904 79.263493 
L 210.956894 79.012499 
L 211.498885 79.478117 
L 212.040876 85.965452 
L 212.582866 84.649676 
L 213.124857 87.476446 
L 213.666848 89.16116 
L 214.208838 82.618482 
L 214.750829 83.369599 
L 215.292819 83.548515 
L 215.83481 68.551755 
L 216.376801 84.720239 
L 216.918791 83.395229 
L 217.460782 73.566267 
L 218.002772 83.356737 
L 218.544763 84.459909 
L 219.086754 83.057849 
L 219.628744 83.737892 
L 220.170735 83.279335 
L 220.712725 83.862736 
L 221.254716 83.762897 
L 221.796707 75.64505 
L 222.338697 82.194034 
L 222.880688 83.998951 
L 223.422679 78.236999 
L 223.964669 81.657442 
L 224.50666 82.952491 
L 225.04865 82.207878 
L 225.590641 84.023578 
L 226.132632 83.420906 
L 226.674622 81.599856 
L 227.216613 89.931882 
L 227.758603 74.14558 
L 228.300594 295.488 
L 228.842585 81.885561 
L 229.384575 59.576774 
L 229.927108 86.199534 
L 230.469099 71.770463 
L 231.011089 84.471816 
L 231.553622 83.523086 
L 232.095612 85.193118 
L 232.637603 84.708507 
L 233.179594 84.471787 
L 233.721584 86.928487 
L 234.263575 83.005231 
L 234.805565 84.400084 
L 235.889547 83.510355 
L 236.431537 83.674984 
L 236.973528 83.599273 
L 237.515519 82.235592 
L 238.057509 84.25546 
L 238.5995 84.519489 
L 239.14149 84.327937 
L 239.683481 83.433743 
L 240.225472 81.814649 
L 241.309453 84.531375 
L 241.851443 82.658918 
L 242.393434 84.92978 
L 242.935425 83.611869 
L 243.477415 82.604969 
L 244.019406 83.292293 
L 244.561397 84.767069 
L 245.103387 83.900002 
L 245.645378 84.952846 
L 246.187368 83.318086 
L 246.729359 83.700155 
L 247.81334 84.206912 
L 248.355331 83.586547 
L 248.897321 83.510296 
L 249.439312 84.158289 
L 249.981303 83.484831 
L 250.523293 83.850323 
L 251.065284 83.78795 
L 252.149265 84.146065 
L 252.691256 82.965701 
L 253.233246 84.146094 
L 253.775237 83.6498 
L 254.859218 81.4405 
L 255.401209 82.618451 
L 255.943199 83.369569 
L 256.48519 82.207878 
L 257.027181 82.645472 
L 257.569171 81.786181 
L 258.111162 81.250134 
L 258.653152 82.096528 
L 259.195143 81.771929 
L 259.737134 80.634483 
L 260.279124 80.649778 
L 260.821115 80.105814 
L 261.363106 81.161491 
L 261.905096 82.591414 
L 262.447087 81.800421 
L 262.989077 81.235394 
L 263.531068 80.278743 
L 264.073059 81.027575 
L 264.615049 82.235623 
L 265.15704 80.465354 
L 265.69903 80.922673 
L 266.241021 81.843096 
L 266.783012 81.294305 
L 267.325002 82.304661 
L 267.866993 81.527619 
L 268.408984 82.152302 
L 268.950974 81.998444 
L 269.492965 82.726158 
L 270.034955 81.599824 
L 270.576946 82.373457 
L 271.118937 82.359697 
L 272.202918 81.642946 
L 272.744908 81.800485 
L 273.286899 82.726066 
L 273.82889 82.605031 
L 274.37088 82.739534 
L 274.912871 82.180115 
L 275.454861 83.573841 
L 275.996852 83.446479 
L 276.538843 82.672291 
L 277.080833 83.175541 
L 277.622824 83.097202 
L 278.164815 84.01124 
L 278.706805 84.243345 
L 279.248796 84.731932 
L 279.790786 84.09721 
L 280.332777 83.7504 
L 280.874768 84.279659 
L 281.416758 83.408088 
L 281.958749 85.204429 
L 282.500739 83.240454 
L 283.043272 84.802064 
L 283.585263 83.949575 
L 284.127253 83.700155 
L 284.669244 85.462737 
L 285.211234 84.43598 
L 285.753225 83.974254 
L 286.295216 82.793044 
L 286.837206 82.27707 
L 287.379197 82.978899 
L 288.463178 82.631921 
L 289.005169 82.833146 
L 289.547159 82.152365 
L 290.08915 81.828895 
L 290.631141 82.833054 
L 291.173131 81.425998 
L 291.715122 82.277101 
L 292.257112 81.913913 
L 292.799103 81.323632 
L 293.341094 82.373457 
L 293.883084 83.136391 
L 294.967066 82.332173 
L 295.509056 82.249368 
L 296.051047 82.819729 
L 296.593037 82.249461 
L 297.135028 82.550799 
L 297.677019 82.235498 
L 299.30299 82.387173 
L 299.844981 82.304724 
L 300.386972 82.779807 
L 300.928962 82.152302 
L 302.012944 81.498664 
L 303.096925 82.068598 
L 303.638915 81.527746 
L 304.180906 81.571064 
L 304.722897 81.498568 
L 305.264887 81.294241 
L 306.348868 81.455149 
L 306.890859 82.096497 
L 307.43285 82.068535 
L 307.97484 81.220576 
L 308.516831 82.040555 
L 309.058821 82.026562 
L 309.600812 81.220673 
L 310.142803 81.956283 
L 310.684793 82.12444 
L 311.226784 81.25007 
L 311.768775 80.619206 
L 312.310765 80.907664 
L 312.852756 80.480774 
L 313.394746 80.771661 
L 313.936737 81.98435 
L 314.478728 81.131835 
L 315.020718 80.665092 
L 315.562709 81.928007 
L 316.104699 82.400847 
L 316.64669 82.249399 
L 317.730671 82.235592 
L 318.272662 82.978899 
L 319.356643 81.308959 
L 319.898634 82.345956 
L 320.440624 82.577846 
L 320.982615 83.446539 
L 321.524606 82.658949 
L 322.066596 81.250102 
L 322.608587 83.510296 
L 323.150577 82.09656 
L 323.692568 82.752991 
L 324.234559 81.279541 
L 324.776549 81.956157 
L 325.31854 81.700408 
L 325.860531 81.743353 
L 326.402521 82.124346 
L 326.944512 81.899775 
L 327.486502 82.712617 
L 328.028493 83.253536 
L 328.570484 83.253416 
L 329.112474 83.369569 
L 330.196455 84.23125 
L 330.738446 85.58464 
L 331.822427 86.440026 
L 332.364418 85.584612 
L 333.448399 85.900884 
L 333.99039 84.673226 
L 334.53238 86.563795 
L 335.074371 85.079224 
L 335.616362 84.848656 
L 336.158352 83.998893 
L 336.700343 83.887679 
L 337.784324 84.060499 
L 339.410296 81.396827 
L 339.952286 81.042635 
L 340.494277 80.074318 
L 341.036268 79.478049 
L 341.578258 79.196929 
L 342.120249 77.591008 
L 342.66224 79.883173 
L 343.20423 80.09004 
L 343.746221 78.585937 
L 344.288211 80.817121 
L 344.830202 81.308959 
L 345.372193 81.308959 
L 345.914183 79.296678 
L 346.456174 82.124471 
L 346.998164 80.542443 
L 347.540155 81.899744 
L 348.082146 80.603882 
L 348.624136 80.862488 
L 350.250108 79.657537 
L 350.792099 86.040368 
L 351.334089 79.063019 
L 351.87608 78.272277 
L 352.960061 78.272277 
L 353.502052 84.327937 
L 354.044042 84.97593 
L 354.586033 85.373457 
L 355.128024 84.060411 
L 355.670014 84.637915 
L 356.212005 83.986623 
L 356.753995 83.637147 
L 357.295986 84.495686 
L 357.837977 84.084964 
L 358.379967 84.20697 
L 358.921958 82.8597 
L 359.463949 83.420876 
L 360.005939 83.737892 
L 360.54793 83.136391 
L 361.631911 82.926006 
L 362.173902 82.318501 
L 363.257883 82.152333 
L 363.799873 81.382157 
L 364.341864 80.310052 
L 365.425845 79.280025 
L 365.967836 79.592467 
L 366.509827 78.307309 
L 367.051817 78.464634 
L 367.593808 77.015397 
L 368.135798 76.205383 
L 368.677789 77.29621 
L 369.21978 78.689308 
L 369.76177 78.911148 
L 370.303761 78.757894 
L 370.845751 79.046207 
L 371.387742 78.113284 
L 371.929733 76.920857 
L 372.471723 76.22505 
L 373.013714 77.590973 
L 373.555705 78.499353 
L 374.097695 80.184726 
L 374.639686 79.963074 
L 375.723667 80.026728 
L 376.265658 81.057423 
L 376.807648 81.14667 
L 377.349639 82.523643 
L 377.891629 82.992116 
L 378.43362 82.591383 
L 378.975611 85.473889 
L 379.517601 84.109388 
L 380.059592 83.240454 
L 380.601582 83.459354 
L 381.143573 83.044689 
L 381.685564 82.249461 
L 382.227554 81.191093 
L 382.769545 81.571096 
L 383.311536 80.465222 
L 383.853526 78.860249 
L 384.395517 78.603272 
L 386.021489 78.620555 
L 386.563479 77.203088 
L 387.10547 77.754728 
L 387.64746 79.163549 
L 388.189451 79.543559 
L 388.731442 78.706437 
L 389.273432 79.867188 
L 389.815423 79.543424 
L 390.357414 79.867188 
L 390.899404 79.85112 
L 391.441395 82.24943 
L 391.983385 80.542443 
L 392.525376 80.511638 
L 393.067367 80.603751 
L 394.151348 81.116954 
L 394.693338 81.871461 
L 395.235329 81.294305 
L 395.77732 82.482757 
L 396.31931 83.318116 
L 396.861301 82.263225 
L 397.403292 84.778724 
L 397.945282 84.133859 
L 398.487273 86.666094 
L 398.487273 86.666094 
" style="fill:none;stroke:#1f77b4;stroke-linecap:square;stroke-width:1.5;"/>
   </g>
   <g id="patch_3">
    <path d="M 57.6 307.584 
L 57.6 41.472 
" style="fill:none;stroke:#000000;stroke-linecap:square;stroke-linejoin:miter;stroke-width:0.8;"/>
   </g>
   <g id="patch_4">
    <path d="M 414.72 307.584 
L 414.72 41.472 
" style="fill:none;stroke:#000000;stroke-linecap:square;stroke-linejoin:miter;stroke-width:0.8;"/>
   </g>
   <g id="patch_5">
    <path d="M 57.6 307.584 
L 414.72 307.584 
" style="fill:none;stroke:#000000;stroke-linecap:square;stroke-linejoin:miter;stroke-width:0.8;"/>
   </g>
   <g id="patch_6">
    <path d="M 57.6 41.472 
L 414.72 41.472 
" style="fill:none;stroke:#000000;stroke-linecap:square;stroke-linejoin:miter;stroke-width:0.8;"/>
   </g>
   <g id="text_19">
    <!-- Resistance with source voltage 1000.0 mV -->
    <defs>
     <path d="M 4.203125 54.6875 
L 13.1875 54.6875 
L 24.421875 12.015625 
L 35.59375 54.6875 
L 46.1875 54.6875 
L 57.421875 12.015625 
L 68.609375 54.6875 
L 77.59375 54.6875 
L 63.28125 0 
L 52.6875 0 
L 40.921875 44.828125 
L 29.109375 0 
L 18.5 0 
z
" id="DejaVuSans-77"/>
     <path d="M 30.609375 48.390625 
Q 23.390625 48.390625 19.1875 42.75 
Q 14.984375 37.109375 14.984375 27.296875 
Q 14.984375 17.484375 19.15625 11.84375 
Q 23.34375 6.203125 30.609375 6.203125 
Q 37.796875 6.203125 41.984375 11.859375 
Q 46.1875 17.53125 46.1875 27.296875 
Q 46.1875 37.015625 41.984375 42.703125 
Q 37.796875 48.390625 30.609375 48.390625 
z
M 30.609375 56 
Q 42.328125 56 49.015625 48.375 
Q 55.71875 40.765625 55.71875 27.296875 
Q 55.71875 13.875 49.015625 6.21875 
Q 42.328125 -1.421875 30.609375 -1.421875 
Q 18.84375 -1.421875 12.171875 6.21875 
Q 5.515625 13.875 5.515625 27.296875 
Q 5.515625 40.765625 12.171875 48.375 
Q 18.84375 56 30.609375 56 
z
" id="DejaVuSans-6f"/>
     <path d="M 8.5 21.578125 
L 8.5 54.6875 
L 17.484375 54.6875 
L 17.484375 21.921875 
Q 17.484375 14.15625 20.5 10.265625 
Q 23.53125 6.390625 29.59375 6.390625 
Q 36.859375 6.390625 41.078125 11.03125 
Q 45.3125 15.671875 45.3125 23.6875 
L 45.3125 54.6875 
L 54.296875 54.6875 
L 54.296875 0 
L 45.3125 0 
L 45.3125 8.40625 
Q 42.046875 3.421875 37.71875 1 
Q 33.40625 -1.421875 27.6875 -1.421875 
Q 18.265625 -1.421875 13.375 4.4375 
Q 8.5 10.296875 8.5 21.578125 
z
M 31.109375 56 
z
" id="DejaVuSans-75"/>
     <path d="M 41.109375 46.296875 
Q 39.59375 47.171875 37.8125 47.578125 
Q 36.03125 48 33.890625 48 
Q 26.265625 48 22.1875 43.046875 
Q 18.109375 38.09375 18.109375 28.8125 
L 18.109375 0 
L 9.078125 0 
L 9.078125 54.6875 
L 18.109375 54.6875 
L 18.109375 46.1875 
Q 20.953125 51.171875 25.484375 53.578125 
Q 30.03125 56 36.53125 56 
Q 37.453125 56 38.578125 55.875 
Q 39.703125 55.765625 41.0625 55.515625 
z
" id="DejaVuSans-72"/>
     <path d="M 2.984375 54.6875 
L 12.5 54.6875 
L 29.59375 8.796875 
L 46.6875 54.6875 
L 56.203125 54.6875 
L 35.6875 0 
L 23.484375 0 
z
" id="DejaVuSans-76"/>
     <path d="M 9.421875 75.984375 
L 18.40625 75.984375 
L 18.40625 0 
L 9.421875 0 
z
" id="DejaVuSans-6c"/>
     <path d="M 45.40625 27.984375 
Q 45.40625 37.75 41.375 43.109375 
Q 37.359375 48.484375 30.078125 48.484375 
Q 22.859375 48.484375 18.828125 43.109375 
Q 14.796875 37.75 14.796875 27.984375 
Q 14.796875 18.265625 18.828125 12.890625 
Q 22.859375 7.515625 30.078125 7.515625 
Q 37.359375 7.515625 41.375 12.890625 
Q 45.40625 18.265625 45.40625 27.984375 
z
M 54.390625 6.78125 
Q 54.390625 -7.171875 48.1875 -13.984375 
Q 42 -20.796875 29.203125 -20.796875 
Q 24.46875 -20.796875 20.265625 -20.09375 
Q 16.0625 -19.390625 12.109375 -17.921875 
L 12.109375 -9.1875 
Q 16.0625 -11.328125 19.921875 -12.34375 
Q 23.78125 -13.375 27.78125 -13.375 
Q 36.625 -13.375 41.015625 -8.765625 
Q 45.40625 -4.15625 45.40625 5.171875 
L 45.40625 9.625 
Q 42.625 4.78125 38.28125 2.390625 
Q 33.9375 0 27.875 0 
Q 17.828125 0 11.671875 7.65625 
Q 5.515625 15.328125 5.515625 27.984375 
Q 5.515625 40.671875 11.671875 48.328125 
Q 17.828125 56 27.875 56 
Q 33.9375 56 38.28125 53.609375 
Q 42.625 51.21875 45.40625 46.390625 
L 45.40625 54.6875 
L 54.390625 54.6875 
z
" id="DejaVuSans-67"/>
     <path d="M 28.609375 0 
L 0.78125 72.90625 
L 11.078125 72.90625 
L 34.1875 11.53125 
L 57.328125 72.90625 
L 67.578125 72.90625 
L 39.796875 0 
z
" id="DejaVuSans-56"/>
    </defs>
    <g transform="translate(107.881875 35.472)scale(0.12 -0.12)">
     <use xlink:href="#DejaVuSans-52"/>
     <use x="69.419922" xlink:href="#DejaVuSans-65"/>
     <use x="130.943359" xlink:href="#DejaVuSans-73"/>
     <use x="183.042969" xlink:href="#DejaVuSans-69"/>
     <use x="210.826172" xlink:href="#DejaVuSans-73"/>
     <use x="262.925781" xlink:href="#DejaVuSans-74"/>
     <use x="302.134766" xlink:href="#DejaVuSans-61"/>
     <use x="363.414062" xlink:href="#DejaVuSans-6e"/>
     <use x="426.792969" xlink:href="#DejaVuSans-63"/>
     <use x="481.773438" xlink:href="#DejaVuSans-65"/>
     <use x="543.296875" xlink:href="#DejaVuSans-20"/>
     <use x="575.083984" xlink:href="#DejaVuSans-77"/>
     <use x="656.871094" xlink:href="#DejaVuSans-69"/>
     <use x="684.654297" xlink:href="#DejaVuSans-74"/>
     <use x="723.863281" xlink:href="#DejaVuSans-68"/>
     <use x="787.242188" xlink:href="#DejaVuSans-20"/>
     <use x="819.029297" xlink:href="#DejaVuSans-73"/>
     <use x="871.128906" xlink:href="#DejaVuSans-6f"/>
     <use x="932.310547" xlink:href="#DejaVuSans-75"/>
     <use x="995.689453" xlink:href="#DejaVuSans-72"/>
     <use x="1036.771484" xlink:href="#DejaVuSans-63"/>
     <use x="1091.751953" xlink:href="#DejaVuSans-65"/>
     <use x="1153.275391" xlink:href="#DejaVuSans-20"/>
     <use x="1185.0625" xlink:href="#DejaVuSans-76"/>
     <use x="1244.242188" xlink:href="#DejaVuSans-6f"/>
     <use x="1305.423828" xlink:href="#DejaVuSans-6c"/>
     <use x="1333.207031" xlink:href="#DejaVuSans-74"/>
     <use x="1372.416016" xlink:href="#DejaVuSans-61"/>
     <use x="1433.695312" xlink:href="#DejaVuSans-67"/>
     <use x="1497.171875" xlink:href="#DejaVuSans-65"/>
     <use x="1558.695312" xlink:href="#DejaVuSans-20"/>
     <use x="1590.482422" xlink:href="#DejaVuSans-31"/>
     <use x="1654.105469" xlink:href="#DejaVuSans-30"/>
     <use x="1717.728516" xlink:href="#DejaVuSans-30"/>
     <use x="1781.351562" xlink:href="#DejaVuSans-30"/>
     <use x="1844.974609" xlink:href="#DejaVuSans-2e"/>
     <use x="1876.761719" xlink:href="#DejaVuSans-30"/>
     <use x="1940.384766" xlink:href="#DejaVuSans-20"/>
     <use x="1972.171875" xlink:href="#DejaVuSans-6d"/>
     <use x="2069.583984" xlink:href="#DejaVuSans-56"/>
    </g>
   </g>
  </g>
 </g>
 <defs>
  <clipPath id="pd52c649b8e">
   <rect height="266.112" width="357.12" x="57.6" y="41.472"/>
  </clipPath>
 </defs>
</svg>
