<?xml version="1.0" encoding="utf-8" standalone="no"?>
<!DOCTYPE svg PUBLIC "-//W3C//DTD SVG 1.1//EN"
  "http://www.w3.org/Graphics/SVG/1.1/DTD/svg11.dtd">
<!-- Created with matplotlib (http://matplotlib.org/) -->
<svg height="345pt" version="1.1" viewBox="0 0 460 345" width="460pt" xmlns="http://www.w3.org/2000/svg" xmlns:xlink="http://www.w3.org/1999/xlink">
 <defs>
  <style type="text/css">
*{stroke-linecap:butt;stroke-linejoin:round;}
  </style>
 </defs>
 <g id="figure_1">
  <g id="patch_1">
   <path d="M 0 345.6 
L 460.8 345.6 
L 460.8 0 
L 0 0 
z
" style="fill:#ffffff;"/>
  </g>
  <g id="axes_1">
   <g id="patch_2">
    <path d="M 57.6 307.584 
L 414.72 307.584 
L 414.72 41.472 
L 57.6 41.472 
z
" style="fill:#ffffff;"/>
   </g>
   <g id="matplotlib.axis_1">
    <g id="xtick_1">
     <g id="line2d_1">
      <path clip-path="url(#p2f61b86a4b)" d="M 73.832727 307.584 
L 73.832727 41.472 
" style="fill:none;stroke:#b0b0b0;stroke-linecap:square;stroke-width:0.8;"/>
     </g>
     <g id="line2d_2">
      <defs>
       <path d="M 0 0 
L 0 3.5 
" id="mae18a2be52" style="stroke:#000000;stroke-width:0.8;"/>
      </defs>
      <g>
       <use style="stroke:#000000;stroke-width:0.8;" x="73.832727" xlink:href="#mae18a2be52" y="307.584"/>
      </g>
     </g>
     <g id="text_1">
      <!-- 0 -->
      <defs>
       <path d="M 31.78125 66.40625 
Q 24.171875 66.40625 20.328125 58.90625 
Q 16.5 51.421875 16.5 36.375 
Q 16.5 21.390625 20.328125 13.890625 
Q 24.171875 6.390625 31.78125 6.390625 
Q 39.453125 6.390625 43.28125 13.890625 
Q 47.125 21.390625 47.125 36.375 
Q 47.125 51.421875 43.28125 58.90625 
Q 39.453125 66.40625 31.78125 66.40625 
z
M 31.78125 74.21875 
Q 44.046875 74.21875 50.515625 64.515625 
Q 56.984375 54.828125 56.984375 36.375 
Q 56.984375 17.96875 50.515625 8.265625 
Q 44.046875 -1.421875 31.78125 -1.421875 
Q 19.53125 -1.421875 13.0625 8.265625 
Q 6.59375 17.96875 6.59375 36.375 
Q 6.59375 54.828125 13.0625 64.515625 
Q 19.53125 74.21875 31.78125 74.21875 
z
" id="DejaVuSans-30"/>
      </defs>
      <g transform="translate(70.651477 322.182437)scale(0.1 -0.1)">
       <use xlink:href="#DejaVuSans-30"/>
      </g>
     </g>
    </g>
    <g id="xtick_2">
     <g id="line2d_3">
      <path clip-path="url(#p2f61b86a4b)" d="M 127.934605 307.584 
L 127.934605 41.472 
" style="fill:none;stroke:#b0b0b0;stroke-linecap:square;stroke-width:0.8;"/>
     </g>
     <g id="line2d_4">
      <g>
       <use style="stroke:#000000;stroke-width:0.8;" x="127.934605" xlink:href="#mae18a2be52" y="307.584"/>
      </g>
     </g>
     <g id="text_2">
      <!-- 10 -->
      <defs>
       <path d="M 12.40625 8.296875 
L 28.515625 8.296875 
L 28.515625 63.921875 
L 10.984375 60.40625 
L 10.984375 69.390625 
L 28.421875 72.90625 
L 38.28125 72.90625 
L 38.28125 8.296875 
L 54.390625 8.296875 
L 54.390625 0 
L 12.40625 0 
z
" id="DejaVuSans-31"/>
      </defs>
      <g transform="translate(121.572105 322.182437)scale(0.1 -0.1)">
       <use xlink:href="#DejaVuSans-31"/>
       <use x="63.623047" xlink:href="#DejaVuSans-30"/>
      </g>
     </g>
    </g>
    <g id="xtick_3">
     <g id="line2d_5">
      <path clip-path="url(#p2f61b86a4b)" d="M 182.036482 307.584 
L 182.036482 41.472 
" style="fill:none;stroke:#b0b0b0;stroke-linecap:square;stroke-width:0.8;"/>
     </g>
     <g id="line2d_6">
      <g>
       <use style="stroke:#000000;stroke-width:0.8;" x="182.036482" xlink:href="#mae18a2be52" y="307.584"/>
      </g>
     </g>
     <g id="text_3">
      <!-- 20 -->
      <defs>
       <path d="M 19.1875 8.296875 
L 53.609375 8.296875 
L 53.609375 0 
L 7.328125 0 
L 7.328125 8.296875 
Q 12.9375 14.109375 22.625 23.890625 
Q 32.328125 33.6875 34.8125 36.53125 
Q 39.546875 41.84375 41.421875 45.53125 
Q 43.3125 49.21875 43.3125 52.78125 
Q 43.3125 58.59375 39.234375 62.25 
Q 35.15625 65.921875 28.609375 65.921875 
Q 23.96875 65.921875 18.8125 64.3125 
Q 13.671875 62.703125 7.8125 59.421875 
L 7.8125 69.390625 
Q 13.765625 71.78125 18.9375 73 
Q 24.125 74.21875 28.421875 74.21875 
Q 39.75 74.21875 46.484375 68.546875 
Q 53.21875 62.890625 53.21875 53.421875 
Q 53.21875 48.921875 51.53125 44.890625 
Q 49.859375 40.875 45.40625 35.40625 
Q 44.1875 33.984375 37.640625 27.21875 
Q 31.109375 20.453125 19.1875 8.296875 
z
" id="DejaVuSans-32"/>
      </defs>
      <g transform="translate(175.673982 322.182437)scale(0.1 -0.1)">
       <use xlink:href="#DejaVuSans-32"/>
       <use x="63.623047" xlink:href="#DejaVuSans-30"/>
      </g>
     </g>
    </g>
    <g id="xtick_4">
     <g id="line2d_7">
      <path clip-path="url(#p2f61b86a4b)" d="M 236.13836 307.584 
L 236.13836 41.472 
" style="fill:none;stroke:#b0b0b0;stroke-linecap:square;stroke-width:0.8;"/>
     </g>
     <g id="line2d_8">
      <g>
       <use style="stroke:#000000;stroke-width:0.8;" x="236.13836" xlink:href="#mae18a2be52" y="307.584"/>
      </g>
     </g>
     <g id="text_4">
      <!-- 30 -->
      <defs>
       <path d="M 40.578125 39.3125 
Q 47.65625 37.796875 51.625 33 
Q 55.609375 28.21875 55.609375 21.1875 
Q 55.609375 10.40625 48.1875 4.484375 
Q 40.765625 -1.421875 27.09375 -1.421875 
Q 22.515625 -1.421875 17.65625 -0.515625 
Q 12.796875 0.390625 7.625 2.203125 
L 7.625 11.71875 
Q 11.71875 9.328125 16.59375 8.109375 
Q 21.484375 6.890625 26.8125 6.890625 
Q 36.078125 6.890625 40.9375 10.546875 
Q 45.796875 14.203125 45.796875 21.1875 
Q 45.796875 27.640625 41.28125 31.265625 
Q 36.765625 34.90625 28.71875 34.90625 
L 20.21875 34.90625 
L 20.21875 43.015625 
L 29.109375 43.015625 
Q 36.375 43.015625 40.234375 45.921875 
Q 44.09375 48.828125 44.09375 54.296875 
Q 44.09375 59.90625 40.109375 62.90625 
Q 36.140625 65.921875 28.71875 65.921875 
Q 24.65625 65.921875 20.015625 65.03125 
Q 15.375 64.15625 9.8125 62.3125 
L 9.8125 71.09375 
Q 15.4375 72.65625 20.34375 73.4375 
Q 25.25 74.21875 29.59375 74.21875 
Q 40.828125 74.21875 47.359375 69.109375 
Q 53.90625 64.015625 53.90625 55.328125 
Q 53.90625 49.265625 50.4375 45.09375 
Q 46.96875 40.921875 40.578125 39.3125 
z
" id="DejaVuSans-33"/>
      </defs>
      <g transform="translate(229.77586 322.182437)scale(0.1 -0.1)">
       <use xlink:href="#DejaVuSans-33"/>
       <use x="63.623047" xlink:href="#DejaVuSans-30"/>
      </g>
     </g>
    </g>
    <g id="xtick_5">
     <g id="line2d_9">
      <path clip-path="url(#p2f61b86a4b)" d="M 290.240237 307.584 
L 290.240237 41.472 
" style="fill:none;stroke:#b0b0b0;stroke-linecap:square;stroke-width:0.8;"/>
     </g>
     <g id="line2d_10">
      <g>
       <use style="stroke:#000000;stroke-width:0.8;" x="290.240237" xlink:href="#mae18a2be52" y="307.584"/>
      </g>
     </g>
     <g id="text_5">
      <!-- 40 -->
      <defs>
       <path d="M 37.796875 64.3125 
L 12.890625 25.390625 
L 37.796875 25.390625 
z
M 35.203125 72.90625 
L 47.609375 72.90625 
L 47.609375 25.390625 
L 58.015625 25.390625 
L 58.015625 17.1875 
L 47.609375 17.1875 
L 47.609375 0 
L 37.796875 0 
L 37.796875 17.1875 
L 4.890625 17.1875 
L 4.890625 26.703125 
z
" id="DejaVuSans-34"/>
      </defs>
      <g transform="translate(283.877737 322.182437)scale(0.1 -0.1)">
       <use xlink:href="#DejaVuSans-34"/>
       <use x="63.623047" xlink:href="#DejaVuSans-30"/>
      </g>
     </g>
    </g>
    <g id="xtick_6">
     <g id="line2d_11">
      <path clip-path="url(#p2f61b86a4b)" d="M 344.342114 307.584 
L 344.342114 41.472 
" style="fill:none;stroke:#b0b0b0;stroke-linecap:square;stroke-width:0.8;"/>
     </g>
     <g id="line2d_12">
      <g>
       <use style="stroke:#000000;stroke-width:0.8;" x="344.342114" xlink:href="#mae18a2be52" y="307.584"/>
      </g>
     </g>
     <g id="text_6">
      <!-- 50 -->
      <defs>
       <path d="M 10.796875 72.90625 
L 49.515625 72.90625 
L 49.515625 64.59375 
L 19.828125 64.59375 
L 19.828125 46.734375 
Q 21.96875 47.46875 24.109375 47.828125 
Q 26.265625 48.1875 28.421875 48.1875 
Q 40.625 48.1875 47.75 41.5 
Q 54.890625 34.8125 54.890625 23.390625 
Q 54.890625 11.625 47.5625 5.09375 
Q 40.234375 -1.421875 26.90625 -1.421875 
Q 22.3125 -1.421875 17.546875 -0.640625 
Q 12.796875 0.140625 7.71875 1.703125 
L 7.71875 11.625 
Q 12.109375 9.234375 16.796875 8.0625 
Q 21.484375 6.890625 26.703125 6.890625 
Q 35.15625 6.890625 40.078125 11.328125 
Q 45.015625 15.765625 45.015625 23.390625 
Q 45.015625 31 40.078125 35.4375 
Q 35.15625 39.890625 26.703125 39.890625 
Q 22.75 39.890625 18.8125 39.015625 
Q 14.890625 38.140625 10.796875 36.28125 
z
" id="DejaVuSans-35"/>
      </defs>
      <g transform="translate(337.979614 322.182437)scale(0.1 -0.1)">
       <use xlink:href="#DejaVuSans-35"/>
       <use x="63.623047" xlink:href="#DejaVuSans-30"/>
      </g>
     </g>
    </g>
    <g id="xtick_7">
     <g id="line2d_13">
      <path clip-path="url(#p2f61b86a4b)" d="M 398.443992 307.584 
L 398.443992 41.472 
" style="fill:none;stroke:#b0b0b0;stroke-linecap:square;stroke-width:0.8;"/>
     </g>
     <g id="line2d_14">
      <g>
       <use style="stroke:#000000;stroke-width:0.8;" x="398.443992" xlink:href="#mae18a2be52" y="307.584"/>
      </g>
     </g>
     <g id="text_7">
      <!-- 60 -->
      <defs>
       <path d="M 33.015625 40.375 
Q 26.375 40.375 22.484375 35.828125 
Q 18.609375 31.296875 18.609375 23.390625 
Q 18.609375 15.53125 22.484375 10.953125 
Q 26.375 6.390625 33.015625 6.390625 
Q 39.65625 6.390625 43.53125 10.953125 
Q 47.40625 15.53125 47.40625 23.390625 
Q 47.40625 31.296875 43.53125 35.828125 
Q 39.65625 40.375 33.015625 40.375 
z
M 52.59375 71.296875 
L 52.59375 62.3125 
Q 48.875 64.0625 45.09375 64.984375 
Q 41.3125 65.921875 37.59375 65.921875 
Q 27.828125 65.921875 22.671875 59.328125 
Q 17.53125 52.734375 16.796875 39.40625 
Q 19.671875 43.65625 24.015625 45.921875 
Q 28.375 48.1875 33.59375 48.1875 
Q 44.578125 48.1875 50.953125 41.515625 
Q 57.328125 34.859375 57.328125 23.390625 
Q 57.328125 12.15625 50.6875 5.359375 
Q 44.046875 -1.421875 33.015625 -1.421875 
Q 20.359375 -1.421875 13.671875 8.265625 
Q 6.984375 17.96875 6.984375 36.375 
Q 6.984375 53.65625 15.1875 63.9375 
Q 23.390625 74.21875 37.203125 74.21875 
Q 40.921875 74.21875 44.703125 73.484375 
Q 48.484375 72.75 52.59375 71.296875 
z
" id="DejaVuSans-36"/>
      </defs>
      <g transform="translate(392.081492 322.182437)scale(0.1 -0.1)">
       <use xlink:href="#DejaVuSans-36"/>
       <use x="63.623047" xlink:href="#DejaVuSans-30"/>
      </g>
     </g>
    </g>
    <g id="text_8">
     <!-- t(s) -->
     <defs>
      <path d="M 18.3125 70.21875 
L 18.3125 54.6875 
L 36.8125 54.6875 
L 36.8125 47.703125 
L 18.3125 47.703125 
L 18.3125 18.015625 
Q 18.3125 11.328125 20.140625 9.421875 
Q 21.96875 7.515625 27.59375 7.515625 
L 36.8125 7.515625 
L 36.8125 0 
L 27.59375 0 
Q 17.1875 0 13.234375 3.875 
Q 9.28125 7.765625 9.28125 18.015625 
L 9.28125 47.703125 
L 2.6875 47.703125 
L 2.6875 54.6875 
L 9.28125 54.6875 
L 9.28125 70.21875 
z
" id="DejaVuSans-74"/>
      <path d="M 31 75.875 
Q 24.46875 64.65625 21.28125 53.65625 
Q 18.109375 42.671875 18.109375 31.390625 
Q 18.109375 20.125 21.3125 9.0625 
Q 24.515625 -2 31 -13.1875 
L 23.1875 -13.1875 
Q 15.875 -1.703125 12.234375 9.375 
Q 8.59375 20.453125 8.59375 31.390625 
Q 8.59375 42.28125 12.203125 53.3125 
Q 15.828125 64.359375 23.1875 75.875 
z
" id="DejaVuSans-28"/>
      <path d="M 44.28125 53.078125 
L 44.28125 44.578125 
Q 40.484375 46.53125 36.375 47.5 
Q 32.28125 48.484375 27.875 48.484375 
Q 21.1875 48.484375 17.84375 46.4375 
Q 14.5 44.390625 14.5 40.28125 
Q 14.5 37.15625 16.890625 35.375 
Q 19.28125 33.59375 26.515625 31.984375 
L 29.59375 31.296875 
Q 39.15625 29.25 43.1875 25.515625 
Q 47.21875 21.78125 47.21875 15.09375 
Q 47.21875 7.46875 41.1875 3.015625 
Q 35.15625 -1.421875 24.609375 -1.421875 
Q 20.21875 -1.421875 15.453125 -0.5625 
Q 10.6875 0.296875 5.421875 2 
L 5.421875 11.28125 
Q 10.40625 8.6875 15.234375 7.390625 
Q 20.0625 6.109375 24.8125 6.109375 
Q 31.15625 6.109375 34.5625 8.28125 
Q 37.984375 10.453125 37.984375 14.40625 
Q 37.984375 18.0625 35.515625 20.015625 
Q 33.0625 21.96875 24.703125 23.78125 
L 21.578125 24.515625 
Q 13.234375 26.265625 9.515625 29.90625 
Q 5.8125 33.546875 5.8125 39.890625 
Q 5.8125 47.609375 11.28125 51.796875 
Q 16.75 56 26.8125 56 
Q 31.78125 56 36.171875 55.265625 
Q 40.578125 54.546875 44.28125 53.078125 
z
" id="DejaVuSans-73"/>
      <path d="M 8.015625 75.875 
L 15.828125 75.875 
Q 23.140625 64.359375 26.78125 53.3125 
Q 30.421875 42.28125 30.421875 31.390625 
Q 30.421875 20.453125 26.78125 9.375 
Q 23.140625 -1.703125 15.828125 -13.1875 
L 8.015625 -13.1875 
Q 14.5 -2 17.703125 9.0625 
Q 20.90625 20.125 20.90625 31.390625 
Q 20.90625 42.671875 17.703125 53.65625 
Q 14.5 64.65625 8.015625 75.875 
z
" id="DejaVuSans-29"/>
     </defs>
     <g transform="translate(227.693594 335.860562)scale(0.1 -0.1)">
      <use xlink:href="#DejaVuSans-74"/>
      <use x="39.208984" xlink:href="#DejaVuSans-28"/>
      <use x="78.222656" xlink:href="#DejaVuSans-73"/>
      <use x="130.322266" xlink:href="#DejaVuSans-29"/>
     </g>
    </g>
   </g>
   <g id="matplotlib.axis_2">
    <g id="ytick_1">
     <g id="line2d_15">
      <path clip-path="url(#p2f61b86a4b)" d="M 57.6 293.733979 
L 414.72 293.733979 
" style="fill:none;stroke:#b0b0b0;stroke-linecap:square;stroke-width:0.8;"/>
     </g>
     <g id="line2d_16">
      <defs>
       <path d="M 0 0 
L -3.5 0 
" id="m486508e81b" style="stroke:#000000;stroke-width:0.8;"/>
      </defs>
      <g>
       <use style="stroke:#000000;stroke-width:0.8;" x="57.6" xlink:href="#m486508e81b" y="293.733979"/>
      </g>
     </g>
     <g id="text_9">
      <!-- 1.2170 -->
      <defs>
       <path d="M 10.6875 12.40625 
L 21 12.40625 
L 21 0 
L 10.6875 0 
z
" id="DejaVuSans-2e"/>
       <path d="M 8.203125 72.90625 
L 55.078125 72.90625 
L 55.078125 68.703125 
L 28.609375 0 
L 18.3125 0 
L 43.21875 64.59375 
L 8.203125 64.59375 
z
" id="DejaVuSans-37"/>
      </defs>
      <g transform="translate(15.609375 297.533198)scale(0.1 -0.1)">
       <use xlink:href="#DejaVuSans-31"/>
       <use x="63.623047" xlink:href="#DejaVuSans-2e"/>
       <use x="95.410156" xlink:href="#DejaVuSans-32"/>
       <use x="159.033203" xlink:href="#DejaVuSans-31"/>
       <use x="222.65625" xlink:href="#DejaVuSans-37"/>
       <use x="286.279297" xlink:href="#DejaVuSans-30"/>
      </g>
     </g>
    </g>
    <g id="ytick_2">
     <g id="line2d_17">
      <path clip-path="url(#p2f61b86a4b)" d="M 57.6 260.002802 
L 414.72 260.002802 
" style="fill:none;stroke:#b0b0b0;stroke-linecap:square;stroke-width:0.8;"/>
     </g>
     <g id="line2d_18">
      <g>
       <use style="stroke:#000000;stroke-width:0.8;" x="57.6" xlink:href="#m486508e81b" y="260.002802"/>
      </g>
     </g>
     <g id="text_10">
      <!-- 1.2175 -->
      <g transform="translate(15.609375 263.802021)scale(0.1 -0.1)">
       <use xlink:href="#DejaVuSans-31"/>
       <use x="63.623047" xlink:href="#DejaVuSans-2e"/>
       <use x="95.410156" xlink:href="#DejaVuSans-32"/>
       <use x="159.033203" xlink:href="#DejaVuSans-31"/>
       <use x="222.65625" xlink:href="#DejaVuSans-37"/>
       <use x="286.279297" xlink:href="#DejaVuSans-35"/>
      </g>
     </g>
    </g>
    <g id="ytick_3">
     <g id="line2d_19">
      <path clip-path="url(#p2f61b86a4b)" d="M 57.6 226.271625 
L 414.72 226.271625 
" style="fill:none;stroke:#b0b0b0;stroke-linecap:square;stroke-width:0.8;"/>
     </g>
     <g id="line2d_20">
      <g>
       <use style="stroke:#000000;stroke-width:0.8;" x="57.6" xlink:href="#m486508e81b" y="226.271625"/>
      </g>
     </g>
     <g id="text_11">
      <!-- 1.2180 -->
      <defs>
       <path d="M 31.78125 34.625 
Q 24.75 34.625 20.71875 30.859375 
Q 16.703125 27.09375 16.703125 20.515625 
Q 16.703125 13.921875 20.71875 10.15625 
Q 24.75 6.390625 31.78125 6.390625 
Q 38.8125 6.390625 42.859375 10.171875 
Q 46.921875 13.96875 46.921875 20.515625 
Q 46.921875 27.09375 42.890625 30.859375 
Q 38.875 34.625 31.78125 34.625 
z
M 21.921875 38.8125 
Q 15.578125 40.375 12.03125 44.71875 
Q 8.5 49.078125 8.5 55.328125 
Q 8.5 64.0625 14.71875 69.140625 
Q 20.953125 74.21875 31.78125 74.21875 
Q 42.671875 74.21875 48.875 69.140625 
Q 55.078125 64.0625 55.078125 55.328125 
Q 55.078125 49.078125 51.53125 44.71875 
Q 48 40.375 41.703125 38.8125 
Q 48.828125 37.15625 52.796875 32.3125 
Q 56.78125 27.484375 56.78125 20.515625 
Q 56.78125 9.90625 50.3125 4.234375 
Q 43.84375 -1.421875 31.78125 -1.421875 
Q 19.734375 -1.421875 13.25 4.234375 
Q 6.78125 9.90625 6.78125 20.515625 
Q 6.78125 27.484375 10.78125 32.3125 
Q 14.796875 37.15625 21.921875 38.8125 
z
M 18.3125 54.390625 
Q 18.3125 48.734375 21.84375 45.5625 
Q 25.390625 42.390625 31.78125 42.390625 
Q 38.140625 42.390625 41.71875 45.5625 
Q 45.3125 48.734375 45.3125 54.390625 
Q 45.3125 60.0625 41.71875 63.234375 
Q 38.140625 66.40625 31.78125 66.40625 
Q 25.390625 66.40625 21.84375 63.234375 
Q 18.3125 60.0625 18.3125 54.390625 
z
" id="DejaVuSans-38"/>
      </defs>
      <g transform="translate(15.609375 230.070844)scale(0.1 -0.1)">
       <use xlink:href="#DejaVuSans-31"/>
       <use x="63.623047" xlink:href="#DejaVuSans-2e"/>
       <use x="95.410156" xlink:href="#DejaVuSans-32"/>
       <use x="159.033203" xlink:href="#DejaVuSans-31"/>
       <use x="222.65625" xlink:href="#DejaVuSans-38"/>
       <use x="286.279297" xlink:href="#DejaVuSans-30"/>
      </g>
     </g>
    </g>
    <g id="ytick_4">
     <g id="line2d_21">
      <path clip-path="url(#p2f61b86a4b)" d="M 57.6 192.540448 
L 414.72 192.540448 
" style="fill:none;stroke:#b0b0b0;stroke-linecap:square;stroke-width:0.8;"/>
     </g>
     <g id="line2d_22">
      <g>
       <use style="stroke:#000000;stroke-width:0.8;" x="57.6" xlink:href="#m486508e81b" y="192.540448"/>
      </g>
     </g>
     <g id="text_12">
      <!-- 1.2185 -->
      <g transform="translate(15.609375 196.339667)scale(0.1 -0.1)">
       <use xlink:href="#DejaVuSans-31"/>
       <use x="63.623047" xlink:href="#DejaVuSans-2e"/>
       <use x="95.410156" xlink:href="#DejaVuSans-32"/>
       <use x="159.033203" xlink:href="#DejaVuSans-31"/>
       <use x="222.65625" xlink:href="#DejaVuSans-38"/>
       <use x="286.279297" xlink:href="#DejaVuSans-35"/>
      </g>
     </g>
    </g>
    <g id="ytick_5">
     <g id="line2d_23">
      <path clip-path="url(#p2f61b86a4b)" d="M 57.6 158.809272 
L 414.72 158.809272 
" style="fill:none;stroke:#b0b0b0;stroke-linecap:square;stroke-width:0.8;"/>
     </g>
     <g id="line2d_24">
      <g>
       <use style="stroke:#000000;stroke-width:0.8;" x="57.6" xlink:href="#m486508e81b" y="158.809272"/>
      </g>
     </g>
     <g id="text_13">
      <!-- 1.2190 -->
      <defs>
       <path d="M 10.984375 1.515625 
L 10.984375 10.5 
Q 14.703125 8.734375 18.5 7.8125 
Q 22.3125 6.890625 25.984375 6.890625 
Q 35.75 6.890625 40.890625 13.453125 
Q 46.046875 20.015625 46.78125 33.40625 
Q 43.953125 29.203125 39.59375 26.953125 
Q 35.25 24.703125 29.984375 24.703125 
Q 19.046875 24.703125 12.671875 31.3125 
Q 6.296875 37.9375 6.296875 49.421875 
Q 6.296875 60.640625 12.9375 67.421875 
Q 19.578125 74.21875 30.609375 74.21875 
Q 43.265625 74.21875 49.921875 64.515625 
Q 56.59375 54.828125 56.59375 36.375 
Q 56.59375 19.140625 48.40625 8.859375 
Q 40.234375 -1.421875 26.421875 -1.421875 
Q 22.703125 -1.421875 18.890625 -0.6875 
Q 15.09375 0.046875 10.984375 1.515625 
z
M 30.609375 32.421875 
Q 37.25 32.421875 41.125 36.953125 
Q 45.015625 41.5 45.015625 49.421875 
Q 45.015625 57.28125 41.125 61.84375 
Q 37.25 66.40625 30.609375 66.40625 
Q 23.96875 66.40625 20.09375 61.84375 
Q 16.21875 57.28125 16.21875 49.421875 
Q 16.21875 41.5 20.09375 36.953125 
Q 23.96875 32.421875 30.609375 32.421875 
z
" id="DejaVuSans-39"/>
      </defs>
      <g transform="translate(15.609375 162.60849)scale(0.1 -0.1)">
       <use xlink:href="#DejaVuSans-31"/>
       <use x="63.623047" xlink:href="#DejaVuSans-2e"/>
       <use x="95.410156" xlink:href="#DejaVuSans-32"/>
       <use x="159.033203" xlink:href="#DejaVuSans-31"/>
       <use x="222.65625" xlink:href="#DejaVuSans-39"/>
       <use x="286.279297" xlink:href="#DejaVuSans-30"/>
      </g>
     </g>
    </g>
    <g id="ytick_6">
     <g id="line2d_25">
      <path clip-path="url(#p2f61b86a4b)" d="M 57.6 125.078095 
L 414.72 125.078095 
" style="fill:none;stroke:#b0b0b0;stroke-linecap:square;stroke-width:0.8;"/>
     </g>
     <g id="line2d_26">
      <g>
       <use style="stroke:#000000;stroke-width:0.8;" x="57.6" xlink:href="#m486508e81b" y="125.078095"/>
      </g>
     </g>
     <g id="text_14">
      <!-- 1.2195 -->
      <g transform="translate(15.609375 128.877314)scale(0.1 -0.1)">
       <use xlink:href="#DejaVuSans-31"/>
       <use x="63.623047" xlink:href="#DejaVuSans-2e"/>
       <use x="95.410156" xlink:href="#DejaVuSans-32"/>
       <use x="159.033203" xlink:href="#DejaVuSans-31"/>
       <use x="222.65625" xlink:href="#DejaVuSans-39"/>
       <use x="286.279297" xlink:href="#DejaVuSans-35"/>
      </g>
     </g>
    </g>
    <g id="ytick_7">
     <g id="line2d_27">
      <path clip-path="url(#p2f61b86a4b)" d="M 57.6 91.346918 
L 414.72 91.346918 
" style="fill:none;stroke:#b0b0b0;stroke-linecap:square;stroke-width:0.8;"/>
     </g>
     <g id="line2d_28">
      <g>
       <use style="stroke:#000000;stroke-width:0.8;" x="57.6" xlink:href="#m486508e81b" y="91.346918"/>
      </g>
     </g>
     <g id="text_15">
      <!-- 1.2200 -->
      <g transform="translate(15.609375 95.146137)scale(0.1 -0.1)">
       <use xlink:href="#DejaVuSans-31"/>
       <use x="63.623047" xlink:href="#DejaVuSans-2e"/>
       <use x="95.410156" xlink:href="#DejaVuSans-32"/>
       <use x="159.033203" xlink:href="#DejaVuSans-32"/>
       <use x="222.65625" xlink:href="#DejaVuSans-30"/>
       <use x="286.279297" xlink:href="#DejaVuSans-30"/>
      </g>
     </g>
    </g>
    <g id="ytick_8">
     <g id="line2d_29">
      <path clip-path="url(#p2f61b86a4b)" d="M 57.6 57.615741 
L 414.72 57.615741 
" style="fill:none;stroke:#b0b0b0;stroke-linecap:square;stroke-width:0.8;"/>
     </g>
     <g id="line2d_30">
      <g>
       <use style="stroke:#000000;stroke-width:0.8;" x="57.6" xlink:href="#m486508e81b" y="57.615741"/>
      </g>
     </g>
     <g id="text_16">
      <!-- 1.2205 -->
      <g transform="translate(15.609375 61.41496)scale(0.1 -0.1)">
       <use xlink:href="#DejaVuSans-31"/>
       <use x="63.623047" xlink:href="#DejaVuSans-2e"/>
       <use x="95.410156" xlink:href="#DejaVuSans-32"/>
       <use x="159.033203" xlink:href="#DejaVuSans-32"/>
       <use x="222.65625" xlink:href="#DejaVuSans-30"/>
       <use x="286.279297" xlink:href="#DejaVuSans-35"/>
      </g>
     </g>
    </g>
    <g id="text_17">
     <!-- Voltage (V) -->
     <defs>
      <path d="M 28.609375 0 
L 0.78125 72.90625 
L 11.078125 72.90625 
L 34.1875 11.53125 
L 57.328125 72.90625 
L 67.578125 72.90625 
L 39.796875 0 
z
" id="DejaVuSans-56"/>
      <path d="M 30.609375 48.390625 
Q 23.390625 48.390625 19.1875 42.75 
Q 14.984375 37.109375 14.984375 27.296875 
Q 14.984375 17.484375 19.15625 11.84375 
Q 23.34375 6.203125 30.609375 6.203125 
Q 37.796875 6.203125 41.984375 11.859375 
Q 46.1875 17.53125 46.1875 27.296875 
Q 46.1875 37.015625 41.984375 42.703125 
Q 37.796875 48.390625 30.609375 48.390625 
z
M 30.609375 56 
Q 42.328125 56 49.015625 48.375 
Q 55.71875 40.765625 55.71875 27.296875 
Q 55.71875 13.875 49.015625 6.21875 
Q 42.328125 -1.421875 30.609375 -1.421875 
Q 18.84375 -1.421875 12.171875 6.21875 
Q 5.515625 13.875 5.515625 27.296875 
Q 5.515625 40.765625 12.171875 48.375 
Q 18.84375 56 30.609375 56 
z
" id="DejaVuSans-6f"/>
      <path d="M 9.421875 75.984375 
L 18.40625 75.984375 
L 18.40625 0 
L 9.421875 0 
z
" id="DejaVuSans-6c"/>
      <path d="M 34.28125 27.484375 
Q 23.390625 27.484375 19.1875 25 
Q 14.984375 22.515625 14.984375 16.5 
Q 14.984375 11.71875 18.140625 8.90625 
Q 21.296875 6.109375 26.703125 6.109375 
Q 34.1875 6.109375 38.703125 11.40625 
Q 43.21875 16.703125 43.21875 25.484375 
L 43.21875 27.484375 
z
M 52.203125 31.203125 
L 52.203125 0 
L 43.21875 0 
L 43.21875 8.296875 
Q 40.140625 3.328125 35.546875 0.953125 
Q 30.953125 -1.421875 24.3125 -1.421875 
Q 15.921875 -1.421875 10.953125 3.296875 
Q 6 8.015625 6 15.921875 
Q 6 25.140625 12.171875 29.828125 
Q 18.359375 34.515625 30.609375 34.515625 
L 43.21875 34.515625 
L 43.21875 35.40625 
Q 43.21875 41.609375 39.140625 45 
Q 35.0625 48.390625 27.6875 48.390625 
Q 23 48.390625 18.546875 47.265625 
Q 14.109375 46.140625 10.015625 43.890625 
L 10.015625 52.203125 
Q 14.9375 54.109375 19.578125 55.046875 
Q 24.21875 56 28.609375 56 
Q 40.484375 56 46.34375 49.84375 
Q 52.203125 43.703125 52.203125 31.203125 
z
" id="DejaVuSans-61"/>
      <path d="M 45.40625 27.984375 
Q 45.40625 37.75 41.375 43.109375 
Q 37.359375 48.484375 30.078125 48.484375 
Q 22.859375 48.484375 18.828125 43.109375 
Q 14.796875 37.75 14.796875 27.984375 
Q 14.796875 18.265625 18.828125 12.890625 
Q 22.859375 7.515625 30.078125 7.515625 
Q 37.359375 7.515625 41.375 12.890625 
Q 45.40625 18.265625 45.40625 27.984375 
z
M 54.390625 6.78125 
Q 54.390625 -7.171875 48.1875 -13.984375 
Q 42 -20.796875 29.203125 -20.796875 
Q 24.46875 -20.796875 20.265625 -20.09375 
Q 16.0625 -19.390625 12.109375 -17.921875 
L 12.109375 -9.1875 
Q 16.0625 -11.328125 19.921875 -12.34375 
Q 23.78125 -13.375 27.78125 -13.375 
Q 36.625 -13.375 41.015625 -8.765625 
Q 45.40625 -4.15625 45.40625 5.171875 
L 45.40625 9.625 
Q 42.625 4.78125 38.28125 2.390625 
Q 33.9375 0 27.875 0 
Q 17.828125 0 11.671875 7.65625 
Q 5.515625 15.328125 5.515625 27.984375 
Q 5.515625 40.671875 11.671875 48.328125 
Q 17.828125 56 27.875 56 
Q 33.9375 56 38.28125 53.609375 
Q 42.625 51.21875 45.40625 46.390625 
L 45.40625 54.6875 
L 54.390625 54.6875 
z
" id="DejaVuSans-67"/>
      <path d="M 56.203125 29.59375 
L 56.203125 25.203125 
L 14.890625 25.203125 
Q 15.484375 15.921875 20.484375 11.0625 
Q 25.484375 6.203125 34.421875 6.203125 
Q 39.59375 6.203125 44.453125 7.46875 
Q 49.3125 8.734375 54.109375 11.28125 
L 54.109375 2.78125 
Q 49.265625 0.734375 44.1875 -0.34375 
Q 39.109375 -1.421875 33.890625 -1.421875 
Q 20.796875 -1.421875 13.15625 6.1875 
Q 5.515625 13.8125 5.515625 26.8125 
Q 5.515625 40.234375 12.765625 48.109375 
Q 20.015625 56 32.328125 56 
Q 43.359375 56 49.78125 48.890625 
Q 56.203125 41.796875 56.203125 29.59375 
z
M 47.21875 32.234375 
Q 47.125 39.59375 43.09375 43.984375 
Q 39.0625 48.390625 32.421875 48.390625 
Q 24.90625 48.390625 20.390625 44.140625 
Q 15.875 39.890625 15.1875 32.171875 
z
" id="DejaVuSans-65"/>
      <path id="DejaVuSans-20"/>
     </defs>
     <g transform="translate(9.529687 202.577219)rotate(-90)scale(0.1 -0.1)">
      <use xlink:href="#DejaVuSans-56"/>
      <use x="68.298828" xlink:href="#DejaVuSans-6f"/>
      <use x="129.480469" xlink:href="#DejaVuSans-6c"/>
      <use x="157.263672" xlink:href="#DejaVuSans-74"/>
      <use x="196.472656" xlink:href="#DejaVuSans-61"/>
      <use x="257.751953" xlink:href="#DejaVuSans-67"/>
      <use x="321.228516" xlink:href="#DejaVuSans-65"/>
      <use x="382.751953" xlink:href="#DejaVuSans-20"/>
      <use x="414.539062" xlink:href="#DejaVuSans-28"/>
      <use x="453.552734" xlink:href="#DejaVuSans-56"/>
      <use x="521.960938" xlink:href="#DejaVuSans-29"/>
     </g>
    </g>
   </g>
   <g id="line2d_31">
    <path clip-path="url(#p2f61b86a4b)" d="M 73.832727 194.834168 
L 74.379155 193.349997 
L 74.925586 177.698731 
L 75.472014 181.948859 
L 76.018442 162.452239 
L 76.559462 159.34897 
L 77.10589 159.821207 
L 77.65773 139.717426 
L 78.204158 144.304866 
L 78.745178 108.549818 
L 80.076084 110.03399 
L 80.622512 128.518675 
L 81.163532 125.010632 
L 81.70996 105.918786 
L 82.250979 94.585111 
L 82.797407 105.379088 
L 83.879445 134.927598 
L 84.425875 131.756868 
L 84.972304 122.379601 
L 86.303209 183.433031 
L 86.84964 191.595975 
L 87.396068 202.929651 
L 88.483515 217.029283 
L 89.029943 232.478162 
L 89.570963 226.069238 
L 90.117392 239.899021 
L 90.663822 236.390978 
L 91.21025 252.379556 
L 92.541156 275.249294 
L 93.087586 273.023036 
L 93.634014 280.511358 
L 94.175033 272.483337 
L 94.721461 267.96336 
L 95.262479 261.824286 
L 95.803499 260.407576 
L 96.349928 242.664977 
L 96.896358 246.780181 
L 97.442786 295.488 
L 98.768281 244.688848 
L 99.309301 219.52539 
L 99.85573 227.55341 
L 100.402159 232.343237 
L 101.489607 203.604274 
L 102.030625 201.040705 
L 102.577053 228.295496 
L 103.118073 235.446505 
L 103.664502 216.759433 
L 104.995409 218.445992 
L 105.541837 210.755284 
L 106.082855 212.509305 
L 106.623874 205.155909 
L 107.170304 208.798876 
L 107.716733 192.338061 
L 108.263161 161.710153 
L 108.804181 157.999723 
L 109.350609 158.337035 
L 109.891628 157.3251 
L 111.222535 176.551871 
L 111.768963 187.885546 
L 112.309982 182.623482 
L 112.85641 170.345334 
L 113.397429 170.008022 
L 113.938448 175.944709 
L 114.479467 167.242066 
L 115.566915 201.985178 
L 116.113345 193.484921 
L 117.44425 211.632294 
L 117.990679 199.75892 
L 118.537109 197.262813 
L 119.083537 205.830532 
L 119.624556 212.171993 
L 120.170984 199.219221 
L 120.717415 193.14761 
L 121.263843 199.893845 
L 121.804861 201.782791 
L 122.345881 191.7309 
L 123.676786 212.981542 
L 124.217804 205.695607 
L 124.758824 226.40655 
L 125.305253 234.974269 
L 125.851682 228.902657 
L 126.398111 226.676399 
L 126.93913 226.811324 
L 127.485558 233.692484 
L 128.026578 228.70027 
L 128.573007 241.787967 
L 129.903912 219.930164 
L 130.444932 216.826896 
L 130.99136 217.703906 
L 131.532379 223.910443 
L 132.078809 200.770856 
L 132.625237 219.053153 
L 133.166256 221.616723 
L 133.712684 231.668613 
L 134.253704 207.382166 
L 134.800132 197.937437 
L 136.131038 234.704419 
L 136.672058 188.762557 
L 137.218486 177.024107 
L 137.759506 176.754258 
L 138.305934 173.785914 
L 138.846953 194.159545 
L 139.387971 218.985691 
L 139.934401 215.747498 
L 140.48624 242.260203 
L 141.027258 255.415362 
L 142.363576 246.780181 
L 143.451022 251.030309 
L 143.992042 250.76046 
L 144.53847 244.351536 
L 145.079489 262.094135 
L 145.620507 270.594392 
L 146.161527 265.264866 
L 146.707956 264.25293 
L 147.254384 274.102434 
L 148.579881 287.257593 
L 149.126309 237.537838 
L 149.667329 222.831045 
L 150.208347 231.263839 
L 150.749365 264.185468 
L 151.290385 230.521753 
L 151.836814 217.299132 
L 152.383243 210.283047 
L 152.929671 205.290833 
L 153.47069 197.667587 
L 154.801597 183.905267 
L 155.348026 184.040192 
L 155.889045 190.516578 
L 156.435473 182.623482 
L 156.976491 162.78955 
L 157.517511 167.714302 
L 158.063939 157.999723 
L 159.151388 181.544085 
L 159.697817 175.607398 
L 161.028722 216.826896 
L 161.575152 190.718965 
L 162.121581 190.179266 
L 162.662599 176.214559 
L 163.203619 175.944709 
L 163.750047 209.945736 
L 164.291065 209.406037 
L 164.832085 225.597002 
L 165.919532 230.049517 
L 167.250439 253.93119 
L 167.796867 235.041731 
L 168.337886 239.561709 
L 168.884314 210.957671 
L 169.425334 210.35051 
L 169.971763 250.895384 
L 170.518193 258.721017 
L 171.064621 222.021497 
L 171.605639 196.58819 
L 172.146659 216.691971 
L 173.472154 221.077024 
L 174.013173 224.382679 
L 174.559603 220.67225 
L 175.106031 220.874637 
L 175.64705 223.84298 
L 176.193478 242.664977 
L 176.734498 233.490097 
L 177.280926 230.99399 
L 178.362964 257.169383 
L 179.69387 242.530052 
L 180.23489 270.25708 
L 180.781318 277.003315 
L 181.322336 248.938976 
L 181.863356 256.022523 
L 182.409784 242.799902 
L 182.950803 234.164721 
L 184.043662 209.136187 
L 184.59009 201.985178 
L 185.926406 196.723114 
L 187.013854 244.486461 
L 187.554874 250.085836 
L 188.101302 199.084297 
L 189.18875 169.738173 
L 189.735179 169.198474 
L 190.276198 149.094693 
L 190.822626 146.598586 
L 192.153534 154.289294 
L 192.699962 164.745959 
L 193.24639 164.003873 
L 193.78741 157.797336 
L 194.333838 162.587163 
L 194.874857 172.23428 
L 195.415875 150.916176 
L 195.956895 145.114414 
L 196.503324 144.912027 
L 197.049752 140.324587 
L 198.380659 132.903728 
L 198.927088 136.749082 
L 199.473517 142.483382 
L 200.019946 156.245702 
L 200.560965 152.46781 
L 201.107393 149.971703 
L 201.648411 149.566929 
L 202.189431 180.397225 
L 203.28229 191.528513 
L 204.613195 136.951469 
L 205.159624 159.61882 
L 205.706053 170.885033 
L 206.252482 195.373867 
L 206.793501 184.242579 
L 207.339929 221.81911 
L 207.880949 200.231157 
L 208.427378 221.54926 
L 208.973806 197.127888 
L 209.514826 205.76307 
L 210.845731 200.298619 
L 211.38675 196.790577 
L 211.93318 201.647866 
L 212.479608 192.338061 
L 213.020627 204.143973 
L 213.567055 199.75892 
L 214.108075 179.722601 
L 214.654503 181.544085 
L 215.195523 175.000236 
L 215.741952 204.413823 
L 217.072857 203.132038 
L 217.613877 203.739199 
L 218.160305 200.231157 
L 218.701324 193.619846 
L 219.247754 188.492707 
L 219.794182 221.481798 
L 220.335201 198.139824 
L 220.881629 192.00075 
L 221.422649 170.547721 
L 221.969077 154.963917 
L 223.299983 136.884007 
L 223.841003 154.424219 
L 224.387431 152.063036 
L 224.92845 160.091056 
L 225.474878 177.766193 
L 226.015898 162.654626 
L 226.562327 164.138798 
L 227.108757 157.190175 
L 227.655185 165.488045 
L 228.201613 149.432004 
L 229.532521 169.131012 
L 230.084358 161.710153 
L 230.625378 171.559656 
L 231.171807 159.079121 
L 231.712826 133.983125 
L 232.253845 133.578351 
L 232.800273 128.923449 
L 233.341293 128.518675 
L 233.887721 123.121687 
L 234.42874 120.018418 
L 235.759647 124.403471 
L 236.306075 123.526461 
L 236.847094 125.415407 
L 237.393522 136.479233 
L 237.934542 139.447576 
L 238.48097 132.09418 
L 239.021988 144.43979 
L 239.563008 131.82433 
L 240.109437 124.875708 
L 240.655866 120.693042 
L 241.986772 138.840415 
L 242.533201 152.332886 
L 243.07963 170.412796 
L 243.626058 156.17824 
L 244.167078 152.265423 
L 244.713506 122.177214 
L 245.254526 137.086394 
L 245.800955 137.491168 
L 246.347384 147.070822 
L 246.893812 152.602735 
L 248.224719 173.583527 
L 248.771148 193.822233 
L 249.317576 180.397225 
L 249.858596 161.440303 
L 250.405024 155.840928 
L 250.951454 141.336522 
L 251.497882 134.522824 
L 252.044311 132.701341 
L 252.58533 155.706003 
L 253.131758 186.671224 
L 254.462666 168.051614 
L 255.009094 177.226494 
L 256.096542 133.983125 
L 256.642971 122.64945 
L 257.1894 131.082244 
L 257.735828 146.463661 
L 258.276848 141.201597 
L 258.823276 131.891793 
L 259.369706 135.53476 
L 260.700612 127.169428 
L 261.24704 143.56278 
L 261.788059 134.11805 
L 262.334489 134.11805 
L 263.427346 164.678496 
L 263.973774 172.504129 
L 264.514794 178.103505 
L 265.061223 205.965457 
L 265.607652 159.956132 
L 266.938557 170.952495 
L 267.484988 186.26645 
L 268.031416 184.917202 
L 268.577844 190.516578 
L 269.118864 194.631781 
L 269.665292 191.191201 
L 270.206311 212.104531 
L 270.752741 206.370231 
L 271.29917 209.945736 
L 271.845598 170.412796 
L 273.219787 142.888156 
L 273.766215 166.567442 
L 274.307234 161.237916 
L 274.853662 139.784888 
L 275.394681 137.895942 
L 275.9357 119.073945 
L 277.023148 102.478206 
L 278.116007 109.156979 
L 279.490193 157.460025 
L 280.031212 156.785401 
L 280.577642 154.424219 
L 281.124071 179.385289 
L 281.670499 183.770342 
L 282.216928 225.664464 
L 282.757947 196.790577 
L 283.304376 182.825869 
L 283.850805 178.036042 
L 284.397233 217.096745 
L 285.728141 204.34636 
L 286.279979 190.449115 
L 286.820997 193.349997 
L 287.362017 230.521753 
L 287.903035 226.40655 
L 288.444055 232.275775 
L 288.985073 227.688335 
L 289.526091 233.085323 
L 290.067111 240.776031 
L 290.613539 236.256054 
L 291.955266 207.314704 
L 293.042715 199.084297 
L 293.616193 161.575228 
L 294.157213 155.436154 
L 294.703641 160.023594 
L 295.24466 152.130499 
L 295.79109 162.991938 
L 296.332108 169.063549 
L 296.878537 184.377504 
L 298.209442 174.528 
L 298.750462 168.388926 
L 299.296891 141.808759 
L 299.843319 141.741296 
L 300.384339 131.621943 
L 300.930767 176.349484 
L 301.477196 164.948346 
L 302.023626 165.555507 
L 302.570055 163.599099 
L 303.116483 167.376991 
L 304.452799 173.988301 
L 304.993819 171.154882 
L 305.540247 172.23428 
L 306.081267 165.150733 
L 306.627695 170.480259 
L 307.168714 194.834168 
L 307.715143 184.310041 
L 308.261573 189.167331 
L 308.808001 196.385803 
L 309.354429 188.020471 
L 310.685337 153.547208 
L 311.231765 176.012172 
L 311.772784 173.516065 
L 312.319212 171.559656 
L 312.860231 158.606885 
L 313.40125 133.983125 
L 313.942268 129.867922 
L 314.483288 140.189662 
L 315.029717 133.375964 
L 315.570736 131.891793 
L 316.923282 149.836779 
L 317.469711 159.146583 
L 318.01073 181.813934 
L 318.557159 182.623482 
L 319.098179 176.079634 
L 319.644607 193.012685 
L 320.191036 197.802512 
L 320.737464 190.314191 
L 321.278483 211.294983 
L 321.819502 215.005412 
L 323.161228 202.727264 
L 323.702248 178.440817 
L 325.341535 148.352607 
L 325.887963 152.130499 
L 326.428982 183.028257 
L 326.975412 194.227007 
L 327.521841 157.257637 
L 328.068269 163.261787 
L 329.404586 169.535786 
L 329.951015 154.154369 
L 330.497443 148.892306 
L 331.038462 149.094693 
L 331.584891 153.951982 
L 332.131321 153.074972 
L 332.677749 153.007509 
L 333.218768 154.356756 
L 333.765196 175.944709 
L 334.311627 157.797336 
L 335.642532 156.17824 
L 336.18896 175.809785 
L 336.72998 184.84974 
L 337.270998 181.679009 
L 337.817429 202.120103 
L 338.363857 180.936924 
L 338.910285 184.242579 
L 339.451304 174.393075 
L 339.997732 175.67486 
L 340.538752 142.550844 
L 341.869658 157.594949 
L 342.416087 149.02723 
L 342.957106 169.603248 
L 343.503534 165.218195 
L 344.044554 162.519701 
L 344.590983 182.55602 
L 345.132003 185.389439 
L 345.678431 191.595975 
L 346.224859 193.687308 
L 346.765878 222.021497 
L 348.096785 210.013198 
L 348.637804 212.914079 
L 349.184232 210.35051 
L 350.27168 188.830019 
L 350.818108 163.666561 
L 351.359127 159.34897 
L 351.905557 173.448602 
L 352.446576 180.599612 
L 352.993004 149.634392 
L 354.32391 179.250365 
L 354.864929 181.206773 
L 355.405947 194.631781 
L 355.946966 186.873611 
L 356.487985 191.123739 
L 357.034415 186.536299 
L 357.575434 203.401887 
L 358.121862 213.723627 
L 358.668292 198.88191 
L 359.21472 219.188078 
L 360.540216 214.128402 
L 361.086646 220.537325 
L 361.633074 220.132551 
L 362.174093 192.675373 
L 362.720521 181.274235 
L 363.261539 200.231157 
L 363.802559 207.382166 
L 364.348988 218.648379 
L 364.895418 210.417972 
L 365.441846 215.545111 
L 366.778163 232.275775 
L 367.324591 221.481798 
L 367.871019 194.429394 
L 368.412039 178.913053 
L 368.958468 179.587677 
L 369.504898 155.975853 
L 370.051326 148.217682 
L 370.592345 165.285658 
L 371.138773 156.852863 
L 371.685204 126.832116 
L 373.02693 101.533733 
L 373.573358 95.664509 
L 374.114378 127.776589 
L 374.660806 118.871558 
L 375.201825 114.014269 
L 375.748253 137.018931 
L 376.289272 128.855987 
L 376.830291 115.228591 
L 377.371309 105.311625 
L 377.912329 109.561753 
L 379.254055 121.50259 
L 379.795073 105.716399 
L 380.882522 83.723672 
L 381.423542 57.00858 
L 381.96997 62.270644 
L 382.516399 53.568 
L 383.062827 72.929695 
L 383.609258 78.191759 
L 384.155686 93.235864 
L 385.492002 108.347431 
L 386.033022 112.799946 
L 386.57945 111.045925 
L 387.120469 142.685769 
L 387.666897 140.99921 
L 388.213325 133.375964 
L 388.754345 104.164765 
L 389.847204 119.748569 
L 391.719127 155.436154 
L 392.260147 182.083784 
L 392.806576 173.718452 
L 393.353005 149.904241 
L 393.894023 150.781252 
L 394.435043 150.983639 
L 394.981471 137.018931 
L 395.522489 130.340158 
L 396.609937 99.847175 
L 397.940845 83.926059 
L 398.487273 110.101452 
L 398.487273 110.101452 
" style="fill:none;stroke:#1f77b4;stroke-linecap:square;stroke-width:1.5;"/>
   </g>
   <g id="patch_3">
    <path d="M 57.6 307.584 
L 57.6 41.472 
" style="fill:none;stroke:#000000;stroke-linecap:square;stroke-linejoin:miter;stroke-width:0.8;"/>
   </g>
   <g id="patch_4">
    <path d="M 414.72 307.584 
L 414.72 41.472 
" style="fill:none;stroke:#000000;stroke-linecap:square;stroke-linejoin:miter;stroke-width:0.8;"/>
   </g>
   <g id="patch_5">
    <path d="M 57.6 307.584 
L 414.72 307.584 
" style="fill:none;stroke:#000000;stroke-linecap:square;stroke-linejoin:miter;stroke-width:0.8;"/>
   </g>
   <g id="patch_6">
    <path d="M 57.6 41.472 
L 414.72 41.472 
" style="fill:none;stroke:#000000;stroke-linecap:square;stroke-linejoin:miter;stroke-width:0.8;"/>
   </g>
   <g id="text_18">
    <!-- Voltage -->
    <g transform="translate(213.194063 35.472)scale(0.12 -0.12)">
     <use xlink:href="#DejaVuSans-56"/>
     <use x="68.298828" xlink:href="#DejaVuSans-6f"/>
     <use x="129.480469" xlink:href="#DejaVuSans-6c"/>
     <use x="157.263672" xlink:href="#DejaVuSans-74"/>
     <use x="196.472656" xlink:href="#DejaVuSans-61"/>
     <use x="257.751953" xlink:href="#DejaVuSans-67"/>
     <use x="321.228516" xlink:href="#DejaVuSans-65"/>
    </g>
   </g>
  </g>
 </g>
 <defs>
  <clipPath id="p2f61b86a4b">
   <rect height="266.112" width="357.12" x="57.6" y="41.472"/>
  </clipPath>
 </defs>
</svg>
