<?xml version="1.0" encoding="utf-8" standalone="no"?>
<!DOCTYPE svg PUBLIC "-//W3C//DTD SVG 1.1//EN"
  "http://www.w3.org/Graphics/SVG/1.1/DTD/svg11.dtd">
<!-- Created with matplotlib (http://matplotlib.org/) -->
<svg height="345pt" version="1.1" viewBox="0 0 460 345" width="460pt" xmlns="http://www.w3.org/2000/svg" xmlns:xlink="http://www.w3.org/1999/xlink">
 <defs>
  <style type="text/css">
*{stroke-linecap:butt;stroke-linejoin:round;}
  </style>
 </defs>
 <g id="figure_1">
  <g id="patch_1">
   <path d="M 0 345.6 
L 460.8 345.6 
L 460.8 0 
L 0 0 
z
" style="fill:#ffffff;"/>
  </g>
  <g id="axes_1">
   <g id="patch_2">
    <path d="M 57.6 307.584 
L 414.72 307.584 
L 414.72 41.472 
L 57.6 41.472 
z
" style="fill:#ffffff;"/>
   </g>
   <g id="matplotlib.axis_1">
    <g id="xtick_1">
     <g id="line2d_1">
      <path clip-path="url(#p0a2a8fdae1)" d="M 73.832727 307.584 
L 73.832727 41.472 
" style="fill:none;stroke:#b0b0b0;stroke-linecap:square;stroke-width:0.8;"/>
     </g>
     <g id="line2d_2">
      <defs>
       <path d="M 0 0 
L 0 3.5 
" id="m5a22a26415" style="stroke:#000000;stroke-width:0.8;"/>
      </defs>
      <g>
       <use style="stroke:#000000;stroke-width:0.8;" x="73.832727" xlink:href="#m5a22a26415" y="307.584"/>
      </g>
     </g>
     <g id="text_1">
      <!-- 0 -->
      <defs>
       <path d="M 31.78125 66.40625 
Q 24.171875 66.40625 20.328125 58.90625 
Q 16.5 51.421875 16.5 36.375 
Q 16.5 21.390625 20.328125 13.890625 
Q 24.171875 6.390625 31.78125 6.390625 
Q 39.453125 6.390625 43.28125 13.890625 
Q 47.125 21.390625 47.125 36.375 
Q 47.125 51.421875 43.28125 58.90625 
Q 39.453125 66.40625 31.78125 66.40625 
z
M 31.78125 74.21875 
Q 44.046875 74.21875 50.515625 64.515625 
Q 56.984375 54.828125 56.984375 36.375 
Q 56.984375 17.96875 50.515625 8.265625 
Q 44.046875 -1.421875 31.78125 -1.421875 
Q 19.53125 -1.421875 13.0625 8.265625 
Q 6.59375 17.96875 6.59375 36.375 
Q 6.59375 54.828125 13.0625 64.515625 
Q 19.53125 74.21875 31.78125 74.21875 
z
" id="DejaVuSans-30"/>
      </defs>
      <g transform="translate(70.651477 322.182437)scale(0.1 -0.1)">
       <use xlink:href="#DejaVuSans-30"/>
      </g>
     </g>
    </g>
    <g id="xtick_2">
     <g id="line2d_3">
      <path clip-path="url(#p0a2a8fdae1)" d="M 145.970808 307.584 
L 145.970808 41.472 
" style="fill:none;stroke:#b0b0b0;stroke-linecap:square;stroke-width:0.8;"/>
     </g>
     <g id="line2d_4">
      <g>
       <use style="stroke:#000000;stroke-width:0.8;" x="145.970808" xlink:href="#m5a22a26415" y="307.584"/>
      </g>
     </g>
     <g id="text_2">
      <!-- 200 -->
      <defs>
       <path d="M 19.1875 8.296875 
L 53.609375 8.296875 
L 53.609375 0 
L 7.328125 0 
L 7.328125 8.296875 
Q 12.9375 14.109375 22.625 23.890625 
Q 32.328125 33.6875 34.8125 36.53125 
Q 39.546875 41.84375 41.421875 45.53125 
Q 43.3125 49.21875 43.3125 52.78125 
Q 43.3125 58.59375 39.234375 62.25 
Q 35.15625 65.921875 28.609375 65.921875 
Q 23.96875 65.921875 18.8125 64.3125 
Q 13.671875 62.703125 7.8125 59.421875 
L 7.8125 69.390625 
Q 13.765625 71.78125 18.9375 73 
Q 24.125 74.21875 28.421875 74.21875 
Q 39.75 74.21875 46.484375 68.546875 
Q 53.21875 62.890625 53.21875 53.421875 
Q 53.21875 48.921875 51.53125 44.890625 
Q 49.859375 40.875 45.40625 35.40625 
Q 44.1875 33.984375 37.640625 27.21875 
Q 31.109375 20.453125 19.1875 8.296875 
z
" id="DejaVuSans-32"/>
      </defs>
      <g transform="translate(136.427058 322.182437)scale(0.1 -0.1)">
       <use xlink:href="#DejaVuSans-32"/>
       <use x="63.623047" xlink:href="#DejaVuSans-30"/>
       <use x="127.246094" xlink:href="#DejaVuSans-30"/>
      </g>
     </g>
    </g>
    <g id="xtick_3">
     <g id="line2d_5">
      <path clip-path="url(#p0a2a8fdae1)" d="M 218.108888 307.584 
L 218.108888 41.472 
" style="fill:none;stroke:#b0b0b0;stroke-linecap:square;stroke-width:0.8;"/>
     </g>
     <g id="line2d_6">
      <g>
       <use style="stroke:#000000;stroke-width:0.8;" x="218.108888" xlink:href="#m5a22a26415" y="307.584"/>
      </g>
     </g>
     <g id="text_3">
      <!-- 400 -->
      <defs>
       <path d="M 37.796875 64.3125 
L 12.890625 25.390625 
L 37.796875 25.390625 
z
M 35.203125 72.90625 
L 47.609375 72.90625 
L 47.609375 25.390625 
L 58.015625 25.390625 
L 58.015625 17.1875 
L 47.609375 17.1875 
L 47.609375 0 
L 37.796875 0 
L 37.796875 17.1875 
L 4.890625 17.1875 
L 4.890625 26.703125 
z
" id="DejaVuSans-34"/>
      </defs>
      <g transform="translate(208.565138 322.182437)scale(0.1 -0.1)">
       <use xlink:href="#DejaVuSans-34"/>
       <use x="63.623047" xlink:href="#DejaVuSans-30"/>
       <use x="127.246094" xlink:href="#DejaVuSans-30"/>
      </g>
     </g>
    </g>
    <g id="xtick_4">
     <g id="line2d_7">
      <path clip-path="url(#p0a2a8fdae1)" d="M 290.246969 307.584 
L 290.246969 41.472 
" style="fill:none;stroke:#b0b0b0;stroke-linecap:square;stroke-width:0.8;"/>
     </g>
     <g id="line2d_8">
      <g>
       <use style="stroke:#000000;stroke-width:0.8;" x="290.246969" xlink:href="#m5a22a26415" y="307.584"/>
      </g>
     </g>
     <g id="text_4">
      <!-- 600 -->
      <defs>
       <path d="M 33.015625 40.375 
Q 26.375 40.375 22.484375 35.828125 
Q 18.609375 31.296875 18.609375 23.390625 
Q 18.609375 15.53125 22.484375 10.953125 
Q 26.375 6.390625 33.015625 6.390625 
Q 39.65625 6.390625 43.53125 10.953125 
Q 47.40625 15.53125 47.40625 23.390625 
Q 47.40625 31.296875 43.53125 35.828125 
Q 39.65625 40.375 33.015625 40.375 
z
M 52.59375 71.296875 
L 52.59375 62.3125 
Q 48.875 64.0625 45.09375 64.984375 
Q 41.3125 65.921875 37.59375 65.921875 
Q 27.828125 65.921875 22.671875 59.328125 
Q 17.53125 52.734375 16.796875 39.40625 
Q 19.671875 43.65625 24.015625 45.921875 
Q 28.375 48.1875 33.59375 48.1875 
Q 44.578125 48.1875 50.953125 41.515625 
Q 57.328125 34.859375 57.328125 23.390625 
Q 57.328125 12.15625 50.6875 5.359375 
Q 44.046875 -1.421875 33.015625 -1.421875 
Q 20.359375 -1.421875 13.671875 8.265625 
Q 6.984375 17.96875 6.984375 36.375 
Q 6.984375 53.65625 15.1875 63.9375 
Q 23.390625 74.21875 37.203125 74.21875 
Q 40.921875 74.21875 44.703125 73.484375 
Q 48.484375 72.75 52.59375 71.296875 
z
" id="DejaVuSans-36"/>
      </defs>
      <g transform="translate(280.703219 322.182437)scale(0.1 -0.1)">
       <use xlink:href="#DejaVuSans-36"/>
       <use x="63.623047" xlink:href="#DejaVuSans-30"/>
       <use x="127.246094" xlink:href="#DejaVuSans-30"/>
      </g>
     </g>
    </g>
    <g id="xtick_5">
     <g id="line2d_9">
      <path clip-path="url(#p0a2a8fdae1)" d="M 362.385049 307.584 
L 362.385049 41.472 
" style="fill:none;stroke:#b0b0b0;stroke-linecap:square;stroke-width:0.8;"/>
     </g>
     <g id="line2d_10">
      <g>
       <use style="stroke:#000000;stroke-width:0.8;" x="362.385049" xlink:href="#m5a22a26415" y="307.584"/>
      </g>
     </g>
     <g id="text_5">
      <!-- 800 -->
      <defs>
       <path d="M 31.78125 34.625 
Q 24.75 34.625 20.71875 30.859375 
Q 16.703125 27.09375 16.703125 20.515625 
Q 16.703125 13.921875 20.71875 10.15625 
Q 24.75 6.390625 31.78125 6.390625 
Q 38.8125 6.390625 42.859375 10.171875 
Q 46.921875 13.96875 46.921875 20.515625 
Q 46.921875 27.09375 42.890625 30.859375 
Q 38.875 34.625 31.78125 34.625 
z
M 21.921875 38.8125 
Q 15.578125 40.375 12.03125 44.71875 
Q 8.5 49.078125 8.5 55.328125 
Q 8.5 64.0625 14.71875 69.140625 
Q 20.953125 74.21875 31.78125 74.21875 
Q 42.671875 74.21875 48.875 69.140625 
Q 55.078125 64.0625 55.078125 55.328125 
Q 55.078125 49.078125 51.53125 44.71875 
Q 48 40.375 41.703125 38.8125 
Q 48.828125 37.15625 52.796875 32.3125 
Q 56.78125 27.484375 56.78125 20.515625 
Q 56.78125 9.90625 50.3125 4.234375 
Q 43.84375 -1.421875 31.78125 -1.421875 
Q 19.734375 -1.421875 13.25 4.234375 
Q 6.78125 9.90625 6.78125 20.515625 
Q 6.78125 27.484375 10.78125 32.3125 
Q 14.796875 37.15625 21.921875 38.8125 
z
M 18.3125 54.390625 
Q 18.3125 48.734375 21.84375 45.5625 
Q 25.390625 42.390625 31.78125 42.390625 
Q 38.140625 42.390625 41.71875 45.5625 
Q 45.3125 48.734375 45.3125 54.390625 
Q 45.3125 60.0625 41.71875 63.234375 
Q 38.140625 66.40625 31.78125 66.40625 
Q 25.390625 66.40625 21.84375 63.234375 
Q 18.3125 60.0625 18.3125 54.390625 
z
" id="DejaVuSans-38"/>
      </defs>
      <g transform="translate(352.841299 322.182437)scale(0.1 -0.1)">
       <use xlink:href="#DejaVuSans-38"/>
       <use x="63.623047" xlink:href="#DejaVuSans-30"/>
       <use x="127.246094" xlink:href="#DejaVuSans-30"/>
      </g>
     </g>
    </g>
    <g id="text_6">
     <!-- t(s) -->
     <defs>
      <path d="M 18.3125 70.21875 
L 18.3125 54.6875 
L 36.8125 54.6875 
L 36.8125 47.703125 
L 18.3125 47.703125 
L 18.3125 18.015625 
Q 18.3125 11.328125 20.140625 9.421875 
Q 21.96875 7.515625 27.59375 7.515625 
L 36.8125 7.515625 
L 36.8125 0 
L 27.59375 0 
Q 17.1875 0 13.234375 3.875 
Q 9.28125 7.765625 9.28125 18.015625 
L 9.28125 47.703125 
L 2.6875 47.703125 
L 2.6875 54.6875 
L 9.28125 54.6875 
L 9.28125 70.21875 
z
" id="DejaVuSans-74"/>
      <path d="M 31 75.875 
Q 24.46875 64.65625 21.28125 53.65625 
Q 18.109375 42.671875 18.109375 31.390625 
Q 18.109375 20.125 21.3125 9.0625 
Q 24.515625 -2 31 -13.1875 
L 23.1875 -13.1875 
Q 15.875 -1.703125 12.234375 9.375 
Q 8.59375 20.453125 8.59375 31.390625 
Q 8.59375 42.28125 12.203125 53.3125 
Q 15.828125 64.359375 23.1875 75.875 
z
" id="DejaVuSans-28"/>
      <path d="M 44.28125 53.078125 
L 44.28125 44.578125 
Q 40.484375 46.53125 36.375 47.5 
Q 32.28125 48.484375 27.875 48.484375 
Q 21.1875 48.484375 17.84375 46.4375 
Q 14.5 44.390625 14.5 40.28125 
Q 14.5 37.15625 16.890625 35.375 
Q 19.28125 33.59375 26.515625 31.984375 
L 29.59375 31.296875 
Q 39.15625 29.25 43.1875 25.515625 
Q 47.21875 21.78125 47.21875 15.09375 
Q 47.21875 7.46875 41.1875 3.015625 
Q 35.15625 -1.421875 24.609375 -1.421875 
Q 20.21875 -1.421875 15.453125 -0.5625 
Q 10.6875 0.296875 5.421875 2 
L 5.421875 11.28125 
Q 10.40625 8.6875 15.234375 7.390625 
Q 20.0625 6.109375 24.8125 6.109375 
Q 31.15625 6.109375 34.5625 8.28125 
Q 37.984375 10.453125 37.984375 14.40625 
Q 37.984375 18.0625 35.515625 20.015625 
Q 33.0625 21.96875 24.703125 23.78125 
L 21.578125 24.515625 
Q 13.234375 26.265625 9.515625 29.90625 
Q 5.8125 33.546875 5.8125 39.890625 
Q 5.8125 47.609375 11.28125 51.796875 
Q 16.75 56 26.8125 56 
Q 31.78125 56 36.171875 55.265625 
Q 40.578125 54.546875 44.28125 53.078125 
z
" id="DejaVuSans-73"/>
      <path d="M 8.015625 75.875 
L 15.828125 75.875 
Q 23.140625 64.359375 26.78125 53.3125 
Q 30.421875 42.28125 30.421875 31.390625 
Q 30.421875 20.453125 26.78125 9.375 
Q 23.140625 -1.703125 15.828125 -13.1875 
L 8.015625 -13.1875 
Q 14.5 -2 17.703125 9.0625 
Q 20.90625 20.125 20.90625 31.390625 
Q 20.90625 42.671875 17.703125 53.65625 
Q 14.5 64.65625 8.015625 75.875 
z
" id="DejaVuSans-29"/>
     </defs>
     <g transform="translate(227.693594 335.860562)scale(0.1 -0.1)">
      <use xlink:href="#DejaVuSans-74"/>
      <use x="39.208984" xlink:href="#DejaVuSans-28"/>
      <use x="78.222656" xlink:href="#DejaVuSans-73"/>
      <use x="130.322266" xlink:href="#DejaVuSans-29"/>
     </g>
    </g>
   </g>
   <g id="matplotlib.axis_2">
    <g id="ytick_1">
     <g id="line2d_11">
      <path clip-path="url(#p0a2a8fdae1)" d="M 57.6 295.488 
L 414.72 295.488 
" style="fill:none;stroke:#b0b0b0;stroke-linecap:square;stroke-width:0.8;"/>
     </g>
     <g id="line2d_12">
      <defs>
       <path d="M 0 0 
L -3.5 0 
" id="m806882ddff" style="stroke:#000000;stroke-width:0.8;"/>
      </defs>
      <g>
       <use style="stroke:#000000;stroke-width:0.8;" x="57.6" xlink:href="#m806882ddff" y="295.488"/>
      </g>
     </g>
     <g id="text_7">
      <!-- −0.00010 -->
      <defs>
       <path d="M 10.59375 35.5 
L 73.1875 35.5 
L 73.1875 27.203125 
L 10.59375 27.203125 
z
" id="DejaVuSans-2212"/>
       <path d="M 10.6875 12.40625 
L 21 12.40625 
L 21 0 
L 10.6875 0 
z
" id="DejaVuSans-2e"/>
       <path d="M 12.40625 8.296875 
L 28.515625 8.296875 
L 28.515625 63.921875 
L 10.984375 60.40625 
L 10.984375 69.390625 
L 28.421875 72.90625 
L 38.28125 72.90625 
L 38.28125 8.296875 
L 54.390625 8.296875 
L 54.390625 0 
L 12.40625 0 
z
" id="DejaVuSans-31"/>
      </defs>
      <g transform="translate(0.867188 299.287219)scale(0.1 -0.1)">
       <use xlink:href="#DejaVuSans-2212"/>
       <use x="83.789062" xlink:href="#DejaVuSans-30"/>
       <use x="147.412109" xlink:href="#DejaVuSans-2e"/>
       <use x="179.199219" xlink:href="#DejaVuSans-30"/>
       <use x="242.822266" xlink:href="#DejaVuSans-30"/>
       <use x="306.445312" xlink:href="#DejaVuSans-30"/>
       <use x="370.068359" xlink:href="#DejaVuSans-31"/>
       <use x="433.691406" xlink:href="#DejaVuSans-30"/>
      </g>
     </g>
    </g>
    <g id="ytick_2">
     <g id="line2d_13">
      <path clip-path="url(#p0a2a8fdae1)" d="M 57.6 247.104 
L 414.72 247.104 
" style="fill:none;stroke:#b0b0b0;stroke-linecap:square;stroke-width:0.8;"/>
     </g>
     <g id="line2d_14">
      <g>
       <use style="stroke:#000000;stroke-width:0.8;" x="57.6" xlink:href="#m806882ddff" y="247.104"/>
      </g>
     </g>
     <g id="text_8">
      <!-- −0.00008 -->
      <g transform="translate(0.867188 250.903219)scale(0.1 -0.1)">
       <use xlink:href="#DejaVuSans-2212"/>
       <use x="83.789062" xlink:href="#DejaVuSans-30"/>
       <use x="147.412109" xlink:href="#DejaVuSans-2e"/>
       <use x="179.199219" xlink:href="#DejaVuSans-30"/>
       <use x="242.822266" xlink:href="#DejaVuSans-30"/>
       <use x="306.445312" xlink:href="#DejaVuSans-30"/>
       <use x="370.068359" xlink:href="#DejaVuSans-30"/>
       <use x="433.691406" xlink:href="#DejaVuSans-38"/>
      </g>
     </g>
    </g>
    <g id="ytick_3">
     <g id="line2d_15">
      <path clip-path="url(#p0a2a8fdae1)" d="M 57.6 198.72 
L 414.72 198.72 
" style="fill:none;stroke:#b0b0b0;stroke-linecap:square;stroke-width:0.8;"/>
     </g>
     <g id="line2d_16">
      <g>
       <use style="stroke:#000000;stroke-width:0.8;" x="57.6" xlink:href="#m806882ddff" y="198.72"/>
      </g>
     </g>
     <g id="text_9">
      <!-- −0.00006 -->
      <g transform="translate(0.867188 202.519219)scale(0.1 -0.1)">
       <use xlink:href="#DejaVuSans-2212"/>
       <use x="83.789062" xlink:href="#DejaVuSans-30"/>
       <use x="147.412109" xlink:href="#DejaVuSans-2e"/>
       <use x="179.199219" xlink:href="#DejaVuSans-30"/>
       <use x="242.822266" xlink:href="#DejaVuSans-30"/>
       <use x="306.445312" xlink:href="#DejaVuSans-30"/>
       <use x="370.068359" xlink:href="#DejaVuSans-30"/>
       <use x="433.691406" xlink:href="#DejaVuSans-36"/>
      </g>
     </g>
    </g>
    <g id="ytick_4">
     <g id="line2d_17">
      <path clip-path="url(#p0a2a8fdae1)" d="M 57.6 150.336 
L 414.72 150.336 
" style="fill:none;stroke:#b0b0b0;stroke-linecap:square;stroke-width:0.8;"/>
     </g>
     <g id="line2d_18">
      <g>
       <use style="stroke:#000000;stroke-width:0.8;" x="57.6" xlink:href="#m806882ddff" y="150.336"/>
      </g>
     </g>
     <g id="text_10">
      <!-- −0.00004 -->
      <g transform="translate(0.867188 154.135219)scale(0.1 -0.1)">
       <use xlink:href="#DejaVuSans-2212"/>
       <use x="83.789062" xlink:href="#DejaVuSans-30"/>
       <use x="147.412109" xlink:href="#DejaVuSans-2e"/>
       <use x="179.199219" xlink:href="#DejaVuSans-30"/>
       <use x="242.822266" xlink:href="#DejaVuSans-30"/>
       <use x="306.445312" xlink:href="#DejaVuSans-30"/>
       <use x="370.068359" xlink:href="#DejaVuSans-30"/>
       <use x="433.691406" xlink:href="#DejaVuSans-34"/>
      </g>
     </g>
    </g>
    <g id="ytick_5">
     <g id="line2d_19">
      <path clip-path="url(#p0a2a8fdae1)" d="M 57.6 101.952 
L 414.72 101.952 
" style="fill:none;stroke:#b0b0b0;stroke-linecap:square;stroke-width:0.8;"/>
     </g>
     <g id="line2d_20">
      <g>
       <use style="stroke:#000000;stroke-width:0.8;" x="57.6" xlink:href="#m806882ddff" y="101.952"/>
      </g>
     </g>
     <g id="text_11">
      <!-- −0.00002 -->
      <g transform="translate(0.867188 105.751219)scale(0.1 -0.1)">
       <use xlink:href="#DejaVuSans-2212"/>
       <use x="83.789062" xlink:href="#DejaVuSans-30"/>
       <use x="147.412109" xlink:href="#DejaVuSans-2e"/>
       <use x="179.199219" xlink:href="#DejaVuSans-30"/>
       <use x="242.822266" xlink:href="#DejaVuSans-30"/>
       <use x="306.445312" xlink:href="#DejaVuSans-30"/>
       <use x="370.068359" xlink:href="#DejaVuSans-30"/>
       <use x="433.691406" xlink:href="#DejaVuSans-32"/>
      </g>
     </g>
    </g>
    <g id="ytick_6">
     <g id="line2d_21">
      <path clip-path="url(#p0a2a8fdae1)" d="M 57.6 53.568 
L 414.72 53.568 
" style="fill:none;stroke:#b0b0b0;stroke-linecap:square;stroke-width:0.8;"/>
     </g>
     <g id="line2d_22">
      <g>
       <use style="stroke:#000000;stroke-width:0.8;" x="57.6" xlink:href="#m806882ddff" y="53.568"/>
      </g>
     </g>
     <g id="text_12">
      <!-- 0.00000 -->
      <g transform="translate(9.246875 57.367219)scale(0.1 -0.1)">
       <use xlink:href="#DejaVuSans-30"/>
       <use x="63.623047" xlink:href="#DejaVuSans-2e"/>
       <use x="95.410156" xlink:href="#DejaVuSans-30"/>
       <use x="159.033203" xlink:href="#DejaVuSans-30"/>
       <use x="222.65625" xlink:href="#DejaVuSans-30"/>
       <use x="286.279297" xlink:href="#DejaVuSans-30"/>
       <use x="349.902344" xlink:href="#DejaVuSans-30"/>
      </g>
     </g>
    </g>
    <g id="text_13">
     <!-- Current (nA) -->
     <defs>
      <path d="M 64.40625 67.28125 
L 64.40625 56.890625 
Q 59.421875 61.53125 53.78125 63.8125 
Q 48.140625 66.109375 41.796875 66.109375 
Q 29.296875 66.109375 22.65625 58.46875 
Q 16.015625 50.828125 16.015625 36.375 
Q 16.015625 21.96875 22.65625 14.328125 
Q 29.296875 6.6875 41.796875 6.6875 
Q 48.140625 6.6875 53.78125 8.984375 
Q 59.421875 11.28125 64.40625 15.921875 
L 64.40625 5.609375 
Q 59.234375 2.09375 53.4375 0.328125 
Q 47.65625 -1.421875 41.21875 -1.421875 
Q 24.65625 -1.421875 15.125 8.703125 
Q 5.609375 18.84375 5.609375 36.375 
Q 5.609375 53.953125 15.125 64.078125 
Q 24.65625 74.21875 41.21875 74.21875 
Q 47.75 74.21875 53.53125 72.484375 
Q 59.328125 70.75 64.40625 67.28125 
z
" id="DejaVuSans-43"/>
      <path d="M 8.5 21.578125 
L 8.5 54.6875 
L 17.484375 54.6875 
L 17.484375 21.921875 
Q 17.484375 14.15625 20.5 10.265625 
Q 23.53125 6.390625 29.59375 6.390625 
Q 36.859375 6.390625 41.078125 11.03125 
Q 45.3125 15.671875 45.3125 23.6875 
L 45.3125 54.6875 
L 54.296875 54.6875 
L 54.296875 0 
L 45.3125 0 
L 45.3125 8.40625 
Q 42.046875 3.421875 37.71875 1 
Q 33.40625 -1.421875 27.6875 -1.421875 
Q 18.265625 -1.421875 13.375 4.4375 
Q 8.5 10.296875 8.5 21.578125 
z
M 31.109375 56 
z
" id="DejaVuSans-75"/>
      <path d="M 41.109375 46.296875 
Q 39.59375 47.171875 37.8125 47.578125 
Q 36.03125 48 33.890625 48 
Q 26.265625 48 22.1875 43.046875 
Q 18.109375 38.09375 18.109375 28.8125 
L 18.109375 0 
L 9.078125 0 
L 9.078125 54.6875 
L 18.109375 54.6875 
L 18.109375 46.1875 
Q 20.953125 51.171875 25.484375 53.578125 
Q 30.03125 56 36.53125 56 
Q 37.453125 56 38.578125 55.875 
Q 39.703125 55.765625 41.0625 55.515625 
z
" id="DejaVuSans-72"/>
      <path d="M 56.203125 29.59375 
L 56.203125 25.203125 
L 14.890625 25.203125 
Q 15.484375 15.921875 20.484375 11.0625 
Q 25.484375 6.203125 34.421875 6.203125 
Q 39.59375 6.203125 44.453125 7.46875 
Q 49.3125 8.734375 54.109375 11.28125 
L 54.109375 2.78125 
Q 49.265625 0.734375 44.1875 -0.34375 
Q 39.109375 -1.421875 33.890625 -1.421875 
Q 20.796875 -1.421875 13.15625 6.1875 
Q 5.515625 13.8125 5.515625 26.8125 
Q 5.515625 40.234375 12.765625 48.109375 
Q 20.015625 56 32.328125 56 
Q 43.359375 56 49.78125 48.890625 
Q 56.203125 41.796875 56.203125 29.59375 
z
M 47.21875 32.234375 
Q 47.125 39.59375 43.09375 43.984375 
Q 39.0625 48.390625 32.421875 48.390625 
Q 24.90625 48.390625 20.390625 44.140625 
Q 15.875 39.890625 15.1875 32.171875 
z
" id="DejaVuSans-65"/>
      <path d="M 54.890625 33.015625 
L 54.890625 0 
L 45.90625 0 
L 45.90625 32.71875 
Q 45.90625 40.484375 42.875 44.328125 
Q 39.84375 48.1875 33.796875 48.1875 
Q 26.515625 48.1875 22.3125 43.546875 
Q 18.109375 38.921875 18.109375 30.90625 
L 18.109375 0 
L 9.078125 0 
L 9.078125 54.6875 
L 18.109375 54.6875 
L 18.109375 46.1875 
Q 21.34375 51.125 25.703125 53.5625 
Q 30.078125 56 35.796875 56 
Q 45.21875 56 50.046875 50.171875 
Q 54.890625 44.34375 54.890625 33.015625 
z
" id="DejaVuSans-6e"/>
      <path id="DejaVuSans-20"/>
      <path d="M 34.1875 63.1875 
L 20.796875 26.90625 
L 47.609375 26.90625 
z
M 28.609375 72.90625 
L 39.796875 72.90625 
L 67.578125 0 
L 57.328125 0 
L 50.6875 18.703125 
L 17.828125 18.703125 
L 11.1875 0 
L 0.78125 0 
z
" id="DejaVuSans-41"/>
     </defs>
     <g transform="translate(-5.2125 205.581906)rotate(-90)scale(0.1 -0.1)">
      <use xlink:href="#DejaVuSans-43"/>
      <use x="69.824219" xlink:href="#DejaVuSans-75"/>
      <use x="133.203125" xlink:href="#DejaVuSans-72"/>
      <use x="174.300781" xlink:href="#DejaVuSans-72"/>
      <use x="215.382812" xlink:href="#DejaVuSans-65"/>
      <use x="276.90625" xlink:href="#DejaVuSans-6e"/>
      <use x="340.285156" xlink:href="#DejaVuSans-74"/>
      <use x="379.494141" xlink:href="#DejaVuSans-20"/>
      <use x="411.28125" xlink:href="#DejaVuSans-28"/>
      <use x="450.294922" xlink:href="#DejaVuSans-6e"/>
      <use x="513.673828" xlink:href="#DejaVuSans-41"/>
      <use x="582.082031" xlink:href="#DejaVuSans-29"/>
     </g>
    </g>
    <g id="text_14">
     <!-- +5e1 -->
     <defs>
      <path d="M 46 62.703125 
L 46 35.5 
L 73.1875 35.5 
L 73.1875 27.203125 
L 46 27.203125 
L 46 0 
L 37.796875 0 
L 37.796875 27.203125 
L 10.59375 27.203125 
L 10.59375 35.5 
L 37.796875 35.5 
L 37.796875 62.703125 
z
" id="DejaVuSans-2b"/>
      <path d="M 10.796875 72.90625 
L 49.515625 72.90625 
L 49.515625 64.59375 
L 19.828125 64.59375 
L 19.828125 46.734375 
Q 21.96875 47.46875 24.109375 47.828125 
Q 26.265625 48.1875 28.421875 48.1875 
Q 40.625 48.1875 47.75 41.5 
Q 54.890625 34.8125 54.890625 23.390625 
Q 54.890625 11.625 47.5625 5.09375 
Q 40.234375 -1.421875 26.90625 -1.421875 
Q 22.3125 -1.421875 17.546875 -0.640625 
Q 12.796875 0.140625 7.71875 1.703125 
L 7.71875 11.625 
Q 12.109375 9.234375 16.796875 8.0625 
Q 21.484375 6.890625 26.703125 6.890625 
Q 35.15625 6.890625 40.078125 11.328125 
Q 45.015625 15.765625 45.015625 23.390625 
Q 45.015625 31 40.078125 35.4375 
Q 35.15625 39.890625 26.703125 39.890625 
Q 22.75 39.890625 18.8125 39.015625 
Q 14.890625 38.140625 10.796875 36.28125 
z
" id="DejaVuSans-35"/>
     </defs>
     <g transform="translate(57.6 38.472)scale(0.1 -0.1)">
      <use xlink:href="#DejaVuSans-2b"/>
      <use x="83.789062" xlink:href="#DejaVuSans-35"/>
      <use x="147.412109" xlink:href="#DejaVuSans-65"/>
      <use x="208.935547" xlink:href="#DejaVuSans-31"/>
     </g>
    </g>
   </g>
   <g id="line2d_23">
    <path clip-path="url(#p0a2a8fdae1)" d="M 73.832727 295.488 
L 74.050224 295.488 
L 74.086293 53.568 
L 74.158791 295.488 
L 74.775211 295.488 
L 74.811641 53.568 
L 74.88414 295.488 
L 77.596892 295.488 
L 77.742251 53.568 
L 77.886887 295.488 
L 81.617869 295.488 
L 81.653938 53.568 
L 81.726076 295.488 
L 84.298159 295.488 
L 84.334589 53.568 
L 84.407088 295.488 
L 87.045899 295.488 
L 87.154827 53.568 
L 87.299464 295.488 
L 90.632604 295.488 
L 90.668673 53.568 
L 90.741533 295.488 
L 91.537937 295.488 
L 91.574367 53.568 
L 91.646505 295.488 
L 92.623254 295.488 
L 92.659323 53.568 
L 92.731462 295.488 
L 93.889278 295.488 
L 93.925708 53.568 
L 93.997846 295.488 
L 99.178803 295.488 
L 99.215232 53.568 
L 99.28737 295.488 
L 103.671923 295.488 
L 103.707992 53.568 
L 103.78013 295.488 
L 107.233019 295.488 
L 107.269088 53.568 
L 107.341948 295.488 
L 107.776219 295.488 
L 107.812649 53.568 
L 107.885148 295.488 
L 108.393 295.488 
L 108.429429 53.568 
L 108.501928 295.488 
L 111.002955 295.488 
L 111.039385 53.568 
L 111.111884 295.488 
L 114.696425 295.488 
L 114.732855 53.568 
L 114.805714 295.488 
L 115.095709 295.488 
L 115.131778 53.568 
L 115.203916 295.488 
L 115.891753 295.488 
L 115.928183 53.568 
L 116.000682 295.488 
L 117.883125 295.488 
L 117.919194 53.568 
L 117.991332 295.488 
L 118.751667 295.488 
L 118.787736 53.568 
L 118.860235 295.488 
L 119.584862 295.488 
L 119.621292 53.568 
L 119.69343 295.488 
L 120.236269 295.488 
L 120.272338 53.568 
L 120.344476 295.488 
L 120.705527 295.488 
L 120.741596 53.568 
L 120.814456 295.488 
L 122.010505 295.488 
L 122.046935 53.568 
L 122.119434 295.488 
L 122.33693 295.488 
L 122.37336 53.568 
L 122.446219 295.488 
L 123.169403 295.488 
L 123.205472 53.568 
L 123.27761 295.488 
L 123.712603 295.488 
L 123.749033 53.568 
L 123.821531 295.488 
L 126.170347 295.488 
L 126.206416 53.568 
L 126.279276 295.488 
L 127.548185 295.488 
L 127.584254 53.568 
L 127.656753 295.488 
L 127.80175 295.488 
L 127.83818 53.568 
L 127.910318 295.488 
L 133.235551 295.488 
L 133.27162 53.568 
L 133.343758 295.488 
L 133.63231 295.488 
L 133.668379 53.568 
L 133.740518 295.488 
L 136.311519 295.488 
L 136.347948 53.568 
L 136.420808 295.488 
L 138.631119 295.488 
L 138.667188 53.568 
L 138.739686 295.488 
L 140.044664 295.488 
L 140.081094 53.568 
L 140.153593 295.488 
L 140.225731 295.488 
L 140.2618 53.568 
L 140.333938 295.488 
L 141.854609 295.488 
L 141.891039 53.568 
L 141.963898 295.488 
L 144.209196 295.488 
L 144.245265 53.568 
L 144.317403 295.488 
L 144.49883 295.488 
L 144.53526 53.568 
L 144.607398 295.488 
L 146.270902 295.488 
L 146.307332 53.568 
L 146.380191 295.488 
L 150.764383 295.488 
L 150.800813 53.568 
L 150.873312 295.488 
L 151.053657 295.488 
L 151.089726 53.568 
L 151.162225 295.488 
L 151.416151 295.488 
L 151.45222 53.568 
L 151.524719 295.488 
L 152.503993 295.488 
L 152.540062 53.568 
L 152.612561 295.488 
L 155.546416 295.488 
L 155.582486 53.568 
L 155.654984 295.488 
L 157.211363 295.488 
L 157.247432 53.568 
L 157.319931 295.488 
L 158.335996 295.488 
L 158.372065 53.568 
L 158.444564 295.488 
L 159.712391 295.488 
L 159.74882 53.568 
L 159.821319 295.488 
L 166.162978 295.488 
L 166.199408 53.568 
L 166.271906 295.488 
L 168.695024 295.488 
L 168.731454 53.568 
L 168.803953 295.488 
L 169.637869 295.488 
L 169.673938 53.568 
L 169.746798 295.488 
L 170.289997 295.488 
L 170.326066 53.568 
L 170.398565 295.488 
L 177.749796 295.488 
L 177.786226 53.568 
L 177.858364 295.488 
L 178.837639 295.488 
L 178.874068 53.568 
L 178.946567 295.488 
L 180.325847 295.488 
L 180.361916 53.568 
L 180.434415 295.488 
L 181.736868 295.488 
L 181.772937 53.568 
L 181.845075 295.488 
L 186.00636 295.488 
L 186.04279 53.568 
L 186.115649 295.488 
L 186.658489 295.488 
L 186.694918 53.568 
L 186.767056 295.488 
L 187.020261 295.488 
L 187.056691 53.568 
L 187.12919 295.488 
L 188.214868 295.488 
L 188.250937 53.568 
L 188.323075 295.488 
L 188.53985 295.488 
L 188.575919 53.568 
L 188.648417 295.488 
L 188.938052 295.488 
L 188.974482 53.568 
L 189.04698 295.488 
L 189.915884 295.488 
L 189.951953 53.568 
L 190.024451 295.488 
L 190.097311 295.488 
L 190.13338 53.568 
L 190.205879 295.488 
L 190.423736 295.488 
L 190.459805 53.568 
L 190.532303 295.488 
L 192.309064 295.488 
L 192.454062 53.568 
L 192.599059 295.488 
L 192.888694 295.488 
L 192.925124 53.568 
L 192.997262 295.488 
L 194.15616 295.488 
L 194.192229 53.568 
L 194.264367 295.488 
L 194.554362 295.488 
L 194.590431 53.568 
L 194.662569 295.488 
L 194.698638 295.488 
L 194.734707 53.568 
L 194.806845 295.488 
L 194.987191 295.488 
L 195.02326 53.568 
L 195.095758 295.488 
L 195.277186 295.488 
L 195.313255 53.568 
L 195.385393 295.488 
L 197.161072 295.488 
L 197.197501 53.568 
L 197.27 295.488 
L 197.342138 295.488 
L 197.378568 53.568 
L 197.451067 295.488 
L 198.139625 295.488 
L 198.175694 53.568 
L 198.247832 295.488 
L 198.610686 295.488 
L 198.647116 53.568 
L 198.719615 295.488 
L 200.60278 295.488 
L 200.639209 53.568 
L 200.711708 295.488 
L 201.037051 295.488 
L 201.07312 53.568 
L 201.145979 295.488 
L 201.871688 295.488 
L 201.907757 53.568 
L 201.979895 295.488 
L 203.93592 295.488 
L 204.044487 53.568 
L 204.189124 295.488 
L 210.697422 295.488 
L 210.733491 53.568 
L 210.805629 295.488 
L 214.240123 295.488 
L 214.276553 53.568 
L 214.349051 295.488 
L 214.637964 295.488 
L 214.674034 53.568 
L 214.746532 295.488 
L 215.072957 295.488 
L 215.109026 53.568 
L 215.181525 295.488 
L 216.33862 295.488 
L 216.410758 53.568 
L 216.446827 295.488 
L 219.049569 295.488 
L 219.085638 53.568 
L 219.158137 295.488 
L 221.761961 295.488 
L 221.79803 53.568 
L 221.870168 295.488 
L 222.050513 295.488 
L 222.086582 53.568 
L 222.15872 295.488 
L 223.49616 295.488 
L 223.532229 53.568 
L 223.604367 295.488 
L 224.182914 295.488 
L 224.218984 53.568 
L 224.291122 295.488 
L 224.36326 295.488 
L 224.399329 53.568 
L 224.471467 295.488 
L 225.556063 295.488 
L 225.592493 53.568 
L 225.664631 295.488 
L 226.459592 295.488 
L 226.495661 53.568 
L 226.567799 295.488 
L 227.036697 295.488 
L 227.072766 53.568 
L 227.144904 295.488 
L 228.482705 295.488 
L 228.518774 53.568 
L 228.591273 295.488 
L 228.663771 295.488 
L 228.69984 53.568 
L 228.772339 295.488 
L 233.869616 295.488 
L 233.905685 53.568 
L 233.977823 295.488 
L 234.266375 295.488 
L 234.302444 53.568 
L 234.374582 295.488 
L 234.771342 295.488 
L 234.807411 53.568 
L 234.879549 295.488 
L 234.951687 295.488 
L 234.987756 53.568 
L 235.060616 295.488 
L 235.748452 295.488 
L 235.857741 53.568 
L 236.0031 295.488 
L 238.21305 295.488 
L 238.249479 53.568 
L 238.321978 295.488 
L 239.26338 295.488 
L 239.29981 53.568 
L 239.372309 295.488 
L 239.842649 295.488 
L 239.878718 53.568 
L 239.951578 295.488 
L 240.422639 295.488 
L 240.494777 53.568 
L 240.530846 295.488 
L 243.427912 295.488 
L 243.463981 53.568 
L 243.53684 295.488 
L 243.717907 295.488 
L 243.754336 53.568 
L 243.826835 295.488 
L 244.912513 295.488 
L 244.948943 53.568 
L 245.021802 295.488 
L 245.544443 295.488 
L 245.580512 53.568 
L 245.653371 295.488 
L 246.160141 295.488 
L 246.196571 53.568 
L 246.268709 295.488 
L 246.414067 295.488 
L 246.450497 53.568 
L 246.522635 295.488 
L 247.029045 295.488 
L 247.065474 53.568 
L 247.137973 295.488 
L 247.827252 295.488 
L 247.863682 53.568 
L 247.936181 295.488 
L 249.202565 295.488 
L 249.238634 53.568 
L 249.311493 295.488 
L 249.673627 295.488 
L 249.745765 53.568 
L 249.781834 295.488 
L 250.723596 295.488 
L 250.760026 53.568 
L 250.832525 295.488 
L 250.977162 295.488 
L 251.013591 53.568 
L 251.08609 295.488 
L 254.202095 295.488 
L 254.274593 53.568 
L 254.310662 295.488 
L 255.6885 295.488 
L 255.724569 53.568 
L 255.797068 295.488 
L 256.775981 295.488 
L 256.848119 53.568 
L 256.884549 295.488 
L 259.781614 295.488 
L 259.818044 53.568 
L 259.890543 295.488 
L 264.346151 295.488 
L 264.382221 53.568 
L 264.454719 295.488 
L 267.891377 295.488 
L 267.999585 53.568 
L 268.143861 295.488 
L 268.397426 295.488 
L 268.433856 53.568 
L 268.506355 295.488 
L 269.630266 295.488 
L 269.666335 53.568 
L 269.739194 295.488 
L 271.225239 295.488 
L 271.261308 53.568 
L 271.333446 295.488 
L 272.672689 295.488 
L 272.781257 53.568 
L 272.926255 295.488 
L 278.923815 295.488 
L 278.960244 53.568 
L 279.032383 295.488 
L 279.14059 295.488 
L 279.176659 53.568 
L 279.248797 295.488 
L 279.646638 295.488 
L 279.683068 53.568 
L 279.755928 295.488 
L 281.275877 295.488 
L 281.348376 53.568 
L 281.384805 295.488 
L 281.782286 295.488 
L 281.818355 53.568 
L 281.890493 295.488 
L 282.251184 295.488 
L 282.287613 53.568 
L 282.360112 295.488 
L 284.710371 295.488 
L 284.746801 53.568 
L 284.818939 295.488 
L 290.024783 295.488 
L 290.060852 53.568 
L 290.13299 295.488 
L 293.781734 295.488 
L 293.817803 53.568 
L 293.889942 295.488 
L 294.106356 295.488 
L 294.250632 53.568 
L 294.394908 295.488 
L 294.973816 295.488 
L 295.010246 53.568 
L 295.082384 295.488 
L 295.697722 295.488 
L 295.76986 53.568 
L 295.805929 295.488 
L 296.63696 295.488 
L 296.673029 53.568 
L 296.745167 295.488 
L 296.889443 295.488 
L 296.925512 53.568 
L 296.99765 295.488 
L 297.576198 295.488 
L 297.612267 53.568 
L 297.684405 295.488 
L 298.369716 295.488 
L 298.405785 53.568 
L 298.478284 295.488 
L 299.020402 295.488 
L 299.056471 53.568 
L 299.130052 295.488 
L 300.431423 295.488 
L 300.467492 53.568 
L 300.53963 295.488 
L 301.261011 295.488 
L 301.29708 53.568 
L 301.369218 295.488 
L 301.983474 295.488 
L 302.019903 53.568 
L 302.092041 295.488 
L 302.345607 295.488 
L 302.454174 53.568 
L 302.599172 295.488 
L 303.64842 295.488 
L 303.68449 53.568 
L 303.756988 295.488 
L 303.793057 295.488 
L 303.829126 53.568 
L 303.901264 295.488 
L 305.383341 295.488 
L 305.419771 53.568 
L 305.49227 295.488 
L 306.398324 295.488 
L 306.434754 53.568 
L 306.506892 295.488 
L 306.542961 295.488 
L 306.57903 53.568 
L 306.651168 295.488 
L 306.941524 295.488 
L 306.977593 53.568 
L 307.050092 295.488 
L 307.810066 295.488 
L 307.955064 53.568 
L 308.099701 295.488 
L 308.13613 295.488 
L 308.17256 53.568 
L 308.245059 295.488 
L 308.461834 295.488 
L 308.534693 53.568 
L 308.571123 295.488 
L 310.848162 295.488 
L 310.884231 53.568 
L 310.956729 295.488 
L 311.969187 295.488 
L 312.077394 53.568 
L 312.221671 295.488 
L 312.835926 295.488 
L 312.872356 53.568 
L 312.944494 295.488 
L 313.235211 295.488 
L 313.27164 53.568 
L 313.344139 295.488 
L 313.707354 295.488 
L 313.743423 53.568 
L 313.815922 295.488 
L 314.177695 295.488 
L 314.214124 53.568 
L 314.286262 295.488 
L 314.359122 295.488 
L 314.395552 53.568 
L 314.46805 295.488 
L 315.553729 295.488 
L 315.662296 53.568 
L 315.806933 295.488 
L 317.509392 295.488 
L 317.545461 53.568 
L 317.61796 295.488 
L 318.269727 295.488 
L 318.305796 53.568 
L 318.377934 295.488 
L 318.920413 295.488 
L 318.993272 53.568 
L 319.029702 295.488 
L 319.282546 295.488 
L 319.391474 53.568 
L 319.536472 295.488 
L 320.368945 295.488 
L 320.441805 53.568 
L 320.478235 295.488 
L 320.659662 295.488 
L 320.695731 53.568 
L 320.76823 295.488 
L 320.948936 295.488 
L 321.021074 53.568 
L 321.057143 295.488 
L 321.672481 295.488 
L 321.781409 53.568 
L 321.925685 295.488 
L 321.962115 295.488 
L 321.998545 53.568 
L 322.071404 295.488 
L 322.397468 295.488 
L 322.506397 53.568 
L 322.651394 295.488 
L 323.231024 295.488 
L 323.375661 53.568 
L 323.521019 295.488 
L 323.593518 295.488 
L 323.629587 53.568 
L 323.701725 295.488 
L 323.991359 295.488 
L 324.027789 53.568 
L 324.100288 295.488 
L 324.679196 295.488 
L 324.715625 53.568 
L 324.788124 295.488 
L 324.860262 295.488 
L 324.896331 53.568 
L 324.96883 295.488 
L 325.04169 295.488 
L 325.077759 53.568 
L 325.150257 295.488 
L 325.258465 295.488 
L 325.331324 53.568 
L 325.367754 295.488 
L 325.403823 295.488 
L 325.439892 53.568 
L 325.512391 295.488 
L 326.273808 295.488 
L 326.310238 53.568 
L 326.382376 295.488 
L 326.599872 295.488 
L 326.635941 53.568 
L 326.70844 295.488 
L 326.852716 295.488 
L 326.888785 53.568 
L 326.961645 295.488 
L 327.214849 295.488 
L 327.250918 53.568 
L 327.323056 295.488 
L 327.431985 295.488 
L 327.468415 53.568 
L 327.540913 295.488 
L 327.68519 295.488 
L 327.721259 53.568 
L 327.793757 295.488 
L 328.26518 295.488 
L 328.301249 53.568 
L 328.373387 295.488 
L 329.133722 295.488 
L 329.170152 53.568 
L 329.243011 295.488 
L 329.351218 295.488 
L 329.423717 53.568 
L 329.459786 295.488 
L 329.531924 295.488 
L 329.640132 53.568 
L 329.784408 295.488 
L 330.038694 295.488 
L 330.183331 53.568 
L 330.327968 295.488 
L 330.509395 295.488 
L 330.545825 53.568 
L 330.618324 295.488 
L 331.195428 295.488 
L 331.231498 53.568 
L 331.303636 295.488 
L 331.847557 295.488 
L 331.883626 53.568 
L 331.956125 295.488 
L 332.137552 295.488 
L 332.173621 53.568 
L 332.24648 295.488 
L 332.572905 295.488 
L 332.717542 53.568 
L 332.86254 295.488 
L 333.622875 295.488 
L 333.767873 53.568 
L 333.91287 295.488 
L 333.985369 53.568 
L 334.021438 295.488 
L 334.130006 295.488 
L 334.202865 53.568 
L 334.239295 295.488 
L 334.456791 295.488 
L 334.601789 53.568 
L 334.637858 53.568 
L 334.783216 295.488 
L 334.964643 295.488 
L 335.109641 53.568 
L 335.254999 295.488 
L 335.327498 295.488 
L 335.363567 53.568 
L 335.436066 295.488 
L 335.472495 295.488 
L 335.508925 53.568 
L 335.581424 295.488 
L 335.653562 295.488 
L 335.762851 53.568 
L 335.907488 295.488 
L 336.992084 295.488 
L 337.028153 53.568 
L 337.100652 295.488 
L 337.354578 295.488 
L 337.390647 53.568 
L 337.463506 295.488 
L 337.536005 295.488 
L 337.572435 53.568 
L 337.644573 295.488 
L 337.826 295.488 
L 337.862069 53.568 
L 337.934568 295.488 
L 337.970637 295.488 
L 338.043497 53.568 
L 338.079926 295.488 
L 338.29634 295.488 
L 338.33241 53.568 
L 338.404548 295.488 
L 338.440977 295.488 
L 338.477046 53.568 
L 338.549545 295.488 
L 338.83954 295.488 
L 338.875609 53.568 
L 338.948108 295.488 
L 339.093106 295.488 
L 339.129535 53.568 
L 339.202034 295.488 
L 339.707722 295.488 
L 339.744152 53.568 
L 339.817011 295.488 
L 340.287712 295.488 
L 340.323781 53.568 
L 340.395919 295.488 
L 340.902329 295.488 
L 341.046966 53.568 
L 341.192324 295.488 
L 341.626956 295.488 
L 341.663385 53.568 
L 341.735884 295.488 
L 342.749424 295.488 
L 342.785493 53.568 
L 342.858353 295.488 
L 342.966921 295.488 
L 343.00335 53.568 
L 343.075849 295.488 
L 343.184417 295.488 
L 343.256916 53.568 
L 343.292985 295.488 
L 343.329054 295.488 
L 343.365123 53.568 
L 343.437261 295.488 
L 343.509399 295.488 
L 343.545468 53.568 
L 343.617606 295.488 
L 344.342594 295.488 
L 344.379023 53.568 
L 344.451522 295.488 
L 344.669019 295.488 
L 344.741517 53.568 
L 344.777586 295.488 
L 345.536479 295.488 
L 345.572548 53.568 
L 345.644686 295.488 
L 346.587531 295.488 
L 346.732528 53.568 
L 346.805027 295.488 
L 346.841457 53.568 
L 346.877887 53.568 
L 347.022523 295.488 
L 347.892148 295.488 
L 347.928217 53.568 
L 348.000716 295.488 
L 348.036785 295.488 
L 348.109644 53.568 
L 348.146074 295.488 
L 348.218933 295.488 
L 348.255003 53.568 
L 348.327501 295.488 
L 349.159253 295.488 
L 349.195322 53.568 
L 349.267821 295.488 
L 349.666384 295.488 
L 349.702814 53.568 
L 349.775313 295.488 
L 349.884241 295.488 
L 349.92031 53.568 
L 349.992809 295.488 
L 350.065308 295.488 
L 350.101377 53.568 
L 350.173515 295.488 
L 350.971723 295.488 
L 351.080651 53.568 
L 351.225649 295.488 
L 352.675263 295.488 
L 352.711332 53.568 
L 352.78347 295.488 
L 353.035954 295.488 
L 353.072023 53.568 
L 353.144882 295.488 
L 353.217381 295.488 
L 353.25345 53.568 
L 353.325949 295.488 
L 353.940565 295.488 
L 353.976995 53.568 
L 354.049855 295.488 
L 354.556625 295.488 
L 354.592694 53.568 
L 354.665192 295.488 
L 355.028047 295.488 
L 355.064116 53.568 
L 355.136615 295.488 
L 355.31696 295.488 
L 355.35339 53.568 
L 355.426249 295.488 
L 355.93374 295.488 
L 356.006239 53.568 
L 356.042308 295.488 
L 360.244712 295.488 
L 360.281142 53.568 
L 360.35328 295.488 
L 360.425779 295.488 
L 360.461848 53.568 
L 360.533986 295.488 
L 360.751843 295.488 
L 360.787912 53.568 
L 360.86005 295.488 
L 361.186114 295.488 
L 361.222183 53.568 
L 361.295043 295.488 
L 362.128237 295.488 
L 362.164306 53.568 
L 362.236445 295.488 
L 362.852143 295.488 
L 362.99678 53.568 
L 363.141417 295.488 
L 364.734947 295.488 
L 364.879945 53.568 
L 365.025663 295.488 
L 365.677431 295.488 
L 365.713861 53.568 
L 365.78672 295.488 
L 366.113145 295.488 
L 366.149214 53.568 
L 366.221713 295.488 
L 366.257782 295.488 
L 366.40314 53.568 
L 366.547777 295.488 
L 366.620276 295.488 
L 366.656705 53.568 
L 366.729204 295.488 
L 367.48954 295.488 
L 367.525609 53.568 
L 367.598107 295.488 
L 367.707036 295.488 
L 367.815604 53.568 
L 367.960601 295.488 
L 368.64952 295.488 
L 368.758088 53.568 
L 368.903446 295.488 
L 369.955219 295.488 
L 369.991288 53.568 
L 370.063426 295.488 
L 370.099495 295.488 
L 370.135564 53.568 
L 370.207702 295.488 
L 370.424838 295.488 
L 370.497337 53.568 
L 370.533406 295.488 
L 371.040176 295.488 
L 371.076606 53.568 
L 371.149104 295.488 
L 371.221243 295.488 
L 371.258033 53.568 
L 371.330532 295.488 
L 372.522974 295.488 
L 372.631903 53.568 
L 372.740831 295.488 
L 372.7769 53.568 
L 372.849399 295.488 
L 372.958327 295.488 
L 372.995118 53.568 
L 373.067256 295.488 
L 373.247962 295.488 
L 373.35689 53.568 
L 373.501888 295.488 
L 373.574747 295.488 
L 373.610816 53.568 
L 373.683315 295.488 
L 374.264387 295.488 
L 374.300456 53.568 
L 374.372955 295.488 
L 374.518313 295.488 
L 374.554383 53.568 
L 374.626881 295.488 
L 374.880447 295.488 
L 374.916876 53.568 
L 374.989014 295.488 
L 375.16936 295.488 
L 375.205429 53.568 
L 375.277567 295.488 
L 375.531493 295.488 
L 375.567562 53.568 
L 375.6397 295.488 
L 376.074332 295.488 
L 376.110401 53.568 
L 376.18326 295.488 
L 376.21969 295.488 
L 376.255759 53.568 
L 376.327897 295.488 
L 378.24677 295.488 
L 378.282839 53.568 
L 378.355338 295.488 
L 378.573556 295.488 
L 378.609985 53.568 
L 378.682123 295.488 
L 379.00927 295.488 
L 379.045699 53.568 
L 379.118198 295.488 
L 379.480331 295.488 
L 379.5164 53.568 
L 379.588538 295.488 
L 380.132099 295.488 
L 380.168529 53.568 
L 380.240667 295.488 
L 380.529219 295.488 
L 380.565288 53.568 
L 380.637426 295.488 
L 380.709925 295.488 
L 380.746355 53.568 
L 380.818853 295.488 
L 380.891352 295.488 
L 380.927421 53.568 
L 380.999559 295.488 
L 381.325263 295.488 
L 381.4699 53.568 
L 381.614176 295.488 
L 381.759534 295.488 
L 381.795603 53.568 
L 381.867741 295.488 
L 381.904171 295.488 
L 381.94024 53.568 
L 382.012378 295.488 
L 382.084877 295.488 
L 382.121306 53.568 
L 382.193805 295.488 
L 382.302373 295.488 
L 382.338803 53.568 
L 382.411662 295.488 
L 384.730541 295.488 
L 384.76661 53.568 
L 384.839469 295.488 
L 385.310531 295.488 
L 385.3466 53.568 
L 385.419099 295.488 
L 385.746245 295.488 
L 385.782314 53.568 
L 385.854452 295.488 
L 386.144447 295.488 
L 386.288723 53.568 
L 386.434082 295.488 
L 386.978363 295.488 
L 387.014432 53.568 
L 387.08657 295.488 
L 387.339054 295.488 
L 387.375123 53.568 
L 387.447261 295.488 
L 388.569369 295.488 
L 388.605438 53.568 
L 388.677576 295.488 
L 388.750075 295.488 
L 388.786144 53.568 
L 388.858282 295.488 
L 390.0904 295.488 
L 390.126469 53.568 
L 390.198968 295.488 
L 390.380395 295.488 
L 390.416464 53.568 
L 390.488602 295.488 
L 390.778597 295.488 
L 390.814666 53.568 
L 390.886805 295.488 
L 391.536769 295.488 
L 391.573198 53.568 
L 391.645697 295.488 
L 391.681766 295.488 
L 391.717835 53.568 
L 391.790334 295.488 
L 392.406032 295.488 
L 392.478531 53.568 
L 392.5146 295.488 
L 392.804235 295.488 
L 392.840304 53.568 
L 392.912442 295.488 
L 392.98458 295.488 
L 393.020649 53.568 
L 393.093148 295.488 
L 393.310644 295.488 
L 393.346713 53.568 
L 393.419212 295.488 
L 393.818135 295.488 
L 393.926703 53.568 
L 394.071701 295.488 
L 394.1442 295.488 
L 394.180629 53.568 
L 394.252767 295.488 
L 394.360975 295.488 
L 394.469182 53.568 
L 394.54132 295.488 
L 394.577389 53.568 
L 394.613458 53.568 
L 394.758455 295.488 
L 395.699857 295.488 
L 395.736287 53.568 
L 395.809147 295.488 
L 395.845216 295.488 
L 395.953783 53.568 
L 396.025921 295.488 
L 396.06199 53.568 
L 396.09842 53.568 
L 396.243778 295.488 
L 397.510523 295.488 
L 397.546592 53.568 
L 397.61873 295.488 
L 397.836227 295.488 
L 397.872296 53.568 
L 397.944794 295.488 
L 398.487273 295.488 
L 398.487273 295.488 
" style="fill:none;stroke:#1f77b4;stroke-linecap:square;stroke-width:1.5;"/>
   </g>
   <g id="patch_3">
    <path d="M 57.6 307.584 
L 57.6 41.472 
" style="fill:none;stroke:#000000;stroke-linecap:square;stroke-linejoin:miter;stroke-width:0.8;"/>
   </g>
   <g id="patch_4">
    <path d="M 414.72 307.584 
L 414.72 41.472 
" style="fill:none;stroke:#000000;stroke-linecap:square;stroke-linejoin:miter;stroke-width:0.8;"/>
   </g>
   <g id="patch_5">
    <path d="M 57.6 307.584 
L 414.72 307.584 
" style="fill:none;stroke:#000000;stroke-linecap:square;stroke-linejoin:miter;stroke-width:0.8;"/>
   </g>
   <g id="patch_6">
    <path d="M 57.6 41.472 
L 414.72 41.472 
" style="fill:none;stroke:#000000;stroke-linecap:square;stroke-linejoin:miter;stroke-width:0.8;"/>
   </g>
   <g id="text_15">
    <!-- Current -->
    <g transform="translate(213.390938 35.472)scale(0.12 -0.12)">
     <use xlink:href="#DejaVuSans-43"/>
     <use x="69.824219" xlink:href="#DejaVuSans-75"/>
     <use x="133.203125" xlink:href="#DejaVuSans-72"/>
     <use x="174.300781" xlink:href="#DejaVuSans-72"/>
     <use x="215.382812" xlink:href="#DejaVuSans-65"/>
     <use x="276.90625" xlink:href="#DejaVuSans-6e"/>
     <use x="340.285156" xlink:href="#DejaVuSans-74"/>
    </g>
   </g>
  </g>
 </g>
 <defs>
  <clipPath id="p0a2a8fdae1">
   <rect height="266.112" width="357.12" x="57.6" y="41.472"/>
  </clipPath>
 </defs>
</svg>
