<?xml version="1.0" encoding="utf-8" standalone="no"?>
<!DOCTYPE svg PUBLIC "-//W3C//DTD SVG 1.1//EN"
  "http://www.w3.org/Graphics/SVG/1.1/DTD/svg11.dtd">
<!-- Created with matplotlib (http://matplotlib.org/) -->
<svg height="345pt" version="1.1" viewBox="0 0 460 345" width="460pt" xmlns="http://www.w3.org/2000/svg" xmlns:xlink="http://www.w3.org/1999/xlink">
 <defs>
  <style type="text/css">
*{stroke-linecap:butt;stroke-linejoin:round;}
  </style>
 </defs>
 <g id="figure_1">
  <g id="patch_1">
   <path d="M 0 345.6 
L 460.8 345.6 
L 460.8 0 
L 0 0 
z
" style="fill:#ffffff;"/>
  </g>
  <g id="axes_1">
   <g id="patch_2">
    <path d="M 57.6 307.584 
L 414.72 307.584 
L 414.72 41.472 
L 57.6 41.472 
z
" style="fill:#ffffff;"/>
   </g>
   <g id="matplotlib.axis_1">
    <g id="xtick_1">
     <g id="line2d_1">
      <path clip-path="url(#p91ff1c0650)" d="M 57.6 307.584 
L 57.6 41.472 
" style="fill:none;stroke:#b0b0b0;stroke-linecap:square;stroke-width:0.8;"/>
     </g>
     <g id="line2d_2">
      <defs>
       <path d="M 0 0 
L 0 3.5 
" id="me5a47a5770" style="stroke:#000000;stroke-width:0.8;"/>
      </defs>
      <g>
       <use style="stroke:#000000;stroke-width:0.8;" x="57.6" xlink:href="#me5a47a5770" y="307.584"/>
      </g>
     </g>
     <g id="text_1">
      <!-- 4400 -->
      <defs>
       <path d="M 37.796875 64.3125 
L 12.890625 25.390625 
L 37.796875 25.390625 
z
M 35.203125 72.90625 
L 47.609375 72.90625 
L 47.609375 25.390625 
L 58.015625 25.390625 
L 58.015625 17.1875 
L 47.609375 17.1875 
L 47.609375 0 
L 37.796875 0 
L 37.796875 17.1875 
L 4.890625 17.1875 
L 4.890625 26.703125 
z
" id="DejaVuSans-34"/>
       <path d="M 31.78125 66.40625 
Q 24.171875 66.40625 20.328125 58.90625 
Q 16.5 51.421875 16.5 36.375 
Q 16.5 21.390625 20.328125 13.890625 
Q 24.171875 6.390625 31.78125 6.390625 
Q 39.453125 6.390625 43.28125 13.890625 
Q 47.125 21.390625 47.125 36.375 
Q 47.125 51.421875 43.28125 58.90625 
Q 39.453125 66.40625 31.78125 66.40625 
z
M 31.78125 74.21875 
Q 44.046875 74.21875 50.515625 64.515625 
Q 56.984375 54.828125 56.984375 36.375 
Q 56.984375 17.96875 50.515625 8.265625 
Q 44.046875 -1.421875 31.78125 -1.421875 
Q 19.53125 -1.421875 13.0625 8.265625 
Q 6.59375 17.96875 6.59375 36.375 
Q 6.59375 54.828125 13.0625 64.515625 
Q 19.53125 74.21875 31.78125 74.21875 
z
" id="DejaVuSans-30"/>
      </defs>
      <g transform="translate(44.875 322.182437)scale(0.1 -0.1)">
       <use xlink:href="#DejaVuSans-34"/>
       <use x="63.623047" xlink:href="#DejaVuSans-34"/>
       <use x="127.246094" xlink:href="#DejaVuSans-30"/>
       <use x="190.869141" xlink:href="#DejaVuSans-30"/>
      </g>
     </g>
    </g>
    <g id="xtick_2">
     <g id="line2d_3">
      <path clip-path="url(#p91ff1c0650)" d="M 108.617143 307.584 
L 108.617143 41.472 
" style="fill:none;stroke:#b0b0b0;stroke-linecap:square;stroke-width:0.8;"/>
     </g>
     <g id="line2d_4">
      <g>
       <use style="stroke:#000000;stroke-width:0.8;" x="108.617143" xlink:href="#me5a47a5770" y="307.584"/>
      </g>
     </g>
     <g id="text_2">
      <!-- 4500 -->
      <defs>
       <path d="M 10.796875 72.90625 
L 49.515625 72.90625 
L 49.515625 64.59375 
L 19.828125 64.59375 
L 19.828125 46.734375 
Q 21.96875 47.46875 24.109375 47.828125 
Q 26.265625 48.1875 28.421875 48.1875 
Q 40.625 48.1875 47.75 41.5 
Q 54.890625 34.8125 54.890625 23.390625 
Q 54.890625 11.625 47.5625 5.09375 
Q 40.234375 -1.421875 26.90625 -1.421875 
Q 22.3125 -1.421875 17.546875 -0.640625 
Q 12.796875 0.140625 7.71875 1.703125 
L 7.71875 11.625 
Q 12.109375 9.234375 16.796875 8.0625 
Q 21.484375 6.890625 26.703125 6.890625 
Q 35.15625 6.890625 40.078125 11.328125 
Q 45.015625 15.765625 45.015625 23.390625 
Q 45.015625 31 40.078125 35.4375 
Q 35.15625 39.890625 26.703125 39.890625 
Q 22.75 39.890625 18.8125 39.015625 
Q 14.890625 38.140625 10.796875 36.28125 
z
" id="DejaVuSans-35"/>
      </defs>
      <g transform="translate(95.892143 322.182437)scale(0.1 -0.1)">
       <use xlink:href="#DejaVuSans-34"/>
       <use x="63.623047" xlink:href="#DejaVuSans-35"/>
       <use x="127.246094" xlink:href="#DejaVuSans-30"/>
       <use x="190.869141" xlink:href="#DejaVuSans-30"/>
      </g>
     </g>
    </g>
    <g id="xtick_3">
     <g id="line2d_5">
      <path clip-path="url(#p91ff1c0650)" d="M 159.634286 307.584 
L 159.634286 41.472 
" style="fill:none;stroke:#b0b0b0;stroke-linecap:square;stroke-width:0.8;"/>
     </g>
     <g id="line2d_6">
      <g>
       <use style="stroke:#000000;stroke-width:0.8;" x="159.634286" xlink:href="#me5a47a5770" y="307.584"/>
      </g>
     </g>
     <g id="text_3">
      <!-- 4600 -->
      <defs>
       <path d="M 33.015625 40.375 
Q 26.375 40.375 22.484375 35.828125 
Q 18.609375 31.296875 18.609375 23.390625 
Q 18.609375 15.53125 22.484375 10.953125 
Q 26.375 6.390625 33.015625 6.390625 
Q 39.65625 6.390625 43.53125 10.953125 
Q 47.40625 15.53125 47.40625 23.390625 
Q 47.40625 31.296875 43.53125 35.828125 
Q 39.65625 40.375 33.015625 40.375 
z
M 52.59375 71.296875 
L 52.59375 62.3125 
Q 48.875 64.0625 45.09375 64.984375 
Q 41.3125 65.921875 37.59375 65.921875 
Q 27.828125 65.921875 22.671875 59.328125 
Q 17.53125 52.734375 16.796875 39.40625 
Q 19.671875 43.65625 24.015625 45.921875 
Q 28.375 48.1875 33.59375 48.1875 
Q 44.578125 48.1875 50.953125 41.515625 
Q 57.328125 34.859375 57.328125 23.390625 
Q 57.328125 12.15625 50.6875 5.359375 
Q 44.046875 -1.421875 33.015625 -1.421875 
Q 20.359375 -1.421875 13.671875 8.265625 
Q 6.984375 17.96875 6.984375 36.375 
Q 6.984375 53.65625 15.1875 63.9375 
Q 23.390625 74.21875 37.203125 74.21875 
Q 40.921875 74.21875 44.703125 73.484375 
Q 48.484375 72.75 52.59375 71.296875 
z
" id="DejaVuSans-36"/>
      </defs>
      <g transform="translate(146.909286 322.182437)scale(0.1 -0.1)">
       <use xlink:href="#DejaVuSans-34"/>
       <use x="63.623047" xlink:href="#DejaVuSans-36"/>
       <use x="127.246094" xlink:href="#DejaVuSans-30"/>
       <use x="190.869141" xlink:href="#DejaVuSans-30"/>
      </g>
     </g>
    </g>
    <g id="xtick_4">
     <g id="line2d_7">
      <path clip-path="url(#p91ff1c0650)" d="M 210.651429 307.584 
L 210.651429 41.472 
" style="fill:none;stroke:#b0b0b0;stroke-linecap:square;stroke-width:0.8;"/>
     </g>
     <g id="line2d_8">
      <g>
       <use style="stroke:#000000;stroke-width:0.8;" x="210.651429" xlink:href="#me5a47a5770" y="307.584"/>
      </g>
     </g>
     <g id="text_4">
      <!-- 4700 -->
      <defs>
       <path d="M 8.203125 72.90625 
L 55.078125 72.90625 
L 55.078125 68.703125 
L 28.609375 0 
L 18.3125 0 
L 43.21875 64.59375 
L 8.203125 64.59375 
z
" id="DejaVuSans-37"/>
      </defs>
      <g transform="translate(197.926429 322.182437)scale(0.1 -0.1)">
       <use xlink:href="#DejaVuSans-34"/>
       <use x="63.623047" xlink:href="#DejaVuSans-37"/>
       <use x="127.246094" xlink:href="#DejaVuSans-30"/>
       <use x="190.869141" xlink:href="#DejaVuSans-30"/>
      </g>
     </g>
    </g>
    <g id="xtick_5">
     <g id="line2d_9">
      <path clip-path="url(#p91ff1c0650)" d="M 261.668571 307.584 
L 261.668571 41.472 
" style="fill:none;stroke:#b0b0b0;stroke-linecap:square;stroke-width:0.8;"/>
     </g>
     <g id="line2d_10">
      <g>
       <use style="stroke:#000000;stroke-width:0.8;" x="261.668571" xlink:href="#me5a47a5770" y="307.584"/>
      </g>
     </g>
     <g id="text_5">
      <!-- 4800 -->
      <defs>
       <path d="M 31.78125 34.625 
Q 24.75 34.625 20.71875 30.859375 
Q 16.703125 27.09375 16.703125 20.515625 
Q 16.703125 13.921875 20.71875 10.15625 
Q 24.75 6.390625 31.78125 6.390625 
Q 38.8125 6.390625 42.859375 10.171875 
Q 46.921875 13.96875 46.921875 20.515625 
Q 46.921875 27.09375 42.890625 30.859375 
Q 38.875 34.625 31.78125 34.625 
z
M 21.921875 38.8125 
Q 15.578125 40.375 12.03125 44.71875 
Q 8.5 49.078125 8.5 55.328125 
Q 8.5 64.0625 14.71875 69.140625 
Q 20.953125 74.21875 31.78125 74.21875 
Q 42.671875 74.21875 48.875 69.140625 
Q 55.078125 64.0625 55.078125 55.328125 
Q 55.078125 49.078125 51.53125 44.71875 
Q 48 40.375 41.703125 38.8125 
Q 48.828125 37.15625 52.796875 32.3125 
Q 56.78125 27.484375 56.78125 20.515625 
Q 56.78125 9.90625 50.3125 4.234375 
Q 43.84375 -1.421875 31.78125 -1.421875 
Q 19.734375 -1.421875 13.25 4.234375 
Q 6.78125 9.90625 6.78125 20.515625 
Q 6.78125 27.484375 10.78125 32.3125 
Q 14.796875 37.15625 21.921875 38.8125 
z
M 18.3125 54.390625 
Q 18.3125 48.734375 21.84375 45.5625 
Q 25.390625 42.390625 31.78125 42.390625 
Q 38.140625 42.390625 41.71875 45.5625 
Q 45.3125 48.734375 45.3125 54.390625 
Q 45.3125 60.0625 41.71875 63.234375 
Q 38.140625 66.40625 31.78125 66.40625 
Q 25.390625 66.40625 21.84375 63.234375 
Q 18.3125 60.0625 18.3125 54.390625 
z
" id="DejaVuSans-38"/>
      </defs>
      <g transform="translate(248.943571 322.182437)scale(0.1 -0.1)">
       <use xlink:href="#DejaVuSans-34"/>
       <use x="63.623047" xlink:href="#DejaVuSans-38"/>
       <use x="127.246094" xlink:href="#DejaVuSans-30"/>
       <use x="190.869141" xlink:href="#DejaVuSans-30"/>
      </g>
     </g>
    </g>
    <g id="xtick_6">
     <g id="line2d_11">
      <path clip-path="url(#p91ff1c0650)" d="M 312.685714 307.584 
L 312.685714 41.472 
" style="fill:none;stroke:#b0b0b0;stroke-linecap:square;stroke-width:0.8;"/>
     </g>
     <g id="line2d_12">
      <g>
       <use style="stroke:#000000;stroke-width:0.8;" x="312.685714" xlink:href="#me5a47a5770" y="307.584"/>
      </g>
     </g>
     <g id="text_6">
      <!-- 4900 -->
      <defs>
       <path d="M 10.984375 1.515625 
L 10.984375 10.5 
Q 14.703125 8.734375 18.5 7.8125 
Q 22.3125 6.890625 25.984375 6.890625 
Q 35.75 6.890625 40.890625 13.453125 
Q 46.046875 20.015625 46.78125 33.40625 
Q 43.953125 29.203125 39.59375 26.953125 
Q 35.25 24.703125 29.984375 24.703125 
Q 19.046875 24.703125 12.671875 31.3125 
Q 6.296875 37.9375 6.296875 49.421875 
Q 6.296875 60.640625 12.9375 67.421875 
Q 19.578125 74.21875 30.609375 74.21875 
Q 43.265625 74.21875 49.921875 64.515625 
Q 56.59375 54.828125 56.59375 36.375 
Q 56.59375 19.140625 48.40625 8.859375 
Q 40.234375 -1.421875 26.421875 -1.421875 
Q 22.703125 -1.421875 18.890625 -0.6875 
Q 15.09375 0.046875 10.984375 1.515625 
z
M 30.609375 32.421875 
Q 37.25 32.421875 41.125 36.953125 
Q 45.015625 41.5 45.015625 49.421875 
Q 45.015625 57.28125 41.125 61.84375 
Q 37.25 66.40625 30.609375 66.40625 
Q 23.96875 66.40625 20.09375 61.84375 
Q 16.21875 57.28125 16.21875 49.421875 
Q 16.21875 41.5 20.09375 36.953125 
Q 23.96875 32.421875 30.609375 32.421875 
z
" id="DejaVuSans-39"/>
      </defs>
      <g transform="translate(299.960714 322.182437)scale(0.1 -0.1)">
       <use xlink:href="#DejaVuSans-34"/>
       <use x="63.623047" xlink:href="#DejaVuSans-39"/>
       <use x="127.246094" xlink:href="#DejaVuSans-30"/>
       <use x="190.869141" xlink:href="#DejaVuSans-30"/>
      </g>
     </g>
    </g>
    <g id="xtick_7">
     <g id="line2d_13">
      <path clip-path="url(#p91ff1c0650)" d="M 363.702857 307.584 
L 363.702857 41.472 
" style="fill:none;stroke:#b0b0b0;stroke-linecap:square;stroke-width:0.8;"/>
     </g>
     <g id="line2d_14">
      <g>
       <use style="stroke:#000000;stroke-width:0.8;" x="363.702857" xlink:href="#me5a47a5770" y="307.584"/>
      </g>
     </g>
     <g id="text_7">
      <!-- 5000 -->
      <g transform="translate(350.977857 322.182437)scale(0.1 -0.1)">
       <use xlink:href="#DejaVuSans-35"/>
       <use x="63.623047" xlink:href="#DejaVuSans-30"/>
       <use x="127.246094" xlink:href="#DejaVuSans-30"/>
       <use x="190.869141" xlink:href="#DejaVuSans-30"/>
      </g>
     </g>
    </g>
    <g id="xtick_8">
     <g id="line2d_15">
      <path clip-path="url(#p91ff1c0650)" d="M 414.72 307.584 
L 414.72 41.472 
" style="fill:none;stroke:#b0b0b0;stroke-linecap:square;stroke-width:0.8;"/>
     </g>
     <g id="line2d_16">
      <g>
       <use style="stroke:#000000;stroke-width:0.8;" x="414.72" xlink:href="#me5a47a5770" y="307.584"/>
      </g>
     </g>
     <g id="text_8">
      <!-- 5100 -->
      <defs>
       <path d="M 12.40625 8.296875 
L 28.515625 8.296875 
L 28.515625 63.921875 
L 10.984375 60.40625 
L 10.984375 69.390625 
L 28.421875 72.90625 
L 38.28125 72.90625 
L 38.28125 8.296875 
L 54.390625 8.296875 
L 54.390625 0 
L 12.40625 0 
z
" id="DejaVuSans-31"/>
      </defs>
      <g transform="translate(401.995 322.182437)scale(0.1 -0.1)">
       <use xlink:href="#DejaVuSans-35"/>
       <use x="63.623047" xlink:href="#DejaVuSans-31"/>
       <use x="127.246094" xlink:href="#DejaVuSans-30"/>
       <use x="190.869141" xlink:href="#DejaVuSans-30"/>
      </g>
     </g>
    </g>
    <g id="text_9">
     <!-- t(s) -->
     <defs>
      <path d="M 18.3125 70.21875 
L 18.3125 54.6875 
L 36.8125 54.6875 
L 36.8125 47.703125 
L 18.3125 47.703125 
L 18.3125 18.015625 
Q 18.3125 11.328125 20.140625 9.421875 
Q 21.96875 7.515625 27.59375 7.515625 
L 36.8125 7.515625 
L 36.8125 0 
L 27.59375 0 
Q 17.1875 0 13.234375 3.875 
Q 9.28125 7.765625 9.28125 18.015625 
L 9.28125 47.703125 
L 2.6875 47.703125 
L 2.6875 54.6875 
L 9.28125 54.6875 
L 9.28125 70.21875 
z
" id="DejaVuSans-74"/>
      <path d="M 31 75.875 
Q 24.46875 64.65625 21.28125 53.65625 
Q 18.109375 42.671875 18.109375 31.390625 
Q 18.109375 20.125 21.3125 9.0625 
Q 24.515625 -2 31 -13.1875 
L 23.1875 -13.1875 
Q 15.875 -1.703125 12.234375 9.375 
Q 8.59375 20.453125 8.59375 31.390625 
Q 8.59375 42.28125 12.203125 53.3125 
Q 15.828125 64.359375 23.1875 75.875 
z
" id="DejaVuSans-28"/>
      <path d="M 44.28125 53.078125 
L 44.28125 44.578125 
Q 40.484375 46.53125 36.375 47.5 
Q 32.28125 48.484375 27.875 48.484375 
Q 21.1875 48.484375 17.84375 46.4375 
Q 14.5 44.390625 14.5 40.28125 
Q 14.5 37.15625 16.890625 35.375 
Q 19.28125 33.59375 26.515625 31.984375 
L 29.59375 31.296875 
Q 39.15625 29.25 43.1875 25.515625 
Q 47.21875 21.78125 47.21875 15.09375 
Q 47.21875 7.46875 41.1875 3.015625 
Q 35.15625 -1.421875 24.609375 -1.421875 
Q 20.21875 -1.421875 15.453125 -0.5625 
Q 10.6875 0.296875 5.421875 2 
L 5.421875 11.28125 
Q 10.40625 8.6875 15.234375 7.390625 
Q 20.0625 6.109375 24.8125 6.109375 
Q 31.15625 6.109375 34.5625 8.28125 
Q 37.984375 10.453125 37.984375 14.40625 
Q 37.984375 18.0625 35.515625 20.015625 
Q 33.0625 21.96875 24.703125 23.78125 
L 21.578125 24.515625 
Q 13.234375 26.265625 9.515625 29.90625 
Q 5.8125 33.546875 5.8125 39.890625 
Q 5.8125 47.609375 11.28125 51.796875 
Q 16.75 56 26.8125 56 
Q 31.78125 56 36.171875 55.265625 
Q 40.578125 54.546875 44.28125 53.078125 
z
" id="DejaVuSans-73"/>
      <path d="M 8.015625 75.875 
L 15.828125 75.875 
Q 23.140625 64.359375 26.78125 53.3125 
Q 30.421875 42.28125 30.421875 31.390625 
Q 30.421875 20.453125 26.78125 9.375 
Q 23.140625 -1.703125 15.828125 -13.1875 
L 8.015625 -13.1875 
Q 14.5 -2 17.703125 9.0625 
Q 20.90625 20.125 20.90625 31.390625 
Q 20.90625 42.671875 17.703125 53.65625 
Q 14.5 64.65625 8.015625 75.875 
z
" id="DejaVuSans-29"/>
     </defs>
     <g transform="translate(227.693594 335.860562)scale(0.1 -0.1)">
      <use xlink:href="#DejaVuSans-74"/>
      <use x="39.208984" xlink:href="#DejaVuSans-28"/>
      <use x="78.222656" xlink:href="#DejaVuSans-73"/>
      <use x="130.322266" xlink:href="#DejaVuSans-29"/>
     </g>
    </g>
   </g>
   <g id="matplotlib.axis_2">
    <g id="ytick_1">
     <g id="line2d_17">
      <path clip-path="url(#p91ff1c0650)" d="M 57.6 307.584 
L 414.72 307.584 
" style="fill:none;stroke:#b0b0b0;stroke-linecap:square;stroke-width:0.8;"/>
     </g>
     <g id="line2d_18">
      <defs>
       <path d="M 0 0 
L -3.5 0 
" id="m6d693d5465" style="stroke:#000000;stroke-width:0.8;"/>
      </defs>
      <g>
       <use style="stroke:#000000;stroke-width:0.8;" x="57.6" xlink:href="#m6d693d5465" y="307.584"/>
      </g>
     </g>
     <g id="text_10">
      <!-- 6 -->
      <g transform="translate(44.2375 311.383219)scale(0.1 -0.1)">
       <use xlink:href="#DejaVuSans-36"/>
      </g>
     </g>
    </g>
    <g id="ytick_2">
     <g id="line2d_19">
      <path clip-path="url(#p91ff1c0650)" d="M 57.6 263.232 
L 414.72 263.232 
" style="fill:none;stroke:#b0b0b0;stroke-linecap:square;stroke-width:0.8;"/>
     </g>
     <g id="line2d_20">
      <g>
       <use style="stroke:#000000;stroke-width:0.8;" x="57.6" xlink:href="#m6d693d5465" y="263.232"/>
      </g>
     </g>
     <g id="text_11">
      <!-- 7 -->
      <g transform="translate(44.2375 267.031219)scale(0.1 -0.1)">
       <use xlink:href="#DejaVuSans-37"/>
      </g>
     </g>
    </g>
    <g id="ytick_3">
     <g id="line2d_21">
      <path clip-path="url(#p91ff1c0650)" d="M 57.6 218.88 
L 414.72 218.88 
" style="fill:none;stroke:#b0b0b0;stroke-linecap:square;stroke-width:0.8;"/>
     </g>
     <g id="line2d_22">
      <g>
       <use style="stroke:#000000;stroke-width:0.8;" x="57.6" xlink:href="#m6d693d5465" y="218.88"/>
      </g>
     </g>
     <g id="text_12">
      <!-- 8 -->
      <g transform="translate(44.2375 222.679219)scale(0.1 -0.1)">
       <use xlink:href="#DejaVuSans-38"/>
      </g>
     </g>
    </g>
    <g id="ytick_4">
     <g id="line2d_23">
      <path clip-path="url(#p91ff1c0650)" d="M 57.6 174.528 
L 414.72 174.528 
" style="fill:none;stroke:#b0b0b0;stroke-linecap:square;stroke-width:0.8;"/>
     </g>
     <g id="line2d_24">
      <g>
       <use style="stroke:#000000;stroke-width:0.8;" x="57.6" xlink:href="#m6d693d5465" y="174.528"/>
      </g>
     </g>
     <g id="text_13">
      <!-- 9 -->
      <g transform="translate(44.2375 178.327219)scale(0.1 -0.1)">
       <use xlink:href="#DejaVuSans-39"/>
      </g>
     </g>
    </g>
    <g id="ytick_5">
     <g id="line2d_25">
      <path clip-path="url(#p91ff1c0650)" d="M 57.6 130.176 
L 414.72 130.176 
" style="fill:none;stroke:#b0b0b0;stroke-linecap:square;stroke-width:0.8;"/>
     </g>
     <g id="line2d_26">
      <g>
       <use style="stroke:#000000;stroke-width:0.8;" x="57.6" xlink:href="#m6d693d5465" y="130.176"/>
      </g>
     </g>
     <g id="text_14">
      <!-- 10 -->
      <g transform="translate(37.875 133.975219)scale(0.1 -0.1)">
       <use xlink:href="#DejaVuSans-31"/>
       <use x="63.623047" xlink:href="#DejaVuSans-30"/>
      </g>
     </g>
    </g>
    <g id="ytick_6">
     <g id="line2d_27">
      <path clip-path="url(#p91ff1c0650)" d="M 57.6 85.824 
L 414.72 85.824 
" style="fill:none;stroke:#b0b0b0;stroke-linecap:square;stroke-width:0.8;"/>
     </g>
     <g id="line2d_28">
      <g>
       <use style="stroke:#000000;stroke-width:0.8;" x="57.6" xlink:href="#m6d693d5465" y="85.824"/>
      </g>
     </g>
     <g id="text_15">
      <!-- 11 -->
      <g transform="translate(37.875 89.623219)scale(0.1 -0.1)">
       <use xlink:href="#DejaVuSans-31"/>
       <use x="63.623047" xlink:href="#DejaVuSans-31"/>
      </g>
     </g>
    </g>
    <g id="ytick_7">
     <g id="line2d_29">
      <path clip-path="url(#p91ff1c0650)" d="M 57.6 41.472 
L 414.72 41.472 
" style="fill:none;stroke:#b0b0b0;stroke-linecap:square;stroke-width:0.8;"/>
     </g>
     <g id="line2d_30">
      <g>
       <use style="stroke:#000000;stroke-width:0.8;" x="57.6" xlink:href="#m6d693d5465" y="41.472"/>
      </g>
     </g>
     <g id="text_16">
      <!-- 12 -->
      <defs>
       <path d="M 19.1875 8.296875 
L 53.609375 8.296875 
L 53.609375 0 
L 7.328125 0 
L 7.328125 8.296875 
Q 12.9375 14.109375 22.625 23.890625 
Q 32.328125 33.6875 34.8125 36.53125 
Q 39.546875 41.84375 41.421875 45.53125 
Q 43.3125 49.21875 43.3125 52.78125 
Q 43.3125 58.59375 39.234375 62.25 
Q 35.15625 65.921875 28.609375 65.921875 
Q 23.96875 65.921875 18.8125 64.3125 
Q 13.671875 62.703125 7.8125 59.421875 
L 7.8125 69.390625 
Q 13.765625 71.78125 18.9375 73 
Q 24.125 74.21875 28.421875 74.21875 
Q 39.75 74.21875 46.484375 68.546875 
Q 53.21875 62.890625 53.21875 53.421875 
Q 53.21875 48.921875 51.53125 44.890625 
Q 49.859375 40.875 45.40625 35.40625 
Q 44.1875 33.984375 37.640625 27.21875 
Q 31.109375 20.453125 19.1875 8.296875 
z
" id="DejaVuSans-32"/>
      </defs>
      <g transform="translate(37.875 45.271219)scale(0.1 -0.1)">
       <use xlink:href="#DejaVuSans-31"/>
       <use x="63.623047" xlink:href="#DejaVuSans-32"/>
      </g>
     </g>
    </g>
    <g id="text_17">
     <!-- Resistance (M$\Omega$) -->
     <defs>
      <path d="M 44.390625 34.1875 
Q 47.5625 33.109375 50.5625 29.59375 
Q 53.5625 26.078125 56.59375 19.921875 
L 66.609375 0 
L 56 0 
L 46.6875 18.703125 
Q 43.0625 26.03125 39.671875 28.421875 
Q 36.28125 30.8125 30.421875 30.8125 
L 19.671875 30.8125 
L 19.671875 0 
L 9.8125 0 
L 9.8125 72.90625 
L 32.078125 72.90625 
Q 44.578125 72.90625 50.734375 67.671875 
Q 56.890625 62.453125 56.890625 51.90625 
Q 56.890625 45.015625 53.6875 40.46875 
Q 50.484375 35.9375 44.390625 34.1875 
z
M 19.671875 64.796875 
L 19.671875 38.921875 
L 32.078125 38.921875 
Q 39.203125 38.921875 42.84375 42.21875 
Q 46.484375 45.515625 46.484375 51.90625 
Q 46.484375 58.296875 42.84375 61.546875 
Q 39.203125 64.796875 32.078125 64.796875 
z
" id="DejaVuSans-52"/>
      <path d="M 56.203125 29.59375 
L 56.203125 25.203125 
L 14.890625 25.203125 
Q 15.484375 15.921875 20.484375 11.0625 
Q 25.484375 6.203125 34.421875 6.203125 
Q 39.59375 6.203125 44.453125 7.46875 
Q 49.3125 8.734375 54.109375 11.28125 
L 54.109375 2.78125 
Q 49.265625 0.734375 44.1875 -0.34375 
Q 39.109375 -1.421875 33.890625 -1.421875 
Q 20.796875 -1.421875 13.15625 6.1875 
Q 5.515625 13.8125 5.515625 26.8125 
Q 5.515625 40.234375 12.765625 48.109375 
Q 20.015625 56 32.328125 56 
Q 43.359375 56 49.78125 48.890625 
Q 56.203125 41.796875 56.203125 29.59375 
z
M 47.21875 32.234375 
Q 47.125 39.59375 43.09375 43.984375 
Q 39.0625 48.390625 32.421875 48.390625 
Q 24.90625 48.390625 20.390625 44.140625 
Q 15.875 39.890625 15.1875 32.171875 
z
" id="DejaVuSans-65"/>
      <path d="M 9.421875 54.6875 
L 18.40625 54.6875 
L 18.40625 0 
L 9.421875 0 
z
M 9.421875 75.984375 
L 18.40625 75.984375 
L 18.40625 64.59375 
L 9.421875 64.59375 
z
" id="DejaVuSans-69"/>
      <path d="M 34.28125 27.484375 
Q 23.390625 27.484375 19.1875 25 
Q 14.984375 22.515625 14.984375 16.5 
Q 14.984375 11.71875 18.140625 8.90625 
Q 21.296875 6.109375 26.703125 6.109375 
Q 34.1875 6.109375 38.703125 11.40625 
Q 43.21875 16.703125 43.21875 25.484375 
L 43.21875 27.484375 
z
M 52.203125 31.203125 
L 52.203125 0 
L 43.21875 0 
L 43.21875 8.296875 
Q 40.140625 3.328125 35.546875 0.953125 
Q 30.953125 -1.421875 24.3125 -1.421875 
Q 15.921875 -1.421875 10.953125 3.296875 
Q 6 8.015625 6 15.921875 
Q 6 25.140625 12.171875 29.828125 
Q 18.359375 34.515625 30.609375 34.515625 
L 43.21875 34.515625 
L 43.21875 35.40625 
Q 43.21875 41.609375 39.140625 45 
Q 35.0625 48.390625 27.6875 48.390625 
Q 23 48.390625 18.546875 47.265625 
Q 14.109375 46.140625 10.015625 43.890625 
L 10.015625 52.203125 
Q 14.9375 54.109375 19.578125 55.046875 
Q 24.21875 56 28.609375 56 
Q 40.484375 56 46.34375 49.84375 
Q 52.203125 43.703125 52.203125 31.203125 
z
" id="DejaVuSans-61"/>
      <path d="M 54.890625 33.015625 
L 54.890625 0 
L 45.90625 0 
L 45.90625 32.71875 
Q 45.90625 40.484375 42.875 44.328125 
Q 39.84375 48.1875 33.796875 48.1875 
Q 26.515625 48.1875 22.3125 43.546875 
Q 18.109375 38.921875 18.109375 30.90625 
L 18.109375 0 
L 9.078125 0 
L 9.078125 54.6875 
L 18.109375 54.6875 
L 18.109375 46.1875 
Q 21.34375 51.125 25.703125 53.5625 
Q 30.078125 56 35.796875 56 
Q 45.21875 56 50.046875 50.171875 
Q 54.890625 44.34375 54.890625 33.015625 
z
" id="DejaVuSans-6e"/>
      <path d="M 48.78125 52.59375 
L 48.78125 44.1875 
Q 44.96875 46.296875 41.140625 47.34375 
Q 37.3125 48.390625 33.40625 48.390625 
Q 24.65625 48.390625 19.8125 42.84375 
Q 14.984375 37.3125 14.984375 27.296875 
Q 14.984375 17.28125 19.8125 11.734375 
Q 24.65625 6.203125 33.40625 6.203125 
Q 37.3125 6.203125 41.140625 7.25 
Q 44.96875 8.296875 48.78125 10.40625 
L 48.78125 2.09375 
Q 45.015625 0.34375 40.984375 -0.53125 
Q 36.96875 -1.421875 32.421875 -1.421875 
Q 20.0625 -1.421875 12.78125 6.34375 
Q 5.515625 14.109375 5.515625 27.296875 
Q 5.515625 40.671875 12.859375 48.328125 
Q 20.21875 56 33.015625 56 
Q 37.15625 56 41.109375 55.140625 
Q 45.0625 54.296875 48.78125 52.59375 
z
" id="DejaVuSans-63"/>
      <path id="DejaVuSans-20"/>
      <path d="M 9.8125 72.90625 
L 24.515625 72.90625 
L 43.109375 23.296875 
L 61.8125 72.90625 
L 76.515625 72.90625 
L 76.515625 0 
L 66.890625 0 
L 66.890625 64.015625 
L 48.09375 14.015625 
L 38.1875 14.015625 
L 19.390625 64.015625 
L 19.390625 0 
L 9.8125 0 
z
" id="DejaVuSans-4d"/>
      <path d="M 72.609375 8.6875 
L 72.609375 0 
L 43.3125 0 
L 43.3125 8.6875 
Q 51.953125 13.421875 56.78125 21.53125 
Q 61.625 29.640625 61.625 39.5 
Q 61.625 51.21875 55.171875 58.296875 
Q 48.734375 65.375 38.1875 65.375 
Q 27.640625 65.375 21.171875 58.265625 
Q 14.703125 51.171875 14.703125 39.5 
Q 14.703125 29.640625 19.53125 21.53125 
Q 24.421875 13.421875 33.109375 8.6875 
L 33.109375 0 
L 3.8125 0 
L 3.8125 8.6875 
L 19.390625 8.6875 
Q 11.671875 15.484375 8.109375 22.75 
Q 4.59375 30.03125 4.59375 39.015625 
Q 4.59375 54.546875 13.96875 64.15625 
Q 23.296875 73.78125 38.1875 73.78125 
Q 52.984375 73.78125 62.40625 64.15625 
Q 71.78125 54.59375 71.78125 39.5 
Q 71.78125 30.03125 68.3125 22.796875 
Q 64.84375 15.578125 56.984375 8.6875 
z
" id="DejaVuSans-3a9"/>
     </defs>
     <g transform="translate(31.795312 215.328)rotate(-90)scale(0.1 -0.1)">
      <use transform="translate(0 0.015625)" xlink:href="#DejaVuSans-52"/>
      <use transform="translate(69.482422 0.015625)" xlink:href="#DejaVuSans-65"/>
      <use transform="translate(131.005859 0.015625)" xlink:href="#DejaVuSans-73"/>
      <use transform="translate(183.105469 0.015625)" xlink:href="#DejaVuSans-69"/>
      <use transform="translate(210.888672 0.015625)" xlink:href="#DejaVuSans-73"/>
      <use transform="translate(262.988281 0.015625)" xlink:href="#DejaVuSans-74"/>
      <use transform="translate(302.197266 0.015625)" xlink:href="#DejaVuSans-61"/>
      <use transform="translate(363.476562 0.015625)" xlink:href="#DejaVuSans-6e"/>
      <use transform="translate(426.855469 0.015625)" xlink:href="#DejaVuSans-63"/>
      <use transform="translate(481.835938 0.015625)" xlink:href="#DejaVuSans-65"/>
      <use transform="translate(543.359375 0.015625)" xlink:href="#DejaVuSans-20"/>
      <use transform="translate(575.146484 0.015625)" xlink:href="#DejaVuSans-28"/>
      <use transform="translate(614.160156 0.015625)" xlink:href="#DejaVuSans-4d"/>
      <use transform="translate(700.439453 0.015625)" xlink:href="#DejaVuSans-3a9"/>
      <use transform="translate(776.855469 0.015625)" xlink:href="#DejaVuSans-29"/>
     </g>
    </g>
   </g>
   <g id="line2d_31">
    <path clip-path="url(#p91ff1c0650)" d="M 57.186501 279.665821 
L 62.289236 279.104721 
L 62.799458 278.971499 
L 63.309681 279.368536 
L 63.819903 279.020243 
L 64.330126 279.113726 
L 64.840348 278.870993 
L 65.35057 278.918801 
L 66.371015 278.763163 
L 66.881238 278.743549 
L 67.39146 278.592141 
L 67.901683 278.323087 
L 68.411905 278.394577 
L 69.43235 278.128117 
L 70.452795 278.046452 
L 71.47324 277.85664 
L 71.983462 278.221058 
L 72.493685 277.971838 
L 73.003907 277.980712 
L 73.51413 277.519406 
L 74.024352 277.354749 
L 74.534575 277.497161 
L 75.044797 277.185975 
L 76.575464 276.841845 
L 78.616354 276.426897 
L 79.126576 276.61098 
L 79.636799 276.99138 
L 80.147021 273.839178 
L 80.657244 274.057739 
L 81.167466 277.094744 
L 81.677689 276.94223 
L 82.187911 276.195172 
L 82.698134 277.490423 
L 83.208356 276.603586 
L 83.718579 276.373388 
L 84.228801 276.892902 
L 84.739023 277.080877 
L 85.249246 276.618553 
L 86.779913 276.917236 
L 87.290136 276.687885 
L 87.800358 276.648695 
L 88.310581 275.216776 
L 88.820803 276.397811 
L 89.331025 275.976174 
L 89.841248 275.955595 
L 90.35147 275.707248 
L 90.861693 275.744426 
L 91.371915 275.544049 
L 91.882138 275.576744 
L 93.412805 275.210532 
L 94.43325 275.005575 
L 95.453695 274.842848 
L 97.494585 274.329206 
L 98.004807 274.448676 
L 98.515029 274.192111 
L 99.025252 275.174668 
L 99.535474 273.486013 
L 100.045697 270.865457 
L 105.147921 237.643455 
L 106.168366 232.089541 
L 106.678589 228.796204 
L 107.188811 226.911528 
L 108.719478 219.059092 
L 112.291036 202.938758 
L 116.372815 186.932637 
L 116.883037 185.444101 
L 117.903482 181.858873 
L 118.413705 180.370828 
L 118.923927 178.452386 
L 119.43415 177.227966 
L 120.454595 174.19042 
L 121.47504 171.762657 
L 122.495484 168.573618 
L 123.515929 166.414571 
L 124.538415 164.004442 
L 126.069082 159.427085 
L 126.579305 158.702228 
L 127.089527 157.512853 
L 127.59975 155.983185 
L 132.191752 146.721271 
L 135.763309 141.115084 
L 136.273531 139.670265 
L 137.804199 136.584746 
L 138.314421 136.404555 
L 138.824644 135.066278 
L 139.334866 134.734501 
L 139.845088 132.973287 
L 140.355311 132.496708 
L 140.865533 131.169929 
L 141.375756 131.186243 
L 142.396201 128.657517 
L 142.906423 128.075798 
L 143.416646 127.705657 
L 143.926868 126.406234 
L 144.437601 127.159571 
L 144.947823 125.221689 
L 145.968268 123.420469 
L 146.47849 123.669438 
L 146.988713 122.728757 
L 148.51938 121.463976 
L 149.029603 120.679442 
L 149.539825 120.838165 
L 150.050048 120.646144 
L 150.56027 119.573118 
L 151.070493 119.253984 
L 151.580715 119.191059 
L 152.090937 118.02217 
L 152.60116 117.860204 
L 153.111382 117.365603 
L 153.621605 116.542805 
L 154.131827 116.166132 
L 155.152272 114.602208 
L 156.172717 113.752928 
L 156.682939 112.890931 
L 157.703384 112.231878 
L 158.213607 111.700812 
L 158.723829 110.908518 
L 159.234052 110.744599 
L 159.744274 110.738841 
L 160.254497 110.18775 
L 160.764719 109.322745 
L 161.274941 109.068633 
L 161.785164 108.216679 
L 162.295386 107.896591 
L 162.805609 107.433489 
L 163.315831 107.167003 
L 163.826054 106.604994 
L 164.336276 106.266718 
L 164.846498 105.682595 
L 165.356721 105.399461 
L 165.866944 104.58746 
L 166.377166 104.612665 
L 166.887388 103.718393 
L 167.397611 103.672248 
L 167.907833 104.152573 
L 168.418056 103.879013 
L 168.928278 103.241128 
L 169.438501 103.040492 
L 169.948723 103.099477 
L 170.458945 103.277468 
L 170.969168 103.031915 
L 171.47939 102.45759 
L 171.989613 102.121124 
L 172.499835 101.994796 
L 173.010058 101.11618 
L 173.52028 100.775255 
L 174.030503 101.243449 
L 174.540725 100.063169 
L 175.56117 99.078152 
L 176.581615 97.751816 
L 177.091837 97.350242 
L 177.60206 97.507358 
L 178.622505 96.285039 
L 179.132727 95.694287 
L 179.642949 95.383656 
L 180.153172 95.333877 
L 180.663394 95.582358 
L 181.173617 96.366407 
L 182.194062 95.323934 
L 182.704284 95.22072 
L 183.214507 95.319253 
L 184.235462 94.419869 
L 184.745684 94.999038 
L 185.255907 95.070402 
L 185.766129 95.023533 
L 186.786574 94.21396 
L 187.296796 94.429176 
L 187.807019 94.069735 
L 188.317241 93.528832 
L 188.827464 93.28662 
L 189.337686 93.801313 
L 189.847909 93.139031 
L 190.868353 92.799384 
L 191.378576 92.001729 
L 192.399021 91.740556 
L 192.909243 91.272057 
L 193.419466 91.637526 
L 193.929688 91.133597 
L 194.439911 91.636143 
L 194.950133 91.157917 
L 195.460355 91.000653 
L 195.970578 90.609815 
L 196.4808 90.398389 
L 196.991023 90.34422 
L 197.501245 89.775842 
L 198.011468 89.92109 
L 198.52169 89.377972 
L 199.542135 88.768418 
L 200.052358 88.54424 
L 200.56258 88.535567 
L 201.072802 87.934635 
L 201.583025 87.967526 
L 202.093247 87.712539 
L 202.60347 87.595358 
L 203.113692 87.232803 
L 204.134137 87.122675 
L 204.64436 87.474266 
L 205.154582 87.131404 
L 205.664804 87.345782 
L 206.175027 87.110538 
L 207.195472 87.037723 
L 207.705694 87.251713 
L 208.215917 86.746772 
L 209.746584 86.852226 
L 210.256806 86.996473 
L 211.277251 86.578057 
L 211.787474 87.066382 
L 212.297696 86.690381 
L 212.807919 86.831801 
L 213.318141 86.58827 
L 213.828363 86.662668 
L 214.338586 86.325015 
L 214.848808 86.174526 
L 215.359031 86.233466 
L 215.869253 86.041981 
L 216.379476 86.06489 
L 216.889698 85.515471 
L 217.910143 85.389895 
L 218.420366 85.228061 
L 218.930588 85.33712 
L 219.44081 85.195299 
L 220.461255 84.519371 
L 220.971478 84.803678 
L 221.4817 84.560559 
L 221.991923 84.791421 
L 223.012368 84.196925 
L 224.032813 84.545843 
L 224.543035 83.90794 
L 225.053257 84.282318 
L 225.56348 83.581747 
L 226.073702 83.886282 
L 226.583925 83.508776 
L 227.094147 83.560108 
L 228.114592 83.315212 
L 228.624814 83.238312 
L 229.135037 83.376317 
L 229.645259 82.834149 
L 230.155482 82.760569 
L 230.665704 83.128344 
L 231.175927 82.967931 
L 231.686149 82.57721 
L 232.196372 82.709658 
L 232.706594 83.130797 
L 233.216817 82.554965 
L 233.727039 82.37939 
L 234.237261 83.086404 
L 234.747484 82.726946 
L 235.257706 83.445794 
L 235.767929 82.297737 
L 236.278151 82.336827 
L 236.788374 83.543267 
L 237.298596 82.663716 
L 237.808818 82.096702 
L 238.319041 82.353158 
L 238.829263 82.758571 
L 239.339486 81.841946 
L 239.849708 82.07093 
L 240.359931 81.85585 
L 240.870153 82.261097 
L 241.380376 83.082449 
L 241.890598 81.065191 
L 242.40082 82.176947 
L 242.911043 81.745712 
L 243.421265 81.49359 
L 244.44171 81.714892 
L 244.951933 82.094694 
L 245.462155 81.401304 
L 245.972378 81.304848 
L 246.4826 81.660895 
L 247.503045 81.28692 
L 248.013267 80.970236 
L 248.52349 81.402585 
L 249.543935 81.603937 
L 250.054157 81.344045 
L 251.584824 81.100535 
L 252.60527 81.252639 
L 253.115492 81.114537 
L 254.646159 81.145284 
L 255.156382 80.958303 
L 256.176827 81.043849 
L 256.687049 81.09758 
L 257.197271 81.011945 
L 258.217716 81.232788 
L 260.258606 81.481189 
L 260.768829 81.144792 
L 261.789273 81.671858 
L 263.320451 81.529363 
L 263.830673 81.232245 
L 264.851118 80.985125 
L 265.361341 80.598112 
L 265.871563 81.081606 
L 266.381786 80.619547 
L 266.892008 80.651449 
L 267.912453 80.1555 
L 268.422676 80.353634 
L 268.932898 80.075334 
L 269.44312 80.573658 
L 269.953343 80.3154 
L 273.014677 80.096751 
L 273.5249 80.25465 
L 274.035122 79.993901 
L 274.545345 79.967838 
L 275.055567 80.094776 
L 275.56579 79.852323 
L 276.076012 79.89631 
L 277.606679 79.801547 
L 278.116902 79.758892 
L 278.627124 79.868885 
L 279.137347 79.682923 
L 279.647569 79.870005 
L 280.157792 79.680385 
L 280.668014 80.099776 
L 281.178237 79.516874 
L 281.688459 79.313338 
L 282.198681 79.480799 
L 282.708904 79.155103 
L 283.219126 79.316449 
L 284.239571 79.323443 
L 284.749794 79.412657 
L 285.770239 79.312494 
L 286.280461 79.264376 
L 287.300906 79.381087 
L 288.831573 79.344568 
L 289.341796 79.140117 
L 289.852018 79.462723 
L 290.362241 79.077395 
L 290.872463 79.084395 
L 291.382686 79.221266 
L 291.892908 79.117563 
L 293.423575 79.214764 
L 293.933798 79.319561 
L 294.44402 79.249323 
L 294.954243 79.4277 
L 295.464465 79.146126 
L 295.974687 79.43469 
L 296.48491 79.155597 
L 296.995132 79.013249 
L 297.505355 79.091395 
L 298.015577 79.651457 
L 298.52631 79.165637 
L 299.036532 79.015227 
L 299.546755 79.123993 
L 300.5672 78.938048 
L 301.077422 79.072718 
L 302.097867 78.906756 
L 302.60809 78.716692 
L 303.118312 78.761791 
L 304.648979 78.481357 
L 305.159155 78.27602 
L 307.200351 78.360754 
L 308.220694 77.902743 
L 308.730865 78.122847 
L 309.241037 78.043826 
L 309.751208 77.676894 
L 310.26138 78.073502 
L 310.771551 78.253641 
L 311.282233 78.078954 
L 311.792914 78.471948 
L 312.303596 78.368434 
L 312.814278 78.752724 
L 313.835641 78.7899 
L 314.346322 79.003127 
L 314.856494 78.866212 
L 315.366665 79.088922 
L 316.8982 78.355222 
L 318.938885 78.186963 
L 319.449057 78.292874 
L 319.959228 78.173088 
L 320.979571 78.256698 
L 321.489743 77.915899 
L 321.999914 78.057468 
L 322.510596 77.736825 
L 323.021277 77.740387 
L 323.531449 78.037617 
L 324.04162 77.687989 
L 324.551792 77.569396 
L 325.061963 77.785246 
L 325.572134 77.598228 
L 326.082306 77.617851 
L 327.103159 77.331138 
L 327.61333 77.490105 
L 328.124012 77.510419 
L 328.634183 77.256925 
L 329.144355 77.217032 
L 329.654526 77.535599 
L 330.164698 77.365955 
L 331.18504 77.583345 
L 331.695212 77.852679 
L 332.715555 77.875348 
L 333.225726 78.145986 
L 333.736408 77.800483 
L 334.247089 78.169619 
L 334.757261 78.362323 
L 335.267432 78.314512 
L 335.777604 78.388496 
L 336.287775 78.623756 
L 336.798457 78.297006 
L 337.308628 77.649744 
L 337.8188 77.825952 
L 338.328971 77.574542 
L 339.349824 77.405423 
L 340.370167 77.101581 
L 340.880338 77.26 
L 341.39051 77.043393 
L 341.900681 77.069015 
L 343.431195 76.598271 
L 343.941367 76.092843 
L 344.451538 76.46054 
L 344.96171 76.087261 
L 345.471881 76.407275 
L 345.982053 76.048674 
L 346.492224 76.32881 
L 347.002395 76.275019 
L 347.512567 76.340854 
L 348.022738 76.813183 
L 351.083767 77.394127 
L 351.593938 77.003667 
L 352.614281 77.604365 
L 353.124453 77.560962 
L 353.634624 76.863177 
L 354.144795 77.560466 
L 354.654967 77.404927 
L 355.165138 76.692077 
L 355.67531 76.717438 
L 356.185481 77.490292 
L 356.695653 77.237772 
L 357.715995 77.15847 
L 358.226167 76.859102 
L 358.736338 76.81 
L 359.24651 76.898555 
L 359.756681 76.86268 
L 360.266853 76.320639 
L 360.777024 76.898555 
L 361.287195 76.80344 
L 362.307538 76.901039 
L 362.81771 76.447402 
L 363.327881 76.82819 
L 364.348224 76.673775 
L 365.878738 76.75741 
L 366.899081 76.279105 
L 369.449938 76.188058 
L 369.96011 76.444916 
L 370.470281 76.02363 
L 370.980453 75.976682 
L 371.490624 76.048287 
L 372.000795 75.972258 
L 372.510967 76.108596 
L 374.041481 76.097431 
L 374.551653 75.745856 
L 375.061824 75.90395 
L 375.572506 75.325323 
L 376.082677 75.677877 
L 376.592848 75.135846 
L 377.10302 74.973767 
L 378.123873 75.379324 
L 378.634555 75.008409 
L 380.166599 75.774804 
L 380.677281 75.912524 
L 381.187963 75.682473 
L 381.698134 75.982268 
L 382.208305 76.000129 
L 382.718987 76.130428 
L 383.229669 76.453971 
L 383.73984 76.541162 
L 384.760693 75.588655 
L 385.270864 75.760138 
L 385.781036 75.452331 
L 386.291207 75.507716 
L 387.31155 75.295801 
L 387.821722 75.35045 
L 388.331893 75.285123 
L 388.842575 75.386652 
L 389.352746 74.902847 
L 390.373089 75.383545 
L 390.88326 75.24119 
L 391.393432 75.258873 
L 391.903603 75.067467 
L 392.413775 74.705936 
L 392.923946 74.676492 
L 393.434117 74.454432 
L 393.944289 75.070202 
L 394.45446 74.687596 
L 394.964632 74.806094 
L 395.474803 74.56305 
L 395.984975 74.153026 
L 396.495146 74.813078 
L 397.515489 74.045732 
L 398.02566 74.023716 
L 398.535832 74.314143 
L 399.556175 74.044733 
L 400.066346 74.469537 
L 400.576517 74.555436 
L 401.086689 74.390725 
L 401.59686 74.732258 
L 402.617203 74.562424 
L 403.127375 74.635816 
L 403.637546 74.590136 
L 404.147717 74.819687 
L 404.657889 74.912815 
L 405.16806 75.190886 
L 405.678232 74.713671 
L 406.188403 74.821308 
L 406.698575 74.113769 
L 407.208746 75.200596 
L 407.718917 74.358752 
L 408.229089 75.053384 
L 408.73926 74.758078 
L 410.269775 74.887638 
L 411.800289 74.378613 
L 413.330803 73.386068 
L 414.351146 73.559405 
L 414.861317 73.364213 
L 414.861317 73.364213 
" style="fill:none;stroke:#1f77b4;stroke-linecap:square;stroke-width:1.5;"/>
   </g>
   <g id="line2d_32">
    <path clip-path="url(#p91ff1c0650)" d="M 103.617254 240.044794 
L 106.47693 227.015143 
L 109.336607 215.03725 
L 112.196284 204.026216 
L 115.05596 193.903997 
L 117.915637 184.598846 
L 120.775313 176.04481 
L 123.63499 168.181258 
L 126.494667 160.952455 
L 129.354343 154.307162 
L 132.21402 148.19828 
L 135.073696 142.582509 
L 137.933373 137.420045 
L 141.05302 132.262344 
L 144.172667 127.557113 
L 147.292314 123.26466 
L 150.411962 119.348771 
L 153.531609 115.776412 
L 156.911226 112.259133 
L 160.290844 109.074871 
L 163.670462 106.192098 
L 167.31005 103.392059 
L 170.949639 100.876452 
L 174.849198 98.464024 
L 178.748757 96.313174 
L 182.908286 94.275353 
L 187.327786 92.366812 
L 192.007257 90.599103 
L 196.946699 88.979321 
L 202.14611 87.510473 
L 207.865464 86.134288 
L 213.844787 84.922955 
L 220.604023 83.787283 
L 227.8832 82.792262 
L 236.202259 81.887801 
L 245.5612 81.102835 
L 256.219995 80.436327 
L 268.958554 79.870808 
L 284.55679 79.413121 
L 304.314555 79.066731 
L 331.871439 78.822721 
L 363.327881 78.70488 
L 363.327881 78.70488 
" style="fill:none;stroke:#ff7f0e;stroke-linecap:square;stroke-width:1.5;"/>
   </g>
   <g id="patch_3">
    <path d="M 57.6 307.584 
L 57.6 41.472 
" style="fill:none;stroke:#000000;stroke-linecap:square;stroke-linejoin:miter;stroke-width:0.8;"/>
   </g>
   <g id="patch_4">
    <path d="M 414.72 307.584 
L 414.72 41.472 
" style="fill:none;stroke:#000000;stroke-linecap:square;stroke-linejoin:miter;stroke-width:0.8;"/>
   </g>
   <g id="patch_5">
    <path d="M 57.6 307.584 
L 414.72 307.584 
" style="fill:none;stroke:#000000;stroke-linecap:square;stroke-linejoin:miter;stroke-width:0.8;"/>
   </g>
   <g id="patch_6">
    <path d="M 57.6 41.472 
L 414.72 41.472 
" style="fill:none;stroke:#000000;stroke-linecap:square;stroke-linejoin:miter;stroke-width:0.8;"/>
   </g>
   <g id="legend_1">
    <g id="patch_7">
     <path d="M 64.6 78.82825 
L 145.665625 78.82825 
Q 147.665625 78.82825 147.665625 76.82825 
L 147.665625 48.472 
Q 147.665625 46.472 145.665625 46.472 
L 64.6 46.472 
Q 62.6 46.472 62.6 48.472 
L 62.6 76.82825 
Q 62.6 78.82825 64.6 78.82825 
z
" style="fill:#ffffff;opacity:0.8;stroke:#cccccc;stroke-linejoin:miter;"/>
    </g>
    <g id="line2d_33">
     <path d="M 66.6 54.570437 
L 86.6 54.570437 
" style="fill:none;stroke:#1f77b4;stroke-linecap:square;stroke-width:1.5;"/>
    </g>
    <g id="line2d_34"/>
    <g id="text_18">
     <!-- Measured -->
     <defs>
      <path d="M 8.5 21.578125 
L 8.5 54.6875 
L 17.484375 54.6875 
L 17.484375 21.921875 
Q 17.484375 14.15625 20.5 10.265625 
Q 23.53125 6.390625 29.59375 6.390625 
Q 36.859375 6.390625 41.078125 11.03125 
Q 45.3125 15.671875 45.3125 23.6875 
L 45.3125 54.6875 
L 54.296875 54.6875 
L 54.296875 0 
L 45.3125 0 
L 45.3125 8.40625 
Q 42.046875 3.421875 37.71875 1 
Q 33.40625 -1.421875 27.6875 -1.421875 
Q 18.265625 -1.421875 13.375 4.4375 
Q 8.5 10.296875 8.5 21.578125 
z
M 31.109375 56 
z
" id="DejaVuSans-75"/>
      <path d="M 41.109375 46.296875 
Q 39.59375 47.171875 37.8125 47.578125 
Q 36.03125 48 33.890625 48 
Q 26.265625 48 22.1875 43.046875 
Q 18.109375 38.09375 18.109375 28.8125 
L 18.109375 0 
L 9.078125 0 
L 9.078125 54.6875 
L 18.109375 54.6875 
L 18.109375 46.1875 
Q 20.953125 51.171875 25.484375 53.578125 
Q 30.03125 56 36.53125 56 
Q 37.453125 56 38.578125 55.875 
Q 39.703125 55.765625 41.0625 55.515625 
z
" id="DejaVuSans-72"/>
      <path d="M 45.40625 46.390625 
L 45.40625 75.984375 
L 54.390625 75.984375 
L 54.390625 0 
L 45.40625 0 
L 45.40625 8.203125 
Q 42.578125 3.328125 38.25 0.953125 
Q 33.9375 -1.421875 27.875 -1.421875 
Q 17.96875 -1.421875 11.734375 6.484375 
Q 5.515625 14.40625 5.515625 27.296875 
Q 5.515625 40.1875 11.734375 48.09375 
Q 17.96875 56 27.875 56 
Q 33.9375 56 38.25 53.625 
Q 42.578125 51.265625 45.40625 46.390625 
z
M 14.796875 27.296875 
Q 14.796875 17.390625 18.875 11.75 
Q 22.953125 6.109375 30.078125 6.109375 
Q 37.203125 6.109375 41.296875 11.75 
Q 45.40625 17.390625 45.40625 27.296875 
Q 45.40625 37.203125 41.296875 42.84375 
Q 37.203125 48.484375 30.078125 48.484375 
Q 22.953125 48.484375 18.875 42.84375 
Q 14.796875 37.203125 14.796875 27.296875 
z
" id="DejaVuSans-64"/>
     </defs>
     <g transform="translate(94.6 58.070437)scale(0.1 -0.1)">
      <use xlink:href="#DejaVuSans-4d"/>
      <use x="86.279297" xlink:href="#DejaVuSans-65"/>
      <use x="147.802734" xlink:href="#DejaVuSans-61"/>
      <use x="209.082031" xlink:href="#DejaVuSans-73"/>
      <use x="261.181641" xlink:href="#DejaVuSans-75"/>
      <use x="324.560547" xlink:href="#DejaVuSans-72"/>
      <use x="365.642578" xlink:href="#DejaVuSans-65"/>
      <use x="427.166016" xlink:href="#DejaVuSans-64"/>
     </g>
    </g>
    <g id="line2d_35">
     <path d="M 66.6 69.248562 
L 86.6 69.248562 
" style="fill:none;stroke:#ff7f0e;stroke-linecap:square;stroke-width:1.5;"/>
    </g>
    <g id="line2d_36"/>
    <g id="text_19">
     <!-- Fit -->
     <defs>
      <path d="M 9.8125 72.90625 
L 51.703125 72.90625 
L 51.703125 64.59375 
L 19.671875 64.59375 
L 19.671875 43.109375 
L 48.578125 43.109375 
L 48.578125 34.8125 
L 19.671875 34.8125 
L 19.671875 0 
L 9.8125 0 
z
" id="DejaVuSans-46"/>
     </defs>
     <g transform="translate(94.6 72.748562)scale(0.1 -0.1)">
      <use xlink:href="#DejaVuSans-46"/>
      <use x="57.410156" xlink:href="#DejaVuSans-69"/>
      <use x="85.193359" xlink:href="#DejaVuSans-74"/>
     </g>
    </g>
   </g>
  </g>
 </g>
 <defs>
  <clipPath id="p91ff1c0650">
   <rect height="266.112" width="357.12" x="57.6" y="41.472"/>
  </clipPath>
 </defs>
</svg>
