<?xml version="1.0" encoding="utf-8" standalone="no"?>
<!DOCTYPE svg PUBLIC "-//W3C//DTD SVG 1.1//EN"
  "http://www.w3.org/Graphics/SVG/1.1/DTD/svg11.dtd">
<!-- Created with matplotlib (http://matplotlib.org/) -->
<svg height="345pt" version="1.1" viewBox="0 0 460 345" width="460pt" xmlns="http://www.w3.org/2000/svg" xmlns:xlink="http://www.w3.org/1999/xlink">
 <defs>
  <style type="text/css">
*{stroke-linecap:butt;stroke-linejoin:round;}
  </style>
 </defs>
 <g id="figure_1">
  <g id="patch_1">
   <path d="M 0 345.6 
L 460.8 345.6 
L 460.8 0 
L 0 0 
z
" style="fill:#ffffff;"/>
  </g>
  <g id="axes_1">
   <g id="patch_2">
    <path d="M 57.6 307.584 
L 414.72 307.584 
L 414.72 41.472 
L 57.6 41.472 
z
" style="fill:#ffffff;"/>
   </g>
   <g id="matplotlib.axis_1">
    <g id="xtick_1">
     <g id="line2d_1">
      <path clip-path="url(#p5fba13598d)" d="M 73.832727 307.584 
L 73.832727 41.472 
" style="fill:none;stroke:#b0b0b0;stroke-linecap:square;stroke-width:0.8;"/>
     </g>
     <g id="line2d_2">
      <defs>
       <path d="M 0 0 
L 0 3.5 
" id="m58a801ca4d" style="stroke:#000000;stroke-width:0.8;"/>
      </defs>
      <g>
       <use style="stroke:#000000;stroke-width:0.8;" x="73.832727" xlink:href="#m58a801ca4d" y="307.584"/>
      </g>
     </g>
     <g id="text_1">
      <!-- 0 -->
      <defs>
       <path d="M 31.78125 66.40625 
Q 24.171875 66.40625 20.328125 58.90625 
Q 16.5 51.421875 16.5 36.375 
Q 16.5 21.390625 20.328125 13.890625 
Q 24.171875 6.390625 31.78125 6.390625 
Q 39.453125 6.390625 43.28125 13.890625 
Q 47.125 21.390625 47.125 36.375 
Q 47.125 51.421875 43.28125 58.90625 
Q 39.453125 66.40625 31.78125 66.40625 
z
M 31.78125 74.21875 
Q 44.046875 74.21875 50.515625 64.515625 
Q 56.984375 54.828125 56.984375 36.375 
Q 56.984375 17.96875 50.515625 8.265625 
Q 44.046875 -1.421875 31.78125 -1.421875 
Q 19.53125 -1.421875 13.0625 8.265625 
Q 6.59375 17.96875 6.59375 36.375 
Q 6.59375 54.828125 13.0625 64.515625 
Q 19.53125 74.21875 31.78125 74.21875 
z
" id="DejaVuSans-30"/>
      </defs>
      <g transform="translate(70.651477 322.182437)scale(0.1 -0.1)">
       <use xlink:href="#DejaVuSans-30"/>
      </g>
     </g>
    </g>
    <g id="xtick_2">
     <g id="line2d_3">
      <path clip-path="url(#p5fba13598d)" d="M 127.907571 307.584 
L 127.907571 41.472 
" style="fill:none;stroke:#b0b0b0;stroke-linecap:square;stroke-width:0.8;"/>
     </g>
     <g id="line2d_4">
      <g>
       <use style="stroke:#000000;stroke-width:0.8;" x="127.907571" xlink:href="#m58a801ca4d" y="307.584"/>
      </g>
     </g>
     <g id="text_2">
      <!-- 10 -->
      <defs>
       <path d="M 12.40625 8.296875 
L 28.515625 8.296875 
L 28.515625 63.921875 
L 10.984375 60.40625 
L 10.984375 69.390625 
L 28.421875 72.90625 
L 38.28125 72.90625 
L 38.28125 8.296875 
L 54.390625 8.296875 
L 54.390625 0 
L 12.40625 0 
z
" id="DejaVuSans-31"/>
      </defs>
      <g transform="translate(121.545071 322.182437)scale(0.1 -0.1)">
       <use xlink:href="#DejaVuSans-31"/>
       <use x="63.623047" xlink:href="#DejaVuSans-30"/>
      </g>
     </g>
    </g>
    <g id="xtick_3">
     <g id="line2d_5">
      <path clip-path="url(#p5fba13598d)" d="M 181.982414 307.584 
L 181.982414 41.472 
" style="fill:none;stroke:#b0b0b0;stroke-linecap:square;stroke-width:0.8;"/>
     </g>
     <g id="line2d_6">
      <g>
       <use style="stroke:#000000;stroke-width:0.8;" x="181.982414" xlink:href="#m58a801ca4d" y="307.584"/>
      </g>
     </g>
     <g id="text_3">
      <!-- 20 -->
      <defs>
       <path d="M 19.1875 8.296875 
L 53.609375 8.296875 
L 53.609375 0 
L 7.328125 0 
L 7.328125 8.296875 
Q 12.9375 14.109375 22.625 23.890625 
Q 32.328125 33.6875 34.8125 36.53125 
Q 39.546875 41.84375 41.421875 45.53125 
Q 43.3125 49.21875 43.3125 52.78125 
Q 43.3125 58.59375 39.234375 62.25 
Q 35.15625 65.921875 28.609375 65.921875 
Q 23.96875 65.921875 18.8125 64.3125 
Q 13.671875 62.703125 7.8125 59.421875 
L 7.8125 69.390625 
Q 13.765625 71.78125 18.9375 73 
Q 24.125 74.21875 28.421875 74.21875 
Q 39.75 74.21875 46.484375 68.546875 
Q 53.21875 62.890625 53.21875 53.421875 
Q 53.21875 48.921875 51.53125 44.890625 
Q 49.859375 40.875 45.40625 35.40625 
Q 44.1875 33.984375 37.640625 27.21875 
Q 31.109375 20.453125 19.1875 8.296875 
z
" id="DejaVuSans-32"/>
      </defs>
      <g transform="translate(175.619914 322.182437)scale(0.1 -0.1)">
       <use xlink:href="#DejaVuSans-32"/>
       <use x="63.623047" xlink:href="#DejaVuSans-30"/>
      </g>
     </g>
    </g>
    <g id="xtick_4">
     <g id="line2d_7">
      <path clip-path="url(#p5fba13598d)" d="M 236.057258 307.584 
L 236.057258 41.472 
" style="fill:none;stroke:#b0b0b0;stroke-linecap:square;stroke-width:0.8;"/>
     </g>
     <g id="line2d_8">
      <g>
       <use style="stroke:#000000;stroke-width:0.8;" x="236.057258" xlink:href="#m58a801ca4d" y="307.584"/>
      </g>
     </g>
     <g id="text_4">
      <!-- 30 -->
      <defs>
       <path d="M 40.578125 39.3125 
Q 47.65625 37.796875 51.625 33 
Q 55.609375 28.21875 55.609375 21.1875 
Q 55.609375 10.40625 48.1875 4.484375 
Q 40.765625 -1.421875 27.09375 -1.421875 
Q 22.515625 -1.421875 17.65625 -0.515625 
Q 12.796875 0.390625 7.625 2.203125 
L 7.625 11.71875 
Q 11.71875 9.328125 16.59375 8.109375 
Q 21.484375 6.890625 26.8125 6.890625 
Q 36.078125 6.890625 40.9375 10.546875 
Q 45.796875 14.203125 45.796875 21.1875 
Q 45.796875 27.640625 41.28125 31.265625 
Q 36.765625 34.90625 28.71875 34.90625 
L 20.21875 34.90625 
L 20.21875 43.015625 
L 29.109375 43.015625 
Q 36.375 43.015625 40.234375 45.921875 
Q 44.09375 48.828125 44.09375 54.296875 
Q 44.09375 59.90625 40.109375 62.90625 
Q 36.140625 65.921875 28.71875 65.921875 
Q 24.65625 65.921875 20.015625 65.03125 
Q 15.375 64.15625 9.8125 62.3125 
L 9.8125 71.09375 
Q 15.4375 72.65625 20.34375 73.4375 
Q 25.25 74.21875 29.59375 74.21875 
Q 40.828125 74.21875 47.359375 69.109375 
Q 53.90625 64.015625 53.90625 55.328125 
Q 53.90625 49.265625 50.4375 45.09375 
Q 46.96875 40.921875 40.578125 39.3125 
z
" id="DejaVuSans-33"/>
      </defs>
      <g transform="translate(229.694758 322.182437)scale(0.1 -0.1)">
       <use xlink:href="#DejaVuSans-33"/>
       <use x="63.623047" xlink:href="#DejaVuSans-30"/>
      </g>
     </g>
    </g>
    <g id="xtick_5">
     <g id="line2d_9">
      <path clip-path="url(#p5fba13598d)" d="M 290.132101 307.584 
L 290.132101 41.472 
" style="fill:none;stroke:#b0b0b0;stroke-linecap:square;stroke-width:0.8;"/>
     </g>
     <g id="line2d_10">
      <g>
       <use style="stroke:#000000;stroke-width:0.8;" x="290.132101" xlink:href="#m58a801ca4d" y="307.584"/>
      </g>
     </g>
     <g id="text_5">
      <!-- 40 -->
      <defs>
       <path d="M 37.796875 64.3125 
L 12.890625 25.390625 
L 37.796875 25.390625 
z
M 35.203125 72.90625 
L 47.609375 72.90625 
L 47.609375 25.390625 
L 58.015625 25.390625 
L 58.015625 17.1875 
L 47.609375 17.1875 
L 47.609375 0 
L 37.796875 0 
L 37.796875 17.1875 
L 4.890625 17.1875 
L 4.890625 26.703125 
z
" id="DejaVuSans-34"/>
      </defs>
      <g transform="translate(283.769601 322.182437)scale(0.1 -0.1)">
       <use xlink:href="#DejaVuSans-34"/>
       <use x="63.623047" xlink:href="#DejaVuSans-30"/>
      </g>
     </g>
    </g>
    <g id="xtick_6">
     <g id="line2d_11">
      <path clip-path="url(#p5fba13598d)" d="M 344.206944 307.584 
L 344.206944 41.472 
" style="fill:none;stroke:#b0b0b0;stroke-linecap:square;stroke-width:0.8;"/>
     </g>
     <g id="line2d_12">
      <g>
       <use style="stroke:#000000;stroke-width:0.8;" x="344.206944" xlink:href="#m58a801ca4d" y="307.584"/>
      </g>
     </g>
     <g id="text_6">
      <!-- 50 -->
      <defs>
       <path d="M 10.796875 72.90625 
L 49.515625 72.90625 
L 49.515625 64.59375 
L 19.828125 64.59375 
L 19.828125 46.734375 
Q 21.96875 47.46875 24.109375 47.828125 
Q 26.265625 48.1875 28.421875 48.1875 
Q 40.625 48.1875 47.75 41.5 
Q 54.890625 34.8125 54.890625 23.390625 
Q 54.890625 11.625 47.5625 5.09375 
Q 40.234375 -1.421875 26.90625 -1.421875 
Q 22.3125 -1.421875 17.546875 -0.640625 
Q 12.796875 0.140625 7.71875 1.703125 
L 7.71875 11.625 
Q 12.109375 9.234375 16.796875 8.0625 
Q 21.484375 6.890625 26.703125 6.890625 
Q 35.15625 6.890625 40.078125 11.328125 
Q 45.015625 15.765625 45.015625 23.390625 
Q 45.015625 31 40.078125 35.4375 
Q 35.15625 39.890625 26.703125 39.890625 
Q 22.75 39.890625 18.8125 39.015625 
Q 14.890625 38.140625 10.796875 36.28125 
z
" id="DejaVuSans-35"/>
      </defs>
      <g transform="translate(337.844444 322.182437)scale(0.1 -0.1)">
       <use xlink:href="#DejaVuSans-35"/>
       <use x="63.623047" xlink:href="#DejaVuSans-30"/>
      </g>
     </g>
    </g>
    <g id="xtick_7">
     <g id="line2d_13">
      <path clip-path="url(#p5fba13598d)" d="M 398.281788 307.584 
L 398.281788 41.472 
" style="fill:none;stroke:#b0b0b0;stroke-linecap:square;stroke-width:0.8;"/>
     </g>
     <g id="line2d_14">
      <g>
       <use style="stroke:#000000;stroke-width:0.8;" x="398.281788" xlink:href="#m58a801ca4d" y="307.584"/>
      </g>
     </g>
     <g id="text_7">
      <!-- 60 -->
      <defs>
       <path d="M 33.015625 40.375 
Q 26.375 40.375 22.484375 35.828125 
Q 18.609375 31.296875 18.609375 23.390625 
Q 18.609375 15.53125 22.484375 10.953125 
Q 26.375 6.390625 33.015625 6.390625 
Q 39.65625 6.390625 43.53125 10.953125 
Q 47.40625 15.53125 47.40625 23.390625 
Q 47.40625 31.296875 43.53125 35.828125 
Q 39.65625 40.375 33.015625 40.375 
z
M 52.59375 71.296875 
L 52.59375 62.3125 
Q 48.875 64.0625 45.09375 64.984375 
Q 41.3125 65.921875 37.59375 65.921875 
Q 27.828125 65.921875 22.671875 59.328125 
Q 17.53125 52.734375 16.796875 39.40625 
Q 19.671875 43.65625 24.015625 45.921875 
Q 28.375 48.1875 33.59375 48.1875 
Q 44.578125 48.1875 50.953125 41.515625 
Q 57.328125 34.859375 57.328125 23.390625 
Q 57.328125 12.15625 50.6875 5.359375 
Q 44.046875 -1.421875 33.015625 -1.421875 
Q 20.359375 -1.421875 13.671875 8.265625 
Q 6.984375 17.96875 6.984375 36.375 
Q 6.984375 53.65625 15.1875 63.9375 
Q 23.390625 74.21875 37.203125 74.21875 
Q 40.921875 74.21875 44.703125 73.484375 
Q 48.484375 72.75 52.59375 71.296875 
z
" id="DejaVuSans-36"/>
      </defs>
      <g transform="translate(391.919288 322.182437)scale(0.1 -0.1)">
       <use xlink:href="#DejaVuSans-36"/>
       <use x="63.623047" xlink:href="#DejaVuSans-30"/>
      </g>
     </g>
    </g>
    <g id="text_8">
     <!-- t(s) -->
     <defs>
      <path d="M 18.3125 70.21875 
L 18.3125 54.6875 
L 36.8125 54.6875 
L 36.8125 47.703125 
L 18.3125 47.703125 
L 18.3125 18.015625 
Q 18.3125 11.328125 20.140625 9.421875 
Q 21.96875 7.515625 27.59375 7.515625 
L 36.8125 7.515625 
L 36.8125 0 
L 27.59375 0 
Q 17.1875 0 13.234375 3.875 
Q 9.28125 7.765625 9.28125 18.015625 
L 9.28125 47.703125 
L 2.6875 47.703125 
L 2.6875 54.6875 
L 9.28125 54.6875 
L 9.28125 70.21875 
z
" id="DejaVuSans-74"/>
      <path d="M 31 75.875 
Q 24.46875 64.65625 21.28125 53.65625 
Q 18.109375 42.671875 18.109375 31.390625 
Q 18.109375 20.125 21.3125 9.0625 
Q 24.515625 -2 31 -13.1875 
L 23.1875 -13.1875 
Q 15.875 -1.703125 12.234375 9.375 
Q 8.59375 20.453125 8.59375 31.390625 
Q 8.59375 42.28125 12.203125 53.3125 
Q 15.828125 64.359375 23.1875 75.875 
z
" id="DejaVuSans-28"/>
      <path d="M 44.28125 53.078125 
L 44.28125 44.578125 
Q 40.484375 46.53125 36.375 47.5 
Q 32.28125 48.484375 27.875 48.484375 
Q 21.1875 48.484375 17.84375 46.4375 
Q 14.5 44.390625 14.5 40.28125 
Q 14.5 37.15625 16.890625 35.375 
Q 19.28125 33.59375 26.515625 31.984375 
L 29.59375 31.296875 
Q 39.15625 29.25 43.1875 25.515625 
Q 47.21875 21.78125 47.21875 15.09375 
Q 47.21875 7.46875 41.1875 3.015625 
Q 35.15625 -1.421875 24.609375 -1.421875 
Q 20.21875 -1.421875 15.453125 -0.5625 
Q 10.6875 0.296875 5.421875 2 
L 5.421875 11.28125 
Q 10.40625 8.6875 15.234375 7.390625 
Q 20.0625 6.109375 24.8125 6.109375 
Q 31.15625 6.109375 34.5625 8.28125 
Q 37.984375 10.453125 37.984375 14.40625 
Q 37.984375 18.0625 35.515625 20.015625 
Q 33.0625 21.96875 24.703125 23.78125 
L 21.578125 24.515625 
Q 13.234375 26.265625 9.515625 29.90625 
Q 5.8125 33.546875 5.8125 39.890625 
Q 5.8125 47.609375 11.28125 51.796875 
Q 16.75 56 26.8125 56 
Q 31.78125 56 36.171875 55.265625 
Q 40.578125 54.546875 44.28125 53.078125 
z
" id="DejaVuSans-73"/>
      <path d="M 8.015625 75.875 
L 15.828125 75.875 
Q 23.140625 64.359375 26.78125 53.3125 
Q 30.421875 42.28125 30.421875 31.390625 
Q 30.421875 20.453125 26.78125 9.375 
Q 23.140625 -1.703125 15.828125 -13.1875 
L 8.015625 -13.1875 
Q 14.5 -2 17.703125 9.0625 
Q 20.90625 20.125 20.90625 31.390625 
Q 20.90625 42.671875 17.703125 53.65625 
Q 14.5 64.65625 8.015625 75.875 
z
" id="DejaVuSans-29"/>
     </defs>
     <g transform="translate(227.693594 335.860562)scale(0.1 -0.1)">
      <use xlink:href="#DejaVuSans-74"/>
      <use x="39.208984" xlink:href="#DejaVuSans-28"/>
      <use x="78.222656" xlink:href="#DejaVuSans-73"/>
      <use x="130.322266" xlink:href="#DejaVuSans-29"/>
     </g>
    </g>
   </g>
   <g id="matplotlib.axis_2">
    <g id="ytick_1">
     <g id="line2d_15">
      <path clip-path="url(#p5fba13598d)" d="M 57.6 287.61382 
L 414.72 287.61382 
" style="fill:none;stroke:#b0b0b0;stroke-linecap:square;stroke-width:0.8;"/>
     </g>
     <g id="line2d_16">
      <defs>
       <path d="M 0 0 
L -3.5 0 
" id="m21f007f21f" style="stroke:#000000;stroke-width:0.8;"/>
      </defs>
      <g>
       <use style="stroke:#000000;stroke-width:0.8;" x="57.6" xlink:href="#m21f007f21f" y="287.61382"/>
      </g>
     </g>
     <g id="text_9">
      <!-- 2.46 -->
      <defs>
       <path d="M 10.6875 12.40625 
L 21 12.40625 
L 21 0 
L 10.6875 0 
z
" id="DejaVuSans-2e"/>
      </defs>
      <g transform="translate(28.334375 291.413039)scale(0.1 -0.1)">
       <use xlink:href="#DejaVuSans-32"/>
       <use x="63.623047" xlink:href="#DejaVuSans-2e"/>
       <use x="95.410156" xlink:href="#DejaVuSans-34"/>
       <use x="159.033203" xlink:href="#DejaVuSans-36"/>
      </g>
     </g>
    </g>
    <g id="ytick_2">
     <g id="line2d_17">
      <path clip-path="url(#p5fba13598d)" d="M 57.6 245.279521 
L 414.72 245.279521 
" style="fill:none;stroke:#b0b0b0;stroke-linecap:square;stroke-width:0.8;"/>
     </g>
     <g id="line2d_18">
      <g>
       <use style="stroke:#000000;stroke-width:0.8;" x="57.6" xlink:href="#m21f007f21f" y="245.279521"/>
      </g>
     </g>
     <g id="text_10">
      <!-- 2.47 -->
      <defs>
       <path d="M 8.203125 72.90625 
L 55.078125 72.90625 
L 55.078125 68.703125 
L 28.609375 0 
L 18.3125 0 
L 43.21875 64.59375 
L 8.203125 64.59375 
z
" id="DejaVuSans-37"/>
      </defs>
      <g transform="translate(28.334375 249.07874)scale(0.1 -0.1)">
       <use xlink:href="#DejaVuSans-32"/>
       <use x="63.623047" xlink:href="#DejaVuSans-2e"/>
       <use x="95.410156" xlink:href="#DejaVuSans-34"/>
       <use x="159.033203" xlink:href="#DejaVuSans-37"/>
      </g>
     </g>
    </g>
    <g id="ytick_3">
     <g id="line2d_19">
      <path clip-path="url(#p5fba13598d)" d="M 57.6 202.945222 
L 414.72 202.945222 
" style="fill:none;stroke:#b0b0b0;stroke-linecap:square;stroke-width:0.8;"/>
     </g>
     <g id="line2d_20">
      <g>
       <use style="stroke:#000000;stroke-width:0.8;" x="57.6" xlink:href="#m21f007f21f" y="202.945222"/>
      </g>
     </g>
     <g id="text_11">
      <!-- 2.48 -->
      <defs>
       <path d="M 31.78125 34.625 
Q 24.75 34.625 20.71875 30.859375 
Q 16.703125 27.09375 16.703125 20.515625 
Q 16.703125 13.921875 20.71875 10.15625 
Q 24.75 6.390625 31.78125 6.390625 
Q 38.8125 6.390625 42.859375 10.171875 
Q 46.921875 13.96875 46.921875 20.515625 
Q 46.921875 27.09375 42.890625 30.859375 
Q 38.875 34.625 31.78125 34.625 
z
M 21.921875 38.8125 
Q 15.578125 40.375 12.03125 44.71875 
Q 8.5 49.078125 8.5 55.328125 
Q 8.5 64.0625 14.71875 69.140625 
Q 20.953125 74.21875 31.78125 74.21875 
Q 42.671875 74.21875 48.875 69.140625 
Q 55.078125 64.0625 55.078125 55.328125 
Q 55.078125 49.078125 51.53125 44.71875 
Q 48 40.375 41.703125 38.8125 
Q 48.828125 37.15625 52.796875 32.3125 
Q 56.78125 27.484375 56.78125 20.515625 
Q 56.78125 9.90625 50.3125 4.234375 
Q 43.84375 -1.421875 31.78125 -1.421875 
Q 19.734375 -1.421875 13.25 4.234375 
Q 6.78125 9.90625 6.78125 20.515625 
Q 6.78125 27.484375 10.78125 32.3125 
Q 14.796875 37.15625 21.921875 38.8125 
z
M 18.3125 54.390625 
Q 18.3125 48.734375 21.84375 45.5625 
Q 25.390625 42.390625 31.78125 42.390625 
Q 38.140625 42.390625 41.71875 45.5625 
Q 45.3125 48.734375 45.3125 54.390625 
Q 45.3125 60.0625 41.71875 63.234375 
Q 38.140625 66.40625 31.78125 66.40625 
Q 25.390625 66.40625 21.84375 63.234375 
Q 18.3125 60.0625 18.3125 54.390625 
z
" id="DejaVuSans-38"/>
      </defs>
      <g transform="translate(28.334375 206.744441)scale(0.1 -0.1)">
       <use xlink:href="#DejaVuSans-32"/>
       <use x="63.623047" xlink:href="#DejaVuSans-2e"/>
       <use x="95.410156" xlink:href="#DejaVuSans-34"/>
       <use x="159.033203" xlink:href="#DejaVuSans-38"/>
      </g>
     </g>
    </g>
    <g id="ytick_4">
     <g id="line2d_21">
      <path clip-path="url(#p5fba13598d)" d="M 57.6 160.610923 
L 414.72 160.610923 
" style="fill:none;stroke:#b0b0b0;stroke-linecap:square;stroke-width:0.8;"/>
     </g>
     <g id="line2d_22">
      <g>
       <use style="stroke:#000000;stroke-width:0.8;" x="57.6" xlink:href="#m21f007f21f" y="160.610923"/>
      </g>
     </g>
     <g id="text_12">
      <!-- 2.49 -->
      <defs>
       <path d="M 10.984375 1.515625 
L 10.984375 10.5 
Q 14.703125 8.734375 18.5 7.8125 
Q 22.3125 6.890625 25.984375 6.890625 
Q 35.75 6.890625 40.890625 13.453125 
Q 46.046875 20.015625 46.78125 33.40625 
Q 43.953125 29.203125 39.59375 26.953125 
Q 35.25 24.703125 29.984375 24.703125 
Q 19.046875 24.703125 12.671875 31.3125 
Q 6.296875 37.9375 6.296875 49.421875 
Q 6.296875 60.640625 12.9375 67.421875 
Q 19.578125 74.21875 30.609375 74.21875 
Q 43.265625 74.21875 49.921875 64.515625 
Q 56.59375 54.828125 56.59375 36.375 
Q 56.59375 19.140625 48.40625 8.859375 
Q 40.234375 -1.421875 26.421875 -1.421875 
Q 22.703125 -1.421875 18.890625 -0.6875 
Q 15.09375 0.046875 10.984375 1.515625 
z
M 30.609375 32.421875 
Q 37.25 32.421875 41.125 36.953125 
Q 45.015625 41.5 45.015625 49.421875 
Q 45.015625 57.28125 41.125 61.84375 
Q 37.25 66.40625 30.609375 66.40625 
Q 23.96875 66.40625 20.09375 61.84375 
Q 16.21875 57.28125 16.21875 49.421875 
Q 16.21875 41.5 20.09375 36.953125 
Q 23.96875 32.421875 30.609375 32.421875 
z
" id="DejaVuSans-39"/>
      </defs>
      <g transform="translate(28.334375 164.410141)scale(0.1 -0.1)">
       <use xlink:href="#DejaVuSans-32"/>
       <use x="63.623047" xlink:href="#DejaVuSans-2e"/>
       <use x="95.410156" xlink:href="#DejaVuSans-34"/>
       <use x="159.033203" xlink:href="#DejaVuSans-39"/>
      </g>
     </g>
    </g>
    <g id="ytick_5">
     <g id="line2d_23">
      <path clip-path="url(#p5fba13598d)" d="M 57.6 118.276623 
L 414.72 118.276623 
" style="fill:none;stroke:#b0b0b0;stroke-linecap:square;stroke-width:0.8;"/>
     </g>
     <g id="line2d_24">
      <g>
       <use style="stroke:#000000;stroke-width:0.8;" x="57.6" xlink:href="#m21f007f21f" y="118.276623"/>
      </g>
     </g>
     <g id="text_13">
      <!-- 2.50 -->
      <g transform="translate(28.334375 122.075842)scale(0.1 -0.1)">
       <use xlink:href="#DejaVuSans-32"/>
       <use x="63.623047" xlink:href="#DejaVuSans-2e"/>
       <use x="95.410156" xlink:href="#DejaVuSans-35"/>
       <use x="159.033203" xlink:href="#DejaVuSans-30"/>
      </g>
     </g>
    </g>
    <g id="ytick_6">
     <g id="line2d_25">
      <path clip-path="url(#p5fba13598d)" d="M 57.6 75.942324 
L 414.72 75.942324 
" style="fill:none;stroke:#b0b0b0;stroke-linecap:square;stroke-width:0.8;"/>
     </g>
     <g id="line2d_26">
      <g>
       <use style="stroke:#000000;stroke-width:0.8;" x="57.6" xlink:href="#m21f007f21f" y="75.942324"/>
      </g>
     </g>
     <g id="text_14">
      <!-- 2.51 -->
      <g transform="translate(28.334375 79.741543)scale(0.1 -0.1)">
       <use xlink:href="#DejaVuSans-32"/>
       <use x="63.623047" xlink:href="#DejaVuSans-2e"/>
       <use x="95.410156" xlink:href="#DejaVuSans-35"/>
       <use x="159.033203" xlink:href="#DejaVuSans-31"/>
      </g>
     </g>
    </g>
    <g id="text_15">
     <!-- Resistance (Ohm) -->
     <defs>
      <path d="M 44.390625 34.1875 
Q 47.5625 33.109375 50.5625 29.59375 
Q 53.5625 26.078125 56.59375 19.921875 
L 66.609375 0 
L 56 0 
L 46.6875 18.703125 
Q 43.0625 26.03125 39.671875 28.421875 
Q 36.28125 30.8125 30.421875 30.8125 
L 19.671875 30.8125 
L 19.671875 0 
L 9.8125 0 
L 9.8125 72.90625 
L 32.078125 72.90625 
Q 44.578125 72.90625 50.734375 67.671875 
Q 56.890625 62.453125 56.890625 51.90625 
Q 56.890625 45.015625 53.6875 40.46875 
Q 50.484375 35.9375 44.390625 34.1875 
z
M 19.671875 64.796875 
L 19.671875 38.921875 
L 32.078125 38.921875 
Q 39.203125 38.921875 42.84375 42.21875 
Q 46.484375 45.515625 46.484375 51.90625 
Q 46.484375 58.296875 42.84375 61.546875 
Q 39.203125 64.796875 32.078125 64.796875 
z
" id="DejaVuSans-52"/>
      <path d="M 56.203125 29.59375 
L 56.203125 25.203125 
L 14.890625 25.203125 
Q 15.484375 15.921875 20.484375 11.0625 
Q 25.484375 6.203125 34.421875 6.203125 
Q 39.59375 6.203125 44.453125 7.46875 
Q 49.3125 8.734375 54.109375 11.28125 
L 54.109375 2.78125 
Q 49.265625 0.734375 44.1875 -0.34375 
Q 39.109375 -1.421875 33.890625 -1.421875 
Q 20.796875 -1.421875 13.15625 6.1875 
Q 5.515625 13.8125 5.515625 26.8125 
Q 5.515625 40.234375 12.765625 48.109375 
Q 20.015625 56 32.328125 56 
Q 43.359375 56 49.78125 48.890625 
Q 56.203125 41.796875 56.203125 29.59375 
z
M 47.21875 32.234375 
Q 47.125 39.59375 43.09375 43.984375 
Q 39.0625 48.390625 32.421875 48.390625 
Q 24.90625 48.390625 20.390625 44.140625 
Q 15.875 39.890625 15.1875 32.171875 
z
" id="DejaVuSans-65"/>
      <path d="M 9.421875 54.6875 
L 18.40625 54.6875 
L 18.40625 0 
L 9.421875 0 
z
M 9.421875 75.984375 
L 18.40625 75.984375 
L 18.40625 64.59375 
L 9.421875 64.59375 
z
" id="DejaVuSans-69"/>
      <path d="M 34.28125 27.484375 
Q 23.390625 27.484375 19.1875 25 
Q 14.984375 22.515625 14.984375 16.5 
Q 14.984375 11.71875 18.140625 8.90625 
Q 21.296875 6.109375 26.703125 6.109375 
Q 34.1875 6.109375 38.703125 11.40625 
Q 43.21875 16.703125 43.21875 25.484375 
L 43.21875 27.484375 
z
M 52.203125 31.203125 
L 52.203125 0 
L 43.21875 0 
L 43.21875 8.296875 
Q 40.140625 3.328125 35.546875 0.953125 
Q 30.953125 -1.421875 24.3125 -1.421875 
Q 15.921875 -1.421875 10.953125 3.296875 
Q 6 8.015625 6 15.921875 
Q 6 25.140625 12.171875 29.828125 
Q 18.359375 34.515625 30.609375 34.515625 
L 43.21875 34.515625 
L 43.21875 35.40625 
Q 43.21875 41.609375 39.140625 45 
Q 35.0625 48.390625 27.6875 48.390625 
Q 23 48.390625 18.546875 47.265625 
Q 14.109375 46.140625 10.015625 43.890625 
L 10.015625 52.203125 
Q 14.9375 54.109375 19.578125 55.046875 
Q 24.21875 56 28.609375 56 
Q 40.484375 56 46.34375 49.84375 
Q 52.203125 43.703125 52.203125 31.203125 
z
" id="DejaVuSans-61"/>
      <path d="M 54.890625 33.015625 
L 54.890625 0 
L 45.90625 0 
L 45.90625 32.71875 
Q 45.90625 40.484375 42.875 44.328125 
Q 39.84375 48.1875 33.796875 48.1875 
Q 26.515625 48.1875 22.3125 43.546875 
Q 18.109375 38.921875 18.109375 30.90625 
L 18.109375 0 
L 9.078125 0 
L 9.078125 54.6875 
L 18.109375 54.6875 
L 18.109375 46.1875 
Q 21.34375 51.125 25.703125 53.5625 
Q 30.078125 56 35.796875 56 
Q 45.21875 56 50.046875 50.171875 
Q 54.890625 44.34375 54.890625 33.015625 
z
" id="DejaVuSans-6e"/>
      <path d="M 48.78125 52.59375 
L 48.78125 44.1875 
Q 44.96875 46.296875 41.140625 47.34375 
Q 37.3125 48.390625 33.40625 48.390625 
Q 24.65625 48.390625 19.8125 42.84375 
Q 14.984375 37.3125 14.984375 27.296875 
Q 14.984375 17.28125 19.8125 11.734375 
Q 24.65625 6.203125 33.40625 6.203125 
Q 37.3125 6.203125 41.140625 7.25 
Q 44.96875 8.296875 48.78125 10.40625 
L 48.78125 2.09375 
Q 45.015625 0.34375 40.984375 -0.53125 
Q 36.96875 -1.421875 32.421875 -1.421875 
Q 20.0625 -1.421875 12.78125 6.34375 
Q 5.515625 14.109375 5.515625 27.296875 
Q 5.515625 40.671875 12.859375 48.328125 
Q 20.21875 56 33.015625 56 
Q 37.15625 56 41.109375 55.140625 
Q 45.0625 54.296875 48.78125 52.59375 
z
" id="DejaVuSans-63"/>
      <path id="DejaVuSans-20"/>
      <path d="M 39.40625 66.21875 
Q 28.65625 66.21875 22.328125 58.203125 
Q 16.015625 50.203125 16.015625 36.375 
Q 16.015625 22.609375 22.328125 14.59375 
Q 28.65625 6.59375 39.40625 6.59375 
Q 50.140625 6.59375 56.421875 14.59375 
Q 62.703125 22.609375 62.703125 36.375 
Q 62.703125 50.203125 56.421875 58.203125 
Q 50.140625 66.21875 39.40625 66.21875 
z
M 39.40625 74.21875 
Q 54.734375 74.21875 63.90625 63.9375 
Q 73.09375 53.65625 73.09375 36.375 
Q 73.09375 19.140625 63.90625 8.859375 
Q 54.734375 -1.421875 39.40625 -1.421875 
Q 24.03125 -1.421875 14.8125 8.828125 
Q 5.609375 19.09375 5.609375 36.375 
Q 5.609375 53.65625 14.8125 63.9375 
Q 24.03125 74.21875 39.40625 74.21875 
z
" id="DejaVuSans-4f"/>
      <path d="M 54.890625 33.015625 
L 54.890625 0 
L 45.90625 0 
L 45.90625 32.71875 
Q 45.90625 40.484375 42.875 44.328125 
Q 39.84375 48.1875 33.796875 48.1875 
Q 26.515625 48.1875 22.3125 43.546875 
Q 18.109375 38.921875 18.109375 30.90625 
L 18.109375 0 
L 9.078125 0 
L 9.078125 75.984375 
L 18.109375 75.984375 
L 18.109375 46.1875 
Q 21.34375 51.125 25.703125 53.5625 
Q 30.078125 56 35.796875 56 
Q 45.21875 56 50.046875 50.171875 
Q 54.890625 44.34375 54.890625 33.015625 
z
" id="DejaVuSans-68"/>
      <path d="M 52 44.1875 
Q 55.375 50.25 60.0625 53.125 
Q 64.75 56 71.09375 56 
Q 79.640625 56 84.28125 50.015625 
Q 88.921875 44.046875 88.921875 33.015625 
L 88.921875 0 
L 79.890625 0 
L 79.890625 32.71875 
Q 79.890625 40.578125 77.09375 44.375 
Q 74.3125 48.1875 68.609375 48.1875 
Q 61.625 48.1875 57.5625 43.546875 
Q 53.515625 38.921875 53.515625 30.90625 
L 53.515625 0 
L 44.484375 0 
L 44.484375 32.71875 
Q 44.484375 40.625 41.703125 44.40625 
Q 38.921875 48.1875 33.109375 48.1875 
Q 26.21875 48.1875 22.15625 43.53125 
Q 18.109375 38.875 18.109375 30.90625 
L 18.109375 0 
L 9.078125 0 
L 9.078125 54.6875 
L 18.109375 54.6875 
L 18.109375 46.1875 
Q 21.1875 51.21875 25.484375 53.609375 
Q 29.78125 56 35.6875 56 
Q 41.65625 56 45.828125 52.96875 
Q 50 49.953125 52 44.1875 
z
" id="DejaVuSans-6d"/>
     </defs>
     <g transform="translate(22.254687 219.158469)rotate(-90)scale(0.1 -0.1)">
      <use xlink:href="#DejaVuSans-52"/>
      <use x="69.419922" xlink:href="#DejaVuSans-65"/>
      <use x="130.943359" xlink:href="#DejaVuSans-73"/>
      <use x="183.042969" xlink:href="#DejaVuSans-69"/>
      <use x="210.826172" xlink:href="#DejaVuSans-73"/>
      <use x="262.925781" xlink:href="#DejaVuSans-74"/>
      <use x="302.134766" xlink:href="#DejaVuSans-61"/>
      <use x="363.414062" xlink:href="#DejaVuSans-6e"/>
      <use x="426.792969" xlink:href="#DejaVuSans-63"/>
      <use x="481.773438" xlink:href="#DejaVuSans-65"/>
      <use x="543.296875" xlink:href="#DejaVuSans-20"/>
      <use x="575.083984" xlink:href="#DejaVuSans-28"/>
      <use x="614.097656" xlink:href="#DejaVuSans-4f"/>
      <use x="692.808594" xlink:href="#DejaVuSans-68"/>
      <use x="756.1875" xlink:href="#DejaVuSans-6d"/>
      <use x="853.599609" xlink:href="#DejaVuSans-29"/>
     </g>
    </g>
    <g id="text_16">
     <!-- 1e7 -->
     <g transform="translate(57.6 38.472)scale(0.1 -0.1)">
      <use xlink:href="#DejaVuSans-31"/>
      <use x="63.623047" xlink:href="#DejaVuSans-65"/>
      <use x="125.146484" xlink:href="#DejaVuSans-37"/>
     </g>
    </g>
   </g>
   <g id="line2d_27">
    <path clip-path="url(#p5fba13598d)" d="M 73.832727 233.151893 
L 74.503254 227.690714 
L 75.590159 240.284074 
L 76.130908 243.20514 
L 76.671656 249.450761 
L 77.212405 247.057562 
L 77.753153 244.031917 
L 78.293901 243.247475 
L 79.375398 250.847807 
L 79.916147 248.835602 
L 80.456895 242.973549 
L 82.07914 217.403376 
L 82.619889 217.445711 
L 83.701385 211.688189 
L 84.242134 215.37131 
L 84.788291 224.261601 
L 85.875195 231.373835 
L 86.956692 238.994085 
L 87.502847 238.37903 
L 88.043596 232.305199 
L 88.589751 229.045425 
L 89.671248 218.18557 
L 90.217405 211.51885 
L 90.758154 210.90407 
L 91.304309 207.898335 
L 91.845058 206.204963 
L 92.391213 208.38608 
L 92.931962 209.232775 
L 93.478117 211.857528 
L 94.018865 210.79916 
L 94.559614 215.540649 
L 95.105771 218.123067 
L 95.64652 221.975526 
L 96.733423 239.606725 
L 97.274172 244.432835 
L 97.81492 247.249356 
L 98.355669 259.715517 
L 99.442573 271.484452 
L 99.988728 280.289987 
L 100.534885 281.052004 
L 101.075634 284.546246 
L 101.621789 289.457074 
L 102.162538 288.079498 
L 102.708693 295.488 
L 103.249442 293.201948 
L 103.795597 294.387308 
L 104.336345 294.367902 
L 104.877095 295.172262 
L 105.417842 295.468605 
L 105.958592 288.672178 
L 106.504748 279.127402 
L 108.1324 233.129577 
L 108.673149 226.081994 
L 109.219304 211.645854 
L 110.306209 195.727998 
L 111.928454 188.509226 
L 112.469203 189.44058 
L 113.009951 186.414359 
L 113.550699 188.107748 
L 114.091448 197.780437 
L 114.632196 204.321947 
L 115.172945 208.428415 
L 115.713693 214.651619 
L 116.254441 219.497933 
L 116.79519 229.02315 
L 117.335938 231.77488 
L 117.876687 229.045425 
L 118.422843 230.781149 
L 118.963591 221.086497 
L 119.504341 225.616313 
L 120.050496 223.689029 
L 120.591245 227.648379 
L 121.1374 226.886354 
L 121.678149 230.123842 
L 122.224304 235.500298 
L 123.305801 256.20177 
L 123.846549 254.889407 
L 124.387298 249.450761 
L 124.928046 245.872201 
L 125.468794 237.597039 
L 126.009543 234.272603 
L 127.09104 229.00309 
L 128.172536 221.340506 
L 128.713285 210.71449 
L 129.794783 193.484258 
L 130.335531 180.275825 
L 130.876278 169.988487 
L 131.417028 162.114229 
L 131.957776 160.293836 
L 132.498525 157.626748 
L 133.039273 156.653049 
L 134.12077 147.000733 
L 134.661518 148.333976 
L 135.202267 157.816859 
L 136.283763 165.458672 
L 136.824512 173.649887 
L 137.370668 185.398326 
L 137.911417 203.263579 
L 138.998322 215.752322 
L 139.544477 222.737551 
L 140.631381 243.989582 
L 141.172129 252.26468 
L 141.712878 245.533527 
L 142.253626 242.550202 
L 142.794374 236.496336 
L 143.335123 232.686211 
L 143.875871 231.817214 
L 144.41662 231.797182 
L 144.962777 228.241065 
L 145.503526 230.146128 
L 146.049681 237.470035 
L 146.595836 240.264127 
L 147.136585 239.141048 
L 147.677333 240.729808 
L 148.218082 239.502102 
L 148.764237 231.924186 
L 149.304985 230.61181 
L 149.845734 235.373295 
L 150.386482 234.845282 
L 152.008727 247.122352 
L 152.549476 244.793942 
L 153.090224 244.412929 
L 153.630974 244.178829 
L 154.171721 242.634871 
L 154.712469 232.305199 
L 155.253219 224.769618 
L 155.793966 222.927011 
L 156.334716 222.334331 
L 156.880872 223.838254 
L 157.421621 231.77488 
L 157.967776 230.188463 
L 158.513931 235.226295 
L 159.05468 237.871019 
L 159.600835 238.062721 
L 160.141585 238.443733 
L 160.682333 237.78635 
L 161.22308 235.09929 
L 161.76383 227.690714 
L 162.304578 215.032632 
L 162.845327 214.820958 
L 163.386075 212.32321 
L 163.926823 212.851448 
L 164.467572 208.724758 
L 165.00832 208.152341 
L 165.549069 208.597754 
L 166.089817 209.19044 
L 166.630565 208.978767 
L 167.171314 213.296908 
L 167.712062 216.365195 
L 168.252811 209.317444 
L 168.798967 209.083695 
L 169.339717 209.613787 
L 169.885872 211.137837 
L 170.432027 212.196205 
L 170.972776 211.645854 
L 171.518931 212.111536 
L 172.05968 207.26332 
L 172.600428 204.533621 
L 173.141176 208.660352 
L 173.681925 209.952465 
L 174.222673 214.863293 
L 174.763422 217.488046 
L 175.844918 232.706234 
L 176.385667 231.712513 
L 177.467164 242.677206 
L 178.007912 240.368742 
L 178.54866 235.395633 
L 179.08941 233.57524 
L 180.170907 223.838254 
L 180.717063 216.111189 
L 181.257812 212.534883 
L 181.803967 206.608022 
L 182.344715 196.066676 
L 182.885464 191.875539 
L 183.431619 192.911993 
L 183.972368 190.859505 
L 184.518524 188.277087 
L 185.059271 186.688851 
L 186.140769 200.257814 
L 186.681518 205.104271 
L 187.222266 216.449863 
L 188.303763 230.569475 
L 188.844511 233.57524 
L 189.38526 230.484806 
L 189.926008 226.229086 
L 190.466756 225.997325 
L 191.007505 225.636406 
L 191.548253 222.376665 
L 193.170498 200.320495 
L 193.711247 195.621388 
L 194.251995 195.516325 
L 194.792744 197.357094 
L 195.333492 196.574693 
L 196.414989 197.633061 
L 196.955737 198.52209 
L 197.496486 197.568766 
L 198.577982 197.379053 
L 199.659479 209.19044 
L 200.200229 209.486783 
L 200.740977 208.809428 
L 201.822474 202.902888 
L 202.363222 194.393693 
L 202.903971 184.106459 
L 203.444719 177.629311 
L 203.985467 168.04109 
L 204.526216 163.934622 
L 205.066964 165.331668 
L 205.607713 160.632513 
L 206.148461 159.150798 
L 207.229958 169.628128 
L 208.311455 174.221959 
L 208.852203 174.538907 
L 209.392951 179.365017 
L 210.479856 174.772311 
L 211.020606 175.110989 
L 211.566761 171.914181 
L 212.10751 170.390146 
L 212.653665 169.331788 
L 213.194413 171.216194 
L 213.735162 172.506861 
L 214.281317 171.08919 
L 214.822066 168.591441 
L 215.362814 164.209338 
L 215.903563 167.723085 
L 216.44972 164.18863 
L 216.990468 162.177292 
L 217.531217 167.08807 
L 218.077372 167.934756 
L 218.618121 169.522805 
L 219.705024 176.042352 
L 220.245773 181.291858 
L 221.332677 194.690034 
L 222.414175 199.284115 
L 222.954922 199.749797 
L 223.49567 202.120542 
L 224.03642 201.65486 
L 224.577167 206.650357 
L 225.117917 204.342254 
L 225.658665 198.20378 
L 226.199413 195.282714 
L 227.28091 180.741507 
L 228.367815 172.379858 
L 228.908563 173.883282 
L 229.449312 174.496573 
L 232.163869 204.194943 
L 232.710024 204.807931 
L 233.250773 203.8986 
L 233.791521 200.427153 
L 234.33227 199.770149 
L 234.873018 200.65917 
L 235.954515 199.114776 
L 236.495263 197.548391 
L 237.036012 196.490023 
L 237.57676 195.897337 
L 238.658257 205.676658 
L 239.199005 208.428415 
L 239.739754 213.76259 
L 240.82125 218.693581 
L 241.361999 227.309701 
L 241.902747 232.790903 
L 242.443496 231.901883 
L 242.989653 229.80745 
L 243.530401 231.182199 
L 244.07115 227.817718 
L 244.617305 232.305199 
L 245.158054 229.934454 
L 245.704209 223.223351 
L 246.244958 226.398424 
L 247.331861 238.867081 
L 247.87261 240.348796 
L 248.413358 240.199405 
L 249.494856 230.970528 
L 250.035603 223.626581 
L 250.576353 220.090613 
L 251.117101 210.291143 
L 251.65785 205.315943 
L 252.739346 190.371935 
L 254.361592 176.042352 
L 254.907748 177.397064 
L 255.989245 170.855823 
L 256.5354 172.443901 
L 257.07615 150.493025 
L 257.622305 162.579911 
L 258.163054 170.877516 
L 258.709209 167.575408 
L 259.249957 162.431298 
L 259.790706 164.209338 
L 260.331454 161.648547 
L 260.872203 160.018242 
L 261.412951 163.870664 
L 261.953699 164.167004 
L 262.494448 162.642969 
L 263.035196 161.775551 
L 263.575945 161.648547 
L 264.116693 156.102698 
L 264.657441 143.867963 
L 265.19819 139.338148 
L 265.738938 137.517755 
L 266.279687 130.193848 
L 266.825844 125.473454 
L 267.366592 128.41579 
L 267.907341 128.987201 
L 268.453496 123.822417 
L 268.994245 123.970644 
L 269.5404 119.948845 
L 270.081149 120.583866 
L 270.627304 124.436326 
L 271.173461 130.511236 
L 271.71421 138.068106 
L 272.260365 135.14701 
L 272.801114 136.544056 
L 273.347269 146.59827 
L 274.434173 159.171556 
L 276.061827 189.37779 
L 278.776383 212.746557 
L 279.317132 213.593251 
L 279.863287 213.085235 
L 280.944784 204.829964 
L 281.485532 198.20378 
L 282.026282 198.691429 
L 282.567029 200.808165 
L 283.107779 203.749574 
L 283.648527 198.310416 
L 284.730024 190.964615 
L 285.811521 178.455432 
L 286.352269 175.55493 
L 286.893017 168.168094 
L 287.433766 165.670345 
L 288.515263 151.953895 
L 289.596759 145.074235 
L 290.137508 146.365712 
L 291.759753 138.893427 
L 292.300501 136.290048 
L 292.84125 135.570358 
L 293.381998 136.120709 
L 293.922747 137.83507 
L 294.463495 145.307344 
L 295.004243 144.079637 
L 295.544992 145.773026 
L 296.08574 146.132592 
L 296.626489 150.006498 
L 297.167237 154.895792 
L 297.707985 158.09243 
L 298.248735 164.971355 
L 298.789482 169.692144 
L 299.330232 168.252763 
L 299.87098 161.606212 
L 300.411727 159.997493 
L 300.952477 155.425343 
L 301.493225 153.49876 
L 302.033974 150.895527 
L 302.574722 151.72072 
L 303.11547 159.235468 
L 303.656219 163.680613 
L 304.196967 160.526254 
L 305.283872 151.953895 
L 305.824621 149.646339 
L 306.370777 143.888874 
L 306.916932 135.14701 
L 307.457681 128.987201 
L 308.003836 119.90651 
L 308.544585 118.826969 
L 309.085333 124.203425 
L 309.626081 127.103413 
L 310.16683 124.224652 
L 310.707578 127.230417 
L 311.248327 121.113021 
L 311.789075 119.842993 
L 312.329823 123.483742 
L 312.870572 125.664033 
L 313.41132 133.749965 
L 313.952069 135.633686 
L 314.492817 135.95137 
L 315.033565 137.83507 
L 315.574314 143.021269 
L 316.115062 145.138005 
L 316.655811 142.872851 
L 317.201968 139.338148 
L 317.742717 136.819047 
L 318.288872 137.47542 
L 318.835027 139.930834 
L 319.375776 136.67106 
L 319.921931 135.824366 
L 321.008837 146.61972 
L 321.549586 146.365712 
L 322.095741 143.952633 
L 322.641896 139.528442 
L 323.182645 138.237445 
L 324.269549 144.650892 
L 324.815706 142.978934 
L 325.356455 137.898767 
L 326.448765 133.326617 
L 326.989514 139.697779 
L 327.535669 144.43922 
L 328.076418 156.653049 
L 329.157914 166.749396 
L 329.698663 168.930119 
L 330.24482 175.534336 
L 330.785569 184.128284 
L 331.331724 189.482915 
L 331.872473 190.393823 
L 332.418628 197.209714 
L 333.500125 198.098743 
L 334.04628 197.929404 
L 334.587029 197.90744 
L 335.127777 202.035872 
L 335.668525 199.346806 
L 336.209274 197.844735 
L 336.750022 197.421387 
L 337.290772 195.939672 
L 337.836928 192.657987 
L 338.377677 187.789543 
L 338.923832 187.06986 
L 339.46458 188.6581 
L 340.005329 189.504794 
L 340.551484 189.801137 
L 341.092233 187.726736 
L 341.638388 178.518331 
L 342.179138 173.099541 
L 343.801383 148.757319 
L 344.342131 145.836252 
L 344.88288 146.111704 
L 345.423628 141.835897 
L 345.964376 139.846165 
L 346.505125 139.041805 
L 347.045873 141.221814 
L 347.586622 145.984699 
L 348.12737 154.493979 
L 348.668118 156.695384 
L 349.208867 153.393276 
L 349.749615 149.117469 
L 350.290364 152.779077 
L 350.831112 149.159804 
L 351.37186 148.397779 
L 351.912609 147.952967 
L 354.075602 117.85328 
L 354.616351 114.212531 
L 355.157099 113.640971 
L 355.697849 116.752589 
L 356.779344 108.666738 
L 357.320094 106.867416 
L 357.860842 106.147725 
L 358.401591 102.866939 
L 358.942339 95.797111 
L 359.483087 90.22987 
L 360.023836 86.568233 
L 360.564584 86.314228 
L 361.105333 87.647452 
L 361.651489 88.346274 
L 362.192237 85.361377 
L 362.732986 87.90146 
L 363.279141 94.992759 
L 363.819891 96.029727 
L 364.366046 103.692312 
L 364.906793 103.586622 
L 365.447543 108.349131 
L 365.993698 104.306305 
L 366.534447 102.083592 
L 367.075195 102.887952 
L 367.615944 101.046564 
L 368.156692 103.67129 
L 368.69744 101.448571 
L 369.238189 100.940555 
L 369.778937 101.469907 
L 370.319686 102.570598 
L 370.860434 99.797517 
L 371.401182 103.522973 
L 371.941931 106.401734 
L 372.482679 112.159256 
L 373.023428 113.873856 
L 373.569585 114.021984 
L 374.110333 116.66792 
L 374.651082 113.683306 
L 375.197237 112.011147 
L 375.737986 117.429937 
L 376.284141 114.424202 
L 376.82489 115.165021 
L 377.371045 113.217624 
L 377.911793 103.290282 
L 379.534039 86.229559 
L 380.074787 85.636879 
L 380.615535 79.900197 
L 381.156285 70.33255 
L 381.697032 63.242034 
L 382.237782 58.648167 
L 382.77853 57.462794 
L 383.319277 57.378125 
L 383.860027 57.081782 
L 384.406183 57.928476 
L 384.946932 53.568 
L 386.033835 57.145895 
L 386.574584 53.737339 
L 387.120739 54.245356 
L 387.661489 57.166451 
L 388.207644 62.923974 
L 388.748393 70.247881 
L 389.289141 81.508917 
L 389.829889 84.85336 
L 390.370638 86.525899 
L 390.911386 79.857863 
L 391.452135 77.317779 
L 391.992883 75.70906 
L 392.533631 69.888519 
L 393.07438 69.846185 
L 393.615128 68.8085 
L 394.155877 69.041833 
L 394.696625 73.507654 
L 395.237373 76.301746 
L 395.778122 80.619888 
L 396.31887 80.175754 
L 396.859619 81.572786 
L 397.405776 81.361115 
L 397.946524 79.286734 
L 398.487273 75.963068 
L 398.487273 75.963068 
" style="fill:none;stroke:#1f77b4;stroke-linecap:square;stroke-width:1.5;"/>
   </g>
   <g id="patch_3">
    <path d="M 57.6 307.584 
L 57.6 41.472 
" style="fill:none;stroke:#000000;stroke-linecap:square;stroke-linejoin:miter;stroke-width:0.8;"/>
   </g>
   <g id="patch_4">
    <path d="M 414.72 307.584 
L 414.72 41.472 
" style="fill:none;stroke:#000000;stroke-linecap:square;stroke-linejoin:miter;stroke-width:0.8;"/>
   </g>
   <g id="patch_5">
    <path d="M 57.6 307.584 
L 414.72 307.584 
" style="fill:none;stroke:#000000;stroke-linecap:square;stroke-linejoin:miter;stroke-width:0.8;"/>
   </g>
   <g id="patch_6">
    <path d="M 57.6 41.472 
L 414.72 41.472 
" style="fill:none;stroke:#000000;stroke-linecap:square;stroke-linejoin:miter;stroke-width:0.8;"/>
   </g>
   <g id="text_17">
    <!-- Resistance -->
    <g transform="translate(203.562187 35.472)scale(0.12 -0.12)">
     <use xlink:href="#DejaVuSans-52"/>
     <use x="69.419922" xlink:href="#DejaVuSans-65"/>
     <use x="130.943359" xlink:href="#DejaVuSans-73"/>
     <use x="183.042969" xlink:href="#DejaVuSans-69"/>
     <use x="210.826172" xlink:href="#DejaVuSans-73"/>
     <use x="262.925781" xlink:href="#DejaVuSans-74"/>
     <use x="302.134766" xlink:href="#DejaVuSans-61"/>
     <use x="363.414062" xlink:href="#DejaVuSans-6e"/>
     <use x="426.792969" xlink:href="#DejaVuSans-63"/>
     <use x="481.773438" xlink:href="#DejaVuSans-65"/>
    </g>
   </g>
  </g>
 </g>
 <defs>
  <clipPath id="p5fba13598d">
   <rect height="266.112" width="357.12" x="57.6" y="41.472"/>
  </clipPath>
 </defs>
</svg>
