<?xml version="1.0" encoding="utf-8" standalone="no"?>
<!DOCTYPE svg PUBLIC "-//W3C//DTD SVG 1.1//EN"
  "http://www.w3.org/Graphics/SVG/1.1/DTD/svg11.dtd">
<!-- Created with matplotlib (http://matplotlib.org/) -->
<svg height="345pt" version="1.1" viewBox="0 0 460 345" width="460pt" xmlns="http://www.w3.org/2000/svg" xmlns:xlink="http://www.w3.org/1999/xlink">
 <defs>
  <style type="text/css">
*{stroke-linecap:butt;stroke-linejoin:round;}
  </style>
 </defs>
 <g id="figure_1">
  <g id="patch_1">
   <path d="M 0 345.6 
L 460.8 345.6 
L 460.8 0 
L 0 0 
z
" style="fill:#ffffff;"/>
  </g>
  <g id="axes_1">
   <g id="patch_2">
    <path d="M 57.6 307.584 
L 414.72 307.584 
L 414.72 41.472 
L 57.6 41.472 
z
" style="fill:#ffffff;"/>
   </g>
   <g id="matplotlib.axis_1">
    <g id="xtick_1">
     <g id="line2d_1">
      <defs>
       <path d="M 0 0 
L 0 3.5 
" id="m07ee5fa2e0" style="stroke:#000000;stroke-width:0.8;"/>
      </defs>
      <g>
       <use style="stroke:#000000;stroke-width:0.8;" x="73.289875" xlink:href="#m07ee5fa2e0" y="307.584"/>
      </g>
     </g>
     <g id="text_1">
      <!-- 0 -->
      <defs>
       <path d="M 31.78125 66.40625 
Q 24.171875 66.40625 20.328125 58.90625 
Q 16.5 51.421875 16.5 36.375 
Q 16.5 21.390625 20.328125 13.890625 
Q 24.171875 6.390625 31.78125 6.390625 
Q 39.453125 6.390625 43.28125 13.890625 
Q 47.125 21.390625 47.125 36.375 
Q 47.125 51.421875 43.28125 58.90625 
Q 39.453125 66.40625 31.78125 66.40625 
z
M 31.78125 74.21875 
Q 44.046875 74.21875 50.515625 64.515625 
Q 56.984375 54.828125 56.984375 36.375 
Q 56.984375 17.96875 50.515625 8.265625 
Q 44.046875 -1.421875 31.78125 -1.421875 
Q 19.53125 -1.421875 13.0625 8.265625 
Q 6.59375 17.96875 6.59375 36.375 
Q 6.59375 54.828125 13.0625 64.515625 
Q 19.53125 74.21875 31.78125 74.21875 
z
" id="DejaVuSans-30"/>
      </defs>
      <g transform="translate(70.108625 322.182437)scale(0.1 -0.1)">
       <use xlink:href="#DejaVuSans-30"/>
      </g>
     </g>
    </g>
    <g id="xtick_2">
     <g id="line2d_2">
      <g>
       <use style="stroke:#000000;stroke-width:0.8;" x="127.575121" xlink:href="#m07ee5fa2e0" y="307.584"/>
      </g>
     </g>
     <g id="text_2">
      <!-- 100 -->
      <defs>
       <path d="M 12.40625 8.296875 
L 28.515625 8.296875 
L 28.515625 63.921875 
L 10.984375 60.40625 
L 10.984375 69.390625 
L 28.421875 72.90625 
L 38.28125 72.90625 
L 38.28125 8.296875 
L 54.390625 8.296875 
L 54.390625 0 
L 12.40625 0 
z
" id="DejaVuSans-31"/>
      </defs>
      <g transform="translate(118.031371 322.182437)scale(0.1 -0.1)">
       <use xlink:href="#DejaVuSans-31"/>
       <use x="63.623047" xlink:href="#DejaVuSans-30"/>
       <use x="127.246094" xlink:href="#DejaVuSans-30"/>
      </g>
     </g>
    </g>
    <g id="xtick_3">
     <g id="line2d_3">
      <g>
       <use style="stroke:#000000;stroke-width:0.8;" x="181.860368" xlink:href="#m07ee5fa2e0" y="307.584"/>
      </g>
     </g>
     <g id="text_3">
      <!-- 200 -->
      <defs>
       <path d="M 19.1875 8.296875 
L 53.609375 8.296875 
L 53.609375 0 
L 7.328125 0 
L 7.328125 8.296875 
Q 12.9375 14.109375 22.625 23.890625 
Q 32.328125 33.6875 34.8125 36.53125 
Q 39.546875 41.84375 41.421875 45.53125 
Q 43.3125 49.21875 43.3125 52.78125 
Q 43.3125 58.59375 39.234375 62.25 
Q 35.15625 65.921875 28.609375 65.921875 
Q 23.96875 65.921875 18.8125 64.3125 
Q 13.671875 62.703125 7.8125 59.421875 
L 7.8125 69.390625 
Q 13.765625 71.78125 18.9375 73 
Q 24.125 74.21875 28.421875 74.21875 
Q 39.75 74.21875 46.484375 68.546875 
Q 53.21875 62.890625 53.21875 53.421875 
Q 53.21875 48.921875 51.53125 44.890625 
Q 49.859375 40.875 45.40625 35.40625 
Q 44.1875 33.984375 37.640625 27.21875 
Q 31.109375 20.453125 19.1875 8.296875 
z
" id="DejaVuSans-32"/>
      </defs>
      <g transform="translate(172.316618 322.182437)scale(0.1 -0.1)">
       <use xlink:href="#DejaVuSans-32"/>
       <use x="63.623047" xlink:href="#DejaVuSans-30"/>
       <use x="127.246094" xlink:href="#DejaVuSans-30"/>
      </g>
     </g>
    </g>
    <g id="xtick_4">
     <g id="line2d_4">
      <g>
       <use style="stroke:#000000;stroke-width:0.8;" x="236.145614" xlink:href="#m07ee5fa2e0" y="307.584"/>
      </g>
     </g>
     <g id="text_4">
      <!-- 300 -->
      <defs>
       <path d="M 40.578125 39.3125 
Q 47.65625 37.796875 51.625 33 
Q 55.609375 28.21875 55.609375 21.1875 
Q 55.609375 10.40625 48.1875 4.484375 
Q 40.765625 -1.421875 27.09375 -1.421875 
Q 22.515625 -1.421875 17.65625 -0.515625 
Q 12.796875 0.390625 7.625 2.203125 
L 7.625 11.71875 
Q 11.71875 9.328125 16.59375 8.109375 
Q 21.484375 6.890625 26.8125 6.890625 
Q 36.078125 6.890625 40.9375 10.546875 
Q 45.796875 14.203125 45.796875 21.1875 
Q 45.796875 27.640625 41.28125 31.265625 
Q 36.765625 34.90625 28.71875 34.90625 
L 20.21875 34.90625 
L 20.21875 43.015625 
L 29.109375 43.015625 
Q 36.375 43.015625 40.234375 45.921875 
Q 44.09375 48.828125 44.09375 54.296875 
Q 44.09375 59.90625 40.109375 62.90625 
Q 36.140625 65.921875 28.71875 65.921875 
Q 24.65625 65.921875 20.015625 65.03125 
Q 15.375 64.15625 9.8125 62.3125 
L 9.8125 71.09375 
Q 15.4375 72.65625 20.34375 73.4375 
Q 25.25 74.21875 29.59375 74.21875 
Q 40.828125 74.21875 47.359375 69.109375 
Q 53.90625 64.015625 53.90625 55.328125 
Q 53.90625 49.265625 50.4375 45.09375 
Q 46.96875 40.921875 40.578125 39.3125 
z
" id="DejaVuSans-33"/>
      </defs>
      <g transform="translate(226.601864 322.182437)scale(0.1 -0.1)">
       <use xlink:href="#DejaVuSans-33"/>
       <use x="63.623047" xlink:href="#DejaVuSans-30"/>
       <use x="127.246094" xlink:href="#DejaVuSans-30"/>
      </g>
     </g>
    </g>
    <g id="xtick_5">
     <g id="line2d_5">
      <g>
       <use style="stroke:#000000;stroke-width:0.8;" x="290.430861" xlink:href="#m07ee5fa2e0" y="307.584"/>
      </g>
     </g>
     <g id="text_5">
      <!-- 400 -->
      <defs>
       <path d="M 37.796875 64.3125 
L 12.890625 25.390625 
L 37.796875 25.390625 
z
M 35.203125 72.90625 
L 47.609375 72.90625 
L 47.609375 25.390625 
L 58.015625 25.390625 
L 58.015625 17.1875 
L 47.609375 17.1875 
L 47.609375 0 
L 37.796875 0 
L 37.796875 17.1875 
L 4.890625 17.1875 
L 4.890625 26.703125 
z
" id="DejaVuSans-34"/>
      </defs>
      <g transform="translate(280.887111 322.182437)scale(0.1 -0.1)">
       <use xlink:href="#DejaVuSans-34"/>
       <use x="63.623047" xlink:href="#DejaVuSans-30"/>
       <use x="127.246094" xlink:href="#DejaVuSans-30"/>
      </g>
     </g>
    </g>
    <g id="xtick_6">
     <g id="line2d_6">
      <g>
       <use style="stroke:#000000;stroke-width:0.8;" x="344.716108" xlink:href="#m07ee5fa2e0" y="307.584"/>
      </g>
     </g>
     <g id="text_6">
      <!-- 500 -->
      <defs>
       <path d="M 10.796875 72.90625 
L 49.515625 72.90625 
L 49.515625 64.59375 
L 19.828125 64.59375 
L 19.828125 46.734375 
Q 21.96875 47.46875 24.109375 47.828125 
Q 26.265625 48.1875 28.421875 48.1875 
Q 40.625 48.1875 47.75 41.5 
Q 54.890625 34.8125 54.890625 23.390625 
Q 54.890625 11.625 47.5625 5.09375 
Q 40.234375 -1.421875 26.90625 -1.421875 
Q 22.3125 -1.421875 17.546875 -0.640625 
Q 12.796875 0.140625 7.71875 1.703125 
L 7.71875 11.625 
Q 12.109375 9.234375 16.796875 8.0625 
Q 21.484375 6.890625 26.703125 6.890625 
Q 35.15625 6.890625 40.078125 11.328125 
Q 45.015625 15.765625 45.015625 23.390625 
Q 45.015625 31 40.078125 35.4375 
Q 35.15625 39.890625 26.703125 39.890625 
Q 22.75 39.890625 18.8125 39.015625 
Q 14.890625 38.140625 10.796875 36.28125 
z
" id="DejaVuSans-35"/>
      </defs>
      <g transform="translate(335.172358 322.182437)scale(0.1 -0.1)">
       <use xlink:href="#DejaVuSans-35"/>
       <use x="63.623047" xlink:href="#DejaVuSans-30"/>
       <use x="127.246094" xlink:href="#DejaVuSans-30"/>
      </g>
     </g>
    </g>
    <g id="xtick_7">
     <g id="line2d_7">
      <g>
       <use style="stroke:#000000;stroke-width:0.8;" x="399.001354" xlink:href="#m07ee5fa2e0" y="307.584"/>
      </g>
     </g>
     <g id="text_7">
      <!-- 600 -->
      <defs>
       <path d="M 33.015625 40.375 
Q 26.375 40.375 22.484375 35.828125 
Q 18.609375 31.296875 18.609375 23.390625 
Q 18.609375 15.53125 22.484375 10.953125 
Q 26.375 6.390625 33.015625 6.390625 
Q 39.65625 6.390625 43.53125 10.953125 
Q 47.40625 15.53125 47.40625 23.390625 
Q 47.40625 31.296875 43.53125 35.828125 
Q 39.65625 40.375 33.015625 40.375 
z
M 52.59375 71.296875 
L 52.59375 62.3125 
Q 48.875 64.0625 45.09375 64.984375 
Q 41.3125 65.921875 37.59375 65.921875 
Q 27.828125 65.921875 22.671875 59.328125 
Q 17.53125 52.734375 16.796875 39.40625 
Q 19.671875 43.65625 24.015625 45.921875 
Q 28.375 48.1875 33.59375 48.1875 
Q 44.578125 48.1875 50.953125 41.515625 
Q 57.328125 34.859375 57.328125 23.390625 
Q 57.328125 12.15625 50.6875 5.359375 
Q 44.046875 -1.421875 33.015625 -1.421875 
Q 20.359375 -1.421875 13.671875 8.265625 
Q 6.984375 17.96875 6.984375 36.375 
Q 6.984375 53.65625 15.1875 63.9375 
Q 23.390625 74.21875 37.203125 74.21875 
Q 40.921875 74.21875 44.703125 73.484375 
Q 48.484375 72.75 52.59375 71.296875 
z
" id="DejaVuSans-36"/>
      </defs>
      <g transform="translate(389.457604 322.182437)scale(0.1 -0.1)">
       <use xlink:href="#DejaVuSans-36"/>
       <use x="63.623047" xlink:href="#DejaVuSans-30"/>
       <use x="127.246094" xlink:href="#DejaVuSans-30"/>
      </g>
     </g>
    </g>
    <g id="text_8">
     <!-- t(s) -->
     <defs>
      <path d="M 18.3125 70.21875 
L 18.3125 54.6875 
L 36.8125 54.6875 
L 36.8125 47.703125 
L 18.3125 47.703125 
L 18.3125 18.015625 
Q 18.3125 11.328125 20.140625 9.421875 
Q 21.96875 7.515625 27.59375 7.515625 
L 36.8125 7.515625 
L 36.8125 0 
L 27.59375 0 
Q 17.1875 0 13.234375 3.875 
Q 9.28125 7.765625 9.28125 18.015625 
L 9.28125 47.703125 
L 2.6875 47.703125 
L 2.6875 54.6875 
L 9.28125 54.6875 
L 9.28125 70.21875 
z
" id="DejaVuSans-74"/>
      <path d="M 31 75.875 
Q 24.46875 64.65625 21.28125 53.65625 
Q 18.109375 42.671875 18.109375 31.390625 
Q 18.109375 20.125 21.3125 9.0625 
Q 24.515625 -2 31 -13.1875 
L 23.1875 -13.1875 
Q 15.875 -1.703125 12.234375 9.375 
Q 8.59375 20.453125 8.59375 31.390625 
Q 8.59375 42.28125 12.203125 53.3125 
Q 15.828125 64.359375 23.1875 75.875 
z
" id="DejaVuSans-28"/>
      <path d="M 44.28125 53.078125 
L 44.28125 44.578125 
Q 40.484375 46.53125 36.375 47.5 
Q 32.28125 48.484375 27.875 48.484375 
Q 21.1875 48.484375 17.84375 46.4375 
Q 14.5 44.390625 14.5 40.28125 
Q 14.5 37.15625 16.890625 35.375 
Q 19.28125 33.59375 26.515625 31.984375 
L 29.59375 31.296875 
Q 39.15625 29.25 43.1875 25.515625 
Q 47.21875 21.78125 47.21875 15.09375 
Q 47.21875 7.46875 41.1875 3.015625 
Q 35.15625 -1.421875 24.609375 -1.421875 
Q 20.21875 -1.421875 15.453125 -0.5625 
Q 10.6875 0.296875 5.421875 2 
L 5.421875 11.28125 
Q 10.40625 8.6875 15.234375 7.390625 
Q 20.0625 6.109375 24.8125 6.109375 
Q 31.15625 6.109375 34.5625 8.28125 
Q 37.984375 10.453125 37.984375 14.40625 
Q 37.984375 18.0625 35.515625 20.015625 
Q 33.0625 21.96875 24.703125 23.78125 
L 21.578125 24.515625 
Q 13.234375 26.265625 9.515625 29.90625 
Q 5.8125 33.546875 5.8125 39.890625 
Q 5.8125 47.609375 11.28125 51.796875 
Q 16.75 56 26.8125 56 
Q 31.78125 56 36.171875 55.265625 
Q 40.578125 54.546875 44.28125 53.078125 
z
" id="DejaVuSans-73"/>
      <path d="M 8.015625 75.875 
L 15.828125 75.875 
Q 23.140625 64.359375 26.78125 53.3125 
Q 30.421875 42.28125 30.421875 31.390625 
Q 30.421875 20.453125 26.78125 9.375 
Q 23.140625 -1.703125 15.828125 -13.1875 
L 8.015625 -13.1875 
Q 14.5 -2 17.703125 9.0625 
Q 20.90625 20.125 20.90625 31.390625 
Q 20.90625 42.671875 17.703125 53.65625 
Q 14.5 64.65625 8.015625 75.875 
z
" id="DejaVuSans-29"/>
     </defs>
     <g transform="translate(227.693594 335.860562)scale(0.1 -0.1)">
      <use xlink:href="#DejaVuSans-74"/>
      <use x="39.208984" xlink:href="#DejaVuSans-28"/>
      <use x="78.222656" xlink:href="#DejaVuSans-73"/>
      <use x="130.322266" xlink:href="#DejaVuSans-29"/>
     </g>
    </g>
   </g>
   <g id="matplotlib.axis_2">
    <g id="ytick_1">
     <g id="line2d_8">
      <defs>
       <path d="M 0 0 
L -3.5 0 
" id="m368ae7af99" style="stroke:#000000;stroke-width:0.8;"/>
      </defs>
      <g>
       <use style="stroke:#000000;stroke-width:0.8;" x="57.6" xlink:href="#m368ae7af99" y="303.404779"/>
      </g>
     </g>
     <g id="text_9">
      <!-- 530000 -->
      <g transform="translate(12.425 307.203998)scale(0.1 -0.1)">
       <use xlink:href="#DejaVuSans-35"/>
       <use x="63.623047" xlink:href="#DejaVuSans-33"/>
       <use x="127.246094" xlink:href="#DejaVuSans-30"/>
       <use x="190.869141" xlink:href="#DejaVuSans-30"/>
       <use x="254.492188" xlink:href="#DejaVuSans-30"/>
       <use x="318.115234" xlink:href="#DejaVuSans-30"/>
      </g>
     </g>
    </g>
    <g id="ytick_2">
     <g id="line2d_9">
      <g>
       <use style="stroke:#000000;stroke-width:0.8;" x="57.6" xlink:href="#m368ae7af99" y="267.753847"/>
      </g>
     </g>
     <g id="text_10">
      <!-- 540000 -->
      <g transform="translate(12.425 271.553066)scale(0.1 -0.1)">
       <use xlink:href="#DejaVuSans-35"/>
       <use x="63.623047" xlink:href="#DejaVuSans-34"/>
       <use x="127.246094" xlink:href="#DejaVuSans-30"/>
       <use x="190.869141" xlink:href="#DejaVuSans-30"/>
       <use x="254.492188" xlink:href="#DejaVuSans-30"/>
       <use x="318.115234" xlink:href="#DejaVuSans-30"/>
      </g>
     </g>
    </g>
    <g id="ytick_3">
     <g id="line2d_10">
      <g>
       <use style="stroke:#000000;stroke-width:0.8;" x="57.6" xlink:href="#m368ae7af99" y="232.102915"/>
      </g>
     </g>
     <g id="text_11">
      <!-- 550000 -->
      <g transform="translate(12.425 235.902133)scale(0.1 -0.1)">
       <use xlink:href="#DejaVuSans-35"/>
       <use x="63.623047" xlink:href="#DejaVuSans-35"/>
       <use x="127.246094" xlink:href="#DejaVuSans-30"/>
       <use x="190.869141" xlink:href="#DejaVuSans-30"/>
       <use x="254.492188" xlink:href="#DejaVuSans-30"/>
       <use x="318.115234" xlink:href="#DejaVuSans-30"/>
      </g>
     </g>
    </g>
    <g id="ytick_4">
     <g id="line2d_11">
      <g>
       <use style="stroke:#000000;stroke-width:0.8;" x="57.6" xlink:href="#m368ae7af99" y="196.451982"/>
      </g>
     </g>
     <g id="text_12">
      <!-- 560000 -->
      <g transform="translate(12.425 200.251201)scale(0.1 -0.1)">
       <use xlink:href="#DejaVuSans-35"/>
       <use x="63.623047" xlink:href="#DejaVuSans-36"/>
       <use x="127.246094" xlink:href="#DejaVuSans-30"/>
       <use x="190.869141" xlink:href="#DejaVuSans-30"/>
       <use x="254.492188" xlink:href="#DejaVuSans-30"/>
       <use x="318.115234" xlink:href="#DejaVuSans-30"/>
      </g>
     </g>
    </g>
    <g id="ytick_5">
     <g id="line2d_12">
      <g>
       <use style="stroke:#000000;stroke-width:0.8;" x="57.6" xlink:href="#m368ae7af99" y="160.80105"/>
      </g>
     </g>
     <g id="text_13">
      <!-- 570000 -->
      <defs>
       <path d="M 8.203125 72.90625 
L 55.078125 72.90625 
L 55.078125 68.703125 
L 28.609375 0 
L 18.3125 0 
L 43.21875 64.59375 
L 8.203125 64.59375 
z
" id="DejaVuSans-37"/>
      </defs>
      <g transform="translate(12.425 164.600269)scale(0.1 -0.1)">
       <use xlink:href="#DejaVuSans-35"/>
       <use x="63.623047" xlink:href="#DejaVuSans-37"/>
       <use x="127.246094" xlink:href="#DejaVuSans-30"/>
       <use x="190.869141" xlink:href="#DejaVuSans-30"/>
       <use x="254.492188" xlink:href="#DejaVuSans-30"/>
       <use x="318.115234" xlink:href="#DejaVuSans-30"/>
      </g>
     </g>
    </g>
    <g id="ytick_6">
     <g id="line2d_13">
      <g>
       <use style="stroke:#000000;stroke-width:0.8;" x="57.6" xlink:href="#m368ae7af99" y="125.150117"/>
      </g>
     </g>
     <g id="text_14">
      <!-- 580000 -->
      <defs>
       <path d="M 31.78125 34.625 
Q 24.75 34.625 20.71875 30.859375 
Q 16.703125 27.09375 16.703125 20.515625 
Q 16.703125 13.921875 20.71875 10.15625 
Q 24.75 6.390625 31.78125 6.390625 
Q 38.8125 6.390625 42.859375 10.171875 
Q 46.921875 13.96875 46.921875 20.515625 
Q 46.921875 27.09375 42.890625 30.859375 
Q 38.875 34.625 31.78125 34.625 
z
M 21.921875 38.8125 
Q 15.578125 40.375 12.03125 44.71875 
Q 8.5 49.078125 8.5 55.328125 
Q 8.5 64.0625 14.71875 69.140625 
Q 20.953125 74.21875 31.78125 74.21875 
Q 42.671875 74.21875 48.875 69.140625 
Q 55.078125 64.0625 55.078125 55.328125 
Q 55.078125 49.078125 51.53125 44.71875 
Q 48 40.375 41.703125 38.8125 
Q 48.828125 37.15625 52.796875 32.3125 
Q 56.78125 27.484375 56.78125 20.515625 
Q 56.78125 9.90625 50.3125 4.234375 
Q 43.84375 -1.421875 31.78125 -1.421875 
Q 19.734375 -1.421875 13.25 4.234375 
Q 6.78125 9.90625 6.78125 20.515625 
Q 6.78125 27.484375 10.78125 32.3125 
Q 14.796875 37.15625 21.921875 38.8125 
z
M 18.3125 54.390625 
Q 18.3125 48.734375 21.84375 45.5625 
Q 25.390625 42.390625 31.78125 42.390625 
Q 38.140625 42.390625 41.71875 45.5625 
Q 45.3125 48.734375 45.3125 54.390625 
Q 45.3125 60.0625 41.71875 63.234375 
Q 38.140625 66.40625 31.78125 66.40625 
Q 25.390625 66.40625 21.84375 63.234375 
Q 18.3125 60.0625 18.3125 54.390625 
z
" id="DejaVuSans-38"/>
      </defs>
      <g transform="translate(12.425 128.949336)scale(0.1 -0.1)">
       <use xlink:href="#DejaVuSans-35"/>
       <use x="63.623047" xlink:href="#DejaVuSans-38"/>
       <use x="127.246094" xlink:href="#DejaVuSans-30"/>
       <use x="190.869141" xlink:href="#DejaVuSans-30"/>
       <use x="254.492188" xlink:href="#DejaVuSans-30"/>
       <use x="318.115234" xlink:href="#DejaVuSans-30"/>
      </g>
     </g>
    </g>
    <g id="ytick_7">
     <g id="line2d_14">
      <g>
       <use style="stroke:#000000;stroke-width:0.8;" x="57.6" xlink:href="#m368ae7af99" y="89.499185"/>
      </g>
     </g>
     <g id="text_15">
      <!-- 590000 -->
      <defs>
       <path d="M 10.984375 1.515625 
L 10.984375 10.5 
Q 14.703125 8.734375 18.5 7.8125 
Q 22.3125 6.890625 25.984375 6.890625 
Q 35.75 6.890625 40.890625 13.453125 
Q 46.046875 20.015625 46.78125 33.40625 
Q 43.953125 29.203125 39.59375 26.953125 
Q 35.25 24.703125 29.984375 24.703125 
Q 19.046875 24.703125 12.671875 31.3125 
Q 6.296875 37.9375 6.296875 49.421875 
Q 6.296875 60.640625 12.9375 67.421875 
Q 19.578125 74.21875 30.609375 74.21875 
Q 43.265625 74.21875 49.921875 64.515625 
Q 56.59375 54.828125 56.59375 36.375 
Q 56.59375 19.140625 48.40625 8.859375 
Q 40.234375 -1.421875 26.421875 -1.421875 
Q 22.703125 -1.421875 18.890625 -0.6875 
Q 15.09375 0.046875 10.984375 1.515625 
z
M 30.609375 32.421875 
Q 37.25 32.421875 41.125 36.953125 
Q 45.015625 41.5 45.015625 49.421875 
Q 45.015625 57.28125 41.125 61.84375 
Q 37.25 66.40625 30.609375 66.40625 
Q 23.96875 66.40625 20.09375 61.84375 
Q 16.21875 57.28125 16.21875 49.421875 
Q 16.21875 41.5 20.09375 36.953125 
Q 23.96875 32.421875 30.609375 32.421875 
z
" id="DejaVuSans-39"/>
      </defs>
      <g transform="translate(12.425 93.298404)scale(0.1 -0.1)">
       <use xlink:href="#DejaVuSans-35"/>
       <use x="63.623047" xlink:href="#DejaVuSans-39"/>
       <use x="127.246094" xlink:href="#DejaVuSans-30"/>
       <use x="190.869141" xlink:href="#DejaVuSans-30"/>
       <use x="254.492188" xlink:href="#DejaVuSans-30"/>
       <use x="318.115234" xlink:href="#DejaVuSans-30"/>
      </g>
     </g>
    </g>
    <g id="ytick_8">
     <g id="line2d_15">
      <g>
       <use style="stroke:#000000;stroke-width:0.8;" x="57.6" xlink:href="#m368ae7af99" y="53.848253"/>
      </g>
     </g>
     <g id="text_16">
      <!-- 600000 -->
      <g transform="translate(12.425 57.647472)scale(0.1 -0.1)">
       <use xlink:href="#DejaVuSans-36"/>
       <use x="63.623047" xlink:href="#DejaVuSans-30"/>
       <use x="127.246094" xlink:href="#DejaVuSans-30"/>
       <use x="190.869141" xlink:href="#DejaVuSans-30"/>
       <use x="254.492188" xlink:href="#DejaVuSans-30"/>
       <use x="318.115234" xlink:href="#DejaVuSans-30"/>
      </g>
     </g>
    </g>
    <g id="text_17">
     <!-- Resistance (Ohm) -->
     <defs>
      <path d="M 44.390625 34.1875 
Q 47.5625 33.109375 50.5625 29.59375 
Q 53.5625 26.078125 56.59375 19.921875 
L 66.609375 0 
L 56 0 
L 46.6875 18.703125 
Q 43.0625 26.03125 39.671875 28.421875 
Q 36.28125 30.8125 30.421875 30.8125 
L 19.671875 30.8125 
L 19.671875 0 
L 9.8125 0 
L 9.8125 72.90625 
L 32.078125 72.90625 
Q 44.578125 72.90625 50.734375 67.671875 
Q 56.890625 62.453125 56.890625 51.90625 
Q 56.890625 45.015625 53.6875 40.46875 
Q 50.484375 35.9375 44.390625 34.1875 
z
M 19.671875 64.796875 
L 19.671875 38.921875 
L 32.078125 38.921875 
Q 39.203125 38.921875 42.84375 42.21875 
Q 46.484375 45.515625 46.484375 51.90625 
Q 46.484375 58.296875 42.84375 61.546875 
Q 39.203125 64.796875 32.078125 64.796875 
z
" id="DejaVuSans-52"/>
      <path d="M 56.203125 29.59375 
L 56.203125 25.203125 
L 14.890625 25.203125 
Q 15.484375 15.921875 20.484375 11.0625 
Q 25.484375 6.203125 34.421875 6.203125 
Q 39.59375 6.203125 44.453125 7.46875 
Q 49.3125 8.734375 54.109375 11.28125 
L 54.109375 2.78125 
Q 49.265625 0.734375 44.1875 -0.34375 
Q 39.109375 -1.421875 33.890625 -1.421875 
Q 20.796875 -1.421875 13.15625 6.1875 
Q 5.515625 13.8125 5.515625 26.8125 
Q 5.515625 40.234375 12.765625 48.109375 
Q 20.015625 56 32.328125 56 
Q 43.359375 56 49.78125 48.890625 
Q 56.203125 41.796875 56.203125 29.59375 
z
M 47.21875 32.234375 
Q 47.125 39.59375 43.09375 43.984375 
Q 39.0625 48.390625 32.421875 48.390625 
Q 24.90625 48.390625 20.390625 44.140625 
Q 15.875 39.890625 15.1875 32.171875 
z
" id="DejaVuSans-65"/>
      <path d="M 9.421875 54.6875 
L 18.40625 54.6875 
L 18.40625 0 
L 9.421875 0 
z
M 9.421875 75.984375 
L 18.40625 75.984375 
L 18.40625 64.59375 
L 9.421875 64.59375 
z
" id="DejaVuSans-69"/>
      <path d="M 34.28125 27.484375 
Q 23.390625 27.484375 19.1875 25 
Q 14.984375 22.515625 14.984375 16.5 
Q 14.984375 11.71875 18.140625 8.90625 
Q 21.296875 6.109375 26.703125 6.109375 
Q 34.1875 6.109375 38.703125 11.40625 
Q 43.21875 16.703125 43.21875 25.484375 
L 43.21875 27.484375 
z
M 52.203125 31.203125 
L 52.203125 0 
L 43.21875 0 
L 43.21875 8.296875 
Q 40.140625 3.328125 35.546875 0.953125 
Q 30.953125 -1.421875 24.3125 -1.421875 
Q 15.921875 -1.421875 10.953125 3.296875 
Q 6 8.015625 6 15.921875 
Q 6 25.140625 12.171875 29.828125 
Q 18.359375 34.515625 30.609375 34.515625 
L 43.21875 34.515625 
L 43.21875 35.40625 
Q 43.21875 41.609375 39.140625 45 
Q 35.0625 48.390625 27.6875 48.390625 
Q 23 48.390625 18.546875 47.265625 
Q 14.109375 46.140625 10.015625 43.890625 
L 10.015625 52.203125 
Q 14.9375 54.109375 19.578125 55.046875 
Q 24.21875 56 28.609375 56 
Q 40.484375 56 46.34375 49.84375 
Q 52.203125 43.703125 52.203125 31.203125 
z
" id="DejaVuSans-61"/>
      <path d="M 54.890625 33.015625 
L 54.890625 0 
L 45.90625 0 
L 45.90625 32.71875 
Q 45.90625 40.484375 42.875 44.328125 
Q 39.84375 48.1875 33.796875 48.1875 
Q 26.515625 48.1875 22.3125 43.546875 
Q 18.109375 38.921875 18.109375 30.90625 
L 18.109375 0 
L 9.078125 0 
L 9.078125 54.6875 
L 18.109375 54.6875 
L 18.109375 46.1875 
Q 21.34375 51.125 25.703125 53.5625 
Q 30.078125 56 35.796875 56 
Q 45.21875 56 50.046875 50.171875 
Q 54.890625 44.34375 54.890625 33.015625 
z
" id="DejaVuSans-6e"/>
      <path d="M 48.78125 52.59375 
L 48.78125 44.1875 
Q 44.96875 46.296875 41.140625 47.34375 
Q 37.3125 48.390625 33.40625 48.390625 
Q 24.65625 48.390625 19.8125 42.84375 
Q 14.984375 37.3125 14.984375 27.296875 
Q 14.984375 17.28125 19.8125 11.734375 
Q 24.65625 6.203125 33.40625 6.203125 
Q 37.3125 6.203125 41.140625 7.25 
Q 44.96875 8.296875 48.78125 10.40625 
L 48.78125 2.09375 
Q 45.015625 0.34375 40.984375 -0.53125 
Q 36.96875 -1.421875 32.421875 -1.421875 
Q 20.0625 -1.421875 12.78125 6.34375 
Q 5.515625 14.109375 5.515625 27.296875 
Q 5.515625 40.671875 12.859375 48.328125 
Q 20.21875 56 33.015625 56 
Q 37.15625 56 41.109375 55.140625 
Q 45.0625 54.296875 48.78125 52.59375 
z
" id="DejaVuSans-63"/>
      <path id="DejaVuSans-20"/>
      <path d="M 39.40625 66.21875 
Q 28.65625 66.21875 22.328125 58.203125 
Q 16.015625 50.203125 16.015625 36.375 
Q 16.015625 22.609375 22.328125 14.59375 
Q 28.65625 6.59375 39.40625 6.59375 
Q 50.140625 6.59375 56.421875 14.59375 
Q 62.703125 22.609375 62.703125 36.375 
Q 62.703125 50.203125 56.421875 58.203125 
Q 50.140625 66.21875 39.40625 66.21875 
z
M 39.40625 74.21875 
Q 54.734375 74.21875 63.90625 63.9375 
Q 73.09375 53.65625 73.09375 36.375 
Q 73.09375 19.140625 63.90625 8.859375 
Q 54.734375 -1.421875 39.40625 -1.421875 
Q 24.03125 -1.421875 14.8125 8.828125 
Q 5.609375 19.09375 5.609375 36.375 
Q 5.609375 53.65625 14.8125 63.9375 
Q 24.03125 74.21875 39.40625 74.21875 
z
" id="DejaVuSans-4f"/>
      <path d="M 54.890625 33.015625 
L 54.890625 0 
L 45.90625 0 
L 45.90625 32.71875 
Q 45.90625 40.484375 42.875 44.328125 
Q 39.84375 48.1875 33.796875 48.1875 
Q 26.515625 48.1875 22.3125 43.546875 
Q 18.109375 38.921875 18.109375 30.90625 
L 18.109375 0 
L 9.078125 0 
L 9.078125 75.984375 
L 18.109375 75.984375 
L 18.109375 46.1875 
Q 21.34375 51.125 25.703125 53.5625 
Q 30.078125 56 35.796875 56 
Q 45.21875 56 50.046875 50.171875 
Q 54.890625 44.34375 54.890625 33.015625 
z
" id="DejaVuSans-68"/>
      <path d="M 52 44.1875 
Q 55.375 50.25 60.0625 53.125 
Q 64.75 56 71.09375 56 
Q 79.640625 56 84.28125 50.015625 
Q 88.921875 44.046875 88.921875 33.015625 
L 88.921875 0 
L 79.890625 0 
L 79.890625 32.71875 
Q 79.890625 40.578125 77.09375 44.375 
Q 74.3125 48.1875 68.609375 48.1875 
Q 61.625 48.1875 57.5625 43.546875 
Q 53.515625 38.921875 53.515625 30.90625 
L 53.515625 0 
L 44.484375 0 
L 44.484375 32.71875 
Q 44.484375 40.625 41.703125 44.40625 
Q 38.921875 48.1875 33.109375 48.1875 
Q 26.21875 48.1875 22.15625 43.53125 
Q 18.109375 38.875 18.109375 30.90625 
L 18.109375 0 
L 9.078125 0 
L 9.078125 54.6875 
L 18.109375 54.6875 
L 18.109375 46.1875 
Q 21.1875 51.21875 25.484375 53.609375 
Q 29.78125 56 35.6875 56 
Q 41.65625 56 45.828125 52.96875 
Q 50 49.953125 52 44.1875 
z
" id="DejaVuSans-6d"/>
     </defs>
     <g transform="translate(6.345312 219.158469)rotate(-90)scale(0.1 -0.1)">
      <use xlink:href="#DejaVuSans-52"/>
      <use x="69.419922" xlink:href="#DejaVuSans-65"/>
      <use x="130.943359" xlink:href="#DejaVuSans-73"/>
      <use x="183.042969" xlink:href="#DejaVuSans-69"/>
      <use x="210.826172" xlink:href="#DejaVuSans-73"/>
      <use x="262.925781" xlink:href="#DejaVuSans-74"/>
      <use x="302.134766" xlink:href="#DejaVuSans-61"/>
      <use x="363.414062" xlink:href="#DejaVuSans-6e"/>
      <use x="426.792969" xlink:href="#DejaVuSans-63"/>
      <use x="481.773438" xlink:href="#DejaVuSans-65"/>
      <use x="543.296875" xlink:href="#DejaVuSans-20"/>
      <use x="575.083984" xlink:href="#DejaVuSans-28"/>
      <use x="614.097656" xlink:href="#DejaVuSans-4f"/>
      <use x="692.808594" xlink:href="#DejaVuSans-68"/>
      <use x="756.1875" xlink:href="#DejaVuSans-6d"/>
      <use x="853.599609" xlink:href="#DejaVuSans-29"/>
     </g>
    </g>
   </g>
   <g id="line2d_16">
    <path clip-path="url(#pecf79df4a2)" d="M 73.832727 150.914338 
L 74.376123 145.882355 
L 74.919518 130.541118 
L 75.46237 133.761444 
L 76.005223 138.424917 
L 76.548075 138.355932 
L 77.634866 103.070163 
L 78.177718 101.091789 
L 78.720571 101.402768 
L 79.263423 99.433531 
L 79.806276 99.634389 
L 80.349128 94.43479 
L 80.891981 91.988355 
L 81.434833 87.851342 
L 82.520538 83.475271 
L 84.149638 63.655591 
L 84.692491 61.130392 
L 85.235343 57.420927 
L 85.778196 56.505932 
L 86.321048 53.568 
L 86.863901 58.362812 
L 87.406753 61.183511 
L 87.949606 61.056039 
L 88.492458 64.570818 
L 89.579249 107.232986 
L 90.122644 117.267264 
L 90.665496 118.762597 
L 91.208349 124.87052 
L 92.836906 131.020289 
L 93.379759 131.930309 
L 93.922611 135.037354 
L 94.465464 137.382515 
L 95.008859 146.025436 
L 95.552254 159.029954 
L 96.09565 157.264741 
L 96.638502 157.202551 
L 97.181355 154.646128 
L 97.724207 150.92195 
L 98.26706 149.785326 
L 98.809912 141.569395 
L 99.352764 139.345927 
L 99.895617 135.553707 
L 100.438469 138.855157 
L 100.981865 117.150562 
L 101.524717 116.765815 
L 102.06757 114.33451 
L 102.610422 115.981352 
L 103.696127 115.610353 
L 104.238979 116.410979 
L 104.781832 116.765449 
L 105.324684 117.883395 
L 105.867537 118.042464 
L 106.410389 116.914675 
L 106.953242 116.578213 
L 107.496637 108.448592 
L 108.03949 106.319852 
L 108.582342 106.708491 
L 109.125194 106.388951 
L 109.668047 110.338029 
L 110.210899 106.706405 
L 110.753752 111.97699 
L 111.296604 108.676281 
L 111.839457 108.984705 
L 112.382309 109.573408 
L 112.925162 109.824872 
L 114.553719 114.181112 
L 115.639424 125.156734 
L 116.182277 119.876329 
L 116.725129 120.986798 
L 117.267981 123.436184 
L 118.353686 124.734829 
L 118.896539 124.974757 
L 119.439391 124.12276 
L 119.982244 129.956799 
L 120.525096 120.639613 
L 121.067949 123.976622 
L 121.610801 115.75559 
L 122.153654 114.306467 
L 122.696506 112.124816 
L 123.239359 111.460476 
L 123.782211 110.530576 
L 124.325064 107.21484 
L 124.867916 103.149933 
L 125.953621 98.732588 
L 126.496473 91.614765 
L 127.039326 90.127495 
L 127.582178 84.022197 
L 128.125031 83.221396 
L 128.667883 86.261064 
L 129.210736 86.748543 
L 129.753588 93.858287 
L 130.296441 94.533601 
L 130.839293 109.834961 
L 131.382146 110.153449 
L 131.924998 123.015648 
L 133.553555 135.937673 
L 134.096408 138.82738 
L 134.63926 142.461949 
L 135.724965 146.71448 
L 136.267818 148.810432 
L 136.81067 151.740333 
L 137.896375 155.599209 
L 138.439228 156.723819 
L 138.98208 157.200515 
L 139.524933 158.006327 
L 140.067785 157.661892 
L 140.610637 159.553996 
L 141.15349 163.329699 
L 141.696342 164.653505 
L 142.239195 165.034224 
L 142.782047 168.745678 
L 143.3249 169.697091 
L 143.867752 170.138714 
L 144.410605 177.493454 
L 144.953457 179.08929 
L 145.49631 185.034432 
L 146.039162 186.083553 
L 146.582015 190.942584 
L 147.124867 186.571193 
L 147.66772 184.840163 
L 148.210572 181.189536 
L 148.753424 174.850738 
L 149.296277 166.507574 
L 149.839129 148.832372 
L 151.467687 130.780145 
L 152.553392 124.96483 
L 153.096244 123.966684 
L 153.639097 116.880485 
L 154.181949 115.071769 
L 154.724802 109.366098 
L 155.267654 105.932849 
L 155.810507 105.977542 
L 156.353359 101.151063 
L 156.896211 101.095972 
L 157.439064 97.432022 
L 157.981916 97.910167 
L 158.524769 103.77836 
L 159.067621 105.350446 
L 159.610474 109.922239 
L 160.153326 112.120654 
L 160.696179 113.273752 
L 161.239031 127.275239 
L 161.781884 132.777949 
L 162.324736 137.109894 
L 162.867589 145.338969 
L 163.410441 150.186886 
L 163.953294 157.243529 
L 164.496146 161.048936 
L 165.038998 165.814231 
L 165.581851 169.02688 
L 166.124703 171.042949 
L 166.668099 179.74281 
L 167.211494 190.783182 
L 167.754347 194.569149 
L 168.297199 197.318864 
L 168.840051 197.245853 
L 169.382904 201.856885 
L 170.468609 197.227501 
L 171.011461 197.037569 
L 172.097166 188.655865 
L 172.640562 151.898369 
L 173.183957 141.034509 
L 173.726809 137.643697 
L 174.270205 131.980027 
L 175.356995 111.158706 
L 175.900391 113.936593 
L 176.986096 127.444847 
L 177.528948 136.720673 
L 178.071801 143.923752 
L 178.615196 163.706858 
L 179.158591 176.157521 
L 179.701986 184.38563 
L 180.244839 187.712949 
L 181.330544 191.556696 
L 181.873396 197.370724 
L 182.416249 204.621843 
L 182.959101 204.99084 
L 183.501954 209.68362 
L 184.044806 204.002663 
L 184.588201 188.881192 
L 185.131054 184.185945 
L 185.673906 184.512103 
L 186.216759 171.525094 
L 186.759611 167.153021 
L 187.302464 161.733967 
L 187.845316 157.663927 
L 188.388169 158.300726 
L 188.931021 152.39105 
L 190.016726 147.899949 
L 190.560122 139.953126 
L 191.103517 135.288832 
L 191.646912 120.478866 
L 192.189765 120.565266 
L 192.732617 119.355794 
L 193.27547 122.264465 
L 193.818322 117.21099 
L 194.361174 118.026239 
L 195.446879 123.448197 
L 195.989732 123.075735 
L 196.532584 124.038722 
L 197.07598 145.249506 
L 198.161685 149.010199 
L 198.704537 152.994102 
L 199.790242 162.747765 
L 200.333094 165.774208 
L 201.961652 177.924298 
L 202.504504 178.233757 
L 203.047357 179.960792 
L 203.590209 182.552829 
L 204.133062 182.70019 
L 204.675914 185.028408 
L 205.218767 189.08719 
L 205.761619 190.265839 
L 206.304471 212.857854 
L 206.847324 217.244984 
L 207.390176 220.678799 
L 207.933029 216.050882 
L 208.475881 198.299383 
L 209.019277 208.616866 
L 209.562672 213.59043 
L 210.106067 222.758523 
L 210.64892 222.250622 
L 211.191772 222.695166 
L 211.734625 223.739874 
L 212.277477 219.091568 
L 212.82033 218.835184 
L 213.363182 219.514637 
L 213.906035 219.619918 
L 214.44943 202.993595 
L 214.992282 203.273219 
L 215.535135 200.417425 
L 216.62084 197.977702 
L 217.163692 196.63005 
L 217.706545 194.690357 
L 218.249397 191.922155 
L 218.79225 191.463582 
L 219.335102 188.33306 
L 219.877955 187.036026 
L 220.420807 185.398242 
L 220.963659 184.810247 
L 221.506512 183.114185 
L 222.049364 182.470176 
L 222.592217 182.894871 
L 223.135069 181.923827 
L 223.677922 181.258363 
L 224.220774 184.346392 
L 224.763627 180.230216 
L 225.306479 180.567011 
L 226.392184 180.650543 
L 226.935037 181.454614 
L 227.477889 181.522704 
L 228.020741 178.895889 
L 228.563594 179.692008 
L 229.106446 177.786311 
L 229.649299 177.055059 
L 230.192151 176.064923 
L 230.735004 177.102668 
L 231.277856 173.197027 
L 231.820709 171.009214 
L 232.363561 168.341332 
L 232.906414 167.323641 
L 233.449266 167.104951 
L 233.992119 168.247975 
L 234.534971 166.014206 
L 235.077824 163.22227 
L 235.620676 164.126625 
L 236.163528 162.684488 
L 236.706381 162.279754 
L 237.249233 160.205265 
L 237.792086 159.929105 
L 238.334938 159.778386 
L 238.877791 160.587656 
L 239.420643 201.710327 
L 239.963496 154.290929 
L 240.506348 208.851875 
L 241.049201 209.339573 
L 241.592053 152.328571 
L 242.134906 151.136537 
L 242.677758 149.634593 
L 243.220611 147.571442 
L 243.763463 148.079981 
L 244.849168 144.3041 
L 245.39202 149.123283 
L 245.934873 150.058131 
L 246.477725 151.976077 
L 247.020578 158.360816 
L 247.56343 167.67225 
L 248.649135 177.524303 
L 249.191988 184.844179 
L 250.277693 192.649899 
L 250.820545 195.109868 
L 251.363398 200.183547 
L 251.906793 211.661525 
L 252.993584 225.467735 
L 253.536979 236.553608 
L 254.080374 238.901859 
L 254.62377 230.348393 
L 255.167165 206.215366 
L 255.710017 202.412714 
L 256.253413 190.213595 
L 257.88197 182.207373 
L 258.424822 182.445491 
L 258.967675 179.938772 
L 259.510527 178.143374 
L 260.05338 175.492262 
L 260.596232 175.073812 
L 261.139085 173.698336 
L 261.681937 173.160681 
L 262.768728 153.787501 
L 263.31158 154.158613 
L 263.854976 165.662992 
L 264.397828 168.205381 
L 264.940681 177.884787 
L 266.026386 186.611085 
L 267.11209 197.754416 
L 267.655486 217.99923 
L 268.198881 220.613334 
L 268.742276 230.591933 
L 269.285129 206.346223 
L 269.828524 245.655737 
L 270.371377 194.412319 
L 270.914772 190.161348 
L 271.457624 188.641346 
L 272.000477 185.863618 
L 272.543329 181.551434 
L 273.086182 178.160102 
L 273.629577 209.847977 
L 274.172972 197.365541 
L 274.716368 188.10235 
L 275.802073 183.066854 
L 276.345468 168.416386 
L 276.88832 170.651654 
L 277.974025 165.511094 
L 278.516878 165.370705 
L 279.05973 165.926066 
L 279.602583 161.539249 
L 280.145435 161.648895 
L 280.688288 164.186378 
L 281.23114 167.377133 
L 281.773993 167.766309 
L 282.316845 168.475891 
L 282.859698 169.400544 
L 283.40255 170.098875 
L 283.945402 172.867171 
L 284.488255 170.65908 
L 285.031107 176.603051 
L 285.57396 176.779443 
L 286.116812 184.586011 
L 286.659665 187.864817 
L 287.202517 190.404829 
L 287.74537 192.249799 
L 288.288222 192.092605 
L 288.831075 192.934428 
L 289.373927 196.078176 
L 289.91678 196.303834 
L 290.459632 197.220321 
L 291.002485 199.225187 
L 291.545337 200.670351 
L 292.088189 202.684542 
L 292.631042 201.820369 
L 293.173894 204.63492 
L 293.716747 206.423707 
L 294.259599 201.821534 
L 294.802452 209.111752 
L 296.431009 214.741623 
L 297.516714 217.890732 
L 298.059567 218.984256 
L 298.602419 220.678799 
L 299.145272 221.880188 
L 300.230976 225.288097 
L 300.773829 225.815114 
L 301.316681 226.123921 
L 301.859534 229.472904 
L 302.402386 227.340363 
L 302.945239 229.357877 
L 303.488091 228.881918 
L 304.030944 230.525162 
L 304.573796 232.694895 
L 305.116649 233.810262 
L 305.659501 236.208055 
L 306.202354 237.987197 
L 306.745206 256.999542 
L 307.288059 260.855661 
L 307.830911 265.677071 
L 308.373763 262.050486 
L 309.459468 252.233512 
L 310.002321 235.243 
L 310.545173 225.08269 
L 311.630878 211.179806 
L 312.173731 205.235516 
L 312.716583 202.072118 
L 313.259436 199.942459 
L 314.345141 184.727788 
L 314.887993 182.84552 
L 315.430845 179.466623 
L 315.973698 184.02018 
L 316.51655 191.025278 
L 317.059403 195.757773 
L 318.145108 222.475409 
L 318.68796 226.635716 
L 319.230813 208.466203 
L 319.773665 205.650582 
L 320.316518 203.612247 
L 320.85937 203.678845 
L 321.402223 203.993556 
L 321.945075 200.443682 
L 322.487928 200.200664 
L 323.03078 198.212099 
L 323.573632 194.851139 
L 324.116485 193.32382 
L 324.659337 190.406831 
L 325.20219 188.479576 
L 325.745042 187.237146 
L 326.287895 187.351981 
L 326.830747 183.996806 
L 327.3736 187.288296 
L 327.916452 189.776747 
L 328.459305 190.063327 
L 329.002157 194.064966 
L 329.54501 193.69507 
L 330.087862 198.961561 
L 330.630715 205.783501 
L 331.173567 209.821949 
L 331.716419 212.72984 
L 332.259272 218.616542 
L 332.802124 217.81414 
L 333.344977 220.521046 
L 333.887829 221.222198 
L 334.430682 221.344111 
L 334.973534 217.062795 
L 335.516387 218.434608 
L 336.059239 216.274045 
L 336.602092 215.001955 
L 337.144944 211.946651 
L 337.687797 211.166808 
L 338.230649 213.730206 
L 338.773502 211.195892 
L 339.316354 210.882334 
L 339.859206 202.814709 
L 340.402059 209.452778 
L 342.030616 219.501741 
L 343.659174 236.660957 
L 344.202026 239.803016 
L 344.744879 247.964867 
L 345.287731 252.764372 
L 347.459141 266.638925 
L 348.001993 274.351366 
L 348.544846 277.697199 
L 349.087698 280.267832 
L 349.630551 280.226786 
L 350.173403 278.632304 
L 350.716256 272.275779 
L 351.259108 260.120519 
L 351.801961 252.664604 
L 352.344813 242.736237 
L 353.430518 229.963309 
L 353.973371 226.179121 
L 354.516223 223.63504 
L 355.059075 219.383549 
L 356.14478 213.248618 
L 356.687633 208.992302 
L 357.230485 201.578854 
L 357.773338 197.097427 
L 358.859043 208.74033 
L 359.401895 221.901982 
L 359.944748 230.05665 
L 360.4876 241.498912 
L 361.573305 255.930572 
L 362.116158 260.146155 
L 362.65901 263.204783 
L 363.201862 267.119493 
L 363.744715 270.088146 
L 364.287567 273.789833 
L 364.83042 279.762993 
L 365.916125 288.221587 
L 366.458977 291.456486 
L 367.00183 286.311062 
L 367.544682 283.054781 
L 368.087535 275.941968 
L 369.716092 247.820197 
L 370.258945 241.086157 
L 371.344649 232.441095 
L 371.887502 230.721537 
L 372.430354 226.186037 
L 372.973207 222.655553 
L 374.058912 210.602853 
L 374.601764 208.834622 
L 375.144617 205.534686 
L 375.687469 210.406416 
L 376.230322 216.778041 
L 376.773174 243.218119 
L 377.316027 232.544976 
L 377.858879 248.408467 
L 378.401732 252.539823 
L 378.944584 259.435315 
L 380.030289 268.533218 
L 381.115994 273.901545 
L 381.658846 278.186389 
L 382.201699 281.352977 
L 382.744551 288.624729 
L 383.287404 293.314348 
L 383.830256 294.728416 
L 384.373109 295.488 
L 384.915961 291.987493 
L 385.458814 287.690385 
L 386.001666 272.919001 
L 386.544518 270.542422 
L 387.087371 262.592193 
L 387.630223 257.683703 
L 388.173076 251.079397 
L 389.258781 241.122118 
L 390.887338 232.350925 
L 391.430191 231.392846 
L 391.973043 224.307263 
L 392.515896 219.272321 
L 393.601601 213.517463 
L 394.687305 224.207456 
L 395.77301 247.506558 
L 396.858715 266.208255 
L 397.94442 276.865369 
L 398.487273 280.893553 
L 398.487273 280.893553 
" style="fill:none;stroke:#1f77b4;stroke-linecap:square;stroke-width:1.5;"/>
   </g>
   <g id="patch_3">
    <path d="M 57.6 307.584 
L 57.6 41.472 
" style="fill:none;stroke:#000000;stroke-linecap:square;stroke-linejoin:miter;stroke-width:0.8;"/>
   </g>
   <g id="patch_4">
    <path d="M 414.72 307.584 
L 414.72 41.472 
" style="fill:none;stroke:#000000;stroke-linecap:square;stroke-linejoin:miter;stroke-width:0.8;"/>
   </g>
   <g id="patch_5">
    <path d="M 57.6 307.584 
L 414.72 307.584 
" style="fill:none;stroke:#000000;stroke-linecap:square;stroke-linejoin:miter;stroke-width:0.8;"/>
   </g>
   <g id="patch_6">
    <path d="M 57.6 41.472 
L 414.72 41.472 
" style="fill:none;stroke:#000000;stroke-linecap:square;stroke-linejoin:miter;stroke-width:0.8;"/>
   </g>
   <g id="text_18">
    <!-- Resistance with source voltage 1000.0 mV -->
    <defs>
     <path d="M 4.203125 54.6875 
L 13.1875 54.6875 
L 24.421875 12.015625 
L 35.59375 54.6875 
L 46.1875 54.6875 
L 57.421875 12.015625 
L 68.609375 54.6875 
L 77.59375 54.6875 
L 63.28125 0 
L 52.6875 0 
L 40.921875 44.828125 
L 29.109375 0 
L 18.5 0 
z
" id="DejaVuSans-77"/>
     <path d="M 30.609375 48.390625 
Q 23.390625 48.390625 19.1875 42.75 
Q 14.984375 37.109375 14.984375 27.296875 
Q 14.984375 17.484375 19.15625 11.84375 
Q 23.34375 6.203125 30.609375 6.203125 
Q 37.796875 6.203125 41.984375 11.859375 
Q 46.1875 17.53125 46.1875 27.296875 
Q 46.1875 37.015625 41.984375 42.703125 
Q 37.796875 48.390625 30.609375 48.390625 
z
M 30.609375 56 
Q 42.328125 56 49.015625 48.375 
Q 55.71875 40.765625 55.71875 27.296875 
Q 55.71875 13.875 49.015625 6.21875 
Q 42.328125 -1.421875 30.609375 -1.421875 
Q 18.84375 -1.421875 12.171875 6.21875 
Q 5.515625 13.875 5.515625 27.296875 
Q 5.515625 40.765625 12.171875 48.375 
Q 18.84375 56 30.609375 56 
z
" id="DejaVuSans-6f"/>
     <path d="M 8.5 21.578125 
L 8.5 54.6875 
L 17.484375 54.6875 
L 17.484375 21.921875 
Q 17.484375 14.15625 20.5 10.265625 
Q 23.53125 6.390625 29.59375 6.390625 
Q 36.859375 6.390625 41.078125 11.03125 
Q 45.3125 15.671875 45.3125 23.6875 
L 45.3125 54.6875 
L 54.296875 54.6875 
L 54.296875 0 
L 45.3125 0 
L 45.3125 8.40625 
Q 42.046875 3.421875 37.71875 1 
Q 33.40625 -1.421875 27.6875 -1.421875 
Q 18.265625 -1.421875 13.375 4.4375 
Q 8.5 10.296875 8.5 21.578125 
z
M 31.109375 56 
z
" id="DejaVuSans-75"/>
     <path d="M 41.109375 46.296875 
Q 39.59375 47.171875 37.8125 47.578125 
Q 36.03125 48 33.890625 48 
Q 26.265625 48 22.1875 43.046875 
Q 18.109375 38.09375 18.109375 28.8125 
L 18.109375 0 
L 9.078125 0 
L 9.078125 54.6875 
L 18.109375 54.6875 
L 18.109375 46.1875 
Q 20.953125 51.171875 25.484375 53.578125 
Q 30.03125 56 36.53125 56 
Q 37.453125 56 38.578125 55.875 
Q 39.703125 55.765625 41.0625 55.515625 
z
" id="DejaVuSans-72"/>
     <path d="M 2.984375 54.6875 
L 12.5 54.6875 
L 29.59375 8.796875 
L 46.6875 54.6875 
L 56.203125 54.6875 
L 35.6875 0 
L 23.484375 0 
z
" id="DejaVuSans-76"/>
     <path d="M 9.421875 75.984375 
L 18.40625 75.984375 
L 18.40625 0 
L 9.421875 0 
z
" id="DejaVuSans-6c"/>
     <path d="M 45.40625 27.984375 
Q 45.40625 37.75 41.375 43.109375 
Q 37.359375 48.484375 30.078125 48.484375 
Q 22.859375 48.484375 18.828125 43.109375 
Q 14.796875 37.75 14.796875 27.984375 
Q 14.796875 18.265625 18.828125 12.890625 
Q 22.859375 7.515625 30.078125 7.515625 
Q 37.359375 7.515625 41.375 12.890625 
Q 45.40625 18.265625 45.40625 27.984375 
z
M 54.390625 6.78125 
Q 54.390625 -7.171875 48.1875 -13.984375 
Q 42 -20.796875 29.203125 -20.796875 
Q 24.46875 -20.796875 20.265625 -20.09375 
Q 16.0625 -19.390625 12.109375 -17.921875 
L 12.109375 -9.1875 
Q 16.0625 -11.328125 19.921875 -12.34375 
Q 23.78125 -13.375 27.78125 -13.375 
Q 36.625 -13.375 41.015625 -8.765625 
Q 45.40625 -4.15625 45.40625 5.171875 
L 45.40625 9.625 
Q 42.625 4.78125 38.28125 2.390625 
Q 33.9375 0 27.875 0 
Q 17.828125 0 11.671875 7.65625 
Q 5.515625 15.328125 5.515625 27.984375 
Q 5.515625 40.671875 11.671875 48.328125 
Q 17.828125 56 27.875 56 
Q 33.9375 56 38.28125 53.609375 
Q 42.625 51.21875 45.40625 46.390625 
L 45.40625 54.6875 
L 54.390625 54.6875 
z
" id="DejaVuSans-67"/>
     <path d="M 10.6875 12.40625 
L 21 12.40625 
L 21 0 
L 10.6875 0 
z
" id="DejaVuSans-2e"/>
     <path d="M 28.609375 0 
L 0.78125 72.90625 
L 11.078125 72.90625 
L 34.1875 11.53125 
L 57.328125 72.90625 
L 67.578125 72.90625 
L 39.796875 0 
z
" id="DejaVuSans-56"/>
    </defs>
    <g transform="translate(107.881875 35.472)scale(0.12 -0.12)">
     <use xlink:href="#DejaVuSans-52"/>
     <use x="69.419922" xlink:href="#DejaVuSans-65"/>
     <use x="130.943359" xlink:href="#DejaVuSans-73"/>
     <use x="183.042969" xlink:href="#DejaVuSans-69"/>
     <use x="210.826172" xlink:href="#DejaVuSans-73"/>
     <use x="262.925781" xlink:href="#DejaVuSans-74"/>
     <use x="302.134766" xlink:href="#DejaVuSans-61"/>
     <use x="363.414062" xlink:href="#DejaVuSans-6e"/>
     <use x="426.792969" xlink:href="#DejaVuSans-63"/>
     <use x="481.773438" xlink:href="#DejaVuSans-65"/>
     <use x="543.296875" xlink:href="#DejaVuSans-20"/>
     <use x="575.083984" xlink:href="#DejaVuSans-77"/>
     <use x="656.871094" xlink:href="#DejaVuSans-69"/>
     <use x="684.654297" xlink:href="#DejaVuSans-74"/>
     <use x="723.863281" xlink:href="#DejaVuSans-68"/>
     <use x="787.242188" xlink:href="#DejaVuSans-20"/>
     <use x="819.029297" xlink:href="#DejaVuSans-73"/>
     <use x="871.128906" xlink:href="#DejaVuSans-6f"/>
     <use x="932.310547" xlink:href="#DejaVuSans-75"/>
     <use x="995.689453" xlink:href="#DejaVuSans-72"/>
     <use x="1036.771484" xlink:href="#DejaVuSans-63"/>
     <use x="1091.751953" xlink:href="#DejaVuSans-65"/>
     <use x="1153.275391" xlink:href="#DejaVuSans-20"/>
     <use x="1185.0625" xlink:href="#DejaVuSans-76"/>
     <use x="1244.242188" xlink:href="#DejaVuSans-6f"/>
     <use x="1305.423828" xlink:href="#DejaVuSans-6c"/>
     <use x="1333.207031" xlink:href="#DejaVuSans-74"/>
     <use x="1372.416016" xlink:href="#DejaVuSans-61"/>
     <use x="1433.695312" xlink:href="#DejaVuSans-67"/>
     <use x="1497.171875" xlink:href="#DejaVuSans-65"/>
     <use x="1558.695312" xlink:href="#DejaVuSans-20"/>
     <use x="1590.482422" xlink:href="#DejaVuSans-31"/>
     <use x="1654.105469" xlink:href="#DejaVuSans-30"/>
     <use x="1717.728516" xlink:href="#DejaVuSans-30"/>
     <use x="1781.351562" xlink:href="#DejaVuSans-30"/>
     <use x="1844.974609" xlink:href="#DejaVuSans-2e"/>
     <use x="1876.761719" xlink:href="#DejaVuSans-30"/>
     <use x="1940.384766" xlink:href="#DejaVuSans-20"/>
     <use x="1972.171875" xlink:href="#DejaVuSans-6d"/>
     <use x="2069.583984" xlink:href="#DejaVuSans-56"/>
    </g>
   </g>
  </g>
 </g>
 <defs>
  <clipPath id="pecf79df4a2">
   <rect height="266.112" width="357.12" x="57.6" y="41.472"/>
  </clipPath>
 </defs>
</svg>
