<?xml version="1.0" encoding="utf-8" standalone="no"?>
<!DOCTYPE svg PUBLIC "-//W3C//DTD SVG 1.1//EN"
  "http://www.w3.org/Graphics/SVG/1.1/DTD/svg11.dtd">
<!-- Created with matplotlib (http://matplotlib.org/) -->
<svg height="345pt" version="1.1" viewBox="0 0 460 345" width="460pt" xmlns="http://www.w3.org/2000/svg" xmlns:xlink="http://www.w3.org/1999/xlink">
 <defs>
  <style type="text/css">
*{stroke-linecap:butt;stroke-linejoin:round;}
  </style>
 </defs>
 <g id="figure_1">
  <g id="patch_1">
   <path d="M 0 345.6 
L 460.8 345.6 
L 460.8 0 
L 0 0 
z
" style="fill:#ffffff;"/>
  </g>
  <g id="axes_1">
   <g id="patch_2">
    <path d="M 57.6 307.584 
L 414.72 307.584 
L 414.72 41.472 
L 57.6 41.472 
z
" style="fill:#ffffff;"/>
   </g>
   <g id="matplotlib.axis_1">
    <g id="xtick_1">
     <g id="line2d_1">
      <defs>
       <path d="M 0 0 
L 0 3.5 
" id="ma672df3e15" style="stroke:#000000;stroke-width:0.8;"/>
      </defs>
      <g>
       <use style="stroke:#000000;stroke-width:0.8;" x="73.289875" xlink:href="#ma672df3e15" y="307.584"/>
      </g>
     </g>
     <g id="text_1">
      <!-- 0 -->
      <defs>
       <path d="M 31.78125 66.40625 
Q 24.171875 66.40625 20.328125 58.90625 
Q 16.5 51.421875 16.5 36.375 
Q 16.5 21.390625 20.328125 13.890625 
Q 24.171875 6.390625 31.78125 6.390625 
Q 39.453125 6.390625 43.28125 13.890625 
Q 47.125 21.390625 47.125 36.375 
Q 47.125 51.421875 43.28125 58.90625 
Q 39.453125 66.40625 31.78125 66.40625 
z
M 31.78125 74.21875 
Q 44.046875 74.21875 50.515625 64.515625 
Q 56.984375 54.828125 56.984375 36.375 
Q 56.984375 17.96875 50.515625 8.265625 
Q 44.046875 -1.421875 31.78125 -1.421875 
Q 19.53125 -1.421875 13.0625 8.265625 
Q 6.59375 17.96875 6.59375 36.375 
Q 6.59375 54.828125 13.0625 64.515625 
Q 19.53125 74.21875 31.78125 74.21875 
z
" id="DejaVuSans-30"/>
      </defs>
      <g transform="translate(70.108625 322.182437)scale(0.1 -0.1)">
       <use xlink:href="#DejaVuSans-30"/>
      </g>
     </g>
    </g>
    <g id="xtick_2">
     <g id="line2d_2">
      <g>
       <use style="stroke:#000000;stroke-width:0.8;" x="127.575121" xlink:href="#ma672df3e15" y="307.584"/>
      </g>
     </g>
     <g id="text_2">
      <!-- 100 -->
      <defs>
       <path d="M 12.40625 8.296875 
L 28.515625 8.296875 
L 28.515625 63.921875 
L 10.984375 60.40625 
L 10.984375 69.390625 
L 28.421875 72.90625 
L 38.28125 72.90625 
L 38.28125 8.296875 
L 54.390625 8.296875 
L 54.390625 0 
L 12.40625 0 
z
" id="DejaVuSans-31"/>
      </defs>
      <g transform="translate(118.031371 322.182437)scale(0.1 -0.1)">
       <use xlink:href="#DejaVuSans-31"/>
       <use x="63.623047" xlink:href="#DejaVuSans-30"/>
       <use x="127.246094" xlink:href="#DejaVuSans-30"/>
      </g>
     </g>
    </g>
    <g id="xtick_3">
     <g id="line2d_3">
      <g>
       <use style="stroke:#000000;stroke-width:0.8;" x="181.860368" xlink:href="#ma672df3e15" y="307.584"/>
      </g>
     </g>
     <g id="text_3">
      <!-- 200 -->
      <defs>
       <path d="M 19.1875 8.296875 
L 53.609375 8.296875 
L 53.609375 0 
L 7.328125 0 
L 7.328125 8.296875 
Q 12.9375 14.109375 22.625 23.890625 
Q 32.328125 33.6875 34.8125 36.53125 
Q 39.546875 41.84375 41.421875 45.53125 
Q 43.3125 49.21875 43.3125 52.78125 
Q 43.3125 58.59375 39.234375 62.25 
Q 35.15625 65.921875 28.609375 65.921875 
Q 23.96875 65.921875 18.8125 64.3125 
Q 13.671875 62.703125 7.8125 59.421875 
L 7.8125 69.390625 
Q 13.765625 71.78125 18.9375 73 
Q 24.125 74.21875 28.421875 74.21875 
Q 39.75 74.21875 46.484375 68.546875 
Q 53.21875 62.890625 53.21875 53.421875 
Q 53.21875 48.921875 51.53125 44.890625 
Q 49.859375 40.875 45.40625 35.40625 
Q 44.1875 33.984375 37.640625 27.21875 
Q 31.109375 20.453125 19.1875 8.296875 
z
" id="DejaVuSans-32"/>
      </defs>
      <g transform="translate(172.316618 322.182437)scale(0.1 -0.1)">
       <use xlink:href="#DejaVuSans-32"/>
       <use x="63.623047" xlink:href="#DejaVuSans-30"/>
       <use x="127.246094" xlink:href="#DejaVuSans-30"/>
      </g>
     </g>
    </g>
    <g id="xtick_4">
     <g id="line2d_4">
      <g>
       <use style="stroke:#000000;stroke-width:0.8;" x="236.145614" xlink:href="#ma672df3e15" y="307.584"/>
      </g>
     </g>
     <g id="text_4">
      <!-- 300 -->
      <defs>
       <path d="M 40.578125 39.3125 
Q 47.65625 37.796875 51.625 33 
Q 55.609375 28.21875 55.609375 21.1875 
Q 55.609375 10.40625 48.1875 4.484375 
Q 40.765625 -1.421875 27.09375 -1.421875 
Q 22.515625 -1.421875 17.65625 -0.515625 
Q 12.796875 0.390625 7.625 2.203125 
L 7.625 11.71875 
Q 11.71875 9.328125 16.59375 8.109375 
Q 21.484375 6.890625 26.8125 6.890625 
Q 36.078125 6.890625 40.9375 10.546875 
Q 45.796875 14.203125 45.796875 21.1875 
Q 45.796875 27.640625 41.28125 31.265625 
Q 36.765625 34.90625 28.71875 34.90625 
L 20.21875 34.90625 
L 20.21875 43.015625 
L 29.109375 43.015625 
Q 36.375 43.015625 40.234375 45.921875 
Q 44.09375 48.828125 44.09375 54.296875 
Q 44.09375 59.90625 40.109375 62.90625 
Q 36.140625 65.921875 28.71875 65.921875 
Q 24.65625 65.921875 20.015625 65.03125 
Q 15.375 64.15625 9.8125 62.3125 
L 9.8125 71.09375 
Q 15.4375 72.65625 20.34375 73.4375 
Q 25.25 74.21875 29.59375 74.21875 
Q 40.828125 74.21875 47.359375 69.109375 
Q 53.90625 64.015625 53.90625 55.328125 
Q 53.90625 49.265625 50.4375 45.09375 
Q 46.96875 40.921875 40.578125 39.3125 
z
" id="DejaVuSans-33"/>
      </defs>
      <g transform="translate(226.601864 322.182437)scale(0.1 -0.1)">
       <use xlink:href="#DejaVuSans-33"/>
       <use x="63.623047" xlink:href="#DejaVuSans-30"/>
       <use x="127.246094" xlink:href="#DejaVuSans-30"/>
      </g>
     </g>
    </g>
    <g id="xtick_5">
     <g id="line2d_5">
      <g>
       <use style="stroke:#000000;stroke-width:0.8;" x="290.430861" xlink:href="#ma672df3e15" y="307.584"/>
      </g>
     </g>
     <g id="text_5">
      <!-- 400 -->
      <defs>
       <path d="M 37.796875 64.3125 
L 12.890625 25.390625 
L 37.796875 25.390625 
z
M 35.203125 72.90625 
L 47.609375 72.90625 
L 47.609375 25.390625 
L 58.015625 25.390625 
L 58.015625 17.1875 
L 47.609375 17.1875 
L 47.609375 0 
L 37.796875 0 
L 37.796875 17.1875 
L 4.890625 17.1875 
L 4.890625 26.703125 
z
" id="DejaVuSans-34"/>
      </defs>
      <g transform="translate(280.887111 322.182437)scale(0.1 -0.1)">
       <use xlink:href="#DejaVuSans-34"/>
       <use x="63.623047" xlink:href="#DejaVuSans-30"/>
       <use x="127.246094" xlink:href="#DejaVuSans-30"/>
      </g>
     </g>
    </g>
    <g id="xtick_6">
     <g id="line2d_6">
      <g>
       <use style="stroke:#000000;stroke-width:0.8;" x="344.716108" xlink:href="#ma672df3e15" y="307.584"/>
      </g>
     </g>
     <g id="text_6">
      <!-- 500 -->
      <defs>
       <path d="M 10.796875 72.90625 
L 49.515625 72.90625 
L 49.515625 64.59375 
L 19.828125 64.59375 
L 19.828125 46.734375 
Q 21.96875 47.46875 24.109375 47.828125 
Q 26.265625 48.1875 28.421875 48.1875 
Q 40.625 48.1875 47.75 41.5 
Q 54.890625 34.8125 54.890625 23.390625 
Q 54.890625 11.625 47.5625 5.09375 
Q 40.234375 -1.421875 26.90625 -1.421875 
Q 22.3125 -1.421875 17.546875 -0.640625 
Q 12.796875 0.140625 7.71875 1.703125 
L 7.71875 11.625 
Q 12.109375 9.234375 16.796875 8.0625 
Q 21.484375 6.890625 26.703125 6.890625 
Q 35.15625 6.890625 40.078125 11.328125 
Q 45.015625 15.765625 45.015625 23.390625 
Q 45.015625 31 40.078125 35.4375 
Q 35.15625 39.890625 26.703125 39.890625 
Q 22.75 39.890625 18.8125 39.015625 
Q 14.890625 38.140625 10.796875 36.28125 
z
" id="DejaVuSans-35"/>
      </defs>
      <g transform="translate(335.172358 322.182437)scale(0.1 -0.1)">
       <use xlink:href="#DejaVuSans-35"/>
       <use x="63.623047" xlink:href="#DejaVuSans-30"/>
       <use x="127.246094" xlink:href="#DejaVuSans-30"/>
      </g>
     </g>
    </g>
    <g id="xtick_7">
     <g id="line2d_7">
      <g>
       <use style="stroke:#000000;stroke-width:0.8;" x="399.001354" xlink:href="#ma672df3e15" y="307.584"/>
      </g>
     </g>
     <g id="text_7">
      <!-- 600 -->
      <defs>
       <path d="M 33.015625 40.375 
Q 26.375 40.375 22.484375 35.828125 
Q 18.609375 31.296875 18.609375 23.390625 
Q 18.609375 15.53125 22.484375 10.953125 
Q 26.375 6.390625 33.015625 6.390625 
Q 39.65625 6.390625 43.53125 10.953125 
Q 47.40625 15.53125 47.40625 23.390625 
Q 47.40625 31.296875 43.53125 35.828125 
Q 39.65625 40.375 33.015625 40.375 
z
M 52.59375 71.296875 
L 52.59375 62.3125 
Q 48.875 64.0625 45.09375 64.984375 
Q 41.3125 65.921875 37.59375 65.921875 
Q 27.828125 65.921875 22.671875 59.328125 
Q 17.53125 52.734375 16.796875 39.40625 
Q 19.671875 43.65625 24.015625 45.921875 
Q 28.375 48.1875 33.59375 48.1875 
Q 44.578125 48.1875 50.953125 41.515625 
Q 57.328125 34.859375 57.328125 23.390625 
Q 57.328125 12.15625 50.6875 5.359375 
Q 44.046875 -1.421875 33.015625 -1.421875 
Q 20.359375 -1.421875 13.671875 8.265625 
Q 6.984375 17.96875 6.984375 36.375 
Q 6.984375 53.65625 15.1875 63.9375 
Q 23.390625 74.21875 37.203125 74.21875 
Q 40.921875 74.21875 44.703125 73.484375 
Q 48.484375 72.75 52.59375 71.296875 
z
" id="DejaVuSans-36"/>
      </defs>
      <g transform="translate(389.457604 322.182437)scale(0.1 -0.1)">
       <use xlink:href="#DejaVuSans-36"/>
       <use x="63.623047" xlink:href="#DejaVuSans-30"/>
       <use x="127.246094" xlink:href="#DejaVuSans-30"/>
      </g>
     </g>
    </g>
    <g id="text_8">
     <!-- t(s) -->
     <defs>
      <path d="M 18.3125 70.21875 
L 18.3125 54.6875 
L 36.8125 54.6875 
L 36.8125 47.703125 
L 18.3125 47.703125 
L 18.3125 18.015625 
Q 18.3125 11.328125 20.140625 9.421875 
Q 21.96875 7.515625 27.59375 7.515625 
L 36.8125 7.515625 
L 36.8125 0 
L 27.59375 0 
Q 17.1875 0 13.234375 3.875 
Q 9.28125 7.765625 9.28125 18.015625 
L 9.28125 47.703125 
L 2.6875 47.703125 
L 2.6875 54.6875 
L 9.28125 54.6875 
L 9.28125 70.21875 
z
" id="DejaVuSans-74"/>
      <path d="M 31 75.875 
Q 24.46875 64.65625 21.28125 53.65625 
Q 18.109375 42.671875 18.109375 31.390625 
Q 18.109375 20.125 21.3125 9.0625 
Q 24.515625 -2 31 -13.1875 
L 23.1875 -13.1875 
Q 15.875 -1.703125 12.234375 9.375 
Q 8.59375 20.453125 8.59375 31.390625 
Q 8.59375 42.28125 12.203125 53.3125 
Q 15.828125 64.359375 23.1875 75.875 
z
" id="DejaVuSans-28"/>
      <path d="M 44.28125 53.078125 
L 44.28125 44.578125 
Q 40.484375 46.53125 36.375 47.5 
Q 32.28125 48.484375 27.875 48.484375 
Q 21.1875 48.484375 17.84375 46.4375 
Q 14.5 44.390625 14.5 40.28125 
Q 14.5 37.15625 16.890625 35.375 
Q 19.28125 33.59375 26.515625 31.984375 
L 29.59375 31.296875 
Q 39.15625 29.25 43.1875 25.515625 
Q 47.21875 21.78125 47.21875 15.09375 
Q 47.21875 7.46875 41.1875 3.015625 
Q 35.15625 -1.421875 24.609375 -1.421875 
Q 20.21875 -1.421875 15.453125 -0.5625 
Q 10.6875 0.296875 5.421875 2 
L 5.421875 11.28125 
Q 10.40625 8.6875 15.234375 7.390625 
Q 20.0625 6.109375 24.8125 6.109375 
Q 31.15625 6.109375 34.5625 8.28125 
Q 37.984375 10.453125 37.984375 14.40625 
Q 37.984375 18.0625 35.515625 20.015625 
Q 33.0625 21.96875 24.703125 23.78125 
L 21.578125 24.515625 
Q 13.234375 26.265625 9.515625 29.90625 
Q 5.8125 33.546875 5.8125 39.890625 
Q 5.8125 47.609375 11.28125 51.796875 
Q 16.75 56 26.8125 56 
Q 31.78125 56 36.171875 55.265625 
Q 40.578125 54.546875 44.28125 53.078125 
z
" id="DejaVuSans-73"/>
      <path d="M 8.015625 75.875 
L 15.828125 75.875 
Q 23.140625 64.359375 26.78125 53.3125 
Q 30.421875 42.28125 30.421875 31.390625 
Q 30.421875 20.453125 26.78125 9.375 
Q 23.140625 -1.703125 15.828125 -13.1875 
L 8.015625 -13.1875 
Q 14.5 -2 17.703125 9.0625 
Q 20.90625 20.125 20.90625 31.390625 
Q 20.90625 42.671875 17.703125 53.65625 
Q 14.5 64.65625 8.015625 75.875 
z
" id="DejaVuSans-29"/>
     </defs>
     <g transform="translate(227.693594 335.860562)scale(0.1 -0.1)">
      <use xlink:href="#DejaVuSans-74"/>
      <use x="39.208984" xlink:href="#DejaVuSans-28"/>
      <use x="78.222656" xlink:href="#DejaVuSans-73"/>
      <use x="130.322266" xlink:href="#DejaVuSans-29"/>
     </g>
    </g>
   </g>
   <g id="matplotlib.axis_2">
    <g id="ytick_1">
     <g id="line2d_8">
      <defs>
       <path d="M 0 0 
L -3.5 0 
" id="m0703f22166" style="stroke:#000000;stroke-width:0.8;"/>
      </defs>
      <g>
       <use style="stroke:#000000;stroke-width:0.8;" x="57.6" xlink:href="#m0703f22166" y="295.488"/>
      </g>
     </g>
     <g id="text_9">
      <!-- −0.000006 -->
      <defs>
       <path d="M 10.59375 35.5 
L 73.1875 35.5 
L 73.1875 27.203125 
L 10.59375 27.203125 
z
" id="DejaVuSans-2212"/>
       <path d="M 10.6875 12.40625 
L 21 12.40625 
L 21 0 
L 10.6875 0 
z
" id="DejaVuSans-2e"/>
      </defs>
      <g transform="translate(-5.495313 299.287219)scale(0.1 -0.1)">
       <use xlink:href="#DejaVuSans-2212"/>
       <use x="83.789062" xlink:href="#DejaVuSans-30"/>
       <use x="147.412109" xlink:href="#DejaVuSans-2e"/>
       <use x="179.199219" xlink:href="#DejaVuSans-30"/>
       <use x="242.822266" xlink:href="#DejaVuSans-30"/>
       <use x="306.445312" xlink:href="#DejaVuSans-30"/>
       <use x="370.068359" xlink:href="#DejaVuSans-30"/>
       <use x="433.691406" xlink:href="#DejaVuSans-30"/>
       <use x="497.314453" xlink:href="#DejaVuSans-36"/>
      </g>
     </g>
    </g>
    <g id="ytick_2">
     <g id="line2d_9">
      <g>
       <use style="stroke:#000000;stroke-width:0.8;" x="57.6" xlink:href="#m0703f22166" y="258.269538"/>
      </g>
     </g>
     <g id="text_10">
      <!-- −0.000004 -->
      <g transform="translate(-5.495313 262.068757)scale(0.1 -0.1)">
       <use xlink:href="#DejaVuSans-2212"/>
       <use x="83.789062" xlink:href="#DejaVuSans-30"/>
       <use x="147.412109" xlink:href="#DejaVuSans-2e"/>
       <use x="179.199219" xlink:href="#DejaVuSans-30"/>
       <use x="242.822266" xlink:href="#DejaVuSans-30"/>
       <use x="306.445312" xlink:href="#DejaVuSans-30"/>
       <use x="370.068359" xlink:href="#DejaVuSans-30"/>
       <use x="433.691406" xlink:href="#DejaVuSans-30"/>
       <use x="497.314453" xlink:href="#DejaVuSans-34"/>
      </g>
     </g>
    </g>
    <g id="ytick_3">
     <g id="line2d_10">
      <g>
       <use style="stroke:#000000;stroke-width:0.8;" x="57.6" xlink:href="#m0703f22166" y="221.051077"/>
      </g>
     </g>
     <g id="text_11">
      <!-- −0.000002 -->
      <g transform="translate(-5.495313 224.850296)scale(0.1 -0.1)">
       <use xlink:href="#DejaVuSans-2212"/>
       <use x="83.789062" xlink:href="#DejaVuSans-30"/>
       <use x="147.412109" xlink:href="#DejaVuSans-2e"/>
       <use x="179.199219" xlink:href="#DejaVuSans-30"/>
       <use x="242.822266" xlink:href="#DejaVuSans-30"/>
       <use x="306.445312" xlink:href="#DejaVuSans-30"/>
       <use x="370.068359" xlink:href="#DejaVuSans-30"/>
       <use x="433.691406" xlink:href="#DejaVuSans-30"/>
       <use x="497.314453" xlink:href="#DejaVuSans-32"/>
      </g>
     </g>
    </g>
    <g id="ytick_4">
     <g id="line2d_11">
      <g>
       <use style="stroke:#000000;stroke-width:0.8;" x="57.6" xlink:href="#m0703f22166" y="183.832615"/>
      </g>
     </g>
     <g id="text_12">
      <!-- 0.000000 -->
      <g transform="translate(2.884375 187.631834)scale(0.1 -0.1)">
       <use xlink:href="#DejaVuSans-30"/>
       <use x="63.623047" xlink:href="#DejaVuSans-2e"/>
       <use x="95.410156" xlink:href="#DejaVuSans-30"/>
       <use x="159.033203" xlink:href="#DejaVuSans-30"/>
       <use x="222.65625" xlink:href="#DejaVuSans-30"/>
       <use x="286.279297" xlink:href="#DejaVuSans-30"/>
       <use x="349.902344" xlink:href="#DejaVuSans-30"/>
       <use x="413.525391" xlink:href="#DejaVuSans-30"/>
      </g>
     </g>
    </g>
    <g id="ytick_5">
     <g id="line2d_12">
      <g>
       <use style="stroke:#000000;stroke-width:0.8;" x="57.6" xlink:href="#m0703f22166" y="146.614154"/>
      </g>
     </g>
     <g id="text_13">
      <!-- 0.000002 -->
      <g transform="translate(2.884375 150.413373)scale(0.1 -0.1)">
       <use xlink:href="#DejaVuSans-30"/>
       <use x="63.623047" xlink:href="#DejaVuSans-2e"/>
       <use x="95.410156" xlink:href="#DejaVuSans-30"/>
       <use x="159.033203" xlink:href="#DejaVuSans-30"/>
       <use x="222.65625" xlink:href="#DejaVuSans-30"/>
       <use x="286.279297" xlink:href="#DejaVuSans-30"/>
       <use x="349.902344" xlink:href="#DejaVuSans-30"/>
       <use x="413.525391" xlink:href="#DejaVuSans-32"/>
      </g>
     </g>
    </g>
    <g id="ytick_6">
     <g id="line2d_13">
      <g>
       <use style="stroke:#000000;stroke-width:0.8;" x="57.6" xlink:href="#m0703f22166" y="109.395692"/>
      </g>
     </g>
     <g id="text_14">
      <!-- 0.000004 -->
      <g transform="translate(2.884375 113.194911)scale(0.1 -0.1)">
       <use xlink:href="#DejaVuSans-30"/>
       <use x="63.623047" xlink:href="#DejaVuSans-2e"/>
       <use x="95.410156" xlink:href="#DejaVuSans-30"/>
       <use x="159.033203" xlink:href="#DejaVuSans-30"/>
       <use x="222.65625" xlink:href="#DejaVuSans-30"/>
       <use x="286.279297" xlink:href="#DejaVuSans-30"/>
       <use x="349.902344" xlink:href="#DejaVuSans-30"/>
       <use x="413.525391" xlink:href="#DejaVuSans-34"/>
      </g>
     </g>
    </g>
    <g id="ytick_7">
     <g id="line2d_14">
      <g>
       <use style="stroke:#000000;stroke-width:0.8;" x="57.6" xlink:href="#m0703f22166" y="72.177231"/>
      </g>
     </g>
     <g id="text_15">
      <!-- 0.000006 -->
      <g transform="translate(2.884375 75.97645)scale(0.1 -0.1)">
       <use xlink:href="#DejaVuSans-30"/>
       <use x="63.623047" xlink:href="#DejaVuSans-2e"/>
       <use x="95.410156" xlink:href="#DejaVuSans-30"/>
       <use x="159.033203" xlink:href="#DejaVuSans-30"/>
       <use x="222.65625" xlink:href="#DejaVuSans-30"/>
       <use x="286.279297" xlink:href="#DejaVuSans-30"/>
       <use x="349.902344" xlink:href="#DejaVuSans-30"/>
       <use x="413.525391" xlink:href="#DejaVuSans-36"/>
      </g>
     </g>
    </g>
    <g id="text_16">
     <!-- Voltage (V) -->
     <defs>
      <path d="M 28.609375 0 
L 0.78125 72.90625 
L 11.078125 72.90625 
L 34.1875 11.53125 
L 57.328125 72.90625 
L 67.578125 72.90625 
L 39.796875 0 
z
" id="DejaVuSans-56"/>
      <path d="M 30.609375 48.390625 
Q 23.390625 48.390625 19.1875 42.75 
Q 14.984375 37.109375 14.984375 27.296875 
Q 14.984375 17.484375 19.15625 11.84375 
Q 23.34375 6.203125 30.609375 6.203125 
Q 37.796875 6.203125 41.984375 11.859375 
Q 46.1875 17.53125 46.1875 27.296875 
Q 46.1875 37.015625 41.984375 42.703125 
Q 37.796875 48.390625 30.609375 48.390625 
z
M 30.609375 56 
Q 42.328125 56 49.015625 48.375 
Q 55.71875 40.765625 55.71875 27.296875 
Q 55.71875 13.875 49.015625 6.21875 
Q 42.328125 -1.421875 30.609375 -1.421875 
Q 18.84375 -1.421875 12.171875 6.21875 
Q 5.515625 13.875 5.515625 27.296875 
Q 5.515625 40.765625 12.171875 48.375 
Q 18.84375 56 30.609375 56 
z
" id="DejaVuSans-6f"/>
      <path d="M 9.421875 75.984375 
L 18.40625 75.984375 
L 18.40625 0 
L 9.421875 0 
z
" id="DejaVuSans-6c"/>
      <path d="M 34.28125 27.484375 
Q 23.390625 27.484375 19.1875 25 
Q 14.984375 22.515625 14.984375 16.5 
Q 14.984375 11.71875 18.140625 8.90625 
Q 21.296875 6.109375 26.703125 6.109375 
Q 34.1875 6.109375 38.703125 11.40625 
Q 43.21875 16.703125 43.21875 25.484375 
L 43.21875 27.484375 
z
M 52.203125 31.203125 
L 52.203125 0 
L 43.21875 0 
L 43.21875 8.296875 
Q 40.140625 3.328125 35.546875 0.953125 
Q 30.953125 -1.421875 24.3125 -1.421875 
Q 15.921875 -1.421875 10.953125 3.296875 
Q 6 8.015625 6 15.921875 
Q 6 25.140625 12.171875 29.828125 
Q 18.359375 34.515625 30.609375 34.515625 
L 43.21875 34.515625 
L 43.21875 35.40625 
Q 43.21875 41.609375 39.140625 45 
Q 35.0625 48.390625 27.6875 48.390625 
Q 23 48.390625 18.546875 47.265625 
Q 14.109375 46.140625 10.015625 43.890625 
L 10.015625 52.203125 
Q 14.9375 54.109375 19.578125 55.046875 
Q 24.21875 56 28.609375 56 
Q 40.484375 56 46.34375 49.84375 
Q 52.203125 43.703125 52.203125 31.203125 
z
" id="DejaVuSans-61"/>
      <path d="M 45.40625 27.984375 
Q 45.40625 37.75 41.375 43.109375 
Q 37.359375 48.484375 30.078125 48.484375 
Q 22.859375 48.484375 18.828125 43.109375 
Q 14.796875 37.75 14.796875 27.984375 
Q 14.796875 18.265625 18.828125 12.890625 
Q 22.859375 7.515625 30.078125 7.515625 
Q 37.359375 7.515625 41.375 12.890625 
Q 45.40625 18.265625 45.40625 27.984375 
z
M 54.390625 6.78125 
Q 54.390625 -7.171875 48.1875 -13.984375 
Q 42 -20.796875 29.203125 -20.796875 
Q 24.46875 -20.796875 20.265625 -20.09375 
Q 16.0625 -19.390625 12.109375 -17.921875 
L 12.109375 -9.1875 
Q 16.0625 -11.328125 19.921875 -12.34375 
Q 23.78125 -13.375 27.78125 -13.375 
Q 36.625 -13.375 41.015625 -8.765625 
Q 45.40625 -4.15625 45.40625 5.171875 
L 45.40625 9.625 
Q 42.625 4.78125 38.28125 2.390625 
Q 33.9375 0 27.875 0 
Q 17.828125 0 11.671875 7.65625 
Q 5.515625 15.328125 5.515625 27.984375 
Q 5.515625 40.671875 11.671875 48.328125 
Q 17.828125 56 27.875 56 
Q 33.9375 56 38.28125 53.609375 
Q 42.625 51.21875 45.40625 46.390625 
L 45.40625 54.6875 
L 54.390625 54.6875 
z
" id="DejaVuSans-67"/>
      <path d="M 56.203125 29.59375 
L 56.203125 25.203125 
L 14.890625 25.203125 
Q 15.484375 15.921875 20.484375 11.0625 
Q 25.484375 6.203125 34.421875 6.203125 
Q 39.59375 6.203125 44.453125 7.46875 
Q 49.3125 8.734375 54.109375 11.28125 
L 54.109375 2.78125 
Q 49.265625 0.734375 44.1875 -0.34375 
Q 39.109375 -1.421875 33.890625 -1.421875 
Q 20.796875 -1.421875 13.15625 6.1875 
Q 5.515625 13.8125 5.515625 26.8125 
Q 5.515625 40.234375 12.765625 48.109375 
Q 20.015625 56 32.328125 56 
Q 43.359375 56 49.78125 48.890625 
Q 56.203125 41.796875 56.203125 29.59375 
z
M 47.21875 32.234375 
Q 47.125 39.59375 43.09375 43.984375 
Q 39.0625 48.390625 32.421875 48.390625 
Q 24.90625 48.390625 20.390625 44.140625 
Q 15.875 39.890625 15.1875 32.171875 
z
" id="DejaVuSans-65"/>
      <path id="DejaVuSans-20"/>
     </defs>
     <g transform="translate(-11.575 202.577219)rotate(-90)scale(0.1 -0.1)">
      <use xlink:href="#DejaVuSans-56"/>
      <use x="68.298828" xlink:href="#DejaVuSans-6f"/>
      <use x="129.480469" xlink:href="#DejaVuSans-6c"/>
      <use x="157.263672" xlink:href="#DejaVuSans-74"/>
      <use x="196.472656" xlink:href="#DejaVuSans-61"/>
      <use x="257.751953" xlink:href="#DejaVuSans-67"/>
      <use x="321.228516" xlink:href="#DejaVuSans-65"/>
      <use x="382.751953" xlink:href="#DejaVuSans-20"/>
      <use x="414.539062" xlink:href="#DejaVuSans-28"/>
      <use x="453.552734" xlink:href="#DejaVuSans-56"/>
      <use x="521.960938" xlink:href="#DejaVuSans-29"/>
     </g>
    </g>
    <g id="text_17">
     <!-- +1 -->
     <defs>
      <path d="M 46 62.703125 
L 46 35.5 
L 73.1875 35.5 
L 73.1875 27.203125 
L 46 27.203125 
L 46 0 
L 37.796875 0 
L 37.796875 27.203125 
L 10.59375 27.203125 
L 10.59375 35.5 
L 37.796875 35.5 
L 37.796875 62.703125 
z
" id="DejaVuSans-2b"/>
     </defs>
     <g transform="translate(57.6 38.472)scale(0.1 -0.1)">
      <use xlink:href="#DejaVuSans-2b"/>
      <use x="83.789062" xlink:href="#DejaVuSans-31"/>
     </g>
    </g>
   </g>
   <g id="line2d_15">
    <path clip-path="url(#p919b8436dd)" d="M 73.832727 202.441846 
L 74.376123 183.832615 
L 74.919518 128.004923 
L 75.46237 165.223385 
L 76.005223 165.223385 
L 76.548075 183.832615 
L 77.091471 165.223385 
L 77.634866 202.441846 
L 78.177718 165.223385 
L 78.720571 202.441846 
L 79.263423 165.223385 
L 79.806276 202.441846 
L 80.349128 202.441846 
L 80.891981 221.051077 
L 81.434833 276.878769 
L 82.520538 239.660308 
L 83.063933 183.832615 
L 83.606786 221.051077 
L 84.149638 221.051077 
L 84.692491 183.832615 
L 85.235343 239.660308 
L 85.778196 183.832615 
L 86.321048 165.223385 
L 86.863901 202.441846 
L 87.949606 202.441846 
L 88.492458 221.051077 
L 89.035853 202.441846 
L 89.579249 146.614154 
L 90.122644 183.832615 
L 90.665496 165.223385 
L 91.208349 128.004923 
L 91.751201 183.832615 
L 92.294054 146.614154 
L 92.836906 146.614154 
L 93.379759 183.832615 
L 93.922611 202.441846 
L 94.465464 165.223385 
L 95.008859 202.441846 
L 95.552254 165.223385 
L 96.09565 165.223385 
L 96.638502 128.004923 
L 97.181355 165.223385 
L 97.724207 165.223385 
L 98.26706 258.269538 
L 98.809912 165.223385 
L 99.352764 146.614154 
L 99.895617 146.614154 
L 100.438469 202.441846 
L 101.524717 239.660308 
L 102.06757 146.614154 
L 102.610422 146.614154 
L 103.153275 183.832615 
L 103.696127 183.832615 
L 104.238979 202.441846 
L 104.781832 128.004923 
L 105.324684 183.832615 
L 105.867537 202.441846 
L 106.410389 165.223385 
L 106.953242 183.832615 
L 107.496637 221.051077 
L 108.03949 276.878769 
L 109.125194 239.660308 
L 110.210899 239.660308 
L 110.753752 221.051077 
L 111.296604 295.488 
L 111.839457 221.051077 
L 112.382309 258.269538 
L 112.925162 221.051077 
L 113.468014 221.051077 
L 114.010867 183.832615 
L 114.553719 183.832615 
L 115.096572 128.004923 
L 115.639424 221.051077 
L 116.182277 202.441846 
L 116.725129 221.051077 
L 117.267981 183.832615 
L 117.810834 165.223385 
L 118.353686 202.441846 
L 119.439391 202.441846 
L 119.982244 239.660308 
L 120.525096 239.660308 
L 121.067949 183.832615 
L 121.610801 183.832615 
L 122.153654 221.051077 
L 122.696506 239.660308 
L 123.239359 165.223385 
L 123.782211 221.051077 
L 124.325064 202.441846 
L 124.867916 258.269538 
L 125.410768 239.660308 
L 125.953621 165.223385 
L 126.496473 202.441846 
L 127.039326 202.441846 
L 127.582178 221.051077 
L 128.667883 183.832615 
L 129.210736 202.441846 
L 129.753588 239.660308 
L 130.296441 202.441846 
L 130.839293 202.441846 
L 131.382146 221.051077 
L 131.924998 183.832615 
L 132.467851 239.660308 
L 133.010703 183.832615 
L 133.553555 183.832615 
L 134.096408 165.223385 
L 134.63926 128.004923 
L 135.182113 183.832615 
L 135.724965 165.223385 
L 136.267818 128.004923 
L 136.81067 165.223385 
L 137.353523 165.223385 
L 137.896375 146.614154 
L 138.439228 109.395692 
L 138.98208 109.395692 
L 140.067785 183.832615 
L 140.610637 183.832615 
L 141.15349 202.441846 
L 141.696342 165.223385 
L 142.239195 165.223385 
L 142.782047 202.441846 
L 143.3249 183.832615 
L 143.867752 128.004923 
L 145.49631 183.832615 
L 146.039162 165.223385 
L 146.582015 183.832615 
L 147.124867 183.832615 
L 148.210572 146.614154 
L 148.753424 183.832615 
L 149.296277 146.614154 
L 149.839129 221.051077 
L 150.381982 183.832615 
L 150.924834 165.223385 
L 151.467687 239.660308 
L 152.010539 202.441846 
L 152.553392 221.051077 
L 153.639097 183.832615 
L 154.181949 239.660308 
L 154.724802 146.614154 
L 155.267654 202.441846 
L 155.810507 165.223385 
L 156.353359 146.614154 
L 156.896211 202.441846 
L 157.439064 202.441846 
L 157.981916 183.832615 
L 158.524769 183.832615 
L 159.067621 239.660308 
L 160.153326 202.441846 
L 161.781884 202.441846 
L 162.324736 165.223385 
L 162.867589 53.568 
L 163.410441 183.832615 
L 164.496146 183.832615 
L 165.038998 128.004923 
L 165.581851 146.614154 
L 166.124703 109.395692 
L 166.668099 109.395692 
L 167.211494 165.223385 
L 167.754347 202.441846 
L 168.297199 183.832615 
L 168.840051 128.004923 
L 169.382904 202.441846 
L 169.925756 202.441846 
L 170.468609 165.223385 
L 171.011461 165.223385 
L 171.554314 183.832615 
L 172.097166 165.223385 
L 172.640562 221.051077 
L 173.183957 239.660308 
L 173.726809 276.878769 
L 174.270205 202.441846 
L 174.8136 202.441846 
L 175.900391 165.223385 
L 176.443243 221.051077 
L 176.986096 221.051077 
L 177.528948 183.832615 
L 178.071801 239.660308 
L 178.615196 165.223385 
L 179.158591 128.004923 
L 179.701986 146.614154 
L 180.244839 202.441846 
L 180.787691 146.614154 
L 181.873396 146.614154 
L 182.416249 202.441846 
L 182.959101 128.004923 
L 183.501954 165.223385 
L 184.044806 221.051077 
L 184.588201 165.223385 
L 185.131054 183.832615 
L 185.673906 165.223385 
L 186.216759 221.051077 
L 186.759611 258.269538 
L 187.302464 202.441846 
L 187.845316 202.441846 
L 188.388169 183.832615 
L 188.931021 239.660308 
L 189.473874 221.051077 
L 190.016726 165.223385 
L 190.560122 183.832615 
L 191.103517 221.051077 
L 191.646912 202.441846 
L 192.189765 221.051077 
L 192.732617 183.832615 
L 193.27547 239.660308 
L 193.818322 221.051077 
L 194.361174 165.223385 
L 194.904027 202.441846 
L 195.446879 183.832615 
L 195.989732 183.832615 
L 196.532584 202.441846 
L 197.618832 202.441846 
L 198.161685 239.660308 
L 198.704537 202.441846 
L 199.247389 202.441846 
L 199.790242 165.223385 
L 200.333094 183.832615 
L 200.875947 165.223385 
L 201.418799 202.441846 
L 201.961652 128.004923 
L 202.504504 146.614154 
L 203.047357 128.004923 
L 203.590209 165.223385 
L 204.133062 165.223385 
L 205.218767 90.786462 
L 205.761619 165.223385 
L 206.304471 183.832615 
L 206.847324 165.223385 
L 207.390176 183.832615 
L 207.933029 165.223385 
L 208.475881 165.223385 
L 209.019277 202.441846 
L 209.562672 146.614154 
L 210.106067 165.223385 
L 210.64892 202.441846 
L 211.191772 183.832615 
L 211.734625 183.832615 
L 212.277477 146.614154 
L 212.82033 202.441846 
L 213.363182 221.051077 
L 213.906035 183.832615 
L 214.44943 128.004923 
L 216.077987 183.832615 
L 216.62084 183.832615 
L 217.163692 221.051077 
L 217.706545 183.832615 
L 218.79225 221.051077 
L 219.335102 202.441846 
L 220.963659 202.441846 
L 222.049364 239.660308 
L 222.592217 183.832615 
L 223.677922 258.269538 
L 224.220774 202.441846 
L 224.763627 202.441846 
L 225.306479 165.223385 
L 226.392184 202.441846 
L 226.935037 183.832615 
L 227.477889 183.832615 
L 228.020741 165.223385 
L 228.563594 165.223385 
L 229.106446 221.051077 
L 229.649299 202.441846 
L 230.192151 221.051077 
L 231.820709 221.051077 
L 232.363561 183.832615 
L 232.906414 239.660308 
L 233.449266 239.660308 
L 233.992119 276.878769 
L 234.534971 165.223385 
L 235.077824 276.878769 
L 235.620676 202.441846 
L 236.163528 221.051077 
L 236.706381 221.051077 
L 237.249233 202.441846 
L 237.792086 221.051077 
L 238.334938 221.051077 
L 239.420643 183.832615 
L 239.963496 221.051077 
L 240.506348 128.004923 
L 241.049201 146.614154 
L 241.592053 202.441846 
L 242.134906 202.441846 
L 242.677758 165.223385 
L 243.220611 165.223385 
L 243.763463 202.441846 
L 244.306315 221.051077 
L 244.849168 165.223385 
L 245.39202 202.441846 
L 245.934873 183.832615 
L 246.477725 183.832615 
L 247.020578 202.441846 
L 247.56343 165.223385 
L 248.106283 239.660308 
L 249.73484 183.832615 
L 250.277693 183.832615 
L 250.820545 128.004923 
L 251.363398 165.223385 
L 251.906793 109.395692 
L 252.450188 183.832615 
L 252.993584 183.832615 
L 253.536979 165.223385 
L 254.080374 165.223385 
L 254.62377 146.614154 
L 255.167165 183.832615 
L 255.710017 202.441846 
L 256.253413 202.441846 
L 256.796265 165.223385 
L 257.339118 258.269538 
L 257.88197 221.051077 
L 258.424822 221.051077 
L 259.510527 258.269538 
L 260.05338 202.441846 
L 260.596232 239.660308 
L 261.139085 202.441846 
L 261.681937 202.441846 
L 262.225333 258.269538 
L 262.768728 202.441846 
L 263.31158 183.832615 
L 263.854976 221.051077 
L 264.940681 183.832615 
L 265.483533 202.441846 
L 266.026386 239.660308 
L 266.569238 202.441846 
L 267.11209 183.832615 
L 267.655486 53.568 
L 268.198881 183.832615 
L 268.742276 202.441846 
L 269.285129 165.223385 
L 269.828524 146.614154 
L 270.371377 202.441846 
L 270.914772 239.660308 
L 271.457624 239.660308 
L 272.000477 221.051077 
L 272.543329 239.660308 
L 273.086182 202.441846 
L 273.629577 258.269538 
L 274.172972 202.441846 
L 274.716368 258.269538 
L 275.25922 221.051077 
L 275.802073 202.441846 
L 276.345468 239.660308 
L 277.431173 165.223385 
L 277.974025 202.441846 
L 278.516878 183.832615 
L 279.602583 221.051077 
L 280.145435 165.223385 
L 280.688288 221.051077 
L 281.773993 183.832615 
L 282.316845 258.269538 
L 282.859698 202.441846 
L 283.40255 183.832615 
L 283.945402 239.660308 
L 284.488255 165.223385 
L 285.031107 239.660308 
L 285.57396 183.832615 
L 286.116812 221.051077 
L 286.659665 146.614154 
L 287.202517 202.441846 
L 287.74537 221.051077 
L 288.831075 221.051077 
L 289.373927 183.832615 
L 289.91678 202.441846 
L 290.459632 202.441846 
L 291.002485 165.223385 
L 291.545337 239.660308 
L 292.088189 146.614154 
L 292.631042 276.878769 
L 293.716747 165.223385 
L 294.259599 183.832615 
L 294.802452 183.832615 
L 295.345304 165.223385 
L 295.888157 128.004923 
L 296.973862 128.004923 
L 297.516714 165.223385 
L 298.059567 165.223385 
L 299.145272 202.441846 
L 300.230976 128.004923 
L 300.773829 183.832615 
L 301.316681 128.004923 
L 301.859534 146.614154 
L 302.402386 146.614154 
L 302.945239 183.832615 
L 304.030944 183.832615 
L 304.573796 90.786462 
L 305.116649 146.614154 
L 305.659501 146.614154 
L 306.202354 128.004923 
L 306.745206 128.004923 
L 307.288059 183.832615 
L 307.830911 146.614154 
L 308.373763 202.441846 
L 308.916616 128.004923 
L 309.459468 202.441846 
L 310.002321 165.223385 
L 310.545173 239.660308 
L 311.088026 221.051077 
L 311.630878 239.660308 
L 312.716583 239.660308 
L 313.259436 202.441846 
L 313.802288 221.051077 
L 314.345141 276.878769 
L 314.887993 146.614154 
L 315.973698 221.051077 
L 317.059403 221.051077 
L 317.602255 183.832615 
L 318.68796 146.614154 
L 319.230813 239.660308 
L 319.773665 183.832615 
L 320.316518 202.441846 
L 320.85937 202.441846 
L 321.402223 239.660308 
L 321.945075 202.441846 
L 322.487928 221.051077 
L 323.03078 183.832615 
L 323.573632 221.051077 
L 324.116485 295.488 
L 324.659337 221.051077 
L 325.745042 183.832615 
L 326.287895 202.441846 
L 326.830747 109.395692 
L 327.3736 239.660308 
L 327.916452 221.051077 
L 328.459305 165.223385 
L 329.002157 202.441846 
L 330.087862 202.441846 
L 330.630715 183.832615 
L 331.173567 221.051077 
L 331.716419 221.051077 
L 332.259272 202.441846 
L 332.802124 165.223385 
L 333.344977 239.660308 
L 333.887829 165.223385 
L 334.973534 202.441846 
L 335.516387 239.660308 
L 336.059239 202.441846 
L 337.144944 202.441846 
L 337.687797 221.051077 
L 338.230649 221.051077 
L 338.773502 183.832615 
L 339.316354 239.660308 
L 339.859206 221.051077 
L 340.402059 276.878769 
L 340.944911 221.051077 
L 341.487764 202.441846 
L 342.030616 202.441846 
L 342.573469 165.223385 
L 343.659174 165.223385 
L 344.202026 183.832615 
L 344.744879 183.832615 
L 345.287731 128.004923 
L 345.830584 165.223385 
L 346.373436 146.614154 
L 347.459141 183.832615 
L 348.001993 183.832615 
L 348.544846 146.614154 
L 349.087698 165.223385 
L 349.630551 165.223385 
L 350.173403 239.660308 
L 351.259108 165.223385 
L 351.801961 183.832615 
L 352.344813 239.660308 
L 352.887666 202.441846 
L 353.430518 183.832615 
L 353.973371 239.660308 
L 354.516223 221.051077 
L 355.059075 221.051077 
L 355.601928 202.441846 
L 356.14478 239.660308 
L 356.687633 202.441846 
L 358.31619 202.441846 
L 358.859043 221.051077 
L 359.401895 202.441846 
L 359.944748 146.614154 
L 360.4876 146.614154 
L 361.030453 202.441846 
L 361.573305 165.223385 
L 362.116158 109.395692 
L 362.65901 146.614154 
L 363.201862 202.441846 
L 363.744715 183.832615 
L 364.287567 146.614154 
L 364.83042 146.614154 
L 365.373272 183.832615 
L 365.916125 202.441846 
L 366.458977 146.614154 
L 367.00183 146.614154 
L 367.544682 165.223385 
L 368.087535 202.441846 
L 368.630387 165.223385 
L 369.17324 183.832615 
L 369.716092 221.051077 
L 370.258945 183.832615 
L 370.801797 258.269538 
L 371.344649 239.660308 
L 371.887502 202.441846 
L 372.430354 202.441846 
L 372.973207 221.051077 
L 373.516059 221.051077 
L 374.058912 202.441846 
L 374.601764 276.878769 
L 375.144617 239.660308 
L 376.230322 202.441846 
L 376.773174 258.269538 
L 377.316027 202.441846 
L 377.858879 165.223385 
L 378.401732 202.441846 
L 378.944584 128.004923 
L 380.030289 202.441846 
L 380.573141 109.395692 
L 381.115994 128.004923 
L 381.658846 202.441846 
L 382.201699 146.614154 
L 383.287404 183.832615 
L 383.830256 165.223385 
L 384.373109 183.832615 
L 385.458814 183.832615 
L 386.001666 221.051077 
L 386.544518 165.223385 
L 387.087371 183.832615 
L 387.630223 239.660308 
L 388.173076 183.832615 
L 389.258781 221.051077 
L 389.801633 295.488 
L 390.344486 221.051077 
L 390.887338 202.441846 
L 391.430191 221.051077 
L 391.973043 202.441846 
L 392.515896 202.441846 
L 393.058748 146.614154 
L 393.601601 183.832615 
L 394.144453 202.441846 
L 394.687305 183.832615 
L 395.230158 239.660308 
L 395.77301 165.223385 
L 396.315863 128.004923 
L 396.858715 146.614154 
L 397.401568 146.614154 
L 397.94442 165.223385 
L 398.487273 165.223385 
L 398.487273 165.223385 
" style="fill:none;stroke:#1f77b4;stroke-linecap:square;stroke-width:1.5;"/>
   </g>
   <g id="patch_3">
    <path d="M 57.6 307.584 
L 57.6 41.472 
" style="fill:none;stroke:#000000;stroke-linecap:square;stroke-linejoin:miter;stroke-width:0.8;"/>
   </g>
   <g id="patch_4">
    <path d="M 414.72 307.584 
L 414.72 41.472 
" style="fill:none;stroke:#000000;stroke-linecap:square;stroke-linejoin:miter;stroke-width:0.8;"/>
   </g>
   <g id="patch_5">
    <path d="M 57.6 307.584 
L 414.72 307.584 
" style="fill:none;stroke:#000000;stroke-linecap:square;stroke-linejoin:miter;stroke-width:0.8;"/>
   </g>
   <g id="patch_6">
    <path d="M 57.6 41.472 
L 414.72 41.472 
" style="fill:none;stroke:#000000;stroke-linecap:square;stroke-linejoin:miter;stroke-width:0.8;"/>
   </g>
   <g id="text_18">
    <!-- Voltage measured with source voltage 1000.0 mV -->
    <defs>
     <path d="M 52 44.1875 
Q 55.375 50.25 60.0625 53.125 
Q 64.75 56 71.09375 56 
Q 79.640625 56 84.28125 50.015625 
Q 88.921875 44.046875 88.921875 33.015625 
L 88.921875 0 
L 79.890625 0 
L 79.890625 32.71875 
Q 79.890625 40.578125 77.09375 44.375 
Q 74.3125 48.1875 68.609375 48.1875 
Q 61.625 48.1875 57.5625 43.546875 
Q 53.515625 38.921875 53.515625 30.90625 
L 53.515625 0 
L 44.484375 0 
L 44.484375 32.71875 
Q 44.484375 40.625 41.703125 44.40625 
Q 38.921875 48.1875 33.109375 48.1875 
Q 26.21875 48.1875 22.15625 43.53125 
Q 18.109375 38.875 18.109375 30.90625 
L 18.109375 0 
L 9.078125 0 
L 9.078125 54.6875 
L 18.109375 54.6875 
L 18.109375 46.1875 
Q 21.1875 51.21875 25.484375 53.609375 
Q 29.78125 56 35.6875 56 
Q 41.65625 56 45.828125 52.96875 
Q 50 49.953125 52 44.1875 
z
" id="DejaVuSans-6d"/>
     <path d="M 8.5 21.578125 
L 8.5 54.6875 
L 17.484375 54.6875 
L 17.484375 21.921875 
Q 17.484375 14.15625 20.5 10.265625 
Q 23.53125 6.390625 29.59375 6.390625 
Q 36.859375 6.390625 41.078125 11.03125 
Q 45.3125 15.671875 45.3125 23.6875 
L 45.3125 54.6875 
L 54.296875 54.6875 
L 54.296875 0 
L 45.3125 0 
L 45.3125 8.40625 
Q 42.046875 3.421875 37.71875 1 
Q 33.40625 -1.421875 27.6875 -1.421875 
Q 18.265625 -1.421875 13.375 4.4375 
Q 8.5 10.296875 8.5 21.578125 
z
M 31.109375 56 
z
" id="DejaVuSans-75"/>
     <path d="M 41.109375 46.296875 
Q 39.59375 47.171875 37.8125 47.578125 
Q 36.03125 48 33.890625 48 
Q 26.265625 48 22.1875 43.046875 
Q 18.109375 38.09375 18.109375 28.8125 
L 18.109375 0 
L 9.078125 0 
L 9.078125 54.6875 
L 18.109375 54.6875 
L 18.109375 46.1875 
Q 20.953125 51.171875 25.484375 53.578125 
Q 30.03125 56 36.53125 56 
Q 37.453125 56 38.578125 55.875 
Q 39.703125 55.765625 41.0625 55.515625 
z
" id="DejaVuSans-72"/>
     <path d="M 45.40625 46.390625 
L 45.40625 75.984375 
L 54.390625 75.984375 
L 54.390625 0 
L 45.40625 0 
L 45.40625 8.203125 
Q 42.578125 3.328125 38.25 0.953125 
Q 33.9375 -1.421875 27.875 -1.421875 
Q 17.96875 -1.421875 11.734375 6.484375 
Q 5.515625 14.40625 5.515625 27.296875 
Q 5.515625 40.1875 11.734375 48.09375 
Q 17.96875 56 27.875 56 
Q 33.9375 56 38.25 53.625 
Q 42.578125 51.265625 45.40625 46.390625 
z
M 14.796875 27.296875 
Q 14.796875 17.390625 18.875 11.75 
Q 22.953125 6.109375 30.078125 6.109375 
Q 37.203125 6.109375 41.296875 11.75 
Q 45.40625 17.390625 45.40625 27.296875 
Q 45.40625 37.203125 41.296875 42.84375 
Q 37.203125 48.484375 30.078125 48.484375 
Q 22.953125 48.484375 18.875 42.84375 
Q 14.796875 37.203125 14.796875 27.296875 
z
" id="DejaVuSans-64"/>
     <path d="M 4.203125 54.6875 
L 13.1875 54.6875 
L 24.421875 12.015625 
L 35.59375 54.6875 
L 46.1875 54.6875 
L 57.421875 12.015625 
L 68.609375 54.6875 
L 77.59375 54.6875 
L 63.28125 0 
L 52.6875 0 
L 40.921875 44.828125 
L 29.109375 0 
L 18.5 0 
z
" id="DejaVuSans-77"/>
     <path d="M 9.421875 54.6875 
L 18.40625 54.6875 
L 18.40625 0 
L 9.421875 0 
z
M 9.421875 75.984375 
L 18.40625 75.984375 
L 18.40625 64.59375 
L 9.421875 64.59375 
z
" id="DejaVuSans-69"/>
     <path d="M 54.890625 33.015625 
L 54.890625 0 
L 45.90625 0 
L 45.90625 32.71875 
Q 45.90625 40.484375 42.875 44.328125 
Q 39.84375 48.1875 33.796875 48.1875 
Q 26.515625 48.1875 22.3125 43.546875 
Q 18.109375 38.921875 18.109375 30.90625 
L 18.109375 0 
L 9.078125 0 
L 9.078125 75.984375 
L 18.109375 75.984375 
L 18.109375 46.1875 
Q 21.34375 51.125 25.703125 53.5625 
Q 30.078125 56 35.796875 56 
Q 45.21875 56 50.046875 50.171875 
Q 54.890625 44.34375 54.890625 33.015625 
z
" id="DejaVuSans-68"/>
     <path d="M 48.78125 52.59375 
L 48.78125 44.1875 
Q 44.96875 46.296875 41.140625 47.34375 
Q 37.3125 48.390625 33.40625 48.390625 
Q 24.65625 48.390625 19.8125 42.84375 
Q 14.984375 37.3125 14.984375 27.296875 
Q 14.984375 17.28125 19.8125 11.734375 
Q 24.65625 6.203125 33.40625 6.203125 
Q 37.3125 6.203125 41.140625 7.25 
Q 44.96875 8.296875 48.78125 10.40625 
L 48.78125 2.09375 
Q 45.015625 0.34375 40.984375 -0.53125 
Q 36.96875 -1.421875 32.421875 -1.421875 
Q 20.0625 -1.421875 12.78125 6.34375 
Q 5.515625 14.109375 5.515625 27.296875 
Q 5.515625 40.671875 12.859375 48.328125 
Q 20.21875 56 33.015625 56 
Q 37.15625 56 41.109375 55.140625 
Q 45.0625 54.296875 48.78125 52.59375 
z
" id="DejaVuSans-63"/>
     <path d="M 2.984375 54.6875 
L 12.5 54.6875 
L 29.59375 8.796875 
L 46.6875 54.6875 
L 56.203125 54.6875 
L 35.6875 0 
L 23.484375 0 
z
" id="DejaVuSans-76"/>
    </defs>
    <g transform="translate(85.5 35.472)scale(0.12 -0.12)">
     <use xlink:href="#DejaVuSans-56"/>
     <use x="68.298828" xlink:href="#DejaVuSans-6f"/>
     <use x="129.480469" xlink:href="#DejaVuSans-6c"/>
     <use x="157.263672" xlink:href="#DejaVuSans-74"/>
     <use x="196.472656" xlink:href="#DejaVuSans-61"/>
     <use x="257.751953" xlink:href="#DejaVuSans-67"/>
     <use x="321.228516" xlink:href="#DejaVuSans-65"/>
     <use x="382.751953" xlink:href="#DejaVuSans-20"/>
     <use x="414.539062" xlink:href="#DejaVuSans-6d"/>
     <use x="511.951172" xlink:href="#DejaVuSans-65"/>
     <use x="573.474609" xlink:href="#DejaVuSans-61"/>
     <use x="634.753906" xlink:href="#DejaVuSans-73"/>
     <use x="686.853516" xlink:href="#DejaVuSans-75"/>
     <use x="750.232422" xlink:href="#DejaVuSans-72"/>
     <use x="791.314453" xlink:href="#DejaVuSans-65"/>
     <use x="852.837891" xlink:href="#DejaVuSans-64"/>
     <use x="916.314453" xlink:href="#DejaVuSans-20"/>
     <use x="948.101562" xlink:href="#DejaVuSans-77"/>
     <use x="1029.888672" xlink:href="#DejaVuSans-69"/>
     <use x="1057.671875" xlink:href="#DejaVuSans-74"/>
     <use x="1096.880859" xlink:href="#DejaVuSans-68"/>
     <use x="1160.259766" xlink:href="#DejaVuSans-20"/>
     <use x="1192.046875" xlink:href="#DejaVuSans-73"/>
     <use x="1244.146484" xlink:href="#DejaVuSans-6f"/>
     <use x="1305.328125" xlink:href="#DejaVuSans-75"/>
     <use x="1368.707031" xlink:href="#DejaVuSans-72"/>
     <use x="1409.789062" xlink:href="#DejaVuSans-63"/>
     <use x="1464.769531" xlink:href="#DejaVuSans-65"/>
     <use x="1526.292969" xlink:href="#DejaVuSans-20"/>
     <use x="1558.080078" xlink:href="#DejaVuSans-76"/>
     <use x="1617.259766" xlink:href="#DejaVuSans-6f"/>
     <use x="1678.441406" xlink:href="#DejaVuSans-6c"/>
     <use x="1706.224609" xlink:href="#DejaVuSans-74"/>
     <use x="1745.433594" xlink:href="#DejaVuSans-61"/>
     <use x="1806.712891" xlink:href="#DejaVuSans-67"/>
     <use x="1870.189453" xlink:href="#DejaVuSans-65"/>
     <use x="1931.712891" xlink:href="#DejaVuSans-20"/>
     <use x="1963.5" xlink:href="#DejaVuSans-31"/>
     <use x="2027.123047" xlink:href="#DejaVuSans-30"/>
     <use x="2090.746094" xlink:href="#DejaVuSans-30"/>
     <use x="2154.369141" xlink:href="#DejaVuSans-30"/>
     <use x="2217.992188" xlink:href="#DejaVuSans-2e"/>
     <use x="2249.779297" xlink:href="#DejaVuSans-30"/>
     <use x="2313.402344" xlink:href="#DejaVuSans-20"/>
     <use x="2345.189453" xlink:href="#DejaVuSans-6d"/>
     <use x="2442.601562" xlink:href="#DejaVuSans-56"/>
    </g>
   </g>
  </g>
 </g>
 <defs>
  <clipPath id="p919b8436dd">
   <rect height="266.112" width="357.12" x="57.6" y="41.472"/>
  </clipPath>
 </defs>
</svg>
