<?xml version="1.0" encoding="utf-8" standalone="no"?>
<!DOCTYPE svg PUBLIC "-//W3C//DTD SVG 1.1//EN"
  "http://www.w3.org/Graphics/SVG/1.1/DTD/svg11.dtd">
<!-- Created with matplotlib (http://matplotlib.org/) -->
<svg height="345pt" version="1.1" viewBox="0 0 460 345" width="460pt" xmlns="http://www.w3.org/2000/svg" xmlns:xlink="http://www.w3.org/1999/xlink">
 <defs>
  <style type="text/css">
*{stroke-linecap:butt;stroke-linejoin:round;}
  </style>
 </defs>
 <g id="figure_1">
  <g id="patch_1">
   <path d="M 0 345.6 
L 460.8 345.6 
L 460.8 0 
L 0 0 
z
" style="fill:#ffffff;"/>
  </g>
  <g id="axes_1">
   <g id="patch_2">
    <path d="M 57.6 307.584 
L 414.72 307.584 
L 414.72 41.472 
L 57.6 41.472 
z
" style="fill:#ffffff;"/>
   </g>
   <g id="matplotlib.axis_1">
    <g id="xtick_1">
     <g id="line2d_1">
      <defs>
       <path d="M 0 0 
L 0 3.5 
" id="m9b8e93ccd0" style="stroke:#000000;stroke-width:0.8;"/>
      </defs>
      <g>
       <use style="stroke:#000000;stroke-width:0.8;" x="73.832727" xlink:href="#m9b8e93ccd0" y="307.584"/>
      </g>
     </g>
     <g id="text_1">
      <!-- 0 -->
      <defs>
       <path d="M 31.78125 66.40625 
Q 24.171875 66.40625 20.328125 58.90625 
Q 16.5 51.421875 16.5 36.375 
Q 16.5 21.390625 20.328125 13.890625 
Q 24.171875 6.390625 31.78125 6.390625 
Q 39.453125 6.390625 43.28125 13.890625 
Q 47.125 21.390625 47.125 36.375 
Q 47.125 51.421875 43.28125 58.90625 
Q 39.453125 66.40625 31.78125 66.40625 
z
M 31.78125 74.21875 
Q 44.046875 74.21875 50.515625 64.515625 
Q 56.984375 54.828125 56.984375 36.375 
Q 56.984375 17.96875 50.515625 8.265625 
Q 44.046875 -1.421875 31.78125 -1.421875 
Q 19.53125 -1.421875 13.0625 8.265625 
Q 6.59375 17.96875 6.59375 36.375 
Q 6.59375 54.828125 13.0625 64.515625 
Q 19.53125 74.21875 31.78125 74.21875 
z
" id="DejaVuSans-30"/>
      </defs>
      <g transform="translate(70.651477 322.182437)scale(0.1 -0.1)">
       <use xlink:href="#DejaVuSans-30"/>
      </g>
     </g>
    </g>
    <g id="xtick_2">
     <g id="line2d_2">
      <g>
       <use style="stroke:#000000;stroke-width:0.8;" x="118.934773" xlink:href="#m9b8e93ccd0" y="307.584"/>
      </g>
     </g>
     <g id="text_2">
      <!-- 500 -->
      <defs>
       <path d="M 10.796875 72.90625 
L 49.515625 72.90625 
L 49.515625 64.59375 
L 19.828125 64.59375 
L 19.828125 46.734375 
Q 21.96875 47.46875 24.109375 47.828125 
Q 26.265625 48.1875 28.421875 48.1875 
Q 40.625 48.1875 47.75 41.5 
Q 54.890625 34.8125 54.890625 23.390625 
Q 54.890625 11.625 47.5625 5.09375 
Q 40.234375 -1.421875 26.90625 -1.421875 
Q 22.3125 -1.421875 17.546875 -0.640625 
Q 12.796875 0.140625 7.71875 1.703125 
L 7.71875 11.625 
Q 12.109375 9.234375 16.796875 8.0625 
Q 21.484375 6.890625 26.703125 6.890625 
Q 35.15625 6.890625 40.078125 11.328125 
Q 45.015625 15.765625 45.015625 23.390625 
Q 45.015625 31 40.078125 35.4375 
Q 35.15625 39.890625 26.703125 39.890625 
Q 22.75 39.890625 18.8125 39.015625 
Q 14.890625 38.140625 10.796875 36.28125 
z
" id="DejaVuSans-35"/>
      </defs>
      <g transform="translate(109.391023 322.182437)scale(0.1 -0.1)">
       <use xlink:href="#DejaVuSans-35"/>
       <use x="63.623047" xlink:href="#DejaVuSans-30"/>
       <use x="127.246094" xlink:href="#DejaVuSans-30"/>
      </g>
     </g>
    </g>
    <g id="xtick_3">
     <g id="line2d_3">
      <g>
       <use style="stroke:#000000;stroke-width:0.8;" x="164.03682" xlink:href="#m9b8e93ccd0" y="307.584"/>
      </g>
     </g>
     <g id="text_3">
      <!-- 1000 -->
      <defs>
       <path d="M 12.40625 8.296875 
L 28.515625 8.296875 
L 28.515625 63.921875 
L 10.984375 60.40625 
L 10.984375 69.390625 
L 28.421875 72.90625 
L 38.28125 72.90625 
L 38.28125 8.296875 
L 54.390625 8.296875 
L 54.390625 0 
L 12.40625 0 
z
" id="DejaVuSans-31"/>
      </defs>
      <g transform="translate(151.31182 322.182437)scale(0.1 -0.1)">
       <use xlink:href="#DejaVuSans-31"/>
       <use x="63.623047" xlink:href="#DejaVuSans-30"/>
       <use x="127.246094" xlink:href="#DejaVuSans-30"/>
       <use x="190.869141" xlink:href="#DejaVuSans-30"/>
      </g>
     </g>
    </g>
    <g id="xtick_4">
     <g id="line2d_4">
      <g>
       <use style="stroke:#000000;stroke-width:0.8;" x="209.138866" xlink:href="#m9b8e93ccd0" y="307.584"/>
      </g>
     </g>
     <g id="text_4">
      <!-- 1500 -->
      <g transform="translate(196.413866 322.182437)scale(0.1 -0.1)">
       <use xlink:href="#DejaVuSans-31"/>
       <use x="63.623047" xlink:href="#DejaVuSans-35"/>
       <use x="127.246094" xlink:href="#DejaVuSans-30"/>
       <use x="190.869141" xlink:href="#DejaVuSans-30"/>
      </g>
     </g>
    </g>
    <g id="xtick_5">
     <g id="line2d_5">
      <g>
       <use style="stroke:#000000;stroke-width:0.8;" x="254.240912" xlink:href="#m9b8e93ccd0" y="307.584"/>
      </g>
     </g>
     <g id="text_5">
      <!-- 2000 -->
      <defs>
       <path d="M 19.1875 8.296875 
L 53.609375 8.296875 
L 53.609375 0 
L 7.328125 0 
L 7.328125 8.296875 
Q 12.9375 14.109375 22.625 23.890625 
Q 32.328125 33.6875 34.8125 36.53125 
Q 39.546875 41.84375 41.421875 45.53125 
Q 43.3125 49.21875 43.3125 52.78125 
Q 43.3125 58.59375 39.234375 62.25 
Q 35.15625 65.921875 28.609375 65.921875 
Q 23.96875 65.921875 18.8125 64.3125 
Q 13.671875 62.703125 7.8125 59.421875 
L 7.8125 69.390625 
Q 13.765625 71.78125 18.9375 73 
Q 24.125 74.21875 28.421875 74.21875 
Q 39.75 74.21875 46.484375 68.546875 
Q 53.21875 62.890625 53.21875 53.421875 
Q 53.21875 48.921875 51.53125 44.890625 
Q 49.859375 40.875 45.40625 35.40625 
Q 44.1875 33.984375 37.640625 27.21875 
Q 31.109375 20.453125 19.1875 8.296875 
z
" id="DejaVuSans-32"/>
      </defs>
      <g transform="translate(241.515912 322.182437)scale(0.1 -0.1)">
       <use xlink:href="#DejaVuSans-32"/>
       <use x="63.623047" xlink:href="#DejaVuSans-30"/>
       <use x="127.246094" xlink:href="#DejaVuSans-30"/>
       <use x="190.869141" xlink:href="#DejaVuSans-30"/>
      </g>
     </g>
    </g>
    <g id="xtick_6">
     <g id="line2d_6">
      <g>
       <use style="stroke:#000000;stroke-width:0.8;" x="299.342958" xlink:href="#m9b8e93ccd0" y="307.584"/>
      </g>
     </g>
     <g id="text_6">
      <!-- 2500 -->
      <g transform="translate(286.617958 322.182437)scale(0.1 -0.1)">
       <use xlink:href="#DejaVuSans-32"/>
       <use x="63.623047" xlink:href="#DejaVuSans-35"/>
       <use x="127.246094" xlink:href="#DejaVuSans-30"/>
       <use x="190.869141" xlink:href="#DejaVuSans-30"/>
      </g>
     </g>
    </g>
    <g id="xtick_7">
     <g id="line2d_7">
      <g>
       <use style="stroke:#000000;stroke-width:0.8;" x="344.445004" xlink:href="#m9b8e93ccd0" y="307.584"/>
      </g>
     </g>
     <g id="text_7">
      <!-- 3000 -->
      <defs>
       <path d="M 40.578125 39.3125 
Q 47.65625 37.796875 51.625 33 
Q 55.609375 28.21875 55.609375 21.1875 
Q 55.609375 10.40625 48.1875 4.484375 
Q 40.765625 -1.421875 27.09375 -1.421875 
Q 22.515625 -1.421875 17.65625 -0.515625 
Q 12.796875 0.390625 7.625 2.203125 
L 7.625 11.71875 
Q 11.71875 9.328125 16.59375 8.109375 
Q 21.484375 6.890625 26.8125 6.890625 
Q 36.078125 6.890625 40.9375 10.546875 
Q 45.796875 14.203125 45.796875 21.1875 
Q 45.796875 27.640625 41.28125 31.265625 
Q 36.765625 34.90625 28.71875 34.90625 
L 20.21875 34.90625 
L 20.21875 43.015625 
L 29.109375 43.015625 
Q 36.375 43.015625 40.234375 45.921875 
Q 44.09375 48.828125 44.09375 54.296875 
Q 44.09375 59.90625 40.109375 62.90625 
Q 36.140625 65.921875 28.71875 65.921875 
Q 24.65625 65.921875 20.015625 65.03125 
Q 15.375 64.15625 9.8125 62.3125 
L 9.8125 71.09375 
Q 15.4375 72.65625 20.34375 73.4375 
Q 25.25 74.21875 29.59375 74.21875 
Q 40.828125 74.21875 47.359375 69.109375 
Q 53.90625 64.015625 53.90625 55.328125 
Q 53.90625 49.265625 50.4375 45.09375 
Q 46.96875 40.921875 40.578125 39.3125 
z
" id="DejaVuSans-33"/>
      </defs>
      <g transform="translate(331.720004 322.182437)scale(0.1 -0.1)">
       <use xlink:href="#DejaVuSans-33"/>
       <use x="63.623047" xlink:href="#DejaVuSans-30"/>
       <use x="127.246094" xlink:href="#DejaVuSans-30"/>
       <use x="190.869141" xlink:href="#DejaVuSans-30"/>
      </g>
     </g>
    </g>
    <g id="xtick_8">
     <g id="line2d_8">
      <g>
       <use style="stroke:#000000;stroke-width:0.8;" x="389.54705" xlink:href="#m9b8e93ccd0" y="307.584"/>
      </g>
     </g>
     <g id="text_8">
      <!-- 3500 -->
      <g transform="translate(376.82205 322.182437)scale(0.1 -0.1)">
       <use xlink:href="#DejaVuSans-33"/>
       <use x="63.623047" xlink:href="#DejaVuSans-35"/>
       <use x="127.246094" xlink:href="#DejaVuSans-30"/>
       <use x="190.869141" xlink:href="#DejaVuSans-30"/>
      </g>
     </g>
    </g>
    <g id="text_9">
     <!-- t(s) -->
     <defs>
      <path d="M 18.3125 70.21875 
L 18.3125 54.6875 
L 36.8125 54.6875 
L 36.8125 47.703125 
L 18.3125 47.703125 
L 18.3125 18.015625 
Q 18.3125 11.328125 20.140625 9.421875 
Q 21.96875 7.515625 27.59375 7.515625 
L 36.8125 7.515625 
L 36.8125 0 
L 27.59375 0 
Q 17.1875 0 13.234375 3.875 
Q 9.28125 7.765625 9.28125 18.015625 
L 9.28125 47.703125 
L 2.6875 47.703125 
L 2.6875 54.6875 
L 9.28125 54.6875 
L 9.28125 70.21875 
z
" id="DejaVuSans-74"/>
      <path d="M 31 75.875 
Q 24.46875 64.65625 21.28125 53.65625 
Q 18.109375 42.671875 18.109375 31.390625 
Q 18.109375 20.125 21.3125 9.0625 
Q 24.515625 -2 31 -13.1875 
L 23.1875 -13.1875 
Q 15.875 -1.703125 12.234375 9.375 
Q 8.59375 20.453125 8.59375 31.390625 
Q 8.59375 42.28125 12.203125 53.3125 
Q 15.828125 64.359375 23.1875 75.875 
z
" id="DejaVuSans-28"/>
      <path d="M 44.28125 53.078125 
L 44.28125 44.578125 
Q 40.484375 46.53125 36.375 47.5 
Q 32.28125 48.484375 27.875 48.484375 
Q 21.1875 48.484375 17.84375 46.4375 
Q 14.5 44.390625 14.5 40.28125 
Q 14.5 37.15625 16.890625 35.375 
Q 19.28125 33.59375 26.515625 31.984375 
L 29.59375 31.296875 
Q 39.15625 29.25 43.1875 25.515625 
Q 47.21875 21.78125 47.21875 15.09375 
Q 47.21875 7.46875 41.1875 3.015625 
Q 35.15625 -1.421875 24.609375 -1.421875 
Q 20.21875 -1.421875 15.453125 -0.5625 
Q 10.6875 0.296875 5.421875 2 
L 5.421875 11.28125 
Q 10.40625 8.6875 15.234375 7.390625 
Q 20.0625 6.109375 24.8125 6.109375 
Q 31.15625 6.109375 34.5625 8.28125 
Q 37.984375 10.453125 37.984375 14.40625 
Q 37.984375 18.0625 35.515625 20.015625 
Q 33.0625 21.96875 24.703125 23.78125 
L 21.578125 24.515625 
Q 13.234375 26.265625 9.515625 29.90625 
Q 5.8125 33.546875 5.8125 39.890625 
Q 5.8125 47.609375 11.28125 51.796875 
Q 16.75 56 26.8125 56 
Q 31.78125 56 36.171875 55.265625 
Q 40.578125 54.546875 44.28125 53.078125 
z
" id="DejaVuSans-73"/>
      <path d="M 8.015625 75.875 
L 15.828125 75.875 
Q 23.140625 64.359375 26.78125 53.3125 
Q 30.421875 42.28125 30.421875 31.390625 
Q 30.421875 20.453125 26.78125 9.375 
Q 23.140625 -1.703125 15.828125 -13.1875 
L 8.015625 -13.1875 
Q 14.5 -2 17.703125 9.0625 
Q 20.90625 20.125 20.90625 31.390625 
Q 20.90625 42.671875 17.703125 53.65625 
Q 14.5 64.65625 8.015625 75.875 
z
" id="DejaVuSans-29"/>
     </defs>
     <g transform="translate(227.693594 335.860562)scale(0.1 -0.1)">
      <use xlink:href="#DejaVuSans-74"/>
      <use x="39.208984" xlink:href="#DejaVuSans-28"/>
      <use x="78.222656" xlink:href="#DejaVuSans-73"/>
      <use x="130.322266" xlink:href="#DejaVuSans-29"/>
     </g>
    </g>
   </g>
   <g id="matplotlib.axis_2">
    <g id="ytick_1">
     <g id="line2d_9">
      <defs>
       <path d="M 0 0 
L -3.5 0 
" id="maf7cff4635" style="stroke:#000000;stroke-width:0.8;"/>
      </defs>
      <g>
       <use style="stroke:#000000;stroke-width:0.8;" x="57.6" xlink:href="#maf7cff4635" y="284.974274"/>
      </g>
     </g>
     <g id="text_10">
      <!-- 15 -->
      <g transform="translate(37.875 288.773493)scale(0.1 -0.1)">
       <use xlink:href="#DejaVuSans-31"/>
       <use x="63.623047" xlink:href="#DejaVuSans-35"/>
      </g>
     </g>
    </g>
    <g id="ytick_2">
     <g id="line2d_10">
      <g>
       <use style="stroke:#000000;stroke-width:0.8;" x="57.6" xlink:href="#maf7cff4635" y="247.454733"/>
      </g>
     </g>
     <g id="text_11">
      <!-- 20 -->
      <g transform="translate(37.875 251.253951)scale(0.1 -0.1)">
       <use xlink:href="#DejaVuSans-32"/>
       <use x="63.623047" xlink:href="#DejaVuSans-30"/>
      </g>
     </g>
    </g>
    <g id="ytick_3">
     <g id="line2d_11">
      <g>
       <use style="stroke:#000000;stroke-width:0.8;" x="57.6" xlink:href="#maf7cff4635" y="209.935191"/>
      </g>
     </g>
     <g id="text_12">
      <!-- 25 -->
      <g transform="translate(37.875 213.73441)scale(0.1 -0.1)">
       <use xlink:href="#DejaVuSans-32"/>
       <use x="63.623047" xlink:href="#DejaVuSans-35"/>
      </g>
     </g>
    </g>
    <g id="ytick_4">
     <g id="line2d_12">
      <g>
       <use style="stroke:#000000;stroke-width:0.8;" x="57.6" xlink:href="#maf7cff4635" y="172.41565"/>
      </g>
     </g>
     <g id="text_13">
      <!-- 30 -->
      <g transform="translate(37.875 176.214869)scale(0.1 -0.1)">
       <use xlink:href="#DejaVuSans-33"/>
       <use x="63.623047" xlink:href="#DejaVuSans-30"/>
      </g>
     </g>
    </g>
    <g id="ytick_5">
     <g id="line2d_13">
      <g>
       <use style="stroke:#000000;stroke-width:0.8;" x="57.6" xlink:href="#maf7cff4635" y="134.896108"/>
      </g>
     </g>
     <g id="text_14">
      <!-- 35 -->
      <g transform="translate(37.875 138.695327)scale(0.1 -0.1)">
       <use xlink:href="#DejaVuSans-33"/>
       <use x="63.623047" xlink:href="#DejaVuSans-35"/>
      </g>
     </g>
    </g>
    <g id="ytick_6">
     <g id="line2d_14">
      <g>
       <use style="stroke:#000000;stroke-width:0.8;" x="57.6" xlink:href="#maf7cff4635" y="97.376567"/>
      </g>
     </g>
     <g id="text_15">
      <!-- 40 -->
      <defs>
       <path d="M 37.796875 64.3125 
L 12.890625 25.390625 
L 37.796875 25.390625 
z
M 35.203125 72.90625 
L 47.609375 72.90625 
L 47.609375 25.390625 
L 58.015625 25.390625 
L 58.015625 17.1875 
L 47.609375 17.1875 
L 47.609375 0 
L 37.796875 0 
L 37.796875 17.1875 
L 4.890625 17.1875 
L 4.890625 26.703125 
z
" id="DejaVuSans-34"/>
      </defs>
      <g transform="translate(37.875 101.175786)scale(0.1 -0.1)">
       <use xlink:href="#DejaVuSans-34"/>
       <use x="63.623047" xlink:href="#DejaVuSans-30"/>
      </g>
     </g>
    </g>
    <g id="ytick_7">
     <g id="line2d_15">
      <g>
       <use style="stroke:#000000;stroke-width:0.8;" x="57.6" xlink:href="#maf7cff4635" y="59.857026"/>
      </g>
     </g>
     <g id="text_16">
      <!-- 45 -->
      <g transform="translate(37.875 63.656244)scale(0.1 -0.1)">
       <use xlink:href="#DejaVuSans-34"/>
       <use x="63.623047" xlink:href="#DejaVuSans-35"/>
      </g>
     </g>
    </g>
    <g id="text_17">
     <!-- Current (nA) -->
     <defs>
      <path d="M 64.40625 67.28125 
L 64.40625 56.890625 
Q 59.421875 61.53125 53.78125 63.8125 
Q 48.140625 66.109375 41.796875 66.109375 
Q 29.296875 66.109375 22.65625 58.46875 
Q 16.015625 50.828125 16.015625 36.375 
Q 16.015625 21.96875 22.65625 14.328125 
Q 29.296875 6.6875 41.796875 6.6875 
Q 48.140625 6.6875 53.78125 8.984375 
Q 59.421875 11.28125 64.40625 15.921875 
L 64.40625 5.609375 
Q 59.234375 2.09375 53.4375 0.328125 
Q 47.65625 -1.421875 41.21875 -1.421875 
Q 24.65625 -1.421875 15.125 8.703125 
Q 5.609375 18.84375 5.609375 36.375 
Q 5.609375 53.953125 15.125 64.078125 
Q 24.65625 74.21875 41.21875 74.21875 
Q 47.75 74.21875 53.53125 72.484375 
Q 59.328125 70.75 64.40625 67.28125 
z
" id="DejaVuSans-43"/>
      <path d="M 8.5 21.578125 
L 8.5 54.6875 
L 17.484375 54.6875 
L 17.484375 21.921875 
Q 17.484375 14.15625 20.5 10.265625 
Q 23.53125 6.390625 29.59375 6.390625 
Q 36.859375 6.390625 41.078125 11.03125 
Q 45.3125 15.671875 45.3125 23.6875 
L 45.3125 54.6875 
L 54.296875 54.6875 
L 54.296875 0 
L 45.3125 0 
L 45.3125 8.40625 
Q 42.046875 3.421875 37.71875 1 
Q 33.40625 -1.421875 27.6875 -1.421875 
Q 18.265625 -1.421875 13.375 4.4375 
Q 8.5 10.296875 8.5 21.578125 
z
M 31.109375 56 
z
" id="DejaVuSans-75"/>
      <path d="M 41.109375 46.296875 
Q 39.59375 47.171875 37.8125 47.578125 
Q 36.03125 48 33.890625 48 
Q 26.265625 48 22.1875 43.046875 
Q 18.109375 38.09375 18.109375 28.8125 
L 18.109375 0 
L 9.078125 0 
L 9.078125 54.6875 
L 18.109375 54.6875 
L 18.109375 46.1875 
Q 20.953125 51.171875 25.484375 53.578125 
Q 30.03125 56 36.53125 56 
Q 37.453125 56 38.578125 55.875 
Q 39.703125 55.765625 41.0625 55.515625 
z
" id="DejaVuSans-72"/>
      <path d="M 56.203125 29.59375 
L 56.203125 25.203125 
L 14.890625 25.203125 
Q 15.484375 15.921875 20.484375 11.0625 
Q 25.484375 6.203125 34.421875 6.203125 
Q 39.59375 6.203125 44.453125 7.46875 
Q 49.3125 8.734375 54.109375 11.28125 
L 54.109375 2.78125 
Q 49.265625 0.734375 44.1875 -0.34375 
Q 39.109375 -1.421875 33.890625 -1.421875 
Q 20.796875 -1.421875 13.15625 6.1875 
Q 5.515625 13.8125 5.515625 26.8125 
Q 5.515625 40.234375 12.765625 48.109375 
Q 20.015625 56 32.328125 56 
Q 43.359375 56 49.78125 48.890625 
Q 56.203125 41.796875 56.203125 29.59375 
z
M 47.21875 32.234375 
Q 47.125 39.59375 43.09375 43.984375 
Q 39.0625 48.390625 32.421875 48.390625 
Q 24.90625 48.390625 20.390625 44.140625 
Q 15.875 39.890625 15.1875 32.171875 
z
" id="DejaVuSans-65"/>
      <path d="M 54.890625 33.015625 
L 54.890625 0 
L 45.90625 0 
L 45.90625 32.71875 
Q 45.90625 40.484375 42.875 44.328125 
Q 39.84375 48.1875 33.796875 48.1875 
Q 26.515625 48.1875 22.3125 43.546875 
Q 18.109375 38.921875 18.109375 30.90625 
L 18.109375 0 
L 9.078125 0 
L 9.078125 54.6875 
L 18.109375 54.6875 
L 18.109375 46.1875 
Q 21.34375 51.125 25.703125 53.5625 
Q 30.078125 56 35.796875 56 
Q 45.21875 56 50.046875 50.171875 
Q 54.890625 44.34375 54.890625 33.015625 
z
" id="DejaVuSans-6e"/>
      <path id="DejaVuSans-20"/>
      <path d="M 34.1875 63.1875 
L 20.796875 26.90625 
L 47.609375 26.90625 
z
M 28.609375 72.90625 
L 39.796875 72.90625 
L 67.578125 0 
L 57.328125 0 
L 50.6875 18.703125 
L 17.828125 18.703125 
L 11.1875 0 
L 0.78125 0 
z
" id="DejaVuSans-41"/>
     </defs>
     <g transform="translate(31.795312 205.581906)rotate(-90)scale(0.1 -0.1)">
      <use xlink:href="#DejaVuSans-43"/>
      <use x="69.824219" xlink:href="#DejaVuSans-75"/>
      <use x="133.203125" xlink:href="#DejaVuSans-72"/>
      <use x="174.300781" xlink:href="#DejaVuSans-72"/>
      <use x="215.382812" xlink:href="#DejaVuSans-65"/>
      <use x="276.90625" xlink:href="#DejaVuSans-6e"/>
      <use x="340.285156" xlink:href="#DejaVuSans-74"/>
      <use x="379.494141" xlink:href="#DejaVuSans-20"/>
      <use x="411.28125" xlink:href="#DejaVuSans-28"/>
      <use x="450.294922" xlink:href="#DejaVuSans-6e"/>
      <use x="513.673828" xlink:href="#DejaVuSans-41"/>
      <use x="582.082031" xlink:href="#DejaVuSans-29"/>
     </g>
    </g>
   </g>
   <g id="line2d_16">
    <path clip-path="url(#p591390496a)" d="M 73.832727 53.568 
L 74.103367 54.743112 
L 74.283793 57.383737 
L 74.644645 66.932461 
L 75.456563 88.064967 
L 76.358694 105.359225 
L 77.170612 117.239412 
L 78.25317 129.569834 
L 78.523809 132.200705 
L 79.786793 142.693419 
L 81.410719 153.064571 
L 83.575834 163.631575 
L 84.387752 166.612878 
L 84.748604 168.103154 
L 86.011588 172.64677 
L 86.37244 173.814378 
L 87.184358 176.319183 
L 89.529899 182.520413 
L 92.326506 188.858964 
L 96.927374 197.360892 
L 97.017587 197.339881 
L 97.288227 197.847145 
L 97.649079 198.433201 
L 99.363128 201.026551 
L 100.175046 202.216671 
L 100.626112 202.830491 
L 101.077178 203.527604 
L 102.701014 205.627948 
L 103.242292 206.289042 
L 103.512932 206.631971 
L 103.603145 206.57269 
L 103.783571 206.980903 
L 107.843161 211.796911 
L 108.1138 212.031033 
L 110.188702 214.382758 
L 110.278915 214.376755 
L 110.549554 214.745196 
L 110.910407 215.131648 
L 111.541899 215.728208 
L 111.632112 215.599892 
L 111.812538 215.972836 
L 112.44403 216.482351 
L 112.804882 216.880809 
L 113.165735 217.197474 
L 113.707013 217.759516 
L 114.067866 217.962122 
L 114.338505 218.352325 
L 117.856816 221.561747 
L 117.94703 221.585759 
L 118.30786 221.965457 
L 118.849084 222.404436 
L 120.923869 224.096567 
L 121.465093 224.585071 
L 121.555297 224.56331 
L 121.916204 224.924998 
L 122.367405 225.29269 
L 122.818425 225.584592 
L 123.81067 226.304217 
L 125.163732 227.21294 
L 125.253936 227.178422 
L 125.524548 227.5206 
L 125.79525 227.522101 
L 125.975659 227.855275 
L 126.336475 228.150178 
L 126.697291 228.487854 
L 127.148312 228.858547 
L 127.77974 229.252502 
L 128.230761 229.57367 
L 128.501373 229.716994 
L 129.042598 230.159725 
L 129.944639 230.562685 
L 130.395659 230.900361 
L 130.666362 231.088709 
L 132.199831 232.225551 
L 132.560648 232.306593 
L 132.741146 232.575983 
L 133.552983 233.058485 
L 133.643187 233.062987 
L 133.823595 233.157536 
L 134.906044 233.967958 
L 135.357065 234.299631 
L 135.627677 234.414441 
L 136.439514 234.833909 
L 137.341555 235.292398 
L 137.882779 235.666843 
L 138.153391 235.920475 
L 138.243686 235.780152 
L 138.514298 236.166603 
L 138.78491 236.375962 
L 141.220421 237.543571 
L 141.310625 237.554076 
L 141.581237 237.765686 
L 141.671441 237.733419 
L 141.942053 238.017067 
L 142.032258 237.995306 
L 142.483278 238.436536 
L 145.008993 239.689688 
L 145.911034 240.274243 
L 146.27185 240.517369 
L 147.264095 240.822028 
L 147.354299 240.764998 
L 148.075932 241.251252 
L 148.25634 241.357807 
L 149.158381 241.99639 
L 149.519197 242.143466 
L 149.78981 242.301048 
L 150.150626 242.382841 
L 150.24083 242.391846 
L 150.331034 242.556932 
L 150.421238 242.487896 
L 150.962463 242.848083 
L 151.413483 242.864592 
L 151.7743 243.102466 
L 151.954708 243.188761 
L 152.22532 243.353096 
L 152.766545 243.425884 
L 152.946953 243.731293 
L 154.029402 244.381882 
L 154.300014 244.402893 
L 154.841239 244.62651 
L 155.472667 244.811106 
L 156.284594 245.214066 
L 156.645411 245.421924 
L 157.186635 245.738589 
L 157.818064 246.01023 
L 158.449493 246.29763 
L 158.990717 246.549011 
L 159.261329 246.693836 
L 159.892848 246.976734 
L 160.434073 247.14257 
L 160.885093 247.417964 
L 161.065501 247.472742 
L 161.69702 247.728625 
L 161.967633 247.835931 
L 168.191715 250.447291 
L 168.281919 250.385009 
L 168.462327 250.499068 
L 169.18396 250.86751 
L 169.544776 251.025092 
L 169.995797 251.258464 
L 170.356613 251.375525 
L 170.807634 251.473076 
L 171.529266 251.778485 
L 172.160695 251.990845 
L 172.70192 252.202455 
L 177.753349 254.165478 
L 178.294573 254.372586 
L 178.474981 254.261528 
L 178.565186 254.481392 
L 178.65539 254.281788 
L 178.835798 254.509157 
L 179.557431 254.659985 
L 179.737839 254.64873 
L 180.188859 254.734274 
L 180.369267 254.931627 
L 182.444052 255.778068 
L 182.895433 255.886874 
L 183.075931 255.903383 
L 183.25634 255.932648 
L 183.436748 256.069219 
L 183.978333 256.253816 
L 184.519558 256.465426 
L 184.970668 256.647771 
L 185.060963 256.625259 
L 185.241551 256.754326 
L 186.053388 256.968188 
L 186.414204 257.095004 
L 186.684817 257.179798 
L 187.135837 257.321622 
L 187.316245 257.329126 
L 187.586858 257.440934 
L 188.488899 257.800371 
L 188.669307 257.867906 
L 189.210531 258.048 
L 189.661552 258.207833 
L 191.104817 258.580027 
L 191.555838 258.667072 
L 191.82645 258.783383 
L 191.916654 258.670824 
L 192.097062 258.935712 
L 192.548083 259.10305 
L 192.908899 259.323664 
L 193.35992 259.48875 
L 194.081552 259.340923 
L 194.352165 259.5848 
L 194.803185 259.908219 
L 195.164001 260.012523 
L 196.066042 260.071804 
L 196.156246 260.012523 
L 196.336745 260.054545 
L 196.697561 260.335191 
L 196.968173 260.546051 
L 197.599602 260.81319 
L 198.231031 260.803435 
L 198.591847 260.934754 
L 198.772255 260.874722 
L 199.223276 261.018047 
L 199.493978 261.232659 
L 200.125407 261.529813 
L 202.560917 262.105363 
L 203.102142 262.38676 
L 203.372754 262.604373 
L 203.462958 262.389761 
L 203.643366 262.562351 
L 204.004183 262.492565 
L 204.725816 262.602122 
L 205.176836 262.916536 
L 206.259375 263.242205 
L 206.530078 263.202435 
L 207.522323 263.416296 
L 207.973343 263.713451 
L 209.236201 264.046624 
L 209.867629 264.066885 
L 210.138242 264.117161 
L 210.859874 264.501361 
L 211.491303 264.645436 
L 211.942323 264.879558 
L 212.212936 264.947844 
L 212.573752 264.892315 
L 213.926813 265.208229 
L 214.28763 265.376317 
L 214.828854 265.572169 
L 215.189671 265.723748 
L 215.550487 265.846061 
L 215.730895 265.865572 
L 216.001508 265.715493 
L 216.091712 265.864821 
L 216.181916 265.80479 
L 216.542732 265.972127 
L 216.632936 265.847562 
L 216.813344 265.949615 
L 217.083957 266.086187 
L 217.354569 266.102695 
L 217.895793 266.273784 
L 218.797834 266.580694 
L 220.060692 266.902612 
L 220.421508 266.942382 
L 220.601916 267.030929 
L 220.782324 267.030178 
L 220.872529 266.992659 
L 220.962733 267.164498 
L 221.052937 267.044436 
L 221.233345 267.217776 
L 221.594161 267.279308 
L 222.405998 267.452648 
L 222.496202 267.391116 
L 222.67661 267.541194 
L 222.947223 267.543446 
L 223.127721 267.598224 
L 223.579012 267.740798 
L 223.849624 267.76406 
L 224.120237 267.923143 
L 224.571257 268.001184 
L 229.171936 269.056984 
L 229.442639 269.095254 
L 229.893659 269.243831 
L 234.584633 270.399433 
L 234.765041 270.476723 
L 235.125858 270.618547 
L 235.306266 270.588532 
L 235.486854 270.787385 
L 236.208577 270.867677 
L 236.569394 270.976484 
L 236.749892 270.994493 
L 237.471525 271.146072 
L 237.922545 271.251877 
L 238.373566 271.318662 
L 238.644178 271.370439 
L 239.365811 271.519016 
L 239.997239 271.706614 
L 240.267852 271.713367 
L 240.809076 271.900215 
L 240.989484 271.841684 
L 241.350301 271.990262 
L 242.973974 272.416484 
L 243.244587 272.46676 
L 243.876015 272.609334 
L 244.146628 272.682122 
L 244.687852 272.799933 
L 245.138873 272.820194 
L 245.409485 272.90949 
L 245.589893 272.96652 
L 247.123363 273.257672 
L 247.574383 273.38899 
L 249.468669 273.699652 
L 249.649077 273.704154 
L 250.37071 273.875243 
L 251.092343 274.065843 
L 253.618057 274.632388 
L 254.429894 274.910783 
L 254.79071 274.923539 
L 255.151527 274.935546 
L 255.602547 274.908532 
L 257.045813 275.243206 
L 257.136017 275.195931 
L 257.316425 275.265718 
L 261.646221 276.242726 
L 262.007038 276.396557 
L 263.991528 276.61492 
L 264.442548 276.722977 
L 264.983773 276.795014 
L 265.254385 276.843039 
L 265.615202 276.92183 
L 265.976018 276.99912 
L 266.066222 276.889563 
L 266.24663 277.049397 
L 266.878059 277.156702 
L 271.658876 278.134462 
L 271.74908 278.048917 
L 272.019692 278.156973 
L 272.470713 278.143466 
L 272.741325 278.289042 
L 273.011937 278.34307 
L 273.643366 278.479641 
L 274.094386 278.508907 
L 274.725815 278.664238 
L 274.996427 278.66799 
L 275.267039 278.742278 
L 275.808264 278.844331 
L 276.259284 278.89836 
L 278.694795 279.250293 
L 278.784999 279.329084 
L 278.875203 279.254795 
L 279.145815 279.394368 
L 279.506632 279.519683 
L 279.596836 279.467156 
L 279.867448 279.614232 
L 280.13806 279.618735 
L 281.040101 279.746301 
L 284.467857 280.285082 
L 284.648265 280.249813 
L 287.715204 280.962685 
L 288.166225 281.075994 
L 288.707449 281.171293 
L 289.338878 281.335629 
L 289.519286 281.070741 
L 290.060511 281.219318 
L 290.962551 281.432429 
L 291.954796 281.64479 
L 292.045001 281.536734 
L 292.225409 281.620027 
L 292.856837 281.83689 
L 293.668674 281.872909 
L 294.119695 281.869157 
L 294.570715 281.962956 
L 295.021736 282.012482 
L 295.202144 282.053003 
L 295.653164 282.171564 
L 296.104185 282.263862 
L 298.359287 282.728354 
L 298.720103 282.837911 
L 298.810307 282.750866 
L 298.990716 282.820652 
L 299.53194 282.771127 
L 300.524185 282.906197 
L 303.320512 283.42997 
L 303.591124 283.394701 
L 304.222553 283.477995 
L 304.673573 283.560538 
L 305.03439 283.648334 
L 305.665819 283.741382 
L 305.936431 283.823175 
L 306.207043 283.846437 
L 306.567859 283.934232 
L 306.748268 283.990512 
L 307.01888 284.02578 
L 307.199288 283.969501 
L 307.379696 284.091064 
L 308.011125 284.153347 
L 308.371941 284.19837 
L 309.00337 284.247896 
L 309.364186 284.337192 
L 311.348676 284.629094 
L 312.070309 284.744655 
L 312.791942 284.845207 
L 312.97235 284.88948 
L 313.333166 284.918745 
L 313.42337 284.838453 
L 313.603779 284.94651 
L 314.235207 285.072575 
L 314.95684 285.281184 
L 315.317656 285.29319 
L 316.760922 285.453774 
L 317.211942 285.524311 
L 318.745412 285.73517 
L 319.557249 285.834222 
L 320.45929 285.992554 
L 320.639698 286.008313 
L 320.91031 286.069094 
L 321.271126 286.090105 
L 321.541739 286.104363 
L 323.706637 286.434535 
L 324.157657 286.511075 
L 324.608678 286.5606 
L 325.059698 286.642393 
L 325.510719 286.709928 
L 325.961739 286.709928 
L 328.667862 287.169167 
L 328.84827 287.15491 
L 330.652352 287.429553 
L 331.103373 287.469324 
L 332.36623 287.574378 
L 333.087863 287.767979 
L 333.178067 287.646416 
L 333.358475 287.762726 
L 333.809495 287.840767 
L 333.989903 287.869282 
L 334.982148 288.059881 
L 335.342965 288.062132 
L 335.613577 288.125165 
L 335.884189 288.044123 
L 336.154802 288.146927 
L 336.245006 288.102653 
L 336.515618 288.209209 
L 338.049088 288.370543 
L 338.229496 288.456088 
L 340.213986 288.720225 
L 340.484598 288.689459 
L 340.75521 288.759245 
L 341.567047 288.872554 
L 342.469088 288.955848 
L 342.649496 288.97836 
L 342.829905 288.818526 
L 343.010313 288.956598 
L 343.371129 288.977609 
L 344.453578 289.127687 
L 344.72419 289.147948 
L 345.265415 289.250751 
L 345.896844 289.393326 
L 346.798885 289.502883 
L 347.069497 289.454107 
L 347.249905 289.580923 
L 347.700926 289.607937 
L 347.79113 289.523894 
L 347.971538 289.61319 
L 349.234395 289.799287 
L 349.595211 289.776775 
L 349.865824 289.860819 
L 352.21113 290.158724 
L 352.481742 290.233763 
L 352.571946 290.118954 
L 352.842559 290.293044 
L 353.7446 290.415358 
L 354.015212 290.384592 
L 354.376028 290.444623 
L 354.466232 290.629219 
L 354.646641 290.486645 
L 358.254895 290.774795 
L 358.435303 290.893357 
L 359.517752 291.061445 
L 360.058976 291.136484 
L 360.870813 291.252044 
L 361.321834 291.300819 
L 361.68265 291.357098 
L 363.125916 291.483915 
L 363.396528 291.491418 
L 363.66714 291.555202 
L 364.028047 291.452398 
L 364.298659 291.578464 
L 369.350178 292.283081 
L 369.440382 292.175775 
L 369.530586 292.302591 
L 369.620791 292.195285 
L 369.801199 292.326603 
L 371.15426 292.513451 
L 373.950587 292.721309 
L 374.221199 292.791095 
L 374.762424 292.867635 
L 374.852628 292.752075 
L 375.033036 292.902153 
L 376.837118 293.112263 
L 377.017526 293.110762 
L 380.806188 293.597766 
L 380.896392 293.542987 
L 380.986596 293.689313 
L 381.0768 293.329126 
L 381.257209 293.700569 
L 381.437617 293.629282 
L 381.527821 293.678808 
L 381.618025 293.350887 
L 381.708229 293.673555 
L 381.798433 293.637536 
L 381.888637 293.485957 
L 382.069045 293.755348 
L 382.249454 293.736588 
L 382.429862 293.791366 
L 382.520066 293.773357 
L 382.61027 293.639037 
L 382.880882 293.85515 
L 383.06129 293.813128 
L 383.422107 293.884415 
L 383.602515 293.885916 
L 384.414352 293.922685 
L 384.684964 293.927187 
L 384.865372 293.955702 
L 385.226189 294.014983 
L 387.301244 294.309886 
L 387.391448 294.226593 
L 387.66206 294.365415 
L 388.022876 294.438203 
L 389.105326 294.553013 
L 389.285734 294.505738 
L 389.64673 294.603289 
L 390.007727 294.56577 
L 390.27834 294.706843 
L 390.458748 294.68208 
L 390.639156 294.68133 
L 391.992217 294.774378 
L 392.353034 294.73911 
L 392.533442 294.752617 
L 393.165141 294.895942 
L 393.345639 294.886937 
L 393.886864 294.995744 
L 394.788905 294.939464 
L 394.969313 295.036265 
L 395.510538 295.14207 
L 395.871354 295.201351 
L 397.855844 295.437724 
L 398.126456 295.466239 
L 398.487273 295.485749 
L 398.487273 295.485749 
" style="fill:none;stroke:#1f77b4;stroke-linecap:square;stroke-width:1.5;"/>
   </g>
   <g id="patch_3">
    <path d="M 57.6 307.584 
L 57.6 41.472 
" style="fill:none;stroke:#000000;stroke-linecap:square;stroke-linejoin:miter;stroke-width:0.8;"/>
   </g>
   <g id="patch_4">
    <path d="M 414.72 307.584 
L 414.72 41.472 
" style="fill:none;stroke:#000000;stroke-linecap:square;stroke-linejoin:miter;stroke-width:0.8;"/>
   </g>
   <g id="patch_5">
    <path d="M 57.6 307.584 
L 414.72 307.584 
" style="fill:none;stroke:#000000;stroke-linecap:square;stroke-linejoin:miter;stroke-width:0.8;"/>
   </g>
   <g id="patch_6">
    <path d="M 57.6 41.472 
L 414.72 41.472 
" style="fill:none;stroke:#000000;stroke-linecap:square;stroke-linejoin:miter;stroke-width:0.8;"/>
   </g>
   <g id="text_18">
    <!-- Current with source voltage 100.0 mV -->
    <defs>
     <path d="M 4.203125 54.6875 
L 13.1875 54.6875 
L 24.421875 12.015625 
L 35.59375 54.6875 
L 46.1875 54.6875 
L 57.421875 12.015625 
L 68.609375 54.6875 
L 77.59375 54.6875 
L 63.28125 0 
L 52.6875 0 
L 40.921875 44.828125 
L 29.109375 0 
L 18.5 0 
z
" id="DejaVuSans-77"/>
     <path d="M 9.421875 54.6875 
L 18.40625 54.6875 
L 18.40625 0 
L 9.421875 0 
z
M 9.421875 75.984375 
L 18.40625 75.984375 
L 18.40625 64.59375 
L 9.421875 64.59375 
z
" id="DejaVuSans-69"/>
     <path d="M 54.890625 33.015625 
L 54.890625 0 
L 45.90625 0 
L 45.90625 32.71875 
Q 45.90625 40.484375 42.875 44.328125 
Q 39.84375 48.1875 33.796875 48.1875 
Q 26.515625 48.1875 22.3125 43.546875 
Q 18.109375 38.921875 18.109375 30.90625 
L 18.109375 0 
L 9.078125 0 
L 9.078125 75.984375 
L 18.109375 75.984375 
L 18.109375 46.1875 
Q 21.34375 51.125 25.703125 53.5625 
Q 30.078125 56 35.796875 56 
Q 45.21875 56 50.046875 50.171875 
Q 54.890625 44.34375 54.890625 33.015625 
z
" id="DejaVuSans-68"/>
     <path d="M 30.609375 48.390625 
Q 23.390625 48.390625 19.1875 42.75 
Q 14.984375 37.109375 14.984375 27.296875 
Q 14.984375 17.484375 19.15625 11.84375 
Q 23.34375 6.203125 30.609375 6.203125 
Q 37.796875 6.203125 41.984375 11.859375 
Q 46.1875 17.53125 46.1875 27.296875 
Q 46.1875 37.015625 41.984375 42.703125 
Q 37.796875 48.390625 30.609375 48.390625 
z
M 30.609375 56 
Q 42.328125 56 49.015625 48.375 
Q 55.71875 40.765625 55.71875 27.296875 
Q 55.71875 13.875 49.015625 6.21875 
Q 42.328125 -1.421875 30.609375 -1.421875 
Q 18.84375 -1.421875 12.171875 6.21875 
Q 5.515625 13.875 5.515625 27.296875 
Q 5.515625 40.765625 12.171875 48.375 
Q 18.84375 56 30.609375 56 
z
" id="DejaVuSans-6f"/>
     <path d="M 48.78125 52.59375 
L 48.78125 44.1875 
Q 44.96875 46.296875 41.140625 47.34375 
Q 37.3125 48.390625 33.40625 48.390625 
Q 24.65625 48.390625 19.8125 42.84375 
Q 14.984375 37.3125 14.984375 27.296875 
Q 14.984375 17.28125 19.8125 11.734375 
Q 24.65625 6.203125 33.40625 6.203125 
Q 37.3125 6.203125 41.140625 7.25 
Q 44.96875 8.296875 48.78125 10.40625 
L 48.78125 2.09375 
Q 45.015625 0.34375 40.984375 -0.53125 
Q 36.96875 -1.421875 32.421875 -1.421875 
Q 20.0625 -1.421875 12.78125 6.34375 
Q 5.515625 14.109375 5.515625 27.296875 
Q 5.515625 40.671875 12.859375 48.328125 
Q 20.21875 56 33.015625 56 
Q 37.15625 56 41.109375 55.140625 
Q 45.0625 54.296875 48.78125 52.59375 
z
" id="DejaVuSans-63"/>
     <path d="M 2.984375 54.6875 
L 12.5 54.6875 
L 29.59375 8.796875 
L 46.6875 54.6875 
L 56.203125 54.6875 
L 35.6875 0 
L 23.484375 0 
z
" id="DejaVuSans-76"/>
     <path d="M 9.421875 75.984375 
L 18.40625 75.984375 
L 18.40625 0 
L 9.421875 0 
z
" id="DejaVuSans-6c"/>
     <path d="M 34.28125 27.484375 
Q 23.390625 27.484375 19.1875 25 
Q 14.984375 22.515625 14.984375 16.5 
Q 14.984375 11.71875 18.140625 8.90625 
Q 21.296875 6.109375 26.703125 6.109375 
Q 34.1875 6.109375 38.703125 11.40625 
Q 43.21875 16.703125 43.21875 25.484375 
L 43.21875 27.484375 
z
M 52.203125 31.203125 
L 52.203125 0 
L 43.21875 0 
L 43.21875 8.296875 
Q 40.140625 3.328125 35.546875 0.953125 
Q 30.953125 -1.421875 24.3125 -1.421875 
Q 15.921875 -1.421875 10.953125 3.296875 
Q 6 8.015625 6 15.921875 
Q 6 25.140625 12.171875 29.828125 
Q 18.359375 34.515625 30.609375 34.515625 
L 43.21875 34.515625 
L 43.21875 35.40625 
Q 43.21875 41.609375 39.140625 45 
Q 35.0625 48.390625 27.6875 48.390625 
Q 23 48.390625 18.546875 47.265625 
Q 14.109375 46.140625 10.015625 43.890625 
L 10.015625 52.203125 
Q 14.9375 54.109375 19.578125 55.046875 
Q 24.21875 56 28.609375 56 
Q 40.484375 56 46.34375 49.84375 
Q 52.203125 43.703125 52.203125 31.203125 
z
" id="DejaVuSans-61"/>
     <path d="M 45.40625 27.984375 
Q 45.40625 37.75 41.375 43.109375 
Q 37.359375 48.484375 30.078125 48.484375 
Q 22.859375 48.484375 18.828125 43.109375 
Q 14.796875 37.75 14.796875 27.984375 
Q 14.796875 18.265625 18.828125 12.890625 
Q 22.859375 7.515625 30.078125 7.515625 
Q 37.359375 7.515625 41.375 12.890625 
Q 45.40625 18.265625 45.40625 27.984375 
z
M 54.390625 6.78125 
Q 54.390625 -7.171875 48.1875 -13.984375 
Q 42 -20.796875 29.203125 -20.796875 
Q 24.46875 -20.796875 20.265625 -20.09375 
Q 16.0625 -19.390625 12.109375 -17.921875 
L 12.109375 -9.1875 
Q 16.0625 -11.328125 19.921875 -12.34375 
Q 23.78125 -13.375 27.78125 -13.375 
Q 36.625 -13.375 41.015625 -8.765625 
Q 45.40625 -4.15625 45.40625 5.171875 
L 45.40625 9.625 
Q 42.625 4.78125 38.28125 2.390625 
Q 33.9375 0 27.875 0 
Q 17.828125 0 11.671875 7.65625 
Q 5.515625 15.328125 5.515625 27.984375 
Q 5.515625 40.671875 11.671875 48.328125 
Q 17.828125 56 27.875 56 
Q 33.9375 56 38.28125 53.609375 
Q 42.625 51.21875 45.40625 46.390625 
L 45.40625 54.6875 
L 54.390625 54.6875 
z
" id="DejaVuSans-67"/>
     <path d="M 10.6875 12.40625 
L 21 12.40625 
L 21 0 
L 10.6875 0 
z
" id="DejaVuSans-2e"/>
     <path d="M 52 44.1875 
Q 55.375 50.25 60.0625 53.125 
Q 64.75 56 71.09375 56 
Q 79.640625 56 84.28125 50.015625 
Q 88.921875 44.046875 88.921875 33.015625 
L 88.921875 0 
L 79.890625 0 
L 79.890625 32.71875 
Q 79.890625 40.578125 77.09375 44.375 
Q 74.3125 48.1875 68.609375 48.1875 
Q 61.625 48.1875 57.5625 43.546875 
Q 53.515625 38.921875 53.515625 30.90625 
L 53.515625 0 
L 44.484375 0 
L 44.484375 32.71875 
Q 44.484375 40.625 41.703125 44.40625 
Q 38.921875 48.1875 33.109375 48.1875 
Q 26.21875 48.1875 22.15625 43.53125 
Q 18.109375 38.875 18.109375 30.90625 
L 18.109375 0 
L 9.078125 0 
L 9.078125 54.6875 
L 18.109375 54.6875 
L 18.109375 46.1875 
Q 21.1875 51.21875 25.484375 53.609375 
Q 29.78125 56 35.6875 56 
Q 41.65625 56 45.828125 52.96875 
Q 50 49.953125 52 44.1875 
z
" id="DejaVuSans-6d"/>
     <path d="M 28.609375 0 
L 0.78125 72.90625 
L 11.078125 72.90625 
L 34.1875 11.53125 
L 57.328125 72.90625 
L 67.578125 72.90625 
L 39.796875 0 
z
" id="DejaVuSans-56"/>
    </defs>
    <g transform="translate(121.528125 35.472)scale(0.12 -0.12)">
     <use xlink:href="#DejaVuSans-43"/>
     <use x="69.824219" xlink:href="#DejaVuSans-75"/>
     <use x="133.203125" xlink:href="#DejaVuSans-72"/>
     <use x="174.300781" xlink:href="#DejaVuSans-72"/>
     <use x="215.382812" xlink:href="#DejaVuSans-65"/>
     <use x="276.90625" xlink:href="#DejaVuSans-6e"/>
     <use x="340.285156" xlink:href="#DejaVuSans-74"/>
     <use x="379.494141" xlink:href="#DejaVuSans-20"/>
     <use x="411.28125" xlink:href="#DejaVuSans-77"/>
     <use x="493.068359" xlink:href="#DejaVuSans-69"/>
     <use x="520.851562" xlink:href="#DejaVuSans-74"/>
     <use x="560.060547" xlink:href="#DejaVuSans-68"/>
     <use x="623.439453" xlink:href="#DejaVuSans-20"/>
     <use x="655.226562" xlink:href="#DejaVuSans-73"/>
     <use x="707.326172" xlink:href="#DejaVuSans-6f"/>
     <use x="768.507812" xlink:href="#DejaVuSans-75"/>
     <use x="831.886719" xlink:href="#DejaVuSans-72"/>
     <use x="872.96875" xlink:href="#DejaVuSans-63"/>
     <use x="927.949219" xlink:href="#DejaVuSans-65"/>
     <use x="989.472656" xlink:href="#DejaVuSans-20"/>
     <use x="1021.259766" xlink:href="#DejaVuSans-76"/>
     <use x="1080.439453" xlink:href="#DejaVuSans-6f"/>
     <use x="1141.621094" xlink:href="#DejaVuSans-6c"/>
     <use x="1169.404297" xlink:href="#DejaVuSans-74"/>
     <use x="1208.613281" xlink:href="#DejaVuSans-61"/>
     <use x="1269.892578" xlink:href="#DejaVuSans-67"/>
     <use x="1333.369141" xlink:href="#DejaVuSans-65"/>
     <use x="1394.892578" xlink:href="#DejaVuSans-20"/>
     <use x="1426.679688" xlink:href="#DejaVuSans-31"/>
     <use x="1490.302734" xlink:href="#DejaVuSans-30"/>
     <use x="1553.925781" xlink:href="#DejaVuSans-30"/>
     <use x="1617.548828" xlink:href="#DejaVuSans-2e"/>
     <use x="1649.335938" xlink:href="#DejaVuSans-30"/>
     <use x="1712.958984" xlink:href="#DejaVuSans-20"/>
     <use x="1744.746094" xlink:href="#DejaVuSans-6d"/>
     <use x="1842.158203" xlink:href="#DejaVuSans-56"/>
    </g>
   </g>
  </g>
 </g>
 <defs>
  <clipPath id="p591390496a">
   <rect height="266.112" width="357.12" x="57.6" y="41.472"/>
  </clipPath>
 </defs>
</svg>
