<?xml version="1.0" encoding="utf-8" standalone="no"?>
<!DOCTYPE svg PUBLIC "-//W3C//DTD SVG 1.1//EN"
  "http://www.w3.org/Graphics/SVG/1.1/DTD/svg11.dtd">
<!-- Created with matplotlib (http://matplotlib.org/) -->
<svg height="345pt" version="1.1" viewBox="0 0 460 345" width="460pt" xmlns="http://www.w3.org/2000/svg" xmlns:xlink="http://www.w3.org/1999/xlink">
 <defs>
  <style type="text/css">
*{stroke-linecap:butt;stroke-linejoin:round;}
  </style>
 </defs>
 <g id="figure_1">
  <g id="patch_1">
   <path d="M 0 345.6 
L 460.8 345.6 
L 460.8 0 
L 0 0 
z
" style="fill:#ffffff;"/>
  </g>
  <g id="axes_1">
   <g id="patch_2">
    <path d="M 57.6 307.584 
L 414.72 307.584 
L 414.72 41.472 
L 57.6 41.472 
z
" style="fill:#ffffff;"/>
   </g>
   <g id="matplotlib.axis_1">
    <g id="xtick_1">
     <g id="line2d_1">
      <defs>
       <path d="M 0 0 
L 0 3.5 
" id="mc612c89f40" style="stroke:#000000;stroke-width:0.8;"/>
      </defs>
      <g>
       <use style="stroke:#000000;stroke-width:0.8;" x="73.832727" xlink:href="#mc612c89f40" y="307.584"/>
      </g>
     </g>
     <g id="text_1">
      <!-- 0 -->
      <defs>
       <path d="M 31.78125 66.40625 
Q 24.171875 66.40625 20.328125 58.90625 
Q 16.5 51.421875 16.5 36.375 
Q 16.5 21.390625 20.328125 13.890625 
Q 24.171875 6.390625 31.78125 6.390625 
Q 39.453125 6.390625 43.28125 13.890625 
Q 47.125 21.390625 47.125 36.375 
Q 47.125 51.421875 43.28125 58.90625 
Q 39.453125 66.40625 31.78125 66.40625 
z
M 31.78125 74.21875 
Q 44.046875 74.21875 50.515625 64.515625 
Q 56.984375 54.828125 56.984375 36.375 
Q 56.984375 17.96875 50.515625 8.265625 
Q 44.046875 -1.421875 31.78125 -1.421875 
Q 19.53125 -1.421875 13.0625 8.265625 
Q 6.59375 17.96875 6.59375 36.375 
Q 6.59375 54.828125 13.0625 64.515625 
Q 19.53125 74.21875 31.78125 74.21875 
z
" id="DejaVuSans-30"/>
      </defs>
      <g transform="translate(70.651477 322.182437)scale(0.1 -0.1)">
       <use xlink:href="#DejaVuSans-30"/>
      </g>
     </g>
    </g>
    <g id="xtick_2">
     <g id="line2d_2">
      <g>
       <use style="stroke:#000000;stroke-width:0.8;" x="128.032151" xlink:href="#mc612c89f40" y="307.584"/>
      </g>
     </g>
     <g id="text_2">
      <!-- 100 -->
      <defs>
       <path d="M 12.40625 8.296875 
L 28.515625 8.296875 
L 28.515625 63.921875 
L 10.984375 60.40625 
L 10.984375 69.390625 
L 28.421875 72.90625 
L 38.28125 72.90625 
L 38.28125 8.296875 
L 54.390625 8.296875 
L 54.390625 0 
L 12.40625 0 
z
" id="DejaVuSans-31"/>
      </defs>
      <g transform="translate(118.488401 322.182437)scale(0.1 -0.1)">
       <use xlink:href="#DejaVuSans-31"/>
       <use x="63.623047" xlink:href="#DejaVuSans-30"/>
       <use x="127.246094" xlink:href="#DejaVuSans-30"/>
      </g>
     </g>
    </g>
    <g id="xtick_3">
     <g id="line2d_3">
      <g>
       <use style="stroke:#000000;stroke-width:0.8;" x="182.231574" xlink:href="#mc612c89f40" y="307.584"/>
      </g>
     </g>
     <g id="text_3">
      <!-- 200 -->
      <defs>
       <path d="M 19.1875 8.296875 
L 53.609375 8.296875 
L 53.609375 0 
L 7.328125 0 
L 7.328125 8.296875 
Q 12.9375 14.109375 22.625 23.890625 
Q 32.328125 33.6875 34.8125 36.53125 
Q 39.546875 41.84375 41.421875 45.53125 
Q 43.3125 49.21875 43.3125 52.78125 
Q 43.3125 58.59375 39.234375 62.25 
Q 35.15625 65.921875 28.609375 65.921875 
Q 23.96875 65.921875 18.8125 64.3125 
Q 13.671875 62.703125 7.8125 59.421875 
L 7.8125 69.390625 
Q 13.765625 71.78125 18.9375 73 
Q 24.125 74.21875 28.421875 74.21875 
Q 39.75 74.21875 46.484375 68.546875 
Q 53.21875 62.890625 53.21875 53.421875 
Q 53.21875 48.921875 51.53125 44.890625 
Q 49.859375 40.875 45.40625 35.40625 
Q 44.1875 33.984375 37.640625 27.21875 
Q 31.109375 20.453125 19.1875 8.296875 
z
" id="DejaVuSans-32"/>
      </defs>
      <g transform="translate(172.687824 322.182437)scale(0.1 -0.1)">
       <use xlink:href="#DejaVuSans-32"/>
       <use x="63.623047" xlink:href="#DejaVuSans-30"/>
       <use x="127.246094" xlink:href="#DejaVuSans-30"/>
      </g>
     </g>
    </g>
    <g id="xtick_4">
     <g id="line2d_4">
      <g>
       <use style="stroke:#000000;stroke-width:0.8;" x="236.430997" xlink:href="#mc612c89f40" y="307.584"/>
      </g>
     </g>
     <g id="text_4">
      <!-- 300 -->
      <defs>
       <path d="M 40.578125 39.3125 
Q 47.65625 37.796875 51.625 33 
Q 55.609375 28.21875 55.609375 21.1875 
Q 55.609375 10.40625 48.1875 4.484375 
Q 40.765625 -1.421875 27.09375 -1.421875 
Q 22.515625 -1.421875 17.65625 -0.515625 
Q 12.796875 0.390625 7.625 2.203125 
L 7.625 11.71875 
Q 11.71875 9.328125 16.59375 8.109375 
Q 21.484375 6.890625 26.8125 6.890625 
Q 36.078125 6.890625 40.9375 10.546875 
Q 45.796875 14.203125 45.796875 21.1875 
Q 45.796875 27.640625 41.28125 31.265625 
Q 36.765625 34.90625 28.71875 34.90625 
L 20.21875 34.90625 
L 20.21875 43.015625 
L 29.109375 43.015625 
Q 36.375 43.015625 40.234375 45.921875 
Q 44.09375 48.828125 44.09375 54.296875 
Q 44.09375 59.90625 40.109375 62.90625 
Q 36.140625 65.921875 28.71875 65.921875 
Q 24.65625 65.921875 20.015625 65.03125 
Q 15.375 64.15625 9.8125 62.3125 
L 9.8125 71.09375 
Q 15.4375 72.65625 20.34375 73.4375 
Q 25.25 74.21875 29.59375 74.21875 
Q 40.828125 74.21875 47.359375 69.109375 
Q 53.90625 64.015625 53.90625 55.328125 
Q 53.90625 49.265625 50.4375 45.09375 
Q 46.96875 40.921875 40.578125 39.3125 
z
" id="DejaVuSans-33"/>
      </defs>
      <g transform="translate(226.887247 322.182437)scale(0.1 -0.1)">
       <use xlink:href="#DejaVuSans-33"/>
       <use x="63.623047" xlink:href="#DejaVuSans-30"/>
       <use x="127.246094" xlink:href="#DejaVuSans-30"/>
      </g>
     </g>
    </g>
    <g id="xtick_5">
     <g id="line2d_5">
      <g>
       <use style="stroke:#000000;stroke-width:0.8;" x="290.63042" xlink:href="#mc612c89f40" y="307.584"/>
      </g>
     </g>
     <g id="text_5">
      <!-- 400 -->
      <defs>
       <path d="M 37.796875 64.3125 
L 12.890625 25.390625 
L 37.796875 25.390625 
z
M 35.203125 72.90625 
L 47.609375 72.90625 
L 47.609375 25.390625 
L 58.015625 25.390625 
L 58.015625 17.1875 
L 47.609375 17.1875 
L 47.609375 0 
L 37.796875 0 
L 37.796875 17.1875 
L 4.890625 17.1875 
L 4.890625 26.703125 
z
" id="DejaVuSans-34"/>
      </defs>
      <g transform="translate(281.08667 322.182437)scale(0.1 -0.1)">
       <use xlink:href="#DejaVuSans-34"/>
       <use x="63.623047" xlink:href="#DejaVuSans-30"/>
       <use x="127.246094" xlink:href="#DejaVuSans-30"/>
      </g>
     </g>
    </g>
    <g id="xtick_6">
     <g id="line2d_6">
      <g>
       <use style="stroke:#000000;stroke-width:0.8;" x="344.829844" xlink:href="#mc612c89f40" y="307.584"/>
      </g>
     </g>
     <g id="text_6">
      <!-- 500 -->
      <defs>
       <path d="M 10.796875 72.90625 
L 49.515625 72.90625 
L 49.515625 64.59375 
L 19.828125 64.59375 
L 19.828125 46.734375 
Q 21.96875 47.46875 24.109375 47.828125 
Q 26.265625 48.1875 28.421875 48.1875 
Q 40.625 48.1875 47.75 41.5 
Q 54.890625 34.8125 54.890625 23.390625 
Q 54.890625 11.625 47.5625 5.09375 
Q 40.234375 -1.421875 26.90625 -1.421875 
Q 22.3125 -1.421875 17.546875 -0.640625 
Q 12.796875 0.140625 7.71875 1.703125 
L 7.71875 11.625 
Q 12.109375 9.234375 16.796875 8.0625 
Q 21.484375 6.890625 26.703125 6.890625 
Q 35.15625 6.890625 40.078125 11.328125 
Q 45.015625 15.765625 45.015625 23.390625 
Q 45.015625 31 40.078125 35.4375 
Q 35.15625 39.890625 26.703125 39.890625 
Q 22.75 39.890625 18.8125 39.015625 
Q 14.890625 38.140625 10.796875 36.28125 
z
" id="DejaVuSans-35"/>
      </defs>
      <g transform="translate(335.286094 322.182437)scale(0.1 -0.1)">
       <use xlink:href="#DejaVuSans-35"/>
       <use x="63.623047" xlink:href="#DejaVuSans-30"/>
       <use x="127.246094" xlink:href="#DejaVuSans-30"/>
      </g>
     </g>
    </g>
    <g id="xtick_7">
     <g id="line2d_7">
      <g>
       <use style="stroke:#000000;stroke-width:0.8;" x="399.029267" xlink:href="#mc612c89f40" y="307.584"/>
      </g>
     </g>
     <g id="text_7">
      <!-- 600 -->
      <defs>
       <path d="M 33.015625 40.375 
Q 26.375 40.375 22.484375 35.828125 
Q 18.609375 31.296875 18.609375 23.390625 
Q 18.609375 15.53125 22.484375 10.953125 
Q 26.375 6.390625 33.015625 6.390625 
Q 39.65625 6.390625 43.53125 10.953125 
Q 47.40625 15.53125 47.40625 23.390625 
Q 47.40625 31.296875 43.53125 35.828125 
Q 39.65625 40.375 33.015625 40.375 
z
M 52.59375 71.296875 
L 52.59375 62.3125 
Q 48.875 64.0625 45.09375 64.984375 
Q 41.3125 65.921875 37.59375 65.921875 
Q 27.828125 65.921875 22.671875 59.328125 
Q 17.53125 52.734375 16.796875 39.40625 
Q 19.671875 43.65625 24.015625 45.921875 
Q 28.375 48.1875 33.59375 48.1875 
Q 44.578125 48.1875 50.953125 41.515625 
Q 57.328125 34.859375 57.328125 23.390625 
Q 57.328125 12.15625 50.6875 5.359375 
Q 44.046875 -1.421875 33.015625 -1.421875 
Q 20.359375 -1.421875 13.671875 8.265625 
Q 6.984375 17.96875 6.984375 36.375 
Q 6.984375 53.65625 15.1875 63.9375 
Q 23.390625 74.21875 37.203125 74.21875 
Q 40.921875 74.21875 44.703125 73.484375 
Q 48.484375 72.75 52.59375 71.296875 
z
" id="DejaVuSans-36"/>
      </defs>
      <g transform="translate(389.485517 322.182437)scale(0.1 -0.1)">
       <use xlink:href="#DejaVuSans-36"/>
       <use x="63.623047" xlink:href="#DejaVuSans-30"/>
       <use x="127.246094" xlink:href="#DejaVuSans-30"/>
      </g>
     </g>
    </g>
    <g id="text_8">
     <!-- t(s) -->
     <defs>
      <path d="M 18.3125 70.21875 
L 18.3125 54.6875 
L 36.8125 54.6875 
L 36.8125 47.703125 
L 18.3125 47.703125 
L 18.3125 18.015625 
Q 18.3125 11.328125 20.140625 9.421875 
Q 21.96875 7.515625 27.59375 7.515625 
L 36.8125 7.515625 
L 36.8125 0 
L 27.59375 0 
Q 17.1875 0 13.234375 3.875 
Q 9.28125 7.765625 9.28125 18.015625 
L 9.28125 47.703125 
L 2.6875 47.703125 
L 2.6875 54.6875 
L 9.28125 54.6875 
L 9.28125 70.21875 
z
" id="DejaVuSans-74"/>
      <path d="M 31 75.875 
Q 24.46875 64.65625 21.28125 53.65625 
Q 18.109375 42.671875 18.109375 31.390625 
Q 18.109375 20.125 21.3125 9.0625 
Q 24.515625 -2 31 -13.1875 
L 23.1875 -13.1875 
Q 15.875 -1.703125 12.234375 9.375 
Q 8.59375 20.453125 8.59375 31.390625 
Q 8.59375 42.28125 12.203125 53.3125 
Q 15.828125 64.359375 23.1875 75.875 
z
" id="DejaVuSans-28"/>
      <path d="M 44.28125 53.078125 
L 44.28125 44.578125 
Q 40.484375 46.53125 36.375 47.5 
Q 32.28125 48.484375 27.875 48.484375 
Q 21.1875 48.484375 17.84375 46.4375 
Q 14.5 44.390625 14.5 40.28125 
Q 14.5 37.15625 16.890625 35.375 
Q 19.28125 33.59375 26.515625 31.984375 
L 29.59375 31.296875 
Q 39.15625 29.25 43.1875 25.515625 
Q 47.21875 21.78125 47.21875 15.09375 
Q 47.21875 7.46875 41.1875 3.015625 
Q 35.15625 -1.421875 24.609375 -1.421875 
Q 20.21875 -1.421875 15.453125 -0.5625 
Q 10.6875 0.296875 5.421875 2 
L 5.421875 11.28125 
Q 10.40625 8.6875 15.234375 7.390625 
Q 20.0625 6.109375 24.8125 6.109375 
Q 31.15625 6.109375 34.5625 8.28125 
Q 37.984375 10.453125 37.984375 14.40625 
Q 37.984375 18.0625 35.515625 20.015625 
Q 33.0625 21.96875 24.703125 23.78125 
L 21.578125 24.515625 
Q 13.234375 26.265625 9.515625 29.90625 
Q 5.8125 33.546875 5.8125 39.890625 
Q 5.8125 47.609375 11.28125 51.796875 
Q 16.75 56 26.8125 56 
Q 31.78125 56 36.171875 55.265625 
Q 40.578125 54.546875 44.28125 53.078125 
z
" id="DejaVuSans-73"/>
      <path d="M 8.015625 75.875 
L 15.828125 75.875 
Q 23.140625 64.359375 26.78125 53.3125 
Q 30.421875 42.28125 30.421875 31.390625 
Q 30.421875 20.453125 26.78125 9.375 
Q 23.140625 -1.703125 15.828125 -13.1875 
L 8.015625 -13.1875 
Q 14.5 -2 17.703125 9.0625 
Q 20.90625 20.125 20.90625 31.390625 
Q 20.90625 42.671875 17.703125 53.65625 
Q 14.5 64.65625 8.015625 75.875 
z
" id="DejaVuSans-29"/>
     </defs>
     <g transform="translate(227.693594 335.860562)scale(0.1 -0.1)">
      <use xlink:href="#DejaVuSans-74"/>
      <use x="39.208984" xlink:href="#DejaVuSans-28"/>
      <use x="78.222656" xlink:href="#DejaVuSans-73"/>
      <use x="130.322266" xlink:href="#DejaVuSans-29"/>
     </g>
    </g>
   </g>
   <g id="matplotlib.axis_2">
    <g id="ytick_1">
     <g id="line2d_8">
      <defs>
       <path d="M 0 0 
L -3.5 0 
" id="m8405317a6c" style="stroke:#000000;stroke-width:0.8;"/>
      </defs>
      <g>
       <use style="stroke:#000000;stroke-width:0.8;" x="57.6" xlink:href="#m8405317a6c" y="295.488"/>
      </g>
     </g>
     <g id="text_9">
      <!-- −0.000006 -->
      <defs>
       <path d="M 10.59375 35.5 
L 73.1875 35.5 
L 73.1875 27.203125 
L 10.59375 27.203125 
z
" id="DejaVuSans-2212"/>
       <path d="M 10.6875 12.40625 
L 21 12.40625 
L 21 0 
L 10.6875 0 
z
" id="DejaVuSans-2e"/>
      </defs>
      <g transform="translate(-5.495313 299.287219)scale(0.1 -0.1)">
       <use xlink:href="#DejaVuSans-2212"/>
       <use x="83.789062" xlink:href="#DejaVuSans-30"/>
       <use x="147.412109" xlink:href="#DejaVuSans-2e"/>
       <use x="179.199219" xlink:href="#DejaVuSans-30"/>
       <use x="242.822266" xlink:href="#DejaVuSans-30"/>
       <use x="306.445312" xlink:href="#DejaVuSans-30"/>
       <use x="370.068359" xlink:href="#DejaVuSans-30"/>
       <use x="433.691406" xlink:href="#DejaVuSans-30"/>
       <use x="497.314453" xlink:href="#DejaVuSans-36"/>
      </g>
     </g>
    </g>
    <g id="ytick_2">
     <g id="line2d_9">
      <g>
       <use style="stroke:#000000;stroke-width:0.8;" x="57.6" xlink:href="#m8405317a6c" y="251.502545"/>
      </g>
     </g>
     <g id="text_10">
      <!-- −0.000004 -->
      <g transform="translate(-5.495313 255.301764)scale(0.1 -0.1)">
       <use xlink:href="#DejaVuSans-2212"/>
       <use x="83.789062" xlink:href="#DejaVuSans-30"/>
       <use x="147.412109" xlink:href="#DejaVuSans-2e"/>
       <use x="179.199219" xlink:href="#DejaVuSans-30"/>
       <use x="242.822266" xlink:href="#DejaVuSans-30"/>
       <use x="306.445312" xlink:href="#DejaVuSans-30"/>
       <use x="370.068359" xlink:href="#DejaVuSans-30"/>
       <use x="433.691406" xlink:href="#DejaVuSans-30"/>
       <use x="497.314453" xlink:href="#DejaVuSans-34"/>
      </g>
     </g>
    </g>
    <g id="ytick_3">
     <g id="line2d_10">
      <g>
       <use style="stroke:#000000;stroke-width:0.8;" x="57.6" xlink:href="#m8405317a6c" y="207.517091"/>
      </g>
     </g>
     <g id="text_11">
      <!-- −0.000002 -->
      <g transform="translate(-5.495313 211.31631)scale(0.1 -0.1)">
       <use xlink:href="#DejaVuSans-2212"/>
       <use x="83.789062" xlink:href="#DejaVuSans-30"/>
       <use x="147.412109" xlink:href="#DejaVuSans-2e"/>
       <use x="179.199219" xlink:href="#DejaVuSans-30"/>
       <use x="242.822266" xlink:href="#DejaVuSans-30"/>
       <use x="306.445312" xlink:href="#DejaVuSans-30"/>
       <use x="370.068359" xlink:href="#DejaVuSans-30"/>
       <use x="433.691406" xlink:href="#DejaVuSans-30"/>
       <use x="497.314453" xlink:href="#DejaVuSans-32"/>
      </g>
     </g>
    </g>
    <g id="ytick_4">
     <g id="line2d_11">
      <g>
       <use style="stroke:#000000;stroke-width:0.8;" x="57.6" xlink:href="#m8405317a6c" y="163.531636"/>
      </g>
     </g>
     <g id="text_12">
      <!-- 0.000000 -->
      <g transform="translate(2.884375 167.330855)scale(0.1 -0.1)">
       <use xlink:href="#DejaVuSans-30"/>
       <use x="63.623047" xlink:href="#DejaVuSans-2e"/>
       <use x="95.410156" xlink:href="#DejaVuSans-30"/>
       <use x="159.033203" xlink:href="#DejaVuSans-30"/>
       <use x="222.65625" xlink:href="#DejaVuSans-30"/>
       <use x="286.279297" xlink:href="#DejaVuSans-30"/>
       <use x="349.902344" xlink:href="#DejaVuSans-30"/>
       <use x="413.525391" xlink:href="#DejaVuSans-30"/>
      </g>
     </g>
    </g>
    <g id="ytick_5">
     <g id="line2d_12">
      <g>
       <use style="stroke:#000000;stroke-width:0.8;" x="57.6" xlink:href="#m8405317a6c" y="119.546182"/>
      </g>
     </g>
     <g id="text_13">
      <!-- 0.000002 -->
      <g transform="translate(2.884375 123.345401)scale(0.1 -0.1)">
       <use xlink:href="#DejaVuSans-30"/>
       <use x="63.623047" xlink:href="#DejaVuSans-2e"/>
       <use x="95.410156" xlink:href="#DejaVuSans-30"/>
       <use x="159.033203" xlink:href="#DejaVuSans-30"/>
       <use x="222.65625" xlink:href="#DejaVuSans-30"/>
       <use x="286.279297" xlink:href="#DejaVuSans-30"/>
       <use x="349.902344" xlink:href="#DejaVuSans-30"/>
       <use x="413.525391" xlink:href="#DejaVuSans-32"/>
      </g>
     </g>
    </g>
    <g id="ytick_6">
     <g id="line2d_13">
      <g>
       <use style="stroke:#000000;stroke-width:0.8;" x="57.6" xlink:href="#m8405317a6c" y="75.560727"/>
      </g>
     </g>
     <g id="text_14">
      <!-- 0.000004 -->
      <g transform="translate(2.884375 79.359946)scale(0.1 -0.1)">
       <use xlink:href="#DejaVuSans-30"/>
       <use x="63.623047" xlink:href="#DejaVuSans-2e"/>
       <use x="95.410156" xlink:href="#DejaVuSans-30"/>
       <use x="159.033203" xlink:href="#DejaVuSans-30"/>
       <use x="222.65625" xlink:href="#DejaVuSans-30"/>
       <use x="286.279297" xlink:href="#DejaVuSans-30"/>
       <use x="349.902344" xlink:href="#DejaVuSans-30"/>
       <use x="413.525391" xlink:href="#DejaVuSans-34"/>
      </g>
     </g>
    </g>
    <g id="text_15">
     <!-- Voltage (V) -->
     <defs>
      <path d="M 28.609375 0 
L 0.78125 72.90625 
L 11.078125 72.90625 
L 34.1875 11.53125 
L 57.328125 72.90625 
L 67.578125 72.90625 
L 39.796875 0 
z
" id="DejaVuSans-56"/>
      <path d="M 30.609375 48.390625 
Q 23.390625 48.390625 19.1875 42.75 
Q 14.984375 37.109375 14.984375 27.296875 
Q 14.984375 17.484375 19.15625 11.84375 
Q 23.34375 6.203125 30.609375 6.203125 
Q 37.796875 6.203125 41.984375 11.859375 
Q 46.1875 17.53125 46.1875 27.296875 
Q 46.1875 37.015625 41.984375 42.703125 
Q 37.796875 48.390625 30.609375 48.390625 
z
M 30.609375 56 
Q 42.328125 56 49.015625 48.375 
Q 55.71875 40.765625 55.71875 27.296875 
Q 55.71875 13.875 49.015625 6.21875 
Q 42.328125 -1.421875 30.609375 -1.421875 
Q 18.84375 -1.421875 12.171875 6.21875 
Q 5.515625 13.875 5.515625 27.296875 
Q 5.515625 40.765625 12.171875 48.375 
Q 18.84375 56 30.609375 56 
z
" id="DejaVuSans-6f"/>
      <path d="M 9.421875 75.984375 
L 18.40625 75.984375 
L 18.40625 0 
L 9.421875 0 
z
" id="DejaVuSans-6c"/>
      <path d="M 34.28125 27.484375 
Q 23.390625 27.484375 19.1875 25 
Q 14.984375 22.515625 14.984375 16.5 
Q 14.984375 11.71875 18.140625 8.90625 
Q 21.296875 6.109375 26.703125 6.109375 
Q 34.1875 6.109375 38.703125 11.40625 
Q 43.21875 16.703125 43.21875 25.484375 
L 43.21875 27.484375 
z
M 52.203125 31.203125 
L 52.203125 0 
L 43.21875 0 
L 43.21875 8.296875 
Q 40.140625 3.328125 35.546875 0.953125 
Q 30.953125 -1.421875 24.3125 -1.421875 
Q 15.921875 -1.421875 10.953125 3.296875 
Q 6 8.015625 6 15.921875 
Q 6 25.140625 12.171875 29.828125 
Q 18.359375 34.515625 30.609375 34.515625 
L 43.21875 34.515625 
L 43.21875 35.40625 
Q 43.21875 41.609375 39.140625 45 
Q 35.0625 48.390625 27.6875 48.390625 
Q 23 48.390625 18.546875 47.265625 
Q 14.109375 46.140625 10.015625 43.890625 
L 10.015625 52.203125 
Q 14.9375 54.109375 19.578125 55.046875 
Q 24.21875 56 28.609375 56 
Q 40.484375 56 46.34375 49.84375 
Q 52.203125 43.703125 52.203125 31.203125 
z
" id="DejaVuSans-61"/>
      <path d="M 45.40625 27.984375 
Q 45.40625 37.75 41.375 43.109375 
Q 37.359375 48.484375 30.078125 48.484375 
Q 22.859375 48.484375 18.828125 43.109375 
Q 14.796875 37.75 14.796875 27.984375 
Q 14.796875 18.265625 18.828125 12.890625 
Q 22.859375 7.515625 30.078125 7.515625 
Q 37.359375 7.515625 41.375 12.890625 
Q 45.40625 18.265625 45.40625 27.984375 
z
M 54.390625 6.78125 
Q 54.390625 -7.171875 48.1875 -13.984375 
Q 42 -20.796875 29.203125 -20.796875 
Q 24.46875 -20.796875 20.265625 -20.09375 
Q 16.0625 -19.390625 12.109375 -17.921875 
L 12.109375 -9.1875 
Q 16.0625 -11.328125 19.921875 -12.34375 
Q 23.78125 -13.375 27.78125 -13.375 
Q 36.625 -13.375 41.015625 -8.765625 
Q 45.40625 -4.15625 45.40625 5.171875 
L 45.40625 9.625 
Q 42.625 4.78125 38.28125 2.390625 
Q 33.9375 0 27.875 0 
Q 17.828125 0 11.671875 7.65625 
Q 5.515625 15.328125 5.515625 27.984375 
Q 5.515625 40.671875 11.671875 48.328125 
Q 17.828125 56 27.875 56 
Q 33.9375 56 38.28125 53.609375 
Q 42.625 51.21875 45.40625 46.390625 
L 45.40625 54.6875 
L 54.390625 54.6875 
z
" id="DejaVuSans-67"/>
      <path d="M 56.203125 29.59375 
L 56.203125 25.203125 
L 14.890625 25.203125 
Q 15.484375 15.921875 20.484375 11.0625 
Q 25.484375 6.203125 34.421875 6.203125 
Q 39.59375 6.203125 44.453125 7.46875 
Q 49.3125 8.734375 54.109375 11.28125 
L 54.109375 2.78125 
Q 49.265625 0.734375 44.1875 -0.34375 
Q 39.109375 -1.421875 33.890625 -1.421875 
Q 20.796875 -1.421875 13.15625 6.1875 
Q 5.515625 13.8125 5.515625 26.8125 
Q 5.515625 40.234375 12.765625 48.109375 
Q 20.015625 56 32.328125 56 
Q 43.359375 56 49.78125 48.890625 
Q 56.203125 41.796875 56.203125 29.59375 
z
M 47.21875 32.234375 
Q 47.125 39.59375 43.09375 43.984375 
Q 39.0625 48.390625 32.421875 48.390625 
Q 24.90625 48.390625 20.390625 44.140625 
Q 15.875 39.890625 15.1875 32.171875 
z
" id="DejaVuSans-65"/>
      <path id="DejaVuSans-20"/>
     </defs>
     <g transform="translate(-11.575 202.577219)rotate(-90)scale(0.1 -0.1)">
      <use xlink:href="#DejaVuSans-56"/>
      <use x="68.298828" xlink:href="#DejaVuSans-6f"/>
      <use x="129.480469" xlink:href="#DejaVuSans-6c"/>
      <use x="157.263672" xlink:href="#DejaVuSans-74"/>
      <use x="196.472656" xlink:href="#DejaVuSans-61"/>
      <use x="257.751953" xlink:href="#DejaVuSans-67"/>
      <use x="321.228516" xlink:href="#DejaVuSans-65"/>
      <use x="382.751953" xlink:href="#DejaVuSans-20"/>
      <use x="414.539062" xlink:href="#DejaVuSans-28"/>
      <use x="453.552734" xlink:href="#DejaVuSans-56"/>
      <use x="521.960938" xlink:href="#DejaVuSans-29"/>
     </g>
    </g>
    <g id="text_16">
     <!-- +1 -->
     <defs>
      <path d="M 46 62.703125 
L 46 35.5 
L 73.1875 35.5 
L 73.1875 27.203125 
L 46 27.203125 
L 46 0 
L 37.796875 0 
L 37.796875 27.203125 
L 10.59375 27.203125 
L 10.59375 35.5 
L 37.796875 35.5 
L 37.796875 62.703125 
z
" id="DejaVuSans-2b"/>
     </defs>
     <g transform="translate(57.6 38.472)scale(0.1 -0.1)">
      <use xlink:href="#DejaVuSans-2b"/>
      <use x="83.789062" xlink:href="#DejaVuSans-31"/>
     </g>
    </g>
   </g>
   <g id="line2d_14">
    <path clip-path="url(#p9140ef92de)" d="M 73.832727 141.538909 
L 74.916716 141.538909 
L 75.45871 185.524364 
L 76.000704 185.524364 
L 76.542698 141.538909 
L 77.084693 163.531636 
L 77.626687 119.546182 
L 78.168681 163.531636 
L 78.710675 97.553455 
L 79.25267 185.524364 
L 79.794664 207.517091 
L 80.336658 163.531636 
L 80.878652 185.524364 
L 81.420647 119.546182 
L 82.504635 207.517091 
L 83.046629 273.495273 
L 83.588623 207.517091 
L 84.130618 251.502545 
L 84.672612 163.531636 
L 85.214606 163.531636 
L 85.7566 185.524364 
L 86.298595 141.538909 
L 86.840589 251.502545 
L 87.924577 207.517091 
L 88.466572 141.538909 
L 89.008566 119.546182 
L 89.55056 207.517091 
L 90.092554 229.509818 
L 90.634548 229.509818 
L 91.176543 207.517091 
L 91.718537 141.538909 
L 92.802525 185.524364 
L 93.34452 185.524364 
L 93.886514 163.531636 
L 94.428508 163.531636 
L 94.970502 185.524364 
L 95.512497 141.538909 
L 96.054491 163.531636 
L 96.596485 141.538909 
L 97.138479 185.524364 
L 97.680474 119.546182 
L 98.222468 185.524364 
L 98.764462 163.531636 
L 99.306456 163.531636 
L 99.84845 207.517091 
L 100.390445 141.538909 
L 100.932439 207.517091 
L 101.474433 163.531636 
L 102.016427 273.495273 
L 102.558422 185.524364 
L 103.64241 141.538909 
L 104.184404 163.531636 
L 104.726399 229.509818 
L 105.268393 185.524364 
L 105.810387 207.517091 
L 106.352381 185.524364 
L 106.894375 207.517091 
L 107.978364 163.531636 
L 108.520358 229.509818 
L 109.062352 207.517091 
L 109.604347 251.502545 
L 110.146341 141.538909 
L 110.688335 185.524364 
L 111.230329 141.538909 
L 111.772324 141.538909 
L 112.314318 207.517091 
L 112.856312 185.524364 
L 113.398306 229.509818 
L 113.940301 163.531636 
L 114.482295 185.524364 
L 115.024289 185.524364 
L 116.108277 141.538909 
L 116.650272 163.531636 
L 117.192266 163.531636 
L 117.73426 185.524364 
L 118.276254 141.538909 
L 118.818249 163.531636 
L 119.360243 119.546182 
L 119.902237 185.524364 
L 120.444231 207.517091 
L 120.986226 207.517091 
L 122.070214 163.531636 
L 122.612208 229.509818 
L 123.154202 251.502545 
L 123.696197 163.531636 
L 124.238191 163.531636 
L 124.780185 207.517091 
L 125.322179 185.524364 
L 125.864174 185.524364 
L 126.406168 207.517091 
L 126.948162 207.517091 
L 128.032151 163.531636 
L 128.574145 185.524364 
L 129.116139 163.531636 
L 129.658133 163.531636 
L 130.200127 207.517091 
L 130.742122 185.524364 
L 131.82611 229.509818 
L 132.368104 141.538909 
L 132.910099 185.524364 
L 133.452093 207.517091 
L 134.536081 163.531636 
L 135.078076 185.524364 
L 135.62007 185.524364 
L 136.162064 163.531636 
L 136.704058 163.531636 
L 137.788047 207.517091 
L 138.330041 207.517091 
L 138.872035 185.524364 
L 139.956024 229.509818 
L 140.498018 185.524364 
L 141.040012 163.531636 
L 141.582006 207.517091 
L 142.124001 185.524364 
L 143.207989 185.524364 
L 143.749983 141.538909 
L 144.291978 163.531636 
L 144.833972 207.517091 
L 145.375966 163.531636 
L 145.91796 163.531636 
L 146.459954 185.524364 
L 147.001949 185.524364 
L 147.543943 207.517091 
L 148.627931 163.531636 
L 149.169926 229.509818 
L 149.71192 185.524364 
L 150.253914 185.524364 
L 150.795908 141.538909 
L 151.337903 185.524364 
L 151.879897 163.531636 
L 152.963885 163.531636 
L 153.505879 185.524364 
L 154.047874 185.524364 
L 154.589868 207.517091 
L 155.131862 119.546182 
L 155.673856 163.531636 
L 156.215851 163.531636 
L 156.757845 207.517091 
L 157.841833 163.531636 
L 158.383828 207.517091 
L 158.925822 141.538909 
L 159.467816 229.509818 
L 160.00981 141.538909 
L 160.551805 141.538909 
L 161.093799 163.531636 
L 161.635793 97.553455 
L 162.177787 185.524364 
L 162.719781 141.538909 
L 163.80377 141.538909 
L 164.345764 163.531636 
L 164.887758 119.546182 
L 165.429753 207.517091 
L 165.971747 185.524364 
L 167.59773 185.524364 
L 168.139724 163.531636 
L 169.223712 163.531636 
L 169.765706 185.524364 
L 170.307701 185.524364 
L 170.849695 163.531636 
L 171.391689 185.524364 
L 171.933683 141.538909 
L 173.017672 185.524364 
L 174.10166 185.524364 
L 174.643655 207.517091 
L 175.727643 163.531636 
L 176.269637 185.524364 
L 176.811632 185.524364 
L 177.353626 163.531636 
L 177.89562 163.531636 
L 178.437614 185.524364 
L 178.979608 185.524364 
L 179.521603 163.531636 
L 180.063597 185.524364 
L 180.605591 163.531636 
L 181.147585 229.509818 
L 181.68958 273.495273 
L 182.231574 163.531636 
L 182.773568 207.517091 
L 183.315562 163.531636 
L 183.857557 163.531636 
L 184.399551 141.538909 
L 184.941545 207.517091 
L 185.483539 251.502545 
L 186.025533 163.531636 
L 186.567528 163.531636 
L 187.109522 185.524364 
L 187.651516 141.538909 
L 188.19351 207.517091 
L 188.735505 163.531636 
L 189.277499 185.524364 
L 189.819493 185.524364 
L 190.361487 163.531636 
L 190.903482 163.531636 
L 191.445476 141.538909 
L 191.98747 185.524364 
L 193.071458 229.509818 
L 193.613453 185.524364 
L 194.155447 229.509818 
L 194.697441 185.524364 
L 195.239435 229.509818 
L 195.78143 207.517091 
L 196.323424 207.517091 
L 196.865418 185.524364 
L 197.407412 207.517091 
L 198.491401 119.546182 
L 199.033395 185.524364 
L 199.575389 185.524364 
L 200.117384 163.531636 
L 200.659378 185.524364 
L 201.201372 185.524364 
L 201.743366 163.531636 
L 202.827355 163.531636 
L 203.369349 185.524364 
L 203.911343 185.524364 
L 204.453337 163.531636 
L 204.995332 163.531636 
L 205.537326 185.524364 
L 206.07932 163.531636 
L 206.621314 185.524364 
L 208.247297 185.524364 
L 208.789291 163.531636 
L 209.331285 185.524364 
L 209.87328 185.524364 
L 210.415274 163.531636 
L 210.957268 163.531636 
L 211.499262 185.524364 
L 212.041257 185.524364 
L 212.583251 163.531636 
L 213.125245 207.517091 
L 213.667239 185.524364 
L 214.751228 185.524364 
L 215.293222 163.531636 
L 216.377211 163.531636 
L 216.919205 185.524364 
L 217.461199 163.531636 
L 218.003193 163.531636 
L 218.545187 141.538909 
L 220.17117 207.517091 
L 220.713164 185.524364 
L 221.797153 185.524364 
L 222.339147 163.531636 
L 222.881141 185.524364 
L 223.423136 185.524364 
L 223.96513 163.531636 
L 224.507124 207.517091 
L 225.049118 185.524364 
L 226.675101 185.524364 
L 227.217095 163.531636 
L 227.759089 207.517091 
L 228.301084 163.531636 
L 228.843078 163.531636 
L 229.385072 185.524364 
L 229.927066 163.531636 
L 230.469061 163.531636 
L 231.011055 141.538909 
L 231.553049 141.538909 
L 232.095043 163.531636 
L 232.637037 163.531636 
L 233.179032 185.524364 
L 233.721026 141.538909 
L 234.26302 207.517091 
L 234.805014 251.502545 
L 235.347009 163.531636 
L 235.889003 185.524364 
L 236.972991 185.524364 
L 237.514986 207.517091 
L 238.05698 185.524364 
L 238.598974 207.517091 
L 239.140968 185.524364 
L 239.682963 207.517091 
L 240.224957 185.524364 
L 240.766951 185.524364 
L 241.308945 207.517091 
L 242.934928 207.517091 
L 243.476922 185.524364 
L 244.018916 185.524364 
L 244.560911 141.538909 
L 245.102905 185.524364 
L 246.186893 229.509818 
L 246.728888 163.531636 
L 247.270882 229.509818 
L 248.35487 141.538909 
L 248.896864 207.517091 
L 249.438859 97.553455 
L 249.980853 163.531636 
L 250.522847 185.524364 
L 251.606836 141.538909 
L 252.690824 185.524364 
L 253.774813 185.524364 
L 254.316807 163.531636 
L 254.858801 119.546182 
L 255.400795 141.538909 
L 255.942789 229.509818 
L 256.484784 207.517091 
L 257.026778 251.502545 
L 257.568772 229.509818 
L 258.110766 141.538909 
L 259.194755 229.509818 
L 259.736749 185.524364 
L 260.278743 163.531636 
L 260.820738 207.517091 
L 262.44672 207.517091 
L 262.988715 185.524364 
L 264.614697 251.502545 
L 265.156691 141.538909 
L 265.698686 207.517091 
L 266.24068 251.502545 
L 266.782674 141.538909 
L 267.324668 163.531636 
L 267.866663 163.531636 
L 268.408657 119.546182 
L 269.492645 163.531636 
L 270.03464 141.538909 
L 270.576634 141.538909 
L 271.118628 163.531636 
L 272.202616 163.531636 
L 272.744611 185.524364 
L 273.286605 53.568 
L 273.828599 141.538909 
L 274.370593 185.524364 
L 274.912588 251.502545 
L 275.454582 207.517091 
L 275.996576 185.524364 
L 276.53857 251.502545 
L 277.080565 163.531636 
L 277.622559 185.524364 
L 278.164553 229.509818 
L 278.706547 207.517091 
L 279.790536 207.517091 
L 280.33253 185.524364 
L 280.874524 141.538909 
L 281.416518 119.546182 
L 281.958513 185.524364 
L 282.500507 185.524364 
L 283.042501 141.538909 
L 283.584495 185.524364 
L 284.12649 207.517091 
L 284.668484 141.538909 
L 285.210478 141.538909 
L 285.752472 163.531636 
L 288.462443 163.531636 
L 289.546432 119.546182 
L 290.088426 163.531636 
L 290.63042 141.538909 
L 291.172415 163.531636 
L 291.714409 251.502545 
L 292.256403 207.517091 
L 292.798397 185.524364 
L 293.340392 273.495273 
L 293.882386 185.524364 
L 294.42438 207.517091 
L 294.966374 185.524364 
L 295.508368 229.509818 
L 296.050363 185.524364 
L 296.592357 207.517091 
L 297.134351 185.524364 
L 297.676345 229.509818 
L 298.21834 295.488 
L 298.760334 163.531636 
L 299.302328 163.531636 
L 299.844322 207.517091 
L 300.386317 141.538909 
L 300.928311 207.517091 
L 301.470305 163.531636 
L 303.096288 163.531636 
L 303.638282 141.538909 
L 304.72227 185.524364 
L 305.806259 141.538909 
L 306.348253 97.553455 
L 306.890247 185.524364 
L 307.432242 185.524364 
L 307.974236 141.538909 
L 308.51623 141.538909 
L 309.058224 185.524364 
L 309.600219 207.517091 
L 312.852184 207.517091 
L 313.394178 141.538909 
L 313.936172 97.553455 
L 314.478167 163.531636 
L 315.020161 119.546182 
L 315.562155 141.538909 
L 316.104149 119.546182 
L 316.646144 163.531636 
L 317.188138 163.531636 
L 317.730132 185.524364 
L 318.814121 141.538909 
L 319.356115 163.531636 
L 319.898109 97.553455 
L 320.440103 163.531636 
L 320.982097 141.538909 
L 321.524092 207.517091 
L 322.066086 207.517091 
L 322.60808 185.524364 
L 323.150074 185.524364 
L 323.692069 251.502545 
L 324.234063 185.524364 
L 324.776057 207.517091 
L 325.318051 163.531636 
L 326.40204 207.517091 
L 326.944034 185.524364 
L 327.486028 207.517091 
L 328.028022 119.546182 
L 328.570017 185.524364 
L 329.112011 185.524364 
L 329.654005 207.517091 
L 330.195999 119.546182 
L 330.737994 141.538909 
L 331.279988 185.524364 
L 331.821982 163.531636 
L 332.905971 163.531636 
L 333.447965 141.538909 
L 333.989959 207.517091 
L 334.531953 141.538909 
L 335.073947 163.531636 
L 335.615942 97.553455 
L 336.157936 251.502545 
L 336.69993 295.488 
L 337.241924 163.531636 
L 337.783919 229.509818 
L 338.325913 163.531636 
L 338.867907 207.517091 
L 339.409901 185.524364 
L 339.951896 229.509818 
L 340.49389 229.509818 
L 341.035884 185.524364 
L 341.577878 207.517091 
L 342.119873 251.502545 
L 342.661867 207.517091 
L 343.203861 207.517091 
L 343.745855 163.531636 
L 344.287849 185.524364 
L 344.829844 141.538909 
L 345.371838 229.509818 
L 345.913832 141.538909 
L 346.455826 141.538909 
L 347.539815 97.553455 
L 348.081809 207.517091 
L 348.623803 207.517091 
L 349.165798 185.524364 
L 349.707792 141.538909 
L 350.249786 229.509818 
L 350.79178 163.531636 
L 351.333774 163.531636 
L 351.875769 141.538909 
L 352.417763 163.531636 
L 355.127734 163.531636 
L 355.669728 185.524364 
L 356.211723 251.502545 
L 356.753717 75.560727 
L 357.295711 119.546182 
L 357.837705 251.502545 
L 358.379699 141.538909 
L 358.921694 185.524364 
L 359.463688 141.538909 
L 360.005682 251.502545 
L 360.547676 163.531636 
L 361.089671 207.517091 
L 362.173659 251.502545 
L 362.715653 207.517091 
L 363.257648 185.524364 
L 363.799642 185.524364 
L 364.341636 163.531636 
L 364.88363 185.524364 
L 366.509613 185.524364 
L 367.051607 163.531636 
L 367.593601 185.524364 
L 368.135596 251.502545 
L 368.67759 229.509818 
L 369.219584 163.531636 
L 369.761578 207.517091 
L 370.303573 141.538909 
L 370.845567 185.524364 
L 373.013544 185.524364 
L 373.555538 229.509818 
L 374.097532 141.538909 
L 374.639526 185.524364 
L 375.181521 185.524364 
L 375.723515 163.531636 
L 376.265509 207.517091 
L 376.807503 163.531636 
L 377.349498 163.531636 
L 377.891492 207.517091 
L 378.433486 163.531636 
L 378.97548 185.524364 
L 379.517475 163.531636 
L 380.059469 163.531636 
L 380.601463 207.517091 
L 381.143457 163.531636 
L 381.685452 163.531636 
L 382.227446 185.524364 
L 382.76944 229.509818 
L 383.853428 141.538909 
L 384.395423 207.517091 
L 384.937417 207.517091 
L 385.479411 119.546182 
L 386.021405 163.531636 
L 386.5634 97.553455 
L 387.105394 251.502545 
L 387.647388 185.524364 
L 388.189382 207.517091 
L 388.731377 163.531636 
L 389.273371 163.531636 
L 390.357359 207.517091 
L 390.899353 185.524364 
L 391.441348 141.538909 
L 391.983342 207.517091 
L 392.525336 163.531636 
L 393.06733 207.517091 
L 393.609325 229.509818 
L 394.151319 141.538909 
L 394.693313 185.524364 
L 395.235307 141.538909 
L 395.777302 185.524364 
L 396.319296 185.524364 
L 397.403284 141.538909 
L 397.945278 185.524364 
L 398.487273 185.524364 
L 398.487273 185.524364 
" style="fill:none;stroke:#1f77b4;stroke-linecap:square;stroke-width:1.5;"/>
   </g>
   <g id="patch_3">
    <path d="M 57.6 307.584 
L 57.6 41.472 
" style="fill:none;stroke:#000000;stroke-linecap:square;stroke-linejoin:miter;stroke-width:0.8;"/>
   </g>
   <g id="patch_4">
    <path d="M 414.72 307.584 
L 414.72 41.472 
" style="fill:none;stroke:#000000;stroke-linecap:square;stroke-linejoin:miter;stroke-width:0.8;"/>
   </g>
   <g id="patch_5">
    <path d="M 57.6 307.584 
L 414.72 307.584 
" style="fill:none;stroke:#000000;stroke-linecap:square;stroke-linejoin:miter;stroke-width:0.8;"/>
   </g>
   <g id="patch_6">
    <path d="M 57.6 41.472 
L 414.72 41.472 
" style="fill:none;stroke:#000000;stroke-linecap:square;stroke-linejoin:miter;stroke-width:0.8;"/>
   </g>
   <g id="text_17">
    <!-- Voltage measured with source voltage 1000.0 mV -->
    <defs>
     <path d="M 52 44.1875 
Q 55.375 50.25 60.0625 53.125 
Q 64.75 56 71.09375 56 
Q 79.640625 56 84.28125 50.015625 
Q 88.921875 44.046875 88.921875 33.015625 
L 88.921875 0 
L 79.890625 0 
L 79.890625 32.71875 
Q 79.890625 40.578125 77.09375 44.375 
Q 74.3125 48.1875 68.609375 48.1875 
Q 61.625 48.1875 57.5625 43.546875 
Q 53.515625 38.921875 53.515625 30.90625 
L 53.515625 0 
L 44.484375 0 
L 44.484375 32.71875 
Q 44.484375 40.625 41.703125 44.40625 
Q 38.921875 48.1875 33.109375 48.1875 
Q 26.21875 48.1875 22.15625 43.53125 
Q 18.109375 38.875 18.109375 30.90625 
L 18.109375 0 
L 9.078125 0 
L 9.078125 54.6875 
L 18.109375 54.6875 
L 18.109375 46.1875 
Q 21.1875 51.21875 25.484375 53.609375 
Q 29.78125 56 35.6875 56 
Q 41.65625 56 45.828125 52.96875 
Q 50 49.953125 52 44.1875 
z
" id="DejaVuSans-6d"/>
     <path d="M 8.5 21.578125 
L 8.5 54.6875 
L 17.484375 54.6875 
L 17.484375 21.921875 
Q 17.484375 14.15625 20.5 10.265625 
Q 23.53125 6.390625 29.59375 6.390625 
Q 36.859375 6.390625 41.078125 11.03125 
Q 45.3125 15.671875 45.3125 23.6875 
L 45.3125 54.6875 
L 54.296875 54.6875 
L 54.296875 0 
L 45.3125 0 
L 45.3125 8.40625 
Q 42.046875 3.421875 37.71875 1 
Q 33.40625 -1.421875 27.6875 -1.421875 
Q 18.265625 -1.421875 13.375 4.4375 
Q 8.5 10.296875 8.5 21.578125 
z
M 31.109375 56 
z
" id="DejaVuSans-75"/>
     <path d="M 41.109375 46.296875 
Q 39.59375 47.171875 37.8125 47.578125 
Q 36.03125 48 33.890625 48 
Q 26.265625 48 22.1875 43.046875 
Q 18.109375 38.09375 18.109375 28.8125 
L 18.109375 0 
L 9.078125 0 
L 9.078125 54.6875 
L 18.109375 54.6875 
L 18.109375 46.1875 
Q 20.953125 51.171875 25.484375 53.578125 
Q 30.03125 56 36.53125 56 
Q 37.453125 56 38.578125 55.875 
Q 39.703125 55.765625 41.0625 55.515625 
z
" id="DejaVuSans-72"/>
     <path d="M 45.40625 46.390625 
L 45.40625 75.984375 
L 54.390625 75.984375 
L 54.390625 0 
L 45.40625 0 
L 45.40625 8.203125 
Q 42.578125 3.328125 38.25 0.953125 
Q 33.9375 -1.421875 27.875 -1.421875 
Q 17.96875 -1.421875 11.734375 6.484375 
Q 5.515625 14.40625 5.515625 27.296875 
Q 5.515625 40.1875 11.734375 48.09375 
Q 17.96875 56 27.875 56 
Q 33.9375 56 38.25 53.625 
Q 42.578125 51.265625 45.40625 46.390625 
z
M 14.796875 27.296875 
Q 14.796875 17.390625 18.875 11.75 
Q 22.953125 6.109375 30.078125 6.109375 
Q 37.203125 6.109375 41.296875 11.75 
Q 45.40625 17.390625 45.40625 27.296875 
Q 45.40625 37.203125 41.296875 42.84375 
Q 37.203125 48.484375 30.078125 48.484375 
Q 22.953125 48.484375 18.875 42.84375 
Q 14.796875 37.203125 14.796875 27.296875 
z
" id="DejaVuSans-64"/>
     <path d="M 4.203125 54.6875 
L 13.1875 54.6875 
L 24.421875 12.015625 
L 35.59375 54.6875 
L 46.1875 54.6875 
L 57.421875 12.015625 
L 68.609375 54.6875 
L 77.59375 54.6875 
L 63.28125 0 
L 52.6875 0 
L 40.921875 44.828125 
L 29.109375 0 
L 18.5 0 
z
" id="DejaVuSans-77"/>
     <path d="M 9.421875 54.6875 
L 18.40625 54.6875 
L 18.40625 0 
L 9.421875 0 
z
M 9.421875 75.984375 
L 18.40625 75.984375 
L 18.40625 64.59375 
L 9.421875 64.59375 
z
" id="DejaVuSans-69"/>
     <path d="M 54.890625 33.015625 
L 54.890625 0 
L 45.90625 0 
L 45.90625 32.71875 
Q 45.90625 40.484375 42.875 44.328125 
Q 39.84375 48.1875 33.796875 48.1875 
Q 26.515625 48.1875 22.3125 43.546875 
Q 18.109375 38.921875 18.109375 30.90625 
L 18.109375 0 
L 9.078125 0 
L 9.078125 75.984375 
L 18.109375 75.984375 
L 18.109375 46.1875 
Q 21.34375 51.125 25.703125 53.5625 
Q 30.078125 56 35.796875 56 
Q 45.21875 56 50.046875 50.171875 
Q 54.890625 44.34375 54.890625 33.015625 
z
" id="DejaVuSans-68"/>
     <path d="M 48.78125 52.59375 
L 48.78125 44.1875 
Q 44.96875 46.296875 41.140625 47.34375 
Q 37.3125 48.390625 33.40625 48.390625 
Q 24.65625 48.390625 19.8125 42.84375 
Q 14.984375 37.3125 14.984375 27.296875 
Q 14.984375 17.28125 19.8125 11.734375 
Q 24.65625 6.203125 33.40625 6.203125 
Q 37.3125 6.203125 41.140625 7.25 
Q 44.96875 8.296875 48.78125 10.40625 
L 48.78125 2.09375 
Q 45.015625 0.34375 40.984375 -0.53125 
Q 36.96875 -1.421875 32.421875 -1.421875 
Q 20.0625 -1.421875 12.78125 6.34375 
Q 5.515625 14.109375 5.515625 27.296875 
Q 5.515625 40.671875 12.859375 48.328125 
Q 20.21875 56 33.015625 56 
Q 37.15625 56 41.109375 55.140625 
Q 45.0625 54.296875 48.78125 52.59375 
z
" id="DejaVuSans-63"/>
     <path d="M 2.984375 54.6875 
L 12.5 54.6875 
L 29.59375 8.796875 
L 46.6875 54.6875 
L 56.203125 54.6875 
L 35.6875 0 
L 23.484375 0 
z
" id="DejaVuSans-76"/>
    </defs>
    <g transform="translate(85.5 35.472)scale(0.12 -0.12)">
     <use xlink:href="#DejaVuSans-56"/>
     <use x="68.298828" xlink:href="#DejaVuSans-6f"/>
     <use x="129.480469" xlink:href="#DejaVuSans-6c"/>
     <use x="157.263672" xlink:href="#DejaVuSans-74"/>
     <use x="196.472656" xlink:href="#DejaVuSans-61"/>
     <use x="257.751953" xlink:href="#DejaVuSans-67"/>
     <use x="321.228516" xlink:href="#DejaVuSans-65"/>
     <use x="382.751953" xlink:href="#DejaVuSans-20"/>
     <use x="414.539062" xlink:href="#DejaVuSans-6d"/>
     <use x="511.951172" xlink:href="#DejaVuSans-65"/>
     <use x="573.474609" xlink:href="#DejaVuSans-61"/>
     <use x="634.753906" xlink:href="#DejaVuSans-73"/>
     <use x="686.853516" xlink:href="#DejaVuSans-75"/>
     <use x="750.232422" xlink:href="#DejaVuSans-72"/>
     <use x="791.314453" xlink:href="#DejaVuSans-65"/>
     <use x="852.837891" xlink:href="#DejaVuSans-64"/>
     <use x="916.314453" xlink:href="#DejaVuSans-20"/>
     <use x="948.101562" xlink:href="#DejaVuSans-77"/>
     <use x="1029.888672" xlink:href="#DejaVuSans-69"/>
     <use x="1057.671875" xlink:href="#DejaVuSans-74"/>
     <use x="1096.880859" xlink:href="#DejaVuSans-68"/>
     <use x="1160.259766" xlink:href="#DejaVuSans-20"/>
     <use x="1192.046875" xlink:href="#DejaVuSans-73"/>
     <use x="1244.146484" xlink:href="#DejaVuSans-6f"/>
     <use x="1305.328125" xlink:href="#DejaVuSans-75"/>
     <use x="1368.707031" xlink:href="#DejaVuSans-72"/>
     <use x="1409.789062" xlink:href="#DejaVuSans-63"/>
     <use x="1464.769531" xlink:href="#DejaVuSans-65"/>
     <use x="1526.292969" xlink:href="#DejaVuSans-20"/>
     <use x="1558.080078" xlink:href="#DejaVuSans-76"/>
     <use x="1617.259766" xlink:href="#DejaVuSans-6f"/>
     <use x="1678.441406" xlink:href="#DejaVuSans-6c"/>
     <use x="1706.224609" xlink:href="#DejaVuSans-74"/>
     <use x="1745.433594" xlink:href="#DejaVuSans-61"/>
     <use x="1806.712891" xlink:href="#DejaVuSans-67"/>
     <use x="1870.189453" xlink:href="#DejaVuSans-65"/>
     <use x="1931.712891" xlink:href="#DejaVuSans-20"/>
     <use x="1963.5" xlink:href="#DejaVuSans-31"/>
     <use x="2027.123047" xlink:href="#DejaVuSans-30"/>
     <use x="2090.746094" xlink:href="#DejaVuSans-30"/>
     <use x="2154.369141" xlink:href="#DejaVuSans-30"/>
     <use x="2217.992188" xlink:href="#DejaVuSans-2e"/>
     <use x="2249.779297" xlink:href="#DejaVuSans-30"/>
     <use x="2313.402344" xlink:href="#DejaVuSans-20"/>
     <use x="2345.189453" xlink:href="#DejaVuSans-6d"/>
     <use x="2442.601562" xlink:href="#DejaVuSans-56"/>
    </g>
   </g>
  </g>
 </g>
 <defs>
  <clipPath id="p9140ef92de">
   <rect height="266.112" width="357.12" x="57.6" y="41.472"/>
  </clipPath>
 </defs>
</svg>
