<?xml version="1.0" encoding="utf-8" standalone="no"?>
<!DOCTYPE svg PUBLIC "-//W3C//DTD SVG 1.1//EN"
  "http://www.w3.org/Graphics/SVG/1.1/DTD/svg11.dtd">
<!-- Created with matplotlib (http://matplotlib.org/) -->
<svg height="345pt" version="1.1" viewBox="0 0 460 345" width="460pt" xmlns="http://www.w3.org/2000/svg" xmlns:xlink="http://www.w3.org/1999/xlink">
 <defs>
  <style type="text/css">
*{stroke-linecap:butt;stroke-linejoin:round;}
  </style>
 </defs>
 <g id="figure_1">
  <g id="patch_1">
   <path d="M 0 345.6 
L 460.8 345.6 
L 460.8 0 
L 0 0 
z
" style="fill:#ffffff;"/>
  </g>
  <g id="axes_1">
   <g id="patch_2">
    <path d="M 57.6 307.584 
L 414.72 307.584 
L 414.72 41.472 
L 57.6 41.472 
z
" style="fill:#ffffff;"/>
   </g>
   <g id="matplotlib.axis_1">
    <g id="xtick_1">
     <g id="line2d_1">
      <defs>
       <path d="M 0 0 
L 0 3.5 
" id="mbeda1f97ab" style="stroke:#000000;stroke-width:0.8;"/>
      </defs>
      <g>
       <use style="stroke:#000000;stroke-width:0.8;" x="73.832727" xlink:href="#mbeda1f97ab" y="307.584"/>
      </g>
     </g>
     <g id="text_1">
      <!-- 0 -->
      <defs>
       <path d="M 31.78125 66.40625 
Q 24.171875 66.40625 20.328125 58.90625 
Q 16.5 51.421875 16.5 36.375 
Q 16.5 21.390625 20.328125 13.890625 
Q 24.171875 6.390625 31.78125 6.390625 
Q 39.453125 6.390625 43.28125 13.890625 
Q 47.125 21.390625 47.125 36.375 
Q 47.125 51.421875 43.28125 58.90625 
Q 39.453125 66.40625 31.78125 66.40625 
z
M 31.78125 74.21875 
Q 44.046875 74.21875 50.515625 64.515625 
Q 56.984375 54.828125 56.984375 36.375 
Q 56.984375 17.96875 50.515625 8.265625 
Q 44.046875 -1.421875 31.78125 -1.421875 
Q 19.53125 -1.421875 13.0625 8.265625 
Q 6.59375 17.96875 6.59375 36.375 
Q 6.59375 54.828125 13.0625 64.515625 
Q 19.53125 74.21875 31.78125 74.21875 
z
" id="DejaVuSans-30"/>
      </defs>
      <g transform="translate(70.651477 322.182437)scale(0.1 -0.1)">
       <use xlink:href="#DejaVuSans-30"/>
      </g>
     </g>
    </g>
    <g id="xtick_2">
     <g id="line2d_2">
      <g>
       <use style="stroke:#000000;stroke-width:0.8;" x="127.901627" xlink:href="#mbeda1f97ab" y="307.584"/>
      </g>
     </g>
     <g id="text_2">
      <!-- 100 -->
      <defs>
       <path d="M 12.40625 8.296875 
L 28.515625 8.296875 
L 28.515625 63.921875 
L 10.984375 60.40625 
L 10.984375 69.390625 
L 28.421875 72.90625 
L 38.28125 72.90625 
L 38.28125 8.296875 
L 54.390625 8.296875 
L 54.390625 0 
L 12.40625 0 
z
" id="DejaVuSans-31"/>
      </defs>
      <g transform="translate(118.357877 322.182437)scale(0.1 -0.1)">
       <use xlink:href="#DejaVuSans-31"/>
       <use x="63.623047" xlink:href="#DejaVuSans-30"/>
       <use x="127.246094" xlink:href="#DejaVuSans-30"/>
      </g>
     </g>
    </g>
    <g id="xtick_3">
     <g id="line2d_3">
      <g>
       <use style="stroke:#000000;stroke-width:0.8;" x="181.970527" xlink:href="#mbeda1f97ab" y="307.584"/>
      </g>
     </g>
     <g id="text_3">
      <!-- 200 -->
      <defs>
       <path d="M 19.1875 8.296875 
L 53.609375 8.296875 
L 53.609375 0 
L 7.328125 0 
L 7.328125 8.296875 
Q 12.9375 14.109375 22.625 23.890625 
Q 32.328125 33.6875 34.8125 36.53125 
Q 39.546875 41.84375 41.421875 45.53125 
Q 43.3125 49.21875 43.3125 52.78125 
Q 43.3125 58.59375 39.234375 62.25 
Q 35.15625 65.921875 28.609375 65.921875 
Q 23.96875 65.921875 18.8125 64.3125 
Q 13.671875 62.703125 7.8125 59.421875 
L 7.8125 69.390625 
Q 13.765625 71.78125 18.9375 73 
Q 24.125 74.21875 28.421875 74.21875 
Q 39.75 74.21875 46.484375 68.546875 
Q 53.21875 62.890625 53.21875 53.421875 
Q 53.21875 48.921875 51.53125 44.890625 
Q 49.859375 40.875 45.40625 35.40625 
Q 44.1875 33.984375 37.640625 27.21875 
Q 31.109375 20.453125 19.1875 8.296875 
z
" id="DejaVuSans-32"/>
      </defs>
      <g transform="translate(172.426777 322.182437)scale(0.1 -0.1)">
       <use xlink:href="#DejaVuSans-32"/>
       <use x="63.623047" xlink:href="#DejaVuSans-30"/>
       <use x="127.246094" xlink:href="#DejaVuSans-30"/>
      </g>
     </g>
    </g>
    <g id="xtick_4">
     <g id="line2d_4">
      <g>
       <use style="stroke:#000000;stroke-width:0.8;" x="236.039426" xlink:href="#mbeda1f97ab" y="307.584"/>
      </g>
     </g>
     <g id="text_4">
      <!-- 300 -->
      <defs>
       <path d="M 40.578125 39.3125 
Q 47.65625 37.796875 51.625 33 
Q 55.609375 28.21875 55.609375 21.1875 
Q 55.609375 10.40625 48.1875 4.484375 
Q 40.765625 -1.421875 27.09375 -1.421875 
Q 22.515625 -1.421875 17.65625 -0.515625 
Q 12.796875 0.390625 7.625 2.203125 
L 7.625 11.71875 
Q 11.71875 9.328125 16.59375 8.109375 
Q 21.484375 6.890625 26.8125 6.890625 
Q 36.078125 6.890625 40.9375 10.546875 
Q 45.796875 14.203125 45.796875 21.1875 
Q 45.796875 27.640625 41.28125 31.265625 
Q 36.765625 34.90625 28.71875 34.90625 
L 20.21875 34.90625 
L 20.21875 43.015625 
L 29.109375 43.015625 
Q 36.375 43.015625 40.234375 45.921875 
Q 44.09375 48.828125 44.09375 54.296875 
Q 44.09375 59.90625 40.109375 62.90625 
Q 36.140625 65.921875 28.71875 65.921875 
Q 24.65625 65.921875 20.015625 65.03125 
Q 15.375 64.15625 9.8125 62.3125 
L 9.8125 71.09375 
Q 15.4375 72.65625 20.34375 73.4375 
Q 25.25 74.21875 29.59375 74.21875 
Q 40.828125 74.21875 47.359375 69.109375 
Q 53.90625 64.015625 53.90625 55.328125 
Q 53.90625 49.265625 50.4375 45.09375 
Q 46.96875 40.921875 40.578125 39.3125 
z
" id="DejaVuSans-33"/>
      </defs>
      <g transform="translate(226.495676 322.182437)scale(0.1 -0.1)">
       <use xlink:href="#DejaVuSans-33"/>
       <use x="63.623047" xlink:href="#DejaVuSans-30"/>
       <use x="127.246094" xlink:href="#DejaVuSans-30"/>
      </g>
     </g>
    </g>
    <g id="xtick_5">
     <g id="line2d_5">
      <g>
       <use style="stroke:#000000;stroke-width:0.8;" x="290.108326" xlink:href="#mbeda1f97ab" y="307.584"/>
      </g>
     </g>
     <g id="text_5">
      <!-- 400 -->
      <defs>
       <path d="M 37.796875 64.3125 
L 12.890625 25.390625 
L 37.796875 25.390625 
z
M 35.203125 72.90625 
L 47.609375 72.90625 
L 47.609375 25.390625 
L 58.015625 25.390625 
L 58.015625 17.1875 
L 47.609375 17.1875 
L 47.609375 0 
L 37.796875 0 
L 37.796875 17.1875 
L 4.890625 17.1875 
L 4.890625 26.703125 
z
" id="DejaVuSans-34"/>
      </defs>
      <g transform="translate(280.564576 322.182437)scale(0.1 -0.1)">
       <use xlink:href="#DejaVuSans-34"/>
       <use x="63.623047" xlink:href="#DejaVuSans-30"/>
       <use x="127.246094" xlink:href="#DejaVuSans-30"/>
      </g>
     </g>
    </g>
    <g id="xtick_6">
     <g id="line2d_6">
      <g>
       <use style="stroke:#000000;stroke-width:0.8;" x="344.177226" xlink:href="#mbeda1f97ab" y="307.584"/>
      </g>
     </g>
     <g id="text_6">
      <!-- 500 -->
      <defs>
       <path d="M 10.796875 72.90625 
L 49.515625 72.90625 
L 49.515625 64.59375 
L 19.828125 64.59375 
L 19.828125 46.734375 
Q 21.96875 47.46875 24.109375 47.828125 
Q 26.265625 48.1875 28.421875 48.1875 
Q 40.625 48.1875 47.75 41.5 
Q 54.890625 34.8125 54.890625 23.390625 
Q 54.890625 11.625 47.5625 5.09375 
Q 40.234375 -1.421875 26.90625 -1.421875 
Q 22.3125 -1.421875 17.546875 -0.640625 
Q 12.796875 0.140625 7.71875 1.703125 
L 7.71875 11.625 
Q 12.109375 9.234375 16.796875 8.0625 
Q 21.484375 6.890625 26.703125 6.890625 
Q 35.15625 6.890625 40.078125 11.328125 
Q 45.015625 15.765625 45.015625 23.390625 
Q 45.015625 31 40.078125 35.4375 
Q 35.15625 39.890625 26.703125 39.890625 
Q 22.75 39.890625 18.8125 39.015625 
Q 14.890625 38.140625 10.796875 36.28125 
z
" id="DejaVuSans-35"/>
      </defs>
      <g transform="translate(334.633476 322.182437)scale(0.1 -0.1)">
       <use xlink:href="#DejaVuSans-35"/>
       <use x="63.623047" xlink:href="#DejaVuSans-30"/>
       <use x="127.246094" xlink:href="#DejaVuSans-30"/>
      </g>
     </g>
    </g>
    <g id="xtick_7">
     <g id="line2d_7">
      <g>
       <use style="stroke:#000000;stroke-width:0.8;" x="398.246126" xlink:href="#mbeda1f97ab" y="307.584"/>
      </g>
     </g>
     <g id="text_7">
      <!-- 600 -->
      <defs>
       <path d="M 33.015625 40.375 
Q 26.375 40.375 22.484375 35.828125 
Q 18.609375 31.296875 18.609375 23.390625 
Q 18.609375 15.53125 22.484375 10.953125 
Q 26.375 6.390625 33.015625 6.390625 
Q 39.65625 6.390625 43.53125 10.953125 
Q 47.40625 15.53125 47.40625 23.390625 
Q 47.40625 31.296875 43.53125 35.828125 
Q 39.65625 40.375 33.015625 40.375 
z
M 52.59375 71.296875 
L 52.59375 62.3125 
Q 48.875 64.0625 45.09375 64.984375 
Q 41.3125 65.921875 37.59375 65.921875 
Q 27.828125 65.921875 22.671875 59.328125 
Q 17.53125 52.734375 16.796875 39.40625 
Q 19.671875 43.65625 24.015625 45.921875 
Q 28.375 48.1875 33.59375 48.1875 
Q 44.578125 48.1875 50.953125 41.515625 
Q 57.328125 34.859375 57.328125 23.390625 
Q 57.328125 12.15625 50.6875 5.359375 
Q 44.046875 -1.421875 33.015625 -1.421875 
Q 20.359375 -1.421875 13.671875 8.265625 
Q 6.984375 17.96875 6.984375 36.375 
Q 6.984375 53.65625 15.1875 63.9375 
Q 23.390625 74.21875 37.203125 74.21875 
Q 40.921875 74.21875 44.703125 73.484375 
Q 48.484375 72.75 52.59375 71.296875 
z
" id="DejaVuSans-36"/>
      </defs>
      <g transform="translate(388.702376 322.182437)scale(0.1 -0.1)">
       <use xlink:href="#DejaVuSans-36"/>
       <use x="63.623047" xlink:href="#DejaVuSans-30"/>
       <use x="127.246094" xlink:href="#DejaVuSans-30"/>
      </g>
     </g>
    </g>
    <g id="text_8">
     <!-- t(s) -->
     <defs>
      <path d="M 18.3125 70.21875 
L 18.3125 54.6875 
L 36.8125 54.6875 
L 36.8125 47.703125 
L 18.3125 47.703125 
L 18.3125 18.015625 
Q 18.3125 11.328125 20.140625 9.421875 
Q 21.96875 7.515625 27.59375 7.515625 
L 36.8125 7.515625 
L 36.8125 0 
L 27.59375 0 
Q 17.1875 0 13.234375 3.875 
Q 9.28125 7.765625 9.28125 18.015625 
L 9.28125 47.703125 
L 2.6875 47.703125 
L 2.6875 54.6875 
L 9.28125 54.6875 
L 9.28125 70.21875 
z
" id="DejaVuSans-74"/>
      <path d="M 31 75.875 
Q 24.46875 64.65625 21.28125 53.65625 
Q 18.109375 42.671875 18.109375 31.390625 
Q 18.109375 20.125 21.3125 9.0625 
Q 24.515625 -2 31 -13.1875 
L 23.1875 -13.1875 
Q 15.875 -1.703125 12.234375 9.375 
Q 8.59375 20.453125 8.59375 31.390625 
Q 8.59375 42.28125 12.203125 53.3125 
Q 15.828125 64.359375 23.1875 75.875 
z
" id="DejaVuSans-28"/>
      <path d="M 44.28125 53.078125 
L 44.28125 44.578125 
Q 40.484375 46.53125 36.375 47.5 
Q 32.28125 48.484375 27.875 48.484375 
Q 21.1875 48.484375 17.84375 46.4375 
Q 14.5 44.390625 14.5 40.28125 
Q 14.5 37.15625 16.890625 35.375 
Q 19.28125 33.59375 26.515625 31.984375 
L 29.59375 31.296875 
Q 39.15625 29.25 43.1875 25.515625 
Q 47.21875 21.78125 47.21875 15.09375 
Q 47.21875 7.46875 41.1875 3.015625 
Q 35.15625 -1.421875 24.609375 -1.421875 
Q 20.21875 -1.421875 15.453125 -0.5625 
Q 10.6875 0.296875 5.421875 2 
L 5.421875 11.28125 
Q 10.40625 8.6875 15.234375 7.390625 
Q 20.0625 6.109375 24.8125 6.109375 
Q 31.15625 6.109375 34.5625 8.28125 
Q 37.984375 10.453125 37.984375 14.40625 
Q 37.984375 18.0625 35.515625 20.015625 
Q 33.0625 21.96875 24.703125 23.78125 
L 21.578125 24.515625 
Q 13.234375 26.265625 9.515625 29.90625 
Q 5.8125 33.546875 5.8125 39.890625 
Q 5.8125 47.609375 11.28125 51.796875 
Q 16.75 56 26.8125 56 
Q 31.78125 56 36.171875 55.265625 
Q 40.578125 54.546875 44.28125 53.078125 
z
" id="DejaVuSans-73"/>
      <path d="M 8.015625 75.875 
L 15.828125 75.875 
Q 23.140625 64.359375 26.78125 53.3125 
Q 30.421875 42.28125 30.421875 31.390625 
Q 30.421875 20.453125 26.78125 9.375 
Q 23.140625 -1.703125 15.828125 -13.1875 
L 8.015625 -13.1875 
Q 14.5 -2 17.703125 9.0625 
Q 20.90625 20.125 20.90625 31.390625 
Q 20.90625 42.671875 17.703125 53.65625 
Q 14.5 64.65625 8.015625 75.875 
z
" id="DejaVuSans-29"/>
     </defs>
     <g transform="translate(227.693594 335.860562)scale(0.1 -0.1)">
      <use xlink:href="#DejaVuSans-74"/>
      <use x="39.208984" xlink:href="#DejaVuSans-28"/>
      <use x="78.222656" xlink:href="#DejaVuSans-73"/>
      <use x="130.322266" xlink:href="#DejaVuSans-29"/>
     </g>
    </g>
   </g>
   <g id="matplotlib.axis_2">
    <g id="ytick_1">
     <g id="line2d_8">
      <defs>
       <path d="M 0 0 
L -3.5 0 
" id="m8a948cd547" style="stroke:#000000;stroke-width:0.8;"/>
      </defs>
      <g>
       <use style="stroke:#000000;stroke-width:0.8;" x="57.6" xlink:href="#m8a948cd547" y="295.488"/>
      </g>
     </g>
     <g id="text_9">
      <!-- 0.000 -->
      <defs>
       <path d="M 10.6875 12.40625 
L 21 12.40625 
L 21 0 
L 10.6875 0 
z
" id="DejaVuSans-2e"/>
      </defs>
      <g transform="translate(21.971875 299.287219)scale(0.1 -0.1)">
       <use xlink:href="#DejaVuSans-30"/>
       <use x="63.623047" xlink:href="#DejaVuSans-2e"/>
       <use x="95.410156" xlink:href="#DejaVuSans-30"/>
       <use x="159.033203" xlink:href="#DejaVuSans-30"/>
       <use x="222.65625" xlink:href="#DejaVuSans-30"/>
      </g>
     </g>
    </g>
    <g id="ytick_2">
     <g id="line2d_9">
      <g>
       <use style="stroke:#000000;stroke-width:0.8;" x="57.6" xlink:href="#m8a948cd547" y="265.248"/>
      </g>
     </g>
     <g id="text_10">
      <!-- 0.001 -->
      <g transform="translate(21.971875 269.047219)scale(0.1 -0.1)">
       <use xlink:href="#DejaVuSans-30"/>
       <use x="63.623047" xlink:href="#DejaVuSans-2e"/>
       <use x="95.410156" xlink:href="#DejaVuSans-30"/>
       <use x="159.033203" xlink:href="#DejaVuSans-30"/>
       <use x="222.65625" xlink:href="#DejaVuSans-31"/>
      </g>
     </g>
    </g>
    <g id="ytick_3">
     <g id="line2d_10">
      <g>
       <use style="stroke:#000000;stroke-width:0.8;" x="57.6" xlink:href="#m8a948cd547" y="235.008"/>
      </g>
     </g>
     <g id="text_11">
      <!-- 0.002 -->
      <g transform="translate(21.971875 238.807219)scale(0.1 -0.1)">
       <use xlink:href="#DejaVuSans-30"/>
       <use x="63.623047" xlink:href="#DejaVuSans-2e"/>
       <use x="95.410156" xlink:href="#DejaVuSans-30"/>
       <use x="159.033203" xlink:href="#DejaVuSans-30"/>
       <use x="222.65625" xlink:href="#DejaVuSans-32"/>
      </g>
     </g>
    </g>
    <g id="ytick_4">
     <g id="line2d_11">
      <g>
       <use style="stroke:#000000;stroke-width:0.8;" x="57.6" xlink:href="#m8a948cd547" y="204.768"/>
      </g>
     </g>
     <g id="text_12">
      <!-- 0.003 -->
      <g transform="translate(21.971875 208.567219)scale(0.1 -0.1)">
       <use xlink:href="#DejaVuSans-30"/>
       <use x="63.623047" xlink:href="#DejaVuSans-2e"/>
       <use x="95.410156" xlink:href="#DejaVuSans-30"/>
       <use x="159.033203" xlink:href="#DejaVuSans-30"/>
       <use x="222.65625" xlink:href="#DejaVuSans-33"/>
      </g>
     </g>
    </g>
    <g id="ytick_5">
     <g id="line2d_12">
      <g>
       <use style="stroke:#000000;stroke-width:0.8;" x="57.6" xlink:href="#m8a948cd547" y="174.528"/>
      </g>
     </g>
     <g id="text_13">
      <!-- 0.004 -->
      <g transform="translate(21.971875 178.327219)scale(0.1 -0.1)">
       <use xlink:href="#DejaVuSans-30"/>
       <use x="63.623047" xlink:href="#DejaVuSans-2e"/>
       <use x="95.410156" xlink:href="#DejaVuSans-30"/>
       <use x="159.033203" xlink:href="#DejaVuSans-30"/>
       <use x="222.65625" xlink:href="#DejaVuSans-34"/>
      </g>
     </g>
    </g>
    <g id="ytick_6">
     <g id="line2d_13">
      <g>
       <use style="stroke:#000000;stroke-width:0.8;" x="57.6" xlink:href="#m8a948cd547" y="144.288"/>
      </g>
     </g>
     <g id="text_14">
      <!-- 0.005 -->
      <g transform="translate(21.971875 148.087219)scale(0.1 -0.1)">
       <use xlink:href="#DejaVuSans-30"/>
       <use x="63.623047" xlink:href="#DejaVuSans-2e"/>
       <use x="95.410156" xlink:href="#DejaVuSans-30"/>
       <use x="159.033203" xlink:href="#DejaVuSans-30"/>
       <use x="222.65625" xlink:href="#DejaVuSans-35"/>
      </g>
     </g>
    </g>
    <g id="ytick_7">
     <g id="line2d_14">
      <g>
       <use style="stroke:#000000;stroke-width:0.8;" x="57.6" xlink:href="#m8a948cd547" y="114.048"/>
      </g>
     </g>
     <g id="text_15">
      <!-- 0.006 -->
      <g transform="translate(21.971875 117.847219)scale(0.1 -0.1)">
       <use xlink:href="#DejaVuSans-30"/>
       <use x="63.623047" xlink:href="#DejaVuSans-2e"/>
       <use x="95.410156" xlink:href="#DejaVuSans-30"/>
       <use x="159.033203" xlink:href="#DejaVuSans-30"/>
       <use x="222.65625" xlink:href="#DejaVuSans-36"/>
      </g>
     </g>
    </g>
    <g id="ytick_8">
     <g id="line2d_15">
      <g>
       <use style="stroke:#000000;stroke-width:0.8;" x="57.6" xlink:href="#m8a948cd547" y="83.808"/>
      </g>
     </g>
     <g id="text_16">
      <!-- 0.007 -->
      <defs>
       <path d="M 8.203125 72.90625 
L 55.078125 72.90625 
L 55.078125 68.703125 
L 28.609375 0 
L 18.3125 0 
L 43.21875 64.59375 
L 8.203125 64.59375 
z
" id="DejaVuSans-37"/>
      </defs>
      <g transform="translate(21.971875 87.607219)scale(0.1 -0.1)">
       <use xlink:href="#DejaVuSans-30"/>
       <use x="63.623047" xlink:href="#DejaVuSans-2e"/>
       <use x="95.410156" xlink:href="#DejaVuSans-30"/>
       <use x="159.033203" xlink:href="#DejaVuSans-30"/>
       <use x="222.65625" xlink:href="#DejaVuSans-37"/>
      </g>
     </g>
    </g>
    <g id="ytick_9">
     <g id="line2d_16">
      <g>
       <use style="stroke:#000000;stroke-width:0.8;" x="57.6" xlink:href="#m8a948cd547" y="53.568"/>
      </g>
     </g>
     <g id="text_17">
      <!-- 0.008 -->
      <defs>
       <path d="M 31.78125 34.625 
Q 24.75 34.625 20.71875 30.859375 
Q 16.703125 27.09375 16.703125 20.515625 
Q 16.703125 13.921875 20.71875 10.15625 
Q 24.75 6.390625 31.78125 6.390625 
Q 38.8125 6.390625 42.859375 10.171875 
Q 46.921875 13.96875 46.921875 20.515625 
Q 46.921875 27.09375 42.890625 30.859375 
Q 38.875 34.625 31.78125 34.625 
z
M 21.921875 38.8125 
Q 15.578125 40.375 12.03125 44.71875 
Q 8.5 49.078125 8.5 55.328125 
Q 8.5 64.0625 14.71875 69.140625 
Q 20.953125 74.21875 31.78125 74.21875 
Q 42.671875 74.21875 48.875 69.140625 
Q 55.078125 64.0625 55.078125 55.328125 
Q 55.078125 49.078125 51.53125 44.71875 
Q 48 40.375 41.703125 38.8125 
Q 48.828125 37.15625 52.796875 32.3125 
Q 56.78125 27.484375 56.78125 20.515625 
Q 56.78125 9.90625 50.3125 4.234375 
Q 43.84375 -1.421875 31.78125 -1.421875 
Q 19.734375 -1.421875 13.25 4.234375 
Q 6.78125 9.90625 6.78125 20.515625 
Q 6.78125 27.484375 10.78125 32.3125 
Q 14.796875 37.15625 21.921875 38.8125 
z
M 18.3125 54.390625 
Q 18.3125 48.734375 21.84375 45.5625 
Q 25.390625 42.390625 31.78125 42.390625 
Q 38.140625 42.390625 41.71875 45.5625 
Q 45.3125 48.734375 45.3125 54.390625 
Q 45.3125 60.0625 41.71875 63.234375 
Q 38.140625 66.40625 31.78125 66.40625 
Q 25.390625 66.40625 21.84375 63.234375 
Q 18.3125 60.0625 18.3125 54.390625 
z
" id="DejaVuSans-38"/>
      </defs>
      <g transform="translate(21.971875 57.367219)scale(0.1 -0.1)">
       <use xlink:href="#DejaVuSans-30"/>
       <use x="63.623047" xlink:href="#DejaVuSans-2e"/>
       <use x="95.410156" xlink:href="#DejaVuSans-30"/>
       <use x="159.033203" xlink:href="#DejaVuSans-30"/>
       <use x="222.65625" xlink:href="#DejaVuSans-38"/>
      </g>
     </g>
    </g>
    <g id="text_18">
     <!-- Temperature (*C) -->
     <defs>
      <path d="M -0.296875 72.90625 
L 61.375 72.90625 
L 61.375 64.59375 
L 35.5 64.59375 
L 35.5 0 
L 25.59375 0 
L 25.59375 64.59375 
L -0.296875 64.59375 
z
" id="DejaVuSans-54"/>
      <path d="M 56.203125 29.59375 
L 56.203125 25.203125 
L 14.890625 25.203125 
Q 15.484375 15.921875 20.484375 11.0625 
Q 25.484375 6.203125 34.421875 6.203125 
Q 39.59375 6.203125 44.453125 7.46875 
Q 49.3125 8.734375 54.109375 11.28125 
L 54.109375 2.78125 
Q 49.265625 0.734375 44.1875 -0.34375 
Q 39.109375 -1.421875 33.890625 -1.421875 
Q 20.796875 -1.421875 13.15625 6.1875 
Q 5.515625 13.8125 5.515625 26.8125 
Q 5.515625 40.234375 12.765625 48.109375 
Q 20.015625 56 32.328125 56 
Q 43.359375 56 49.78125 48.890625 
Q 56.203125 41.796875 56.203125 29.59375 
z
M 47.21875 32.234375 
Q 47.125 39.59375 43.09375 43.984375 
Q 39.0625 48.390625 32.421875 48.390625 
Q 24.90625 48.390625 20.390625 44.140625 
Q 15.875 39.890625 15.1875 32.171875 
z
" id="DejaVuSans-65"/>
      <path d="M 52 44.1875 
Q 55.375 50.25 60.0625 53.125 
Q 64.75 56 71.09375 56 
Q 79.640625 56 84.28125 50.015625 
Q 88.921875 44.046875 88.921875 33.015625 
L 88.921875 0 
L 79.890625 0 
L 79.890625 32.71875 
Q 79.890625 40.578125 77.09375 44.375 
Q 74.3125 48.1875 68.609375 48.1875 
Q 61.625 48.1875 57.5625 43.546875 
Q 53.515625 38.921875 53.515625 30.90625 
L 53.515625 0 
L 44.484375 0 
L 44.484375 32.71875 
Q 44.484375 40.625 41.703125 44.40625 
Q 38.921875 48.1875 33.109375 48.1875 
Q 26.21875 48.1875 22.15625 43.53125 
Q 18.109375 38.875 18.109375 30.90625 
L 18.109375 0 
L 9.078125 0 
L 9.078125 54.6875 
L 18.109375 54.6875 
L 18.109375 46.1875 
Q 21.1875 51.21875 25.484375 53.609375 
Q 29.78125 56 35.6875 56 
Q 41.65625 56 45.828125 52.96875 
Q 50 49.953125 52 44.1875 
z
" id="DejaVuSans-6d"/>
      <path d="M 18.109375 8.203125 
L 18.109375 -20.796875 
L 9.078125 -20.796875 
L 9.078125 54.6875 
L 18.109375 54.6875 
L 18.109375 46.390625 
Q 20.953125 51.265625 25.265625 53.625 
Q 29.59375 56 35.59375 56 
Q 45.5625 56 51.78125 48.09375 
Q 58.015625 40.1875 58.015625 27.296875 
Q 58.015625 14.40625 51.78125 6.484375 
Q 45.5625 -1.421875 35.59375 -1.421875 
Q 29.59375 -1.421875 25.265625 0.953125 
Q 20.953125 3.328125 18.109375 8.203125 
z
M 48.6875 27.296875 
Q 48.6875 37.203125 44.609375 42.84375 
Q 40.53125 48.484375 33.40625 48.484375 
Q 26.265625 48.484375 22.1875 42.84375 
Q 18.109375 37.203125 18.109375 27.296875 
Q 18.109375 17.390625 22.1875 11.75 
Q 26.265625 6.109375 33.40625 6.109375 
Q 40.53125 6.109375 44.609375 11.75 
Q 48.6875 17.390625 48.6875 27.296875 
z
" id="DejaVuSans-70"/>
      <path d="M 41.109375 46.296875 
Q 39.59375 47.171875 37.8125 47.578125 
Q 36.03125 48 33.890625 48 
Q 26.265625 48 22.1875 43.046875 
Q 18.109375 38.09375 18.109375 28.8125 
L 18.109375 0 
L 9.078125 0 
L 9.078125 54.6875 
L 18.109375 54.6875 
L 18.109375 46.1875 
Q 20.953125 51.171875 25.484375 53.578125 
Q 30.03125 56 36.53125 56 
Q 37.453125 56 38.578125 55.875 
Q 39.703125 55.765625 41.0625 55.515625 
z
" id="DejaVuSans-72"/>
      <path d="M 34.28125 27.484375 
Q 23.390625 27.484375 19.1875 25 
Q 14.984375 22.515625 14.984375 16.5 
Q 14.984375 11.71875 18.140625 8.90625 
Q 21.296875 6.109375 26.703125 6.109375 
Q 34.1875 6.109375 38.703125 11.40625 
Q 43.21875 16.703125 43.21875 25.484375 
L 43.21875 27.484375 
z
M 52.203125 31.203125 
L 52.203125 0 
L 43.21875 0 
L 43.21875 8.296875 
Q 40.140625 3.328125 35.546875 0.953125 
Q 30.953125 -1.421875 24.3125 -1.421875 
Q 15.921875 -1.421875 10.953125 3.296875 
Q 6 8.015625 6 15.921875 
Q 6 25.140625 12.171875 29.828125 
Q 18.359375 34.515625 30.609375 34.515625 
L 43.21875 34.515625 
L 43.21875 35.40625 
Q 43.21875 41.609375 39.140625 45 
Q 35.0625 48.390625 27.6875 48.390625 
Q 23 48.390625 18.546875 47.265625 
Q 14.109375 46.140625 10.015625 43.890625 
L 10.015625 52.203125 
Q 14.9375 54.109375 19.578125 55.046875 
Q 24.21875 56 28.609375 56 
Q 40.484375 56 46.34375 49.84375 
Q 52.203125 43.703125 52.203125 31.203125 
z
" id="DejaVuSans-61"/>
      <path d="M 8.5 21.578125 
L 8.5 54.6875 
L 17.484375 54.6875 
L 17.484375 21.921875 
Q 17.484375 14.15625 20.5 10.265625 
Q 23.53125 6.390625 29.59375 6.390625 
Q 36.859375 6.390625 41.078125 11.03125 
Q 45.3125 15.671875 45.3125 23.6875 
L 45.3125 54.6875 
L 54.296875 54.6875 
L 54.296875 0 
L 45.3125 0 
L 45.3125 8.40625 
Q 42.046875 3.421875 37.71875 1 
Q 33.40625 -1.421875 27.6875 -1.421875 
Q 18.265625 -1.421875 13.375 4.4375 
Q 8.5 10.296875 8.5 21.578125 
z
M 31.109375 56 
z
" id="DejaVuSans-75"/>
      <path id="DejaVuSans-20"/>
      <path d="M 47.015625 60.890625 
L 29.5 51.421875 
L 47.015625 41.890625 
L 44.1875 37.109375 
L 27.78125 47.015625 
L 27.78125 28.609375 
L 22.21875 28.609375 
L 22.21875 47.015625 
L 5.8125 37.109375 
L 2.984375 41.890625 
L 20.515625 51.421875 
L 2.984375 60.890625 
L 5.8125 65.71875 
L 22.21875 55.8125 
L 22.21875 74.21875 
L 27.78125 74.21875 
L 27.78125 55.8125 
L 44.1875 65.71875 
z
" id="DejaVuSans-2a"/>
      <path d="M 64.40625 67.28125 
L 64.40625 56.890625 
Q 59.421875 61.53125 53.78125 63.8125 
Q 48.140625 66.109375 41.796875 66.109375 
Q 29.296875 66.109375 22.65625 58.46875 
Q 16.015625 50.828125 16.015625 36.375 
Q 16.015625 21.96875 22.65625 14.328125 
Q 29.296875 6.6875 41.796875 6.6875 
Q 48.140625 6.6875 53.78125 8.984375 
Q 59.421875 11.28125 64.40625 15.921875 
L 64.40625 5.609375 
Q 59.234375 2.09375 53.4375 0.328125 
Q 47.65625 -1.421875 41.21875 -1.421875 
Q 24.65625 -1.421875 15.125 8.703125 
Q 5.609375 18.84375 5.609375 36.375 
Q 5.609375 53.953125 15.125 64.078125 
Q 24.65625 74.21875 41.21875 74.21875 
Q 47.75 74.21875 53.53125 72.484375 
Q 59.328125 70.75 64.40625 67.28125 
z
" id="DejaVuSans-43"/>
     </defs>
     <g transform="translate(15.892187 218.627219)rotate(-90)scale(0.1 -0.1)">
      <use xlink:href="#DejaVuSans-54"/>
      <use x="60.818359" xlink:href="#DejaVuSans-65"/>
      <use x="122.341797" xlink:href="#DejaVuSans-6d"/>
      <use x="219.753906" xlink:href="#DejaVuSans-70"/>
      <use x="283.230469" xlink:href="#DejaVuSans-65"/>
      <use x="344.753906" xlink:href="#DejaVuSans-72"/>
      <use x="385.867188" xlink:href="#DejaVuSans-61"/>
      <use x="447.146484" xlink:href="#DejaVuSans-74"/>
      <use x="486.355469" xlink:href="#DejaVuSans-75"/>
      <use x="549.734375" xlink:href="#DejaVuSans-72"/>
      <use x="590.816406" xlink:href="#DejaVuSans-65"/>
      <use x="652.339844" xlink:href="#DejaVuSans-20"/>
      <use x="684.126953" xlink:href="#DejaVuSans-28"/>
      <use x="723.140625" xlink:href="#DejaVuSans-2a"/>
      <use x="773.140625" xlink:href="#DejaVuSans-43"/>
      <use x="842.964844" xlink:href="#DejaVuSans-29"/>
     </g>
    </g>
    <g id="text_19">
     <!-- +2.5e1 -->
     <defs>
      <path d="M 46 62.703125 
L 46 35.5 
L 73.1875 35.5 
L 73.1875 27.203125 
L 46 27.203125 
L 46 0 
L 37.796875 0 
L 37.796875 27.203125 
L 10.59375 27.203125 
L 10.59375 35.5 
L 37.796875 35.5 
L 37.796875 62.703125 
z
" id="DejaVuSans-2b"/>
     </defs>
     <g transform="translate(57.6 38.472)scale(0.1 -0.1)">
      <use xlink:href="#DejaVuSans-2b"/>
      <use x="83.789062" xlink:href="#DejaVuSans-32"/>
      <use x="147.412109" xlink:href="#DejaVuSans-2e"/>
      <use x="179.199219" xlink:href="#DejaVuSans-35"/>
      <use x="242.822266" xlink:href="#DejaVuSans-65"/>
      <use x="304.345703" xlink:href="#DejaVuSans-31"/>
     </g>
    </g>
   </g>
   <g id="line2d_17">
    <path clip-path="url(#p6a6ab2ee55)" d="M 73.832727 295.488 
L 398.487273 295.488 
L 398.487273 295.488 
" style="fill:none;stroke:#1f77b4;stroke-linecap:square;stroke-width:1.5;"/>
   </g>
   <g id="line2d_18">
    <path clip-path="url(#p6a6ab2ee55)" d="M 73.832727 174.528 
L 74.161466 204.768 
L 74.489664 144.288 
L 74.818403 204.768 
L 75.146601 114.048 
L 75.4748 144.288 
L 75.802998 114.048 
L 76.131196 235.008 
L 76.787593 174.528 
L 77.120116 114.048 
L 77.448855 144.288 
L 78.761648 144.288 
L 79.089846 114.048 
L 79.418045 144.288 
L 79.746784 204.768 
L 80.074982 204.768 
L 80.403721 83.808 
L 80.731919 114.048 
L 81.060117 83.808 
L 81.388315 144.288 
L 81.720298 83.808 
L 82.048497 83.808 
L 82.376695 144.288 
L 82.704893 144.288 
L 83.033091 204.768 
L 83.36183 144.288 
L 83.690028 114.048 
L 84.018227 144.288 
L 84.346425 204.768 
L 84.675164 114.048 
L 85.003362 144.288 
L 85.33156 114.048 
L 85.659758 174.528 
L 85.987957 144.288 
L 86.31994 204.768 
L 86.648678 204.768 
L 86.976877 235.008 
L 87.305616 114.048 
L 87.962553 174.528 
L 88.29021 144.288 
L 88.618409 144.288 
L 88.946607 174.528 
L 89.274805 174.528 
L 89.603544 204.768 
L 90.25994 204.768 
L 90.920662 144.288 
L 91.577059 144.288 
L 92.233455 204.768 
L 92.561653 144.288 
L 92.889852 114.048 
L 93.21805 174.528 
L 93.546248 114.048 
L 93.874446 204.768 
L 94.203185 114.048 
L 95.18778 204.768 
L 95.519763 174.528 
L 95.847961 114.048 
L 96.504898 174.528 
L 96.833096 114.048 
L 97.161295 204.768 
L 97.490034 114.048 
L 97.818773 174.528 
L 98.146971 204.768 
L 98.47571 174.528 
L 98.803908 83.808 
L 99.132647 53.568 
L 99.460845 204.768 
L 99.792828 204.768 
L 100.121567 144.288 
L 100.449765 144.288 
L 100.777423 114.048 
L 101.106162 144.288 
L 101.43436 144.288 
L 101.762558 174.528 
L 103.075892 174.528 
L 103.40409 114.048 
L 104.39301 204.768 
L 104.721208 174.528 
L 105.049406 204.768 
L 105.706884 204.768 
L 106.035082 144.288 
L 106.363281 204.768 
L 106.691479 204.768 
L 107.019677 114.048 
L 107.347875 204.768 
L 107.676074 204.768 
L 108.004272 83.808 
L 108.33247 114.048 
L 108.661209 114.048 
L 108.993192 144.288 
L 109.32139 204.768 
L 109.978327 204.768 
L 110.306526 114.048 
L 110.635265 144.288 
L 110.963463 144.288 
L 111.291661 174.528 
L 111.619859 114.048 
L 111.948598 144.288 
L 112.276796 144.288 
L 112.605535 265.248 
L 112.933733 174.528 
L 113.594455 235.008 
L 113.922654 204.768 
L 114.250852 114.048 
L 114.57905 144.288 
L 114.907248 114.048 
L 115.235446 174.528 
L 115.563645 114.048 
L 115.891843 144.288 
L 116.220041 204.768 
L 116.548239 174.528 
L 116.876438 83.808 
L 117.204636 174.528 
L 117.533375 114.048 
L 117.865898 204.768 
L 118.194097 174.528 
L 119.179773 174.528 
L 119.507971 144.288 
L 119.83671 144.288 
L 120.164908 204.768 
L 120.493106 204.768 
L 120.821845 144.288 
L 121.150584 204.768 
L 121.479323 114.048 
L 122.140586 114.048 
L 122.468784 144.288 
L 123.12518 144.288 
L 123.453379 83.808 
L 123.782118 144.288 
L 124.110316 144.288 
L 124.438514 204.768 
L 124.766712 114.048 
L 125.09491 235.008 
L 125.423109 144.288 
L 125.751307 235.008 
L 126.079505 114.048 
L 126.407703 144.288 
L 126.739686 114.048 
L 127.067885 204.768 
L 127.396083 114.048 
L 127.724281 144.288 
L 128.052479 204.768 
L 128.381218 174.528 
L 128.709416 174.528 
L 129.038155 144.288 
L 129.366353 174.528 
L 129.694552 144.288 
L 130.02275 174.528 
L 130.351489 114.048 
L 130.679687 144.288 
L 131.01167 114.048 
L 131.340409 114.048 
L 131.668607 144.288 
L 131.997346 144.288 
L 132.325544 114.048 
L 132.654283 144.288 
L 132.983022 204.768 
L 133.31122 204.768 
L 133.639419 174.528 
L 133.967617 204.768 
L 134.295815 144.288 
L 134.952211 144.288 
L 135.285276 204.768 
L 135.941672 144.288 
L 136.269871 144.288 
L 136.598069 204.768 
L 136.926267 174.528 
L 137.255006 174.528 
L 137.583204 114.048 
L 137.911943 144.288 
L 138.240682 83.808 
L 138.56888 174.528 
L 138.897078 114.048 
L 139.225277 204.768 
L 139.554015 204.768 
L 139.885999 174.528 
L 140.214197 204.768 
L 140.542395 144.288 
L 140.871134 204.768 
L 141.199873 174.528 
L 141.528071 114.048 
L 141.856269 83.808 
L 142.184468 83.808 
L 142.512666 114.048 
L 142.841405 114.048 
L 143.169603 144.288 
L 143.498342 144.288 
L 143.827081 174.528 
L 144.159064 144.288 
L 144.487262 144.288 
L 144.81546 204.768 
L 145.143658 174.528 
L 145.471857 204.768 
L 145.800055 144.288 
L 146.456992 204.768 
L 146.78519 144.288 
L 147.113388 114.048 
L 147.441587 174.528 
L 148.097983 174.528 
L 148.426181 83.808 
L 148.754379 174.528 
L 149.414561 174.528 
L 149.742759 144.288 
L 150.070957 204.768 
L 150.399155 204.768 
L 150.727354 114.048 
L 151.055552 204.768 
L 151.38375 114.048 
L 151.711948 174.528 
L 152.040147 144.288 
L 152.368886 144.288 
L 152.697624 204.768 
L 153.686545 114.048 
L 154.014743 144.288 
L 154.671139 144.288 
L 154.999878 114.048 
L 155.328617 204.768 
L 155.656815 114.048 
L 155.985554 144.288 
L 156.314293 144.288 
L 156.642491 174.528 
L 156.970689 114.048 
L 157.298888 144.288 
L 157.627086 204.768 
L 157.959069 114.048 
L 158.287808 114.048 
L 158.616006 83.808 
L 158.944204 204.768 
L 159.272403 204.768 
L 159.600601 114.048 
L 159.928799 204.768 
L 160.585195 144.288 
L 160.913394 83.808 
L 161.241592 174.528 
L 161.56979 144.288 
L 161.897988 144.288 
L 162.554385 204.768 
L 162.886368 174.528 
L 163.215107 204.768 
L 163.543305 144.288 
L 163.871503 144.288 
L 164.200242 114.048 
L 164.528981 204.768 
L 165.514116 204.768 
L 165.842855 174.528 
L 166.171053 83.808 
L 166.499252 114.048 
L 166.82745 114.048 
L 167.159433 144.288 
L 167.488172 83.808 
L 167.81637 174.528 
L 168.144568 144.288 
L 168.800965 204.768 
L 169.129163 144.288 
L 170.114298 144.288 
L 170.442497 174.528 
L 170.770695 114.048 
L 171.098893 174.528 
L 171.427091 174.528 
L 171.759074 144.288 
L 172.415471 204.768 
L 172.743669 114.048 
L 173.071867 114.048 
L 173.400065 144.288 
L 173.728264 144.288 
L 174.056462 114.048 
L 174.38466 174.528 
L 174.712858 144.288 
L 175.041057 174.528 
L 175.369795 114.048 
L 176.026192 174.528 
L 176.358716 174.528 
L 176.687455 144.288 
L 177.015653 83.808 
L 177.344392 114.048 
L 177.67259 83.808 
L 178.330068 204.768 
L 178.987545 144.288 
L 179.316284 144.288 
L 179.644483 204.768 
L 179.973222 144.288 
L 180.30142 204.768 
L 180.633403 204.768 
L 181.617997 114.048 
L 181.946736 144.288 
L 182.274935 144.288 
L 182.931331 204.768 
L 183.259529 174.528 
L 183.588268 114.048 
L 184.573403 204.768 
L 184.901602 144.288 
L 185.561783 144.288 
L 185.889981 174.528 
L 186.21872 114.048 
L 186.546918 174.528 
L 186.875117 144.288 
L 187.531513 144.288 
L 187.859711 174.528 
L 188.18845 114.048 
L 188.516648 144.288 
L 188.844847 204.768 
L 189.173586 174.528 
L 189.506109 83.808 
L 189.834848 144.288 
L 190.491785 144.288 
L 191.148722 83.808 
L 191.805119 204.768 
L 192.133317 144.288 
L 192.461515 204.768 
L 192.789714 144.288 
L 193.44611 144.288 
L 193.774849 114.048 
L 194.106832 204.768 
L 194.43503 144.288 
L 194.763228 144.288 
L 195.419625 204.768 
L 196.077103 144.288 
L 196.405301 144.288 
L 196.733499 114.048 
L 197.061697 114.048 
L 197.389895 83.808 
L 197.718094 174.528 
L 198.046292 114.048 
L 198.37449 204.768 
L 199.035212 144.288 
L 199.363951 204.768 
L 199.692149 144.288 
L 200.020347 204.768 
L 200.348546 174.528 
L 200.676744 174.528 
L 201.004942 114.048 
L 201.33314 144.288 
L 201.661879 204.768 
L 201.990078 204.768 
L 202.318816 144.288 
L 202.647555 144.288 
L 203.307736 204.768 
L 203.635935 174.528 
L 203.964674 204.768 
L 204.292872 144.288 
L 204.621611 174.528 
L 204.949809 144.288 
L 205.278007 53.568 
L 205.934944 114.048 
L 206.263143 114.048 
L 206.591341 174.528 
L 206.92008 83.808 
L 207.252603 174.528 
L 207.580802 174.528 
L 207.909 144.288 
L 208.237739 235.008 
L 208.565937 174.528 
L 209.222333 114.048 
L 209.550532 204.768 
L 209.87873 204.768 
L 210.206928 144.288 
L 210.535126 144.288 
L 210.863865 114.048 
L 211.192064 204.768 
L 211.520262 144.288 
L 211.852245 144.288 
L 212.180443 204.768 
L 212.509182 114.048 
L 213.166119 174.528 
L 213.494317 114.048 
L 214.479993 204.768 
L 214.808192 174.528 
L 215.13639 114.048 
L 215.793327 174.528 
L 216.12531 174.528 
L 216.453508 144.288 
L 216.782247 144.288 
L 217.110445 174.528 
L 217.438643 114.048 
L 217.767382 144.288 
L 218.42432 144.288 
L 218.752518 174.528 
L 219.080716 144.288 
L 219.408914 144.288 
L 220.065311 204.768 
L 220.393509 174.528 
L 220.724951 204.768 
L 221.709546 114.048 
L 222.365942 174.528 
L 222.69414 144.288 
L 223.022339 144.288 
L 223.350537 204.768 
L 223.678735 174.528 
L 224.006933 174.528 
L 224.335132 114.048 
L 224.66333 204.768 
L 224.992069 83.808 
L 225.324052 174.528 
L 225.65225 204.768 
L 226.308646 144.288 
L 227.949638 144.288 
L 228.278376 204.768 
L 228.934232 204.768 
L 229.26243 144.288 
L 229.919368 144.288 
L 230.251351 174.528 
L 230.579549 114.048 
L 230.907747 204.768 
L 231.235945 144.288 
L 231.564143 114.048 
L 231.892342 174.528 
L 232.221081 144.288 
L 232.549279 204.768 
L 232.877477 114.048 
L 233.534414 174.528 
L 233.863153 174.528 
L 234.191351 144.288 
L 234.51955 144.288 
L 234.851533 204.768 
L 235.180271 144.288 
L 235.50847 144.288 
L 235.837209 114.048 
L 236.165948 144.288 
L 236.494146 114.048 
L 236.822885 144.288 
L 237.80802 144.288 
L 238.136218 174.528 
L 238.464957 114.048 
L 238.793155 144.288 
L 239.125138 114.048 
L 239.453337 174.528 
L 239.782076 174.528 
L 240.110274 204.768 
L 240.438472 144.288 
L 240.76667 144.288 
L 241.094868 204.768 
L 241.422526 174.528 
L 242.079463 235.008 
L 242.407661 114.048 
L 242.7364 114.048 
L 243.065139 174.528 
L 244.053519 174.528 
L 244.381717 144.288 
L 244.710456 144.288 
L 245.038654 204.768 
L 245.367393 174.528 
L 245.695591 204.768 
L 246.023789 144.288 
L 246.351988 174.528 
L 246.680186 174.528 
L 247.008384 144.288 
L 247.336582 174.528 
L 247.992979 114.048 
L 248.324962 174.528 
L 248.653701 204.768 
L 248.981899 144.288 
L 249.310638 204.768 
L 249.638836 114.048 
L 249.967034 144.288 
L 250.295773 144.288 
L 250.623971 174.528 
L 250.95217 114.048 
L 251.280368 174.528 
L 251.609107 204.768 
L 251.936764 144.288 
L 252.265503 174.528 
L 252.593701 174.528 
L 252.925684 114.048 
L 253.253883 144.288 
L 253.91082 144.288 
L 254.239018 174.528 
L 254.567216 144.288 
L 254.895414 144.288 
L 255.223613 204.768 
L 255.551811 144.288 
L 255.880009 204.768 
L 256.208207 204.768 
L 256.864604 144.288 
L 257.521 144.288 
L 257.852983 174.528 
L 258.181181 53.568 
L 258.50938 144.288 
L 259.493974 144.288 
L 260.150911 204.768 
L 260.47911 174.528 
L 260.807308 83.808 
L 261.135506 174.528 
L 261.464245 204.768 
L 261.792443 114.048 
L 262.121182 204.768 
L 262.453165 174.528 
L 263.109562 174.528 
L 263.438301 114.048 
L 263.765958 83.808 
L 264.094697 144.288 
L 264.422895 114.048 
L 264.750553 265.248 
L 265.079292 144.288 
L 265.40749 144.288 
L 266.063886 204.768 
L 266.720823 204.768 
L 267.049022 144.288 
L 267.709203 144.288 
L 268.037942 204.768 
L 268.366681 174.528 
L 269.023077 174.528 
L 269.351275 144.288 
L 269.679474 174.528 
L 270.007672 144.288 
L 270.33587 174.528 
L 270.664068 235.008 
L 270.992267 144.288 
L 271.653529 144.288 
L 271.982268 83.808 
L 272.311007 235.008 
L 272.639205 114.048 
L 272.967944 204.768 
L 273.296683 204.768 
L 273.625422 144.288 
L 274.282359 144.288 
L 274.610557 114.048 
L 274.939296 114.048 
L 275.268035 204.768 
L 275.596233 114.048 
L 275.928757 83.808 
L 276.913892 174.528 
L 277.57083 174.528 
L 277.899028 114.048 
L 278.227226 83.808 
L 278.555424 204.768 
L 278.884163 204.768 
L 279.212361 144.288 
L 279.54056 144.288 
L 279.868758 204.768 
L 280.201282 144.288 
L 280.530021 204.768 
L 280.858219 144.288 
L 281.186958 174.528 
L 281.515156 174.528 
L 281.843354 114.048 
L 282.172093 144.288 
L 282.500291 144.288 
L 282.82903 114.048 
L 283.157769 174.528 
L 283.485967 144.288 
L 283.814706 53.568 
L 284.143445 144.288 
L 284.475428 83.808 
L 284.804167 144.288 
L 285.460023 204.768 
L 285.788221 114.048 
L 286.445158 174.528 
L 286.773356 174.528 
L 287.102095 114.048 
L 287.429753 144.288 
L 287.757951 144.288 
L 288.086149 174.528 
L 288.414347 114.048 
L 288.742546 204.768 
L 289.075069 144.288 
L 289.403808 114.048 
L 289.732007 174.528 
L 290.060205 144.288 
L 291.0448 144.288 
L 291.372998 204.768 
L 291.701196 144.288 
L 292.029394 204.768 
L 292.685791 144.288 
L 293.013989 174.528 
L 293.342187 114.048 
L 293.67417 144.288 
L 294.002368 144.288 
L 294.330566 174.528 
L 294.658765 174.528 
L 294.986963 144.288 
L 295.315161 174.528 
L 295.643359 174.528 
L 295.971558 144.288 
L 296.299756 204.768 
L 296.627954 144.288 
L 296.956152 174.528 
L 297.284351 114.048 
L 297.612549 204.768 
L 297.940747 204.768 
L 298.268945 144.288 
L 298.600928 144.288 
L 298.929126 114.048 
L 299.585523 174.528 
L 300.241919 174.528 
L 300.570117 144.288 
L 300.898856 174.528 
L 301.227055 144.288 
L 301.555253 174.528 
L 302.211649 174.528 
L 302.539848 204.768 
L 302.868046 144.288 
L 303.196244 144.288 
L 303.856425 204.768 
L 304.184623 204.768 
L 304.513362 174.528 
L 304.841561 204.768 
L 305.169759 114.048 
L 305.497957 144.288 
L 305.826155 144.288 
L 306.154353 235.008 
L 306.483092 114.048 
L 306.811291 174.528 
L 307.468768 174.528 
L 307.800751 144.288 
L 308.12949 144.288 
L 308.457689 204.768 
L 308.785887 144.288 
L 309.114085 114.048 
L 309.442283 174.528 
L 309.771022 144.288 
L 310.09868 174.528 
L 310.426878 114.048 
L 310.755617 83.808 
L 311.083815 144.288 
L 311.412013 174.528 
L 311.740212 114.048 
L 312.06841 83.808 
L 312.400393 204.768 
L 312.728591 204.768 
L 313.056789 174.528 
L 313.385528 174.528 
L 314.041924 114.048 
L 314.370123 144.288 
L 314.698321 144.288 
L 315.026519 204.768 
L 315.682916 204.768 
L 316.011114 114.048 
L 316.339853 204.768 
L 317.328773 204.768 
L 317.656971 144.288 
L 317.985169 204.768 
L 318.642107 204.768 
L 318.970305 144.288 
L 319.954899 144.288 
L 320.283098 114.048 
L 320.611296 144.288 
L 320.939494 204.768 
L 321.267692 144.288 
L 321.599675 144.288 
L 321.927874 204.768 
L 322.584811 204.768 
L 322.912468 144.288 
L 323.240666 174.528 
L 323.568865 144.288 
L 324.225261 204.768 
L 324.553459 204.768 
L 325.209856 83.808 
L 325.538595 235.008 
L 325.866793 144.288 
L 326.526974 144.288 
L 326.855172 83.808 
L 327.183371 144.288 
L 328.824362 144.288 
L 329.15256 174.528 
L 329.480758 114.048 
L 329.808956 144.288 
L 330.793551 144.288 
L 331.12229 174.528 
L 331.454273 144.288 
L 331.783012 204.768 
L 332.111751 144.288 
L 332.44049 114.048 
L 332.769229 144.288 
L 333.097427 114.048 
L 333.425625 265.248 
L 333.753823 144.288 
L 334.082562 144.288 
L 334.41076 114.048 
L 334.738959 174.528 
L 335.067157 144.288 
L 335.395355 174.528 
L 335.723553 114.048 
L 336.055536 144.288 
L 336.383735 204.768 
L 337.36887 114.048 
L 337.697068 174.528 
L 338.353465 174.528 
L 338.681663 204.768 
L 339.009861 144.288 
L 339.338059 114.048 
L 339.666258 204.768 
L 339.994456 83.808 
L 340.322654 204.768 
L 340.655178 144.288 
L 340.983376 204.768 
L 341.311574 204.768 
L 341.639772 174.528 
L 341.968511 114.048 
L 342.296709 144.288 
L 342.624908 114.048 
L 342.953106 174.528 
L 343.281304 174.528 
L 343.609502 144.288 
L 343.938241 204.768 
L 344.595178 144.288 
L 345.25536 144.288 
L 345.584099 204.768 
L 346.240495 144.288 
L 346.569234 204.768 
L 346.897432 174.528 
L 347.22563 114.048 
L 347.553829 83.808 
L 347.882027 144.288 
L 348.210225 144.288 
L 348.867162 204.768 
L 349.195901 144.288 
L 349.527884 174.528 
L 350.184821 114.048 
L 350.513019 204.768 
L 350.841218 174.528 
L 351.169957 174.528 
L 351.826353 114.048 
L 352.154551 174.528 
L 352.48275 144.288 
L 352.810948 144.288 
L 353.139146 174.528 
L 353.467344 144.288 
L 353.795542 144.288 
L 354.127525 114.048 
L 354.456264 144.288 
L 354.784463 144.288 
L 355.112661 114.048 
L 355.4414 204.768 
L 355.769598 204.768 
L 356.097796 144.288 
L 356.426535 114.048 
L 356.754733 144.288 
L 357.082931 144.288 
L 357.41113 83.808 
L 357.739328 174.528 
L 358.067526 114.048 
L 358.400591 83.808 
L 358.728789 174.528 
L 359.056987 174.528 
L 359.385185 144.288 
L 359.713383 144.288 
L 360.042122 83.808 
L 360.370321 83.808 
L 361.027258 204.768 
L 361.355997 174.528 
L 361.684195 174.528 
L 362.012934 114.048 
L 362.341132 174.528 
L 362.673115 83.808 
L 363.329511 204.768 
L 363.65771 144.288 
L 363.985908 114.048 
L 364.314106 144.288 
L 364.642845 144.288 
L 364.971043 204.768 
L 365.299242 174.528 
L 365.62744 174.528 
L 365.955638 144.288 
L 366.283836 174.528 
L 366.612034 114.048 
L 366.940773 144.288 
L 367.273297 114.048 
L 367.602036 144.288 
L 367.930234 204.768 
L 368.586631 144.288 
L 368.914829 174.528 
L 369.243568 174.528 
L 369.571225 83.808 
L 369.899423 144.288 
L 370.228162 144.288 
L 370.556361 204.768 
L 371.212757 204.768 
L 371.540415 114.048 
L 371.872938 174.528 
L 372.201136 144.288 
L 372.529335 174.528 
L 372.858074 83.808 
L 373.186272 144.288 
L 373.842668 83.808 
L 374.170867 144.288 
L 374.499065 144.288 
L 374.827263 174.528 
L 375.156002 114.048 
L 376.140597 204.768 
L 376.47258 144.288 
L 376.801318 174.528 
L 377.130057 114.048 
L 377.458796 174.528 
L 377.786995 144.288 
L 378.115733 144.288 
L 378.444472 114.048 
L 378.773211 204.768 
L 379.10141 83.808 
L 379.429608 204.768 
L 379.757806 174.528 
L 380.086004 204.768 
L 380.746185 83.808 
L 381.074384 174.528 
L 381.403123 114.048 
L 381.731321 114.048 
L 382.059519 204.768 
L 382.387717 114.048 
L 382.716456 174.528 
L 383.045195 174.528 
L 383.373393 265.248 
L 383.702132 174.528 
L 384.030871 204.768 
L 384.359069 144.288 
L 384.687808 114.048 
L 385.016006 144.288 
L 385.347989 144.288 
L 385.676188 114.048 
L 386.004927 204.768 
L 386.333125 114.048 
L 386.661323 144.288 
L 386.989521 144.288 
L 387.31772 114.048 
L 387.645918 204.768 
L 387.974116 204.768 
L 388.302314 144.288 
L 388.630512 114.048 
L 388.958711 144.288 
L 389.615107 144.288 
L 389.94709 174.528 
L 390.275288 144.288 
L 390.603487 83.808 
L 390.932225 114.048 
L 391.260424 204.768 
L 391.588622 114.048 
L 391.91682 83.808 
L 392.245018 83.808 
L 392.573217 204.768 
L 392.901415 144.288 
L 393.229613 204.768 
L 394.214748 114.048 
L 394.546731 265.248 
L 394.87493 144.288 
L 395.203128 114.048 
L 395.531326 174.528 
L 395.860065 144.288 
L 396.188804 174.528 
L 396.517002 114.048 
L 396.8452 174.528 
L 397.173399 83.808 
L 397.501597 174.528 
L 397.830336 174.528 
L 398.158534 144.288 
L 398.487273 144.288 
L 398.487273 144.288 
" style="fill:none;stroke:#ff7f0e;stroke-linecap:square;stroke-width:1.5;"/>
   </g>
   <g id="patch_3">
    <path d="M 57.6 307.584 
L 57.6 41.472 
" style="fill:none;stroke:#000000;stroke-linecap:square;stroke-linejoin:miter;stroke-width:0.8;"/>
   </g>
   <g id="patch_4">
    <path d="M 414.72 307.584 
L 414.72 41.472 
" style="fill:none;stroke:#000000;stroke-linecap:square;stroke-linejoin:miter;stroke-width:0.8;"/>
   </g>
   <g id="patch_5">
    <path d="M 57.6 307.584 
L 414.72 307.584 
" style="fill:none;stroke:#000000;stroke-linecap:square;stroke-linejoin:miter;stroke-width:0.8;"/>
   </g>
   <g id="patch_6">
    <path d="M 57.6 41.472 
L 414.72 41.472 
" style="fill:none;stroke:#000000;stroke-linecap:square;stroke-linejoin:miter;stroke-width:0.8;"/>
   </g>
   <g id="text_20">
    <!-- Temperatures of heater -->
    <defs>
     <path d="M 30.609375 48.390625 
Q 23.390625 48.390625 19.1875 42.75 
Q 14.984375 37.109375 14.984375 27.296875 
Q 14.984375 17.484375 19.15625 11.84375 
Q 23.34375 6.203125 30.609375 6.203125 
Q 37.796875 6.203125 41.984375 11.859375 
Q 46.1875 17.53125 46.1875 27.296875 
Q 46.1875 37.015625 41.984375 42.703125 
Q 37.796875 48.390625 30.609375 48.390625 
z
M 30.609375 56 
Q 42.328125 56 49.015625 48.375 
Q 55.71875 40.765625 55.71875 27.296875 
Q 55.71875 13.875 49.015625 6.21875 
Q 42.328125 -1.421875 30.609375 -1.421875 
Q 18.84375 -1.421875 12.171875 6.21875 
Q 5.515625 13.875 5.515625 27.296875 
Q 5.515625 40.765625 12.171875 48.375 
Q 18.84375 56 30.609375 56 
z
" id="DejaVuSans-6f"/>
     <path d="M 37.109375 75.984375 
L 37.109375 68.5 
L 28.515625 68.5 
Q 23.6875 68.5 21.796875 66.546875 
Q 19.921875 64.59375 19.921875 59.515625 
L 19.921875 54.6875 
L 34.71875 54.6875 
L 34.71875 47.703125 
L 19.921875 47.703125 
L 19.921875 0 
L 10.890625 0 
L 10.890625 47.703125 
L 2.296875 47.703125 
L 2.296875 54.6875 
L 10.890625 54.6875 
L 10.890625 58.5 
Q 10.890625 67.625 15.140625 71.796875 
Q 19.390625 75.984375 28.609375 75.984375 
z
" id="DejaVuSans-66"/>
     <path d="M 54.890625 33.015625 
L 54.890625 0 
L 45.90625 0 
L 45.90625 32.71875 
Q 45.90625 40.484375 42.875 44.328125 
Q 39.84375 48.1875 33.796875 48.1875 
Q 26.515625 48.1875 22.3125 43.546875 
Q 18.109375 38.921875 18.109375 30.90625 
L 18.109375 0 
L 9.078125 0 
L 9.078125 75.984375 
L 18.109375 75.984375 
L 18.109375 46.1875 
Q 21.34375 51.125 25.703125 53.5625 
Q 30.078125 56 35.796875 56 
Q 45.21875 56 50.046875 50.171875 
Q 54.890625 44.34375 54.890625 33.015625 
z
" id="DejaVuSans-68"/>
    </defs>
    <g transform="translate(164.614688 35.472)scale(0.12 -0.12)">
     <use xlink:href="#DejaVuSans-54"/>
     <use x="60.818359" xlink:href="#DejaVuSans-65"/>
     <use x="122.341797" xlink:href="#DejaVuSans-6d"/>
     <use x="219.753906" xlink:href="#DejaVuSans-70"/>
     <use x="283.230469" xlink:href="#DejaVuSans-65"/>
     <use x="344.753906" xlink:href="#DejaVuSans-72"/>
     <use x="385.867188" xlink:href="#DejaVuSans-61"/>
     <use x="447.146484" xlink:href="#DejaVuSans-74"/>
     <use x="486.355469" xlink:href="#DejaVuSans-75"/>
     <use x="549.734375" xlink:href="#DejaVuSans-72"/>
     <use x="590.816406" xlink:href="#DejaVuSans-65"/>
     <use x="652.339844" xlink:href="#DejaVuSans-73"/>
     <use x="704.439453" xlink:href="#DejaVuSans-20"/>
     <use x="736.226562" xlink:href="#DejaVuSans-6f"/>
     <use x="797.408203" xlink:href="#DejaVuSans-66"/>
     <use x="832.613281" xlink:href="#DejaVuSans-20"/>
     <use x="864.400391" xlink:href="#DejaVuSans-68"/>
     <use x="927.779297" xlink:href="#DejaVuSans-65"/>
     <use x="989.302734" xlink:href="#DejaVuSans-61"/>
     <use x="1050.582031" xlink:href="#DejaVuSans-74"/>
     <use x="1089.791016" xlink:href="#DejaVuSans-65"/>
     <use x="1151.314453" xlink:href="#DejaVuSans-72"/>
    </g>
   </g>
   <g id="legend_1">
    <g id="patch_7">
     <path d="M 328.585625 78.82825 
L 407.72 78.82825 
Q 409.72 78.82825 409.72 76.82825 
L 409.72 48.472 
Q 409.72 46.472 407.72 46.472 
L 328.585625 46.472 
Q 326.585625 46.472 326.585625 48.472 
L 326.585625 76.82825 
Q 326.585625 78.82825 328.585625 78.82825 
z
" style="fill:#ffffff;opacity:0.8;stroke:#cccccc;stroke-linejoin:miter;"/>
    </g>
    <g id="line2d_19">
     <path d="M 330.585625 54.570437 
L 350.585625 54.570437 
" style="fill:none;stroke:#1f77b4;stroke-linecap:square;stroke-width:1.5;"/>
    </g>
    <g id="line2d_20"/>
    <g id="text_21">
     <!-- Setpoints -->
     <defs>
      <path d="M 53.515625 70.515625 
L 53.515625 60.890625 
Q 47.90625 63.578125 42.921875 64.890625 
Q 37.9375 66.21875 33.296875 66.21875 
Q 25.25 66.21875 20.875 63.09375 
Q 16.5 59.96875 16.5 54.203125 
Q 16.5 49.359375 19.40625 46.890625 
Q 22.3125 44.4375 30.421875 42.921875 
L 36.375 41.703125 
Q 47.40625 39.59375 52.65625 34.296875 
Q 57.90625 29 57.90625 20.125 
Q 57.90625 9.515625 50.796875 4.046875 
Q 43.703125 -1.421875 29.984375 -1.421875 
Q 24.8125 -1.421875 18.96875 -0.25 
Q 13.140625 0.921875 6.890625 3.21875 
L 6.890625 13.375 
Q 12.890625 10.015625 18.65625 8.296875 
Q 24.421875 6.59375 29.984375 6.59375 
Q 38.421875 6.59375 43.015625 9.90625 
Q 47.609375 13.234375 47.609375 19.390625 
Q 47.609375 24.75 44.3125 27.78125 
Q 41.015625 30.8125 33.5 32.328125 
L 27.484375 33.5 
Q 16.453125 35.6875 11.515625 40.375 
Q 6.59375 45.0625 6.59375 53.421875 
Q 6.59375 63.09375 13.40625 68.65625 
Q 20.21875 74.21875 32.171875 74.21875 
Q 37.3125 74.21875 42.625 73.28125 
Q 47.953125 72.359375 53.515625 70.515625 
z
" id="DejaVuSans-53"/>
      <path d="M 9.421875 54.6875 
L 18.40625 54.6875 
L 18.40625 0 
L 9.421875 0 
z
M 9.421875 75.984375 
L 18.40625 75.984375 
L 18.40625 64.59375 
L 9.421875 64.59375 
z
" id="DejaVuSans-69"/>
      <path d="M 54.890625 33.015625 
L 54.890625 0 
L 45.90625 0 
L 45.90625 32.71875 
Q 45.90625 40.484375 42.875 44.328125 
Q 39.84375 48.1875 33.796875 48.1875 
Q 26.515625 48.1875 22.3125 43.546875 
Q 18.109375 38.921875 18.109375 30.90625 
L 18.109375 0 
L 9.078125 0 
L 9.078125 54.6875 
L 18.109375 54.6875 
L 18.109375 46.1875 
Q 21.34375 51.125 25.703125 53.5625 
Q 30.078125 56 35.796875 56 
Q 45.21875 56 50.046875 50.171875 
Q 54.890625 44.34375 54.890625 33.015625 
z
" id="DejaVuSans-6e"/>
     </defs>
     <g transform="translate(358.585625 58.070437)scale(0.1 -0.1)">
      <use xlink:href="#DejaVuSans-53"/>
      <use x="63.476562" xlink:href="#DejaVuSans-65"/>
      <use x="125" xlink:href="#DejaVuSans-74"/>
      <use x="164.208984" xlink:href="#DejaVuSans-70"/>
      <use x="227.685547" xlink:href="#DejaVuSans-6f"/>
      <use x="288.867188" xlink:href="#DejaVuSans-69"/>
      <use x="316.650391" xlink:href="#DejaVuSans-6e"/>
      <use x="380.029297" xlink:href="#DejaVuSans-74"/>
      <use x="419.238281" xlink:href="#DejaVuSans-73"/>
     </g>
    </g>
    <g id="line2d_21">
     <path d="M 330.585625 69.248562 
L 350.585625 69.248562 
" style="fill:none;stroke:#ff7f0e;stroke-linecap:square;stroke-width:1.5;"/>
    </g>
    <g id="line2d_22"/>
    <g id="text_22">
     <!-- Heater -->
     <defs>
      <path d="M 9.8125 72.90625 
L 19.671875 72.90625 
L 19.671875 43.015625 
L 55.515625 43.015625 
L 55.515625 72.90625 
L 65.375 72.90625 
L 65.375 0 
L 55.515625 0 
L 55.515625 34.71875 
L 19.671875 34.71875 
L 19.671875 0 
L 9.8125 0 
z
" id="DejaVuSans-48"/>
     </defs>
     <g transform="translate(358.585625 72.748562)scale(0.1 -0.1)">
      <use xlink:href="#DejaVuSans-48"/>
      <use x="75.195312" xlink:href="#DejaVuSans-65"/>
      <use x="136.71875" xlink:href="#DejaVuSans-61"/>
      <use x="197.998047" xlink:href="#DejaVuSans-74"/>
      <use x="237.207031" xlink:href="#DejaVuSans-65"/>
      <use x="298.730469" xlink:href="#DejaVuSans-72"/>
     </g>
    </g>
   </g>
  </g>
 </g>
 <defs>
  <clipPath id="p6a6ab2ee55">
   <rect height="266.112" width="357.12" x="57.6" y="41.472"/>
  </clipPath>
 </defs>
</svg>
