<?xml version="1.0" encoding="utf-8" standalone="no"?>
<!DOCTYPE svg PUBLIC "-//W3C//DTD SVG 1.1//EN"
  "http://www.w3.org/Graphics/SVG/1.1/DTD/svg11.dtd">
<!-- Created with matplotlib (http://matplotlib.org/) -->
<svg height="345pt" version="1.1" viewBox="0 0 460 345" width="460pt" xmlns="http://www.w3.org/2000/svg" xmlns:xlink="http://www.w3.org/1999/xlink">
 <defs>
  <style type="text/css">
*{stroke-linecap:butt;stroke-linejoin:round;}
  </style>
 </defs>
 <g id="figure_1">
  <g id="patch_1">
   <path d="M 0 345.6 
L 460.8 345.6 
L 460.8 0 
L 0 0 
z
" style="fill:#ffffff;"/>
  </g>
  <g id="axes_1">
   <g id="patch_2">
    <path d="M 57.6 307.584 
L 414.72 307.584 
L 414.72 41.472 
L 57.6 41.472 
z
" style="fill:#ffffff;"/>
   </g>
   <g id="matplotlib.axis_1">
    <g id="xtick_1">
     <g id="line2d_1">
      <defs>
       <path d="M 0 0 
L 0 3.5 
" id="m24cdf8e56a" style="stroke:#000000;stroke-width:0.8;"/>
      </defs>
      <g>
       <use style="stroke:#000000;stroke-width:0.8;" x="73.290056" xlink:href="#m24cdf8e56a" y="307.584"/>
      </g>
     </g>
     <g id="text_1">
      <!-- 0 -->
      <defs>
       <path d="M 31.78125 66.40625 
Q 24.171875 66.40625 20.328125 58.90625 
Q 16.5 51.421875 16.5 36.375 
Q 16.5 21.390625 20.328125 13.890625 
Q 24.171875 6.390625 31.78125 6.390625 
Q 39.453125 6.390625 43.28125 13.890625 
Q 47.125 21.390625 47.125 36.375 
Q 47.125 51.421875 43.28125 58.90625 
Q 39.453125 66.40625 31.78125 66.40625 
z
M 31.78125 74.21875 
Q 44.046875 74.21875 50.515625 64.515625 
Q 56.984375 54.828125 56.984375 36.375 
Q 56.984375 17.96875 50.515625 8.265625 
Q 44.046875 -1.421875 31.78125 -1.421875 
Q 19.53125 -1.421875 13.0625 8.265625 
Q 6.59375 17.96875 6.59375 36.375 
Q 6.59375 54.828125 13.0625 64.515625 
Q 19.53125 74.21875 31.78125 74.21875 
z
" id="DejaVuSans-30"/>
      </defs>
      <g transform="translate(70.108806 322.182437)scale(0.1 -0.1)">
       <use xlink:href="#DejaVuSans-30"/>
      </g>
     </g>
    </g>
    <g id="xtick_2">
     <g id="line2d_2">
      <g>
       <use style="stroke:#000000;stroke-width:0.8;" x="127.557215" xlink:href="#m24cdf8e56a" y="307.584"/>
      </g>
     </g>
     <g id="text_2">
      <!-- 100 -->
      <defs>
       <path d="M 12.40625 8.296875 
L 28.515625 8.296875 
L 28.515625 63.921875 
L 10.984375 60.40625 
L 10.984375 69.390625 
L 28.421875 72.90625 
L 38.28125 72.90625 
L 38.28125 8.296875 
L 54.390625 8.296875 
L 54.390625 0 
L 12.40625 0 
z
" id="DejaVuSans-31"/>
      </defs>
      <g transform="translate(118.013465 322.182437)scale(0.1 -0.1)">
       <use xlink:href="#DejaVuSans-31"/>
       <use x="63.623047" xlink:href="#DejaVuSans-30"/>
       <use x="127.246094" xlink:href="#DejaVuSans-30"/>
      </g>
     </g>
    </g>
    <g id="xtick_3">
     <g id="line2d_3">
      <g>
       <use style="stroke:#000000;stroke-width:0.8;" x="181.824374" xlink:href="#m24cdf8e56a" y="307.584"/>
      </g>
     </g>
     <g id="text_3">
      <!-- 200 -->
      <defs>
       <path d="M 19.1875 8.296875 
L 53.609375 8.296875 
L 53.609375 0 
L 7.328125 0 
L 7.328125 8.296875 
Q 12.9375 14.109375 22.625 23.890625 
Q 32.328125 33.6875 34.8125 36.53125 
Q 39.546875 41.84375 41.421875 45.53125 
Q 43.3125 49.21875 43.3125 52.78125 
Q 43.3125 58.59375 39.234375 62.25 
Q 35.15625 65.921875 28.609375 65.921875 
Q 23.96875 65.921875 18.8125 64.3125 
Q 13.671875 62.703125 7.8125 59.421875 
L 7.8125 69.390625 
Q 13.765625 71.78125 18.9375 73 
Q 24.125 74.21875 28.421875 74.21875 
Q 39.75 74.21875 46.484375 68.546875 
Q 53.21875 62.890625 53.21875 53.421875 
Q 53.21875 48.921875 51.53125 44.890625 
Q 49.859375 40.875 45.40625 35.40625 
Q 44.1875 33.984375 37.640625 27.21875 
Q 31.109375 20.453125 19.1875 8.296875 
z
" id="DejaVuSans-32"/>
      </defs>
      <g transform="translate(172.280624 322.182437)scale(0.1 -0.1)">
       <use xlink:href="#DejaVuSans-32"/>
       <use x="63.623047" xlink:href="#DejaVuSans-30"/>
       <use x="127.246094" xlink:href="#DejaVuSans-30"/>
      </g>
     </g>
    </g>
    <g id="xtick_4">
     <g id="line2d_4">
      <g>
       <use style="stroke:#000000;stroke-width:0.8;" x="236.091533" xlink:href="#m24cdf8e56a" y="307.584"/>
      </g>
     </g>
     <g id="text_4">
      <!-- 300 -->
      <defs>
       <path d="M 40.578125 39.3125 
Q 47.65625 37.796875 51.625 33 
Q 55.609375 28.21875 55.609375 21.1875 
Q 55.609375 10.40625 48.1875 4.484375 
Q 40.765625 -1.421875 27.09375 -1.421875 
Q 22.515625 -1.421875 17.65625 -0.515625 
Q 12.796875 0.390625 7.625 2.203125 
L 7.625 11.71875 
Q 11.71875 9.328125 16.59375 8.109375 
Q 21.484375 6.890625 26.8125 6.890625 
Q 36.078125 6.890625 40.9375 10.546875 
Q 45.796875 14.203125 45.796875 21.1875 
Q 45.796875 27.640625 41.28125 31.265625 
Q 36.765625 34.90625 28.71875 34.90625 
L 20.21875 34.90625 
L 20.21875 43.015625 
L 29.109375 43.015625 
Q 36.375 43.015625 40.234375 45.921875 
Q 44.09375 48.828125 44.09375 54.296875 
Q 44.09375 59.90625 40.109375 62.90625 
Q 36.140625 65.921875 28.71875 65.921875 
Q 24.65625 65.921875 20.015625 65.03125 
Q 15.375 64.15625 9.8125 62.3125 
L 9.8125 71.09375 
Q 15.4375 72.65625 20.34375 73.4375 
Q 25.25 74.21875 29.59375 74.21875 
Q 40.828125 74.21875 47.359375 69.109375 
Q 53.90625 64.015625 53.90625 55.328125 
Q 53.90625 49.265625 50.4375 45.09375 
Q 46.96875 40.921875 40.578125 39.3125 
z
" id="DejaVuSans-33"/>
      </defs>
      <g transform="translate(226.547783 322.182437)scale(0.1 -0.1)">
       <use xlink:href="#DejaVuSans-33"/>
       <use x="63.623047" xlink:href="#DejaVuSans-30"/>
       <use x="127.246094" xlink:href="#DejaVuSans-30"/>
      </g>
     </g>
    </g>
    <g id="xtick_5">
     <g id="line2d_5">
      <g>
       <use style="stroke:#000000;stroke-width:0.8;" x="290.358692" xlink:href="#m24cdf8e56a" y="307.584"/>
      </g>
     </g>
     <g id="text_5">
      <!-- 400 -->
      <defs>
       <path d="M 37.796875 64.3125 
L 12.890625 25.390625 
L 37.796875 25.390625 
z
M 35.203125 72.90625 
L 47.609375 72.90625 
L 47.609375 25.390625 
L 58.015625 25.390625 
L 58.015625 17.1875 
L 47.609375 17.1875 
L 47.609375 0 
L 37.796875 0 
L 37.796875 17.1875 
L 4.890625 17.1875 
L 4.890625 26.703125 
z
" id="DejaVuSans-34"/>
      </defs>
      <g transform="translate(280.814942 322.182437)scale(0.1 -0.1)">
       <use xlink:href="#DejaVuSans-34"/>
       <use x="63.623047" xlink:href="#DejaVuSans-30"/>
       <use x="127.246094" xlink:href="#DejaVuSans-30"/>
      </g>
     </g>
    </g>
    <g id="xtick_6">
     <g id="line2d_6">
      <g>
       <use style="stroke:#000000;stroke-width:0.8;" x="344.625851" xlink:href="#m24cdf8e56a" y="307.584"/>
      </g>
     </g>
     <g id="text_6">
      <!-- 500 -->
      <defs>
       <path d="M 10.796875 72.90625 
L 49.515625 72.90625 
L 49.515625 64.59375 
L 19.828125 64.59375 
L 19.828125 46.734375 
Q 21.96875 47.46875 24.109375 47.828125 
Q 26.265625 48.1875 28.421875 48.1875 
Q 40.625 48.1875 47.75 41.5 
Q 54.890625 34.8125 54.890625 23.390625 
Q 54.890625 11.625 47.5625 5.09375 
Q 40.234375 -1.421875 26.90625 -1.421875 
Q 22.3125 -1.421875 17.546875 -0.640625 
Q 12.796875 0.140625 7.71875 1.703125 
L 7.71875 11.625 
Q 12.109375 9.234375 16.796875 8.0625 
Q 21.484375 6.890625 26.703125 6.890625 
Q 35.15625 6.890625 40.078125 11.328125 
Q 45.015625 15.765625 45.015625 23.390625 
Q 45.015625 31 40.078125 35.4375 
Q 35.15625 39.890625 26.703125 39.890625 
Q 22.75 39.890625 18.8125 39.015625 
Q 14.890625 38.140625 10.796875 36.28125 
z
" id="DejaVuSans-35"/>
      </defs>
      <g transform="translate(335.082101 322.182437)scale(0.1 -0.1)">
       <use xlink:href="#DejaVuSans-35"/>
       <use x="63.623047" xlink:href="#DejaVuSans-30"/>
       <use x="127.246094" xlink:href="#DejaVuSans-30"/>
      </g>
     </g>
    </g>
    <g id="xtick_7">
     <g id="line2d_7">
      <g>
       <use style="stroke:#000000;stroke-width:0.8;" x="398.89301" xlink:href="#m24cdf8e56a" y="307.584"/>
      </g>
     </g>
     <g id="text_7">
      <!-- 600 -->
      <defs>
       <path d="M 33.015625 40.375 
Q 26.375 40.375 22.484375 35.828125 
Q 18.609375 31.296875 18.609375 23.390625 
Q 18.609375 15.53125 22.484375 10.953125 
Q 26.375 6.390625 33.015625 6.390625 
Q 39.65625 6.390625 43.53125 10.953125 
Q 47.40625 15.53125 47.40625 23.390625 
Q 47.40625 31.296875 43.53125 35.828125 
Q 39.65625 40.375 33.015625 40.375 
z
M 52.59375 71.296875 
L 52.59375 62.3125 
Q 48.875 64.0625 45.09375 64.984375 
Q 41.3125 65.921875 37.59375 65.921875 
Q 27.828125 65.921875 22.671875 59.328125 
Q 17.53125 52.734375 16.796875 39.40625 
Q 19.671875 43.65625 24.015625 45.921875 
Q 28.375 48.1875 33.59375 48.1875 
Q 44.578125 48.1875 50.953125 41.515625 
Q 57.328125 34.859375 57.328125 23.390625 
Q 57.328125 12.15625 50.6875 5.359375 
Q 44.046875 -1.421875 33.015625 -1.421875 
Q 20.359375 -1.421875 13.671875 8.265625 
Q 6.984375 17.96875 6.984375 36.375 
Q 6.984375 53.65625 15.1875 63.9375 
Q 23.390625 74.21875 37.203125 74.21875 
Q 40.921875 74.21875 44.703125 73.484375 
Q 48.484375 72.75 52.59375 71.296875 
z
" id="DejaVuSans-36"/>
      </defs>
      <g transform="translate(389.34926 322.182437)scale(0.1 -0.1)">
       <use xlink:href="#DejaVuSans-36"/>
       <use x="63.623047" xlink:href="#DejaVuSans-30"/>
       <use x="127.246094" xlink:href="#DejaVuSans-30"/>
      </g>
     </g>
    </g>
    <g id="text_8">
     <!-- t(s) -->
     <defs>
      <path d="M 18.3125 70.21875 
L 18.3125 54.6875 
L 36.8125 54.6875 
L 36.8125 47.703125 
L 18.3125 47.703125 
L 18.3125 18.015625 
Q 18.3125 11.328125 20.140625 9.421875 
Q 21.96875 7.515625 27.59375 7.515625 
L 36.8125 7.515625 
L 36.8125 0 
L 27.59375 0 
Q 17.1875 0 13.234375 3.875 
Q 9.28125 7.765625 9.28125 18.015625 
L 9.28125 47.703125 
L 2.6875 47.703125 
L 2.6875 54.6875 
L 9.28125 54.6875 
L 9.28125 70.21875 
z
" id="DejaVuSans-74"/>
      <path d="M 31 75.875 
Q 24.46875 64.65625 21.28125 53.65625 
Q 18.109375 42.671875 18.109375 31.390625 
Q 18.109375 20.125 21.3125 9.0625 
Q 24.515625 -2 31 -13.1875 
L 23.1875 -13.1875 
Q 15.875 -1.703125 12.234375 9.375 
Q 8.59375 20.453125 8.59375 31.390625 
Q 8.59375 42.28125 12.203125 53.3125 
Q 15.828125 64.359375 23.1875 75.875 
z
" id="DejaVuSans-28"/>
      <path d="M 44.28125 53.078125 
L 44.28125 44.578125 
Q 40.484375 46.53125 36.375 47.5 
Q 32.28125 48.484375 27.875 48.484375 
Q 21.1875 48.484375 17.84375 46.4375 
Q 14.5 44.390625 14.5 40.28125 
Q 14.5 37.15625 16.890625 35.375 
Q 19.28125 33.59375 26.515625 31.984375 
L 29.59375 31.296875 
Q 39.15625 29.25 43.1875 25.515625 
Q 47.21875 21.78125 47.21875 15.09375 
Q 47.21875 7.46875 41.1875 3.015625 
Q 35.15625 -1.421875 24.609375 -1.421875 
Q 20.21875 -1.421875 15.453125 -0.5625 
Q 10.6875 0.296875 5.421875 2 
L 5.421875 11.28125 
Q 10.40625 8.6875 15.234375 7.390625 
Q 20.0625 6.109375 24.8125 6.109375 
Q 31.15625 6.109375 34.5625 8.28125 
Q 37.984375 10.453125 37.984375 14.40625 
Q 37.984375 18.0625 35.515625 20.015625 
Q 33.0625 21.96875 24.703125 23.78125 
L 21.578125 24.515625 
Q 13.234375 26.265625 9.515625 29.90625 
Q 5.8125 33.546875 5.8125 39.890625 
Q 5.8125 47.609375 11.28125 51.796875 
Q 16.75 56 26.8125 56 
Q 31.78125 56 36.171875 55.265625 
Q 40.578125 54.546875 44.28125 53.078125 
z
" id="DejaVuSans-73"/>
      <path d="M 8.015625 75.875 
L 15.828125 75.875 
Q 23.140625 64.359375 26.78125 53.3125 
Q 30.421875 42.28125 30.421875 31.390625 
Q 30.421875 20.453125 26.78125 9.375 
Q 23.140625 -1.703125 15.828125 -13.1875 
L 8.015625 -13.1875 
Q 14.5 -2 17.703125 9.0625 
Q 20.90625 20.125 20.90625 31.390625 
Q 20.90625 42.671875 17.703125 53.65625 
Q 14.5 64.65625 8.015625 75.875 
z
" id="DejaVuSans-29"/>
     </defs>
     <g transform="translate(227.693594 335.860562)scale(0.1 -0.1)">
      <use xlink:href="#DejaVuSans-74"/>
      <use x="39.208984" xlink:href="#DejaVuSans-28"/>
      <use x="78.222656" xlink:href="#DejaVuSans-73"/>
      <use x="130.322266" xlink:href="#DejaVuSans-29"/>
     </g>
    </g>
   </g>
   <g id="matplotlib.axis_2">
    <g id="ytick_1">
     <g id="line2d_8">
      <defs>
       <path d="M 0 0 
L -3.5 0 
" id="m7218bd57b0" style="stroke:#000000;stroke-width:0.8;"/>
      </defs>
      <g>
       <use style="stroke:#000000;stroke-width:0.8;" x="57.6" xlink:href="#m7218bd57b0" y="295.488059"/>
      </g>
     </g>
     <g id="text_9">
      <!-- 1000 -->
      <g transform="translate(25.15 299.287277)scale(0.1 -0.1)">
       <use xlink:href="#DejaVuSans-31"/>
       <use x="63.623047" xlink:href="#DejaVuSans-30"/>
       <use x="127.246094" xlink:href="#DejaVuSans-30"/>
       <use x="190.869141" xlink:href="#DejaVuSans-30"/>
      </g>
     </g>
    </g>
    <g id="ytick_2">
     <g id="line2d_9">
      <g>
       <use style="stroke:#000000;stroke-width:0.8;" x="57.6" xlink:href="#m7218bd57b0" y="236.842193"/>
      </g>
     </g>
     <g id="text_10">
      <!-- 2000 -->
      <g transform="translate(25.15 240.641412)scale(0.1 -0.1)">
       <use xlink:href="#DejaVuSans-32"/>
       <use x="63.623047" xlink:href="#DejaVuSans-30"/>
       <use x="127.246094" xlink:href="#DejaVuSans-30"/>
       <use x="190.869141" xlink:href="#DejaVuSans-30"/>
      </g>
     </g>
    </g>
    <g id="ytick_3">
     <g id="line2d_10">
      <g>
       <use style="stroke:#000000;stroke-width:0.8;" x="57.6" xlink:href="#m7218bd57b0" y="178.196328"/>
      </g>
     </g>
     <g id="text_11">
      <!-- 3000 -->
      <g transform="translate(25.15 181.995547)scale(0.1 -0.1)">
       <use xlink:href="#DejaVuSans-33"/>
       <use x="63.623047" xlink:href="#DejaVuSans-30"/>
       <use x="127.246094" xlink:href="#DejaVuSans-30"/>
       <use x="190.869141" xlink:href="#DejaVuSans-30"/>
      </g>
     </g>
    </g>
    <g id="ytick_4">
     <g id="line2d_11">
      <g>
       <use style="stroke:#000000;stroke-width:0.8;" x="57.6" xlink:href="#m7218bd57b0" y="119.550463"/>
      </g>
     </g>
     <g id="text_12">
      <!-- 4000 -->
      <g transform="translate(25.15 123.349682)scale(0.1 -0.1)">
       <use xlink:href="#DejaVuSans-34"/>
       <use x="63.623047" xlink:href="#DejaVuSans-30"/>
       <use x="127.246094" xlink:href="#DejaVuSans-30"/>
       <use x="190.869141" xlink:href="#DejaVuSans-30"/>
      </g>
     </g>
    </g>
    <g id="ytick_5">
     <g id="line2d_12">
      <g>
       <use style="stroke:#000000;stroke-width:0.8;" x="57.6" xlink:href="#m7218bd57b0" y="60.904598"/>
      </g>
     </g>
     <g id="text_13">
      <!-- 5000 -->
      <g transform="translate(25.15 64.703816)scale(0.1 -0.1)">
       <use xlink:href="#DejaVuSans-35"/>
       <use x="63.623047" xlink:href="#DejaVuSans-30"/>
       <use x="127.246094" xlink:href="#DejaVuSans-30"/>
       <use x="190.869141" xlink:href="#DejaVuSans-30"/>
      </g>
     </g>
    </g>
    <g id="text_14">
     <!-- Current (nA) -->
     <defs>
      <path d="M 64.40625 67.28125 
L 64.40625 56.890625 
Q 59.421875 61.53125 53.78125 63.8125 
Q 48.140625 66.109375 41.796875 66.109375 
Q 29.296875 66.109375 22.65625 58.46875 
Q 16.015625 50.828125 16.015625 36.375 
Q 16.015625 21.96875 22.65625 14.328125 
Q 29.296875 6.6875 41.796875 6.6875 
Q 48.140625 6.6875 53.78125 8.984375 
Q 59.421875 11.28125 64.40625 15.921875 
L 64.40625 5.609375 
Q 59.234375 2.09375 53.4375 0.328125 
Q 47.65625 -1.421875 41.21875 -1.421875 
Q 24.65625 -1.421875 15.125 8.703125 
Q 5.609375 18.84375 5.609375 36.375 
Q 5.609375 53.953125 15.125 64.078125 
Q 24.65625 74.21875 41.21875 74.21875 
Q 47.75 74.21875 53.53125 72.484375 
Q 59.328125 70.75 64.40625 67.28125 
z
" id="DejaVuSans-43"/>
      <path d="M 8.5 21.578125 
L 8.5 54.6875 
L 17.484375 54.6875 
L 17.484375 21.921875 
Q 17.484375 14.15625 20.5 10.265625 
Q 23.53125 6.390625 29.59375 6.390625 
Q 36.859375 6.390625 41.078125 11.03125 
Q 45.3125 15.671875 45.3125 23.6875 
L 45.3125 54.6875 
L 54.296875 54.6875 
L 54.296875 0 
L 45.3125 0 
L 45.3125 8.40625 
Q 42.046875 3.421875 37.71875 1 
Q 33.40625 -1.421875 27.6875 -1.421875 
Q 18.265625 -1.421875 13.375 4.4375 
Q 8.5 10.296875 8.5 21.578125 
z
M 31.109375 56 
z
" id="DejaVuSans-75"/>
      <path d="M 41.109375 46.296875 
Q 39.59375 47.171875 37.8125 47.578125 
Q 36.03125 48 33.890625 48 
Q 26.265625 48 22.1875 43.046875 
Q 18.109375 38.09375 18.109375 28.8125 
L 18.109375 0 
L 9.078125 0 
L 9.078125 54.6875 
L 18.109375 54.6875 
L 18.109375 46.1875 
Q 20.953125 51.171875 25.484375 53.578125 
Q 30.03125 56 36.53125 56 
Q 37.453125 56 38.578125 55.875 
Q 39.703125 55.765625 41.0625 55.515625 
z
" id="DejaVuSans-72"/>
      <path d="M 56.203125 29.59375 
L 56.203125 25.203125 
L 14.890625 25.203125 
Q 15.484375 15.921875 20.484375 11.0625 
Q 25.484375 6.203125 34.421875 6.203125 
Q 39.59375 6.203125 44.453125 7.46875 
Q 49.3125 8.734375 54.109375 11.28125 
L 54.109375 2.78125 
Q 49.265625 0.734375 44.1875 -0.34375 
Q 39.109375 -1.421875 33.890625 -1.421875 
Q 20.796875 -1.421875 13.15625 6.1875 
Q 5.515625 13.8125 5.515625 26.8125 
Q 5.515625 40.234375 12.765625 48.109375 
Q 20.015625 56 32.328125 56 
Q 43.359375 56 49.78125 48.890625 
Q 56.203125 41.796875 56.203125 29.59375 
z
M 47.21875 32.234375 
Q 47.125 39.59375 43.09375 43.984375 
Q 39.0625 48.390625 32.421875 48.390625 
Q 24.90625 48.390625 20.390625 44.140625 
Q 15.875 39.890625 15.1875 32.171875 
z
" id="DejaVuSans-65"/>
      <path d="M 54.890625 33.015625 
L 54.890625 0 
L 45.90625 0 
L 45.90625 32.71875 
Q 45.90625 40.484375 42.875 44.328125 
Q 39.84375 48.1875 33.796875 48.1875 
Q 26.515625 48.1875 22.3125 43.546875 
Q 18.109375 38.921875 18.109375 30.90625 
L 18.109375 0 
L 9.078125 0 
L 9.078125 54.6875 
L 18.109375 54.6875 
L 18.109375 46.1875 
Q 21.34375 51.125 25.703125 53.5625 
Q 30.078125 56 35.796875 56 
Q 45.21875 56 50.046875 50.171875 
Q 54.890625 44.34375 54.890625 33.015625 
z
" id="DejaVuSans-6e"/>
      <path id="DejaVuSans-20"/>
      <path d="M 34.1875 63.1875 
L 20.796875 26.90625 
L 47.609375 26.90625 
z
M 28.609375 72.90625 
L 39.796875 72.90625 
L 67.578125 0 
L 57.328125 0 
L 50.6875 18.703125 
L 17.828125 18.703125 
L 11.1875 0 
L 0.78125 0 
z
" id="DejaVuSans-41"/>
     </defs>
     <g transform="translate(19.070312 205.581906)rotate(-90)scale(0.1 -0.1)">
      <use xlink:href="#DejaVuSans-43"/>
      <use x="69.824219" xlink:href="#DejaVuSans-75"/>
      <use x="133.203125" xlink:href="#DejaVuSans-72"/>
      <use x="174.300781" xlink:href="#DejaVuSans-72"/>
      <use x="215.382812" xlink:href="#DejaVuSans-65"/>
      <use x="276.90625" xlink:href="#DejaVuSans-6e"/>
      <use x="340.285156" xlink:href="#DejaVuSans-74"/>
      <use x="379.494141" xlink:href="#DejaVuSans-20"/>
      <use x="411.28125" xlink:href="#DejaVuSans-28"/>
      <use x="450.294922" xlink:href="#DejaVuSans-6e"/>
      <use x="513.673828" xlink:href="#DejaVuSans-41"/>
      <use x="582.082031" xlink:href="#DejaVuSans-29"/>
     </g>
    </g>
   </g>
   <g id="line2d_13">
    <path clip-path="url(#p76f59580c0)" d="M 73.832727 295.488 
L 74.91807 72.348752 
L 75.460742 72.040275 
L 76.003414 71.870202 
L 76.546085 71.314825 
L 77.088757 71.443846 
L 77.631428 70.829824 
L 78.1741 70.925417 
L 78.716772 70.207591 
L 79.259443 69.820529 
L 79.802115 70.014646 
L 80.344786 69.978872 
L 81.43013 68.782497 
L 81.972801 68.844661 
L 82.515473 68.603627 
L 83.058144 68.655822 
L 83.600816 68.072295 
L 84.143488 67.90926 
L 84.686159 67.271779 
L 85.228831 67.501671 
L 85.771502 66.918145 
L 86.314174 66.64075 
L 86.856845 66.087133 
L 87.399517 66.005029 
L 87.942189 64.412793 
L 88.48486 64.293156 
L 89.027532 63.500264 
L 89.570203 63.548353 
L 90.112875 63.17126 
L 90.655547 63.621661 
L 91.198218 63.381213 
L 91.74089 62.585975 
L 92.283561 62.482172 
L 92.826233 61.733264 
L 93.368905 61.656438 
L 93.911576 60.905771 
L 94.454248 60.749186 
L 95.539591 59.912896 
L 96.082263 59.859528 
L 97.167606 59.305911 
L 97.710277 59.575682 
L 98.252949 59.341685 
L 99.338292 59.294769 
L 99.880964 58.954036 
L 100.423635 58.793347 
L 100.966307 59.520555 
L 101.508978 59.408542 
L 102.05165 60.049541 
L 102.594322 60.252456 
L 103.679665 60.26008 
L 104.222336 60.027842 
L 104.765008 60.464754 
L 105.30768 61.078776 
L 105.850351 61.291074 
L 106.393023 61.871082 
L 107.478366 62.090417 
L 108.563709 61.695144 
L 109.106381 61.737955 
L 109.649052 61.286969 
L 110.191724 61.017198 
L 111.277067 59.259581 
L 112.36241 58.821497 
L 112.905082 59.142876 
L 113.990425 57.014031 
L 114.533097 56.727253 
L 115.075768 56.300311 
L 116.161111 56.367754 
L 117.246455 56.779448 
L 117.789126 57.205803 
L 118.331798 58.310691 
L 118.874469 58.320074 
L 119.417141 58.155866 
L 119.959813 57.670278 
L 120.502484 58.068484 
L 121.045156 59.118831 
L 121.58837 58.7001 
L 122.131042 59.59093 
L 122.673713 59.924625 
L 123.216385 60.106428 
L 123.759056 59.856596 
L 124.301728 60.236035 
L 125.387071 59.918174 
L 125.929743 59.977407 
L 126.472414 59.148741 
L 127.015086 59.106516 
L 127.557757 58.893045 
L 128.100429 57.374117 
L 128.643101 57.550054 
L 129.185772 57.606354 
L 129.728444 57.296118 
L 130.271115 57.838592 
L 131.89913 55.385435 
L 132.441802 55.295121 
L 132.984473 54.712181 
L 133.527145 54.656467 
L 134.069817 54.93093 
L 134.612488 54.708076 
L 135.15516 55.061124 
L 136.783174 55.385435 
L 137.325846 55.872783 
L 137.868518 55.828212 
L 138.411189 55.939052 
L 138.953861 56.750711 
L 139.496532 56.999956 
L 140.039204 56.983535 
L 140.581876 59.264273 
L 141.124547 58.919435 
L 141.667219 58.927646 
L 142.20989 58.291924 
L 142.752562 58.790414 
L 143.295234 57.88023 
L 143.837905 57.469123 
L 144.380577 56.843958 
L 146.008592 56.807011 
L 146.551263 56.915506 
L 147.636606 55.376638 
L 148.179278 54.63946 
L 148.721949 54.193165 
L 149.264621 54.105196 
L 149.807293 54.231871 
L 150.349964 54.135692 
L 152.520651 54.692241 
L 153.063322 55.054673 
L 153.605994 54.860555 
L 154.148665 56.213515 
L 154.691337 55.938466 
L 155.234009 56.356024 
L 156.319352 55.959578 
L 156.862023 56.81053 
L 158.490038 57.82393 
L 159.03271 57.886095 
L 159.575381 58.174633 
L 160.118053 55.86164 
L 160.660724 58.579289 
L 161.203396 58.595124 
L 161.746068 58.196332 
L 162.288739 58.11716 
L 162.831411 58.320661 
L 163.374082 58.344119 
L 164.459426 58.122438 
L 165.544769 57.989312 
L 166.630112 57.88199 
L 167.172784 57.546535 
L 167.715455 57.886095 
L 168.258127 55.721476 
L 168.800798 54.810119 
L 169.34347 54.118098 
L 169.886142 53.724584 
L 170.428813 53.601428 
L 171.514156 53.856538 
L 172.056828 54.030716 
L 172.5995 56.150764 
L 173.142714 53.668871 
L 173.685928 55.041184 
L 174.2286 54.145662 
L 175.8577 53.593218 
L 176.400371 53.665352 
L 176.943043 53.568 
L 177.485714 53.8495 
L 178.571058 53.882928 
L 179.113729 53.891725 
L 179.656401 54.299314 
L 180.199072 54.133933 
L 180.741744 54.53683 
L 182.91243 54.999546 
L 183.455645 55.924977 
L 183.998859 56.456895 
L 184.542073 56.15135 
L 185.085288 56.418776 
L 185.627959 56.364235 
L 186.170631 56.039337 
L 186.713302 55.957819 
L 187.799731 56.425227 
L 189.427746 58.11716 
L 189.970417 58.475486 
L 190.513631 58.471967 
L 191.056303 58.331804 
L 191.599517 58.666672 
L 193.228075 58.20161 
L 193.771289 58.442644 
L 194.857175 58.113055 
L 195.399846 58.358781 
L 195.942518 57.975237 
L 196.48519 58.055582 
L 197.027861 57.968199 
L 197.570533 56.314386 
L 198.113204 57.369425 
L 198.655876 56.537827 
L 199.19909 56.352506 
L 199.741762 56.753057 
L 200.827105 54.990162 
L 201.369777 54.271164 
L 201.912448 54.121031 
L 202.45512 54.667024 
L 202.997791 54.397253 
L 203.540463 53.817245 
L 204.083135 54.194924 
L 204.625806 54.381418 
L 205.168478 54.012536 
L 205.711149 54.387869 
L 206.253821 54.488154 
L 206.796493 54.763203 
L 208.424507 54.704557 
L 209.50985 55.180761 
L 210.052522 55.217122 
L 210.595194 55.582485 
L 211.137865 54.837683 
L 211.680537 55.980104 
L 212.223751 55.895654 
L 212.766965 56.910814 
L 213.309637 56.729012 
L 213.852309 56.389453 
L 214.395523 56.683855 
L 214.938194 56.537827 
L 215.480866 56.88501 
L 216.023538 56.432264 
L 216.566752 57.160646 
L 217.109423 57.253893 
L 217.652095 57.571753 
L 218.737438 58.50129 
L 219.28011 58.940548 
L 220.366538 59.175718 
L 220.90921 58.550553 
L 221.451882 59.110621 
L 222.537225 59.014442 
L 223.080439 58.576943 
L 223.623111 58.677814 
L 224.165782 58.305413 
L 224.708454 58.20982 
L 225.251668 57.482025 
L 225.79434 56.431091 
L 226.337011 57.01755 
L 226.879683 54.896915 
L 227.422354 57.324268 
L 227.965026 55.322098 
L 228.507697 56.426399 
L 229.050369 56.524925 
L 229.593041 56.877973 
L 230.136255 56.787072 
L 230.679469 56.242251 
L 231.222684 56.06866 
L 231.765355 56.387107 
L 232.308027 54.825954 
L 232.850698 54.766721 
L 233.39337 54.582573 
L 233.936042 55.06171 
L 234.478713 54.760857 
L 235.021927 55.365496 
L 235.564599 55.092206 
L 236.107271 55.89976 
L 236.649942 56.313213 
L 237.192614 57.301396 
L 237.735828 57.438627 
L 238.822257 57.263276 
L 239.365471 56.323183 
L 239.908142 56.570082 
L 240.450814 57.060948 
L 240.993486 58.057927 
L 241.536157 58.663153 
L 242.078829 58.589845 
L 242.6215 59.446075 
L 243.164172 59.457804 
L 243.706843 59.279521 
L 244.249515 59.717605 
L 244.792187 59.571577 
L 248.593058 59.558089 
L 249.13573 59.46015 
L 249.678402 59.223807 
L 250.221073 59.371008 
L 250.763745 59.368076 
L 251.306416 59.169853 
L 251.849088 59.110034 
L 252.39176 58.663153 
L 252.934431 58.832053 
L 254.019774 57.253893 
L 254.562446 57.66676 
L 255.105118 57.704879 
L 255.648332 57.610459 
L 256.191546 55.541433 
L 256.73476 55.248204 
L 257.277975 55.169032 
L 257.820646 55.465194 
L 258.905989 55.538501 
L 259.448661 55.841114 
L 259.991333 55.686289 
L 260.534004 56.339604 
L 261.076676 56.501466 
L 261.619347 55.611222 
L 262.162019 55.725581 
L 262.70469 55.291016 
L 263.247362 55.196596 
L 263.790034 55.750213 
L 264.332705 55.456983 
L 264.875377 55.900933 
L 265.418591 56.166598 
L 266.50502 56.04051 
L 267.048234 56.285063 
L 268.134663 57.473815 
L 269.76322 57.934771 
L 270.305892 57.54243 
L 270.848563 57.795194 
L 271.391235 57.60049 
L 271.933906 57.574099 
L 272.476578 57.935358 
L 273.01925 58.55759 
L 273.561921 58.110122 
L 274.105135 58.46317 
L 274.647807 58.544102 
L 275.190479 59.280107 
L 275.733126 59.070155 
L 276.276286 59.090681 
L 276.819446 59.857183 
L 277.905766 59.878295 
L 278.992086 58.084905 
L 279.535246 57.323095 
L 280.078406 58.209234 
L 280.621566 58.223895 
L 281.164725 58.437953 
L 281.707885 58.274917 
L 282.251045 57.635677 
L 282.794205 57.213427 
L 283.337365 57.258584 
L 283.880525 56.486218 
L 284.423685 56.35837 
L 284.966845 56.089772 
L 285.510005 56.469211 
L 287.139485 56.400009 
L 287.682645 56.139035 
L 288.768965 56.763027 
L 289.312124 57.047459 
L 289.855285 57.616324 
L 290.398444 58.507155 
L 290.941604 58.637349 
L 291.484764 58.559936 
L 292.027924 59.814958 
L 292.571084 60.367988 
L 293.114244 60.399657 
L 293.657404 60.708134 
L 294.200564 60.573835 
L 294.743724 60.801381 
L 295.286884 60.448919 
L 295.830044 60.807832 
L 296.373204 60.593188 
L 296.916364 61.007228 
L 298.002684 61.123347 
L 298.545843 60.640105 
L 299.089003 60.791998 
L 299.632163 60.801381 
L 300.175323 60.274741 
L 301.261643 58.644386 
L 301.804803 58.402179 
L 302.347963 58.750535 
L 302.891123 58.820324 
L 303.434283 56.769478 
L 303.977443 58.517711 
L 304.520603 57.704879 
L 305.063763 57.533633 
L 305.606923 57.077369 
L 306.150083 56.872695 
L 307.236403 56.824605 
L 307.779562 56.813462 
L 308.322723 56.624036 
L 308.865882 57.028106 
L 309.409042 57.195833 
L 309.952202 57.625707 
L 311.038522 59.44021 
L 311.581682 58.701859 
L 312.124842 58.856684 
L 312.668002 58.698927 
L 313.211162 60.206712 
L 313.754322 60.78672 
L 314.840642 61.153843 
L 315.383802 60.868824 
L 315.926962 61.365554 
L 316.470122 61.014852 
L 317.013282 61.288728 
L 317.556442 60.89932 
L 318.099601 60.048955 
L 318.642761 58.537064 
L 319.729081 59.364557 
L 320.272241 58.647318 
L 320.815401 57.669692 
L 321.358561 57.378222 
L 321.901721 57.322508 
L 322.444881 57.126631 
L 322.988041 57.115488 
L 323.531201 57.499619 
L 324.074361 58.285473 
L 324.617521 59.604419 
L 325.160681 59.694147 
L 325.703841 59.492405 
L 326.247 59.752206 
L 326.790161 60.923951 
L 327.33332 61.464079 
L 328.41964 61.7057 
L 329.50596 61.62301 
L 330.04912 61.215421 
L 331.13544 59.238469 
L 331.6786 59.566886 
L 332.22176 59.759244 
L 332.76492 58.912398 
L 333.30808 58.358194 
L 333.85124 57.538912 
L 334.3944 57.774081 
L 334.93756 57.452702 
L 335.480719 57.396402 
L 336.56704 58.324766 
L 337.653359 60.532196 
L 338.196519 59.753966 
L 338.739679 59.834311 
L 339.282839 60.924537 
L 339.825999 61.522139 
L 340.369159 61.915066 
L 340.912319 62.040568 
L 341.455479 62.023561 
L 341.998639 61.842932 
L 342.541799 61.922104 
L 343.628119 61.202519 
L 344.171279 60.143961 
L 344.714439 59.493578 
L 345.257599 59.97858 
L 345.800758 59.903513 
L 346.343918 58.778099 
L 346.887078 58.595124 
L 347.973398 57.662654 
L 348.516558 57.479679 
L 349.059718 57.869088 
L 350.146038 57.791089 
L 350.689198 58.054995 
L 351.232358 58.027432 
L 351.775518 59.518209 
L 352.318678 60.404935 
L 352.861838 59.977993 
L 353.404998 59.99676 
L 353.948158 60.359191 
L 354.491318 60.952101 
L 355.034477 61.834135 
L 355.577637 62.169589 
L 357.207117 62.16783 
L 357.750277 62.048779 
L 358.293437 62.188356 
L 358.836597 61.12452 
L 359.379757 60.820734 
L 359.922917 59.821409 
L 360.466077 59.7698 
L 361.009237 60.359191 
L 361.552397 60.189118 
L 362.095557 60.295854 
L 363.181876 59.145808 
L 363.725037 58.976322 
L 364.268196 58.617995 
L 364.811356 58.627379 
L 365.897676 57.951778 
L 366.440836 57.886095 
L 366.983996 58.165836 
L 367.527156 57.808683 
L 368.070316 58.435607 
L 368.613476 58.203369 
L 369.156636 58.425051 
L 369.699796 60.02491 
L 370.242956 60.872343 
L 370.786116 60.716345 
L 371.329276 60.10936 
L 372.415596 60.997258 
L 372.958755 61.924449 
L 373.501916 62.406518 
L 374.588235 62.86161 
L 375.131395 62.905008 
L 375.674555 62.811175 
L 377.304035 61.992479 
L 377.847195 60.402003 
L 378.390355 60.361537 
L 378.933515 60.761502 
L 379.476675 60.752705 
L 380.019835 60.43719 
L 380.562995 59.614975 
L 381.649315 58.876624 
L 382.192474 58.640281 
L 383.278794 58.646145 
L 383.821954 58.220963 
L 385.451434 59.643125 
L 385.994594 60.867651 
L 386.537754 61.051212 
L 387.080914 61.051212 
L 387.624074 60.866478 
L 388.167234 61.843518 
L 388.710394 62.421766 
L 390.339874 63.377107 
L 390.883034 63.179471 
L 391.969353 63.357168 
L 392.512513 63.12669 
L 393.055673 62.539058 
L 393.598833 61.336818 
L 394.141993 61.209556 
L 394.685153 60.288816 
L 395.228313 61.156189 
L 395.771473 61.100475 
L 396.314633 60.65418 
L 396.857793 59.867152 
L 397.944113 59.346377 
L 398.487273 59.246679 
L 398.487273 59.246679 
" style="fill:none;stroke:#1f77b4;stroke-linecap:square;stroke-width:1.5;"/>
   </g>
   <g id="patch_3">
    <path d="M 57.6 307.584 
L 57.6 41.472 
" style="fill:none;stroke:#000000;stroke-linecap:square;stroke-linejoin:miter;stroke-width:0.8;"/>
   </g>
   <g id="patch_4">
    <path d="M 414.72 307.584 
L 414.72 41.472 
" style="fill:none;stroke:#000000;stroke-linecap:square;stroke-linejoin:miter;stroke-width:0.8;"/>
   </g>
   <g id="patch_5">
    <path d="M 57.6 307.584 
L 414.72 307.584 
" style="fill:none;stroke:#000000;stroke-linecap:square;stroke-linejoin:miter;stroke-width:0.8;"/>
   </g>
   <g id="patch_6">
    <path d="M 57.6 41.472 
L 414.72 41.472 
" style="fill:none;stroke:#000000;stroke-linecap:square;stroke-linejoin:miter;stroke-width:0.8;"/>
   </g>
   <g id="text_15">
    <!-- Current with source voltage 100.0 mV -->
    <defs>
     <path d="M 4.203125 54.6875 
L 13.1875 54.6875 
L 24.421875 12.015625 
L 35.59375 54.6875 
L 46.1875 54.6875 
L 57.421875 12.015625 
L 68.609375 54.6875 
L 77.59375 54.6875 
L 63.28125 0 
L 52.6875 0 
L 40.921875 44.828125 
L 29.109375 0 
L 18.5 0 
z
" id="DejaVuSans-77"/>
     <path d="M 9.421875 54.6875 
L 18.40625 54.6875 
L 18.40625 0 
L 9.421875 0 
z
M 9.421875 75.984375 
L 18.40625 75.984375 
L 18.40625 64.59375 
L 9.421875 64.59375 
z
" id="DejaVuSans-69"/>
     <path d="M 54.890625 33.015625 
L 54.890625 0 
L 45.90625 0 
L 45.90625 32.71875 
Q 45.90625 40.484375 42.875 44.328125 
Q 39.84375 48.1875 33.796875 48.1875 
Q 26.515625 48.1875 22.3125 43.546875 
Q 18.109375 38.921875 18.109375 30.90625 
L 18.109375 0 
L 9.078125 0 
L 9.078125 75.984375 
L 18.109375 75.984375 
L 18.109375 46.1875 
Q 21.34375 51.125 25.703125 53.5625 
Q 30.078125 56 35.796875 56 
Q 45.21875 56 50.046875 50.171875 
Q 54.890625 44.34375 54.890625 33.015625 
z
" id="DejaVuSans-68"/>
     <path d="M 30.609375 48.390625 
Q 23.390625 48.390625 19.1875 42.75 
Q 14.984375 37.109375 14.984375 27.296875 
Q 14.984375 17.484375 19.15625 11.84375 
Q 23.34375 6.203125 30.609375 6.203125 
Q 37.796875 6.203125 41.984375 11.859375 
Q 46.1875 17.53125 46.1875 27.296875 
Q 46.1875 37.015625 41.984375 42.703125 
Q 37.796875 48.390625 30.609375 48.390625 
z
M 30.609375 56 
Q 42.328125 56 49.015625 48.375 
Q 55.71875 40.765625 55.71875 27.296875 
Q 55.71875 13.875 49.015625 6.21875 
Q 42.328125 -1.421875 30.609375 -1.421875 
Q 18.84375 -1.421875 12.171875 6.21875 
Q 5.515625 13.875 5.515625 27.296875 
Q 5.515625 40.765625 12.171875 48.375 
Q 18.84375 56 30.609375 56 
z
" id="DejaVuSans-6f"/>
     <path d="M 48.78125 52.59375 
L 48.78125 44.1875 
Q 44.96875 46.296875 41.140625 47.34375 
Q 37.3125 48.390625 33.40625 48.390625 
Q 24.65625 48.390625 19.8125 42.84375 
Q 14.984375 37.3125 14.984375 27.296875 
Q 14.984375 17.28125 19.8125 11.734375 
Q 24.65625 6.203125 33.40625 6.203125 
Q 37.3125 6.203125 41.140625 7.25 
Q 44.96875 8.296875 48.78125 10.40625 
L 48.78125 2.09375 
Q 45.015625 0.34375 40.984375 -0.53125 
Q 36.96875 -1.421875 32.421875 -1.421875 
Q 20.0625 -1.421875 12.78125 6.34375 
Q 5.515625 14.109375 5.515625 27.296875 
Q 5.515625 40.671875 12.859375 48.328125 
Q 20.21875 56 33.015625 56 
Q 37.15625 56 41.109375 55.140625 
Q 45.0625 54.296875 48.78125 52.59375 
z
" id="DejaVuSans-63"/>
     <path d="M 2.984375 54.6875 
L 12.5 54.6875 
L 29.59375 8.796875 
L 46.6875 54.6875 
L 56.203125 54.6875 
L 35.6875 0 
L 23.484375 0 
z
" id="DejaVuSans-76"/>
     <path d="M 9.421875 75.984375 
L 18.40625 75.984375 
L 18.40625 0 
L 9.421875 0 
z
" id="DejaVuSans-6c"/>
     <path d="M 34.28125 27.484375 
Q 23.390625 27.484375 19.1875 25 
Q 14.984375 22.515625 14.984375 16.5 
Q 14.984375 11.71875 18.140625 8.90625 
Q 21.296875 6.109375 26.703125 6.109375 
Q 34.1875 6.109375 38.703125 11.40625 
Q 43.21875 16.703125 43.21875 25.484375 
L 43.21875 27.484375 
z
M 52.203125 31.203125 
L 52.203125 0 
L 43.21875 0 
L 43.21875 8.296875 
Q 40.140625 3.328125 35.546875 0.953125 
Q 30.953125 -1.421875 24.3125 -1.421875 
Q 15.921875 -1.421875 10.953125 3.296875 
Q 6 8.015625 6 15.921875 
Q 6 25.140625 12.171875 29.828125 
Q 18.359375 34.515625 30.609375 34.515625 
L 43.21875 34.515625 
L 43.21875 35.40625 
Q 43.21875 41.609375 39.140625 45 
Q 35.0625 48.390625 27.6875 48.390625 
Q 23 48.390625 18.546875 47.265625 
Q 14.109375 46.140625 10.015625 43.890625 
L 10.015625 52.203125 
Q 14.9375 54.109375 19.578125 55.046875 
Q 24.21875 56 28.609375 56 
Q 40.484375 56 46.34375 49.84375 
Q 52.203125 43.703125 52.203125 31.203125 
z
" id="DejaVuSans-61"/>
     <path d="M 45.40625 27.984375 
Q 45.40625 37.75 41.375 43.109375 
Q 37.359375 48.484375 30.078125 48.484375 
Q 22.859375 48.484375 18.828125 43.109375 
Q 14.796875 37.75 14.796875 27.984375 
Q 14.796875 18.265625 18.828125 12.890625 
Q 22.859375 7.515625 30.078125 7.515625 
Q 37.359375 7.515625 41.375 12.890625 
Q 45.40625 18.265625 45.40625 27.984375 
z
M 54.390625 6.78125 
Q 54.390625 -7.171875 48.1875 -13.984375 
Q 42 -20.796875 29.203125 -20.796875 
Q 24.46875 -20.796875 20.265625 -20.09375 
Q 16.0625 -19.390625 12.109375 -17.921875 
L 12.109375 -9.1875 
Q 16.0625 -11.328125 19.921875 -12.34375 
Q 23.78125 -13.375 27.78125 -13.375 
Q 36.625 -13.375 41.015625 -8.765625 
Q 45.40625 -4.15625 45.40625 5.171875 
L 45.40625 9.625 
Q 42.625 4.78125 38.28125 2.390625 
Q 33.9375 0 27.875 0 
Q 17.828125 0 11.671875 7.65625 
Q 5.515625 15.328125 5.515625 27.984375 
Q 5.515625 40.671875 11.671875 48.328125 
Q 17.828125 56 27.875 56 
Q 33.9375 56 38.28125 53.609375 
Q 42.625 51.21875 45.40625 46.390625 
L 45.40625 54.6875 
L 54.390625 54.6875 
z
" id="DejaVuSans-67"/>
     <path d="M 10.6875 12.40625 
L 21 12.40625 
L 21 0 
L 10.6875 0 
z
" id="DejaVuSans-2e"/>
     <path d="M 52 44.1875 
Q 55.375 50.25 60.0625 53.125 
Q 64.75 56 71.09375 56 
Q 79.640625 56 84.28125 50.015625 
Q 88.921875 44.046875 88.921875 33.015625 
L 88.921875 0 
L 79.890625 0 
L 79.890625 32.71875 
Q 79.890625 40.578125 77.09375 44.375 
Q 74.3125 48.1875 68.609375 48.1875 
Q 61.625 48.1875 57.5625 43.546875 
Q 53.515625 38.921875 53.515625 30.90625 
L 53.515625 0 
L 44.484375 0 
L 44.484375 32.71875 
Q 44.484375 40.625 41.703125 44.40625 
Q 38.921875 48.1875 33.109375 48.1875 
Q 26.21875 48.1875 22.15625 43.53125 
Q 18.109375 38.875 18.109375 30.90625 
L 18.109375 0 
L 9.078125 0 
L 9.078125 54.6875 
L 18.109375 54.6875 
L 18.109375 46.1875 
Q 21.1875 51.21875 25.484375 53.609375 
Q 29.78125 56 35.6875 56 
Q 41.65625 56 45.828125 52.96875 
Q 50 49.953125 52 44.1875 
z
" id="DejaVuSans-6d"/>
     <path d="M 28.609375 0 
L 0.78125 72.90625 
L 11.078125 72.90625 
L 34.1875 11.53125 
L 57.328125 72.90625 
L 67.578125 72.90625 
L 39.796875 0 
z
" id="DejaVuSans-56"/>
    </defs>
    <g transform="translate(121.528125 35.472)scale(0.12 -0.12)">
     <use xlink:href="#DejaVuSans-43"/>
     <use x="69.824219" xlink:href="#DejaVuSans-75"/>
     <use x="133.203125" xlink:href="#DejaVuSans-72"/>
     <use x="174.300781" xlink:href="#DejaVuSans-72"/>
     <use x="215.382812" xlink:href="#DejaVuSans-65"/>
     <use x="276.90625" xlink:href="#DejaVuSans-6e"/>
     <use x="340.285156" xlink:href="#DejaVuSans-74"/>
     <use x="379.494141" xlink:href="#DejaVuSans-20"/>
     <use x="411.28125" xlink:href="#DejaVuSans-77"/>
     <use x="493.068359" xlink:href="#DejaVuSans-69"/>
     <use x="520.851562" xlink:href="#DejaVuSans-74"/>
     <use x="560.060547" xlink:href="#DejaVuSans-68"/>
     <use x="623.439453" xlink:href="#DejaVuSans-20"/>
     <use x="655.226562" xlink:href="#DejaVuSans-73"/>
     <use x="707.326172" xlink:href="#DejaVuSans-6f"/>
     <use x="768.507812" xlink:href="#DejaVuSans-75"/>
     <use x="831.886719" xlink:href="#DejaVuSans-72"/>
     <use x="872.96875" xlink:href="#DejaVuSans-63"/>
     <use x="927.949219" xlink:href="#DejaVuSans-65"/>
     <use x="989.472656" xlink:href="#DejaVuSans-20"/>
     <use x="1021.259766" xlink:href="#DejaVuSans-76"/>
     <use x="1080.439453" xlink:href="#DejaVuSans-6f"/>
     <use x="1141.621094" xlink:href="#DejaVuSans-6c"/>
     <use x="1169.404297" xlink:href="#DejaVuSans-74"/>
     <use x="1208.613281" xlink:href="#DejaVuSans-61"/>
     <use x="1269.892578" xlink:href="#DejaVuSans-67"/>
     <use x="1333.369141" xlink:href="#DejaVuSans-65"/>
     <use x="1394.892578" xlink:href="#DejaVuSans-20"/>
     <use x="1426.679688" xlink:href="#DejaVuSans-31"/>
     <use x="1490.302734" xlink:href="#DejaVuSans-30"/>
     <use x="1553.925781" xlink:href="#DejaVuSans-30"/>
     <use x="1617.548828" xlink:href="#DejaVuSans-2e"/>
     <use x="1649.335938" xlink:href="#DejaVuSans-30"/>
     <use x="1712.958984" xlink:href="#DejaVuSans-20"/>
     <use x="1744.746094" xlink:href="#DejaVuSans-6d"/>
     <use x="1842.158203" xlink:href="#DejaVuSans-56"/>
    </g>
   </g>
  </g>
 </g>
 <defs>
  <clipPath id="p76f59580c0">
   <rect height="266.112" width="357.12" x="57.6" y="41.472"/>
  </clipPath>
 </defs>
</svg>
