<?xml version="1.0" encoding="utf-8" standalone="no"?>
<!DOCTYPE svg PUBLIC "-//W3C//DTD SVG 1.1//EN"
  "http://www.w3.org/Graphics/SVG/1.1/DTD/svg11.dtd">
<!-- Created with matplotlib (http://matplotlib.org/) -->
<svg height="345pt" version="1.1" viewBox="0 0 460 345" width="460pt" xmlns="http://www.w3.org/2000/svg" xmlns:xlink="http://www.w3.org/1999/xlink">
 <defs>
  <style type="text/css">
*{stroke-linecap:butt;stroke-linejoin:round;}
  </style>
 </defs>
 <g id="figure_1">
  <g id="patch_1">
   <path d="M 0 345.6 
L 460.8 345.6 
L 460.8 0 
L 0 0 
z
" style="fill:#ffffff;"/>
  </g>
  <g id="axes_1">
   <g id="patch_2">
    <path d="M 57.6 307.584 
L 414.72 307.584 
L 414.72 41.472 
L 57.6 41.472 
z
" style="fill:#ffffff;"/>
   </g>
   <g id="matplotlib.axis_1">
    <g id="xtick_1">
     <g id="line2d_1">
      <defs>
       <path d="M 0 0 
L 0 3.5 
" id="m1b16591db2" style="stroke:#000000;stroke-width:0.8;"/>
      </defs>
      <g>
       <use style="stroke:#000000;stroke-width:0.8;" x="73.28985" xlink:href="#m1b16591db2" y="307.584"/>
      </g>
     </g>
     <g id="text_1">
      <!-- 0 -->
      <defs>
       <path d="M 31.78125 66.40625 
Q 24.171875 66.40625 20.328125 58.90625 
Q 16.5 51.421875 16.5 36.375 
Q 16.5 21.390625 20.328125 13.890625 
Q 24.171875 6.390625 31.78125 6.390625 
Q 39.453125 6.390625 43.28125 13.890625 
Q 47.125 21.390625 47.125 36.375 
Q 47.125 51.421875 43.28125 58.90625 
Q 39.453125 66.40625 31.78125 66.40625 
z
M 31.78125 74.21875 
Q 44.046875 74.21875 50.515625 64.515625 
Q 56.984375 54.828125 56.984375 36.375 
Q 56.984375 17.96875 50.515625 8.265625 
Q 44.046875 -1.421875 31.78125 -1.421875 
Q 19.53125 -1.421875 13.0625 8.265625 
Q 6.59375 17.96875 6.59375 36.375 
Q 6.59375 54.828125 13.0625 64.515625 
Q 19.53125 74.21875 31.78125 74.21875 
z
" id="DejaVuSans-30"/>
      </defs>
      <g transform="translate(70.1086 322.182437)scale(0.1 -0.1)">
       <use xlink:href="#DejaVuSans-30"/>
      </g>
     </g>
    </g>
    <g id="xtick_2">
     <g id="line2d_2">
      <g>
       <use style="stroke:#000000;stroke-width:0.8;" x="127.572111" xlink:href="#m1b16591db2" y="307.584"/>
      </g>
     </g>
     <g id="text_2">
      <!-- 100 -->
      <defs>
       <path d="M 12.40625 8.296875 
L 28.515625 8.296875 
L 28.515625 63.921875 
L 10.984375 60.40625 
L 10.984375 69.390625 
L 28.421875 72.90625 
L 38.28125 72.90625 
L 38.28125 8.296875 
L 54.390625 8.296875 
L 54.390625 0 
L 12.40625 0 
z
" id="DejaVuSans-31"/>
      </defs>
      <g transform="translate(118.028361 322.182437)scale(0.1 -0.1)">
       <use xlink:href="#DejaVuSans-31"/>
       <use x="63.623047" xlink:href="#DejaVuSans-30"/>
       <use x="127.246094" xlink:href="#DejaVuSans-30"/>
      </g>
     </g>
    </g>
    <g id="xtick_3">
     <g id="line2d_3">
      <g>
       <use style="stroke:#000000;stroke-width:0.8;" x="181.854372" xlink:href="#m1b16591db2" y="307.584"/>
      </g>
     </g>
     <g id="text_3">
      <!-- 200 -->
      <defs>
       <path d="M 19.1875 8.296875 
L 53.609375 8.296875 
L 53.609375 0 
L 7.328125 0 
L 7.328125 8.296875 
Q 12.9375 14.109375 22.625 23.890625 
Q 32.328125 33.6875 34.8125 36.53125 
Q 39.546875 41.84375 41.421875 45.53125 
Q 43.3125 49.21875 43.3125 52.78125 
Q 43.3125 58.59375 39.234375 62.25 
Q 35.15625 65.921875 28.609375 65.921875 
Q 23.96875 65.921875 18.8125 64.3125 
Q 13.671875 62.703125 7.8125 59.421875 
L 7.8125 69.390625 
Q 13.765625 71.78125 18.9375 73 
Q 24.125 74.21875 28.421875 74.21875 
Q 39.75 74.21875 46.484375 68.546875 
Q 53.21875 62.890625 53.21875 53.421875 
Q 53.21875 48.921875 51.53125 44.890625 
Q 49.859375 40.875 45.40625 35.40625 
Q 44.1875 33.984375 37.640625 27.21875 
Q 31.109375 20.453125 19.1875 8.296875 
z
" id="DejaVuSans-32"/>
      </defs>
      <g transform="translate(172.310622 322.182437)scale(0.1 -0.1)">
       <use xlink:href="#DejaVuSans-32"/>
       <use x="63.623047" xlink:href="#DejaVuSans-30"/>
       <use x="127.246094" xlink:href="#DejaVuSans-30"/>
      </g>
     </g>
    </g>
    <g id="xtick_4">
     <g id="line2d_4">
      <g>
       <use style="stroke:#000000;stroke-width:0.8;" x="236.136632" xlink:href="#m1b16591db2" y="307.584"/>
      </g>
     </g>
     <g id="text_4">
      <!-- 300 -->
      <defs>
       <path d="M 40.578125 39.3125 
Q 47.65625 37.796875 51.625 33 
Q 55.609375 28.21875 55.609375 21.1875 
Q 55.609375 10.40625 48.1875 4.484375 
Q 40.765625 -1.421875 27.09375 -1.421875 
Q 22.515625 -1.421875 17.65625 -0.515625 
Q 12.796875 0.390625 7.625 2.203125 
L 7.625 11.71875 
Q 11.71875 9.328125 16.59375 8.109375 
Q 21.484375 6.890625 26.8125 6.890625 
Q 36.078125 6.890625 40.9375 10.546875 
Q 45.796875 14.203125 45.796875 21.1875 
Q 45.796875 27.640625 41.28125 31.265625 
Q 36.765625 34.90625 28.71875 34.90625 
L 20.21875 34.90625 
L 20.21875 43.015625 
L 29.109375 43.015625 
Q 36.375 43.015625 40.234375 45.921875 
Q 44.09375 48.828125 44.09375 54.296875 
Q 44.09375 59.90625 40.109375 62.90625 
Q 36.140625 65.921875 28.71875 65.921875 
Q 24.65625 65.921875 20.015625 65.03125 
Q 15.375 64.15625 9.8125 62.3125 
L 9.8125 71.09375 
Q 15.4375 72.65625 20.34375 73.4375 
Q 25.25 74.21875 29.59375 74.21875 
Q 40.828125 74.21875 47.359375 69.109375 
Q 53.90625 64.015625 53.90625 55.328125 
Q 53.90625 49.265625 50.4375 45.09375 
Q 46.96875 40.921875 40.578125 39.3125 
z
" id="DejaVuSans-33"/>
      </defs>
      <g transform="translate(226.592882 322.182437)scale(0.1 -0.1)">
       <use xlink:href="#DejaVuSans-33"/>
       <use x="63.623047" xlink:href="#DejaVuSans-30"/>
       <use x="127.246094" xlink:href="#DejaVuSans-30"/>
      </g>
     </g>
    </g>
    <g id="xtick_5">
     <g id="line2d_5">
      <g>
       <use style="stroke:#000000;stroke-width:0.8;" x="290.418893" xlink:href="#m1b16591db2" y="307.584"/>
      </g>
     </g>
     <g id="text_5">
      <!-- 400 -->
      <defs>
       <path d="M 37.796875 64.3125 
L 12.890625 25.390625 
L 37.796875 25.390625 
z
M 35.203125 72.90625 
L 47.609375 72.90625 
L 47.609375 25.390625 
L 58.015625 25.390625 
L 58.015625 17.1875 
L 47.609375 17.1875 
L 47.609375 0 
L 37.796875 0 
L 37.796875 17.1875 
L 4.890625 17.1875 
L 4.890625 26.703125 
z
" id="DejaVuSans-34"/>
      </defs>
      <g transform="translate(280.875143 322.182437)scale(0.1 -0.1)">
       <use xlink:href="#DejaVuSans-34"/>
       <use x="63.623047" xlink:href="#DejaVuSans-30"/>
       <use x="127.246094" xlink:href="#DejaVuSans-30"/>
      </g>
     </g>
    </g>
    <g id="xtick_6">
     <g id="line2d_6">
      <g>
       <use style="stroke:#000000;stroke-width:0.8;" x="344.701154" xlink:href="#m1b16591db2" y="307.584"/>
      </g>
     </g>
     <g id="text_6">
      <!-- 500 -->
      <defs>
       <path d="M 10.796875 72.90625 
L 49.515625 72.90625 
L 49.515625 64.59375 
L 19.828125 64.59375 
L 19.828125 46.734375 
Q 21.96875 47.46875 24.109375 47.828125 
Q 26.265625 48.1875 28.421875 48.1875 
Q 40.625 48.1875 47.75 41.5 
Q 54.890625 34.8125 54.890625 23.390625 
Q 54.890625 11.625 47.5625 5.09375 
Q 40.234375 -1.421875 26.90625 -1.421875 
Q 22.3125 -1.421875 17.546875 -0.640625 
Q 12.796875 0.140625 7.71875 1.703125 
L 7.71875 11.625 
Q 12.109375 9.234375 16.796875 8.0625 
Q 21.484375 6.890625 26.703125 6.890625 
Q 35.15625 6.890625 40.078125 11.328125 
Q 45.015625 15.765625 45.015625 23.390625 
Q 45.015625 31 40.078125 35.4375 
Q 35.15625 39.890625 26.703125 39.890625 
Q 22.75 39.890625 18.8125 39.015625 
Q 14.890625 38.140625 10.796875 36.28125 
z
" id="DejaVuSans-35"/>
      </defs>
      <g transform="translate(335.157404 322.182437)scale(0.1 -0.1)">
       <use xlink:href="#DejaVuSans-35"/>
       <use x="63.623047" xlink:href="#DejaVuSans-30"/>
       <use x="127.246094" xlink:href="#DejaVuSans-30"/>
      </g>
     </g>
    </g>
    <g id="xtick_7">
     <g id="line2d_7">
      <g>
       <use style="stroke:#000000;stroke-width:0.8;" x="398.983414" xlink:href="#m1b16591db2" y="307.584"/>
      </g>
     </g>
     <g id="text_7">
      <!-- 600 -->
      <defs>
       <path d="M 33.015625 40.375 
Q 26.375 40.375 22.484375 35.828125 
Q 18.609375 31.296875 18.609375 23.390625 
Q 18.609375 15.53125 22.484375 10.953125 
Q 26.375 6.390625 33.015625 6.390625 
Q 39.65625 6.390625 43.53125 10.953125 
Q 47.40625 15.53125 47.40625 23.390625 
Q 47.40625 31.296875 43.53125 35.828125 
Q 39.65625 40.375 33.015625 40.375 
z
M 52.59375 71.296875 
L 52.59375 62.3125 
Q 48.875 64.0625 45.09375 64.984375 
Q 41.3125 65.921875 37.59375 65.921875 
Q 27.828125 65.921875 22.671875 59.328125 
Q 17.53125 52.734375 16.796875 39.40625 
Q 19.671875 43.65625 24.015625 45.921875 
Q 28.375 48.1875 33.59375 48.1875 
Q 44.578125 48.1875 50.953125 41.515625 
Q 57.328125 34.859375 57.328125 23.390625 
Q 57.328125 12.15625 50.6875 5.359375 
Q 44.046875 -1.421875 33.015625 -1.421875 
Q 20.359375 -1.421875 13.671875 8.265625 
Q 6.984375 17.96875 6.984375 36.375 
Q 6.984375 53.65625 15.1875 63.9375 
Q 23.390625 74.21875 37.203125 74.21875 
Q 40.921875 74.21875 44.703125 73.484375 
Q 48.484375 72.75 52.59375 71.296875 
z
" id="DejaVuSans-36"/>
      </defs>
      <g transform="translate(389.439664 322.182437)scale(0.1 -0.1)">
       <use xlink:href="#DejaVuSans-36"/>
       <use x="63.623047" xlink:href="#DejaVuSans-30"/>
       <use x="127.246094" xlink:href="#DejaVuSans-30"/>
      </g>
     </g>
    </g>
    <g id="text_8">
     <!-- t(s) -->
     <defs>
      <path d="M 18.3125 70.21875 
L 18.3125 54.6875 
L 36.8125 54.6875 
L 36.8125 47.703125 
L 18.3125 47.703125 
L 18.3125 18.015625 
Q 18.3125 11.328125 20.140625 9.421875 
Q 21.96875 7.515625 27.59375 7.515625 
L 36.8125 7.515625 
L 36.8125 0 
L 27.59375 0 
Q 17.1875 0 13.234375 3.875 
Q 9.28125 7.765625 9.28125 18.015625 
L 9.28125 47.703125 
L 2.6875 47.703125 
L 2.6875 54.6875 
L 9.28125 54.6875 
L 9.28125 70.21875 
z
" id="DejaVuSans-74"/>
      <path d="M 31 75.875 
Q 24.46875 64.65625 21.28125 53.65625 
Q 18.109375 42.671875 18.109375 31.390625 
Q 18.109375 20.125 21.3125 9.0625 
Q 24.515625 -2 31 -13.1875 
L 23.1875 -13.1875 
Q 15.875 -1.703125 12.234375 9.375 
Q 8.59375 20.453125 8.59375 31.390625 
Q 8.59375 42.28125 12.203125 53.3125 
Q 15.828125 64.359375 23.1875 75.875 
z
" id="DejaVuSans-28"/>
      <path d="M 44.28125 53.078125 
L 44.28125 44.578125 
Q 40.484375 46.53125 36.375 47.5 
Q 32.28125 48.484375 27.875 48.484375 
Q 21.1875 48.484375 17.84375 46.4375 
Q 14.5 44.390625 14.5 40.28125 
Q 14.5 37.15625 16.890625 35.375 
Q 19.28125 33.59375 26.515625 31.984375 
L 29.59375 31.296875 
Q 39.15625 29.25 43.1875 25.515625 
Q 47.21875 21.78125 47.21875 15.09375 
Q 47.21875 7.46875 41.1875 3.015625 
Q 35.15625 -1.421875 24.609375 -1.421875 
Q 20.21875 -1.421875 15.453125 -0.5625 
Q 10.6875 0.296875 5.421875 2 
L 5.421875 11.28125 
Q 10.40625 8.6875 15.234375 7.390625 
Q 20.0625 6.109375 24.8125 6.109375 
Q 31.15625 6.109375 34.5625 8.28125 
Q 37.984375 10.453125 37.984375 14.40625 
Q 37.984375 18.0625 35.515625 20.015625 
Q 33.0625 21.96875 24.703125 23.78125 
L 21.578125 24.515625 
Q 13.234375 26.265625 9.515625 29.90625 
Q 5.8125 33.546875 5.8125 39.890625 
Q 5.8125 47.609375 11.28125 51.796875 
Q 16.75 56 26.8125 56 
Q 31.78125 56 36.171875 55.265625 
Q 40.578125 54.546875 44.28125 53.078125 
z
" id="DejaVuSans-73"/>
      <path d="M 8.015625 75.875 
L 15.828125 75.875 
Q 23.140625 64.359375 26.78125 53.3125 
Q 30.421875 42.28125 30.421875 31.390625 
Q 30.421875 20.453125 26.78125 9.375 
Q 23.140625 -1.703125 15.828125 -13.1875 
L 8.015625 -13.1875 
Q 14.5 -2 17.703125 9.0625 
Q 20.90625 20.125 20.90625 31.390625 
Q 20.90625 42.671875 17.703125 53.65625 
Q 14.5 64.65625 8.015625 75.875 
z
" id="DejaVuSans-29"/>
     </defs>
     <g transform="translate(227.693594 335.860562)scale(0.1 -0.1)">
      <use xlink:href="#DejaVuSans-74"/>
      <use x="39.208984" xlink:href="#DejaVuSans-28"/>
      <use x="78.222656" xlink:href="#DejaVuSans-73"/>
      <use x="130.322266" xlink:href="#DejaVuSans-29"/>
     </g>
    </g>
   </g>
   <g id="matplotlib.axis_2">
    <g id="ytick_1">
     <g id="line2d_8">
      <defs>
       <path d="M 0 0 
L -3.5 0 
" id="mb543336b31" style="stroke:#000000;stroke-width:0.8;"/>
      </defs>
      <g>
       <use style="stroke:#000000;stroke-width:0.8;" x="57.6" xlink:href="#mb543336b31" y="304.726124"/>
      </g>
     </g>
     <g id="text_9">
      <!-- 1900 -->
      <defs>
       <path d="M 10.984375 1.515625 
L 10.984375 10.5 
Q 14.703125 8.734375 18.5 7.8125 
Q 22.3125 6.890625 25.984375 6.890625 
Q 35.75 6.890625 40.890625 13.453125 
Q 46.046875 20.015625 46.78125 33.40625 
Q 43.953125 29.203125 39.59375 26.953125 
Q 35.25 24.703125 29.984375 24.703125 
Q 19.046875 24.703125 12.671875 31.3125 
Q 6.296875 37.9375 6.296875 49.421875 
Q 6.296875 60.640625 12.9375 67.421875 
Q 19.578125 74.21875 30.609375 74.21875 
Q 43.265625 74.21875 49.921875 64.515625 
Q 56.59375 54.828125 56.59375 36.375 
Q 56.59375 19.140625 48.40625 8.859375 
Q 40.234375 -1.421875 26.421875 -1.421875 
Q 22.703125 -1.421875 18.890625 -0.6875 
Q 15.09375 0.046875 10.984375 1.515625 
z
M 30.609375 32.421875 
Q 37.25 32.421875 41.125 36.953125 
Q 45.015625 41.5 45.015625 49.421875 
Q 45.015625 57.28125 41.125 61.84375 
Q 37.25 66.40625 30.609375 66.40625 
Q 23.96875 66.40625 20.09375 61.84375 
Q 16.21875 57.28125 16.21875 49.421875 
Q 16.21875 41.5 20.09375 36.953125 
Q 23.96875 32.421875 30.609375 32.421875 
z
" id="DejaVuSans-39"/>
      </defs>
      <g transform="translate(25.15 308.525343)scale(0.1 -0.1)">
       <use xlink:href="#DejaVuSans-31"/>
       <use x="63.623047" xlink:href="#DejaVuSans-39"/>
       <use x="127.246094" xlink:href="#DejaVuSans-30"/>
       <use x="190.869141" xlink:href="#DejaVuSans-30"/>
      </g>
     </g>
    </g>
    <g id="ytick_2">
     <g id="line2d_9">
      <g>
       <use style="stroke:#000000;stroke-width:0.8;" x="57.6" xlink:href="#mb543336b31" y="250.702006"/>
      </g>
     </g>
     <g id="text_10">
      <!-- 2000 -->
      <g transform="translate(25.15 254.501225)scale(0.1 -0.1)">
       <use xlink:href="#DejaVuSans-32"/>
       <use x="63.623047" xlink:href="#DejaVuSans-30"/>
       <use x="127.246094" xlink:href="#DejaVuSans-30"/>
       <use x="190.869141" xlink:href="#DejaVuSans-30"/>
      </g>
     </g>
    </g>
    <g id="ytick_3">
     <g id="line2d_10">
      <g>
       <use style="stroke:#000000;stroke-width:0.8;" x="57.6" xlink:href="#mb543336b31" y="196.677888"/>
      </g>
     </g>
     <g id="text_11">
      <!-- 2100 -->
      <g transform="translate(25.15 200.477107)scale(0.1 -0.1)">
       <use xlink:href="#DejaVuSans-32"/>
       <use x="63.623047" xlink:href="#DejaVuSans-31"/>
       <use x="127.246094" xlink:href="#DejaVuSans-30"/>
       <use x="190.869141" xlink:href="#DejaVuSans-30"/>
      </g>
     </g>
    </g>
    <g id="ytick_4">
     <g id="line2d_11">
      <g>
       <use style="stroke:#000000;stroke-width:0.8;" x="57.6" xlink:href="#mb543336b31" y="142.65377"/>
      </g>
     </g>
     <g id="text_12">
      <!-- 2200 -->
      <g transform="translate(25.15 146.452989)scale(0.1 -0.1)">
       <use xlink:href="#DejaVuSans-32"/>
       <use x="63.623047" xlink:href="#DejaVuSans-32"/>
       <use x="127.246094" xlink:href="#DejaVuSans-30"/>
       <use x="190.869141" xlink:href="#DejaVuSans-30"/>
      </g>
     </g>
    </g>
    <g id="ytick_5">
     <g id="line2d_12">
      <g>
       <use style="stroke:#000000;stroke-width:0.8;" x="57.6" xlink:href="#mb543336b31" y="88.629653"/>
      </g>
     </g>
     <g id="text_13">
      <!-- 2300 -->
      <g transform="translate(25.15 92.428871)scale(0.1 -0.1)">
       <use xlink:href="#DejaVuSans-32"/>
       <use x="63.623047" xlink:href="#DejaVuSans-33"/>
       <use x="127.246094" xlink:href="#DejaVuSans-30"/>
       <use x="190.869141" xlink:href="#DejaVuSans-30"/>
      </g>
     </g>
    </g>
    <g id="text_14">
     <!-- Current (nA) -->
     <defs>
      <path d="M 64.40625 67.28125 
L 64.40625 56.890625 
Q 59.421875 61.53125 53.78125 63.8125 
Q 48.140625 66.109375 41.796875 66.109375 
Q 29.296875 66.109375 22.65625 58.46875 
Q 16.015625 50.828125 16.015625 36.375 
Q 16.015625 21.96875 22.65625 14.328125 
Q 29.296875 6.6875 41.796875 6.6875 
Q 48.140625 6.6875 53.78125 8.984375 
Q 59.421875 11.28125 64.40625 15.921875 
L 64.40625 5.609375 
Q 59.234375 2.09375 53.4375 0.328125 
Q 47.65625 -1.421875 41.21875 -1.421875 
Q 24.65625 -1.421875 15.125 8.703125 
Q 5.609375 18.84375 5.609375 36.375 
Q 5.609375 53.953125 15.125 64.078125 
Q 24.65625 74.21875 41.21875 74.21875 
Q 47.75 74.21875 53.53125 72.484375 
Q 59.328125 70.75 64.40625 67.28125 
z
" id="DejaVuSans-43"/>
      <path d="M 8.5 21.578125 
L 8.5 54.6875 
L 17.484375 54.6875 
L 17.484375 21.921875 
Q 17.484375 14.15625 20.5 10.265625 
Q 23.53125 6.390625 29.59375 6.390625 
Q 36.859375 6.390625 41.078125 11.03125 
Q 45.3125 15.671875 45.3125 23.6875 
L 45.3125 54.6875 
L 54.296875 54.6875 
L 54.296875 0 
L 45.3125 0 
L 45.3125 8.40625 
Q 42.046875 3.421875 37.71875 1 
Q 33.40625 -1.421875 27.6875 -1.421875 
Q 18.265625 -1.421875 13.375 4.4375 
Q 8.5 10.296875 8.5 21.578125 
z
M 31.109375 56 
z
" id="DejaVuSans-75"/>
      <path d="M 41.109375 46.296875 
Q 39.59375 47.171875 37.8125 47.578125 
Q 36.03125 48 33.890625 48 
Q 26.265625 48 22.1875 43.046875 
Q 18.109375 38.09375 18.109375 28.8125 
L 18.109375 0 
L 9.078125 0 
L 9.078125 54.6875 
L 18.109375 54.6875 
L 18.109375 46.1875 
Q 20.953125 51.171875 25.484375 53.578125 
Q 30.03125 56 36.53125 56 
Q 37.453125 56 38.578125 55.875 
Q 39.703125 55.765625 41.0625 55.515625 
z
" id="DejaVuSans-72"/>
      <path d="M 56.203125 29.59375 
L 56.203125 25.203125 
L 14.890625 25.203125 
Q 15.484375 15.921875 20.484375 11.0625 
Q 25.484375 6.203125 34.421875 6.203125 
Q 39.59375 6.203125 44.453125 7.46875 
Q 49.3125 8.734375 54.109375 11.28125 
L 54.109375 2.78125 
Q 49.265625 0.734375 44.1875 -0.34375 
Q 39.109375 -1.421875 33.890625 -1.421875 
Q 20.796875 -1.421875 13.15625 6.1875 
Q 5.515625 13.8125 5.515625 26.8125 
Q 5.515625 40.234375 12.765625 48.109375 
Q 20.015625 56 32.328125 56 
Q 43.359375 56 49.78125 48.890625 
Q 56.203125 41.796875 56.203125 29.59375 
z
M 47.21875 32.234375 
Q 47.125 39.59375 43.09375 43.984375 
Q 39.0625 48.390625 32.421875 48.390625 
Q 24.90625 48.390625 20.390625 44.140625 
Q 15.875 39.890625 15.1875 32.171875 
z
" id="DejaVuSans-65"/>
      <path d="M 54.890625 33.015625 
L 54.890625 0 
L 45.90625 0 
L 45.90625 32.71875 
Q 45.90625 40.484375 42.875 44.328125 
Q 39.84375 48.1875 33.796875 48.1875 
Q 26.515625 48.1875 22.3125 43.546875 
Q 18.109375 38.921875 18.109375 30.90625 
L 18.109375 0 
L 9.078125 0 
L 9.078125 54.6875 
L 18.109375 54.6875 
L 18.109375 46.1875 
Q 21.34375 51.125 25.703125 53.5625 
Q 30.078125 56 35.796875 56 
Q 45.21875 56 50.046875 50.171875 
Q 54.890625 44.34375 54.890625 33.015625 
z
" id="DejaVuSans-6e"/>
      <path id="DejaVuSans-20"/>
      <path d="M 34.1875 63.1875 
L 20.796875 26.90625 
L 47.609375 26.90625 
z
M 28.609375 72.90625 
L 39.796875 72.90625 
L 67.578125 0 
L 57.328125 0 
L 50.6875 18.703125 
L 17.828125 18.703125 
L 11.1875 0 
L 0.78125 0 
z
" id="DejaVuSans-41"/>
     </defs>
     <g transform="translate(19.070312 205.581906)rotate(-90)scale(0.1 -0.1)">
      <use xlink:href="#DejaVuSans-43"/>
      <use x="69.824219" xlink:href="#DejaVuSans-75"/>
      <use x="133.203125" xlink:href="#DejaVuSans-72"/>
      <use x="174.300781" xlink:href="#DejaVuSans-72"/>
      <use x="215.382812" xlink:href="#DejaVuSans-65"/>
      <use x="276.90625" xlink:href="#DejaVuSans-6e"/>
      <use x="340.285156" xlink:href="#DejaVuSans-74"/>
      <use x="379.494141" xlink:href="#DejaVuSans-20"/>
      <use x="411.28125" xlink:href="#DejaVuSans-28"/>
      <use x="450.294922" xlink:href="#DejaVuSans-6e"/>
      <use x="513.673828" xlink:href="#DejaVuSans-41"/>
      <use x="582.082031" xlink:href="#DejaVuSans-29"/>
     </g>
    </g>
   </g>
   <g id="line2d_13">
    <path clip-path="url(#pcc1d1798a4)" d="M 73.832727 60.207564 
L 74.918481 62.098408 
L 75.461358 64.097301 
L 76.547112 64.29719 
L 77.089989 64.324202 
L 77.632866 62.741295 
L 78.175742 63.249122 
L 78.718619 64.421445 
L 79.261496 63.573267 
L 79.804373 60.504697 
L 80.34725 60.596538 
L 80.890127 59.024436 
L 81.433004 60.180552 
L 81.975881 59.429617 
L 82.518758 62.579223 
L 83.061634 64.253971 
L 83.604511 60.461477 
L 84.147388 60.110321 
L 84.690265 59.008229 
L 85.233142 60.618147 
L 85.776019 61.482533 
L 86.318896 61.471728 
L 86.861773 64.167532 
L 87.40465 58.92179 
L 87.947526 62.692674 
L 88.490403 60.953097 
L 89.03328 61.639203 
L 89.576156 60.072504 
L 90.119521 65.356063 
L 90.662344 63.751546 
L 91.205166 66.787702 
L 91.747989 67.138858 
L 92.290811 65.874694 
L 92.834177 68.997288 
L 93.376999 71.33113 
L 93.919822 66.890347 
L 94.462645 68.737972 
L 95.005467 69.413274 
L 95.54829 72.373795 
L 96.091112 71.033997 
L 96.633935 72.314369 
L 97.176758 72.103675 
L 97.71958 65.647793 
L 98.262403 66.042169 
L 98.805225 63.37878 
L 99.348048 56.922898 
L 99.890871 58.311318 
L 100.433693 54.437788 
L 100.976516 56.263803 
L 101.519338 53.568 
L 103.147806 59.672725 
L 103.690629 61.466326 
L 104.233451 62.152432 
L 104.776274 63.654303 
L 105.319097 63.697522 
L 105.861919 66.674251 
L 106.404742 66.965981 
L 106.947565 69.688797 
L 107.490387 69.083727 
L 108.03321 69.18097 
L 108.576032 71.860566 
L 109.118855 73.432668 
L 109.661678 71.763323 
L 110.2045 73.9513 
L 110.747323 70.88273 
L 111.290145 72.984268 
L 111.832968 71.023192 
L 112.918613 77.619537 
L 113.461436 73.659569 
L 114.004258 72.276552 
L 114.547081 76.139276 
L 115.089904 75.047989 
L 115.632726 75.242476 
L 116.175549 74.561772 
L 116.718371 77.036077 
L 117.261194 75.388341 
L 117.804017 76.722737 
L 118.346839 76.771359 
L 118.889662 78.440704 
L 119.432484 75.02638 
L 119.975307 75.129025 
L 120.51813 75.47478 
L 121.060952 78.602776 
L 121.603775 78.85669 
L 122.146598 79.46176 
L 122.68942 78.99175 
L 123.232243 79.272675 
L 123.775065 80.007403 
L 124.317888 82.870682 
L 124.860711 84.664282 
L 125.403533 82.886889 
L 125.946356 84.334735 
L 126.489178 85.091073 
L 127.032001 84.043005 
L 127.574824 83.346094 
L 128.117646 84.896586 
L 128.660469 83.616214 
L 129.203291 80.164073 
L 129.746114 84.275309 
L 130.288937 84.842562 
L 130.831759 83.502764 
L 131.374582 83.967371 
L 131.917404 85.685338 
L 132.460227 86.463285 
L 133.00305 89.526453 
L 133.545872 85.57729 
L 134.088695 89.672318 
L 134.631517 88.48919 
L 135.17434 88.402751 
L 135.717163 91.952136 
L 136.259985 91.152579 
L 136.802808 93.621481 
L 137.888453 95.285424 
L 138.431276 98.478249 
L 138.974098 102.573277 
L 139.516921 103.63215 
L 140.059744 107.359814 
L 140.602566 109.374914 
L 141.145389 114.690887 
L 141.688211 114.993422 
L 142.231034 115.717345 
L 142.773857 119.104657 
L 143.316679 116.554719 
L 143.859502 116.338623 
L 144.402324 114.782728 
L 144.945147 115.052849 
L 145.48797 116.80323 
L 146.030792 116.684377 
L 146.573615 121.141367 
L 147.116437 119.11006 
L 147.65926 121.087343 
L 148.202083 120.784808 
L 148.744905 120.990099 
L 149.287728 123.820963 
L 149.83055 122.232654 
L 150.373373 122.518982 
L 150.916196 122.31369 
L 151.459018 123.777744 
L 152.001841 123.005199 
L 152.544663 124.161315 
L 153.087486 121.832875 
L 153.630309 122.832322 
L 154.173131 118.926378 
L 154.715954 121.649193 
L 155.258777 122.697261 
L 155.801599 121.470914 
L 156.344422 122.232654 
L 156.887244 117.883712 
L 157.430067 122.027362 
L 157.97289 121.638389 
L 158.515712 123.626476 
L 159.601357 120.514687 
L 160.14418 121.811266 
L 160.687003 125.684795 
L 161.229825 120.228359 
L 161.772648 123.334746 
L 162.31547 120.838832 
L 162.858293 123.999243 
L 163.401116 125.376858 
L 163.943938 127.618858 
L 164.486761 124.296375 
L 165.572406 131.870556 
L 166.115229 132.55126 
L 166.658051 134.641994 
L 167.200874 135.93317 
L 167.743696 140.86017 
L 168.286519 136.343753 
L 168.829342 137.964477 
L 169.372164 137.127103 
L 169.914987 136.781349 
L 170.457809 138.936911 
L 171.000632 137.764588 
L 171.543455 140.800743 
L 172.086277 141.519264 
L 172.6291 140.671085 
L 173.171923 139.325885 
L 173.714745 141.908238 
L 174.257568 143.215621 
L 174.80039 141.33018 
L 175.343213 144.587834 
L 175.886036 144.582431 
L 176.428858 145.56567 
L 176.971681 147.262028 
L 177.514503 146.927078 
L 178.057326 148.374925 
L 178.600149 147.569965 
L 179.142971 145.468427 
L 179.685794 147.71583 
L 180.228616 148.509985 
L 180.771439 153.447789 
L 181.314262 155.10633 
L 181.857627 160.379084 
L 182.40045 156.991771 
L 182.943272 155.597949 
L 183.486095 156.6082 
L 184.028917 158.363984 
L 184.57174 158.607092 
L 185.114563 160.892313 
L 185.657385 158.093863 
L 186.200208 157.694085 
L 187.285853 153.939409 
L 187.828676 154.447235 
L 188.371498 153.647678 
L 188.914864 160.481729 
L 189.458229 163.080289 
L 190.001052 158.958249 
L 190.544417 163.361215 
L 191.08724 165.062975 
L 191.630062 165.846324 
L 192.172885 163.247764 
L 192.715708 165.878739 
L 193.25853 162.345561 
L 193.801353 161.82693 
L 194.344175 159.995512 
L 194.886998 164.155369 
L 195.429821 163.744786 
L 195.972643 164.441697 
L 196.515466 162.437402 
L 197.058288 162.107855 
L 197.601111 159.725392 
L 198.143934 163.05868 
L 198.686756 163.93387 
L 199.229579 165.867934 
L 199.772401 165.306083 
L 200.315224 166.28392 
L 200.858047 166.926807 
L 201.400869 168.212581 
L 201.943692 162.248318 
L 202.486515 162.124063 
L 203.029337 157.040393 
L 203.57216 159.957695 
L 204.114982 159.039285 
L 204.657805 154.868623 
L 205.200628 156.813492 
L 205.74345 152.588806 
L 206.829095 155.052305 
L 207.371918 154.517467 
L 207.914741 153.366753 
L 208.457563 151.605567 
L 209.000386 154.042054 
L 210.086031 156.338079 
L 210.628854 154.204127 
L 211.171676 154.971269 
L 211.714499 155.198171 
L 212.257321 183.252895 
L 212.800687 182.653227 
L 213.344052 184.700741 
L 213.887418 185.52731 
L 214.430783 176.294589 
L 214.973606 191.318696 
L 215.516428 192.107448 
L 216.059251 193.328393 
L 216.602616 184.04705 
L 217.145439 196.991228 
L 217.688262 199.060352 
L 218.231084 199.416911 
L 218.773907 195.959368 
L 219.316729 195.991782 
L 219.859552 187.445167 
L 220.402375 195.305676 
L 220.94574 190.259823 
L 221.489105 191.826523 
L 222.031928 194.079328 
L 222.575293 193.884841 
L 223.118116 195.030153 
L 223.660939 191.502378 
L 224.203761 195.100384 
L 224.746584 196.645474 
L 225.289407 194.090133 
L 225.832229 194.560143 
L 226.375052 192.620677 
L 226.917874 189.789813 
L 227.460697 191.66445 
L 228.00352 194.619569 
L 228.546342 194.538533 
L 229.089165 194.073926 
L 229.631987 195.921551 
L 230.17481 193.793 
L 230.717633 196.839961 
L 231.260455 196.618462 
L 231.803278 194.738423 
L 232.3461 196.283512 
L 232.888923 194.500716 
L 233.431746 196.888582 
L 233.974568 195.527175 
L 234.517391 196.623864 
L 235.603036 193.960475 
L 236.145859 194.376461 
L 236.688681 198.336429 
L 237.231504 195.608211 
L 237.774326 198.552525 
L 238.317149 199.125181 
L 238.859972 198.358038 
L 239.402794 199.551971 
L 239.945617 198.38505 
L 240.488439 201.459023 
L 241.031262 201.059244 
L 241.574085 201.237524 
L 242.116907 201.78857 
L 242.65973 202.669163 
L 243.202553 202.966296 
L 243.745375 202.453067 
L 244.288198 205.537844 
L 244.83102 204.316899 
L 245.373843 203.933327 
L 245.916666 205.743135 
L 246.459488 205.165077 
L 247.002311 204.138619 
L 247.545133 205.570258 
L 248.087956 205.494624 
L 248.630779 203.922523 
L 249.173601 204.792311 
L 249.716424 204.154826 
L 250.259246 210.464843 
L 250.802069 203.171587 
L 251.344892 212.582589 
L 251.887714 209.573445 
L 252.430537 209.946212 
L 252.973902 210.670135 
L 253.516725 211.653374 
L 254.059547 213.344329 
L 254.60237 217.930976 
L 255.145193 213.398353 
L 255.688015 213.927789 
L 256.230838 215.38644 
L 256.77366 214.495042 
L 257.316483 213.846753 
L 258.402128 215.25138 
L 258.944951 216.985554 
L 259.487774 219.492273 
L 260.030596 218.29834 
L 260.573419 219.324799 
L 261.116241 219.486871 
L 261.659607 219.497676 
L 262.202972 218.055232 
L 262.746338 222.069224 
L 263.289703 218.276731 
L 263.833069 221.728872 
L 264.376434 222.166467 
L 264.919257 218.460413 
L 266.004902 222.458197 
L 266.547724 221.453349 
L 267.090547 224.873075 
L 267.63337 221.453349 
L 268.176735 221.896347 
L 268.719558 225.33228 
L 269.26238 226.418165 
L 269.805746 225.283659 
L 270.349111 225.95896 
L 270.892477 228.055096 
L 271.435299 228.055096 
L 271.978122 228.336021 
L 272.520944 225.694242 
L 273.06431 229.227419 
L 273.607132 229.989159 
L 274.149955 227.633708 
L 274.692778 227.617501 
L 275.2356 226.191264 
L 275.778423 226.76392 
L 276.321788 230.297097 
L 276.864611 229.448918 
L 277.407433 229.994562 
L 277.950256 229.292248 
L 278.493079 227.541867 
L 279.035901 227.703939 
L 279.578724 228.238778 
L 280.121546 227.920036 
L 280.664369 229.167993 
L 281.207192 228.325217 
L 281.750014 229.097762 
L 282.292837 228.40085 
L 282.835659 226.618054 
L 283.378482 229.167993 
L 283.921305 227.385197 
L 284.464127 226.455982 
L 285.00695 226.13724 
L 285.549773 225.310671 
L 286.092595 224.084323 
L 286.635418 225.618608 
L 287.17824 226.477592 
L 287.721063 226.094021 
L 288.263886 224.516516 
L 288.806708 224.186969 
L 289.349531 227.314966 
L 289.892896 225.953558 
L 290.436262 226.974614 
L 290.979084 224.738015 
L 291.521907 225.921143 
L 292.06473 227.406807 
L 292.607552 227.233929 
L 293.150917 226.942199 
L 293.69374 227.493245 
L 294.237105 226.310117 
L 294.779928 231.280336 
L 295.322751 229.600186 
L 295.865573 227.314966 
L 296.408396 229.038335 
L 296.951219 231.269531 
L 297.494041 230.059391 
L 298.036864 231.382982 
L 298.580229 234.743282 
L 299.123595 236.207335 
L 299.666417 238.940956 
L 300.209783 240.18351 
L 300.753148 240.669728 
L 301.296514 243.144032 
L 301.839879 242.544364 
L 302.383244 248.746333 
L 302.926067 250.086131 
L 303.46889 252.220084 
L 304.011712 251.868927 
L 304.554535 250.221192 
L 305.097357 252.068816 
L 305.64018 239.994426 
L 306.183545 246.061335 
L 306.726368 235.402376 
L 307.269191 241.031689 
L 307.812013 239.486599 
L 308.354836 236.234347 
L 308.897659 232.031271 
L 309.440481 236.120897 
L 309.983304 227.050247 
L 310.526126 226.369544 
L 311.068949 224.705601 
L 312.15568 219.946076 
L 312.698502 219.962283 
L 313.241868 223.354998 
L 313.785233 222.636477 
L 314.328056 224.559736 
L 314.870878 231.307348 
L 315.413701 234.646038 
L 315.956524 237.066319 
L 316.499346 237.811852 
L 317.042169 240.658923 
L 317.585534 241.647564 
L 318.1289 241.636759 
L 318.671722 244.419001 
L 319.214545 246.169383 
L 319.757368 249.351403 
L 320.30019 247.320096 
L 320.843013 250.140155 
L 321.385835 250.458898 
L 321.929201 255.537165 
L 322.472023 258.789417 
L 323.014846 258.621942 
L 323.557669 261.269124 
L 324.101034 261.398782 
L 324.643857 262.322594 
L 325.186679 259.172988 
L 325.729502 259.318853 
L 326.272324 256.120625 
L 326.815147 258.72999 
L 327.35797 252.852166 
L 327.900792 250.539934 
L 328.443615 244.856597 
L 328.986437 243.948992 
L 329.52926 246.531344 
L 330.072626 245.974896 
L 330.615991 243.90037 
L 331.158814 241.107323 
L 331.701636 240.36179 
L 332.244459 238.8167 
L 332.787824 239.427173 
L 333.873469 243.889565 
L 334.416292 241.177554 
L 334.959115 239.875573 
L 335.501937 229.729844 
L 336.045303 234.835123 
L 336.588125 237.066319 
L 337.130948 235.564448 
L 337.67377 235.040414 
L 338.216593 233.597971 
L 338.759416 233.360264 
L 339.302238 244.37038 
L 339.845061 248.984039 
L 340.387883 249.718767 
L 340.930706 253.403212 
L 341.473529 253.246542 
L 342.016351 254.462085 
L 342.559174 254.894278 
L 343.101997 254.424268 
L 343.644819 254.121733 
L 344.188185 256.62305 
L 344.73155 255.499348 
L 345.274373 257.789971 
L 345.817738 257.563069 
L 346.361104 261.912011 
L 346.903926 263.462503 
L 347.446749 262.549495 
L 347.990114 263.084334 
L 348.53348 264.175621 
L 349.076302 264.996788 
L 349.619668 267.071314 
L 350.16249 270.588284 
L 350.705313 269.151243 
L 351.248135 272.052338 
L 351.790958 273.402941 
L 352.333781 275.898855 
L 352.876603 274.575264 
L 353.419969 275.774599 
L 353.963334 275.73138 
L 354.5067 277.778894 
L 355.049522 276.990142 
L 355.592345 276.957728 
L 356.135167 274.958835 
L 356.67799 274.272729 
L 357.220813 267.995126 
L 357.763635 269.59424 
L 358.306458 263.932513 
L 358.84928 259.810473 
L 359.392646 258.951489 
L 359.936011 262.770994 
L 360.478834 259.000111 
L 361.021656 259.118964 
L 361.564479 258.351821 
L 362.107302 255.288654 
L 362.650124 254.197367 
L 363.192947 257.465826 
L 363.735769 256.104418 
L 364.278592 254.191964 
L 364.821415 245.693971 
L 365.364237 252.954812 
L 365.907603 248.076434 
L 366.450968 249.054271 
L 367.536613 251.40432 
L 368.079436 267.525117 
L 368.622259 267.843859 
L 369.165624 269.32412 
L 369.708447 273.764902 
L 370.251269 276.141963 
L 370.794635 276.152768 
L 371.337457 276.720021 
L 372.967554 281.436327 
L 373.510376 284.196959 
L 374.053199 284.348227 
L 374.596021 283.337976 
L 375.138844 284.105118 
L 375.681667 286.082401 
L 376.224489 286.48218 
L 376.767312 289.08074 
L 377.310134 290.026162 
L 377.8535 290.420538 
L 378.396322 289.259019 
L 378.939688 283.278549 
L 379.483053 273.316502 
L 380.026419 267.881676 
L 380.569784 264.467351 
L 381.11315 259.594376 
L 382.19988 253.894832 
L 382.742703 256.406953 
L 383.285526 255.54797 
L 383.828891 265.445188 
L 384.371714 265.250701 
L 385.457359 269.842751 
L 386.000182 268.935146 
L 386.543004 273.203051 
L 387.085827 275.012859 
L 387.628649 276.071732 
L 388.171472 276.314841 
L 388.714295 276.071732 
L 389.257117 276.855082 
L 389.800483 280.712404 
L 390.887213 292.387016 
L 391.430036 293.743021 
L 391.972859 294.515566 
L 393.058504 295.488 
L 394.144149 293.548534 
L 394.686972 292.803001 
L 395.229794 290.366514 
L 395.77316 282.090019 
L 396.315982 277.762687 
L 396.858805 278.362355 
L 397.401628 277.58981 
L 397.94445 277.076581 
L 398.487273 277.492566 
L 398.487273 277.492566 
" style="fill:none;stroke:#1f77b4;stroke-linecap:square;stroke-width:1.5;"/>
   </g>
   <g id="patch_3">
    <path d="M 57.6 307.584 
L 57.6 41.472 
" style="fill:none;stroke:#000000;stroke-linecap:square;stroke-linejoin:miter;stroke-width:0.8;"/>
   </g>
   <g id="patch_4">
    <path d="M 414.72 307.584 
L 414.72 41.472 
" style="fill:none;stroke:#000000;stroke-linecap:square;stroke-linejoin:miter;stroke-width:0.8;"/>
   </g>
   <g id="patch_5">
    <path d="M 57.6 307.584 
L 414.72 307.584 
" style="fill:none;stroke:#000000;stroke-linecap:square;stroke-linejoin:miter;stroke-width:0.8;"/>
   </g>
   <g id="patch_6">
    <path d="M 57.6 41.472 
L 414.72 41.472 
" style="fill:none;stroke:#000000;stroke-linecap:square;stroke-linejoin:miter;stroke-width:0.8;"/>
   </g>
   <g id="text_15">
    <!-- Current with source voltage 100.0 mV -->
    <defs>
     <path d="M 4.203125 54.6875 
L 13.1875 54.6875 
L 24.421875 12.015625 
L 35.59375 54.6875 
L 46.1875 54.6875 
L 57.421875 12.015625 
L 68.609375 54.6875 
L 77.59375 54.6875 
L 63.28125 0 
L 52.6875 0 
L 40.921875 44.828125 
L 29.109375 0 
L 18.5 0 
z
" id="DejaVuSans-77"/>
     <path d="M 9.421875 54.6875 
L 18.40625 54.6875 
L 18.40625 0 
L 9.421875 0 
z
M 9.421875 75.984375 
L 18.40625 75.984375 
L 18.40625 64.59375 
L 9.421875 64.59375 
z
" id="DejaVuSans-69"/>
     <path d="M 54.890625 33.015625 
L 54.890625 0 
L 45.90625 0 
L 45.90625 32.71875 
Q 45.90625 40.484375 42.875 44.328125 
Q 39.84375 48.1875 33.796875 48.1875 
Q 26.515625 48.1875 22.3125 43.546875 
Q 18.109375 38.921875 18.109375 30.90625 
L 18.109375 0 
L 9.078125 0 
L 9.078125 75.984375 
L 18.109375 75.984375 
L 18.109375 46.1875 
Q 21.34375 51.125 25.703125 53.5625 
Q 30.078125 56 35.796875 56 
Q 45.21875 56 50.046875 50.171875 
Q 54.890625 44.34375 54.890625 33.015625 
z
" id="DejaVuSans-68"/>
     <path d="M 30.609375 48.390625 
Q 23.390625 48.390625 19.1875 42.75 
Q 14.984375 37.109375 14.984375 27.296875 
Q 14.984375 17.484375 19.15625 11.84375 
Q 23.34375 6.203125 30.609375 6.203125 
Q 37.796875 6.203125 41.984375 11.859375 
Q 46.1875 17.53125 46.1875 27.296875 
Q 46.1875 37.015625 41.984375 42.703125 
Q 37.796875 48.390625 30.609375 48.390625 
z
M 30.609375 56 
Q 42.328125 56 49.015625 48.375 
Q 55.71875 40.765625 55.71875 27.296875 
Q 55.71875 13.875 49.015625 6.21875 
Q 42.328125 -1.421875 30.609375 -1.421875 
Q 18.84375 -1.421875 12.171875 6.21875 
Q 5.515625 13.875 5.515625 27.296875 
Q 5.515625 40.765625 12.171875 48.375 
Q 18.84375 56 30.609375 56 
z
" id="DejaVuSans-6f"/>
     <path d="M 48.78125 52.59375 
L 48.78125 44.1875 
Q 44.96875 46.296875 41.140625 47.34375 
Q 37.3125 48.390625 33.40625 48.390625 
Q 24.65625 48.390625 19.8125 42.84375 
Q 14.984375 37.3125 14.984375 27.296875 
Q 14.984375 17.28125 19.8125 11.734375 
Q 24.65625 6.203125 33.40625 6.203125 
Q 37.3125 6.203125 41.140625 7.25 
Q 44.96875 8.296875 48.78125 10.40625 
L 48.78125 2.09375 
Q 45.015625 0.34375 40.984375 -0.53125 
Q 36.96875 -1.421875 32.421875 -1.421875 
Q 20.0625 -1.421875 12.78125 6.34375 
Q 5.515625 14.109375 5.515625 27.296875 
Q 5.515625 40.671875 12.859375 48.328125 
Q 20.21875 56 33.015625 56 
Q 37.15625 56 41.109375 55.140625 
Q 45.0625 54.296875 48.78125 52.59375 
z
" id="DejaVuSans-63"/>
     <path d="M 2.984375 54.6875 
L 12.5 54.6875 
L 29.59375 8.796875 
L 46.6875 54.6875 
L 56.203125 54.6875 
L 35.6875 0 
L 23.484375 0 
z
" id="DejaVuSans-76"/>
     <path d="M 9.421875 75.984375 
L 18.40625 75.984375 
L 18.40625 0 
L 9.421875 0 
z
" id="DejaVuSans-6c"/>
     <path d="M 34.28125 27.484375 
Q 23.390625 27.484375 19.1875 25 
Q 14.984375 22.515625 14.984375 16.5 
Q 14.984375 11.71875 18.140625 8.90625 
Q 21.296875 6.109375 26.703125 6.109375 
Q 34.1875 6.109375 38.703125 11.40625 
Q 43.21875 16.703125 43.21875 25.484375 
L 43.21875 27.484375 
z
M 52.203125 31.203125 
L 52.203125 0 
L 43.21875 0 
L 43.21875 8.296875 
Q 40.140625 3.328125 35.546875 0.953125 
Q 30.953125 -1.421875 24.3125 -1.421875 
Q 15.921875 -1.421875 10.953125 3.296875 
Q 6 8.015625 6 15.921875 
Q 6 25.140625 12.171875 29.828125 
Q 18.359375 34.515625 30.609375 34.515625 
L 43.21875 34.515625 
L 43.21875 35.40625 
Q 43.21875 41.609375 39.140625 45 
Q 35.0625 48.390625 27.6875 48.390625 
Q 23 48.390625 18.546875 47.265625 
Q 14.109375 46.140625 10.015625 43.890625 
L 10.015625 52.203125 
Q 14.9375 54.109375 19.578125 55.046875 
Q 24.21875 56 28.609375 56 
Q 40.484375 56 46.34375 49.84375 
Q 52.203125 43.703125 52.203125 31.203125 
z
" id="DejaVuSans-61"/>
     <path d="M 45.40625 27.984375 
Q 45.40625 37.75 41.375 43.109375 
Q 37.359375 48.484375 30.078125 48.484375 
Q 22.859375 48.484375 18.828125 43.109375 
Q 14.796875 37.75 14.796875 27.984375 
Q 14.796875 18.265625 18.828125 12.890625 
Q 22.859375 7.515625 30.078125 7.515625 
Q 37.359375 7.515625 41.375 12.890625 
Q 45.40625 18.265625 45.40625 27.984375 
z
M 54.390625 6.78125 
Q 54.390625 -7.171875 48.1875 -13.984375 
Q 42 -20.796875 29.203125 -20.796875 
Q 24.46875 -20.796875 20.265625 -20.09375 
Q 16.0625 -19.390625 12.109375 -17.921875 
L 12.109375 -9.1875 
Q 16.0625 -11.328125 19.921875 -12.34375 
Q 23.78125 -13.375 27.78125 -13.375 
Q 36.625 -13.375 41.015625 -8.765625 
Q 45.40625 -4.15625 45.40625 5.171875 
L 45.40625 9.625 
Q 42.625 4.78125 38.28125 2.390625 
Q 33.9375 0 27.875 0 
Q 17.828125 0 11.671875 7.65625 
Q 5.515625 15.328125 5.515625 27.984375 
Q 5.515625 40.671875 11.671875 48.328125 
Q 17.828125 56 27.875 56 
Q 33.9375 56 38.28125 53.609375 
Q 42.625 51.21875 45.40625 46.390625 
L 45.40625 54.6875 
L 54.390625 54.6875 
z
" id="DejaVuSans-67"/>
     <path d="M 10.6875 12.40625 
L 21 12.40625 
L 21 0 
L 10.6875 0 
z
" id="DejaVuSans-2e"/>
     <path d="M 52 44.1875 
Q 55.375 50.25 60.0625 53.125 
Q 64.75 56 71.09375 56 
Q 79.640625 56 84.28125 50.015625 
Q 88.921875 44.046875 88.921875 33.015625 
L 88.921875 0 
L 79.890625 0 
L 79.890625 32.71875 
Q 79.890625 40.578125 77.09375 44.375 
Q 74.3125 48.1875 68.609375 48.1875 
Q 61.625 48.1875 57.5625 43.546875 
Q 53.515625 38.921875 53.515625 30.90625 
L 53.515625 0 
L 44.484375 0 
L 44.484375 32.71875 
Q 44.484375 40.625 41.703125 44.40625 
Q 38.921875 48.1875 33.109375 48.1875 
Q 26.21875 48.1875 22.15625 43.53125 
Q 18.109375 38.875 18.109375 30.90625 
L 18.109375 0 
L 9.078125 0 
L 9.078125 54.6875 
L 18.109375 54.6875 
L 18.109375 46.1875 
Q 21.1875 51.21875 25.484375 53.609375 
Q 29.78125 56 35.6875 56 
Q 41.65625 56 45.828125 52.96875 
Q 50 49.953125 52 44.1875 
z
" id="DejaVuSans-6d"/>
     <path d="M 28.609375 0 
L 0.78125 72.90625 
L 11.078125 72.90625 
L 34.1875 11.53125 
L 57.328125 72.90625 
L 67.578125 72.90625 
L 39.796875 0 
z
" id="DejaVuSans-56"/>
    </defs>
    <g transform="translate(121.528125 35.472)scale(0.12 -0.12)">
     <use xlink:href="#DejaVuSans-43"/>
     <use x="69.824219" xlink:href="#DejaVuSans-75"/>
     <use x="133.203125" xlink:href="#DejaVuSans-72"/>
     <use x="174.300781" xlink:href="#DejaVuSans-72"/>
     <use x="215.382812" xlink:href="#DejaVuSans-65"/>
     <use x="276.90625" xlink:href="#DejaVuSans-6e"/>
     <use x="340.285156" xlink:href="#DejaVuSans-74"/>
     <use x="379.494141" xlink:href="#DejaVuSans-20"/>
     <use x="411.28125" xlink:href="#DejaVuSans-77"/>
     <use x="493.068359" xlink:href="#DejaVuSans-69"/>
     <use x="520.851562" xlink:href="#DejaVuSans-74"/>
     <use x="560.060547" xlink:href="#DejaVuSans-68"/>
     <use x="623.439453" xlink:href="#DejaVuSans-20"/>
     <use x="655.226562" xlink:href="#DejaVuSans-73"/>
     <use x="707.326172" xlink:href="#DejaVuSans-6f"/>
     <use x="768.507812" xlink:href="#DejaVuSans-75"/>
     <use x="831.886719" xlink:href="#DejaVuSans-72"/>
     <use x="872.96875" xlink:href="#DejaVuSans-63"/>
     <use x="927.949219" xlink:href="#DejaVuSans-65"/>
     <use x="989.472656" xlink:href="#DejaVuSans-20"/>
     <use x="1021.259766" xlink:href="#DejaVuSans-76"/>
     <use x="1080.439453" xlink:href="#DejaVuSans-6f"/>
     <use x="1141.621094" xlink:href="#DejaVuSans-6c"/>
     <use x="1169.404297" xlink:href="#DejaVuSans-74"/>
     <use x="1208.613281" xlink:href="#DejaVuSans-61"/>
     <use x="1269.892578" xlink:href="#DejaVuSans-67"/>
     <use x="1333.369141" xlink:href="#DejaVuSans-65"/>
     <use x="1394.892578" xlink:href="#DejaVuSans-20"/>
     <use x="1426.679688" xlink:href="#DejaVuSans-31"/>
     <use x="1490.302734" xlink:href="#DejaVuSans-30"/>
     <use x="1553.925781" xlink:href="#DejaVuSans-30"/>
     <use x="1617.548828" xlink:href="#DejaVuSans-2e"/>
     <use x="1649.335938" xlink:href="#DejaVuSans-30"/>
     <use x="1712.958984" xlink:href="#DejaVuSans-20"/>
     <use x="1744.746094" xlink:href="#DejaVuSans-6d"/>
     <use x="1842.158203" xlink:href="#DejaVuSans-56"/>
    </g>
   </g>
  </g>
 </g>
 <defs>
  <clipPath id="pcc1d1798a4">
   <rect height="266.112" width="357.12" x="57.6" y="41.472"/>
  </clipPath>
 </defs>
</svg>
