<?xml version="1.0" encoding="utf-8" standalone="no"?>
<!DOCTYPE svg PUBLIC "-//W3C//DTD SVG 1.1//EN"
  "http://www.w3.org/Graphics/SVG/1.1/DTD/svg11.dtd">
<!-- Created with matplotlib (http://matplotlib.org/) -->
<svg height="345pt" version="1.1" viewBox="0 0 460 345" width="460pt" xmlns="http://www.w3.org/2000/svg" xmlns:xlink="http://www.w3.org/1999/xlink">
 <defs>
  <style type="text/css">
*{stroke-linecap:butt;stroke-linejoin:round;}
  </style>
 </defs>
 <g id="figure_1">
  <g id="patch_1">
   <path d="M 0 345.6 
L 460.8 345.6 
L 460.8 0 
L 0 0 
z
" style="fill:#ffffff;"/>
  </g>
  <g id="axes_1">
   <g id="patch_2">
    <path d="M 57.6 307.584 
L 414.72 307.584 
L 414.72 41.472 
L 57.6 41.472 
z
" style="fill:#ffffff;"/>
   </g>
   <g id="matplotlib.axis_1">
    <g id="xtick_1">
     <g id="line2d_1">
      <defs>
       <path d="M 0 0 
L 0 3.5 
" id="mf803509249" style="stroke:#000000;stroke-width:0.8;"/>
      </defs>
      <g>
       <use style="stroke:#000000;stroke-width:0.8;" x="73.28985" xlink:href="#mf803509249" y="307.584"/>
      </g>
     </g>
     <g id="text_1">
      <!-- 0 -->
      <defs>
       <path d="M 31.78125 66.40625 
Q 24.171875 66.40625 20.328125 58.90625 
Q 16.5 51.421875 16.5 36.375 
Q 16.5 21.390625 20.328125 13.890625 
Q 24.171875 6.390625 31.78125 6.390625 
Q 39.453125 6.390625 43.28125 13.890625 
Q 47.125 21.390625 47.125 36.375 
Q 47.125 51.421875 43.28125 58.90625 
Q 39.453125 66.40625 31.78125 66.40625 
z
M 31.78125 74.21875 
Q 44.046875 74.21875 50.515625 64.515625 
Q 56.984375 54.828125 56.984375 36.375 
Q 56.984375 17.96875 50.515625 8.265625 
Q 44.046875 -1.421875 31.78125 -1.421875 
Q 19.53125 -1.421875 13.0625 8.265625 
Q 6.59375 17.96875 6.59375 36.375 
Q 6.59375 54.828125 13.0625 64.515625 
Q 19.53125 74.21875 31.78125 74.21875 
z
" id="DejaVuSans-30"/>
      </defs>
      <g transform="translate(70.1086 322.182437)scale(0.1 -0.1)">
       <use xlink:href="#DejaVuSans-30"/>
      </g>
     </g>
    </g>
    <g id="xtick_2">
     <g id="line2d_2">
      <g>
       <use style="stroke:#000000;stroke-width:0.8;" x="127.572111" xlink:href="#mf803509249" y="307.584"/>
      </g>
     </g>
     <g id="text_2">
      <!-- 100 -->
      <defs>
       <path d="M 12.40625 8.296875 
L 28.515625 8.296875 
L 28.515625 63.921875 
L 10.984375 60.40625 
L 10.984375 69.390625 
L 28.421875 72.90625 
L 38.28125 72.90625 
L 38.28125 8.296875 
L 54.390625 8.296875 
L 54.390625 0 
L 12.40625 0 
z
" id="DejaVuSans-31"/>
      </defs>
      <g transform="translate(118.028361 322.182437)scale(0.1 -0.1)">
       <use xlink:href="#DejaVuSans-31"/>
       <use x="63.623047" xlink:href="#DejaVuSans-30"/>
       <use x="127.246094" xlink:href="#DejaVuSans-30"/>
      </g>
     </g>
    </g>
    <g id="xtick_3">
     <g id="line2d_3">
      <g>
       <use style="stroke:#000000;stroke-width:0.8;" x="181.854372" xlink:href="#mf803509249" y="307.584"/>
      </g>
     </g>
     <g id="text_3">
      <!-- 200 -->
      <defs>
       <path d="M 19.1875 8.296875 
L 53.609375 8.296875 
L 53.609375 0 
L 7.328125 0 
L 7.328125 8.296875 
Q 12.9375 14.109375 22.625 23.890625 
Q 32.328125 33.6875 34.8125 36.53125 
Q 39.546875 41.84375 41.421875 45.53125 
Q 43.3125 49.21875 43.3125 52.78125 
Q 43.3125 58.59375 39.234375 62.25 
Q 35.15625 65.921875 28.609375 65.921875 
Q 23.96875 65.921875 18.8125 64.3125 
Q 13.671875 62.703125 7.8125 59.421875 
L 7.8125 69.390625 
Q 13.765625 71.78125 18.9375 73 
Q 24.125 74.21875 28.421875 74.21875 
Q 39.75 74.21875 46.484375 68.546875 
Q 53.21875 62.890625 53.21875 53.421875 
Q 53.21875 48.921875 51.53125 44.890625 
Q 49.859375 40.875 45.40625 35.40625 
Q 44.1875 33.984375 37.640625 27.21875 
Q 31.109375 20.453125 19.1875 8.296875 
z
" id="DejaVuSans-32"/>
      </defs>
      <g transform="translate(172.310622 322.182437)scale(0.1 -0.1)">
       <use xlink:href="#DejaVuSans-32"/>
       <use x="63.623047" xlink:href="#DejaVuSans-30"/>
       <use x="127.246094" xlink:href="#DejaVuSans-30"/>
      </g>
     </g>
    </g>
    <g id="xtick_4">
     <g id="line2d_4">
      <g>
       <use style="stroke:#000000;stroke-width:0.8;" x="236.136632" xlink:href="#mf803509249" y="307.584"/>
      </g>
     </g>
     <g id="text_4">
      <!-- 300 -->
      <defs>
       <path d="M 40.578125 39.3125 
Q 47.65625 37.796875 51.625 33 
Q 55.609375 28.21875 55.609375 21.1875 
Q 55.609375 10.40625 48.1875 4.484375 
Q 40.765625 -1.421875 27.09375 -1.421875 
Q 22.515625 -1.421875 17.65625 -0.515625 
Q 12.796875 0.390625 7.625 2.203125 
L 7.625 11.71875 
Q 11.71875 9.328125 16.59375 8.109375 
Q 21.484375 6.890625 26.8125 6.890625 
Q 36.078125 6.890625 40.9375 10.546875 
Q 45.796875 14.203125 45.796875 21.1875 
Q 45.796875 27.640625 41.28125 31.265625 
Q 36.765625 34.90625 28.71875 34.90625 
L 20.21875 34.90625 
L 20.21875 43.015625 
L 29.109375 43.015625 
Q 36.375 43.015625 40.234375 45.921875 
Q 44.09375 48.828125 44.09375 54.296875 
Q 44.09375 59.90625 40.109375 62.90625 
Q 36.140625 65.921875 28.71875 65.921875 
Q 24.65625 65.921875 20.015625 65.03125 
Q 15.375 64.15625 9.8125 62.3125 
L 9.8125 71.09375 
Q 15.4375 72.65625 20.34375 73.4375 
Q 25.25 74.21875 29.59375 74.21875 
Q 40.828125 74.21875 47.359375 69.109375 
Q 53.90625 64.015625 53.90625 55.328125 
Q 53.90625 49.265625 50.4375 45.09375 
Q 46.96875 40.921875 40.578125 39.3125 
z
" id="DejaVuSans-33"/>
      </defs>
      <g transform="translate(226.592882 322.182437)scale(0.1 -0.1)">
       <use xlink:href="#DejaVuSans-33"/>
       <use x="63.623047" xlink:href="#DejaVuSans-30"/>
       <use x="127.246094" xlink:href="#DejaVuSans-30"/>
      </g>
     </g>
    </g>
    <g id="xtick_5">
     <g id="line2d_5">
      <g>
       <use style="stroke:#000000;stroke-width:0.8;" x="290.418893" xlink:href="#mf803509249" y="307.584"/>
      </g>
     </g>
     <g id="text_5">
      <!-- 400 -->
      <defs>
       <path d="M 37.796875 64.3125 
L 12.890625 25.390625 
L 37.796875 25.390625 
z
M 35.203125 72.90625 
L 47.609375 72.90625 
L 47.609375 25.390625 
L 58.015625 25.390625 
L 58.015625 17.1875 
L 47.609375 17.1875 
L 47.609375 0 
L 37.796875 0 
L 37.796875 17.1875 
L 4.890625 17.1875 
L 4.890625 26.703125 
z
" id="DejaVuSans-34"/>
      </defs>
      <g transform="translate(280.875143 322.182437)scale(0.1 -0.1)">
       <use xlink:href="#DejaVuSans-34"/>
       <use x="63.623047" xlink:href="#DejaVuSans-30"/>
       <use x="127.246094" xlink:href="#DejaVuSans-30"/>
      </g>
     </g>
    </g>
    <g id="xtick_6">
     <g id="line2d_6">
      <g>
       <use style="stroke:#000000;stroke-width:0.8;" x="344.701154" xlink:href="#mf803509249" y="307.584"/>
      </g>
     </g>
     <g id="text_6">
      <!-- 500 -->
      <defs>
       <path d="M 10.796875 72.90625 
L 49.515625 72.90625 
L 49.515625 64.59375 
L 19.828125 64.59375 
L 19.828125 46.734375 
Q 21.96875 47.46875 24.109375 47.828125 
Q 26.265625 48.1875 28.421875 48.1875 
Q 40.625 48.1875 47.75 41.5 
Q 54.890625 34.8125 54.890625 23.390625 
Q 54.890625 11.625 47.5625 5.09375 
Q 40.234375 -1.421875 26.90625 -1.421875 
Q 22.3125 -1.421875 17.546875 -0.640625 
Q 12.796875 0.140625 7.71875 1.703125 
L 7.71875 11.625 
Q 12.109375 9.234375 16.796875 8.0625 
Q 21.484375 6.890625 26.703125 6.890625 
Q 35.15625 6.890625 40.078125 11.328125 
Q 45.015625 15.765625 45.015625 23.390625 
Q 45.015625 31 40.078125 35.4375 
Q 35.15625 39.890625 26.703125 39.890625 
Q 22.75 39.890625 18.8125 39.015625 
Q 14.890625 38.140625 10.796875 36.28125 
z
" id="DejaVuSans-35"/>
      </defs>
      <g transform="translate(335.157404 322.182437)scale(0.1 -0.1)">
       <use xlink:href="#DejaVuSans-35"/>
       <use x="63.623047" xlink:href="#DejaVuSans-30"/>
       <use x="127.246094" xlink:href="#DejaVuSans-30"/>
      </g>
     </g>
    </g>
    <g id="xtick_7">
     <g id="line2d_7">
      <g>
       <use style="stroke:#000000;stroke-width:0.8;" x="398.983414" xlink:href="#mf803509249" y="307.584"/>
      </g>
     </g>
     <g id="text_7">
      <!-- 600 -->
      <defs>
       <path d="M 33.015625 40.375 
Q 26.375 40.375 22.484375 35.828125 
Q 18.609375 31.296875 18.609375 23.390625 
Q 18.609375 15.53125 22.484375 10.953125 
Q 26.375 6.390625 33.015625 6.390625 
Q 39.65625 6.390625 43.53125 10.953125 
Q 47.40625 15.53125 47.40625 23.390625 
Q 47.40625 31.296875 43.53125 35.828125 
Q 39.65625 40.375 33.015625 40.375 
z
M 52.59375 71.296875 
L 52.59375 62.3125 
Q 48.875 64.0625 45.09375 64.984375 
Q 41.3125 65.921875 37.59375 65.921875 
Q 27.828125 65.921875 22.671875 59.328125 
Q 17.53125 52.734375 16.796875 39.40625 
Q 19.671875 43.65625 24.015625 45.921875 
Q 28.375 48.1875 33.59375 48.1875 
Q 44.578125 48.1875 50.953125 41.515625 
Q 57.328125 34.859375 57.328125 23.390625 
Q 57.328125 12.15625 50.6875 5.359375 
Q 44.046875 -1.421875 33.015625 -1.421875 
Q 20.359375 -1.421875 13.671875 8.265625 
Q 6.984375 17.96875 6.984375 36.375 
Q 6.984375 53.65625 15.1875 63.9375 
Q 23.390625 74.21875 37.203125 74.21875 
Q 40.921875 74.21875 44.703125 73.484375 
Q 48.484375 72.75 52.59375 71.296875 
z
" id="DejaVuSans-36"/>
      </defs>
      <g transform="translate(389.439664 322.182437)scale(0.1 -0.1)">
       <use xlink:href="#DejaVuSans-36"/>
       <use x="63.623047" xlink:href="#DejaVuSans-30"/>
       <use x="127.246094" xlink:href="#DejaVuSans-30"/>
      </g>
     </g>
    </g>
    <g id="text_8">
     <!-- t(s) -->
     <defs>
      <path d="M 18.3125 70.21875 
L 18.3125 54.6875 
L 36.8125 54.6875 
L 36.8125 47.703125 
L 18.3125 47.703125 
L 18.3125 18.015625 
Q 18.3125 11.328125 20.140625 9.421875 
Q 21.96875 7.515625 27.59375 7.515625 
L 36.8125 7.515625 
L 36.8125 0 
L 27.59375 0 
Q 17.1875 0 13.234375 3.875 
Q 9.28125 7.765625 9.28125 18.015625 
L 9.28125 47.703125 
L 2.6875 47.703125 
L 2.6875 54.6875 
L 9.28125 54.6875 
L 9.28125 70.21875 
z
" id="DejaVuSans-74"/>
      <path d="M 31 75.875 
Q 24.46875 64.65625 21.28125 53.65625 
Q 18.109375 42.671875 18.109375 31.390625 
Q 18.109375 20.125 21.3125 9.0625 
Q 24.515625 -2 31 -13.1875 
L 23.1875 -13.1875 
Q 15.875 -1.703125 12.234375 9.375 
Q 8.59375 20.453125 8.59375 31.390625 
Q 8.59375 42.28125 12.203125 53.3125 
Q 15.828125 64.359375 23.1875 75.875 
z
" id="DejaVuSans-28"/>
      <path d="M 44.28125 53.078125 
L 44.28125 44.578125 
Q 40.484375 46.53125 36.375 47.5 
Q 32.28125 48.484375 27.875 48.484375 
Q 21.1875 48.484375 17.84375 46.4375 
Q 14.5 44.390625 14.5 40.28125 
Q 14.5 37.15625 16.890625 35.375 
Q 19.28125 33.59375 26.515625 31.984375 
L 29.59375 31.296875 
Q 39.15625 29.25 43.1875 25.515625 
Q 47.21875 21.78125 47.21875 15.09375 
Q 47.21875 7.46875 41.1875 3.015625 
Q 35.15625 -1.421875 24.609375 -1.421875 
Q 20.21875 -1.421875 15.453125 -0.5625 
Q 10.6875 0.296875 5.421875 2 
L 5.421875 11.28125 
Q 10.40625 8.6875 15.234375 7.390625 
Q 20.0625 6.109375 24.8125 6.109375 
Q 31.15625 6.109375 34.5625 8.28125 
Q 37.984375 10.453125 37.984375 14.40625 
Q 37.984375 18.0625 35.515625 20.015625 
Q 33.0625 21.96875 24.703125 23.78125 
L 21.578125 24.515625 
Q 13.234375 26.265625 9.515625 29.90625 
Q 5.8125 33.546875 5.8125 39.890625 
Q 5.8125 47.609375 11.28125 51.796875 
Q 16.75 56 26.8125 56 
Q 31.78125 56 36.171875 55.265625 
Q 40.578125 54.546875 44.28125 53.078125 
z
" id="DejaVuSans-73"/>
      <path d="M 8.015625 75.875 
L 15.828125 75.875 
Q 23.140625 64.359375 26.78125 53.3125 
Q 30.421875 42.28125 30.421875 31.390625 
Q 30.421875 20.453125 26.78125 9.375 
Q 23.140625 -1.703125 15.828125 -13.1875 
L 8.015625 -13.1875 
Q 14.5 -2 17.703125 9.0625 
Q 20.90625 20.125 20.90625 31.390625 
Q 20.90625 42.671875 17.703125 53.65625 
Q 14.5 64.65625 8.015625 75.875 
z
" id="DejaVuSans-29"/>
     </defs>
     <g transform="translate(227.693594 335.860562)scale(0.1 -0.1)">
      <use xlink:href="#DejaVuSans-74"/>
      <use x="39.208984" xlink:href="#DejaVuSans-28"/>
      <use x="78.222656" xlink:href="#DejaVuSans-73"/>
      <use x="130.322266" xlink:href="#DejaVuSans-29"/>
     </g>
    </g>
   </g>
   <g id="matplotlib.axis_2">
    <g id="ytick_1">
     <g id="line2d_8">
      <defs>
       <path d="M 0 0 
L -3.5 0 
" id="m2c221fe160" style="stroke:#000000;stroke-width:0.8;"/>
      </defs>
      <g>
       <use style="stroke:#000000;stroke-width:0.8;" x="57.6" xlink:href="#m2c221fe160" y="302.470005"/>
      </g>
     </g>
     <g id="text_9">
      <!-- 42000 -->
      <g transform="translate(18.7875 306.269224)scale(0.1 -0.1)">
       <use xlink:href="#DejaVuSans-34"/>
       <use x="63.623047" xlink:href="#DejaVuSans-32"/>
       <use x="127.246094" xlink:href="#DejaVuSans-30"/>
       <use x="190.869141" xlink:href="#DejaVuSans-30"/>
       <use x="254.492188" xlink:href="#DejaVuSans-30"/>
      </g>
     </g>
    </g>
    <g id="ytick_2">
     <g id="line2d_9">
      <g>
       <use style="stroke:#000000;stroke-width:0.8;" x="57.6" xlink:href="#m2c221fe160" y="253.481002"/>
      </g>
     </g>
     <g id="text_10">
      <!-- 44000 -->
      <g transform="translate(18.7875 257.280221)scale(0.1 -0.1)">
       <use xlink:href="#DejaVuSans-34"/>
       <use x="63.623047" xlink:href="#DejaVuSans-34"/>
       <use x="127.246094" xlink:href="#DejaVuSans-30"/>
       <use x="190.869141" xlink:href="#DejaVuSans-30"/>
       <use x="254.492188" xlink:href="#DejaVuSans-30"/>
      </g>
     </g>
    </g>
    <g id="ytick_3">
     <g id="line2d_10">
      <g>
       <use style="stroke:#000000;stroke-width:0.8;" x="57.6" xlink:href="#m2c221fe160" y="204.491999"/>
      </g>
     </g>
     <g id="text_11">
      <!-- 46000 -->
      <g transform="translate(18.7875 208.291218)scale(0.1 -0.1)">
       <use xlink:href="#DejaVuSans-34"/>
       <use x="63.623047" xlink:href="#DejaVuSans-36"/>
       <use x="127.246094" xlink:href="#DejaVuSans-30"/>
       <use x="190.869141" xlink:href="#DejaVuSans-30"/>
       <use x="254.492188" xlink:href="#DejaVuSans-30"/>
      </g>
     </g>
    </g>
    <g id="ytick_4">
     <g id="line2d_11">
      <g>
       <use style="stroke:#000000;stroke-width:0.8;" x="57.6" xlink:href="#m2c221fe160" y="155.502996"/>
      </g>
     </g>
     <g id="text_12">
      <!-- 48000 -->
      <defs>
       <path d="M 31.78125 34.625 
Q 24.75 34.625 20.71875 30.859375 
Q 16.703125 27.09375 16.703125 20.515625 
Q 16.703125 13.921875 20.71875 10.15625 
Q 24.75 6.390625 31.78125 6.390625 
Q 38.8125 6.390625 42.859375 10.171875 
Q 46.921875 13.96875 46.921875 20.515625 
Q 46.921875 27.09375 42.890625 30.859375 
Q 38.875 34.625 31.78125 34.625 
z
M 21.921875 38.8125 
Q 15.578125 40.375 12.03125 44.71875 
Q 8.5 49.078125 8.5 55.328125 
Q 8.5 64.0625 14.71875 69.140625 
Q 20.953125 74.21875 31.78125 74.21875 
Q 42.671875 74.21875 48.875 69.140625 
Q 55.078125 64.0625 55.078125 55.328125 
Q 55.078125 49.078125 51.53125 44.71875 
Q 48 40.375 41.703125 38.8125 
Q 48.828125 37.15625 52.796875 32.3125 
Q 56.78125 27.484375 56.78125 20.515625 
Q 56.78125 9.90625 50.3125 4.234375 
Q 43.84375 -1.421875 31.78125 -1.421875 
Q 19.734375 -1.421875 13.25 4.234375 
Q 6.78125 9.90625 6.78125 20.515625 
Q 6.78125 27.484375 10.78125 32.3125 
Q 14.796875 37.15625 21.921875 38.8125 
z
M 18.3125 54.390625 
Q 18.3125 48.734375 21.84375 45.5625 
Q 25.390625 42.390625 31.78125 42.390625 
Q 38.140625 42.390625 41.71875 45.5625 
Q 45.3125 48.734375 45.3125 54.390625 
Q 45.3125 60.0625 41.71875 63.234375 
Q 38.140625 66.40625 31.78125 66.40625 
Q 25.390625 66.40625 21.84375 63.234375 
Q 18.3125 60.0625 18.3125 54.390625 
z
" id="DejaVuSans-38"/>
      </defs>
      <g transform="translate(18.7875 159.302215)scale(0.1 -0.1)">
       <use xlink:href="#DejaVuSans-34"/>
       <use x="63.623047" xlink:href="#DejaVuSans-38"/>
       <use x="127.246094" xlink:href="#DejaVuSans-30"/>
       <use x="190.869141" xlink:href="#DejaVuSans-30"/>
       <use x="254.492188" xlink:href="#DejaVuSans-30"/>
      </g>
     </g>
    </g>
    <g id="ytick_5">
     <g id="line2d_12">
      <g>
       <use style="stroke:#000000;stroke-width:0.8;" x="57.6" xlink:href="#m2c221fe160" y="106.513994"/>
      </g>
     </g>
     <g id="text_13">
      <!-- 50000 -->
      <g transform="translate(18.7875 110.313212)scale(0.1 -0.1)">
       <use xlink:href="#DejaVuSans-35"/>
       <use x="63.623047" xlink:href="#DejaVuSans-30"/>
       <use x="127.246094" xlink:href="#DejaVuSans-30"/>
       <use x="190.869141" xlink:href="#DejaVuSans-30"/>
       <use x="254.492188" xlink:href="#DejaVuSans-30"/>
      </g>
     </g>
    </g>
    <g id="ytick_6">
     <g id="line2d_13">
      <g>
       <use style="stroke:#000000;stroke-width:0.8;" x="57.6" xlink:href="#m2c221fe160" y="57.524991"/>
      </g>
     </g>
     <g id="text_14">
      <!-- 52000 -->
      <g transform="translate(18.7875 61.32421)scale(0.1 -0.1)">
       <use xlink:href="#DejaVuSans-35"/>
       <use x="63.623047" xlink:href="#DejaVuSans-32"/>
       <use x="127.246094" xlink:href="#DejaVuSans-30"/>
       <use x="190.869141" xlink:href="#DejaVuSans-30"/>
       <use x="254.492188" xlink:href="#DejaVuSans-30"/>
      </g>
     </g>
    </g>
    <g id="text_15">
     <!-- Resistance (Ohm) -->
     <defs>
      <path d="M 44.390625 34.1875 
Q 47.5625 33.109375 50.5625 29.59375 
Q 53.5625 26.078125 56.59375 19.921875 
L 66.609375 0 
L 56 0 
L 46.6875 18.703125 
Q 43.0625 26.03125 39.671875 28.421875 
Q 36.28125 30.8125 30.421875 30.8125 
L 19.671875 30.8125 
L 19.671875 0 
L 9.8125 0 
L 9.8125 72.90625 
L 32.078125 72.90625 
Q 44.578125 72.90625 50.734375 67.671875 
Q 56.890625 62.453125 56.890625 51.90625 
Q 56.890625 45.015625 53.6875 40.46875 
Q 50.484375 35.9375 44.390625 34.1875 
z
M 19.671875 64.796875 
L 19.671875 38.921875 
L 32.078125 38.921875 
Q 39.203125 38.921875 42.84375 42.21875 
Q 46.484375 45.515625 46.484375 51.90625 
Q 46.484375 58.296875 42.84375 61.546875 
Q 39.203125 64.796875 32.078125 64.796875 
z
" id="DejaVuSans-52"/>
      <path d="M 56.203125 29.59375 
L 56.203125 25.203125 
L 14.890625 25.203125 
Q 15.484375 15.921875 20.484375 11.0625 
Q 25.484375 6.203125 34.421875 6.203125 
Q 39.59375 6.203125 44.453125 7.46875 
Q 49.3125 8.734375 54.109375 11.28125 
L 54.109375 2.78125 
Q 49.265625 0.734375 44.1875 -0.34375 
Q 39.109375 -1.421875 33.890625 -1.421875 
Q 20.796875 -1.421875 13.15625 6.1875 
Q 5.515625 13.8125 5.515625 26.8125 
Q 5.515625 40.234375 12.765625 48.109375 
Q 20.015625 56 32.328125 56 
Q 43.359375 56 49.78125 48.890625 
Q 56.203125 41.796875 56.203125 29.59375 
z
M 47.21875 32.234375 
Q 47.125 39.59375 43.09375 43.984375 
Q 39.0625 48.390625 32.421875 48.390625 
Q 24.90625 48.390625 20.390625 44.140625 
Q 15.875 39.890625 15.1875 32.171875 
z
" id="DejaVuSans-65"/>
      <path d="M 9.421875 54.6875 
L 18.40625 54.6875 
L 18.40625 0 
L 9.421875 0 
z
M 9.421875 75.984375 
L 18.40625 75.984375 
L 18.40625 64.59375 
L 9.421875 64.59375 
z
" id="DejaVuSans-69"/>
      <path d="M 34.28125 27.484375 
Q 23.390625 27.484375 19.1875 25 
Q 14.984375 22.515625 14.984375 16.5 
Q 14.984375 11.71875 18.140625 8.90625 
Q 21.296875 6.109375 26.703125 6.109375 
Q 34.1875 6.109375 38.703125 11.40625 
Q 43.21875 16.703125 43.21875 25.484375 
L 43.21875 27.484375 
z
M 52.203125 31.203125 
L 52.203125 0 
L 43.21875 0 
L 43.21875 8.296875 
Q 40.140625 3.328125 35.546875 0.953125 
Q 30.953125 -1.421875 24.3125 -1.421875 
Q 15.921875 -1.421875 10.953125 3.296875 
Q 6 8.015625 6 15.921875 
Q 6 25.140625 12.171875 29.828125 
Q 18.359375 34.515625 30.609375 34.515625 
L 43.21875 34.515625 
L 43.21875 35.40625 
Q 43.21875 41.609375 39.140625 45 
Q 35.0625 48.390625 27.6875 48.390625 
Q 23 48.390625 18.546875 47.265625 
Q 14.109375 46.140625 10.015625 43.890625 
L 10.015625 52.203125 
Q 14.9375 54.109375 19.578125 55.046875 
Q 24.21875 56 28.609375 56 
Q 40.484375 56 46.34375 49.84375 
Q 52.203125 43.703125 52.203125 31.203125 
z
" id="DejaVuSans-61"/>
      <path d="M 54.890625 33.015625 
L 54.890625 0 
L 45.90625 0 
L 45.90625 32.71875 
Q 45.90625 40.484375 42.875 44.328125 
Q 39.84375 48.1875 33.796875 48.1875 
Q 26.515625 48.1875 22.3125 43.546875 
Q 18.109375 38.921875 18.109375 30.90625 
L 18.109375 0 
L 9.078125 0 
L 9.078125 54.6875 
L 18.109375 54.6875 
L 18.109375 46.1875 
Q 21.34375 51.125 25.703125 53.5625 
Q 30.078125 56 35.796875 56 
Q 45.21875 56 50.046875 50.171875 
Q 54.890625 44.34375 54.890625 33.015625 
z
" id="DejaVuSans-6e"/>
      <path d="M 48.78125 52.59375 
L 48.78125 44.1875 
Q 44.96875 46.296875 41.140625 47.34375 
Q 37.3125 48.390625 33.40625 48.390625 
Q 24.65625 48.390625 19.8125 42.84375 
Q 14.984375 37.3125 14.984375 27.296875 
Q 14.984375 17.28125 19.8125 11.734375 
Q 24.65625 6.203125 33.40625 6.203125 
Q 37.3125 6.203125 41.140625 7.25 
Q 44.96875 8.296875 48.78125 10.40625 
L 48.78125 2.09375 
Q 45.015625 0.34375 40.984375 -0.53125 
Q 36.96875 -1.421875 32.421875 -1.421875 
Q 20.0625 -1.421875 12.78125 6.34375 
Q 5.515625 14.109375 5.515625 27.296875 
Q 5.515625 40.671875 12.859375 48.328125 
Q 20.21875 56 33.015625 56 
Q 37.15625 56 41.109375 55.140625 
Q 45.0625 54.296875 48.78125 52.59375 
z
" id="DejaVuSans-63"/>
      <path id="DejaVuSans-20"/>
      <path d="M 39.40625 66.21875 
Q 28.65625 66.21875 22.328125 58.203125 
Q 16.015625 50.203125 16.015625 36.375 
Q 16.015625 22.609375 22.328125 14.59375 
Q 28.65625 6.59375 39.40625 6.59375 
Q 50.140625 6.59375 56.421875 14.59375 
Q 62.703125 22.609375 62.703125 36.375 
Q 62.703125 50.203125 56.421875 58.203125 
Q 50.140625 66.21875 39.40625 66.21875 
z
M 39.40625 74.21875 
Q 54.734375 74.21875 63.90625 63.9375 
Q 73.09375 53.65625 73.09375 36.375 
Q 73.09375 19.140625 63.90625 8.859375 
Q 54.734375 -1.421875 39.40625 -1.421875 
Q 24.03125 -1.421875 14.8125 8.828125 
Q 5.609375 19.09375 5.609375 36.375 
Q 5.609375 53.65625 14.8125 63.9375 
Q 24.03125 74.21875 39.40625 74.21875 
z
" id="DejaVuSans-4f"/>
      <path d="M 54.890625 33.015625 
L 54.890625 0 
L 45.90625 0 
L 45.90625 32.71875 
Q 45.90625 40.484375 42.875 44.328125 
Q 39.84375 48.1875 33.796875 48.1875 
Q 26.515625 48.1875 22.3125 43.546875 
Q 18.109375 38.921875 18.109375 30.90625 
L 18.109375 0 
L 9.078125 0 
L 9.078125 75.984375 
L 18.109375 75.984375 
L 18.109375 46.1875 
Q 21.34375 51.125 25.703125 53.5625 
Q 30.078125 56 35.796875 56 
Q 45.21875 56 50.046875 50.171875 
Q 54.890625 44.34375 54.890625 33.015625 
z
" id="DejaVuSans-68"/>
      <path d="M 52 44.1875 
Q 55.375 50.25 60.0625 53.125 
Q 64.75 56 71.09375 56 
Q 79.640625 56 84.28125 50.015625 
Q 88.921875 44.046875 88.921875 33.015625 
L 88.921875 0 
L 79.890625 0 
L 79.890625 32.71875 
Q 79.890625 40.578125 77.09375 44.375 
Q 74.3125 48.1875 68.609375 48.1875 
Q 61.625 48.1875 57.5625 43.546875 
Q 53.515625 38.921875 53.515625 30.90625 
L 53.515625 0 
L 44.484375 0 
L 44.484375 32.71875 
Q 44.484375 40.625 41.703125 44.40625 
Q 38.921875 48.1875 33.109375 48.1875 
Q 26.21875 48.1875 22.15625 43.53125 
Q 18.109375 38.875 18.109375 30.90625 
L 18.109375 0 
L 9.078125 0 
L 9.078125 54.6875 
L 18.109375 54.6875 
L 18.109375 46.1875 
Q 21.1875 51.21875 25.484375 53.609375 
Q 29.78125 56 35.6875 56 
Q 41.65625 56 45.828125 52.96875 
Q 50 49.953125 52 44.1875 
z
" id="DejaVuSans-6d"/>
     </defs>
     <g transform="translate(12.707812 219.158469)rotate(-90)scale(0.1 -0.1)">
      <use xlink:href="#DejaVuSans-52"/>
      <use x="69.419922" xlink:href="#DejaVuSans-65"/>
      <use x="130.943359" xlink:href="#DejaVuSans-73"/>
      <use x="183.042969" xlink:href="#DejaVuSans-69"/>
      <use x="210.826172" xlink:href="#DejaVuSans-73"/>
      <use x="262.925781" xlink:href="#DejaVuSans-74"/>
      <use x="302.134766" xlink:href="#DejaVuSans-61"/>
      <use x="363.414062" xlink:href="#DejaVuSans-6e"/>
      <use x="426.792969" xlink:href="#DejaVuSans-63"/>
      <use x="481.773438" xlink:href="#DejaVuSans-65"/>
      <use x="543.296875" xlink:href="#DejaVuSans-20"/>
      <use x="575.083984" xlink:href="#DejaVuSans-28"/>
      <use x="614.097656" xlink:href="#DejaVuSans-4f"/>
      <use x="692.808594" xlink:href="#DejaVuSans-68"/>
      <use x="756.1875" xlink:href="#DejaVuSans-6d"/>
      <use x="853.599609" xlink:href="#DejaVuSans-29"/>
     </g>
    </g>
   </g>
   <g id="line2d_14">
    <path clip-path="url(#p16bfb249d8)" d="M 73.832727 290.085581 
L 74.918481 288.545809 
L 75.461358 286.880022 
L 76.547112 286.718377 
L 77.089989 286.684615 
L 77.632866 288.003777 
L 78.175742 287.573422 
L 78.718619 286.609653 
L 79.261496 287.315939 
L 79.804373 289.850451 
L 80.34725 289.737684 
L 80.890127 291.045548 
L 81.433004 290.105626 
L 81.975881 290.740156 
L 82.518758 288.149574 
L 83.061634 286.776988 
L 83.604511 289.901491 
L 84.147388 290.155865 
L 84.690265 291.096246 
L 85.233142 289.7408 
L 85.776019 289.074501 
L 86.318896 289.058357 
L 86.861773 286.843021 
L 87.40465 291.156514 
L 87.947526 288.053154 
L 88.490403 289.473458 
L 89.03328 288.904198 
L 89.576156 290.186838 
L 90.119521 285.880173 
L 90.662344 287.179539 
L 91.205166 284.680845 
L 91.747989 284.392201 
L 92.290811 285.416138 
L 92.834177 282.857126 
L 93.376999 280.912928 
L 93.919822 284.61367 
L 94.462645 283.070375 
L 95.005467 282.488419 
L 95.54829 280.031385 
L 96.091112 281.10913 
L 96.633935 280.054729 
L 97.176758 280.269521 
L 97.71958 285.595281 
L 98.262403 285.281879 
L 98.805225 287.475037 
L 99.348048 292.708094 
L 99.890871 291.597121 
L 100.433693 294.769953 
L 100.976516 293.309335 
L 101.519338 295.488 
L 103.147806 290.509994 
L 103.690629 289.065918 
L 104.233451 288.427385 
L 104.776274 287.233538 
L 105.319097 287.191675 
L 105.861919 284.746486 
L 106.404742 284.502904 
L 106.947565 282.269851 
L 107.490387 282.779034 
L 108.03321 282.685662 
L 108.576032 280.389395 
L 109.118855 279.128511 
L 109.661678 280.496802 
L 110.2045 278.691339 
L 110.747323 281.250922 
L 111.290145 279.505568 
L 111.832968 281.147537 
L 112.918613 275.618716 
L 113.461436 278.947092 
L 114.004258 280.084204 
L 114.547081 276.834243 
L 115.089904 277.742899 
L 115.632726 277.58819 
L 116.175549 278.133672 
L 116.718371 276.069721 
L 117.261194 277.463698 
L 117.804017 276.386026 
L 118.346839 276.313492 
L 118.889662 274.915143 
L 119.432484 277.787358 
L 119.975307 277.699162 
L 120.51813 277.423828 
L 121.060952 274.774239 
L 121.603775 274.588567 
L 122.146598 274.092594 
L 122.68942 274.425986 
L 123.232243 274.219494 
L 123.775065 273.607242 
L 124.317888 271.166493 
L 124.860711 269.640107 
L 125.403533 271.16227 
L 125.946356 269.928121 
L 126.489178 269.257392 
L 127.032001 270.162588 
L 127.574824 270.743529 
L 128.117646 269.4486 
L 128.660469 270.533005 
L 129.203291 273.454693 
L 129.746114 269.962784 
L 130.288937 269.48613 
L 130.831759 270.628394 
L 131.374582 270.240727 
L 131.917404 268.756 
L 132.460227 268.114277 
L 133.00305 265.489419 
L 133.545872 268.844977 
L 134.088695 265.370599 
L 134.631517 266.374728 
L 135.17434 266.451986 
L 135.717163 263.384091 
L 136.259985 264.109981 
L 136.802808 261.926556 
L 137.888453 260.507239 
L 138.431276 257.761853 
L 138.974098 254.153737 
L 139.516921 253.213875 
L 140.059744 249.93571 
L 140.602566 248.162091 
L 141.145389 243.436751 
L 141.688211 243.180298 
L 142.231034 242.567097 
L 142.773857 239.509379 
L 143.316679 241.752281 
L 143.859502 241.973311 
L 144.402324 243.380729 
L 144.945147 243.118425 
L 145.48797 241.548943 
L 146.030792 241.671926 
L 146.573615 237.633536 
L 147.116437 239.468485 
L 147.65926 237.694388 
L 148.202083 237.957876 
L 148.744905 237.789913 
L 149.287728 235.218468 
L 149.83055 236.672638 
L 150.373373 236.425383 
L 150.916196 236.609116 
L 151.459018 235.256604 
L 152.001841 235.953026 
L 152.544663 234.900645 
L 153.087486 237.001645 
L 153.630309 236.119583 
L 154.173131 239.631728 
L 154.715954 237.187511 
L 155.258777 236.254018 
L 155.801599 237.337806 
L 156.344422 236.650747 
L 156.887244 240.574177 
L 157.430067 236.840964 
L 157.97289 237.17978 
L 158.515712 235.389511 
L 159.601357 238.201806 
L 160.14418 237.051835 
L 160.687003 233.497557 
L 161.229825 238.450417 
L 161.772648 235.670624 
L 162.31547 237.917824 
L 162.858293 235.035778 
L 163.401116 233.796553 
L 163.943938 231.730248 
L 164.486761 234.781245 
L 165.572406 227.85554 
L 166.115229 227.198017 
L 166.658051 225.288819 
L 167.200874 224.106289 
L 167.743696 219.541423 
L 168.286519 223.734705 
L 168.829342 222.218207 
L 169.372164 223.001488 
L 169.914987 223.324515 
L 170.457809 221.333634 
L 171.000632 222.431681 
L 171.543455 219.592475 
L 172.086277 218.923299 
L 172.6291 219.723547 
L 173.171923 220.994722 
L 173.714745 218.566173 
L 174.257568 217.332743 
L 174.80039 219.11452 
L 175.343213 216.083623 
L 175.886036 216.08424 
L 176.428858 215.150508 
L 176.971681 213.558051 
L 177.514503 213.87864 
L 178.057326 212.504195 
L 178.600149 213.238199 
L 179.142971 215.220836 
L 179.685794 213.119411 
L 180.228616 212.357416 
L 180.771439 207.689963 
L 181.314262 206.076246 
L 181.857627 200.994351 
L 182.40045 204.257136 
L 182.943272 205.596708 
L 183.486095 204.628545 
L 184.028917 202.94871 
L 184.57174 202.701241 
L 185.114563 200.558614 
L 185.657385 203.259276 
L 186.200208 203.592806 
L 187.285853 207.228635 
L 187.828676 206.721072 
L 188.371498 207.462154 
L 188.914864 200.916729 
L 189.458229 198.424875 
L 190.001052 202.392522 
L 190.544417 198.144439 
L 191.08724 196.454564 
L 191.630062 195.730361 
L 192.172885 198.239776 
L 192.715708 195.686284 
L 193.25853 199.182244 
L 193.801353 199.632276 
L 194.344175 201.409708 
L 194.886998 197.350699 
L 195.429821 197.765351 
L 195.972643 197.08491 
L 196.515466 199.026484 
L 197.058288 199.325266 
L 197.601111 201.645378 
L 198.143934 198.428839 
L 198.686756 197.537525 
L 199.229579 195.655932 
L 199.772401 196.248584 
L 200.315224 195.271999 
L 200.858047 194.629958 
L 201.400869 193.393812 
L 201.943692 199.175667 
L 202.486515 199.319761 
L 203.029337 204.176657 
L 203.57216 201.384047 
L 204.114982 202.274966 
L 204.657805 206.30249 
L 205.200628 204.407939 
L 205.74345 208.415638 
L 206.286273 207.416015 
L 206.829095 206.116678 
L 207.371918 206.620215 
L 207.914741 207.723448 
L 208.457563 209.403172 
L 209.000386 207.058677 
L 209.543208 206.077335 
L 210.086031 204.865048 
L 210.628854 206.935356 
L 211.171676 206.198694 
L 211.714499 205.956867 
L 212.257321 178.476426 
L 212.800687 179.078303 
L 213.344052 177.027575 
L 213.887418 176.206385 
L 214.430783 185.437958 
L 214.973606 170.330974 
L 215.516428 169.553825 
L 216.059251 168.317777 
L 216.602616 177.714138 
L 217.145439 164.508496 
L 217.688262 162.385475 
L 218.231084 162.037108 
L 218.773907 165.582982 
L 219.316729 165.52988 
L 219.859552 174.291575 
L 220.402375 166.252645 
L 220.94574 171.384037 
L 221.489105 169.794959 
L 222.031928 167.523027 
L 222.575293 167.685962 
L 223.118116 166.53749 
L 223.660939 170.136905 
L 224.203761 166.455006 
L 224.746584 164.872225 
L 225.289407 167.487531 
L 225.832229 167.012124 
L 226.375052 168.982521 
L 226.917874 171.866286 
L 227.460697 169.95086 
L 228.00352 166.951251 
L 228.546342 167.02378 
L 229.089165 167.515755 
L 229.631987 165.614817 
L 230.17481 167.841578 
L 230.717633 164.708412 
L 231.260455 164.937318 
L 231.803278 166.85161 
L 232.3461 165.237227 
L 232.888923 167.0532 
L 233.431746 164.666575 
L 233.974568 166.018435 
L 234.517391 164.91077 
L 235.603036 167.64814 
L 236.145859 167.220025 
L 236.688681 163.165114 
L 237.231504 165.952762 
L 237.774326 162.925898 
L 238.317149 162.326721 
L 238.859972 163.134655 
L 239.402794 161.891717 
L 239.945617 163.078765 
L 240.488439 159.922467 
L 241.031262 160.333304 
L 241.574085 160.150904 
L 242.116907 159.600606 
L 242.65973 158.676983 
L 243.202553 158.330638 
L 243.745375 158.874506 
L 244.288198 155.638189 
L 244.83102 156.917807 
L 245.373843 157.353787 
L 245.916666 155.461373 
L 246.459488 156.066151 
L 247.002311 157.128222 
L 247.545133 155.637252 
L 248.087956 155.727995 
L 248.630779 157.367386 
L 249.173601 156.448012 
L 249.716424 157.099596 
L 250.259246 150.479361 
L 250.802069 158.179351 
L 251.344892 148.255768 
L 251.887714 151.407149 
L 252.430537 151.039687 
L 252.973902 150.296099 
L 253.516725 149.237648 
L 254.059547 147.421226 
L 254.60237 142.606849 
L 255.145193 147.3794 
L 255.688015 146.832615 
L 256.230838 145.272415 
L 256.77366 146.221483 
L 257.316483 146.923253 
L 258.402128 145.43611 
L 258.944951 143.567923 
L 259.487774 140.91845 
L 260.030596 142.158595 
L 260.573419 141.048946 
L 261.116241 140.903998 
L 261.659607 140.916236 
L 262.202972 142.432558 
L 262.746338 138.159983 
L 263.289703 142.179306 
L 263.833069 138.530759 
L 264.376434 138.012413 
L 264.919257 142.00324 
L 266.004902 137.730674 
L 266.547724 138.801842 
L 267.090547 135.124264 
L 267.63337 138.779186 
L 268.176735 138.325639 
L 268.719558 134.627577 
L 269.26238 133.449022 
L 269.805746 134.659846 
L 270.349111 133.94908 
L 270.892477 131.65483 
L 271.435299 131.690817 
L 271.978122 131.354063 
L 272.520944 134.203461 
L 273.06431 130.412269 
L 273.607132 129.551568 
L 274.149955 132.087706 
L 274.692778 132.147286 
L 275.2356 133.717732 
L 275.778423 133.075235 
L 276.321788 129.225051 
L 276.864611 130.144424 
L 277.407433 129.551681 
L 277.950256 130.30319 
L 278.493079 132.168311 
L 279.035901 132.016183 
L 279.578724 131.479049 
L 280.121546 131.789687 
L 280.664369 130.436197 
L 281.207192 131.361019 
L 281.750014 130.521124 
L 282.292837 131.324324 
L 282.835659 133.222678 
L 283.378482 130.459012 
L 283.921305 132.432014 
L 284.464127 133.425987 
L 285.00695 133.755919 
L 285.549773 134.646174 
L 286.092595 135.988387 
L 286.635418 134.332033 
L 287.17824 133.410941 
L 287.721063 133.788382 
L 288.263886 135.509642 
L 288.806708 135.865604 
L 289.349531 132.443552 
L 289.892896 133.960919 
L 290.436262 132.84182 
L 290.979084 135.265486 
L 291.521907 133.963706 
L 292.06473 132.354594 
L 293.150917 132.865014 
L 293.69374 132.297869 
L 294.237105 133.561365 
L 294.779928 128.144517 
L 295.322751 129.993907 
L 295.865573 132.505888 
L 296.408396 130.593069 
L 296.951219 128.139492 
L 297.494041 129.478528 
L 298.036864 128.068327 
L 298.580229 124.342308 
L 299.123595 122.74553 
L 299.666417 119.739137 
L 300.209783 118.339938 
L 300.753148 117.791873 
L 301.296514 115.043328 
L 301.839879 115.687732 
L 302.383244 108.746301 
L 302.926067 107.261874 
L 303.46889 104.805551 
L 304.011712 105.208251 
L 304.554535 107.080789 
L 305.097357 104.968885 
L 305.64018 118.54041 
L 306.183545 111.763887 
L 306.726368 123.635702 
L 307.269191 117.358628 
L 307.812013 119.077856 
L 308.354836 122.7133 
L 308.897659 127.293675 
L 309.440481 122.849381 
L 309.983304 132.762126 
L 310.526126 133.513713 
L 311.068949 135.268232 
L 312.15568 140.396627 
L 312.698502 140.349487 
L 313.241868 136.733459 
L 313.785233 137.495757 
L 314.328056 135.419894 
L 314.870878 128.092111 
L 315.413701 124.421582 
L 315.956524 121.774981 
L 316.499346 120.916401 
L 317.042169 117.797829 
L 317.585534 116.731979 
L 318.1289 116.731878 
L 318.671722 113.640867 
L 319.214545 111.649766 
L 319.757368 108.072345 
L 320.30019 110.354956 
L 320.843013 107.192139 
L 321.385835 106.79929 
L 321.929201 101.001331 
L 322.472023 97.277794 
L 323.014846 97.486509 
L 323.557669 94.420356 
L 324.101034 94.289008 
L 324.643857 93.222394 
L 325.186679 96.828869 
L 325.729502 96.676934 
L 326.272324 100.369351 
L 326.815147 97.331363 
L 327.35797 104.067022 
L 327.900792 106.690328 
L 328.443615 113.129685 
L 328.986437 114.119765 
L 329.52926 111.202514 
L 330.072626 111.836632 
L 330.615991 114.143766 
L 331.158814 117.240414 
L 331.701636 118.115018 
L 332.244459 119.811528 
L 332.787824 119.149897 
L 333.873469 114.132736 
L 334.416292 117.22168 
L 334.959115 118.602154 
L 335.501937 129.797238 
L 336.045303 124.209825 
L 336.588125 121.797961 
L 337.130948 123.442571 
L 337.67377 124.016361 
L 338.216593 125.561897 
L 338.759416 125.841036 
L 339.302238 113.606455 
L 339.845061 108.461884 
L 340.387883 107.598113 
L 340.930706 103.455557 
L 341.473529 103.641372 
L 342.016351 102.267792 
L 342.559174 101.775518 
L 343.101997 102.299894 
L 343.644819 102.659833 
L 344.188185 99.783991 
L 344.73155 101.076567 
L 345.274373 98.464962 
L 345.817738 98.737824 
L 346.361104 93.762126 
L 346.903926 91.925464 
L 347.446749 92.974388 
L 347.990114 92.359297 
L 348.53348 91.062463 
L 349.076302 90.10481 
L 349.619668 87.675226 
L 350.16249 83.52408 
L 350.705313 85.268439 
L 351.248135 81.846823 
L 351.790958 80.230299 
L 352.333781 77.301565 
L 352.876603 78.832268 
L 353.419969 77.454208 
L 353.963334 77.477966 
L 354.5067 75.033482 
L 355.049522 75.962082 
L 355.592345 76.030804 
L 356.135167 78.38497 
L 356.67799 79.224567 
L 357.220813 86.583483 
L 357.763635 84.742267 
L 358.306458 91.306525 
L 358.84928 96.078319 
L 359.392646 97.091275 
L 359.936011 92.673088 
L 360.478834 97.01803 
L 361.021656 96.851576 
L 361.564479 97.793446 
L 362.107302 101.260893 
L 362.650124 102.498602 
L 363.192947 98.784129 
L 363.735769 100.334979 
L 364.278592 102.535483 
L 364.821415 112.166843 
L 365.364237 103.951425 
L 365.907603 109.482861 
L 366.450968 108.381301 
L 367.536613 105.708826 
L 368.079436 87.164574 
L 368.622259 86.7929 
L 369.165624 85.026955 
L 369.708447 79.803322 
L 370.251269 77.04649 
L 370.794635 77.003544 
L 371.337457 76.303724 
L 372.967554 70.669335 
L 373.510376 67.331639 
L 374.053199 67.184399 
L 374.596021 68.361426 
L 375.138844 67.474093 
L 375.681667 65.08311 
L 376.224489 64.550454 
L 376.767312 61.389336 
L 377.310134 60.26167 
L 377.8535 59.778788 
L 378.396322 61.210158 
L 378.939688 68.425467 
L 379.483053 80.343778 
L 380.026419 86.71255 
L 380.569784 90.698484 
L 381.11315 96.340985 
L 382.19988 102.882977 
L 382.742703 99.983571 
L 383.285526 100.995125 
L 383.828891 89.565231 
L 384.371714 89.796748 
L 385.457359 84.412998 
L 386.000182 85.495749 
L 386.543004 80.464157 
L 387.085827 78.359726 
L 387.628649 77.093602 
L 388.171472 76.787005 
L 388.714295 77.08984 
L 389.257117 76.13669 
L 389.800483 71.538045 
L 390.887213 57.380789 
L 391.430036 55.724699 
L 391.972859 54.780545 
L 393.058504 53.568 
L 394.144149 55.968873 
L 394.686972 56.884487 
L 395.229794 59.848598 
L 395.77316 69.890179 
L 396.315982 75.089238 
L 396.858805 74.329767 
L 397.401628 75.241344 
L 397.94445 75.867935 
L 398.487273 75.347211 
L 398.487273 75.347211 
" style="fill:none;stroke:#1f77b4;stroke-linecap:square;stroke-width:1.5;"/>
   </g>
   <g id="patch_3">
    <path d="M 57.6 307.584 
L 57.6 41.472 
" style="fill:none;stroke:#000000;stroke-linecap:square;stroke-linejoin:miter;stroke-width:0.8;"/>
   </g>
   <g id="patch_4">
    <path d="M 414.72 307.584 
L 414.72 41.472 
" style="fill:none;stroke:#000000;stroke-linecap:square;stroke-linejoin:miter;stroke-width:0.8;"/>
   </g>
   <g id="patch_5">
    <path d="M 57.6 307.584 
L 414.72 307.584 
" style="fill:none;stroke:#000000;stroke-linecap:square;stroke-linejoin:miter;stroke-width:0.8;"/>
   </g>
   <g id="patch_6">
    <path d="M 57.6 41.472 
L 414.72 41.472 
" style="fill:none;stroke:#000000;stroke-linecap:square;stroke-linejoin:miter;stroke-width:0.8;"/>
   </g>
   <g id="text_16">
    <!-- Resistance with source voltage 100.0 mV -->
    <defs>
     <path d="M 4.203125 54.6875 
L 13.1875 54.6875 
L 24.421875 12.015625 
L 35.59375 54.6875 
L 46.1875 54.6875 
L 57.421875 12.015625 
L 68.609375 54.6875 
L 77.59375 54.6875 
L 63.28125 0 
L 52.6875 0 
L 40.921875 44.828125 
L 29.109375 0 
L 18.5 0 
z
" id="DejaVuSans-77"/>
     <path d="M 30.609375 48.390625 
Q 23.390625 48.390625 19.1875 42.75 
Q 14.984375 37.109375 14.984375 27.296875 
Q 14.984375 17.484375 19.15625 11.84375 
Q 23.34375 6.203125 30.609375 6.203125 
Q 37.796875 6.203125 41.984375 11.859375 
Q 46.1875 17.53125 46.1875 27.296875 
Q 46.1875 37.015625 41.984375 42.703125 
Q 37.796875 48.390625 30.609375 48.390625 
z
M 30.609375 56 
Q 42.328125 56 49.015625 48.375 
Q 55.71875 40.765625 55.71875 27.296875 
Q 55.71875 13.875 49.015625 6.21875 
Q 42.328125 -1.421875 30.609375 -1.421875 
Q 18.84375 -1.421875 12.171875 6.21875 
Q 5.515625 13.875 5.515625 27.296875 
Q 5.515625 40.765625 12.171875 48.375 
Q 18.84375 56 30.609375 56 
z
" id="DejaVuSans-6f"/>
     <path d="M 8.5 21.578125 
L 8.5 54.6875 
L 17.484375 54.6875 
L 17.484375 21.921875 
Q 17.484375 14.15625 20.5 10.265625 
Q 23.53125 6.390625 29.59375 6.390625 
Q 36.859375 6.390625 41.078125 11.03125 
Q 45.3125 15.671875 45.3125 23.6875 
L 45.3125 54.6875 
L 54.296875 54.6875 
L 54.296875 0 
L 45.3125 0 
L 45.3125 8.40625 
Q 42.046875 3.421875 37.71875 1 
Q 33.40625 -1.421875 27.6875 -1.421875 
Q 18.265625 -1.421875 13.375 4.4375 
Q 8.5 10.296875 8.5 21.578125 
z
M 31.109375 56 
z
" id="DejaVuSans-75"/>
     <path d="M 41.109375 46.296875 
Q 39.59375 47.171875 37.8125 47.578125 
Q 36.03125 48 33.890625 48 
Q 26.265625 48 22.1875 43.046875 
Q 18.109375 38.09375 18.109375 28.8125 
L 18.109375 0 
L 9.078125 0 
L 9.078125 54.6875 
L 18.109375 54.6875 
L 18.109375 46.1875 
Q 20.953125 51.171875 25.484375 53.578125 
Q 30.03125 56 36.53125 56 
Q 37.453125 56 38.578125 55.875 
Q 39.703125 55.765625 41.0625 55.515625 
z
" id="DejaVuSans-72"/>
     <path d="M 2.984375 54.6875 
L 12.5 54.6875 
L 29.59375 8.796875 
L 46.6875 54.6875 
L 56.203125 54.6875 
L 35.6875 0 
L 23.484375 0 
z
" id="DejaVuSans-76"/>
     <path d="M 9.421875 75.984375 
L 18.40625 75.984375 
L 18.40625 0 
L 9.421875 0 
z
" id="DejaVuSans-6c"/>
     <path d="M 45.40625 27.984375 
Q 45.40625 37.75 41.375 43.109375 
Q 37.359375 48.484375 30.078125 48.484375 
Q 22.859375 48.484375 18.828125 43.109375 
Q 14.796875 37.75 14.796875 27.984375 
Q 14.796875 18.265625 18.828125 12.890625 
Q 22.859375 7.515625 30.078125 7.515625 
Q 37.359375 7.515625 41.375 12.890625 
Q 45.40625 18.265625 45.40625 27.984375 
z
M 54.390625 6.78125 
Q 54.390625 -7.171875 48.1875 -13.984375 
Q 42 -20.796875 29.203125 -20.796875 
Q 24.46875 -20.796875 20.265625 -20.09375 
Q 16.0625 -19.390625 12.109375 -17.921875 
L 12.109375 -9.1875 
Q 16.0625 -11.328125 19.921875 -12.34375 
Q 23.78125 -13.375 27.78125 -13.375 
Q 36.625 -13.375 41.015625 -8.765625 
Q 45.40625 -4.15625 45.40625 5.171875 
L 45.40625 9.625 
Q 42.625 4.78125 38.28125 2.390625 
Q 33.9375 0 27.875 0 
Q 17.828125 0 11.671875 7.65625 
Q 5.515625 15.328125 5.515625 27.984375 
Q 5.515625 40.671875 11.671875 48.328125 
Q 17.828125 56 27.875 56 
Q 33.9375 56 38.28125 53.609375 
Q 42.625 51.21875 45.40625 46.390625 
L 45.40625 54.6875 
L 54.390625 54.6875 
z
" id="DejaVuSans-67"/>
     <path d="M 10.6875 12.40625 
L 21 12.40625 
L 21 0 
L 10.6875 0 
z
" id="DejaVuSans-2e"/>
     <path d="M 28.609375 0 
L 0.78125 72.90625 
L 11.078125 72.90625 
L 34.1875 11.53125 
L 57.328125 72.90625 
L 67.578125 72.90625 
L 39.796875 0 
z
" id="DejaVuSans-56"/>
    </defs>
    <g transform="translate(111.699375 35.472)scale(0.12 -0.12)">
     <use xlink:href="#DejaVuSans-52"/>
     <use x="69.419922" xlink:href="#DejaVuSans-65"/>
     <use x="130.943359" xlink:href="#DejaVuSans-73"/>
     <use x="183.042969" xlink:href="#DejaVuSans-69"/>
     <use x="210.826172" xlink:href="#DejaVuSans-73"/>
     <use x="262.925781" xlink:href="#DejaVuSans-74"/>
     <use x="302.134766" xlink:href="#DejaVuSans-61"/>
     <use x="363.414062" xlink:href="#DejaVuSans-6e"/>
     <use x="426.792969" xlink:href="#DejaVuSans-63"/>
     <use x="481.773438" xlink:href="#DejaVuSans-65"/>
     <use x="543.296875" xlink:href="#DejaVuSans-20"/>
     <use x="575.083984" xlink:href="#DejaVuSans-77"/>
     <use x="656.871094" xlink:href="#DejaVuSans-69"/>
     <use x="684.654297" xlink:href="#DejaVuSans-74"/>
     <use x="723.863281" xlink:href="#DejaVuSans-68"/>
     <use x="787.242188" xlink:href="#DejaVuSans-20"/>
     <use x="819.029297" xlink:href="#DejaVuSans-73"/>
     <use x="871.128906" xlink:href="#DejaVuSans-6f"/>
     <use x="932.310547" xlink:href="#DejaVuSans-75"/>
     <use x="995.689453" xlink:href="#DejaVuSans-72"/>
     <use x="1036.771484" xlink:href="#DejaVuSans-63"/>
     <use x="1091.751953" xlink:href="#DejaVuSans-65"/>
     <use x="1153.275391" xlink:href="#DejaVuSans-20"/>
     <use x="1185.0625" xlink:href="#DejaVuSans-76"/>
     <use x="1244.242188" xlink:href="#DejaVuSans-6f"/>
     <use x="1305.423828" xlink:href="#DejaVuSans-6c"/>
     <use x="1333.207031" xlink:href="#DejaVuSans-74"/>
     <use x="1372.416016" xlink:href="#DejaVuSans-61"/>
     <use x="1433.695312" xlink:href="#DejaVuSans-67"/>
     <use x="1497.171875" xlink:href="#DejaVuSans-65"/>
     <use x="1558.695312" xlink:href="#DejaVuSans-20"/>
     <use x="1590.482422" xlink:href="#DejaVuSans-31"/>
     <use x="1654.105469" xlink:href="#DejaVuSans-30"/>
     <use x="1717.728516" xlink:href="#DejaVuSans-30"/>
     <use x="1781.351562" xlink:href="#DejaVuSans-2e"/>
     <use x="1813.138672" xlink:href="#DejaVuSans-30"/>
     <use x="1876.761719" xlink:href="#DejaVuSans-20"/>
     <use x="1908.548828" xlink:href="#DejaVuSans-6d"/>
     <use x="2005.960938" xlink:href="#DejaVuSans-56"/>
    </g>
   </g>
  </g>
 </g>
 <defs>
  <clipPath id="p16bfb249d8">
   <rect height="266.112" width="357.12" x="57.6" y="41.472"/>
  </clipPath>
 </defs>
</svg>
