<?xml version="1.0" encoding="utf-8" standalone="no"?>
<!DOCTYPE svg PUBLIC "-//W3C//DTD SVG 1.1//EN"
  "http://www.w3.org/Graphics/SVG/1.1/DTD/svg11.dtd">
<!-- Created with matplotlib (http://matplotlib.org/) -->
<svg height="345pt" version="1.1" viewBox="0 0 460 345" width="460pt" xmlns="http://www.w3.org/2000/svg" xmlns:xlink="http://www.w3.org/1999/xlink">
 <defs>
  <style type="text/css">
*{stroke-linecap:butt;stroke-linejoin:round;}
  </style>
 </defs>
 <g id="figure_1">
  <g id="patch_1">
   <path d="M 0 345.6 
L 460.8 345.6 
L 460.8 0 
L 0 0 
z
" style="fill:#ffffff;"/>
  </g>
  <g id="axes_1">
   <g id="patch_2">
    <path d="M 57.6 307.584 
L 414.72 307.584 
L 414.72 41.472 
L 57.6 41.472 
z
" style="fill:#ffffff;"/>
   </g>
   <g id="matplotlib.axis_1">
    <g id="xtick_1">
     <g id="line2d_1">
      <defs>
       <path d="M 0 0 
L 0 3.5 
" id="m2566645b56" style="stroke:#000000;stroke-width:0.8;"/>
      </defs>
      <g>
       <use style="stroke:#000000;stroke-width:0.8;" x="73.832727" xlink:href="#m2566645b56" y="307.584"/>
      </g>
     </g>
     <g id="text_1">
      <!-- 0 -->
      <defs>
       <path d="M 31.78125 66.40625 
Q 24.171875 66.40625 20.328125 58.90625 
Q 16.5 51.421875 16.5 36.375 
Q 16.5 21.390625 20.328125 13.890625 
Q 24.171875 6.390625 31.78125 6.390625 
Q 39.453125 6.390625 43.28125 13.890625 
Q 47.125 21.390625 47.125 36.375 
Q 47.125 51.421875 43.28125 58.90625 
Q 39.453125 66.40625 31.78125 66.40625 
z
M 31.78125 74.21875 
Q 44.046875 74.21875 50.515625 64.515625 
Q 56.984375 54.828125 56.984375 36.375 
Q 56.984375 17.96875 50.515625 8.265625 
Q 44.046875 -1.421875 31.78125 -1.421875 
Q 19.53125 -1.421875 13.0625 8.265625 
Q 6.59375 17.96875 6.59375 36.375 
Q 6.59375 54.828125 13.0625 64.515625 
Q 19.53125 74.21875 31.78125 74.21875 
z
" id="DejaVuSans-30"/>
      </defs>
      <g transform="translate(70.651477 322.182437)scale(0.1 -0.1)">
       <use xlink:href="#DejaVuSans-30"/>
      </g>
     </g>
    </g>
    <g id="xtick_2">
     <g id="line2d_2">
      <g>
       <use style="stroke:#000000;stroke-width:0.8;" x="127.959328" xlink:href="#m2566645b56" y="307.584"/>
      </g>
     </g>
     <g id="text_2">
      <!-- 100 -->
      <defs>
       <path d="M 12.40625 8.296875 
L 28.515625 8.296875 
L 28.515625 63.921875 
L 10.984375 60.40625 
L 10.984375 69.390625 
L 28.421875 72.90625 
L 38.28125 72.90625 
L 38.28125 8.296875 
L 54.390625 8.296875 
L 54.390625 0 
L 12.40625 0 
z
" id="DejaVuSans-31"/>
      </defs>
      <g transform="translate(118.415578 322.182437)scale(0.1 -0.1)">
       <use xlink:href="#DejaVuSans-31"/>
       <use x="63.623047" xlink:href="#DejaVuSans-30"/>
       <use x="127.246094" xlink:href="#DejaVuSans-30"/>
      </g>
     </g>
    </g>
    <g id="xtick_3">
     <g id="line2d_3">
      <g>
       <use style="stroke:#000000;stroke-width:0.8;" x="182.085929" xlink:href="#m2566645b56" y="307.584"/>
      </g>
     </g>
     <g id="text_3">
      <!-- 200 -->
      <defs>
       <path d="M 19.1875 8.296875 
L 53.609375 8.296875 
L 53.609375 0 
L 7.328125 0 
L 7.328125 8.296875 
Q 12.9375 14.109375 22.625 23.890625 
Q 32.328125 33.6875 34.8125 36.53125 
Q 39.546875 41.84375 41.421875 45.53125 
Q 43.3125 49.21875 43.3125 52.78125 
Q 43.3125 58.59375 39.234375 62.25 
Q 35.15625 65.921875 28.609375 65.921875 
Q 23.96875 65.921875 18.8125 64.3125 
Q 13.671875 62.703125 7.8125 59.421875 
L 7.8125 69.390625 
Q 13.765625 71.78125 18.9375 73 
Q 24.125 74.21875 28.421875 74.21875 
Q 39.75 74.21875 46.484375 68.546875 
Q 53.21875 62.890625 53.21875 53.421875 
Q 53.21875 48.921875 51.53125 44.890625 
Q 49.859375 40.875 45.40625 35.40625 
Q 44.1875 33.984375 37.640625 27.21875 
Q 31.109375 20.453125 19.1875 8.296875 
z
" id="DejaVuSans-32"/>
      </defs>
      <g transform="translate(172.542179 322.182437)scale(0.1 -0.1)">
       <use xlink:href="#DejaVuSans-32"/>
       <use x="63.623047" xlink:href="#DejaVuSans-30"/>
       <use x="127.246094" xlink:href="#DejaVuSans-30"/>
      </g>
     </g>
    </g>
    <g id="xtick_4">
     <g id="line2d_4">
      <g>
       <use style="stroke:#000000;stroke-width:0.8;" x="236.21253" xlink:href="#m2566645b56" y="307.584"/>
      </g>
     </g>
     <g id="text_4">
      <!-- 300 -->
      <defs>
       <path d="M 40.578125 39.3125 
Q 47.65625 37.796875 51.625 33 
Q 55.609375 28.21875 55.609375 21.1875 
Q 55.609375 10.40625 48.1875 4.484375 
Q 40.765625 -1.421875 27.09375 -1.421875 
Q 22.515625 -1.421875 17.65625 -0.515625 
Q 12.796875 0.390625 7.625 2.203125 
L 7.625 11.71875 
Q 11.71875 9.328125 16.59375 8.109375 
Q 21.484375 6.890625 26.8125 6.890625 
Q 36.078125 6.890625 40.9375 10.546875 
Q 45.796875 14.203125 45.796875 21.1875 
Q 45.796875 27.640625 41.28125 31.265625 
Q 36.765625 34.90625 28.71875 34.90625 
L 20.21875 34.90625 
L 20.21875 43.015625 
L 29.109375 43.015625 
Q 36.375 43.015625 40.234375 45.921875 
Q 44.09375 48.828125 44.09375 54.296875 
Q 44.09375 59.90625 40.109375 62.90625 
Q 36.140625 65.921875 28.71875 65.921875 
Q 24.65625 65.921875 20.015625 65.03125 
Q 15.375 64.15625 9.8125 62.3125 
L 9.8125 71.09375 
Q 15.4375 72.65625 20.34375 73.4375 
Q 25.25 74.21875 29.59375 74.21875 
Q 40.828125 74.21875 47.359375 69.109375 
Q 53.90625 64.015625 53.90625 55.328125 
Q 53.90625 49.265625 50.4375 45.09375 
Q 46.96875 40.921875 40.578125 39.3125 
z
" id="DejaVuSans-33"/>
      </defs>
      <g transform="translate(226.66878 322.182437)scale(0.1 -0.1)">
       <use xlink:href="#DejaVuSans-33"/>
       <use x="63.623047" xlink:href="#DejaVuSans-30"/>
       <use x="127.246094" xlink:href="#DejaVuSans-30"/>
      </g>
     </g>
    </g>
    <g id="xtick_5">
     <g id="line2d_5">
      <g>
       <use style="stroke:#000000;stroke-width:0.8;" x="290.339131" xlink:href="#m2566645b56" y="307.584"/>
      </g>
     </g>
     <g id="text_5">
      <!-- 400 -->
      <defs>
       <path d="M 37.796875 64.3125 
L 12.890625 25.390625 
L 37.796875 25.390625 
z
M 35.203125 72.90625 
L 47.609375 72.90625 
L 47.609375 25.390625 
L 58.015625 25.390625 
L 58.015625 17.1875 
L 47.609375 17.1875 
L 47.609375 0 
L 37.796875 0 
L 37.796875 17.1875 
L 4.890625 17.1875 
L 4.890625 26.703125 
z
" id="DejaVuSans-34"/>
      </defs>
      <g transform="translate(280.795381 322.182437)scale(0.1 -0.1)">
       <use xlink:href="#DejaVuSans-34"/>
       <use x="63.623047" xlink:href="#DejaVuSans-30"/>
       <use x="127.246094" xlink:href="#DejaVuSans-30"/>
      </g>
     </g>
    </g>
    <g id="xtick_6">
     <g id="line2d_6">
      <g>
       <use style="stroke:#000000;stroke-width:0.8;" x="344.465732" xlink:href="#m2566645b56" y="307.584"/>
      </g>
     </g>
     <g id="text_6">
      <!-- 500 -->
      <defs>
       <path d="M 10.796875 72.90625 
L 49.515625 72.90625 
L 49.515625 64.59375 
L 19.828125 64.59375 
L 19.828125 46.734375 
Q 21.96875 47.46875 24.109375 47.828125 
Q 26.265625 48.1875 28.421875 48.1875 
Q 40.625 48.1875 47.75 41.5 
Q 54.890625 34.8125 54.890625 23.390625 
Q 54.890625 11.625 47.5625 5.09375 
Q 40.234375 -1.421875 26.90625 -1.421875 
Q 22.3125 -1.421875 17.546875 -0.640625 
Q 12.796875 0.140625 7.71875 1.703125 
L 7.71875 11.625 
Q 12.109375 9.234375 16.796875 8.0625 
Q 21.484375 6.890625 26.703125 6.890625 
Q 35.15625 6.890625 40.078125 11.328125 
Q 45.015625 15.765625 45.015625 23.390625 
Q 45.015625 31 40.078125 35.4375 
Q 35.15625 39.890625 26.703125 39.890625 
Q 22.75 39.890625 18.8125 39.015625 
Q 14.890625 38.140625 10.796875 36.28125 
z
" id="DejaVuSans-35"/>
      </defs>
      <g transform="translate(334.921982 322.182437)scale(0.1 -0.1)">
       <use xlink:href="#DejaVuSans-35"/>
       <use x="63.623047" xlink:href="#DejaVuSans-30"/>
       <use x="127.246094" xlink:href="#DejaVuSans-30"/>
      </g>
     </g>
    </g>
    <g id="xtick_7">
     <g id="line2d_7">
      <g>
       <use style="stroke:#000000;stroke-width:0.8;" x="398.592332" xlink:href="#m2566645b56" y="307.584"/>
      </g>
     </g>
     <g id="text_7">
      <!-- 600 -->
      <defs>
       <path d="M 33.015625 40.375 
Q 26.375 40.375 22.484375 35.828125 
Q 18.609375 31.296875 18.609375 23.390625 
Q 18.609375 15.53125 22.484375 10.953125 
Q 26.375 6.390625 33.015625 6.390625 
Q 39.65625 6.390625 43.53125 10.953125 
Q 47.40625 15.53125 47.40625 23.390625 
Q 47.40625 31.296875 43.53125 35.828125 
Q 39.65625 40.375 33.015625 40.375 
z
M 52.59375 71.296875 
L 52.59375 62.3125 
Q 48.875 64.0625 45.09375 64.984375 
Q 41.3125 65.921875 37.59375 65.921875 
Q 27.828125 65.921875 22.671875 59.328125 
Q 17.53125 52.734375 16.796875 39.40625 
Q 19.671875 43.65625 24.015625 45.921875 
Q 28.375 48.1875 33.59375 48.1875 
Q 44.578125 48.1875 50.953125 41.515625 
Q 57.328125 34.859375 57.328125 23.390625 
Q 57.328125 12.15625 50.6875 5.359375 
Q 44.046875 -1.421875 33.015625 -1.421875 
Q 20.359375 -1.421875 13.671875 8.265625 
Q 6.984375 17.96875 6.984375 36.375 
Q 6.984375 53.65625 15.1875 63.9375 
Q 23.390625 74.21875 37.203125 74.21875 
Q 40.921875 74.21875 44.703125 73.484375 
Q 48.484375 72.75 52.59375 71.296875 
z
" id="DejaVuSans-36"/>
      </defs>
      <g transform="translate(389.048582 322.182437)scale(0.1 -0.1)">
       <use xlink:href="#DejaVuSans-36"/>
       <use x="63.623047" xlink:href="#DejaVuSans-30"/>
       <use x="127.246094" xlink:href="#DejaVuSans-30"/>
      </g>
     </g>
    </g>
    <g id="text_8">
     <!-- t(s) -->
     <defs>
      <path d="M 18.3125 70.21875 
L 18.3125 54.6875 
L 36.8125 54.6875 
L 36.8125 47.703125 
L 18.3125 47.703125 
L 18.3125 18.015625 
Q 18.3125 11.328125 20.140625 9.421875 
Q 21.96875 7.515625 27.59375 7.515625 
L 36.8125 7.515625 
L 36.8125 0 
L 27.59375 0 
Q 17.1875 0 13.234375 3.875 
Q 9.28125 7.765625 9.28125 18.015625 
L 9.28125 47.703125 
L 2.6875 47.703125 
L 2.6875 54.6875 
L 9.28125 54.6875 
L 9.28125 70.21875 
z
" id="DejaVuSans-74"/>
      <path d="M 31 75.875 
Q 24.46875 64.65625 21.28125 53.65625 
Q 18.109375 42.671875 18.109375 31.390625 
Q 18.109375 20.125 21.3125 9.0625 
Q 24.515625 -2 31 -13.1875 
L 23.1875 -13.1875 
Q 15.875 -1.703125 12.234375 9.375 
Q 8.59375 20.453125 8.59375 31.390625 
Q 8.59375 42.28125 12.203125 53.3125 
Q 15.828125 64.359375 23.1875 75.875 
z
" id="DejaVuSans-28"/>
      <path d="M 44.28125 53.078125 
L 44.28125 44.578125 
Q 40.484375 46.53125 36.375 47.5 
Q 32.28125 48.484375 27.875 48.484375 
Q 21.1875 48.484375 17.84375 46.4375 
Q 14.5 44.390625 14.5 40.28125 
Q 14.5 37.15625 16.890625 35.375 
Q 19.28125 33.59375 26.515625 31.984375 
L 29.59375 31.296875 
Q 39.15625 29.25 43.1875 25.515625 
Q 47.21875 21.78125 47.21875 15.09375 
Q 47.21875 7.46875 41.1875 3.015625 
Q 35.15625 -1.421875 24.609375 -1.421875 
Q 20.21875 -1.421875 15.453125 -0.5625 
Q 10.6875 0.296875 5.421875 2 
L 5.421875 11.28125 
Q 10.40625 8.6875 15.234375 7.390625 
Q 20.0625 6.109375 24.8125 6.109375 
Q 31.15625 6.109375 34.5625 8.28125 
Q 37.984375 10.453125 37.984375 14.40625 
Q 37.984375 18.0625 35.515625 20.015625 
Q 33.0625 21.96875 24.703125 23.78125 
L 21.578125 24.515625 
Q 13.234375 26.265625 9.515625 29.90625 
Q 5.8125 33.546875 5.8125 39.890625 
Q 5.8125 47.609375 11.28125 51.796875 
Q 16.75 56 26.8125 56 
Q 31.78125 56 36.171875 55.265625 
Q 40.578125 54.546875 44.28125 53.078125 
z
" id="DejaVuSans-73"/>
      <path d="M 8.015625 75.875 
L 15.828125 75.875 
Q 23.140625 64.359375 26.78125 53.3125 
Q 30.421875 42.28125 30.421875 31.390625 
Q 30.421875 20.453125 26.78125 9.375 
Q 23.140625 -1.703125 15.828125 -13.1875 
L 8.015625 -13.1875 
Q 14.5 -2 17.703125 9.0625 
Q 20.90625 20.125 20.90625 31.390625 
Q 20.90625 42.671875 17.703125 53.65625 
Q 14.5 64.65625 8.015625 75.875 
z
" id="DejaVuSans-29"/>
     </defs>
     <g transform="translate(227.693594 335.860562)scale(0.1 -0.1)">
      <use xlink:href="#DejaVuSans-74"/>
      <use x="39.208984" xlink:href="#DejaVuSans-28"/>
      <use x="78.222656" xlink:href="#DejaVuSans-73"/>
      <use x="130.322266" xlink:href="#DejaVuSans-29"/>
     </g>
    </g>
   </g>
   <g id="matplotlib.axis_2">
    <g id="ytick_1">
     <g id="line2d_8">
      <defs>
       <path d="M 0 0 
L -3.5 0 
" id="m2da1eaa38b" style="stroke:#000000;stroke-width:0.8;"/>
      </defs>
      <g>
       <use style="stroke:#000000;stroke-width:0.8;" x="57.6" xlink:href="#m2da1eaa38b" y="275.891128"/>
      </g>
     </g>
     <g id="text_9">
      <!-- −0.00003 -->
      <defs>
       <path d="M 10.59375 35.5 
L 73.1875 35.5 
L 73.1875 27.203125 
L 10.59375 27.203125 
z
" id="DejaVuSans-2212"/>
       <path d="M 10.6875 12.40625 
L 21 12.40625 
L 21 0 
L 10.6875 0 
z
" id="DejaVuSans-2e"/>
      </defs>
      <g transform="translate(0.867188 279.690347)scale(0.1 -0.1)">
       <use xlink:href="#DejaVuSans-2212"/>
       <use x="83.789062" xlink:href="#DejaVuSans-30"/>
       <use x="147.412109" xlink:href="#DejaVuSans-2e"/>
       <use x="179.199219" xlink:href="#DejaVuSans-30"/>
       <use x="242.822266" xlink:href="#DejaVuSans-30"/>
       <use x="306.445312" xlink:href="#DejaVuSans-30"/>
       <use x="370.068359" xlink:href="#DejaVuSans-30"/>
       <use x="433.691406" xlink:href="#DejaVuSans-33"/>
      </g>
     </g>
    </g>
    <g id="ytick_2">
     <g id="line2d_9">
      <g>
       <use style="stroke:#000000;stroke-width:0.8;" x="57.6" xlink:href="#m2da1eaa38b" y="242.103419"/>
      </g>
     </g>
     <g id="text_10">
      <!-- −0.00002 -->
      <g transform="translate(0.867188 245.902638)scale(0.1 -0.1)">
       <use xlink:href="#DejaVuSans-2212"/>
       <use x="83.789062" xlink:href="#DejaVuSans-30"/>
       <use x="147.412109" xlink:href="#DejaVuSans-2e"/>
       <use x="179.199219" xlink:href="#DejaVuSans-30"/>
       <use x="242.822266" xlink:href="#DejaVuSans-30"/>
       <use x="306.445312" xlink:href="#DejaVuSans-30"/>
       <use x="370.068359" xlink:href="#DejaVuSans-30"/>
       <use x="433.691406" xlink:href="#DejaVuSans-32"/>
      </g>
     </g>
    </g>
    <g id="ytick_3">
     <g id="line2d_10">
      <g>
       <use style="stroke:#000000;stroke-width:0.8;" x="57.6" xlink:href="#m2da1eaa38b" y="208.315709"/>
      </g>
     </g>
     <g id="text_11">
      <!-- −0.00001 -->
      <g transform="translate(0.867188 212.114928)scale(0.1 -0.1)">
       <use xlink:href="#DejaVuSans-2212"/>
       <use x="83.789062" xlink:href="#DejaVuSans-30"/>
       <use x="147.412109" xlink:href="#DejaVuSans-2e"/>
       <use x="179.199219" xlink:href="#DejaVuSans-30"/>
       <use x="242.822266" xlink:href="#DejaVuSans-30"/>
       <use x="306.445312" xlink:href="#DejaVuSans-30"/>
       <use x="370.068359" xlink:href="#DejaVuSans-30"/>
       <use x="433.691406" xlink:href="#DejaVuSans-31"/>
      </g>
     </g>
    </g>
    <g id="ytick_4">
     <g id="line2d_11">
      <g>
       <use style="stroke:#000000;stroke-width:0.8;" x="57.6" xlink:href="#m2da1eaa38b" y="174.528"/>
      </g>
     </g>
     <g id="text_12">
      <!-- 0.00000 -->
      <g transform="translate(9.246875 178.327219)scale(0.1 -0.1)">
       <use xlink:href="#DejaVuSans-30"/>
       <use x="63.623047" xlink:href="#DejaVuSans-2e"/>
       <use x="95.410156" xlink:href="#DejaVuSans-30"/>
       <use x="159.033203" xlink:href="#DejaVuSans-30"/>
       <use x="222.65625" xlink:href="#DejaVuSans-30"/>
       <use x="286.279297" xlink:href="#DejaVuSans-30"/>
       <use x="349.902344" xlink:href="#DejaVuSans-30"/>
      </g>
     </g>
    </g>
    <g id="ytick_5">
     <g id="line2d_12">
      <g>
       <use style="stroke:#000000;stroke-width:0.8;" x="57.6" xlink:href="#m2da1eaa38b" y="140.740291"/>
      </g>
     </g>
     <g id="text_13">
      <!-- 0.00001 -->
      <g transform="translate(9.246875 144.539509)scale(0.1 -0.1)">
       <use xlink:href="#DejaVuSans-30"/>
       <use x="63.623047" xlink:href="#DejaVuSans-2e"/>
       <use x="95.410156" xlink:href="#DejaVuSans-30"/>
       <use x="159.033203" xlink:href="#DejaVuSans-30"/>
       <use x="222.65625" xlink:href="#DejaVuSans-30"/>
       <use x="286.279297" xlink:href="#DejaVuSans-30"/>
       <use x="349.902344" xlink:href="#DejaVuSans-31"/>
      </g>
     </g>
    </g>
    <g id="ytick_6">
     <g id="line2d_13">
      <g>
       <use style="stroke:#000000;stroke-width:0.8;" x="57.6" xlink:href="#m2da1eaa38b" y="106.952581"/>
      </g>
     </g>
     <g id="text_14">
      <!-- 0.00002 -->
      <g transform="translate(9.246875 110.7518)scale(0.1 -0.1)">
       <use xlink:href="#DejaVuSans-30"/>
       <use x="63.623047" xlink:href="#DejaVuSans-2e"/>
       <use x="95.410156" xlink:href="#DejaVuSans-30"/>
       <use x="159.033203" xlink:href="#DejaVuSans-30"/>
       <use x="222.65625" xlink:href="#DejaVuSans-30"/>
       <use x="286.279297" xlink:href="#DejaVuSans-30"/>
       <use x="349.902344" xlink:href="#DejaVuSans-32"/>
      </g>
     </g>
    </g>
    <g id="ytick_7">
     <g id="line2d_14">
      <g>
       <use style="stroke:#000000;stroke-width:0.8;" x="57.6" xlink:href="#m2da1eaa38b" y="73.164872"/>
      </g>
     </g>
     <g id="text_15">
      <!-- 0.00003 -->
      <g transform="translate(9.246875 76.96409)scale(0.1 -0.1)">
       <use xlink:href="#DejaVuSans-30"/>
       <use x="63.623047" xlink:href="#DejaVuSans-2e"/>
       <use x="95.410156" xlink:href="#DejaVuSans-30"/>
       <use x="159.033203" xlink:href="#DejaVuSans-30"/>
       <use x="222.65625" xlink:href="#DejaVuSans-30"/>
       <use x="286.279297" xlink:href="#DejaVuSans-30"/>
       <use x="349.902344" xlink:href="#DejaVuSans-33"/>
      </g>
     </g>
    </g>
    <g id="text_16">
     <!-- Voltage (V) -->
     <defs>
      <path d="M 28.609375 0 
L 0.78125 72.90625 
L 11.078125 72.90625 
L 34.1875 11.53125 
L 57.328125 72.90625 
L 67.578125 72.90625 
L 39.796875 0 
z
" id="DejaVuSans-56"/>
      <path d="M 30.609375 48.390625 
Q 23.390625 48.390625 19.1875 42.75 
Q 14.984375 37.109375 14.984375 27.296875 
Q 14.984375 17.484375 19.15625 11.84375 
Q 23.34375 6.203125 30.609375 6.203125 
Q 37.796875 6.203125 41.984375 11.859375 
Q 46.1875 17.53125 46.1875 27.296875 
Q 46.1875 37.015625 41.984375 42.703125 
Q 37.796875 48.390625 30.609375 48.390625 
z
M 30.609375 56 
Q 42.328125 56 49.015625 48.375 
Q 55.71875 40.765625 55.71875 27.296875 
Q 55.71875 13.875 49.015625 6.21875 
Q 42.328125 -1.421875 30.609375 -1.421875 
Q 18.84375 -1.421875 12.171875 6.21875 
Q 5.515625 13.875 5.515625 27.296875 
Q 5.515625 40.765625 12.171875 48.375 
Q 18.84375 56 30.609375 56 
z
" id="DejaVuSans-6f"/>
      <path d="M 9.421875 75.984375 
L 18.40625 75.984375 
L 18.40625 0 
L 9.421875 0 
z
" id="DejaVuSans-6c"/>
      <path d="M 34.28125 27.484375 
Q 23.390625 27.484375 19.1875 25 
Q 14.984375 22.515625 14.984375 16.5 
Q 14.984375 11.71875 18.140625 8.90625 
Q 21.296875 6.109375 26.703125 6.109375 
Q 34.1875 6.109375 38.703125 11.40625 
Q 43.21875 16.703125 43.21875 25.484375 
L 43.21875 27.484375 
z
M 52.203125 31.203125 
L 52.203125 0 
L 43.21875 0 
L 43.21875 8.296875 
Q 40.140625 3.328125 35.546875 0.953125 
Q 30.953125 -1.421875 24.3125 -1.421875 
Q 15.921875 -1.421875 10.953125 3.296875 
Q 6 8.015625 6 15.921875 
Q 6 25.140625 12.171875 29.828125 
Q 18.359375 34.515625 30.609375 34.515625 
L 43.21875 34.515625 
L 43.21875 35.40625 
Q 43.21875 41.609375 39.140625 45 
Q 35.0625 48.390625 27.6875 48.390625 
Q 23 48.390625 18.546875 47.265625 
Q 14.109375 46.140625 10.015625 43.890625 
L 10.015625 52.203125 
Q 14.9375 54.109375 19.578125 55.046875 
Q 24.21875 56 28.609375 56 
Q 40.484375 56 46.34375 49.84375 
Q 52.203125 43.703125 52.203125 31.203125 
z
" id="DejaVuSans-61"/>
      <path d="M 45.40625 27.984375 
Q 45.40625 37.75 41.375 43.109375 
Q 37.359375 48.484375 30.078125 48.484375 
Q 22.859375 48.484375 18.828125 43.109375 
Q 14.796875 37.75 14.796875 27.984375 
Q 14.796875 18.265625 18.828125 12.890625 
Q 22.859375 7.515625 30.078125 7.515625 
Q 37.359375 7.515625 41.375 12.890625 
Q 45.40625 18.265625 45.40625 27.984375 
z
M 54.390625 6.78125 
Q 54.390625 -7.171875 48.1875 -13.984375 
Q 42 -20.796875 29.203125 -20.796875 
Q 24.46875 -20.796875 20.265625 -20.09375 
Q 16.0625 -19.390625 12.109375 -17.921875 
L 12.109375 -9.1875 
Q 16.0625 -11.328125 19.921875 -12.34375 
Q 23.78125 -13.375 27.78125 -13.375 
Q 36.625 -13.375 41.015625 -8.765625 
Q 45.40625 -4.15625 45.40625 5.171875 
L 45.40625 9.625 
Q 42.625 4.78125 38.28125 2.390625 
Q 33.9375 0 27.875 0 
Q 17.828125 0 11.671875 7.65625 
Q 5.515625 15.328125 5.515625 27.984375 
Q 5.515625 40.671875 11.671875 48.328125 
Q 17.828125 56 27.875 56 
Q 33.9375 56 38.28125 53.609375 
Q 42.625 51.21875 45.40625 46.390625 
L 45.40625 54.6875 
L 54.390625 54.6875 
z
" id="DejaVuSans-67"/>
      <path d="M 56.203125 29.59375 
L 56.203125 25.203125 
L 14.890625 25.203125 
Q 15.484375 15.921875 20.484375 11.0625 
Q 25.484375 6.203125 34.421875 6.203125 
Q 39.59375 6.203125 44.453125 7.46875 
Q 49.3125 8.734375 54.109375 11.28125 
L 54.109375 2.78125 
Q 49.265625 0.734375 44.1875 -0.34375 
Q 39.109375 -1.421875 33.890625 -1.421875 
Q 20.796875 -1.421875 13.15625 6.1875 
Q 5.515625 13.8125 5.515625 26.8125 
Q 5.515625 40.234375 12.765625 48.109375 
Q 20.015625 56 32.328125 56 
Q 43.359375 56 49.78125 48.890625 
Q 56.203125 41.796875 56.203125 29.59375 
z
M 47.21875 32.234375 
Q 47.125 39.59375 43.09375 43.984375 
Q 39.0625 48.390625 32.421875 48.390625 
Q 24.90625 48.390625 20.390625 44.140625 
Q 15.875 39.890625 15.1875 32.171875 
z
" id="DejaVuSans-65"/>
      <path id="DejaVuSans-20"/>
     </defs>
     <g transform="translate(-5.2125 202.577219)rotate(-90)scale(0.1 -0.1)">
      <use xlink:href="#DejaVuSans-56"/>
      <use x="68.298828" xlink:href="#DejaVuSans-6f"/>
      <use x="129.480469" xlink:href="#DejaVuSans-6c"/>
      <use x="157.263672" xlink:href="#DejaVuSans-74"/>
      <use x="196.472656" xlink:href="#DejaVuSans-61"/>
      <use x="257.751953" xlink:href="#DejaVuSans-67"/>
      <use x="321.228516" xlink:href="#DejaVuSans-65"/>
      <use x="382.751953" xlink:href="#DejaVuSans-20"/>
      <use x="414.539062" xlink:href="#DejaVuSans-28"/>
      <use x="453.552734" xlink:href="#DejaVuSans-56"/>
      <use x="521.960938" xlink:href="#DejaVuSans-29"/>
     </g>
    </g>
    <g id="text_17">
     <!-- +1e−1 -->
     <defs>
      <path d="M 46 62.703125 
L 46 35.5 
L 73.1875 35.5 
L 73.1875 27.203125 
L 46 27.203125 
L 46 0 
L 37.796875 0 
L 37.796875 27.203125 
L 10.59375 27.203125 
L 10.59375 35.5 
L 37.796875 35.5 
L 37.796875 62.703125 
z
" id="DejaVuSans-2b"/>
     </defs>
     <g transform="translate(57.6 38.472)scale(0.1 -0.1)">
      <use xlink:href="#DejaVuSans-2b"/>
      <use x="83.789062" xlink:href="#DejaVuSans-31"/>
      <use x="147.412109" xlink:href="#DejaVuSans-65"/>
      <use x="208.935547" xlink:href="#DejaVuSans-2212"/>
      <use x="292.724609" xlink:href="#DejaVuSans-31"/>
     </g>
    </g>
   </g>
   <g id="line2d_15">
    <path clip-path="url(#pca4b085f65)" d="M 73.832727 155.94476 
L 73.941195 204.261184 
L 74.049663 200.882413 
L 74.158132 244.130682 
L 74.2666 162.702302 
L 74.375068 165.405318 
L 74.483536 131.279732 
L 74.592004 185.00219 
L 74.700472 92.423866 
L 74.80894 93.775374 
L 75.134344 157.296268 
L 75.242812 152.565989 
L 75.459749 217.100514 
L 75.568217 131.279732 
L 75.676685 154.593251 
L 75.893621 243.792804 
L 76.002089 204.936939 
L 76.110557 212.708112 
L 76.219025 194.800626 
L 76.327493 266.43057 
L 76.652898 120.467665 
L 76.869834 188.043084 
L 77.08677 129.590346 
L 77.303706 146.822078 
L 77.412174 199.530905 
L 77.520642 128.914592 
L 77.62911 182.974927 
L 77.737578 172.16286 
L 77.846046 250.550346 
L 77.954515 233.318615 
L 78.062983 255.95638 
L 78.279919 212.708112 
L 78.388387 211.356603 
L 78.496855 149.187218 
L 78.713791 201.896045 
L 78.822259 165.067441 
L 78.930727 168.446212 
L 79.039195 122.15705 
L 79.147663 139.726659 
L 79.256131 96.478391 
L 79.473068 128.914592 
L 79.581536 181.285542 
L 79.798472 142.767553 
L 79.90694 148.511464 
L 80.015408 133.982749 
L 80.232344 261.700291 
L 80.44928 218.114145 
L 80.557748 220.479285 
L 80.666217 152.565989 
L 80.774685 216.762637 
L 80.883153 204.936939 
L 81.208557 122.494927 
L 81.533961 138.037274 
L 81.642429 144.456939 
L 81.750897 202.233922 
L 81.859365 145.808447 
L 81.967834 150.538726 
L 82.076302 208.653587 
L 82.18477 178.582525 
L 82.293238 235.008 
L 82.401706 203.58543 
L 82.510174 215.749006 
L 82.618642 215.411128 
L 82.72711 210.680849 
L 82.835578 263.727553 
L 83.052514 140.740291 
L 83.160982 171.824983 
L 83.269451 123.508559 
L 83.486387 140.740291 
L 83.594855 130.266101 
L 83.811791 139.050905 
L 83.920259 190.070346 
L 84.137195 111.007106 
L 84.354131 188.380961 
L 84.4626 230.953475 
L 84.571068 199.868782 
L 84.679536 234.670123 
L 84.788004 233.318615 
L 84.896472 217.100514 
L 85.00494 258.997274 
L 85.221876 196.827888 
L 85.54728 129.590346 
L 85.655748 135.672134 
L 85.764217 135.672134 
L 85.872685 111.344983 
L 85.981153 127.900961 
L 86.089621 195.138503 
L 86.306557 140.402413 
L 86.415025 185.340067 
L 86.523493 183.650682 
L 86.740429 232.304983 
L 86.848897 209.329341 
L 87.065834 214.735374 
L 87.174302 175.541631 
L 87.28277 177.568894 
L 87.391238 174.528 
L 87.499706 191.083978 
L 87.608174 156.282637 
L 87.716642 160.675039 
L 87.82511 62.352804 
L 88.042046 129.590346 
L 88.367451 182.974927 
L 88.475919 180.609788 
L 88.692855 138.037274 
L 88.801323 176.555263 
L 88.909791 272.850235 
L 89.343663 191.421855 
L 89.452131 223.858056 
L 89.669068 139.726659 
L 89.777536 143.10543 
L 89.886004 177.568894 
L 89.994472 153.241743 
L 90.10294 93.775374 
L 90.319876 138.713028 
L 90.428344 156.620514 
L 90.536812 115.061631 
L 90.862216 219.803531 
L 90.970685 218.452022 
L 91.187621 200.882413 
L 91.296089 230.953475 
L 91.621493 162.364425 
L 91.729961 211.69448 
L 91.838429 165.067441 
L 91.946897 190.746101 
L 92.163833 120.467665 
L 92.272302 146.484201 
L 92.38077 139.050905 
L 92.489238 119.454034 
L 92.597706 131.279732 
L 92.706174 176.89314 
L 92.814642 159.323531 
L 92.92311 159.999285 
L 93.031578 171.487106 
L 93.140046 141.416045 
L 93.248514 170.135598 
L 93.356982 284.338056 
L 93.573919 215.749006 
L 93.682387 211.356603 
L 93.899323 174.528 
L 94.007791 206.964201 
L 94.224727 174.865877 
L 94.441663 66.40733 
L 94.658599 125.873698 
L 94.767068 133.644872 
L 95.20094 198.855151 
L 95.309408 188.718838 
L 95.526344 154.255374 
L 95.74328 228.250458 
L 95.960217 194.800626 
L 96.068685 263.727553 
L 96.177153 226.89895 
L 96.394089 112.696492 
L 96.502557 118.102525 
L 96.611025 198.517274 
L 96.827961 129.590346 
L 97.044897 139.050905 
L 97.153365 100.532916 
L 97.370302 216.086883 
L 97.47877 201.558168 
L 97.587238 218.789899 
L 97.695706 152.903866 
L 97.912642 212.032358 
L 98.02111 211.356603 
L 98.129578 195.814257 
L 98.238046 233.656492 
L 98.346514 207.639955 
L 98.454982 127.900961 
L 98.56345 195.47638 
L 98.671919 118.102525 
L 98.888855 147.159955 
L 98.997323 139.726659 
L 99.105791 129.252469 
L 99.322727 165.405318 
L 99.431195 142.429676 
L 99.648131 236.359508 
L 99.756599 215.073251 
L 99.865067 163.040179 
L 100.082004 223.182302 
L 100.29894 191.083978 
L 100.407408 246.157944 
L 100.732812 139.050905 
L 100.949748 202.571799 
L 101.058216 117.426771 
L 101.166684 118.440402 
L 101.492089 159.323531 
L 101.600557 170.135598 
L 101.709025 162.364425 
L 101.817493 126.549453 
L 102.142897 232.64286 
L 102.251365 227.912581 
L 102.359833 224.195933 
L 102.468301 161.68867 
L 102.57677 205.95057 
L 102.685238 194.800626 
L 102.902174 104.249564 
L 103.010642 114.385877 
L 103.11911 151.21448 
L 103.227578 129.252469 
L 103.336046 132.969117 
L 103.444514 144.119061 
L 103.552982 113.710123 
L 103.769919 176.555263 
L 103.878387 129.590346 
L 103.986855 163.378056 
L 104.095323 256.294257 
L 104.203791 225.547441 
L 104.312259 228.250458 
L 104.420727 211.69448 
L 104.529195 172.500737 
L 104.637663 211.69448 
L 104.746131 204.936939 
L 104.963067 108.641966 
L 105.071536 132.63124 
L 105.180004 147.159955 
L 105.288472 129.590346 
L 105.505408 147.159955 
L 105.613876 95.46476 
L 105.830812 185.00219 
L 105.93928 141.753922 
L 106.156216 233.318615 
L 106.264685 227.236827 
L 106.373153 228.588335 
L 106.698557 177.568894 
L 106.807025 190.746101 
L 106.915493 186.353698 
L 107.023961 205.612693 
L 107.240897 88.369341 
L 107.457833 137.36152 
L 107.566302 134.99638 
L 107.67477 180.609788 
L 107.783238 135.672134 
L 108.000174 171.149229 
L 108.108642 176.555263 
L 108.325578 230.953475 
L 108.434046 223.182302 
L 108.650982 193.11124 
L 108.75945 222.506547 
L 108.976387 170.135598 
L 109.084855 228.250458 
L 109.193323 185.677944 
L 109.301791 63.028559 
L 109.410259 123.508559 
L 109.518727 117.764648 
L 109.844131 174.190123 
L 109.952599 158.309899 
L 110.061067 168.784089 
L 110.169535 242.441296 
L 110.278004 231.629229 
L 110.386472 196.827888 
L 110.603408 211.69448 
L 110.711876 191.759732 
L 110.820344 228.926212 
L 110.928812 214.397497 
L 111.145748 115.399508 
L 111.254216 169.459844 
L 111.362684 95.46476 
L 111.471152 98.505654 
L 111.796557 157.972022 
L 111.905025 188.718838 
L 112.121961 148.511464 
L 112.230429 153.241743 
L 112.338897 238.724648 
L 112.447365 190.408223 
L 112.555833 210.680849 
L 112.77277 199.530905 
L 112.881238 258.659397 
L 113.098174 172.16286 
L 113.206642 149.525095 
L 113.31511 177.906771 
L 113.423578 76.543642 
L 113.640514 131.617609 
L 113.748982 135.334257 
L 113.965918 172.838615 
L 114.074387 149.187218 
L 114.182855 152.903866 
L 114.399791 221.492916 
L 114.508259 198.179397 
L 114.616727 218.114145 
L 114.833663 198.855151 
L 114.942131 254.942749 
L 115.376003 122.832804 
L 115.484472 158.985654 
L 115.59294 100.195039 
L 115.918344 155.269006 
L 116.026812 131.617609 
L 116.243748 154.931128 
L 116.460684 228.926212 
L 116.569153 205.612693 
L 116.677621 214.05962 
L 116.786089 213.383866 
L 116.894557 197.165765 
L 117.003025 221.492916 
L 117.219961 146.822078 
L 117.328429 176.217385 
L 117.436897 173.514369 
L 117.545365 85.666324 
L 117.870769 139.726659 
L 118.087706 182.974927 
L 118.196174 114.048 
L 118.304642 201.896045 
L 118.41311 136.347888 
L 118.521578 227.574704 
L 118.630046 196.490011 
L 118.738514 221.155039 
L 118.95545 195.47638 
L 119.063918 264.403307 
L 119.172386 232.64286 
L 119.280855 134.99638 
L 119.389323 138.375151 
L 119.606259 182.299173 
L 119.714727 103.57381 
L 120.257067 177.231017 
L 120.365535 153.57962 
L 120.474003 163.040179 
L 120.69094 257.645765 
L 120.799408 219.127777 
L 120.907876 222.506547 
L 121.124812 180.609788 
L 121.341748 252.239732 
L 121.667152 53.905877 
L 121.884089 128.914592 
L 122.101025 153.57962 
L 122.209493 124.184313 
L 122.426429 180.947665 
L 122.534897 160.337162 
L 122.643365 168.446212 
L 122.751833 269.133587 
L 122.860301 229.601966 
L 122.968769 236.021631 
L 123.077238 223.858056 
L 123.185706 179.934034 
L 123.294174 180.271911 
L 123.402642 152.565989 
L 123.51111 192.435486 
L 123.728046 117.088894 
L 123.836514 119.454034 
L 124.05345 134.99638 
L 124.161918 140.064536 
L 124.270386 93.437497 
L 124.487323 212.708112 
L 124.595791 234.670123 
L 124.704259 157.972022 
L 124.812727 284.338056 
L 125.029663 220.479285 
L 125.463535 167.770458 
L 125.680472 231.967106 
L 125.897408 59.987665 
L 126.005876 114.723754 
L 126.114344 109.655598 
L 126.33128 171.824983 
L 126.548216 146.822078 
L 126.656684 150.876603 
L 126.873621 228.588335 
L 126.982089 190.746101 
L 127.199025 213.383866 
L 127.415961 185.340067 
L 127.524429 216.086883 
L 127.632897 127.563084 
L 127.958301 162.026547 
L 128.066769 110.669229 
L 128.392174 158.647777 
L 128.500642 159.661408 
L 128.60911 164.729564 
L 128.826046 123.846436 
L 129.042982 279.945654 
L 129.15145 209.329341 
L 129.368386 214.397497 
L 129.476854 155.94476 
L 129.585323 205.274816 
L 129.693791 138.037274 
L 129.802259 166.756827 
L 129.910727 107.628335 
L 130.019195 161.68867 
L 130.236131 126.88733 
L 130.453067 154.593251 
L 130.561535 111.344983 
L 130.670003 173.514369 
L 130.778471 154.593251 
L 130.88694 242.103419 
L 130.995408 215.411128 
L 131.103876 155.269006 
L 131.320812 230.615598 
L 131.42928 214.05962 
L 131.537748 161.012916 
L 131.646216 194.462749 
L 132.080089 124.52219 
L 132.188557 131.617609 
L 132.297025 127.900961 
L 132.513961 152.903866 
L 132.622429 122.15705 
L 132.730897 180.947665 
L 132.839365 169.797721 
L 132.947833 130.603978 
L 133.164769 244.468559 
L 133.273237 249.198838 
L 133.598642 163.715933 
L 133.70711 189.056715 
L 133.924046 121.819173 
L 134.032514 172.16286 
L 134.140982 79.584536 
L 134.683322 182.299173 
L 134.791791 118.440402 
L 135.117195 224.53381 
L 135.225663 230.277721 
L 135.551067 190.408223 
L 135.659535 268.457832 
L 135.876472 163.378056 
L 135.98494 198.179397 
L 136.093408 169.797721 
L 136.201876 68.434592 
L 136.418812 138.037274 
L 136.52728 129.590346 
L 136.635748 184.664313 
L 136.744216 126.549453 
L 136.961152 209.667218 
L 137.06962 244.806436 
L 137.178088 151.21448 
L 137.286557 240.076156 
L 137.395025 232.304983 
L 137.720429 165.743196 
L 137.828897 196.490011 
L 137.937365 193.11124 
L 138.045833 126.88733 
L 138.154301 132.969117 
L 138.262769 154.931128 
L 138.371237 124.184313 
L 138.588174 156.282637 
L 138.696642 98.843531 
L 138.913578 179.596156 
L 139.022046 125.197944 
L 139.130514 166.081073 
L 139.238982 285.351687 
L 139.34745 227.912581 
L 139.455918 228.926212 
L 139.564386 219.127777 
L 139.672854 168.784089 
L 139.889791 233.994369 
L 140.215195 123.508559 
L 140.323663 166.081073 
L 140.432131 135.334257 
L 140.649067 148.173587 
L 140.757535 123.170682 
L 140.974471 205.612693 
L 141.191408 168.446212 
L 141.408344 246.833698 
L 141.842216 162.026547 
L 141.950684 250.212469 
L 142.384557 84.652693 
L 142.601493 129.928223 
L 142.709961 139.388782 
L 142.818429 183.650682 
L 143.035365 128.914592 
L 143.143833 175.203754 
L 143.252301 119.791911 
L 143.469237 224.871687 
L 143.686174 213.721743 
L 143.794642 190.070346 
L 143.90311 238.724648 
L 144.011578 206.288447 
L 144.120046 130.603978 
L 144.336982 167.770458 
L 144.553918 121.819173 
L 144.879323 151.890235 
L 144.987791 97.492022 
L 145.204727 213.383866 
L 145.313195 142.767553 
L 145.638599 233.318615 
L 145.747067 223.858056 
L 146.072472 170.473475 
L 146.289408 206.964201 
L 146.397876 129.928223 
L 146.506344 183.650682 
L 146.72328 111.344983 
L 146.831748 116.075263 
L 147.048684 150.876603 
L 147.157152 103.57381 
L 147.26578 175.879508 
L 147.374454 162.702302 
L 147.483129 117.088894 
L 147.591804 172.16286 
L 147.700479 283.662302 
L 147.917828 227.912581 
L 148.135178 193.449117 
L 148.243853 166.41895 
L 148.352528 168.784089 
L 148.569877 226.89895 
L 148.787227 102.898056 
L 148.895902 129.252469 
L 149.004577 125.873698 
L 149.113251 137.699397 
L 149.221926 188.718838 
L 149.330601 125.197944 
L 149.656625 242.441296 
L 149.873975 202.233922 
L 149.98265 213.383866 
L 150.199999 200.882413 
L 150.308674 231.629229 
L 150.526024 186.691575 
L 150.634698 118.102525 
L 150.852048 179.934034 
L 151.069398 124.860067 
L 151.178072 133.306994 
L 151.504097 178.920402 
L 151.612772 166.756827 
L 151.721446 118.102525 
L 151.938796 277.242637 
L 152.047471 225.209564 
L 152.156146 227.236827 
L 152.373495 175.541631 
L 152.48217 176.217385 
L 152.590845 217.776268 
L 152.808194 130.941855 
L 152.916869 125.197944 
L 153.025544 147.835709 
L 153.134219 133.982749 
L 153.351568 143.443307 
L 153.460243 104.249564 
L 153.568918 123.846436 
L 153.786267 207.977832 
L 153.894942 239.400402 
L 154.003617 143.781184 
L 154.112292 238.724648 
L 154.438316 198.855151 
L 154.546991 203.247553 
L 154.655666 172.838615 
L 154.76434 195.138503 
L 154.873015 168.784089 
L 154.98169 193.786994 
L 155.090365 74.51638 
L 155.307714 123.508559 
L 155.525064 166.081073 
L 155.633739 192.097609 
L 155.742414 147.497832 
L 155.959763 151.21448 
L 156.177113 219.803531 
L 156.285788 212.708112 
L 156.394462 230.953475 
L 156.503137 222.844425 
L 156.611812 157.296268 
L 156.720487 172.838615 
L 156.829162 254.942749 
L 157.046511 103.235933 
L 157.263861 153.241743 
L 157.372535 125.197944 
L 157.589885 144.119061 
L 157.69856 127.900961 
L 157.807235 129.252469 
L 157.915909 223.182302 
L 158.133259 178.244648 
L 158.241934 153.241743 
L 158.350609 244.130682 
L 158.459283 235.008 
L 158.676633 196.827888 
L 158.785308 267.444201 
L 159.002657 138.713028 
L 159.111332 190.070346 
L 159.437357 107.628335 
L 159.980731 183.650682 
L 160.19808 120.805542 
L 160.41543 285.689564 
L 160.632779 222.844425 
L 160.741454 217.100514 
L 160.850129 171.487106 
L 161.067479 220.141408 
L 161.393503 124.860067 
L 161.610853 143.443307 
L 161.719527 136.685765 
L 161.828202 140.740291 
L 161.936877 173.514369 
L 162.045552 121.481296 
L 162.262901 202.571799 
L 162.480251 158.309899 
L 162.697601 206.964201 
L 162.806275 212.370235 
L 162.91495 198.855151 
L 163.1323 209.329341 
L 163.349649 123.846436 
L 163.566999 162.364425 
L 163.675674 126.549453 
L 163.784348 127.900961 
L 164.001698 144.794816 
L 164.110373 109.993475 
L 164.219048 122.494927 
L 164.327722 215.073251 
L 164.436397 123.846436 
L 164.545072 208.653587 
L 164.653747 193.11124 
L 164.762422 251.226101 
L 164.979771 204.261184 
L 165.088446 204.936939 
L 165.197121 172.16286 
L 165.305795 186.353698 
L 165.41447 260.010905 
L 165.63182 97.154145 
L 165.740495 168.108335 
L 166.066519 137.023642 
L 166.175194 149.525095 
L 166.283869 194.800626 
L 166.501218 109.993475 
L 166.609893 149.187218 
L 166.718568 242.779173 
L 166.827243 231.629229 
L 166.935917 240.751911 
L 167.044592 212.708112 
L 167.153267 229.264089 
L 167.261942 214.735374 
L 167.479291 163.040179 
L 167.805316 250.888223 
L 167.91399 194.124872 
L 168.022665 58.636156 
L 168.34869 139.388782 
L 168.457364 148.173587 
L 168.566039 135.334257 
L 168.892064 231.967106 
L 169.109413 155.606883 
L 169.326763 226.223196 
L 169.652787 196.490011 
L 169.761462 227.912581 
L 170.196161 109.993475 
L 170.304836 153.917497 
L 170.413511 133.982749 
L 170.522186 137.36152 
L 170.63086 146.822078 
L 170.739535 183.988559 
L 170.84821 175.203754 
L 170.956885 126.211575 
L 171.391584 236.021631 
L 171.500259 207.977832 
L 171.608934 237.035263 
L 171.826283 171.824983 
L 171.934958 175.541631 
L 172.152308 202.571799 
L 172.260982 233.318615 
L 172.478332 56.271017 
L 172.587007 108.641966 
L 173.130381 169.121966 
L 173.239056 161.012916 
L 173.34773 166.756827 
L 173.456405 153.57962 
L 173.56508 238.724648 
L 173.999779 199.193028 
L 174.108454 200.882413 
L 174.217129 169.459844 
L 174.325803 227.912581 
L 174.434478 221.155039 
L 174.543153 188.718838 
L 174.651828 194.124872 
L 174.760503 106.276827 
L 174.977852 135.672134 
L 175.086527 155.606883 
L 175.195202 125.873698 
L 175.521226 218.789899 
L 175.629901 206.626324 
L 175.738576 181.961296 
L 175.847251 245.48219 
L 176.173275 204.936939 
L 176.28195 254.604872 
L 176.499299 156.620514 
L 176.607974 124.184313 
L 176.716649 183.312804 
L 176.933998 98.505654 
L 177.260023 153.57962 
L 177.477372 175.203754 
L 177.586047 155.606883 
L 177.694722 239.400402 
L 177.803397 196.490011 
L 177.912072 280.959285 
L 178.020746 205.95057 
L 178.129421 217.438391 
L 178.346771 179.934034 
L 178.455445 198.855151 
L 178.56412 242.103419 
L 178.672795 141.078168 
L 178.78147 143.443307 
L 178.998819 92.085989 
L 179.216169 139.388782 
L 179.433519 171.149229 
L 179.542193 113.034369 
L 179.759543 227.236827 
L 179.976893 153.917497 
L 180.194242 224.53381 
L 180.411592 186.691575 
L 180.520267 247.171575 
L 180.628941 172.16286 
L 180.846291 239.738279 
L 181.063641 101.20867 
L 181.28099 122.494927 
L 181.389665 128.238838 
L 181.49834 168.108335 
L 181.715689 115.399508 
L 181.933039 243.454927 
L 182.041714 229.939844 
L 182.150389 186.353698 
L 182.259063 213.045989 
L 182.367738 211.356603 
L 182.476413 201.558168 
L 182.693763 212.370235 
L 182.911112 124.52219 
L 183.019787 157.634145 
L 183.345811 119.454034 
L 183.563161 153.241743 
L 183.671836 136.685765 
L 183.780511 169.459844 
L 183.889185 112.358615 
L 184.21521 228.926212 
L 184.323884 240.414034 
L 184.758584 166.756827 
L 184.867258 173.852246 
L 185.084608 236.359508 
L 185.301958 59.311911 
L 185.519307 121.143419 
L 185.845332 174.528 
L 186.062681 157.634145 
L 186.171356 235.345877 
L 186.280031 212.370235 
L 186.388706 291.433475 
L 186.606055 234.670123 
L 186.71473 223.182302 
L 186.932079 175.541631 
L 187.040754 193.786994 
L 187.149429 193.11124 
L 187.258104 212.370235 
L 187.475453 84.314816 
L 187.584128 138.375151 
L 187.692803 123.508559 
L 187.910153 161.012916 
L 188.018827 134.320626 
L 188.127502 181.623419 
L 188.344852 178.920402 
L 188.453527 210.680849 
L 188.562201 159.323531 
L 188.670876 234.332246 
L 188.9969 204.261184 
L 189.105575 232.304983 
L 189.21425 216.42476 
L 189.4316 175.879508 
L 189.540274 170.473475 
L 189.648949 126.211575 
L 189.757624 153.57962 
L 189.974974 135.334257 
L 190.083648 138.037274 
L 190.192323 188.380961 
L 190.409673 154.931128 
L 190.518348 161.350793 
L 190.627022 153.917497 
L 190.844372 251.901855 
L 191.061722 232.304983 
L 191.170396 218.789899 
L 191.387746 180.609788 
L 191.496421 202.233922 
L 191.605095 192.773363 
L 191.71377 228.588335 
L 192.039795 106.276827 
L 192.474494 180.271911 
L 192.583169 130.603978 
L 192.691844 146.146324 
L 192.800518 141.753922 
L 192.909193 173.176492 
L 193.017868 241.427665 
L 193.126543 221.492916 
L 193.235218 235.683754 
L 193.452567 193.449117 
L 193.561242 210.680849 
L 193.669917 176.217385 
L 193.887266 210.005095 
L 193.995941 174.528 
L 194.104616 96.478391 
L 194.213291 143.781184 
L 194.321966 121.819173 
L 194.64799 178.582525 
L 194.865339 149.187218 
L 194.974014 160.337162 
L 195.082689 194.462749 
L 195.191364 281.297162 
L 195.300039 219.803531 
L 195.408713 228.588335 
L 195.734738 167.094704 
L 195.843413 210.005095 
L 196.060762 189.394592 
L 196.278112 109.993475 
L 196.386787 115.061631 
L 196.821486 171.487106 
L 196.930161 118.778279 
L 197.14751 230.615598 
L 197.36486 210.005095 
L 197.473534 211.356603 
L 197.690884 203.247553 
L 197.799559 247.84733 
L 197.908234 225.209564 
L 198.125583 164.05381 
L 198.234258 133.644872 
L 198.342933 143.10543 
L 198.560282 123.846436 
L 198.668957 136.347888 
L 198.777632 174.528 
L 198.886307 103.235933 
L 199.103656 203.58543 
L 199.212331 170.135598 
L 199.321006 185.340067 
L 199.429681 161.350793 
L 199.538356 246.833698 
L 199.86438 187.705207 
L 200.081729 194.124872 
L 200.299079 173.514369 
L 200.407754 177.231017 
L 200.516429 183.312804 
L 200.625103 103.57381 
L 200.951128 158.647777 
L 201.059803 152.565989 
L 201.168477 157.634145 
L 201.277152 173.514369 
L 201.385827 150.200849 
L 201.494502 176.217385 
L 201.603177 277.242637 
L 201.820526 231.967106 
L 202.037876 192.773363 
L 202.14655 240.751911 
L 202.3639 151.552358 
L 202.472575 184.326436 
L 202.689924 162.026547 
L 202.798599 108.304089 
L 203.124624 157.296268 
L 203.341973 150.538726 
L 203.559323 238.048894 
L 203.776673 215.411128 
L 203.885347 223.858056 
L 203.994022 222.844425 
L 204.211372 203.58543 
L 204.320047 158.647777 
L 204.537396 224.53381 
L 204.646071 174.865877 
L 204.754746 198.855151 
L 204.972095 75.867888 
L 205.189445 123.170682 
L 205.406794 154.593251 
L 205.515469 177.906771 
L 205.732819 173.852246 
L 205.841494 132.63124 
L 205.950168 214.735374 
L 206.058843 169.459844 
L 206.276193 231.291352 
L 206.602217 178.920402 
L 206.819567 219.803531 
L 207.036916 127.563084 
L 207.145591 138.713028 
L 207.362941 120.129788 
L 207.471616 122.494927 
L 207.688965 157.972022 
L 207.79764 143.781184 
L 208.232339 240.751911 
L 208.449689 204.261184 
L 208.667038 225.209564 
L 208.884388 188.380961 
L 208.993063 196.152134 
L 209.101737 240.414034 
L 209.210412 198.179397 
L 209.319087 233.994369 
L 209.536437 135.672134 
L 209.645111 110.669229 
L 209.971136 157.972022 
L 210.079811 93.09962 
L 210.29716 200.544536 
L 210.405835 173.176492 
L 210.51451 237.711017 
L 210.731859 220.479285 
L 210.840534 231.629229 
L 211.166558 166.756827 
L 211.275233 174.190123 
L 211.383908 203.58543 
L 211.492583 201.896045 
L 211.601258 240.751911 
L 211.818607 62.014927 
L 212.144632 143.443307 
L 212.253306 168.108335 
L 212.361981 136.685765 
L 212.470656 142.091799 
L 212.688006 209.667218 
L 212.905355 175.879508 
L 213.122705 216.762637 
L 213.231379 212.708112 
L 213.340054 194.462749 
L 213.448729 261.700291 
L 213.557404 221.155039 
L 213.666079 235.008 
L 213.883428 114.048 
L 213.992103 118.102525 
L 214.100778 150.200849 
L 214.209453 126.88733 
L 214.426802 147.497832 
L 214.535477 181.961296 
L 214.752827 118.778279 
L 214.861501 224.195933 
L 214.970176 192.773363 
L 215.187526 262.376045 
L 215.296201 215.073251 
L 215.404875 229.264089 
L 215.51355 222.16867 
L 215.622225 151.890235 
L 215.839575 182.974927 
L 216.056924 241.765542 
L 216.382949 116.41314 
L 216.491623 118.440402 
L 216.708973 164.729564 
L 216.817648 120.467665 
L 217.143672 230.615598 
L 217.361022 157.296268 
L 217.578371 231.967106 
L 217.795721 191.083978 
L 217.904396 235.008 
L 218.23042 176.555263 
L 218.339095 104.249564 
L 218.44777 133.644872 
L 218.556444 84.652693 
L 218.665119 139.388782 
L 218.773794 129.928223 
L 218.882469 138.037274 
L 219.099818 178.244648 
L 219.208493 137.699397 
L 219.317168 148.849341 
L 219.425843 119.454034 
L 219.643192 279.269899 
L 219.969217 214.735374 
L 220.077892 192.773363 
L 220.186566 202.571799 
L 220.403916 188.380961 
L 220.512591 115.399508 
L 220.621266 128.576715 
L 220.72994 125.535821 
L 220.838615 151.21448 
L 220.94729 142.429676 
L 221.055965 146.484201 
L 221.16464 138.713028 
L 221.273314 181.961296 
L 221.490664 137.023642 
L 221.599339 158.309899 
L 221.708014 124.52219 
L 221.925363 267.444201 
L 222.360062 190.070346 
L 222.468737 247.84733 
L 222.686087 139.050905 
L 222.903436 163.040179 
L 223.012111 116.41314 
L 223.120786 155.269006 
L 223.229461 134.658503 
L 223.338135 137.36152 
L 223.44681 127.225207 
L 223.66416 186.353698 
L 223.772835 156.958391 
L 223.881509 178.244648 
L 223.990184 174.190123 
L 224.098859 153.57962 
L 224.207534 249.874592 
L 224.642233 195.47638 
L 224.750908 249.198838 
L 224.859582 224.195933 
L 224.968257 225.209564 
L 225.294282 123.170682 
L 225.402956 134.658503 
L 225.511631 129.590346 
L 225.620306 118.778279 
L 225.728981 129.252469 
L 225.94633 183.312804 
L 226.272355 120.805542 
L 226.38103 165.743196 
L 226.489704 271.498726 
L 226.707054 221.830793 
L 226.815729 212.370235 
L 226.924404 188.380961 
L 227.033078 270.485095 
L 227.359103 132.293363 
L 227.467778 115.737385 
L 227.576452 181.623419 
L 227.793802 129.928223 
L 228.011152 146.484201 
L 228.119826 121.481296 
L 228.228501 129.252469 
L 228.337176 114.723754 
L 228.554526 251.563978 
L 228.771875 200.882413 
L 228.989225 217.438391 
L 229.0979 205.612693 
L 229.206574 166.756827 
L 229.315249 224.53381 
L 229.641273 106.276827 
L 229.749948 120.467665 
L 229.858623 150.876603 
L 230.075973 132.293363 
L 230.293322 164.729564 
L 230.510672 127.563084 
L 230.728021 240.076156 
L 230.836696 232.304983 
L 230.945371 194.462749 
L 231.162721 212.032358 
L 231.38007 194.462749 
L 231.488745 224.871687 
L 231.706095 157.634145 
L 231.923444 119.116156 
L 232.032119 139.388782 
L 232.140794 137.023642 
L 232.358143 149.187218 
L 232.466818 183.650682 
L 232.575493 139.050905 
L 232.792842 238.724648 
L 232.901517 159.661408 
L 233.010192 256.632134 
L 233.227542 213.383866 
L 233.336216 212.032358 
L 233.444891 200.544536 
L 233.553566 254.604872 
L 233.770916 137.36152 
L 233.87959 233.656492 
L 233.988265 195.47638 
L 234.09694 87.017832 
L 234.205615 143.781184 
L 234.31429 121.143419 
L 234.531639 177.906771 
L 234.640314 163.040179 
L 234.748989 107.628335 
L 234.966338 226.223196 
L 235.075013 224.195933 
L 235.183688 196.827888 
L 235.292363 217.100514 
L 235.509712 200.544536 
L 235.618387 266.768447 
L 235.835737 142.091799 
L 236.053086 184.664313 
L 236.270436 99.181408 
L 236.59646 176.217385 
L 236.705135 164.729564 
L 236.81381 138.713028 
L 236.922485 224.871687 
L 237.031159 154.593251 
L 237.139834 227.912581 
L 237.248509 205.612693 
L 237.357184 221.155039 
L 237.574533 204.936939 
L 237.683208 231.967106 
L 237.900558 181.961296 
L 238.009233 114.723754 
L 238.117907 174.865877 
L 238.335257 120.805542 
L 238.443932 115.737385 
L 238.661281 149.862972 
L 238.769956 188.043084 
L 238.987306 139.388782 
L 239.095981 161.350793 
L 239.204655 157.634145 
L 239.31333 263.389676 
L 239.422005 214.05962 
L 239.53068 221.155039 
L 239.639355 201.896045 
L 239.748029 206.288447 
L 239.856704 233.318615 
L 240.074054 124.52219 
L 240.182728 115.399508 
L 240.291403 142.091799 
L 240.400078 110.669229 
L 240.726102 147.159955 
L 240.834777 89.720849 
L 241.052127 166.081073 
L 241.160802 113.710123 
L 241.269476 157.634145 
L 241.378151 288.730458 
L 241.595501 228.926212 
L 241.704176 217.438391 
L 241.81285 174.528 
L 241.921525 186.691575 
L 242.24755 100.870793 
L 242.356224 117.426771 
L 242.464899 150.876603 
L 242.573574 134.658503 
L 242.682249 136.685765 
L 242.790923 146.146324 
L 242.899598 80.260291 
L 243.225623 228.588335 
L 243.442972 182.299173 
L 243.551647 242.103419 
L 243.986346 175.879508 
L 244.312371 226.561073 
L 244.52972 55.595263 
L 244.74707 131.617609 
L 244.855745 137.699397 
L 244.964419 189.056715 
L 245.181769 113.710123 
L 245.399119 217.100514 
L 245.507793 227.912581 
L 245.616468 211.018726 
L 245.725143 234.332246 
L 245.942492 207.977832 
L 246.051167 238.048894 
L 246.159842 230.953475 
L 246.268517 240.414034 
L 246.377192 116.751017 
L 246.594541 156.958391 
L 246.703216 145.808447 
L 246.811891 129.590346 
L 246.920566 132.293363 
L 247.02924 150.538726 
L 247.137915 87.355709 
L 247.355265 199.530905 
L 247.46394 212.032358 
L 247.681289 165.405318 
L 247.789964 236.021631 
L 247.898639 219.465654 
L 248.007314 227.574704 
L 248.115988 194.800626 
L 248.224663 224.195933 
L 248.442013 208.315709 
L 248.550688 120.129788 
L 248.768037 177.568894 
L 248.876712 105.93895 
L 249.202736 158.985654 
L 249.420086 137.023642 
L 249.528761 138.037274 
L 249.637436 242.441296 
L 249.74611 188.380961 
L 249.854785 287.37895 
L 250.072675 210.342972 
L 250.18135 194.124872 
L 250.290025 272.512358 
L 250.507375 131.617609 
L 250.616049 179.258279 
L 250.724724 138.037274 
L 250.833399 177.568894 
L 251.050749 136.685765 
L 251.159423 137.023642 
L 251.268098 152.903866 
L 251.376773 100.195039 
L 251.702797 182.299173 
L 252.028822 220.141408 
L 252.354846 203.58543 
L 252.463521 231.291352 
L 252.572196 228.926212 
L 252.68087 206.964201 
L 252.89822 107.290458 
L 253.11557 162.364425 
L 253.224244 124.52219 
L 253.441594 144.119061 
L 253.550269 126.211575 
L 253.767618 132.969117 
L 253.984968 229.601966 
L 254.093643 225.209564 
L 254.202317 191.421855 
L 254.419667 230.615598 
L 254.528342 205.274816 
L 254.637017 244.130682 
L 254.745691 190.070346 
L 254.963041 202.233922 
L 255.071716 108.304089 
L 255.180391 124.860067 
L 255.289065 76.543642 
L 255.832439 175.541631 
L 255.941114 169.459844 
L 256.158464 237.035263 
L 256.375813 173.514369 
L 256.593163 219.127777 
L 256.810512 200.882413 
L 256.919187 159.323531 
L 257.136537 217.438391 
L 257.462561 159.323531 
L 257.571236 72.489117 
L 258.005935 150.538726 
L 258.11461 93.775374 
L 258.549309 244.468559 
L 258.766659 227.574704 
L 258.875334 229.264089 
L 259.092683 220.141408 
L 259.201358 195.47638 
L 259.310033 198.179397 
L 259.527383 176.89314 
L 259.744732 106.952581 
L 259.962082 153.241743 
L 260.070756 130.941855 
L 260.179431 131.279732 
L 260.396781 158.985654 
L 260.61413 183.312804 
L 260.83148 234.332246 
L 260.940155 177.231017 
L 261.157504 226.89895 
L 261.266179 224.871687 
L 261.483529 204.261184 
L 261.592204 260.686659 
L 261.700878 189.394592 
L 261.809553 214.735374 
L 261.918228 196.152134 
L 262.026903 236.359508 
L 262.135578 191.421855 
L 262.244252 55.257385 
L 262.461602 121.819173 
L 262.678951 147.159955 
L 262.787626 120.129788 
L 262.896301 138.713028 
L 263.004976 114.385877 
L 263.439675 277.918391 
L 263.54835 225.547441 
L 263.657025 232.304983 
L 263.874374 194.800626 
L 263.983049 229.264089 
L 264.200399 132.63124 
L 264.309073 144.794816 
L 264.526423 120.805542 
L 264.635098 154.255374 
L 264.743772 125.535821 
L 265.069797 176.89314 
L 265.178472 130.941855 
L 265.395821 149.862972 
L 265.504496 139.726659 
L 265.83052 243.792804 
L 266.156545 196.827888 
L 266.26522 250.888223 
L 266.591244 133.306994 
L 266.808594 179.934034 
L 267.025943 123.508559 
L 267.134618 139.726659 
L 267.243293 133.306994 
L 267.351967 177.906771 
L 267.569317 113.372246 
L 267.786667 187.705207 
L 267.895341 155.269006 
L 268.004016 274.877497 
L 268.221366 221.830793 
L 268.438715 189.732469 
L 268.656065 202.233922 
L 268.76474 168.446212 
L 268.873415 224.195933 
L 268.982089 185.00219 
L 269.090764 65.393698 
L 269.308114 124.860067 
L 269.634138 179.934034 
L 269.742813 168.784089 
L 269.960163 204.261184 
L 270.177512 163.378056 
L 270.286187 237.37314 
L 270.394862 229.601966 
L 270.612211 187.029453 
L 270.720886 258.659397 
L 270.829561 234.670123 
L 271.046911 132.969117 
L 271.155585 114.723754 
L 271.372935 152.228112 
L 271.48161 133.306994 
L 271.698959 145.47057 
L 271.916309 127.225207 
L 272.024984 116.075263 
L 272.242333 207.302078 
L 272.459683 247.84733 
L 272.568358 210.005095 
L 272.677033 214.735374 
L 272.785707 207.977832 
L 272.894382 179.596156 
L 273.003057 185.677944 
L 273.111732 205.95057 
L 273.220406 201.896045 
L 273.329081 204.936939 
L 273.546431 63.366436 
L 273.655106 121.819173 
L 273.76378 120.129788 
L 273.872455 128.576715 
L 274.089805 165.405318 
L 274.19848 174.865877 
L 274.307154 165.405318 
L 274.415829 197.84152 
L 274.524504 154.255374 
L 274.741854 242.779173 
L 275.067878 200.206659 
L 275.176553 254.266994 
L 275.393902 170.135598 
L 275.502577 170.135598 
L 275.611252 104.249564 
L 275.719927 126.549453 
L 275.828601 57.622525 
L 276.045951 145.132693 
L 276.154626 137.36152 
L 276.371975 177.568894 
L 276.48065 174.190123 
L 276.589325 183.988559 
L 276.698 151.552358 
L 276.915349 193.449117 
L 277.024024 221.492916 
L 277.241374 212.708112 
L 277.350049 200.882413 
L 277.567398 231.967106 
L 277.676073 173.852246 
L 277.784748 195.814257 
L 277.893422 240.414034 
L 278.219447 126.549453 
L 278.328122 99.519285 
L 278.654146 172.16286 
L 278.762821 169.459844 
L 278.98017 157.972022 
L 279.088845 117.088894 
L 279.19752 156.282637 
L 279.306195 253.59124 
L 279.41487 200.882413 
L 279.523544 224.195933 
L 279.632219 210.005095 
L 279.740894 210.342972 
L 279.849569 165.405318 
L 279.958244 203.923307 
L 280.175593 191.421855 
L 280.284268 205.612693 
L 280.501618 182.299173 
L 280.610292 70.461855 
L 280.827642 139.388782 
L 280.936317 132.293363 
L 281.044992 171.487106 
L 281.153666 164.05381 
L 281.262341 170.135598 
L 281.371016 159.661408 
L 281.479691 172.838615 
L 281.588366 172.500737 
L 281.69704 154.255374 
L 281.805715 240.414034 
L 282.023065 218.789899 
L 282.349089 171.487106 
L 282.457764 192.773363 
L 282.566439 190.408223 
L 282.675114 219.465654 
L 282.783788 170.811352 
L 282.892463 181.623419 
L 283.001138 102.898056 
L 283.218488 135.334257 
L 283.327162 141.078168 
L 283.435837 181.623419 
L 283.544512 154.255374 
L 283.653187 176.217385 
L 283.761861 155.94476 
L 283.870536 112.696492 
L 284.087886 239.400402 
L 284.41391 206.964201 
L 284.522585 193.449117 
L 284.63126 237.035263 
L 284.848609 226.223196 
L 285.065959 115.399508 
L 285.174634 126.549453 
L 285.283309 70.123978 
L 285.718008 155.269006 
L 285.826683 146.484201 
L 285.935357 151.552358 
L 286.044032 189.056715 
L 286.152707 124.184313 
L 286.261382 228.588335 
L 286.370056 197.84152 
L 286.587406 215.411128 
L 286.696081 215.073251 
L 286.804756 198.179397 
L 286.91343 227.912581 
L 287.022105 209.329341 
L 287.13078 237.035263 
L 287.239455 165.405318 
L 287.34813 173.176492 
L 287.456804 144.794816 
L 287.565479 59.649788 
L 287.674154 123.508559 
L 287.782829 118.440402 
L 288.108853 177.568894 
L 288.217528 178.920402 
L 288.326203 175.541631 
L 288.434877 125.873698 
L 288.543552 187.705207 
L 288.652227 165.067441 
L 288.760902 221.155039 
L 288.978251 213.045989 
L 289.195601 216.086883 
L 289.412951 228.926212 
L 289.521625 168.446212 
L 289.6303 208.315709 
L 289.738975 119.454034 
L 289.956325 132.969117 
L 290.064999 115.737385 
L 290.391024 174.528 
L 290.499699 149.862972 
L 290.608373 150.876603 
L 290.717048 120.805542 
L 290.934398 264.06543 
L 291.043073 249.874592 
L 291.369097 192.773363 
L 291.477772 206.964201 
L 291.803796 113.710123 
L 291.912471 165.405318 
L 292.129821 112.020737 
L 292.455845 143.443307 
L 292.56452 189.732469 
L 292.781869 116.075263 
L 292.999219 177.568894 
L 293.216569 278.932022 
L 293.325243 222.844425 
L 293.433918 226.89895 
L 293.651268 188.718838 
L 293.759943 185.677944 
L 293.868617 195.138503 
L 294.085967 117.426771 
L 294.194642 167.432581 
L 294.520666 130.603978 
L 294.738016 139.726659 
L 294.84669 189.732469 
L 294.955365 137.699397 
L 295.172715 166.081073 
L 295.28139 137.699397 
L 295.390064 177.231017 
L 295.498739 271.160849 
L 295.716089 225.547441 
L 295.933438 196.490011 
L 296.042113 214.397497 
L 296.150788 209.667218 
L 296.259463 141.078168 
L 296.368138 165.067441 
L 296.476812 116.751017 
L 296.585487 177.906771 
L 296.802837 135.334257 
L 297.020186 132.969117 
L 297.128861 189.732469 
L 297.346211 169.121966 
L 297.454885 164.391687 
L 297.56356 219.127777 
L 297.672235 164.05381 
L 297.78091 220.817162 
L 297.889585 199.868782 
L 297.998259 215.749006 
L 298.106934 209.667218 
L 298.215609 211.018726 
L 298.324284 163.040179 
L 298.541633 183.988559 
L 298.650308 162.364425 
L 298.758983 207.639955 
L 298.867658 147.835709 
L 298.976333 164.729564 
L 299.085007 116.41314 
L 299.302357 140.740291 
L 299.411032 143.781184 
L 299.519706 187.36733 
L 299.737056 164.729564 
L 299.845731 149.187218 
L 300.06308 221.492916 
L 300.171755 180.947665 
L 300.389105 226.561073 
L 300.49778 224.871687 
L 300.606454 210.342972 
L 300.715129 168.108335 
L 300.932479 221.155039 
L 301.258503 186.353698 
L 301.475853 101.884425 
L 301.693202 141.416045 
L 301.801877 149.525095 
L 302.019227 123.508559 
L 302.127902 123.846436 
L 302.236576 154.931128 
L 302.345251 125.873698 
L 302.453926 176.89314 
L 302.562601 295.488 
L 302.671276 202.233922 
L 302.77995 227.574704 
L 302.888625 210.005095 
L 302.9973 212.032358 
L 303.105975 184.664313 
L 303.21465 188.718838 
L 303.323324 231.629229 
L 303.540674 174.528 
L 303.649349 187.029453 
L 303.758024 182.299173 
L 303.866698 98.505654 
L 303.975373 133.982749 
L 304.084048 131.617609 
L 304.301398 150.876603 
L 304.410072 158.647777 
L 304.518747 120.129788 
L 304.627422 166.081073 
L 304.736097 151.890235 
L 304.953446 225.547441 
L 305.062121 198.517274 
L 305.170796 220.817162 
L 305.279471 219.465654 
L 305.388145 215.411128 
L 305.49682 170.135598 
L 305.605495 222.844425 
L 305.822845 143.10543 
L 305.931519 196.152134 
L 306.148869 187.36733 
L 306.366219 128.914592 
L 306.583568 135.672134 
L 306.692243 180.947665 
L 306.800918 172.500737 
L 306.909593 117.426771 
L 307.018267 145.47057 
L 307.126942 120.805542 
L 307.452966 232.304983 
L 307.670316 210.342972 
L 307.778991 207.302078 
L 307.887666 161.350793 
L 308.105015 184.664313 
L 308.21369 187.705207 
L 308.322365 236.021631 
L 308.539714 84.652693 
L 308.648389 140.064536 
L 308.757064 125.197944 
L 308.974414 147.497832 
L 309.083088 132.293363 
L 309.191763 137.36152 
L 309.300438 106.952581 
L 309.409133 163.040179 
L 309.517895 143.10543 
L 309.735419 272.17448 
L 309.952943 219.465654 
L 310.061704 220.141408 
L 310.170466 198.855151 
L 310.279228 254.942749 
L 310.496752 161.350793 
L 310.605514 167.094704 
L 310.714275 105.601073 
L 310.823037 143.443307 
L 310.931799 88.707218 
L 311.040561 129.590346 
L 311.149323 115.399508 
L 311.366847 157.972022 
L 311.475608 169.797721 
L 311.58437 160.337162 
L 311.693132 198.855151 
L 311.801894 166.41895 
L 312.019417 228.926212 
L 312.236941 214.735374 
L 312.345703 215.749006 
L 312.454465 204.261184 
L 312.563226 158.647777 
L 312.78075 201.558168 
L 312.889512 252.915486 
L 313.324559 111.68286 
L 313.542083 144.119061 
L 313.650845 144.119061 
L 313.759607 113.710123 
L 313.868369 148.173587 
L 313.97713 111.344983 
L 314.194654 162.364425 
L 314.412178 239.738279 
L 314.520939 220.817162 
L 314.629701 226.223196 
L 314.955987 177.231017 
L 315.064749 203.923307 
L 315.499796 103.911687 
L 315.608558 149.187218 
L 315.826081 113.372246 
L 316.043605 155.94476 
L 316.152367 175.203754 
L 316.261129 159.999285 
L 316.478653 217.438391 
L 316.696176 168.108335 
L 316.9137 205.612693 
L 317.022462 216.42476 
L 317.131223 214.735374 
L 317.239985 172.500737 
L 317.348747 184.326436 
L 317.457509 179.934034 
L 317.675032 240.751911 
L 317.783794 188.718838 
L 317.892556 57.622525 
L 318.11008 132.63124 
L 318.218842 137.699397 
L 318.327604 151.890235 
L 318.436365 148.173587 
L 318.653889 122.15705 
L 319.088936 266.768447 
L 319.30646 233.318615 
L 319.632746 183.312804 
L 319.741507 183.650682 
L 319.850269 189.394592 
L 320.067793 111.007106 
L 320.176555 125.873698 
L 320.285316 94.113251 
L 320.50284 130.266101 
L 320.611602 140.402413 
L 320.720364 183.312804 
L 320.937888 127.225207 
L 321.046649 150.538726 
L 321.155411 124.52219 
L 321.264173 228.250458 
L 321.372935 194.800626 
L 321.481697 236.021631 
L 321.590459 227.574704 
L 321.69922 202.233922 
L 321.807982 203.58543 
L 321.916744 173.514369 
L 322.025506 201.558168 
L 322.134268 192.097609 
L 322.351791 137.36152 
L 322.460553 135.672134 
L 322.569315 148.849341 
L 322.678077 135.334257 
L 322.786839 138.037274 
L 322.8956 145.808447 
L 323.004362 179.258279 
L 323.113124 152.228112 
L 323.221886 155.94476 
L 323.330648 176.555263 
L 323.43941 242.779173 
L 323.656933 212.370235 
L 323.874457 223.520179 
L 323.983219 211.018726 
L 324.091981 154.931128 
L 324.309504 246.495821 
L 324.63579 121.819173 
L 324.744552 116.751017 
L 324.853313 140.402413 
L 324.962075 125.873698 
L 325.070837 136.010011 
L 325.179599 177.906771 
L 325.397122 136.347888 
L 325.723408 221.155039 
L 325.83217 269.133587 
L 325.940932 215.749006 
L 326.049694 234.670123 
L 326.158455 222.506547 
L 326.267217 170.811352 
L 326.375979 171.487106 
L 326.484741 247.171575 
L 326.919788 75.530011 
L 327.02855 123.508559 
L 327.137312 119.791911 
L 327.246074 136.347888 
L 327.354835 176.217385 
L 327.463597 171.824983 
L 327.572359 158.647777 
L 327.681121 181.623419 
L 327.789883 119.116156 
L 327.898645 164.391687 
L 328.007406 260.010905 
L 328.333692 210.342972 
L 328.442454 150.200849 
L 328.551216 253.59124 
L 328.768739 149.187218 
L 328.877501 238.048894 
L 329.095025 110.331352 
L 329.203787 117.088894 
L 329.42131 139.726659 
L 329.530072 155.606883 
L 329.638834 98.167777 
L 330.073881 241.427665 
L 330.182643 228.250458 
L 330.291405 196.152134 
L 330.400167 233.318615 
L 330.61769 210.680849 
L 330.726452 247.509453 
L 330.835214 222.506547 
L 330.943976 137.36152 
L 331.052738 192.773363 
L 331.161499 187.029453 
L 331.270261 158.309899 
L 331.379023 94.113251 
L 332.140356 206.626324 
L 332.249118 224.53381 
L 332.575403 202.233922 
L 332.684165 217.100514 
L 332.792927 215.411128 
L 332.901689 219.127777 
L 333.010451 162.364425 
L 333.227974 191.083978 
L 333.336736 189.394592 
L 333.445498 240.414034 
L 333.663021 87.355709 
L 333.771783 110.669229 
L 334.098069 163.378056 
L 334.206831 92.761743 
L 334.315592 169.459844 
L 334.424354 163.040179 
L 334.533116 175.203754 
L 334.641878 255.280626 
L 334.75064 207.639955 
L 334.859402 260.010905 
L 334.968163 213.045989 
L 335.076925 227.574704 
L 335.294449 190.746101 
L 335.403211 222.16867 
L 335.94702 111.007106 
L 336.164544 139.388782 
L 336.273305 121.143419 
L 336.490829 154.931128 
L 336.599591 158.309899 
L 336.708353 150.876603 
L 336.817114 200.882413 
L 336.925876 177.231017 
L 337.034638 244.130682 
L 337.1434 239.062525 
L 337.252162 204.261184 
L 337.469685 224.871687 
L 337.795971 187.36733 
L 337.904733 195.138503 
L 338.122257 130.603978 
L 338.231018 143.781184 
L 338.33978 119.454034 
L 338.557304 141.078168 
L 338.666066 129.928223 
L 338.774827 139.050905 
L 338.883589 186.691575 
L 338.992351 167.094704 
L 339.209875 188.380961 
L 339.318637 135.672134 
L 339.427398 197.165765 
L 339.53616 190.408223 
L 339.644922 228.588335 
L 339.862446 212.032358 
L 339.971208 209.667218 
L 340.079969 176.555263 
L 340.188731 192.435486 
L 340.297493 180.609788 
L 340.406255 201.220291 
L 340.515017 193.11124 
L 340.73254 165.405318 
L 340.841302 107.290458 
L 341.167588 156.958391 
L 341.27635 105.93895 
L 341.385111 134.320626 
L 341.493873 123.170682 
L 341.711397 176.217385 
L 341.820159 195.138503 
L 341.92892 269.809341 
L 342.255206 204.936939 
L 342.47273 183.988559 
L 342.581491 187.029453 
L 342.690253 135.672134 
L 342.799015 226.223196 
L 342.907777 112.020737 
L 343.016539 115.399508 
L 343.234063 133.644872 
L 343.342824 130.266101 
L 343.451586 136.685765 
L 343.560348 165.743196 
L 343.66911 124.184313 
L 343.886633 141.753922 
L 343.995395 118.102525 
L 344.321681 249.536715 
L 344.539204 210.342972 
L 344.647966 200.882413 
L 344.756728 243.792804 
L 344.86549 223.520179 
L 344.974252 147.159955 
L 345.083014 150.200849 
L 345.191775 136.347888 
L 345.300537 139.726659 
L 345.409299 150.200849 
L 345.626823 123.846436 
L 345.735585 141.753922 
L 345.844346 121.819173 
L 345.953108 156.282637 
L 346.06187 138.375151 
L 346.170632 142.429676 
L 346.279394 111.007106 
L 346.388156 211.356603 
L 346.496917 205.95057 
L 346.605679 252.239732 
L 346.931965 199.530905 
L 347.040726 233.994369 
L 347.149488 220.479285 
L 347.367012 144.794816 
L 347.475774 106.276827 
L 347.584536 109.655598 
L 347.693298 153.917497 
L 347.802059 147.497832 
L 347.910821 120.129788 
L 348.019583 135.334257 
L 348.128345 170.473475 
L 348.237107 161.68867 
L 348.345869 167.432581 
L 348.45463 157.972022 
L 348.563392 133.644872 
L 348.672154 178.582525 
L 348.780916 160.337162 
L 348.998439 225.209564 
L 349.215963 197.503642 
L 349.324725 205.612693 
L 349.433487 172.500737 
L 349.542249 246.157944 
L 349.65101 201.558168 
L 349.759772 225.547441 
L 349.977296 53.568 
L 350.303581 141.416045 
L 350.412343 157.634145 
L 350.521105 117.426771 
L 350.629867 180.947665 
L 350.738629 155.606883 
L 350.847391 220.479285 
L 351.064914 164.391687 
L 351.282438 216.762637 
L 351.3912 213.045989 
L 351.608723 182.63705 
L 351.717485 183.650682 
L 352.043771 231.967106 
L 352.152532 171.487106 
L 352.261294 183.650682 
L 352.370056 107.290458 
L 352.696342 149.862972 
L 352.805104 93.775374 
L 352.913865 146.822078 
L 353.022627 139.050905 
L 353.131389 118.102525 
L 353.240151 236.359508 
L 353.457675 195.47638 
L 353.675198 226.561073 
L 353.78396 221.492916 
L 354.001484 179.596156 
L 354.219007 201.220291 
L 354.327769 139.726659 
L 354.436531 193.11124 
L 354.545293 71.475486 
L 354.762816 142.091799 
L 354.871578 136.010011 
L 354.98034 153.57962 
L 355.089102 122.832804 
L 355.306626 197.165765 
L 355.415387 191.083978 
L 355.524149 186.691575 
L 355.632911 158.985654 
L 355.850435 227.236827 
L 356.067958 198.517274 
L 356.17672 253.59124 
L 356.285482 171.824983 
L 356.394244 224.871687 
L 356.503006 191.421855 
L 356.611768 104.249564 
L 356.720529 116.751017 
L 356.829291 161.350793 
L 356.938053 114.048 
L 357.155577 145.132693 
L 357.264338 180.609788 
L 357.3731 164.729564 
L 357.481862 131.955486 
L 357.699386 203.247553 
L 357.808148 227.236827 
L 357.916909 204.936939 
L 358.134433 213.383866 
L 358.243195 217.100514 
L 358.460719 178.582525 
L 358.56948 204.599061 
L 358.678242 204.261184 
L 359.004528 64.04219 
L 359.11329 142.767553 
L 359.222051 121.819173 
L 359.330813 139.388782 
L 359.439575 125.873698 
L 359.548337 181.285542 
L 359.765861 151.552358 
L 359.874622 177.568894 
L 359.983384 162.364425 
L 360.092146 265.079061 
L 360.200908 211.018726 
L 360.30967 229.264089 
L 360.635955 197.503642 
L 360.744717 232.64286 
L 361.071002 117.426771 
L 361.288526 126.211575 
L 361.50605 150.200849 
L 361.614812 89.045095 
L 361.941097 218.452022 
L 362.049859 185.677944 
L 362.158621 191.759732 
L 362.267383 246.833698 
L 362.484906 207.639955 
L 362.593668 160.337162 
L 362.919954 203.923307 
L 363.028715 186.353698 
L 363.246239 132.969117 
L 363.355001 132.63124 
L 363.463763 118.102525 
L 363.572525 145.132693 
L 363.681286 119.116156 
L 363.790048 123.170682 
L 364.116334 222.506547 
L 364.225096 163.040179 
L 364.442619 228.926212 
L 364.768905 171.487106 
L 364.877667 207.302078 
L 364.986428 204.936939 
L 365.09519 225.547441 
L 365.312714 98.843531 
L 365.421476 141.078168 
L 365.530237 136.685765 
L 365.638999 149.187218 
L 365.747761 177.231017 
L 365.856523 116.41314 
L 365.965285 126.88733 
L 366.074047 190.408223 
L 366.29157 180.271911 
L 366.509094 231.291352 
L 366.726618 191.083978 
L 366.835379 223.858056 
L 366.944141 186.691575 
L 367.052903 200.544536 
L 367.161665 193.786994 
L 367.270427 172.16286 
L 367.379189 81.273922 
L 367.814236 166.756827 
L 367.922998 161.68867 
L 368.03176 133.306994 
L 368.140521 151.890235 
L 368.249283 142.091799 
L 368.466807 247.171575 
L 368.68433 211.69448 
L 368.793092 210.005095 
L 368.901854 267.106324 
L 369.22814 150.538726 
L 369.336901 138.713028 
L 369.445663 140.064536 
L 369.554425 104.249564 
L 369.880711 169.121966 
L 369.989473 126.211575 
L 370.098234 134.320626 
L 370.315758 221.492916 
L 370.42452 222.844425 
L 370.533282 183.312804 
L 370.642043 233.994369 
L 370.859567 217.438391 
L 370.968329 190.408223 
L 371.077091 258.997274 
L 371.512138 132.969117 
L 371.6209 139.388782 
L 371.729662 154.255374 
L 371.838424 137.36152 
L 371.947185 140.064536 
L 372.055947 145.808447 
L 372.164709 111.68286 
L 372.273471 135.672134 
L 372.382233 190.070346 
L 372.490995 180.271911 
L 372.599757 239.738279 
L 372.81728 194.124872 
L 372.926042 219.803531 
L 373.143566 201.558168 
L 373.252327 238.724648 
L 373.361089 223.520179 
L 373.469851 151.21448 
L 373.578613 167.770458 
L 373.796136 87.017832 
L 373.904898 152.565989 
L 374.01366 133.982749 
L 374.122422 135.672134 
L 374.231184 150.200849 
L 374.339946 97.154145 
L 374.557469 209.667218 
L 374.883755 154.593251 
L 374.992517 237.035263 
L 375.427564 171.149229 
L 375.536326 183.312804 
L 375.645088 181.623419 
L 375.753849 236.359508 
L 375.971373 63.028559 
L 376.188897 115.737385 
L 376.40642 175.879508 
L 376.515186 146.146324 
L 376.623958 148.849341 
L 376.841504 221.155039 
L 376.950276 222.16867 
L 377.059049 217.100514 
L 377.167822 218.452022 
L 377.385367 189.394592 
L 377.49414 219.803531 
L 377.602913 187.029453 
L 377.711685 202.909676 
L 377.820458 115.399508 
L 378.038004 152.565989 
L 378.255549 128.914592 
L 378.364322 156.620514 
L 378.581867 128.914592 
L 378.69064 187.36733 
L 378.799412 127.225207 
L 378.908185 169.797721 
L 379.016958 272.17448 
L 379.234503 226.89895 
L 379.343276 216.762637 
L 379.452049 185.00219 
L 379.669594 232.64286 
L 379.887139 142.767553 
L 379.995912 154.255374 
L 380.104685 148.511464 
L 380.213458 124.52219 
L 380.539776 170.473475 
L 380.648548 159.323531 
L 380.757321 159.661408 
L 380.866094 235.683754 
L 380.974867 222.506547 
L 381.083639 195.47638 
L 381.192412 216.762637 
L 381.301185 212.370235 
L 381.409957 194.800626 
L 381.51873 236.697385 
L 381.736276 155.94476 
L 381.845048 225.885318 
L 382.062594 94.113251 
L 382.171366 131.279732 
L 382.280139 118.102525 
L 382.388912 138.037274 
L 382.497685 189.732469 
L 382.71523 118.440402 
L 382.932775 211.69448 
L 383.041548 172.838615 
L 383.150321 236.359508 
L 383.367866 218.789899 
L 383.585412 175.879508 
L 383.694184 194.462749 
L 383.802957 190.408223 
L 384.020503 123.508559 
L 384.129275 127.225207 
L 384.346821 138.375151 
L 384.455593 148.173587 
L 384.564366 115.737385 
L 384.673139 131.617609 
L 384.890684 204.599061 
L 385.10823 166.081073 
L 385.217002 242.441296 
L 385.54332 198.517274 
L 385.652093 210.005095 
L 385.760866 167.432581 
L 385.978411 243.11705 
L 386.195957 58.298279 
L 386.304729 142.091799 
L 386.413502 127.900961 
L 386.522275 138.037274 
L 386.631048 169.121966 
L 386.73982 167.094704 
L 386.848593 116.075263 
L 386.957366 151.890235 
L 387.066138 227.912581 
L 387.174911 226.561073 
L 387.283684 203.923307 
L 387.392456 221.830793 
L 387.501229 217.100514 
L 387.610002 202.233922 
L 387.718775 160.337162 
L 387.827547 204.599061 
L 388.045093 135.334257 
L 388.153865 120.467665 
L 388.371411 154.931128 
L 388.480184 127.563084 
L 388.697729 161.350793 
L 388.806502 114.048 
L 388.915274 122.15705 
L 389.13282 201.558168 
L 389.241592 209.667218 
L 389.350365 181.623419 
L 389.459138 246.833698 
L 389.676683 206.964201 
L 389.785456 193.449117 
L 389.894229 262.038168 
L 390.003001 219.803531 
L 390.111774 130.266101 
L 390.32932 139.050905 
L 390.438092 63.704313 
L 390.655638 125.535821 
L 390.873183 154.931128 
L 390.981956 93.775374 
L 391.308274 239.062525 
L 391.417047 162.364425 
L 391.634592 243.454927 
L 392.178456 166.41895 
L 392.287228 174.528 
L 392.396001 233.656492 
L 392.722319 123.508559 
L 392.831092 117.764648 
L 393.15741 179.934034 
L 393.266183 143.781184 
L 393.374956 212.032358 
L 393.483728 132.969117 
L 393.701273 231.291352 
L 393.810046 217.438391 
L 393.918819 221.830793 
L 394.027592 206.964201 
L 394.136364 161.012916 
L 394.35391 250.550346 
L 394.571455 132.969117 
L 394.680228 122.15705 
L 394.789001 154.593251 
L 394.897773 134.99638 
L 395.006546 140.402413 
L 395.115319 163.378056 
L 395.224091 99.857162 
L 395.55041 233.318615 
L 395.659182 178.244648 
L 395.767955 193.449117 
L 395.876728 237.711017 
L 396.094273 205.612693 
L 396.203046 155.269006 
L 396.420591 197.503642 
L 396.529364 196.490011 
L 396.855682 98.167777 
L 396.964455 132.969117 
L 397.073228 129.928223 
L 397.182 152.565989 
L 397.399546 124.52219 
L 397.508318 169.797721 
L 397.617091 167.094704 
L 397.725864 229.601966 
L 397.834637 222.506547 
L 397.943409 198.179397 
L 398.052182 226.89895 
L 398.160955 221.492916 
L 398.269727 194.800626 
L 398.3785 257.645765 
L 398.487273 182.63705 
L 398.487273 182.63705 
" style="fill:none;stroke:#1f77b4;stroke-linecap:square;stroke-width:1.5;"/>
   </g>
   <g id="patch_3">
    <path d="M 57.6 307.584 
L 57.6 41.472 
" style="fill:none;stroke:#000000;stroke-linecap:square;stroke-linejoin:miter;stroke-width:0.8;"/>
   </g>
   <g id="patch_4">
    <path d="M 414.72 307.584 
L 414.72 41.472 
" style="fill:none;stroke:#000000;stroke-linecap:square;stroke-linejoin:miter;stroke-width:0.8;"/>
   </g>
   <g id="patch_5">
    <path d="M 57.6 307.584 
L 414.72 307.584 
" style="fill:none;stroke:#000000;stroke-linecap:square;stroke-linejoin:miter;stroke-width:0.8;"/>
   </g>
   <g id="patch_6">
    <path d="M 57.6 41.472 
L 414.72 41.472 
" style="fill:none;stroke:#000000;stroke-linecap:square;stroke-linejoin:miter;stroke-width:0.8;"/>
   </g>
   <g id="text_18">
    <!-- Voltage measured with source voltage 100.0 mV -->
    <defs>
     <path d="M 52 44.1875 
Q 55.375 50.25 60.0625 53.125 
Q 64.75 56 71.09375 56 
Q 79.640625 56 84.28125 50.015625 
Q 88.921875 44.046875 88.921875 33.015625 
L 88.921875 0 
L 79.890625 0 
L 79.890625 32.71875 
Q 79.890625 40.578125 77.09375 44.375 
Q 74.3125 48.1875 68.609375 48.1875 
Q 61.625 48.1875 57.5625 43.546875 
Q 53.515625 38.921875 53.515625 30.90625 
L 53.515625 0 
L 44.484375 0 
L 44.484375 32.71875 
Q 44.484375 40.625 41.703125 44.40625 
Q 38.921875 48.1875 33.109375 48.1875 
Q 26.21875 48.1875 22.15625 43.53125 
Q 18.109375 38.875 18.109375 30.90625 
L 18.109375 0 
L 9.078125 0 
L 9.078125 54.6875 
L 18.109375 54.6875 
L 18.109375 46.1875 
Q 21.1875 51.21875 25.484375 53.609375 
Q 29.78125 56 35.6875 56 
Q 41.65625 56 45.828125 52.96875 
Q 50 49.953125 52 44.1875 
z
" id="DejaVuSans-6d"/>
     <path d="M 8.5 21.578125 
L 8.5 54.6875 
L 17.484375 54.6875 
L 17.484375 21.921875 
Q 17.484375 14.15625 20.5 10.265625 
Q 23.53125 6.390625 29.59375 6.390625 
Q 36.859375 6.390625 41.078125 11.03125 
Q 45.3125 15.671875 45.3125 23.6875 
L 45.3125 54.6875 
L 54.296875 54.6875 
L 54.296875 0 
L 45.3125 0 
L 45.3125 8.40625 
Q 42.046875 3.421875 37.71875 1 
Q 33.40625 -1.421875 27.6875 -1.421875 
Q 18.265625 -1.421875 13.375 4.4375 
Q 8.5 10.296875 8.5 21.578125 
z
M 31.109375 56 
z
" id="DejaVuSans-75"/>
     <path d="M 41.109375 46.296875 
Q 39.59375 47.171875 37.8125 47.578125 
Q 36.03125 48 33.890625 48 
Q 26.265625 48 22.1875 43.046875 
Q 18.109375 38.09375 18.109375 28.8125 
L 18.109375 0 
L 9.078125 0 
L 9.078125 54.6875 
L 18.109375 54.6875 
L 18.109375 46.1875 
Q 20.953125 51.171875 25.484375 53.578125 
Q 30.03125 56 36.53125 56 
Q 37.453125 56 38.578125 55.875 
Q 39.703125 55.765625 41.0625 55.515625 
z
" id="DejaVuSans-72"/>
     <path d="M 45.40625 46.390625 
L 45.40625 75.984375 
L 54.390625 75.984375 
L 54.390625 0 
L 45.40625 0 
L 45.40625 8.203125 
Q 42.578125 3.328125 38.25 0.953125 
Q 33.9375 -1.421875 27.875 -1.421875 
Q 17.96875 -1.421875 11.734375 6.484375 
Q 5.515625 14.40625 5.515625 27.296875 
Q 5.515625 40.1875 11.734375 48.09375 
Q 17.96875 56 27.875 56 
Q 33.9375 56 38.25 53.625 
Q 42.578125 51.265625 45.40625 46.390625 
z
M 14.796875 27.296875 
Q 14.796875 17.390625 18.875 11.75 
Q 22.953125 6.109375 30.078125 6.109375 
Q 37.203125 6.109375 41.296875 11.75 
Q 45.40625 17.390625 45.40625 27.296875 
Q 45.40625 37.203125 41.296875 42.84375 
Q 37.203125 48.484375 30.078125 48.484375 
Q 22.953125 48.484375 18.875 42.84375 
Q 14.796875 37.203125 14.796875 27.296875 
z
" id="DejaVuSans-64"/>
     <path d="M 4.203125 54.6875 
L 13.1875 54.6875 
L 24.421875 12.015625 
L 35.59375 54.6875 
L 46.1875 54.6875 
L 57.421875 12.015625 
L 68.609375 54.6875 
L 77.59375 54.6875 
L 63.28125 0 
L 52.6875 0 
L 40.921875 44.828125 
L 29.109375 0 
L 18.5 0 
z
" id="DejaVuSans-77"/>
     <path d="M 9.421875 54.6875 
L 18.40625 54.6875 
L 18.40625 0 
L 9.421875 0 
z
M 9.421875 75.984375 
L 18.40625 75.984375 
L 18.40625 64.59375 
L 9.421875 64.59375 
z
" id="DejaVuSans-69"/>
     <path d="M 54.890625 33.015625 
L 54.890625 0 
L 45.90625 0 
L 45.90625 32.71875 
Q 45.90625 40.484375 42.875 44.328125 
Q 39.84375 48.1875 33.796875 48.1875 
Q 26.515625 48.1875 22.3125 43.546875 
Q 18.109375 38.921875 18.109375 30.90625 
L 18.109375 0 
L 9.078125 0 
L 9.078125 75.984375 
L 18.109375 75.984375 
L 18.109375 46.1875 
Q 21.34375 51.125 25.703125 53.5625 
Q 30.078125 56 35.796875 56 
Q 45.21875 56 50.046875 50.171875 
Q 54.890625 44.34375 54.890625 33.015625 
z
" id="DejaVuSans-68"/>
     <path d="M 48.78125 52.59375 
L 48.78125 44.1875 
Q 44.96875 46.296875 41.140625 47.34375 
Q 37.3125 48.390625 33.40625 48.390625 
Q 24.65625 48.390625 19.8125 42.84375 
Q 14.984375 37.3125 14.984375 27.296875 
Q 14.984375 17.28125 19.8125 11.734375 
Q 24.65625 6.203125 33.40625 6.203125 
Q 37.3125 6.203125 41.140625 7.25 
Q 44.96875 8.296875 48.78125 10.40625 
L 48.78125 2.09375 
Q 45.015625 0.34375 40.984375 -0.53125 
Q 36.96875 -1.421875 32.421875 -1.421875 
Q 20.0625 -1.421875 12.78125 6.34375 
Q 5.515625 14.109375 5.515625 27.296875 
Q 5.515625 40.671875 12.859375 48.328125 
Q 20.21875 56 33.015625 56 
Q 37.15625 56 41.109375 55.140625 
Q 45.0625 54.296875 48.78125 52.59375 
z
" id="DejaVuSans-63"/>
     <path d="M 2.984375 54.6875 
L 12.5 54.6875 
L 29.59375 8.796875 
L 46.6875 54.6875 
L 56.203125 54.6875 
L 35.6875 0 
L 23.484375 0 
z
" id="DejaVuSans-76"/>
    </defs>
    <g transform="translate(89.3175 35.472)scale(0.12 -0.12)">
     <use xlink:href="#DejaVuSans-56"/>
     <use x="68.298828" xlink:href="#DejaVuSans-6f"/>
     <use x="129.480469" xlink:href="#DejaVuSans-6c"/>
     <use x="157.263672" xlink:href="#DejaVuSans-74"/>
     <use x="196.472656" xlink:href="#DejaVuSans-61"/>
     <use x="257.751953" xlink:href="#DejaVuSans-67"/>
     <use x="321.228516" xlink:href="#DejaVuSans-65"/>
     <use x="382.751953" xlink:href="#DejaVuSans-20"/>
     <use x="414.539062" xlink:href="#DejaVuSans-6d"/>
     <use x="511.951172" xlink:href="#DejaVuSans-65"/>
     <use x="573.474609" xlink:href="#DejaVuSans-61"/>
     <use x="634.753906" xlink:href="#DejaVuSans-73"/>
     <use x="686.853516" xlink:href="#DejaVuSans-75"/>
     <use x="750.232422" xlink:href="#DejaVuSans-72"/>
     <use x="791.314453" xlink:href="#DejaVuSans-65"/>
     <use x="852.837891" xlink:href="#DejaVuSans-64"/>
     <use x="916.314453" xlink:href="#DejaVuSans-20"/>
     <use x="948.101562" xlink:href="#DejaVuSans-77"/>
     <use x="1029.888672" xlink:href="#DejaVuSans-69"/>
     <use x="1057.671875" xlink:href="#DejaVuSans-74"/>
     <use x="1096.880859" xlink:href="#DejaVuSans-68"/>
     <use x="1160.259766" xlink:href="#DejaVuSans-20"/>
     <use x="1192.046875" xlink:href="#DejaVuSans-73"/>
     <use x="1244.146484" xlink:href="#DejaVuSans-6f"/>
     <use x="1305.328125" xlink:href="#DejaVuSans-75"/>
     <use x="1368.707031" xlink:href="#DejaVuSans-72"/>
     <use x="1409.789062" xlink:href="#DejaVuSans-63"/>
     <use x="1464.769531" xlink:href="#DejaVuSans-65"/>
     <use x="1526.292969" xlink:href="#DejaVuSans-20"/>
     <use x="1558.080078" xlink:href="#DejaVuSans-76"/>
     <use x="1617.259766" xlink:href="#DejaVuSans-6f"/>
     <use x="1678.441406" xlink:href="#DejaVuSans-6c"/>
     <use x="1706.224609" xlink:href="#DejaVuSans-74"/>
     <use x="1745.433594" xlink:href="#DejaVuSans-61"/>
     <use x="1806.712891" xlink:href="#DejaVuSans-67"/>
     <use x="1870.189453" xlink:href="#DejaVuSans-65"/>
     <use x="1931.712891" xlink:href="#DejaVuSans-20"/>
     <use x="1963.5" xlink:href="#DejaVuSans-31"/>
     <use x="2027.123047" xlink:href="#DejaVuSans-30"/>
     <use x="2090.746094" xlink:href="#DejaVuSans-30"/>
     <use x="2154.369141" xlink:href="#DejaVuSans-2e"/>
     <use x="2186.15625" xlink:href="#DejaVuSans-30"/>
     <use x="2249.779297" xlink:href="#DejaVuSans-20"/>
     <use x="2281.566406" xlink:href="#DejaVuSans-6d"/>
     <use x="2378.978516" xlink:href="#DejaVuSans-56"/>
    </g>
   </g>
  </g>
 </g>
 <defs>
  <clipPath id="pca4b085f65">
   <rect height="266.112" width="357.12" x="57.6" y="41.472"/>
  </clipPath>
 </defs>
</svg>
