<?xml version="1.0" encoding="utf-8" standalone="no"?>
<!DOCTYPE svg PUBLIC "-//W3C//DTD SVG 1.1//EN"
  "http://www.w3.org/Graphics/SVG/1.1/DTD/svg11.dtd">
<!-- Created with matplotlib (http://matplotlib.org/) -->
<svg height="345pt" version="1.1" viewBox="0 0 460 345" width="460pt" xmlns="http://www.w3.org/2000/svg" xmlns:xlink="http://www.w3.org/1999/xlink">
 <defs>
  <style type="text/css">
*{stroke-linecap:butt;stroke-linejoin:round;}
  </style>
 </defs>
 <g id="figure_1">
  <g id="patch_1">
   <path d="M 0 345.6 
L 460.8 345.6 
L 460.8 0 
L 0 0 
z
" style="fill:#ffffff;"/>
  </g>
  <g id="axes_1">
   <g id="patch_2">
    <path d="M 57.6 307.584 
L 414.72 307.584 
L 414.72 41.472 
L 57.6 41.472 
z
" style="fill:#ffffff;"/>
   </g>
   <g id="matplotlib.axis_1">
    <g id="xtick_1">
     <g id="line2d_1">
      <defs>
       <path d="M 0 0 
L 0 3.5 
" id="m110bee00b1" style="stroke:#000000;stroke-width:0.8;"/>
      </defs>
      <g>
       <use style="stroke:#000000;stroke-width:0.8;" x="73.832727" xlink:href="#m110bee00b1" y="307.584"/>
      </g>
     </g>
     <g id="text_1">
      <!-- 0 -->
      <defs>
       <path d="M 31.78125 66.40625 
Q 24.171875 66.40625 20.328125 58.90625 
Q 16.5 51.421875 16.5 36.375 
Q 16.5 21.390625 20.328125 13.890625 
Q 24.171875 6.390625 31.78125 6.390625 
Q 39.453125 6.390625 43.28125 13.890625 
Q 47.125 21.390625 47.125 36.375 
Q 47.125 51.421875 43.28125 58.90625 
Q 39.453125 66.40625 31.78125 66.40625 
z
M 31.78125 74.21875 
Q 44.046875 74.21875 50.515625 64.515625 
Q 56.984375 54.828125 56.984375 36.375 
Q 56.984375 17.96875 50.515625 8.265625 
Q 44.046875 -1.421875 31.78125 -1.421875 
Q 19.53125 -1.421875 13.0625 8.265625 
Q 6.59375 17.96875 6.59375 36.375 
Q 6.59375 54.828125 13.0625 64.515625 
Q 19.53125 74.21875 31.78125 74.21875 
z
" id="DejaVuSans-30"/>
      </defs>
      <g transform="translate(70.651477 322.182437)scale(0.1 -0.1)">
       <use xlink:href="#DejaVuSans-30"/>
      </g>
     </g>
    </g>
    <g id="xtick_2">
     <g id="line2d_2">
      <g>
       <use style="stroke:#000000;stroke-width:0.8;" x="127.950297" xlink:href="#m110bee00b1" y="307.584"/>
      </g>
     </g>
     <g id="text_2">
      <!-- 100 -->
      <defs>
       <path d="M 12.40625 8.296875 
L 28.515625 8.296875 
L 28.515625 63.921875 
L 10.984375 60.40625 
L 10.984375 69.390625 
L 28.421875 72.90625 
L 38.28125 72.90625 
L 38.28125 8.296875 
L 54.390625 8.296875 
L 54.390625 0 
L 12.40625 0 
z
" id="DejaVuSans-31"/>
      </defs>
      <g transform="translate(118.406547 322.182437)scale(0.1 -0.1)">
       <use xlink:href="#DejaVuSans-31"/>
       <use x="63.623047" xlink:href="#DejaVuSans-30"/>
       <use x="127.246094" xlink:href="#DejaVuSans-30"/>
      </g>
     </g>
    </g>
    <g id="xtick_3">
     <g id="line2d_3">
      <g>
       <use style="stroke:#000000;stroke-width:0.8;" x="182.067866" xlink:href="#m110bee00b1" y="307.584"/>
      </g>
     </g>
     <g id="text_3">
      <!-- 200 -->
      <defs>
       <path d="M 19.1875 8.296875 
L 53.609375 8.296875 
L 53.609375 0 
L 7.328125 0 
L 7.328125 8.296875 
Q 12.9375 14.109375 22.625 23.890625 
Q 32.328125 33.6875 34.8125 36.53125 
Q 39.546875 41.84375 41.421875 45.53125 
Q 43.3125 49.21875 43.3125 52.78125 
Q 43.3125 58.59375 39.234375 62.25 
Q 35.15625 65.921875 28.609375 65.921875 
Q 23.96875 65.921875 18.8125 64.3125 
Q 13.671875 62.703125 7.8125 59.421875 
L 7.8125 69.390625 
Q 13.765625 71.78125 18.9375 73 
Q 24.125 74.21875 28.421875 74.21875 
Q 39.75 74.21875 46.484375 68.546875 
Q 53.21875 62.890625 53.21875 53.421875 
Q 53.21875 48.921875 51.53125 44.890625 
Q 49.859375 40.875 45.40625 35.40625 
Q 44.1875 33.984375 37.640625 27.21875 
Q 31.109375 20.453125 19.1875 8.296875 
z
" id="DejaVuSans-32"/>
      </defs>
      <g transform="translate(172.524116 322.182437)scale(0.1 -0.1)">
       <use xlink:href="#DejaVuSans-32"/>
       <use x="63.623047" xlink:href="#DejaVuSans-30"/>
       <use x="127.246094" xlink:href="#DejaVuSans-30"/>
      </g>
     </g>
    </g>
    <g id="xtick_4">
     <g id="line2d_4">
      <g>
       <use style="stroke:#000000;stroke-width:0.8;" x="236.185435" xlink:href="#m110bee00b1" y="307.584"/>
      </g>
     </g>
     <g id="text_4">
      <!-- 300 -->
      <defs>
       <path d="M 40.578125 39.3125 
Q 47.65625 37.796875 51.625 33 
Q 55.609375 28.21875 55.609375 21.1875 
Q 55.609375 10.40625 48.1875 4.484375 
Q 40.765625 -1.421875 27.09375 -1.421875 
Q 22.515625 -1.421875 17.65625 -0.515625 
Q 12.796875 0.390625 7.625 2.203125 
L 7.625 11.71875 
Q 11.71875 9.328125 16.59375 8.109375 
Q 21.484375 6.890625 26.8125 6.890625 
Q 36.078125 6.890625 40.9375 10.546875 
Q 45.796875 14.203125 45.796875 21.1875 
Q 45.796875 27.640625 41.28125 31.265625 
Q 36.765625 34.90625 28.71875 34.90625 
L 20.21875 34.90625 
L 20.21875 43.015625 
L 29.109375 43.015625 
Q 36.375 43.015625 40.234375 45.921875 
Q 44.09375 48.828125 44.09375 54.296875 
Q 44.09375 59.90625 40.109375 62.90625 
Q 36.140625 65.921875 28.71875 65.921875 
Q 24.65625 65.921875 20.015625 65.03125 
Q 15.375 64.15625 9.8125 62.3125 
L 9.8125 71.09375 
Q 15.4375 72.65625 20.34375 73.4375 
Q 25.25 74.21875 29.59375 74.21875 
Q 40.828125 74.21875 47.359375 69.109375 
Q 53.90625 64.015625 53.90625 55.328125 
Q 53.90625 49.265625 50.4375 45.09375 
Q 46.96875 40.921875 40.578125 39.3125 
z
" id="DejaVuSans-33"/>
      </defs>
      <g transform="translate(226.641685 322.182437)scale(0.1 -0.1)">
       <use xlink:href="#DejaVuSans-33"/>
       <use x="63.623047" xlink:href="#DejaVuSans-30"/>
       <use x="127.246094" xlink:href="#DejaVuSans-30"/>
      </g>
     </g>
    </g>
    <g id="xtick_5">
     <g id="line2d_5">
      <g>
       <use style="stroke:#000000;stroke-width:0.8;" x="290.303005" xlink:href="#m110bee00b1" y="307.584"/>
      </g>
     </g>
     <g id="text_5">
      <!-- 400 -->
      <defs>
       <path d="M 37.796875 64.3125 
L 12.890625 25.390625 
L 37.796875 25.390625 
z
M 35.203125 72.90625 
L 47.609375 72.90625 
L 47.609375 25.390625 
L 58.015625 25.390625 
L 58.015625 17.1875 
L 47.609375 17.1875 
L 47.609375 0 
L 37.796875 0 
L 37.796875 17.1875 
L 4.890625 17.1875 
L 4.890625 26.703125 
z
" id="DejaVuSans-34"/>
      </defs>
      <g transform="translate(280.759255 322.182437)scale(0.1 -0.1)">
       <use xlink:href="#DejaVuSans-34"/>
       <use x="63.623047" xlink:href="#DejaVuSans-30"/>
       <use x="127.246094" xlink:href="#DejaVuSans-30"/>
      </g>
     </g>
    </g>
    <g id="xtick_6">
     <g id="line2d_6">
      <g>
       <use style="stroke:#000000;stroke-width:0.8;" x="344.420574" xlink:href="#m110bee00b1" y="307.584"/>
      </g>
     </g>
     <g id="text_6">
      <!-- 500 -->
      <defs>
       <path d="M 10.796875 72.90625 
L 49.515625 72.90625 
L 49.515625 64.59375 
L 19.828125 64.59375 
L 19.828125 46.734375 
Q 21.96875 47.46875 24.109375 47.828125 
Q 26.265625 48.1875 28.421875 48.1875 
Q 40.625 48.1875 47.75 41.5 
Q 54.890625 34.8125 54.890625 23.390625 
Q 54.890625 11.625 47.5625 5.09375 
Q 40.234375 -1.421875 26.90625 -1.421875 
Q 22.3125 -1.421875 17.546875 -0.640625 
Q 12.796875 0.140625 7.71875 1.703125 
L 7.71875 11.625 
Q 12.109375 9.234375 16.796875 8.0625 
Q 21.484375 6.890625 26.703125 6.890625 
Q 35.15625 6.890625 40.078125 11.328125 
Q 45.015625 15.765625 45.015625 23.390625 
Q 45.015625 31 40.078125 35.4375 
Q 35.15625 39.890625 26.703125 39.890625 
Q 22.75 39.890625 18.8125 39.015625 
Q 14.890625 38.140625 10.796875 36.28125 
z
" id="DejaVuSans-35"/>
      </defs>
      <g transform="translate(334.876824 322.182437)scale(0.1 -0.1)">
       <use xlink:href="#DejaVuSans-35"/>
       <use x="63.623047" xlink:href="#DejaVuSans-30"/>
       <use x="127.246094" xlink:href="#DejaVuSans-30"/>
      </g>
     </g>
    </g>
    <g id="xtick_7">
     <g id="line2d_7">
      <g>
       <use style="stroke:#000000;stroke-width:0.8;" x="398.538143" xlink:href="#m110bee00b1" y="307.584"/>
      </g>
     </g>
     <g id="text_7">
      <!-- 600 -->
      <defs>
       <path d="M 33.015625 40.375 
Q 26.375 40.375 22.484375 35.828125 
Q 18.609375 31.296875 18.609375 23.390625 
Q 18.609375 15.53125 22.484375 10.953125 
Q 26.375 6.390625 33.015625 6.390625 
Q 39.65625 6.390625 43.53125 10.953125 
Q 47.40625 15.53125 47.40625 23.390625 
Q 47.40625 31.296875 43.53125 35.828125 
Q 39.65625 40.375 33.015625 40.375 
z
M 52.59375 71.296875 
L 52.59375 62.3125 
Q 48.875 64.0625 45.09375 64.984375 
Q 41.3125 65.921875 37.59375 65.921875 
Q 27.828125 65.921875 22.671875 59.328125 
Q 17.53125 52.734375 16.796875 39.40625 
Q 19.671875 43.65625 24.015625 45.921875 
Q 28.375 48.1875 33.59375 48.1875 
Q 44.578125 48.1875 50.953125 41.515625 
Q 57.328125 34.859375 57.328125 23.390625 
Q 57.328125 12.15625 50.6875 5.359375 
Q 44.046875 -1.421875 33.015625 -1.421875 
Q 20.359375 -1.421875 13.671875 8.265625 
Q 6.984375 17.96875 6.984375 36.375 
Q 6.984375 53.65625 15.1875 63.9375 
Q 23.390625 74.21875 37.203125 74.21875 
Q 40.921875 74.21875 44.703125 73.484375 
Q 48.484375 72.75 52.59375 71.296875 
z
" id="DejaVuSans-36"/>
      </defs>
      <g transform="translate(388.994393 322.182437)scale(0.1 -0.1)">
       <use xlink:href="#DejaVuSans-36"/>
       <use x="63.623047" xlink:href="#DejaVuSans-30"/>
       <use x="127.246094" xlink:href="#DejaVuSans-30"/>
      </g>
     </g>
    </g>
    <g id="text_8">
     <!-- t(s) -->
     <defs>
      <path d="M 18.3125 70.21875 
L 18.3125 54.6875 
L 36.8125 54.6875 
L 36.8125 47.703125 
L 18.3125 47.703125 
L 18.3125 18.015625 
Q 18.3125 11.328125 20.140625 9.421875 
Q 21.96875 7.515625 27.59375 7.515625 
L 36.8125 7.515625 
L 36.8125 0 
L 27.59375 0 
Q 17.1875 0 13.234375 3.875 
Q 9.28125 7.765625 9.28125 18.015625 
L 9.28125 47.703125 
L 2.6875 47.703125 
L 2.6875 54.6875 
L 9.28125 54.6875 
L 9.28125 70.21875 
z
" id="DejaVuSans-74"/>
      <path d="M 31 75.875 
Q 24.46875 64.65625 21.28125 53.65625 
Q 18.109375 42.671875 18.109375 31.390625 
Q 18.109375 20.125 21.3125 9.0625 
Q 24.515625 -2 31 -13.1875 
L 23.1875 -13.1875 
Q 15.875 -1.703125 12.234375 9.375 
Q 8.59375 20.453125 8.59375 31.390625 
Q 8.59375 42.28125 12.203125 53.3125 
Q 15.828125 64.359375 23.1875 75.875 
z
" id="DejaVuSans-28"/>
      <path d="M 44.28125 53.078125 
L 44.28125 44.578125 
Q 40.484375 46.53125 36.375 47.5 
Q 32.28125 48.484375 27.875 48.484375 
Q 21.1875 48.484375 17.84375 46.4375 
Q 14.5 44.390625 14.5 40.28125 
Q 14.5 37.15625 16.890625 35.375 
Q 19.28125 33.59375 26.515625 31.984375 
L 29.59375 31.296875 
Q 39.15625 29.25 43.1875 25.515625 
Q 47.21875 21.78125 47.21875 15.09375 
Q 47.21875 7.46875 41.1875 3.015625 
Q 35.15625 -1.421875 24.609375 -1.421875 
Q 20.21875 -1.421875 15.453125 -0.5625 
Q 10.6875 0.296875 5.421875 2 
L 5.421875 11.28125 
Q 10.40625 8.6875 15.234375 7.390625 
Q 20.0625 6.109375 24.8125 6.109375 
Q 31.15625 6.109375 34.5625 8.28125 
Q 37.984375 10.453125 37.984375 14.40625 
Q 37.984375 18.0625 35.515625 20.015625 
Q 33.0625 21.96875 24.703125 23.78125 
L 21.578125 24.515625 
Q 13.234375 26.265625 9.515625 29.90625 
Q 5.8125 33.546875 5.8125 39.890625 
Q 5.8125 47.609375 11.28125 51.796875 
Q 16.75 56 26.8125 56 
Q 31.78125 56 36.171875 55.265625 
Q 40.578125 54.546875 44.28125 53.078125 
z
" id="DejaVuSans-73"/>
      <path d="M 8.015625 75.875 
L 15.828125 75.875 
Q 23.140625 64.359375 26.78125 53.3125 
Q 30.421875 42.28125 30.421875 31.390625 
Q 30.421875 20.453125 26.78125 9.375 
Q 23.140625 -1.703125 15.828125 -13.1875 
L 8.015625 -13.1875 
Q 14.5 -2 17.703125 9.0625 
Q 20.90625 20.125 20.90625 31.390625 
Q 20.90625 42.671875 17.703125 53.65625 
Q 14.5 64.65625 8.015625 75.875 
z
" id="DejaVuSans-29"/>
     </defs>
     <g transform="translate(227.693594 335.860562)scale(0.1 -0.1)">
      <use xlink:href="#DejaVuSans-74"/>
      <use x="39.208984" xlink:href="#DejaVuSans-28"/>
      <use x="78.222656" xlink:href="#DejaVuSans-73"/>
      <use x="130.322266" xlink:href="#DejaVuSans-29"/>
     </g>
    </g>
   </g>
   <g id="matplotlib.axis_2">
    <g id="ytick_1">
     <g id="line2d_8">
      <defs>
       <path d="M 0 0 
L -3.5 0 
" id="m982c831c2a" style="stroke:#000000;stroke-width:0.8;"/>
      </defs>
      <g>
       <use style="stroke:#000000;stroke-width:0.8;" x="57.6" xlink:href="#m982c831c2a" y="303.295298"/>
      </g>
     </g>
     <g id="text_9">
      <!-- 8.95 -->
      <defs>
       <path d="M 31.78125 34.625 
Q 24.75 34.625 20.71875 30.859375 
Q 16.703125 27.09375 16.703125 20.515625 
Q 16.703125 13.921875 20.71875 10.15625 
Q 24.75 6.390625 31.78125 6.390625 
Q 38.8125 6.390625 42.859375 10.171875 
Q 46.921875 13.96875 46.921875 20.515625 
Q 46.921875 27.09375 42.890625 30.859375 
Q 38.875 34.625 31.78125 34.625 
z
M 21.921875 38.8125 
Q 15.578125 40.375 12.03125 44.71875 
Q 8.5 49.078125 8.5 55.328125 
Q 8.5 64.0625 14.71875 69.140625 
Q 20.953125 74.21875 31.78125 74.21875 
Q 42.671875 74.21875 48.875 69.140625 
Q 55.078125 64.0625 55.078125 55.328125 
Q 55.078125 49.078125 51.53125 44.71875 
Q 48 40.375 41.703125 38.8125 
Q 48.828125 37.15625 52.796875 32.3125 
Q 56.78125 27.484375 56.78125 20.515625 
Q 56.78125 9.90625 50.3125 4.234375 
Q 43.84375 -1.421875 31.78125 -1.421875 
Q 19.734375 -1.421875 13.25 4.234375 
Q 6.78125 9.90625 6.78125 20.515625 
Q 6.78125 27.484375 10.78125 32.3125 
Q 14.796875 37.15625 21.921875 38.8125 
z
M 18.3125 54.390625 
Q 18.3125 48.734375 21.84375 45.5625 
Q 25.390625 42.390625 31.78125 42.390625 
Q 38.140625 42.390625 41.71875 45.5625 
Q 45.3125 48.734375 45.3125 54.390625 
Q 45.3125 60.0625 41.71875 63.234375 
Q 38.140625 66.40625 31.78125 66.40625 
Q 25.390625 66.40625 21.84375 63.234375 
Q 18.3125 60.0625 18.3125 54.390625 
z
" id="DejaVuSans-38"/>
       <path d="M 10.6875 12.40625 
L 21 12.40625 
L 21 0 
L 10.6875 0 
z
" id="DejaVuSans-2e"/>
       <path d="M 10.984375 1.515625 
L 10.984375 10.5 
Q 14.703125 8.734375 18.5 7.8125 
Q 22.3125 6.890625 25.984375 6.890625 
Q 35.75 6.890625 40.890625 13.453125 
Q 46.046875 20.015625 46.78125 33.40625 
Q 43.953125 29.203125 39.59375 26.953125 
Q 35.25 24.703125 29.984375 24.703125 
Q 19.046875 24.703125 12.671875 31.3125 
Q 6.296875 37.9375 6.296875 49.421875 
Q 6.296875 60.640625 12.9375 67.421875 
Q 19.578125 74.21875 30.609375 74.21875 
Q 43.265625 74.21875 49.921875 64.515625 
Q 56.59375 54.828125 56.59375 36.375 
Q 56.59375 19.140625 48.40625 8.859375 
Q 40.234375 -1.421875 26.421875 -1.421875 
Q 22.703125 -1.421875 18.890625 -0.6875 
Q 15.09375 0.046875 10.984375 1.515625 
z
M 30.609375 32.421875 
Q 37.25 32.421875 41.125 36.953125 
Q 45.015625 41.5 45.015625 49.421875 
Q 45.015625 57.28125 41.125 61.84375 
Q 37.25 66.40625 30.609375 66.40625 
Q 23.96875 66.40625 20.09375 61.84375 
Q 16.21875 57.28125 16.21875 49.421875 
Q 16.21875 41.5 20.09375 36.953125 
Q 23.96875 32.421875 30.609375 32.421875 
z
" id="DejaVuSans-39"/>
      </defs>
      <g transform="translate(28.334375 307.094516)scale(0.1 -0.1)">
       <use xlink:href="#DejaVuSans-38"/>
       <use x="63.623047" xlink:href="#DejaVuSans-2e"/>
       <use x="95.410156" xlink:href="#DejaVuSans-39"/>
       <use x="159.033203" xlink:href="#DejaVuSans-35"/>
      </g>
     </g>
    </g>
    <g id="ytick_2">
     <g id="line2d_9">
      <g>
       <use style="stroke:#000000;stroke-width:0.8;" x="57.6" xlink:href="#m982c831c2a" y="273.392785"/>
      </g>
     </g>
     <g id="text_10">
      <!-- 9.00 -->
      <g transform="translate(28.334375 277.192004)scale(0.1 -0.1)">
       <use xlink:href="#DejaVuSans-39"/>
       <use x="63.623047" xlink:href="#DejaVuSans-2e"/>
       <use x="95.410156" xlink:href="#DejaVuSans-30"/>
       <use x="159.033203" xlink:href="#DejaVuSans-30"/>
      </g>
     </g>
    </g>
    <g id="ytick_3">
     <g id="line2d_10">
      <g>
       <use style="stroke:#000000;stroke-width:0.8;" x="57.6" xlink:href="#m982c831c2a" y="243.490272"/>
      </g>
     </g>
     <g id="text_11">
      <!-- 9.05 -->
      <g transform="translate(28.334375 247.289491)scale(0.1 -0.1)">
       <use xlink:href="#DejaVuSans-39"/>
       <use x="63.623047" xlink:href="#DejaVuSans-2e"/>
       <use x="95.410156" xlink:href="#DejaVuSans-30"/>
       <use x="159.033203" xlink:href="#DejaVuSans-35"/>
      </g>
     </g>
    </g>
    <g id="ytick_4">
     <g id="line2d_11">
      <g>
       <use style="stroke:#000000;stroke-width:0.8;" x="57.6" xlink:href="#m982c831c2a" y="213.58776"/>
      </g>
     </g>
     <g id="text_12">
      <!-- 9.10 -->
      <g transform="translate(28.334375 217.386979)scale(0.1 -0.1)">
       <use xlink:href="#DejaVuSans-39"/>
       <use x="63.623047" xlink:href="#DejaVuSans-2e"/>
       <use x="95.410156" xlink:href="#DejaVuSans-31"/>
       <use x="159.033203" xlink:href="#DejaVuSans-30"/>
      </g>
     </g>
    </g>
    <g id="ytick_5">
     <g id="line2d_12">
      <g>
       <use style="stroke:#000000;stroke-width:0.8;" x="57.6" xlink:href="#m982c831c2a" y="183.685247"/>
      </g>
     </g>
     <g id="text_13">
      <!-- 9.15 -->
      <g transform="translate(28.334375 187.484466)scale(0.1 -0.1)">
       <use xlink:href="#DejaVuSans-39"/>
       <use x="63.623047" xlink:href="#DejaVuSans-2e"/>
       <use x="95.410156" xlink:href="#DejaVuSans-31"/>
       <use x="159.033203" xlink:href="#DejaVuSans-35"/>
      </g>
     </g>
    </g>
    <g id="ytick_6">
     <g id="line2d_13">
      <g>
       <use style="stroke:#000000;stroke-width:0.8;" x="57.6" xlink:href="#m982c831c2a" y="153.782735"/>
      </g>
     </g>
     <g id="text_14">
      <!-- 9.20 -->
      <g transform="translate(28.334375 157.581953)scale(0.1 -0.1)">
       <use xlink:href="#DejaVuSans-39"/>
       <use x="63.623047" xlink:href="#DejaVuSans-2e"/>
       <use x="95.410156" xlink:href="#DejaVuSans-32"/>
       <use x="159.033203" xlink:href="#DejaVuSans-30"/>
      </g>
     </g>
    </g>
    <g id="ytick_7">
     <g id="line2d_14">
      <g>
       <use style="stroke:#000000;stroke-width:0.8;" x="57.6" xlink:href="#m982c831c2a" y="123.880222"/>
      </g>
     </g>
     <g id="text_15">
      <!-- 9.25 -->
      <g transform="translate(28.334375 127.679441)scale(0.1 -0.1)">
       <use xlink:href="#DejaVuSans-39"/>
       <use x="63.623047" xlink:href="#DejaVuSans-2e"/>
       <use x="95.410156" xlink:href="#DejaVuSans-32"/>
       <use x="159.033203" xlink:href="#DejaVuSans-35"/>
      </g>
     </g>
    </g>
    <g id="ytick_8">
     <g id="line2d_15">
      <g>
       <use style="stroke:#000000;stroke-width:0.8;" x="57.6" xlink:href="#m982c831c2a" y="93.977709"/>
      </g>
     </g>
     <g id="text_16">
      <!-- 9.30 -->
      <g transform="translate(28.334375 97.776928)scale(0.1 -0.1)">
       <use xlink:href="#DejaVuSans-39"/>
       <use x="63.623047" xlink:href="#DejaVuSans-2e"/>
       <use x="95.410156" xlink:href="#DejaVuSans-33"/>
       <use x="159.033203" xlink:href="#DejaVuSans-30"/>
      </g>
     </g>
    </g>
    <g id="ytick_9">
     <g id="line2d_16">
      <g>
       <use style="stroke:#000000;stroke-width:0.8;" x="57.6" xlink:href="#m982c831c2a" y="64.075197"/>
      </g>
     </g>
     <g id="text_17">
      <!-- 9.35 -->
      <g transform="translate(28.334375 67.874415)scale(0.1 -0.1)">
       <use xlink:href="#DejaVuSans-39"/>
       <use x="63.623047" xlink:href="#DejaVuSans-2e"/>
       <use x="95.410156" xlink:href="#DejaVuSans-33"/>
       <use x="159.033203" xlink:href="#DejaVuSans-35"/>
      </g>
     </g>
    </g>
    <g id="text_18">
     <!-- Resistance (Ohm) -->
     <defs>
      <path d="M 44.390625 34.1875 
Q 47.5625 33.109375 50.5625 29.59375 
Q 53.5625 26.078125 56.59375 19.921875 
L 66.609375 0 
L 56 0 
L 46.6875 18.703125 
Q 43.0625 26.03125 39.671875 28.421875 
Q 36.28125 30.8125 30.421875 30.8125 
L 19.671875 30.8125 
L 19.671875 0 
L 9.8125 0 
L 9.8125 72.90625 
L 32.078125 72.90625 
Q 44.578125 72.90625 50.734375 67.671875 
Q 56.890625 62.453125 56.890625 51.90625 
Q 56.890625 45.015625 53.6875 40.46875 
Q 50.484375 35.9375 44.390625 34.1875 
z
M 19.671875 64.796875 
L 19.671875 38.921875 
L 32.078125 38.921875 
Q 39.203125 38.921875 42.84375 42.21875 
Q 46.484375 45.515625 46.484375 51.90625 
Q 46.484375 58.296875 42.84375 61.546875 
Q 39.203125 64.796875 32.078125 64.796875 
z
" id="DejaVuSans-52"/>
      <path d="M 56.203125 29.59375 
L 56.203125 25.203125 
L 14.890625 25.203125 
Q 15.484375 15.921875 20.484375 11.0625 
Q 25.484375 6.203125 34.421875 6.203125 
Q 39.59375 6.203125 44.453125 7.46875 
Q 49.3125 8.734375 54.109375 11.28125 
L 54.109375 2.78125 
Q 49.265625 0.734375 44.1875 -0.34375 
Q 39.109375 -1.421875 33.890625 -1.421875 
Q 20.796875 -1.421875 13.15625 6.1875 
Q 5.515625 13.8125 5.515625 26.8125 
Q 5.515625 40.234375 12.765625 48.109375 
Q 20.015625 56 32.328125 56 
Q 43.359375 56 49.78125 48.890625 
Q 56.203125 41.796875 56.203125 29.59375 
z
M 47.21875 32.234375 
Q 47.125 39.59375 43.09375 43.984375 
Q 39.0625 48.390625 32.421875 48.390625 
Q 24.90625 48.390625 20.390625 44.140625 
Q 15.875 39.890625 15.1875 32.171875 
z
" id="DejaVuSans-65"/>
      <path d="M 9.421875 54.6875 
L 18.40625 54.6875 
L 18.40625 0 
L 9.421875 0 
z
M 9.421875 75.984375 
L 18.40625 75.984375 
L 18.40625 64.59375 
L 9.421875 64.59375 
z
" id="DejaVuSans-69"/>
      <path d="M 34.28125 27.484375 
Q 23.390625 27.484375 19.1875 25 
Q 14.984375 22.515625 14.984375 16.5 
Q 14.984375 11.71875 18.140625 8.90625 
Q 21.296875 6.109375 26.703125 6.109375 
Q 34.1875 6.109375 38.703125 11.40625 
Q 43.21875 16.703125 43.21875 25.484375 
L 43.21875 27.484375 
z
M 52.203125 31.203125 
L 52.203125 0 
L 43.21875 0 
L 43.21875 8.296875 
Q 40.140625 3.328125 35.546875 0.953125 
Q 30.953125 -1.421875 24.3125 -1.421875 
Q 15.921875 -1.421875 10.953125 3.296875 
Q 6 8.015625 6 15.921875 
Q 6 25.140625 12.171875 29.828125 
Q 18.359375 34.515625 30.609375 34.515625 
L 43.21875 34.515625 
L 43.21875 35.40625 
Q 43.21875 41.609375 39.140625 45 
Q 35.0625 48.390625 27.6875 48.390625 
Q 23 48.390625 18.546875 47.265625 
Q 14.109375 46.140625 10.015625 43.890625 
L 10.015625 52.203125 
Q 14.9375 54.109375 19.578125 55.046875 
Q 24.21875 56 28.609375 56 
Q 40.484375 56 46.34375 49.84375 
Q 52.203125 43.703125 52.203125 31.203125 
z
" id="DejaVuSans-61"/>
      <path d="M 54.890625 33.015625 
L 54.890625 0 
L 45.90625 0 
L 45.90625 32.71875 
Q 45.90625 40.484375 42.875 44.328125 
Q 39.84375 48.1875 33.796875 48.1875 
Q 26.515625 48.1875 22.3125 43.546875 
Q 18.109375 38.921875 18.109375 30.90625 
L 18.109375 0 
L 9.078125 0 
L 9.078125 54.6875 
L 18.109375 54.6875 
L 18.109375 46.1875 
Q 21.34375 51.125 25.703125 53.5625 
Q 30.078125 56 35.796875 56 
Q 45.21875 56 50.046875 50.171875 
Q 54.890625 44.34375 54.890625 33.015625 
z
" id="DejaVuSans-6e"/>
      <path d="M 48.78125 52.59375 
L 48.78125 44.1875 
Q 44.96875 46.296875 41.140625 47.34375 
Q 37.3125 48.390625 33.40625 48.390625 
Q 24.65625 48.390625 19.8125 42.84375 
Q 14.984375 37.3125 14.984375 27.296875 
Q 14.984375 17.28125 19.8125 11.734375 
Q 24.65625 6.203125 33.40625 6.203125 
Q 37.3125 6.203125 41.140625 7.25 
Q 44.96875 8.296875 48.78125 10.40625 
L 48.78125 2.09375 
Q 45.015625 0.34375 40.984375 -0.53125 
Q 36.96875 -1.421875 32.421875 -1.421875 
Q 20.0625 -1.421875 12.78125 6.34375 
Q 5.515625 14.109375 5.515625 27.296875 
Q 5.515625 40.671875 12.859375 48.328125 
Q 20.21875 56 33.015625 56 
Q 37.15625 56 41.109375 55.140625 
Q 45.0625 54.296875 48.78125 52.59375 
z
" id="DejaVuSans-63"/>
      <path id="DejaVuSans-20"/>
      <path d="M 39.40625 66.21875 
Q 28.65625 66.21875 22.328125 58.203125 
Q 16.015625 50.203125 16.015625 36.375 
Q 16.015625 22.609375 22.328125 14.59375 
Q 28.65625 6.59375 39.40625 6.59375 
Q 50.140625 6.59375 56.421875 14.59375 
Q 62.703125 22.609375 62.703125 36.375 
Q 62.703125 50.203125 56.421875 58.203125 
Q 50.140625 66.21875 39.40625 66.21875 
z
M 39.40625 74.21875 
Q 54.734375 74.21875 63.90625 63.9375 
Q 73.09375 53.65625 73.09375 36.375 
Q 73.09375 19.140625 63.90625 8.859375 
Q 54.734375 -1.421875 39.40625 -1.421875 
Q 24.03125 -1.421875 14.8125 8.828125 
Q 5.609375 19.09375 5.609375 36.375 
Q 5.609375 53.65625 14.8125 63.9375 
Q 24.03125 74.21875 39.40625 74.21875 
z
" id="DejaVuSans-4f"/>
      <path d="M 54.890625 33.015625 
L 54.890625 0 
L 45.90625 0 
L 45.90625 32.71875 
Q 45.90625 40.484375 42.875 44.328125 
Q 39.84375 48.1875 33.796875 48.1875 
Q 26.515625 48.1875 22.3125 43.546875 
Q 18.109375 38.921875 18.109375 30.90625 
L 18.109375 0 
L 9.078125 0 
L 9.078125 75.984375 
L 18.109375 75.984375 
L 18.109375 46.1875 
Q 21.34375 51.125 25.703125 53.5625 
Q 30.078125 56 35.796875 56 
Q 45.21875 56 50.046875 50.171875 
Q 54.890625 44.34375 54.890625 33.015625 
z
" id="DejaVuSans-68"/>
      <path d="M 52 44.1875 
Q 55.375 50.25 60.0625 53.125 
Q 64.75 56 71.09375 56 
Q 79.640625 56 84.28125 50.015625 
Q 88.921875 44.046875 88.921875 33.015625 
L 88.921875 0 
L 79.890625 0 
L 79.890625 32.71875 
Q 79.890625 40.578125 77.09375 44.375 
Q 74.3125 48.1875 68.609375 48.1875 
Q 61.625 48.1875 57.5625 43.546875 
Q 53.515625 38.921875 53.515625 30.90625 
L 53.515625 0 
L 44.484375 0 
L 44.484375 32.71875 
Q 44.484375 40.625 41.703125 44.40625 
Q 38.921875 48.1875 33.109375 48.1875 
Q 26.21875 48.1875 22.15625 43.53125 
Q 18.109375 38.875 18.109375 30.90625 
L 18.109375 0 
L 9.078125 0 
L 9.078125 54.6875 
L 18.109375 54.6875 
L 18.109375 46.1875 
Q 21.1875 51.21875 25.484375 53.609375 
Q 29.78125 56 35.6875 56 
Q 41.65625 56 45.828125 52.96875 
Q 50 49.953125 52 44.1875 
z
" id="DejaVuSans-6d"/>
     </defs>
     <g transform="translate(22.254687 219.158469)rotate(-90)scale(0.1 -0.1)">
      <use xlink:href="#DejaVuSans-52"/>
      <use x="69.419922" xlink:href="#DejaVuSans-65"/>
      <use x="130.943359" xlink:href="#DejaVuSans-73"/>
      <use x="183.042969" xlink:href="#DejaVuSans-69"/>
      <use x="210.826172" xlink:href="#DejaVuSans-73"/>
      <use x="262.925781" xlink:href="#DejaVuSans-74"/>
      <use x="302.134766" xlink:href="#DejaVuSans-61"/>
      <use x="363.414062" xlink:href="#DejaVuSans-6e"/>
      <use x="426.792969" xlink:href="#DejaVuSans-63"/>
      <use x="481.773438" xlink:href="#DejaVuSans-65"/>
      <use x="543.296875" xlink:href="#DejaVuSans-20"/>
      <use x="575.083984" xlink:href="#DejaVuSans-28"/>
      <use x="614.097656" xlink:href="#DejaVuSans-4f"/>
      <use x="692.808594" xlink:href="#DejaVuSans-68"/>
      <use x="756.1875" xlink:href="#DejaVuSans-6d"/>
      <use x="853.599609" xlink:href="#DejaVuSans-29"/>
     </g>
    </g>
    <g id="text_19">
     <!-- 1e7 -->
     <defs>
      <path d="M 8.203125 72.90625 
L 55.078125 72.90625 
L 55.078125 68.703125 
L 28.609375 0 
L 18.3125 0 
L 43.21875 64.59375 
L 8.203125 64.59375 
z
" id="DejaVuSans-37"/>
     </defs>
     <g transform="translate(57.6 38.472)scale(0.1 -0.1)">
      <use xlink:href="#DejaVuSans-31"/>
      <use x="63.623047" xlink:href="#DejaVuSans-65"/>
      <use x="125.146484" xlink:href="#DejaVuSans-37"/>
     </g>
    </g>
   </g>
   <g id="line2d_17">
    <path clip-path="url(#p8007db96fa)" d="M 73.832727 211.513503 
L 73.940962 193.689166 
L 74.157974 226.942912 
L 74.26675 221.478436 
L 74.375527 206.601879 
L 74.592538 244.088269 
L 74.809549 233.298637 
L 75.027102 184.303542 
L 75.135878 171.628269 
L 75.244114 179.24916 
L 75.352349 173.098201 
L 75.569901 154.442895 
L 75.678678 145.831873 
L 75.787454 121.901847 
L 76.004465 152.968312 
L 76.222018 137.243502 
L 76.330794 145.936562 
L 76.439571 171.147253 
L 76.548347 168.812183 
L 76.656582 179.221777 
L 76.764817 163.602864 
L 76.873594 201.227473 
L 76.98237 191.736659 
L 77.308158 234.870803 
L 77.416393 240.173187 
L 77.525169 225.415177 
L 77.633945 241.671108 
L 78.068509 217.057713 
L 78.286062 178.224026 
L 78.394839 175.681468 
L 78.612391 151.492915 
L 78.829402 161.69447 
L 79.046955 135.205802 
L 79.155732 136.235879 
L 79.264508 139.301765 
L 79.372743 134.180866 
L 79.699072 176.745892 
L 79.807848 213.761912 
L 79.916625 180.175357 
L 80.025401 250.85983 
L 80.133636 206.983925 
L 80.242412 234.227569 
L 80.351189 188.668544 
L 80.459965 268.015721 
L 80.568741 209.09966 
L 80.677517 241.159257 
L 80.894529 230.839209 
L 81.112082 190.080045 
L 81.438411 118.872015 
L 81.546646 119.852808 
L 81.655422 118.370407 
L 81.764198 131.669349 
L 81.872975 120.910727 
L 81.981751 120.921797 
L 82.090527 122.94793 
L 82.306998 133.210778 
L 82.415774 131.114834 
L 82.742103 200.708104 
L 82.850338 192.16482 
L 83.067349 199.729101 
L 83.284902 261.125364 
L 83.501913 219.958555 
L 83.610149 295.488 
L 83.827701 230.347056 
L 83.936478 243.598517 
L 84.045254 235.307939 
L 84.15403 198.311773 
L 84.262265 209.535766 
L 84.806147 99.278647 
L 84.914382 140.31378 
L 85.131935 90.527205 
L 85.240711 143.369637 
L 85.458264 111.752337 
L 85.56704 161.101762 
L 85.675275 139.909866 
L 86.001604 222.162385 
L 86.219157 209.988131 
L 86.436168 228.415542 
L 86.544944 206.612777 
L 86.762497 236.743511 
L 86.871273 234.276362 
L 86.979508 215.997586 
L 87.087744 237.703738 
L 87.522849 140.374451 
L 87.739319 146.416607 
L 87.848096 174.152622 
L 87.956872 129.205251 
L 88.065648 154.525415 
L 88.174424 136.750776 
L 88.282659 138.278341 
L 88.390895 114.243367 
L 88.499671 152.010489 
L 88.608447 140.308265 
L 88.826 156.950047 
L 88.934776 186.515526 
L 89.043011 170.1685 
L 89.36934 222.037407 
L 89.478117 223.463819 
L 89.586893 254.368824 
L 89.695128 218.48678 
L 89.91214 236.770607 
L 90.129692 212.575315 
L 90.238468 218.590089 
L 90.346704 216.997886 
L 90.454939 221.076975 
L 90.672491 173.567897 
L 90.781268 169.533604 
L 91.215832 116.263335 
L 91.433384 129.616464 
L 91.542161 142.380799 
L 91.650937 128.095152 
L 91.759172 134.690621 
L 92.194277 205.761275 
L 92.303054 199.18217 
L 92.41183 205.160985 
L 92.520065 198.640596 
L 92.737618 215.067651 
L 92.846394 188.179646 
L 93.063947 220.023785 
L 93.172182 243.674288 
L 93.280958 182.664506 
L 93.389735 184.117507 
L 93.498511 154.574927 
L 93.607287 155.542838 
L 93.716063 170.1301 
L 93.824299 129.699358 
L 93.933075 161.123741 
L 94.041851 143.872187 
L 94.150628 154.013812 
L 94.259404 138.798376 
L 94.36818 147.96086 
L 94.476956 123.003259 
L 94.911521 203.681138 
L 95.129073 178.676391 
L 95.45432 206.629125 
L 95.563096 195.673007 
L 95.671873 205.150084 
L 95.780649 226.926626 
L 95.888884 186.717884 
L 95.997119 225.436899 
L 96.541001 161.090772 
L 96.649236 177.171123 
L 96.758012 137.680957 
L 96.866788 157.516081 
L 96.975565 143.855652 
L 97.084341 167.678882 
L 97.301352 137.315244 
L 97.409588 160.05891 
L 97.518364 138.754239 
L 97.844693 179.624683 
L 98.061163 188.684945 
L 98.169939 188.349142 
L 98.278716 181.407795 
L 98.387492 202.102315 
L 98.496268 186.685069 
L 98.604504 187.712531 
L 98.712739 190.238549 
L 98.821515 181.695396 
L 98.930291 211.088624 
L 99.147844 182.185469 
L 99.364855 197.759105 
L 99.691184 162.615882 
L 99.799961 176.18907 
L 100.125748 139.274182 
L 100.234525 146.422116 
L 100.452077 168.653055 
L 100.560854 155.614343 
L 100.886641 186.05907 
L 100.995418 191.742123 
L 101.104194 207.589278 
L 101.21297 198.700625 
L 101.321747 207.654657 
L 101.429982 195.700308 
L 101.538758 223.962655 
L 101.647534 195.656626 
L 101.865087 218.497655 
L 102.190334 175.681468 
L 102.407886 194.319072 
L 102.516663 153.469101 
L 102.625439 160.51444 
L 102.733674 151.993978 
L 102.841909 172.639385 
L 102.950685 127.56759 
L 103.168238 160.613355 
L 103.38525 120.955006 
L 103.493485 144.904565 
L 103.602261 133.70415 
L 103.711037 138.316964 
L 103.92859 178.632574 
L 104.037366 184.139393 
L 104.363154 209.110553 
L 104.47193 187.163301 
L 104.689483 253.897135 
L 104.797718 213.604087 
L 105.01473 237.239924 
L 105.123506 235.788356 
L 105.341059 178.81332 
L 105.449294 188.739616 
L 105.557529 181.678973 
L 105.775081 153.557138 
L 105.883858 156.526892 
L 106.10141 104.464268 
L 106.209646 144.865988 
L 106.427198 134.219517 
L 106.535975 109.668001 
L 106.753527 174.616655 
L 106.861762 159.476881 
L 107.079315 191.518094 
L 107.188091 170.452227 
L 107.405644 223.42036 
L 107.513879 198.153501 
L 107.840208 222.487608 
L 108.166537 171.683111 
L 108.274772 196.713517 
L 108.601101 149.471222 
L 108.709877 162.687295 
L 108.818653 127.611817 
L 109.035665 152.483941 
L 109.253218 104.015538 
L 109.47077 156.592883 
L 109.579547 168.521362 
L 109.687782 157.560068 
L 110.122887 230.39046 
L 110.231663 198.662425 
L 110.339898 248.475827 
L 110.55691 199.14943 
L 110.774463 248.008502 
L 110.883239 233.773989 
L 110.991474 247.524867 
L 111.534814 141.889 
L 111.751285 165.674563 
L 111.860061 156.587384 
L 111.968837 121.957186 
L 112.077614 130.648621 
L 112.18639 125.016811 
L 112.295166 149.972656 
L 112.620954 130.61547 
L 112.838507 177.897576 
L 112.947283 194.324534 
L 113.055518 191.589127 
L 113.164294 202.189574 
L 113.273071 185.244379 
L 113.490623 219.55141 
L 113.708176 217.557721 
L 113.816411 234.740697 
L 114.033964 188.750551 
L 114.14274 192.208529 
L 114.468528 169.249741 
L 114.577304 169.079653 
L 114.794857 162.138737 
L 114.903633 141.375053 
L 115.012409 146.422116 
L 115.120644 173.169475 
L 115.22888 138.283859 
L 115.337656 159.048655 
L 115.446432 157.043527 
L 115.555209 161.727435 
L 115.663985 187.74534 
L 115.77222 174.229366 
L 115.880455 181.062892 
L 115.989232 174.528956 
L 116.206784 194.264456 
L 116.31556 185.16779 
L 116.423795 211.584278 
L 116.532031 192.197601 
L 116.640807 197.693607 
L 116.749583 183.698927 
L 116.967136 214.088402 
L 117.075912 190.710684 
L 117.184147 194.643039 
L 117.619253 157.005035 
L 117.728029 143.402712 
L 117.944499 164.156627 
L 118.162052 138.754239 
L 118.270828 144.893543 
L 118.379604 142.347718 
L 118.48784 132.689699 
L 118.596075 133.693106 
L 118.704851 163.114911 
L 118.813627 153.568143 
L 119.139956 196.111415 
L 119.248191 201.151107 
L 119.356968 174.435776 
L 119.465744 185.679113 
L 119.574521 237.747083 
L 119.683297 235.291677 
L 119.792073 199.652714 
L 119.900308 221.9722 
L 120.117861 209.595675 
L 120.226637 170.572901 
L 120.335413 181.155961 
L 120.44419 157.483091 
L 120.552966 185.16779 
L 120.661201 144.937631 
L 120.769978 147.497616 
L 120.98753 143.883211 
L 121.096307 111.166248 
L 121.313318 140.280687 
L 121.422094 140.357905 
L 121.748423 192.609291 
L 121.857199 186.338022 
L 121.965435 190.765336 
L 122.182987 211.094069 
L 122.291764 232.823199 
L 122.40054 232.342251 
L 122.509316 204.112725 
L 122.618093 230.855484 
L 123.052657 187.53755 
L 123.161433 148.909121 
L 123.270209 175.195696 
L 123.378444 151.586489 
L 123.704232 164.140152 
L 123.813009 152.533472 
L 123.921785 170.146557 
L 124.138255 118.883089 
L 124.247031 121.456143 
L 124.464584 155.020421 
L 124.57336 156.70287 
L 124.682137 186.900806 
L 124.790372 173.944319 
L 124.899148 199.756381 
L 125.007924 197.884642 
L 125.116701 199.209453 
L 125.225477 206.683617 
L 125.334253 232.790661 
L 125.442489 231.352971 
L 125.550724 204.123628 
L 125.877053 224.434244 
L 126.094064 183.753649 
L 126.202299 202.692306 
L 126.419852 169.572007 
L 126.528628 169.599438 
L 126.637404 161.14572 
L 126.74564 141.275792 
L 126.853875 172.6668 
L 126.962651 136.767333 
L 127.071427 158.603858 
L 127.180204 106.031952 
L 127.397756 140.844466 
L 127.505991 117.874245 
L 128.049873 215.138381 
L 128.158108 187.114083 
L 128.266884 210.107937 
L 128.375661 210.069817 
L 128.484437 212.569871 
L 128.593213 204.66961 
L 128.810225 220.468898 
L 128.919001 217.041397 
L 129.462883 149.046793 
L 129.571118 176.696579 
L 129.897447 127.050988 
L 130.006223 133.210778 
L 130.114999 141.822832 
L 130.223235 125.544852 
L 130.33147 126.556408 
L 130.440246 140.275171 
L 130.549022 139.816093 
L 130.766575 201.861284 
L 130.983045 181.536646 
L 131.091822 181.733715 
L 131.200598 222.981191 
L 131.41815 196.149632 
L 131.743397 251.950087 
L 131.96095 184.689201 
L 132.069726 198.711539 
L 132.286737 188.717748 
L 132.50429 148.881586 
L 132.721843 132.11881 
L 132.830619 146.444154 
L 132.938854 133.70415 
L 133.047089 159.087132 
L 133.264642 114.756811 
L 133.373418 125.044465 
L 133.59043 153.017838 
L 133.698665 164.107202 
L 133.807441 155.493335 
L 134.13377 185.238909 
L 134.242546 183.137983 
L 134.459558 193.629082 
L 134.568334 195.711228 
L 134.677111 176.178111 
L 134.894663 199.13306 
L 135.002898 201.151107 
L 135.220451 166.539676 
L 135.438004 188.734149 
L 135.54678 154.541919 
L 135.655015 174.726278 
L 135.763791 152.946301 
L 135.872568 190.705219 
L 135.981344 174.169067 
L 136.09012 205.657721 
L 136.198897 165.625151 
L 136.415908 188.23979 
L 136.524684 162.665322 
L 136.633461 187.816425 
L 136.742237 182.20189 
L 136.851013 164.693816 
L 136.95979 179.750634 
L 137.068025 173.556933 
L 137.394354 122.469204 
L 137.720683 174.196476 
L 137.828918 159.103623 
L 137.937694 181.183334 
L 138.04647 178.588757 
L 138.264023 214.99148 
L 138.372799 217.56316 
L 138.481034 204.609647 
L 138.698046 217.030519 
L 138.806822 215.035007 
L 138.915599 225.957094 
L 139.024375 211.077735 
L 139.13261 215.51906 
L 139.349621 195.591105 
L 139.458398 152.770209 
L 139.567174 153.529627 
L 139.67595 112.719093 
L 139.784186 163.635817 
L 139.892421 109.037127 
L 140.001197 113.691033 
L 140.109973 102.940134 
L 140.21875 123.448696 
L 140.327526 103.971122 
L 140.436302 155.482335 
L 140.544537 136.213801 
L 140.76209 189.102686 
L 140.870866 188.152307 
L 141.088419 232.353098 
L 141.196654 232.850314 
L 141.30543 237.239924 
L 141.414207 230.347056 
L 141.522983 261.200889 
L 141.740536 201.681296 
L 141.957547 164.189578 
L 142.283876 135.754009 
L 142.392652 132.728361 
L 142.501429 154.041321 
L 142.609664 126.584055 
L 142.71844 130.620995 
L 142.827217 117.807788 
L 143.044769 180.37248 
L 143.26178 195.163531 
L 143.370016 187.185175 
L 143.478792 202.708666 
L 143.587568 238.674451 
L 143.805121 197.206336 
L 143.913356 235.286257 
L 144.021591 221.000887 
L 144.130368 232.353098 
L 144.239144 223.968087 
L 144.564932 170.644208 
L 144.673167 179.903966 
L 144.999496 152.588505 
L 145.108272 155.625343 
L 145.325283 140.83895 
L 145.43406 118.43132 
L 145.651612 167.120309 
L 145.760389 153.540631 
L 145.9774 191.687482 
L 146.085635 189.179219 
L 146.194412 201.757655 
L 146.303188 192.702164 
L 146.411964 220.474333 
L 146.520741 215.035007 
L 146.628976 194.187993 
L 146.737211 229.367908 
L 146.845987 215.051329 
L 146.954763 237.741665 
L 147.172316 196.242446 
L 147.60688 142.756734 
L 147.824433 119.345847 
L 147.933209 146.940634 
L 148.041444 109.673547 
L 148.150221 135.205802 
L 148.258997 126.050677 
L 148.47655 166.65495 
L 148.802337 199.13306 
L 148.911114 192.241311 
L 149.01989 205.652271 
L 149.128666 181.689922 
L 149.237443 187.190644 
L 149.346219 223.973519 
L 149.454454 218.519404 
L 149.780783 168.176989 
L 149.889559 166.742777 
L 149.998335 160.179817 
L 150.106571 134.756874 
L 150.324123 157.576563 
L 150.4329 128.561817 
L 150.650452 149.96715 
L 150.759229 148.903614 
L 150.867464 143.386175 
L 151.085016 183.258381 
L 151.193793 186.652255 
L 151.302569 181.112164 
L 151.411345 181.172385 
L 151.51958 185.129496 
L 151.736592 205.652271 
L 151.954145 185.200614 
L 152.062921 193.683704 
L 152.171156 187.657849 
L 152.279391 209.606567 
L 152.388167 184.22694 
L 152.496944 189.717131 
L 152.60572 157.565566 
L 152.823273 185.102143 
L 152.931508 156.493896 
L 153.040284 179.243683 
L 153.14906 152.500451 
L 153.257837 199.65817 
L 153.366613 163.103926 
L 153.475389 182.169048 
L 153.583625 154.932408 
L 153.69186 184.210525 
L 153.909412 174.053952 
L 154.018189 179.663016 
L 154.126965 166.556144 
L 154.2352 202.205935 
L 154.343435 172.235321 
L 154.452212 205.684972 
L 154.669764 165.132072 
L 154.886776 187.152364 
L 154.995011 182.152627 
L 155.103787 168.625619 
L 155.212563 185.750224 
L 155.32134 172.590036 
L 155.647127 189.635139 
L 155.755904 168.100161 
L 155.86468 170.042329 
L 156.082233 202.632321 
L 156.191009 177.70584 
L 156.40802 201.162017 
L 156.625573 176.298663 
L 156.734349 173.639165 
L 156.843126 182.784915 
L 156.951361 169.648814 
L 157.060137 173.639165 
L 157.168914 172.721632 
L 157.386466 166.611036 
L 157.604019 191.204592 
L 157.712254 159.048655 
L 157.929265 178.643529 
L 158.038042 163.646802 
L 158.255594 186.20675 
L 158.363829 183.841203 
L 158.472606 173.284612 
L 158.581382 176.576038 
L 158.690158 184.782211 
L 158.798935 168.636593 
L 158.907711 177.70584 
L 159.015946 156.081659 
L 159.232958 183.220073 
L 159.45051 160.580384 
L 159.559286 180.115125 
L 159.667522 171.191131 
L 159.775757 180.191784 
L 159.884533 177.242346 
L 159.99331 158.065518 
L 160.210862 214.583513 
L 160.427873 159.58131 
L 160.645426 179.717777 
L 160.754203 173.213337 
L 160.862979 174.322554 
L 160.971755 179.276543 
L 161.188225 169.577494 
L 161.297002 171.125314 
L 161.405778 186.234099 
L 161.623331 165.093637 
L 161.731566 174.158104 
L 161.839801 172.070811 
L 161.948577 155.031423 
L 162.057354 168.144062 
L 162.16613 196.215148 
L 162.274906 181.155961 
L 162.383682 192.159356 
L 162.491918 167.164219 
L 162.600694 94.661736 
L 162.818247 173.317508 
L 162.927023 180.317724 
L 163.035799 196.18239 
L 163.252811 158.054522 
L 163.470363 202.621415 
L 163.57914 170.682605 
L 164.013704 190.364258 
L 164.12248 176.364419 
L 164.231256 186.343491 
L 164.340033 163.580895 
L 164.448809 243.173629 
L 164.66582 188.745084 
L 164.774597 176.718496 
L 164.883373 199.193083 
L 164.992149 175.692429 
L 165.100926 186.223159 
L 165.317937 172.11468 
L 165.426713 162.028862 
L 165.53549 185.206085 
L 165.644266 185.16779 
L 165.861819 137.769247 
L 165.970054 184.215996 
L 166.187606 164.583991 
L 166.296383 158.071015 
L 166.405159 187.250799 
L 166.513935 173.087235 
L 166.622171 175.654067 
L 166.730406 181.717292 
L 166.839182 173.15851 
L 167.165511 194.182531 
L 167.273746 194.681267 
L 167.381981 169.6543 
L 167.599534 223.930064 
L 167.817086 179.706825 
L 167.925322 199.58724 
L 168.142333 185.56424 
L 168.359886 160.036927 
L 168.468662 168.685978 
L 168.577438 161.162204 
L 168.685673 144.374645 
L 168.79445 154.519914 
L 168.903226 134.73479 
L 169.012002 163.120404 
L 169.120779 138.305929 
L 169.229555 166.632993 
L 169.33779 140.833435 
L 169.664119 185.173261 
L 169.772895 176.647267 
L 169.881672 179.128674 
L 169.990448 199.647258 
L 170.098683 191.259239 
L 170.207459 204.675061 
L 170.316236 199.171256 
L 170.425012 202.178667 
L 170.642565 172.68325 
L 170.7508 177.738709 
L 170.859576 167.662418 
L 170.968353 168.592695 
L 171.077129 160.629841 
L 171.185905 163.076462 
L 171.294681 159.120113 
L 171.402917 183.291217 
L 171.619928 135.216843 
L 171.837481 175.179254 
L 172.054492 154.492407 
L 172.271504 168.685978 
L 172.38028 165.110109 
L 172.489056 181.815827 
L 172.597832 180.758781 
L 172.706068 168.718901 
L 172.814303 168.986379 
L 172.923079 160.640832 
L 173.031855 191.275633 
L 173.140632 189.228419 
L 173.249408 171.650206 
L 173.46642 192.219456 
L 173.575196 168.658542 
L 173.792748 172.601002 
L 174.010301 164.085235 
L 174.118536 170.283699 
L 174.226771 167.645953 
L 174.444324 178.692823 
L 174.5531 163.641309 
L 174.661877 187.223456 
L 174.770112 156.015661 
L 174.878347 159.575814 
L 174.987123 171.174676 
L 175.204676 162.56095 
L 175.313452 186.592094 
L 175.530464 174.322554 
L 175.748016 186.108297 
L 175.856793 169.107086 
L 175.965569 176.745892 
L 176.074345 174.704353 
L 176.291357 190.189358 
L 176.400133 177.176602 
L 176.508909 146.422116 
L 176.617686 183.291217 
L 176.726462 178.322624 
L 176.835238 152.049016 
L 176.943473 187.761744 
L 177.05225 153.557138 
L 177.269802 184.232411 
L 177.378579 177.678449 
L 177.487355 188.206984 
L 177.59559 185.711933 
L 177.813143 159.559325 
L 177.921919 177.220431 
L 178.030695 167.95748 
L 178.139472 175.74175 
L 178.247707 163.504003 
L 178.465259 190.227617 
L 178.682812 148.418512 
L 178.900365 190.238549 
L 179.117376 184.639961 
L 179.226152 167.153241 
L 179.334929 180.043941 
L 179.443705 178.19116 
L 179.552481 158.993687 
L 179.660716 171.699563 
L 179.768952 149.994679 
L 179.986504 180.698555 
L 180.095281 161.557113 
L 180.204057 181.728241 
L 180.312292 168.631106 
L 180.420527 171.688595 
L 180.529303 169.676245 
L 180.63808 196.675303 
L 180.746856 169.840831 
L 180.855632 173.142062 
L 180.964409 168.023333 
L 181.072644 154.574927 
L 181.18142 181.624232 
L 181.507749 138.283859 
L 181.616525 192.713091 
L 181.832996 150.501524 
L 181.941772 176.674663 
L 182.050548 172.68325 
L 182.159325 173.213337 
L 182.268101 167.580095 
L 182.376336 177.247825 
L 182.484571 172.831296 
L 182.702124 175.157331 
L 182.8109 187.212519 
L 182.919677 160.102876 
L 183.136147 185.16232 
L 183.244923 162.599403 
L 183.353699 170.704545 
L 183.462476 163.098433 
L 183.788264 184.166751 
L 183.89704 171.070467 
L 184.005816 180.671179 
L 184.114593 168.664029 
L 184.332145 175.659548 
L 184.44038 189.255752 
L 184.549156 153.001329 
L 184.657933 158.021535 
L 184.766709 174.174549 
L 184.984262 156.059659 
L 185.201273 181.782982 
L 185.31005 180.213686 
L 185.418826 195.760369 
L 185.527602 189.212019 
L 185.636379 203.65933 
L 185.745155 177.198517 
L 185.85339 196.198769 
L 186.070943 181.706344 
L 186.179719 179.679444 
L 186.288495 173.235267 
L 186.397271 184.347316 
L 186.505507 178.28428 
L 186.613742 181.728241 
L 186.722518 176.548642 
L 186.831295 147.293804 
L 186.940071 149.504261 
L 187.048847 164.649886 
L 187.157082 156.521392 
L 187.265317 169.20036 
L 187.374094 161.601067 
L 187.48287 175.643107 
L 187.808658 154.998418 
L 187.916893 188.086696 
L 188.134446 163.564418 
L 188.351998 198.142585 
L 188.460774 181.739189 
L 188.677786 197.157208 
L 188.786562 187.234393 
L 189.004115 190.189358 
L 189.112891 171.650206 
L 189.221126 185.277203 
L 189.764467 139.307282 
L 189.872702 141.330937 
L 189.980937 124.917255 
L 190.089713 135.194761 
L 190.19849 169.140007 
L 190.416042 121.445074 
L 190.524819 177.247825 
L 190.633054 158.510405 
L 190.959383 198.74974 
L 191.068159 191.654697 
L 191.176935 213.555106 
L 191.28517 205.690423 
L 191.393947 219.99117 
L 191.502723 206.148917 
L 191.611499 208.603554 
L 191.720276 199.160343 
L 191.829052 171.130799 
L 191.937287 181.314726 
L 192.046063 172.098229 
L 192.15484 147.905781 
L 192.372392 175.692429 
L 192.481169 110.641047 
L 192.69818 156.03766 
L 192.806956 169.670759 
L 192.915733 137.287651 
L 193.024509 139.246599 
L 193.242062 174.676947 
L 193.350297 170.141071 
L 193.459073 171.070467 
L 193.785402 193.162934 
L 193.894178 196.69168 
L 194.002955 215.035007 
L 194.11119 208.145492 
L 194.328742 183.797426 
L 194.437519 173.737844 
L 194.546295 189.206552 
L 194.655071 150.986255 
L 194.763307 177.280697 
L 194.871542 153.557138 
L 194.980318 159.526347 
L 195.089094 149.465716 
L 195.197871 151.481906 
L 195.306647 149.989173 
L 195.523117 142.358745 
L 195.631894 142.872507 
L 195.849446 154.954411 
L 196.066458 172.131131 
L 196.174693 170.731971 
L 196.283469 157.461098 
L 196.392245 205.133732 
L 196.609798 181.188809 
L 196.826809 201.183835 
L 196.935586 211.557057 
L 197.044362 162.116762 
L 197.153138 162.654335 
L 197.261915 176.18907 
L 197.370691 170.993682 
L 197.478926 172.68325 
L 197.587703 160.997361 
L 197.805255 185.635352 
L 198.022808 157.032529 
L 198.131584 195.673007 
L 198.239819 157.565566 
L 198.348596 179.16701 
L 198.457372 168.707927 
L 198.566148 170.113643 
L 198.674925 179.706825 
L 198.783701 166.611036 
L 198.891936 173.103683 
L 199.000712 166.605547 
L 199.218265 173.699469 
L 199.435817 151.977466 
L 199.652288 183.159874 
L 199.761064 171.158222 
L 199.86984 174.103287 
L 199.978617 162.034356 
L 200.087393 176.592475 
L 200.195628 171.125314 
L 200.41264 179.745158 
L 200.521416 176.068518 
L 200.630192 149.895573 
L 200.847204 208.161835 
L 201.064215 172.185968 
L 201.172992 167.125798 
L 201.281768 204.636903 
L 201.390544 167.147753 
L 201.607556 174.693391 
L 201.716332 167.585583 
L 201.825108 187.800021 
L 201.933884 167.739253 
L 202.042661 175.632147 
L 202.259672 221.53278 
L 202.367907 206.154367 
L 202.476684 169.13452 
L 202.694236 179.205347 
L 202.803013 179.772539 
L 202.911248 164.600465 
L 203.019483 178.65996 
L 203.128259 176.232908 
L 203.237036 177.886619 
L 203.345812 174.289664 
L 203.6716 157.016033 
L 203.780376 105.998653 
L 203.889152 173.699469 
L 203.997929 171.694079 
L 204.106705 148.440541 
L 204.432493 185.326439 
L 204.758822 160.124859 
L 204.867598 176.243867 
L 204.976374 168.144062 
L 205.084609 170.146557 
L 205.193386 168.127599 
L 205.302162 182.686399 
L 205.410938 172.224354 
L 205.519715 188.256193 
L 205.628491 163.059984 
L 205.736726 181.618758 
L 205.845502 165.680053 
L 205.954279 166.748266 
L 206.063055 156.526892 
L 206.171831 163.070969 
L 206.280608 159.092629 
L 206.388843 162.615882 
L 206.497619 127.589704 
L 206.606395 130.609945 
L 206.715172 156.065159 
L 206.823948 154.134852 
L 206.932724 148.264304 
L 207.041501 194.329995 
L 207.149736 165.636131 
L 207.367288 209.677368 
L 207.584841 182.680926 
L 207.801852 230.822934 
L 208.453428 169.347073 
L 208.561663 170.905927 
L 208.887992 101.398487 
L 208.996769 114.790058 
L 209.105545 110.696499 
L 209.21378 92.091589 
L 209.322556 113.73537 
L 209.431333 108.091251 
L 209.757661 195.32735 
L 209.974132 198.689711 
L 210.082908 211.998185 
L 210.191684 241.687351 
L 210.300461 217.948883 
L 210.408696 248.019317 
L 210.516931 230.374183 
L 210.625707 246.541108 
L 210.84326 228.361267 
L 211.060813 166.665928 
L 211.169048 180.339626 
L 211.603612 93.070983 
L 211.712388 84.333355 
L 211.821164 103.477886 
L 211.9294 53.568 
L 212.255729 145.942072 
L 212.799069 251.396901 
L 213.016622 244.099092 
L 213.125398 276.233214 
L 213.886291 114.795599 
L 213.994526 127.156036 
L 214.212079 80.172261 
L 214.429631 101.404042 
L 214.538407 150.936711 
L 214.646643 131.669349 
L 214.863654 167.208128 
L 215.298218 246.073438 
L 215.406453 219.051764 
L 215.51523 233.790255 
L 215.624006 221.462133 
L 215.841559 238.205391 
L 216.058029 213.990451 
L 216.60191 127.672628 
L 216.710146 127.578647 
L 216.818922 130.692823 
L 217.036475 92.130536 
L 217.254027 160.997361 
L 217.362262 160.086389 
L 217.470498 151.437871 
L 217.905603 228.366695 
L 218.013838 201.216563 
L 218.122073 204.685964 
L 218.230849 240.652729 
L 218.339626 230.374183 
L 218.448402 239.655645 
L 218.77419 194.697651 
L 218.882966 188.652142 
L 219.209295 132.584758 
L 219.318071 153.039849 
L 219.535083 82.753469 
L 219.752635 149.504261 
L 219.861412 147.916797 
L 220.078423 171.174676 
L 220.187199 166.578101 
L 220.513528 213.51701 
L 220.622305 211.578834 
L 220.731081 222.482175 
L 220.839316 220.002042 
L 220.948092 221.022627 
L 221.274421 166.0852 
L 221.383198 153.138901 
L 221.491433 168.286743 
L 221.708986 123.448696 
L 221.817762 93.638414 
L 222.035314 142.839429 
L 222.252326 107.0285 
L 222.469879 169.643328 
L 222.796207 217.133856 
L 222.904443 203.173136 
L 223.012678 219.996606 
L 223.121454 217.525092 
L 223.339007 231.374669 
L 223.447783 215.05677 
L 223.556018 228.908049 
L 224.424605 109.629177 
L 224.533381 141.916571 
L 224.642158 98.268154 
L 224.85971 154.530916 
L 224.967945 100.877007 
L 225.294275 173.153027 
L 225.511827 209.671922 
L 225.620062 202.107769 
L 225.728839 176.210989 
L 225.837615 220.528687 
L 225.946391 207.605623 
L 226.055167 224.455969 
L 226.380955 175.73627 
L 226.489732 176.864319 
L 226.707284 139.794029 
L 226.816061 144.893543 
L 226.924837 163.613848 
L 227.033072 129.616464 
L 227.141848 136.257958 
L 227.250625 164.638903 
L 227.359401 141.325422 
L 227.468177 145.914522 
L 227.576953 161.123741 
L 227.685189 155.465834 
L 227.793424 163.61934 
L 227.9022 183.802898 
L 228.010976 158.999184 
L 228.119753 180.720455 
L 228.228529 179.139627 
L 228.336764 188.684945 
L 228.444999 220.012913 
L 228.662552 203.65933 
L 228.771328 215.964947 
L 228.98834 191.714803 
L 229.096575 197.649942 
L 229.205351 178.577803 
L 229.314128 208.538187 
L 229.53168 137.199353 
L 229.640456 134.618846 
L 229.748692 160.069901 
L 229.857468 155.553839 
L 229.966244 127.562062 
L 230.075021 167.634977 
L 230.292573 153.485608 
L 230.509043 137.243502 
L 230.726596 166.331086 
L 230.835372 183.203655 
L 231.052384 176.227428 
L 231.160619 177.291654 
L 231.269395 175.129928 
L 231.378172 202.162306 
L 231.486948 186.706946 
L 231.595724 200.155907 
L 231.812736 175.692429 
L 231.921512 183.143456 
L 232.356617 159.175081 
L 232.464852 173.633683 
L 232.573629 142.872507 
L 232.791181 190.183892 
L 232.899958 132.700745 
L 233.008734 166.123628 
L 233.11751 162.122256 
L 233.225745 180.164406 
L 233.443298 164.052284 
L 233.660851 176.232908 
L 233.769627 201.200199 
L 233.877862 190.167495 
L 233.986638 208.140044 
L 234.095415 176.178111 
L 234.204191 202.637774 
L 234.421744 175.692429 
L 234.638755 176.729454 
L 234.747531 167.65693 
L 234.856308 147.662869 
L 234.965084 157.988548 
L 235.182637 148.96419 
L 235.290872 147.431515 
L 235.399648 143.910771 
L 235.508424 179.706825 
L 235.617201 150.473997 
L 235.834753 175.665028 
L 235.942989 177.045114 
L 236.16 165.104619 
L 236.377553 185.706463 
L 236.486329 148.35793 
L 236.702799 173.191406 
L 236.811576 166.134608 
L 236.920352 174.163585 
L 237.029128 209.13234 
L 237.137905 159.542836 
L 237.246681 175.118967 
L 237.463692 163.131389 
L 237.572469 172.224354 
L 237.681245 154.409887 
L 237.898256 174.633098 
L 238.006491 158.993687 
L 238.115268 119.334774 
L 238.224044 167.11482 
L 238.33282 157.005035 
L 238.550373 184.177695 
L 238.658608 172.191452 
L 238.766843 195.245441 
L 238.87562 155.531838 
L 239.201949 200.243197 
L 239.418419 182.631667 
L 239.527195 173.174958 
L 239.635972 144.87701 
L 239.853524 170.141071 
L 239.9623 173.213337 
L 240.070536 173.174958 
L 240.179312 173.15851 
L 240.288088 177.700362 
L 240.396865 170.655179 
L 240.505641 184.667317 
L 240.614417 181.744663 
L 240.722652 172.235321 
L 240.831429 194.763185 
L 240.940205 184.743913 
L 241.048981 187.217987 
L 241.157758 186.674131 
L 241.374769 164.107202 
L 241.483545 184.667317 
L 241.592322 177.760622 
L 241.701098 158.312918 
L 241.809874 167.136775 
L 241.918651 158.093007 
L 242.027427 159.592303 
L 242.135662 191.802229 
L 242.353215 150.473997 
L 242.570767 143.872187 
L 242.679544 159.114616 
L 242.787779 147.475582 
L 242.896014 165.680053 
L 243.00479 160.50345 
L 243.113567 172.15855 
L 243.222343 159.471385 
L 243.331119 185.695523 
L 243.439354 174.775608 
L 243.547589 192.571049 
L 243.765142 183.726288 
L 243.873918 169.096113 
L 244.09093 215.540821 
L 244.199165 188.228854 
L 244.416718 221.500174 
L 244.63427 164.063268 
L 244.743046 168.325157 
L 244.851282 159.608792 
L 244.960058 168.64208 
L 245.068834 150.534556 
L 245.177611 173.584343 
L 245.286387 160.086389 
L 245.395163 182.218311 
L 245.503398 121.439539 
L 245.611634 174.196476 
L 245.72041 139.290732 
L 245.829186 145.886973 
L 245.937962 170.173985 
L 246.154974 167.552654 
L 246.263209 172.180484 
L 246.371985 167.574606 
L 246.480762 185.711933 
L 246.589538 178.62162 
L 246.807091 197.74273 
L 246.915326 194.735879 
L 247.241655 154.00831 
L 247.459207 172.781947 
L 247.676219 164.140152 
L 247.784995 168.061747 
L 247.893771 157.928073 
L 248.111324 171.65569 
L 248.219559 173.153027 
L 248.328336 165.1156 
L 248.437112 186.173933 
L 248.545888 173.213337 
L 248.654664 177.094422 
L 248.763441 157.598556 
L 248.980452 172.546171 
L 249.089229 155.839667 
L 249.198005 163.597371 
L 249.306781 121.929517 
L 249.415558 154.002808 
L 249.524334 138.803893 
L 249.632569 164.649886 
L 249.741345 148.925641 
L 249.958898 155.57034 
L 250.067674 165.548288 
L 250.176451 157.268658 
L 250.285227 188.135905 
L 250.393462 184.188638 
L 250.611015 212.542655 
L 250.719791 168.614644 
L 250.937343 198.191704 
L 251.045579 222.498475 
L 251.153814 217.541407 
L 251.371366 180.638328 
L 251.588919 155.031423 
L 251.697154 160.486964 
L 251.805389 177.22591 
L 252.022942 140.811375 
L 252.131718 130.670722 
L 252.240495 135.216843 
L 252.34873 102.929028 
L 252.565741 162.566443 
L 252.674517 144.369134 
L 252.783294 155.042425 
L 252.89207 178.676391 
L 253.000846 167.164219 
L 253.217858 191.171805 
L 253.544187 205.592319 
L 253.652963 199.679995 
L 253.761198 212.586201 
L 253.869975 185.24985 
L 253.978751 193.212098 
L 254.30508 163.948875 
L 254.522091 147.806638 
L 254.630868 119.847272 
L 254.739644 155.07543 
L 254.84842 137.226946 
L 254.957197 159.553829 
L 255.065973 125.033403 
L 255.500537 175.851353 
L 255.609313 182.784915 
L 255.718089 172.655834 
L 255.826325 185.184202 
L 255.93456 175.140889 
L 256.043336 182.229258 
L 256.152113 157.043527 
L 256.369665 190.21122 
L 256.4779 172.202419 
L 256.586135 196.155092 
L 256.912464 169.943586 
L 257.021241 178.533985 
L 257.129476 165.077165 
L 257.237711 165.104619 
L 257.455264 183.252908 
L 257.56404 161.03033 
L 257.672816 208.183626 
L 257.781593 146.411097 
L 257.889828 155.031423 
L 257.998604 183.720816 
L 258.216157 153.496612 
L 258.433709 171.130799 
L 258.541944 167.596559 
L 258.758956 184.155808 
L 258.867732 188.103099 
L 258.976509 185.711933 
L 259.085285 193.162934 
L 259.19352 175.184734 
L 259.301755 179.188917 
L 259.410531 149.449197 
L 259.519308 182.20189 
L 259.73686 179.177964 
L 259.845637 163.021534 
L 259.953872 169.774997 
L 260.062648 158.142487 
L 260.280201 175.266944 
L 260.388977 175.73627 
L 260.497753 168.653055 
L 260.605988 174.18003 
L 260.714765 144.87701 
L 260.823541 165.099128 
L 260.932317 150.451975 
L 261.041094 167.175196 
L 261.14987 159.713221 
L 261.258646 181.33115 
L 261.366881 178.108995 
L 261.475658 187.217987 
L 261.693211 218.03045 
L 261.801987 214.605278 
L 262.018998 176.685621 
L 262.127774 197.709981 
L 262.454103 165.411032 
L 262.56288 180.24654 
L 262.671115 149.350081 
L 262.888668 166.65495 
L 262.997444 138.256271 
L 263.10622 157.021532 
L 263.214997 145.401324 
L 263.323773 170.1685 
L 263.432008 137.763728 
L 263.758337 188.288998 
L 263.867113 185.728344 
L 263.975889 203.233115 
L 264.084125 173.125614 
L 264.19236 174.119732 
L 264.301136 168.570747 
L 264.7357 218.073952 
L 264.843935 188.701346 
L 264.952712 208.145492 
L 265.170264 173.595308 
L 265.387817 139.755417 
L 265.496052 144.424248 
L 265.604828 140.291718 
L 265.822381 103.898948 
L 266.148169 155.025922 
L 266.256404 139.301765 
L 266.36518 144.827411 
L 266.473957 174.064915 
L 266.582733 171.092406 
L 266.799203 194.686729 
L 266.907979 200.215919 
L 267.016756 174.185512 
L 267.125532 211.633276 
L 267.234308 169.615897 
L 267.45132 199.636346 
L 267.559555 209.077873 
L 267.668331 195.207216 
L 267.777108 207.545692 
L 267.99466 170.655179 
L 268.211672 166.173036 
L 268.320448 160.931424 
L 268.429224 138.322482 
L 268.646777 153.023341 
L 268.755553 157.554569 
L 268.972565 129.649622 
L 269.190117 172.776464 
L 269.298894 173.688505 
L 269.40767 197.211794 
L 269.515905 160.624346 
L 269.733458 195.689387 
L 269.842234 247.079007 
L 269.95101 169.626869 
L 270.059787 180.191784 
L 270.168563 176.707538 
L 270.276798 157.027031 
L 270.385574 160.59687 
L 270.494351 177.612712 
L 270.711903 171.710532 
L 270.82068 190.743475 
L 270.928915 183.742705 
L 271.03715 163.476542 
L 271.145926 119.362457 
L 271.363479 183.720816 
L 271.58049 152.027001 
L 271.688725 155.003919 
L 271.906278 171.163707 
L 272.015054 158.537891 
L 272.123831 160.536422 
L 272.232066 152.874764 
L 272.340301 164.107202 
L 272.449077 160.025935 
L 272.557854 187.250799 
L 272.775406 162.604896 
L 272.884182 177.203995 
L 272.992418 174.190994 
L 273.101194 135.238926 
L 273.318747 165.696524 
L 273.427523 162.276081 
L 273.644534 194.253532 
L 273.75277 165.60319 
L 274.079099 205.171887 
L 274.187875 199.669083 
L 274.29611 222.026539 
L 274.404345 215.546261 
L 274.513121 224.965487 
L 274.730674 200.697194 
L 274.83945 203.642973 
L 274.948227 200.205008 
L 275.382791 147.304821 
L 275.491567 138.388693 
L 275.600343 114.740188 
L 275.708578 126.023028 
L 275.926131 117.322605 
L 276.143684 150.512534 
L 276.25246 143.993451 
L 276.360695 147.85621 
L 276.7958 206.520141 
L 276.904577 191.714803 
L 277.013353 193.179322 
L 277.230365 240.663559 
L 277.339141 227.408545 
L 277.447917 197.682691 
L 277.556694 208.10191 
L 277.991258 154.497908 
L 278.100034 132.634467 
L 278.20881 142.391826 
L 278.317587 138.294894 
L 278.534598 116.285493 
L 278.643374 138.327999 
L 278.752151 115.325566 
L 278.860927 122.997726 
L 279.07848 194.79049 
L 279.29495 145.875953 
L 279.512502 187.750808 
L 279.621279 191.709338 
L 279.730055 189.771793 
L 279.83829 193.09192 
L 279.946525 192.669386 
L 280.055302 204.680512 
L 280.164078 179.177964 
L 280.272854 210.037143 
L 280.381631 209.13234 
L 280.489866 213.108797 
L 280.598101 203.642973 
L 280.706877 209.628352 
L 280.815654 201.670388 
L 281.141982 142.430421 
L 281.250218 153.568143 
L 281.358994 130.637571 
L 281.46777 147.955352 
L 281.576547 121.47828 
L 281.685323 129.627517 
L 281.794099 112.730179 
L 282.011111 120.4261 
L 282.119887 114.745729 
L 282.663227 192.186674 
L 282.772004 196.62617 
L 282.989556 221.451265 
L 283.098333 216.557614 
L 283.207109 232.796084 
L 283.315344 189.201085 
L 283.42412 224.03327 
L 283.532897 185.178732 
L 283.641673 188.695879 
L 283.859226 146.339474 
L 283.967461 153.392068 
L 284.075696 158.554383 
L 284.184472 130.160219 
L 284.293249 145.991662 
L 284.402025 145.931052 
L 284.510801 102.945687 
L 284.619036 113.232821 
L 284.727271 104.973974 
L 284.836048 116.793019 
L 284.944824 102.945687 
L 285.0536 105.500237 
L 285.270612 145.401324 
L 285.378847 110.076929 
L 285.5964 163.114911 
L 285.705176 172.196935 
L 285.813952 194.632117 
L 285.922729 188.668544 
L 286.248516 224.943763 
L 286.357293 222.943161 
L 286.466069 231.325849 
L 286.68308 192.203065 
L 286.791316 197.162667 
L 286.900092 167.065422 
L 287.008868 180.671179 
L 287.117645 169.670759 
L 287.226421 131.569913 
L 287.334656 158.49941 
L 287.442891 145.815343 
L 287.551667 160.124859 
L 287.660444 153.034346 
L 287.76922 156.114658 
L 287.877996 132.140905 
L 288.095008 134.180866 
L 288.203784 127.584175 
L 288.530113 173.683023 
L 288.638889 171.28437 
L 288.747124 172.026941 
L 288.855901 185.326439 
L 289.073453 158.504907 
L 289.18223 162.039849 
L 289.399782 187.234393 
L 289.508018 182.708291 
L 289.616794 170.184957 
L 289.72557 192.153892 
L 289.943123 155.630843 
L 290.051899 186.717884 
L 290.26891 158.966203 
L 290.377687 166.643971 
L 290.486463 146.405588 
L 290.59524 165.110109 
L 290.704016 139.843674 
L 290.921027 164.611447 
L 291.029804 165.181489 
L 291.13858 181.068367 
L 291.247356 159.295504 
L 291.356133 166.830605 
L 291.464909 197.288216 
L 291.68192 165.559268 
L 291.790697 163.131389 
L 291.899473 156.03216 
L 292.117025 184.722028 
L 292.333496 188.717748 
L 292.659825 156.98304 
L 292.876836 170.108157 
L 293.093848 156.070659 
L 293.3114 179.706825 
L 293.528953 153.507617 
L 293.637188 168.64208 
L 293.745964 154.536418 
L 293.854741 159.570318 
L 293.963517 159.520851 
L 294.072293 178.229504 
L 294.289305 150.986255 
L 294.39754 174.18003 
L 294.506316 159.53734 
L 294.723869 195.190834 
L 294.832645 187.696126 
L 294.94088 202.654134 
L 295.049115 178.185683 
L 295.157892 200.653552 
L 295.375444 162.610389 
L 295.592456 185.613471 
L 296.244573 136.701104 
L 296.352808 142.325664 
L 296.461584 183.231018 
L 296.57036 140.822405 
L 296.679137 155.047925 
L 296.787913 139.279699 
L 297.113701 165.016767 
L 297.222477 164.309429 
L 297.44003 192.12111 
L 297.548806 219.584028 
L 297.657041 190.754406 
L 297.765817 233.795677 
L 298.309699 182.185469 
L 298.417934 194.632117 
L 298.635487 151.344297 
L 298.853039 139.23005 
L 298.961816 113.227279 
L 299.070051 130.692823 
L 299.178286 103.910052 
L 299.287062 109.114782 
L 299.395839 98.257039 
L 299.504615 133.177642 
L 299.613391 129.621991 
L 299.721626 130.648621 
L 299.829861 123.988093 
L 299.938638 132.678652 
L 300.264967 184.831451 
L 300.373202 184.265241 
L 300.481437 181.761085 
L 300.590213 184.656374 
L 300.807766 231.293302 
L 300.916542 220.496074 
L 301.025319 230.801234 
L 301.133554 206.105319 
L 301.24233 241.649451 
L 301.351106 230.850059 
L 301.677435 173.224302 
L 301.78567 176.778767 
L 301.893906 173.639165 
L 302.220235 123.432099 
L 302.329011 112.271794 
L 302.437246 83.278338 
L 302.654257 123.988093 
L 302.763034 114.795599 
L 302.87181 136.72318 
L 302.980587 102.940134 
L 303.089363 147.982892 
L 303.197598 143.932819 
L 303.632703 198.504167 
L 303.741479 195.640246 
L 303.958491 218.513967 
L 304.067267 247.046554 
L 304.176044 209.126893 
L 304.28482 209.633799 
L 304.393596 213.070698 
L 304.501831 244.642867 
L 304.82816 158.49941 
L 304.936937 154.079834 
L 305.262724 101.41515 
L 305.371501 98.795676 
L 305.480277 90.532771 
L 305.69783 119.886023 
L 305.914841 109.618085 
L 306.132394 153.936786 
L 306.349946 209.590229 
L 306.458723 193.771098 
L 306.567499 214.610719 
L 306.675734 207.660105 
L 306.893287 256.774579 
L 307.002063 216.035664 
L 307.110839 238.172886 
L 307.219616 220.990018 
L 307.327851 231.396367 
L 307.436086 218.052201 
L 307.544862 189.184685 
L 307.653638 195.294586 
L 307.979426 130.620995 
L 308.087661 148.473586 
L 308.305214 117.868707 
L 308.41399 129.177617 
L 308.522767 120.403958 
L 308.739237 69.228876 
L 308.95679 124.499734 
L 309.065566 92.609148 
L 309.174342 147.470074 
L 309.283118 141.386082 
L 309.50013 164.66636 
L 309.608906 195.673007 
L 309.717683 191.725731 
L 309.826459 218.991959 
L 309.935235 218.926717 
L 310.152247 241.671108 
L 310.261023 229.362482 
L 310.369799 247.06278 
L 310.696128 182.300415 
L 310.804363 190.12377 
L 311.021916 142.248475 
L 311.130692 147.949844 
L 311.348245 99.400891 
L 311.565256 73.367222 
L 311.674033 98.284827 
L 311.782809 87.942084 
L 312.108597 163.712708 
L 312.216832 112.674748 
L 312.434385 171.158222 
L 312.543161 187.026585 
L 312.651937 229.83311 
L 312.760172 195.125306 
L 312.868407 206.154367 
L 312.977184 248.421754 
L 313.303513 213.538779 
L 313.628759 243.130327 
L 313.737536 222.926862 
L 313.846312 227.912089 
L 314.063865 166.600058 
L 314.1721 182.218311 
L 314.280876 134.668536 
L 314.389652 141.441227 
L 314.498429 129.638569 
L 314.607205 132.728361 
L 314.715981 91.067313 
L 314.824216 116.848409 
L 315.041228 93.121047 
L 315.150004 94.711786 
L 315.258781 112.719093 
L 315.367557 97.746093 
L 315.475792 119.8362 
L 315.584027 113.807417 
L 315.910356 190.222152 
L 316.019132 202.12413 
L 316.127909 193.672779 
L 316.236144 217.584913 
L 316.34492 191.199128 
L 316.562473 232.790661 
L 316.671249 220.984583 
L 316.780025 228.388404 
L 316.88826 191.692946 
L 316.997037 224.916609 
L 317.323366 147.365414 
L 317.432142 154.981916 
L 317.540918 150.545567 
L 317.649154 155.047925 
L 317.975483 86.353098 
L 318.193035 131.142458 
L 318.30127 131.131409 
L 318.410047 149.504261 
L 318.518823 140.352389 
L 318.845152 197.764563 
L 318.953387 178.256892 
L 319.062163 184.607134 
L 319.17094 235.242892 
L 319.279716 193.672779 
L 319.388492 216.563053 
L 319.606045 190.227617 
L 319.71428 211.611499 
L 319.823056 180.241065 
L 319.931833 182.713764 
L 320.149385 153.463598 
L 320.258162 176.254826 
L 320.366397 176.183591 
L 320.474632 179.668492 
L 320.692185 140.324811 
L 320.800961 140.849981 
L 320.909737 155.515337 
L 321.126207 120.442706 
L 321.234984 127.539949 
L 321.561313 175.321751 
L 321.670089 171.147253 
L 321.778324 197.748188 
L 321.8871 168.636593 
L 321.995877 184.139393 
L 322.104653 162.555457 
L 322.322206 211.551612 
L 322.430441 214.539982 
L 322.647452 207.125591 
L 322.756229 214.567189 
L 323.299028 154.624439 
L 323.407804 165.729465 
L 323.51658 129.988921 
L 323.625357 140.286203 
L 323.733592 137.75821 
L 323.841827 129.621991 
L 323.950603 146.979197 
L 324.05938 116.296572 
L 324.168156 145.920032 
L 324.385709 142.828403 
L 324.493944 158.114998 
L 324.60272 157.692027 
L 324.820273 176.614392 
L 325.037825 150.413437 
L 325.14606 192.702164 
L 325.254837 191.687482 
L 325.363613 187.756276 
L 325.472389 163.663278 
L 325.689942 185.750224 
L 325.798177 149.38312 
L 325.906953 181.210707 
L 326.01573 176.6911 
L 326.124506 158.065518 
L 326.342059 189.684335 
L 326.450835 154.54742 
L 326.55907 192.219456 
L 326.667846 138.759756 
L 326.776623 186.228629 
L 326.885399 163.602864 
L 326.994175 180.731406 
L 327.102952 154.965413 
L 327.319422 183.638734 
L 327.536975 167.142264 
L 327.645751 139.72232 
L 327.754527 144.363622 
L 327.862762 134.114606 
L 327.970998 150.540061 
L 328.079774 111.160703 
L 328.297327 122.496871 
L 328.406103 150.98075 
L 328.514338 125.027872 
L 329.166455 206.699965 
L 329.27469 189.689801 
L 329.383466 224.960056 
L 329.492242 184.188638 
L 329.601019 223.913768 
L 329.818571 213.103354 
L 329.926807 191.155411 
L 330.035042 218.535716 
L 330.361371 151.041304 
L 330.470147 156.62038 
L 330.795394 131.181131 
L 330.90417 150.507029 
L 331.121723 114.80114 
L 331.230499 109.120328 
L 331.338734 120.932866 
L 331.44751 173.644647 
L 331.556286 154.987416 
L 331.665063 185.799456 
L 331.773839 185.244379 
L 331.990851 183.715344 
L 332.099627 223.425792 
L 332.208403 222.970325 
L 332.31718 223.951791 
L 332.425956 206.634574 
L 332.534732 209.061532 
L 332.751744 184.705615 
L 332.969296 155.960663 
L 333.078073 176.254826 
L 333.186849 152.984821 
L 333.295625 103.948915 
L 333.621413 140.302749 
L 333.730189 138.743205 
L 333.838966 133.243914 
L 333.947742 195.607485 
L 334.055977 158.241447 
L 334.491082 209.595675 
L 334.599859 199.1658 
L 334.708635 234.265519 
L 334.925646 204.642354 
L 335.034423 196.669843 
L 335.468987 141.330937 
L 335.577222 144.8219 
L 335.685998 118.414707 
L 335.794775 119.406748 
L 335.903551 127.595232 
L 336.337574 96.218243 
L 336.772138 169.271687 
L 336.880373 171.372125 
L 337.206702 260.751993 
L 337.315478 218.991959 
L 337.641266 238.25415 
L 337.967595 167.744741 
L 338.184606 133.847726 
L 338.293383 117.807788 
L 338.402159 131.153507 
L 338.510935 89.496786 
L 338.619712 119.401212 
L 338.728488 81.228446 
L 338.837264 85.321132 
L 339.489381 231.779856 
L 339.597616 226.921197 
L 339.706392 228.37755 
L 339.815169 218.530279 
L 339.923945 237.747083 
L 340.032721 227.895805 
L 340.249733 190.052717 
L 340.357968 206.580082 
L 340.575521 134.269212 
L 340.793073 118.403632 
L 340.901308 127.562062 
L 341.11832 84.327784 
L 341.335873 136.739737 
L 341.552884 104.95177 
L 341.661119 119.384603 
L 341.878672 170.770368 
L 342.096224 197.222712 
L 342.205001 193.168397 
L 342.313236 199.669083 
L 342.422012 191.649233 
L 342.530788 237.239924 
L 342.639565 225.382594 
L 342.748341 236.279526 
L 342.965352 195.190834 
L 343.073588 198.57511 
L 343.399917 137.254539 
L 343.508693 138.677 
L 343.616928 156.076159 
L 343.833939 106.613512 
L 343.942716 141.341966 
L 344.160269 102.385622 
L 344.594833 177.842794 
L 344.812385 197.288216 
L 344.921161 234.254676 
L 345.029397 191.226451 
L 345.138173 214.550865 
L 345.355726 212.580758 
L 345.573278 189.657004 
L 345.682054 175.802032 
L 345.79029 180.786157 
L 346.007842 146.532305 
L 346.116619 143.3972 
L 346.225395 153.017838 
L 346.442406 104.985076 
L 346.659959 147.927813 
L 346.768735 139.854706 
L 346.877512 168.242841 
L 346.986288 162.116762 
L 347.203299 186.750699 
L 347.312076 167.585583 
L 347.420852 201.621301 
L 347.529628 173.672058 
L 347.747181 210.118829 
L 347.855416 205.177337 
L 347.964192 167.519724 
L 348.072969 182.212837 
L 348.290521 146.427625 
L 348.399298 122.496871 
L 348.507533 150.496018 
L 348.615768 137.237984 
L 348.724544 107.598763 
L 348.942097 147.409481 
L 349.050873 138.765273 
L 349.159108 106.530272 
L 349.37612 147.944336 
L 349.484896 149.421665 
L 349.593672 161.496676 
L 349.702449 160.053414 
L 349.811225 212.646077 
L 349.91946 166.786691 
L 350.137013 207.054758 
L 350.354565 178.6983 
L 350.571577 198.651511 
L 350.679812 182.190943 
L 350.788588 194.757724 
L 351.006141 158.153482 
L 351.114917 163.416127 
L 351.223152 143.817068 
L 351.331388 170.737456 
L 351.440164 152.538975 
L 351.766493 194.209839 
L 351.874728 109.584808 
L 352.091739 166.643971 
L 352.200516 147.933321 
L 352.309292 150.931206 
L 352.63508 173.180441 
L 352.743856 167.624 
L 352.961409 190.287739 
L 353.070185 178.720209 
L 353.178961 209.61746 
L 353.504749 154.530916 
L 353.613525 196.226067 
L 353.722302 165.088146 
L 353.831078 179.783491 
L 353.939313 163.663278 
L 354.04809 168.592695 
L 354.156866 166.101669 
L 354.265642 171.152738 
L 354.374418 134.674057 
L 354.700206 170.179471 
L 354.808983 140.849981 
L 354.917759 158.038029 
L 355.026535 143.817068 
L 355.244088 167.662418 
L 355.352323 167.574606 
L 355.460558 177.209474 
L 355.569334 158.581869 
L 355.678111 164.567517 
L 355.786887 182.697345 
L 355.895663 170.163014 
L 356.003898 134.180866 
L 356.22091 173.131097 
L 356.329686 159.592303 
L 356.438463 170.627753 
L 356.547239 164.107202 
L 356.655474 166.140097 
L 356.763709 160.980877 
L 356.872485 170.141071 
L 357.198814 142.795325 
L 357.415826 166.627504 
L 357.524602 164.660868 
L 357.633379 191.714803 
L 357.742155 148.479093 
L 357.850931 168.116624 
L 357.959707 161.951949 
L 358.067943 164.655377 
L 358.176178 159.065145 
L 358.284954 167.142264 
L 358.39373 165.099128 
L 358.502507 192.197601 
L 358.611283 145.897992 
L 358.719518 180.268443 
L 359.045306 152.500451 
L 359.154082 171.672142 
L 359.371635 149.046793 
L 359.47987 175.708869 
L 359.588646 161.61755 
L 359.697423 176.833558 
L 359.806199 161.480193 
L 359.914975 162.522497 
L 360.131987 192.587438 
L 360.349539 163.076462 
L 360.458316 172.164033 
L 360.567092 213.065255 
L 360.784103 173.699469 
L 360.89288 172.721632 
L 361.001656 174.73724 
L 361.110432 160.679299 
L 361.219209 194.166146 
L 361.327985 169.205847 
L 361.436761 115.17597 
L 361.544996 170.163014 
L 361.653773 128.089625 
L 361.980102 169.090626 
L 362.088878 142.740195 
L 362.305889 172.661317 
L 362.523442 160.086389 
L 362.632218 179.860157 
L 362.740995 166.594568 
L 362.958006 169.172927 
L 363.066782 148.936655 
L 363.175559 188.663077 
L 363.501888 160.497955 
L 363.827134 175.190215 
L 363.935911 155.57034 
L 364.153463 195.15807 
L 364.261698 148.413004 
L 364.47871 179.19987 
L 364.587486 162.571936 
L 364.696263 185.189673 
L 364.913274 165.586719 
L 365.021509 194.675806 
L 365.130285 154.558423 
L 365.239062 174.693391 
L 365.347838 161.074288 
L 365.456614 162.999563 
L 365.565391 154.4649 
L 365.673626 173.704951 
L 365.782402 148.457064 
L 365.891178 148.925641 
L 366.108731 176.696579 
L 366.217507 160.525431 
L 366.325742 175.179254 
L 366.434519 166.676907 
L 366.543295 168.330644 
L 366.652071 149.868044 
L 366.9784 207.17463 
L 367.086635 158.598361 
L 367.304188 182.713764 
L 367.412965 181.689922 
L 367.521741 149.44369 
L 367.738752 161.612056 
L 367.847528 176.19455 
L 367.956305 144.81639 
L 368.065081 167.667906 
L 368.173857 220.962843 
L 368.390869 176.718496 
L 368.499104 183.709872 
L 368.716657 168.14955 
L 368.825433 181.265454 
L 368.934209 163.120404 
L 369.042444 190.683359 
L 369.259456 164.781675 
L 369.368232 166.09069 
L 369.477009 159.515355 
L 369.585785 135.886492 
L 369.911031 171.191131 
L 370.019808 164.655377 
L 370.23736 129.127877 
L 370.346137 120.409493 
L 370.454372 143.855652 
L 370.563148 138.272823 
L 370.780701 164.627921 
L 370.889477 178.720209 
L 370.998253 158.515902 
L 371.106489 166.58359 
L 371.3235 190.650568 
L 371.432276 182.163574 
L 371.541053 215.094855 
L 371.649829 210.620106 
L 371.758064 198.662425 
L 371.866299 221.494739 
L 372.083852 189.728064 
L 372.192628 218.997396 
L 372.410181 165.175998 
L 372.518416 165.674563 
L 372.627192 163.558926 
L 372.735969 141.83386 
L 372.844745 158.038029 
L 373.062297 104.996177 
L 373.170533 128.617089 
L 373.496862 112.719093 
L 373.605638 126.078326 
L 373.82319 166.797669 
L 373.931426 162.955621 
L 374.583542 239.192176 
L 374.692319 191.177269 
L 374.909871 231.872064 
L 375.127424 156.04866 
L 375.235659 179.303927 
L 375.344435 149.465716 
L 375.453212 164.732254 
L 375.670764 138.256271 
L 375.779541 167.667906 
L 375.888317 143.380662 
L 375.996552 93.137735 
L 376.105328 130.626521 
L 376.214105 127.023344 
L 376.540434 157.582061 
L 376.648669 161.151215 
L 376.756904 157.939068 
L 377.083233 208.636237 
L 377.192009 184.694672 
L 377.300244 221.559952 
L 377.517256 162.094787 
L 377.626032 204.150887 
L 377.952361 165.208943 
L 378.060596 185.315498 
L 378.278149 156.010161 
L 378.386925 160.047918 
L 378.604478 104.447613 
L 378.929724 162.100281 
L 379.147277 143.342075 
L 379.256053 133.720716 
L 379.364288 157.565566 
L 379.472524 153.507617 
L 379.5813 154.558423 
L 379.690076 169.593952 
L 379.798853 166.709842 
L 380.015864 171.699563 
L 380.124099 161.096267 
L 380.232875 175.086083 
L 380.450428 152.516961 
L 380.559204 182.724711 
L 380.667981 167.120309 
L 380.776216 183.231018 
L 380.884992 159.586806 
L 380.993768 160.047918 
L 381.102545 158.098504 
L 381.211321 169.742079 
L 381.320097 157.043527 
L 381.428332 165.691033 
L 381.537109 145.340709 
L 381.645885 193.689166 
L 381.754662 124.472077 
L 381.972214 177.165645 
L 382.080449 141.341966 
L 382.189226 163.120404 
L 382.298002 142.28707 
L 382.515554 167.076399 
L 382.624331 174.223884 
L 382.841342 164.989313 
L 383.058895 192.724017 
L 383.276448 163.114911 
L 383.385224 172.103713 
L 383.493459 167.197151 
L 383.601694 148.975204 
L 383.71047 154.552922 
L 383.928023 175.129928 
L 384.036799 162.133243 
L 384.145034 167.607536 
L 384.25327 154.448396 
L 384.362046 189.749928 
L 384.470822 143.883211 
L 384.688375 157.549071 
L 384.79661 184.722028 
L 384.904845 184.700144 
L 385.013621 204.675061 
L 385.122398 150.997265 
L 385.231174 178.6983 
L 385.33995 159.070642 
L 385.448727 171.185646 
L 385.556962 169.123547 
L 385.665738 171.075952 
L 385.992067 123.982561 
L 386.100843 163.09294 
L 386.209079 136.22484 
L 386.317314 170.190442 
L 386.42609 111.210606 
L 386.643643 162.54447 
L 386.752419 171.125314 
L 386.860654 161.002856 
L 386.968889 167.241061 
L 387.077666 163.630325 
L 387.403995 193.261262 
L 387.512771 174.18003 
L 387.621006 174.682429 
L 387.729782 206.110769 
L 387.838559 193.694628 
L 387.947335 205.663172 
L 388.056111 177.662015 
L 388.164887 178.85166 
L 388.708228 111.713528 
L 388.817004 134.718226 
L 388.925239 97.262845 
L 389.034016 107.034049 
L 389.142792 76.004954 
L 389.469121 190.271343 
L 389.577897 183.693455 
L 389.794909 207.103797 
L 389.903685 235.815457 
L 390.230014 209.126893 
L 390.338249 226.401183 
L 390.882131 118.916311 
L 390.990907 123.459761 
L 391.207918 77.549596 
L 391.316695 56.681457 
L 391.643024 146.918598 
L 391.859494 149.96715 
L 392.185823 203.724756 
L 392.294599 190.222152 
L 392.402834 230.314503 
L 392.51107 229.903647 
L 392.728622 219.002833 
L 392.837399 247.519459 
L 392.946175 193.19571 
L 393.05441 223.946359 
L 393.380198 165.723975 
L 393.59775 146.444154 
L 393.706527 155.025922 
L 393.923538 131.647252 
L 394.032314 138.300411 
L 394.141091 125.522731 
L 394.249867 162.615882 
L 394.358643 149.410652 
L 394.466878 150.848633 
L 394.793207 186.135645 
L 394.901984 163.575402 
L 395.227772 225.474911 
L 395.336548 177.700362 
L 395.554101 196.713517 
L 395.879888 168.034308 
L 395.988664 167.7173 
L 396.206217 138.776308 
L 396.42377 156.04866 
L 396.64024 115.805574 
L 396.749016 141.784234 
L 396.857793 116.820714 
L 396.966569 153.997306 
L 397.075345 152.935295 
L 397.18358 157.477593 
L 397.291816 149.857032 
L 397.400592 153.067363 
L 397.618145 212.134279 
L 397.835156 174.169067 
L 397.943391 157.499586 
L 398.052168 226.417471 
L 398.26972 198.229908 
L 398.378496 196.193309 
L 398.487273 173.202371 
L 398.487273 173.202371 
" style="fill:none;stroke:#1f77b4;stroke-linecap:square;stroke-width:1.5;"/>
   </g>
   <g id="patch_3">
    <path d="M 57.6 307.584 
L 57.6 41.472 
" style="fill:none;stroke:#000000;stroke-linecap:square;stroke-linejoin:miter;stroke-width:0.8;"/>
   </g>
   <g id="patch_4">
    <path d="M 414.72 307.584 
L 414.72 41.472 
" style="fill:none;stroke:#000000;stroke-linecap:square;stroke-linejoin:miter;stroke-width:0.8;"/>
   </g>
   <g id="patch_5">
    <path d="M 57.6 307.584 
L 414.72 307.584 
" style="fill:none;stroke:#000000;stroke-linecap:square;stroke-linejoin:miter;stroke-width:0.8;"/>
   </g>
   <g id="patch_6">
    <path d="M 57.6 41.472 
L 414.72 41.472 
" style="fill:none;stroke:#000000;stroke-linecap:square;stroke-linejoin:miter;stroke-width:0.8;"/>
   </g>
   <g id="text_20">
    <!-- Resistance with source voltage 100.0 mV -->
    <defs>
     <path d="M 4.203125 54.6875 
L 13.1875 54.6875 
L 24.421875 12.015625 
L 35.59375 54.6875 
L 46.1875 54.6875 
L 57.421875 12.015625 
L 68.609375 54.6875 
L 77.59375 54.6875 
L 63.28125 0 
L 52.6875 0 
L 40.921875 44.828125 
L 29.109375 0 
L 18.5 0 
z
" id="DejaVuSans-77"/>
     <path d="M 30.609375 48.390625 
Q 23.390625 48.390625 19.1875 42.75 
Q 14.984375 37.109375 14.984375 27.296875 
Q 14.984375 17.484375 19.15625 11.84375 
Q 23.34375 6.203125 30.609375 6.203125 
Q 37.796875 6.203125 41.984375 11.859375 
Q 46.1875 17.53125 46.1875 27.296875 
Q 46.1875 37.015625 41.984375 42.703125 
Q 37.796875 48.390625 30.609375 48.390625 
z
M 30.609375 56 
Q 42.328125 56 49.015625 48.375 
Q 55.71875 40.765625 55.71875 27.296875 
Q 55.71875 13.875 49.015625 6.21875 
Q 42.328125 -1.421875 30.609375 -1.421875 
Q 18.84375 -1.421875 12.171875 6.21875 
Q 5.515625 13.875 5.515625 27.296875 
Q 5.515625 40.765625 12.171875 48.375 
Q 18.84375 56 30.609375 56 
z
" id="DejaVuSans-6f"/>
     <path d="M 8.5 21.578125 
L 8.5 54.6875 
L 17.484375 54.6875 
L 17.484375 21.921875 
Q 17.484375 14.15625 20.5 10.265625 
Q 23.53125 6.390625 29.59375 6.390625 
Q 36.859375 6.390625 41.078125 11.03125 
Q 45.3125 15.671875 45.3125 23.6875 
L 45.3125 54.6875 
L 54.296875 54.6875 
L 54.296875 0 
L 45.3125 0 
L 45.3125 8.40625 
Q 42.046875 3.421875 37.71875 1 
Q 33.40625 -1.421875 27.6875 -1.421875 
Q 18.265625 -1.421875 13.375 4.4375 
Q 8.5 10.296875 8.5 21.578125 
z
M 31.109375 56 
z
" id="DejaVuSans-75"/>
     <path d="M 41.109375 46.296875 
Q 39.59375 47.171875 37.8125 47.578125 
Q 36.03125 48 33.890625 48 
Q 26.265625 48 22.1875 43.046875 
Q 18.109375 38.09375 18.109375 28.8125 
L 18.109375 0 
L 9.078125 0 
L 9.078125 54.6875 
L 18.109375 54.6875 
L 18.109375 46.1875 
Q 20.953125 51.171875 25.484375 53.578125 
Q 30.03125 56 36.53125 56 
Q 37.453125 56 38.578125 55.875 
Q 39.703125 55.765625 41.0625 55.515625 
z
" id="DejaVuSans-72"/>
     <path d="M 2.984375 54.6875 
L 12.5 54.6875 
L 29.59375 8.796875 
L 46.6875 54.6875 
L 56.203125 54.6875 
L 35.6875 0 
L 23.484375 0 
z
" id="DejaVuSans-76"/>
     <path d="M 9.421875 75.984375 
L 18.40625 75.984375 
L 18.40625 0 
L 9.421875 0 
z
" id="DejaVuSans-6c"/>
     <path d="M 45.40625 27.984375 
Q 45.40625 37.75 41.375 43.109375 
Q 37.359375 48.484375 30.078125 48.484375 
Q 22.859375 48.484375 18.828125 43.109375 
Q 14.796875 37.75 14.796875 27.984375 
Q 14.796875 18.265625 18.828125 12.890625 
Q 22.859375 7.515625 30.078125 7.515625 
Q 37.359375 7.515625 41.375 12.890625 
Q 45.40625 18.265625 45.40625 27.984375 
z
M 54.390625 6.78125 
Q 54.390625 -7.171875 48.1875 -13.984375 
Q 42 -20.796875 29.203125 -20.796875 
Q 24.46875 -20.796875 20.265625 -20.09375 
Q 16.0625 -19.390625 12.109375 -17.921875 
L 12.109375 -9.1875 
Q 16.0625 -11.328125 19.921875 -12.34375 
Q 23.78125 -13.375 27.78125 -13.375 
Q 36.625 -13.375 41.015625 -8.765625 
Q 45.40625 -4.15625 45.40625 5.171875 
L 45.40625 9.625 
Q 42.625 4.78125 38.28125 2.390625 
Q 33.9375 0 27.875 0 
Q 17.828125 0 11.671875 7.65625 
Q 5.515625 15.328125 5.515625 27.984375 
Q 5.515625 40.671875 11.671875 48.328125 
Q 17.828125 56 27.875 56 
Q 33.9375 56 38.28125 53.609375 
Q 42.625 51.21875 45.40625 46.390625 
L 45.40625 54.6875 
L 54.390625 54.6875 
z
" id="DejaVuSans-67"/>
     <path d="M 28.609375 0 
L 0.78125 72.90625 
L 11.078125 72.90625 
L 34.1875 11.53125 
L 57.328125 72.90625 
L 67.578125 72.90625 
L 39.796875 0 
z
" id="DejaVuSans-56"/>
    </defs>
    <g transform="translate(111.699375 35.472)scale(0.12 -0.12)">
     <use xlink:href="#DejaVuSans-52"/>
     <use x="69.419922" xlink:href="#DejaVuSans-65"/>
     <use x="130.943359" xlink:href="#DejaVuSans-73"/>
     <use x="183.042969" xlink:href="#DejaVuSans-69"/>
     <use x="210.826172" xlink:href="#DejaVuSans-73"/>
     <use x="262.925781" xlink:href="#DejaVuSans-74"/>
     <use x="302.134766" xlink:href="#DejaVuSans-61"/>
     <use x="363.414062" xlink:href="#DejaVuSans-6e"/>
     <use x="426.792969" xlink:href="#DejaVuSans-63"/>
     <use x="481.773438" xlink:href="#DejaVuSans-65"/>
     <use x="543.296875" xlink:href="#DejaVuSans-20"/>
     <use x="575.083984" xlink:href="#DejaVuSans-77"/>
     <use x="656.871094" xlink:href="#DejaVuSans-69"/>
     <use x="684.654297" xlink:href="#DejaVuSans-74"/>
     <use x="723.863281" xlink:href="#DejaVuSans-68"/>
     <use x="787.242188" xlink:href="#DejaVuSans-20"/>
     <use x="819.029297" xlink:href="#DejaVuSans-73"/>
     <use x="871.128906" xlink:href="#DejaVuSans-6f"/>
     <use x="932.310547" xlink:href="#DejaVuSans-75"/>
     <use x="995.689453" xlink:href="#DejaVuSans-72"/>
     <use x="1036.771484" xlink:href="#DejaVuSans-63"/>
     <use x="1091.751953" xlink:href="#DejaVuSans-65"/>
     <use x="1153.275391" xlink:href="#DejaVuSans-20"/>
     <use x="1185.0625" xlink:href="#DejaVuSans-76"/>
     <use x="1244.242188" xlink:href="#DejaVuSans-6f"/>
     <use x="1305.423828" xlink:href="#DejaVuSans-6c"/>
     <use x="1333.207031" xlink:href="#DejaVuSans-74"/>
     <use x="1372.416016" xlink:href="#DejaVuSans-61"/>
     <use x="1433.695312" xlink:href="#DejaVuSans-67"/>
     <use x="1497.171875" xlink:href="#DejaVuSans-65"/>
     <use x="1558.695312" xlink:href="#DejaVuSans-20"/>
     <use x="1590.482422" xlink:href="#DejaVuSans-31"/>
     <use x="1654.105469" xlink:href="#DejaVuSans-30"/>
     <use x="1717.728516" xlink:href="#DejaVuSans-30"/>
     <use x="1781.351562" xlink:href="#DejaVuSans-2e"/>
     <use x="1813.138672" xlink:href="#DejaVuSans-30"/>
     <use x="1876.761719" xlink:href="#DejaVuSans-20"/>
     <use x="1908.548828" xlink:href="#DejaVuSans-6d"/>
     <use x="2005.960938" xlink:href="#DejaVuSans-56"/>
    </g>
   </g>
  </g>
 </g>
 <defs>
  <clipPath id="p8007db96fa">
   <rect height="266.112" width="357.12" x="57.6" y="41.472"/>
  </clipPath>
 </defs>
</svg>
