<?xml version="1.0" encoding="utf-8" standalone="no"?>
<!DOCTYPE svg PUBLIC "-//W3C//DTD SVG 1.1//EN"
  "http://www.w3.org/Graphics/SVG/1.1/DTD/svg11.dtd">
<!-- Created with matplotlib (http://matplotlib.org/) -->
<svg height="345pt" version="1.1" viewBox="0 0 460 345" width="460pt" xmlns="http://www.w3.org/2000/svg" xmlns:xlink="http://www.w3.org/1999/xlink">
 <defs>
  <style type="text/css">
*{stroke-linecap:butt;stroke-linejoin:round;}
  </style>
 </defs>
 <g id="figure_1">
  <g id="patch_1">
   <path d="M 0 345.6 
L 460.8 345.6 
L 460.8 0 
L 0 0 
z
" style="fill:#ffffff;"/>
  </g>
  <g id="axes_1">
   <g id="patch_2">
    <path d="M 57.6 307.584 
L 414.72 307.584 
L 414.72 41.472 
L 57.6 41.472 
z
" style="fill:#ffffff;"/>
   </g>
   <g id="matplotlib.axis_1">
    <g id="xtick_1">
     <g id="line2d_1">
      <defs>
       <path d="M 0 0 
L 0 3.5 
" id="mc4c218ae9c" style="stroke:#000000;stroke-width:0.8;"/>
      </defs>
      <g>
       <use style="stroke:#000000;stroke-width:0.8;" x="73.832727" xlink:href="#mc4c218ae9c" y="307.584"/>
      </g>
     </g>
     <g id="text_1">
      <!-- 0 -->
      <defs>
       <path d="M 31.78125 66.40625 
Q 24.171875 66.40625 20.328125 58.90625 
Q 16.5 51.421875 16.5 36.375 
Q 16.5 21.390625 20.328125 13.890625 
Q 24.171875 6.390625 31.78125 6.390625 
Q 39.453125 6.390625 43.28125 13.890625 
Q 47.125 21.390625 47.125 36.375 
Q 47.125 51.421875 43.28125 58.90625 
Q 39.453125 66.40625 31.78125 66.40625 
z
M 31.78125 74.21875 
Q 44.046875 74.21875 50.515625 64.515625 
Q 56.984375 54.828125 56.984375 36.375 
Q 56.984375 17.96875 50.515625 8.265625 
Q 44.046875 -1.421875 31.78125 -1.421875 
Q 19.53125 -1.421875 13.0625 8.265625 
Q 6.59375 17.96875 6.59375 36.375 
Q 6.59375 54.828125 13.0625 64.515625 
Q 19.53125 74.21875 31.78125 74.21875 
z
" id="DejaVuSans-30"/>
      </defs>
      <g transform="translate(70.651477 322.182437)scale(0.1 -0.1)">
       <use xlink:href="#DejaVuSans-30"/>
      </g>
     </g>
    </g>
    <g id="xtick_2">
     <g id="line2d_2">
      <g>
       <use style="stroke:#000000;stroke-width:0.8;" x="127.959328" xlink:href="#mc4c218ae9c" y="307.584"/>
      </g>
     </g>
     <g id="text_2">
      <!-- 100 -->
      <defs>
       <path d="M 12.40625 8.296875 
L 28.515625 8.296875 
L 28.515625 63.921875 
L 10.984375 60.40625 
L 10.984375 69.390625 
L 28.421875 72.90625 
L 38.28125 72.90625 
L 38.28125 8.296875 
L 54.390625 8.296875 
L 54.390625 0 
L 12.40625 0 
z
" id="DejaVuSans-31"/>
      </defs>
      <g transform="translate(118.415578 322.182437)scale(0.1 -0.1)">
       <use xlink:href="#DejaVuSans-31"/>
       <use x="63.623047" xlink:href="#DejaVuSans-30"/>
       <use x="127.246094" xlink:href="#DejaVuSans-30"/>
      </g>
     </g>
    </g>
    <g id="xtick_3">
     <g id="line2d_3">
      <g>
       <use style="stroke:#000000;stroke-width:0.8;" x="182.085929" xlink:href="#mc4c218ae9c" y="307.584"/>
      </g>
     </g>
     <g id="text_3">
      <!-- 200 -->
      <defs>
       <path d="M 19.1875 8.296875 
L 53.609375 8.296875 
L 53.609375 0 
L 7.328125 0 
L 7.328125 8.296875 
Q 12.9375 14.109375 22.625 23.890625 
Q 32.328125 33.6875 34.8125 36.53125 
Q 39.546875 41.84375 41.421875 45.53125 
Q 43.3125 49.21875 43.3125 52.78125 
Q 43.3125 58.59375 39.234375 62.25 
Q 35.15625 65.921875 28.609375 65.921875 
Q 23.96875 65.921875 18.8125 64.3125 
Q 13.671875 62.703125 7.8125 59.421875 
L 7.8125 69.390625 
Q 13.765625 71.78125 18.9375 73 
Q 24.125 74.21875 28.421875 74.21875 
Q 39.75 74.21875 46.484375 68.546875 
Q 53.21875 62.890625 53.21875 53.421875 
Q 53.21875 48.921875 51.53125 44.890625 
Q 49.859375 40.875 45.40625 35.40625 
Q 44.1875 33.984375 37.640625 27.21875 
Q 31.109375 20.453125 19.1875 8.296875 
z
" id="DejaVuSans-32"/>
      </defs>
      <g transform="translate(172.542179 322.182437)scale(0.1 -0.1)">
       <use xlink:href="#DejaVuSans-32"/>
       <use x="63.623047" xlink:href="#DejaVuSans-30"/>
       <use x="127.246094" xlink:href="#DejaVuSans-30"/>
      </g>
     </g>
    </g>
    <g id="xtick_4">
     <g id="line2d_4">
      <g>
       <use style="stroke:#000000;stroke-width:0.8;" x="236.21253" xlink:href="#mc4c218ae9c" y="307.584"/>
      </g>
     </g>
     <g id="text_4">
      <!-- 300 -->
      <defs>
       <path d="M 40.578125 39.3125 
Q 47.65625 37.796875 51.625 33 
Q 55.609375 28.21875 55.609375 21.1875 
Q 55.609375 10.40625 48.1875 4.484375 
Q 40.765625 -1.421875 27.09375 -1.421875 
Q 22.515625 -1.421875 17.65625 -0.515625 
Q 12.796875 0.390625 7.625 2.203125 
L 7.625 11.71875 
Q 11.71875 9.328125 16.59375 8.109375 
Q 21.484375 6.890625 26.8125 6.890625 
Q 36.078125 6.890625 40.9375 10.546875 
Q 45.796875 14.203125 45.796875 21.1875 
Q 45.796875 27.640625 41.28125 31.265625 
Q 36.765625 34.90625 28.71875 34.90625 
L 20.21875 34.90625 
L 20.21875 43.015625 
L 29.109375 43.015625 
Q 36.375 43.015625 40.234375 45.921875 
Q 44.09375 48.828125 44.09375 54.296875 
Q 44.09375 59.90625 40.109375 62.90625 
Q 36.140625 65.921875 28.71875 65.921875 
Q 24.65625 65.921875 20.015625 65.03125 
Q 15.375 64.15625 9.8125 62.3125 
L 9.8125 71.09375 
Q 15.4375 72.65625 20.34375 73.4375 
Q 25.25 74.21875 29.59375 74.21875 
Q 40.828125 74.21875 47.359375 69.109375 
Q 53.90625 64.015625 53.90625 55.328125 
Q 53.90625 49.265625 50.4375 45.09375 
Q 46.96875 40.921875 40.578125 39.3125 
z
" id="DejaVuSans-33"/>
      </defs>
      <g transform="translate(226.66878 322.182437)scale(0.1 -0.1)">
       <use xlink:href="#DejaVuSans-33"/>
       <use x="63.623047" xlink:href="#DejaVuSans-30"/>
       <use x="127.246094" xlink:href="#DejaVuSans-30"/>
      </g>
     </g>
    </g>
    <g id="xtick_5">
     <g id="line2d_5">
      <g>
       <use style="stroke:#000000;stroke-width:0.8;" x="290.339131" xlink:href="#mc4c218ae9c" y="307.584"/>
      </g>
     </g>
     <g id="text_5">
      <!-- 400 -->
      <defs>
       <path d="M 37.796875 64.3125 
L 12.890625 25.390625 
L 37.796875 25.390625 
z
M 35.203125 72.90625 
L 47.609375 72.90625 
L 47.609375 25.390625 
L 58.015625 25.390625 
L 58.015625 17.1875 
L 47.609375 17.1875 
L 47.609375 0 
L 37.796875 0 
L 37.796875 17.1875 
L 4.890625 17.1875 
L 4.890625 26.703125 
z
" id="DejaVuSans-34"/>
      </defs>
      <g transform="translate(280.795381 322.182437)scale(0.1 -0.1)">
       <use xlink:href="#DejaVuSans-34"/>
       <use x="63.623047" xlink:href="#DejaVuSans-30"/>
       <use x="127.246094" xlink:href="#DejaVuSans-30"/>
      </g>
     </g>
    </g>
    <g id="xtick_6">
     <g id="line2d_6">
      <g>
       <use style="stroke:#000000;stroke-width:0.8;" x="344.465732" xlink:href="#mc4c218ae9c" y="307.584"/>
      </g>
     </g>
     <g id="text_6">
      <!-- 500 -->
      <defs>
       <path d="M 10.796875 72.90625 
L 49.515625 72.90625 
L 49.515625 64.59375 
L 19.828125 64.59375 
L 19.828125 46.734375 
Q 21.96875 47.46875 24.109375 47.828125 
Q 26.265625 48.1875 28.421875 48.1875 
Q 40.625 48.1875 47.75 41.5 
Q 54.890625 34.8125 54.890625 23.390625 
Q 54.890625 11.625 47.5625 5.09375 
Q 40.234375 -1.421875 26.90625 -1.421875 
Q 22.3125 -1.421875 17.546875 -0.640625 
Q 12.796875 0.140625 7.71875 1.703125 
L 7.71875 11.625 
Q 12.109375 9.234375 16.796875 8.0625 
Q 21.484375 6.890625 26.703125 6.890625 
Q 35.15625 6.890625 40.078125 11.328125 
Q 45.015625 15.765625 45.015625 23.390625 
Q 45.015625 31 40.078125 35.4375 
Q 35.15625 39.890625 26.703125 39.890625 
Q 22.75 39.890625 18.8125 39.015625 
Q 14.890625 38.140625 10.796875 36.28125 
z
" id="DejaVuSans-35"/>
      </defs>
      <g transform="translate(334.921982 322.182437)scale(0.1 -0.1)">
       <use xlink:href="#DejaVuSans-35"/>
       <use x="63.623047" xlink:href="#DejaVuSans-30"/>
       <use x="127.246094" xlink:href="#DejaVuSans-30"/>
      </g>
     </g>
    </g>
    <g id="xtick_7">
     <g id="line2d_7">
      <g>
       <use style="stroke:#000000;stroke-width:0.8;" x="398.592332" xlink:href="#mc4c218ae9c" y="307.584"/>
      </g>
     </g>
     <g id="text_7">
      <!-- 600 -->
      <defs>
       <path d="M 33.015625 40.375 
Q 26.375 40.375 22.484375 35.828125 
Q 18.609375 31.296875 18.609375 23.390625 
Q 18.609375 15.53125 22.484375 10.953125 
Q 26.375 6.390625 33.015625 6.390625 
Q 39.65625 6.390625 43.53125 10.953125 
Q 47.40625 15.53125 47.40625 23.390625 
Q 47.40625 31.296875 43.53125 35.828125 
Q 39.65625 40.375 33.015625 40.375 
z
M 52.59375 71.296875 
L 52.59375 62.3125 
Q 48.875 64.0625 45.09375 64.984375 
Q 41.3125 65.921875 37.59375 65.921875 
Q 27.828125 65.921875 22.671875 59.328125 
Q 17.53125 52.734375 16.796875 39.40625 
Q 19.671875 43.65625 24.015625 45.921875 
Q 28.375 48.1875 33.59375 48.1875 
Q 44.578125 48.1875 50.953125 41.515625 
Q 57.328125 34.859375 57.328125 23.390625 
Q 57.328125 12.15625 50.6875 5.359375 
Q 44.046875 -1.421875 33.015625 -1.421875 
Q 20.359375 -1.421875 13.671875 8.265625 
Q 6.984375 17.96875 6.984375 36.375 
Q 6.984375 53.65625 15.1875 63.9375 
Q 23.390625 74.21875 37.203125 74.21875 
Q 40.921875 74.21875 44.703125 73.484375 
Q 48.484375 72.75 52.59375 71.296875 
z
" id="DejaVuSans-36"/>
      </defs>
      <g transform="translate(389.048582 322.182437)scale(0.1 -0.1)">
       <use xlink:href="#DejaVuSans-36"/>
       <use x="63.623047" xlink:href="#DejaVuSans-30"/>
       <use x="127.246094" xlink:href="#DejaVuSans-30"/>
      </g>
     </g>
    </g>
    <g id="text_8">
     <!-- t(s) -->
     <defs>
      <path d="M 18.3125 70.21875 
L 18.3125 54.6875 
L 36.8125 54.6875 
L 36.8125 47.703125 
L 18.3125 47.703125 
L 18.3125 18.015625 
Q 18.3125 11.328125 20.140625 9.421875 
Q 21.96875 7.515625 27.59375 7.515625 
L 36.8125 7.515625 
L 36.8125 0 
L 27.59375 0 
Q 17.1875 0 13.234375 3.875 
Q 9.28125 7.765625 9.28125 18.015625 
L 9.28125 47.703125 
L 2.6875 47.703125 
L 2.6875 54.6875 
L 9.28125 54.6875 
L 9.28125 70.21875 
z
" id="DejaVuSans-74"/>
      <path d="M 31 75.875 
Q 24.46875 64.65625 21.28125 53.65625 
Q 18.109375 42.671875 18.109375 31.390625 
Q 18.109375 20.125 21.3125 9.0625 
Q 24.515625 -2 31 -13.1875 
L 23.1875 -13.1875 
Q 15.875 -1.703125 12.234375 9.375 
Q 8.59375 20.453125 8.59375 31.390625 
Q 8.59375 42.28125 12.203125 53.3125 
Q 15.828125 64.359375 23.1875 75.875 
z
" id="DejaVuSans-28"/>
      <path d="M 44.28125 53.078125 
L 44.28125 44.578125 
Q 40.484375 46.53125 36.375 47.5 
Q 32.28125 48.484375 27.875 48.484375 
Q 21.1875 48.484375 17.84375 46.4375 
Q 14.5 44.390625 14.5 40.28125 
Q 14.5 37.15625 16.890625 35.375 
Q 19.28125 33.59375 26.515625 31.984375 
L 29.59375 31.296875 
Q 39.15625 29.25 43.1875 25.515625 
Q 47.21875 21.78125 47.21875 15.09375 
Q 47.21875 7.46875 41.1875 3.015625 
Q 35.15625 -1.421875 24.609375 -1.421875 
Q 20.21875 -1.421875 15.453125 -0.5625 
Q 10.6875 0.296875 5.421875 2 
L 5.421875 11.28125 
Q 10.40625 8.6875 15.234375 7.390625 
Q 20.0625 6.109375 24.8125 6.109375 
Q 31.15625 6.109375 34.5625 8.28125 
Q 37.984375 10.453125 37.984375 14.40625 
Q 37.984375 18.0625 35.515625 20.015625 
Q 33.0625 21.96875 24.703125 23.78125 
L 21.578125 24.515625 
Q 13.234375 26.265625 9.515625 29.90625 
Q 5.8125 33.546875 5.8125 39.890625 
Q 5.8125 47.609375 11.28125 51.796875 
Q 16.75 56 26.8125 56 
Q 31.78125 56 36.171875 55.265625 
Q 40.578125 54.546875 44.28125 53.078125 
z
" id="DejaVuSans-73"/>
      <path d="M 8.015625 75.875 
L 15.828125 75.875 
Q 23.140625 64.359375 26.78125 53.3125 
Q 30.421875 42.28125 30.421875 31.390625 
Q 30.421875 20.453125 26.78125 9.375 
Q 23.140625 -1.703125 15.828125 -13.1875 
L 8.015625 -13.1875 
Q 14.5 -2 17.703125 9.0625 
Q 20.90625 20.125 20.90625 31.390625 
Q 20.90625 42.671875 17.703125 53.65625 
Q 14.5 64.65625 8.015625 75.875 
z
" id="DejaVuSans-29"/>
     </defs>
     <g transform="translate(227.693594 335.860562)scale(0.1 -0.1)">
      <use xlink:href="#DejaVuSans-74"/>
      <use x="39.208984" xlink:href="#DejaVuSans-28"/>
      <use x="78.222656" xlink:href="#DejaVuSans-73"/>
      <use x="130.322266" xlink:href="#DejaVuSans-29"/>
     </g>
    </g>
   </g>
   <g id="matplotlib.axis_2">
    <g id="ytick_1">
     <g id="line2d_8">
      <defs>
       <path d="M 0 0 
L -3.5 0 
" id="ma4cf5773ab" style="stroke:#000000;stroke-width:0.8;"/>
      </defs>
      <g>
       <use style="stroke:#000000;stroke-width:0.8;" x="57.6" xlink:href="#ma4cf5773ab" y="278.707933"/>
      </g>
     </g>
     <g id="text_9">
      <!-- −30 -->
      <defs>
       <path d="M 10.59375 35.5 
L 73.1875 35.5 
L 73.1875 27.203125 
L 10.59375 27.203125 
z
" id="DejaVuSans-2212"/>
      </defs>
      <g transform="translate(29.495313 282.507152)scale(0.1 -0.1)">
       <use xlink:href="#DejaVuSans-2212"/>
       <use x="83.789062" xlink:href="#DejaVuSans-33"/>
       <use x="147.412109" xlink:href="#DejaVuSans-30"/>
      </g>
     </g>
    </g>
    <g id="ytick_2">
     <g id="line2d_9">
      <g>
       <use style="stroke:#000000;stroke-width:0.8;" x="57.6" xlink:href="#ma4cf5773ab" y="245.940766"/>
      </g>
     </g>
     <g id="text_10">
      <!-- −20 -->
      <g transform="translate(29.495313 249.739984)scale(0.1 -0.1)">
       <use xlink:href="#DejaVuSans-2212"/>
       <use x="83.789062" xlink:href="#DejaVuSans-32"/>
       <use x="147.412109" xlink:href="#DejaVuSans-30"/>
      </g>
     </g>
    </g>
    <g id="ytick_3">
     <g id="line2d_10">
      <g>
       <use style="stroke:#000000;stroke-width:0.8;" x="57.6" xlink:href="#ma4cf5773ab" y="213.173598"/>
      </g>
     </g>
     <g id="text_11">
      <!-- −10 -->
      <g transform="translate(29.495313 216.972816)scale(0.1 -0.1)">
       <use xlink:href="#DejaVuSans-2212"/>
       <use x="83.789062" xlink:href="#DejaVuSans-31"/>
       <use x="147.412109" xlink:href="#DejaVuSans-30"/>
      </g>
     </g>
    </g>
    <g id="ytick_4">
     <g id="line2d_11">
      <g>
       <use style="stroke:#000000;stroke-width:0.8;" x="57.6" xlink:href="#ma4cf5773ab" y="180.40643"/>
      </g>
     </g>
     <g id="text_12">
      <!-- 0 -->
      <g transform="translate(44.2375 184.205649)scale(0.1 -0.1)">
       <use xlink:href="#DejaVuSans-30"/>
      </g>
     </g>
    </g>
    <g id="ytick_5">
     <g id="line2d_12">
      <g>
       <use style="stroke:#000000;stroke-width:0.8;" x="57.6" xlink:href="#ma4cf5773ab" y="147.639262"/>
      </g>
     </g>
     <g id="text_13">
      <!-- 10 -->
      <g transform="translate(37.875 151.438481)scale(0.1 -0.1)">
       <use xlink:href="#DejaVuSans-31"/>
       <use x="63.623047" xlink:href="#DejaVuSans-30"/>
      </g>
     </g>
    </g>
    <g id="ytick_6">
     <g id="line2d_13">
      <g>
       <use style="stroke:#000000;stroke-width:0.8;" x="57.6" xlink:href="#ma4cf5773ab" y="114.872094"/>
      </g>
     </g>
     <g id="text_14">
      <!-- 20 -->
      <g transform="translate(37.875 118.671313)scale(0.1 -0.1)">
       <use xlink:href="#DejaVuSans-32"/>
       <use x="63.623047" xlink:href="#DejaVuSans-30"/>
      </g>
     </g>
    </g>
    <g id="ytick_7">
     <g id="line2d_14">
      <g>
       <use style="stroke:#000000;stroke-width:0.8;" x="57.6" xlink:href="#ma4cf5773ab" y="82.104926"/>
      </g>
     </g>
     <g id="text_15">
      <!-- 30 -->
      <g transform="translate(37.875 85.904145)scale(0.1 -0.1)">
       <use xlink:href="#DejaVuSans-33"/>
       <use x="63.623047" xlink:href="#DejaVuSans-30"/>
      </g>
     </g>
    </g>
    <g id="ytick_8">
     <g id="line2d_15">
      <g>
       <use style="stroke:#000000;stroke-width:0.8;" x="57.6" xlink:href="#ma4cf5773ab" y="49.337759"/>
      </g>
     </g>
     <g id="text_16">
      <!-- 40 -->
      <g transform="translate(37.875 53.136977)scale(0.1 -0.1)">
       <use xlink:href="#DejaVuSans-34"/>
       <use x="63.623047" xlink:href="#DejaVuSans-30"/>
      </g>
     </g>
    </g>
    <g id="text_17">
     <!-- Current (nA) -->
     <defs>
      <path d="M 64.40625 67.28125 
L 64.40625 56.890625 
Q 59.421875 61.53125 53.78125 63.8125 
Q 48.140625 66.109375 41.796875 66.109375 
Q 29.296875 66.109375 22.65625 58.46875 
Q 16.015625 50.828125 16.015625 36.375 
Q 16.015625 21.96875 22.65625 14.328125 
Q 29.296875 6.6875 41.796875 6.6875 
Q 48.140625 6.6875 53.78125 8.984375 
Q 59.421875 11.28125 64.40625 15.921875 
L 64.40625 5.609375 
Q 59.234375 2.09375 53.4375 0.328125 
Q 47.65625 -1.421875 41.21875 -1.421875 
Q 24.65625 -1.421875 15.125 8.703125 
Q 5.609375 18.84375 5.609375 36.375 
Q 5.609375 53.953125 15.125 64.078125 
Q 24.65625 74.21875 41.21875 74.21875 
Q 47.75 74.21875 53.53125 72.484375 
Q 59.328125 70.75 64.40625 67.28125 
z
" id="DejaVuSans-43"/>
      <path d="M 8.5 21.578125 
L 8.5 54.6875 
L 17.484375 54.6875 
L 17.484375 21.921875 
Q 17.484375 14.15625 20.5 10.265625 
Q 23.53125 6.390625 29.59375 6.390625 
Q 36.859375 6.390625 41.078125 11.03125 
Q 45.3125 15.671875 45.3125 23.6875 
L 45.3125 54.6875 
L 54.296875 54.6875 
L 54.296875 0 
L 45.3125 0 
L 45.3125 8.40625 
Q 42.046875 3.421875 37.71875 1 
Q 33.40625 -1.421875 27.6875 -1.421875 
Q 18.265625 -1.421875 13.375 4.4375 
Q 8.5 10.296875 8.5 21.578125 
z
M 31.109375 56 
z
" id="DejaVuSans-75"/>
      <path d="M 41.109375 46.296875 
Q 39.59375 47.171875 37.8125 47.578125 
Q 36.03125 48 33.890625 48 
Q 26.265625 48 22.1875 43.046875 
Q 18.109375 38.09375 18.109375 28.8125 
L 18.109375 0 
L 9.078125 0 
L 9.078125 54.6875 
L 18.109375 54.6875 
L 18.109375 46.1875 
Q 20.953125 51.171875 25.484375 53.578125 
Q 30.03125 56 36.53125 56 
Q 37.453125 56 38.578125 55.875 
Q 39.703125 55.765625 41.0625 55.515625 
z
" id="DejaVuSans-72"/>
      <path d="M 56.203125 29.59375 
L 56.203125 25.203125 
L 14.890625 25.203125 
Q 15.484375 15.921875 20.484375 11.0625 
Q 25.484375 6.203125 34.421875 6.203125 
Q 39.59375 6.203125 44.453125 7.46875 
Q 49.3125 8.734375 54.109375 11.28125 
L 54.109375 2.78125 
Q 49.265625 0.734375 44.1875 -0.34375 
Q 39.109375 -1.421875 33.890625 -1.421875 
Q 20.796875 -1.421875 13.15625 6.1875 
Q 5.515625 13.8125 5.515625 26.8125 
Q 5.515625 40.234375 12.765625 48.109375 
Q 20.015625 56 32.328125 56 
Q 43.359375 56 49.78125 48.890625 
Q 56.203125 41.796875 56.203125 29.59375 
z
M 47.21875 32.234375 
Q 47.125 39.59375 43.09375 43.984375 
Q 39.0625 48.390625 32.421875 48.390625 
Q 24.90625 48.390625 20.390625 44.140625 
Q 15.875 39.890625 15.1875 32.171875 
z
" id="DejaVuSans-65"/>
      <path d="M 54.890625 33.015625 
L 54.890625 0 
L 45.90625 0 
L 45.90625 32.71875 
Q 45.90625 40.484375 42.875 44.328125 
Q 39.84375 48.1875 33.796875 48.1875 
Q 26.515625 48.1875 22.3125 43.546875 
Q 18.109375 38.921875 18.109375 30.90625 
L 18.109375 0 
L 9.078125 0 
L 9.078125 54.6875 
L 18.109375 54.6875 
L 18.109375 46.1875 
Q 21.34375 51.125 25.703125 53.5625 
Q 30.078125 56 35.796875 56 
Q 45.21875 56 50.046875 50.171875 
Q 54.890625 44.34375 54.890625 33.015625 
z
" id="DejaVuSans-6e"/>
      <path id="DejaVuSans-20"/>
      <path d="M 34.1875 63.1875 
L 20.796875 26.90625 
L 47.609375 26.90625 
z
M 28.609375 72.90625 
L 39.796875 72.90625 
L 67.578125 0 
L 57.328125 0 
L 50.6875 18.703125 
L 17.828125 18.703125 
L 11.1875 0 
L 0.78125 0 
z
" id="DejaVuSans-41"/>
     </defs>
     <g transform="translate(23.415625 205.581906)rotate(-90)scale(0.1 -0.1)">
      <use xlink:href="#DejaVuSans-43"/>
      <use x="69.824219" xlink:href="#DejaVuSans-75"/>
      <use x="133.203125" xlink:href="#DejaVuSans-72"/>
      <use x="174.300781" xlink:href="#DejaVuSans-72"/>
      <use x="215.382812" xlink:href="#DejaVuSans-65"/>
      <use x="276.90625" xlink:href="#DejaVuSans-6e"/>
      <use x="340.285156" xlink:href="#DejaVuSans-74"/>
      <use x="379.494141" xlink:href="#DejaVuSans-20"/>
      <use x="411.28125" xlink:href="#DejaVuSans-28"/>
      <use x="450.294922" xlink:href="#DejaVuSans-6e"/>
      <use x="513.673828" xlink:href="#DejaVuSans-41"/>
      <use x="582.082031" xlink:href="#DejaVuSans-29"/>
     </g>
    </g>
   </g>
   <g id="line2d_16">
    <path clip-path="url(#pfa0011c552)" d="M 73.832727 266.937967 
L 73.941195 287.519025 
L 74.049663 285.05821 
L 74.2666 220.588808 
L 74.592004 120.013263 
L 74.700472 106.257606 
L 74.917408 63.322786 
L 75.025876 53.885842 
L 75.134344 56.726755 
L 75.35128 120.871763 
L 75.893621 261.898376 
L 76.219025 290.612245 
L 76.327493 272.288845 
L 76.761366 125.613172 
L 77.195238 60.000195 
L 77.303706 57.883436 
L 77.520642 90.368806 
L 78.171451 275.496751 
L 78.279919 282.076398 
L 78.388387 280.080878 
L 78.496855 274.98886 
L 78.605323 256.22638 
L 79.147663 87.347673 
L 79.3646 57.677003 
L 79.581536 69.9352 
L 79.690004 85.034311 
L 80.123876 236.333432 
L 80.44928 283.967064 
L 80.666217 274.985583 
L 80.774685 260.260018 
L 81.208557 110.022553 
L 81.533961 61.913798 
L 81.642429 63.60786 
L 81.750897 69.823792 
L 81.859365 88.402776 
L 82.18477 211.479535 
L 82.510174 275.041287 
L 82.618642 283.685266 
L 82.72711 281.5554 
L 82.835578 275.591776 
L 82.944046 250.095642 
L 83.269451 132.782628 
L 83.703323 62.477393 
L 83.920259 68.984952 
L 84.571068 261.410145 
L 84.679536 263.631759 
L 84.788004 285.277751 
L 85.00494 276.96472 
L 85.113408 254.525764 
L 85.54728 109.58675 
L 85.872685 63.021328 
L 86.089621 70.253042 
L 86.198089 87.062599 
L 86.631961 237.014989 
L 86.957366 285.277751 
L 87.174302 275.624543 
L 87.28277 260.030648 
L 87.82511 99.196281 
L 88.042046 56.654667 
L 88.258983 57.886713 
L 89.126727 290.264913 
L 89.235195 290.169889 
L 89.343663 289.006654 
L 89.560599 224.524145 
L 89.994472 107.198024 
L 90.319876 57.526274 
L 90.428344 55.776507 
L 90.536812 72.897352 
L 91.079153 239.901777 
L 91.404557 285.690617 
L 91.513025 287.030794 
L 91.621493 277.305499 
L 91.729961 256.232933 
L 92.055365 135.633372 
L 92.38077 71.530961 
L 92.489238 60.377017 
L 92.597706 61.982609 
L 92.814642 86.662839 
L 93.248514 232.837175 
L 93.573919 291.772203 
L 93.682387 290.762974 
L 93.899323 259.689869 
L 94.333195 130.233343 
L 94.767068 56.992169 
L 94.875536 61.015977 
L 95.092472 122.182449 
L 95.634812 272.577196 
L 95.960217 293.780831 
L 96.068685 275.234614 
L 96.611025 107.263558 
L 96.936429 59.141695 
L 97.044897 58.810747 
L 97.153365 69.948307 
L 97.587238 220.382375 
L 98.02111 288.780561 
L 98.129578 291.297079 
L 98.238046 277.056468 
L 98.671919 128.447532 
L 99.105791 64.26648 
L 99.214259 55.517646 
L 99.322727 69.951584 
L 99.865067 240.747169 
L 100.190472 288.213689 
L 100.29894 292.896117 
L 100.407408 272.17416 
L 100.84128 119.371026 
L 101.058216 86.122181 
L 101.275153 57.640959 
L 101.383621 60.609664 
L 101.600557 124.115712 
L 102.034429 254.614235 
L 102.251365 284.976293 
L 102.468301 276.122604 
L 102.57677 256.042883 
L 102.902174 130.253003 
L 103.336046 59.66597 
L 103.444514 53.794093 
L 103.552982 74.398089 
L 103.986855 230.671265 
L 104.203791 273.196496 
L 104.312259 290.4779 
L 104.529195 277.561082 
L 104.637663 258.179303 
L 105.071536 111.565887 
L 105.39694 61.124109 
L 105.505408 55.242402 
L 105.613876 72.972717 
L 106.047748 227.584598 
L 106.156216 239.846072 
L 106.373153 289.412967 
L 106.481621 289.304835 
L 106.590089 281.912562 
L 106.807025 219.196203 
L 107.132429 122.385606 
L 107.349365 71.635816 
L 107.457833 64.040387 
L 107.566302 64.761265 
L 107.67477 70.914939 
L 107.783238 95.208517 
L 108.108642 222.640033 
L 108.542514 289.668551 
L 108.650982 291.166011 
L 108.75945 270.116382 
L 109.193323 117.287035 
L 109.301791 107.502758 
L 109.518727 58.34873 
L 109.735663 70.35462 
L 109.844131 88.163576 
L 110.386472 262.668405 
L 110.603408 287.397786 
L 110.711876 291.670625 
L 110.820344 276.614111 
L 111.254216 121.196158 
L 111.362684 108.46939 
L 111.579621 58.486352 
L 111.688089 57.568871 
L 111.905025 88.671467 
L 112.447365 261.606748 
L 112.77277 292.42427 
L 112.881238 276.09639 
L 113.31511 118.32903 
L 113.423578 108.95762 
L 113.640514 56.458064 
L 113.748982 58.037442 
L 113.965918 87.403377 
L 114.399791 237.123121 
L 114.616727 278.085357 
L 114.833663 291.110306 
L 114.942131 277.928075 
L 115.376003 125.187199 
L 115.59294 82.504686 
L 115.701408 55.550414 
L 115.809876 57.431249 
L 115.918344 61.533698 
L 116.13528 131.239295 
L 116.569153 261.554321 
L 116.786089 285.64802 
L 116.894557 290.294404 
L 117.003025 271.210805 
L 117.436897 121.061812 
L 117.545365 108.797061 
L 117.762301 57.408312 
L 117.870769 60.249226 
L 117.979238 68.14939 
L 118.087706 88.425713 
L 118.630046 262.058935 
L 118.846982 285.87739 
L 118.95545 292.522571 
L 119.063918 278.059143 
L 119.606259 108.433346 
L 119.931663 56.710371 
L 120.040131 66.494648 
L 120.257067 127.559542 
L 120.582472 235.353694 
L 120.907876 285.890497 
L 121.016344 283.423129 
L 121.124812 276.476489 
L 121.341748 206.557907 
L 121.667152 107.663317 
L 121.992557 59.108928 
L 122.101025 56.363039 
L 122.317961 123.257213 
L 122.751833 243.165386 
L 122.968769 290.690887 
L 123.185706 276.142264 
L 123.294174 260.64667 
L 123.619578 135.420385 
L 123.944982 71.970041 
L 124.161918 60.091943 
L 124.270386 71.714458 
L 124.704259 225.454732 
L 125.138131 290.979238 
L 125.246599 288.852649 
L 125.463535 223.216735 
L 125.897408 101.237676 
L 126.114344 59.590605 
L 126.222812 59.030287 
L 126.439748 87.193668 
L 126.765152 211.964489 
L 127.090557 278.89143 
L 127.307493 291.398657 
L 127.415961 277.226857 
L 127.958301 108.253126 
L 128.283706 56.943018 
L 128.392174 63.349 
L 128.60911 121.815457 
L 128.934514 234.793375 
L 129.042982 243.39148 
L 129.259918 285.569378 
L 129.476854 277.341542 
L 129.585323 258.42178 
L 129.910727 130.996818 
L 130.344599 57.342778 
L 130.453067 53.568 
L 130.670003 123.643865 
L 130.995408 232.905986 
L 131.103876 241.307488 
L 131.320812 286.929216 
L 131.537748 277.511932 
L 131.646216 260.735142 
L 131.97162 127.156505 
L 132.405493 58.135743 
L 132.513961 56.877484 
L 132.622429 77.766553 
L 133.164769 256.826019 
L 133.381706 285.883943 
L 133.490174 284.186604 
L 133.598642 279.009391 
L 134.032514 122.89022 
L 134.24945 85.312832 
L 134.357918 56.929911 
L 134.466386 58.519119 
L 134.683322 87.639301 
L 135.117195 238.928592 
L 135.442599 289.688211 
L 135.551067 293.371241 
L 135.659535 274.631698 
L 136.093408 117.267374 
L 136.418812 62.552757 
L 136.52728 66.976325 
L 136.635748 70.600374 
L 136.852684 147.114987 
L 137.178088 241.913681 
L 137.395025 291.015282 
L 137.503493 290.989068 
L 137.611961 290.294404 
L 137.937365 173.292678 
L 138.262769 87.639301 
L 138.588174 54.534631 
L 138.696642 74.784741 
L 139.130514 230.12733 
L 139.455918 291.880335 
L 139.564386 283.485386 
L 139.672854 277.574189 
L 139.781322 260.81706 
L 140.106727 133.804964 
L 140.540599 60.013302 
L 140.649067 57.362438 
L 140.757535 71.521131 
L 141.191408 228.757663 
L 141.299876 240.842194 
L 141.516812 291.78531 
L 141.62528 289.471948 
L 141.842216 262.193281 
L 142.276088 113.91857 
L 142.601493 63.689778 
L 142.818429 70.488965 
L 142.926897 87.232988 
L 143.360769 239.531508 
L 143.686174 285.546441 
L 143.794642 288.71175 
L 143.90311 278.485117 
L 144.553918 88.66819 
L 144.770854 58.142297 
L 144.879323 54.524801 
L 145.096259 116.680842 
L 145.530131 242.477276 
L 145.855535 291.424871 
L 145.964003 293.079613 
L 146.289408 186.596148 
L 146.614812 109.458958 
L 146.940216 57.693386 
L 147.048684 58.453585 
L 147.157152 77.386454 
L 147.591804 231.480614 
L 147.700479 241.880913 
L 147.917828 289.83894 
L 148.026503 290.661396 
L 148.243853 260.119119 
L 148.787227 92.197214 
L 149.004577 63.217931 
L 149.221926 70.505349 
L 149.439276 146.597266 
L 149.873975 262.288306 
L 150.091324 289.209811 
L 150.199999 291.798417 
L 150.308674 276.866419 
L 150.852048 107.932008 
L 151.178072 57.781858 
L 151.286747 57.395205 
L 151.504097 125.455889 
L 151.938796 249.427192 
L 152.156146 292.391503 
L 152.373495 277.797006 
L 152.48217 261.908206 
L 152.916869 111.405328 
L 153.242893 63.240868 
L 153.351568 64.610536 
L 153.460243 70.14491 
L 154.112292 263.097655 
L 154.329641 289.832387 
L 154.438316 292.185069 
L 154.655666 225.474393 
L 154.98169 118.591168 
L 155.19904 87.177284 
L 155.307714 56.179543 
L 155.416389 57.758921 
L 155.633739 87.891608 
L 156.177113 253.876974 
L 156.394462 287.607496 
L 156.503137 284.720709 
L 156.611812 277.616787 
L 156.720487 261.68539 
L 157.046511 134.745382 
L 157.372535 69.564931 
L 157.589885 58.476522 
L 157.69856 69.430586 
L 158.459283 283.400192 
L 158.676633 294.242848 
L 158.785308 275.948938 
L 159.220007 118.879519 
L 159.328682 107.827153 
L 159.546031 58.122636 
L 159.654706 58.230768 
L 159.872056 81.905047 
L 160.306755 233.499072 
L 160.741454 288.652769 
L 160.958804 261.334781 
L 161.393503 112.145866 
L 161.610853 72.943226 
L 161.828202 63.322786 
L 161.936877 69.967967 
L 162.697601 278.245916 
L 162.91495 292.152302 
L 163.023625 279.307573 
L 163.566999 107.771449 
L 163.893023 60.13454 
L 164.001698 54.111935 
L 164.219048 94.605601 
L 164.545072 221.768426 
L 164.979771 287.083221 
L 165.088446 289.891368 
L 165.197121 279.694225 
L 166.066519 66.225957 
L 166.175194 64.010896 
L 166.283869 70.649525 
L 166.501218 136.160923 
L 166.935917 257.111093 
L 167.153267 289.894644 
L 167.261942 287.269994 
L 167.370617 278.606355 
L 167.479291 260.685991 
L 167.91399 117.277204 
L 168.022665 107.263558 
L 168.240015 62.044866 
L 168.457364 54.537908 
L 168.674714 124.964382 
L 169.218088 262.448865 
L 169.435438 285.130298 
L 169.544112 290.903873 
L 169.652787 279.504176 
L 170.304836 88.075104 
L 170.522186 64.853013 
L 170.739535 69.728767 
L 170.84821 89.064673 
L 171.174234 212.046407 
L 171.608934 288.076067 
L 171.717608 286.313193 
L 171.826283 277.839603 
L 171.934958 260.299338 
L 172.369657 115.606079 
L 172.478332 103.983564 
L 172.695682 57.139621 
L 172.804356 57.804795 
L 173.021706 86.095967 
L 173.56508 241.094501 
L 173.891104 292.830583 
L 173.999779 290.281297 
L 174.217129 225.238469 
L 174.869177 59.371065 
L 174.977852 61.645107 
L 175.086527 54.88524 
L 175.303877 120.419576 
L 175.738576 242.051303 
L 176.0646 292.158856 
L 176.173275 291.012005 
L 176.28195 269.752666 
L 176.716649 119.174423 
L 176.825324 109.894761 
L 177.042673 58.463415 
L 177.151348 56.546536 
L 177.260023 65.318306 
L 177.477372 125.141325 
L 177.803397 234.305144 
L 178.129421 287.745118 
L 178.238096 286.880065 
L 178.455445 259.922516 
L 178.78147 136.439444 
L 179.107494 73.38886 
L 179.324844 62.323387 
L 179.433519 70.485689 
L 180.194242 289.688211 
L 180.302917 292.240774 
L 180.411592 291.670625 
L 180.520267 273.389822 
L 180.954966 117.814586 
L 181.063641 109.7768 
L 181.28099 60.98321 
L 181.389665 64.158349 
L 181.607015 87.33129 
L 182.041714 239.138302 
L 182.367738 286.041226 
L 182.476413 291.333123 
L 182.585088 279.268252 
L 183.128462 108.597182 
L 183.454486 57.752367 
L 183.563161 55.701143 
L 183.780511 123.725783 
L 183.889185 149.431626 
L 184.106535 233.934875 
L 184.21521 240.825811 
L 184.432559 292.096598 
L 184.541234 291.962253 
L 184.758584 261.318397 
L 185.410632 75.626857 
L 185.519307 60.714519 
L 185.627982 63.296572 
L 185.736657 71.363849 
L 185.954006 125.05613 
L 186.280031 235.789497 
L 186.606055 289.835664 
L 186.71473 288.649492 
L 186.932079 260.102735 
L 187.366779 114.272455 
L 187.475453 106.149474 
L 187.692803 58.142297 
L 187.801478 57.788411 
L 188.018827 81.138295 
L 188.453527 222.564668 
L 188.888226 289.986393 
L 188.9969 292.427547 
L 189.105575 279.048712 
L 189.648949 110.615639 
L 189.974974 64.797308 
L 190.083648 66.976325 
L 190.192323 71.760332 
L 190.300998 88.46831 
L 190.735697 235.314373 
L 191.061722 287.581282 
L 191.170396 288.141601 
L 191.387746 266.511993 
L 191.822445 117.224777 
L 191.93112 109.655561 
L 192.14847 59.181016 
L 192.257144 59.45626 
L 192.365819 61.373139 
L 192.583169 125.891693 
L 192.909193 229.226233 
L 193.017868 241.618776 
L 193.235218 287.827036 
L 193.343892 290.566371 
L 193.452567 288.996824 
L 193.561242 270.014804 
L 193.995941 119.210467 
L 194.104616 110.402653 
L 194.43064 59.177739 
L 194.64799 88.451927 
L 195.191364 252.395898 
L 195.408713 287.148756 
L 195.517388 286.588437 
L 195.626063 279.507452 
L 195.734738 261.200436 
L 196.169437 113.27961 
L 196.495461 64.659686 
L 196.604136 66.429113 
L 196.712811 71.47198 
L 196.821486 88.589549 
L 197.14751 216.997526 
L 197.582209 287.807376 
L 197.690884 290.186272 
L 197.799559 277.643 
L 198.451608 88.900837 
L 198.668957 60.010025 
L 198.777632 63.231038 
L 198.886307 75.059985 
L 199.321006 228.377564 
L 199.538356 265.981165 
L 199.755705 290.818679 
L 199.86438 290.4779 
L 199.973055 270.466991 
L 200.407754 117.139582 
L 200.516429 108.974004 
L 200.842453 58.971306 
L 200.951128 59.783932 
L 201.059803 79.155881 
L 201.494502 230.74663 
L 201.603177 241.169866 
L 201.820526 290.386152 
L 201.929201 291.034942 
L 202.037876 289.059082 
L 202.14655 271.433622 
L 202.689924 108.987111 
L 203.015949 58.076762 
L 203.124624 55.530753 
L 203.341973 122.270921 
L 203.776673 240.707849 
L 204.102697 287.037347 
L 204.211372 286.214892 
L 204.320047 278.632569 
L 204.428721 258.706854 
L 204.863421 114.026701 
L 205.189445 59.092544 
L 205.29812 59.25638 
L 205.406794 63.191717 
L 205.515469 81.302131 
L 205.950168 221.047548 
L 206.384868 288.928013 
L 206.493542 290.995621 
L 206.602217 279.346893 
L 206.928242 183.443946 
L 207.145591 113.246843 
L 207.254266 108.416962 
L 207.471616 70.741273 
L 207.688965 56.454787 
L 207.906315 124.793993 
L 208.341014 241.21574 
L 208.667038 286.676909 
L 208.884388 278.186935 
L 208.993063 260.938298 
L 209.427762 116.225378 
L 209.536437 109.924252 
L 209.862461 58.407711 
L 210.079811 71.989702 
L 210.623185 239.931267 
L 210.949209 285.376052 
L 211.166558 278.285237 
L 211.275233 260.876041 
L 211.709932 116.10414 
L 211.818607 104.661845 
L 212.035957 64.587599 
L 212.144632 59.138419 
L 212.253306 61.962948 
L 212.470656 113.338591 
L 212.79668 224.399629 
L 213.231379 289.707872 
L 213.340054 291.939316 
L 213.557404 244.646462 
L 214.100778 88.874623 
L 214.318127 64.771095 
L 214.426802 62.972177 
L 214.535477 70.561053 
L 214.752827 138.526713 
L 215.078851 237.994727 
L 215.404875 286.873512 
L 215.51355 284.219371 
L 215.622225 278.08208 
L 215.7309 262.301412 
L 216.165599 117.418103 
L 216.274274 107.368413 
L 216.491623 59.538178 
L 216.600298 58.8173 
L 216.817648 78.903574 
L 217.252347 225.857768 
L 217.687046 289.265515 
L 217.795721 291.834461 
L 217.904396 277.1646 
L 218.665119 72.471379 
L 218.773794 63.824124 
L 218.991144 71.154139 
L 219.099818 87.613087 
L 219.534518 234.121648 
L 219.643192 245.708119 
L 219.860542 292.706067 
L 219.969217 290.461516 
L 220.077892 291.195501 
L 220.295241 226.021604 
L 220.838615 88.41916 
L 221.055965 63.866721 
L 221.16464 65.403501 
L 221.273314 71.64237 
L 221.381989 87.596704 
L 221.816688 233.184507 
L 221.925363 244.525224 
L 222.142713 292.584829 
L 222.251387 290.910427 
L 222.360062 294.917851 
L 222.468737 273.756814 
L 222.903436 124.230397 
L 223.338135 63.765143 
L 223.555485 72.042129 
L 223.66416 88.782875 
L 224.098859 231.084132 
L 224.207534 241.035521 
L 224.424883 284.239031 
L 224.533558 287.502641 
L 224.642233 294.475495 
L 224.750908 278.799681 
L 225.294282 112.398173 
L 225.620306 61.396076 
L 225.837656 71.907784 
L 225.94633 88.258601 
L 226.38103 230.474662 
L 226.489704 241.867807 
L 226.707054 292.070384 
L 226.815729 291.487129 
L 226.924404 294.475495 
L 227.141753 233.059992 
L 227.576452 108.131888 
L 227.902477 64.528618 
L 228.011152 59.053224 
L 228.119826 69.709107 
L 228.337176 142.488263 
L 228.6632 241.723631 
L 228.989225 286.005182 
L 229.0979 284.199711 
L 229.206574 279.536943 
L 229.423924 216.060385 
L 229.749948 108.47922 
L 230.075973 64.938207 
L 230.184647 66.900961 
L 230.293322 71.206566 
L 230.401997 90.889804 
L 230.728021 214.697271 
L 231.054046 279.012668 
L 231.271395 287.024241 
L 231.38007 279.946532 
L 231.59742 202.176936 
L 231.923444 108.433346 
L 232.249469 61.877754 
L 232.358143 56.379423 
L 232.466818 70.833021 
L 233.010192 241.01586 
L 233.336216 292.358735 
L 233.444891 290.93664 
L 233.553566 274.910219 
L 233.988265 117.814586 
L 234.09694 105.077988 
L 234.31429 60.766947 
L 234.422964 62.723147 
L 234.640314 87.33129 
L 234.966338 215.447639 
L 235.401037 286.421325 
L 235.509712 294.704865 
L 235.618387 276.895909 
L 236.053086 119.744572 
L 236.161761 110.618916 
L 236.379111 58.083316 
L 236.487785 60.010025 
L 236.705135 87.960419 
L 237.139834 239.171069 
L 237.465859 286.257489 
L 237.574533 289.606293 
L 237.683208 278.570311 
L 238.226582 109.409807 
L 238.443932 58.804193 
L 238.552607 58.958199 
L 238.661281 67.123777 
L 238.769956 87.914545 
L 239.095981 209.339839 
L 239.53068 293.115657 
L 239.748029 279.677842 
L 240.508753 64.718667 
L 240.726102 57.932587 
L 240.834777 74.168718 
L 241.269476 231.369206 
L 241.595501 291.647688 
L 241.704176 284.573256 
L 241.81285 277.649554 
L 241.921525 262.56355 
L 242.24755 131.534199 
L 242.682249 64.826799 
L 242.790923 56.441681 
L 242.899598 70.177677 
L 243.442972 242.470722 
L 243.660322 289.278622 
L 243.768997 285.939647 
L 243.877671 281.997757 
L 243.986346 263.638313 
L 244.52972 103.075914 
L 244.74707 62.50033 
L 244.855745 64.345121 
L 244.964419 71.468704 
L 245.073094 86.764418 
L 245.507793 239.2792 
L 245.833818 287.627156 
L 246.051167 279.242038 
L 246.811891 70.852681 
L 247.02924 55.583181 
L 247.137915 75.132073 
L 247.572614 225.638228 
L 248.115988 292.64381 
L 248.333338 231.483891 
L 248.768037 109.580197 
L 249.094062 59.790485 
L 249.202736 56.294228 
L 249.528761 137.641999 
L 249.74611 224.622446 
L 249.854785 241.825209 
L 250.072675 291.428148 
L 250.18135 294.062628 
L 250.290025 275.444323 
L 250.833399 109.527769 
L 251.159423 58.646911 
L 251.268098 56.241801 
L 251.376773 72.782667 
L 251.920147 241.867807 
L 252.246171 289.943795 
L 252.354846 289.920858 
L 252.463521 278.806235 
L 253.11557 89.058119 
L 253.332919 62.578971 
L 253.441594 64.377889 
L 253.550269 70.128527 
L 254.419667 287.342082 
L 254.637017 280.071048 
L 254.745691 261.796798 
L 255.180391 114.636171 
L 255.61509 59.108928 
L 255.723765 65.990033 
L 255.832439 84.192195 
L 256.375813 241.877637 
L 256.701838 287.342082 
L 256.810512 285.490737 
L 256.919187 279.563156 
L 257.027862 261.059537 
L 257.462561 116.281082 
L 257.571236 107.19147 
L 257.788586 61.117555 
L 258.005935 55.996047 
L 258.11461 72.930119 
L 258.657984 238.19133 
L 258.984009 291.008728 
L 259.092683 291.002175 
L 259.201358 286.52618 
L 259.310033 268.199503 
L 259.744732 130.839535 
L 260.179431 64.141965 
L 260.288106 60.052623 
L 260.505456 87.832627 
L 261.04883 241.63516 
L 261.374854 286.604821 
L 261.483529 291.218438 
L 261.700878 262.278475 
L 262.135578 118.650149 
L 262.352927 85.850214 
L 262.570277 59.626649 
L 262.678951 56.752969 
L 262.787626 70.187508 
L 263.657025 291.044772 
L 263.765699 290.651566 
L 263.874374 289.098402 
L 263.983049 271.741633 
L 264.417748 128.961976 
L 264.852447 64.449976 
L 265.069797 71.396616 
L 265.178472 87.118303 
L 265.613171 230.648328 
L 265.721846 241.258337 
L 265.939195 284.58964 
L 266.156545 293.151701 
L 266.26522 274.684125 
L 266.808594 109.835781 
L 267.134618 63.666841 
L 267.351967 71.570282 
L 267.460642 91.178155 
L 267.895341 233.463028 
L 268.221366 291.854121 
L 268.330041 286.198508 
L 268.438715 289.324496 
L 268.656065 224.252177 
L 268.982089 118.430609 
L 269.090764 106.857245 
L 269.416789 58.646911 
L 269.525463 60.000195 
L 269.851488 159.445273 
L 270.177512 241.356639 
L 270.503537 290.70727 
L 270.612211 294.118332 
L 270.720886 276.492873 
L 271.26426 110.071704 
L 271.590285 63.535772 
L 271.698959 65.161024 
L 271.807634 70.852681 
L 272.024984 142.760231 
L 272.351008 238.217544 
L 272.677033 286.286979 
L 272.894382 277.941182 
L 273.003057 261.70505 
L 273.437756 115.743701 
L 273.872455 59.47592 
L 274.089805 85.699485 
L 274.524504 232.08353 
L 274.633179 241.451664 
L 274.959203 292.611043 
L 275.067878 293.066506 
L 275.176553 277.606957 
L 275.828601 91.109344 
L 276.045951 63.702885 
L 276.154626 60.861972 
L 276.371975 88.927051 
L 276.915349 241.700694 
L 277.241374 286.988197 
L 277.350049 285.041827 
L 277.458723 280.175902 
L 277.676073 221.421094 
L 278.002097 120.422852 
L 278.219447 89.10727 
L 278.436796 63.994513 
L 278.545471 66.186636 
L 278.654146 70.918215 
L 278.762821 87.855564 
L 279.19752 229.609609 
L 279.41487 263.612099 
L 279.632219 286.886618 
L 279.849569 278.508054 
L 279.958244 261.69522 
L 280.392943 120.435959 
L 280.610292 89.687249 
L 280.827642 63.172057 
L 281.044992 71.914337 
L 281.153666 88.789429 
L 281.69704 242.224969 
L 281.91439 280.487191 
L 282.023065 285.978968 
L 282.240414 277.505378 
L 282.349089 261.013663 
L 282.783788 123.873235 
L 283.218488 63.13929 
L 283.327162 63.925702 
L 283.435837 71.812759 
L 283.544512 88.838579 
L 284.087886 243.532379 
L 284.41391 291.782033 
L 284.522585 293.954497 
L 284.63126 278.688273 
L 285.283309 94.150137 
L 285.500658 59.760995 
L 285.609333 59.911724 
L 285.718008 66.255447 
L 285.826683 83.569619 
L 286.370056 242.116837 
L 286.696081 286.093653 
L 286.804756 287.505918 
L 286.91343 279.1208 
L 287.022105 259.083677 
L 287.34813 139.614583 
L 287.782829 59.279317 
L 287.891504 59.318638 
L 288.108853 84.247899 
L 288.543552 226.60486 
L 288.978251 289.688211 
L 289.195601 279.189611 
L 290.064999 62.30045 
L 290.173674 63.552156 
L 290.282349 70.597097 
L 290.391024 89.081056 
L 290.934398 243.650341 
L 291.151747 292.565169 
L 291.260422 292.978035 
L 291.369097 292.574999 
L 291.586447 226.136289 
L 292.021146 108.90847 
L 292.34717 62.467563 
L 292.455845 62.716593 
L 292.56452 70.901832 
L 293.325243 276.289716 
L 293.433918 291.349507 
L 293.542593 291.166011 
L 293.651268 283.603348 
L 293.759943 264.713076 
L 294.194642 125.364141 
L 294.629341 64.099368 
L 294.738016 65.419885 
L 294.84669 71.937274 
L 294.955365 89.94611 
L 295.390064 233.970919 
L 295.607414 272.246248 
L 295.824764 291.431425 
L 295.933438 291.929486 
L 296.150788 233.531839 
L 296.585487 108.941237 
L 296.911511 63.470238 
L 297.020186 64.482744 
L 297.128861 71.065668 
L 297.237536 86.643179 
L 297.78091 242.224969 
L 298.106934 287.00458 
L 298.324284 278.468733 
L 298.432959 260.276401 
L 298.976333 108.574245 
L 299.302357 63.257252 
L 299.411032 64.079707 
L 299.519706 71.301591 
L 299.628381 88.507631 
L 300.06308 234.999808 
L 300.171755 242.493659 
L 300.49778 287.122542 
L 300.606454 285.700447 
L 300.715129 279.785973 
L 300.823804 260.263295 
L 301.258503 117.844076 
L 301.367178 110.068427 
L 301.693202 60.390124 
L 301.801877 59.679077 
L 301.910552 69.948307 
L 302.019227 92.38071 
L 302.453926 232.679893 
L 302.562601 241.395959 
L 302.888625 289.639061 
L 302.9973 290.422196 
L 303.21465 262.38333 
L 303.540674 141.839473 
L 303.975373 66.245617 
L 304.192723 63.083586 
L 304.410072 88.566612 
L 304.736097 204.585323 
L 305.279471 285.769258 
L 305.49682 278.324557 
L 305.605495 260.833443 
L 306.040194 121.058536 
L 306.474893 65.491972 
L 306.583568 67.425235 
L 306.692243 72.284606 
L 306.800918 88.45848 
L 307.235617 229.183636 
L 307.452966 263.490861 
L 307.670316 287.45349 
L 307.778991 287.722181 
L 307.99634 261.826289 
L 308.43104 118.607551 
L 308.539714 110.232263 
L 308.865739 60.976657 
L 308.974414 57.329671 
L 309.191763 92.203768 
L 309.626657 234.550898 
L 309.735419 244.521947 
L 309.952943 291.378997 
L 310.170466 294.039691 
L 310.279228 277.197367 
L 310.931799 93.353895 
L 311.149323 62.533097 
L 311.258085 59.783932 
L 311.366847 62.244746 
L 311.58437 122.415096 
L 312.019417 242.631282 
L 312.345703 286.519626 
L 312.563226 278.842279 
L 312.671988 261.193882 
L 313.107036 120.331104 
L 313.215798 110.065151 
L 313.542083 61.576296 
L 313.650845 60.567067 
L 313.759607 70.380834 
L 313.97713 140.902332 
L 314.412178 253.041411 
L 314.629701 290.89732 
L 314.738463 291.58543 
L 314.847225 294.16093 
L 315.064749 241.101055 
L 315.499796 108.747911 
L 315.826081 58.220938 
L 315.934843 59.515241 
L 316.043605 66.042461 
L 316.261129 121.481232 
L 316.696176 242.464169 
L 317.022462 286.313193 
L 317.131223 283.819612 
L 317.239985 278.311451 
L 317.348747 261.580535 
L 317.783794 119.220297 
L 317.892556 110.219156 
L 318.218842 59.171186 
L 318.327604 57.231369 
L 318.436365 70.541393 
L 318.762651 177.165757 
L 319.088936 250.095642 
L 319.30646 293.109104 
L 319.415222 291.97536 
L 319.523984 289.521099 
L 319.632746 279.088033 
L 320.067793 131.232741 
L 320.50284 65.259325 
L 320.720364 71.547345 
L 320.829126 87.537723 
L 321.264173 233.879171 
L 321.372935 241.815379 
L 321.590459 291.306909 
L 321.69922 291.729606 
L 321.807982 291.057879 
L 322.025506 227.568215 
L 322.351791 128.670349 
L 322.786839 63.758589 
L 322.8956 62.985284 
L 323.004362 70.341513 
L 323.221886 145.922262 
L 323.656933 262.966586 
L 323.874457 285.929817 
L 324.091981 278.383538 
L 324.200742 259.614505 
L 324.527028 138.939579 
L 324.853313 73.129999 
L 324.962075 62.467563 
L 325.070837 65.360904 
L 325.179599 72.242009 
L 325.288361 88.586272 
L 325.723408 237.028096 
L 326.049694 288.852649 
L 326.267217 277.334989 
L 326.375979 261.24631 
L 326.811026 113.361528 
L 327.137312 58.102976 
L 327.246074 59.692184 
L 327.463597 89.228509 
L 327.898645 232.840452 
L 328.007406 243.522549 
L 328.22493 292.512741 
L 328.333692 292.4341 
L 328.551216 267.223041 
L 328.986263 122.225047 
L 329.203787 88.976202 
L 329.42131 61.674597 
L 329.530072 56.097625 
L 329.638834 71.160692 
L 330.291405 263.02229 
L 330.508928 286.254212 
L 330.61769 285.533334 
L 330.726452 279.392767 
L 330.835214 259.614505 
L 331.052738 173.309061 
L 331.270261 115.422583 
L 331.379023 109.023155 
L 331.596547 59.833082 
L 331.705309 58.715722 
L 331.81407 63.955192 
L 331.922832 79.588408 
L 332.35788 222.001073 
L 332.792927 287.535408 
L 333.010451 277.020424 
L 333.119212 260.594243 
L 333.55426 117.66058 
L 333.663021 108.901916 
L 333.989307 58.637081 
L 334.098069 56.825056 
L 334.206831 73.270898 
L 334.533116 187.048335 
L 334.968163 278.209872 
L 335.076925 290.304234 
L 335.185687 290.169889 
L 335.294449 288.194028 
L 335.403211 269.690409 
L 335.838258 132.137115 
L 336.273305 61.759792 
L 336.382067 59.570945 
L 336.490829 63.951915 
L 336.708353 121.101133 
L 337.1434 240.111486 
L 337.469685 286.149357 
L 337.578447 291.080816 
L 337.795971 265.653494 
L 338.231018 128.205055 
L 338.666066 64.823522 
L 338.774827 67.087733 
L 338.883589 72.566404 
L 338.992351 89.176081 
L 339.53616 242.401911 
L 339.862446 287.440384 
L 340.079969 278.016546 
L 340.188731 261.108688 
L 340.623779 118.09966 
L 340.73254 110.386269 
L 341.058826 63.869998 
L 341.167588 57.123238 
L 341.27635 69.981074 
L 341.493873 144.355992 
L 341.820159 236.677487 
L 341.92892 245.15763 
L 342.146444 293.037016 
L 342.255206 292.896117 
L 342.363968 288.554467 
L 342.47273 268.618922 
L 342.907777 129.761495 
L 343.342824 65.383841 
L 343.451586 65.462482 
L 343.560348 72.34031 
L 343.995395 203.264806 
L 344.321681 269.405334 
L 344.539204 292.211283 
L 344.647966 293.947943 
L 344.756728 273.448803 
L 345.191775 128.375444 
L 345.626823 60.003472 
L 345.844346 72.009362 
L 345.953108 89.1171 
L 346.388156 233.938152 
L 346.496917 243.207984 
L 346.714441 290.605692 
L 346.823203 292.427547 
L 346.931965 290.664673 
L 347.149488 235.271776 
L 347.584536 111.277536 
L 347.910821 64.397549 
L 348.019583 65.242942 
L 348.128345 71.832419 
L 348.237107 89.330087 
L 348.780916 241.608946 
L 349.107201 291.719776 
L 349.215963 292.837136 
L 349.433487 261.393762 
L 349.759772 139.742375 
L 350.19482 58.384774 
L 350.303581 58.899218 
L 350.521105 78.382576 
L 350.956152 221.663571 
L 351.3912 286.598267 
L 351.499962 284.18005 
L 351.608723 278.232809 
L 351.717485 260.862934 
L 352.152532 121.101133 
L 352.370056 87.629471 
L 352.58758 59.495581 
L 352.696342 56.349933 
L 352.913865 108.000819 
L 353.348913 238.895824 
L 353.675198 285.562825 
L 353.78396 284.055535 
L 353.892722 278.186935 
L 354.001484 261.28563 
L 354.436531 117.909611 
L 354.545293 108.856042 
L 354.762816 69.014443 
L 354.871578 58.715722 
L 354.98034 59.649586 
L 355.089102 73.863984 
L 355.524149 225.408858 
L 356.067958 293.938113 
L 356.17672 279.638521 
L 356.394244 202.098295 
L 356.503006 181.232163 
L 356.720529 111.493799 
L 357.046815 64.433593 
L 357.155577 64.908717 
L 357.264338 70.672462 
L 357.3731 88.85824 
L 357.808148 238.597643 
L 358.134433 286.716229 
L 358.243195 285.090978 
L 358.351957 278.763638 
L 358.460719 261.649346 
L 358.895766 115.022823 
L 359.11329 75.666178 
L 359.222051 58.669848 
L 359.330813 60.76367 
L 359.548337 88.297921 
L 360.092146 254.9288 
L 360.30967 289.983116 
L 360.527193 280.284034 
L 360.635955 262.370223 
L 361.071002 111.706786 
L 361.397288 61.86137 
L 361.50605 56.284398 
L 361.614812 72.576234 
L 362.049859 227.03411 
L 362.267383 268.858123 
L 362.484906 292.165409 
L 362.70243 263.061611 
L 363.246239 91.155218 
L 363.463763 61.261731 
L 363.681286 70.757656 
L 363.790048 93.717611 
L 364.116334 220.739537 
L 364.551381 291.533003 
L 364.660143 289.645614 
L 364.986428 181.592601 
L 365.312714 95.113492 
L 365.530237 64.731774 
L 365.638999 61.104449 
L 365.747761 71.603049 
L 366.509094 285.02872 
L 366.617856 292.22439 
L 366.726618 292.188346 
L 366.835379 271.708866 
L 367.270427 119.036801 
L 367.379189 108.731527 
L 367.596712 59.285871 
L 367.705474 61.497655 
L 367.922998 88.904114 
L 368.466807 260.237081 
L 368.68433 286.624481 
L 368.793092 286.614651 
L 368.901854 279.497622 
L 369.119378 196.511493 
L 369.445663 109.983233 
L 369.771949 60.616218 
L 369.989473 74.099907 
L 370.533282 241.566349 
L 370.859567 292.525848 
L 370.968329 293.482649 
L 371.185853 244.744764 
L 371.512138 128.670349 
L 371.947185 60.947166 
L 372.055947 57.542657 
L 372.164709 71.163969 
L 373.034804 288.233349 
L 373.143566 291.572323 
L 373.252327 279.438641 
L 374.01366 70.639694 
L 374.231184 56.094349 
L 374.339946 73.41835 
L 374.883755 242.840991 
L 375.21004 292.951821 
L 375.318802 286.483582 
L 375.427564 270.185193 
L 375.862611 118.617382 
L 376.080135 81.734657 
L 376.188897 62.595355 
L 376.297659 64.653133 
L 376.40642 71.865187 
L 376.515186 90.391743 
L 377.059049 263.071441 
L 377.276595 291.464192 
L 377.385367 293.046846 
L 377.602913 225.549757 
L 378.038004 95.238007 
L 378.255549 64.528618 
L 378.364322 57.965354 
L 378.473094 70.010565 
L 379.016958 242.451062 
L 379.234503 293.875855 
L 379.343276 289.694765 
L 379.560821 261.537937 
L 379.887139 136.328036 
L 380.213458 68.080579 
L 380.32223 59.459537 
L 380.431003 62.405305 
L 380.648548 127.297404 
L 380.974867 238.430531 
L 381.301185 290.071587 
L 381.409957 294.18059 
L 381.51873 279.061819 
L 381.953821 116.677565 
L 382.062594 108.24985 
L 382.280139 61.114279 
L 382.497685 71.956935 
L 383.259093 293.053399 
L 383.367866 285.723384 
L 383.476639 285.936371 
L 383.694184 220.523273 
L 384.129275 89.533243 
L 384.346821 65.688575 
L 384.455593 62.172658 
L 384.564366 70.7937 
L 385.217002 264.359191 
L 385.434548 293.2926 
L 385.54332 293.410562 
L 385.760866 225.08774 
L 386.087184 115.996008 
L 386.413502 62.238193 
L 386.522275 65.043062 
L 386.631048 72.107664 
L 386.73982 87.832627 
L 387.174911 237.119844 
L 387.392456 278.357325 
L 387.610002 289.258961 
L 387.718775 279.291189 
L 388.480184 72.697473 
L 388.697729 55.832211 
L 388.806502 73.139829 
L 389.350365 242.673879 
L 389.676683 292.817476 
L 389.785456 295.062027 
L 389.894229 276.863142 
L 390.438092 108.960897 
L 390.76441 59.816699 
L 390.873183 55.475049 
L 390.981956 75.279525 
L 391.417047 228.459482 
L 391.634592 267.472072 
L 391.852138 292.02451 
L 391.96091 290.818679 
L 392.178456 225.048419 
L 392.504774 117.814586 
L 392.613547 110.415759 
L 392.831092 59.443153 
L 392.939865 59.492304 
L 393.15741 86.751311 
L 393.592501 235.520806 
L 393.918819 286.375451 
L 394.136364 279.726992 
L 394.245137 261.108688 
L 394.571455 136.079005 
L 395.006546 62.615015 
L 395.115319 55.976387 
L 395.224091 71.550622 
L 395.659182 227.967974 
L 395.876728 266.410415 
L 395.9855 292.88301 
L 396.094273 292.470144 
L 396.311819 261.059537 
L 396.855682 92.941029 
L 397.073228 65.75411 
L 397.182 63.863444 
L 397.290773 69.732044 
L 397.508318 150.77508 
L 397.943409 263.130422 
L 398.160955 292.090045 
L 398.269727 295.488 
L 398.3785 277.964119 
L 398.487273 228.872348 
L 398.487273 228.872348 
" style="fill:none;stroke:#1f77b4;stroke-linecap:square;stroke-width:1.5;"/>
   </g>
   <g id="patch_3">
    <path d="M 57.6 307.584 
L 57.6 41.472 
" style="fill:none;stroke:#000000;stroke-linecap:square;stroke-linejoin:miter;stroke-width:0.8;"/>
   </g>
   <g id="patch_4">
    <path d="M 414.72 307.584 
L 414.72 41.472 
" style="fill:none;stroke:#000000;stroke-linecap:square;stroke-linejoin:miter;stroke-width:0.8;"/>
   </g>
   <g id="patch_5">
    <path d="M 57.6 307.584 
L 414.72 307.584 
" style="fill:none;stroke:#000000;stroke-linecap:square;stroke-linejoin:miter;stroke-width:0.8;"/>
   </g>
   <g id="patch_6">
    <path d="M 57.6 41.472 
L 414.72 41.472 
" style="fill:none;stroke:#000000;stroke-linecap:square;stroke-linejoin:miter;stroke-width:0.8;"/>
   </g>
   <g id="text_18">
    <!-- Current with source voltage 100.0 mV -->
    <defs>
     <path d="M 4.203125 54.6875 
L 13.1875 54.6875 
L 24.421875 12.015625 
L 35.59375 54.6875 
L 46.1875 54.6875 
L 57.421875 12.015625 
L 68.609375 54.6875 
L 77.59375 54.6875 
L 63.28125 0 
L 52.6875 0 
L 40.921875 44.828125 
L 29.109375 0 
L 18.5 0 
z
" id="DejaVuSans-77"/>
     <path d="M 9.421875 54.6875 
L 18.40625 54.6875 
L 18.40625 0 
L 9.421875 0 
z
M 9.421875 75.984375 
L 18.40625 75.984375 
L 18.40625 64.59375 
L 9.421875 64.59375 
z
" id="DejaVuSans-69"/>
     <path d="M 54.890625 33.015625 
L 54.890625 0 
L 45.90625 0 
L 45.90625 32.71875 
Q 45.90625 40.484375 42.875 44.328125 
Q 39.84375 48.1875 33.796875 48.1875 
Q 26.515625 48.1875 22.3125 43.546875 
Q 18.109375 38.921875 18.109375 30.90625 
L 18.109375 0 
L 9.078125 0 
L 9.078125 75.984375 
L 18.109375 75.984375 
L 18.109375 46.1875 
Q 21.34375 51.125 25.703125 53.5625 
Q 30.078125 56 35.796875 56 
Q 45.21875 56 50.046875 50.171875 
Q 54.890625 44.34375 54.890625 33.015625 
z
" id="DejaVuSans-68"/>
     <path d="M 30.609375 48.390625 
Q 23.390625 48.390625 19.1875 42.75 
Q 14.984375 37.109375 14.984375 27.296875 
Q 14.984375 17.484375 19.15625 11.84375 
Q 23.34375 6.203125 30.609375 6.203125 
Q 37.796875 6.203125 41.984375 11.859375 
Q 46.1875 17.53125 46.1875 27.296875 
Q 46.1875 37.015625 41.984375 42.703125 
Q 37.796875 48.390625 30.609375 48.390625 
z
M 30.609375 56 
Q 42.328125 56 49.015625 48.375 
Q 55.71875 40.765625 55.71875 27.296875 
Q 55.71875 13.875 49.015625 6.21875 
Q 42.328125 -1.421875 30.609375 -1.421875 
Q 18.84375 -1.421875 12.171875 6.21875 
Q 5.515625 13.875 5.515625 27.296875 
Q 5.515625 40.765625 12.171875 48.375 
Q 18.84375 56 30.609375 56 
z
" id="DejaVuSans-6f"/>
     <path d="M 48.78125 52.59375 
L 48.78125 44.1875 
Q 44.96875 46.296875 41.140625 47.34375 
Q 37.3125 48.390625 33.40625 48.390625 
Q 24.65625 48.390625 19.8125 42.84375 
Q 14.984375 37.3125 14.984375 27.296875 
Q 14.984375 17.28125 19.8125 11.734375 
Q 24.65625 6.203125 33.40625 6.203125 
Q 37.3125 6.203125 41.140625 7.25 
Q 44.96875 8.296875 48.78125 10.40625 
L 48.78125 2.09375 
Q 45.015625 0.34375 40.984375 -0.53125 
Q 36.96875 -1.421875 32.421875 -1.421875 
Q 20.0625 -1.421875 12.78125 6.34375 
Q 5.515625 14.109375 5.515625 27.296875 
Q 5.515625 40.671875 12.859375 48.328125 
Q 20.21875 56 33.015625 56 
Q 37.15625 56 41.109375 55.140625 
Q 45.0625 54.296875 48.78125 52.59375 
z
" id="DejaVuSans-63"/>
     <path d="M 2.984375 54.6875 
L 12.5 54.6875 
L 29.59375 8.796875 
L 46.6875 54.6875 
L 56.203125 54.6875 
L 35.6875 0 
L 23.484375 0 
z
" id="DejaVuSans-76"/>
     <path d="M 9.421875 75.984375 
L 18.40625 75.984375 
L 18.40625 0 
L 9.421875 0 
z
" id="DejaVuSans-6c"/>
     <path d="M 34.28125 27.484375 
Q 23.390625 27.484375 19.1875 25 
Q 14.984375 22.515625 14.984375 16.5 
Q 14.984375 11.71875 18.140625 8.90625 
Q 21.296875 6.109375 26.703125 6.109375 
Q 34.1875 6.109375 38.703125 11.40625 
Q 43.21875 16.703125 43.21875 25.484375 
L 43.21875 27.484375 
z
M 52.203125 31.203125 
L 52.203125 0 
L 43.21875 0 
L 43.21875 8.296875 
Q 40.140625 3.328125 35.546875 0.953125 
Q 30.953125 -1.421875 24.3125 -1.421875 
Q 15.921875 -1.421875 10.953125 3.296875 
Q 6 8.015625 6 15.921875 
Q 6 25.140625 12.171875 29.828125 
Q 18.359375 34.515625 30.609375 34.515625 
L 43.21875 34.515625 
L 43.21875 35.40625 
Q 43.21875 41.609375 39.140625 45 
Q 35.0625 48.390625 27.6875 48.390625 
Q 23 48.390625 18.546875 47.265625 
Q 14.109375 46.140625 10.015625 43.890625 
L 10.015625 52.203125 
Q 14.9375 54.109375 19.578125 55.046875 
Q 24.21875 56 28.609375 56 
Q 40.484375 56 46.34375 49.84375 
Q 52.203125 43.703125 52.203125 31.203125 
z
" id="DejaVuSans-61"/>
     <path d="M 45.40625 27.984375 
Q 45.40625 37.75 41.375 43.109375 
Q 37.359375 48.484375 30.078125 48.484375 
Q 22.859375 48.484375 18.828125 43.109375 
Q 14.796875 37.75 14.796875 27.984375 
Q 14.796875 18.265625 18.828125 12.890625 
Q 22.859375 7.515625 30.078125 7.515625 
Q 37.359375 7.515625 41.375 12.890625 
Q 45.40625 18.265625 45.40625 27.984375 
z
M 54.390625 6.78125 
Q 54.390625 -7.171875 48.1875 -13.984375 
Q 42 -20.796875 29.203125 -20.796875 
Q 24.46875 -20.796875 20.265625 -20.09375 
Q 16.0625 -19.390625 12.109375 -17.921875 
L 12.109375 -9.1875 
Q 16.0625 -11.328125 19.921875 -12.34375 
Q 23.78125 -13.375 27.78125 -13.375 
Q 36.625 -13.375 41.015625 -8.765625 
Q 45.40625 -4.15625 45.40625 5.171875 
L 45.40625 9.625 
Q 42.625 4.78125 38.28125 2.390625 
Q 33.9375 0 27.875 0 
Q 17.828125 0 11.671875 7.65625 
Q 5.515625 15.328125 5.515625 27.984375 
Q 5.515625 40.671875 11.671875 48.328125 
Q 17.828125 56 27.875 56 
Q 33.9375 56 38.28125 53.609375 
Q 42.625 51.21875 45.40625 46.390625 
L 45.40625 54.6875 
L 54.390625 54.6875 
z
" id="DejaVuSans-67"/>
     <path d="M 10.6875 12.40625 
L 21 12.40625 
L 21 0 
L 10.6875 0 
z
" id="DejaVuSans-2e"/>
     <path d="M 52 44.1875 
Q 55.375 50.25 60.0625 53.125 
Q 64.75 56 71.09375 56 
Q 79.640625 56 84.28125 50.015625 
Q 88.921875 44.046875 88.921875 33.015625 
L 88.921875 0 
L 79.890625 0 
L 79.890625 32.71875 
Q 79.890625 40.578125 77.09375 44.375 
Q 74.3125 48.1875 68.609375 48.1875 
Q 61.625 48.1875 57.5625 43.546875 
Q 53.515625 38.921875 53.515625 30.90625 
L 53.515625 0 
L 44.484375 0 
L 44.484375 32.71875 
Q 44.484375 40.625 41.703125 44.40625 
Q 38.921875 48.1875 33.109375 48.1875 
Q 26.21875 48.1875 22.15625 43.53125 
Q 18.109375 38.875 18.109375 30.90625 
L 18.109375 0 
L 9.078125 0 
L 9.078125 54.6875 
L 18.109375 54.6875 
L 18.109375 46.1875 
Q 21.1875 51.21875 25.484375 53.609375 
Q 29.78125 56 35.6875 56 
Q 41.65625 56 45.828125 52.96875 
Q 50 49.953125 52 44.1875 
z
" id="DejaVuSans-6d"/>
     <path d="M 28.609375 0 
L 0.78125 72.90625 
L 11.078125 72.90625 
L 34.1875 11.53125 
L 57.328125 72.90625 
L 67.578125 72.90625 
L 39.796875 0 
z
" id="DejaVuSans-56"/>
    </defs>
    <g transform="translate(121.528125 35.472)scale(0.12 -0.12)">
     <use xlink:href="#DejaVuSans-43"/>
     <use x="69.824219" xlink:href="#DejaVuSans-75"/>
     <use x="133.203125" xlink:href="#DejaVuSans-72"/>
     <use x="174.300781" xlink:href="#DejaVuSans-72"/>
     <use x="215.382812" xlink:href="#DejaVuSans-65"/>
     <use x="276.90625" xlink:href="#DejaVuSans-6e"/>
     <use x="340.285156" xlink:href="#DejaVuSans-74"/>
     <use x="379.494141" xlink:href="#DejaVuSans-20"/>
     <use x="411.28125" xlink:href="#DejaVuSans-77"/>
     <use x="493.068359" xlink:href="#DejaVuSans-69"/>
     <use x="520.851562" xlink:href="#DejaVuSans-74"/>
     <use x="560.060547" xlink:href="#DejaVuSans-68"/>
     <use x="623.439453" xlink:href="#DejaVuSans-20"/>
     <use x="655.226562" xlink:href="#DejaVuSans-73"/>
     <use x="707.326172" xlink:href="#DejaVuSans-6f"/>
     <use x="768.507812" xlink:href="#DejaVuSans-75"/>
     <use x="831.886719" xlink:href="#DejaVuSans-72"/>
     <use x="872.96875" xlink:href="#DejaVuSans-63"/>
     <use x="927.949219" xlink:href="#DejaVuSans-65"/>
     <use x="989.472656" xlink:href="#DejaVuSans-20"/>
     <use x="1021.259766" xlink:href="#DejaVuSans-76"/>
     <use x="1080.439453" xlink:href="#DejaVuSans-6f"/>
     <use x="1141.621094" xlink:href="#DejaVuSans-6c"/>
     <use x="1169.404297" xlink:href="#DejaVuSans-74"/>
     <use x="1208.613281" xlink:href="#DejaVuSans-61"/>
     <use x="1269.892578" xlink:href="#DejaVuSans-67"/>
     <use x="1333.369141" xlink:href="#DejaVuSans-65"/>
     <use x="1394.892578" xlink:href="#DejaVuSans-20"/>
     <use x="1426.679688" xlink:href="#DejaVuSans-31"/>
     <use x="1490.302734" xlink:href="#DejaVuSans-30"/>
     <use x="1553.925781" xlink:href="#DejaVuSans-30"/>
     <use x="1617.548828" xlink:href="#DejaVuSans-2e"/>
     <use x="1649.335938" xlink:href="#DejaVuSans-30"/>
     <use x="1712.958984" xlink:href="#DejaVuSans-20"/>
     <use x="1744.746094" xlink:href="#DejaVuSans-6d"/>
     <use x="1842.158203" xlink:href="#DejaVuSans-56"/>
    </g>
   </g>
  </g>
 </g>
 <defs>
  <clipPath id="pfa0011c552">
   <rect height="266.112" width="357.12" x="57.6" y="41.472"/>
  </clipPath>
 </defs>
</svg>
