<?xml version="1.0" encoding="utf-8" standalone="no"?>
<!DOCTYPE svg PUBLIC "-//W3C//DTD SVG 1.1//EN"
  "http://www.w3.org/Graphics/SVG/1.1/DTD/svg11.dtd">
<!-- Created with matplotlib (http://matplotlib.org/) -->
<svg height="345pt" version="1.1" viewBox="0 0 460 345" width="460pt" xmlns="http://www.w3.org/2000/svg" xmlns:xlink="http://www.w3.org/1999/xlink">
 <defs>
  <style type="text/css">
*{stroke-linecap:butt;stroke-linejoin:round;}
  </style>
 </defs>
 <g id="figure_1">
  <g id="patch_1">
   <path d="M 0 345.6 
L 460.8 345.6 
L 460.8 0 
L 0 0 
z
" style="fill:#ffffff;"/>
  </g>
  <g id="axes_1">
   <g id="patch_2">
    <path d="M 57.6 307.584 
L 414.72 307.584 
L 414.72 41.472 
L 57.6 41.472 
z
" style="fill:#ffffff;"/>
   </g>
   <g id="matplotlib.axis_1">
    <g id="xtick_1">
     <g id="line2d_1">
      <defs>
       <path d="M 0 0 
L 0 3.5 
" id="m7a0acc6493" style="stroke:#000000;stroke-width:0.8;"/>
      </defs>
      <g>
       <use style="stroke:#000000;stroke-width:0.8;" x="73.832727" xlink:href="#m7a0acc6493" y="307.584"/>
      </g>
     </g>
     <g id="text_1">
      <!-- 0 -->
      <defs>
       <path d="M 31.78125 66.40625 
Q 24.171875 66.40625 20.328125 58.90625 
Q 16.5 51.421875 16.5 36.375 
Q 16.5 21.390625 20.328125 13.890625 
Q 24.171875 6.390625 31.78125 6.390625 
Q 39.453125 6.390625 43.28125 13.890625 
Q 47.125 21.390625 47.125 36.375 
Q 47.125 51.421875 43.28125 58.90625 
Q 39.453125 66.40625 31.78125 66.40625 
z
M 31.78125 74.21875 
Q 44.046875 74.21875 50.515625 64.515625 
Q 56.984375 54.828125 56.984375 36.375 
Q 56.984375 17.96875 50.515625 8.265625 
Q 44.046875 -1.421875 31.78125 -1.421875 
Q 19.53125 -1.421875 13.0625 8.265625 
Q 6.59375 17.96875 6.59375 36.375 
Q 6.59375 54.828125 13.0625 64.515625 
Q 19.53125 74.21875 31.78125 74.21875 
z
" id="DejaVuSans-30"/>
      </defs>
      <g transform="translate(70.651477 322.182437)scale(0.1 -0.1)">
       <use xlink:href="#DejaVuSans-30"/>
      </g>
     </g>
    </g>
    <g id="xtick_2">
     <g id="line2d_2">
      <g>
       <use style="stroke:#000000;stroke-width:0.8;" x="127.950297" xlink:href="#m7a0acc6493" y="307.584"/>
      </g>
     </g>
     <g id="text_2">
      <!-- 100 -->
      <defs>
       <path d="M 12.40625 8.296875 
L 28.515625 8.296875 
L 28.515625 63.921875 
L 10.984375 60.40625 
L 10.984375 69.390625 
L 28.421875 72.90625 
L 38.28125 72.90625 
L 38.28125 8.296875 
L 54.390625 8.296875 
L 54.390625 0 
L 12.40625 0 
z
" id="DejaVuSans-31"/>
      </defs>
      <g transform="translate(118.406547 322.182437)scale(0.1 -0.1)">
       <use xlink:href="#DejaVuSans-31"/>
       <use x="63.623047" xlink:href="#DejaVuSans-30"/>
       <use x="127.246094" xlink:href="#DejaVuSans-30"/>
      </g>
     </g>
    </g>
    <g id="xtick_3">
     <g id="line2d_3">
      <g>
       <use style="stroke:#000000;stroke-width:0.8;" x="182.067866" xlink:href="#m7a0acc6493" y="307.584"/>
      </g>
     </g>
     <g id="text_3">
      <!-- 200 -->
      <defs>
       <path d="M 19.1875 8.296875 
L 53.609375 8.296875 
L 53.609375 0 
L 7.328125 0 
L 7.328125 8.296875 
Q 12.9375 14.109375 22.625 23.890625 
Q 32.328125 33.6875 34.8125 36.53125 
Q 39.546875 41.84375 41.421875 45.53125 
Q 43.3125 49.21875 43.3125 52.78125 
Q 43.3125 58.59375 39.234375 62.25 
Q 35.15625 65.921875 28.609375 65.921875 
Q 23.96875 65.921875 18.8125 64.3125 
Q 13.671875 62.703125 7.8125 59.421875 
L 7.8125 69.390625 
Q 13.765625 71.78125 18.9375 73 
Q 24.125 74.21875 28.421875 74.21875 
Q 39.75 74.21875 46.484375 68.546875 
Q 53.21875 62.890625 53.21875 53.421875 
Q 53.21875 48.921875 51.53125 44.890625 
Q 49.859375 40.875 45.40625 35.40625 
Q 44.1875 33.984375 37.640625 27.21875 
Q 31.109375 20.453125 19.1875 8.296875 
z
" id="DejaVuSans-32"/>
      </defs>
      <g transform="translate(172.524116 322.182437)scale(0.1 -0.1)">
       <use xlink:href="#DejaVuSans-32"/>
       <use x="63.623047" xlink:href="#DejaVuSans-30"/>
       <use x="127.246094" xlink:href="#DejaVuSans-30"/>
      </g>
     </g>
    </g>
    <g id="xtick_4">
     <g id="line2d_4">
      <g>
       <use style="stroke:#000000;stroke-width:0.8;" x="236.185435" xlink:href="#m7a0acc6493" y="307.584"/>
      </g>
     </g>
     <g id="text_4">
      <!-- 300 -->
      <defs>
       <path d="M 40.578125 39.3125 
Q 47.65625 37.796875 51.625 33 
Q 55.609375 28.21875 55.609375 21.1875 
Q 55.609375 10.40625 48.1875 4.484375 
Q 40.765625 -1.421875 27.09375 -1.421875 
Q 22.515625 -1.421875 17.65625 -0.515625 
Q 12.796875 0.390625 7.625 2.203125 
L 7.625 11.71875 
Q 11.71875 9.328125 16.59375 8.109375 
Q 21.484375 6.890625 26.8125 6.890625 
Q 36.078125 6.890625 40.9375 10.546875 
Q 45.796875 14.203125 45.796875 21.1875 
Q 45.796875 27.640625 41.28125 31.265625 
Q 36.765625 34.90625 28.71875 34.90625 
L 20.21875 34.90625 
L 20.21875 43.015625 
L 29.109375 43.015625 
Q 36.375 43.015625 40.234375 45.921875 
Q 44.09375 48.828125 44.09375 54.296875 
Q 44.09375 59.90625 40.109375 62.90625 
Q 36.140625 65.921875 28.71875 65.921875 
Q 24.65625 65.921875 20.015625 65.03125 
Q 15.375 64.15625 9.8125 62.3125 
L 9.8125 71.09375 
Q 15.4375 72.65625 20.34375 73.4375 
Q 25.25 74.21875 29.59375 74.21875 
Q 40.828125 74.21875 47.359375 69.109375 
Q 53.90625 64.015625 53.90625 55.328125 
Q 53.90625 49.265625 50.4375 45.09375 
Q 46.96875 40.921875 40.578125 39.3125 
z
" id="DejaVuSans-33"/>
      </defs>
      <g transform="translate(226.641685 322.182437)scale(0.1 -0.1)">
       <use xlink:href="#DejaVuSans-33"/>
       <use x="63.623047" xlink:href="#DejaVuSans-30"/>
       <use x="127.246094" xlink:href="#DejaVuSans-30"/>
      </g>
     </g>
    </g>
    <g id="xtick_5">
     <g id="line2d_5">
      <g>
       <use style="stroke:#000000;stroke-width:0.8;" x="290.303005" xlink:href="#m7a0acc6493" y="307.584"/>
      </g>
     </g>
     <g id="text_5">
      <!-- 400 -->
      <defs>
       <path d="M 37.796875 64.3125 
L 12.890625 25.390625 
L 37.796875 25.390625 
z
M 35.203125 72.90625 
L 47.609375 72.90625 
L 47.609375 25.390625 
L 58.015625 25.390625 
L 58.015625 17.1875 
L 47.609375 17.1875 
L 47.609375 0 
L 37.796875 0 
L 37.796875 17.1875 
L 4.890625 17.1875 
L 4.890625 26.703125 
z
" id="DejaVuSans-34"/>
      </defs>
      <g transform="translate(280.759255 322.182437)scale(0.1 -0.1)">
       <use xlink:href="#DejaVuSans-34"/>
       <use x="63.623047" xlink:href="#DejaVuSans-30"/>
       <use x="127.246094" xlink:href="#DejaVuSans-30"/>
      </g>
     </g>
    </g>
    <g id="xtick_6">
     <g id="line2d_6">
      <g>
       <use style="stroke:#000000;stroke-width:0.8;" x="344.420574" xlink:href="#m7a0acc6493" y="307.584"/>
      </g>
     </g>
     <g id="text_6">
      <!-- 500 -->
      <defs>
       <path d="M 10.796875 72.90625 
L 49.515625 72.90625 
L 49.515625 64.59375 
L 19.828125 64.59375 
L 19.828125 46.734375 
Q 21.96875 47.46875 24.109375 47.828125 
Q 26.265625 48.1875 28.421875 48.1875 
Q 40.625 48.1875 47.75 41.5 
Q 54.890625 34.8125 54.890625 23.390625 
Q 54.890625 11.625 47.5625 5.09375 
Q 40.234375 -1.421875 26.90625 -1.421875 
Q 22.3125 -1.421875 17.546875 -0.640625 
Q 12.796875 0.140625 7.71875 1.703125 
L 7.71875 11.625 
Q 12.109375 9.234375 16.796875 8.0625 
Q 21.484375 6.890625 26.703125 6.890625 
Q 35.15625 6.890625 40.078125 11.328125 
Q 45.015625 15.765625 45.015625 23.390625 
Q 45.015625 31 40.078125 35.4375 
Q 35.15625 39.890625 26.703125 39.890625 
Q 22.75 39.890625 18.8125 39.015625 
Q 14.890625 38.140625 10.796875 36.28125 
z
" id="DejaVuSans-35"/>
      </defs>
      <g transform="translate(334.876824 322.182437)scale(0.1 -0.1)">
       <use xlink:href="#DejaVuSans-35"/>
       <use x="63.623047" xlink:href="#DejaVuSans-30"/>
       <use x="127.246094" xlink:href="#DejaVuSans-30"/>
      </g>
     </g>
    </g>
    <g id="xtick_7">
     <g id="line2d_7">
      <g>
       <use style="stroke:#000000;stroke-width:0.8;" x="398.538143" xlink:href="#m7a0acc6493" y="307.584"/>
      </g>
     </g>
     <g id="text_7">
      <!-- 600 -->
      <defs>
       <path d="M 33.015625 40.375 
Q 26.375 40.375 22.484375 35.828125 
Q 18.609375 31.296875 18.609375 23.390625 
Q 18.609375 15.53125 22.484375 10.953125 
Q 26.375 6.390625 33.015625 6.390625 
Q 39.65625 6.390625 43.53125 10.953125 
Q 47.40625 15.53125 47.40625 23.390625 
Q 47.40625 31.296875 43.53125 35.828125 
Q 39.65625 40.375 33.015625 40.375 
z
M 52.59375 71.296875 
L 52.59375 62.3125 
Q 48.875 64.0625 45.09375 64.984375 
Q 41.3125 65.921875 37.59375 65.921875 
Q 27.828125 65.921875 22.671875 59.328125 
Q 17.53125 52.734375 16.796875 39.40625 
Q 19.671875 43.65625 24.015625 45.921875 
Q 28.375 48.1875 33.59375 48.1875 
Q 44.578125 48.1875 50.953125 41.515625 
Q 57.328125 34.859375 57.328125 23.390625 
Q 57.328125 12.15625 50.6875 5.359375 
Q 44.046875 -1.421875 33.015625 -1.421875 
Q 20.359375 -1.421875 13.671875 8.265625 
Q 6.984375 17.96875 6.984375 36.375 
Q 6.984375 53.65625 15.1875 63.9375 
Q 23.390625 74.21875 37.203125 74.21875 
Q 40.921875 74.21875 44.703125 73.484375 
Q 48.484375 72.75 52.59375 71.296875 
z
" id="DejaVuSans-36"/>
      </defs>
      <g transform="translate(388.994393 322.182437)scale(0.1 -0.1)">
       <use xlink:href="#DejaVuSans-36"/>
       <use x="63.623047" xlink:href="#DejaVuSans-30"/>
       <use x="127.246094" xlink:href="#DejaVuSans-30"/>
      </g>
     </g>
    </g>
    <g id="text_8">
     <!-- t(s) -->
     <defs>
      <path d="M 18.3125 70.21875 
L 18.3125 54.6875 
L 36.8125 54.6875 
L 36.8125 47.703125 
L 18.3125 47.703125 
L 18.3125 18.015625 
Q 18.3125 11.328125 20.140625 9.421875 
Q 21.96875 7.515625 27.59375 7.515625 
L 36.8125 7.515625 
L 36.8125 0 
L 27.59375 0 
Q 17.1875 0 13.234375 3.875 
Q 9.28125 7.765625 9.28125 18.015625 
L 9.28125 47.703125 
L 2.6875 47.703125 
L 2.6875 54.6875 
L 9.28125 54.6875 
L 9.28125 70.21875 
z
" id="DejaVuSans-74"/>
      <path d="M 31 75.875 
Q 24.46875 64.65625 21.28125 53.65625 
Q 18.109375 42.671875 18.109375 31.390625 
Q 18.109375 20.125 21.3125 9.0625 
Q 24.515625 -2 31 -13.1875 
L 23.1875 -13.1875 
Q 15.875 -1.703125 12.234375 9.375 
Q 8.59375 20.453125 8.59375 31.390625 
Q 8.59375 42.28125 12.203125 53.3125 
Q 15.828125 64.359375 23.1875 75.875 
z
" id="DejaVuSans-28"/>
      <path d="M 44.28125 53.078125 
L 44.28125 44.578125 
Q 40.484375 46.53125 36.375 47.5 
Q 32.28125 48.484375 27.875 48.484375 
Q 21.1875 48.484375 17.84375 46.4375 
Q 14.5 44.390625 14.5 40.28125 
Q 14.5 37.15625 16.890625 35.375 
Q 19.28125 33.59375 26.515625 31.984375 
L 29.59375 31.296875 
Q 39.15625 29.25 43.1875 25.515625 
Q 47.21875 21.78125 47.21875 15.09375 
Q 47.21875 7.46875 41.1875 3.015625 
Q 35.15625 -1.421875 24.609375 -1.421875 
Q 20.21875 -1.421875 15.453125 -0.5625 
Q 10.6875 0.296875 5.421875 2 
L 5.421875 11.28125 
Q 10.40625 8.6875 15.234375 7.390625 
Q 20.0625 6.109375 24.8125 6.109375 
Q 31.15625 6.109375 34.5625 8.28125 
Q 37.984375 10.453125 37.984375 14.40625 
Q 37.984375 18.0625 35.515625 20.015625 
Q 33.0625 21.96875 24.703125 23.78125 
L 21.578125 24.515625 
Q 13.234375 26.265625 9.515625 29.90625 
Q 5.8125 33.546875 5.8125 39.890625 
Q 5.8125 47.609375 11.28125 51.796875 
Q 16.75 56 26.8125 56 
Q 31.78125 56 36.171875 55.265625 
Q 40.578125 54.546875 44.28125 53.078125 
z
" id="DejaVuSans-73"/>
      <path d="M 8.015625 75.875 
L 15.828125 75.875 
Q 23.140625 64.359375 26.78125 53.3125 
Q 30.421875 42.28125 30.421875 31.390625 
Q 30.421875 20.453125 26.78125 9.375 
Q 23.140625 -1.703125 15.828125 -13.1875 
L 8.015625 -13.1875 
Q 14.5 -2 17.703125 9.0625 
Q 20.90625 20.125 20.90625 31.390625 
Q 20.90625 42.671875 17.703125 53.65625 
Q 14.5 64.65625 8.015625 75.875 
z
" id="DejaVuSans-29"/>
     </defs>
     <g transform="translate(227.693594 335.860562)scale(0.1 -0.1)">
      <use xlink:href="#DejaVuSans-74"/>
      <use x="39.208984" xlink:href="#DejaVuSans-28"/>
      <use x="78.222656" xlink:href="#DejaVuSans-73"/>
      <use x="130.322266" xlink:href="#DejaVuSans-29"/>
     </g>
    </g>
   </g>
   <g id="matplotlib.axis_2">
    <g id="ytick_1">
     <g id="line2d_8">
      <defs>
       <path d="M 0 0 
L -3.5 0 
" id="m6ef42e6814" style="stroke:#000000;stroke-width:0.8;"/>
      </defs>
      <g>
       <use style="stroke:#000000;stroke-width:0.8;" x="57.6" xlink:href="#m6ef42e6814" y="289.539148"/>
      </g>
     </g>
     <g id="text_9">
      <!-- −0.000006 -->
      <defs>
       <path d="M 10.59375 35.5 
L 73.1875 35.5 
L 73.1875 27.203125 
L 10.59375 27.203125 
z
" id="DejaVuSans-2212"/>
       <path d="M 10.6875 12.40625 
L 21 12.40625 
L 21 0 
L 10.6875 0 
z
" id="DejaVuSans-2e"/>
      </defs>
      <g transform="translate(-5.495313 293.338366)scale(0.1 -0.1)">
       <use xlink:href="#DejaVuSans-2212"/>
       <use x="83.789062" xlink:href="#DejaVuSans-30"/>
       <use x="147.412109" xlink:href="#DejaVuSans-2e"/>
       <use x="179.199219" xlink:href="#DejaVuSans-30"/>
       <use x="242.822266" xlink:href="#DejaVuSans-30"/>
       <use x="306.445312" xlink:href="#DejaVuSans-30"/>
       <use x="370.068359" xlink:href="#DejaVuSans-30"/>
       <use x="433.691406" xlink:href="#DejaVuSans-30"/>
       <use x="497.314453" xlink:href="#DejaVuSans-36"/>
      </g>
     </g>
    </g>
    <g id="ytick_2">
     <g id="line2d_9">
      <g>
       <use style="stroke:#000000;stroke-width:0.8;" x="57.6" xlink:href="#m6ef42e6814" y="249.880131"/>
      </g>
     </g>
     <g id="text_10">
      <!-- −0.000004 -->
      <g transform="translate(-5.495313 253.67935)scale(0.1 -0.1)">
       <use xlink:href="#DejaVuSans-2212"/>
       <use x="83.789062" xlink:href="#DejaVuSans-30"/>
       <use x="147.412109" xlink:href="#DejaVuSans-2e"/>
       <use x="179.199219" xlink:href="#DejaVuSans-30"/>
       <use x="242.822266" xlink:href="#DejaVuSans-30"/>
       <use x="306.445312" xlink:href="#DejaVuSans-30"/>
       <use x="370.068359" xlink:href="#DejaVuSans-30"/>
       <use x="433.691406" xlink:href="#DejaVuSans-30"/>
       <use x="497.314453" xlink:href="#DejaVuSans-34"/>
      </g>
     </g>
    </g>
    <g id="ytick_3">
     <g id="line2d_10">
      <g>
       <use style="stroke:#000000;stroke-width:0.8;" x="57.6" xlink:href="#m6ef42e6814" y="210.221115"/>
      </g>
     </g>
     <g id="text_11">
      <!-- −0.000002 -->
      <g transform="translate(-5.495313 214.020334)scale(0.1 -0.1)">
       <use xlink:href="#DejaVuSans-2212"/>
       <use x="83.789062" xlink:href="#DejaVuSans-30"/>
       <use x="147.412109" xlink:href="#DejaVuSans-2e"/>
       <use x="179.199219" xlink:href="#DejaVuSans-30"/>
       <use x="242.822266" xlink:href="#DejaVuSans-30"/>
       <use x="306.445312" xlink:href="#DejaVuSans-30"/>
       <use x="370.068359" xlink:href="#DejaVuSans-30"/>
       <use x="433.691406" xlink:href="#DejaVuSans-30"/>
       <use x="497.314453" xlink:href="#DejaVuSans-32"/>
      </g>
     </g>
    </g>
    <g id="ytick_4">
     <g id="line2d_11">
      <g>
       <use style="stroke:#000000;stroke-width:0.8;" x="57.6" xlink:href="#m6ef42e6814" y="170.562098"/>
      </g>
     </g>
     <g id="text_12">
      <!-- 0.000000 -->
      <g transform="translate(2.884375 174.361317)scale(0.1 -0.1)">
       <use xlink:href="#DejaVuSans-30"/>
       <use x="63.623047" xlink:href="#DejaVuSans-2e"/>
       <use x="95.410156" xlink:href="#DejaVuSans-30"/>
       <use x="159.033203" xlink:href="#DejaVuSans-30"/>
       <use x="222.65625" xlink:href="#DejaVuSans-30"/>
       <use x="286.279297" xlink:href="#DejaVuSans-30"/>
       <use x="349.902344" xlink:href="#DejaVuSans-30"/>
       <use x="413.525391" xlink:href="#DejaVuSans-30"/>
      </g>
     </g>
    </g>
    <g id="ytick_5">
     <g id="line2d_12">
      <g>
       <use style="stroke:#000000;stroke-width:0.8;" x="57.6" xlink:href="#m6ef42e6814" y="130.903082"/>
      </g>
     </g>
     <g id="text_13">
      <!-- 0.000002 -->
      <g transform="translate(2.884375 134.702301)scale(0.1 -0.1)">
       <use xlink:href="#DejaVuSans-30"/>
       <use x="63.623047" xlink:href="#DejaVuSans-2e"/>
       <use x="95.410156" xlink:href="#DejaVuSans-30"/>
       <use x="159.033203" xlink:href="#DejaVuSans-30"/>
       <use x="222.65625" xlink:href="#DejaVuSans-30"/>
       <use x="286.279297" xlink:href="#DejaVuSans-30"/>
       <use x="349.902344" xlink:href="#DejaVuSans-30"/>
       <use x="413.525391" xlink:href="#DejaVuSans-32"/>
      </g>
     </g>
    </g>
    <g id="ytick_6">
     <g id="line2d_13">
      <g>
       <use style="stroke:#000000;stroke-width:0.8;" x="57.6" xlink:href="#m6ef42e6814" y="91.244066"/>
      </g>
     </g>
     <g id="text_14">
      <!-- 0.000004 -->
      <g transform="translate(2.884375 95.043284)scale(0.1 -0.1)">
       <use xlink:href="#DejaVuSans-30"/>
       <use x="63.623047" xlink:href="#DejaVuSans-2e"/>
       <use x="95.410156" xlink:href="#DejaVuSans-30"/>
       <use x="159.033203" xlink:href="#DejaVuSans-30"/>
       <use x="222.65625" xlink:href="#DejaVuSans-30"/>
       <use x="286.279297" xlink:href="#DejaVuSans-30"/>
       <use x="349.902344" xlink:href="#DejaVuSans-30"/>
       <use x="413.525391" xlink:href="#DejaVuSans-34"/>
      </g>
     </g>
    </g>
    <g id="ytick_7">
     <g id="line2d_14">
      <g>
       <use style="stroke:#000000;stroke-width:0.8;" x="57.6" xlink:href="#m6ef42e6814" y="51.585049"/>
      </g>
     </g>
     <g id="text_15">
      <!-- 0.000006 -->
      <g transform="translate(2.884375 55.384268)scale(0.1 -0.1)">
       <use xlink:href="#DejaVuSans-30"/>
       <use x="63.623047" xlink:href="#DejaVuSans-2e"/>
       <use x="95.410156" xlink:href="#DejaVuSans-30"/>
       <use x="159.033203" xlink:href="#DejaVuSans-30"/>
       <use x="222.65625" xlink:href="#DejaVuSans-30"/>
       <use x="286.279297" xlink:href="#DejaVuSans-30"/>
       <use x="349.902344" xlink:href="#DejaVuSans-30"/>
       <use x="413.525391" xlink:href="#DejaVuSans-36"/>
      </g>
     </g>
    </g>
    <g id="text_16">
     <!-- Voltage (V) -->
     <defs>
      <path d="M 28.609375 0 
L 0.78125 72.90625 
L 11.078125 72.90625 
L 34.1875 11.53125 
L 57.328125 72.90625 
L 67.578125 72.90625 
L 39.796875 0 
z
" id="DejaVuSans-56"/>
      <path d="M 30.609375 48.390625 
Q 23.390625 48.390625 19.1875 42.75 
Q 14.984375 37.109375 14.984375 27.296875 
Q 14.984375 17.484375 19.15625 11.84375 
Q 23.34375 6.203125 30.609375 6.203125 
Q 37.796875 6.203125 41.984375 11.859375 
Q 46.1875 17.53125 46.1875 27.296875 
Q 46.1875 37.015625 41.984375 42.703125 
Q 37.796875 48.390625 30.609375 48.390625 
z
M 30.609375 56 
Q 42.328125 56 49.015625 48.375 
Q 55.71875 40.765625 55.71875 27.296875 
Q 55.71875 13.875 49.015625 6.21875 
Q 42.328125 -1.421875 30.609375 -1.421875 
Q 18.84375 -1.421875 12.171875 6.21875 
Q 5.515625 13.875 5.515625 27.296875 
Q 5.515625 40.765625 12.171875 48.375 
Q 18.84375 56 30.609375 56 
z
" id="DejaVuSans-6f"/>
      <path d="M 9.421875 75.984375 
L 18.40625 75.984375 
L 18.40625 0 
L 9.421875 0 
z
" id="DejaVuSans-6c"/>
      <path d="M 34.28125 27.484375 
Q 23.390625 27.484375 19.1875 25 
Q 14.984375 22.515625 14.984375 16.5 
Q 14.984375 11.71875 18.140625 8.90625 
Q 21.296875 6.109375 26.703125 6.109375 
Q 34.1875 6.109375 38.703125 11.40625 
Q 43.21875 16.703125 43.21875 25.484375 
L 43.21875 27.484375 
z
M 52.203125 31.203125 
L 52.203125 0 
L 43.21875 0 
L 43.21875 8.296875 
Q 40.140625 3.328125 35.546875 0.953125 
Q 30.953125 -1.421875 24.3125 -1.421875 
Q 15.921875 -1.421875 10.953125 3.296875 
Q 6 8.015625 6 15.921875 
Q 6 25.140625 12.171875 29.828125 
Q 18.359375 34.515625 30.609375 34.515625 
L 43.21875 34.515625 
L 43.21875 35.40625 
Q 43.21875 41.609375 39.140625 45 
Q 35.0625 48.390625 27.6875 48.390625 
Q 23 48.390625 18.546875 47.265625 
Q 14.109375 46.140625 10.015625 43.890625 
L 10.015625 52.203125 
Q 14.9375 54.109375 19.578125 55.046875 
Q 24.21875 56 28.609375 56 
Q 40.484375 56 46.34375 49.84375 
Q 52.203125 43.703125 52.203125 31.203125 
z
" id="DejaVuSans-61"/>
      <path d="M 45.40625 27.984375 
Q 45.40625 37.75 41.375 43.109375 
Q 37.359375 48.484375 30.078125 48.484375 
Q 22.859375 48.484375 18.828125 43.109375 
Q 14.796875 37.75 14.796875 27.984375 
Q 14.796875 18.265625 18.828125 12.890625 
Q 22.859375 7.515625 30.078125 7.515625 
Q 37.359375 7.515625 41.375 12.890625 
Q 45.40625 18.265625 45.40625 27.984375 
z
M 54.390625 6.78125 
Q 54.390625 -7.171875 48.1875 -13.984375 
Q 42 -20.796875 29.203125 -20.796875 
Q 24.46875 -20.796875 20.265625 -20.09375 
Q 16.0625 -19.390625 12.109375 -17.921875 
L 12.109375 -9.1875 
Q 16.0625 -11.328125 19.921875 -12.34375 
Q 23.78125 -13.375 27.78125 -13.375 
Q 36.625 -13.375 41.015625 -8.765625 
Q 45.40625 -4.15625 45.40625 5.171875 
L 45.40625 9.625 
Q 42.625 4.78125 38.28125 2.390625 
Q 33.9375 0 27.875 0 
Q 17.828125 0 11.671875 7.65625 
Q 5.515625 15.328125 5.515625 27.984375 
Q 5.515625 40.671875 11.671875 48.328125 
Q 17.828125 56 27.875 56 
Q 33.9375 56 38.28125 53.609375 
Q 42.625 51.21875 45.40625 46.390625 
L 45.40625 54.6875 
L 54.390625 54.6875 
z
" id="DejaVuSans-67"/>
      <path d="M 56.203125 29.59375 
L 56.203125 25.203125 
L 14.890625 25.203125 
Q 15.484375 15.921875 20.484375 11.0625 
Q 25.484375 6.203125 34.421875 6.203125 
Q 39.59375 6.203125 44.453125 7.46875 
Q 49.3125 8.734375 54.109375 11.28125 
L 54.109375 2.78125 
Q 49.265625 0.734375 44.1875 -0.34375 
Q 39.109375 -1.421875 33.890625 -1.421875 
Q 20.796875 -1.421875 13.15625 6.1875 
Q 5.515625 13.8125 5.515625 26.8125 
Q 5.515625 40.234375 12.765625 48.109375 
Q 20.015625 56 32.328125 56 
Q 43.359375 56 49.78125 48.890625 
Q 56.203125 41.796875 56.203125 29.59375 
z
M 47.21875 32.234375 
Q 47.125 39.59375 43.09375 43.984375 
Q 39.0625 48.390625 32.421875 48.390625 
Q 24.90625 48.390625 20.390625 44.140625 
Q 15.875 39.890625 15.1875 32.171875 
z
" id="DejaVuSans-65"/>
      <path id="DejaVuSans-20"/>
     </defs>
     <g transform="translate(-11.575 202.577219)rotate(-90)scale(0.1 -0.1)">
      <use xlink:href="#DejaVuSans-56"/>
      <use x="68.298828" xlink:href="#DejaVuSans-6f"/>
      <use x="129.480469" xlink:href="#DejaVuSans-6c"/>
      <use x="157.263672" xlink:href="#DejaVuSans-74"/>
      <use x="196.472656" xlink:href="#DejaVuSans-61"/>
      <use x="257.751953" xlink:href="#DejaVuSans-67"/>
      <use x="321.228516" xlink:href="#DejaVuSans-65"/>
      <use x="382.751953" xlink:href="#DejaVuSans-20"/>
      <use x="414.539062" xlink:href="#DejaVuSans-28"/>
      <use x="453.552734" xlink:href="#DejaVuSans-56"/>
      <use x="521.960938" xlink:href="#DejaVuSans-29"/>
     </g>
    </g>
    <g id="text_17">
     <!-- +1e−1 -->
     <defs>
      <path d="M 46 62.703125 
L 46 35.5 
L 73.1875 35.5 
L 73.1875 27.203125 
L 46 27.203125 
L 46 0 
L 37.796875 0 
L 37.796875 27.203125 
L 10.59375 27.203125 
L 10.59375 35.5 
L 37.796875 35.5 
L 37.796875 62.703125 
z
" id="DejaVuSans-2b"/>
     </defs>
     <g transform="translate(57.6 38.472)scale(0.1 -0.1)">
      <use xlink:href="#DejaVuSans-2b"/>
      <use x="83.789062" xlink:href="#DejaVuSans-31"/>
      <use x="147.412109" xlink:href="#DejaVuSans-65"/>
      <use x="208.935547" xlink:href="#DejaVuSans-2212"/>
      <use x="292.724609" xlink:href="#DejaVuSans-31"/>
     </g>
    </g>
   </g>
   <g id="line2d_15">
    <path clip-path="url(#p74dc45df6c)" d="M 73.832727 138.834885 
L 74.049198 168.579148 
L 74.157974 178.493902 
L 74.375527 156.681443 
L 74.700773 170.562098 
L 74.809549 162.630295 
L 74.918326 214.187016 
L 75.027102 206.255213 
L 75.135878 158.664393 
L 75.244114 190.391607 
L 75.352349 144.783738 
L 75.461125 174.528 
L 75.569901 146.766689 
L 75.678678 148.749639 
L 75.89623 178.493902 
L 76.004465 162.630295 
L 76.113242 184.442754 
L 76.222018 168.579148 
L 76.330794 186.425705 
L 76.439571 166.596197 
L 76.548347 232.033574 
L 76.764817 170.562098 
L 76.873594 190.391607 
L 76.98237 182.459803 
L 77.199923 136.851934 
L 77.308158 198.32341 
L 77.525169 160.647344 
L 77.633945 172.545049 
L 77.851498 156.681443 
L 77.960274 184.442754 
L 78.177286 172.545049 
L 78.286062 182.459803 
L 78.394839 170.562098 
L 78.612391 178.493902 
L 78.720626 162.630295 
L 78.829402 210.221115 
L 79.046955 168.579148 
L 79.264508 176.510951 
L 79.372743 166.596197 
L 79.481519 180.476852 
L 79.590296 154.698492 
L 79.807848 235.999475 
L 80.025401 132.886033 
L 80.133636 115.039475 
L 80.459965 174.528 
L 80.568741 162.630295 
L 80.677517 164.613246 
L 80.785753 184.442754 
L 81.112082 124.95423 
L 81.220858 178.493902 
L 81.329634 168.579148 
L 81.438411 176.510951 
L 81.546646 160.647344 
L 81.764198 180.476852 
L 81.872975 172.545049 
L 81.981751 176.510951 
L 82.090527 168.579148 
L 82.198762 172.545049 
L 82.306998 184.442754 
L 82.633327 128.920131 
L 82.742103 182.459803 
L 82.850338 156.681443 
L 82.958573 164.613246 
L 83.176126 194.357508 
L 83.284902 142.800787 
L 83.393678 164.613246 
L 83.501913 150.73259 
L 83.610149 154.698492 
L 83.718925 166.596197 
L 83.936478 160.647344 
L 84.045254 178.493902 
L 84.15403 216.169967 
L 84.262265 140.817836 
L 84.371042 150.73259 
L 84.479818 210.221115 
L 84.588594 166.596197 
L 84.697371 224.10177 
L 84.806147 160.647344 
L 84.914382 174.528 
L 85.023158 172.545049 
L 85.349487 180.476852 
L 85.458264 200.306361 
L 85.56704 178.493902 
L 85.784051 226.084721 
L 85.892828 218.152918 
L 86.001604 234.016525 
L 86.219157 124.95423 
L 86.327392 140.817836 
L 86.436168 176.510951 
L 86.653721 160.647344 
L 86.762497 164.613246 
L 86.871273 160.647344 
L 86.979508 148.749639 
L 87.087744 156.681443 
L 87.19652 188.408656 
L 87.305296 158.664393 
L 87.522849 196.340459 
L 87.631084 190.391607 
L 87.848096 162.630295 
L 87.956872 212.204066 
L 88.174424 174.528 
L 88.282659 174.528 
L 88.390895 172.545049 
L 88.499671 182.459803 
L 88.608447 172.545049 
L 88.717224 196.340459 
L 88.934776 101.15882 
L 89.151788 194.357508 
L 89.260564 180.476852 
L 89.36934 188.408656 
L 89.586893 166.596197 
L 89.695128 154.698492 
L 89.91214 174.528 
L 90.020916 152.715541 
L 90.129692 164.613246 
L 90.238468 192.374557 
L 90.346704 152.715541 
L 90.454939 198.32341 
L 90.781268 128.920131 
L 91.107055 188.408656 
L 91.215832 160.647344 
L 91.324608 162.630295 
L 91.542161 186.425705 
L 91.650937 180.476852 
L 91.976725 146.766689 
L 92.194277 212.204066 
L 92.303054 170.562098 
L 92.41183 174.528 
L 92.520065 154.698492 
L 92.737618 170.562098 
L 92.955171 146.766689 
L 93.172182 188.408656 
L 93.389735 138.834885 
L 93.498511 194.357508 
L 93.716063 162.630295 
L 93.824299 206.255213 
L 94.041851 174.528 
L 94.150628 174.528 
L 94.585192 192.374557 
L 94.693968 182.459803 
L 94.802744 253.846033 
L 94.911521 178.493902 
L 95.020297 263.760787 
L 95.237308 136.851934 
L 95.345543 182.459803 
L 95.563096 162.630295 
L 95.780649 172.545049 
L 95.888884 174.528 
L 95.997119 168.579148 
L 96.105895 182.459803 
L 96.214672 132.886033 
L 96.432224 182.459803 
L 96.649236 164.613246 
L 96.758012 142.800787 
L 97.193117 202.289311 
L 97.301352 194.357508 
L 97.518364 162.630295 
L 97.62714 148.749639 
L 97.735917 162.630295 
L 97.844693 144.783738 
L 97.952928 204.272262 
L 98.061163 162.630295 
L 98.278716 245.91423 
L 98.387492 146.766689 
L 98.712739 182.459803 
L 98.930291 164.613246 
L 99.039068 170.562098 
L 99.147844 164.613246 
L 99.364855 196.340459 
L 99.582408 160.647344 
L 99.691184 178.493902 
L 100.016972 156.681443 
L 100.343301 180.476852 
L 100.452077 174.528 
L 100.560854 204.272262 
L 100.669089 186.425705 
L 100.777865 208.238164 
L 100.886641 117.022426 
L 100.995418 184.442754 
L 101.104194 154.698492 
L 101.321747 178.493902 
L 101.647534 156.681443 
L 101.756311 166.596197 
L 101.865087 158.664393 
L 101.973863 136.851934 
L 102.082098 176.510951 
L 102.29911 170.562098 
L 102.407886 214.187016 
L 102.625439 148.749639 
L 102.733674 176.510951 
L 102.841909 160.647344 
L 103.059462 174.528 
L 103.168238 184.442754 
L 103.277014 178.493902 
L 103.38525 188.408656 
L 103.602261 178.493902 
L 103.711037 188.408656 
L 103.819814 214.187016 
L 104.037366 146.766689 
L 104.145601 168.579148 
L 104.254378 239.965377 
L 104.47193 154.698492 
L 104.797718 178.493902 
L 104.905953 154.698492 
L 105.123506 174.528 
L 105.232282 138.834885 
L 105.341059 214.187016 
L 105.557529 162.630295 
L 105.666305 156.681443 
L 105.775081 192.374557 
L 105.883858 168.579148 
L 105.992634 184.442754 
L 106.209646 166.596197 
L 106.318422 188.408656 
L 106.427198 180.476852 
L 106.535975 190.391607 
L 106.861762 138.834885 
L 106.970539 190.391607 
L 107.188091 97.192918 
L 107.296868 190.391607 
L 107.405644 152.715541 
L 107.622655 158.664393 
L 107.731432 160.647344 
L 107.948984 172.545049 
L 108.057761 152.715541 
L 108.274772 178.493902 
L 108.383548 166.596197 
L 108.492325 115.039475 
L 108.709877 204.272262 
L 109.035665 170.562098 
L 109.144441 174.528 
L 109.253218 194.357508 
L 109.361994 164.613246 
L 109.47077 192.374557 
L 109.579547 126.93718 
L 109.796558 218.152918 
L 110.014111 134.868984 
L 110.122887 178.493902 
L 110.339898 154.698492 
L 110.55691 158.664393 
L 110.774463 162.630295 
L 110.883239 156.681443 
L 111.099709 164.613246 
L 111.208485 144.783738 
L 111.426038 198.32341 
L 111.643049 190.391607 
L 111.860061 190.391607 
L 112.077614 180.476852 
L 112.18639 176.510951 
L 112.512178 182.459803 
L 112.620954 168.579148 
L 112.838507 245.91423 
L 112.947283 216.169967 
L 113.055518 128.920131 
L 113.273071 184.442754 
L 113.381847 158.664393 
L 113.490623 182.459803 
L 113.5994 164.613246 
L 113.708176 176.510951 
L 113.816411 150.73259 
L 114.033964 186.425705 
L 114.14274 172.545049 
L 114.251516 138.834885 
L 114.360293 212.204066 
L 114.468528 208.238164 
L 114.577304 146.766689 
L 114.903633 190.391607 
L 115.120644 170.562098 
L 115.22888 176.510951 
L 115.337656 166.596197 
L 115.446432 172.545049 
L 115.555209 222.11882 
L 115.663985 184.442754 
L 115.77222 190.391607 
L 115.989232 117.022426 
L 116.206784 194.357508 
L 116.31556 156.681443 
L 116.640807 172.545049 
L 116.85836 160.647344 
L 116.967136 174.528 
L 117.075912 172.545049 
L 117.184147 150.73259 
L 117.292924 170.562098 
L 117.4017 124.95423 
L 117.510476 170.562098 
L 117.619253 158.664393 
L 117.728029 188.408656 
L 117.836264 186.425705 
L 117.944499 188.408656 
L 118.053276 144.783738 
L 118.270828 176.510951 
L 118.379604 174.528 
L 118.48784 180.476852 
L 118.596075 174.528 
L 118.704851 176.510951 
L 118.813627 196.340459 
L 118.922404 265.743738 
L 119.139956 140.817836 
L 119.248191 162.630295 
L 119.356968 83.312262 
L 119.574521 172.545049 
L 119.683297 172.545049 
L 119.792073 160.647344 
L 119.900308 164.613246 
L 120.009085 160.647344 
L 120.117861 162.630295 
L 120.226637 140.817836 
L 120.335413 154.698492 
L 120.44419 148.749639 
L 120.552966 156.681443 
L 120.769978 200.306361 
L 120.98753 178.493902 
L 121.096307 174.528 
L 121.205083 182.459803 
L 121.313318 162.630295 
L 121.422094 190.391607 
L 121.639647 132.886033 
L 121.748423 136.851934 
L 121.857199 218.152918 
L 122.074211 148.749639 
L 122.182987 166.596197 
L 122.40054 172.545049 
L 122.509316 154.698492 
L 122.618093 168.579148 
L 122.726328 158.664393 
L 122.94388 190.391607 
L 123.052657 109.090623 
L 123.378444 212.204066 
L 123.48668 178.493902 
L 123.595456 200.306361 
L 123.704232 182.459803 
L 123.813009 188.408656 
L 123.921785 168.579148 
L 124.247031 184.442754 
L 124.464584 172.545049 
L 124.57336 232.033574 
L 124.682137 59.516852 
L 124.790372 87.278164 
L 125.007924 241.948328 
L 125.116701 180.476852 
L 125.225477 186.425705 
L 125.334253 156.681443 
L 125.442489 170.562098 
L 125.550724 158.664393 
L 125.6595 190.391607 
L 125.877053 162.630295 
L 126.094064 188.408656 
L 126.202299 180.476852 
L 126.311076 200.306361 
L 126.419852 142.800787 
L 126.528628 152.715541 
L 126.637404 194.357508 
L 126.74564 154.698492 
L 127.071427 188.408656 
L 127.180204 178.493902 
L 127.28898 186.425705 
L 127.397756 182.459803 
L 127.505991 186.425705 
L 127.723544 134.868984 
L 127.83232 208.238164 
L 127.941097 184.442754 
L 128.049873 196.340459 
L 128.158108 136.851934 
L 128.266884 168.579148 
L 128.375661 154.698492 
L 128.593213 176.510951 
L 128.70199 172.545049 
L 128.810225 156.681443 
L 129.027777 174.528 
L 129.24533 178.493902 
L 129.354107 218.152918 
L 129.462883 210.221115 
L 129.571118 174.528 
L 129.679894 186.425705 
L 129.897447 172.545049 
L 130.006223 184.442754 
L 130.114999 168.579148 
L 130.223235 182.459803 
L 130.33147 178.493902 
L 130.440246 160.647344 
L 130.549022 178.493902 
L 130.657799 166.596197 
L 130.766575 239.965377 
L 130.983045 111.073574 
L 131.091822 182.459803 
L 131.200598 172.545049 
L 131.309374 144.783738 
L 131.634621 178.493902 
L 131.743397 174.528 
L 131.96095 164.613246 
L 132.178502 210.221115 
L 132.395514 172.545049 
L 132.50429 150.73259 
L 132.613066 188.408656 
L 132.721843 158.664393 
L 132.830619 186.425705 
L 132.938854 178.493902 
L 133.155866 182.459803 
L 133.264642 172.545049 
L 133.373418 186.425705 
L 133.482195 166.596197 
L 133.59043 180.476852 
L 133.807441 160.647344 
L 133.916218 130.903082 
L 134.024994 257.811934 
L 134.242546 146.766689 
L 134.350782 142.800787 
L 134.459558 144.783738 
L 134.568334 176.510951 
L 134.894663 152.715541 
L 135.111675 168.579148 
L 135.220451 138.834885 
L 135.438004 180.476852 
L 135.54678 182.459803 
L 135.655015 188.408656 
L 135.763791 154.698492 
L 135.872568 170.562098 
L 135.981344 168.579148 
L 136.09012 174.528 
L 136.198897 172.545049 
L 136.307673 162.630295 
L 136.633461 210.221115 
L 136.742237 170.562098 
L 136.851013 200.306361 
L 136.95979 190.391607 
L 137.068025 128.920131 
L 137.285577 164.613246 
L 137.50313 184.442754 
L 137.720683 178.493902 
L 137.828918 186.425705 
L 138.04647 132.886033 
L 138.155247 186.425705 
L 138.264023 142.800787 
L 138.372799 178.493902 
L 138.58927 154.698492 
L 138.698046 164.613246 
L 138.806822 158.664393 
L 138.915599 178.493902 
L 139.13261 154.698492 
L 139.240845 148.749639 
L 139.349621 132.886033 
L 139.458398 91.244066 
L 139.567174 182.459803 
L 139.67595 178.493902 
L 139.784186 182.459803 
L 139.892421 148.749639 
L 140.109973 178.493902 
L 140.21875 164.613246 
L 140.327526 178.493902 
L 140.436302 156.681443 
L 140.544537 164.613246 
L 140.653314 182.459803 
L 140.76209 132.886033 
L 141.088419 176.510951 
L 141.196654 178.493902 
L 141.414207 162.630295 
L 141.631759 180.476852 
L 141.740536 174.528 
L 141.849312 214.187016 
L 142.066323 194.357508 
L 142.1751 194.357508 
L 142.283876 182.459803 
L 142.392652 194.357508 
L 142.501429 184.442754 
L 142.609664 188.408656 
L 142.935993 132.886033 
L 143.044769 234.016525 
L 143.153545 156.681443 
L 143.26178 158.664393 
L 143.370016 162.630295 
L 143.478792 186.425705 
L 143.696345 150.73259 
L 143.805121 176.510951 
L 144.021591 170.562098 
L 144.130368 176.510951 
L 144.239144 172.545049 
L 144.34792 178.493902 
L 144.456696 154.698492 
L 144.564932 166.596197 
L 144.673167 245.91423 
L 144.781943 152.715541 
L 145.108272 208.238164 
L 145.325283 180.476852 
L 145.43406 202.289311 
L 145.651612 166.596197 
L 145.869165 226.084721 
L 146.085635 160.647344 
L 146.194412 202.289311 
L 146.411964 158.664393 
L 146.520741 158.664393 
L 146.628976 166.596197 
L 146.845987 164.613246 
L 146.954763 170.562098 
L 147.06354 152.715541 
L 147.172316 188.408656 
L 147.281092 152.715541 
L 147.389328 192.374557 
L 147.498104 178.493902 
L 147.60688 138.834885 
L 147.715657 172.545049 
L 147.824433 162.630295 
L 148.041444 192.374557 
L 148.150221 168.579148 
L 148.258997 180.476852 
L 148.367773 136.851934 
L 148.47655 180.476852 
L 148.694102 166.596197 
L 148.802337 152.715541 
L 148.911114 184.442754 
L 149.128666 166.596197 
L 149.237443 164.613246 
L 149.346219 174.528 
L 149.672007 158.664393 
L 149.889559 212.204066 
L 149.998335 210.221115 
L 150.215347 154.698492 
L 150.324123 182.459803 
L 150.4329 164.613246 
L 150.541676 178.493902 
L 150.650452 176.510951 
L 150.759229 158.664393 
L 150.97624 186.425705 
L 151.085016 190.391607 
L 151.302569 138.834885 
L 151.411345 160.647344 
L 151.51958 142.800787 
L 151.627816 176.510951 
L 152.171156 152.715541 
L 152.388167 178.493902 
L 152.496944 174.528 
L 152.60572 178.493902 
L 152.823273 132.886033 
L 153.040284 188.408656 
L 153.257837 162.630295 
L 153.366613 172.545049 
L 153.583625 140.817836 
L 153.69186 172.545049 
L 153.800636 160.647344 
L 153.909412 126.93718 
L 154.018189 158.664393 
L 154.126965 144.783738 
L 154.343435 196.340459 
L 154.452212 184.442754 
L 154.560988 154.698492 
L 154.77854 180.476852 
L 154.886776 150.73259 
L 154.995011 152.715541 
L 155.212563 186.425705 
L 155.32134 142.800787 
L 155.430116 208.238164 
L 155.647127 144.783738 
L 155.755904 156.681443 
L 155.86468 130.903082 
L 155.973456 174.528 
L 156.082233 158.664393 
L 156.191009 176.510951 
L 156.40802 166.596197 
L 156.625573 212.204066 
L 156.734349 158.664393 
L 156.843126 200.306361 
L 157.060137 158.664393 
L 157.27769 198.32341 
L 157.386466 164.613246 
L 157.495243 178.493902 
L 157.712254 166.596197 
L 157.82103 184.442754 
L 157.929265 152.715541 
L 158.038042 186.425705 
L 158.146818 162.630295 
L 158.255594 170.562098 
L 158.363829 220.135869 
L 158.472606 212.204066 
L 158.581382 130.903082 
L 158.690158 198.32341 
L 158.798935 168.579148 
L 159.015946 190.391607 
L 159.341734 172.545049 
L 159.45051 172.545049 
L 159.559286 140.817836 
L 159.667522 182.459803 
L 159.775757 168.579148 
L 159.884533 190.391607 
L 159.99331 176.510951 
L 160.102086 146.766689 
L 160.319638 174.528 
L 160.427873 176.510951 
L 160.53665 172.545049 
L 160.754203 186.425705 
L 160.862979 224.10177 
L 160.971755 200.306361 
L 161.07999 210.221115 
L 161.188225 144.783738 
L 161.405778 180.476852 
L 161.623331 162.630295 
L 161.731566 164.613246 
L 161.839801 136.851934 
L 161.948577 176.510951 
L 162.057354 172.545049 
L 162.16613 178.493902 
L 162.383682 154.698492 
L 162.491918 182.459803 
L 162.600694 172.545049 
L 162.70947 134.868984 
L 162.818247 224.10177 
L 162.927023 214.187016 
L 163.035799 166.596197 
L 163.144034 192.374557 
L 163.361587 166.596197 
L 163.470363 154.698492 
L 163.687916 204.272262 
L 163.796151 164.613246 
L 164.013704 228.067672 
L 164.12248 235.999475 
L 164.231256 220.135869 
L 164.340033 162.630295 
L 164.448809 184.442754 
L 164.557044 168.579148 
L 164.66582 184.442754 
L 164.774597 182.459803 
L 164.992149 174.528 
L 165.100926 176.510951 
L 165.209161 150.73259 
L 165.317937 152.715541 
L 165.426713 148.749639 
L 165.53549 170.562098 
L 165.644266 156.681443 
L 165.970054 174.528 
L 166.07883 172.545049 
L 166.187606 160.647344 
L 166.405159 186.425705 
L 166.513935 140.817836 
L 166.730406 176.510951 
L 166.839182 166.596197 
L 166.947958 196.340459 
L 167.165511 164.613246 
L 167.273746 164.613246 
L 167.490758 176.510951 
L 167.599534 158.664393 
L 167.817086 174.528 
L 167.925322 136.851934 
L 168.033557 172.545049 
L 168.142333 119.005377 
L 168.251109 208.238164 
L 168.359886 158.664393 
L 168.577438 200.306361 
L 168.685673 172.545049 
L 168.79445 174.528 
L 168.903226 182.459803 
L 169.012002 178.493902 
L 169.120779 184.442754 
L 169.229555 172.545049 
L 169.33779 178.493902 
L 169.555343 138.834885 
L 169.664119 158.664393 
L 169.772895 156.681443 
L 169.881672 146.766689 
L 169.990448 158.664393 
L 170.098683 190.391607 
L 170.316236 166.596197 
L 170.533789 178.493902 
L 170.642565 176.510951 
L 170.7508 188.408656 
L 170.859576 180.476852 
L 170.968353 152.715541 
L 171.077129 190.391607 
L 171.185905 162.630295 
L 171.402917 202.289311 
L 171.511152 196.340459 
L 171.619928 172.545049 
L 171.728704 178.493902 
L 171.946257 170.562098 
L 172.162727 162.630295 
L 172.271504 186.425705 
L 172.38028 168.579148 
L 172.489056 212.204066 
L 172.597832 192.374557 
L 172.706068 198.32341 
L 172.814303 113.056525 
L 173.031855 196.340459 
L 173.249408 166.596197 
L 173.358184 182.459803 
L 173.575196 176.510951 
L 173.683972 204.272262 
L 173.792748 146.766689 
L 173.901525 180.476852 
L 174.010301 162.630295 
L 174.118536 218.152918 
L 174.335548 170.562098 
L 174.444324 170.562098 
L 174.5531 184.442754 
L 174.770112 166.596197 
L 174.987123 176.510951 
L 175.204676 158.664393 
L 175.313452 128.920131 
L 175.530464 224.10177 
L 175.748016 134.868984 
L 175.965569 192.374557 
L 176.074345 180.476852 
L 176.291357 164.613246 
L 176.400133 166.596197 
L 176.617686 202.289311 
L 176.726462 218.152918 
L 176.943473 190.391607 
L 177.05225 192.374557 
L 177.161026 166.596197 
L 177.269802 180.476852 
L 177.378579 166.596197 
L 177.704366 174.528 
L 177.813143 168.579148 
L 177.921919 182.459803 
L 178.030695 105.124721 
L 178.139472 192.374557 
L 178.247707 134.868984 
L 178.356483 194.357508 
L 178.574036 166.596197 
L 178.682812 166.596197 
L 178.900365 182.459803 
L 179.0086 176.510951 
L 179.117376 146.766689 
L 179.226152 178.493902 
L 179.334929 115.039475 
L 179.443705 170.562098 
L 179.552481 146.766689 
L 179.768952 186.425705 
L 180.095281 160.647344 
L 180.204057 180.476852 
L 180.312292 166.596197 
L 180.529303 180.476852 
L 180.63808 164.613246 
L 180.746856 239.965377 
L 180.964409 128.920131 
L 181.072644 194.357508 
L 181.18142 142.800787 
L 181.290197 204.272262 
L 181.398973 166.596197 
L 181.507749 176.510951 
L 181.616525 174.528 
L 181.724761 162.630295 
L 181.832996 186.425705 
L 181.941772 166.596197 
L 182.159325 186.425705 
L 182.268101 150.73259 
L 182.484571 230.050623 
L 182.593348 158.664393 
L 182.702124 162.630295 
L 182.919677 182.459803 
L 183.136147 154.698492 
L 183.353699 188.408656 
L 183.680028 134.868984 
L 183.788264 156.681443 
L 183.89704 138.834885 
L 184.114593 178.493902 
L 184.332145 162.630295 
L 184.44038 188.408656 
L 184.657933 160.647344 
L 184.766709 170.562098 
L 184.875486 192.374557 
L 184.984262 182.459803 
L 185.092497 156.681443 
L 185.201273 200.306361 
L 185.31005 176.510951 
L 185.418826 194.357508 
L 185.636379 170.562098 
L 185.745155 174.528 
L 185.85339 172.545049 
L 185.962166 158.664393 
L 186.070943 172.545049 
L 186.179719 164.613246 
L 186.397271 222.11882 
L 186.613742 180.476852 
L 186.722518 120.988328 
L 186.831295 126.93718 
L 186.940071 192.374557 
L 187.048847 184.442754 
L 187.157082 166.596197 
L 187.265317 190.391607 
L 187.48287 156.681443 
L 187.700423 198.32341 
L 187.916893 126.93718 
L 188.025669 182.459803 
L 188.134446 156.681443 
L 188.243222 166.596197 
L 188.351998 154.698492 
L 188.460774 184.442754 
L 188.677786 158.664393 
L 188.786562 180.476852 
L 189.004115 164.613246 
L 189.112891 166.596197 
L 189.221126 196.340459 
L 189.438138 152.715541 
L 189.65569 198.32341 
L 189.980937 140.817836 
L 190.19849 168.579148 
L 190.307266 186.425705 
L 190.416042 180.476852 
L 190.524819 192.374557 
L 190.633054 154.698492 
L 190.850606 202.289311 
L 190.959383 194.357508 
L 191.068159 152.715541 
L 191.176935 160.647344 
L 191.28517 186.425705 
L 191.393947 162.630295 
L 191.502723 172.545049 
L 191.720276 162.630295 
L 191.829052 160.647344 
L 191.937287 212.204066 
L 192.046063 146.766689 
L 192.263616 190.391607 
L 192.481169 170.562098 
L 192.915733 184.442754 
L 193.024509 156.681443 
L 193.133285 186.425705 
L 193.459073 138.834885 
L 193.676626 156.681443 
L 193.785402 156.681443 
L 193.894178 170.562098 
L 194.002955 158.664393 
L 194.328742 204.272262 
L 194.437519 194.357508 
L 194.546295 170.562098 
L 194.655071 178.493902 
L 194.763307 204.272262 
L 194.871542 192.374557 
L 194.980318 156.681443 
L 195.089094 178.493902 
L 195.197871 174.528 
L 195.306647 184.442754 
L 195.523117 178.493902 
L 195.631894 180.476852 
L 195.74067 190.391607 
L 195.849446 148.749639 
L 195.958222 188.408656 
L 196.066458 158.664393 
L 196.174693 198.32341 
L 196.283469 140.817836 
L 196.501022 194.357508 
L 196.609798 166.596197 
L 196.718574 176.510951 
L 196.826809 174.528 
L 196.935586 154.698492 
L 197.153138 192.374557 
L 197.261915 172.545049 
L 197.370691 111.073574 
L 197.478926 176.510951 
L 197.587703 140.817836 
L 197.696479 222.11882 
L 197.805255 144.783738 
L 197.914031 170.562098 
L 198.022808 168.579148 
L 198.131584 162.630295 
L 198.239819 178.493902 
L 198.348596 160.647344 
L 198.457372 194.357508 
L 198.566148 156.681443 
L 198.674925 174.528 
L 198.891936 146.766689 
L 199.000712 162.630295 
L 199.109489 154.698492 
L 199.218265 180.476852 
L 199.327041 164.613246 
L 199.544053 176.510951 
L 199.652288 154.698492 
L 199.761064 170.562098 
L 199.86984 144.783738 
L 199.978617 150.73259 
L 200.087393 136.851934 
L 200.195628 158.664393 
L 200.303863 251.863082 
L 200.521416 128.920131 
L 200.630192 150.73259 
L 200.738968 196.340459 
L 200.955439 168.579148 
L 201.064215 178.493902 
L 201.281768 164.613246 
L 201.49932 184.442754 
L 201.607556 176.510951 
L 201.716332 152.715541 
L 201.933884 208.238164 
L 202.042661 152.715541 
L 202.259672 184.442754 
L 202.476684 166.596197 
L 202.58546 166.596197 
L 202.694236 174.528 
L 202.803013 198.32341 
L 203.019483 158.664393 
L 203.237036 241.948328 
L 203.345812 212.204066 
L 203.454588 119.005377 
L 203.563364 176.510951 
L 203.6716 162.630295 
L 203.780376 166.596197 
L 203.997929 182.459803 
L 204.215481 168.579148 
L 204.323716 176.510951 
L 204.541269 234.016525 
L 204.650045 172.545049 
L 204.867598 192.374557 
L 205.084609 168.579148 
L 205.302162 164.613246 
L 205.410938 192.374557 
L 205.519715 188.408656 
L 205.736726 140.817836 
L 205.954279 214.187016 
L 206.171831 160.647344 
L 206.280608 182.459803 
L 206.388843 178.493902 
L 206.497619 182.459803 
L 206.606395 166.596197 
L 206.823948 218.152918 
L 206.932724 111.073574 
L 207.041501 218.152918 
L 207.258512 174.528 
L 207.367288 192.374557 
L 207.476065 138.834885 
L 207.584841 162.630295 
L 207.801852 156.681443 
L 207.910088 158.664393 
L 208.12764 178.493902 
L 208.236417 138.834885 
L 208.345193 214.187016 
L 208.453428 61.499803 
L 208.561663 79.346361 
L 208.779216 218.152918 
L 208.887992 180.476852 
L 209.105545 190.391607 
L 209.322556 174.528 
L 209.540109 182.459803 
L 209.648885 152.715541 
L 209.757661 218.152918 
L 209.974132 172.545049 
L 210.082908 134.868984 
L 210.191684 178.493902 
L 210.300461 138.834885 
L 210.516931 172.545049 
L 210.734484 162.630295 
L 210.84326 156.681443 
L 211.169048 222.11882 
L 211.277283 55.550951 
L 211.494835 162.630295 
L 211.603612 158.664393 
L 211.821164 186.425705 
L 211.9294 194.357508 
L 212.146952 164.613246 
L 212.364505 210.221115 
L 212.473281 190.391607 
L 212.581516 214.187016 
L 212.799069 150.73259 
L 213.016622 164.613246 
L 213.125398 166.596197 
L 213.233633 164.613246 
L 213.451186 148.749639 
L 213.559962 230.050623 
L 213.668738 224.10177 
L 213.777515 172.545049 
L 213.994526 210.221115 
L 214.212079 182.459803 
L 214.320855 174.528 
L 214.429631 182.459803 
L 214.538407 160.647344 
L 214.754878 198.32341 
L 214.863654 198.32341 
L 214.972431 174.528 
L 215.081207 210.221115 
L 215.189983 168.579148 
L 215.298218 170.562098 
L 215.406453 180.476852 
L 215.624006 158.664393 
L 215.732782 156.681443 
L 215.841559 160.647344 
L 215.949794 178.493902 
L 216.058029 138.834885 
L 216.166805 174.528 
L 216.275582 126.93718 
L 216.384358 172.545049 
L 216.493134 168.579148 
L 216.60191 212.204066 
L 216.710146 178.493902 
L 216.818922 196.340459 
L 216.927698 188.408656 
L 217.036475 192.374557 
L 217.145251 180.476852 
L 217.254027 140.817836 
L 217.362262 176.510951 
L 217.470498 158.664393 
L 217.68805 200.306361 
L 217.905603 158.664393 
L 218.013838 186.425705 
L 218.122073 182.459803 
L 218.230849 158.664393 
L 218.339626 172.545049 
L 218.448402 152.715541 
L 218.557178 174.528 
L 218.665955 162.630295 
L 218.77419 170.562098 
L 218.882966 150.73259 
L 218.991742 192.374557 
L 219.209295 142.800787 
L 219.318071 188.408656 
L 219.535083 176.510951 
L 219.752635 192.374557 
L 219.861412 168.579148 
L 219.970188 200.306361 
L 220.187199 152.715541 
L 220.295976 160.647344 
L 220.404752 178.493902 
L 220.513528 146.766689 
L 220.731081 170.562098 
L 220.839316 166.596197 
L 221.056869 184.442754 
L 221.274421 156.681443 
L 221.491433 224.10177 
L 221.708986 164.613246 
L 221.817762 176.510951 
L 221.926538 164.613246 
L 222.035314 168.579148 
L 222.144091 156.681443 
L 222.252326 166.596197 
L 222.361102 214.187016 
L 222.578655 162.630295 
L 222.687431 134.868984 
L 222.796207 202.289311 
L 223.012678 164.613246 
L 223.121454 164.613246 
L 223.339007 178.493902 
L 223.447783 166.596197 
L 223.556018 176.510951 
L 223.664253 146.766689 
L 223.77303 180.476852 
L 223.881806 107.107672 
L 224.099358 216.169967 
L 224.207594 192.374557 
L 224.315829 218.152918 
L 224.424605 176.510951 
L 224.533381 202.289311 
L 224.642158 168.579148 
L 224.750934 202.289311 
L 224.967945 178.493902 
L 225.185498 148.749639 
L 225.511827 190.391607 
L 225.620062 148.749639 
L 225.728839 180.476852 
L 225.837615 178.493902 
L 225.946391 160.647344 
L 226.163944 186.425705 
L 226.27272 134.868984 
L 226.380955 190.391607 
L 226.489732 53.568 
L 226.707284 170.562098 
L 226.816061 176.510951 
L 226.924837 174.528 
L 227.250625 180.476852 
L 227.359401 172.545049 
L 227.576953 186.425705 
L 227.685189 150.73259 
L 227.9022 206.255213 
L 228.010976 148.749639 
L 228.119753 178.493902 
L 228.228529 150.73259 
L 228.444999 170.562098 
L 228.553776 168.579148 
L 228.662552 170.562098 
L 228.771328 136.851934 
L 228.880104 176.510951 
L 228.98834 174.528 
L 229.205351 128.920131 
L 229.314128 138.834885 
L 229.422904 249.880131 
L 229.640456 140.817836 
L 229.857468 182.459803 
L 230.075021 170.562098 
L 230.183797 180.476852 
L 230.400808 166.596197 
L 230.509043 168.579148 
L 230.61782 150.73259 
L 230.726596 63.482754 
L 230.944149 216.169967 
L 231.052384 186.425705 
L 231.160619 208.238164 
L 231.269395 152.715541 
L 231.486948 170.562098 
L 231.595724 162.630295 
L 231.7045 190.391607 
L 231.921512 148.749639 
L 232.139065 245.91423 
L 232.247841 168.579148 
L 232.356617 212.204066 
L 232.464852 156.681443 
L 232.682405 180.476852 
L 232.791181 162.630295 
L 232.899958 184.442754 
L 233.008734 170.562098 
L 233.11751 182.459803 
L 233.225745 158.664393 
L 233.334522 222.11882 
L 233.443298 150.73259 
L 233.660851 188.408656 
L 233.769627 180.476852 
L 233.877862 156.681443 
L 233.986638 174.528 
L 234.204191 160.647344 
L 234.421744 174.528 
L 234.529979 212.204066 
L 234.747531 178.493902 
L 234.856308 259.794885 
L 234.965084 148.749639 
L 235.182637 180.476852 
L 235.290872 176.510951 
L 235.399648 188.408656 
L 235.508424 174.528 
L 235.617201 176.510951 
L 235.725977 136.851934 
L 235.834753 164.613246 
L 236.051224 107.107672 
L 236.268776 186.425705 
L 236.486329 144.783738 
L 236.702799 178.493902 
L 236.811576 174.528 
L 236.920352 166.596197 
L 237.029128 174.528 
L 237.246681 148.749639 
L 237.354916 196.340459 
L 237.463692 182.459803 
L 237.572469 192.374557 
L 237.681245 134.868984 
L 237.78948 210.221115 
L 238.006491 146.766689 
L 238.224044 164.613246 
L 238.33282 158.664393 
L 238.441597 172.545049 
L 238.550373 160.647344 
L 238.766843 188.408656 
L 238.87562 174.528 
L 238.984396 140.817836 
L 239.310184 230.050623 
L 239.418419 144.783738 
L 239.527195 172.545049 
L 239.635972 170.562098 
L 239.744748 172.545049 
L 239.853524 166.596197 
L 239.9623 186.425705 
L 240.179312 166.596197 
L 240.288088 174.528 
L 240.396865 170.562098 
L 240.505641 156.681443 
L 240.722652 196.340459 
L 240.831429 194.357508 
L 241.157758 158.664393 
L 241.374769 170.562098 
L 241.483545 156.681443 
L 241.701098 265.743738 
L 241.809874 172.545049 
L 241.918651 186.425705 
L 242.027427 180.476852 
L 242.135662 206.255213 
L 242.244438 170.562098 
L 242.353215 176.510951 
L 242.570767 174.528 
L 242.787779 192.374557 
L 242.896014 192.374557 
L 243.00479 144.783738 
L 243.113567 168.579148 
L 243.222343 136.851934 
L 243.439354 206.255213 
L 243.547589 122.971279 
L 243.656366 194.357508 
L 243.873918 152.715541 
L 243.982695 176.510951 
L 244.09093 162.630295 
L 244.199165 178.493902 
L 244.307941 156.681443 
L 244.525494 172.545049 
L 244.63427 154.698492 
L 244.743046 237.982426 
L 244.960058 170.562098 
L 245.068834 198.32341 
L 245.177611 138.834885 
L 245.395163 176.510951 
L 245.611634 178.493902 
L 245.829186 168.579148 
L 246.046739 184.442754 
L 246.154974 140.817836 
L 246.263209 176.510951 
L 246.371985 148.749639 
L 246.480762 172.545049 
L 246.589538 144.783738 
L 246.807091 190.391607 
L 247.350431 158.664393 
L 247.459207 212.204066 
L 247.567442 154.698492 
L 247.676219 182.459803 
L 247.893771 126.93718 
L 248.111324 168.579148 
L 248.219559 164.613246 
L 248.328336 170.562098 
L 248.437112 158.664393 
L 248.545888 186.425705 
L 248.654664 136.851934 
L 248.763441 190.391607 
L 249.089229 103.14177 
L 249.306781 170.562098 
L 249.415558 170.562098 
L 249.632569 184.442754 
L 249.741345 166.596197 
L 249.958898 188.408656 
L 250.176451 71.414557 
L 250.393462 164.613246 
L 250.502238 148.749639 
L 250.719791 160.647344 
L 250.828567 174.528 
L 250.937343 172.545049 
L 251.045579 176.510951 
L 251.26259 160.647344 
L 251.371366 148.749639 
L 251.480143 75.380459 
L 251.588919 176.510951 
L 251.697154 138.834885 
L 251.914166 192.374557 
L 252.022942 170.562098 
L 252.131718 188.408656 
L 252.240495 172.545049 
L 252.34873 174.528 
L 252.456965 180.476852 
L 252.565741 160.647344 
L 252.783294 180.476852 
L 252.89207 164.613246 
L 253.000846 182.459803 
L 253.109082 234.016525 
L 253.217858 158.664393 
L 253.326634 172.545049 
L 253.435411 148.749639 
L 253.544187 150.73259 
L 253.652963 170.562098 
L 253.761198 168.579148 
L 253.869975 186.425705 
L 253.978751 174.528 
L 254.087527 180.476852 
L 254.30508 295.488 
L 254.522091 128.920131 
L 254.630868 158.664393 
L 254.739644 192.374557 
L 254.84842 162.630295 
L 254.957197 166.596197 
L 255.065973 182.459803 
L 255.174208 180.476852 
L 255.282984 166.596197 
L 255.391761 134.868984 
L 255.500537 232.033574 
L 255.826325 162.630295 
L 255.93456 156.681443 
L 256.043336 180.476852 
L 256.260889 170.562098 
L 256.369665 172.545049 
L 256.4779 184.442754 
L 256.694912 156.681443 
L 256.803688 174.528 
L 256.912464 95.209967 
L 257.021241 113.056525 
L 257.346487 220.135869 
L 257.56404 152.715541 
L 257.672816 190.391607 
L 257.781593 174.528 
L 257.998604 176.510951 
L 258.10738 186.425705 
L 258.324933 158.664393 
L 258.433709 160.647344 
L 258.541944 156.681443 
L 258.65018 166.596197 
L 258.867732 132.886033 
L 258.976509 172.545049 
L 259.085285 156.681443 
L 259.19352 172.545049 
L 259.301755 168.579148 
L 259.410531 172.545049 
L 259.519308 170.562098 
L 259.628084 184.442754 
L 259.845637 142.800787 
L 259.953872 216.169967 
L 260.062648 204.272262 
L 260.171424 140.817836 
L 260.280201 202.289311 
L 260.605988 172.545049 
L 260.714765 170.562098 
L 260.823541 164.613246 
L 260.932317 168.579148 
L 261.041094 186.425705 
L 261.14987 224.10177 
L 261.258646 218.152918 
L 261.366881 140.817836 
L 261.475658 174.528 
L 261.584434 164.613246 
L 261.693211 168.579148 
L 261.801987 182.459803 
L 261.910763 162.630295 
L 262.127774 178.493902 
L 262.236551 158.664393 
L 262.345327 210.221115 
L 262.454103 95.209967 
L 262.56288 188.408656 
L 262.779891 130.903082 
L 262.888668 180.476852 
L 263.10622 164.613246 
L 263.323773 176.510951 
L 263.432008 172.545049 
L 263.540784 162.630295 
L 263.758337 200.306361 
L 263.867113 178.493902 
L 263.975889 196.340459 
L 264.19236 150.73259 
L 264.301136 144.783738 
L 264.518689 170.562098 
L 264.627465 174.528 
L 264.7357 184.442754 
L 264.843935 168.579148 
L 264.952712 176.510951 
L 265.061488 200.306361 
L 265.170264 142.800787 
L 265.279041 200.306361 
L 265.387817 156.681443 
L 265.496052 190.391607 
L 265.604828 166.596197 
L 265.713605 174.528 
L 265.822381 152.715541 
L 266.039934 164.613246 
L 266.256404 176.510951 
L 266.473957 130.903082 
L 266.907979 184.442754 
L 267.016756 174.528 
L 267.125532 182.459803 
L 267.343085 158.664393 
L 267.559555 154.698492 
L 267.668331 174.528 
L 267.777108 138.834885 
L 267.885884 180.476852 
L 267.99466 170.562098 
L 268.211672 188.408656 
L 268.320448 117.022426 
L 268.429224 190.391607 
L 268.755553 174.528 
L 269.081341 192.374557 
L 269.190117 210.221115 
L 269.298894 176.510951 
L 269.40767 178.493902 
L 269.515905 188.408656 
L 269.624681 140.817836 
L 269.842234 180.476852 
L 269.95101 162.630295 
L 270.168563 178.493902 
L 270.276798 166.596197 
L 270.385574 178.493902 
L 270.494351 142.800787 
L 270.603127 232.033574 
L 270.82068 184.442754 
L 270.928915 184.442754 
L 271.03715 124.95423 
L 271.254703 174.528 
L 271.363479 176.510951 
L 271.58049 188.408656 
L 271.797502 166.596197 
L 271.906278 172.545049 
L 272.123831 156.681443 
L 272.232066 128.920131 
L 272.340301 170.562098 
L 272.449077 154.698492 
L 272.557854 186.425705 
L 272.66663 170.562098 
L 272.884182 176.510951 
L 272.992418 176.510951 
L 273.101194 180.476852 
L 273.20997 160.647344 
L 273.427523 237.982426 
L 273.536299 172.545049 
L 273.644534 190.391607 
L 273.861546 138.834885 
L 274.079099 178.493902 
L 274.187875 166.596197 
L 274.29611 184.442754 
L 274.404345 164.613246 
L 274.621898 176.510951 
L 274.730674 178.493902 
L 274.83945 164.613246 
L 274.948227 180.476852 
L 275.056462 144.783738 
L 275.165238 241.948328 
L 275.382791 130.903082 
L 275.491567 214.187016 
L 275.600343 166.596197 
L 275.708578 170.562098 
L 275.817355 182.459803 
L 275.926131 172.545049 
L 276.034908 150.73259 
L 276.25246 218.152918 
L 276.360695 146.766689 
L 276.469472 176.510951 
L 276.7958 126.93718 
L 276.904577 174.528 
L 277.013353 162.630295 
L 277.121588 168.579148 
L 277.230365 162.630295 
L 277.447917 168.579148 
L 277.66547 148.749639 
L 277.773705 198.32341 
L 277.882481 146.766689 
L 277.991258 166.596197 
L 278.100034 160.647344 
L 278.20881 190.391607 
L 278.534598 168.579148 
L 278.752151 192.374557 
L 278.860927 186.425705 
L 278.969703 150.73259 
L 279.07848 204.272262 
L 279.29495 164.613246 
L 279.403726 190.391607 
L 279.512502 186.425705 
L 279.621279 172.545049 
L 279.730055 194.357508 
L 279.83829 130.903082 
L 280.055302 180.476852 
L 280.272854 142.800787 
L 280.489866 178.493902 
L 280.598101 164.613246 
L 280.706877 174.528 
L 280.815654 170.562098 
L 281.141982 204.272262 
L 281.250218 196.340459 
L 281.358994 176.510951 
L 281.576547 192.374557 
L 281.685323 180.476852 
L 281.794099 182.459803 
L 281.902334 190.391607 
L 282.119887 168.579148 
L 282.228663 196.340459 
L 282.446216 124.95423 
L 282.554992 166.596197 
L 282.663227 164.613246 
L 282.772004 146.766689 
L 282.88078 198.32341 
L 282.989556 154.698492 
L 283.098333 172.545049 
L 283.207109 158.664393 
L 283.315344 168.579148 
L 283.42412 196.340459 
L 283.532897 160.647344 
L 283.641673 166.596197 
L 283.750449 180.476852 
L 283.967461 132.886033 
L 284.184472 188.408656 
L 284.293249 206.255213 
L 284.510801 180.476852 
L 284.619036 178.493902 
L 284.836048 166.596197 
L 284.944824 180.476852 
L 285.0536 172.545049 
L 285.162377 202.289311 
L 285.487623 144.783738 
L 285.705176 182.459803 
L 285.813952 146.766689 
L 285.922729 156.681443 
L 286.030964 136.851934 
L 286.13974 144.783738 
L 286.248516 168.579148 
L 286.357293 158.664393 
L 286.466069 160.647344 
L 286.574845 174.528 
L 286.68308 170.562098 
L 286.900092 146.766689 
L 287.117645 178.493902 
L 287.226421 144.783738 
L 287.334656 150.73259 
L 287.442891 142.800787 
L 287.551667 190.391607 
L 287.660444 186.425705 
L 287.76922 202.289311 
L 287.877996 166.596197 
L 287.986773 178.493902 
L 288.095008 166.596197 
L 288.203784 180.476852 
L 288.31256 168.579148 
L 288.421337 218.152918 
L 288.530113 174.528 
L 288.638889 216.169967 
L 288.747124 120.988328 
L 288.855901 214.187016 
L 289.18223 152.715541 
L 289.291006 156.681443 
L 289.399782 180.476852 
L 289.508018 172.545049 
L 289.616794 182.459803 
L 289.72557 152.715541 
L 289.834347 166.596197 
L 289.943123 210.221115 
L 290.051899 174.528 
L 290.160134 192.374557 
L 290.26891 136.851934 
L 290.377687 176.510951 
L 290.59524 168.579148 
L 290.704016 188.408656 
L 290.921027 170.562098 
L 291.029804 194.357508 
L 291.247356 73.397508 
L 291.356133 243.931279 
L 291.68192 148.749639 
L 291.790697 182.459803 
L 292.008249 166.596197 
L 292.117025 176.510951 
L 292.225261 158.664393 
L 292.333496 174.528 
L 292.442272 160.647344 
L 292.551049 204.272262 
L 292.659825 150.73259 
L 292.768601 156.681443 
L 292.876836 154.698492 
L 293.093848 186.425705 
L 293.202624 140.817836 
L 293.3114 174.528 
L 293.420177 172.545049 
L 293.528953 174.528 
L 293.637188 170.562098 
L 293.745964 180.476852 
L 293.854741 172.545049 
L 293.963517 154.698492 
L 294.18107 192.374557 
L 294.506316 160.647344 
L 294.615093 192.374557 
L 294.832645 166.596197 
L 294.94088 166.596197 
L 295.049115 168.579148 
L 295.157892 162.630295 
L 295.266668 178.493902 
L 295.375444 176.510951 
L 295.484221 192.374557 
L 295.592456 136.851934 
L 295.700691 172.545049 
L 295.809467 170.562098 
L 295.918244 158.664393 
L 296.135796 192.374557 
L 296.244573 156.681443 
L 296.461584 180.476852 
L 296.57036 174.528 
L 296.679137 182.459803 
L 296.787913 168.579148 
L 296.896689 176.510951 
L 297.113701 134.868984 
L 297.222477 61.499803 
L 297.548806 194.357508 
L 297.657041 188.408656 
L 297.765817 164.613246 
L 297.874594 166.596197 
L 297.98337 172.545049 
L 298.092146 166.596197 
L 298.200923 178.493902 
L 298.417934 146.766689 
L 298.52671 194.357508 
L 298.635487 124.95423 
L 298.744263 210.221115 
L 298.853039 150.73259 
L 299.070051 196.340459 
L 299.178286 156.681443 
L 299.287062 176.510951 
L 299.395839 164.613246 
L 299.721626 180.476852 
L 299.829861 174.528 
L 299.938638 176.510951 
L 300.047414 128.920131 
L 300.156191 235.999475 
L 300.590213 152.715541 
L 300.69899 230.050623 
L 300.807766 148.749639 
L 300.916542 166.596197 
L 301.025319 148.749639 
L 301.351106 166.596197 
L 301.459883 168.579148 
L 301.568659 164.613246 
L 301.78567 204.272262 
L 301.893906 158.664393 
L 302.111458 190.391607 
L 302.220235 158.664393 
L 302.329011 202.289311 
L 302.437246 178.493902 
L 302.545481 208.238164 
L 302.654257 174.528 
L 302.763034 186.425705 
L 302.87181 164.613246 
L 303.306374 220.135869 
L 303.41515 138.834885 
L 303.523927 154.698492 
L 303.632703 105.124721 
L 303.849715 162.630295 
L 304.067267 168.579148 
L 304.28482 176.510951 
L 304.393596 164.613246 
L 304.501831 184.442754 
L 304.719384 164.613246 
L 304.82816 150.73259 
L 304.936937 198.32341 
L 305.045713 164.613246 
L 305.262724 186.425705 
L 305.371501 172.545049 
L 305.480277 176.510951 
L 305.589053 188.408656 
L 305.69783 172.545049 
L 305.806606 178.493902 
L 305.914841 172.545049 
L 306.023617 182.459803 
L 306.132394 146.766689 
L 306.24117 202.289311 
L 306.349946 160.647344 
L 306.458723 196.340459 
L 306.78451 152.715541 
L 306.893287 154.698492 
L 307.002063 162.630295 
L 307.110839 148.749639 
L 307.327851 186.425705 
L 307.544862 162.630295 
L 307.762415 226.084721 
L 307.979426 170.562098 
L 308.087661 186.425705 
L 308.196438 150.73259 
L 308.41399 202.289311 
L 308.522767 174.528 
L 308.631002 182.459803 
L 308.739237 180.476852 
L 308.848013 168.579148 
L 309.283118 194.357508 
L 309.391354 154.698492 
L 309.50013 190.391607 
L 309.608906 162.630295 
L 309.717683 178.493902 
L 309.935235 134.868984 
L 310.152247 172.545049 
L 310.261023 162.630295 
L 310.478576 184.442754 
L 310.587352 160.647344 
L 310.696128 206.255213 
L 310.91314 132.886033 
L 311.021916 138.834885 
L 311.239469 202.289311 
L 311.348245 204.272262 
L 311.45648 166.596197 
L 311.565256 168.579148 
L 311.782809 176.510951 
L 311.891585 168.579148 
L 312.108597 210.221115 
L 312.325608 144.783738 
L 312.434385 170.562098 
L 312.543161 105.124721 
L 312.651937 154.698492 
L 312.760172 144.783738 
L 312.868407 174.528 
L 312.977184 134.868984 
L 313.08596 164.613246 
L 313.194736 162.630295 
L 313.411748 146.766689 
L 313.628759 168.579148 
L 313.737536 152.715541 
L 313.955088 180.476852 
L 314.063865 160.647344 
L 314.1721 176.510951 
L 314.280876 158.664393 
L 314.389652 214.187016 
L 314.498429 184.442754 
L 314.607205 194.357508 
L 314.715981 182.459803 
L 314.824216 186.425705 
L 314.932452 198.32341 
L 315.041228 176.510951 
L 315.150004 190.391607 
L 315.475792 154.698492 
L 315.584027 200.306361 
L 315.692803 196.340459 
L 315.80158 166.596197 
L 315.910356 176.510951 
L 316.019132 154.698492 
L 316.127909 160.647344 
L 316.236144 186.425705 
L 316.453697 154.698492 
L 316.562473 156.681443 
L 316.780025 166.596197 
L 316.88826 166.596197 
L 316.997037 158.664393 
L 317.105813 170.562098 
L 317.214589 166.596197 
L 317.323366 152.715541 
L 317.432142 158.664393 
L 317.540918 202.289311 
L 317.75793 174.528 
L 317.866706 174.528 
L 317.975483 164.613246 
L 318.193035 174.528 
L 318.30127 170.562098 
L 318.410047 192.374557 
L 318.518823 188.408656 
L 318.627599 138.834885 
L 318.736376 204.272262 
L 318.953387 194.357508 
L 319.062163 134.868984 
L 319.388492 174.528 
L 319.497269 192.374557 
L 319.71428 174.528 
L 319.823056 186.425705 
L 319.931833 174.528 
L 320.040609 208.238164 
L 320.149385 158.664393 
L 320.258162 196.340459 
L 320.474632 160.647344 
L 320.583408 158.664393 
L 320.800961 184.442754 
L 320.909737 168.579148 
L 321.126207 188.408656 
L 321.234984 164.613246 
L 321.34376 166.596197 
L 321.452536 178.493902 
L 321.561313 222.11882 
L 321.670089 166.596197 
L 321.778324 192.374557 
L 321.995877 146.766689 
L 322.213429 172.545049 
L 322.322206 152.715541 
L 322.430441 158.664393 
L 322.538676 156.681443 
L 322.756229 168.579148 
L 322.865005 164.613246 
L 323.082016 128.920131 
L 323.299028 212.204066 
L 323.407804 210.221115 
L 323.51658 126.93718 
L 323.733592 170.562098 
L 323.841827 178.493902 
L 323.950603 196.340459 
L 324.05938 172.545049 
L 324.168156 180.476852 
L 324.276932 178.493902 
L 324.385709 164.613246 
L 324.60272 224.10177 
L 324.820273 144.783738 
L 324.929049 196.340459 
L 325.037825 154.698492 
L 325.14606 170.562098 
L 325.254837 164.613246 
L 325.472389 192.374557 
L 325.581166 172.545049 
L 325.689942 186.425705 
L 325.798177 148.749639 
L 325.906953 174.528 
L 326.01573 172.545049 
L 326.124506 176.510951 
L 326.233282 138.834885 
L 326.450835 184.442754 
L 326.667846 164.613246 
L 326.776623 178.493902 
L 326.885399 170.562098 
L 326.994175 182.459803 
L 327.102952 152.715541 
L 327.211187 186.425705 
L 327.319422 146.766689 
L 327.428198 176.510951 
L 327.536975 174.528 
L 327.645751 144.783738 
L 327.754527 168.579148 
L 327.862762 142.800787 
L 327.970998 200.306361 
L 328.18855 166.596197 
L 328.297327 190.391607 
L 328.406103 176.510951 
L 328.514338 180.476852 
L 328.731349 170.562098 
L 328.840126 168.579148 
L 328.948902 226.084721 
L 329.057678 190.391607 
L 329.166455 192.374557 
L 329.27469 164.613246 
L 329.383466 174.528 
L 329.601019 152.715541 
L 329.818571 176.510951 
L 329.926807 152.715541 
L 330.143818 180.476852 
L 330.252594 113.056525 
L 330.470147 202.289311 
L 330.578382 126.93718 
L 330.795394 188.408656 
L 330.90417 188.408656 
L 331.012946 172.545049 
L 331.121723 188.408656 
L 331.230499 178.493902 
L 331.338734 180.476852 
L 331.556286 160.647344 
L 331.665063 204.272262 
L 331.882615 176.510951 
L 331.990851 174.528 
L 332.099627 154.698492 
L 332.208403 168.579148 
L 332.31718 166.596197 
L 332.425956 168.579148 
L 332.534732 148.749639 
L 332.642967 180.476852 
L 332.751744 170.562098 
L 332.86052 178.493902 
L 332.969296 146.766689 
L 333.078073 196.340459 
L 333.186849 168.579148 
L 333.295625 170.562098 
L 333.40386 176.510951 
L 333.730189 158.664393 
L 333.838966 196.340459 
L 333.947742 138.834885 
L 334.055977 239.965377 
L 334.27353 160.647344 
L 334.382306 186.425705 
L 334.491082 162.630295 
L 334.599859 164.613246 
L 334.708635 156.681443 
L 334.81687 170.562098 
L 335.034423 162.630295 
L 335.143199 166.596197 
L 335.251975 111.073574 
L 335.360752 208.238164 
L 335.577222 150.73259 
L 335.685998 196.340459 
L 335.903551 184.442754 
L 336.012327 196.340459 
L 336.120562 170.562098 
L 336.337574 174.528 
L 336.44635 172.545049 
L 336.555127 212.204066 
L 336.663903 190.391607 
L 336.880373 247.89718 
L 337.097926 120.988328 
L 337.206702 184.442754 
L 337.315478 158.664393 
L 337.424255 164.613246 
L 337.53249 158.664393 
L 337.641266 178.493902 
L 337.750042 156.681443 
L 337.967595 210.221115 
L 338.076371 180.476852 
L 338.184606 230.050623 
L 338.293383 162.630295 
L 338.402159 178.493902 
L 338.510935 176.510951 
L 338.728488 188.408656 
L 338.837264 166.596197 
L 338.945499 192.374557 
L 339.054276 168.579148 
L 339.271828 196.340459 
L 339.380605 188.408656 
L 339.489381 146.766689 
L 339.597616 170.562098 
L 339.706392 162.630295 
L 339.923945 172.545049 
L 340.032721 166.596197 
L 340.141498 152.715541 
L 340.249733 115.039475 
L 340.575521 198.32341 
L 340.684297 170.562098 
L 340.793073 192.374557 
L 340.901308 172.545049 
L 341.11832 182.459803 
L 341.335873 170.562098 
L 341.444649 174.528 
L 341.552884 160.647344 
L 341.661119 176.510951 
L 341.769895 138.834885 
L 341.878672 212.204066 
L 341.987448 164.613246 
L 342.096224 182.459803 
L 342.205001 158.664393 
L 342.313236 166.596197 
L 342.422012 150.73259 
L 342.530788 166.596197 
L 342.639565 148.749639 
L 342.857117 192.374557 
L 343.073588 130.903082 
L 343.399917 172.545049 
L 343.508693 134.868984 
L 343.616928 188.408656 
L 343.725163 174.528 
L 343.833939 202.289311 
L 343.942716 178.493902 
L 344.051492 180.476852 
L 344.160269 164.613246 
L 344.269045 190.391607 
L 344.37728 188.408656 
L 344.486056 237.982426 
L 344.594833 226.084721 
L 344.703609 136.851934 
L 344.812385 206.255213 
L 344.921161 152.715541 
L 345.029397 178.493902 
L 345.138173 162.630295 
L 345.355726 166.596197 
L 345.573278 152.715541 
L 345.682054 214.187016 
L 345.79029 202.289311 
L 345.899066 136.851934 
L 346.007842 218.152918 
L 346.225395 180.476852 
L 346.334171 178.493902 
L 346.551183 160.647344 
L 346.877512 208.238164 
L 347.094523 176.510951 
L 347.203299 186.425705 
L 347.420852 152.715541 
L 347.529628 170.562098 
L 347.638405 156.681443 
L 347.855416 180.476852 
L 347.964192 128.920131 
L 348.181745 198.32341 
L 348.290521 180.476852 
L 348.399298 190.391607 
L 348.507533 184.442754 
L 348.615768 166.596197 
L 348.724544 186.425705 
L 348.833321 166.596197 
L 348.942097 168.579148 
L 349.050873 166.596197 
L 349.159108 172.545049 
L 349.267343 164.613246 
L 349.37612 178.493902 
L 349.593672 138.834885 
L 349.91946 228.067672 
L 350.137013 140.817836 
L 350.245789 158.664393 
L 350.354565 172.545049 
L 350.463342 150.73259 
L 350.679812 166.596197 
L 350.788588 192.374557 
L 350.897365 158.664393 
L 351.006141 208.238164 
L 351.114917 103.14177 
L 351.331388 200.306361 
L 351.657716 180.476852 
L 351.766493 174.528 
L 351.874728 160.647344 
L 352.091739 176.510951 
L 352.200516 174.528 
L 352.309292 158.664393 
L 352.418068 172.545049 
L 352.526845 170.562098 
L 352.63508 174.528 
L 352.852632 160.647344 
L 352.961409 200.306361 
L 353.178961 170.562098 
L 353.287196 172.545049 
L 353.395973 182.459803 
L 353.504749 178.493902 
L 353.613525 182.459803 
L 353.722302 160.647344 
L 353.831078 202.289311 
L 353.939313 192.374557 
L 354.04809 152.715541 
L 354.265642 168.579148 
L 354.374418 160.647344 
L 354.700206 180.476852 
L 354.808983 184.442754 
L 355.026535 154.698492 
L 355.135312 154.698492 
L 355.244088 180.476852 
L 355.352323 148.749639 
L 355.569334 180.476852 
L 355.678111 154.698492 
L 355.895663 174.528 
L 356.112134 154.698492 
L 356.22091 156.681443 
L 356.329686 180.476852 
L 356.438463 160.647344 
L 356.655474 176.510951 
L 356.763709 134.868984 
L 356.872485 166.596197 
L 356.981262 148.749639 
L 357.090038 190.391607 
L 357.198814 152.715541 
L 357.415826 170.562098 
L 357.524602 188.408656 
L 357.633379 174.528 
L 357.742155 188.408656 
L 357.959707 120.988328 
L 358.067943 186.425705 
L 358.176178 172.545049 
L 358.284954 174.528 
L 358.39373 164.613246 
L 358.611283 172.545049 
L 358.719518 196.340459 
L 358.93653 172.545049 
L 359.045306 176.510951 
L 359.262859 172.545049 
L 359.371635 210.221115 
L 359.47987 180.476852 
L 359.588646 182.459803 
L 359.697423 224.10177 
L 359.806199 132.886033 
L 359.914975 144.783738 
L 360.023751 172.545049 
L 360.131987 128.920131 
L 360.240763 188.408656 
L 360.349539 162.630295 
L 360.458316 170.562098 
L 360.567092 162.630295 
L 360.675868 182.459803 
L 360.784103 180.476852 
L 361.110432 208.238164 
L 361.219209 158.664393 
L 361.327985 192.374557 
L 361.436761 138.834885 
L 361.653773 178.493902 
L 361.762549 156.681443 
L 361.871325 172.545049 
L 362.088878 132.886033 
L 362.197113 170.562098 
L 362.305889 168.579148 
L 362.414666 122.971279 
L 362.632218 230.050623 
L 362.740995 158.664393 
L 362.849771 160.647344 
L 362.958006 180.476852 
L 363.175559 154.698492 
L 363.284335 164.613246 
L 363.393111 192.374557 
L 363.501888 142.800787 
L 363.610123 194.357508 
L 363.718358 95.209967 
L 363.935911 188.408656 
L 364.044687 152.715541 
L 364.261698 164.613246 
L 364.369934 176.510951 
L 364.47871 172.545049 
L 364.587486 162.630295 
L 364.696263 164.613246 
L 364.805039 172.545049 
L 364.913274 158.664393 
L 365.021509 162.630295 
L 365.130285 188.408656 
L 365.347838 168.579148 
L 365.456614 134.868984 
L 365.673626 182.459803 
L 365.782402 180.476852 
L 365.999955 160.647344 
L 366.108731 174.528 
L 366.217507 152.715541 
L 366.434519 188.408656 
L 366.543295 239.965377 
L 366.652071 140.817836 
L 366.9784 184.442754 
L 367.086635 186.425705 
L 367.195412 166.596197 
L 367.304188 174.528 
L 367.412965 166.596197 
L 367.738752 180.476852 
L 367.847528 174.528 
L 367.956305 148.749639 
L 368.065081 182.459803 
L 368.173857 156.681443 
L 368.282634 184.442754 
L 368.390869 182.459803 
L 368.60788 168.579148 
L 368.716657 174.528 
L 368.825433 194.357508 
L 369.042444 162.630295 
L 369.15068 170.562098 
L 369.259456 232.033574 
L 369.477009 152.715541 
L 369.585785 230.050623 
L 369.69402 152.715541 
L 369.911031 182.459803 
L 370.019808 186.425705 
L 370.128584 178.493902 
L 370.23736 184.442754 
L 370.454372 168.579148 
L 370.563148 172.545049 
L 370.671924 194.357508 
L 370.780701 176.510951 
L 370.889477 180.476852 
L 371.106489 154.698492 
L 371.214724 212.204066 
L 371.3235 150.73259 
L 371.432276 156.681443 
L 371.541053 180.476852 
L 371.758064 162.630295 
L 371.866299 170.562098 
L 371.975076 154.698492 
L 372.083852 178.493902 
L 372.192628 160.647344 
L 372.410181 192.374557 
L 372.518416 190.391607 
L 372.627192 154.698492 
L 372.735969 172.545049 
L 372.953521 160.647344 
L 373.170533 184.442754 
L 373.388085 178.493902 
L 373.496862 178.493902 
L 373.605638 190.391607 
L 373.714414 158.664393 
L 373.82319 232.033574 
L 373.931426 119.005377 
L 374.040202 150.73259 
L 374.148978 109.090623 
L 374.366531 168.579148 
L 374.475307 176.510951 
L 374.692319 160.647344 
L 374.801095 182.459803 
L 374.909871 180.476852 
L 375.018648 126.93718 
L 375.235659 210.221115 
L 375.344435 178.493902 
L 375.453212 214.187016 
L 375.670764 166.596197 
L 375.779541 182.459803 
L 375.888317 180.476852 
L 375.996552 182.459803 
L 376.214105 162.630295 
L 376.322881 178.493902 
L 376.431657 136.851934 
L 376.648669 196.340459 
L 376.86568 79.346361 
L 377.083233 174.528 
L 377.192009 166.596197 
L 377.300244 194.357508 
L 377.408479 152.715541 
L 377.517256 172.545049 
L 377.626032 168.579148 
L 377.734808 170.562098 
L 377.843585 158.664393 
L 378.060596 210.221115 
L 378.169373 150.73259 
L 378.278149 164.613246 
L 378.386925 162.630295 
L 378.495701 144.783738 
L 378.820948 186.425705 
L 379.038501 172.545049 
L 379.147277 166.596197 
L 379.256053 184.442754 
L 379.472524 174.528 
L 379.5813 188.408656 
L 379.690076 150.73259 
L 379.798853 200.306361 
L 379.907629 146.766689 
L 380.015864 184.442754 
L 380.124099 176.510951 
L 380.232875 136.851934 
L 380.341652 138.834885 
L 380.450428 182.459803 
L 380.559204 178.493902 
L 380.667981 166.596197 
L 380.776216 180.476852 
L 380.884992 178.493902 
L 380.993768 162.630295 
L 381.211321 204.272262 
L 381.320097 172.545049 
L 381.428332 196.340459 
L 381.537109 154.698492 
L 381.645885 166.596197 
L 381.754662 164.613246 
L 381.863438 176.510951 
L 381.972214 162.630295 
L 382.189226 178.493902 
L 382.298002 152.715541 
L 382.406778 220.135869 
L 382.515554 150.73259 
L 382.733107 188.408656 
L 382.841342 124.95423 
L 382.950119 190.391607 
L 383.167671 172.545049 
L 383.276448 176.510951 
L 383.385224 148.749639 
L 383.493459 194.357508 
L 383.601694 184.442754 
L 383.71047 186.425705 
L 383.928023 152.715541 
L 384.036799 186.425705 
L 384.25327 148.749639 
L 384.362046 186.425705 
L 384.579599 170.562098 
L 384.79661 176.510951 
L 384.904845 168.579148 
L 385.122398 182.459803 
L 385.231174 172.545049 
L 385.33995 174.528 
L 385.448727 180.476852 
L 385.774515 134.868984 
L 385.992067 172.545049 
L 386.209079 168.579148 
L 386.42609 190.391607 
L 386.643643 152.715541 
L 386.752419 158.664393 
L 386.860654 142.800787 
L 386.968889 210.221115 
L 387.295218 138.834885 
L 387.403995 192.374557 
L 387.621006 172.545049 
L 387.729782 158.664393 
L 387.947335 176.510951 
L 388.056111 160.647344 
L 388.164887 228.067672 
L 388.273123 138.834885 
L 388.490675 188.408656 
L 388.599452 152.715541 
L 388.708228 186.425705 
L 388.817004 176.510951 
L 388.925239 178.493902 
L 389.034016 168.579148 
L 389.142792 180.476852 
L 389.251568 162.630295 
L 389.469121 194.357508 
L 389.686132 140.817836 
L 389.903685 184.442754 
L 390.012461 176.510951 
L 390.121238 154.698492 
L 390.230014 172.545049 
L 390.447025 148.749639 
L 390.555802 222.11882 
L 390.773354 154.698492 
L 390.882131 192.374557 
L 390.990907 168.579148 
L 391.099142 176.510951 
L 391.207918 174.528 
L 391.316695 182.459803 
L 391.534248 166.596197 
L 391.643024 174.528 
L 391.751259 168.579148 
L 391.859494 176.510951 
L 391.96827 142.800787 
L 392.077047 210.221115 
L 392.402834 150.73259 
L 392.51107 180.476852 
L 392.728622 162.630295 
L 392.837399 162.630295 
L 392.946175 168.579148 
L 393.05441 164.613246 
L 393.162645 182.459803 
L 393.271421 180.476852 
L 393.380198 208.238164 
L 393.488974 202.289311 
L 393.706527 174.528 
L 393.923538 172.545049 
L 394.032314 182.459803 
L 394.141091 174.528 
L 394.249867 178.493902 
L 394.466878 128.920131 
L 394.575655 132.886033 
L 394.684431 172.545049 
L 394.793207 144.783738 
L 395.01076 166.596197 
L 395.227772 182.459803 
L 395.445324 162.630295 
L 395.554101 178.493902 
L 395.662877 144.783738 
L 395.771653 196.340459 
L 395.879888 132.886033 
L 395.988664 200.306361 
L 396.097441 119.005377 
L 396.314994 184.442754 
L 396.532005 178.493902 
L 396.64024 180.476852 
L 396.749016 154.698492 
L 396.857793 176.510951 
L 396.966569 168.579148 
L 397.18358 146.766689 
L 397.291816 136.851934 
L 397.400592 198.32341 
L 397.509368 152.715541 
L 397.726921 184.442754 
L 397.943391 154.698492 
L 398.052168 166.596197 
L 398.160944 164.613246 
L 398.26972 186.425705 
L 398.378496 170.562098 
L 398.487273 182.459803 
L 398.487273 182.459803 
" style="fill:none;stroke:#1f77b4;stroke-linecap:square;stroke-width:1.5;"/>
   </g>
   <g id="patch_3">
    <path d="M 57.6 307.584 
L 57.6 41.472 
" style="fill:none;stroke:#000000;stroke-linecap:square;stroke-linejoin:miter;stroke-width:0.8;"/>
   </g>
   <g id="patch_4">
    <path d="M 414.72 307.584 
L 414.72 41.472 
" style="fill:none;stroke:#000000;stroke-linecap:square;stroke-linejoin:miter;stroke-width:0.8;"/>
   </g>
   <g id="patch_5">
    <path d="M 57.6 307.584 
L 414.72 307.584 
" style="fill:none;stroke:#000000;stroke-linecap:square;stroke-linejoin:miter;stroke-width:0.8;"/>
   </g>
   <g id="patch_6">
    <path d="M 57.6 41.472 
L 414.72 41.472 
" style="fill:none;stroke:#000000;stroke-linecap:square;stroke-linejoin:miter;stroke-width:0.8;"/>
   </g>
   <g id="text_18">
    <!-- Voltage measured with source voltage 100.0 mV -->
    <defs>
     <path d="M 52 44.1875 
Q 55.375 50.25 60.0625 53.125 
Q 64.75 56 71.09375 56 
Q 79.640625 56 84.28125 50.015625 
Q 88.921875 44.046875 88.921875 33.015625 
L 88.921875 0 
L 79.890625 0 
L 79.890625 32.71875 
Q 79.890625 40.578125 77.09375 44.375 
Q 74.3125 48.1875 68.609375 48.1875 
Q 61.625 48.1875 57.5625 43.546875 
Q 53.515625 38.921875 53.515625 30.90625 
L 53.515625 0 
L 44.484375 0 
L 44.484375 32.71875 
Q 44.484375 40.625 41.703125 44.40625 
Q 38.921875 48.1875 33.109375 48.1875 
Q 26.21875 48.1875 22.15625 43.53125 
Q 18.109375 38.875 18.109375 30.90625 
L 18.109375 0 
L 9.078125 0 
L 9.078125 54.6875 
L 18.109375 54.6875 
L 18.109375 46.1875 
Q 21.1875 51.21875 25.484375 53.609375 
Q 29.78125 56 35.6875 56 
Q 41.65625 56 45.828125 52.96875 
Q 50 49.953125 52 44.1875 
z
" id="DejaVuSans-6d"/>
     <path d="M 8.5 21.578125 
L 8.5 54.6875 
L 17.484375 54.6875 
L 17.484375 21.921875 
Q 17.484375 14.15625 20.5 10.265625 
Q 23.53125 6.390625 29.59375 6.390625 
Q 36.859375 6.390625 41.078125 11.03125 
Q 45.3125 15.671875 45.3125 23.6875 
L 45.3125 54.6875 
L 54.296875 54.6875 
L 54.296875 0 
L 45.3125 0 
L 45.3125 8.40625 
Q 42.046875 3.421875 37.71875 1 
Q 33.40625 -1.421875 27.6875 -1.421875 
Q 18.265625 -1.421875 13.375 4.4375 
Q 8.5 10.296875 8.5 21.578125 
z
M 31.109375 56 
z
" id="DejaVuSans-75"/>
     <path d="M 41.109375 46.296875 
Q 39.59375 47.171875 37.8125 47.578125 
Q 36.03125 48 33.890625 48 
Q 26.265625 48 22.1875 43.046875 
Q 18.109375 38.09375 18.109375 28.8125 
L 18.109375 0 
L 9.078125 0 
L 9.078125 54.6875 
L 18.109375 54.6875 
L 18.109375 46.1875 
Q 20.953125 51.171875 25.484375 53.578125 
Q 30.03125 56 36.53125 56 
Q 37.453125 56 38.578125 55.875 
Q 39.703125 55.765625 41.0625 55.515625 
z
" id="DejaVuSans-72"/>
     <path d="M 45.40625 46.390625 
L 45.40625 75.984375 
L 54.390625 75.984375 
L 54.390625 0 
L 45.40625 0 
L 45.40625 8.203125 
Q 42.578125 3.328125 38.25 0.953125 
Q 33.9375 -1.421875 27.875 -1.421875 
Q 17.96875 -1.421875 11.734375 6.484375 
Q 5.515625 14.40625 5.515625 27.296875 
Q 5.515625 40.1875 11.734375 48.09375 
Q 17.96875 56 27.875 56 
Q 33.9375 56 38.25 53.625 
Q 42.578125 51.265625 45.40625 46.390625 
z
M 14.796875 27.296875 
Q 14.796875 17.390625 18.875 11.75 
Q 22.953125 6.109375 30.078125 6.109375 
Q 37.203125 6.109375 41.296875 11.75 
Q 45.40625 17.390625 45.40625 27.296875 
Q 45.40625 37.203125 41.296875 42.84375 
Q 37.203125 48.484375 30.078125 48.484375 
Q 22.953125 48.484375 18.875 42.84375 
Q 14.796875 37.203125 14.796875 27.296875 
z
" id="DejaVuSans-64"/>
     <path d="M 4.203125 54.6875 
L 13.1875 54.6875 
L 24.421875 12.015625 
L 35.59375 54.6875 
L 46.1875 54.6875 
L 57.421875 12.015625 
L 68.609375 54.6875 
L 77.59375 54.6875 
L 63.28125 0 
L 52.6875 0 
L 40.921875 44.828125 
L 29.109375 0 
L 18.5 0 
z
" id="DejaVuSans-77"/>
     <path d="M 9.421875 54.6875 
L 18.40625 54.6875 
L 18.40625 0 
L 9.421875 0 
z
M 9.421875 75.984375 
L 18.40625 75.984375 
L 18.40625 64.59375 
L 9.421875 64.59375 
z
" id="DejaVuSans-69"/>
     <path d="M 54.890625 33.015625 
L 54.890625 0 
L 45.90625 0 
L 45.90625 32.71875 
Q 45.90625 40.484375 42.875 44.328125 
Q 39.84375 48.1875 33.796875 48.1875 
Q 26.515625 48.1875 22.3125 43.546875 
Q 18.109375 38.921875 18.109375 30.90625 
L 18.109375 0 
L 9.078125 0 
L 9.078125 75.984375 
L 18.109375 75.984375 
L 18.109375 46.1875 
Q 21.34375 51.125 25.703125 53.5625 
Q 30.078125 56 35.796875 56 
Q 45.21875 56 50.046875 50.171875 
Q 54.890625 44.34375 54.890625 33.015625 
z
" id="DejaVuSans-68"/>
     <path d="M 48.78125 52.59375 
L 48.78125 44.1875 
Q 44.96875 46.296875 41.140625 47.34375 
Q 37.3125 48.390625 33.40625 48.390625 
Q 24.65625 48.390625 19.8125 42.84375 
Q 14.984375 37.3125 14.984375 27.296875 
Q 14.984375 17.28125 19.8125 11.734375 
Q 24.65625 6.203125 33.40625 6.203125 
Q 37.3125 6.203125 41.140625 7.25 
Q 44.96875 8.296875 48.78125 10.40625 
L 48.78125 2.09375 
Q 45.015625 0.34375 40.984375 -0.53125 
Q 36.96875 -1.421875 32.421875 -1.421875 
Q 20.0625 -1.421875 12.78125 6.34375 
Q 5.515625 14.109375 5.515625 27.296875 
Q 5.515625 40.671875 12.859375 48.328125 
Q 20.21875 56 33.015625 56 
Q 37.15625 56 41.109375 55.140625 
Q 45.0625 54.296875 48.78125 52.59375 
z
" id="DejaVuSans-63"/>
     <path d="M 2.984375 54.6875 
L 12.5 54.6875 
L 29.59375 8.796875 
L 46.6875 54.6875 
L 56.203125 54.6875 
L 35.6875 0 
L 23.484375 0 
z
" id="DejaVuSans-76"/>
    </defs>
    <g transform="translate(89.3175 35.472)scale(0.12 -0.12)">
     <use xlink:href="#DejaVuSans-56"/>
     <use x="68.298828" xlink:href="#DejaVuSans-6f"/>
     <use x="129.480469" xlink:href="#DejaVuSans-6c"/>
     <use x="157.263672" xlink:href="#DejaVuSans-74"/>
     <use x="196.472656" xlink:href="#DejaVuSans-61"/>
     <use x="257.751953" xlink:href="#DejaVuSans-67"/>
     <use x="321.228516" xlink:href="#DejaVuSans-65"/>
     <use x="382.751953" xlink:href="#DejaVuSans-20"/>
     <use x="414.539062" xlink:href="#DejaVuSans-6d"/>
     <use x="511.951172" xlink:href="#DejaVuSans-65"/>
     <use x="573.474609" xlink:href="#DejaVuSans-61"/>
     <use x="634.753906" xlink:href="#DejaVuSans-73"/>
     <use x="686.853516" xlink:href="#DejaVuSans-75"/>
     <use x="750.232422" xlink:href="#DejaVuSans-72"/>
     <use x="791.314453" xlink:href="#DejaVuSans-65"/>
     <use x="852.837891" xlink:href="#DejaVuSans-64"/>
     <use x="916.314453" xlink:href="#DejaVuSans-20"/>
     <use x="948.101562" xlink:href="#DejaVuSans-77"/>
     <use x="1029.888672" xlink:href="#DejaVuSans-69"/>
     <use x="1057.671875" xlink:href="#DejaVuSans-74"/>
     <use x="1096.880859" xlink:href="#DejaVuSans-68"/>
     <use x="1160.259766" xlink:href="#DejaVuSans-20"/>
     <use x="1192.046875" xlink:href="#DejaVuSans-73"/>
     <use x="1244.146484" xlink:href="#DejaVuSans-6f"/>
     <use x="1305.328125" xlink:href="#DejaVuSans-75"/>
     <use x="1368.707031" xlink:href="#DejaVuSans-72"/>
     <use x="1409.789062" xlink:href="#DejaVuSans-63"/>
     <use x="1464.769531" xlink:href="#DejaVuSans-65"/>
     <use x="1526.292969" xlink:href="#DejaVuSans-20"/>
     <use x="1558.080078" xlink:href="#DejaVuSans-76"/>
     <use x="1617.259766" xlink:href="#DejaVuSans-6f"/>
     <use x="1678.441406" xlink:href="#DejaVuSans-6c"/>
     <use x="1706.224609" xlink:href="#DejaVuSans-74"/>
     <use x="1745.433594" xlink:href="#DejaVuSans-61"/>
     <use x="1806.712891" xlink:href="#DejaVuSans-67"/>
     <use x="1870.189453" xlink:href="#DejaVuSans-65"/>
     <use x="1931.712891" xlink:href="#DejaVuSans-20"/>
     <use x="1963.5" xlink:href="#DejaVuSans-31"/>
     <use x="2027.123047" xlink:href="#DejaVuSans-30"/>
     <use x="2090.746094" xlink:href="#DejaVuSans-30"/>
     <use x="2154.369141" xlink:href="#DejaVuSans-2e"/>
     <use x="2186.15625" xlink:href="#DejaVuSans-30"/>
     <use x="2249.779297" xlink:href="#DejaVuSans-20"/>
     <use x="2281.566406" xlink:href="#DejaVuSans-6d"/>
     <use x="2378.978516" xlink:href="#DejaVuSans-56"/>
    </g>
   </g>
  </g>
 </g>
 <defs>
  <clipPath id="p74dc45df6c">
   <rect height="266.112" width="357.12" x="57.6" y="41.472"/>
  </clipPath>
 </defs>
</svg>
