<?xml version="1.0" encoding="utf-8" standalone="no"?>
<!DOCTYPE svg PUBLIC "-//W3C//DTD SVG 1.1//EN"
  "http://www.w3.org/Graphics/SVG/1.1/DTD/svg11.dtd">
<!-- Created with matplotlib (http://matplotlib.org/) -->
<svg height="345pt" version="1.1" viewBox="0 0 460 345" width="460pt" xmlns="http://www.w3.org/2000/svg" xmlns:xlink="http://www.w3.org/1999/xlink">
 <defs>
  <style type="text/css">
*{stroke-linecap:butt;stroke-linejoin:round;}
  </style>
 </defs>
 <g id="figure_1">
  <g id="patch_1">
   <path d="M 0 345.6 
L 460.8 345.6 
L 460.8 0 
L 0 0 
z
" style="fill:#ffffff;"/>
  </g>
  <g id="axes_1">
   <g id="patch_2">
    <path d="M 57.6 307.584 
L 414.72 307.584 
L 414.72 41.472 
L 57.6 41.472 
z
" style="fill:#ffffff;"/>
   </g>
   <g id="matplotlib.axis_1">
    <g id="xtick_1">
     <g id="line2d_1">
      <defs>
       <path d="M 0 0 
L 0 3.5 
" id="m2fc232643a" style="stroke:#000000;stroke-width:0.8;"/>
      </defs>
      <g>
       <use style="stroke:#000000;stroke-width:0.8;" x="73.832727" xlink:href="#m2fc232643a" y="307.584"/>
      </g>
     </g>
     <g id="text_1">
      <!-- 0 -->
      <defs>
       <path d="M 31.78125 66.40625 
Q 24.171875 66.40625 20.328125 58.90625 
Q 16.5 51.421875 16.5 36.375 
Q 16.5 21.390625 20.328125 13.890625 
Q 24.171875 6.390625 31.78125 6.390625 
Q 39.453125 6.390625 43.28125 13.890625 
Q 47.125 21.390625 47.125 36.375 
Q 47.125 51.421875 43.28125 58.90625 
Q 39.453125 66.40625 31.78125 66.40625 
z
M 31.78125 74.21875 
Q 44.046875 74.21875 50.515625 64.515625 
Q 56.984375 54.828125 56.984375 36.375 
Q 56.984375 17.96875 50.515625 8.265625 
Q 44.046875 -1.421875 31.78125 -1.421875 
Q 19.53125 -1.421875 13.0625 8.265625 
Q 6.59375 17.96875 6.59375 36.375 
Q 6.59375 54.828125 13.0625 64.515625 
Q 19.53125 74.21875 31.78125 74.21875 
z
" id="DejaVuSans-30"/>
      </defs>
      <g transform="translate(70.651477 322.182437)scale(0.1 -0.1)">
       <use xlink:href="#DejaVuSans-30"/>
      </g>
     </g>
    </g>
    <g id="xtick_2">
     <g id="line2d_2">
      <g>
       <use style="stroke:#000000;stroke-width:0.8;" x="127.950567" xlink:href="#m2fc232643a" y="307.584"/>
      </g>
     </g>
     <g id="text_2">
      <!-- 100 -->
      <defs>
       <path d="M 12.40625 8.296875 
L 28.515625 8.296875 
L 28.515625 63.921875 
L 10.984375 60.40625 
L 10.984375 69.390625 
L 28.421875 72.90625 
L 38.28125 72.90625 
L 38.28125 8.296875 
L 54.390625 8.296875 
L 54.390625 0 
L 12.40625 0 
z
" id="DejaVuSans-31"/>
      </defs>
      <g transform="translate(118.406817 322.182437)scale(0.1 -0.1)">
       <use xlink:href="#DejaVuSans-31"/>
       <use x="63.623047" xlink:href="#DejaVuSans-30"/>
       <use x="127.246094" xlink:href="#DejaVuSans-30"/>
      </g>
     </g>
    </g>
    <g id="xtick_3">
     <g id="line2d_3">
      <g>
       <use style="stroke:#000000;stroke-width:0.8;" x="182.068407" xlink:href="#m2fc232643a" y="307.584"/>
      </g>
     </g>
     <g id="text_3">
      <!-- 200 -->
      <defs>
       <path d="M 19.1875 8.296875 
L 53.609375 8.296875 
L 53.609375 0 
L 7.328125 0 
L 7.328125 8.296875 
Q 12.9375 14.109375 22.625 23.890625 
Q 32.328125 33.6875 34.8125 36.53125 
Q 39.546875 41.84375 41.421875 45.53125 
Q 43.3125 49.21875 43.3125 52.78125 
Q 43.3125 58.59375 39.234375 62.25 
Q 35.15625 65.921875 28.609375 65.921875 
Q 23.96875 65.921875 18.8125 64.3125 
Q 13.671875 62.703125 7.8125 59.421875 
L 7.8125 69.390625 
Q 13.765625 71.78125 18.9375 73 
Q 24.125 74.21875 28.421875 74.21875 
Q 39.75 74.21875 46.484375 68.546875 
Q 53.21875 62.890625 53.21875 53.421875 
Q 53.21875 48.921875 51.53125 44.890625 
Q 49.859375 40.875 45.40625 35.40625 
Q 44.1875 33.984375 37.640625 27.21875 
Q 31.109375 20.453125 19.1875 8.296875 
z
" id="DejaVuSans-32"/>
      </defs>
      <g transform="translate(172.524657 322.182437)scale(0.1 -0.1)">
       <use xlink:href="#DejaVuSans-32"/>
       <use x="63.623047" xlink:href="#DejaVuSans-30"/>
       <use x="127.246094" xlink:href="#DejaVuSans-30"/>
      </g>
     </g>
    </g>
    <g id="xtick_4">
     <g id="line2d_4">
      <g>
       <use style="stroke:#000000;stroke-width:0.8;" x="236.186247" xlink:href="#m2fc232643a" y="307.584"/>
      </g>
     </g>
     <g id="text_4">
      <!-- 300 -->
      <defs>
       <path d="M 40.578125 39.3125 
Q 47.65625 37.796875 51.625 33 
Q 55.609375 28.21875 55.609375 21.1875 
Q 55.609375 10.40625 48.1875 4.484375 
Q 40.765625 -1.421875 27.09375 -1.421875 
Q 22.515625 -1.421875 17.65625 -0.515625 
Q 12.796875 0.390625 7.625 2.203125 
L 7.625 11.71875 
Q 11.71875 9.328125 16.59375 8.109375 
Q 21.484375 6.890625 26.8125 6.890625 
Q 36.078125 6.890625 40.9375 10.546875 
Q 45.796875 14.203125 45.796875 21.1875 
Q 45.796875 27.640625 41.28125 31.265625 
Q 36.765625 34.90625 28.71875 34.90625 
L 20.21875 34.90625 
L 20.21875 43.015625 
L 29.109375 43.015625 
Q 36.375 43.015625 40.234375 45.921875 
Q 44.09375 48.828125 44.09375 54.296875 
Q 44.09375 59.90625 40.109375 62.90625 
Q 36.140625 65.921875 28.71875 65.921875 
Q 24.65625 65.921875 20.015625 65.03125 
Q 15.375 64.15625 9.8125 62.3125 
L 9.8125 71.09375 
Q 15.4375 72.65625 20.34375 73.4375 
Q 25.25 74.21875 29.59375 74.21875 
Q 40.828125 74.21875 47.359375 69.109375 
Q 53.90625 64.015625 53.90625 55.328125 
Q 53.90625 49.265625 50.4375 45.09375 
Q 46.96875 40.921875 40.578125 39.3125 
z
" id="DejaVuSans-33"/>
      </defs>
      <g transform="translate(226.642497 322.182437)scale(0.1 -0.1)">
       <use xlink:href="#DejaVuSans-33"/>
       <use x="63.623047" xlink:href="#DejaVuSans-30"/>
       <use x="127.246094" xlink:href="#DejaVuSans-30"/>
      </g>
     </g>
    </g>
    <g id="xtick_5">
     <g id="line2d_5">
      <g>
       <use style="stroke:#000000;stroke-width:0.8;" x="290.304087" xlink:href="#m2fc232643a" y="307.584"/>
      </g>
     </g>
     <g id="text_5">
      <!-- 400 -->
      <defs>
       <path d="M 37.796875 64.3125 
L 12.890625 25.390625 
L 37.796875 25.390625 
z
M 35.203125 72.90625 
L 47.609375 72.90625 
L 47.609375 25.390625 
L 58.015625 25.390625 
L 58.015625 17.1875 
L 47.609375 17.1875 
L 47.609375 0 
L 37.796875 0 
L 37.796875 17.1875 
L 4.890625 17.1875 
L 4.890625 26.703125 
z
" id="DejaVuSans-34"/>
      </defs>
      <g transform="translate(280.760337 322.182437)scale(0.1 -0.1)">
       <use xlink:href="#DejaVuSans-34"/>
       <use x="63.623047" xlink:href="#DejaVuSans-30"/>
       <use x="127.246094" xlink:href="#DejaVuSans-30"/>
      </g>
     </g>
    </g>
    <g id="xtick_6">
     <g id="line2d_6">
      <g>
       <use style="stroke:#000000;stroke-width:0.8;" x="344.421927" xlink:href="#m2fc232643a" y="307.584"/>
      </g>
     </g>
     <g id="text_6">
      <!-- 500 -->
      <defs>
       <path d="M 10.796875 72.90625 
L 49.515625 72.90625 
L 49.515625 64.59375 
L 19.828125 64.59375 
L 19.828125 46.734375 
Q 21.96875 47.46875 24.109375 47.828125 
Q 26.265625 48.1875 28.421875 48.1875 
Q 40.625 48.1875 47.75 41.5 
Q 54.890625 34.8125 54.890625 23.390625 
Q 54.890625 11.625 47.5625 5.09375 
Q 40.234375 -1.421875 26.90625 -1.421875 
Q 22.3125 -1.421875 17.546875 -0.640625 
Q 12.796875 0.140625 7.71875 1.703125 
L 7.71875 11.625 
Q 12.109375 9.234375 16.796875 8.0625 
Q 21.484375 6.890625 26.703125 6.890625 
Q 35.15625 6.890625 40.078125 11.328125 
Q 45.015625 15.765625 45.015625 23.390625 
Q 45.015625 31 40.078125 35.4375 
Q 35.15625 39.890625 26.703125 39.890625 
Q 22.75 39.890625 18.8125 39.015625 
Q 14.890625 38.140625 10.796875 36.28125 
z
" id="DejaVuSans-35"/>
      </defs>
      <g transform="translate(334.878177 322.182437)scale(0.1 -0.1)">
       <use xlink:href="#DejaVuSans-35"/>
       <use x="63.623047" xlink:href="#DejaVuSans-30"/>
       <use x="127.246094" xlink:href="#DejaVuSans-30"/>
      </g>
     </g>
    </g>
    <g id="xtick_7">
     <g id="line2d_7">
      <g>
       <use style="stroke:#000000;stroke-width:0.8;" x="398.539767" xlink:href="#m2fc232643a" y="307.584"/>
      </g>
     </g>
     <g id="text_7">
      <!-- 600 -->
      <defs>
       <path d="M 33.015625 40.375 
Q 26.375 40.375 22.484375 35.828125 
Q 18.609375 31.296875 18.609375 23.390625 
Q 18.609375 15.53125 22.484375 10.953125 
Q 26.375 6.390625 33.015625 6.390625 
Q 39.65625 6.390625 43.53125 10.953125 
Q 47.40625 15.53125 47.40625 23.390625 
Q 47.40625 31.296875 43.53125 35.828125 
Q 39.65625 40.375 33.015625 40.375 
z
M 52.59375 71.296875 
L 52.59375 62.3125 
Q 48.875 64.0625 45.09375 64.984375 
Q 41.3125 65.921875 37.59375 65.921875 
Q 27.828125 65.921875 22.671875 59.328125 
Q 17.53125 52.734375 16.796875 39.40625 
Q 19.671875 43.65625 24.015625 45.921875 
Q 28.375 48.1875 33.59375 48.1875 
Q 44.578125 48.1875 50.953125 41.515625 
Q 57.328125 34.859375 57.328125 23.390625 
Q 57.328125 12.15625 50.6875 5.359375 
Q 44.046875 -1.421875 33.015625 -1.421875 
Q 20.359375 -1.421875 13.671875 8.265625 
Q 6.984375 17.96875 6.984375 36.375 
Q 6.984375 53.65625 15.1875 63.9375 
Q 23.390625 74.21875 37.203125 74.21875 
Q 40.921875 74.21875 44.703125 73.484375 
Q 48.484375 72.75 52.59375 71.296875 
z
" id="DejaVuSans-36"/>
      </defs>
      <g transform="translate(388.996017 322.182437)scale(0.1 -0.1)">
       <use xlink:href="#DejaVuSans-36"/>
       <use x="63.623047" xlink:href="#DejaVuSans-30"/>
       <use x="127.246094" xlink:href="#DejaVuSans-30"/>
      </g>
     </g>
    </g>
    <g id="text_8">
     <!-- t(s) -->
     <defs>
      <path d="M 18.3125 70.21875 
L 18.3125 54.6875 
L 36.8125 54.6875 
L 36.8125 47.703125 
L 18.3125 47.703125 
L 18.3125 18.015625 
Q 18.3125 11.328125 20.140625 9.421875 
Q 21.96875 7.515625 27.59375 7.515625 
L 36.8125 7.515625 
L 36.8125 0 
L 27.59375 0 
Q 17.1875 0 13.234375 3.875 
Q 9.28125 7.765625 9.28125 18.015625 
L 9.28125 47.703125 
L 2.6875 47.703125 
L 2.6875 54.6875 
L 9.28125 54.6875 
L 9.28125 70.21875 
z
" id="DejaVuSans-74"/>
      <path d="M 31 75.875 
Q 24.46875 64.65625 21.28125 53.65625 
Q 18.109375 42.671875 18.109375 31.390625 
Q 18.109375 20.125 21.3125 9.0625 
Q 24.515625 -2 31 -13.1875 
L 23.1875 -13.1875 
Q 15.875 -1.703125 12.234375 9.375 
Q 8.59375 20.453125 8.59375 31.390625 
Q 8.59375 42.28125 12.203125 53.3125 
Q 15.828125 64.359375 23.1875 75.875 
z
" id="DejaVuSans-28"/>
      <path d="M 44.28125 53.078125 
L 44.28125 44.578125 
Q 40.484375 46.53125 36.375 47.5 
Q 32.28125 48.484375 27.875 48.484375 
Q 21.1875 48.484375 17.84375 46.4375 
Q 14.5 44.390625 14.5 40.28125 
Q 14.5 37.15625 16.890625 35.375 
Q 19.28125 33.59375 26.515625 31.984375 
L 29.59375 31.296875 
Q 39.15625 29.25 43.1875 25.515625 
Q 47.21875 21.78125 47.21875 15.09375 
Q 47.21875 7.46875 41.1875 3.015625 
Q 35.15625 -1.421875 24.609375 -1.421875 
Q 20.21875 -1.421875 15.453125 -0.5625 
Q 10.6875 0.296875 5.421875 2 
L 5.421875 11.28125 
Q 10.40625 8.6875 15.234375 7.390625 
Q 20.0625 6.109375 24.8125 6.109375 
Q 31.15625 6.109375 34.5625 8.28125 
Q 37.984375 10.453125 37.984375 14.40625 
Q 37.984375 18.0625 35.515625 20.015625 
Q 33.0625 21.96875 24.703125 23.78125 
L 21.578125 24.515625 
Q 13.234375 26.265625 9.515625 29.90625 
Q 5.8125 33.546875 5.8125 39.890625 
Q 5.8125 47.609375 11.28125 51.796875 
Q 16.75 56 26.8125 56 
Q 31.78125 56 36.171875 55.265625 
Q 40.578125 54.546875 44.28125 53.078125 
z
" id="DejaVuSans-73"/>
      <path d="M 8.015625 75.875 
L 15.828125 75.875 
Q 23.140625 64.359375 26.78125 53.3125 
Q 30.421875 42.28125 30.421875 31.390625 
Q 30.421875 20.453125 26.78125 9.375 
Q 23.140625 -1.703125 15.828125 -13.1875 
L 8.015625 -13.1875 
Q 14.5 -2 17.703125 9.0625 
Q 20.90625 20.125 20.90625 31.390625 
Q 20.90625 42.671875 17.703125 53.65625 
Q 14.5 64.65625 8.015625 75.875 
z
" id="DejaVuSans-29"/>
     </defs>
     <g transform="translate(227.693594 335.860562)scale(0.1 -0.1)">
      <use xlink:href="#DejaVuSans-74"/>
      <use x="39.208984" xlink:href="#DejaVuSans-28"/>
      <use x="78.222656" xlink:href="#DejaVuSans-73"/>
      <use x="130.322266" xlink:href="#DejaVuSans-29"/>
     </g>
    </g>
   </g>
   <g id="matplotlib.axis_2">
    <g id="ytick_1">
     <g id="line2d_8">
      <defs>
       <path d="M 0 0 
L -3.5 0 
" id="mc1544dac82" style="stroke:#000000;stroke-width:0.8;"/>
      </defs>
      <g>
       <use style="stroke:#000000;stroke-width:0.8;" x="57.6" xlink:href="#mc1544dac82" y="269.496595"/>
      </g>
     </g>
     <g id="text_9">
      <!-- 1.09 -->
      <defs>
       <path d="M 10.6875 12.40625 
L 21 12.40625 
L 21 0 
L 10.6875 0 
z
" id="DejaVuSans-2e"/>
       <path d="M 10.984375 1.515625 
L 10.984375 10.5 
Q 14.703125 8.734375 18.5 7.8125 
Q 22.3125 6.890625 25.984375 6.890625 
Q 35.75 6.890625 40.890625 13.453125 
Q 46.046875 20.015625 46.78125 33.40625 
Q 43.953125 29.203125 39.59375 26.953125 
Q 35.25 24.703125 29.984375 24.703125 
Q 19.046875 24.703125 12.671875 31.3125 
Q 6.296875 37.9375 6.296875 49.421875 
Q 6.296875 60.640625 12.9375 67.421875 
Q 19.578125 74.21875 30.609375 74.21875 
Q 43.265625 74.21875 49.921875 64.515625 
Q 56.59375 54.828125 56.59375 36.375 
Q 56.59375 19.140625 48.40625 8.859375 
Q 40.234375 -1.421875 26.421875 -1.421875 
Q 22.703125 -1.421875 18.890625 -0.6875 
Q 15.09375 0.046875 10.984375 1.515625 
z
M 30.609375 32.421875 
Q 37.25 32.421875 41.125 36.953125 
Q 45.015625 41.5 45.015625 49.421875 
Q 45.015625 57.28125 41.125 61.84375 
Q 37.25 66.40625 30.609375 66.40625 
Q 23.96875 66.40625 20.09375 61.84375 
Q 16.21875 57.28125 16.21875 49.421875 
Q 16.21875 41.5 20.09375 36.953125 
Q 23.96875 32.421875 30.609375 32.421875 
z
" id="DejaVuSans-39"/>
      </defs>
      <g transform="translate(28.334375 273.295814)scale(0.1 -0.1)">
       <use xlink:href="#DejaVuSans-31"/>
       <use x="63.623047" xlink:href="#DejaVuSans-2e"/>
       <use x="95.410156" xlink:href="#DejaVuSans-30"/>
       <use x="159.033203" xlink:href="#DejaVuSans-39"/>
      </g>
     </g>
    </g>
    <g id="ytick_2">
     <g id="line2d_9">
      <g>
       <use style="stroke:#000000;stroke-width:0.8;" x="57.6" xlink:href="#mc1544dac82" y="219.513124"/>
      </g>
     </g>
     <g id="text_10">
      <!-- 1.10 -->
      <g transform="translate(28.334375 223.312343)scale(0.1 -0.1)">
       <use xlink:href="#DejaVuSans-31"/>
       <use x="63.623047" xlink:href="#DejaVuSans-2e"/>
       <use x="95.410156" xlink:href="#DejaVuSans-31"/>
       <use x="159.033203" xlink:href="#DejaVuSans-30"/>
      </g>
     </g>
    </g>
    <g id="ytick_3">
     <g id="line2d_10">
      <g>
       <use style="stroke:#000000;stroke-width:0.8;" x="57.6" xlink:href="#mc1544dac82" y="169.529653"/>
      </g>
     </g>
     <g id="text_11">
      <!-- 1.11 -->
      <g transform="translate(28.334375 173.328872)scale(0.1 -0.1)">
       <use xlink:href="#DejaVuSans-31"/>
       <use x="63.623047" xlink:href="#DejaVuSans-2e"/>
       <use x="95.410156" xlink:href="#DejaVuSans-31"/>
       <use x="159.033203" xlink:href="#DejaVuSans-31"/>
      </g>
     </g>
    </g>
    <g id="ytick_4">
     <g id="line2d_11">
      <g>
       <use style="stroke:#000000;stroke-width:0.8;" x="57.6" xlink:href="#mc1544dac82" y="119.546182"/>
      </g>
     </g>
     <g id="text_12">
      <!-- 1.12 -->
      <g transform="translate(28.334375 123.345401)scale(0.1 -0.1)">
       <use xlink:href="#DejaVuSans-31"/>
       <use x="63.623047" xlink:href="#DejaVuSans-2e"/>
       <use x="95.410156" xlink:href="#DejaVuSans-31"/>
       <use x="159.033203" xlink:href="#DejaVuSans-32"/>
      </g>
     </g>
    </g>
    <g id="ytick_5">
     <g id="line2d_12">
      <g>
       <use style="stroke:#000000;stroke-width:0.8;" x="57.6" xlink:href="#mc1544dac82" y="69.562711"/>
      </g>
     </g>
     <g id="text_13">
      <!-- 1.13 -->
      <g transform="translate(28.334375 73.361929)scale(0.1 -0.1)">
       <use xlink:href="#DejaVuSans-31"/>
       <use x="63.623047" xlink:href="#DejaVuSans-2e"/>
       <use x="95.410156" xlink:href="#DejaVuSans-31"/>
       <use x="159.033203" xlink:href="#DejaVuSans-33"/>
      </g>
     </g>
    </g>
    <g id="text_14">
     <!-- Current (nA) -->
     <defs>
      <path d="M 64.40625 67.28125 
L 64.40625 56.890625 
Q 59.421875 61.53125 53.78125 63.8125 
Q 48.140625 66.109375 41.796875 66.109375 
Q 29.296875 66.109375 22.65625 58.46875 
Q 16.015625 50.828125 16.015625 36.375 
Q 16.015625 21.96875 22.65625 14.328125 
Q 29.296875 6.6875 41.796875 6.6875 
Q 48.140625 6.6875 53.78125 8.984375 
Q 59.421875 11.28125 64.40625 15.921875 
L 64.40625 5.609375 
Q 59.234375 2.09375 53.4375 0.328125 
Q 47.65625 -1.421875 41.21875 -1.421875 
Q 24.65625 -1.421875 15.125 8.703125 
Q 5.609375 18.84375 5.609375 36.375 
Q 5.609375 53.953125 15.125 64.078125 
Q 24.65625 74.21875 41.21875 74.21875 
Q 47.75 74.21875 53.53125 72.484375 
Q 59.328125 70.75 64.40625 67.28125 
z
" id="DejaVuSans-43"/>
      <path d="M 8.5 21.578125 
L 8.5 54.6875 
L 17.484375 54.6875 
L 17.484375 21.921875 
Q 17.484375 14.15625 20.5 10.265625 
Q 23.53125 6.390625 29.59375 6.390625 
Q 36.859375 6.390625 41.078125 11.03125 
Q 45.3125 15.671875 45.3125 23.6875 
L 45.3125 54.6875 
L 54.296875 54.6875 
L 54.296875 0 
L 45.3125 0 
L 45.3125 8.40625 
Q 42.046875 3.421875 37.71875 1 
Q 33.40625 -1.421875 27.6875 -1.421875 
Q 18.265625 -1.421875 13.375 4.4375 
Q 8.5 10.296875 8.5 21.578125 
z
M 31.109375 56 
z
" id="DejaVuSans-75"/>
      <path d="M 41.109375 46.296875 
Q 39.59375 47.171875 37.8125 47.578125 
Q 36.03125 48 33.890625 48 
Q 26.265625 48 22.1875 43.046875 
Q 18.109375 38.09375 18.109375 28.8125 
L 18.109375 0 
L 9.078125 0 
L 9.078125 54.6875 
L 18.109375 54.6875 
L 18.109375 46.1875 
Q 20.953125 51.171875 25.484375 53.578125 
Q 30.03125 56 36.53125 56 
Q 37.453125 56 38.578125 55.875 
Q 39.703125 55.765625 41.0625 55.515625 
z
" id="DejaVuSans-72"/>
      <path d="M 56.203125 29.59375 
L 56.203125 25.203125 
L 14.890625 25.203125 
Q 15.484375 15.921875 20.484375 11.0625 
Q 25.484375 6.203125 34.421875 6.203125 
Q 39.59375 6.203125 44.453125 7.46875 
Q 49.3125 8.734375 54.109375 11.28125 
L 54.109375 2.78125 
Q 49.265625 0.734375 44.1875 -0.34375 
Q 39.109375 -1.421875 33.890625 -1.421875 
Q 20.796875 -1.421875 13.15625 6.1875 
Q 5.515625 13.8125 5.515625 26.8125 
Q 5.515625 40.234375 12.765625 48.109375 
Q 20.015625 56 32.328125 56 
Q 43.359375 56 49.78125 48.890625 
Q 56.203125 41.796875 56.203125 29.59375 
z
M 47.21875 32.234375 
Q 47.125 39.59375 43.09375 43.984375 
Q 39.0625 48.390625 32.421875 48.390625 
Q 24.90625 48.390625 20.390625 44.140625 
Q 15.875 39.890625 15.1875 32.171875 
z
" id="DejaVuSans-65"/>
      <path d="M 54.890625 33.015625 
L 54.890625 0 
L 45.90625 0 
L 45.90625 32.71875 
Q 45.90625 40.484375 42.875 44.328125 
Q 39.84375 48.1875 33.796875 48.1875 
Q 26.515625 48.1875 22.3125 43.546875 
Q 18.109375 38.921875 18.109375 30.90625 
L 18.109375 0 
L 9.078125 0 
L 9.078125 54.6875 
L 18.109375 54.6875 
L 18.109375 46.1875 
Q 21.34375 51.125 25.703125 53.5625 
Q 30.078125 56 35.796875 56 
Q 45.21875 56 50.046875 50.171875 
Q 54.890625 44.34375 54.890625 33.015625 
z
" id="DejaVuSans-6e"/>
      <path id="DejaVuSans-20"/>
      <path d="M 34.1875 63.1875 
L 20.796875 26.90625 
L 47.609375 26.90625 
z
M 28.609375 72.90625 
L 39.796875 72.90625 
L 67.578125 0 
L 57.328125 0 
L 50.6875 18.703125 
L 17.828125 18.703125 
L 11.1875 0 
L 0.78125 0 
z
" id="DejaVuSans-41"/>
     </defs>
     <g transform="translate(22.254687 205.581906)rotate(-90)scale(0.1 -0.1)">
      <use xlink:href="#DejaVuSans-43"/>
      <use x="69.824219" xlink:href="#DejaVuSans-75"/>
      <use x="133.203125" xlink:href="#DejaVuSans-72"/>
      <use x="174.300781" xlink:href="#DejaVuSans-72"/>
      <use x="215.382812" xlink:href="#DejaVuSans-65"/>
      <use x="276.90625" xlink:href="#DejaVuSans-6e"/>
      <use x="340.285156" xlink:href="#DejaVuSans-74"/>
      <use x="379.494141" xlink:href="#DejaVuSans-20"/>
      <use x="411.28125" xlink:href="#DejaVuSans-28"/>
      <use x="450.294922" xlink:href="#DejaVuSans-6e"/>
      <use x="513.673828" xlink:href="#DejaVuSans-41"/>
      <use x="582.082031" xlink:href="#DejaVuSans-29"/>
     </g>
    </g>
   </g>
   <g id="line2d_13">
    <path clip-path="url(#p3c3f8d66c8)" d="M 73.832727 153.534942 
L 73.940963 188.523372 
L 74.375529 108.549818 
L 74.484306 84.057917 
L 74.593083 135.540893 
L 74.918872 81.058909 
L 75.570992 201.01924 
L 75.679769 182.025521 
L 75.897323 225.011306 
L 76.005558 222.512132 
L 76.114335 208.51676 
L 76.223112 215.014612 
L 76.549443 134.541223 
L 76.766455 116.547174 
L 76.875232 135.540893 
L 77.092786 72.061884 
L 77.201563 90.555769 
L 77.31034 87.55676 
L 77.418575 103.551471 
L 77.526811 90.055934 
L 77.635588 144.038083 
L 77.744365 142.538579 
L 77.961918 174.528 
L 78.17839 193.021884 
L 78.287167 197.520397 
L 78.395944 172.028826 
L 78.613497 230.009653 
L 78.829969 195.021223 
L 78.938745 215.514446 
L 79.265076 153.534942 
L 79.482089 124.544529 
L 79.590866 126.543868 
L 79.808419 89.056264 
L 80.025973 106.550479 
L 80.351221 131.04238 
L 80.677552 182.025521 
L 80.785787 183.525025 
L 80.894023 179.026512 
L 81.0028 188.523372 
L 81.111577 173.028496 
L 81.329131 249.503207 
L 81.546143 208.016926 
L 81.763697 193.521719 
L 81.981251 130.542545 
L 82.090027 116.047339 
L 82.198263 120.545851 
L 82.30704 109.049653 
L 82.415817 119.046347 
L 82.63337 88.056595 
L 82.742147 81.558744 
L 83.394267 191.52238 
L 83.503044 179.526347 
L 83.61128 199.519736 
L 83.720057 166.03081 
L 83.828833 192.52205 
L 83.93761 171.528992 
L 84.046387 188.023537 
L 84.155164 151.035769 
L 84.2634 166.530645 
L 84.372177 157.53362 
L 84.480954 116.547174 
L 84.58973 125.544198 
L 84.916061 71.062215 
L 85.024297 78.059901 
L 85.350627 139.039736 
L 85.568181 192.022215 
L 85.676417 173.028496 
L 86.002206 210.516099 
L 86.21976 270.996099 
L 86.327995 213.515107 
L 86.545008 232.008992 
L 86.653785 214.514777 
L 86.871338 142.538579 
L 86.979574 147.037091 
L 87.08781 137.040397 
L 87.196587 110.549157 
L 87.305364 123.54486 
L 87.631694 54.567669 
L 88.06626 152.535273 
L 88.283814 192.022215 
L 88.39205 192.022215 
L 88.609604 246.004364 
L 88.71838 247.503868 
L 88.827157 264.998083 
L 88.935934 259.499901 
L 89.044711 199.019901 
L 89.152947 206.517421 
L 89.3705 154.034777 
L 89.696831 81.058909 
L 89.805067 86.057256 
L 89.913843 53.568 
L 90.02262 105.55081 
L 90.131397 71.56205 
L 90.348951 146.037421 
L 90.565422 155.034446 
L 90.674199 187.523702 
L 90.782976 184.524694 
L 91.108765 229.509818 
L 91.217001 227.010645 
L 91.325778 232.008992 
L 91.543332 216.014281 
L 91.652108 180.026182 
L 91.760344 182.025521 
L 91.977357 159.033124 
L 92.303687 105.050975 
L 92.412464 75.060893 
L 92.629477 126.543868 
L 92.738253 86.057256 
L 92.84703 97.553455 
L 93.064584 160.532628 
L 93.17282 146.037421 
L 93.281055 158.533289 
L 93.498609 202.018909 
L 93.607386 173.528331 
L 93.716163 221.512463 
L 93.824399 201.01924 
L 93.932634 210.516099 
L 94.041411 201.01924 
L 94.150188 205.517752 
L 94.258965 215.514446 
L 94.367742 170.029488 
L 94.476518 170.529322 
L 94.584754 160.532628 
L 94.693531 133.041719 
L 94.802308 137.540231 
L 95.019862 70.062545 
L 95.128638 99.052959 
L 95.236874 82.058579 
L 95.345651 93.554777 
L 95.454428 121.045686 
L 95.563205 119.546182 
L 95.671982 163.031802 
L 95.780759 160.532628 
L 95.889535 173.028496 
L 95.997771 172.028826 
L 96.324102 212.015603 
L 96.432879 214.014942 
L 96.541655 235.507835 
L 96.758668 157.033785 
L 96.867445 170.529322 
L 96.976222 164.031471 
L 97.084998 129.542876 
L 97.193775 135.540893 
L 97.302011 119.546182 
L 97.410788 154.034777 
L 97.519565 136.540562 
L 97.628342 96.05395 
L 97.737118 103.051636 
L 98.389238 201.519074 
L 98.498015 189.023207 
L 98.606792 203.518413 
L 98.715028 200.01957 
L 98.93204 224.511471 
L 99.040817 216.014281 
L 99.258371 191.022545 
L 99.474842 186.524033 
L 99.90995 92.055273 
L 100.018726 118.546512 
L 100.126962 116.047339 
L 100.235739 121.045686 
L 100.344516 115.047669 
L 100.453293 137.540231 
L 100.561528 115.047669 
L 100.887318 147.536926 
L 100.996095 150.535934 
L 101.104872 164.031471 
L 101.213648 140.039405 
L 101.430661 176.027504 
L 101.538897 165.03114 
L 101.75645 180.526017 
L 101.865227 173.528331 
L 101.974004 175.527669 
L 102.08224 181.025851 
L 102.190475 175.527669 
L 102.299252 158.533289 
L 102.408029 163.031802 
L 102.516806 140.53924 
L 102.625583 156.53395 
L 102.73436 134.041388 
L 102.842595 136.040727 
L 102.951372 109.049653 
L 103.168926 130.042711 
L 103.277703 113.048331 
L 103.38648 133.041719 
L 103.494715 120.545851 
L 103.821046 183.525025 
L 103.929823 162.032132 
L 104.146835 196.520727 
L 104.364389 164.031471 
L 104.473166 201.519074 
L 104.581943 188.523372 
L 104.69072 197.520397 
L 104.799496 155.034446 
L 104.907732 169.529653 
L 105.125286 145.537587 
L 105.234063 137.540231 
L 105.34284 158.033455 
L 105.668088 120.545851 
L 105.776865 124.044694 
L 105.885642 104.55114 
L 106.103195 144.537917 
L 106.211431 128.043372 
L 106.319667 155.034446 
L 106.428443 154.534612 
L 106.754774 212.015603 
L 106.86301 199.519736 
L 106.971245 204.018248 
L 107.080022 193.521719 
L 107.297576 223.511802 
L 107.51513 179.026512 
L 107.840919 125.044364 
L 107.949696 152.035438 
L 108.058473 106.050645 
L 108.16725 108.049983 
L 108.275485 144.537917 
L 108.492498 89.056264 
L 108.601275 132.541884 
L 108.710052 127.543537 
L 108.818828 141.538909 
L 108.927064 134.541223 
L 109.144077 149.03643 
L 109.252854 174.028165 
L 109.36163 173.028496 
L 109.470407 220.512793 
L 109.579184 197.520397 
L 109.68742 212.515438 
L 109.796197 202.518744 
L 109.904973 212.015603 
L 110.01375 208.016926 
L 110.231304 160.532628 
L 110.33954 153.534942 
L 110.448317 158.533289 
L 110.66587 136.040727 
L 110.774647 136.040727 
L 110.883424 107.050314 
L 111.209213 137.040397 
L 111.31799 115.547504 
L 111.535544 158.533289 
L 111.644321 158.533289 
L 111.752557 179.026512 
L 111.861333 176.027504 
L 111.97011 201.01924 
L 112.078887 181.025851 
L 112.187664 207.017256 
L 112.513453 166.530645 
L 112.62223 177.027174 
L 112.731007 169.029818 
L 112.839784 144.537917 
L 112.948561 162.531967 
L 113.057338 152.535273 
L 113.165573 123.54486 
L 113.27435 158.533289 
L 113.383127 104.55114 
L 113.491904 114.547835 
L 113.709458 152.535273 
L 113.817693 126.044033 
L 113.925929 148.03676 
L 114.034706 147.037091 
L 114.25226 176.027504 
L 114.361036 178.526678 
L 114.469272 170.529322 
L 114.577508 180.526017 
L 114.686285 178.026843 
L 114.903838 179.526347 
L 115.012615 211.515769 
L 115.229087 171.029157 
L 115.44664 186.024198 
L 115.664194 151.535603 
L 115.772971 161.032463 
L 115.881207 151.035769 
L 115.989983 158.533289 
L 116.207537 148.03676 
L 116.316314 160.032793 
L 116.425091 152.035438 
L 116.533326 187.023868 
L 116.642103 157.53362 
L 116.75088 163.531636 
L 116.968434 153.035107 
L 117.077211 159.033124 
L 117.294223 152.535273 
L 117.403 155.034446 
L 117.511777 141.538909 
L 117.729331 169.529653 
L 117.946343 154.534612 
L 118.05512 156.53395 
L 118.381451 173.528331 
L 118.490228 169.029818 
L 118.598463 170.529322 
L 118.706699 183.02519 
L 118.815476 172.528661 
L 118.924253 177.527008 
L 119.03303 175.027835 
L 119.141806 190.522711 
L 119.250042 180.026182 
L 119.358278 190.522711 
L 119.467055 165.03114 
L 119.575832 171.029157 
L 119.684608 155.534281 
L 119.793385 161.032463 
L 119.901621 160.532628 
L 120.009857 153.035107 
L 120.118634 133.541554 
L 120.22741 159.033124 
L 120.336187 132.04205 
L 120.444964 135.041058 
L 120.553741 131.04238 
L 120.661977 107.050314 
L 120.87953 166.530645 
L 121.097084 142.538579 
L 121.314097 168.030149 
L 121.422332 157.033785 
L 121.531109 165.530975 
L 121.639886 192.022215 
L 121.748663 160.032793 
L 121.965675 199.019901 
L 122.073911 204.518083 
L 122.182688 178.026843 
L 122.291465 207.017256 
L 122.400242 199.019901 
L 122.509019 218.01362 
L 122.617795 168.529983 
L 122.726031 188.023537 
L 122.943585 148.536595 
L 123.052362 158.533289 
L 123.269915 120.046017 
L 123.378151 142.038744 
L 123.486928 126.044033 
L 123.595705 144.537917 
L 123.704482 122.54519 
L 123.813258 158.033455 
L 123.922035 146.537256 
L 124.139048 157.53362 
L 124.247825 147.536926 
L 124.465378 181.525686 
L 124.574155 151.035769 
L 124.682932 199.519736 
L 124.791168 165.530975 
L 124.899945 205.517752 
L 125.008722 175.027835 
L 125.117498 192.52205 
L 125.335052 167.030479 
L 125.443288 163.531636 
L 125.552065 165.03114 
L 125.769618 146.537256 
L 125.878395 155.034446 
L 125.987172 100.052628 
L 126.095949 135.540893 
L 126.204185 129.542876 
L 126.312961 107.550149 
L 126.421738 114.547835 
L 126.530515 137.040397 
L 126.639292 136.040727 
L 126.856304 167.530314 
L 126.96454 146.537256 
L 127.073317 161.532298 
L 127.182094 154.034777 
L 127.290871 163.531636 
L 127.399648 184.02486 
L 127.616119 162.531967 
L 127.724896 179.026512 
L 127.94245 176.027504 
L 128.160003 161.032463 
L 128.268239 170.529322 
L 128.377016 161.532298 
L 128.485793 168.529983 
L 128.703346 152.035438 
L 128.812123 162.032132 
L 128.920359 159.532959 
L 129.028595 190.522711 
L 129.137372 151.035769 
L 129.246148 167.530314 
L 129.354925 129.542876 
L 129.463702 161.032463 
L 129.680173 138.040066 
L 130.006504 165.03114 
L 130.115281 150.036099 
L 130.223517 172.028826 
L 130.331752 165.03114 
L 130.440529 166.03081 
L 130.549306 173.528331 
L 130.658083 206.017587 
L 130.76686 164.031471 
L 130.875636 179.526347 
L 130.983872 164.031471 
L 131.310203 172.028826 
L 131.41898 160.532628 
L 131.527756 177.027174 
L 131.744769 162.032132 
L 131.853546 165.03114 
L 131.962323 159.532959 
L 132.0711 201.519074 
L 132.288112 148.536595 
L 132.396889 149.03643 
L 132.614443 166.530645 
L 132.72322 149.03643 
L 132.831997 161.532298 
L 132.940773 156.53395 
L 133.049009 184.524694 
L 133.157786 179.026512 
L 133.266563 144.038083 
L 133.37534 156.034116 
L 133.484116 152.535273 
L 133.592893 164.031471 
L 133.701129 159.033124 
L 133.809365 140.039405 
L 133.918141 177.527008 
L 134.026918 154.034777 
L 134.135695 161.532298 
L 134.244472 151.035769 
L 134.460943 172.528661 
L 134.56972 147.536926 
L 134.678497 169.529653 
L 134.787274 162.032132 
L 135.004286 170.029488 
L 135.112522 167.030479 
L 135.330076 181.025851 
L 135.438853 154.534612 
L 135.54763 169.029818 
L 135.656406 158.533289 
L 135.764642 171.029157 
L 136.090973 135.041058 
L 136.19975 150.535934 
L 136.308526 140.53924 
L 136.416762 148.536595 
L 136.524998 175.527669 
L 136.633775 127.543537 
L 136.960105 166.03081 
L 137.068341 159.033124 
L 137.176577 160.032793 
L 137.39413 156.53395 
L 137.502907 145.037752 
L 137.611684 164.531306 
L 137.720461 134.041388 
L 138.04625 182.025521 
L 138.155027 142.038744 
L 138.263804 182.025521 
L 138.69837 145.037752 
L 138.807147 177.027174 
L 138.915924 144.038083 
L 139.024701 159.532959 
L 139.132936 111.048992 
L 139.241713 159.532959 
L 139.35049 142.538579 
L 139.459267 153.035107 
L 139.568044 147.037091 
L 139.785598 164.531306 
L 139.893833 157.53362 
L 140.00261 171.528992 
L 140.111387 168.030149 
L 140.328941 196.020893 
L 140.437718 163.531636 
L 140.65473 230.009653 
L 140.872284 156.53395 
L 140.981061 174.528 
L 141.198614 147.037091 
L 141.30685 152.535273 
L 141.415627 142.538579 
L 141.524404 168.030149 
L 141.741958 128.043372 
L 141.95897 120.046017 
L 142.067206 123.045025 
L 142.28476 144.537917 
L 142.393536 172.028826 
L 142.502313 162.531967 
L 142.610549 189.523041 
L 142.718785 167.030479 
L 142.827561 175.527669 
L 142.936338 214.014942 
L 143.045115 211.515769 
L 143.153892 196.520727 
L 143.262128 201.01924 
L 143.370363 223.011967 
L 143.587917 202.018909 
L 143.696694 157.53362 
L 143.805471 161.532298 
L 144.022483 139.039736 
L 144.240037 135.041058 
L 144.348814 138.539901 
L 144.457591 98.053289 
L 144.566368 117.047008 
L 144.674603 101.052298 
L 144.78338 105.050975 
L 145.218488 180.026182 
L 145.327264 161.532298 
L 145.544277 200.519405 
L 145.653054 152.035438 
L 145.761831 193.021884 
L 145.870608 188.523372 
L 145.979384 200.01957 
L 146.196397 174.028165 
L 146.522728 143.038413 
L 146.631504 137.540231 
L 146.73974 104.55114 
L 146.956753 149.03643 
L 147.06553 124.044694 
L 147.283083 139.039736 
L 147.391319 130.042711 
L 147.608331 134.541223 
L 147.825885 167.030479 
L 147.934662 142.538579 
L 148.042898 187.523702 
L 148.151133 167.030479 
L 148.25991 180.526017 
L 148.477464 167.530314 
L 148.586241 175.027835 
L 148.695018 220.012959 
L 148.91203 166.530645 
L 149.020807 162.032132 
L 149.129584 174.528 
L 149.238361 141.039074 
L 149.347138 157.53362 
L 149.455373 156.53395 
L 149.563609 152.535273 
L 149.672386 134.041388 
L 149.781163 173.028496 
L 149.88994 136.040727 
L 149.998716 168.030149 
L 150.106952 164.531306 
L 150.215188 152.035438 
L 150.323965 157.53362 
L 150.432741 138.539901 
L 150.541518 160.032793 
L 150.650295 155.534281 
L 150.759072 160.032793 
L 150.867308 159.532959 
L 150.976085 175.527669 
L 151.193638 158.033455 
L 151.302415 158.533289 
L 151.411192 187.523702 
L 151.628205 149.536264 
L 151.845758 165.530975 
L 151.954535 156.034116 
L 152.063312 179.026512 
L 152.280325 158.533289 
L 152.389101 152.035438 
L 152.606655 176.027504 
L 152.715432 173.028496 
L 152.824209 156.53395 
L 153.041221 184.02486 
L 153.149998 186.524033 
L 153.258775 162.032132 
L 153.367552 172.028826 
L 153.476329 156.53395 
L 153.584564 169.529653 
L 153.693341 159.532959 
L 153.802118 137.540231 
L 153.910895 153.035107 
L 154.019672 146.037421 
L 154.128449 181.025851 
L 154.237226 148.03676 
L 154.345461 149.03643 
L 154.454238 167.530314 
L 154.563015 164.031471 
L 154.671792 172.528661 
L 154.780569 168.529983 
L 154.889346 193.021884 
L 154.997581 187.523702 
L 155.214594 171.528992 
L 155.323371 182.025521 
L 155.432148 176.527339 
L 155.540924 208.016926 
L 155.64916 169.529653 
L 155.757396 189.023207 
L 155.866173 175.027835 
L 155.97495 195.521058 
L 156.192503 159.033124 
L 156.409516 163.531636 
L 156.62707 141.039074 
L 156.735846 136.540562 
L 156.844623 164.031471 
L 157.061636 141.039074 
L 157.169871 139.039736 
L 157.278648 162.032132 
L 157.387425 139.039736 
L 157.604979 177.527008 
L 157.713215 164.531306 
L 157.82145 167.530314 
L 157.930227 158.033455 
L 158.147781 188.023537 
L 158.256558 164.031471 
L 158.364793 173.528331 
L 158.473029 164.531306 
L 158.581806 217.513785 
L 158.79936 168.529983 
L 158.908137 188.023537 
L 159.016913 169.029818 
L 159.125149 171.029157 
L 159.342703 157.033785 
L 159.45148 152.535273 
L 159.669033 129.043041 
L 159.777269 182.525355 
L 159.994823 148.536595 
L 160.1036 173.528331 
L 160.321153 151.535603 
L 160.429389 157.53362 
L 160.538166 152.035438 
L 160.755719 170.029488 
L 160.864496 161.032463 
L 160.973273 141.538909 
L 161.08205 179.026512 
L 161.190286 178.026843 
L 161.299063 145.537587 
L 161.516616 186.024198 
L 161.625393 149.536264 
L 161.842406 165.03114 
L 161.950641 157.53362 
L 162.059418 166.03081 
L 162.168195 154.534612 
L 162.276972 155.034446 
L 162.385749 138.539901 
L 162.493984 178.026843 
L 162.819774 128.043372 
L 162.928551 155.534281 
L 163.037328 143.038413 
L 163.145563 148.536595 
L 163.253799 141.039074 
L 163.58013 176.027504 
L 163.688906 176.527339 
L 163.905919 152.535273 
L 164.014696 182.025521 
L 164.123473 164.031471 
L 164.23225 184.02486 
L 164.449803 174.528 
L 164.558039 169.029818 
L 164.666275 184.524694 
L 164.775051 141.538909 
L 164.883828 169.029818 
L 165.101382 154.534612 
L 165.209618 171.528992 
L 165.317853 168.030149 
L 165.42663 171.029157 
L 165.535407 141.538909 
L 165.644184 143.038413 
L 165.752961 151.535603 
L 165.969973 135.041058 
L 166.187527 171.029157 
L 166.296304 154.034777 
L 166.405081 161.532298 
L 166.513858 190.022876 
L 166.622093 156.53395 
L 166.73087 180.026182 
L 166.948424 151.535603 
L 167.057201 152.035438 
L 167.165978 200.519405 
L 167.274213 156.53395 
L 167.491767 170.529322 
L 167.600544 175.027835 
L 167.818098 158.033455 
L 167.926874 155.534281 
L 168.03511 165.03114 
L 168.252664 131.542215 
L 168.470218 175.527669 
L 168.68723 126.044033 
L 168.904784 155.034446 
L 169.013561 163.531636 
L 169.122338 160.532628 
L 169.231114 165.530975 
L 169.339891 145.037752 
L 169.448127 186.524033 
L 169.665681 164.031471 
L 169.774458 165.03114 
L 169.883234 183.02519 
L 170.100247 169.529653 
L 170.208483 177.527008 
L 170.317259 149.03643 
L 170.534813 171.528992 
L 170.64359 164.031471 
L 170.751826 147.037091 
L 170.968838 155.034446 
L 171.077615 168.030149 
L 171.295169 130.042711 
L 171.403404 139.039736 
L 171.51164 136.540562 
L 171.620417 192.52205 
L 171.837971 141.538909 
L 172.055524 179.026512 
L 172.16376 169.529653 
L 172.272537 170.029488 
L 172.381314 189.023207 
L 172.490091 180.026182 
L 172.707644 218.513455 
L 172.81588 188.023537 
L 172.924657 194.021554 
L 173.033434 174.528 
L 173.142211 184.524694 
L 173.250988 166.03081 
L 173.576777 167.030479 
L 173.903108 139.53957 
L 174.011884 142.538579 
L 174.120661 134.541223 
L 174.228897 137.040397 
L 174.337674 161.032463 
L 174.555228 138.040066 
L 174.772781 187.023868 
L 174.989253 162.032132 
L 175.098029 160.532628 
L 175.315583 195.521058 
L 175.42436 139.53957 
L 175.532596 180.526017 
L 175.749608 172.028826 
L 175.858385 179.026512 
L 175.967162 165.03114 
L 176.075939 165.530975 
L 176.184174 167.030479 
L 176.29241 172.528661 
L 176.509964 161.032463 
L 176.618741 170.029488 
L 176.727518 169.529653 
L 176.94453 145.537587 
L 177.162084 168.529983 
L 177.270861 143.538248 
L 177.379638 148.536595 
L 177.488414 182.525355 
L 177.704886 157.033785 
L 177.813663 163.531636 
L 177.922439 180.026182 
L 178.031216 168.030149 
L 178.139993 194.021554 
L 178.248229 147.037091 
L 178.356465 185.524364 
L 178.465241 157.033785 
L 178.574018 200.01957 
L 178.682795 157.53362 
L 178.900349 176.527339 
L 179.008585 201.01924 
L 179.226138 162.032132 
L 179.334915 162.531967 
L 179.443692 169.529653 
L 179.552469 146.537256 
L 179.660704 187.023868 
L 179.878258 174.528 
L 179.987035 170.029488 
L 180.095812 141.039074 
L 180.204589 178.026843 
L 180.313366 170.029488 
L 180.421601 172.528661 
L 180.530378 155.534281 
L 180.639155 172.028826 
L 180.965486 142.538579 
L 181.182498 176.027504 
L 181.400052 146.037421 
L 181.617606 175.527669 
L 181.725841 161.532298 
L 181.834618 183.525025 
L 181.943395 161.032463 
L 182.160949 181.525686 
L 182.269726 176.527339 
L 182.486738 181.525686 
L 182.595515 183.02519 
L 182.704292 166.530645 
L 182.813069 207.017256 
L 182.921846 199.019901 
L 183.138858 171.528992 
L 183.247094 184.02486 
L 183.355871 170.529322 
L 183.464648 171.029157 
L 183.573424 145.537587 
L 183.790437 173.528331 
L 183.898673 162.032132 
L 184.007449 117.047008 
L 184.116226 123.54486 
L 184.225003 150.036099 
L 184.33378 131.542215 
L 184.768346 174.028165 
L 184.877123 167.530314 
L 185.094677 192.52205 
L 185.202913 193.021884 
L 185.311148 192.022215 
L 185.419925 177.527008 
L 185.637479 205.017917 
L 185.746256 197.020562 
L 185.854491 198.520066 
L 185.962727 196.520727 
L 186.071504 187.523702 
L 186.289058 155.034446 
L 186.397834 147.037091 
L 186.50607 127.543537 
L 186.614306 159.532959 
L 186.723083 129.542876 
L 186.83186 144.537917 
L 186.940636 111.548826 
L 187.049413 127.043702 
L 187.266426 119.546182 
L 187.375203 123.54486 
L 187.592756 163.031802 
L 187.81031 195.521058 
L 187.918546 194.021554 
L 188.027323 198.520066 
L 188.244876 236.007669 
L 188.46243 182.025521 
L 188.570666 213.515107 
L 188.788219 164.031471 
L 189.005773 119.546182 
L 189.11455 166.530645 
L 189.331563 133.041719 
L 189.440339 126.044033 
L 189.549116 147.536926 
L 189.657893 146.037421 
L 189.76667 136.540562 
L 189.983682 168.529983 
L 190.091918 164.031471 
L 190.309472 184.02486 
L 190.418249 187.523702 
L 190.635261 177.527008 
L 190.743497 158.033455 
L 190.852274 179.026512 
L 190.961051 176.027504 
L 191.069828 179.526347 
L 191.28684 192.52205 
L 191.61263 157.033785 
L 191.721406 172.028826 
L 191.93896 153.534942 
L 192.047196 183.02519 
L 192.155973 159.532959 
L 192.264749 163.531636 
L 192.373526 197.020562 
L 192.482303 142.538579 
L 192.59108 168.529983 
L 192.699316 167.030479 
L 192.807551 184.524694 
L 192.916328 159.532959 
L 193.025105 167.030479 
L 193.133882 166.530645 
L 193.242659 159.532959 
L 193.350895 168.030149 
L 193.45913 150.535934 
L 193.567907 165.03114 
L 193.676684 159.033124 
L 193.785461 218.513455 
L 193.894238 138.040066 
L 194.003014 165.530975 
L 194.11125 162.032132 
L 194.220027 173.528331 
L 194.328804 167.030479 
L 194.437581 169.529653 
L 194.546358 166.03081 
L 194.655134 172.028826 
L 194.76337 160.032793 
L 194.980924 194.021554 
L 195.307254 170.529322 
L 195.524267 190.522711 
L 195.633044 172.028826 
L 195.741821 173.528331 
L 195.850598 153.534942 
L 196.068151 183.02519 
L 196.176387 157.033785 
L 196.285164 158.033455 
L 196.393941 164.031471 
L 196.502718 183.02519 
L 196.611494 156.53395 
L 196.828507 196.020893 
L 197.046061 155.534281 
L 197.263614 181.025851 
L 197.372391 166.530645 
L 197.481168 175.527669 
L 197.589404 150.036099 
L 197.806957 184.02486 
L 197.915734 166.530645 
L 198.024511 182.025521 
L 198.133288 180.526017 
L 198.349759 161.532298 
L 198.458536 167.530314 
L 198.567313 157.033785 
L 198.67609 171.029157 
L 198.893102 148.536595 
L 199.001338 154.534612 
L 199.218892 146.037421 
L 199.327669 111.548826 
L 199.436446 155.534281 
L 199.544681 154.034777 
L 199.761694 133.041719 
L 199.870471 168.030149 
L 199.979248 153.534942 
L 200.088024 179.526347 
L 200.196801 175.527669 
L 200.305037 180.026182 
L 200.413814 163.031802 
L 200.631368 200.519405 
L 200.740144 173.028496 
L 200.848921 207.517091 
L 200.957157 190.022876 
L 201.065934 220.512793 
L 201.283487 181.525686 
L 201.501041 172.528661 
L 201.609818 158.033455 
L 201.826831 183.525025 
L 201.935607 168.030149 
L 202.044384 170.029488 
L 202.153161 157.033785 
L 202.261938 190.022876 
L 202.370174 152.535273 
L 202.478951 158.533289 
L 202.587727 155.034446 
L 202.696504 179.026512 
L 202.914058 163.031802 
L 203.022294 160.532628 
L 203.348083 177.027174 
L 203.45686 183.525025 
L 203.673872 166.03081 
L 203.782108 174.528 
L 203.890885 159.532959 
L 203.999662 192.52205 
L 204.217215 168.529983 
L 204.325451 181.525686 
L 204.433687 181.025851 
L 204.542464 187.523702 
L 204.651241 138.040066 
L 204.760018 176.527339 
L 204.868794 160.032793 
L 204.977571 207.517091 
L 205.085807 144.038083 
L 205.303361 174.028165 
L 205.412137 178.026843 
L 205.520914 174.528 
L 205.629691 176.027504 
L 205.737927 174.528 
L 205.846163 175.527669 
L 205.954939 174.028165 
L 206.172493 156.53395 
L 206.28127 171.528992 
L 206.606518 145.037752 
L 206.824072 153.534942 
L 207.041626 174.528 
L 207.258638 164.031471 
L 207.476192 181.525686 
L 207.584969 175.027835 
L 207.801981 148.536595 
L 207.910758 198.020231 
L 208.019535 193.521719 
L 208.128312 201.01924 
L 208.454642 169.029818 
L 208.671655 174.028165 
L 208.889209 148.03676 
L 208.997986 175.527669 
L 209.214998 155.534281 
L 209.323775 189.023207 
L 209.541329 161.532298 
L 209.867118 172.028826 
L 209.975895 188.523372 
L 210.193449 178.526678 
L 210.411002 209.016595 
L 210.628015 162.531967 
L 210.736792 186.024198 
L 210.954346 168.529983 
L 211.063122 175.527669 
L 211.280135 157.033785 
L 211.388371 159.532959 
L 211.497147 165.03114 
L 211.605924 156.034116 
L 211.714701 120.046017 
L 211.823478 144.038083 
L 211.931714 141.538909 
L 212.148726 172.028826 
L 212.257503 145.537587 
L 212.36628 147.037091 
L 212.583834 172.528661 
L 212.692069 172.528661 
L 212.909623 185.524364 
L 213.0184 230.009653 
L 213.235954 180.026182 
L 213.452425 230.009653 
L 213.669979 171.528992 
L 213.778756 181.525686 
L 213.887532 172.528661 
L 213.995768 175.027835 
L 214.104004 173.028496 
L 214.212781 152.035438 
L 214.321558 154.034777 
L 214.430334 181.525686 
L 214.539111 120.545851 
L 214.647347 145.537587 
L 214.755583 144.038083 
L 214.864359 149.03643 
L 214.973136 119.046347 
L 215.19069 156.034116 
L 215.299467 170.029488 
L 215.407703 161.032463 
L 215.625256 197.520397 
L 215.734033 197.520397 
L 215.84281 230.509488 
L 215.951587 222.012298 
L 216.059822 187.523702 
L 216.277376 246.504198 
L 216.49493 179.526347 
L 216.603707 176.527339 
L 216.711942 168.529983 
L 216.820719 144.038083 
L 216.929496 147.536926 
L 217.038273 166.03081 
L 217.14705 98.553124 
L 217.255827 130.542545 
L 217.364604 105.050975 
L 217.581616 130.542545 
L 217.79917 166.530645 
L 217.907947 198.020231 
L 218.016724 186.024198 
L 218.124959 195.521058 
L 218.233195 194.521388 
L 218.341972 204.018248 
L 218.559526 188.523372 
L 218.776538 224.011636 
L 218.993551 212.515438 
L 219.102328 210.516099 
L 219.428117 153.035107 
L 219.536353 159.033124 
L 219.753906 146.537256 
L 219.862683 103.551471 
L 220.080237 147.536926 
L 220.188472 102.551802 
L 220.840593 206.017587 
L 220.948828 186.024198 
L 221.057605 207.017256 
L 221.275159 194.521388 
L 221.383936 228.010314 
L 221.492171 191.022545 
L 221.600407 209.51643 
L 221.709184 191.022545 
L 221.817961 203.018579 
L 222.252527 146.537256 
L 222.361304 150.535934 
L 222.470081 116.547174 
L 222.687634 126.044033 
L 222.796411 116.547174 
L 222.904647 146.537256 
L 223.013424 119.046347 
L 223.230978 163.531636 
L 223.339754 169.529653 
L 223.556767 197.520397 
L 223.665544 212.515438 
L 223.774321 201.519074 
L 223.883097 215.514446 
L 223.991874 200.519405 
L 224.100651 216.014281 
L 224.209428 206.017587 
L 224.317664 223.011967 
L 224.426441 166.03081 
L 224.535217 183.525025 
L 224.643994 151.535603 
L 224.752771 176.027504 
L 224.969784 139.039736 
L 225.07856 151.535603 
L 225.187337 146.037421 
L 225.404891 164.531306 
L 225.513668 144.038083 
L 225.730681 170.029488 
L 225.839457 175.027835 
L 225.948234 198.020231 
L 226.165788 184.02486 
L 226.274565 196.020893 
L 226.491036 230.009653 
L 226.599813 198.520066 
L 226.70859 234.508165 
L 226.817367 199.019901 
L 226.926144 218.01362 
L 227.034379 180.026182 
L 227.142615 192.52205 
L 227.360169 161.532298 
L 227.577722 119.046347 
L 227.685958 147.536926 
L 227.902971 122.54519 
L 228.011747 123.54486 
L 228.120524 126.044033 
L 228.229301 146.537256 
L 228.338078 136.040727 
L 228.555091 168.529983 
L 228.663868 176.527339 
L 228.772644 195.521058 
L 228.881421 176.527339 
L 229.098434 242.505521 
L 229.206669 193.021884 
L 229.424223 213.015273 
L 229.641777 197.020562 
L 229.750012 203.018579 
L 230.076343 159.033124 
L 230.18512 176.527339 
L 230.402674 126.543868 
L 230.510909 132.541884 
L 230.619686 132.541884 
L 230.728463 126.543868 
L 230.83724 132.541884 
L 230.946017 173.528331 
L 231.054794 163.031802 
L 231.380583 199.019901 
L 231.48936 190.522711 
L 231.598137 202.018909 
L 231.706913 242.005686 
L 231.815149 216.014281 
L 231.923385 234.008331 
L 232.140939 220.512793 
L 232.358492 187.523702 
L 232.574964 182.525355 
L 232.792517 161.032463 
L 232.901294 157.53362 
L 233.010071 145.037752 
L 233.227084 154.534612 
L 233.335861 151.535603 
L 233.444637 132.04205 
L 233.662191 160.532628 
L 233.770968 176.527339 
L 233.987439 165.03114 
L 234.096216 209.51643 
L 234.204993 180.526017 
L 234.31377 182.525355 
L 234.530782 211.515769 
L 234.639018 211.515769 
L 234.747795 176.027504 
L 234.856572 214.514777 
L 234.965349 207.517091 
L 235.182902 177.527008 
L 235.291138 181.025851 
L 235.399915 178.026843 
L 235.943258 132.04205 
L 236.052035 152.035438 
L 236.160812 145.537587 
L 236.487143 182.525355 
L 236.595919 177.527008 
L 236.704155 191.52238 
L 236.812932 179.026512 
L 236.921709 185.524364 
L 237.030486 179.026512 
L 237.139262 190.522711 
L 237.248039 226.51081 
L 237.465052 166.530645 
L 237.682606 196.020893 
L 237.791382 166.530645 
L 238.008395 184.02486 
L 238.117172 173.528331 
L 238.225949 175.527669 
L 238.334725 139.53957 
L 238.443502 196.520727 
L 238.552279 179.026512 
L 238.661056 181.025851 
L 238.769292 180.026182 
L 238.986845 182.025521 
L 239.095622 180.526017 
L 239.204399 167.030479 
L 239.313176 180.026182 
L 239.421412 166.03081 
L 239.529647 174.028165 
L 239.638424 173.528331 
L 239.747201 181.025851 
L 239.855978 150.036099 
L 240.073532 165.530975 
L 240.181767 134.541223 
L 240.399321 181.025851 
L 240.508098 167.030479 
L 240.725652 193.021884 
L 240.833887 188.523372 
L 240.942664 199.019901 
L 241.051441 192.022215 
L 241.160218 194.021554 
L 241.268995 236.007669 
L 241.377772 201.01924 
L 241.486007 224.511471 
L 241.594243 211.515769 
L 241.70302 220.012959 
L 242.02935 179.026512 
L 242.138127 161.532298 
L 242.246363 170.029488 
L 242.463917 132.541884 
L 242.572694 143.538248 
L 242.68147 133.541554 
L 242.790247 98.053289 
L 243.00726 129.542876 
L 243.224813 164.031471 
L 243.33359 166.03081 
L 243.551144 191.022545 
L 243.65938 187.523702 
L 243.768157 203.018579 
L 243.876933 183.525025 
L 243.98571 226.010975 
L 244.094487 204.518083 
L 244.3115 224.011636 
L 244.529053 198.020231 
L 244.63783 208.51676 
L 244.855384 172.028826 
L 244.96362 181.525686 
L 245.071855 171.029157 
L 245.180632 185.024529 
L 245.506963 156.034116 
L 245.615198 155.534281 
L 245.723434 185.024529 
L 245.832211 178.026843 
L 246.049765 147.536926 
L 246.375013 192.52205 
L 246.592567 171.029157 
L 246.81012 183.525025 
L 246.918897 157.033785 
L 247.027133 189.023207 
L 247.13591 186.024198 
L 247.353463 146.537256 
L 247.571017 171.528992 
L 247.679253 156.53395 
L 247.787489 175.027835 
L 248.005042 167.530314 
L 248.330832 198.520066 
L 248.439067 180.526017 
L 248.547844 185.524364 
L 248.656621 173.028496 
L 248.874175 211.515769 
L 249.091187 195.021223 
L 249.417518 165.03114 
L 249.526295 162.531967 
L 249.635072 154.034777 
L 249.743307 173.028496 
L 249.852084 132.04205 
L 249.960861 175.027835 
L 250.069638 138.040066 
L 250.395968 174.528 
L 250.504204 164.531306 
L 250.612981 173.028496 
L 250.721758 224.511471 
L 250.939312 189.523041 
L 251.156324 227.010645 
L 251.265101 216.514116 
L 251.373878 185.524364 
L 251.482655 225.011306 
L 251.591432 181.525686 
L 251.700208 182.025521 
L 251.808444 182.025521 
L 251.917221 152.035438 
L 252.025998 172.028826 
L 252.134775 160.532628 
L 252.352328 134.541223 
L 252.461105 140.039405 
L 252.569341 125.044364 
L 253.004448 186.024198 
L 253.113225 210.516099 
L 253.221461 181.525686 
L 253.438473 230.509488 
L 253.54725 242.005686 
L 253.656027 208.51676 
L 253.764804 233.008661 
L 253.87304 222.512132 
L 253.981275 225.51114 
L 254.090052 208.51676 
L 254.198829 225.011306 
L 254.416383 175.027835 
L 254.52516 155.034446 
L 254.633395 164.531306 
L 254.850949 97.05362 
L 254.959726 157.53362 
L 255.17728 121.545521 
L 255.285515 116.547174 
L 255.393751 129.542876 
L 255.502528 115.547504 
L 255.611305 150.036099 
L 255.71954 143.538248 
L 255.828317 159.532959 
L 255.936553 158.533289 
L 256.044789 165.03114 
L 256.588132 252.00238 
L 256.696909 219.013289 
L 256.805685 226.51081 
L 256.914462 222.012298 
L 257.349029 135.540893 
L 257.457805 138.539901 
L 257.566582 145.537587 
L 257.675359 141.538909 
L 257.892913 102.551802 
L 258.001148 128.043372 
L 258.109925 123.54486 
L 258.545033 201.519074 
L 258.762045 216.014281 
L 258.870822 254.001719 
L 258.979599 219.013289 
L 259.197153 250.003041 
L 259.30593 219.013289 
L 259.414165 229.009983 
L 259.631719 175.027835 
L 259.740496 166.03081 
L 259.849273 135.041058 
L 259.95805 155.534281 
L 260.174521 107.550149 
L 260.283298 130.542545 
L 260.392075 113.548165 
L 260.500852 116.547174 
L 260.717864 147.536926 
L 260.8261 125.544198 
L 261.043654 189.023207 
L 261.15243 198.020231 
L 261.261207 195.021223 
L 261.477678 212.515438 
L 261.586455 208.016926 
L 261.695232 191.022545 
L 261.804009 228.510149 
L 261.912786 208.016926 
L 262.021563 213.515107 
L 262.129798 210.016264 
L 262.564906 150.036099 
L 262.673683 183.02519 
L 262.781918 145.037752 
L 262.890154 167.030479 
L 263.107708 114.547835 
L 263.216485 119.546182 
L 263.325262 160.532628 
L 263.541733 132.04205 
L 263.97684 200.519405 
L 264.30263 213.015273 
L 264.411407 187.523702 
L 264.520184 224.011636 
L 264.62896 221.512463 
L 264.737737 186.024198 
L 264.845973 212.515438 
L 265.063527 178.526678 
L 265.28108 146.037421 
L 265.389857 156.53395 
L 265.498093 149.03643 
L 265.60687 132.04205 
L 265.715647 135.540893 
L 265.824423 117.546843 
L 266.150754 170.529322 
L 266.25899 174.028165 
L 266.476543 222.012298 
L 266.58532 211.515769 
L 266.802874 245.504529 
L 266.91111 214.014942 
L 267.019886 235.507835 
L 267.128663 197.020562 
L 267.23744 219.013289 
L 267.346217 205.017917 
L 267.454994 169.529653 
L 267.563771 177.027174 
L 267.672007 163.031802 
L 267.780783 166.03081 
L 267.88956 165.03114 
L 268.107114 107.050314 
L 268.324126 121.545521 
L 268.649916 151.535603 
L 268.758693 179.026512 
L 268.86747 240.006347 
L 269.083941 200.01957 
L 269.192718 215.514446 
L 269.301495 210.016264 
L 269.519048 250.003041 
L 269.627284 279.993124 
L 269.73552 224.511471 
L 269.844297 227.510479 
L 269.953073 234.008331 
L 270.279404 155.534281 
L 270.38764 176.027504 
L 270.605193 122.54519 
L 270.71397 155.034446 
L 270.822747 152.535273 
L 271.03976 112.048661 
L 271.148537 145.037752 
L 271.257313 140.53924 
L 271.474867 188.023537 
L 271.583644 190.522711 
L 271.692421 218.01362 
L 271.800657 212.515438 
L 272.01821 230.009653 
L 272.126987 242.505521 
L 272.344541 190.522711 
L 272.452776 220.512793 
L 272.67033 183.02519 
L 272.996661 123.045025 
L 273.104896 166.03081 
L 273.321909 147.536926 
L 273.430686 150.036099 
L 273.539463 139.039736 
L 273.756475 147.037091 
L 273.973488 162.032132 
L 274.191042 179.026512 
L 274.408054 203.018579 
L 274.51629 198.020231 
L 274.625067 202.018909 
L 274.84262 198.520066 
L 275.060174 225.011306 
L 275.16841 154.534612 
L 275.277187 202.018909 
L 275.712294 163.031802 
L 275.928765 182.025521 
L 276.037542 151.035769 
L 276.146319 162.032132 
L 276.363873 133.541554 
L 276.580344 157.53362 
L 276.689121 151.535603 
L 277.015452 191.52238 
L 277.124228 185.524364 
L 277.232464 226.51081 
L 277.341241 199.019901 
L 277.450018 200.519405 
L 277.667572 228.510149 
L 277.884584 199.519736 
L 277.993361 199.519736 
L 278.102138 182.025521 
L 278.319692 186.024198 
L 278.428468 166.03081 
L 278.537245 167.030479 
L 278.645481 176.027504 
L 278.754258 157.53362 
L 278.971812 175.527669 
L 279.080588 168.529983 
L 279.189365 148.536595 
L 279.623931 196.020893 
L 279.732708 168.529983 
L 279.841485 176.527339 
L 279.949721 205.017917 
L 280.058498 195.021223 
L 280.167275 200.01957 
L 280.276051 219.513124 
L 280.384828 218.01362 
L 280.602382 171.528992 
L 280.710618 188.023537 
L 280.819395 181.025851 
L 281.036948 182.525355 
L 281.254502 158.033455 
L 281.470973 182.025521 
L 281.688527 141.039074 
L 281.906081 182.025521 
L 282.014316 177.027174 
L 282.122552 166.530645 
L 282.231329 194.521388 
L 282.340106 178.026843 
L 282.448883 213.015273 
L 282.55766 196.520727 
L 282.666436 226.010975 
L 282.992226 213.015273 
L 283.101003 193.021884 
L 283.20978 196.520727 
L 283.318556 166.530645 
L 283.426792 189.023207 
L 283.752581 155.534281 
L 283.861358 180.026182 
L 284.186607 145.037752 
L 284.295383 166.03081 
L 284.40416 132.04205 
L 284.512937 150.036099 
L 284.621714 135.540893 
L 284.72995 147.536926 
L 284.838185 138.539901 
L 285.055739 175.527669 
L 285.273293 203.518413 
L 285.38207 208.016926 
L 285.490305 194.521388 
L 285.599082 234.008331 
L 285.707859 174.528 
L 285.816636 227.510479 
L 285.925413 200.01957 
L 286.142425 203.518413 
L 286.468756 164.531306 
L 286.577533 172.528661 
L 286.794545 141.039074 
L 287.012099 136.040727 
L 287.120876 133.541554 
L 287.33843 166.530645 
L 287.555442 173.528331 
L 287.881773 206.017587 
L 287.99055 201.519074 
L 288.099326 257.000727 
L 288.315798 222.012298 
L 288.424575 227.510479 
L 288.533352 239.006678 
L 288.750905 195.021223 
L 288.859141 194.021554 
L 288.967376 197.520397 
L 289.293707 151.535603 
L 289.402484 169.529653 
L 289.51072 165.530975 
L 289.727732 177.027174 
L 289.945286 162.531967 
L 290.054063 158.533289 
L 290.271075 183.525025 
L 290.379852 181.525686 
L 290.488629 182.025521 
L 290.597406 193.021884 
L 290.81496 169.029818 
L 290.923195 202.518744 
L 291.031431 169.029818 
L 291.248985 223.011967 
L 291.357762 188.023537 
L 291.466538 208.016926 
L 291.574774 204.518083 
L 291.68301 208.51676 
L 292.118117 165.530975 
L 292.226894 172.028826 
L 292.443907 154.034777 
L 292.552683 161.532298 
L 292.66146 155.034446 
L 292.770237 155.534281 
L 292.879014 199.519736 
L 292.98725 161.532298 
L 293.204803 182.025521 
L 293.31358 182.025521 
L 293.422357 189.523041 
L 293.63937 178.526678 
L 293.856923 206.517421 
L 293.9657 199.019901 
L 294.074477 162.531967 
L 294.183254 192.022215 
L 294.292031 178.526678 
L 294.400266 179.026512 
L 294.509043 171.029157 
L 294.61782 173.528331 
L 294.726597 184.02486 
L 294.835374 146.037421 
L 294.944151 148.03676 
L 295.052386 146.537256 
L 295.161163 165.530975 
L 295.378717 163.031802 
L 295.487494 154.034777 
L 295.705048 193.021884 
L 295.813283 194.021554 
L 296.030837 187.523702 
L 296.139614 233.508496 
L 296.248391 196.520727 
L 296.465403 237.507174 
L 296.573639 236.507504 
L 296.682416 205.017917 
L 296.791193 209.016595 
L 297.116982 172.028826 
L 297.225218 181.525686 
L 297.442771 172.028826 
L 297.551548 150.535934 
L 297.660325 178.026843 
L 297.768561 119.046347 
L 297.985573 166.03081 
L 298.09435 142.038744 
L 298.855247 213.015273 
L 298.964024 239.006678 
L 299.072801 204.018248 
L 299.181036 216.014281 
L 299.289813 262.498909 
L 299.616144 191.022545 
L 299.941933 137.040397 
L 300.05071 178.026843 
L 300.268264 115.047669 
L 300.377041 122.045355 
L 300.485818 139.039736 
L 300.594053 138.040066 
L 301.137937 216.014281 
L 301.246173 208.016926 
L 301.354409 211.515769 
L 301.571963 239.506512 
L 301.68074 283.991802 
L 301.789516 206.017587 
L 301.897752 233.008661 
L 302.005988 229.009983 
L 302.114765 250.502876 
L 302.441095 152.035438 
L 302.549331 169.529653 
L 302.766343 144.537917 
L 302.87512 106.550479 
L 302.983897 154.034777 
L 303.092674 87.056926 
L 303.309686 129.542876 
L 303.418463 134.541223 
L 303.853571 217.01395 
L 303.961806 221.512463 
L 304.070042 205.017917 
L 304.178819 235.507835 
L 304.287596 231.009322 
L 304.396373 238.007008 
L 304.50515 208.51676 
L 304.613385 249.003372 
L 304.721621 240.506182 
L 305.265505 157.033785 
L 305.373741 146.037421 
L 305.591295 151.035769 
L 305.700072 123.045025 
L 305.917625 134.541223 
L 306.025861 134.541223 
L 306.895535 274.494942 
L 307.004311 267.497256 
L 307.873985 101.552132 
L 307.982762 113.548165 
L 308.090998 140.53924 
L 308.308551 98.053289 
L 308.634882 185.524364 
L 308.743659 187.523702 
L 308.960671 252.502215 
L 309.069448 234.508165 
L 309.287002 295.488 
L 309.504014 256.500893 
L 309.61225 267.497256 
L 309.721027 263.498579 
L 310.047357 150.036099 
L 310.155593 145.537587 
L 310.59016 74.061223 
L 310.698936 106.050645 
L 310.807713 104.55114 
L 310.915949 111.048992 
L 311.459833 237.507174 
L 311.568069 234.008331 
L 311.676305 240.006347 
L 312.002635 272.495603 
L 312.111412 233.508496 
L 312.327883 253.501884 
L 312.545437 187.023868 
L 312.871226 131.04238 
L 312.979462 141.039074 
L 313.197016 113.548165 
L 313.305793 97.05362 
L 313.41457 121.545521 
L 313.523346 120.545851 
L 313.631582 127.543537 
L 314.175466 282.992132 
L 314.283702 249.003372 
L 314.501256 278.49362 
L 315.479706 87.056926 
L 315.588483 100.052628 
L 315.696719 87.056926 
L 315.805496 96.05395 
L 315.914273 115.047669 
L 316.240603 237.007339 
L 316.348839 214.014942 
L 316.565851 255.001388 
L 316.674628 251.502545 
L 316.783405 252.502215 
L 317.000418 265.997752 
L 317.21743 224.011636 
L 317.326207 255.501223 
L 317.543761 173.028496 
L 317.869009 155.534281 
L 317.977786 125.044364 
L 318.086563 148.03676 
L 318.19534 146.537256 
L 318.304116 136.040727 
L 318.412352 137.040397 
L 318.521129 126.044033 
L 318.84746 179.526347 
L 319.172708 236.507504 
L 319.281485 211.515769 
L 319.390261 251.002711 
L 319.499038 239.506512 
L 319.607815 259.000066 
L 319.716051 228.010314 
L 320.04184 248.003702 
L 320.259394 184.02486 
L 320.368171 172.528661 
L 320.476406 182.025521 
L 320.585183 174.528 
L 320.802737 137.540231 
L 321.020291 143.538248 
L 321.237303 132.541884 
L 321.34608 142.538579 
L 321.563634 197.520397 
L 321.780646 221.012628 
L 321.889423 219.513124 
L 321.9982 229.509818 
L 322.106977 259.999736 
L 322.215754 255.001388 
L 322.324531 260.49957 
L 322.541543 220.512793 
L 322.65032 191.022545 
L 322.759097 195.521058 
L 322.867874 178.026843 
L 322.976651 182.525355 
L 323.085427 160.532628 
L 323.193663 175.027835 
L 323.30244 150.036099 
L 323.411217 151.035769 
L 323.519994 160.032793 
L 323.628771 157.53362 
L 323.737548 167.030479 
L 324.063337 210.516099 
L 324.172114 205.517752 
L 324.389668 216.514116 
L 324.498444 227.510479 
L 324.60668 225.51114 
L 324.714916 216.014281 
L 324.823693 222.012298 
L 324.932469 252.00238 
L 325.150023 185.524364 
L 325.258259 201.01924 
L 325.366495 178.526678 
L 325.475271 195.521058 
L 325.801602 122.045355 
L 326.018073 160.032793 
L 326.12685 127.043702 
L 326.344404 138.040066 
L 326.561958 172.028826 
L 326.670193 178.526678 
L 326.887747 200.519405 
L 326.996524 208.016926 
L 327.105301 227.510479 
L 327.214077 203.018579 
L 327.322313 206.517421 
L 327.43109 205.017917 
L 327.539867 250.502876 
L 327.648644 240.006347 
L 327.866198 197.520397 
L 327.974974 175.027835 
L 328.08321 177.527008 
L 328.191987 175.527669 
L 328.300764 130.042711 
L 328.518318 160.032793 
L 328.627094 141.039074 
L 328.73533 165.03114 
L 328.844107 141.538909 
L 329.061661 181.525686 
L 329.170438 201.519074 
L 329.38745 191.022545 
L 329.822016 231.009322 
L 329.930793 254.501554 
L 330.256041 204.018248 
L 330.364818 233.508496 
L 330.582372 184.524694 
L 330.798843 200.01957 
L 330.90762 165.530975 
L 331.016397 183.525025 
L 331.125174 161.532298 
L 331.233951 177.027174 
L 331.342728 152.535273 
L 331.450963 193.021884 
L 331.668517 143.538248 
L 331.886071 178.026843 
L 331.994848 182.025521 
L 332.103083 194.021554 
L 332.211319 184.524694 
L 332.320096 189.023207 
L 332.428873 207.517091 
L 332.53765 182.025521 
L 332.646426 191.52238 
L 332.754662 229.009983 
L 332.971675 204.518083 
L 333.080451 258.000397 
L 333.189228 201.01924 
L 333.298005 207.517091 
L 333.406782 198.520066 
L 333.515018 206.017587 
L 333.732571 182.525355 
L 333.841348 193.521719 
L 333.950125 157.033785 
L 334.058902 177.527008 
L 334.167138 150.036099 
L 334.275915 182.025521 
L 334.384691 173.028496 
L 334.493468 198.020231 
L 334.602245 176.027504 
L 334.711022 184.524694 
L 334.819799 179.026512 
L 335.036811 206.017587 
L 335.145588 188.523372 
L 335.362601 217.01395 
L 335.471378 236.507504 
L 335.579613 195.021223 
L 335.797167 252.502215 
L 336.014721 182.025521 
L 336.123497 202.018909 
L 336.231733 194.521388 
L 336.34051 173.528331 
L 336.449287 180.026182 
L 336.558064 170.529322 
L 336.666841 144.038083 
L 336.775617 157.033785 
L 336.883853 150.535934 
L 336.992089 170.029488 
L 337.209643 147.037091 
L 337.318419 183.02519 
L 337.427196 181.025851 
L 337.535432 181.525686 
L 337.643668 186.024198 
L 338.078775 242.505521 
L 338.187552 200.01957 
L 338.295788 244.005025 
L 338.404565 232.008992 
L 338.513341 246.004364 
L 338.730895 193.021884 
L 338.839672 196.020893 
L 338.947908 193.021884 
L 339.056143 194.021554 
L 339.382474 145.537587 
L 339.491251 159.033124 
L 339.707722 127.043702 
L 339.925276 139.53957 
L 340.034053 130.542545 
L 340.142829 174.028165 
L 340.251065 172.528661 
L 340.359301 168.529983 
L 340.468078 178.526678 
L 340.576855 220.012959 
L 340.685632 218.01362 
L 340.903185 232.008992 
L 341.011421 251.502545 
L 341.663541 193.021884 
L 341.989871 151.035769 
L 342.098648 153.534942 
L 342.207425 132.541884 
L 342.316202 143.538248 
L 342.424438 118.046678 
L 342.641991 155.534281 
L 343.076558 239.006678 
L 343.294111 229.509818 
L 343.402888 268.99676 
L 343.620442 223.511802 
L 343.728678 245.004694 
L 343.94569 233.508496 
L 344.054467 192.022215 
L 344.163244 197.520397 
L 344.272021 165.530975 
L 344.380256 174.028165 
L 344.488492 163.531636 
L 344.597269 165.03114 
L 344.814823 109.549488 
L 344.923599 116.547174 
L 345.031835 161.032463 
L 345.140071 121.045686 
L 345.248848 131.542215 
L 345.683955 208.016926 
L 345.792191 213.015273 
L 345.900968 232.008992 
L 346.009745 228.510149 
L 346.118521 252.00238 
L 346.227298 248.003702 
L 346.336075 223.511802 
L 346.552547 264.998083 
L 346.7701 192.022215 
L 346.878877 199.519736 
L 347.09589 166.530645 
L 347.312902 180.526017 
L 347.74801 147.536926 
L 347.856245 171.029157 
L 347.965022 154.534612 
L 348.291353 198.020231 
L 348.400129 200.519405 
L 348.508365 184.524694 
L 348.617142 204.518083 
L 348.725919 203.518413 
L 348.834696 228.010314 
L 348.943473 198.020231 
L 349.05225 215.514446 
L 349.269262 209.51643 
L 349.486816 177.527008 
L 349.595593 175.027835 
L 349.70437 184.02486 
L 349.813146 157.53362 
L 349.921382 192.52205 
L 350.030159 151.535603 
L 350.138936 187.523702 
L 350.247713 182.025521 
L 350.35649 203.018579 
L 350.465266 164.031471 
L 350.573502 189.523041 
L 350.791056 179.026512 
L 350.899833 186.024198 
L 351.008609 211.515769 
L 351.117386 185.024529 
L 351.226163 194.021554 
L 351.334399 219.013289 
L 351.551953 192.52205 
L 351.660729 187.523702 
L 351.878283 204.018248 
L 351.986519 182.025521 
L 352.203531 195.021223 
L 352.312308 182.025521 
L 352.529862 206.017587 
L 352.638098 145.537587 
L 352.746333 199.519736 
L 352.963887 167.530314 
L 353.072664 202.518744 
L 353.181441 190.022876 
L 353.290217 198.520066 
L 353.398453 197.020562 
L 353.616007 175.527669 
L 353.724784 195.521058 
L 353.833561 180.526017 
L 353.942338 194.021554 
L 354.050573 193.021884 
L 354.158809 187.523702 
L 354.376363 199.019901 
L 354.485139 177.527008 
L 354.593916 219.513124 
L 354.810388 160.532628 
L 354.919165 172.028826 
L 355.027941 204.018248 
L 355.245495 177.027174 
L 355.353731 187.023868 
L 355.461967 175.527669 
L 355.67952 215.514446 
L 355.788297 169.029818 
L 355.897074 201.519074 
L 356.114086 152.035438 
L 356.33164 185.024529 
L 356.440417 184.524694 
L 356.549194 181.025851 
L 356.657971 208.016926 
L 356.766206 181.025851 
L 356.874983 249.003372 
L 357.092537 213.515107 
L 357.418326 239.006678 
L 357.527103 203.518413 
L 357.63588 213.515107 
L 357.853434 175.527669 
L 357.962211 173.528331 
L 358.070988 151.535603 
L 358.179223 178.026843 
L 358.505554 134.041388 
L 358.614331 128.043372 
L 358.723107 158.033455 
L 358.831343 148.03676 
L 359.157133 184.02486 
L 359.374686 215.014612 
L 359.482922 208.51676 
L 359.808711 239.506512 
L 359.917488 238.506843 
L 360.026265 238.506843 
L 360.134501 218.01362 
L 360.242736 235.008 
L 360.351513 208.51676 
L 360.46029 223.511802 
L 360.786621 159.033124 
L 360.894856 171.029157 
L 361.003633 168.030149 
L 361.11241 141.538909 
L 361.221187 161.532298 
L 361.329964 139.53957 
L 361.438741 149.536264 
L 361.546976 138.539901 
L 361.981543 199.519736 
L 362.09032 228.010314 
L 362.198555 227.010645 
L 362.415568 220.012959 
L 362.524345 256.500893 
L 362.633121 237.507174 
L 362.850675 257.500562 
L 363.394018 165.03114 
L 363.502795 180.526017 
L 363.611031 122.54519 
L 363.828585 147.536926 
L 364.046138 139.53957 
L 364.154915 162.032132 
L 364.263151 150.535934 
L 364.480705 190.522711 
L 364.698258 208.016926 
L 364.915812 252.502215 
L 365.024048 240.506182 
L 365.241601 210.016264 
L 365.350378 276.994116 
L 365.567932 194.521388 
L 365.676168 190.022876 
L 366.002498 150.036099 
L 366.111275 184.524694 
L 366.220052 151.535603 
L 366.328829 158.033455 
L 366.437064 155.534281 
L 366.545841 138.040066 
L 366.763395 185.024529 
L 366.872172 185.524364 
L 366.980949 185.024529 
L 367.089184 215.514446 
L 367.306197 174.028165 
L 367.523751 225.51114 
L 367.740763 229.509818 
L 367.957776 221.012628 
L 368.066553 249.003372 
L 368.284106 181.525686 
L 368.500578 197.520397 
L 368.609355 189.023207 
L 368.826908 166.03081 
L 368.935685 159.033124 
L 369.044462 140.039405 
L 369.152698 140.53924 
L 369.261474 139.53957 
L 369.370251 160.532628 
L 369.479028 140.53924 
L 369.696582 194.021554 
L 369.804818 188.023537 
L 369.913595 228.510149 
L 370.022371 215.014612 
L 370.131148 180.526017 
L 370.239925 252.00238 
L 370.457479 238.506843 
L 370.565714 256.500893 
L 370.674491 245.004694 
L 370.892045 187.523702 
L 371.109599 157.033785 
L 371.217834 164.031471 
L 371.326611 127.543537 
L 371.435388 131.04238 
L 371.544165 90.055934 
L 371.761719 133.041719 
L 371.97819 129.542876 
L 372.195744 182.025521 
L 372.413297 212.515438 
L 372.521533 218.513455 
L 372.629769 211.515769 
L 372.738546 196.020893 
L 372.956099 256.001058 
L 373.173112 230.509488 
L 373.390125 238.506843 
L 373.825232 142.538579 
L 374.042245 164.031471 
L 374.259798 128.543207 
L 374.368575 113.548165 
L 374.477352 153.534942 
L 374.693823 127.043702 
L 375.020154 199.519736 
L 375.128931 213.015273 
L 375.237166 240.506182 
L 375.345402 230.509488 
L 375.454179 205.017917 
L 375.562956 277.49395 
L 375.671733 227.510479 
L 375.78051 253.501884 
L 375.889286 217.513785 
L 376.106299 223.511802 
L 376.215076 218.01362 
L 376.43263 157.033785 
L 376.541406 157.033785 
L 376.758419 147.037091 
L 376.867196 105.55081 
L 376.975973 137.040397 
L 377.084749 130.542545 
L 377.193526 142.538579 
L 377.302303 178.526678 
L 377.410539 171.528992 
L 377.519316 200.519405 
L 377.628093 185.024529 
L 377.954423 271.995769 
L 378.062659 240.006347 
L 378.171436 257.500562 
L 378.280213 240.006347 
L 378.388989 243.50519 
L 378.606543 183.525025 
L 378.714779 187.523702 
L 378.823556 175.527669 
L 378.932333 144.537917 
L 379.041109 151.035769 
L 379.149886 103.051636 
L 379.258663 111.048992 
L 379.36744 130.042711 
L 379.475676 127.543537 
L 379.584452 134.541223 
L 379.910783 203.518413 
L 380.127796 220.012959 
L 380.236031 219.013289 
L 380.671139 262.998744 
L 380.779374 243.005355 
L 380.88761 257.500562 
L 380.996387 225.011306 
L 381.105164 259.000066 
L 381.322718 190.022876 
L 381.648507 147.536926 
L 381.757284 145.037752 
L 381.866061 111.548826 
L 381.974837 120.046017 
L 382.083614 146.537256 
L 382.19185 116.547174 
L 382.300086 127.543537 
L 382.735193 233.508496 
L 382.843429 220.512793 
L 382.951665 231.009322 
L 383.060441 202.018909 
L 383.277995 256.001058 
L 383.494466 213.015273 
L 383.71202 244.005025 
L 384.038351 175.527669 
L 384.147128 180.026182 
L 384.255363 162.531967 
L 384.472376 179.026512 
L 384.581153 136.040727 
L 384.68993 144.537917 
L 384.906942 107.050314 
L 385.015719 122.045355 
L 385.34205 188.523372 
L 385.450826 194.521388 
L 385.559062 225.011306 
L 385.667839 211.515769 
L 385.885393 236.007669 
L 386.102946 206.017587 
L 386.211182 194.021554 
L 386.428195 217.513785 
L 386.536971 213.515107 
L 386.754525 171.029157 
L 386.862761 172.028826 
L 386.970996 164.031471 
L 387.18855 219.013289 
L 387.296786 170.029488 
L 387.513798 196.520727 
L 387.622034 155.534281 
L 387.73027 176.527339 
L 387.839047 132.541884 
L 388.0566 192.52205 
L 388.164836 170.529322 
L 388.273613 174.028165 
L 388.491167 197.520397 
L 388.599944 201.01924 
L 388.70872 224.511471 
L 388.816956 181.525686 
L 388.925192 212.515438 
L 389.033968 199.519736 
L 389.251522 225.51114 
L 389.360299 196.520727 
L 389.577312 232.008992 
L 389.686089 201.519074 
L 389.794865 208.016926 
L 389.903642 176.527339 
L 390.012419 194.021554 
L 390.121196 167.030479 
L 390.229432 187.023868 
L 390.446444 162.032132 
L 390.555221 188.023537 
L 390.663998 179.526347 
L 390.772775 181.025851 
L 390.88101 149.03643 
L 390.989246 172.528661 
L 391.098023 161.532298 
L 391.2068 194.521388 
L 391.315577 187.523702 
L 391.53313 209.51643 
L 391.750143 190.022876 
L 391.85892 203.018579 
L 391.967697 233.008661 
L 392.076474 207.517091 
L 392.18525 213.515107 
L 392.293486 237.007339 
L 392.619817 194.021554 
L 392.728593 193.521719 
L 392.83737 184.524694 
L 392.945606 161.532298 
L 393.054383 192.022215 
L 393.16316 181.025851 
L 393.271937 191.022545 
L 393.380713 141.039074 
L 393.706503 184.02486 
L 393.924057 208.016926 
L 394.032833 189.023207 
L 394.250387 226.010975 
L 394.358623 183.525025 
L 394.576177 239.006678 
L 394.79373 194.521388 
L 394.902507 205.017917 
L 395.11952 186.524033 
L 395.337073 169.029818 
L 395.44585 189.023207 
L 395.663404 155.534281 
L 395.77164 151.535603 
L 396.097429 166.530645 
L 396.206206 162.032132 
L 396.314983 192.022215 
L 396.423218 181.525686 
L 396.531454 184.524694 
L 397.074797 235.008 
L 397.183033 204.518083 
L 397.29181 274.494942 
L 397.509364 237.507174 
L 397.61814 214.514777 
L 397.726917 222.012298 
L 397.835153 194.021554 
L 397.94393 197.020562 
L 398.052707 168.030149 
L 398.161483 178.526678 
L 398.27026 148.03676 
L 398.379037 163.531636 
L 398.487273 136.540562 
L 398.487273 136.540562 
" style="fill:none;stroke:#1f77b4;stroke-linecap:square;stroke-width:1.5;"/>
   </g>
   <g id="patch_3">
    <path d="M 57.6 307.584 
L 57.6 41.472 
" style="fill:none;stroke:#000000;stroke-linecap:square;stroke-linejoin:miter;stroke-width:0.8;"/>
   </g>
   <g id="patch_4">
    <path d="M 414.72 307.584 
L 414.72 41.472 
" style="fill:none;stroke:#000000;stroke-linecap:square;stroke-linejoin:miter;stroke-width:0.8;"/>
   </g>
   <g id="patch_5">
    <path d="M 57.6 307.584 
L 414.72 307.584 
" style="fill:none;stroke:#000000;stroke-linecap:square;stroke-linejoin:miter;stroke-width:0.8;"/>
   </g>
   <g id="patch_6">
    <path d="M 57.6 41.472 
L 414.72 41.472 
" style="fill:none;stroke:#000000;stroke-linecap:square;stroke-linejoin:miter;stroke-width:0.8;"/>
   </g>
   <g id="text_15">
    <!-- Current with source voltage 100.0 mV -->
    <defs>
     <path d="M 4.203125 54.6875 
L 13.1875 54.6875 
L 24.421875 12.015625 
L 35.59375 54.6875 
L 46.1875 54.6875 
L 57.421875 12.015625 
L 68.609375 54.6875 
L 77.59375 54.6875 
L 63.28125 0 
L 52.6875 0 
L 40.921875 44.828125 
L 29.109375 0 
L 18.5 0 
z
" id="DejaVuSans-77"/>
     <path d="M 9.421875 54.6875 
L 18.40625 54.6875 
L 18.40625 0 
L 9.421875 0 
z
M 9.421875 75.984375 
L 18.40625 75.984375 
L 18.40625 64.59375 
L 9.421875 64.59375 
z
" id="DejaVuSans-69"/>
     <path d="M 54.890625 33.015625 
L 54.890625 0 
L 45.90625 0 
L 45.90625 32.71875 
Q 45.90625 40.484375 42.875 44.328125 
Q 39.84375 48.1875 33.796875 48.1875 
Q 26.515625 48.1875 22.3125 43.546875 
Q 18.109375 38.921875 18.109375 30.90625 
L 18.109375 0 
L 9.078125 0 
L 9.078125 75.984375 
L 18.109375 75.984375 
L 18.109375 46.1875 
Q 21.34375 51.125 25.703125 53.5625 
Q 30.078125 56 35.796875 56 
Q 45.21875 56 50.046875 50.171875 
Q 54.890625 44.34375 54.890625 33.015625 
z
" id="DejaVuSans-68"/>
     <path d="M 30.609375 48.390625 
Q 23.390625 48.390625 19.1875 42.75 
Q 14.984375 37.109375 14.984375 27.296875 
Q 14.984375 17.484375 19.15625 11.84375 
Q 23.34375 6.203125 30.609375 6.203125 
Q 37.796875 6.203125 41.984375 11.859375 
Q 46.1875 17.53125 46.1875 27.296875 
Q 46.1875 37.015625 41.984375 42.703125 
Q 37.796875 48.390625 30.609375 48.390625 
z
M 30.609375 56 
Q 42.328125 56 49.015625 48.375 
Q 55.71875 40.765625 55.71875 27.296875 
Q 55.71875 13.875 49.015625 6.21875 
Q 42.328125 -1.421875 30.609375 -1.421875 
Q 18.84375 -1.421875 12.171875 6.21875 
Q 5.515625 13.875 5.515625 27.296875 
Q 5.515625 40.765625 12.171875 48.375 
Q 18.84375 56 30.609375 56 
z
" id="DejaVuSans-6f"/>
     <path d="M 48.78125 52.59375 
L 48.78125 44.1875 
Q 44.96875 46.296875 41.140625 47.34375 
Q 37.3125 48.390625 33.40625 48.390625 
Q 24.65625 48.390625 19.8125 42.84375 
Q 14.984375 37.3125 14.984375 27.296875 
Q 14.984375 17.28125 19.8125 11.734375 
Q 24.65625 6.203125 33.40625 6.203125 
Q 37.3125 6.203125 41.140625 7.25 
Q 44.96875 8.296875 48.78125 10.40625 
L 48.78125 2.09375 
Q 45.015625 0.34375 40.984375 -0.53125 
Q 36.96875 -1.421875 32.421875 -1.421875 
Q 20.0625 -1.421875 12.78125 6.34375 
Q 5.515625 14.109375 5.515625 27.296875 
Q 5.515625 40.671875 12.859375 48.328125 
Q 20.21875 56 33.015625 56 
Q 37.15625 56 41.109375 55.140625 
Q 45.0625 54.296875 48.78125 52.59375 
z
" id="DejaVuSans-63"/>
     <path d="M 2.984375 54.6875 
L 12.5 54.6875 
L 29.59375 8.796875 
L 46.6875 54.6875 
L 56.203125 54.6875 
L 35.6875 0 
L 23.484375 0 
z
" id="DejaVuSans-76"/>
     <path d="M 9.421875 75.984375 
L 18.40625 75.984375 
L 18.40625 0 
L 9.421875 0 
z
" id="DejaVuSans-6c"/>
     <path d="M 34.28125 27.484375 
Q 23.390625 27.484375 19.1875 25 
Q 14.984375 22.515625 14.984375 16.5 
Q 14.984375 11.71875 18.140625 8.90625 
Q 21.296875 6.109375 26.703125 6.109375 
Q 34.1875 6.109375 38.703125 11.40625 
Q 43.21875 16.703125 43.21875 25.484375 
L 43.21875 27.484375 
z
M 52.203125 31.203125 
L 52.203125 0 
L 43.21875 0 
L 43.21875 8.296875 
Q 40.140625 3.328125 35.546875 0.953125 
Q 30.953125 -1.421875 24.3125 -1.421875 
Q 15.921875 -1.421875 10.953125 3.296875 
Q 6 8.015625 6 15.921875 
Q 6 25.140625 12.171875 29.828125 
Q 18.359375 34.515625 30.609375 34.515625 
L 43.21875 34.515625 
L 43.21875 35.40625 
Q 43.21875 41.609375 39.140625 45 
Q 35.0625 48.390625 27.6875 48.390625 
Q 23 48.390625 18.546875 47.265625 
Q 14.109375 46.140625 10.015625 43.890625 
L 10.015625 52.203125 
Q 14.9375 54.109375 19.578125 55.046875 
Q 24.21875 56 28.609375 56 
Q 40.484375 56 46.34375 49.84375 
Q 52.203125 43.703125 52.203125 31.203125 
z
" id="DejaVuSans-61"/>
     <path d="M 45.40625 27.984375 
Q 45.40625 37.75 41.375 43.109375 
Q 37.359375 48.484375 30.078125 48.484375 
Q 22.859375 48.484375 18.828125 43.109375 
Q 14.796875 37.75 14.796875 27.984375 
Q 14.796875 18.265625 18.828125 12.890625 
Q 22.859375 7.515625 30.078125 7.515625 
Q 37.359375 7.515625 41.375 12.890625 
Q 45.40625 18.265625 45.40625 27.984375 
z
M 54.390625 6.78125 
Q 54.390625 -7.171875 48.1875 -13.984375 
Q 42 -20.796875 29.203125 -20.796875 
Q 24.46875 -20.796875 20.265625 -20.09375 
Q 16.0625 -19.390625 12.109375 -17.921875 
L 12.109375 -9.1875 
Q 16.0625 -11.328125 19.921875 -12.34375 
Q 23.78125 -13.375 27.78125 -13.375 
Q 36.625 -13.375 41.015625 -8.765625 
Q 45.40625 -4.15625 45.40625 5.171875 
L 45.40625 9.625 
Q 42.625 4.78125 38.28125 2.390625 
Q 33.9375 0 27.875 0 
Q 17.828125 0 11.671875 7.65625 
Q 5.515625 15.328125 5.515625 27.984375 
Q 5.515625 40.671875 11.671875 48.328125 
Q 17.828125 56 27.875 56 
Q 33.9375 56 38.28125 53.609375 
Q 42.625 51.21875 45.40625 46.390625 
L 45.40625 54.6875 
L 54.390625 54.6875 
z
" id="DejaVuSans-67"/>
     <path d="M 52 44.1875 
Q 55.375 50.25 60.0625 53.125 
Q 64.75 56 71.09375 56 
Q 79.640625 56 84.28125 50.015625 
Q 88.921875 44.046875 88.921875 33.015625 
L 88.921875 0 
L 79.890625 0 
L 79.890625 32.71875 
Q 79.890625 40.578125 77.09375 44.375 
Q 74.3125 48.1875 68.609375 48.1875 
Q 61.625 48.1875 57.5625 43.546875 
Q 53.515625 38.921875 53.515625 30.90625 
L 53.515625 0 
L 44.484375 0 
L 44.484375 32.71875 
Q 44.484375 40.625 41.703125 44.40625 
Q 38.921875 48.1875 33.109375 48.1875 
Q 26.21875 48.1875 22.15625 43.53125 
Q 18.109375 38.875 18.109375 30.90625 
L 18.109375 0 
L 9.078125 0 
L 9.078125 54.6875 
L 18.109375 54.6875 
L 18.109375 46.1875 
Q 21.1875 51.21875 25.484375 53.609375 
Q 29.78125 56 35.6875 56 
Q 41.65625 56 45.828125 52.96875 
Q 50 49.953125 52 44.1875 
z
" id="DejaVuSans-6d"/>
     <path d="M 28.609375 0 
L 0.78125 72.90625 
L 11.078125 72.90625 
L 34.1875 11.53125 
L 57.328125 72.90625 
L 67.578125 72.90625 
L 39.796875 0 
z
" id="DejaVuSans-56"/>
    </defs>
    <g transform="translate(121.528125 35.472)scale(0.12 -0.12)">
     <use xlink:href="#DejaVuSans-43"/>
     <use x="69.824219" xlink:href="#DejaVuSans-75"/>
     <use x="133.203125" xlink:href="#DejaVuSans-72"/>
     <use x="174.300781" xlink:href="#DejaVuSans-72"/>
     <use x="215.382812" xlink:href="#DejaVuSans-65"/>
     <use x="276.90625" xlink:href="#DejaVuSans-6e"/>
     <use x="340.285156" xlink:href="#DejaVuSans-74"/>
     <use x="379.494141" xlink:href="#DejaVuSans-20"/>
     <use x="411.28125" xlink:href="#DejaVuSans-77"/>
     <use x="493.068359" xlink:href="#DejaVuSans-69"/>
     <use x="520.851562" xlink:href="#DejaVuSans-74"/>
     <use x="560.060547" xlink:href="#DejaVuSans-68"/>
     <use x="623.439453" xlink:href="#DejaVuSans-20"/>
     <use x="655.226562" xlink:href="#DejaVuSans-73"/>
     <use x="707.326172" xlink:href="#DejaVuSans-6f"/>
     <use x="768.507812" xlink:href="#DejaVuSans-75"/>
     <use x="831.886719" xlink:href="#DejaVuSans-72"/>
     <use x="872.96875" xlink:href="#DejaVuSans-63"/>
     <use x="927.949219" xlink:href="#DejaVuSans-65"/>
     <use x="989.472656" xlink:href="#DejaVuSans-20"/>
     <use x="1021.259766" xlink:href="#DejaVuSans-76"/>
     <use x="1080.439453" xlink:href="#DejaVuSans-6f"/>
     <use x="1141.621094" xlink:href="#DejaVuSans-6c"/>
     <use x="1169.404297" xlink:href="#DejaVuSans-74"/>
     <use x="1208.613281" xlink:href="#DejaVuSans-61"/>
     <use x="1269.892578" xlink:href="#DejaVuSans-67"/>
     <use x="1333.369141" xlink:href="#DejaVuSans-65"/>
     <use x="1394.892578" xlink:href="#DejaVuSans-20"/>
     <use x="1426.679688" xlink:href="#DejaVuSans-31"/>
     <use x="1490.302734" xlink:href="#DejaVuSans-30"/>
     <use x="1553.925781" xlink:href="#DejaVuSans-30"/>
     <use x="1617.548828" xlink:href="#DejaVuSans-2e"/>
     <use x="1649.335938" xlink:href="#DejaVuSans-30"/>
     <use x="1712.958984" xlink:href="#DejaVuSans-20"/>
     <use x="1744.746094" xlink:href="#DejaVuSans-6d"/>
     <use x="1842.158203" xlink:href="#DejaVuSans-56"/>
    </g>
   </g>
  </g>
 </g>
 <defs>
  <clipPath id="p3c3f8d66c8">
   <rect height="266.112" width="357.12" x="57.6" y="41.472"/>
  </clipPath>
 </defs>
</svg>
