<?xml version="1.0" encoding="utf-8" standalone="no"?>
<!DOCTYPE svg PUBLIC "-//W3C//DTD SVG 1.1//EN"
  "http://www.w3.org/Graphics/SVG/1.1/DTD/svg11.dtd">
<!-- Created with matplotlib (http://matplotlib.org/) -->
<svg height="345pt" version="1.1" viewBox="0 0 460 345" width="460pt" xmlns="http://www.w3.org/2000/svg" xmlns:xlink="http://www.w3.org/1999/xlink">
 <defs>
  <style type="text/css">
*{stroke-linecap:butt;stroke-linejoin:round;}
  </style>
 </defs>
 <g id="figure_1">
  <g id="patch_1">
   <path d="M 0 345.6 
L 460.8 345.6 
L 460.8 0 
L 0 0 
z
" style="fill:#ffffff;"/>
  </g>
  <g id="axes_1">
   <g id="patch_2">
    <path d="M 57.6 307.584 
L 414.72 307.584 
L 414.72 41.472 
L 57.6 41.472 
z
" style="fill:#ffffff;"/>
   </g>
   <g id="matplotlib.axis_1">
    <g id="xtick_1">
     <g id="line2d_1">
      <defs>
       <path d="M 0 0 
L 0 3.5 
" id="m1627ac3373" style="stroke:#000000;stroke-width:0.8;"/>
      </defs>
      <g>
       <use style="stroke:#000000;stroke-width:0.8;" x="73.832727" xlink:href="#m1627ac3373" y="307.584"/>
      </g>
     </g>
     <g id="text_1">
      <!-- 0 -->
      <defs>
       <path d="M 31.78125 66.40625 
Q 24.171875 66.40625 20.328125 58.90625 
Q 16.5 51.421875 16.5 36.375 
Q 16.5 21.390625 20.328125 13.890625 
Q 24.171875 6.390625 31.78125 6.390625 
Q 39.453125 6.390625 43.28125 13.890625 
Q 47.125 21.390625 47.125 36.375 
Q 47.125 51.421875 43.28125 58.90625 
Q 39.453125 66.40625 31.78125 66.40625 
z
M 31.78125 74.21875 
Q 44.046875 74.21875 50.515625 64.515625 
Q 56.984375 54.828125 56.984375 36.375 
Q 56.984375 17.96875 50.515625 8.265625 
Q 44.046875 -1.421875 31.78125 -1.421875 
Q 19.53125 -1.421875 13.0625 8.265625 
Q 6.59375 17.96875 6.59375 36.375 
Q 6.59375 54.828125 13.0625 64.515625 
Q 19.53125 74.21875 31.78125 74.21875 
z
" id="DejaVuSans-30"/>
      </defs>
      <g transform="translate(70.651477 322.182437)scale(0.1 -0.1)">
       <use xlink:href="#DejaVuSans-30"/>
      </g>
     </g>
    </g>
    <g id="xtick_2">
     <g id="line2d_2">
      <g>
       <use style="stroke:#000000;stroke-width:0.8;" x="128.030884" xlink:href="#m1627ac3373" y="307.584"/>
      </g>
     </g>
     <g id="text_2">
      <!-- 100 -->
      <defs>
       <path d="M 12.40625 8.296875 
L 28.515625 8.296875 
L 28.515625 63.921875 
L 10.984375 60.40625 
L 10.984375 69.390625 
L 28.421875 72.90625 
L 38.28125 72.90625 
L 38.28125 8.296875 
L 54.390625 8.296875 
L 54.390625 0 
L 12.40625 0 
z
" id="DejaVuSans-31"/>
      </defs>
      <g transform="translate(118.487134 322.182437)scale(0.1 -0.1)">
       <use xlink:href="#DejaVuSans-31"/>
       <use x="63.623047" xlink:href="#DejaVuSans-30"/>
       <use x="127.246094" xlink:href="#DejaVuSans-30"/>
      </g>
     </g>
    </g>
    <g id="xtick_3">
     <g id="line2d_3">
      <g>
       <use style="stroke:#000000;stroke-width:0.8;" x="182.22904" xlink:href="#m1627ac3373" y="307.584"/>
      </g>
     </g>
     <g id="text_3">
      <!-- 200 -->
      <defs>
       <path d="M 19.1875 8.296875 
L 53.609375 8.296875 
L 53.609375 0 
L 7.328125 0 
L 7.328125 8.296875 
Q 12.9375 14.109375 22.625 23.890625 
Q 32.328125 33.6875 34.8125 36.53125 
Q 39.546875 41.84375 41.421875 45.53125 
Q 43.3125 49.21875 43.3125 52.78125 
Q 43.3125 58.59375 39.234375 62.25 
Q 35.15625 65.921875 28.609375 65.921875 
Q 23.96875 65.921875 18.8125 64.3125 
Q 13.671875 62.703125 7.8125 59.421875 
L 7.8125 69.390625 
Q 13.765625 71.78125 18.9375 73 
Q 24.125 74.21875 28.421875 74.21875 
Q 39.75 74.21875 46.484375 68.546875 
Q 53.21875 62.890625 53.21875 53.421875 
Q 53.21875 48.921875 51.53125 44.890625 
Q 49.859375 40.875 45.40625 35.40625 
Q 44.1875 33.984375 37.640625 27.21875 
Q 31.109375 20.453125 19.1875 8.296875 
z
" id="DejaVuSans-32"/>
      </defs>
      <g transform="translate(172.68529 322.182437)scale(0.1 -0.1)">
       <use xlink:href="#DejaVuSans-32"/>
       <use x="63.623047" xlink:href="#DejaVuSans-30"/>
       <use x="127.246094" xlink:href="#DejaVuSans-30"/>
      </g>
     </g>
    </g>
    <g id="xtick_4">
     <g id="line2d_4">
      <g>
       <use style="stroke:#000000;stroke-width:0.8;" x="236.427197" xlink:href="#m1627ac3373" y="307.584"/>
      </g>
     </g>
     <g id="text_4">
      <!-- 300 -->
      <defs>
       <path d="M 40.578125 39.3125 
Q 47.65625 37.796875 51.625 33 
Q 55.609375 28.21875 55.609375 21.1875 
Q 55.609375 10.40625 48.1875 4.484375 
Q 40.765625 -1.421875 27.09375 -1.421875 
Q 22.515625 -1.421875 17.65625 -0.515625 
Q 12.796875 0.390625 7.625 2.203125 
L 7.625 11.71875 
Q 11.71875 9.328125 16.59375 8.109375 
Q 21.484375 6.890625 26.8125 6.890625 
Q 36.078125 6.890625 40.9375 10.546875 
Q 45.796875 14.203125 45.796875 21.1875 
Q 45.796875 27.640625 41.28125 31.265625 
Q 36.765625 34.90625 28.71875 34.90625 
L 20.21875 34.90625 
L 20.21875 43.015625 
L 29.109375 43.015625 
Q 36.375 43.015625 40.234375 45.921875 
Q 44.09375 48.828125 44.09375 54.296875 
Q 44.09375 59.90625 40.109375 62.90625 
Q 36.140625 65.921875 28.71875 65.921875 
Q 24.65625 65.921875 20.015625 65.03125 
Q 15.375 64.15625 9.8125 62.3125 
L 9.8125 71.09375 
Q 15.4375 72.65625 20.34375 73.4375 
Q 25.25 74.21875 29.59375 74.21875 
Q 40.828125 74.21875 47.359375 69.109375 
Q 53.90625 64.015625 53.90625 55.328125 
Q 53.90625 49.265625 50.4375 45.09375 
Q 46.96875 40.921875 40.578125 39.3125 
z
" id="DejaVuSans-33"/>
      </defs>
      <g transform="translate(226.883447 322.182437)scale(0.1 -0.1)">
       <use xlink:href="#DejaVuSans-33"/>
       <use x="63.623047" xlink:href="#DejaVuSans-30"/>
       <use x="127.246094" xlink:href="#DejaVuSans-30"/>
      </g>
     </g>
    </g>
    <g id="xtick_5">
     <g id="line2d_5">
      <g>
       <use style="stroke:#000000;stroke-width:0.8;" x="290.625353" xlink:href="#m1627ac3373" y="307.584"/>
      </g>
     </g>
     <g id="text_5">
      <!-- 400 -->
      <defs>
       <path d="M 37.796875 64.3125 
L 12.890625 25.390625 
L 37.796875 25.390625 
z
M 35.203125 72.90625 
L 47.609375 72.90625 
L 47.609375 25.390625 
L 58.015625 25.390625 
L 58.015625 17.1875 
L 47.609375 17.1875 
L 47.609375 0 
L 37.796875 0 
L 37.796875 17.1875 
L 4.890625 17.1875 
L 4.890625 26.703125 
z
" id="DejaVuSans-34"/>
      </defs>
      <g transform="translate(281.081603 322.182437)scale(0.1 -0.1)">
       <use xlink:href="#DejaVuSans-34"/>
       <use x="63.623047" xlink:href="#DejaVuSans-30"/>
       <use x="127.246094" xlink:href="#DejaVuSans-30"/>
      </g>
     </g>
    </g>
    <g id="xtick_6">
     <g id="line2d_6">
      <g>
       <use style="stroke:#000000;stroke-width:0.8;" x="344.82351" xlink:href="#m1627ac3373" y="307.584"/>
      </g>
     </g>
     <g id="text_6">
      <!-- 500 -->
      <defs>
       <path d="M 10.796875 72.90625 
L 49.515625 72.90625 
L 49.515625 64.59375 
L 19.828125 64.59375 
L 19.828125 46.734375 
Q 21.96875 47.46875 24.109375 47.828125 
Q 26.265625 48.1875 28.421875 48.1875 
Q 40.625 48.1875 47.75 41.5 
Q 54.890625 34.8125 54.890625 23.390625 
Q 54.890625 11.625 47.5625 5.09375 
Q 40.234375 -1.421875 26.90625 -1.421875 
Q 22.3125 -1.421875 17.546875 -0.640625 
Q 12.796875 0.140625 7.71875 1.703125 
L 7.71875 11.625 
Q 12.109375 9.234375 16.796875 8.0625 
Q 21.484375 6.890625 26.703125 6.890625 
Q 35.15625 6.890625 40.078125 11.328125 
Q 45.015625 15.765625 45.015625 23.390625 
Q 45.015625 31 40.078125 35.4375 
Q 35.15625 39.890625 26.703125 39.890625 
Q 22.75 39.890625 18.8125 39.015625 
Q 14.890625 38.140625 10.796875 36.28125 
z
" id="DejaVuSans-35"/>
      </defs>
      <g transform="translate(335.27976 322.182437)scale(0.1 -0.1)">
       <use xlink:href="#DejaVuSans-35"/>
       <use x="63.623047" xlink:href="#DejaVuSans-30"/>
       <use x="127.246094" xlink:href="#DejaVuSans-30"/>
      </g>
     </g>
    </g>
    <g id="xtick_7">
     <g id="line2d_7">
      <g>
       <use style="stroke:#000000;stroke-width:0.8;" x="399.021667" xlink:href="#m1627ac3373" y="307.584"/>
      </g>
     </g>
     <g id="text_7">
      <!-- 600 -->
      <defs>
       <path d="M 33.015625 40.375 
Q 26.375 40.375 22.484375 35.828125 
Q 18.609375 31.296875 18.609375 23.390625 
Q 18.609375 15.53125 22.484375 10.953125 
Q 26.375 6.390625 33.015625 6.390625 
Q 39.65625 6.390625 43.53125 10.953125 
Q 47.40625 15.53125 47.40625 23.390625 
Q 47.40625 31.296875 43.53125 35.828125 
Q 39.65625 40.375 33.015625 40.375 
z
M 52.59375 71.296875 
L 52.59375 62.3125 
Q 48.875 64.0625 45.09375 64.984375 
Q 41.3125 65.921875 37.59375 65.921875 
Q 27.828125 65.921875 22.671875 59.328125 
Q 17.53125 52.734375 16.796875 39.40625 
Q 19.671875 43.65625 24.015625 45.921875 
Q 28.375 48.1875 33.59375 48.1875 
Q 44.578125 48.1875 50.953125 41.515625 
Q 57.328125 34.859375 57.328125 23.390625 
Q 57.328125 12.15625 50.6875 5.359375 
Q 44.046875 -1.421875 33.015625 -1.421875 
Q 20.359375 -1.421875 13.671875 8.265625 
Q 6.984375 17.96875 6.984375 36.375 
Q 6.984375 53.65625 15.1875 63.9375 
Q 23.390625 74.21875 37.203125 74.21875 
Q 40.921875 74.21875 44.703125 73.484375 
Q 48.484375 72.75 52.59375 71.296875 
z
" id="DejaVuSans-36"/>
      </defs>
      <g transform="translate(389.477917 322.182437)scale(0.1 -0.1)">
       <use xlink:href="#DejaVuSans-36"/>
       <use x="63.623047" xlink:href="#DejaVuSans-30"/>
       <use x="127.246094" xlink:href="#DejaVuSans-30"/>
      </g>
     </g>
    </g>
    <g id="text_8">
     <!-- t(s) -->
     <defs>
      <path d="M 18.3125 70.21875 
L 18.3125 54.6875 
L 36.8125 54.6875 
L 36.8125 47.703125 
L 18.3125 47.703125 
L 18.3125 18.015625 
Q 18.3125 11.328125 20.140625 9.421875 
Q 21.96875 7.515625 27.59375 7.515625 
L 36.8125 7.515625 
L 36.8125 0 
L 27.59375 0 
Q 17.1875 0 13.234375 3.875 
Q 9.28125 7.765625 9.28125 18.015625 
L 9.28125 47.703125 
L 2.6875 47.703125 
L 2.6875 54.6875 
L 9.28125 54.6875 
L 9.28125 70.21875 
z
" id="DejaVuSans-74"/>
      <path d="M 31 75.875 
Q 24.46875 64.65625 21.28125 53.65625 
Q 18.109375 42.671875 18.109375 31.390625 
Q 18.109375 20.125 21.3125 9.0625 
Q 24.515625 -2 31 -13.1875 
L 23.1875 -13.1875 
Q 15.875 -1.703125 12.234375 9.375 
Q 8.59375 20.453125 8.59375 31.390625 
Q 8.59375 42.28125 12.203125 53.3125 
Q 15.828125 64.359375 23.1875 75.875 
z
" id="DejaVuSans-28"/>
      <path d="M 44.28125 53.078125 
L 44.28125 44.578125 
Q 40.484375 46.53125 36.375 47.5 
Q 32.28125 48.484375 27.875 48.484375 
Q 21.1875 48.484375 17.84375 46.4375 
Q 14.5 44.390625 14.5 40.28125 
Q 14.5 37.15625 16.890625 35.375 
Q 19.28125 33.59375 26.515625 31.984375 
L 29.59375 31.296875 
Q 39.15625 29.25 43.1875 25.515625 
Q 47.21875 21.78125 47.21875 15.09375 
Q 47.21875 7.46875 41.1875 3.015625 
Q 35.15625 -1.421875 24.609375 -1.421875 
Q 20.21875 -1.421875 15.453125 -0.5625 
Q 10.6875 0.296875 5.421875 2 
L 5.421875 11.28125 
Q 10.40625 8.6875 15.234375 7.390625 
Q 20.0625 6.109375 24.8125 6.109375 
Q 31.15625 6.109375 34.5625 8.28125 
Q 37.984375 10.453125 37.984375 14.40625 
Q 37.984375 18.0625 35.515625 20.015625 
Q 33.0625 21.96875 24.703125 23.78125 
L 21.578125 24.515625 
Q 13.234375 26.265625 9.515625 29.90625 
Q 5.8125 33.546875 5.8125 39.890625 
Q 5.8125 47.609375 11.28125 51.796875 
Q 16.75 56 26.8125 56 
Q 31.78125 56 36.171875 55.265625 
Q 40.578125 54.546875 44.28125 53.078125 
z
" id="DejaVuSans-73"/>
      <path d="M 8.015625 75.875 
L 15.828125 75.875 
Q 23.140625 64.359375 26.78125 53.3125 
Q 30.421875 42.28125 30.421875 31.390625 
Q 30.421875 20.453125 26.78125 9.375 
Q 23.140625 -1.703125 15.828125 -13.1875 
L 8.015625 -13.1875 
Q 14.5 -2 17.703125 9.0625 
Q 20.90625 20.125 20.90625 31.390625 
Q 20.90625 42.671875 17.703125 53.65625 
Q 14.5 64.65625 8.015625 75.875 
z
" id="DejaVuSans-29"/>
     </defs>
     <g transform="translate(227.693594 335.860562)scale(0.1 -0.1)">
      <use xlink:href="#DejaVuSans-74"/>
      <use x="39.208984" xlink:href="#DejaVuSans-28"/>
      <use x="78.222656" xlink:href="#DejaVuSans-73"/>
      <use x="130.322266" xlink:href="#DejaVuSans-29"/>
     </g>
    </g>
   </g>
   <g id="matplotlib.axis_2">
    <g id="ytick_1">
     <g id="line2d_8">
      <defs>
       <path d="M 0 0 
L -3.5 0 
" id="m99f95bee55" style="stroke:#000000;stroke-width:0.8;"/>
      </defs>
      <g>
       <use style="stroke:#000000;stroke-width:0.8;" x="57.6" xlink:href="#m99f95bee55" y="295.488"/>
      </g>
     </g>
     <g id="text_9">
      <!-- −0.000003 -->
      <defs>
       <path d="M 10.59375 35.5 
L 73.1875 35.5 
L 73.1875 27.203125 
L 10.59375 27.203125 
z
" id="DejaVuSans-2212"/>
       <path d="M 10.6875 12.40625 
L 21 12.40625 
L 21 0 
L 10.6875 0 
z
" id="DejaVuSans-2e"/>
      </defs>
      <g transform="translate(-5.495313 299.287219)scale(0.1 -0.1)">
       <use xlink:href="#DejaVuSans-2212"/>
       <use x="83.789062" xlink:href="#DejaVuSans-30"/>
       <use x="147.412109" xlink:href="#DejaVuSans-2e"/>
       <use x="179.199219" xlink:href="#DejaVuSans-30"/>
       <use x="242.822266" xlink:href="#DejaVuSans-30"/>
       <use x="306.445312" xlink:href="#DejaVuSans-30"/>
       <use x="370.068359" xlink:href="#DejaVuSans-30"/>
       <use x="433.691406" xlink:href="#DejaVuSans-30"/>
       <use x="497.314453" xlink:href="#DejaVuSans-33"/>
      </g>
     </g>
    </g>
    <g id="ytick_2">
     <g id="line2d_9">
      <g>
       <use style="stroke:#000000;stroke-width:0.8;" x="57.6" xlink:href="#m99f95bee55" y="259.380537"/>
      </g>
     </g>
     <g id="text_10">
      <!-- −0.000002 -->
      <g transform="translate(-5.495313 263.179756)scale(0.1 -0.1)">
       <use xlink:href="#DejaVuSans-2212"/>
       <use x="83.789062" xlink:href="#DejaVuSans-30"/>
       <use x="147.412109" xlink:href="#DejaVuSans-2e"/>
       <use x="179.199219" xlink:href="#DejaVuSans-30"/>
       <use x="242.822266" xlink:href="#DejaVuSans-30"/>
       <use x="306.445312" xlink:href="#DejaVuSans-30"/>
       <use x="370.068359" xlink:href="#DejaVuSans-30"/>
       <use x="433.691406" xlink:href="#DejaVuSans-30"/>
       <use x="497.314453" xlink:href="#DejaVuSans-32"/>
      </g>
     </g>
    </g>
    <g id="ytick_3">
     <g id="line2d_10">
      <g>
       <use style="stroke:#000000;stroke-width:0.8;" x="57.6" xlink:href="#m99f95bee55" y="223.273075"/>
      </g>
     </g>
     <g id="text_11">
      <!-- −0.000001 -->
      <g transform="translate(-5.495313 227.072293)scale(0.1 -0.1)">
       <use xlink:href="#DejaVuSans-2212"/>
       <use x="83.789062" xlink:href="#DejaVuSans-30"/>
       <use x="147.412109" xlink:href="#DejaVuSans-2e"/>
       <use x="179.199219" xlink:href="#DejaVuSans-30"/>
       <use x="242.822266" xlink:href="#DejaVuSans-30"/>
       <use x="306.445312" xlink:href="#DejaVuSans-30"/>
       <use x="370.068359" xlink:href="#DejaVuSans-30"/>
       <use x="433.691406" xlink:href="#DejaVuSans-30"/>
       <use x="497.314453" xlink:href="#DejaVuSans-31"/>
      </g>
     </g>
    </g>
    <g id="ytick_4">
     <g id="line2d_11">
      <g>
       <use style="stroke:#000000;stroke-width:0.8;" x="57.6" xlink:href="#m99f95bee55" y="187.165612"/>
      </g>
     </g>
     <g id="text_12">
      <!-- 0.000000 -->
      <g transform="translate(2.884375 190.964831)scale(0.1 -0.1)">
       <use xlink:href="#DejaVuSans-30"/>
       <use x="63.623047" xlink:href="#DejaVuSans-2e"/>
       <use x="95.410156" xlink:href="#DejaVuSans-30"/>
       <use x="159.033203" xlink:href="#DejaVuSans-30"/>
       <use x="222.65625" xlink:href="#DejaVuSans-30"/>
       <use x="286.279297" xlink:href="#DejaVuSans-30"/>
       <use x="349.902344" xlink:href="#DejaVuSans-30"/>
       <use x="413.525391" xlink:href="#DejaVuSans-30"/>
      </g>
     </g>
    </g>
    <g id="ytick_5">
     <g id="line2d_12">
      <g>
       <use style="stroke:#000000;stroke-width:0.8;" x="57.6" xlink:href="#m99f95bee55" y="151.058149"/>
      </g>
     </g>
     <g id="text_13">
      <!-- 0.000001 -->
      <g transform="translate(2.884375 154.857368)scale(0.1 -0.1)">
       <use xlink:href="#DejaVuSans-30"/>
       <use x="63.623047" xlink:href="#DejaVuSans-2e"/>
       <use x="95.410156" xlink:href="#DejaVuSans-30"/>
       <use x="159.033203" xlink:href="#DejaVuSans-30"/>
       <use x="222.65625" xlink:href="#DejaVuSans-30"/>
       <use x="286.279297" xlink:href="#DejaVuSans-30"/>
       <use x="349.902344" xlink:href="#DejaVuSans-30"/>
       <use x="413.525391" xlink:href="#DejaVuSans-31"/>
      </g>
     </g>
    </g>
    <g id="ytick_6">
     <g id="line2d_13">
      <g>
       <use style="stroke:#000000;stroke-width:0.8;" x="57.6" xlink:href="#m99f95bee55" y="114.950687"/>
      </g>
     </g>
     <g id="text_14">
      <!-- 0.000002 -->
      <g transform="translate(2.884375 118.749905)scale(0.1 -0.1)">
       <use xlink:href="#DejaVuSans-30"/>
       <use x="63.623047" xlink:href="#DejaVuSans-2e"/>
       <use x="95.410156" xlink:href="#DejaVuSans-30"/>
       <use x="159.033203" xlink:href="#DejaVuSans-30"/>
       <use x="222.65625" xlink:href="#DejaVuSans-30"/>
       <use x="286.279297" xlink:href="#DejaVuSans-30"/>
       <use x="349.902344" xlink:href="#DejaVuSans-30"/>
       <use x="413.525391" xlink:href="#DejaVuSans-32"/>
      </g>
     </g>
    </g>
    <g id="ytick_7">
     <g id="line2d_14">
      <g>
       <use style="stroke:#000000;stroke-width:0.8;" x="57.6" xlink:href="#m99f95bee55" y="78.843224"/>
      </g>
     </g>
     <g id="text_15">
      <!-- 0.000003 -->
      <g transform="translate(2.884375 82.642443)scale(0.1 -0.1)">
       <use xlink:href="#DejaVuSans-30"/>
       <use x="63.623047" xlink:href="#DejaVuSans-2e"/>
       <use x="95.410156" xlink:href="#DejaVuSans-30"/>
       <use x="159.033203" xlink:href="#DejaVuSans-30"/>
       <use x="222.65625" xlink:href="#DejaVuSans-30"/>
       <use x="286.279297" xlink:href="#DejaVuSans-30"/>
       <use x="349.902344" xlink:href="#DejaVuSans-30"/>
       <use x="413.525391" xlink:href="#DejaVuSans-33"/>
      </g>
     </g>
    </g>
    <g id="ytick_8">
     <g id="line2d_15">
      <g>
       <use style="stroke:#000000;stroke-width:0.8;" x="57.6" xlink:href="#m99f95bee55" y="42.735761"/>
      </g>
     </g>
     <g id="text_16">
      <!-- 0.000004 -->
      <g transform="translate(2.884375 46.53498)scale(0.1 -0.1)">
       <use xlink:href="#DejaVuSans-30"/>
       <use x="63.623047" xlink:href="#DejaVuSans-2e"/>
       <use x="95.410156" xlink:href="#DejaVuSans-30"/>
       <use x="159.033203" xlink:href="#DejaVuSans-30"/>
       <use x="222.65625" xlink:href="#DejaVuSans-30"/>
       <use x="286.279297" xlink:href="#DejaVuSans-30"/>
       <use x="349.902344" xlink:href="#DejaVuSans-30"/>
       <use x="413.525391" xlink:href="#DejaVuSans-34"/>
      </g>
     </g>
    </g>
    <g id="text_17">
     <!-- Voltage (V) -->
     <defs>
      <path d="M 28.609375 0 
L 0.78125 72.90625 
L 11.078125 72.90625 
L 34.1875 11.53125 
L 57.328125 72.90625 
L 67.578125 72.90625 
L 39.796875 0 
z
" id="DejaVuSans-56"/>
      <path d="M 30.609375 48.390625 
Q 23.390625 48.390625 19.1875 42.75 
Q 14.984375 37.109375 14.984375 27.296875 
Q 14.984375 17.484375 19.15625 11.84375 
Q 23.34375 6.203125 30.609375 6.203125 
Q 37.796875 6.203125 41.984375 11.859375 
Q 46.1875 17.53125 46.1875 27.296875 
Q 46.1875 37.015625 41.984375 42.703125 
Q 37.796875 48.390625 30.609375 48.390625 
z
M 30.609375 56 
Q 42.328125 56 49.015625 48.375 
Q 55.71875 40.765625 55.71875 27.296875 
Q 55.71875 13.875 49.015625 6.21875 
Q 42.328125 -1.421875 30.609375 -1.421875 
Q 18.84375 -1.421875 12.171875 6.21875 
Q 5.515625 13.875 5.515625 27.296875 
Q 5.515625 40.765625 12.171875 48.375 
Q 18.84375 56 30.609375 56 
z
" id="DejaVuSans-6f"/>
      <path d="M 9.421875 75.984375 
L 18.40625 75.984375 
L 18.40625 0 
L 9.421875 0 
z
" id="DejaVuSans-6c"/>
      <path d="M 34.28125 27.484375 
Q 23.390625 27.484375 19.1875 25 
Q 14.984375 22.515625 14.984375 16.5 
Q 14.984375 11.71875 18.140625 8.90625 
Q 21.296875 6.109375 26.703125 6.109375 
Q 34.1875 6.109375 38.703125 11.40625 
Q 43.21875 16.703125 43.21875 25.484375 
L 43.21875 27.484375 
z
M 52.203125 31.203125 
L 52.203125 0 
L 43.21875 0 
L 43.21875 8.296875 
Q 40.140625 3.328125 35.546875 0.953125 
Q 30.953125 -1.421875 24.3125 -1.421875 
Q 15.921875 -1.421875 10.953125 3.296875 
Q 6 8.015625 6 15.921875 
Q 6 25.140625 12.171875 29.828125 
Q 18.359375 34.515625 30.609375 34.515625 
L 43.21875 34.515625 
L 43.21875 35.40625 
Q 43.21875 41.609375 39.140625 45 
Q 35.0625 48.390625 27.6875 48.390625 
Q 23 48.390625 18.546875 47.265625 
Q 14.109375 46.140625 10.015625 43.890625 
L 10.015625 52.203125 
Q 14.9375 54.109375 19.578125 55.046875 
Q 24.21875 56 28.609375 56 
Q 40.484375 56 46.34375 49.84375 
Q 52.203125 43.703125 52.203125 31.203125 
z
" id="DejaVuSans-61"/>
      <path d="M 45.40625 27.984375 
Q 45.40625 37.75 41.375 43.109375 
Q 37.359375 48.484375 30.078125 48.484375 
Q 22.859375 48.484375 18.828125 43.109375 
Q 14.796875 37.75 14.796875 27.984375 
Q 14.796875 18.265625 18.828125 12.890625 
Q 22.859375 7.515625 30.078125 7.515625 
Q 37.359375 7.515625 41.375 12.890625 
Q 45.40625 18.265625 45.40625 27.984375 
z
M 54.390625 6.78125 
Q 54.390625 -7.171875 48.1875 -13.984375 
Q 42 -20.796875 29.203125 -20.796875 
Q 24.46875 -20.796875 20.265625 -20.09375 
Q 16.0625 -19.390625 12.109375 -17.921875 
L 12.109375 -9.1875 
Q 16.0625 -11.328125 19.921875 -12.34375 
Q 23.78125 -13.375 27.78125 -13.375 
Q 36.625 -13.375 41.015625 -8.765625 
Q 45.40625 -4.15625 45.40625 5.171875 
L 45.40625 9.625 
Q 42.625 4.78125 38.28125 2.390625 
Q 33.9375 0 27.875 0 
Q 17.828125 0 11.671875 7.65625 
Q 5.515625 15.328125 5.515625 27.984375 
Q 5.515625 40.671875 11.671875 48.328125 
Q 17.828125 56 27.875 56 
Q 33.9375 56 38.28125 53.609375 
Q 42.625 51.21875 45.40625 46.390625 
L 45.40625 54.6875 
L 54.390625 54.6875 
z
" id="DejaVuSans-67"/>
      <path d="M 56.203125 29.59375 
L 56.203125 25.203125 
L 14.890625 25.203125 
Q 15.484375 15.921875 20.484375 11.0625 
Q 25.484375 6.203125 34.421875 6.203125 
Q 39.59375 6.203125 44.453125 7.46875 
Q 49.3125 8.734375 54.109375 11.28125 
L 54.109375 2.78125 
Q 49.265625 0.734375 44.1875 -0.34375 
Q 39.109375 -1.421875 33.890625 -1.421875 
Q 20.796875 -1.421875 13.15625 6.1875 
Q 5.515625 13.8125 5.515625 26.8125 
Q 5.515625 40.234375 12.765625 48.109375 
Q 20.015625 56 32.328125 56 
Q 43.359375 56 49.78125 48.890625 
Q 56.203125 41.796875 56.203125 29.59375 
z
M 47.21875 32.234375 
Q 47.125 39.59375 43.09375 43.984375 
Q 39.0625 48.390625 32.421875 48.390625 
Q 24.90625 48.390625 20.390625 44.140625 
Q 15.875 39.890625 15.1875 32.171875 
z
" id="DejaVuSans-65"/>
      <path id="DejaVuSans-20"/>
     </defs>
     <g transform="translate(-11.575 202.577219)rotate(-90)scale(0.1 -0.1)">
      <use xlink:href="#DejaVuSans-56"/>
      <use x="68.298828" xlink:href="#DejaVuSans-6f"/>
      <use x="129.480469" xlink:href="#DejaVuSans-6c"/>
      <use x="157.263672" xlink:href="#DejaVuSans-74"/>
      <use x="196.472656" xlink:href="#DejaVuSans-61"/>
      <use x="257.751953" xlink:href="#DejaVuSans-67"/>
      <use x="321.228516" xlink:href="#DejaVuSans-65"/>
      <use x="382.751953" xlink:href="#DejaVuSans-20"/>
      <use x="414.539062" xlink:href="#DejaVuSans-28"/>
      <use x="453.552734" xlink:href="#DejaVuSans-56"/>
      <use x="521.960938" xlink:href="#DejaVuSans-29"/>
     </g>
    </g>
    <g id="text_18">
     <!-- +1e−1 -->
     <defs>
      <path d="M 46 62.703125 
L 46 35.5 
L 73.1875 35.5 
L 73.1875 27.203125 
L 46 27.203125 
L 46 0 
L 37.796875 0 
L 37.796875 27.203125 
L 10.59375 27.203125 
L 10.59375 35.5 
L 37.796875 35.5 
L 37.796875 62.703125 
z
" id="DejaVuSans-2b"/>
     </defs>
     <g transform="translate(57.6 38.472)scale(0.1 -0.1)">
      <use xlink:href="#DejaVuSans-2b"/>
      <use x="83.789062" xlink:href="#DejaVuSans-31"/>
      <use x="147.412109" xlink:href="#DejaVuSans-65"/>
      <use x="208.935547" xlink:href="#DejaVuSans-2212"/>
      <use x="292.724609" xlink:href="#DejaVuSans-31"/>
     </g>
    </g>
   </g>
   <g id="line2d_16">
    <path clip-path="url(#p1d63b110e5)" d="M 73.832727 197.997851 
L 74.374709 205.219343 
L 74.917232 237.71606 
L 75.459756 122.172179 
L 76.001737 208.83009 
L 76.543719 165.501134 
L 77.085701 230.494567 
L 77.627682 201.608597 
L 78.170206 234.105313 
L 78.712187 226.883821 
L 79.254169 179.944119 
L 79.79615 194.387104 
L 80.338132 194.387104 
L 80.880113 234.105313 
L 81.422095 241.326806 
L 81.964077 194.387104 
L 82.506058 201.608597 
L 83.04804 234.105313 
L 83.590021 212.440836 
L 84.132003 183.554866 
L 84.673984 179.944119 
L 85.215966 205.219343 
L 85.757948 179.944119 
L 86.299929 190.776358 
L 86.841911 212.440836 
L 87.383892 201.608597 
L 87.925874 179.944119 
L 88.467855 187.165612 
L 89.009837 208.83009 
L 89.551818 179.944119 
L 90.0938 201.608597 
L 90.635782 147.447403 
L 91.177763 179.944119 
L 91.719745 129.393672 
L 92.261726 183.554866 
L 92.803708 129.393672 
L 93.345689 248.548299 
L 93.887671 187.165612 
L 94.429653 237.71606 
L 94.971634 172.722627 
L 95.513616 140.22591 
L 96.597579 187.165612 
L 97.13956 212.440836 
L 97.681542 197.997851 
L 98.223524 255.769791 
L 98.765505 234.105313 
L 99.307487 125.782925 
L 100.39145 140.22591 
L 100.933431 194.387104 
L 101.475413 187.165612 
L 102.017395 266.60203 
L 102.559376 161.890388 
L 103.101358 143.836657 
L 103.643339 107.729194 
L 104.185321 205.219343 
L 104.727302 100.507701 
L 105.269284 133.004418 
L 105.811265 194.387104 
L 106.353247 205.219343 
L 106.895229 190.776358 
L 107.43721 205.219343 
L 107.979192 183.554866 
L 108.521173 237.71606 
L 109.063155 161.890388 
L 109.605136 190.776358 
L 110.147118 197.997851 
L 110.6891 187.165612 
L 111.231081 172.722627 
L 111.773063 183.554866 
L 112.315044 187.165612 
L 112.857026 205.219343 
L 113.399007 161.890388 
L 113.940989 154.668896 
L 114.482971 176.333373 
L 115.024952 165.501134 
L 115.566934 208.83009 
L 116.108915 169.111881 
L 116.650897 169.111881 
L 117.192878 179.944119 
L 117.73486 125.782925 
L 118.276841 158.279642 
L 118.818823 93.286209 
L 119.360805 252.159045 
L 119.902786 208.83009 
L 120.444768 201.608597 
L 120.986749 169.111881 
L 121.528731 252.159045 
L 122.070712 129.393672 
L 122.612694 281.045015 
L 123.154676 194.387104 
L 123.696657 284.655761 
L 124.238639 143.836657 
L 124.78062 216.051582 
L 125.322602 172.722627 
L 125.864583 194.387104 
L 126.406565 208.83009 
L 126.948547 201.608597 
L 127.490528 179.944119 
L 128.03251 179.944119 
L 128.574491 201.608597 
L 129.116473 205.219343 
L 129.658454 205.219343 
L 130.200436 183.554866 
L 130.742417 190.776358 
L 131.284399 194.387104 
L 131.826381 179.944119 
L 132.368362 187.165612 
L 132.910344 205.219343 
L 133.452325 176.333373 
L 133.994307 205.219343 
L 134.536288 190.776358 
L 135.07827 179.944119 
L 135.620252 201.608597 
L 136.162233 197.997851 
L 136.704215 172.722627 
L 137.246196 183.554866 
L 137.788178 176.333373 
L 138.330159 179.944119 
L 138.872141 172.722627 
L 139.414123 176.333373 
L 139.956104 172.722627 
L 140.498086 201.608597 
L 141.040067 201.608597 
L 141.582049 190.776358 
L 142.12403 187.165612 
L 142.666012 129.393672 
L 143.207993 226.883821 
L 143.749975 223.273075 
L 144.291957 201.608597 
L 144.833938 205.219343 
L 145.37592 219.662328 
L 145.917901 252.159045 
L 146.459883 179.944119 
L 147.001864 172.722627 
L 147.543846 169.111881 
L 148.085828 187.165612 
L 148.627809 190.776358 
L 149.169791 201.608597 
L 149.711772 234.105313 
L 150.253754 111.33994 
L 150.795735 133.004418 
L 151.337717 226.883821 
L 152.42168 165.501134 
L 152.963662 169.111881 
L 153.505643 201.608597 
L 154.047625 169.111881 
L 154.589606 190.776358 
L 155.131588 169.111881 
L 155.673569 165.501134 
L 156.215551 237.71606 
L 156.757533 125.782925 
L 157.299514 187.165612 
L 157.841496 154.668896 
L 158.383477 158.279642 
L 158.925459 190.776358 
L 159.46744 212.440836 
L 160.009422 169.111881 
L 160.551404 147.447403 
L 161.093385 241.326806 
L 161.635367 129.393672 
L 162.177348 190.776358 
L 162.71933 179.944119 
L 163.261311 143.836657 
L 163.803293 197.997851 
L 164.345275 237.71606 
L 164.887256 187.165612 
L 165.429238 190.776358 
L 165.971219 133.004418 
L 166.513201 262.991284 
L 167.055182 161.890388 
L 167.597164 147.447403 
L 168.139145 201.608597 
L 168.681127 176.333373 
L 169.223109 201.608597 
L 169.76509 169.111881 
L 170.307072 270.212776 
L 170.849053 176.333373 
L 171.391035 187.165612 
L 171.933016 219.662328 
L 172.474998 190.776358 
L 173.01698 252.159045 
L 173.558961 205.219343 
L 174.100943 172.722627 
L 174.642924 190.776358 
L 175.184906 172.722627 
L 175.726887 179.944119 
L 176.268869 205.219343 
L 176.810851 197.997851 
L 177.894814 190.776358 
L 178.436795 205.219343 
L 178.978777 190.776358 
L 179.520758 187.165612 
L 180.06274 208.83009 
L 180.604722 194.387104 
L 181.146703 183.554866 
L 181.688685 183.554866 
L 182.230666 187.165612 
L 182.772648 114.950687 
L 183.314629 147.447403 
L 184.398592 197.997851 
L 184.940574 165.501134 
L 185.482556 194.387104 
L 186.024537 201.608597 
L 186.566519 179.944119 
L 187.1085 176.333373 
L 187.650482 179.944119 
L 188.192463 165.501134 
L 188.734445 161.890388 
L 189.276427 179.944119 
L 189.818408 172.722627 
L 190.36039 183.554866 
L 190.902371 161.890388 
L 191.444895 179.944119 
L 191.986876 169.111881 
L 192.5294 169.111881 
L 193.071923 183.554866 
L 193.613905 179.944119 
L 194.155887 179.944119 
L 194.697868 197.997851 
L 195.23985 179.944119 
L 195.781831 176.333373 
L 196.323813 176.333373 
L 196.865794 179.944119 
L 197.407776 176.333373 
L 197.949758 208.83009 
L 198.491739 197.997851 
L 199.033721 176.333373 
L 199.575702 187.165612 
L 200.117684 194.387104 
L 200.659665 219.662328 
L 201.201647 197.997851 
L 202.28561 212.440836 
L 202.827592 187.165612 
L 203.370115 190.776358 
L 204.454078 190.776358 
L 204.99606 169.111881 
L 206.080023 212.440836 
L 206.622005 205.219343 
L 207.163986 205.219343 
L 207.705968 197.997851 
L 208.247949 208.83009 
L 208.789931 194.387104 
L 209.331912 208.83009 
L 209.873894 172.722627 
L 210.415876 205.219343 
L 210.957857 208.83009 
L 211.499839 205.219343 
L 212.04182 183.554866 
L 212.583802 201.608597 
L 213.125783 194.387104 
L 214.209746 165.501134 
L 214.751728 201.608597 
L 215.29371 183.554866 
L 215.835691 212.440836 
L 216.377673 212.440836 
L 216.919654 179.944119 
L 217.461636 179.944119 
L 218.003617 176.333373 
L 218.545599 190.776358 
L 219.087581 194.387104 
L 219.629562 165.501134 
L 220.171544 179.944119 
L 221.255507 158.279642 
L 221.797488 187.165612 
L 222.33947 201.608597 
L 222.881452 208.83009 
L 223.423433 212.440836 
L 223.965415 219.662328 
L 224.507396 223.273075 
L 225.591359 158.279642 
L 226.133341 176.333373 
L 226.675322 183.554866 
L 227.217304 197.997851 
L 227.759286 172.722627 
L 228.301267 208.83009 
L 228.843249 187.165612 
L 229.38523 255.769791 
L 229.927212 230.494567 
L 230.469193 197.997851 
L 231.011175 223.273075 
L 231.553157 169.111881 
L 232.095138 248.548299 
L 232.63712 244.937552 
L 233.179101 262.991284 
L 233.721083 201.608597 
L 234.263064 205.219343 
L 234.805046 201.608597 
L 235.347028 248.548299 
L 235.889009 143.836657 
L 236.430991 183.554866 
L 236.972972 190.776358 
L 237.514954 183.554866 
L 238.598917 241.326806 
L 239.140898 259.380537 
L 240.766843 133.004418 
L 241.308825 136.615164 
L 241.850806 169.111881 
L 242.392788 208.83009 
L 242.934769 183.554866 
L 243.476751 190.776358 
L 244.018733 216.051582 
L 244.560714 194.387104 
L 245.102696 201.608597 
L 245.644677 197.997851 
L 246.186659 197.997851 
L 246.72864 223.273075 
L 247.270622 216.051582 
L 247.812604 230.494567 
L 248.354585 190.776358 
L 248.896567 226.883821 
L 249.438548 183.554866 
L 249.98053 241.326806 
L 250.522511 230.494567 
L 251.064493 197.997851 
L 251.606474 252.159045 
L 252.148456 133.004418 
L 253.232419 226.883821 
L 253.774401 140.22591 
L 254.316382 201.608597 
L 254.858364 158.279642 
L 255.400345 169.111881 
L 255.942327 183.554866 
L 256.484309 179.944119 
L 257.02629 169.111881 
L 257.568272 187.165612 
L 258.110253 179.944119 
L 258.652235 197.997851 
L 259.194216 169.111881 
L 259.736198 176.333373 
L 260.27818 179.944119 
L 261.362143 172.722627 
L 261.904124 183.554866 
L 262.446106 183.554866 
L 262.988087 201.608597 
L 263.530069 147.447403 
L 264.07205 205.219343 
L 264.614032 96.896955 
L 265.156014 107.729194 
L 265.697995 219.662328 
L 266.239977 284.655761 
L 267.32394 172.722627 
L 267.865921 125.782925 
L 268.407903 201.608597 
L 268.949885 114.950687 
L 269.491866 154.668896 
L 270.033848 169.111881 
L 270.575829 226.883821 
L 271.117811 107.729194 
L 271.659792 169.111881 
L 272.201774 201.608597 
L 272.743756 154.668896 
L 273.285737 230.494567 
L 273.827719 140.22591 
L 274.3697 179.944119 
L 274.911682 100.507701 
L 275.995645 216.051582 
L 276.537627 226.883821 
L 277.079608 176.333373 
L 277.62159 176.333373 
L 278.163571 151.058149 
L 278.705553 201.608597 
L 279.247534 172.722627 
L 279.789516 201.608597 
L 280.331497 147.447403 
L 280.873479 262.991284 
L 281.415461 248.548299 
L 281.957442 223.273075 
L 282.499424 86.064716 
L 283.041405 234.105313 
L 283.583387 190.776358 
L 284.125368 158.279642 
L 284.66735 197.997851 
L 285.209332 151.058149 
L 285.751313 147.447403 
L 286.293295 154.668896 
L 286.835276 183.554866 
L 287.377258 169.111881 
L 288.461221 241.326806 
L 289.003203 154.668896 
L 289.545184 295.488 
L 290.087166 248.548299 
L 290.629147 172.722627 
L 291.171129 158.279642 
L 291.71311 136.615164 
L 292.255092 244.937552 
L 292.797073 230.494567 
L 293.339055 208.83009 
L 293.881037 194.387104 
L 294.423018 107.729194 
L 294.965 230.494567 
L 295.506981 172.722627 
L 296.048963 172.722627 
L 296.590944 165.501134 
L 297.132926 147.447403 
L 297.674908 147.447403 
L 298.758871 190.776358 
L 299.300852 223.273075 
L 299.842834 208.83009 
L 300.384815 176.333373 
L 300.926797 183.554866 
L 301.468779 183.554866 
L 302.01076 216.051582 
L 302.552742 169.111881 
L 303.094723 197.997851 
L 303.636705 208.83009 
L 304.178686 122.172179 
L 304.720668 136.615164 
L 305.262649 133.004418 
L 306.346613 230.494567 
L 306.888594 140.22591 
L 307.430576 172.722627 
L 307.972557 262.991284 
L 308.514539 118.561433 
L 309.05652 201.608597 
L 309.598502 190.776358 
L 310.140484 216.051582 
L 310.682465 197.997851 
L 311.224447 154.668896 
L 311.766428 226.883821 
L 312.30841 154.668896 
L 312.850391 194.387104 
L 313.392373 201.608597 
L 313.934355 216.051582 
L 314.476336 219.662328 
L 315.018318 197.997851 
L 315.560299 201.608597 
L 316.102281 219.662328 
L 316.644262 212.440836 
L 317.186244 208.83009 
L 317.728225 197.997851 
L 318.270207 201.608597 
L 318.812189 122.172179 
L 319.35417 208.83009 
L 319.896152 100.507701 
L 320.438133 234.105313 
L 320.980115 205.219343 
L 321.522096 187.165612 
L 322.064078 176.333373 
L 322.60606 241.326806 
L 323.148041 241.326806 
L 323.690023 273.823522 
L 324.232004 255.769791 
L 324.773986 197.997851 
L 325.315967 237.71606 
L 325.857949 125.782925 
L 326.399931 136.615164 
L 326.941912 151.058149 
L 328.025875 205.219343 
L 328.567857 129.393672 
L 329.109838 169.111881 
L 329.65182 161.890388 
L 330.193801 187.165612 
L 330.735783 165.501134 
L 331.277765 176.333373 
L 331.819746 179.944119 
L 332.361728 237.71606 
L 332.903709 165.501134 
L 333.987672 172.722627 
L 334.529654 197.997851 
L 335.071636 208.83009 
L 335.613617 237.71606 
L 336.155599 161.890388 
L 336.69758 284.655761 
L 337.239562 201.608597 
L 337.781543 172.722627 
L 338.323525 187.165612 
L 338.865507 165.501134 
L 339.407488 136.615164 
L 339.94947 201.608597 
L 340.491451 205.219343 
L 341.033433 190.776358 
L 341.575414 201.608597 
L 342.117396 176.333373 
L 342.659377 172.722627 
L 343.201359 133.004418 
L 343.743341 176.333373 
L 344.285322 205.219343 
L 344.827304 183.554866 
L 345.369285 205.219343 
L 345.911267 169.111881 
L 346.453248 154.668896 
L 346.99523 187.165612 
L 347.537212 143.836657 
L 348.079193 194.387104 
L 348.621175 118.561433 
L 349.163156 241.326806 
L 349.705138 165.501134 
L 350.247119 151.058149 
L 351.331083 197.997851 
L 351.873064 107.729194 
L 352.415046 53.568 
L 352.957027 237.71606 
L 353.499009 244.937552 
L 354.04099 133.004418 
L 354.582972 223.273075 
L 355.124954 133.004418 
L 355.666935 161.890388 
L 356.208917 197.997851 
L 356.750898 273.823522 
L 357.29288 165.501134 
L 357.834861 255.769791 
L 358.376843 219.662328 
L 358.918824 111.33994 
L 360.002788 252.159045 
L 360.544769 216.051582 
L 361.086751 147.447403 
L 361.628732 201.608597 
L 362.170714 165.501134 
L 362.712695 151.058149 
L 363.254677 179.944119 
L 363.796659 197.997851 
L 364.33864 169.111881 
L 365.422603 183.554866 
L 365.964585 176.333373 
L 366.506566 197.997851 
L 367.048548 158.279642 
L 367.59053 212.440836 
L 368.132511 179.944119 
L 368.674493 194.387104 
L 369.216474 68.010985 
L 369.758456 187.165612 
L 370.300437 118.561433 
L 370.842419 197.997851 
L 371.3844 179.944119 
L 371.926382 133.004418 
L 372.468364 212.440836 
L 373.010345 205.219343 
L 373.552327 226.883821 
L 374.094308 183.554866 
L 374.63629 179.944119 
L 375.178271 212.440836 
L 375.720253 165.501134 
L 376.262235 172.722627 
L 376.804216 197.997851 
L 377.346198 201.608597 
L 377.888179 169.111881 
L 378.430161 143.836657 
L 378.972142 201.608597 
L 379.514124 154.668896 
L 380.056106 212.440836 
L 380.598629 140.22591 
L 381.141153 259.380537 
L 381.683134 176.333373 
L 382.225658 147.447403 
L 382.767639 165.501134 
L 383.309621 201.608597 
L 383.851603 158.279642 
L 384.393584 194.387104 
L 384.936108 197.997851 
L 386.020071 165.501134 
L 386.562052 165.501134 
L 387.104034 226.883821 
L 387.646015 216.051582 
L 388.187997 197.997851 
L 388.729979 248.548299 
L 389.27196 259.380537 
L 389.813942 111.33994 
L 390.355923 151.058149 
L 390.898447 176.333373 
L 391.44097 187.165612 
L 391.983494 179.944119 
L 392.525476 190.776358 
L 393.067457 136.615164 
L 393.609439 165.501134 
L 394.15142 201.608597 
L 394.693402 165.501134 
L 395.235383 197.997851 
L 395.777365 277.434269 
L 396.319346 161.890388 
L 396.861328 71.621731 
L 397.40331 226.883821 
L 397.945291 234.105313 
L 398.487273 172.722627 
L 398.487273 172.722627 
" style="fill:none;stroke:#1f77b4;stroke-linecap:square;stroke-width:1.5;"/>
   </g>
   <g id="patch_3">
    <path d="M 57.6 307.584 
L 57.6 41.472 
" style="fill:none;stroke:#000000;stroke-linecap:square;stroke-linejoin:miter;stroke-width:0.8;"/>
   </g>
   <g id="patch_4">
    <path d="M 414.72 307.584 
L 414.72 41.472 
" style="fill:none;stroke:#000000;stroke-linecap:square;stroke-linejoin:miter;stroke-width:0.8;"/>
   </g>
   <g id="patch_5">
    <path d="M 57.6 307.584 
L 414.72 307.584 
" style="fill:none;stroke:#000000;stroke-linecap:square;stroke-linejoin:miter;stroke-width:0.8;"/>
   </g>
   <g id="patch_6">
    <path d="M 57.6 41.472 
L 414.72 41.472 
" style="fill:none;stroke:#000000;stroke-linecap:square;stroke-linejoin:miter;stroke-width:0.8;"/>
   </g>
   <g id="text_19">
    <!-- Voltage measured with source voltage 100.0 mV -->
    <defs>
     <path d="M 52 44.1875 
Q 55.375 50.25 60.0625 53.125 
Q 64.75 56 71.09375 56 
Q 79.640625 56 84.28125 50.015625 
Q 88.921875 44.046875 88.921875 33.015625 
L 88.921875 0 
L 79.890625 0 
L 79.890625 32.71875 
Q 79.890625 40.578125 77.09375 44.375 
Q 74.3125 48.1875 68.609375 48.1875 
Q 61.625 48.1875 57.5625 43.546875 
Q 53.515625 38.921875 53.515625 30.90625 
L 53.515625 0 
L 44.484375 0 
L 44.484375 32.71875 
Q 44.484375 40.625 41.703125 44.40625 
Q 38.921875 48.1875 33.109375 48.1875 
Q 26.21875 48.1875 22.15625 43.53125 
Q 18.109375 38.875 18.109375 30.90625 
L 18.109375 0 
L 9.078125 0 
L 9.078125 54.6875 
L 18.109375 54.6875 
L 18.109375 46.1875 
Q 21.1875 51.21875 25.484375 53.609375 
Q 29.78125 56 35.6875 56 
Q 41.65625 56 45.828125 52.96875 
Q 50 49.953125 52 44.1875 
z
" id="DejaVuSans-6d"/>
     <path d="M 8.5 21.578125 
L 8.5 54.6875 
L 17.484375 54.6875 
L 17.484375 21.921875 
Q 17.484375 14.15625 20.5 10.265625 
Q 23.53125 6.390625 29.59375 6.390625 
Q 36.859375 6.390625 41.078125 11.03125 
Q 45.3125 15.671875 45.3125 23.6875 
L 45.3125 54.6875 
L 54.296875 54.6875 
L 54.296875 0 
L 45.3125 0 
L 45.3125 8.40625 
Q 42.046875 3.421875 37.71875 1 
Q 33.40625 -1.421875 27.6875 -1.421875 
Q 18.265625 -1.421875 13.375 4.4375 
Q 8.5 10.296875 8.5 21.578125 
z
M 31.109375 56 
z
" id="DejaVuSans-75"/>
     <path d="M 41.109375 46.296875 
Q 39.59375 47.171875 37.8125 47.578125 
Q 36.03125 48 33.890625 48 
Q 26.265625 48 22.1875 43.046875 
Q 18.109375 38.09375 18.109375 28.8125 
L 18.109375 0 
L 9.078125 0 
L 9.078125 54.6875 
L 18.109375 54.6875 
L 18.109375 46.1875 
Q 20.953125 51.171875 25.484375 53.578125 
Q 30.03125 56 36.53125 56 
Q 37.453125 56 38.578125 55.875 
Q 39.703125 55.765625 41.0625 55.515625 
z
" id="DejaVuSans-72"/>
     <path d="M 45.40625 46.390625 
L 45.40625 75.984375 
L 54.390625 75.984375 
L 54.390625 0 
L 45.40625 0 
L 45.40625 8.203125 
Q 42.578125 3.328125 38.25 0.953125 
Q 33.9375 -1.421875 27.875 -1.421875 
Q 17.96875 -1.421875 11.734375 6.484375 
Q 5.515625 14.40625 5.515625 27.296875 
Q 5.515625 40.1875 11.734375 48.09375 
Q 17.96875 56 27.875 56 
Q 33.9375 56 38.25 53.625 
Q 42.578125 51.265625 45.40625 46.390625 
z
M 14.796875 27.296875 
Q 14.796875 17.390625 18.875 11.75 
Q 22.953125 6.109375 30.078125 6.109375 
Q 37.203125 6.109375 41.296875 11.75 
Q 45.40625 17.390625 45.40625 27.296875 
Q 45.40625 37.203125 41.296875 42.84375 
Q 37.203125 48.484375 30.078125 48.484375 
Q 22.953125 48.484375 18.875 42.84375 
Q 14.796875 37.203125 14.796875 27.296875 
z
" id="DejaVuSans-64"/>
     <path d="M 4.203125 54.6875 
L 13.1875 54.6875 
L 24.421875 12.015625 
L 35.59375 54.6875 
L 46.1875 54.6875 
L 57.421875 12.015625 
L 68.609375 54.6875 
L 77.59375 54.6875 
L 63.28125 0 
L 52.6875 0 
L 40.921875 44.828125 
L 29.109375 0 
L 18.5 0 
z
" id="DejaVuSans-77"/>
     <path d="M 9.421875 54.6875 
L 18.40625 54.6875 
L 18.40625 0 
L 9.421875 0 
z
M 9.421875 75.984375 
L 18.40625 75.984375 
L 18.40625 64.59375 
L 9.421875 64.59375 
z
" id="DejaVuSans-69"/>
     <path d="M 54.890625 33.015625 
L 54.890625 0 
L 45.90625 0 
L 45.90625 32.71875 
Q 45.90625 40.484375 42.875 44.328125 
Q 39.84375 48.1875 33.796875 48.1875 
Q 26.515625 48.1875 22.3125 43.546875 
Q 18.109375 38.921875 18.109375 30.90625 
L 18.109375 0 
L 9.078125 0 
L 9.078125 75.984375 
L 18.109375 75.984375 
L 18.109375 46.1875 
Q 21.34375 51.125 25.703125 53.5625 
Q 30.078125 56 35.796875 56 
Q 45.21875 56 50.046875 50.171875 
Q 54.890625 44.34375 54.890625 33.015625 
z
" id="DejaVuSans-68"/>
     <path d="M 48.78125 52.59375 
L 48.78125 44.1875 
Q 44.96875 46.296875 41.140625 47.34375 
Q 37.3125 48.390625 33.40625 48.390625 
Q 24.65625 48.390625 19.8125 42.84375 
Q 14.984375 37.3125 14.984375 27.296875 
Q 14.984375 17.28125 19.8125 11.734375 
Q 24.65625 6.203125 33.40625 6.203125 
Q 37.3125 6.203125 41.140625 7.25 
Q 44.96875 8.296875 48.78125 10.40625 
L 48.78125 2.09375 
Q 45.015625 0.34375 40.984375 -0.53125 
Q 36.96875 -1.421875 32.421875 -1.421875 
Q 20.0625 -1.421875 12.78125 6.34375 
Q 5.515625 14.109375 5.515625 27.296875 
Q 5.515625 40.671875 12.859375 48.328125 
Q 20.21875 56 33.015625 56 
Q 37.15625 56 41.109375 55.140625 
Q 45.0625 54.296875 48.78125 52.59375 
z
" id="DejaVuSans-63"/>
     <path d="M 2.984375 54.6875 
L 12.5 54.6875 
L 29.59375 8.796875 
L 46.6875 54.6875 
L 56.203125 54.6875 
L 35.6875 0 
L 23.484375 0 
z
" id="DejaVuSans-76"/>
    </defs>
    <g transform="translate(89.3175 35.472)scale(0.12 -0.12)">
     <use xlink:href="#DejaVuSans-56"/>
     <use x="68.298828" xlink:href="#DejaVuSans-6f"/>
     <use x="129.480469" xlink:href="#DejaVuSans-6c"/>
     <use x="157.263672" xlink:href="#DejaVuSans-74"/>
     <use x="196.472656" xlink:href="#DejaVuSans-61"/>
     <use x="257.751953" xlink:href="#DejaVuSans-67"/>
     <use x="321.228516" xlink:href="#DejaVuSans-65"/>
     <use x="382.751953" xlink:href="#DejaVuSans-20"/>
     <use x="414.539062" xlink:href="#DejaVuSans-6d"/>
     <use x="511.951172" xlink:href="#DejaVuSans-65"/>
     <use x="573.474609" xlink:href="#DejaVuSans-61"/>
     <use x="634.753906" xlink:href="#DejaVuSans-73"/>
     <use x="686.853516" xlink:href="#DejaVuSans-75"/>
     <use x="750.232422" xlink:href="#DejaVuSans-72"/>
     <use x="791.314453" xlink:href="#DejaVuSans-65"/>
     <use x="852.837891" xlink:href="#DejaVuSans-64"/>
     <use x="916.314453" xlink:href="#DejaVuSans-20"/>
     <use x="948.101562" xlink:href="#DejaVuSans-77"/>
     <use x="1029.888672" xlink:href="#DejaVuSans-69"/>
     <use x="1057.671875" xlink:href="#DejaVuSans-74"/>
     <use x="1096.880859" xlink:href="#DejaVuSans-68"/>
     <use x="1160.259766" xlink:href="#DejaVuSans-20"/>
     <use x="1192.046875" xlink:href="#DejaVuSans-73"/>
     <use x="1244.146484" xlink:href="#DejaVuSans-6f"/>
     <use x="1305.328125" xlink:href="#DejaVuSans-75"/>
     <use x="1368.707031" xlink:href="#DejaVuSans-72"/>
     <use x="1409.789062" xlink:href="#DejaVuSans-63"/>
     <use x="1464.769531" xlink:href="#DejaVuSans-65"/>
     <use x="1526.292969" xlink:href="#DejaVuSans-20"/>
     <use x="1558.080078" xlink:href="#DejaVuSans-76"/>
     <use x="1617.259766" xlink:href="#DejaVuSans-6f"/>
     <use x="1678.441406" xlink:href="#DejaVuSans-6c"/>
     <use x="1706.224609" xlink:href="#DejaVuSans-74"/>
     <use x="1745.433594" xlink:href="#DejaVuSans-61"/>
     <use x="1806.712891" xlink:href="#DejaVuSans-67"/>
     <use x="1870.189453" xlink:href="#DejaVuSans-65"/>
     <use x="1931.712891" xlink:href="#DejaVuSans-20"/>
     <use x="1963.5" xlink:href="#DejaVuSans-31"/>
     <use x="2027.123047" xlink:href="#DejaVuSans-30"/>
     <use x="2090.746094" xlink:href="#DejaVuSans-30"/>
     <use x="2154.369141" xlink:href="#DejaVuSans-2e"/>
     <use x="2186.15625" xlink:href="#DejaVuSans-30"/>
     <use x="2249.779297" xlink:href="#DejaVuSans-20"/>
     <use x="2281.566406" xlink:href="#DejaVuSans-6d"/>
     <use x="2378.978516" xlink:href="#DejaVuSans-56"/>
    </g>
   </g>
  </g>
 </g>
 <defs>
  <clipPath id="p1d63b110e5">
   <rect height="266.112" width="357.12" x="57.6" y="41.472"/>
  </clipPath>
 </defs>
</svg>
