<?xml version="1.0" encoding="utf-8" standalone="no"?>
<!DOCTYPE svg PUBLIC "-//W3C//DTD SVG 1.1//EN"
  "http://www.w3.org/Graphics/SVG/1.1/DTD/svg11.dtd">
<!-- Created with matplotlib (http://matplotlib.org/) -->
<svg height="345pt" version="1.1" viewBox="0 0 460 345" width="460pt" xmlns="http://www.w3.org/2000/svg" xmlns:xlink="http://www.w3.org/1999/xlink">
 <defs>
  <style type="text/css">
*{stroke-linecap:butt;stroke-linejoin:round;}
  </style>
 </defs>
 <g id="figure_1">
  <g id="patch_1">
   <path d="M 0 345.6 
L 460.8 345.6 
L 460.8 0 
L 0 0 
z
" style="fill:#ffffff;"/>
  </g>
  <g id="axes_1">
   <g id="patch_2">
    <path d="M 57.6 307.584 
L 414.72 307.584 
L 414.72 41.472 
L 57.6 41.472 
z
" style="fill:#ffffff;"/>
   </g>
   <g id="matplotlib.axis_1">
    <g id="xtick_1">
     <g id="line2d_1">
      <defs>
       <path d="M 0 0 
L 0 3.5 
" id="mbaf2e330a5" style="stroke:#000000;stroke-width:0.8;"/>
      </defs>
      <g>
       <use style="stroke:#000000;stroke-width:0.8;" x="73.289838" xlink:href="#mbaf2e330a5" y="307.584"/>
      </g>
     </g>
     <g id="text_1">
      <!-- 0 -->
      <defs>
       <path d="M 31.78125 66.40625 
Q 24.171875 66.40625 20.328125 58.90625 
Q 16.5 51.421875 16.5 36.375 
Q 16.5 21.390625 20.328125 13.890625 
Q 24.171875 6.390625 31.78125 6.390625 
Q 39.453125 6.390625 43.28125 13.890625 
Q 47.125 21.390625 47.125 36.375 
Q 47.125 51.421875 43.28125 58.90625 
Q 39.453125 66.40625 31.78125 66.40625 
z
M 31.78125 74.21875 
Q 44.046875 74.21875 50.515625 64.515625 
Q 56.984375 54.828125 56.984375 36.375 
Q 56.984375 17.96875 50.515625 8.265625 
Q 44.046875 -1.421875 31.78125 -1.421875 
Q 19.53125 -1.421875 13.0625 8.265625 
Q 6.59375 17.96875 6.59375 36.375 
Q 6.59375 54.828125 13.0625 64.515625 
Q 19.53125 74.21875 31.78125 74.21875 
z
" id="DejaVuSans-30"/>
      </defs>
      <g transform="translate(70.108588 322.182437)scale(0.1 -0.1)">
       <use xlink:href="#DejaVuSans-30"/>
      </g>
     </g>
    </g>
    <g id="xtick_2">
     <g id="line2d_2">
      <g>
       <use style="stroke:#000000;stroke-width:0.8;" x="127.578806" xlink:href="#mbaf2e330a5" y="307.584"/>
      </g>
     </g>
     <g id="text_2">
      <!-- 100 -->
      <defs>
       <path d="M 12.40625 8.296875 
L 28.515625 8.296875 
L 28.515625 63.921875 
L 10.984375 60.40625 
L 10.984375 69.390625 
L 28.421875 72.90625 
L 38.28125 72.90625 
L 38.28125 8.296875 
L 54.390625 8.296875 
L 54.390625 0 
L 12.40625 0 
z
" id="DejaVuSans-31"/>
      </defs>
      <g transform="translate(118.035056 322.182437)scale(0.1 -0.1)">
       <use xlink:href="#DejaVuSans-31"/>
       <use x="63.623047" xlink:href="#DejaVuSans-30"/>
       <use x="127.246094" xlink:href="#DejaVuSans-30"/>
      </g>
     </g>
    </g>
    <g id="xtick_3">
     <g id="line2d_3">
      <g>
       <use style="stroke:#000000;stroke-width:0.8;" x="181.867774" xlink:href="#mbaf2e330a5" y="307.584"/>
      </g>
     </g>
     <g id="text_3">
      <!-- 200 -->
      <defs>
       <path d="M 19.1875 8.296875 
L 53.609375 8.296875 
L 53.609375 0 
L 7.328125 0 
L 7.328125 8.296875 
Q 12.9375 14.109375 22.625 23.890625 
Q 32.328125 33.6875 34.8125 36.53125 
Q 39.546875 41.84375 41.421875 45.53125 
Q 43.3125 49.21875 43.3125 52.78125 
Q 43.3125 58.59375 39.234375 62.25 
Q 35.15625 65.921875 28.609375 65.921875 
Q 23.96875 65.921875 18.8125 64.3125 
Q 13.671875 62.703125 7.8125 59.421875 
L 7.8125 69.390625 
Q 13.765625 71.78125 18.9375 73 
Q 24.125 74.21875 28.421875 74.21875 
Q 39.75 74.21875 46.484375 68.546875 
Q 53.21875 62.890625 53.21875 53.421875 
Q 53.21875 48.921875 51.53125 44.890625 
Q 49.859375 40.875 45.40625 35.40625 
Q 44.1875 33.984375 37.640625 27.21875 
Q 31.109375 20.453125 19.1875 8.296875 
z
" id="DejaVuSans-32"/>
      </defs>
      <g transform="translate(172.324024 322.182437)scale(0.1 -0.1)">
       <use xlink:href="#DejaVuSans-32"/>
       <use x="63.623047" xlink:href="#DejaVuSans-30"/>
       <use x="127.246094" xlink:href="#DejaVuSans-30"/>
      </g>
     </g>
    </g>
    <g id="xtick_4">
     <g id="line2d_4">
      <g>
       <use style="stroke:#000000;stroke-width:0.8;" x="236.156743" xlink:href="#mbaf2e330a5" y="307.584"/>
      </g>
     </g>
     <g id="text_4">
      <!-- 300 -->
      <defs>
       <path d="M 40.578125 39.3125 
Q 47.65625 37.796875 51.625 33 
Q 55.609375 28.21875 55.609375 21.1875 
Q 55.609375 10.40625 48.1875 4.484375 
Q 40.765625 -1.421875 27.09375 -1.421875 
Q 22.515625 -1.421875 17.65625 -0.515625 
Q 12.796875 0.390625 7.625 2.203125 
L 7.625 11.71875 
Q 11.71875 9.328125 16.59375 8.109375 
Q 21.484375 6.890625 26.8125 6.890625 
Q 36.078125 6.890625 40.9375 10.546875 
Q 45.796875 14.203125 45.796875 21.1875 
Q 45.796875 27.640625 41.28125 31.265625 
Q 36.765625 34.90625 28.71875 34.90625 
L 20.21875 34.90625 
L 20.21875 43.015625 
L 29.109375 43.015625 
Q 36.375 43.015625 40.234375 45.921875 
Q 44.09375 48.828125 44.09375 54.296875 
Q 44.09375 59.90625 40.109375 62.90625 
Q 36.140625 65.921875 28.71875 65.921875 
Q 24.65625 65.921875 20.015625 65.03125 
Q 15.375 64.15625 9.8125 62.3125 
L 9.8125 71.09375 
Q 15.4375 72.65625 20.34375 73.4375 
Q 25.25 74.21875 29.59375 74.21875 
Q 40.828125 74.21875 47.359375 69.109375 
Q 53.90625 64.015625 53.90625 55.328125 
Q 53.90625 49.265625 50.4375 45.09375 
Q 46.96875 40.921875 40.578125 39.3125 
z
" id="DejaVuSans-33"/>
      </defs>
      <g transform="translate(226.612993 322.182437)scale(0.1 -0.1)">
       <use xlink:href="#DejaVuSans-33"/>
       <use x="63.623047" xlink:href="#DejaVuSans-30"/>
       <use x="127.246094" xlink:href="#DejaVuSans-30"/>
      </g>
     </g>
    </g>
    <g id="xtick_5">
     <g id="line2d_5">
      <g>
       <use style="stroke:#000000;stroke-width:0.8;" x="290.445711" xlink:href="#mbaf2e330a5" y="307.584"/>
      </g>
     </g>
     <g id="text_5">
      <!-- 400 -->
      <defs>
       <path d="M 37.796875 64.3125 
L 12.890625 25.390625 
L 37.796875 25.390625 
z
M 35.203125 72.90625 
L 47.609375 72.90625 
L 47.609375 25.390625 
L 58.015625 25.390625 
L 58.015625 17.1875 
L 47.609375 17.1875 
L 47.609375 0 
L 37.796875 0 
L 37.796875 17.1875 
L 4.890625 17.1875 
L 4.890625 26.703125 
z
" id="DejaVuSans-34"/>
      </defs>
      <g transform="translate(280.901961 322.182437)scale(0.1 -0.1)">
       <use xlink:href="#DejaVuSans-34"/>
       <use x="63.623047" xlink:href="#DejaVuSans-30"/>
       <use x="127.246094" xlink:href="#DejaVuSans-30"/>
      </g>
     </g>
    </g>
    <g id="xtick_6">
     <g id="line2d_6">
      <g>
       <use style="stroke:#000000;stroke-width:0.8;" x="344.734679" xlink:href="#mbaf2e330a5" y="307.584"/>
      </g>
     </g>
     <g id="text_6">
      <!-- 500 -->
      <defs>
       <path d="M 10.796875 72.90625 
L 49.515625 72.90625 
L 49.515625 64.59375 
L 19.828125 64.59375 
L 19.828125 46.734375 
Q 21.96875 47.46875 24.109375 47.828125 
Q 26.265625 48.1875 28.421875 48.1875 
Q 40.625 48.1875 47.75 41.5 
Q 54.890625 34.8125 54.890625 23.390625 
Q 54.890625 11.625 47.5625 5.09375 
Q 40.234375 -1.421875 26.90625 -1.421875 
Q 22.3125 -1.421875 17.546875 -0.640625 
Q 12.796875 0.140625 7.71875 1.703125 
L 7.71875 11.625 
Q 12.109375 9.234375 16.796875 8.0625 
Q 21.484375 6.890625 26.703125 6.890625 
Q 35.15625 6.890625 40.078125 11.328125 
Q 45.015625 15.765625 45.015625 23.390625 
Q 45.015625 31 40.078125 35.4375 
Q 35.15625 39.890625 26.703125 39.890625 
Q 22.75 39.890625 18.8125 39.015625 
Q 14.890625 38.140625 10.796875 36.28125 
z
" id="DejaVuSans-35"/>
      </defs>
      <g transform="translate(335.190929 322.182437)scale(0.1 -0.1)">
       <use xlink:href="#DejaVuSans-35"/>
       <use x="63.623047" xlink:href="#DejaVuSans-30"/>
       <use x="127.246094" xlink:href="#DejaVuSans-30"/>
      </g>
     </g>
    </g>
    <g id="xtick_7">
     <g id="line2d_7">
      <g>
       <use style="stroke:#000000;stroke-width:0.8;" x="399.023648" xlink:href="#mbaf2e330a5" y="307.584"/>
      </g>
     </g>
     <g id="text_7">
      <!-- 600 -->
      <defs>
       <path d="M 33.015625 40.375 
Q 26.375 40.375 22.484375 35.828125 
Q 18.609375 31.296875 18.609375 23.390625 
Q 18.609375 15.53125 22.484375 10.953125 
Q 26.375 6.390625 33.015625 6.390625 
Q 39.65625 6.390625 43.53125 10.953125 
Q 47.40625 15.53125 47.40625 23.390625 
Q 47.40625 31.296875 43.53125 35.828125 
Q 39.65625 40.375 33.015625 40.375 
z
M 52.59375 71.296875 
L 52.59375 62.3125 
Q 48.875 64.0625 45.09375 64.984375 
Q 41.3125 65.921875 37.59375 65.921875 
Q 27.828125 65.921875 22.671875 59.328125 
Q 17.53125 52.734375 16.796875 39.40625 
Q 19.671875 43.65625 24.015625 45.921875 
Q 28.375 48.1875 33.59375 48.1875 
Q 44.578125 48.1875 50.953125 41.515625 
Q 57.328125 34.859375 57.328125 23.390625 
Q 57.328125 12.15625 50.6875 5.359375 
Q 44.046875 -1.421875 33.015625 -1.421875 
Q 20.359375 -1.421875 13.671875 8.265625 
Q 6.984375 17.96875 6.984375 36.375 
Q 6.984375 53.65625 15.1875 63.9375 
Q 23.390625 74.21875 37.203125 74.21875 
Q 40.921875 74.21875 44.703125 73.484375 
Q 48.484375 72.75 52.59375 71.296875 
z
" id="DejaVuSans-36"/>
      </defs>
      <g transform="translate(389.479898 322.182437)scale(0.1 -0.1)">
       <use xlink:href="#DejaVuSans-36"/>
       <use x="63.623047" xlink:href="#DejaVuSans-30"/>
       <use x="127.246094" xlink:href="#DejaVuSans-30"/>
      </g>
     </g>
    </g>
    <g id="text_8">
     <!-- t(s) -->
     <defs>
      <path d="M 18.3125 70.21875 
L 18.3125 54.6875 
L 36.8125 54.6875 
L 36.8125 47.703125 
L 18.3125 47.703125 
L 18.3125 18.015625 
Q 18.3125 11.328125 20.140625 9.421875 
Q 21.96875 7.515625 27.59375 7.515625 
L 36.8125 7.515625 
L 36.8125 0 
L 27.59375 0 
Q 17.1875 0 13.234375 3.875 
Q 9.28125 7.765625 9.28125 18.015625 
L 9.28125 47.703125 
L 2.6875 47.703125 
L 2.6875 54.6875 
L 9.28125 54.6875 
L 9.28125 70.21875 
z
" id="DejaVuSans-74"/>
      <path d="M 31 75.875 
Q 24.46875 64.65625 21.28125 53.65625 
Q 18.109375 42.671875 18.109375 31.390625 
Q 18.109375 20.125 21.3125 9.0625 
Q 24.515625 -2 31 -13.1875 
L 23.1875 -13.1875 
Q 15.875 -1.703125 12.234375 9.375 
Q 8.59375 20.453125 8.59375 31.390625 
Q 8.59375 42.28125 12.203125 53.3125 
Q 15.828125 64.359375 23.1875 75.875 
z
" id="DejaVuSans-28"/>
      <path d="M 44.28125 53.078125 
L 44.28125 44.578125 
Q 40.484375 46.53125 36.375 47.5 
Q 32.28125 48.484375 27.875 48.484375 
Q 21.1875 48.484375 17.84375 46.4375 
Q 14.5 44.390625 14.5 40.28125 
Q 14.5 37.15625 16.890625 35.375 
Q 19.28125 33.59375 26.515625 31.984375 
L 29.59375 31.296875 
Q 39.15625 29.25 43.1875 25.515625 
Q 47.21875 21.78125 47.21875 15.09375 
Q 47.21875 7.46875 41.1875 3.015625 
Q 35.15625 -1.421875 24.609375 -1.421875 
Q 20.21875 -1.421875 15.453125 -0.5625 
Q 10.6875 0.296875 5.421875 2 
L 5.421875 11.28125 
Q 10.40625 8.6875 15.234375 7.390625 
Q 20.0625 6.109375 24.8125 6.109375 
Q 31.15625 6.109375 34.5625 8.28125 
Q 37.984375 10.453125 37.984375 14.40625 
Q 37.984375 18.0625 35.515625 20.015625 
Q 33.0625 21.96875 24.703125 23.78125 
L 21.578125 24.515625 
Q 13.234375 26.265625 9.515625 29.90625 
Q 5.8125 33.546875 5.8125 39.890625 
Q 5.8125 47.609375 11.28125 51.796875 
Q 16.75 56 26.8125 56 
Q 31.78125 56 36.171875 55.265625 
Q 40.578125 54.546875 44.28125 53.078125 
z
" id="DejaVuSans-73"/>
      <path d="M 8.015625 75.875 
L 15.828125 75.875 
Q 23.140625 64.359375 26.78125 53.3125 
Q 30.421875 42.28125 30.421875 31.390625 
Q 30.421875 20.453125 26.78125 9.375 
Q 23.140625 -1.703125 15.828125 -13.1875 
L 8.015625 -13.1875 
Q 14.5 -2 17.703125 9.0625 
Q 20.90625 20.125 20.90625 31.390625 
Q 20.90625 42.671875 17.703125 53.65625 
Q 14.5 64.65625 8.015625 75.875 
z
" id="DejaVuSans-29"/>
     </defs>
     <g transform="translate(227.693594 335.860562)scale(0.1 -0.1)">
      <use xlink:href="#DejaVuSans-74"/>
      <use x="39.208984" xlink:href="#DejaVuSans-28"/>
      <use x="78.222656" xlink:href="#DejaVuSans-73"/>
      <use x="130.322266" xlink:href="#DejaVuSans-29"/>
     </g>
    </g>
   </g>
   <g id="matplotlib.axis_2">
    <g id="ytick_1">
     <g id="line2d_8">
      <defs>
       <path d="M 0 0 
L -3.5 0 
" id="m5416b20ea2" style="stroke:#000000;stroke-width:0.8;"/>
      </defs>
      <g>
       <use style="stroke:#000000;stroke-width:0.8;" x="57.6" xlink:href="#m5416b20ea2" y="293.463695"/>
      </g>
     </g>
     <g id="text_9">
      <!-- 620 -->
      <g transform="translate(31.5125 297.262913)scale(0.1 -0.1)">
       <use xlink:href="#DejaVuSans-36"/>
       <use x="63.623047" xlink:href="#DejaVuSans-32"/>
       <use x="127.246094" xlink:href="#DejaVuSans-30"/>
      </g>
     </g>
    </g>
    <g id="ytick_2">
     <g id="line2d_9">
      <g>
       <use style="stroke:#000000;stroke-width:0.8;" x="57.6" xlink:href="#m5416b20ea2" y="249.168171"/>
      </g>
     </g>
     <g id="text_10">
      <!-- 640 -->
      <g transform="translate(31.5125 252.96739)scale(0.1 -0.1)">
       <use xlink:href="#DejaVuSans-36"/>
       <use x="63.623047" xlink:href="#DejaVuSans-34"/>
       <use x="127.246094" xlink:href="#DejaVuSans-30"/>
      </g>
     </g>
    </g>
    <g id="ytick_3">
     <g id="line2d_10">
      <g>
       <use style="stroke:#000000;stroke-width:0.8;" x="57.6" xlink:href="#m5416b20ea2" y="204.872648"/>
      </g>
     </g>
     <g id="text_11">
      <!-- 660 -->
      <g transform="translate(31.5125 208.671867)scale(0.1 -0.1)">
       <use xlink:href="#DejaVuSans-36"/>
       <use x="63.623047" xlink:href="#DejaVuSans-36"/>
       <use x="127.246094" xlink:href="#DejaVuSans-30"/>
      </g>
     </g>
    </g>
    <g id="ytick_4">
     <g id="line2d_11">
      <g>
       <use style="stroke:#000000;stroke-width:0.8;" x="57.6" xlink:href="#m5416b20ea2" y="160.577125"/>
      </g>
     </g>
     <g id="text_12">
      <!-- 680 -->
      <defs>
       <path d="M 31.78125 34.625 
Q 24.75 34.625 20.71875 30.859375 
Q 16.703125 27.09375 16.703125 20.515625 
Q 16.703125 13.921875 20.71875 10.15625 
Q 24.75 6.390625 31.78125 6.390625 
Q 38.8125 6.390625 42.859375 10.171875 
Q 46.921875 13.96875 46.921875 20.515625 
Q 46.921875 27.09375 42.890625 30.859375 
Q 38.875 34.625 31.78125 34.625 
z
M 21.921875 38.8125 
Q 15.578125 40.375 12.03125 44.71875 
Q 8.5 49.078125 8.5 55.328125 
Q 8.5 64.0625 14.71875 69.140625 
Q 20.953125 74.21875 31.78125 74.21875 
Q 42.671875 74.21875 48.875 69.140625 
Q 55.078125 64.0625 55.078125 55.328125 
Q 55.078125 49.078125 51.53125 44.71875 
Q 48 40.375 41.703125 38.8125 
Q 48.828125 37.15625 52.796875 32.3125 
Q 56.78125 27.484375 56.78125 20.515625 
Q 56.78125 9.90625 50.3125 4.234375 
Q 43.84375 -1.421875 31.78125 -1.421875 
Q 19.734375 -1.421875 13.25 4.234375 
Q 6.78125 9.90625 6.78125 20.515625 
Q 6.78125 27.484375 10.78125 32.3125 
Q 14.796875 37.15625 21.921875 38.8125 
z
M 18.3125 54.390625 
Q 18.3125 48.734375 21.84375 45.5625 
Q 25.390625 42.390625 31.78125 42.390625 
Q 38.140625 42.390625 41.71875 45.5625 
Q 45.3125 48.734375 45.3125 54.390625 
Q 45.3125 60.0625 41.71875 63.234375 
Q 38.140625 66.40625 31.78125 66.40625 
Q 25.390625 66.40625 21.84375 63.234375 
Q 18.3125 60.0625 18.3125 54.390625 
z
" id="DejaVuSans-38"/>
      </defs>
      <g transform="translate(31.5125 164.376344)scale(0.1 -0.1)">
       <use xlink:href="#DejaVuSans-36"/>
       <use x="63.623047" xlink:href="#DejaVuSans-38"/>
       <use x="127.246094" xlink:href="#DejaVuSans-30"/>
      </g>
     </g>
    </g>
    <g id="ytick_5">
     <g id="line2d_12">
      <g>
       <use style="stroke:#000000;stroke-width:0.8;" x="57.6" xlink:href="#m5416b20ea2" y="116.281602"/>
      </g>
     </g>
     <g id="text_13">
      <!-- 700 -->
      <defs>
       <path d="M 8.203125 72.90625 
L 55.078125 72.90625 
L 55.078125 68.703125 
L 28.609375 0 
L 18.3125 0 
L 43.21875 64.59375 
L 8.203125 64.59375 
z
" id="DejaVuSans-37"/>
      </defs>
      <g transform="translate(31.5125 120.080821)scale(0.1 -0.1)">
       <use xlink:href="#DejaVuSans-37"/>
       <use x="63.623047" xlink:href="#DejaVuSans-30"/>
       <use x="127.246094" xlink:href="#DejaVuSans-30"/>
      </g>
     </g>
    </g>
    <g id="ytick_6">
     <g id="line2d_13">
      <g>
       <use style="stroke:#000000;stroke-width:0.8;" x="57.6" xlink:href="#m5416b20ea2" y="71.986079"/>
      </g>
     </g>
     <g id="text_14">
      <!-- 720 -->
      <g transform="translate(31.5125 75.785297)scale(0.1 -0.1)">
       <use xlink:href="#DejaVuSans-37"/>
       <use x="63.623047" xlink:href="#DejaVuSans-32"/>
       <use x="127.246094" xlink:href="#DejaVuSans-30"/>
      </g>
     </g>
    </g>
    <g id="text_15">
     <!-- Current (nA) -->
     <defs>
      <path d="M 64.40625 67.28125 
L 64.40625 56.890625 
Q 59.421875 61.53125 53.78125 63.8125 
Q 48.140625 66.109375 41.796875 66.109375 
Q 29.296875 66.109375 22.65625 58.46875 
Q 16.015625 50.828125 16.015625 36.375 
Q 16.015625 21.96875 22.65625 14.328125 
Q 29.296875 6.6875 41.796875 6.6875 
Q 48.140625 6.6875 53.78125 8.984375 
Q 59.421875 11.28125 64.40625 15.921875 
L 64.40625 5.609375 
Q 59.234375 2.09375 53.4375 0.328125 
Q 47.65625 -1.421875 41.21875 -1.421875 
Q 24.65625 -1.421875 15.125 8.703125 
Q 5.609375 18.84375 5.609375 36.375 
Q 5.609375 53.953125 15.125 64.078125 
Q 24.65625 74.21875 41.21875 74.21875 
Q 47.75 74.21875 53.53125 72.484375 
Q 59.328125 70.75 64.40625 67.28125 
z
" id="DejaVuSans-43"/>
      <path d="M 8.5 21.578125 
L 8.5 54.6875 
L 17.484375 54.6875 
L 17.484375 21.921875 
Q 17.484375 14.15625 20.5 10.265625 
Q 23.53125 6.390625 29.59375 6.390625 
Q 36.859375 6.390625 41.078125 11.03125 
Q 45.3125 15.671875 45.3125 23.6875 
L 45.3125 54.6875 
L 54.296875 54.6875 
L 54.296875 0 
L 45.3125 0 
L 45.3125 8.40625 
Q 42.046875 3.421875 37.71875 1 
Q 33.40625 -1.421875 27.6875 -1.421875 
Q 18.265625 -1.421875 13.375 4.4375 
Q 8.5 10.296875 8.5 21.578125 
z
M 31.109375 56 
z
" id="DejaVuSans-75"/>
      <path d="M 41.109375 46.296875 
Q 39.59375 47.171875 37.8125 47.578125 
Q 36.03125 48 33.890625 48 
Q 26.265625 48 22.1875 43.046875 
Q 18.109375 38.09375 18.109375 28.8125 
L 18.109375 0 
L 9.078125 0 
L 9.078125 54.6875 
L 18.109375 54.6875 
L 18.109375 46.1875 
Q 20.953125 51.171875 25.484375 53.578125 
Q 30.03125 56 36.53125 56 
Q 37.453125 56 38.578125 55.875 
Q 39.703125 55.765625 41.0625 55.515625 
z
" id="DejaVuSans-72"/>
      <path d="M 56.203125 29.59375 
L 56.203125 25.203125 
L 14.890625 25.203125 
Q 15.484375 15.921875 20.484375 11.0625 
Q 25.484375 6.203125 34.421875 6.203125 
Q 39.59375 6.203125 44.453125 7.46875 
Q 49.3125 8.734375 54.109375 11.28125 
L 54.109375 2.78125 
Q 49.265625 0.734375 44.1875 -0.34375 
Q 39.109375 -1.421875 33.890625 -1.421875 
Q 20.796875 -1.421875 13.15625 6.1875 
Q 5.515625 13.8125 5.515625 26.8125 
Q 5.515625 40.234375 12.765625 48.109375 
Q 20.015625 56 32.328125 56 
Q 43.359375 56 49.78125 48.890625 
Q 56.203125 41.796875 56.203125 29.59375 
z
M 47.21875 32.234375 
Q 47.125 39.59375 43.09375 43.984375 
Q 39.0625 48.390625 32.421875 48.390625 
Q 24.90625 48.390625 20.390625 44.140625 
Q 15.875 39.890625 15.1875 32.171875 
z
" id="DejaVuSans-65"/>
      <path d="M 54.890625 33.015625 
L 54.890625 0 
L 45.90625 0 
L 45.90625 32.71875 
Q 45.90625 40.484375 42.875 44.328125 
Q 39.84375 48.1875 33.796875 48.1875 
Q 26.515625 48.1875 22.3125 43.546875 
Q 18.109375 38.921875 18.109375 30.90625 
L 18.109375 0 
L 9.078125 0 
L 9.078125 54.6875 
L 18.109375 54.6875 
L 18.109375 46.1875 
Q 21.34375 51.125 25.703125 53.5625 
Q 30.078125 56 35.796875 56 
Q 45.21875 56 50.046875 50.171875 
Q 54.890625 44.34375 54.890625 33.015625 
z
" id="DejaVuSans-6e"/>
      <path id="DejaVuSans-20"/>
      <path d="M 34.1875 63.1875 
L 20.796875 26.90625 
L 47.609375 26.90625 
z
M 28.609375 72.90625 
L 39.796875 72.90625 
L 67.578125 0 
L 57.328125 0 
L 50.6875 18.703125 
L 17.828125 18.703125 
L 11.1875 0 
L 0.78125 0 
z
" id="DejaVuSans-41"/>
     </defs>
     <g transform="translate(25.432812 205.581906)rotate(-90)scale(0.1 -0.1)">
      <use xlink:href="#DejaVuSans-43"/>
      <use x="69.824219" xlink:href="#DejaVuSans-75"/>
      <use x="133.203125" xlink:href="#DejaVuSans-72"/>
      <use x="174.300781" xlink:href="#DejaVuSans-72"/>
      <use x="215.382812" xlink:href="#DejaVuSans-65"/>
      <use x="276.90625" xlink:href="#DejaVuSans-6e"/>
      <use x="340.285156" xlink:href="#DejaVuSans-74"/>
      <use x="379.494141" xlink:href="#DejaVuSans-20"/>
      <use x="411.28125" xlink:href="#DejaVuSans-28"/>
      <use x="450.294922" xlink:href="#DejaVuSans-6e"/>
      <use x="513.673828" xlink:href="#DejaVuSans-41"/>
      <use x="582.082031" xlink:href="#DejaVuSans-29"/>
     </g>
    </g>
   </g>
   <g id="line2d_14">
    <path clip-path="url(#p17f40ef109)" d="M 73.832727 189.017066 
L 74.375617 196.522942 
L 74.919049 183.650663 
L 75.461939 191.242916 
L 76.005372 178.895539 
L 76.548804 207.999912 
L 77.092237 199.654636 
L 77.63567 221.308502 
L 78.722535 231.826474 
L 79.265967 248.113938 
L 79.8094 241.85498 
L 80.352289 241.737597 
L 80.895179 205.738626 
L 81.438069 208.659915 
L 81.980958 163.883786 
L 82.523848 164.951308 
L 83.067281 165.586949 
L 83.61017 140.369507 
L 84.15306 139.164669 
L 84.69595 112.450039 
L 85.23884 122.551633 
L 85.781729 100.736088 
L 86.325162 118.952622 
L 86.868051 98.800374 
L 87.410941 120.65357 
L 87.953831 116.593885 
L 88.49672 125.450775 
L 89.03961 145.374901 
L 89.5825 134.941091 
L 90.12539 163.830631 
L 90.668279 150.116737 
L 91.211169 179.960846 
L 91.754059 167.744141 
L 92.296948 200.062154 
L 92.839838 187.384776 
L 93.382728 219.583191 
L 93.925617 238.127512 
L 94.468507 244.218147 
L 95.011397 280.688866 
L 95.554286 265.484427 
L 96.097176 290.351934 
L 96.640066 274.447626 
L 97.182955 290.19247 
L 97.725845 274.133128 
L 98.268735 284.837141 
L 98.811624 285.105129 
L 99.354514 267.355913 
L 99.897404 275.741056 
L 100.440294 239.626916 
L 100.983183 254.23115 
L 101.526073 217.749357 
L 102.068963 224.756909 
L 102.611852 213.260005 
L 103.154742 193.530779 
L 103.697632 195.40448 
L 104.240521 149.638346 
L 104.783411 144.528857 
L 105.326301 104.494563 
L 105.86919 121.639145 
L 106.41208 107.619612 
L 106.95497 110.122309 
L 107.497859 125.410909 
L 108.040749 115.586162 
L 108.583639 141.087095 
L 109.126528 120.657999 
L 109.669418 154.922801 
L 110.212308 150.575196 
L 111.298087 196.199585 
L 111.840977 188.968341 
L 112.383867 221.13132 
L 112.926756 216.201228 
L 113.469646 254.153633 
L 114.012536 252.448255 
L 114.555425 281.703233 
L 115.098315 286.655473 
L 115.641205 283.96452 
L 116.184094 290.73952 
L 116.726984 274.099907 
L 117.269874 283.432973 
L 117.812763 251.287712 
L 118.355653 255.921024 
L 118.898543 223.109115 
L 119.441432 228.017059 
L 119.984322 187.183231 
L 120.527212 194.181924 
L 121.612991 140.061653 
L 122.155881 133.780548 
L 122.698771 103.116972 
L 123.24166 124.254796 
L 123.78455 96.95325 
L 124.32744 127.200448 
L 124.870329 118.839668 
L 125.413219 145.660608 
L 125.956109 162.816264 
L 126.498998 173.334236 
L 127.041888 206.148359 
L 127.584778 200.704439 
L 128.127667 242.05431 
L 128.670557 245.343253 
L 129.213447 282.746393 
L 129.756336 263.198778 
L 130.299226 283.847137 
L 130.842116 267.657123 
L 131.385005 280.015574 
L 131.927895 279.705505 
L 132.470785 255.695117 
L 133.013675 263.395893 
L 133.556564 228.165449 
L 134.099454 236.81415 
L 134.642344 201.227127 
L 135.185233 205.731981 
L 136.271013 172.984301 
L 136.813902 166.275744 
L 137.356792 122.230491 
L 137.899682 128.445152 
L 138.442571 96.040762 
L 138.985461 110.246337 
L 139.528351 98.459298 
L 140.07124 109.803381 
L 140.61413 123.949157 
L 141.15702 111.916278 
L 141.699909 141.122531 
L 142.242799 123.417611 
L 142.785689 152.80769 
L 143.328579 137.457077 
L 143.871468 169.843748 
L 144.414358 179.086009 
L 144.957248 184.57201 
L 145.500137 212.998662 
L 146.043027 201.822901 
L 146.585917 240.898197 
L 147.128806 227.246317 
L 147.671696 265.081338 
L 148.214586 267.114503 
L 148.757475 271.696874 
L 149.300365 295.488 
L 149.843255 267.320477 
L 150.386144 288.526959 
L 150.929034 258.211102 
L 151.471924 277.763146 
L 152.014813 257.322977 
L 152.557703 260.226549 
L 153.100593 264.226434 
L 153.643483 236.196227 
L 154.186372 251.828118 
L 154.729262 220.298564 
L 155.272152 223.662809 
L 155.815041 193.105542 
L 156.357931 207.632259 
L 156.900821 178.058353 
L 157.44371 185.535438 
L 157.9866 164.096404 
L 158.52949 153.813199 
L 159.072379 137.844662 
L 159.615269 106.684977 
L 160.158159 242.472903 
L 160.701048 93.418467 
L 161.243938 108.758007 
L 161.786828 92.492691 
L 162.329717 106.049336 
L 162.872607 112.361448 
L 163.415497 104.667316 
L 163.958387 124.232648 
L 164.501276 105.074834 
L 165.044166 131.100669 
L 165.587056 110.948421 
L 166.129945 134.686392 
L 166.672835 129.924623 
L 167.215725 152.736817 
L 167.758614 152.287218 
L 168.301504 163.994525 
L 168.844394 178.268757 
L 169.387283 134.591156 
L 169.930173 203.297942 
L 170.473063 188.033705 
L 171.015952 214.132627 
L 171.558842 201.444175 
L 172.101732 231.682514 
L 172.644621 215.829146 
L 173.187511 254.753837 
L 173.730401 268.538604 
L 174.273291 264.503282 
L 174.81618 282.713171 
L 175.35907 267.803298 
L 175.90196 286.451713 
L 176.444849 257.796939 
L 176.987739 279.734297 
L 177.530629 191.440031 
L 178.616408 242.716528 
L 179.159298 230.663717 
L 179.70273 262.724816 
L 180.24562 251.859124 
L 180.78851 274.155276 
L 181.331399 252.259999 
L 181.874289 280.086447 
L 182.417179 188.899683 
L 182.960068 269.191963 
L 183.502958 151.651577 
L 184.045848 256.222233 
L 184.588737 277.725495 
L 185.131627 93.44726 
L 185.674517 99.47588 
L 186.217406 102.69838 
L 186.760296 98.3397 
L 187.303186 117.269392 
L 187.846075 93.854778 
L 188.388965 123.007877 
L 188.931855 92.851485 
L 189.474744 127.734209 
L 190.017634 119.997996 
L 191.103414 153.848635 
L 191.646303 147.133434 
L 192.189193 176.660829 
L 192.732083 161.874984 
L 193.274972 194.853001 
L 193.817862 183.192204 
L 194.360752 220.300779 
L 194.903641 224.818922 
L 195.446531 253.726181 
L 195.989421 271.298215 
L 196.53231 263.701533 
L 197.0752 286.197014 
L 197.61809 265.883087 
L 198.160979 281.041015 
L 198.703869 255.043973 
L 199.246759 267.894104 
L 199.789648 241.868269 
L 200.332538 259.544398 
L 200.875428 254.209002 
L 201.418318 247.715278 
L 201.961207 267.112288 
L 202.504097 238.856174 
L 203.046987 257.402709 
L 203.589876 234.063398 
L 204.132766 256.189012 
L 204.675656 241.372159 
L 205.761435 262.521057 
L 206.304325 251.487042 
L 206.847214 264.895297 
L 207.390104 248.705283 
L 207.932994 265.25852 
L 208.475883 237.367844 
L 209.018773 261.936356 
L 209.561663 240.258127 
L 210.104552 250.866905 
L 210.647442 121.495185 
L 211.190332 109.07915 
L 211.733222 117.346909 
L 212.276111 92.421818 
L 212.819001 111.468893 
L 213.361891 86.382124 
L 213.90478 108.144514 
L 214.44767 85.684469 
L 214.99056 113.931724 
L 215.533449 96.089488 
L 216.076339 125.64789 
L 216.619229 136.673046 
L 217.162118 139.556684 
L 217.705008 164.107478 
L 218.247898 153.930582 
L 218.790787 181.593136 
L 219.333677 164.807347 
L 219.876567 198.210601 
L 220.419456 197.716706 
L 220.962346 218.285333 
L 221.505236 245.194863 
L 222.048126 238.579327 
L 222.591015 266.053625 
L 223.133905 244.264657 
L 223.676795 271.344725 
L 224.219684 252.346375 
L 224.762574 267.344839 
L 225.305464 263.617371 
L 225.848353 261.280782 
L 226.391243 271.59721 
L 226.934133 255.001892 
L 227.477022 266.217518 
L 228.019912 242.904784 
L 228.562802 256.009615 
L 229.105691 229.310488 
L 229.648581 249.345353 
L 230.191471 222.993947 
L 230.73436 241.400951 
L 231.27725 238.530601 
L 231.82014 227.102356 
L 232.36303 241.046587 
L 232.905919 216.442639 
L 233.448809 236.189583 
L 233.991699 208.030919 
L 234.534588 229.113373 
L 235.077478 212.934433 
L 236.163257 227.901891 
L 236.706147 211.979865 
L 237.249037 225.614027 
L 237.791926 202.688879 
L 238.334816 218.227748 
L 238.877706 188.308337 
L 239.420595 208.208101 
L 239.963485 188.03592 
L 240.506375 197.211737 
L 241.049264 197.672411 
L 241.592154 183.298514 
L 242.135044 194.651456 
L 242.677934 170.532544 
L 243.220823 185.336108 
L 243.763713 157.414425 
L 244.306603 175.256661 
L 244.849492 142.714955 
L 245.392382 158.047851 
L 245.935272 132.022016 
L 246.478161 139.15581 
L 247.021051 127.714276 
L 247.563941 111.821043 
L 248.10683 124.637952 
L 248.64972 97.650905 
L 249.19261 115.902875 
L 249.735499 81.215051 
L 250.278389 93.648804 
L 250.821279 94.982099 
L 251.364168 90.568051 
L 251.907058 105.761415 
L 252.449948 86.242593 
L 252.992837 113.291654 
L 253.535727 87.710989 
L 254.078617 119.058931 
L 254.621507 105.659535 
L 255.164396 129.200391 
L 255.707286 140.077157 
L 256.250176 135.705189 
L 256.793065 161.651291 
L 257.335955 146.207657 
L 257.878845 174.448268 
L 258.421734 155.119917 
L 258.964624 184.755836 
L 259.507514 185.085838 
L 260.050403 191.278352 
L 260.593293 218.105936 
L 261.136183 205.477282 
L 261.679072 227.963904 
L 262.221962 213.590007 
L 262.764852 244.240294 
L 263.307741 236.475289 
L 264.393521 258.899898 
L 264.936411 253.624301 
L 265.4793 268.786659 
L 266.02219 249.958846 
L 266.56508 275.081052 
L 267.107969 253.732825 
L 267.650859 269.524179 
L 268.193749 244.820566 
L 268.736638 268.895183 
L 269.279528 246.964469 
L 269.822418 260.4591 
L 270.365307 265.747986 
L 270.908197 250.12274 
L 271.451087 262.731461 
L 271.993976 236.089918 
L 272.536866 248.34206 
L 273.079756 219.487956 
L 273.622645 226.573025 
L 274.165535 220.300779 
L 274.708425 209.982137 
L 275.251315 212.728459 
L 275.794204 183.484555 
L 276.337094 189.152167 
L 276.879984 153.425613 
L 277.422873 159.580476 
L 277.965763 117.710132 
L 278.508653 113.426755 
L 279.051542 93.677596 
L 279.594432 91.312215 
L 280.137322 93.453904 
L 280.680211 76.929459 
L 281.223101 100.851256 
L 281.765991 75.270592 
L 282.30888 104.700537 
L 282.85177 82.023444 
L 283.39466 113.079035 
L 283.937549 127.48394 
L 284.480439 125.036612 
L 285.023329 130.69315 
L 285.566219 133.096182 
L 286.109108 158.218388 
L 286.651998 144.606374 
L 287.194888 170.153817 
L 287.737777 155.866296 
L 288.280667 186.901954 
L 288.823557 171.925638 
L 289.366446 204.398686 
L 289.909336 203.887073 
L 290.995115 247.141651 
L 291.538005 242.441896 
L 292.080895 265.475568 
L 292.623784 247.992125 
L 293.166674 266.416848 
L 293.709564 243.527137 
L 294.252453 265.506575 
L 294.795343 239.724366 
L 295.338233 261.207695 
L 295.881123 244.014387 
L 296.424012 246.836012 
L 296.966902 256.0074 
L 297.509792 234.88065 
L 298.052681 245.684328 
L 298.595571 219.206679 
L 299.138461 238.977986 
L 299.68135 211.295499 
L 300.22424 221.060447 
L 300.76713 225.514362 
L 301.310019 211.855837 
L 301.852909 225.963962 
L 302.395799 199.774233 
L 302.938688 212.582284 
L 303.481578 187.072492 
L 304.024468 205.765203 
L 304.567357 183.0416 
L 305.110247 194.146487 
L 305.653137 188.642768 
L 306.196026 176.474788 
L 306.738916 183.936369 
L 307.281806 160.898268 
L 307.824696 174.928874 
L 308.367585 142.365021 
L 308.910475 152.898496 
L 309.453365 109.845462 
L 309.996254 118.215101 
L 310.539144 94.813776 
L 311.082034 89.13509 
L 311.624923 96.357475 
L 312.167813 74.464413 
L 312.710703 95.382974 
L 313.253592 72.783398 
L 313.796482 93.701959 
L 314.339372 71.044799 
L 314.882261 93.865852 
L 315.425151 65.293025 
L 315.968041 92.683162 
L 316.51093 88.656699 
L 317.05382 90.404157 
L 317.59671 106.215444 
L 318.1396 82.772038 
L 318.682489 103.125831 
L 319.225379 77.664765 
L 319.768269 97.675267 
L 320.311158 78.417789 
L 320.854048 93.958873 
L 321.396938 101.602065 
L 321.939827 84.375536 
L 322.482717 101.236627 
L 323.025607 67.434714 
L 323.568496 94.886864 
L 324.111386 71.817756 
L 324.654276 86.328969 
L 325.740055 81.051157 
L 326.282945 93.843704 
L 326.825834 74.187566 
L 327.368724 95.188074 
L 327.911614 66.564307 
L 328.454504 89.941269 
L 328.997393 75.051329 
L 330.083173 99.358497 
L 330.626062 84.654598 
L 331.168952 102.609789 
L 331.711842 78.373493 
L 332.254731 100.091588 
L 332.797621 74.267298 
L 333.340511 98.129296 
L 333.8834 86.581453 
L 334.42629 96.377408 
L 334.96918 104.073756 
L 335.512069 95.256732 
L 336.054959 110.029289 
L 336.597849 92.594571 
L 337.140738 110.857615 
L 337.683628 85.795208 
L 338.226518 106.826722 
L 338.769408 78.143156 
L 339.312297 99.723935 
L 340.398077 89.615697 
L 340.940966 103.679525 
L 341.483856 80.045649 
L 342.026746 99.517961 
L 342.569635 72.601786 
L 343.112525 87.892601 
L 343.655415 70.362648 
L 344.198304 83.436471 
L 344.741194 82.293647 
L 345.284084 72.894137 
L 345.826973 91.327719 
L 346.369863 68.088073 
L 346.912753 93.59122 
L 347.455642 71.166611 
L 347.998532 103.420397 
L 348.541422 91.372014 
L 349.084312 121.406594 
L 349.627201 113.681455 
L 350.170091 141.339579 
L 350.712981 162.521698 
L 351.25587 154.271657 
L 351.79876 184.007242 
L 352.34165 167.208165 
L 352.884539 197.550598 
L 353.427429 181.194476 
L 353.970319 210.232406 
L 354.513208 199.889402 
L 355.056098 213.098327 
L 355.598988 235.861796 
L 356.141877 231.270565 
L 356.684767 251.250061 
L 357.227657 230.68365 
L 357.770546 255.865654 
L 358.313436 218.714999 
L 358.856326 249.442804 
L 359.399215 243.372102 
L 359.942105 235.106558 
L 360.484995 256.441496 
L 361.027885 236.189583 
L 362.113664 152.240707 
L 362.656554 166.523799 
L 363.199443 246.173794 
L 363.742333 240.546048 
L 364.285223 246.661045 
L 364.828112 225.321676 
L 365.371002 224.181067 
L 365.913892 190.330428 
L 366.456781 204.695466 
L 366.999671 186.702625 
L 367.542561 192.68252 
L 368.08545 187.672697 
L 368.62834 163.883786 
L 369.17123 178.680705 
L 369.714119 149.035926 
L 370.257009 169.901333 
L 370.799899 145.607453 
L 371.342789 161.000147 
L 371.885678 156.891737 
L 372.428568 150.854258 
L 372.971458 160.0788 
L 373.514347 141.08488 
L 374.057237 156.834153 
L 374.600127 132.292219 
L 375.143016 150.324926 
L 375.685906 124.301306 
L 376.228796 141.623071 
L 376.771685 115.515289 
L 377.314575 126.181651 
L 377.857465 116.509724 
L 378.400354 112.749034 
L 378.943244 124.509495 
L 379.486134 99.994138 
L 380.029023 111.756814 
L 380.571913 78.836381 
L 381.114803 99.635344 
L 381.657693 79.680211 
L 382.200582 83.502915 
L 382.743472 92.508194 
L 383.286362 71.301713 
L 383.829251 86.687763 
L 384.372141 64.74819 
L 384.915031 85.795208 
L 385.45792 55.964388 
L 386.00081 76.989258 
L 386.5437 60.805888 
L 387.086589 72.666015 
L 387.629479 78.054565 
L 388.172369 69.986136 
L 388.715258 84.030031 
L 389.258148 64.610874 
L 389.801038 85.192789 
L 390.343927 59.107155 
L 390.886817 76.942748 
L 391.429707 65.877726 
L 391.972597 88.568108 
L 392.515486 60.128167 
L 393.058376 69.19989 
L 393.601266 69.430227 
L 394.144155 65.075977 
L 394.687045 76.758921 
L 395.229935 60.560048 
L 395.772824 80.851828 
L 396.315714 53.568 
L 396.858604 79.037926 
L 397.401493 54.535857 
L 397.944383 69.518818 
L 398.487273 75.531935 
L 398.487273 75.531935 
" style="fill:none;stroke:#1f77b4;stroke-linecap:square;stroke-width:1.5;"/>
   </g>
   <g id="patch_3">
    <path d="M 57.6 307.584 
L 57.6 41.472 
" style="fill:none;stroke:#000000;stroke-linecap:square;stroke-linejoin:miter;stroke-width:0.8;"/>
   </g>
   <g id="patch_4">
    <path d="M 414.72 307.584 
L 414.72 41.472 
" style="fill:none;stroke:#000000;stroke-linecap:square;stroke-linejoin:miter;stroke-width:0.8;"/>
   </g>
   <g id="patch_5">
    <path d="M 57.6 307.584 
L 414.72 307.584 
" style="fill:none;stroke:#000000;stroke-linecap:square;stroke-linejoin:miter;stroke-width:0.8;"/>
   </g>
   <g id="patch_6">
    <path d="M 57.6 41.472 
L 414.72 41.472 
" style="fill:none;stroke:#000000;stroke-linecap:square;stroke-linejoin:miter;stroke-width:0.8;"/>
   </g>
   <g id="text_16">
    <!-- Current with source voltage 100.0 mV -->
    <defs>
     <path d="M 4.203125 54.6875 
L 13.1875 54.6875 
L 24.421875 12.015625 
L 35.59375 54.6875 
L 46.1875 54.6875 
L 57.421875 12.015625 
L 68.609375 54.6875 
L 77.59375 54.6875 
L 63.28125 0 
L 52.6875 0 
L 40.921875 44.828125 
L 29.109375 0 
L 18.5 0 
z
" id="DejaVuSans-77"/>
     <path d="M 9.421875 54.6875 
L 18.40625 54.6875 
L 18.40625 0 
L 9.421875 0 
z
M 9.421875 75.984375 
L 18.40625 75.984375 
L 18.40625 64.59375 
L 9.421875 64.59375 
z
" id="DejaVuSans-69"/>
     <path d="M 54.890625 33.015625 
L 54.890625 0 
L 45.90625 0 
L 45.90625 32.71875 
Q 45.90625 40.484375 42.875 44.328125 
Q 39.84375 48.1875 33.796875 48.1875 
Q 26.515625 48.1875 22.3125 43.546875 
Q 18.109375 38.921875 18.109375 30.90625 
L 18.109375 0 
L 9.078125 0 
L 9.078125 75.984375 
L 18.109375 75.984375 
L 18.109375 46.1875 
Q 21.34375 51.125 25.703125 53.5625 
Q 30.078125 56 35.796875 56 
Q 45.21875 56 50.046875 50.171875 
Q 54.890625 44.34375 54.890625 33.015625 
z
" id="DejaVuSans-68"/>
     <path d="M 30.609375 48.390625 
Q 23.390625 48.390625 19.1875 42.75 
Q 14.984375 37.109375 14.984375 27.296875 
Q 14.984375 17.484375 19.15625 11.84375 
Q 23.34375 6.203125 30.609375 6.203125 
Q 37.796875 6.203125 41.984375 11.859375 
Q 46.1875 17.53125 46.1875 27.296875 
Q 46.1875 37.015625 41.984375 42.703125 
Q 37.796875 48.390625 30.609375 48.390625 
z
M 30.609375 56 
Q 42.328125 56 49.015625 48.375 
Q 55.71875 40.765625 55.71875 27.296875 
Q 55.71875 13.875 49.015625 6.21875 
Q 42.328125 -1.421875 30.609375 -1.421875 
Q 18.84375 -1.421875 12.171875 6.21875 
Q 5.515625 13.875 5.515625 27.296875 
Q 5.515625 40.765625 12.171875 48.375 
Q 18.84375 56 30.609375 56 
z
" id="DejaVuSans-6f"/>
     <path d="M 48.78125 52.59375 
L 48.78125 44.1875 
Q 44.96875 46.296875 41.140625 47.34375 
Q 37.3125 48.390625 33.40625 48.390625 
Q 24.65625 48.390625 19.8125 42.84375 
Q 14.984375 37.3125 14.984375 27.296875 
Q 14.984375 17.28125 19.8125 11.734375 
Q 24.65625 6.203125 33.40625 6.203125 
Q 37.3125 6.203125 41.140625 7.25 
Q 44.96875 8.296875 48.78125 10.40625 
L 48.78125 2.09375 
Q 45.015625 0.34375 40.984375 -0.53125 
Q 36.96875 -1.421875 32.421875 -1.421875 
Q 20.0625 -1.421875 12.78125 6.34375 
Q 5.515625 14.109375 5.515625 27.296875 
Q 5.515625 40.671875 12.859375 48.328125 
Q 20.21875 56 33.015625 56 
Q 37.15625 56 41.109375 55.140625 
Q 45.0625 54.296875 48.78125 52.59375 
z
" id="DejaVuSans-63"/>
     <path d="M 2.984375 54.6875 
L 12.5 54.6875 
L 29.59375 8.796875 
L 46.6875 54.6875 
L 56.203125 54.6875 
L 35.6875 0 
L 23.484375 0 
z
" id="DejaVuSans-76"/>
     <path d="M 9.421875 75.984375 
L 18.40625 75.984375 
L 18.40625 0 
L 9.421875 0 
z
" id="DejaVuSans-6c"/>
     <path d="M 34.28125 27.484375 
Q 23.390625 27.484375 19.1875 25 
Q 14.984375 22.515625 14.984375 16.5 
Q 14.984375 11.71875 18.140625 8.90625 
Q 21.296875 6.109375 26.703125 6.109375 
Q 34.1875 6.109375 38.703125 11.40625 
Q 43.21875 16.703125 43.21875 25.484375 
L 43.21875 27.484375 
z
M 52.203125 31.203125 
L 52.203125 0 
L 43.21875 0 
L 43.21875 8.296875 
Q 40.140625 3.328125 35.546875 0.953125 
Q 30.953125 -1.421875 24.3125 -1.421875 
Q 15.921875 -1.421875 10.953125 3.296875 
Q 6 8.015625 6 15.921875 
Q 6 25.140625 12.171875 29.828125 
Q 18.359375 34.515625 30.609375 34.515625 
L 43.21875 34.515625 
L 43.21875 35.40625 
Q 43.21875 41.609375 39.140625 45 
Q 35.0625 48.390625 27.6875 48.390625 
Q 23 48.390625 18.546875 47.265625 
Q 14.109375 46.140625 10.015625 43.890625 
L 10.015625 52.203125 
Q 14.9375 54.109375 19.578125 55.046875 
Q 24.21875 56 28.609375 56 
Q 40.484375 56 46.34375 49.84375 
Q 52.203125 43.703125 52.203125 31.203125 
z
" id="DejaVuSans-61"/>
     <path d="M 45.40625 27.984375 
Q 45.40625 37.75 41.375 43.109375 
Q 37.359375 48.484375 30.078125 48.484375 
Q 22.859375 48.484375 18.828125 43.109375 
Q 14.796875 37.75 14.796875 27.984375 
Q 14.796875 18.265625 18.828125 12.890625 
Q 22.859375 7.515625 30.078125 7.515625 
Q 37.359375 7.515625 41.375 12.890625 
Q 45.40625 18.265625 45.40625 27.984375 
z
M 54.390625 6.78125 
Q 54.390625 -7.171875 48.1875 -13.984375 
Q 42 -20.796875 29.203125 -20.796875 
Q 24.46875 -20.796875 20.265625 -20.09375 
Q 16.0625 -19.390625 12.109375 -17.921875 
L 12.109375 -9.1875 
Q 16.0625 -11.328125 19.921875 -12.34375 
Q 23.78125 -13.375 27.78125 -13.375 
Q 36.625 -13.375 41.015625 -8.765625 
Q 45.40625 -4.15625 45.40625 5.171875 
L 45.40625 9.625 
Q 42.625 4.78125 38.28125 2.390625 
Q 33.9375 0 27.875 0 
Q 17.828125 0 11.671875 7.65625 
Q 5.515625 15.328125 5.515625 27.984375 
Q 5.515625 40.671875 11.671875 48.328125 
Q 17.828125 56 27.875 56 
Q 33.9375 56 38.28125 53.609375 
Q 42.625 51.21875 45.40625 46.390625 
L 45.40625 54.6875 
L 54.390625 54.6875 
z
" id="DejaVuSans-67"/>
     <path d="M 10.6875 12.40625 
L 21 12.40625 
L 21 0 
L 10.6875 0 
z
" id="DejaVuSans-2e"/>
     <path d="M 52 44.1875 
Q 55.375 50.25 60.0625 53.125 
Q 64.75 56 71.09375 56 
Q 79.640625 56 84.28125 50.015625 
Q 88.921875 44.046875 88.921875 33.015625 
L 88.921875 0 
L 79.890625 0 
L 79.890625 32.71875 
Q 79.890625 40.578125 77.09375 44.375 
Q 74.3125 48.1875 68.609375 48.1875 
Q 61.625 48.1875 57.5625 43.546875 
Q 53.515625 38.921875 53.515625 30.90625 
L 53.515625 0 
L 44.484375 0 
L 44.484375 32.71875 
Q 44.484375 40.625 41.703125 44.40625 
Q 38.921875 48.1875 33.109375 48.1875 
Q 26.21875 48.1875 22.15625 43.53125 
Q 18.109375 38.875 18.109375 30.90625 
L 18.109375 0 
L 9.078125 0 
L 9.078125 54.6875 
L 18.109375 54.6875 
L 18.109375 46.1875 
Q 21.1875 51.21875 25.484375 53.609375 
Q 29.78125 56 35.6875 56 
Q 41.65625 56 45.828125 52.96875 
Q 50 49.953125 52 44.1875 
z
" id="DejaVuSans-6d"/>
     <path d="M 28.609375 0 
L 0.78125 72.90625 
L 11.078125 72.90625 
L 34.1875 11.53125 
L 57.328125 72.90625 
L 67.578125 72.90625 
L 39.796875 0 
z
" id="DejaVuSans-56"/>
    </defs>
    <g transform="translate(121.528125 35.472)scale(0.12 -0.12)">
     <use xlink:href="#DejaVuSans-43"/>
     <use x="69.824219" xlink:href="#DejaVuSans-75"/>
     <use x="133.203125" xlink:href="#DejaVuSans-72"/>
     <use x="174.300781" xlink:href="#DejaVuSans-72"/>
     <use x="215.382812" xlink:href="#DejaVuSans-65"/>
     <use x="276.90625" xlink:href="#DejaVuSans-6e"/>
     <use x="340.285156" xlink:href="#DejaVuSans-74"/>
     <use x="379.494141" xlink:href="#DejaVuSans-20"/>
     <use x="411.28125" xlink:href="#DejaVuSans-77"/>
     <use x="493.068359" xlink:href="#DejaVuSans-69"/>
     <use x="520.851562" xlink:href="#DejaVuSans-74"/>
     <use x="560.060547" xlink:href="#DejaVuSans-68"/>
     <use x="623.439453" xlink:href="#DejaVuSans-20"/>
     <use x="655.226562" xlink:href="#DejaVuSans-73"/>
     <use x="707.326172" xlink:href="#DejaVuSans-6f"/>
     <use x="768.507812" xlink:href="#DejaVuSans-75"/>
     <use x="831.886719" xlink:href="#DejaVuSans-72"/>
     <use x="872.96875" xlink:href="#DejaVuSans-63"/>
     <use x="927.949219" xlink:href="#DejaVuSans-65"/>
     <use x="989.472656" xlink:href="#DejaVuSans-20"/>
     <use x="1021.259766" xlink:href="#DejaVuSans-76"/>
     <use x="1080.439453" xlink:href="#DejaVuSans-6f"/>
     <use x="1141.621094" xlink:href="#DejaVuSans-6c"/>
     <use x="1169.404297" xlink:href="#DejaVuSans-74"/>
     <use x="1208.613281" xlink:href="#DejaVuSans-61"/>
     <use x="1269.892578" xlink:href="#DejaVuSans-67"/>
     <use x="1333.369141" xlink:href="#DejaVuSans-65"/>
     <use x="1394.892578" xlink:href="#DejaVuSans-20"/>
     <use x="1426.679688" xlink:href="#DejaVuSans-31"/>
     <use x="1490.302734" xlink:href="#DejaVuSans-30"/>
     <use x="1553.925781" xlink:href="#DejaVuSans-30"/>
     <use x="1617.548828" xlink:href="#DejaVuSans-2e"/>
     <use x="1649.335938" xlink:href="#DejaVuSans-30"/>
     <use x="1712.958984" xlink:href="#DejaVuSans-20"/>
     <use x="1744.746094" xlink:href="#DejaVuSans-6d"/>
     <use x="1842.158203" xlink:href="#DejaVuSans-56"/>
    </g>
   </g>
  </g>
 </g>
 <defs>
  <clipPath id="p17f40ef109">
   <rect height="266.112" width="357.12" x="57.6" y="41.472"/>
  </clipPath>
 </defs>
</svg>
