<?xml version="1.0" encoding="utf-8" standalone="no"?>
<!DOCTYPE svg PUBLIC "-//W3C//DTD SVG 1.1//EN"
  "http://www.w3.org/Graphics/SVG/1.1/DTD/svg11.dtd">
<!-- Created with matplotlib (http://matplotlib.org/) -->
<svg height="345pt" version="1.1" viewBox="0 0 460 345" width="460pt" xmlns="http://www.w3.org/2000/svg" xmlns:xlink="http://www.w3.org/1999/xlink">
 <defs>
  <style type="text/css">
*{stroke-linecap:butt;stroke-linejoin:round;}
  </style>
 </defs>
 <g id="figure_1">
  <g id="patch_1">
   <path d="M 0 345.6 
L 460.8 345.6 
L 460.8 0 
L 0 0 
z
" style="fill:#ffffff;"/>
  </g>
  <g id="axes_1">
   <g id="patch_2">
    <path d="M 57.6 307.584 
L 414.72 307.584 
L 414.72 41.472 
L 57.6 41.472 
z
" style="fill:#ffffff;"/>
   </g>
   <g id="matplotlib.axis_1">
    <g id="xtick_1">
     <g id="line2d_1">
      <defs>
       <path d="M 0 0 
L 0 3.5 
" id="m551929c1a3" style="stroke:#000000;stroke-width:0.8;"/>
      </defs>
      <g>
       <use style="stroke:#000000;stroke-width:0.8;" x="73.832727" xlink:href="#m551929c1a3" y="307.584"/>
      </g>
     </g>
     <g id="text_1">
      <!-- 0 -->
      <defs>
       <path d="M 31.78125 66.40625 
Q 24.171875 66.40625 20.328125 58.90625 
Q 16.5 51.421875 16.5 36.375 
Q 16.5 21.390625 20.328125 13.890625 
Q 24.171875 6.390625 31.78125 6.390625 
Q 39.453125 6.390625 43.28125 13.890625 
Q 47.125 21.390625 47.125 36.375 
Q 47.125 51.421875 43.28125 58.90625 
Q 39.453125 66.40625 31.78125 66.40625 
z
M 31.78125 74.21875 
Q 44.046875 74.21875 50.515625 64.515625 
Q 56.984375 54.828125 56.984375 36.375 
Q 56.984375 17.96875 50.515625 8.265625 
Q 44.046875 -1.421875 31.78125 -1.421875 
Q 19.53125 -1.421875 13.0625 8.265625 
Q 6.59375 17.96875 6.59375 36.375 
Q 6.59375 54.828125 13.0625 64.515625 
Q 19.53125 74.21875 31.78125 74.21875 
z
" id="DejaVuSans-30"/>
      </defs>
      <g transform="translate(70.651477 322.182437)scale(0.1 -0.1)">
       <use xlink:href="#DejaVuSans-30"/>
      </g>
     </g>
    </g>
    <g id="xtick_2">
     <g id="line2d_2">
      <g>
       <use style="stroke:#000000;stroke-width:0.8;" x="128.031608" xlink:href="#m551929c1a3" y="307.584"/>
      </g>
     </g>
     <g id="text_2">
      <!-- 100 -->
      <defs>
       <path d="M 12.40625 8.296875 
L 28.515625 8.296875 
L 28.515625 63.921875 
L 10.984375 60.40625 
L 10.984375 69.390625 
L 28.421875 72.90625 
L 38.28125 72.90625 
L 38.28125 8.296875 
L 54.390625 8.296875 
L 54.390625 0 
L 12.40625 0 
z
" id="DejaVuSans-31"/>
      </defs>
      <g transform="translate(118.487858 322.182437)scale(0.1 -0.1)">
       <use xlink:href="#DejaVuSans-31"/>
       <use x="63.623047" xlink:href="#DejaVuSans-30"/>
       <use x="127.246094" xlink:href="#DejaVuSans-30"/>
      </g>
     </g>
    </g>
    <g id="xtick_3">
     <g id="line2d_3">
      <g>
       <use style="stroke:#000000;stroke-width:0.8;" x="182.230488" xlink:href="#m551929c1a3" y="307.584"/>
      </g>
     </g>
     <g id="text_3">
      <!-- 200 -->
      <defs>
       <path d="M 19.1875 8.296875 
L 53.609375 8.296875 
L 53.609375 0 
L 7.328125 0 
L 7.328125 8.296875 
Q 12.9375 14.109375 22.625 23.890625 
Q 32.328125 33.6875 34.8125 36.53125 
Q 39.546875 41.84375 41.421875 45.53125 
Q 43.3125 49.21875 43.3125 52.78125 
Q 43.3125 58.59375 39.234375 62.25 
Q 35.15625 65.921875 28.609375 65.921875 
Q 23.96875 65.921875 18.8125 64.3125 
Q 13.671875 62.703125 7.8125 59.421875 
L 7.8125 69.390625 
Q 13.765625 71.78125 18.9375 73 
Q 24.125 74.21875 28.421875 74.21875 
Q 39.75 74.21875 46.484375 68.546875 
Q 53.21875 62.890625 53.21875 53.421875 
Q 53.21875 48.921875 51.53125 44.890625 
Q 49.859375 40.875 45.40625 35.40625 
Q 44.1875 33.984375 37.640625 27.21875 
Q 31.109375 20.453125 19.1875 8.296875 
z
" id="DejaVuSans-32"/>
      </defs>
      <g transform="translate(172.686738 322.182437)scale(0.1 -0.1)">
       <use xlink:href="#DejaVuSans-32"/>
       <use x="63.623047" xlink:href="#DejaVuSans-30"/>
       <use x="127.246094" xlink:href="#DejaVuSans-30"/>
      </g>
     </g>
    </g>
    <g id="xtick_4">
     <g id="line2d_4">
      <g>
       <use style="stroke:#000000;stroke-width:0.8;" x="236.429368" xlink:href="#m551929c1a3" y="307.584"/>
      </g>
     </g>
     <g id="text_4">
      <!-- 300 -->
      <defs>
       <path d="M 40.578125 39.3125 
Q 47.65625 37.796875 51.625 33 
Q 55.609375 28.21875 55.609375 21.1875 
Q 55.609375 10.40625 48.1875 4.484375 
Q 40.765625 -1.421875 27.09375 -1.421875 
Q 22.515625 -1.421875 17.65625 -0.515625 
Q 12.796875 0.390625 7.625 2.203125 
L 7.625 11.71875 
Q 11.71875 9.328125 16.59375 8.109375 
Q 21.484375 6.890625 26.8125 6.890625 
Q 36.078125 6.890625 40.9375 10.546875 
Q 45.796875 14.203125 45.796875 21.1875 
Q 45.796875 27.640625 41.28125 31.265625 
Q 36.765625 34.90625 28.71875 34.90625 
L 20.21875 34.90625 
L 20.21875 43.015625 
L 29.109375 43.015625 
Q 36.375 43.015625 40.234375 45.921875 
Q 44.09375 48.828125 44.09375 54.296875 
Q 44.09375 59.90625 40.109375 62.90625 
Q 36.140625 65.921875 28.71875 65.921875 
Q 24.65625 65.921875 20.015625 65.03125 
Q 15.375 64.15625 9.8125 62.3125 
L 9.8125 71.09375 
Q 15.4375 72.65625 20.34375 73.4375 
Q 25.25 74.21875 29.59375 74.21875 
Q 40.828125 74.21875 47.359375 69.109375 
Q 53.90625 64.015625 53.90625 55.328125 
Q 53.90625 49.265625 50.4375 45.09375 
Q 46.96875 40.921875 40.578125 39.3125 
z
" id="DejaVuSans-33"/>
      </defs>
      <g transform="translate(226.885618 322.182437)scale(0.1 -0.1)">
       <use xlink:href="#DejaVuSans-33"/>
       <use x="63.623047" xlink:href="#DejaVuSans-30"/>
       <use x="127.246094" xlink:href="#DejaVuSans-30"/>
      </g>
     </g>
    </g>
    <g id="xtick_5">
     <g id="line2d_5">
      <g>
       <use style="stroke:#000000;stroke-width:0.8;" x="290.628249" xlink:href="#m551929c1a3" y="307.584"/>
      </g>
     </g>
     <g id="text_5">
      <!-- 400 -->
      <defs>
       <path d="M 37.796875 64.3125 
L 12.890625 25.390625 
L 37.796875 25.390625 
z
M 35.203125 72.90625 
L 47.609375 72.90625 
L 47.609375 25.390625 
L 58.015625 25.390625 
L 58.015625 17.1875 
L 47.609375 17.1875 
L 47.609375 0 
L 37.796875 0 
L 37.796875 17.1875 
L 4.890625 17.1875 
L 4.890625 26.703125 
z
" id="DejaVuSans-34"/>
      </defs>
      <g transform="translate(281.084499 322.182437)scale(0.1 -0.1)">
       <use xlink:href="#DejaVuSans-34"/>
       <use x="63.623047" xlink:href="#DejaVuSans-30"/>
       <use x="127.246094" xlink:href="#DejaVuSans-30"/>
      </g>
     </g>
    </g>
    <g id="xtick_6">
     <g id="line2d_6">
      <g>
       <use style="stroke:#000000;stroke-width:0.8;" x="344.827129" xlink:href="#m551929c1a3" y="307.584"/>
      </g>
     </g>
     <g id="text_6">
      <!-- 500 -->
      <defs>
       <path d="M 10.796875 72.90625 
L 49.515625 72.90625 
L 49.515625 64.59375 
L 19.828125 64.59375 
L 19.828125 46.734375 
Q 21.96875 47.46875 24.109375 47.828125 
Q 26.265625 48.1875 28.421875 48.1875 
Q 40.625 48.1875 47.75 41.5 
Q 54.890625 34.8125 54.890625 23.390625 
Q 54.890625 11.625 47.5625 5.09375 
Q 40.234375 -1.421875 26.90625 -1.421875 
Q 22.3125 -1.421875 17.546875 -0.640625 
Q 12.796875 0.140625 7.71875 1.703125 
L 7.71875 11.625 
Q 12.109375 9.234375 16.796875 8.0625 
Q 21.484375 6.890625 26.703125 6.890625 
Q 35.15625 6.890625 40.078125 11.328125 
Q 45.015625 15.765625 45.015625 23.390625 
Q 45.015625 31 40.078125 35.4375 
Q 35.15625 39.890625 26.703125 39.890625 
Q 22.75 39.890625 18.8125 39.015625 
Q 14.890625 38.140625 10.796875 36.28125 
z
" id="DejaVuSans-35"/>
      </defs>
      <g transform="translate(335.283379 322.182437)scale(0.1 -0.1)">
       <use xlink:href="#DejaVuSans-35"/>
       <use x="63.623047" xlink:href="#DejaVuSans-30"/>
       <use x="127.246094" xlink:href="#DejaVuSans-30"/>
      </g>
     </g>
    </g>
    <g id="xtick_7">
     <g id="line2d_7">
      <g>
       <use style="stroke:#000000;stroke-width:0.8;" x="399.02601" xlink:href="#m551929c1a3" y="307.584"/>
      </g>
     </g>
     <g id="text_7">
      <!-- 600 -->
      <defs>
       <path d="M 33.015625 40.375 
Q 26.375 40.375 22.484375 35.828125 
Q 18.609375 31.296875 18.609375 23.390625 
Q 18.609375 15.53125 22.484375 10.953125 
Q 26.375 6.390625 33.015625 6.390625 
Q 39.65625 6.390625 43.53125 10.953125 
Q 47.40625 15.53125 47.40625 23.390625 
Q 47.40625 31.296875 43.53125 35.828125 
Q 39.65625 40.375 33.015625 40.375 
z
M 52.59375 71.296875 
L 52.59375 62.3125 
Q 48.875 64.0625 45.09375 64.984375 
Q 41.3125 65.921875 37.59375 65.921875 
Q 27.828125 65.921875 22.671875 59.328125 
Q 17.53125 52.734375 16.796875 39.40625 
Q 19.671875 43.65625 24.015625 45.921875 
Q 28.375 48.1875 33.59375 48.1875 
Q 44.578125 48.1875 50.953125 41.515625 
Q 57.328125 34.859375 57.328125 23.390625 
Q 57.328125 12.15625 50.6875 5.359375 
Q 44.046875 -1.421875 33.015625 -1.421875 
Q 20.359375 -1.421875 13.671875 8.265625 
Q 6.984375 17.96875 6.984375 36.375 
Q 6.984375 53.65625 15.1875 63.9375 
Q 23.390625 74.21875 37.203125 74.21875 
Q 40.921875 74.21875 44.703125 73.484375 
Q 48.484375 72.75 52.59375 71.296875 
z
" id="DejaVuSans-36"/>
      </defs>
      <g transform="translate(389.48226 322.182437)scale(0.1 -0.1)">
       <use xlink:href="#DejaVuSans-36"/>
       <use x="63.623047" xlink:href="#DejaVuSans-30"/>
       <use x="127.246094" xlink:href="#DejaVuSans-30"/>
      </g>
     </g>
    </g>
    <g id="text_8">
     <!-- t(s) -->
     <defs>
      <path d="M 18.3125 70.21875 
L 18.3125 54.6875 
L 36.8125 54.6875 
L 36.8125 47.703125 
L 18.3125 47.703125 
L 18.3125 18.015625 
Q 18.3125 11.328125 20.140625 9.421875 
Q 21.96875 7.515625 27.59375 7.515625 
L 36.8125 7.515625 
L 36.8125 0 
L 27.59375 0 
Q 17.1875 0 13.234375 3.875 
Q 9.28125 7.765625 9.28125 18.015625 
L 9.28125 47.703125 
L 2.6875 47.703125 
L 2.6875 54.6875 
L 9.28125 54.6875 
L 9.28125 70.21875 
z
" id="DejaVuSans-74"/>
      <path d="M 31 75.875 
Q 24.46875 64.65625 21.28125 53.65625 
Q 18.109375 42.671875 18.109375 31.390625 
Q 18.109375 20.125 21.3125 9.0625 
Q 24.515625 -2 31 -13.1875 
L 23.1875 -13.1875 
Q 15.875 -1.703125 12.234375 9.375 
Q 8.59375 20.453125 8.59375 31.390625 
Q 8.59375 42.28125 12.203125 53.3125 
Q 15.828125 64.359375 23.1875 75.875 
z
" id="DejaVuSans-28"/>
      <path d="M 44.28125 53.078125 
L 44.28125 44.578125 
Q 40.484375 46.53125 36.375 47.5 
Q 32.28125 48.484375 27.875 48.484375 
Q 21.1875 48.484375 17.84375 46.4375 
Q 14.5 44.390625 14.5 40.28125 
Q 14.5 37.15625 16.890625 35.375 
Q 19.28125 33.59375 26.515625 31.984375 
L 29.59375 31.296875 
Q 39.15625 29.25 43.1875 25.515625 
Q 47.21875 21.78125 47.21875 15.09375 
Q 47.21875 7.46875 41.1875 3.015625 
Q 35.15625 -1.421875 24.609375 -1.421875 
Q 20.21875 -1.421875 15.453125 -0.5625 
Q 10.6875 0.296875 5.421875 2 
L 5.421875 11.28125 
Q 10.40625 8.6875 15.234375 7.390625 
Q 20.0625 6.109375 24.8125 6.109375 
Q 31.15625 6.109375 34.5625 8.28125 
Q 37.984375 10.453125 37.984375 14.40625 
Q 37.984375 18.0625 35.515625 20.015625 
Q 33.0625 21.96875 24.703125 23.78125 
L 21.578125 24.515625 
Q 13.234375 26.265625 9.515625 29.90625 
Q 5.8125 33.546875 5.8125 39.890625 
Q 5.8125 47.609375 11.28125 51.796875 
Q 16.75 56 26.8125 56 
Q 31.78125 56 36.171875 55.265625 
Q 40.578125 54.546875 44.28125 53.078125 
z
" id="DejaVuSans-73"/>
      <path d="M 8.015625 75.875 
L 15.828125 75.875 
Q 23.140625 64.359375 26.78125 53.3125 
Q 30.421875 42.28125 30.421875 31.390625 
Q 30.421875 20.453125 26.78125 9.375 
Q 23.140625 -1.703125 15.828125 -13.1875 
L 8.015625 -13.1875 
Q 14.5 -2 17.703125 9.0625 
Q 20.90625 20.125 20.90625 31.390625 
Q 20.90625 42.671875 17.703125 53.65625 
Q 14.5 64.65625 8.015625 75.875 
z
" id="DejaVuSans-29"/>
     </defs>
     <g transform="translate(227.693594 335.860562)scale(0.1 -0.1)">
      <use xlink:href="#DejaVuSans-74"/>
      <use x="39.208984" xlink:href="#DejaVuSans-28"/>
      <use x="78.222656" xlink:href="#DejaVuSans-73"/>
      <use x="130.322266" xlink:href="#DejaVuSans-29"/>
     </g>
    </g>
   </g>
   <g id="matplotlib.axis_2">
    <g id="ytick_1">
     <g id="line2d_8">
      <defs>
       <path d="M 0 0 
L -3.5 0 
" id="m7dbe7c8d5d" style="stroke:#000000;stroke-width:0.8;"/>
      </defs>
      <g>
       <use style="stroke:#000000;stroke-width:0.8;" x="57.6" xlink:href="#m7dbe7c8d5d" y="276.497934"/>
      </g>
     </g>
     <g id="text_9">
      <!-- 3.90 -->
      <defs>
       <path d="M 10.6875 12.40625 
L 21 12.40625 
L 21 0 
L 10.6875 0 
z
" id="DejaVuSans-2e"/>
       <path d="M 10.984375 1.515625 
L 10.984375 10.5 
Q 14.703125 8.734375 18.5 7.8125 
Q 22.3125 6.890625 25.984375 6.890625 
Q 35.75 6.890625 40.890625 13.453125 
Q 46.046875 20.015625 46.78125 33.40625 
Q 43.953125 29.203125 39.59375 26.953125 
Q 35.25 24.703125 29.984375 24.703125 
Q 19.046875 24.703125 12.671875 31.3125 
Q 6.296875 37.9375 6.296875 49.421875 
Q 6.296875 60.640625 12.9375 67.421875 
Q 19.578125 74.21875 30.609375 74.21875 
Q 43.265625 74.21875 49.921875 64.515625 
Q 56.59375 54.828125 56.59375 36.375 
Q 56.59375 19.140625 48.40625 8.859375 
Q 40.234375 -1.421875 26.421875 -1.421875 
Q 22.703125 -1.421875 18.890625 -0.6875 
Q 15.09375 0.046875 10.984375 1.515625 
z
M 30.609375 32.421875 
Q 37.25 32.421875 41.125 36.953125 
Q 45.015625 41.5 45.015625 49.421875 
Q 45.015625 57.28125 41.125 61.84375 
Q 37.25 66.40625 30.609375 66.40625 
Q 23.96875 66.40625 20.09375 61.84375 
Q 16.21875 57.28125 16.21875 49.421875 
Q 16.21875 41.5 20.09375 36.953125 
Q 23.96875 32.421875 30.609375 32.421875 
z
" id="DejaVuSans-39"/>
      </defs>
      <g transform="translate(28.334375 280.297152)scale(0.1 -0.1)">
       <use xlink:href="#DejaVuSans-33"/>
       <use x="63.623047" xlink:href="#DejaVuSans-2e"/>
       <use x="95.410156" xlink:href="#DejaVuSans-39"/>
       <use x="159.033203" xlink:href="#DejaVuSans-30"/>
      </g>
     </g>
    </g>
    <g id="ytick_2">
     <g id="line2d_9">
      <g>
       <use style="stroke:#000000;stroke-width:0.8;" x="57.6" xlink:href="#m7dbe7c8d5d" y="233.948265"/>
      </g>
     </g>
     <g id="text_10">
      <!-- 3.92 -->
      <g transform="translate(28.334375 237.747483)scale(0.1 -0.1)">
       <use xlink:href="#DejaVuSans-33"/>
       <use x="63.623047" xlink:href="#DejaVuSans-2e"/>
       <use x="95.410156" xlink:href="#DejaVuSans-39"/>
       <use x="159.033203" xlink:href="#DejaVuSans-32"/>
      </g>
     </g>
    </g>
    <g id="ytick_3">
     <g id="line2d_10">
      <g>
       <use style="stroke:#000000;stroke-width:0.8;" x="57.6" xlink:href="#m7dbe7c8d5d" y="191.398596"/>
      </g>
     </g>
     <g id="text_11">
      <!-- 3.94 -->
      <g transform="translate(28.334375 195.197815)scale(0.1 -0.1)">
       <use xlink:href="#DejaVuSans-33"/>
       <use x="63.623047" xlink:href="#DejaVuSans-2e"/>
       <use x="95.410156" xlink:href="#DejaVuSans-39"/>
       <use x="159.033203" xlink:href="#DejaVuSans-34"/>
      </g>
     </g>
    </g>
    <g id="ytick_4">
     <g id="line2d_11">
      <g>
       <use style="stroke:#000000;stroke-width:0.8;" x="57.6" xlink:href="#m7dbe7c8d5d" y="148.848927"/>
      </g>
     </g>
     <g id="text_12">
      <!-- 3.96 -->
      <g transform="translate(28.334375 152.648146)scale(0.1 -0.1)">
       <use xlink:href="#DejaVuSans-33"/>
       <use x="63.623047" xlink:href="#DejaVuSans-2e"/>
       <use x="95.410156" xlink:href="#DejaVuSans-39"/>
       <use x="159.033203" xlink:href="#DejaVuSans-36"/>
      </g>
     </g>
    </g>
    <g id="ytick_5">
     <g id="line2d_12">
      <g>
       <use style="stroke:#000000;stroke-width:0.8;" x="57.6" xlink:href="#m7dbe7c8d5d" y="106.299258"/>
      </g>
     </g>
     <g id="text_13">
      <!-- 3.98 -->
      <defs>
       <path d="M 31.78125 34.625 
Q 24.75 34.625 20.71875 30.859375 
Q 16.703125 27.09375 16.703125 20.515625 
Q 16.703125 13.921875 20.71875 10.15625 
Q 24.75 6.390625 31.78125 6.390625 
Q 38.8125 6.390625 42.859375 10.171875 
Q 46.921875 13.96875 46.921875 20.515625 
Q 46.921875 27.09375 42.890625 30.859375 
Q 38.875 34.625 31.78125 34.625 
z
M 21.921875 38.8125 
Q 15.578125 40.375 12.03125 44.71875 
Q 8.5 49.078125 8.5 55.328125 
Q 8.5 64.0625 14.71875 69.140625 
Q 20.953125 74.21875 31.78125 74.21875 
Q 42.671875 74.21875 48.875 69.140625 
Q 55.078125 64.0625 55.078125 55.328125 
Q 55.078125 49.078125 51.53125 44.71875 
Q 48 40.375 41.703125 38.8125 
Q 48.828125 37.15625 52.796875 32.3125 
Q 56.78125 27.484375 56.78125 20.515625 
Q 56.78125 9.90625 50.3125 4.234375 
Q 43.84375 -1.421875 31.78125 -1.421875 
Q 19.734375 -1.421875 13.25 4.234375 
Q 6.78125 9.90625 6.78125 20.515625 
Q 6.78125 27.484375 10.78125 32.3125 
Q 14.796875 37.15625 21.921875 38.8125 
z
M 18.3125 54.390625 
Q 18.3125 48.734375 21.84375 45.5625 
Q 25.390625 42.390625 31.78125 42.390625 
Q 38.140625 42.390625 41.71875 45.5625 
Q 45.3125 48.734375 45.3125 54.390625 
Q 45.3125 60.0625 41.71875 63.234375 
Q 38.140625 66.40625 31.78125 66.40625 
Q 25.390625 66.40625 21.84375 63.234375 
Q 18.3125 60.0625 18.3125 54.390625 
z
" id="DejaVuSans-38"/>
      </defs>
      <g transform="translate(28.334375 110.098477)scale(0.1 -0.1)">
       <use xlink:href="#DejaVuSans-33"/>
       <use x="63.623047" xlink:href="#DejaVuSans-2e"/>
       <use x="95.410156" xlink:href="#DejaVuSans-39"/>
       <use x="159.033203" xlink:href="#DejaVuSans-38"/>
      </g>
     </g>
    </g>
    <g id="ytick_6">
     <g id="line2d_13">
      <g>
       <use style="stroke:#000000;stroke-width:0.8;" x="57.6" xlink:href="#m7dbe7c8d5d" y="63.749589"/>
      </g>
     </g>
     <g id="text_14">
      <!-- 4.00 -->
      <g transform="translate(28.334375 67.548808)scale(0.1 -0.1)">
       <use xlink:href="#DejaVuSans-34"/>
       <use x="63.623047" xlink:href="#DejaVuSans-2e"/>
       <use x="95.410156" xlink:href="#DejaVuSans-30"/>
       <use x="159.033203" xlink:href="#DejaVuSans-30"/>
      </g>
     </g>
    </g>
    <g id="text_15">
     <!-- Resistance (Ohm) -->
     <defs>
      <path d="M 44.390625 34.1875 
Q 47.5625 33.109375 50.5625 29.59375 
Q 53.5625 26.078125 56.59375 19.921875 
L 66.609375 0 
L 56 0 
L 46.6875 18.703125 
Q 43.0625 26.03125 39.671875 28.421875 
Q 36.28125 30.8125 30.421875 30.8125 
L 19.671875 30.8125 
L 19.671875 0 
L 9.8125 0 
L 9.8125 72.90625 
L 32.078125 72.90625 
Q 44.578125 72.90625 50.734375 67.671875 
Q 56.890625 62.453125 56.890625 51.90625 
Q 56.890625 45.015625 53.6875 40.46875 
Q 50.484375 35.9375 44.390625 34.1875 
z
M 19.671875 64.796875 
L 19.671875 38.921875 
L 32.078125 38.921875 
Q 39.203125 38.921875 42.84375 42.21875 
Q 46.484375 45.515625 46.484375 51.90625 
Q 46.484375 58.296875 42.84375 61.546875 
Q 39.203125 64.796875 32.078125 64.796875 
z
" id="DejaVuSans-52"/>
      <path d="M 56.203125 29.59375 
L 56.203125 25.203125 
L 14.890625 25.203125 
Q 15.484375 15.921875 20.484375 11.0625 
Q 25.484375 6.203125 34.421875 6.203125 
Q 39.59375 6.203125 44.453125 7.46875 
Q 49.3125 8.734375 54.109375 11.28125 
L 54.109375 2.78125 
Q 49.265625 0.734375 44.1875 -0.34375 
Q 39.109375 -1.421875 33.890625 -1.421875 
Q 20.796875 -1.421875 13.15625 6.1875 
Q 5.515625 13.8125 5.515625 26.8125 
Q 5.515625 40.234375 12.765625 48.109375 
Q 20.015625 56 32.328125 56 
Q 43.359375 56 49.78125 48.890625 
Q 56.203125 41.796875 56.203125 29.59375 
z
M 47.21875 32.234375 
Q 47.125 39.59375 43.09375 43.984375 
Q 39.0625 48.390625 32.421875 48.390625 
Q 24.90625 48.390625 20.390625 44.140625 
Q 15.875 39.890625 15.1875 32.171875 
z
" id="DejaVuSans-65"/>
      <path d="M 9.421875 54.6875 
L 18.40625 54.6875 
L 18.40625 0 
L 9.421875 0 
z
M 9.421875 75.984375 
L 18.40625 75.984375 
L 18.40625 64.59375 
L 9.421875 64.59375 
z
" id="DejaVuSans-69"/>
      <path d="M 34.28125 27.484375 
Q 23.390625 27.484375 19.1875 25 
Q 14.984375 22.515625 14.984375 16.5 
Q 14.984375 11.71875 18.140625 8.90625 
Q 21.296875 6.109375 26.703125 6.109375 
Q 34.1875 6.109375 38.703125 11.40625 
Q 43.21875 16.703125 43.21875 25.484375 
L 43.21875 27.484375 
z
M 52.203125 31.203125 
L 52.203125 0 
L 43.21875 0 
L 43.21875 8.296875 
Q 40.140625 3.328125 35.546875 0.953125 
Q 30.953125 -1.421875 24.3125 -1.421875 
Q 15.921875 -1.421875 10.953125 3.296875 
Q 6 8.015625 6 15.921875 
Q 6 25.140625 12.171875 29.828125 
Q 18.359375 34.515625 30.609375 34.515625 
L 43.21875 34.515625 
L 43.21875 35.40625 
Q 43.21875 41.609375 39.140625 45 
Q 35.0625 48.390625 27.6875 48.390625 
Q 23 48.390625 18.546875 47.265625 
Q 14.109375 46.140625 10.015625 43.890625 
L 10.015625 52.203125 
Q 14.9375 54.109375 19.578125 55.046875 
Q 24.21875 56 28.609375 56 
Q 40.484375 56 46.34375 49.84375 
Q 52.203125 43.703125 52.203125 31.203125 
z
" id="DejaVuSans-61"/>
      <path d="M 54.890625 33.015625 
L 54.890625 0 
L 45.90625 0 
L 45.90625 32.71875 
Q 45.90625 40.484375 42.875 44.328125 
Q 39.84375 48.1875 33.796875 48.1875 
Q 26.515625 48.1875 22.3125 43.546875 
Q 18.109375 38.921875 18.109375 30.90625 
L 18.109375 0 
L 9.078125 0 
L 9.078125 54.6875 
L 18.109375 54.6875 
L 18.109375 46.1875 
Q 21.34375 51.125 25.703125 53.5625 
Q 30.078125 56 35.796875 56 
Q 45.21875 56 50.046875 50.171875 
Q 54.890625 44.34375 54.890625 33.015625 
z
" id="DejaVuSans-6e"/>
      <path d="M 48.78125 52.59375 
L 48.78125 44.1875 
Q 44.96875 46.296875 41.140625 47.34375 
Q 37.3125 48.390625 33.40625 48.390625 
Q 24.65625 48.390625 19.8125 42.84375 
Q 14.984375 37.3125 14.984375 27.296875 
Q 14.984375 17.28125 19.8125 11.734375 
Q 24.65625 6.203125 33.40625 6.203125 
Q 37.3125 6.203125 41.140625 7.25 
Q 44.96875 8.296875 48.78125 10.40625 
L 48.78125 2.09375 
Q 45.015625 0.34375 40.984375 -0.53125 
Q 36.96875 -1.421875 32.421875 -1.421875 
Q 20.0625 -1.421875 12.78125 6.34375 
Q 5.515625 14.109375 5.515625 27.296875 
Q 5.515625 40.671875 12.859375 48.328125 
Q 20.21875 56 33.015625 56 
Q 37.15625 56 41.109375 55.140625 
Q 45.0625 54.296875 48.78125 52.59375 
z
" id="DejaVuSans-63"/>
      <path id="DejaVuSans-20"/>
      <path d="M 39.40625 66.21875 
Q 28.65625 66.21875 22.328125 58.203125 
Q 16.015625 50.203125 16.015625 36.375 
Q 16.015625 22.609375 22.328125 14.59375 
Q 28.65625 6.59375 39.40625 6.59375 
Q 50.140625 6.59375 56.421875 14.59375 
Q 62.703125 22.609375 62.703125 36.375 
Q 62.703125 50.203125 56.421875 58.203125 
Q 50.140625 66.21875 39.40625 66.21875 
z
M 39.40625 74.21875 
Q 54.734375 74.21875 63.90625 63.9375 
Q 73.09375 53.65625 73.09375 36.375 
Q 73.09375 19.140625 63.90625 8.859375 
Q 54.734375 -1.421875 39.40625 -1.421875 
Q 24.03125 -1.421875 14.8125 8.828125 
Q 5.609375 19.09375 5.609375 36.375 
Q 5.609375 53.65625 14.8125 63.9375 
Q 24.03125 74.21875 39.40625 74.21875 
z
" id="DejaVuSans-4f"/>
      <path d="M 54.890625 33.015625 
L 54.890625 0 
L 45.90625 0 
L 45.90625 32.71875 
Q 45.90625 40.484375 42.875 44.328125 
Q 39.84375 48.1875 33.796875 48.1875 
Q 26.515625 48.1875 22.3125 43.546875 
Q 18.109375 38.921875 18.109375 30.90625 
L 18.109375 0 
L 9.078125 0 
L 9.078125 75.984375 
L 18.109375 75.984375 
L 18.109375 46.1875 
Q 21.34375 51.125 25.703125 53.5625 
Q 30.078125 56 35.796875 56 
Q 45.21875 56 50.046875 50.171875 
Q 54.890625 44.34375 54.890625 33.015625 
z
" id="DejaVuSans-68"/>
      <path d="M 52 44.1875 
Q 55.375 50.25 60.0625 53.125 
Q 64.75 56 71.09375 56 
Q 79.640625 56 84.28125 50.015625 
Q 88.921875 44.046875 88.921875 33.015625 
L 88.921875 0 
L 79.890625 0 
L 79.890625 32.71875 
Q 79.890625 40.578125 77.09375 44.375 
Q 74.3125 48.1875 68.609375 48.1875 
Q 61.625 48.1875 57.5625 43.546875 
Q 53.515625 38.921875 53.515625 30.90625 
L 53.515625 0 
L 44.484375 0 
L 44.484375 32.71875 
Q 44.484375 40.625 41.703125 44.40625 
Q 38.921875 48.1875 33.109375 48.1875 
Q 26.21875 48.1875 22.15625 43.53125 
Q 18.109375 38.875 18.109375 30.90625 
L 18.109375 0 
L 9.078125 0 
L 9.078125 54.6875 
L 18.109375 54.6875 
L 18.109375 46.1875 
Q 21.1875 51.21875 25.484375 53.609375 
Q 29.78125 56 35.6875 56 
Q 41.65625 56 45.828125 52.96875 
Q 50 49.953125 52 44.1875 
z
" id="DejaVuSans-6d"/>
     </defs>
     <g transform="translate(22.254687 219.158469)rotate(-90)scale(0.1 -0.1)">
      <use xlink:href="#DejaVuSans-52"/>
      <use x="69.419922" xlink:href="#DejaVuSans-65"/>
      <use x="130.943359" xlink:href="#DejaVuSans-73"/>
      <use x="183.042969" xlink:href="#DejaVuSans-69"/>
      <use x="210.826172" xlink:href="#DejaVuSans-73"/>
      <use x="262.925781" xlink:href="#DejaVuSans-74"/>
      <use x="302.134766" xlink:href="#DejaVuSans-61"/>
      <use x="363.414062" xlink:href="#DejaVuSans-6e"/>
      <use x="426.792969" xlink:href="#DejaVuSans-63"/>
      <use x="481.773438" xlink:href="#DejaVuSans-65"/>
      <use x="543.296875" xlink:href="#DejaVuSans-20"/>
      <use x="575.083984" xlink:href="#DejaVuSans-28"/>
      <use x="614.097656" xlink:href="#DejaVuSans-4f"/>
      <use x="692.808594" xlink:href="#DejaVuSans-68"/>
      <use x="756.1875" xlink:href="#DejaVuSans-6d"/>
      <use x="853.599609" xlink:href="#DejaVuSans-29"/>
     </g>
    </g>
    <g id="text_16">
     <!-- 1e7 -->
     <defs>
      <path d="M 8.203125 72.90625 
L 55.078125 72.90625 
L 55.078125 68.703125 
L 28.609375 0 
L 18.3125 0 
L 43.21875 64.59375 
L 8.203125 64.59375 
z
" id="DejaVuSans-37"/>
     </defs>
     <g transform="translate(57.6 38.472)scale(0.1 -0.1)">
      <use xlink:href="#DejaVuSans-31"/>
      <use x="63.623047" xlink:href="#DejaVuSans-65"/>
      <use x="125.146484" xlink:href="#DejaVuSans-37"/>
     </g>
    </g>
   </g>
   <g id="line2d_14">
    <path clip-path="url(#p76eb90d232)" d="M 73.832727 295.488 
L 74.374716 270.669212 
L 74.917247 290.314483 
L 75.459236 273.426894 
L 76.001224 262.801724 
L 76.543213 268.192318 
L 77.085202 255.293807 
L 77.627191 256.187075 
L 78.16918 249.961617 
L 78.711168 260.378242 
L 79.253157 229.218669 
L 79.795146 239.662001 
L 80.337135 226.674689 
L 80.879124 219.16073 
L 81.421112 203.520012 
L 81.963101 198.60271 
L 82.50509 217.317142 
L 83.047079 214.665412 
L 83.589068 210.596878 
L 84.131056 194.498906 
L 84.673045 216.652276 
L 85.215034 210.950704 
L 85.757023 165.074341 
L 86.299012 184.297756 
L 86.841542 186.876425 
L 87.92552 194.745124 
L 88.467509 192.062413 
L 89.009498 199.650277 
L 89.551486 222.38177 
L 90.093475 220.111436 
L 90.635464 223.717907 
L 91.177453 229.469001 
L 91.719442 224.920047 
L 92.261431 244.614417 
L 92.803419 242.783761 
L 93.345408 252.758454 
L 93.887397 234.627071 
L 94.429386 254.835437 
L 94.971375 223.484109 
L 95.513363 246.319446 
L 96.055352 250.137448 
L 96.597341 224.273104 
L 97.13933 238.765837 
L 97.681319 233.906566 
L 98.223307 236.194391 
L 98.765296 246.612075 
L 99.307285 232.305002 
L 99.849274 235.239064 
L 100.391263 216.173548 
L 100.933251 231.819447 
L 101.47524 236.4044 
L 102.017229 220.481192 
L 102.559218 239.427199 
L 103.101207 221.145443 
L 103.643195 228.076237 
L 104.185184 228.908061 
L 104.727173 205.018306 
L 105.269162 228.866337 
L 105.811151 239.920353 
L 106.353139 222.03723 
L 106.895128 247.489823 
L 107.437117 227.640344 
L 107.979106 224.037265 
L 108.521095 201.644205 
L 109.063083 198.63621 
L 109.605072 218.176378 
L 110.147061 243.116987 
L 110.68905 217.133299 
L 111.231039 242.749117 
L 111.773027 220.153204 
L 112.315016 227.027204 
L 112.857005 191.469006 
L 113.398994 239.460536 
L 113.940983 214.548384 
L 114.482971 198.381887 
L 115.02496 211.953482 
L 115.566949 213.529507 
L 116.108938 197.747542 
L 116.650927 233.571291 
L 117.192915 202.065732 
L 117.734904 203.983214 
L 118.276893 204.32084 
L 118.818882 224.389994 
L 119.360871 185.181063 
L 119.90286 189.859323 
L 120.444848 249.226987 
L 120.986837 211.287777 
L 121.528826 250.195713 
L 122.070815 224.389994 
L 122.612804 242.649145 
L 123.154792 242.649145 
L 123.696781 252.165768 
L 124.780759 221.431593 
L 125.322748 233.823168 
L 125.864736 239.059026 
L 126.406725 224.271054 
L 126.948714 221.028507 
L 127.490703 203.824191 
L 128.032692 209.331855 
L 128.57468 206.878657 
L 129.116669 192.196517 
L 129.658658 186.26063 
L 130.200647 186.998699 
L 130.742636 188.07781 
L 131.284624 178.330285 
L 131.826613 183.305164 
L 132.368602 174.566867 
L 132.910591 186.445147 
L 133.45258 179.659077 
L 133.994568 199.834504 
L 134.536557 192.526705 
L 135.078546 188.027495 
L 135.620535 192.773058 
L 136.162524 184.255809 
L 136.704512 191.961834 
L 137.246501 191.314771 
L 137.78849 189.741949 
L 138.330479 196.123544 
L 138.872468 190.850357 
L 139.414456 195.033214 
L 139.956445 198.236427 
L 140.498434 191.469006 
L 141.040423 178.992823 
L 141.582412 184.255809 
L 142.1244 183.945398 
L 142.666389 196.970696 
L 143.208378 183.41424 
L 143.750367 181.327668 
L 144.292356 180.799787 
L 144.834345 176.274863 
L 145.376333 187.470521 
L 145.918322 189.495389 
L 146.460311 182.538906 
L 147.0023 180.275618 
L 147.544289 177.482928 
L 148.086277 188.327949 
L 148.628266 177.99058 
L 149.170255 176.597908 
L 149.712244 185.30689 
L 150.254233 177.524908 
L 150.796221 189.909626 
L 151.33821 185.318873 
L 151.880199 174.420053 
L 152.422188 178.476875 
L 152.964177 173.597186 
L 153.506165 179.495769 
L 154.048154 181.914209 
L 154.590143 180.707463 
L 155.132132 184.527898 
L 156.216109 169.606913 
L 156.758098 187.99744 
L 157.300087 180.325979 
L 157.842076 193.166959 
L 158.384065 168.900876 
L 158.926053 166.00399 
L 159.468042 176.375632 
L 160.010031 157.141037 
L 160.55202 161.31603 
L 161.094009 148.830392 
L 161.635997 159.252425 
L 162.177986 160.022737 
L 162.719975 170.522922 
L 163.261964 138.436312 
L 163.803953 151.599555 
L 164.345941 145.378133 
L 164.88793 124.943992 
L 165.429919 118.908759 
L 165.971908 125.581187 
L 166.513897 119.882825 
L 167.055885 124.213752 
L 167.597874 108.53916 
L 168.139863 120.184919 
L 168.681852 135.391404 
L 169.223841 137.950003 
L 169.765829 137.424396 
L 170.307818 124.943992 
L 170.849807 139.380512 
L 171.391796 142.706086 
L 172.475774 160.503097 
L 173.017762 164.939802 
L 173.559751 159.496441 
L 174.643729 177.927304 
L 175.185718 193.972894 
L 175.727706 203.341364 
L 176.269695 182.60135 
L 176.811684 199.141751 
L 177.353673 196.044978 
L 177.895662 180.149717 
L 178.43765 198.845583 
L 178.979639 187.445363 
L 179.521628 198.119169 
L 180.063617 177.482928 
L 180.605606 181.532833 
L 181.147594 188.190306 
L 181.689583 184.925798 
L 182.231572 195.463712 
L 182.773561 188.842899 
L 183.31555 184.23064 
L 183.857538 184.900632 
L 184.399527 190.825209 
L 184.941516 165.305771 
L 185.483505 157.655441 
L 186.025494 180.267225 
L 186.567482 175.943395 
L 187.109471 170.287627 
L 187.65146 147.630526 
L 188.193449 175.305576 
L 188.735438 176.555922 
L 189.277426 181.210174 
L 190.361404 141.043629 
L 190.903393 168.552019 
L 191.445382 169.358963 
L 191.98737 144.042321 
L 192.529359 160.94973 
L 193.071348 169.241302 
L 193.613337 124.935543 
L 194.155326 155.016448 
L 194.697314 156.306693 
L 195.239303 156.066242 
L 195.781292 154.991192 
L 196.323281 126.922848 
L 196.86527 129.965358 
L 197.407258 141.661471 
L 197.949247 127.979488 
L 198.491236 128.942985 
L 199.033225 120.890469 
L 199.575214 146.738803 
L 200.117203 135.323897 
L 200.659191 148.065339 
L 201.20118 139.105166 
L 201.743169 115.236515 
L 202.285158 117.412334 
L 202.827147 118.092962 
L 203.369135 156.538707 
L 203.911124 131.063472 
L 204.453113 125.547395 
L 204.995102 138.160895 
L 205.537091 146.045881 
L 206.079079 136.45998 
L 206.621068 153.291499 
L 207.163057 151.515335 
L 207.705046 165.890319 
L 208.247035 154.501673 
L 208.789023 159.18511 
L 209.331012 164.935803 
L 209.873001 163.47117 
L 210.41499 155.796877 
L 210.956979 160.684357 
L 211.498967 169.182471 
L 212.040956 182.789651 
L 212.582945 163.517688 
L 213.124934 186.562567 
L 213.666923 167.631372 
L 214.208911 176.564319 
L 214.7509 156.964287 
L 215.292889 161.059095 
L 215.834878 176.631496 
L 216.376867 155.699503 
L 216.918855 151.700619 
L 217.460844 143.289953 
L 218.002833 152.076112 
L 219.086811 142.680793 
L 219.628799 117.91755 
L 220.170788 148.031636 
L 220.712777 155.083798 
L 221.254766 167.379191 
L 221.796755 149.155573 
L 222.338743 158.489546 
L 222.880732 160.928335 
L 223.422721 145.027363 
L 223.96471 200.451788 
L 224.506699 165.58763 
L 225.048688 184.595011 
L 225.590676 175.653891 
L 226.132665 180.275618 
L 226.674654 178.544036 
L 227.216643 182.823214 
L 227.758632 194.06832 
L 228.30062 185.486636 
L 228.842609 174.600464 
L 229.384598 173.223506 
L 229.926587 171.505899 
L 230.468576 156.631294 
L 231.010564 162.903186 
L 231.552553 158.687759 
L 232.094542 177.839457 
L 232.636531 171.3169 
L 233.720508 164.418012 
L 234.262497 146.612398 
L 234.804486 147.05573 
L 235.346475 151.751151 
L 235.888464 149.290362 
L 236.430452 188.767435 
L 236.972441 151.899257 
L 237.51443 165.646486 
L 238.056419 159.669349 
L 238.598408 147.964231 
L 239.140396 152.434734 
L 239.682385 134.744465 
L 240.224374 138.610486 
L 240.766363 140.692505 
L 241.308352 131.674401 
L 241.85034 131.415382 
L 242.392871 142.223307 
L 242.935402 142.820987 
L 243.477933 154.350125 
L 244.019922 155.357989 
L 244.56191 134.370325 
L 245.103899 141.633088 
L 245.645888 142.130558 
L 246.187877 131.103013 
L 246.729866 139.773913 
L 247.271854 132.881828 
L 247.813843 128.69222 
L 248.355832 119.084111 
L 248.897821 102.151542 
L 249.43981 106.121438 
L 250.523787 115.118096 
L 251.065776 102.09224 
L 251.607765 101.147884 
L 252.149754 93.269938 
L 252.691742 91.62181 
L 253.233731 102.775335 
L 253.776262 92.306584 
L 254.318251 78.42101 
L 254.86024 104.393669 
L 255.402228 82.786218 
L 255.944217 95.686427 
L 256.486206 93.565564 
L 257.028195 111.965326 
L 257.570184 95.467261 
L 258.112172 99.764106 
L 258.654161 139.731743 
L 259.19615 109.223034 
L 259.738139 124.994684 
L 260.280128 129.235951 
L 260.822116 125.437569 
L 261.906094 160.798302 
L 262.448083 162.397934 
L 262.990072 176.455157 
L 263.532061 173.504786 
L 264.616038 203.924626 
L 265.158027 218.076112 
L 265.700016 199.320656 
L 266.242005 213.175893 
L 266.783993 214.548384 
L 267.325982 231.181919 
L 267.867971 214.556743 
L 268.40996 209.643966 
L 268.951949 180.099356 
L 269.493937 169.174067 
L 270.035926 168.959709 
L 270.577915 175.154405 
L 271.119904 155.982065 
L 271.661893 153.793156 
L 272.203881 149.302174 
L 272.74587 136.232367 
L 273.287859 128.495413 
L 274.371837 119.160201 
L 274.913825 101.392092 
L 275.455814 98.093093 
L 275.997803 93.31234 
L 276.539792 81.125467 
L 277.081781 53.568 
L 277.623769 70.679641 
L 278.165758 104.80703 
L 278.707747 83.193006 
L 279.249736 116.90919 
L 279.791725 94.655799 
L 280.333713 130.686206 
L 280.875702 119.950455 
L 281.417691 126.395677 
L 281.95968 144.109759 
L 282.501669 107.174703 
L 283.043657 104.469893 
L 283.585646 99.282503 
L 284.127635 88.805259 
L 284.669624 106.82082 
L 285.211613 104.908657 
L 285.753601 101.544594 
L 286.29559 109.102721 
L 286.837579 128.112065 
L 287.921557 102.160014 
L 288.463546 119.487711 
L 289.005534 108.346234 
L 289.547523 113.243656 
L 290.089512 101.661696 
L 291.715478 134.361886 
L 292.257467 133.222398 
L 292.799456 128.742891 
L 293.341445 141.830112 
L 293.883434 152.15683 
L 294.425422 141.79329 
L 294.967411 139.849819 
L 295.5094 148.247357 
L 296.051389 140.467855 
L 296.593378 144.118189 
L 297.135366 145.462417 
L 297.677355 141.745792 
L 298.219344 142.228628 
L 298.761333 144.384743 
L 299.303322 151.481646 
L 299.84531 151.067459 
L 300.387299 154.991192 
L 300.929288 163.719529 
L 301.471277 154.700138 
L 302.013266 161.282381 
L 302.555254 166.159689 
L 303.097243 123.768315 
L 303.639232 122.377296 
L 304.72321 108.134594 
L 305.265198 105.421945 
L 305.807187 107.80619 
L 306.349176 86.469791 
L 306.891165 83.768767 
L 307.433154 87.553303 
L 307.975142 75.044382 
L 308.517131 104.039564 
L 309.05912 78.378533 
L 309.601109 77.386214 
L 310.143098 83.845177 
L 310.685086 96.995226 
L 311.227075 79.760713 
L 311.769064 94.664278 
L 312.311053 97.029133 
L 312.853042 102.514279 
L 313.39503 105.093328 
L 313.937019 120.656052 
L 314.479008 94.08891 
L 315.020997 113.15059 
L 315.562986 120.134198 
L 316.104975 129.179437 
L 316.646963 124.205302 
L 317.188952 117.446158 
L 317.730941 124.213752 
L 318.27293 114.428529 
L 318.814919 114.866373 
L 319.356907 114.295191 
L 319.898896 99.966039 
L 320.440885 120.294814 
L 320.982874 131.54508 
L 321.524863 124.492583 
L 322.066851 143.966454 
L 322.60884 151.789776 
L 323.150829 154.864912 
L 323.692818 159.559967 
L 324.234807 166.311022 
L 324.776795 181.117857 
L 325.318784 163.302963 
L 325.860773 184.850299 
L 326.402762 187.436977 
L 326.944751 151.067459 
L 327.486739 139.630535 
L 328.028728 145.29385 
L 328.570717 156.997953 
L 329.112706 150.35839 
L 329.654695 135.683894 
L 330.196683 134.603817 
L 330.738672 143.014893 
L 331.280661 142.346667 
L 331.82265 119.210928 
L 332.364639 154.733814 
L 332.906627 161.690713 
L 333.448616 124.876402 
L 333.990605 123.593247 
L 334.532594 133.256159 
L 335.074583 133.908943 
L 336.15856 163.054578 
L 336.700549 157.314086 
L 337.242538 160.857191 
L 337.784527 159.568381 
L 338.326515 160.200217 
L 338.868504 151.527231 
L 339.410493 147.807472 
L 339.952482 147.613674 
L 340.494471 138.762317 
L 341.036459 140.782215 
L 341.578448 137.382214 
L 342.120437 129.354173 
L 342.662426 128.340091 
L 343.204415 126.344992 
L 343.746404 121.519838 
L 344.288392 121.437608 
L 344.830381 117.53072 
L 345.37237 132.318997 
L 346.456348 116.042295 
L 346.998336 120.46163 
L 347.540325 127.258196 
L 348.624303 120.991902 
L 349.166292 109.02654 
L 349.70828 125.984224 
L 350.250269 114.453906 
L 350.792258 128.69222 
L 351.334247 121.141772 
L 351.876236 101.873496 
L 352.418224 131.271861 
L 352.960213 130.77642 
L 353.502202 120.966544 
L 354.044191 122.106849 
L 354.58618 115.378257 
L 355.128168 114.286732 
L 355.670157 119.93578 
L 356.212146 113.419352 
L 357.296124 116.587831 
L 357.838112 113.772691 
L 358.380101 113.106325 
L 359.464079 121.957036 
L 360.006068 120.404709 
L 361.090045 111.483 
L 361.632034 111.806462 
L 362.174023 115.403632 
L 362.716012 120.322422 
L 363.258 112.024559 
L 363.799989 111.965326 
L 364.341978 115.570735 
L 364.883967 123.889001 
L 365.425956 112.50953 
L 365.967944 110.945194 
L 366.509933 112.486085 
L 367.051922 111.694546 
L 367.593911 111.249846 
L 368.1359 116.725246 
L 368.677889 112.031101 
L 369.219877 118.196592 
L 369.761866 117.0445 
L 370.303855 113.226735 
L 370.845844 119.629211 
L 371.387833 128.537637 
L 371.929821 124.490171 
L 372.47181 105.027222 
L 373.013799 112.839503 
L 373.555788 111.924933 
L 374.097777 117.71461 
L 374.639765 114.32903 
L 375.181754 120.144892 
L 375.723743 124.213752 
L 376.265732 105.650588 
L 376.807721 107.278034 
L 377.349709 113.267069 
L 377.891698 109.212761 
L 378.433687 106.583746 
L 378.975676 108.420646 
L 379.517665 110.887831 
L 380.059653 109.363308 
L 380.601642 107.486226 
L 381.143631 93.718205 
L 381.68562 108.791324 
L 382.769597 73.847273 
L 383.311586 108.403716 
L 383.853575 97.08847 
L 384.395564 89.405634 
L 384.937553 110.887831 
L 385.479541 110.820128 
L 386.02153 116.479988 
L 386.563519 110.837054 
L 387.105508 101.38362 
L 387.647497 100.640994 
L 388.189485 107.823122 
L 388.731474 110.163716 
L 389.273463 118.87494 
L 389.815452 108.522229 
L 390.357441 101.695584 
L 390.899429 111.510285 
L 391.441418 97.029133 
L 391.983407 92.534436 
L 392.525396 115.849843 
L 393.067385 114.445447 
L 393.609373 88.466852 
L 394.151362 95.686427 
L 394.693351 118.598111 
L 395.23534 94.96828 
L 395.777329 93.591004 
L 396.319318 96.708331 
L 397.403295 76.402154 
L 397.945284 63.434709 
L 398.487273 92.940365 
L 398.487273 92.940365 
" style="fill:none;stroke:#1f77b4;stroke-linecap:square;stroke-width:1.5;"/>
   </g>
   <g id="patch_3">
    <path d="M 57.6 307.584 
L 57.6 41.472 
" style="fill:none;stroke:#000000;stroke-linecap:square;stroke-linejoin:miter;stroke-width:0.8;"/>
   </g>
   <g id="patch_4">
    <path d="M 414.72 307.584 
L 414.72 41.472 
" style="fill:none;stroke:#000000;stroke-linecap:square;stroke-linejoin:miter;stroke-width:0.8;"/>
   </g>
   <g id="patch_5">
    <path d="M 57.6 307.584 
L 414.72 307.584 
" style="fill:none;stroke:#000000;stroke-linecap:square;stroke-linejoin:miter;stroke-width:0.8;"/>
   </g>
   <g id="patch_6">
    <path d="M 57.6 41.472 
L 414.72 41.472 
" style="fill:none;stroke:#000000;stroke-linecap:square;stroke-linejoin:miter;stroke-width:0.8;"/>
   </g>
   <g id="text_17">
    <!-- Resistance with source voltage 100.0 mV -->
    <defs>
     <path d="M 4.203125 54.6875 
L 13.1875 54.6875 
L 24.421875 12.015625 
L 35.59375 54.6875 
L 46.1875 54.6875 
L 57.421875 12.015625 
L 68.609375 54.6875 
L 77.59375 54.6875 
L 63.28125 0 
L 52.6875 0 
L 40.921875 44.828125 
L 29.109375 0 
L 18.5 0 
z
" id="DejaVuSans-77"/>
     <path d="M 30.609375 48.390625 
Q 23.390625 48.390625 19.1875 42.75 
Q 14.984375 37.109375 14.984375 27.296875 
Q 14.984375 17.484375 19.15625 11.84375 
Q 23.34375 6.203125 30.609375 6.203125 
Q 37.796875 6.203125 41.984375 11.859375 
Q 46.1875 17.53125 46.1875 27.296875 
Q 46.1875 37.015625 41.984375 42.703125 
Q 37.796875 48.390625 30.609375 48.390625 
z
M 30.609375 56 
Q 42.328125 56 49.015625 48.375 
Q 55.71875 40.765625 55.71875 27.296875 
Q 55.71875 13.875 49.015625 6.21875 
Q 42.328125 -1.421875 30.609375 -1.421875 
Q 18.84375 -1.421875 12.171875 6.21875 
Q 5.515625 13.875 5.515625 27.296875 
Q 5.515625 40.765625 12.171875 48.375 
Q 18.84375 56 30.609375 56 
z
" id="DejaVuSans-6f"/>
     <path d="M 8.5 21.578125 
L 8.5 54.6875 
L 17.484375 54.6875 
L 17.484375 21.921875 
Q 17.484375 14.15625 20.5 10.265625 
Q 23.53125 6.390625 29.59375 6.390625 
Q 36.859375 6.390625 41.078125 11.03125 
Q 45.3125 15.671875 45.3125 23.6875 
L 45.3125 54.6875 
L 54.296875 54.6875 
L 54.296875 0 
L 45.3125 0 
L 45.3125 8.40625 
Q 42.046875 3.421875 37.71875 1 
Q 33.40625 -1.421875 27.6875 -1.421875 
Q 18.265625 -1.421875 13.375 4.4375 
Q 8.5 10.296875 8.5 21.578125 
z
M 31.109375 56 
z
" id="DejaVuSans-75"/>
     <path d="M 41.109375 46.296875 
Q 39.59375 47.171875 37.8125 47.578125 
Q 36.03125 48 33.890625 48 
Q 26.265625 48 22.1875 43.046875 
Q 18.109375 38.09375 18.109375 28.8125 
L 18.109375 0 
L 9.078125 0 
L 9.078125 54.6875 
L 18.109375 54.6875 
L 18.109375 46.1875 
Q 20.953125 51.171875 25.484375 53.578125 
Q 30.03125 56 36.53125 56 
Q 37.453125 56 38.578125 55.875 
Q 39.703125 55.765625 41.0625 55.515625 
z
" id="DejaVuSans-72"/>
     <path d="M 2.984375 54.6875 
L 12.5 54.6875 
L 29.59375 8.796875 
L 46.6875 54.6875 
L 56.203125 54.6875 
L 35.6875 0 
L 23.484375 0 
z
" id="DejaVuSans-76"/>
     <path d="M 9.421875 75.984375 
L 18.40625 75.984375 
L 18.40625 0 
L 9.421875 0 
z
" id="DejaVuSans-6c"/>
     <path d="M 45.40625 27.984375 
Q 45.40625 37.75 41.375 43.109375 
Q 37.359375 48.484375 30.078125 48.484375 
Q 22.859375 48.484375 18.828125 43.109375 
Q 14.796875 37.75 14.796875 27.984375 
Q 14.796875 18.265625 18.828125 12.890625 
Q 22.859375 7.515625 30.078125 7.515625 
Q 37.359375 7.515625 41.375 12.890625 
Q 45.40625 18.265625 45.40625 27.984375 
z
M 54.390625 6.78125 
Q 54.390625 -7.171875 48.1875 -13.984375 
Q 42 -20.796875 29.203125 -20.796875 
Q 24.46875 -20.796875 20.265625 -20.09375 
Q 16.0625 -19.390625 12.109375 -17.921875 
L 12.109375 -9.1875 
Q 16.0625 -11.328125 19.921875 -12.34375 
Q 23.78125 -13.375 27.78125 -13.375 
Q 36.625 -13.375 41.015625 -8.765625 
Q 45.40625 -4.15625 45.40625 5.171875 
L 45.40625 9.625 
Q 42.625 4.78125 38.28125 2.390625 
Q 33.9375 0 27.875 0 
Q 17.828125 0 11.671875 7.65625 
Q 5.515625 15.328125 5.515625 27.984375 
Q 5.515625 40.671875 11.671875 48.328125 
Q 17.828125 56 27.875 56 
Q 33.9375 56 38.28125 53.609375 
Q 42.625 51.21875 45.40625 46.390625 
L 45.40625 54.6875 
L 54.390625 54.6875 
z
" id="DejaVuSans-67"/>
     <path d="M 28.609375 0 
L 0.78125 72.90625 
L 11.078125 72.90625 
L 34.1875 11.53125 
L 57.328125 72.90625 
L 67.578125 72.90625 
L 39.796875 0 
z
" id="DejaVuSans-56"/>
    </defs>
    <g transform="translate(111.699375 35.472)scale(0.12 -0.12)">
     <use xlink:href="#DejaVuSans-52"/>
     <use x="69.419922" xlink:href="#DejaVuSans-65"/>
     <use x="130.943359" xlink:href="#DejaVuSans-73"/>
     <use x="183.042969" xlink:href="#DejaVuSans-69"/>
     <use x="210.826172" xlink:href="#DejaVuSans-73"/>
     <use x="262.925781" xlink:href="#DejaVuSans-74"/>
     <use x="302.134766" xlink:href="#DejaVuSans-61"/>
     <use x="363.414062" xlink:href="#DejaVuSans-6e"/>
     <use x="426.792969" xlink:href="#DejaVuSans-63"/>
     <use x="481.773438" xlink:href="#DejaVuSans-65"/>
     <use x="543.296875" xlink:href="#DejaVuSans-20"/>
     <use x="575.083984" xlink:href="#DejaVuSans-77"/>
     <use x="656.871094" xlink:href="#DejaVuSans-69"/>
     <use x="684.654297" xlink:href="#DejaVuSans-74"/>
     <use x="723.863281" xlink:href="#DejaVuSans-68"/>
     <use x="787.242188" xlink:href="#DejaVuSans-20"/>
     <use x="819.029297" xlink:href="#DejaVuSans-73"/>
     <use x="871.128906" xlink:href="#DejaVuSans-6f"/>
     <use x="932.310547" xlink:href="#DejaVuSans-75"/>
     <use x="995.689453" xlink:href="#DejaVuSans-72"/>
     <use x="1036.771484" xlink:href="#DejaVuSans-63"/>
     <use x="1091.751953" xlink:href="#DejaVuSans-65"/>
     <use x="1153.275391" xlink:href="#DejaVuSans-20"/>
     <use x="1185.0625" xlink:href="#DejaVuSans-76"/>
     <use x="1244.242188" xlink:href="#DejaVuSans-6f"/>
     <use x="1305.423828" xlink:href="#DejaVuSans-6c"/>
     <use x="1333.207031" xlink:href="#DejaVuSans-74"/>
     <use x="1372.416016" xlink:href="#DejaVuSans-61"/>
     <use x="1433.695312" xlink:href="#DejaVuSans-67"/>
     <use x="1497.171875" xlink:href="#DejaVuSans-65"/>
     <use x="1558.695312" xlink:href="#DejaVuSans-20"/>
     <use x="1590.482422" xlink:href="#DejaVuSans-31"/>
     <use x="1654.105469" xlink:href="#DejaVuSans-30"/>
     <use x="1717.728516" xlink:href="#DejaVuSans-30"/>
     <use x="1781.351562" xlink:href="#DejaVuSans-2e"/>
     <use x="1813.138672" xlink:href="#DejaVuSans-30"/>
     <use x="1876.761719" xlink:href="#DejaVuSans-20"/>
     <use x="1908.548828" xlink:href="#DejaVuSans-6d"/>
     <use x="2005.960938" xlink:href="#DejaVuSans-56"/>
    </g>
   </g>
  </g>
 </g>
 <defs>
  <clipPath id="p76eb90d232">
   <rect height="266.112" width="357.12" x="57.6" y="41.472"/>
  </clipPath>
 </defs>
</svg>
