<?xml version="1.0" encoding="utf-8" standalone="no"?>
<!DOCTYPE svg PUBLIC "-//W3C//DTD SVG 1.1//EN"
  "http://www.w3.org/Graphics/SVG/1.1/DTD/svg11.dtd">
<!-- Created with matplotlib (http://matplotlib.org/) -->
<svg height="338pt" version="1.1" viewBox="0 0 460 338" width="460pt" xmlns="http://www.w3.org/2000/svg" xmlns:xlink="http://www.w3.org/1999/xlink">
 <defs>
  <style type="text/css">
*{stroke-linecap:butt;stroke-linejoin:round;}
  </style>
 </defs>
 <g id="figure_1">
  <g id="patch_1">
   <path d="M 0 338.4 
L 460.8 338.4 
L 460.8 0 
L 0 0 
z
" style="fill:#ffffff;"/>
  </g>
  <g id="axes_1">
   <g id="patch_2">
    <path d="M 57.6 301.176 
L 414.72 301.176 
L 414.72 40.608 
L 57.6 40.608 
z
" style="fill:#ffffff;"/>
   </g>
   <g id="matplotlib.axis_1">
    <g id="xtick_1">
     <g id="line2d_1">
      <defs>
       <path d="M 0 0 
L 0 3.5 
" id="m1318ede1f8" style="stroke:#000000;stroke-width:0.8;"/>
      </defs>
      <g>
       <use style="stroke:#000000;stroke-width:0.8;" x="73.832727" xlink:href="#m1318ede1f8" y="301.176"/>
      </g>
     </g>
     <g id="text_1">
      <!-- 0 -->
      <defs>
       <path d="M 31.78125 66.40625 
Q 24.171875 66.40625 20.328125 58.90625 
Q 16.5 51.421875 16.5 36.375 
Q 16.5 21.390625 20.328125 13.890625 
Q 24.171875 6.390625 31.78125 6.390625 
Q 39.453125 6.390625 43.28125 13.890625 
Q 47.125 21.390625 47.125 36.375 
Q 47.125 51.421875 43.28125 58.90625 
Q 39.453125 66.40625 31.78125 66.40625 
z
M 31.78125 74.21875 
Q 44.046875 74.21875 50.515625 64.515625 
Q 56.984375 54.828125 56.984375 36.375 
Q 56.984375 17.96875 50.515625 8.265625 
Q 44.046875 -1.421875 31.78125 -1.421875 
Q 19.53125 -1.421875 13.0625 8.265625 
Q 6.59375 17.96875 6.59375 36.375 
Q 6.59375 54.828125 13.0625 64.515625 
Q 19.53125 74.21875 31.78125 74.21875 
z
" id="DejaVuSans-30"/>
      </defs>
      <g transform="translate(70.651477 315.774438)scale(0.1 -0.1)">
       <use xlink:href="#DejaVuSans-30"/>
      </g>
     </g>
    </g>
    <g id="xtick_2">
     <g id="line2d_2">
      <g>
       <use style="stroke:#000000;stroke-width:0.8;" x="127.950297" xlink:href="#m1318ede1f8" y="301.176"/>
      </g>
     </g>
     <g id="text_2">
      <!-- 100 -->
      <defs>
       <path d="M 12.40625 8.296875 
L 28.515625 8.296875 
L 28.515625 63.921875 
L 10.984375 60.40625 
L 10.984375 69.390625 
L 28.421875 72.90625 
L 38.28125 72.90625 
L 38.28125 8.296875 
L 54.390625 8.296875 
L 54.390625 0 
L 12.40625 0 
z
" id="DejaVuSans-31"/>
      </defs>
      <g transform="translate(118.406547 315.774438)scale(0.1 -0.1)">
       <use xlink:href="#DejaVuSans-31"/>
       <use x="63.623047" xlink:href="#DejaVuSans-30"/>
       <use x="127.246094" xlink:href="#DejaVuSans-30"/>
      </g>
     </g>
    </g>
    <g id="xtick_3">
     <g id="line2d_3">
      <g>
       <use style="stroke:#000000;stroke-width:0.8;" x="182.067866" xlink:href="#m1318ede1f8" y="301.176"/>
      </g>
     </g>
     <g id="text_3">
      <!-- 200 -->
      <defs>
       <path d="M 19.1875 8.296875 
L 53.609375 8.296875 
L 53.609375 0 
L 7.328125 0 
L 7.328125 8.296875 
Q 12.9375 14.109375 22.625 23.890625 
Q 32.328125 33.6875 34.8125 36.53125 
Q 39.546875 41.84375 41.421875 45.53125 
Q 43.3125 49.21875 43.3125 52.78125 
Q 43.3125 58.59375 39.234375 62.25 
Q 35.15625 65.921875 28.609375 65.921875 
Q 23.96875 65.921875 18.8125 64.3125 
Q 13.671875 62.703125 7.8125 59.421875 
L 7.8125 69.390625 
Q 13.765625 71.78125 18.9375 73 
Q 24.125 74.21875 28.421875 74.21875 
Q 39.75 74.21875 46.484375 68.546875 
Q 53.21875 62.890625 53.21875 53.421875 
Q 53.21875 48.921875 51.53125 44.890625 
Q 49.859375 40.875 45.40625 35.40625 
Q 44.1875 33.984375 37.640625 27.21875 
Q 31.109375 20.453125 19.1875 8.296875 
z
" id="DejaVuSans-32"/>
      </defs>
      <g transform="translate(172.524116 315.774438)scale(0.1 -0.1)">
       <use xlink:href="#DejaVuSans-32"/>
       <use x="63.623047" xlink:href="#DejaVuSans-30"/>
       <use x="127.246094" xlink:href="#DejaVuSans-30"/>
      </g>
     </g>
    </g>
    <g id="xtick_4">
     <g id="line2d_4">
      <g>
       <use style="stroke:#000000;stroke-width:0.8;" x="236.185435" xlink:href="#m1318ede1f8" y="301.176"/>
      </g>
     </g>
     <g id="text_4">
      <!-- 300 -->
      <defs>
       <path d="M 40.578125 39.3125 
Q 47.65625 37.796875 51.625 33 
Q 55.609375 28.21875 55.609375 21.1875 
Q 55.609375 10.40625 48.1875 4.484375 
Q 40.765625 -1.421875 27.09375 -1.421875 
Q 22.515625 -1.421875 17.65625 -0.515625 
Q 12.796875 0.390625 7.625 2.203125 
L 7.625 11.71875 
Q 11.71875 9.328125 16.59375 8.109375 
Q 21.484375 6.890625 26.8125 6.890625 
Q 36.078125 6.890625 40.9375 10.546875 
Q 45.796875 14.203125 45.796875 21.1875 
Q 45.796875 27.640625 41.28125 31.265625 
Q 36.765625 34.90625 28.71875 34.90625 
L 20.21875 34.90625 
L 20.21875 43.015625 
L 29.109375 43.015625 
Q 36.375 43.015625 40.234375 45.921875 
Q 44.09375 48.828125 44.09375 54.296875 
Q 44.09375 59.90625 40.109375 62.90625 
Q 36.140625 65.921875 28.71875 65.921875 
Q 24.65625 65.921875 20.015625 65.03125 
Q 15.375 64.15625 9.8125 62.3125 
L 9.8125 71.09375 
Q 15.4375 72.65625 20.34375 73.4375 
Q 25.25 74.21875 29.59375 74.21875 
Q 40.828125 74.21875 47.359375 69.109375 
Q 53.90625 64.015625 53.90625 55.328125 
Q 53.90625 49.265625 50.4375 45.09375 
Q 46.96875 40.921875 40.578125 39.3125 
z
" id="DejaVuSans-33"/>
      </defs>
      <g transform="translate(226.641685 315.774438)scale(0.1 -0.1)">
       <use xlink:href="#DejaVuSans-33"/>
       <use x="63.623047" xlink:href="#DejaVuSans-30"/>
       <use x="127.246094" xlink:href="#DejaVuSans-30"/>
      </g>
     </g>
    </g>
    <g id="xtick_5">
     <g id="line2d_5">
      <g>
       <use style="stroke:#000000;stroke-width:0.8;" x="290.303005" xlink:href="#m1318ede1f8" y="301.176"/>
      </g>
     </g>
     <g id="text_5">
      <!-- 400 -->
      <defs>
       <path d="M 37.796875 64.3125 
L 12.890625 25.390625 
L 37.796875 25.390625 
z
M 35.203125 72.90625 
L 47.609375 72.90625 
L 47.609375 25.390625 
L 58.015625 25.390625 
L 58.015625 17.1875 
L 47.609375 17.1875 
L 47.609375 0 
L 37.796875 0 
L 37.796875 17.1875 
L 4.890625 17.1875 
L 4.890625 26.703125 
z
" id="DejaVuSans-34"/>
      </defs>
      <g transform="translate(280.759255 315.774438)scale(0.1 -0.1)">
       <use xlink:href="#DejaVuSans-34"/>
       <use x="63.623047" xlink:href="#DejaVuSans-30"/>
       <use x="127.246094" xlink:href="#DejaVuSans-30"/>
      </g>
     </g>
    </g>
    <g id="xtick_6">
     <g id="line2d_6">
      <g>
       <use style="stroke:#000000;stroke-width:0.8;" x="344.420574" xlink:href="#m1318ede1f8" y="301.176"/>
      </g>
     </g>
     <g id="text_6">
      <!-- 500 -->
      <defs>
       <path d="M 10.796875 72.90625 
L 49.515625 72.90625 
L 49.515625 64.59375 
L 19.828125 64.59375 
L 19.828125 46.734375 
Q 21.96875 47.46875 24.109375 47.828125 
Q 26.265625 48.1875 28.421875 48.1875 
Q 40.625 48.1875 47.75 41.5 
Q 54.890625 34.8125 54.890625 23.390625 
Q 54.890625 11.625 47.5625 5.09375 
Q 40.234375 -1.421875 26.90625 -1.421875 
Q 22.3125 -1.421875 17.546875 -0.640625 
Q 12.796875 0.140625 7.71875 1.703125 
L 7.71875 11.625 
Q 12.109375 9.234375 16.796875 8.0625 
Q 21.484375 6.890625 26.703125 6.890625 
Q 35.15625 6.890625 40.078125 11.328125 
Q 45.015625 15.765625 45.015625 23.390625 
Q 45.015625 31 40.078125 35.4375 
Q 35.15625 39.890625 26.703125 39.890625 
Q 22.75 39.890625 18.8125 39.015625 
Q 14.890625 38.140625 10.796875 36.28125 
z
" id="DejaVuSans-35"/>
      </defs>
      <g transform="translate(334.876824 315.774438)scale(0.1 -0.1)">
       <use xlink:href="#DejaVuSans-35"/>
       <use x="63.623047" xlink:href="#DejaVuSans-30"/>
       <use x="127.246094" xlink:href="#DejaVuSans-30"/>
      </g>
     </g>
    </g>
    <g id="xtick_7">
     <g id="line2d_7">
      <g>
       <use style="stroke:#000000;stroke-width:0.8;" x="398.538143" xlink:href="#m1318ede1f8" y="301.176"/>
      </g>
     </g>
     <g id="text_7">
      <!-- 600 -->
      <defs>
       <path d="M 33.015625 40.375 
Q 26.375 40.375 22.484375 35.828125 
Q 18.609375 31.296875 18.609375 23.390625 
Q 18.609375 15.53125 22.484375 10.953125 
Q 26.375 6.390625 33.015625 6.390625 
Q 39.65625 6.390625 43.53125 10.953125 
Q 47.40625 15.53125 47.40625 23.390625 
Q 47.40625 31.296875 43.53125 35.828125 
Q 39.65625 40.375 33.015625 40.375 
z
M 52.59375 71.296875 
L 52.59375 62.3125 
Q 48.875 64.0625 45.09375 64.984375 
Q 41.3125 65.921875 37.59375 65.921875 
Q 27.828125 65.921875 22.671875 59.328125 
Q 17.53125 52.734375 16.796875 39.40625 
Q 19.671875 43.65625 24.015625 45.921875 
Q 28.375 48.1875 33.59375 48.1875 
Q 44.578125 48.1875 50.953125 41.515625 
Q 57.328125 34.859375 57.328125 23.390625 
Q 57.328125 12.15625 50.6875 5.359375 
Q 44.046875 -1.421875 33.015625 -1.421875 
Q 20.359375 -1.421875 13.671875 8.265625 
Q 6.984375 17.96875 6.984375 36.375 
Q 6.984375 53.65625 15.1875 63.9375 
Q 23.390625 74.21875 37.203125 74.21875 
Q 40.921875 74.21875 44.703125 73.484375 
Q 48.484375 72.75 52.59375 71.296875 
z
" id="DejaVuSans-36"/>
      </defs>
      <g transform="translate(388.994393 315.774438)scale(0.1 -0.1)">
       <use xlink:href="#DejaVuSans-36"/>
       <use x="63.623047" xlink:href="#DejaVuSans-30"/>
       <use x="127.246094" xlink:href="#DejaVuSans-30"/>
      </g>
     </g>
    </g>
    <g id="text_8">
     <!-- t(s) -->
     <defs>
      <path d="M 18.3125 70.21875 
L 18.3125 54.6875 
L 36.8125 54.6875 
L 36.8125 47.703125 
L 18.3125 47.703125 
L 18.3125 18.015625 
Q 18.3125 11.328125 20.140625 9.421875 
Q 21.96875 7.515625 27.59375 7.515625 
L 36.8125 7.515625 
L 36.8125 0 
L 27.59375 0 
Q 17.1875 0 13.234375 3.875 
Q 9.28125 7.765625 9.28125 18.015625 
L 9.28125 47.703125 
L 2.6875 47.703125 
L 2.6875 54.6875 
L 9.28125 54.6875 
L 9.28125 70.21875 
z
" id="DejaVuSans-74"/>
      <path d="M 31 75.875 
Q 24.46875 64.65625 21.28125 53.65625 
Q 18.109375 42.671875 18.109375 31.390625 
Q 18.109375 20.125 21.3125 9.0625 
Q 24.515625 -2 31 -13.1875 
L 23.1875 -13.1875 
Q 15.875 -1.703125 12.234375 9.375 
Q 8.59375 20.453125 8.59375 31.390625 
Q 8.59375 42.28125 12.203125 53.3125 
Q 15.828125 64.359375 23.1875 75.875 
z
" id="DejaVuSans-28"/>
      <path d="M 44.28125 53.078125 
L 44.28125 44.578125 
Q 40.484375 46.53125 36.375 47.5 
Q 32.28125 48.484375 27.875 48.484375 
Q 21.1875 48.484375 17.84375 46.4375 
Q 14.5 44.390625 14.5 40.28125 
Q 14.5 37.15625 16.890625 35.375 
Q 19.28125 33.59375 26.515625 31.984375 
L 29.59375 31.296875 
Q 39.15625 29.25 43.1875 25.515625 
Q 47.21875 21.78125 47.21875 15.09375 
Q 47.21875 7.46875 41.1875 3.015625 
Q 35.15625 -1.421875 24.609375 -1.421875 
Q 20.21875 -1.421875 15.453125 -0.5625 
Q 10.6875 0.296875 5.421875 2 
L 5.421875 11.28125 
Q 10.40625 8.6875 15.234375 7.390625 
Q 20.0625 6.109375 24.8125 6.109375 
Q 31.15625 6.109375 34.5625 8.28125 
Q 37.984375 10.453125 37.984375 14.40625 
Q 37.984375 18.0625 35.515625 20.015625 
Q 33.0625 21.96875 24.703125 23.78125 
L 21.578125 24.515625 
Q 13.234375 26.265625 9.515625 29.90625 
Q 5.8125 33.546875 5.8125 39.890625 
Q 5.8125 47.609375 11.28125 51.796875 
Q 16.75 56 26.8125 56 
Q 31.78125 56 36.171875 55.265625 
Q 40.578125 54.546875 44.28125 53.078125 
z
" id="DejaVuSans-73"/>
      <path d="M 8.015625 75.875 
L 15.828125 75.875 
Q 23.140625 64.359375 26.78125 53.3125 
Q 30.421875 42.28125 30.421875 31.390625 
Q 30.421875 20.453125 26.78125 9.375 
Q 23.140625 -1.703125 15.828125 -13.1875 
L 8.015625 -13.1875 
Q 14.5 -2 17.703125 9.0625 
Q 20.90625 20.125 20.90625 31.390625 
Q 20.90625 42.671875 17.703125 53.65625 
Q 14.5 64.65625 8.015625 75.875 
z
" id="DejaVuSans-29"/>
     </defs>
     <g transform="translate(227.693594 329.452563)scale(0.1 -0.1)">
      <use xlink:href="#DejaVuSans-74"/>
      <use x="39.208984" xlink:href="#DejaVuSans-28"/>
      <use x="78.222656" xlink:href="#DejaVuSans-73"/>
      <use x="130.322266" xlink:href="#DejaVuSans-29"/>
     </g>
    </g>
   </g>
   <g id="matplotlib.axis_2">
    <g id="ytick_1">
     <g id="line2d_8">
      <defs>
       <path d="M 0 0 
L -3.5 0 
" id="m6080e82c64" style="stroke:#000000;stroke-width:0.8;"/>
      </defs>
      <g>
       <use style="stroke:#000000;stroke-width:0.8;" x="57.6" xlink:href="#m6080e82c64" y="289.332"/>
      </g>
     </g>
     <g id="text_9">
      <!-- 25.000 -->
      <defs>
       <path d="M 10.6875 12.40625 
L 21 12.40625 
L 21 0 
L 10.6875 0 
z
" id="DejaVuSans-2e"/>
      </defs>
      <g transform="translate(15.609375 293.131219)scale(0.1 -0.1)">
       <use xlink:href="#DejaVuSans-32"/>
       <use x="63.623047" xlink:href="#DejaVuSans-35"/>
       <use x="127.246094" xlink:href="#DejaVuSans-2e"/>
       <use x="159.033203" xlink:href="#DejaVuSans-30"/>
       <use x="222.65625" xlink:href="#DejaVuSans-30"/>
       <use x="286.279297" xlink:href="#DejaVuSans-30"/>
      </g>
     </g>
    </g>
    <g id="ytick_2">
     <g id="line2d_9">
      <g>
       <use style="stroke:#000000;stroke-width:0.8;" x="57.6" xlink:href="#m6080e82c64" y="241.956"/>
      </g>
     </g>
     <g id="text_10">
      <!-- 25.002 -->
      <g transform="translate(15.609375 245.755219)scale(0.1 -0.1)">
       <use xlink:href="#DejaVuSans-32"/>
       <use x="63.623047" xlink:href="#DejaVuSans-35"/>
       <use x="127.246094" xlink:href="#DejaVuSans-2e"/>
       <use x="159.033203" xlink:href="#DejaVuSans-30"/>
       <use x="222.65625" xlink:href="#DejaVuSans-30"/>
       <use x="286.279297" xlink:href="#DejaVuSans-32"/>
      </g>
     </g>
    </g>
    <g id="ytick_3">
     <g id="line2d_10">
      <g>
       <use style="stroke:#000000;stroke-width:0.8;" x="57.6" xlink:href="#m6080e82c64" y="194.58"/>
      </g>
     </g>
     <g id="text_11">
      <!-- 25.004 -->
      <g transform="translate(15.609375 198.379219)scale(0.1 -0.1)">
       <use xlink:href="#DejaVuSans-32"/>
       <use x="63.623047" xlink:href="#DejaVuSans-35"/>
       <use x="127.246094" xlink:href="#DejaVuSans-2e"/>
       <use x="159.033203" xlink:href="#DejaVuSans-30"/>
       <use x="222.65625" xlink:href="#DejaVuSans-30"/>
       <use x="286.279297" xlink:href="#DejaVuSans-34"/>
      </g>
     </g>
    </g>
    <g id="ytick_4">
     <g id="line2d_11">
      <g>
       <use style="stroke:#000000;stroke-width:0.8;" x="57.6" xlink:href="#m6080e82c64" y="147.204"/>
      </g>
     </g>
     <g id="text_12">
      <!-- 25.006 -->
      <g transform="translate(15.609375 151.003219)scale(0.1 -0.1)">
       <use xlink:href="#DejaVuSans-32"/>
       <use x="63.623047" xlink:href="#DejaVuSans-35"/>
       <use x="127.246094" xlink:href="#DejaVuSans-2e"/>
       <use x="159.033203" xlink:href="#DejaVuSans-30"/>
       <use x="222.65625" xlink:href="#DejaVuSans-30"/>
       <use x="286.279297" xlink:href="#DejaVuSans-36"/>
      </g>
     </g>
    </g>
    <g id="ytick_5">
     <g id="line2d_12">
      <g>
       <use style="stroke:#000000;stroke-width:0.8;" x="57.6" xlink:href="#m6080e82c64" y="99.828"/>
      </g>
     </g>
     <g id="text_13">
      <!-- 25.008 -->
      <defs>
       <path d="M 31.78125 34.625 
Q 24.75 34.625 20.71875 30.859375 
Q 16.703125 27.09375 16.703125 20.515625 
Q 16.703125 13.921875 20.71875 10.15625 
Q 24.75 6.390625 31.78125 6.390625 
Q 38.8125 6.390625 42.859375 10.171875 
Q 46.921875 13.96875 46.921875 20.515625 
Q 46.921875 27.09375 42.890625 30.859375 
Q 38.875 34.625 31.78125 34.625 
z
M 21.921875 38.8125 
Q 15.578125 40.375 12.03125 44.71875 
Q 8.5 49.078125 8.5 55.328125 
Q 8.5 64.0625 14.71875 69.140625 
Q 20.953125 74.21875 31.78125 74.21875 
Q 42.671875 74.21875 48.875 69.140625 
Q 55.078125 64.0625 55.078125 55.328125 
Q 55.078125 49.078125 51.53125 44.71875 
Q 48 40.375 41.703125 38.8125 
Q 48.828125 37.15625 52.796875 32.3125 
Q 56.78125 27.484375 56.78125 20.515625 
Q 56.78125 9.90625 50.3125 4.234375 
Q 43.84375 -1.421875 31.78125 -1.421875 
Q 19.734375 -1.421875 13.25 4.234375 
Q 6.78125 9.90625 6.78125 20.515625 
Q 6.78125 27.484375 10.78125 32.3125 
Q 14.796875 37.15625 21.921875 38.8125 
z
M 18.3125 54.390625 
Q 18.3125 48.734375 21.84375 45.5625 
Q 25.390625 42.390625 31.78125 42.390625 
Q 38.140625 42.390625 41.71875 45.5625 
Q 45.3125 48.734375 45.3125 54.390625 
Q 45.3125 60.0625 41.71875 63.234375 
Q 38.140625 66.40625 31.78125 66.40625 
Q 25.390625 66.40625 21.84375 63.234375 
Q 18.3125 60.0625 18.3125 54.390625 
z
" id="DejaVuSans-38"/>
      </defs>
      <g transform="translate(15.609375 103.627219)scale(0.1 -0.1)">
       <use xlink:href="#DejaVuSans-32"/>
       <use x="63.623047" xlink:href="#DejaVuSans-35"/>
       <use x="127.246094" xlink:href="#DejaVuSans-2e"/>
       <use x="159.033203" xlink:href="#DejaVuSans-30"/>
       <use x="222.65625" xlink:href="#DejaVuSans-30"/>
       <use x="286.279297" xlink:href="#DejaVuSans-38"/>
      </g>
     </g>
    </g>
    <g id="ytick_6">
     <g id="line2d_13">
      <g>
       <use style="stroke:#000000;stroke-width:0.8;" x="57.6" xlink:href="#m6080e82c64" y="52.452"/>
      </g>
     </g>
     <g id="text_14">
      <!-- 25.010 -->
      <g transform="translate(15.609375 56.251219)scale(0.1 -0.1)">
       <use xlink:href="#DejaVuSans-32"/>
       <use x="63.623047" xlink:href="#DejaVuSans-35"/>
       <use x="127.246094" xlink:href="#DejaVuSans-2e"/>
       <use x="159.033203" xlink:href="#DejaVuSans-30"/>
       <use x="222.65625" xlink:href="#DejaVuSans-31"/>
       <use x="286.279297" xlink:href="#DejaVuSans-30"/>
      </g>
     </g>
    </g>
    <g id="text_15">
     <!-- Temperature (*C) -->
     <defs>
      <path d="M -0.296875 72.90625 
L 61.375 72.90625 
L 61.375 64.59375 
L 35.5 64.59375 
L 35.5 0 
L 25.59375 0 
L 25.59375 64.59375 
L -0.296875 64.59375 
z
" id="DejaVuSans-54"/>
      <path d="M 56.203125 29.59375 
L 56.203125 25.203125 
L 14.890625 25.203125 
Q 15.484375 15.921875 20.484375 11.0625 
Q 25.484375 6.203125 34.421875 6.203125 
Q 39.59375 6.203125 44.453125 7.46875 
Q 49.3125 8.734375 54.109375 11.28125 
L 54.109375 2.78125 
Q 49.265625 0.734375 44.1875 -0.34375 
Q 39.109375 -1.421875 33.890625 -1.421875 
Q 20.796875 -1.421875 13.15625 6.1875 
Q 5.515625 13.8125 5.515625 26.8125 
Q 5.515625 40.234375 12.765625 48.109375 
Q 20.015625 56 32.328125 56 
Q 43.359375 56 49.78125 48.890625 
Q 56.203125 41.796875 56.203125 29.59375 
z
M 47.21875 32.234375 
Q 47.125 39.59375 43.09375 43.984375 
Q 39.0625 48.390625 32.421875 48.390625 
Q 24.90625 48.390625 20.390625 44.140625 
Q 15.875 39.890625 15.1875 32.171875 
z
" id="DejaVuSans-65"/>
      <path d="M 52 44.1875 
Q 55.375 50.25 60.0625 53.125 
Q 64.75 56 71.09375 56 
Q 79.640625 56 84.28125 50.015625 
Q 88.921875 44.046875 88.921875 33.015625 
L 88.921875 0 
L 79.890625 0 
L 79.890625 32.71875 
Q 79.890625 40.578125 77.09375 44.375 
Q 74.3125 48.1875 68.609375 48.1875 
Q 61.625 48.1875 57.5625 43.546875 
Q 53.515625 38.921875 53.515625 30.90625 
L 53.515625 0 
L 44.484375 0 
L 44.484375 32.71875 
Q 44.484375 40.625 41.703125 44.40625 
Q 38.921875 48.1875 33.109375 48.1875 
Q 26.21875 48.1875 22.15625 43.53125 
Q 18.109375 38.875 18.109375 30.90625 
L 18.109375 0 
L 9.078125 0 
L 9.078125 54.6875 
L 18.109375 54.6875 
L 18.109375 46.1875 
Q 21.1875 51.21875 25.484375 53.609375 
Q 29.78125 56 35.6875 56 
Q 41.65625 56 45.828125 52.96875 
Q 50 49.953125 52 44.1875 
z
" id="DejaVuSans-6d"/>
      <path d="M 18.109375 8.203125 
L 18.109375 -20.796875 
L 9.078125 -20.796875 
L 9.078125 54.6875 
L 18.109375 54.6875 
L 18.109375 46.390625 
Q 20.953125 51.265625 25.265625 53.625 
Q 29.59375 56 35.59375 56 
Q 45.5625 56 51.78125 48.09375 
Q 58.015625 40.1875 58.015625 27.296875 
Q 58.015625 14.40625 51.78125 6.484375 
Q 45.5625 -1.421875 35.59375 -1.421875 
Q 29.59375 -1.421875 25.265625 0.953125 
Q 20.953125 3.328125 18.109375 8.203125 
z
M 48.6875 27.296875 
Q 48.6875 37.203125 44.609375 42.84375 
Q 40.53125 48.484375 33.40625 48.484375 
Q 26.265625 48.484375 22.1875 42.84375 
Q 18.109375 37.203125 18.109375 27.296875 
Q 18.109375 17.390625 22.1875 11.75 
Q 26.265625 6.109375 33.40625 6.109375 
Q 40.53125 6.109375 44.609375 11.75 
Q 48.6875 17.390625 48.6875 27.296875 
z
" id="DejaVuSans-70"/>
      <path d="M 41.109375 46.296875 
Q 39.59375 47.171875 37.8125 47.578125 
Q 36.03125 48 33.890625 48 
Q 26.265625 48 22.1875 43.046875 
Q 18.109375 38.09375 18.109375 28.8125 
L 18.109375 0 
L 9.078125 0 
L 9.078125 54.6875 
L 18.109375 54.6875 
L 18.109375 46.1875 
Q 20.953125 51.171875 25.484375 53.578125 
Q 30.03125 56 36.53125 56 
Q 37.453125 56 38.578125 55.875 
Q 39.703125 55.765625 41.0625 55.515625 
z
" id="DejaVuSans-72"/>
      <path d="M 34.28125 27.484375 
Q 23.390625 27.484375 19.1875 25 
Q 14.984375 22.515625 14.984375 16.5 
Q 14.984375 11.71875 18.140625 8.90625 
Q 21.296875 6.109375 26.703125 6.109375 
Q 34.1875 6.109375 38.703125 11.40625 
Q 43.21875 16.703125 43.21875 25.484375 
L 43.21875 27.484375 
z
M 52.203125 31.203125 
L 52.203125 0 
L 43.21875 0 
L 43.21875 8.296875 
Q 40.140625 3.328125 35.546875 0.953125 
Q 30.953125 -1.421875 24.3125 -1.421875 
Q 15.921875 -1.421875 10.953125 3.296875 
Q 6 8.015625 6 15.921875 
Q 6 25.140625 12.171875 29.828125 
Q 18.359375 34.515625 30.609375 34.515625 
L 43.21875 34.515625 
L 43.21875 35.40625 
Q 43.21875 41.609375 39.140625 45 
Q 35.0625 48.390625 27.6875 48.390625 
Q 23 48.390625 18.546875 47.265625 
Q 14.109375 46.140625 10.015625 43.890625 
L 10.015625 52.203125 
Q 14.9375 54.109375 19.578125 55.046875 
Q 24.21875 56 28.609375 56 
Q 40.484375 56 46.34375 49.84375 
Q 52.203125 43.703125 52.203125 31.203125 
z
" id="DejaVuSans-61"/>
      <path d="M 8.5 21.578125 
L 8.5 54.6875 
L 17.484375 54.6875 
L 17.484375 21.921875 
Q 17.484375 14.15625 20.5 10.265625 
Q 23.53125 6.390625 29.59375 6.390625 
Q 36.859375 6.390625 41.078125 11.03125 
Q 45.3125 15.671875 45.3125 23.6875 
L 45.3125 54.6875 
L 54.296875 54.6875 
L 54.296875 0 
L 45.3125 0 
L 45.3125 8.40625 
Q 42.046875 3.421875 37.71875 1 
Q 33.40625 -1.421875 27.6875 -1.421875 
Q 18.265625 -1.421875 13.375 4.4375 
Q 8.5 10.296875 8.5 21.578125 
z
M 31.109375 56 
z
" id="DejaVuSans-75"/>
      <path id="DejaVuSans-20"/>
      <path d="M 47.015625 60.890625 
L 29.5 51.421875 
L 47.015625 41.890625 
L 44.1875 37.109375 
L 27.78125 47.015625 
L 27.78125 28.609375 
L 22.21875 28.609375 
L 22.21875 47.015625 
L 5.8125 37.109375 
L 2.984375 41.890625 
L 20.515625 51.421875 
L 2.984375 60.890625 
L 5.8125 65.71875 
L 22.21875 55.8125 
L 22.21875 74.21875 
L 27.78125 74.21875 
L 27.78125 55.8125 
L 44.1875 65.71875 
z
" id="DejaVuSans-2a"/>
      <path d="M 64.40625 67.28125 
L 64.40625 56.890625 
Q 59.421875 61.53125 53.78125 63.8125 
Q 48.140625 66.109375 41.796875 66.109375 
Q 29.296875 66.109375 22.65625 58.46875 
Q 16.015625 50.828125 16.015625 36.375 
Q 16.015625 21.96875 22.65625 14.328125 
Q 29.296875 6.6875 41.796875 6.6875 
Q 48.140625 6.6875 53.78125 8.984375 
Q 59.421875 11.28125 64.40625 15.921875 
L 64.40625 5.609375 
Q 59.234375 2.09375 53.4375 0.328125 
Q 47.65625 -1.421875 41.21875 -1.421875 
Q 24.65625 -1.421875 15.125 8.703125 
Q 5.609375 18.84375 5.609375 36.375 
Q 5.609375 53.953125 15.125 64.078125 
Q 24.65625 74.21875 41.21875 74.21875 
Q 47.75 74.21875 53.53125 72.484375 
Q 59.328125 70.75 64.40625 67.28125 
z
" id="DejaVuSans-43"/>
     </defs>
     <g transform="translate(9.529687 214.991219)rotate(-90)scale(0.1 -0.1)">
      <use xlink:href="#DejaVuSans-54"/>
      <use x="60.818359" xlink:href="#DejaVuSans-65"/>
      <use x="122.341797" xlink:href="#DejaVuSans-6d"/>
      <use x="219.753906" xlink:href="#DejaVuSans-70"/>
      <use x="283.230469" xlink:href="#DejaVuSans-65"/>
      <use x="344.753906" xlink:href="#DejaVuSans-72"/>
      <use x="385.867188" xlink:href="#DejaVuSans-61"/>
      <use x="447.146484" xlink:href="#DejaVuSans-74"/>
      <use x="486.355469" xlink:href="#DejaVuSans-75"/>
      <use x="549.734375" xlink:href="#DejaVuSans-72"/>
      <use x="590.816406" xlink:href="#DejaVuSans-65"/>
      <use x="652.339844" xlink:href="#DejaVuSans-20"/>
      <use x="684.126953" xlink:href="#DejaVuSans-28"/>
      <use x="723.140625" xlink:href="#DejaVuSans-2a"/>
      <use x="773.140625" xlink:href="#DejaVuSans-43"/>
      <use x="842.964844" xlink:href="#DejaVuSans-29"/>
     </g>
    </g>
   </g>
   <g id="line2d_14">
    <path clip-path="url(#pe9996f2304)" d="M 73.832727 289.332 
L 398.487273 289.332 
L 398.487273 289.332 
" style="fill:none;stroke:#1f77b4;stroke-linecap:square;stroke-width:1.5;"/>
   </g>
   <g id="line2d_15">
    <path clip-path="url(#pe9996f2304)" d="M 73.832727 123.516 
L 73.940962 123.516 
L 74.049198 99.828 
L 74.26675 170.892 
L 74.700773 76.14 
L 74.809549 99.828 
L 74.918326 76.14 
L 75.135878 123.516 
L 75.244114 52.452 
L 75.461125 147.204 
L 75.569901 147.204 
L 75.678678 123.516 
L 75.89623 170.892 
L 76.004465 99.828 
L 76.330794 147.204 
L 76.656582 99.828 
L 76.873594 170.892 
L 77.091146 123.516 
L 77.525169 123.516 
L 77.633945 99.828 
L 77.742722 147.204 
L 77.851498 99.828 
L 77.960274 123.516 
L 78.177286 76.14 
L 78.286062 123.516 
L 78.503615 76.14 
L 78.612391 99.828 
L 78.829402 170.892 
L 79.046955 99.828 
L 79.155732 147.204 
L 79.264508 76.14 
L 79.372743 147.204 
L 79.481519 99.828 
L 79.699072 170.892 
L 80.025401 76.14 
L 80.242412 123.516 
L 80.351189 147.204 
L 80.568741 123.516 
L 80.677517 123.516 
L 80.894529 99.828 
L 81.003305 123.516 
L 81.220858 99.828 
L 81.329634 99.828 
L 81.438411 123.516 
L 81.546646 99.828 
L 81.764198 147.204 
L 81.872975 76.14 
L 81.981751 170.892 
L 82.306998 76.14 
L 82.415774 147.204 
L 82.52455 123.516 
L 82.633327 147.204 
L 82.742103 99.828 
L 82.850338 170.892 
L 82.958573 123.516 
L 83.067349 170.892 
L 83.176126 147.204 
L 83.284902 76.14 
L 83.393678 123.516 
L 83.610149 76.14 
L 83.718925 170.892 
L 83.936478 99.828 
L 84.045254 123.516 
L 84.15403 99.828 
L 84.262265 147.204 
L 84.588594 99.828 
L 84.806147 147.204 
L 84.914382 147.204 
L 85.023158 76.14 
L 85.240711 99.828 
L 85.349487 99.828 
L 85.458264 147.204 
L 85.56704 123.516 
L 85.784051 147.204 
L 85.892828 123.516 
L 86.001604 147.204 
L 86.327392 76.14 
L 86.544944 147.204 
L 86.871273 99.828 
L 86.979508 170.892 
L 87.087744 123.516 
L 87.414073 170.892 
L 87.522849 147.204 
L 87.631084 170.892 
L 87.956872 99.828 
L 88.174424 147.204 
L 88.499671 76.14 
L 88.608447 170.892 
L 88.826 123.516 
L 89.043011 76.14 
L 89.36934 170.892 
L 89.478117 147.204 
L 89.695128 147.204 
L 90.020916 99.828 
L 90.238468 170.892 
L 90.454939 123.516 
L 90.672491 147.204 
L 90.781268 147.204 
L 90.890044 170.892 
L 90.99882 123.516 
L 91.107055 147.204 
L 91.324608 99.828 
L 91.542161 147.204 
L 91.650937 123.516 
L 91.867949 147.204 
L 91.976725 147.204 
L 92.194277 123.516 
L 92.303054 123.516 
L 92.520065 170.892 
L 92.737618 123.516 
L 92.846394 123.516 
L 92.955171 99.828 
L 93.063947 147.204 
L 93.172182 123.516 
L 93.280958 170.892 
L 93.389735 99.828 
L 93.607287 170.892 
L 93.824299 99.828 
L 93.933075 170.892 
L 94.041851 123.516 
L 94.259404 194.58 
L 94.585192 99.828 
L 94.802744 170.892 
L 94.911521 123.516 
L 95.020297 147.204 
L 95.129073 123.516 
L 95.345543 147.204 
L 95.563096 123.516 
L 95.671873 170.892 
L 95.888884 123.516 
L 95.997119 170.892 
L 96.323448 123.516 
L 96.432224 123.516 
L 96.541001 99.828 
L 96.758012 123.516 
L 97.084341 123.516 
L 97.193117 147.204 
L 97.409588 99.828 
L 97.518364 99.828 
L 97.62714 170.892 
L 97.735917 123.516 
L 98.061163 170.892 
L 98.278716 147.204 
L 98.387492 170.892 
L 98.604504 123.516 
L 98.712739 99.828 
L 98.821515 123.516 
L 98.930291 99.828 
L 99.039068 170.892 
L 99.147844 99.828 
L 99.364855 170.892 
L 99.582408 123.516 
L 99.691184 170.892 
L 99.908737 76.14 
L 100.125748 147.204 
L 100.234525 99.828 
L 100.560854 170.892 
L 100.669089 123.516 
L 100.777865 147.204 
L 100.886641 123.516 
L 100.995418 170.892 
L 101.21297 123.516 
L 101.321747 99.828 
L 101.538758 147.204 
L 101.756311 76.14 
L 101.973863 170.892 
L 102.190334 76.14 
L 102.516663 170.892 
L 102.733674 123.516 
L 102.950685 194.58 
L 103.059462 170.892 
L 103.277014 123.516 
L 103.38525 147.204 
L 103.493485 123.516 
L 103.602261 194.58 
L 103.819814 123.516 
L 104.037366 123.516 
L 104.145601 170.892 
L 104.363154 123.516 
L 104.47193 147.204 
L 104.580707 99.828 
L 105.01473 170.892 
L 105.232282 123.516 
L 105.341059 123.516 
L 105.557529 194.58 
L 105.666305 99.828 
L 105.883858 147.204 
L 106.10141 170.892 
L 106.318422 123.516 
L 106.427198 147.204 
L 106.644751 123.516 
L 106.861762 194.58 
L 107.079315 123.516 
L 107.188091 194.58 
L 107.405644 76.14 
L 107.513879 147.204 
L 107.622655 123.516 
L 107.731432 170.892 
L 107.948984 123.516 
L 108.057761 170.892 
L 108.274772 123.516 
L 108.383548 99.828 
L 108.601101 147.204 
L 108.818653 99.828 
L 109.035665 170.892 
L 109.253218 123.516 
L 109.361994 170.892 
L 109.579547 123.516 
L 109.796558 170.892 
L 110.014111 99.828 
L 110.339898 170.892 
L 110.448134 147.204 
L 110.55691 170.892 
L 110.774463 147.204 
L 110.883239 170.892 
L 111.099709 147.204 
L 111.208485 170.892 
L 111.426038 123.516 
L 111.534814 147.204 
L 111.751285 123.516 
L 111.968837 147.204 
L 112.077614 123.516 
L 112.18639 147.204 
L 112.295166 123.516 
L 112.403401 194.58 
L 112.620954 147.204 
L 112.72973 170.892 
L 112.838507 123.516 
L 112.947283 170.892 
L 113.164294 99.828 
L 113.381847 170.892 
L 113.5994 123.516 
L 113.708176 123.516 
L 113.816411 99.828 
L 113.925187 147.204 
L 114.14274 123.516 
L 114.468528 170.892 
L 114.577304 147.204 
L 114.794857 170.892 
L 114.903633 170.892 
L 115.012409 99.828 
L 115.120644 194.58 
L 115.337656 123.516 
L 115.446432 170.892 
L 115.555209 147.204 
L 115.77222 170.892 
L 115.880455 170.892 
L 115.989232 99.828 
L 116.098008 218.268 
L 116.206784 123.516 
L 116.31556 170.892 
L 116.640807 123.516 
L 116.749583 123.516 
L 116.85836 170.892 
L 116.967136 147.204 
L 117.184147 170.892 
L 117.4017 123.516 
L 117.510476 147.204 
L 117.728029 99.828 
L 117.836264 170.892 
L 118.162052 99.828 
L 118.596075 170.892 
L 118.813627 123.516 
L 119.03118 170.892 
L 119.248191 170.892 
L 119.356968 123.516 
L 119.465744 194.58 
L 119.574521 99.828 
L 119.792073 147.204 
L 120.009085 170.892 
L 120.117861 147.204 
L 120.335413 170.892 
L 120.44419 170.892 
L 120.661201 123.516 
L 120.769978 194.58 
L 120.878754 123.516 
L 120.98753 170.892 
L 121.096307 147.204 
L 121.205083 194.58 
L 121.422094 147.204 
L 121.530871 123.516 
L 121.639647 194.58 
L 121.857199 123.516 
L 121.965435 194.58 
L 122.074211 147.204 
L 122.182987 194.58 
L 122.40054 99.828 
L 122.509316 218.268 
L 122.618093 147.204 
L 122.726328 218.268 
L 123.052657 123.516 
L 123.270209 170.892 
L 123.48668 170.892 
L 123.595456 147.204 
L 123.704232 170.892 
L 123.813009 147.204 
L 123.921785 170.892 
L 124.03002 147.204 
L 124.247031 194.58 
L 124.464584 170.892 
L 124.57336 170.892 
L 124.790372 147.204 
L 125.007924 170.892 
L 125.225477 170.892 
L 125.334253 123.516 
L 125.550724 170.892 
L 125.6595 147.204 
L 125.768276 170.892 
L 125.985829 123.516 
L 126.094064 170.892 
L 126.419852 123.516 
L 126.637404 147.204 
L 126.962651 147.204 
L 127.071427 123.516 
L 127.28898 170.892 
L 127.505991 123.516 
L 127.614768 147.204 
L 127.723544 123.516 
L 127.941097 194.58 
L 128.049873 123.516 
L 128.158108 194.58 
L 128.266884 147.204 
L 128.375661 218.268 
L 128.593213 147.204 
L 128.70199 170.892 
L 128.919001 170.892 
L 129.027777 123.516 
L 129.136554 147.204 
L 129.24533 123.516 
L 129.571118 170.892 
L 129.679894 147.204 
L 129.897447 170.892 
L 130.114999 123.516 
L 130.33147 194.58 
L 130.440246 170.892 
L 130.549022 147.204 
L 130.657799 170.892 
L 130.766575 123.516 
L 131.091822 170.892 
L 131.309374 123.516 
L 131.634621 170.892 
L 131.852173 123.516 
L 132.069726 170.892 
L 132.178502 194.58 
L 132.286737 123.516 
L 132.395514 194.58 
L 132.613066 123.516 
L 132.830619 170.892 
L 132.938854 123.516 
L 133.047089 170.892 
L 133.155866 123.516 
L 133.264642 147.204 
L 133.373418 123.516 
L 133.482195 147.204 
L 133.59043 218.268 
L 133.698665 147.204 
L 133.807441 170.892 
L 133.916218 123.516 
L 134.242546 218.268 
L 134.568334 170.892 
L 134.677111 194.58 
L 134.785887 123.516 
L 134.894663 147.204 
L 135.002898 123.516 
L 135.111675 170.892 
L 135.220451 147.204 
L 135.438004 170.892 
L 135.54678 99.828 
L 135.763791 194.58 
L 135.981344 194.58 
L 136.198897 170.892 
L 136.524684 170.892 
L 136.633461 123.516 
L 136.742237 170.892 
L 136.95979 99.828 
L 137.068025 218.268 
L 137.176801 194.58 
L 137.285577 123.516 
L 137.394354 147.204 
L 137.611906 123.516 
L 137.720683 194.58 
L 137.937694 123.516 
L 138.04647 147.204 
L 138.264023 170.892 
L 138.372799 147.204 
L 138.481034 194.58 
L 138.58927 123.516 
L 138.698046 170.892 
L 138.806822 123.516 
L 138.915599 170.892 
L 139.13261 147.204 
L 139.240845 194.58 
L 139.349621 123.516 
L 139.67595 218.268 
L 140.001197 123.516 
L 140.327526 170.892 
L 140.544537 147.204 
L 140.76209 170.892 
L 140.870866 170.892 
L 140.979643 99.828 
L 141.196654 194.58 
L 141.414207 123.516 
L 141.631759 170.892 
L 141.740536 170.892 
L 141.849312 194.58 
L 142.1751 147.204 
L 142.392652 170.892 
L 142.501429 170.892 
L 142.71844 123.516 
L 142.827217 170.892 
L 142.935993 123.516 
L 143.044769 194.58 
L 143.153545 147.204 
L 143.26178 170.892 
L 143.370016 147.204 
L 143.587568 218.268 
L 143.805121 123.516 
L 144.239144 194.58 
L 144.34792 123.516 
L 144.456696 170.892 
L 144.564932 123.516 
L 144.781943 170.892 
L 144.890719 170.892 
L 145.108272 218.268 
L 145.325283 170.892 
L 145.43406 170.892 
L 145.651612 194.58 
L 145.869165 147.204 
L 145.9774 194.58 
L 146.085635 123.516 
L 146.520741 194.58 
L 146.628976 194.58 
L 146.737211 147.204 
L 146.954763 194.58 
L 147.172316 147.204 
L 147.281092 123.516 
L 147.498104 170.892 
L 147.824433 123.516 
L 147.933209 170.892 
L 148.258997 123.516 
L 148.585326 218.268 
L 148.694102 147.204 
L 148.911114 194.58 
L 149.01989 170.892 
L 149.128666 194.58 
L 149.346219 123.516 
L 149.454454 170.892 
L 149.56323 147.204 
L 149.672007 194.58 
L 149.889559 123.516 
L 149.998335 147.204 
L 150.106571 123.516 
L 150.215347 147.204 
L 150.324123 218.268 
L 150.650452 123.516 
L 150.759229 123.516 
L 151.085016 194.58 
L 151.302569 147.204 
L 151.51958 218.268 
L 151.627816 194.58 
L 151.845368 147.204 
L 152.062921 170.892 
L 152.171156 147.204 
L 152.388167 170.892 
L 152.496944 170.892 
L 152.60572 147.204 
L 152.714496 218.268 
L 152.931508 147.204 
L 153.040284 194.58 
L 153.14906 170.892 
L 153.257837 194.58 
L 153.366613 123.516 
L 153.475389 218.268 
L 153.583625 123.516 
L 153.69186 194.58 
L 154.126965 123.516 
L 154.2352 123.516 
L 154.560988 170.892 
L 154.669764 147.204 
L 154.77854 170.892 
L 154.886776 147.204 
L 154.995011 170.892 
L 155.103787 123.516 
L 155.212563 218.268 
L 155.32134 170.892 
L 155.430116 194.58 
L 155.538892 123.516 
L 155.755904 194.58 
L 155.86468 194.58 
L 155.973456 170.892 
L 156.191009 218.268 
L 156.516797 123.516 
L 156.843126 170.892 
L 157.060137 170.892 
L 157.168914 194.58 
L 157.495243 147.204 
L 157.712254 170.892 
L 157.82103 170.892 
L 157.929265 123.516 
L 158.146818 218.268 
L 158.363829 147.204 
L 158.472606 194.58 
L 158.690158 123.516 
L 158.907711 170.892 
L 159.015946 147.204 
L 159.124181 170.892 
L 159.232958 147.204 
L 159.45051 194.58 
L 159.775757 123.516 
L 159.99331 147.204 
L 160.102086 147.204 
L 160.210862 194.58 
L 160.319638 147.204 
L 160.427873 194.58 
L 160.53665 147.204 
L 160.862979 218.268 
L 161.188225 147.204 
L 161.405778 170.892 
L 161.623331 170.892 
L 161.839801 147.204 
L 161.948577 147.204 
L 162.057354 170.892 
L 162.16613 123.516 
L 162.274906 147.204 
L 162.383682 123.516 
L 162.600694 194.58 
L 162.70947 147.204 
L 162.927023 218.268 
L 163.252811 147.204 
L 163.470363 194.58 
L 163.57914 147.204 
L 163.687916 241.956 
L 164.013704 147.204 
L 164.12248 123.516 
L 164.340033 170.892 
L 164.448809 123.516 
L 164.557044 170.892 
L 164.774597 147.204 
L 164.992149 170.892 
L 165.100926 147.204 
L 165.209161 194.58 
L 165.426713 147.204 
L 165.53549 194.58 
L 165.753042 147.204 
L 165.861819 218.268 
L 165.970054 147.204 
L 166.187606 170.892 
L 166.296383 170.892 
L 166.513935 147.204 
L 166.730406 170.892 
L 166.839182 170.892 
L 166.947958 218.268 
L 167.165511 170.892 
L 167.273746 218.268 
L 167.381981 170.892 
L 167.490758 194.58 
L 167.599534 123.516 
L 167.817086 170.892 
L 167.925322 147.204 
L 168.142333 170.892 
L 168.251109 147.204 
L 168.359886 194.58 
L 168.468662 99.828 
L 168.685673 170.892 
L 169.012002 170.892 
L 169.120779 218.268 
L 169.33779 147.204 
L 169.446567 170.892 
L 169.555343 123.516 
L 169.664119 218.268 
L 169.772895 194.58 
L 169.881672 123.516 
L 169.990448 218.268 
L 170.098683 147.204 
L 170.207459 170.892 
L 170.425012 147.204 
L 170.642565 170.892 
L 170.7508 170.892 
L 170.968353 218.268 
L 171.077129 147.204 
L 171.185905 170.892 
L 171.402917 147.204 
L 171.511152 170.892 
L 171.728704 147.204 
L 171.837481 194.58 
L 171.946257 170.892 
L 172.054492 194.58 
L 172.162727 147.204 
L 172.271504 194.58 
L 172.38028 123.516 
L 172.489056 170.892 
L 172.597832 147.204 
L 172.706068 194.58 
L 172.814303 123.516 
L 173.031855 218.268 
L 173.249408 170.892 
L 173.358184 147.204 
L 173.575196 218.268 
L 173.901525 147.204 
L 174.226771 194.58 
L 174.335548 194.58 
L 174.5531 170.892 
L 174.770112 194.58 
L 174.987123 194.58 
L 175.0959 123.516 
L 175.204676 218.268 
L 175.313452 123.516 
L 175.530464 218.268 
L 175.63924 170.892 
L 175.748016 194.58 
L 175.965569 170.892 
L 176.18258 170.892 
L 176.400133 218.268 
L 176.508909 123.516 
L 176.726462 218.268 
L 176.835238 147.204 
L 176.943473 170.892 
L 177.05225 147.204 
L 177.269802 194.58 
L 177.378579 194.58 
L 177.487355 170.892 
L 177.813143 218.268 
L 177.921919 170.892 
L 178.030695 194.58 
L 178.247707 123.516 
L 178.356483 170.892 
L 178.574036 147.204 
L 178.791588 218.268 
L 178.900365 147.204 
L 179.117376 218.268 
L 179.226152 194.58 
L 179.334929 218.268 
L 179.443705 170.892 
L 179.552481 218.268 
L 179.768952 170.892 
L 179.877728 170.892 
L 179.986504 194.58 
L 180.095281 170.892 
L 180.204057 194.58 
L 180.312292 147.204 
L 180.529303 170.892 
L 180.746856 123.516 
L 181.18142 218.268 
L 181.507749 123.516 
L 181.616525 170.892 
L 181.832996 147.204 
L 181.941772 218.268 
L 182.159325 170.892 
L 182.268101 170.892 
L 182.376336 194.58 
L 182.593348 170.892 
L 182.702124 194.58 
L 182.919677 123.516 
L 183.027912 147.204 
L 183.136147 147.204 
L 183.244923 194.58 
L 183.353699 147.204 
L 183.462476 194.58 
L 183.571252 170.892 
L 183.680028 218.268 
L 183.788264 194.58 
L 183.89704 265.644 
L 184.114593 170.892 
L 184.223369 170.892 
L 184.332145 218.268 
L 184.44038 147.204 
L 184.657933 194.58 
L 184.766709 194.58 
L 184.875486 218.268 
L 184.984262 147.204 
L 185.201273 170.892 
L 185.418826 147.204 
L 185.527602 218.268 
L 185.636379 147.204 
L 185.962166 194.58 
L 186.070943 147.204 
L 186.288495 218.268 
L 186.505507 170.892 
L 186.613742 218.268 
L 186.722518 147.204 
L 186.940071 218.268 
L 187.048847 170.892 
L 187.157082 218.268 
L 187.265317 170.892 
L 187.374094 194.58 
L 187.48287 170.892 
L 187.700423 218.268 
L 187.916893 194.58 
L 188.134446 218.268 
L 188.351998 218.268 
L 188.460774 194.58 
L 188.56901 218.268 
L 188.677786 170.892 
L 188.786562 194.58 
L 188.895339 147.204 
L 189.112891 194.58 
L 189.438138 147.204 
L 189.546914 170.892 
L 189.65569 147.204 
L 189.764467 194.58 
L 189.872702 123.516 
L 190.089713 194.58 
L 190.19849 194.58 
L 190.416042 170.892 
L 190.633054 170.892 
L 190.850606 123.516 
L 191.28517 194.58 
L 191.502723 170.892 
L 191.611499 218.268 
L 191.720276 147.204 
L 191.937287 170.892 
L 192.046063 147.204 
L 192.15484 170.892 
L 192.263616 123.516 
L 192.372392 194.58 
L 192.589945 147.204 
L 192.69818 218.268 
L 192.915733 170.892 
L 193.133285 218.268 
L 193.242062 170.892 
L 193.350297 194.58 
L 193.56785 147.204 
L 193.676626 170.892 
L 193.785402 123.516 
L 194.002955 170.892 
L 194.11119 147.204 
L 194.219966 170.892 
L 194.328742 123.516 
L 194.546295 194.58 
L 194.655071 194.58 
L 194.763307 218.268 
L 195.197871 147.204 
L 195.306647 218.268 
L 195.414882 170.892 
L 195.523117 218.268 
L 195.849446 147.204 
L 196.066458 170.892 
L 196.174693 147.204 
L 196.283469 170.892 
L 196.501022 147.204 
L 196.609798 218.268 
L 196.826809 147.204 
L 196.935586 147.204 
L 197.261915 218.268 
L 197.478926 170.892 
L 197.587703 194.58 
L 197.696479 170.892 
L 197.805255 194.58 
L 197.914031 170.892 
L 198.022808 218.268 
L 198.348596 170.892 
L 198.457372 170.892 
L 198.674925 194.58 
L 198.783701 194.58 
L 198.891936 170.892 
L 199.000712 194.58 
L 199.109489 147.204 
L 199.218265 194.58 
L 199.327041 170.892 
L 199.435817 218.268 
L 199.544053 147.204 
L 199.652288 218.268 
L 199.86984 123.516 
L 199.978617 194.58 
L 200.195628 123.516 
L 200.303863 194.58 
L 200.630192 123.516 
L 200.955439 218.268 
L 201.064215 147.204 
L 201.607556 241.956 
L 201.825108 170.892 
L 201.933884 170.892 
L 202.042661 218.268 
L 202.259672 170.892 
L 202.367907 194.58 
L 202.476684 170.892 
L 202.58546 218.268 
L 202.803013 123.516 
L 202.911248 170.892 
L 203.019483 147.204 
L 203.128259 170.892 
L 203.345812 147.204 
L 203.563364 218.268 
L 203.6716 218.268 
L 203.889152 170.892 
L 203.997929 194.58 
L 204.215481 123.516 
L 204.323716 170.892 
L 204.432493 147.204 
L 204.650045 218.268 
L 204.758822 170.892 
L 204.867598 194.58 
L 205.193386 147.204 
L 205.302162 218.268 
L 205.410938 194.58 
L 205.519715 218.268 
L 205.736726 170.892 
L 205.845502 241.956 
L 205.954279 170.892 
L 206.063055 218.268 
L 206.280608 194.58 
L 206.497619 241.956 
L 206.932724 170.892 
L 207.149736 170.892 
L 207.258512 218.268 
L 207.367288 170.892 
L 207.476065 218.268 
L 207.584841 123.516 
L 207.801852 218.268 
L 207.910088 170.892 
L 208.018864 218.268 
L 208.345193 147.204 
L 208.561663 194.58 
L 208.779216 170.892 
L 208.887992 218.268 
L 208.996769 170.892 
L 209.105545 194.58 
L 209.322556 170.892 
L 209.431333 170.892 
L 209.648885 218.268 
L 209.865897 147.204 
L 209.974132 170.892 
L 210.082908 194.58 
L 210.191684 170.892 
L 210.408696 218.268 
L 210.625707 170.892 
L 210.84326 194.58 
L 211.060813 170.892 
L 211.277283 194.58 
L 211.494835 170.892 
L 211.603612 194.58 
L 211.712388 170.892 
L 211.821164 194.58 
L 212.038176 123.516 
L 212.255729 194.58 
L 212.364505 170.892 
L 212.473281 218.268 
L 212.690293 147.204 
L 212.799069 147.204 
L 212.907845 241.956 
L 213.233633 147.204 
L 213.342409 170.892 
L 213.668738 218.268 
L 213.886291 194.58 
L 213.994526 218.268 
L 214.103302 123.516 
L 214.212079 194.58 
L 214.320855 147.204 
L 214.538407 218.268 
L 214.754878 194.58 
L 214.972431 218.268 
L 215.189983 170.892 
L 215.298218 265.644 
L 215.406453 147.204 
L 215.732782 218.268 
L 215.949794 147.204 
L 216.058029 170.892 
L 216.384358 218.268 
L 216.60191 147.204 
L 216.710146 170.892 
L 216.818922 123.516 
L 217.145251 170.892 
L 217.254027 147.204 
L 217.579274 218.268 
L 217.796826 170.892 
L 217.905603 218.268 
L 218.122073 170.892 
L 218.339626 170.892 
L 218.448402 147.204 
L 218.665955 170.892 
L 218.77419 170.892 
L 218.882966 147.204 
L 218.991742 170.892 
L 219.100519 241.956 
L 219.535083 170.892 
L 219.752635 170.892 
L 219.861412 194.58 
L 219.970188 170.892 
L 220.078423 194.58 
L 220.187199 147.204 
L 220.404752 194.58 
L 220.731081 147.204 
L 220.948092 218.268 
L 221.056869 170.892 
L 221.165645 194.58 
L 221.383198 170.892 
L 221.600209 170.892 
L 221.708986 147.204 
L 222.035314 194.58 
L 222.252326 170.892 
L 222.469879 218.268 
L 222.578655 218.268 
L 222.687431 170.892 
L 222.796207 194.58 
L 223.121454 147.204 
L 223.339007 147.204 
L 223.664253 218.268 
L 223.77303 194.58 
L 223.881806 218.268 
L 224.099358 170.892 
L 224.207594 147.204 
L 224.315829 170.892 
L 224.424605 147.204 
L 224.642158 170.892 
L 224.750934 170.892 
L 224.85971 241.956 
L 225.076722 170.892 
L 225.185498 218.268 
L 225.294275 147.204 
L 225.511827 218.268 
L 225.620062 194.58 
L 225.728839 194.58 
L 225.837615 170.892 
L 225.946391 218.268 
L 226.055167 170.892 
L 226.27272 194.58 
L 226.380955 123.516 
L 226.489732 194.58 
L 226.598508 170.892 
L 226.707284 218.268 
L 226.924837 147.204 
L 227.141848 170.892 
L 227.250625 147.204 
L 227.468177 218.268 
L 227.576953 147.204 
L 227.793424 170.892 
L 227.9022 170.892 
L 228.010976 194.58 
L 228.336764 123.516 
L 228.444999 218.268 
L 228.553776 147.204 
L 228.662552 194.58 
L 228.880104 170.892 
L 228.98834 194.58 
L 229.096575 170.892 
L 229.53168 241.956 
L 229.857468 123.516 
L 229.966244 123.516 
L 230.075021 218.268 
L 230.183797 123.516 
L 230.292573 218.268 
L 230.509043 147.204 
L 230.944149 218.268 
L 231.269395 218.268 
L 231.486948 194.58 
L 231.7045 194.58 
L 231.921512 218.268 
L 232.139065 147.204 
L 232.247841 218.268 
L 232.356617 194.58 
L 232.464852 123.516 
L 232.573629 218.268 
L 232.791181 147.204 
L 232.899958 194.58 
L 233.008734 147.204 
L 233.225745 170.892 
L 233.334522 170.892 
L 233.660851 218.268 
L 233.769627 194.58 
L 233.877862 218.268 
L 233.986638 123.516 
L 234.204191 194.58 
L 234.312967 194.58 
L 234.421744 218.268 
L 234.638755 170.892 
L 234.965084 218.268 
L 235.073861 194.58 
L 235.182637 218.268 
L 235.399648 147.204 
L 235.508424 218.268 
L 235.725977 170.892 
L 235.834753 170.892 
L 235.942989 147.204 
L 236.16 194.58 
L 236.268776 147.204 
L 236.377553 170.892 
L 236.486329 123.516 
L 236.811576 218.268 
L 236.920352 170.892 
L 237.137905 194.58 
L 237.246681 170.892 
L 237.354916 194.58 
L 237.463692 170.892 
L 237.681245 194.58 
L 237.78948 123.516 
L 237.898256 194.58 
L 238.224044 147.204 
L 238.33282 218.268 
L 238.441597 147.204 
L 238.658608 194.58 
L 238.766843 123.516 
L 238.984396 194.58 
L 239.201949 194.58 
L 239.418419 147.204 
L 239.527195 218.268 
L 239.744748 170.892 
L 239.853524 170.892 
L 239.9623 147.204 
L 240.070536 194.58 
L 240.179312 123.516 
L 240.396865 194.58 
L 240.505641 170.892 
L 240.614417 218.268 
L 240.722652 194.58 
L 240.831429 241.956 
L 241.157758 194.58 
L 241.266534 194.58 
L 241.374769 147.204 
L 241.592322 218.268 
L 241.701098 170.892 
L 241.918651 194.58 
L 242.027427 123.516 
L 242.244438 218.268 
L 242.353215 170.892 
L 242.461991 218.268 
L 242.570767 147.204 
L 242.787779 218.268 
L 242.896014 218.268 
L 243.113567 147.204 
L 243.331119 218.268 
L 243.439354 194.58 
L 243.547589 170.892 
L 243.656366 218.268 
L 243.873918 170.892 
L 243.982695 170.892 
L 244.09093 194.58 
L 244.199165 170.892 
L 244.525494 218.268 
L 244.743046 170.892 
L 244.851282 194.58 
L 244.960058 170.892 
L 245.068834 194.58 
L 245.395163 147.204 
L 245.611634 194.58 
L 245.72041 218.268 
L 245.937962 194.58 
L 246.046739 218.268 
L 246.263209 147.204 
L 246.371985 147.204 
L 246.589538 194.58 
L 246.698314 218.268 
L 246.915326 194.58 
L 247.024102 218.268 
L 247.241655 123.516 
L 247.350431 218.268 
L 247.676219 147.204 
L 247.893771 194.58 
L 248.002548 170.892 
L 248.111324 194.58 
L 248.328336 170.892 
L 248.437112 218.268 
L 248.545888 147.204 
L 248.763441 194.58 
L 248.872217 218.268 
L 249.198005 147.204 
L 249.306781 170.892 
L 249.415558 123.516 
L 249.741345 194.58 
L 249.958898 147.204 
L 250.067674 218.268 
L 250.285227 170.892 
L 250.502238 194.58 
L 250.611015 123.516 
L 250.719791 218.268 
L 251.045579 147.204 
L 251.153814 218.268 
L 251.26259 170.892 
L 251.371366 218.268 
L 251.588919 170.892 
L 251.697154 194.58 
L 251.914166 147.204 
L 252.131718 218.268 
L 252.240495 194.58 
L 252.34873 218.268 
L 252.565741 170.892 
L 252.783294 218.268 
L 252.89207 147.204 
L 253.109082 194.58 
L 253.326634 170.892 
L 253.435411 170.892 
L 253.652963 218.268 
L 253.761198 194.58 
L 253.869975 218.268 
L 254.087527 170.892 
L 254.30508 218.268 
L 254.413856 218.268 
L 254.522091 147.204 
L 254.630868 194.58 
L 254.739644 123.516 
L 254.957197 194.58 
L 255.065973 194.58 
L 255.174208 123.516 
L 255.500537 170.892 
L 255.718089 170.892 
L 256.043336 241.956 
L 256.260889 170.892 
L 256.369665 194.58 
L 256.4779 194.58 
L 256.694912 147.204 
L 256.803688 147.204 
L 256.912464 194.58 
L 257.021241 170.892 
L 257.129476 194.58 
L 257.346487 170.892 
L 258.10738 170.892 
L 258.216157 194.58 
L 258.433709 170.892 
L 258.541944 265.644 
L 258.65018 194.58 
L 258.867732 218.268 
L 259.19352 170.892 
L 259.301755 170.892 
L 259.410531 194.58 
L 259.628084 170.892 
L 259.73686 170.892 
L 259.845637 147.204 
L 260.171424 194.58 
L 260.280201 170.892 
L 260.497753 194.58 
L 260.714765 147.204 
L 260.823541 194.58 
L 260.932317 147.204 
L 261.14987 218.268 
L 261.258646 170.892 
L 261.366881 218.268 
L 261.475658 123.516 
L 261.584434 218.268 
L 261.693211 170.892 
L 261.801987 218.268 
L 261.910763 123.516 
L 262.236551 218.268 
L 262.345327 170.892 
L 262.56288 218.268 
L 262.779891 170.892 
L 262.997444 194.58 
L 263.10622 170.892 
L 263.323773 194.58 
L 263.540784 194.58 
L 263.649561 170.892 
L 263.867113 218.268 
L 264.084125 147.204 
L 264.19236 170.892 
L 264.301136 170.892 
L 264.409912 218.268 
L 264.518689 170.892 
L 264.627465 218.268 
L 264.7357 170.892 
L 265.061488 218.268 
L 265.170264 147.204 
L 265.496052 218.268 
L 265.822381 123.516 
L 266.039934 194.58 
L 266.36518 194.58 
L 266.473957 170.892 
L 266.582733 194.58 
L 266.799203 170.892 
L 267.016756 218.268 
L 267.125532 170.892 
L 267.234308 194.58 
L 267.343085 170.892 
L 267.45132 218.268 
L 267.668331 194.58 
L 267.777108 241.956 
L 267.885884 147.204 
L 267.99466 170.892 
L 268.211672 123.516 
L 268.320448 147.204 
L 268.429224 123.516 
L 268.646777 194.58 
L 268.755553 147.204 
L 268.863788 170.892 
L 268.972565 147.204 
L 269.081341 218.268 
L 269.298894 170.892 
L 269.40767 194.58 
L 269.624681 170.892 
L 269.842234 194.58 
L 270.059787 170.892 
L 270.168563 194.58 
L 270.385574 170.892 
L 270.494351 194.58 
L 270.711903 147.204 
L 271.145926 218.268 
L 271.363479 194.58 
L 271.472255 218.268 
L 271.58049 170.892 
L 271.688725 218.268 
L 271.906278 147.204 
L 272.123831 218.268 
L 272.340301 123.516 
L 272.449077 218.268 
L 272.557854 170.892 
L 272.66663 218.268 
L 272.884182 170.892 
L 272.992418 218.268 
L 273.20997 170.892 
L 273.318747 218.268 
L 273.427523 170.892 
L 273.644534 218.268 
L 273.75277 170.892 
L 273.970322 218.268 
L 274.187875 147.204 
L 274.29611 241.956 
L 274.513121 170.892 
L 274.730674 218.268 
L 274.83945 147.204 
L 275.056462 194.58 
L 275.165238 170.892 
L 275.274014 218.268 
L 275.382791 170.892 
L 275.491567 194.58 
L 275.708578 170.892 
L 275.817355 170.892 
L 275.926131 218.268 
L 276.034908 147.204 
L 276.25246 170.892 
L 276.360695 170.892 
L 276.469472 194.58 
L 276.687024 170.892 
L 277.230365 170.892 
L 277.339141 147.204 
L 277.556694 170.892 
L 277.66547 147.204 
L 277.991258 194.58 
L 278.20881 170.892 
L 278.426363 218.268 
L 278.643374 170.892 
L 278.752151 194.58 
L 278.969703 147.204 
L 279.403726 218.268 
L 279.621279 123.516 
L 279.730055 241.956 
L 279.946525 170.892 
L 280.272854 170.892 
L 280.381631 147.204 
L 280.489866 194.58 
L 280.598101 170.892 
L 280.815654 218.268 
L 280.92443 218.268 
L 281.033206 170.892 
L 281.141982 218.268 
L 281.358994 123.516 
L 281.46777 194.58 
L 281.685323 170.892 
L 281.794099 170.892 
L 281.902334 194.58 
L 282.119887 147.204 
L 282.446216 218.268 
L 282.663227 170.892 
L 282.772004 218.268 
L 282.989556 147.204 
L 283.098333 218.268 
L 283.207109 170.892 
L 283.315344 218.268 
L 283.532897 170.892 
L 283.641673 170.892 
L 283.750449 123.516 
L 283.967461 147.204 
L 284.184472 147.204 
L 284.293249 170.892 
L 284.402025 241.956 
L 284.510801 147.204 
L 284.727271 218.268 
L 284.944824 170.892 
L 285.270612 241.956 
L 285.487623 170.892 
L 285.5964 218.268 
L 285.705176 147.204 
L 285.813952 218.268 
L 285.922729 170.892 
L 286.030964 218.268 
L 286.13974 170.892 
L 286.248516 241.956 
L 286.466069 194.58 
L 286.791316 194.58 
L 286.900092 147.204 
L 287.008868 218.268 
L 287.226421 170.892 
L 287.442891 218.268 
L 287.551667 170.892 
L 287.76922 218.268 
L 287.986773 147.204 
L 288.095008 194.58 
L 288.203784 170.892 
L 288.530113 218.268 
L 288.638889 147.204 
L 288.855901 218.268 
L 288.964677 194.58 
L 289.073453 194.58 
L 289.18223 218.268 
L 289.399782 170.892 
L 289.616794 147.204 
L 289.834347 218.268 
L 290.051899 194.58 
L 290.26891 218.268 
L 290.377687 147.204 
L 290.59524 170.892 
L 290.921027 170.892 
L 291.029804 241.956 
L 291.13858 147.204 
L 291.356133 194.58 
L 291.573144 170.892 
L 291.68192 194.58 
L 292.008249 147.204 
L 292.225261 218.268 
L 292.442272 194.58 
L 292.551049 241.956 
L 292.659825 170.892 
L 292.768601 218.268 
L 292.985071 170.892 
L 293.093848 194.58 
L 293.202624 123.516 
L 293.3114 194.58 
L 293.528953 123.516 
L 293.745964 218.268 
L 293.854741 123.516 
L 294.072293 194.58 
L 294.18107 147.204 
L 294.289305 170.892 
L 294.39754 147.204 
L 294.615093 218.268 
L 294.723869 147.204 
L 294.832645 218.268 
L 294.94088 170.892 
L 295.157892 241.956 
L 295.266668 147.204 
L 295.375444 194.58 
L 295.484221 170.892 
L 295.592456 218.268 
L 295.809467 147.204 
L 295.918244 194.58 
L 296.02702 170.892 
L 296.135796 218.268 
L 296.352808 194.58 
L 296.461584 218.268 
L 296.57036 170.892 
L 296.679137 218.268 
L 296.896689 170.892 
L 297.004924 170.892 
L 297.113701 218.268 
L 297.331253 123.516 
L 297.44003 147.204 
L 297.548806 123.516 
L 297.657041 170.892 
L 297.765817 147.204 
L 297.98337 194.58 
L 298.092146 170.892 
L 298.309699 265.644 
L 298.52671 147.204 
L 298.635487 218.268 
L 298.744263 170.892 
L 298.853039 218.268 
L 298.961816 170.892 
L 299.178286 218.268 
L 299.395839 170.892 
L 299.504615 241.956 
L 299.721626 170.892 
L 299.829861 218.268 
L 300.047414 170.892 
L 300.156191 194.58 
L 300.264967 147.204 
L 300.373202 194.58 
L 300.481437 170.892 
L 300.69899 218.268 
L 300.807766 170.892 
L 301.025319 218.268 
L 301.351106 147.204 
L 301.459883 194.58 
L 301.568659 147.204 
L 301.677435 218.268 
L 301.78567 123.516 
L 301.893906 218.268 
L 302.002682 147.204 
L 302.220235 218.268 
L 302.437246 218.268 
L 302.654257 147.204 
L 302.763034 170.892 
L 302.87181 194.58 
L 303.089363 147.204 
L 303.197598 194.58 
L 303.41515 147.204 
L 303.632703 218.268 
L 303.849715 170.892 
L 304.067267 218.268 
L 304.176044 170.892 
L 304.393596 218.268 
L 304.719384 147.204 
L 304.936937 170.892 
L 305.154489 170.892 
L 305.480277 218.268 
L 305.589053 194.58 
L 305.69783 218.268 
L 305.914841 147.204 
L 306.023617 218.268 
L 306.132394 170.892 
L 306.349946 218.268 
L 306.567499 147.204 
L 306.78451 241.956 
L 306.893287 218.268 
L 307.002063 147.204 
L 307.219616 218.268 
L 307.327851 147.204 
L 307.436086 170.892 
L 307.544862 147.204 
L 307.762415 194.58 
L 307.871191 170.892 
L 308.087661 218.268 
L 308.305214 147.204 
L 308.41399 170.892 
L 308.522767 218.268 
L 308.631002 123.516 
L 308.848013 170.892 
L 308.95679 170.892 
L 309.065566 218.268 
L 309.391354 123.516 
L 309.50013 123.516 
L 309.717683 194.58 
L 309.935235 147.204 
L 310.04347 218.268 
L 310.152247 123.516 
L 310.261023 218.268 
L 310.369799 194.58 
L 310.478576 123.516 
L 310.587352 194.58 
L 310.804363 147.204 
L 310.91314 218.268 
L 311.021916 123.516 
L 311.130692 194.58 
L 311.348245 170.892 
L 311.782809 241.956 
L 311.891585 170.892 
L 312.108597 194.58 
L 312.325608 147.204 
L 312.434385 194.58 
L 312.651937 170.892 
L 312.760172 194.58 
L 312.868407 170.892 
L 312.977184 194.58 
L 313.08596 170.892 
L 313.194736 194.58 
L 313.303513 123.516 
L 313.519983 194.58 
L 313.628759 123.516 
L 313.955088 194.58 
L 314.063865 147.204 
L 314.280876 218.268 
L 314.389652 218.268 
L 314.715981 170.892 
L 314.824216 170.892 
L 314.932452 194.58 
L 315.041228 147.204 
L 315.258781 170.892 
L 315.367557 170.892 
L 315.692803 241.956 
L 315.80158 218.268 
L 315.910356 123.516 
L 316.127909 170.892 
L 316.34492 170.892 
L 316.562473 218.268 
L 316.780025 194.58 
L 316.88826 265.644 
L 317.105813 170.892 
L 317.214589 194.58 
L 317.323366 147.204 
L 317.432142 218.268 
L 317.540918 147.204 
L 317.649154 218.268 
L 317.866706 147.204 
L 317.975483 170.892 
L 318.084259 218.268 
L 318.30127 147.204 
L 318.410047 170.892 
L 318.518823 170.892 
L 318.627599 218.268 
L 318.736376 194.58 
L 318.845152 218.268 
L 319.062163 170.892 
L 319.17094 194.58 
L 319.388492 147.204 
L 319.606045 241.956 
L 319.823056 194.58 
L 319.931833 194.58 
L 320.149385 218.268 
L 320.258162 218.268 
L 320.366397 170.892 
L 320.583408 194.58 
L 320.692185 123.516 
L 321.017972 218.268 
L 321.126207 218.268 
L 321.34376 170.892 
L 321.561313 218.268 
L 321.670089 147.204 
L 321.778324 218.268 
L 321.995877 170.892 
L 322.430441 170.892 
L 322.647452 218.268 
L 322.865005 147.204 
L 322.973781 123.516 
L 323.082016 170.892 
L 323.190252 123.516 
L 323.407804 147.204 
L 323.51658 147.204 
L 323.625357 194.58 
L 323.950603 147.204 
L 324.168156 218.268 
L 324.385709 170.892 
L 324.60272 170.892 
L 324.820273 218.268 
L 324.929049 147.204 
L 325.14606 194.58 
L 325.254837 147.204 
L 325.363613 170.892 
L 325.472389 147.204 
L 325.581166 170.892 
L 325.689942 147.204 
L 325.798177 170.892 
L 325.906953 147.204 
L 326.01573 170.892 
L 326.124506 123.516 
L 326.450835 218.268 
L 326.776623 147.204 
L 327.102952 194.58 
L 327.319422 170.892 
L 327.536975 170.892 
L 327.645751 218.268 
L 327.754527 170.892 
L 327.970998 194.58 
L 328.079774 147.204 
L 328.18855 194.58 
L 328.406103 170.892 
L 328.622573 241.956 
L 328.731349 147.204 
L 328.948902 170.892 
L 329.057678 170.892 
L 329.166455 218.268 
L 329.27469 170.892 
L 329.492242 218.268 
L 329.601019 170.892 
L 329.709795 194.58 
L 329.818571 170.892 
L 330.035042 218.268 
L 330.143818 218.268 
L 330.361371 147.204 
L 330.578382 218.268 
L 330.686617 194.58 
L 330.795394 123.516 
L 331.121723 194.58 
L 331.338734 170.892 
L 331.44751 218.268 
L 331.556286 123.516 
L 331.665063 218.268 
L 331.773839 170.892 
L 331.990851 194.58 
L 332.099627 194.58 
L 332.31718 170.892 
L 332.534732 218.268 
L 332.751744 147.204 
L 332.969296 218.268 
L 333.078073 170.892 
L 333.186849 194.58 
L 333.295625 123.516 
L 333.512637 194.58 
L 333.621413 170.892 
L 333.838966 170.892 
L 333.947742 147.204 
L 334.055977 218.268 
L 334.27353 170.892 
L 334.382306 194.58 
L 334.599859 170.892 
L 334.708635 218.268 
L 334.81687 170.892 
L 334.925646 194.58 
L 335.143199 170.892 
L 335.468987 170.892 
L 335.577222 147.204 
L 335.685998 194.58 
L 335.903551 147.204 
L 336.120562 218.268 
L 336.228797 194.58 
L 336.44635 218.268 
L 336.555127 218.268 
L 336.772138 194.58 
L 336.880373 218.268 
L 337.097926 147.204 
L 337.424255 194.58 
L 337.53249 170.892 
L 337.750042 194.58 
L 337.858819 170.892 
L 338.076371 218.268 
L 338.184606 170.892 
L 338.402159 265.644 
L 338.510935 170.892 
L 338.619712 194.58 
L 338.728488 170.892 
L 338.945499 194.58 
L 339.163052 170.892 
L 339.380605 194.58 
L 339.597616 147.204 
L 339.706392 194.58 
L 339.815169 147.204 
L 340.141498 218.268 
L 340.249733 170.892 
L 340.357968 218.268 
L 340.793073 147.204 
L 340.901308 147.204 
L 341.227096 194.58 
L 341.335873 123.516 
L 341.552884 194.58 
L 341.769895 194.58 
L 341.987448 170.892 
L 342.205001 218.268 
L 342.422012 147.204 
L 342.639565 170.892 
L 342.965352 170.892 
L 343.29114 241.956 
L 343.616928 194.58 
L 343.725163 241.956 
L 343.833939 123.516 
L 344.051492 194.58 
L 344.160269 147.204 
L 344.269045 194.58 
L 344.594833 147.204 
L 344.812385 218.268 
L 344.921161 218.268 
L 345.029397 194.58 
L 345.138173 218.268 
L 345.355726 147.204 
L 345.573278 218.268 
L 345.79029 170.892 
L 346.116619 170.892 
L 346.225395 123.516 
L 346.442406 218.268 
L 346.551183 218.268 
L 346.877512 170.892 
L 347.094523 218.268 
L 347.203299 218.268 
L 347.312076 170.892 
L 347.529628 218.268 
L 347.638405 241.956 
L 347.855416 218.268 
L 347.964192 218.268 
L 348.181745 170.892 
L 348.507533 170.892 
L 348.615768 194.58 
L 348.833321 170.892 
L 348.942097 170.892 
L 349.050873 194.58 
L 349.267343 170.892 
L 349.484896 218.268 
L 349.702449 170.892 
L 349.811225 147.204 
L 349.91946 194.58 
L 350.137013 147.204 
L 350.354565 241.956 
L 350.571577 170.892 
L 350.897365 241.956 
L 351.223152 170.892 
L 351.331388 218.268 
L 351.54894 170.892 
L 351.766493 194.58 
L 351.982963 194.58 
L 352.091739 170.892 
L 352.200516 194.58 
L 352.309292 147.204 
L 352.418068 218.268 
L 352.63508 147.204 
L 352.743856 147.204 
L 352.852632 170.892 
L 352.961409 147.204 
L 353.070185 170.892 
L 353.287196 147.204 
L 353.722302 218.268 
L 353.831078 218.268 
L 354.04809 194.58 
L 354.156866 194.58 
L 354.265642 218.268 
L 354.483195 170.892 
L 354.591971 194.58 
L 354.700206 147.204 
L 354.808983 194.58 
L 354.917759 170.892 
L 355.135312 218.268 
L 355.352323 170.892 
L 355.678111 218.268 
L 355.786887 218.268 
L 355.895663 170.892 
L 356.003898 194.58 
L 356.329686 123.516 
L 356.438463 194.58 
L 356.655474 147.204 
L 356.763709 218.268 
L 356.872485 170.892 
L 357.090038 218.268 
L 357.307591 170.892 
L 357.415826 170.892 
L 357.524602 147.204 
L 357.633379 194.58 
L 357.742155 170.892 
L 357.850931 218.268 
L 358.067943 194.58 
L 358.176178 218.268 
L 358.39373 170.892 
L 358.502507 218.268 
L 358.719518 170.892 
L 358.827753 147.204 
L 358.93653 194.58 
L 359.045306 170.892 
L 359.262859 194.58 
L 359.371635 194.58 
L 359.47987 147.204 
L 359.697423 218.268 
L 359.806199 170.892 
L 359.914975 218.268 
L 360.240763 147.204 
L 360.349539 194.58 
L 360.675868 147.204 
L 360.784103 194.58 
L 361.001656 147.204 
L 361.110432 194.58 
L 361.219209 170.892 
L 361.327985 218.268 
L 361.544996 147.204 
L 361.762549 170.892 
L 361.871325 170.892 
L 362.088878 218.268 
L 362.197113 194.58 
L 362.305889 218.268 
L 362.414666 170.892 
L 362.632218 194.58 
L 362.740995 147.204 
L 362.958006 241.956 
L 363.066782 170.892 
L 363.175559 218.268 
L 363.284335 123.516 
L 363.501888 194.58 
L 363.610123 170.892 
L 363.718358 194.58 
L 363.827134 170.892 
L 364.044687 218.268 
L 364.261698 170.892 
L 364.369934 170.892 
L 364.47871 194.58 
L 364.587486 123.516 
L 364.805039 218.268 
L 364.913274 170.892 
L 365.021509 241.956 
L 365.347838 170.892 
L 365.673626 218.268 
L 365.891178 170.892 
L 365.999955 194.58 
L 366.217507 170.892 
L 366.325742 241.956 
L 366.760848 123.516 
L 366.869624 147.204 
L 367.086635 218.268 
L 367.195412 194.58 
L 367.304188 194.58 
L 367.521741 170.892 
L 367.630517 218.268 
L 367.847528 170.892 
L 367.956305 170.892 
L 368.173857 241.956 
L 368.390869 170.892 
L 368.60788 147.204 
L 368.716657 170.892 
L 368.825433 147.204 
L 369.15068 194.58 
L 369.259456 170.892 
L 369.477009 194.58 
L 369.69402 147.204 
L 369.802255 194.58 
L 369.911031 170.892 
L 370.128584 218.268 
L 370.454372 170.892 
L 370.563148 170.892 
L 370.671924 218.268 
L 370.889477 147.204 
L 371.106489 218.268 
L 371.214724 147.204 
L 371.3235 194.58 
L 371.541053 170.892 
L 371.649829 218.268 
L 371.866299 170.892 
L 371.975076 170.892 
L 372.083852 218.268 
L 372.192628 123.516 
L 372.301405 194.58 
L 372.410181 170.892 
L 372.627192 218.268 
L 372.844745 147.204 
L 372.953521 170.892 
L 373.062297 123.516 
L 373.388085 241.956 
L 373.714414 147.204 
L 373.82319 170.892 
L 374.040202 218.268 
L 374.257755 147.204 
L 374.366531 170.892 
L 374.475307 147.204 
L 374.692319 170.892 
L 374.801095 170.892 
L 374.909871 147.204 
L 375.235659 218.268 
L 375.344435 194.58 
L 375.453212 241.956 
L 375.561988 147.204 
L 375.670764 218.268 
L 375.888317 170.892 
L 375.996552 194.58 
L 376.214105 170.892 
L 376.322881 218.268 
L 376.540434 170.892 
L 376.648669 147.204 
L 376.86568 170.892 
L 376.974457 170.892 
L 377.083233 218.268 
L 377.300244 194.58 
L 377.408479 194.58 
L 377.734808 147.204 
L 377.843585 170.892 
L 377.952361 147.204 
L 378.060596 170.892 
L 378.169373 241.956 
L 378.278149 147.204 
L 378.386925 218.268 
L 378.495701 170.892 
L 378.604478 194.58 
L 378.820948 123.516 
L 379.038501 170.892 
L 379.147277 194.58 
L 379.256053 170.892 
L 379.364288 194.58 
L 379.472524 265.644 
L 379.5813 170.892 
L 379.690076 241.956 
L 379.907629 147.204 
L 380.015864 170.892 
L 380.124099 147.204 
L 380.341652 170.892 
L 380.667981 170.892 
L 380.884992 218.268 
L 380.993768 218.268 
L 381.102545 170.892 
L 381.211321 218.268 
L 381.428332 170.892 
L 381.537109 218.268 
L 381.754662 123.516 
L 381.863438 194.58 
L 382.080449 170.892 
L 382.189226 218.268 
L 382.406778 170.892 
L 382.624331 170.892 
L 382.733107 194.58 
L 382.841342 123.516 
L 382.950119 218.268 
L 383.167671 170.892 
L 383.276448 170.892 
L 383.385224 218.268 
L 383.493459 170.892 
L 383.71047 218.268 
L 384.036799 170.892 
L 384.362046 170.892 
L 384.470822 194.58 
L 384.688375 170.892 
L 384.79661 194.58 
L 385.013621 147.204 
L 385.231174 194.58 
L 385.33995 194.58 
L 385.448727 218.268 
L 385.556962 170.892 
L 385.774515 194.58 
L 385.883291 170.892 
L 385.992067 218.268 
L 386.209079 170.892 
L 386.42609 194.58 
L 386.534866 170.892 
L 386.643643 194.58 
L 386.860654 147.204 
L 387.186442 218.268 
L 387.403995 170.892 
L 387.512771 170.892 
L 387.838559 218.268 
L 387.947335 218.268 
L 388.164887 170.892 
L 388.273123 218.268 
L 388.490675 147.204 
L 388.599452 194.58 
L 388.708228 170.892 
L 388.925239 218.268 
L 389.034016 147.204 
L 389.360345 218.268 
L 389.577897 170.892 
L 389.686132 241.956 
L 389.794909 147.204 
L 390.012461 194.58 
L 390.121238 194.58 
L 390.447025 123.516 
L 390.555802 194.58 
L 390.664578 170.892 
L 390.882131 241.956 
L 391.207918 170.892 
L 391.425471 218.268 
L 391.643024 170.892 
L 391.859494 170.892 
L 391.96827 218.268 
L 392.077047 170.892 
L 392.185823 194.58 
L 392.294599 147.204 
L 392.402834 194.58 
L 392.619846 170.892 
L 392.837399 170.892 
L 392.946175 147.204 
L 393.162645 194.58 
L 393.271421 170.892 
L 393.380198 218.268 
L 393.59775 147.204 
L 393.706527 147.204 
L 393.814762 218.268 
L 394.032314 194.58 
L 394.141091 194.58 
L 394.249867 170.892 
L 394.358643 194.58 
L 394.466878 147.204 
L 394.684431 194.58 
L 394.793207 170.892 
L 394.901984 218.268 
L 395.01076 147.204 
L 395.227772 194.58 
L 395.554101 147.204 
L 395.662877 218.268 
L 395.771653 170.892 
L 395.988664 194.58 
L 396.097441 170.892 
L 396.42377 218.268 
L 396.532005 147.204 
L 396.749016 218.268 
L 396.966569 147.204 
L 397.18358 194.58 
L 397.291816 123.516 
L 397.618145 218.268 
L 397.835156 170.892 
L 397.943391 218.268 
L 398.052168 170.892 
L 398.26972 194.58 
L 398.378496 194.58 
L 398.487273 123.516 
L 398.487273 123.516 
" style="fill:none;stroke:#ff7f0e;stroke-linecap:square;stroke-width:1.5;"/>
   </g>
   <g id="patch_3">
    <path d="M 57.6 301.176 
L 57.6 40.608 
" style="fill:none;stroke:#000000;stroke-linecap:square;stroke-linejoin:miter;stroke-width:0.8;"/>
   </g>
   <g id="patch_4">
    <path d="M 414.72 301.176 
L 414.72 40.608 
" style="fill:none;stroke:#000000;stroke-linecap:square;stroke-linejoin:miter;stroke-width:0.8;"/>
   </g>
   <g id="patch_5">
    <path d="M 57.6 301.176 
L 414.72 301.176 
" style="fill:none;stroke:#000000;stroke-linecap:square;stroke-linejoin:miter;stroke-width:0.8;"/>
   </g>
   <g id="patch_6">
    <path d="M 57.6 40.608 
L 414.72 40.608 
" style="fill:none;stroke:#000000;stroke-linecap:square;stroke-linejoin:miter;stroke-width:0.8;"/>
   </g>
   <g id="text_16">
    <!-- Temperatures of heater -->
    <defs>
     <path d="M 30.609375 48.390625 
Q 23.390625 48.390625 19.1875 42.75 
Q 14.984375 37.109375 14.984375 27.296875 
Q 14.984375 17.484375 19.15625 11.84375 
Q 23.34375 6.203125 30.609375 6.203125 
Q 37.796875 6.203125 41.984375 11.859375 
Q 46.1875 17.53125 46.1875 27.296875 
Q 46.1875 37.015625 41.984375 42.703125 
Q 37.796875 48.390625 30.609375 48.390625 
z
M 30.609375 56 
Q 42.328125 56 49.015625 48.375 
Q 55.71875 40.765625 55.71875 27.296875 
Q 55.71875 13.875 49.015625 6.21875 
Q 42.328125 -1.421875 30.609375 -1.421875 
Q 18.84375 -1.421875 12.171875 6.21875 
Q 5.515625 13.875 5.515625 27.296875 
Q 5.515625 40.765625 12.171875 48.375 
Q 18.84375 56 30.609375 56 
z
" id="DejaVuSans-6f"/>
     <path d="M 37.109375 75.984375 
L 37.109375 68.5 
L 28.515625 68.5 
Q 23.6875 68.5 21.796875 66.546875 
Q 19.921875 64.59375 19.921875 59.515625 
L 19.921875 54.6875 
L 34.71875 54.6875 
L 34.71875 47.703125 
L 19.921875 47.703125 
L 19.921875 0 
L 10.890625 0 
L 10.890625 47.703125 
L 2.296875 47.703125 
L 2.296875 54.6875 
L 10.890625 54.6875 
L 10.890625 58.5 
Q 10.890625 67.625 15.140625 71.796875 
Q 19.390625 75.984375 28.609375 75.984375 
z
" id="DejaVuSans-66"/>
     <path d="M 54.890625 33.015625 
L 54.890625 0 
L 45.90625 0 
L 45.90625 32.71875 
Q 45.90625 40.484375 42.875 44.328125 
Q 39.84375 48.1875 33.796875 48.1875 
Q 26.515625 48.1875 22.3125 43.546875 
Q 18.109375 38.921875 18.109375 30.90625 
L 18.109375 0 
L 9.078125 0 
L 9.078125 75.984375 
L 18.109375 75.984375 
L 18.109375 46.1875 
Q 21.34375 51.125 25.703125 53.5625 
Q 30.078125 56 35.796875 56 
Q 45.21875 56 50.046875 50.171875 
Q 54.890625 44.34375 54.890625 33.015625 
z
" id="DejaVuSans-68"/>
    </defs>
    <g transform="translate(164.614688 34.608)scale(0.12 -0.12)">
     <use xlink:href="#DejaVuSans-54"/>
     <use x="60.818359" xlink:href="#DejaVuSans-65"/>
     <use x="122.341797" xlink:href="#DejaVuSans-6d"/>
     <use x="219.753906" xlink:href="#DejaVuSans-70"/>
     <use x="283.230469" xlink:href="#DejaVuSans-65"/>
     <use x="344.753906" xlink:href="#DejaVuSans-72"/>
     <use x="385.867188" xlink:href="#DejaVuSans-61"/>
     <use x="447.146484" xlink:href="#DejaVuSans-74"/>
     <use x="486.355469" xlink:href="#DejaVuSans-75"/>
     <use x="549.734375" xlink:href="#DejaVuSans-72"/>
     <use x="590.816406" xlink:href="#DejaVuSans-65"/>
     <use x="652.339844" xlink:href="#DejaVuSans-73"/>
     <use x="704.439453" xlink:href="#DejaVuSans-20"/>
     <use x="736.226562" xlink:href="#DejaVuSans-6f"/>
     <use x="797.408203" xlink:href="#DejaVuSans-66"/>
     <use x="832.613281" xlink:href="#DejaVuSans-20"/>
     <use x="864.400391" xlink:href="#DejaVuSans-68"/>
     <use x="927.779297" xlink:href="#DejaVuSans-65"/>
     <use x="989.302734" xlink:href="#DejaVuSans-61"/>
     <use x="1050.582031" xlink:href="#DejaVuSans-74"/>
     <use x="1089.791016" xlink:href="#DejaVuSans-65"/>
     <use x="1151.314453" xlink:href="#DejaVuSans-72"/>
    </g>
   </g>
   <g id="legend_1">
    <g id="patch_7">
     <path d="M 328.585625 77.96425 
L 407.72 77.96425 
Q 409.72 77.96425 409.72 75.96425 
L 409.72 47.608 
Q 409.72 45.608 407.72 45.608 
L 328.585625 45.608 
Q 326.585625 45.608 326.585625 47.608 
L 326.585625 75.96425 
Q 326.585625 77.96425 328.585625 77.96425 
z
" style="fill:#ffffff;opacity:0.8;stroke:#cccccc;stroke-linejoin:miter;"/>
    </g>
    <g id="line2d_16">
     <path d="M 330.585625 53.706437 
L 350.585625 53.706437 
" style="fill:none;stroke:#1f77b4;stroke-linecap:square;stroke-width:1.5;"/>
    </g>
    <g id="line2d_17"/>
    <g id="text_17">
     <!-- Setpoints -->
     <defs>
      <path d="M 53.515625 70.515625 
L 53.515625 60.890625 
Q 47.90625 63.578125 42.921875 64.890625 
Q 37.9375 66.21875 33.296875 66.21875 
Q 25.25 66.21875 20.875 63.09375 
Q 16.5 59.96875 16.5 54.203125 
Q 16.5 49.359375 19.40625 46.890625 
Q 22.3125 44.4375 30.421875 42.921875 
L 36.375 41.703125 
Q 47.40625 39.59375 52.65625 34.296875 
Q 57.90625 29 57.90625 20.125 
Q 57.90625 9.515625 50.796875 4.046875 
Q 43.703125 -1.421875 29.984375 -1.421875 
Q 24.8125 -1.421875 18.96875 -0.25 
Q 13.140625 0.921875 6.890625 3.21875 
L 6.890625 13.375 
Q 12.890625 10.015625 18.65625 8.296875 
Q 24.421875 6.59375 29.984375 6.59375 
Q 38.421875 6.59375 43.015625 9.90625 
Q 47.609375 13.234375 47.609375 19.390625 
Q 47.609375 24.75 44.3125 27.78125 
Q 41.015625 30.8125 33.5 32.328125 
L 27.484375 33.5 
Q 16.453125 35.6875 11.515625 40.375 
Q 6.59375 45.0625 6.59375 53.421875 
Q 6.59375 63.09375 13.40625 68.65625 
Q 20.21875 74.21875 32.171875 74.21875 
Q 37.3125 74.21875 42.625 73.28125 
Q 47.953125 72.359375 53.515625 70.515625 
z
" id="DejaVuSans-53"/>
      <path d="M 9.421875 54.6875 
L 18.40625 54.6875 
L 18.40625 0 
L 9.421875 0 
z
M 9.421875 75.984375 
L 18.40625 75.984375 
L 18.40625 64.59375 
L 9.421875 64.59375 
z
" id="DejaVuSans-69"/>
      <path d="M 54.890625 33.015625 
L 54.890625 0 
L 45.90625 0 
L 45.90625 32.71875 
Q 45.90625 40.484375 42.875 44.328125 
Q 39.84375 48.1875 33.796875 48.1875 
Q 26.515625 48.1875 22.3125 43.546875 
Q 18.109375 38.921875 18.109375 30.90625 
L 18.109375 0 
L 9.078125 0 
L 9.078125 54.6875 
L 18.109375 54.6875 
L 18.109375 46.1875 
Q 21.34375 51.125 25.703125 53.5625 
Q 30.078125 56 35.796875 56 
Q 45.21875 56 50.046875 50.171875 
Q 54.890625 44.34375 54.890625 33.015625 
z
" id="DejaVuSans-6e"/>
     </defs>
     <g transform="translate(358.585625 57.206437)scale(0.1 -0.1)">
      <use xlink:href="#DejaVuSans-53"/>
      <use x="63.476562" xlink:href="#DejaVuSans-65"/>
      <use x="125" xlink:href="#DejaVuSans-74"/>
      <use x="164.208984" xlink:href="#DejaVuSans-70"/>
      <use x="227.685547" xlink:href="#DejaVuSans-6f"/>
      <use x="288.867188" xlink:href="#DejaVuSans-69"/>
      <use x="316.650391" xlink:href="#DejaVuSans-6e"/>
      <use x="380.029297" xlink:href="#DejaVuSans-74"/>
      <use x="419.238281" xlink:href="#DejaVuSans-73"/>
     </g>
    </g>
    <g id="line2d_18">
     <path d="M 330.585625 68.384563 
L 350.585625 68.384563 
" style="fill:none;stroke:#ff7f0e;stroke-linecap:square;stroke-width:1.5;"/>
    </g>
    <g id="line2d_19"/>
    <g id="text_18">
     <!-- Heater -->
     <defs>
      <path d="M 9.8125 72.90625 
L 19.671875 72.90625 
L 19.671875 43.015625 
L 55.515625 43.015625 
L 55.515625 72.90625 
L 65.375 72.90625 
L 65.375 0 
L 55.515625 0 
L 55.515625 34.71875 
L 19.671875 34.71875 
L 19.671875 0 
L 9.8125 0 
z
" id="DejaVuSans-48"/>
     </defs>
     <g transform="translate(358.585625 71.884563)scale(0.1 -0.1)">
      <use xlink:href="#DejaVuSans-48"/>
      <use x="75.195312" xlink:href="#DejaVuSans-65"/>
      <use x="136.71875" xlink:href="#DejaVuSans-61"/>
      <use x="197.998047" xlink:href="#DejaVuSans-74"/>
      <use x="237.207031" xlink:href="#DejaVuSans-65"/>
      <use x="298.730469" xlink:href="#DejaVuSans-72"/>
     </g>
    </g>
   </g>
  </g>
 </g>
 <defs>
  <clipPath id="pe9996f2304">
   <rect height="260.568" width="357.12" x="57.6" y="40.608"/>
  </clipPath>
 </defs>
</svg>
