<?xml version="1.0" encoding="utf-8" standalone="no"?>
<!DOCTYPE svg PUBLIC "-//W3C//DTD SVG 1.1//EN"
  "http://www.w3.org/Graphics/SVG/1.1/DTD/svg11.dtd">
<!-- Created with matplotlib (http://matplotlib.org/) -->
<svg height="345pt" version="1.1" viewBox="0 0 460 345" width="460pt" xmlns="http://www.w3.org/2000/svg" xmlns:xlink="http://www.w3.org/1999/xlink">
 <defs>
  <style type="text/css">
*{stroke-linecap:butt;stroke-linejoin:round;}
  </style>
 </defs>
 <g id="figure_1">
  <g id="patch_1">
   <path d="M 0 345.6 
L 460.8 345.6 
L 460.8 0 
L 0 0 
z
" style="fill:#ffffff;"/>
  </g>
  <g id="axes_1">
   <g id="patch_2">
    <path d="M 57.6 307.584 
L 414.72 307.584 
L 414.72 41.472 
L 57.6 41.472 
z
" style="fill:#ffffff;"/>
   </g>
   <g id="matplotlib.axis_1">
    <g id="xtick_1">
     <g id="line2d_1">
      <defs>
       <path d="M 0 0 
L 0 3.5 
" id="mcf4fe20e2c" style="stroke:#000000;stroke-width:0.8;"/>
      </defs>
      <g>
       <use style="stroke:#000000;stroke-width:0.8;" x="73.832727" xlink:href="#mcf4fe20e2c" y="307.584"/>
      </g>
     </g>
     <g id="text_1">
      <!-- 0 -->
      <defs>
       <path d="M 31.78125 66.40625 
Q 24.171875 66.40625 20.328125 58.90625 
Q 16.5 51.421875 16.5 36.375 
Q 16.5 21.390625 20.328125 13.890625 
Q 24.171875 6.390625 31.78125 6.390625 
Q 39.453125 6.390625 43.28125 13.890625 
Q 47.125 21.390625 47.125 36.375 
Q 47.125 51.421875 43.28125 58.90625 
Q 39.453125 66.40625 31.78125 66.40625 
z
M 31.78125 74.21875 
Q 44.046875 74.21875 50.515625 64.515625 
Q 56.984375 54.828125 56.984375 36.375 
Q 56.984375 17.96875 50.515625 8.265625 
Q 44.046875 -1.421875 31.78125 -1.421875 
Q 19.53125 -1.421875 13.0625 8.265625 
Q 6.59375 17.96875 6.59375 36.375 
Q 6.59375 54.828125 13.0625 64.515625 
Q 19.53125 74.21875 31.78125 74.21875 
z
" id="DejaVuSans-30"/>
      </defs>
      <g transform="translate(70.651477 322.182437)scale(0.1 -0.1)">
       <use xlink:href="#DejaVuSans-30"/>
      </g>
     </g>
    </g>
    <g id="xtick_2">
     <g id="line2d_2">
      <g>
       <use style="stroke:#000000;stroke-width:0.8;" x="127.891363" xlink:href="#mcf4fe20e2c" y="307.584"/>
      </g>
     </g>
     <g id="text_2">
      <!-- 50 -->
      <defs>
       <path d="M 10.796875 72.90625 
L 49.515625 72.90625 
L 49.515625 64.59375 
L 19.828125 64.59375 
L 19.828125 46.734375 
Q 21.96875 47.46875 24.109375 47.828125 
Q 26.265625 48.1875 28.421875 48.1875 
Q 40.625 48.1875 47.75 41.5 
Q 54.890625 34.8125 54.890625 23.390625 
Q 54.890625 11.625 47.5625 5.09375 
Q 40.234375 -1.421875 26.90625 -1.421875 
Q 22.3125 -1.421875 17.546875 -0.640625 
Q 12.796875 0.140625 7.71875 1.703125 
L 7.71875 11.625 
Q 12.109375 9.234375 16.796875 8.0625 
Q 21.484375 6.890625 26.703125 6.890625 
Q 35.15625 6.890625 40.078125 11.328125 
Q 45.015625 15.765625 45.015625 23.390625 
Q 45.015625 31 40.078125 35.4375 
Q 35.15625 39.890625 26.703125 39.890625 
Q 22.75 39.890625 18.8125 39.015625 
Q 14.890625 38.140625 10.796875 36.28125 
z
" id="DejaVuSans-35"/>
      </defs>
      <g transform="translate(121.528863 322.182437)scale(0.1 -0.1)">
       <use xlink:href="#DejaVuSans-35"/>
       <use x="63.623047" xlink:href="#DejaVuSans-30"/>
      </g>
     </g>
    </g>
    <g id="xtick_3">
     <g id="line2d_3">
      <g>
       <use style="stroke:#000000;stroke-width:0.8;" x="181.95" xlink:href="#mcf4fe20e2c" y="307.584"/>
      </g>
     </g>
     <g id="text_3">
      <!-- 100 -->
      <defs>
       <path d="M 12.40625 8.296875 
L 28.515625 8.296875 
L 28.515625 63.921875 
L 10.984375 60.40625 
L 10.984375 69.390625 
L 28.421875 72.90625 
L 38.28125 72.90625 
L 38.28125 8.296875 
L 54.390625 8.296875 
L 54.390625 0 
L 12.40625 0 
z
" id="DejaVuSans-31"/>
      </defs>
      <g transform="translate(172.40625 322.182437)scale(0.1 -0.1)">
       <use xlink:href="#DejaVuSans-31"/>
       <use x="63.623047" xlink:href="#DejaVuSans-30"/>
       <use x="127.246094" xlink:href="#DejaVuSans-30"/>
      </g>
     </g>
    </g>
    <g id="xtick_4">
     <g id="line2d_4">
      <g>
       <use style="stroke:#000000;stroke-width:0.8;" x="236.008636" xlink:href="#mcf4fe20e2c" y="307.584"/>
      </g>
     </g>
     <g id="text_4">
      <!-- 150 -->
      <g transform="translate(226.464886 322.182437)scale(0.1 -0.1)">
       <use xlink:href="#DejaVuSans-31"/>
       <use x="63.623047" xlink:href="#DejaVuSans-35"/>
       <use x="127.246094" xlink:href="#DejaVuSans-30"/>
      </g>
     </g>
    </g>
    <g id="xtick_5">
     <g id="line2d_5">
      <g>
       <use style="stroke:#000000;stroke-width:0.8;" x="290.067272" xlink:href="#mcf4fe20e2c" y="307.584"/>
      </g>
     </g>
     <g id="text_5">
      <!-- 200 -->
      <defs>
       <path d="M 19.1875 8.296875 
L 53.609375 8.296875 
L 53.609375 0 
L 7.328125 0 
L 7.328125 8.296875 
Q 12.9375 14.109375 22.625 23.890625 
Q 32.328125 33.6875 34.8125 36.53125 
Q 39.546875 41.84375 41.421875 45.53125 
Q 43.3125 49.21875 43.3125 52.78125 
Q 43.3125 58.59375 39.234375 62.25 
Q 35.15625 65.921875 28.609375 65.921875 
Q 23.96875 65.921875 18.8125 64.3125 
Q 13.671875 62.703125 7.8125 59.421875 
L 7.8125 69.390625 
Q 13.765625 71.78125 18.9375 73 
Q 24.125 74.21875 28.421875 74.21875 
Q 39.75 74.21875 46.484375 68.546875 
Q 53.21875 62.890625 53.21875 53.421875 
Q 53.21875 48.921875 51.53125 44.890625 
Q 49.859375 40.875 45.40625 35.40625 
Q 44.1875 33.984375 37.640625 27.21875 
Q 31.109375 20.453125 19.1875 8.296875 
z
" id="DejaVuSans-32"/>
      </defs>
      <g transform="translate(280.523522 322.182437)scale(0.1 -0.1)">
       <use xlink:href="#DejaVuSans-32"/>
       <use x="63.623047" xlink:href="#DejaVuSans-30"/>
       <use x="127.246094" xlink:href="#DejaVuSans-30"/>
      </g>
     </g>
    </g>
    <g id="xtick_6">
     <g id="line2d_6">
      <g>
       <use style="stroke:#000000;stroke-width:0.8;" x="344.125908" xlink:href="#mcf4fe20e2c" y="307.584"/>
      </g>
     </g>
     <g id="text_6">
      <!-- 250 -->
      <g transform="translate(334.582158 322.182437)scale(0.1 -0.1)">
       <use xlink:href="#DejaVuSans-32"/>
       <use x="63.623047" xlink:href="#DejaVuSans-35"/>
       <use x="127.246094" xlink:href="#DejaVuSans-30"/>
      </g>
     </g>
    </g>
    <g id="xtick_7">
     <g id="line2d_7">
      <g>
       <use style="stroke:#000000;stroke-width:0.8;" x="398.184544" xlink:href="#mcf4fe20e2c" y="307.584"/>
      </g>
     </g>
     <g id="text_7">
      <!-- 300 -->
      <defs>
       <path d="M 40.578125 39.3125 
Q 47.65625 37.796875 51.625 33 
Q 55.609375 28.21875 55.609375 21.1875 
Q 55.609375 10.40625 48.1875 4.484375 
Q 40.765625 -1.421875 27.09375 -1.421875 
Q 22.515625 -1.421875 17.65625 -0.515625 
Q 12.796875 0.390625 7.625 2.203125 
L 7.625 11.71875 
Q 11.71875 9.328125 16.59375 8.109375 
Q 21.484375 6.890625 26.8125 6.890625 
Q 36.078125 6.890625 40.9375 10.546875 
Q 45.796875 14.203125 45.796875 21.1875 
Q 45.796875 27.640625 41.28125 31.265625 
Q 36.765625 34.90625 28.71875 34.90625 
L 20.21875 34.90625 
L 20.21875 43.015625 
L 29.109375 43.015625 
Q 36.375 43.015625 40.234375 45.921875 
Q 44.09375 48.828125 44.09375 54.296875 
Q 44.09375 59.90625 40.109375 62.90625 
Q 36.140625 65.921875 28.71875 65.921875 
Q 24.65625 65.921875 20.015625 65.03125 
Q 15.375 64.15625 9.8125 62.3125 
L 9.8125 71.09375 
Q 15.4375 72.65625 20.34375 73.4375 
Q 25.25 74.21875 29.59375 74.21875 
Q 40.828125 74.21875 47.359375 69.109375 
Q 53.90625 64.015625 53.90625 55.328125 
Q 53.90625 49.265625 50.4375 45.09375 
Q 46.96875 40.921875 40.578125 39.3125 
z
" id="DejaVuSans-33"/>
      </defs>
      <g transform="translate(388.640794 322.182437)scale(0.1 -0.1)">
       <use xlink:href="#DejaVuSans-33"/>
       <use x="63.623047" xlink:href="#DejaVuSans-30"/>
       <use x="127.246094" xlink:href="#DejaVuSans-30"/>
      </g>
     </g>
    </g>
    <g id="text_8">
     <!-- t(s) -->
     <defs>
      <path d="M 18.3125 70.21875 
L 18.3125 54.6875 
L 36.8125 54.6875 
L 36.8125 47.703125 
L 18.3125 47.703125 
L 18.3125 18.015625 
Q 18.3125 11.328125 20.140625 9.421875 
Q 21.96875 7.515625 27.59375 7.515625 
L 36.8125 7.515625 
L 36.8125 0 
L 27.59375 0 
Q 17.1875 0 13.234375 3.875 
Q 9.28125 7.765625 9.28125 18.015625 
L 9.28125 47.703125 
L 2.6875 47.703125 
L 2.6875 54.6875 
L 9.28125 54.6875 
L 9.28125 70.21875 
z
" id="DejaVuSans-74"/>
      <path d="M 31 75.875 
Q 24.46875 64.65625 21.28125 53.65625 
Q 18.109375 42.671875 18.109375 31.390625 
Q 18.109375 20.125 21.3125 9.0625 
Q 24.515625 -2 31 -13.1875 
L 23.1875 -13.1875 
Q 15.875 -1.703125 12.234375 9.375 
Q 8.59375 20.453125 8.59375 31.390625 
Q 8.59375 42.28125 12.203125 53.3125 
Q 15.828125 64.359375 23.1875 75.875 
z
" id="DejaVuSans-28"/>
      <path d="M 44.28125 53.078125 
L 44.28125 44.578125 
Q 40.484375 46.53125 36.375 47.5 
Q 32.28125 48.484375 27.875 48.484375 
Q 21.1875 48.484375 17.84375 46.4375 
Q 14.5 44.390625 14.5 40.28125 
Q 14.5 37.15625 16.890625 35.375 
Q 19.28125 33.59375 26.515625 31.984375 
L 29.59375 31.296875 
Q 39.15625 29.25 43.1875 25.515625 
Q 47.21875 21.78125 47.21875 15.09375 
Q 47.21875 7.46875 41.1875 3.015625 
Q 35.15625 -1.421875 24.609375 -1.421875 
Q 20.21875 -1.421875 15.453125 -0.5625 
Q 10.6875 0.296875 5.421875 2 
L 5.421875 11.28125 
Q 10.40625 8.6875 15.234375 7.390625 
Q 20.0625 6.109375 24.8125 6.109375 
Q 31.15625 6.109375 34.5625 8.28125 
Q 37.984375 10.453125 37.984375 14.40625 
Q 37.984375 18.0625 35.515625 20.015625 
Q 33.0625 21.96875 24.703125 23.78125 
L 21.578125 24.515625 
Q 13.234375 26.265625 9.515625 29.90625 
Q 5.8125 33.546875 5.8125 39.890625 
Q 5.8125 47.609375 11.28125 51.796875 
Q 16.75 56 26.8125 56 
Q 31.78125 56 36.171875 55.265625 
Q 40.578125 54.546875 44.28125 53.078125 
z
" id="DejaVuSans-73"/>
      <path d="M 8.015625 75.875 
L 15.828125 75.875 
Q 23.140625 64.359375 26.78125 53.3125 
Q 30.421875 42.28125 30.421875 31.390625 
Q 30.421875 20.453125 26.78125 9.375 
Q 23.140625 -1.703125 15.828125 -13.1875 
L 8.015625 -13.1875 
Q 14.5 -2 17.703125 9.0625 
Q 20.90625 20.125 20.90625 31.390625 
Q 20.90625 42.671875 17.703125 53.65625 
Q 14.5 64.65625 8.015625 75.875 
z
" id="DejaVuSans-29"/>
     </defs>
     <g transform="translate(227.693594 335.860562)scale(0.1 -0.1)">
      <use xlink:href="#DejaVuSans-74"/>
      <use x="39.208984" xlink:href="#DejaVuSans-28"/>
      <use x="78.222656" xlink:href="#DejaVuSans-73"/>
      <use x="130.322266" xlink:href="#DejaVuSans-29"/>
     </g>
    </g>
   </g>
   <g id="matplotlib.axis_2">
    <g id="ytick_1">
     <g id="line2d_8">
      <defs>
       <path d="M 0 0 
L -3.5 0 
" id="m85afeb2e60" style="stroke:#000000;stroke-width:0.8;"/>
      </defs>
      <g>
       <use style="stroke:#000000;stroke-width:0.8;" x="57.6" xlink:href="#m85afeb2e60" y="282.16786"/>
      </g>
     </g>
     <g id="text_9">
      <!-- 1.6640 -->
      <defs>
       <path d="M 10.6875 12.40625 
L 21 12.40625 
L 21 0 
L 10.6875 0 
z
" id="DejaVuSans-2e"/>
       <path d="M 33.015625 40.375 
Q 26.375 40.375 22.484375 35.828125 
Q 18.609375 31.296875 18.609375 23.390625 
Q 18.609375 15.53125 22.484375 10.953125 
Q 26.375 6.390625 33.015625 6.390625 
Q 39.65625 6.390625 43.53125 10.953125 
Q 47.40625 15.53125 47.40625 23.390625 
Q 47.40625 31.296875 43.53125 35.828125 
Q 39.65625 40.375 33.015625 40.375 
z
M 52.59375 71.296875 
L 52.59375 62.3125 
Q 48.875 64.0625 45.09375 64.984375 
Q 41.3125 65.921875 37.59375 65.921875 
Q 27.828125 65.921875 22.671875 59.328125 
Q 17.53125 52.734375 16.796875 39.40625 
Q 19.671875 43.65625 24.015625 45.921875 
Q 28.375 48.1875 33.59375 48.1875 
Q 44.578125 48.1875 50.953125 41.515625 
Q 57.328125 34.859375 57.328125 23.390625 
Q 57.328125 12.15625 50.6875 5.359375 
Q 44.046875 -1.421875 33.015625 -1.421875 
Q 20.359375 -1.421875 13.671875 8.265625 
Q 6.984375 17.96875 6.984375 36.375 
Q 6.984375 53.65625 15.1875 63.9375 
Q 23.390625 74.21875 37.203125 74.21875 
Q 40.921875 74.21875 44.703125 73.484375 
Q 48.484375 72.75 52.59375 71.296875 
z
" id="DejaVuSans-36"/>
       <path d="M 37.796875 64.3125 
L 12.890625 25.390625 
L 37.796875 25.390625 
z
M 35.203125 72.90625 
L 47.609375 72.90625 
L 47.609375 25.390625 
L 58.015625 25.390625 
L 58.015625 17.1875 
L 47.609375 17.1875 
L 47.609375 0 
L 37.796875 0 
L 37.796875 17.1875 
L 4.890625 17.1875 
L 4.890625 26.703125 
z
" id="DejaVuSans-34"/>
      </defs>
      <g transform="translate(15.609375 285.967079)scale(0.1 -0.1)">
       <use xlink:href="#DejaVuSans-31"/>
       <use x="63.623047" xlink:href="#DejaVuSans-2e"/>
       <use x="95.410156" xlink:href="#DejaVuSans-36"/>
       <use x="159.033203" xlink:href="#DejaVuSans-36"/>
       <use x="222.65625" xlink:href="#DejaVuSans-34"/>
       <use x="286.279297" xlink:href="#DejaVuSans-30"/>
      </g>
     </g>
    </g>
    <g id="ytick_2">
     <g id="line2d_9">
      <g>
       <use style="stroke:#000000;stroke-width:0.8;" x="57.6" xlink:href="#m85afeb2e60" y="235.26596"/>
      </g>
     </g>
     <g id="text_10">
      <!-- 1.6645 -->
      <g transform="translate(15.609375 239.065179)scale(0.1 -0.1)">
       <use xlink:href="#DejaVuSans-31"/>
       <use x="63.623047" xlink:href="#DejaVuSans-2e"/>
       <use x="95.410156" xlink:href="#DejaVuSans-36"/>
       <use x="159.033203" xlink:href="#DejaVuSans-36"/>
       <use x="222.65625" xlink:href="#DejaVuSans-34"/>
       <use x="286.279297" xlink:href="#DejaVuSans-35"/>
      </g>
     </g>
    </g>
    <g id="ytick_3">
     <g id="line2d_10">
      <g>
       <use style="stroke:#000000;stroke-width:0.8;" x="57.6" xlink:href="#m85afeb2e60" y="188.36406"/>
      </g>
     </g>
     <g id="text_11">
      <!-- 1.6650 -->
      <g transform="translate(15.609375 192.163279)scale(0.1 -0.1)">
       <use xlink:href="#DejaVuSans-31"/>
       <use x="63.623047" xlink:href="#DejaVuSans-2e"/>
       <use x="95.410156" xlink:href="#DejaVuSans-36"/>
       <use x="159.033203" xlink:href="#DejaVuSans-36"/>
       <use x="222.65625" xlink:href="#DejaVuSans-35"/>
       <use x="286.279297" xlink:href="#DejaVuSans-30"/>
      </g>
     </g>
    </g>
    <g id="ytick_4">
     <g id="line2d_11">
      <g>
       <use style="stroke:#000000;stroke-width:0.8;" x="57.6" xlink:href="#m85afeb2e60" y="141.462161"/>
      </g>
     </g>
     <g id="text_12">
      <!-- 1.6655 -->
      <g transform="translate(15.609375 145.261379)scale(0.1 -0.1)">
       <use xlink:href="#DejaVuSans-31"/>
       <use x="63.623047" xlink:href="#DejaVuSans-2e"/>
       <use x="95.410156" xlink:href="#DejaVuSans-36"/>
       <use x="159.033203" xlink:href="#DejaVuSans-36"/>
       <use x="222.65625" xlink:href="#DejaVuSans-35"/>
       <use x="286.279297" xlink:href="#DejaVuSans-35"/>
      </g>
     </g>
    </g>
    <g id="ytick_5">
     <g id="line2d_12">
      <g>
       <use style="stroke:#000000;stroke-width:0.8;" x="57.6" xlink:href="#m85afeb2e60" y="94.560261"/>
      </g>
     </g>
     <g id="text_13">
      <!-- 1.6660 -->
      <g transform="translate(15.609375 98.359479)scale(0.1 -0.1)">
       <use xlink:href="#DejaVuSans-31"/>
       <use x="63.623047" xlink:href="#DejaVuSans-2e"/>
       <use x="95.410156" xlink:href="#DejaVuSans-36"/>
       <use x="159.033203" xlink:href="#DejaVuSans-36"/>
       <use x="222.65625" xlink:href="#DejaVuSans-36"/>
       <use x="286.279297" xlink:href="#DejaVuSans-30"/>
      </g>
     </g>
    </g>
    <g id="ytick_6">
     <g id="line2d_13">
      <g>
       <use style="stroke:#000000;stroke-width:0.8;" x="57.6" xlink:href="#m85afeb2e60" y="47.658361"/>
      </g>
     </g>
     <g id="text_14">
      <!-- 1.6665 -->
      <g transform="translate(15.609375 51.457579)scale(0.1 -0.1)">
       <use xlink:href="#DejaVuSans-31"/>
       <use x="63.623047" xlink:href="#DejaVuSans-2e"/>
       <use x="95.410156" xlink:href="#DejaVuSans-36"/>
       <use x="159.033203" xlink:href="#DejaVuSans-36"/>
       <use x="222.65625" xlink:href="#DejaVuSans-36"/>
       <use x="286.279297" xlink:href="#DejaVuSans-35"/>
      </g>
     </g>
    </g>
    <g id="text_15">
     <!-- Resistance (Ohm) -->
     <defs>
      <path d="M 44.390625 34.1875 
Q 47.5625 33.109375 50.5625 29.59375 
Q 53.5625 26.078125 56.59375 19.921875 
L 66.609375 0 
L 56 0 
L 46.6875 18.703125 
Q 43.0625 26.03125 39.671875 28.421875 
Q 36.28125 30.8125 30.421875 30.8125 
L 19.671875 30.8125 
L 19.671875 0 
L 9.8125 0 
L 9.8125 72.90625 
L 32.078125 72.90625 
Q 44.578125 72.90625 50.734375 67.671875 
Q 56.890625 62.453125 56.890625 51.90625 
Q 56.890625 45.015625 53.6875 40.46875 
Q 50.484375 35.9375 44.390625 34.1875 
z
M 19.671875 64.796875 
L 19.671875 38.921875 
L 32.078125 38.921875 
Q 39.203125 38.921875 42.84375 42.21875 
Q 46.484375 45.515625 46.484375 51.90625 
Q 46.484375 58.296875 42.84375 61.546875 
Q 39.203125 64.796875 32.078125 64.796875 
z
" id="DejaVuSans-52"/>
      <path d="M 56.203125 29.59375 
L 56.203125 25.203125 
L 14.890625 25.203125 
Q 15.484375 15.921875 20.484375 11.0625 
Q 25.484375 6.203125 34.421875 6.203125 
Q 39.59375 6.203125 44.453125 7.46875 
Q 49.3125 8.734375 54.109375 11.28125 
L 54.109375 2.78125 
Q 49.265625 0.734375 44.1875 -0.34375 
Q 39.109375 -1.421875 33.890625 -1.421875 
Q 20.796875 -1.421875 13.15625 6.1875 
Q 5.515625 13.8125 5.515625 26.8125 
Q 5.515625 40.234375 12.765625 48.109375 
Q 20.015625 56 32.328125 56 
Q 43.359375 56 49.78125 48.890625 
Q 56.203125 41.796875 56.203125 29.59375 
z
M 47.21875 32.234375 
Q 47.125 39.59375 43.09375 43.984375 
Q 39.0625 48.390625 32.421875 48.390625 
Q 24.90625 48.390625 20.390625 44.140625 
Q 15.875 39.890625 15.1875 32.171875 
z
" id="DejaVuSans-65"/>
      <path d="M 9.421875 54.6875 
L 18.40625 54.6875 
L 18.40625 0 
L 9.421875 0 
z
M 9.421875 75.984375 
L 18.40625 75.984375 
L 18.40625 64.59375 
L 9.421875 64.59375 
z
" id="DejaVuSans-69"/>
      <path d="M 34.28125 27.484375 
Q 23.390625 27.484375 19.1875 25 
Q 14.984375 22.515625 14.984375 16.5 
Q 14.984375 11.71875 18.140625 8.90625 
Q 21.296875 6.109375 26.703125 6.109375 
Q 34.1875 6.109375 38.703125 11.40625 
Q 43.21875 16.703125 43.21875 25.484375 
L 43.21875 27.484375 
z
M 52.203125 31.203125 
L 52.203125 0 
L 43.21875 0 
L 43.21875 8.296875 
Q 40.140625 3.328125 35.546875 0.953125 
Q 30.953125 -1.421875 24.3125 -1.421875 
Q 15.921875 -1.421875 10.953125 3.296875 
Q 6 8.015625 6 15.921875 
Q 6 25.140625 12.171875 29.828125 
Q 18.359375 34.515625 30.609375 34.515625 
L 43.21875 34.515625 
L 43.21875 35.40625 
Q 43.21875 41.609375 39.140625 45 
Q 35.0625 48.390625 27.6875 48.390625 
Q 23 48.390625 18.546875 47.265625 
Q 14.109375 46.140625 10.015625 43.890625 
L 10.015625 52.203125 
Q 14.9375 54.109375 19.578125 55.046875 
Q 24.21875 56 28.609375 56 
Q 40.484375 56 46.34375 49.84375 
Q 52.203125 43.703125 52.203125 31.203125 
z
" id="DejaVuSans-61"/>
      <path d="M 54.890625 33.015625 
L 54.890625 0 
L 45.90625 0 
L 45.90625 32.71875 
Q 45.90625 40.484375 42.875 44.328125 
Q 39.84375 48.1875 33.796875 48.1875 
Q 26.515625 48.1875 22.3125 43.546875 
Q 18.109375 38.921875 18.109375 30.90625 
L 18.109375 0 
L 9.078125 0 
L 9.078125 54.6875 
L 18.109375 54.6875 
L 18.109375 46.1875 
Q 21.34375 51.125 25.703125 53.5625 
Q 30.078125 56 35.796875 56 
Q 45.21875 56 50.046875 50.171875 
Q 54.890625 44.34375 54.890625 33.015625 
z
" id="DejaVuSans-6e"/>
      <path d="M 48.78125 52.59375 
L 48.78125 44.1875 
Q 44.96875 46.296875 41.140625 47.34375 
Q 37.3125 48.390625 33.40625 48.390625 
Q 24.65625 48.390625 19.8125 42.84375 
Q 14.984375 37.3125 14.984375 27.296875 
Q 14.984375 17.28125 19.8125 11.734375 
Q 24.65625 6.203125 33.40625 6.203125 
Q 37.3125 6.203125 41.140625 7.25 
Q 44.96875 8.296875 48.78125 10.40625 
L 48.78125 2.09375 
Q 45.015625 0.34375 40.984375 -0.53125 
Q 36.96875 -1.421875 32.421875 -1.421875 
Q 20.0625 -1.421875 12.78125 6.34375 
Q 5.515625 14.109375 5.515625 27.296875 
Q 5.515625 40.671875 12.859375 48.328125 
Q 20.21875 56 33.015625 56 
Q 37.15625 56 41.109375 55.140625 
Q 45.0625 54.296875 48.78125 52.59375 
z
" id="DejaVuSans-63"/>
      <path id="DejaVuSans-20"/>
      <path d="M 39.40625 66.21875 
Q 28.65625 66.21875 22.328125 58.203125 
Q 16.015625 50.203125 16.015625 36.375 
Q 16.015625 22.609375 22.328125 14.59375 
Q 28.65625 6.59375 39.40625 6.59375 
Q 50.140625 6.59375 56.421875 14.59375 
Q 62.703125 22.609375 62.703125 36.375 
Q 62.703125 50.203125 56.421875 58.203125 
Q 50.140625 66.21875 39.40625 66.21875 
z
M 39.40625 74.21875 
Q 54.734375 74.21875 63.90625 63.9375 
Q 73.09375 53.65625 73.09375 36.375 
Q 73.09375 19.140625 63.90625 8.859375 
Q 54.734375 -1.421875 39.40625 -1.421875 
Q 24.03125 -1.421875 14.8125 8.828125 
Q 5.609375 19.09375 5.609375 36.375 
Q 5.609375 53.65625 14.8125 63.9375 
Q 24.03125 74.21875 39.40625 74.21875 
z
" id="DejaVuSans-4f"/>
      <path d="M 54.890625 33.015625 
L 54.890625 0 
L 45.90625 0 
L 45.90625 32.71875 
Q 45.90625 40.484375 42.875 44.328125 
Q 39.84375 48.1875 33.796875 48.1875 
Q 26.515625 48.1875 22.3125 43.546875 
Q 18.109375 38.921875 18.109375 30.90625 
L 18.109375 0 
L 9.078125 0 
L 9.078125 75.984375 
L 18.109375 75.984375 
L 18.109375 46.1875 
Q 21.34375 51.125 25.703125 53.5625 
Q 30.078125 56 35.796875 56 
Q 45.21875 56 50.046875 50.171875 
Q 54.890625 44.34375 54.890625 33.015625 
z
" id="DejaVuSans-68"/>
      <path d="M 52 44.1875 
Q 55.375 50.25 60.0625 53.125 
Q 64.75 56 71.09375 56 
Q 79.640625 56 84.28125 50.015625 
Q 88.921875 44.046875 88.921875 33.015625 
L 88.921875 0 
L 79.890625 0 
L 79.890625 32.71875 
Q 79.890625 40.578125 77.09375 44.375 
Q 74.3125 48.1875 68.609375 48.1875 
Q 61.625 48.1875 57.5625 43.546875 
Q 53.515625 38.921875 53.515625 30.90625 
L 53.515625 0 
L 44.484375 0 
L 44.484375 32.71875 
Q 44.484375 40.625 41.703125 44.40625 
Q 38.921875 48.1875 33.109375 48.1875 
Q 26.21875 48.1875 22.15625 43.53125 
Q 18.109375 38.875 18.109375 30.90625 
L 18.109375 0 
L 9.078125 0 
L 9.078125 54.6875 
L 18.109375 54.6875 
L 18.109375 46.1875 
Q 21.1875 51.21875 25.484375 53.609375 
Q 29.78125 56 35.6875 56 
Q 41.65625 56 45.828125 52.96875 
Q 50 49.953125 52 44.1875 
z
" id="DejaVuSans-6d"/>
     </defs>
     <g transform="translate(9.529687 219.158469)rotate(-90)scale(0.1 -0.1)">
      <use xlink:href="#DejaVuSans-52"/>
      <use x="69.419922" xlink:href="#DejaVuSans-65"/>
      <use x="130.943359" xlink:href="#DejaVuSans-73"/>
      <use x="183.042969" xlink:href="#DejaVuSans-69"/>
      <use x="210.826172" xlink:href="#DejaVuSans-73"/>
      <use x="262.925781" xlink:href="#DejaVuSans-74"/>
      <use x="302.134766" xlink:href="#DejaVuSans-61"/>
      <use x="363.414062" xlink:href="#DejaVuSans-6e"/>
      <use x="426.792969" xlink:href="#DejaVuSans-63"/>
      <use x="481.773438" xlink:href="#DejaVuSans-65"/>
      <use x="543.296875" xlink:href="#DejaVuSans-20"/>
      <use x="575.083984" xlink:href="#DejaVuSans-28"/>
      <use x="614.097656" xlink:href="#DejaVuSans-4f"/>
      <use x="692.808594" xlink:href="#DejaVuSans-68"/>
      <use x="756.1875" xlink:href="#DejaVuSans-6d"/>
      <use x="853.599609" xlink:href="#DejaVuSans-29"/>
     </g>
    </g>
    <g id="text_16">
     <!-- 1e7 -->
     <defs>
      <path d="M 8.203125 72.90625 
L 55.078125 72.90625 
L 55.078125 68.703125 
L 28.609375 0 
L 18.3125 0 
L 43.21875 64.59375 
L 8.203125 64.59375 
z
" id="DejaVuSans-37"/>
     </defs>
     <g transform="translate(57.6 38.472)scale(0.1 -0.1)">
      <use xlink:href="#DejaVuSans-31"/>
      <use x="63.623047" xlink:href="#DejaVuSans-65"/>
      <use x="125.146484" xlink:href="#DejaVuSans-37"/>
     </g>
    </g>
   </g>
   <g id="line2d_14">
    <path clip-path="url(#p779c87a78e)" d="M 73.832727 292.392475 
L 74.49008 295.488 
L 75.802624 271.943246 
L 76.467545 275.789202 
L 77.123817 285.544797 
L 77.780089 264.438942 
L 78.436361 283.293506 
L 79.093714 243.708302 
L 79.751067 251.118803 
L 80.407339 238.549093 
L 81.064692 238.173878 
L 81.722045 208.719485 
L 82.378317 242.301245 
L 83.034588 221.476802 
L 83.69086 231.607612 
L 84.348214 207.687643 
L 85.012053 204.592118 
L 85.668325 195.305542 
L 86.324597 197.838244 
L 86.980869 197.74444 
L 87.638222 179.358896 
L 88.294494 188.551668 
L 88.950766 195.117934 
L 89.608119 206.843409 
L 90.264391 172.698826 
L 90.920663 170.82275 
L 91.576934 196.618795 
L 92.234287 182.735832 
L 92.890559 196.524991 
L 94.211752 122.419989 
L 94.869105 147.465604 
L 95.526458 129.830489 
L 96.18273 145.214313 
L 96.839002 128.704844 
L 97.496355 157.596414 
L 98.153708 107.692793 
L 98.80998 144.932901 
L 99.467333 110.694514 
L 100.123605 133.30123 
L 100.780958 148.966465 
L 101.438311 153.750458 
L 102.094582 151.592971 
L 102.759504 143.056825 
L 103.416857 149.529287 
L 104.07421 143.619648 
L 104.731563 132.738407 
L 105.388916 109.193653 
L 106.045188 143.525844 
L 106.70146 154.969908 
L 107.358813 148.216034 
L 108.015084 111.069729 
L 108.671356 175.419136 
L 109.328709 149.998306 
L 109.984981 137.616205 
L 110.640172 130.956135 
L 111.297524 116.51035 
L 111.961365 121.575755 
L 113.27499 155.251319 
L 113.931261 148.497446 
L 114.587533 135.646325 
L 115.243805 119.23066 
L 115.900077 98.218609 
L 116.556349 127.485394 
L 117.212621 110.506907 
L 117.868893 109.662672 
L 118.525165 122.419989 
L 119.181436 92.965596 
L 119.838789 98.218609 
L 121.158901 121.20054 
L 121.815173 90.151482 
L 122.471445 94.560261 
L 123.127717 86.39933 
L 123.783989 81.70914 
L 124.441342 92.590381 
L 125.098695 90.995716 
L 125.754966 99.531862 
L 126.411238 125.89073 
L 127.068591 139.304673 
L 127.724863 126.64116 
L 128.382216 141.274553 
L 129.038488 134.145464 
L 129.702328 123.733242 
L 130.3586 133.30123 
L 131.014872 111.257337 
L 131.672225 122.138578 
L 132.329578 85.6489 
L 132.985849 95.404495 
L 133.642121 94.654064 
L 134.299474 99.438058 
L 134.956827 87.337368 
L 135.613099 98.969039 
L 136.270452 95.310691 
L 136.926724 114.54047 
L 137.582996 117.354584 
L 138.246836 96.999159 
L 138.903108 128.986255 
L 139.55938 116.697957 
L 140.216733 109.756476 
L 140.873005 115.572312 
L 141.530357 118.011211 
L 142.18771 115.197097 
L 142.843982 149.247876 
L 143.500254 150.561129 
L 145.46907 114.259059 
L 146.126423 112.195375 
L 146.791344 107.505185 
L 147.447616 113.696236 
L 148.104969 116.228938 
L 148.762322 96.623944 
L 149.419675 107.974204 
L 150.078109 94.747868 
L 150.734381 84.710862 
L 151.390653 98.406216 
L 152.046925 68.013785 
L 152.703197 94.841672 
L 153.359468 96.53014 
L 154.016821 106.660951 
L 154.673093 99.344254 
L 155.329365 102.814995 
L 155.992124 91.183324 
L 156.648396 104.034444 
L 157.304668 83.397608 
L 157.962021 84.335646 
L 158.618292 82.647178 
L 159.275645 81.427729 
L 159.932998 55.256468 
L 160.58927 88.36921 
L 161.245542 71.390722 
L 161.901814 82.647178 
L 162.558086 103.471622 
L 163.215439 115.103293 
L 163.871711 112.195375 
L 164.536632 125.984534 
L 165.192904 114.821881 
L 165.849175 93.434615 
L 166.505447 116.51035 
L 167.161719 121.669559 
L 167.817991 120.356306 
L 168.475344 129.080059 
L 169.131616 108.255615 
L 169.787888 110.694514 
L 170.445241 96.061121 
L 171.102594 105.722913 
L 171.759947 97.843394 
L 172.416219 107.786596 
L 173.080059 64.730652 
L 173.737412 98.969039 
L 174.393684 91.183324 
L 175.049956 113.79004 
L 175.707309 90.245286 
L 176.362499 83.303805 
L 177.019852 91.277128 
L 177.675043 85.6489 
L 178.332396 92.402773 
L 178.988668 94.466457 
L 179.644939 123.639439 
L 180.301211 113.508628 
L 180.957483 110.506907 
L 181.613755 120.262502 
L 182.277595 108.349419 
L 182.933867 109.006046 
L 183.590139 82.928589 
L 184.903764 133.019819 
L 185.560036 115.947527 
L 186.216307 116.697957 
L 186.872579 96.623944 
L 187.529932 103.096406 
L 188.186204 103.659229 
L 188.842476 97.468178 
L 189.499829 95.685906 
L 190.156101 118.667837 
L 190.819941 130.393312 
L 191.477294 133.582641 
L 192.134647 130.299508 
L 193.448272 145.683332 
L 194.105625 110.694514 
L 194.761897 134.708287 
L 195.418169 125.140299 
L 196.075522 108.349419 
L 196.731793 125.89073 
L 197.388065 136.959578 
L 198.044337 144.839097 
L 198.700609 140.430319 
L 199.366611 82.834786 
L 200.022883 89.025836 
L 200.679155 104.128248 
L 201.336508 111.82016 
L 201.99278 129.455274 
L 202.649052 119.512071 
L 203.305323 128.704844 
L 203.961595 127.391591 
L 204.617867 134.239268 
L 205.274139 120.731521 
L 205.931492 114.728078 
L 206.587764 125.234103 
L 207.245117 127.86061 
L 207.910038 107.8804 
L 208.567391 111.632552 
L 209.879935 91.933754 
L 210.536207 84.054235 
L 211.192478 80.583494 
L 211.84875 97.468178 
L 212.505022 118.949249 
L 213.819728 114.071451 
L 214.477081 96.342533 
L 215.134434 104.034444 
L 215.791787 117.166976 
L 216.456708 114.259059 
L 217.114061 137.334793 
L 217.771414 111.913964 
L 218.428767 122.326185 
L 219.085039 114.165255 
L 219.741311 121.012932 
L 220.398664 144.463882 
L 221.053855 154.969908 
L 222.366399 117.354584 
L 223.023752 154.03187 
L 223.680024 146.058547 
L 224.336295 148.403642 
L 224.992567 146.339958 
L 226.312679 109.85028 
L 226.968951 94.185045 
L 227.625223 114.634274 
L 228.281495 124.483673 
L 228.937766 127.766806 
L 229.594038 116.885565 
L 230.25031 119.512071 
L 230.906582 119.043052 
L 231.562854 116.697957 
L 232.219126 137.428597 
L 232.875398 94.466457 
L 233.532751 98.781432 
L 234.189022 120.168698 
L 234.853944 118.105014 
L 235.510215 126.172141 
L 236.171893 106.379539 
L 236.828165 99.156647 
L 237.485518 111.257337 
L 238.142871 107.692793 
L 238.800224 125.234103 
L 239.457577 102.627387 
L 240.11493 92.308969 
L 240.771202 106.942362 
L 241.427474 82.928589 
L 242.083746 87.243564 
L 242.740018 136.771971 
L 243.404939 96.717748 
L 244.06121 100.845115 
L 244.717482 141.086945 
L 245.373754 124.67128 
L 246.030026 152.155794 
L 246.686298 136.959578 
L 247.34257 157.971629 
L 247.999923 156.470769 
L 248.656195 133.113622 
L 249.313548 135.177306 
L 249.96982 120.074894 
L 250.627172 90.151482 
L 251.283444 94.185045 
L 251.939716 119.418268 
L 252.603556 105.16009 
L 253.260909 85.179881 
L 253.917181 53.568 
L 254.574534 93.997438 
L 255.230806 93.528419 
L 255.887078 88.087798 
L 256.54335 96.342533 
L 257.200703 81.146317 
L 257.856974 91.83995 
L 258.514327 84.617058 
L 259.170599 95.592102 
L 259.826871 102.908799 
L 260.483143 93.0594 
L 261.140496 120.074894 
L 262.464933 103.659229 
L 263.121204 86.586938 
L 263.777476 115.666116 
L 264.433748 116.228938 
L 265.091101 117.166976 
L 265.747373 134.426876 
L 266.403645 97.843394 
L 267.059916 116.979369 
L 267.716188 120.919128 
L 268.37246 119.043052 
L 269.028732 96.811552 
L 269.685004 117.073173 
L 270.348844 97.561982 
L 271.005116 122.513793 
L 271.661388 119.699679 
L 272.31766 98.218609 
L 272.975013 106.098128 
L 273.631284 106.098128 
L 274.287556 106.848558 
L 275.601181 114.165255 
L 276.258534 115.947527 
L 276.914806 104.878679 
L 277.572159 107.317577 
L 278.885784 125.140299 
L 279.547462 124.296065 
L 280.21022 131.612762 
L 280.867574 110.319299 
L 281.523845 99.156647 
L 282.181198 108.255615 
L 282.838551 92.215166 
L 283.494823 62.666969 
L 284.151095 115.478508 
L 284.807367 110.882122 
L 285.463639 102.158368 
L 286.120992 98.031001 
L 286.777264 95.77971 
L 287.442185 95.123083 
L 288.098457 98.687628 
L 288.760134 106.098128 
L 289.416406 101.689349 
L 290.072678 62.573165 
L 290.72895 84.054235 
L 291.385222 100.751311 
L 292.041494 101.501742 
L 292.697766 106.379539 
L 293.354037 134.802091 
L 294.010309 115.197097 
L 294.666581 117.635995 
L 295.322853 106.285736 
L 296.642965 92.777988 
L 297.299237 92.027558 
L 297.955508 105.441501 
L 298.61178 109.287457 
L 299.268052 105.722913 
L 299.925405 98.031001 
L 300.581677 105.535305 
L 301.23903 79.176437 
L 301.895302 89.307248 
L 302.551574 85.836507 
L 303.865198 68.107589 
L 304.52147 83.397608 
L 305.178823 87.806387 
L 305.836176 83.210001 
L 306.49353 62.19795 
L 307.153045 66.794336 
L 307.809317 100.000881 
L 308.465588 97.186767 
L 309.122942 92.590381 
L 309.779213 113.508628 
L 310.434404 88.556817 
L 311.090676 112.945805 
L 311.748029 104.691071 
L 312.403219 89.401052 
L 313.060573 111.444945 
L 313.716844 114.446666 
L 314.373116 132.5508 
L 315.036956 110.413103 
L 315.693228 119.699679 
L 316.3495 115.197097 
L 317.005772 116.416546 
L 317.662044 116.604154 
L 318.318315 133.30123 
L 318.974587 133.30123 
L 319.630859 120.825325 
L 320.287131 135.458717 
L 320.944484 121.20054 
L 321.600756 122.044774 
L 322.258109 119.699679 
L 322.914381 133.395034 
L 323.571734 118.667837 
L 324.235574 108.724634 
L 324.891846 114.259059 
L 325.548117 116.041331 
L 326.205471 117.073173 
L 326.861742 122.889008 
L 327.518014 110.60071 
L 328.174286 95.77971 
L 328.830558 83.866627 
L 329.48683 101.783153 
L 330.143102 92.308969 
L 330.800455 123.451831 
L 331.457808 116.135135 
L 332.114079 93.0594 
L 332.770351 99.062843 
L 333.435272 121.857166 
L 334.090463 135.27111 
L 334.747816 140.805534 
L 335.403007 130.018097 
L 336.061441 152.249598 
L 336.717713 138.554243 
L 337.373985 156.00175 
L 338.030257 128.61104 
L 338.686529 143.807256 
L 339.343881 135.646325 
L 340.000153 139.398477 
L 340.656425 149.810699 
L 341.312697 117.635995 
L 341.968969 116.322742 
L 342.632809 113.227217 
L 343.290162 127.766806 
L 343.946434 127.203983 
L 344.602706 110.225495 
L 345.260059 125.89073 
L 345.91633 105.535305 
L 346.573683 103.940641 
L 347.886227 140.336515 
L 348.542499 145.589528 
L 349.198771 131.987977 
L 349.855042 133.30123 
L 350.511314 138.929458 
L 351.168668 148.778857 
L 351.824939 147.934623 
L 352.481211 124.765084 
L 353.142889 131.894173 
L 353.799161 164.256484 
L 354.455433 134.05166 
L 355.112786 122.607597 
L 355.770139 119.793483 
L 356.426411 111.538748 
L 357.082682 92.308969 
L 357.738954 109.193653 
L 358.395226 110.788318 
L 359.052579 95.685906 
L 359.709932 97.561982 
L 360.366204 94.091242 
L 361.022476 89.401052 
L 361.679829 96.53014 
L 362.340425 123.451831 
L 362.996697 122.982812 
L 363.65405 123.358027 
L 364.310322 111.538748 
L 364.967675 136.584363 
L 365.625028 126.078337 
L 366.282381 158.346845 
L 366.938653 141.274553 
L 367.594925 105.91052 
L 368.251197 130.487116 
L 368.907468 144.276275 
L 369.571308 118.761641 
L 370.22758 114.352862 
L 370.883852 124.389869 
L 371.540124 121.763363 
L 372.197477 126.922572 
L 372.85483 92.121362 
L 373.512183 112.945805 
L 374.169536 110.788318 
L 374.826889 100.657508 
L 375.483161 123.827046 
L 376.139433 165.851149 
L 376.796786 146.339958 
L 377.454139 131.612762 
L 378.117979 106.754755 
L 378.774251 118.667837 
L 379.431604 100.563704 
L 380.086794 131.612762 
L 380.743066 114.071451 
L 381.400419 101.689349 
L 382.056691 105.16009 
L 382.712963 91.183324 
L 383.370316 124.858888 
L 384.027669 116.416546 
L 384.683941 134.520679 
L 385.340213 141.649768 
L 385.997566 130.018097 
L 386.653837 135.833933 
L 387.317678 106.567147 
L 387.973949 149.34168 
L 388.630221 126.828768 
L 389.286493 143.619648 
L 389.942765 124.765084 
L 390.599037 121.575755 
L 391.255308 140.242711 
L 391.91158 120.731521 
L 392.567852 120.074894 
L 393.225205 122.044774 
L 393.881477 124.483673 
L 394.537749 128.048217 
L 395.195102 130.205705 
L 395.852455 95.873514 
L 396.516295 125.140299 
L 397.172567 123.451831 
L 397.82992 135.364914 
L 398.487273 121.763363 
L 398.487273 121.763363 
" style="fill:none;stroke:#1f77b4;stroke-linecap:square;stroke-width:1.5;"/>
   </g>
   <g id="patch_3">
    <path d="M 57.6 307.584 
L 57.6 41.472 
" style="fill:none;stroke:#000000;stroke-linecap:square;stroke-linejoin:miter;stroke-width:0.8;"/>
   </g>
   <g id="patch_4">
    <path d="M 414.72 307.584 
L 414.72 41.472 
" style="fill:none;stroke:#000000;stroke-linecap:square;stroke-linejoin:miter;stroke-width:0.8;"/>
   </g>
   <g id="patch_5">
    <path d="M 57.6 307.584 
L 414.72 307.584 
" style="fill:none;stroke:#000000;stroke-linecap:square;stroke-linejoin:miter;stroke-width:0.8;"/>
   </g>
   <g id="patch_6">
    <path d="M 57.6 41.472 
L 414.72 41.472 
" style="fill:none;stroke:#000000;stroke-linecap:square;stroke-linejoin:miter;stroke-width:0.8;"/>
   </g>
   <g id="text_17">
    <!-- Resistance -->
    <g transform="translate(203.562187 35.472)scale(0.12 -0.12)">
     <use xlink:href="#DejaVuSans-52"/>
     <use x="69.419922" xlink:href="#DejaVuSans-65"/>
     <use x="130.943359" xlink:href="#DejaVuSans-73"/>
     <use x="183.042969" xlink:href="#DejaVuSans-69"/>
     <use x="210.826172" xlink:href="#DejaVuSans-73"/>
     <use x="262.925781" xlink:href="#DejaVuSans-74"/>
     <use x="302.134766" xlink:href="#DejaVuSans-61"/>
     <use x="363.414062" xlink:href="#DejaVuSans-6e"/>
     <use x="426.792969" xlink:href="#DejaVuSans-63"/>
     <use x="481.773438" xlink:href="#DejaVuSans-65"/>
    </g>
   </g>
  </g>
 </g>
 <defs>
  <clipPath id="p779c87a78e">
   <rect height="266.112" width="357.12" x="57.6" y="41.472"/>
  </clipPath>
 </defs>
</svg>
