<?xml version="1.0" encoding="utf-8" standalone="no"?>
<!DOCTYPE svg PUBLIC "-//W3C//DTD SVG 1.1//EN"
  "http://www.w3.org/Graphics/SVG/1.1/DTD/svg11.dtd">
<!-- Created with matplotlib (http://matplotlib.org/) -->
<svg height="345pt" version="1.1" viewBox="0 0 460 345" width="460pt" xmlns="http://www.w3.org/2000/svg" xmlns:xlink="http://www.w3.org/1999/xlink">
 <defs>
  <style type="text/css">
*{stroke-linecap:butt;stroke-linejoin:round;}
  </style>
 </defs>
 <g id="figure_1">
  <g id="patch_1">
   <path d="M 0 345.6 
L 460.8 345.6 
L 460.8 0 
L 0 0 
z
" style="fill:#ffffff;"/>
  </g>
  <g id="axes_1">
   <g id="patch_2">
    <path d="M 57.6 307.584 
L 414.72 307.584 
L 414.72 41.472 
L 57.6 41.472 
z
" style="fill:#ffffff;"/>
   </g>
   <g id="matplotlib.axis_1">
    <g id="xtick_1">
     <g id="line2d_1">
      <defs>
       <path d="M 0 0 
L 0 3.5 
" id="mb57ffe54f4" style="stroke:#000000;stroke-width:0.8;"/>
      </defs>
      <g>
       <use style="stroke:#000000;stroke-width:0.8;" x="73.832727" xlink:href="#mb57ffe54f4" y="307.584"/>
      </g>
     </g>
     <g id="text_1">
      <!-- 0 -->
      <defs>
       <path d="M 31.78125 66.40625 
Q 24.171875 66.40625 20.328125 58.90625 
Q 16.5 51.421875 16.5 36.375 
Q 16.5 21.390625 20.328125 13.890625 
Q 24.171875 6.390625 31.78125 6.390625 
Q 39.453125 6.390625 43.28125 13.890625 
Q 47.125 21.390625 47.125 36.375 
Q 47.125 51.421875 43.28125 58.90625 
Q 39.453125 66.40625 31.78125 66.40625 
z
M 31.78125 74.21875 
Q 44.046875 74.21875 50.515625 64.515625 
Q 56.984375 54.828125 56.984375 36.375 
Q 56.984375 17.96875 50.515625 8.265625 
Q 44.046875 -1.421875 31.78125 -1.421875 
Q 19.53125 -1.421875 13.0625 8.265625 
Q 6.59375 17.96875 6.59375 36.375 
Q 6.59375 54.828125 13.0625 64.515625 
Q 19.53125 74.21875 31.78125 74.21875 
z
" id="DejaVuSans-30"/>
      </defs>
      <g transform="translate(70.651477 322.182437)scale(0.1 -0.1)">
       <use xlink:href="#DejaVuSans-30"/>
      </g>
     </g>
    </g>
    <g id="xtick_2">
     <g id="line2d_2">
      <g>
       <use style="stroke:#000000;stroke-width:0.8;" x="127.939203" xlink:href="#mb57ffe54f4" y="307.584"/>
      </g>
     </g>
     <g id="text_2">
      <!-- 100 -->
      <defs>
       <path d="M 12.40625 8.296875 
L 28.515625 8.296875 
L 28.515625 63.921875 
L 10.984375 60.40625 
L 10.984375 69.390625 
L 28.421875 72.90625 
L 38.28125 72.90625 
L 38.28125 8.296875 
L 54.390625 8.296875 
L 54.390625 0 
L 12.40625 0 
z
" id="DejaVuSans-31"/>
      </defs>
      <g transform="translate(118.395453 322.182437)scale(0.1 -0.1)">
       <use xlink:href="#DejaVuSans-31"/>
       <use x="63.623047" xlink:href="#DejaVuSans-30"/>
       <use x="127.246094" xlink:href="#DejaVuSans-30"/>
      </g>
     </g>
    </g>
    <g id="xtick_3">
     <g id="line2d_3">
      <g>
       <use style="stroke:#000000;stroke-width:0.8;" x="182.045679" xlink:href="#mb57ffe54f4" y="307.584"/>
      </g>
     </g>
     <g id="text_3">
      <!-- 200 -->
      <defs>
       <path d="M 19.1875 8.296875 
L 53.609375 8.296875 
L 53.609375 0 
L 7.328125 0 
L 7.328125 8.296875 
Q 12.9375 14.109375 22.625 23.890625 
Q 32.328125 33.6875 34.8125 36.53125 
Q 39.546875 41.84375 41.421875 45.53125 
Q 43.3125 49.21875 43.3125 52.78125 
Q 43.3125 58.59375 39.234375 62.25 
Q 35.15625 65.921875 28.609375 65.921875 
Q 23.96875 65.921875 18.8125 64.3125 
Q 13.671875 62.703125 7.8125 59.421875 
L 7.8125 69.390625 
Q 13.765625 71.78125 18.9375 73 
Q 24.125 74.21875 28.421875 74.21875 
Q 39.75 74.21875 46.484375 68.546875 
Q 53.21875 62.890625 53.21875 53.421875 
Q 53.21875 48.921875 51.53125 44.890625 
Q 49.859375 40.875 45.40625 35.40625 
Q 44.1875 33.984375 37.640625 27.21875 
Q 31.109375 20.453125 19.1875 8.296875 
z
" id="DejaVuSans-32"/>
      </defs>
      <g transform="translate(172.501929 322.182437)scale(0.1 -0.1)">
       <use xlink:href="#DejaVuSans-32"/>
       <use x="63.623047" xlink:href="#DejaVuSans-30"/>
       <use x="127.246094" xlink:href="#DejaVuSans-30"/>
      </g>
     </g>
    </g>
    <g id="xtick_4">
     <g id="line2d_4">
      <g>
       <use style="stroke:#000000;stroke-width:0.8;" x="236.152155" xlink:href="#mb57ffe54f4" y="307.584"/>
      </g>
     </g>
     <g id="text_4">
      <!-- 300 -->
      <defs>
       <path d="M 40.578125 39.3125 
Q 47.65625 37.796875 51.625 33 
Q 55.609375 28.21875 55.609375 21.1875 
Q 55.609375 10.40625 48.1875 4.484375 
Q 40.765625 -1.421875 27.09375 -1.421875 
Q 22.515625 -1.421875 17.65625 -0.515625 
Q 12.796875 0.390625 7.625 2.203125 
L 7.625 11.71875 
Q 11.71875 9.328125 16.59375 8.109375 
Q 21.484375 6.890625 26.8125 6.890625 
Q 36.078125 6.890625 40.9375 10.546875 
Q 45.796875 14.203125 45.796875 21.1875 
Q 45.796875 27.640625 41.28125 31.265625 
Q 36.765625 34.90625 28.71875 34.90625 
L 20.21875 34.90625 
L 20.21875 43.015625 
L 29.109375 43.015625 
Q 36.375 43.015625 40.234375 45.921875 
Q 44.09375 48.828125 44.09375 54.296875 
Q 44.09375 59.90625 40.109375 62.90625 
Q 36.140625 65.921875 28.71875 65.921875 
Q 24.65625 65.921875 20.015625 65.03125 
Q 15.375 64.15625 9.8125 62.3125 
L 9.8125 71.09375 
Q 15.4375 72.65625 20.34375 73.4375 
Q 25.25 74.21875 29.59375 74.21875 
Q 40.828125 74.21875 47.359375 69.109375 
Q 53.90625 64.015625 53.90625 55.328125 
Q 53.90625 49.265625 50.4375 45.09375 
Q 46.96875 40.921875 40.578125 39.3125 
z
" id="DejaVuSans-33"/>
      </defs>
      <g transform="translate(226.608405 322.182437)scale(0.1 -0.1)">
       <use xlink:href="#DejaVuSans-33"/>
       <use x="63.623047" xlink:href="#DejaVuSans-30"/>
       <use x="127.246094" xlink:href="#DejaVuSans-30"/>
      </g>
     </g>
    </g>
    <g id="xtick_5">
     <g id="line2d_5">
      <g>
       <use style="stroke:#000000;stroke-width:0.8;" x="290.25863" xlink:href="#mb57ffe54f4" y="307.584"/>
      </g>
     </g>
     <g id="text_5">
      <!-- 400 -->
      <defs>
       <path d="M 37.796875 64.3125 
L 12.890625 25.390625 
L 37.796875 25.390625 
z
M 35.203125 72.90625 
L 47.609375 72.90625 
L 47.609375 25.390625 
L 58.015625 25.390625 
L 58.015625 17.1875 
L 47.609375 17.1875 
L 47.609375 0 
L 37.796875 0 
L 37.796875 17.1875 
L 4.890625 17.1875 
L 4.890625 26.703125 
z
" id="DejaVuSans-34"/>
      </defs>
      <g transform="translate(280.71488 322.182437)scale(0.1 -0.1)">
       <use xlink:href="#DejaVuSans-34"/>
       <use x="63.623047" xlink:href="#DejaVuSans-30"/>
       <use x="127.246094" xlink:href="#DejaVuSans-30"/>
      </g>
     </g>
    </g>
    <g id="xtick_6">
     <g id="line2d_6">
      <g>
       <use style="stroke:#000000;stroke-width:0.8;" x="344.365106" xlink:href="#mb57ffe54f4" y="307.584"/>
      </g>
     </g>
     <g id="text_6">
      <!-- 500 -->
      <defs>
       <path d="M 10.796875 72.90625 
L 49.515625 72.90625 
L 49.515625 64.59375 
L 19.828125 64.59375 
L 19.828125 46.734375 
Q 21.96875 47.46875 24.109375 47.828125 
Q 26.265625 48.1875 28.421875 48.1875 
Q 40.625 48.1875 47.75 41.5 
Q 54.890625 34.8125 54.890625 23.390625 
Q 54.890625 11.625 47.5625 5.09375 
Q 40.234375 -1.421875 26.90625 -1.421875 
Q 22.3125 -1.421875 17.546875 -0.640625 
Q 12.796875 0.140625 7.71875 1.703125 
L 7.71875 11.625 
Q 12.109375 9.234375 16.796875 8.0625 
Q 21.484375 6.890625 26.703125 6.890625 
Q 35.15625 6.890625 40.078125 11.328125 
Q 45.015625 15.765625 45.015625 23.390625 
Q 45.015625 31 40.078125 35.4375 
Q 35.15625 39.890625 26.703125 39.890625 
Q 22.75 39.890625 18.8125 39.015625 
Q 14.890625 38.140625 10.796875 36.28125 
z
" id="DejaVuSans-35"/>
      </defs>
      <g transform="translate(334.821356 322.182437)scale(0.1 -0.1)">
       <use xlink:href="#DejaVuSans-35"/>
       <use x="63.623047" xlink:href="#DejaVuSans-30"/>
       <use x="127.246094" xlink:href="#DejaVuSans-30"/>
      </g>
     </g>
    </g>
    <g id="xtick_7">
     <g id="line2d_7">
      <g>
       <use style="stroke:#000000;stroke-width:0.8;" x="398.471582" xlink:href="#mb57ffe54f4" y="307.584"/>
      </g>
     </g>
     <g id="text_7">
      <!-- 600 -->
      <defs>
       <path d="M 33.015625 40.375 
Q 26.375 40.375 22.484375 35.828125 
Q 18.609375 31.296875 18.609375 23.390625 
Q 18.609375 15.53125 22.484375 10.953125 
Q 26.375 6.390625 33.015625 6.390625 
Q 39.65625 6.390625 43.53125 10.953125 
Q 47.40625 15.53125 47.40625 23.390625 
Q 47.40625 31.296875 43.53125 35.828125 
Q 39.65625 40.375 33.015625 40.375 
z
M 52.59375 71.296875 
L 52.59375 62.3125 
Q 48.875 64.0625 45.09375 64.984375 
Q 41.3125 65.921875 37.59375 65.921875 
Q 27.828125 65.921875 22.671875 59.328125 
Q 17.53125 52.734375 16.796875 39.40625 
Q 19.671875 43.65625 24.015625 45.921875 
Q 28.375 48.1875 33.59375 48.1875 
Q 44.578125 48.1875 50.953125 41.515625 
Q 57.328125 34.859375 57.328125 23.390625 
Q 57.328125 12.15625 50.6875 5.359375 
Q 44.046875 -1.421875 33.015625 -1.421875 
Q 20.359375 -1.421875 13.671875 8.265625 
Q 6.984375 17.96875 6.984375 36.375 
Q 6.984375 53.65625 15.1875 63.9375 
Q 23.390625 74.21875 37.203125 74.21875 
Q 40.921875 74.21875 44.703125 73.484375 
Q 48.484375 72.75 52.59375 71.296875 
z
" id="DejaVuSans-36"/>
      </defs>
      <g transform="translate(388.927832 322.182437)scale(0.1 -0.1)">
       <use xlink:href="#DejaVuSans-36"/>
       <use x="63.623047" xlink:href="#DejaVuSans-30"/>
       <use x="127.246094" xlink:href="#DejaVuSans-30"/>
      </g>
     </g>
    </g>
    <g id="text_8">
     <!-- t(s) -->
     <defs>
      <path d="M 18.3125 70.21875 
L 18.3125 54.6875 
L 36.8125 54.6875 
L 36.8125 47.703125 
L 18.3125 47.703125 
L 18.3125 18.015625 
Q 18.3125 11.328125 20.140625 9.421875 
Q 21.96875 7.515625 27.59375 7.515625 
L 36.8125 7.515625 
L 36.8125 0 
L 27.59375 0 
Q 17.1875 0 13.234375 3.875 
Q 9.28125 7.765625 9.28125 18.015625 
L 9.28125 47.703125 
L 2.6875 47.703125 
L 2.6875 54.6875 
L 9.28125 54.6875 
L 9.28125 70.21875 
z
" id="DejaVuSans-74"/>
      <path d="M 31 75.875 
Q 24.46875 64.65625 21.28125 53.65625 
Q 18.109375 42.671875 18.109375 31.390625 
Q 18.109375 20.125 21.3125 9.0625 
Q 24.515625 -2 31 -13.1875 
L 23.1875 -13.1875 
Q 15.875 -1.703125 12.234375 9.375 
Q 8.59375 20.453125 8.59375 31.390625 
Q 8.59375 42.28125 12.203125 53.3125 
Q 15.828125 64.359375 23.1875 75.875 
z
" id="DejaVuSans-28"/>
      <path d="M 44.28125 53.078125 
L 44.28125 44.578125 
Q 40.484375 46.53125 36.375 47.5 
Q 32.28125 48.484375 27.875 48.484375 
Q 21.1875 48.484375 17.84375 46.4375 
Q 14.5 44.390625 14.5 40.28125 
Q 14.5 37.15625 16.890625 35.375 
Q 19.28125 33.59375 26.515625 31.984375 
L 29.59375 31.296875 
Q 39.15625 29.25 43.1875 25.515625 
Q 47.21875 21.78125 47.21875 15.09375 
Q 47.21875 7.46875 41.1875 3.015625 
Q 35.15625 -1.421875 24.609375 -1.421875 
Q 20.21875 -1.421875 15.453125 -0.5625 
Q 10.6875 0.296875 5.421875 2 
L 5.421875 11.28125 
Q 10.40625 8.6875 15.234375 7.390625 
Q 20.0625 6.109375 24.8125 6.109375 
Q 31.15625 6.109375 34.5625 8.28125 
Q 37.984375 10.453125 37.984375 14.40625 
Q 37.984375 18.0625 35.515625 20.015625 
Q 33.0625 21.96875 24.703125 23.78125 
L 21.578125 24.515625 
Q 13.234375 26.265625 9.515625 29.90625 
Q 5.8125 33.546875 5.8125 39.890625 
Q 5.8125 47.609375 11.28125 51.796875 
Q 16.75 56 26.8125 56 
Q 31.78125 56 36.171875 55.265625 
Q 40.578125 54.546875 44.28125 53.078125 
z
" id="DejaVuSans-73"/>
      <path d="M 8.015625 75.875 
L 15.828125 75.875 
Q 23.140625 64.359375 26.78125 53.3125 
Q 30.421875 42.28125 30.421875 31.390625 
Q 30.421875 20.453125 26.78125 9.375 
Q 23.140625 -1.703125 15.828125 -13.1875 
L 8.015625 -13.1875 
Q 14.5 -2 17.703125 9.0625 
Q 20.90625 20.125 20.90625 31.390625 
Q 20.90625 42.671875 17.703125 53.65625 
Q 14.5 64.65625 8.015625 75.875 
z
" id="DejaVuSans-29"/>
     </defs>
     <g transform="translate(227.693594 335.860562)scale(0.1 -0.1)">
      <use xlink:href="#DejaVuSans-74"/>
      <use x="39.208984" xlink:href="#DejaVuSans-28"/>
      <use x="78.222656" xlink:href="#DejaVuSans-73"/>
      <use x="130.322266" xlink:href="#DejaVuSans-29"/>
     </g>
    </g>
   </g>
   <g id="matplotlib.axis_2">
    <g id="ytick_1">
     <g id="line2d_8">
      <defs>
       <path d="M 0 0 
L -3.5 0 
" id="m8afb289620" style="stroke:#000000;stroke-width:0.8;"/>
      </defs>
      <g>
       <use style="stroke:#000000;stroke-width:0.8;" x="57.6" xlink:href="#m8afb289620" y="263.837301"/>
      </g>
     </g>
     <g id="text_9">
      <!-- 1.0009 -->
      <defs>
       <path d="M 10.6875 12.40625 
L 21 12.40625 
L 21 0 
L 10.6875 0 
z
" id="DejaVuSans-2e"/>
       <path d="M 10.984375 1.515625 
L 10.984375 10.5 
Q 14.703125 8.734375 18.5 7.8125 
Q 22.3125 6.890625 25.984375 6.890625 
Q 35.75 6.890625 40.890625 13.453125 
Q 46.046875 20.015625 46.78125 33.40625 
Q 43.953125 29.203125 39.59375 26.953125 
Q 35.25 24.703125 29.984375 24.703125 
Q 19.046875 24.703125 12.671875 31.3125 
Q 6.296875 37.9375 6.296875 49.421875 
Q 6.296875 60.640625 12.9375 67.421875 
Q 19.578125 74.21875 30.609375 74.21875 
Q 43.265625 74.21875 49.921875 64.515625 
Q 56.59375 54.828125 56.59375 36.375 
Q 56.59375 19.140625 48.40625 8.859375 
Q 40.234375 -1.421875 26.421875 -1.421875 
Q 22.703125 -1.421875 18.890625 -0.6875 
Q 15.09375 0.046875 10.984375 1.515625 
z
M 30.609375 32.421875 
Q 37.25 32.421875 41.125 36.953125 
Q 45.015625 41.5 45.015625 49.421875 
Q 45.015625 57.28125 41.125 61.84375 
Q 37.25 66.40625 30.609375 66.40625 
Q 23.96875 66.40625 20.09375 61.84375 
Q 16.21875 57.28125 16.21875 49.421875 
Q 16.21875 41.5 20.09375 36.953125 
Q 23.96875 32.421875 30.609375 32.421875 
z
" id="DejaVuSans-39"/>
      </defs>
      <g transform="translate(15.609375 267.63652)scale(0.1 -0.1)">
       <use xlink:href="#DejaVuSans-31"/>
       <use x="63.623047" xlink:href="#DejaVuSans-2e"/>
       <use x="95.410156" xlink:href="#DejaVuSans-30"/>
       <use x="159.033203" xlink:href="#DejaVuSans-30"/>
       <use x="222.65625" xlink:href="#DejaVuSans-30"/>
       <use x="286.279297" xlink:href="#DejaVuSans-39"/>
      </g>
     </g>
    </g>
    <g id="ytick_2">
     <g id="line2d_9">
      <g>
       <use style="stroke:#000000;stroke-width:0.8;" x="57.6" xlink:href="#m8afb289620" y="207.125781"/>
      </g>
     </g>
     <g id="text_10">
      <!-- 1.0010 -->
      <g transform="translate(15.609375 210.925)scale(0.1 -0.1)">
       <use xlink:href="#DejaVuSans-31"/>
       <use x="63.623047" xlink:href="#DejaVuSans-2e"/>
       <use x="95.410156" xlink:href="#DejaVuSans-30"/>
       <use x="159.033203" xlink:href="#DejaVuSans-30"/>
       <use x="222.65625" xlink:href="#DejaVuSans-31"/>
       <use x="286.279297" xlink:href="#DejaVuSans-30"/>
      </g>
     </g>
    </g>
    <g id="ytick_3">
     <g id="line2d_10">
      <g>
       <use style="stroke:#000000;stroke-width:0.8;" x="57.6" xlink:href="#m8afb289620" y="150.414262"/>
      </g>
     </g>
     <g id="text_11">
      <!-- 1.0011 -->
      <g transform="translate(15.609375 154.213481)scale(0.1 -0.1)">
       <use xlink:href="#DejaVuSans-31"/>
       <use x="63.623047" xlink:href="#DejaVuSans-2e"/>
       <use x="95.410156" xlink:href="#DejaVuSans-30"/>
       <use x="159.033203" xlink:href="#DejaVuSans-30"/>
       <use x="222.65625" xlink:href="#DejaVuSans-31"/>
       <use x="286.279297" xlink:href="#DejaVuSans-31"/>
      </g>
     </g>
    </g>
    <g id="ytick_4">
     <g id="line2d_11">
      <g>
       <use style="stroke:#000000;stroke-width:0.8;" x="57.6" xlink:href="#m8afb289620" y="93.702742"/>
      </g>
     </g>
     <g id="text_12">
      <!-- 1.0012 -->
      <g transform="translate(15.609375 97.501961)scale(0.1 -0.1)">
       <use xlink:href="#DejaVuSans-31"/>
       <use x="63.623047" xlink:href="#DejaVuSans-2e"/>
       <use x="95.410156" xlink:href="#DejaVuSans-30"/>
       <use x="159.033203" xlink:href="#DejaVuSans-30"/>
       <use x="222.65625" xlink:href="#DejaVuSans-31"/>
       <use x="286.279297" xlink:href="#DejaVuSans-32"/>
      </g>
     </g>
    </g>
    <g id="text_13">
     <!-- Pressure (bar) -->
     <defs>
      <path d="M 19.671875 64.796875 
L 19.671875 37.40625 
L 32.078125 37.40625 
Q 38.96875 37.40625 42.71875 40.96875 
Q 46.484375 44.53125 46.484375 51.125 
Q 46.484375 57.671875 42.71875 61.234375 
Q 38.96875 64.796875 32.078125 64.796875 
z
M 9.8125 72.90625 
L 32.078125 72.90625 
Q 44.34375 72.90625 50.609375 67.359375 
Q 56.890625 61.8125 56.890625 51.125 
Q 56.890625 40.328125 50.609375 34.8125 
Q 44.34375 29.296875 32.078125 29.296875 
L 19.671875 29.296875 
L 19.671875 0 
L 9.8125 0 
z
" id="DejaVuSans-50"/>
      <path d="M 41.109375 46.296875 
Q 39.59375 47.171875 37.8125 47.578125 
Q 36.03125 48 33.890625 48 
Q 26.265625 48 22.1875 43.046875 
Q 18.109375 38.09375 18.109375 28.8125 
L 18.109375 0 
L 9.078125 0 
L 9.078125 54.6875 
L 18.109375 54.6875 
L 18.109375 46.1875 
Q 20.953125 51.171875 25.484375 53.578125 
Q 30.03125 56 36.53125 56 
Q 37.453125 56 38.578125 55.875 
Q 39.703125 55.765625 41.0625 55.515625 
z
" id="DejaVuSans-72"/>
      <path d="M 56.203125 29.59375 
L 56.203125 25.203125 
L 14.890625 25.203125 
Q 15.484375 15.921875 20.484375 11.0625 
Q 25.484375 6.203125 34.421875 6.203125 
Q 39.59375 6.203125 44.453125 7.46875 
Q 49.3125 8.734375 54.109375 11.28125 
L 54.109375 2.78125 
Q 49.265625 0.734375 44.1875 -0.34375 
Q 39.109375 -1.421875 33.890625 -1.421875 
Q 20.796875 -1.421875 13.15625 6.1875 
Q 5.515625 13.8125 5.515625 26.8125 
Q 5.515625 40.234375 12.765625 48.109375 
Q 20.015625 56 32.328125 56 
Q 43.359375 56 49.78125 48.890625 
Q 56.203125 41.796875 56.203125 29.59375 
z
M 47.21875 32.234375 
Q 47.125 39.59375 43.09375 43.984375 
Q 39.0625 48.390625 32.421875 48.390625 
Q 24.90625 48.390625 20.390625 44.140625 
Q 15.875 39.890625 15.1875 32.171875 
z
" id="DejaVuSans-65"/>
      <path d="M 8.5 21.578125 
L 8.5 54.6875 
L 17.484375 54.6875 
L 17.484375 21.921875 
Q 17.484375 14.15625 20.5 10.265625 
Q 23.53125 6.390625 29.59375 6.390625 
Q 36.859375 6.390625 41.078125 11.03125 
Q 45.3125 15.671875 45.3125 23.6875 
L 45.3125 54.6875 
L 54.296875 54.6875 
L 54.296875 0 
L 45.3125 0 
L 45.3125 8.40625 
Q 42.046875 3.421875 37.71875 1 
Q 33.40625 -1.421875 27.6875 -1.421875 
Q 18.265625 -1.421875 13.375 4.4375 
Q 8.5 10.296875 8.5 21.578125 
z
M 31.109375 56 
z
" id="DejaVuSans-75"/>
      <path id="DejaVuSans-20"/>
      <path d="M 48.6875 27.296875 
Q 48.6875 37.203125 44.609375 42.84375 
Q 40.53125 48.484375 33.40625 48.484375 
Q 26.265625 48.484375 22.1875 42.84375 
Q 18.109375 37.203125 18.109375 27.296875 
Q 18.109375 17.390625 22.1875 11.75 
Q 26.265625 6.109375 33.40625 6.109375 
Q 40.53125 6.109375 44.609375 11.75 
Q 48.6875 17.390625 48.6875 27.296875 
z
M 18.109375 46.390625 
Q 20.953125 51.265625 25.265625 53.625 
Q 29.59375 56 35.59375 56 
Q 45.5625 56 51.78125 48.09375 
Q 58.015625 40.1875 58.015625 27.296875 
Q 58.015625 14.40625 51.78125 6.484375 
Q 45.5625 -1.421875 35.59375 -1.421875 
Q 29.59375 -1.421875 25.265625 0.953125 
Q 20.953125 3.328125 18.109375 8.203125 
L 18.109375 0 
L 9.078125 0 
L 9.078125 75.984375 
L 18.109375 75.984375 
z
" id="DejaVuSans-62"/>
      <path d="M 34.28125 27.484375 
Q 23.390625 27.484375 19.1875 25 
Q 14.984375 22.515625 14.984375 16.5 
Q 14.984375 11.71875 18.140625 8.90625 
Q 21.296875 6.109375 26.703125 6.109375 
Q 34.1875 6.109375 38.703125 11.40625 
Q 43.21875 16.703125 43.21875 25.484375 
L 43.21875 27.484375 
z
M 52.203125 31.203125 
L 52.203125 0 
L 43.21875 0 
L 43.21875 8.296875 
Q 40.140625 3.328125 35.546875 0.953125 
Q 30.953125 -1.421875 24.3125 -1.421875 
Q 15.921875 -1.421875 10.953125 3.296875 
Q 6 8.015625 6 15.921875 
Q 6 25.140625 12.171875 29.828125 
Q 18.359375 34.515625 30.609375 34.515625 
L 43.21875 34.515625 
L 43.21875 35.40625 
Q 43.21875 41.609375 39.140625 45 
Q 35.0625 48.390625 27.6875 48.390625 
Q 23 48.390625 18.546875 47.265625 
Q 14.109375 46.140625 10.015625 43.890625 
L 10.015625 52.203125 
Q 14.9375 54.109375 19.578125 55.046875 
Q 24.21875 56 28.609375 56 
Q 40.484375 56 46.34375 49.84375 
Q 52.203125 43.703125 52.203125 31.203125 
z
" id="DejaVuSans-61"/>
     </defs>
     <g transform="translate(9.529687 209.9655)rotate(-90)scale(0.1 -0.1)">
      <use xlink:href="#DejaVuSans-50"/>
      <use x="60.287109" xlink:href="#DejaVuSans-72"/>
      <use x="101.369141" xlink:href="#DejaVuSans-65"/>
      <use x="162.892578" xlink:href="#DejaVuSans-73"/>
      <use x="214.992188" xlink:href="#DejaVuSans-73"/>
      <use x="267.091797" xlink:href="#DejaVuSans-75"/>
      <use x="330.470703" xlink:href="#DejaVuSans-72"/>
      <use x="371.552734" xlink:href="#DejaVuSans-65"/>
      <use x="433.076172" xlink:href="#DejaVuSans-20"/>
      <use x="464.863281" xlink:href="#DejaVuSans-28"/>
      <use x="503.876953" xlink:href="#DejaVuSans-62"/>
      <use x="567.353516" xlink:href="#DejaVuSans-61"/>
      <use x="628.632812" xlink:href="#DejaVuSans-72"/>
      <use x="669.746094" xlink:href="#DejaVuSans-29"/>
     </g>
    </g>
   </g>
   <g id="line2d_12">
    <path clip-path="url(#pa6d4c3a92d)" d="M 73.832727 183.913756 
L 74.373792 181.157577 
L 74.914857 191.75696 
L 75.455922 189.970547 
L 75.996986 180.562106 
L 76.538051 203.762788 
L 77.079116 199.600163 
L 77.620181 172.662191 
L 78.161245 197.053816 
L 78.70231 187.860878 
L 79.243375 190.566018 
L 79.78444 191.376992 
L 80.866569 163.849221 
L 81.407634 207.766622 
L 81.948699 190.242762 
L 82.489763 185.75121 
L 83.030828 186.346681 
L 83.571893 177.749214 
L 84.654022 187.91759 
L 85.195087 186.8344 
L 85.736152 183.749293 
L 86.277217 167.416375 
L 86.818281 197.81375 
L 87.359346 188.513061 
L 87.900411 183.964797 
L 88.441476 191.053737 
L 88.98254 171.851216 
L 89.523605 184.344764 
L 90.06467 184.724731 
L 90.605735 170.824738 
L 91.1468 167.853054 
L 91.687864 176.722736 
L 92.228929 176.722736 
L 92.769994 180.669858 
L 93.852123 174.77186 
L 94.393188 206.57568 
L 94.934253 186.403392 
L 95.475318 190.997025 
L 96.016382 192.998942 
L 96.557447 201.329864 
L 97.098512 188.399638 
L 97.639577 191.320281 
L 98.180641 187.322119 
L 98.721706 185.155739 
L 99.262771 181.531873 
L 99.803836 193.594413 
L 100.3449 191.053737 
L 100.885965 193.537701 
L 101.42703 202.679598 
L 101.968095 190.730481 
L 102.509159 206.252424 
L 103.050224 217.010599 
L 103.591289 196.350593 
L 104.132354 187.860878 
L 104.673418 197.326031 
L 105.214483 191.700248 
L 105.755548 204.250507 
L 106.296613 205.061482 
L 106.837677 188.887357 
L 107.378742 199.651203 
L 107.919807 199.707915 
L 108.460872 189.539539 
L 109.001937 201.329864 
L 109.543001 189.59058 
L 110.084607 207.171151 
L 110.625672 189.375076 
L 111.166737 205.220274 
L 112.248866 190.458266 
L 112.789931 190.997025 
L 113.330996 203.110606 
L 113.87206 198.94798 
L 114.413125 190.838233 
L 114.95419 208.033166 
L 115.495255 213.063478 
L 116.036319 188.291886 
L 116.577384 295.488 
L 117.118449 213.386733 
L 117.660055 160.225355 
L 118.201661 196.67952 
L 118.743266 207.386654 
L 119.284331 179.263412 
L 119.825396 219.77245 
L 120.366461 188.779605 
L 120.907525 208.197629 
L 121.44859 193.97438 
L 121.989655 196.73056 
L 122.53072 192.567934 
L 123.071784 184.452516 
L 123.612849 187.702086 
L 124.154455 200.626641 
L 124.69552 216.364088 
L 125.236585 191.104777 
L 125.777649 178.991197 
L 126.318714 198.029254 
L 126.859779 201.817583 
L 127.400844 203.927252 
L 127.941908 183.153822 
L 128.482973 193.322198 
L 129.024038 197.490494 
L 129.565103 197.110527 
L 130.106167 210.41505 
L 130.647232 200.893185 
L 131.188297 186.669936 
L 131.729362 199.707915 
L 132.270426 193.486661 
L 132.811491 203.110606 
L 133.352556 195.05757 
L 133.893621 195.755122 
L 134.434685 190.997025 
L 134.97575 193.106694 
L 135.516815 210.41505 
L 136.05788 193.594413 
L 136.598944 186.998863 
L 137.140009 190.350514 
L 137.681074 206.518968 
L 138.222139 201.817583 
L 138.763203 187.645374 
L 139.845333 207.982125 
L 140.386398 205.169234 
L 140.927462 191.484744 
L 141.468527 191.915752 
L 142.009592 197.002775 
L 142.550657 189.755043 
L 143.091722 200.138922 
L 143.632786 202.895102 
L 144.173851 195.64737 
L 144.714916 199.815667 
L 145.255981 182.291807 
L 145.797045 198.94798 
L 146.33811 198.89694 
L 146.879175 191.700248 
L 147.42024 192.567934 
L 147.961304 201.222112 
L 148.502369 190.293802 
L 149.043434 199.112444 
L 149.584499 189.267324 
L 150.125563 203.490573 
L 150.666628 209.819579 
L 151.748758 185.535706 
L 152.289822 195.000859 
L 152.830887 191.592496 
L 153.371952 198.137006 
L 153.913017 198.840228 
L 154.454081 214.311131 
L 155.536211 192.947902 
L 156.077276 201.976375 
L 156.61834 196.084049 
L 157.159405 192.726727 
L 157.70047 215.660865 
L 158.241535 201.165401 
L 158.782599 199.815667 
L 159.323664 294.030514 
L 159.864729 200.734393 
L 160.405794 168.715069 
L 160.946859 184.401476 
L 161.487923 192.244679 
L 162.028988 186.29564 
L 162.570053 192.244679 
L 163.111118 195.10861 
L 163.652182 180.28989 
L 164.193247 182.291807 
L 164.734312 143.727974 
L 165.275377 271.311879 
L 165.816441 192.295719 
L 166.357506 173.14991 
L 166.898571 173.580918 
L 167.439636 195.380826 
L 167.9807 94.349254 
L 168.521765 261.143504 
L 169.06283 203.110606 
L 169.603895 197.490494 
L 170.144959 238.322788 
L 170.686024 184.293724 
L 171.227089 176.393809 
L 171.768154 193.271157 
L 172.309218 178.991197 
L 172.850283 191.161489 
L 173.391348 198.89694 
L 173.932413 185.966713 
L 175.014542 198.675765 
L 175.555607 191.75696 
L 176.096672 188.836316 
L 176.637736 176.450521 
L 177.178801 179.643379 
L 177.719866 203.439533 
L 178.260931 195.000859 
L 178.801996 173.637629 
L 179.34306 184.781443 
L 179.884125 178.503478 
L 180.42519 208.033166 
L 180.966796 189.267324 
L 181.508402 192.511223 
L 182.050007 91.42861 
L 182.591613 202.248591 
L 183.133219 238.538292 
L 183.674825 173.206622 
L 184.21589 185.263491 
L 184.756954 192.403471 
L 185.298019 194.462099 
L 185.839084 186.562184 
L 186.380149 184.560268 
L 186.921213 186.346681 
L 187.462278 186.998863 
L 188.003884 182.615063 
L 188.544949 185.263491 
L 189.086013 190.781521 
L 189.627078 208.469844 
L 190.709208 195.000859 
L 191.250272 190.781521 
L 191.791337 193.106694 
L 192.332402 181.480832 
L 192.873467 208.7931 
L 193.414532 185.155739 
L 193.955596 184.66802 
L 194.496661 194.189884 
L 195.037726 184.509227 
L 195.578791 194.354347 
L 196.119855 172.06672 
L 196.66092 189.05182 
L 197.201985 202.356343 
L 197.74305 179.422204 
L 198.284114 184.021508 
L 198.825179 210.738305 
L 199.366244 211.49824 
L 199.907309 176.286057 
L 200.448373 183.102782 
L 200.989438 183.749293 
L 201.530503 215.768617 
L 202.071568 208.089877 
L 202.612632 166.446608 
L 203.153697 183.641541 
L 203.694762 53.568 
L 204.235827 212.847974 
L 204.776891 195.919585 
L 205.317956 191.161489 
L 205.859021 183.426037 
L 206.400086 178.015758 
L 206.94115 185.427954 
L 207.482215 201.222112 
L 208.02328 185.047987 
L 208.564345 194.462099 
L 209.105409 185.807921 
L 209.646474 200.354426 
L 210.187539 189.102861 
L 210.728604 196.458345 
L 211.269669 181.424121 
L 211.810733 194.677603 
L 212.351798 190.997025 
L 212.892863 80.936979 
L 213.433928 234.534459 
L 213.974992 197.002775 
L 214.516057 178.07247 
L 215.057122 191.808 
L 215.598187 200.893185 
L 216.139251 186.511144 
L 216.680316 194.785355 
L 217.221381 189.05182 
L 217.762446 189.431787 
L 218.30351 196.027337 
L 218.844575 183.964797 
L 219.38564 174.556356 
L 219.926705 174.391892 
L 220.467769 197.161567 
L 221.008834 185.484666 
L 221.549899 188.564101 
L 222.090964 187.265407 
L 222.632028 186.88544 
L 223.173093 187.214367 
L 223.714158 185.047987 
L 224.255223 187.480911 
L 224.796287 184.940235 
L 225.337352 187.049904 
L 226.419482 219.715739 
L 226.960546 190.566018 
L 227.501611 176.558272 
L 228.042676 179.966635 
L 228.583741 177.476999 
L 229.124806 201.222112 
L 229.66587 183.374997 
L 230.206935 195.755122 
L 230.748 194.297636 
L 231.289065 188.620813 
L 231.830129 192.783438 
L 232.371194 193.378909 
L 232.912259 196.084049 
L 233.453324 197.705998 
L 233.994388 198.193717 
L 234.535453 181.747376 
L 235.076518 192.460182 
L 235.617583 190.509306 
L 236.158647 191.864712 
L 236.699712 195.755122 
L 237.240777 190.67377 
L 237.781842 179.478916 
L 238.322906 173.529877 
L 238.863971 184.237012 
L 239.405036 176.178305 
L 239.946101 202.73631 
L 240.487165 178.991197 
L 241.569295 193.271157 
L 242.11036 186.88544 
L 242.651424 191.592496 
L 243.192489 182.830566 
L 243.733554 193.214446 
L 244.274619 197.541535 
L 244.815683 193.917669 
L 245.356748 192.675686 
L 245.897813 193.429949 
L 246.438878 195.539618 
L 246.979943 187.429871 
L 247.521007 198.301469 
L 248.062072 183.102782 
L 248.603137 194.02542 
L 249.685266 181.480832 
L 250.226331 186.998863 
L 250.767396 184.996947 
L 251.308461 191.161489 
L 251.849525 182.291807 
L 252.39059 200.734393 
L 252.931655 199.492411 
L 253.47272 187.753126 
L 254.013784 195.868545 
L 254.554849 179.422204 
L 255.095914 191.700248 
L 255.636979 191.700248 
L 256.178043 203.439533 
L 256.719108 188.291886 
L 257.260173 184.237012 
L 257.801238 186.998863 
L 258.342302 184.940235 
L 258.883367 188.348597 
L 259.424432 198.840228 
L 259.965497 189.919506 
L 260.506561 214.146668 
L 261.047626 187.809838 
L 261.588691 185.592417 
L 262.129756 190.889273 
L 262.67082 191.104777 
L 263.211885 189.267324 
L 263.75295 171.584672 
L 264.294015 189.970547 
L 264.83508 202.78735 
L 265.376144 202.895102 
L 265.917209 190.401554 
L 266.458274 182.342847 
L 266.999339 185.484666 
L 267.540403 215.445361 
L 268.622533 196.571768 
L 269.164139 203.331781 
L 269.705203 181.860799 
L 270.246268 191.808 
L 270.787333 183.964797 
L 271.328398 193.163405 
L 271.869462 193.214446 
L 272.410527 176.127265 
L 272.951592 203.706077 
L 273.492657 179.2067 
L 274.033721 192.187967 
L 274.574786 189.05182 
L 275.115851 198.193717 
L 275.656916 183.698253 
L 276.19798 182.938318 
L 276.739045 193.214446 
L 277.28011 177.425959 
L 277.821175 184.344764 
L 278.362239 188.456349 
L 278.903304 176.178305 
L 279.444369 190.622729 
L 279.985434 185.700169 
L 280.526499 202.895102 
L 281.067563 188.184134 
L 281.608628 186.023425 
L 282.149693 194.02542 
L 282.690758 191.433704 
L 283.231822 174.391892 
L 283.772887 196.350593 
L 284.855017 189.267324 
L 285.396081 188.076382 
L 285.937146 183.374997 
L 286.478211 188.728564 
L 287.019276 181.531873 
L 287.56034 187.157655 
L 288.64247 194.297636 
L 289.183535 189.324035 
L 289.724599 191.484744 
L 290.265664 184.996947 
L 290.806729 192.567934 
L 291.347794 196.515056 
L 291.888858 184.940235 
L 292.429923 180.82865 
L 292.970988 189.267324 
L 293.512053 189.862795 
L 294.053117 198.789188 
L 294.594182 186.726648 
L 295.135247 194.354347 
L 296.217376 203.813829 
L 296.758441 201.380904 
L 297.299506 191.915752 
L 297.840571 199.220196 
L 298.381636 189.216284 
L 298.9227 187.96863 
L 299.463765 184.12926 
L 300.00483 194.836395 
L 300.545895 192.84015 
L 301.086959 193.055653 
L 301.628024 190.027258 
L 302.169089 199.600163 
L 302.710154 193.486661 
L 303.251218 193.486661 
L 304.33443 184.293724 
L 304.875495 76.229923 
L 305.41656 251.791774 
L 305.957624 191.972463 
L 306.498689 174.340852 
L 307.040295 189.59058 
L 307.58136 198.193717 
L 308.122424 201.380904 
L 308.663489 181.37308 
L 309.205095 187.429871 
L 309.74616 215.337609 
L 310.287224 208.197629 
L 311.369354 186.346681 
L 311.910419 201.65312 
L 312.451483 192.295719 
L 312.992548 202.844062 
L 313.533613 201.868624 
L 314.074678 192.675686 
L 314.615742 185.858962 
L 315.156807 191.808 
L 315.697872 205.600242 
L 316.238937 206.252424 
L 316.780002 202.413054 
L 317.321066 252.653789 
L 317.862131 180.505394 
L 318.403196 172.662191 
L 318.944261 186.998863 
L 319.485325 185.484666 
L 320.02639 180.454354 
L 320.567455 182.019592 
L 321.10852 196.027337 
L 321.649584 163.418213 
L 322.190649 157.576927 
L 322.731714 211.985959 
L 323.272779 220.418962 
L 323.813843 203.547285 
L 324.354908 200.195634 
L 324.895973 209.439611 
L 325.437038 214.311131 
L 326.519167 188.779605 
L 327.060232 209.065315 
L 327.601297 203.439533 
L 328.142361 206.847895 
L 328.683426 203.547285 
L 329.224491 186.182217 
L 329.765556 202.520806 
L 330.30662 188.133094 
L 330.847685 194.893107 
L 331.38875 192.947902 
L 331.929815 198.460261 
L 332.470879 197.218279 
L 333.011944 192.998942 
L 333.553009 204.193796 
L 334.094074 200.518889 
L 334.635139 192.136927 
L 335.176203 190.781521 
L 336.258333 201.057649 
L 336.799398 204.035004 
L 337.340462 193.97438 
L 337.881527 199.974459 
L 338.422592 195.10861 
L 338.963657 186.131177 
L 339.504721 199.923418 
L 340.045786 199.220196 
L 340.586851 191.592496 
L 341.127916 192.618975 
L 341.66898 211.061561 
L 342.210045 213.227941 
L 342.75111 207.494406 
L 343.292716 163.525965 
L 343.834322 184.996947 
L 344.375927 220.203458 
L 344.917533 214.038916 
L 345.458598 183.267245 
L 345.999663 179.643379 
L 346.540727 181.265329 
L 347.081792 179.966635 
L 347.622857 185.643458 
L 348.163922 213.012437 
L 348.704986 200.411138 
L 349.246051 183.267245 
L 349.787116 184.021508 
L 350.328181 254.927921 
L 350.869245 202.844062 
L 351.410851 184.07822 
L 351.952457 173.853133 
L 352.494063 181.157577 
L 353.035669 194.893107 
L 353.577275 184.344764 
L 354.118881 182.722815 
L 354.660486 215.38865 
L 355.201551 205.923497 
L 355.742616 171.363497 
L 356.283681 181.424121 
L 356.824745 193.651124 
L 357.36581 203.275069 
L 357.906875 192.352431 
L 358.44794 192.080215 
L 358.989004 186.29564 
L 359.530069 199.815667 
L 360.071675 183.857045 
L 360.61274 188.513061 
L 361.153804 181.265329 
L 361.694869 196.946064 
L 362.235934 187.157655 
L 362.776999 192.187967 
L 363.318063 182.450599 
L 363.859128 195.380826 
L 364.400193 186.777688 
L 364.941258 184.832483 
L 365.482323 190.401554 
L 366.023387 215.876369 
L 366.564452 201.11436 
L 367.105517 172.826654 
L 367.646582 179.478916 
L 368.187646 196.027337 
L 368.728711 185.858962 
L 369.269776 202.084127 
L 369.810841 188.836316 
L 370.351905 189.755043 
L 370.89297 193.758876 
L 371.434035 178.940156 
L 371.9751 229.884114 
L 372.516164 201.709831 
L 373.057229 186.562184 
L 373.598294 193.97438 
L 374.139359 206.62672 
L 374.680423 183.102782 
L 375.221488 201.760872 
L 375.762553 241.623399 
L 376.303618 213.063478 
L 376.844682 173.580918 
L 377.926812 189.216284 
L 378.467877 202.628558 
L 379.008941 179.15566 
L 379.550006 187.96863 
L 380.091071 185.700169 
L 380.632136 191.320281 
L 381.1732 185.371243 
L 381.714265 217.067311 
L 382.796395 191.700248 
L 383.33746 182.564022 
L 383.878524 203.224029 
L 384.960654 177.584751 
L 385.501719 186.8344 
L 386.042783 152.438863 
L 386.583848 267.149254 
L 387.124913 185.104698 
L 387.665978 170.716986 
L 388.207042 179.966635 
L 388.748107 191.700248 
L 389.289172 199.220196 
L 389.830237 194.082132 
L 390.371301 171.635713 
L 390.912366 188.184134 
L 391.453431 239.780274 
L 391.994496 180.777609 
L 392.53556 164.008013 
L 393.076625 190.242762 
L 393.61769 199.112444 
L 394.158755 195.165322 
L 394.699819 176.830488 
L 395.781949 214.685427 
L 396.323014 197.86479 
L 396.864078 186.669936 
L 397.405143 185.484666 
L 397.946208 189.431787 
L 398.487273 182.615063 
L 398.487273 182.615063 
" style="fill:none;stroke:#1f77b4;stroke-linecap:square;stroke-width:1.5;"/>
   </g>
   <g id="patch_3">
    <path d="M 57.6 307.584 
L 57.6 41.472 
" style="fill:none;stroke:#000000;stroke-linecap:square;stroke-linejoin:miter;stroke-width:0.8;"/>
   </g>
   <g id="patch_4">
    <path d="M 414.72 307.584 
L 414.72 41.472 
" style="fill:none;stroke:#000000;stroke-linecap:square;stroke-linejoin:miter;stroke-width:0.8;"/>
   </g>
   <g id="patch_5">
    <path d="M 57.6 307.584 
L 414.72 307.584 
" style="fill:none;stroke:#000000;stroke-linecap:square;stroke-linejoin:miter;stroke-width:0.8;"/>
   </g>
   <g id="patch_6">
    <path d="M 57.6 41.472 
L 414.72 41.472 
" style="fill:none;stroke:#000000;stroke-linecap:square;stroke-linejoin:miter;stroke-width:0.8;"/>
   </g>
   <g id="text_14">
    <!-- Pressure in main chamber -->
    <defs>
     <path d="M 9.421875 54.6875 
L 18.40625 54.6875 
L 18.40625 0 
L 9.421875 0 
z
M 9.421875 75.984375 
L 18.40625 75.984375 
L 18.40625 64.59375 
L 9.421875 64.59375 
z
" id="DejaVuSans-69"/>
     <path d="M 54.890625 33.015625 
L 54.890625 0 
L 45.90625 0 
L 45.90625 32.71875 
Q 45.90625 40.484375 42.875 44.328125 
Q 39.84375 48.1875 33.796875 48.1875 
Q 26.515625 48.1875 22.3125 43.546875 
Q 18.109375 38.921875 18.109375 30.90625 
L 18.109375 0 
L 9.078125 0 
L 9.078125 54.6875 
L 18.109375 54.6875 
L 18.109375 46.1875 
Q 21.34375 51.125 25.703125 53.5625 
Q 30.078125 56 35.796875 56 
Q 45.21875 56 50.046875 50.171875 
Q 54.890625 44.34375 54.890625 33.015625 
z
" id="DejaVuSans-6e"/>
     <path d="M 52 44.1875 
Q 55.375 50.25 60.0625 53.125 
Q 64.75 56 71.09375 56 
Q 79.640625 56 84.28125 50.015625 
Q 88.921875 44.046875 88.921875 33.015625 
L 88.921875 0 
L 79.890625 0 
L 79.890625 32.71875 
Q 79.890625 40.578125 77.09375 44.375 
Q 74.3125 48.1875 68.609375 48.1875 
Q 61.625 48.1875 57.5625 43.546875 
Q 53.515625 38.921875 53.515625 30.90625 
L 53.515625 0 
L 44.484375 0 
L 44.484375 32.71875 
Q 44.484375 40.625 41.703125 44.40625 
Q 38.921875 48.1875 33.109375 48.1875 
Q 26.21875 48.1875 22.15625 43.53125 
Q 18.109375 38.875 18.109375 30.90625 
L 18.109375 0 
L 9.078125 0 
L 9.078125 54.6875 
L 18.109375 54.6875 
L 18.109375 46.1875 
Q 21.1875 51.21875 25.484375 53.609375 
Q 29.78125 56 35.6875 56 
Q 41.65625 56 45.828125 52.96875 
Q 50 49.953125 52 44.1875 
z
" id="DejaVuSans-6d"/>
     <path d="M 48.78125 52.59375 
L 48.78125 44.1875 
Q 44.96875 46.296875 41.140625 47.34375 
Q 37.3125 48.390625 33.40625 48.390625 
Q 24.65625 48.390625 19.8125 42.84375 
Q 14.984375 37.3125 14.984375 27.296875 
Q 14.984375 17.28125 19.8125 11.734375 
Q 24.65625 6.203125 33.40625 6.203125 
Q 37.3125 6.203125 41.140625 7.25 
Q 44.96875 8.296875 48.78125 10.40625 
L 48.78125 2.09375 
Q 45.015625 0.34375 40.984375 -0.53125 
Q 36.96875 -1.421875 32.421875 -1.421875 
Q 20.0625 -1.421875 12.78125 6.34375 
Q 5.515625 14.109375 5.515625 27.296875 
Q 5.515625 40.671875 12.859375 48.328125 
Q 20.21875 56 33.015625 56 
Q 37.15625 56 41.109375 55.140625 
Q 45.0625 54.296875 48.78125 52.59375 
z
" id="DejaVuSans-63"/>
     <path d="M 54.890625 33.015625 
L 54.890625 0 
L 45.90625 0 
L 45.90625 32.71875 
Q 45.90625 40.484375 42.875 44.328125 
Q 39.84375 48.1875 33.796875 48.1875 
Q 26.515625 48.1875 22.3125 43.546875 
Q 18.109375 38.921875 18.109375 30.90625 
L 18.109375 0 
L 9.078125 0 
L 9.078125 75.984375 
L 18.109375 75.984375 
L 18.109375 46.1875 
Q 21.34375 51.125 25.703125 53.5625 
Q 30.078125 56 35.796875 56 
Q 45.21875 56 50.046875 50.171875 
Q 54.890625 44.34375 54.890625 33.015625 
z
" id="DejaVuSans-68"/>
    </defs>
    <g transform="translate(157.405312 35.472)scale(0.12 -0.12)">
     <use xlink:href="#DejaVuSans-50"/>
     <use x="60.287109" xlink:href="#DejaVuSans-72"/>
     <use x="101.369141" xlink:href="#DejaVuSans-65"/>
     <use x="162.892578" xlink:href="#DejaVuSans-73"/>
     <use x="214.992188" xlink:href="#DejaVuSans-73"/>
     <use x="267.091797" xlink:href="#DejaVuSans-75"/>
     <use x="330.470703" xlink:href="#DejaVuSans-72"/>
     <use x="371.552734" xlink:href="#DejaVuSans-65"/>
     <use x="433.076172" xlink:href="#DejaVuSans-20"/>
     <use x="464.863281" xlink:href="#DejaVuSans-69"/>
     <use x="492.646484" xlink:href="#DejaVuSans-6e"/>
     <use x="556.025391" xlink:href="#DejaVuSans-20"/>
     <use x="587.8125" xlink:href="#DejaVuSans-6d"/>
     <use x="685.224609" xlink:href="#DejaVuSans-61"/>
     <use x="746.503906" xlink:href="#DejaVuSans-69"/>
     <use x="774.287109" xlink:href="#DejaVuSans-6e"/>
     <use x="837.666016" xlink:href="#DejaVuSans-20"/>
     <use x="869.453125" xlink:href="#DejaVuSans-63"/>
     <use x="924.433594" xlink:href="#DejaVuSans-68"/>
     <use x="987.8125" xlink:href="#DejaVuSans-61"/>
     <use x="1049.091797" xlink:href="#DejaVuSans-6d"/>
     <use x="1146.503906" xlink:href="#DejaVuSans-62"/>
     <use x="1209.980469" xlink:href="#DejaVuSans-65"/>
     <use x="1271.503906" xlink:href="#DejaVuSans-72"/>
    </g>
   </g>
  </g>
 </g>
 <defs>
  <clipPath id="pa6d4c3a92d">
   <rect height="266.112" width="357.12" x="57.6" y="41.472"/>
  </clipPath>
 </defs>
</svg>
