<?xml version="1.0" encoding="utf-8" standalone="no"?>
<!DOCTYPE svg PUBLIC "-//W3C//DTD SVG 1.1//EN"
  "http://www.w3.org/Graphics/SVG/1.1/DTD/svg11.dtd">
<!-- Created with matplotlib (http://matplotlib.org/) -->
<svg height="345pt" version="1.1" viewBox="0 0 460 345" width="460pt" xmlns="http://www.w3.org/2000/svg" xmlns:xlink="http://www.w3.org/1999/xlink">
 <defs>
  <style type="text/css">
*{stroke-linecap:butt;stroke-linejoin:round;}
  </style>
 </defs>
 <g id="figure_1">
  <g id="patch_1">
   <path d="M 0 345.6 
L 460.8 345.6 
L 460.8 0 
L 0 0 
z
" style="fill:#ffffff;"/>
  </g>
  <g id="axes_1">
   <g id="patch_2">
    <path d="M 57.6 307.584 
L 414.72 307.584 
L 414.72 41.472 
L 57.6 41.472 
z
" style="fill:#ffffff;"/>
   </g>
   <g id="matplotlib.axis_1">
    <g id="xtick_1">
     <g id="line2d_1">
      <defs>
       <path d="M 0 0 
L 0 3.5 
" id="mc3dc78468b" style="stroke:#000000;stroke-width:0.8;"/>
      </defs>
      <g>
       <use style="stroke:#000000;stroke-width:0.8;" x="73.832727" xlink:href="#mc3dc78468b" y="307.584"/>
      </g>
     </g>
     <g id="text_1">
      <!-- 0 -->
      <defs>
       <path d="M 31.78125 66.40625 
Q 24.171875 66.40625 20.328125 58.90625 
Q 16.5 51.421875 16.5 36.375 
Q 16.5 21.390625 20.328125 13.890625 
Q 24.171875 6.390625 31.78125 6.390625 
Q 39.453125 6.390625 43.28125 13.890625 
Q 47.125 21.390625 47.125 36.375 
Q 47.125 51.421875 43.28125 58.90625 
Q 39.453125 66.40625 31.78125 66.40625 
z
M 31.78125 74.21875 
Q 44.046875 74.21875 50.515625 64.515625 
Q 56.984375 54.828125 56.984375 36.375 
Q 56.984375 17.96875 50.515625 8.265625 
Q 44.046875 -1.421875 31.78125 -1.421875 
Q 19.53125 -1.421875 13.0625 8.265625 
Q 6.59375 17.96875 6.59375 36.375 
Q 6.59375 54.828125 13.0625 64.515625 
Q 19.53125 74.21875 31.78125 74.21875 
z
" id="DejaVuSans-30"/>
      </defs>
      <g transform="translate(70.651477 322.182437)scale(0.1 -0.1)">
       <use xlink:href="#DejaVuSans-30"/>
      </g>
     </g>
    </g>
    <g id="xtick_2">
     <g id="line2d_2">
      <g>
       <use style="stroke:#000000;stroke-width:0.8;" x="118.947974" xlink:href="#mc3dc78468b" y="307.584"/>
      </g>
     </g>
     <g id="text_2">
      <!-- 250 -->
      <defs>
       <path d="M 19.1875 8.296875 
L 53.609375 8.296875 
L 53.609375 0 
L 7.328125 0 
L 7.328125 8.296875 
Q 12.9375 14.109375 22.625 23.890625 
Q 32.328125 33.6875 34.8125 36.53125 
Q 39.546875 41.84375 41.421875 45.53125 
Q 43.3125 49.21875 43.3125 52.78125 
Q 43.3125 58.59375 39.234375 62.25 
Q 35.15625 65.921875 28.609375 65.921875 
Q 23.96875 65.921875 18.8125 64.3125 
Q 13.671875 62.703125 7.8125 59.421875 
L 7.8125 69.390625 
Q 13.765625 71.78125 18.9375 73 
Q 24.125 74.21875 28.421875 74.21875 
Q 39.75 74.21875 46.484375 68.546875 
Q 53.21875 62.890625 53.21875 53.421875 
Q 53.21875 48.921875 51.53125 44.890625 
Q 49.859375 40.875 45.40625 35.40625 
Q 44.1875 33.984375 37.640625 27.21875 
Q 31.109375 20.453125 19.1875 8.296875 
z
" id="DejaVuSans-32"/>
       <path d="M 10.796875 72.90625 
L 49.515625 72.90625 
L 49.515625 64.59375 
L 19.828125 64.59375 
L 19.828125 46.734375 
Q 21.96875 47.46875 24.109375 47.828125 
Q 26.265625 48.1875 28.421875 48.1875 
Q 40.625 48.1875 47.75 41.5 
Q 54.890625 34.8125 54.890625 23.390625 
Q 54.890625 11.625 47.5625 5.09375 
Q 40.234375 -1.421875 26.90625 -1.421875 
Q 22.3125 -1.421875 17.546875 -0.640625 
Q 12.796875 0.140625 7.71875 1.703125 
L 7.71875 11.625 
Q 12.109375 9.234375 16.796875 8.0625 
Q 21.484375 6.890625 26.703125 6.890625 
Q 35.15625 6.890625 40.078125 11.328125 
Q 45.015625 15.765625 45.015625 23.390625 
Q 45.015625 31 40.078125 35.4375 
Q 35.15625 39.890625 26.703125 39.890625 
Q 22.75 39.890625 18.8125 39.015625 
Q 14.890625 38.140625 10.796875 36.28125 
z
" id="DejaVuSans-35"/>
      </defs>
      <g transform="translate(109.404224 322.182437)scale(0.1 -0.1)">
       <use xlink:href="#DejaVuSans-32"/>
       <use x="63.623047" xlink:href="#DejaVuSans-35"/>
       <use x="127.246094" xlink:href="#DejaVuSans-30"/>
      </g>
     </g>
    </g>
    <g id="xtick_3">
     <g id="line2d_3">
      <g>
       <use style="stroke:#000000;stroke-width:0.8;" x="164.06322" xlink:href="#mc3dc78468b" y="307.584"/>
      </g>
     </g>
     <g id="text_3">
      <!-- 500 -->
      <g transform="translate(154.51947 322.182437)scale(0.1 -0.1)">
       <use xlink:href="#DejaVuSans-35"/>
       <use x="63.623047" xlink:href="#DejaVuSans-30"/>
       <use x="127.246094" xlink:href="#DejaVuSans-30"/>
      </g>
     </g>
    </g>
    <g id="xtick_4">
     <g id="line2d_4">
      <g>
       <use style="stroke:#000000;stroke-width:0.8;" x="209.178466" xlink:href="#mc3dc78468b" y="307.584"/>
      </g>
     </g>
     <g id="text_4">
      <!-- 750 -->
      <defs>
       <path d="M 8.203125 72.90625 
L 55.078125 72.90625 
L 55.078125 68.703125 
L 28.609375 0 
L 18.3125 0 
L 43.21875 64.59375 
L 8.203125 64.59375 
z
" id="DejaVuSans-37"/>
      </defs>
      <g transform="translate(199.634716 322.182437)scale(0.1 -0.1)">
       <use xlink:href="#DejaVuSans-37"/>
       <use x="63.623047" xlink:href="#DejaVuSans-35"/>
       <use x="127.246094" xlink:href="#DejaVuSans-30"/>
      </g>
     </g>
    </g>
    <g id="xtick_5">
     <g id="line2d_5">
      <g>
       <use style="stroke:#000000;stroke-width:0.8;" x="254.293712" xlink:href="#mc3dc78468b" y="307.584"/>
      </g>
     </g>
     <g id="text_5">
      <!-- 1000 -->
      <defs>
       <path d="M 12.40625 8.296875 
L 28.515625 8.296875 
L 28.515625 63.921875 
L 10.984375 60.40625 
L 10.984375 69.390625 
L 28.421875 72.90625 
L 38.28125 72.90625 
L 38.28125 8.296875 
L 54.390625 8.296875 
L 54.390625 0 
L 12.40625 0 
z
" id="DejaVuSans-31"/>
      </defs>
      <g transform="translate(241.568712 322.182437)scale(0.1 -0.1)">
       <use xlink:href="#DejaVuSans-31"/>
       <use x="63.623047" xlink:href="#DejaVuSans-30"/>
       <use x="127.246094" xlink:href="#DejaVuSans-30"/>
       <use x="190.869141" xlink:href="#DejaVuSans-30"/>
      </g>
     </g>
    </g>
    <g id="xtick_6">
     <g id="line2d_6">
      <g>
       <use style="stroke:#000000;stroke-width:0.8;" x="299.408959" xlink:href="#mc3dc78468b" y="307.584"/>
      </g>
     </g>
     <g id="text_6">
      <!-- 1250 -->
      <g transform="translate(286.683959 322.182437)scale(0.1 -0.1)">
       <use xlink:href="#DejaVuSans-31"/>
       <use x="63.623047" xlink:href="#DejaVuSans-32"/>
       <use x="127.246094" xlink:href="#DejaVuSans-35"/>
       <use x="190.869141" xlink:href="#DejaVuSans-30"/>
      </g>
     </g>
    </g>
    <g id="xtick_7">
     <g id="line2d_7">
      <g>
       <use style="stroke:#000000;stroke-width:0.8;" x="344.524205" xlink:href="#mc3dc78468b" y="307.584"/>
      </g>
     </g>
     <g id="text_7">
      <!-- 1500 -->
      <g transform="translate(331.799205 322.182437)scale(0.1 -0.1)">
       <use xlink:href="#DejaVuSans-31"/>
       <use x="63.623047" xlink:href="#DejaVuSans-35"/>
       <use x="127.246094" xlink:href="#DejaVuSans-30"/>
       <use x="190.869141" xlink:href="#DejaVuSans-30"/>
      </g>
     </g>
    </g>
    <g id="xtick_8">
     <g id="line2d_8">
      <g>
       <use style="stroke:#000000;stroke-width:0.8;" x="389.639451" xlink:href="#mc3dc78468b" y="307.584"/>
      </g>
     </g>
     <g id="text_8">
      <!-- 1750 -->
      <g transform="translate(376.914451 322.182437)scale(0.1 -0.1)">
       <use xlink:href="#DejaVuSans-31"/>
       <use x="63.623047" xlink:href="#DejaVuSans-37"/>
       <use x="127.246094" xlink:href="#DejaVuSans-35"/>
       <use x="190.869141" xlink:href="#DejaVuSans-30"/>
      </g>
     </g>
    </g>
    <g id="text_9">
     <!-- t(s) -->
     <defs>
      <path d="M 18.3125 70.21875 
L 18.3125 54.6875 
L 36.8125 54.6875 
L 36.8125 47.703125 
L 18.3125 47.703125 
L 18.3125 18.015625 
Q 18.3125 11.328125 20.140625 9.421875 
Q 21.96875 7.515625 27.59375 7.515625 
L 36.8125 7.515625 
L 36.8125 0 
L 27.59375 0 
Q 17.1875 0 13.234375 3.875 
Q 9.28125 7.765625 9.28125 18.015625 
L 9.28125 47.703125 
L 2.6875 47.703125 
L 2.6875 54.6875 
L 9.28125 54.6875 
L 9.28125 70.21875 
z
" id="DejaVuSans-74"/>
      <path d="M 31 75.875 
Q 24.46875 64.65625 21.28125 53.65625 
Q 18.109375 42.671875 18.109375 31.390625 
Q 18.109375 20.125 21.3125 9.0625 
Q 24.515625 -2 31 -13.1875 
L 23.1875 -13.1875 
Q 15.875 -1.703125 12.234375 9.375 
Q 8.59375 20.453125 8.59375 31.390625 
Q 8.59375 42.28125 12.203125 53.3125 
Q 15.828125 64.359375 23.1875 75.875 
z
" id="DejaVuSans-28"/>
      <path d="M 44.28125 53.078125 
L 44.28125 44.578125 
Q 40.484375 46.53125 36.375 47.5 
Q 32.28125 48.484375 27.875 48.484375 
Q 21.1875 48.484375 17.84375 46.4375 
Q 14.5 44.390625 14.5 40.28125 
Q 14.5 37.15625 16.890625 35.375 
Q 19.28125 33.59375 26.515625 31.984375 
L 29.59375 31.296875 
Q 39.15625 29.25 43.1875 25.515625 
Q 47.21875 21.78125 47.21875 15.09375 
Q 47.21875 7.46875 41.1875 3.015625 
Q 35.15625 -1.421875 24.609375 -1.421875 
Q 20.21875 -1.421875 15.453125 -0.5625 
Q 10.6875 0.296875 5.421875 2 
L 5.421875 11.28125 
Q 10.40625 8.6875 15.234375 7.390625 
Q 20.0625 6.109375 24.8125 6.109375 
Q 31.15625 6.109375 34.5625 8.28125 
Q 37.984375 10.453125 37.984375 14.40625 
Q 37.984375 18.0625 35.515625 20.015625 
Q 33.0625 21.96875 24.703125 23.78125 
L 21.578125 24.515625 
Q 13.234375 26.265625 9.515625 29.90625 
Q 5.8125 33.546875 5.8125 39.890625 
Q 5.8125 47.609375 11.28125 51.796875 
Q 16.75 56 26.8125 56 
Q 31.78125 56 36.171875 55.265625 
Q 40.578125 54.546875 44.28125 53.078125 
z
" id="DejaVuSans-73"/>
      <path d="M 8.015625 75.875 
L 15.828125 75.875 
Q 23.140625 64.359375 26.78125 53.3125 
Q 30.421875 42.28125 30.421875 31.390625 
Q 30.421875 20.453125 26.78125 9.375 
Q 23.140625 -1.703125 15.828125 -13.1875 
L 8.015625 -13.1875 
Q 14.5 -2 17.703125 9.0625 
Q 20.90625 20.125 20.90625 31.390625 
Q 20.90625 42.671875 17.703125 53.65625 
Q 14.5 64.65625 8.015625 75.875 
z
" id="DejaVuSans-29"/>
     </defs>
     <g transform="translate(227.693594 335.860562)scale(0.1 -0.1)">
      <use xlink:href="#DejaVuSans-74"/>
      <use x="39.208984" xlink:href="#DejaVuSans-28"/>
      <use x="78.222656" xlink:href="#DejaVuSans-73"/>
      <use x="130.322266" xlink:href="#DejaVuSans-29"/>
     </g>
    </g>
   </g>
   <g id="matplotlib.axis_2">
    <g id="ytick_1">
     <g id="line2d_9">
      <defs>
       <path d="M 0 0 
L -3.5 0 
" id="mb6ebd16ab0" style="stroke:#000000;stroke-width:0.8;"/>
      </defs>
      <g>
       <use style="stroke:#000000;stroke-width:0.8;" x="57.6" xlink:href="#mb6ebd16ab0" y="304.128"/>
      </g>
     </g>
     <g id="text_10">
      <!-- 0.0630 -->
      <defs>
       <path d="M 10.6875 12.40625 
L 21 12.40625 
L 21 0 
L 10.6875 0 
z
" id="DejaVuSans-2e"/>
       <path d="M 33.015625 40.375 
Q 26.375 40.375 22.484375 35.828125 
Q 18.609375 31.296875 18.609375 23.390625 
Q 18.609375 15.53125 22.484375 10.953125 
Q 26.375 6.390625 33.015625 6.390625 
Q 39.65625 6.390625 43.53125 10.953125 
Q 47.40625 15.53125 47.40625 23.390625 
Q 47.40625 31.296875 43.53125 35.828125 
Q 39.65625 40.375 33.015625 40.375 
z
M 52.59375 71.296875 
L 52.59375 62.3125 
Q 48.875 64.0625 45.09375 64.984375 
Q 41.3125 65.921875 37.59375 65.921875 
Q 27.828125 65.921875 22.671875 59.328125 
Q 17.53125 52.734375 16.796875 39.40625 
Q 19.671875 43.65625 24.015625 45.921875 
Q 28.375 48.1875 33.59375 48.1875 
Q 44.578125 48.1875 50.953125 41.515625 
Q 57.328125 34.859375 57.328125 23.390625 
Q 57.328125 12.15625 50.6875 5.359375 
Q 44.046875 -1.421875 33.015625 -1.421875 
Q 20.359375 -1.421875 13.671875 8.265625 
Q 6.984375 17.96875 6.984375 36.375 
Q 6.984375 53.65625 15.1875 63.9375 
Q 23.390625 74.21875 37.203125 74.21875 
Q 40.921875 74.21875 44.703125 73.484375 
Q 48.484375 72.75 52.59375 71.296875 
z
" id="DejaVuSans-36"/>
       <path d="M 40.578125 39.3125 
Q 47.65625 37.796875 51.625 33 
Q 55.609375 28.21875 55.609375 21.1875 
Q 55.609375 10.40625 48.1875 4.484375 
Q 40.765625 -1.421875 27.09375 -1.421875 
Q 22.515625 -1.421875 17.65625 -0.515625 
Q 12.796875 0.390625 7.625 2.203125 
L 7.625 11.71875 
Q 11.71875 9.328125 16.59375 8.109375 
Q 21.484375 6.890625 26.8125 6.890625 
Q 36.078125 6.890625 40.9375 10.546875 
Q 45.796875 14.203125 45.796875 21.1875 
Q 45.796875 27.640625 41.28125 31.265625 
Q 36.765625 34.90625 28.71875 34.90625 
L 20.21875 34.90625 
L 20.21875 43.015625 
L 29.109375 43.015625 
Q 36.375 43.015625 40.234375 45.921875 
Q 44.09375 48.828125 44.09375 54.296875 
Q 44.09375 59.90625 40.109375 62.90625 
Q 36.140625 65.921875 28.71875 65.921875 
Q 24.65625 65.921875 20.015625 65.03125 
Q 15.375 64.15625 9.8125 62.3125 
L 9.8125 71.09375 
Q 15.4375 72.65625 20.34375 73.4375 
Q 25.25 74.21875 29.59375 74.21875 
Q 40.828125 74.21875 47.359375 69.109375 
Q 53.90625 64.015625 53.90625 55.328125 
Q 53.90625 49.265625 50.4375 45.09375 
Q 46.96875 40.921875 40.578125 39.3125 
z
" id="DejaVuSans-33"/>
      </defs>
      <g transform="translate(15.609375 307.927219)scale(0.1 -0.1)">
       <use xlink:href="#DejaVuSans-30"/>
       <use x="63.623047" xlink:href="#DejaVuSans-2e"/>
       <use x="95.410156" xlink:href="#DejaVuSans-30"/>
       <use x="159.033203" xlink:href="#DejaVuSans-36"/>
       <use x="222.65625" xlink:href="#DejaVuSans-33"/>
       <use x="286.279297" xlink:href="#DejaVuSans-30"/>
      </g>
     </g>
    </g>
    <g id="ytick_2">
     <g id="line2d_10">
      <g>
       <use style="stroke:#000000;stroke-width:0.8;" x="57.6" xlink:href="#mb6ebd16ab0" y="260.928"/>
      </g>
     </g>
     <g id="text_11">
      <!-- 0.0632 -->
      <g transform="translate(15.609375 264.727219)scale(0.1 -0.1)">
       <use xlink:href="#DejaVuSans-30"/>
       <use x="63.623047" xlink:href="#DejaVuSans-2e"/>
       <use x="95.410156" xlink:href="#DejaVuSans-30"/>
       <use x="159.033203" xlink:href="#DejaVuSans-36"/>
       <use x="222.65625" xlink:href="#DejaVuSans-33"/>
       <use x="286.279297" xlink:href="#DejaVuSans-32"/>
      </g>
     </g>
    </g>
    <g id="ytick_3">
     <g id="line2d_11">
      <g>
       <use style="stroke:#000000;stroke-width:0.8;" x="57.6" xlink:href="#mb6ebd16ab0" y="217.728"/>
      </g>
     </g>
     <g id="text_12">
      <!-- 0.0634 -->
      <defs>
       <path d="M 37.796875 64.3125 
L 12.890625 25.390625 
L 37.796875 25.390625 
z
M 35.203125 72.90625 
L 47.609375 72.90625 
L 47.609375 25.390625 
L 58.015625 25.390625 
L 58.015625 17.1875 
L 47.609375 17.1875 
L 47.609375 0 
L 37.796875 0 
L 37.796875 17.1875 
L 4.890625 17.1875 
L 4.890625 26.703125 
z
" id="DejaVuSans-34"/>
      </defs>
      <g transform="translate(15.609375 221.527219)scale(0.1 -0.1)">
       <use xlink:href="#DejaVuSans-30"/>
       <use x="63.623047" xlink:href="#DejaVuSans-2e"/>
       <use x="95.410156" xlink:href="#DejaVuSans-30"/>
       <use x="159.033203" xlink:href="#DejaVuSans-36"/>
       <use x="222.65625" xlink:href="#DejaVuSans-33"/>
       <use x="286.279297" xlink:href="#DejaVuSans-34"/>
      </g>
     </g>
    </g>
    <g id="ytick_4">
     <g id="line2d_12">
      <g>
       <use style="stroke:#000000;stroke-width:0.8;" x="57.6" xlink:href="#mb6ebd16ab0" y="174.528"/>
      </g>
     </g>
     <g id="text_13">
      <!-- 0.0636 -->
      <g transform="translate(15.609375 178.327219)scale(0.1 -0.1)">
       <use xlink:href="#DejaVuSans-30"/>
       <use x="63.623047" xlink:href="#DejaVuSans-2e"/>
       <use x="95.410156" xlink:href="#DejaVuSans-30"/>
       <use x="159.033203" xlink:href="#DejaVuSans-36"/>
       <use x="222.65625" xlink:href="#DejaVuSans-33"/>
       <use x="286.279297" xlink:href="#DejaVuSans-36"/>
      </g>
     </g>
    </g>
    <g id="ytick_5">
     <g id="line2d_13">
      <g>
       <use style="stroke:#000000;stroke-width:0.8;" x="57.6" xlink:href="#mb6ebd16ab0" y="131.328"/>
      </g>
     </g>
     <g id="text_14">
      <!-- 0.0638 -->
      <defs>
       <path d="M 31.78125 34.625 
Q 24.75 34.625 20.71875 30.859375 
Q 16.703125 27.09375 16.703125 20.515625 
Q 16.703125 13.921875 20.71875 10.15625 
Q 24.75 6.390625 31.78125 6.390625 
Q 38.8125 6.390625 42.859375 10.171875 
Q 46.921875 13.96875 46.921875 20.515625 
Q 46.921875 27.09375 42.890625 30.859375 
Q 38.875 34.625 31.78125 34.625 
z
M 21.921875 38.8125 
Q 15.578125 40.375 12.03125 44.71875 
Q 8.5 49.078125 8.5 55.328125 
Q 8.5 64.0625 14.71875 69.140625 
Q 20.953125 74.21875 31.78125 74.21875 
Q 42.671875 74.21875 48.875 69.140625 
Q 55.078125 64.0625 55.078125 55.328125 
Q 55.078125 49.078125 51.53125 44.71875 
Q 48 40.375 41.703125 38.8125 
Q 48.828125 37.15625 52.796875 32.3125 
Q 56.78125 27.484375 56.78125 20.515625 
Q 56.78125 9.90625 50.3125 4.234375 
Q 43.84375 -1.421875 31.78125 -1.421875 
Q 19.734375 -1.421875 13.25 4.234375 
Q 6.78125 9.90625 6.78125 20.515625 
Q 6.78125 27.484375 10.78125 32.3125 
Q 14.796875 37.15625 21.921875 38.8125 
z
M 18.3125 54.390625 
Q 18.3125 48.734375 21.84375 45.5625 
Q 25.390625 42.390625 31.78125 42.390625 
Q 38.140625 42.390625 41.71875 45.5625 
Q 45.3125 48.734375 45.3125 54.390625 
Q 45.3125 60.0625 41.71875 63.234375 
Q 38.140625 66.40625 31.78125 66.40625 
Q 25.390625 66.40625 21.84375 63.234375 
Q 18.3125 60.0625 18.3125 54.390625 
z
" id="DejaVuSans-38"/>
      </defs>
      <g transform="translate(15.609375 135.127219)scale(0.1 -0.1)">
       <use xlink:href="#DejaVuSans-30"/>
       <use x="63.623047" xlink:href="#DejaVuSans-2e"/>
       <use x="95.410156" xlink:href="#DejaVuSans-30"/>
       <use x="159.033203" xlink:href="#DejaVuSans-36"/>
       <use x="222.65625" xlink:href="#DejaVuSans-33"/>
       <use x="286.279297" xlink:href="#DejaVuSans-38"/>
      </g>
     </g>
    </g>
    <g id="ytick_6">
     <g id="line2d_14">
      <g>
       <use style="stroke:#000000;stroke-width:0.8;" x="57.6" xlink:href="#mb6ebd16ab0" y="88.128"/>
      </g>
     </g>
     <g id="text_15">
      <!-- 0.0640 -->
      <g transform="translate(15.609375 91.927219)scale(0.1 -0.1)">
       <use xlink:href="#DejaVuSans-30"/>
       <use x="63.623047" xlink:href="#DejaVuSans-2e"/>
       <use x="95.410156" xlink:href="#DejaVuSans-30"/>
       <use x="159.033203" xlink:href="#DejaVuSans-36"/>
       <use x="222.65625" xlink:href="#DejaVuSans-34"/>
       <use x="286.279297" xlink:href="#DejaVuSans-30"/>
      </g>
     </g>
    </g>
    <g id="ytick_7">
     <g id="line2d_15">
      <g>
       <use style="stroke:#000000;stroke-width:0.8;" x="57.6" xlink:href="#mb6ebd16ab0" y="44.928"/>
      </g>
     </g>
     <g id="text_16">
      <!-- 0.0642 -->
      <g transform="translate(15.609375 48.727219)scale(0.1 -0.1)">
       <use xlink:href="#DejaVuSans-30"/>
       <use x="63.623047" xlink:href="#DejaVuSans-2e"/>
       <use x="95.410156" xlink:href="#DejaVuSans-30"/>
       <use x="159.033203" xlink:href="#DejaVuSans-36"/>
       <use x="222.65625" xlink:href="#DejaVuSans-34"/>
       <use x="286.279297" xlink:href="#DejaVuSans-32"/>
      </g>
     </g>
    </g>
    <g id="text_17">
     <!-- Pressure (bar) -->
     <defs>
      <path d="M 19.671875 64.796875 
L 19.671875 37.40625 
L 32.078125 37.40625 
Q 38.96875 37.40625 42.71875 40.96875 
Q 46.484375 44.53125 46.484375 51.125 
Q 46.484375 57.671875 42.71875 61.234375 
Q 38.96875 64.796875 32.078125 64.796875 
z
M 9.8125 72.90625 
L 32.078125 72.90625 
Q 44.34375 72.90625 50.609375 67.359375 
Q 56.890625 61.8125 56.890625 51.125 
Q 56.890625 40.328125 50.609375 34.8125 
Q 44.34375 29.296875 32.078125 29.296875 
L 19.671875 29.296875 
L 19.671875 0 
L 9.8125 0 
z
" id="DejaVuSans-50"/>
      <path d="M 41.109375 46.296875 
Q 39.59375 47.171875 37.8125 47.578125 
Q 36.03125 48 33.890625 48 
Q 26.265625 48 22.1875 43.046875 
Q 18.109375 38.09375 18.109375 28.8125 
L 18.109375 0 
L 9.078125 0 
L 9.078125 54.6875 
L 18.109375 54.6875 
L 18.109375 46.1875 
Q 20.953125 51.171875 25.484375 53.578125 
Q 30.03125 56 36.53125 56 
Q 37.453125 56 38.578125 55.875 
Q 39.703125 55.765625 41.0625 55.515625 
z
" id="DejaVuSans-72"/>
      <path d="M 56.203125 29.59375 
L 56.203125 25.203125 
L 14.890625 25.203125 
Q 15.484375 15.921875 20.484375 11.0625 
Q 25.484375 6.203125 34.421875 6.203125 
Q 39.59375 6.203125 44.453125 7.46875 
Q 49.3125 8.734375 54.109375 11.28125 
L 54.109375 2.78125 
Q 49.265625 0.734375 44.1875 -0.34375 
Q 39.109375 -1.421875 33.890625 -1.421875 
Q 20.796875 -1.421875 13.15625 6.1875 
Q 5.515625 13.8125 5.515625 26.8125 
Q 5.515625 40.234375 12.765625 48.109375 
Q 20.015625 56 32.328125 56 
Q 43.359375 56 49.78125 48.890625 
Q 56.203125 41.796875 56.203125 29.59375 
z
M 47.21875 32.234375 
Q 47.125 39.59375 43.09375 43.984375 
Q 39.0625 48.390625 32.421875 48.390625 
Q 24.90625 48.390625 20.390625 44.140625 
Q 15.875 39.890625 15.1875 32.171875 
z
" id="DejaVuSans-65"/>
      <path d="M 8.5 21.578125 
L 8.5 54.6875 
L 17.484375 54.6875 
L 17.484375 21.921875 
Q 17.484375 14.15625 20.5 10.265625 
Q 23.53125 6.390625 29.59375 6.390625 
Q 36.859375 6.390625 41.078125 11.03125 
Q 45.3125 15.671875 45.3125 23.6875 
L 45.3125 54.6875 
L 54.296875 54.6875 
L 54.296875 0 
L 45.3125 0 
L 45.3125 8.40625 
Q 42.046875 3.421875 37.71875 1 
Q 33.40625 -1.421875 27.6875 -1.421875 
Q 18.265625 -1.421875 13.375 4.4375 
Q 8.5 10.296875 8.5 21.578125 
z
M 31.109375 56 
z
" id="DejaVuSans-75"/>
      <path id="DejaVuSans-20"/>
      <path d="M 48.6875 27.296875 
Q 48.6875 37.203125 44.609375 42.84375 
Q 40.53125 48.484375 33.40625 48.484375 
Q 26.265625 48.484375 22.1875 42.84375 
Q 18.109375 37.203125 18.109375 27.296875 
Q 18.109375 17.390625 22.1875 11.75 
Q 26.265625 6.109375 33.40625 6.109375 
Q 40.53125 6.109375 44.609375 11.75 
Q 48.6875 17.390625 48.6875 27.296875 
z
M 18.109375 46.390625 
Q 20.953125 51.265625 25.265625 53.625 
Q 29.59375 56 35.59375 56 
Q 45.5625 56 51.78125 48.09375 
Q 58.015625 40.1875 58.015625 27.296875 
Q 58.015625 14.40625 51.78125 6.484375 
Q 45.5625 -1.421875 35.59375 -1.421875 
Q 29.59375 -1.421875 25.265625 0.953125 
Q 20.953125 3.328125 18.109375 8.203125 
L 18.109375 0 
L 9.078125 0 
L 9.078125 75.984375 
L 18.109375 75.984375 
z
" id="DejaVuSans-62"/>
      <path d="M 34.28125 27.484375 
Q 23.390625 27.484375 19.1875 25 
Q 14.984375 22.515625 14.984375 16.5 
Q 14.984375 11.71875 18.140625 8.90625 
Q 21.296875 6.109375 26.703125 6.109375 
Q 34.1875 6.109375 38.703125 11.40625 
Q 43.21875 16.703125 43.21875 25.484375 
L 43.21875 27.484375 
z
M 52.203125 31.203125 
L 52.203125 0 
L 43.21875 0 
L 43.21875 8.296875 
Q 40.140625 3.328125 35.546875 0.953125 
Q 30.953125 -1.421875 24.3125 -1.421875 
Q 15.921875 -1.421875 10.953125 3.296875 
Q 6 8.015625 6 15.921875 
Q 6 25.140625 12.171875 29.828125 
Q 18.359375 34.515625 30.609375 34.515625 
L 43.21875 34.515625 
L 43.21875 35.40625 
Q 43.21875 41.609375 39.140625 45 
Q 35.0625 48.390625 27.6875 48.390625 
Q 23 48.390625 18.546875 47.265625 
Q 14.109375 46.140625 10.015625 43.890625 
L 10.015625 52.203125 
Q 14.9375 54.109375 19.578125 55.046875 
Q 24.21875 56 28.609375 56 
Q 40.484375 56 46.34375 49.84375 
Q 52.203125 43.703125 52.203125 31.203125 
z
" id="DejaVuSans-61"/>
     </defs>
     <g transform="translate(9.529687 209.9655)rotate(-90)scale(0.1 -0.1)">
      <use xlink:href="#DejaVuSans-50"/>
      <use x="60.287109" xlink:href="#DejaVuSans-72"/>
      <use x="101.369141" xlink:href="#DejaVuSans-65"/>
      <use x="162.892578" xlink:href="#DejaVuSans-73"/>
      <use x="214.992188" xlink:href="#DejaVuSans-73"/>
      <use x="267.091797" xlink:href="#DejaVuSans-75"/>
      <use x="330.470703" xlink:href="#DejaVuSans-72"/>
      <use x="371.552734" xlink:href="#DejaVuSans-65"/>
      <use x="433.076172" xlink:href="#DejaVuSans-20"/>
      <use x="464.863281" xlink:href="#DejaVuSans-28"/>
      <use x="503.876953" xlink:href="#DejaVuSans-62"/>
      <use x="567.353516" xlink:href="#DejaVuSans-61"/>
      <use x="628.632812" xlink:href="#DejaVuSans-72"/>
      <use x="669.746094" xlink:href="#DejaVuSans-29"/>
     </g>
    </g>
   </g>
   <g id="line2d_16">
    <path clip-path="url(#p30cf3aa3bc)" d="M 73.832727 294.84 
L 74.013369 292.032 
L 74.19401 285.984 
L 74.374471 286.416 
L 74.554932 295.488 
L 74.735393 289.656 
L 74.916035 294.408 
L 75.277317 283.824 
L 75.638239 289.44 
L 75.8187 288.36 
L 75.999161 285.984 
L 76.360083 288.144 
L 76.540544 285.552 
L 76.721186 285.336 
L 76.901647 279.72 
L 77.262569 291.168 
L 77.44303 286.632 
L 77.623491 293.544 
L 77.803952 293.328 
L 77.984413 287.28 
L 78.164874 276.696 
L 78.525796 285.12 
L 78.706257 273.24 
L 78.886718 287.928 
L 79.067179 283.176 
L 79.24764 273.672 
L 79.428101 276.48 
L 79.608562 285.336 
L 79.789023 279.504 
L 79.969483 286.416 
L 80.149944 280.584 
L 80.510866 279.504 
L 80.691327 277.344 
L 80.871788 273.672 
L 81.052249 277.344 
L 81.23271 271.728 
L 81.413171 270 
L 81.593632 270 
L 81.774093 275.4 
L 81.954554 274.104 
L 82.135015 268.92 
L 82.495937 276.48 
L 82.676398 274.536 
L 82.856859 270 
L 83.03732 273.456 
L 83.398242 264.168 
L 83.578703 267.624 
L 83.759164 266.976 
L 83.939625 270 
L 84.120086 266.976 
L 84.300547 273.888 
L 84.481008 272.808 
L 84.661469 265.464 
L 84.84193 276.48 
L 85.022391 274.536 
L 85.202852 263.088 
L 85.383313 263.52 
L 85.563774 264.816 
L 85.744235 275.4 
L 85.924696 270 
L 86.285618 282.096 
L 86.466079 269.784 
L 86.64654 283.392 
L 86.827001 271.728 
L 87.007462 273.888 
L 87.187923 268.488 
L 87.548845 274.752 
L 87.729306 272.16 
L 87.909767 274.32 
L 88.090228 272.808 
L 88.270689 274.968 
L 88.45115 279.72 
L 88.631611 272.16 
L 88.812072 273.456 
L 89.172994 279.072 
L 89.353455 277.992 
L 89.533916 272.376 
L 89.714377 273.24 
L 89.894838 276.696 
L 90.075299 272.592 
L 90.25576 277.128 
L 90.436221 273.672 
L 90.977604 281.664 
L 91.158065 282.312 
L 91.338526 281.016 
L 91.518987 272.16 
L 91.879909 280.152 
L 92.060369 272.376 
L 92.24083 277.56 
L 92.421291 277.344 
L 92.601752 277.56 
L 92.782213 277.128 
L 92.962674 282.96 
L 93.143135 283.176 
L 93.323596 285.12 
L 93.684518 276.696 
L 94.04544 283.392 
L 94.225901 281.448 
L 94.406362 277.776 
L 94.586823 277.344 
L 94.767284 281.232 
L 94.947745 281.448 
L 95.128206 285.768 
L 95.308667 278.424 
L 95.489128 280.8 
L 95.669589 285.552 
L 95.85005 283.824 
L 96.210972 275.832 
L 96.391433 279.288 
L 96.571894 276.264 
L 96.752355 276.264 
L 96.932816 276.912 
L 97.113277 277.128 
L 97.293738 279.504 
L 97.474199 277.128 
L 97.65466 277.56 
L 97.835121 276.696 
L 98.015582 277.776 
L 98.196043 266.544 
L 98.376504 276.912 
L 98.556965 265.248 
L 98.737426 271.08 
L 98.917887 269.784 
L 99.098348 266.112 
L 99.278809 269.784 
L 99.45927 268.92 
L 99.639731 267.192 
L 99.820192 270.432 
L 100.000653 271.296 
L 100.181114 265.464 
L 100.361575 265.896 
L 100.722677 274.32 
L 100.903138 263.736 
L 101.083599 268.92 
L 101.26406 267.408 
L 101.444521 267.624 
L 101.624982 265.464 
L 101.805443 259.2 
L 101.985904 266.112 
L 102.166365 264.168 
L 102.346826 266.976 
L 102.527287 259.848 
L 102.707748 257.472 
L 102.888209 262.008 
L 103.06867 257.472 
L 103.249131 260.928 
L 103.429592 257.256 
L 103.610053 263.952 
L 103.790514 259.416 
L 103.970975 260.064 
L 104.151436 265.464 
L 104.331897 258.12 
L 104.512358 261.576 
L 105.053741 250.344 
L 105.234202 250.128 
L 105.414663 253.368 
L 105.775585 261.576 
L 105.956046 258.12 
L 106.136507 259.416 
L 106.316968 257.04 
L 106.497429 261.144 
L 106.67789 252.504 
L 106.858351 258.552 
L 107.038812 260.28 
L 107.219273 256.392 
L 107.399734 260.712 
L 107.580195 255.528 
L 107.760656 259.848 
L 107.941117 256.176 
L 108.121578 259.2 
L 108.302039 257.472 
L 108.4825 261.792 
L 108.662961 259.632 
L 108.843422 253.368 
L 109.023883 262.224 
L 109.565266 269.136 
L 109.745727 257.904 
L 109.926368 256.824 
L 110.106829 264.6 
L 110.28729 265.896 
L 110.467751 262.872 
L 110.648212 256.824 
L 110.828673 261.36 
L 111.009134 262.224 
L 111.189595 260.496 
L 111.370056 256.824 
L 111.550517 257.904 
L 111.730978 255.096 
L 111.911439 255.528 
L 112.0919 257.904 
L 112.272361 258.12 
L 112.452822 261.576 
L 112.633283 269.568 
L 112.994205 256.824 
L 113.174666 262.872 
L 113.355127 258.336 
L 113.535588 266.328 
L 113.716049 258.336 
L 113.89651 268.056 
L 114.076971 269.352 
L 114.257432 265.896 
L 114.437893 269.568 
L 114.798815 270 
L 114.979276 266.544 
L 115.159737 259.632 
L 115.340198 262.008 
L 115.520658 258.12 
L 115.701119 257.256 
L 115.88158 268.488 
L 116.062041 272.16 
L 116.242502 273.024 
L 116.422963 275.616 
L 116.603424 267.192 
L 116.783885 271.08 
L 117.144807 263.304 
L 117.325268 263.088 
L 117.505729 265.68 
L 117.68619 273.456 
L 117.866651 272.376 
L 118.047112 266.544 
L 118.588495 284.256 
L 118.949417 274.32 
L 119.129878 278.64 
L 119.310339 275.616 
L 119.4908 270.648 
L 119.671261 270.648 
L 119.851722 271.296 
L 120.032183 276.696 
L 120.212644 276.48 
L 120.393105 271.512 
L 120.573566 276.264 
L 120.754027 269.784 
L 120.934488 281.88 
L 121.114949 270.864 
L 121.29541 269.352 
L 121.475871 275.616 
L 121.656332 268.92 
L 121.836793 272.376 
L 122.197715 262.872 
L 122.378176 272.592 
L 122.558637 275.4 
L 122.739098 272.808 
L 122.919559 276.696 
L 123.280481 263.52 
L 123.460942 267.84 
L 123.641403 260.496 
L 123.821864 262.224 
L 124.002325 259.632 
L 124.182786 263.52 
L 124.363247 262.224 
L 124.724169 249.912 
L 124.90463 255.096 
L 125.085091 239.76 
L 125.265552 246.672 
L 125.446013 241.488 
L 125.626474 261.792 
L 126.167857 248.616 
L 126.348318 250.344 
L 126.528779 250.344 
L 126.70924 240.84 
L 126.889701 245.592 
L 127.070162 241.488 
L 127.250623 242.784 
L 127.431084 235.44 
L 127.611544 234.792 
L 127.792005 241.272 
L 127.972466 235.44 
L 128.152927 242.352 
L 128.513849 236.304 
L 128.69431 235.44 
L 128.874771 236.52 
L 129.055232 230.256 
L 129.235693 227.88 
L 129.416154 232.848 
L 129.596615 231.12 
L 129.957537 242.784 
L 130.137998 228.96 
L 130.31864 233.064 
L 130.499101 225.72 
L 130.679562 230.04 
L 130.860023 228.312 
L 131.040484 234.792 
L 131.401406 226.152 
L 131.581867 223.992 
L 132.12325 234.576 
L 132.484172 220.32 
L 132.664633 225.504 
L 132.845094 223.992 
L 133.025554 231.12 
L 133.206015 226.584 
L 133.566937 229.608 
L 133.747398 227.016 
L 133.927859 229.392 
L 134.288781 220.968 
L 134.469242 223.344 
L 134.649703 222.264 
L 134.830164 227.664 
L 135.010625 228.312 
L 135.191086 222.696 
L 135.371547 222.912 
L 135.552008 224.424 
L 135.732469 219.024 
L 136.273852 225.936 
L 136.454313 219.888 
L 136.634774 221.616 
L 136.815235 227.664 
L 136.995696 227.448 
L 137.176157 220.968 
L 137.537079 228.744 
L 137.71754 226.8 
L 137.898001 229.176 
L 138.078462 227.664 
L 138.439384 232.416 
L 138.619845 232.632 
L 138.800306 228.312 
L 138.980767 233.064 
L 139.161228 234.576 
L 139.341689 233.928 
L 140.063533 227.016 
L 140.243994 230.04 
L 140.424455 219.888 
L 140.604916 229.392 
L 140.785377 231.552 
L 140.965838 229.392 
L 141.146299 232.632 
L 141.32676 229.824 
L 141.507221 237.384 
L 141.687682 238.896 
L 141.868143 227.232 
L 142.048604 239.544 
L 142.229065 236.304 
L 142.409526 241.488 
L 142.589987 234.792 
L 142.770448 239.544 
L 142.950909 239.976 
L 143.13137 233.712 
L 143.311831 233.496 
L 143.492292 233.496 
L 143.672753 233.28 
L 143.853214 235.008 
L 144.033675 231.552 
L 144.214136 234.144 
L 144.394597 234.576 
L 144.755519 230.688 
L 144.93598 235.872 
L 145.11644 237.816 
L 145.296901 231.336 
L 145.477362 230.688 
L 145.657823 231.768 
L 145.838284 220.752 
L 146.018745 229.392 
L 146.379667 220.968 
L 146.560128 232.2 
L 146.92105 226.584 
L 147.101511 222.48 
L 147.281972 224.208 
L 147.642894 219.888 
L 147.823355 226.368 
L 148.003816 218.16 
L 148.184277 219.456 
L 148.364738 214.056 
L 148.545199 224.208 
L 148.906121 209.304 
L 149.086582 211.896 
L 149.267043 211.896 
L 149.447504 203.904 
L 149.628146 207.144 
L 149.808607 207.36 
L 150.169529 200.232 
L 150.34999 212.976 
L 150.53045 207.36 
L 150.710911 212.328 
L 150.891372 207.792 
L 151.071833 208.224 
L 151.252294 207.576 
L 151.432755 206.496 
L 151.613216 209.952 
L 151.793677 205.632 
L 151.974138 215.568 
L 152.33506 200.664 
L 152.695982 205.416 
L 152.876443 203.904 
L 153.237365 207.792 
L 153.417826 199.8 
L 153.598287 207.792 
L 153.778748 200.232 
L 153.959209 202.392 
L 154.13967 201.312 
L 154.500592 207.792 
L 154.681053 203.688 
L 154.861514 204.336 
L 155.041975 198.288 
L 155.222436 203.688 
L 155.402897 203.04 
L 155.763819 196.776 
L 155.94428 207.144 
L 156.124741 207.576 
L 156.305202 204.336 
L 156.485663 209.736 
L 156.666124 203.688 
L 156.846585 201.96 
L 157.027046 196.344 
L 157.207507 209.304 
L 157.387968 197.64 
L 157.568429 195.264 
L 157.74889 200.232 
L 158.109812 201.528 
L 158.290273 201.528 
L 158.470734 203.472 
L 158.651195 195.912 
L 158.831656 201.096 
L 159.012117 203.04 
L 159.192578 203.688 
L 159.373039 200.88 
L 159.5535 202.824 
L 159.733961 202.824 
L 159.914422 203.256 
L 160.094883 199.152 
L 160.275344 202.392 
L 160.455805 209.088 
L 160.636266 202.608 
L 160.816727 204.336 
L 160.997188 202.392 
L 161.177649 202.824 
L 161.35811 207.36 
L 161.538571 208.008 
L 161.719032 205.2 
L 161.899493 209.952 
L 162.440876 214.272 
L 162.621336 214.92 
L 162.801797 217.944 
L 162.982258 208.44 
L 163.162719 211.464 
L 163.34318 217.08 
L 163.523641 217.944 
L 163.704102 208.872 
L 164.245485 219.024 
L 164.425946 225.504 
L 164.606407 218.16 
L 164.786868 221.184 
L 164.967329 214.488 
L 165.14779 219.456 
L 165.328251 219.888 
L 165.508712 221.616 
L 165.689173 218.16 
L 166.050095 200.232 
L 166.230556 212.976 
L 166.411017 215.136 
L 166.591478 211.68 
L 166.771939 217.512 
L 167.313322 209.088 
L 167.493783 214.92 
L 167.674244 209.52 
L 168.035166 215.136 
L 168.215627 214.488 
L 168.396088 210.168 
L 168.576549 233.712 
L 168.75701 225.504 
L 168.937471 230.04 
L 169.117932 223.344 
L 169.298393 227.448 
L 169.478854 223.992 
L 169.659315 229.608 
L 169.839776 230.904 
L 170.200698 225.072 
L 170.381159 224.64 
L 170.56162 231.336 
L 170.742081 227.232 
L 170.922542 228.96 
L 171.283464 226.584 
L 171.463925 231.336 
L 171.644386 228.312 
L 171.824847 227.664 
L 172.005308 229.176 
L 172.185769 220.968 
L 172.36623 222.696 
L 172.546691 227.664 
L 172.727152 222.48 
L 172.907613 223.56 
L 173.268535 220.536 
L 173.448996 217.296 
L 173.629457 218.376 
L 173.809918 220.968 
L 173.990379 214.92 
L 174.17084 222.696 
L 174.351301 211.248 
L 174.712222 222.912 
L 174.892683 215.136 
L 175.253605 223.344 
L 175.614527 215.784 
L 175.794988 214.272 
L 175.975449 215.136 
L 176.156091 217.08 
L 176.336552 209.952 
L 176.517013 207.36 
L 176.697474 209.952 
L 176.877935 214.704 
L 177.058396 210.168 
L 177.238857 194.4 
L 177.419318 203.04 
L 177.599779 201.528 
L 177.78024 201.312 
L 177.960701 198.072 
L 178.141162 199.8 
L 178.321623 197.208 
L 178.502084 208.008 
L 178.682545 197.424 
L 178.863006 198.072 
L 179.043467 203.256 
L 179.404389 190.296 
L 179.58485 195.048 
L 179.765311 189.648 
L 179.945772 192.024 
L 180.126233 186.624 
L 180.306694 186.84 
L 180.667615 200.448 
L 181.028537 194.832 
L 181.208998 189.648 
L 181.38964 198.288 
L 181.570101 201.312 
L 181.750562 188.784 
L 181.931023 192.24 
L 182.111484 205.2 
L 182.652867 197.856 
L 182.833328 204.552 
L 183.013789 204.552 
L 183.19425 200.232 
L 183.374711 190.512 
L 183.555172 198.504 
L 183.735633 193.536 
L 183.916094 196.56 
L 184.096555 204.12 
L 184.277016 204.336 
L 184.457477 211.248 
L 184.637938 201.96 
L 184.818399 204.984 
L 184.99886 196.128 
L 185.179321 198.936 
L 185.359782 190.728 
L 185.540243 192.672 
L 185.720704 196.56 
L 185.901164 197.424 
L 186.081625 193.752 
L 186.262086 196.128 
L 186.442547 196.56 
L 186.623008 199.8 
L 186.803469 209.736 
L 186.98393 200.448 
L 187.164391 201.528 
L 187.344852 198.72 
L 187.525313 199.152 
L 187.705774 193.968 
L 187.886235 195.048 
L 188.066696 205.848 
L 188.247157 208.656 
L 188.427618 204.12 
L 188.608079 196.128 
L 188.78854 204.12 
L 188.969001 200.664 
L 189.149462 199.8 
L 189.329923 199.8 
L 189.510384 200.232 
L 189.690845 204.768 
L 189.871306 202.392 
L 190.051767 201.528 
L 190.232228 196.776 
L 190.412689 199.152 
L 190.59315 204.552 
L 190.773611 197.856 
L 190.954072 198.504 
L 191.134533 198.504 
L 191.314994 203.688 
L 191.495455 204.552 
L 191.675916 200.232 
L 191.856377 204.336 
L 192.036838 204.336 
L 192.217299 204.768 
L 192.39776 204.336 
L 192.578221 202.608 
L 192.758682 205.416 
L 192.939143 205.416 
L 193.119604 203.904 
L 193.300065 211.464 
L 193.480526 205.2 
L 193.841448 207.36 
L 194.021909 203.256 
L 194.20237 207.36 
L 194.382831 198.288 
L 194.743753 204.984 
L 194.924214 206.712 
L 195.104675 203.904 
L 195.285136 205.848 
L 195.465597 214.704 
L 195.646058 214.704 
L 195.826519 215.784 
L 196.00698 202.608 
L 196.187441 204.768 
L 196.367902 209.736 
L 196.728824 202.824 
L 196.909285 207.576 
L 197.089746 208.872 
L 197.270207 200.016 
L 197.450668 204.552 
L 197.631129 195.264 
L 197.81159 209.52 
L 198.172511 196.128 
L 198.352972 207.144 
L 198.533433 202.176 
L 198.713894 200.448 
L 198.894355 205.416 
L 199.074816 194.4 
L 199.435738 191.592 
L 199.616199 194.4 
L 199.977121 187.704 
L 200.157582 193.536 
L 200.518504 185.76 
L 200.698965 190.512 
L 200.879426 188.136 
L 201.059887 192.024 
L 201.240348 190.944 
L 201.420809 196.992 
L 201.60127 188.136 
L 201.781731 189 
L 201.962192 191.808 
L 202.142653 185.976 
L 202.323114 186.624 
L 202.503575 169.776 
L 202.684036 172.8 
L 202.864497 178.632 
L 203.044958 177.768 
L 203.225419 172.584 
L 203.40588 174.312 
L 203.586341 172.152 
L 203.766802 175.824 
L 203.947263 176.472 
L 204.127724 171.504 
L 204.308185 180.792 
L 204.488646 177.336 
L 204.669107 185.76 
L 205.21067 178.416 
L 205.391312 172.368 
L 205.571773 173.664 
L 205.752234 170.424 
L 205.932695 164.592 
L 206.113156 164.592 
L 206.474078 171.72 
L 206.654539 171.072 
L 206.835 168.696 
L 207.015461 175.608 
L 207.195922 176.256 
L 207.376383 173.448 
L 207.556844 174.96 
L 207.917766 166.752 
L 208.098227 170.64 
L 208.278688 169.128 
L 208.459149 169.992 
L 208.63961 181.656 
L 208.820071 179.712 
L 209.000532 175.392 
L 209.180993 176.472 
L 209.361453 173.664 
L 209.541914 173.88 
L 209.722375 178.416 
L 209.902836 170.424 
L 210.083297 174.096 
L 210.263758 170.856 
L 210.444219 176.256 
L 210.62468 173.016 
L 210.805141 167.4 
L 210.985602 167.616 
L 211.166063 176.256 
L 211.346524 168.048 
L 211.527166 172.584 
L 211.707807 172.8 
L 211.888449 164.16 
L 212.249551 173.232 
L 212.430012 172.152 
L 212.610473 173.232 
L 212.790934 169.776 
L 212.971576 169.992 
L 213.152217 169.776 
L 213.5135 160.92 
L 213.874602 173.88 
L 214.235705 167.4 
L 214.416166 167.832 
L 214.596627 165.456 
L 214.777088 167.184 
L 214.957549 174.096 
L 215.13801 166.32 
L 215.498932 179.064 
L 215.679393 174.096 
L 215.859854 176.688 
L 216.040315 173.88 
L 216.401237 178.416 
L 216.762339 170.424 
L 217.123261 173.016 
L 217.303722 170.856 
L 217.484183 174.744 
L 217.664644 173.448 
L 217.845105 168.048 
L 218.025566 169.128 
L 218.206027 174.744 
L 218.386488 172.152 
L 218.927871 177.984 
L 219.108332 179.28 
L 219.288793 171.288 
L 219.649715 179.064 
L 219.830176 173.016 
L 220.010637 176.472 
L 220.191098 176.472 
L 220.371559 175.608 
L 220.55202 171.288 
L 220.732481 171.288 
L 220.912942 174.528 
L 221.093403 168.264 
L 221.273864 177.768 
L 221.454325 171.936 
L 221.634786 179.928 
L 221.815247 170.208 
L 221.995708 177.12 
L 222.176168 167.184 
L 222.53709 183.6 
L 222.898012 170.208 
L 223.078473 183.6 
L 223.258934 180.792 
L 223.439395 172.152 
L 223.619856 174.096 
L 223.800317 177.336 
L 223.980778 169.992 
L 224.161239 179.28 
L 224.3417 171.72 
L 224.522161 173.88 
L 224.702622 178.416 
L 224.883083 178.416 
L 225.244005 169.128 
L 225.424466 165.888 
L 225.604927 167.616 
L 225.785388 168.048 
L 225.965849 163.512 
L 226.14631 166.968 
L 226.326771 166.32 
L 226.507232 166.752 
L 226.687693 166.32 
L 226.868154 166.32 
L 227.229076 172.368 
L 227.409537 169.776 
L 227.589998 169.344 
L 227.95092 161.136 
L 228.131381 181.224 
L 228.311842 162 
L 228.492303 166.104 
L 228.672764 160.272 
L 228.853225 167.832 
L 229.033686 161.352 
L 229.214147 167.4 
L 229.394608 165.456 
L 229.575069 157.032 
L 229.75553 160.704 
L 229.935991 160.704 
L 230.116452 159.408 
L 230.296913 168.048 
L 230.477374 166.32 
L 230.657835 167.832 
L 230.838296 166.752 
L 231.018757 163.728 
L 231.199218 164.376 
L 231.379679 163.944 
L 231.56014 164.376 
L 231.740601 166.752 
L 231.921062 166.536 
L 232.281984 161.352 
L 232.462445 162.216 
L 232.642906 163.728 
L 232.823367 159.84 
L 233.003828 162.216 
L 233.184289 162.648 
L 233.36475 157.032 
L 233.545211 160.488 
L 233.725672 160.92 
L 233.906133 166.536 
L 234.086594 159.624 
L 234.267054 162.648 
L 234.447515 162.216 
L 234.627976 161.352 
L 234.808437 163.512 
L 234.988898 162.648 
L 235.169359 163.512 
L 235.34982 166.752 
L 235.530281 166.104 
L 235.710742 173.664 
L 236.071664 166.536 
L 236.432586 162.864 
L 236.613047 164.592 
L 236.793508 163.512 
L 236.973969 168.264 
L 237.15443 166.104 
L 237.515352 170.208 
L 237.695813 161.352 
L 237.876274 167.832 
L 238.417657 172.8 
L 238.598118 169.344 
L 238.778579 173.448 
L 238.95904 168.264 
L 239.139501 175.824 
L 239.319962 177.336 
L 239.500423 173.232 
L 239.861345 178.416 
L 240.041806 179.928 
L 240.222267 184.68 
L 240.402728 175.824 
L 240.583189 174.312 
L 240.944111 178.632 
L 241.124572 178.2 
L 241.485494 180.792 
L 241.665955 176.688 
L 241.846416 188.784 
L 242.026877 180.36 
L 242.207338 179.928 
L 242.387799 177.336 
L 242.56826 189.864 
L 242.748721 175.824 
L 242.929182 172.584 
L 243.109643 176.472 
L 243.290104 173.016 
L 243.470565 180.144 
L 243.651026 178.848 
L 244.011948 171.504 
L 244.192409 173.232 
L 244.37287 176.256 
L 244.733792 173.232 
L 245.094714 165.24 
L 245.275175 166.104 
L 245.455636 173.016 
L 245.636097 175.176 
L 245.816558 169.776 
L 245.997019 172.8 
L 246.17748 171.72 
L 246.35794 173.016 
L 246.538401 173.448 
L 246.718862 174.744 
L 246.899323 173.016 
L 247.079784 165.672 
L 247.260245 164.376 
L 247.440706 171.504 
L 247.621167 166.752 
L 247.801628 166.968 
L 247.982089 170.856 
L 248.16255 166.536 
L 248.343011 167.184 
L 248.523472 166.968 
L 248.703933 155.52 
L 248.884394 156.384 
L 249.245316 160.056 
L 249.425777 152.712 
L 249.606238 156.816 
L 249.786699 166.968 
L 249.96716 156.384 
L 250.147621 165.456 
L 250.328082 158.112 
L 250.508543 158.328 
L 250.689004 163.728 
L 250.869465 165.456 
L 251.049926 162.864 
L 251.230387 154.224 
L 251.410848 156.6 
L 251.591309 157.248 
L 251.77177 162.432 
L 251.952231 160.272 
L 252.132692 163.728 
L 252.313153 161.136 
L 252.493614 162.648 
L 252.854536 160.272 
L 253.034997 157.68 
L 253.215458 150.552 
L 253.395919 165.456 
L 253.756841 146.664 
L 254.117763 164.808 
L 254.298224 152.064 
L 254.478685 160.92 
L 254.659146 151.416 
L 254.839607 155.304 
L 255.020068 155.736 
L 255.200529 147.312 
L 255.38099 157.032 
L 255.561451 153.792 
L 255.741912 156.168 
L 255.922373 153.144 
L 256.102834 152.928 
L 256.283295 149.688 
L 256.463756 152.496 
L 256.824678 145.584 
L 257.005139 151.632 
L 257.18578 149.472 
L 257.366241 145.152 
L 257.546702 150.12 
L 257.727163 151.416 
L 257.907624 143.856 
L 258.088085 144.072 
L 258.268546 145.368 
L 258.449007 140.616 
L 258.629468 139.968 
L 259.170851 147.744 
L 259.351312 150.12 
L 259.531773 150.12 
L 259.892695 157.248 
L 260.073156 153.576 
L 260.253617 158.544 
L 260.434078 157.032 
L 260.614539 159.408 
L 260.795 147.312 
L 261.155922 158.112 
L 261.516844 151.2 
L 261.697305 158.544 
L 261.877766 154.224 
L 262.058227 157.248 
L 262.238688 154.656 
L 262.419149 153.792 
L 262.59961 146.664 
L 262.780071 154.008 
L 262.960532 150.336 
L 263.140993 149.04 
L 263.321454 146.664 
L 263.501915 152.28 
L 263.682376 148.824 
L 263.862836 150.12 
L 264.043297 149.256 
L 264.223758 152.496 
L 264.404219 158.112 
L 264.58468 154.44 
L 264.765141 156.168 
L 264.945602 155.088 
L 265.126063 155.088 
L 265.306524 162 
L 265.486985 153.144 
L 265.667446 157.68 
L 265.847907 157.464 
L 266.028368 154.008 
L 266.208829 154.44 
L 266.38929 148.608 
L 266.569751 155.304 
L 266.750212 148.176 
L 266.930673 147.744 
L 267.111134 160.704 
L 267.291595 155.736 
L 267.472056 163.512 
L 267.832978 151.632 
L 268.013439 153.576 
L 268.1939 163.944 
L 268.374361 156.384 
L 268.554822 166.752 
L 268.735283 158.328 
L 268.915744 156.384 
L 269.096205 157.896 
L 269.457127 155.736 
L 269.637588 161.136 
L 269.818049 158.328 
L 269.99851 160.92 
L 270.359432 153.792 
L 270.539893 159.192 
L 271.081276 152.928 
L 271.261737 147.744 
L 271.442198 147.312 
L 271.622659 154.224 
L 271.80312 152.28 
L 271.983581 152.496 
L 272.164042 155.952 
L 272.344503 156.384 
L 272.524964 149.472 
L 272.885886 154.008 
L 273.066347 143.856 
L 273.246808 142.776 
L 273.427269 147.312 
L 273.60773 156.168 
L 273.788191 150.768 
L 273.968652 153.792 
L 274.149113 141.48 
L 274.329574 147.528 
L 274.690496 152.28 
L 274.870957 147.744 
L 275.051418 149.904 
L 275.231879 148.392 
L 275.41234 139.752 
L 275.592801 145.584 
L 275.773262 147.528 
L 275.953722 147.744 
L 276.134183 142.344 
L 276.314644 140.832 
L 276.495105 143.856 
L 276.856027 137.808 
L 277.216949 149.688 
L 277.39741 148.176 
L 277.577871 155.52 
L 277.758332 143.424 
L 277.938793 142.992 
L 278.299715 139.32 
L 278.480176 139.968 
L 278.660637 139.752 
L 278.841098 143.64 
L 279.021559 132.408 
L 279.20202 138.456 
L 279.382481 131.328 
L 279.743403 140.832 
L 280.104325 136.512 
L 280.284786 122.688 
L 280.826169 128.52 
L 281.00663 125.712 
L 281.187091 135.864 
L 281.367552 123.984 
L 281.548013 129.168 
L 281.908935 127.008 
L 282.089396 128.952 
L 282.269857 139.968 
L 282.450318 142.776 
L 282.630779 134.784 
L 282.81124 140.4 
L 282.991701 140.184 
L 283.172162 141.912 
L 283.533084 131.976 
L 283.713545 140.4 
L 283.894006 129.168 
L 284.074467 129.384 
L 284.254928 138.24 
L 284.435389 141.048 
L 284.61585 127.872 
L 284.796311 135.432 
L 284.976772 128.952 
L 285.157233 133.92 
L 285.337694 127.224 
L 285.518155 131.112 
L 285.698616 128.088 
L 285.879077 133.272 
L 286.059538 134.352 
L 286.239999 133.488 
L 286.42046 142.128 
L 286.600921 141.912 
L 286.961843 130.464 
L 287.142304 139.752 
L 287.322765 130.464 
L 287.503226 137.808 
L 287.683687 137.592 
L 287.864147 136.512 
L 288.044608 138.672 
L 288.225069 143.64 
L 288.40553 142.776 
L 288.585991 144.288 
L 288.766452 144.504 
L 288.946913 146.88 
L 289.127374 142.56 
L 289.488296 140.616 
L 289.668757 142.56 
L 290.029679 139.32 
L 290.21014 141.048 
L 290.390601 141.696 
L 290.571062 140.184 
L 290.751523 137.16 
L 290.931984 143.208 
L 291.112445 141.696 
L 291.292906 141.264 
L 291.473367 134.568 
L 291.653828 142.992 
L 292.01475 128.52 
L 292.195211 131.112 
L 292.375672 138.24 
L 292.556133 130.032 
L 292.917055 133.488 
L 293.097516 132.84 
L 293.277977 136.944 
L 293.458438 133.272 
L 293.638899 134.352 
L 293.81936 131.544 
L 294.180282 109.296 
L 294.360743 116.424 
L 294.541204 118.368 
L 294.902126 115.344 
L 295.082587 122.04 
L 295.263048 134.784 
L 295.443509 135.864 
L 295.984892 119.016 
L 296.165353 126.576 
L 296.345814 124.848 
L 296.526275 126.576 
L 296.706736 126.144 
L 296.887197 128.952 
L 297.248119 124.2 
L 297.42858 128.088 
L 297.609041 125.496 
L 297.789502 131.76 
L 297.969963 129.384 
L 298.150424 119.232 
L 298.330885 120.744 
L 298.511346 117.288 
L 298.691807 119.232 
L 298.872268 119.232 
L 299.052729 122.256 
L 299.23319 120.744 
L 299.413651 117.504 
L 299.594112 120.096 
L 299.774573 120.96 
L 299.955033 115.56 
L 300.135494 115.56 
L 300.315955 118.8 
L 300.496416 126.576 
L 300.676877 119.232 
L 300.857338 120.312 
L 301.037799 117.288 
L 301.21826 123.12 
L 301.398721 119.88 
L 301.579182 119.448 
L 301.759643 122.04 
L 302.120565 119.88 
L 302.301026 114.048 
L 302.481487 114.696 
L 302.661948 120.096 
L 303.02287 121.176 
L 303.203331 119.88 
L 303.564253 113.832 
L 303.744714 115.56 
L 303.925175 115.56 
L 304.105636 109.944 
L 304.286097 128.088 
L 304.466558 119.664 
L 304.647019 120.96 
L 304.82748 123.768 
L 305.007941 114.048 
L 305.188402 113.616 
L 305.549324 122.256 
L 305.729785 112.536 
L 305.910246 114.912 
L 306.090707 120.312 
L 306.271168 117.072 
L 306.451629 121.176 
L 306.63209 116.856 
L 306.812551 123.768 
L 306.993012 121.176 
L 307.173473 116.64 
L 307.353934 122.904 
L 307.534395 120.096 
L 307.714856 120.744 
L 307.895317 119.664 
L 308.075778 116.208 
L 308.256239 116.424 
L 308.4367 121.824 
L 308.617161 120.96 
L 308.797622 123.552 
L 308.978083 133.92 
L 309.158544 126.792 
L 309.339005 131.112 
L 309.519466 131.112 
L 309.699927 111.024 
L 309.880388 125.064 
L 310.24131 128.52 
L 310.421771 133.704 
L 310.602232 132.408 
L 310.782693 126.36 
L 311.143615 137.592 
L 311.504537 128.952 
L 311.684998 136.296 
L 311.865459 135.648 
L 312.045919 133.488 
L 312.22638 125.496 
L 312.406841 130.248 
L 312.587302 131.544 
L 312.767763 133.92 
L 312.948224 132.192 
L 313.128685 133.272 
L 313.309146 139.32 
L 313.489607 135.864 
L 313.670068 138.024 
L 313.850529 131.112 
L 314.03099 137.592 
L 314.211451 133.488 
L 314.391912 133.92 
L 314.572373 133.056 
L 314.752834 137.808 
L 314.933295 129.384 
L 315.113756 141.912 
L 315.294217 140.184 
L 315.474678 134.352 
L 315.655139 134.352 
L 315.8356 128.52 
L 316.016061 135.216 
L 316.196522 134.568 
L 316.376983 131.544 
L 316.557444 130.68 
L 316.918366 134.136 
L 317.098827 143.856 
L 317.279288 129.6 
L 317.459749 130.896 
L 317.64021 125.064 
L 317.820671 131.112 
L 318.362054 124.848 
L 318.542515 130.032 
L 318.722976 127.008 
L 318.903437 127.008 
L 319.083898 131.544 
L 319.44482 116.208 
L 319.625281 120.96 
L 319.805742 117.072 
L 319.986203 128.304 
L 320.166664 120.96 
L 320.347125 125.28 
L 320.527586 119.88 
L 320.708047 122.688 
L 320.888508 117.72 
L 321.068969 121.608 
L 321.24943 121.392 
L 321.429891 123.336 
L 321.610352 121.176 
L 321.790813 123.984 
L 321.971274 116.856 
L 322.151735 120.096 
L 322.512657 114.912 
L 322.873579 121.824 
L 323.05404 113.616 
L 323.234501 128.088 
L 323.414962 119.016 
L 323.595423 118.152 
L 323.775884 118.368 
L 323.956345 119.664 
L 324.136805 123.336 
L 324.678188 114.48 
L 324.858649 115.344 
L 325.03911 110.592 
L 325.219571 111.24 
L 325.580493 123.768 
L 325.760954 112.32 
L 326.121876 116.208 
L 326.302337 115.344 
L 326.663259 117.936 
L 326.84372 123.768 
L 327.024181 122.472 
L 327.385103 117.72 
L 327.565564 121.392 
L 327.746025 122.688 
L 327.926486 119.88 
L 328.106947 119.448 
L 328.287408 126.36 
L 328.467869 125.496 
L 328.64833 128.952 
L 328.828791 129.168 
L 329.189713 123.336 
L 329.370174 125.064 
L 329.550635 124.2 
L 329.731096 127.44 
L 329.911557 127.656 
L 330.092018 130.464 
L 330.272479 127.872 
L 330.45294 127.656 
L 330.633401 131.328 
L 330.813862 128.736 
L 330.994323 131.112 
L 331.174784 127.44 
L 331.535706 131.76 
L 331.716167 133.056 
L 331.896628 138.456 
L 332.077089 130.464 
L 332.25755 130.68 
L 332.438011 141.696 
L 332.798933 136.728 
L 332.979394 137.376 
L 333.159855 141.912 
L 333.340316 138.024 
L 333.520777 139.104 
L 333.701238 138.672 
L 333.881699 135.648 
L 334.06216 141.696 
L 334.242621 143.856 
L 334.423082 139.104 
L 334.603543 137.808 
L 334.784004 139.968 
L 334.964465 138.024 
L 335.144926 137.376 
L 335.505848 141.912 
L 335.686309 136.728 
L 335.86677 139.968 
L 336.047231 137.16 
L 336.408152 143.856 
L 336.588613 136.296 
L 336.949535 138.672 
L 337.129996 146.016 
L 337.310457 148.824 
L 337.490918 145.8 
L 337.671379 147.096 
L 337.85184 149.688 
L 338.032301 142.344 
L 338.212762 147.096 
L 338.393223 141.48 
L 338.573684 143.64 
L 338.934606 141.696 
L 339.115067 141.696 
L 339.475989 135.216 
L 339.65645 128.736 
L 339.836911 130.68 
L 340.017372 130.032 
L 340.197833 126.792 
L 340.378294 128.952 
L 340.558755 127.008 
L 340.739216 129.6 
L 340.919677 127.656 
L 341.100138 130.248 
L 341.280599 120.744 
L 341.46106 124.632 
L 341.641521 121.392 
L 341.821982 120.96 
L 342.002443 124.416 
L 342.182904 125.28 
L 342.363365 120.312 
L 342.543826 118.8 
L 342.724287 121.392 
L 342.904748 117.504 
L 343.085209 120.312 
L 343.26567 112.968 
L 343.446131 112.752 
L 343.626592 116.64 
L 343.807053 112.968 
L 343.987514 114.048 
L 344.167975 114.048 
L 344.348436 115.128 
L 344.528897 112.32 
L 344.709358 116.64 
L 344.889819 117.72 
L 345.07028 117.072 
L 345.250741 111.672 
L 345.431202 112.968 
L 345.611663 108.216 
L 345.792124 112.752 
L 346.153046 104.544 
L 346.513968 108.216 
L 347.055351 104.976 
L 347.235812 100.656 
L 347.416273 100.008 
L 347.596734 107.136 
L 347.777195 104.976 
L 347.957656 105.192 
L 348.138117 90.936 
L 348.318577 86.184 
L 348.499038 95.04 
L 348.85996 85.968 
L 349.040421 88.56 
L 349.220882 88.344 
L 349.401343 84.024 
L 349.581804 90.504 
L 349.762265 81.216 
L 349.942726 82.08 
L 350.123187 83.808 
L 350.303648 84.24 
L 350.484109 84.024 
L 350.66457 83.16 
L 350.845031 74.088 
L 351.025492 77.976 
L 351.386414 87.264 
L 351.566875 86.832 
L 351.747336 81.648 
L 351.927797 80.568 
L 352.108258 83.16 
L 352.288719 87.48 
L 352.46918 77.112 
L 353.010563 92.016 
L 353.191024 86.616 
L 353.371485 89.64 
L 353.551946 89.424 
L 353.732407 89.856 
L 353.912868 94.176 
L 354.093329 84.672 
L 354.27379 84.456 
L 354.454251 93.312 
L 354.634712 89.64 
L 354.815173 96.768 
L 354.995634 89.856 
L 355.176095 90.936 
L 355.356556 88.56 
L 355.537017 95.688 
L 355.717478 96.336 
L 355.897939 93.96 
L 356.0784 96.984 
L 356.258861 93.528 
L 356.439322 95.688 
L 356.619783 95.904 
L 356.980705 92.88 
L 357.161166 95.688 
L 357.341627 96.336 
L 357.522088 97.848 
L 357.702549 97.848 
L 357.88301 100.008 
L 358.063471 93.528 
L 358.243932 99.36 
L 358.424393 95.256 
L 358.604854 97.848 
L 358.965776 92.016 
L 359.146237 96.768 
L 359.326698 95.472 
L 359.507159 100.656 
L 359.68762 99.576 
L 359.868081 92.016 
L 360.048542 91.368 
L 360.229003 95.04 
L 360.409463 106.488 
L 360.589924 100.224 
L 360.770385 102.816 
L 360.950846 103.464 
L 361.131307 103.248 
L 361.311768 93.096 
L 361.492229 107.136 
L 361.67269 98.28 
L 361.853151 107.352 
L 362.033612 97.632 
L 362.214073 98.712 
L 362.394534 96.336 
L 362.575176 104.76 
L 362.936098 94.392 
L 363.116559 103.464 
L 363.29702 102.816 
L 363.657942 98.928 
L 363.838403 99.36 
L 364.018864 91.152 
L 364.199325 92.232 
L 364.379786 96.984 
L 364.560247 96.336 
L 364.740708 99.576 
L 364.921169 96.336 
L 365.10163 96.552 
L 365.282091 100.224 
L 365.462552 96.336 
L 365.643013 100.224 
L 365.823474 100.008 
L 366.003935 100.224 
L 366.184396 93.096 
L 366.364856 95.256 
L 366.725778 88.56 
L 367.0867 93.528 
L 367.267161 94.608 
L 367.447803 92.448 
L 367.628264 92.448 
L 367.808725 90.936 
L 367.989186 83.16 
L 368.169647 87.912 
L 368.350108 83.16 
L 368.530569 88.992 
L 368.71103 87.048 
L 368.891491 88.992 
L 369.071952 88.992 
L 369.252413 84.672 
L 369.432874 89.208 
L 369.613335 85.104 
L 369.793796 88.992 
L 369.974257 85.968 
L 370.154718 86.832 
L 370.335179 89.856 
L 370.51564 84.24 
L 370.696101 88.56 
L 370.876562 89.64 
L 371.057023 94.392 
L 371.237484 83.16 
L 371.417945 83.808 
L 371.598406 89.856 
L 371.778866 80.784 
L 371.959327 91.152 
L 372.139788 84.24 
L 372.320249 82.296 
L 372.50071 77.76 
L 372.681171 82.728 
L 372.861632 83.376 
L 373.042093 85.32 
L 373.222554 89.856 
L 373.403015 78.408 
L 373.583476 82.728 
L 373.944398 75.6 
L 374.12504 77.112 
L 374.305501 76.68 
L 374.666423 86.832 
L 374.846884 79.488 
L 375.207806 75.384 
L 375.388267 76.248 
L 375.568728 71.928 
L 375.749189 75.384 
L 375.92965 83.592 
L 376.110111 71.064 
L 376.290572 69.12 
L 376.471033 78.192 
L 376.651494 71.496 
L 376.831955 79.056 
L 377.012416 63.288 
L 377.192876 70.848 
L 377.373337 68.04 
L 377.553798 72.36 
L 377.734259 79.704 
L 377.91472 70.2 
L 378.095181 70.632 
L 378.275642 77.544 
L 378.456103 72.576 
L 378.636564 73.656 
L 378.817025 71.064 
L 379.177947 75.384 
L 379.358408 81.864 
L 379.538869 79.704 
L 379.71933 74.736 
L 379.899791 75.384 
L 380.260713 73.008 
L 380.441174 69.336 
L 380.621635 77.976 
L 380.802096 69.552 
L 380.982557 75.6 
L 381.163018 70.2 
L 381.343479 78.192 
L 381.52394 79.704 
L 381.704401 79.488 
L 382.065323 78.192 
L 382.245784 85.32 
L 382.426245 77.112 
L 382.606706 78.84 
L 382.967628 85.752 
L 383.32855 81.864 
L 383.509011 76.68 
L 383.689472 75.6 
L 384.050394 70.2 
L 384.230855 82.512 
L 384.411316 79.704 
L 384.591777 83.808 
L 384.952699 79.488 
L 385.13316 89.64 
L 385.313621 84.888 
L 385.494082 87.48 
L 385.674543 87.912 
L 385.855004 87.696 
L 386.035465 78.84 
L 386.215926 79.704 
L 386.396387 88.56 
L 386.576848 86.616 
L 386.757309 87.264 
L 386.93777 85.32 
L 387.118231 81.648 
L 387.298692 81.648 
L 387.479153 87.48 
L 387.659614 86.616 
L 388.020536 81.648 
L 388.200997 81 
L 388.381458 83.16 
L 388.561919 82.08 
L 388.74238 83.376 
L 388.922841 81.432 
L 389.103302 83.16 
L 389.464223 79.92 
L 389.644684 76.248 
L 389.825145 79.488 
L 390.005606 75.384 
L 390.186067 84.024 
L 390.366528 75.6 
L 390.546989 77.544 
L 390.72745 66.96 
L 390.907911 66.96 
L 391.088372 65.88 
L 391.268833 76.248 
L 391.810216 66.96 
L 391.990677 71.496 
L 392.171138 70.2 
L 392.351599 63.504 
L 392.53206 62.64 
L 392.712521 65.664 
L 393.073443 61.56 
L 393.253904 55.944 
L 393.614826 59.832 
L 393.795287 59.4 
L 393.975748 58.32 
L 394.156209 60.696 
L 394.33667 60.48 
L 394.517131 59.4 
L 394.697592 54.216 
L 394.878053 62.856 
L 395.058514 64.368 
L 395.419436 56.808 
L 395.780358 58.968 
L 395.960819 58.536 
L 396.14128 59.184 
L 396.502202 60.696 
L 396.682663 55.728 
L 396.863124 57.024 
L 397.043585 61.128 
L 397.224046 58.968 
L 397.404507 61.776 
L 397.584968 57.24 
L 397.765429 57.888 
L 397.94589 53.568 
L 398.126351 59.184 
L 398.306812 56.16 
L 398.487273 61.344 
L 398.487273 61.344 
" style="fill:none;stroke:#1f77b4;stroke-linecap:square;stroke-width:1.5;"/>
   </g>
   <g id="patch_3">
    <path d="M 57.6 307.584 
L 57.6 41.472 
" style="fill:none;stroke:#000000;stroke-linecap:square;stroke-linejoin:miter;stroke-width:0.8;"/>
   </g>
   <g id="patch_4">
    <path d="M 414.72 307.584 
L 414.72 41.472 
" style="fill:none;stroke:#000000;stroke-linecap:square;stroke-linejoin:miter;stroke-width:0.8;"/>
   </g>
   <g id="patch_5">
    <path d="M 57.6 307.584 
L 414.72 307.584 
" style="fill:none;stroke:#000000;stroke-linecap:square;stroke-linejoin:miter;stroke-width:0.8;"/>
   </g>
   <g id="patch_6">
    <path d="M 57.6 41.472 
L 414.72 41.472 
" style="fill:none;stroke:#000000;stroke-linecap:square;stroke-linejoin:miter;stroke-width:0.8;"/>
   </g>
   <g id="text_18">
    <!-- Pressure in main chamber -->
    <defs>
     <path d="M 9.421875 54.6875 
L 18.40625 54.6875 
L 18.40625 0 
L 9.421875 0 
z
M 9.421875 75.984375 
L 18.40625 75.984375 
L 18.40625 64.59375 
L 9.421875 64.59375 
z
" id="DejaVuSans-69"/>
     <path d="M 54.890625 33.015625 
L 54.890625 0 
L 45.90625 0 
L 45.90625 32.71875 
Q 45.90625 40.484375 42.875 44.328125 
Q 39.84375 48.1875 33.796875 48.1875 
Q 26.515625 48.1875 22.3125 43.546875 
Q 18.109375 38.921875 18.109375 30.90625 
L 18.109375 0 
L 9.078125 0 
L 9.078125 54.6875 
L 18.109375 54.6875 
L 18.109375 46.1875 
Q 21.34375 51.125 25.703125 53.5625 
Q 30.078125 56 35.796875 56 
Q 45.21875 56 50.046875 50.171875 
Q 54.890625 44.34375 54.890625 33.015625 
z
" id="DejaVuSans-6e"/>
     <path d="M 52 44.1875 
Q 55.375 50.25 60.0625 53.125 
Q 64.75 56 71.09375 56 
Q 79.640625 56 84.28125 50.015625 
Q 88.921875 44.046875 88.921875 33.015625 
L 88.921875 0 
L 79.890625 0 
L 79.890625 32.71875 
Q 79.890625 40.578125 77.09375 44.375 
Q 74.3125 48.1875 68.609375 48.1875 
Q 61.625 48.1875 57.5625 43.546875 
Q 53.515625 38.921875 53.515625 30.90625 
L 53.515625 0 
L 44.484375 0 
L 44.484375 32.71875 
Q 44.484375 40.625 41.703125 44.40625 
Q 38.921875 48.1875 33.109375 48.1875 
Q 26.21875 48.1875 22.15625 43.53125 
Q 18.109375 38.875 18.109375 30.90625 
L 18.109375 0 
L 9.078125 0 
L 9.078125 54.6875 
L 18.109375 54.6875 
L 18.109375 46.1875 
Q 21.1875 51.21875 25.484375 53.609375 
Q 29.78125 56 35.6875 56 
Q 41.65625 56 45.828125 52.96875 
Q 50 49.953125 52 44.1875 
z
" id="DejaVuSans-6d"/>
     <path d="M 48.78125 52.59375 
L 48.78125 44.1875 
Q 44.96875 46.296875 41.140625 47.34375 
Q 37.3125 48.390625 33.40625 48.390625 
Q 24.65625 48.390625 19.8125 42.84375 
Q 14.984375 37.3125 14.984375 27.296875 
Q 14.984375 17.28125 19.8125 11.734375 
Q 24.65625 6.203125 33.40625 6.203125 
Q 37.3125 6.203125 41.140625 7.25 
Q 44.96875 8.296875 48.78125 10.40625 
L 48.78125 2.09375 
Q 45.015625 0.34375 40.984375 -0.53125 
Q 36.96875 -1.421875 32.421875 -1.421875 
Q 20.0625 -1.421875 12.78125 6.34375 
Q 5.515625 14.109375 5.515625 27.296875 
Q 5.515625 40.671875 12.859375 48.328125 
Q 20.21875 56 33.015625 56 
Q 37.15625 56 41.109375 55.140625 
Q 45.0625 54.296875 48.78125 52.59375 
z
" id="DejaVuSans-63"/>
     <path d="M 54.890625 33.015625 
L 54.890625 0 
L 45.90625 0 
L 45.90625 32.71875 
Q 45.90625 40.484375 42.875 44.328125 
Q 39.84375 48.1875 33.796875 48.1875 
Q 26.515625 48.1875 22.3125 43.546875 
Q 18.109375 38.921875 18.109375 30.90625 
L 18.109375 0 
L 9.078125 0 
L 9.078125 75.984375 
L 18.109375 75.984375 
L 18.109375 46.1875 
Q 21.34375 51.125 25.703125 53.5625 
Q 30.078125 56 35.796875 56 
Q 45.21875 56 50.046875 50.171875 
Q 54.890625 44.34375 54.890625 33.015625 
z
" id="DejaVuSans-68"/>
    </defs>
    <g transform="translate(157.405312 35.472)scale(0.12 -0.12)">
     <use xlink:href="#DejaVuSans-50"/>
     <use x="60.287109" xlink:href="#DejaVuSans-72"/>
     <use x="101.369141" xlink:href="#DejaVuSans-65"/>
     <use x="162.892578" xlink:href="#DejaVuSans-73"/>
     <use x="214.992188" xlink:href="#DejaVuSans-73"/>
     <use x="267.091797" xlink:href="#DejaVuSans-75"/>
     <use x="330.470703" xlink:href="#DejaVuSans-72"/>
     <use x="371.552734" xlink:href="#DejaVuSans-65"/>
     <use x="433.076172" xlink:href="#DejaVuSans-20"/>
     <use x="464.863281" xlink:href="#DejaVuSans-69"/>
     <use x="492.646484" xlink:href="#DejaVuSans-6e"/>
     <use x="556.025391" xlink:href="#DejaVuSans-20"/>
     <use x="587.8125" xlink:href="#DejaVuSans-6d"/>
     <use x="685.224609" xlink:href="#DejaVuSans-61"/>
     <use x="746.503906" xlink:href="#DejaVuSans-69"/>
     <use x="774.287109" xlink:href="#DejaVuSans-6e"/>
     <use x="837.666016" xlink:href="#DejaVuSans-20"/>
     <use x="869.453125" xlink:href="#DejaVuSans-63"/>
     <use x="924.433594" xlink:href="#DejaVuSans-68"/>
     <use x="987.8125" xlink:href="#DejaVuSans-61"/>
     <use x="1049.091797" xlink:href="#DejaVuSans-6d"/>
     <use x="1146.503906" xlink:href="#DejaVuSans-62"/>
     <use x="1209.980469" xlink:href="#DejaVuSans-65"/>
     <use x="1271.503906" xlink:href="#DejaVuSans-72"/>
    </g>
   </g>
  </g>
 </g>
 <defs>
  <clipPath id="p30cf3aa3bc">
   <rect height="266.112" width="357.12" x="57.6" y="41.472"/>
  </clipPath>
 </defs>
</svg>
