<?xml version="1.0" encoding="utf-8" standalone="no"?>
<!DOCTYPE svg PUBLIC "-//W3C//DTD SVG 1.1//EN"
  "http://www.w3.org/Graphics/SVG/1.1/DTD/svg11.dtd">
<!-- Created with matplotlib (http://matplotlib.org/) -->
<svg height="345pt" version="1.1" viewBox="0 0 460 345" width="460pt" xmlns="http://www.w3.org/2000/svg" xmlns:xlink="http://www.w3.org/1999/xlink">
 <defs>
  <style type="text/css">
*{stroke-linecap:butt;stroke-linejoin:round;}
  </style>
 </defs>
 <g id="figure_1">
  <g id="patch_1">
   <path d="M 0 345.6 
L 460.8 345.6 
L 460.8 0 
L 0 0 
z
" style="fill:#ffffff;"/>
  </g>
  <g id="axes_1">
   <g id="patch_2">
    <path d="M 57.6 307.584 
L 414.72 307.584 
L 414.72 41.472 
L 57.6 41.472 
z
" style="fill:#ffffff;"/>
   </g>
   <g id="matplotlib.axis_1">
    <g id="xtick_1">
     <g id="line2d_1">
      <defs>
       <path d="M 0 0 
L 0 3.5 
" id="m75fb71f7c3" style="stroke:#000000;stroke-width:0.8;"/>
      </defs>
      <g>
       <use style="stroke:#000000;stroke-width:0.8;" x="73.832727" xlink:href="#m75fb71f7c3" y="307.584"/>
      </g>
     </g>
     <g id="text_1">
      <!-- 0 -->
      <defs>
       <path d="M 31.78125 66.40625 
Q 24.171875 66.40625 20.328125 58.90625 
Q 16.5 51.421875 16.5 36.375 
Q 16.5 21.390625 20.328125 13.890625 
Q 24.171875 6.390625 31.78125 6.390625 
Q 39.453125 6.390625 43.28125 13.890625 
Q 47.125 21.390625 47.125 36.375 
Q 47.125 51.421875 43.28125 58.90625 
Q 39.453125 66.40625 31.78125 66.40625 
z
M 31.78125 74.21875 
Q 44.046875 74.21875 50.515625 64.515625 
Q 56.984375 54.828125 56.984375 36.375 
Q 56.984375 17.96875 50.515625 8.265625 
Q 44.046875 -1.421875 31.78125 -1.421875 
Q 19.53125 -1.421875 13.0625 8.265625 
Q 6.59375 17.96875 6.59375 36.375 
Q 6.59375 54.828125 13.0625 64.515625 
Q 19.53125 74.21875 31.78125 74.21875 
z
" id="DejaVuSans-30"/>
      </defs>
      <g transform="translate(70.651477 322.182437)scale(0.1 -0.1)">
       <use xlink:href="#DejaVuSans-30"/>
      </g>
     </g>
    </g>
    <g id="xtick_2">
     <g id="line2d_2">
      <g>
       <use style="stroke:#000000;stroke-width:0.8;" x="118.934711" xlink:href="#m75fb71f7c3" y="307.584"/>
      </g>
     </g>
     <g id="text_2">
      <!-- 500 -->
      <defs>
       <path d="M 10.796875 72.90625 
L 49.515625 72.90625 
L 49.515625 64.59375 
L 19.828125 64.59375 
L 19.828125 46.734375 
Q 21.96875 47.46875 24.109375 47.828125 
Q 26.265625 48.1875 28.421875 48.1875 
Q 40.625 48.1875 47.75 41.5 
Q 54.890625 34.8125 54.890625 23.390625 
Q 54.890625 11.625 47.5625 5.09375 
Q 40.234375 -1.421875 26.90625 -1.421875 
Q 22.3125 -1.421875 17.546875 -0.640625 
Q 12.796875 0.140625 7.71875 1.703125 
L 7.71875 11.625 
Q 12.109375 9.234375 16.796875 8.0625 
Q 21.484375 6.890625 26.703125 6.890625 
Q 35.15625 6.890625 40.078125 11.328125 
Q 45.015625 15.765625 45.015625 23.390625 
Q 45.015625 31 40.078125 35.4375 
Q 35.15625 39.890625 26.703125 39.890625 
Q 22.75 39.890625 18.8125 39.015625 
Q 14.890625 38.140625 10.796875 36.28125 
z
" id="DejaVuSans-35"/>
      </defs>
      <g transform="translate(109.390961 322.182437)scale(0.1 -0.1)">
       <use xlink:href="#DejaVuSans-35"/>
       <use x="63.623047" xlink:href="#DejaVuSans-30"/>
       <use x="127.246094" xlink:href="#DejaVuSans-30"/>
      </g>
     </g>
    </g>
    <g id="xtick_3">
     <g id="line2d_3">
      <g>
       <use style="stroke:#000000;stroke-width:0.8;" x="164.036696" xlink:href="#m75fb71f7c3" y="307.584"/>
      </g>
     </g>
     <g id="text_3">
      <!-- 1000 -->
      <defs>
       <path d="M 12.40625 8.296875 
L 28.515625 8.296875 
L 28.515625 63.921875 
L 10.984375 60.40625 
L 10.984375 69.390625 
L 28.421875 72.90625 
L 38.28125 72.90625 
L 38.28125 8.296875 
L 54.390625 8.296875 
L 54.390625 0 
L 12.40625 0 
z
" id="DejaVuSans-31"/>
      </defs>
      <g transform="translate(151.311696 322.182437)scale(0.1 -0.1)">
       <use xlink:href="#DejaVuSans-31"/>
       <use x="63.623047" xlink:href="#DejaVuSans-30"/>
       <use x="127.246094" xlink:href="#DejaVuSans-30"/>
       <use x="190.869141" xlink:href="#DejaVuSans-30"/>
      </g>
     </g>
    </g>
    <g id="xtick_4">
     <g id="line2d_4">
      <g>
       <use style="stroke:#000000;stroke-width:0.8;" x="209.13868" xlink:href="#m75fb71f7c3" y="307.584"/>
      </g>
     </g>
     <g id="text_4">
      <!-- 1500 -->
      <g transform="translate(196.41368 322.182437)scale(0.1 -0.1)">
       <use xlink:href="#DejaVuSans-31"/>
       <use x="63.623047" xlink:href="#DejaVuSans-35"/>
       <use x="127.246094" xlink:href="#DejaVuSans-30"/>
       <use x="190.869141" xlink:href="#DejaVuSans-30"/>
      </g>
     </g>
    </g>
    <g id="xtick_5">
     <g id="line2d_5">
      <g>
       <use style="stroke:#000000;stroke-width:0.8;" x="254.240664" xlink:href="#m75fb71f7c3" y="307.584"/>
      </g>
     </g>
     <g id="text_5">
      <!-- 2000 -->
      <defs>
       <path d="M 19.1875 8.296875 
L 53.609375 8.296875 
L 53.609375 0 
L 7.328125 0 
L 7.328125 8.296875 
Q 12.9375 14.109375 22.625 23.890625 
Q 32.328125 33.6875 34.8125 36.53125 
Q 39.546875 41.84375 41.421875 45.53125 
Q 43.3125 49.21875 43.3125 52.78125 
Q 43.3125 58.59375 39.234375 62.25 
Q 35.15625 65.921875 28.609375 65.921875 
Q 23.96875 65.921875 18.8125 64.3125 
Q 13.671875 62.703125 7.8125 59.421875 
L 7.8125 69.390625 
Q 13.765625 71.78125 18.9375 73 
Q 24.125 74.21875 28.421875 74.21875 
Q 39.75 74.21875 46.484375 68.546875 
Q 53.21875 62.890625 53.21875 53.421875 
Q 53.21875 48.921875 51.53125 44.890625 
Q 49.859375 40.875 45.40625 35.40625 
Q 44.1875 33.984375 37.640625 27.21875 
Q 31.109375 20.453125 19.1875 8.296875 
z
" id="DejaVuSans-32"/>
      </defs>
      <g transform="translate(241.515664 322.182437)scale(0.1 -0.1)">
       <use xlink:href="#DejaVuSans-32"/>
       <use x="63.623047" xlink:href="#DejaVuSans-30"/>
       <use x="127.246094" xlink:href="#DejaVuSans-30"/>
       <use x="190.869141" xlink:href="#DejaVuSans-30"/>
      </g>
     </g>
    </g>
    <g id="xtick_6">
     <g id="line2d_6">
      <g>
       <use style="stroke:#000000;stroke-width:0.8;" x="299.342648" xlink:href="#m75fb71f7c3" y="307.584"/>
      </g>
     </g>
     <g id="text_6">
      <!-- 2500 -->
      <g transform="translate(286.617648 322.182437)scale(0.1 -0.1)">
       <use xlink:href="#DejaVuSans-32"/>
       <use x="63.623047" xlink:href="#DejaVuSans-35"/>
       <use x="127.246094" xlink:href="#DejaVuSans-30"/>
       <use x="190.869141" xlink:href="#DejaVuSans-30"/>
      </g>
     </g>
    </g>
    <g id="xtick_7">
     <g id="line2d_7">
      <g>
       <use style="stroke:#000000;stroke-width:0.8;" x="344.444632" xlink:href="#m75fb71f7c3" y="307.584"/>
      </g>
     </g>
     <g id="text_7">
      <!-- 3000 -->
      <defs>
       <path d="M 40.578125 39.3125 
Q 47.65625 37.796875 51.625 33 
Q 55.609375 28.21875 55.609375 21.1875 
Q 55.609375 10.40625 48.1875 4.484375 
Q 40.765625 -1.421875 27.09375 -1.421875 
Q 22.515625 -1.421875 17.65625 -0.515625 
Q 12.796875 0.390625 7.625 2.203125 
L 7.625 11.71875 
Q 11.71875 9.328125 16.59375 8.109375 
Q 21.484375 6.890625 26.8125 6.890625 
Q 36.078125 6.890625 40.9375 10.546875 
Q 45.796875 14.203125 45.796875 21.1875 
Q 45.796875 27.640625 41.28125 31.265625 
Q 36.765625 34.90625 28.71875 34.90625 
L 20.21875 34.90625 
L 20.21875 43.015625 
L 29.109375 43.015625 
Q 36.375 43.015625 40.234375 45.921875 
Q 44.09375 48.828125 44.09375 54.296875 
Q 44.09375 59.90625 40.109375 62.90625 
Q 36.140625 65.921875 28.71875 65.921875 
Q 24.65625 65.921875 20.015625 65.03125 
Q 15.375 64.15625 9.8125 62.3125 
L 9.8125 71.09375 
Q 15.4375 72.65625 20.34375 73.4375 
Q 25.25 74.21875 29.59375 74.21875 
Q 40.828125 74.21875 47.359375 69.109375 
Q 53.90625 64.015625 53.90625 55.328125 
Q 53.90625 49.265625 50.4375 45.09375 
Q 46.96875 40.921875 40.578125 39.3125 
z
" id="DejaVuSans-33"/>
      </defs>
      <g transform="translate(331.719632 322.182437)scale(0.1 -0.1)">
       <use xlink:href="#DejaVuSans-33"/>
       <use x="63.623047" xlink:href="#DejaVuSans-30"/>
       <use x="127.246094" xlink:href="#DejaVuSans-30"/>
       <use x="190.869141" xlink:href="#DejaVuSans-30"/>
      </g>
     </g>
    </g>
    <g id="xtick_8">
     <g id="line2d_8">
      <g>
       <use style="stroke:#000000;stroke-width:0.8;" x="389.546616" xlink:href="#m75fb71f7c3" y="307.584"/>
      </g>
     </g>
     <g id="text_8">
      <!-- 3500 -->
      <g transform="translate(376.821616 322.182437)scale(0.1 -0.1)">
       <use xlink:href="#DejaVuSans-33"/>
       <use x="63.623047" xlink:href="#DejaVuSans-35"/>
       <use x="127.246094" xlink:href="#DejaVuSans-30"/>
       <use x="190.869141" xlink:href="#DejaVuSans-30"/>
      </g>
     </g>
    </g>
    <g id="text_9">
     <!-- t(s) -->
     <defs>
      <path d="M 18.3125 70.21875 
L 18.3125 54.6875 
L 36.8125 54.6875 
L 36.8125 47.703125 
L 18.3125 47.703125 
L 18.3125 18.015625 
Q 18.3125 11.328125 20.140625 9.421875 
Q 21.96875 7.515625 27.59375 7.515625 
L 36.8125 7.515625 
L 36.8125 0 
L 27.59375 0 
Q 17.1875 0 13.234375 3.875 
Q 9.28125 7.765625 9.28125 18.015625 
L 9.28125 47.703125 
L 2.6875 47.703125 
L 2.6875 54.6875 
L 9.28125 54.6875 
L 9.28125 70.21875 
z
" id="DejaVuSans-74"/>
      <path d="M 31 75.875 
Q 24.46875 64.65625 21.28125 53.65625 
Q 18.109375 42.671875 18.109375 31.390625 
Q 18.109375 20.125 21.3125 9.0625 
Q 24.515625 -2 31 -13.1875 
L 23.1875 -13.1875 
Q 15.875 -1.703125 12.234375 9.375 
Q 8.59375 20.453125 8.59375 31.390625 
Q 8.59375 42.28125 12.203125 53.3125 
Q 15.828125 64.359375 23.1875 75.875 
z
" id="DejaVuSans-28"/>
      <path d="M 44.28125 53.078125 
L 44.28125 44.578125 
Q 40.484375 46.53125 36.375 47.5 
Q 32.28125 48.484375 27.875 48.484375 
Q 21.1875 48.484375 17.84375 46.4375 
Q 14.5 44.390625 14.5 40.28125 
Q 14.5 37.15625 16.890625 35.375 
Q 19.28125 33.59375 26.515625 31.984375 
L 29.59375 31.296875 
Q 39.15625 29.25 43.1875 25.515625 
Q 47.21875 21.78125 47.21875 15.09375 
Q 47.21875 7.46875 41.1875 3.015625 
Q 35.15625 -1.421875 24.609375 -1.421875 
Q 20.21875 -1.421875 15.453125 -0.5625 
Q 10.6875 0.296875 5.421875 2 
L 5.421875 11.28125 
Q 10.40625 8.6875 15.234375 7.390625 
Q 20.0625 6.109375 24.8125 6.109375 
Q 31.15625 6.109375 34.5625 8.28125 
Q 37.984375 10.453125 37.984375 14.40625 
Q 37.984375 18.0625 35.515625 20.015625 
Q 33.0625 21.96875 24.703125 23.78125 
L 21.578125 24.515625 
Q 13.234375 26.265625 9.515625 29.90625 
Q 5.8125 33.546875 5.8125 39.890625 
Q 5.8125 47.609375 11.28125 51.796875 
Q 16.75 56 26.8125 56 
Q 31.78125 56 36.171875 55.265625 
Q 40.578125 54.546875 44.28125 53.078125 
z
" id="DejaVuSans-73"/>
      <path d="M 8.015625 75.875 
L 15.828125 75.875 
Q 23.140625 64.359375 26.78125 53.3125 
Q 30.421875 42.28125 30.421875 31.390625 
Q 30.421875 20.453125 26.78125 9.375 
Q 23.140625 -1.703125 15.828125 -13.1875 
L 8.015625 -13.1875 
Q 14.5 -2 17.703125 9.0625 
Q 20.90625 20.125 20.90625 31.390625 
Q 20.90625 42.671875 17.703125 53.65625 
Q 14.5 64.65625 8.015625 75.875 
z
" id="DejaVuSans-29"/>
     </defs>
     <g transform="translate(227.693594 335.860562)scale(0.1 -0.1)">
      <use xlink:href="#DejaVuSans-74"/>
      <use x="39.208984" xlink:href="#DejaVuSans-28"/>
      <use x="78.222656" xlink:href="#DejaVuSans-73"/>
      <use x="130.322266" xlink:href="#DejaVuSans-29"/>
     </g>
    </g>
   </g>
   <g id="matplotlib.axis_2">
    <g id="ytick_1">
     <g id="line2d_9">
      <defs>
       <path d="M 0 0 
L -3.5 0 
" id="m9b40bac7e2" style="stroke:#000000;stroke-width:0.8;"/>
      </defs>
      <g>
       <use style="stroke:#000000;stroke-width:0.8;" x="57.6" xlink:href="#m9b40bac7e2" y="289.595884"/>
      </g>
     </g>
     <g id="text_10">
      <!-- 0.16 -->
      <defs>
       <path d="M 10.6875 12.40625 
L 21 12.40625 
L 21 0 
L 10.6875 0 
z
" id="DejaVuSans-2e"/>
       <path d="M 33.015625 40.375 
Q 26.375 40.375 22.484375 35.828125 
Q 18.609375 31.296875 18.609375 23.390625 
Q 18.609375 15.53125 22.484375 10.953125 
Q 26.375 6.390625 33.015625 6.390625 
Q 39.65625 6.390625 43.53125 10.953125 
Q 47.40625 15.53125 47.40625 23.390625 
Q 47.40625 31.296875 43.53125 35.828125 
Q 39.65625 40.375 33.015625 40.375 
z
M 52.59375 71.296875 
L 52.59375 62.3125 
Q 48.875 64.0625 45.09375 64.984375 
Q 41.3125 65.921875 37.59375 65.921875 
Q 27.828125 65.921875 22.671875 59.328125 
Q 17.53125 52.734375 16.796875 39.40625 
Q 19.671875 43.65625 24.015625 45.921875 
Q 28.375 48.1875 33.59375 48.1875 
Q 44.578125 48.1875 50.953125 41.515625 
Q 57.328125 34.859375 57.328125 23.390625 
Q 57.328125 12.15625 50.6875 5.359375 
Q 44.046875 -1.421875 33.015625 -1.421875 
Q 20.359375 -1.421875 13.671875 8.265625 
Q 6.984375 17.96875 6.984375 36.375 
Q 6.984375 53.65625 15.1875 63.9375 
Q 23.390625 74.21875 37.203125 74.21875 
Q 40.921875 74.21875 44.703125 73.484375 
Q 48.484375 72.75 52.59375 71.296875 
z
" id="DejaVuSans-36"/>
      </defs>
      <g transform="translate(28.334375 293.395102)scale(0.1 -0.1)">
       <use xlink:href="#DejaVuSans-30"/>
       <use x="63.623047" xlink:href="#DejaVuSans-2e"/>
       <use x="95.410156" xlink:href="#DejaVuSans-31"/>
       <use x="159.033203" xlink:href="#DejaVuSans-36"/>
      </g>
     </g>
    </g>
    <g id="ytick_2">
     <g id="line2d_10">
      <g>
       <use style="stroke:#000000;stroke-width:0.8;" x="57.6" xlink:href="#m9b40bac7e2" y="232.390871"/>
      </g>
     </g>
     <g id="text_11">
      <!-- 0.17 -->
      <defs>
       <path d="M 8.203125 72.90625 
L 55.078125 72.90625 
L 55.078125 68.703125 
L 28.609375 0 
L 18.3125 0 
L 43.21875 64.59375 
L 8.203125 64.59375 
z
" id="DejaVuSans-37"/>
      </defs>
      <g transform="translate(28.334375 236.190089)scale(0.1 -0.1)">
       <use xlink:href="#DejaVuSans-30"/>
       <use x="63.623047" xlink:href="#DejaVuSans-2e"/>
       <use x="95.410156" xlink:href="#DejaVuSans-31"/>
       <use x="159.033203" xlink:href="#DejaVuSans-37"/>
      </g>
     </g>
    </g>
    <g id="ytick_3">
     <g id="line2d_11">
      <g>
       <use style="stroke:#000000;stroke-width:0.8;" x="57.6" xlink:href="#m9b40bac7e2" y="175.185858"/>
      </g>
     </g>
     <g id="text_12">
      <!-- 0.18 -->
      <defs>
       <path d="M 31.78125 34.625 
Q 24.75 34.625 20.71875 30.859375 
Q 16.703125 27.09375 16.703125 20.515625 
Q 16.703125 13.921875 20.71875 10.15625 
Q 24.75 6.390625 31.78125 6.390625 
Q 38.8125 6.390625 42.859375 10.171875 
Q 46.921875 13.96875 46.921875 20.515625 
Q 46.921875 27.09375 42.890625 30.859375 
Q 38.875 34.625 31.78125 34.625 
z
M 21.921875 38.8125 
Q 15.578125 40.375 12.03125 44.71875 
Q 8.5 49.078125 8.5 55.328125 
Q 8.5 64.0625 14.71875 69.140625 
Q 20.953125 74.21875 31.78125 74.21875 
Q 42.671875 74.21875 48.875 69.140625 
Q 55.078125 64.0625 55.078125 55.328125 
Q 55.078125 49.078125 51.53125 44.71875 
Q 48 40.375 41.703125 38.8125 
Q 48.828125 37.15625 52.796875 32.3125 
Q 56.78125 27.484375 56.78125 20.515625 
Q 56.78125 9.90625 50.3125 4.234375 
Q 43.84375 -1.421875 31.78125 -1.421875 
Q 19.734375 -1.421875 13.25 4.234375 
Q 6.78125 9.90625 6.78125 20.515625 
Q 6.78125 27.484375 10.78125 32.3125 
Q 14.796875 37.15625 21.921875 38.8125 
z
M 18.3125 54.390625 
Q 18.3125 48.734375 21.84375 45.5625 
Q 25.390625 42.390625 31.78125 42.390625 
Q 38.140625 42.390625 41.71875 45.5625 
Q 45.3125 48.734375 45.3125 54.390625 
Q 45.3125 60.0625 41.71875 63.234375 
Q 38.140625 66.40625 31.78125 66.40625 
Q 25.390625 66.40625 21.84375 63.234375 
Q 18.3125 60.0625 18.3125 54.390625 
z
" id="DejaVuSans-38"/>
      </defs>
      <g transform="translate(28.334375 178.985076)scale(0.1 -0.1)">
       <use xlink:href="#DejaVuSans-30"/>
       <use x="63.623047" xlink:href="#DejaVuSans-2e"/>
       <use x="95.410156" xlink:href="#DejaVuSans-31"/>
       <use x="159.033203" xlink:href="#DejaVuSans-38"/>
      </g>
     </g>
    </g>
    <g id="ytick_4">
     <g id="line2d_12">
      <g>
       <use style="stroke:#000000;stroke-width:0.8;" x="57.6" xlink:href="#m9b40bac7e2" y="117.980845"/>
      </g>
     </g>
     <g id="text_13">
      <!-- 0.19 -->
      <defs>
       <path d="M 10.984375 1.515625 
L 10.984375 10.5 
Q 14.703125 8.734375 18.5 7.8125 
Q 22.3125 6.890625 25.984375 6.890625 
Q 35.75 6.890625 40.890625 13.453125 
Q 46.046875 20.015625 46.78125 33.40625 
Q 43.953125 29.203125 39.59375 26.953125 
Q 35.25 24.703125 29.984375 24.703125 
Q 19.046875 24.703125 12.671875 31.3125 
Q 6.296875 37.9375 6.296875 49.421875 
Q 6.296875 60.640625 12.9375 67.421875 
Q 19.578125 74.21875 30.609375 74.21875 
Q 43.265625 74.21875 49.921875 64.515625 
Q 56.59375 54.828125 56.59375 36.375 
Q 56.59375 19.140625 48.40625 8.859375 
Q 40.234375 -1.421875 26.421875 -1.421875 
Q 22.703125 -1.421875 18.890625 -0.6875 
Q 15.09375 0.046875 10.984375 1.515625 
z
M 30.609375 32.421875 
Q 37.25 32.421875 41.125 36.953125 
Q 45.015625 41.5 45.015625 49.421875 
Q 45.015625 57.28125 41.125 61.84375 
Q 37.25 66.40625 30.609375 66.40625 
Q 23.96875 66.40625 20.09375 61.84375 
Q 16.21875 57.28125 16.21875 49.421875 
Q 16.21875 41.5 20.09375 36.953125 
Q 23.96875 32.421875 30.609375 32.421875 
z
" id="DejaVuSans-39"/>
      </defs>
      <g transform="translate(28.334375 121.780063)scale(0.1 -0.1)">
       <use xlink:href="#DejaVuSans-30"/>
       <use x="63.623047" xlink:href="#DejaVuSans-2e"/>
       <use x="95.410156" xlink:href="#DejaVuSans-31"/>
       <use x="159.033203" xlink:href="#DejaVuSans-39"/>
      </g>
     </g>
    </g>
    <g id="ytick_5">
     <g id="line2d_13">
      <g>
       <use style="stroke:#000000;stroke-width:0.8;" x="57.6" xlink:href="#m9b40bac7e2" y="60.775832"/>
      </g>
     </g>
     <g id="text_14">
      <!-- 0.20 -->
      <g transform="translate(28.334375 64.57505)scale(0.1 -0.1)">
       <use xlink:href="#DejaVuSans-30"/>
       <use x="63.623047" xlink:href="#DejaVuSans-2e"/>
       <use x="95.410156" xlink:href="#DejaVuSans-32"/>
       <use x="159.033203" xlink:href="#DejaVuSans-30"/>
      </g>
     </g>
    </g>
    <g id="text_15">
     <!-- Pressure (bar) -->
     <defs>
      <path d="M 19.671875 64.796875 
L 19.671875 37.40625 
L 32.078125 37.40625 
Q 38.96875 37.40625 42.71875 40.96875 
Q 46.484375 44.53125 46.484375 51.125 
Q 46.484375 57.671875 42.71875 61.234375 
Q 38.96875 64.796875 32.078125 64.796875 
z
M 9.8125 72.90625 
L 32.078125 72.90625 
Q 44.34375 72.90625 50.609375 67.359375 
Q 56.890625 61.8125 56.890625 51.125 
Q 56.890625 40.328125 50.609375 34.8125 
Q 44.34375 29.296875 32.078125 29.296875 
L 19.671875 29.296875 
L 19.671875 0 
L 9.8125 0 
z
" id="DejaVuSans-50"/>
      <path d="M 41.109375 46.296875 
Q 39.59375 47.171875 37.8125 47.578125 
Q 36.03125 48 33.890625 48 
Q 26.265625 48 22.1875 43.046875 
Q 18.109375 38.09375 18.109375 28.8125 
L 18.109375 0 
L 9.078125 0 
L 9.078125 54.6875 
L 18.109375 54.6875 
L 18.109375 46.1875 
Q 20.953125 51.171875 25.484375 53.578125 
Q 30.03125 56 36.53125 56 
Q 37.453125 56 38.578125 55.875 
Q 39.703125 55.765625 41.0625 55.515625 
z
" id="DejaVuSans-72"/>
      <path d="M 56.203125 29.59375 
L 56.203125 25.203125 
L 14.890625 25.203125 
Q 15.484375 15.921875 20.484375 11.0625 
Q 25.484375 6.203125 34.421875 6.203125 
Q 39.59375 6.203125 44.453125 7.46875 
Q 49.3125 8.734375 54.109375 11.28125 
L 54.109375 2.78125 
Q 49.265625 0.734375 44.1875 -0.34375 
Q 39.109375 -1.421875 33.890625 -1.421875 
Q 20.796875 -1.421875 13.15625 6.1875 
Q 5.515625 13.8125 5.515625 26.8125 
Q 5.515625 40.234375 12.765625 48.109375 
Q 20.015625 56 32.328125 56 
Q 43.359375 56 49.78125 48.890625 
Q 56.203125 41.796875 56.203125 29.59375 
z
M 47.21875 32.234375 
Q 47.125 39.59375 43.09375 43.984375 
Q 39.0625 48.390625 32.421875 48.390625 
Q 24.90625 48.390625 20.390625 44.140625 
Q 15.875 39.890625 15.1875 32.171875 
z
" id="DejaVuSans-65"/>
      <path d="M 8.5 21.578125 
L 8.5 54.6875 
L 17.484375 54.6875 
L 17.484375 21.921875 
Q 17.484375 14.15625 20.5 10.265625 
Q 23.53125 6.390625 29.59375 6.390625 
Q 36.859375 6.390625 41.078125 11.03125 
Q 45.3125 15.671875 45.3125 23.6875 
L 45.3125 54.6875 
L 54.296875 54.6875 
L 54.296875 0 
L 45.3125 0 
L 45.3125 8.40625 
Q 42.046875 3.421875 37.71875 1 
Q 33.40625 -1.421875 27.6875 -1.421875 
Q 18.265625 -1.421875 13.375 4.4375 
Q 8.5 10.296875 8.5 21.578125 
z
M 31.109375 56 
z
" id="DejaVuSans-75"/>
      <path id="DejaVuSans-20"/>
      <path d="M 48.6875 27.296875 
Q 48.6875 37.203125 44.609375 42.84375 
Q 40.53125 48.484375 33.40625 48.484375 
Q 26.265625 48.484375 22.1875 42.84375 
Q 18.109375 37.203125 18.109375 27.296875 
Q 18.109375 17.390625 22.1875 11.75 
Q 26.265625 6.109375 33.40625 6.109375 
Q 40.53125 6.109375 44.609375 11.75 
Q 48.6875 17.390625 48.6875 27.296875 
z
M 18.109375 46.390625 
Q 20.953125 51.265625 25.265625 53.625 
Q 29.59375 56 35.59375 56 
Q 45.5625 56 51.78125 48.09375 
Q 58.015625 40.1875 58.015625 27.296875 
Q 58.015625 14.40625 51.78125 6.484375 
Q 45.5625 -1.421875 35.59375 -1.421875 
Q 29.59375 -1.421875 25.265625 0.953125 
Q 20.953125 3.328125 18.109375 8.203125 
L 18.109375 0 
L 9.078125 0 
L 9.078125 75.984375 
L 18.109375 75.984375 
z
" id="DejaVuSans-62"/>
      <path d="M 34.28125 27.484375 
Q 23.390625 27.484375 19.1875 25 
Q 14.984375 22.515625 14.984375 16.5 
Q 14.984375 11.71875 18.140625 8.90625 
Q 21.296875 6.109375 26.703125 6.109375 
Q 34.1875 6.109375 38.703125 11.40625 
Q 43.21875 16.703125 43.21875 25.484375 
L 43.21875 27.484375 
z
M 52.203125 31.203125 
L 52.203125 0 
L 43.21875 0 
L 43.21875 8.296875 
Q 40.140625 3.328125 35.546875 0.953125 
Q 30.953125 -1.421875 24.3125 -1.421875 
Q 15.921875 -1.421875 10.953125 3.296875 
Q 6 8.015625 6 15.921875 
Q 6 25.140625 12.171875 29.828125 
Q 18.359375 34.515625 30.609375 34.515625 
L 43.21875 34.515625 
L 43.21875 35.40625 
Q 43.21875 41.609375 39.140625 45 
Q 35.0625 48.390625 27.6875 48.390625 
Q 23 48.390625 18.546875 47.265625 
Q 14.109375 46.140625 10.015625 43.890625 
L 10.015625 52.203125 
Q 14.9375 54.109375 19.578125 55.046875 
Q 24.21875 56 28.609375 56 
Q 40.484375 56 46.34375 49.84375 
Q 52.203125 43.703125 52.203125 31.203125 
z
" id="DejaVuSans-61"/>
     </defs>
     <g transform="translate(22.254687 209.9655)rotate(-90)scale(0.1 -0.1)">
      <use xlink:href="#DejaVuSans-50"/>
      <use x="60.287109" xlink:href="#DejaVuSans-72"/>
      <use x="101.369141" xlink:href="#DejaVuSans-65"/>
      <use x="162.892578" xlink:href="#DejaVuSans-73"/>
      <use x="214.992188" xlink:href="#DejaVuSans-73"/>
      <use x="267.091797" xlink:href="#DejaVuSans-75"/>
      <use x="330.470703" xlink:href="#DejaVuSans-72"/>
      <use x="371.552734" xlink:href="#DejaVuSans-65"/>
      <use x="433.076172" xlink:href="#DejaVuSans-20"/>
      <use x="464.863281" xlink:href="#DejaVuSans-28"/>
      <use x="503.876953" xlink:href="#DejaVuSans-62"/>
      <use x="567.353516" xlink:href="#DejaVuSans-61"/>
      <use x="628.632812" xlink:href="#DejaVuSans-72"/>
      <use x="669.746094" xlink:href="#DejaVuSans-29"/>
     </g>
    </g>
   </g>
   <g id="line2d_14">
    <path clip-path="url(#pef69618138)" d="M 73.832727 58.373221 
L 73.922931 58.430426 
L 74.103339 58.201606 
L 74.373951 58.487631 
L 74.464155 58.316016 
L 74.554449 58.373221 
L 74.644743 58.602041 
L 74.825332 58.373221 
L 75.276442 58.087196 
L 75.727462 58.487631 
L 75.817666 58.316016 
L 76.088277 58.659246 
L 76.539297 58.258811 
L 76.809909 58.144401 
L 76.900113 58.201606 
L 77.080521 58.087196 
L 77.802153 58.430426 
L 77.982561 58.430426 
L 78.072765 58.602041 
L 78.433581 58.087196 
L 78.523785 58.201606 
L 78.613989 58.144401 
L 78.704193 57.858376 
L 78.794397 58.201606 
L 78.884601 58.144401 
L 79.33562 58.430426 
L 79.516028 58.258811 
L 79.696436 58.487631 
L 80.057252 58.716451 
L 80.23766 58.373221 
L 80.327864 58.487631 
L 80.508272 58.201606 
L 80.68868 58.144401 
L 80.869088 58.373221 
L 81.049496 58.201606 
L 81.1397 58.430426 
L 81.229904 58.373221 
L 81.410312 58.487631 
L 81.680924 58.430426 
L 81.861331 58.544836 
L 82.222147 57.972786 
L 82.312351 58.144401 
L 82.402555 58.087196 
L 82.853575 58.602041 
L 83.575207 58.201606 
L 83.755615 58.201606 
L 83.845819 58.087196 
L 84.296839 58.544836 
L 84.747858 58.316016 
L 84.838062 58.430426 
L 85.01847 58.258811 
L 85.108674 58.258811 
L 85.46949 57.915581 
L 86.191122 58.716451 
L 86.551938 58.258811 
L 86.732346 58.258811 
L 86.912754 58.258811 
L 87.002958 57.915581 
L 87.183366 58.258811 
L 87.27357 58.373221 
L 87.453977 58.258811 
L 87.634385 58.659246 
L 87.904997 58.258811 
L 88.085405 58.316016 
L 88.265813 58.316016 
L 88.536425 58.258811 
L 88.626629 58.258811 
L 88.807037 58.316016 
L 88.987445 58.201606 
L 89.077649 58.316016 
L 89.258057 58.201606 
L 89.528669 58.716451 
L 89.618873 58.487631 
L 89.709077 58.544836 
L 89.889485 58.487631 
L 90.160097 58.487631 
L 90.340504 58.144401 
L 90.611116 58.316016 
L 90.791524 57.972786 
L 90.971932 58.201606 
L 91.332748 58.487631 
L 91.422952 58.659246 
L 91.964176 58.087196 
L 92.05438 58.316016 
L 92.234788 57.972786 
L 92.324992 58.029991 
L 92.415196 58.201606 
L 92.5054 58.144401 
L 92.95642 58.544836 
L 93.407439 58.087196 
L 93.678051 58.144401 
L 93.768255 58.087196 
L 94.038867 58.487631 
L 94.129071 58.316016 
L 94.309479 58.544836 
L 94.399683 58.373221 
L 94.489887 58.487631 
L 94.580091 58.258811 
L 94.670295 58.316016 
L 94.940907 58.258811 
L 95.121315 58.029991 
L 95.211519 58.258811 
L 95.301723 58.087196 
L 95.482131 58.258811 
L 95.662539 58.316016 
L 95.752743 58.258811 
L 95.933151 58.544836 
L 96.113558 58.258811 
L 96.293966 58.316016 
L 96.654782 58.144401 
L 96.925394 58.373221 
L 97.196006 58.201606 
L 97.28621 58.201606 
L 97.466618 58.144401 
L 97.556822 58.087196 
L 97.647026 58.316016 
L 97.827434 58.144401 
L 98.007842 58.201606 
L 98.458862 58.373221 
L 98.729474 58.373221 
L 98.819677 58.201606 
L 99.090289 58.373221 
L 99.270697 58.144401 
L 99.451105 58.258811 
L 99.631513 58.201606 
L 99.811921 58.201606 
L 100.082533 58.487631 
L 100.262941 58.430426 
L 100.443349 58.430426 
L 100.533553 58.487631 
L 100.713961 58.144401 
L 100.894369 58.258811 
L 101.345389 58.087196 
L 102.247428 58.544836 
L 102.608244 58.087196 
L 102.698448 58.201606 
L 102.788652 58.029991 
L 102.878946 58.087196 
L 103.059354 58.373221 
L 103.329966 58.201606 
L 103.510374 58.487631 
L 103.690872 58.373221 
L 103.781076 58.373221 
L 103.87128 58.487631 
L 103.961484 58.258811 
L 104.141892 58.373221 
L 104.3223 58.087196 
L 104.412504 57.915581 
L 104.592912 58.201606 
L 104.683116 58.029991 
L 104.863524 58.258811 
L 105.585156 58.602041 
L 105.855767 58.144401 
L 106.306787 58.087196 
L 106.487195 58.029991 
L 106.667603 58.201606 
L 106.757807 58.201606 
L 106.938215 58.487631 
L 107.208827 58.716451 
L 107.389235 58.373221 
L 107.569643 58.087196 
L 107.840255 57.915581 
L 108.291275 58.430426 
L 108.381479 58.373221 
L 108.561977 58.659246 
L 108.742385 58.602041 
L 108.832589 58.716451 
L 109.1032 58.144401 
L 109.373812 57.972786 
L 109.464016 57.915581 
L 109.644514 58.201606 
L 109.734718 58.144401 
L 110.00533 58.430426 
L 110.366146 58.544836 
L 110.45635 58.544836 
L 110.817166 57.915581 
L 111.268186 58.144401 
L 111.448594 58.430426 
L 111.538798 58.487631 
L 111.629002 58.716451 
L 111.719206 58.544836 
L 111.80941 58.602041 
L 111.989818 58.430426 
L 112.080022 58.487631 
L 112.170226 58.258811 
L 112.26043 58.373221 
L 112.531041 58.087196 
L 112.621245 57.972786 
L 113.162469 58.544836 
L 113.342877 58.544836 
L 113.433081 58.316016 
L 113.613489 58.487631 
L 113.884101 58.029991 
L 114.425325 58.373221 
L 114.515529 58.258811 
L 114.605733 58.373221 
L 114.786141 58.258811 
L 114.876345 58.258811 
L 114.966549 58.487631 
L 115.056753 58.430426 
L 115.507772 58.258811 
L 115.597976 58.316016 
L 115.68818 58.144401 
L 115.778384 58.201606 
L 115.958792 58.430426 
L 116.048996 58.144401 
L 116.229404 58.430426 
L 116.319608 58.430426 
L 116.500016 58.201606 
L 116.680424 58.258811 
L 116.770628 58.029991 
L 116.860832 58.087196 
L 116.951036 58.144401 
L 117.04124 58.029991 
L 117.221648 58.201606 
L 117.672668 58.487631 
L 118.033484 58.201606 
L 118.123688 58.316016 
L 118.304095 58.144401 
L 118.394299 58.373221 
L 118.484503 58.144401 
L 118.665092 58.316016 
L 118.755386 58.087196 
L 118.84559 58.258811 
L 118.935794 58.201606 
L 119.025998 58.087196 
L 119.116202 58.201606 
L 119.206406 58.087196 
L 119.477198 58.258811 
L 119.567492 58.258811 
L 119.838285 58.544836 
L 120.108896 58.258811 
L 120.1991 58.373221 
L 120.469712 58.087196 
L 120.650301 58.087196 
L 120.740595 58.373221 
L 120.921183 58.087196 
L 121.011477 58.316016 
L 121.191976 58.144401 
L 121.552791 58.316016 
L 121.823493 58.258811 
L 121.913697 58.659246 
L 122.094105 58.430426 
L 122.184309 58.430426 
L 122.454921 58.029991 
L 122.545125 58.087196 
L 122.635329 58.316016 
L 122.725533 58.087196 
L 122.815737 58.144401 
L 122.905941 58.087196 
L 122.996145 58.201606 
L 123.176553 58.144401 
L 123.356961 58.258811 
L 123.537369 58.258811 
L 123.627573 58.544836 
L 123.717777 58.487631 
L 123.898185 58.373221 
L 123.988389 58.373221 
L 124.168797 57.972786 
L 124.349205 58.087196 
L 124.619816 58.029991 
L 124.800224 58.087196 
L 124.890428 58.087196 
L 125.251244 58.544836 
L 125.521856 58.258811 
L 125.702264 57.972786 
L 126.153284 58.201606 
L 126.243488 58.029991 
L 126.333692 58.087196 
L 126.423896 58.087196 
L 126.5141 58.373221 
L 126.604304 58.201606 
L 126.694508 58.430426 
L 126.874916 58.144401 
L 126.96512 58.430426 
L 127.235732 58.087196 
L 127.325936 58.087196 
L 127.41614 57.915581 
L 127.506343 58.029991 
L 127.596547 57.858376 
L 128.047567 58.373221 
L 128.227975 58.373221 
L 128.408383 58.544836 
L 128.678995 58.029991 
L 128.769199 58.201606 
L 128.949607 57.915581 
L 129.039811 58.029991 
L 129.851647 58.602041 
L 129.941851 58.316016 
L 130.032055 58.373221 
L 130.302666 58.087196 
L 130.483074 57.858376 
L 131.024298 58.373221 
L 131.204706 58.487631 
L 131.29491 58.258811 
L 131.475318 58.487631 
L 131.74593 58.258811 
L 131.836134 58.029991 
L 131.926338 58.087196 
L 132.016542 57.972786 
L 132.19695 58.029991 
L 132.557766 58.316016 
L 132.64797 58.544836 
L 132.738174 58.487631 
L 132.918582 58.487631 
L 133.09899 58.258811 
L 133.279397 58.087196 
L 133.369601 57.801171 
L 133.550009 58.087196 
L 133.910825 58.201606 
L 134.001029 58.201606 
L 134.181437 58.373221 
L 134.361845 58.201606 
L 134.542253 58.201606 
L 134.632457 58.201606 
L 134.722661 58.087196 
L 134.903069 58.144401 
L 135.354089 58.087196 
L 135.444293 58.316016 
L 135.534497 58.258811 
L 135.714905 58.258811 
L 135.985516 58.430426 
L 136.165924 58.258811 
L 136.256128 58.373221 
L 136.436536 57.972786 
L 136.616944 58.029991 
L 136.797352 57.801171 
L 136.887556 57.801171 
L 137.067964 58.258811 
L 137.158168 58.258811 
L 137.338576 58.544836 
L 137.518984 58.602041 
L 137.699392 58.087196 
L 137.789596 58.144401 
L 138.150412 57.858376 
L 138.240616 57.858376 
L 138.421024 58.430426 
L 138.511228 58.258811 
L 138.691636 58.602041 
L 139.052451 58.316016 
L 139.774083 57.972786 
L 140.405511 58.602041 
L 140.495715 58.602041 
L 141.127143 57.972786 
L 141.217347 57.972786 
L 141.75857 58.487631 
L 141.938978 58.373221 
L 142.029182 58.373221 
L 142.20959 58.258811 
L 142.299794 58.430426 
L 142.66061 57.915581 
L 142.750814 58.029991 
L 142.931222 58.029991 
L 143.201834 58.316016 
L 143.292038 58.258811 
L 143.382242 58.430426 
L 143.472446 58.373221 
L 143.56265 58.201606 
L 143.743058 58.430426 
L 144.103874 57.972786 
L 144.194078 57.915581 
L 144.374486 58.144401 
L 144.46469 58.087196 
L 144.645097 58.430426 
L 144.735301 58.201606 
L 144.915709 58.258811 
L 145.096117 58.316016 
L 145.186321 58.144401 
L 145.276525 58.201606 
L 145.366729 58.373221 
L 145.637341 58.029991 
L 145.727545 58.144401 
L 145.817749 57.915581 
L 145.907953 58.144401 
L 145.998157 58.087196 
L 146.178565 58.258811 
L 146.268769 58.087196 
L 146.629585 58.373221 
L 147.351216 58.029991 
L 147.44142 58.087196 
L 147.621828 58.029991 
L 147.89244 58.373221 
L 148.072848 58.258811 
L 148.163052 58.258811 
L 148.433664 58.029991 
L 148.523868 58.201606 
L 148.614072 58.144401 
L 148.974888 58.201606 
L 149.155296 58.544836 
L 149.335704 58.201606 
L 149.425908 58.201606 
L 149.516112 57.915581 
L 149.606316 58.029991 
L 149.69652 57.801171 
L 149.967132 58.201606 
L 150.057336 58.201606 
L 150.14754 58.373221 
L 150.237743 58.316016 
L 150.327947 58.258811 
L 150.508355 58.430426 
L 151.049579 57.915581 
L 151.410395 58.258811 
L 151.681007 58.258811 
L 151.951619 58.087196 
L 152.312435 58.201606 
L 152.492843 58.201606 
L 152.583047 58.201606 
L 152.673251 58.316016 
L 152.763455 58.144401 
L 152.853659 58.201606 
L 152.943863 58.316016 
L 153.12427 57.915581 
L 153.304678 58.087196 
L 153.57529 58.316016 
L 153.665494 57.972786 
L 153.936106 58.144401 
L 154.116514 58.144401 
L 154.296922 58.144401 
L 154.387126 58.029991 
L 154.47733 58.144401 
L 154.567534 57.972786 
L 154.657738 58.144401 
L 154.747942 58.029991 
L 154.838146 58.316016 
L 154.92835 58.258811 
L 155.37937 58.201606 
L 155.559778 57.972786 
L 155.83039 57.972786 
L 156.010797 58.201606 
L 156.101001 58.201606 
L 156.191205 58.487631 
L 156.461817 58.201606 
L 156.642225 58.201606 
L 157.003041 57.858376 
L 157.363857 58.373221 
L 157.454061 58.258811 
L 157.634469 58.201606 
L 157.995285 58.087196 
L 158.536509 58.029991 
L 158.626713 58.258811 
L 158.897324 58.087196 
L 158.987528 58.087196 
L 159.25814 58.316016 
L 159.348344 58.087196 
L 159.438548 58.144401 
L 159.528752 57.972786 
L 159.70916 58.144401 
L 159.889568 58.087196 
L 159.979772 58.087196 
L 160.16018 57.915581 
L 160.6112 58.373221 
L 160.701404 58.316016 
L 160.791608 58.487631 
L 160.972016 57.972786 
L 161.242628 58.201606 
L 161.423036 58.144401 
L 161.51324 58.316016 
L 161.693647 58.029991 
L 161.964259 57.972786 
L 162.144667 58.201606 
L 162.595687 58.144401 
L 162.866299 57.858376 
L 162.956503 58.029991 
L 163.136911 58.144401 
L 163.407523 58.087196 
L 163.497727 58.316016 
L 163.678135 58.144401 
L 163.768339 58.087196 
L 163.858543 58.316016 
L 164.038951 58.029991 
L 164.129155 58.144401 
L 164.219359 57.972786 
L 164.48997 58.258811 
L 165.121398 57.972786 
L 165.482214 58.258811 
L 165.662622 58.201606 
L 165.933234 57.915581 
L 166.023438 58.201606 
L 166.113642 58.029991 
L 166.384254 58.201606 
L 166.564662 57.858376 
L 167.015682 58.487631 
L 167.105886 58.430426 
L 167.376497 57.743966 
L 167.647109 58.316016 
L 167.737313 58.029991 
L 167.827517 58.087196 
L 167.917721 57.972786 
L 168.098129 58.029991 
L 168.368741 58.087196 
L 168.458945 58.201606 
L 168.639353 58.029991 
L 168.729557 58.087196 
L 168.909965 57.972786 
L 169.000169 58.258811 
L 169.090373 58.201606 
L 169.180577 57.972786 
L 169.270781 58.144401 
L 169.451189 57.858376 
L 169.541393 57.972786 
L 169.631597 57.915581 
L 170.082617 58.373221 
L 170.17282 58.373221 
L 170.443432 57.972786 
L 170.804248 58.087196 
L 171.255268 58.087196 
L 171.435676 58.201606 
L 171.796492 57.915581 
L 171.886696 58.087196 
L 171.9769 57.972786 
L 172.067104 58.258811 
L 172.157308 58.201606 
L 172.337716 58.201606 
L 172.518124 58.087196 
L 172.608328 58.087196 
L 172.698532 57.858376 
L 172.788736 57.915581 
L 172.969143 58.201606 
L 173.329959 57.915581 
L 173.600571 58.087196 
L 173.780979 58.087196 
L 173.871183 57.915581 
L 173.961387 57.972786 
L 174.412407 58.144401 
L 174.592905 58.029991 
L 174.683109 58.029991 
L 174.863517 58.258811 
L 175.043925 57.972786 
L 175.134219 57.972786 
L 175.314627 58.087196 
L 175.495035 58.029991 
L 175.585239 57.972786 
L 175.765647 58.373221 
L 175.855851 58.316016 
L 175.946055 58.373221 
L 176.126463 57.972786 
L 176.397075 57.915581 
L 176.757891 58.373221 
L 177.20891 57.972786 
L 177.299114 57.972786 
L 177.389318 58.087196 
L 177.569726 58.029991 
L 177.750134 58.316016 
L 178.11095 57.972786 
L 178.56197 58.201606 
L 178.832582 58.029991 
L 179.103194 58.201606 
L 179.373806 57.972786 
L 179.554214 58.258811 
L 179.734622 58.029991 
L 179.824825 57.972786 
L 180.005233 58.144401 
L 180.275845 58.087196 
L 180.366049 58.087196 
L 180.456253 58.258811 
L 180.817069 57.915581 
L 181.087681 58.258811 
L 181.177885 57.915581 
L 181.268089 57.972786 
L 181.358293 58.144401 
L 181.448497 58.087196 
L 181.628905 58.087196 
L 181.719109 57.915581 
L 181.899517 58.258811 
L 182.079925 57.972786 
L 182.260333 58.087196 
L 182.530945 58.144401 
L 182.621149 57.972786 
L 182.801556 58.087196 
L 183.162372 58.087196 
L 183.252576 57.915581 
L 183.34278 58.087196 
L 183.432984 57.972786 
L 183.523188 58.201606 
L 183.703596 57.972786 
L 183.884004 58.029991 
L 183.974208 57.972786 
L 184.154616 58.144401 
L 184.425228 57.972786 
L 184.69584 58.258811 
L 184.876248 57.801171 
L 184.966452 57.858376 
L 185.237064 58.258811 
L 185.417472 58.029991 
L 185.507675 57.858376 
L 185.597879 57.915581 
L 185.688083 57.801171 
L 185.778287 58.201606 
L 185.868491 58.144401 
L 186.048899 58.087196 
L 186.319511 57.972786 
L 186.499919 58.144401 
L 186.680327 57.972786 
L 186.770531 58.144401 
L 186.860735 58.087196 
L 186.950939 58.029991 
L 187.131347 58.087196 
L 187.311755 57.858376 
L 187.672571 58.258811 
L 187.943183 57.915581 
L 188.394293 58.201606 
L 188.664905 57.686761 
L 188.845313 58.258811 
L 189.115924 58.087196 
L 189.296332 57.858376 
L 189.47674 58.029991 
L 189.657148 58.316016 
L 189.747352 58.316016 
L 189.92776 57.972786 
L 190.017964 58.029991 
L 190.37878 57.972786 
L 190.559188 58.316016 
L 190.8298 57.858376 
L 191.190616 58.144401 
L 191.28082 57.972786 
L 191.371024 58.029991 
L 191.461228 58.144401 
L 191.641636 57.972786 
L 191.822043 57.972786 
L 192.002451 58.258811 
L 192.182859 57.915581 
L 192.363267 58.087196 
L 192.543675 58.029991 
L 192.724083 58.029991 
L 192.904491 57.972786 
L 193.084899 58.201606 
L 193.355511 57.915581 
L 193.445715 58.087196 
L 193.535919 58.029991 
L 193.806531 57.972786 
L 194.077143 58.201606 
L 194.347755 57.686761 
L 194.618366 58.201606 
L 194.70857 58.087196 
L 194.888978 57.972786 
L 194.979182 57.972786 
L 195.069386 58.087196 
L 195.249794 57.972786 
L 195.430202 58.029991 
L 195.520406 58.201606 
L 195.61061 57.972786 
L 195.791018 58.087196 
L 195.881222 58.029991 
L 195.971426 57.801171 
L 196.06163 57.972786 
L 196.151834 57.915581 
L 196.242038 57.915581 
L 196.602854 58.201606 
L 196.783262 57.972786 
L 196.96367 57.972786 
L 197.053874 57.972786 
L 197.144078 58.087196 
L 197.324486 58.029991 
L 197.41469 58.087196 
L 197.595097 58.029991 
L 197.955913 57.972786 
L 198.046117 57.915581 
L 198.136321 58.087196 
L 198.226525 57.972786 
L 198.406933 58.144401 
L 198.497137 57.858376 
L 198.587341 58.087196 
L 198.857953 57.801171 
L 198.948157 57.972786 
L 199.038361 57.915581 
L 199.128565 57.858376 
L 199.308973 58.144401 
L 199.579585 57.972786 
L 199.940401 57.858376 
L 200.39142 58.258811 
L 200.571828 57.686761 
L 200.84244 58.144401 
L 201.022848 57.915581 
L 201.203256 58.201606 
L 201.473868 57.858376 
L 201.654276 57.972786 
L 201.74448 57.915581 
L 202.015092 58.144401 
L 202.466112 57.972786 
L 202.556316 57.972786 
L 202.736724 58.201606 
L 203.007336 57.915581 
L 203.09754 58.144401 
L 203.187743 57.858376 
L 203.277947 57.915581 
L 203.728967 58.087196 
L 203.819171 57.858376 
L 203.999579 58.144401 
L 204.360575 57.858376 
L 204.541164 57.858376 
L 204.812046 58.029991 
L 205.172952 57.915581 
L 205.263156 58.144401 
L 205.35336 58.087196 
L 205.624153 58.029991 
L 205.714447 57.858376 
L 205.895035 58.029991 
L 205.985329 58.029991 
L 206.165827 57.743966 
L 206.346235 57.801171 
L 206.526643 58.087196 
L 206.977663 57.801171 
L 207.067867 57.972786 
L 207.158071 57.915581 
L 207.338479 57.972786 
L 207.609091 57.915581 
L 207.699295 57.972786 
L 207.789499 57.801171 
L 207.879703 58.029991 
L 207.969907 57.972786 
L 208.240519 57.915581 
L 208.420927 57.801171 
L 208.601335 58.087196 
L 208.871947 57.858376 
L 209.052354 58.029991 
L 209.142558 57.972786 
L 209.232762 57.743966 
L 209.503374 58.029991 
L 209.593578 58.087196 
L 209.773986 57.915581 
L 209.954394 58.029991 
L 210.044598 57.801171 
L 210.31521 57.972786 
L 210.495618 57.743966 
L 210.76623 58.029991 
L 210.856434 58.144401 
L 211.036842 57.858376 
L 211.127046 57.915581 
L 211.21725 57.801171 
L 211.487862 58.029991 
L 211.578066 58.029991 
L 211.66827 57.801171 
L 211.758474 57.972786 
L 211.938881 57.743966 
L 212.119289 57.801171 
L 212.299697 57.801171 
L 212.480105 57.801171 
L 212.570309 57.801171 
L 212.840921 58.087196 
L 213.201737 57.629556 
L 213.833165 58.029991 
L 214.193981 57.743966 
L 214.554797 57.858376 
L 214.735204 57.801171 
L 214.825408 58.087196 
L 215.005907 57.858376 
L 215.186405 57.858376 
L 215.276609 57.743966 
L 215.366813 57.858376 
L 215.547221 57.629556 
L 215.637425 57.858376 
L 215.727629 57.801171 
L 216.088444 57.743966 
L 216.268852 57.686761 
L 216.359056 57.801171 
L 216.539464 57.572351 
L 216.629668 57.801171 
L 216.719872 57.686761 
L 216.810076 57.858376 
L 217.080688 57.515146 
L 217.170892 57.515146 
L 217.441504 57.686761 
L 217.621912 57.629556 
L 217.892524 57.515146 
L 217.982728 57.629556 
L 218.163136 57.457941 
L 218.614156 57.457941 
L 218.704359 57.229121 
L 218.794563 57.343531 
L 219.335787 56.485456 
L 219.606399 55.798996 
L 220.057419 53.568 
L 220.147623 53.854025 
L 220.418235 54.25446 
L 220.688847 55.226945 
L 220.869255 54.998125 
L 221.320275 56.199431 
L 221.410479 56.142226 
L 221.68109 56.542661 
L 221.861498 57.000301 
L 221.951702 57.057506 
L 222.13211 57.572351 
L 222.222314 57.515146 
L 222.673334 58.373221 
L 222.853742 58.602041 
L 225.199045 62.892417 
L 225.289249 62.892417 
L 225.469657 63.350057 
L 225.559861 63.292852 
L 225.920677 64.265337 
L 226.010881 64.265337 
L 226.371697 65.237823 
L 226.461901 65.180618 
L 227.003125 66.038693 
L 227.544348 67.125588 
L 227.634552 67.125588 
L 228.175776 67.869253 
L 228.26598 68.269688 
L 228.356184 68.212483 
L 228.717 69.013354 
L 229.077816 69.642609 
L 229.348428 70.157454 
L 230.160263 71.530374 
L 230.250467 71.587579 
L 230.521079 72.274039 
L 230.701487 72.388449 
L 230.881895 72.846089 
L 232.77681 76.221185 
L 232.957398 76.450005 
L 233.318395 77.07926 
L 233.408599 77.42249 
L 233.498803 77.30808 
L 233.769595 77.880131 
L 235.122925 80.339946 
L 235.213129 80.339946 
L 235.844557 81.712866 
L 236.024965 81.827276 
L 236.475984 82.856967 
L 236.566188 82.799762 
L 236.8368 83.314607 
L 237.558432 84.344297 
L 237.73884 84.744732 
L 239.452715 87.776598 
L 240.084143 88.577468 
L 240.264551 89.149518 
L 240.354755 89.149518 
L 240.535163 89.435543 
L 240.625367 89.893183 
L 240.715571 89.778773 
L 241.256795 90.465233 
L 241.527407 91.151694 
L 241.617611 91.094489 
L 241.798019 91.723744 
L 241.888223 91.723744 
L 243.331486 94.355174 
L 243.511894 94.355174 
L 243.782506 94.870019 
L 243.962914 95.156044 
L 244.053118 95.098839 
L 244.684546 96.414555 
L 245.766993 98.245115 
L 245.947401 98.473935 
L 246.308217 99.10319 
L 247.029849 100.361701 
L 247.120053 100.304496 
L 247.300461 100.819341 
L 247.390665 101.105366 
L 247.480869 100.990956 
L 247.571073 101.276981 
L 247.661277 101.219776 
L 248.022092 101.963441 
L 248.2025 102.135056 
L 249.284948 104.080026 
L 249.375152 104.080026 
L 250.00658 105.052512 
L 250.4576 105.796177 
L 250.547804 105.796177 
L 250.818415 106.253817 
L 251.269435 106.997482 
L 251.810659 108.084377 
L 252.081271 108.599223 
L 252.171475 108.484812 
L 252.802903 109.457298 
L 252.893107 109.571708 
L 252.983311 109.914938 
L 253.073515 109.800528 
L 253.253923 110.258168 
L 253.344127 110.315373 
L 253.88535 111.402268 
L 254.246166 111.974318 
L 254.33637 111.974318 
L 254.426574 112.374753 
L 254.516778 112.260343 
L 254.78739 112.775188 
L 255.058002 113.232829 
L 255.599226 113.976494 
L 255.68943 114.319724 
L 255.779634 114.262519 
L 256.952285 116.379104 
L 257.042489 116.379104 
L 257.403305 116.951154 
L 257.493509 116.951154 
L 257.944529 117.980845 
L 258.034733 117.69482 
L 258.305345 118.438485 
L 259.207384 119.7542 
L 259.477996 120.154635 
L 260.109424 121.12712 
L 260.380036 121.58476 
L 260.560444 121.870786 
L 260.650648 121.927991 
L 261.011464 122.614451 
L 261.101668 122.614451 
L 262.003708 124.216191 
L 262.093911 124.101781 
L 262.274319 124.559421 
L 262.995951 125.703521 
L 263.897991 126.962032 
L 263.988195 127.305262 
L 264.078399 127.248057 
L 264.258807 127.534082 
L 264.619623 128.106132 
L 264.890234 128.620977 
L 264.980438 128.563772 
L 265.25105 129.078617 
L 265.341254 129.135822 
L 265.521662 129.536257 
L 265.972682 130.165512 
L 266.062886 129.993897 
L 266.423702 130.851973 
L 267.145334 131.881663 
L 267.415946 132.282098 
L 267.596354 132.568123 
L 267.686558 132.854148 
L 267.866965 132.796943 
L 268.137577 133.483403 
L 268.227781 133.426198 
L 268.678801 134.112658 
L 268.769005 134.169863 
L 268.949413 134.513093 
L 269.129821 134.799118 
L 269.400433 135.485579 
L 269.761249 135.771604 
L 270.031861 136.286449 
L 270.122065 136.172039 
L 271.204602 138.231419 
L 271.294806 138.117009 
L 271.38501 138.460239 
L 271.475214 138.403034 
L 271.745826 138.746264 
L 272.016528 138.975084 
L 272.196936 139.661545 
L 272.28714 139.547135 
L 273.008772 140.74844 
L 273.18918 140.97726 
L 273.279384 141.20608 
L 273.369588 141.148875 
L 274.001016 142.12136 
L 274.181424 142.407385 
L 274.271628 142.46459 
L 274.632443 143.15105 
L 274.722647 143.15105 
L 274.903055 143.551485 
L 275.263871 144.237946 
L 275.354075 144.066331 
L 275.714891 144.809996 
L 276.075707 145.153226 
L 276.346319 145.725276 
L 276.436523 145.725276 
L 276.707135 146.125711 
L 276.887543 146.468941 
L 277.609174 147.555836 
L 277.789582 147.899066 
L 277.879786 147.899066 
L 278.240602 148.528322 
L 278.691622 149.157577 
L 278.781826 149.214782 
L 278.87203 149.500807 
L 278.962234 149.329192 
L 279.142642 149.672422 
L 279.232846 149.729627 
L 279.503458 150.358882 
L 279.593662 150.244472 
L 279.954478 150.873727 
L 280.495701 151.674597 
L 281.217333 152.761493 
L 281.578149 153.276338 
L 281.668353 153.333543 
L 281.758557 153.619568 
L 281.848761 153.505158 
L 282.299781 154.363233 
L 282.660597 154.592053 
L 283.021413 155.392923 
L 283.111617 155.335718 
L 283.292024 155.678948 
L 283.652931 156.136588 
L 283.923542 156.765843 
L 284.464766 157.223484 
L 284.645174 157.509509 
L 284.735378 157.509509 
L 284.825582 157.681124 
L 285.00599 158.138764 
L 285.186398 158.367584 
L 286.449254 160.140939 
L 286.719865 160.598579 
L 288.343537 162.829575 
L 289.065169 163.973675 
L 289.155373 164.088085 
L 289.245577 163.973675 
L 289.696596 164.888955 
L 289.877004 165.003365 
L 290.057502 165.51821 
L 290.23791 165.51821 
L 290.598726 166.204671 
L 290.779134 166.204671 
L 291.13995 166.833926 
L 291.320358 166.948336 
L 291.500766 167.405976 
L 294.026477 170.666662 
L 294.206885 171.067097 
L 294.477497 171.353122 
L 294.657905 171.753557 
L 295.018721 171.982377 
L 295.379537 172.897657 
L 295.650148 172.954862 
L 296.010964 173.698527 
L 296.552188 174.098962 
L 296.732596 174.499397 
L 296.8228 174.556603 
L 297.093412 175.014243 
L 297.183616 174.842628 
L 297.454228 175.471883 
L 297.634636 175.929523 
L 297.72484 175.929523 
L 297.815044 175.757908 
L 298.085656 176.387163 
L 298.356268 176.902008 
L 298.807287 177.416853 
L 298.897491 177.302443 
L 299.077899 177.588468 
L 299.258307 177.988903 
L 299.438715 178.103313 
L 299.709327 178.560953 
L 299.889735 178.789773 
L 299.979939 179.075799 
L 300.070143 179.018594 
L 300.701571 179.876669 
L 300.881979 180.219899 
L 301.062387 180.162694 
L 301.332998 180.677539 
L 301.784018 181.363999 
L 301.874222 181.363999 
L 302.325242 182.050459 
L 302.50565 182.279279 
L 303.227282 183.308969 
L 303.497894 183.709405 
L 304.039118 184.167045 
L 304.219525 184.510275 
L 304.399933 184.68189 
L 304.490137 185.13953 
L 304.580341 184.967915 
L 305.482381 186.16922 
L 305.572585 186.569655 
L 305.662789 186.51245 
L 306.204013 187.370525 
L 306.294217 187.42773 
L 306.384421 187.65655 
L 306.474625 187.599345 
L 310.714211 193.148232 
L 310.984823 193.548667 
L 311.075027 193.548667 
L 312.428087 195.264817 
L 312.608495 195.665252 
L 312.879106 196.180097 
L 313.059514 196.122892 
L 313.149718 196.466122 
L 313.330126 196.351712 
L 313.600738 196.980968 
L 313.690942 196.980968 
L 314.502778 198.125068 
L 314.77339 198.639913 
L 315.044002 198.925938 
L 315.22441 199.040348 
L 315.314614 198.983143 
L 315.855837 199.784013 
L 316.036245 200.241653 
L 316.126449 200.127243 
L 317.389305 201.843394 
L 317.569713 202.243829 
L 317.659917 202.129419 
L 318.201141 202.987494 
L 318.291345 202.987494 
L 319.734608 204.760849 
L 319.915016 205.218489 
L 320.00522 205.218489 
L 321.358279 206.763025 
L 321.448574 206.82023 
L 321.719366 207.678305 
L 321.80957 207.39228 
L 322.531743 208.53638 
L 323.704845 209.909301 
L 323.795049 209.852096 
L 324.246159 210.538556 
L 324.516771 210.767376 
L 324.877587 211.453836 
L 325.057995 211.396631 
L 325.238403 211.911476 
L 325.328607 211.739861 
L 325.869831 212.597936 
L 325.960035 212.540731 
L 326.411055 213.227191 
L 326.501259 213.570421 
L 326.591463 213.513216 
L 326.771871 213.684831 
L 326.862075 213.627626 
L 327.313185 214.542907 
L 327.403389 214.314087 
L 327.674 214.886137 
L 327.764204 214.886137 
L 328.846652 216.144647 
L 328.936856 216.144647 
L 329.117264 216.659492 
L 329.207468 216.487877 
L 329.568284 217.117132 
L 329.658488 217.002722 
L 330.199712 217.860797 
L 330.289916 217.918002 
L 330.560527 218.547258 
L 331.191955 219.062103 
L 331.642975 219.691358 
L 331.913587 219.977383 
L 332.093995 220.263408 
L 332.545015 220.663843 
L 333.898074 222.265583 
L 333.988278 222.265583 
L 334.168686 222.723223 
L 334.439298 223.180864 
L 334.529502 223.009249 
L 334.800114 223.638504 
L 334.890318 223.524094 
L 335.070726 223.867324 
L 335.16093 223.752914 
L 335.251134 223.867324 
L 335.431542 224.324964 
L 335.521746 224.267759 
L 336.243377 225.411859 
L 336.333581 225.411859 
L 336.513989 225.755089 
L 336.604193 225.755089 
L 336.694397 225.926704 
L 336.784601 225.869499 
L 336.965009 225.983909 
L 337.055213 226.384344 
L 337.145417 226.327139 
L 339.130085 228.72975 
L 339.220289 228.672545 
L 339.671309 229.53062 
L 339.941921 229.816645 
L 340.032125 229.87385 
L 340.302736 230.4459 
L 340.483144 230.274285 
L 340.663552 230.78913 
L 340.753756 230.617515 
L 341.114662 231.189565 
L 341.295161 231.59 
L 341.385455 231.47559 
L 341.566043 231.761616 
L 341.656337 231.70441 
L 341.92722 232.219256 
L 343.912338 234.621866 
L 344.002542 234.564661 
L 344.273154 235.079506 
L 344.453562 235.079506 
L 344.543766 235.079506 
L 344.814378 235.708761 
L 345.265398 236.223607 
L 345.355602 236.109197 
L 345.53601 236.395222 
L 345.626214 236.395222 
L 345.896826 236.910067 
L 345.98703 236.852862 
L 346.077234 237.253297 
L 346.167438 237.081682 
L 346.257642 237.196092 
L 346.43805 237.596527 
L 346.528254 237.596527 
L 346.798865 237.996962 
L 346.889069 237.996962 
L 347.700905 239.083857 
L 347.791109 239.369882 
L 347.881313 239.312677 
L 347.971517 239.369882 
L 348.061721 239.655907 
L 348.151925 239.484292 
L 349.234373 240.742803 
L 349.324577 240.685598 
L 349.504984 241.372058 
L 349.595188 241.314853 
L 349.685392 241.257648 
L 349.956004 241.772493 
L 351.579676 243.774668 
L 351.760084 243.774668 
L 353.654457 246.120074 
L 353.744661 246.062869 
L 354.105477 246.577714 
L 354.195681 246.577714 
L 354.376089 246.920944 
L 355.638945 248.408274 
L 355.729149 248.408274 
L 355.999851 248.923119 
L 356.090055 248.865914 
L 357.35291 250.467655 
L 357.443114 250.353245 
L 357.80393 250.810885 
L 357.894134 250.86809 
L 358.074542 251.32573 
L 358.164746 251.32573 
L 358.886378 252.1266 
L 358.976582 252.1266 
L 359.066786 252.24101 
L 359.156989 252.58424 
L 359.247193 252.527035 
L 359.337397 252.81306 
L 359.427601 252.69865 
L 359.698213 253.15629 
L 359.788417 253.15629 
L 360.329641 254.128776 
L 360.510049 254.014366 
L 361.051273 254.529211 
L 361.141477 254.586416 
L 361.321885 254.986851 
L 361.412089 254.986851 
L 361.682701 255.387286 
L 362.13372 256.016541 
L 362.223924 255.959336 
L 362.494536 256.302566 
L 362.674944 256.359771 
L 363.03576 256.645796 
L 363.306372 257.160641 
L 363.48678 257.046231 
L 363.667188 257.389461 
L 364.569228 258.533562 
L 364.659432 258.419152 
L 365.110451 259.162817 
L 365.200655 259.162817 
L 365.471267 259.563252 
L 365.651675 259.506047 
L 365.832083 259.906482 
L 366.192899 260.421327 
L 366.463511 260.478532 
L 366.553715 260.821762 
L 366.643919 260.707352 
L 367.275347 261.679837 
L 367.365551 261.679837 
L 367.636163 262.080272 
L 368.087182 262.423502 
L 368.628406 263.281578 
L 369.259834 263.796423 
L 369.530446 264.196858 
L 369.710854 264.196858 
L 369.981466 264.597293 
L 370.07167 264.540088 
L 370.522689 265.283753 
L 370.612893 265.169343 
L 370.883505 265.626983 
L 370.973709 265.512573 
L 371.244321 266.027418 
L 371.424729 266.370648 
L 371.605137 266.313443 
L 371.785545 266.713878 
L 371.875749 266.828288 
L 371.965953 266.656673 
L 372.056157 267.114314 
L 372.236565 266.942699 
L 372.867993 267.857979 
L 372.958197 268.086799 
L 373.048401 267.972389 
L 374.040644 269.059284 
L 374.130848 269.002079 
L 374.311256 269.345309 
L 375.664316 271.004254 
L 375.75452 270.947049 
L 376.295743 271.74792 
L 376.746763 272.148355 
L 376.927171 272.43438 
L 377.287987 272.89202 
L 377.378191 272.89202 
L 378.009619 273.521275 
L 378.190027 273.57848 
L 378.280231 273.92171 
L 378.370435 273.864505 
L 378.641047 274.436555 
L 378.821455 274.436555 
L 378.911659 274.436555 
L 379.092066 274.83699 
L 379.18227 274.779785 
L 379.362678 275.237425 
L 379.723494 275.52345 
L 379.813698 275.52345 
L 379.903902 275.809476 
L 379.994106 275.695066 
L 380.174514 275.981091 
L 380.264718 276.038296 
L 380.53533 276.438731 
L 380.896146 276.781961 
L 381.347166 277.239601 
L 381.43737 277.182396 
L 382.790429 278.784136 
L 382.970837 278.841341 
L 383.061041 278.898546 
L 383.151245 279.127366 
L 383.241539 279.070161 
L 384.053736 279.985441 
L 384.14403 279.985441 
L 384.324618 280.385877 
L 384.685705 280.786312 
L 384.775909 280.729107 
L 384.956317 280.900722 
L 385.046521 280.900722 
L 385.407607 281.758797 
L 385.497811 281.701592 
L 385.678309 281.930412 
L 385.768513 281.930412 
L 385.948921 282.216437 
L 386.039125 282.159232 
L 386.399941 282.788487 
L 386.580349 282.788487 
L 386.760757 283.246127 
L 386.850961 283.188922 
L 386.941165 283.074512 
L 387.121573 283.417742 
L 387.211777 283.417742 
L 387.843204 284.390227 
L 388.023612 284.733458 
L 388.113816 284.447432 
L 388.294224 284.962278 
L 388.384428 284.733458 
L 388.65504 285.133893 
L 388.925652 285.362713 
L 389.015856 285.362713 
L 390.0081 286.449608 
L 390.098304 286.449608 
L 390.45912 286.964453 
L 390.639527 287.136068 
L 390.819935 287.422093 
L 391.451363 287.936938 
L 391.902383 288.337373 
L 391.992587 288.337373 
L 392.172995 288.737808 
L 392.263199 288.623398 
L 392.533811 289.138244 
L 392.804423 289.309859 
L 392.894627 289.653089 
L 392.984831 289.595884 
L 393.165239 289.881909 
L 393.255443 289.710294 
L 393.435851 289.939114 
L 393.526054 289.939114 
L 395.149726 291.826879 
L 395.330134 291.941289 
L 395.510542 292.398929 
L 395.600746 292.284519 
L 397.314621 294.286695 
L 397.404825 294.3439 
L 397.585233 294.629925 
L 397.765641 294.68713 
L 397.855845 294.91595 
L 397.946049 294.858745 
L 398.216661 295.201975 
L 398.487273 295.488 
L 398.487273 295.488 
" style="fill:none;stroke:#1f77b4;stroke-linecap:square;stroke-width:1.5;"/>
   </g>
   <g id="patch_3">
    <path d="M 57.6 307.584 
L 57.6 41.472 
" style="fill:none;stroke:#000000;stroke-linecap:square;stroke-linejoin:miter;stroke-width:0.8;"/>
   </g>
   <g id="patch_4">
    <path d="M 414.72 307.584 
L 414.72 41.472 
" style="fill:none;stroke:#000000;stroke-linecap:square;stroke-linejoin:miter;stroke-width:0.8;"/>
   </g>
   <g id="patch_5">
    <path d="M 57.6 307.584 
L 414.72 307.584 
" style="fill:none;stroke:#000000;stroke-linecap:square;stroke-linejoin:miter;stroke-width:0.8;"/>
   </g>
   <g id="patch_6">
    <path d="M 57.6 41.472 
L 414.72 41.472 
" style="fill:none;stroke:#000000;stroke-linecap:square;stroke-linejoin:miter;stroke-width:0.8;"/>
   </g>
   <g id="text_16">
    <!-- Pressure in main chamber -->
    <defs>
     <path d="M 9.421875 54.6875 
L 18.40625 54.6875 
L 18.40625 0 
L 9.421875 0 
z
M 9.421875 75.984375 
L 18.40625 75.984375 
L 18.40625 64.59375 
L 9.421875 64.59375 
z
" id="DejaVuSans-69"/>
     <path d="M 54.890625 33.015625 
L 54.890625 0 
L 45.90625 0 
L 45.90625 32.71875 
Q 45.90625 40.484375 42.875 44.328125 
Q 39.84375 48.1875 33.796875 48.1875 
Q 26.515625 48.1875 22.3125 43.546875 
Q 18.109375 38.921875 18.109375 30.90625 
L 18.109375 0 
L 9.078125 0 
L 9.078125 54.6875 
L 18.109375 54.6875 
L 18.109375 46.1875 
Q 21.34375 51.125 25.703125 53.5625 
Q 30.078125 56 35.796875 56 
Q 45.21875 56 50.046875 50.171875 
Q 54.890625 44.34375 54.890625 33.015625 
z
" id="DejaVuSans-6e"/>
     <path d="M 52 44.1875 
Q 55.375 50.25 60.0625 53.125 
Q 64.75 56 71.09375 56 
Q 79.640625 56 84.28125 50.015625 
Q 88.921875 44.046875 88.921875 33.015625 
L 88.921875 0 
L 79.890625 0 
L 79.890625 32.71875 
Q 79.890625 40.578125 77.09375 44.375 
Q 74.3125 48.1875 68.609375 48.1875 
Q 61.625 48.1875 57.5625 43.546875 
Q 53.515625 38.921875 53.515625 30.90625 
L 53.515625 0 
L 44.484375 0 
L 44.484375 32.71875 
Q 44.484375 40.625 41.703125 44.40625 
Q 38.921875 48.1875 33.109375 48.1875 
Q 26.21875 48.1875 22.15625 43.53125 
Q 18.109375 38.875 18.109375 30.90625 
L 18.109375 0 
L 9.078125 0 
L 9.078125 54.6875 
L 18.109375 54.6875 
L 18.109375 46.1875 
Q 21.1875 51.21875 25.484375 53.609375 
Q 29.78125 56 35.6875 56 
Q 41.65625 56 45.828125 52.96875 
Q 50 49.953125 52 44.1875 
z
" id="DejaVuSans-6d"/>
     <path d="M 48.78125 52.59375 
L 48.78125 44.1875 
Q 44.96875 46.296875 41.140625 47.34375 
Q 37.3125 48.390625 33.40625 48.390625 
Q 24.65625 48.390625 19.8125 42.84375 
Q 14.984375 37.3125 14.984375 27.296875 
Q 14.984375 17.28125 19.8125 11.734375 
Q 24.65625 6.203125 33.40625 6.203125 
Q 37.3125 6.203125 41.140625 7.25 
Q 44.96875 8.296875 48.78125 10.40625 
L 48.78125 2.09375 
Q 45.015625 0.34375 40.984375 -0.53125 
Q 36.96875 -1.421875 32.421875 -1.421875 
Q 20.0625 -1.421875 12.78125 6.34375 
Q 5.515625 14.109375 5.515625 27.296875 
Q 5.515625 40.671875 12.859375 48.328125 
Q 20.21875 56 33.015625 56 
Q 37.15625 56 41.109375 55.140625 
Q 45.0625 54.296875 48.78125 52.59375 
z
" id="DejaVuSans-63"/>
     <path d="M 54.890625 33.015625 
L 54.890625 0 
L 45.90625 0 
L 45.90625 32.71875 
Q 45.90625 40.484375 42.875 44.328125 
Q 39.84375 48.1875 33.796875 48.1875 
Q 26.515625 48.1875 22.3125 43.546875 
Q 18.109375 38.921875 18.109375 30.90625 
L 18.109375 0 
L 9.078125 0 
L 9.078125 75.984375 
L 18.109375 75.984375 
L 18.109375 46.1875 
Q 21.34375 51.125 25.703125 53.5625 
Q 30.078125 56 35.796875 56 
Q 45.21875 56 50.046875 50.171875 
Q 54.890625 44.34375 54.890625 33.015625 
z
" id="DejaVuSans-68"/>
    </defs>
    <g transform="translate(157.405312 35.472)scale(0.12 -0.12)">
     <use xlink:href="#DejaVuSans-50"/>
     <use x="60.287109" xlink:href="#DejaVuSans-72"/>
     <use x="101.369141" xlink:href="#DejaVuSans-65"/>
     <use x="162.892578" xlink:href="#DejaVuSans-73"/>
     <use x="214.992188" xlink:href="#DejaVuSans-73"/>
     <use x="267.091797" xlink:href="#DejaVuSans-75"/>
     <use x="330.470703" xlink:href="#DejaVuSans-72"/>
     <use x="371.552734" xlink:href="#DejaVuSans-65"/>
     <use x="433.076172" xlink:href="#DejaVuSans-20"/>
     <use x="464.863281" xlink:href="#DejaVuSans-69"/>
     <use x="492.646484" xlink:href="#DejaVuSans-6e"/>
     <use x="556.025391" xlink:href="#DejaVuSans-20"/>
     <use x="587.8125" xlink:href="#DejaVuSans-6d"/>
     <use x="685.224609" xlink:href="#DejaVuSans-61"/>
     <use x="746.503906" xlink:href="#DejaVuSans-69"/>
     <use x="774.287109" xlink:href="#DejaVuSans-6e"/>
     <use x="837.666016" xlink:href="#DejaVuSans-20"/>
     <use x="869.453125" xlink:href="#DejaVuSans-63"/>
     <use x="924.433594" xlink:href="#DejaVuSans-68"/>
     <use x="987.8125" xlink:href="#DejaVuSans-61"/>
     <use x="1049.091797" xlink:href="#DejaVuSans-6d"/>
     <use x="1146.503906" xlink:href="#DejaVuSans-62"/>
     <use x="1209.980469" xlink:href="#DejaVuSans-65"/>
     <use x="1271.503906" xlink:href="#DejaVuSans-72"/>
    </g>
   </g>
  </g>
 </g>
 <defs>
  <clipPath id="pef69618138">
   <rect height="266.112" width="357.12" x="57.6" y="41.472"/>
  </clipPath>
 </defs>
</svg>
