<?xml version="1.0" encoding="utf-8" standalone="no"?>
<!DOCTYPE svg PUBLIC "-//W3C//DTD SVG 1.1//EN"
  "http://www.w3.org/Graphics/SVG/1.1/DTD/svg11.dtd">
<!-- Created with matplotlib (http://matplotlib.org/) -->
<svg height="345pt" version="1.1" viewBox="0 0 460 345" width="460pt" xmlns="http://www.w3.org/2000/svg" xmlns:xlink="http://www.w3.org/1999/xlink">
 <defs>
  <style type="text/css">
*{stroke-linecap:butt;stroke-linejoin:round;}
  </style>
 </defs>
 <g id="figure_1">
  <g id="patch_1">
   <path d="M 0 345.6 
L 460.8 345.6 
L 460.8 0 
L 0 0 
z
" style="fill:#ffffff;"/>
  </g>
  <g id="axes_1">
   <g id="patch_2">
    <path d="M 57.6 307.584 
L 414.72 307.584 
L 414.72 41.472 
L 57.6 41.472 
z
" style="fill:#ffffff;"/>
   </g>
   <g id="matplotlib.axis_1">
    <g id="xtick_1">
     <g id="line2d_1">
      <defs>
       <path d="M 0 0 
L 0 3.5 
" id="m2048a29673" style="stroke:#000000;stroke-width:0.8;"/>
      </defs>
      <g>
       <use style="stroke:#000000;stroke-width:0.8;" x="73.289297" xlink:href="#m2048a29673" y="307.584"/>
      </g>
     </g>
     <g id="text_1">
      <!-- 0 -->
      <defs>
       <path d="M 31.78125 66.40625 
Q 24.171875 66.40625 20.328125 58.90625 
Q 16.5 51.421875 16.5 36.375 
Q 16.5 21.390625 20.328125 13.890625 
Q 24.171875 6.390625 31.78125 6.390625 
Q 39.453125 6.390625 43.28125 13.890625 
Q 47.125 21.390625 47.125 36.375 
Q 47.125 51.421875 43.28125 58.90625 
Q 39.453125 66.40625 31.78125 66.40625 
z
M 31.78125 74.21875 
Q 44.046875 74.21875 50.515625 64.515625 
Q 56.984375 54.828125 56.984375 36.375 
Q 56.984375 17.96875 50.515625 8.265625 
Q 44.046875 -1.421875 31.78125 -1.421875 
Q 19.53125 -1.421875 13.0625 8.265625 
Q 6.59375 17.96875 6.59375 36.375 
Q 6.59375 54.828125 13.0625 64.515625 
Q 19.53125 74.21875 31.78125 74.21875 
z
" id="DejaVuSans-30"/>
      </defs>
      <g transform="translate(70.108047 322.182437)scale(0.1 -0.1)">
       <use xlink:href="#DejaVuSans-30"/>
      </g>
     </g>
    </g>
    <g id="xtick_2">
     <g id="line2d_2">
      <g>
       <use style="stroke:#000000;stroke-width:0.8;" x="127.578083" xlink:href="#m2048a29673" y="307.584"/>
      </g>
     </g>
     <g id="text_2">
      <!-- 100 -->
      <defs>
       <path d="M 12.40625 8.296875 
L 28.515625 8.296875 
L 28.515625 63.921875 
L 10.984375 60.40625 
L 10.984375 69.390625 
L 28.421875 72.90625 
L 38.28125 72.90625 
L 38.28125 8.296875 
L 54.390625 8.296875 
L 54.390625 0 
L 12.40625 0 
z
" id="DejaVuSans-31"/>
      </defs>
      <g transform="translate(118.034333 322.182437)scale(0.1 -0.1)">
       <use xlink:href="#DejaVuSans-31"/>
       <use x="63.623047" xlink:href="#DejaVuSans-30"/>
       <use x="127.246094" xlink:href="#DejaVuSans-30"/>
      </g>
     </g>
    </g>
    <g id="xtick_3">
     <g id="line2d_3">
      <g>
       <use style="stroke:#000000;stroke-width:0.8;" x="181.86687" xlink:href="#m2048a29673" y="307.584"/>
      </g>
     </g>
     <g id="text_3">
      <!-- 200 -->
      <defs>
       <path d="M 19.1875 8.296875 
L 53.609375 8.296875 
L 53.609375 0 
L 7.328125 0 
L 7.328125 8.296875 
Q 12.9375 14.109375 22.625 23.890625 
Q 32.328125 33.6875 34.8125 36.53125 
Q 39.546875 41.84375 41.421875 45.53125 
Q 43.3125 49.21875 43.3125 52.78125 
Q 43.3125 58.59375 39.234375 62.25 
Q 35.15625 65.921875 28.609375 65.921875 
Q 23.96875 65.921875 18.8125 64.3125 
Q 13.671875 62.703125 7.8125 59.421875 
L 7.8125 69.390625 
Q 13.765625 71.78125 18.9375 73 
Q 24.125 74.21875 28.421875 74.21875 
Q 39.75 74.21875 46.484375 68.546875 
Q 53.21875 62.890625 53.21875 53.421875 
Q 53.21875 48.921875 51.53125 44.890625 
Q 49.859375 40.875 45.40625 35.40625 
Q 44.1875 33.984375 37.640625 27.21875 
Q 31.109375 20.453125 19.1875 8.296875 
z
" id="DejaVuSans-32"/>
      </defs>
      <g transform="translate(172.32312 322.182437)scale(0.1 -0.1)">
       <use xlink:href="#DejaVuSans-32"/>
       <use x="63.623047" xlink:href="#DejaVuSans-30"/>
       <use x="127.246094" xlink:href="#DejaVuSans-30"/>
      </g>
     </g>
    </g>
    <g id="xtick_4">
     <g id="line2d_4">
      <g>
       <use style="stroke:#000000;stroke-width:0.8;" x="236.155657" xlink:href="#m2048a29673" y="307.584"/>
      </g>
     </g>
     <g id="text_4">
      <!-- 300 -->
      <defs>
       <path d="M 40.578125 39.3125 
Q 47.65625 37.796875 51.625 33 
Q 55.609375 28.21875 55.609375 21.1875 
Q 55.609375 10.40625 48.1875 4.484375 
Q 40.765625 -1.421875 27.09375 -1.421875 
Q 22.515625 -1.421875 17.65625 -0.515625 
Q 12.796875 0.390625 7.625 2.203125 
L 7.625 11.71875 
Q 11.71875 9.328125 16.59375 8.109375 
Q 21.484375 6.890625 26.8125 6.890625 
Q 36.078125 6.890625 40.9375 10.546875 
Q 45.796875 14.203125 45.796875 21.1875 
Q 45.796875 27.640625 41.28125 31.265625 
Q 36.765625 34.90625 28.71875 34.90625 
L 20.21875 34.90625 
L 20.21875 43.015625 
L 29.109375 43.015625 
Q 36.375 43.015625 40.234375 45.921875 
Q 44.09375 48.828125 44.09375 54.296875 
Q 44.09375 59.90625 40.109375 62.90625 
Q 36.140625 65.921875 28.71875 65.921875 
Q 24.65625 65.921875 20.015625 65.03125 
Q 15.375 64.15625 9.8125 62.3125 
L 9.8125 71.09375 
Q 15.4375 72.65625 20.34375 73.4375 
Q 25.25 74.21875 29.59375 74.21875 
Q 40.828125 74.21875 47.359375 69.109375 
Q 53.90625 64.015625 53.90625 55.328125 
Q 53.90625 49.265625 50.4375 45.09375 
Q 46.96875 40.921875 40.578125 39.3125 
z
" id="DejaVuSans-33"/>
      </defs>
      <g transform="translate(226.611907 322.182437)scale(0.1 -0.1)">
       <use xlink:href="#DejaVuSans-33"/>
       <use x="63.623047" xlink:href="#DejaVuSans-30"/>
       <use x="127.246094" xlink:href="#DejaVuSans-30"/>
      </g>
     </g>
    </g>
    <g id="xtick_5">
     <g id="line2d_5">
      <g>
       <use style="stroke:#000000;stroke-width:0.8;" x="290.444444" xlink:href="#m2048a29673" y="307.584"/>
      </g>
     </g>
     <g id="text_5">
      <!-- 400 -->
      <defs>
       <path d="M 37.796875 64.3125 
L 12.890625 25.390625 
L 37.796875 25.390625 
z
M 35.203125 72.90625 
L 47.609375 72.90625 
L 47.609375 25.390625 
L 58.015625 25.390625 
L 58.015625 17.1875 
L 47.609375 17.1875 
L 47.609375 0 
L 37.796875 0 
L 37.796875 17.1875 
L 4.890625 17.1875 
L 4.890625 26.703125 
z
" id="DejaVuSans-34"/>
      </defs>
      <g transform="translate(280.900694 322.182437)scale(0.1 -0.1)">
       <use xlink:href="#DejaVuSans-34"/>
       <use x="63.623047" xlink:href="#DejaVuSans-30"/>
       <use x="127.246094" xlink:href="#DejaVuSans-30"/>
      </g>
     </g>
    </g>
    <g id="xtick_6">
     <g id="line2d_6">
      <g>
       <use style="stroke:#000000;stroke-width:0.8;" x="344.733231" xlink:href="#m2048a29673" y="307.584"/>
      </g>
     </g>
     <g id="text_6">
      <!-- 500 -->
      <defs>
       <path d="M 10.796875 72.90625 
L 49.515625 72.90625 
L 49.515625 64.59375 
L 19.828125 64.59375 
L 19.828125 46.734375 
Q 21.96875 47.46875 24.109375 47.828125 
Q 26.265625 48.1875 28.421875 48.1875 
Q 40.625 48.1875 47.75 41.5 
Q 54.890625 34.8125 54.890625 23.390625 
Q 54.890625 11.625 47.5625 5.09375 
Q 40.234375 -1.421875 26.90625 -1.421875 
Q 22.3125 -1.421875 17.546875 -0.640625 
Q 12.796875 0.140625 7.71875 1.703125 
L 7.71875 11.625 
Q 12.109375 9.234375 16.796875 8.0625 
Q 21.484375 6.890625 26.703125 6.890625 
Q 35.15625 6.890625 40.078125 11.328125 
Q 45.015625 15.765625 45.015625 23.390625 
Q 45.015625 31 40.078125 35.4375 
Q 35.15625 39.890625 26.703125 39.890625 
Q 22.75 39.890625 18.8125 39.015625 
Q 14.890625 38.140625 10.796875 36.28125 
z
" id="DejaVuSans-35"/>
      </defs>
      <g transform="translate(335.189481 322.182437)scale(0.1 -0.1)">
       <use xlink:href="#DejaVuSans-35"/>
       <use x="63.623047" xlink:href="#DejaVuSans-30"/>
       <use x="127.246094" xlink:href="#DejaVuSans-30"/>
      </g>
     </g>
    </g>
    <g id="xtick_7">
     <g id="line2d_7">
      <g>
       <use style="stroke:#000000;stroke-width:0.8;" x="399.022017" xlink:href="#m2048a29673" y="307.584"/>
      </g>
     </g>
     <g id="text_7">
      <!-- 600 -->
      <defs>
       <path d="M 33.015625 40.375 
Q 26.375 40.375 22.484375 35.828125 
Q 18.609375 31.296875 18.609375 23.390625 
Q 18.609375 15.53125 22.484375 10.953125 
Q 26.375 6.390625 33.015625 6.390625 
Q 39.65625 6.390625 43.53125 10.953125 
Q 47.40625 15.53125 47.40625 23.390625 
Q 47.40625 31.296875 43.53125 35.828125 
Q 39.65625 40.375 33.015625 40.375 
z
M 52.59375 71.296875 
L 52.59375 62.3125 
Q 48.875 64.0625 45.09375 64.984375 
Q 41.3125 65.921875 37.59375 65.921875 
Q 27.828125 65.921875 22.671875 59.328125 
Q 17.53125 52.734375 16.796875 39.40625 
Q 19.671875 43.65625 24.015625 45.921875 
Q 28.375 48.1875 33.59375 48.1875 
Q 44.578125 48.1875 50.953125 41.515625 
Q 57.328125 34.859375 57.328125 23.390625 
Q 57.328125 12.15625 50.6875 5.359375 
Q 44.046875 -1.421875 33.015625 -1.421875 
Q 20.359375 -1.421875 13.671875 8.265625 
Q 6.984375 17.96875 6.984375 36.375 
Q 6.984375 53.65625 15.1875 63.9375 
Q 23.390625 74.21875 37.203125 74.21875 
Q 40.921875 74.21875 44.703125 73.484375 
Q 48.484375 72.75 52.59375 71.296875 
z
" id="DejaVuSans-36"/>
      </defs>
      <g transform="translate(389.478267 322.182437)scale(0.1 -0.1)">
       <use xlink:href="#DejaVuSans-36"/>
       <use x="63.623047" xlink:href="#DejaVuSans-30"/>
       <use x="127.246094" xlink:href="#DejaVuSans-30"/>
      </g>
     </g>
    </g>
    <g id="text_8">
     <!-- t(s) -->
     <defs>
      <path d="M 18.3125 70.21875 
L 18.3125 54.6875 
L 36.8125 54.6875 
L 36.8125 47.703125 
L 18.3125 47.703125 
L 18.3125 18.015625 
Q 18.3125 11.328125 20.140625 9.421875 
Q 21.96875 7.515625 27.59375 7.515625 
L 36.8125 7.515625 
L 36.8125 0 
L 27.59375 0 
Q 17.1875 0 13.234375 3.875 
Q 9.28125 7.765625 9.28125 18.015625 
L 9.28125 47.703125 
L 2.6875 47.703125 
L 2.6875 54.6875 
L 9.28125 54.6875 
L 9.28125 70.21875 
z
" id="DejaVuSans-74"/>
      <path d="M 31 75.875 
Q 24.46875 64.65625 21.28125 53.65625 
Q 18.109375 42.671875 18.109375 31.390625 
Q 18.109375 20.125 21.3125 9.0625 
Q 24.515625 -2 31 -13.1875 
L 23.1875 -13.1875 
Q 15.875 -1.703125 12.234375 9.375 
Q 8.59375 20.453125 8.59375 31.390625 
Q 8.59375 42.28125 12.203125 53.3125 
Q 15.828125 64.359375 23.1875 75.875 
z
" id="DejaVuSans-28"/>
      <path d="M 44.28125 53.078125 
L 44.28125 44.578125 
Q 40.484375 46.53125 36.375 47.5 
Q 32.28125 48.484375 27.875 48.484375 
Q 21.1875 48.484375 17.84375 46.4375 
Q 14.5 44.390625 14.5 40.28125 
Q 14.5 37.15625 16.890625 35.375 
Q 19.28125 33.59375 26.515625 31.984375 
L 29.59375 31.296875 
Q 39.15625 29.25 43.1875 25.515625 
Q 47.21875 21.78125 47.21875 15.09375 
Q 47.21875 7.46875 41.1875 3.015625 
Q 35.15625 -1.421875 24.609375 -1.421875 
Q 20.21875 -1.421875 15.453125 -0.5625 
Q 10.6875 0.296875 5.421875 2 
L 5.421875 11.28125 
Q 10.40625 8.6875 15.234375 7.390625 
Q 20.0625 6.109375 24.8125 6.109375 
Q 31.15625 6.109375 34.5625 8.28125 
Q 37.984375 10.453125 37.984375 14.40625 
Q 37.984375 18.0625 35.515625 20.015625 
Q 33.0625 21.96875 24.703125 23.78125 
L 21.578125 24.515625 
Q 13.234375 26.265625 9.515625 29.90625 
Q 5.8125 33.546875 5.8125 39.890625 
Q 5.8125 47.609375 11.28125 51.796875 
Q 16.75 56 26.8125 56 
Q 31.78125 56 36.171875 55.265625 
Q 40.578125 54.546875 44.28125 53.078125 
z
" id="DejaVuSans-73"/>
      <path d="M 8.015625 75.875 
L 15.828125 75.875 
Q 23.140625 64.359375 26.78125 53.3125 
Q 30.421875 42.28125 30.421875 31.390625 
Q 30.421875 20.453125 26.78125 9.375 
Q 23.140625 -1.703125 15.828125 -13.1875 
L 8.015625 -13.1875 
Q 14.5 -2 17.703125 9.0625 
Q 20.90625 20.125 20.90625 31.390625 
Q 20.90625 42.671875 17.703125 53.65625 
Q 14.5 64.65625 8.015625 75.875 
z
" id="DejaVuSans-29"/>
     </defs>
     <g transform="translate(227.693594 335.860562)scale(0.1 -0.1)">
      <use xlink:href="#DejaVuSans-74"/>
      <use x="39.208984" xlink:href="#DejaVuSans-28"/>
      <use x="78.222656" xlink:href="#DejaVuSans-73"/>
      <use x="130.322266" xlink:href="#DejaVuSans-29"/>
     </g>
    </g>
   </g>
   <g id="matplotlib.axis_2">
    <g id="ytick_1">
     <g id="line2d_8">
      <defs>
       <path d="M 0 0 
L -3.5 0 
" id="me527930563" style="stroke:#000000;stroke-width:0.8;"/>
      </defs>
      <g>
       <use style="stroke:#000000;stroke-width:0.8;" x="57.6" xlink:href="#me527930563" y="274.349359"/>
      </g>
     </g>
     <g id="text_9">
      <!-- −0.000004 -->
      <defs>
       <path d="M 10.59375 35.5 
L 73.1875 35.5 
L 73.1875 27.203125 
L 10.59375 27.203125 
z
" id="DejaVuSans-2212"/>
       <path d="M 10.6875 12.40625 
L 21 12.40625 
L 21 0 
L 10.6875 0 
z
" id="DejaVuSans-2e"/>
      </defs>
      <g transform="translate(-5.495313 278.148578)scale(0.1 -0.1)">
       <use xlink:href="#DejaVuSans-2212"/>
       <use x="83.789062" xlink:href="#DejaVuSans-30"/>
       <use x="147.412109" xlink:href="#DejaVuSans-2e"/>
       <use x="179.199219" xlink:href="#DejaVuSans-30"/>
       <use x="242.822266" xlink:href="#DejaVuSans-30"/>
       <use x="306.445312" xlink:href="#DejaVuSans-30"/>
       <use x="370.068359" xlink:href="#DejaVuSans-30"/>
       <use x="433.691406" xlink:href="#DejaVuSans-30"/>
       <use x="497.314453" xlink:href="#DejaVuSans-34"/>
      </g>
     </g>
    </g>
    <g id="ytick_2">
     <g id="line2d_9">
      <g>
       <use style="stroke:#000000;stroke-width:0.8;" x="57.6" xlink:href="#me527930563" y="227.374602"/>
      </g>
     </g>
     <g id="text_10">
      <!-- −0.000002 -->
      <g transform="translate(-5.495313 231.173821)scale(0.1 -0.1)">
       <use xlink:href="#DejaVuSans-2212"/>
       <use x="83.789062" xlink:href="#DejaVuSans-30"/>
       <use x="147.412109" xlink:href="#DejaVuSans-2e"/>
       <use x="179.199219" xlink:href="#DejaVuSans-30"/>
       <use x="242.822266" xlink:href="#DejaVuSans-30"/>
       <use x="306.445312" xlink:href="#DejaVuSans-30"/>
       <use x="370.068359" xlink:href="#DejaVuSans-30"/>
       <use x="433.691406" xlink:href="#DejaVuSans-30"/>
       <use x="497.314453" xlink:href="#DejaVuSans-32"/>
      </g>
     </g>
    </g>
    <g id="ytick_3">
     <g id="line2d_10">
      <g>
       <use style="stroke:#000000;stroke-width:0.8;" x="57.6" xlink:href="#me527930563" y="180.399845"/>
      </g>
     </g>
     <g id="text_11">
      <!-- 0.000000 -->
      <g transform="translate(2.884375 184.199063)scale(0.1 -0.1)">
       <use xlink:href="#DejaVuSans-30"/>
       <use x="63.623047" xlink:href="#DejaVuSans-2e"/>
       <use x="95.410156" xlink:href="#DejaVuSans-30"/>
       <use x="159.033203" xlink:href="#DejaVuSans-30"/>
       <use x="222.65625" xlink:href="#DejaVuSans-30"/>
       <use x="286.279297" xlink:href="#DejaVuSans-30"/>
       <use x="349.902344" xlink:href="#DejaVuSans-30"/>
       <use x="413.525391" xlink:href="#DejaVuSans-30"/>
      </g>
     </g>
    </g>
    <g id="ytick_4">
     <g id="line2d_11">
      <g>
       <use style="stroke:#000000;stroke-width:0.8;" x="57.6" xlink:href="#me527930563" y="133.425087"/>
      </g>
     </g>
     <g id="text_12">
      <!-- 0.000002 -->
      <g transform="translate(2.884375 137.224306)scale(0.1 -0.1)">
       <use xlink:href="#DejaVuSans-30"/>
       <use x="63.623047" xlink:href="#DejaVuSans-2e"/>
       <use x="95.410156" xlink:href="#DejaVuSans-30"/>
       <use x="159.033203" xlink:href="#DejaVuSans-30"/>
       <use x="222.65625" xlink:href="#DejaVuSans-30"/>
       <use x="286.279297" xlink:href="#DejaVuSans-30"/>
       <use x="349.902344" xlink:href="#DejaVuSans-30"/>
       <use x="413.525391" xlink:href="#DejaVuSans-32"/>
      </g>
     </g>
    </g>
    <g id="ytick_5">
     <g id="line2d_12">
      <g>
       <use style="stroke:#000000;stroke-width:0.8;" x="57.6" xlink:href="#me527930563" y="86.45033"/>
      </g>
     </g>
     <g id="text_13">
      <!-- 0.000004 -->
      <g transform="translate(2.884375 90.249549)scale(0.1 -0.1)">
       <use xlink:href="#DejaVuSans-30"/>
       <use x="63.623047" xlink:href="#DejaVuSans-2e"/>
       <use x="95.410156" xlink:href="#DejaVuSans-30"/>
       <use x="159.033203" xlink:href="#DejaVuSans-30"/>
       <use x="222.65625" xlink:href="#DejaVuSans-30"/>
       <use x="286.279297" xlink:href="#DejaVuSans-30"/>
       <use x="349.902344" xlink:href="#DejaVuSans-30"/>
       <use x="413.525391" xlink:href="#DejaVuSans-34"/>
      </g>
     </g>
    </g>
    <g id="text_14">
     <!-- Voltage (V) -->
     <defs>
      <path d="M 28.609375 0 
L 0.78125 72.90625 
L 11.078125 72.90625 
L 34.1875 11.53125 
L 57.328125 72.90625 
L 67.578125 72.90625 
L 39.796875 0 
z
" id="DejaVuSans-56"/>
      <path d="M 30.609375 48.390625 
Q 23.390625 48.390625 19.1875 42.75 
Q 14.984375 37.109375 14.984375 27.296875 
Q 14.984375 17.484375 19.15625 11.84375 
Q 23.34375 6.203125 30.609375 6.203125 
Q 37.796875 6.203125 41.984375 11.859375 
Q 46.1875 17.53125 46.1875 27.296875 
Q 46.1875 37.015625 41.984375 42.703125 
Q 37.796875 48.390625 30.609375 48.390625 
z
M 30.609375 56 
Q 42.328125 56 49.015625 48.375 
Q 55.71875 40.765625 55.71875 27.296875 
Q 55.71875 13.875 49.015625 6.21875 
Q 42.328125 -1.421875 30.609375 -1.421875 
Q 18.84375 -1.421875 12.171875 6.21875 
Q 5.515625 13.875 5.515625 27.296875 
Q 5.515625 40.765625 12.171875 48.375 
Q 18.84375 56 30.609375 56 
z
" id="DejaVuSans-6f"/>
      <path d="M 9.421875 75.984375 
L 18.40625 75.984375 
L 18.40625 0 
L 9.421875 0 
z
" id="DejaVuSans-6c"/>
      <path d="M 34.28125 27.484375 
Q 23.390625 27.484375 19.1875 25 
Q 14.984375 22.515625 14.984375 16.5 
Q 14.984375 11.71875 18.140625 8.90625 
Q 21.296875 6.109375 26.703125 6.109375 
Q 34.1875 6.109375 38.703125 11.40625 
Q 43.21875 16.703125 43.21875 25.484375 
L 43.21875 27.484375 
z
M 52.203125 31.203125 
L 52.203125 0 
L 43.21875 0 
L 43.21875 8.296875 
Q 40.140625 3.328125 35.546875 0.953125 
Q 30.953125 -1.421875 24.3125 -1.421875 
Q 15.921875 -1.421875 10.953125 3.296875 
Q 6 8.015625 6 15.921875 
Q 6 25.140625 12.171875 29.828125 
Q 18.359375 34.515625 30.609375 34.515625 
L 43.21875 34.515625 
L 43.21875 35.40625 
Q 43.21875 41.609375 39.140625 45 
Q 35.0625 48.390625 27.6875 48.390625 
Q 23 48.390625 18.546875 47.265625 
Q 14.109375 46.140625 10.015625 43.890625 
L 10.015625 52.203125 
Q 14.9375 54.109375 19.578125 55.046875 
Q 24.21875 56 28.609375 56 
Q 40.484375 56 46.34375 49.84375 
Q 52.203125 43.703125 52.203125 31.203125 
z
" id="DejaVuSans-61"/>
      <path d="M 45.40625 27.984375 
Q 45.40625 37.75 41.375 43.109375 
Q 37.359375 48.484375 30.078125 48.484375 
Q 22.859375 48.484375 18.828125 43.109375 
Q 14.796875 37.75 14.796875 27.984375 
Q 14.796875 18.265625 18.828125 12.890625 
Q 22.859375 7.515625 30.078125 7.515625 
Q 37.359375 7.515625 41.375 12.890625 
Q 45.40625 18.265625 45.40625 27.984375 
z
M 54.390625 6.78125 
Q 54.390625 -7.171875 48.1875 -13.984375 
Q 42 -20.796875 29.203125 -20.796875 
Q 24.46875 -20.796875 20.265625 -20.09375 
Q 16.0625 -19.390625 12.109375 -17.921875 
L 12.109375 -9.1875 
Q 16.0625 -11.328125 19.921875 -12.34375 
Q 23.78125 -13.375 27.78125 -13.375 
Q 36.625 -13.375 41.015625 -8.765625 
Q 45.40625 -4.15625 45.40625 5.171875 
L 45.40625 9.625 
Q 42.625 4.78125 38.28125 2.390625 
Q 33.9375 0 27.875 0 
Q 17.828125 0 11.671875 7.65625 
Q 5.515625 15.328125 5.515625 27.984375 
Q 5.515625 40.671875 11.671875 48.328125 
Q 17.828125 56 27.875 56 
Q 33.9375 56 38.28125 53.609375 
Q 42.625 51.21875 45.40625 46.390625 
L 45.40625 54.6875 
L 54.390625 54.6875 
z
" id="DejaVuSans-67"/>
      <path d="M 56.203125 29.59375 
L 56.203125 25.203125 
L 14.890625 25.203125 
Q 15.484375 15.921875 20.484375 11.0625 
Q 25.484375 6.203125 34.421875 6.203125 
Q 39.59375 6.203125 44.453125 7.46875 
Q 49.3125 8.734375 54.109375 11.28125 
L 54.109375 2.78125 
Q 49.265625 0.734375 44.1875 -0.34375 
Q 39.109375 -1.421875 33.890625 -1.421875 
Q 20.796875 -1.421875 13.15625 6.1875 
Q 5.515625 13.8125 5.515625 26.8125 
Q 5.515625 40.234375 12.765625 48.109375 
Q 20.015625 56 32.328125 56 
Q 43.359375 56 49.78125 48.890625 
Q 56.203125 41.796875 56.203125 29.59375 
z
M 47.21875 32.234375 
Q 47.125 39.59375 43.09375 43.984375 
Q 39.0625 48.390625 32.421875 48.390625 
Q 24.90625 48.390625 20.390625 44.140625 
Q 15.875 39.890625 15.1875 32.171875 
z
" id="DejaVuSans-65"/>
      <path id="DejaVuSans-20"/>
     </defs>
     <g transform="translate(-11.575 202.577219)rotate(-90)scale(0.1 -0.1)">
      <use xlink:href="#DejaVuSans-56"/>
      <use x="68.298828" xlink:href="#DejaVuSans-6f"/>
      <use x="129.480469" xlink:href="#DejaVuSans-6c"/>
      <use x="157.263672" xlink:href="#DejaVuSans-74"/>
      <use x="196.472656" xlink:href="#DejaVuSans-61"/>
      <use x="257.751953" xlink:href="#DejaVuSans-67"/>
      <use x="321.228516" xlink:href="#DejaVuSans-65"/>
      <use x="382.751953" xlink:href="#DejaVuSans-20"/>
      <use x="414.539062" xlink:href="#DejaVuSans-28"/>
      <use x="453.552734" xlink:href="#DejaVuSans-56"/>
      <use x="521.960938" xlink:href="#DejaVuSans-29"/>
     </g>
    </g>
    <g id="text_15">
     <!-- +1e−1 -->
     <defs>
      <path d="M 46 62.703125 
L 46 35.5 
L 73.1875 35.5 
L 73.1875 27.203125 
L 46 27.203125 
L 46 0 
L 37.796875 0 
L 37.796875 27.203125 
L 10.59375 27.203125 
L 10.59375 35.5 
L 37.796875 35.5 
L 37.796875 62.703125 
z
" id="DejaVuSans-2b"/>
     </defs>
     <g transform="translate(57.6 38.472)scale(0.1 -0.1)">
      <use xlink:href="#DejaVuSans-2b"/>
      <use x="83.789062" xlink:href="#DejaVuSans-31"/>
      <use x="147.412109" xlink:href="#DejaVuSans-65"/>
      <use x="208.935547" xlink:href="#DejaVuSans-2212"/>
      <use x="292.724609" xlink:href="#DejaVuSans-31"/>
     </g>
    </g>
   </g>
   <g id="line2d_13">
    <path clip-path="url(#p530cabf793)" d="M 73.832727 98.194019 
L 74.375615 84.101592 
L 74.919589 250.861981 
L 75.462477 272.000621 
L 76.005364 185.09732 
L 76.548252 253.210718 
L 77.09114 255.559456 
L 77.634028 208.584699 
L 78.176916 234.420816 
L 78.719804 215.630913 
L 79.262692 208.584699 
L 79.80558 232.072078 
L 80.348467 208.584699 
L 80.891355 147.517515 
L 81.434243 159.261204 
L 81.977131 156.912466 
L 82.520019 145.168777 
L 83.062907 109.937709 
L 83.605795 189.794796 
L 84.148682 145.168777 
L 84.69157 128.727612 
L 85.234458 138.122563 
L 85.777346 74.706641 
L 86.320234 159.261204 
L 86.863122 128.727612 
L 87.40601 178.051107 
L 87.948898 131.07635 
L 89.034673 185.09732 
L 89.577561 260.256932 
L 90.120449 152.21499 
L 90.663337 180.399845 
L 91.206225 182.748583 
L 91.749113 168.656155 
L 92.292 232.072078 
L 92.834888 239.118291 
L 93.377776 253.210718 
L 93.920664 185.09732 
L 94.463552 199.189748 
L 95.00644 220.328388 
L 95.549328 192.143534 
L 96.092216 194.492272 
L 96.635103 145.168777 
L 97.177991 203.887223 
L 97.720879 232.072078 
L 98.263767 180.399845 
L 98.806655 185.09732 
L 99.349543 215.630913 
L 99.892431 232.072078 
L 100.435319 253.210718 
L 100.978206 208.584699 
L 101.521094 194.492272 
L 102.063982 175.702369 
L 102.60687 220.328388 
L 103.149758 225.025864 
L 103.692646 215.630913 
L 104.235534 222.677126 
L 104.778421 241.467029 
L 105.321309 213.282175 
L 105.864197 225.025864 
L 106.407085 208.584699 
L 106.949973 185.09732 
L 107.492861 234.420816 
L 108.035749 208.584699 
L 108.578637 192.143534 
L 109.121524 239.118291 
L 109.664412 236.769553 
L 110.2073 253.210718 
L 110.750188 201.538485 
L 111.293076 208.584699 
L 111.835964 225.025864 
L 112.378852 264.954408 
L 112.921739 182.748583 
L 113.464627 208.584699 
L 114.007515 196.84101 
L 114.550403 222.677126 
L 115.093291 156.912466 
L 115.636179 274.349359 
L 116.179067 279.046835 
L 116.721955 269.651883 
L 117.264842 281.395573 
L 117.80773 281.395573 
L 118.350618 168.656155 
L 118.893506 194.492272 
L 119.436394 182.748583 
L 119.979282 208.584699 
L 120.52217 182.748583 
L 121.065057 199.189748 
L 121.607945 222.677126 
L 122.150833 175.702369 
L 122.693721 225.025864 
L 123.236609 210.933437 
L 123.779497 243.815767 
L 124.322385 269.651883 
L 124.865273 182.748583 
L 125.40816 196.84101 
L 125.951048 149.866252 
L 126.493936 168.656155 
L 127.036824 168.656155 
L 127.579712 189.794796 
L 128.1226 194.492272 
L 128.665488 208.584699 
L 129.208376 227.374602 
L 129.751263 222.677126 
L 130.294151 192.143534 
L 131.379927 213.282175 
L 131.922815 213.282175 
L 132.465703 173.353631 
L 133.008591 217.97965 
L 133.551478 208.584699 
L 134.094366 213.282175 
L 134.637254 171.004893 
L 135.72303 217.97965 
L 136.265918 185.09732 
L 137.351694 262.60567 
L 137.894581 192.143534 
L 138.437469 229.72334 
L 138.980357 199.189748 
L 139.523245 206.235961 
L 140.066133 203.887223 
L 140.609021 217.97965 
L 141.151909 152.21499 
L 141.694796 152.21499 
L 142.237684 178.051107 
L 142.780572 86.45033 
L 143.32346 171.004893 
L 144.409236 135.773825 
L 144.952124 131.07635 
L 146.037899 217.97965 
L 146.580787 166.307417 
L 147.123675 182.748583 
L 147.666563 173.353631 
L 148.209451 173.353631 
L 148.752339 180.399845 
L 149.295227 154.563728 
L 149.838114 152.21499 
L 150.381002 145.168777 
L 150.92389 142.820039 
L 151.466778 133.425087 
L 152.009666 114.635184 
L 152.552554 126.378874 
L 153.095442 180.399845 
L 153.63833 201.538485 
L 154.181217 255.559456 
L 154.724105 142.820039 
L 155.266993 161.609942 
L 155.809881 135.773825 
L 156.352769 126.378874 
L 156.895657 156.912466 
L 157.438545 159.261204 
L 157.981433 142.820039 
L 158.52432 149.866252 
L 159.067208 173.353631 
L 159.610096 147.517515 
L 160.152984 133.425087 
L 160.695872 161.609942 
L 161.23876 166.307417 
L 161.781648 119.33266 
L 162.324535 161.609942 
L 162.867423 149.866252 
L 163.410311 142.820039 
L 163.953199 229.72334 
L 164.496087 166.307417 
L 165.038975 138.122563 
L 165.581863 154.563728 
L 166.124751 119.33266 
L 166.667638 154.563728 
L 167.210526 112.286447 
L 167.753414 114.635184 
L 168.296302 187.446058 
L 168.83919 147.517515 
L 169.382078 126.378874 
L 169.924966 178.051107 
L 170.467853 187.446058 
L 171.010741 171.004893 
L 171.553629 126.378874 
L 172.096517 124.030136 
L 172.639405 168.656155 
L 173.182293 147.517515 
L 173.725181 178.051107 
L 174.268069 189.794796 
L 174.810956 175.702369 
L 175.353844 250.861981 
L 175.896732 250.861981 
L 176.43962 138.122563 
L 176.982508 201.538485 
L 177.525396 196.84101 
L 178.068284 208.584699 
L 178.611171 131.07635 
L 179.154059 133.425087 
L 179.696947 112.286447 
L 180.239835 116.983922 
L 180.782723 156.912466 
L 181.325611 168.656155 
L 181.868499 156.912466 
L 182.411387 210.933437 
L 182.954274 182.748583 
L 183.497162 142.820039 
L 184.04005 138.122563 
L 184.582938 159.261204 
L 185.125826 173.353631 
L 185.668714 225.025864 
L 186.211602 189.794796 
L 186.75449 196.84101 
L 187.297377 250.861981 
L 187.840265 257.908194 
L 188.383153 225.025864 
L 188.926041 116.983922 
L 189.468929 168.656155 
L 190.011817 175.702369 
L 190.554705 229.72334 
L 191.097592 142.820039 
L 191.64048 182.748583 
L 192.183368 196.84101 
L 192.726256 199.189748 
L 193.269144 227.374602 
L 193.812032 225.025864 
L 194.35492 175.702369 
L 194.897808 227.374602 
L 195.440695 187.446058 
L 195.983583 196.84101 
L 196.526471 180.399845 
L 197.069359 93.496544 
L 197.612247 154.563728 
L 198.155135 128.727612 
L 198.698023 72.357903 
L 199.24091 142.820039 
L 199.783798 161.609942 
L 200.326686 236.769553 
L 200.869574 187.446058 
L 201.412462 156.912466 
L 201.95535 192.143534 
L 202.498238 194.492272 
L 203.041126 227.374602 
L 203.584013 206.235961 
L 204.126901 173.353631 
L 204.669789 173.353631 
L 205.212677 229.72334 
L 205.755565 187.446058 
L 206.298453 168.656155 
L 206.841341 236.769553 
L 207.384228 171.004893 
L 207.927116 192.143534 
L 209.012892 187.446058 
L 209.55578 178.051107 
L 210.098668 215.630913 
L 210.641556 178.051107 
L 211.184444 187.446058 
L 211.727331 215.630913 
L 212.270219 253.210718 
L 212.813107 267.303146 
L 213.355995 241.467029 
L 213.898883 163.95868 
L 214.441771 222.677126 
L 214.984659 213.282175 
L 215.527547 234.420816 
L 216.070434 171.004893 
L 216.613322 225.025864 
L 217.15621 248.513243 
L 217.699098 222.677126 
L 218.241986 213.282175 
L 218.784874 234.420816 
L 219.327762 236.769553 
L 219.870649 178.051107 
L 220.413537 248.513243 
L 220.956425 189.794796 
L 221.499313 213.282175 
L 222.042201 124.030136 
L 222.585089 156.912466 
L 223.127977 109.937709 
L 223.670865 140.471301 
L 224.213752 98.194019 
L 224.75664 156.912466 
L 225.299528 105.240233 
L 225.842416 156.912466 
L 226.385304 222.677126 
L 226.928192 159.261204 
L 228.013967 173.353631 
L 228.556855 168.656155 
L 229.099743 156.912466 
L 229.642631 163.95868 
L 230.185519 79.404117 
L 230.728407 128.727612 
L 231.271295 98.194019 
L 231.814183 178.051107 
L 232.35707 168.656155 
L 232.899958 199.189748 
L 233.442846 156.912466 
L 233.985734 163.95868 
L 234.528622 119.33266 
L 235.07151 133.425087 
L 235.614398 180.399845 
L 236.157285 114.635184 
L 236.700173 149.866252 
L 237.243061 175.702369 
L 237.785949 178.051107 
L 238.328837 199.189748 
L 238.871725 149.866252 
L 239.414613 138.122563 
L 239.957501 180.399845 
L 240.500388 189.794796 
L 242.129052 290.790524 
L 242.67194 227.374602 
L 243.757716 163.95868 
L 244.300604 196.84101 
L 244.843491 194.492272 
L 245.386379 194.492272 
L 245.929267 241.467029 
L 246.472155 236.769553 
L 247.015043 206.235961 
L 247.557931 208.584699 
L 248.100819 215.630913 
L 248.643706 206.235961 
L 249.186594 147.517515 
L 249.729482 149.866252 
L 250.27237 145.168777 
L 250.815258 166.307417 
L 251.358146 149.866252 
L 252.443922 180.399845 
L 252.986809 145.168777 
L 253.529697 161.609942 
L 254.072585 173.353631 
L 254.615473 210.933437 
L 255.158361 142.820039 
L 255.701249 159.261204 
L 256.244137 133.425087 
L 256.787024 201.538485 
L 257.329912 159.261204 
L 257.8728 210.933437 
L 258.415688 283.744311 
L 258.958576 229.72334 
L 259.501464 217.97965 
L 260.044352 159.261204 
L 260.58724 206.235961 
L 261.130127 182.748583 
L 261.673015 201.538485 
L 262.215903 276.698097 
L 262.758791 156.912466 
L 263.301679 192.143534 
L 263.844567 194.492272 
L 264.387455 173.353631 
L 264.930343 175.702369 
L 265.47323 173.353631 
L 266.016118 203.887223 
L 266.559006 180.399845 
L 267.101894 215.630913 
L 267.644782 145.168777 
L 268.18767 203.887223 
L 268.730558 135.773825 
L 269.273445 147.517515 
L 269.816333 53.568 
L 270.359221 135.773825 
L 270.902109 102.891495 
L 271.444997 114.635184 
L 271.987885 243.815767 
L 272.530773 194.492272 
L 273.073661 213.282175 
L 273.616548 210.933437 
L 274.159436 116.983922 
L 274.702324 112.286447 
L 275.245212 187.446058 
L 275.7881 152.21499 
L 276.330988 203.887223 
L 276.873876 208.584699 
L 277.416763 112.286447 
L 277.959651 192.143534 
L 278.502539 196.84101 
L 279.045427 208.584699 
L 279.588315 124.030136 
L 280.131203 213.282175 
L 280.674091 185.09732 
L 281.216979 213.282175 
L 281.759866 225.025864 
L 282.302754 229.72334 
L 282.845642 232.072078 
L 283.38853 255.559456 
L 283.931418 187.446058 
L 284.474306 178.051107 
L 285.017194 161.609942 
L 285.560081 135.773825 
L 286.102969 203.887223 
L 286.645857 246.164505 
L 287.188745 220.328388 
L 287.731633 213.282175 
L 288.274521 135.773825 
L 288.817409 180.399845 
L 289.360297 203.887223 
L 289.903184 203.887223 
L 290.446072 267.303146 
L 290.98896 210.933437 
L 291.531848 229.72334 
L 292.074736 192.143534 
L 292.617624 168.656155 
L 293.160512 196.84101 
L 293.7034 138.122563 
L 294.246287 159.261204 
L 294.789175 107.588971 
L 295.332606 187.446058 
L 295.87658 166.307417 
L 296.42001 199.189748 
L 296.963441 152.21499 
L 297.506872 166.307417 
L 298.04976 241.467029 
L 298.593191 213.282175 
L 299.136079 147.517515 
L 299.678966 142.820039 
L 300.221854 142.820039 
L 301.30763 246.164505 
L 301.850518 175.702369 
L 302.393406 225.025864 
L 302.936294 192.143534 
L 303.479181 171.004893 
L 304.022069 234.420816 
L 304.564957 187.446058 
L 305.107845 229.72334 
L 305.650733 159.261204 
L 306.193621 220.328388 
L 306.736509 180.399845 
L 307.279397 168.656155 
L 307.822284 168.656155 
L 308.365172 189.794796 
L 308.90806 107.588971 
L 309.450948 149.866252 
L 309.994379 210.933437 
L 310.537267 182.748583 
L 311.080154 201.538485 
L 312.16593 98.194019 
L 312.708818 171.004893 
L 313.251706 173.353631 
L 313.794594 196.84101 
L 314.337482 140.471301 
L 314.88037 199.189748 
L 315.423257 196.84101 
L 315.966145 142.820039 
L 316.509033 156.912466 
L 317.051921 185.09732 
L 317.594809 201.538485 
L 318.137697 138.122563 
L 318.680585 119.33266 
L 319.223472 201.538485 
L 319.76636 206.235961 
L 320.309248 215.630913 
L 320.852136 208.584699 
L 321.395024 222.677126 
L 322.4808 232.072078 
L 323.023688 163.95868 
L 323.566575 131.07635 
L 324.109463 133.425087 
L 324.652351 185.09732 
L 325.195239 217.97965 
L 325.738127 257.908194 
L 326.281015 159.261204 
L 326.823903 210.933437 
L 327.36679 180.399845 
L 327.909678 225.025864 
L 328.452566 225.025864 
L 328.995454 152.21499 
L 329.538342 201.538485 
L 330.08123 161.609942 
L 330.624118 295.488 
L 331.167006 147.517515 
L 331.709893 142.820039 
L 332.252781 93.496544 
L 332.795669 119.33266 
L 333.338557 131.07635 
L 333.881445 138.122563 
L 334.424333 178.051107 
L 334.967221 189.794796 
L 335.510109 269.651883 
L 336.052996 178.051107 
L 336.595884 182.748583 
L 337.138772 213.282175 
L 337.68166 163.95868 
L 338.224548 133.425087 
L 338.767436 138.122563 
L 339.310324 147.517515 
L 339.853211 185.09732 
L 340.396099 70.009165 
L 340.938987 145.168777 
L 341.481875 138.122563 
L 342.024763 121.681398 
L 342.567651 156.912466 
L 343.110539 182.748583 
L 343.653427 189.794796 
L 344.196857 272.000621 
L 344.740288 173.353631 
L 345.283719 194.492272 
L 345.826607 283.744311 
L 346.912382 260.256932 
L 347.45527 206.235961 
L 347.998158 206.235961 
L 348.541046 192.143534 
L 349.083934 217.97965 
L 349.626822 145.168777 
L 350.16971 156.912466 
L 350.712597 220.328388 
L 351.255485 222.677126 
L 351.798916 159.261204 
L 352.341804 159.261204 
L 352.884692 178.051107 
L 353.42758 163.95868 
L 353.970468 140.471301 
L 354.513355 145.168777 
L 355.056243 201.538485 
L 355.599131 152.21499 
L 356.142019 215.630913 
L 356.684907 187.446058 
L 357.227795 119.33266 
L 357.770683 222.677126 
L 358.31357 156.912466 
L 358.856458 196.84101 
L 359.399346 163.95868 
L 359.942234 173.353631 
L 360.485122 163.95868 
L 361.02801 161.609942 
L 361.570898 182.748583 
L 362.113786 149.866252 
L 362.656673 159.261204 
L 363.199561 187.446058 
L 363.742449 250.861981 
L 364.285337 203.887223 
L 364.828225 255.559456 
L 365.371113 213.282175 
L 365.914001 248.513243 
L 366.456889 208.584699 
L 366.999776 257.908194 
L 367.542664 220.328388 
L 368.085552 124.030136 
L 368.62844 173.353631 
L 369.171328 154.563728 
L 369.714216 189.794796 
L 370.257104 213.282175 
L 370.799991 260.256932 
L 371.342879 145.168777 
L 371.885767 140.471301 
L 372.428655 213.282175 
L 372.971543 203.887223 
L 373.514431 225.025864 
L 374.057319 189.794796 
L 374.600207 192.143534 
L 375.143094 171.004893 
L 375.685982 208.584699 
L 376.22887 147.517515 
L 376.771758 225.025864 
L 377.314646 206.235961 
L 377.857534 201.538485 
L 378.400422 95.845282 
L 378.943309 133.425087 
L 379.486197 196.84101 
L 380.029085 156.912466 
L 380.571973 171.004893 
L 381.114861 166.307417 
L 381.657749 133.425087 
L 382.200637 182.748583 
L 382.743525 173.353631 
L 383.286412 236.769553 
L 383.8293 166.307417 
L 384.372188 194.492272 
L 384.915076 161.609942 
L 385.457964 161.609942 
L 386.000852 201.538485 
L 386.54374 163.95868 
L 387.086627 192.143534 
L 387.629515 145.168777 
L 388.715291 196.84101 
L 389.258179 248.513243 
L 389.801067 152.21499 
L 390.343955 269.651883 
L 390.886843 246.164505 
L 391.42973 234.420816 
L 391.972618 173.353631 
L 392.515506 222.677126 
L 393.058394 159.261204 
L 393.601282 128.727612 
L 394.14417 201.538485 
L 394.687058 257.908194 
L 395.229946 133.425087 
L 395.772833 210.933437 
L 396.315721 138.122563 
L 396.858609 187.446058 
L 397.401497 175.702369 
L 397.944385 232.072078 
L 398.487273 166.307417 
L 398.487273 166.307417 
" style="fill:none;stroke:#1f77b4;stroke-linecap:square;stroke-width:1.5;"/>
   </g>
   <g id="patch_3">
    <path d="M 57.6 307.584 
L 57.6 41.472 
" style="fill:none;stroke:#000000;stroke-linecap:square;stroke-linejoin:miter;stroke-width:0.8;"/>
   </g>
   <g id="patch_4">
    <path d="M 414.72 307.584 
L 414.72 41.472 
" style="fill:none;stroke:#000000;stroke-linecap:square;stroke-linejoin:miter;stroke-width:0.8;"/>
   </g>
   <g id="patch_5">
    <path d="M 57.6 307.584 
L 414.72 307.584 
" style="fill:none;stroke:#000000;stroke-linecap:square;stroke-linejoin:miter;stroke-width:0.8;"/>
   </g>
   <g id="patch_6">
    <path d="M 57.6 41.472 
L 414.72 41.472 
" style="fill:none;stroke:#000000;stroke-linecap:square;stroke-linejoin:miter;stroke-width:0.8;"/>
   </g>
   <g id="text_16">
    <!-- Voltage measured with source voltage 100.0 mV -->
    <defs>
     <path d="M 52 44.1875 
Q 55.375 50.25 60.0625 53.125 
Q 64.75 56 71.09375 56 
Q 79.640625 56 84.28125 50.015625 
Q 88.921875 44.046875 88.921875 33.015625 
L 88.921875 0 
L 79.890625 0 
L 79.890625 32.71875 
Q 79.890625 40.578125 77.09375 44.375 
Q 74.3125 48.1875 68.609375 48.1875 
Q 61.625 48.1875 57.5625 43.546875 
Q 53.515625 38.921875 53.515625 30.90625 
L 53.515625 0 
L 44.484375 0 
L 44.484375 32.71875 
Q 44.484375 40.625 41.703125 44.40625 
Q 38.921875 48.1875 33.109375 48.1875 
Q 26.21875 48.1875 22.15625 43.53125 
Q 18.109375 38.875 18.109375 30.90625 
L 18.109375 0 
L 9.078125 0 
L 9.078125 54.6875 
L 18.109375 54.6875 
L 18.109375 46.1875 
Q 21.1875 51.21875 25.484375 53.609375 
Q 29.78125 56 35.6875 56 
Q 41.65625 56 45.828125 52.96875 
Q 50 49.953125 52 44.1875 
z
" id="DejaVuSans-6d"/>
     <path d="M 8.5 21.578125 
L 8.5 54.6875 
L 17.484375 54.6875 
L 17.484375 21.921875 
Q 17.484375 14.15625 20.5 10.265625 
Q 23.53125 6.390625 29.59375 6.390625 
Q 36.859375 6.390625 41.078125 11.03125 
Q 45.3125 15.671875 45.3125 23.6875 
L 45.3125 54.6875 
L 54.296875 54.6875 
L 54.296875 0 
L 45.3125 0 
L 45.3125 8.40625 
Q 42.046875 3.421875 37.71875 1 
Q 33.40625 -1.421875 27.6875 -1.421875 
Q 18.265625 -1.421875 13.375 4.4375 
Q 8.5 10.296875 8.5 21.578125 
z
M 31.109375 56 
z
" id="DejaVuSans-75"/>
     <path d="M 41.109375 46.296875 
Q 39.59375 47.171875 37.8125 47.578125 
Q 36.03125 48 33.890625 48 
Q 26.265625 48 22.1875 43.046875 
Q 18.109375 38.09375 18.109375 28.8125 
L 18.109375 0 
L 9.078125 0 
L 9.078125 54.6875 
L 18.109375 54.6875 
L 18.109375 46.1875 
Q 20.953125 51.171875 25.484375 53.578125 
Q 30.03125 56 36.53125 56 
Q 37.453125 56 38.578125 55.875 
Q 39.703125 55.765625 41.0625 55.515625 
z
" id="DejaVuSans-72"/>
     <path d="M 45.40625 46.390625 
L 45.40625 75.984375 
L 54.390625 75.984375 
L 54.390625 0 
L 45.40625 0 
L 45.40625 8.203125 
Q 42.578125 3.328125 38.25 0.953125 
Q 33.9375 -1.421875 27.875 -1.421875 
Q 17.96875 -1.421875 11.734375 6.484375 
Q 5.515625 14.40625 5.515625 27.296875 
Q 5.515625 40.1875 11.734375 48.09375 
Q 17.96875 56 27.875 56 
Q 33.9375 56 38.25 53.625 
Q 42.578125 51.265625 45.40625 46.390625 
z
M 14.796875 27.296875 
Q 14.796875 17.390625 18.875 11.75 
Q 22.953125 6.109375 30.078125 6.109375 
Q 37.203125 6.109375 41.296875 11.75 
Q 45.40625 17.390625 45.40625 27.296875 
Q 45.40625 37.203125 41.296875 42.84375 
Q 37.203125 48.484375 30.078125 48.484375 
Q 22.953125 48.484375 18.875 42.84375 
Q 14.796875 37.203125 14.796875 27.296875 
z
" id="DejaVuSans-64"/>
     <path d="M 4.203125 54.6875 
L 13.1875 54.6875 
L 24.421875 12.015625 
L 35.59375 54.6875 
L 46.1875 54.6875 
L 57.421875 12.015625 
L 68.609375 54.6875 
L 77.59375 54.6875 
L 63.28125 0 
L 52.6875 0 
L 40.921875 44.828125 
L 29.109375 0 
L 18.5 0 
z
" id="DejaVuSans-77"/>
     <path d="M 9.421875 54.6875 
L 18.40625 54.6875 
L 18.40625 0 
L 9.421875 0 
z
M 9.421875 75.984375 
L 18.40625 75.984375 
L 18.40625 64.59375 
L 9.421875 64.59375 
z
" id="DejaVuSans-69"/>
     <path d="M 54.890625 33.015625 
L 54.890625 0 
L 45.90625 0 
L 45.90625 32.71875 
Q 45.90625 40.484375 42.875 44.328125 
Q 39.84375 48.1875 33.796875 48.1875 
Q 26.515625 48.1875 22.3125 43.546875 
Q 18.109375 38.921875 18.109375 30.90625 
L 18.109375 0 
L 9.078125 0 
L 9.078125 75.984375 
L 18.109375 75.984375 
L 18.109375 46.1875 
Q 21.34375 51.125 25.703125 53.5625 
Q 30.078125 56 35.796875 56 
Q 45.21875 56 50.046875 50.171875 
Q 54.890625 44.34375 54.890625 33.015625 
z
" id="DejaVuSans-68"/>
     <path d="M 48.78125 52.59375 
L 48.78125 44.1875 
Q 44.96875 46.296875 41.140625 47.34375 
Q 37.3125 48.390625 33.40625 48.390625 
Q 24.65625 48.390625 19.8125 42.84375 
Q 14.984375 37.3125 14.984375 27.296875 
Q 14.984375 17.28125 19.8125 11.734375 
Q 24.65625 6.203125 33.40625 6.203125 
Q 37.3125 6.203125 41.140625 7.25 
Q 44.96875 8.296875 48.78125 10.40625 
L 48.78125 2.09375 
Q 45.015625 0.34375 40.984375 -0.53125 
Q 36.96875 -1.421875 32.421875 -1.421875 
Q 20.0625 -1.421875 12.78125 6.34375 
Q 5.515625 14.109375 5.515625 27.296875 
Q 5.515625 40.671875 12.859375 48.328125 
Q 20.21875 56 33.015625 56 
Q 37.15625 56 41.109375 55.140625 
Q 45.0625 54.296875 48.78125 52.59375 
z
" id="DejaVuSans-63"/>
     <path d="M 2.984375 54.6875 
L 12.5 54.6875 
L 29.59375 8.796875 
L 46.6875 54.6875 
L 56.203125 54.6875 
L 35.6875 0 
L 23.484375 0 
z
" id="DejaVuSans-76"/>
    </defs>
    <g transform="translate(89.3175 35.472)scale(0.12 -0.12)">
     <use xlink:href="#DejaVuSans-56"/>
     <use x="68.298828" xlink:href="#DejaVuSans-6f"/>
     <use x="129.480469" xlink:href="#DejaVuSans-6c"/>
     <use x="157.263672" xlink:href="#DejaVuSans-74"/>
     <use x="196.472656" xlink:href="#DejaVuSans-61"/>
     <use x="257.751953" xlink:href="#DejaVuSans-67"/>
     <use x="321.228516" xlink:href="#DejaVuSans-65"/>
     <use x="382.751953" xlink:href="#DejaVuSans-20"/>
     <use x="414.539062" xlink:href="#DejaVuSans-6d"/>
     <use x="511.951172" xlink:href="#DejaVuSans-65"/>
     <use x="573.474609" xlink:href="#DejaVuSans-61"/>
     <use x="634.753906" xlink:href="#DejaVuSans-73"/>
     <use x="686.853516" xlink:href="#DejaVuSans-75"/>
     <use x="750.232422" xlink:href="#DejaVuSans-72"/>
     <use x="791.314453" xlink:href="#DejaVuSans-65"/>
     <use x="852.837891" xlink:href="#DejaVuSans-64"/>
     <use x="916.314453" xlink:href="#DejaVuSans-20"/>
     <use x="948.101562" xlink:href="#DejaVuSans-77"/>
     <use x="1029.888672" xlink:href="#DejaVuSans-69"/>
     <use x="1057.671875" xlink:href="#DejaVuSans-74"/>
     <use x="1096.880859" xlink:href="#DejaVuSans-68"/>
     <use x="1160.259766" xlink:href="#DejaVuSans-20"/>
     <use x="1192.046875" xlink:href="#DejaVuSans-73"/>
     <use x="1244.146484" xlink:href="#DejaVuSans-6f"/>
     <use x="1305.328125" xlink:href="#DejaVuSans-75"/>
     <use x="1368.707031" xlink:href="#DejaVuSans-72"/>
     <use x="1409.789062" xlink:href="#DejaVuSans-63"/>
     <use x="1464.769531" xlink:href="#DejaVuSans-65"/>
     <use x="1526.292969" xlink:href="#DejaVuSans-20"/>
     <use x="1558.080078" xlink:href="#DejaVuSans-76"/>
     <use x="1617.259766" xlink:href="#DejaVuSans-6f"/>
     <use x="1678.441406" xlink:href="#DejaVuSans-6c"/>
     <use x="1706.224609" xlink:href="#DejaVuSans-74"/>
     <use x="1745.433594" xlink:href="#DejaVuSans-61"/>
     <use x="1806.712891" xlink:href="#DejaVuSans-67"/>
     <use x="1870.189453" xlink:href="#DejaVuSans-65"/>
     <use x="1931.712891" xlink:href="#DejaVuSans-20"/>
     <use x="1963.5" xlink:href="#DejaVuSans-31"/>
     <use x="2027.123047" xlink:href="#DejaVuSans-30"/>
     <use x="2090.746094" xlink:href="#DejaVuSans-30"/>
     <use x="2154.369141" xlink:href="#DejaVuSans-2e"/>
     <use x="2186.15625" xlink:href="#DejaVuSans-30"/>
     <use x="2249.779297" xlink:href="#DejaVuSans-20"/>
     <use x="2281.566406" xlink:href="#DejaVuSans-6d"/>
     <use x="2378.978516" xlink:href="#DejaVuSans-56"/>
    </g>
   </g>
  </g>
 </g>
 <defs>
  <clipPath id="p530cabf793">
   <rect height="266.112" width="357.12" x="57.6" y="41.472"/>
  </clipPath>
 </defs>
</svg>
