<?xml version="1.0" encoding="utf-8" standalone="no"?>
<!DOCTYPE svg PUBLIC "-//W3C//DTD SVG 1.1//EN"
  "http://www.w3.org/Graphics/SVG/1.1/DTD/svg11.dtd">
<!-- Created with matplotlib (http://matplotlib.org/) -->
<svg height="345pt" version="1.1" viewBox="0 0 460 345" width="460pt" xmlns="http://www.w3.org/2000/svg" xmlns:xlink="http://www.w3.org/1999/xlink">
 <defs>
  <style type="text/css">
*{stroke-linecap:butt;stroke-linejoin:round;}
  </style>
 </defs>
 <g id="figure_1">
  <g id="patch_1">
   <path d="M 0 345.6 
L 460.8 345.6 
L 460.8 0 
L 0 0 
z
" style="fill:#ffffff;"/>
  </g>
  <g id="axes_1">
   <g id="patch_2">
    <path d="M 57.6 307.584 
L 414.72 307.584 
L 414.72 41.472 
L 57.6 41.472 
z
" style="fill:#ffffff;"/>
   </g>
   <g id="matplotlib.axis_1">
    <g id="xtick_1">
     <g id="line2d_1">
      <defs>
       <path d="M 0 0 
L 0 3.5 
" id="mc1f855c0b5" style="stroke:#000000;stroke-width:0.8;"/>
      </defs>
      <g>
       <use style="stroke:#000000;stroke-width:0.8;" x="73.832727" xlink:href="#mc1f855c0b5" y="307.584"/>
      </g>
     </g>
     <g id="text_1">
      <!-- 0 -->
      <defs>
       <path d="M 31.78125 66.40625 
Q 24.171875 66.40625 20.328125 58.90625 
Q 16.5 51.421875 16.5 36.375 
Q 16.5 21.390625 20.328125 13.890625 
Q 24.171875 6.390625 31.78125 6.390625 
Q 39.453125 6.390625 43.28125 13.890625 
Q 47.125 21.390625 47.125 36.375 
Q 47.125 51.421875 43.28125 58.90625 
Q 39.453125 66.40625 31.78125 66.40625 
z
M 31.78125 74.21875 
Q 44.046875 74.21875 50.515625 64.515625 
Q 56.984375 54.828125 56.984375 36.375 
Q 56.984375 17.96875 50.515625 8.265625 
Q 44.046875 -1.421875 31.78125 -1.421875 
Q 19.53125 -1.421875 13.0625 8.265625 
Q 6.59375 17.96875 6.59375 36.375 
Q 6.59375 54.828125 13.0625 64.515625 
Q 19.53125 74.21875 31.78125 74.21875 
z
" id="DejaVuSans-30"/>
      </defs>
      <g transform="translate(70.651477 322.182437)scale(0.1 -0.1)">
       <use xlink:href="#DejaVuSans-30"/>
      </g>
     </g>
    </g>
    <g id="xtick_2">
     <g id="line2d_2">
      <g>
       <use style="stroke:#000000;stroke-width:0.8;" x="128.02374" xlink:href="#mc1f855c0b5" y="307.584"/>
      </g>
     </g>
     <g id="text_2">
      <!-- 100 -->
      <defs>
       <path d="M 12.40625 8.296875 
L 28.515625 8.296875 
L 28.515625 63.921875 
L 10.984375 60.40625 
L 10.984375 69.390625 
L 28.421875 72.90625 
L 38.28125 72.90625 
L 38.28125 8.296875 
L 54.390625 8.296875 
L 54.390625 0 
L 12.40625 0 
z
" id="DejaVuSans-31"/>
      </defs>
      <g transform="translate(118.47999 322.182437)scale(0.1 -0.1)">
       <use xlink:href="#DejaVuSans-31"/>
       <use x="63.623047" xlink:href="#DejaVuSans-30"/>
       <use x="127.246094" xlink:href="#DejaVuSans-30"/>
      </g>
     </g>
    </g>
    <g id="xtick_3">
     <g id="line2d_3">
      <g>
       <use style="stroke:#000000;stroke-width:0.8;" x="182.214752" xlink:href="#mc1f855c0b5" y="307.584"/>
      </g>
     </g>
     <g id="text_3">
      <!-- 200 -->
      <defs>
       <path d="M 19.1875 8.296875 
L 53.609375 8.296875 
L 53.609375 0 
L 7.328125 0 
L 7.328125 8.296875 
Q 12.9375 14.109375 22.625 23.890625 
Q 32.328125 33.6875 34.8125 36.53125 
Q 39.546875 41.84375 41.421875 45.53125 
Q 43.3125 49.21875 43.3125 52.78125 
Q 43.3125 58.59375 39.234375 62.25 
Q 35.15625 65.921875 28.609375 65.921875 
Q 23.96875 65.921875 18.8125 64.3125 
Q 13.671875 62.703125 7.8125 59.421875 
L 7.8125 69.390625 
Q 13.765625 71.78125 18.9375 73 
Q 24.125 74.21875 28.421875 74.21875 
Q 39.75 74.21875 46.484375 68.546875 
Q 53.21875 62.890625 53.21875 53.421875 
Q 53.21875 48.921875 51.53125 44.890625 
Q 49.859375 40.875 45.40625 35.40625 
Q 44.1875 33.984375 37.640625 27.21875 
Q 31.109375 20.453125 19.1875 8.296875 
z
" id="DejaVuSans-32"/>
      </defs>
      <g transform="translate(172.671002 322.182437)scale(0.1 -0.1)">
       <use xlink:href="#DejaVuSans-32"/>
       <use x="63.623047" xlink:href="#DejaVuSans-30"/>
       <use x="127.246094" xlink:href="#DejaVuSans-30"/>
      </g>
     </g>
    </g>
    <g id="xtick_4">
     <g id="line2d_4">
      <g>
       <use style="stroke:#000000;stroke-width:0.8;" x="236.405764" xlink:href="#mc1f855c0b5" y="307.584"/>
      </g>
     </g>
     <g id="text_4">
      <!-- 300 -->
      <defs>
       <path d="M 40.578125 39.3125 
Q 47.65625 37.796875 51.625 33 
Q 55.609375 28.21875 55.609375 21.1875 
Q 55.609375 10.40625 48.1875 4.484375 
Q 40.765625 -1.421875 27.09375 -1.421875 
Q 22.515625 -1.421875 17.65625 -0.515625 
Q 12.796875 0.390625 7.625 2.203125 
L 7.625 11.71875 
Q 11.71875 9.328125 16.59375 8.109375 
Q 21.484375 6.890625 26.8125 6.890625 
Q 36.078125 6.890625 40.9375 10.546875 
Q 45.796875 14.203125 45.796875 21.1875 
Q 45.796875 27.640625 41.28125 31.265625 
Q 36.765625 34.90625 28.71875 34.90625 
L 20.21875 34.90625 
L 20.21875 43.015625 
L 29.109375 43.015625 
Q 36.375 43.015625 40.234375 45.921875 
Q 44.09375 48.828125 44.09375 54.296875 
Q 44.09375 59.90625 40.109375 62.90625 
Q 36.140625 65.921875 28.71875 65.921875 
Q 24.65625 65.921875 20.015625 65.03125 
Q 15.375 64.15625 9.8125 62.3125 
L 9.8125 71.09375 
Q 15.4375 72.65625 20.34375 73.4375 
Q 25.25 74.21875 29.59375 74.21875 
Q 40.828125 74.21875 47.359375 69.109375 
Q 53.90625 64.015625 53.90625 55.328125 
Q 53.90625 49.265625 50.4375 45.09375 
Q 46.96875 40.921875 40.578125 39.3125 
z
" id="DejaVuSans-33"/>
      </defs>
      <g transform="translate(226.862014 322.182437)scale(0.1 -0.1)">
       <use xlink:href="#DejaVuSans-33"/>
       <use x="63.623047" xlink:href="#DejaVuSans-30"/>
       <use x="127.246094" xlink:href="#DejaVuSans-30"/>
      </g>
     </g>
    </g>
    <g id="xtick_5">
     <g id="line2d_5">
      <g>
       <use style="stroke:#000000;stroke-width:0.8;" x="290.596776" xlink:href="#mc1f855c0b5" y="307.584"/>
      </g>
     </g>
     <g id="text_5">
      <!-- 400 -->
      <defs>
       <path d="M 37.796875 64.3125 
L 12.890625 25.390625 
L 37.796875 25.390625 
z
M 35.203125 72.90625 
L 47.609375 72.90625 
L 47.609375 25.390625 
L 58.015625 25.390625 
L 58.015625 17.1875 
L 47.609375 17.1875 
L 47.609375 0 
L 37.796875 0 
L 37.796875 17.1875 
L 4.890625 17.1875 
L 4.890625 26.703125 
z
" id="DejaVuSans-34"/>
      </defs>
      <g transform="translate(281.053026 322.182437)scale(0.1 -0.1)">
       <use xlink:href="#DejaVuSans-34"/>
       <use x="63.623047" xlink:href="#DejaVuSans-30"/>
       <use x="127.246094" xlink:href="#DejaVuSans-30"/>
      </g>
     </g>
    </g>
    <g id="xtick_6">
     <g id="line2d_6">
      <g>
       <use style="stroke:#000000;stroke-width:0.8;" x="344.787789" xlink:href="#mc1f855c0b5" y="307.584"/>
      </g>
     </g>
     <g id="text_6">
      <!-- 500 -->
      <defs>
       <path d="M 10.796875 72.90625 
L 49.515625 72.90625 
L 49.515625 64.59375 
L 19.828125 64.59375 
L 19.828125 46.734375 
Q 21.96875 47.46875 24.109375 47.828125 
Q 26.265625 48.1875 28.421875 48.1875 
Q 40.625 48.1875 47.75 41.5 
Q 54.890625 34.8125 54.890625 23.390625 
Q 54.890625 11.625 47.5625 5.09375 
Q 40.234375 -1.421875 26.90625 -1.421875 
Q 22.3125 -1.421875 17.546875 -0.640625 
Q 12.796875 0.140625 7.71875 1.703125 
L 7.71875 11.625 
Q 12.109375 9.234375 16.796875 8.0625 
Q 21.484375 6.890625 26.703125 6.890625 
Q 35.15625 6.890625 40.078125 11.328125 
Q 45.015625 15.765625 45.015625 23.390625 
Q 45.015625 31 40.078125 35.4375 
Q 35.15625 39.890625 26.703125 39.890625 
Q 22.75 39.890625 18.8125 39.015625 
Q 14.890625 38.140625 10.796875 36.28125 
z
" id="DejaVuSans-35"/>
      </defs>
      <g transform="translate(335.244039 322.182437)scale(0.1 -0.1)">
       <use xlink:href="#DejaVuSans-35"/>
       <use x="63.623047" xlink:href="#DejaVuSans-30"/>
       <use x="127.246094" xlink:href="#DejaVuSans-30"/>
      </g>
     </g>
    </g>
    <g id="xtick_7">
     <g id="line2d_7">
      <g>
       <use style="stroke:#000000;stroke-width:0.8;" x="398.978801" xlink:href="#mc1f855c0b5" y="307.584"/>
      </g>
     </g>
     <g id="text_7">
      <!-- 600 -->
      <defs>
       <path d="M 33.015625 40.375 
Q 26.375 40.375 22.484375 35.828125 
Q 18.609375 31.296875 18.609375 23.390625 
Q 18.609375 15.53125 22.484375 10.953125 
Q 26.375 6.390625 33.015625 6.390625 
Q 39.65625 6.390625 43.53125 10.953125 
Q 47.40625 15.53125 47.40625 23.390625 
Q 47.40625 31.296875 43.53125 35.828125 
Q 39.65625 40.375 33.015625 40.375 
z
M 52.59375 71.296875 
L 52.59375 62.3125 
Q 48.875 64.0625 45.09375 64.984375 
Q 41.3125 65.921875 37.59375 65.921875 
Q 27.828125 65.921875 22.671875 59.328125 
Q 17.53125 52.734375 16.796875 39.40625 
Q 19.671875 43.65625 24.015625 45.921875 
Q 28.375 48.1875 33.59375 48.1875 
Q 44.578125 48.1875 50.953125 41.515625 
Q 57.328125 34.859375 57.328125 23.390625 
Q 57.328125 12.15625 50.6875 5.359375 
Q 44.046875 -1.421875 33.015625 -1.421875 
Q 20.359375 -1.421875 13.671875 8.265625 
Q 6.984375 17.96875 6.984375 36.375 
Q 6.984375 53.65625 15.1875 63.9375 
Q 23.390625 74.21875 37.203125 74.21875 
Q 40.921875 74.21875 44.703125 73.484375 
Q 48.484375 72.75 52.59375 71.296875 
z
" id="DejaVuSans-36"/>
      </defs>
      <g transform="translate(389.435051 322.182437)scale(0.1 -0.1)">
       <use xlink:href="#DejaVuSans-36"/>
       <use x="63.623047" xlink:href="#DejaVuSans-30"/>
       <use x="127.246094" xlink:href="#DejaVuSans-30"/>
      </g>
     </g>
    </g>
    <g id="text_8">
     <!-- t(s) -->
     <defs>
      <path d="M 18.3125 70.21875 
L 18.3125 54.6875 
L 36.8125 54.6875 
L 36.8125 47.703125 
L 18.3125 47.703125 
L 18.3125 18.015625 
Q 18.3125 11.328125 20.140625 9.421875 
Q 21.96875 7.515625 27.59375 7.515625 
L 36.8125 7.515625 
L 36.8125 0 
L 27.59375 0 
Q 17.1875 0 13.234375 3.875 
Q 9.28125 7.765625 9.28125 18.015625 
L 9.28125 47.703125 
L 2.6875 47.703125 
L 2.6875 54.6875 
L 9.28125 54.6875 
L 9.28125 70.21875 
z
" id="DejaVuSans-74"/>
      <path d="M 31 75.875 
Q 24.46875 64.65625 21.28125 53.65625 
Q 18.109375 42.671875 18.109375 31.390625 
Q 18.109375 20.125 21.3125 9.0625 
Q 24.515625 -2 31 -13.1875 
L 23.1875 -13.1875 
Q 15.875 -1.703125 12.234375 9.375 
Q 8.59375 20.453125 8.59375 31.390625 
Q 8.59375 42.28125 12.203125 53.3125 
Q 15.828125 64.359375 23.1875 75.875 
z
" id="DejaVuSans-28"/>
      <path d="M 44.28125 53.078125 
L 44.28125 44.578125 
Q 40.484375 46.53125 36.375 47.5 
Q 32.28125 48.484375 27.875 48.484375 
Q 21.1875 48.484375 17.84375 46.4375 
Q 14.5 44.390625 14.5 40.28125 
Q 14.5 37.15625 16.890625 35.375 
Q 19.28125 33.59375 26.515625 31.984375 
L 29.59375 31.296875 
Q 39.15625 29.25 43.1875 25.515625 
Q 47.21875 21.78125 47.21875 15.09375 
Q 47.21875 7.46875 41.1875 3.015625 
Q 35.15625 -1.421875 24.609375 -1.421875 
Q 20.21875 -1.421875 15.453125 -0.5625 
Q 10.6875 0.296875 5.421875 2 
L 5.421875 11.28125 
Q 10.40625 8.6875 15.234375 7.390625 
Q 20.0625 6.109375 24.8125 6.109375 
Q 31.15625 6.109375 34.5625 8.28125 
Q 37.984375 10.453125 37.984375 14.40625 
Q 37.984375 18.0625 35.515625 20.015625 
Q 33.0625 21.96875 24.703125 23.78125 
L 21.578125 24.515625 
Q 13.234375 26.265625 9.515625 29.90625 
Q 5.8125 33.546875 5.8125 39.890625 
Q 5.8125 47.609375 11.28125 51.796875 
Q 16.75 56 26.8125 56 
Q 31.78125 56 36.171875 55.265625 
Q 40.578125 54.546875 44.28125 53.078125 
z
" id="DejaVuSans-73"/>
      <path d="M 8.015625 75.875 
L 15.828125 75.875 
Q 23.140625 64.359375 26.78125 53.3125 
Q 30.421875 42.28125 30.421875 31.390625 
Q 30.421875 20.453125 26.78125 9.375 
Q 23.140625 -1.703125 15.828125 -13.1875 
L 8.015625 -13.1875 
Q 14.5 -2 17.703125 9.0625 
Q 20.90625 20.125 20.90625 31.390625 
Q 20.90625 42.671875 17.703125 53.65625 
Q 14.5 64.65625 8.015625 75.875 
z
" id="DejaVuSans-29"/>
     </defs>
     <g transform="translate(227.693594 335.860562)scale(0.1 -0.1)">
      <use xlink:href="#DejaVuSans-74"/>
      <use x="39.208984" xlink:href="#DejaVuSans-28"/>
      <use x="78.222656" xlink:href="#DejaVuSans-73"/>
      <use x="130.322266" xlink:href="#DejaVuSans-29"/>
     </g>
    </g>
   </g>
   <g id="matplotlib.axis_2">
    <g id="ytick_1">
     <g id="line2d_8">
      <defs>
       <path d="M 0 0 
L -3.5 0 
" id="maec48d585e" style="stroke:#000000;stroke-width:0.8;"/>
      </defs>
      <g>
       <use style="stroke:#000000;stroke-width:0.8;" x="57.6" xlink:href="#maec48d585e" y="275.553251"/>
      </g>
     </g>
     <g id="text_9">
      <!-- 2.66 -->
      <defs>
       <path d="M 10.6875 12.40625 
L 21 12.40625 
L 21 0 
L 10.6875 0 
z
" id="DejaVuSans-2e"/>
      </defs>
      <g transform="translate(28.334375 279.35247)scale(0.1 -0.1)">
       <use xlink:href="#DejaVuSans-32"/>
       <use x="63.623047" xlink:href="#DejaVuSans-2e"/>
       <use x="95.410156" xlink:href="#DejaVuSans-36"/>
       <use x="159.033203" xlink:href="#DejaVuSans-36"/>
      </g>
     </g>
    </g>
    <g id="ytick_2">
     <g id="line2d_9">
      <g>
       <use style="stroke:#000000;stroke-width:0.8;" x="57.6" xlink:href="#maec48d585e" y="241.765542"/>
      </g>
     </g>
     <g id="text_10">
      <!-- 2.67 -->
      <defs>
       <path d="M 8.203125 72.90625 
L 55.078125 72.90625 
L 55.078125 68.703125 
L 28.609375 0 
L 18.3125 0 
L 43.21875 64.59375 
L 8.203125 64.59375 
z
" id="DejaVuSans-37"/>
      </defs>
      <g transform="translate(28.334375 245.564761)scale(0.1 -0.1)">
       <use xlink:href="#DejaVuSans-32"/>
       <use x="63.623047" xlink:href="#DejaVuSans-2e"/>
       <use x="95.410156" xlink:href="#DejaVuSans-36"/>
       <use x="159.033203" xlink:href="#DejaVuSans-37"/>
      </g>
     </g>
    </g>
    <g id="ytick_3">
     <g id="line2d_10">
      <g>
       <use style="stroke:#000000;stroke-width:0.8;" x="57.6" xlink:href="#maec48d585e" y="207.977832"/>
      </g>
     </g>
     <g id="text_11">
      <!-- 2.68 -->
      <defs>
       <path d="M 31.78125 34.625 
Q 24.75 34.625 20.71875 30.859375 
Q 16.703125 27.09375 16.703125 20.515625 
Q 16.703125 13.921875 20.71875 10.15625 
Q 24.75 6.390625 31.78125 6.390625 
Q 38.8125 6.390625 42.859375 10.171875 
Q 46.921875 13.96875 46.921875 20.515625 
Q 46.921875 27.09375 42.890625 30.859375 
Q 38.875 34.625 31.78125 34.625 
z
M 21.921875 38.8125 
Q 15.578125 40.375 12.03125 44.71875 
Q 8.5 49.078125 8.5 55.328125 
Q 8.5 64.0625 14.71875 69.140625 
Q 20.953125 74.21875 31.78125 74.21875 
Q 42.671875 74.21875 48.875 69.140625 
Q 55.078125 64.0625 55.078125 55.328125 
Q 55.078125 49.078125 51.53125 44.71875 
Q 48 40.375 41.703125 38.8125 
Q 48.828125 37.15625 52.796875 32.3125 
Q 56.78125 27.484375 56.78125 20.515625 
Q 56.78125 9.90625 50.3125 4.234375 
Q 43.84375 -1.421875 31.78125 -1.421875 
Q 19.734375 -1.421875 13.25 4.234375 
Q 6.78125 9.90625 6.78125 20.515625 
Q 6.78125 27.484375 10.78125 32.3125 
Q 14.796875 37.15625 21.921875 38.8125 
z
M 18.3125 54.390625 
Q 18.3125 48.734375 21.84375 45.5625 
Q 25.390625 42.390625 31.78125 42.390625 
Q 38.140625 42.390625 41.71875 45.5625 
Q 45.3125 48.734375 45.3125 54.390625 
Q 45.3125 60.0625 41.71875 63.234375 
Q 38.140625 66.40625 31.78125 66.40625 
Q 25.390625 66.40625 21.84375 63.234375 
Q 18.3125 60.0625 18.3125 54.390625 
z
" id="DejaVuSans-38"/>
      </defs>
      <g transform="translate(28.334375 211.777051)scale(0.1 -0.1)">
       <use xlink:href="#DejaVuSans-32"/>
       <use x="63.623047" xlink:href="#DejaVuSans-2e"/>
       <use x="95.410156" xlink:href="#DejaVuSans-36"/>
       <use x="159.033203" xlink:href="#DejaVuSans-38"/>
      </g>
     </g>
    </g>
    <g id="ytick_4">
     <g id="line2d_11">
      <g>
       <use style="stroke:#000000;stroke-width:0.8;" x="57.6" xlink:href="#maec48d585e" y="174.190123"/>
      </g>
     </g>
     <g id="text_12">
      <!-- 2.69 -->
      <defs>
       <path d="M 10.984375 1.515625 
L 10.984375 10.5 
Q 14.703125 8.734375 18.5 7.8125 
Q 22.3125 6.890625 25.984375 6.890625 
Q 35.75 6.890625 40.890625 13.453125 
Q 46.046875 20.015625 46.78125 33.40625 
Q 43.953125 29.203125 39.59375 26.953125 
Q 35.25 24.703125 29.984375 24.703125 
Q 19.046875 24.703125 12.671875 31.3125 
Q 6.296875 37.9375 6.296875 49.421875 
Q 6.296875 60.640625 12.9375 67.421875 
Q 19.578125 74.21875 30.609375 74.21875 
Q 43.265625 74.21875 49.921875 64.515625 
Q 56.59375 54.828125 56.59375 36.375 
Q 56.59375 19.140625 48.40625 8.859375 
Q 40.234375 -1.421875 26.421875 -1.421875 
Q 22.703125 -1.421875 18.890625 -0.6875 
Q 15.09375 0.046875 10.984375 1.515625 
z
M 30.609375 32.421875 
Q 37.25 32.421875 41.125 36.953125 
Q 45.015625 41.5 45.015625 49.421875 
Q 45.015625 57.28125 41.125 61.84375 
Q 37.25 66.40625 30.609375 66.40625 
Q 23.96875 66.40625 20.09375 61.84375 
Q 16.21875 57.28125 16.21875 49.421875 
Q 16.21875 41.5 20.09375 36.953125 
Q 23.96875 32.421875 30.609375 32.421875 
z
" id="DejaVuSans-39"/>
      </defs>
      <g transform="translate(28.334375 177.989342)scale(0.1 -0.1)">
       <use xlink:href="#DejaVuSans-32"/>
       <use x="63.623047" xlink:href="#DejaVuSans-2e"/>
       <use x="95.410156" xlink:href="#DejaVuSans-36"/>
       <use x="159.033203" xlink:href="#DejaVuSans-39"/>
      </g>
     </g>
    </g>
    <g id="ytick_5">
     <g id="line2d_12">
      <g>
       <use style="stroke:#000000;stroke-width:0.8;" x="57.6" xlink:href="#maec48d585e" y="140.402413"/>
      </g>
     </g>
     <g id="text_13">
      <!-- 2.70 -->
      <g transform="translate(28.334375 144.201632)scale(0.1 -0.1)">
       <use xlink:href="#DejaVuSans-32"/>
       <use x="63.623047" xlink:href="#DejaVuSans-2e"/>
       <use x="95.410156" xlink:href="#DejaVuSans-37"/>
       <use x="159.033203" xlink:href="#DejaVuSans-30"/>
      </g>
     </g>
    </g>
    <g id="ytick_6">
     <g id="line2d_13">
      <g>
       <use style="stroke:#000000;stroke-width:0.8;" x="57.6" xlink:href="#maec48d585e" y="106.614704"/>
      </g>
     </g>
     <g id="text_14">
      <!-- 2.71 -->
      <g transform="translate(28.334375 110.413923)scale(0.1 -0.1)">
       <use xlink:href="#DejaVuSans-32"/>
       <use x="63.623047" xlink:href="#DejaVuSans-2e"/>
       <use x="95.410156" xlink:href="#DejaVuSans-37"/>
       <use x="159.033203" xlink:href="#DejaVuSans-31"/>
      </g>
     </g>
    </g>
    <g id="ytick_7">
     <g id="line2d_14">
      <g>
       <use style="stroke:#000000;stroke-width:0.8;" x="57.6" xlink:href="#maec48d585e" y="72.826994"/>
      </g>
     </g>
     <g id="text_15">
      <!-- 2.72 -->
      <g transform="translate(28.334375 76.626213)scale(0.1 -0.1)">
       <use xlink:href="#DejaVuSans-32"/>
       <use x="63.623047" xlink:href="#DejaVuSans-2e"/>
       <use x="95.410156" xlink:href="#DejaVuSans-37"/>
       <use x="159.033203" xlink:href="#DejaVuSans-32"/>
      </g>
     </g>
    </g>
    <g id="text_16">
     <!-- Current (nA) -->
     <defs>
      <path d="M 64.40625 67.28125 
L 64.40625 56.890625 
Q 59.421875 61.53125 53.78125 63.8125 
Q 48.140625 66.109375 41.796875 66.109375 
Q 29.296875 66.109375 22.65625 58.46875 
Q 16.015625 50.828125 16.015625 36.375 
Q 16.015625 21.96875 22.65625 14.328125 
Q 29.296875 6.6875 41.796875 6.6875 
Q 48.140625 6.6875 53.78125 8.984375 
Q 59.421875 11.28125 64.40625 15.921875 
L 64.40625 5.609375 
Q 59.234375 2.09375 53.4375 0.328125 
Q 47.65625 -1.421875 41.21875 -1.421875 
Q 24.65625 -1.421875 15.125 8.703125 
Q 5.609375 18.84375 5.609375 36.375 
Q 5.609375 53.953125 15.125 64.078125 
Q 24.65625 74.21875 41.21875 74.21875 
Q 47.75 74.21875 53.53125 72.484375 
Q 59.328125 70.75 64.40625 67.28125 
z
" id="DejaVuSans-43"/>
      <path d="M 8.5 21.578125 
L 8.5 54.6875 
L 17.484375 54.6875 
L 17.484375 21.921875 
Q 17.484375 14.15625 20.5 10.265625 
Q 23.53125 6.390625 29.59375 6.390625 
Q 36.859375 6.390625 41.078125 11.03125 
Q 45.3125 15.671875 45.3125 23.6875 
L 45.3125 54.6875 
L 54.296875 54.6875 
L 54.296875 0 
L 45.3125 0 
L 45.3125 8.40625 
Q 42.046875 3.421875 37.71875 1 
Q 33.40625 -1.421875 27.6875 -1.421875 
Q 18.265625 -1.421875 13.375 4.4375 
Q 8.5 10.296875 8.5 21.578125 
z
M 31.109375 56 
z
" id="DejaVuSans-75"/>
      <path d="M 41.109375 46.296875 
Q 39.59375 47.171875 37.8125 47.578125 
Q 36.03125 48 33.890625 48 
Q 26.265625 48 22.1875 43.046875 
Q 18.109375 38.09375 18.109375 28.8125 
L 18.109375 0 
L 9.078125 0 
L 9.078125 54.6875 
L 18.109375 54.6875 
L 18.109375 46.1875 
Q 20.953125 51.171875 25.484375 53.578125 
Q 30.03125 56 36.53125 56 
Q 37.453125 56 38.578125 55.875 
Q 39.703125 55.765625 41.0625 55.515625 
z
" id="DejaVuSans-72"/>
      <path d="M 56.203125 29.59375 
L 56.203125 25.203125 
L 14.890625 25.203125 
Q 15.484375 15.921875 20.484375 11.0625 
Q 25.484375 6.203125 34.421875 6.203125 
Q 39.59375 6.203125 44.453125 7.46875 
Q 49.3125 8.734375 54.109375 11.28125 
L 54.109375 2.78125 
Q 49.265625 0.734375 44.1875 -0.34375 
Q 39.109375 -1.421875 33.890625 -1.421875 
Q 20.796875 -1.421875 13.15625 6.1875 
Q 5.515625 13.8125 5.515625 26.8125 
Q 5.515625 40.234375 12.765625 48.109375 
Q 20.015625 56 32.328125 56 
Q 43.359375 56 49.78125 48.890625 
Q 56.203125 41.796875 56.203125 29.59375 
z
M 47.21875 32.234375 
Q 47.125 39.59375 43.09375 43.984375 
Q 39.0625 48.390625 32.421875 48.390625 
Q 24.90625 48.390625 20.390625 44.140625 
Q 15.875 39.890625 15.1875 32.171875 
z
" id="DejaVuSans-65"/>
      <path d="M 54.890625 33.015625 
L 54.890625 0 
L 45.90625 0 
L 45.90625 32.71875 
Q 45.90625 40.484375 42.875 44.328125 
Q 39.84375 48.1875 33.796875 48.1875 
Q 26.515625 48.1875 22.3125 43.546875 
Q 18.109375 38.921875 18.109375 30.90625 
L 18.109375 0 
L 9.078125 0 
L 9.078125 54.6875 
L 18.109375 54.6875 
L 18.109375 46.1875 
Q 21.34375 51.125 25.703125 53.5625 
Q 30.078125 56 35.796875 56 
Q 45.21875 56 50.046875 50.171875 
Q 54.890625 44.34375 54.890625 33.015625 
z
" id="DejaVuSans-6e"/>
      <path id="DejaVuSans-20"/>
      <path d="M 34.1875 63.1875 
L 20.796875 26.90625 
L 47.609375 26.90625 
z
M 28.609375 72.90625 
L 39.796875 72.90625 
L 67.578125 0 
L 57.328125 0 
L 50.6875 18.703125 
L 17.828125 18.703125 
L 11.1875 0 
L 0.78125 0 
z
" id="DejaVuSans-41"/>
     </defs>
     <g transform="translate(22.254687 205.581906)rotate(-90)scale(0.1 -0.1)">
      <use xlink:href="#DejaVuSans-43"/>
      <use x="69.824219" xlink:href="#DejaVuSans-75"/>
      <use x="133.203125" xlink:href="#DejaVuSans-72"/>
      <use x="174.300781" xlink:href="#DejaVuSans-72"/>
      <use x="215.382812" xlink:href="#DejaVuSans-65"/>
      <use x="276.90625" xlink:href="#DejaVuSans-6e"/>
      <use x="340.285156" xlink:href="#DejaVuSans-74"/>
      <use x="379.494141" xlink:href="#DejaVuSans-20"/>
      <use x="411.28125" xlink:href="#DejaVuSans-28"/>
      <use x="450.294922" xlink:href="#DejaVuSans-6e"/>
      <use x="513.673828" xlink:href="#DejaVuSans-41"/>
      <use x="582.082031" xlink:href="#DejaVuSans-29"/>
     </g>
    </g>
   </g>
   <g id="line2d_15">
    <path clip-path="url(#p9d2d01eca7)" d="M 73.832727 53.568 
L 74.374637 93.09962 
L 74.916548 61.001296 
L 75.458458 93.09962 
L 76.000368 72.489117 
L 76.542278 76.88152 
L 77.084188 102.560179 
L 77.626098 98.167777 
L 78.168008 120.129788 
L 78.709918 88.031464 
L 79.25237 97.154145 
L 79.79428 124.184313 
L 80.336191 105.601073 
L 80.878101 130.941855 
L 81.420011 132.63124 
L 81.961921 135.672134 
L 82.503831 142.429676 
L 83.045741 145.132693 
L 83.587651 155.94476 
L 84.129561 143.443307 
L 84.671472 145.132693 
L 85.213382 141.078168 
L 85.755292 156.958391 
L 86.297202 143.781184 
L 86.839112 159.323531 
L 87.381022 123.508559 
L 87.922932 135.672134 
L 88.464842 141.753922 
L 89.006753 137.36152 
L 90.090573 117.088894 
L 90.632483 121.819173 
L 91.174393 114.385877 
L 91.716303 109.317721 
L 92.258213 115.061631 
L 92.800123 123.170682 
L 93.342034 104.249564 
L 93.883944 112.020737 
L 94.425854 131.955486 
L 94.967764 125.197944 
L 95.509674 142.767553 
L 96.051584 141.753922 
L 96.593494 136.347888 
L 97.135404 145.132693 
L 97.677315 127.563084 
L 98.219225 132.969117 
L 98.761135 132.293363 
L 99.303045 136.685765 
L 99.844955 148.511464 
L 100.386865 146.822078 
L 100.928775 139.726659 
L 101.470685 144.119061 
L 102.012596 146.484201 
L 102.554506 125.535821 
L 103.096416 128.914592 
L 103.638326 124.184313 
L 104.180236 132.293363 
L 104.722688 121.143419 
L 105.806508 112.020737 
L 106.348418 120.805542 
L 106.890328 106.614704 
L 107.432239 128.914592 
L 107.974149 121.481296 
L 108.516059 144.794816 
L 109.057969 143.443307 
L 109.599879 131.955486 
L 110.141789 141.416045 
L 110.683699 129.928223 
L 111.225609 139.388782 
L 111.76752 143.443307 
L 112.30943 140.740291 
L 112.85134 153.57962 
L 113.39325 148.511464 
L 113.93516 139.726659 
L 114.47707 151.552358 
L 115.56089 146.822078 
L 116.102801 145.132693 
L 116.644711 138.375151 
L 117.186621 148.173587 
L 117.728531 142.429676 
L 118.270441 129.590346 
L 118.812351 130.941855 
L 119.354261 148.511464 
L 119.896171 150.876603 
L 120.438082 144.794816 
L 120.979992 149.525095 
L 121.521902 145.132693 
L 122.063812 152.228112 
L 122.605722 162.364425 
L 123.147632 164.05381 
L 123.689542 172.500737 
L 124.231452 174.190123 
L 124.773363 176.89314 
L 125.315273 180.947665 
L 125.857183 189.056715 
L 126.399093 182.63705 
L 126.941003 173.852246 
L 127.482913 182.299173 
L 128.024823 179.934034 
L 128.566733 209.329341 
L 130.192464 179.258279 
L 130.734374 186.691575 
L 131.276284 197.503642 
L 131.818194 197.84152 
L 132.360104 197.165765 
L 132.902014 176.555263 
L 133.443925 172.16286 
L 133.985835 166.41895 
L 134.527745 169.121966 
L 135.069655 167.094704 
L 135.611565 162.702302 
L 136.153475 157.296268 
L 136.695385 157.296268 
L 137.237295 107.628335 
L 137.779205 147.159955 
L 138.321116 136.685765 
L 138.863026 147.159955 
L 139.404936 153.57962 
L 139.946846 168.784089 
L 140.488756 127.900961 
L 141.030666 102.560179 
L 141.572576 123.508559 
L 142.114486 119.791911 
L 142.656397 105.263196 
L 143.198307 98.843531 
L 143.740217 114.723754 
L 144.282127 104.925318 
L 144.824037 100.195039 
L 145.365947 115.061631 
L 145.907857 106.614704 
L 146.449767 114.385877 
L 146.991678 124.52219 
L 147.533588 116.075263 
L 148.617408 148.173587 
L 149.159318 151.21448 
L 149.701228 161.68867 
L 150.243138 154.931128 
L 150.785048 164.729564 
L 151.326959 172.16286 
L 151.868869 176.555263 
L 152.410779 178.582525 
L 152.952689 177.568894 
L 153.494599 180.947665 
L 154.036509 181.623419 
L 154.578419 187.705207 
L 155.120329 204.936939 
L 155.66224 188.043084 
L 156.20415 217.100514 
L 156.74606 214.05962 
L 157.28797 217.438391 
L 157.82988 217.100514 
L 158.37179 215.073251 
L 158.9137 187.029453 
L 159.45561 176.555263 
L 159.997521 171.487106 
L 161.081341 143.781184 
L 161.623251 138.037274 
L 162.165161 120.129788 
L 162.707071 112.020737 
L 163.248981 142.091799 
L 163.790891 142.091799 
L 164.332802 142.767553 
L 164.874712 128.238838 
L 165.416622 133.306994 
L 165.958532 155.606883 
L 166.500442 153.241743 
L 167.042352 165.067441 
L 168.126172 158.647777 
L 168.668082 163.378056 
L 169.209993 143.781184 
L 169.751903 157.972022 
L 170.293813 147.497832 
L 170.835723 143.443307 
L 171.377633 177.231017 
L 171.919543 182.974927 
L 172.461453 170.811352 
L 173.003363 138.037274 
L 173.545274 149.525095 
L 174.087184 157.972022 
L 174.629094 133.306994 
L 175.171004 150.200849 
L 175.712914 160.337162 
L 176.254824 165.405318 
L 176.796734 138.713028 
L 177.338644 139.050905 
L 177.880555 149.525095 
L 178.422465 148.511464 
L 178.964375 131.617609 
L 179.506285 140.740291 
L 180.048195 146.146324 
L 180.590105 139.388782 
L 181.132015 118.778279 
L 181.673925 132.969117 
L 182.215836 130.603978 
L 182.757746 138.375151 
L 183.299656 150.200849 
L 183.841566 156.282637 
L 184.383476 154.255374 
L 184.925386 155.606883 
L 185.467296 150.538726 
L 186.009206 164.391687 
L 186.551117 168.108335 
L 187.093027 181.285542 
L 187.634937 178.244648 
L 188.176847 194.800626 
L 188.718757 195.138503 
L 189.260667 189.056715 
L 189.802577 211.018726 
L 190.344487 210.342972 
L 190.886398 216.086883 
L 191.428308 206.626324 
L 191.970218 218.789899 
L 192.512128 217.100514 
L 193.054038 239.738279 
L 193.595948 228.926212 
L 194.137858 228.588335 
L 194.679768 208.991464 
L 195.221678 219.127777 
L 195.763589 204.936939 
L 196.305499 207.639955 
L 196.847409 203.247553 
L 197.389319 180.609788 
L 197.931229 184.326436 
L 198.473139 192.773363 
L 199.015049 191.759732 
L 199.556959 190.070346 
L 200.09887 191.083978 
L 200.64078 176.217385 
L 201.18269 177.568894 
L 201.7246 156.620514 
L 202.26651 151.890235 
L 202.80842 150.200849 
L 203.35033 146.484201 
L 203.89224 149.525095 
L 204.434151 117.088894 
L 204.976061 126.88733 
L 206.059881 114.385877 
L 206.601791 111.007106 
L 207.143701 103.235933 
L 207.685611 124.184313 
L 208.227521 130.266101 
L 208.769432 126.88733 
L 209.311342 135.334257 
L 209.853252 146.146324 
L 212.020892 199.193028 
L 212.562802 186.353698 
L 213.104713 205.612693 
L 213.646623 208.653587 
L 214.188533 224.195933 
L 214.730443 211.69448 
L 215.272353 220.141408 
L 215.814263 202.909676 
L 216.356173 204.936939 
L 217.439994 231.967106 
L 217.981904 228.250458 
L 218.523814 231.967106 
L 219.065724 198.517274 
L 219.607634 228.588335 
L 220.149544 214.05962 
L 220.691454 223.858056 
L 221.233364 208.991464 
L 221.775275 186.691575 
L 222.317185 180.947665 
L 222.859095 184.326436 
L 223.401005 176.89314 
L 223.942915 158.985654 
L 224.484825 149.862972 
L 225.026735 130.941855 
L 225.568645 120.805542 
L 226.110555 141.753922 
L 226.652466 95.802637 
L 227.194376 114.048 
L 227.736286 118.102525 
L 228.278196 93.09962 
L 228.820106 109.317721 
L 229.362016 129.590346 
L 229.903926 127.900961 
L 230.445836 147.497832 
L 230.987747 159.323531 
L 231.529657 174.528 
L 232.071567 180.271911 
L 232.613477 201.220291 
L 233.155387 199.868782 
L 233.697297 215.411128 
L 234.239207 202.233922 
L 234.781117 209.667218 
L 235.323028 235.345877 
L 235.864938 224.871687 
L 236.406848 232.64286 
L 236.948758 221.830793 
L 237.490668 257.307888 
L 238.032578 254.942749 
L 238.574488 243.11705 
L 239.116398 256.632134 
L 239.658309 256.294257 
L 240.200219 230.615598 
L 240.742129 223.520179 
L 241.284039 200.882413 
L 241.825949 188.380961 
L 242.367859 164.05381 
L 242.909769 153.57962 
L 243.451679 147.835709 
L 243.99359 143.443307 
L 244.5355 129.928223 
L 245.07741 107.290458 
L 245.61932 116.41314 
L 246.16123 129.590346 
L 246.70314 95.46476 
L 247.24505 116.075263 
L 247.78696 125.197944 
L 248.328871 124.52219 
L 248.870781 131.955486 
L 249.412691 159.999285 
L 249.954601 177.568894 
L 250.496511 176.217385 
L 251.038421 207.302078 
L 251.580331 216.762637 
L 252.122241 238.724648 
L 252.664151 224.53381 
L 253.206062 248.860961 
L 253.747972 256.632134 
L 254.289882 241.089788 
L 255.373702 269.809341 
L 255.915612 253.59124 
L 256.457522 261.362413 
L 256.999432 229.264089 
L 257.541343 210.005095 
L 258.083253 208.315709 
L 258.625163 204.936939 
L 259.167073 189.394592 
L 259.708983 185.340067 
L 260.250893 168.108335 
L 260.792803 166.081073 
L 261.334713 160.337162 
L 261.876624 150.200849 
L 262.418534 143.781184 
L 262.960444 139.388782 
L 263.502354 141.416045 
L 264.044264 139.726659 
L 264.586174 115.737385 
L 265.128084 130.266101 
L 265.669994 123.846436 
L 266.211905 141.753922 
L 266.753815 132.63124 
L 267.295725 155.606883 
L 268.379545 165.743196 
L 268.921455 173.514369 
L 269.463365 182.974927 
L 270.005275 199.868782 
L 270.547186 193.11124 
L 271.089096 206.288447 
L 271.631006 215.749006 
L 272.172916 236.359508 
L 272.714826 251.226101 
L 273.256736 269.471464 
L 273.798646 277.918391 
L 274.340556 260.686659 
L 274.882467 271.160849 
L 275.424377 295.488 
L 276.508197 242.779173 
L 277.050107 210.680849 
L 277.592017 194.800626 
L 278.133927 191.083978 
L 278.675837 169.121966 
L 279.217748 155.269006 
L 279.759658 164.05381 
L 280.301568 160.337162 
L 280.843478 141.416045 
L 281.385388 129.590346 
L 281.927298 148.511464 
L 282.469208 119.454034 
L 283.011118 118.778279 
L 283.553028 105.263196 
L 284.094939 101.884425 
L 284.636849 117.426771 
L 286.262579 179.596156 
L 286.804489 187.705207 
L 287.346399 204.599061 
L 287.888309 202.233922 
L 288.43022 227.574704 
L 288.97213 243.454927 
L 289.51404 242.103419 
L 290.05595 276.229006 
L 290.59786 261.024536 
L 291.13977 283.324425 
L 291.68168 272.512358 
L 292.22359 278.256268 
L 293.307411 253.253363 
L 293.849321 212.370235 
L 294.391231 200.206659 
L 295.475051 150.200849 
L 296.016961 162.026547 
L 296.558871 140.740291 
L 297.642692 120.467665 
L 298.184602 145.808447 
L 298.726512 132.293363 
L 299.268422 124.184313 
L 299.810332 129.590346 
L 300.352242 139.726659 
L 300.894152 145.47057 
L 301.436063 161.68867 
L 301.977973 163.378056 
L 302.519883 163.378056 
L 303.061793 168.446212 
L 303.603703 181.961296 
L 304.145613 186.691575 
L 304.687523 189.732469 
L 305.771344 207.639955 
L 306.313254 208.315709 
L 306.855164 214.05962 
L 307.397074 225.885318 
L 307.938984 244.468559 
L 308.480894 257.307888 
L 309.022804 238.048894 
L 309.564714 252.239732 
L 310.106625 272.850235 
L 310.648535 268.457832 
L 311.190445 256.632134 
L 311.732355 260.348782 
L 312.816175 209.667218 
L 313.358085 183.312804 
L 314.441905 167.094704 
L 314.983816 140.064536 
L 315.525726 128.576715 
L 316.609546 83.976939 
L 317.151456 71.813363 
L 318.235276 116.751017 
L 318.777186 116.751017 
L 319.319097 155.269006 
L 319.861007 164.729564 
L 320.402917 179.596156 
L 320.944827 188.043084 
L 321.486737 202.571799 
L 322.028647 211.018726 
L 322.570557 193.11124 
L 323.112467 212.370235 
L 323.654378 217.776268 
L 324.196288 217.438391 
L 324.738198 220.141408 
L 325.280108 227.236827 
L 325.822018 217.438391 
L 326.363928 225.547441 
L 326.905838 243.454927 
L 327.447748 244.468559 
L 327.989659 240.414034 
L 328.531569 238.386771 
L 329.073479 212.032358 
L 329.615389 237.035263 
L 330.157299 238.724648 
L 330.699209 259.673028 
L 331.783029 206.964201 
L 332.32494 231.291352 
L 332.86685 235.683754 
L 333.40876 234.670123 
L 333.95067 209.667218 
L 334.49258 217.438391 
L 335.03449 199.193028 
L 335.5764 221.492916 
L 336.11831 201.558168 
L 336.660221 131.279732 
L 337.202131 159.661408 
L 337.744041 148.511464 
L 338.285951 158.309899 
L 338.827861 172.838615 
L 339.369771 166.756827 
L 339.911681 167.432581 
L 340.453591 171.487106 
L 340.995501 173.514369 
L 341.537412 166.756827 
L 342.079322 149.525095 
L 342.621232 170.473475 
L 343.163142 145.808447 
L 343.705052 155.94476 
L 344.246952 142.429676 
L 344.78935 122.832804 
L 345.331748 171.824983 
L 345.874145 187.36733 
L 346.416543 196.152134 
L 346.958941 211.356603 
L 347.501339 209.329341 
L 348.043737 237.711017 
L 349.128532 224.871687 
L 350.213328 180.609788 
L 350.755725 166.41895 
L 351.298123 171.487106 
L 351.840521 123.170682 
L 352.382919 133.306994 
L 352.925317 151.21448 
L 353.467715 186.353698 
L 354.010112 205.95057 
L 354.55251 213.721743 
L 355.094908 224.195933 
L 355.637306 246.833698 
L 356.179703 231.967106 
L 356.722101 226.89895 
L 357.264499 195.47638 
L 357.806897 186.353698 
L 358.349295 188.718838 
L 358.891692 176.89314 
L 359.43409 206.626324 
L 359.976488 189.394592 
L 360.518886 189.732469 
L 361.061284 168.446212 
L 361.603681 177.906771 
L 362.146079 200.882413 
L 362.688477 190.408223 
L 363.230875 188.380961 
L 363.773272 203.923307 
L 364.31567 215.073251 
L 365.400466 197.84152 
L 365.942864 227.574704 
L 366.485261 192.773363 
L 367.027659 193.786994 
L 367.570057 197.84152 
L 368.112997 174.190123 
L 368.655394 182.299173 
L 369.197792 161.68867 
L 369.74019 150.876603 
L 370.282588 172.16286 
L 371.367383 196.490011 
L 371.909781 199.193028 
L 372.994577 213.383866 
L 373.536974 212.708112 
L 374.079372 218.789899 
L 374.62177 207.302078 
L 375.164168 214.735374 
L 375.706566 204.261184 
L 376.248963 183.650682 
L 376.791361 169.121966 
L 377.333759 169.121966 
L 377.876157 146.484201 
L 378.418555 146.146324 
L 378.960952 157.634145 
L 380.045748 210.680849 
L 380.588146 233.656492 
L 381.130543 236.359508 
L 381.672941 248.523084 
L 382.215339 247.171575 
L 383.842532 166.41895 
L 384.38493 168.446212 
L 384.927328 141.753922 
L 385.469726 142.429676 
L 386.012124 141.078168 
L 386.554521 169.459844 
L 387.639317 210.680849 
L 388.181715 201.558168 
L 388.724113 208.991464 
L 389.26651 230.953475 
L 389.808908 224.195933 
L 390.351306 226.223196 
L 390.893704 204.936939 
L 391.436101 195.47638 
L 391.978499 182.63705 
L 392.520897 185.340067 
L 393.063295 181.623419 
L 393.605693 194.462749 
L 394.14809 174.528 
L 394.690488 191.759732 
L 395.232886 178.582525 
L 395.775284 195.47638 
L 396.317682 194.124872 
L 396.860079 207.302078 
L 397.402477 209.329341 
L 397.944875 202.233922 
L 398.487273 210.680849 
L 398.487273 210.680849 
" style="fill:none;stroke:#1f77b4;stroke-linecap:square;stroke-width:1.5;"/>
   </g>
   <g id="patch_3">
    <path d="M 57.6 307.584 
L 57.6 41.472 
" style="fill:none;stroke:#000000;stroke-linecap:square;stroke-linejoin:miter;stroke-width:0.8;"/>
   </g>
   <g id="patch_4">
    <path d="M 414.72 307.584 
L 414.72 41.472 
" style="fill:none;stroke:#000000;stroke-linecap:square;stroke-linejoin:miter;stroke-width:0.8;"/>
   </g>
   <g id="patch_5">
    <path d="M 57.6 307.584 
L 414.72 307.584 
" style="fill:none;stroke:#000000;stroke-linecap:square;stroke-linejoin:miter;stroke-width:0.8;"/>
   </g>
   <g id="patch_6">
    <path d="M 57.6 41.472 
L 414.72 41.472 
" style="fill:none;stroke:#000000;stroke-linecap:square;stroke-linejoin:miter;stroke-width:0.8;"/>
   </g>
   <g id="text_17">
    <!-- Current with source voltage 100.0 mV -->
    <defs>
     <path d="M 4.203125 54.6875 
L 13.1875 54.6875 
L 24.421875 12.015625 
L 35.59375 54.6875 
L 46.1875 54.6875 
L 57.421875 12.015625 
L 68.609375 54.6875 
L 77.59375 54.6875 
L 63.28125 0 
L 52.6875 0 
L 40.921875 44.828125 
L 29.109375 0 
L 18.5 0 
z
" id="DejaVuSans-77"/>
     <path d="M 9.421875 54.6875 
L 18.40625 54.6875 
L 18.40625 0 
L 9.421875 0 
z
M 9.421875 75.984375 
L 18.40625 75.984375 
L 18.40625 64.59375 
L 9.421875 64.59375 
z
" id="DejaVuSans-69"/>
     <path d="M 54.890625 33.015625 
L 54.890625 0 
L 45.90625 0 
L 45.90625 32.71875 
Q 45.90625 40.484375 42.875 44.328125 
Q 39.84375 48.1875 33.796875 48.1875 
Q 26.515625 48.1875 22.3125 43.546875 
Q 18.109375 38.921875 18.109375 30.90625 
L 18.109375 0 
L 9.078125 0 
L 9.078125 75.984375 
L 18.109375 75.984375 
L 18.109375 46.1875 
Q 21.34375 51.125 25.703125 53.5625 
Q 30.078125 56 35.796875 56 
Q 45.21875 56 50.046875 50.171875 
Q 54.890625 44.34375 54.890625 33.015625 
z
" id="DejaVuSans-68"/>
     <path d="M 30.609375 48.390625 
Q 23.390625 48.390625 19.1875 42.75 
Q 14.984375 37.109375 14.984375 27.296875 
Q 14.984375 17.484375 19.15625 11.84375 
Q 23.34375 6.203125 30.609375 6.203125 
Q 37.796875 6.203125 41.984375 11.859375 
Q 46.1875 17.53125 46.1875 27.296875 
Q 46.1875 37.015625 41.984375 42.703125 
Q 37.796875 48.390625 30.609375 48.390625 
z
M 30.609375 56 
Q 42.328125 56 49.015625 48.375 
Q 55.71875 40.765625 55.71875 27.296875 
Q 55.71875 13.875 49.015625 6.21875 
Q 42.328125 -1.421875 30.609375 -1.421875 
Q 18.84375 -1.421875 12.171875 6.21875 
Q 5.515625 13.875 5.515625 27.296875 
Q 5.515625 40.765625 12.171875 48.375 
Q 18.84375 56 30.609375 56 
z
" id="DejaVuSans-6f"/>
     <path d="M 48.78125 52.59375 
L 48.78125 44.1875 
Q 44.96875 46.296875 41.140625 47.34375 
Q 37.3125 48.390625 33.40625 48.390625 
Q 24.65625 48.390625 19.8125 42.84375 
Q 14.984375 37.3125 14.984375 27.296875 
Q 14.984375 17.28125 19.8125 11.734375 
Q 24.65625 6.203125 33.40625 6.203125 
Q 37.3125 6.203125 41.140625 7.25 
Q 44.96875 8.296875 48.78125 10.40625 
L 48.78125 2.09375 
Q 45.015625 0.34375 40.984375 -0.53125 
Q 36.96875 -1.421875 32.421875 -1.421875 
Q 20.0625 -1.421875 12.78125 6.34375 
Q 5.515625 14.109375 5.515625 27.296875 
Q 5.515625 40.671875 12.859375 48.328125 
Q 20.21875 56 33.015625 56 
Q 37.15625 56 41.109375 55.140625 
Q 45.0625 54.296875 48.78125 52.59375 
z
" id="DejaVuSans-63"/>
     <path d="M 2.984375 54.6875 
L 12.5 54.6875 
L 29.59375 8.796875 
L 46.6875 54.6875 
L 56.203125 54.6875 
L 35.6875 0 
L 23.484375 0 
z
" id="DejaVuSans-76"/>
     <path d="M 9.421875 75.984375 
L 18.40625 75.984375 
L 18.40625 0 
L 9.421875 0 
z
" id="DejaVuSans-6c"/>
     <path d="M 34.28125 27.484375 
Q 23.390625 27.484375 19.1875 25 
Q 14.984375 22.515625 14.984375 16.5 
Q 14.984375 11.71875 18.140625 8.90625 
Q 21.296875 6.109375 26.703125 6.109375 
Q 34.1875 6.109375 38.703125 11.40625 
Q 43.21875 16.703125 43.21875 25.484375 
L 43.21875 27.484375 
z
M 52.203125 31.203125 
L 52.203125 0 
L 43.21875 0 
L 43.21875 8.296875 
Q 40.140625 3.328125 35.546875 0.953125 
Q 30.953125 -1.421875 24.3125 -1.421875 
Q 15.921875 -1.421875 10.953125 3.296875 
Q 6 8.015625 6 15.921875 
Q 6 25.140625 12.171875 29.828125 
Q 18.359375 34.515625 30.609375 34.515625 
L 43.21875 34.515625 
L 43.21875 35.40625 
Q 43.21875 41.609375 39.140625 45 
Q 35.0625 48.390625 27.6875 48.390625 
Q 23 48.390625 18.546875 47.265625 
Q 14.109375 46.140625 10.015625 43.890625 
L 10.015625 52.203125 
Q 14.9375 54.109375 19.578125 55.046875 
Q 24.21875 56 28.609375 56 
Q 40.484375 56 46.34375 49.84375 
Q 52.203125 43.703125 52.203125 31.203125 
z
" id="DejaVuSans-61"/>
     <path d="M 45.40625 27.984375 
Q 45.40625 37.75 41.375 43.109375 
Q 37.359375 48.484375 30.078125 48.484375 
Q 22.859375 48.484375 18.828125 43.109375 
Q 14.796875 37.75 14.796875 27.984375 
Q 14.796875 18.265625 18.828125 12.890625 
Q 22.859375 7.515625 30.078125 7.515625 
Q 37.359375 7.515625 41.375 12.890625 
Q 45.40625 18.265625 45.40625 27.984375 
z
M 54.390625 6.78125 
Q 54.390625 -7.171875 48.1875 -13.984375 
Q 42 -20.796875 29.203125 -20.796875 
Q 24.46875 -20.796875 20.265625 -20.09375 
Q 16.0625 -19.390625 12.109375 -17.921875 
L 12.109375 -9.1875 
Q 16.0625 -11.328125 19.921875 -12.34375 
Q 23.78125 -13.375 27.78125 -13.375 
Q 36.625 -13.375 41.015625 -8.765625 
Q 45.40625 -4.15625 45.40625 5.171875 
L 45.40625 9.625 
Q 42.625 4.78125 38.28125 2.390625 
Q 33.9375 0 27.875 0 
Q 17.828125 0 11.671875 7.65625 
Q 5.515625 15.328125 5.515625 27.984375 
Q 5.515625 40.671875 11.671875 48.328125 
Q 17.828125 56 27.875 56 
Q 33.9375 56 38.28125 53.609375 
Q 42.625 51.21875 45.40625 46.390625 
L 45.40625 54.6875 
L 54.390625 54.6875 
z
" id="DejaVuSans-67"/>
     <path d="M 52 44.1875 
Q 55.375 50.25 60.0625 53.125 
Q 64.75 56 71.09375 56 
Q 79.640625 56 84.28125 50.015625 
Q 88.921875 44.046875 88.921875 33.015625 
L 88.921875 0 
L 79.890625 0 
L 79.890625 32.71875 
Q 79.890625 40.578125 77.09375 44.375 
Q 74.3125 48.1875 68.609375 48.1875 
Q 61.625 48.1875 57.5625 43.546875 
Q 53.515625 38.921875 53.515625 30.90625 
L 53.515625 0 
L 44.484375 0 
L 44.484375 32.71875 
Q 44.484375 40.625 41.703125 44.40625 
Q 38.921875 48.1875 33.109375 48.1875 
Q 26.21875 48.1875 22.15625 43.53125 
Q 18.109375 38.875 18.109375 30.90625 
L 18.109375 0 
L 9.078125 0 
L 9.078125 54.6875 
L 18.109375 54.6875 
L 18.109375 46.1875 
Q 21.1875 51.21875 25.484375 53.609375 
Q 29.78125 56 35.6875 56 
Q 41.65625 56 45.828125 52.96875 
Q 50 49.953125 52 44.1875 
z
" id="DejaVuSans-6d"/>
     <path d="M 28.609375 0 
L 0.78125 72.90625 
L 11.078125 72.90625 
L 34.1875 11.53125 
L 57.328125 72.90625 
L 67.578125 72.90625 
L 39.796875 0 
z
" id="DejaVuSans-56"/>
    </defs>
    <g transform="translate(121.528125 35.472)scale(0.12 -0.12)">
     <use xlink:href="#DejaVuSans-43"/>
     <use x="69.824219" xlink:href="#DejaVuSans-75"/>
     <use x="133.203125" xlink:href="#DejaVuSans-72"/>
     <use x="174.300781" xlink:href="#DejaVuSans-72"/>
     <use x="215.382812" xlink:href="#DejaVuSans-65"/>
     <use x="276.90625" xlink:href="#DejaVuSans-6e"/>
     <use x="340.285156" xlink:href="#DejaVuSans-74"/>
     <use x="379.494141" xlink:href="#DejaVuSans-20"/>
     <use x="411.28125" xlink:href="#DejaVuSans-77"/>
     <use x="493.068359" xlink:href="#DejaVuSans-69"/>
     <use x="520.851562" xlink:href="#DejaVuSans-74"/>
     <use x="560.060547" xlink:href="#DejaVuSans-68"/>
     <use x="623.439453" xlink:href="#DejaVuSans-20"/>
     <use x="655.226562" xlink:href="#DejaVuSans-73"/>
     <use x="707.326172" xlink:href="#DejaVuSans-6f"/>
     <use x="768.507812" xlink:href="#DejaVuSans-75"/>
     <use x="831.886719" xlink:href="#DejaVuSans-72"/>
     <use x="872.96875" xlink:href="#DejaVuSans-63"/>
     <use x="927.949219" xlink:href="#DejaVuSans-65"/>
     <use x="989.472656" xlink:href="#DejaVuSans-20"/>
     <use x="1021.259766" xlink:href="#DejaVuSans-76"/>
     <use x="1080.439453" xlink:href="#DejaVuSans-6f"/>
     <use x="1141.621094" xlink:href="#DejaVuSans-6c"/>
     <use x="1169.404297" xlink:href="#DejaVuSans-74"/>
     <use x="1208.613281" xlink:href="#DejaVuSans-61"/>
     <use x="1269.892578" xlink:href="#DejaVuSans-67"/>
     <use x="1333.369141" xlink:href="#DejaVuSans-65"/>
     <use x="1394.892578" xlink:href="#DejaVuSans-20"/>
     <use x="1426.679688" xlink:href="#DejaVuSans-31"/>
     <use x="1490.302734" xlink:href="#DejaVuSans-30"/>
     <use x="1553.925781" xlink:href="#DejaVuSans-30"/>
     <use x="1617.548828" xlink:href="#DejaVuSans-2e"/>
     <use x="1649.335938" xlink:href="#DejaVuSans-30"/>
     <use x="1712.958984" xlink:href="#DejaVuSans-20"/>
     <use x="1744.746094" xlink:href="#DejaVuSans-6d"/>
     <use x="1842.158203" xlink:href="#DejaVuSans-56"/>
    </g>
   </g>
  </g>
 </g>
 <defs>
  <clipPath id="p9d2d01eca7">
   <rect height="266.112" width="357.12" x="57.6" y="41.472"/>
  </clipPath>
 </defs>
</svg>
