<?xml version="1.0" encoding="utf-8" standalone="no"?>
<!DOCTYPE svg PUBLIC "-//W3C//DTD SVG 1.1//EN"
  "http://www.w3.org/Graphics/SVG/1.1/DTD/svg11.dtd">
<!-- Created with matplotlib (http://matplotlib.org/) -->
<svg height="345pt" version="1.1" viewBox="0 0 460 345" width="460pt" xmlns="http://www.w3.org/2000/svg" xmlns:xlink="http://www.w3.org/1999/xlink">
 <defs>
  <style type="text/css">
*{stroke-linecap:butt;stroke-linejoin:round;}
  </style>
 </defs>
 <g id="figure_1">
  <g id="patch_1">
   <path d="M 0 345.6 
L 460.8 345.6 
L 460.8 0 
L 0 0 
z
" style="fill:#ffffff;"/>
  </g>
  <g id="axes_1">
   <g id="patch_2">
    <path d="M 57.6 307.584 
L 414.72 307.584 
L 414.72 41.472 
L 57.6 41.472 
z
" style="fill:#ffffff;"/>
   </g>
   <g id="matplotlib.axis_1">
    <g id="xtick_1">
     <g id="line2d_1">
      <path clip-path="url(#pe017b855ae)" d="M 73.832727 307.584 
L 73.832727 41.472 
" style="fill:none;stroke:#b0b0b0;stroke-linecap:square;stroke-width:0.8;"/>
     </g>
     <g id="line2d_2">
      <defs>
       <path d="M 0 0 
L 0 3.5 
" id="m764a0e3e46" style="stroke:#000000;stroke-width:0.8;"/>
      </defs>
      <g>
       <use style="stroke:#000000;stroke-width:0.8;" x="73.832727" xlink:href="#m764a0e3e46" y="307.584"/>
      </g>
     </g>
     <g id="text_1">
      <!-- 0 -->
      <defs>
       <path d="M 31.78125 66.40625 
Q 24.171875 66.40625 20.328125 58.90625 
Q 16.5 51.421875 16.5 36.375 
Q 16.5 21.390625 20.328125 13.890625 
Q 24.171875 6.390625 31.78125 6.390625 
Q 39.453125 6.390625 43.28125 13.890625 
Q 47.125 21.390625 47.125 36.375 
Q 47.125 51.421875 43.28125 58.90625 
Q 39.453125 66.40625 31.78125 66.40625 
z
M 31.78125 74.21875 
Q 44.046875 74.21875 50.515625 64.515625 
Q 56.984375 54.828125 56.984375 36.375 
Q 56.984375 17.96875 50.515625 8.265625 
Q 44.046875 -1.421875 31.78125 -1.421875 
Q 19.53125 -1.421875 13.0625 8.265625 
Q 6.59375 17.96875 6.59375 36.375 
Q 6.59375 54.828125 13.0625 64.515625 
Q 19.53125 74.21875 31.78125 74.21875 
z
" id="DejaVuSans-30"/>
      </defs>
      <g transform="translate(70.651477 322.182437)scale(0.1 -0.1)">
       <use xlink:href="#DejaVuSans-30"/>
      </g>
     </g>
    </g>
    <g id="xtick_2">
     <g id="line2d_3">
      <path clip-path="url(#pe017b855ae)" d="M 145.976978 307.584 
L 145.976978 41.472 
" style="fill:none;stroke:#b0b0b0;stroke-linecap:square;stroke-width:0.8;"/>
     </g>
     <g id="line2d_4">
      <g>
       <use style="stroke:#000000;stroke-width:0.8;" x="145.976978" xlink:href="#m764a0e3e46" y="307.584"/>
      </g>
     </g>
     <g id="text_2">
      <!-- 200 -->
      <defs>
       <path d="M 19.1875 8.296875 
L 53.609375 8.296875 
L 53.609375 0 
L 7.328125 0 
L 7.328125 8.296875 
Q 12.9375 14.109375 22.625 23.890625 
Q 32.328125 33.6875 34.8125 36.53125 
Q 39.546875 41.84375 41.421875 45.53125 
Q 43.3125 49.21875 43.3125 52.78125 
Q 43.3125 58.59375 39.234375 62.25 
Q 35.15625 65.921875 28.609375 65.921875 
Q 23.96875 65.921875 18.8125 64.3125 
Q 13.671875 62.703125 7.8125 59.421875 
L 7.8125 69.390625 
Q 13.765625 71.78125 18.9375 73 
Q 24.125 74.21875 28.421875 74.21875 
Q 39.75 74.21875 46.484375 68.546875 
Q 53.21875 62.890625 53.21875 53.421875 
Q 53.21875 48.921875 51.53125 44.890625 
Q 49.859375 40.875 45.40625 35.40625 
Q 44.1875 33.984375 37.640625 27.21875 
Q 31.109375 20.453125 19.1875 8.296875 
z
" id="DejaVuSans-32"/>
      </defs>
      <g transform="translate(136.433228 322.182437)scale(0.1 -0.1)">
       <use xlink:href="#DejaVuSans-32"/>
       <use x="63.623047" xlink:href="#DejaVuSans-30"/>
       <use x="127.246094" xlink:href="#DejaVuSans-30"/>
      </g>
     </g>
    </g>
    <g id="xtick_3">
     <g id="line2d_5">
      <path clip-path="url(#pe017b855ae)" d="M 218.121229 307.584 
L 218.121229 41.472 
" style="fill:none;stroke:#b0b0b0;stroke-linecap:square;stroke-width:0.8;"/>
     </g>
     <g id="line2d_6">
      <g>
       <use style="stroke:#000000;stroke-width:0.8;" x="218.121229" xlink:href="#m764a0e3e46" y="307.584"/>
      </g>
     </g>
     <g id="text_3">
      <!-- 400 -->
      <defs>
       <path d="M 37.796875 64.3125 
L 12.890625 25.390625 
L 37.796875 25.390625 
z
M 35.203125 72.90625 
L 47.609375 72.90625 
L 47.609375 25.390625 
L 58.015625 25.390625 
L 58.015625 17.1875 
L 47.609375 17.1875 
L 47.609375 0 
L 37.796875 0 
L 37.796875 17.1875 
L 4.890625 17.1875 
L 4.890625 26.703125 
z
" id="DejaVuSans-34"/>
      </defs>
      <g transform="translate(208.577479 322.182437)scale(0.1 -0.1)">
       <use xlink:href="#DejaVuSans-34"/>
       <use x="63.623047" xlink:href="#DejaVuSans-30"/>
       <use x="127.246094" xlink:href="#DejaVuSans-30"/>
      </g>
     </g>
    </g>
    <g id="xtick_4">
     <g id="line2d_7">
      <path clip-path="url(#pe017b855ae)" d="M 290.26548 307.584 
L 290.26548 41.472 
" style="fill:none;stroke:#b0b0b0;stroke-linecap:square;stroke-width:0.8;"/>
     </g>
     <g id="line2d_8">
      <g>
       <use style="stroke:#000000;stroke-width:0.8;" x="290.26548" xlink:href="#m764a0e3e46" y="307.584"/>
      </g>
     </g>
     <g id="text_4">
      <!-- 600 -->
      <defs>
       <path d="M 33.015625 40.375 
Q 26.375 40.375 22.484375 35.828125 
Q 18.609375 31.296875 18.609375 23.390625 
Q 18.609375 15.53125 22.484375 10.953125 
Q 26.375 6.390625 33.015625 6.390625 
Q 39.65625 6.390625 43.53125 10.953125 
Q 47.40625 15.53125 47.40625 23.390625 
Q 47.40625 31.296875 43.53125 35.828125 
Q 39.65625 40.375 33.015625 40.375 
z
M 52.59375 71.296875 
L 52.59375 62.3125 
Q 48.875 64.0625 45.09375 64.984375 
Q 41.3125 65.921875 37.59375 65.921875 
Q 27.828125 65.921875 22.671875 59.328125 
Q 17.53125 52.734375 16.796875 39.40625 
Q 19.671875 43.65625 24.015625 45.921875 
Q 28.375 48.1875 33.59375 48.1875 
Q 44.578125 48.1875 50.953125 41.515625 
Q 57.328125 34.859375 57.328125 23.390625 
Q 57.328125 12.15625 50.6875 5.359375 
Q 44.046875 -1.421875 33.015625 -1.421875 
Q 20.359375 -1.421875 13.671875 8.265625 
Q 6.984375 17.96875 6.984375 36.375 
Q 6.984375 53.65625 15.1875 63.9375 
Q 23.390625 74.21875 37.203125 74.21875 
Q 40.921875 74.21875 44.703125 73.484375 
Q 48.484375 72.75 52.59375 71.296875 
z
" id="DejaVuSans-36"/>
      </defs>
      <g transform="translate(280.72173 322.182437)scale(0.1 -0.1)">
       <use xlink:href="#DejaVuSans-36"/>
       <use x="63.623047" xlink:href="#DejaVuSans-30"/>
       <use x="127.246094" xlink:href="#DejaVuSans-30"/>
      </g>
     </g>
    </g>
    <g id="xtick_5">
     <g id="line2d_9">
      <path clip-path="url(#pe017b855ae)" d="M 362.40973 307.584 
L 362.40973 41.472 
" style="fill:none;stroke:#b0b0b0;stroke-linecap:square;stroke-width:0.8;"/>
     </g>
     <g id="line2d_10">
      <g>
       <use style="stroke:#000000;stroke-width:0.8;" x="362.40973" xlink:href="#m764a0e3e46" y="307.584"/>
      </g>
     </g>
     <g id="text_5">
      <!-- 800 -->
      <defs>
       <path d="M 31.78125 34.625 
Q 24.75 34.625 20.71875 30.859375 
Q 16.703125 27.09375 16.703125 20.515625 
Q 16.703125 13.921875 20.71875 10.15625 
Q 24.75 6.390625 31.78125 6.390625 
Q 38.8125 6.390625 42.859375 10.171875 
Q 46.921875 13.96875 46.921875 20.515625 
Q 46.921875 27.09375 42.890625 30.859375 
Q 38.875 34.625 31.78125 34.625 
z
M 21.921875 38.8125 
Q 15.578125 40.375 12.03125 44.71875 
Q 8.5 49.078125 8.5 55.328125 
Q 8.5 64.0625 14.71875 69.140625 
Q 20.953125 74.21875 31.78125 74.21875 
Q 42.671875 74.21875 48.875 69.140625 
Q 55.078125 64.0625 55.078125 55.328125 
Q 55.078125 49.078125 51.53125 44.71875 
Q 48 40.375 41.703125 38.8125 
Q 48.828125 37.15625 52.796875 32.3125 
Q 56.78125 27.484375 56.78125 20.515625 
Q 56.78125 9.90625 50.3125 4.234375 
Q 43.84375 -1.421875 31.78125 -1.421875 
Q 19.734375 -1.421875 13.25 4.234375 
Q 6.78125 9.90625 6.78125 20.515625 
Q 6.78125 27.484375 10.78125 32.3125 
Q 14.796875 37.15625 21.921875 38.8125 
z
M 18.3125 54.390625 
Q 18.3125 48.734375 21.84375 45.5625 
Q 25.390625 42.390625 31.78125 42.390625 
Q 38.140625 42.390625 41.71875 45.5625 
Q 45.3125 48.734375 45.3125 54.390625 
Q 45.3125 60.0625 41.71875 63.234375 
Q 38.140625 66.40625 31.78125 66.40625 
Q 25.390625 66.40625 21.84375 63.234375 
Q 18.3125 60.0625 18.3125 54.390625 
z
" id="DejaVuSans-38"/>
      </defs>
      <g transform="translate(352.86598 322.182437)scale(0.1 -0.1)">
       <use xlink:href="#DejaVuSans-38"/>
       <use x="63.623047" xlink:href="#DejaVuSans-30"/>
       <use x="127.246094" xlink:href="#DejaVuSans-30"/>
      </g>
     </g>
    </g>
    <g id="text_6">
     <!-- t(s) -->
     <defs>
      <path d="M 18.3125 70.21875 
L 18.3125 54.6875 
L 36.8125 54.6875 
L 36.8125 47.703125 
L 18.3125 47.703125 
L 18.3125 18.015625 
Q 18.3125 11.328125 20.140625 9.421875 
Q 21.96875 7.515625 27.59375 7.515625 
L 36.8125 7.515625 
L 36.8125 0 
L 27.59375 0 
Q 17.1875 0 13.234375 3.875 
Q 9.28125 7.765625 9.28125 18.015625 
L 9.28125 47.703125 
L 2.6875 47.703125 
L 2.6875 54.6875 
L 9.28125 54.6875 
L 9.28125 70.21875 
z
" id="DejaVuSans-74"/>
      <path d="M 31 75.875 
Q 24.46875 64.65625 21.28125 53.65625 
Q 18.109375 42.671875 18.109375 31.390625 
Q 18.109375 20.125 21.3125 9.0625 
Q 24.515625 -2 31 -13.1875 
L 23.1875 -13.1875 
Q 15.875 -1.703125 12.234375 9.375 
Q 8.59375 20.453125 8.59375 31.390625 
Q 8.59375 42.28125 12.203125 53.3125 
Q 15.828125 64.359375 23.1875 75.875 
z
" id="DejaVuSans-28"/>
      <path d="M 44.28125 53.078125 
L 44.28125 44.578125 
Q 40.484375 46.53125 36.375 47.5 
Q 32.28125 48.484375 27.875 48.484375 
Q 21.1875 48.484375 17.84375 46.4375 
Q 14.5 44.390625 14.5 40.28125 
Q 14.5 37.15625 16.890625 35.375 
Q 19.28125 33.59375 26.515625 31.984375 
L 29.59375 31.296875 
Q 39.15625 29.25 43.1875 25.515625 
Q 47.21875 21.78125 47.21875 15.09375 
Q 47.21875 7.46875 41.1875 3.015625 
Q 35.15625 -1.421875 24.609375 -1.421875 
Q 20.21875 -1.421875 15.453125 -0.5625 
Q 10.6875 0.296875 5.421875 2 
L 5.421875 11.28125 
Q 10.40625 8.6875 15.234375 7.390625 
Q 20.0625 6.109375 24.8125 6.109375 
Q 31.15625 6.109375 34.5625 8.28125 
Q 37.984375 10.453125 37.984375 14.40625 
Q 37.984375 18.0625 35.515625 20.015625 
Q 33.0625 21.96875 24.703125 23.78125 
L 21.578125 24.515625 
Q 13.234375 26.265625 9.515625 29.90625 
Q 5.8125 33.546875 5.8125 39.890625 
Q 5.8125 47.609375 11.28125 51.796875 
Q 16.75 56 26.8125 56 
Q 31.78125 56 36.171875 55.265625 
Q 40.578125 54.546875 44.28125 53.078125 
z
" id="DejaVuSans-73"/>
      <path d="M 8.015625 75.875 
L 15.828125 75.875 
Q 23.140625 64.359375 26.78125 53.3125 
Q 30.421875 42.28125 30.421875 31.390625 
Q 30.421875 20.453125 26.78125 9.375 
Q 23.140625 -1.703125 15.828125 -13.1875 
L 8.015625 -13.1875 
Q 14.5 -2 17.703125 9.0625 
Q 20.90625 20.125 20.90625 31.390625 
Q 20.90625 42.671875 17.703125 53.65625 
Q 14.5 64.65625 8.015625 75.875 
z
" id="DejaVuSans-29"/>
     </defs>
     <g transform="translate(227.693594 335.860562)scale(0.1 -0.1)">
      <use xlink:href="#DejaVuSans-74"/>
      <use x="39.208984" xlink:href="#DejaVuSans-28"/>
      <use x="78.222656" xlink:href="#DejaVuSans-73"/>
      <use x="130.322266" xlink:href="#DejaVuSans-29"/>
     </g>
    </g>
   </g>
   <g id="matplotlib.axis_2">
    <g id="ytick_1">
     <g id="line2d_11">
      <path clip-path="url(#pe017b855ae)" d="M 57.6 295.488 
L 414.72 295.488 
" style="fill:none;stroke:#b0b0b0;stroke-linecap:square;stroke-width:0.8;"/>
     </g>
     <g id="line2d_12">
      <defs>
       <path d="M 0 0 
L -3.5 0 
" id="mdd697e4136" style="stroke:#000000;stroke-width:0.8;"/>
      </defs>
      <g>
       <use style="stroke:#000000;stroke-width:0.8;" x="57.6" xlink:href="#mdd697e4136" y="295.488"/>
      </g>
     </g>
     <g id="text_7">
      <!-- −0.00010 -->
      <defs>
       <path d="M 10.59375 35.5 
L 73.1875 35.5 
L 73.1875 27.203125 
L 10.59375 27.203125 
z
" id="DejaVuSans-2212"/>
       <path d="M 10.6875 12.40625 
L 21 12.40625 
L 21 0 
L 10.6875 0 
z
" id="DejaVuSans-2e"/>
       <path d="M 12.40625 8.296875 
L 28.515625 8.296875 
L 28.515625 63.921875 
L 10.984375 60.40625 
L 10.984375 69.390625 
L 28.421875 72.90625 
L 38.28125 72.90625 
L 38.28125 8.296875 
L 54.390625 8.296875 
L 54.390625 0 
L 12.40625 0 
z
" id="DejaVuSans-31"/>
      </defs>
      <g transform="translate(0.867188 299.287219)scale(0.1 -0.1)">
       <use xlink:href="#DejaVuSans-2212"/>
       <use x="83.789062" xlink:href="#DejaVuSans-30"/>
       <use x="147.412109" xlink:href="#DejaVuSans-2e"/>
       <use x="179.199219" xlink:href="#DejaVuSans-30"/>
       <use x="242.822266" xlink:href="#DejaVuSans-30"/>
       <use x="306.445312" xlink:href="#DejaVuSans-30"/>
       <use x="370.068359" xlink:href="#DejaVuSans-31"/>
       <use x="433.691406" xlink:href="#DejaVuSans-30"/>
      </g>
     </g>
    </g>
    <g id="ytick_2">
     <g id="line2d_13">
      <path clip-path="url(#pe017b855ae)" d="M 57.6 247.104 
L 414.72 247.104 
" style="fill:none;stroke:#b0b0b0;stroke-linecap:square;stroke-width:0.8;"/>
     </g>
     <g id="line2d_14">
      <g>
       <use style="stroke:#000000;stroke-width:0.8;" x="57.6" xlink:href="#mdd697e4136" y="247.104"/>
      </g>
     </g>
     <g id="text_8">
      <!-- −0.00008 -->
      <g transform="translate(0.867188 250.903219)scale(0.1 -0.1)">
       <use xlink:href="#DejaVuSans-2212"/>
       <use x="83.789062" xlink:href="#DejaVuSans-30"/>
       <use x="147.412109" xlink:href="#DejaVuSans-2e"/>
       <use x="179.199219" xlink:href="#DejaVuSans-30"/>
       <use x="242.822266" xlink:href="#DejaVuSans-30"/>
       <use x="306.445312" xlink:href="#DejaVuSans-30"/>
       <use x="370.068359" xlink:href="#DejaVuSans-30"/>
       <use x="433.691406" xlink:href="#DejaVuSans-38"/>
      </g>
     </g>
    </g>
    <g id="ytick_3">
     <g id="line2d_15">
      <path clip-path="url(#pe017b855ae)" d="M 57.6 198.72 
L 414.72 198.72 
" style="fill:none;stroke:#b0b0b0;stroke-linecap:square;stroke-width:0.8;"/>
     </g>
     <g id="line2d_16">
      <g>
       <use style="stroke:#000000;stroke-width:0.8;" x="57.6" xlink:href="#mdd697e4136" y="198.72"/>
      </g>
     </g>
     <g id="text_9">
      <!-- −0.00006 -->
      <g transform="translate(0.867188 202.519219)scale(0.1 -0.1)">
       <use xlink:href="#DejaVuSans-2212"/>
       <use x="83.789062" xlink:href="#DejaVuSans-30"/>
       <use x="147.412109" xlink:href="#DejaVuSans-2e"/>
       <use x="179.199219" xlink:href="#DejaVuSans-30"/>
       <use x="242.822266" xlink:href="#DejaVuSans-30"/>
       <use x="306.445312" xlink:href="#DejaVuSans-30"/>
       <use x="370.068359" xlink:href="#DejaVuSans-30"/>
       <use x="433.691406" xlink:href="#DejaVuSans-36"/>
      </g>
     </g>
    </g>
    <g id="ytick_4">
     <g id="line2d_17">
      <path clip-path="url(#pe017b855ae)" d="M 57.6 150.336 
L 414.72 150.336 
" style="fill:none;stroke:#b0b0b0;stroke-linecap:square;stroke-width:0.8;"/>
     </g>
     <g id="line2d_18">
      <g>
       <use style="stroke:#000000;stroke-width:0.8;" x="57.6" xlink:href="#mdd697e4136" y="150.336"/>
      </g>
     </g>
     <g id="text_10">
      <!-- −0.00004 -->
      <g transform="translate(0.867188 154.135219)scale(0.1 -0.1)">
       <use xlink:href="#DejaVuSans-2212"/>
       <use x="83.789062" xlink:href="#DejaVuSans-30"/>
       <use x="147.412109" xlink:href="#DejaVuSans-2e"/>
       <use x="179.199219" xlink:href="#DejaVuSans-30"/>
       <use x="242.822266" xlink:href="#DejaVuSans-30"/>
       <use x="306.445312" xlink:href="#DejaVuSans-30"/>
       <use x="370.068359" xlink:href="#DejaVuSans-30"/>
       <use x="433.691406" xlink:href="#DejaVuSans-34"/>
      </g>
     </g>
    </g>
    <g id="ytick_5">
     <g id="line2d_19">
      <path clip-path="url(#pe017b855ae)" d="M 57.6 101.952 
L 414.72 101.952 
" style="fill:none;stroke:#b0b0b0;stroke-linecap:square;stroke-width:0.8;"/>
     </g>
     <g id="line2d_20">
      <g>
       <use style="stroke:#000000;stroke-width:0.8;" x="57.6" xlink:href="#mdd697e4136" y="101.952"/>
      </g>
     </g>
     <g id="text_11">
      <!-- −0.00002 -->
      <g transform="translate(0.867188 105.751219)scale(0.1 -0.1)">
       <use xlink:href="#DejaVuSans-2212"/>
       <use x="83.789062" xlink:href="#DejaVuSans-30"/>
       <use x="147.412109" xlink:href="#DejaVuSans-2e"/>
       <use x="179.199219" xlink:href="#DejaVuSans-30"/>
       <use x="242.822266" xlink:href="#DejaVuSans-30"/>
       <use x="306.445312" xlink:href="#DejaVuSans-30"/>
       <use x="370.068359" xlink:href="#DejaVuSans-30"/>
       <use x="433.691406" xlink:href="#DejaVuSans-32"/>
      </g>
     </g>
    </g>
    <g id="ytick_6">
     <g id="line2d_21">
      <path clip-path="url(#pe017b855ae)" d="M 57.6 53.568 
L 414.72 53.568 
" style="fill:none;stroke:#b0b0b0;stroke-linecap:square;stroke-width:0.8;"/>
     </g>
     <g id="line2d_22">
      <g>
       <use style="stroke:#000000;stroke-width:0.8;" x="57.6" xlink:href="#mdd697e4136" y="53.568"/>
      </g>
     </g>
     <g id="text_12">
      <!-- 0.00000 -->
      <g transform="translate(9.246875 57.367219)scale(0.1 -0.1)">
       <use xlink:href="#DejaVuSans-30"/>
       <use x="63.623047" xlink:href="#DejaVuSans-2e"/>
       <use x="95.410156" xlink:href="#DejaVuSans-30"/>
       <use x="159.033203" xlink:href="#DejaVuSans-30"/>
       <use x="222.65625" xlink:href="#DejaVuSans-30"/>
       <use x="286.279297" xlink:href="#DejaVuSans-30"/>
       <use x="349.902344" xlink:href="#DejaVuSans-30"/>
      </g>
     </g>
    </g>
    <g id="text_13">
     <!-- Current (nA) -->
     <defs>
      <path d="M 64.40625 67.28125 
L 64.40625 56.890625 
Q 59.421875 61.53125 53.78125 63.8125 
Q 48.140625 66.109375 41.796875 66.109375 
Q 29.296875 66.109375 22.65625 58.46875 
Q 16.015625 50.828125 16.015625 36.375 
Q 16.015625 21.96875 22.65625 14.328125 
Q 29.296875 6.6875 41.796875 6.6875 
Q 48.140625 6.6875 53.78125 8.984375 
Q 59.421875 11.28125 64.40625 15.921875 
L 64.40625 5.609375 
Q 59.234375 2.09375 53.4375 0.328125 
Q 47.65625 -1.421875 41.21875 -1.421875 
Q 24.65625 -1.421875 15.125 8.703125 
Q 5.609375 18.84375 5.609375 36.375 
Q 5.609375 53.953125 15.125 64.078125 
Q 24.65625 74.21875 41.21875 74.21875 
Q 47.75 74.21875 53.53125 72.484375 
Q 59.328125 70.75 64.40625 67.28125 
z
" id="DejaVuSans-43"/>
      <path d="M 8.5 21.578125 
L 8.5 54.6875 
L 17.484375 54.6875 
L 17.484375 21.921875 
Q 17.484375 14.15625 20.5 10.265625 
Q 23.53125 6.390625 29.59375 6.390625 
Q 36.859375 6.390625 41.078125 11.03125 
Q 45.3125 15.671875 45.3125 23.6875 
L 45.3125 54.6875 
L 54.296875 54.6875 
L 54.296875 0 
L 45.3125 0 
L 45.3125 8.40625 
Q 42.046875 3.421875 37.71875 1 
Q 33.40625 -1.421875 27.6875 -1.421875 
Q 18.265625 -1.421875 13.375 4.4375 
Q 8.5 10.296875 8.5 21.578125 
z
M 31.109375 56 
z
" id="DejaVuSans-75"/>
      <path d="M 41.109375 46.296875 
Q 39.59375 47.171875 37.8125 47.578125 
Q 36.03125 48 33.890625 48 
Q 26.265625 48 22.1875 43.046875 
Q 18.109375 38.09375 18.109375 28.8125 
L 18.109375 0 
L 9.078125 0 
L 9.078125 54.6875 
L 18.109375 54.6875 
L 18.109375 46.1875 
Q 20.953125 51.171875 25.484375 53.578125 
Q 30.03125 56 36.53125 56 
Q 37.453125 56 38.578125 55.875 
Q 39.703125 55.765625 41.0625 55.515625 
z
" id="DejaVuSans-72"/>
      <path d="M 56.203125 29.59375 
L 56.203125 25.203125 
L 14.890625 25.203125 
Q 15.484375 15.921875 20.484375 11.0625 
Q 25.484375 6.203125 34.421875 6.203125 
Q 39.59375 6.203125 44.453125 7.46875 
Q 49.3125 8.734375 54.109375 11.28125 
L 54.109375 2.78125 
Q 49.265625 0.734375 44.1875 -0.34375 
Q 39.109375 -1.421875 33.890625 -1.421875 
Q 20.796875 -1.421875 13.15625 6.1875 
Q 5.515625 13.8125 5.515625 26.8125 
Q 5.515625 40.234375 12.765625 48.109375 
Q 20.015625 56 32.328125 56 
Q 43.359375 56 49.78125 48.890625 
Q 56.203125 41.796875 56.203125 29.59375 
z
M 47.21875 32.234375 
Q 47.125 39.59375 43.09375 43.984375 
Q 39.0625 48.390625 32.421875 48.390625 
Q 24.90625 48.390625 20.390625 44.140625 
Q 15.875 39.890625 15.1875 32.171875 
z
" id="DejaVuSans-65"/>
      <path d="M 54.890625 33.015625 
L 54.890625 0 
L 45.90625 0 
L 45.90625 32.71875 
Q 45.90625 40.484375 42.875 44.328125 
Q 39.84375 48.1875 33.796875 48.1875 
Q 26.515625 48.1875 22.3125 43.546875 
Q 18.109375 38.921875 18.109375 30.90625 
L 18.109375 0 
L 9.078125 0 
L 9.078125 54.6875 
L 18.109375 54.6875 
L 18.109375 46.1875 
Q 21.34375 51.125 25.703125 53.5625 
Q 30.078125 56 35.796875 56 
Q 45.21875 56 50.046875 50.171875 
Q 54.890625 44.34375 54.890625 33.015625 
z
" id="DejaVuSans-6e"/>
      <path id="DejaVuSans-20"/>
      <path d="M 34.1875 63.1875 
L 20.796875 26.90625 
L 47.609375 26.90625 
z
M 28.609375 72.90625 
L 39.796875 72.90625 
L 67.578125 0 
L 57.328125 0 
L 50.6875 18.703125 
L 17.828125 18.703125 
L 11.1875 0 
L 0.78125 0 
z
" id="DejaVuSans-41"/>
     </defs>
     <g transform="translate(-5.2125 205.581906)rotate(-90)scale(0.1 -0.1)">
      <use xlink:href="#DejaVuSans-43"/>
      <use x="69.824219" xlink:href="#DejaVuSans-75"/>
      <use x="133.203125" xlink:href="#DejaVuSans-72"/>
      <use x="174.300781" xlink:href="#DejaVuSans-72"/>
      <use x="215.382812" xlink:href="#DejaVuSans-65"/>
      <use x="276.90625" xlink:href="#DejaVuSans-6e"/>
      <use x="340.285156" xlink:href="#DejaVuSans-74"/>
      <use x="379.494141" xlink:href="#DejaVuSans-20"/>
      <use x="411.28125" xlink:href="#DejaVuSans-28"/>
      <use x="450.294922" xlink:href="#DejaVuSans-6e"/>
      <use x="513.673828" xlink:href="#DejaVuSans-41"/>
      <use x="582.082031" xlink:href="#DejaVuSans-29"/>
     </g>
    </g>
    <g id="text_14">
     <!-- +5e1 -->
     <defs>
      <path d="M 46 62.703125 
L 46 35.5 
L 73.1875 35.5 
L 73.1875 27.203125 
L 46 27.203125 
L 46 0 
L 37.796875 0 
L 37.796875 27.203125 
L 10.59375 27.203125 
L 10.59375 35.5 
L 37.796875 35.5 
L 37.796875 62.703125 
z
" id="DejaVuSans-2b"/>
      <path d="M 10.796875 72.90625 
L 49.515625 72.90625 
L 49.515625 64.59375 
L 19.828125 64.59375 
L 19.828125 46.734375 
Q 21.96875 47.46875 24.109375 47.828125 
Q 26.265625 48.1875 28.421875 48.1875 
Q 40.625 48.1875 47.75 41.5 
Q 54.890625 34.8125 54.890625 23.390625 
Q 54.890625 11.625 47.5625 5.09375 
Q 40.234375 -1.421875 26.90625 -1.421875 
Q 22.3125 -1.421875 17.546875 -0.640625 
Q 12.796875 0.140625 7.71875 1.703125 
L 7.71875 11.625 
Q 12.109375 9.234375 16.796875 8.0625 
Q 21.484375 6.890625 26.703125 6.890625 
Q 35.15625 6.890625 40.078125 11.328125 
Q 45.015625 15.765625 45.015625 23.390625 
Q 45.015625 31 40.078125 35.4375 
Q 35.15625 39.890625 26.703125 39.890625 
Q 22.75 39.890625 18.8125 39.015625 
Q 14.890625 38.140625 10.796875 36.28125 
z
" id="DejaVuSans-35"/>
     </defs>
     <g transform="translate(57.6 38.472)scale(0.1 -0.1)">
      <use xlink:href="#DejaVuSans-2b"/>
      <use x="83.789062" xlink:href="#DejaVuSans-35"/>
      <use x="147.412109" xlink:href="#DejaVuSans-65"/>
      <use x="208.935547" xlink:href="#DejaVuSans-31"/>
     </g>
    </g>
   </g>
   <g id="line2d_23">
    <path clip-path="url(#pe017b855ae)" d="M 73.832727 295.488 
L 74.914999 295.488 
L 74.951075 53.568 
L 75.023227 295.488 
L 78.776185 295.488 
L 78.812261 53.568 
L 78.884412 295.488 
L 80.868577 295.488 
L 80.904653 53.568 
L 80.976805 295.488 
L 82.275531 295.488 
L 82.311607 53.568 
L 82.383758 295.488 
L 83.538182 295.488 
L 83.574257 53.568 
L 83.646409 295.488 
L 84.692605 295.488 
L 84.72868 53.568 
L 84.801185 295.488 
L 86.757737 295.488 
L 86.902747 53.568 
L 87.047396 295.488 
L 88.497495 295.488 
L 88.533928 53.568 
L 88.606794 295.488 
L 88.678938 295.488 
L 88.715371 53.568 
L 88.787876 295.488 
L 90.195771 295.488 
L 90.231843 53.568 
L 90.303987 295.488 
L 91.208315 295.488 
L 91.244388 53.568 
L 91.317614 295.488 
L 92.295529 295.488 
L 92.331962 53.568 
L 92.404467 295.488 
L 92.440539 295.488 
L 92.476611 53.568 
L 92.549116 295.488 
L 94.793163 295.488 
L 94.829596 53.568 
L 94.902101 295.488 
L 95.844666 295.488 
L 95.880738 53.568 
L 95.952882 295.488 
L 96.496128 295.488 
L 96.5322 53.568 
L 96.604705 295.488 
L 97.00222 295.488 
L 97.038653 53.568 
L 97.111158 295.488 
L 97.655126 295.488 
L 97.691559 53.568 
L 97.763703 295.488 
L 98.379815 295.488 
L 98.415887 53.568 
L 98.488392 295.488 
L 101.020294 295.488 
L 101.056366 53.568 
L 101.128511 295.488 
L 101.852839 295.488 
L 101.888911 53.568 
L 101.961055 295.488 
L 102.902177 295.488 
L 102.938249 53.568 
L 103.011115 295.488 
L 104.930152 295.488 
L 104.966585 53.568 
L 105.038729 295.488 
L 106.666303 295.488 
L 106.775241 53.568 
L 106.920251 295.488 
L 109.057885 295.488 
L 109.166462 53.568 
L 109.311472 295.488 
L 109.855079 295.488 
L 109.891151 53.568 
L 109.963296 295.488 
L 111.121932 295.488 
L 111.158004 53.568 
L 111.230149 295.488 
L 112.424857 295.488 
L 112.46129 53.568 
L 112.533795 295.488 
L 114.737802 295.488 
L 114.773874 53.568 
L 114.846018 295.488 
L 115.498203 295.488 
L 115.534635 53.568 
L 115.60714 295.488 
L 115.75179 295.488 
L 115.788222 53.568 
L 115.860367 295.488 
L 115.932511 295.488 
L 115.968944 53.568 
L 116.041809 295.488 
L 118.141568 295.488 
L 118.17764 53.568 
L 118.249784 295.488 
L 119.119844 295.488 
L 119.156277 53.568 
L 119.229142 295.488 
L 120.530985 295.488 
L 120.567058 53.568 
L 120.639202 295.488 
L 121.219242 295.488 
L 121.255314 53.568 
L 121.327458 295.488 
L 121.763209 295.488 
L 121.799281 53.568 
L 121.871426 295.488 
L 122.3786 295.488 
L 122.415033 53.568 
L 122.487177 295.488 
L 123.248299 295.488 
L 123.284732 53.568 
L 123.357236 295.488 
L 125.893828 295.488 
L 126.002405 53.568 
L 126.146694 295.488 
L 126.581002 295.488 
L 126.617435 53.568 
L 126.68994 295.488 
L 127.015311 295.488 
L 127.051383 53.568 
L 127.123888 295.488 
L 127.305331 295.488 
L 127.341403 53.568 
L 127.413547 295.488 
L 129.914067 295.488 
L 129.9505 53.568 
L 130.023005 295.488 
L 132.483845 295.488 
L 132.628133 53.568 
L 132.772422 295.488 
L 134.90681 295.488 
L 134.942882 53.568 
L 135.015747 295.488 
L 138.169173 295.488 
L 138.205605 53.568 
L 138.27775 295.488 
L 138.42276 295.488 
L 138.458832 53.568 
L 138.531337 295.488 
L 141.503319 295.488 
L 141.539752 53.568 
L 141.612618 295.488 
L 142.518389 295.488 
L 142.554822 53.568 
L 142.626966 295.488 
L 143.968128 295.488 
L 144.00456 53.568 
L 144.076705 295.488 
L 144.911053 295.488 
L 144.947125 53.568 
L 145.01963 295.488 
L 146.32508 295.488 
L 146.361152 53.568 
L 146.433657 295.488 
L 149.044918 295.488 
L 149.081351 53.568 
L 149.153496 295.488 
L 149.480309 295.488 
L 149.516742 53.568 
L 149.588886 295.488 
L 150.929687 295.488 
L 150.96612 53.568 
L 151.038986 295.488 
L 152.597662 295.488 
L 152.633734 53.568 
L 152.673774 295.488 
L 153.434175 295.488 
L 153.470607 53.568 
L 153.542752 295.488 
L 153.941709 295.488 
L 153.978142 53.568 
L 154.050647 295.488 
L 154.811769 295.488 
L 154.884274 53.568 
L 154.920707 295.488 
L 155.391809 295.488 
L 155.427881 53.568 
L 155.500386 295.488 
L 156.117219 295.488 
L 156.153652 53.568 
L 156.226157 295.488 
L 156.480105 295.488 
L 156.516538 53.568 
L 156.588682 295.488 
L 159.306356 295.488 
L 159.342789 53.568 
L 159.415294 295.488 
L 159.704953 295.488 
L 159.741025 53.568 
L 159.813891 295.488 
L 159.922829 295.488 
L 159.958901 53.568 
L 160.031406 295.488 
L 160.93862 295.488 
L 160.974692 53.568 
L 161.046836 295.488 
L 161.082908 295.488 
L 161.119341 53.568 
L 161.191846 295.488 
L 162.281224 295.488 
L 162.317657 53.568 
L 162.390523 295.488 
L 163.07914 295.488 
L 163.115572 53.568 
L 163.188077 295.488 
L 163.478458 295.488 
L 163.51453 53.568 
L 163.587035 295.488 
L 166.27044 295.488 
L 166.306513 53.568 
L 166.379378 295.488 
L 167.9009 295.488 
L 167.936973 53.568 
L 168.009478 295.488 
L 168.04591 295.488 
L 168.081983 53.568 
L 168.154848 295.488 
L 172.613002 295.488 
L 172.649435 53.568 
L 172.72194 295.488 
L 174.752801 295.488 
L 174.788873 53.568 
L 174.861378 295.488 
L 175.513923 295.488 
L 175.550355 53.568 
L 175.62286 295.488 
L 175.695365 295.488 
L 175.731438 53.568 
L 175.804303 295.488 
L 177.217609 295.488 
L 177.253681 53.568 
L 177.326186 295.488 
L 177.435124 295.488 
L 177.471557 53.568 
L 177.543701 295.488 
L 178.269472 295.488 
L 178.305544 53.568 
L 178.377689 295.488 
L 178.631276 295.488 
L 178.667708 53.568 
L 178.739853 295.488 
L 179.899932 295.488 
L 179.936365 53.568 
L 180.009231 295.488 
L 180.081736 295.488 
L 180.118169 53.568 
L 180.190674 295.488 
L 181.097527 295.488 
L 181.13396 53.568 
L 181.206104 295.488 
L 184.469188 295.488 
L 184.505621 53.568 
L 184.577766 295.488 
L 185.557484 295.488 
L 185.593557 53.568 
L 185.666062 295.488 
L 186.137524 295.488 
L 186.173596 53.568 
L 186.246462 295.488 
L 186.282895 295.488 
L 186.318967 53.568 
L 186.391472 295.488 
L 186.536843 295.488 
L 186.572915 53.568 
L 186.64542 295.488 
L 186.900089 295.488 
L 187.045099 53.568 
L 187.189387 295.488 
L 187.298686 295.488 
L 187.334758 53.568 
L 187.407263 295.488 
L 188.059808 295.488 
L 188.096241 53.568 
L 188.168746 295.488 
L 188.567343 295.488 
L 188.603415 53.568 
L 188.675559 295.488 
L 192.990867 295.488 
L 193.026939 53.568 
L 193.099444 295.488 
L 193.135877 295.488 
L 193.17231 53.568 
L 193.244815 295.488 
L 195.421407 295.488 
L 195.529984 53.568 
L 195.674994 295.488 
L 195.747138 295.488 
L 195.783211 53.568 
L 195.855716 295.488 
L 196.79828 295.488 
L 196.834713 53.568 
L 196.907218 295.488 
L 197.596556 295.488 
L 197.632989 53.568 
L 197.705133 295.488 
L 198.866295 295.488 
L 198.902728 53.568 
L 198.975233 295.488 
L 199.700283 295.488 
L 199.736715 53.568 
L 199.809221 295.488 
L 200.099601 295.488 
L 200.135673 53.568 
L 200.207818 295.488 
L 200.53427 295.488 
L 200.570703 53.568 
L 200.642847 295.488 
L 200.714992 295.488 
L 200.751424 53.568 
L 200.82429 295.488 
L 201.585051 295.488 
L 201.621484 53.568 
L 201.69435 295.488 
L 202.455472 295.488 
L 202.491905 53.568 
L 202.564409 295.488 
L 203.398397 295.488 
L 203.434469 53.568 
L 203.506974 295.488 
L 203.760561 295.488 
L 203.796994 53.568 
L 203.869138 295.488 
L 204.268096 295.488 
L 204.304529 53.568 
L 204.376673 295.488 
L 204.702765 295.488 
L 204.739198 53.568 
L 204.811342 295.488 
L 205.35531 295.488 
L 205.427815 53.568 
L 205.464248 295.488 
L 205.827133 295.488 
L 205.863566 53.568 
L 205.936432 295.488 
L 208.908053 295.488 
L 208.944486 53.568 
L 209.016991 295.488 
L 209.089496 295.488 
L 209.125568 53.568 
L 209.198434 295.488 
L 209.959556 295.488 
L 210.032061 53.568 
L 210.068494 295.488 
L 210.140999 295.488 
L 210.177431 53.568 
L 210.249937 295.488 
L 210.358874 295.488 
L 210.394946 53.568 
L 210.467451 295.488 
L 211.810056 295.488 
L 211.846489 53.568 
L 211.918633 295.488 
L 212.534745 295.488 
L 212.570817 53.568 
L 212.643322 295.488 
L 214.021277 295.488 
L 214.05771 53.568 
L 214.130215 295.488 
L 214.49274 295.488 
L 214.528812 53.568 
L 214.601317 295.488 
L 215.906406 295.488 
L 215.942839 53.568 
L 216.015344 295.488 
L 218.770172 295.488 
L 218.806605 53.568 
L 218.87911 295.488 
L 220.14921 295.488 
L 220.185282 53.568 
L 220.257787 295.488 
L 220.72925 295.488 
L 220.765322 53.568 
L 220.837827 295.488 
L 220.982837 295.488 
L 221.128207 53.568 
L 221.164279 53.568 
L 221.308929 295.488 
L 222.541513 295.488 
L 222.577585 53.568 
L 222.65009 295.488 
L 223.049409 295.488 
L 223.085481 53.568 
L 223.157986 295.488 
L 223.701593 295.488 
L 223.738026 53.568 
L 223.810891 295.488 
L 224.281272 295.488 
L 224.425921 53.568 
L 224.570931 295.488 
L 224.679869 295.488 
L 224.715941 53.568 
L 224.788807 295.488 
L 225.332774 295.488 
L 225.404919 53.568 
L 225.441351 295.488 
L 225.622433 295.488 
L 225.658866 53.568 
L 225.731371 295.488 
L 226.855379 295.488 
L 227.000749 53.568 
L 227.145759 295.488 
L 227.181831 53.568 
L 227.253976 295.488 
L 227.471851 295.488 
L 227.509006 53.568 
L 227.58151 295.488 
L 228.05153 295.488 
L 228.087963 53.568 
L 228.160468 295.488 
L 229.030167 295.488 
L 229.138744 53.568 
L 229.283754 295.488 
L 229.464475 295.488 
L 229.500548 53.568 
L 229.572692 295.488 
L 231.386038 295.488 
L 231.42211 53.568 
L 231.494254 295.488 
L 232.00251 295.488 
L 232.147881 53.568 
L 232.29253 295.488 
L 232.328602 295.488 
L 232.364674 53.568 
L 232.43754 295.488 
L 232.618622 295.488 
L 232.655055 53.568 
L 232.72756 295.488 
L 232.945436 295.488 
L 232.981868 53.568 
L 233.054013 295.488 
L 233.924794 295.488 
L 233.961227 53.568 
L 234.033732 295.488 
L 234.286597 295.488 
L 234.322669 53.568 
L 234.394814 295.488 
L 235.371647 295.488 
L 235.444512 53.568 
L 235.480945 295.488 
L 235.734893 295.488 
L 235.770965 53.568 
L 235.843109 295.488 
L 236.604231 295.488 
L 236.749602 53.568 
L 236.894612 295.488 
L 237.147838 295.488 
L 237.184271 53.568 
L 237.257137 295.488 
L 237.981826 295.488 
L 238.017898 53.568 
L 238.090403 295.488 
L 238.235413 295.488 
L 238.307918 53.568 
L 238.34399 295.488 
L 239.468719 295.488 
L 239.505152 53.568 
L 239.577657 295.488 
L 239.795171 295.488 
L 239.940542 53.568 
L 240.086274 295.488 
L 240.738818 295.488 
L 240.811323 53.568 
L 240.847395 295.488 
L 241.35493 295.488 
L 241.49994 53.568 
L 241.536373 53.568 
L 241.681383 295.488 
L 241.898537 295.488 
L 241.93497 53.568 
L 242.007475 295.488 
L 242.116052 295.488 
L 242.152124 53.568 
L 242.224629 295.488 
L 242.441783 295.488 
L 242.586072 53.568 
L 242.731442 295.488 
L 243.057534 295.488 
L 243.093607 53.568 
L 243.166112 295.488 
L 243.711161 295.488 
L 243.747234 53.568 
L 243.819738 295.488 
L 244.255129 295.488 
L 244.363706 53.568 
L 244.509077 295.488 
L 244.980179 295.488 
L 245.016612 53.568 
L 245.089117 295.488 
L 245.198054 295.488 
L 245.27092 53.568 
L 245.307353 295.488 
L 246.177413 295.488 
L 246.213485 53.568 
L 246.28635 295.488 
L 246.865669 295.488 
L 246.901741 53.568 
L 246.974607 295.488 
L 247.119616 295.488 
L 247.155689 53.568 
L 247.228194 295.488 
L 247.917532 295.488 
L 247.953965 53.568 
L 248.02647 295.488 
L 248.605788 295.488 
L 248.642221 53.568 
L 248.714726 295.488 
L 248.895808 295.488 
L 248.93188 53.568 
L 249.004746 295.488 
L 249.766589 295.488 
L 249.803022 53.568 
L 249.875166 295.488 
L 250.164825 295.488 
L 250.201258 53.568 
L 250.273763 295.488 
L 250.419134 295.488 
L 250.455206 53.568 
L 250.527711 295.488 
L 250.962741 295.488 
L 251.107751 53.568 
L 251.253121 295.488 
L 251.651718 295.488 
L 251.688151 53.568 
L 251.761017 295.488 
L 252.339614 295.488 
L 252.376047 53.568 
L 252.448191 295.488 
L 252.991798 295.488 
L 253.02787 53.568 
L 253.100375 295.488 
L 254.042218 295.488 
L 254.187228 53.568 
L 254.223661 53.568 
L 254.36831 295.488 
L 254.657969 295.488 
L 254.694041 53.568 
L 254.766546 295.488 
L 254.879091 295.488 
L 254.915164 53.568 
L 254.987668 295.488 
L 255.494482 295.488 
L 255.530915 53.568 
L 255.60342 295.488 
L 257.269952 295.488 
L 257.306385 53.568 
L 257.37889 295.488 
L 258.356805 295.488 
L 258.393238 53.568 
L 258.466104 295.488 
L 258.755041 295.488 
L 258.791113 53.568 
L 258.863979 295.488 
L 260.024419 295.488 
L 260.060492 53.568 
L 260.132996 295.488 
L 260.278367 295.488 
L 260.350872 53.568 
L 260.386944 295.488 
L 260.459088 295.488 
L 260.495161 53.568 
L 260.568026 295.488 
L 260.966623 295.488 
L 261.002695 53.568 
L 261.0752 295.488 
L 261.148066 295.488 
L 261.184499 53.568 
L 261.257004 295.488 
L 261.474519 295.488 
L 261.510591 53.568 
L 261.583096 295.488 
L 261.764178 295.488 
L 261.800611 53.568 
L 261.873116 295.488 
L 262.598166 295.488 
L 262.634598 53.568 
L 262.706743 295.488 
L 262.779248 295.488 
L 262.81568 53.568 
L 262.888546 295.488 
L 263.249989 295.488 
L 263.286422 53.568 
L 263.358927 295.488 
L 264.192553 295.488 
L 264.228626 53.568 
L 264.301131 295.488 
L 265.061892 295.488 
L 265.097964 53.568 
L 265.170469 295.488 
L 265.859807 295.488 
L 265.895879 53.568 
L 265.968384 295.488 
L 266.584496 295.488 
L 266.620929 53.568 
L 266.693434 295.488 
L 266.729867 295.488 
L 266.765939 53.568 
L 266.838444 295.488 
L 268.179605 295.488 
L 268.215678 53.568 
L 268.288183 295.488 
L 268.83179 295.488 
L 268.868222 53.568 
L 268.940727 295.488 
L 269.448623 295.488 
L 269.485056 53.568 
L 269.557561 295.488 
L 269.630066 295.488 
L 269.666138 53.568 
L 269.739004 295.488 
L 269.775436 295.488 
L 269.811508 53.568 
L 269.884013 295.488 
L 270.28225 295.488 
L 270.42726 53.568 
L 270.535837 295.488 
L 270.57227 53.568 
L 270.644775 295.488 
L 270.934795 295.488 
L 271.080165 53.568 
L 271.225536 295.488 
L 271.949864 295.488 
L 271.985936 53.568 
L 272.058441 295.488 
L 272.20273 295.488 
L 272.238802 53.568 
L 272.311668 295.488 
L 273.906416 295.488 
L 274.014993 53.568 
L 274.159642 295.488 
L 274.341085 295.488 
L 274.377157 53.568 
L 274.449662 295.488 
L 275.900483 295.488 
L 275.936555 53.568 
L 276.00906 295.488 
L 276.697316 295.488 
L 276.733389 53.568 
L 276.806254 295.488 
L 277.205212 295.488 
L 277.241284 53.568 
L 277.31415 295.488 
L 277.677035 295.488 
L 277.713468 53.568 
L 277.786334 295.488 
L 278.040282 295.488 
L 278.076354 53.568 
L 278.148859 295.488 
L 278.257075 295.488 
L 278.293508 53.568 
L 278.366374 295.488 
L 278.402446 295.488 
L 278.438518 53.568 
L 278.511023 295.488 
L 278.801043 295.488 
L 278.837115 53.568 
L 278.909259 295.488 
L 279.091063 295.488 
L 279.127135 53.568 
L 279.199279 295.488 
L 279.997555 295.488 
L 280.033988 53.568 
L 280.106493 295.488 
L 280.251503 295.488 
L 280.287575 53.568 
L 280.36008 295.488 
L 280.686533 295.488 
L 280.722605 53.568 
L 280.79511 295.488 
L 280.831543 295.488 
L 280.867615 53.568 
L 280.94012 295.488 
L 280.976192 295.488 
L 281.012625 53.568 
L 281.08513 295.488 
L 282.100921 295.488 
L 282.136993 53.568 
L 282.209137 295.488 
L 282.824888 295.488 
L 282.860961 53.568 
L 282.933466 295.488 
L 283.006331 295.488 
L 283.042764 53.568 
L 283.114908 295.488 
L 283.766371 295.488 
L 283.802804 53.568 
L 283.875309 295.488 
L 284.382483 295.488 
L 284.527493 53.568 
L 284.563565 53.568 
L 284.708575 295.488 
L 284.817152 295.488 
L 284.853585 53.568 
L 284.92609 295.488 
L 285.542202 295.488 
L 285.578274 53.568 
L 285.651139 295.488 
L 285.832222 295.488 
L 285.868654 53.568 
L 285.94152 295.488 
L 286.230819 295.488 
L 286.267251 53.568 
L 286.339396 295.488 
L 286.738353 295.488 
L 286.774425 53.568 
L 286.847291 295.488 
L 287.13659 295.488 
L 287.173022 53.568 
L 287.245888 295.488 
L 287.859836 295.488 
L 287.895908 53.568 
L 287.968773 295.488 
L 288.077351 295.488 
L 288.185567 53.568 
L 288.330577 295.488 
L 288.475587 53.568 
L 288.620958 295.488 
L 289.491017 295.488 
L 289.527089 53.568 
L 289.599594 295.488 
L 290.107129 295.488 
L 290.143562 53.568 
L 290.215706 295.488 
L 290.288211 295.488 
L 290.324644 53.568 
L 290.39751 295.488 
L 291.44793 295.488 
L 291.59294 53.568 
L 292.60837 53.568 
L 292.753741 295.488 
L 294.601716 295.488 
L 294.637788 53.568 
L 294.710293 295.488 
L 294.964241 295.488 
L 295.109611 53.568 
L 295.254261 295.488 
L 295.399271 53.568 
L 295.471776 295.488 
L 295.508208 53.568 
L 295.544281 53.568 
L 295.689651 295.488 
L 295.834661 295.488 
L 295.97931 53.568 
L 296.12432 295.488 
L 296.450412 295.488 
L 296.486484 53.568 
L 296.558629 295.488 
L 298.370892 295.488 
L 298.407325 53.568 
L 298.480191 295.488 
L 299.93029 295.488 
L 299.966362 53.568 
L 300.038867 295.488 
L 303.048725 295.488 
L 303.084798 53.568 
L 303.157303 295.488 
L 303.302313 295.488 
L 303.338385 53.568 
L 303.41089 295.488 
L 303.70091 295.488 
L 303.737342 53.568 
L 303.810208 295.488 
L 304.354176 295.488 
L 304.390248 53.568 
L 304.462753 295.488 
L 305.442472 295.488 
L 305.478544 53.568 
L 305.55141 295.488 
L 307.146158 295.488 
L 307.18223 53.568 
L 307.254735 295.488 
L 307.362952 295.488 
L 307.399385 53.568 
L 307.47225 295.488 
L 309.499143 295.488 
L 309.535576 53.568 
L 309.60772 295.488 
L 311.021747 295.488 
L 311.05818 53.568 
L 311.130324 295.488 
L 311.166757 295.488 
L 311.312128 53.568 
L 311.457138 295.488 
L 312.182548 295.488 
L 312.218981 53.568 
L 312.291486 295.488 
L 312.545434 295.488 
L 312.581867 53.568 
L 312.654011 295.488 
L 313.633369 295.488 
L 313.669441 53.568 
L 313.741586 295.488 
L 314.285914 295.488 
L 314.321986 53.568 
L 314.394852 295.488 
L 315.193128 295.488 
L 315.265633 53.568 
L 315.302066 295.488 
L 316.425712 295.488 
L 316.461785 53.568 
L 316.53465 295.488 
L 316.607155 295.488 
L 316.643588 53.568 
L 316.715732 295.488 
L 317.005752 295.488 
L 317.041824 53.568 
L 317.11469 295.488 
L 323.21629 295.488 
L 323.289156 53.568 
L 323.325228 295.488 
L 323.3613 295.488 
L 323.433805 53.568 
L 323.470238 295.488 
L 324.486029 295.488 
L 324.522101 53.568 
L 324.594967 295.488 
L 324.631039 295.488 
L 324.667472 53.568 
L 324.739977 295.488 
L 324.776049 295.488 
L 324.812482 53.568 
L 324.885347 295.488 
L 325.428594 295.488 
L 325.465026 53.568 
L 325.537531 295.488 
L 327.423382 295.488 
L 327.459815 53.568 
L 327.53232 295.488 
L 329.238531 295.488 
L 329.274964 53.568 
L 329.34783 295.488 
L 329.601778 295.488 
L 329.63785 53.568 
L 329.710355 295.488 
L 329.964663 295.488 
L 330.001096 53.568 
L 330.073601 295.488 
L 330.870434 295.488 
L 330.906867 53.568 
L 330.979733 295.488 
L 331.305825 295.488 
L 331.341897 53.568 
L 331.414402 295.488 
L 331.81372 295.488 
L 331.849793 53.568 
L 331.922298 295.488 
L 332.466265 295.488 
L 332.502698 53.568 
L 332.575203 295.488 
L 333.408469 295.488 
L 333.444902 53.568 
L 333.517768 295.488 
L 334.461414 295.488 
L 334.497487 53.568 
L 334.569992 295.488 
L 334.751434 295.488 
L 334.787867 53.568 
L 334.860372 295.488 
L 334.896444 295.488 
L 334.932877 53.568 
L 335.005382 295.488 
L 337.398046 295.488 
L 337.506263 53.568 
L 337.651633 295.488 
L 338.557404 295.488 
L 338.593837 53.568 
L 338.665981 295.488 
L 339.354598 295.488 
L 339.39067 53.568 
L 339.463175 295.488 
L 339.68069 295.488 
L 339.717123 53.568 
L 339.789989 295.488 
L 339.862494 295.488 
L 339.898566 53.568 
L 339.971071 295.488 
L 340.443616 295.488 
L 340.479688 53.568 
L 340.552554 295.488 
L 340.661491 295.488 
L 340.697924 53.568 
L 340.770068 295.488 
L 343.159486 295.488 
L 343.195919 53.568 
L 343.268424 295.488 
L 343.847742 295.488 
L 343.883814 53.568 
L 343.955959 295.488 
L 344.57207 295.488 
L 344.608143 53.568 
L 344.680648 295.488 
L 345.84217 295.488 
L 345.878603 53.568 
L 345.951108 295.488 
L 347.328702 295.488 
L 347.365135 53.568 
L 347.43764 295.488 
L 347.58265 295.488 
L 347.619083 53.568 
L 347.691588 295.488 
L 348.234473 295.488 
L 348.270906 53.568 
L 348.343411 295.488 
L 348.488421 295.488 
L 348.524854 53.568 
L 348.597359 295.488 
L 350.266777 295.488 
L 350.30321 53.568 
L 350.375354 295.488 
L 350.44822 295.488 
L 350.484653 53.568 
L 350.557158 295.488 
L 351.355073 295.488 
L 351.391145 53.568 
L 351.464011 295.488 
L 352.841966 295.488 
L 352.878038 53.568 
L 352.950543 295.488 
L 353.784891 295.488 
L 353.820963 53.568 
L 353.893829 295.488 
L 354.473508 295.488 
L 354.509941 53.568 
L 354.582446 295.488 
L 357.736593 295.488 
L 357.773025 53.568 
L 357.845531 295.488 
L 358.135911 295.488 
L 358.172344 53.568 
L 358.244488 295.488 
L 359.042764 295.488 
L 359.078836 53.568 
L 359.151702 295.488 
L 360.819317 295.488 
L 360.855749 53.568 
L 360.928254 295.488 
L 361.47114 295.488 
L 361.507212 53.568 
L 361.579717 295.488 
L 361.942963 295.488 
L 361.979035 53.568 
L 362.051901 295.488 
L 363.501279 295.488 
L 363.537712 53.568 
L 363.610578 295.488 
L 364.08204 295.488 
L 364.118473 53.568 
L 364.190978 295.488 
L 365.023883 295.488 
L 365.060316 53.568 
L 365.133182 295.488 
L 365.604284 295.488 
L 365.640717 53.568 
L 365.712861 295.488 
L 365.966809 295.488 
L 366.003242 53.568 
L 366.075747 295.488 
L 368.721276 295.488 
L 368.757348 53.568 
L 368.829853 295.488 
L 369.119513 295.488 
L 369.155945 53.568 
L 369.22845 295.488 
L 369.518831 295.488 
L 369.555264 53.568 
L 369.627408 295.488 
L 369.66348 295.488 
L 369.699552 53.568 
L 369.772057 295.488 
L 371.876866 295.488 
L 371.985443 53.568 
L 372.130814 295.488 
L 373.073378 295.488 
L 373.145883 53.568 
L 373.182316 295.488 
L 373.580913 295.488 
L 373.653418 53.568 
L 373.68949 295.488 
L 374.632055 295.488 
L 374.668488 53.568 
L 374.740993 295.488 
L 376.372535 295.488 
L 376.408968 53.568 
L 376.481112 295.488 
L 376.698987 295.488 
L 376.73506 53.568 
L 376.807565 295.488 
L 377.460831 295.488 
L 377.496903 53.568 
L 377.569408 295.488 
L 378.18552 295.488 
L 378.221592 53.568 
L 378.294097 295.488 
L 380.397463 295.488 
L 380.542112 53.568 
L 380.578545 53.568 
L 380.687122 295.488 
L 380.759987 53.568 
L 380.79642 295.488 
L 382.209726 295.488 
L 382.245798 53.568 
L 382.318664 295.488 
L 383.695898 295.488 
L 383.732331 53.568 
L 383.805196 295.488 
L 384.602029 295.488 
L 384.638102 53.568 
L 384.713132 295.488 
L 385.003152 295.488 
L 385.039224 53.568 
L 385.111368 295.488 
L 385.256017 295.488 
L 385.29245 53.568 
L 385.364955 295.488 
L 385.87249 295.488 
L 385.908923 53.568 
L 385.981428 295.488 
L 386.924353 295.488 
L 386.960786 53.568 
L 387.033291 295.488 
L 389.318099 295.488 
L 389.354532 53.568 
L 389.426676 295.488 
L 391.167156 295.488 
L 391.203228 53.568 
L 391.276094 295.488 
L 392.218298 295.488 
L 392.254731 53.568 
L 392.327236 295.488 
L 394.284509 295.488 
L 394.393447 53.568 
L 394.537736 295.488 
L 394.574169 53.568 
L 394.647034 295.488 
L 396.424669 295.488 
L 396.460741 53.568 
L 396.533246 295.488 
L 397.472564 295.488 
L 397.508636 53.568 
L 397.581502 295.488 
L 398.016171 295.488 
L 398.052604 53.568 
L 398.124748 295.488 
L 398.487273 295.488 
L 398.487273 295.488 
" style="fill:none;stroke:#1f77b4;stroke-linecap:square;stroke-width:1.5;"/>
   </g>
   <g id="patch_3">
    <path d="M 57.6 307.584 
L 57.6 41.472 
" style="fill:none;stroke:#000000;stroke-linecap:square;stroke-linejoin:miter;stroke-width:0.8;"/>
   </g>
   <g id="patch_4">
    <path d="M 414.72 307.584 
L 414.72 41.472 
" style="fill:none;stroke:#000000;stroke-linecap:square;stroke-linejoin:miter;stroke-width:0.8;"/>
   </g>
   <g id="patch_5">
    <path d="M 57.6 307.584 
L 414.72 307.584 
" style="fill:none;stroke:#000000;stroke-linecap:square;stroke-linejoin:miter;stroke-width:0.8;"/>
   </g>
   <g id="patch_6">
    <path d="M 57.6 41.472 
L 414.72 41.472 
" style="fill:none;stroke:#000000;stroke-linecap:square;stroke-linejoin:miter;stroke-width:0.8;"/>
   </g>
   <g id="text_15">
    <!-- Current -->
    <g transform="translate(213.390938 35.472)scale(0.12 -0.12)">
     <use xlink:href="#DejaVuSans-43"/>
     <use x="69.824219" xlink:href="#DejaVuSans-75"/>
     <use x="133.203125" xlink:href="#DejaVuSans-72"/>
     <use x="174.300781" xlink:href="#DejaVuSans-72"/>
     <use x="215.382812" xlink:href="#DejaVuSans-65"/>
     <use x="276.90625" xlink:href="#DejaVuSans-6e"/>
     <use x="340.285156" xlink:href="#DejaVuSans-74"/>
    </g>
   </g>
  </g>
 </g>
 <defs>
  <clipPath id="pe017b855ae">
   <rect height="266.112" width="357.12" x="57.6" y="41.472"/>
  </clipPath>
 </defs>
</svg>
