<?xml version="1.0" encoding="utf-8" standalone="no"?>
<!DOCTYPE svg PUBLIC "-//W3C//DTD SVG 1.1//EN"
  "http://www.w3.org/Graphics/SVG/1.1/DTD/svg11.dtd">
<!-- Created with matplotlib (http://matplotlib.org/) -->
<svg height="345pt" version="1.1" viewBox="0 0 460 345" width="460pt" xmlns="http://www.w3.org/2000/svg" xmlns:xlink="http://www.w3.org/1999/xlink">
 <defs>
  <style type="text/css">
*{stroke-linecap:butt;stroke-linejoin:round;}
  </style>
 </defs>
 <g id="figure_1">
  <g id="patch_1">
   <path d="M 0 345.6 
L 460.8 345.6 
L 460.8 0 
L 0 0 
z
" style="fill:#ffffff;"/>
  </g>
  <g id="axes_1">
   <g id="patch_2">
    <path d="M 57.6 307.584 
L 414.72 307.584 
L 414.72 41.472 
L 57.6 41.472 
z
" style="fill:#ffffff;"/>
   </g>
   <g id="matplotlib.axis_1">
    <g id="xtick_1">
     <g id="line2d_1">
      <defs>
       <path d="M 0 0 
L 0 3.5 
" id="m70f8abafdc" style="stroke:#000000;stroke-width:0.8;"/>
      </defs>
      <g>
       <use style="stroke:#000000;stroke-width:0.8;" x="73.289297" xlink:href="#m70f8abafdc" y="307.584"/>
      </g>
     </g>
     <g id="text_1">
      <!-- 0 -->
      <defs>
       <path d="M 31.78125 66.40625 
Q 24.171875 66.40625 20.328125 58.90625 
Q 16.5 51.421875 16.5 36.375 
Q 16.5 21.390625 20.328125 13.890625 
Q 24.171875 6.390625 31.78125 6.390625 
Q 39.453125 6.390625 43.28125 13.890625 
Q 47.125 21.390625 47.125 36.375 
Q 47.125 51.421875 43.28125 58.90625 
Q 39.453125 66.40625 31.78125 66.40625 
z
M 31.78125 74.21875 
Q 44.046875 74.21875 50.515625 64.515625 
Q 56.984375 54.828125 56.984375 36.375 
Q 56.984375 17.96875 50.515625 8.265625 
Q 44.046875 -1.421875 31.78125 -1.421875 
Q 19.53125 -1.421875 13.0625 8.265625 
Q 6.59375 17.96875 6.59375 36.375 
Q 6.59375 54.828125 13.0625 64.515625 
Q 19.53125 74.21875 31.78125 74.21875 
z
" id="DejaVuSans-30"/>
      </defs>
      <g transform="translate(70.108047 322.182437)scale(0.1 -0.1)">
       <use xlink:href="#DejaVuSans-30"/>
      </g>
     </g>
    </g>
    <g id="xtick_2">
     <g id="line2d_2">
      <g>
       <use style="stroke:#000000;stroke-width:0.8;" x="127.578083" xlink:href="#m70f8abafdc" y="307.584"/>
      </g>
     </g>
     <g id="text_2">
      <!-- 100 -->
      <defs>
       <path d="M 12.40625 8.296875 
L 28.515625 8.296875 
L 28.515625 63.921875 
L 10.984375 60.40625 
L 10.984375 69.390625 
L 28.421875 72.90625 
L 38.28125 72.90625 
L 38.28125 8.296875 
L 54.390625 8.296875 
L 54.390625 0 
L 12.40625 0 
z
" id="DejaVuSans-31"/>
      </defs>
      <g transform="translate(118.034333 322.182437)scale(0.1 -0.1)">
       <use xlink:href="#DejaVuSans-31"/>
       <use x="63.623047" xlink:href="#DejaVuSans-30"/>
       <use x="127.246094" xlink:href="#DejaVuSans-30"/>
      </g>
     </g>
    </g>
    <g id="xtick_3">
     <g id="line2d_3">
      <g>
       <use style="stroke:#000000;stroke-width:0.8;" x="181.86687" xlink:href="#m70f8abafdc" y="307.584"/>
      </g>
     </g>
     <g id="text_3">
      <!-- 200 -->
      <defs>
       <path d="M 19.1875 8.296875 
L 53.609375 8.296875 
L 53.609375 0 
L 7.328125 0 
L 7.328125 8.296875 
Q 12.9375 14.109375 22.625 23.890625 
Q 32.328125 33.6875 34.8125 36.53125 
Q 39.546875 41.84375 41.421875 45.53125 
Q 43.3125 49.21875 43.3125 52.78125 
Q 43.3125 58.59375 39.234375 62.25 
Q 35.15625 65.921875 28.609375 65.921875 
Q 23.96875 65.921875 18.8125 64.3125 
Q 13.671875 62.703125 7.8125 59.421875 
L 7.8125 69.390625 
Q 13.765625 71.78125 18.9375 73 
Q 24.125 74.21875 28.421875 74.21875 
Q 39.75 74.21875 46.484375 68.546875 
Q 53.21875 62.890625 53.21875 53.421875 
Q 53.21875 48.921875 51.53125 44.890625 
Q 49.859375 40.875 45.40625 35.40625 
Q 44.1875 33.984375 37.640625 27.21875 
Q 31.109375 20.453125 19.1875 8.296875 
z
" id="DejaVuSans-32"/>
      </defs>
      <g transform="translate(172.32312 322.182437)scale(0.1 -0.1)">
       <use xlink:href="#DejaVuSans-32"/>
       <use x="63.623047" xlink:href="#DejaVuSans-30"/>
       <use x="127.246094" xlink:href="#DejaVuSans-30"/>
      </g>
     </g>
    </g>
    <g id="xtick_4">
     <g id="line2d_4">
      <g>
       <use style="stroke:#000000;stroke-width:0.8;" x="236.155657" xlink:href="#m70f8abafdc" y="307.584"/>
      </g>
     </g>
     <g id="text_4">
      <!-- 300 -->
      <defs>
       <path d="M 40.578125 39.3125 
Q 47.65625 37.796875 51.625 33 
Q 55.609375 28.21875 55.609375 21.1875 
Q 55.609375 10.40625 48.1875 4.484375 
Q 40.765625 -1.421875 27.09375 -1.421875 
Q 22.515625 -1.421875 17.65625 -0.515625 
Q 12.796875 0.390625 7.625 2.203125 
L 7.625 11.71875 
Q 11.71875 9.328125 16.59375 8.109375 
Q 21.484375 6.890625 26.8125 6.890625 
Q 36.078125 6.890625 40.9375 10.546875 
Q 45.796875 14.203125 45.796875 21.1875 
Q 45.796875 27.640625 41.28125 31.265625 
Q 36.765625 34.90625 28.71875 34.90625 
L 20.21875 34.90625 
L 20.21875 43.015625 
L 29.109375 43.015625 
Q 36.375 43.015625 40.234375 45.921875 
Q 44.09375 48.828125 44.09375 54.296875 
Q 44.09375 59.90625 40.109375 62.90625 
Q 36.140625 65.921875 28.71875 65.921875 
Q 24.65625 65.921875 20.015625 65.03125 
Q 15.375 64.15625 9.8125 62.3125 
L 9.8125 71.09375 
Q 15.4375 72.65625 20.34375 73.4375 
Q 25.25 74.21875 29.59375 74.21875 
Q 40.828125 74.21875 47.359375 69.109375 
Q 53.90625 64.015625 53.90625 55.328125 
Q 53.90625 49.265625 50.4375 45.09375 
Q 46.96875 40.921875 40.578125 39.3125 
z
" id="DejaVuSans-33"/>
      </defs>
      <g transform="translate(226.611907 322.182437)scale(0.1 -0.1)">
       <use xlink:href="#DejaVuSans-33"/>
       <use x="63.623047" xlink:href="#DejaVuSans-30"/>
       <use x="127.246094" xlink:href="#DejaVuSans-30"/>
      </g>
     </g>
    </g>
    <g id="xtick_5">
     <g id="line2d_5">
      <g>
       <use style="stroke:#000000;stroke-width:0.8;" x="290.444444" xlink:href="#m70f8abafdc" y="307.584"/>
      </g>
     </g>
     <g id="text_5">
      <!-- 400 -->
      <defs>
       <path d="M 37.796875 64.3125 
L 12.890625 25.390625 
L 37.796875 25.390625 
z
M 35.203125 72.90625 
L 47.609375 72.90625 
L 47.609375 25.390625 
L 58.015625 25.390625 
L 58.015625 17.1875 
L 47.609375 17.1875 
L 47.609375 0 
L 37.796875 0 
L 37.796875 17.1875 
L 4.890625 17.1875 
L 4.890625 26.703125 
z
" id="DejaVuSans-34"/>
      </defs>
      <g transform="translate(280.900694 322.182437)scale(0.1 -0.1)">
       <use xlink:href="#DejaVuSans-34"/>
       <use x="63.623047" xlink:href="#DejaVuSans-30"/>
       <use x="127.246094" xlink:href="#DejaVuSans-30"/>
      </g>
     </g>
    </g>
    <g id="xtick_6">
     <g id="line2d_6">
      <g>
       <use style="stroke:#000000;stroke-width:0.8;" x="344.733231" xlink:href="#m70f8abafdc" y="307.584"/>
      </g>
     </g>
     <g id="text_6">
      <!-- 500 -->
      <defs>
       <path d="M 10.796875 72.90625 
L 49.515625 72.90625 
L 49.515625 64.59375 
L 19.828125 64.59375 
L 19.828125 46.734375 
Q 21.96875 47.46875 24.109375 47.828125 
Q 26.265625 48.1875 28.421875 48.1875 
Q 40.625 48.1875 47.75 41.5 
Q 54.890625 34.8125 54.890625 23.390625 
Q 54.890625 11.625 47.5625 5.09375 
Q 40.234375 -1.421875 26.90625 -1.421875 
Q 22.3125 -1.421875 17.546875 -0.640625 
Q 12.796875 0.140625 7.71875 1.703125 
L 7.71875 11.625 
Q 12.109375 9.234375 16.796875 8.0625 
Q 21.484375 6.890625 26.703125 6.890625 
Q 35.15625 6.890625 40.078125 11.328125 
Q 45.015625 15.765625 45.015625 23.390625 
Q 45.015625 31 40.078125 35.4375 
Q 35.15625 39.890625 26.703125 39.890625 
Q 22.75 39.890625 18.8125 39.015625 
Q 14.890625 38.140625 10.796875 36.28125 
z
" id="DejaVuSans-35"/>
      </defs>
      <g transform="translate(335.189481 322.182437)scale(0.1 -0.1)">
       <use xlink:href="#DejaVuSans-35"/>
       <use x="63.623047" xlink:href="#DejaVuSans-30"/>
       <use x="127.246094" xlink:href="#DejaVuSans-30"/>
      </g>
     </g>
    </g>
    <g id="xtick_7">
     <g id="line2d_7">
      <g>
       <use style="stroke:#000000;stroke-width:0.8;" x="399.022017" xlink:href="#m70f8abafdc" y="307.584"/>
      </g>
     </g>
     <g id="text_7">
      <!-- 600 -->
      <defs>
       <path d="M 33.015625 40.375 
Q 26.375 40.375 22.484375 35.828125 
Q 18.609375 31.296875 18.609375 23.390625 
Q 18.609375 15.53125 22.484375 10.953125 
Q 26.375 6.390625 33.015625 6.390625 
Q 39.65625 6.390625 43.53125 10.953125 
Q 47.40625 15.53125 47.40625 23.390625 
Q 47.40625 31.296875 43.53125 35.828125 
Q 39.65625 40.375 33.015625 40.375 
z
M 52.59375 71.296875 
L 52.59375 62.3125 
Q 48.875 64.0625 45.09375 64.984375 
Q 41.3125 65.921875 37.59375 65.921875 
Q 27.828125 65.921875 22.671875 59.328125 
Q 17.53125 52.734375 16.796875 39.40625 
Q 19.671875 43.65625 24.015625 45.921875 
Q 28.375 48.1875 33.59375 48.1875 
Q 44.578125 48.1875 50.953125 41.515625 
Q 57.328125 34.859375 57.328125 23.390625 
Q 57.328125 12.15625 50.6875 5.359375 
Q 44.046875 -1.421875 33.015625 -1.421875 
Q 20.359375 -1.421875 13.671875 8.265625 
Q 6.984375 17.96875 6.984375 36.375 
Q 6.984375 53.65625 15.1875 63.9375 
Q 23.390625 74.21875 37.203125 74.21875 
Q 40.921875 74.21875 44.703125 73.484375 
Q 48.484375 72.75 52.59375 71.296875 
z
" id="DejaVuSans-36"/>
      </defs>
      <g transform="translate(389.478267 322.182437)scale(0.1 -0.1)">
       <use xlink:href="#DejaVuSans-36"/>
       <use x="63.623047" xlink:href="#DejaVuSans-30"/>
       <use x="127.246094" xlink:href="#DejaVuSans-30"/>
      </g>
     </g>
    </g>
    <g id="text_8">
     <!-- t(s) -->
     <defs>
      <path d="M 18.3125 70.21875 
L 18.3125 54.6875 
L 36.8125 54.6875 
L 36.8125 47.703125 
L 18.3125 47.703125 
L 18.3125 18.015625 
Q 18.3125 11.328125 20.140625 9.421875 
Q 21.96875 7.515625 27.59375 7.515625 
L 36.8125 7.515625 
L 36.8125 0 
L 27.59375 0 
Q 17.1875 0 13.234375 3.875 
Q 9.28125 7.765625 9.28125 18.015625 
L 9.28125 47.703125 
L 2.6875 47.703125 
L 2.6875 54.6875 
L 9.28125 54.6875 
L 9.28125 70.21875 
z
" id="DejaVuSans-74"/>
      <path d="M 31 75.875 
Q 24.46875 64.65625 21.28125 53.65625 
Q 18.109375 42.671875 18.109375 31.390625 
Q 18.109375 20.125 21.3125 9.0625 
Q 24.515625 -2 31 -13.1875 
L 23.1875 -13.1875 
Q 15.875 -1.703125 12.234375 9.375 
Q 8.59375 20.453125 8.59375 31.390625 
Q 8.59375 42.28125 12.203125 53.3125 
Q 15.828125 64.359375 23.1875 75.875 
z
" id="DejaVuSans-28"/>
      <path d="M 44.28125 53.078125 
L 44.28125 44.578125 
Q 40.484375 46.53125 36.375 47.5 
Q 32.28125 48.484375 27.875 48.484375 
Q 21.1875 48.484375 17.84375 46.4375 
Q 14.5 44.390625 14.5 40.28125 
Q 14.5 37.15625 16.890625 35.375 
Q 19.28125 33.59375 26.515625 31.984375 
L 29.59375 31.296875 
Q 39.15625 29.25 43.1875 25.515625 
Q 47.21875 21.78125 47.21875 15.09375 
Q 47.21875 7.46875 41.1875 3.015625 
Q 35.15625 -1.421875 24.609375 -1.421875 
Q 20.21875 -1.421875 15.453125 -0.5625 
Q 10.6875 0.296875 5.421875 2 
L 5.421875 11.28125 
Q 10.40625 8.6875 15.234375 7.390625 
Q 20.0625 6.109375 24.8125 6.109375 
Q 31.15625 6.109375 34.5625 8.28125 
Q 37.984375 10.453125 37.984375 14.40625 
Q 37.984375 18.0625 35.515625 20.015625 
Q 33.0625 21.96875 24.703125 23.78125 
L 21.578125 24.515625 
Q 13.234375 26.265625 9.515625 29.90625 
Q 5.8125 33.546875 5.8125 39.890625 
Q 5.8125 47.609375 11.28125 51.796875 
Q 16.75 56 26.8125 56 
Q 31.78125 56 36.171875 55.265625 
Q 40.578125 54.546875 44.28125 53.078125 
z
" id="DejaVuSans-73"/>
      <path d="M 8.015625 75.875 
L 15.828125 75.875 
Q 23.140625 64.359375 26.78125 53.3125 
Q 30.421875 42.28125 30.421875 31.390625 
Q 30.421875 20.453125 26.78125 9.375 
Q 23.140625 -1.703125 15.828125 -13.1875 
L 8.015625 -13.1875 
Q 14.5 -2 17.703125 9.0625 
Q 20.90625 20.125 20.90625 31.390625 
Q 20.90625 42.671875 17.703125 53.65625 
Q 14.5 64.65625 8.015625 75.875 
z
" id="DejaVuSans-29"/>
     </defs>
     <g transform="translate(227.693594 335.860562)scale(0.1 -0.1)">
      <use xlink:href="#DejaVuSans-74"/>
      <use x="39.208984" xlink:href="#DejaVuSans-28"/>
      <use x="78.222656" xlink:href="#DejaVuSans-73"/>
      <use x="130.322266" xlink:href="#DejaVuSans-29"/>
     </g>
    </g>
   </g>
   <g id="matplotlib.axis_2">
    <g id="ytick_1">
     <g id="line2d_8">
      <defs>
       <path d="M 0 0 
L -3.5 0 
" id="m9bd00ce8ad" style="stroke:#000000;stroke-width:0.8;"/>
      </defs>
      <g>
       <use style="stroke:#000000;stroke-width:0.8;" x="57.6" xlink:href="#m9bd00ce8ad" y="284.758005"/>
      </g>
     </g>
     <g id="text_9">
      <!-- 4360 -->
      <g transform="translate(25.15 288.557223)scale(0.1 -0.1)">
       <use xlink:href="#DejaVuSans-34"/>
       <use x="63.623047" xlink:href="#DejaVuSans-33"/>
       <use x="127.246094" xlink:href="#DejaVuSans-36"/>
       <use x="190.869141" xlink:href="#DejaVuSans-30"/>
      </g>
     </g>
    </g>
    <g id="ytick_2">
     <g id="line2d_9">
      <g>
       <use style="stroke:#000000;stroke-width:0.8;" x="57.6" xlink:href="#m9bd00ce8ad" y="252.292058"/>
      </g>
     </g>
     <g id="text_10">
      <!-- 4380 -->
      <defs>
       <path d="M 31.78125 34.625 
Q 24.75 34.625 20.71875 30.859375 
Q 16.703125 27.09375 16.703125 20.515625 
Q 16.703125 13.921875 20.71875 10.15625 
Q 24.75 6.390625 31.78125 6.390625 
Q 38.8125 6.390625 42.859375 10.171875 
Q 46.921875 13.96875 46.921875 20.515625 
Q 46.921875 27.09375 42.890625 30.859375 
Q 38.875 34.625 31.78125 34.625 
z
M 21.921875 38.8125 
Q 15.578125 40.375 12.03125 44.71875 
Q 8.5 49.078125 8.5 55.328125 
Q 8.5 64.0625 14.71875 69.140625 
Q 20.953125 74.21875 31.78125 74.21875 
Q 42.671875 74.21875 48.875 69.140625 
Q 55.078125 64.0625 55.078125 55.328125 
Q 55.078125 49.078125 51.53125 44.71875 
Q 48 40.375 41.703125 38.8125 
Q 48.828125 37.15625 52.796875 32.3125 
Q 56.78125 27.484375 56.78125 20.515625 
Q 56.78125 9.90625 50.3125 4.234375 
Q 43.84375 -1.421875 31.78125 -1.421875 
Q 19.734375 -1.421875 13.25 4.234375 
Q 6.78125 9.90625 6.78125 20.515625 
Q 6.78125 27.484375 10.78125 32.3125 
Q 14.796875 37.15625 21.921875 38.8125 
z
M 18.3125 54.390625 
Q 18.3125 48.734375 21.84375 45.5625 
Q 25.390625 42.390625 31.78125 42.390625 
Q 38.140625 42.390625 41.71875 45.5625 
Q 45.3125 48.734375 45.3125 54.390625 
Q 45.3125 60.0625 41.71875 63.234375 
Q 38.140625 66.40625 31.78125 66.40625 
Q 25.390625 66.40625 21.84375 63.234375 
Q 18.3125 60.0625 18.3125 54.390625 
z
" id="DejaVuSans-38"/>
      </defs>
      <g transform="translate(25.15 256.091277)scale(0.1 -0.1)">
       <use xlink:href="#DejaVuSans-34"/>
       <use x="63.623047" xlink:href="#DejaVuSans-33"/>
       <use x="127.246094" xlink:href="#DejaVuSans-38"/>
       <use x="190.869141" xlink:href="#DejaVuSans-30"/>
      </g>
     </g>
    </g>
    <g id="ytick_3">
     <g id="line2d_10">
      <g>
       <use style="stroke:#000000;stroke-width:0.8;" x="57.6" xlink:href="#m9bd00ce8ad" y="219.826112"/>
      </g>
     </g>
     <g id="text_11">
      <!-- 4400 -->
      <g transform="translate(25.15 223.625331)scale(0.1 -0.1)">
       <use xlink:href="#DejaVuSans-34"/>
       <use x="63.623047" xlink:href="#DejaVuSans-34"/>
       <use x="127.246094" xlink:href="#DejaVuSans-30"/>
       <use x="190.869141" xlink:href="#DejaVuSans-30"/>
      </g>
     </g>
    </g>
    <g id="ytick_4">
     <g id="line2d_11">
      <g>
       <use style="stroke:#000000;stroke-width:0.8;" x="57.6" xlink:href="#m9bd00ce8ad" y="187.360165"/>
      </g>
     </g>
     <g id="text_12">
      <!-- 4420 -->
      <g transform="translate(25.15 191.159384)scale(0.1 -0.1)">
       <use xlink:href="#DejaVuSans-34"/>
       <use x="63.623047" xlink:href="#DejaVuSans-34"/>
       <use x="127.246094" xlink:href="#DejaVuSans-32"/>
       <use x="190.869141" xlink:href="#DejaVuSans-30"/>
      </g>
     </g>
    </g>
    <g id="ytick_5">
     <g id="line2d_12">
      <g>
       <use style="stroke:#000000;stroke-width:0.8;" x="57.6" xlink:href="#m9bd00ce8ad" y="154.894219"/>
      </g>
     </g>
     <g id="text_13">
      <!-- 4440 -->
      <g transform="translate(25.15 158.693438)scale(0.1 -0.1)">
       <use xlink:href="#DejaVuSans-34"/>
       <use x="63.623047" xlink:href="#DejaVuSans-34"/>
       <use x="127.246094" xlink:href="#DejaVuSans-34"/>
       <use x="190.869141" xlink:href="#DejaVuSans-30"/>
      </g>
     </g>
    </g>
    <g id="ytick_6">
     <g id="line2d_13">
      <g>
       <use style="stroke:#000000;stroke-width:0.8;" x="57.6" xlink:href="#m9bd00ce8ad" y="122.428272"/>
      </g>
     </g>
     <g id="text_14">
      <!-- 4460 -->
      <g transform="translate(25.15 126.227491)scale(0.1 -0.1)">
       <use xlink:href="#DejaVuSans-34"/>
       <use x="63.623047" xlink:href="#DejaVuSans-34"/>
       <use x="127.246094" xlink:href="#DejaVuSans-36"/>
       <use x="190.869141" xlink:href="#DejaVuSans-30"/>
      </g>
     </g>
    </g>
    <g id="ytick_7">
     <g id="line2d_14">
      <g>
       <use style="stroke:#000000;stroke-width:0.8;" x="57.6" xlink:href="#m9bd00ce8ad" y="89.962326"/>
      </g>
     </g>
     <g id="text_15">
      <!-- 4480 -->
      <g transform="translate(25.15 93.761545)scale(0.1 -0.1)">
       <use xlink:href="#DejaVuSans-34"/>
       <use x="63.623047" xlink:href="#DejaVuSans-34"/>
       <use x="127.246094" xlink:href="#DejaVuSans-38"/>
       <use x="190.869141" xlink:href="#DejaVuSans-30"/>
      </g>
     </g>
    </g>
    <g id="ytick_8">
     <g id="line2d_15">
      <g>
       <use style="stroke:#000000;stroke-width:0.8;" x="57.6" xlink:href="#m9bd00ce8ad" y="57.49638"/>
      </g>
     </g>
     <g id="text_16">
      <!-- 4500 -->
      <g transform="translate(25.15 61.295598)scale(0.1 -0.1)">
       <use xlink:href="#DejaVuSans-34"/>
       <use x="63.623047" xlink:href="#DejaVuSans-35"/>
       <use x="127.246094" xlink:href="#DejaVuSans-30"/>
       <use x="190.869141" xlink:href="#DejaVuSans-30"/>
      </g>
     </g>
    </g>
    <g id="text_17">
     <!-- Current (nA) -->
     <defs>
      <path d="M 64.40625 67.28125 
L 64.40625 56.890625 
Q 59.421875 61.53125 53.78125 63.8125 
Q 48.140625 66.109375 41.796875 66.109375 
Q 29.296875 66.109375 22.65625 58.46875 
Q 16.015625 50.828125 16.015625 36.375 
Q 16.015625 21.96875 22.65625 14.328125 
Q 29.296875 6.6875 41.796875 6.6875 
Q 48.140625 6.6875 53.78125 8.984375 
Q 59.421875 11.28125 64.40625 15.921875 
L 64.40625 5.609375 
Q 59.234375 2.09375 53.4375 0.328125 
Q 47.65625 -1.421875 41.21875 -1.421875 
Q 24.65625 -1.421875 15.125 8.703125 
Q 5.609375 18.84375 5.609375 36.375 
Q 5.609375 53.953125 15.125 64.078125 
Q 24.65625 74.21875 41.21875 74.21875 
Q 47.75 74.21875 53.53125 72.484375 
Q 59.328125 70.75 64.40625 67.28125 
z
" id="DejaVuSans-43"/>
      <path d="M 8.5 21.578125 
L 8.5 54.6875 
L 17.484375 54.6875 
L 17.484375 21.921875 
Q 17.484375 14.15625 20.5 10.265625 
Q 23.53125 6.390625 29.59375 6.390625 
Q 36.859375 6.390625 41.078125 11.03125 
Q 45.3125 15.671875 45.3125 23.6875 
L 45.3125 54.6875 
L 54.296875 54.6875 
L 54.296875 0 
L 45.3125 0 
L 45.3125 8.40625 
Q 42.046875 3.421875 37.71875 1 
Q 33.40625 -1.421875 27.6875 -1.421875 
Q 18.265625 -1.421875 13.375 4.4375 
Q 8.5 10.296875 8.5 21.578125 
z
M 31.109375 56 
z
" id="DejaVuSans-75"/>
      <path d="M 41.109375 46.296875 
Q 39.59375 47.171875 37.8125 47.578125 
Q 36.03125 48 33.890625 48 
Q 26.265625 48 22.1875 43.046875 
Q 18.109375 38.09375 18.109375 28.8125 
L 18.109375 0 
L 9.078125 0 
L 9.078125 54.6875 
L 18.109375 54.6875 
L 18.109375 46.1875 
Q 20.953125 51.171875 25.484375 53.578125 
Q 30.03125 56 36.53125 56 
Q 37.453125 56 38.578125 55.875 
Q 39.703125 55.765625 41.0625 55.515625 
z
" id="DejaVuSans-72"/>
      <path d="M 56.203125 29.59375 
L 56.203125 25.203125 
L 14.890625 25.203125 
Q 15.484375 15.921875 20.484375 11.0625 
Q 25.484375 6.203125 34.421875 6.203125 
Q 39.59375 6.203125 44.453125 7.46875 
Q 49.3125 8.734375 54.109375 11.28125 
L 54.109375 2.78125 
Q 49.265625 0.734375 44.1875 -0.34375 
Q 39.109375 -1.421875 33.890625 -1.421875 
Q 20.796875 -1.421875 13.15625 6.1875 
Q 5.515625 13.8125 5.515625 26.8125 
Q 5.515625 40.234375 12.765625 48.109375 
Q 20.015625 56 32.328125 56 
Q 43.359375 56 49.78125 48.890625 
Q 56.203125 41.796875 56.203125 29.59375 
z
M 47.21875 32.234375 
Q 47.125 39.59375 43.09375 43.984375 
Q 39.0625 48.390625 32.421875 48.390625 
Q 24.90625 48.390625 20.390625 44.140625 
Q 15.875 39.890625 15.1875 32.171875 
z
" id="DejaVuSans-65"/>
      <path d="M 54.890625 33.015625 
L 54.890625 0 
L 45.90625 0 
L 45.90625 32.71875 
Q 45.90625 40.484375 42.875 44.328125 
Q 39.84375 48.1875 33.796875 48.1875 
Q 26.515625 48.1875 22.3125 43.546875 
Q 18.109375 38.921875 18.109375 30.90625 
L 18.109375 0 
L 9.078125 0 
L 9.078125 54.6875 
L 18.109375 54.6875 
L 18.109375 46.1875 
Q 21.34375 51.125 25.703125 53.5625 
Q 30.078125 56 35.796875 56 
Q 45.21875 56 50.046875 50.171875 
Q 54.890625 44.34375 54.890625 33.015625 
z
" id="DejaVuSans-6e"/>
      <path id="DejaVuSans-20"/>
      <path d="M 34.1875 63.1875 
L 20.796875 26.90625 
L 47.609375 26.90625 
z
M 28.609375 72.90625 
L 39.796875 72.90625 
L 67.578125 0 
L 57.328125 0 
L 50.6875 18.703125 
L 17.828125 18.703125 
L 11.1875 0 
L 0.78125 0 
z
" id="DejaVuSans-41"/>
     </defs>
     <g transform="translate(19.070312 205.581906)rotate(-90)scale(0.1 -0.1)">
      <use xlink:href="#DejaVuSans-43"/>
      <use x="69.824219" xlink:href="#DejaVuSans-75"/>
      <use x="133.203125" xlink:href="#DejaVuSans-72"/>
      <use x="174.300781" xlink:href="#DejaVuSans-72"/>
      <use x="215.382812" xlink:href="#DejaVuSans-65"/>
      <use x="276.90625" xlink:href="#DejaVuSans-6e"/>
      <use x="340.285156" xlink:href="#DejaVuSans-74"/>
      <use x="379.494141" xlink:href="#DejaVuSans-20"/>
      <use x="411.28125" xlink:href="#DejaVuSans-28"/>
      <use x="450.294922" xlink:href="#DejaVuSans-6e"/>
      <use x="513.673828" xlink:href="#DejaVuSans-41"/>
      <use x="582.082031" xlink:href="#DejaVuSans-29"/>
     </g>
    </g>
   </g>
   <g id="line2d_16">
    <path clip-path="url(#p75b789590b)" d="M 73.832727 246.578052 
L 74.375615 250.27917 
L 74.919589 223.770724 
L 75.462477 219.939743 
L 76.005364 214.534163 
L 76.548252 216.952876 
L 77.09114 223.186337 
L 77.634028 204.74568 
L 78.176916 218.884599 
L 78.719804 222.861678 
L 79.262692 206.904665 
L 79.80558 215.426976 
L 80.348467 211.920654 
L 80.891355 212.927098 
L 81.434243 219.209259 
L 81.977131 212.505041 
L 82.520019 211.725858 
L 83.062907 198.463519 
L 83.605795 212.813467 
L 84.148682 221.579273 
L 84.69157 225.036896 
L 85.234458 232.682627 
L 85.777346 230.215215 
L 86.320234 235.263669 
L 86.863122 234.111128 
L 87.40601 218.186581 
L 87.948898 214.290668 
L 88.491785 213.949775 
L 89.034673 201.677648 
L 89.577561 206.628705 
L 90.120449 232.471598 
L 90.663337 231.383989 
L 91.206225 245.052152 
L 91.749113 248.866901 
L 92.292 274.872124 
L 92.834888 273.411156 
L 93.377776 264.320691 
L 93.920664 276.073364 
L 94.463552 282.095797 
L 95.00644 273.021565 
L 95.549328 285.959245 
L 96.092216 281.917234 
L 96.635103 295.488 
L 97.177991 280.099141 
L 97.720879 286.91699 
L 98.263767 273.605952 
L 98.806655 278.021321 
L 99.349543 273.054031 
L 99.892431 286.413768 
L 100.435319 289.887624 
L 100.978206 262.421434 
L 101.521094 259.937789 
L 102.063982 273.557253 
L 102.60687 281.965933 
L 103.149758 281.917234 
L 103.692646 280.034209 
L 104.235534 262.551297 
L 104.778421 288.28056 
L 105.321309 263.606441 
L 105.864197 282.290593 
L 106.407085 288.44289 
L 106.949973 292.290104 
L 107.492861 280.14784 
L 108.035749 282.582786 
L 108.578637 279.417357 
L 109.121524 279.904346 
L 109.664412 283.03731 
L 110.2073 292.939423 
L 110.750188 287.663707 
L 111.293076 295.260738 
L 111.835964 264.872612 
L 112.378852 281.901001 
L 112.921739 281.738672 
L 113.464627 288.735083 
L 114.007515 286.657263 
L 114.550403 286.624797 
L 115.093291 287.128019 
L 115.636179 288.637685 
L 116.179067 265.424534 
L 116.721955 271.528132 
L 117.264842 268.038042 
L 117.80773 267.924411 
L 118.350618 255.489954 
L 118.893506 259.369635 
L 119.436394 268.849691 
L 119.979282 261.36629 
L 120.52217 263.622674 
L 121.065057 263.054519 
L 122.150833 267.291326 
L 122.693721 272.810536 
L 123.236609 258.08723 
L 123.779497 274.693561 
L 124.322385 276.462955 
L 124.865273 269.791203 
L 125.40816 279.27126 
L 125.951048 286.527399 
L 126.493936 288.572753 
L 127.036824 288.605219 
L 127.579712 285.374858 
L 128.1226 269.352913 
L 128.665488 281.267915 
L 129.208376 274.450067 
L 129.751263 276.154529 
L 130.294151 278.605708 
L 130.837039 279.401124 
L 131.379927 282.014632 
L 131.922815 265.943989 
L 132.465703 269.093186 
L 133.008591 285.131363 
L 133.551478 293.182918 
L 134.094366 273.573486 
L 134.637254 287.452678 
L 135.180142 284.059987 
L 135.72303 278.281048 
L 136.265918 270.911279 
L 136.808806 260.863068 
L 137.894581 237.909644 
L 138.437469 233.445576 
L 138.980357 214.891288 
L 139.523245 201.807512 
L 140.066133 217.439865 
L 140.609021 201.710114 
L 141.151909 206.417676 
L 141.694796 207.099461 
L 142.237684 209.38831 
L 142.780572 217.650893 
L 143.32346 209.047418 
L 143.866348 216.936643 
L 144.409236 222.894144 
L 144.952124 194.713702 
L 146.037899 195.087061 
L 146.580787 188.918531 
L 147.123675 191.743068 
L 147.666563 190.736624 
L 148.209451 169.309099 
L 148.752339 169.455196 
L 149.295227 172.42583 
L 149.838114 152.832631 
L 150.381002 147.654313 
L 150.92389 164.082082 
L 151.466778 189.535384 
L 152.009666 170.672669 
L 152.552554 163.822354 
L 153.095442 162.150358 
L 153.63833 153.563115 
L 154.181217 165.997573 
L 154.724105 155.364975 
L 155.266993 166.484562 
L 155.809881 149.196445 
L 156.352769 157.361631 
L 156.895657 155.316276 
L 157.438545 168.22149 
L 157.981433 176.549005 
L 158.52432 160.121236 
L 159.067208 183.983707 
L 159.610096 183.139592 
L 160.152984 178.091138 
L 160.695872 195.476652 
L 161.23876 208.641593 
L 161.781648 217.115205 
L 162.324535 218.008019 
L 162.867423 216.628216 
L 163.410311 207.391654 
L 163.953199 207.375421 
L 164.496087 220.19947 
L 165.038975 216.189926 
L 165.581863 215.086084 
L 166.124751 211.514829 
L 166.667638 203.917798 
L 167.210526 200.914698 
L 167.753414 201.14196 
L 168.296302 195.590283 
L 168.83919 192.392387 
L 169.382078 183.83761 
L 169.924966 200.184214 
L 170.467853 163.871053 
L 171.010741 171.046027 
L 171.553629 158.238211 
L 172.096517 156.842176 
L 172.639405 240.604318 
L 173.182293 231.091795 
L 173.725181 223.997986 
L 174.268069 225.718681 
L 174.810956 152.686535 
L 175.353844 256.236671 
L 175.896732 256.220438 
L 176.43962 161.127681 
L 176.982508 157.020738 
L 177.525396 145.901152 
L 178.068284 150.31652 
L 178.611171 147.91404 
L 179.154059 164.909963 
L 179.696947 156.696079 
L 180.239835 165.867709 
L 180.782723 153.92024 
L 181.325611 167.085182 
L 181.868499 171.808977 
L 182.411387 171.273289 
L 182.954274 165.088526 
L 183.497162 177.620381 
L 184.04005 186.467352 
L 184.582938 205.589794 
L 185.125826 205.94692 
L 185.668714 211.936887 
L 186.75449 195.590283 
L 187.297377 196.856455 
L 187.840265 217.845689 
L 188.383153 205.411232 
L 189.468929 228.526985 
L 190.011817 224.192782 
L 190.554705 235.409766 
L 191.097592 255.08413 
L 191.64048 231.822279 
L 192.183368 255.246459 
L 192.726256 247.87669 
L 193.269144 231.221659 
L 193.812032 231.903444 
L 194.35492 187.782223 
L 194.897808 184.87652 
L 195.440695 177.052227 
L 195.983583 190.817789 
L 196.526471 181.694858 
L 197.069359 198.934275 
L 197.612247 180.931908 
L 198.155135 189.113326 
L 198.698023 170.575271 
L 199.24091 172.052472 
L 199.783798 162.588648 
L 200.326686 166.890386 
L 200.869574 161.939329 
L 201.95535 165.234623 
L 202.498238 209.680504 
L 203.584013 214.63156 
L 204.126901 217.212603 
L 204.669789 233.331946 
L 205.212677 219.046929 
L 205.755565 212.8297 
L 206.298453 208.803923 
L 207.384228 241.643228 
L 207.927116 229.436032 
L 208.470004 238.055741 
L 209.012892 226.254369 
L 209.55578 235.10134 
L 210.098668 234.029963 
L 210.641556 236.9032 
L 211.184444 236.221415 
L 211.727331 226.643961 
L 212.270219 224.988197 
L 212.813107 222.43962 
L 213.355995 232.309268 
L 213.898883 223.121405 
L 214.441771 221.319545 
L 214.984659 227.017319 
L 215.527547 217.212603 
L 216.070434 212.261546 
L 216.613322 205.881988 
L 217.15621 212.472575 
L 217.699098 213.300457 
L 218.241986 194.908498 
L 218.784874 194.8111 
L 219.327762 192.278756 
L 219.870649 200.103049 
L 220.956425 170.656436 
L 221.499313 161.598437 
L 222.042201 174.097826 
L 222.585089 183.07466 
L 223.127977 169.471429 
L 223.670865 179.568338 
L 224.213752 154.877986 
L 224.75664 157.507728 
L 225.299528 156.192857 
L 225.842416 145.365464 
L 226.385304 156.939574 
L 226.928192 149.764599 
L 227.47108 158.221978 
L 228.013967 144.456417 
L 228.556855 138.937206 
L 229.099743 130.93435 
L 229.642631 127.346863 
L 230.185519 136.096436 
L 230.728407 137.638568 
L 231.271295 127.833853 
L 231.814183 130.382429 
L 232.35707 120.44785 
L 232.899958 127.736455 
L 233.442846 115.301997 
L 233.985734 118.223932 
L 234.528622 125.52877 
L 235.07151 128.239677 
L 235.614398 117.915506 
L 236.157285 122.282176 
L 236.700173 128.369541 
L 237.243061 146.388141 
L 237.785949 141.875374 
L 238.328837 175.412697 
L 238.871725 186.694613 
L 239.414613 182.214313 
L 239.957501 174.941941 
L 240.500388 175.834754 
L 241.043276 171.029794 
L 241.586164 190.850255 
L 242.129052 195.541584 
L 242.67194 174.747145 
L 243.214828 203.511974 
L 243.757716 189.811344 
L 244.300604 212.212847 
L 244.843491 229.582129 
L 245.386379 211.514829 
L 245.929267 213.787446 
L 246.472155 229.09514 
L 247.015043 221.887699 
L 247.557931 227.325745 
L 248.100819 182.717535 
L 248.643706 153.741678 
L 249.186594 177.896342 
L 249.729482 172.052472 
L 250.27237 172.620626 
L 250.815258 168.49745 
L 251.358146 145.479094 
L 252.443922 116.551936 
L 252.986809 112.688488 
L 253.529697 101.000748 
L 254.072585 123.174989 
L 254.615473 135.982805 
L 255.158361 125.480071 
L 255.701249 161.160147 
L 256.244137 169.925952 
L 256.787024 168.740945 
L 257.329912 163.108103 
L 257.8728 158.741434 
L 258.415688 176.841199 
L 258.958576 179.178747 
L 259.501464 189.730179 
L 260.044352 179.698202 
L 260.58724 204.615816 
L 261.130127 222.050029 
L 261.673015 207.213092 
L 262.215903 212.634905 
L 262.758791 211.823256 
L 263.301679 223.738258 
L 263.844567 214.209503 
L 264.387455 219.550151 
L 264.930343 204.761913 
L 265.47323 196.645426 
L 266.016118 171.468085 
L 266.559006 171.922608 
L 267.101894 153.968939 
L 267.644782 153.855309 
L 268.18767 155.300043 
L 268.730558 163.351598 
L 269.273445 161.89063 
L 269.816333 159.926441 
L 270.359221 150.04056 
L 270.902109 123.775609 
L 271.444997 131.453806 
L 271.987885 129.587014 
L 272.530773 134.732866 
L 273.616548 111.227521 
L 274.159436 112.704721 
L 274.702324 105.432349 
L 275.245212 92.153777 
L 275.7881 86.553402 
L 276.330988 96.958737 
L 276.873876 93.062824 
L 277.416763 99.70211 
L 277.959651 128.759132 
L 278.502539 136.031504 
L 279.045427 159.374519 
L 279.588315 143.628535 
L 280.131203 152.621603 
L 280.674091 141.502016 
L 281.216979 151.972284 
L 281.759866 148.011438 
L 282.302754 152.085915 
L 282.845642 161.273777 
L 283.38853 163.85482 
L 283.931418 174.779611 
L 284.474306 180.802044 
L 285.017194 175.42893 
L 285.560081 185.087549 
L 286.102969 192.717047 
L 286.645857 183.67528 
L 287.188745 195.655215 
L 287.731633 210.232425 
L 288.274521 207.992274 
L 288.817409 212.050518 
L 289.360297 191.239846 
L 289.903184 192.24629 
L 290.446072 187.538728 
L 290.98896 170.02335 
L 291.531848 163.237967 
L 292.074736 146.388141 
L 292.617624 148.254933 
L 293.160512 149.504872 
L 294.246287 135.62568 
L 294.789175 145.203134 
L 295.332606 135.658146 
L 295.87658 102.607812 
L 296.42001 98.711899 
L 296.963441 133.49916 
L 297.506872 147.167324 
L 298.04976 148.693223 
L 298.593191 173.091382 
L 299.136079 174.406253 
L 299.678966 181.126704 
L 301.30763 206.076783 
L 301.850518 204.323622 
L 302.393406 224.679771 
L 302.936294 217.163904 
L 303.479181 192.814444 
L 304.022069 190.071072 
L 304.564957 175.347765 
L 305.107845 170.46164 
L 306.193621 121.259498 
L 307.279397 147.118625 
L 307.822284 130.901884 
L 308.90806 154.423463 
L 309.450948 145.690123 
L 309.994379 104.231109 
L 310.537267 99.669644 
L 311.080154 117.866807 
L 311.623042 90.465548 
L 312.16593 88.679921 
L 312.708818 87.494914 
L 313.251706 71.895027 
L 313.794594 75.79094 
L 314.337482 76.748686 
L 314.88037 77.31684 
L 315.423257 83.891194 
L 315.966145 103.857751 
L 316.509033 131.437573 
L 317.051921 118.370029 
L 317.594809 122.460738 
L 318.137697 148.254933 
L 318.680585 147.03746 
L 319.223472 135.02506 
L 319.76636 128.710433 
L 320.309248 126.551448 
L 320.852136 135.641913 
L 321.395024 131.486271 
L 321.937912 140.511805 
L 322.4808 151.696323 
L 323.023688 159.877742 
L 323.566575 177.084693 
L 324.109463 179.162514 
L 324.652351 155.933129 
L 325.195239 159.04986 
L 325.738127 185.298578 
L 326.281015 190.996351 
L 326.823903 189.178258 
L 327.36679 182.977263 
L 327.909678 189.40552 
L 328.452566 176.321744 
L 328.995454 167.052716 
L 329.538342 166.549494 
L 331.167006 120.220588 
L 331.709893 135.495816 
L 332.252781 136.567192 
L 332.795669 140.300776 
L 333.881445 114.815008 
L 334.424333 116.746732 
L 334.967221 121.438061 
L 336.052996 87.543613 
L 336.595884 104.166178 
L 337.68166 88.322796 
L 338.224548 99.718343 
L 338.767436 83.92366 
L 339.310324 77.31684 
L 339.853211 77.803829 
L 340.396099 82.852284 
L 340.938987 81.440015 
L 342.567651 132.330386 
L 343.110539 137.10288 
L 343.653427 125.804731 
L 344.196857 136.128902 
L 344.740288 163.026938 
L 345.283719 161.663369 
L 345.826607 164.682702 
L 346.369495 183.821377 
L 347.45527 168.172791 
L 347.998158 172.86412 
L 348.541046 190.76909 
L 349.083934 156.014294 
L 349.626822 183.204524 
L 350.16971 168.708479 
L 350.712597 132.671279 
L 351.255485 131.599902 
L 351.798916 130.203867 
L 352.341804 122.623068 
L 352.884692 119.068047 
L 353.42758 122.509437 
L 353.970468 118.64599 
L 354.513355 119.912162 
L 355.056243 89.118211 
L 355.599131 93.468648 
L 356.142019 78.096023 
L 356.684907 87.819574 
L 357.227795 83.420438 
L 357.770683 72.78784 
L 358.31357 64.97978 
L 358.856458 59.73653 
L 359.399346 57.902204 
L 359.942234 80.823162 
L 360.485122 70.693787 
L 361.02801 88.874717 
L 361.570898 114.392951 
L 362.113786 116.649334 
L 362.656673 128.888996 
L 363.199561 126.421584 
L 363.742449 127.103369 
L 364.285337 123.239921 
L 364.828225 116.064947 
L 365.371113 116.925295 
L 365.914001 106.828385 
L 366.456889 110.042514 
L 366.999776 123.954172 
L 367.542664 133.012171 
L 368.085552 148.060137 
L 368.62844 149.586037 
L 369.171328 139.099536 
L 369.714216 141.502016 
L 370.257104 164.325576 
L 371.342879 170.753834 
L 371.885767 184.032406 
L 372.428655 180.509851 
L 372.971543 185.03885 
L 373.514431 171.289522 
L 374.057319 147.930273 
L 374.600207 135.365952 
L 375.143094 128.142279 
L 375.685982 117.655778 
L 376.22887 115.691589 
L 376.771758 94.069268 
L 377.314646 87.705943 
L 377.857534 72.008658 
L 378.400422 79.979047 
L 378.943309 116.714266 
L 379.486197 64.168132 
L 380.029085 96.37435 
L 380.571973 84.540513 
L 381.114861 97.672988 
L 381.657749 123.808075 
L 382.200637 116.795431 
L 382.743525 72.593045 
L 383.286412 109.523059 
L 383.8293 72.219686 
L 384.372188 64.768752 
L 384.915076 53.568 
L 385.457964 78.631711 
L 386.000852 82.365295 
L 387.086627 118.873251 
L 387.629515 126.145623 
L 388.172403 112.883284 
L 388.715291 119.197911 
L 389.258179 111.357385 
L 389.801067 123.743143 
L 390.343955 104.003848 
L 390.886843 129.035093 
L 391.42973 129.976605 
L 391.972618 143.174012 
L 392.515506 142.751955 
L 393.058394 146.891363 
L 393.601282 144.943406 
L 394.14417 149.521105 
L 394.687058 156.663613 
L 395.229946 172.782955 
L 395.772833 161.988028 
L 396.315721 172.734256 
L 396.858609 170.770067 
L 397.401497 180.217657 
L 397.944385 153.48195 
L 398.487273 152.426807 
L 398.487273 152.426807 
" style="fill:none;stroke:#1f77b4;stroke-linecap:square;stroke-width:1.5;"/>
   </g>
   <g id="patch_3">
    <path d="M 57.6 307.584 
L 57.6 41.472 
" style="fill:none;stroke:#000000;stroke-linecap:square;stroke-linejoin:miter;stroke-width:0.8;"/>
   </g>
   <g id="patch_4">
    <path d="M 414.72 307.584 
L 414.72 41.472 
" style="fill:none;stroke:#000000;stroke-linecap:square;stroke-linejoin:miter;stroke-width:0.8;"/>
   </g>
   <g id="patch_5">
    <path d="M 57.6 307.584 
L 414.72 307.584 
" style="fill:none;stroke:#000000;stroke-linecap:square;stroke-linejoin:miter;stroke-width:0.8;"/>
   </g>
   <g id="patch_6">
    <path d="M 57.6 41.472 
L 414.72 41.472 
" style="fill:none;stroke:#000000;stroke-linecap:square;stroke-linejoin:miter;stroke-width:0.8;"/>
   </g>
   <g id="text_18">
    <!-- Current with source voltage 100.0 mV -->
    <defs>
     <path d="M 4.203125 54.6875 
L 13.1875 54.6875 
L 24.421875 12.015625 
L 35.59375 54.6875 
L 46.1875 54.6875 
L 57.421875 12.015625 
L 68.609375 54.6875 
L 77.59375 54.6875 
L 63.28125 0 
L 52.6875 0 
L 40.921875 44.828125 
L 29.109375 0 
L 18.5 0 
z
" id="DejaVuSans-77"/>
     <path d="M 9.421875 54.6875 
L 18.40625 54.6875 
L 18.40625 0 
L 9.421875 0 
z
M 9.421875 75.984375 
L 18.40625 75.984375 
L 18.40625 64.59375 
L 9.421875 64.59375 
z
" id="DejaVuSans-69"/>
     <path d="M 54.890625 33.015625 
L 54.890625 0 
L 45.90625 0 
L 45.90625 32.71875 
Q 45.90625 40.484375 42.875 44.328125 
Q 39.84375 48.1875 33.796875 48.1875 
Q 26.515625 48.1875 22.3125 43.546875 
Q 18.109375 38.921875 18.109375 30.90625 
L 18.109375 0 
L 9.078125 0 
L 9.078125 75.984375 
L 18.109375 75.984375 
L 18.109375 46.1875 
Q 21.34375 51.125 25.703125 53.5625 
Q 30.078125 56 35.796875 56 
Q 45.21875 56 50.046875 50.171875 
Q 54.890625 44.34375 54.890625 33.015625 
z
" id="DejaVuSans-68"/>
     <path d="M 30.609375 48.390625 
Q 23.390625 48.390625 19.1875 42.75 
Q 14.984375 37.109375 14.984375 27.296875 
Q 14.984375 17.484375 19.15625 11.84375 
Q 23.34375 6.203125 30.609375 6.203125 
Q 37.796875 6.203125 41.984375 11.859375 
Q 46.1875 17.53125 46.1875 27.296875 
Q 46.1875 37.015625 41.984375 42.703125 
Q 37.796875 48.390625 30.609375 48.390625 
z
M 30.609375 56 
Q 42.328125 56 49.015625 48.375 
Q 55.71875 40.765625 55.71875 27.296875 
Q 55.71875 13.875 49.015625 6.21875 
Q 42.328125 -1.421875 30.609375 -1.421875 
Q 18.84375 -1.421875 12.171875 6.21875 
Q 5.515625 13.875 5.515625 27.296875 
Q 5.515625 40.765625 12.171875 48.375 
Q 18.84375 56 30.609375 56 
z
" id="DejaVuSans-6f"/>
     <path d="M 48.78125 52.59375 
L 48.78125 44.1875 
Q 44.96875 46.296875 41.140625 47.34375 
Q 37.3125 48.390625 33.40625 48.390625 
Q 24.65625 48.390625 19.8125 42.84375 
Q 14.984375 37.3125 14.984375 27.296875 
Q 14.984375 17.28125 19.8125 11.734375 
Q 24.65625 6.203125 33.40625 6.203125 
Q 37.3125 6.203125 41.140625 7.25 
Q 44.96875 8.296875 48.78125 10.40625 
L 48.78125 2.09375 
Q 45.015625 0.34375 40.984375 -0.53125 
Q 36.96875 -1.421875 32.421875 -1.421875 
Q 20.0625 -1.421875 12.78125 6.34375 
Q 5.515625 14.109375 5.515625 27.296875 
Q 5.515625 40.671875 12.859375 48.328125 
Q 20.21875 56 33.015625 56 
Q 37.15625 56 41.109375 55.140625 
Q 45.0625 54.296875 48.78125 52.59375 
z
" id="DejaVuSans-63"/>
     <path d="M 2.984375 54.6875 
L 12.5 54.6875 
L 29.59375 8.796875 
L 46.6875 54.6875 
L 56.203125 54.6875 
L 35.6875 0 
L 23.484375 0 
z
" id="DejaVuSans-76"/>
     <path d="M 9.421875 75.984375 
L 18.40625 75.984375 
L 18.40625 0 
L 9.421875 0 
z
" id="DejaVuSans-6c"/>
     <path d="M 34.28125 27.484375 
Q 23.390625 27.484375 19.1875 25 
Q 14.984375 22.515625 14.984375 16.5 
Q 14.984375 11.71875 18.140625 8.90625 
Q 21.296875 6.109375 26.703125 6.109375 
Q 34.1875 6.109375 38.703125 11.40625 
Q 43.21875 16.703125 43.21875 25.484375 
L 43.21875 27.484375 
z
M 52.203125 31.203125 
L 52.203125 0 
L 43.21875 0 
L 43.21875 8.296875 
Q 40.140625 3.328125 35.546875 0.953125 
Q 30.953125 -1.421875 24.3125 -1.421875 
Q 15.921875 -1.421875 10.953125 3.296875 
Q 6 8.015625 6 15.921875 
Q 6 25.140625 12.171875 29.828125 
Q 18.359375 34.515625 30.609375 34.515625 
L 43.21875 34.515625 
L 43.21875 35.40625 
Q 43.21875 41.609375 39.140625 45 
Q 35.0625 48.390625 27.6875 48.390625 
Q 23 48.390625 18.546875 47.265625 
Q 14.109375 46.140625 10.015625 43.890625 
L 10.015625 52.203125 
Q 14.9375 54.109375 19.578125 55.046875 
Q 24.21875 56 28.609375 56 
Q 40.484375 56 46.34375 49.84375 
Q 52.203125 43.703125 52.203125 31.203125 
z
" id="DejaVuSans-61"/>
     <path d="M 45.40625 27.984375 
Q 45.40625 37.75 41.375 43.109375 
Q 37.359375 48.484375 30.078125 48.484375 
Q 22.859375 48.484375 18.828125 43.109375 
Q 14.796875 37.75 14.796875 27.984375 
Q 14.796875 18.265625 18.828125 12.890625 
Q 22.859375 7.515625 30.078125 7.515625 
Q 37.359375 7.515625 41.375 12.890625 
Q 45.40625 18.265625 45.40625 27.984375 
z
M 54.390625 6.78125 
Q 54.390625 -7.171875 48.1875 -13.984375 
Q 42 -20.796875 29.203125 -20.796875 
Q 24.46875 -20.796875 20.265625 -20.09375 
Q 16.0625 -19.390625 12.109375 -17.921875 
L 12.109375 -9.1875 
Q 16.0625 -11.328125 19.921875 -12.34375 
Q 23.78125 -13.375 27.78125 -13.375 
Q 36.625 -13.375 41.015625 -8.765625 
Q 45.40625 -4.15625 45.40625 5.171875 
L 45.40625 9.625 
Q 42.625 4.78125 38.28125 2.390625 
Q 33.9375 0 27.875 0 
Q 17.828125 0 11.671875 7.65625 
Q 5.515625 15.328125 5.515625 27.984375 
Q 5.515625 40.671875 11.671875 48.328125 
Q 17.828125 56 27.875 56 
Q 33.9375 56 38.28125 53.609375 
Q 42.625 51.21875 45.40625 46.390625 
L 45.40625 54.6875 
L 54.390625 54.6875 
z
" id="DejaVuSans-67"/>
     <path d="M 10.6875 12.40625 
L 21 12.40625 
L 21 0 
L 10.6875 0 
z
" id="DejaVuSans-2e"/>
     <path d="M 52 44.1875 
Q 55.375 50.25 60.0625 53.125 
Q 64.75 56 71.09375 56 
Q 79.640625 56 84.28125 50.015625 
Q 88.921875 44.046875 88.921875 33.015625 
L 88.921875 0 
L 79.890625 0 
L 79.890625 32.71875 
Q 79.890625 40.578125 77.09375 44.375 
Q 74.3125 48.1875 68.609375 48.1875 
Q 61.625 48.1875 57.5625 43.546875 
Q 53.515625 38.921875 53.515625 30.90625 
L 53.515625 0 
L 44.484375 0 
L 44.484375 32.71875 
Q 44.484375 40.625 41.703125 44.40625 
Q 38.921875 48.1875 33.109375 48.1875 
Q 26.21875 48.1875 22.15625 43.53125 
Q 18.109375 38.875 18.109375 30.90625 
L 18.109375 0 
L 9.078125 0 
L 9.078125 54.6875 
L 18.109375 54.6875 
L 18.109375 46.1875 
Q 21.1875 51.21875 25.484375 53.609375 
Q 29.78125 56 35.6875 56 
Q 41.65625 56 45.828125 52.96875 
Q 50 49.953125 52 44.1875 
z
" id="DejaVuSans-6d"/>
     <path d="M 28.609375 0 
L 0.78125 72.90625 
L 11.078125 72.90625 
L 34.1875 11.53125 
L 57.328125 72.90625 
L 67.578125 72.90625 
L 39.796875 0 
z
" id="DejaVuSans-56"/>
    </defs>
    <g transform="translate(121.528125 35.472)scale(0.12 -0.12)">
     <use xlink:href="#DejaVuSans-43"/>
     <use x="69.824219" xlink:href="#DejaVuSans-75"/>
     <use x="133.203125" xlink:href="#DejaVuSans-72"/>
     <use x="174.300781" xlink:href="#DejaVuSans-72"/>
     <use x="215.382812" xlink:href="#DejaVuSans-65"/>
     <use x="276.90625" xlink:href="#DejaVuSans-6e"/>
     <use x="340.285156" xlink:href="#DejaVuSans-74"/>
     <use x="379.494141" xlink:href="#DejaVuSans-20"/>
     <use x="411.28125" xlink:href="#DejaVuSans-77"/>
     <use x="493.068359" xlink:href="#DejaVuSans-69"/>
     <use x="520.851562" xlink:href="#DejaVuSans-74"/>
     <use x="560.060547" xlink:href="#DejaVuSans-68"/>
     <use x="623.439453" xlink:href="#DejaVuSans-20"/>
     <use x="655.226562" xlink:href="#DejaVuSans-73"/>
     <use x="707.326172" xlink:href="#DejaVuSans-6f"/>
     <use x="768.507812" xlink:href="#DejaVuSans-75"/>
     <use x="831.886719" xlink:href="#DejaVuSans-72"/>
     <use x="872.96875" xlink:href="#DejaVuSans-63"/>
     <use x="927.949219" xlink:href="#DejaVuSans-65"/>
     <use x="989.472656" xlink:href="#DejaVuSans-20"/>
     <use x="1021.259766" xlink:href="#DejaVuSans-76"/>
     <use x="1080.439453" xlink:href="#DejaVuSans-6f"/>
     <use x="1141.621094" xlink:href="#DejaVuSans-6c"/>
     <use x="1169.404297" xlink:href="#DejaVuSans-74"/>
     <use x="1208.613281" xlink:href="#DejaVuSans-61"/>
     <use x="1269.892578" xlink:href="#DejaVuSans-67"/>
     <use x="1333.369141" xlink:href="#DejaVuSans-65"/>
     <use x="1394.892578" xlink:href="#DejaVuSans-20"/>
     <use x="1426.679688" xlink:href="#DejaVuSans-31"/>
     <use x="1490.302734" xlink:href="#DejaVuSans-30"/>
     <use x="1553.925781" xlink:href="#DejaVuSans-30"/>
     <use x="1617.548828" xlink:href="#DejaVuSans-2e"/>
     <use x="1649.335938" xlink:href="#DejaVuSans-30"/>
     <use x="1712.958984" xlink:href="#DejaVuSans-20"/>
     <use x="1744.746094" xlink:href="#DejaVuSans-6d"/>
     <use x="1842.158203" xlink:href="#DejaVuSans-56"/>
    </g>
   </g>
  </g>
 </g>
 <defs>
  <clipPath id="p75b789590b">
   <rect height="266.112" width="357.12" x="57.6" y="41.472"/>
  </clipPath>
 </defs>
</svg>
