<?xml version="1.0" encoding="utf-8" standalone="no"?>
<!DOCTYPE svg PUBLIC "-//W3C//DTD SVG 1.1//EN"
  "http://www.w3.org/Graphics/SVG/1.1/DTD/svg11.dtd">
<!-- Created with matplotlib (http://matplotlib.org/) -->
<svg height="345pt" version="1.1" viewBox="0 0 460 345" width="460pt" xmlns="http://www.w3.org/2000/svg" xmlns:xlink="http://www.w3.org/1999/xlink">
 <defs>
  <style type="text/css">
*{stroke-linecap:butt;stroke-linejoin:round;}
  </style>
 </defs>
 <g id="figure_1">
  <g id="patch_1">
   <path d="M 0 345.6 
L 460.8 345.6 
L 460.8 0 
L 0 0 
z
" style="fill:#ffffff;"/>
  </g>
  <g id="axes_1">
   <g id="patch_2">
    <path d="M 57.6 307.584 
L 414.72 307.584 
L 414.72 41.472 
L 57.6 41.472 
z
" style="fill:#ffffff;"/>
   </g>
   <g id="matplotlib.axis_1">
    <g id="xtick_1">
     <g id="line2d_1">
      <defs>
       <path d="M 0 0 
L 0 3.5 
" id="m6eb730c698" style="stroke:#000000;stroke-width:0.8;"/>
      </defs>
      <g>
       <use style="stroke:#000000;stroke-width:0.8;" x="73.832727" xlink:href="#m6eb730c698" y="307.584"/>
      </g>
     </g>
     <g id="text_1">
      <!-- 0 -->
      <defs>
       <path d="M 31.78125 66.40625 
Q 24.171875 66.40625 20.328125 58.90625 
Q 16.5 51.421875 16.5 36.375 
Q 16.5 21.390625 20.328125 13.890625 
Q 24.171875 6.390625 31.78125 6.390625 
Q 39.453125 6.390625 43.28125 13.890625 
Q 47.125 21.390625 47.125 36.375 
Q 47.125 51.421875 43.28125 58.90625 
Q 39.453125 66.40625 31.78125 66.40625 
z
M 31.78125 74.21875 
Q 44.046875 74.21875 50.515625 64.515625 
Q 56.984375 54.828125 56.984375 36.375 
Q 56.984375 17.96875 50.515625 8.265625 
Q 44.046875 -1.421875 31.78125 -1.421875 
Q 19.53125 -1.421875 13.0625 8.265625 
Q 6.59375 17.96875 6.59375 36.375 
Q 6.59375 54.828125 13.0625 64.515625 
Q 19.53125 74.21875 31.78125 74.21875 
z
" id="DejaVuSans-30"/>
      </defs>
      <g transform="translate(70.651477 322.182437)scale(0.1 -0.1)">
       <use xlink:href="#DejaVuSans-30"/>
      </g>
     </g>
    </g>
    <g id="xtick_2">
     <g id="line2d_2">
      <g>
       <use style="stroke:#000000;stroke-width:0.8;" x="128.026791" xlink:href="#m6eb730c698" y="307.584"/>
      </g>
     </g>
     <g id="text_2">
      <!-- 100 -->
      <defs>
       <path d="M 12.40625 8.296875 
L 28.515625 8.296875 
L 28.515625 63.921875 
L 10.984375 60.40625 
L 10.984375 69.390625 
L 28.421875 72.90625 
L 38.28125 72.90625 
L 38.28125 8.296875 
L 54.390625 8.296875 
L 54.390625 0 
L 12.40625 0 
z
" id="DejaVuSans-31"/>
      </defs>
      <g transform="translate(118.483041 322.182437)scale(0.1 -0.1)">
       <use xlink:href="#DejaVuSans-31"/>
       <use x="63.623047" xlink:href="#DejaVuSans-30"/>
       <use x="127.246094" xlink:href="#DejaVuSans-30"/>
      </g>
     </g>
    </g>
    <g id="xtick_3">
     <g id="line2d_3">
      <g>
       <use style="stroke:#000000;stroke-width:0.8;" x="182.220855" xlink:href="#m6eb730c698" y="307.584"/>
      </g>
     </g>
     <g id="text_3">
      <!-- 200 -->
      <defs>
       <path d="M 19.1875 8.296875 
L 53.609375 8.296875 
L 53.609375 0 
L 7.328125 0 
L 7.328125 8.296875 
Q 12.9375 14.109375 22.625 23.890625 
Q 32.328125 33.6875 34.8125 36.53125 
Q 39.546875 41.84375 41.421875 45.53125 
Q 43.3125 49.21875 43.3125 52.78125 
Q 43.3125 58.59375 39.234375 62.25 
Q 35.15625 65.921875 28.609375 65.921875 
Q 23.96875 65.921875 18.8125 64.3125 
Q 13.671875 62.703125 7.8125 59.421875 
L 7.8125 69.390625 
Q 13.765625 71.78125 18.9375 73 
Q 24.125 74.21875 28.421875 74.21875 
Q 39.75 74.21875 46.484375 68.546875 
Q 53.21875 62.890625 53.21875 53.421875 
Q 53.21875 48.921875 51.53125 44.890625 
Q 49.859375 40.875 45.40625 35.40625 
Q 44.1875 33.984375 37.640625 27.21875 
Q 31.109375 20.453125 19.1875 8.296875 
z
" id="DejaVuSans-32"/>
      </defs>
      <g transform="translate(172.677105 322.182437)scale(0.1 -0.1)">
       <use xlink:href="#DejaVuSans-32"/>
       <use x="63.623047" xlink:href="#DejaVuSans-30"/>
       <use x="127.246094" xlink:href="#DejaVuSans-30"/>
      </g>
     </g>
    </g>
    <g id="xtick_4">
     <g id="line2d_4">
      <g>
       <use style="stroke:#000000;stroke-width:0.8;" x="236.414919" xlink:href="#m6eb730c698" y="307.584"/>
      </g>
     </g>
     <g id="text_4">
      <!-- 300 -->
      <defs>
       <path d="M 40.578125 39.3125 
Q 47.65625 37.796875 51.625 33 
Q 55.609375 28.21875 55.609375 21.1875 
Q 55.609375 10.40625 48.1875 4.484375 
Q 40.765625 -1.421875 27.09375 -1.421875 
Q 22.515625 -1.421875 17.65625 -0.515625 
Q 12.796875 0.390625 7.625 2.203125 
L 7.625 11.71875 
Q 11.71875 9.328125 16.59375 8.109375 
Q 21.484375 6.890625 26.8125 6.890625 
Q 36.078125 6.890625 40.9375 10.546875 
Q 45.796875 14.203125 45.796875 21.1875 
Q 45.796875 27.640625 41.28125 31.265625 
Q 36.765625 34.90625 28.71875 34.90625 
L 20.21875 34.90625 
L 20.21875 43.015625 
L 29.109375 43.015625 
Q 36.375 43.015625 40.234375 45.921875 
Q 44.09375 48.828125 44.09375 54.296875 
Q 44.09375 59.90625 40.109375 62.90625 
Q 36.140625 65.921875 28.71875 65.921875 
Q 24.65625 65.921875 20.015625 65.03125 
Q 15.375 64.15625 9.8125 62.3125 
L 9.8125 71.09375 
Q 15.4375 72.65625 20.34375 73.4375 
Q 25.25 74.21875 29.59375 74.21875 
Q 40.828125 74.21875 47.359375 69.109375 
Q 53.90625 64.015625 53.90625 55.328125 
Q 53.90625 49.265625 50.4375 45.09375 
Q 46.96875 40.921875 40.578125 39.3125 
z
" id="DejaVuSans-33"/>
      </defs>
      <g transform="translate(226.871169 322.182437)scale(0.1 -0.1)">
       <use xlink:href="#DejaVuSans-33"/>
       <use x="63.623047" xlink:href="#DejaVuSans-30"/>
       <use x="127.246094" xlink:href="#DejaVuSans-30"/>
      </g>
     </g>
    </g>
    <g id="xtick_5">
     <g id="line2d_5">
      <g>
       <use style="stroke:#000000;stroke-width:0.8;" x="290.608983" xlink:href="#m6eb730c698" y="307.584"/>
      </g>
     </g>
     <g id="text_5">
      <!-- 400 -->
      <defs>
       <path d="M 37.796875 64.3125 
L 12.890625 25.390625 
L 37.796875 25.390625 
z
M 35.203125 72.90625 
L 47.609375 72.90625 
L 47.609375 25.390625 
L 58.015625 25.390625 
L 58.015625 17.1875 
L 47.609375 17.1875 
L 47.609375 0 
L 37.796875 0 
L 37.796875 17.1875 
L 4.890625 17.1875 
L 4.890625 26.703125 
z
" id="DejaVuSans-34"/>
      </defs>
      <g transform="translate(281.065233 322.182437)scale(0.1 -0.1)">
       <use xlink:href="#DejaVuSans-34"/>
       <use x="63.623047" xlink:href="#DejaVuSans-30"/>
       <use x="127.246094" xlink:href="#DejaVuSans-30"/>
      </g>
     </g>
    </g>
    <g id="xtick_6">
     <g id="line2d_6">
      <g>
       <use style="stroke:#000000;stroke-width:0.8;" x="344.803048" xlink:href="#m6eb730c698" y="307.584"/>
      </g>
     </g>
     <g id="text_6">
      <!-- 500 -->
      <defs>
       <path d="M 10.796875 72.90625 
L 49.515625 72.90625 
L 49.515625 64.59375 
L 19.828125 64.59375 
L 19.828125 46.734375 
Q 21.96875 47.46875 24.109375 47.828125 
Q 26.265625 48.1875 28.421875 48.1875 
Q 40.625 48.1875 47.75 41.5 
Q 54.890625 34.8125 54.890625 23.390625 
Q 54.890625 11.625 47.5625 5.09375 
Q 40.234375 -1.421875 26.90625 -1.421875 
Q 22.3125 -1.421875 17.546875 -0.640625 
Q 12.796875 0.140625 7.71875 1.703125 
L 7.71875 11.625 
Q 12.109375 9.234375 16.796875 8.0625 
Q 21.484375 6.890625 26.703125 6.890625 
Q 35.15625 6.890625 40.078125 11.328125 
Q 45.015625 15.765625 45.015625 23.390625 
Q 45.015625 31 40.078125 35.4375 
Q 35.15625 39.890625 26.703125 39.890625 
Q 22.75 39.890625 18.8125 39.015625 
Q 14.890625 38.140625 10.796875 36.28125 
z
" id="DejaVuSans-35"/>
      </defs>
      <g transform="translate(335.259298 322.182437)scale(0.1 -0.1)">
       <use xlink:href="#DejaVuSans-35"/>
       <use x="63.623047" xlink:href="#DejaVuSans-30"/>
       <use x="127.246094" xlink:href="#DejaVuSans-30"/>
      </g>
     </g>
    </g>
    <g id="xtick_7">
     <g id="line2d_7">
      <g>
       <use style="stroke:#000000;stroke-width:0.8;" x="398.997112" xlink:href="#m6eb730c698" y="307.584"/>
      </g>
     </g>
     <g id="text_7">
      <!-- 600 -->
      <defs>
       <path d="M 33.015625 40.375 
Q 26.375 40.375 22.484375 35.828125 
Q 18.609375 31.296875 18.609375 23.390625 
Q 18.609375 15.53125 22.484375 10.953125 
Q 26.375 6.390625 33.015625 6.390625 
Q 39.65625 6.390625 43.53125 10.953125 
Q 47.40625 15.53125 47.40625 23.390625 
Q 47.40625 31.296875 43.53125 35.828125 
Q 39.65625 40.375 33.015625 40.375 
z
M 52.59375 71.296875 
L 52.59375 62.3125 
Q 48.875 64.0625 45.09375 64.984375 
Q 41.3125 65.921875 37.59375 65.921875 
Q 27.828125 65.921875 22.671875 59.328125 
Q 17.53125 52.734375 16.796875 39.40625 
Q 19.671875 43.65625 24.015625 45.921875 
Q 28.375 48.1875 33.59375 48.1875 
Q 44.578125 48.1875 50.953125 41.515625 
Q 57.328125 34.859375 57.328125 23.390625 
Q 57.328125 12.15625 50.6875 5.359375 
Q 44.046875 -1.421875 33.015625 -1.421875 
Q 20.359375 -1.421875 13.671875 8.265625 
Q 6.984375 17.96875 6.984375 36.375 
Q 6.984375 53.65625 15.1875 63.9375 
Q 23.390625 74.21875 37.203125 74.21875 
Q 40.921875 74.21875 44.703125 73.484375 
Q 48.484375 72.75 52.59375 71.296875 
z
" id="DejaVuSans-36"/>
      </defs>
      <g transform="translate(389.453362 322.182437)scale(0.1 -0.1)">
       <use xlink:href="#DejaVuSans-36"/>
       <use x="63.623047" xlink:href="#DejaVuSans-30"/>
       <use x="127.246094" xlink:href="#DejaVuSans-30"/>
      </g>
     </g>
    </g>
    <g id="text_8">
     <!-- t(s) -->
     <defs>
      <path d="M 18.3125 70.21875 
L 18.3125 54.6875 
L 36.8125 54.6875 
L 36.8125 47.703125 
L 18.3125 47.703125 
L 18.3125 18.015625 
Q 18.3125 11.328125 20.140625 9.421875 
Q 21.96875 7.515625 27.59375 7.515625 
L 36.8125 7.515625 
L 36.8125 0 
L 27.59375 0 
Q 17.1875 0 13.234375 3.875 
Q 9.28125 7.765625 9.28125 18.015625 
L 9.28125 47.703125 
L 2.6875 47.703125 
L 2.6875 54.6875 
L 9.28125 54.6875 
L 9.28125 70.21875 
z
" id="DejaVuSans-74"/>
      <path d="M 31 75.875 
Q 24.46875 64.65625 21.28125 53.65625 
Q 18.109375 42.671875 18.109375 31.390625 
Q 18.109375 20.125 21.3125 9.0625 
Q 24.515625 -2 31 -13.1875 
L 23.1875 -13.1875 
Q 15.875 -1.703125 12.234375 9.375 
Q 8.59375 20.453125 8.59375 31.390625 
Q 8.59375 42.28125 12.203125 53.3125 
Q 15.828125 64.359375 23.1875 75.875 
z
" id="DejaVuSans-28"/>
      <path d="M 44.28125 53.078125 
L 44.28125 44.578125 
Q 40.484375 46.53125 36.375 47.5 
Q 32.28125 48.484375 27.875 48.484375 
Q 21.1875 48.484375 17.84375 46.4375 
Q 14.5 44.390625 14.5 40.28125 
Q 14.5 37.15625 16.890625 35.375 
Q 19.28125 33.59375 26.515625 31.984375 
L 29.59375 31.296875 
Q 39.15625 29.25 43.1875 25.515625 
Q 47.21875 21.78125 47.21875 15.09375 
Q 47.21875 7.46875 41.1875 3.015625 
Q 35.15625 -1.421875 24.609375 -1.421875 
Q 20.21875 -1.421875 15.453125 -0.5625 
Q 10.6875 0.296875 5.421875 2 
L 5.421875 11.28125 
Q 10.40625 8.6875 15.234375 7.390625 
Q 20.0625 6.109375 24.8125 6.109375 
Q 31.15625 6.109375 34.5625 8.28125 
Q 37.984375 10.453125 37.984375 14.40625 
Q 37.984375 18.0625 35.515625 20.015625 
Q 33.0625 21.96875 24.703125 23.78125 
L 21.578125 24.515625 
Q 13.234375 26.265625 9.515625 29.90625 
Q 5.8125 33.546875 5.8125 39.890625 
Q 5.8125 47.609375 11.28125 51.796875 
Q 16.75 56 26.8125 56 
Q 31.78125 56 36.171875 55.265625 
Q 40.578125 54.546875 44.28125 53.078125 
z
" id="DejaVuSans-73"/>
      <path d="M 8.015625 75.875 
L 15.828125 75.875 
Q 23.140625 64.359375 26.78125 53.3125 
Q 30.421875 42.28125 30.421875 31.390625 
Q 30.421875 20.453125 26.78125 9.375 
Q 23.140625 -1.703125 15.828125 -13.1875 
L 8.015625 -13.1875 
Q 14.5 -2 17.703125 9.0625 
Q 20.90625 20.125 20.90625 31.390625 
Q 20.90625 42.671875 17.703125 53.65625 
Q 14.5 64.65625 8.015625 75.875 
z
" id="DejaVuSans-29"/>
     </defs>
     <g transform="translate(227.693594 335.860562)scale(0.1 -0.1)">
      <use xlink:href="#DejaVuSans-74"/>
      <use x="39.208984" xlink:href="#DejaVuSans-28"/>
      <use x="78.222656" xlink:href="#DejaVuSans-73"/>
      <use x="130.322266" xlink:href="#DejaVuSans-29"/>
     </g>
    </g>
   </g>
   <g id="matplotlib.axis_2">
    <g id="ytick_1">
     <g id="line2d_8">
      <defs>
       <path d="M 0 0 
L -3.5 0 
" id="m92f8c87b60" style="stroke:#000000;stroke-width:0.8;"/>
      </defs>
      <g>
       <use style="stroke:#000000;stroke-width:0.8;" x="57.6" xlink:href="#m92f8c87b60" y="302.117596"/>
      </g>
     </g>
     <g id="text_9">
      <!-- 2.450 -->
      <defs>
       <path d="M 10.6875 12.40625 
L 21 12.40625 
L 21 0 
L 10.6875 0 
z
" id="DejaVuSans-2e"/>
      </defs>
      <g transform="translate(21.971875 305.916815)scale(0.1 -0.1)">
       <use xlink:href="#DejaVuSans-32"/>
       <use x="63.623047" xlink:href="#DejaVuSans-2e"/>
       <use x="95.410156" xlink:href="#DejaVuSans-34"/>
       <use x="159.033203" xlink:href="#DejaVuSans-35"/>
       <use x="222.65625" xlink:href="#DejaVuSans-30"/>
      </g>
     </g>
    </g>
    <g id="ytick_2">
     <g id="line2d_9">
      <g>
       <use style="stroke:#000000;stroke-width:0.8;" x="57.6" xlink:href="#m92f8c87b60" y="271.983067"/>
      </g>
     </g>
     <g id="text_10">
      <!-- 2.475 -->
      <defs>
       <path d="M 8.203125 72.90625 
L 55.078125 72.90625 
L 55.078125 68.703125 
L 28.609375 0 
L 18.3125 0 
L 43.21875 64.59375 
L 8.203125 64.59375 
z
" id="DejaVuSans-37"/>
      </defs>
      <g transform="translate(21.971875 275.782286)scale(0.1 -0.1)">
       <use xlink:href="#DejaVuSans-32"/>
       <use x="63.623047" xlink:href="#DejaVuSans-2e"/>
       <use x="95.410156" xlink:href="#DejaVuSans-34"/>
       <use x="159.033203" xlink:href="#DejaVuSans-37"/>
       <use x="222.65625" xlink:href="#DejaVuSans-35"/>
      </g>
     </g>
    </g>
    <g id="ytick_3">
     <g id="line2d_10">
      <g>
       <use style="stroke:#000000;stroke-width:0.8;" x="57.6" xlink:href="#m92f8c87b60" y="241.848538"/>
      </g>
     </g>
     <g id="text_11">
      <!-- 2.500 -->
      <g transform="translate(21.971875 245.647757)scale(0.1 -0.1)">
       <use xlink:href="#DejaVuSans-32"/>
       <use x="63.623047" xlink:href="#DejaVuSans-2e"/>
       <use x="95.410156" xlink:href="#DejaVuSans-35"/>
       <use x="159.033203" xlink:href="#DejaVuSans-30"/>
       <use x="222.65625" xlink:href="#DejaVuSans-30"/>
      </g>
     </g>
    </g>
    <g id="ytick_4">
     <g id="line2d_11">
      <g>
       <use style="stroke:#000000;stroke-width:0.8;" x="57.6" xlink:href="#m92f8c87b60" y="211.714009"/>
      </g>
     </g>
     <g id="text_12">
      <!-- 2.525 -->
      <g transform="translate(21.971875 215.513228)scale(0.1 -0.1)">
       <use xlink:href="#DejaVuSans-32"/>
       <use x="63.623047" xlink:href="#DejaVuSans-2e"/>
       <use x="95.410156" xlink:href="#DejaVuSans-35"/>
       <use x="159.033203" xlink:href="#DejaVuSans-32"/>
       <use x="222.65625" xlink:href="#DejaVuSans-35"/>
      </g>
     </g>
    </g>
    <g id="ytick_5">
     <g id="line2d_12">
      <g>
       <use style="stroke:#000000;stroke-width:0.8;" x="57.6" xlink:href="#m92f8c87b60" y="181.57948"/>
      </g>
     </g>
     <g id="text_13">
      <!-- 2.550 -->
      <g transform="translate(21.971875 185.378699)scale(0.1 -0.1)">
       <use xlink:href="#DejaVuSans-32"/>
       <use x="63.623047" xlink:href="#DejaVuSans-2e"/>
       <use x="95.410156" xlink:href="#DejaVuSans-35"/>
       <use x="159.033203" xlink:href="#DejaVuSans-35"/>
       <use x="222.65625" xlink:href="#DejaVuSans-30"/>
      </g>
     </g>
    </g>
    <g id="ytick_6">
     <g id="line2d_13">
      <g>
       <use style="stroke:#000000;stroke-width:0.8;" x="57.6" xlink:href="#m92f8c87b60" y="151.444951"/>
      </g>
     </g>
     <g id="text_14">
      <!-- 2.575 -->
      <g transform="translate(21.971875 155.244169)scale(0.1 -0.1)">
       <use xlink:href="#DejaVuSans-32"/>
       <use x="63.623047" xlink:href="#DejaVuSans-2e"/>
       <use x="95.410156" xlink:href="#DejaVuSans-35"/>
       <use x="159.033203" xlink:href="#DejaVuSans-37"/>
       <use x="222.65625" xlink:href="#DejaVuSans-35"/>
      </g>
     </g>
    </g>
    <g id="ytick_7">
     <g id="line2d_14">
      <g>
       <use style="stroke:#000000;stroke-width:0.8;" x="57.6" xlink:href="#m92f8c87b60" y="121.310422"/>
      </g>
     </g>
     <g id="text_15">
      <!-- 2.600 -->
      <g transform="translate(21.971875 125.10964)scale(0.1 -0.1)">
       <use xlink:href="#DejaVuSans-32"/>
       <use x="63.623047" xlink:href="#DejaVuSans-2e"/>
       <use x="95.410156" xlink:href="#DejaVuSans-36"/>
       <use x="159.033203" xlink:href="#DejaVuSans-30"/>
       <use x="222.65625" xlink:href="#DejaVuSans-30"/>
      </g>
     </g>
    </g>
    <g id="ytick_8">
     <g id="line2d_15">
      <g>
       <use style="stroke:#000000;stroke-width:0.8;" x="57.6" xlink:href="#m92f8c87b60" y="91.175892"/>
      </g>
     </g>
     <g id="text_16">
      <!-- 2.625 -->
      <g transform="translate(21.971875 94.975111)scale(0.1 -0.1)">
       <use xlink:href="#DejaVuSans-32"/>
       <use x="63.623047" xlink:href="#DejaVuSans-2e"/>
       <use x="95.410156" xlink:href="#DejaVuSans-36"/>
       <use x="159.033203" xlink:href="#DejaVuSans-32"/>
       <use x="222.65625" xlink:href="#DejaVuSans-35"/>
      </g>
     </g>
    </g>
    <g id="ytick_9">
     <g id="line2d_16">
      <g>
       <use style="stroke:#000000;stroke-width:0.8;" x="57.6" xlink:href="#m92f8c87b60" y="61.041363"/>
      </g>
     </g>
     <g id="text_17">
      <!-- 2.650 -->
      <g transform="translate(21.971875 64.840582)scale(0.1 -0.1)">
       <use xlink:href="#DejaVuSans-32"/>
       <use x="63.623047" xlink:href="#DejaVuSans-2e"/>
       <use x="95.410156" xlink:href="#DejaVuSans-36"/>
       <use x="159.033203" xlink:href="#DejaVuSans-35"/>
       <use x="222.65625" xlink:href="#DejaVuSans-30"/>
      </g>
     </g>
    </g>
    <g id="text_18">
     <!-- Current (nA) -->
     <defs>
      <path d="M 64.40625 67.28125 
L 64.40625 56.890625 
Q 59.421875 61.53125 53.78125 63.8125 
Q 48.140625 66.109375 41.796875 66.109375 
Q 29.296875 66.109375 22.65625 58.46875 
Q 16.015625 50.828125 16.015625 36.375 
Q 16.015625 21.96875 22.65625 14.328125 
Q 29.296875 6.6875 41.796875 6.6875 
Q 48.140625 6.6875 53.78125 8.984375 
Q 59.421875 11.28125 64.40625 15.921875 
L 64.40625 5.609375 
Q 59.234375 2.09375 53.4375 0.328125 
Q 47.65625 -1.421875 41.21875 -1.421875 
Q 24.65625 -1.421875 15.125 8.703125 
Q 5.609375 18.84375 5.609375 36.375 
Q 5.609375 53.953125 15.125 64.078125 
Q 24.65625 74.21875 41.21875 74.21875 
Q 47.75 74.21875 53.53125 72.484375 
Q 59.328125 70.75 64.40625 67.28125 
z
" id="DejaVuSans-43"/>
      <path d="M 8.5 21.578125 
L 8.5 54.6875 
L 17.484375 54.6875 
L 17.484375 21.921875 
Q 17.484375 14.15625 20.5 10.265625 
Q 23.53125 6.390625 29.59375 6.390625 
Q 36.859375 6.390625 41.078125 11.03125 
Q 45.3125 15.671875 45.3125 23.6875 
L 45.3125 54.6875 
L 54.296875 54.6875 
L 54.296875 0 
L 45.3125 0 
L 45.3125 8.40625 
Q 42.046875 3.421875 37.71875 1 
Q 33.40625 -1.421875 27.6875 -1.421875 
Q 18.265625 -1.421875 13.375 4.4375 
Q 8.5 10.296875 8.5 21.578125 
z
M 31.109375 56 
z
" id="DejaVuSans-75"/>
      <path d="M 41.109375 46.296875 
Q 39.59375 47.171875 37.8125 47.578125 
Q 36.03125 48 33.890625 48 
Q 26.265625 48 22.1875 43.046875 
Q 18.109375 38.09375 18.109375 28.8125 
L 18.109375 0 
L 9.078125 0 
L 9.078125 54.6875 
L 18.109375 54.6875 
L 18.109375 46.1875 
Q 20.953125 51.171875 25.484375 53.578125 
Q 30.03125 56 36.53125 56 
Q 37.453125 56 38.578125 55.875 
Q 39.703125 55.765625 41.0625 55.515625 
z
" id="DejaVuSans-72"/>
      <path d="M 56.203125 29.59375 
L 56.203125 25.203125 
L 14.890625 25.203125 
Q 15.484375 15.921875 20.484375 11.0625 
Q 25.484375 6.203125 34.421875 6.203125 
Q 39.59375 6.203125 44.453125 7.46875 
Q 49.3125 8.734375 54.109375 11.28125 
L 54.109375 2.78125 
Q 49.265625 0.734375 44.1875 -0.34375 
Q 39.109375 -1.421875 33.890625 -1.421875 
Q 20.796875 -1.421875 13.15625 6.1875 
Q 5.515625 13.8125 5.515625 26.8125 
Q 5.515625 40.234375 12.765625 48.109375 
Q 20.015625 56 32.328125 56 
Q 43.359375 56 49.78125 48.890625 
Q 56.203125 41.796875 56.203125 29.59375 
z
M 47.21875 32.234375 
Q 47.125 39.59375 43.09375 43.984375 
Q 39.0625 48.390625 32.421875 48.390625 
Q 24.90625 48.390625 20.390625 44.140625 
Q 15.875 39.890625 15.1875 32.171875 
z
" id="DejaVuSans-65"/>
      <path d="M 54.890625 33.015625 
L 54.890625 0 
L 45.90625 0 
L 45.90625 32.71875 
Q 45.90625 40.484375 42.875 44.328125 
Q 39.84375 48.1875 33.796875 48.1875 
Q 26.515625 48.1875 22.3125 43.546875 
Q 18.109375 38.921875 18.109375 30.90625 
L 18.109375 0 
L 9.078125 0 
L 9.078125 54.6875 
L 18.109375 54.6875 
L 18.109375 46.1875 
Q 21.34375 51.125 25.703125 53.5625 
Q 30.078125 56 35.796875 56 
Q 45.21875 56 50.046875 50.171875 
Q 54.890625 44.34375 54.890625 33.015625 
z
" id="DejaVuSans-6e"/>
      <path id="DejaVuSans-20"/>
      <path d="M 34.1875 63.1875 
L 20.796875 26.90625 
L 47.609375 26.90625 
z
M 28.609375 72.90625 
L 39.796875 72.90625 
L 67.578125 0 
L 57.328125 0 
L 50.6875 18.703125 
L 17.828125 18.703125 
L 11.1875 0 
L 0.78125 0 
z
" id="DejaVuSans-41"/>
     </defs>
     <g transform="translate(15.892187 205.581906)rotate(-90)scale(0.1 -0.1)">
      <use xlink:href="#DejaVuSans-43"/>
      <use x="69.824219" xlink:href="#DejaVuSans-75"/>
      <use x="133.203125" xlink:href="#DejaVuSans-72"/>
      <use x="174.300781" xlink:href="#DejaVuSans-72"/>
      <use x="215.382812" xlink:href="#DejaVuSans-65"/>
      <use x="276.90625" xlink:href="#DejaVuSans-6e"/>
      <use x="340.285156" xlink:href="#DejaVuSans-74"/>
      <use x="379.494141" xlink:href="#DejaVuSans-20"/>
      <use x="411.28125" xlink:href="#DejaVuSans-28"/>
      <use x="450.294922" xlink:href="#DejaVuSans-6e"/>
      <use x="513.673828" xlink:href="#DejaVuSans-41"/>
      <use x="582.082031" xlink:href="#DejaVuSans-29"/>
     </g>
    </g>
   </g>
   <g id="line2d_17">
    <path clip-path="url(#p4fc8c19bc6)" d="M 73.832727 138.908987 
L 74.37521 244.741453 
L 74.917692 269.210691 
L 75.460175 98.046565 
L 76.002658 198.81643 
L 76.544598 180.494637 
L 77.086539 281.867193 
L 77.628479 295.488 
L 78.17042 202.67365 
L 78.712361 203.99957 
L 79.254301 158.195085 
L 79.796242 224.732126 
L 80.338183 201.588807 
L 80.880123 207.856789 
L 81.422064 198.81643 
L 81.964005 209.423785 
L 82.505945 195.802978 
L 83.047886 201.227193 
L 83.589827 183.749166 
L 84.131767 201.106655 
L 84.673708 188.088538 
L 85.215648 209.664861 
L 85.757589 179.289256 
L 86.29953 191.463605 
L 86.84147 184.713471 
L 87.383411 182.543785 
L 87.925352 195.802978 
L 88.467292 190.860915 
L 89.009233 191.704682 
L 89.551174 182.543785 
L 90.093114 187.365309 
L 91.176996 202.312036 
L 92.260877 179.048179 
L 92.802817 188.329614 
L 93.344758 182.18217 
L 93.886699 189.534996 
L 94.428639 187.365309 
L 94.97058 185.677776 
L 95.512521 189.052843 
L 96.054461 187.365309 
L 96.596402 185.195623 
L 97.138343 190.378762 
L 97.680283 191.101991 
L 98.222224 186.642081 
L 98.764164 192.548448 
L 99.848046 200.262888 
L 100.389986 198.936969 
L 100.931927 195.320825 
L 101.473868 200.503964 
L 102.015808 195.441363 
L 102.557749 193.633291 
L 103.09969 189.776072 
L 103.64163 188.329614 
L 104.183571 193.392215 
L 104.725512 188.329614 
L 105.267452 195.079749 
L 105.809393 194.477058 
L 106.893274 183.146475 
L 107.977155 186.642081 
L 108.519096 193.512753 
L 109.061037 186.280466 
L 109.602977 182.784861 
L 110.144918 191.101991 
L 110.686859 184.954547 
L 111.228799 190.860915 
L 111.77074 186.762619 
L 112.31268 181.097327 
L 113.396562 190.378762 
L 113.938502 186.642081 
L 114.480443 184.351857 
L 115.022384 186.280466 
L 115.564324 187.124233 
L 116.106265 189.655534 
L 116.648206 187.244771 
L 117.190146 186.03939 
L 117.732087 187.485848 
L 118.274028 188.088538 
L 119.357909 184.834009 
L 119.899849 185.4367 
L 120.44179 195.682439 
L 120.983731 178.324951 
L 122.067612 184.472395 
L 122.609553 179.409794 
L 123.151493 186.762619 
L 123.693434 178.927641 
L 124.235375 177.360646 
L 124.777315 181.941094 
L 125.319256 174.347193 
L 125.861196 181.700018 
L 126.403137 175.19096 
L 126.945078 178.083874 
L 127.487018 177.240108 
L 128.028959 177.360646 
L 128.5709 180.253561 
L 129.11284 186.762619 
L 129.654781 190.740377 
L 130.196722 191.101991 
L 130.738662 193.151139 
L 131.280603 191.463605 
L 131.822544 201.588807 
L 132.364484 207.374637 
L 132.906425 207.254099 
L 133.448365 218.825758 
L 133.990306 211.834547 
L 134.532247 203.035265 
L 135.074187 189.293919 
L 135.616128 202.312036 
L 136.158069 200.865578 
L 136.700009 202.553112 
L 137.24195 203.276341 
L 137.783891 190.137686 
L 138.325831 190.619839 
L 138.867772 192.066296 
L 139.409713 180.856251 
L 139.951653 184.592933 
L 140.493594 179.289256 
L 141.035534 182.905399 
L 142.119416 176.275803 
L 142.661356 176.999031 
L 143.203297 176.396341 
L 143.745238 177.240108 
L 144.287178 172.056969 
L 144.829119 170.851587 
L 145.37106 176.034726 
L 145.913 176.516879 
L 146.454941 177.963336 
L 146.996881 170.248897 
L 147.538822 168.320287 
L 148.080763 177.601722 
L 148.622703 169.284592 
L 149.164644 166.753291 
L 149.706585 172.539121 
L 150.248525 169.40513 
L 150.790466 181.458942 
L 151.332407 160.846924 
L 151.874347 171.815892 
L 152.416288 172.298045 
L 152.958229 163.498762 
L 153.500169 159.641543 
L 154.04211 152.168179 
L 154.58405 146.743964 
L 155.125991 166.271139 
L 155.667932 144.815354 
L 156.209872 156.869166 
L 156.751813 153.132484 
L 157.293754 158.797776 
L 157.835694 159.038852 
L 158.377635 148.672574 
L 158.919576 164.583605 
L 159.461516 168.079211 
L 160.003457 174.949883 
L 160.545397 179.289256 
L 161.087338 182.423247 
L 161.629279 173.985578 
L 162.171219 182.061632 
L 162.71316 185.798314 
L 163.255101 196.526206 
L 163.797041 193.633291 
L 164.338982 197.249435 
L 164.880923 193.75383 
L 165.422863 196.887821 
L 165.964804 192.789525 
L 166.506745 184.351857 
L 167.048685 195.561901 
L 167.590626 197.249435 
L 168.132566 180.976789 
L 168.674507 179.65087 
L 169.216448 182.784861 
L 169.758388 194.35652 
L 170.300329 188.329614 
L 170.84227 173.86504 
L 171.38421 182.061632 
L 171.926151 180.253561 
L 172.468092 181.57948 
L 173.010032 174.829345 
L 173.551973 181.700018 
L 174.093914 175.19096 
L 174.635854 170.972126 
L 175.177795 173.985578 
L 175.719735 166.512215 
L 176.261676 162.654996 
L 176.803617 165.668448 
L 177.345557 157.471857 
L 177.887498 156.989704 
L 178.429439 151.324413 
L 178.971379 157.592395 
L 179.51332 152.650332 
L 180.055261 154.69948 
L 180.597201 143.730511 
L 181.139142 149.275265 
L 181.681082 143.368897 
L 182.223023 155.30217 
L 183.306904 148.552036 
L 183.848845 153.253022 
L 184.390786 144.815354 
L 184.932726 145.900197 
L 185.474667 137.703605 
L 186.016608 146.261812 
L 186.558548 143.368897 
L 187.100489 143.489435 
L 187.64243 136.377686 
L 188.18437 158.797776 
L 188.726311 147.949345 
L 189.268251 142.404592 
L 189.810192 141.319749 
L 190.352133 144.694816 
L 191.436014 136.016072 
L 191.977955 125.770332 
L 192.519895 145.659121 
L 193.061836 142.042978 
L 193.603777 140.717058 
L 194.145717 152.650332 
L 194.687658 142.042978 
L 195.229598 147.346655 
L 195.771539 149.395803 
L 196.31348 153.855713 
L 196.85542 161.208538 
L 197.397361 161.931767 
L 197.939302 172.659659 
L 198.481242 178.807103 
L 199.565124 179.891946 
L 200.107064 183.50809 
L 200.649005 170.972126 
L 201.190946 170.128359 
L 202.274827 175.19096 
L 202.816767 161.088 
L 203.358708 159.521004 
L 203.900649 160.967462 
L 204.442589 158.195085 
L 204.98453 158.436161 
L 205.526471 149.877955 
L 206.068411 151.324413 
L 206.610352 151.565489 
L 207.152293 154.820018 
L 207.694233 152.650332 
L 208.236174 157.954009 
L 208.778114 147.949345 
L 209.320055 149.757417 
L 209.861996 148.31096 
L 210.403936 147.346655 
L 210.945877 146.141274 
L 211.487818 140.958135 
L 212.029758 152.77087 
L 212.571699 149.877955 
L 213.11364 143.489435 
L 213.65558 161.570152 
L 214.197521 158.5567 
L 214.739462 160.485309 
L 215.281402 155.061094 
L 215.823343 162.052305 
L 216.365283 155.422709 
L 216.907224 159.279928 
L 217.449165 154.578942 
L 217.991105 157.712933 
L 218.533046 155.663785 
L 219.074987 157.592395 
L 219.616927 156.507552 
L 220.158868 148.552036 
L 220.700809 152.288717 
L 221.242749 143.851049 
L 221.78469 153.011946 
L 222.326631 150.601184 
L 222.868571 158.074547 
L 223.410512 150.480646 
L 223.952452 147.949345 
L 224.494393 146.623426 
L 225.036334 149.395803 
L 225.578274 148.31096 
L 226.120215 139.270601 
L 226.662156 145.779659 
L 227.204096 147.467193 
L 227.746037 152.168179 
L 228.287978 148.672574 
L 228.829918 141.681363 
L 229.371859 148.069883 
L 229.913799 143.127821 
L 230.45574 135.895534 
L 230.997681 144.45374 
L 231.539621 134.690152 
L 232.081562 148.793112 
L 232.623503 129.145399 
L 233.165443 123.118493 
L 233.707384 132.520466 
L 234.249325 126.614099 
L 234.791265 131.917776 
L 235.875147 121.913112 
L 236.417087 125.770332 
L 236.959028 124.203336 
L 237.500968 126.373022 
L 238.042909 132.399928 
L 238.58485 133.364233 
L 239.12679 129.507013 
L 239.668731 139.150063 
L 240.210672 133.846386 
L 240.752612 147.105578 
L 241.294553 146.623426 
L 241.836494 150.360108 
L 242.378434 157.23078 
L 242.920375 149.757417 
L 243.462315 159.762081 
L 244.546197 166.030063 
L 245.088137 163.01661 
L 245.630078 163.257686 
L 246.172019 162.534457 
L 246.713959 168.922978 
L 247.2559 169.766744 
L 247.797841 165.788987 
L 248.339781 166.87383 
L 248.881722 165.788987 
L 249.423663 153.976251 
L 249.965603 157.23078 
L 250.507544 149.395803 
L 251.049484 154.217327 
L 251.591425 154.69948 
L 252.133366 150.601184 
L 252.675306 153.253022 
L 253.217247 147.949345 
L 253.759188 148.431498 
L 254.301128 142.284054 
L 254.843069 141.199211 
L 255.38501 140.717058 
L 255.92695 143.368897 
L 256.468891 147.105578 
L 257.010832 141.440287 
L 257.552772 139.029525 
L 258.094713 139.752753 
L 258.636653 143.368897 
L 259.178594 143.609973 
L 259.720535 138.06522 
L 260.262475 142.645668 
L 260.804416 145.418045 
L 261.346357 136.980377 
L 261.888297 143.609973 
L 262.972179 133.605309 
L 263.514119 138.306296 
L 264.05606 139.150063 
L 264.598 129.507013 
L 265.139941 140.717058 
L 265.681882 131.917776 
L 266.223822 137.824143 
L 266.765763 138.788448 
L 267.307704 140.837596 
L 267.849644 134.208 
L 268.392127 130.832933 
L 268.934067 130.832933 
L 269.476008 132.27939 
L 270.017949 141.199211 
L 270.559889 138.185758 
L 271.10183 137.341991 
L 271.643771 137.944682 
L 272.185711 140.475982 
L 272.727652 130.109704 
L 273.269593 134.931229 
L 274.353474 122.515803 
L 275.437355 129.868628 
L 275.979296 122.154188 
L 276.521236 125.770332 
L 277.063177 124.082798 
L 277.605118 121.913112 
L 278.147058 129.74809 
L 278.688999 127.81948 
L 279.23094 133.243695 
L 279.77288 125.770332 
L 280.314821 126.734637 
L 280.856762 119.984502 
L 281.399244 128.301632 
L 282.483126 124.082798 
L 283.025608 131.917776 
L 283.567549 130.832933 
L 284.109489 130.712395 
L 284.65143 128.542709 
L 285.193371 128.301632 
L 285.735311 130.953471 
L 286.277252 122.395265 
L 286.819193 126.131946 
L 287.361133 124.444413 
L 287.903074 133.846386 
L 288.445014 134.810691 
L 288.986955 130.953471 
L 289.528896 133.846386 
L 290.070836 125.529256 
L 290.612777 132.761543 
L 291.154718 129.507013 
L 291.696658 132.520466 
L 292.238599 138.788448 
L 292.78054 129.74809 
L 293.32248 136.13661 
L 293.864421 135.895534 
L 294.406362 136.016072 
L 294.948302 139.391139 
L 295.490243 134.690152 
L 296.032183 135.533919 
L 296.574124 133.364233 
L 297.658005 119.863964 
L 298.199946 123.480108 
L 298.741887 128.542709 
L 299.283827 123.118493 
L 299.825768 109.979839 
L 300.367709 110.823605 
L 300.909649 109.015534 
L 301.45159 103.711857 
L 302.535471 124.564951 
L 303.077412 132.520466 
L 303.619352 126.975713 
L 304.161293 132.27939 
L 304.703234 118.899659 
L 305.787115 116.488897 
L 306.329056 132.520466 
L 306.870996 125.167641 
L 307.412937 124.685489 
L 307.954878 118.779121 
L 308.496818 117.453202 
L 309.038759 119.381812 
L 309.580699 129.507013 
L 310.12264 116.127283 
L 310.664581 131.797238 
L 311.206521 117.212126 
L 311.748462 127.698942 
L 312.290403 127.698942 
L 312.832343 122.877417 
L 313.916225 132.520466 
L 314.458165 133.123157 
L 315.000106 136.859839 
L 315.542047 124.806027 
L 316.083987 129.024861 
L 317.167868 132.27939 
L 317.709809 130.832933 
L 318.25175 124.806027 
L 318.79369 127.337327 
L 319.335631 131.074009 
L 319.877572 131.917776 
L 320.419512 131.315085 
L 320.961453 131.074009 
L 321.503394 129.145399 
L 322.045334 137.944682 
L 322.587275 132.27939 
L 323.129215 129.386475 
L 323.671156 129.627552 
L 324.213097 124.082798 
L 324.755037 110.703067 
L 325.296978 110.944143 
L 325.838919 109.25661 
L 326.380859 102.627013 
L 326.9228 93.948269 
L 327.464741 91.29643 
L 328.006681 96.720646 
L 328.548622 105.519928 
L 329.090563 91.899121 
L 329.632503 88.885668 
L 330.716384 97.323336 
L 331.258325 103.47078 
L 331.800266 89.006206 
L 332.342206 87.077596 
L 332.884147 101.903785 
L 333.426088 135.533919 
L 333.96857 104.555623 
L 334.510511 100.457327 
L 335.052451 100.216251 
L 335.594392 111.064682 
L 336.136333 112.270063 
L 336.678273 115.042439 
L 337.220214 112.631677 
L 337.762155 119.622888 
L 338.304095 116.609435 
L 339.387977 117.694278 
L 339.929917 130.712395 
L 340.471858 115.404054 
L 341.013799 126.493561 
L 341.555739 123.600646 
L 342.09768 124.926565 
L 342.63962 110.823605 
L 343.181561 122.395265 
L 343.723502 105.640466 
L 344.265442 123.35957 
L 345.349324 108.894996 
L 345.891264 121.310422 
L 346.433205 122.636341 
L 347.517086 129.74809 
L 348.059027 125.047103 
L 348.600967 116.368359 
L 349.142908 129.507013 
L 349.684849 129.989166 
L 350.76873 135.292843 
L 351.310671 125.288179 
L 351.852611 128.301632 
L 352.394552 123.239031 
L 352.936493 115.283516 
L 353.478433 111.18522 
L 354.020374 114.319211 
L 354.562315 116.729973 
L 355.104255 112.028987 
L 355.646196 94.671498 
L 356.188136 99.01087 
L 356.730077 100.336789 
L 357.272018 91.778583 
L 357.813958 85.631139 
L 358.355899 76.229166 
L 358.89784 74.903247 
L 359.43978 82.738224 
L 359.981721 69.358493 
L 360.523662 89.970511 
L 361.065602 67.429883 
L 361.607543 81.773919 
L 362.149484 80.327462 
L 362.691424 91.29643 
L 363.233365 91.29643 
L 363.775305 89.006206 
L 364.317246 92.742888 
L 364.859187 90.211587 
L 365.401127 93.586655 
L 365.943068 98.408179 
L 366.485009 100.698404 
L 367.026949 100.095713 
L 367.568858 94.068807 
L 368.111286 92.863426 
L 368.653714 98.528717 
L 369.738571 76.229166 
L 370.280999 90.091049 
L 370.823428 81.291767 
L 371.365856 91.778583 
L 371.908284 88.76513 
L 372.450713 80.568538 
L 372.993141 97.443874 
L 373.535569 93.827731 
L 374.077998 95.515265 
L 374.620426 93.948269 
L 375.162854 89.247283 
L 375.705283 94.430422 
L 376.247711 89.488359 
L 376.790139 98.408179 
L 377.332568 92.019659 
L 377.874996 88.403516 
L 378.417424 86.957058 
L 378.959853 90.332126 
L 379.502281 87.318673 
L 380.044709 88.885668 
L 380.587138 84.184682 
L 381.129566 73.938942 
L 381.671994 74.541632 
L 382.214423 77.434547 
L 382.756851 89.970511 
L 383.841708 53.568 
L 384.384136 75.144323 
L 384.926564 69.358493 
L 385.468993 87.559749 
L 386.011421 82.497148 
L 386.553849 83.340915 
L 387.096278 91.537507 
L 387.638706 93.586655 
L 388.181134 97.202798 
L 388.723563 96.961722 
L 389.265991 96.47957 
L 389.808419 103.47078 
L 390.350848 105.640466 
L 390.893276 100.216251 
L 391.435704 100.336789 
L 391.978133 99.01087 
L 392.520561 80.568538 
L 393.605418 90.332126 
L 394.147846 89.729435 
L 394.690274 88.282978 
L 395.232703 89.729435 
L 395.775131 94.912574 
L 396.317559 99.01087 
L 396.859988 95.997417 
L 397.402416 93.948269 
L 397.944844 88.885668 
L 398.487273 88.041901 
L 398.487273 88.041901 
" style="fill:none;stroke:#1f77b4;stroke-linecap:square;stroke-width:1.5;"/>
   </g>
   <g id="patch_3">
    <path d="M 57.6 307.584 
L 57.6 41.472 
" style="fill:none;stroke:#000000;stroke-linecap:square;stroke-linejoin:miter;stroke-width:0.8;"/>
   </g>
   <g id="patch_4">
    <path d="M 414.72 307.584 
L 414.72 41.472 
" style="fill:none;stroke:#000000;stroke-linecap:square;stroke-linejoin:miter;stroke-width:0.8;"/>
   </g>
   <g id="patch_5">
    <path d="M 57.6 307.584 
L 414.72 307.584 
" style="fill:none;stroke:#000000;stroke-linecap:square;stroke-linejoin:miter;stroke-width:0.8;"/>
   </g>
   <g id="patch_6">
    <path d="M 57.6 41.472 
L 414.72 41.472 
" style="fill:none;stroke:#000000;stroke-linecap:square;stroke-linejoin:miter;stroke-width:0.8;"/>
   </g>
   <g id="text_19">
    <!-- Current with source voltage 1000.0 mV -->
    <defs>
     <path d="M 4.203125 54.6875 
L 13.1875 54.6875 
L 24.421875 12.015625 
L 35.59375 54.6875 
L 46.1875 54.6875 
L 57.421875 12.015625 
L 68.609375 54.6875 
L 77.59375 54.6875 
L 63.28125 0 
L 52.6875 0 
L 40.921875 44.828125 
L 29.109375 0 
L 18.5 0 
z
" id="DejaVuSans-77"/>
     <path d="M 9.421875 54.6875 
L 18.40625 54.6875 
L 18.40625 0 
L 9.421875 0 
z
M 9.421875 75.984375 
L 18.40625 75.984375 
L 18.40625 64.59375 
L 9.421875 64.59375 
z
" id="DejaVuSans-69"/>
     <path d="M 54.890625 33.015625 
L 54.890625 0 
L 45.90625 0 
L 45.90625 32.71875 
Q 45.90625 40.484375 42.875 44.328125 
Q 39.84375 48.1875 33.796875 48.1875 
Q 26.515625 48.1875 22.3125 43.546875 
Q 18.109375 38.921875 18.109375 30.90625 
L 18.109375 0 
L 9.078125 0 
L 9.078125 75.984375 
L 18.109375 75.984375 
L 18.109375 46.1875 
Q 21.34375 51.125 25.703125 53.5625 
Q 30.078125 56 35.796875 56 
Q 45.21875 56 50.046875 50.171875 
Q 54.890625 44.34375 54.890625 33.015625 
z
" id="DejaVuSans-68"/>
     <path d="M 30.609375 48.390625 
Q 23.390625 48.390625 19.1875 42.75 
Q 14.984375 37.109375 14.984375 27.296875 
Q 14.984375 17.484375 19.15625 11.84375 
Q 23.34375 6.203125 30.609375 6.203125 
Q 37.796875 6.203125 41.984375 11.859375 
Q 46.1875 17.53125 46.1875 27.296875 
Q 46.1875 37.015625 41.984375 42.703125 
Q 37.796875 48.390625 30.609375 48.390625 
z
M 30.609375 56 
Q 42.328125 56 49.015625 48.375 
Q 55.71875 40.765625 55.71875 27.296875 
Q 55.71875 13.875 49.015625 6.21875 
Q 42.328125 -1.421875 30.609375 -1.421875 
Q 18.84375 -1.421875 12.171875 6.21875 
Q 5.515625 13.875 5.515625 27.296875 
Q 5.515625 40.765625 12.171875 48.375 
Q 18.84375 56 30.609375 56 
z
" id="DejaVuSans-6f"/>
     <path d="M 48.78125 52.59375 
L 48.78125 44.1875 
Q 44.96875 46.296875 41.140625 47.34375 
Q 37.3125 48.390625 33.40625 48.390625 
Q 24.65625 48.390625 19.8125 42.84375 
Q 14.984375 37.3125 14.984375 27.296875 
Q 14.984375 17.28125 19.8125 11.734375 
Q 24.65625 6.203125 33.40625 6.203125 
Q 37.3125 6.203125 41.140625 7.25 
Q 44.96875 8.296875 48.78125 10.40625 
L 48.78125 2.09375 
Q 45.015625 0.34375 40.984375 -0.53125 
Q 36.96875 -1.421875 32.421875 -1.421875 
Q 20.0625 -1.421875 12.78125 6.34375 
Q 5.515625 14.109375 5.515625 27.296875 
Q 5.515625 40.671875 12.859375 48.328125 
Q 20.21875 56 33.015625 56 
Q 37.15625 56 41.109375 55.140625 
Q 45.0625 54.296875 48.78125 52.59375 
z
" id="DejaVuSans-63"/>
     <path d="M 2.984375 54.6875 
L 12.5 54.6875 
L 29.59375 8.796875 
L 46.6875 54.6875 
L 56.203125 54.6875 
L 35.6875 0 
L 23.484375 0 
z
" id="DejaVuSans-76"/>
     <path d="M 9.421875 75.984375 
L 18.40625 75.984375 
L 18.40625 0 
L 9.421875 0 
z
" id="DejaVuSans-6c"/>
     <path d="M 34.28125 27.484375 
Q 23.390625 27.484375 19.1875 25 
Q 14.984375 22.515625 14.984375 16.5 
Q 14.984375 11.71875 18.140625 8.90625 
Q 21.296875 6.109375 26.703125 6.109375 
Q 34.1875 6.109375 38.703125 11.40625 
Q 43.21875 16.703125 43.21875 25.484375 
L 43.21875 27.484375 
z
M 52.203125 31.203125 
L 52.203125 0 
L 43.21875 0 
L 43.21875 8.296875 
Q 40.140625 3.328125 35.546875 0.953125 
Q 30.953125 -1.421875 24.3125 -1.421875 
Q 15.921875 -1.421875 10.953125 3.296875 
Q 6 8.015625 6 15.921875 
Q 6 25.140625 12.171875 29.828125 
Q 18.359375 34.515625 30.609375 34.515625 
L 43.21875 34.515625 
L 43.21875 35.40625 
Q 43.21875 41.609375 39.140625 45 
Q 35.0625 48.390625 27.6875 48.390625 
Q 23 48.390625 18.546875 47.265625 
Q 14.109375 46.140625 10.015625 43.890625 
L 10.015625 52.203125 
Q 14.9375 54.109375 19.578125 55.046875 
Q 24.21875 56 28.609375 56 
Q 40.484375 56 46.34375 49.84375 
Q 52.203125 43.703125 52.203125 31.203125 
z
" id="DejaVuSans-61"/>
     <path d="M 45.40625 27.984375 
Q 45.40625 37.75 41.375 43.109375 
Q 37.359375 48.484375 30.078125 48.484375 
Q 22.859375 48.484375 18.828125 43.109375 
Q 14.796875 37.75 14.796875 27.984375 
Q 14.796875 18.265625 18.828125 12.890625 
Q 22.859375 7.515625 30.078125 7.515625 
Q 37.359375 7.515625 41.375 12.890625 
Q 45.40625 18.265625 45.40625 27.984375 
z
M 54.390625 6.78125 
Q 54.390625 -7.171875 48.1875 -13.984375 
Q 42 -20.796875 29.203125 -20.796875 
Q 24.46875 -20.796875 20.265625 -20.09375 
Q 16.0625 -19.390625 12.109375 -17.921875 
L 12.109375 -9.1875 
Q 16.0625 -11.328125 19.921875 -12.34375 
Q 23.78125 -13.375 27.78125 -13.375 
Q 36.625 -13.375 41.015625 -8.765625 
Q 45.40625 -4.15625 45.40625 5.171875 
L 45.40625 9.625 
Q 42.625 4.78125 38.28125 2.390625 
Q 33.9375 0 27.875 0 
Q 17.828125 0 11.671875 7.65625 
Q 5.515625 15.328125 5.515625 27.984375 
Q 5.515625 40.671875 11.671875 48.328125 
Q 17.828125 56 27.875 56 
Q 33.9375 56 38.28125 53.609375 
Q 42.625 51.21875 45.40625 46.390625 
L 45.40625 54.6875 
L 54.390625 54.6875 
z
" id="DejaVuSans-67"/>
     <path d="M 52 44.1875 
Q 55.375 50.25 60.0625 53.125 
Q 64.75 56 71.09375 56 
Q 79.640625 56 84.28125 50.015625 
Q 88.921875 44.046875 88.921875 33.015625 
L 88.921875 0 
L 79.890625 0 
L 79.890625 32.71875 
Q 79.890625 40.578125 77.09375 44.375 
Q 74.3125 48.1875 68.609375 48.1875 
Q 61.625 48.1875 57.5625 43.546875 
Q 53.515625 38.921875 53.515625 30.90625 
L 53.515625 0 
L 44.484375 0 
L 44.484375 32.71875 
Q 44.484375 40.625 41.703125 44.40625 
Q 38.921875 48.1875 33.109375 48.1875 
Q 26.21875 48.1875 22.15625 43.53125 
Q 18.109375 38.875 18.109375 30.90625 
L 18.109375 0 
L 9.078125 0 
L 9.078125 54.6875 
L 18.109375 54.6875 
L 18.109375 46.1875 
Q 21.1875 51.21875 25.484375 53.609375 
Q 29.78125 56 35.6875 56 
Q 41.65625 56 45.828125 52.96875 
Q 50 49.953125 52 44.1875 
z
" id="DejaVuSans-6d"/>
     <path d="M 28.609375 0 
L 0.78125 72.90625 
L 11.078125 72.90625 
L 34.1875 11.53125 
L 57.328125 72.90625 
L 67.578125 72.90625 
L 39.796875 0 
z
" id="DejaVuSans-56"/>
    </defs>
    <g transform="translate(117.710625 35.472)scale(0.12 -0.12)">
     <use xlink:href="#DejaVuSans-43"/>
     <use x="69.824219" xlink:href="#DejaVuSans-75"/>
     <use x="133.203125" xlink:href="#DejaVuSans-72"/>
     <use x="174.300781" xlink:href="#DejaVuSans-72"/>
     <use x="215.382812" xlink:href="#DejaVuSans-65"/>
     <use x="276.90625" xlink:href="#DejaVuSans-6e"/>
     <use x="340.285156" xlink:href="#DejaVuSans-74"/>
     <use x="379.494141" xlink:href="#DejaVuSans-20"/>
     <use x="411.28125" xlink:href="#DejaVuSans-77"/>
     <use x="493.068359" xlink:href="#DejaVuSans-69"/>
     <use x="520.851562" xlink:href="#DejaVuSans-74"/>
     <use x="560.060547" xlink:href="#DejaVuSans-68"/>
     <use x="623.439453" xlink:href="#DejaVuSans-20"/>
     <use x="655.226562" xlink:href="#DejaVuSans-73"/>
     <use x="707.326172" xlink:href="#DejaVuSans-6f"/>
     <use x="768.507812" xlink:href="#DejaVuSans-75"/>
     <use x="831.886719" xlink:href="#DejaVuSans-72"/>
     <use x="872.96875" xlink:href="#DejaVuSans-63"/>
     <use x="927.949219" xlink:href="#DejaVuSans-65"/>
     <use x="989.472656" xlink:href="#DejaVuSans-20"/>
     <use x="1021.259766" xlink:href="#DejaVuSans-76"/>
     <use x="1080.439453" xlink:href="#DejaVuSans-6f"/>
     <use x="1141.621094" xlink:href="#DejaVuSans-6c"/>
     <use x="1169.404297" xlink:href="#DejaVuSans-74"/>
     <use x="1208.613281" xlink:href="#DejaVuSans-61"/>
     <use x="1269.892578" xlink:href="#DejaVuSans-67"/>
     <use x="1333.369141" xlink:href="#DejaVuSans-65"/>
     <use x="1394.892578" xlink:href="#DejaVuSans-20"/>
     <use x="1426.679688" xlink:href="#DejaVuSans-31"/>
     <use x="1490.302734" xlink:href="#DejaVuSans-30"/>
     <use x="1553.925781" xlink:href="#DejaVuSans-30"/>
     <use x="1617.548828" xlink:href="#DejaVuSans-30"/>
     <use x="1681.171875" xlink:href="#DejaVuSans-2e"/>
     <use x="1712.958984" xlink:href="#DejaVuSans-30"/>
     <use x="1776.582031" xlink:href="#DejaVuSans-20"/>
     <use x="1808.369141" xlink:href="#DejaVuSans-6d"/>
     <use x="1905.78125" xlink:href="#DejaVuSans-56"/>
    </g>
   </g>
  </g>
 </g>
 <defs>
  <clipPath id="p4fc8c19bc6">
   <rect height="266.112" width="357.12" x="57.6" y="41.472"/>
  </clipPath>
 </defs>
</svg>
