<?xml version="1.0" encoding="utf-8" standalone="no"?>
<!DOCTYPE svg PUBLIC "-//W3C//DTD SVG 1.1//EN"
  "http://www.w3.org/Graphics/SVG/1.1/DTD/svg11.dtd">
<!-- Created with matplotlib (http://matplotlib.org/) -->
<svg height="345pt" version="1.1" viewBox="0 0 460 345" width="460pt" xmlns="http://www.w3.org/2000/svg" xmlns:xlink="http://www.w3.org/1999/xlink">
 <defs>
  <style type="text/css">
*{stroke-linecap:butt;stroke-linejoin:round;}
  </style>
 </defs>
 <g id="figure_1">
  <g id="patch_1">
   <path d="M 0 345.6 
L 460.8 345.6 
L 460.8 0 
L 0 0 
z
" style="fill:#ffffff;"/>
  </g>
  <g id="axes_1">
   <g id="patch_2">
    <path d="M 57.6 307.584 
L 414.72 307.584 
L 414.72 41.472 
L 57.6 41.472 
z
" style="fill:#ffffff;"/>
   </g>
   <g id="matplotlib.axis_1">
    <g id="xtick_1">
     <g id="line2d_1">
      <defs>
       <path d="M 0 0 
L 0 3.5 
" id="m77f952b026" style="stroke:#000000;stroke-width:0.8;"/>
      </defs>
      <g>
       <use style="stroke:#000000;stroke-width:0.8;" x="73.832727" xlink:href="#m77f952b026" y="307.584"/>
      </g>
     </g>
     <g id="text_1">
      <!-- 0 -->
      <defs>
       <path d="M 31.78125 66.40625 
Q 24.171875 66.40625 20.328125 58.90625 
Q 16.5 51.421875 16.5 36.375 
Q 16.5 21.390625 20.328125 13.890625 
Q 24.171875 6.390625 31.78125 6.390625 
Q 39.453125 6.390625 43.28125 13.890625 
Q 47.125 21.390625 47.125 36.375 
Q 47.125 51.421875 43.28125 58.90625 
Q 39.453125 66.40625 31.78125 66.40625 
z
M 31.78125 74.21875 
Q 44.046875 74.21875 50.515625 64.515625 
Q 56.984375 54.828125 56.984375 36.375 
Q 56.984375 17.96875 50.515625 8.265625 
Q 44.046875 -1.421875 31.78125 -1.421875 
Q 19.53125 -1.421875 13.0625 8.265625 
Q 6.59375 17.96875 6.59375 36.375 
Q 6.59375 54.828125 13.0625 64.515625 
Q 19.53125 74.21875 31.78125 74.21875 
z
" id="DejaVuSans-30"/>
      </defs>
      <g transform="translate(70.651477 322.182437)scale(0.1 -0.1)">
       <use xlink:href="#DejaVuSans-30"/>
      </g>
     </g>
    </g>
    <g id="xtick_2">
     <g id="line2d_2">
      <g>
       <use style="stroke:#000000;stroke-width:0.8;" x="128.031427" xlink:href="#m77f952b026" y="307.584"/>
      </g>
     </g>
     <g id="text_2">
      <!-- 100 -->
      <defs>
       <path d="M 12.40625 8.296875 
L 28.515625 8.296875 
L 28.515625 63.921875 
L 10.984375 60.40625 
L 10.984375 69.390625 
L 28.421875 72.90625 
L 38.28125 72.90625 
L 38.28125 8.296875 
L 54.390625 8.296875 
L 54.390625 0 
L 12.40625 0 
z
" id="DejaVuSans-31"/>
      </defs>
      <g transform="translate(118.487677 322.182437)scale(0.1 -0.1)">
       <use xlink:href="#DejaVuSans-31"/>
       <use x="63.623047" xlink:href="#DejaVuSans-30"/>
       <use x="127.246094" xlink:href="#DejaVuSans-30"/>
      </g>
     </g>
    </g>
    <g id="xtick_3">
     <g id="line2d_3">
      <g>
       <use style="stroke:#000000;stroke-width:0.8;" x="182.230126" xlink:href="#m77f952b026" y="307.584"/>
      </g>
     </g>
     <g id="text_3">
      <!-- 200 -->
      <defs>
       <path d="M 19.1875 8.296875 
L 53.609375 8.296875 
L 53.609375 0 
L 7.328125 0 
L 7.328125 8.296875 
Q 12.9375 14.109375 22.625 23.890625 
Q 32.328125 33.6875 34.8125 36.53125 
Q 39.546875 41.84375 41.421875 45.53125 
Q 43.3125 49.21875 43.3125 52.78125 
Q 43.3125 58.59375 39.234375 62.25 
Q 35.15625 65.921875 28.609375 65.921875 
Q 23.96875 65.921875 18.8125 64.3125 
Q 13.671875 62.703125 7.8125 59.421875 
L 7.8125 69.390625 
Q 13.765625 71.78125 18.9375 73 
Q 24.125 74.21875 28.421875 74.21875 
Q 39.75 74.21875 46.484375 68.546875 
Q 53.21875 62.890625 53.21875 53.421875 
Q 53.21875 48.921875 51.53125 44.890625 
Q 49.859375 40.875 45.40625 35.40625 
Q 44.1875 33.984375 37.640625 27.21875 
Q 31.109375 20.453125 19.1875 8.296875 
z
" id="DejaVuSans-32"/>
      </defs>
      <g transform="translate(172.686376 322.182437)scale(0.1 -0.1)">
       <use xlink:href="#DejaVuSans-32"/>
       <use x="63.623047" xlink:href="#DejaVuSans-30"/>
       <use x="127.246094" xlink:href="#DejaVuSans-30"/>
      </g>
     </g>
    </g>
    <g id="xtick_4">
     <g id="line2d_4">
      <g>
       <use style="stroke:#000000;stroke-width:0.8;" x="236.428826" xlink:href="#m77f952b026" y="307.584"/>
      </g>
     </g>
     <g id="text_4">
      <!-- 300 -->
      <defs>
       <path d="M 40.578125 39.3125 
Q 47.65625 37.796875 51.625 33 
Q 55.609375 28.21875 55.609375 21.1875 
Q 55.609375 10.40625 48.1875 4.484375 
Q 40.765625 -1.421875 27.09375 -1.421875 
Q 22.515625 -1.421875 17.65625 -0.515625 
Q 12.796875 0.390625 7.625 2.203125 
L 7.625 11.71875 
Q 11.71875 9.328125 16.59375 8.109375 
Q 21.484375 6.890625 26.8125 6.890625 
Q 36.078125 6.890625 40.9375 10.546875 
Q 45.796875 14.203125 45.796875 21.1875 
Q 45.796875 27.640625 41.28125 31.265625 
Q 36.765625 34.90625 28.71875 34.90625 
L 20.21875 34.90625 
L 20.21875 43.015625 
L 29.109375 43.015625 
Q 36.375 43.015625 40.234375 45.921875 
Q 44.09375 48.828125 44.09375 54.296875 
Q 44.09375 59.90625 40.109375 62.90625 
Q 36.140625 65.921875 28.71875 65.921875 
Q 24.65625 65.921875 20.015625 65.03125 
Q 15.375 64.15625 9.8125 62.3125 
L 9.8125 71.09375 
Q 15.4375 72.65625 20.34375 73.4375 
Q 25.25 74.21875 29.59375 74.21875 
Q 40.828125 74.21875 47.359375 69.109375 
Q 53.90625 64.015625 53.90625 55.328125 
Q 53.90625 49.265625 50.4375 45.09375 
Q 46.96875 40.921875 40.578125 39.3125 
z
" id="DejaVuSans-33"/>
      </defs>
      <g transform="translate(226.885076 322.182437)scale(0.1 -0.1)">
       <use xlink:href="#DejaVuSans-33"/>
       <use x="63.623047" xlink:href="#DejaVuSans-30"/>
       <use x="127.246094" xlink:href="#DejaVuSans-30"/>
      </g>
     </g>
    </g>
    <g id="xtick_5">
     <g id="line2d_5">
      <g>
       <use style="stroke:#000000;stroke-width:0.8;" x="290.627525" xlink:href="#m77f952b026" y="307.584"/>
      </g>
     </g>
     <g id="text_5">
      <!-- 400 -->
      <defs>
       <path d="M 37.796875 64.3125 
L 12.890625 25.390625 
L 37.796875 25.390625 
z
M 35.203125 72.90625 
L 47.609375 72.90625 
L 47.609375 25.390625 
L 58.015625 25.390625 
L 58.015625 17.1875 
L 47.609375 17.1875 
L 47.609375 0 
L 37.796875 0 
L 37.796875 17.1875 
L 4.890625 17.1875 
L 4.890625 26.703125 
z
" id="DejaVuSans-34"/>
      </defs>
      <g transform="translate(281.083775 322.182437)scale(0.1 -0.1)">
       <use xlink:href="#DejaVuSans-34"/>
       <use x="63.623047" xlink:href="#DejaVuSans-30"/>
       <use x="127.246094" xlink:href="#DejaVuSans-30"/>
      </g>
     </g>
    </g>
    <g id="xtick_6">
     <g id="line2d_6">
      <g>
       <use style="stroke:#000000;stroke-width:0.8;" x="344.826224" xlink:href="#m77f952b026" y="307.584"/>
      </g>
     </g>
     <g id="text_6">
      <!-- 500 -->
      <defs>
       <path d="M 10.796875 72.90625 
L 49.515625 72.90625 
L 49.515625 64.59375 
L 19.828125 64.59375 
L 19.828125 46.734375 
Q 21.96875 47.46875 24.109375 47.828125 
Q 26.265625 48.1875 28.421875 48.1875 
Q 40.625 48.1875 47.75 41.5 
Q 54.890625 34.8125 54.890625 23.390625 
Q 54.890625 11.625 47.5625 5.09375 
Q 40.234375 -1.421875 26.90625 -1.421875 
Q 22.3125 -1.421875 17.546875 -0.640625 
Q 12.796875 0.140625 7.71875 1.703125 
L 7.71875 11.625 
Q 12.109375 9.234375 16.796875 8.0625 
Q 21.484375 6.890625 26.703125 6.890625 
Q 35.15625 6.890625 40.078125 11.328125 
Q 45.015625 15.765625 45.015625 23.390625 
Q 45.015625 31 40.078125 35.4375 
Q 35.15625 39.890625 26.703125 39.890625 
Q 22.75 39.890625 18.8125 39.015625 
Q 14.890625 38.140625 10.796875 36.28125 
z
" id="DejaVuSans-35"/>
      </defs>
      <g transform="translate(335.282474 322.182437)scale(0.1 -0.1)">
       <use xlink:href="#DejaVuSans-35"/>
       <use x="63.623047" xlink:href="#DejaVuSans-30"/>
       <use x="127.246094" xlink:href="#DejaVuSans-30"/>
      </g>
     </g>
    </g>
    <g id="xtick_7">
     <g id="line2d_7">
      <g>
       <use style="stroke:#000000;stroke-width:0.8;" x="399.024924" xlink:href="#m77f952b026" y="307.584"/>
      </g>
     </g>
     <g id="text_7">
      <!-- 600 -->
      <defs>
       <path d="M 33.015625 40.375 
Q 26.375 40.375 22.484375 35.828125 
Q 18.609375 31.296875 18.609375 23.390625 
Q 18.609375 15.53125 22.484375 10.953125 
Q 26.375 6.390625 33.015625 6.390625 
Q 39.65625 6.390625 43.53125 10.953125 
Q 47.40625 15.53125 47.40625 23.390625 
Q 47.40625 31.296875 43.53125 35.828125 
Q 39.65625 40.375 33.015625 40.375 
z
M 52.59375 71.296875 
L 52.59375 62.3125 
Q 48.875 64.0625 45.09375 64.984375 
Q 41.3125 65.921875 37.59375 65.921875 
Q 27.828125 65.921875 22.671875 59.328125 
Q 17.53125 52.734375 16.796875 39.40625 
Q 19.671875 43.65625 24.015625 45.921875 
Q 28.375 48.1875 33.59375 48.1875 
Q 44.578125 48.1875 50.953125 41.515625 
Q 57.328125 34.859375 57.328125 23.390625 
Q 57.328125 12.15625 50.6875 5.359375 
Q 44.046875 -1.421875 33.015625 -1.421875 
Q 20.359375 -1.421875 13.671875 8.265625 
Q 6.984375 17.96875 6.984375 36.375 
Q 6.984375 53.65625 15.1875 63.9375 
Q 23.390625 74.21875 37.203125 74.21875 
Q 40.921875 74.21875 44.703125 73.484375 
Q 48.484375 72.75 52.59375 71.296875 
z
" id="DejaVuSans-36"/>
      </defs>
      <g transform="translate(389.481174 322.182437)scale(0.1 -0.1)">
       <use xlink:href="#DejaVuSans-36"/>
       <use x="63.623047" xlink:href="#DejaVuSans-30"/>
       <use x="127.246094" xlink:href="#DejaVuSans-30"/>
      </g>
     </g>
    </g>
    <g id="text_8">
     <!-- t(s) -->
     <defs>
      <path d="M 18.3125 70.21875 
L 18.3125 54.6875 
L 36.8125 54.6875 
L 36.8125 47.703125 
L 18.3125 47.703125 
L 18.3125 18.015625 
Q 18.3125 11.328125 20.140625 9.421875 
Q 21.96875 7.515625 27.59375 7.515625 
L 36.8125 7.515625 
L 36.8125 0 
L 27.59375 0 
Q 17.1875 0 13.234375 3.875 
Q 9.28125 7.765625 9.28125 18.015625 
L 9.28125 47.703125 
L 2.6875 47.703125 
L 2.6875 54.6875 
L 9.28125 54.6875 
L 9.28125 70.21875 
z
" id="DejaVuSans-74"/>
      <path d="M 31 75.875 
Q 24.46875 64.65625 21.28125 53.65625 
Q 18.109375 42.671875 18.109375 31.390625 
Q 18.109375 20.125 21.3125 9.0625 
Q 24.515625 -2 31 -13.1875 
L 23.1875 -13.1875 
Q 15.875 -1.703125 12.234375 9.375 
Q 8.59375 20.453125 8.59375 31.390625 
Q 8.59375 42.28125 12.203125 53.3125 
Q 15.828125 64.359375 23.1875 75.875 
z
" id="DejaVuSans-28"/>
      <path d="M 44.28125 53.078125 
L 44.28125 44.578125 
Q 40.484375 46.53125 36.375 47.5 
Q 32.28125 48.484375 27.875 48.484375 
Q 21.1875 48.484375 17.84375 46.4375 
Q 14.5 44.390625 14.5 40.28125 
Q 14.5 37.15625 16.890625 35.375 
Q 19.28125 33.59375 26.515625 31.984375 
L 29.59375 31.296875 
Q 39.15625 29.25 43.1875 25.515625 
Q 47.21875 21.78125 47.21875 15.09375 
Q 47.21875 7.46875 41.1875 3.015625 
Q 35.15625 -1.421875 24.609375 -1.421875 
Q 20.21875 -1.421875 15.453125 -0.5625 
Q 10.6875 0.296875 5.421875 2 
L 5.421875 11.28125 
Q 10.40625 8.6875 15.234375 7.390625 
Q 20.0625 6.109375 24.8125 6.109375 
Q 31.15625 6.109375 34.5625 8.28125 
Q 37.984375 10.453125 37.984375 14.40625 
Q 37.984375 18.0625 35.515625 20.015625 
Q 33.0625 21.96875 24.703125 23.78125 
L 21.578125 24.515625 
Q 13.234375 26.265625 9.515625 29.90625 
Q 5.8125 33.546875 5.8125 39.890625 
Q 5.8125 47.609375 11.28125 51.796875 
Q 16.75 56 26.8125 56 
Q 31.78125 56 36.171875 55.265625 
Q 40.578125 54.546875 44.28125 53.078125 
z
" id="DejaVuSans-73"/>
      <path d="M 8.015625 75.875 
L 15.828125 75.875 
Q 23.140625 64.359375 26.78125 53.3125 
Q 30.421875 42.28125 30.421875 31.390625 
Q 30.421875 20.453125 26.78125 9.375 
Q 23.140625 -1.703125 15.828125 -13.1875 
L 8.015625 -13.1875 
Q 14.5 -2 17.703125 9.0625 
Q 20.90625 20.125 20.90625 31.390625 
Q 20.90625 42.671875 17.703125 53.65625 
Q 14.5 64.65625 8.015625 75.875 
z
" id="DejaVuSans-29"/>
     </defs>
     <g transform="translate(227.693594 335.860562)scale(0.1 -0.1)">
      <use xlink:href="#DejaVuSans-74"/>
      <use x="39.208984" xlink:href="#DejaVuSans-28"/>
      <use x="78.222656" xlink:href="#DejaVuSans-73"/>
      <use x="130.322266" xlink:href="#DejaVuSans-29"/>
     </g>
    </g>
   </g>
   <g id="matplotlib.axis_2">
    <g id="ytick_1">
     <g id="line2d_8">
      <defs>
       <path d="M 0 0 
L -3.5 0 
" id="m23e6067b6d" style="stroke:#000000;stroke-width:0.8;"/>
      </defs>
      <g>
       <use style="stroke:#000000;stroke-width:0.8;" x="57.6" xlink:href="#m23e6067b6d" y="287.029703"/>
      </g>
     </g>
     <g id="text_9">
      <!-- 4.35 -->
      <defs>
       <path d="M 10.6875 12.40625 
L 21 12.40625 
L 21 0 
L 10.6875 0 
z
" id="DejaVuSans-2e"/>
      </defs>
      <g transform="translate(28.334375 290.828922)scale(0.1 -0.1)">
       <use xlink:href="#DejaVuSans-34"/>
       <use x="63.623047" xlink:href="#DejaVuSans-2e"/>
       <use x="95.410156" xlink:href="#DejaVuSans-33"/>
       <use x="159.033203" xlink:href="#DejaVuSans-35"/>
      </g>
     </g>
    </g>
    <g id="ytick_2">
     <g id="line2d_9">
      <g>
       <use style="stroke:#000000;stroke-width:0.8;" x="57.6" xlink:href="#m23e6067b6d" y="255.231596"/>
      </g>
     </g>
     <g id="text_10">
      <!-- 4.40 -->
      <g transform="translate(28.334375 259.030815)scale(0.1 -0.1)">
       <use xlink:href="#DejaVuSans-34"/>
       <use x="63.623047" xlink:href="#DejaVuSans-2e"/>
       <use x="95.410156" xlink:href="#DejaVuSans-34"/>
       <use x="159.033203" xlink:href="#DejaVuSans-30"/>
      </g>
     </g>
    </g>
    <g id="ytick_3">
     <g id="line2d_10">
      <g>
       <use style="stroke:#000000;stroke-width:0.8;" x="57.6" xlink:href="#m23e6067b6d" y="223.433489"/>
      </g>
     </g>
     <g id="text_11">
      <!-- 4.45 -->
      <g transform="translate(28.334375 227.232708)scale(0.1 -0.1)">
       <use xlink:href="#DejaVuSans-34"/>
       <use x="63.623047" xlink:href="#DejaVuSans-2e"/>
       <use x="95.410156" xlink:href="#DejaVuSans-34"/>
       <use x="159.033203" xlink:href="#DejaVuSans-35"/>
      </g>
     </g>
    </g>
    <g id="ytick_4">
     <g id="line2d_11">
      <g>
       <use style="stroke:#000000;stroke-width:0.8;" x="57.6" xlink:href="#m23e6067b6d" y="191.635382"/>
      </g>
     </g>
     <g id="text_12">
      <!-- 4.50 -->
      <g transform="translate(28.334375 195.4346)scale(0.1 -0.1)">
       <use xlink:href="#DejaVuSans-34"/>
       <use x="63.623047" xlink:href="#DejaVuSans-2e"/>
       <use x="95.410156" xlink:href="#DejaVuSans-35"/>
       <use x="159.033203" xlink:href="#DejaVuSans-30"/>
      </g>
     </g>
    </g>
    <g id="ytick_5">
     <g id="line2d_12">
      <g>
       <use style="stroke:#000000;stroke-width:0.8;" x="57.6" xlink:href="#m23e6067b6d" y="159.837274"/>
      </g>
     </g>
     <g id="text_13">
      <!-- 4.55 -->
      <g transform="translate(28.334375 163.636493)scale(0.1 -0.1)">
       <use xlink:href="#DejaVuSans-34"/>
       <use x="63.623047" xlink:href="#DejaVuSans-2e"/>
       <use x="95.410156" xlink:href="#DejaVuSans-35"/>
       <use x="159.033203" xlink:href="#DejaVuSans-35"/>
      </g>
     </g>
    </g>
    <g id="ytick_6">
     <g id="line2d_13">
      <g>
       <use style="stroke:#000000;stroke-width:0.8;" x="57.6" xlink:href="#m23e6067b6d" y="128.039167"/>
      </g>
     </g>
     <g id="text_14">
      <!-- 4.60 -->
      <g transform="translate(28.334375 131.838386)scale(0.1 -0.1)">
       <use xlink:href="#DejaVuSans-34"/>
       <use x="63.623047" xlink:href="#DejaVuSans-2e"/>
       <use x="95.410156" xlink:href="#DejaVuSans-36"/>
       <use x="159.033203" xlink:href="#DejaVuSans-30"/>
      </g>
     </g>
    </g>
    <g id="ytick_7">
     <g id="line2d_14">
      <g>
       <use style="stroke:#000000;stroke-width:0.8;" x="57.6" xlink:href="#m23e6067b6d" y="96.24106"/>
      </g>
     </g>
     <g id="text_15">
      <!-- 4.65 -->
      <g transform="translate(28.334375 100.040279)scale(0.1 -0.1)">
       <use xlink:href="#DejaVuSans-34"/>
       <use x="63.623047" xlink:href="#DejaVuSans-2e"/>
       <use x="95.410156" xlink:href="#DejaVuSans-36"/>
       <use x="159.033203" xlink:href="#DejaVuSans-35"/>
      </g>
     </g>
    </g>
    <g id="ytick_8">
     <g id="line2d_15">
      <g>
       <use style="stroke:#000000;stroke-width:0.8;" x="57.6" xlink:href="#m23e6067b6d" y="64.442953"/>
      </g>
     </g>
     <g id="text_16">
      <!-- 4.70 -->
      <defs>
       <path d="M 8.203125 72.90625 
L 55.078125 72.90625 
L 55.078125 68.703125 
L 28.609375 0 
L 18.3125 0 
L 43.21875 64.59375 
L 8.203125 64.59375 
z
" id="DejaVuSans-37"/>
      </defs>
      <g transform="translate(28.334375 68.242171)scale(0.1 -0.1)">
       <use xlink:href="#DejaVuSans-34"/>
       <use x="63.623047" xlink:href="#DejaVuSans-2e"/>
       <use x="95.410156" xlink:href="#DejaVuSans-37"/>
       <use x="159.033203" xlink:href="#DejaVuSans-30"/>
      </g>
     </g>
    </g>
    <g id="text_17">
     <!-- Current (nA) -->
     <defs>
      <path d="M 64.40625 67.28125 
L 64.40625 56.890625 
Q 59.421875 61.53125 53.78125 63.8125 
Q 48.140625 66.109375 41.796875 66.109375 
Q 29.296875 66.109375 22.65625 58.46875 
Q 16.015625 50.828125 16.015625 36.375 
Q 16.015625 21.96875 22.65625 14.328125 
Q 29.296875 6.6875 41.796875 6.6875 
Q 48.140625 6.6875 53.78125 8.984375 
Q 59.421875 11.28125 64.40625 15.921875 
L 64.40625 5.609375 
Q 59.234375 2.09375 53.4375 0.328125 
Q 47.65625 -1.421875 41.21875 -1.421875 
Q 24.65625 -1.421875 15.125 8.703125 
Q 5.609375 18.84375 5.609375 36.375 
Q 5.609375 53.953125 15.125 64.078125 
Q 24.65625 74.21875 41.21875 74.21875 
Q 47.75 74.21875 53.53125 72.484375 
Q 59.328125 70.75 64.40625 67.28125 
z
" id="DejaVuSans-43"/>
      <path d="M 8.5 21.578125 
L 8.5 54.6875 
L 17.484375 54.6875 
L 17.484375 21.921875 
Q 17.484375 14.15625 20.5 10.265625 
Q 23.53125 6.390625 29.59375 6.390625 
Q 36.859375 6.390625 41.078125 11.03125 
Q 45.3125 15.671875 45.3125 23.6875 
L 45.3125 54.6875 
L 54.296875 54.6875 
L 54.296875 0 
L 45.3125 0 
L 45.3125 8.40625 
Q 42.046875 3.421875 37.71875 1 
Q 33.40625 -1.421875 27.6875 -1.421875 
Q 18.265625 -1.421875 13.375 4.4375 
Q 8.5 10.296875 8.5 21.578125 
z
M 31.109375 56 
z
" id="DejaVuSans-75"/>
      <path d="M 41.109375 46.296875 
Q 39.59375 47.171875 37.8125 47.578125 
Q 36.03125 48 33.890625 48 
Q 26.265625 48 22.1875 43.046875 
Q 18.109375 38.09375 18.109375 28.8125 
L 18.109375 0 
L 9.078125 0 
L 9.078125 54.6875 
L 18.109375 54.6875 
L 18.109375 46.1875 
Q 20.953125 51.171875 25.484375 53.578125 
Q 30.03125 56 36.53125 56 
Q 37.453125 56 38.578125 55.875 
Q 39.703125 55.765625 41.0625 55.515625 
z
" id="DejaVuSans-72"/>
      <path d="M 56.203125 29.59375 
L 56.203125 25.203125 
L 14.890625 25.203125 
Q 15.484375 15.921875 20.484375 11.0625 
Q 25.484375 6.203125 34.421875 6.203125 
Q 39.59375 6.203125 44.453125 7.46875 
Q 49.3125 8.734375 54.109375 11.28125 
L 54.109375 2.78125 
Q 49.265625 0.734375 44.1875 -0.34375 
Q 39.109375 -1.421875 33.890625 -1.421875 
Q 20.796875 -1.421875 13.15625 6.1875 
Q 5.515625 13.8125 5.515625 26.8125 
Q 5.515625 40.234375 12.765625 48.109375 
Q 20.015625 56 32.328125 56 
Q 43.359375 56 49.78125 48.890625 
Q 56.203125 41.796875 56.203125 29.59375 
z
M 47.21875 32.234375 
Q 47.125 39.59375 43.09375 43.984375 
Q 39.0625 48.390625 32.421875 48.390625 
Q 24.90625 48.390625 20.390625 44.140625 
Q 15.875 39.890625 15.1875 32.171875 
z
" id="DejaVuSans-65"/>
      <path d="M 54.890625 33.015625 
L 54.890625 0 
L 45.90625 0 
L 45.90625 32.71875 
Q 45.90625 40.484375 42.875 44.328125 
Q 39.84375 48.1875 33.796875 48.1875 
Q 26.515625 48.1875 22.3125 43.546875 
Q 18.109375 38.921875 18.109375 30.90625 
L 18.109375 0 
L 9.078125 0 
L 9.078125 54.6875 
L 18.109375 54.6875 
L 18.109375 46.1875 
Q 21.34375 51.125 25.703125 53.5625 
Q 30.078125 56 35.796875 56 
Q 45.21875 56 50.046875 50.171875 
Q 54.890625 44.34375 54.890625 33.015625 
z
" id="DejaVuSans-6e"/>
      <path id="DejaVuSans-20"/>
      <path d="M 34.1875 63.1875 
L 20.796875 26.90625 
L 47.609375 26.90625 
z
M 28.609375 72.90625 
L 39.796875 72.90625 
L 67.578125 0 
L 57.328125 0 
L 50.6875 18.703125 
L 17.828125 18.703125 
L 11.1875 0 
L 0.78125 0 
z
" id="DejaVuSans-41"/>
     </defs>
     <g transform="translate(22.254687 205.581906)rotate(-90)scale(0.1 -0.1)">
      <use xlink:href="#DejaVuSans-43"/>
      <use x="69.824219" xlink:href="#DejaVuSans-75"/>
      <use x="133.203125" xlink:href="#DejaVuSans-72"/>
      <use x="174.300781" xlink:href="#DejaVuSans-72"/>
      <use x="215.382812" xlink:href="#DejaVuSans-65"/>
      <use x="276.90625" xlink:href="#DejaVuSans-6e"/>
      <use x="340.285156" xlink:href="#DejaVuSans-74"/>
      <use x="379.494141" xlink:href="#DejaVuSans-20"/>
      <use x="411.28125" xlink:href="#DejaVuSans-28"/>
      <use x="450.294922" xlink:href="#DejaVuSans-6e"/>
      <use x="513.673828" xlink:href="#DejaVuSans-41"/>
      <use x="582.082031" xlink:href="#DejaVuSans-29"/>
     </g>
    </g>
   </g>
   <g id="line2d_16">
    <path clip-path="url(#pa490d765fe)" d="M 73.832727 65.269703 
L 74.374714 63.806991 
L 75.459772 66.350839 
L 76.002301 73.791596 
L 76.544288 74.300366 
L 77.086817 64.570145 
L 77.628804 67.68636 
L 78.170791 67.622763 
L 78.712778 58.592101 
L 79.254765 65.714877 
L 79.796752 61.644719 
L 80.338739 63.489009 
L 80.880726 60.436391 
L 81.422713 61.517527 
L 81.9647 57.383773 
L 82.506687 63.425413 
L 83.049216 62.47147 
L 83.591745 56.875003 
L 84.134274 53.568 
L 85.218248 62.217085 
L 85.760235 62.853047 
L 86.302222 60.817968 
L 86.844209 59.736833 
L 87.386196 64.82453 
L 87.928183 67.622763 
L 88.47017 65.587685 
L 89.012699 71.692921 
L 89.554686 65.778473 
L 90.096673 66.923205 
L 90.63866 70.103016 
L 91.180647 70.738978 
L 91.722634 73.155634 
L 92.264621 72.837653 
L 92.806608 75.508694 
L 93.348595 72.964845 
L 93.890582 71.184151 
L 94.432569 75.763079 
L 94.974556 77.352984 
L 95.516543 80.532795 
L 96.05853 81.232353 
L 96.600517 79.76964 
L 97.142504 86.256454 
L 97.684491 82.186297 
L 98.226478 90.326612 
L 98.768465 90.835382 
L 99.310452 88.863899 
L 99.852439 92.298095 
L 100.394426 84.666549 
L 100.936413 92.234498 
L 101.4784 89.627054 
L 102.020387 85.620492 
L 102.562374 91.344151 
L 103.646348 88.291533 
L 104.188335 91.53494 
L 104.730322 93.506423 
L 105.272309 89.054688 
L 105.814296 88.418726 
L 106.356283 91.662132 
L 106.89827 94.078789 
L 107.440257 92.488883 
L 107.982244 94.778347 
L 108.524231 92.679672 
L 109.066218 94.905539 
L 109.608205 93.760808 
L 110.150192 97.258599 
L 110.692179 94.841943 
L 111.234166 93.697211 
L 111.776153 91.471344 
L 112.31814 92.806864 
L 112.860127 92.870461 
L 113.944101 91.153363 
L 114.486088 85.938473 
L 115.028075 78.94289 
L 115.570062 86.82882 
L 116.112049 90.008631 
L 116.654036 85.811281 
L 117.196023 87.973552 
L 117.73801 89.372669 
L 118.279997 79.388063 
L 118.821984 85.238915 
L 119.363971 89.118284 
L 119.905958 81.931912 
L 120.447945 89.245476 
L 120.989932 86.002069 
L 121.531919 93.824404 
L 122.073906 96.74983 
L 122.615893 87.273994 
L 123.15788 97.195003 
L 123.699867 97.322196 
L 124.241854 95.859483 
L 124.783841 95.859483 
L 125.325828 96.24106 
L 125.867815 96.940618 
L 126.409802 101.201565 
L 126.951789 94.142385 
L 127.493776 100.883584 
L 128.57775 99.802448 
L 129.119737 99.802448 
L 129.661724 103.236644 
L 130.203711 105.080934 
L 130.745698 104.890145 
L 131.829672 103.491028 
L 132.371659 102.600681 
L 132.913645 116.40106 
L 133.455632 112.140114 
L 133.997619 112.076517 
L 134.539606 101.710334 
L 135.081593 111.758536 
L 135.62358 119.326486 
L 136.165567 115.574309 
L 136.707554 115.574309 
L 137.249541 119.898852 
L 137.791528 115.955886 
L 138.333515 119.135697 
L 138.875502 119.580871 
L 139.417489 123.523836 
L 139.959476 119.962448 
L 140.501463 119.26289 
L 141.04345 116.90983 
L 142.127424 125.177338 
L 143.211398 115.510713 
L 143.753385 116.528252 
L 144.295372 115.319924 
L 144.837359 127.14882 
L 145.379346 122.697085 
L 145.921333 122.887874 
L 146.46332 122.569893 
L 147.005307 117.227811 
L 147.547294 116.655445 
L 148.089281 121.10718 
L 148.631268 119.708063 
L 149.173255 120.852795 
L 149.715242 127.975571 
L 150.257229 121.806738 
L 150.799216 114.175192 
L 151.341203 116.90983 
L 151.88319 120.789199 
L 152.425177 116.655445 
L 152.967164 117.037022 
L 153.509151 116.90983 
L 154.051138 114.683962 
L 154.593125 117.609388 
L 155.135112 116.719041 
L 155.677099 118.626927 
L 156.219086 119.453678 
L 156.761073 131.409767 
L 157.30306 102.537085 
L 157.845047 107.49759 
L 158.929021 125.431722 
L 159.471008 124.922953 
L 160.012995 107.243205 
L 160.554982 114.365981 
L 161.096969 115.256328 
L 161.638956 119.135697 
L 162.180943 120.153237 
L 162.72293 119.390082 
L 163.264917 123.078662 
L 163.806904 124.541375 
L 164.348891 126.385666 
L 164.890878 128.865918 
L 165.432865 133.381249 
L 165.974852 130.964593 
L 166.516839 134.71677 
L 167.058826 134.653174 
L 167.600813 138.278158 
L 168.1428 138.532543 
L 168.684787 144.065413 
L 169.226774 138.150965 
L 169.768761 141.521565 
L 170.852735 143.62024 
L 171.394722 147.944782 
L 171.936709 145.655319 
L 172.478696 145.46453 
L 173.020683 146.482069 
L 173.56267 147.245224 
L 174.104657 142.284719 
L 174.646644 149.852669 
L 175.188631 142.984278 
L 176.272605 147.753994 
L 176.814592 146.164088 
L 177.356579 142.920681 
L 177.898566 140.75841 
L 178.440553 141.203584 
L 178.98254 139.232101 
L 179.524527 141.012795 
L 180.066514 139.168505 
L 180.608501 142.030334 
L 181.150488 139.42289 
L 181.692475 133.635634 
L 182.234462 132.745287 
L 182.776449 138.596139 
L 183.318436 132.427306 
L 183.860423 134.208 
L 184.40241 142.729893 
L 184.944397 143.365855 
L 185.486384 143.047874 
L 186.028371 141.648757 
L 186.570358 141.966738 
L 187.112345 138.468946 
L 187.654332 138.341754 
L 188.196319 135.034751 
L 188.738306 137.324215 
L 189.280293 139.041312 
L 189.82228 133.826423 
L 190.364267 139.168505 
L 190.906254 136.56106 
L 191.448241 140.822006 
L 191.990228 137.006233 
L 192.532215 135.479924 
L 193.074202 136.243079 
L 193.616189 137.324215 
L 194.158176 144.828568 
L 194.700163 143.493047 
L 195.24215 167.659609 
L 195.784137 159.010524 
L 196.326124 164.861375 
L 196.868111 162.826297 
L 197.410098 165.433741 
L 197.952085 164.924972 
L 198.494072 169.567495 
L 199.036059 163.525855 
L 199.578046 162.889893 
L 200.120033 165.052164 
L 200.66202 164.924972 
L 201.204007 161.109199 
L 201.745994 162.508315 
L 202.287981 162.063142 
L 202.829968 156.784656 
L 203.371955 156.466675 
L 203.913942 155.067558 
L 204.455929 150.234246 
L 204.997916 151.060997 
L 205.539903 149.15311 
L 206.08189 152.01494 
L 206.623877 147.118032 
L 207.165864 147.30882 
L 207.707851 146.036896 
L 208.249838 153.032479 
L 208.791825 156.403079 
L 209.333812 155.894309 
L 209.875799 149.089514 
L 210.417786 152.269325 
L 210.959773 154.113615 
L 211.50176 156.911849 
L 212.043747 157.102637 
L 212.585734 157.547811 
L 213.127721 157.802196 
L 213.669708 160.346044 
L 214.211695 160.282448 
L 214.753682 165.306549 
L 215.295669 164.606991 
L 215.837656 161.808757 
L 216.379643 165.688126 
L 216.92163 167.150839 
L 217.463617 167.850397 
L 218.005604 166.642069 
L 218.547591 167.97759 
L 219.089578 168.295571 
L 219.631565 172.556517 
L 220.173552 173.065287 
L 220.715539 175.799924 
L 221.799513 177.199041 
L 222.3415 176.37229 
L 222.883487 174.591596 
L 223.425474 174.845981 
L 223.967461 176.308694 
L 224.509448 182.986297 
L 225.051435 178.407369 
L 225.593422 178.72535 
L 226.135409 180.696833 
L 226.677396 180.824025 
L 227.219383 177.898599 
L 227.76137 177.771407 
L 228.303357 175.03677 
L 228.845343 181.650776 
L 229.38733 182.986297 
L 229.929317 180.887621 
L 230.471304 186.102511 
L 231.013291 178.21658 
L 231.555278 181.459987 
L 232.097265 180.124467 
L 232.639252 179.615697 
L 233.181239 181.396391 
L 233.723226 179.615697 
L 234.265213 179.488505 
L 234.8072 178.025792 
L 235.349187 177.38983 
L 235.891174 181.142006 
L 236.433161 176.817464 
L 236.975148 179.043331 
L 237.517135 174.591596 
L 238.059122 175.418347 
L 238.601109 178.089388 
L 239.143096 177.835003 
L 239.685083 173.383268 
L 240.22707 172.620114 
L 240.769057 176.817464 
L 241.311044 176.690271 
L 241.853031 174.400808 
L 242.395018 178.21658 
L 242.937005 178.598158 
L 243.478992 178.788946 
L 244.020979 185.466549 
L 244.562966 181.58718 
L 245.64694 186.929262 
L 246.188927 182.9227 
L 246.730914 183.113489 
L 247.272901 184.766991 
L 247.814888 184.703394 
L 248.356875 182.223142 
L 248.898862 185.148568 
L 249.440849 185.021375 
L 249.982836 187.12005 
L 250.524823 188.010397 
L 251.06681 187.62882 
L 251.608797 189.409514 
L 252.692771 192.080555 
L 253.234758 196.468694 
L 253.776745 195.832732 
L 254.318732 196.277905 
L 254.860719 199.712101 
L 255.402706 197.104656 
L 256.48668 204.926991 
L 257.028667 205.94453 
L 257.570654 201.111218 
L 258.112641 203.209893 
L 258.654628 201.047621 
L 259.196615 208.170397 
L 259.738602 201.302006 
L 260.280589 202.510334 
L 261.364563 199.584909 
L 261.90655 201.111218 
L 262.448537 200.793237 
L 262.990524 197.804215 
L 263.532511 196.405098 
L 264.074498 200.856833 
L 264.616485 194.878789 
L 265.158472 200.284467 
L 265.700459 199.712101 
L 266.242446 194.815192 
L 266.784433 198.122196 
L 267.32642 197.486233 
L 267.868407 204.481817 
L 268.952381 200.411659 
L 269.494368 203.0827 
L 270.036355 203.59147 
L 270.578342 208.869956 
L 271.120329 208.106801 
L 271.662316 214.402826 
L 272.204303 213.894057 
L 272.74629 213.766864 
L 273.288277 212.622132 
L 274.372251 209.251533 
L 274.914238 207.598032 
L 275.456225 207.28005 
L 275.998212 206.326107 
L 276.540199 206.707685 
L 277.082186 202.383142 
L 277.624173 206.834877 
L 278.16616 202.319546 
L 278.708147 201.174814 
L 279.250134 204.036644 
L 279.792121 201.874372 
L 280.334108 206.516896 
L 280.876095 208.679167 
L 281.418082 206.707685 
L 281.960069 210.777842 
L 282.502056 206.071722 
L 283.044043 204.990587 
L 283.58603 207.725224 
L 284.128017 215.992732 
L 284.670004 210.269073 
L 285.211991 207.725224 
L 285.753978 214.084845 
L 286.295965 211.15942 
L 286.837952 215.865539 
L 287.379939 216.819483 
L 287.921926 209.124341 
L 289.0059 214.33923 
L 289.547887 215.865539 
L 290.089874 215.738347 
L 290.631861 212.749325 
L 291.173848 215.801943 
L 291.715835 217.70983 
L 292.257822 214.148442 
L 292.799809 211.413804 
L 293.883783 214.720808 
L 294.42577 211.98617 
L 294.967757 212.876517 
L 295.509744 213.194498 
L 296.051731 215.992732 
L 296.593718 215.293174 
L 297.135705 213.639672 
L 297.677692 210.14188 
L 298.219679 211.858978 
L 298.761666 216.119924 
L 299.303653 215.293174 
L 299.84564 215.929136 
L 300.387627 217.582637 
L 300.929614 218.790965 
L 301.471601 218.918158 
L 302.013588 221.90718 
L 302.555575 221.525603 
L 303.097562 222.097968 
L 303.639549 231.255823 
L 304.181536 221.652795 
L 305.26551 226.295319 
L 305.807497 225.023394 
L 306.349484 226.231722 
L 306.891471 224.133047 
L 307.433458 225.59576 
L 307.975445 225.977338 
L 308.517432 226.6133 
L 309.059419 227.821628 
L 309.601406 227.503647 
L 310.143393 230.30188 
L 310.68538 229.029956 
L 311.227367 230.429073 
L 311.769354 231.31942 
L 312.311341 230.683457 
L 312.853328 234.372038 
L 313.395315 231.192227 
L 313.937302 235.51677 
L 314.479289 237.043079 
L 315.021276 241.55841 
L 315.563263 244.865413 
L 316.10525 244.929009 
L 316.647237 242.830334 
L 317.189224 243.847874 
L 317.731211 250.398284 
L 318.273198 247.027685 
L 318.815185 242.639546 
L 319.357172 242.385161 
L 319.899159 240.858852 
L 320.441146 237.297464 
L 320.983133 241.304025 
L 321.52512 241.240429 
L 322.067107 240.795256 
L 322.609094 238.823773 
L 323.151081 240.604467 
L 323.693068 238.632984 
L 324.235055 239.078158 
L 324.777041 238.69658 
L 325.319028 236.979483 
L 325.861015 239.014562 
L 326.403002 240.286486 
L 326.944989 238.569388 
L 327.486976 238.887369 
L 328.028963 239.968505 
L 328.57095 237.233868 
L 329.112937 240.795256 
L 329.654924 238.251407 
L 330.196911 242.830334 
L 331.280885 237.424656 
L 331.822872 239.777716 
L 332.364859 236.979483 
L 332.906846 239.459735 
L 333.448833 235.707558 
L 333.99082 233.736076 
L 334.532807 238.950965 
L 335.074794 236.152732 
L 335.616781 243.593489 
L 336.158768 239.20535 
L 336.700755 246.518915 
L 337.242742 233.799672 
L 337.784729 247.154877 
L 338.326716 245.310587 
L 338.868703 248.61759 
L 339.41069 244.611028 
L 339.952677 246.073741 
L 340.494664 253.32371 
L 341.036651 249.762322 
L 341.578638 256.058347 
L 342.120625 255.040808 
L 342.662612 256.058347 
L 343.204599 257.457464 
L 343.746586 264.643836 
L 344.288573 256.885098 
L 344.83056 259.87412 
L 345.372547 253.896076 
L 345.914534 255.549577 
L 346.456521 255.549577 
L 346.998508 257.457464 
L 347.540495 254.468442 
L 348.082482 254.086864 
L 348.624469 253.260114 
L 349.166456 254.850019 
L 349.708443 254.214057 
L 350.25043 258.02983 
L 350.792417 257.075886 
L 351.334404 252.687748 
L 351.876391 254.722826 
L 352.418378 254.404845 
L 352.960365 253.705287 
L 353.502352 252.624151 
L 354.044339 255.67677 
L 354.586326 255.295192 
L 355.128313 255.803962 
L 355.6703 257.01229 
L 356.212287 261.336833 
L 356.754274 259.556139 
L 357.296261 254.786423 
L 357.838248 257.01229 
L 358.380235 258.347811 
L 358.922222 259.36535 
L 359.464209 257.711849 
L 360.006196 259.36535 
L 360.548183 254.214057 
L 361.09017 256.503521 
L 361.632157 258.220618 
L 362.174144 259.36535 
L 362.716131 256.121943 
L 363.258118 253.705287 
L 363.800105 254.023268 
L 364.342092 265.343394 
L 364.884079 259.746927 
L 365.426066 259.87412 
L 365.968053 256.694309 
L 366.51004 257.584656 
L 367.594014 266.42453 
L 368.136001 262.354372 
L 368.677988 264.707432 
L 369.761962 261.782006 
L 370.303949 265.724972 
L 370.845936 266.869703 
L 371.387923 265.91576 
L 371.92991 266.551722 
L 372.471897 265.91576 
L 373.013884 267.251281 
L 373.555871 266.297338 
L 374.097858 268.141628 
L 374.639845 266.488126 
L 375.181832 270.62188 
L 375.723819 267.187685 
L 376.265806 271.13065 
L 376.807793 268.586801 
L 377.34978 270.558284 
L 377.891767 269.413552 
L 378.433754 270.558284 
L 378.975741 270.812669 
L 379.517728 271.321438 
L 380.059715 270.876265 
L 380.601702 272.338978 
L 381.143689 266.742511 
L 381.685676 268.841186 
L 382.227663 269.222763 
L 382.76965 270.240303 
L 383.311637 273.48371 
L 383.853624 273.865287 
L 384.395611 275.83677 
L 384.937598 276.599924 
L 385.479585 275.328 
L 386.021572 276.599924 
L 386.563559 276.091155 
L 387.105546 280.03412 
L 387.647533 282.259987 
L 388.18952 282.196391 
L 388.731507 283.659104 
L 389.273494 281.242448 
L 389.815481 283.531912 
L 390.357468 282.832353 
L 390.899455 282.38718 
L 391.441442 284.295066 
L 391.983429 284.549451 
L 392.525416 291.354246 
L 393.067403 286.902511 
L 394.151377 295.488 
L 394.693364 295.424404 
L 395.235351 292.562574 
L 395.777338 286.202953 
L 396.319325 289.573552 
L 396.861312 290.082322 
L 397.403299 291.099861 
L 398.487273 286.393741 
L 398.487273 286.393741 
" style="fill:none;stroke:#1f77b4;stroke-linecap:square;stroke-width:1.5;"/>
   </g>
   <g id="patch_3">
    <path d="M 57.6 307.584 
L 57.6 41.472 
" style="fill:none;stroke:#000000;stroke-linecap:square;stroke-linejoin:miter;stroke-width:0.8;"/>
   </g>
   <g id="patch_4">
    <path d="M 414.72 307.584 
L 414.72 41.472 
" style="fill:none;stroke:#000000;stroke-linecap:square;stroke-linejoin:miter;stroke-width:0.8;"/>
   </g>
   <g id="patch_5">
    <path d="M 57.6 307.584 
L 414.72 307.584 
" style="fill:none;stroke:#000000;stroke-linecap:square;stroke-linejoin:miter;stroke-width:0.8;"/>
   </g>
   <g id="patch_6">
    <path d="M 57.6 41.472 
L 414.72 41.472 
" style="fill:none;stroke:#000000;stroke-linecap:square;stroke-linejoin:miter;stroke-width:0.8;"/>
   </g>
   <g id="text_18">
    <!-- Current with source voltage 100.0 mV -->
    <defs>
     <path d="M 4.203125 54.6875 
L 13.1875 54.6875 
L 24.421875 12.015625 
L 35.59375 54.6875 
L 46.1875 54.6875 
L 57.421875 12.015625 
L 68.609375 54.6875 
L 77.59375 54.6875 
L 63.28125 0 
L 52.6875 0 
L 40.921875 44.828125 
L 29.109375 0 
L 18.5 0 
z
" id="DejaVuSans-77"/>
     <path d="M 9.421875 54.6875 
L 18.40625 54.6875 
L 18.40625 0 
L 9.421875 0 
z
M 9.421875 75.984375 
L 18.40625 75.984375 
L 18.40625 64.59375 
L 9.421875 64.59375 
z
" id="DejaVuSans-69"/>
     <path d="M 54.890625 33.015625 
L 54.890625 0 
L 45.90625 0 
L 45.90625 32.71875 
Q 45.90625 40.484375 42.875 44.328125 
Q 39.84375 48.1875 33.796875 48.1875 
Q 26.515625 48.1875 22.3125 43.546875 
Q 18.109375 38.921875 18.109375 30.90625 
L 18.109375 0 
L 9.078125 0 
L 9.078125 75.984375 
L 18.109375 75.984375 
L 18.109375 46.1875 
Q 21.34375 51.125 25.703125 53.5625 
Q 30.078125 56 35.796875 56 
Q 45.21875 56 50.046875 50.171875 
Q 54.890625 44.34375 54.890625 33.015625 
z
" id="DejaVuSans-68"/>
     <path d="M 30.609375 48.390625 
Q 23.390625 48.390625 19.1875 42.75 
Q 14.984375 37.109375 14.984375 27.296875 
Q 14.984375 17.484375 19.15625 11.84375 
Q 23.34375 6.203125 30.609375 6.203125 
Q 37.796875 6.203125 41.984375 11.859375 
Q 46.1875 17.53125 46.1875 27.296875 
Q 46.1875 37.015625 41.984375 42.703125 
Q 37.796875 48.390625 30.609375 48.390625 
z
M 30.609375 56 
Q 42.328125 56 49.015625 48.375 
Q 55.71875 40.765625 55.71875 27.296875 
Q 55.71875 13.875 49.015625 6.21875 
Q 42.328125 -1.421875 30.609375 -1.421875 
Q 18.84375 -1.421875 12.171875 6.21875 
Q 5.515625 13.875 5.515625 27.296875 
Q 5.515625 40.765625 12.171875 48.375 
Q 18.84375 56 30.609375 56 
z
" id="DejaVuSans-6f"/>
     <path d="M 48.78125 52.59375 
L 48.78125 44.1875 
Q 44.96875 46.296875 41.140625 47.34375 
Q 37.3125 48.390625 33.40625 48.390625 
Q 24.65625 48.390625 19.8125 42.84375 
Q 14.984375 37.3125 14.984375 27.296875 
Q 14.984375 17.28125 19.8125 11.734375 
Q 24.65625 6.203125 33.40625 6.203125 
Q 37.3125 6.203125 41.140625 7.25 
Q 44.96875 8.296875 48.78125 10.40625 
L 48.78125 2.09375 
Q 45.015625 0.34375 40.984375 -0.53125 
Q 36.96875 -1.421875 32.421875 -1.421875 
Q 20.0625 -1.421875 12.78125 6.34375 
Q 5.515625 14.109375 5.515625 27.296875 
Q 5.515625 40.671875 12.859375 48.328125 
Q 20.21875 56 33.015625 56 
Q 37.15625 56 41.109375 55.140625 
Q 45.0625 54.296875 48.78125 52.59375 
z
" id="DejaVuSans-63"/>
     <path d="M 2.984375 54.6875 
L 12.5 54.6875 
L 29.59375 8.796875 
L 46.6875 54.6875 
L 56.203125 54.6875 
L 35.6875 0 
L 23.484375 0 
z
" id="DejaVuSans-76"/>
     <path d="M 9.421875 75.984375 
L 18.40625 75.984375 
L 18.40625 0 
L 9.421875 0 
z
" id="DejaVuSans-6c"/>
     <path d="M 34.28125 27.484375 
Q 23.390625 27.484375 19.1875 25 
Q 14.984375 22.515625 14.984375 16.5 
Q 14.984375 11.71875 18.140625 8.90625 
Q 21.296875 6.109375 26.703125 6.109375 
Q 34.1875 6.109375 38.703125 11.40625 
Q 43.21875 16.703125 43.21875 25.484375 
L 43.21875 27.484375 
z
M 52.203125 31.203125 
L 52.203125 0 
L 43.21875 0 
L 43.21875 8.296875 
Q 40.140625 3.328125 35.546875 0.953125 
Q 30.953125 -1.421875 24.3125 -1.421875 
Q 15.921875 -1.421875 10.953125 3.296875 
Q 6 8.015625 6 15.921875 
Q 6 25.140625 12.171875 29.828125 
Q 18.359375 34.515625 30.609375 34.515625 
L 43.21875 34.515625 
L 43.21875 35.40625 
Q 43.21875 41.609375 39.140625 45 
Q 35.0625 48.390625 27.6875 48.390625 
Q 23 48.390625 18.546875 47.265625 
Q 14.109375 46.140625 10.015625 43.890625 
L 10.015625 52.203125 
Q 14.9375 54.109375 19.578125 55.046875 
Q 24.21875 56 28.609375 56 
Q 40.484375 56 46.34375 49.84375 
Q 52.203125 43.703125 52.203125 31.203125 
z
" id="DejaVuSans-61"/>
     <path d="M 45.40625 27.984375 
Q 45.40625 37.75 41.375 43.109375 
Q 37.359375 48.484375 30.078125 48.484375 
Q 22.859375 48.484375 18.828125 43.109375 
Q 14.796875 37.75 14.796875 27.984375 
Q 14.796875 18.265625 18.828125 12.890625 
Q 22.859375 7.515625 30.078125 7.515625 
Q 37.359375 7.515625 41.375 12.890625 
Q 45.40625 18.265625 45.40625 27.984375 
z
M 54.390625 6.78125 
Q 54.390625 -7.171875 48.1875 -13.984375 
Q 42 -20.796875 29.203125 -20.796875 
Q 24.46875 -20.796875 20.265625 -20.09375 
Q 16.0625 -19.390625 12.109375 -17.921875 
L 12.109375 -9.1875 
Q 16.0625 -11.328125 19.921875 -12.34375 
Q 23.78125 -13.375 27.78125 -13.375 
Q 36.625 -13.375 41.015625 -8.765625 
Q 45.40625 -4.15625 45.40625 5.171875 
L 45.40625 9.625 
Q 42.625 4.78125 38.28125 2.390625 
Q 33.9375 0 27.875 0 
Q 17.828125 0 11.671875 7.65625 
Q 5.515625 15.328125 5.515625 27.984375 
Q 5.515625 40.671875 11.671875 48.328125 
Q 17.828125 56 27.875 56 
Q 33.9375 56 38.28125 53.609375 
Q 42.625 51.21875 45.40625 46.390625 
L 45.40625 54.6875 
L 54.390625 54.6875 
z
" id="DejaVuSans-67"/>
     <path d="M 52 44.1875 
Q 55.375 50.25 60.0625 53.125 
Q 64.75 56 71.09375 56 
Q 79.640625 56 84.28125 50.015625 
Q 88.921875 44.046875 88.921875 33.015625 
L 88.921875 0 
L 79.890625 0 
L 79.890625 32.71875 
Q 79.890625 40.578125 77.09375 44.375 
Q 74.3125 48.1875 68.609375 48.1875 
Q 61.625 48.1875 57.5625 43.546875 
Q 53.515625 38.921875 53.515625 30.90625 
L 53.515625 0 
L 44.484375 0 
L 44.484375 32.71875 
Q 44.484375 40.625 41.703125 44.40625 
Q 38.921875 48.1875 33.109375 48.1875 
Q 26.21875 48.1875 22.15625 43.53125 
Q 18.109375 38.875 18.109375 30.90625 
L 18.109375 0 
L 9.078125 0 
L 9.078125 54.6875 
L 18.109375 54.6875 
L 18.109375 46.1875 
Q 21.1875 51.21875 25.484375 53.609375 
Q 29.78125 56 35.6875 56 
Q 41.65625 56 45.828125 52.96875 
Q 50 49.953125 52 44.1875 
z
" id="DejaVuSans-6d"/>
     <path d="M 28.609375 0 
L 0.78125 72.90625 
L 11.078125 72.90625 
L 34.1875 11.53125 
L 57.328125 72.90625 
L 67.578125 72.90625 
L 39.796875 0 
z
" id="DejaVuSans-56"/>
    </defs>
    <g transform="translate(121.528125 35.472)scale(0.12 -0.12)">
     <use xlink:href="#DejaVuSans-43"/>
     <use x="69.824219" xlink:href="#DejaVuSans-75"/>
     <use x="133.203125" xlink:href="#DejaVuSans-72"/>
     <use x="174.300781" xlink:href="#DejaVuSans-72"/>
     <use x="215.382812" xlink:href="#DejaVuSans-65"/>
     <use x="276.90625" xlink:href="#DejaVuSans-6e"/>
     <use x="340.285156" xlink:href="#DejaVuSans-74"/>
     <use x="379.494141" xlink:href="#DejaVuSans-20"/>
     <use x="411.28125" xlink:href="#DejaVuSans-77"/>
     <use x="493.068359" xlink:href="#DejaVuSans-69"/>
     <use x="520.851562" xlink:href="#DejaVuSans-74"/>
     <use x="560.060547" xlink:href="#DejaVuSans-68"/>
     <use x="623.439453" xlink:href="#DejaVuSans-20"/>
     <use x="655.226562" xlink:href="#DejaVuSans-73"/>
     <use x="707.326172" xlink:href="#DejaVuSans-6f"/>
     <use x="768.507812" xlink:href="#DejaVuSans-75"/>
     <use x="831.886719" xlink:href="#DejaVuSans-72"/>
     <use x="872.96875" xlink:href="#DejaVuSans-63"/>
     <use x="927.949219" xlink:href="#DejaVuSans-65"/>
     <use x="989.472656" xlink:href="#DejaVuSans-20"/>
     <use x="1021.259766" xlink:href="#DejaVuSans-76"/>
     <use x="1080.439453" xlink:href="#DejaVuSans-6f"/>
     <use x="1141.621094" xlink:href="#DejaVuSans-6c"/>
     <use x="1169.404297" xlink:href="#DejaVuSans-74"/>
     <use x="1208.613281" xlink:href="#DejaVuSans-61"/>
     <use x="1269.892578" xlink:href="#DejaVuSans-67"/>
     <use x="1333.369141" xlink:href="#DejaVuSans-65"/>
     <use x="1394.892578" xlink:href="#DejaVuSans-20"/>
     <use x="1426.679688" xlink:href="#DejaVuSans-31"/>
     <use x="1490.302734" xlink:href="#DejaVuSans-30"/>
     <use x="1553.925781" xlink:href="#DejaVuSans-30"/>
     <use x="1617.548828" xlink:href="#DejaVuSans-2e"/>
     <use x="1649.335938" xlink:href="#DejaVuSans-30"/>
     <use x="1712.958984" xlink:href="#DejaVuSans-20"/>
     <use x="1744.746094" xlink:href="#DejaVuSans-6d"/>
     <use x="1842.158203" xlink:href="#DejaVuSans-56"/>
    </g>
   </g>
  </g>
 </g>
 <defs>
  <clipPath id="pa490d765fe">
   <rect height="266.112" width="357.12" x="57.6" y="41.472"/>
  </clipPath>
 </defs>
</svg>
