<?xml version="1.0" encoding="utf-8" standalone="no"?>
<!DOCTYPE svg PUBLIC "-//W3C//DTD SVG 1.1//EN"
  "http://www.w3.org/Graphics/SVG/1.1/DTD/svg11.dtd">
<!-- Created with matplotlib (http://matplotlib.org/) -->
<svg height="345pt" version="1.1" viewBox="0 0 460 345" width="460pt" xmlns="http://www.w3.org/2000/svg" xmlns:xlink="http://www.w3.org/1999/xlink">
 <defs>
  <style type="text/css">
*{stroke-linecap:butt;stroke-linejoin:round;}
  </style>
 </defs>
 <g id="figure_1">
  <g id="patch_1">
   <path d="M 0 345.6 
L 460.8 345.6 
L 460.8 0 
L 0 0 
z
" style="fill:#ffffff;"/>
  </g>
  <g id="axes_1">
   <g id="patch_2">
    <path d="M 57.6 307.584 
L 414.72 307.584 
L 414.72 41.472 
L 57.6 41.472 
z
" style="fill:#ffffff;"/>
   </g>
   <g id="matplotlib.axis_1">
    <g id="xtick_1">
     <g id="line2d_1">
      <path clip-path="url(#pb44a2b487d)" d="M 57.6 307.584 
L 57.6 41.472 
" style="fill:none;stroke:#b0b0b0;stroke-linecap:square;stroke-width:0.8;"/>
     </g>
     <g id="line2d_2">
      <defs>
       <path d="M 0 0 
L 0 3.5 
" id="mdbe9634294" style="stroke:#000000;stroke-width:0.8;"/>
      </defs>
      <g>
       <use style="stroke:#000000;stroke-width:0.8;" x="57.6" xlink:href="#mdbe9634294" y="307.584"/>
      </g>
     </g>
     <g id="text_1">
      <!-- 0 -->
      <defs>
       <path d="M 31.78125 66.40625 
Q 24.171875 66.40625 20.328125 58.90625 
Q 16.5 51.421875 16.5 36.375 
Q 16.5 21.390625 20.328125 13.890625 
Q 24.171875 6.390625 31.78125 6.390625 
Q 39.453125 6.390625 43.28125 13.890625 
Q 47.125 21.390625 47.125 36.375 
Q 47.125 51.421875 43.28125 58.90625 
Q 39.453125 66.40625 31.78125 66.40625 
z
M 31.78125 74.21875 
Q 44.046875 74.21875 50.515625 64.515625 
Q 56.984375 54.828125 56.984375 36.375 
Q 56.984375 17.96875 50.515625 8.265625 
Q 44.046875 -1.421875 31.78125 -1.421875 
Q 19.53125 -1.421875 13.0625 8.265625 
Q 6.59375 17.96875 6.59375 36.375 
Q 6.59375 54.828125 13.0625 64.515625 
Q 19.53125 74.21875 31.78125 74.21875 
z
" id="DejaVuSans-30"/>
      </defs>
      <g transform="translate(54.41875 322.182437)scale(0.1 -0.1)">
       <use xlink:href="#DejaVuSans-30"/>
      </g>
     </g>
    </g>
    <g id="xtick_2">
     <g id="line2d_3">
      <path clip-path="url(#pb44a2b487d)" d="M 107.205709 307.584 
L 107.205709 41.472 
" style="fill:none;stroke:#b0b0b0;stroke-linecap:square;stroke-width:0.8;"/>
     </g>
     <g id="line2d_4">
      <g>
       <use style="stroke:#000000;stroke-width:0.8;" x="107.205709" xlink:href="#mdbe9634294" y="307.584"/>
      </g>
     </g>
     <g id="text_2">
      <!-- 500 -->
      <defs>
       <path d="M 10.796875 72.90625 
L 49.515625 72.90625 
L 49.515625 64.59375 
L 19.828125 64.59375 
L 19.828125 46.734375 
Q 21.96875 47.46875 24.109375 47.828125 
Q 26.265625 48.1875 28.421875 48.1875 
Q 40.625 48.1875 47.75 41.5 
Q 54.890625 34.8125 54.890625 23.390625 
Q 54.890625 11.625 47.5625 5.09375 
Q 40.234375 -1.421875 26.90625 -1.421875 
Q 22.3125 -1.421875 17.546875 -0.640625 
Q 12.796875 0.140625 7.71875 1.703125 
L 7.71875 11.625 
Q 12.109375 9.234375 16.796875 8.0625 
Q 21.484375 6.890625 26.703125 6.890625 
Q 35.15625 6.890625 40.078125 11.328125 
Q 45.015625 15.765625 45.015625 23.390625 
Q 45.015625 31 40.078125 35.4375 
Q 35.15625 39.890625 26.703125 39.890625 
Q 22.75 39.890625 18.8125 39.015625 
Q 14.890625 38.140625 10.796875 36.28125 
z
" id="DejaVuSans-35"/>
      </defs>
      <g transform="translate(97.661959 322.182437)scale(0.1 -0.1)">
       <use xlink:href="#DejaVuSans-35"/>
       <use x="63.623047" xlink:href="#DejaVuSans-30"/>
       <use x="127.246094" xlink:href="#DejaVuSans-30"/>
      </g>
     </g>
    </g>
    <g id="xtick_3">
     <g id="line2d_5">
      <path clip-path="url(#pb44a2b487d)" d="M 156.811417 307.584 
L 156.811417 41.472 
" style="fill:none;stroke:#b0b0b0;stroke-linecap:square;stroke-width:0.8;"/>
     </g>
     <g id="line2d_6">
      <g>
       <use style="stroke:#000000;stroke-width:0.8;" x="156.811417" xlink:href="#mdbe9634294" y="307.584"/>
      </g>
     </g>
     <g id="text_3">
      <!-- 1000 -->
      <defs>
       <path d="M 12.40625 8.296875 
L 28.515625 8.296875 
L 28.515625 63.921875 
L 10.984375 60.40625 
L 10.984375 69.390625 
L 28.421875 72.90625 
L 38.28125 72.90625 
L 38.28125 8.296875 
L 54.390625 8.296875 
L 54.390625 0 
L 12.40625 0 
z
" id="DejaVuSans-31"/>
      </defs>
      <g transform="translate(144.086417 322.182437)scale(0.1 -0.1)">
       <use xlink:href="#DejaVuSans-31"/>
       <use x="63.623047" xlink:href="#DejaVuSans-30"/>
       <use x="127.246094" xlink:href="#DejaVuSans-30"/>
       <use x="190.869141" xlink:href="#DejaVuSans-30"/>
      </g>
     </g>
    </g>
    <g id="xtick_4">
     <g id="line2d_7">
      <path clip-path="url(#pb44a2b487d)" d="M 206.417126 307.584 
L 206.417126 41.472 
" style="fill:none;stroke:#b0b0b0;stroke-linecap:square;stroke-width:0.8;"/>
     </g>
     <g id="line2d_8">
      <g>
       <use style="stroke:#000000;stroke-width:0.8;" x="206.417126" xlink:href="#mdbe9634294" y="307.584"/>
      </g>
     </g>
     <g id="text_4">
      <!-- 1500 -->
      <g transform="translate(193.692126 322.182437)scale(0.1 -0.1)">
       <use xlink:href="#DejaVuSans-31"/>
       <use x="63.623047" xlink:href="#DejaVuSans-35"/>
       <use x="127.246094" xlink:href="#DejaVuSans-30"/>
       <use x="190.869141" xlink:href="#DejaVuSans-30"/>
      </g>
     </g>
    </g>
    <g id="xtick_5">
     <g id="line2d_9">
      <path clip-path="url(#pb44a2b487d)" d="M 256.022835 307.584 
L 256.022835 41.472 
" style="fill:none;stroke:#b0b0b0;stroke-linecap:square;stroke-width:0.8;"/>
     </g>
     <g id="line2d_10">
      <g>
       <use style="stroke:#000000;stroke-width:0.8;" x="256.022835" xlink:href="#mdbe9634294" y="307.584"/>
      </g>
     </g>
     <g id="text_5">
      <!-- 2000 -->
      <defs>
       <path d="M 19.1875 8.296875 
L 53.609375 8.296875 
L 53.609375 0 
L 7.328125 0 
L 7.328125 8.296875 
Q 12.9375 14.109375 22.625 23.890625 
Q 32.328125 33.6875 34.8125 36.53125 
Q 39.546875 41.84375 41.421875 45.53125 
Q 43.3125 49.21875 43.3125 52.78125 
Q 43.3125 58.59375 39.234375 62.25 
Q 35.15625 65.921875 28.609375 65.921875 
Q 23.96875 65.921875 18.8125 64.3125 
Q 13.671875 62.703125 7.8125 59.421875 
L 7.8125 69.390625 
Q 13.765625 71.78125 18.9375 73 
Q 24.125 74.21875 28.421875 74.21875 
Q 39.75 74.21875 46.484375 68.546875 
Q 53.21875 62.890625 53.21875 53.421875 
Q 53.21875 48.921875 51.53125 44.890625 
Q 49.859375 40.875 45.40625 35.40625 
Q 44.1875 33.984375 37.640625 27.21875 
Q 31.109375 20.453125 19.1875 8.296875 
z
" id="DejaVuSans-32"/>
      </defs>
      <g transform="translate(243.297835 322.182437)scale(0.1 -0.1)">
       <use xlink:href="#DejaVuSans-32"/>
       <use x="63.623047" xlink:href="#DejaVuSans-30"/>
       <use x="127.246094" xlink:href="#DejaVuSans-30"/>
       <use x="190.869141" xlink:href="#DejaVuSans-30"/>
      </g>
     </g>
    </g>
    <g id="xtick_6">
     <g id="line2d_11">
      <path clip-path="url(#pb44a2b487d)" d="M 305.628543 307.584 
L 305.628543 41.472 
" style="fill:none;stroke:#b0b0b0;stroke-linecap:square;stroke-width:0.8;"/>
     </g>
     <g id="line2d_12">
      <g>
       <use style="stroke:#000000;stroke-width:0.8;" x="305.628543" xlink:href="#mdbe9634294" y="307.584"/>
      </g>
     </g>
     <g id="text_6">
      <!-- 2500 -->
      <g transform="translate(292.903543 322.182437)scale(0.1 -0.1)">
       <use xlink:href="#DejaVuSans-32"/>
       <use x="63.623047" xlink:href="#DejaVuSans-35"/>
       <use x="127.246094" xlink:href="#DejaVuSans-30"/>
       <use x="190.869141" xlink:href="#DejaVuSans-30"/>
      </g>
     </g>
    </g>
    <g id="xtick_7">
     <g id="line2d_13">
      <path clip-path="url(#pb44a2b487d)" d="M 355.234252 307.584 
L 355.234252 41.472 
" style="fill:none;stroke:#b0b0b0;stroke-linecap:square;stroke-width:0.8;"/>
     </g>
     <g id="line2d_14">
      <g>
       <use style="stroke:#000000;stroke-width:0.8;" x="355.234252" xlink:href="#mdbe9634294" y="307.584"/>
      </g>
     </g>
     <g id="text_7">
      <!-- 3000 -->
      <defs>
       <path d="M 40.578125 39.3125 
Q 47.65625 37.796875 51.625 33 
Q 55.609375 28.21875 55.609375 21.1875 
Q 55.609375 10.40625 48.1875 4.484375 
Q 40.765625 -1.421875 27.09375 -1.421875 
Q 22.515625 -1.421875 17.65625 -0.515625 
Q 12.796875 0.390625 7.625 2.203125 
L 7.625 11.71875 
Q 11.71875 9.328125 16.59375 8.109375 
Q 21.484375 6.890625 26.8125 6.890625 
Q 36.078125 6.890625 40.9375 10.546875 
Q 45.796875 14.203125 45.796875 21.1875 
Q 45.796875 27.640625 41.28125 31.265625 
Q 36.765625 34.90625 28.71875 34.90625 
L 20.21875 34.90625 
L 20.21875 43.015625 
L 29.109375 43.015625 
Q 36.375 43.015625 40.234375 45.921875 
Q 44.09375 48.828125 44.09375 54.296875 
Q 44.09375 59.90625 40.109375 62.90625 
Q 36.140625 65.921875 28.71875 65.921875 
Q 24.65625 65.921875 20.015625 65.03125 
Q 15.375 64.15625 9.8125 62.3125 
L 9.8125 71.09375 
Q 15.4375 72.65625 20.34375 73.4375 
Q 25.25 74.21875 29.59375 74.21875 
Q 40.828125 74.21875 47.359375 69.109375 
Q 53.90625 64.015625 53.90625 55.328125 
Q 53.90625 49.265625 50.4375 45.09375 
Q 46.96875 40.921875 40.578125 39.3125 
z
" id="DejaVuSans-33"/>
      </defs>
      <g transform="translate(342.509252 322.182437)scale(0.1 -0.1)">
       <use xlink:href="#DejaVuSans-33"/>
       <use x="63.623047" xlink:href="#DejaVuSans-30"/>
       <use x="127.246094" xlink:href="#DejaVuSans-30"/>
       <use x="190.869141" xlink:href="#DejaVuSans-30"/>
      </g>
     </g>
    </g>
    <g id="xtick_8">
     <g id="line2d_15">
      <path clip-path="url(#pb44a2b487d)" d="M 404.839961 307.584 
L 404.839961 41.472 
" style="fill:none;stroke:#b0b0b0;stroke-linecap:square;stroke-width:0.8;"/>
     </g>
     <g id="line2d_16">
      <g>
       <use style="stroke:#000000;stroke-width:0.8;" x="404.839961" xlink:href="#mdbe9634294" y="307.584"/>
      </g>
     </g>
     <g id="text_8">
      <!-- 3500 -->
      <g transform="translate(392.114961 322.182437)scale(0.1 -0.1)">
       <use xlink:href="#DejaVuSans-33"/>
       <use x="63.623047" xlink:href="#DejaVuSans-35"/>
       <use x="127.246094" xlink:href="#DejaVuSans-30"/>
       <use x="190.869141" xlink:href="#DejaVuSans-30"/>
      </g>
     </g>
    </g>
    <g id="text_9">
     <!-- t (s) -->
     <defs>
      <path d="M 18.3125 70.21875 
L 18.3125 54.6875 
L 36.8125 54.6875 
L 36.8125 47.703125 
L 18.3125 47.703125 
L 18.3125 18.015625 
Q 18.3125 11.328125 20.140625 9.421875 
Q 21.96875 7.515625 27.59375 7.515625 
L 36.8125 7.515625 
L 36.8125 0 
L 27.59375 0 
Q 17.1875 0 13.234375 3.875 
Q 9.28125 7.765625 9.28125 18.015625 
L 9.28125 47.703125 
L 2.6875 47.703125 
L 2.6875 54.6875 
L 9.28125 54.6875 
L 9.28125 70.21875 
z
" id="DejaVuSans-74"/>
      <path id="DejaVuSans-20"/>
      <path d="M 31 75.875 
Q 24.46875 64.65625 21.28125 53.65625 
Q 18.109375 42.671875 18.109375 31.390625 
Q 18.109375 20.125 21.3125 9.0625 
Q 24.515625 -2 31 -13.1875 
L 23.1875 -13.1875 
Q 15.875 -1.703125 12.234375 9.375 
Q 8.59375 20.453125 8.59375 31.390625 
Q 8.59375 42.28125 12.203125 53.3125 
Q 15.828125 64.359375 23.1875 75.875 
z
" id="DejaVuSans-28"/>
      <path d="M 44.28125 53.078125 
L 44.28125 44.578125 
Q 40.484375 46.53125 36.375 47.5 
Q 32.28125 48.484375 27.875 48.484375 
Q 21.1875 48.484375 17.84375 46.4375 
Q 14.5 44.390625 14.5 40.28125 
Q 14.5 37.15625 16.890625 35.375 
Q 19.28125 33.59375 26.515625 31.984375 
L 29.59375 31.296875 
Q 39.15625 29.25 43.1875 25.515625 
Q 47.21875 21.78125 47.21875 15.09375 
Q 47.21875 7.46875 41.1875 3.015625 
Q 35.15625 -1.421875 24.609375 -1.421875 
Q 20.21875 -1.421875 15.453125 -0.5625 
Q 10.6875 0.296875 5.421875 2 
L 5.421875 11.28125 
Q 10.40625 8.6875 15.234375 7.390625 
Q 20.0625 6.109375 24.8125 6.109375 
Q 31.15625 6.109375 34.5625 8.28125 
Q 37.984375 10.453125 37.984375 14.40625 
Q 37.984375 18.0625 35.515625 20.015625 
Q 33.0625 21.96875 24.703125 23.78125 
L 21.578125 24.515625 
Q 13.234375 26.265625 9.515625 29.90625 
Q 5.8125 33.546875 5.8125 39.890625 
Q 5.8125 47.609375 11.28125 51.796875 
Q 16.75 56 26.8125 56 
Q 31.78125 56 36.171875 55.265625 
Q 40.578125 54.546875 44.28125 53.078125 
z
" id="DejaVuSans-73"/>
      <path d="M 8.015625 75.875 
L 15.828125 75.875 
Q 23.140625 64.359375 26.78125 53.3125 
Q 30.421875 42.28125 30.421875 31.390625 
Q 30.421875 20.453125 26.78125 9.375 
Q 23.140625 -1.703125 15.828125 -13.1875 
L 8.015625 -13.1875 
Q 14.5 -2 17.703125 9.0625 
Q 20.90625 20.125 20.90625 31.390625 
Q 20.90625 42.671875 17.703125 53.65625 
Q 14.5 64.65625 8.015625 75.875 
z
" id="DejaVuSans-29"/>
     </defs>
     <g transform="translate(226.104531 335.860562)scale(0.1 -0.1)">
      <use xlink:href="#DejaVuSans-74"/>
      <use x="39.208984" xlink:href="#DejaVuSans-20"/>
      <use x="70.996094" xlink:href="#DejaVuSans-28"/>
      <use x="110.009766" xlink:href="#DejaVuSans-73"/>
      <use x="162.109375" xlink:href="#DejaVuSans-29"/>
     </g>
    </g>
   </g>
   <g id="matplotlib.axis_2">
    <g id="ytick_1">
     <g id="line2d_17">
      <path clip-path="url(#pb44a2b487d)" d="M 57.6 307.584 
L 414.72 307.584 
" style="fill:none;stroke:#b0b0b0;stroke-linecap:square;stroke-width:0.8;"/>
     </g>
     <g id="line2d_18">
      <defs>
       <path d="M 0 0 
L -3.5 0 
" id="maa3309d0d9" style="stroke:#000000;stroke-width:0.8;"/>
      </defs>
      <g>
       <use style="stroke:#000000;stroke-width:0.8;" x="57.6" xlink:href="#maa3309d0d9" y="307.584"/>
      </g>
     </g>
     <g id="text_10">
      <!-- $\mathdefault{10^{-1}}$ -->
      <defs>
       <path d="M 10.59375 35.5 
L 73.1875 35.5 
L 73.1875 27.203125 
L 10.59375 27.203125 
z
" id="DejaVuSans-2212"/>
      </defs>
      <g transform="translate(27.1 311.383219)scale(0.1 -0.1)">
       <use transform="translate(0 0.684375)" xlink:href="#DejaVuSans-31"/>
       <use transform="translate(63.623047 0.684375)" xlink:href="#DejaVuSans-30"/>
       <use transform="translate(128.203125 38.965625)scale(0.7)" xlink:href="#DejaVuSans-2212"/>
       <use transform="translate(186.855469 38.965625)scale(0.7)" xlink:href="#DejaVuSans-31"/>
      </g>
     </g>
    </g>
    <g id="ytick_2">
     <g id="line2d_19">
      <path clip-path="url(#pb44a2b487d)" d="M 57.6 263.232 
L 414.72 263.232 
" style="fill:none;stroke:#b0b0b0;stroke-linecap:square;stroke-width:0.8;"/>
     </g>
     <g id="line2d_20">
      <g>
       <use style="stroke:#000000;stroke-width:0.8;" x="57.6" xlink:href="#maa3309d0d9" y="263.232"/>
      </g>
     </g>
     <g id="text_11">
      <!-- $\mathdefault{10^{0}}$ -->
      <g transform="translate(33 267.031219)scale(0.1 -0.1)">
       <use transform="translate(0 0.765625)" xlink:href="#DejaVuSans-31"/>
       <use transform="translate(63.623047 0.765625)" xlink:href="#DejaVuSans-30"/>
       <use transform="translate(128.203125 39.046875)scale(0.7)" xlink:href="#DejaVuSans-30"/>
      </g>
     </g>
    </g>
    <g id="ytick_3">
     <g id="line2d_21">
      <path clip-path="url(#pb44a2b487d)" d="M 57.6 218.88 
L 414.72 218.88 
" style="fill:none;stroke:#b0b0b0;stroke-linecap:square;stroke-width:0.8;"/>
     </g>
     <g id="line2d_22">
      <g>
       <use style="stroke:#000000;stroke-width:0.8;" x="57.6" xlink:href="#maa3309d0d9" y="218.88"/>
      </g>
     </g>
     <g id="text_12">
      <!-- $\mathdefault{10^{1}}$ -->
      <g transform="translate(33 222.679219)scale(0.1 -0.1)">
       <use transform="translate(0 0.684375)" xlink:href="#DejaVuSans-31"/>
       <use transform="translate(63.623047 0.684375)" xlink:href="#DejaVuSans-30"/>
       <use transform="translate(128.203125 38.965625)scale(0.7)" xlink:href="#DejaVuSans-31"/>
      </g>
     </g>
    </g>
    <g id="ytick_4">
     <g id="line2d_23">
      <path clip-path="url(#pb44a2b487d)" d="M 57.6 174.528 
L 414.72 174.528 
" style="fill:none;stroke:#b0b0b0;stroke-linecap:square;stroke-width:0.8;"/>
     </g>
     <g id="line2d_24">
      <g>
       <use style="stroke:#000000;stroke-width:0.8;" x="57.6" xlink:href="#maa3309d0d9" y="174.528"/>
      </g>
     </g>
     <g id="text_13">
      <!-- $\mathdefault{10^{2}}$ -->
      <g transform="translate(33 178.327219)scale(0.1 -0.1)">
       <use transform="translate(0 0.765625)" xlink:href="#DejaVuSans-31"/>
       <use transform="translate(63.623047 0.765625)" xlink:href="#DejaVuSans-30"/>
       <use transform="translate(128.203125 39.046875)scale(0.7)" xlink:href="#DejaVuSans-32"/>
      </g>
     </g>
    </g>
    <g id="ytick_5">
     <g id="line2d_25">
      <path clip-path="url(#pb44a2b487d)" d="M 57.6 130.176 
L 414.72 130.176 
" style="fill:none;stroke:#b0b0b0;stroke-linecap:square;stroke-width:0.8;"/>
     </g>
     <g id="line2d_26">
      <g>
       <use style="stroke:#000000;stroke-width:0.8;" x="57.6" xlink:href="#maa3309d0d9" y="130.176"/>
      </g>
     </g>
     <g id="text_14">
      <!-- $\mathdefault{10^{3}}$ -->
      <g transform="translate(33 133.975219)scale(0.1 -0.1)">
       <use transform="translate(0 0.765625)" xlink:href="#DejaVuSans-31"/>
       <use transform="translate(63.623047 0.765625)" xlink:href="#DejaVuSans-30"/>
       <use transform="translate(128.203125 39.046875)scale(0.7)" xlink:href="#DejaVuSans-33"/>
      </g>
     </g>
    </g>
    <g id="ytick_6">
     <g id="line2d_27">
      <path clip-path="url(#pb44a2b487d)" d="M 57.6 85.824 
L 414.72 85.824 
" style="fill:none;stroke:#b0b0b0;stroke-linecap:square;stroke-width:0.8;"/>
     </g>
     <g id="line2d_28">
      <g>
       <use style="stroke:#000000;stroke-width:0.8;" x="57.6" xlink:href="#maa3309d0d9" y="85.824"/>
      </g>
     </g>
     <g id="text_15">
      <!-- $\mathdefault{10^{4}}$ -->
      <defs>
       <path d="M 37.796875 64.3125 
L 12.890625 25.390625 
L 37.796875 25.390625 
z
M 35.203125 72.90625 
L 47.609375 72.90625 
L 47.609375 25.390625 
L 58.015625 25.390625 
L 58.015625 17.1875 
L 47.609375 17.1875 
L 47.609375 0 
L 37.796875 0 
L 37.796875 17.1875 
L 4.890625 17.1875 
L 4.890625 26.703125 
z
" id="DejaVuSans-34"/>
      </defs>
      <g transform="translate(33 89.623219)scale(0.1 -0.1)">
       <use transform="translate(0 0.684375)" xlink:href="#DejaVuSans-31"/>
       <use transform="translate(63.623047 0.684375)" xlink:href="#DejaVuSans-30"/>
       <use transform="translate(128.203125 38.965625)scale(0.7)" xlink:href="#DejaVuSans-34"/>
      </g>
     </g>
    </g>
    <g id="ytick_7">
     <g id="line2d_29">
      <path clip-path="url(#pb44a2b487d)" d="M 57.6 41.472 
L 414.72 41.472 
" style="fill:none;stroke:#b0b0b0;stroke-linecap:square;stroke-width:0.8;"/>
     </g>
     <g id="line2d_30">
      <g>
       <use style="stroke:#000000;stroke-width:0.8;" x="57.6" xlink:href="#maa3309d0d9" y="41.472"/>
      </g>
     </g>
     <g id="text_16">
      <!-- $\mathdefault{10^{5}}$ -->
      <g transform="translate(33 45.271219)scale(0.1 -0.1)">
       <use transform="translate(0 0.684375)" xlink:href="#DejaVuSans-31"/>
       <use transform="translate(63.623047 0.684375)" xlink:href="#DejaVuSans-30"/>
       <use transform="translate(128.203125 38.965625)scale(0.7)" xlink:href="#DejaVuSans-35"/>
      </g>
     </g>
    </g>
    <g id="ytick_8">
     <g id="line2d_31">
      <defs>
       <path d="M 0 0 
L -2 0 
" id="m1024d2dcea" style="stroke:#000000;stroke-width:0.6;"/>
      </defs>
      <g>
       <use style="stroke:#000000;stroke-width:0.6;" x="57.6" xlink:href="#m1024d2dcea" y="294.232718"/>
      </g>
     </g>
    </g>
    <g id="ytick_9">
     <g id="line2d_32">
      <g>
       <use style="stroke:#000000;stroke-width:0.6;" x="57.6" xlink:href="#m1024d2dcea" y="286.422718"/>
      </g>
     </g>
    </g>
    <g id="ytick_10">
     <g id="line2d_33">
      <g>
       <use style="stroke:#000000;stroke-width:0.6;" x="57.6" xlink:href="#m1024d2dcea" y="280.881435"/>
      </g>
     </g>
    </g>
    <g id="ytick_11">
     <g id="line2d_34">
      <g>
       <use style="stroke:#000000;stroke-width:0.6;" x="57.6" xlink:href="#m1024d2dcea" y="276.583282"/>
      </g>
     </g>
    </g>
    <g id="ytick_12">
     <g id="line2d_35">
      <g>
       <use style="stroke:#000000;stroke-width:0.6;" x="57.6" xlink:href="#m1024d2dcea" y="273.071436"/>
      </g>
     </g>
    </g>
    <g id="ytick_13">
     <g id="line2d_36">
      <g>
       <use style="stroke:#000000;stroke-width:0.6;" x="57.6" xlink:href="#m1024d2dcea" y="270.102212"/>
      </g>
     </g>
    </g>
    <g id="ytick_14">
     <g id="line2d_37">
      <g>
       <use style="stroke:#000000;stroke-width:0.6;" x="57.6" xlink:href="#m1024d2dcea" y="267.530153"/>
      </g>
     </g>
    </g>
    <g id="ytick_15">
     <g id="line2d_38">
      <g>
       <use style="stroke:#000000;stroke-width:0.6;" x="57.6" xlink:href="#m1024d2dcea" y="265.261436"/>
      </g>
     </g>
    </g>
    <g id="ytick_16">
     <g id="line2d_39">
      <g>
       <use style="stroke:#000000;stroke-width:0.6;" x="57.6" xlink:href="#m1024d2dcea" y="249.880718"/>
      </g>
     </g>
    </g>
    <g id="ytick_17">
     <g id="line2d_40">
      <g>
       <use style="stroke:#000000;stroke-width:0.6;" x="57.6" xlink:href="#m1024d2dcea" y="242.070718"/>
      </g>
     </g>
    </g>
    <g id="ytick_18">
     <g id="line2d_41">
      <g>
       <use style="stroke:#000000;stroke-width:0.6;" x="57.6" xlink:href="#m1024d2dcea" y="236.529435"/>
      </g>
     </g>
    </g>
    <g id="ytick_19">
     <g id="line2d_42">
      <g>
       <use style="stroke:#000000;stroke-width:0.6;" x="57.6" xlink:href="#m1024d2dcea" y="232.231282"/>
      </g>
     </g>
    </g>
    <g id="ytick_20">
     <g id="line2d_43">
      <g>
       <use style="stroke:#000000;stroke-width:0.6;" x="57.6" xlink:href="#m1024d2dcea" y="228.719436"/>
      </g>
     </g>
    </g>
    <g id="ytick_21">
     <g id="line2d_44">
      <g>
       <use style="stroke:#000000;stroke-width:0.6;" x="57.6" xlink:href="#m1024d2dcea" y="225.750212"/>
      </g>
     </g>
    </g>
    <g id="ytick_22">
     <g id="line2d_45">
      <g>
       <use style="stroke:#000000;stroke-width:0.6;" x="57.6" xlink:href="#m1024d2dcea" y="223.178153"/>
      </g>
     </g>
    </g>
    <g id="ytick_23">
     <g id="line2d_46">
      <g>
       <use style="stroke:#000000;stroke-width:0.6;" x="57.6" xlink:href="#m1024d2dcea" y="220.909436"/>
      </g>
     </g>
    </g>
    <g id="ytick_24">
     <g id="line2d_47">
      <g>
       <use style="stroke:#000000;stroke-width:0.6;" x="57.6" xlink:href="#m1024d2dcea" y="205.528718"/>
      </g>
     </g>
    </g>
    <g id="ytick_25">
     <g id="line2d_48">
      <g>
       <use style="stroke:#000000;stroke-width:0.6;" x="57.6" xlink:href="#m1024d2dcea" y="197.718718"/>
      </g>
     </g>
    </g>
    <g id="ytick_26">
     <g id="line2d_49">
      <g>
       <use style="stroke:#000000;stroke-width:0.6;" x="57.6" xlink:href="#m1024d2dcea" y="192.177435"/>
      </g>
     </g>
    </g>
    <g id="ytick_27">
     <g id="line2d_50">
      <g>
       <use style="stroke:#000000;stroke-width:0.6;" x="57.6" xlink:href="#m1024d2dcea" y="187.879282"/>
      </g>
     </g>
    </g>
    <g id="ytick_28">
     <g id="line2d_51">
      <g>
       <use style="stroke:#000000;stroke-width:0.6;" x="57.6" xlink:href="#m1024d2dcea" y="184.367436"/>
      </g>
     </g>
    </g>
    <g id="ytick_29">
     <g id="line2d_52">
      <g>
       <use style="stroke:#000000;stroke-width:0.6;" x="57.6" xlink:href="#m1024d2dcea" y="181.398212"/>
      </g>
     </g>
    </g>
    <g id="ytick_30">
     <g id="line2d_53">
      <g>
       <use style="stroke:#000000;stroke-width:0.6;" x="57.6" xlink:href="#m1024d2dcea" y="178.826153"/>
      </g>
     </g>
    </g>
    <g id="ytick_31">
     <g id="line2d_54">
      <g>
       <use style="stroke:#000000;stroke-width:0.6;" x="57.6" xlink:href="#m1024d2dcea" y="176.557436"/>
      </g>
     </g>
    </g>
    <g id="ytick_32">
     <g id="line2d_55">
      <g>
       <use style="stroke:#000000;stroke-width:0.6;" x="57.6" xlink:href="#m1024d2dcea" y="161.176718"/>
      </g>
     </g>
    </g>
    <g id="ytick_33">
     <g id="line2d_56">
      <g>
       <use style="stroke:#000000;stroke-width:0.6;" x="57.6" xlink:href="#m1024d2dcea" y="153.366718"/>
      </g>
     </g>
    </g>
    <g id="ytick_34">
     <g id="line2d_57">
      <g>
       <use style="stroke:#000000;stroke-width:0.6;" x="57.6" xlink:href="#m1024d2dcea" y="147.825435"/>
      </g>
     </g>
    </g>
    <g id="ytick_35">
     <g id="line2d_58">
      <g>
       <use style="stroke:#000000;stroke-width:0.6;" x="57.6" xlink:href="#m1024d2dcea" y="143.527282"/>
      </g>
     </g>
    </g>
    <g id="ytick_36">
     <g id="line2d_59">
      <g>
       <use style="stroke:#000000;stroke-width:0.6;" x="57.6" xlink:href="#m1024d2dcea" y="140.015436"/>
      </g>
     </g>
    </g>
    <g id="ytick_37">
     <g id="line2d_60">
      <g>
       <use style="stroke:#000000;stroke-width:0.6;" x="57.6" xlink:href="#m1024d2dcea" y="137.046212"/>
      </g>
     </g>
    </g>
    <g id="ytick_38">
     <g id="line2d_61">
      <g>
       <use style="stroke:#000000;stroke-width:0.6;" x="57.6" xlink:href="#m1024d2dcea" y="134.474153"/>
      </g>
     </g>
    </g>
    <g id="ytick_39">
     <g id="line2d_62">
      <g>
       <use style="stroke:#000000;stroke-width:0.6;" x="57.6" xlink:href="#m1024d2dcea" y="132.205436"/>
      </g>
     </g>
    </g>
    <g id="ytick_40">
     <g id="line2d_63">
      <g>
       <use style="stroke:#000000;stroke-width:0.6;" x="57.6" xlink:href="#m1024d2dcea" y="116.824718"/>
      </g>
     </g>
    </g>
    <g id="ytick_41">
     <g id="line2d_64">
      <g>
       <use style="stroke:#000000;stroke-width:0.6;" x="57.6" xlink:href="#m1024d2dcea" y="109.014718"/>
      </g>
     </g>
    </g>
    <g id="ytick_42">
     <g id="line2d_65">
      <g>
       <use style="stroke:#000000;stroke-width:0.6;" x="57.6" xlink:href="#m1024d2dcea" y="103.473435"/>
      </g>
     </g>
    </g>
    <g id="ytick_43">
     <g id="line2d_66">
      <g>
       <use style="stroke:#000000;stroke-width:0.6;" x="57.6" xlink:href="#m1024d2dcea" y="99.175282"/>
      </g>
     </g>
    </g>
    <g id="ytick_44">
     <g id="line2d_67">
      <g>
       <use style="stroke:#000000;stroke-width:0.6;" x="57.6" xlink:href="#m1024d2dcea" y="95.663436"/>
      </g>
     </g>
    </g>
    <g id="ytick_45">
     <g id="line2d_68">
      <g>
       <use style="stroke:#000000;stroke-width:0.6;" x="57.6" xlink:href="#m1024d2dcea" y="92.694212"/>
      </g>
     </g>
    </g>
    <g id="ytick_46">
     <g id="line2d_69">
      <g>
       <use style="stroke:#000000;stroke-width:0.6;" x="57.6" xlink:href="#m1024d2dcea" y="90.122153"/>
      </g>
     </g>
    </g>
    <g id="ytick_47">
     <g id="line2d_70">
      <g>
       <use style="stroke:#000000;stroke-width:0.6;" x="57.6" xlink:href="#m1024d2dcea" y="87.853436"/>
      </g>
     </g>
    </g>
    <g id="ytick_48">
     <g id="line2d_71">
      <g>
       <use style="stroke:#000000;stroke-width:0.6;" x="57.6" xlink:href="#m1024d2dcea" y="72.472718"/>
      </g>
     </g>
    </g>
    <g id="ytick_49">
     <g id="line2d_72">
      <g>
       <use style="stroke:#000000;stroke-width:0.6;" x="57.6" xlink:href="#m1024d2dcea" y="64.662718"/>
      </g>
     </g>
    </g>
    <g id="ytick_50">
     <g id="line2d_73">
      <g>
       <use style="stroke:#000000;stroke-width:0.6;" x="57.6" xlink:href="#m1024d2dcea" y="59.121435"/>
      </g>
     </g>
    </g>
    <g id="ytick_51">
     <g id="line2d_74">
      <g>
       <use style="stroke:#000000;stroke-width:0.6;" x="57.6" xlink:href="#m1024d2dcea" y="54.823282"/>
      </g>
     </g>
    </g>
    <g id="ytick_52">
     <g id="line2d_75">
      <g>
       <use style="stroke:#000000;stroke-width:0.6;" x="57.6" xlink:href="#m1024d2dcea" y="51.311436"/>
      </g>
     </g>
    </g>
    <g id="ytick_53">
     <g id="line2d_76">
      <g>
       <use style="stroke:#000000;stroke-width:0.6;" x="57.6" xlink:href="#m1024d2dcea" y="48.342212"/>
      </g>
     </g>
    </g>
    <g id="ytick_54">
     <g id="line2d_77">
      <g>
       <use style="stroke:#000000;stroke-width:0.6;" x="57.6" xlink:href="#m1024d2dcea" y="45.770153"/>
      </g>
     </g>
    </g>
    <g id="ytick_55">
     <g id="line2d_78">
      <g>
       <use style="stroke:#000000;stroke-width:0.6;" x="57.6" xlink:href="#m1024d2dcea" y="43.501436"/>
      </g>
     </g>
    </g>
    <g id="text_17">
     <!-- Resistance (M$\Omega$) -->
     <defs>
      <path d="M 44.390625 34.1875 
Q 47.5625 33.109375 50.5625 29.59375 
Q 53.5625 26.078125 56.59375 19.921875 
L 66.609375 0 
L 56 0 
L 46.6875 18.703125 
Q 43.0625 26.03125 39.671875 28.421875 
Q 36.28125 30.8125 30.421875 30.8125 
L 19.671875 30.8125 
L 19.671875 0 
L 9.8125 0 
L 9.8125 72.90625 
L 32.078125 72.90625 
Q 44.578125 72.90625 50.734375 67.671875 
Q 56.890625 62.453125 56.890625 51.90625 
Q 56.890625 45.015625 53.6875 40.46875 
Q 50.484375 35.9375 44.390625 34.1875 
z
M 19.671875 64.796875 
L 19.671875 38.921875 
L 32.078125 38.921875 
Q 39.203125 38.921875 42.84375 42.21875 
Q 46.484375 45.515625 46.484375 51.90625 
Q 46.484375 58.296875 42.84375 61.546875 
Q 39.203125 64.796875 32.078125 64.796875 
z
" id="DejaVuSans-52"/>
      <path d="M 56.203125 29.59375 
L 56.203125 25.203125 
L 14.890625 25.203125 
Q 15.484375 15.921875 20.484375 11.0625 
Q 25.484375 6.203125 34.421875 6.203125 
Q 39.59375 6.203125 44.453125 7.46875 
Q 49.3125 8.734375 54.109375 11.28125 
L 54.109375 2.78125 
Q 49.265625 0.734375 44.1875 -0.34375 
Q 39.109375 -1.421875 33.890625 -1.421875 
Q 20.796875 -1.421875 13.15625 6.1875 
Q 5.515625 13.8125 5.515625 26.8125 
Q 5.515625 40.234375 12.765625 48.109375 
Q 20.015625 56 32.328125 56 
Q 43.359375 56 49.78125 48.890625 
Q 56.203125 41.796875 56.203125 29.59375 
z
M 47.21875 32.234375 
Q 47.125 39.59375 43.09375 43.984375 
Q 39.0625 48.390625 32.421875 48.390625 
Q 24.90625 48.390625 20.390625 44.140625 
Q 15.875 39.890625 15.1875 32.171875 
z
" id="DejaVuSans-65"/>
      <path d="M 9.421875 54.6875 
L 18.40625 54.6875 
L 18.40625 0 
L 9.421875 0 
z
M 9.421875 75.984375 
L 18.40625 75.984375 
L 18.40625 64.59375 
L 9.421875 64.59375 
z
" id="DejaVuSans-69"/>
      <path d="M 34.28125 27.484375 
Q 23.390625 27.484375 19.1875 25 
Q 14.984375 22.515625 14.984375 16.5 
Q 14.984375 11.71875 18.140625 8.90625 
Q 21.296875 6.109375 26.703125 6.109375 
Q 34.1875 6.109375 38.703125 11.40625 
Q 43.21875 16.703125 43.21875 25.484375 
L 43.21875 27.484375 
z
M 52.203125 31.203125 
L 52.203125 0 
L 43.21875 0 
L 43.21875 8.296875 
Q 40.140625 3.328125 35.546875 0.953125 
Q 30.953125 -1.421875 24.3125 -1.421875 
Q 15.921875 -1.421875 10.953125 3.296875 
Q 6 8.015625 6 15.921875 
Q 6 25.140625 12.171875 29.828125 
Q 18.359375 34.515625 30.609375 34.515625 
L 43.21875 34.515625 
L 43.21875 35.40625 
Q 43.21875 41.609375 39.140625 45 
Q 35.0625 48.390625 27.6875 48.390625 
Q 23 48.390625 18.546875 47.265625 
Q 14.109375 46.140625 10.015625 43.890625 
L 10.015625 52.203125 
Q 14.9375 54.109375 19.578125 55.046875 
Q 24.21875 56 28.609375 56 
Q 40.484375 56 46.34375 49.84375 
Q 52.203125 43.703125 52.203125 31.203125 
z
" id="DejaVuSans-61"/>
      <path d="M 54.890625 33.015625 
L 54.890625 0 
L 45.90625 0 
L 45.90625 32.71875 
Q 45.90625 40.484375 42.875 44.328125 
Q 39.84375 48.1875 33.796875 48.1875 
Q 26.515625 48.1875 22.3125 43.546875 
Q 18.109375 38.921875 18.109375 30.90625 
L 18.109375 0 
L 9.078125 0 
L 9.078125 54.6875 
L 18.109375 54.6875 
L 18.109375 46.1875 
Q 21.34375 51.125 25.703125 53.5625 
Q 30.078125 56 35.796875 56 
Q 45.21875 56 50.046875 50.171875 
Q 54.890625 44.34375 54.890625 33.015625 
z
" id="DejaVuSans-6e"/>
      <path d="M 48.78125 52.59375 
L 48.78125 44.1875 
Q 44.96875 46.296875 41.140625 47.34375 
Q 37.3125 48.390625 33.40625 48.390625 
Q 24.65625 48.390625 19.8125 42.84375 
Q 14.984375 37.3125 14.984375 27.296875 
Q 14.984375 17.28125 19.8125 11.734375 
Q 24.65625 6.203125 33.40625 6.203125 
Q 37.3125 6.203125 41.140625 7.25 
Q 44.96875 8.296875 48.78125 10.40625 
L 48.78125 2.09375 
Q 45.015625 0.34375 40.984375 -0.53125 
Q 36.96875 -1.421875 32.421875 -1.421875 
Q 20.0625 -1.421875 12.78125 6.34375 
Q 5.515625 14.109375 5.515625 27.296875 
Q 5.515625 40.671875 12.859375 48.328125 
Q 20.21875 56 33.015625 56 
Q 37.15625 56 41.109375 55.140625 
Q 45.0625 54.296875 48.78125 52.59375 
z
" id="DejaVuSans-63"/>
      <path d="M 9.8125 72.90625 
L 24.515625 72.90625 
L 43.109375 23.296875 
L 61.8125 72.90625 
L 76.515625 72.90625 
L 76.515625 0 
L 66.890625 0 
L 66.890625 64.015625 
L 48.09375 14.015625 
L 38.1875 14.015625 
L 19.390625 64.015625 
L 19.390625 0 
L 9.8125 0 
z
" id="DejaVuSans-4d"/>
      <path d="M 72.609375 8.6875 
L 72.609375 0 
L 43.3125 0 
L 43.3125 8.6875 
Q 51.953125 13.421875 56.78125 21.53125 
Q 61.625 29.640625 61.625 39.5 
Q 61.625 51.21875 55.171875 58.296875 
Q 48.734375 65.375 38.1875 65.375 
Q 27.640625 65.375 21.171875 58.265625 
Q 14.703125 51.171875 14.703125 39.5 
Q 14.703125 29.640625 19.53125 21.53125 
Q 24.421875 13.421875 33.109375 8.6875 
L 33.109375 0 
L 3.8125 0 
L 3.8125 8.6875 
L 19.390625 8.6875 
Q 11.671875 15.484375 8.109375 22.75 
Q 4.59375 30.03125 4.59375 39.015625 
Q 4.59375 54.546875 13.96875 64.15625 
Q 23.296875 73.78125 38.1875 73.78125 
Q 52.984375 73.78125 62.40625 64.15625 
Q 71.78125 54.59375 71.78125 39.5 
Q 71.78125 30.03125 68.3125 22.796875 
Q 64.84375 15.578125 56.984375 8.6875 
z
" id="DejaVuSans-3a9"/>
     </defs>
     <g transform="translate(21.020312 215.328)rotate(-90)scale(0.1 -0.1)">
      <use transform="translate(0 0.015625)" xlink:href="#DejaVuSans-52"/>
      <use transform="translate(69.482422 0.015625)" xlink:href="#DejaVuSans-65"/>
      <use transform="translate(131.005859 0.015625)" xlink:href="#DejaVuSans-73"/>
      <use transform="translate(183.105469 0.015625)" xlink:href="#DejaVuSans-69"/>
      <use transform="translate(210.888672 0.015625)" xlink:href="#DejaVuSans-73"/>
      <use transform="translate(262.988281 0.015625)" xlink:href="#DejaVuSans-74"/>
      <use transform="translate(302.197266 0.015625)" xlink:href="#DejaVuSans-61"/>
      <use transform="translate(363.476562 0.015625)" xlink:href="#DejaVuSans-6e"/>
      <use transform="translate(426.855469 0.015625)" xlink:href="#DejaVuSans-63"/>
      <use transform="translate(481.835938 0.015625)" xlink:href="#DejaVuSans-65"/>
      <use transform="translate(543.359375 0.015625)" xlink:href="#DejaVuSans-20"/>
      <use transform="translate(575.146484 0.015625)" xlink:href="#DejaVuSans-28"/>
      <use transform="translate(614.160156 0.015625)" xlink:href="#DejaVuSans-4d"/>
      <use transform="translate(700.439453 0.015625)" xlink:href="#DejaVuSans-3a9"/>
      <use transform="translate(776.855469 0.015625)" xlink:href="#DejaVuSans-29"/>
     </g>
    </g>
   </g>
   <g id="line2d_79">
    <path clip-path="url(#pb44a2b487d)" d="M 57.6 276.693072 
L 57.897634 275.206941 
L 57.996846 275.069884 
L 58.29448 273.62928 
L 59.187383 267.573372 
L 59.286594 267.490465 
L 59.485017 267.520268 
L 59.584228 267.549389 
L 60.37792 271.949285 
L 60.973188 276.643548 
L 61.270822 276.661217 
L 61.667668 274.996169 
L 62.163725 270.670594 
L 62.461359 267.879083 
L 62.659782 267.465393 
L 62.758994 267.46744 
L 63.354262 270.291285 
L 64.346376 276.793061 
L 64.644011 276.673778 
L 64.941645 275.908946 
L 65.338491 274.689426 
L 65.735336 272.502809 
L 65.834548 272.751296 
L 66.03297 271.972599 
L 66.132182 272.002412 
L 66.429816 270.391676 
L 66.529028 270.491296 
L 66.628239 270.499996 
L 66.826761 269.670031 
L 66.925972 270.118945 
L 67.124395 268.854986 
L 67.223607 269.575052 
L 67.818875 268.050904 
L 68.017298 268.20182 
L 68.215721 268.0134 
L 68.414144 267.999577 
L 68.711778 268.204648 
L 68.810989 268.016502 
L 69.009412 268.283936 
L 69.108624 268.181268 
L 69.307046 273.557727 
L 69.902315 276.351261 
L 70.001526 276.463809 
L 70.100738 276.798799 
L 70.299161 276.698017 
L 70.398372 276.702854 
L 70.795218 275.615586 
L 71.291275 273.210878 
L 71.886543 267.25871 
L 72.084966 267.417893 
L 73.573137 276.891003 
L 73.77156 276.708389 
L 73.870772 276.717035 
L 74.763674 273.420579 
L 75.061309 270.706166 
L 75.458154 267.275745 
L 75.656577 267.513019 
L 76.152634 270.382171 
L 76.54948 273.235427 
L 77.24396 276.686295 
L 77.442383 276.710201 
L 77.740017 276.665898 
L 78.831343 272.57225 
L 79.922668 268.017631 
L 80.02188 268.019165 
L 80.220302 267.376969 
L 80.418725 267.549043 
L 80.517937 267.33167 
L 80.617148 267.529459 
L 80.914782 267.450149 
L 81.212417 268.053396 
L 81.311628 268.111021 
L 81.609262 268.951728 
L 81.906896 270.181607 
L 82.105319 271.276786 
L 82.700588 274.614114 
L 82.998222 276.055357 
L 83.295856 276.684483 
L 83.395068 276.758011 
L 83.494279 276.654697 
L 83.593491 276.73275 
L 83.990336 276.290012 
L 84.28797 275.558996 
L 85.180873 271.948823 
L 85.875353 267.31425 
L 85.974565 267.606775 
L 86.073776 267.407473 
L 86.272199 267.605851 
L 87.462736 272.88239 
L 87.958793 274.87656 
L 88.157216 276.031832 
L 88.45485 276.79171 
L 88.653273 276.69225 
L 88.851795 276.670714 
L 88.951006 276.685658 
L 89.248641 275.833589 
L 89.745194 276.707625 
L 90.042927 276.680715 
L 90.24135 276.266779 
L 90.340661 276.688838 
L 90.439872 276.452877 
L 90.638493 276.756031 
L 90.737804 276.801109 
L 91.035736 275.621 
L 91.234159 276.248394 
L 91.333469 275.170265 
L 91.531892 275.834914 
L 92.027949 276.765297 
L 92.127161 276.654043 
L 92.424795 276.661756 
L 92.524006 276.626794 
L 93.714543 272.858006 
L 94.111389 270.520455 
L 94.309812 268.770162 
L 94.607446 267.292808 
L 94.706657 267.560087 
L 94.805869 267.457523 
L 94.90508 267.515524 
L 95.401137 270.310059 
L 96.194829 276.069865 
L 96.393252 276.785751 
L 96.492463 276.639111 
L 96.690886 276.651183 
L 97.385366 273.766659 
L 97.683 271.765772 
L 98.179057 267.973392 
L 98.278269 267.306095 
L 98.575903 267.589012 
L 99.369594 271.718854 
L 99.667228 273.903447 
L 99.766539 273.281029 
L 100.163385 276.237582 
L 100.262596 276.361004 
L 100.461019 276.728635 
L 100.659442 276.474744 
L 100.957076 275.62832 
L 101.849979 270.97874 
L 102.346036 267.555663 
L 102.544459 267.449863 
L 103.040516 270.061387 
L 103.834207 274.239314 
L 104.330264 275.839134 
L 104.72711 276.380496 
L 105.123956 276.379715 
L 105.42159 276.526692 
L 105.818435 276.188383 
L 106.016858 275.785736 
L 106.81055 274.197098 
L 106.909761 274.372902 
L 107.008972 273.984079 
L 107.108184 274.026251 
L 107.207395 274.486725 
L 107.405818 274.131693 
L 107.604241 274.398427 
L 107.802664 274.232488 
L 107.901875 274.592578 
L 108.100298 274.26521 
L 108.298721 274.367766 
L 108.397932 274.197253 
L 108.497144 273.532646 
L 108.596355 274.669109 
L 108.794778 273.504702 
L 109.092412 272.806807 
L 109.390046 272.204599 
L 109.588469 272.23054 
L 110.183738 272.933058 
L 110.481372 273.706884 
L 110.679795 274.04233 
L 111.076641 274.503395 
L 111.275063 274.334956 
L 112.068755 272.760886 
L 112.961657 268.262452 
L 113.457715 267.319002 
L 113.556926 267.544982 
L 113.755349 267.397662 
L 114.052983 267.482663 
L 114.251406 267.834376 
L 114.747463 268.751406 
L 114.945886 269.244668 
L 115.144309 269.716909 
L 115.24352 269.755724 
L 115.640366 270.801293 
L 116.334846 274.637074 
L 116.533269 276.282667 
L 116.63248 276.396499 
L 116.731691 276.761453 
L 116.830903 276.731428 
L 117.029326 276.458374 
L 117.227748 275.813389 
L 117.922228 270.322657 
L 118.219863 267.376645 
L 118.517596 266.798998 
L 118.616807 266.670119 
L 118.81523 267.344826 
L 119.013653 268.293182 
L 119.906556 272.554278 
L 120.104979 273.511443 
L 120.402613 274.14683 
L 120.501824 274.237941 
L 120.700247 274.085234 
L 120.89867 273.976712 
L 121.989996 270.867028 
L 122.684476 267.40675 
L 123.478167 262.187644 
L 123.577378 261.960538 
L 123.875013 262.967869 
L 124.073435 263.895598 
L 125.660818 273.111857 
L 125.859241 273.579915 
L 125.958452 273.833534 
L 126.057664 273.706122 
L 126.256087 273.88328 
L 126.553721 273.717665 
L 127.347412 271.261346 
L 127.942681 267.606382 
L 128.438738 263.400203 
L 128.537949 263.448246 
L 128.637161 263.229784 
L 128.736372 263.41229 
L 129.530063 268.909279 
L 130.323755 274.629955 
L 130.621389 274.630713 
L 131.216657 271.567479 
L 131.41508 269.591848 
L 131.514292 269.774699 
L 131.712715 265.36055 
L 131.911137 264.506834 
L 132.010349 264.58692 
L 132.605617 269.813518 
L 132.903252 273.548019 
L 133.002463 272.747091 
L 133.200886 275.099374 
L 133.399309 275.206674 
L 133.796154 273.06687 
L 134.589846 265.336345 
L 134.689057 265.593736 
L 135.085903 268.728551 
L 135.482748 272.964186 
L 135.58196 269.949886 
L 135.780383 271.243772 
L 135.978806 275.726745 
L 136.078017 273.242759 
L 136.27644 274.050579 
L 136.375651 274.756677 
L 136.474863 274.712474 
L 136.574074 274.8269 
L 136.871708 273.246043 
L 137.169343 271.745825 
L 137.566188 268.822448 
L 137.764611 267.348213 
L 138.161457 266.396297 
L 138.558302 267.112456 
L 138.855937 268.441754 
L 139.649628 272.716384 
L 139.748839 273.076212 
L 140.145685 275.669808 
L 140.443319 276.183422 
L 140.740954 276.552597 
L 140.939376 276.535674 
L 141.038588 276.501782 
L 141.237011 276.629007 
L 141.435433 276.622626 
L 141.633856 276.59699 
L 141.832279 273.139848 
L 142.526759 267.724349 
L 142.62597 267.880348 
L 142.725182 274.752239 
L 142.824393 274.277431 
L 143.221239 272.246368 
L 143.32045 272.239906 
L 143.419662 271.779489 
L 143.618085 273.146848 
L 144.213353 277.132579 
L 144.411776 277.170133 
L 144.808622 275.376405 
L 145.106256 272.86104 
L 145.503102 268.952084 
L 145.701524 268.529156 
L 145.800736 268.577225 
L 146.594427 273.849813 
L 147.090484 277.622641 
L 147.288907 277.563387 
L 147.586541 276.668458 
L 148.082598 273.623436 
L 148.677867 269.18376 
L 148.777078 269.388096 
L 148.87629 269.196195 
L 148.975501 269.274069 
L 149.173924 269.937468 
L 150.761307 277.968911 
L 151.058941 278.07657 
L 151.158152 278.107028 
L 152.150267 274.684972 
L 152.943958 270.447598 
L 153.043169 270.020844 
L 153.142381 270.214355 
L 153.241592 270.084384 
L 153.440015 270.337187 
L 153.936072 272.426751 
L 154.332918 274.615664 
L 155.126609 277.995229 
L 155.424243 278.766155 
L 155.523455 278.643892 
L 155.622666 278.79071 
L 156.118723 278.184033 
L 156.713992 276.741868 
L 157.408472 274.225139 
L 158.00374 271.617392 
L 158.102952 271.436638 
L 158.202163 270.968922 
L 158.301374 271.208721 
L 158.400586 271.041049 
L 158.69822 271.263424 
L 158.995854 272.158873 
L 159.491911 273.201831 
L 159.888757 273.321261 
L 160.384814 273.275195 
L 160.682448 272.988521 
L 160.980083 272.811267 
L 161.079294 272.90941 
L 161.277717 272.764941 
L 161.674563 272.732439 
L 161.972197 272.61082 
L 162.17062 272.452782 
L 162.369043 272.672645 
L 162.666677 272.784439 
L 163.261945 273.199386 
L 163.460368 273.479022 
L 164.650905 275.847001 
L 165.047751 276.898771 
L 165.543808 277.766884 
L 165.841442 277.932951 
L 166.039865 277.954252 
L 166.139076 277.969425 
L 166.932768 276.9629 
L 168.718573 273.056268 
L 169.21463 272.786362 
L 169.413053 272.833666 
L 169.710687 274.059718 
L 169.809899 272.886159 
L 169.90911 274.38548 
L 170.008322 274.120216 
L 170.206745 275.436542 
L 170.305956 272.96313 
L 170.504379 276.565823 
L 170.60359 277.138826 
L 170.702802 273.011158 
L 170.802013 273.030628 
L 170.901224 273.064364 
L 171.000436 278.188567 
L 171.099647 273.101638 
L 171.198859 273.11652 
L 171.595704 273.028794 
L 171.794127 273.242179 
L 171.893339 273.08969 
L 172.290184 273.896157 
L 173.679144 279.28568 
L 173.778356 279.392059 
L 173.976778 279.889148 
L 174.671258 280.732016 
L 174.77047 280.676132 
L 174.968893 279.782945 
L 175.564161 276.4943 
L 175.663372 279.679371 
L 175.762584 275.640205 
L 175.861795 279.027751 
L 175.961007 274.948732 
L 176.060218 278.788453 
L 176.15943 278.581445 
L 176.357852 278.177801 
L 176.457064 273.886005 
L 176.556275 277.71302 
L 176.655487 273.999071 
L 176.754698 274.030395 
L 176.953121 274.917568 
L 177.052332 274.8882 
L 177.548389 265.971633 
L 177.746812 251.434066 
L 178.143658 241.612135 
L 178.242869 239.582852 
L 178.342081 239.988035 
L 178.540504 245.18362 
L 179.036561 256.877244 
L 179.135772 257.419696 
L 179.433406 259.935795 
L 179.631829 259.576971 
L 179.830252 257.476274 
L 180.028675 252.318881 
L 180.42552 235.512933 
L 180.723155 212.231815 
L 180.822366 194.045384 
M 181.417635 189.470583 
L 181.715269 238.522007 
L 182.112115 251.483918 
L 182.50896 256.360385 
L 182.707383 256.306123 
L 183.005017 251.802922 
L 183.600286 224.141654 
L 183.89792 198.80301 
M 184.989345 217.043188 
L 185.286979 240.907705 
L 185.584613 249.24266 
L 186.080671 254.711176 
L 186.179882 254.687381 
L 186.279093 254.786932 
L 186.378305 253.200081 
L 186.77525 230.139035 
L 186.87456 178.311501 
M 187.271803 163.63461 
L 187.470424 246.04267 
L 187.669045 253.936944 
L 187.768356 254.167793 
L 187.867667 250.709278 
L 188.264611 213.002097 
L 188.363823 165.932503 
M 189.0586 217.563225 
L 189.257122 244.001238 
L 189.554757 250.836165 
L 189.852391 253.943607 
L 189.951602 254.018034 
L 190.050814 253.411088 
L 190.150025 253.832396 
L 190.447659 248.432305 
L 190.943717 219.960275 
L 191.042928 204.786197 
M 192.431888 207.726005 
L 192.630311 233.781889 
L 192.927945 246.12499 
L 193.424002 252.306608 
L 193.622425 253.485852 
L 193.721636 253.483389 
L 193.820848 253.326372 
L 193.920059 253.432435 
L 194.316905 247.787032 
L 195.110596 212.959016 
L 195.309019 193.484074 
M 198.086939 193.103967 
L 198.285361 227.587892 
L 198.582996 240.933472 
L 198.979841 247.459759 
L 199.079053 247.998266 
L 199.376687 251.862932 
L 199.475898 252.077805 
L 199.57511 253.201997 
L 199.674321 253.170464 
L 199.773533 252.846901 
L 200.071167 247.929789 
L 200.368801 228.582869 
L 200.567224 198.264654 
M 202.948298 165.25821 
L 203.146721 226.44912 
L 203.444355 241.192527 
L 203.642778 246.705799 
L 203.741989 247.578531 
L 204.039624 251.86239 
L 204.238046 252.859071 
L 204.634892 250.21539 
L 204.833315 244.71691 
L 205.230161 231.730115 
L 205.527795 214.143104 
L 205.627006 208.049144 
L 205.825429 173.358381 
M 209.000294 169.792007 
L 209.198717 211.096471 
L 209.793985 222.536927 
L 209.893196 223.253537 
L 209.992408 222.513149 
L 210.091619 223.39147 
L 210.190831 221.228625 
L 210.290042 222.641966 
L 210.389254 222.46849 
L 210.587676 219.993001 
L 210.686888 218.56973 
L 210.786099 214.744631 
L 210.885311 216.300463 
L 210.984522 214.892143 
L 211.083733 216.028035 
L 211.282156 214.182306 
L 211.381368 212.846043 
L 211.679002 221.581522 
L 212.373482 228.328861 
L 212.571905 227.533484 
L 212.770328 230.330857 
L 213.266385 236.690482 
L 213.365596 236.815925 
L 213.464807 248.8082 
L 213.564019 238.463577 
L 213.762541 245.714729 
L 214.159387 228.049513 
L 214.258598 228.63935 
L 214.357809 245.84016 
L 214.457021 245.670557 
L 214.556232 245.361204 
L 214.655444 245.643117 
L 214.754655 245.497596 
L 214.853867 245.138223 
L 214.953078 245.418498 
L 215.746769 244.705057 
L 216.044404 242.675865 
L 216.342038 240.720813 
L 216.540461 239.86868 
L 216.639672 238.513936 
L 216.738883 240.875216 
L 216.838095 240.193375 
L 217.234941 246.018842 
L 217.334152 245.763827 
L 217.92942 252.423144 
L 218.028632 252.385535 
L 218.127843 251.937078 
L 218.227055 252.035373 
L 218.425478 249.969567 
L 218.723112 241.408419 
L 218.822323 249.993524 
L 218.921535 226.227533 
L 219.119957 250.917461 
L 219.219169 194.331276 
M 219.417592 250.993059 
L 219.516803 250.913947 
L 219.715226 251.369415 
L 219.814437 251.989183 
L 220.01286 250.966518 
L 220.112072 250.860264 
L 220.211283 250.920419 
L 220.310494 250.789847 
L 220.608129 250.980923 
L 220.806552 250.850377 
L 221.302609 251.425895 
L 221.600243 252.009888 
L 221.798666 252.270519 
L 222.195511 252.144702 
L 222.393934 252.139453 
L 222.592357 252.18923 
L 222.691569 252.288736 
L 222.989203 251.767947 
L 224.080528 247.968749 
L 224.17974 248.000471 
L 224.278951 247.70905 
L 224.378163 247.930691 
L 224.775008 247.25188 
L 224.973431 247.063724 
L 225.271065 246.213835 
L 225.667911 244.987323 
L 225.866334 243.097259 
L 226.26318 237.77008 
L 226.560814 233.119964 
L 226.957659 200.660139 
L 227.056871 174.335491 
M 231.91952 214.404637 
L 232.118141 237.941067 
L 232.316564 233.247204 
L 232.614198 218.620043 
L 232.71341 199.684265 
M 236.185809 165.068497 
L 236.384232 194.428637 
L 236.483444 196.057815 
L 237.177924 231.529693 
L 237.773192 249.939488 
L 237.872404 251.717277 
L 237.971615 251.602068 
L 238.070826 252.093456 
L 238.170038 251.931193 
L 238.269249 252.097832 
L 238.467672 250.618782 
L 238.566983 251.815053 
L 239.459885 246.80457 
L 239.75752 245.75106 
L 239.856731 245.670146 
L 240.452 241.129919 
L 240.749634 238.660504 
L 240.848945 243.981905 
L 240.948156 243.369538 
L 241.642636 230.181889 
L 242.039482 215.318581 
L 242.138693 205.313617 
L 242.237904 182.29938 
M 245.313458 171.395508 
L 245.511881 216.303288 
L 245.809515 233.102432 
L 246.10715 242.002882 
L 246.305572 246.587914 
L 246.80163 249.848582 
L 247.000052 249.785388 
L 247.099264 249.878156 
L 247.496109 251.783877 
L 247.694532 251.39958 
L 247.892955 252.047123 
L 247.992167 251.838703 
L 248.091378 251.803411 
L 248.190589 252.07646 
L 248.488224 250.639174 
L 248.587435 250.572631 
L 249.182704 248.36187 
L 249.480338 247.725656 
L 249.579549 247.794359 
L 249.976395 246.495556 
L 250.174818 245.860417 
L 250.274029 246.072175 
L 250.869298 244.539816 
L 250.968509 244.380522 
L 251.266143 243.614343 
L 251.563778 240.868218 
L 251.960623 238.324318 
L 252.059835 240.161124 
L 252.159046 240.103667 
L 252.258258 241.113253 
L 252.357469 239.678464 
L 252.555892 244.15695 
L 252.655103 242.094008 
L 252.853526 200.516051 
L 252.952737 243.425689 
L 253.151259 221.284261 
L 253.349682 207.171922 
L 253.448894 183.327318 
M 257.814791 243.63261 
L 257.914102 244.341598 
L 258.013313 243.806702 
M 258.311047 241.88513 
L 258.410357 241.962759 
L 258.509668 239.021664 
L 258.70819 240.638802 
M 259.502179 198.566859 
L 259.899025 218.291565 
L 259.998236 223.262565 
L 260.196758 240.264273 
L 260.494393 243.869479 
L 260.593604 244.377847 
L 260.792126 248.20577 
L 261.685029 251.829892 
L 261.883452 251.678577 
L 261.982663 251.884174 
L 262.081874 251.183836 
L 262.181086 251.674026 
L 262.280297 251.103512 
L 262.974777 240.066978 
L 263.272411 231.574642 
L 263.470933 174.00053 
M 267.935447 230.685109 
L 268.332293 242.349178 
L 268.629927 248.495709 
L 268.927561 251.463114 
L 269.125991 251.316741 
L 269.225291 251.695145 
L 269.324592 251.628087 
L 269.423893 251.847365 
L 269.523193 251.693631 
L 269.821096 250.404568 
L 269.920396 250.563807 
L 270.019697 250.427955 
L 270.118998 250.563468 
L 270.317599 250.30998 
L 270.913403 250.600002 
L 271.012704 250.922262 
L 271.112005 250.854386 
L 271.310606 251.293789 
L 271.509208 251.62923 
L 271.707809 251.615696 
L 271.80711 251.757853 
L 272.005711 251.524791 
L 272.105012 251.187949 
L 272.204313 251.28549 
L 272.402914 250.309364 
L 272.700816 248.526976 
L 272.998718 245.121939 
L 273.19732 239.954868 
L 273.395921 227.566974 
L 273.495222 214.105866 
M 275.084033 187.955386 
L 275.282634 220.993656 
L 275.679837 237.318026 
L 276.07704 247.205781 
L 276.176341 247.822433 
L 276.374942 249.540562 
L 276.672844 251.617091 
L 276.772145 251.039915 
L 276.871446 251.285525 
L 276.970746 251.878658 
L 277.070047 251.530408 
L 277.268649 251.702802 
L 277.367949 251.295629 
L 277.566551 250.124452 
L 277.665851 250.240074 
L 278.261656 248.452146 
L 278.460257 248.551877 
L 278.559558 248.622162 
L 279.056061 250.315631 
L 279.155362 250.308965 
L 279.453264 251.727941 
L 279.552565 251.35348 
L 279.651866 251.726955 
L 279.850467 251.28775 
L 279.949768 251.46856 
L 280.148369 249.36852 
L 280.24767 249.233282 
L 280.446271 247.001208 
L 280.644873 245.798381 
L 280.843474 243.377929 
L 281.042076 241.31913 
L 281.141376 240.68624 
L 281.538579 245.44079 
L 281.63788 245.811316 
L 282.035083 249.373672 
L 282.134383 249.353655 
L 282.432285 251.430567 
L 282.531586 251.379202 
L 282.630887 251.059038 
L 282.829488 251.709756 
L 282.928789 251.652994 
L 283.02809 251.693685 
L 283.226691 251.547681 
L 283.425293 251.658956 
L 283.921796 249.522204 
L 284.219698 247.890347 
L 284.716202 244.283297 
L 284.815502 243.987442 
L 284.914803 243.275291 
L 285.312006 237.934374 
L 285.808509 235.226845 
L 286.503614 237.17275 
L 286.602915 238.969878 
L 286.702216 237.815722 
L 286.801517 237.884663 
L 287.000118 238.523649 
L 287.099419 242.025673 
L 287.198719 238.507742 
L 287.29802 239.119917 
L 287.496622 235.701244 
L 287.595922 235.308014 
L 288.092426 219.941651 
L 288.291027 206.014535 
L 288.390328 78.955522 
M 291.667251 195.176142 
L 291.865853 222.966995 
L 292.660258 248.797824 
L 293.156762 251.26523 
L 293.256063 251.24029 
L 293.355363 251.526937 
L 293.454664 251.373962 
L 293.553965 251.572495 
L 293.752566 251.402013 
L 294.447671 249.742142 
L 294.546972 249.58696 
L 294.745573 248.795375 
L 295.043475 248.002569 
L 295.142875 250.096702 
L 295.242176 249.896638 
L 295.73868 246.046068 
L 296.235183 239.182118 
L 296.632386 223.710495 
L 296.731687 214.911704 
L 296.830987 194.628159 
L 296.930288 251.429702 
L 297.029589 251.067674 
L 297.128889 251.519668 
M 302.489338 250.569275 
L 302.68784 249.965099 
L 303.283347 239.034591 
L 303.5811 228.093795 
L 303.878854 211.855999 
L 303.978105 199.907753 
M 308.643006 227.03774 
L 309.04001 235.793449 
L 309.139261 235.967625 
L 309.437015 237.815923 
L 309.536266 237.713127 
L 309.734768 237.267524 
L 309.834019 233.768873 
L 309.93327 236.125797 
L 310.231023 231.428224 
L 310.628028 215.459757 
L 310.82653 191.750061 
M 312.017543 174.568238 
L 312.216046 211.083403 
L 312.513799 225.941573 
L 313.010054 235.876014 
L 313.109305 236.509352 
L 313.208557 236.392296 
L 313.307808 237.524082 
L 313.50631 237.091005 
L 313.804063 236.480657 
L 314.101816 234.035933 
L 314.598072 221.326562 
L 314.796574 207.12241 
L 314.895825 190.565076 
M 323.133766 150.281498 
L 323.332268 199.816545 
L 323.53077 211.552563 
L 323.630022 211.510174 
L 324.027026 216.062721 
L 324.126277 214.831003 
L 324.324779 218.832459 
L 324.42403 217.985984 
L 324.523281 218.461662 
L 324.821035 222.914315 
L 325.019537 223.832674 
L 325.118788 225.443409 
L 325.615044 205.8295 
L 325.714295 187.481351 
M 327.500814 179.848376 
L 327.699317 206.913922 
L 327.798568 198.756619 
L 327.897819 199.275698 
L 328.195572 208.966412 
L 328.791057 220.870543 
L 328.890289 220.58875 
L 329.187983 224.835986 
L 329.287214 225.500723 
L 329.485676 224.934931 
L 329.584908 225.579245 
L 329.684139 225.076918 
L 329.78337 225.805625 
M 330.974145 235.875135 
L 331.172608 237.935421 
L 331.37107 239.037288 
L 332.16492 246.128716 
L 332.363383 246.419036 
L 332.661077 247.899551 
L 332.95877 248.868296 
L 333.157233 248.858357 
L 333.355695 248.537036 
L 333.75262 246.439502 
L 333.951083 245.603509 
L 334.348008 243.130053 
L 334.447339 232.590182 
L 334.745032 237.584161 
L 335.042726 243.208625 
L 335.34042 248.486929 
L 335.439651 248.422532 
L 335.538882 248.902695 
L 335.737345 247.277478 
L 335.935807 250.904067 
L 336.035039 251.368913 
L 336.13427 247.296103 
L 336.233501 251.088349 
L 336.332732 251.061497 
L 336.531195 251.349623 
L 336.630426 251.189762 
L 336.828889 239.501199 
L 336.92812 239.604724 
L 337.126583 238.213644 
L 337.225814 239.395427 
L 337.523508 234.037561 
L 337.622739 235.171833 
L 337.821201 226.901953 
L 337.920433 226.811611 
L 338.019664 222.787574 
L 338.118895 223.907158 
L 338.317358 217.388573 
L 338.51582 201.607394 
L 338.714283 244.360684 
L 338.813514 244.289516 
L 339.30967 244.715437 
L 339.408902 245.381089 
L 339.508133 245.224417 
L 339.805827 246.649424 
L 340.004289 247.667856 
L 340.10352 247.434705 
L 340.798139 249.368554 
L 341.294295 249.818526 
L 341.790452 251.373539 
L 341.889683 251.07299 
L 342.187377 251.348568 
L 342.385839 250.718047 
L 342.485071 250.579921 
L 342.683533 250.77741 
L 342.981227 250.538711 
L 343.179689 250.981406 
L 343.278921 251.283992 
L 343.477383 250.998627 
L 343.675846 251.136891 
L 343.775077 251.122697 
L 344.172002 249.767296 
L 344.271233 249.731428 
L 344.866621 244.442261 
L 345.065083 241.007419 
L 345.362777 228.735705 
L 345.56124 210.478721 
L 345.660471 160.790139 
M 354.095128 172.966578 
L 354.29359 220.708901 
L 354.690515 239.039105 
L 354.988209 245.327758 
L 355.583597 248.58943 
L 355.682828 248.779662 
L 355.782059 248.592197 
L 355.980522 248.983278 
L 356.079753 249.513422 
L 356.278216 250.897165 
L 356.377447 250.478808 
L 356.476678 250.5438 
L 356.575909 251.206712 
L 356.675141 250.917807 
L 356.873603 251.184839 
L 357.568222 246.513961 
L 357.865916 243.602012 
L 358.064378 241.611396 
L 358.461303 228.239476 
L 358.659745 214.079357 
L 358.758967 195.144067 
M 361.437943 195.123951 
L 361.636385 222.094326 
L 362.132492 242.091046 
L 362.430156 246.657292 
L 362.72782 248.889413 
L 362.926263 248.919944 
L 363.025484 249.079816 
L 363.323148 250.945779 
L 363.42237 250.887451 
L 363.521591 251.008901 
L 363.620812 250.795222 
L 363.720034 250.845441 
L 363.918476 250.475913 
L 364.017698 250.492646 
L 364.21614 251.185975 
L 364.613026 250.871821 
L 364.811468 249.421129 
L 365.009911 249.330159 
L 365.208354 247.915313 
L 365.307575 247.286964 
L 365.902903 236.386464 
L 366.101346 228.206502 
L 366.299788 210.839206 
L 366.39901 197.885318 
M 369.970978 133.528373 
L 370.169421 206.325384 
L 370.268642 224.13022 
L 370.367863 220.14992 
L 370.764749 238.09104 
L 371.161634 246.243835 
L 371.360077 248.38659 
L 371.558519 248.60308 
L 371.657741 249.560054 
L 371.756962 248.772473 
L 371.955405 249.013808 
L 372.253069 248.237041 
L 372.35229 248.680683 
L 372.550733 245.13064 
L 372.649954 233.634192 
L 372.749175 245.225586 
L 372.848397 234.655468 
L 372.947618 236.37146 
L 373.146061 228.408447 
L 373.245282 227.116433 
L 373.443725 223.002758 
L 373.542946 222.090488 
L 373.939831 209.684676 
L 374.039053 203.776211 
L 374.138274 184.544913 
M 376.519586 192.216209 
L 376.718029 218.703703 
L 377.313357 244.827526 
L 377.809464 250.907278 
L 377.908685 250.408352 
L 378.107128 251.184953 
L 378.206349 250.973189 
L 378.404792 251.162272 
L 378.504013 250.992672 
L 378.801677 249.535859 
L 379.00012 249.58468 
L 379.198562 249.268881 
L 379.496226 247.886149 
L 379.694669 247.628066 
L 379.992333 247.654528 
L 380.289997 247.304069 
L 380.48844 247.590534 
L 380.587661 247.243398 
L 380.984546 247.665842 
L 381.083768 247.541353 
L 381.28221 247.769285 
L 381.480653 247.700754 
L 381.579875 248.271134 
L 381.679096 247.978547 
L 381.877538 248.20786 
L 382.373645 247.451303 
L 382.472966 249.6616 
L 382.572187 249.44901 
L 382.969072 247.989174 
L 383.068294 247.898726 
L 383.465179 245.636522 
L 383.663622 244.035899 
L 383.961286 242.628705 
L 384.953499 230.820691 
L 385.151942 231.569558 
L 385.251163 230.05959 
L 385.350385 231.262508 
L 385.648049 230.263107 
L 385.74727 230.036014 
L 385.945713 230.95322 
L 386.044934 231.419054 
L 386.144155 230.962719 
L 386.541041 234.431679 
L 386.640262 234.661776 
L 386.739483 238.052117 
L 386.838705 237.587205 
L 387.136369 240.528073 
L 387.334811 242.49173 
L 387.434033 242.382768 
L 387.632475 243.373262 
L 387.930139 244.325627 
L 388.029361 244.38857 
L 388.128582 244.598762 
L 388.72391 248.021959 
L 388.922353 249.517847 
L 389.120795 249.438268 
L 389.418459 251.120737 
L 389.616902 250.840253 
L 389.716123 251.133485 
L 390.013787 250.414828 
L 390.21223 250.788198 
L 390.410673 248.717209 
L 390.509894 248.646458 
L 390.708337 245.957814 
L 391.105222 233.941125 
L 391.303665 217.897559 
L 391.402886 206.504871 
L 391.502108 156.295274 
M 397.65393 176.47117 
L 397.852372 207.999034 
L 398.150036 217.452675 
L 398.348479 219.192985 
L 398.4477 220.231253 
L 398.546922 219.621102 
L 398.646143 223.540439 
L 399.14225 203.662968 
L 399.241471 187.908866 
M 406.484629 216.889396 
L 406.782293 227.99283 
L 407.377621 242.712454 
L 407.476842 243.084368 
L 407.576064 239.86118 
M 407.774506 248.288585 
L 408.07217 250.032315 
L 408.171392 250.866929 
L 408.369834 250.460526 
L 408.568277 251.015516 
L 408.667498 250.843435 
L 408.865941 250.969524 
L 409.064384 250.791341 
L 409.262826 249.477323 
L 409.362048 249.593801 
L 409.858154 247.800799 
L 409.957376 247.839824 
L 410.25504 247.639943 
L 410.354261 247.630913 
L 410.651925 246.433004 
L 411.148032 241.902622 
L 411.445696 229.944731 
L 411.644138 211.665597 
L 411.74336 166.409843 
M 414.124672 186.388337 
L 414.323115 222.505168 
L 414.620779 237.208918 
L 414.72 240.476597 
L 414.72 240.476597 
" style="fill:none;stroke:#1f77b4;stroke-linecap:square;stroke-width:1.5;"/>
   </g>
   <g id="patch_3">
    <path d="M 57.6 307.584 
L 57.6 41.472 
" style="fill:none;stroke:#000000;stroke-linecap:square;stroke-linejoin:miter;stroke-width:0.8;"/>
   </g>
   <g id="patch_4">
    <path d="M 414.72 307.584 
L 414.72 41.472 
" style="fill:none;stroke:#000000;stroke-linecap:square;stroke-linejoin:miter;stroke-width:0.8;"/>
   </g>
   <g id="patch_5">
    <path d="M 57.6 307.584 
L 414.72 307.584 
" style="fill:none;stroke:#000000;stroke-linecap:square;stroke-linejoin:miter;stroke-width:0.8;"/>
   </g>
   <g id="patch_6">
    <path d="M 57.6 41.472 
L 414.72 41.472 
" style="fill:none;stroke:#000000;stroke-linecap:square;stroke-linejoin:miter;stroke-width:0.8;"/>
   </g>
  </g>
 </g>
 <defs>
  <clipPath id="pb44a2b487d">
   <rect height="266.112" width="357.12" x="57.6" y="41.472"/>
  </clipPath>
 </defs>
</svg>
