<?xml version="1.0" encoding="utf-8" standalone="no"?>
<!DOCTYPE svg PUBLIC "-//W3C//DTD SVG 1.1//EN"
  "http://www.w3.org/Graphics/SVG/1.1/DTD/svg11.dtd">
<!-- Created with matplotlib (http://matplotlib.org/) -->
<svg height="345pt" version="1.1" viewBox="0 0 460 345" width="460pt" xmlns="http://www.w3.org/2000/svg" xmlns:xlink="http://www.w3.org/1999/xlink">
 <defs>
  <style type="text/css">
*{stroke-linecap:butt;stroke-linejoin:round;}
  </style>
 </defs>
 <g id="figure_1">
  <g id="patch_1">
   <path d="M 0 345.6 
L 460.8 345.6 
L 460.8 0 
L 0 0 
z
" style="fill:#ffffff;"/>
  </g>
  <g id="axes_1">
   <g id="patch_2">
    <path d="M 57.6 307.584 
L 414.72 307.584 
L 414.72 41.472 
L 57.6 41.472 
z
" style="fill:#ffffff;"/>
   </g>
   <g id="matplotlib.axis_1">
    <g id="xtick_1">
     <g id="line2d_1">
      <path clip-path="url(#p4af2d8923e)" d="M 57.6 307.584 
L 57.6 41.472 
" style="fill:none;stroke:#b0b0b0;stroke-linecap:square;stroke-width:0.8;"/>
     </g>
     <g id="line2d_2">
      <defs>
       <path d="M 0 0 
L 0 3.5 
" id="maca7dfc341" style="stroke:#000000;stroke-width:0.8;"/>
      </defs>
      <g>
       <use style="stroke:#000000;stroke-width:0.8;" x="57.6" xlink:href="#maca7dfc341" y="307.584"/>
      </g>
     </g>
     <g id="text_1">
      <!-- 1100 -->
      <defs>
       <path d="M 12.40625 8.296875 
L 28.515625 8.296875 
L 28.515625 63.921875 
L 10.984375 60.40625 
L 10.984375 69.390625 
L 28.421875 72.90625 
L 38.28125 72.90625 
L 38.28125 8.296875 
L 54.390625 8.296875 
L 54.390625 0 
L 12.40625 0 
z
" id="DejaVuSans-31"/>
       <path d="M 31.78125 66.40625 
Q 24.171875 66.40625 20.328125 58.90625 
Q 16.5 51.421875 16.5 36.375 
Q 16.5 21.390625 20.328125 13.890625 
Q 24.171875 6.390625 31.78125 6.390625 
Q 39.453125 6.390625 43.28125 13.890625 
Q 47.125 21.390625 47.125 36.375 
Q 47.125 51.421875 43.28125 58.90625 
Q 39.453125 66.40625 31.78125 66.40625 
z
M 31.78125 74.21875 
Q 44.046875 74.21875 50.515625 64.515625 
Q 56.984375 54.828125 56.984375 36.375 
Q 56.984375 17.96875 50.515625 8.265625 
Q 44.046875 -1.421875 31.78125 -1.421875 
Q 19.53125 -1.421875 13.0625 8.265625 
Q 6.59375 17.96875 6.59375 36.375 
Q 6.59375 54.828125 13.0625 64.515625 
Q 19.53125 74.21875 31.78125 74.21875 
z
" id="DejaVuSans-30"/>
      </defs>
      <g transform="translate(44.875 322.182437)scale(0.1 -0.1)">
       <use xlink:href="#DejaVuSans-31"/>
       <use x="63.623047" xlink:href="#DejaVuSans-31"/>
       <use x="127.246094" xlink:href="#DejaVuSans-30"/>
       <use x="190.869141" xlink:href="#DejaVuSans-30"/>
      </g>
     </g>
    </g>
    <g id="xtick_2">
     <g id="line2d_3">
      <path clip-path="url(#p4af2d8923e)" d="M 97.28 307.584 
L 97.28 41.472 
" style="fill:none;stroke:#b0b0b0;stroke-linecap:square;stroke-width:0.8;"/>
     </g>
     <g id="line2d_4">
      <g>
       <use style="stroke:#000000;stroke-width:0.8;" x="97.28" xlink:href="#maca7dfc341" y="307.584"/>
      </g>
     </g>
     <g id="text_2">
      <!-- 1200 -->
      <defs>
       <path d="M 19.1875 8.296875 
L 53.609375 8.296875 
L 53.609375 0 
L 7.328125 0 
L 7.328125 8.296875 
Q 12.9375 14.109375 22.625 23.890625 
Q 32.328125 33.6875 34.8125 36.53125 
Q 39.546875 41.84375 41.421875 45.53125 
Q 43.3125 49.21875 43.3125 52.78125 
Q 43.3125 58.59375 39.234375 62.25 
Q 35.15625 65.921875 28.609375 65.921875 
Q 23.96875 65.921875 18.8125 64.3125 
Q 13.671875 62.703125 7.8125 59.421875 
L 7.8125 69.390625 
Q 13.765625 71.78125 18.9375 73 
Q 24.125 74.21875 28.421875 74.21875 
Q 39.75 74.21875 46.484375 68.546875 
Q 53.21875 62.890625 53.21875 53.421875 
Q 53.21875 48.921875 51.53125 44.890625 
Q 49.859375 40.875 45.40625 35.40625 
Q 44.1875 33.984375 37.640625 27.21875 
Q 31.109375 20.453125 19.1875 8.296875 
z
" id="DejaVuSans-32"/>
      </defs>
      <g transform="translate(84.555 322.182437)scale(0.1 -0.1)">
       <use xlink:href="#DejaVuSans-31"/>
       <use x="63.623047" xlink:href="#DejaVuSans-32"/>
       <use x="127.246094" xlink:href="#DejaVuSans-30"/>
       <use x="190.869141" xlink:href="#DejaVuSans-30"/>
      </g>
     </g>
    </g>
    <g id="xtick_3">
     <g id="line2d_5">
      <path clip-path="url(#p4af2d8923e)" d="M 136.96 307.584 
L 136.96 41.472 
" style="fill:none;stroke:#b0b0b0;stroke-linecap:square;stroke-width:0.8;"/>
     </g>
     <g id="line2d_6">
      <g>
       <use style="stroke:#000000;stroke-width:0.8;" x="136.96" xlink:href="#maca7dfc341" y="307.584"/>
      </g>
     </g>
     <g id="text_3">
      <!-- 1300 -->
      <defs>
       <path d="M 40.578125 39.3125 
Q 47.65625 37.796875 51.625 33 
Q 55.609375 28.21875 55.609375 21.1875 
Q 55.609375 10.40625 48.1875 4.484375 
Q 40.765625 -1.421875 27.09375 -1.421875 
Q 22.515625 -1.421875 17.65625 -0.515625 
Q 12.796875 0.390625 7.625 2.203125 
L 7.625 11.71875 
Q 11.71875 9.328125 16.59375 8.109375 
Q 21.484375 6.890625 26.8125 6.890625 
Q 36.078125 6.890625 40.9375 10.546875 
Q 45.796875 14.203125 45.796875 21.1875 
Q 45.796875 27.640625 41.28125 31.265625 
Q 36.765625 34.90625 28.71875 34.90625 
L 20.21875 34.90625 
L 20.21875 43.015625 
L 29.109375 43.015625 
Q 36.375 43.015625 40.234375 45.921875 
Q 44.09375 48.828125 44.09375 54.296875 
Q 44.09375 59.90625 40.109375 62.90625 
Q 36.140625 65.921875 28.71875 65.921875 
Q 24.65625 65.921875 20.015625 65.03125 
Q 15.375 64.15625 9.8125 62.3125 
L 9.8125 71.09375 
Q 15.4375 72.65625 20.34375 73.4375 
Q 25.25 74.21875 29.59375 74.21875 
Q 40.828125 74.21875 47.359375 69.109375 
Q 53.90625 64.015625 53.90625 55.328125 
Q 53.90625 49.265625 50.4375 45.09375 
Q 46.96875 40.921875 40.578125 39.3125 
z
" id="DejaVuSans-33"/>
      </defs>
      <g transform="translate(124.235 322.182437)scale(0.1 -0.1)">
       <use xlink:href="#DejaVuSans-31"/>
       <use x="63.623047" xlink:href="#DejaVuSans-33"/>
       <use x="127.246094" xlink:href="#DejaVuSans-30"/>
       <use x="190.869141" xlink:href="#DejaVuSans-30"/>
      </g>
     </g>
    </g>
    <g id="xtick_4">
     <g id="line2d_7">
      <path clip-path="url(#p4af2d8923e)" d="M 176.64 307.584 
L 176.64 41.472 
" style="fill:none;stroke:#b0b0b0;stroke-linecap:square;stroke-width:0.8;"/>
     </g>
     <g id="line2d_8">
      <g>
       <use style="stroke:#000000;stroke-width:0.8;" x="176.64" xlink:href="#maca7dfc341" y="307.584"/>
      </g>
     </g>
     <g id="text_4">
      <!-- 1400 -->
      <defs>
       <path d="M 37.796875 64.3125 
L 12.890625 25.390625 
L 37.796875 25.390625 
z
M 35.203125 72.90625 
L 47.609375 72.90625 
L 47.609375 25.390625 
L 58.015625 25.390625 
L 58.015625 17.1875 
L 47.609375 17.1875 
L 47.609375 0 
L 37.796875 0 
L 37.796875 17.1875 
L 4.890625 17.1875 
L 4.890625 26.703125 
z
" id="DejaVuSans-34"/>
      </defs>
      <g transform="translate(163.915 322.182437)scale(0.1 -0.1)">
       <use xlink:href="#DejaVuSans-31"/>
       <use x="63.623047" xlink:href="#DejaVuSans-34"/>
       <use x="127.246094" xlink:href="#DejaVuSans-30"/>
       <use x="190.869141" xlink:href="#DejaVuSans-30"/>
      </g>
     </g>
    </g>
    <g id="xtick_5">
     <g id="line2d_9">
      <path clip-path="url(#p4af2d8923e)" d="M 216.32 307.584 
L 216.32 41.472 
" style="fill:none;stroke:#b0b0b0;stroke-linecap:square;stroke-width:0.8;"/>
     </g>
     <g id="line2d_10">
      <g>
       <use style="stroke:#000000;stroke-width:0.8;" x="216.32" xlink:href="#maca7dfc341" y="307.584"/>
      </g>
     </g>
     <g id="text_5">
      <!-- 1500 -->
      <defs>
       <path d="M 10.796875 72.90625 
L 49.515625 72.90625 
L 49.515625 64.59375 
L 19.828125 64.59375 
L 19.828125 46.734375 
Q 21.96875 47.46875 24.109375 47.828125 
Q 26.265625 48.1875 28.421875 48.1875 
Q 40.625 48.1875 47.75 41.5 
Q 54.890625 34.8125 54.890625 23.390625 
Q 54.890625 11.625 47.5625 5.09375 
Q 40.234375 -1.421875 26.90625 -1.421875 
Q 22.3125 -1.421875 17.546875 -0.640625 
Q 12.796875 0.140625 7.71875 1.703125 
L 7.71875 11.625 
Q 12.109375 9.234375 16.796875 8.0625 
Q 21.484375 6.890625 26.703125 6.890625 
Q 35.15625 6.890625 40.078125 11.328125 
Q 45.015625 15.765625 45.015625 23.390625 
Q 45.015625 31 40.078125 35.4375 
Q 35.15625 39.890625 26.703125 39.890625 
Q 22.75 39.890625 18.8125 39.015625 
Q 14.890625 38.140625 10.796875 36.28125 
z
" id="DejaVuSans-35"/>
      </defs>
      <g transform="translate(203.595 322.182437)scale(0.1 -0.1)">
       <use xlink:href="#DejaVuSans-31"/>
       <use x="63.623047" xlink:href="#DejaVuSans-35"/>
       <use x="127.246094" xlink:href="#DejaVuSans-30"/>
       <use x="190.869141" xlink:href="#DejaVuSans-30"/>
      </g>
     </g>
    </g>
    <g id="xtick_6">
     <g id="line2d_11">
      <path clip-path="url(#p4af2d8923e)" d="M 256 307.584 
L 256 41.472 
" style="fill:none;stroke:#b0b0b0;stroke-linecap:square;stroke-width:0.8;"/>
     </g>
     <g id="line2d_12">
      <g>
       <use style="stroke:#000000;stroke-width:0.8;" x="256" xlink:href="#maca7dfc341" y="307.584"/>
      </g>
     </g>
     <g id="text_6">
      <!-- 1600 -->
      <defs>
       <path d="M 33.015625 40.375 
Q 26.375 40.375 22.484375 35.828125 
Q 18.609375 31.296875 18.609375 23.390625 
Q 18.609375 15.53125 22.484375 10.953125 
Q 26.375 6.390625 33.015625 6.390625 
Q 39.65625 6.390625 43.53125 10.953125 
Q 47.40625 15.53125 47.40625 23.390625 
Q 47.40625 31.296875 43.53125 35.828125 
Q 39.65625 40.375 33.015625 40.375 
z
M 52.59375 71.296875 
L 52.59375 62.3125 
Q 48.875 64.0625 45.09375 64.984375 
Q 41.3125 65.921875 37.59375 65.921875 
Q 27.828125 65.921875 22.671875 59.328125 
Q 17.53125 52.734375 16.796875 39.40625 
Q 19.671875 43.65625 24.015625 45.921875 
Q 28.375 48.1875 33.59375 48.1875 
Q 44.578125 48.1875 50.953125 41.515625 
Q 57.328125 34.859375 57.328125 23.390625 
Q 57.328125 12.15625 50.6875 5.359375 
Q 44.046875 -1.421875 33.015625 -1.421875 
Q 20.359375 -1.421875 13.671875 8.265625 
Q 6.984375 17.96875 6.984375 36.375 
Q 6.984375 53.65625 15.1875 63.9375 
Q 23.390625 74.21875 37.203125 74.21875 
Q 40.921875 74.21875 44.703125 73.484375 
Q 48.484375 72.75 52.59375 71.296875 
z
" id="DejaVuSans-36"/>
      </defs>
      <g transform="translate(243.275 322.182437)scale(0.1 -0.1)">
       <use xlink:href="#DejaVuSans-31"/>
       <use x="63.623047" xlink:href="#DejaVuSans-36"/>
       <use x="127.246094" xlink:href="#DejaVuSans-30"/>
       <use x="190.869141" xlink:href="#DejaVuSans-30"/>
      </g>
     </g>
    </g>
    <g id="xtick_7">
     <g id="line2d_13">
      <path clip-path="url(#p4af2d8923e)" d="M 295.68 307.584 
L 295.68 41.472 
" style="fill:none;stroke:#b0b0b0;stroke-linecap:square;stroke-width:0.8;"/>
     </g>
     <g id="line2d_14">
      <g>
       <use style="stroke:#000000;stroke-width:0.8;" x="295.68" xlink:href="#maca7dfc341" y="307.584"/>
      </g>
     </g>
     <g id="text_7">
      <!-- 1700 -->
      <defs>
       <path d="M 8.203125 72.90625 
L 55.078125 72.90625 
L 55.078125 68.703125 
L 28.609375 0 
L 18.3125 0 
L 43.21875 64.59375 
L 8.203125 64.59375 
z
" id="DejaVuSans-37"/>
      </defs>
      <g transform="translate(282.955 322.182437)scale(0.1 -0.1)">
       <use xlink:href="#DejaVuSans-31"/>
       <use x="63.623047" xlink:href="#DejaVuSans-37"/>
       <use x="127.246094" xlink:href="#DejaVuSans-30"/>
       <use x="190.869141" xlink:href="#DejaVuSans-30"/>
      </g>
     </g>
    </g>
    <g id="xtick_8">
     <g id="line2d_15">
      <path clip-path="url(#p4af2d8923e)" d="M 335.36 307.584 
L 335.36 41.472 
" style="fill:none;stroke:#b0b0b0;stroke-linecap:square;stroke-width:0.8;"/>
     </g>
     <g id="line2d_16">
      <g>
       <use style="stroke:#000000;stroke-width:0.8;" x="335.36" xlink:href="#maca7dfc341" y="307.584"/>
      </g>
     </g>
     <g id="text_8">
      <!-- 1800 -->
      <defs>
       <path d="M 31.78125 34.625 
Q 24.75 34.625 20.71875 30.859375 
Q 16.703125 27.09375 16.703125 20.515625 
Q 16.703125 13.921875 20.71875 10.15625 
Q 24.75 6.390625 31.78125 6.390625 
Q 38.8125 6.390625 42.859375 10.171875 
Q 46.921875 13.96875 46.921875 20.515625 
Q 46.921875 27.09375 42.890625 30.859375 
Q 38.875 34.625 31.78125 34.625 
z
M 21.921875 38.8125 
Q 15.578125 40.375 12.03125 44.71875 
Q 8.5 49.078125 8.5 55.328125 
Q 8.5 64.0625 14.71875 69.140625 
Q 20.953125 74.21875 31.78125 74.21875 
Q 42.671875 74.21875 48.875 69.140625 
Q 55.078125 64.0625 55.078125 55.328125 
Q 55.078125 49.078125 51.53125 44.71875 
Q 48 40.375 41.703125 38.8125 
Q 48.828125 37.15625 52.796875 32.3125 
Q 56.78125 27.484375 56.78125 20.515625 
Q 56.78125 9.90625 50.3125 4.234375 
Q 43.84375 -1.421875 31.78125 -1.421875 
Q 19.734375 -1.421875 13.25 4.234375 
Q 6.78125 9.90625 6.78125 20.515625 
Q 6.78125 27.484375 10.78125 32.3125 
Q 14.796875 37.15625 21.921875 38.8125 
z
M 18.3125 54.390625 
Q 18.3125 48.734375 21.84375 45.5625 
Q 25.390625 42.390625 31.78125 42.390625 
Q 38.140625 42.390625 41.71875 45.5625 
Q 45.3125 48.734375 45.3125 54.390625 
Q 45.3125 60.0625 41.71875 63.234375 
Q 38.140625 66.40625 31.78125 66.40625 
Q 25.390625 66.40625 21.84375 63.234375 
Q 18.3125 60.0625 18.3125 54.390625 
z
" id="DejaVuSans-38"/>
      </defs>
      <g transform="translate(322.635 322.182437)scale(0.1 -0.1)">
       <use xlink:href="#DejaVuSans-31"/>
       <use x="63.623047" xlink:href="#DejaVuSans-38"/>
       <use x="127.246094" xlink:href="#DejaVuSans-30"/>
       <use x="190.869141" xlink:href="#DejaVuSans-30"/>
      </g>
     </g>
    </g>
    <g id="xtick_9">
     <g id="line2d_17">
      <path clip-path="url(#p4af2d8923e)" d="M 375.04 307.584 
L 375.04 41.472 
" style="fill:none;stroke:#b0b0b0;stroke-linecap:square;stroke-width:0.8;"/>
     </g>
     <g id="line2d_18">
      <g>
       <use style="stroke:#000000;stroke-width:0.8;" x="375.04" xlink:href="#maca7dfc341" y="307.584"/>
      </g>
     </g>
     <g id="text_9">
      <!-- 1900 -->
      <defs>
       <path d="M 10.984375 1.515625 
L 10.984375 10.5 
Q 14.703125 8.734375 18.5 7.8125 
Q 22.3125 6.890625 25.984375 6.890625 
Q 35.75 6.890625 40.890625 13.453125 
Q 46.046875 20.015625 46.78125 33.40625 
Q 43.953125 29.203125 39.59375 26.953125 
Q 35.25 24.703125 29.984375 24.703125 
Q 19.046875 24.703125 12.671875 31.3125 
Q 6.296875 37.9375 6.296875 49.421875 
Q 6.296875 60.640625 12.9375 67.421875 
Q 19.578125 74.21875 30.609375 74.21875 
Q 43.265625 74.21875 49.921875 64.515625 
Q 56.59375 54.828125 56.59375 36.375 
Q 56.59375 19.140625 48.40625 8.859375 
Q 40.234375 -1.421875 26.421875 -1.421875 
Q 22.703125 -1.421875 18.890625 -0.6875 
Q 15.09375 0.046875 10.984375 1.515625 
z
M 30.609375 32.421875 
Q 37.25 32.421875 41.125 36.953125 
Q 45.015625 41.5 45.015625 49.421875 
Q 45.015625 57.28125 41.125 61.84375 
Q 37.25 66.40625 30.609375 66.40625 
Q 23.96875 66.40625 20.09375 61.84375 
Q 16.21875 57.28125 16.21875 49.421875 
Q 16.21875 41.5 20.09375 36.953125 
Q 23.96875 32.421875 30.609375 32.421875 
z
" id="DejaVuSans-39"/>
      </defs>
      <g transform="translate(362.315 322.182437)scale(0.1 -0.1)">
       <use xlink:href="#DejaVuSans-31"/>
       <use x="63.623047" xlink:href="#DejaVuSans-39"/>
       <use x="127.246094" xlink:href="#DejaVuSans-30"/>
       <use x="190.869141" xlink:href="#DejaVuSans-30"/>
      </g>
     </g>
    </g>
    <g id="xtick_10">
     <g id="line2d_19">
      <path clip-path="url(#p4af2d8923e)" d="M 414.72 307.584 
L 414.72 41.472 
" style="fill:none;stroke:#b0b0b0;stroke-linecap:square;stroke-width:0.8;"/>
     </g>
     <g id="line2d_20">
      <g>
       <use style="stroke:#000000;stroke-width:0.8;" x="414.72" xlink:href="#maca7dfc341" y="307.584"/>
      </g>
     </g>
     <g id="text_10">
      <!-- 2000 -->
      <g transform="translate(401.995 322.182437)scale(0.1 -0.1)">
       <use xlink:href="#DejaVuSans-32"/>
       <use x="63.623047" xlink:href="#DejaVuSans-30"/>
       <use x="127.246094" xlink:href="#DejaVuSans-30"/>
       <use x="190.869141" xlink:href="#DejaVuSans-30"/>
      </g>
     </g>
    </g>
    <g id="text_11">
     <!-- t (s) -->
     <defs>
      <path d="M 18.3125 70.21875 
L 18.3125 54.6875 
L 36.8125 54.6875 
L 36.8125 47.703125 
L 18.3125 47.703125 
L 18.3125 18.015625 
Q 18.3125 11.328125 20.140625 9.421875 
Q 21.96875 7.515625 27.59375 7.515625 
L 36.8125 7.515625 
L 36.8125 0 
L 27.59375 0 
Q 17.1875 0 13.234375 3.875 
Q 9.28125 7.765625 9.28125 18.015625 
L 9.28125 47.703125 
L 2.6875 47.703125 
L 2.6875 54.6875 
L 9.28125 54.6875 
L 9.28125 70.21875 
z
" id="DejaVuSans-74"/>
      <path id="DejaVuSans-20"/>
      <path d="M 31 75.875 
Q 24.46875 64.65625 21.28125 53.65625 
Q 18.109375 42.671875 18.109375 31.390625 
Q 18.109375 20.125 21.3125 9.0625 
Q 24.515625 -2 31 -13.1875 
L 23.1875 -13.1875 
Q 15.875 -1.703125 12.234375 9.375 
Q 8.59375 20.453125 8.59375 31.390625 
Q 8.59375 42.28125 12.203125 53.3125 
Q 15.828125 64.359375 23.1875 75.875 
z
" id="DejaVuSans-28"/>
      <path d="M 44.28125 53.078125 
L 44.28125 44.578125 
Q 40.484375 46.53125 36.375 47.5 
Q 32.28125 48.484375 27.875 48.484375 
Q 21.1875 48.484375 17.84375 46.4375 
Q 14.5 44.390625 14.5 40.28125 
Q 14.5 37.15625 16.890625 35.375 
Q 19.28125 33.59375 26.515625 31.984375 
L 29.59375 31.296875 
Q 39.15625 29.25 43.1875 25.515625 
Q 47.21875 21.78125 47.21875 15.09375 
Q 47.21875 7.46875 41.1875 3.015625 
Q 35.15625 -1.421875 24.609375 -1.421875 
Q 20.21875 -1.421875 15.453125 -0.5625 
Q 10.6875 0.296875 5.421875 2 
L 5.421875 11.28125 
Q 10.40625 8.6875 15.234375 7.390625 
Q 20.0625 6.109375 24.8125 6.109375 
Q 31.15625 6.109375 34.5625 8.28125 
Q 37.984375 10.453125 37.984375 14.40625 
Q 37.984375 18.0625 35.515625 20.015625 
Q 33.0625 21.96875 24.703125 23.78125 
L 21.578125 24.515625 
Q 13.234375 26.265625 9.515625 29.90625 
Q 5.8125 33.546875 5.8125 39.890625 
Q 5.8125 47.609375 11.28125 51.796875 
Q 16.75 56 26.8125 56 
Q 31.78125 56 36.171875 55.265625 
Q 40.578125 54.546875 44.28125 53.078125 
z
" id="DejaVuSans-73"/>
      <path d="M 8.015625 75.875 
L 15.828125 75.875 
Q 23.140625 64.359375 26.78125 53.3125 
Q 30.421875 42.28125 30.421875 31.390625 
Q 30.421875 20.453125 26.78125 9.375 
Q 23.140625 -1.703125 15.828125 -13.1875 
L 8.015625 -13.1875 
Q 14.5 -2 17.703125 9.0625 
Q 20.90625 20.125 20.90625 31.390625 
Q 20.90625 42.671875 17.703125 53.65625 
Q 14.5 64.65625 8.015625 75.875 
z
" id="DejaVuSans-29"/>
     </defs>
     <g transform="translate(226.104531 335.860562)scale(0.1 -0.1)">
      <use xlink:href="#DejaVuSans-74"/>
      <use x="39.208984" xlink:href="#DejaVuSans-20"/>
      <use x="70.996094" xlink:href="#DejaVuSans-28"/>
      <use x="110.009766" xlink:href="#DejaVuSans-73"/>
      <use x="162.109375" xlink:href="#DejaVuSans-29"/>
     </g>
    </g>
   </g>
   <g id="matplotlib.axis_2">
    <g id="ytick_1">
     <g id="line2d_21">
      <path clip-path="url(#p4af2d8923e)" d="M 57.6 307.584 
L 414.72 307.584 
" style="fill:none;stroke:#b0b0b0;stroke-linecap:square;stroke-width:0.8;"/>
     </g>
     <g id="line2d_22">
      <defs>
       <path d="M 0 0 
L -3.5 0 
" id="m92fce151af" style="stroke:#000000;stroke-width:0.8;"/>
      </defs>
      <g>
       <use style="stroke:#000000;stroke-width:0.8;" x="57.6" xlink:href="#m92fce151af" y="307.584"/>
      </g>
     </g>
     <g id="text_12">
      <!-- $\mathdefault{10^{-1}}$ -->
      <defs>
       <path d="M 10.59375 35.5 
L 73.1875 35.5 
L 73.1875 27.203125 
L 10.59375 27.203125 
z
" id="DejaVuSans-2212"/>
      </defs>
      <g transform="translate(27.1 311.383219)scale(0.1 -0.1)">
       <use transform="translate(0 0.684375)" xlink:href="#DejaVuSans-31"/>
       <use transform="translate(63.623047 0.684375)" xlink:href="#DejaVuSans-30"/>
       <use transform="translate(128.203125 38.965625)scale(0.7)" xlink:href="#DejaVuSans-2212"/>
       <use transform="translate(186.855469 38.965625)scale(0.7)" xlink:href="#DejaVuSans-31"/>
      </g>
     </g>
    </g>
    <g id="ytick_2">
     <g id="line2d_23">
      <path clip-path="url(#p4af2d8923e)" d="M 57.6 241.056 
L 414.72 241.056 
" style="fill:none;stroke:#b0b0b0;stroke-linecap:square;stroke-width:0.8;"/>
     </g>
     <g id="line2d_24">
      <g>
       <use style="stroke:#000000;stroke-width:0.8;" x="57.6" xlink:href="#m92fce151af" y="241.056"/>
      </g>
     </g>
     <g id="text_13">
      <!-- $\mathdefault{10^{0}}$ -->
      <g transform="translate(33 244.855219)scale(0.1 -0.1)">
       <use transform="translate(0 0.765625)" xlink:href="#DejaVuSans-31"/>
       <use transform="translate(63.623047 0.765625)" xlink:href="#DejaVuSans-30"/>
       <use transform="translate(128.203125 39.046875)scale(0.7)" xlink:href="#DejaVuSans-30"/>
      </g>
     </g>
    </g>
    <g id="ytick_3">
     <g id="line2d_25">
      <path clip-path="url(#p4af2d8923e)" d="M 57.6 174.528 
L 414.72 174.528 
" style="fill:none;stroke:#b0b0b0;stroke-linecap:square;stroke-width:0.8;"/>
     </g>
     <g id="line2d_26">
      <g>
       <use style="stroke:#000000;stroke-width:0.8;" x="57.6" xlink:href="#m92fce151af" y="174.528"/>
      </g>
     </g>
     <g id="text_14">
      <!-- $\mathdefault{10^{1}}$ -->
      <g transform="translate(33 178.327219)scale(0.1 -0.1)">
       <use transform="translate(0 0.684375)" xlink:href="#DejaVuSans-31"/>
       <use transform="translate(63.623047 0.684375)" xlink:href="#DejaVuSans-30"/>
       <use transform="translate(128.203125 38.965625)scale(0.7)" xlink:href="#DejaVuSans-31"/>
      </g>
     </g>
    </g>
    <g id="ytick_4">
     <g id="line2d_27">
      <path clip-path="url(#p4af2d8923e)" d="M 57.6 108 
L 414.72 108 
" style="fill:none;stroke:#b0b0b0;stroke-linecap:square;stroke-width:0.8;"/>
     </g>
     <g id="line2d_28">
      <g>
       <use style="stroke:#000000;stroke-width:0.8;" x="57.6" xlink:href="#m92fce151af" y="108"/>
      </g>
     </g>
     <g id="text_15">
      <!-- $\mathdefault{10^{2}}$ -->
      <g transform="translate(33 111.799219)scale(0.1 -0.1)">
       <use transform="translate(0 0.765625)" xlink:href="#DejaVuSans-31"/>
       <use transform="translate(63.623047 0.765625)" xlink:href="#DejaVuSans-30"/>
       <use transform="translate(128.203125 39.046875)scale(0.7)" xlink:href="#DejaVuSans-32"/>
      </g>
     </g>
    </g>
    <g id="ytick_5">
     <g id="line2d_29">
      <path clip-path="url(#p4af2d8923e)" d="M 57.6 41.472 
L 414.72 41.472 
" style="fill:none;stroke:#b0b0b0;stroke-linecap:square;stroke-width:0.8;"/>
     </g>
     <g id="line2d_30">
      <g>
       <use style="stroke:#000000;stroke-width:0.8;" x="57.6" xlink:href="#m92fce151af" y="41.472"/>
      </g>
     </g>
     <g id="text_16">
      <!-- $\mathdefault{10^{3}}$ -->
      <g transform="translate(33 45.271219)scale(0.1 -0.1)">
       <use transform="translate(0 0.765625)" xlink:href="#DejaVuSans-31"/>
       <use transform="translate(63.623047 0.765625)" xlink:href="#DejaVuSans-30"/>
       <use transform="translate(128.203125 39.046875)scale(0.7)" xlink:href="#DejaVuSans-33"/>
      </g>
     </g>
    </g>
    <g id="ytick_6">
     <g id="line2d_31">
      <defs>
       <path d="M 0 0 
L -2 0 
" id="mfacd4030b3" style="stroke:#000000;stroke-width:0.6;"/>
      </defs>
      <g>
       <use style="stroke:#000000;stroke-width:0.6;" x="57.6" xlink:href="#mfacd4030b3" y="287.557076"/>
      </g>
     </g>
    </g>
    <g id="ytick_7">
     <g id="line2d_32">
      <g>
       <use style="stroke:#000000;stroke-width:0.6;" x="57.6" xlink:href="#mfacd4030b3" y="275.842077"/>
      </g>
     </g>
    </g>
    <g id="ytick_8">
     <g id="line2d_33">
      <g>
       <use style="stroke:#000000;stroke-width:0.6;" x="57.6" xlink:href="#mfacd4030b3" y="267.530153"/>
      </g>
     </g>
    </g>
    <g id="ytick_9">
     <g id="line2d_34">
      <g>
       <use style="stroke:#000000;stroke-width:0.6;" x="57.6" xlink:href="#mfacd4030b3" y="261.082924"/>
      </g>
     </g>
    </g>
    <g id="ytick_10">
     <g id="line2d_35">
      <g>
       <use style="stroke:#000000;stroke-width:0.6;" x="57.6" xlink:href="#mfacd4030b3" y="255.815154"/>
      </g>
     </g>
    </g>
    <g id="ytick_11">
     <g id="line2d_36">
      <g>
       <use style="stroke:#000000;stroke-width:0.6;" x="57.6" xlink:href="#mfacd4030b3" y="251.361318"/>
      </g>
     </g>
    </g>
    <g id="ytick_12">
     <g id="line2d_37">
      <g>
       <use style="stroke:#000000;stroke-width:0.6;" x="57.6" xlink:href="#mfacd4030b3" y="247.503229"/>
      </g>
     </g>
    </g>
    <g id="ytick_13">
     <g id="line2d_38">
      <g>
       <use style="stroke:#000000;stroke-width:0.6;" x="57.6" xlink:href="#mfacd4030b3" y="244.100154"/>
      </g>
     </g>
    </g>
    <g id="ytick_14">
     <g id="line2d_39">
      <g>
       <use style="stroke:#000000;stroke-width:0.6;" x="57.6" xlink:href="#mfacd4030b3" y="221.029076"/>
      </g>
     </g>
    </g>
    <g id="ytick_15">
     <g id="line2d_40">
      <g>
       <use style="stroke:#000000;stroke-width:0.6;" x="57.6" xlink:href="#mfacd4030b3" y="209.314077"/>
      </g>
     </g>
    </g>
    <g id="ytick_16">
     <g id="line2d_41">
      <g>
       <use style="stroke:#000000;stroke-width:0.6;" x="57.6" xlink:href="#mfacd4030b3" y="201.002153"/>
      </g>
     </g>
    </g>
    <g id="ytick_17">
     <g id="line2d_42">
      <g>
       <use style="stroke:#000000;stroke-width:0.6;" x="57.6" xlink:href="#mfacd4030b3" y="194.554924"/>
      </g>
     </g>
    </g>
    <g id="ytick_18">
     <g id="line2d_43">
      <g>
       <use style="stroke:#000000;stroke-width:0.6;" x="57.6" xlink:href="#mfacd4030b3" y="189.287154"/>
      </g>
     </g>
    </g>
    <g id="ytick_19">
     <g id="line2d_44">
      <g>
       <use style="stroke:#000000;stroke-width:0.6;" x="57.6" xlink:href="#mfacd4030b3" y="184.833318"/>
      </g>
     </g>
    </g>
    <g id="ytick_20">
     <g id="line2d_45">
      <g>
       <use style="stroke:#000000;stroke-width:0.6;" x="57.6" xlink:href="#mfacd4030b3" y="180.975229"/>
      </g>
     </g>
    </g>
    <g id="ytick_21">
     <g id="line2d_46">
      <g>
       <use style="stroke:#000000;stroke-width:0.6;" x="57.6" xlink:href="#mfacd4030b3" y="177.572154"/>
      </g>
     </g>
    </g>
    <g id="ytick_22">
     <g id="line2d_47">
      <g>
       <use style="stroke:#000000;stroke-width:0.6;" x="57.6" xlink:href="#mfacd4030b3" y="154.501076"/>
      </g>
     </g>
    </g>
    <g id="ytick_23">
     <g id="line2d_48">
      <g>
       <use style="stroke:#000000;stroke-width:0.6;" x="57.6" xlink:href="#mfacd4030b3" y="142.786077"/>
      </g>
     </g>
    </g>
    <g id="ytick_24">
     <g id="line2d_49">
      <g>
       <use style="stroke:#000000;stroke-width:0.6;" x="57.6" xlink:href="#mfacd4030b3" y="134.474153"/>
      </g>
     </g>
    </g>
    <g id="ytick_25">
     <g id="line2d_50">
      <g>
       <use style="stroke:#000000;stroke-width:0.6;" x="57.6" xlink:href="#mfacd4030b3" y="128.026924"/>
      </g>
     </g>
    </g>
    <g id="ytick_26">
     <g id="line2d_51">
      <g>
       <use style="stroke:#000000;stroke-width:0.6;" x="57.6" xlink:href="#mfacd4030b3" y="122.759154"/>
      </g>
     </g>
    </g>
    <g id="ytick_27">
     <g id="line2d_52">
      <g>
       <use style="stroke:#000000;stroke-width:0.6;" x="57.6" xlink:href="#mfacd4030b3" y="118.305318"/>
      </g>
     </g>
    </g>
    <g id="ytick_28">
     <g id="line2d_53">
      <g>
       <use style="stroke:#000000;stroke-width:0.6;" x="57.6" xlink:href="#mfacd4030b3" y="114.447229"/>
      </g>
     </g>
    </g>
    <g id="ytick_29">
     <g id="line2d_54">
      <g>
       <use style="stroke:#000000;stroke-width:0.6;" x="57.6" xlink:href="#mfacd4030b3" y="111.044154"/>
      </g>
     </g>
    </g>
    <g id="ytick_30">
     <g id="line2d_55">
      <g>
       <use style="stroke:#000000;stroke-width:0.6;" x="57.6" xlink:href="#mfacd4030b3" y="87.973076"/>
      </g>
     </g>
    </g>
    <g id="ytick_31">
     <g id="line2d_56">
      <g>
       <use style="stroke:#000000;stroke-width:0.6;" x="57.6" xlink:href="#mfacd4030b3" y="76.258077"/>
      </g>
     </g>
    </g>
    <g id="ytick_32">
     <g id="line2d_57">
      <g>
       <use style="stroke:#000000;stroke-width:0.6;" x="57.6" xlink:href="#mfacd4030b3" y="67.946153"/>
      </g>
     </g>
    </g>
    <g id="ytick_33">
     <g id="line2d_58">
      <g>
       <use style="stroke:#000000;stroke-width:0.6;" x="57.6" xlink:href="#mfacd4030b3" y="61.498924"/>
      </g>
     </g>
    </g>
    <g id="ytick_34">
     <g id="line2d_59">
      <g>
       <use style="stroke:#000000;stroke-width:0.6;" x="57.6" xlink:href="#mfacd4030b3" y="56.231154"/>
      </g>
     </g>
    </g>
    <g id="ytick_35">
     <g id="line2d_60">
      <g>
       <use style="stroke:#000000;stroke-width:0.6;" x="57.6" xlink:href="#mfacd4030b3" y="51.777318"/>
      </g>
     </g>
    </g>
    <g id="ytick_36">
     <g id="line2d_61">
      <g>
       <use style="stroke:#000000;stroke-width:0.6;" x="57.6" xlink:href="#mfacd4030b3" y="47.919229"/>
      </g>
     </g>
    </g>
    <g id="ytick_37">
     <g id="line2d_62">
      <g>
       <use style="stroke:#000000;stroke-width:0.6;" x="57.6" xlink:href="#mfacd4030b3" y="44.516154"/>
      </g>
     </g>
    </g>
    <g id="text_17">
     <!-- Resistance (M$\Omega$) -->
     <defs>
      <path d="M 44.390625 34.1875 
Q 47.5625 33.109375 50.5625 29.59375 
Q 53.5625 26.078125 56.59375 19.921875 
L 66.609375 0 
L 56 0 
L 46.6875 18.703125 
Q 43.0625 26.03125 39.671875 28.421875 
Q 36.28125 30.8125 30.421875 30.8125 
L 19.671875 30.8125 
L 19.671875 0 
L 9.8125 0 
L 9.8125 72.90625 
L 32.078125 72.90625 
Q 44.578125 72.90625 50.734375 67.671875 
Q 56.890625 62.453125 56.890625 51.90625 
Q 56.890625 45.015625 53.6875 40.46875 
Q 50.484375 35.9375 44.390625 34.1875 
z
M 19.671875 64.796875 
L 19.671875 38.921875 
L 32.078125 38.921875 
Q 39.203125 38.921875 42.84375 42.21875 
Q 46.484375 45.515625 46.484375 51.90625 
Q 46.484375 58.296875 42.84375 61.546875 
Q 39.203125 64.796875 32.078125 64.796875 
z
" id="DejaVuSans-52"/>
      <path d="M 56.203125 29.59375 
L 56.203125 25.203125 
L 14.890625 25.203125 
Q 15.484375 15.921875 20.484375 11.0625 
Q 25.484375 6.203125 34.421875 6.203125 
Q 39.59375 6.203125 44.453125 7.46875 
Q 49.3125 8.734375 54.109375 11.28125 
L 54.109375 2.78125 
Q 49.265625 0.734375 44.1875 -0.34375 
Q 39.109375 -1.421875 33.890625 -1.421875 
Q 20.796875 -1.421875 13.15625 6.1875 
Q 5.515625 13.8125 5.515625 26.8125 
Q 5.515625 40.234375 12.765625 48.109375 
Q 20.015625 56 32.328125 56 
Q 43.359375 56 49.78125 48.890625 
Q 56.203125 41.796875 56.203125 29.59375 
z
M 47.21875 32.234375 
Q 47.125 39.59375 43.09375 43.984375 
Q 39.0625 48.390625 32.421875 48.390625 
Q 24.90625 48.390625 20.390625 44.140625 
Q 15.875 39.890625 15.1875 32.171875 
z
" id="DejaVuSans-65"/>
      <path d="M 9.421875 54.6875 
L 18.40625 54.6875 
L 18.40625 0 
L 9.421875 0 
z
M 9.421875 75.984375 
L 18.40625 75.984375 
L 18.40625 64.59375 
L 9.421875 64.59375 
z
" id="DejaVuSans-69"/>
      <path d="M 34.28125 27.484375 
Q 23.390625 27.484375 19.1875 25 
Q 14.984375 22.515625 14.984375 16.5 
Q 14.984375 11.71875 18.140625 8.90625 
Q 21.296875 6.109375 26.703125 6.109375 
Q 34.1875 6.109375 38.703125 11.40625 
Q 43.21875 16.703125 43.21875 25.484375 
L 43.21875 27.484375 
z
M 52.203125 31.203125 
L 52.203125 0 
L 43.21875 0 
L 43.21875 8.296875 
Q 40.140625 3.328125 35.546875 0.953125 
Q 30.953125 -1.421875 24.3125 -1.421875 
Q 15.921875 -1.421875 10.953125 3.296875 
Q 6 8.015625 6 15.921875 
Q 6 25.140625 12.171875 29.828125 
Q 18.359375 34.515625 30.609375 34.515625 
L 43.21875 34.515625 
L 43.21875 35.40625 
Q 43.21875 41.609375 39.140625 45 
Q 35.0625 48.390625 27.6875 48.390625 
Q 23 48.390625 18.546875 47.265625 
Q 14.109375 46.140625 10.015625 43.890625 
L 10.015625 52.203125 
Q 14.9375 54.109375 19.578125 55.046875 
Q 24.21875 56 28.609375 56 
Q 40.484375 56 46.34375 49.84375 
Q 52.203125 43.703125 52.203125 31.203125 
z
" id="DejaVuSans-61"/>
      <path d="M 54.890625 33.015625 
L 54.890625 0 
L 45.90625 0 
L 45.90625 32.71875 
Q 45.90625 40.484375 42.875 44.328125 
Q 39.84375 48.1875 33.796875 48.1875 
Q 26.515625 48.1875 22.3125 43.546875 
Q 18.109375 38.921875 18.109375 30.90625 
L 18.109375 0 
L 9.078125 0 
L 9.078125 54.6875 
L 18.109375 54.6875 
L 18.109375 46.1875 
Q 21.34375 51.125 25.703125 53.5625 
Q 30.078125 56 35.796875 56 
Q 45.21875 56 50.046875 50.171875 
Q 54.890625 44.34375 54.890625 33.015625 
z
" id="DejaVuSans-6e"/>
      <path d="M 48.78125 52.59375 
L 48.78125 44.1875 
Q 44.96875 46.296875 41.140625 47.34375 
Q 37.3125 48.390625 33.40625 48.390625 
Q 24.65625 48.390625 19.8125 42.84375 
Q 14.984375 37.3125 14.984375 27.296875 
Q 14.984375 17.28125 19.8125 11.734375 
Q 24.65625 6.203125 33.40625 6.203125 
Q 37.3125 6.203125 41.140625 7.25 
Q 44.96875 8.296875 48.78125 10.40625 
L 48.78125 2.09375 
Q 45.015625 0.34375 40.984375 -0.53125 
Q 36.96875 -1.421875 32.421875 -1.421875 
Q 20.0625 -1.421875 12.78125 6.34375 
Q 5.515625 14.109375 5.515625 27.296875 
Q 5.515625 40.671875 12.859375 48.328125 
Q 20.21875 56 33.015625 56 
Q 37.15625 56 41.109375 55.140625 
Q 45.0625 54.296875 48.78125 52.59375 
z
" id="DejaVuSans-63"/>
      <path d="M 9.8125 72.90625 
L 24.515625 72.90625 
L 43.109375 23.296875 
L 61.8125 72.90625 
L 76.515625 72.90625 
L 76.515625 0 
L 66.890625 0 
L 66.890625 64.015625 
L 48.09375 14.015625 
L 38.1875 14.015625 
L 19.390625 64.015625 
L 19.390625 0 
L 9.8125 0 
z
" id="DejaVuSans-4d"/>
      <path d="M 72.609375 8.6875 
L 72.609375 0 
L 43.3125 0 
L 43.3125 8.6875 
Q 51.953125 13.421875 56.78125 21.53125 
Q 61.625 29.640625 61.625 39.5 
Q 61.625 51.21875 55.171875 58.296875 
Q 48.734375 65.375 38.1875 65.375 
Q 27.640625 65.375 21.171875 58.265625 
Q 14.703125 51.171875 14.703125 39.5 
Q 14.703125 29.640625 19.53125 21.53125 
Q 24.421875 13.421875 33.109375 8.6875 
L 33.109375 0 
L 3.8125 0 
L 3.8125 8.6875 
L 19.390625 8.6875 
Q 11.671875 15.484375 8.109375 22.75 
Q 4.59375 30.03125 4.59375 39.015625 
Q 4.59375 54.546875 13.96875 64.15625 
Q 23.296875 73.78125 38.1875 73.78125 
Q 52.984375 73.78125 62.40625 64.15625 
Q 71.78125 54.59375 71.78125 39.5 
Q 71.78125 30.03125 68.3125 22.796875 
Q 64.84375 15.578125 56.984375 8.6875 
z
" id="DejaVuSans-3a9"/>
     </defs>
     <g transform="translate(21.020312 215.328)rotate(-90)scale(0.1 -0.1)">
      <use transform="translate(0 0.015625)" xlink:href="#DejaVuSans-52"/>
      <use transform="translate(69.482422 0.015625)" xlink:href="#DejaVuSans-65"/>
      <use transform="translate(131.005859 0.015625)" xlink:href="#DejaVuSans-73"/>
      <use transform="translate(183.105469 0.015625)" xlink:href="#DejaVuSans-69"/>
      <use transform="translate(210.888672 0.015625)" xlink:href="#DejaVuSans-73"/>
      <use transform="translate(262.988281 0.015625)" xlink:href="#DejaVuSans-74"/>
      <use transform="translate(302.197266 0.015625)" xlink:href="#DejaVuSans-61"/>
      <use transform="translate(363.476562 0.015625)" xlink:href="#DejaVuSans-6e"/>
      <use transform="translate(426.855469 0.015625)" xlink:href="#DejaVuSans-63"/>
      <use transform="translate(481.835938 0.015625)" xlink:href="#DejaVuSans-65"/>
      <use transform="translate(543.359375 0.015625)" xlink:href="#DejaVuSans-20"/>
      <use transform="translate(575.146484 0.015625)" xlink:href="#DejaVuSans-28"/>
      <use transform="translate(614.160156 0.015625)" xlink:href="#DejaVuSans-4d"/>
      <use transform="translate(700.439453 0.015625)" xlink:href="#DejaVuSans-3a9"/>
      <use transform="translate(776.855469 0.015625)" xlink:href="#DejaVuSans-29"/>
     </g>
    </g>
   </g>
   <g id="line2d_63">
    <path clip-path="url(#p4af2d8923e)" d="M 57.210342 262.470727 
L 57.607142 262.057077 
L 58.400742 261.65235 
L 58.797542 261.314522 
L 59.194342 260.828571 
L 60.781542 259.682341 
L 61.178342 259.375616 
L 61.971942 258.42367 
L 63.162342 257.535638 
L 63.559142 257.078784 
L 64.352742 256.585686 
L 64.749542 256.132307 
L 66.733542 255.473572 
L 68.320742 255.458498 
L 68.717542 256.340438 
L 69.114342 256.359863 
L 69.511142 257.297577 
L 69.907942 255.537238 
L 70.304742 257.78622 
L 70.701542 257.388324 
L 71.098342 259.058961 
L 71.495142 259.362814 
L 71.891942 255.652695 
L 72.288742 260.60088 
L 72.685542 261.056735 
L 73.082342 261.916238 
L 73.479142 255.724737 
L 74.272742 255.804547 
L 74.669542 263.490851 
L 75.066342 255.860456 
L 76.256742 255.834768 
L 77.050342 255.751191 
L 77.843942 256.071268 
L 78.240742 255.842535 
L 78.637542 256.109048 
L 79.034342 256.713718 
L 79.431142 256.761496 
L 79.827942 257.052236 
L 80.621542 258.350236 
L 81.018342 259.218306 
L 81.811942 260.508257 
L 82.605542 261.876107 
L 83.002342 262.209451 
L 83.795942 263.235992 
L 84.192742 263.633401 
L 84.986342 264.712952 
L 85.383142 265.13652 
L 85.779942 265.296088 
L 86.176742 265.863501 
L 86.970342 266.262081 
L 87.763942 266.963752 
L 88.160742 267.201715 
L 88.954342 267.122148 
L 89.351142 267.306024 
L 89.747942 267.222198 
L 90.144742 266.751983 
L 90.938342 264.93078 
L 91.335142 264.515775 
L 92.128742 262.386256 
L 92.525542 261.970936 
L 92.922342 260.94945 
L 93.319142 265.727056 
L 93.715942 259.668307 
L 94.112742 264.749626 
L 94.509542 258.631098 
L 94.906342 264.39068 
L 96.096742 263.474701 
L 96.493542 257.037007 
L 96.890342 262.77753 
L 97.287142 257.206607 
L 97.683942 257.253593 
L 98.080742 257.767927 
L 98.477542 258.584352 
L 98.874342 258.5403 
L 100.461542 247.151245 
L 100.858342 245.165449 
L 101.255142 226.919486 
L 101.651942 223.359098 
L 102.842342 210.542231 
L 103.239142 208.626203 
L 103.635942 205.582277 
L 104.032742 206.190053 
L 104.429542 208.870042 
L 105.223142 218.14417 
L 106.016742 226.319468 
L 106.810342 231.523866 
L 107.207142 232.337544 
L 107.603942 234.220061 
L 108.397542 236.111693 
L 108.794342 235.929101 
L 109.191142 235.573456 
L 109.984742 232.422411 
L 110.381542 229.470689 
L 111.175142 219.143871 
L 111.968742 206.494963 
L 112.365542 199.477399 
L 112.762342 188.89311 
L 113.159142 183.586222 
L 113.555942 164.555722 
L 113.952742 137.276076 
M 116.333542 130.413875 
L 116.730342 165.747988 
L 117.127142 191.087833 
L 117.523942 203.99101 
L 118.317542 216.958533 
L 118.714342 220.766522 
L 119.904742 228.397281 
L 120.698342 230.748578 
L 121.095142 230.793247 
L 121.491942 230.667185 
L 122.682342 223.912383 
L 124.269542 200.300443 
L 125.063142 182.420481 
L 126.253542 144.412516 
M 130.618739 171.772783 
L 131.412339 199.626774 
L 131.809139 207.569558 
L 132.602739 217.323854 
L 132.999539 220.07199 
L 133.396339 221.903297 
L 133.793139 224.695371 
L 134.586739 227.5937 
L 134.983539 228.274764 
L 135.380339 228.239072 
L 135.777139 228.388398 
L 136.173939 226.008121 
L 136.571136 215.667581 
L 137.364736 201.34965 
L 137.761536 191.416553 
L 138.158733 113.675252 
M 139.74752 91.659915 
L 140.144717 199.088376 
L 140.541914 215.272004 
L 140.93911 222.560087 
L 141.336307 227.113415 
L 141.733504 227.45969 
L 142.130701 222.271917 
L 142.527898 204.350661 
L 142.924698 195.52506 
L 143.321498 182.863349 
L 143.718298 165.711146 
L 144.115098 95.106755 
M 146.893888 172.552837 
L 147.291085 207.404567 
L 148.084685 217.363021 
L 148.481485 219.466538 
L 148.878285 222.462248 
L 149.275085 224.468094 
L 149.671885 225.614041 
L 150.068685 227.12341 
L 150.465485 227.235051 
L 150.862285 226.324633 
L 151.259085 226.956595 
L 152.052685 223.045167 
L 152.449485 218.856458 
L 152.846285 210.637663 
L 153.243085 207.246453 
L 153.639885 200.200809 
L 154.036685 190.484927 
L 154.433485 176.148413 
L 154.830285 153.387296 
M 160.385485 157.797008 
L 160.782285 184.986772 
L 161.179085 196.880833 
L 161.575885 205.347489 
L 162.369485 215.395486 
L 162.766285 217.528047 
L 163.163085 218.908868 
L 163.559885 221.751086 
L 164.750285 225.680347 
L 165.147085 226.436778 
L 165.543885 226.433084 
L 165.940685 226.197558 
L 166.337485 226.356653 
L 166.734285 224.442707 
L 167.131085 223.483452 
L 167.924685 217.888547 
L 168.321485 211.9479 
L 168.718285 208.137037 
L 170.305485 185.550405 
L 171.495885 156.200021 
L 171.892685 136.434111 
M 183.003085 135.863951 
L 183.399885 172.175192 
L 183.796685 187.589837 
L 184.193485 197.177297 
L 184.590285 203.763349 
L 185.383885 210.735931 
L 185.780685 214.10661 
L 186.574285 217.397638 
L 186.971085 218.205398 
L 187.367885 220.499148 
L 187.764685 221.716318 
L 188.161485 224.002398 
L 188.558285 224.324707 
L 188.955085 226.010996 
L 189.351885 225.963695 
L 189.748685 225.478352 
L 190.145485 222.980113 
L 190.542285 222.232994 
L 190.939085 218.102684 
L 191.335885 210.069289 
L 192.129485 189.082303 
L 192.526285 169.624764 
L 192.923085 143.60498 
M 202.446285 94.095315 
L 202.843085 160.400138 
L 203.239885 185.88168 
L 203.636685 196.067337 
L 204.033485 203.386056 
L 205.223885 216.266698 
L 205.620685 217.575797 
L 206.017485 220.872363 
L 206.414285 223.087526 
L 206.811085 224.001585 
L 207.207885 225.408612 
L 207.604685 225.496607 
L 208.001485 224.61714 
L 208.398285 224.718298 
L 208.795085 222.498076 
L 209.191885 221.531084 
L 209.588685 218.787965 
L 209.985485 213.283365 
L 210.779085 205.788577 
L 211.175885 198.649024 
L 211.572685 193.803172 
L 211.969485 187.197712 
L 212.763085 167.422656 
L 213.159885 158.281715 
L 213.556685 138.065818 
L 213.953485 106.245571 
M 226.651482 100.89601 
L 227.048282 147.300806 
L 227.445082 162.852706 
L 227.841882 166.320856 
L 228.238682 167.256527 
L 228.635482 174.138798 
L 229.429082 178.11226 
L 229.825882 180.013391 
L 230.222682 181.088305 
L 230.619482 179.977723 
L 231.016282 181.295206 
L 231.413082 178.050938 
L 231.809882 180.170949 
L 232.206682 179.910735 
L 232.603482 176.427325 
L 233.000282 176.197501 
L 233.397082 174.062596 
L 233.793882 168.324947 
L 234.190682 170.658694 
L 234.587482 168.546215 
L 234.984282 170.250053 
L 235.381082 169.130613 
L 236.174682 165.477065 
L 236.571482 170.610023 
L 236.968282 173.818969 
L 237.365082 178.580283 
L 238.158682 181.684011 
L 238.555482 182.373 
L 238.952282 184.529935 
L 239.349082 184.526309 
L 240.142682 188.701292 
L 240.539482 187.580326 
L 240.936282 187.508226 
L 241.333082 191.174173 
L 241.729882 191.704285 
L 242.126682 193.79752 
L 242.920282 199.40822 
L 243.317082 199.249241 
L 243.713882 201.243723 
L 244.110682 201.431887 
L 244.507482 219.4203 
L 244.904282 203.903365 
L 245.301478 212.37198 
L 245.698278 214.780093 
L 246.491878 200.625994 
L 246.888678 198.390195 
L 247.285478 188.28227 
L 247.682278 189.167025 
L 248.079078 214.96824 
L 248.475878 214.713836 
L 248.872678 214.249806 
L 249.269478 214.672676 
L 249.666278 214.454394 
L 250.063078 213.915334 
L 250.459878 214.335748 
L 250.856678 214.206532 
L 251.253478 214.267943 
L 252.047078 213.803366 
L 252.443878 213.774054 
L 252.840678 213.54615 
L 253.237478 213.498365 
L 253.634278 213.265585 
L 254.031078 212.434634 
L 255.221478 208.66381 
L 255.618278 208.469461 
L 256.015078 207.289219 
L 256.808678 206.01102 
L 257.205478 203.978904 
L 257.602278 207.520824 
L 257.999078 206.498063 
L 258.792678 211.513571 
L 259.189478 214.20556 
L 259.586278 215.236262 
L 259.983078 214.853741 
L 261.570278 221.813217 
L 261.967078 222.606256 
L 262.363878 224.842716 
L 262.760678 224.786303 
L 263.157478 224.113617 
L 263.554278 224.261059 
L 263.951078 223.199519 
L 264.347878 221.16235 
L 264.744678 217.948403 
L 265.141478 212.33855 
L 265.538278 208.320628 
L 265.935078 221.198287 
L 266.331878 185.549299 
L 266.728678 222.426285 
L 267.125478 222.584191 
L 267.522278 137.704913 
M 268.315878 222.697589 
L 268.712678 222.57892 
L 269.109478 222.805968 
L 269.506278 223.262122 
L 269.903078 224.191775 
L 270.299878 222.667691 
L 270.696678 222.657777 
L 271.093478 222.498396 
L 271.490278 222.588628 
L 271.887078 222.392771 
L 272.283878 222.483393 
L 272.680678 222.692792 
L 273.077478 222.679384 
L 273.474278 222.486023 
L 273.871078 222.483566 
L 274.267878 222.634143 
L 274.664678 222.595025 
L 275.458278 222.901173 
L 276.251878 223.82244 
L 276.648678 223.744118 
L 277.045478 224.222832 
L 277.442278 224.518951 
L 277.839078 224.613779 
L 278.632678 224.487744 
L 279.823078 224.342258 
L 280.219878 224.41718 
L 280.616678 224.370295 
L 281.410278 224.641104 
L 281.807078 224.403233 
L 282.203878 224.404625 
L 284.584678 221.133048 
L 284.981478 220.162785 
L 285.775078 219.532108 
L 286.171878 219.020294 
L 286.568678 218.754902 
L 286.965478 218.161124 
L 287.362278 218.208706 
L 287.759078 217.771575 
L 288.155878 218.104037 
L 288.552678 217.746865 
L 288.949478 217.787228 
L 289.346278 217.235464 
L 290.536678 216.803586 
L 290.933478 216.122989 
L 292.520678 214.97886 
L 292.917478 214.050542 
L 293.314278 213.688984 
L 293.711078 212.625002 
L 295.298278 205.220168 
L 296.091878 200.25371 
L 296.488678 199.96831 
L 296.885478 195.887946 
L 297.282278 185.014247 
L 298.075878 170.3056 
L 298.472678 147.198209 
L 298.869478 107.711236 
M 318.317837 167.814956 
L 318.715034 190.505229 
L 319.11223 203.1196 
L 319.50903 200.350418 
L 319.90583 196.078806 
L 320.69943 183.442221 
L 321.09623 174.138065 
L 321.49303 145.734397 
M 335.38103 93.810745 
L 336.17463 137.850956 
L 336.57143 140.294722 
L 338.55543 182.745928 
L 338.95223 186.919348 
L 340.14263 205.265395 
L 341.33303 219.522859 
L 341.72983 221.117232 
L 342.12663 223.783915 
L 342.52343 223.611102 
L 342.92023 224.348184 
L 343.31703 224.10479 
L 343.71383 224.354749 
L 344.50743 222.136173 
L 344.904627 223.930579 
L 345.301427 222.978102 
L 346.095027 221.573059 
L 346.491827 220.368611 
L 348.872627 215.710302 
L 349.269427 214.982759 
L 350.063027 214.713219 
L 350.459827 213.70884 
L 351.253427 212.468971 
L 352.047027 209.92795 
L 352.840627 206.401968 
L 353.237427 205.597458 
L 353.634227 204.198756 
L 354.031424 212.180858 
L 354.428224 211.262307 
L 355.618624 204.14455 
L 356.015424 202.695752 
L 356.809024 196.894043 
L 358.793024 169.185872 
L 359.189824 154.178426 
L 359.586624 119.657069 
M 371.887424 103.301262 
L 372.284224 153.37213 
L 372.681024 170.662931 
L 373.077824 183.110665 
L 373.871424 195.861647 
L 374.268224 202.248501 
L 375.855424 216.089871 
L 377.442624 220.553618 
L 377.839424 220.980873 
L 378.236224 220.864241 
L 378.633024 220.886082 
L 379.029824 221.025233 
L 379.823424 222.806442 
L 380.220224 223.792213 
L 380.617024 223.883816 
L 381.013824 223.494164 
L 381.410624 223.30737 
L 381.807424 223.661947 
L 382.204224 224.278684 
L 382.601024 223.966054 
L 382.997824 223.913116 
L 383.394624 224.32269 
L 383.791424 223.370395 
L 384.585024 222.166761 
L 384.981824 222.066947 
L 385.378624 221.415749 
L 385.775424 220.186196 
L 386.569024 219.307768 
L 386.965824 219.19037 
L 387.759424 218.357255 
L 388.156224 218.322813 
L 388.553024 217.796484 
L 388.949824 217.899539 
L 389.743424 217.077992 
L 390.140224 216.210145 
L 390.537024 215.951334 
L 390.933824 215.184259 
L 391.330624 214.998625 
L 391.727424 215.316262 
L 392.521024 214.564594 
L 393.314624 214.020309 
L 393.711424 213.256542 
L 394.505024 212.778784 
L 394.901824 212.218861 
L 395.298624 212.06149 
L 395.695424 211.629515 
L 396.092224 209.766293 
L 396.885824 207.510328 
L 397.282624 206.729641 
L 398.473024 203.694478 
L 398.869824 206.449686 
L 399.266624 206.3635 
L 399.663424 207.877879 
L 400.060224 205.725696 
L 400.853824 212.443425 
L 401.250624 209.349012 
L 401.647424 169.113225 
L 402.044224 146.982077 
L 402.441024 211.346533 
L 402.838221 183.021642 
L 403.235021 178.134392 
L 403.631821 170.249417 
L 404.028621 156.965883 
L 404.425421 121.198978 
L 404.425421 121.198978 
" style="fill:none;stroke:#1f77b4;stroke-linecap:square;stroke-width:1.5;"/>
   </g>
   <g id="patch_3">
    <path d="M 57.6 307.584 
L 57.6 41.472 
" style="fill:none;stroke:#000000;stroke-linecap:square;stroke-linejoin:miter;stroke-width:0.8;"/>
   </g>
   <g id="patch_4">
    <path d="M 414.72 307.584 
L 414.72 41.472 
" style="fill:none;stroke:#000000;stroke-linecap:square;stroke-linejoin:miter;stroke-width:0.8;"/>
   </g>
   <g id="patch_5">
    <path d="M 57.6 307.584 
L 414.72 307.584 
" style="fill:none;stroke:#000000;stroke-linecap:square;stroke-linejoin:miter;stroke-width:0.8;"/>
   </g>
   <g id="patch_6">
    <path d="M 57.6 41.472 
L 414.72 41.472 
" style="fill:none;stroke:#000000;stroke-linecap:square;stroke-linejoin:miter;stroke-width:0.8;"/>
   </g>
  </g>
 </g>
 <defs>
  <clipPath id="p4af2d8923e">
   <rect height="266.112" width="357.12" x="57.6" y="41.472"/>
  </clipPath>
 </defs>
</svg>
