<?xml version="1.0" encoding="utf-8" standalone="no"?>
<!DOCTYPE svg PUBLIC "-//W3C//DTD SVG 1.1//EN"
  "http://www.w3.org/Graphics/SVG/1.1/DTD/svg11.dtd">
<!-- Created with matplotlib (http://matplotlib.org/) -->
<svg height="345pt" version="1.1" viewBox="0 0 460 345" width="460pt" xmlns="http://www.w3.org/2000/svg" xmlns:xlink="http://www.w3.org/1999/xlink">
 <defs>
  <style type="text/css">
*{stroke-linecap:butt;stroke-linejoin:round;}
  </style>
 </defs>
 <g id="figure_1">
  <g id="patch_1">
   <path d="M 0 345.6 
L 460.8 345.6 
L 460.8 0 
L 0 0 
z
" style="fill:#ffffff;"/>
  </g>
  <g id="axes_1">
   <g id="patch_2">
    <path d="M 57.6 307.584 
L 414.72 307.584 
L 414.72 41.472 
L 57.6 41.472 
z
" style="fill:#ffffff;"/>
   </g>
   <g id="matplotlib.axis_1">
    <g id="xtick_1">
     <g id="line2d_1">
      <defs>
       <path d="M 0 0 
L 0 3.5 
" id="m4fe369e7fd" style="stroke:#000000;stroke-width:0.8;"/>
      </defs>
      <g>
       <use style="stroke:#000000;stroke-width:0.8;" x="73.652037" xlink:href="#m4fe369e7fd" y="307.584"/>
      </g>
     </g>
     <g id="text_1">
      <!-- 0 -->
      <defs>
       <path d="M 31.78125 66.40625 
Q 24.171875 66.40625 20.328125 58.90625 
Q 16.5 51.421875 16.5 36.375 
Q 16.5 21.390625 20.328125 13.890625 
Q 24.171875 6.390625 31.78125 6.390625 
Q 39.453125 6.390625 43.28125 13.890625 
Q 47.125 21.390625 47.125 36.375 
Q 47.125 51.421875 43.28125 58.90625 
Q 39.453125 66.40625 31.78125 66.40625 
z
M 31.78125 74.21875 
Q 44.046875 74.21875 50.515625 64.515625 
Q 56.984375 54.828125 56.984375 36.375 
Q 56.984375 17.96875 50.515625 8.265625 
Q 44.046875 -1.421875 31.78125 -1.421875 
Q 19.53125 -1.421875 13.0625 8.265625 
Q 6.59375 17.96875 6.59375 36.375 
Q 6.59375 54.828125 13.0625 64.515625 
Q 19.53125 74.21875 31.78125 74.21875 
z
" id="DejaVuSans-30"/>
      </defs>
      <g transform="translate(70.470787 322.182437)scale(0.1 -0.1)">
       <use xlink:href="#DejaVuSans-30"/>
      </g>
     </g>
    </g>
    <g id="xtick_2">
     <g id="line2d_2">
      <g>
       <use style="stroke:#000000;stroke-width:0.8;" x="118.779499" xlink:href="#m4fe369e7fd" y="307.584"/>
      </g>
     </g>
     <g id="text_2">
      <!-- 500 -->
      <defs>
       <path d="M 10.796875 72.90625 
L 49.515625 72.90625 
L 49.515625 64.59375 
L 19.828125 64.59375 
L 19.828125 46.734375 
Q 21.96875 47.46875 24.109375 47.828125 
Q 26.265625 48.1875 28.421875 48.1875 
Q 40.625 48.1875 47.75 41.5 
Q 54.890625 34.8125 54.890625 23.390625 
Q 54.890625 11.625 47.5625 5.09375 
Q 40.234375 -1.421875 26.90625 -1.421875 
Q 22.3125 -1.421875 17.546875 -0.640625 
Q 12.796875 0.140625 7.71875 1.703125 
L 7.71875 11.625 
Q 12.109375 9.234375 16.796875 8.0625 
Q 21.484375 6.890625 26.703125 6.890625 
Q 35.15625 6.890625 40.078125 11.328125 
Q 45.015625 15.765625 45.015625 23.390625 
Q 45.015625 31 40.078125 35.4375 
Q 35.15625 39.890625 26.703125 39.890625 
Q 22.75 39.890625 18.8125 39.015625 
Q 14.890625 38.140625 10.796875 36.28125 
z
" id="DejaVuSans-35"/>
      </defs>
      <g transform="translate(109.235749 322.182437)scale(0.1 -0.1)">
       <use xlink:href="#DejaVuSans-35"/>
       <use x="63.623047" xlink:href="#DejaVuSans-30"/>
       <use x="127.246094" xlink:href="#DejaVuSans-30"/>
      </g>
     </g>
    </g>
    <g id="xtick_3">
     <g id="line2d_3">
      <g>
       <use style="stroke:#000000;stroke-width:0.8;" x="163.906962" xlink:href="#m4fe369e7fd" y="307.584"/>
      </g>
     </g>
     <g id="text_3">
      <!-- 1000 -->
      <defs>
       <path d="M 12.40625 8.296875 
L 28.515625 8.296875 
L 28.515625 63.921875 
L 10.984375 60.40625 
L 10.984375 69.390625 
L 28.421875 72.90625 
L 38.28125 72.90625 
L 38.28125 8.296875 
L 54.390625 8.296875 
L 54.390625 0 
L 12.40625 0 
z
" id="DejaVuSans-31"/>
      </defs>
      <g transform="translate(151.181962 322.182437)scale(0.1 -0.1)">
       <use xlink:href="#DejaVuSans-31"/>
       <use x="63.623047" xlink:href="#DejaVuSans-30"/>
       <use x="127.246094" xlink:href="#DejaVuSans-30"/>
       <use x="190.869141" xlink:href="#DejaVuSans-30"/>
      </g>
     </g>
    </g>
    <g id="xtick_4">
     <g id="line2d_4">
      <g>
       <use style="stroke:#000000;stroke-width:0.8;" x="209.034424" xlink:href="#m4fe369e7fd" y="307.584"/>
      </g>
     </g>
     <g id="text_4">
      <!-- 1500 -->
      <g transform="translate(196.309424 322.182437)scale(0.1 -0.1)">
       <use xlink:href="#DejaVuSans-31"/>
       <use x="63.623047" xlink:href="#DejaVuSans-35"/>
       <use x="127.246094" xlink:href="#DejaVuSans-30"/>
       <use x="190.869141" xlink:href="#DejaVuSans-30"/>
      </g>
     </g>
    </g>
    <g id="xtick_5">
     <g id="line2d_5">
      <g>
       <use style="stroke:#000000;stroke-width:0.8;" x="254.161886" xlink:href="#m4fe369e7fd" y="307.584"/>
      </g>
     </g>
     <g id="text_5">
      <!-- 2000 -->
      <defs>
       <path d="M 19.1875 8.296875 
L 53.609375 8.296875 
L 53.609375 0 
L 7.328125 0 
L 7.328125 8.296875 
Q 12.9375 14.109375 22.625 23.890625 
Q 32.328125 33.6875 34.8125 36.53125 
Q 39.546875 41.84375 41.421875 45.53125 
Q 43.3125 49.21875 43.3125 52.78125 
Q 43.3125 58.59375 39.234375 62.25 
Q 35.15625 65.921875 28.609375 65.921875 
Q 23.96875 65.921875 18.8125 64.3125 
Q 13.671875 62.703125 7.8125 59.421875 
L 7.8125 69.390625 
Q 13.765625 71.78125 18.9375 73 
Q 24.125 74.21875 28.421875 74.21875 
Q 39.75 74.21875 46.484375 68.546875 
Q 53.21875 62.890625 53.21875 53.421875 
Q 53.21875 48.921875 51.53125 44.890625 
Q 49.859375 40.875 45.40625 35.40625 
Q 44.1875 33.984375 37.640625 27.21875 
Q 31.109375 20.453125 19.1875 8.296875 
z
" id="DejaVuSans-32"/>
      </defs>
      <g transform="translate(241.436886 322.182437)scale(0.1 -0.1)">
       <use xlink:href="#DejaVuSans-32"/>
       <use x="63.623047" xlink:href="#DejaVuSans-30"/>
       <use x="127.246094" xlink:href="#DejaVuSans-30"/>
       <use x="190.869141" xlink:href="#DejaVuSans-30"/>
      </g>
     </g>
    </g>
    <g id="xtick_6">
     <g id="line2d_6">
      <g>
       <use style="stroke:#000000;stroke-width:0.8;" x="299.289349" xlink:href="#m4fe369e7fd" y="307.584"/>
      </g>
     </g>
     <g id="text_6">
      <!-- 2500 -->
      <g transform="translate(286.564349 322.182437)scale(0.1 -0.1)">
       <use xlink:href="#DejaVuSans-32"/>
       <use x="63.623047" xlink:href="#DejaVuSans-35"/>
       <use x="127.246094" xlink:href="#DejaVuSans-30"/>
       <use x="190.869141" xlink:href="#DejaVuSans-30"/>
      </g>
     </g>
    </g>
    <g id="xtick_7">
     <g id="line2d_7">
      <g>
       <use style="stroke:#000000;stroke-width:0.8;" x="344.416811" xlink:href="#m4fe369e7fd" y="307.584"/>
      </g>
     </g>
     <g id="text_7">
      <!-- 3000 -->
      <defs>
       <path d="M 40.578125 39.3125 
Q 47.65625 37.796875 51.625 33 
Q 55.609375 28.21875 55.609375 21.1875 
Q 55.609375 10.40625 48.1875 4.484375 
Q 40.765625 -1.421875 27.09375 -1.421875 
Q 22.515625 -1.421875 17.65625 -0.515625 
Q 12.796875 0.390625 7.625 2.203125 
L 7.625 11.71875 
Q 11.71875 9.328125 16.59375 8.109375 
Q 21.484375 6.890625 26.8125 6.890625 
Q 36.078125 6.890625 40.9375 10.546875 
Q 45.796875 14.203125 45.796875 21.1875 
Q 45.796875 27.640625 41.28125 31.265625 
Q 36.765625 34.90625 28.71875 34.90625 
L 20.21875 34.90625 
L 20.21875 43.015625 
L 29.109375 43.015625 
Q 36.375 43.015625 40.234375 45.921875 
Q 44.09375 48.828125 44.09375 54.296875 
Q 44.09375 59.90625 40.109375 62.90625 
Q 36.140625 65.921875 28.71875 65.921875 
Q 24.65625 65.921875 20.015625 65.03125 
Q 15.375 64.15625 9.8125 62.3125 
L 9.8125 71.09375 
Q 15.4375 72.65625 20.34375 73.4375 
Q 25.25 74.21875 29.59375 74.21875 
Q 40.828125 74.21875 47.359375 69.109375 
Q 53.90625 64.015625 53.90625 55.328125 
Q 53.90625 49.265625 50.4375 45.09375 
Q 46.96875 40.921875 40.578125 39.3125 
z
" id="DejaVuSans-33"/>
      </defs>
      <g transform="translate(331.691811 322.182437)scale(0.1 -0.1)">
       <use xlink:href="#DejaVuSans-33"/>
       <use x="63.623047" xlink:href="#DejaVuSans-30"/>
       <use x="127.246094" xlink:href="#DejaVuSans-30"/>
       <use x="190.869141" xlink:href="#DejaVuSans-30"/>
      </g>
     </g>
    </g>
    <g id="xtick_8">
     <g id="line2d_8">
      <g>
       <use style="stroke:#000000;stroke-width:0.8;" x="389.544273" xlink:href="#m4fe369e7fd" y="307.584"/>
      </g>
     </g>
     <g id="text_8">
      <!-- 3500 -->
      <g transform="translate(376.819273 322.182437)scale(0.1 -0.1)">
       <use xlink:href="#DejaVuSans-33"/>
       <use x="63.623047" xlink:href="#DejaVuSans-35"/>
       <use x="127.246094" xlink:href="#DejaVuSans-30"/>
       <use x="190.869141" xlink:href="#DejaVuSans-30"/>
      </g>
     </g>
    </g>
    <g id="text_9">
     <!-- t(s) -->
     <defs>
      <path d="M 18.3125 70.21875 
L 18.3125 54.6875 
L 36.8125 54.6875 
L 36.8125 47.703125 
L 18.3125 47.703125 
L 18.3125 18.015625 
Q 18.3125 11.328125 20.140625 9.421875 
Q 21.96875 7.515625 27.59375 7.515625 
L 36.8125 7.515625 
L 36.8125 0 
L 27.59375 0 
Q 17.1875 0 13.234375 3.875 
Q 9.28125 7.765625 9.28125 18.015625 
L 9.28125 47.703125 
L 2.6875 47.703125 
L 2.6875 54.6875 
L 9.28125 54.6875 
L 9.28125 70.21875 
z
" id="DejaVuSans-74"/>
      <path d="M 31 75.875 
Q 24.46875 64.65625 21.28125 53.65625 
Q 18.109375 42.671875 18.109375 31.390625 
Q 18.109375 20.125 21.3125 9.0625 
Q 24.515625 -2 31 -13.1875 
L 23.1875 -13.1875 
Q 15.875 -1.703125 12.234375 9.375 
Q 8.59375 20.453125 8.59375 31.390625 
Q 8.59375 42.28125 12.203125 53.3125 
Q 15.828125 64.359375 23.1875 75.875 
z
" id="DejaVuSans-28"/>
      <path d="M 44.28125 53.078125 
L 44.28125 44.578125 
Q 40.484375 46.53125 36.375 47.5 
Q 32.28125 48.484375 27.875 48.484375 
Q 21.1875 48.484375 17.84375 46.4375 
Q 14.5 44.390625 14.5 40.28125 
Q 14.5 37.15625 16.890625 35.375 
Q 19.28125 33.59375 26.515625 31.984375 
L 29.59375 31.296875 
Q 39.15625 29.25 43.1875 25.515625 
Q 47.21875 21.78125 47.21875 15.09375 
Q 47.21875 7.46875 41.1875 3.015625 
Q 35.15625 -1.421875 24.609375 -1.421875 
Q 20.21875 -1.421875 15.453125 -0.5625 
Q 10.6875 0.296875 5.421875 2 
L 5.421875 11.28125 
Q 10.40625 8.6875 15.234375 7.390625 
Q 20.0625 6.109375 24.8125 6.109375 
Q 31.15625 6.109375 34.5625 8.28125 
Q 37.984375 10.453125 37.984375 14.40625 
Q 37.984375 18.0625 35.515625 20.015625 
Q 33.0625 21.96875 24.703125 23.78125 
L 21.578125 24.515625 
Q 13.234375 26.265625 9.515625 29.90625 
Q 5.8125 33.546875 5.8125 39.890625 
Q 5.8125 47.609375 11.28125 51.796875 
Q 16.75 56 26.8125 56 
Q 31.78125 56 36.171875 55.265625 
Q 40.578125 54.546875 44.28125 53.078125 
z
" id="DejaVuSans-73"/>
      <path d="M 8.015625 75.875 
L 15.828125 75.875 
Q 23.140625 64.359375 26.78125 53.3125 
Q 30.421875 42.28125 30.421875 31.390625 
Q 30.421875 20.453125 26.78125 9.375 
Q 23.140625 -1.703125 15.828125 -13.1875 
L 8.015625 -13.1875 
Q 14.5 -2 17.703125 9.0625 
Q 20.90625 20.125 20.90625 31.390625 
Q 20.90625 42.671875 17.703125 53.65625 
Q 14.5 64.65625 8.015625 75.875 
z
" id="DejaVuSans-29"/>
     </defs>
     <g transform="translate(227.693594 335.860562)scale(0.1 -0.1)">
      <use xlink:href="#DejaVuSans-74"/>
      <use x="39.208984" xlink:href="#DejaVuSans-28"/>
      <use x="78.222656" xlink:href="#DejaVuSans-73"/>
      <use x="130.322266" xlink:href="#DejaVuSans-29"/>
     </g>
    </g>
   </g>
   <g id="matplotlib.axis_2">
    <g id="ytick_1">
     <g id="line2d_9">
      <defs>
       <path d="M 0 0 
L -3.5 0 
" id="mbe21b5d938" style="stroke:#000000;stroke-width:0.8;"/>
      </defs>
      <g>
       <use style="stroke:#000000;stroke-width:0.8;" x="57.6" xlink:href="#mbe21b5d938" y="267.155027"/>
      </g>
     </g>
     <g id="text_10">
      <!-- −0.000004 -->
      <defs>
       <path d="M 10.59375 35.5 
L 73.1875 35.5 
L 73.1875 27.203125 
L 10.59375 27.203125 
z
" id="DejaVuSans-2212"/>
       <path d="M 10.6875 12.40625 
L 21 12.40625 
L 21 0 
L 10.6875 0 
z
" id="DejaVuSans-2e"/>
       <path d="M 37.796875 64.3125 
L 12.890625 25.390625 
L 37.796875 25.390625 
z
M 35.203125 72.90625 
L 47.609375 72.90625 
L 47.609375 25.390625 
L 58.015625 25.390625 
L 58.015625 17.1875 
L 47.609375 17.1875 
L 47.609375 0 
L 37.796875 0 
L 37.796875 17.1875 
L 4.890625 17.1875 
L 4.890625 26.703125 
z
" id="DejaVuSans-34"/>
      </defs>
      <g transform="translate(-5.495313 270.954246)scale(0.1 -0.1)">
       <use xlink:href="#DejaVuSans-2212"/>
       <use x="83.789062" xlink:href="#DejaVuSans-30"/>
       <use x="147.412109" xlink:href="#DejaVuSans-2e"/>
       <use x="179.199219" xlink:href="#DejaVuSans-30"/>
       <use x="242.822266" xlink:href="#DejaVuSans-30"/>
       <use x="306.445312" xlink:href="#DejaVuSans-30"/>
       <use x="370.068359" xlink:href="#DejaVuSans-30"/>
       <use x="433.691406" xlink:href="#DejaVuSans-30"/>
       <use x="497.314453" xlink:href="#DejaVuSans-34"/>
      </g>
     </g>
    </g>
    <g id="ytick_2">
     <g id="line2d_10">
      <g>
       <use style="stroke:#000000;stroke-width:0.8;" x="57.6" xlink:href="#mbe21b5d938" y="223.565838"/>
      </g>
     </g>
     <g id="text_11">
      <!-- −0.000002 -->
      <g transform="translate(-5.495313 227.365057)scale(0.1 -0.1)">
       <use xlink:href="#DejaVuSans-2212"/>
       <use x="83.789062" xlink:href="#DejaVuSans-30"/>
       <use x="147.412109" xlink:href="#DejaVuSans-2e"/>
       <use x="179.199219" xlink:href="#DejaVuSans-30"/>
       <use x="242.822266" xlink:href="#DejaVuSans-30"/>
       <use x="306.445312" xlink:href="#DejaVuSans-30"/>
       <use x="370.068359" xlink:href="#DejaVuSans-30"/>
       <use x="433.691406" xlink:href="#DejaVuSans-30"/>
       <use x="497.314453" xlink:href="#DejaVuSans-32"/>
      </g>
     </g>
    </g>
    <g id="ytick_3">
     <g id="line2d_11">
      <g>
       <use style="stroke:#000000;stroke-width:0.8;" x="57.6" xlink:href="#mbe21b5d938" y="179.976649"/>
      </g>
     </g>
     <g id="text_12">
      <!-- 0.000000 -->
      <g transform="translate(2.884375 183.775867)scale(0.1 -0.1)">
       <use xlink:href="#DejaVuSans-30"/>
       <use x="63.623047" xlink:href="#DejaVuSans-2e"/>
       <use x="95.410156" xlink:href="#DejaVuSans-30"/>
       <use x="159.033203" xlink:href="#DejaVuSans-30"/>
       <use x="222.65625" xlink:href="#DejaVuSans-30"/>
       <use x="286.279297" xlink:href="#DejaVuSans-30"/>
       <use x="349.902344" xlink:href="#DejaVuSans-30"/>
       <use x="413.525391" xlink:href="#DejaVuSans-30"/>
      </g>
     </g>
    </g>
    <g id="ytick_4">
     <g id="line2d_12">
      <g>
       <use style="stroke:#000000;stroke-width:0.8;" x="57.6" xlink:href="#mbe21b5d938" y="136.387459"/>
      </g>
     </g>
     <g id="text_13">
      <!-- 0.000002 -->
      <g transform="translate(2.884375 140.186678)scale(0.1 -0.1)">
       <use xlink:href="#DejaVuSans-30"/>
       <use x="63.623047" xlink:href="#DejaVuSans-2e"/>
       <use x="95.410156" xlink:href="#DejaVuSans-30"/>
       <use x="159.033203" xlink:href="#DejaVuSans-30"/>
       <use x="222.65625" xlink:href="#DejaVuSans-30"/>
       <use x="286.279297" xlink:href="#DejaVuSans-30"/>
       <use x="349.902344" xlink:href="#DejaVuSans-30"/>
       <use x="413.525391" xlink:href="#DejaVuSans-32"/>
      </g>
     </g>
    </g>
    <g id="ytick_5">
     <g id="line2d_13">
      <g>
       <use style="stroke:#000000;stroke-width:0.8;" x="57.6" xlink:href="#mbe21b5d938" y="92.79827"/>
      </g>
     </g>
     <g id="text_14">
      <!-- 0.000004 -->
      <g transform="translate(2.884375 96.597489)scale(0.1 -0.1)">
       <use xlink:href="#DejaVuSans-30"/>
       <use x="63.623047" xlink:href="#DejaVuSans-2e"/>
       <use x="95.410156" xlink:href="#DejaVuSans-30"/>
       <use x="159.033203" xlink:href="#DejaVuSans-30"/>
       <use x="222.65625" xlink:href="#DejaVuSans-30"/>
       <use x="286.279297" xlink:href="#DejaVuSans-30"/>
       <use x="349.902344" xlink:href="#DejaVuSans-30"/>
       <use x="413.525391" xlink:href="#DejaVuSans-34"/>
      </g>
     </g>
    </g>
    <g id="ytick_6">
     <g id="line2d_14">
      <g>
       <use style="stroke:#000000;stroke-width:0.8;" x="57.6" xlink:href="#mbe21b5d938" y="49.209081"/>
      </g>
     </g>
     <g id="text_15">
      <!-- 0.000006 -->
      <defs>
       <path d="M 33.015625 40.375 
Q 26.375 40.375 22.484375 35.828125 
Q 18.609375 31.296875 18.609375 23.390625 
Q 18.609375 15.53125 22.484375 10.953125 
Q 26.375 6.390625 33.015625 6.390625 
Q 39.65625 6.390625 43.53125 10.953125 
Q 47.40625 15.53125 47.40625 23.390625 
Q 47.40625 31.296875 43.53125 35.828125 
Q 39.65625 40.375 33.015625 40.375 
z
M 52.59375 71.296875 
L 52.59375 62.3125 
Q 48.875 64.0625 45.09375 64.984375 
Q 41.3125 65.921875 37.59375 65.921875 
Q 27.828125 65.921875 22.671875 59.328125 
Q 17.53125 52.734375 16.796875 39.40625 
Q 19.671875 43.65625 24.015625 45.921875 
Q 28.375 48.1875 33.59375 48.1875 
Q 44.578125 48.1875 50.953125 41.515625 
Q 57.328125 34.859375 57.328125 23.390625 
Q 57.328125 12.15625 50.6875 5.359375 
Q 44.046875 -1.421875 33.015625 -1.421875 
Q 20.359375 -1.421875 13.671875 8.265625 
Q 6.984375 17.96875 6.984375 36.375 
Q 6.984375 53.65625 15.1875 63.9375 
Q 23.390625 74.21875 37.203125 74.21875 
Q 40.921875 74.21875 44.703125 73.484375 
Q 48.484375 72.75 52.59375 71.296875 
z
" id="DejaVuSans-36"/>
      </defs>
      <g transform="translate(2.884375 53.0083)scale(0.1 -0.1)">
       <use xlink:href="#DejaVuSans-30"/>
       <use x="63.623047" xlink:href="#DejaVuSans-2e"/>
       <use x="95.410156" xlink:href="#DejaVuSans-30"/>
       <use x="159.033203" xlink:href="#DejaVuSans-30"/>
       <use x="222.65625" xlink:href="#DejaVuSans-30"/>
       <use x="286.279297" xlink:href="#DejaVuSans-30"/>
       <use x="349.902344" xlink:href="#DejaVuSans-30"/>
       <use x="413.525391" xlink:href="#DejaVuSans-36"/>
      </g>
     </g>
    </g>
    <g id="text_16">
     <!-- Voltage (V) -->
     <defs>
      <path d="M 28.609375 0 
L 0.78125 72.90625 
L 11.078125 72.90625 
L 34.1875 11.53125 
L 57.328125 72.90625 
L 67.578125 72.90625 
L 39.796875 0 
z
" id="DejaVuSans-56"/>
      <path d="M 30.609375 48.390625 
Q 23.390625 48.390625 19.1875 42.75 
Q 14.984375 37.109375 14.984375 27.296875 
Q 14.984375 17.484375 19.15625 11.84375 
Q 23.34375 6.203125 30.609375 6.203125 
Q 37.796875 6.203125 41.984375 11.859375 
Q 46.1875 17.53125 46.1875 27.296875 
Q 46.1875 37.015625 41.984375 42.703125 
Q 37.796875 48.390625 30.609375 48.390625 
z
M 30.609375 56 
Q 42.328125 56 49.015625 48.375 
Q 55.71875 40.765625 55.71875 27.296875 
Q 55.71875 13.875 49.015625 6.21875 
Q 42.328125 -1.421875 30.609375 -1.421875 
Q 18.84375 -1.421875 12.171875 6.21875 
Q 5.515625 13.875 5.515625 27.296875 
Q 5.515625 40.765625 12.171875 48.375 
Q 18.84375 56 30.609375 56 
z
" id="DejaVuSans-6f"/>
      <path d="M 9.421875 75.984375 
L 18.40625 75.984375 
L 18.40625 0 
L 9.421875 0 
z
" id="DejaVuSans-6c"/>
      <path d="M 34.28125 27.484375 
Q 23.390625 27.484375 19.1875 25 
Q 14.984375 22.515625 14.984375 16.5 
Q 14.984375 11.71875 18.140625 8.90625 
Q 21.296875 6.109375 26.703125 6.109375 
Q 34.1875 6.109375 38.703125 11.40625 
Q 43.21875 16.703125 43.21875 25.484375 
L 43.21875 27.484375 
z
M 52.203125 31.203125 
L 52.203125 0 
L 43.21875 0 
L 43.21875 8.296875 
Q 40.140625 3.328125 35.546875 0.953125 
Q 30.953125 -1.421875 24.3125 -1.421875 
Q 15.921875 -1.421875 10.953125 3.296875 
Q 6 8.015625 6 15.921875 
Q 6 25.140625 12.171875 29.828125 
Q 18.359375 34.515625 30.609375 34.515625 
L 43.21875 34.515625 
L 43.21875 35.40625 
Q 43.21875 41.609375 39.140625 45 
Q 35.0625 48.390625 27.6875 48.390625 
Q 23 48.390625 18.546875 47.265625 
Q 14.109375 46.140625 10.015625 43.890625 
L 10.015625 52.203125 
Q 14.9375 54.109375 19.578125 55.046875 
Q 24.21875 56 28.609375 56 
Q 40.484375 56 46.34375 49.84375 
Q 52.203125 43.703125 52.203125 31.203125 
z
" id="DejaVuSans-61"/>
      <path d="M 45.40625 27.984375 
Q 45.40625 37.75 41.375 43.109375 
Q 37.359375 48.484375 30.078125 48.484375 
Q 22.859375 48.484375 18.828125 43.109375 
Q 14.796875 37.75 14.796875 27.984375 
Q 14.796875 18.265625 18.828125 12.890625 
Q 22.859375 7.515625 30.078125 7.515625 
Q 37.359375 7.515625 41.375 12.890625 
Q 45.40625 18.265625 45.40625 27.984375 
z
M 54.390625 6.78125 
Q 54.390625 -7.171875 48.1875 -13.984375 
Q 42 -20.796875 29.203125 -20.796875 
Q 24.46875 -20.796875 20.265625 -20.09375 
Q 16.0625 -19.390625 12.109375 -17.921875 
L 12.109375 -9.1875 
Q 16.0625 -11.328125 19.921875 -12.34375 
Q 23.78125 -13.375 27.78125 -13.375 
Q 36.625 -13.375 41.015625 -8.765625 
Q 45.40625 -4.15625 45.40625 5.171875 
L 45.40625 9.625 
Q 42.625 4.78125 38.28125 2.390625 
Q 33.9375 0 27.875 0 
Q 17.828125 0 11.671875 7.65625 
Q 5.515625 15.328125 5.515625 27.984375 
Q 5.515625 40.671875 11.671875 48.328125 
Q 17.828125 56 27.875 56 
Q 33.9375 56 38.28125 53.609375 
Q 42.625 51.21875 45.40625 46.390625 
L 45.40625 54.6875 
L 54.390625 54.6875 
z
" id="DejaVuSans-67"/>
      <path d="M 56.203125 29.59375 
L 56.203125 25.203125 
L 14.890625 25.203125 
Q 15.484375 15.921875 20.484375 11.0625 
Q 25.484375 6.203125 34.421875 6.203125 
Q 39.59375 6.203125 44.453125 7.46875 
Q 49.3125 8.734375 54.109375 11.28125 
L 54.109375 2.78125 
Q 49.265625 0.734375 44.1875 -0.34375 
Q 39.109375 -1.421875 33.890625 -1.421875 
Q 20.796875 -1.421875 13.15625 6.1875 
Q 5.515625 13.8125 5.515625 26.8125 
Q 5.515625 40.234375 12.765625 48.109375 
Q 20.015625 56 32.328125 56 
Q 43.359375 56 49.78125 48.890625 
Q 56.203125 41.796875 56.203125 29.59375 
z
M 47.21875 32.234375 
Q 47.125 39.59375 43.09375 43.984375 
Q 39.0625 48.390625 32.421875 48.390625 
Q 24.90625 48.390625 20.390625 44.140625 
Q 15.875 39.890625 15.1875 32.171875 
z
" id="DejaVuSans-65"/>
      <path id="DejaVuSans-20"/>
     </defs>
     <g transform="translate(-11.575 202.577219)rotate(-90)scale(0.1 -0.1)">
      <use xlink:href="#DejaVuSans-56"/>
      <use x="68.298828" xlink:href="#DejaVuSans-6f"/>
      <use x="129.480469" xlink:href="#DejaVuSans-6c"/>
      <use x="157.263672" xlink:href="#DejaVuSans-74"/>
      <use x="196.472656" xlink:href="#DejaVuSans-61"/>
      <use x="257.751953" xlink:href="#DejaVuSans-67"/>
      <use x="321.228516" xlink:href="#DejaVuSans-65"/>
      <use x="382.751953" xlink:href="#DejaVuSans-20"/>
      <use x="414.539062" xlink:href="#DejaVuSans-28"/>
      <use x="453.552734" xlink:href="#DejaVuSans-56"/>
      <use x="521.960938" xlink:href="#DejaVuSans-29"/>
     </g>
    </g>
    <g id="text_17">
     <!-- +1e−1 -->
     <defs>
      <path d="M 46 62.703125 
L 46 35.5 
L 73.1875 35.5 
L 73.1875 27.203125 
L 46 27.203125 
L 46 0 
L 37.796875 0 
L 37.796875 27.203125 
L 10.59375 27.203125 
L 10.59375 35.5 
L 37.796875 35.5 
L 37.796875 62.703125 
z
" id="DejaVuSans-2b"/>
     </defs>
     <g transform="translate(57.6 38.472)scale(0.1 -0.1)">
      <use xlink:href="#DejaVuSans-2b"/>
      <use x="83.789062" xlink:href="#DejaVuSans-31"/>
      <use x="147.412109" xlink:href="#DejaVuSans-65"/>
      <use x="208.935547" xlink:href="#DejaVuSans-2212"/>
      <use x="292.724609" xlink:href="#DejaVuSans-31"/>
     </g>
    </g>
   </g>
   <g id="line2d_15">
    <path clip-path="url(#p5db8eebd29)" d="M 73.832727 145.105297 
L 73.922982 199.591784 
L 74.013237 188.694486 
L 74.103492 173.43827 
L 74.193837 184.335568 
L 74.284182 210.489081 
L 74.374528 173.43827 
L 74.555037 203.950703 
L 74.645292 188.694486 
L 74.735547 153.823135 
L 74.825802 208.309622 
L 75.096567 156.002595 
L 75.277167 166.899892 
L 75.457677 225.745297 
L 75.547932 203.950703 
L 75.638187 208.309622 
L 75.728442 190.873946 
L 75.818697 193.053405 
L 75.999206 179.976649 
L 76.179716 214.848 
L 76.269971 125.490162 
L 76.360226 162.540973 
L 76.450481 160.361514 
L 76.630991 151.643676 
L 76.721246 149.464216 
L 76.811501 160.361514 
L 76.901756 118.951784 
L 76.992011 149.464216 
L 77.082266 118.951784 
L 77.172521 121.131243 
L 77.262775 121.131243 
L 77.35303 142.925838 
L 77.443285 140.746378 
L 77.53354 125.490162 
L 77.71405 160.361514 
L 77.804305 147.284757 
L 77.984815 92.79827 
L 78.165325 221.386378 
L 78.25558 203.950703 
L 78.345835 223.565838 
L 78.526344 160.361514 
L 78.616599 158.182054 
L 78.706854 166.899892 
L 78.887364 199.591784 
L 79.067874 145.105297 
L 79.248384 182.156108 
L 79.338639 179.976649 
L 79.428894 214.848 
L 79.519149 145.105297 
L 79.609403 186.515027 
L 79.699658 179.976649 
L 79.789913 188.694486 
L 79.880168 177.797189 
L 80.060678 214.848 
L 80.150933 158.182054 
L 80.241188 219.206919 
L 80.331443 103.695568 
L 80.421698 118.951784 
L 80.511953 210.489081 
L 80.602208 164.720432 
L 80.692463 179.976649 
L 80.782717 175.61773 
L 80.872972 156.002595 
L 80.963227 158.182054 
L 81.053482 169.079351 
L 81.143737 164.720432 
L 81.414502 212.668541 
L 81.504757 184.335568 
L 81.595012 227.924757 
L 81.685267 177.797189 
L 81.775522 223.565838 
L 81.865777 221.386378 
L 81.956032 214.848 
L 82.136541 142.925838 
L 82.226796 195.232865 
L 82.317051 182.156108 
L 82.407306 206.130162 
L 82.497561 195.232865 
L 82.587816 197.412324 
L 82.678071 238.822054 
L 82.858581 156.002595 
L 82.948836 203.950703 
L 83.039091 193.053405 
L 83.129346 90.618811 
L 83.2196 236.642595 
L 83.309855 234.463135 
L 83.40011 258.437189 
L 83.490365 190.873946 
L 83.58062 223.565838 
L 83.670875 190.873946 
L 83.76113 203.950703 
L 83.851385 162.540973 
L 84.212405 236.642595 
L 84.30266 162.540973 
L 84.392914 190.873946 
L 84.663679 151.643676 
L 84.753934 164.720432 
L 84.844189 212.668541 
L 85.114954 116.772324 
L 85.295464 186.515027 
L 85.385719 114.592865 
L 85.475974 195.232865 
L 85.566228 53.568 
L 85.746738 140.746378 
L 85.836993 142.925838 
L 85.927248 105.875027 
L 86.198013 206.130162 
L 86.378523 169.079351 
L 86.468778 212.668541 
L 86.649288 125.490162 
L 86.739543 162.540973 
L 86.829797 158.182054 
L 87.100562 219.206919 
L 87.190817 132.028541 
L 87.281072 179.976649 
L 87.461582 79.721514 
L 87.551837 169.079351 
L 87.642092 118.951784 
L 87.732347 151.643676 
L 87.822602 121.131243 
L 87.912857 173.43827 
L 88.003111 140.746378 
L 88.093366 177.797189 
L 88.183621 140.746378 
L 88.273876 166.899892 
L 88.364131 134.208 
L 88.454386 184.335568 
L 88.544641 164.720432 
L 88.634896 184.335568 
L 88.725151 177.797189 
L 88.815406 247.539892 
L 89.086171 118.951784 
L 89.26668 177.797189 
L 89.356935 164.720432 
L 89.44719 179.976649 
L 89.6277 142.925838 
L 89.717955 188.694486 
L 89.898465 125.490162 
L 89.98872 127.669622 
L 90.16923 201.771243 
L 90.259485 140.746378 
L 90.439994 179.976649 
L 90.530249 142.925838 
L 90.620504 195.232865 
L 90.801014 151.643676 
L 90.981524 173.43827 
L 91.071779 169.079351 
L 91.162034 145.105297 
L 91.252289 171.258811 
L 91.342544 158.182054 
L 91.432799 127.669622 
L 91.613308 221.386378 
L 91.703563 190.873946 
L 91.793818 230.104216 
L 91.884073 212.668541 
L 91.974328 214.848 
L 92.064583 199.591784 
L 92.154838 232.283676 
L 92.245093 219.206919 
L 92.335348 223.565838 
L 92.425603 212.668541 
L 92.515858 156.002595 
L 92.606113 214.848 
L 92.786622 138.566919 
L 92.876877 145.105297 
L 93.057387 212.668541 
L 93.147642 251.898811 
L 93.237897 190.873946 
L 93.418407 260.616649 
L 93.689172 166.899892 
L 93.779427 195.232865 
L 93.869682 164.720432 
L 94.050191 184.335568 
L 94.140446 203.950703 
L 94.230701 142.925838 
L 94.411211 195.232865 
L 94.501466 208.309622 
L 94.591721 201.771243 
L 94.681976 160.361514 
L 94.862486 208.309622 
L 94.952741 208.309622 
L 95.133251 188.694486 
L 95.31376 149.464216 
L 95.404015 162.540973 
L 95.49427 225.745297 
L 95.584525 175.61773 
L 95.67478 177.797189 
L 95.85529 193.053405 
L 95.945545 188.694486 
L 96.0358 136.387459 
L 96.306565 195.232865 
L 96.396819 177.797189 
L 96.487074 195.232865 
L 96.577329 190.873946 
L 96.667584 227.924757 
L 96.757839 221.386378 
L 96.938349 164.720432 
L 97.028604 212.668541 
L 97.299369 164.720432 
L 97.389624 188.694486 
L 97.570133 162.540973 
L 97.660388 171.258811 
L 97.750643 127.669622 
L 97.840898 138.566919 
L 97.931153 134.208 
L 98.021408 158.182054 
L 98.111663 134.208 
L 98.201918 158.182054 
L 98.292173 134.208 
L 98.472683 149.464216 
L 98.653193 110.233946 
L 98.743447 147.284757 
L 98.923957 123.310703 
L 99.014212 145.105297 
L 99.104467 112.413405 
L 99.284977 138.566919 
L 99.375232 201.771243 
L 99.555742 147.284757 
L 99.645997 177.797189 
L 99.736252 169.079351 
L 99.916762 208.309622 
L 100.007016 166.899892 
L 100.097271 227.924757 
L 100.187526 201.771243 
L 100.277781 221.386378 
L 100.368036 153.823135 
L 100.548546 210.489081 
L 100.638801 193.053405 
L 100.729056 190.873946 
L 100.819311 169.079351 
L 100.909566 103.695568 
L 101.090076 182.156108 
L 101.18033 208.309622 
L 101.270585 169.079351 
L 101.36084 206.130162 
L 101.54135 145.105297 
L 101.631605 184.335568 
L 101.72186 145.105297 
L 101.992625 227.924757 
L 102.08288 219.206919 
L 102.173135 195.232865 
L 102.26339 227.924757 
L 102.353644 225.745297 
L 102.443899 234.463135 
L 102.534154 164.720432 
L 102.714664 214.848 
L 102.804919 210.489081 
L 103.075684 151.643676 
L 103.165939 179.976649 
L 103.256194 140.746378 
L 103.346449 142.925838 
L 103.436704 188.694486 
L 103.526959 184.335568 
L 103.617213 177.797189 
L 103.707468 193.053405 
L 103.797723 153.823135 
L 103.887978 247.539892 
L 103.978233 162.540973 
L 104.068488 173.43827 
L 104.158743 123.310703 
L 104.248998 140.746378 
L 104.339253 186.515027 
L 104.519763 121.131243 
L 104.610018 136.387459 
L 104.700273 179.976649 
L 104.880782 156.002595 
L 104.971037 142.925838 
L 105.061292 158.182054 
L 105.151547 145.105297 
L 105.332057 193.053405 
L 105.422312 123.310703 
L 105.512567 156.002595 
L 105.602822 147.284757 
L 105.783332 197.412324 
L 105.873587 125.490162 
L 105.963841 132.028541 
L 106.144351 179.976649 
L 106.234606 184.335568 
L 106.324861 164.720432 
L 106.415116 173.43827 
L 106.505371 151.643676 
L 106.685881 177.797189 
L 106.776136 158.182054 
L 106.866391 173.43827 
L 107.046901 149.464216 
L 107.137155 219.206919 
L 107.22741 212.668541 
L 107.317665 249.719351 
L 107.40792 177.797189 
L 107.498175 227.924757 
L 107.58843 203.950703 
L 107.678685 230.104216 
L 107.76894 219.206919 
L 107.859195 164.720432 
L 107.94945 190.873946 
L 108.039705 156.002595 
L 108.12996 190.873946 
L 108.220215 169.079351 
L 108.31047 201.771243 
L 108.400724 134.208 
L 108.490979 173.43827 
L 108.581234 136.387459 
L 108.671489 182.156108 
L 108.851999 136.387459 
L 109.122764 238.822054 
L 109.213019 230.104216 
L 109.303274 260.616649 
L 109.393529 254.07827 
L 109.754548 164.720432 
L 109.844803 217.027459 
L 109.935058 212.668541 
L 110.025313 160.361514 
L 110.115568 186.515027 
L 110.296078 145.105297 
L 110.566843 177.797189 
L 110.657098 169.079351 
L 110.747352 221.386378 
L 110.837607 105.875027 
L 110.927862 132.028541 
L 111.108372 182.156108 
L 111.198627 169.079351 
L 111.288882 177.797189 
L 111.379137 160.361514 
L 111.469392 188.694486 
L 111.559647 140.746378 
L 111.649902 199.591784 
L 111.830412 162.540973 
L 111.920667 201.771243 
L 112.101176 112.413405 
L 112.191431 162.540973 
L 112.281686 134.208 
L 112.371941 147.284757 
L 112.462196 136.387459 
L 112.552451 182.156108 
L 112.642706 171.258811 
L 112.732961 175.61773 
L 112.913471 134.208 
L 113.003726 162.540973 
L 113.093981 136.387459 
L 113.27449 221.386378 
L 113.545255 197.412324 
L 113.63551 214.848 
L 113.81602 184.335568 
L 113.906275 232.283676 
L 113.99653 184.335568 
L 114.086785 249.719351 
L 114.357549 173.43827 
L 114.447804 164.720432 
L 114.538059 169.079351 
L 114.718569 243.180973 
L 114.808824 241.001514 
L 114.989334 201.771243 
L 115.169844 182.156108 
L 115.350354 175.61773 
L 115.440609 138.566919 
L 115.530863 195.232865 
L 115.621118 186.515027 
L 115.711373 164.720432 
L 115.801628 182.156108 
L 115.891883 116.772324 
L 116.072393 195.232865 
L 116.162648 158.182054 
L 116.343158 206.130162 
L 116.433413 160.361514 
L 116.523668 179.976649 
L 116.613923 147.284757 
L 116.794432 169.079351 
L 116.884687 162.540973 
L 116.974942 173.43827 
L 117.065197 114.592865 
L 117.245707 214.848 
L 117.426217 123.310703 
L 117.516472 182.156108 
L 117.696982 145.105297 
L 117.787237 138.566919 
L 117.877492 145.105297 
L 117.967746 182.156108 
L 118.238511 138.566919 
L 118.328766 145.105297 
L 118.419021 169.079351 
L 118.509276 166.899892 
L 118.689786 142.925838 
L 118.780041 156.002595 
L 118.870296 138.566919 
L 118.960551 177.797189 
L 119.050806 169.079351 
L 119.231315 127.669622 
L 119.32157 190.873946 
L 119.411825 92.79827 
L 119.50208 134.208 
L 119.592335 116.772324 
L 119.68259 147.284757 
L 119.772845 99.336649 
L 119.8631 129.849081 
L 119.953355 99.336649 
L 120.04361 125.490162 
L 120.133865 186.515027 
L 120.22412 86.259892 
L 120.314374 223.565838 
L 120.404629 208.309622 
L 120.494884 212.668541 
L 120.585139 177.797189 
L 120.675394 179.976649 
L 120.855904 236.642595 
L 120.946159 186.515027 
L 121.036414 201.771243 
L 121.216924 188.694486 
L 121.307179 134.208 
L 121.397434 179.976649 
L 121.577943 156.002595 
L 121.758453 166.899892 
L 121.848708 219.206919 
L 121.938963 173.43827 
L 122.029218 177.797189 
L 122.119473 182.156108 
L 122.390238 136.387459 
L 122.480493 179.976649 
L 122.570748 156.002595 
L 122.661003 171.258811 
L 122.841512 230.104216 
L 122.931767 184.335568 
L 123.022022 195.232865 
L 123.112277 171.258811 
L 123.202532 103.695568 
L 123.383042 145.105297 
L 123.473297 134.208 
L 123.563552 92.79827 
L 123.653807 169.079351 
L 123.744062 125.490162 
L 123.834317 134.208 
L 123.924571 184.335568 
L 124.014826 182.156108 
L 124.105081 182.156108 
L 124.195336 173.43827 
L 124.285591 112.413405 
L 124.556356 217.027459 
L 124.646611 201.771243 
L 124.736866 214.848 
L 124.917376 208.309622 
L 125.097886 201.771243 
L 125.278395 217.027459 
L 125.36865 203.950703 
L 125.458905 227.924757 
L 125.639415 173.43827 
L 125.72967 219.206919 
L 125.819925 177.797189 
L 125.91018 190.873946 
L 126.000435 158.182054 
L 126.2712 225.745297 
L 126.361454 203.950703 
L 126.451709 136.387459 
L 126.632219 241.001514 
L 126.722474 195.232865 
L 126.812729 221.386378 
L 126.902984 142.925838 
L 126.993239 162.540973 
L 127.083494 156.002595 
L 127.264004 206.130162 
L 127.354259 156.002595 
L 127.625023 243.180973 
L 127.715278 197.412324 
L 127.895788 243.180973 
L 127.986043 175.61773 
L 128.076298 177.797189 
L 128.166553 199.591784 
L 128.256808 173.43827 
L 128.347063 208.309622 
L 128.527573 190.873946 
L 128.617828 153.823135 
L 128.708082 169.079351 
L 128.798337 160.361514 
L 128.888592 184.335568 
L 129.069102 129.849081 
L 129.159357 241.001514 
L 129.249612 160.361514 
L 129.339867 208.309622 
L 129.430122 145.105297 
L 129.520377 177.797189 
L 129.610632 158.182054 
L 129.700887 175.61773 
L 129.791142 158.182054 
L 129.881397 188.694486 
L 130.242416 92.79827 
L 130.513181 182.156108 
L 130.603436 149.464216 
L 130.964456 234.463135 
L 131.054711 199.591784 
L 131.144965 208.309622 
L 131.23522 158.182054 
L 131.325475 223.565838 
L 131.505985 156.002595 
L 131.686495 197.412324 
L 131.77675 160.361514 
L 131.95726 236.642595 
L 132.047515 193.053405 
L 132.13777 230.104216 
L 132.318279 162.540973 
L 132.408534 182.156108 
L 132.498789 236.642595 
L 132.589044 182.156108 
L 132.679299 241.001514 
L 132.769554 177.797189 
L 132.859809 221.386378 
L 132.950064 182.156108 
L 133.040319 201.771243 
L 133.220829 142.925838 
L 133.401339 223.565838 
L 133.581848 217.027459 
L 133.762358 201.771243 
L 133.852613 208.309622 
L 133.942868 177.797189 
L 134.033123 210.489081 
L 134.123378 190.873946 
L 134.213633 127.669622 
L 134.303888 188.694486 
L 134.394143 97.157189 
L 134.484398 166.899892 
L 134.574653 153.823135 
L 134.664908 179.976649 
L 134.845417 132.028541 
L 134.935672 164.720432 
L 135.025927 142.925838 
L 135.116182 166.899892 
L 135.206437 138.566919 
L 135.296692 177.797189 
L 135.477202 156.002595 
L 135.567457 186.515027 
L 135.657712 142.925838 
L 135.747967 151.643676 
L 135.838222 136.387459 
L 135.928476 142.925838 
L 136.018731 182.156108 
L 136.199241 134.208 
L 136.289496 199.591784 
L 136.379751 171.258811 
L 136.470006 245.360432 
L 136.560261 175.61773 
L 136.650516 177.797189 
L 136.831026 217.027459 
L 136.921281 138.566919 
L 137.011536 238.822054 
L 137.10179 175.61773 
L 137.192045 186.515027 
L 137.2823 184.335568 
L 137.372555 201.771243 
L 137.46281 151.643676 
L 137.64332 256.25773 
L 137.733575 212.668541 
L 137.82383 225.745297 
L 137.914085 169.079351 
L 138.00434 212.668541 
L 138.094595 199.591784 
L 138.18485 219.206919 
L 138.275105 145.105297 
L 138.365359 195.232865 
L 138.455614 184.335568 
L 138.545869 125.490162 
L 138.816634 221.386378 
L 138.997144 164.720432 
L 139.177654 147.284757 
L 139.267909 175.61773 
L 139.358164 149.464216 
L 139.448419 188.694486 
L 139.538673 171.258811 
L 139.628928 179.976649 
L 139.719183 101.516108 
L 139.899693 206.130162 
L 139.989948 169.079351 
L 140.080203 217.027459 
L 140.170458 193.053405 
L 140.350968 121.131243 
L 140.441223 162.540973 
L 140.531478 90.618811 
L 140.621733 221.386378 
L 140.802242 173.43827 
L 140.892497 175.61773 
L 140.982752 195.232865 
L 141.073007 127.669622 
L 141.163262 203.950703 
L 141.253517 160.361514 
L 141.343772 169.079351 
L 141.614537 260.616649 
L 141.704792 214.848 
L 141.795047 247.539892 
L 142.065811 160.361514 
L 142.246321 238.822054 
L 142.336576 175.61773 
L 142.517086 234.463135 
L 142.697596 140.746378 
L 142.787851 186.515027 
L 142.968361 173.43827 
L 143.058616 179.976649 
L 143.14887 151.643676 
L 143.239125 201.771243 
L 143.32938 138.566919 
L 143.50989 225.745297 
L 143.600145 225.745297 
L 143.6904 245.360432 
L 143.780655 193.053405 
L 143.87091 232.283676 
L 143.961165 182.156108 
L 144.23193 227.924757 
L 144.322184 164.720432 
L 144.592949 234.463135 
L 144.773459 160.361514 
L 144.863714 186.515027 
L 144.953969 179.976649 
L 145.044224 153.823135 
L 145.224734 175.61773 
L 145.314989 175.61773 
L 145.495498 203.950703 
L 145.585753 271.513946 
L 145.676008 121.131243 
L 145.766263 145.105297 
L 145.856518 184.335568 
L 146.037028 145.105297 
L 146.127283 175.61773 
L 146.307883 149.464216 
L 146.488393 208.309622 
L 146.578648 162.540973 
L 146.759248 234.463135 
L 146.849503 118.951784 
L 146.939758 217.027459 
L 147.030103 156.002595 
L 147.120358 169.079351 
L 147.300868 173.43827 
L 147.391123 160.361514 
L 147.571633 197.412324 
L 147.661887 173.43827 
L 147.752142 195.232865 
L 147.842397 149.464216 
L 147.932652 156.002595 
L 148.113162 206.130162 
L 148.203417 199.591784 
L 148.293672 140.746378 
L 148.474182 166.899892 
L 148.564437 108.054486 
L 148.744947 179.976649 
L 148.925456 142.925838 
L 149.015711 188.694486 
L 149.105966 179.976649 
L 149.196221 197.412324 
L 149.376731 125.490162 
L 149.466986 153.823135 
L 149.557241 105.875027 
L 149.647496 151.643676 
L 149.737751 140.746378 
L 149.828006 184.335568 
L 149.918261 182.156108 
L 150.008515 169.079351 
L 150.09877 103.695568 
L 150.27928 217.027459 
L 150.369535 136.387459 
L 150.550045 177.797189 
L 150.6403 129.849081 
L 150.82081 210.489081 
L 151.00132 151.643676 
L 151.091575 140.746378 
L 151.272084 160.361514 
L 151.362339 199.591784 
L 151.452594 147.284757 
L 151.633104 214.848 
L 151.723359 188.694486 
L 151.813614 210.489081 
L 151.994124 169.079351 
L 152.084379 179.976649 
L 152.174634 171.258811 
L 152.264889 245.360432 
L 152.355144 179.976649 
L 152.445489 190.873946 
L 152.535744 134.208 
L 152.625999 193.053405 
L 152.806508 151.643676 
L 152.896763 177.797189 
L 152.987018 269.334486 
L 153.167528 210.489081 
L 153.257783 206.130162 
L 153.348038 208.309622 
L 153.528548 245.360432 
L 153.618803 190.873946 
L 153.709058 212.668541 
L 153.799313 203.950703 
L 153.889567 232.283676 
L 153.979822 199.591784 
L 154.070077 210.489081 
L 154.160332 160.361514 
L 154.250587 210.489081 
L 154.611607 134.208 
L 154.701862 203.950703 
L 154.792117 162.540973 
L 154.882372 166.899892 
L 154.972627 190.873946 
L 155.153136 149.464216 
L 155.243391 173.43827 
L 155.333646 164.720432 
L 155.423901 166.899892 
L 155.514156 160.361514 
L 155.694666 186.515027 
L 155.875176 129.849081 
L 155.965431 136.387459 
L 156.055686 206.130162 
L 156.236196 162.540973 
L 156.416705 197.412324 
L 156.50696 177.797189 
L 156.777725 241.001514 
L 156.958235 129.849081 
L 157.04849 132.028541 
L 157.319255 169.079351 
L 157.499764 179.976649 
L 157.590019 166.899892 
L 157.680274 169.079351 
L 157.770529 199.591784 
L 157.860784 166.899892 
L 157.951039 190.873946 
L 158.041294 184.335568 
L 158.131549 219.206919 
L 158.221804 156.002595 
L 158.402314 206.130162 
L 158.582824 173.43827 
L 158.673078 236.642595 
L 158.763333 177.797189 
L 158.853588 208.309622 
L 158.943843 184.335568 
L 159.034098 214.848 
L 159.124353 171.258811 
L 159.214608 184.335568 
L 159.395118 256.25773 
L 159.485373 225.745297 
L 159.575628 245.360432 
L 159.665883 134.208 
L 159.756138 214.848 
L 159.846393 166.899892 
L 159.936647 179.976649 
L 160.026902 214.848 
L 160.207412 125.490162 
L 160.297667 201.771243 
L 160.478177 140.746378 
L 160.658687 188.694486 
L 160.748942 169.079351 
L 160.839197 90.618811 
L 161.019707 186.515027 
L 161.109961 153.823135 
L 161.290471 193.053405 
L 161.470981 136.387459 
L 161.561236 184.335568 
L 161.651491 138.566919 
L 161.832001 195.232865 
L 161.922256 177.797189 
L 162.012511 138.566919 
L 162.283366 219.206919 
L 162.373621 123.310703 
L 162.644385 190.873946 
L 162.824895 127.669622 
L 163.005405 164.720432 
L 163.185915 127.669622 
L 163.27617 129.849081 
L 163.366425 127.669622 
L 163.546935 145.105297 
L 163.63719 140.746378 
L 163.727445 147.284757 
L 163.817699 182.156108 
L 163.907954 173.43827 
L 163.998209 182.156108 
L 164.088464 179.976649 
L 164.268974 140.746378 
L 164.359229 203.950703 
L 164.449484 125.490162 
L 164.539739 171.258811 
L 164.629994 123.310703 
L 164.720249 193.053405 
L 165.081268 97.157189 
L 165.261778 162.540973 
L 165.352033 171.258811 
L 165.442288 138.566919 
L 165.532543 203.950703 
L 165.713053 156.002595 
L 165.893563 221.386378 
L 166.074073 156.002595 
L 166.164328 134.208 
L 166.254582 193.053405 
L 166.435092 149.464216 
L 166.525347 221.386378 
L 166.615602 208.309622 
L 166.705857 199.591784 
L 166.796112 247.539892 
L 166.886367 190.873946 
L 166.976622 254.07827 
L 167.157132 173.43827 
L 167.247387 195.232865 
L 167.337642 142.925838 
L 167.427896 156.002595 
L 167.608406 145.105297 
L 167.698661 225.745297 
L 167.788916 214.848 
L 168.059681 79.721514 
L 168.149936 206.130162 
L 168.240191 134.208 
L 168.330446 162.540973 
L 168.420701 158.182054 
L 168.510956 164.720432 
L 168.60121 132.028541 
L 168.691465 162.540973 
L 168.78172 129.849081 
L 168.871975 184.335568 
L 168.96223 121.131243 
L 169.14274 179.976649 
L 169.32325 116.772324 
L 169.413505 179.976649 
L 169.68427 134.208 
L 169.864779 147.284757 
L 169.955034 125.490162 
L 170.045289 132.028541 
L 170.225799 71.003676 
L 170.406309 162.540973 
L 170.496564 114.592865 
L 170.586819 138.566919 
L 170.677074 118.951784 
L 170.767329 125.490162 
L 170.857584 184.335568 
L 170.947839 169.079351 
L 171.128348 195.232865 
L 171.218603 195.232865 
L 171.308858 197.412324 
L 171.399113 145.105297 
L 171.489368 212.668541 
L 171.669878 162.540973 
L 171.760133 199.591784 
L 171.850388 147.284757 
L 172.030898 212.668541 
L 172.211407 177.797189 
L 172.301662 182.156108 
L 172.391917 118.951784 
L 172.482172 169.079351 
L 172.572427 121.131243 
L 172.662682 173.43827 
L 172.752937 160.361514 
L 172.843192 121.131243 
L 173.023702 153.823135 
L 173.113957 190.873946 
L 173.294467 166.899892 
L 173.384721 182.156108 
L 173.474976 153.823135 
L 173.565231 184.335568 
L 173.655486 151.643676 
L 173.835996 186.515027 
L 173.926251 158.182054 
L 174.016506 186.515027 
L 174.106761 151.643676 
L 174.197016 193.053405 
L 174.287271 123.310703 
L 174.467781 177.797189 
L 174.558036 158.182054 
L 174.64829 195.232865 
L 174.738545 145.105297 
L 174.8288 149.464216 
L 174.919055 160.361514 
L 175.00931 190.873946 
L 175.280075 156.002595 
L 175.460585 193.053405 
L 175.55084 171.258811 
L 175.641095 175.61773 
L 175.73135 197.412324 
L 175.911859 160.361514 
L 176.092369 184.335568 
L 176.272879 121.131243 
L 176.453389 151.643676 
L 176.543644 203.950703 
L 176.633899 173.43827 
L 176.724154 199.591784 
L 176.814409 166.899892 
L 176.994918 230.104216 
L 177.085173 177.797189 
L 177.175428 182.156108 
L 177.355938 138.566919 
L 177.446193 132.028541 
L 177.626703 134.208 
L 177.716958 145.105297 
L 177.807213 171.258811 
L 177.987723 162.540973 
L 178.077978 158.182054 
L 178.168232 132.028541 
L 178.258487 162.540973 
L 178.348742 160.361514 
L 178.438997 153.823135 
L 178.529252 190.873946 
L 178.619507 105.875027 
L 178.709762 160.361514 
L 178.800017 151.643676 
L 178.980527 225.745297 
L 179.070782 223.565838 
L 179.161037 173.43827 
L 179.251292 201.771243 
L 179.431801 151.643676 
L 179.522056 184.335568 
L 179.612311 138.566919 
L 179.702566 177.797189 
L 179.792821 158.182054 
L 179.973331 206.130162 
L 180.153841 134.208 
L 180.244096 182.156108 
L 180.334351 151.643676 
L 180.424606 206.130162 
L 180.514861 197.412324 
L 180.605115 193.053405 
L 180.69537 182.156108 
L 180.785625 212.668541 
L 180.87588 162.540973 
L 180.966135 184.335568 
L 181.146645 127.669622 
L 181.2369 182.156108 
L 181.327155 97.157189 
L 181.507665 156.002595 
L 181.59792 171.258811 
L 181.688175 132.028541 
L 181.778429 151.643676 
L 182.049285 121.131243 
L 182.139539 136.387459 
L 182.229794 118.951784 
L 182.320049 123.310703 
L 182.410304 193.053405 
L 182.500559 190.873946 
L 182.590814 153.823135 
L 182.771324 182.156108 
L 182.861579 136.387459 
L 183.042089 188.694486 
L 183.132344 142.925838 
L 183.403108 188.694486 
L 183.493454 121.131243 
L 183.583708 164.720432 
L 183.673963 134.208 
L 183.854473 164.720432 
L 183.944728 86.259892 
L 184.125238 142.925838 
L 184.215493 125.490162 
L 184.305748 151.643676 
L 184.486258 110.233946 
L 184.757022 160.361514 
L 184.847277 140.746378 
L 184.937532 151.643676 
L 185.027787 116.772324 
L 185.208387 149.464216 
L 185.298642 105.875027 
L 185.388897 164.720432 
L 185.479152 151.643676 
L 185.569407 158.182054 
L 185.659662 186.515027 
L 185.749917 158.182054 
L 185.930427 186.515027 
L 186.110937 169.079351 
L 186.201192 212.668541 
L 186.291446 164.720432 
L 186.381701 221.386378 
L 186.471956 151.643676 
L 186.562211 190.873946 
L 186.652466 186.515027 
L 186.742721 214.848 
L 186.923231 160.361514 
L 187.013486 184.335568 
L 187.103741 249.719351 
L 187.284251 225.745297 
L 187.374506 245.360432 
L 187.555015 203.950703 
L 187.64527 210.489081 
L 187.82578 236.642595 
L 188.00638 203.950703 
L 188.187071 184.335568 
L 188.367671 236.642595 
L 188.548181 182.156108 
L 188.638436 175.61773 
L 188.72869 177.797189 
L 188.818945 138.566919 
L 188.9092 147.284757 
L 188.999455 110.233946 
L 189.179965 234.463135 
L 189.27022 245.360432 
L 189.45073 221.386378 
L 189.540985 251.898811 
L 189.63124 245.360432 
L 189.721495 184.335568 
L 189.81175 243.180973 
L 189.902004 186.515027 
L 189.99235 247.539892 
L 190.17304 171.258811 
L 190.35364 232.283676 
L 190.443895 179.976649 
L 190.89517 245.360432 
L 191.07568 208.309622 
L 191.165934 210.489081 
L 191.256189 184.335568 
L 191.346444 201.771243 
L 191.436699 175.61773 
L 191.526954 108.054486 
L 191.617209 195.232865 
L 191.887974 142.925838 
L 191.978229 195.232865 
L 192.158919 166.899892 
L 192.249174 203.950703 
L 192.339429 116.772324 
L 192.429684 160.361514 
L 192.519939 158.182054 
L 192.700449 186.515027 
L 192.790704 164.720432 
L 192.880959 182.156108 
L 192.971213 123.310703 
L 193.061468 145.105297 
L 193.151723 142.925838 
L 193.241978 121.131243 
L 193.332233 160.361514 
L 193.422578 129.849081 
L 193.512833 162.540973 
L 193.603088 158.182054 
L 193.693343 162.540973 
L 193.783598 158.182054 
L 193.873853 197.412324 
L 193.964108 153.823135 
L 194.054363 182.156108 
L 194.144618 173.43827 
L 194.234873 123.310703 
L 194.325128 134.208 
L 194.415383 149.464216 
L 194.505637 125.490162 
L 194.595892 179.976649 
L 194.686147 160.361514 
L 194.866657 186.515027 
L 195.047257 125.490162 
L 195.137512 138.566919 
L 195.227767 195.232865 
L 195.318022 136.387459 
L 195.498532 186.515027 
L 195.588787 182.156108 
L 195.679042 206.130162 
L 195.769297 188.694486 
L 195.859552 230.104216 
L 195.949806 186.515027 
L 196.040061 227.924757 
L 196.220571 169.079351 
L 196.310826 201.771243 
L 196.401081 193.053405 
L 196.491336 247.539892 
L 196.581591 193.053405 
L 196.671846 256.25773 
L 196.762101 197.412324 
L 196.852356 208.309622 
L 196.942611 166.899892 
L 197.032866 201.771243 
L 197.12312 166.899892 
L 197.30363 199.591784 
L 197.393885 160.361514 
L 197.574395 210.489081 
L 197.66465 160.361514 
L 197.754905 164.720432 
L 197.935415 129.849081 
L 198.115925 182.156108 
L 198.20618 175.61773 
L 198.296435 214.848 
L 198.386689 184.335568 
L 198.567199 251.898811 
L 198.657454 210.489081 
L 198.747709 243.180973 
L 198.837964 201.771243 
L 199.018474 225.745297 
L 199.198984 193.053405 
L 199.289239 227.924757 
L 199.379494 225.745297 
L 199.469749 225.745297 
L 199.560003 219.206919 
L 199.740513 254.07827 
L 199.921113 142.925838 
L 200.011368 214.848 
L 200.101623 177.797189 
L 200.282133 243.180973 
L 200.372388 236.642595 
L 200.462643 212.668541 
L 200.552898 238.822054 
L 200.643153 236.642595 
L 200.733408 195.232865 
L 200.823663 210.489081 
L 200.913918 186.515027 
L 201.004173 197.412324 
L 201.094427 188.694486 
L 201.184682 129.849081 
L 201.274937 166.899892 
L 201.365192 156.002595 
L 201.455447 199.591784 
L 201.545702 153.823135 
L 201.635957 201.771243 
L 201.816467 158.182054 
L 201.906722 177.797189 
L 201.996977 134.208 
L 202.087232 140.746378 
L 202.177487 166.899892 
L 202.267741 123.310703 
L 202.448251 184.335568 
L 202.538506 164.720432 
L 202.628761 195.232865 
L 202.809271 171.258811 
L 202.899526 210.489081 
L 203.080036 127.669622 
L 203.170291 127.669622 
L 203.53131 219.206919 
L 203.621565 160.361514 
L 203.71182 227.924757 
L 203.802075 169.079351 
L 203.89233 214.848 
L 203.982585 206.130162 
L 204.163095 197.412324 
L 204.343605 190.873946 
L 204.43386 164.720432 
L 204.61437 179.976649 
L 204.704624 142.925838 
L 204.885134 182.156108 
L 204.975389 223.565838 
L 205.065644 186.515027 
L 205.155899 223.565838 
L 205.246154 219.206919 
L 205.426664 230.104216 
L 205.607174 193.053405 
L 205.877938 232.283676 
L 206.058448 201.771243 
L 206.148703 195.232865 
L 206.238958 177.797189 
L 206.329213 201.771243 
L 206.509723 190.873946 
L 206.690233 175.61773 
L 206.780488 160.361514 
L 206.870743 230.104216 
L 207.051343 138.566919 
L 207.231853 251.898811 
L 207.322107 249.719351 
L 207.412362 186.515027 
L 207.592872 295.488 
L 207.683127 275.872865 
L 207.773382 169.079351 
L 207.953892 245.360432 
L 208.224657 173.43827 
L 208.314912 206.130162 
L 208.405167 169.079351 
L 208.675931 225.745297 
L 208.766186 210.489081 
L 208.856441 162.540973 
L 209.127206 256.25773 
L 209.217461 203.950703 
L 209.307716 214.848 
L 209.397971 219.206919 
L 209.488226 173.43827 
L 209.578481 197.412324 
L 209.668736 173.43827 
L 209.9395 232.283676 
L 210.029755 158.182054 
L 210.12001 201.771243 
L 210.210265 145.105297 
L 210.30052 164.720432 
L 210.390775 138.566919 
L 210.48103 169.079351 
L 210.571285 147.284757 
L 210.66154 179.976649 
L 210.751795 151.643676 
L 210.84205 212.668541 
L 210.932304 153.823135 
L 211.022559 179.976649 
L 211.112814 151.643676 
L 211.203069 197.412324 
L 211.293324 103.695568 
L 211.383579 175.61773 
L 211.473834 156.002595 
L 211.564089 177.797189 
L 211.654344 145.105297 
L 211.744599 147.284757 
L 211.834854 145.105297 
L 211.925109 158.182054 
L 212.015364 151.643676 
L 212.195873 208.309622 
L 212.286128 156.002595 
L 212.466638 208.309622 
L 212.556893 147.284757 
L 212.647148 197.412324 
L 212.737403 166.899892 
L 213.008168 234.463135 
L 213.098423 223.565838 
L 213.188678 230.104216 
L 213.369187 182.156108 
L 213.459442 184.335568 
L 213.549697 201.771243 
L 213.639952 197.412324 
L 213.820462 160.361514 
L 214.000972 195.232865 
L 214.091227 190.873946 
L 214.181482 193.053405 
L 214.361992 225.745297 
L 214.542501 147.284757 
L 214.632756 173.43827 
L 214.723011 164.720432 
L 214.813266 186.515027 
L 214.903521 160.361514 
L 215.084031 193.053405 
L 215.174286 166.899892 
L 215.264541 175.61773 
L 215.354796 162.540973 
L 215.445051 190.873946 
L 215.535306 179.976649 
L 215.625561 186.515027 
L 215.715906 160.361514 
L 215.806161 182.156108 
L 215.896416 164.720432 
L 215.986671 121.131243 
L 216.16718 195.232865 
L 216.257435 179.976649 
L 216.34769 201.771243 
L 216.437945 169.079351 
L 216.5282 175.61773 
L 216.618455 156.002595 
L 216.798965 208.309622 
L 216.979475 162.540973 
L 217.159985 179.976649 
L 217.25033 217.027459 
L 217.340585 151.643676 
L 217.43084 177.797189 
L 217.611349 166.899892 
L 217.701604 184.335568 
L 217.791859 164.720432 
L 217.882114 195.232865 
L 218.062624 151.643676 
L 218.152879 171.258811 
L 218.243134 158.182054 
L 218.333389 206.130162 
L 218.423644 203.950703 
L 218.513899 164.720432 
L 218.694409 221.386378 
L 218.874918 173.43827 
L 218.965173 230.104216 
L 219.055428 184.335568 
L 219.145683 210.489081 
L 219.235938 166.899892 
L 219.326193 230.104216 
L 219.506703 136.387459 
L 219.596958 151.643676 
L 219.687213 177.797189 
L 219.777468 149.464216 
L 219.867723 177.797189 
L 219.957977 145.105297 
L 220.048232 193.053405 
L 220.138487 136.387459 
L 220.228742 171.258811 
L 220.318997 169.079351 
L 220.409252 153.823135 
L 220.589762 175.61773 
L 220.770272 103.695568 
L 220.950782 151.643676 
L 221.041037 145.105297 
L 221.131291 182.156108 
L 221.221546 160.361514 
L 221.402056 197.412324 
L 221.492311 195.232865 
L 221.582566 153.823135 
L 221.672821 156.002595 
L 221.763076 210.489081 
L 221.853331 153.823135 
L 221.943586 162.540973 
L 222.033841 132.028541 
L 222.214351 210.489081 
L 222.304605 179.976649 
L 222.39486 210.489081 
L 222.485115 169.079351 
L 222.57537 262.796108 
L 222.665625 243.180973 
L 222.75588 201.771243 
L 222.846135 212.668541 
L 222.93639 147.284757 
L 223.026645 158.182054 
L 223.1169 179.976649 
L 223.387665 132.028541 
L 223.47792 193.053405 
L 223.658429 125.490162 
L 223.748684 123.310703 
L 223.929194 197.412324 
L 224.019449 175.61773 
L 224.109704 199.591784 
L 224.199959 190.873946 
L 224.290214 199.591784 
L 224.380469 223.565838 
L 224.560979 162.540973 
L 224.651234 151.643676 
L 224.741488 118.951784 
L 224.831743 173.43827 
L 224.921998 108.054486 
L 225.012253 136.387459 
L 225.102598 127.669622 
L 225.192853 179.976649 
L 225.283108 101.516108 
L 225.463618 173.43827 
L 225.553873 129.849081 
L 225.644128 158.182054 
L 225.734383 118.951784 
L 225.824638 123.310703 
L 225.914893 116.772324 
L 226.005148 138.566919 
L 226.095403 101.516108 
L 226.275912 138.566919 
L 226.366167 129.849081 
L 226.456422 151.643676 
L 226.546677 105.875027 
L 226.727277 201.771243 
L 226.907968 134.208 
L 227.088478 203.950703 
L 227.268987 140.746378 
L 227.449497 197.412324 
L 227.539752 129.849081 
L 227.720262 160.361514 
L 227.810607 132.028541 
L 227.900952 171.258811 
L 227.991298 160.361514 
L 228.081643 123.310703 
L 228.262153 221.386378 
L 228.442662 162.540973 
L 228.532917 214.848 
L 228.623172 201.771243 
L 228.713427 162.540973 
L 228.984192 221.386378 
L 229.074447 219.206919 
L 229.254957 199.591784 
L 229.345302 225.745297 
L 229.435647 169.079351 
L 229.616337 230.104216 
L 229.796847 175.61773 
L 229.887102 173.43827 
L 230.067612 164.720432 
L 230.248122 199.591784 
L 230.338377 166.899892 
L 230.428632 227.924757 
L 230.518887 214.848 
L 230.789651 134.208 
L 230.879906 230.104216 
L 230.970161 136.387459 
L 231.150671 182.156108 
L 231.240926 97.157189 
L 231.511691 171.258811 
L 231.601946 156.002595 
L 231.782456 232.283676 
L 231.872711 138.566919 
L 231.962965 156.002595 
L 232.05322 201.771243 
L 232.143475 199.591784 
L 232.23373 142.925838 
L 232.323985 199.591784 
L 232.41424 184.335568 
L 232.504495 147.284757 
L 232.59475 190.873946 
L 232.685005 171.258811 
L 232.77526 256.25773 
L 232.865515 153.823135 
L 232.95577 186.515027 
L 233.046025 182.156108 
L 233.226534 232.283676 
L 233.316789 136.387459 
L 233.407044 219.206919 
L 233.497299 182.156108 
L 233.587554 193.053405 
L 233.677809 221.386378 
L 233.768064 206.130162 
L 233.858319 160.361514 
L 233.948574 195.232865 
L 234.129264 142.925838 
L 234.219519 179.976649 
L 234.490374 79.721514 
L 234.761139 214.848 
L 234.851394 136.387459 
L 235.031904 173.43827 
L 235.122159 164.720432 
L 235.212414 125.490162 
L 235.302668 179.976649 
L 235.392923 175.61773 
L 235.573433 142.925838 
L 235.663688 169.079351 
L 235.753943 227.924757 
L 235.844288 206.130162 
L 235.934543 156.002595 
L 236.024798 166.899892 
L 236.115053 136.387459 
L 236.205308 221.386378 
L 236.295563 212.668541 
L 236.385818 169.079351 
L 236.656583 227.924757 
L 236.746838 199.591784 
L 236.837092 219.206919 
L 236.927347 212.668541 
L 237.017602 227.924757 
L 237.107857 169.079351 
L 237.378622 258.437189 
L 237.468877 197.412324 
L 237.559132 247.539892 
L 237.649387 188.694486 
L 237.739642 199.591784 
L 237.829897 197.412324 
L 237.920152 164.720432 
L 238.010406 188.694486 
L 238.281171 175.61773 
L 238.371426 223.565838 
L 238.551936 179.976649 
L 238.642191 230.104216 
L 238.732446 162.540973 
L 238.822701 184.335568 
L 238.912956 182.156108 
L 239.003211 134.208 
L 239.093466 138.566919 
L 239.18372 156.002595 
L 239.273975 142.925838 
L 239.36423 175.61773 
L 239.454485 136.387459 
L 239.634995 162.540973 
L 239.815505 227.924757 
L 239.90576 156.002595 
L 240.08627 186.515027 
L 240.176525 147.284757 
L 240.357035 171.258811 
L 240.537544 142.925838 
L 240.627799 188.694486 
L 240.718054 186.515027 
L 240.898564 173.43827 
L 240.988819 151.643676 
L 241.079074 193.053405 
L 241.530349 129.849081 
L 241.710858 149.464216 
L 241.801113 153.823135 
L 241.891368 147.284757 
L 241.981623 210.489081 
L 242.071878 193.053405 
L 242.162133 208.309622 
L 242.342643 145.105297 
L 242.613408 247.539892 
L 242.793917 162.540973 
L 242.884172 223.565838 
L 243.064682 199.591784 
L 243.154937 203.950703 
L 243.245192 223.565838 
L 243.425702 186.515027 
L 243.515957 184.335568 
L 243.606212 193.053405 
L 243.696467 227.924757 
L 243.786812 219.206919 
L 243.877067 227.924757 
L 243.967322 199.591784 
L 244.057577 278.052324 
L 244.238087 206.130162 
L 244.418596 221.386378 
L 244.508851 208.309622 
L 244.599106 214.848 
L 244.689451 123.310703 
L 244.779706 208.309622 
L 244.869961 171.258811 
L 244.960216 212.668541 
L 245.050471 153.823135 
L 245.230981 214.848 
L 245.501746 171.258811 
L 245.682256 236.642595 
L 245.772511 230.104216 
L 245.862765 210.489081 
L 245.95302 221.386378 
L 246.043275 188.694486 
L 246.13353 258.437189 
L 246.31404 223.565838 
L 246.404295 269.334486 
L 246.584805 193.053405 
L 246.67506 256.25773 
L 246.945825 158.182054 
L 247.036079 177.797189 
L 247.126334 160.361514 
L 247.216589 121.131243 
L 247.306844 219.206919 
L 247.397099 123.310703 
L 247.487354 169.079351 
L 247.577609 156.002595 
L 247.758119 247.539892 
L 247.848374 219.206919 
L 247.938629 262.796108 
L 248.028884 190.873946 
L 248.209393 236.642595 
L 248.299648 203.950703 
L 248.389903 208.309622 
L 248.480158 212.668541 
L 248.570413 241.001514 
L 248.931433 116.772324 
L 249.111943 158.182054 
L 249.202198 145.105297 
L 249.472962 182.156108 
L 249.563217 171.258811 
L 249.653472 193.053405 
L 249.743727 177.797189 
L 249.833982 203.950703 
L 250.014492 134.208 
L 250.195002 177.797189 
L 250.285257 164.720432 
L 250.465767 193.053405 
L 250.556022 188.694486 
L 250.646276 153.823135 
L 250.736531 193.053405 
L 250.826786 108.054486 
L 251.007296 149.464216 
L 251.187806 197.412324 
L 251.278061 140.746378 
L 251.458571 197.412324 
L 251.548826 203.950703 
L 251.639081 114.592865 
L 251.729336 123.310703 
L 251.909845 225.745297 
L 252.090355 188.694486 
L 252.18061 182.156108 
L 252.270865 249.719351 
L 252.451375 221.386378 
L 252.54163 238.822054 
L 252.72214 223.565838 
L 252.812395 188.694486 
L 252.992904 256.25773 
L 253.083159 251.898811 
L 253.173414 203.950703 
L 253.263669 243.180973 
L 253.444179 156.002595 
L 253.534434 236.642595 
L 253.624689 175.61773 
L 253.895454 282.411243 
L 254.166218 210.489081 
L 254.256473 214.848 
L 254.346728 225.745297 
L 254.436983 217.027459 
L 254.527238 182.156108 
L 254.617493 219.206919 
L 254.707748 142.925838 
L 254.888258 201.771243 
L 255.249278 134.208 
L 255.339533 129.849081 
L 255.429787 151.643676 
L 255.520042 206.130162 
L 255.610297 199.591784 
L 255.700642 164.720432 
L 255.790897 203.950703 
L 255.881152 177.797189 
L 255.971407 195.232865 
L 256.152007 118.951784 
L 256.242262 169.079351 
L 256.332517 116.772324 
L 256.422772 182.156108 
L 256.513027 177.797189 
L 256.603282 175.61773 
L 256.693537 201.771243 
L 256.783792 193.053405 
L 256.964302 134.208 
L 257.054557 184.335568 
L 257.144812 145.105297 
L 257.325321 190.873946 
L 257.415576 129.849081 
L 257.505831 179.976649 
L 257.596086 156.002595 
L 257.686341 160.361514 
L 257.776596 214.848 
L 257.866851 166.899892 
L 258.227871 258.437189 
L 258.40838 188.694486 
L 258.498635 179.976649 
L 258.679145 199.591784 
L 258.7694 186.515027 
L 259.040165 223.565838 
L 259.31093 166.899892 
L 259.49144 92.79827 
L 259.581694 158.182054 
L 259.671949 140.746378 
L 259.762204 206.130162 
L 259.852459 193.053405 
L 260.032969 145.105297 
L 260.123224 138.566919 
L 260.303734 169.079351 
L 260.393989 166.899892 
L 260.484244 177.797189 
L 260.574499 132.028541 
L 260.664754 247.539892 
L 260.935518 127.669622 
L 261.025773 156.002595 
L 261.116028 179.976649 
L 261.206283 134.208 
L 261.296538 182.156108 
L 261.386793 171.258811 
L 261.567303 153.823135 
L 261.928323 208.309622 
L 262.018577 197.412324 
L 262.108832 199.591784 
L 262.199087 169.079351 
L 262.289342 217.027459 
L 262.379597 169.079351 
L 262.469852 175.61773 
L 262.560107 221.386378 
L 262.650362 147.284757 
L 262.740617 203.950703 
L 263.011382 145.105297 
L 263.101637 197.412324 
L 263.191891 195.232865 
L 263.282146 188.694486 
L 263.372401 193.053405 
L 263.462656 184.335568 
L 263.552911 149.464216 
L 263.643166 188.694486 
L 263.823676 97.157189 
L 263.913931 118.951784 
L 264.004186 201.771243 
L 264.094441 190.873946 
L 264.274951 97.157189 
L 264.365205 132.028541 
L 264.45546 129.849081 
L 264.726225 190.873946 
L 264.81648 186.515027 
L 264.99699 129.849081 
L 265.1775 232.283676 
L 265.267755 190.873946 
L 265.35801 219.206919 
L 265.448265 210.489081 
L 265.628774 156.002595 
L 265.809284 212.668541 
L 265.899539 199.591784 
L 265.989794 201.771243 
L 266.080049 260.616649 
L 266.170304 247.539892 
L 266.350814 173.43827 
L 266.441069 227.924757 
L 266.621579 184.335568 
L 266.711834 179.976649 
L 266.802088 221.386378 
L 266.982598 177.797189 
L 267.072853 195.232865 
L 267.253363 142.925838 
L 267.343618 212.668541 
L 267.433873 199.591784 
L 267.524128 227.924757 
L 267.614383 203.950703 
L 267.704638 210.489081 
L 267.794893 184.335568 
L 267.885148 221.386378 
L 267.975402 169.079351 
L 268.065657 210.489081 
L 268.155912 177.797189 
L 268.246167 184.335568 
L 268.336422 182.156108 
L 268.426677 227.924757 
L 268.516932 203.950703 
L 268.607187 127.669622 
L 268.697442 236.642595 
L 268.877952 206.130162 
L 268.968207 219.206919 
L 269.058462 125.490162 
L 269.148716 173.43827 
L 269.238971 149.464216 
L 269.329226 184.335568 
L 269.419481 177.797189 
L 269.600172 138.566919 
L 269.690517 236.642595 
L 269.871117 138.566919 
L 270.051627 199.591784 
L 270.141882 182.156108 
L 270.232137 199.591784 
L 270.322392 145.105297 
L 270.412646 158.182054 
L 270.502901 108.054486 
L 270.683411 179.976649 
L 270.863921 136.387459 
L 271.134686 219.206919 
L 271.224941 184.335568 
L 271.315196 188.694486 
L 271.405451 190.873946 
L 271.495706 169.079351 
L 271.58596 236.642595 
L 271.676215 166.899892 
L 271.76647 169.079351 
L 271.856725 129.849081 
L 272.12749 217.027459 
L 272.217745 203.950703 
L 272.308 160.361514 
L 272.398255 256.25773 
L 272.48851 245.360432 
L 272.66902 158.182054 
L 272.759275 145.105297 
L 273.030039 210.489081 
L 273.120294 134.208 
L 273.39133 206.130162 
L 273.481675 212.668541 
L 273.57193 210.489081 
L 273.662185 186.515027 
L 273.75244 210.489081 
L 273.842695 206.130162 
L 273.93295 140.746378 
L 274.113459 251.898811 
L 274.203714 227.924757 
L 274.293969 169.079351 
L 274.384224 179.976649 
L 274.474479 230.104216 
L 274.564734 184.335568 
L 274.654989 236.642595 
L 274.745244 186.515027 
L 274.835499 208.309622 
L 274.925754 145.105297 
L 275.016009 173.43827 
L 275.106264 162.540973 
L 275.196518 195.232865 
L 275.286773 136.387459 
L 275.377119 212.668541 
L 275.467464 158.182054 
L 275.557809 190.873946 
L 275.738409 134.208 
L 275.828664 151.643676 
L 276.009174 129.849081 
L 276.099429 171.258811 
L 276.279939 151.643676 
L 276.370194 162.540973 
L 276.460448 136.387459 
L 276.640958 156.002595 
L 276.731213 197.412324 
L 276.821468 162.540973 
L 276.911723 193.053405 
L 277.001978 142.925838 
L 277.092233 190.873946 
L 277.182488 134.208 
L 277.272743 145.105297 
L 277.362998 138.566919 
L 277.453253 108.054486 
L 277.633762 171.258811 
L 277.814272 179.976649 
L 277.904527 203.950703 
L 277.994782 138.566919 
L 278.085037 142.925838 
L 278.175292 136.387459 
L 278.265547 166.899892 
L 278.355802 125.490162 
L 278.626567 182.156108 
L 278.716822 156.002595 
L 278.807076 173.43827 
L 278.897331 158.182054 
L 278.987586 177.797189 
L 279.168096 121.131243 
L 279.348606 195.232865 
L 279.438861 184.335568 
L 279.529116 156.002595 
L 279.799881 195.232865 
L 279.890136 184.335568 
L 279.980391 105.875027 
L 280.1609 184.335568 
L 280.251155 190.873946 
L 280.34141 208.309622 
L 280.431665 158.182054 
L 280.52192 169.079351 
L 280.88294 236.642595 
L 281.153705 173.43827 
L 281.243959 177.797189 
L 281.334214 193.053405 
L 281.424469 158.182054 
L 281.514724 160.361514 
L 281.604979 186.515027 
L 281.965999 97.157189 
L 282.056254 158.182054 
L 282.146509 156.002595 
L 282.236764 151.643676 
L 282.327019 123.310703 
L 282.417273 129.849081 
L 282.597783 149.464216 
L 282.688038 140.746378 
L 282.778293 210.489081 
L 282.868548 132.028541 
L 283.049058 232.283676 
L 283.139313 160.361514 
L 283.229568 201.771243 
L 283.319823 169.079351 
L 283.410078 219.206919 
L 283.500333 173.43827 
L 283.680842 210.489081 
L 283.771097 166.899892 
L 283.861352 234.463135 
L 283.951607 151.643676 
L 284.132117 208.309622 
L 284.222372 206.130162 
L 284.312627 158.182054 
L 284.493137 249.719351 
L 284.583392 221.386378 
L 284.763902 186.515027 
L 284.854156 245.360432 
L 285.124921 195.232865 
L 285.215176 217.027459 
L 285.395776 138.566919 
L 285.486031 210.489081 
L 285.576286 162.540973 
L 285.666541 212.668541 
L 285.756796 169.079351 
L 285.937306 249.719351 
L 286.027561 275.872865 
L 286.208071 241.001514 
L 286.298326 238.822054 
L 286.38858 249.719351 
L 286.56909 210.489081 
L 286.659345 223.565838 
L 286.7496 210.489081 
L 286.839855 219.206919 
L 286.93011 177.797189 
L 287.020365 182.156108 
L 287.11062 201.771243 
L 287.200875 190.873946 
L 287.29113 212.668541 
L 287.561894 149.464216 
L 287.652149 162.540973 
L 287.742404 147.284757 
L 287.832659 175.61773 
L 287.922914 166.899892 
L 288.103424 217.027459 
L 288.283934 225.745297 
L 288.374189 258.437189 
L 288.554699 217.027459 
L 288.644954 260.616649 
L 288.735208 142.925838 
L 288.915718 186.515027 
L 289.096228 121.131243 
L 289.276738 175.61773 
L 289.457248 162.540973 
L 289.547503 147.284757 
L 289.637758 166.899892 
L 289.818268 134.208 
L 289.908523 193.053405 
L 290.089032 125.490162 
L 290.179287 140.746378 
L 290.269542 190.873946 
L 290.540307 116.772324 
L 290.720817 225.745297 
L 290.811072 193.053405 
L 290.901327 195.232865 
L 290.991582 195.232865 
L 291.262346 138.566919 
L 291.442856 223.565838 
L 291.533111 142.925838 
L 291.623366 175.61773 
L 291.894131 127.669622 
L 292.074641 188.694486 
L 292.164896 158.182054 
L 292.255151 188.694486 
L 292.345405 142.925838 
L 292.43566 197.412324 
L 292.525915 179.976649 
L 292.61617 214.848 
L 292.706425 206.130162 
L 292.79668 179.976649 
L 292.886935 186.515027 
L 292.97719 230.104216 
L 293.067445 142.925838 
L 293.1577 201.771243 
L 293.33821 162.540973 
L 293.428465 173.43827 
L 293.518719 227.924757 
L 293.699229 195.232865 
L 293.789484 264.975568 
L 293.969994 129.849081 
L 294.060249 208.309622 
L 294.240759 156.002595 
L 294.692034 260.616649 
L 294.782288 234.463135 
L 294.872543 162.540973 
L 294.962798 208.309622 
L 295.143308 134.208 
L 295.323818 210.489081 
L 295.414073 125.490162 
L 295.594583 219.206919 
L 295.775093 164.720432 
L 295.865348 179.976649 
L 295.955693 186.515027 
L 296.045948 173.43827 
L 296.136203 199.591784 
L 296.316712 162.540973 
L 296.406967 195.232865 
L 296.497222 184.335568 
L 296.587477 134.208 
L 296.858242 169.079351 
L 296.948497 225.745297 
L 297.038752 125.490162 
L 297.129007 162.540973 
L 297.219262 112.413405 
L 297.309517 195.232865 
L 297.399771 116.772324 
L 297.490026 179.976649 
L 297.580372 158.182054 
L 297.670627 166.899892 
L 297.851136 156.002595 
L 297.941391 123.310703 
L 298.212156 173.43827 
L 298.302411 193.053405 
L 298.482921 151.643676 
L 298.663431 169.079351 
L 298.753686 160.361514 
L 298.934286 199.591784 
L 299.024541 175.61773 
L 299.20505 182.156108 
L 299.295305 171.258811 
L 299.475815 197.412324 
L 299.56607 153.823135 
L 299.74658 234.463135 
L 299.836835 173.43827 
L 300.017345 212.668541 
L 300.1076 175.61773 
L 300.197855 206.130162 
L 300.28811 173.43827 
L 300.468619 210.489081 
L 300.649129 177.797189 
L 300.739384 203.950703 
L 300.829639 132.028541 
L 300.919894 247.539892 
L 301.100404 103.695568 
L 301.190659 193.053405 
L 301.280914 156.002595 
L 301.461424 219.206919 
L 301.551679 201.771243 
L 301.641933 282.411243 
L 301.732188 267.155027 
L 301.822443 195.232865 
L 301.912698 219.206919 
L 302.002953 121.131243 
L 302.093208 273.693405 
L 302.273718 108.054486 
L 302.634738 182.156108 
L 302.815247 184.335568 
L 303.086012 138.566919 
L 303.176267 171.258811 
L 303.266522 142.925838 
L 303.447032 173.43827 
L 303.537287 151.643676 
L 303.627542 173.43827 
L 303.717797 138.566919 
L 303.808052 166.899892 
L 303.898307 149.464216 
L 304.078816 94.97773 
L 304.349581 182.156108 
L 304.530091 145.105297 
L 304.710601 177.797189 
L 304.800856 173.43827 
L 304.981366 149.464216 
L 305.071621 156.002595 
L 305.161876 186.515027 
L 305.25213 142.925838 
L 305.342385 177.797189 
L 305.43264 169.079351 
L 305.522895 199.591784 
L 305.703405 162.540973 
L 305.79366 158.182054 
L 305.883915 182.156108 
L 305.97417 169.079351 
L 306.15468 201.771243 
L 306.244935 208.309622 
L 306.33519 166.899892 
L 306.425444 214.848 
L 306.515699 121.131243 
L 306.605954 134.208 
L 306.696209 140.746378 
L 306.786464 110.233946 
L 306.876719 182.156108 
L 306.966974 123.310703 
L 307.057229 164.720432 
L 307.147484 114.592865 
L 307.418249 241.001514 
L 307.508504 145.105297 
L 307.869523 247.539892 
L 308.050033 160.361514 
L 308.230543 201.771243 
L 308.320798 179.976649 
L 308.411053 219.206919 
L 308.501308 195.232865 
L 308.591563 201.771243 
L 308.772073 127.669622 
L 308.862327 149.464216 
L 308.952582 138.566919 
L 309.042837 221.386378 
L 309.133092 201.771243 
L 309.223347 208.309622 
L 309.313602 234.463135 
L 309.403857 186.515027 
L 309.494112 249.719351 
L 309.584367 182.156108 
L 309.674622 221.386378 
L 309.764877 138.566919 
L 309.855132 171.258811 
L 309.945387 169.079351 
L 310.035641 175.61773 
L 310.216151 153.823135 
L 310.306406 175.61773 
L 310.396661 169.079351 
L 310.486916 175.61773 
L 310.577171 149.464216 
L 310.757681 223.565838 
L 310.938191 127.669622 
L 311.028446 169.079351 
L 311.208955 134.208 
L 311.479811 164.720432 
L 311.570065 134.208 
L 311.66032 177.797189 
L 311.750575 173.43827 
L 311.84083 201.771243 
L 311.931085 162.540973 
L 312.02134 171.258811 
L 312.111595 158.182054 
L 312.20185 177.797189 
L 312.292105 118.951784 
L 312.38236 177.797189 
L 312.472615 166.899892 
L 312.56287 175.61773 
L 312.653125 138.566919 
L 312.743379 190.873946 
L 312.833634 142.925838 
L 312.923889 145.105297 
L 313.014144 138.566919 
L 313.104399 188.694486 
L 313.284909 162.540973 
L 313.375164 162.540973 
L 313.465419 193.053405 
L 313.555674 166.899892 
L 313.645929 177.797189 
L 313.736184 164.720432 
L 313.916693 182.156108 
L 314.006948 184.335568 
L 314.097203 134.208 
L 314.187458 182.156108 
L 314.277713 138.566919 
L 314.367968 190.873946 
L 314.458223 184.335568 
L 314.548478 147.284757 
L 314.638733 217.027459 
L 314.819243 171.258811 
L 314.909498 158.182054 
L 314.999753 123.310703 
L 315.180262 175.61773 
L 315.270517 166.899892 
L 315.360772 199.591784 
L 315.541282 153.823135 
L 315.631537 151.643676 
L 315.721792 179.976649 
L 315.812047 171.258811 
L 315.902302 134.208 
L 316.082812 158.182054 
L 316.173067 156.002595 
L 316.263322 166.899892 
L 316.353576 147.284757 
L 316.443831 184.335568 
L 316.534086 151.643676 
L 316.624341 179.976649 
L 316.714596 177.797189 
L 316.804851 169.079351 
L 316.895106 206.130162 
L 316.985361 166.899892 
L 317.075616 169.079351 
L 317.165871 140.746378 
L 317.256126 173.43827 
L 317.52689 151.643676 
L 317.7074 190.873946 
L 317.797655 166.899892 
L 317.88791 195.232865 
L 317.978165 177.797189 
L 318.06842 201.771243 
L 318.158675 169.079351 
L 318.24893 225.745297 
L 318.339185 173.43827 
L 318.60995 214.848 
L 318.700204 208.309622 
L 318.790459 179.976649 
L 318.880714 227.924757 
L 318.970969 173.43827 
L 319.061224 251.898811 
L 319.151479 241.001514 
L 319.241734 197.412324 
L 319.331989 230.104216 
L 319.512499 184.335568 
L 319.693009 190.873946 
L 319.783264 212.668541 
L 319.963773 162.540973 
L 320.054028 195.232865 
L 320.144283 177.797189 
L 320.234538 210.489081 
L 320.595558 153.823135 
L 320.866323 230.104216 
L 321.137087 151.643676 
L 321.227342 179.976649 
L 321.317597 118.951784 
L 321.407852 175.61773 
L 321.498107 147.284757 
L 321.588362 156.002595 
L 321.678617 236.642595 
L 321.768872 134.208 
L 321.859127 169.079351 
L 321.949382 132.028541 
L 322.039637 164.720432 
L 322.129892 136.387459 
L 322.220147 210.489081 
L 322.310401 166.899892 
L 322.400656 195.232865 
L 322.490911 145.105297 
L 322.581166 173.43827 
L 322.761676 140.746378 
L 322.942186 190.873946 
L 323.032441 151.643676 
L 323.122696 188.694486 
L 323.212951 103.695568 
L 323.303206 118.951784 
L 323.57397 197.412324 
L 323.664225 151.643676 
L 323.75448 225.745297 
L 323.93499 147.284757 
L 324.025245 199.591784 
L 324.205755 132.028541 
L 324.29601 145.105297 
L 324.47661 134.208 
L 324.566865 112.413405 
L 324.65712 197.412324 
L 324.747375 179.976649 
L 324.83772 164.720432 
L 325.108485 208.309622 
L 325.19874 164.720432 
L 325.469504 206.130162 
L 325.559759 210.489081 
L 325.650014 188.694486 
L 325.740269 199.591784 
L 325.830524 190.873946 
L 325.920779 225.745297 
L 326.011034 214.848 
L 326.101289 175.61773 
L 326.191544 177.797189 
L 326.372054 206.130162 
L 326.462309 203.950703 
L 326.552563 197.412324 
L 326.642818 203.950703 
L 326.733073 232.283676 
L 327.003838 158.182054 
L 327.184348 245.360432 
L 327.274603 177.797189 
L 327.364858 212.668541 
L 327.455113 195.232865 
L 327.545368 273.693405 
L 327.725877 223.565838 
L 327.816132 260.616649 
L 327.906387 199.591784 
L 327.996642 212.668541 
L 328.086897 206.130162 
L 328.177152 123.310703 
L 328.538172 195.232865 
L 328.718682 134.208 
L 328.808937 142.925838 
L 329.079701 214.848 
L 329.260211 162.540973 
L 329.350466 110.233946 
L 329.530976 193.053405 
L 329.711486 149.464216 
L 329.801741 197.412324 
L 329.891996 158.182054 
L 329.982251 184.335568 
L 330.072505 164.720432 
L 330.16276 214.848 
L 330.253015 162.540973 
L 330.34327 203.950703 
L 330.614035 166.899892 
L 330.794545 232.283676 
L 330.8848 166.899892 
L 330.975055 206.130162 
L 331.06531 164.720432 
L 331.155565 206.130162 
L 331.24582 195.232865 
L 331.336074 199.591784 
L 331.426329 173.43827 
L 331.606839 195.232865 
L 331.697184 177.797189 
L 331.78753 206.130162 
L 331.96822 153.823135 
L 332.058565 160.361514 
L 332.14882 160.361514 
L 332.239075 186.515027 
L 332.32933 123.310703 
L 332.419675 134.208 
L 332.51002 188.694486 
L 332.781056 84.080432 
L 332.871401 153.823135 
L 332.961746 68.824216 
L 333.142346 232.283676 
L 333.322856 136.387459 
L 333.503366 214.848 
L 333.774131 149.464216 
L 333.864386 92.79827 
L 333.954641 182.156108 
L 334.044895 158.182054 
L 334.13515 160.361514 
L 334.225405 158.182054 
L 334.31566 164.720432 
L 334.405915 149.464216 
L 334.49617 173.43827 
L 334.586425 171.258811 
L 334.766935 179.976649 
L 334.85719 171.258811 
L 334.947445 175.61773 
L 335.0377 238.822054 
L 335.308464 160.361514 
L 335.398719 199.591784 
L 335.488974 193.053405 
L 335.579229 212.668541 
L 335.759739 160.361514 
L 335.940249 193.053405 
L 336.030504 175.61773 
L 336.301269 232.283676 
L 336.391524 193.053405 
L 336.481778 210.489081 
L 336.752543 158.182054 
L 336.842798 184.335568 
L 337.023308 160.361514 
L 337.113563 175.61773 
L 337.203818 162.540973 
L 337.294073 129.849081 
L 337.384328 138.566919 
L 337.474583 173.43827 
L 337.564838 160.361514 
L 337.655092 129.849081 
L 337.745347 160.361514 
L 337.835602 158.182054 
L 337.925857 108.054486 
L 338.016112 201.771243 
L 338.106367 166.899892 
L 338.196622 173.43827 
L 338.286877 177.797189 
L 338.377132 169.079351 
L 338.557642 142.925838 
L 338.647897 129.849081 
L 338.738152 190.873946 
L 338.828407 177.797189 
L 338.918661 177.797189 
L 339.099171 136.387459 
L 339.189426 197.412324 
L 339.279681 153.823135 
L 339.369936 225.745297 
L 339.460191 169.079351 
L 339.550446 201.771243 
L 339.640701 179.976649 
L 339.730956 197.412324 
L 339.821211 184.335568 
L 339.911466 221.386378 
L 340.091975 193.053405 
L 340.18223 201.771243 
L 340.272485 162.540973 
L 340.36274 214.848 
L 340.452995 199.591784 
L 340.54325 221.386378 
L 340.72376 199.591784 
L 340.814015 212.668541 
L 340.90427 173.43827 
L 341.08478 247.539892 
L 341.355544 138.566919 
L 341.536054 182.156108 
L 341.626309 153.823135 
L 341.716564 166.899892 
L 341.806819 140.746378 
L 341.897074 171.258811 
L 342.077584 136.387459 
L 342.167839 179.976649 
L 342.258094 171.258811 
L 342.348349 164.720432 
L 342.438603 175.61773 
L 342.619113 134.208 
L 342.709368 149.464216 
L 342.799623 188.694486 
L 342.889878 145.105297 
L 342.980133 177.797189 
L 343.070388 158.182054 
L 343.160643 166.899892 
L 343.250898 162.540973 
L 343.341153 197.412324 
L 343.521663 151.643676 
L 343.611918 145.105297 
L 343.702172 129.849081 
L 343.792427 160.361514 
L 343.882682 134.208 
L 343.972937 177.797189 
L 344.063192 160.361514 
L 344.153447 171.258811 
L 344.243702 164.720432 
L 344.424212 206.130162 
L 344.604722 160.361514 
L 344.785232 201.771243 
L 344.875486 175.61773 
L 344.965741 190.873946 
L 345.055996 182.156108 
L 345.146251 210.489081 
L 345.236506 206.130162 
L 345.326761 214.848 
L 345.417016 243.180973 
L 345.597526 188.694486 
L 345.778036 208.309622 
L 345.868291 206.130162 
L 346.0488 118.951784 
L 346.319565 258.437189 
L 346.59033 153.823135 
L 346.680585 221.386378 
L 346.861095 158.182054 
L 346.95135 197.412324 
L 347.13186 151.643676 
L 347.312369 190.873946 
L 347.402624 145.105297 
L 347.492879 151.643676 
L 347.583134 127.669622 
L 347.763644 195.232865 
L 347.853899 171.258811 
L 348.034409 197.412324 
L 348.124664 182.156108 
L 348.214919 140.746378 
L 348.305174 156.002595 
L 348.666193 116.772324 
L 348.846703 162.540973 
L 349.117468 171.258811 
L 349.207723 136.387459 
L 349.297978 197.412324 
L 349.388323 129.849081 
L 349.478578 153.823135 
L 349.568833 136.387459 
L 349.749343 203.950703 
L 349.839598 136.387459 
L 350.020107 190.873946 
L 350.110362 121.131243 
L 350.200617 136.387459 
L 350.290872 179.976649 
L 350.381127 108.054486 
L 350.471382 116.772324 
L 350.561637 136.387459 
L 350.651892 129.849081 
L 350.832402 190.873946 
L 350.922657 116.772324 
L 351.012912 142.925838 
L 351.103167 138.566919 
L 351.193421 138.566919 
L 351.283676 147.284757 
L 351.373931 136.387459 
L 351.464186 164.720432 
L 351.554441 123.310703 
L 351.734951 177.797189 
L 351.825206 179.976649 
L 351.915461 201.771243 
L 352.005716 177.797189 
L 352.186226 190.873946 
L 352.276481 184.335568 
L 352.366735 188.694486 
L 352.45699 186.515027 
L 352.547245 201.771243 
L 352.6375 136.387459 
L 352.727755 190.873946 
L 352.81801 105.875027 
L 352.908265 129.849081 
L 352.99852 125.490162 
L 353.088775 127.669622 
L 353.17903 125.490162 
L 353.269285 129.849081 
L 353.449795 197.412324 
L 353.540049 127.669622 
L 353.630304 129.849081 
L 353.720559 156.002595 
L 353.810814 149.464216 
L 353.901069 186.515027 
L 354.081579 147.284757 
L 354.171834 138.566919 
L 354.262089 145.105297 
L 354.442599 223.565838 
L 354.532854 173.43827 
L 354.623109 177.797189 
L 354.803618 182.156108 
L 354.893873 217.027459 
L 354.984128 201.771243 
L 355.074383 241.001514 
L 355.345148 164.720432 
L 355.706168 214.848 
L 355.886678 190.873946 
L 355.976932 208.309622 
L 356.067187 203.950703 
L 356.157442 219.206919 
L 356.247697 182.156108 
L 356.337952 232.283676 
L 356.608717 134.208 
L 356.698972 217.027459 
L 356.789227 210.489081 
L 356.879482 206.130162 
L 356.969737 182.156108 
L 357.150246 212.668541 
L 357.240501 162.540973 
L 357.421011 208.309622 
L 357.691776 193.053405 
L 357.782031 166.899892 
L 357.872286 184.335568 
L 358.052796 171.258811 
L 358.143051 173.43827 
L 358.233306 195.232865 
L 358.323561 145.105297 
L 358.413815 230.104216 
L 358.50407 210.489081 
L 358.594325 177.797189 
L 358.774835 203.950703 
L 358.86509 186.515027 
L 359.0456 247.539892 
L 359.135855 186.515027 
L 359.316365 243.180973 
L 359.496875 158.182054 
L 359.587129 190.873946 
L 359.767639 160.361514 
L 359.857894 186.515027 
L 359.948149 156.002595 
L 360.038404 217.027459 
L 360.128659 212.668541 
L 360.399424 169.079351 
L 360.579934 212.668541 
L 360.670189 156.002595 
L 360.760443 175.61773 
L 360.850698 160.361514 
L 360.940953 175.61773 
L 361.031208 145.105297 
L 361.211718 162.540973 
L 361.301973 221.386378 
L 361.392228 156.002595 
L 361.482483 210.489081 
L 361.572738 173.43827 
L 361.662993 197.412324 
L 361.753248 190.873946 
L 361.843503 214.848 
L 362.024012 166.899892 
L 362.114267 173.43827 
L 362.204522 217.027459 
L 362.294777 201.771243 
L 362.385032 125.490162 
L 362.565542 230.104216 
L 362.655797 188.694486 
L 362.836307 203.950703 
L 362.926562 158.182054 
L 363.287581 217.027459 
L 363.377927 221.386378 
L 363.468272 134.208 
L 363.558527 147.284757 
L 363.648782 134.208 
L 363.739036 182.156108 
L 363.829291 162.540973 
L 363.919637 177.797189 
L 364.009892 212.668541 
L 364.100146 171.258811 
L 364.190401 197.412324 
L 364.280656 188.694486 
L 364.370911 219.206919 
L 364.461166 203.950703 
L 364.641676 116.772324 
L 364.731931 145.105297 
L 364.822186 136.387459 
L 364.912441 179.976649 
L 365.002696 136.387459 
L 365.092951 142.925838 
L 365.183206 160.361514 
L 365.27346 203.950703 
L 365.363715 145.105297 
L 365.45397 199.591784 
L 365.544225 142.925838 
L 365.63448 190.873946 
L 365.724735 164.720432 
L 365.81499 186.515027 
L 365.905245 140.746378 
L 366.085755 193.053405 
L 366.17601 208.309622 
L 366.266265 156.002595 
L 366.35652 230.104216 
L 366.446774 177.797189 
L 366.537029 225.745297 
L 366.627284 166.899892 
L 366.717539 201.771243 
L 366.898049 188.694486 
L 366.988304 193.053405 
L 367.078559 219.206919 
L 367.168814 212.668541 
L 367.349324 182.156108 
L 367.439579 177.797189 
L 367.529834 193.053405 
L 367.620088 188.694486 
L 367.710343 201.771243 
L 367.890853 169.079351 
L 367.981108 208.309622 
L 368.071363 193.053405 
L 368.161618 203.950703 
L 368.251873 199.591784 
L 368.342128 171.258811 
L 368.432383 225.745297 
L 368.612893 184.335568 
L 368.703148 208.309622 
L 368.883657 169.079351 
L 369.064167 206.130162 
L 369.334932 162.540973 
L 369.425187 208.309622 
L 369.605697 145.105297 
L 369.786207 214.848 
L 369.876462 195.232865 
L 370.056971 232.283676 
L 370.237481 169.079351 
L 370.327736 238.822054 
L 370.417991 201.771243 
L 370.508246 230.104216 
L 370.688756 175.61773 
L 370.779011 151.643676 
L 370.959521 179.976649 
L 371.049776 175.61773 
L 371.140031 140.746378 
L 371.410795 203.950703 
L 371.50105 153.823135 
L 371.68156 186.515027 
L 371.952325 142.925838 
L 372.04258 223.565838 
L 372.132835 214.848 
L 372.22309 162.540973 
L 372.313345 169.079351 
L 372.403599 203.950703 
L 372.493854 160.361514 
L 372.584109 169.079351 
L 372.674364 158.182054 
L 372.764619 94.97773 
L 372.854874 147.284757 
L 372.945129 110.233946 
L 373.125639 156.002595 
L 373.306149 190.873946 
L 373.396404 197.412324 
L 373.576914 182.156108 
L 373.667168 219.206919 
L 373.847678 108.054486 
L 373.937933 190.873946 
L 374.028188 123.310703 
L 374.118443 147.284757 
L 374.208698 121.131243 
L 374.298953 125.490162 
L 374.479463 186.515027 
L 374.569718 173.43827 
L 374.659973 217.027459 
L 374.750228 169.079351 
L 374.840482 186.515027 
L 374.930737 177.797189 
L 375.020992 186.515027 
L 375.111247 223.565838 
L 375.201502 203.950703 
L 375.291757 212.668541 
L 375.382012 160.361514 
L 375.562522 243.180973 
L 375.652777 225.745297 
L 375.743032 258.437189 
L 376.013796 186.515027 
L 376.104051 169.079351 
L 376.284561 195.232865 
L 376.374816 156.002595 
L 376.465071 158.182054 
L 376.555326 158.182054 
L 376.645581 169.079351 
L 376.735836 142.925838 
L 376.826091 197.412324 
L 377.006601 138.566919 
L 377.187111 175.61773 
L 377.277365 175.61773 
L 377.36762 116.772324 
L 377.457875 190.873946 
L 377.54813 142.925838 
L 377.638385 153.823135 
L 377.818895 179.976649 
L 377.999405 134.208 
L 378.08966 214.848 
L 378.27017 182.156108 
L 378.360425 199.591784 
L 378.540934 105.875027 
L 378.631189 164.720432 
L 378.721444 151.643676 
L 378.901954 134.208 
L 378.992209 129.849081 
L 379.082464 162.540973 
L 379.172719 108.054486 
L 379.353229 177.797189 
L 379.533739 121.131243 
L 379.714248 190.873946 
L 379.804503 164.720432 
L 379.894758 208.309622 
L 379.985013 173.43827 
L 380.075268 206.130162 
L 380.165523 197.412324 
L 380.255778 208.309622 
L 380.346033 201.771243 
L 380.436288 186.515027 
L 380.526543 241.001514 
L 380.707053 153.823135 
L 380.797307 156.002595 
L 380.887562 214.848 
L 381.068072 123.310703 
L 381.158327 238.822054 
L 381.248582 230.104216 
L 381.338837 221.386378 
L 381.429092 243.180973 
L 381.699857 160.361514 
L 381.790112 158.182054 
L 381.970622 190.873946 
L 382.060876 169.079351 
L 382.151131 212.668541 
L 382.241386 162.540973 
L 382.331641 171.258811 
L 382.421896 132.028541 
L 382.873171 186.515027 
L 383.053681 138.566919 
L 383.143936 145.105297 
L 383.23419 156.002595 
L 383.4147 140.746378 
L 383.504955 153.823135 
L 383.59521 212.668541 
L 383.685465 199.591784 
L 383.77572 206.130162 
L 383.865975 188.694486 
L 383.95623 195.232865 
L 384.046485 227.924757 
L 384.226995 177.797189 
L 384.31725 199.591784 
L 384.497759 190.873946 
L 384.588014 190.873946 
L 384.678269 186.515027 
L 384.858779 230.104216 
L 385.039289 236.642595 
L 385.129544 158.182054 
L 385.219799 177.797189 
L 385.310054 123.310703 
L 385.490564 173.43827 
L 385.761328 112.413405 
L 385.851583 190.873946 
L 385.941838 108.054486 
L 386.032093 153.823135 
L 386.122348 149.464216 
L 386.212603 153.823135 
L 386.393113 234.463135 
L 386.573623 190.873946 
L 386.663878 256.25773 
L 386.754133 199.591784 
L 386.844387 201.771243 
L 387.115152 251.898811 
L 387.295662 190.873946 
L 387.385917 188.694486 
L 387.476172 173.43827 
L 387.656682 190.873946 
L 387.746937 206.130162 
L 387.837192 197.412324 
L 387.927447 175.61773 
L 388.017701 182.156108 
L 388.107956 114.592865 
L 388.288466 177.797189 
L 388.468976 203.950703 
L 388.559231 182.156108 
L 388.649486 121.131243 
L 388.829996 158.182054 
L 388.920251 116.772324 
L 389.010506 129.849081 
L 389.100761 97.157189 
L 389.28127 169.079351 
L 389.371525 158.182054 
L 389.552035 199.591784 
L 389.8228 175.61773 
L 389.913055 177.797189 
L 390.00331 188.694486 
L 390.093565 166.899892 
L 390.274075 212.668541 
L 390.454584 179.976649 
L 390.725349 186.515027 
L 390.815604 212.668541 
L 390.905859 171.258811 
L 391.176624 238.822054 
L 391.266879 169.079351 
L 391.357134 271.513946 
L 391.447389 219.206919 
L 391.537644 254.07827 
L 391.808408 162.540973 
L 391.898663 186.515027 
L 391.988918 210.489081 
L 392.259683 153.823135 
L 392.349938 188.694486 
L 392.440193 140.746378 
L 392.530448 160.361514 
L 392.620703 134.208 
L 392.710958 151.643676 
L 392.801212 197.412324 
L 392.891467 140.746378 
L 392.981722 162.540973 
L 393.071977 153.823135 
L 393.252487 197.412324 
L 393.342742 173.43827 
L 393.432997 190.873946 
L 393.523252 153.823135 
L 393.613507 173.43827 
L 393.703762 132.028541 
L 393.794017 138.566919 
L 393.974526 179.976649 
L 394.064781 160.361514 
L 394.155036 201.771243 
L 394.245291 193.053405 
L 394.335546 140.746378 
L 394.425801 214.848 
L 394.516056 199.591784 
L 394.606311 203.950703 
L 394.696566 118.951784 
L 394.786821 125.490162 
L 394.877076 156.002595 
L 394.967331 108.054486 
L 395.057586 118.951784 
L 395.147841 182.156108 
L 395.238095 156.002595 
L 395.418605 175.61773 
L 395.50886 149.464216 
L 395.599115 203.950703 
L 395.68937 158.182054 
L 395.779625 199.591784 
L 395.86988 186.515027 
L 395.960135 203.950703 
L 396.05039 197.412324 
L 396.140645 173.43827 
L 396.2309 241.001514 
L 396.321155 182.156108 
L 396.501664 227.924757 
L 396.682174 145.105297 
L 396.772429 197.412324 
L 396.862684 190.873946 
L 396.952939 132.028541 
L 397.043194 208.309622 
L 397.133449 206.130162 
L 397.223704 262.796108 
L 397.494469 206.130162 
L 397.584723 219.206919 
L 397.674978 203.950703 
L 397.765233 212.668541 
L 397.855488 190.873946 
L 397.945743 232.283676 
L 398.035998 206.130162 
L 398.126253 145.105297 
L 398.216508 166.899892 
L 398.397018 264.975568 
L 398.487273 203.950703 
L 398.487273 203.950703 
" style="fill:none;stroke:#1f77b4;stroke-linecap:square;stroke-width:1.5;"/>
   </g>
   <g id="patch_3">
    <path d="M 57.6 307.584 
L 57.6 41.472 
" style="fill:none;stroke:#000000;stroke-linecap:square;stroke-linejoin:miter;stroke-width:0.8;"/>
   </g>
   <g id="patch_4">
    <path d="M 414.72 307.584 
L 414.72 41.472 
" style="fill:none;stroke:#000000;stroke-linecap:square;stroke-linejoin:miter;stroke-width:0.8;"/>
   </g>
   <g id="patch_5">
    <path d="M 57.6 307.584 
L 414.72 307.584 
" style="fill:none;stroke:#000000;stroke-linecap:square;stroke-linejoin:miter;stroke-width:0.8;"/>
   </g>
   <g id="patch_6">
    <path d="M 57.6 41.472 
L 414.72 41.472 
" style="fill:none;stroke:#000000;stroke-linecap:square;stroke-linejoin:miter;stroke-width:0.8;"/>
   </g>
   <g id="text_18">
    <!-- Voltage measured with source voltage 100.0 mV -->
    <defs>
     <path d="M 52 44.1875 
Q 55.375 50.25 60.0625 53.125 
Q 64.75 56 71.09375 56 
Q 79.640625 56 84.28125 50.015625 
Q 88.921875 44.046875 88.921875 33.015625 
L 88.921875 0 
L 79.890625 0 
L 79.890625 32.71875 
Q 79.890625 40.578125 77.09375 44.375 
Q 74.3125 48.1875 68.609375 48.1875 
Q 61.625 48.1875 57.5625 43.546875 
Q 53.515625 38.921875 53.515625 30.90625 
L 53.515625 0 
L 44.484375 0 
L 44.484375 32.71875 
Q 44.484375 40.625 41.703125 44.40625 
Q 38.921875 48.1875 33.109375 48.1875 
Q 26.21875 48.1875 22.15625 43.53125 
Q 18.109375 38.875 18.109375 30.90625 
L 18.109375 0 
L 9.078125 0 
L 9.078125 54.6875 
L 18.109375 54.6875 
L 18.109375 46.1875 
Q 21.1875 51.21875 25.484375 53.609375 
Q 29.78125 56 35.6875 56 
Q 41.65625 56 45.828125 52.96875 
Q 50 49.953125 52 44.1875 
z
" id="DejaVuSans-6d"/>
     <path d="M 8.5 21.578125 
L 8.5 54.6875 
L 17.484375 54.6875 
L 17.484375 21.921875 
Q 17.484375 14.15625 20.5 10.265625 
Q 23.53125 6.390625 29.59375 6.390625 
Q 36.859375 6.390625 41.078125 11.03125 
Q 45.3125 15.671875 45.3125 23.6875 
L 45.3125 54.6875 
L 54.296875 54.6875 
L 54.296875 0 
L 45.3125 0 
L 45.3125 8.40625 
Q 42.046875 3.421875 37.71875 1 
Q 33.40625 -1.421875 27.6875 -1.421875 
Q 18.265625 -1.421875 13.375 4.4375 
Q 8.5 10.296875 8.5 21.578125 
z
M 31.109375 56 
z
" id="DejaVuSans-75"/>
     <path d="M 41.109375 46.296875 
Q 39.59375 47.171875 37.8125 47.578125 
Q 36.03125 48 33.890625 48 
Q 26.265625 48 22.1875 43.046875 
Q 18.109375 38.09375 18.109375 28.8125 
L 18.109375 0 
L 9.078125 0 
L 9.078125 54.6875 
L 18.109375 54.6875 
L 18.109375 46.1875 
Q 20.953125 51.171875 25.484375 53.578125 
Q 30.03125 56 36.53125 56 
Q 37.453125 56 38.578125 55.875 
Q 39.703125 55.765625 41.0625 55.515625 
z
" id="DejaVuSans-72"/>
     <path d="M 45.40625 46.390625 
L 45.40625 75.984375 
L 54.390625 75.984375 
L 54.390625 0 
L 45.40625 0 
L 45.40625 8.203125 
Q 42.578125 3.328125 38.25 0.953125 
Q 33.9375 -1.421875 27.875 -1.421875 
Q 17.96875 -1.421875 11.734375 6.484375 
Q 5.515625 14.40625 5.515625 27.296875 
Q 5.515625 40.1875 11.734375 48.09375 
Q 17.96875 56 27.875 56 
Q 33.9375 56 38.25 53.625 
Q 42.578125 51.265625 45.40625 46.390625 
z
M 14.796875 27.296875 
Q 14.796875 17.390625 18.875 11.75 
Q 22.953125 6.109375 30.078125 6.109375 
Q 37.203125 6.109375 41.296875 11.75 
Q 45.40625 17.390625 45.40625 27.296875 
Q 45.40625 37.203125 41.296875 42.84375 
Q 37.203125 48.484375 30.078125 48.484375 
Q 22.953125 48.484375 18.875 42.84375 
Q 14.796875 37.203125 14.796875 27.296875 
z
" id="DejaVuSans-64"/>
     <path d="M 4.203125 54.6875 
L 13.1875 54.6875 
L 24.421875 12.015625 
L 35.59375 54.6875 
L 46.1875 54.6875 
L 57.421875 12.015625 
L 68.609375 54.6875 
L 77.59375 54.6875 
L 63.28125 0 
L 52.6875 0 
L 40.921875 44.828125 
L 29.109375 0 
L 18.5 0 
z
" id="DejaVuSans-77"/>
     <path d="M 9.421875 54.6875 
L 18.40625 54.6875 
L 18.40625 0 
L 9.421875 0 
z
M 9.421875 75.984375 
L 18.40625 75.984375 
L 18.40625 64.59375 
L 9.421875 64.59375 
z
" id="DejaVuSans-69"/>
     <path d="M 54.890625 33.015625 
L 54.890625 0 
L 45.90625 0 
L 45.90625 32.71875 
Q 45.90625 40.484375 42.875 44.328125 
Q 39.84375 48.1875 33.796875 48.1875 
Q 26.515625 48.1875 22.3125 43.546875 
Q 18.109375 38.921875 18.109375 30.90625 
L 18.109375 0 
L 9.078125 0 
L 9.078125 75.984375 
L 18.109375 75.984375 
L 18.109375 46.1875 
Q 21.34375 51.125 25.703125 53.5625 
Q 30.078125 56 35.796875 56 
Q 45.21875 56 50.046875 50.171875 
Q 54.890625 44.34375 54.890625 33.015625 
z
" id="DejaVuSans-68"/>
     <path d="M 48.78125 52.59375 
L 48.78125 44.1875 
Q 44.96875 46.296875 41.140625 47.34375 
Q 37.3125 48.390625 33.40625 48.390625 
Q 24.65625 48.390625 19.8125 42.84375 
Q 14.984375 37.3125 14.984375 27.296875 
Q 14.984375 17.28125 19.8125 11.734375 
Q 24.65625 6.203125 33.40625 6.203125 
Q 37.3125 6.203125 41.140625 7.25 
Q 44.96875 8.296875 48.78125 10.40625 
L 48.78125 2.09375 
Q 45.015625 0.34375 40.984375 -0.53125 
Q 36.96875 -1.421875 32.421875 -1.421875 
Q 20.0625 -1.421875 12.78125 6.34375 
Q 5.515625 14.109375 5.515625 27.296875 
Q 5.515625 40.671875 12.859375 48.328125 
Q 20.21875 56 33.015625 56 
Q 37.15625 56 41.109375 55.140625 
Q 45.0625 54.296875 48.78125 52.59375 
z
" id="DejaVuSans-63"/>
     <path d="M 2.984375 54.6875 
L 12.5 54.6875 
L 29.59375 8.796875 
L 46.6875 54.6875 
L 56.203125 54.6875 
L 35.6875 0 
L 23.484375 0 
z
" id="DejaVuSans-76"/>
    </defs>
    <g transform="translate(89.3175 35.472)scale(0.12 -0.12)">
     <use xlink:href="#DejaVuSans-56"/>
     <use x="68.298828" xlink:href="#DejaVuSans-6f"/>
     <use x="129.480469" xlink:href="#DejaVuSans-6c"/>
     <use x="157.263672" xlink:href="#DejaVuSans-74"/>
     <use x="196.472656" xlink:href="#DejaVuSans-61"/>
     <use x="257.751953" xlink:href="#DejaVuSans-67"/>
     <use x="321.228516" xlink:href="#DejaVuSans-65"/>
     <use x="382.751953" xlink:href="#DejaVuSans-20"/>
     <use x="414.539062" xlink:href="#DejaVuSans-6d"/>
     <use x="511.951172" xlink:href="#DejaVuSans-65"/>
     <use x="573.474609" xlink:href="#DejaVuSans-61"/>
     <use x="634.753906" xlink:href="#DejaVuSans-73"/>
     <use x="686.853516" xlink:href="#DejaVuSans-75"/>
     <use x="750.232422" xlink:href="#DejaVuSans-72"/>
     <use x="791.314453" xlink:href="#DejaVuSans-65"/>
     <use x="852.837891" xlink:href="#DejaVuSans-64"/>
     <use x="916.314453" xlink:href="#DejaVuSans-20"/>
     <use x="948.101562" xlink:href="#DejaVuSans-77"/>
     <use x="1029.888672" xlink:href="#DejaVuSans-69"/>
     <use x="1057.671875" xlink:href="#DejaVuSans-74"/>
     <use x="1096.880859" xlink:href="#DejaVuSans-68"/>
     <use x="1160.259766" xlink:href="#DejaVuSans-20"/>
     <use x="1192.046875" xlink:href="#DejaVuSans-73"/>
     <use x="1244.146484" xlink:href="#DejaVuSans-6f"/>
     <use x="1305.328125" xlink:href="#DejaVuSans-75"/>
     <use x="1368.707031" xlink:href="#DejaVuSans-72"/>
     <use x="1409.789062" xlink:href="#DejaVuSans-63"/>
     <use x="1464.769531" xlink:href="#DejaVuSans-65"/>
     <use x="1526.292969" xlink:href="#DejaVuSans-20"/>
     <use x="1558.080078" xlink:href="#DejaVuSans-76"/>
     <use x="1617.259766" xlink:href="#DejaVuSans-6f"/>
     <use x="1678.441406" xlink:href="#DejaVuSans-6c"/>
     <use x="1706.224609" xlink:href="#DejaVuSans-74"/>
     <use x="1745.433594" xlink:href="#DejaVuSans-61"/>
     <use x="1806.712891" xlink:href="#DejaVuSans-67"/>
     <use x="1870.189453" xlink:href="#DejaVuSans-65"/>
     <use x="1931.712891" xlink:href="#DejaVuSans-20"/>
     <use x="1963.5" xlink:href="#DejaVuSans-31"/>
     <use x="2027.123047" xlink:href="#DejaVuSans-30"/>
     <use x="2090.746094" xlink:href="#DejaVuSans-30"/>
     <use x="2154.369141" xlink:href="#DejaVuSans-2e"/>
     <use x="2186.15625" xlink:href="#DejaVuSans-30"/>
     <use x="2249.779297" xlink:href="#DejaVuSans-20"/>
     <use x="2281.566406" xlink:href="#DejaVuSans-6d"/>
     <use x="2378.978516" xlink:href="#DejaVuSans-56"/>
    </g>
   </g>
  </g>
 </g>
 <defs>
  <clipPath id="p5db8eebd29">
   <rect height="266.112" width="357.12" x="57.6" y="41.472"/>
  </clipPath>
 </defs>
</svg>
