<?xml version="1.0" encoding="utf-8" standalone="no"?>
<!DOCTYPE svg PUBLIC "-//W3C//DTD SVG 1.1//EN"
  "http://www.w3.org/Graphics/SVG/1.1/DTD/svg11.dtd">
<!-- Created with matplotlib (http://matplotlib.org/) -->
<svg height="345pt" version="1.1" viewBox="0 0 460 345" width="460pt" xmlns="http://www.w3.org/2000/svg" xmlns:xlink="http://www.w3.org/1999/xlink">
 <defs>
  <style type="text/css">
*{stroke-linecap:butt;stroke-linejoin:round;}
  </style>
 </defs>
 <g id="figure_1">
  <g id="patch_1">
   <path d="M 0 345.6 
L 460.8 345.6 
L 460.8 0 
L 0 0 
z
" style="fill:#ffffff;"/>
  </g>
  <g id="axes_1">
   <g id="patch_2">
    <path d="M 57.6 307.584 
L 414.72 307.584 
L 414.72 41.472 
L 57.6 41.472 
z
" style="fill:#ffffff;"/>
   </g>
   <g id="matplotlib.axis_1">
    <g id="xtick_1">
     <g id="line2d_1">
      <path clip-path="url(#p904650faee)" d="M 73.832727 307.584 
L 73.832727 41.472 
" style="fill:none;stroke:#b0b0b0;stroke-linecap:square;stroke-width:0.8;"/>
     </g>
     <g id="line2d_2">
      <defs>
       <path d="M 0 0 
L 0 3.5 
" id="mf011583ca9" style="stroke:#000000;stroke-width:0.8;"/>
      </defs>
      <g>
       <use style="stroke:#000000;stroke-width:0.8;" x="73.832727" xlink:href="#mf011583ca9" y="307.584"/>
      </g>
     </g>
     <g id="text_1">
      <!-- 0 -->
      <defs>
       <path d="M 31.78125 66.40625 
Q 24.171875 66.40625 20.328125 58.90625 
Q 16.5 51.421875 16.5 36.375 
Q 16.5 21.390625 20.328125 13.890625 
Q 24.171875 6.390625 31.78125 6.390625 
Q 39.453125 6.390625 43.28125 13.890625 
Q 47.125 21.390625 47.125 36.375 
Q 47.125 51.421875 43.28125 58.90625 
Q 39.453125 66.40625 31.78125 66.40625 
z
M 31.78125 74.21875 
Q 44.046875 74.21875 50.515625 64.515625 
Q 56.984375 54.828125 56.984375 36.375 
Q 56.984375 17.96875 50.515625 8.265625 
Q 44.046875 -1.421875 31.78125 -1.421875 
Q 19.53125 -1.421875 13.0625 8.265625 
Q 6.59375 17.96875 6.59375 36.375 
Q 6.59375 54.828125 13.0625 64.515625 
Q 19.53125 74.21875 31.78125 74.21875 
z
" id="DejaVuSans-30"/>
      </defs>
      <g transform="translate(70.651477 322.182437)scale(0.1 -0.1)">
       <use xlink:href="#DejaVuSans-30"/>
      </g>
     </g>
    </g>
    <g id="xtick_2">
     <g id="line2d_3">
      <path clip-path="url(#p904650faee)" d="M 145.976978 307.584 
L 145.976978 41.472 
" style="fill:none;stroke:#b0b0b0;stroke-linecap:square;stroke-width:0.8;"/>
     </g>
     <g id="line2d_4">
      <g>
       <use style="stroke:#000000;stroke-width:0.8;" x="145.976978" xlink:href="#mf011583ca9" y="307.584"/>
      </g>
     </g>
     <g id="text_2">
      <!-- 200 -->
      <defs>
       <path d="M 19.1875 8.296875 
L 53.609375 8.296875 
L 53.609375 0 
L 7.328125 0 
L 7.328125 8.296875 
Q 12.9375 14.109375 22.625 23.890625 
Q 32.328125 33.6875 34.8125 36.53125 
Q 39.546875 41.84375 41.421875 45.53125 
Q 43.3125 49.21875 43.3125 52.78125 
Q 43.3125 58.59375 39.234375 62.25 
Q 35.15625 65.921875 28.609375 65.921875 
Q 23.96875 65.921875 18.8125 64.3125 
Q 13.671875 62.703125 7.8125 59.421875 
L 7.8125 69.390625 
Q 13.765625 71.78125 18.9375 73 
Q 24.125 74.21875 28.421875 74.21875 
Q 39.75 74.21875 46.484375 68.546875 
Q 53.21875 62.890625 53.21875 53.421875 
Q 53.21875 48.921875 51.53125 44.890625 
Q 49.859375 40.875 45.40625 35.40625 
Q 44.1875 33.984375 37.640625 27.21875 
Q 31.109375 20.453125 19.1875 8.296875 
z
" id="DejaVuSans-32"/>
      </defs>
      <g transform="translate(136.433228 322.182437)scale(0.1 -0.1)">
       <use xlink:href="#DejaVuSans-32"/>
       <use x="63.623047" xlink:href="#DejaVuSans-30"/>
       <use x="127.246094" xlink:href="#DejaVuSans-30"/>
      </g>
     </g>
    </g>
    <g id="xtick_3">
     <g id="line2d_5">
      <path clip-path="url(#p904650faee)" d="M 218.121229 307.584 
L 218.121229 41.472 
" style="fill:none;stroke:#b0b0b0;stroke-linecap:square;stroke-width:0.8;"/>
     </g>
     <g id="line2d_6">
      <g>
       <use style="stroke:#000000;stroke-width:0.8;" x="218.121229" xlink:href="#mf011583ca9" y="307.584"/>
      </g>
     </g>
     <g id="text_3">
      <!-- 400 -->
      <defs>
       <path d="M 37.796875 64.3125 
L 12.890625 25.390625 
L 37.796875 25.390625 
z
M 35.203125 72.90625 
L 47.609375 72.90625 
L 47.609375 25.390625 
L 58.015625 25.390625 
L 58.015625 17.1875 
L 47.609375 17.1875 
L 47.609375 0 
L 37.796875 0 
L 37.796875 17.1875 
L 4.890625 17.1875 
L 4.890625 26.703125 
z
" id="DejaVuSans-34"/>
      </defs>
      <g transform="translate(208.577479 322.182437)scale(0.1 -0.1)">
       <use xlink:href="#DejaVuSans-34"/>
       <use x="63.623047" xlink:href="#DejaVuSans-30"/>
       <use x="127.246094" xlink:href="#DejaVuSans-30"/>
      </g>
     </g>
    </g>
    <g id="xtick_4">
     <g id="line2d_7">
      <path clip-path="url(#p904650faee)" d="M 290.26548 307.584 
L 290.26548 41.472 
" style="fill:none;stroke:#b0b0b0;stroke-linecap:square;stroke-width:0.8;"/>
     </g>
     <g id="line2d_8">
      <g>
       <use style="stroke:#000000;stroke-width:0.8;" x="290.26548" xlink:href="#mf011583ca9" y="307.584"/>
      </g>
     </g>
     <g id="text_4">
      <!-- 600 -->
      <defs>
       <path d="M 33.015625 40.375 
Q 26.375 40.375 22.484375 35.828125 
Q 18.609375 31.296875 18.609375 23.390625 
Q 18.609375 15.53125 22.484375 10.953125 
Q 26.375 6.390625 33.015625 6.390625 
Q 39.65625 6.390625 43.53125 10.953125 
Q 47.40625 15.53125 47.40625 23.390625 
Q 47.40625 31.296875 43.53125 35.828125 
Q 39.65625 40.375 33.015625 40.375 
z
M 52.59375 71.296875 
L 52.59375 62.3125 
Q 48.875 64.0625 45.09375 64.984375 
Q 41.3125 65.921875 37.59375 65.921875 
Q 27.828125 65.921875 22.671875 59.328125 
Q 17.53125 52.734375 16.796875 39.40625 
Q 19.671875 43.65625 24.015625 45.921875 
Q 28.375 48.1875 33.59375 48.1875 
Q 44.578125 48.1875 50.953125 41.515625 
Q 57.328125 34.859375 57.328125 23.390625 
Q 57.328125 12.15625 50.6875 5.359375 
Q 44.046875 -1.421875 33.015625 -1.421875 
Q 20.359375 -1.421875 13.671875 8.265625 
Q 6.984375 17.96875 6.984375 36.375 
Q 6.984375 53.65625 15.1875 63.9375 
Q 23.390625 74.21875 37.203125 74.21875 
Q 40.921875 74.21875 44.703125 73.484375 
Q 48.484375 72.75 52.59375 71.296875 
z
" id="DejaVuSans-36"/>
      </defs>
      <g transform="translate(280.72173 322.182437)scale(0.1 -0.1)">
       <use xlink:href="#DejaVuSans-36"/>
       <use x="63.623047" xlink:href="#DejaVuSans-30"/>
       <use x="127.246094" xlink:href="#DejaVuSans-30"/>
      </g>
     </g>
    </g>
    <g id="xtick_5">
     <g id="line2d_9">
      <path clip-path="url(#p904650faee)" d="M 362.40973 307.584 
L 362.40973 41.472 
" style="fill:none;stroke:#b0b0b0;stroke-linecap:square;stroke-width:0.8;"/>
     </g>
     <g id="line2d_10">
      <g>
       <use style="stroke:#000000;stroke-width:0.8;" x="362.40973" xlink:href="#mf011583ca9" y="307.584"/>
      </g>
     </g>
     <g id="text_5">
      <!-- 800 -->
      <defs>
       <path d="M 31.78125 34.625 
Q 24.75 34.625 20.71875 30.859375 
Q 16.703125 27.09375 16.703125 20.515625 
Q 16.703125 13.921875 20.71875 10.15625 
Q 24.75 6.390625 31.78125 6.390625 
Q 38.8125 6.390625 42.859375 10.171875 
Q 46.921875 13.96875 46.921875 20.515625 
Q 46.921875 27.09375 42.890625 30.859375 
Q 38.875 34.625 31.78125 34.625 
z
M 21.921875 38.8125 
Q 15.578125 40.375 12.03125 44.71875 
Q 8.5 49.078125 8.5 55.328125 
Q 8.5 64.0625 14.71875 69.140625 
Q 20.953125 74.21875 31.78125 74.21875 
Q 42.671875 74.21875 48.875 69.140625 
Q 55.078125 64.0625 55.078125 55.328125 
Q 55.078125 49.078125 51.53125 44.71875 
Q 48 40.375 41.703125 38.8125 
Q 48.828125 37.15625 52.796875 32.3125 
Q 56.78125 27.484375 56.78125 20.515625 
Q 56.78125 9.90625 50.3125 4.234375 
Q 43.84375 -1.421875 31.78125 -1.421875 
Q 19.734375 -1.421875 13.25 4.234375 
Q 6.78125 9.90625 6.78125 20.515625 
Q 6.78125 27.484375 10.78125 32.3125 
Q 14.796875 37.15625 21.921875 38.8125 
z
M 18.3125 54.390625 
Q 18.3125 48.734375 21.84375 45.5625 
Q 25.390625 42.390625 31.78125 42.390625 
Q 38.140625 42.390625 41.71875 45.5625 
Q 45.3125 48.734375 45.3125 54.390625 
Q 45.3125 60.0625 41.71875 63.234375 
Q 38.140625 66.40625 31.78125 66.40625 
Q 25.390625 66.40625 21.84375 63.234375 
Q 18.3125 60.0625 18.3125 54.390625 
z
" id="DejaVuSans-38"/>
      </defs>
      <g transform="translate(352.86598 322.182437)scale(0.1 -0.1)">
       <use xlink:href="#DejaVuSans-38"/>
       <use x="63.623047" xlink:href="#DejaVuSans-30"/>
       <use x="127.246094" xlink:href="#DejaVuSans-30"/>
      </g>
     </g>
    </g>
    <g id="text_6">
     <!-- t(s) -->
     <defs>
      <path d="M 18.3125 70.21875 
L 18.3125 54.6875 
L 36.8125 54.6875 
L 36.8125 47.703125 
L 18.3125 47.703125 
L 18.3125 18.015625 
Q 18.3125 11.328125 20.140625 9.421875 
Q 21.96875 7.515625 27.59375 7.515625 
L 36.8125 7.515625 
L 36.8125 0 
L 27.59375 0 
Q 17.1875 0 13.234375 3.875 
Q 9.28125 7.765625 9.28125 18.015625 
L 9.28125 47.703125 
L 2.6875 47.703125 
L 2.6875 54.6875 
L 9.28125 54.6875 
L 9.28125 70.21875 
z
" id="DejaVuSans-74"/>
      <path d="M 31 75.875 
Q 24.46875 64.65625 21.28125 53.65625 
Q 18.109375 42.671875 18.109375 31.390625 
Q 18.109375 20.125 21.3125 9.0625 
Q 24.515625 -2 31 -13.1875 
L 23.1875 -13.1875 
Q 15.875 -1.703125 12.234375 9.375 
Q 8.59375 20.453125 8.59375 31.390625 
Q 8.59375 42.28125 12.203125 53.3125 
Q 15.828125 64.359375 23.1875 75.875 
z
" id="DejaVuSans-28"/>
      <path d="M 44.28125 53.078125 
L 44.28125 44.578125 
Q 40.484375 46.53125 36.375 47.5 
Q 32.28125 48.484375 27.875 48.484375 
Q 21.1875 48.484375 17.84375 46.4375 
Q 14.5 44.390625 14.5 40.28125 
Q 14.5 37.15625 16.890625 35.375 
Q 19.28125 33.59375 26.515625 31.984375 
L 29.59375 31.296875 
Q 39.15625 29.25 43.1875 25.515625 
Q 47.21875 21.78125 47.21875 15.09375 
Q 47.21875 7.46875 41.1875 3.015625 
Q 35.15625 -1.421875 24.609375 -1.421875 
Q 20.21875 -1.421875 15.453125 -0.5625 
Q 10.6875 0.296875 5.421875 2 
L 5.421875 11.28125 
Q 10.40625 8.6875 15.234375 7.390625 
Q 20.0625 6.109375 24.8125 6.109375 
Q 31.15625 6.109375 34.5625 8.28125 
Q 37.984375 10.453125 37.984375 14.40625 
Q 37.984375 18.0625 35.515625 20.015625 
Q 33.0625 21.96875 24.703125 23.78125 
L 21.578125 24.515625 
Q 13.234375 26.265625 9.515625 29.90625 
Q 5.8125 33.546875 5.8125 39.890625 
Q 5.8125 47.609375 11.28125 51.796875 
Q 16.75 56 26.8125 56 
Q 31.78125 56 36.171875 55.265625 
Q 40.578125 54.546875 44.28125 53.078125 
z
" id="DejaVuSans-73"/>
      <path d="M 8.015625 75.875 
L 15.828125 75.875 
Q 23.140625 64.359375 26.78125 53.3125 
Q 30.421875 42.28125 30.421875 31.390625 
Q 30.421875 20.453125 26.78125 9.375 
Q 23.140625 -1.703125 15.828125 -13.1875 
L 8.015625 -13.1875 
Q 14.5 -2 17.703125 9.0625 
Q 20.90625 20.125 20.90625 31.390625 
Q 20.90625 42.671875 17.703125 53.65625 
Q 14.5 64.65625 8.015625 75.875 
z
" id="DejaVuSans-29"/>
     </defs>
     <g transform="translate(227.693594 335.860562)scale(0.1 -0.1)">
      <use xlink:href="#DejaVuSans-74"/>
      <use x="39.208984" xlink:href="#DejaVuSans-28"/>
      <use x="78.222656" xlink:href="#DejaVuSans-73"/>
      <use x="130.322266" xlink:href="#DejaVuSans-29"/>
     </g>
    </g>
   </g>
   <g id="matplotlib.axis_2">
    <g id="ytick_1">
     <g id="line2d_11">
      <path clip-path="url(#p904650faee)" d="M 57.6 307.622577 
L 414.72 307.622577 
" style="fill:none;stroke:#b0b0b0;stroke-linecap:square;stroke-width:0.8;"/>
     </g>
     <g id="line2d_12">
      <defs>
       <path d="M 0 0 
L -3.5 0 
" id="m0256200324" style="stroke:#000000;stroke-width:0.8;"/>
      </defs>
      <g>
       <use style="stroke:#000000;stroke-width:0.8;" x="57.6" xlink:href="#m0256200324" y="307.622577"/>
      </g>
     </g>
     <g id="text_7">
      <!-- 0.0 -->
      <defs>
       <path d="M 10.6875 12.40625 
L 21 12.40625 
L 21 0 
L 10.6875 0 
z
" id="DejaVuSans-2e"/>
      </defs>
      <g transform="translate(34.696875 311.421796)scale(0.1 -0.1)">
       <use xlink:href="#DejaVuSans-30"/>
       <use x="63.623047" xlink:href="#DejaVuSans-2e"/>
       <use x="95.410156" xlink:href="#DejaVuSans-30"/>
      </g>
     </g>
    </g>
    <g id="ytick_2">
     <g id="line2d_13">
      <path clip-path="url(#p904650faee)" d="M 57.6 257.614512 
L 414.72 257.614512 
" style="fill:none;stroke:#b0b0b0;stroke-linecap:square;stroke-width:0.8;"/>
     </g>
     <g id="line2d_14">
      <g>
       <use style="stroke:#000000;stroke-width:0.8;" x="57.6" xlink:href="#m0256200324" y="257.614512"/>
      </g>
     </g>
     <g id="text_8">
      <!-- 0.2 -->
      <g transform="translate(34.696875 261.413731)scale(0.1 -0.1)">
       <use xlink:href="#DejaVuSans-30"/>
       <use x="63.623047" xlink:href="#DejaVuSans-2e"/>
       <use x="95.410156" xlink:href="#DejaVuSans-32"/>
      </g>
     </g>
    </g>
    <g id="ytick_3">
     <g id="line2d_15">
      <path clip-path="url(#p904650faee)" d="M 57.6 207.606448 
L 414.72 207.606448 
" style="fill:none;stroke:#b0b0b0;stroke-linecap:square;stroke-width:0.8;"/>
     </g>
     <g id="line2d_16">
      <g>
       <use style="stroke:#000000;stroke-width:0.8;" x="57.6" xlink:href="#m0256200324" y="207.606448"/>
      </g>
     </g>
     <g id="text_9">
      <!-- 0.4 -->
      <g transform="translate(34.696875 211.405667)scale(0.1 -0.1)">
       <use xlink:href="#DejaVuSans-30"/>
       <use x="63.623047" xlink:href="#DejaVuSans-2e"/>
       <use x="95.410156" xlink:href="#DejaVuSans-34"/>
      </g>
     </g>
    </g>
    <g id="ytick_4">
     <g id="line2d_17">
      <path clip-path="url(#p904650faee)" d="M 57.6 157.598384 
L 414.72 157.598384 
" style="fill:none;stroke:#b0b0b0;stroke-linecap:square;stroke-width:0.8;"/>
     </g>
     <g id="line2d_18">
      <g>
       <use style="stroke:#000000;stroke-width:0.8;" x="57.6" xlink:href="#m0256200324" y="157.598384"/>
      </g>
     </g>
     <g id="text_10">
      <!-- 0.6 -->
      <g transform="translate(34.696875 161.397602)scale(0.1 -0.1)">
       <use xlink:href="#DejaVuSans-30"/>
       <use x="63.623047" xlink:href="#DejaVuSans-2e"/>
       <use x="95.410156" xlink:href="#DejaVuSans-36"/>
      </g>
     </g>
    </g>
    <g id="ytick_5">
     <g id="line2d_19">
      <path clip-path="url(#p904650faee)" d="M 57.6 107.590319 
L 414.72 107.590319 
" style="fill:none;stroke:#b0b0b0;stroke-linecap:square;stroke-width:0.8;"/>
     </g>
     <g id="line2d_20">
      <g>
       <use style="stroke:#000000;stroke-width:0.8;" x="57.6" xlink:href="#m0256200324" y="107.590319"/>
      </g>
     </g>
     <g id="text_11">
      <!-- 0.8 -->
      <g transform="translate(34.696875 111.389538)scale(0.1 -0.1)">
       <use xlink:href="#DejaVuSans-30"/>
       <use x="63.623047" xlink:href="#DejaVuSans-2e"/>
       <use x="95.410156" xlink:href="#DejaVuSans-38"/>
      </g>
     </g>
    </g>
    <g id="ytick_6">
     <g id="line2d_21">
      <path clip-path="url(#p904650faee)" d="M 57.6 57.582255 
L 414.72 57.582255 
" style="fill:none;stroke:#b0b0b0;stroke-linecap:square;stroke-width:0.8;"/>
     </g>
     <g id="line2d_22">
      <g>
       <use style="stroke:#000000;stroke-width:0.8;" x="57.6" xlink:href="#m0256200324" y="57.582255"/>
      </g>
     </g>
     <g id="text_12">
      <!-- 1.0 -->
      <defs>
       <path d="M 12.40625 8.296875 
L 28.515625 8.296875 
L 28.515625 63.921875 
L 10.984375 60.40625 
L 10.984375 69.390625 
L 28.421875 72.90625 
L 38.28125 72.90625 
L 38.28125 8.296875 
L 54.390625 8.296875 
L 54.390625 0 
L 12.40625 0 
z
" id="DejaVuSans-31"/>
      </defs>
      <g transform="translate(34.696875 61.381474)scale(0.1 -0.1)">
       <use xlink:href="#DejaVuSans-31"/>
       <use x="63.623047" xlink:href="#DejaVuSans-2e"/>
       <use x="95.410156" xlink:href="#DejaVuSans-30"/>
      </g>
     </g>
    </g>
    <g id="text_13">
     <!-- Pressure (bar) -->
     <defs>
      <path d="M 19.671875 64.796875 
L 19.671875 37.40625 
L 32.078125 37.40625 
Q 38.96875 37.40625 42.71875 40.96875 
Q 46.484375 44.53125 46.484375 51.125 
Q 46.484375 57.671875 42.71875 61.234375 
Q 38.96875 64.796875 32.078125 64.796875 
z
M 9.8125 72.90625 
L 32.078125 72.90625 
Q 44.34375 72.90625 50.609375 67.359375 
Q 56.890625 61.8125 56.890625 51.125 
Q 56.890625 40.328125 50.609375 34.8125 
Q 44.34375 29.296875 32.078125 29.296875 
L 19.671875 29.296875 
L 19.671875 0 
L 9.8125 0 
z
" id="DejaVuSans-50"/>
      <path d="M 41.109375 46.296875 
Q 39.59375 47.171875 37.8125 47.578125 
Q 36.03125 48 33.890625 48 
Q 26.265625 48 22.1875 43.046875 
Q 18.109375 38.09375 18.109375 28.8125 
L 18.109375 0 
L 9.078125 0 
L 9.078125 54.6875 
L 18.109375 54.6875 
L 18.109375 46.1875 
Q 20.953125 51.171875 25.484375 53.578125 
Q 30.03125 56 36.53125 56 
Q 37.453125 56 38.578125 55.875 
Q 39.703125 55.765625 41.0625 55.515625 
z
" id="DejaVuSans-72"/>
      <path d="M 56.203125 29.59375 
L 56.203125 25.203125 
L 14.890625 25.203125 
Q 15.484375 15.921875 20.484375 11.0625 
Q 25.484375 6.203125 34.421875 6.203125 
Q 39.59375 6.203125 44.453125 7.46875 
Q 49.3125 8.734375 54.109375 11.28125 
L 54.109375 2.78125 
Q 49.265625 0.734375 44.1875 -0.34375 
Q 39.109375 -1.421875 33.890625 -1.421875 
Q 20.796875 -1.421875 13.15625 6.1875 
Q 5.515625 13.8125 5.515625 26.8125 
Q 5.515625 40.234375 12.765625 48.109375 
Q 20.015625 56 32.328125 56 
Q 43.359375 56 49.78125 48.890625 
Q 56.203125 41.796875 56.203125 29.59375 
z
M 47.21875 32.234375 
Q 47.125 39.59375 43.09375 43.984375 
Q 39.0625 48.390625 32.421875 48.390625 
Q 24.90625 48.390625 20.390625 44.140625 
Q 15.875 39.890625 15.1875 32.171875 
z
" id="DejaVuSans-65"/>
      <path d="M 8.5 21.578125 
L 8.5 54.6875 
L 17.484375 54.6875 
L 17.484375 21.921875 
Q 17.484375 14.15625 20.5 10.265625 
Q 23.53125 6.390625 29.59375 6.390625 
Q 36.859375 6.390625 41.078125 11.03125 
Q 45.3125 15.671875 45.3125 23.6875 
L 45.3125 54.6875 
L 54.296875 54.6875 
L 54.296875 0 
L 45.3125 0 
L 45.3125 8.40625 
Q 42.046875 3.421875 37.71875 1 
Q 33.40625 -1.421875 27.6875 -1.421875 
Q 18.265625 -1.421875 13.375 4.4375 
Q 8.5 10.296875 8.5 21.578125 
z
M 31.109375 56 
z
" id="DejaVuSans-75"/>
      <path id="DejaVuSans-20"/>
      <path d="M 48.6875 27.296875 
Q 48.6875 37.203125 44.609375 42.84375 
Q 40.53125 48.484375 33.40625 48.484375 
Q 26.265625 48.484375 22.1875 42.84375 
Q 18.109375 37.203125 18.109375 27.296875 
Q 18.109375 17.390625 22.1875 11.75 
Q 26.265625 6.109375 33.40625 6.109375 
Q 40.53125 6.109375 44.609375 11.75 
Q 48.6875 17.390625 48.6875 27.296875 
z
M 18.109375 46.390625 
Q 20.953125 51.265625 25.265625 53.625 
Q 29.59375 56 35.59375 56 
Q 45.5625 56 51.78125 48.09375 
Q 58.015625 40.1875 58.015625 27.296875 
Q 58.015625 14.40625 51.78125 6.484375 
Q 45.5625 -1.421875 35.59375 -1.421875 
Q 29.59375 -1.421875 25.265625 0.953125 
Q 20.953125 3.328125 18.109375 8.203125 
L 18.109375 0 
L 9.078125 0 
L 9.078125 75.984375 
L 18.109375 75.984375 
z
" id="DejaVuSans-62"/>
      <path d="M 34.28125 27.484375 
Q 23.390625 27.484375 19.1875 25 
Q 14.984375 22.515625 14.984375 16.5 
Q 14.984375 11.71875 18.140625 8.90625 
Q 21.296875 6.109375 26.703125 6.109375 
Q 34.1875 6.109375 38.703125 11.40625 
Q 43.21875 16.703125 43.21875 25.484375 
L 43.21875 27.484375 
z
M 52.203125 31.203125 
L 52.203125 0 
L 43.21875 0 
L 43.21875 8.296875 
Q 40.140625 3.328125 35.546875 0.953125 
Q 30.953125 -1.421875 24.3125 -1.421875 
Q 15.921875 -1.421875 10.953125 3.296875 
Q 6 8.015625 6 15.921875 
Q 6 25.140625 12.171875 29.828125 
Q 18.359375 34.515625 30.609375 34.515625 
L 43.21875 34.515625 
L 43.21875 35.40625 
Q 43.21875 41.609375 39.140625 45 
Q 35.0625 48.390625 27.6875 48.390625 
Q 23 48.390625 18.546875 47.265625 
Q 14.109375 46.140625 10.015625 43.890625 
L 10.015625 52.203125 
Q 14.9375 54.109375 19.578125 55.046875 
Q 24.21875 56 28.609375 56 
Q 40.484375 56 46.34375 49.84375 
Q 52.203125 43.703125 52.203125 31.203125 
z
" id="DejaVuSans-61"/>
     </defs>
     <g transform="translate(28.617187 209.9655)rotate(-90)scale(0.1 -0.1)">
      <use xlink:href="#DejaVuSans-50"/>
      <use x="60.287109" xlink:href="#DejaVuSans-72"/>
      <use x="101.369141" xlink:href="#DejaVuSans-65"/>
      <use x="162.892578" xlink:href="#DejaVuSans-73"/>
      <use x="214.992188" xlink:href="#DejaVuSans-73"/>
      <use x="267.091797" xlink:href="#DejaVuSans-75"/>
      <use x="330.470703" xlink:href="#DejaVuSans-72"/>
      <use x="371.552734" xlink:href="#DejaVuSans-65"/>
      <use x="433.076172" xlink:href="#DejaVuSans-20"/>
      <use x="464.863281" xlink:href="#DejaVuSans-28"/>
      <use x="503.876953" xlink:href="#DejaVuSans-62"/>
      <use x="567.353516" xlink:href="#DejaVuSans-61"/>
      <use x="628.632812" xlink:href="#DejaVuSans-72"/>
      <use x="669.746094" xlink:href="#DejaVuSans-29"/>
     </g>
    </g>
   </g>
   <g id="line2d_23">
    <path clip-path="url(#p904650faee)" d="M 73.832727 57.395355 
L 74.013106 57.279846 
L 74.157409 57.335668 
L 74.301712 57.350547 
L 75.42006 57.31912 
L 75.528648 57.324578 
L 75.636875 57.310369 
L 75.745102 57.373774 
L 75.889405 57.308793 
L 76.394465 57.31776 
L 76.574844 57.312441 
L 76.61092 57.393017 
L 76.683071 57.324508 
L 76.791298 57.327251 
L 76.899525 57.332092 
L 77.152055 57.311131 
L 77.332434 57.314087 
L 77.476737 57.306243 
L 77.693552 57.312299 
L 77.729628 57.395497 
L 77.801779 57.325391 
L 77.982158 57.27026 
L 78.018234 57.366117 
L 78.090385 57.287285 
L 78.234688 57.354626 
L 78.378991 57.301282 
L 78.415067 57.403198 
L 78.487218 57.330637 
L 78.55937 57.311416 
L 78.595806 57.394377 
L 78.667958 57.294796 
L 81.121108 57.323126 
L 81.193259 57.391634 
L 81.229335 57.324293 
L 81.445789 57.309056 
L 82.023001 57.361039 
L 82.095152 57.24062 
L 82.167304 57.277986 
L 82.347683 57.360062 
L 82.491985 57.341176 
L 83.105273 57.302785 
L 83.141349 57.361659 
L 83.2135 57.314849 
L 83.357803 57.320978 
L 83.610333 57.329324 
L 83.754636 57.353243 
L 83.935015 57.343251 
L 84.223621 57.324366 
L 84.259696 57.277151 
L 84.295772 57.325748 
L 84.403999 57.323268 
L 84.692605 57.351383 
L 85.92447 57.377422 
L 86.033048 57.313349 
L 86.105192 57.399478 
L 86.177336 57.340223 
L 86.539861 57.314849 
L 86.902747 57.424994 
L 87.083468 57.308723 
L 87.191684 57.358489 
L 87.300261 57.402651 
L 87.373127 57.421821 
L 87.409199 57.373296 
L 87.808518 57.288668 
L 87.917455 57.345659 
L 88.026754 57.359919 
L 88.280702 57.375634 
L 88.389279 57.378257 
L 88.642866 57.430765 
L 88.896814 57.343321 
L 89.293968 57.334427 
L 89.438256 57.363447 
L 90.123627 57.397618 
L 90.340059 57.388534 
L 90.448276 57.338768 
L 90.557214 57.362327 
L 90.774368 57.309676 
L 90.918656 57.356556 
L 91.026873 57.291005 
L 91.171883 57.33767 
L 91.354047 57.306098 
L 91.390119 57.397213 
L 91.462263 57.33786 
L 91.606912 57.329944 
L 91.933365 57.385983 
L 92.00587 57.341534 
L 92.042303 57.391897 
L 95.373564 57.389344 
L 95.555007 57.358344 
L 95.772161 57.424637 
L 95.844666 57.407539 
L 95.988954 57.364067 
L 96.242541 57.392324 
L 96.785427 57.348355 
L 96.930076 57.292246 
L 97.800136 57.369791 
L 97.945506 57.287977 
L 98.053723 57.396665 
L 98.089795 57.339603 
L 98.270516 57.39874 
L 98.415887 57.269854 
L 98.561257 57.318022 
L 98.74234 57.348355 
L 98.923782 57.415335 
L 99.068432 57.374201 
L 99.394163 57.314302 
L 99.538451 57.37909 
L 99.68274 57.383573 
L 99.8631 57.370053 
L 100.007389 57.330707 
L 100.224183 57.415693 
L 100.441697 57.36607 
L 100.694563 57.405679 
L 100.839934 57.369791 
L 101.056366 57.344419 
L 101.27316 57.361922 
L 101.454603 57.275028 
L 101.563541 57.465101 
L 101.636045 57.364212 
L 101.852839 57.344824 
L 102.03356 57.340698 
L 102.575724 57.36669 
L 102.793239 57.411545 
L 102.938249 57.315399 
L 103.08362 57.37909 
L 103.372558 57.420581 
L 103.626145 57.294939 
L 103.771155 57.28998 
L 103.879732 57.298659 
L 106.522015 57.372676 
L 106.666303 57.322838 
L 106.702375 57.28762 
L 106.738808 57.36476 
L 106.811674 57.403271 
L 106.847746 57.323601 
L 106.920251 57.36662 
L 107.318487 57.385291 
L 107.535642 57.396522 
L 107.934599 57.301617 
L 108.079609 57.350142 
L 108.224619 57.32167 
L 108.478206 57.374679 
L 108.586783 57.424849 
L 108.731793 57.339173 
L 109.13039 57.387628 
L 109.2754 57.346899 
L 109.347905 57.390726 
L 109.384338 57.344276 
L 109.637564 57.282612 
L 109.819007 57.326559 
L 109.963296 57.301975 
L 110.47083 57.380117 
L 110.542975 57.32043 
L 110.579407 57.365165 
L 110.76085 57.384193 
L 111.411591 57.340413 
L 111.556241 57.338696 
L 111.844818 57.36917 
L 112.02626 57.311606 
L 112.135198 57.406251 
L 112.208064 57.279226 
L 112.244136 57.351168 
L 112.497723 57.352073 
L 112.678445 57.383693 
L 112.823094 57.351598 
L 112.967382 57.436486 
L 113.148464 57.381833 
L 113.509907 57.351858 
L 113.618123 57.374131 
L 113.870628 57.345944 
L 114.050989 57.361229 
L 114.304576 57.349592 
L 114.37672 57.334357 
L 114.413153 57.382453 
L 114.737802 57.366 
L 114.882091 57.378327 
L 115.027461 57.329062 
L 117.707259 57.377017 
L 117.779764 57.367788 
L 117.815837 57.290933 
L 117.888342 57.352335 
L 118.540165 57.389416 
L 118.721608 57.301687 
L 119.011628 57.292388 
L 120.350625 57.392324 
L 120.458841 57.311606 
L 120.494913 57.354268 
L 120.675274 57.382595 
L 120.856717 57.387221 
L 121.001727 57.315399 
L 121.18317 57.288597 
L 121.327458 57.421346 
L 121.363891 57.322433 
L 121.581766 57.363019 
L 121.763209 57.36619 
L 122.052508 57.370746 
L 122.197518 57.392587 
L 122.3786 57.369433 
L 122.849702 57.294533 
L 122.994712 57.325939 
L 123.284732 57.41059 
L 124.335152 57.345372 
L 124.408017 57.27274 
L 124.44409 57.334022 
L 124.625893 57.282181 
L 124.770903 57.337385 
L 125.097356 57.345039 
L 125.278077 57.396927 
L 126.146694 57.283494 
L 126.218838 57.371983 
L 126.25491 57.281919 
L 126.363487 57.373011 
L 126.39992 57.342011 
L 127.957515 57.346137 
L 128.066813 57.306385 
L 129.080079 57.374131 
L 129.116512 57.450341 
L 129.189378 57.392469 
L 129.334027 57.371436 
L 129.551903 57.389154 
L 129.66084 57.287977 
L 129.697273 57.395067 
L 129.769778 57.330349 
L 130.059077 57.305335 
L 130.095149 57.37902 
L 130.168014 57.323601 
L 132.303124 57.30493 
L 132.483845 57.315757 
L 132.772422 57.269019 
L 132.953143 57.331042 
L 133.242802 57.308578 
L 133.387091 57.33264 
L 134.00176 57.389081 
L 134.146048 57.360467 
L 134.254265 57.41381 
L 134.290337 57.384598 
L 134.545006 57.31981 
L 140.342879 57.315614 
L 140.48825 57.251374 
L 140.886847 57.403271 
L 141.068289 57.371723 
L 143.27915 57.352835 
L 143.315222 57.420034 
L 143.351655 57.31919 
L 143.497386 57.285209 
L 143.605603 57.347805 
L 143.750613 57.335525 
L 143.932055 57.321193 
L 144.076705 57.410377 
L 144.257426 57.358059 
L 144.438508 57.384933 
L 144.512095 57.352955 
L 144.548167 57.388056 
L 145.527886 57.367095 
L 145.637185 57.418363 
L 145.673257 57.371913 
L 146.397585 57.326369 
L 146.433657 57.259313 
L 146.47009 57.391562 
L 146.506523 57.301617 
L 147.197665 57.346827 
L 147.234098 57.284184 
L 147.306242 57.344967 
L 147.56019 57.311274 
L 147.886642 57.329539 
L 148.103797 57.317067 
L 148.248807 57.350978 
L 148.357023 57.384455 
L 148.393095 57.328299 
L 148.465239 57.413333 
L 148.609889 57.377302 
L 148.827764 57.389846 
L 148.972774 57.31838 
L 149.008846 57.391204 
L 149.081351 57.354768 
L 149.516742 57.300519 
L 149.552814 57.439729 
L 149.624958 57.286522 
L 149.842834 57.385983 
L 149.987483 57.299279 
L 150.169287 57.399693 
L 150.531451 57.393969 
L 150.676461 57.378469 
L 150.712893 57.313682 
L 150.785398 57.395497 
L 151.002553 57.31919 
L 151.25614 57.311894 
L 151.292573 57.393899 
L 151.364717 57.301425 
L 151.980829 57.409064 
L 152.27157 57.331542 
L 152.597662 57.308983 
L 152.633734 57.282324 
L 152.673774 57.377492 
L 153.072371 57.357654 
L 153.542752 57.340483 
L 153.832772 57.344276 
L 154.775697 57.413405 
L 154.920707 57.236017 
L 155.065717 57.358416 
L 155.174294 57.300734 
L 155.210727 57.339053 
L 155.863272 57.381427 
L 156.080786 57.412642 
L 156.298662 57.339173 
L 156.480105 57.352145 
L 156.770125 57.283707 
L 156.914774 57.344754 
L 157.059784 57.323341 
L 157.422309 57.469704 
L 157.531247 57.352408 
L 157.712329 57.422919 
L 157.820545 57.396927 
L 158.074132 57.339531 
L 158.110204 57.27467 
L 158.182709 57.371508 
L 158.436296 57.357511 
L 158.581306 57.316567 
L 159.161346 57.390536 
L 159.306356 57.346757 
L 182.03937 57.345324 
L 182.184741 138.012775 
L 182.438689 166.04334 
L 182.547266 170.808415 
L 183.344099 219.518355 
L 183.961293 239.188055 
L 184.577766 251.595178 
L 185.48498 263.204765 
L 186.246462 269.309703 
L 186.3554 269.981184 
L 186.863656 272.663593 
L 188.168746 277.130251 
L 188.277323 277.388696 
L 188.675559 278.237508 
L 189.328104 279.668065 
L 189.364537 279.635739 
L 189.400609 279.692322 
L 189.582052 280.057457 
L 190.017081 280.755334 
L 190.053153 280.745685 
L 190.234236 281.034114 
L 190.270668 281.005374 
L 190.30674 281.070845 
L 191.103934 282.360946 
L 191.140367 282.298369 
L 191.1768 282.395131 
L 193.026939 284.504336 
L 193.244815 285.436813 
L 193.534474 285.855843 
L 193.571268 285.805463 
L 193.60734 285.8821 
L 193.825216 286.036618 
L 193.934153 286.017458 
L 194.079524 286.184036 
L 194.115957 286.131106 
L 194.261328 286.288311 
L 194.406338 286.408506 
L 194.550987 286.427872 
L 194.73279 286.638008 
L 194.986738 286.713543 
L 195.058882 286.836151 
L 195.131748 286.777638 
L 195.240686 286.845799 
L 195.457479 286.909618 
L 195.493912 286.887082 
L 195.529984 286.978675 
L 195.711066 287.041944 
L 195.928581 287.245324 
L 196.254673 287.402874 
L 196.326818 287.501221 
L 196.36325 287.422654 
L 196.726136 287.625552 
L 196.762208 287.570002 
L 196.79828 287.688475 
L 197.052589 287.808601 
L 197.125094 287.838512 
L 197.306536 288.009088 
L 197.342609 287.955607 
L 197.379041 287.993857 
L 197.524412 288.173115 
L 197.560484 288.105712 
L 197.596556 288.135624 
L 197.705133 288.266845 
L 197.813711 288.244309 
L 197.959442 288.353891 
L 198.104813 288.393657 
L 199.736715 289.263625 
L 199.845653 289.316073 
L 199.990303 289.458597 
L 200.026735 289.432408 
L 201.186454 289.999958 
L 201.258959 290.093205 
L 201.295031 290.14848 
L 201.331103 290.102993 
L 201.439681 290.100306 
L 201.730422 290.365024 
L 201.766855 290.271294 
L 201.802927 290.40417 
L 202.745852 290.686877 
L 202.782285 290.642286 
L 202.818357 290.728021 
L 202.9998 290.903146 
L 204.231663 291.409357 
L 204.376673 291.5616 
L 204.593827 291.777317 
L 204.666693 291.749474 
L 204.811342 291.878697 
L 204.884208 291.961607 
L 204.920641 291.837484 
L 205.138156 292.046654 
L 205.174588 292.003234 
L 205.246733 292.070017 
L 205.391382 292.139764 
L 205.718556 292.302413 
L 206.045009 292.68519 
L 206.081081 292.58064 
L 206.153225 292.69801 
L 206.262163 292.721029 
L 206.552544 292.907525 
L 206.588616 292.768927 
L 206.66076 292.889675 
L 206.733265 292.900977 
L 206.769698 293.040952 
L 206.842203 292.968587 
L 206.95078 292.977133 
L 207.167573 293.142195 
L 207.204006 293.072793 
L 207.240439 293.22159 
L 207.276872 293.204842 
L 207.421521 293.34206 
L 207.494026 293.265492 
L 207.530459 293.371696 
L 207.639036 293.441786 
L 207.675108 293.357153 
L 207.747613 293.410015 
L 207.856551 293.535999 
L 207.892984 293.518493 
L 208.037633 293.653576 
L 208.146932 293.549025 
L 208.183004 293.63035 
L 208.473024 293.70623 
L 208.654106 293.783626 
L 208.835548 293.90196 
L 208.908053 293.874186 
L 208.980919 294.031253 
L 209.053063 293.988868 
L 209.705969 294.223952 
L 209.742402 294.165026 
L 209.814546 294.249313 
L 210.068494 294.325676 
L 210.213504 294.441048 
L 210.57675 294.606661 
L 210.721399 294.607488 
L 211.193583 294.710315 
L 211.338954 294.780061 
L 211.556108 294.902048 
L 211.846489 294.978066 
L 211.991138 295.023139 
L 212.027571 295.123761 
L 212.100076 295.002532 
L 212.244725 295.088268 
L 212.606889 295.168284 
L 212.751899 295.219835 
L 212.89727 295.353883 
L 212.969775 295.292821 
L 213.006208 295.371181 
L 213.18729 295.325006 
L 213.33266 295.480764 
L 213.405165 295.408467 
L 213.441237 295.470012 
L 214.528812 295.442926 
L 214.710255 295.488 
L 214.855265 295.446166 
L 215.689252 295.393443 
L 215.725324 295.435346 
L 215.797469 295.36684 
L 216.051416 295.439205 
L 216.196787 295.343131 
L 216.341436 295.322525 
L 216.99326 295.019279 
L 217.13827 295.037543 
L 217.247207 295.052292 
L 217.465083 295.055945 
L 217.646165 295.046158 
L 217.755103 295.095986 
L 218.044762 294.998259 
L 218.226205 295.097159 
L 218.371215 295.008873 
L 218.407648 294.999706 
L 218.516585 295.098055 
L 218.806605 295.021553 
L 218.951615 295.152156 
L 219.024481 295.035406 
L 219.096986 295.081032 
L 219.278429 295.079929 
L 220.040633 295.094402 
L 220.330653 295.104878 
L 220.475302 295.083582 
L 220.620672 295.119626 
L 220.765322 295.058632 
L 221.055342 295.056289 
L 221.164279 295.058978 
L 221.417145 295.132308 
L 221.562516 295.104602 
L 222.105762 295.12962 
L 222.613657 294.999913 
L 222.795461 295.132101 
L 222.939749 295.037888 
L 223.085481 295.146229 
L 223.266924 295.088131 
L 223.774458 295.021141 
L 224.208767 295.058219 
L 224.353416 295.042092 
L 225.622433 295.011423 
L 225.731371 294.996124 
L 225.948525 295.100673 
L 226.093535 295.003566 
L 226.238906 295.066213 
L 226.637864 295.066284 
L 226.819306 294.993091 
L 227.509006 295.031548 
L 227.617583 295.044366 
L 229.790567 295.191371 
L 229.97201 295.097159 
L 230.116659 295.129206 
L 230.298102 295.159737 
L 230.442752 295.118938 
L 230.877781 295.20867 
L 231.022791 295.152846 
L 232.87257 295.13086 
L 233.090445 295.101225 
L 233.235816 295.147401 
L 233.416898 295.150778 
L 233.561908 295.196747 
L 233.670846 295.190682 
L 233.852289 295.194611 
L 234.033732 295.106808 
L 234.178381 295.214459 
L 234.358741 295.139406 
L 234.647318 295.186134 
L 235.625595 295.164355 
L 235.662027 295.230517 
L 235.734893 295.150847 
L 236.386716 295.140716 
L 236.531726 295.082755 
L 236.749602 295.138786 
L 237.039622 295.149193 
L 237.511084 295.175037 
L 237.76395 295.145953 
L 238.416856 295.112459 
L 238.597938 295.193438 
L 238.634371 295.004601 
L 238.707236 295.159875 
L 238.851885 295.1953 
L 239.178699 295.122107 
L 239.215132 295.197643 
L 239.287276 295.130378 
L 239.577657 295.003566 
L 239.723027 295.171729 
L 239.867676 295.051879 
L 239.976975 295.193714 
L 240.013408 295.161598 
L 240.122346 295.168559 
L 240.303788 295.130584 
L 241.898537 295.114595 
L 242.007475 295.071108 
L 242.261062 295.089026 
L 243.819738 295.051672 
L 244.001181 295.125071 
L 244.363706 295.182205 
L 244.726592 295.126174 
L 244.835169 295.147884 
L 245.016612 295.096745 
L 245.234487 295.158497 
L 245.379497 295.192818 
L 245.633445 295.190062 
L 245.851321 295.169868 
L 246.14098 295.171109 
L 246.28635 295.094402 
L 246.467433 295.104739 
L 246.576731 295.172694 
L 246.612803 295.125898 
L 247.446069 295.194955 
L 247.627512 295.063734 
L 247.700017 295.165458 
L 247.772883 295.122796 
L 248.316129 295.143886 
L 248.425067 295.207843 
L 248.461139 295.127345 
L 248.533644 295.169179 
L 248.750798 295.230724 
L 248.895808 295.182343 
L 250.237691 295.159669 
L 250.346268 295.182205 
L 251.035246 295.15126 
L 251.253121 295.203294 
L 251.397771 295.176967 
L 251.833522 295.130722 
L 252.049955 295.133823 
L 252.086027 295.053395 
L 252.158532 295.122107 
L 252.376047 295.126311 
L 252.846427 295.148366 
L 253.100375 295.16022 
L 253.824703 295.088336 
L 253.933641 295.067109 
L 254.042218 295.14361 
L 254.078651 295.106393 
L 254.187228 295.129758 
L 254.332238 295.169523 
L 254.915164 295.17614 
L 255.204101 295.176071 
L 255.89344 295.148366 
L 256.146305 295.184755 
L 256.219171 295.079515 
L 256.255604 295.15064 
L 256.654201 295.069522 
L 257.342457 295.158635 
L 257.37889 295.051809 
L 257.451755 295.181653 
L 257.559972 295.146436 
L 257.596044 295.198746 
L 257.704982 295.139544 
L 259.370792 295.108736 
L 259.443297 295.156843 
L 259.47937 295.118523 
L 259.62474 295.120454 
L 259.76975 295.101501 
L 259.951554 295.012388 
L 260.169069 295.127139 
L 260.386944 295.118523 
L 260.568026 295.150158 
L 261.583096 295.098261 
L 261.727745 295.161391 
L 261.873116 295.173659 
L 262.924618 295.15319 
L 263.10534 295.184686 
L 263.141412 295.099639 
L 263.213556 295.189511 
L 263.358927 295.133755 
L 263.503937 295.202605 
L 263.685379 295.142921 
L 263.793596 295.187856 
L 263.975039 295.115698 
L 264.156121 295.127966 
L 264.337203 295.069522 
L 264.482573 295.13982 
L 264.59115 295.115836 
L 264.7358 295.202605 
L 264.807944 295.136167 
L 264.844016 295.176071 
L 264.989387 295.175451 
L 265.243334 295.126243 
L 265.388344 295.169111 
L 265.678725 295.14616 
L 265.823735 295.100054 
L 266.04125 295.130171 
L 266.222332 295.143679 
L 266.258765 295.049466 
L 266.295198 295.134996 
L 266.33127 295.225486 
L 266.403775 295.152225 
L 266.511991 295.187512 
L 266.548063 295.126243 
L 266.620929 295.172901 
L 267.164536 295.131756 
L 267.309546 295.088131 
L 267.418484 295.150502 
L 267.454556 295.104119 
L 267.527421 295.073934 
L 267.563494 295.112803 
L 267.962091 295.172005 
L 267.998163 295.064905 
L 268.070307 295.126449 
L 268.215678 295.167111 
L 268.39676 295.167387 
L 268.54177 295.13086 
L 268.68678 295.148641 
L 268.723212 295.205293 
L 268.795717 295.154499 
L 269.12217 295.074002 
L 269.158242 295.174899 
L 269.231108 295.121005 
L 269.448623 295.160564 
L 269.557561 295.193508 
L 269.702571 295.149744 
L 270.101168 295.099502 
L 270.210105 295.095573 
L 270.318683 295.165458 
L 270.463692 295.088336 
L 270.644775 295.105705 
L 270.898722 295.104188 
L 271.406257 295.174624 
L 271.550546 295.123417 
L 271.695916 295.118938 
L 273.000284 295.162287 
L 273.036717 295.031616 
L 273.109583 295.130308 
L 273.253871 295.169661 
L 273.543891 295.120385 
L 273.797839 295.055256 
L 273.906416 295.073934 
L 274.305013 295.151398 
L 274.377157 295.117628 
L 274.522528 295.107496 
L 274.595033 295.138441 
L 274.703971 295.149537 
L 275.284371 295.082755 
L 275.538319 295.064766 
L 275.682968 295.102052 
L 275.827978 295.112389 
L 277.568458 295.152225 
L 277.713468 295.19654 
L 277.858839 295.13217 
L 278.474951 295.091162 
L 278.511023 295.146711 
L 278.583889 295.063043 
L 278.837115 295.179241 
L 278.909259 295.106049 
L 278.945331 295.141749 
L 279.05463 295.145953 
L 279.235712 295.127276 
L 280.178998 295.082892 
L 280.287575 295.092265 
L 280.396152 295.14237 
L 280.432224 295.064354 
L 280.50509 295.147608 
L 280.79511 295.139475 
L 280.976192 295.262565 
L 281.08513 295.163528 
L 281.121202 295.229553 
L 281.266573 295.215079 
L 281.37515 295.206258 
L 281.483366 295.078136 
L 281.519799 295.111218 
L 281.629097 295.089646 
L 281.738035 295.064354 
L 281.883045 295.158566 
L 282.064488 295.116593 
L 282.281281 295.169111 
L 282.389859 295.127001 
L 282.752383 295.155464 
L 282.788816 295.082341 
L 282.860961 295.128586 
L 283.223846 295.078343 
L 283.405289 295.086408 
L 283.585649 295.099915 
L 283.766371 295.132514 
L 284.092463 295.142025 
L 284.49106 295.18634 
L 284.63607 295.157876 
L 284.853585 295.111562 
L 285.0711 295.061045 
L 285.180037 295.099778 
L 285.324687 295.070625 
L 285.433625 295.159461 
L 285.469697 295.112528 
L 285.868654 295.130033 
L 286.122241 295.14616 
L 286.267251 295.120522 
L 286.411901 295.180413 
L 286.447973 295.13086 
L 288.874545 295.103362 
L 289.019194 295.081032 
L 291.230054 295.166905 
L 291.375425 193.57169 
L 291.629012 174.383887 
L 292.863039 66.41344 
L 293.189492 57.210717 
L 293.443079 53.568 
L 293.479512 53.627542 
L 294.058109 57.301687 
L 294.529211 57.952078 
L 294.601716 57.974421 
L 294.783159 58.106121 
L 294.819592 58.051729 
L 294.891736 58.10915 
L 295.036746 57.99295 
L 295.218189 57.391084 
L 295.326766 57.224427 
L 295.363198 57.25972 
L 295.508208 57.346564 
L 295.617146 57.338838 
L 295.762156 57.405751 
L 296.015743 57.340008 
L 296.160392 57.431956 
L 296.378268 57.356628 
L 296.594701 57.356818 
L 296.812576 57.311966 
L 296.994019 57.330422 
L 297.102596 57.345372 
L 297.139029 57.276816 
L 297.211534 57.363019 
L 297.537987 57.376754 
L 297.719069 57.39645 
L 297.900512 57.387221 
L 298.045882 57.330922 
L 298.190171 57.354553 
L 298.33482 57.308363 
L 298.588768 57.346422 
L 298.734139 57.315137 
L 298.842355 57.415335 
L 298.987365 57.355388 
L 299.132375 57.378042 
L 301.67077 57.311416 
L 301.707203 57.453442 
L 301.780069 57.366883 
L 302.106522 57.392517 
L 302.577984 57.339173 
L 302.614056 57.393494 
L 302.650489 57.347662 
L 302.686561 57.293771 
L 302.722633 57.349522 
L 302.758706 57.396307 
L 302.83085 57.33643 
L 303.084798 57.31919 
L 303.193375 57.331042 
L 303.302313 57.376754 
L 303.338385 57.323341 
L 307.544755 57.301425 
L 307.689044 57.307483 
L 307.870847 57.383978 
L 308.052651 57.393279 
L 308.270166 57.437679 
L 311.529643 57.312776 
L 311.566076 57.403771 
L 311.63822 57.369243 
L 311.820023 57.360754 
L 311.964673 57.384385 
L 312.218981 57.354553 
L 312.255414 57.443187 
L 312.327919 57.370268 
L 312.654011 57.338075 
L 312.690444 57.430908 
L 312.726516 57.298254 
L 312.762949 57.350547 
L 312.980825 57.320645 
L 313.089762 57.386936 
L 313.197979 57.33705 
L 313.234051 57.408922 
L 313.306556 57.359299 
L 313.814091 57.360609 
L 313.850523 57.41238 
L 313.923028 57.355793 
L 314.104471 57.338148 
L 314.358419 57.315542 
L 314.394852 57.380187 
L 314.467717 57.327799 
L 314.576655 57.362827 
L 314.830964 57.405011 
L 314.975613 57.378469 
L 315.011685 57.425542 
L 315.047757 57.319953 
L 315.083829 57.352145 
L 316.135693 57.371293 
L 316.171765 57.308363 
L 316.24427 57.373701 
L 316.425712 57.406584 
L 316.607155 57.302237 
L 316.752165 57.396045 
L 316.897536 57.265036 
L 316.933608 57.353933 
L 317.332205 57.339388 
L 317.440782 57.382405 
L 317.585431 57.326559 
L 318.418337 57.373916 
L 318.636212 57.326439 
L 318.817655 57.304025 
L 319.035531 57.305693 
L 319.253046 57.365642 
L 319.289479 57.285282 
L 319.325911 57.439324 
L 319.362344 57.354338 
L 319.507354 57.370053 
L 319.688075 57.403486 
L 319.733887 57.279153 
L 319.806392 57.352623 
L 319.987835 57.350833 
L 320.278215 57.4409 
L 320.568957 57.344014 
L 320.60539 57.413263 
L 320.677895 57.331947 
L 320.822905 57.349045 
L 321.003987 57.315947 
L 321.149357 57.306243 
L 321.330079 57.39459 
L 321.47581 57.362064 
L 321.620459 57.388176 
L 321.765469 57.339458 
L 321.91084 57.396187 
L 322.019417 57.352408 
L 322.05585 57.384265 
L 322.200499 57.345254 
L 322.236932 57.409279 
L 322.309437 57.325676 
L 322.454447 57.314159 
L 322.599457 57.305885 
L 322.708395 57.346137 
L 322.744827 57.29148 
L 322.78126 57.371983 
L 322.817332 57.438084 
L 322.889837 57.375704 
L 323.506671 57.36483 
L 323.942422 57.351383 
L 324.123504 57.371366 
L 324.268875 57.340483 
L 324.522101 57.410782 
L 324.558534 57.327131 
L 324.631039 57.374249 
L 325.102862 57.338696 
L 325.211079 57.308793 
L 325.320016 57.325676 
L 325.465026 57.366 
L 325.64683 57.397285 
L 325.791479 57.409064 
L 325.93685 57.397763 
L 326.08186 57.394995 
L 326.407591 57.370268 
L 326.589395 57.324078 
L 326.661539 57.288668 
L 326.697972 57.370601 
L 326.734405 57.406872 
L 326.770837 57.360824 
L 326.879414 57.327679 
L 327.024785 57.403486 
L 327.205867 57.387221 
L 327.278733 57.389154 
L 327.314805 57.316855 
L 327.38731 57.393827 
L 327.495887 57.340771 
L 327.53232 57.371436 
L 327.641258 57.377637 
L 327.67733 57.304095 
L 327.749474 57.350285 
L 327.858773 57.387078 
L 327.894845 57.331662 
L 328.039855 57.314779 
L 328.075927 57.36495 
L 328.148792 57.282539 
L 328.511317 57.389344 
L 328.54775 57.340078 
L 328.584183 57.370126 
L 328.620616 57.4414 
L 328.693482 57.368885 
L 328.984223 57.286332 
L 329.129233 57.312656 
L 329.78286 57.412522 
L 329.92823 57.390179 
L 330.508992 57.311966 
L 330.654002 57.355578 
L 330.834362 57.35317 
L 331.196526 57.393969 
L 331.450474 57.411687 
L 332.575203 57.37971 
L 333.045944 57.41133 
L 333.372397 57.308173 
L 333.481335 57.320573 
L 333.626345 57.297681 
L 333.771355 57.330564 
L 333.916365 57.288047 
L 334.025663 57.422704 
L 334.061735 57.399765 
L 334.243178 57.410377 
L 334.461414 57.295274 
L 334.606424 57.393707 
L 334.787867 57.332497 
L 335.258969 57.32167 
L 335.403979 57.384313 
L 335.621855 57.307195 
L 335.766865 57.403891 
L 336.999449 57.392182 
L 337.216964 57.412642 
L 337.542335 57.38095 
L 337.687705 57.363997 
L 338.04987 57.356486 
L 338.230952 57.327941 
L 338.810631 57.335595 
L 338.919568 57.400601 
L 338.956001 57.343514 
L 339.282454 57.388176 
L 339.426743 57.389701 
L 339.789989 57.313969 
L 340.080009 57.329802 
L 340.116442 57.412237 
L 340.188586 57.345732 
L 340.443616 57.377017 
L 340.588986 57.327131 
L 340.661491 57.4099 
L 340.697924 57.329109 
L 341.312593 57.339936 
L 341.71083 57.325533 
L 341.819767 57.42788 
L 341.855839 57.343656 
L 343.919886 57.390106 
L 344.100969 57.378327 
L 346.8576 57.345732 
L 346.894033 57.418221 
L 346.966538 57.370673 
L 347.255837 57.377492 
L 347.43764 57.390726 
L 347.58265 57.307816 
L 347.980526 57.304573 
L 348.053391 57.399693 
L 348.125896 57.324771 
L 348.415916 57.369648 
L 348.705936 57.344967 
L 351.173269 57.383215 
L 351.209342 57.459928 
L 351.282568 57.386316 
L 354.147055 57.377994 
L 354.292426 57.404869 
L 354.727456 57.339458 
L 354.836394 57.357869 
L 354.872827 57.247391 
L 354.944971 57.318857 
L 355.380722 57.347377 
L 355.597155 57.382263 
L 355.633227 57.426925 
L 355.705371 57.362542 
L 355.923247 57.381427 
L 356.140401 57.409542 
L 356.866533 57.297896 
L 357.047976 57.35124 
L 357.229058 57.308793 
L 357.26513 57.436844 
L 357.337635 57.391204 
L 357.519078 57.349785 
L 357.664448 57.391277 
L 357.809098 57.328299 
L 357.918396 57.405964 
L 357.954468 57.349855 
L 358.316993 57.339673 
L 358.462724 57.334975 
L 358.607734 57.369433 
L 358.644167 57.439539 
L 358.716672 57.371913 
L 358.897394 57.406369 
L 358.933827 57.355316 
L 359.006331 57.419341 
L 359.296712 57.351025 
L 359.332784 57.41133 
L 359.40565 57.353648 
L 359.659598 57.342894 
L 359.804608 57.319668 
L 359.949978 57.334715 
L 360.094627 57.343871 
L 360.203205 57.351095 
L 360.239637 57.433936 
L 360.312142 57.347735 
L 360.384647 57.416028 
L 360.42072 57.357366 
L 364.51707 57.376539 
L 364.553503 57.278606 
L 364.626008 57.355936 
L 364.915306 57.295201 
L 365.060316 57.36488 
L 365.531418 57.421059 
L 365.640717 57.36476 
L 365.676789 57.414383 
L 365.894665 57.330707 
L 367.055105 57.396737 
L 367.091177 57.295894 
L 367.163682 57.36488 
L 367.634784 57.31664 
L 367.779433 57.329324 
L 368.250535 57.361444 
L 368.793781 57.371983 
L 369.119513 57.363305 
L 369.22845 57.347184 
L 369.482398 57.289003 
L 369.627408 57.330637 
L 369.880995 57.325391 
L 370.026005 57.379782 
L 370.279953 57.420081 
L 370.425323 57.336215 
L 370.606406 57.354076 
L 372.783358 57.394115 
L 372.891935 57.410662 
L 373.073378 57.344824 
L 373.109811 57.427115 
L 373.182316 57.374321 
L 373.653418 57.328371 
L 374.12452 57.338005 
L 374.233097 57.393637 
L 374.269169 57.365785 
L 374.632055 57.405201 
L 374.668488 57.288883 
L 374.740993 57.331327 
L 374.957786 57.394877 
L 375.175301 57.369361 
L 375.320311 57.374321 
L 375.393177 57.297276 
L 375.429249 57.366478 
L 375.791774 57.381095 
L 375.973216 57.403819 
L 376.009649 57.354196 
L 376.082154 57.409612 
L 377.315821 57.390871 
L 377.424759 57.387483 
L 377.569408 57.327321 
L 377.714057 57.373224 
L 378.004438 57.327609 
L 378.33053 57.338911 
L 378.76556 57.345659 
L 378.91093 57.395425 
L 379.055579 57.408587 
L 379.49097 57.342774 
L 379.563114 57.297561 
L 379.599186 57.36669 
L 379.852774 57.313897 
L 380.179587 57.36414 
L 380.324597 57.375299 
L 380.36103 57.450556 
L 380.433535 57.38095 
L 380.79642 57.348497 
L 381.122512 57.30183 
L 381.774336 57.371221 
L 381.956139 57.400718 
L 382.427602 57.343799 
L 382.536179 57.366405 
L 382.681549 57.315827 
L 383.333373 57.335525 
L 383.44195 57.39521 
L 383.587321 57.383765 
L 383.623753 57.425615 
L 383.695898 57.360419 
L 384.058423 57.319477 
L 384.16736 57.360897 
L 384.348803 57.325318 
L 384.493813 57.315684 
L 384.638102 57.304025 
L 384.857781 57.452011 
L 385.003152 57.347447 
L 385.43746 57.381165 
L 385.546398 57.334095 
L 385.691408 57.351788 
L 385.836057 57.304525 
L 386.235375 57.423062 
L 386.634333 57.402651 
L 386.779343 57.332162 
L 386.924353 57.358274 
L 387.141507 57.374059 
L 387.359383 57.299207 
L 387.61333 57.359799 
L 388.121947 57.396307 
L 388.266957 57.337933 
L 388.701627 57.302665 
L 388.846997 57.39459 
L 388.919141 57.316997 
L 388.992007 57.36371 
L 389.028079 57.345039 
L 389.064512 57.420774 
L 389.245233 57.447791 
L 389.281666 57.348355 
L 389.354532 57.382953 
L 389.535614 57.360419 
L 389.572047 57.288452 
L 389.644552 57.384385 
L 389.789201 57.344419 
L 389.861345 57.364402 
L 389.897778 57.323458 
L 390.115293 57.329254 
L 390.224592 57.324151 
L 390.369241 57.342226 
L 390.551044 57.395355 
L 390.659261 57.389154 
L 390.767838 57.427617 
L 390.804271 57.39583 
L 391.820422 57.38219 
L 391.964711 57.376397 
L 392.218298 57.41486 
L 392.254731 57.341461 
L 392.327236 57.38095 
L 393.26944 57.329467 
L 393.595532 57.387914 
L 393.813047 57.403341 
L 393.849119 57.334762 
L 393.921624 57.410305 
L 394.864549 57.350547 
L 395.009559 57.402031 
L 395.045631 57.351525 
L 395.118497 57.410852 
L 395.263507 57.368123 
L 395.44531 57.298802 
L 395.481743 57.375919 
L 395.554609 57.298182 
L 395.73533 57.313824 
L 395.916773 57.357654 
L 396.061783 57.381212 
L 396.533246 57.406036 
L 396.569318 57.306718 
L 396.641462 57.403341 
L 396.78575 57.325748 
L 396.821823 57.42981 
L 396.893967 57.368123 
L 397.1104 57.399073 
L 397.254688 57.396807 
L 397.799017 57.310223 
L 397.944027 57.350905 
L 398.052604 57.313969 
L 398.16082 57.39812 
L 398.196892 57.314994 
L 398.269758 57.378947 
L 398.487273 57.345874 
L 398.487273 57.345874 
" style="fill:none;stroke:#1f77b4;stroke-linecap:square;stroke-width:1.5;"/>
   </g>
   <g id="patch_3">
    <path d="M 57.6 307.584 
L 57.6 41.472 
" style="fill:none;stroke:#000000;stroke-linecap:square;stroke-linejoin:miter;stroke-width:0.8;"/>
   </g>
   <g id="patch_4">
    <path d="M 414.72 307.584 
L 414.72 41.472 
" style="fill:none;stroke:#000000;stroke-linecap:square;stroke-linejoin:miter;stroke-width:0.8;"/>
   </g>
   <g id="patch_5">
    <path d="M 57.6 307.584 
L 414.72 307.584 
" style="fill:none;stroke:#000000;stroke-linecap:square;stroke-linejoin:miter;stroke-width:0.8;"/>
   </g>
   <g id="patch_6">
    <path d="M 57.6 41.472 
L 414.72 41.472 
" style="fill:none;stroke:#000000;stroke-linecap:square;stroke-linejoin:miter;stroke-width:0.8;"/>
   </g>
   <g id="text_14">
    <!-- Pressure in main chamber -->
    <defs>
     <path d="M 9.421875 54.6875 
L 18.40625 54.6875 
L 18.40625 0 
L 9.421875 0 
z
M 9.421875 75.984375 
L 18.40625 75.984375 
L 18.40625 64.59375 
L 9.421875 64.59375 
z
" id="DejaVuSans-69"/>
     <path d="M 54.890625 33.015625 
L 54.890625 0 
L 45.90625 0 
L 45.90625 32.71875 
Q 45.90625 40.484375 42.875 44.328125 
Q 39.84375 48.1875 33.796875 48.1875 
Q 26.515625 48.1875 22.3125 43.546875 
Q 18.109375 38.921875 18.109375 30.90625 
L 18.109375 0 
L 9.078125 0 
L 9.078125 54.6875 
L 18.109375 54.6875 
L 18.109375 46.1875 
Q 21.34375 51.125 25.703125 53.5625 
Q 30.078125 56 35.796875 56 
Q 45.21875 56 50.046875 50.171875 
Q 54.890625 44.34375 54.890625 33.015625 
z
" id="DejaVuSans-6e"/>
     <path d="M 52 44.1875 
Q 55.375 50.25 60.0625 53.125 
Q 64.75 56 71.09375 56 
Q 79.640625 56 84.28125 50.015625 
Q 88.921875 44.046875 88.921875 33.015625 
L 88.921875 0 
L 79.890625 0 
L 79.890625 32.71875 
Q 79.890625 40.578125 77.09375 44.375 
Q 74.3125 48.1875 68.609375 48.1875 
Q 61.625 48.1875 57.5625 43.546875 
Q 53.515625 38.921875 53.515625 30.90625 
L 53.515625 0 
L 44.484375 0 
L 44.484375 32.71875 
Q 44.484375 40.625 41.703125 44.40625 
Q 38.921875 48.1875 33.109375 48.1875 
Q 26.21875 48.1875 22.15625 43.53125 
Q 18.109375 38.875 18.109375 30.90625 
L 18.109375 0 
L 9.078125 0 
L 9.078125 54.6875 
L 18.109375 54.6875 
L 18.109375 46.1875 
Q 21.1875 51.21875 25.484375 53.609375 
Q 29.78125 56 35.6875 56 
Q 41.65625 56 45.828125 52.96875 
Q 50 49.953125 52 44.1875 
z
" id="DejaVuSans-6d"/>
     <path d="M 48.78125 52.59375 
L 48.78125 44.1875 
Q 44.96875 46.296875 41.140625 47.34375 
Q 37.3125 48.390625 33.40625 48.390625 
Q 24.65625 48.390625 19.8125 42.84375 
Q 14.984375 37.3125 14.984375 27.296875 
Q 14.984375 17.28125 19.8125 11.734375 
Q 24.65625 6.203125 33.40625 6.203125 
Q 37.3125 6.203125 41.140625 7.25 
Q 44.96875 8.296875 48.78125 10.40625 
L 48.78125 2.09375 
Q 45.015625 0.34375 40.984375 -0.53125 
Q 36.96875 -1.421875 32.421875 -1.421875 
Q 20.0625 -1.421875 12.78125 6.34375 
Q 5.515625 14.109375 5.515625 27.296875 
Q 5.515625 40.671875 12.859375 48.328125 
Q 20.21875 56 33.015625 56 
Q 37.15625 56 41.109375 55.140625 
Q 45.0625 54.296875 48.78125 52.59375 
z
" id="DejaVuSans-63"/>
     <path d="M 54.890625 33.015625 
L 54.890625 0 
L 45.90625 0 
L 45.90625 32.71875 
Q 45.90625 40.484375 42.875 44.328125 
Q 39.84375 48.1875 33.796875 48.1875 
Q 26.515625 48.1875 22.3125 43.546875 
Q 18.109375 38.921875 18.109375 30.90625 
L 18.109375 0 
L 9.078125 0 
L 9.078125 75.984375 
L 18.109375 75.984375 
L 18.109375 46.1875 
Q 21.34375 51.125 25.703125 53.5625 
Q 30.078125 56 35.796875 56 
Q 45.21875 56 50.046875 50.171875 
Q 54.890625 44.34375 54.890625 33.015625 
z
" id="DejaVuSans-68"/>
    </defs>
    <g transform="translate(157.405312 35.472)scale(0.12 -0.12)">
     <use xlink:href="#DejaVuSans-50"/>
     <use x="60.287109" xlink:href="#DejaVuSans-72"/>
     <use x="101.369141" xlink:href="#DejaVuSans-65"/>
     <use x="162.892578" xlink:href="#DejaVuSans-73"/>
     <use x="214.992188" xlink:href="#DejaVuSans-73"/>
     <use x="267.091797" xlink:href="#DejaVuSans-75"/>
     <use x="330.470703" xlink:href="#DejaVuSans-72"/>
     <use x="371.552734" xlink:href="#DejaVuSans-65"/>
     <use x="433.076172" xlink:href="#DejaVuSans-20"/>
     <use x="464.863281" xlink:href="#DejaVuSans-69"/>
     <use x="492.646484" xlink:href="#DejaVuSans-6e"/>
     <use x="556.025391" xlink:href="#DejaVuSans-20"/>
     <use x="587.8125" xlink:href="#DejaVuSans-6d"/>
     <use x="685.224609" xlink:href="#DejaVuSans-61"/>
     <use x="746.503906" xlink:href="#DejaVuSans-69"/>
     <use x="774.287109" xlink:href="#DejaVuSans-6e"/>
     <use x="837.666016" xlink:href="#DejaVuSans-20"/>
     <use x="869.453125" xlink:href="#DejaVuSans-63"/>
     <use x="924.433594" xlink:href="#DejaVuSans-68"/>
     <use x="987.8125" xlink:href="#DejaVuSans-61"/>
     <use x="1049.091797" xlink:href="#DejaVuSans-6d"/>
     <use x="1146.503906" xlink:href="#DejaVuSans-62"/>
     <use x="1209.980469" xlink:href="#DejaVuSans-65"/>
     <use x="1271.503906" xlink:href="#DejaVuSans-72"/>
    </g>
   </g>
  </g>
 </g>
 <defs>
  <clipPath id="p904650faee">
   <rect height="266.112" width="357.12" x="57.6" y="41.472"/>
  </clipPath>
 </defs>
</svg>
