<?xml version="1.0" encoding="utf-8" standalone="no"?>
<!DOCTYPE svg PUBLIC "-//W3C//DTD SVG 1.1//EN"
  "http://www.w3.org/Graphics/SVG/1.1/DTD/svg11.dtd">
<!-- Created with matplotlib (http://matplotlib.org/) -->
<svg height="345pt" version="1.1" viewBox="0 0 460 345" width="460pt" xmlns="http://www.w3.org/2000/svg" xmlns:xlink="http://www.w3.org/1999/xlink">
 <defs>
  <style type="text/css">
*{stroke-linecap:butt;stroke-linejoin:round;}
  </style>
 </defs>
 <g id="figure_1">
  <g id="patch_1">
   <path d="M 0 345.6 
L 460.8 345.6 
L 460.8 0 
L 0 0 
z
" style="fill:#ffffff;"/>
  </g>
  <g id="axes_1">
   <g id="patch_2">
    <path d="M 57.6 307.584 
L 414.72 307.584 
L 414.72 41.472 
L 57.6 41.472 
z
" style="fill:#ffffff;"/>
   </g>
   <g id="matplotlib.axis_1">
    <g id="xtick_1">
     <g id="line2d_1">
      <defs>
       <path d="M 0 0 
L 0 3.5 
" id="maa6bd48cb8" style="stroke:#000000;stroke-width:0.8;"/>
      </defs>
      <g>
       <use style="stroke:#000000;stroke-width:0.8;" x="73.832727" xlink:href="#maa6bd48cb8" y="307.584"/>
      </g>
     </g>
     <g id="text_1">
      <!-- 0 -->
      <defs>
       <path d="M 31.78125 66.40625 
Q 24.171875 66.40625 20.328125 58.90625 
Q 16.5 51.421875 16.5 36.375 
Q 16.5 21.390625 20.328125 13.890625 
Q 24.171875 6.390625 31.78125 6.390625 
Q 39.453125 6.390625 43.28125 13.890625 
Q 47.125 21.390625 47.125 36.375 
Q 47.125 51.421875 43.28125 58.90625 
Q 39.453125 66.40625 31.78125 66.40625 
z
M 31.78125 74.21875 
Q 44.046875 74.21875 50.515625 64.515625 
Q 56.984375 54.828125 56.984375 36.375 
Q 56.984375 17.96875 50.515625 8.265625 
Q 44.046875 -1.421875 31.78125 -1.421875 
Q 19.53125 -1.421875 13.0625 8.265625 
Q 6.59375 17.96875 6.59375 36.375 
Q 6.59375 54.828125 13.0625 64.515625 
Q 19.53125 74.21875 31.78125 74.21875 
z
" id="DejaVuSans-30"/>
      </defs>
      <g transform="translate(70.651477 322.182437)scale(0.1 -0.1)">
       <use xlink:href="#DejaVuSans-30"/>
      </g>
     </g>
    </g>
    <g id="xtick_2">
     <g id="line2d_2">
      <g>
       <use style="stroke:#000000;stroke-width:0.8;" x="118.919416" xlink:href="#maa6bd48cb8" y="307.584"/>
      </g>
     </g>
     <g id="text_2">
      <!-- 250 -->
      <defs>
       <path d="M 19.1875 8.296875 
L 53.609375 8.296875 
L 53.609375 0 
L 7.328125 0 
L 7.328125 8.296875 
Q 12.9375 14.109375 22.625 23.890625 
Q 32.328125 33.6875 34.8125 36.53125 
Q 39.546875 41.84375 41.421875 45.53125 
Q 43.3125 49.21875 43.3125 52.78125 
Q 43.3125 58.59375 39.234375 62.25 
Q 35.15625 65.921875 28.609375 65.921875 
Q 23.96875 65.921875 18.8125 64.3125 
Q 13.671875 62.703125 7.8125 59.421875 
L 7.8125 69.390625 
Q 13.765625 71.78125 18.9375 73 
Q 24.125 74.21875 28.421875 74.21875 
Q 39.75 74.21875 46.484375 68.546875 
Q 53.21875 62.890625 53.21875 53.421875 
Q 53.21875 48.921875 51.53125 44.890625 
Q 49.859375 40.875 45.40625 35.40625 
Q 44.1875 33.984375 37.640625 27.21875 
Q 31.109375 20.453125 19.1875 8.296875 
z
" id="DejaVuSans-32"/>
       <path d="M 10.796875 72.90625 
L 49.515625 72.90625 
L 49.515625 64.59375 
L 19.828125 64.59375 
L 19.828125 46.734375 
Q 21.96875 47.46875 24.109375 47.828125 
Q 26.265625 48.1875 28.421875 48.1875 
Q 40.625 48.1875 47.75 41.5 
Q 54.890625 34.8125 54.890625 23.390625 
Q 54.890625 11.625 47.5625 5.09375 
Q 40.234375 -1.421875 26.90625 -1.421875 
Q 22.3125 -1.421875 17.546875 -0.640625 
Q 12.796875 0.140625 7.71875 1.703125 
L 7.71875 11.625 
Q 12.109375 9.234375 16.796875 8.0625 
Q 21.484375 6.890625 26.703125 6.890625 
Q 35.15625 6.890625 40.078125 11.328125 
Q 45.015625 15.765625 45.015625 23.390625 
Q 45.015625 31 40.078125 35.4375 
Q 35.15625 39.890625 26.703125 39.890625 
Q 22.75 39.890625 18.8125 39.015625 
Q 14.890625 38.140625 10.796875 36.28125 
z
" id="DejaVuSans-35"/>
      </defs>
      <g transform="translate(109.375666 322.182437)scale(0.1 -0.1)">
       <use xlink:href="#DejaVuSans-32"/>
       <use x="63.623047" xlink:href="#DejaVuSans-35"/>
       <use x="127.246094" xlink:href="#DejaVuSans-30"/>
      </g>
     </g>
    </g>
    <g id="xtick_3">
     <g id="line2d_3">
      <g>
       <use style="stroke:#000000;stroke-width:0.8;" x="164.006104" xlink:href="#maa6bd48cb8" y="307.584"/>
      </g>
     </g>
     <g id="text_3">
      <!-- 500 -->
      <g transform="translate(154.462354 322.182437)scale(0.1 -0.1)">
       <use xlink:href="#DejaVuSans-35"/>
       <use x="63.623047" xlink:href="#DejaVuSans-30"/>
       <use x="127.246094" xlink:href="#DejaVuSans-30"/>
      </g>
     </g>
    </g>
    <g id="xtick_4">
     <g id="line2d_4">
      <g>
       <use style="stroke:#000000;stroke-width:0.8;" x="209.092792" xlink:href="#maa6bd48cb8" y="307.584"/>
      </g>
     </g>
     <g id="text_4">
      <!-- 750 -->
      <defs>
       <path d="M 8.203125 72.90625 
L 55.078125 72.90625 
L 55.078125 68.703125 
L 28.609375 0 
L 18.3125 0 
L 43.21875 64.59375 
L 8.203125 64.59375 
z
" id="DejaVuSans-37"/>
      </defs>
      <g transform="translate(199.549042 322.182437)scale(0.1 -0.1)">
       <use xlink:href="#DejaVuSans-37"/>
       <use x="63.623047" xlink:href="#DejaVuSans-35"/>
       <use x="127.246094" xlink:href="#DejaVuSans-30"/>
      </g>
     </g>
    </g>
    <g id="xtick_5">
     <g id="line2d_5">
      <g>
       <use style="stroke:#000000;stroke-width:0.8;" x="254.179481" xlink:href="#maa6bd48cb8" y="307.584"/>
      </g>
     </g>
     <g id="text_5">
      <!-- 1000 -->
      <defs>
       <path d="M 12.40625 8.296875 
L 28.515625 8.296875 
L 28.515625 63.921875 
L 10.984375 60.40625 
L 10.984375 69.390625 
L 28.421875 72.90625 
L 38.28125 72.90625 
L 38.28125 8.296875 
L 54.390625 8.296875 
L 54.390625 0 
L 12.40625 0 
z
" id="DejaVuSans-31"/>
      </defs>
      <g transform="translate(241.454481 322.182437)scale(0.1 -0.1)">
       <use xlink:href="#DejaVuSans-31"/>
       <use x="63.623047" xlink:href="#DejaVuSans-30"/>
       <use x="127.246094" xlink:href="#DejaVuSans-30"/>
       <use x="190.869141" xlink:href="#DejaVuSans-30"/>
      </g>
     </g>
    </g>
    <g id="xtick_6">
     <g id="line2d_6">
      <g>
       <use style="stroke:#000000;stroke-width:0.8;" x="299.266169" xlink:href="#maa6bd48cb8" y="307.584"/>
      </g>
     </g>
     <g id="text_6">
      <!-- 1250 -->
      <g transform="translate(286.541169 322.182437)scale(0.1 -0.1)">
       <use xlink:href="#DejaVuSans-31"/>
       <use x="63.623047" xlink:href="#DejaVuSans-32"/>
       <use x="127.246094" xlink:href="#DejaVuSans-35"/>
       <use x="190.869141" xlink:href="#DejaVuSans-30"/>
      </g>
     </g>
    </g>
    <g id="xtick_7">
     <g id="line2d_7">
      <g>
       <use style="stroke:#000000;stroke-width:0.8;" x="344.352857" xlink:href="#maa6bd48cb8" y="307.584"/>
      </g>
     </g>
     <g id="text_7">
      <!-- 1500 -->
      <g transform="translate(331.627857 322.182437)scale(0.1 -0.1)">
       <use xlink:href="#DejaVuSans-31"/>
       <use x="63.623047" xlink:href="#DejaVuSans-35"/>
       <use x="127.246094" xlink:href="#DejaVuSans-30"/>
       <use x="190.869141" xlink:href="#DejaVuSans-30"/>
      </g>
     </g>
    </g>
    <g id="xtick_8">
     <g id="line2d_8">
      <g>
       <use style="stroke:#000000;stroke-width:0.8;" x="389.439546" xlink:href="#maa6bd48cb8" y="307.584"/>
      </g>
     </g>
     <g id="text_8">
      <!-- 1750 -->
      <g transform="translate(376.714546 322.182437)scale(0.1 -0.1)">
       <use xlink:href="#DejaVuSans-31"/>
       <use x="63.623047" xlink:href="#DejaVuSans-37"/>
       <use x="127.246094" xlink:href="#DejaVuSans-35"/>
       <use x="190.869141" xlink:href="#DejaVuSans-30"/>
      </g>
     </g>
    </g>
    <g id="text_9">
     <!-- t(s) -->
     <defs>
      <path d="M 18.3125 70.21875 
L 18.3125 54.6875 
L 36.8125 54.6875 
L 36.8125 47.703125 
L 18.3125 47.703125 
L 18.3125 18.015625 
Q 18.3125 11.328125 20.140625 9.421875 
Q 21.96875 7.515625 27.59375 7.515625 
L 36.8125 7.515625 
L 36.8125 0 
L 27.59375 0 
Q 17.1875 0 13.234375 3.875 
Q 9.28125 7.765625 9.28125 18.015625 
L 9.28125 47.703125 
L 2.6875 47.703125 
L 2.6875 54.6875 
L 9.28125 54.6875 
L 9.28125 70.21875 
z
" id="DejaVuSans-74"/>
      <path d="M 31 75.875 
Q 24.46875 64.65625 21.28125 53.65625 
Q 18.109375 42.671875 18.109375 31.390625 
Q 18.109375 20.125 21.3125 9.0625 
Q 24.515625 -2 31 -13.1875 
L 23.1875 -13.1875 
Q 15.875 -1.703125 12.234375 9.375 
Q 8.59375 20.453125 8.59375 31.390625 
Q 8.59375 42.28125 12.203125 53.3125 
Q 15.828125 64.359375 23.1875 75.875 
z
" id="DejaVuSans-28"/>
      <path d="M 44.28125 53.078125 
L 44.28125 44.578125 
Q 40.484375 46.53125 36.375 47.5 
Q 32.28125 48.484375 27.875 48.484375 
Q 21.1875 48.484375 17.84375 46.4375 
Q 14.5 44.390625 14.5 40.28125 
Q 14.5 37.15625 16.890625 35.375 
Q 19.28125 33.59375 26.515625 31.984375 
L 29.59375 31.296875 
Q 39.15625 29.25 43.1875 25.515625 
Q 47.21875 21.78125 47.21875 15.09375 
Q 47.21875 7.46875 41.1875 3.015625 
Q 35.15625 -1.421875 24.609375 -1.421875 
Q 20.21875 -1.421875 15.453125 -0.5625 
Q 10.6875 0.296875 5.421875 2 
L 5.421875 11.28125 
Q 10.40625 8.6875 15.234375 7.390625 
Q 20.0625 6.109375 24.8125 6.109375 
Q 31.15625 6.109375 34.5625 8.28125 
Q 37.984375 10.453125 37.984375 14.40625 
Q 37.984375 18.0625 35.515625 20.015625 
Q 33.0625 21.96875 24.703125 23.78125 
L 21.578125 24.515625 
Q 13.234375 26.265625 9.515625 29.90625 
Q 5.8125 33.546875 5.8125 39.890625 
Q 5.8125 47.609375 11.28125 51.796875 
Q 16.75 56 26.8125 56 
Q 31.78125 56 36.171875 55.265625 
Q 40.578125 54.546875 44.28125 53.078125 
z
" id="DejaVuSans-73"/>
      <path d="M 8.015625 75.875 
L 15.828125 75.875 
Q 23.140625 64.359375 26.78125 53.3125 
Q 30.421875 42.28125 30.421875 31.390625 
Q 30.421875 20.453125 26.78125 9.375 
Q 23.140625 -1.703125 15.828125 -13.1875 
L 8.015625 -13.1875 
Q 14.5 -2 17.703125 9.0625 
Q 20.90625 20.125 20.90625 31.390625 
Q 20.90625 42.671875 17.703125 53.65625 
Q 14.5 64.65625 8.015625 75.875 
z
" id="DejaVuSans-29"/>
     </defs>
     <g transform="translate(227.693594 335.860562)scale(0.1 -0.1)">
      <use xlink:href="#DejaVuSans-74"/>
      <use x="39.208984" xlink:href="#DejaVuSans-28"/>
      <use x="78.222656" xlink:href="#DejaVuSans-73"/>
      <use x="130.322266" xlink:href="#DejaVuSans-29"/>
     </g>
    </g>
   </g>
   <g id="matplotlib.axis_2">
    <g id="ytick_1">
     <g id="line2d_9">
      <defs>
       <path d="M 0 0 
L -3.5 0 
" id="mab14b69284" style="stroke:#000000;stroke-width:0.8;"/>
      </defs>
      <g>
       <use style="stroke:#000000;stroke-width:0.8;" x="57.6" xlink:href="#mab14b69284" y="300.722212"/>
      </g>
     </g>
     <g id="text_10">
      <!-- 2.10 -->
      <defs>
       <path d="M 10.6875 12.40625 
L 21 12.40625 
L 21 0 
L 10.6875 0 
z
" id="DejaVuSans-2e"/>
      </defs>
      <g transform="translate(28.334375 304.521431)scale(0.1 -0.1)">
       <use xlink:href="#DejaVuSans-32"/>
       <use x="63.623047" xlink:href="#DejaVuSans-2e"/>
       <use x="95.410156" xlink:href="#DejaVuSans-31"/>
       <use x="159.033203" xlink:href="#DejaVuSans-30"/>
      </g>
     </g>
    </g>
    <g id="ytick_2">
     <g id="line2d_10">
      <g>
       <use style="stroke:#000000;stroke-width:0.8;" x="57.6" xlink:href="#mab14b69284" y="266.625018"/>
      </g>
     </g>
     <g id="text_11">
      <!-- 2.12 -->
      <g transform="translate(28.334375 270.424236)scale(0.1 -0.1)">
       <use xlink:href="#DejaVuSans-32"/>
       <use x="63.623047" xlink:href="#DejaVuSans-2e"/>
       <use x="95.410156" xlink:href="#DejaVuSans-31"/>
       <use x="159.033203" xlink:href="#DejaVuSans-32"/>
      </g>
     </g>
    </g>
    <g id="ytick_3">
     <g id="line2d_11">
      <g>
       <use style="stroke:#000000;stroke-width:0.8;" x="57.6" xlink:href="#mab14b69284" y="232.527823"/>
      </g>
     </g>
     <g id="text_12">
      <!-- 2.14 -->
      <defs>
       <path d="M 37.796875 64.3125 
L 12.890625 25.390625 
L 37.796875 25.390625 
z
M 35.203125 72.90625 
L 47.609375 72.90625 
L 47.609375 25.390625 
L 58.015625 25.390625 
L 58.015625 17.1875 
L 47.609375 17.1875 
L 47.609375 0 
L 37.796875 0 
L 37.796875 17.1875 
L 4.890625 17.1875 
L 4.890625 26.703125 
z
" id="DejaVuSans-34"/>
      </defs>
      <g transform="translate(28.334375 236.327041)scale(0.1 -0.1)">
       <use xlink:href="#DejaVuSans-32"/>
       <use x="63.623047" xlink:href="#DejaVuSans-2e"/>
       <use x="95.410156" xlink:href="#DejaVuSans-31"/>
       <use x="159.033203" xlink:href="#DejaVuSans-34"/>
      </g>
     </g>
    </g>
    <g id="ytick_4">
     <g id="line2d_12">
      <g>
       <use style="stroke:#000000;stroke-width:0.8;" x="57.6" xlink:href="#mab14b69284" y="198.430628"/>
      </g>
     </g>
     <g id="text_13">
      <!-- 2.16 -->
      <defs>
       <path d="M 33.015625 40.375 
Q 26.375 40.375 22.484375 35.828125 
Q 18.609375 31.296875 18.609375 23.390625 
Q 18.609375 15.53125 22.484375 10.953125 
Q 26.375 6.390625 33.015625 6.390625 
Q 39.65625 6.390625 43.53125 10.953125 
Q 47.40625 15.53125 47.40625 23.390625 
Q 47.40625 31.296875 43.53125 35.828125 
Q 39.65625 40.375 33.015625 40.375 
z
M 52.59375 71.296875 
L 52.59375 62.3125 
Q 48.875 64.0625 45.09375 64.984375 
Q 41.3125 65.921875 37.59375 65.921875 
Q 27.828125 65.921875 22.671875 59.328125 
Q 17.53125 52.734375 16.796875 39.40625 
Q 19.671875 43.65625 24.015625 45.921875 
Q 28.375 48.1875 33.59375 48.1875 
Q 44.578125 48.1875 50.953125 41.515625 
Q 57.328125 34.859375 57.328125 23.390625 
Q 57.328125 12.15625 50.6875 5.359375 
Q 44.046875 -1.421875 33.015625 -1.421875 
Q 20.359375 -1.421875 13.671875 8.265625 
Q 6.984375 17.96875 6.984375 36.375 
Q 6.984375 53.65625 15.1875 63.9375 
Q 23.390625 74.21875 37.203125 74.21875 
Q 40.921875 74.21875 44.703125 73.484375 
Q 48.484375 72.75 52.59375 71.296875 
z
" id="DejaVuSans-36"/>
      </defs>
      <g transform="translate(28.334375 202.229847)scale(0.1 -0.1)">
       <use xlink:href="#DejaVuSans-32"/>
       <use x="63.623047" xlink:href="#DejaVuSans-2e"/>
       <use x="95.410156" xlink:href="#DejaVuSans-31"/>
       <use x="159.033203" xlink:href="#DejaVuSans-36"/>
      </g>
     </g>
    </g>
    <g id="ytick_5">
     <g id="line2d_13">
      <g>
       <use style="stroke:#000000;stroke-width:0.8;" x="57.6" xlink:href="#mab14b69284" y="164.333433"/>
      </g>
     </g>
     <g id="text_14">
      <!-- 2.18 -->
      <defs>
       <path d="M 31.78125 34.625 
Q 24.75 34.625 20.71875 30.859375 
Q 16.703125 27.09375 16.703125 20.515625 
Q 16.703125 13.921875 20.71875 10.15625 
Q 24.75 6.390625 31.78125 6.390625 
Q 38.8125 6.390625 42.859375 10.171875 
Q 46.921875 13.96875 46.921875 20.515625 
Q 46.921875 27.09375 42.890625 30.859375 
Q 38.875 34.625 31.78125 34.625 
z
M 21.921875 38.8125 
Q 15.578125 40.375 12.03125 44.71875 
Q 8.5 49.078125 8.5 55.328125 
Q 8.5 64.0625 14.71875 69.140625 
Q 20.953125 74.21875 31.78125 74.21875 
Q 42.671875 74.21875 48.875 69.140625 
Q 55.078125 64.0625 55.078125 55.328125 
Q 55.078125 49.078125 51.53125 44.71875 
Q 48 40.375 41.703125 38.8125 
Q 48.828125 37.15625 52.796875 32.3125 
Q 56.78125 27.484375 56.78125 20.515625 
Q 56.78125 9.90625 50.3125 4.234375 
Q 43.84375 -1.421875 31.78125 -1.421875 
Q 19.734375 -1.421875 13.25 4.234375 
Q 6.78125 9.90625 6.78125 20.515625 
Q 6.78125 27.484375 10.78125 32.3125 
Q 14.796875 37.15625 21.921875 38.8125 
z
M 18.3125 54.390625 
Q 18.3125 48.734375 21.84375 45.5625 
Q 25.390625 42.390625 31.78125 42.390625 
Q 38.140625 42.390625 41.71875 45.5625 
Q 45.3125 48.734375 45.3125 54.390625 
Q 45.3125 60.0625 41.71875 63.234375 
Q 38.140625 66.40625 31.78125 66.40625 
Q 25.390625 66.40625 21.84375 63.234375 
Q 18.3125 60.0625 18.3125 54.390625 
z
" id="DejaVuSans-38"/>
      </defs>
      <g transform="translate(28.334375 168.132652)scale(0.1 -0.1)">
       <use xlink:href="#DejaVuSans-32"/>
       <use x="63.623047" xlink:href="#DejaVuSans-2e"/>
       <use x="95.410156" xlink:href="#DejaVuSans-31"/>
       <use x="159.033203" xlink:href="#DejaVuSans-38"/>
      </g>
     </g>
    </g>
    <g id="ytick_6">
     <g id="line2d_14">
      <g>
       <use style="stroke:#000000;stroke-width:0.8;" x="57.6" xlink:href="#mab14b69284" y="130.236238"/>
      </g>
     </g>
     <g id="text_15">
      <!-- 2.20 -->
      <g transform="translate(28.334375 134.035457)scale(0.1 -0.1)">
       <use xlink:href="#DejaVuSans-32"/>
       <use x="63.623047" xlink:href="#DejaVuSans-2e"/>
       <use x="95.410156" xlink:href="#DejaVuSans-32"/>
       <use x="159.033203" xlink:href="#DejaVuSans-30"/>
      </g>
     </g>
    </g>
    <g id="ytick_7">
     <g id="line2d_15">
      <g>
       <use style="stroke:#000000;stroke-width:0.8;" x="57.6" xlink:href="#mab14b69284" y="96.139044"/>
      </g>
     </g>
     <g id="text_16">
      <!-- 2.22 -->
      <g transform="translate(28.334375 99.938262)scale(0.1 -0.1)">
       <use xlink:href="#DejaVuSans-32"/>
       <use x="63.623047" xlink:href="#DejaVuSans-2e"/>
       <use x="95.410156" xlink:href="#DejaVuSans-32"/>
       <use x="159.033203" xlink:href="#DejaVuSans-32"/>
      </g>
     </g>
    </g>
    <g id="ytick_8">
     <g id="line2d_16">
      <g>
       <use style="stroke:#000000;stroke-width:0.8;" x="57.6" xlink:href="#mab14b69284" y="62.041849"/>
      </g>
     </g>
     <g id="text_17">
      <!-- 2.24 -->
      <g transform="translate(28.334375 65.841068)scale(0.1 -0.1)">
       <use xlink:href="#DejaVuSans-32"/>
       <use x="63.623047" xlink:href="#DejaVuSans-2e"/>
       <use x="95.410156" xlink:href="#DejaVuSans-32"/>
       <use x="159.033203" xlink:href="#DejaVuSans-34"/>
      </g>
     </g>
    </g>
    <g id="text_18">
     <!-- Resistance (Ohm) -->
     <defs>
      <path d="M 44.390625 34.1875 
Q 47.5625 33.109375 50.5625 29.59375 
Q 53.5625 26.078125 56.59375 19.921875 
L 66.609375 0 
L 56 0 
L 46.6875 18.703125 
Q 43.0625 26.03125 39.671875 28.421875 
Q 36.28125 30.8125 30.421875 30.8125 
L 19.671875 30.8125 
L 19.671875 0 
L 9.8125 0 
L 9.8125 72.90625 
L 32.078125 72.90625 
Q 44.578125 72.90625 50.734375 67.671875 
Q 56.890625 62.453125 56.890625 51.90625 
Q 56.890625 45.015625 53.6875 40.46875 
Q 50.484375 35.9375 44.390625 34.1875 
z
M 19.671875 64.796875 
L 19.671875 38.921875 
L 32.078125 38.921875 
Q 39.203125 38.921875 42.84375 42.21875 
Q 46.484375 45.515625 46.484375 51.90625 
Q 46.484375 58.296875 42.84375 61.546875 
Q 39.203125 64.796875 32.078125 64.796875 
z
" id="DejaVuSans-52"/>
      <path d="M 56.203125 29.59375 
L 56.203125 25.203125 
L 14.890625 25.203125 
Q 15.484375 15.921875 20.484375 11.0625 
Q 25.484375 6.203125 34.421875 6.203125 
Q 39.59375 6.203125 44.453125 7.46875 
Q 49.3125 8.734375 54.109375 11.28125 
L 54.109375 2.78125 
Q 49.265625 0.734375 44.1875 -0.34375 
Q 39.109375 -1.421875 33.890625 -1.421875 
Q 20.796875 -1.421875 13.15625 6.1875 
Q 5.515625 13.8125 5.515625 26.8125 
Q 5.515625 40.234375 12.765625 48.109375 
Q 20.015625 56 32.328125 56 
Q 43.359375 56 49.78125 48.890625 
Q 56.203125 41.796875 56.203125 29.59375 
z
M 47.21875 32.234375 
Q 47.125 39.59375 43.09375 43.984375 
Q 39.0625 48.390625 32.421875 48.390625 
Q 24.90625 48.390625 20.390625 44.140625 
Q 15.875 39.890625 15.1875 32.171875 
z
" id="DejaVuSans-65"/>
      <path d="M 9.421875 54.6875 
L 18.40625 54.6875 
L 18.40625 0 
L 9.421875 0 
z
M 9.421875 75.984375 
L 18.40625 75.984375 
L 18.40625 64.59375 
L 9.421875 64.59375 
z
" id="DejaVuSans-69"/>
      <path d="M 34.28125 27.484375 
Q 23.390625 27.484375 19.1875 25 
Q 14.984375 22.515625 14.984375 16.5 
Q 14.984375 11.71875 18.140625 8.90625 
Q 21.296875 6.109375 26.703125 6.109375 
Q 34.1875 6.109375 38.703125 11.40625 
Q 43.21875 16.703125 43.21875 25.484375 
L 43.21875 27.484375 
z
M 52.203125 31.203125 
L 52.203125 0 
L 43.21875 0 
L 43.21875 8.296875 
Q 40.140625 3.328125 35.546875 0.953125 
Q 30.953125 -1.421875 24.3125 -1.421875 
Q 15.921875 -1.421875 10.953125 3.296875 
Q 6 8.015625 6 15.921875 
Q 6 25.140625 12.171875 29.828125 
Q 18.359375 34.515625 30.609375 34.515625 
L 43.21875 34.515625 
L 43.21875 35.40625 
Q 43.21875 41.609375 39.140625 45 
Q 35.0625 48.390625 27.6875 48.390625 
Q 23 48.390625 18.546875 47.265625 
Q 14.109375 46.140625 10.015625 43.890625 
L 10.015625 52.203125 
Q 14.9375 54.109375 19.578125 55.046875 
Q 24.21875 56 28.609375 56 
Q 40.484375 56 46.34375 49.84375 
Q 52.203125 43.703125 52.203125 31.203125 
z
" id="DejaVuSans-61"/>
      <path d="M 54.890625 33.015625 
L 54.890625 0 
L 45.90625 0 
L 45.90625 32.71875 
Q 45.90625 40.484375 42.875 44.328125 
Q 39.84375 48.1875 33.796875 48.1875 
Q 26.515625 48.1875 22.3125 43.546875 
Q 18.109375 38.921875 18.109375 30.90625 
L 18.109375 0 
L 9.078125 0 
L 9.078125 54.6875 
L 18.109375 54.6875 
L 18.109375 46.1875 
Q 21.34375 51.125 25.703125 53.5625 
Q 30.078125 56 35.796875 56 
Q 45.21875 56 50.046875 50.171875 
Q 54.890625 44.34375 54.890625 33.015625 
z
" id="DejaVuSans-6e"/>
      <path d="M 48.78125 52.59375 
L 48.78125 44.1875 
Q 44.96875 46.296875 41.140625 47.34375 
Q 37.3125 48.390625 33.40625 48.390625 
Q 24.65625 48.390625 19.8125 42.84375 
Q 14.984375 37.3125 14.984375 27.296875 
Q 14.984375 17.28125 19.8125 11.734375 
Q 24.65625 6.203125 33.40625 6.203125 
Q 37.3125 6.203125 41.140625 7.25 
Q 44.96875 8.296875 48.78125 10.40625 
L 48.78125 2.09375 
Q 45.015625 0.34375 40.984375 -0.53125 
Q 36.96875 -1.421875 32.421875 -1.421875 
Q 20.0625 -1.421875 12.78125 6.34375 
Q 5.515625 14.109375 5.515625 27.296875 
Q 5.515625 40.671875 12.859375 48.328125 
Q 20.21875 56 33.015625 56 
Q 37.15625 56 41.109375 55.140625 
Q 45.0625 54.296875 48.78125 52.59375 
z
" id="DejaVuSans-63"/>
      <path id="DejaVuSans-20"/>
      <path d="M 39.40625 66.21875 
Q 28.65625 66.21875 22.328125 58.203125 
Q 16.015625 50.203125 16.015625 36.375 
Q 16.015625 22.609375 22.328125 14.59375 
Q 28.65625 6.59375 39.40625 6.59375 
Q 50.140625 6.59375 56.421875 14.59375 
Q 62.703125 22.609375 62.703125 36.375 
Q 62.703125 50.203125 56.421875 58.203125 
Q 50.140625 66.21875 39.40625 66.21875 
z
M 39.40625 74.21875 
Q 54.734375 74.21875 63.90625 63.9375 
Q 73.09375 53.65625 73.09375 36.375 
Q 73.09375 19.140625 63.90625 8.859375 
Q 54.734375 -1.421875 39.40625 -1.421875 
Q 24.03125 -1.421875 14.8125 8.828125 
Q 5.609375 19.09375 5.609375 36.375 
Q 5.609375 53.65625 14.8125 63.9375 
Q 24.03125 74.21875 39.40625 74.21875 
z
" id="DejaVuSans-4f"/>
      <path d="M 54.890625 33.015625 
L 54.890625 0 
L 45.90625 0 
L 45.90625 32.71875 
Q 45.90625 40.484375 42.875 44.328125 
Q 39.84375 48.1875 33.796875 48.1875 
Q 26.515625 48.1875 22.3125 43.546875 
Q 18.109375 38.921875 18.109375 30.90625 
L 18.109375 0 
L 9.078125 0 
L 9.078125 75.984375 
L 18.109375 75.984375 
L 18.109375 46.1875 
Q 21.34375 51.125 25.703125 53.5625 
Q 30.078125 56 35.796875 56 
Q 45.21875 56 50.046875 50.171875 
Q 54.890625 44.34375 54.890625 33.015625 
z
" id="DejaVuSans-68"/>
      <path d="M 52 44.1875 
Q 55.375 50.25 60.0625 53.125 
Q 64.75 56 71.09375 56 
Q 79.640625 56 84.28125 50.015625 
Q 88.921875 44.046875 88.921875 33.015625 
L 88.921875 0 
L 79.890625 0 
L 79.890625 32.71875 
Q 79.890625 40.578125 77.09375 44.375 
Q 74.3125 48.1875 68.609375 48.1875 
Q 61.625 48.1875 57.5625 43.546875 
Q 53.515625 38.921875 53.515625 30.90625 
L 53.515625 0 
L 44.484375 0 
L 44.484375 32.71875 
Q 44.484375 40.625 41.703125 44.40625 
Q 38.921875 48.1875 33.109375 48.1875 
Q 26.21875 48.1875 22.15625 43.53125 
Q 18.109375 38.875 18.109375 30.90625 
L 18.109375 0 
L 9.078125 0 
L 9.078125 54.6875 
L 18.109375 54.6875 
L 18.109375 46.1875 
Q 21.1875 51.21875 25.484375 53.609375 
Q 29.78125 56 35.6875 56 
Q 41.65625 56 45.828125 52.96875 
Q 50 49.953125 52 44.1875 
z
" id="DejaVuSans-6d"/>
     </defs>
     <g transform="translate(22.254687 219.158469)rotate(-90)scale(0.1 -0.1)">
      <use xlink:href="#DejaVuSans-52"/>
      <use x="69.419922" xlink:href="#DejaVuSans-65"/>
      <use x="130.943359" xlink:href="#DejaVuSans-73"/>
      <use x="183.042969" xlink:href="#DejaVuSans-69"/>
      <use x="210.826172" xlink:href="#DejaVuSans-73"/>
      <use x="262.925781" xlink:href="#DejaVuSans-74"/>
      <use x="302.134766" xlink:href="#DejaVuSans-61"/>
      <use x="363.414062" xlink:href="#DejaVuSans-6e"/>
      <use x="426.792969" xlink:href="#DejaVuSans-63"/>
      <use x="481.773438" xlink:href="#DejaVuSans-65"/>
      <use x="543.296875" xlink:href="#DejaVuSans-20"/>
      <use x="575.083984" xlink:href="#DejaVuSans-28"/>
      <use x="614.097656" xlink:href="#DejaVuSans-4f"/>
      <use x="692.808594" xlink:href="#DejaVuSans-68"/>
      <use x="756.1875" xlink:href="#DejaVuSans-6d"/>
      <use x="853.599609" xlink:href="#DejaVuSans-29"/>
     </g>
    </g>
    <g id="text_19">
     <!-- 1e7 -->
     <g transform="translate(57.6 38.472)scale(0.1 -0.1)">
      <use xlink:href="#DejaVuSans-31"/>
      <use x="63.623047" xlink:href="#DejaVuSans-65"/>
      <use x="125.146484" xlink:href="#DejaVuSans-37"/>
     </g>
    </g>
   </g>
   <g id="line2d_17">
    <path clip-path="url(#p5398b72ec9)" d="M 73.832727 279.945336 
L 74.013254 284.889438 
L 74.193601 282.332144 
L 74.373948 270.909564 
L 74.554295 276.024152 
L 74.734641 268.380685 
L 74.914988 273.069057 
L 75.095335 266.306436 
L 75.275682 271.33578 
L 75.456028 280.598867 
L 75.636375 272.557598 
L 75.997069 276.393539 
L 76.177415 290.004025 
L 76.357762 259.5154 
L 76.718456 280.485209 
L 76.898802 264.544744 
L 77.079149 276.564025 
L 77.259496 271.563095 
L 77.439843 276.819755 
L 77.620189 268.039712 
L 77.980883 279.263391 
L 78.341576 269.204702 
L 78.521923 280.201066 
L 78.70227 273.182715 
L 78.882617 272.04614 
L 79.062963 265.709734 
L 79.24331 277.871087 
L 79.423657 268.437514 
L 79.604004 275.512693 
L 79.78435 274.489776 
L 79.964697 281.508127 
L 80.145044 279.32022 
L 80.505737 266.505336 
L 80.866431 286.935273 
L 81.046778 269.091044 
L 81.227124 262.413666 
L 81.407471 273.779416 
L 81.587818 272.642841 
L 82.128858 263.379755 
L 82.309205 270.88115 
L 82.489552 283.951763 
L 83.030592 259.7143 
L 83.210939 277.217556 
L 83.391286 274.262461 
L 83.571632 265.027789 
L 83.751979 280.627281 
L 83.932326 264.71523 
L 84.112673 283.468719 
L 84.293019 279.77485 
L 84.653713 269.943476 
L 84.83406 272.443941 
L 85.014406 270.284448 
L 85.194753 274.603433 
L 85.3751 270.824321 
L 85.555447 279.77485 
L 85.91614 267.357767 
L 86.096487 295.488 
L 86.276834 267.954469 
L 86.45718 272.074554 
L 86.637527 272.04614 
L 86.817874 267.130452 
L 86.998221 273.125886 
L 87.178567 270.000304 
L 87.358914 273.239543 
L 87.539261 271.534681 
L 87.719608 271.307366 
L 88.260648 282.616288 
L 88.440995 271.165294 
L 88.621341 276.819755 
L 88.801688 270.398106 
L 88.982035 281.195569 
L 89.162382 270.42652 
L 89.342728 273.211129 
L 89.523075 281.081911 
L 89.703422 275.88208 
L 89.883769 279.77485 
L 90.064115 269.233116 
L 90.244462 277.757429 
L 90.424809 265.738148 
L 90.605156 275.484279 
L 90.785502 278.86559 
L 90.965849 266.306436 
L 91.146196 283.468719 
L 91.326543 265.027789 
L 91.506889 274.347704 
L 91.867583 263.408169 
L 92.04793 272.9554 
L 92.228276 270.653835 
L 92.408623 271.421023 
L 92.58897 273.779416 
L 92.769317 290.657556 
L 92.949663 262.839882 
L 93.13001 280.257894 
L 93.310357 284.179078 
L 93.67105 263.891214 
L 93.851397 270.341277 
L 94.031744 283.070918 
L 94.212091 269.119459 
L 94.392437 265.311932 
L 94.933478 283.696034 
L 95.113825 271.676753 
L 95.294171 272.642841 
L 95.474518 271.108465 
L 95.654865 262.044279 
L 95.835212 271.847239 
L 96.015558 268.863729 
L 96.195905 285.94077 
L 96.376252 268.295442 
L 96.556599 270.284448 
L 96.736945 266.78948 
L 97.097639 273.069057 
L 97.277986 269.432017 
L 97.458332 276.819755 
L 97.638679 274.887577 
L 97.819026 277.530114 
L 98.179719 268.920558 
L 98.540413 280.201066 
L 98.72076 267.982884 
L 98.901106 271.392609 
L 99.081453 272.614427 
L 99.442147 278.240474 
L 99.622493 273.722588 
L 99.80284 279.291805 
L 99.983187 273.125886 
L 100.163534 278.069987 
L 100.34388 267.443011 
L 100.524227 274.915992 
L 101.065267 262.981953 
L 101.245614 272.642841 
L 101.425961 269.432017 
L 101.967001 275.910495 
L 102.327695 268.124956 
L 102.508041 273.949903 
L 102.688388 267.727154 
L 102.868735 272.586013 
L 103.049082 269.772989 
L 103.229428 269.06263 
L 103.409775 263.834385 
L 103.950815 273.097471 
L 104.131162 269.687746 
L 104.491856 277.643772 
L 104.672202 267.499839 
L 105.032896 275.654765 
L 105.213243 267.300939 
L 105.39377 275.967323 
L 105.574117 271.193708 
L 105.754463 270.710664 
L 106.115157 262.300008 
L 106.295504 274.575019 
L 106.47585 269.289945 
L 106.656197 256.134089 
L 106.836544 273.353201 
L 107.016891 262.527323 
L 107.197237 270.795907 
L 107.557931 269.460431 
L 107.738278 262.584152 
L 107.918624 284.861023 
L 108.098971 268.323856 
L 108.279318 268.352271 
L 108.459665 265.539247 
L 108.640011 274.915992 
L 108.820538 275.22855 
L 109.001066 268.948973 
L 109.181593 270.795907 
L 109.361939 266.135949 
L 109.722633 269.091044 
L 109.90298 260.907704 
L 110.083326 274.631848 
L 110.263673 272.784913 
L 110.44402 262.470495 
L 110.624908 270.710664 
L 110.806697 272.870156 
L 110.987044 264.772059 
L 111.167571 266.079121 
L 111.348098 272.415526 
L 111.528445 266.448507 
L 111.708792 268.295442 
L 111.889319 259.913201 
L 112.069666 273.637345 
L 112.250012 265.539247 
L 112.430359 267.073624 
L 112.791053 277.643772 
L 112.971399 264.2606 
L 113.332093 270.710664 
L 113.51244 265.084617 
L 113.692786 263.976457 
L 113.873133 266.249607 
L 114.05348 271.875653 
L 114.233827 270.653835 
L 114.414173 266.817894 
L 114.59452 273.637345 
L 114.774867 272.131383 
L 114.955214 272.756499 
L 115.13556 279.348634 
L 115.315907 270.483349 
L 115.496254 275.42745 
L 115.676781 271.250537 
L 115.857128 273.211129 
L 116.037475 287.872947 
L 116.217821 268.267027 
L 116.398168 264.800474 
L 116.578515 256.98652 
L 116.939208 275.626351 
L 117.119555 274.262461 
L 117.299902 264.374258 
L 117.480249 275.029649 
L 117.660595 267.670326 
L 117.841122 274.944406 
L 118.021469 259.600643 
L 118.201816 273.921488 
L 118.382163 268.920558 
L 118.562509 275.22855 
L 118.743036 263.294512 
L 118.923383 280.343137 
L 119.10373 269.687746 
L 119.284077 273.353201 
L 119.464423 266.874723 
L 119.64477 267.840812 
L 119.825117 269.943476 
L 120.005464 269.744575 
L 120.18581 258.123095 
L 120.366157 268.238613 
L 120.546504 259.344913 
L 120.726851 270.284448 
L 120.907378 264.090114 
L 121.087725 265.567662 
L 121.448418 259.089184 
L 121.628765 260.737218 
L 121.809112 273.267958 
L 121.989458 263.891214 
L 122.169805 265.226689 
L 122.350152 265.397175 
L 122.710845 272.557598 
L 123.071539 264.942545 
L 123.251886 265.198275 
L 123.432232 266.817894 
L 123.612579 266.249607 
L 123.793106 273.807831 
L 123.973453 273.523687 
L 124.1538 271.648338 
L 124.334147 265.454004 
L 124.69484 270.682249 
L 124.875187 265.368761 
L 125.055534 265.510833 
L 125.23588 262.413666 
L 125.596574 265.681319 
L 125.776921 266.022292 
L 125.957267 267.812397 
L 126.137614 263.35134 
L 126.317961 272.586013 
L 126.498308 263.095611 
L 126.678835 271.421023 
L 126.859181 260.992947 
L 127.039528 262.44208 
L 127.219875 272.586013 
L 127.400222 261.447577 
L 127.580568 270.199205 
L 127.761096 268.096541 
L 127.941442 268.806901 
L 128.302136 265.141446 
L 128.482483 258.861869 
L 128.843176 263.578655 
L 129.023523 265.823391 
L 129.20387 264.090114 
L 129.384216 276.478782 
L 129.564563 262.356837 
L 129.74491 272.102968 
L 130.105603 260.026858 
L 130.28595 257.952609 
L 130.466297 278.15523 
L 130.646644 268.806901 
L 130.82699 265.454004 
L 131.007337 266.33485 
L 131.187684 277.359628 
L 131.368031 267.386182 
L 131.548377 265.738148 
L 131.728724 272.529184 
L 131.909071 263.464998 
L 132.089418 271.506266 
L 132.450111 258.776626 
L 132.630458 261.816964 
L 132.810805 260.765632 
L 132.991151 262.328423 
L 133.171498 276.223053 
L 133.352025 260.509903 
L 133.893426 270.113962 
L 134.073773 272.017725 
L 134.2543 260.765632 
L 134.615354 269.346774 
L 134.976408 257.412736 
L 135.156755 244.00115 
L 135.337282 216.581277 
L 135.517809 240.733497 
L 135.698337 242.495188 
L 135.878864 250.678529 
L 136.05921 220.786605 
L 136.239557 233.885632 
L 136.419904 268.068127 
L 136.600251 232.123941 
L 136.780597 222.718782 
L 136.961124 257.299078 
L 137.322179 215.473116 
L 137.502706 240.051552 
L 137.683053 234.539163 
L 137.863399 238.659247 
L 138.043746 237.863645 
L 138.224093 242.040558 
L 138.40444 233.516245 
L 138.584786 235.647323 
L 138.765133 233.232101 
L 138.94548 241.330199 
L 139.125827 239.369607 
L 139.306173 245.421869 
L 139.48652 240.989226 
L 139.666867 243.205548 
L 139.847214 243.319205 
L 140.02756 240.875569 
L 140.207907 245.81967 
L 140.388254 241.102884 
L 140.568601 246.160643 
L 140.748947 240.903983 
L 140.929294 241.784829 
L 141.109641 247.837091 
L 141.470334 243.432863 
L 141.650681 246.672101 
L 141.831028 241.756414 
L 142.011375 242.864575 
L 142.372068 226.895696 
L 142.552415 229.19726 
L 142.732762 229.566647 
L 142.913108 231.839797 
L 143.093455 220.133074 
L 143.273802 227.606055 
L 143.454149 216.467619 
L 143.634676 222.889268 
L 143.815203 235.618909 
L 143.99555 223.542799 
L 144.175896 226.46948 
L 144.356423 224.821446 
L 144.53677 216.21189 
L 144.717117 224.366816 
L 144.897464 224.537302 
L 145.07781 218.058825 
L 145.258157 216.467619 
L 145.438504 226.327408 
L 145.618851 213.93874 
L 145.979544 221.127577 
L 146.159891 214.705928 
L 146.520584 220.417218 
L 146.700931 214.450199 
L 146.881278 214.507027 
L 147.061625 210.216457 
L 147.241971 216.183476 
L 147.422318 209.364025 
L 147.602665 228.401658 
L 147.783012 212.063391 
L 147.963358 216.041404 
L 148.143705 206.693074 
L 148.324052 206.21003 
L 148.504399 202.942376 
L 148.684746 209.307197 
L 148.865092 224.423645 
L 149.045439 198.566562 
L 149.225786 207.403433 
L 149.406133 222.519882 
L 149.586479 211.353032 
L 149.766826 208.710495 
L 149.947173 215.046901 
L 150.12752 208.255865 
L 150.307866 209.704998 
L 150.66856 204.988211 
L 150.848907 211.779247 
L 151.029253 200.04411 
L 151.2096 196.577556 
L 151.389947 206.21003 
L 151.570294 202.089945 
L 151.75064 207.858063 
L 151.930987 202.374089 
L 152.111334 203.908465 
L 152.291681 198.111932 
L 152.652374 208.48318 
L 152.832721 204.704068 
L 153.013068 196.520727 
L 153.193414 202.487746 
L 153.373761 197.401573 
L 153.554108 214.421784 
L 153.734455 197.174258 
L 153.914801 195.24208 
L 154.095148 207.517091 
L 154.275495 199.078021 
L 154.636188 203.027619 
L 154.816535 194.389649 
L 154.996882 196.463899 
L 155.177229 206.238444 
L 155.357575 197.231087 
L 155.537922 210.159628 
L 155.718269 191.320896 
L 155.898616 206.579416 
L 156.078962 188.42263 
L 156.259309 195.327323 
L 156.439656 193.650875 
L 156.620003 201.976288 
L 156.800349 193.139416 
L 156.980696 201.748973 
L 157.161043 190.155907 
L 157.34139 197.287915 
L 157.521736 199.021192 
L 157.702083 192.088085 
L 157.88243 198.055104 
L 158.062777 193.565632 
L 158.243123 194.13392 
L 158.42347 203.198106 
L 158.603817 205.698571 
L 158.784164 190.582123 
L 158.96451 197.117429 
L 159.144857 196.378655 
L 159.325204 189.814934 
L 159.505551 189.132989 
L 159.685897 190.496879 
L 159.866244 194.730622 
L 160.046591 191.462968 
L 160.226938 192.656372 
L 160.407284 184.359374 
L 160.587631 198.850706 
L 160.767978 187.769099 
L 160.948325 194.474892 
L 161.128671 187.911171 
L 161.489365 201.010199 
L 161.850059 186.291552 
L 162.210752 192.684786 
L 162.391099 188.252144 
L 162.571446 189.530791 
L 162.751792 183.933159 
L 162.932139 187.087154 
L 163.112486 183.222799 
L 163.292833 191.519797 
L 163.473179 194.33282 
L 163.653526 200.640812 
L 164.01422 185.950579 
L 164.194566 196.122926 
L 164.374913 183.023899 
L 164.55526 189.33189 
L 164.735607 179.301615 
L 165.0963 192.741615 
L 165.276647 177.198951 
L 165.456994 184.927662 
L 165.63734 181.858909 
L 165.998034 185.808507 
L 166.178381 180.040389 
L 166.358727 185.978994 
L 166.539074 183.819501 
L 166.719421 177.795653 
L 167.260461 188.649945 
L 167.621155 182.398782 
L 167.801501 183.364871 
L 167.981848 183.023899 
L 168.162195 189.985421 
L 168.342542 173.135696 
L 168.522888 182.484025 
L 168.703235 171.08986 
L 169.063929 187.598613 
L 169.244275 175.153116 
L 169.424622 191.889184 
L 169.604969 175.664575 
L 169.785316 185.041319 
L 169.965662 179.415273 
L 170.326356 187.51337 
L 170.687049 175.124702 
L 170.867396 184.956076 
L 171.047743 178.676499 
L 171.22809 182.824998 
L 171.408436 191.86077 
L 171.588783 176.829564 
L 171.76913 189.78652 
L 171.949477 178.335526 
L 172.129823 184.842419 
L 172.31017 177.96614 
L 172.490517 177.426266 
L 172.85121 184.302545 
L 173.031557 179.131129 
L 173.211904 180.835992 
L 173.392251 184.671932 
L 173.572597 177.795653 
L 173.752944 192.429057 
L 173.933291 190.24115 
L 174.113638 178.61967 
L 174.293984 184.558275 
L 174.474331 182.143053 
L 174.654678 185.638021 
L 174.835025 172.851552 
L 175.015372 185.467535 
L 175.195718 174.868973 
L 175.376065 182.768169 
L 175.556412 177.994554 
L 175.736759 187.143983 
L 175.917105 175.835061 
L 176.097452 178.335526 
L 176.277799 176.488592 
L 176.458146 166.571975 
L 176.638492 173.959712 
L 176.818839 168.788296 
L 176.999186 175.749818 
L 177.179533 176.033962 
L 177.359879 179.045886 
L 177.540226 168.106351 
L 177.90092 179.33003 
L 178.081266 178.250283 
L 178.261613 179.898317 
L 178.44196 178.221869 
L 178.622307 179.557345 
L 178.802653 177.369438 
L 178.983 178.932228 
L 179.163347 176.943222 
L 179.343694 173.022038 
L 179.52404 176.374934 
L 179.704387 175.692989 
L 179.884734 182.768169 
L 180.245427 174.471171 
L 180.425774 172.538994 
L 180.606121 178.733328 
L 180.786468 172.482165 
L 180.966814 177.96614 
L 181.147161 171.913877 
L 181.327508 179.756245 
L 181.507855 180.125632 
L 181.688201 172.368507 
L 181.868548 179.472101 
L 182.048895 174.925801 
L 182.229242 181.176964 
L 182.409588 174.528 
L 182.770282 179.131129 
L 182.950629 173.703983 
L 183.311322 175.863476 
L 183.491669 170.549987 
L 183.672016 178.960643 
L 183.852362 178.932228 
L 184.032709 172.567408 
L 184.213056 174.755315 
L 184.393403 171.999121 
L 184.573749 175.863476 
L 184.754096 172.482165 
L 184.934443 177.142123 
L 185.11479 177.681996 
L 185.295136 173.703983 
L 185.475483 178.307112 
L 185.65583 169.640727 
L 186.016523 186.14948 
L 186.19687 185.581192 
L 186.377217 183.847915 
L 186.557564 185.723264 
L 186.73791 186.234723 
L 186.918257 187.598613 
L 187.278951 192.96893 
L 187.459297 186.035822 
L 187.639644 184.956076 
L 187.819991 190.781023 
L 188.180685 181.034892 
L 188.361031 192.485886 
L 188.541378 178.506013 
L 188.721725 186.064237 
L 189.082418 184.302545 
L 189.262765 185.978994 
L 189.443112 180.722334 
L 189.623459 185.638021 
L 189.803805 173.590326 
L 189.984152 188.735188 
L 190.164499 187.939586 
L 190.344846 185.012905 
L 190.525192 177.653581 
L 190.705539 184.501446 
L 190.885886 182.768169 
L 191.066233 183.6206 
L 191.246579 183.222799 
L 191.426926 178.8754 
L 191.607273 187.797514 
L 191.78762 188.649945 
L 191.968147 182.569268 
L 192.148493 188.138486 
L 192.509187 181.716837 
L 192.689534 176.261277 
L 193.050227 186.177894 
L 193.230574 187.797514 
L 193.410921 181.517937 
L 193.591267 191.548211 
L 193.771614 185.268634 
L 193.951961 183.791087 
L 194.132308 185.410706 
L 194.312654 183.194385 
L 194.493001 183.649015 
L 194.673348 184.956076 
L 194.853695 176.829564 
L 195.034041 189.701277 
L 195.394735 53.568 
L 195.575082 105.395822 
L 195.755428 105.05485 
L 196.116122 191.803941 
L 196.296469 107.668973 
L 196.476815 95.365548 
L 196.657162 125.882588 
L 196.837509 131.394977 
L 197.198203 145.602165 
L 197.378549 134.833116 
L 197.739243 144.579247 
L 197.91959 134.804702 
L 198.099936 140.544406 
L 198.280283 137.731383 
L 198.46063 138.356499 
L 198.640977 141.879882 
L 198.821323 139.436245 
L 199.00167 142.64707 
L 199.182017 140.487577 
L 199.362364 142.39134 
L 199.723057 134.918359 
L 199.903404 137.134681 
L 200.083751 143.1017 
L 200.264097 134.719459 
L 200.624791 146.596668 
L 200.805138 139.20893 
L 200.985484 138.5554 
L 201.165831 144.494004 
L 201.346178 145.943137 
L 201.526525 144.46559 
L 201.706871 145.943137 
L 201.887218 142.220854 
L 202.067565 144.948634 
L 202.247912 145.715822 
L 202.428258 149.807493 
L 202.608605 149.523349 
L 202.969299 142.220854 
L 203.149645 148.898233 
L 203.329992 147.505928 
L 203.510339 153.387704 
L 203.690686 150.091636 
L 203.871934 144.20986 
L 204.052461 146.028381 
L 204.232988 140.942207 
L 204.413515 154.552693 
L 204.594043 142.732313 
L 204.954736 151.313455 
L 205.135263 142.732313 
L 205.676303 150.404195 
L 206.036997 146.170452 
L 206.217344 156.854258 
L 206.39769 143.1017 
L 206.578037 147.903729 
L 206.758384 141.02745 
L 206.938911 144.863391 
L 207.119258 151.796499 
L 207.299605 150.801996 
L 207.479951 160.235569 
L 207.660298 153.501362 
L 207.840645 151.313455 
L 208.020992 146.511425 
L 208.201338 150.318951 
L 208.381685 143.954131 
L 208.742379 159.638867 
L 208.922725 144.806562 
L 209.103072 148.472017 
L 209.283419 156.371214 
L 209.463766 152.109057 
L 209.644112 152.64893 
L 209.824459 149.551763 
L 210.004806 149.892736 
L 210.185153 153.075146 
L 210.365499 152.478444 
L 210.545846 156.115484 
L 210.90654 147.648 
L 211.086886 148.244702 
L 211.267233 153.188803 
L 211.44776 144.834977 
L 211.628287 141.879882 
L 211.989161 157.593032 
L 212.350035 153.501362 
L 212.530382 146.681911 
L 212.710729 150.858825 
L 212.891075 158.10449 
L 213.251769 147.619586 
L 213.432116 154.382207 
L 213.612462 136.509564 
L 213.792809 148.955061 
L 213.973156 146.73874 
L 214.333849 160.462884 
L 214.514196 150.716753 
L 214.87489 146.426182 
L 215.055236 162.90652 
L 215.235583 146.113624 
L 215.41593 151.057725 
L 215.596277 150.801996 
L 215.776623 158.076076 
L 215.95697 153.728677 
L 216.137317 159.127408 
L 216.317664 155.035738 
L 216.49801 160.235569 
L 216.858704 142.362926 
L 217.399744 159.439966 
L 217.580091 151.853328 
L 217.760438 158.417049 
L 217.940784 147.790072 
L 218.301478 165.406985 
L 218.662171 150.034808 
L 218.842518 161.656288 
L 219.022865 151.853328 
L 219.203212 161.230072 
L 219.563905 150.574681 
L 219.744252 159.667281 
L 219.924599 160.491298 
L 220.104945 160.63337 
L 220.285292 153.643433 
L 220.465639 153.842334 
L 220.646166 150.148465 
L 220.826513 158.644364 
L 221.00686 155.518782 
L 221.187206 159.439966 
L 221.367553 160.235569 
L 221.5479 162.792863 
L 221.728247 156.7406 
L 221.908593 160.207154 
L 222.269287 153.444533 
L 222.449634 167.140262 
L 222.62998 163.190664 
L 222.810327 161.968846 
L 222.990674 150.489438 
L 223.171021 156.967915 
L 223.351367 155.689268 
L 223.531714 155.774512 
L 223.712061 154.126478 
L 223.892408 163.105421 
L 224.072754 155.37671 
L 224.253101 157.678275 
L 224.433448 151.73967 
L 224.613975 161.059586 
L 224.794502 153.10356 
L 224.975029 156.371214 
L 225.155376 155.37671 
L 225.335903 162.196161 
L 225.51625 151.626013 
L 225.696596 158.36022 
L 225.876943 153.444533 
L 226.05729 155.206224 
L 226.237637 161.485801 
L 226.417983 157.678275 
L 226.59833 163.844195 
L 226.959024 151.768085 
L 227.139371 154.495865 
L 227.319717 171.54449 
L 227.500064 151.483941 
L 227.860758 164.838698 
L 228.041104 155.604025 
L 228.401798 165.492228 
L 228.582145 160.548127 
L 228.762491 150.290537 
L 228.942838 159.695696 
L 229.303532 153.444533 
L 229.664225 160.377641 
L 229.844572 159.525209 
L 230.024919 153.131975 
L 230.205265 158.10449 
L 230.385612 149.551763 
L 230.565959 160.860685 
L 230.746306 154.836837 
L 230.926652 162.025674 
L 231.106999 153.927577 
L 231.287346 162.45189 
L 231.467693 154.581108 
L 231.648039 165.293328 
L 232.008733 153.55819 
L 232.18908 157.507789 
L 232.369426 156.825844 
L 232.549773 159.979839 
L 232.73012 158.502292 
L 232.910467 159.212651 
L 233.090813 150.688338 
L 233.27116 158.331805 
L 233.451507 145.37485 
L 233.8122 159.155822 
L 233.992547 150.517852 
L 234.172894 157.280474 
L 234.353241 156.342799 
L 234.533587 158.843264 
L 234.713934 158.729607 
L 234.894281 153.160389 
L 235.074628 159.496795 
L 235.254974 156.99633 
L 235.435321 164.753455 
L 235.615668 152.364786 
L 235.796015 152.592101 
L 235.976361 158.81485 
L 236.156708 153.643433 
L 236.337055 157.081573 
L 236.517402 154.950495 
L 236.878095 161.99726 
L 237.058442 143.329015 
L 237.238789 154.439036 
L 237.419135 152.989903 
L 237.599482 157.763518 
L 237.779829 154.893666 
L 237.960176 157.621446 
L 238.140522 163.758951 
L 238.320869 152.165886 
L 238.501216 159.582038 
L 238.681743 147.534342 
L 238.86227 155.348296 
L 239.042797 152.393201 
L 239.223324 155.859755 
L 239.403671 154.495865 
L 239.764725 143.954131 
L 240.125599 170.549987 
L 240.305946 146.966055 
L 240.846986 159.553624 
L 241.027513 148.614089 
L 241.568554 162.281404 
L 241.7489 152.705759 
L 241.929247 151.08614 
L 242.109594 158.388634 
L 242.289941 158.985336 
L 242.470287 162.281404 
L 242.650634 157.593032 
L 242.830981 149.494934 
L 243.011328 150.461023 
L 243.191674 156.911087 
L 243.372021 156.058655 
L 243.552368 162.054089 
L 243.732715 155.17781 
L 244.093408 158.871679 
L 244.273755 155.035738 
L 244.454102 154.495865 
L 244.634448 150.063222 
L 244.995142 158.132905 
L 245.175489 158.076076 
L 245.355835 159.866182 
L 245.716529 148.784575 
L 245.896876 152.677345 
L 246.077222 152.506858 
L 246.257569 159.411552 
L 246.618263 152.45003 
L 246.798609 162.90652 
L 246.978956 156.570114 
L 247.159303 155.518782 
L 247.33965 152.535273 
L 247.519996 146.73874 
L 247.700343 150.347366 
L 247.880871 147.619586 
L 248.061236 157.053159 
L 248.241601 154.694765 
L 248.421965 147.164956 
L 248.60233 158.843264 
L 248.96306 145.175949 
L 249.143425 148.273116 
L 249.323789 146.454596 
L 249.504154 153.899163 
L 249.684519 152.165886 
L 249.864884 146.966055 
L 250.045249 163.219078 
L 250.225613 144.607662 
L 250.766708 157.308888 
L 250.947072 147.875315 
L 251.127437 152.563687 
L 251.307802 150.858825 
L 251.488167 153.984406 
L 251.668532 153.671848 
L 251.848896 146.142038 
L 252.029261 154.552693 
L 252.389991 148.443603 
L 252.570356 157.962419 
L 252.75072 150.574681 
L 252.931085 156.371214 
L 253.11145 148.074216 
L 253.291815 155.660854 
L 253.472179 151.199797 
L 253.652544 150.176879 
L 253.832909 151.938571 
L 254.013274 143.868888 
L 254.193639 158.502292 
L 254.374003 154.26855 
L 254.554368 153.586605 
L 254.734733 148.244702 
L 254.915098 147.250199 
L 255.275827 150.318951 
L 255.636557 145.318021 
L 255.997287 155.859755 
L 256.177651 150.120051 
L 256.358016 151.768085 
L 256.538381 150.546266 
L 256.718746 155.717683 
L 256.89911 151.682841 
L 257.079475 150.290537 
L 257.26002 153.075146 
L 257.440385 149.608592 
L 257.62075 153.245632 
L 257.801115 153.529776 
L 257.98148 154.382207 
L 258.161844 147.818486 
L 258.342209 148.017387 
L 258.522574 150.63151 
L 258.703119 158.473877 
L 258.883484 149.949564 
L 259.063849 151.938571 
L 259.244213 152.506858 
L 259.424578 152.705759 
L 259.604943 152.080643 
L 259.785308 155.461953 
L 259.965673 152.592101 
L 260.146037 142.789142 
L 260.326402 146.568254 
L 260.506767 156.229142 
L 260.687132 152.90466 
L 260.867497 145.886309 
L 261.047861 151.427112 
L 261.228226 153.075146 
L 261.408591 147.591171 
L 261.588956 158.502292 
L 261.76932 148.045801 
L 262.13005 152.279543 
L 262.49078 149.040304 
L 262.671144 143.243772 
L 262.851509 148.244702 
L 263.031874 164.497725 
L 263.392604 138.640643 
L 263.572968 148.528846 
L 263.753333 151.626013 
L 263.933698 148.244702 
L 264.474792 157.19523 
L 264.655157 150.432609 
L 264.835522 152.819416 
L 265.015887 151.626013 
L 265.196251 145.232778 
L 265.376616 148.869818 
L 265.556981 147.932144 
L 265.737346 148.55726 
L 265.917711 153.018317 
L 266.098075 151.08614 
L 266.27844 147.534342 
L 266.458805 147.534342 
L 266.819535 154.780008 
L 266.999899 147.505928 
L 267.180264 151.654427 
L 267.360629 149.835907 
L 267.540994 142.618655 
L 267.721358 142.050368 
L 267.901723 139.947704 
L 268.082268 149.892736 
L 268.262633 145.005463 
L 268.442998 148.699332 
L 268.623363 148.500431 
L 268.803728 147.449099 
L 268.984092 154.609522 
L 269.164457 148.955061 
L 269.344822 152.535273 
L 269.525187 152.64893 
L 269.705552 159.638867 
L 269.885916 149.750664 
L 270.066281 148.642503 
L 270.246646 148.358359 
L 270.427011 140.402334 
L 270.607375 146.852397 
L 270.78774 146.198867 
L 270.968105 152.847831 
L 271.328835 146.369353 
L 271.509199 151.910156 
L 271.689564 150.63151 
L 271.869929 142.959628 
L 272.050294 142.817556 
L 272.230659 143.044871 
L 272.771753 149.210791 
L 272.952118 138.384913 
L 273.132482 145.147535 
L 273.312847 156.229142 
L 273.493212 137.532482 
L 273.853942 150.233708 
L 274.034306 150.347366 
L 274.214671 148.500431 
L 274.395036 148.898233 
L 274.575401 150.887239 
L 274.755766 159.212651 
L 274.93613 146.966055 
L 275.116495 147.477514 
L 275.29686 152.023814 
L 275.657589 154.26855 
L 275.837954 148.386774 
L 276.018319 150.659924 
L 276.198684 149.210791 
L 276.379049 145.772651 
L 276.559413 148.926647 
L 276.920143 149.068719 
L 277.100508 143.641573 
L 277.641602 153.046732 
L 277.821967 146.681911 
L 278.002332 152.364786 
L 278.182697 150.773581 
L 278.363061 147.108127 
L 278.543426 152.989903 
L 278.723791 149.239205 
L 278.904156 140.999036 
L 279.264885 153.416118 
L 279.625615 146.909226 
L 279.80598 153.330875 
L 279.986344 146.198867 
L 280.166709 154.552693 
L 280.347074 145.943137 
L 280.527439 151.853328 
L 280.888168 147.19337 
L 281.068533 149.949564 
L 281.248898 147.761658 
L 281.609628 153.387704 
L 281.789992 148.756161 
L 281.970357 151.28504 
L 282.150722 144.721319 
L 282.331087 148.784575 
L 282.511451 141.538909 
L 282.872181 151.28504 
L 283.052546 149.210791 
L 283.232911 151.199797 
L 283.413275 146.056795 
L 283.59364 146.028381 
L 284.134735 154.439036 
L 284.315099 141.340008 
L 284.675829 145.175949 
L 284.856194 146.710326 
L 285.216923 138.5554 
L 285.758018 149.068719 
L 285.938382 141.794638 
L 286.118747 139.834047 
L 286.299112 146.227281 
L 286.479477 148.273116 
L 286.659842 141.680981 
L 286.840206 159.553624 
L 287.200936 142.19244 
L 287.381301 146.710326 
L 287.561846 139.777218 
L 287.742211 146.511425 
L 287.922575 139.20893 
L 288.10294 142.476584 
L 288.283305 140.203433 
L 288.644035 150.034808 
L 288.824399 149.551763 
L 289.004764 146.028381 
L 289.185129 153.785505 
L 289.365494 145.261192 
L 289.545859 142.476584 
L 289.726223 151.881742 
L 289.906588 142.476584 
L 290.086953 149.977979 
L 290.267498 149.210791 
L 290.628228 145.687408 
L 291.169322 151.966985 
L 291.530052 148.358359 
L 291.710416 153.075146 
L 291.890781 142.931214 
L 292.071146 145.431679 
L 292.431876 146.511425 
L 292.61224 149.693835 
L 292.97297 145.886309 
L 293.153335 145.516922 
L 293.514064 140.288677 
L 293.694429 149.551763 
L 293.874794 149.409691 
L 294.055159 145.175949 
L 294.235523 149.835907 
L 294.415888 148.415188 
L 294.596253 144.834977 
L 294.776618 145.772651 
L 294.956983 148.443603 
L 295.317712 144.323518 
L 295.678442 142.789142 
L 295.858807 143.954131 
L 296.039171 139.947704 
L 296.219536 146.397767 
L 296.399901 146.454596 
L 296.580446 143.3006 
L 296.760811 134.037514 
L 296.941176 143.669987 
L 297.12154 137.731383 
L 297.48227 149.324448 
L 297.843 141.396837 
L 298.023364 151.427112 
L 298.203729 140.288677 
L 298.564459 145.744237 
L 298.744823 144.863391 
L 298.925188 139.066858 
L 299.105553 140.260262 
L 299.285918 146.880812 
L 299.466283 146.596668 
L 299.827012 131.878021 
L 300.007377 138.5554 
L 300.187742 134.293243 
L 300.368107 133.128254 
L 300.548471 145.658994 
L 300.728836 145.857894 
L 300.909201 147.534342 
L 301.089566 139.20893 
L 301.269931 141.965125 
L 301.450295 148.017387 
L 301.811025 138.924786 
L 301.99139 142.078782 
L 302.171754 143.272186 
L 302.352119 137.447239 
L 302.532484 144.437175 
L 302.893214 139.46466 
L 303.073578 138.328085 
L 303.434308 146.340939 
L 303.795038 137.163095 
L 304.336132 134.492144 
L 304.516497 160.263983 
L 304.696861 116.818402 
L 304.877226 140.37392 
L 305.057591 139.265759 
L 305.418321 147.221784 
L 305.598685 138.242841 
L 305.77905 137.589311 
L 305.959415 147.704829 
L 306.13978 135.060431 
L 306.320145 139.862461 
L 306.500509 140.402334 
L 306.680874 137.504068 
L 306.861239 149.182376 
L 307.041604 138.498571 
L 307.221969 135.770791 
L 307.763063 143.158529 
L 307.943428 140.82855 
L 308.123793 151.28504 
L 308.304157 138.981615 
L 308.484522 135.060431 
L 308.664887 139.294173 
L 309.025616 133.639712 
L 309.205981 142.902799 
L 309.747076 136.907366 
L 309.92744 138.811129 
L 310.107805 138.29967 
L 310.28817 141.624152 
L 310.468535 141.794638 
L 310.648899 145.204364 
L 310.829264 139.180516 
L 311.009629 139.123687 
L 311.189994 136.48115 
L 311.370359 138.356499 
L 311.550723 135.600304 
L 311.731088 136.48115 
L 312.091818 142.504998 
L 312.272183 139.862461 
L 312.452547 142.590241 
L 312.632912 130.968761 
L 312.813277 146.056795 
L 312.993642 141.254765 
L 313.174007 140.57282 
L 313.354371 136.509564 
L 313.534736 136.02652 
L 313.715101 136.736879 
L 313.895466 142.220854 
L 314.07583 140.515992 
L 314.256195 150.773581 
L 314.43656 132.048507 
L 314.616925 128.411467 
L 314.977654 142.078782 
L 315.158019 127.360135 
L 315.338384 135.912863 
L 315.518749 136.140178 
L 315.699114 138.669057 
L 315.879478 143.073285 
L 316.059843 141.595738 
L 316.240208 141.993539 
L 316.420573 148.55726 
L 316.781302 135.11726 
L 316.961667 137.418825 
L 317.142032 137.532482 
L 317.322397 138.384913 
L 317.502761 147.19337 
L 317.683126 131.054004 
L 318.043856 142.590241 
L 318.404585 141.197937 
L 318.58495 136.054934 
L 318.765315 136.253835 
L 319.126045 140.913793 
L 319.486774 134.179586 
L 319.667139 144.522419 
L 319.847504 141.993539 
L 320.027869 136.708465 
L 320.388598 140.714892 
L 320.568963 145.062292 
L 320.749328 139.351002 
L 320.929692 140.37392 
L 321.110057 137.39041 
L 321.290422 139.436245 
L 321.470787 144.323518 
L 321.651152 127.928423 
L 321.831516 136.651636 
L 322.011881 137.447239 
L 322.192246 131.338148 
L 322.372611 136.02652 
L 322.552976 130.599374 
L 322.73334 142.419755 
L 322.913705 139.351002 
L 323.09407 139.606732 
L 323.274435 141.226351 
L 323.454799 139.635146 
L 323.635164 135.003603 
L 323.995894 142.107197 
L 324.176259 139.436245 
L 324.356623 144.238275 
L 324.717353 142.618655 
L 324.897718 143.897302 
L 325.078083 142.590241 
L 325.258447 139.691975 
L 325.438812 141.254765 
L 325.619177 137.39041 
L 325.799722 141.453666 
L 325.980087 142.306097 
L 326.160452 132.105336 
L 326.340816 139.91929 
L 326.521181 138.725886 
L 326.701546 138.953201 
L 326.881911 141.595738 
L 327.062276 162.679205 
L 327.24264 138.441742 
L 327.423005 141.254765 
L 327.60337 133.781784 
L 327.783735 132.275822 
L 328.144464 138.669057 
L 328.324829 136.793708 
L 328.505194 143.812059 
L 328.685559 137.901869 
L 328.865923 140.203433 
L 329.046288 123.694681 
L 329.226653 135.742376 
L 329.407018 140.260262 
L 329.587383 138.470156 
L 329.767928 135.202503 
L 329.948293 140.288677 
L 330.309022 135.827619 
L 330.489387 130.542545 
L 330.669752 136.594808 
L 330.850117 137.077852 
L 331.030481 127.84318 
L 331.391211 137.134681 
L 331.571576 143.527915 
L 331.932305 128.667197 
L 332.11267 134.406901 
L 332.293035 125.541615 
L 332.4734 136.197006 
L 332.653764 138.214427 
L 332.834129 151.711256 
L 333.014494 129.633285 
L 333.194859 140.658063 
L 333.555588 131.196076 
L 333.916318 143.669987 
L 334.096683 128.638782 
L 334.277048 136.054934 
L 334.457412 136.111763 
L 334.637777 127.615865 
L 334.818142 137.84504 
L 334.998507 141.141108 
L 335.178871 134.975188 
L 335.359236 136.111763 
L 335.539601 143.215357 
L 335.719966 136.907366 
L 336.080695 131.878021 
L 336.26106 134.66263 
L 336.441425 140.260262 
L 336.802155 135.543476 
L 336.982519 138.867958 
L 337.162884 159.070579 
L 337.343249 138.839543 
L 337.523614 136.253835 
L 337.703978 143.613159 
L 337.884343 129.604871 
L 338.245073 141.624152 
L 338.425438 138.186013 
L 338.605802 157.337302 
L 338.786167 123.723095 
L 338.966532 135.458233 
L 339.146897 136.225421 
L 339.327262 140.544406 
L 339.507626 140.11819 
L 339.687991 133.043011 
L 339.868356 130.76986 
L 340.048721 137.674554 
L 340.229085 149.210791 
L 340.40945 149.551763 
L 340.589815 132.190579 
L 340.950545 133.554469 
L 341.130909 134.463729 
L 341.311274 139.834047 
L 341.491639 134.66263 
L 341.672004 133.639712 
L 341.852369 135.344575 
L 342.213098 143.925717 
L 342.573828 125.456372 
L 342.754192 133.014596 
L 342.934557 133.696541 
L 343.114922 136.253835 
L 343.295287 143.016457 
L 343.475652 139.407831 
L 343.656016 129.576457 
L 343.836381 126.109903 
L 344.197111 139.890875 
L 344.377476 135.145674 
L 344.55784 136.225421 
L 344.738205 142.306097 
L 344.91857 142.732313 
L 345.098935 140.544406 
L 345.2793 143.75523 
L 345.459664 139.947704 
L 345.640029 141.851467 
L 346.000759 135.600304 
L 346.181124 142.703899 
L 346.541853 134.264829 
L 346.722218 149.665421 
L 346.902583 133.923856 
L 347.082947 135.032017 
L 347.263312 136.964195 
L 347.443677 134.577387 
L 347.624042 138.640643 
L 347.804407 134.66263 
L 347.984771 149.153962 
L 348.345501 130.76986 
L 348.525866 130.883518 
L 348.706231 132.957767 
L 348.886595 132.332651 
L 349.06696 144.351932 
L 349.247325 133.327154 
L 349.608054 140.686478 
L 349.788419 137.134681 
L 349.968784 129.775357 
L 350.149149 137.901869 
L 350.329514 125.911002 
L 350.509878 127.246478 
L 350.870608 136.850537 
L 351.050973 123.268465 
L 351.231338 130.826689 
L 351.592067 137.361996 
L 351.772432 135.827619 
L 351.952797 124.603941 
L 352.313526 144.92022 
L 352.493891 124.916499 
L 352.674256 132.503137 
L 352.854621 133.412397 
L 353.395715 140.089776 
L 353.57608 125.285886 
L 353.756445 135.912863 
L 353.936809 130.883518 
L 354.117174 141.48208 
L 354.297539 132.361066 
L 354.477904 132.84411 
L 354.658269 134.747873 
L 354.838633 135.316161 
L 355.018998 127.13282 
L 355.199363 134.747873 
L 355.379728 131.764364 
L 355.560092 135.998106 
L 355.740457 127.38855 
L 355.920822 129.746943 
L 356.281552 144.46559 
L 356.461916 131.22449 
L 356.642281 134.094342 
L 356.822646 132.446309 
L 357.003011 133.469226 
L 357.183376 125.200643 
L 357.36374 142.362926 
L 357.544105 139.294173 
L 357.72447 127.161235 
L 357.904835 132.986182 
L 358.0852 130.229987 
L 358.265564 135.316161 
L 358.445929 130.57096 
L 358.626294 133.071425 
L 358.806659 131.508634 
L 358.987023 128.525125 
L 359.167388 133.099839 
L 359.347753 131.252905 
L 359.708483 132.361066 
L 359.888847 135.657133 
L 360.069212 128.837683 
L 360.249577 127.900008 
L 360.429942 129.064998 
L 360.790671 135.088846 
L 360.971036 140.913793 
L 361.151401 133.156668 
L 361.331766 135.11726 
L 361.51213 130.514131 
L 361.692495 131.537049 
L 361.87286 126.337218 
L 362.053225 131.991679 
L 362.23359 127.672693 
L 362.413954 128.610368 
L 362.774684 135.458233 
L 363.135414 127.84318 
L 363.496143 132.702038 
L 363.676508 129.377556 
L 363.856873 136.452736 
L 364.217602 131.565463 
L 364.397967 131.22449 
L 364.578332 131.423391 
L 364.758697 125.57003 
L 365.119426 135.884448 
L 365.299791 135.543476 
L 365.480156 125.911002 
L 365.660521 125.3143 
L 365.840885 132.417894 
L 366.02125 127.757937 
L 366.201795 126.422461 
L 366.38216 135.998106 
L 366.74289 125.229057 
L 366.923254 125.939416 
L 367.103619 132.304237 
L 367.283984 129.121827 
L 367.464349 134.889945 
L 367.644714 130.31523 
L 367.825078 132.503137 
L 368.005443 136.964195 
L 368.366173 129.945844 
L 368.546538 122.529691 
L 368.726902 135.088846 
L 368.907267 123.211636 
L 369.087632 131.565463 
L 369.267997 127.360135 
L 369.628726 131.792778 
L 369.809091 125.939416 
L 369.989456 127.701108 
L 370.169821 124.149311 
L 370.350185 130.997175 
L 370.53055 126.365632 
L 370.710915 130.144744 
L 370.89128 126.735019 
L 371.071645 118.750579 
L 371.252009 126.763433 
L 371.432374 127.075992 
L 371.612739 158.076076 
L 371.793104 116.477429 
L 371.973469 122.387619 
L 372.153833 133.071425 
L 372.334198 129.121827 
L 372.514563 127.84318 
L 372.694928 146.227281 
L 373.055657 128.326224 
L 373.236022 130.144744 
L 373.416387 140.004533 
L 373.596752 140.856964 
L 373.777116 125.1154 
L 373.957481 137.702968 
L 374.137846 128.894512 
L 374.498576 140.032947 
L 374.67894 128.610368 
L 374.859305 130.087915 
L 375.03967 128.724025 
L 375.4004 138.669057 
L 375.580764 123.012736 
L 375.761129 131.593877 
L 375.941494 128.439882 
L 376.121859 133.270326 
L 376.302223 125.484786 
L 376.482588 122.984321 
L 376.662953 123.779924 
L 376.843318 126.905505 
L 377.023683 127.38855 
L 377.204047 130.144744 
L 377.384412 137.163095 
L 377.564777 135.230918 
L 377.745142 128.383053 
L 377.925507 127.900008 
L 378.105871 128.439882 
L 378.286416 128.553539 
L 378.466781 134.548973 
L 378.647146 125.797345 
L 378.827511 125.683687 
L 379.007876 128.638782 
L 379.18824 122.330791 
L 379.54897 136.02652 
L 379.729335 122.984321 
L 379.9097 136.339078 
L 380.090064 131.707535 
L 380.450794 141.510495 
L 380.631159 122.330791 
L 380.811524 129.235484 
L 380.991888 124.717598 
L 381.172253 136.623222 
L 381.352618 116.051214 
L 381.532983 128.127323 
L 381.713347 130.031087 
L 381.893712 135.401404 
L 382.074077 128.212567 
L 382.254442 130.457302 
L 382.434807 122.472863 
L 382.795536 132.559966 
L 382.975901 128.155738 
L 383.156266 130.798275 
L 383.336631 130.144744 
L 383.516995 127.303307 
L 383.69736 131.423391 
L 383.877725 130.173159 
L 384.05809 132.105336 
L 384.238455 125.513201 
L 384.599184 129.576457 
L 384.779549 129.377556 
L 384.959914 122.075061 
L 385.320643 128.581953 
L 385.501008 116.789987 
L 385.681373 127.615865 
L 385.861738 124.717598 
L 386.222467 127.615865 
L 386.402832 127.473793 
L 386.583197 126.67819 
L 386.763562 130.457302 
L 387.124291 118.381192 
L 387.304656 127.161235 
L 387.485021 124.632355 
L 387.665385 131.02559 
L 387.84575 129.462799 
L 388.026115 122.927493 
L 388.20648 128.184152 
L 388.386845 120.086055 
L 388.567209 120.995315 
L 388.747574 132.702038 
L 388.927939 117.244617 
L 389.288669 128.212567 
L 389.469033 127.360135 
L 389.649398 129.832186 
L 389.829763 134.889945 
L 390.010128 135.344575 
L 390.190493 130.883518 
L 390.370857 122.13189 
L 390.551222 121.762503 
L 390.731587 123.183222 
L 391.092316 129.633285 
L 391.453046 120.427027 
L 391.633411 121.023729 
L 391.813776 127.928423 
L 391.99414 130.059501 
L 392.174505 118.722165 
L 392.35487 119.006309 
L 392.535235 128.922926 
L 392.7156 121.22263 
L 393.076329 125.030156 
L 393.256694 122.813835 
L 393.437059 125.854173 
L 393.617423 135.941277 
L 393.797788 129.150241 
L 393.978153 131.082419 
L 394.158518 125.939416 
L 394.338883 127.786351 
L 394.519247 128.354638 
L 394.699612 125.683687 
L 394.879977 128.240981 
L 395.060342 135.003603 
L 395.421071 126.337218 
L 395.601436 128.979755 
L 395.781801 128.354638 
L 395.962166 124.547112 
L 396.142531 115.76707 
L 396.322895 132.105336 
L 396.50326 123.524195 
L 396.683625 127.246478 
L 396.86399 126.02466 
L 397.044354 129.263899 
L 397.224719 120.569099 
L 397.405084 131.451805 
L 397.585449 124.120896 
L 397.765814 127.530622 
L 397.946178 134.009099 
L 398.126543 126.877091 
L 398.306908 126.138317 
L 398.487273 126.962334 
L 398.487273 126.962334 
" style="fill:none;stroke:#1f77b4;stroke-linecap:square;stroke-width:1.5;"/>
   </g>
   <g id="patch_3">
    <path d="M 57.6 307.584 
L 57.6 41.472 
" style="fill:none;stroke:#000000;stroke-linecap:square;stroke-linejoin:miter;stroke-width:0.8;"/>
   </g>
   <g id="patch_4">
    <path d="M 414.72 307.584 
L 414.72 41.472 
" style="fill:none;stroke:#000000;stroke-linecap:square;stroke-linejoin:miter;stroke-width:0.8;"/>
   </g>
   <g id="patch_5">
    <path d="M 57.6 307.584 
L 414.72 307.584 
" style="fill:none;stroke:#000000;stroke-linecap:square;stroke-linejoin:miter;stroke-width:0.8;"/>
   </g>
   <g id="patch_6">
    <path d="M 57.6 41.472 
L 414.72 41.472 
" style="fill:none;stroke:#000000;stroke-linecap:square;stroke-linejoin:miter;stroke-width:0.8;"/>
   </g>
   <g id="text_20">
    <!-- Resistance -->
    <g transform="translate(203.562187 35.472)scale(0.12 -0.12)">
     <use xlink:href="#DejaVuSans-52"/>
     <use x="69.419922" xlink:href="#DejaVuSans-65"/>
     <use x="130.943359" xlink:href="#DejaVuSans-73"/>
     <use x="183.042969" xlink:href="#DejaVuSans-69"/>
     <use x="210.826172" xlink:href="#DejaVuSans-73"/>
     <use x="262.925781" xlink:href="#DejaVuSans-74"/>
     <use x="302.134766" xlink:href="#DejaVuSans-61"/>
     <use x="363.414062" xlink:href="#DejaVuSans-6e"/>
     <use x="426.792969" xlink:href="#DejaVuSans-63"/>
     <use x="481.773438" xlink:href="#DejaVuSans-65"/>
    </g>
   </g>
  </g>
 </g>
 <defs>
  <clipPath id="p5398b72ec9">
   <rect height="266.112" width="357.12" x="57.6" y="41.472"/>
  </clipPath>
 </defs>
</svg>
