<?xml version="1.0" encoding="utf-8" standalone="no"?>
<!DOCTYPE svg PUBLIC "-//W3C//DTD SVG 1.1//EN"
  "http://www.w3.org/Graphics/SVG/1.1/DTD/svg11.dtd">
<!-- Created with matplotlib (http://matplotlib.org/) -->
<svg height="345pt" version="1.1" viewBox="0 0 460 345" width="460pt" xmlns="http://www.w3.org/2000/svg" xmlns:xlink="http://www.w3.org/1999/xlink">
 <defs>
  <style type="text/css">
*{stroke-linecap:butt;stroke-linejoin:round;}
  </style>
 </defs>
 <g id="figure_1">
  <g id="patch_1">
   <path d="M 0 345.6 
L 460.8 345.6 
L 460.8 0 
L 0 0 
z
" style="fill:#ffffff;"/>
  </g>
  <g id="axes_1">
   <g id="patch_2">
    <path d="M 57.6 307.584 
L 414.72 307.584 
L 414.72 41.472 
L 57.6 41.472 
z
" style="fill:#ffffff;"/>
   </g>
   <g id="matplotlib.axis_1">
    <g id="xtick_1">
     <g id="line2d_1">
      <defs>
       <path d="M 0 0 
L 0 3.5 
" id="m59c90af818" style="stroke:#000000;stroke-width:0.8;"/>
      </defs>
      <g>
       <use style="stroke:#000000;stroke-width:0.8;" x="73.832727" xlink:href="#m59c90af818" y="307.584"/>
      </g>
     </g>
     <g id="text_1">
      <!-- 0 -->
      <defs>
       <path d="M 31.78125 66.40625 
Q 24.171875 66.40625 20.328125 58.90625 
Q 16.5 51.421875 16.5 36.375 
Q 16.5 21.390625 20.328125 13.890625 
Q 24.171875 6.390625 31.78125 6.390625 
Q 39.453125 6.390625 43.28125 13.890625 
Q 47.125 21.390625 47.125 36.375 
Q 47.125 51.421875 43.28125 58.90625 
Q 39.453125 66.40625 31.78125 66.40625 
z
M 31.78125 74.21875 
Q 44.046875 74.21875 50.515625 64.515625 
Q 56.984375 54.828125 56.984375 36.375 
Q 56.984375 17.96875 50.515625 8.265625 
Q 44.046875 -1.421875 31.78125 -1.421875 
Q 19.53125 -1.421875 13.0625 8.265625 
Q 6.59375 17.96875 6.59375 36.375 
Q 6.59375 54.828125 13.0625 64.515625 
Q 19.53125 74.21875 31.78125 74.21875 
z
" id="DejaVuSans-30"/>
      </defs>
      <g transform="translate(70.651477 322.182437)scale(0.1 -0.1)">
       <use xlink:href="#DejaVuSans-30"/>
      </g>
     </g>
    </g>
    <g id="xtick_2">
     <g id="line2d_2">
      <g>
       <use style="stroke:#000000;stroke-width:0.8;" x="127.951018" xlink:href="#m59c90af818" y="307.584"/>
      </g>
     </g>
     <g id="text_2">
      <!-- 100 -->
      <defs>
       <path d="M 12.40625 8.296875 
L 28.515625 8.296875 
L 28.515625 63.921875 
L 10.984375 60.40625 
L 10.984375 69.390625 
L 28.421875 72.90625 
L 38.28125 72.90625 
L 38.28125 8.296875 
L 54.390625 8.296875 
L 54.390625 0 
L 12.40625 0 
z
" id="DejaVuSans-31"/>
      </defs>
      <g transform="translate(118.407268 322.182437)scale(0.1 -0.1)">
       <use xlink:href="#DejaVuSans-31"/>
       <use x="63.623047" xlink:href="#DejaVuSans-30"/>
       <use x="127.246094" xlink:href="#DejaVuSans-30"/>
      </g>
     </g>
    </g>
    <g id="xtick_3">
     <g id="line2d_3">
      <g>
       <use style="stroke:#000000;stroke-width:0.8;" x="182.069309" xlink:href="#m59c90af818" y="307.584"/>
      </g>
     </g>
     <g id="text_3">
      <!-- 200 -->
      <defs>
       <path d="M 19.1875 8.296875 
L 53.609375 8.296875 
L 53.609375 0 
L 7.328125 0 
L 7.328125 8.296875 
Q 12.9375 14.109375 22.625 23.890625 
Q 32.328125 33.6875 34.8125 36.53125 
Q 39.546875 41.84375 41.421875 45.53125 
Q 43.3125 49.21875 43.3125 52.78125 
Q 43.3125 58.59375 39.234375 62.25 
Q 35.15625 65.921875 28.609375 65.921875 
Q 23.96875 65.921875 18.8125 64.3125 
Q 13.671875 62.703125 7.8125 59.421875 
L 7.8125 69.390625 
Q 13.765625 71.78125 18.9375 73 
Q 24.125 74.21875 28.421875 74.21875 
Q 39.75 74.21875 46.484375 68.546875 
Q 53.21875 62.890625 53.21875 53.421875 
Q 53.21875 48.921875 51.53125 44.890625 
Q 49.859375 40.875 45.40625 35.40625 
Q 44.1875 33.984375 37.640625 27.21875 
Q 31.109375 20.453125 19.1875 8.296875 
z
" id="DejaVuSans-32"/>
      </defs>
      <g transform="translate(172.525559 322.182437)scale(0.1 -0.1)">
       <use xlink:href="#DejaVuSans-32"/>
       <use x="63.623047" xlink:href="#DejaVuSans-30"/>
       <use x="127.246094" xlink:href="#DejaVuSans-30"/>
      </g>
     </g>
    </g>
    <g id="xtick_4">
     <g id="line2d_4">
      <g>
       <use style="stroke:#000000;stroke-width:0.8;" x="236.1876" xlink:href="#m59c90af818" y="307.584"/>
      </g>
     </g>
     <g id="text_4">
      <!-- 300 -->
      <defs>
       <path d="M 40.578125 39.3125 
Q 47.65625 37.796875 51.625 33 
Q 55.609375 28.21875 55.609375 21.1875 
Q 55.609375 10.40625 48.1875 4.484375 
Q 40.765625 -1.421875 27.09375 -1.421875 
Q 22.515625 -1.421875 17.65625 -0.515625 
Q 12.796875 0.390625 7.625 2.203125 
L 7.625 11.71875 
Q 11.71875 9.328125 16.59375 8.109375 
Q 21.484375 6.890625 26.8125 6.890625 
Q 36.078125 6.890625 40.9375 10.546875 
Q 45.796875 14.203125 45.796875 21.1875 
Q 45.796875 27.640625 41.28125 31.265625 
Q 36.765625 34.90625 28.71875 34.90625 
L 20.21875 34.90625 
L 20.21875 43.015625 
L 29.109375 43.015625 
Q 36.375 43.015625 40.234375 45.921875 
Q 44.09375 48.828125 44.09375 54.296875 
Q 44.09375 59.90625 40.109375 62.90625 
Q 36.140625 65.921875 28.71875 65.921875 
Q 24.65625 65.921875 20.015625 65.03125 
Q 15.375 64.15625 9.8125 62.3125 
L 9.8125 71.09375 
Q 15.4375 72.65625 20.34375 73.4375 
Q 25.25 74.21875 29.59375 74.21875 
Q 40.828125 74.21875 47.359375 69.109375 
Q 53.90625 64.015625 53.90625 55.328125 
Q 53.90625 49.265625 50.4375 45.09375 
Q 46.96875 40.921875 40.578125 39.3125 
z
" id="DejaVuSans-33"/>
      </defs>
      <g transform="translate(226.64385 322.182437)scale(0.1 -0.1)">
       <use xlink:href="#DejaVuSans-33"/>
       <use x="63.623047" xlink:href="#DejaVuSans-30"/>
       <use x="127.246094" xlink:href="#DejaVuSans-30"/>
      </g>
     </g>
    </g>
    <g id="xtick_5">
     <g id="line2d_5">
      <g>
       <use style="stroke:#000000;stroke-width:0.8;" x="290.305891" xlink:href="#m59c90af818" y="307.584"/>
      </g>
     </g>
     <g id="text_5">
      <!-- 400 -->
      <defs>
       <path d="M 37.796875 64.3125 
L 12.890625 25.390625 
L 37.796875 25.390625 
z
M 35.203125 72.90625 
L 47.609375 72.90625 
L 47.609375 25.390625 
L 58.015625 25.390625 
L 58.015625 17.1875 
L 47.609375 17.1875 
L 47.609375 0 
L 37.796875 0 
L 37.796875 17.1875 
L 4.890625 17.1875 
L 4.890625 26.703125 
z
" id="DejaVuSans-34"/>
      </defs>
      <g transform="translate(280.762141 322.182437)scale(0.1 -0.1)">
       <use xlink:href="#DejaVuSans-34"/>
       <use x="63.623047" xlink:href="#DejaVuSans-30"/>
       <use x="127.246094" xlink:href="#DejaVuSans-30"/>
      </g>
     </g>
    </g>
    <g id="xtick_6">
     <g id="line2d_6">
      <g>
       <use style="stroke:#000000;stroke-width:0.8;" x="344.424182" xlink:href="#m59c90af818" y="307.584"/>
      </g>
     </g>
     <g id="text_6">
      <!-- 500 -->
      <defs>
       <path d="M 10.796875 72.90625 
L 49.515625 72.90625 
L 49.515625 64.59375 
L 19.828125 64.59375 
L 19.828125 46.734375 
Q 21.96875 47.46875 24.109375 47.828125 
Q 26.265625 48.1875 28.421875 48.1875 
Q 40.625 48.1875 47.75 41.5 
Q 54.890625 34.8125 54.890625 23.390625 
Q 54.890625 11.625 47.5625 5.09375 
Q 40.234375 -1.421875 26.90625 -1.421875 
Q 22.3125 -1.421875 17.546875 -0.640625 
Q 12.796875 0.140625 7.71875 1.703125 
L 7.71875 11.625 
Q 12.109375 9.234375 16.796875 8.0625 
Q 21.484375 6.890625 26.703125 6.890625 
Q 35.15625 6.890625 40.078125 11.328125 
Q 45.015625 15.765625 45.015625 23.390625 
Q 45.015625 31 40.078125 35.4375 
Q 35.15625 39.890625 26.703125 39.890625 
Q 22.75 39.890625 18.8125 39.015625 
Q 14.890625 38.140625 10.796875 36.28125 
z
" id="DejaVuSans-35"/>
      </defs>
      <g transform="translate(334.880432 322.182437)scale(0.1 -0.1)">
       <use xlink:href="#DejaVuSans-35"/>
       <use x="63.623047" xlink:href="#DejaVuSans-30"/>
       <use x="127.246094" xlink:href="#DejaVuSans-30"/>
      </g>
     </g>
    </g>
    <g id="xtick_7">
     <g id="line2d_7">
      <g>
       <use style="stroke:#000000;stroke-width:0.8;" x="398.542473" xlink:href="#m59c90af818" y="307.584"/>
      </g>
     </g>
     <g id="text_7">
      <!-- 600 -->
      <defs>
       <path d="M 33.015625 40.375 
Q 26.375 40.375 22.484375 35.828125 
Q 18.609375 31.296875 18.609375 23.390625 
Q 18.609375 15.53125 22.484375 10.953125 
Q 26.375 6.390625 33.015625 6.390625 
Q 39.65625 6.390625 43.53125 10.953125 
Q 47.40625 15.53125 47.40625 23.390625 
Q 47.40625 31.296875 43.53125 35.828125 
Q 39.65625 40.375 33.015625 40.375 
z
M 52.59375 71.296875 
L 52.59375 62.3125 
Q 48.875 64.0625 45.09375 64.984375 
Q 41.3125 65.921875 37.59375 65.921875 
Q 27.828125 65.921875 22.671875 59.328125 
Q 17.53125 52.734375 16.796875 39.40625 
Q 19.671875 43.65625 24.015625 45.921875 
Q 28.375 48.1875 33.59375 48.1875 
Q 44.578125 48.1875 50.953125 41.515625 
Q 57.328125 34.859375 57.328125 23.390625 
Q 57.328125 12.15625 50.6875 5.359375 
Q 44.046875 -1.421875 33.015625 -1.421875 
Q 20.359375 -1.421875 13.671875 8.265625 
Q 6.984375 17.96875 6.984375 36.375 
Q 6.984375 53.65625 15.1875 63.9375 
Q 23.390625 74.21875 37.203125 74.21875 
Q 40.921875 74.21875 44.703125 73.484375 
Q 48.484375 72.75 52.59375 71.296875 
z
" id="DejaVuSans-36"/>
      </defs>
      <g transform="translate(388.998723 322.182437)scale(0.1 -0.1)">
       <use xlink:href="#DejaVuSans-36"/>
       <use x="63.623047" xlink:href="#DejaVuSans-30"/>
       <use x="127.246094" xlink:href="#DejaVuSans-30"/>
      </g>
     </g>
    </g>
    <g id="text_8">
     <!-- t(s) -->
     <defs>
      <path d="M 18.3125 70.21875 
L 18.3125 54.6875 
L 36.8125 54.6875 
L 36.8125 47.703125 
L 18.3125 47.703125 
L 18.3125 18.015625 
Q 18.3125 11.328125 20.140625 9.421875 
Q 21.96875 7.515625 27.59375 7.515625 
L 36.8125 7.515625 
L 36.8125 0 
L 27.59375 0 
Q 17.1875 0 13.234375 3.875 
Q 9.28125 7.765625 9.28125 18.015625 
L 9.28125 47.703125 
L 2.6875 47.703125 
L 2.6875 54.6875 
L 9.28125 54.6875 
L 9.28125 70.21875 
z
" id="DejaVuSans-74"/>
      <path d="M 31 75.875 
Q 24.46875 64.65625 21.28125 53.65625 
Q 18.109375 42.671875 18.109375 31.390625 
Q 18.109375 20.125 21.3125 9.0625 
Q 24.515625 -2 31 -13.1875 
L 23.1875 -13.1875 
Q 15.875 -1.703125 12.234375 9.375 
Q 8.59375 20.453125 8.59375 31.390625 
Q 8.59375 42.28125 12.203125 53.3125 
Q 15.828125 64.359375 23.1875 75.875 
z
" id="DejaVuSans-28"/>
      <path d="M 44.28125 53.078125 
L 44.28125 44.578125 
Q 40.484375 46.53125 36.375 47.5 
Q 32.28125 48.484375 27.875 48.484375 
Q 21.1875 48.484375 17.84375 46.4375 
Q 14.5 44.390625 14.5 40.28125 
Q 14.5 37.15625 16.890625 35.375 
Q 19.28125 33.59375 26.515625 31.984375 
L 29.59375 31.296875 
Q 39.15625 29.25 43.1875 25.515625 
Q 47.21875 21.78125 47.21875 15.09375 
Q 47.21875 7.46875 41.1875 3.015625 
Q 35.15625 -1.421875 24.609375 -1.421875 
Q 20.21875 -1.421875 15.453125 -0.5625 
Q 10.6875 0.296875 5.421875 2 
L 5.421875 11.28125 
Q 10.40625 8.6875 15.234375 7.390625 
Q 20.0625 6.109375 24.8125 6.109375 
Q 31.15625 6.109375 34.5625 8.28125 
Q 37.984375 10.453125 37.984375 14.40625 
Q 37.984375 18.0625 35.515625 20.015625 
Q 33.0625 21.96875 24.703125 23.78125 
L 21.578125 24.515625 
Q 13.234375 26.265625 9.515625 29.90625 
Q 5.8125 33.546875 5.8125 39.890625 
Q 5.8125 47.609375 11.28125 51.796875 
Q 16.75 56 26.8125 56 
Q 31.78125 56 36.171875 55.265625 
Q 40.578125 54.546875 44.28125 53.078125 
z
" id="DejaVuSans-73"/>
      <path d="M 8.015625 75.875 
L 15.828125 75.875 
Q 23.140625 64.359375 26.78125 53.3125 
Q 30.421875 42.28125 30.421875 31.390625 
Q 30.421875 20.453125 26.78125 9.375 
Q 23.140625 -1.703125 15.828125 -13.1875 
L 8.015625 -13.1875 
Q 14.5 -2 17.703125 9.0625 
Q 20.90625 20.125 20.90625 31.390625 
Q 20.90625 42.671875 17.703125 53.65625 
Q 14.5 64.65625 8.015625 75.875 
z
" id="DejaVuSans-29"/>
     </defs>
     <g transform="translate(227.693594 335.860562)scale(0.1 -0.1)">
      <use xlink:href="#DejaVuSans-74"/>
      <use x="39.208984" xlink:href="#DejaVuSans-28"/>
      <use x="78.222656" xlink:href="#DejaVuSans-73"/>
      <use x="130.322266" xlink:href="#DejaVuSans-29"/>
     </g>
    </g>
   </g>
   <g id="matplotlib.axis_2">
    <g id="ytick_1">
     <g id="line2d_8">
      <defs>
       <path d="M 0 0 
L -3.5 0 
" id="m56ff78f38a" style="stroke:#000000;stroke-width:0.8;"/>
      </defs>
      <g>
       <use style="stroke:#000000;stroke-width:0.8;" x="57.6" xlink:href="#m56ff78f38a" y="266.906734"/>
      </g>
     </g>
     <g id="text_9">
      <!-- 24.80 -->
      <defs>
       <path d="M 10.6875 12.40625 
L 21 12.40625 
L 21 0 
L 10.6875 0 
z
" id="DejaVuSans-2e"/>
       <path d="M 31.78125 34.625 
Q 24.75 34.625 20.71875 30.859375 
Q 16.703125 27.09375 16.703125 20.515625 
Q 16.703125 13.921875 20.71875 10.15625 
Q 24.75 6.390625 31.78125 6.390625 
Q 38.8125 6.390625 42.859375 10.171875 
Q 46.921875 13.96875 46.921875 20.515625 
Q 46.921875 27.09375 42.890625 30.859375 
Q 38.875 34.625 31.78125 34.625 
z
M 21.921875 38.8125 
Q 15.578125 40.375 12.03125 44.71875 
Q 8.5 49.078125 8.5 55.328125 
Q 8.5 64.0625 14.71875 69.140625 
Q 20.953125 74.21875 31.78125 74.21875 
Q 42.671875 74.21875 48.875 69.140625 
Q 55.078125 64.0625 55.078125 55.328125 
Q 55.078125 49.078125 51.53125 44.71875 
Q 48 40.375 41.703125 38.8125 
Q 48.828125 37.15625 52.796875 32.3125 
Q 56.78125 27.484375 56.78125 20.515625 
Q 56.78125 9.90625 50.3125 4.234375 
Q 43.84375 -1.421875 31.78125 -1.421875 
Q 19.734375 -1.421875 13.25 4.234375 
Q 6.78125 9.90625 6.78125 20.515625 
Q 6.78125 27.484375 10.78125 32.3125 
Q 14.796875 37.15625 21.921875 38.8125 
z
M 18.3125 54.390625 
Q 18.3125 48.734375 21.84375 45.5625 
Q 25.390625 42.390625 31.78125 42.390625 
Q 38.140625 42.390625 41.71875 45.5625 
Q 45.3125 48.734375 45.3125 54.390625 
Q 45.3125 60.0625 41.71875 63.234375 
Q 38.140625 66.40625 31.78125 66.40625 
Q 25.390625 66.40625 21.84375 63.234375 
Q 18.3125 60.0625 18.3125 54.390625 
z
" id="DejaVuSans-38"/>
      </defs>
      <g transform="translate(21.971875 270.705953)scale(0.1 -0.1)">
       <use xlink:href="#DejaVuSans-32"/>
       <use x="63.623047" xlink:href="#DejaVuSans-34"/>
       <use x="127.246094" xlink:href="#DejaVuSans-2e"/>
       <use x="159.033203" xlink:href="#DejaVuSans-38"/>
       <use x="222.65625" xlink:href="#DejaVuSans-30"/>
      </g>
     </g>
    </g>
    <g id="ytick_2">
     <g id="line2d_9">
      <g>
       <use style="stroke:#000000;stroke-width:0.8;" x="57.6" xlink:href="#m56ff78f38a" y="215.868759"/>
      </g>
     </g>
     <g id="text_10">
      <!-- 24.85 -->
      <g transform="translate(21.971875 219.667978)scale(0.1 -0.1)">
       <use xlink:href="#DejaVuSans-32"/>
       <use x="63.623047" xlink:href="#DejaVuSans-34"/>
       <use x="127.246094" xlink:href="#DejaVuSans-2e"/>
       <use x="159.033203" xlink:href="#DejaVuSans-38"/>
       <use x="222.65625" xlink:href="#DejaVuSans-35"/>
      </g>
     </g>
    </g>
    <g id="ytick_3">
     <g id="line2d_10">
      <g>
       <use style="stroke:#000000;stroke-width:0.8;" x="57.6" xlink:href="#m56ff78f38a" y="164.830785"/>
      </g>
     </g>
     <g id="text_11">
      <!-- 24.90 -->
      <defs>
       <path d="M 10.984375 1.515625 
L 10.984375 10.5 
Q 14.703125 8.734375 18.5 7.8125 
Q 22.3125 6.890625 25.984375 6.890625 
Q 35.75 6.890625 40.890625 13.453125 
Q 46.046875 20.015625 46.78125 33.40625 
Q 43.953125 29.203125 39.59375 26.953125 
Q 35.25 24.703125 29.984375 24.703125 
Q 19.046875 24.703125 12.671875 31.3125 
Q 6.296875 37.9375 6.296875 49.421875 
Q 6.296875 60.640625 12.9375 67.421875 
Q 19.578125 74.21875 30.609375 74.21875 
Q 43.265625 74.21875 49.921875 64.515625 
Q 56.59375 54.828125 56.59375 36.375 
Q 56.59375 19.140625 48.40625 8.859375 
Q 40.234375 -1.421875 26.421875 -1.421875 
Q 22.703125 -1.421875 18.890625 -0.6875 
Q 15.09375 0.046875 10.984375 1.515625 
z
M 30.609375 32.421875 
Q 37.25 32.421875 41.125 36.953125 
Q 45.015625 41.5 45.015625 49.421875 
Q 45.015625 57.28125 41.125 61.84375 
Q 37.25 66.40625 30.609375 66.40625 
Q 23.96875 66.40625 20.09375 61.84375 
Q 16.21875 57.28125 16.21875 49.421875 
Q 16.21875 41.5 20.09375 36.953125 
Q 23.96875 32.421875 30.609375 32.421875 
z
" id="DejaVuSans-39"/>
      </defs>
      <g transform="translate(21.971875 168.630004)scale(0.1 -0.1)">
       <use xlink:href="#DejaVuSans-32"/>
       <use x="63.623047" xlink:href="#DejaVuSans-34"/>
       <use x="127.246094" xlink:href="#DejaVuSans-2e"/>
       <use x="159.033203" xlink:href="#DejaVuSans-39"/>
       <use x="222.65625" xlink:href="#DejaVuSans-30"/>
      </g>
     </g>
    </g>
    <g id="ytick_4">
     <g id="line2d_11">
      <g>
       <use style="stroke:#000000;stroke-width:0.8;" x="57.6" xlink:href="#m56ff78f38a" y="113.79281"/>
      </g>
     </g>
     <g id="text_12">
      <!-- 24.95 -->
      <g transform="translate(21.971875 117.592029)scale(0.1 -0.1)">
       <use xlink:href="#DejaVuSans-32"/>
       <use x="63.623047" xlink:href="#DejaVuSans-34"/>
       <use x="127.246094" xlink:href="#DejaVuSans-2e"/>
       <use x="159.033203" xlink:href="#DejaVuSans-39"/>
       <use x="222.65625" xlink:href="#DejaVuSans-35"/>
      </g>
     </g>
    </g>
    <g id="ytick_5">
     <g id="line2d_12">
      <g>
       <use style="stroke:#000000;stroke-width:0.8;" x="57.6" xlink:href="#m56ff78f38a" y="62.754835"/>
      </g>
     </g>
     <g id="text_13">
      <!-- 25.00 -->
      <g transform="translate(21.971875 66.554054)scale(0.1 -0.1)">
       <use xlink:href="#DejaVuSans-32"/>
       <use x="63.623047" xlink:href="#DejaVuSans-35"/>
       <use x="127.246094" xlink:href="#DejaVuSans-2e"/>
       <use x="159.033203" xlink:href="#DejaVuSans-30"/>
       <use x="222.65625" xlink:href="#DejaVuSans-30"/>
      </g>
     </g>
    </g>
    <g id="text_14">
     <!-- Temperature (*C) -->
     <defs>
      <path d="M -0.296875 72.90625 
L 61.375 72.90625 
L 61.375 64.59375 
L 35.5 64.59375 
L 35.5 0 
L 25.59375 0 
L 25.59375 64.59375 
L -0.296875 64.59375 
z
" id="DejaVuSans-54"/>
      <path d="M 56.203125 29.59375 
L 56.203125 25.203125 
L 14.890625 25.203125 
Q 15.484375 15.921875 20.484375 11.0625 
Q 25.484375 6.203125 34.421875 6.203125 
Q 39.59375 6.203125 44.453125 7.46875 
Q 49.3125 8.734375 54.109375 11.28125 
L 54.109375 2.78125 
Q 49.265625 0.734375 44.1875 -0.34375 
Q 39.109375 -1.421875 33.890625 -1.421875 
Q 20.796875 -1.421875 13.15625 6.1875 
Q 5.515625 13.8125 5.515625 26.8125 
Q 5.515625 40.234375 12.765625 48.109375 
Q 20.015625 56 32.328125 56 
Q 43.359375 56 49.78125 48.890625 
Q 56.203125 41.796875 56.203125 29.59375 
z
M 47.21875 32.234375 
Q 47.125 39.59375 43.09375 43.984375 
Q 39.0625 48.390625 32.421875 48.390625 
Q 24.90625 48.390625 20.390625 44.140625 
Q 15.875 39.890625 15.1875 32.171875 
z
" id="DejaVuSans-65"/>
      <path d="M 52 44.1875 
Q 55.375 50.25 60.0625 53.125 
Q 64.75 56 71.09375 56 
Q 79.640625 56 84.28125 50.015625 
Q 88.921875 44.046875 88.921875 33.015625 
L 88.921875 0 
L 79.890625 0 
L 79.890625 32.71875 
Q 79.890625 40.578125 77.09375 44.375 
Q 74.3125 48.1875 68.609375 48.1875 
Q 61.625 48.1875 57.5625 43.546875 
Q 53.515625 38.921875 53.515625 30.90625 
L 53.515625 0 
L 44.484375 0 
L 44.484375 32.71875 
Q 44.484375 40.625 41.703125 44.40625 
Q 38.921875 48.1875 33.109375 48.1875 
Q 26.21875 48.1875 22.15625 43.53125 
Q 18.109375 38.875 18.109375 30.90625 
L 18.109375 0 
L 9.078125 0 
L 9.078125 54.6875 
L 18.109375 54.6875 
L 18.109375 46.1875 
Q 21.1875 51.21875 25.484375 53.609375 
Q 29.78125 56 35.6875 56 
Q 41.65625 56 45.828125 52.96875 
Q 50 49.953125 52 44.1875 
z
" id="DejaVuSans-6d"/>
      <path d="M 18.109375 8.203125 
L 18.109375 -20.796875 
L 9.078125 -20.796875 
L 9.078125 54.6875 
L 18.109375 54.6875 
L 18.109375 46.390625 
Q 20.953125 51.265625 25.265625 53.625 
Q 29.59375 56 35.59375 56 
Q 45.5625 56 51.78125 48.09375 
Q 58.015625 40.1875 58.015625 27.296875 
Q 58.015625 14.40625 51.78125 6.484375 
Q 45.5625 -1.421875 35.59375 -1.421875 
Q 29.59375 -1.421875 25.265625 0.953125 
Q 20.953125 3.328125 18.109375 8.203125 
z
M 48.6875 27.296875 
Q 48.6875 37.203125 44.609375 42.84375 
Q 40.53125 48.484375 33.40625 48.484375 
Q 26.265625 48.484375 22.1875 42.84375 
Q 18.109375 37.203125 18.109375 27.296875 
Q 18.109375 17.390625 22.1875 11.75 
Q 26.265625 6.109375 33.40625 6.109375 
Q 40.53125 6.109375 44.609375 11.75 
Q 48.6875 17.390625 48.6875 27.296875 
z
" id="DejaVuSans-70"/>
      <path d="M 41.109375 46.296875 
Q 39.59375 47.171875 37.8125 47.578125 
Q 36.03125 48 33.890625 48 
Q 26.265625 48 22.1875 43.046875 
Q 18.109375 38.09375 18.109375 28.8125 
L 18.109375 0 
L 9.078125 0 
L 9.078125 54.6875 
L 18.109375 54.6875 
L 18.109375 46.1875 
Q 20.953125 51.171875 25.484375 53.578125 
Q 30.03125 56 36.53125 56 
Q 37.453125 56 38.578125 55.875 
Q 39.703125 55.765625 41.0625 55.515625 
z
" id="DejaVuSans-72"/>
      <path d="M 34.28125 27.484375 
Q 23.390625 27.484375 19.1875 25 
Q 14.984375 22.515625 14.984375 16.5 
Q 14.984375 11.71875 18.140625 8.90625 
Q 21.296875 6.109375 26.703125 6.109375 
Q 34.1875 6.109375 38.703125 11.40625 
Q 43.21875 16.703125 43.21875 25.484375 
L 43.21875 27.484375 
z
M 52.203125 31.203125 
L 52.203125 0 
L 43.21875 0 
L 43.21875 8.296875 
Q 40.140625 3.328125 35.546875 0.953125 
Q 30.953125 -1.421875 24.3125 -1.421875 
Q 15.921875 -1.421875 10.953125 3.296875 
Q 6 8.015625 6 15.921875 
Q 6 25.140625 12.171875 29.828125 
Q 18.359375 34.515625 30.609375 34.515625 
L 43.21875 34.515625 
L 43.21875 35.40625 
Q 43.21875 41.609375 39.140625 45 
Q 35.0625 48.390625 27.6875 48.390625 
Q 23 48.390625 18.546875 47.265625 
Q 14.109375 46.140625 10.015625 43.890625 
L 10.015625 52.203125 
Q 14.9375 54.109375 19.578125 55.046875 
Q 24.21875 56 28.609375 56 
Q 40.484375 56 46.34375 49.84375 
Q 52.203125 43.703125 52.203125 31.203125 
z
" id="DejaVuSans-61"/>
      <path d="M 8.5 21.578125 
L 8.5 54.6875 
L 17.484375 54.6875 
L 17.484375 21.921875 
Q 17.484375 14.15625 20.5 10.265625 
Q 23.53125 6.390625 29.59375 6.390625 
Q 36.859375 6.390625 41.078125 11.03125 
Q 45.3125 15.671875 45.3125 23.6875 
L 45.3125 54.6875 
L 54.296875 54.6875 
L 54.296875 0 
L 45.3125 0 
L 45.3125 8.40625 
Q 42.046875 3.421875 37.71875 1 
Q 33.40625 -1.421875 27.6875 -1.421875 
Q 18.265625 -1.421875 13.375 4.4375 
Q 8.5 10.296875 8.5 21.578125 
z
M 31.109375 56 
z
" id="DejaVuSans-75"/>
      <path id="DejaVuSans-20"/>
      <path d="M 47.015625 60.890625 
L 29.5 51.421875 
L 47.015625 41.890625 
L 44.1875 37.109375 
L 27.78125 47.015625 
L 27.78125 28.609375 
L 22.21875 28.609375 
L 22.21875 47.015625 
L 5.8125 37.109375 
L 2.984375 41.890625 
L 20.515625 51.421875 
L 2.984375 60.890625 
L 5.8125 65.71875 
L 22.21875 55.8125 
L 22.21875 74.21875 
L 27.78125 74.21875 
L 27.78125 55.8125 
L 44.1875 65.71875 
z
" id="DejaVuSans-2a"/>
      <path d="M 64.40625 67.28125 
L 64.40625 56.890625 
Q 59.421875 61.53125 53.78125 63.8125 
Q 48.140625 66.109375 41.796875 66.109375 
Q 29.296875 66.109375 22.65625 58.46875 
Q 16.015625 50.828125 16.015625 36.375 
Q 16.015625 21.96875 22.65625 14.328125 
Q 29.296875 6.6875 41.796875 6.6875 
Q 48.140625 6.6875 53.78125 8.984375 
Q 59.421875 11.28125 64.40625 15.921875 
L 64.40625 5.609375 
Q 59.234375 2.09375 53.4375 0.328125 
Q 47.65625 -1.421875 41.21875 -1.421875 
Q 24.65625 -1.421875 15.125 8.703125 
Q 5.609375 18.84375 5.609375 36.375 
Q 5.609375 53.953125 15.125 64.078125 
Q 24.65625 74.21875 41.21875 74.21875 
Q 47.75 74.21875 53.53125 72.484375 
Q 59.328125 70.75 64.40625 67.28125 
z
" id="DejaVuSans-43"/>
     </defs>
     <g transform="translate(15.892187 218.627219)rotate(-90)scale(0.1 -0.1)">
      <use xlink:href="#DejaVuSans-54"/>
      <use x="60.818359" xlink:href="#DejaVuSans-65"/>
      <use x="122.341797" xlink:href="#DejaVuSans-6d"/>
      <use x="219.753906" xlink:href="#DejaVuSans-70"/>
      <use x="283.230469" xlink:href="#DejaVuSans-65"/>
      <use x="344.753906" xlink:href="#DejaVuSans-72"/>
      <use x="385.867188" xlink:href="#DejaVuSans-61"/>
      <use x="447.146484" xlink:href="#DejaVuSans-74"/>
      <use x="486.355469" xlink:href="#DejaVuSans-75"/>
      <use x="549.734375" xlink:href="#DejaVuSans-72"/>
      <use x="590.816406" xlink:href="#DejaVuSans-65"/>
      <use x="652.339844" xlink:href="#DejaVuSans-20"/>
      <use x="684.126953" xlink:href="#DejaVuSans-28"/>
      <use x="723.140625" xlink:href="#DejaVuSans-2a"/>
      <use x="773.140625" xlink:href="#DejaVuSans-43"/>
      <use x="842.964844" xlink:href="#DejaVuSans-29"/>
     </g>
    </g>
   </g>
   <g id="line2d_13">
    <path clip-path="url(#p3ef0b2dd45)" d="M 73.832727 62.754835 
L 398.487273 62.754835 
L 398.487273 62.754835 
" style="fill:none;stroke:#1f77b4;stroke-linecap:square;stroke-width:1.5;"/>
   </g>
   <g id="line2d_14">
    <path clip-path="url(#p3ef0b2dd45)" d="M 73.832727 142.374076 
L 75.027118 257.719899 
L 75.35291 276.09357 
L 75.896799 292.425722 
L 76.005035 291.404962 
L 76.113813 295.488 
L 76.331369 294.467241 
L 76.548924 295.488 
L 76.657161 292.425722 
L 76.765939 294.467241 
L 77.309827 289.363443 
L 77.418064 292.425722 
L 77.526842 289.363443 
L 77.63562 290.384203 
L 77.853175 289.363443 
L 77.961953 289.363443 
L 78.395982 286.301165 
L 78.504759 289.363443 
L 78.613537 287.321924 
L 78.721774 289.363443 
L 78.83001 288.342684 
L 78.938788 290.384203 
L 79.047566 289.363443 
L 79.156344 286.301165 
L 79.265121 287.321924 
L 79.481594 286.301165 
L 79.69915 289.363443 
L 79.916706 286.301165 
L 80.025483 289.363443 
L 80.13372 288.342684 
L 80.351275 285.280405 
L 80.568831 289.363443 
L 80.677609 288.342684 
L 80.785845 285.280405 
L 80.894082 287.321924 
L 81.111637 285.280405 
L 81.43743 287.321924 
L 81.654444 285.280405 
L 81.763222 287.321924 
L 82.089555 282.218127 
L 82.197792 285.280405 
L 82.415347 284.259646 
L 82.524125 284.259646 
L 82.632903 282.218127 
L 82.74168 283.238886 
L 82.958695 282.218127 
L 83.067473 282.218127 
L 83.17625 283.238886 
L 83.393806 282.218127 
L 83.502042 282.218127 
L 83.61082 283.238886 
L 83.937153 281.197367 
L 84.045931 282.218127 
L 84.154709 280.176608 
L 84.262946 282.218127 
L 84.480501 279.155848 
L 84.589279 278.135089 
L 84.698057 281.197367 
L 85.132626 277.114329 
L 85.241404 278.135089 
L 85.350182 277.114329 
L 85.567738 280.176608 
L 85.675974 279.155848 
L 85.784752 276.09357 
L 86.111085 278.135089 
L 86.219863 278.135089 
L 86.328099 277.114329 
L 86.436336 278.135089 
L 86.871447 275.07281 
L 87.414254 275.07281 
L 87.631268 273.031291 
L 87.848282 273.031291 
L 87.95706 276.09357 
L 88.609186 269.969013 
L 88.717963 273.031291 
L 88.826741 269.969013 
L 88.935519 272.010532 
L 89.043755 269.969013 
L 89.152533 272.010532 
L 89.370089 269.969013 
L 89.587644 269.969013 
L 89.696422 268.948253 
L 89.804659 269.969013 
L 90.130992 267.927494 
L 90.348547 268.948253 
L 90.456784 268.948253 
L 90.565562 266.906734 
L 90.783117 267.927494 
L 90.891895 266.906734 
L 91.108909 268.948253 
L 91.217146 267.927494 
L 91.434701 264.865215 
L 91.543479 267.927494 
L 91.652257 266.906734 
L 91.86873 263.844456 
L 91.977508 262.823696 
L 92.086286 264.865215 
L 92.520314 261.802937 
L 92.73787 261.802937 
L 92.846648 264.865215 
L 92.955425 259.761418 
L 93.064203 260.782177 
L 93.17244 263.844456 
L 93.281218 259.761418 
L 93.389995 261.802937 
L 93.498773 258.740658 
L 93.607551 261.802937 
L 93.716329 259.761418 
L 93.932802 261.802937 
L 94.150357 256.699139 
L 94.259135 260.782177 
L 94.367913 257.719899 
L 94.476149 259.761418 
L 94.584386 258.740658 
L 94.693164 259.761418 
L 94.801941 257.719899 
L 94.910719 258.740658 
L 95.345289 255.67838 
L 95.562845 255.67838 
L 95.7804 252.616101 
L 95.888637 255.67838 
L 96.106192 251.595342 
L 96.21497 255.67838 
L 96.323748 252.616101 
L 96.432526 255.67838 
L 96.64954 252.616101 
L 96.758318 253.636861 
L 96.867095 250.574582 
L 97.193429 252.616101 
L 97.301665 249.553823 
L 97.410443 251.595342 
L 97.627999 249.553823 
L 97.736776 251.595342 
L 97.845554 249.553823 
L 97.953791 250.574582 
L 98.280124 247.512304 
L 98.388902 249.553823 
L 98.606457 247.512304 
L 98.932249 245.470785 
L 99.041027 247.512304 
L 99.475056 244.450025 
L 99.692612 244.450025 
L 99.801389 245.470785 
L 99.910167 242.408506 
L 100.018404 245.470785 
L 100.12664 242.408506 
L 100.235418 245.470785 
L 100.452974 243.429266 
L 100.561751 243.429266 
L 100.778765 241.387747 
L 100.887543 241.387747 
L 100.996321 242.408506 
L 101.105099 239.346228 
L 101.322654 241.387747 
L 101.430891 241.387747 
L 101.539128 240.366987 
L 101.647905 242.408506 
L 101.865461 237.304709 
L 102.082475 239.346228 
L 102.190712 239.346228 
L 102.408267 237.304709 
L 102.625823 237.304709 
L 102.842296 235.26319 
L 103.059852 237.304709 
L 103.277407 235.26319 
L 103.386185 234.24243 
L 103.603199 235.26319 
L 103.711977 234.24243 
L 103.929533 235.26319 
L 104.03831 233.221671 
L 104.146547 234.24243 
L 104.255325 232.200911 
L 104.47288 234.24243 
L 105.016228 230.159392 
L 105.125006 231.180152 
L 105.233783 230.159392 
L 105.342561 232.200911 
L 105.668353 227.097114 
L 105.994687 229.138633 
L 106.211701 227.097114 
L 106.319937 228.117873 
L 106.428715 225.055595 
L 106.646271 227.097114 
L 106.755048 227.097114 
L 106.971522 226.076354 
L 107.080299 227.097114 
L 107.189077 224.034835 
L 107.297855 226.076354 
L 107.731884 223.014076 
L 108.058217 223.014076 
L 108.166995 220.972557 
L 108.384009 223.014076 
L 108.492787 219.951797 
L 108.710342 223.014076 
L 108.81912 221.993316 
L 109.035593 218.931038 
L 109.144371 221.993316 
L 109.470704 216.889519 
L 109.578941 217.910278 
L 109.687177 216.889519 
L 109.904733 218.931038 
L 110.122289 216.889519 
L 110.339303 217.910278 
L 110.448081 217.910278 
L 110.556858 214.848 
L 110.665636 216.889519 
L 110.774414 213.827241 
L 110.883192 215.868759 
L 111.208984 213.827241 
L 111.317762 214.848 
L 111.535317 212.806481 
L 111.643554 214.848 
L 111.752331 209.744203 
L 111.861109 212.806481 
L 111.969887 210.764962 
L 112.078665 212.806481 
L 112.29622 210.764962 
L 112.404457 212.806481 
L 112.513235 210.764962 
L 112.622012 212.806481 
L 112.948346 208.723443 
L 113.274138 208.723443 
L 113.382916 209.744203 
L 113.600471 206.681924 
L 113.817485 207.702684 
L 113.926263 205.661165 
L 114.035041 207.702684 
L 114.252597 205.661165 
L 114.469611 205.661165 
L 114.686625 203.619646 
L 114.795403 207.702684 
L 114.904181 202.598886 
L 115.012958 205.661165 
L 115.121195 201.578127 
L 115.446987 203.619646 
L 115.555765 200.557367 
L 115.772779 203.619646 
L 115.989794 200.557367 
L 116.207349 200.557367 
L 116.316127 198.515848 
L 116.533141 200.557367 
L 116.641919 198.515848 
L 116.750697 201.578127 
L 116.968252 198.515848 
L 117.185267 200.557367 
L 117.402822 197.495089 
L 117.729156 195.45357 
L 117.837933 197.495089 
L 117.94617 195.45357 
L 118.054948 196.474329 
L 118.381281 194.43281 
L 118.490059 196.474329 
L 119.033406 190.349772 
L 119.142184 191.370532 
L 119.358657 193.412051 
L 119.576213 192.391291 
L 119.902005 192.391291 
L 120.010241 188.308253 
L 120.119019 191.370532 
L 120.336575 190.349772 
L 120.553589 191.370532 
L 120.661826 191.370532 
L 120.770603 187.287494 
L 120.879381 189.329013 
L 121.096937 187.287494 
L 121.205715 188.308253 
L 121.422729 187.287494 
L 121.531507 188.308253 
L 121.966076 184.225215 
L 122.183091 185.245975 
L 122.291869 185.245975 
L 122.509424 183.204456 
L 122.617661 186.266734 
L 122.943453 180.142177 
L 123.052231 183.204456 
L 123.269786 181.162937 
L 123.378023 180.142177 
L 123.595578 183.204456 
L 123.813134 180.142177 
L 124.030148 182.183696 
L 124.138926 179.121418 
L 124.356481 181.162937 
L 124.465259 180.142177 
L 124.574037 177.079899 
L 124.682815 180.142177 
L 124.899829 177.079899 
L 125.008607 180.142177 
L 125.226162 178.100658 
L 125.33494 177.079899 
L 125.443177 179.121418 
L 125.878288 176.059139 
L 125.987065 176.059139 
L 126.095302 175.03838 
L 126.20408 176.059139 
L 126.312858 172.996861 
L 126.421635 176.059139 
L 126.747969 171.976101 
L 126.964983 176.059139 
L 127.073761 172.996861 
L 127.182539 175.03838 
L 127.400094 171.976101 
L 127.508331 172.996861 
L 127.725345 170.955342 
L 127.942901 171.976101 
L 128.051678 169.934582 
L 128.159915 171.976101 
L 128.268151 169.934582 
L 128.376929 171.976101 
L 128.594485 168.913823 
L 128.703263 170.955342 
L 128.920277 168.913823 
L 129.029055 167.893063 
L 129.24661 168.913823 
L 129.355388 165.851544 
L 129.572402 168.913823 
L 129.789417 165.851544 
L 130.11575 167.893063 
L 130.223987 163.810025 
L 130.332223 166.872304 
L 130.441001 164.830785 
L 130.658556 168.913823 
L 130.875571 162.789266 
L 130.983807 165.851544 
L 131.092585 162.789266 
L 131.310141 165.851544 
L 131.527696 162.789266 
L 131.635933 163.810025 
L 132.071044 160.747747 
L 132.179821 161.768506 
L 132.396836 159.726987 
L 132.505614 160.747747 
L 132.614391 159.726987 
L 132.723169 160.747747 
L 132.831947 158.706228 
L 132.940183 159.726987 
L 133.048961 158.706228 
L 133.157739 159.726987 
L 133.266517 158.706228 
L 133.375295 155.643949 
L 133.484072 158.706228 
L 133.701087 155.643949 
L 133.918642 159.726987 
L 134.02742 157.685468 
L 134.136198 159.726987 
L 134.461449 155.643949 
L 134.570226 155.643949 
L 134.679004 154.62319 
L 134.89656 155.643949 
L 135.330589 152.581671 
L 135.656381 154.62319 
L 135.764617 152.581671 
L 135.873395 153.60243 
L 135.982173 149.519392 
L 136.090951 152.581671 
L 136.308506 149.519392 
L 136.416742 152.581671 
L 136.52552 151.560911 
L 136.634298 153.60243 
L 136.743076 150.540152 
L 136.851854 152.581671 
L 137.068868 149.519392 
L 137.177105 150.540152 
L 137.285882 147.477873 
L 137.503438 149.519392 
L 137.720452 147.477873 
L 137.828689 149.519392 
L 137.937467 147.477873 
L 138.046244 148.498633 
L 138.155022 145.436354 
L 138.372578 148.498633 
L 138.480814 147.477873 
L 138.589592 148.498633 
L 138.915925 145.436354 
L 139.024703 147.477873 
L 139.350495 144.415595 
L 139.459273 147.477873 
L 139.568051 143.394835 
L 139.785065 145.436354 
L 140.111398 145.436354 
L 140.220176 143.394835 
L 140.328954 145.436354 
L 140.545968 142.374076 
L 140.763524 143.394835 
L 140.981079 140.332557 
L 141.089857 143.394835 
L 141.306871 140.332557 
L 141.415649 142.374076 
L 141.633205 140.332557 
L 141.85076 141.353316 
L 141.958997 141.353316 
L 142.067775 138.291038 
L 142.176552 141.353316 
L 142.28533 139.311797 
L 142.394108 141.353316 
L 142.502886 139.311797 
L 142.611122 141.353316 
L 142.828136 137.270278 
L 143.15447 139.311797 
L 143.262706 139.311797 
L 143.370943 137.270278 
L 143.479721 138.291038 
L 143.588498 135.228759 
L 143.806054 136.249519 
L 144.022527 135.228759 
L 144.131305 137.270278 
L 144.240083 134.208 
L 144.348861 135.228759 
L 144.457638 134.208 
L 144.566416 136.249519 
L 144.674653 134.208 
L 144.78343 137.270278 
L 145.000986 134.208 
L 145.109764 135.228759 
L 145.218541 136.249519 
L 145.326778 133.187241 
L 145.544334 135.228759 
L 145.761889 132.166481 
L 145.870667 132.166481 
L 145.979445 134.208 
L 146.196459 132.166481 
L 146.522792 132.166481 
L 146.63157 133.187241 
L 146.739807 130.124962 
L 146.957362 132.166481 
L 147.391932 129.104203 
L 147.500169 130.124962 
L 147.608946 127.062684 
L 147.93528 130.124962 
L 148.043516 127.062684 
L 148.151753 130.124962 
L 148.369308 128.083443 
L 148.478086 128.083443 
L 148.586864 126.041924 
L 148.6951 128.083443 
L 148.912115 126.041924 
L 149.12967 128.083443 
L 149.238448 126.041924 
L 149.455462 127.062684 
L 149.56424 127.062684 
L 149.673018 124.000405 
L 149.999351 127.062684 
L 150.215824 122.979646 
L 150.542158 125.021165 
L 150.650935 125.021165 
L 150.759172 124.000405 
L 150.867409 125.021165 
L 151.084964 122.979646 
L 151.193742 125.021165 
L 151.519534 122.979646 
L 151.628312 122.979646 
L 151.954645 120.938127 
L 152.063423 121.958886 
L 152.171659 120.938127 
L 152.389215 122.979646 
L 152.606771 120.938127 
L 152.824326 119.917367 
L 152.932563 119.917367 
L 153.150118 118.896608 
L 153.367674 121.958886 
L 153.476451 120.938127 
L 153.584688 118.896608 
L 153.693466 120.938127 
L 154.236813 116.855089 
L 154.345591 117.875848 
L 154.563147 116.855089 
L 154.671924 116.855089 
L 154.780702 119.917367 
L 154.88948 116.855089 
L 154.997717 117.875848 
L 155.106494 115.834329 
L 155.215272 118.896608 
L 155.32405 113.79281 
L 155.432828 116.855089 
L 155.541605 114.81357 
L 155.758079 116.855089 
L 155.866856 115.834329 
L 155.975634 116.855089 
L 156.19319 113.79281 
L 156.301426 113.79281 
L 156.518441 114.81357 
L 156.627218 114.81357 
L 156.735996 115.834329 
L 156.953552 110.730532 
L 157.061788 111.751291 
L 157.170566 114.81357 
L 157.496899 110.730532 
L 157.605677 111.751291 
L 157.82215 112.772051 
L 157.930928 111.751291 
L 158.039706 112.772051 
L 158.148484 110.730532 
L 158.365498 113.79281 
L 158.582512 108.689013 
L 158.908845 112.772051 
L 159.017082 112.772051 
L 159.342874 107.668253 
L 159.451652 108.689013 
L 159.56043 111.751291 
L 159.777444 108.689013 
L 159.886222 110.730532 
L 160.103777 108.689013 
L 160.212555 109.709772 
L 160.429569 108.689013 
L 160.538347 109.709772 
L 160.864681 106.647494 
L 160.973458 108.689013 
L 161.29925 106.647494 
L 161.408028 107.668253 
L 161.516806 106.647494 
L 161.625584 108.689013 
L 161.734361 104.605975 
L 161.951376 106.647494 
L 162.060154 106.647494 
L 162.168931 107.668253 
L 162.277709 106.647494 
L 162.386487 108.689013 
L 162.60296 105.626734 
L 162.711738 105.626734 
L 162.820516 106.647494 
L 162.929293 103.585215 
L 163.038071 106.647494 
L 163.146308 103.585215 
L 163.363322 106.647494 
L 163.580878 104.605975 
L 163.689655 103.585215 
L 163.906128 104.605975 
L 164.123684 101.543696 
L 164.232462 102.564456 
L 164.34124 101.543696 
L 164.558254 104.605975 
L 164.667032 100.522937 
L 164.775809 102.564456 
L 164.993365 100.522937 
L 165.102143 101.543696 
L 165.210379 100.522937 
L 165.536171 104.605975 
L 165.644949 102.564456 
L 165.753727 103.585215 
L 165.9702 100.522937 
L 166.078978 102.564456 
L 166.187756 98.481418 
L 166.405311 101.543696 
L 166.514089 98.481418 
L 166.731103 100.522937 
L 166.948659 98.481418 
L 167.057437 99.502177 
L 167.166214 102.564456 
L 167.383229 99.502177 
L 167.492007 98.481418 
L 167.600784 99.502177 
L 167.709562 96.439899 
L 167.926576 100.522937 
L 168.144132 99.502177 
L 168.25291 99.502177 
L 168.361687 96.439899 
L 168.470465 99.502177 
L 168.579243 94.39838 
L 168.905035 98.481418 
L 169.122591 96.439899 
L 169.231368 99.502177 
L 169.448383 96.439899 
L 169.774716 96.439899 
L 169.883494 95.419139 
L 169.992271 96.439899 
L 170.209286 94.39838 
L 170.318064 94.39838 
L 170.426841 92.356861 
L 170.644397 96.439899 
L 170.752633 93.37762 
L 170.86087 96.439899 
L 170.969648 93.37762 
L 171.078426 95.419139 
L 171.187203 93.37762 
L 171.295981 95.419139 
L 171.621232 93.37762 
L 171.73001 95.419139 
L 171.947565 93.37762 
L 172.055802 94.39838 
L 172.272816 92.356861 
L 172.381594 93.37762 
L 172.490372 91.336101 
L 172.707927 94.39838 
L 172.816164 90.315342 
L 173.03372 94.39838 
L 173.251275 92.356861 
L 173.360053 93.37762 
L 173.685845 91.336101 
L 173.794623 91.336101 
L 173.9034 92.356861 
L 174.229192 90.315342 
L 174.446748 90.315342 
L 174.555526 92.356861 
L 174.664304 91.336101 
L 174.773081 92.356861 
L 174.881318 91.336101 
L 175.098873 92.356861 
L 175.316429 89.294582 
L 175.425207 89.294582 
L 175.533443 91.336101 
L 175.750458 88.273823 
L 176.185027 91.336101 
L 176.51082 88.273823 
L 176.619597 90.315342 
L 177.053626 87.253063 
L 177.162404 89.294582 
L 177.271182 88.273823 
L 177.379959 89.294582 
L 177.488737 88.273823 
L 177.596974 85.211544 
L 177.814529 88.273823 
L 178.249099 88.273823 
L 178.357336 85.211544 
L 178.574891 87.253063 
L 178.900683 85.211544 
L 179.00892 87.253063 
L 179.117698 86.232304 
L 179.226475 87.253063 
L 179.444031 86.232304 
L 179.552809 87.253063 
L 179.769823 85.211544 
L 179.878601 87.253063 
L 180.204934 84.190785 
L 180.313171 85.211544 
L 180.421949 84.190785 
L 180.639504 86.232304 
L 180.85706 83.170025 
L 181.074074 84.190785 
L 181.291629 83.170025 
L 181.400407 84.190785 
L 181.509185 82.149266 
L 181.726199 84.190785 
L 181.834977 84.190785 
L 181.943755 86.232304 
L 182.160769 84.190785 
L 182.269547 84.190785 
L 182.377784 83.170025 
L 182.595339 86.232304 
L 182.704117 82.149266 
L 182.812895 83.170025 
L 182.921672 82.149266 
L 183.029909 84.190785 
L 183.138146 81.128506 
L 183.246923 85.211544 
L 183.355701 84.190785 
L 183.464479 81.128506 
L 183.573257 83.170025 
L 183.78973 81.128506 
L 183.898508 84.190785 
L 184.333619 80.107747 
L 184.441855 82.149266 
L 184.550633 81.128506 
L 184.876966 83.170025 
L 184.985744 80.107747 
L 185.093981 82.149266 
L 185.202217 81.128506 
L 185.310995 82.149266 
L 185.528551 80.107747 
L 185.637328 81.128506 
L 185.853801 80.107747 
L 185.962579 81.128506 
L 186.071357 78.066228 
L 186.180135 82.149266 
L 186.397149 80.107747 
L 186.614163 82.149266 
L 186.722941 81.128506 
L 186.940497 78.066228 
L 187.049274 80.107747 
L 187.266289 78.066228 
L 187.375067 80.107747 
L 187.592622 78.066228 
L 187.7014 78.066228 
L 187.809636 79.086987 
L 187.918414 78.066228 
L 188.13597 81.128506 
L 188.244748 77.045468 
L 188.353525 80.107747 
L 188.679317 77.045468 
L 188.788095 80.107747 
L 189.005651 77.045468 
L 189.331443 79.086987 
L 189.440221 79.086987 
L 189.657776 77.045468 
L 189.87479 77.045468 
L 189.983027 78.066228 
L 190.091805 76.024709 
L 190.200583 77.045468 
L 190.418138 76.024709 
L 190.634611 79.086987 
L 190.743389 76.024709 
L 190.960945 78.066228 
L 191.177959 75.003949 
L 191.286195 78.066228 
L 191.394973 77.045468 
L 191.503751 73.98319 
L 191.721307 75.003949 
L 191.830084 75.003949 
L 191.938321 78.066228 
L 192.047099 76.024709 
L 192.264654 77.045468 
L 192.373432 76.024709 
L 192.590446 78.066228 
L 192.698683 73.98319 
L 192.916238 77.045468 
L 193.025016 73.98319 
L 193.24203 77.045468 
L 193.459045 72.96243 
L 193.6766 76.024709 
L 193.894156 72.96243 
L 194.219948 75.003949 
L 194.437504 71.941671 
L 194.546281 75.003949 
L 194.980851 71.941671 
L 195.089629 73.98319 
L 195.307184 71.941671 
L 195.415421 73.98319 
L 195.524199 71.941671 
L 195.632977 73.98319 
L 195.741754 71.941671 
L 195.850532 73.98319 
L 195.95931 71.941671 
L 196.067546 75.003949 
L 196.176324 71.941671 
L 196.502658 75.003949 
L 196.611435 72.96243 
L 196.82845 73.98319 
L 197.046005 71.941671 
L 197.154783 72.96243 
L 197.372338 71.941671 
L 197.480575 71.941671 
L 197.698131 70.920911 
L 197.806908 71.941671 
L 198.024464 69.900152 
L 198.240937 71.941671 
L 198.458493 69.900152 
L 198.56727 71.941671 
L 198.676048 68.879392 
L 198.784285 70.920911 
L 198.892521 69.900152 
L 199.001299 71.941671 
L 199.110077 69.900152 
L 199.218855 71.941671 
L 199.327632 69.900152 
L 199.43641 72.96243 
L 199.544647 71.941671 
L 199.653424 72.96243 
L 199.87098 69.900152 
L 199.979758 71.941671 
L 200.088535 69.900152 
L 200.196772 71.941671 
L 200.305009 70.920911 
L 200.413786 71.941671 
L 200.74012 69.900152 
L 200.956593 69.900152 
L 201.065371 68.879392 
L 201.391704 71.941671 
L 201.716955 69.900152 
L 201.93451 71.941671 
L 202.043288 69.900152 
L 202.152066 71.941671 
L 202.477858 69.900152 
L 202.586636 70.920911 
L 202.695414 67.858633 
L 202.912428 69.900152 
L 203.021206 69.900152 
L 203.129984 67.858633 
L 203.238761 68.879392 
L 203.456317 67.858633 
L 203.782109 67.858633 
L 203.890887 69.900152 
L 203.999664 67.858633 
L 204.325456 69.900152 
L 204.434234 67.858633 
L 204.543012 69.900152 
L 204.65179 67.858633 
L 204.869345 69.900152 
L 204.977582 69.900152 
L 205.085818 67.858633 
L 205.194596 69.900152 
L 205.412152 66.837873 
L 205.629166 67.858633 
L 205.84618 67.858633 
L 205.954958 68.879392 
L 206.063736 67.858633 
L 206.388987 69.900152 
L 206.497765 69.900152 
L 206.824098 65.817114 
L 206.932876 69.900152 
L 207.14989 67.858633 
L 207.367446 66.837873 
L 207.476223 67.858633 
L 207.585001 65.817114 
L 207.801474 68.879392 
L 207.910252 65.817114 
L 208.01903 67.858633 
L 208.127808 64.796354 
L 208.236585 68.879392 
L 208.453059 63.775595 
L 208.561836 64.796354 
L 208.670614 68.879392 
L 209.105184 64.796354 
L 209.213962 68.879392 
L 209.322739 65.817114 
L 209.431517 67.858633 
L 209.649073 64.796354 
L 209.757309 66.837873 
L 209.866087 64.796354 
L 209.974865 66.837873 
L 210.083643 65.817114 
L 210.19242 67.858633 
L 210.301198 66.837873 
L 210.409435 67.858633 
L 210.62699 63.775595 
L 210.735768 65.817114 
L 210.844546 64.796354 
L 211.062101 66.837873 
L 211.170338 66.837873 
L 211.387893 62.754835 
L 211.496671 66.837873 
L 211.714227 65.817114 
L 212.040019 65.817114 
L 212.257574 63.775595 
L 212.366352 65.817114 
L 212.583367 63.775595 
L 213.018478 66.837873 
L 213.127255 63.775595 
L 213.235492 66.837873 
L 213.452506 63.775595 
L 213.670062 65.817114 
L 213.887076 63.775595 
L 213.995313 65.817114 
L 214.10409 63.775595 
L 214.212868 66.837873 
L 214.430424 62.754835 
L 214.53866 65.817114 
L 214.864452 62.754835 
L 214.97323 63.775595 
L 215.082008 62.754835 
L 215.190786 65.817114 
L 215.4078 63.775595 
L 215.516578 63.775595 
L 215.734133 61.734076 
L 215.842911 64.796354 
L 216.059926 62.754835 
L 216.386259 64.796354 
L 216.603814 62.754835 
L 216.820829 64.796354 
L 216.929606 62.754835 
L 217.147162 63.775595 
L 217.25594 61.734076 
L 217.364176 63.775595 
L 217.69051 61.734076 
L 217.908065 63.775595 
L 218.016302 64.796354 
L 218.124538 63.775595 
L 218.233316 64.796354 
L 218.450872 62.754835 
L 218.559649 63.775595 
L 218.8849 61.734076 
L 218.993678 63.775595 
L 219.211234 62.754835 
L 219.31947 62.754835 
L 219.427707 63.775595 
L 219.645262 61.734076 
L 219.862818 64.796354 
L 219.971596 63.775595 
L 220.079832 62.754835 
L 220.297388 64.796354 
L 220.406165 62.754835 
L 220.623721 63.775595 
L 220.840194 63.775595 
L 221.05775 61.734076 
L 221.166528 61.734076 
L 221.275305 60.713316 
L 221.491778 62.754835 
L 221.600556 60.713316 
L 221.709334 62.754835 
L 221.92689 59.692557 
L 222.143904 62.754835 
L 222.470237 62.754835 
L 222.579015 60.713316 
L 222.796029 62.754835 
L 222.904807 59.692557 
L 223.013585 63.775595 
L 223.122363 59.692557 
L 223.448696 61.734076 
L 223.66571 59.692557 
L 223.774488 59.692557 
L 223.992044 61.734076 
L 224.209058 59.692557 
L 224.426613 62.754835 
L 224.535391 62.754835 
L 224.644169 64.796354 
L 224.861183 60.713316 
L 225.078739 57.651038 
L 225.187517 59.692557 
L 225.296294 58.671797 
L 225.405072 62.754835 
L 225.51385 59.692557 
L 225.730864 61.734076 
L 225.839642 61.734076 
L 226.057198 59.692557 
L 226.165975 59.692557 
L 226.274212 61.734076 
L 226.491226 59.692557 
L 226.600004 59.692557 
L 226.708782 61.734076 
L 226.925796 59.692557 
L 227.034033 60.713316 
L 227.251588 59.692557 
L 227.360366 62.754835 
L 227.794936 59.692557 
L 228.012491 61.734076 
L 228.230047 60.713316 
L 228.44652 61.734076 
L 228.555298 59.692557 
L 228.664076 62.754835 
L 228.772853 58.671797 
L 228.881631 59.692557 
L 228.989868 57.651038 
L 229.206882 61.734076 
L 229.31566 59.692557 
L 229.533215 62.754835 
L 229.858466 58.671797 
L 230.076022 61.734076 
L 230.1848 60.713316 
L 230.293577 59.692557 
L 230.510592 61.734076 
L 230.619369 60.713316 
L 230.728147 61.734076 
L 230.836925 57.651038 
L 231.053939 61.734076 
L 231.380273 57.651038 
L 231.48905 61.734076 
L 231.597828 57.651038 
L 231.814842 59.692557 
L 232.032398 57.651038 
L 232.358731 59.692557 
L 232.466968 58.671797 
L 232.575746 61.734076 
L 232.684523 59.692557 
L 232.793301 61.734076 
L 233.119093 57.651038 
L 233.22733 58.671797 
L 233.336108 56.630278 
L 233.444885 60.713316 
L 233.662441 57.651038 
L 233.878914 59.692557 
L 233.987692 57.651038 
L 234.09647 58.671797 
L 234.205247 57.651038 
L 234.314025 58.671797 
L 234.422262 57.651038 
L 234.530498 58.671797 
L 234.639276 57.651038 
L 234.748054 60.713316 
L 234.856832 57.651038 
L 234.965609 61.734076 
L 235.074387 59.692557 
L 235.182624 60.713316 
L 235.291401 57.651038 
L 235.400179 59.692557 
L 235.617735 58.671797 
L 235.726512 59.692557 
L 235.942986 58.671797 
L 236.051763 60.713316 
L 236.269319 57.651038 
L 236.486333 61.734076 
L 236.59457 59.692557 
L 236.703348 60.713316 
L 237.029681 57.651038 
L 237.138459 60.713316 
L 237.355473 57.651038 
L 237.464251 59.692557 
L 237.573029 57.651038 
L 238.007598 61.734076 
L 238.116376 59.692557 
L 238.225154 60.713316 
L 238.442709 58.671797 
L 238.550946 59.692557 
L 238.659724 57.651038 
L 238.877279 58.671797 
L 238.986057 58.671797 
L 239.094835 61.734076 
L 239.203613 57.651038 
L 239.311849 59.692557 
L 239.529405 56.630278 
L 239.638183 58.671797 
L 239.74696 57.651038 
L 239.963975 59.692557 
L 240.18153 57.651038 
L 240.290308 57.651038 
L 240.399086 59.692557 
L 240.507864 57.651038 
L 240.833656 59.692557 
L 240.942433 59.692557 
L 241.051211 56.630278 
L 241.268767 58.671797 
L 241.377003 57.651038 
L 241.48524 58.671797 
L 241.811573 56.630278 
L 241.920351 59.692557 
L 242.245602 57.651038 
L 242.35438 59.692557 
L 242.463157 58.671797 
L 242.571935 59.692557 
L 242.680172 57.651038 
L 242.788408 59.692557 
L 242.897186 56.630278 
L 243.005964 58.671797 
L 243.114742 55.609519 
L 243.332297 59.692557 
L 243.440534 56.630278 
L 243.658089 59.692557 
L 243.984422 55.609519 
L 244.092659 58.671797 
L 244.201437 55.609519 
L 244.418992 57.651038 
L 244.52777 55.609519 
L 244.745326 58.671797 
L 244.96234 58.671797 
L 245.071118 55.609519 
L 245.288673 56.630278 
L 245.397451 55.609519 
L 245.505688 58.671797 
L 245.614465 56.630278 
L 245.832021 58.671797 
L 246.157813 56.630278 
L 246.374827 56.630278 
L 246.483605 58.671797 
L 246.701161 56.630278 
L 246.809397 57.651038 
L 247.135189 55.609519 
L 247.243967 56.630278 
L 247.352745 55.609519 
L 247.569218 57.651038 
L 247.677996 56.630278 
L 247.895551 58.671797 
L 248.004329 58.671797 
L 248.113107 54.588759 
L 248.330121 56.630278 
L 248.438899 56.630278 
L 248.547677 55.609519 
L 248.656455 59.692557 
L 248.765232 55.609519 
L 248.981706 57.651038 
L 249.090483 58.671797 
L 249.416817 56.630278 
L 249.63329 59.692557 
L 249.850845 55.609519 
L 249.959623 57.651038 
L 250.068401 55.609519 
L 250.177179 57.651038 
L 250.285415 56.630278 
L 250.502971 57.651038 
L 250.611748 57.651038 
L 250.720526 56.630278 
L 251.046318 59.692557 
L 251.155096 55.609519 
L 251.372652 57.651038 
L 251.481429 55.609519 
L 251.698444 57.651038 
L 251.915999 56.630278 
L 252.133555 59.692557 
L 252.350569 56.630278 
L 252.459347 59.692557 
L 252.568125 55.609519 
L 252.894458 58.671797 
L 253.111472 55.609519 
L 253.22025 57.651038 
L 253.329028 55.609519 
L 253.655361 58.671797 
L 253.872375 55.609519 
L 253.981153 56.630278 
L 254.198709 56.630278 
L 254.307486 55.609519 
L 254.52396 56.630278 
L 254.741515 55.609519 
L 254.959071 59.692557 
L 255.067307 55.609519 
L 255.175544 58.671797 
L 255.610655 54.588759 
L 255.827669 57.651038 
L 256.045225 55.609519 
L 256.26278 57.651038 
L 256.371558 54.588759 
L 256.479795 58.671797 
L 256.696809 53.568 
L 256.805587 57.651038 
L 256.914365 56.630278 
L 257.023142 58.671797 
L 257.131379 55.609519 
L 257.239616 56.630278 
L 257.348393 55.609519 
L 257.565949 56.630278 
L 257.674727 54.588759 
L 257.782963 56.630278 
L 257.8912 55.609519 
L 257.999978 57.651038 
L 258.108755 55.609519 
L 258.326311 57.651038 
L 258.543325 56.630278 
L 258.652103 56.630278 
L 258.978436 59.692557 
L 259.087214 56.630278 
L 259.195451 58.671797 
L 259.304228 55.609519 
L 259.413006 57.651038 
L 259.521784 56.630278 
L 259.630562 57.651038 
L 259.847576 55.609519 
L 259.956354 55.609519 
L 260.065132 56.630278 
L 260.391465 54.588759 
L 260.500243 54.588759 
L 260.717257 55.609519 
L 260.826035 54.588759 
L 260.934813 57.651038 
L 261.152368 56.630278 
L 261.260605 59.692557 
L 261.368841 55.609519 
L 261.803952 58.671797 
L 261.912189 55.609519 
L 262.237981 57.651038 
L 262.67201 57.651038 
L 262.889565 55.609519 
L 262.998343 55.609519 
L 263.107121 54.588759 
L 263.324135 57.651038 
L 263.432913 56.630278 
L 263.541691 54.588759 
L 263.650468 56.630278 
L 263.759246 54.588759 
L 263.97626 56.630278 
L 264.193275 56.630278 
L 264.41083 54.588759 
L 264.627845 57.651038 
L 264.736081 55.609519 
L 264.844859 57.651038 
L 265.062415 55.609519 
L 265.27997 54.588759 
L 265.388207 55.609519 
L 265.496984 58.671797 
L 265.71454 57.651038 
L 265.823318 58.671797 
L 266.257888 55.609519 
L 266.366665 55.609519 
L 266.475443 57.651038 
L 266.692457 55.609519 
L 266.801235 57.651038 
L 267.018791 54.588759 
L 267.236346 57.651038 
L 267.453361 57.651038 
L 267.670916 55.609519 
L 267.779694 58.671797 
L 268.323042 53.568 
L 268.540597 56.630278 
L 268.649375 53.568 
L 268.758153 57.651038 
L 268.866389 55.609519 
L 269.083945 56.630278 
L 269.192722 56.630278 
L 269.410278 55.609519 
L 269.518515 58.671797 
L 269.844307 55.609519 
L 270.061862 57.651038 
L 270.170099 55.609519 
L 270.278335 56.630278 
L 270.604669 54.588759 
L 270.713446 56.630278 
L 270.821683 53.568 
L 270.92992 57.651038 
L 271.256253 53.568 
L 271.473808 57.651038 
L 271.690823 55.609519 
L 271.908378 55.609519 
L 272.125934 57.651038 
L 272.342948 54.588759 
L 272.451726 57.651038 
L 272.669281 54.588759 
L 272.886837 56.630278 
L 272.995074 55.609519 
L 273.103851 57.651038 
L 273.321407 56.630278 
L 273.430185 57.651038 
L 273.538962 56.630278 
L 273.647199 57.651038 
L 273.755977 54.588759 
L 274.08231 56.630278 
L 274.299324 54.588759 
L 274.516339 57.651038 
L 274.733894 53.568 
L 274.950909 57.651038 
L 275.167923 54.588759 
L 275.276701 57.651038 
L 275.494256 54.588759 
L 275.928285 57.651038 
L 276.037063 55.609519 
L 276.145841 56.630278 
L 276.254618 54.588759 
L 276.471633 57.651038 
L 276.58041 55.609519 
L 276.689188 56.630278 
L 276.797966 55.609519 
L 277.123217 57.651038 
L 277.231995 56.630278 
L 277.340772 57.651038 
L 277.558328 54.588759 
L 277.666564 57.651038 
L 277.774801 55.609519 
L 277.992357 57.651038 
L 278.209912 55.609519 
L 278.31869 57.651038 
L 278.426926 55.609519 
L 278.535704 56.630278 
L 278.75326 55.609519 
L 278.862038 56.630278 
L 278.970815 55.609519 
L 279.079052 57.651038 
L 279.296607 55.609519 
L 279.514163 57.651038 
L 279.948733 57.651038 
L 280.166288 54.588759 
L 280.275066 55.609519 
L 280.49208 54.588759 
L 280.600858 55.609519 
L 280.709636 54.588759 
L 280.818414 56.630278 
L 280.927192 55.609519 
L 281.035969 56.630278 
L 281.252984 54.588759 
L 281.361761 58.671797 
L 281.470539 53.568 
L 281.579317 56.630278 
L 281.688095 54.588759 
L 281.796872 57.651038 
L 281.905109 56.630278 
L 282.013887 57.651038 
L 282.122665 55.609519 
L 282.231442 56.630278 
L 282.34022 55.609519 
L 282.448998 57.651038 
L 282.774249 55.609519 
L 282.883027 57.651038 
L 282.991804 55.609519 
L 283.100582 57.651038 
L 283.208819 55.609519 
L 283.317055 56.630278 
L 283.534611 55.609519 
L 283.752166 56.630278 
L 283.969181 55.609519 
L 284.077958 56.630278 
L 284.186736 54.588759 
L 284.295514 56.630278 
L 284.513069 55.609519 
L 284.621306 55.609519 
L 284.729543 57.651038 
L 284.947098 55.609519 
L 285.164654 55.609519 
L 285.381127 56.630278 
L 285.489905 55.609519 
L 285.598682 57.651038 
L 285.816238 55.609519 
L 285.924475 55.609519 
L 286.032711 54.588759 
L 286.141489 57.651038 
L 286.250267 55.609519 
L 286.467822 56.630278 
L 286.5766 55.609519 
L 286.793614 57.651038 
L 286.902392 57.651038 
L 287.228725 54.588759 
L 287.44574 57.651038 
L 287.772073 53.568 
L 287.880851 55.609519 
L 287.989087 53.568 
L 288.315421 57.651038 
L 288.424198 56.630278 
L 288.641754 56.630278 
L 288.858768 55.609519 
L 289.076324 56.630278 
L 289.185102 56.630278 
L 289.293879 57.651038 
L 289.402116 54.588759 
L 289.510352 56.630278 
L 289.727908 55.609519 
L 289.836686 58.671797 
L 289.945463 55.609519 
L 290.0537 56.630278 
L 290.161937 54.588759 
L 290.270714 57.651038 
L 290.379492 54.588759 
L 290.705284 56.630278 
L 290.922299 54.588759 
L 291.031077 55.609519 
L 291.139854 54.588759 
L 291.356327 56.630278 
L 291.464564 54.588759 
L 291.573342 56.630278 
L 291.790897 54.588759 
L 291.899675 56.630278 
L 292.007912 55.609519 
L 292.116148 57.651038 
L 292.224926 55.609519 
L 292.442482 56.630278 
L 292.551259 53.568 
L 292.660037 56.630278 
L 292.877051 55.609519 
L 292.985829 55.609519 
L 293.312162 57.651038 
L 293.420399 54.588759 
L 293.529177 55.609519 
L 293.637955 54.588759 
L 293.746732 57.651038 
L 293.85551 56.630278 
L 293.964288 57.651038 
L 294.073066 56.630278 
L 294.181302 57.651038 
L 294.29008 53.568 
L 294.398858 54.588759 
L 294.507636 57.651038 
L 294.616413 55.609519 
L 294.833428 57.651038 
L 295.050983 55.609519 
L 295.377316 55.609519 
L 295.485553 57.651038 
L 295.703109 55.609519 
L 295.811886 54.588759 
L 295.920664 56.630278 
L 296.13822 53.568 
L 296.246456 57.651038 
L 296.355234 55.609519 
L 296.464012 57.651038 
L 296.681567 53.568 
L 296.898582 55.609519 
L 297.006818 54.588759 
L 297.115596 56.630278 
L 297.333152 53.568 
L 297.441929 55.609519 
L 297.550166 53.568 
L 297.76718 57.651038 
L 297.875958 55.609519 
L 298.093513 56.630278 
L 298.310528 54.588759 
L 298.528083 57.651038 
L 298.636861 55.609519 
L 298.745639 56.630278 
L 298.854417 55.609519 
L 299.179668 57.651038 
L 299.614237 54.588759 
L 299.94003 56.630278 
L 300.157585 55.609519 
L 300.265822 57.651038 
L 300.374058 55.609519 
L 300.482836 57.651038 
L 300.591614 55.609519 
L 300.809169 56.630278 
L 300.917947 56.630278 
L 301.026184 55.609519 
L 301.134961 58.671797 
L 301.243739 56.630278 
L 301.570072 60.713316 
L 301.787087 57.651038 
L 301.895865 60.713316 
L 302.004642 58.671797 
L 302.330434 61.734076 
L 302.439212 60.713316 
L 302.54799 62.754835 
L 302.656768 58.671797 
L 302.983101 62.754835 
L 303.200115 59.692557 
L 303.308893 61.734076 
L 303.526449 58.671797 
L 303.635226 60.713316 
L 303.8517 59.692557 
L 304.069255 61.734076 
L 304.178033 62.754835 
L 304.286811 58.671797 
L 304.395047 61.734076 
L 304.503284 59.692557 
L 304.720839 61.734076 
L 304.829617 57.651038 
L 305.046631 61.734076 
L 305.154868 61.734076 
L 305.263646 59.692557 
L 305.372424 63.775595 
L 305.481201 60.713316 
L 305.589979 62.754835 
L 305.806993 59.692557 
L 306.024549 57.651038 
L 306.133327 58.671797 
L 306.242105 57.651038 
L 306.350882 58.671797 
L 306.459119 57.651038 
L 306.567355 58.671797 
L 306.676133 61.734076 
L 306.784911 59.692557 
L 306.893689 61.734076 
L 307.002466 60.713316 
L 307.110703 57.651038 
L 307.21894 59.692557 
L 307.327717 57.651038 
L 307.545273 59.692557 
L 307.654051 58.671797 
L 307.871065 60.713316 
L 308.197398 58.671797 
L 308.306176 61.734076 
L 308.52319 59.692557 
L 308.631968 59.692557 
L 308.740746 57.651038 
L 308.849524 59.692557 
L 309.067079 57.651038 
L 309.392871 59.692557 
L 309.501649 57.651038 
L 309.719205 61.734076 
L 309.936219 59.692557 
L 310.153775 60.713316 
L 310.262552 59.692557 
L 310.37133 61.734076 
L 310.480108 58.671797 
L 310.697122 60.713316 
L 310.8059 57.651038 
L 310.914678 59.692557 
L 311.241011 57.651038 
L 311.458025 59.692557 
L 311.566803 59.692557 
L 311.675581 61.734076 
L 311.893136 58.671797 
L 312.218387 61.734076 
L 312.327165 59.692557 
L 312.435943 60.713316 
L 312.544721 59.692557 
L 312.652957 61.734076 
L 312.869972 57.651038 
L 313.087527 59.692557 
L 313.196305 58.671797 
L 313.630334 61.734076 
L 313.956667 57.651038 
L 314.173681 59.692557 
L 314.282459 57.651038 
L 314.608792 59.692557 
L 314.717029 57.651038 
L 314.934584 61.734076 
L 315.260918 57.651038 
L 315.369695 60.713316 
L 315.477932 59.692557 
L 315.58671 61.734076 
L 315.804265 58.671797 
L 315.913043 61.734076 
L 316.021821 59.692557 
L 316.130057 61.734076 
L 316.238835 59.692557 
L 316.347613 61.734076 
L 316.456391 58.671797 
L 316.673946 59.692557 
L 316.782183 58.671797 
L 317.107975 62.754835 
L 317.216753 59.692557 
L 317.542004 61.734076 
L 317.759559 58.671797 
L 318.085351 61.734076 
L 318.302366 59.692557 
L 318.519921 59.692557 
L 318.628699 60.713316 
L 318.737477 58.671797 
L 318.954491 61.734076 
L 319.172047 58.671797 
L 319.389602 59.692557 
L 319.606075 57.651038 
L 319.823631 61.734076 
L 320.041186 59.692557 
L 320.149423 60.713316 
L 320.25766 59.692557 
L 320.366437 61.734076 
L 320.583993 58.671797 
L 320.692771 58.671797 
L 321.018563 62.754835 
L 321.127341 57.651038 
L 321.236118 62.754835 
L 321.453674 59.692557 
L 321.670688 59.692557 
L 321.779466 58.671797 
L 322.214577 61.734076 
L 322.431591 57.651038 
L 322.540369 59.692557 
L 322.757925 57.651038 
L 322.866702 59.692557 
L 322.974939 57.651038 
L 323.083717 58.671797 
L 323.192495 61.734076 
L 323.301272 58.671797 
L 323.518828 60.713316 
L 323.735842 59.692557 
L 323.953398 62.754835 
L 324.062175 61.734076 
L 324.170953 61.734076 
L 324.387967 58.671797 
L 324.496745 58.671797 
L 324.714301 59.692557 
L 324.823079 59.692557 
L 324.931856 61.734076 
L 325.148329 58.671797 
L 325.257107 60.713316 
L 325.365885 57.651038 
L 325.474663 60.713316 
L 325.58344 57.651038 
L 325.908691 59.692557 
L 326.017469 58.671797 
L 326.126247 60.713316 
L 326.235025 58.671797 
L 326.452039 61.734076 
L 326.560817 59.692557 
L 326.669595 63.775595 
L 326.88715 61.734076 
L 326.995928 61.734076 
L 327.104165 59.692557 
L 327.321179 61.734076 
L 327.538734 59.692557 
L 327.647512 60.713316 
L 327.863985 59.692557 
L 328.081541 61.734076 
L 328.299096 57.651038 
L 328.407333 57.651038 
L 328.51557 61.734076 
L 328.733125 58.671797 
L 329.276473 62.754835 
L 329.38525 62.754835 
L 329.494028 58.671797 
L 329.602806 61.734076 
L 329.711584 58.671797 
L 329.81982 61.734076 
L 330.146154 59.692557 
L 330.363709 59.692557 
L 330.471946 61.734076 
L 330.689501 58.671797 
L 330.907057 61.734076 
L 331.015835 58.671797 
L 331.232849 61.734076 
L 331.450404 61.734076 
L 331.559182 57.651038 
L 331.66796 61.734076 
L 331.776738 58.671797 
L 332.210767 61.734076 
L 332.319544 59.692557 
L 332.428322 60.713316 
L 332.644795 59.692557 
L 332.862351 59.692557 
L 332.971129 57.651038 
L 333.188143 59.692557 
L 333.296379 59.692557 
L 333.405157 58.671797 
L 333.622713 61.734076 
L 333.73149 57.651038 
L 334.16606 61.734076 
L 334.383616 59.692557 
L 334.492394 59.692557 
L 334.60063 60.713316 
L 334.926422 58.671797 
L 335.0352 59.692557 
L 335.143978 58.671797 
L 335.252214 61.734076 
L 335.360451 57.651038 
L 335.469229 60.713316 
L 335.795562 58.671797 
L 335.90434 62.754835 
L 336.121354 58.671797 
L 336.230132 61.734076 
L 336.33891 57.651038 
L 336.556465 59.692557 
L 336.664702 59.692557 
L 336.77348 58.671797 
L 336.882257 61.734076 
L 337.099813 58.671797 
L 337.208591 60.713316 
L 337.316827 59.692557 
L 337.534383 61.734076 
L 337.643161 58.671797 
L 337.860175 60.713316 
L 337.968411 59.692557 
L 338.185426 61.734076 
L 338.294204 57.651038 
L 338.619996 61.734076 
L 338.728232 60.713316 
L 338.83701 57.651038 
L 338.945788 61.734076 
L 339.163343 58.671797 
L 339.27158 60.713316 
L 339.488594 59.692557 
L 339.597372 59.692557 
L 339.70615 60.713316 
L 339.923705 58.671797 
L 340.14072 59.692557 
L 340.249497 57.651038 
L 340.467053 59.692557 
L 340.575831 59.692557 
L 340.792304 57.651038 
L 340.901082 57.651038 
L 341.118637 58.671797 
L 341.227415 57.651038 
L 341.443888 60.713316 
L 341.552666 59.692557 
L 341.770221 59.692557 
L 341.878999 58.671797 
L 341.987236 59.692557 
L 342.095472 58.671797 
L 342.421806 60.713316 
L 342.530583 59.692557 
L 342.747598 61.734076 
L 342.965153 57.651038 
L 343.182709 59.692557 
L 343.291486 57.651038 
L 343.508501 59.692557 
L 343.617279 59.692557 
L 343.726056 57.651038 
L 343.834834 61.734076 
L 344.05239 58.671797 
L 344.160626 59.692557 
L 344.378182 58.671797 
L 344.48696 61.734076 
L 344.595737 57.651038 
L 344.921529 59.692557 
L 345.030307 58.671797 
L 345.139085 59.692557 
L 345.247863 58.671797 
L 345.464877 59.692557 
L 345.573114 58.671797 
L 345.790669 61.734076 
L 345.899447 57.651038 
L 346.224698 59.692557 
L 346.333476 59.692557 
L 346.442253 58.671797 
L 346.659809 61.734076 
L 346.876282 57.651038 
L 347.093838 61.734076 
L 347.311393 59.692557 
L 347.420171 58.671797 
L 347.528408 61.734076 
L 347.745963 57.651038 
L 347.854741 60.713316 
L 347.963519 57.651038 
L 348.180533 58.671797 
L 348.615103 58.671797 
L 348.832117 61.734076 
L 348.940354 61.734076 
L 349.266687 59.692557 
L 349.375465 59.692557 
L 349.484243 57.651038 
L 349.810035 61.734076 
L 349.918813 57.651038 
L 350.136368 59.692557 
L 350.244604 59.692557 
L 350.46216 61.734076 
L 350.679716 58.671797 
L 350.897271 61.734076 
L 351.005508 57.651038 
L 351.223063 60.713316 
L 351.331841 58.671797 
L 351.549397 59.692557 
L 351.657633 59.692557 
L 351.766411 57.651038 
L 351.875189 58.671797 
L 352.092744 61.734076 
L 352.201522 57.651038 
L 352.309758 58.671797 
L 352.418536 61.734076 
L 352.527314 57.651038 
L 352.74487 61.734076 
L 352.853647 57.651038 
L 352.962425 60.713316 
L 353.070662 59.692557 
L 353.288217 56.630278 
L 353.396995 60.713316 
L 353.61455 59.692557 
L 353.722787 60.713316 
L 353.831024 57.651038 
L 354.048579 61.734076 
L 354.157357 57.651038 
L 354.374371 61.734076 
L 354.482608 58.671797 
L 354.591386 61.734076 
L 354.917719 58.671797 
L 355.026497 59.692557 
L 355.134733 57.651038 
L 355.243511 60.713316 
L 355.569844 57.651038 
L 355.786859 59.692557 
L 355.895095 60.713316 
L 356.003873 57.651038 
L 356.221429 61.734076 
L 356.54668 57.651038 
L 356.764235 57.651038 
L 356.981791 58.671797 
L 357.090027 58.671797 
L 357.198264 57.651038 
L 357.307042 59.692557 
L 357.415819 58.671797 
L 357.524597 61.734076 
L 357.959167 57.651038 
L 358.176723 59.692557 
L 358.2855 60.713316 
L 358.502515 57.651038 
L 358.72007 59.692557 
L 358.937626 60.713316 
L 359.046403 56.630278 
L 359.263418 57.651038 
L 359.372196 57.651038 
L 359.480973 60.713316 
L 359.589751 57.651038 
L 359.698529 60.713316 
L 359.915543 58.671797 
L 360.133099 59.692557 
L 360.241877 58.671797 
L 360.350654 60.713316 
L 360.567669 57.651038 
L 360.675905 59.692557 
L 360.893461 57.651038 
L 361.002239 57.651038 
L 361.219253 58.671797 
L 361.436267 58.671797 
L 361.7626 60.713316 
L 361.870837 57.651038 
L 362.087851 59.692557 
L 362.196629 58.671797 
L 362.305407 60.713316 
L 362.414185 57.651038 
L 362.631199 59.692557 
L 362.739977 56.630278 
L 362.848755 59.692557 
L 362.957532 58.671797 
L 363.06631 59.692557 
L 363.283324 57.651038 
L 363.391561 56.630278 
L 363.609117 59.692557 
L 363.826672 57.651038 
L 363.934909 59.692557 
L 364.043145 57.651038 
L 364.260701 58.671797 
L 364.369479 58.671797 
L 364.587034 57.651038 
L 364.695271 58.671797 
L 364.912826 55.609519 
L 365.021604 59.692557 
L 365.239159 58.671797 
L 365.456174 58.671797 
L 365.564952 57.651038 
L 365.782507 59.692557 
L 365.891285 57.651038 
L 366.108299 61.734076 
L 366.325855 57.651038 
L 366.54341 59.692557 
L 366.760425 57.651038 
L 366.97798 59.692557 
L 367.195536 57.651038 
L 367.304313 58.671797 
L 367.41255 56.630278 
L 367.738883 58.671797 
L 367.956439 55.609519 
L 368.282231 59.692557 
L 368.391009 59.692557 
L 368.499786 57.651038 
L 368.608564 59.692557 
L 368.717342 58.671797 
L 368.825579 59.692557 
L 369.042593 58.671797 
L 369.151371 61.734076 
L 369.368926 59.692557 
L 369.477163 58.671797 
L 369.694177 60.713316 
L 369.911733 57.651038 
L 370.02051 59.692557 
L 370.128747 58.671797 
L 370.236984 59.692557 
L 370.345761 58.671797 
L 370.454539 59.692557 
L 370.563317 57.651038 
L 370.672095 59.692557 
L 370.889109 57.651038 
L 371.215442 60.713316 
L 371.32422 57.651038 
L 371.650012 59.692557 
L 371.867568 57.651038 
L 371.976346 60.713316 
L 372.085123 56.630278 
L 372.410915 58.671797 
L 372.519693 57.651038 
L 372.737249 58.671797 
L 372.846026 58.671797 
L 373.063041 59.692557 
L 373.280596 58.671797 
L 373.389374 59.692557 
L 373.823403 56.630278 
L 374.149736 59.692557 
L 374.257973 58.671797 
L 374.366209 59.692557 
L 374.474987 57.651038 
L 374.692543 60.713316 
L 374.909557 57.651038 
L 375.126571 59.692557 
L 375.235349 59.692557 
L 375.452905 57.651038 
L 375.561682 59.692557 
L 375.778697 57.651038 
L 375.996252 56.630278 
L 376.322044 58.671797 
L 376.430281 58.671797 
L 376.647836 56.630278 
L 376.865392 59.692557 
L 377.081865 57.651038 
L 377.299421 59.692557 
L 377.516976 58.671797 
L 377.625754 59.692557 
L 377.842768 55.609519 
L 378.060324 58.671797 
L 378.169102 60.713316 
L 378.386116 57.651038 
L 378.494894 57.651038 
L 378.603671 58.671797 
L 378.930005 56.630278 
L 379.038782 56.630278 
L 379.255797 58.671797 
L 379.364575 57.651038 
L 379.58213 58.671797 
L 379.690908 57.651038 
L 379.799144 58.671797 
L 379.907922 56.630278 
L 380.125478 58.671797 
L 380.234256 58.671797 
L 380.343033 57.651038 
L 380.45127 58.671797 
L 380.560048 55.609519 
L 380.668825 57.651038 
L 380.777603 55.609519 
L 381.103936 59.692557 
L 381.212173 56.630278 
L 381.320951 57.651038 
L 381.429729 56.630278 
L 381.756062 59.692557 
L 381.972535 57.651038 
L 382.081313 57.651038 
L 382.190091 58.671797 
L 382.298868 56.630278 
L 382.515883 58.671797 
L 382.624119 56.630278 
L 382.841675 57.651038 
L 382.950453 57.651038 
L 383.05923 55.609519 
L 383.168008 56.630278 
L 383.385022 55.609519 
L 383.4938 55.609519 
L 383.602578 58.671797 
L 383.711356 57.651038 
L 383.820133 61.734076 
L 384.036607 57.651038 
L 384.145384 58.671797 
L 384.254162 56.630278 
L 384.471718 59.692557 
L 384.796969 57.651038 
L 384.905746 57.651038 
L 385.013983 58.671797 
L 385.122761 56.630278 
L 385.339775 59.692557 
L 385.448553 55.609519 
L 385.557331 57.651038 
L 385.666108 55.609519 
L 385.883664 58.671797 
L 385.991901 58.671797 
L 386.100678 55.609519 
L 386.318234 57.651038 
L 386.427012 57.651038 
L 386.535789 58.671797 
L 386.752804 55.609519 
L 387.079137 58.671797 
L 387.187915 55.609519 
L 387.404929 57.651038 
L 387.731262 57.651038 
L 387.84004 59.692557 
L 387.948818 57.651038 
L 388.165832 58.671797 
L 388.27461 57.651038 
L 388.383388 58.671797 
L 388.492166 57.651038 
L 388.600943 59.692557 
L 388.817416 57.651038 
L 388.926194 57.651038 
L 389.252527 59.692557 
L 389.469001 57.651038 
L 389.577778 57.651038 
L 389.686556 56.630278 
L 389.904112 57.651038 
L 390.012348 56.630278 
L 390.229363 57.651038 
L 390.338141 57.651038 
L 390.446918 56.630278 
L 390.77271 59.692557 
L 390.990266 57.651038 
L 391.099044 56.630278 
L 391.316599 59.692557 
L 391.533072 57.651038 
L 391.64185 57.651038 
L 391.750628 59.692557 
L 391.968183 56.630278 
L 392.184657 58.671797 
L 392.293434 57.651038 
L 392.402212 58.671797 
L 392.619768 56.630278 
L 392.836782 58.671797 
L 393.054337 57.651038 
L 393.271893 59.692557 
L 393.706463 55.609519 
L 394.141033 58.671797 
L 394.249811 57.651038 
L 394.358588 59.692557 
L 394.684922 56.630278 
L 394.901936 57.651038 
L 395.119491 57.651038 
L 395.228269 58.671797 
L 395.554061 56.630278 
L 395.771617 57.651038 
L 395.880395 57.651038 
L 395.989172 59.692557 
L 396.09795 56.630278 
L 396.314965 57.651038 
L 396.53252 56.630278 
L 396.641298 59.692557 
L 396.858853 55.609519 
L 397.075327 60.713316 
L 397.292882 58.671797 
L 397.40166 59.692557 
L 397.510438 57.651038 
L 397.618674 58.671797 
L 397.726911 55.609519 
L 398.053244 57.651038 
L 398.162022 57.651038 
L 398.270258 55.609519 
L 398.378495 59.692557 
L 398.487273 58.671797 
L 398.487273 58.671797 
" style="fill:none;stroke:#ff7f0e;stroke-linecap:square;stroke-width:1.5;"/>
   </g>
   <g id="patch_3">
    <path d="M 57.6 307.584 
L 57.6 41.472 
" style="fill:none;stroke:#000000;stroke-linecap:square;stroke-linejoin:miter;stroke-width:0.8;"/>
   </g>
   <g id="patch_4">
    <path d="M 414.72 307.584 
L 414.72 41.472 
" style="fill:none;stroke:#000000;stroke-linecap:square;stroke-linejoin:miter;stroke-width:0.8;"/>
   </g>
   <g id="patch_5">
    <path d="M 57.6 307.584 
L 414.72 307.584 
" style="fill:none;stroke:#000000;stroke-linecap:square;stroke-linejoin:miter;stroke-width:0.8;"/>
   </g>
   <g id="patch_6">
    <path d="M 57.6 41.472 
L 414.72 41.472 
" style="fill:none;stroke:#000000;stroke-linecap:square;stroke-linejoin:miter;stroke-width:0.8;"/>
   </g>
   <g id="text_15">
    <!-- Temperatures of heater -->
    <defs>
     <path d="M 30.609375 48.390625 
Q 23.390625 48.390625 19.1875 42.75 
Q 14.984375 37.109375 14.984375 27.296875 
Q 14.984375 17.484375 19.15625 11.84375 
Q 23.34375 6.203125 30.609375 6.203125 
Q 37.796875 6.203125 41.984375 11.859375 
Q 46.1875 17.53125 46.1875 27.296875 
Q 46.1875 37.015625 41.984375 42.703125 
Q 37.796875 48.390625 30.609375 48.390625 
z
M 30.609375 56 
Q 42.328125 56 49.015625 48.375 
Q 55.71875 40.765625 55.71875 27.296875 
Q 55.71875 13.875 49.015625 6.21875 
Q 42.328125 -1.421875 30.609375 -1.421875 
Q 18.84375 -1.421875 12.171875 6.21875 
Q 5.515625 13.875 5.515625 27.296875 
Q 5.515625 40.765625 12.171875 48.375 
Q 18.84375 56 30.609375 56 
z
" id="DejaVuSans-6f"/>
     <path d="M 37.109375 75.984375 
L 37.109375 68.5 
L 28.515625 68.5 
Q 23.6875 68.5 21.796875 66.546875 
Q 19.921875 64.59375 19.921875 59.515625 
L 19.921875 54.6875 
L 34.71875 54.6875 
L 34.71875 47.703125 
L 19.921875 47.703125 
L 19.921875 0 
L 10.890625 0 
L 10.890625 47.703125 
L 2.296875 47.703125 
L 2.296875 54.6875 
L 10.890625 54.6875 
L 10.890625 58.5 
Q 10.890625 67.625 15.140625 71.796875 
Q 19.390625 75.984375 28.609375 75.984375 
z
" id="DejaVuSans-66"/>
     <path d="M 54.890625 33.015625 
L 54.890625 0 
L 45.90625 0 
L 45.90625 32.71875 
Q 45.90625 40.484375 42.875 44.328125 
Q 39.84375 48.1875 33.796875 48.1875 
Q 26.515625 48.1875 22.3125 43.546875 
Q 18.109375 38.921875 18.109375 30.90625 
L 18.109375 0 
L 9.078125 0 
L 9.078125 75.984375 
L 18.109375 75.984375 
L 18.109375 46.1875 
Q 21.34375 51.125 25.703125 53.5625 
Q 30.078125 56 35.796875 56 
Q 45.21875 56 50.046875 50.171875 
Q 54.890625 44.34375 54.890625 33.015625 
z
" id="DejaVuSans-68"/>
    </defs>
    <g transform="translate(164.614688 35.472)scale(0.12 -0.12)">
     <use xlink:href="#DejaVuSans-54"/>
     <use x="60.818359" xlink:href="#DejaVuSans-65"/>
     <use x="122.341797" xlink:href="#DejaVuSans-6d"/>
     <use x="219.753906" xlink:href="#DejaVuSans-70"/>
     <use x="283.230469" xlink:href="#DejaVuSans-65"/>
     <use x="344.753906" xlink:href="#DejaVuSans-72"/>
     <use x="385.867188" xlink:href="#DejaVuSans-61"/>
     <use x="447.146484" xlink:href="#DejaVuSans-74"/>
     <use x="486.355469" xlink:href="#DejaVuSans-75"/>
     <use x="549.734375" xlink:href="#DejaVuSans-72"/>
     <use x="590.816406" xlink:href="#DejaVuSans-65"/>
     <use x="652.339844" xlink:href="#DejaVuSans-73"/>
     <use x="704.439453" xlink:href="#DejaVuSans-20"/>
     <use x="736.226562" xlink:href="#DejaVuSans-6f"/>
     <use x="797.408203" xlink:href="#DejaVuSans-66"/>
     <use x="832.613281" xlink:href="#DejaVuSans-20"/>
     <use x="864.400391" xlink:href="#DejaVuSans-68"/>
     <use x="927.779297" xlink:href="#DejaVuSans-65"/>
     <use x="989.302734" xlink:href="#DejaVuSans-61"/>
     <use x="1050.582031" xlink:href="#DejaVuSans-74"/>
     <use x="1089.791016" xlink:href="#DejaVuSans-65"/>
     <use x="1151.314453" xlink:href="#DejaVuSans-72"/>
    </g>
   </g>
   <g id="legend_1">
    <g id="patch_7">
     <path d="M 328.585625 302.584 
L 407.72 302.584 
Q 409.72 302.584 409.72 300.584 
L 409.72 272.22775 
Q 409.72 270.22775 407.72 270.22775 
L 328.585625 270.22775 
Q 326.585625 270.22775 326.585625 272.22775 
L 326.585625 300.584 
Q 326.585625 302.584 328.585625 302.584 
z
" style="fill:#ffffff;opacity:0.8;stroke:#cccccc;stroke-linejoin:miter;"/>
    </g>
    <g id="line2d_15">
     <path d="M 330.585625 278.326187 
L 350.585625 278.326187 
" style="fill:none;stroke:#1f77b4;stroke-linecap:square;stroke-width:1.5;"/>
    </g>
    <g id="line2d_16"/>
    <g id="text_16">
     <!-- Setpoints -->
     <defs>
      <path d="M 53.515625 70.515625 
L 53.515625 60.890625 
Q 47.90625 63.578125 42.921875 64.890625 
Q 37.9375 66.21875 33.296875 66.21875 
Q 25.25 66.21875 20.875 63.09375 
Q 16.5 59.96875 16.5 54.203125 
Q 16.5 49.359375 19.40625 46.890625 
Q 22.3125 44.4375 30.421875 42.921875 
L 36.375 41.703125 
Q 47.40625 39.59375 52.65625 34.296875 
Q 57.90625 29 57.90625 20.125 
Q 57.90625 9.515625 50.796875 4.046875 
Q 43.703125 -1.421875 29.984375 -1.421875 
Q 24.8125 -1.421875 18.96875 -0.25 
Q 13.140625 0.921875 6.890625 3.21875 
L 6.890625 13.375 
Q 12.890625 10.015625 18.65625 8.296875 
Q 24.421875 6.59375 29.984375 6.59375 
Q 38.421875 6.59375 43.015625 9.90625 
Q 47.609375 13.234375 47.609375 19.390625 
Q 47.609375 24.75 44.3125 27.78125 
Q 41.015625 30.8125 33.5 32.328125 
L 27.484375 33.5 
Q 16.453125 35.6875 11.515625 40.375 
Q 6.59375 45.0625 6.59375 53.421875 
Q 6.59375 63.09375 13.40625 68.65625 
Q 20.21875 74.21875 32.171875 74.21875 
Q 37.3125 74.21875 42.625 73.28125 
Q 47.953125 72.359375 53.515625 70.515625 
z
" id="DejaVuSans-53"/>
      <path d="M 9.421875 54.6875 
L 18.40625 54.6875 
L 18.40625 0 
L 9.421875 0 
z
M 9.421875 75.984375 
L 18.40625 75.984375 
L 18.40625 64.59375 
L 9.421875 64.59375 
z
" id="DejaVuSans-69"/>
      <path d="M 54.890625 33.015625 
L 54.890625 0 
L 45.90625 0 
L 45.90625 32.71875 
Q 45.90625 40.484375 42.875 44.328125 
Q 39.84375 48.1875 33.796875 48.1875 
Q 26.515625 48.1875 22.3125 43.546875 
Q 18.109375 38.921875 18.109375 30.90625 
L 18.109375 0 
L 9.078125 0 
L 9.078125 54.6875 
L 18.109375 54.6875 
L 18.109375 46.1875 
Q 21.34375 51.125 25.703125 53.5625 
Q 30.078125 56 35.796875 56 
Q 45.21875 56 50.046875 50.171875 
Q 54.890625 44.34375 54.890625 33.015625 
z
" id="DejaVuSans-6e"/>
     </defs>
     <g transform="translate(358.585625 281.826187)scale(0.1 -0.1)">
      <use xlink:href="#DejaVuSans-53"/>
      <use x="63.476562" xlink:href="#DejaVuSans-65"/>
      <use x="125" xlink:href="#DejaVuSans-74"/>
      <use x="164.208984" xlink:href="#DejaVuSans-70"/>
      <use x="227.685547" xlink:href="#DejaVuSans-6f"/>
      <use x="288.867188" xlink:href="#DejaVuSans-69"/>
      <use x="316.650391" xlink:href="#DejaVuSans-6e"/>
      <use x="380.029297" xlink:href="#DejaVuSans-74"/>
      <use x="419.238281" xlink:href="#DejaVuSans-73"/>
     </g>
    </g>
    <g id="line2d_17">
     <path d="M 330.585625 293.004312 
L 350.585625 293.004312 
" style="fill:none;stroke:#ff7f0e;stroke-linecap:square;stroke-width:1.5;"/>
    </g>
    <g id="line2d_18"/>
    <g id="text_17">
     <!-- Heater -->
     <defs>
      <path d="M 9.8125 72.90625 
L 19.671875 72.90625 
L 19.671875 43.015625 
L 55.515625 43.015625 
L 55.515625 72.90625 
L 65.375 72.90625 
L 65.375 0 
L 55.515625 0 
L 55.515625 34.71875 
L 19.671875 34.71875 
L 19.671875 0 
L 9.8125 0 
z
" id="DejaVuSans-48"/>
     </defs>
     <g transform="translate(358.585625 296.504312)scale(0.1 -0.1)">
      <use xlink:href="#DejaVuSans-48"/>
      <use x="75.195312" xlink:href="#DejaVuSans-65"/>
      <use x="136.71875" xlink:href="#DejaVuSans-61"/>
      <use x="197.998047" xlink:href="#DejaVuSans-74"/>
      <use x="237.207031" xlink:href="#DejaVuSans-65"/>
      <use x="298.730469" xlink:href="#DejaVuSans-72"/>
     </g>
    </g>
   </g>
  </g>
 </g>
 <defs>
  <clipPath id="p3ef0b2dd45">
   <rect height="266.112" width="357.12" x="57.6" y="41.472"/>
  </clipPath>
 </defs>
</svg>
