<?xml version="1.0" encoding="utf-8" standalone="no"?>
<!DOCTYPE svg PUBLIC "-//W3C//DTD SVG 1.1//EN"
  "http://www.w3.org/Graphics/SVG/1.1/DTD/svg11.dtd">
<!-- Created with matplotlib (http://matplotlib.org/) -->
<svg height="345pt" version="1.1" viewBox="0 0 460 345" width="460pt" xmlns="http://www.w3.org/2000/svg" xmlns:xlink="http://www.w3.org/1999/xlink">
 <defs>
  <style type="text/css">
*{stroke-linecap:butt;stroke-linejoin:round;}
  </style>
 </defs>
 <g id="figure_1">
  <g id="patch_1">
   <path d="M 0 345.6 
L 460.8 345.6 
L 460.8 0 
L 0 0 
z
" style="fill:#ffffff;"/>
  </g>
  <g id="axes_1">
   <g id="patch_2">
    <path d="M 57.6 307.584 
L 414.72 307.584 
L 414.72 41.472 
L 57.6 41.472 
z
" style="fill:#ffffff;"/>
   </g>
   <g id="matplotlib.axis_1">
    <g id="xtick_1">
     <g id="line2d_1">
      <defs>
       <path d="M 0 0 
L 0 3.5 
" id="m0d9fb8ab3e" style="stroke:#000000;stroke-width:0.8;"/>
      </defs>
      <g>
       <use style="stroke:#000000;stroke-width:0.8;" x="73.832727" xlink:href="#m0d9fb8ab3e" y="307.584"/>
      </g>
     </g>
     <g id="text_1">
      <!-- 0 -->
      <defs>
       <path d="M 31.78125 66.40625 
Q 24.171875 66.40625 20.328125 58.90625 
Q 16.5 51.421875 16.5 36.375 
Q 16.5 21.390625 20.328125 13.890625 
Q 24.171875 6.390625 31.78125 6.390625 
Q 39.453125 6.390625 43.28125 13.890625 
Q 47.125 21.390625 47.125 36.375 
Q 47.125 51.421875 43.28125 58.90625 
Q 39.453125 66.40625 31.78125 66.40625 
z
M 31.78125 74.21875 
Q 44.046875 74.21875 50.515625 64.515625 
Q 56.984375 54.828125 56.984375 36.375 
Q 56.984375 17.96875 50.515625 8.265625 
Q 44.046875 -1.421875 31.78125 -1.421875 
Q 19.53125 -1.421875 13.0625 8.265625 
Q 6.59375 17.96875 6.59375 36.375 
Q 6.59375 54.828125 13.0625 64.515625 
Q 19.53125 74.21875 31.78125 74.21875 
z
" id="DejaVuSans-30"/>
      </defs>
      <g transform="translate(70.651477 322.182437)scale(0.1 -0.1)">
       <use xlink:href="#DejaVuSans-30"/>
      </g>
     </g>
    </g>
    <g id="xtick_2">
     <g id="line2d_2">
      <g>
       <use style="stroke:#000000;stroke-width:0.8;" x="127.988715" xlink:href="#m0d9fb8ab3e" y="307.584"/>
      </g>
     </g>
     <g id="text_2">
      <!-- 100 -->
      <defs>
       <path d="M 12.40625 8.296875 
L 28.515625 8.296875 
L 28.515625 63.921875 
L 10.984375 60.40625 
L 10.984375 69.390625 
L 28.421875 72.90625 
L 38.28125 72.90625 
L 38.28125 8.296875 
L 54.390625 8.296875 
L 54.390625 0 
L 12.40625 0 
z
" id="DejaVuSans-31"/>
      </defs>
      <g transform="translate(118.444965 322.182437)scale(0.1 -0.1)">
       <use xlink:href="#DejaVuSans-31"/>
       <use x="63.623047" xlink:href="#DejaVuSans-30"/>
       <use x="127.246094" xlink:href="#DejaVuSans-30"/>
      </g>
     </g>
    </g>
    <g id="xtick_3">
     <g id="line2d_3">
      <g>
       <use style="stroke:#000000;stroke-width:0.8;" x="182.144704" xlink:href="#m0d9fb8ab3e" y="307.584"/>
      </g>
     </g>
     <g id="text_3">
      <!-- 200 -->
      <defs>
       <path d="M 19.1875 8.296875 
L 53.609375 8.296875 
L 53.609375 0 
L 7.328125 0 
L 7.328125 8.296875 
Q 12.9375 14.109375 22.625 23.890625 
Q 32.328125 33.6875 34.8125 36.53125 
Q 39.546875 41.84375 41.421875 45.53125 
Q 43.3125 49.21875 43.3125 52.78125 
Q 43.3125 58.59375 39.234375 62.25 
Q 35.15625 65.921875 28.609375 65.921875 
Q 23.96875 65.921875 18.8125 64.3125 
Q 13.671875 62.703125 7.8125 59.421875 
L 7.8125 69.390625 
Q 13.765625 71.78125 18.9375 73 
Q 24.125 74.21875 28.421875 74.21875 
Q 39.75 74.21875 46.484375 68.546875 
Q 53.21875 62.890625 53.21875 53.421875 
Q 53.21875 48.921875 51.53125 44.890625 
Q 49.859375 40.875 45.40625 35.40625 
Q 44.1875 33.984375 37.640625 27.21875 
Q 31.109375 20.453125 19.1875 8.296875 
z
" id="DejaVuSans-32"/>
      </defs>
      <g transform="translate(172.600954 322.182437)scale(0.1 -0.1)">
       <use xlink:href="#DejaVuSans-32"/>
       <use x="63.623047" xlink:href="#DejaVuSans-30"/>
       <use x="127.246094" xlink:href="#DejaVuSans-30"/>
      </g>
     </g>
    </g>
    <g id="xtick_4">
     <g id="line2d_4">
      <g>
       <use style="stroke:#000000;stroke-width:0.8;" x="236.300692" xlink:href="#m0d9fb8ab3e" y="307.584"/>
      </g>
     </g>
     <g id="text_4">
      <!-- 300 -->
      <defs>
       <path d="M 40.578125 39.3125 
Q 47.65625 37.796875 51.625 33 
Q 55.609375 28.21875 55.609375 21.1875 
Q 55.609375 10.40625 48.1875 4.484375 
Q 40.765625 -1.421875 27.09375 -1.421875 
Q 22.515625 -1.421875 17.65625 -0.515625 
Q 12.796875 0.390625 7.625 2.203125 
L 7.625 11.71875 
Q 11.71875 9.328125 16.59375 8.109375 
Q 21.484375 6.890625 26.8125 6.890625 
Q 36.078125 6.890625 40.9375 10.546875 
Q 45.796875 14.203125 45.796875 21.1875 
Q 45.796875 27.640625 41.28125 31.265625 
Q 36.765625 34.90625 28.71875 34.90625 
L 20.21875 34.90625 
L 20.21875 43.015625 
L 29.109375 43.015625 
Q 36.375 43.015625 40.234375 45.921875 
Q 44.09375 48.828125 44.09375 54.296875 
Q 44.09375 59.90625 40.109375 62.90625 
Q 36.140625 65.921875 28.71875 65.921875 
Q 24.65625 65.921875 20.015625 65.03125 
Q 15.375 64.15625 9.8125 62.3125 
L 9.8125 71.09375 
Q 15.4375 72.65625 20.34375 73.4375 
Q 25.25 74.21875 29.59375 74.21875 
Q 40.828125 74.21875 47.359375 69.109375 
Q 53.90625 64.015625 53.90625 55.328125 
Q 53.90625 49.265625 50.4375 45.09375 
Q 46.96875 40.921875 40.578125 39.3125 
z
" id="DejaVuSans-33"/>
      </defs>
      <g transform="translate(226.756942 322.182437)scale(0.1 -0.1)">
       <use xlink:href="#DejaVuSans-33"/>
       <use x="63.623047" xlink:href="#DejaVuSans-30"/>
       <use x="127.246094" xlink:href="#DejaVuSans-30"/>
      </g>
     </g>
    </g>
    <g id="xtick_5">
     <g id="line2d_5">
      <g>
       <use style="stroke:#000000;stroke-width:0.8;" x="290.45668" xlink:href="#m0d9fb8ab3e" y="307.584"/>
      </g>
     </g>
     <g id="text_5">
      <!-- 400 -->
      <defs>
       <path d="M 37.796875 64.3125 
L 12.890625 25.390625 
L 37.796875 25.390625 
z
M 35.203125 72.90625 
L 47.609375 72.90625 
L 47.609375 25.390625 
L 58.015625 25.390625 
L 58.015625 17.1875 
L 47.609375 17.1875 
L 47.609375 0 
L 37.796875 0 
L 37.796875 17.1875 
L 4.890625 17.1875 
L 4.890625 26.703125 
z
" id="DejaVuSans-34"/>
      </defs>
      <g transform="translate(280.91293 322.182437)scale(0.1 -0.1)">
       <use xlink:href="#DejaVuSans-34"/>
       <use x="63.623047" xlink:href="#DejaVuSans-30"/>
       <use x="127.246094" xlink:href="#DejaVuSans-30"/>
      </g>
     </g>
    </g>
    <g id="xtick_6">
     <g id="line2d_6">
      <g>
       <use style="stroke:#000000;stroke-width:0.8;" x="344.612668" xlink:href="#m0d9fb8ab3e" y="307.584"/>
      </g>
     </g>
     <g id="text_6">
      <!-- 500 -->
      <defs>
       <path d="M 10.796875 72.90625 
L 49.515625 72.90625 
L 49.515625 64.59375 
L 19.828125 64.59375 
L 19.828125 46.734375 
Q 21.96875 47.46875 24.109375 47.828125 
Q 26.265625 48.1875 28.421875 48.1875 
Q 40.625 48.1875 47.75 41.5 
Q 54.890625 34.8125 54.890625 23.390625 
Q 54.890625 11.625 47.5625 5.09375 
Q 40.234375 -1.421875 26.90625 -1.421875 
Q 22.3125 -1.421875 17.546875 -0.640625 
Q 12.796875 0.140625 7.71875 1.703125 
L 7.71875 11.625 
Q 12.109375 9.234375 16.796875 8.0625 
Q 21.484375 6.890625 26.703125 6.890625 
Q 35.15625 6.890625 40.078125 11.328125 
Q 45.015625 15.765625 45.015625 23.390625 
Q 45.015625 31 40.078125 35.4375 
Q 35.15625 39.890625 26.703125 39.890625 
Q 22.75 39.890625 18.8125 39.015625 
Q 14.890625 38.140625 10.796875 36.28125 
z
" id="DejaVuSans-35"/>
      </defs>
      <g transform="translate(335.068918 322.182437)scale(0.1 -0.1)">
       <use xlink:href="#DejaVuSans-35"/>
       <use x="63.623047" xlink:href="#DejaVuSans-30"/>
       <use x="127.246094" xlink:href="#DejaVuSans-30"/>
      </g>
     </g>
    </g>
    <g id="xtick_7">
     <g id="line2d_7">
      <g>
       <use style="stroke:#000000;stroke-width:0.8;" x="398.768656" xlink:href="#m0d9fb8ab3e" y="307.584"/>
      </g>
     </g>
     <g id="text_7">
      <!-- 600 -->
      <defs>
       <path d="M 33.015625 40.375 
Q 26.375 40.375 22.484375 35.828125 
Q 18.609375 31.296875 18.609375 23.390625 
Q 18.609375 15.53125 22.484375 10.953125 
Q 26.375 6.390625 33.015625 6.390625 
Q 39.65625 6.390625 43.53125 10.953125 
Q 47.40625 15.53125 47.40625 23.390625 
Q 47.40625 31.296875 43.53125 35.828125 
Q 39.65625 40.375 33.015625 40.375 
z
M 52.59375 71.296875 
L 52.59375 62.3125 
Q 48.875 64.0625 45.09375 64.984375 
Q 41.3125 65.921875 37.59375 65.921875 
Q 27.828125 65.921875 22.671875 59.328125 
Q 17.53125 52.734375 16.796875 39.40625 
Q 19.671875 43.65625 24.015625 45.921875 
Q 28.375 48.1875 33.59375 48.1875 
Q 44.578125 48.1875 50.953125 41.515625 
Q 57.328125 34.859375 57.328125 23.390625 
Q 57.328125 12.15625 50.6875 5.359375 
Q 44.046875 -1.421875 33.015625 -1.421875 
Q 20.359375 -1.421875 13.671875 8.265625 
Q 6.984375 17.96875 6.984375 36.375 
Q 6.984375 53.65625 15.1875 63.9375 
Q 23.390625 74.21875 37.203125 74.21875 
Q 40.921875 74.21875 44.703125 73.484375 
Q 48.484375 72.75 52.59375 71.296875 
z
" id="DejaVuSans-36"/>
      </defs>
      <g transform="translate(389.224906 322.182437)scale(0.1 -0.1)">
       <use xlink:href="#DejaVuSans-36"/>
       <use x="63.623047" xlink:href="#DejaVuSans-30"/>
       <use x="127.246094" xlink:href="#DejaVuSans-30"/>
      </g>
     </g>
    </g>
    <g id="text_8">
     <!-- t(s) -->
     <defs>
      <path d="M 18.3125 70.21875 
L 18.3125 54.6875 
L 36.8125 54.6875 
L 36.8125 47.703125 
L 18.3125 47.703125 
L 18.3125 18.015625 
Q 18.3125 11.328125 20.140625 9.421875 
Q 21.96875 7.515625 27.59375 7.515625 
L 36.8125 7.515625 
L 36.8125 0 
L 27.59375 0 
Q 17.1875 0 13.234375 3.875 
Q 9.28125 7.765625 9.28125 18.015625 
L 9.28125 47.703125 
L 2.6875 47.703125 
L 2.6875 54.6875 
L 9.28125 54.6875 
L 9.28125 70.21875 
z
" id="DejaVuSans-74"/>
      <path d="M 31 75.875 
Q 24.46875 64.65625 21.28125 53.65625 
Q 18.109375 42.671875 18.109375 31.390625 
Q 18.109375 20.125 21.3125 9.0625 
Q 24.515625 -2 31 -13.1875 
L 23.1875 -13.1875 
Q 15.875 -1.703125 12.234375 9.375 
Q 8.59375 20.453125 8.59375 31.390625 
Q 8.59375 42.28125 12.203125 53.3125 
Q 15.828125 64.359375 23.1875 75.875 
z
" id="DejaVuSans-28"/>
      <path d="M 44.28125 53.078125 
L 44.28125 44.578125 
Q 40.484375 46.53125 36.375 47.5 
Q 32.28125 48.484375 27.875 48.484375 
Q 21.1875 48.484375 17.84375 46.4375 
Q 14.5 44.390625 14.5 40.28125 
Q 14.5 37.15625 16.890625 35.375 
Q 19.28125 33.59375 26.515625 31.984375 
L 29.59375 31.296875 
Q 39.15625 29.25 43.1875 25.515625 
Q 47.21875 21.78125 47.21875 15.09375 
Q 47.21875 7.46875 41.1875 3.015625 
Q 35.15625 -1.421875 24.609375 -1.421875 
Q 20.21875 -1.421875 15.453125 -0.5625 
Q 10.6875 0.296875 5.421875 2 
L 5.421875 11.28125 
Q 10.40625 8.6875 15.234375 7.390625 
Q 20.0625 6.109375 24.8125 6.109375 
Q 31.15625 6.109375 34.5625 8.28125 
Q 37.984375 10.453125 37.984375 14.40625 
Q 37.984375 18.0625 35.515625 20.015625 
Q 33.0625 21.96875 24.703125 23.78125 
L 21.578125 24.515625 
Q 13.234375 26.265625 9.515625 29.90625 
Q 5.8125 33.546875 5.8125 39.890625 
Q 5.8125 47.609375 11.28125 51.796875 
Q 16.75 56 26.8125 56 
Q 31.78125 56 36.171875 55.265625 
Q 40.578125 54.546875 44.28125 53.078125 
z
" id="DejaVuSans-73"/>
      <path d="M 8.015625 75.875 
L 15.828125 75.875 
Q 23.140625 64.359375 26.78125 53.3125 
Q 30.421875 42.28125 30.421875 31.390625 
Q 30.421875 20.453125 26.78125 9.375 
Q 23.140625 -1.703125 15.828125 -13.1875 
L 8.015625 -13.1875 
Q 14.5 -2 17.703125 9.0625 
Q 20.90625 20.125 20.90625 31.390625 
Q 20.90625 42.671875 17.703125 53.65625 
Q 14.5 64.65625 8.015625 75.875 
z
" id="DejaVuSans-29"/>
     </defs>
     <g transform="translate(227.693594 335.860562)scale(0.1 -0.1)">
      <use xlink:href="#DejaVuSans-74"/>
      <use x="39.208984" xlink:href="#DejaVuSans-28"/>
      <use x="78.222656" xlink:href="#DejaVuSans-73"/>
      <use x="130.322266" xlink:href="#DejaVuSans-29"/>
     </g>
    </g>
   </g>
   <g id="matplotlib.axis_2">
    <g id="ytick_1">
     <g id="line2d_8">
      <defs>
       <path d="M 0 0 
L -3.5 0 
" id="m95ae9857c3" style="stroke:#000000;stroke-width:0.8;"/>
      </defs>
      <g>
       <use style="stroke:#000000;stroke-width:0.8;" x="57.6" xlink:href="#m95ae9857c3" y="292.675425"/>
      </g>
     </g>
     <g id="text_9">
      <!-- −0.1 -->
      <defs>
       <path d="M 10.59375 35.5 
L 73.1875 35.5 
L 73.1875 27.203125 
L 10.59375 27.203125 
z
" id="DejaVuSans-2212"/>
       <path d="M 10.6875 12.40625 
L 21 12.40625 
L 21 0 
L 10.6875 0 
z
" id="DejaVuSans-2e"/>
      </defs>
      <g transform="translate(26.317187 296.474643)scale(0.1 -0.1)">
       <use xlink:href="#DejaVuSans-2212"/>
       <use x="83.789062" xlink:href="#DejaVuSans-30"/>
       <use x="147.412109" xlink:href="#DejaVuSans-2e"/>
       <use x="179.199219" xlink:href="#DejaVuSans-31"/>
      </g>
     </g>
    </g>
    <g id="ytick_2">
     <g id="line2d_9">
      <g>
       <use style="stroke:#000000;stroke-width:0.8;" x="57.6" xlink:href="#m95ae9857c3" y="254.146997"/>
      </g>
     </g>
     <g id="text_10">
      <!-- 0.0 -->
      <g transform="translate(34.696875 257.946215)scale(0.1 -0.1)">
       <use xlink:href="#DejaVuSans-30"/>
       <use x="63.623047" xlink:href="#DejaVuSans-2e"/>
       <use x="95.410156" xlink:href="#DejaVuSans-30"/>
      </g>
     </g>
    </g>
    <g id="ytick_3">
     <g id="line2d_10">
      <g>
       <use style="stroke:#000000;stroke-width:0.8;" x="57.6" xlink:href="#m95ae9857c3" y="215.618569"/>
      </g>
     </g>
     <g id="text_11">
      <!-- 0.1 -->
      <g transform="translate(34.696875 219.417787)scale(0.1 -0.1)">
       <use xlink:href="#DejaVuSans-30"/>
       <use x="63.623047" xlink:href="#DejaVuSans-2e"/>
       <use x="95.410156" xlink:href="#DejaVuSans-31"/>
      </g>
     </g>
    </g>
    <g id="ytick_4">
     <g id="line2d_11">
      <g>
       <use style="stroke:#000000;stroke-width:0.8;" x="57.6" xlink:href="#m95ae9857c3" y="177.09014"/>
      </g>
     </g>
     <g id="text_12">
      <!-- 0.2 -->
      <g transform="translate(34.696875 180.889359)scale(0.1 -0.1)">
       <use xlink:href="#DejaVuSans-30"/>
       <use x="63.623047" xlink:href="#DejaVuSans-2e"/>
       <use x="95.410156" xlink:href="#DejaVuSans-32"/>
      </g>
     </g>
    </g>
    <g id="ytick_5">
     <g id="line2d_12">
      <g>
       <use style="stroke:#000000;stroke-width:0.8;" x="57.6" xlink:href="#m95ae9857c3" y="138.561712"/>
      </g>
     </g>
     <g id="text_13">
      <!-- 0.3 -->
      <g transform="translate(34.696875 142.360931)scale(0.1 -0.1)">
       <use xlink:href="#DejaVuSans-30"/>
       <use x="63.623047" xlink:href="#DejaVuSans-2e"/>
       <use x="95.410156" xlink:href="#DejaVuSans-33"/>
      </g>
     </g>
    </g>
    <g id="ytick_6">
     <g id="line2d_13">
      <g>
       <use style="stroke:#000000;stroke-width:0.8;" x="57.6" xlink:href="#m95ae9857c3" y="100.033284"/>
      </g>
     </g>
     <g id="text_14">
      <!-- 0.4 -->
      <g transform="translate(34.696875 103.832503)scale(0.1 -0.1)">
       <use xlink:href="#DejaVuSans-30"/>
       <use x="63.623047" xlink:href="#DejaVuSans-2e"/>
       <use x="95.410156" xlink:href="#DejaVuSans-34"/>
      </g>
     </g>
    </g>
    <g id="ytick_7">
     <g id="line2d_14">
      <g>
       <use style="stroke:#000000;stroke-width:0.8;" x="57.6" xlink:href="#m95ae9857c3" y="61.504856"/>
      </g>
     </g>
     <g id="text_15">
      <!-- 0.5 -->
      <g transform="translate(34.696875 65.304075)scale(0.1 -0.1)">
       <use xlink:href="#DejaVuSans-30"/>
       <use x="63.623047" xlink:href="#DejaVuSans-2e"/>
       <use x="95.410156" xlink:href="#DejaVuSans-35"/>
      </g>
     </g>
    </g>
    <g id="text_16">
     <!-- Current (nA) -->
     <defs>
      <path d="M 64.40625 67.28125 
L 64.40625 56.890625 
Q 59.421875 61.53125 53.78125 63.8125 
Q 48.140625 66.109375 41.796875 66.109375 
Q 29.296875 66.109375 22.65625 58.46875 
Q 16.015625 50.828125 16.015625 36.375 
Q 16.015625 21.96875 22.65625 14.328125 
Q 29.296875 6.6875 41.796875 6.6875 
Q 48.140625 6.6875 53.78125 8.984375 
Q 59.421875 11.28125 64.40625 15.921875 
L 64.40625 5.609375 
Q 59.234375 2.09375 53.4375 0.328125 
Q 47.65625 -1.421875 41.21875 -1.421875 
Q 24.65625 -1.421875 15.125 8.703125 
Q 5.609375 18.84375 5.609375 36.375 
Q 5.609375 53.953125 15.125 64.078125 
Q 24.65625 74.21875 41.21875 74.21875 
Q 47.75 74.21875 53.53125 72.484375 
Q 59.328125 70.75 64.40625 67.28125 
z
" id="DejaVuSans-43"/>
      <path d="M 8.5 21.578125 
L 8.5 54.6875 
L 17.484375 54.6875 
L 17.484375 21.921875 
Q 17.484375 14.15625 20.5 10.265625 
Q 23.53125 6.390625 29.59375 6.390625 
Q 36.859375 6.390625 41.078125 11.03125 
Q 45.3125 15.671875 45.3125 23.6875 
L 45.3125 54.6875 
L 54.296875 54.6875 
L 54.296875 0 
L 45.3125 0 
L 45.3125 8.40625 
Q 42.046875 3.421875 37.71875 1 
Q 33.40625 -1.421875 27.6875 -1.421875 
Q 18.265625 -1.421875 13.375 4.4375 
Q 8.5 10.296875 8.5 21.578125 
z
M 31.109375 56 
z
" id="DejaVuSans-75"/>
      <path d="M 41.109375 46.296875 
Q 39.59375 47.171875 37.8125 47.578125 
Q 36.03125 48 33.890625 48 
Q 26.265625 48 22.1875 43.046875 
Q 18.109375 38.09375 18.109375 28.8125 
L 18.109375 0 
L 9.078125 0 
L 9.078125 54.6875 
L 18.109375 54.6875 
L 18.109375 46.1875 
Q 20.953125 51.171875 25.484375 53.578125 
Q 30.03125 56 36.53125 56 
Q 37.453125 56 38.578125 55.875 
Q 39.703125 55.765625 41.0625 55.515625 
z
" id="DejaVuSans-72"/>
      <path d="M 56.203125 29.59375 
L 56.203125 25.203125 
L 14.890625 25.203125 
Q 15.484375 15.921875 20.484375 11.0625 
Q 25.484375 6.203125 34.421875 6.203125 
Q 39.59375 6.203125 44.453125 7.46875 
Q 49.3125 8.734375 54.109375 11.28125 
L 54.109375 2.78125 
Q 49.265625 0.734375 44.1875 -0.34375 
Q 39.109375 -1.421875 33.890625 -1.421875 
Q 20.796875 -1.421875 13.15625 6.1875 
Q 5.515625 13.8125 5.515625 26.8125 
Q 5.515625 40.234375 12.765625 48.109375 
Q 20.015625 56 32.328125 56 
Q 43.359375 56 49.78125 48.890625 
Q 56.203125 41.796875 56.203125 29.59375 
z
M 47.21875 32.234375 
Q 47.125 39.59375 43.09375 43.984375 
Q 39.0625 48.390625 32.421875 48.390625 
Q 24.90625 48.390625 20.390625 44.140625 
Q 15.875 39.890625 15.1875 32.171875 
z
" id="DejaVuSans-65"/>
      <path d="M 54.890625 33.015625 
L 54.890625 0 
L 45.90625 0 
L 45.90625 32.71875 
Q 45.90625 40.484375 42.875 44.328125 
Q 39.84375 48.1875 33.796875 48.1875 
Q 26.515625 48.1875 22.3125 43.546875 
Q 18.109375 38.921875 18.109375 30.90625 
L 18.109375 0 
L 9.078125 0 
L 9.078125 54.6875 
L 18.109375 54.6875 
L 18.109375 46.1875 
Q 21.34375 51.125 25.703125 53.5625 
Q 30.078125 56 35.796875 56 
Q 45.21875 56 50.046875 50.171875 
Q 54.890625 44.34375 54.890625 33.015625 
z
" id="DejaVuSans-6e"/>
      <path id="DejaVuSans-20"/>
      <path d="M 34.1875 63.1875 
L 20.796875 26.90625 
L 47.609375 26.90625 
z
M 28.609375 72.90625 
L 39.796875 72.90625 
L 67.578125 0 
L 57.328125 0 
L 50.6875 18.703125 
L 17.828125 18.703125 
L 11.1875 0 
L 0.78125 0 
z
" id="DejaVuSans-41"/>
     </defs>
     <g transform="translate(20.2375 205.581906)rotate(-90)scale(0.1 -0.1)">
      <use xlink:href="#DejaVuSans-43"/>
      <use x="69.824219" xlink:href="#DejaVuSans-75"/>
      <use x="133.203125" xlink:href="#DejaVuSans-72"/>
      <use x="174.300781" xlink:href="#DejaVuSans-72"/>
      <use x="215.382812" xlink:href="#DejaVuSans-65"/>
      <use x="276.90625" xlink:href="#DejaVuSans-6e"/>
      <use x="340.285156" xlink:href="#DejaVuSans-74"/>
      <use x="379.494141" xlink:href="#DejaVuSans-20"/>
      <use x="411.28125" xlink:href="#DejaVuSans-28"/>
      <use x="450.294922" xlink:href="#DejaVuSans-6e"/>
      <use x="513.673828" xlink:href="#DejaVuSans-41"/>
      <use x="582.082031" xlink:href="#DejaVuSans-29"/>
     </g>
    </g>
   </g>
   <g id="line2d_15">
    <path clip-path="url(#p5601a0052a)" d="M 73.832727 110.43596 
L 74.362823 105.157565 
L 74.892393 118.180174 
L 75.421963 117.756361 
L 75.951533 117.139906 
L 76.481104 113.903518 
L 77.010674 125.731746 
L 77.540244 117.871946 
L 78.069814 97.413351 
L 78.599384 295.488 
L 79.128954 53.568 
L 79.658525 187.415759 
L 80.188095 129.276361 
L 80.717665 118.796629 
L 81.247235 124.036495 
L 81.776805 121.994488 
L 82.306375 124.460308 
L 82.835946 124.421779 
L 83.365516 123.18887 
L 83.895086 124.075023 
L 84.424656 123.111813 
L 84.954226 125.731746 
L 85.483797 123.535625 
L 86.013367 122.726528 
L 86.542937 131.626595 
L 87.072507 119.759839 
L 87.602077 124.15208 
L 88.131648 124.614421 
L 88.661218 123.651211 
L 89.190788 128.621378 
L 89.720358 119.682783 
L 90.249928 132.898033 
L 90.779498 122.495358 
L 91.309069 126.078502 
L 91.838639 127.850809 
L 92.368209 121.185391 
L 92.897779 133.398903 
L 93.427349 123.458569 
L 93.956919 133.090676 
L 94.48649 126.386729 
L 95.01606 132.74392 
L 95.54563 134.400642 
L 96.0752 121.378033 
L 96.60477 134.208 
L 97.13434 126.309672 
L 97.663911 128.390207 
L 98.193481 129.469003 
L 98.723051 125.847331 
L 99.252621 129.276361 
L 99.782191 125.731746 
L 100.311762 130.586328 
L 100.841332 128.313151 
L 101.900472 130.856027 
L 102.430042 126.348201 
L 102.959613 131.164254 
L 103.489183 128.08198 
L 104.018753 127.542582 
L 104.548323 127.812281 
L 105.077893 127.58111 
L 105.607463 132.551278 
L 106.137034 127.927866 
L 106.666604 129.584589 
L 107.196174 133.398903 
L 107.725744 127.34994 
L 108.255314 134.362114 
L 108.784884 125.654689 
L 109.314455 131.857766 
L 109.844025 130.971612 
L 110.373595 127.272883 
L 110.903165 134.593284 
L 111.439525 125.731746 
L 111.976898 125.230876 
L 112.51427 133.321846 
L 113.051643 137.367331 
L 113.589015 136.827933 
L 114.126388 130.085458 
L 114.66376 127.234355 
L 115.201133 125.230876 
L 116.275878 139.293753 
L 116.81325 138.715826 
L 117.350623 131.51101 
L 117.887995 127.003184 
L 118.425367 129.122247 
L 118.96274 132.512749 
L 119.500113 138.985525 
L 120.037485 138.484656 
L 120.574857 132.435692 
L 121.11223 129.122247 
L 121.649602 130.04693 
L 122.186975 133.013619 
L 122.724347 137.675559 
L 123.26172 129.237833 
L 123.799092 134.092415 
L 124.336465 132.782448 
L 124.873837 129.969873 
L 125.41121 132.474221 
L 125.948582 135.595023 
L 126.485955 134.785926 
L 127.023327 135.248268 
L 127.5607 133.861244 
L 128.098072 134.130943 
L 128.635445 132.589806 
L 129.172817 132.589806 
L 129.71019 134.130943 
L 130.247562 134.70887 
L 130.784935 134.439171 
L 131.322307 132.320107 
L 131.85968 134.978569 
L 132.397052 135.67208 
L 132.934425 132.936562 
L 133.471797 131.087197 
L 134.00917 134.670341 
L 134.546542 134.516227 
L 135.083915 137.559973 
L 135.621287 137.906729 
L 136.158659 136.211478 
L 136.696032 136.17295 
L 137.233405 132.628334 
L 137.770777 136.057365 
L 138.845522 132.551278 
L 139.382894 134.053886 
L 139.920267 136.866462 
L 140.457639 137.791144 
L 140.995012 139.756094 
L 141.532384 137.097632 
L 142.069757 133.70713 
L 142.607129 133.553017 
L 143.681874 143.03101 
L 144.219247 140.680776 
L 144.756619 137.290274 
L 145.293992 136.712348 
L 145.831364 134.323585 
L 146.368737 137.63703 
L 147.443482 138.677298 
L 147.980854 135.248268 
L 148.518227 133.630074 
L 149.055599 135.286796 
L 149.592972 136.018836 
L 150.130344 137.020575 
L 150.667717 142.915425 
L 151.205089 138.523184 
L 151.742462 137.63703 
L 152.279834 138.523184 
L 152.817207 135.67208 
L 153.354579 139.255224 
L 153.891952 138.36907 
L 154.429324 144.687732 
L 154.966696 139.255224 
L 155.504069 138.407599 
L 156.041442 134.169472 
L 157.116186 143.300709 
L 157.653559 142.221913 
L 158.190932 138.86994 
L 158.728304 139.024054 
L 159.265676 140.179906 
L 159.803049 137.945258 
L 160.340421 139.679037 
L 160.877794 139.178167 
L 161.415166 140.526662 
L 161.952539 138.86994 
L 162.489911 141.412816 
L 163.027284 136.90499 
L 163.564656 139.255224 
L 164.102029 141.104589 
L 164.639401 142.53014 
L 165.176774 141.258702 
L 165.714146 141.06606 
L 166.251519 141.258702 
L 166.788891 140.565191 
L 167.326264 139.139639 
L 167.863636 142.953953 
L 168.401009 143.069538 
L 168.938381 140.102849 
L 169.475754 139.794622 
L 170.013126 138.600241 
L 170.550499 141.06606 
L 171.087871 141.297231 
L 171.625244 146.22887 
L 172.162616 142.491612 
L 172.699989 140.256963 
L 173.237361 135.171211 
L 173.774734 138.1379 
L 174.312106 143.76305 
L 174.849479 145.073017 
L 175.386851 145.111545 
L 175.924223 139.447866 
L 176.461596 135.286796 
L 176.998969 137.906729 
L 178.073713 148.347933 
L 178.611086 146.036227 
L 179.148458 140.102849 
L 179.685831 140.179906 
L 180.223203 136.827933 
L 180.760576 143.917164 
L 181.297948 146.614154 
L 181.835321 144.687732 
L 182.910066 138.022314 
L 183.447438 142.414555 
L 183.984811 143.339237 
L 184.522183 143.493351 
L 185.059556 144.456562 
L 186.134301 142.221913 
L 186.671673 138.176428 
L 187.209046 143.647465 
L 188.283791 146.113284 
L 188.821163 144.99596 
L 189.358536 142.722783 
L 189.895908 142.684254 
L 190.433281 144.302448 
L 190.970653 143.223652 
L 191.508026 145.22713 
L 192.045398 142.106328 
L 192.582771 144.26392 
L 193.120143 142.067799 
L 193.657515 141.181645 
L 194.194888 143.339237 
L 194.732261 144.379505 
L 195.269633 148.116763 
L 195.807005 145.882114 
L 196.344378 141.682515 
L 196.88175 141.913686 
L 197.957031 147.346194 
L 198.494404 148.386462 
L 199.031776 146.498569 
L 199.569148 144.148334 
L 200.106521 139.216696 
L 201.181266 150.004656 
L 201.718638 151.738435 
L 202.256011 146.537097 
L 202.793383 139.640508 
L 203.868128 144.302448 
L 204.405501 145.573886 
L 204.942873 146.305926 
L 205.480246 146.845324 
L 206.017618 145.034488 
L 206.554991 142.106328 
L 207.092363 142.838368 
L 207.629736 146.845324 
L 208.167108 145.882114 
L 208.704481 146.46004 
L 209.241853 145.920642 
L 209.779226 144.957431 
L 210.316598 144.726261 
L 210.853971 145.766528 
L 211.391343 147.615893 
L 211.928716 151.237565 
L 212.466088 147.770007 
L 213.540833 142.183385 
L 214.078206 147.115023 
L 214.615578 148.887331 
L 215.152951 146.305926 
L 215.690323 150.004656 
L 216.227696 146.806796 
L 216.765068 144.572147 
L 217.302441 143.840107 
L 217.839813 147.19208 
L 218.377186 147.115023 
L 218.914558 149.349672 
L 219.451931 147.770007 
L 219.989303 146.537097 
L 220.527211 146.537097 
L 221.064584 149.311144 
L 221.601956 150.312883 
L 222.139329 155.78392 
L 222.676701 148.502047 
L 223.214074 144.764789 
L 223.751446 142.144856 
L 224.288819 147.037967 
L 224.826191 150.544054 
L 225.363564 150.351411 
L 226.438309 146.074756 
L 226.975681 145.612415 
L 227.513054 147.384722 
L 228.050426 149.773485 
L 228.587799 151.314622 
L 229.125171 149.734957 
L 229.662544 147.615893 
L 230.199916 148.540575 
L 230.737289 146.729739 
L 231.812034 150.698167 
L 232.349406 150.428468 
L 232.886778 147.577365 
L 233.961524 145.959171 
L 234.498896 148.540575 
L 235.573641 152.200776 
L 236.111013 147.92412 
L 236.648386 147.847064 
L 237.185758 145.997699 
L 237.723131 148.617632 
L 238.260503 149.118502 
L 238.797876 148.078234 
L 239.335248 150.505525 
L 239.872621 150.351411 
L 240.409993 149.6579 
L 240.947366 149.580843 
L 241.484738 148.733217 
L 242.022111 150.312883 
L 242.559483 148.193819 
L 243.096856 150.274355 
L 243.634228 149.966127 
L 244.708973 151.507264 
L 245.246346 149.15703 
L 245.783718 148.771746 
L 246.321091 148.810274 
L 246.858463 149.580843 
L 247.395836 151.468736 
L 247.933208 149.6579 
L 248.470581 150.158769 
L 249.007953 150.158769 
L 249.545326 149.349672 
L 250.082698 152.855759 
L 251.157443 146.806796 
L 251.694816 144.26392 
L 252.232188 150.967866 
L 252.76956 153.472214 
L 253.306933 151.892548 
L 253.844305 151.044923 
L 254.381678 151.699906 
L 254.91905 150.698167 
L 255.456423 151.12198 
L 255.993795 150.235826 
L 256.531168 152.932816 
L 257.06854 149.619371 
L 257.605913 151.199037 
L 258.143285 151.622849 
L 258.680658 157.325057 
L 259.21803 153.587799 
L 259.755403 148.810274 
L 260.292775 146.537097 
L 260.830148 145.188602 
L 261.904893 156.053619 
L 262.442265 159.790876 
L 262.979638 160.137632 
L 263.51701 152.701645 
L 264.054383 147.500308 
L 264.591755 140.989003 
L 265.129128 141.643987 
L 265.6665 150.197298 
L 266.203873 155.360107 
L 266.741245 162.564923 
L 267.278618 159.94499 
L 267.81599 153.896027 
L 268.353363 146.267398 
L 268.890735 140.372548 
L 269.428108 140.295492 
L 269.96548 146.46004 
L 270.502853 156.053619 
L 271.040225 158.904722 
L 271.577597 168.305659 
L 272.117033 163.720776 
L 272.657074 162.256696 
L 273.197116 166.80305 
L 273.737157 164.876629 
L 274.277199 165.261913 
L 274.81724 162.911679 
L 275.357281 163.643719 
L 275.897323 162.372281 
L 276.437364 158.095625 
L 276.977406 160.176161 
L 277.517447 161.601712 
L 278.057489 160.253217 
L 278.59753 158.442381 
L 279.137572 157.74887 
L 279.677613 157.710341 
L 280.217654 156.862716 
L 280.757696 156.824187 
L 281.297737 157.286528 
L 281.837779 154.974823 
L 282.37782 156.554488 
L 282.917862 153.664856 
L 283.457903 154.204254 
L 283.997945 154.127197 
L 284.537986 153.433686 
L 285.078028 152.200776 
L 285.618069 153.08693 
L 286.698152 151.738435 
L 287.238193 151.160508 
L 287.778235 150.235826 
L 288.318276 150.659639 
L 288.858318 149.927599 
L 289.398359 149.388201 
L 289.938401 150.775224 
L 290.478442 150.698167 
L 291.018483 148.848803 
L 291.558525 147.962649 
L 292.098567 148.309405 
L 292.638608 149.195559 
L 293.178649 147.076495 
L 293.718691 146.806796 
L 294.258732 146.382983 
L 294.798774 147.076495 
L 295.338815 147.037967 
L 295.878857 146.190341 
L 296.418898 143.608936 
L 296.95894 144.186863 
L 297.498981 145.728 
L 298.039023 145.304187 
L 298.579064 144.379505 
L 299.119105 138.292013 
L 299.659147 142.761311 
L 300.199188 142.761311 
L 300.73923 142.607197 
L 301.279271 140.565191 
L 301.819313 139.255224 
L 302.359354 136.943518 
L 302.899396 139.409338 
L 303.439437 139.139639 
L 303.979479 139.293753 
L 304.51952 136.90499 
L 305.059561 140.989003 
L 305.599603 139.370809 
L 306.139644 138.754355 
L 306.679686 139.332281 
L 307.219727 140.680776 
L 307.759769 141.06606 
L 308.29981 144.148334 
L 308.839852 143.416294 
L 309.379893 143.878635 
L 310.459976 143.454823 
L 311.000018 143.146595 
L 312.0801 145.419773 
L 312.620142 145.111545 
L 313.160183 146.305926 
L 313.700225 147.037967 
L 314.780308 146.537097 
L 315.320349 147.808535 
L 315.860391 147.384722 
L 316.400432 145.188602 
L 316.940474 147.770007 
L 317.480515 145.342716 
L 318.020556 146.729739 
L 318.560598 145.689472 
L 319.100639 145.650943 
L 319.640681 146.074756 
L 320.180722 145.034488 
L 320.720764 147.384722 
L 321.260805 145.805057 
L 321.800847 147.269137 
L 322.340888 146.382983 
L 322.880929 148.810274 
L 323.420971 147.808535 
L 323.961012 149.195559 
L 324.501054 150.197298 
L 325.041095 149.6579 
L 325.581676 147.115023 
L 326.121718 148.309405 
L 327.201801 149.619371 
L 327.741842 149.349672 
L 328.281884 151.507264 
L 328.821925 155.591278 
L 329.361966 155.938033 
L 329.902008 159.135893 
L 330.442049 161.139371 
L 330.982091 162.102582 
L 331.522132 161.139371 
L 332.062174 164.722515 
L 332.602215 165.724254 
L 333.142257 166.148067 
L 333.682298 167.149806 
L 334.22234 169.037699 
L 334.762381 167.573619 
L 335.302423 168.151545 
L 335.842464 167.958903 
L 336.382505 169.577097 
L 336.922547 168.536829 
L 337.462588 168.845057 
L 338.00263 170.155023 
L 338.542671 169.731211 
L 339.082713 165.878368 
L 339.622754 167.380977 
L 340.162796 169.769739 
L 340.702837 170.540308 
L 341.242878 165.647197 
L 341.78292 168.26713 
L 342.322961 167.920375 
L 342.863003 167.342448 
L 343.403044 168.768 
L 343.943086 169.808268 
L 344.483127 165.608669 
L 345.023169 169.076227 
L 345.56321 170.039438 
L 346.103252 170.00091 
L 346.643293 169.577097 
L 347.183334 170.655893 
L 347.723376 169.885324 
L 348.263417 170.501779 
L 348.803459 171.696161 
L 349.3435 170.193552 
L 349.883542 168.074488 
L 350.423583 167.342448 
L 350.963625 167.573619 
L 351.503666 168.190074 
L 352.043708 170.887064 
L 352.583749 167.380977 
L 353.12379 168.26713 
L 353.663832 164.221645 
L 354.203873 165.493084 
L 354.743915 164.144589 
L 355.283956 164.529873 
L 355.823998 164.10606 
L 356.364039 162.680508 
L 356.904081 162.449338 
L 357.984164 162.796094 
L 359.064246 160.44586 
L 359.604288 161.1779 
L 360.144329 163.335492 
L 360.684371 163.797833 
L 361.764454 160.599973 
L 362.304495 161.40907 
L 362.844537 162.757565 
L 363.384578 161.640241 
L 363.92462 173.391411 
L 364.464661 93.329338 
L 365.004703 176.512214 
L 365.544744 161.90994 
L 366.084785 160.715559 
L 366.624827 165.300441 
L 367.164868 161.524656 
L 367.70491 163.797833 
L 368.244951 164.992214 
L 368.784993 168.536829 
L 369.325034 166.07101 
L 369.865076 168.151545 
L 370.405117 172.890542 
L 370.945159 170.578836 
L 371.4852 173.314355 
L 372.025241 175.009605 
L 372.565283 177.321311 
L 373.105324 177.513953 
L 373.645366 178.207465 
L 374.185407 179.247732 
L 374.725449 177.128669 
L 375.26549 177.552482 
L 375.805532 184.680241 
L 376.885615 175.471946 
L 377.425656 179.710074 
L 377.965697 176.85897 
L 378.505739 178.785391 
L 379.04578 179.093619 
L 379.585822 178.554221 
L 380.125863 178.978033 
L 380.665905 176.974555 
L 381.745988 178.82392 
L 382.286029 176.666328 
L 382.826071 178.631278 
L 383.366112 176.589271 
L 384.446195 173.892281 
L 384.986236 173.892281 
L 385.526278 177.128669 
L 386.606361 172.389672 
L 387.146402 172.389672 
L 387.686444 170.848535 
L 388.226485 171.503518 
L 388.766527 170.347666 
L 389.306568 157.363585 
L 389.846609 173.815224 
L 390.386651 168.190074 
L 390.926692 166.302181 
L 391.466734 162.410809 
L 392.006775 159.752348 
L 392.546817 155.360107 
L 393.086858 149.619371 
L 393.6269 150.813753 
L 394.166941 150.120241 
L 394.706983 145.150074 
L 395.247024 150.698167 
L 395.787065 147.230609 
L 396.327107 131.202783 
L 396.867148 135.710609 
L 397.40719 143.493351 
L 397.947231 138.754355 
L 398.487273 140.950475 
L 398.487273 140.950475 
" style="fill:none;stroke:#1f77b4;stroke-linecap:square;stroke-width:1.5;"/>
   </g>
   <g id="patch_3">
    <path d="M 57.6 307.584 
L 57.6 41.472 
" style="fill:none;stroke:#000000;stroke-linecap:square;stroke-linejoin:miter;stroke-width:0.8;"/>
   </g>
   <g id="patch_4">
    <path d="M 414.72 307.584 
L 414.72 41.472 
" style="fill:none;stroke:#000000;stroke-linecap:square;stroke-linejoin:miter;stroke-width:0.8;"/>
   </g>
   <g id="patch_5">
    <path d="M 57.6 307.584 
L 414.72 307.584 
" style="fill:none;stroke:#000000;stroke-linecap:square;stroke-linejoin:miter;stroke-width:0.8;"/>
   </g>
   <g id="patch_6">
    <path d="M 57.6 41.472 
L 414.72 41.472 
" style="fill:none;stroke:#000000;stroke-linecap:square;stroke-linejoin:miter;stroke-width:0.8;"/>
   </g>
   <g id="text_17">
    <!-- Current with source voltage 1000.0 mV -->
    <defs>
     <path d="M 4.203125 54.6875 
L 13.1875 54.6875 
L 24.421875 12.015625 
L 35.59375 54.6875 
L 46.1875 54.6875 
L 57.421875 12.015625 
L 68.609375 54.6875 
L 77.59375 54.6875 
L 63.28125 0 
L 52.6875 0 
L 40.921875 44.828125 
L 29.109375 0 
L 18.5 0 
z
" id="DejaVuSans-77"/>
     <path d="M 9.421875 54.6875 
L 18.40625 54.6875 
L 18.40625 0 
L 9.421875 0 
z
M 9.421875 75.984375 
L 18.40625 75.984375 
L 18.40625 64.59375 
L 9.421875 64.59375 
z
" id="DejaVuSans-69"/>
     <path d="M 54.890625 33.015625 
L 54.890625 0 
L 45.90625 0 
L 45.90625 32.71875 
Q 45.90625 40.484375 42.875 44.328125 
Q 39.84375 48.1875 33.796875 48.1875 
Q 26.515625 48.1875 22.3125 43.546875 
Q 18.109375 38.921875 18.109375 30.90625 
L 18.109375 0 
L 9.078125 0 
L 9.078125 75.984375 
L 18.109375 75.984375 
L 18.109375 46.1875 
Q 21.34375 51.125 25.703125 53.5625 
Q 30.078125 56 35.796875 56 
Q 45.21875 56 50.046875 50.171875 
Q 54.890625 44.34375 54.890625 33.015625 
z
" id="DejaVuSans-68"/>
     <path d="M 30.609375 48.390625 
Q 23.390625 48.390625 19.1875 42.75 
Q 14.984375 37.109375 14.984375 27.296875 
Q 14.984375 17.484375 19.15625 11.84375 
Q 23.34375 6.203125 30.609375 6.203125 
Q 37.796875 6.203125 41.984375 11.859375 
Q 46.1875 17.53125 46.1875 27.296875 
Q 46.1875 37.015625 41.984375 42.703125 
Q 37.796875 48.390625 30.609375 48.390625 
z
M 30.609375 56 
Q 42.328125 56 49.015625 48.375 
Q 55.71875 40.765625 55.71875 27.296875 
Q 55.71875 13.875 49.015625 6.21875 
Q 42.328125 -1.421875 30.609375 -1.421875 
Q 18.84375 -1.421875 12.171875 6.21875 
Q 5.515625 13.875 5.515625 27.296875 
Q 5.515625 40.765625 12.171875 48.375 
Q 18.84375 56 30.609375 56 
z
" id="DejaVuSans-6f"/>
     <path d="M 48.78125 52.59375 
L 48.78125 44.1875 
Q 44.96875 46.296875 41.140625 47.34375 
Q 37.3125 48.390625 33.40625 48.390625 
Q 24.65625 48.390625 19.8125 42.84375 
Q 14.984375 37.3125 14.984375 27.296875 
Q 14.984375 17.28125 19.8125 11.734375 
Q 24.65625 6.203125 33.40625 6.203125 
Q 37.3125 6.203125 41.140625 7.25 
Q 44.96875 8.296875 48.78125 10.40625 
L 48.78125 2.09375 
Q 45.015625 0.34375 40.984375 -0.53125 
Q 36.96875 -1.421875 32.421875 -1.421875 
Q 20.0625 -1.421875 12.78125 6.34375 
Q 5.515625 14.109375 5.515625 27.296875 
Q 5.515625 40.671875 12.859375 48.328125 
Q 20.21875 56 33.015625 56 
Q 37.15625 56 41.109375 55.140625 
Q 45.0625 54.296875 48.78125 52.59375 
z
" id="DejaVuSans-63"/>
     <path d="M 2.984375 54.6875 
L 12.5 54.6875 
L 29.59375 8.796875 
L 46.6875 54.6875 
L 56.203125 54.6875 
L 35.6875 0 
L 23.484375 0 
z
" id="DejaVuSans-76"/>
     <path d="M 9.421875 75.984375 
L 18.40625 75.984375 
L 18.40625 0 
L 9.421875 0 
z
" id="DejaVuSans-6c"/>
     <path d="M 34.28125 27.484375 
Q 23.390625 27.484375 19.1875 25 
Q 14.984375 22.515625 14.984375 16.5 
Q 14.984375 11.71875 18.140625 8.90625 
Q 21.296875 6.109375 26.703125 6.109375 
Q 34.1875 6.109375 38.703125 11.40625 
Q 43.21875 16.703125 43.21875 25.484375 
L 43.21875 27.484375 
z
M 52.203125 31.203125 
L 52.203125 0 
L 43.21875 0 
L 43.21875 8.296875 
Q 40.140625 3.328125 35.546875 0.953125 
Q 30.953125 -1.421875 24.3125 -1.421875 
Q 15.921875 -1.421875 10.953125 3.296875 
Q 6 8.015625 6 15.921875 
Q 6 25.140625 12.171875 29.828125 
Q 18.359375 34.515625 30.609375 34.515625 
L 43.21875 34.515625 
L 43.21875 35.40625 
Q 43.21875 41.609375 39.140625 45 
Q 35.0625 48.390625 27.6875 48.390625 
Q 23 48.390625 18.546875 47.265625 
Q 14.109375 46.140625 10.015625 43.890625 
L 10.015625 52.203125 
Q 14.9375 54.109375 19.578125 55.046875 
Q 24.21875 56 28.609375 56 
Q 40.484375 56 46.34375 49.84375 
Q 52.203125 43.703125 52.203125 31.203125 
z
" id="DejaVuSans-61"/>
     <path d="M 45.40625 27.984375 
Q 45.40625 37.75 41.375 43.109375 
Q 37.359375 48.484375 30.078125 48.484375 
Q 22.859375 48.484375 18.828125 43.109375 
Q 14.796875 37.75 14.796875 27.984375 
Q 14.796875 18.265625 18.828125 12.890625 
Q 22.859375 7.515625 30.078125 7.515625 
Q 37.359375 7.515625 41.375 12.890625 
Q 45.40625 18.265625 45.40625 27.984375 
z
M 54.390625 6.78125 
Q 54.390625 -7.171875 48.1875 -13.984375 
Q 42 -20.796875 29.203125 -20.796875 
Q 24.46875 -20.796875 20.265625 -20.09375 
Q 16.0625 -19.390625 12.109375 -17.921875 
L 12.109375 -9.1875 
Q 16.0625 -11.328125 19.921875 -12.34375 
Q 23.78125 -13.375 27.78125 -13.375 
Q 36.625 -13.375 41.015625 -8.765625 
Q 45.40625 -4.15625 45.40625 5.171875 
L 45.40625 9.625 
Q 42.625 4.78125 38.28125 2.390625 
Q 33.9375 0 27.875 0 
Q 17.828125 0 11.671875 7.65625 
Q 5.515625 15.328125 5.515625 27.984375 
Q 5.515625 40.671875 11.671875 48.328125 
Q 17.828125 56 27.875 56 
Q 33.9375 56 38.28125 53.609375 
Q 42.625 51.21875 45.40625 46.390625 
L 45.40625 54.6875 
L 54.390625 54.6875 
z
" id="DejaVuSans-67"/>
     <path d="M 52 44.1875 
Q 55.375 50.25 60.0625 53.125 
Q 64.75 56 71.09375 56 
Q 79.640625 56 84.28125 50.015625 
Q 88.921875 44.046875 88.921875 33.015625 
L 88.921875 0 
L 79.890625 0 
L 79.890625 32.71875 
Q 79.890625 40.578125 77.09375 44.375 
Q 74.3125 48.1875 68.609375 48.1875 
Q 61.625 48.1875 57.5625 43.546875 
Q 53.515625 38.921875 53.515625 30.90625 
L 53.515625 0 
L 44.484375 0 
L 44.484375 32.71875 
Q 44.484375 40.625 41.703125 44.40625 
Q 38.921875 48.1875 33.109375 48.1875 
Q 26.21875 48.1875 22.15625 43.53125 
Q 18.109375 38.875 18.109375 30.90625 
L 18.109375 0 
L 9.078125 0 
L 9.078125 54.6875 
L 18.109375 54.6875 
L 18.109375 46.1875 
Q 21.1875 51.21875 25.484375 53.609375 
Q 29.78125 56 35.6875 56 
Q 41.65625 56 45.828125 52.96875 
Q 50 49.953125 52 44.1875 
z
" id="DejaVuSans-6d"/>
     <path d="M 28.609375 0 
L 0.78125 72.90625 
L 11.078125 72.90625 
L 34.1875 11.53125 
L 57.328125 72.90625 
L 67.578125 72.90625 
L 39.796875 0 
z
" id="DejaVuSans-56"/>
    </defs>
    <g transform="translate(117.710625 35.472)scale(0.12 -0.12)">
     <use xlink:href="#DejaVuSans-43"/>
     <use x="69.824219" xlink:href="#DejaVuSans-75"/>
     <use x="133.203125" xlink:href="#DejaVuSans-72"/>
     <use x="174.300781" xlink:href="#DejaVuSans-72"/>
     <use x="215.382812" xlink:href="#DejaVuSans-65"/>
     <use x="276.90625" xlink:href="#DejaVuSans-6e"/>
     <use x="340.285156" xlink:href="#DejaVuSans-74"/>
     <use x="379.494141" xlink:href="#DejaVuSans-20"/>
     <use x="411.28125" xlink:href="#DejaVuSans-77"/>
     <use x="493.068359" xlink:href="#DejaVuSans-69"/>
     <use x="520.851562" xlink:href="#DejaVuSans-74"/>
     <use x="560.060547" xlink:href="#DejaVuSans-68"/>
     <use x="623.439453" xlink:href="#DejaVuSans-20"/>
     <use x="655.226562" xlink:href="#DejaVuSans-73"/>
     <use x="707.326172" xlink:href="#DejaVuSans-6f"/>
     <use x="768.507812" xlink:href="#DejaVuSans-75"/>
     <use x="831.886719" xlink:href="#DejaVuSans-72"/>
     <use x="872.96875" xlink:href="#DejaVuSans-63"/>
     <use x="927.949219" xlink:href="#DejaVuSans-65"/>
     <use x="989.472656" xlink:href="#DejaVuSans-20"/>
     <use x="1021.259766" xlink:href="#DejaVuSans-76"/>
     <use x="1080.439453" xlink:href="#DejaVuSans-6f"/>
     <use x="1141.621094" xlink:href="#DejaVuSans-6c"/>
     <use x="1169.404297" xlink:href="#DejaVuSans-74"/>
     <use x="1208.613281" xlink:href="#DejaVuSans-61"/>
     <use x="1269.892578" xlink:href="#DejaVuSans-67"/>
     <use x="1333.369141" xlink:href="#DejaVuSans-65"/>
     <use x="1394.892578" xlink:href="#DejaVuSans-20"/>
     <use x="1426.679688" xlink:href="#DejaVuSans-31"/>
     <use x="1490.302734" xlink:href="#DejaVuSans-30"/>
     <use x="1553.925781" xlink:href="#DejaVuSans-30"/>
     <use x="1617.548828" xlink:href="#DejaVuSans-30"/>
     <use x="1681.171875" xlink:href="#DejaVuSans-2e"/>
     <use x="1712.958984" xlink:href="#DejaVuSans-30"/>
     <use x="1776.582031" xlink:href="#DejaVuSans-20"/>
     <use x="1808.369141" xlink:href="#DejaVuSans-6d"/>
     <use x="1905.78125" xlink:href="#DejaVuSans-56"/>
    </g>
   </g>
  </g>
 </g>
 <defs>
  <clipPath id="p5601a0052a">
   <rect height="266.112" width="357.12" x="57.6" y="41.472"/>
  </clipPath>
 </defs>
</svg>
