<?xml version="1.0" encoding="utf-8" standalone="no"?>
<!DOCTYPE svg PUBLIC "-//W3C//DTD SVG 1.1//EN"
  "http://www.w3.org/Graphics/SVG/1.1/DTD/svg11.dtd">
<!-- Created with matplotlib (http://matplotlib.org/) -->
<svg height="345pt" version="1.1" viewBox="0 0 460 345" width="460pt" xmlns="http://www.w3.org/2000/svg" xmlns:xlink="http://www.w3.org/1999/xlink">
 <defs>
  <style type="text/css">
*{stroke-linecap:butt;stroke-linejoin:round;}
  </style>
 </defs>
 <g id="figure_1">
  <g id="patch_1">
   <path d="M 0 345.6 
L 460.8 345.6 
L 460.8 0 
L 0 0 
z
" style="fill:#ffffff;"/>
  </g>
  <g id="axes_1">
   <g id="patch_2">
    <path d="M 57.6 307.584 
L 414.72 307.584 
L 414.72 41.472 
L 57.6 41.472 
z
" style="fill:#ffffff;"/>
   </g>
   <g id="matplotlib.axis_1">
    <g id="xtick_1">
     <g id="line2d_1">
      <defs>
       <path d="M 0 0 
L 0 3.5 
" id="mc1acbf1ab8" style="stroke:#000000;stroke-width:0.8;"/>
      </defs>
      <g>
       <use style="stroke:#000000;stroke-width:0.8;" x="73.832727" xlink:href="#mc1acbf1ab8" y="307.584"/>
      </g>
     </g>
     <g id="text_1">
      <!-- 0 -->
      <defs>
       <path d="M 31.78125 66.40625 
Q 24.171875 66.40625 20.328125 58.90625 
Q 16.5 51.421875 16.5 36.375 
Q 16.5 21.390625 20.328125 13.890625 
Q 24.171875 6.390625 31.78125 6.390625 
Q 39.453125 6.390625 43.28125 13.890625 
Q 47.125 21.390625 47.125 36.375 
Q 47.125 51.421875 43.28125 58.90625 
Q 39.453125 66.40625 31.78125 66.40625 
z
M 31.78125 74.21875 
Q 44.046875 74.21875 50.515625 64.515625 
Q 56.984375 54.828125 56.984375 36.375 
Q 56.984375 17.96875 50.515625 8.265625 
Q 44.046875 -1.421875 31.78125 -1.421875 
Q 19.53125 -1.421875 13.0625 8.265625 
Q 6.59375 17.96875 6.59375 36.375 
Q 6.59375 54.828125 13.0625 64.515625 
Q 19.53125 74.21875 31.78125 74.21875 
z
" id="DejaVuSans-30"/>
      </defs>
      <g transform="translate(70.651477 322.182437)scale(0.1 -0.1)">
       <use xlink:href="#DejaVuSans-30"/>
      </g>
     </g>
    </g>
    <g id="xtick_2">
     <g id="line2d_2">
      <g>
       <use style="stroke:#000000;stroke-width:0.8;" x="118.908736" xlink:href="#mc1acbf1ab8" y="307.584"/>
      </g>
     </g>
     <g id="text_2">
      <!-- 250 -->
      <defs>
       <path d="M 19.1875 8.296875 
L 53.609375 8.296875 
L 53.609375 0 
L 7.328125 0 
L 7.328125 8.296875 
Q 12.9375 14.109375 22.625 23.890625 
Q 32.328125 33.6875 34.8125 36.53125 
Q 39.546875 41.84375 41.421875 45.53125 
Q 43.3125 49.21875 43.3125 52.78125 
Q 43.3125 58.59375 39.234375 62.25 
Q 35.15625 65.921875 28.609375 65.921875 
Q 23.96875 65.921875 18.8125 64.3125 
Q 13.671875 62.703125 7.8125 59.421875 
L 7.8125 69.390625 
Q 13.765625 71.78125 18.9375 73 
Q 24.125 74.21875 28.421875 74.21875 
Q 39.75 74.21875 46.484375 68.546875 
Q 53.21875 62.890625 53.21875 53.421875 
Q 53.21875 48.921875 51.53125 44.890625 
Q 49.859375 40.875 45.40625 35.40625 
Q 44.1875 33.984375 37.640625 27.21875 
Q 31.109375 20.453125 19.1875 8.296875 
z
" id="DejaVuSans-32"/>
       <path d="M 10.796875 72.90625 
L 49.515625 72.90625 
L 49.515625 64.59375 
L 19.828125 64.59375 
L 19.828125 46.734375 
Q 21.96875 47.46875 24.109375 47.828125 
Q 26.265625 48.1875 28.421875 48.1875 
Q 40.625 48.1875 47.75 41.5 
Q 54.890625 34.8125 54.890625 23.390625 
Q 54.890625 11.625 47.5625 5.09375 
Q 40.234375 -1.421875 26.90625 -1.421875 
Q 22.3125 -1.421875 17.546875 -0.640625 
Q 12.796875 0.140625 7.71875 1.703125 
L 7.71875 11.625 
Q 12.109375 9.234375 16.796875 8.0625 
Q 21.484375 6.890625 26.703125 6.890625 
Q 35.15625 6.890625 40.078125 11.328125 
Q 45.015625 15.765625 45.015625 23.390625 
Q 45.015625 31 40.078125 35.4375 
Q 35.15625 39.890625 26.703125 39.890625 
Q 22.75 39.890625 18.8125 39.015625 
Q 14.890625 38.140625 10.796875 36.28125 
z
" id="DejaVuSans-35"/>
      </defs>
      <g transform="translate(109.364986 322.182437)scale(0.1 -0.1)">
       <use xlink:href="#DejaVuSans-32"/>
       <use x="63.623047" xlink:href="#DejaVuSans-35"/>
       <use x="127.246094" xlink:href="#DejaVuSans-30"/>
      </g>
     </g>
    </g>
    <g id="xtick_3">
     <g id="line2d_3">
      <g>
       <use style="stroke:#000000;stroke-width:0.8;" x="163.984745" xlink:href="#mc1acbf1ab8" y="307.584"/>
      </g>
     </g>
     <g id="text_3">
      <!-- 500 -->
      <g transform="translate(154.440995 322.182437)scale(0.1 -0.1)">
       <use xlink:href="#DejaVuSans-35"/>
       <use x="63.623047" xlink:href="#DejaVuSans-30"/>
       <use x="127.246094" xlink:href="#DejaVuSans-30"/>
      </g>
     </g>
    </g>
    <g id="xtick_4">
     <g id="line2d_4">
      <g>
       <use style="stroke:#000000;stroke-width:0.8;" x="209.060754" xlink:href="#mc1acbf1ab8" y="307.584"/>
      </g>
     </g>
     <g id="text_4">
      <!-- 750 -->
      <defs>
       <path d="M 8.203125 72.90625 
L 55.078125 72.90625 
L 55.078125 68.703125 
L 28.609375 0 
L 18.3125 0 
L 43.21875 64.59375 
L 8.203125 64.59375 
z
" id="DejaVuSans-37"/>
      </defs>
      <g transform="translate(199.517004 322.182437)scale(0.1 -0.1)">
       <use xlink:href="#DejaVuSans-37"/>
       <use x="63.623047" xlink:href="#DejaVuSans-35"/>
       <use x="127.246094" xlink:href="#DejaVuSans-30"/>
      </g>
     </g>
    </g>
    <g id="xtick_5">
     <g id="line2d_5">
      <g>
       <use style="stroke:#000000;stroke-width:0.8;" x="254.136763" xlink:href="#mc1acbf1ab8" y="307.584"/>
      </g>
     </g>
     <g id="text_5">
      <!-- 1000 -->
      <defs>
       <path d="M 12.40625 8.296875 
L 28.515625 8.296875 
L 28.515625 63.921875 
L 10.984375 60.40625 
L 10.984375 69.390625 
L 28.421875 72.90625 
L 38.28125 72.90625 
L 38.28125 8.296875 
L 54.390625 8.296875 
L 54.390625 0 
L 12.40625 0 
z
" id="DejaVuSans-31"/>
      </defs>
      <g transform="translate(241.411763 322.182437)scale(0.1 -0.1)">
       <use xlink:href="#DejaVuSans-31"/>
       <use x="63.623047" xlink:href="#DejaVuSans-30"/>
       <use x="127.246094" xlink:href="#DejaVuSans-30"/>
       <use x="190.869141" xlink:href="#DejaVuSans-30"/>
      </g>
     </g>
    </g>
    <g id="xtick_6">
     <g id="line2d_6">
      <g>
       <use style="stroke:#000000;stroke-width:0.8;" x="299.212772" xlink:href="#mc1acbf1ab8" y="307.584"/>
      </g>
     </g>
     <g id="text_6">
      <!-- 1250 -->
      <g transform="translate(286.487772 322.182437)scale(0.1 -0.1)">
       <use xlink:href="#DejaVuSans-31"/>
       <use x="63.623047" xlink:href="#DejaVuSans-32"/>
       <use x="127.246094" xlink:href="#DejaVuSans-35"/>
       <use x="190.869141" xlink:href="#DejaVuSans-30"/>
      </g>
     </g>
    </g>
    <g id="xtick_7">
     <g id="line2d_7">
      <g>
       <use style="stroke:#000000;stroke-width:0.8;" x="344.288781" xlink:href="#mc1acbf1ab8" y="307.584"/>
      </g>
     </g>
     <g id="text_7">
      <!-- 1500 -->
      <g transform="translate(331.563781 322.182437)scale(0.1 -0.1)">
       <use xlink:href="#DejaVuSans-31"/>
       <use x="63.623047" xlink:href="#DejaVuSans-35"/>
       <use x="127.246094" xlink:href="#DejaVuSans-30"/>
       <use x="190.869141" xlink:href="#DejaVuSans-30"/>
      </g>
     </g>
    </g>
    <g id="xtick_8">
     <g id="line2d_8">
      <g>
       <use style="stroke:#000000;stroke-width:0.8;" x="389.36479" xlink:href="#mc1acbf1ab8" y="307.584"/>
      </g>
     </g>
     <g id="text_8">
      <!-- 1750 -->
      <g transform="translate(376.63979 322.182437)scale(0.1 -0.1)">
       <use xlink:href="#DejaVuSans-31"/>
       <use x="63.623047" xlink:href="#DejaVuSans-37"/>
       <use x="127.246094" xlink:href="#DejaVuSans-35"/>
       <use x="190.869141" xlink:href="#DejaVuSans-30"/>
      </g>
     </g>
    </g>
    <g id="text_9">
     <!-- t(s) -->
     <defs>
      <path d="M 18.3125 70.21875 
L 18.3125 54.6875 
L 36.8125 54.6875 
L 36.8125 47.703125 
L 18.3125 47.703125 
L 18.3125 18.015625 
Q 18.3125 11.328125 20.140625 9.421875 
Q 21.96875 7.515625 27.59375 7.515625 
L 36.8125 7.515625 
L 36.8125 0 
L 27.59375 0 
Q 17.1875 0 13.234375 3.875 
Q 9.28125 7.765625 9.28125 18.015625 
L 9.28125 47.703125 
L 2.6875 47.703125 
L 2.6875 54.6875 
L 9.28125 54.6875 
L 9.28125 70.21875 
z
" id="DejaVuSans-74"/>
      <path d="M 31 75.875 
Q 24.46875 64.65625 21.28125 53.65625 
Q 18.109375 42.671875 18.109375 31.390625 
Q 18.109375 20.125 21.3125 9.0625 
Q 24.515625 -2 31 -13.1875 
L 23.1875 -13.1875 
Q 15.875 -1.703125 12.234375 9.375 
Q 8.59375 20.453125 8.59375 31.390625 
Q 8.59375 42.28125 12.203125 53.3125 
Q 15.828125 64.359375 23.1875 75.875 
z
" id="DejaVuSans-28"/>
      <path d="M 44.28125 53.078125 
L 44.28125 44.578125 
Q 40.484375 46.53125 36.375 47.5 
Q 32.28125 48.484375 27.875 48.484375 
Q 21.1875 48.484375 17.84375 46.4375 
Q 14.5 44.390625 14.5 40.28125 
Q 14.5 37.15625 16.890625 35.375 
Q 19.28125 33.59375 26.515625 31.984375 
L 29.59375 31.296875 
Q 39.15625 29.25 43.1875 25.515625 
Q 47.21875 21.78125 47.21875 15.09375 
Q 47.21875 7.46875 41.1875 3.015625 
Q 35.15625 -1.421875 24.609375 -1.421875 
Q 20.21875 -1.421875 15.453125 -0.5625 
Q 10.6875 0.296875 5.421875 2 
L 5.421875 11.28125 
Q 10.40625 8.6875 15.234375 7.390625 
Q 20.0625 6.109375 24.8125 6.109375 
Q 31.15625 6.109375 34.5625 8.28125 
Q 37.984375 10.453125 37.984375 14.40625 
Q 37.984375 18.0625 35.515625 20.015625 
Q 33.0625 21.96875 24.703125 23.78125 
L 21.578125 24.515625 
Q 13.234375 26.265625 9.515625 29.90625 
Q 5.8125 33.546875 5.8125 39.890625 
Q 5.8125 47.609375 11.28125 51.796875 
Q 16.75 56 26.8125 56 
Q 31.78125 56 36.171875 55.265625 
Q 40.578125 54.546875 44.28125 53.078125 
z
" id="DejaVuSans-73"/>
      <path d="M 8.015625 75.875 
L 15.828125 75.875 
Q 23.140625 64.359375 26.78125 53.3125 
Q 30.421875 42.28125 30.421875 31.390625 
Q 30.421875 20.453125 26.78125 9.375 
Q 23.140625 -1.703125 15.828125 -13.1875 
L 8.015625 -13.1875 
Q 14.5 -2 17.703125 9.0625 
Q 20.90625 20.125 20.90625 31.390625 
Q 20.90625 42.671875 17.703125 53.65625 
Q 14.5 64.65625 8.015625 75.875 
z
" id="DejaVuSans-29"/>
     </defs>
     <g transform="translate(227.693594 335.860562)scale(0.1 -0.1)">
      <use xlink:href="#DejaVuSans-74"/>
      <use x="39.208984" xlink:href="#DejaVuSans-28"/>
      <use x="78.222656" xlink:href="#DejaVuSans-73"/>
      <use x="130.322266" xlink:href="#DejaVuSans-29"/>
     </g>
    </g>
   </g>
   <g id="matplotlib.axis_2">
    <g id="ytick_1">
     <g id="line2d_9">
      <defs>
       <path d="M 0 0 
L -3.5 0 
" id="ma61a020843" style="stroke:#000000;stroke-width:0.8;"/>
      </defs>
      <g>
       <use style="stroke:#000000;stroke-width:0.8;" x="57.6" xlink:href="#ma61a020843" y="286.264014"/>
      </g>
     </g>
     <g id="text_10">
      <!-- 24.8 -->
      <defs>
       <path d="M 37.796875 64.3125 
L 12.890625 25.390625 
L 37.796875 25.390625 
z
M 35.203125 72.90625 
L 47.609375 72.90625 
L 47.609375 25.390625 
L 58.015625 25.390625 
L 58.015625 17.1875 
L 47.609375 17.1875 
L 47.609375 0 
L 37.796875 0 
L 37.796875 17.1875 
L 4.890625 17.1875 
L 4.890625 26.703125 
z
" id="DejaVuSans-34"/>
       <path d="M 10.6875 12.40625 
L 21 12.40625 
L 21 0 
L 10.6875 0 
z
" id="DejaVuSans-2e"/>
       <path d="M 31.78125 34.625 
Q 24.75 34.625 20.71875 30.859375 
Q 16.703125 27.09375 16.703125 20.515625 
Q 16.703125 13.921875 20.71875 10.15625 
Q 24.75 6.390625 31.78125 6.390625 
Q 38.8125 6.390625 42.859375 10.171875 
Q 46.921875 13.96875 46.921875 20.515625 
Q 46.921875 27.09375 42.890625 30.859375 
Q 38.875 34.625 31.78125 34.625 
z
M 21.921875 38.8125 
Q 15.578125 40.375 12.03125 44.71875 
Q 8.5 49.078125 8.5 55.328125 
Q 8.5 64.0625 14.71875 69.140625 
Q 20.953125 74.21875 31.78125 74.21875 
Q 42.671875 74.21875 48.875 69.140625 
Q 55.078125 64.0625 55.078125 55.328125 
Q 55.078125 49.078125 51.53125 44.71875 
Q 48 40.375 41.703125 38.8125 
Q 48.828125 37.15625 52.796875 32.3125 
Q 56.78125 27.484375 56.78125 20.515625 
Q 56.78125 9.90625 50.3125 4.234375 
Q 43.84375 -1.421875 31.78125 -1.421875 
Q 19.734375 -1.421875 13.25 4.234375 
Q 6.78125 9.90625 6.78125 20.515625 
Q 6.78125 27.484375 10.78125 32.3125 
Q 14.796875 37.15625 21.921875 38.8125 
z
M 18.3125 54.390625 
Q 18.3125 48.734375 21.84375 45.5625 
Q 25.390625 42.390625 31.78125 42.390625 
Q 38.140625 42.390625 41.71875 45.5625 
Q 45.3125 48.734375 45.3125 54.390625 
Q 45.3125 60.0625 41.71875 63.234375 
Q 38.140625 66.40625 31.78125 66.40625 
Q 25.390625 66.40625 21.84375 63.234375 
Q 18.3125 60.0625 18.3125 54.390625 
z
" id="DejaVuSans-38"/>
      </defs>
      <g transform="translate(28.334375 290.063233)scale(0.1 -0.1)">
       <use xlink:href="#DejaVuSans-32"/>
       <use x="63.623047" xlink:href="#DejaVuSans-34"/>
       <use x="127.246094" xlink:href="#DejaVuSans-2e"/>
       <use x="159.033203" xlink:href="#DejaVuSans-38"/>
      </g>
     </g>
    </g>
    <g id="ytick_2">
     <g id="line2d_10">
      <g>
       <use style="stroke:#000000;stroke-width:0.8;" x="57.6" xlink:href="#ma61a020843" y="244.336804"/>
      </g>
     </g>
     <g id="text_11">
      <!-- 24.9 -->
      <defs>
       <path d="M 10.984375 1.515625 
L 10.984375 10.5 
Q 14.703125 8.734375 18.5 7.8125 
Q 22.3125 6.890625 25.984375 6.890625 
Q 35.75 6.890625 40.890625 13.453125 
Q 46.046875 20.015625 46.78125 33.40625 
Q 43.953125 29.203125 39.59375 26.953125 
Q 35.25 24.703125 29.984375 24.703125 
Q 19.046875 24.703125 12.671875 31.3125 
Q 6.296875 37.9375 6.296875 49.421875 
Q 6.296875 60.640625 12.9375 67.421875 
Q 19.578125 74.21875 30.609375 74.21875 
Q 43.265625 74.21875 49.921875 64.515625 
Q 56.59375 54.828125 56.59375 36.375 
Q 56.59375 19.140625 48.40625 8.859375 
Q 40.234375 -1.421875 26.421875 -1.421875 
Q 22.703125 -1.421875 18.890625 -0.6875 
Q 15.09375 0.046875 10.984375 1.515625 
z
M 30.609375 32.421875 
Q 37.25 32.421875 41.125 36.953125 
Q 45.015625 41.5 45.015625 49.421875 
Q 45.015625 57.28125 41.125 61.84375 
Q 37.25 66.40625 30.609375 66.40625 
Q 23.96875 66.40625 20.09375 61.84375 
Q 16.21875 57.28125 16.21875 49.421875 
Q 16.21875 41.5 20.09375 36.953125 
Q 23.96875 32.421875 30.609375 32.421875 
z
" id="DejaVuSans-39"/>
      </defs>
      <g transform="translate(28.334375 248.136023)scale(0.1 -0.1)">
       <use xlink:href="#DejaVuSans-32"/>
       <use x="63.623047" xlink:href="#DejaVuSans-34"/>
       <use x="127.246094" xlink:href="#DejaVuSans-2e"/>
       <use x="159.033203" xlink:href="#DejaVuSans-39"/>
      </g>
     </g>
    </g>
    <g id="ytick_3">
     <g id="line2d_11">
      <g>
       <use style="stroke:#000000;stroke-width:0.8;" x="57.6" xlink:href="#ma61a020843" y="202.409594"/>
      </g>
     </g>
     <g id="text_12">
      <!-- 25.0 -->
      <g transform="translate(28.334375 206.208813)scale(0.1 -0.1)">
       <use xlink:href="#DejaVuSans-32"/>
       <use x="63.623047" xlink:href="#DejaVuSans-35"/>
       <use x="127.246094" xlink:href="#DejaVuSans-2e"/>
       <use x="159.033203" xlink:href="#DejaVuSans-30"/>
      </g>
     </g>
    </g>
    <g id="ytick_4">
     <g id="line2d_12">
      <g>
       <use style="stroke:#000000;stroke-width:0.8;" x="57.6" xlink:href="#ma61a020843" y="160.482385"/>
      </g>
     </g>
     <g id="text_13">
      <!-- 25.1 -->
      <g transform="translate(28.334375 164.281603)scale(0.1 -0.1)">
       <use xlink:href="#DejaVuSans-32"/>
       <use x="63.623047" xlink:href="#DejaVuSans-35"/>
       <use x="127.246094" xlink:href="#DejaVuSans-2e"/>
       <use x="159.033203" xlink:href="#DejaVuSans-31"/>
      </g>
     </g>
    </g>
    <g id="ytick_5">
     <g id="line2d_13">
      <g>
       <use style="stroke:#000000;stroke-width:0.8;" x="57.6" xlink:href="#ma61a020843" y="118.555175"/>
      </g>
     </g>
     <g id="text_14">
      <!-- 25.2 -->
      <g transform="translate(28.334375 122.354394)scale(0.1 -0.1)">
       <use xlink:href="#DejaVuSans-32"/>
       <use x="63.623047" xlink:href="#DejaVuSans-35"/>
       <use x="127.246094" xlink:href="#DejaVuSans-2e"/>
       <use x="159.033203" xlink:href="#DejaVuSans-32"/>
      </g>
     </g>
    </g>
    <g id="ytick_6">
     <g id="line2d_14">
      <g>
       <use style="stroke:#000000;stroke-width:0.8;" x="57.6" xlink:href="#ma61a020843" y="76.627965"/>
      </g>
     </g>
     <g id="text_15">
      <!-- 25.3 -->
      <defs>
       <path d="M 40.578125 39.3125 
Q 47.65625 37.796875 51.625 33 
Q 55.609375 28.21875 55.609375 21.1875 
Q 55.609375 10.40625 48.1875 4.484375 
Q 40.765625 -1.421875 27.09375 -1.421875 
Q 22.515625 -1.421875 17.65625 -0.515625 
Q 12.796875 0.390625 7.625 2.203125 
L 7.625 11.71875 
Q 11.71875 9.328125 16.59375 8.109375 
Q 21.484375 6.890625 26.8125 6.890625 
Q 36.078125 6.890625 40.9375 10.546875 
Q 45.796875 14.203125 45.796875 21.1875 
Q 45.796875 27.640625 41.28125 31.265625 
Q 36.765625 34.90625 28.71875 34.90625 
L 20.21875 34.90625 
L 20.21875 43.015625 
L 29.109375 43.015625 
Q 36.375 43.015625 40.234375 45.921875 
Q 44.09375 48.828125 44.09375 54.296875 
Q 44.09375 59.90625 40.109375 62.90625 
Q 36.140625 65.921875 28.71875 65.921875 
Q 24.65625 65.921875 20.015625 65.03125 
Q 15.375 64.15625 9.8125 62.3125 
L 9.8125 71.09375 
Q 15.4375 72.65625 20.34375 73.4375 
Q 25.25 74.21875 29.59375 74.21875 
Q 40.828125 74.21875 47.359375 69.109375 
Q 53.90625 64.015625 53.90625 55.328125 
Q 53.90625 49.265625 50.4375 45.09375 
Q 46.96875 40.921875 40.578125 39.3125 
z
" id="DejaVuSans-33"/>
      </defs>
      <g transform="translate(28.334375 80.427184)scale(0.1 -0.1)">
       <use xlink:href="#DejaVuSans-32"/>
       <use x="63.623047" xlink:href="#DejaVuSans-35"/>
       <use x="127.246094" xlink:href="#DejaVuSans-2e"/>
       <use x="159.033203" xlink:href="#DejaVuSans-33"/>
      </g>
     </g>
    </g>
    <g id="text_16">
     <!-- Temperature (*C) -->
     <defs>
      <path d="M -0.296875 72.90625 
L 61.375 72.90625 
L 61.375 64.59375 
L 35.5 64.59375 
L 35.5 0 
L 25.59375 0 
L 25.59375 64.59375 
L -0.296875 64.59375 
z
" id="DejaVuSans-54"/>
      <path d="M 56.203125 29.59375 
L 56.203125 25.203125 
L 14.890625 25.203125 
Q 15.484375 15.921875 20.484375 11.0625 
Q 25.484375 6.203125 34.421875 6.203125 
Q 39.59375 6.203125 44.453125 7.46875 
Q 49.3125 8.734375 54.109375 11.28125 
L 54.109375 2.78125 
Q 49.265625 0.734375 44.1875 -0.34375 
Q 39.109375 -1.421875 33.890625 -1.421875 
Q 20.796875 -1.421875 13.15625 6.1875 
Q 5.515625 13.8125 5.515625 26.8125 
Q 5.515625 40.234375 12.765625 48.109375 
Q 20.015625 56 32.328125 56 
Q 43.359375 56 49.78125 48.890625 
Q 56.203125 41.796875 56.203125 29.59375 
z
M 47.21875 32.234375 
Q 47.125 39.59375 43.09375 43.984375 
Q 39.0625 48.390625 32.421875 48.390625 
Q 24.90625 48.390625 20.390625 44.140625 
Q 15.875 39.890625 15.1875 32.171875 
z
" id="DejaVuSans-65"/>
      <path d="M 52 44.1875 
Q 55.375 50.25 60.0625 53.125 
Q 64.75 56 71.09375 56 
Q 79.640625 56 84.28125 50.015625 
Q 88.921875 44.046875 88.921875 33.015625 
L 88.921875 0 
L 79.890625 0 
L 79.890625 32.71875 
Q 79.890625 40.578125 77.09375 44.375 
Q 74.3125 48.1875 68.609375 48.1875 
Q 61.625 48.1875 57.5625 43.546875 
Q 53.515625 38.921875 53.515625 30.90625 
L 53.515625 0 
L 44.484375 0 
L 44.484375 32.71875 
Q 44.484375 40.625 41.703125 44.40625 
Q 38.921875 48.1875 33.109375 48.1875 
Q 26.21875 48.1875 22.15625 43.53125 
Q 18.109375 38.875 18.109375 30.90625 
L 18.109375 0 
L 9.078125 0 
L 9.078125 54.6875 
L 18.109375 54.6875 
L 18.109375 46.1875 
Q 21.1875 51.21875 25.484375 53.609375 
Q 29.78125 56 35.6875 56 
Q 41.65625 56 45.828125 52.96875 
Q 50 49.953125 52 44.1875 
z
" id="DejaVuSans-6d"/>
      <path d="M 18.109375 8.203125 
L 18.109375 -20.796875 
L 9.078125 -20.796875 
L 9.078125 54.6875 
L 18.109375 54.6875 
L 18.109375 46.390625 
Q 20.953125 51.265625 25.265625 53.625 
Q 29.59375 56 35.59375 56 
Q 45.5625 56 51.78125 48.09375 
Q 58.015625 40.1875 58.015625 27.296875 
Q 58.015625 14.40625 51.78125 6.484375 
Q 45.5625 -1.421875 35.59375 -1.421875 
Q 29.59375 -1.421875 25.265625 0.953125 
Q 20.953125 3.328125 18.109375 8.203125 
z
M 48.6875 27.296875 
Q 48.6875 37.203125 44.609375 42.84375 
Q 40.53125 48.484375 33.40625 48.484375 
Q 26.265625 48.484375 22.1875 42.84375 
Q 18.109375 37.203125 18.109375 27.296875 
Q 18.109375 17.390625 22.1875 11.75 
Q 26.265625 6.109375 33.40625 6.109375 
Q 40.53125 6.109375 44.609375 11.75 
Q 48.6875 17.390625 48.6875 27.296875 
z
" id="DejaVuSans-70"/>
      <path d="M 41.109375 46.296875 
Q 39.59375 47.171875 37.8125 47.578125 
Q 36.03125 48 33.890625 48 
Q 26.265625 48 22.1875 43.046875 
Q 18.109375 38.09375 18.109375 28.8125 
L 18.109375 0 
L 9.078125 0 
L 9.078125 54.6875 
L 18.109375 54.6875 
L 18.109375 46.1875 
Q 20.953125 51.171875 25.484375 53.578125 
Q 30.03125 56 36.53125 56 
Q 37.453125 56 38.578125 55.875 
Q 39.703125 55.765625 41.0625 55.515625 
z
" id="DejaVuSans-72"/>
      <path d="M 34.28125 27.484375 
Q 23.390625 27.484375 19.1875 25 
Q 14.984375 22.515625 14.984375 16.5 
Q 14.984375 11.71875 18.140625 8.90625 
Q 21.296875 6.109375 26.703125 6.109375 
Q 34.1875 6.109375 38.703125 11.40625 
Q 43.21875 16.703125 43.21875 25.484375 
L 43.21875 27.484375 
z
M 52.203125 31.203125 
L 52.203125 0 
L 43.21875 0 
L 43.21875 8.296875 
Q 40.140625 3.328125 35.546875 0.953125 
Q 30.953125 -1.421875 24.3125 -1.421875 
Q 15.921875 -1.421875 10.953125 3.296875 
Q 6 8.015625 6 15.921875 
Q 6 25.140625 12.171875 29.828125 
Q 18.359375 34.515625 30.609375 34.515625 
L 43.21875 34.515625 
L 43.21875 35.40625 
Q 43.21875 41.609375 39.140625 45 
Q 35.0625 48.390625 27.6875 48.390625 
Q 23 48.390625 18.546875 47.265625 
Q 14.109375 46.140625 10.015625 43.890625 
L 10.015625 52.203125 
Q 14.9375 54.109375 19.578125 55.046875 
Q 24.21875 56 28.609375 56 
Q 40.484375 56 46.34375 49.84375 
Q 52.203125 43.703125 52.203125 31.203125 
z
" id="DejaVuSans-61"/>
      <path d="M 8.5 21.578125 
L 8.5 54.6875 
L 17.484375 54.6875 
L 17.484375 21.921875 
Q 17.484375 14.15625 20.5 10.265625 
Q 23.53125 6.390625 29.59375 6.390625 
Q 36.859375 6.390625 41.078125 11.03125 
Q 45.3125 15.671875 45.3125 23.6875 
L 45.3125 54.6875 
L 54.296875 54.6875 
L 54.296875 0 
L 45.3125 0 
L 45.3125 8.40625 
Q 42.046875 3.421875 37.71875 1 
Q 33.40625 -1.421875 27.6875 -1.421875 
Q 18.265625 -1.421875 13.375 4.4375 
Q 8.5 10.296875 8.5 21.578125 
z
M 31.109375 56 
z
" id="DejaVuSans-75"/>
      <path id="DejaVuSans-20"/>
      <path d="M 47.015625 60.890625 
L 29.5 51.421875 
L 47.015625 41.890625 
L 44.1875 37.109375 
L 27.78125 47.015625 
L 27.78125 28.609375 
L 22.21875 28.609375 
L 22.21875 47.015625 
L 5.8125 37.109375 
L 2.984375 41.890625 
L 20.515625 51.421875 
L 2.984375 60.890625 
L 5.8125 65.71875 
L 22.21875 55.8125 
L 22.21875 74.21875 
L 27.78125 74.21875 
L 27.78125 55.8125 
L 44.1875 65.71875 
z
" id="DejaVuSans-2a"/>
      <path d="M 64.40625 67.28125 
L 64.40625 56.890625 
Q 59.421875 61.53125 53.78125 63.8125 
Q 48.140625 66.109375 41.796875 66.109375 
Q 29.296875 66.109375 22.65625 58.46875 
Q 16.015625 50.828125 16.015625 36.375 
Q 16.015625 21.96875 22.65625 14.328125 
Q 29.296875 6.6875 41.796875 6.6875 
Q 48.140625 6.6875 53.78125 8.984375 
Q 59.421875 11.28125 64.40625 15.921875 
L 64.40625 5.609375 
Q 59.234375 2.09375 53.4375 0.328125 
Q 47.65625 -1.421875 41.21875 -1.421875 
Q 24.65625 -1.421875 15.125 8.703125 
Q 5.609375 18.84375 5.609375 36.375 
Q 5.609375 53.953125 15.125 64.078125 
Q 24.65625 74.21875 41.21875 74.21875 
Q 47.75 74.21875 53.53125 72.484375 
Q 59.328125 70.75 64.40625 67.28125 
z
" id="DejaVuSans-43"/>
     </defs>
     <g transform="translate(22.254687 218.627219)rotate(-90)scale(0.1 -0.1)">
      <use xlink:href="#DejaVuSans-54"/>
      <use x="60.818359" xlink:href="#DejaVuSans-65"/>
      <use x="122.341797" xlink:href="#DejaVuSans-6d"/>
      <use x="219.753906" xlink:href="#DejaVuSans-70"/>
      <use x="283.230469" xlink:href="#DejaVuSans-65"/>
      <use x="344.753906" xlink:href="#DejaVuSans-72"/>
      <use x="385.867188" xlink:href="#DejaVuSans-61"/>
      <use x="447.146484" xlink:href="#DejaVuSans-74"/>
      <use x="486.355469" xlink:href="#DejaVuSans-75"/>
      <use x="549.734375" xlink:href="#DejaVuSans-72"/>
      <use x="590.816406" xlink:href="#DejaVuSans-65"/>
      <use x="652.339844" xlink:href="#DejaVuSans-20"/>
      <use x="684.126953" xlink:href="#DejaVuSans-28"/>
      <use x="723.140625" xlink:href="#DejaVuSans-2a"/>
      <use x="773.140625" xlink:href="#DejaVuSans-43"/>
      <use x="842.964844" xlink:href="#DejaVuSans-29"/>
     </g>
    </g>
   </g>
   <g id="line2d_15">
    <path clip-path="url(#p488bc52b76)" d="M 73.832727 202.409594 
L 398.487273 202.409594 
L 398.487273 202.409594 
" style="fill:none;stroke:#1f77b4;stroke-linecap:square;stroke-width:1.5;"/>
   </g>
   <g id="line2d_16">
    <path clip-path="url(#p488bc52b76)" d="M 73.832727 214.149213 
L 74.051977 212.472125 
L 74.160881 214.149213 
L 74.378688 212.052853 
L 74.487592 212.891397 
L 74.596495 212.052853 
L 74.705399 212.891397 
L 74.814302 212.052853 
L 75.141013 212.891397 
L 75.358821 212.052853 
L 75.467724 212.052853 
L 75.576628 210.795036 
L 75.794435 212.472125 
L 75.903339 211.214308 
L 76.012242 212.472125 
L 76.23005 211.633581 
L 76.447857 212.052853 
L 76.556761 211.214308 
L 76.774568 212.052853 
L 76.883472 210.375764 
L 77.319086 211.633581 
L 77.42799 211.633581 
L 77.537074 210.795036 
L 77.645977 211.214308 
L 77.754881 210.375764 
L 77.863785 212.052853 
L 78.081772 210.795036 
L 78.190676 210.795036 
L 78.299579 210.375764 
L 78.517747 211.214308 
L 78.627192 210.375764 
L 78.738079 211.214308 
L 78.956066 209.53722 
L 79.06515 211.214308 
L 79.174054 210.375764 
L 79.282958 210.795036 
L 79.391861 209.956492 
L 79.500765 210.795036 
L 79.718753 209.53722 
L 79.827656 209.956492 
L 79.93656 209.956492 
L 80.045463 210.375764 
L 80.154367 209.53722 
L 80.263271 209.956492 
L 80.481078 209.53722 
L 80.589982 210.795036 
L 80.698885 209.53722 
L 80.807789 210.375764 
L 80.916693 209.117948 
L 81.243403 210.375764 
L 81.352307 209.53722 
L 81.461211 210.375764 
L 81.679018 209.117948 
L 81.788102 208.698676 
L 81.897006 209.53722 
L 82.116616 208.698676 
L 82.2257 209.53722 
L 82.334603 208.279404 
L 82.443327 209.53722 
L 82.552591 208.279404 
L 82.661675 209.53722 
L 82.770759 208.279404 
L 82.879663 209.53722 
L 82.988747 208.279404 
L 83.09783 209.53722 
L 83.206734 208.279404 
L 83.315638 208.698676 
L 83.424541 208.279404 
L 83.533445 209.117948 
L 83.642349 207.860132 
L 83.96942 208.698676 
L 84.078504 207.44086 
L 84.187408 208.698676 
L 84.405215 207.860132 
L 84.514119 208.279404 
L 84.623022 207.021588 
L 84.84083 207.860132 
L 84.949553 208.279404 
L 85.058637 207.860132 
L 85.16754 208.698676 
L 85.276444 207.44086 
L 85.385528 208.698676 
L 85.494612 207.021588 
L 85.7126 207.860132 
L 85.821503 207.44086 
L 86.148214 208.279404 
L 86.257118 207.021588 
L 86.474925 207.860132 
L 86.583829 207.021588 
L 86.692732 207.860132 
L 86.801636 206.602315 
L 86.91054 208.279404 
L 87.128347 207.021588 
L 87.23725 207.44086 
L 87.346154 207.021588 
L 87.455058 208.279404 
L 87.672685 207.021588 
L 87.781769 207.44086 
L 87.890492 206.602315 
L 87.999576 207.860132 
L 88.10848 207.44086 
L 88.326287 207.860132 
L 88.435191 207.021588 
L 88.544274 207.860132 
L 88.652998 207.021588 
L 88.870805 207.44086 
L 89.088793 207.021588 
L 89.197516 208.279404 
L 89.30642 206.183043 
L 89.415323 207.021588 
L 89.524227 206.183043 
L 89.633131 207.860132 
L 89.850938 206.183043 
L 90.068925 207.021588 
L 90.177829 206.183043 
L 90.286733 207.44086 
L 90.50454 206.183043 
L 90.613624 207.021588 
L 90.722527 205.763771 
L 90.940335 207.021588 
L 91.049238 205.763771 
L 91.158142 207.021588 
L 91.375949 206.183043 
L 91.484853 207.021588 
L 91.70266 205.344499 
L 91.811564 207.021588 
L 92.029371 205.763771 
L 92.138275 206.602315 
L 92.356262 205.344499 
L 92.465166 206.602315 
L 92.682973 205.763771 
L 92.900781 206.183043 
L 93.009684 205.344499 
L 93.227491 206.602315 
L 93.336395 205.344499 
L 93.554202 207.021588 
L 93.77201 205.344499 
L 93.880913 206.183043 
L 93.989817 205.344499 
L 94.207624 206.602315 
L 94.316528 206.183043 
L 94.425431 205.344499 
L 94.643239 206.602315 
L 94.861046 205.344499 
L 94.96995 206.183043 
L 95.187757 204.925227 
L 95.405564 206.602315 
L 95.514468 204.505955 
L 95.623371 206.183043 
L 95.950263 204.505955 
L 96.16807 206.183043 
L 96.276974 204.925227 
L 96.494781 206.183043 
L 96.712588 204.505955 
L 96.930395 205.763771 
L 97.039299 204.505955 
L 97.257106 205.763771 
L 97.36601 205.344499 
L 97.801625 205.344499 
L 97.910528 204.925227 
L 98.019432 205.763771 
L 98.237239 204.505955 
L 98.346143 204.925227 
L 98.56395 205.763771 
L 98.781938 205.344499 
L 98.999745 205.763771 
L 99.108649 204.505955 
L 99.437343 205.344499 
L 99.546427 204.086683 
L 99.873138 205.763771 
L 100.096354 204.086683 
L 100.205258 205.763771 
L 100.314161 205.344499 
L 100.531969 204.086683 
L 100.640872 205.763771 
L 100.858679 204.505955 
L 100.967583 204.505955 
L 101.076487 205.763771 
L 101.294474 204.925227 
L 101.403378 203.667411 
L 101.730269 205.344499 
L 101.839173 204.086683 
L 102.165884 204.925227 
L 102.274787 203.667411 
L 102.712746 204.925227 
L 102.82165 203.667411 
L 102.930553 204.086683 
L 103.039457 205.344499 
L 103.366168 204.086683 
L 103.583975 204.505955 
L 103.692879 204.505955 
L 103.801782 203.667411 
L 103.910686 204.086683 
L 104.01959 202.828867 
L 104.3463 203.667411 
L 104.564108 202.828867 
L 104.673011 203.248139 
L 105.108626 201.990322 
L 105.326433 201.990322 
L 105.435337 200.732506 
L 105.54424 201.57105 
L 105.762228 200.313234 
L 105.871132 201.57105 
L 106.41565 199.47469 
L 106.742361 200.313234 
L 106.960168 200.313234 
L 107.068891 199.47469 
L 107.177795 200.732506 
L 107.613229 199.47469 
L 107.722133 200.313234 
L 107.93994 199.893962 
L 108.157747 200.313234 
L 108.266651 199.055418 
L 108.484458 199.893962 
L 108.593362 199.055418 
L 108.811169 199.47469 
L 109.028977 199.47469 
L 109.13788 199.893962 
L 109.246784 199.055418 
L 109.355688 200.313234 
L 109.464591 199.893962 
L 109.682579 200.313234 
L 109.791482 200.313234 
L 109.900386 200.732506 
L 110.00929 199.893962 
L 110.118193 200.313234 
L 110.227097 199.47469 
L 110.444904 199.893962 
L 110.553808 199.893962 
L 110.771615 200.732506 
L 110.989422 199.893962 
L 111.098326 200.732506 
L 111.20723 199.893962 
L 111.533941 201.151778 
L 111.751928 200.313234 
L 111.860832 200.313234 
L 111.969735 199.893962 
L 112.187543 201.151778 
L 112.296627 199.893962 
L 112.40553 200.732506 
L 112.623338 200.313234 
L 112.841325 200.732506 
L 113.059132 200.732506 
L 113.27694 201.151778 
L 113.385843 200.313234 
L 113.603651 200.732506 
L 113.712554 200.732506 
L 113.821458 201.151778 
L 113.930361 199.893962 
L 114.039265 201.151778 
L 114.148169 200.732506 
L 114.257072 199.47469 
L 114.692687 200.732506 
L 114.801591 199.893962 
L 115.019398 200.313234 
L 115.237205 199.893962 
L 115.346109 201.151778 
L 115.455012 199.893962 
L 115.781723 200.732506 
L 115.890807 200.313234 
L 116.108615 201.151778 
L 116.326422 200.313234 
L 116.436948 200.732506 
L 116.654936 199.893962 
L 116.872743 201.151778 
L 116.981647 199.893962 
L 117.09055 200.732506 
L 117.199454 200.313234 
L 117.308358 201.151778 
L 117.526165 199.893962 
L 117.635249 200.732506 
L 117.853056 200.313234 
L 117.962501 200.313234 
L 118.071585 201.151778 
L 118.289572 200.313234 
L 118.398476 200.313234 
L 118.50792 201.151778 
L 118.725728 200.313234 
L 118.834631 201.151778 
L 119.052439 199.893962 
L 119.488233 201.151778 
L 119.597137 200.732506 
L 119.814944 201.151778 
L 119.923848 199.893962 
L 120.032752 200.313234 
L 120.141655 199.893962 
L 120.250739 201.151778 
L 120.359643 200.732506 
L 120.468546 201.151778 
L 120.686354 200.313234 
L 121.44886 200.313234 
L 121.557763 199.47469 
L 121.666667 200.732506 
L 121.884474 200.313234 
L 121.993197 201.151778 
L 122.102101 200.313234 
L 122.211185 201.151778 
L 122.428812 200.313234 
L 122.537896 201.151778 
L 122.864607 199.47469 
L 122.97351 201.151778 
L 123.191137 200.732506 
L 123.300041 201.151778 
L 123.408945 199.47469 
L 123.517848 201.151778 
L 123.626752 199.893962 
L 123.953463 200.732506 
L 124.17109 199.893962 
L 124.388897 200.732506 
L 124.497981 200.313234 
L 124.933596 201.57105 
L 125.04268 199.893962 
L 125.151583 201.151778 
L 125.478294 200.313234 
L 125.587198 200.732506 
L 125.696101 200.313234 
L 126.022993 201.151778 
L 126.2408 201.151778 
L 126.567511 200.313234 
L 126.676414 200.313234 
L 126.894222 201.151778 
L 127.003125 199.893962 
L 127.112029 200.732506 
L 127.220933 199.893962 
L 127.547824 200.732506 
L 127.656727 200.313234 
L 127.765631 208.279404 
L 127.983619 282.909837 
L 128.098292 295.488 
L 128.213146 293.810912 
L 129.017482 247.690981 
L 129.476356 224.211744 
L 129.936492 210.795036 
L 130.395546 202.409594 
L 130.510219 201.57105 
L 130.739746 198.636146 
L 131.270922 193.185608 
L 131.351337 193.185608 
L 131.511267 192.347064 
L 131.591142 192.347064 
L 131.751071 191.089248 
L 131.830946 191.50852 
L 131.991056 190.250704 
L 132.071111 191.089248 
L 132.310916 189.412159 
L 132.399986 190.250704 
L 132.561178 189.412159 
L 132.641233 190.250704 
L 132.801162 188.573615 
L 132.961092 189.831432 
L 133.121202 189.831432 
L 133.201077 191.089248 
L 133.361006 190.250704 
L 133.520936 191.089248 
L 133.689881 190.250704 
L 134.173456 192.347064 
L 134.333206 191.927792 
L 134.413261 192.347064 
L 134.493316 193.60488 
L 134.573371 192.766336 
L 134.653245 193.60488 
L 134.7333 192.347064 
L 134.813175 194.024153 
L 134.89323 193.60488 
L 134.973105 194.024153 
L 135.05334 193.60488 
L 135.293144 194.443425 
L 135.373019 194.024153 
L 135.613364 195.281969 
L 135.773114 194.862697 
L 135.933043 195.701241 
L 136.092973 196.120513 
L 136.173208 194.862697 
L 136.253083 195.281969 
L 136.573123 196.959057 
L 136.813107 195.281969 
L 136.894605 196.539785 
L 136.974479 196.120513 
L 137.054354 196.959057 
L 137.214284 195.701241 
L 137.374394 197.378329 
L 137.454629 197.378329 
L 137.534504 196.539785 
L 137.614559 197.797601 
L 137.694433 197.378329 
L 137.854183 196.120513 
L 138.014473 196.959057 
L 138.174403 197.378329 
L 138.254458 197.378329 
L 138.334332 196.959057 
L 138.414387 197.378329 
L 138.654372 196.539785 
L 138.734427 196.959057 
L 138.814302 196.120513 
L 139.214216 197.797601 
L 139.294271 197.797601 
L 139.374146 196.539785 
L 139.534076 197.378329 
L 139.61395 197.378329 
L 139.694185 197.797601 
L 139.93417 196.959057 
L 140.014045 196.959057 
L 140.0941 197.797601 
L 140.173975 196.539785 
L 140.25403 197.378329 
L 140.333904 196.959057 
L 140.413959 197.378329 
L 140.573889 196.120513 
L 140.815677 197.797601 
L 140.976147 196.539785 
L 141.056202 196.539785 
L 141.136077 196.959057 
L 141.216132 196.539785 
L 141.375881 197.797601 
L 141.455936 196.120513 
L 141.616046 196.959057 
L 141.775976 196.959057 
L 141.935906 197.797601 
L 142.01578 197.797601 
L 142.176071 196.959057 
L 142.255945 196.539785 
L 142.415875 198.216873 
L 142.49575 196.539785 
L 142.575805 197.797601 
L 142.735915 196.959057 
L 142.815789 197.797601 
L 142.895844 196.959057 
L 143.055774 198.216873 
L 143.215884 196.959057 
L 143.295939 198.216873 
L 143.375814 196.959057 
L 143.455869 197.797601 
L 143.615798 196.959057 
L 143.695673 196.539785 
L 143.855783 197.797601 
L 143.935658 197.797601 
L 144.015713 198.216873 
L 144.095587 197.378329 
L 144.175642 198.216873 
L 144.255517 196.959057 
L 144.335572 197.378329 
L 144.655431 197.378329 
L 144.735486 197.797601 
L 144.895596 196.959057 
L 145.135401 197.797601 
L 145.215456 196.959057 
L 145.29533 198.216873 
L 145.375385 197.797601 
L 145.455621 197.378329 
L 145.535495 198.636146 
L 145.616812 198.216873 
L 145.704981 198.216873 
L 145.784856 197.797601 
L 145.864911 198.636146 
L 145.944966 197.378329 
L 146.025021 197.797601 
L 146.185131 198.216873 
L 146.266448 197.797601 
L 146.346503 198.636146 
L 146.506433 197.378329 
L 146.746598 198.636146 
L 146.906527 197.797601 
L 146.987844 198.636146 
L 147.067899 197.797601 
L 147.227829 198.216873 
L 147.387759 197.378329 
L 147.548049 199.47469 
L 147.709241 197.797601 
L 147.86917 199.055418 
L 147.949225 198.216873 
L 148.109155 198.636146 
L 148.269265 198.636146 
L 148.429195 197.797601 
L 148.749054 199.055418 
L 148.829289 198.216873 
L 148.909164 199.055418 
L 148.989219 198.216873 
L 149.069094 198.636146 
L 149.148969 198.216873 
L 149.229024 199.47469 
L 149.308898 198.216873 
L 149.389133 198.636146 
L 149.469008 199.055418 
L 149.548883 198.216873 
L 149.628938 199.47469 
L 149.708813 197.797601 
L 149.788687 198.216873 
L 149.868742 199.47469 
L 149.948977 198.216873 
L 150.028852 198.636146 
L 150.108907 198.636146 
L 150.188782 198.216873 
L 150.348712 199.47469 
L 150.428767 199.47469 
L 150.508822 198.636146 
L 150.668751 199.055418 
L 150.748626 198.216873 
L 150.828681 198.636146 
L 150.908556 198.216873 
L 151.068666 199.47469 
L 151.148721 198.636146 
L 151.228595 199.47469 
L 151.308831 198.216873 
L 151.388886 198.636146 
L 151.548996 199.47469 
L 151.62887 198.636146 
L 151.708745 199.47469 
L 151.877509 198.216873 
L 152.197369 199.47469 
L 152.277965 198.636146 
L 152.357839 199.47469 
L 152.437894 198.216873 
L 152.517769 198.636146 
L 152.597824 198.636146 
L 152.677699 198.216873 
L 152.917864 199.055418 
L 153.159651 197.797601 
L 153.248181 199.055418 
L 153.328416 198.636146 
L 153.488346 199.055418 
L 153.729953 199.055418 
L 153.81127 198.636146 
L 153.9712 199.47469 
L 154.051255 199.47469 
L 154.211365 198.636146 
L 154.29142 199.47469 
L 154.45135 198.636146 
L 154.531224 199.893962 
L 154.611279 199.47469 
L 154.771029 199.47469 
L 154.851264 199.055418 
L 155.011194 200.313234 
L 155.25226 198.636146 
L 155.332315 199.47469 
L 155.41237 198.636146 
L 155.581315 199.893962 
L 155.66137 199.47469 
L 155.902617 199.47469 
L 155.982672 199.055418 
L 156.142782 199.47469 
L 156.222656 199.055418 
L 156.302531 199.47469 
L 156.543598 198.636146 
L 156.623472 198.636146 
L 156.783402 199.055418 
L 156.863457 199.055418 
L 157.103622 199.893962 
L 157.263552 199.893962 
L 157.423481 199.055418 
L 157.583591 199.893962 
L 157.743521 198.636146 
L 157.823576 199.893962 
L 157.903451 199.47469 
L 157.983325 199.47469 
L 158.06338 200.313234 
L 158.143616 198.636146 
L 158.303545 199.47469 
L 158.38342 199.055418 
L 158.543169 200.313234 
L 158.623044 199.893962 
L 158.863389 198.636146 
L 159.023319 199.893962 
L 159.103374 199.055418 
L 159.183249 199.893962 
L 159.343178 199.055418 
L 159.503288 199.47469 
L 159.583163 198.636146 
L 159.663038 200.313234 
L 159.742912 198.636146 
L 159.903203 199.47469 
L 160.062952 199.47469 
L 160.143007 199.055418 
L 160.302937 199.47469 
L 160.463047 199.47469 
L 160.622976 199.893962 
L 160.862961 199.893962 
L 160.943016 199.47469 
L 161.102946 200.313234 
L 161.183001 199.47469 
L 161.262875 200.313234 
L 161.582915 199.055418 
L 161.66297 199.055418 
L 161.742845 199.893962 
L 161.8229 199.055418 
L 161.902774 199.893962 
L 162.062884 199.47469 
L 162.222994 200.313234 
L 162.382924 199.47469 
L 162.543034 200.313234 
L 162.784281 199.47469 
L 162.944211 200.313234 
L 163.024266 199.055418 
L 163.10414 199.47469 
L 163.184195 200.313234 
L 163.26407 199.893962 
L 163.344125 200.313234 
L 163.504055 198.636146 
L 163.663984 199.893962 
L 163.823914 199.055418 
L 163.904149 199.47469 
L 163.984024 200.732506 
L 164.063899 199.47469 
L 164.143954 200.313234 
L 164.223828 199.47469 
L 164.383758 200.313234 
L 164.543868 199.47469 
L 164.623923 199.47469 
L 164.703798 200.313234 
L 164.783853 199.893962 
L 164.943782 200.313234 
L 165.023837 199.893962 
L 165.103892 200.732506 
L 165.183767 199.893962 
L 165.343697 200.313234 
L 165.583681 199.47469 
L 165.823666 200.313234 
L 165.983596 200.313234 
L 166.06347 199.055418 
L 166.143706 199.893962 
L 166.22358 199.47469 
L 166.38351 200.313234 
L 166.463565 199.47469 
L 166.623495 200.313234 
L 166.70355 199.47469 
L 166.783424 200.732506 
L 166.863479 200.313234 
L 166.943534 199.893962 
L 167.103464 200.313234 
L 167.183339 200.313234 
L 167.263574 199.47469 
L 167.343449 200.313234 
L 167.503378 199.47469 
L 167.663488 200.732506 
L 167.823418 199.47469 
L 168.063222 200.732506 
L 168.143277 199.893962 
L 168.303568 200.313234 
L 168.383442 199.055418 
L 168.543372 199.893962 
L 168.623607 199.47469 
L 168.783898 200.313234 
L 168.863953 199.893962 
L 169.023882 200.732506 
L 169.265129 199.47469 
L 169.434976 200.313234 
L 169.515031 198.636146 
L 169.67496 199.893962 
L 169.755376 200.313234 
L 169.835251 199.47469 
L 169.996623 200.313234 
L 170.076678 200.732506 
L 170.236427 199.47469 
L 170.316482 200.313234 
L 170.396357 199.055418 
L 170.476772 199.47469 
L 170.716577 200.732506 
L 170.796812 200.313234 
L 170.970625 200.732506 
L 171.060236 199.47469 
L 171.236754 200.313234 
L 171.397765 199.47469 
L 171.47764 200.313234 
L 171.558957 199.893962 
L 171.719067 200.313234 
L 171.799302 200.313234 
L 171.959593 200.732506 
L 172.039828 200.732506 
L 172.200299 200.313234 
L 172.281616 200.732506 
L 172.443168 200.313234 
L 172.523403 200.313234 
L 172.603458 200.732506 
L 172.763929 199.893962 
L 172.843804 200.732506 
L 172.923859 199.47469 
L 173.084149 200.313234 
L 173.174662 200.313234 
L 173.257061 199.47469 
L 173.337837 201.151778 
L 173.418793 199.47469 
L 173.580165 200.313234 
L 173.660401 199.47469 
L 173.740456 201.151778 
L 173.820511 200.732506 
L 173.980801 200.313234 
L 174.220966 200.313234 
L 174.302283 199.055418 
L 174.382158 200.313234 
L 174.462393 199.893962 
L 174.542448 199.47469 
L 174.782793 200.313234 
L 174.862848 200.313234 
L 175.024401 199.47469 
L 175.104275 200.313234 
L 175.18433 199.47469 
L 175.264205 200.732506 
L 175.344801 199.893962 
L 175.504911 200.313234 
L 175.585687 200.313234 
L 175.665742 199.893962 
L 175.826754 200.732506 
L 176.068361 199.893962 
L 176.229913 200.313234 
L 176.390384 199.47469 
L 176.470259 201.151778 
L 176.550314 199.893962 
L 176.63091 200.313234 
L 176.710965 201.151778 
L 176.792282 199.055418 
L 176.872156 199.47469 
L 177.032447 201.151778 
L 177.112502 200.313234 
L 177.192557 201.151778 
L 177.272431 199.47469 
L 177.352667 199.893962 
L 177.674329 201.151778 
L 177.754384 199.47469 
L 177.834439 200.732506 
L 177.914494 200.313234 
L 177.994729 200.313234 
L 178.074604 200.732506 
L 178.1552 199.47469 
L 178.236697 200.313234 
L 178.316752 199.47469 
L 178.398069 200.732506 
L 178.478124 199.893962 
L 178.55836 200.732506 
L 178.638415 199.47469 
L 178.71847 199.893962 
L 178.958635 200.732506 
L 179.120548 199.47469 
L 179.200783 199.893962 
L 179.2821 200.732506 
L 179.44221 200.313234 
L 179.522445 201.57105 
L 179.682555 199.47469 
L 179.843026 200.732506 
L 179.923081 199.47469 
L 180.004578 201.151778 
L 180.084633 199.893962 
L 180.165951 200.313234 
L 180.255742 200.313234 
L 180.335797 200.732506 
L 180.415852 199.893962 
L 180.496087 200.313234 
L 180.575962 199.47469 
L 180.656017 200.313234 
L 180.817028 199.893962 
L 181.058636 200.732506 
L 181.138691 199.47469 
L 181.218746 199.893962 
L 181.539507 201.151778 
L 181.781294 199.893962 
L 181.862612 201.151778 
L 182.102777 199.47469 
L 182.263067 200.732506 
L 182.423537 199.893962 
L 182.506658 200.313234 
L 182.59122 199.893962 
L 182.671275 201.151778 
L 182.831565 200.313234 
L 182.991856 200.313234 
L 183.152507 200.732506 
L 183.233824 200.732506 
L 183.313879 200.313234 
L 183.473989 200.732506 
L 183.713973 199.893962 
L 183.794028 200.732506 
L 183.874083 200.313234 
L 183.955581 200.732506 
L 184.116051 199.893962 
L 184.276161 201.151778 
L 184.360544 200.732506 
L 184.444926 200.732506 
L 184.524981 201.151778 
L 184.685992 199.47469 
L 184.846283 200.313234 
L 184.926338 199.47469 
L 185.006393 200.732506 
L 185.086448 200.313234 
L 185.166683 201.151778 
L 185.246738 199.893962 
L 185.328416 200.313234 
L 185.408471 200.313234 
L 185.489968 199.893962 
L 185.570023 200.313234 
L 185.650439 199.47469 
L 185.810549 200.313234 
L 185.890784 199.893962 
L 185.971019 200.732506 
L 186.052517 200.313234 
L 186.132752 200.732506 
L 186.212987 200.313234 
L 186.375081 201.151778 
L 186.455316 200.313234 
L 186.536813 201.151778 
L 186.697104 199.47469 
L 186.777159 200.313234 
L 186.857033 199.893962 
L 186.937088 200.732506 
L 187.098641 199.893962 
L 187.259292 200.732506 
L 187.420664 199.893962 
L 187.661009 201.151778 
L 187.821299 200.313234 
L 187.98177 201.151778 
L 188.061825 199.47469 
L 188.143142 200.732506 
L 188.304694 199.893962 
L 188.38493 201.151778 
L 188.54522 200.313234 
L 188.625275 201.151778 
L 188.785746 200.313234 
L 189.027173 201.151778 
L 189.107408 199.893962 
L 189.188725 200.313234 
L 189.26878 200.313234 
L 189.349015 200.732506 
L 189.509125 200.313234 
L 189.829706 200.313234 
L 189.991258 199.47469 
L 190.072756 200.313234 
L 190.152811 199.893962 
L 190.312921 201.151778 
L 190.473752 199.47469 
L 190.553807 200.313234 
L 190.633862 199.47469 
L 190.714097 200.313234 
L 190.795234 199.47469 
L 190.956787 200.732506 
L 191.036842 200.313234 
L 191.116897 200.732506 
L 191.196952 199.47469 
L 191.357242 201.151778 
L 191.517352 200.313234 
L 191.597407 201.151778 
L 191.678904 200.732506 
L 191.758779 201.151778 
L 191.838834 200.313234 
L 191.918889 201.990322 
L 192.158874 199.893962 
L 192.239109 199.893962 
L 192.400301 200.313234 
L 192.480536 200.313234 
L 192.560771 199.893962 
L 192.640826 200.732506 
L 192.720881 200.313234 
L 192.801117 201.151778 
L 193.041642 199.47469 
L 193.202654 200.732506 
L 193.282709 199.47469 
L 193.362944 200.732506 
L 193.442999 199.47469 
L 193.523234 199.893962 
L 193.683164 200.732506 
L 193.763219 200.313234 
L 193.844536 200.732506 
L 194.084701 199.47469 
L 194.164756 199.893962 
L 194.244991 201.151778 
L 194.325046 200.313234 
L 194.405101 200.732506 
L 194.485156 200.313234 
L 194.566293 201.151778 
L 194.726583 200.732506 
L 194.808622 200.732506 
L 194.888677 199.893962 
L 194.968732 200.732506 
L 195.048967 199.893962 
L 195.129022 201.151778 
L 195.289312 200.313234 
L 195.369367 200.313234 
L 195.53092 199.893962 
L 195.620891 200.313234 
L 195.705815 199.893962 
L 195.785689 201.151778 
L 195.866826 199.47469 
L 196.028018 200.732506 
L 196.108073 200.732506 
L 196.188488 199.47469 
L 196.268543 200.732506 
L 196.348779 200.313234 
L 196.428653 199.893962 
L 196.508708 200.732506 
L 196.668638 199.893962 
L 196.749955 199.47469 
L 196.910245 200.732506 
L 197.069995 200.732506 
L 197.23317 200.313234 
L 197.473515 201.151778 
L 197.553751 200.732506 
L 197.634707 201.151778 
L 197.95637 199.893962 
L 198.036424 201.151778 
L 198.196895 199.893962 
L 198.438502 200.732506 
L 198.518738 199.893962 
L 198.680471 200.313234 
L 198.760526 199.893962 
L 198.840761 201.990322 
L 199.001051 200.732506 
L 199.081286 200.313234 
L 199.321632 201.151778 
L 199.402949 201.151778 
L 199.564501 200.313234 
L 199.724431 200.732506 
L 199.884541 200.313234 
L 199.964956 201.151778 
L 200.045011 200.313234 
L 200.215579 200.732506 
L 200.298158 200.313234 
L 200.378213 200.732506 
L 200.539225 199.47469 
L 200.699335 200.732506 
L 200.93968 199.893962 
L 201.019735 201.151778 
L 201.09979 200.313234 
L 201.180025 200.732506 
L 201.341397 200.313234 
L 201.421452 200.313234 
L 201.501507 201.151778 
L 201.581562 199.47469 
L 201.741853 200.313234 
L 201.821908 199.47469 
L 201.927386 190.250704 
L 202.156913 154.612575 
L 202.271947 152.935487 
L 202.3868 159.224568 
L 202.847838 205.763771 
L 203.077725 212.052853 
L 203.307613 213.310669 
L 203.537681 212.472125 
L 203.76865 210.375764 
L 203.998358 208.698676 
L 204.113211 207.860132 
L 204.228245 206.183043 
L 204.343099 206.183043 
L 204.803956 204.086683 
L 204.91881 204.505955 
L 205.033844 203.248139 
L 205.148697 203.667411 
L 205.263731 203.248139 
L 205.378405 201.990322 
L 205.493439 202.828867 
L 205.609735 202.828867 
L 205.82015 201.57105 
L 205.98062 201.990322 
L 206.141812 201.990322 
L 206.22331 201.151778 
L 206.38342 202.409594 
L 206.54371 201.151778 
L 206.623765 200.732506 
L 206.704 201.990322 
L 206.784055 200.313234 
L 206.945427 201.151778 
L 207.105717 200.732506 
L 207.265827 201.151778 
L 207.506173 201.151778 
L 207.667725 199.893962 
L 207.828015 200.732506 
L 207.908251 200.313234 
L 207.988306 201.151778 
L 208.228651 200.313234 
L 208.632171 200.313234 
L 208.872336 201.151778 
L 209.032627 201.151778 
L 209.192917 200.313234 
L 209.274595 200.313234 
L 209.35465 199.893962 
L 209.596437 201.990322 
L 209.756728 200.313234 
L 209.925673 201.57105 
L 210.005728 200.732506 
L 210.086684 201.57105 
L 210.166739 200.732506 
L 210.248056 201.151778 
L 210.328111 200.732506 
L 210.408166 202.409594 
L 210.568456 200.732506 
L 210.649233 201.151778 
L 210.809523 200.313234 
L 210.889578 201.151778 
L 210.970535 200.732506 
L 211.05059 201.990322 
L 211.131907 200.732506 
L 211.211962 201.151778 
L 211.532542 201.151778 
L 211.612777 200.732506 
L 211.774871 201.151778 
L 211.855106 201.151778 
L 211.935341 201.57105 
L 212.096894 200.313234 
L 212.258266 201.990322 
L 212.338321 200.313234 
L 212.418737 201.151778 
L 212.498792 200.732506 
L 212.659082 201.990322 
L 212.819372 200.313234 
L 212.900689 201.57105 
L 212.980925 200.732506 
L 213.062242 201.57105 
L 213.222532 201.151778 
L 213.382822 201.990322 
L 213.462877 201.990322 
L 213.542932 201.151778 
L 213.623167 201.57105 
L 213.864595 200.313234 
L 213.94483 201.151778 
L 214.024885 200.732506 
L 214.10512 201.990322 
L 214.185175 200.732506 
L 214.26523 201.57105 
L 214.345285 201.151778 
L 214.42534 201.990322 
L 214.586712 199.893962 
L 214.666948 201.57105 
L 214.748625 200.313234 
L 214.82868 200.732506 
L 214.908916 200.732506 
L 214.988971 200.313234 
L 215.229316 201.151778 
L 215.309551 201.151778 
L 215.390868 200.313234 
L 215.470923 201.151778 
L 215.631394 200.313234 
L 215.711449 200.732506 
L 215.791684 200.313234 
L 215.871739 201.57105 
L 215.951974 200.313234 
L 216.032029 200.732506 
L 216.113347 201.57105 
L 216.274899 201.151778 
L 216.355134 201.151778 
L 216.515244 200.313234 
L 216.597283 201.151778 
L 216.837808 200.313234 
L 216.997918 201.151778 
L 217.078153 200.313234 
L 217.159471 201.57105 
L 217.693892 56.083633 
L 217.802976 53.568 
L 217.91206 59.437809 
L 218.67727 146.646406 
L 219.004341 156.708936 
L 219.331593 162.998017 
L 219.440858 163.417289 
L 219.658845 166.771466 
L 220.095361 176.833997 
L 220.313709 180.607445 
L 220.640961 187.315799 
L 221.187823 197.797601 
L 221.405811 201.151778 
L 221.842147 207.860132 
L 221.951231 208.279404 
L 222.824082 217.50339 
L 223.151334 219.180478 
L 223.479848 221.276839 
L 223.588932 220.438295 
L 223.916364 222.115383 
L 224.025629 222.115383 
L 224.134712 220.857567 
L 224.35288 221.696111 
L 224.461964 222.115383 
L 224.571229 220.857567 
L 224.789396 221.696111 
L 224.89848 221.276839 
L 225.007564 221.696111 
L 225.116648 220.438295 
L 225.225552 220.857567 
L 225.4439 219.59975 
L 225.554426 219.59975 
L 225.772775 218.341934 
L 225.882039 218.761206 
L 226.20911 216.245574 
L 226.427459 216.245574 
L 226.645626 214.987757 
L 226.863794 214.149213 
L 227.081962 212.891397 
L 227.30013 212.052853 
L 227.409214 212.052853 
L 227.627382 210.795036 
L 227.736466 210.795036 
L 228.06516 208.279404 
L 228.174244 209.53722 
L 228.501496 207.021588 
L 228.61076 207.44086 
L 228.828928 207.021588 
L 228.938012 207.021588 
L 229.15618 205.763771 
L 229.265264 205.763771 
L 229.374348 204.925227 
L 229.592516 206.602315 
L 229.815732 204.505955 
L 229.924816 205.763771 
L 230.142984 204.505955 
L 230.252068 204.505955 
L 230.362414 203.667411 
L 230.580401 204.925227 
L 230.689485 203.248139 
L 231.016737 204.086683 
L 231.125821 203.667411 
L 231.234905 204.505955 
L 231.343989 204.086683 
L 231.562157 204.505955 
L 231.671241 204.086683 
L 231.780325 204.505955 
L 231.998493 203.667411 
L 232.216661 203.667411 
L 232.434648 204.505955 
L 232.870984 204.505955 
L 232.980068 203.667411 
L 233.199678 204.505955 
L 233.308942 204.505955 
L 233.418026 204.086683 
L 233.52711 204.505955 
L 233.854362 203.248139 
L 234.07253 204.505955 
L 234.181614 204.505955 
L 234.290878 204.925227 
L 234.61795 203.667411 
L 234.836478 204.505955 
L 234.945382 204.925227 
L 235.272634 203.248139 
L 235.381718 204.925227 
L 235.710592 203.667411 
L 235.92876 204.505955 
L 236.365096 204.505955 
L 236.473999 204.925227 
L 236.692167 204.086683 
L 236.910516 204.505955 
L 237.347032 203.248139 
L 237.456116 204.505955 
L 237.674464 203.248139 
L 237.783367 204.505955 
L 237.892451 203.248139 
L 238.112062 203.667411 
L 238.221326 202.828867 
L 238.33041 204.086683 
L 238.548758 202.828867 
L 238.766926 203.667411 
L 238.87601 202.828867 
L 238.985094 203.667411 
L 239.203262 202.828867 
L 239.312165 203.248139 
L 239.421249 202.409594 
L 239.639417 203.667411 
L 239.966849 202.828867 
L 240.075933 202.828867 
L 240.184657 203.667411 
L 240.29338 202.409594 
L 240.511007 203.248139 
L 240.61991 202.409594 
L 240.728994 203.667411 
L 240.838259 202.828867 
L 241.057869 203.248139 
L 241.166953 201.990322 
L 241.603469 203.248139 
L 241.821457 202.409594 
L 241.930721 203.248139 
L 242.257973 201.990322 
L 242.476141 202.828867 
L 242.585224 202.828867 
L 242.803573 201.990322 
L 242.912837 202.828867 
L 243.021741 201.990322 
L 243.239908 202.409594 
L 243.348992 202.409594 
L 243.457896 201.151778 
L 243.677687 202.409594 
L 243.786771 202.409594 
L 244.004758 202.828867 
L 244.222746 201.990322 
L 244.33183 202.409594 
L 244.549637 201.990322 
L 244.767805 201.990322 
L 244.876889 201.151778 
L 245.094876 203.248139 
L 245.20396 201.990322 
L 245.422128 202.409594 
L 245.531392 201.990322 
L 245.858644 202.828867 
L 245.967548 201.990322 
L 246.076632 203.248139 
L 246.296062 201.57105 
L 246.405146 201.57105 
L 246.514049 201.990322 
L 246.622953 201.57105 
L 246.840941 202.409594 
L 246.949664 201.151778 
L 247.058748 202.828867 
L 247.167471 201.990322 
L 247.278899 202.409594 
L 247.387803 201.151778 
L 247.496706 201.990322 
L 247.608856 201.57105 
L 247.827204 202.828867 
L 247.936288 202.828867 
L 248.045191 201.151778 
L 248.154095 202.828867 
L 248.263179 201.151778 
L 248.809139 202.828867 
L 249.027307 201.151778 
L 249.140358 201.990322 
L 249.250163 201.151778 
L 249.469052 202.828867 
L 249.578857 202.409594 
L 249.687941 200.732506 
L 249.905929 201.990322 
L 250.124277 201.151778 
L 250.342445 202.409594 
L 250.451529 201.151778 
L 250.560793 202.409594 
L 250.7786 201.151778 
L 250.887684 201.990322 
L 250.997309 200.732506 
L 251.106573 202.409594 
L 251.326184 201.151778 
L 251.435268 201.990322 
L 251.544352 201.151778 
L 251.76252 201.990322 
L 251.980687 200.732506 
L 252.089591 201.990322 
L 252.199577 201.151778 
L 252.308661 201.57105 
L 252.417744 200.732506 
L 252.527009 202.409594 
L 252.744816 200.732506 
L 252.962984 201.990322 
L 253.072068 201.990322 
L 253.181152 202.409594 
L 253.399139 201.151778 
L 253.508043 201.151778 
L 253.72585 202.409594 
L 253.945461 200.732506 
L 254.163628 201.57105 
L 254.272532 201.151778 
L 254.4907 201.990322 
L 254.819034 201.990322 
L 254.928118 201.151778 
L 255.037021 201.990322 
L 255.25555 201.151778 
L 255.364814 201.151778 
L 255.473898 200.313234 
L 255.692066 201.990322 
L 255.80115 201.990322 
L 255.910234 200.732506 
L 256.02076 201.151778 
L 256.129844 200.313234 
L 256.238928 201.57105 
L 256.457276 201.151778 
L 256.56618 201.990322 
L 256.784167 200.732506 
L 257.003237 201.151778 
L 257.11214 200.313234 
L 257.330308 201.151778 
L 257.548296 200.313234 
L 257.657199 201.57105 
L 257.766464 200.732506 
L 257.984812 201.151778 
L 258.204422 201.151778 
L 258.313506 200.313234 
L 258.531674 201.990322 
L 258.750022 200.732506 
L 258.859286 201.57105 
L 259.078356 201.151778 
L 259.18744 201.151778 
L 259.296524 200.732506 
L 259.405608 201.151778 
L 259.514692 200.732506 
L 259.623776 201.151778 
L 259.732679 200.313234 
L 259.841763 201.151778 
L 259.951027 200.732506 
L 260.060111 201.57105 
L 260.169015 200.313234 
L 260.497529 201.151778 
L 260.933504 201.151778 
L 261.042588 201.990322 
L 261.260756 200.732506 
L 261.478744 200.732506 
L 261.587827 200.313234 
L 261.805995 201.151778 
L 261.915079 200.732506 
L 262.024163 201.57105 
L 262.133427 200.732506 
L 262.242511 201.151778 
L 262.351415 200.732506 
L 262.569403 201.151778 
L 262.678487 200.732506 
L 262.896654 201.151778 
L 263.225349 201.151778 
L 263.334433 201.990322 
L 263.55242 200.313234 
L 263.661504 201.151778 
L 263.770588 200.732506 
L 263.988576 201.57105 
L 264.09766 200.732506 
L 264.316008 201.151778 
L 264.424911 201.151778 
L 264.642899 199.893962 
L 264.751983 201.151778 
L 264.861067 200.313234 
L 265.079235 201.151778 
L 265.188319 200.313234 
L 265.406487 201.151778 
L 265.515571 201.151778 
L 265.624654 200.313234 
L 265.733738 201.151778 
L 265.951906 200.732506 
L 266.06099 201.151778 
L 266.171336 200.313234 
L 266.498588 201.151778 
L 266.607492 201.151778 
L 266.716576 200.732506 
L 266.825479 201.990322 
L 266.934563 200.732506 
L 267.043647 201.151778 
L 267.153452 200.313234 
L 267.37144 200.732506 
L 267.480524 200.732506 
L 267.589608 200.313234 
L 267.807776 201.151778 
L 267.91686 201.151778 
L 268.135028 200.313234 
L 268.244292 201.57105 
L 268.354638 200.313234 
L 268.572806 201.151778 
L 268.899697 200.313234 
L 269.008601 200.313234 
L 269.226588 201.151778 
L 269.335672 200.313234 
L 269.55384 201.151778 
L 269.662924 200.313234 
L 269.772008 201.151778 
L 270.09926 200.313234 
L 270.208344 201.151778 
L 270.317428 200.313234 
L 270.644679 201.151778 
L 270.862667 200.313234 
L 271.080835 201.151778 
L 271.299003 200.313234 
L 271.407906 201.151778 
L 271.51699 200.313234 
L 271.735158 201.151778 
L 271.844242 200.313234 
L 271.95567 201.57105 
L 272.173658 200.313234 
L 272.391826 201.151778 
L 272.500909 200.313234 
L 272.609993 201.57105 
L 272.719077 200.313234 
L 272.828161 201.151778 
L 272.937065 200.313234 
L 273.046149 201.57105 
L 273.155053 200.732506 
L 273.263956 201.151778 
L 273.482124 200.313234 
L 273.591208 200.732506 
L 273.809376 200.313234 
L 273.91846 201.151778 
L 274.245712 199.47469 
L 274.463699 201.151778 
L 274.572783 201.151778 
L 274.68385 201.57105 
L 274.902018 200.313234 
L 275.010922 200.313234 
L 275.119826 200.732506 
L 275.22909 200.313234 
L 275.337993 201.151778 
L 275.447077 199.893962 
L 275.665426 200.732506 
L 275.77451 200.313234 
L 275.883774 200.732506 
L 275.992858 199.893962 
L 276.210845 201.151778 
L 276.32011 199.47469 
L 276.429194 200.732506 
L 276.538097 200.313234 
L 276.647361 200.732506 
L 276.865349 199.893962 
L 276.974613 201.151778 
L 277.084959 200.732506 
L 277.194043 201.151778 
L 277.302947 200.732506 
L 277.522737 201.151778 
L 277.632002 199.47469 
L 277.741086 201.151778 
L 277.959073 199.893962 
L 278.068157 201.57105 
L 278.286325 200.313234 
L 278.395229 201.151778 
L 278.504132 200.313234 
L 278.831204 201.990322 
L 279.049191 200.732506 
L 279.161701 200.313234 
L 279.271326 201.151778 
L 279.38023 200.313234 
L 279.489494 200.732506 
L 279.598578 200.313234 
L 279.707482 200.732506 
L 279.925649 199.893962 
L 280.143637 200.313234 
L 280.252721 200.313234 
L 280.579973 201.151778 
L 280.79796 200.313234 
L 280.907044 201.151778 
L 281.125212 200.313234 
L 281.234296 201.57105 
L 281.452103 199.47469 
L 281.561187 201.151778 
L 281.670091 200.732506 
L 281.779175 201.57105 
L 281.888078 200.732506 
L 281.997343 201.151778 
L 282.107869 200.313234 
L 282.216953 201.990322 
L 282.43476 200.313234 
L 282.652748 200.313234 
L 282.761832 201.151778 
L 282.870736 199.893962 
L 283.19943 201.151778 
L 283.308514 200.732506 
L 283.526862 201.151778 
L 283.74503 200.313234 
L 283.853933 200.313234 
L 284.072462 201.990322 
L 284.292613 200.732506 
L 284.510961 200.732506 
L 284.619865 199.47469 
L 284.838033 201.151778 
L 285.05602 199.893962 
L 285.274008 201.151778 
L 285.710163 199.47469 
L 285.928331 200.732506 
L 286.146499 200.313234 
L 286.255583 201.990322 
L 286.474833 200.313234 
L 286.583737 200.313234 
L 286.801724 201.151778 
L 286.910808 200.313234 
L 287.130418 201.151778 
L 287.239502 199.893962 
L 287.348586 201.990322 
L 287.566574 200.732506 
L 287.784742 199.47469 
L 287.894006 200.313234 
L 288.00309 199.47469 
L 288.112174 200.313234 
L 288.221077 199.893962 
L 288.329981 200.732506 
L 288.438885 199.893962 
L 288.656692 200.313234 
L 288.765596 200.313234 
L 288.983583 201.151778 
L 289.092667 201.57105 
L 289.310835 200.313234 
L 289.529003 200.313234 
L 289.638087 199.893962 
L 289.855894 201.57105 
L 290.073882 200.313234 
L 290.182785 201.151778 
L 290.400773 200.313234 
L 290.509677 200.313234 
L 290.618761 199.893962 
L 290.838191 201.151778 
L 290.947274 200.313234 
L 291.056358 201.990322 
L 291.274526 200.732506 
L 291.38361 201.151778 
L 291.492514 199.893962 
L 291.601418 200.313234 
L 291.819766 199.47469 
L 291.930292 200.732506 
L 292.039376 199.893962 
L 292.14846 200.732506 
L 292.257544 199.893962 
L 292.368611 201.57105 
L 292.586779 200.313234 
L 293.024557 200.313234 
L 293.133822 201.151778 
L 293.242725 200.732506 
L 293.351989 201.57105 
L 293.461073 199.893962 
L 293.570157 201.151778 
L 293.788145 200.313234 
L 294.006673 200.732506 
L 294.115757 200.313234 
L 294.225022 201.151778 
L 294.333925 199.893962 
L 294.442829 200.732506 
L 294.551732 199.893962 
L 294.7699 200.732506 
L 294.879165 200.313234 
L 294.988068 201.57105 
L 295.206056 200.313234 
L 295.31514 201.151778 
L 295.643834 199.893962 
L 295.862182 200.732506 
L 296.08035 200.732506 
L 296.189254 199.893962 
L 296.298518 201.151778 
L 296.516686 200.313234 
L 296.734673 201.151778 
L 297.062106 201.151778 
L 297.280273 200.732506 
L 297.389177 200.732506 
L 297.716249 199.893962 
L 297.825152 201.151778 
L 298.0435 199.893962 
L 298.152404 199.893962 
L 298.370572 200.313234 
L 298.479656 199.893962 
L 298.697824 201.57105 
L 298.917073 199.893962 
L 299.026338 200.732506 
L 299.244325 200.313234 
L 299.353409 200.732506 
L 299.462493 200.313234 
L 299.571757 201.151778 
L 299.680841 200.313234 
L 299.789925 200.732506 
L 299.898829 200.313234 
L 300.007913 200.732506 
L 300.117177 199.893962 
L 300.334984 201.151778 
L 300.444249 201.151778 
L 300.662417 200.732506 
L 300.771501 201.151778 
L 300.880404 200.313234 
L 300.989308 201.151778 
L 301.207115 200.313234 
L 301.316019 200.732506 
L 301.424922 200.313234 
L 301.534006 201.151778 
L 301.753617 199.893962 
L 301.862701 200.313234 
L 301.971965 201.151778 
L 302.081049 199.893962 
L 302.299036 201.151778 
L 302.626108 199.47469 
L 302.844095 200.732506 
L 302.95336 199.893962 
L 303.062444 201.151778 
L 303.171347 199.893962 
L 303.280611 201.57105 
L 303.498779 199.893962 
L 303.607683 200.732506 
L 303.716767 199.893962 
L 304.043838 201.151778 
L 304.261826 200.313234 
L 304.479814 199.893962 
L 304.588537 199.893962 
L 304.808147 201.151778 
L 304.917231 201.151778 
L 305.031724 199.47469 
L 305.358796 201.151778 
L 305.46788 200.313234 
L 305.685867 201.151778 
L 305.794951 200.313234 
L 306.012939 201.151778 
L 306.121842 201.151778 
L 306.341994 200.313234 
L 306.453061 200.313234 
L 306.671049 201.57105 
L 306.779952 200.313234 
L 306.999022 201.151778 
L 307.217009 200.313234 
L 307.326093 200.732506 
L 307.434997 200.313234 
L 307.652984 201.57105 
L 307.761888 199.893962 
L 307.870792 200.313234 
L 307.979876 199.893962 
L 308.197863 200.732506 
L 308.307127 199.47469 
L 308.416031 201.151778 
L 308.525115 200.313234 
L 308.743283 200.732506 
L 308.852367 199.893962 
L 309.070354 201.151778 
L 309.288522 200.313234 
L 309.508493 201.151778 
L 309.726661 200.313234 
L 309.944829 200.732506 
L 310.054093 200.313234 
L 310.163177 201.151778 
L 310.381525 200.313234 
L 310.490429 200.313234 
L 310.599513 199.893962 
L 310.817681 200.732506 
L 311.035849 201.151778 
L 311.3631 199.893962 
L 311.472184 200.313234 
L 311.581268 199.47469 
L 311.690172 200.732506 
L 311.799076 200.313234 
L 311.907979 201.151778 
L 312.236313 200.313234 
L 312.345577 200.313234 
L 312.454661 200.732506 
L 312.563745 199.893962 
L 312.672829 201.57105 
L 312.891357 200.313234 
L 313.000622 200.732506 
L 313.328054 199.893962 
L 313.546222 201.990322 
L 313.655306 201.57105 
L 313.873654 200.313234 
L 313.982558 200.732506 
L 314.091641 199.893962 
L 314.311432 201.151778 
L 314.5296 199.47469 
L 314.857032 201.151778 
L 314.965936 201.151778 
L 315.293007 200.313234 
L 315.511175 201.151778 
L 315.838427 200.313234 
L 316.056775 201.151778 
L 316.166039 201.151778 
L 316.275123 199.893962 
L 316.384207 201.151778 
L 316.493471 199.893962 
L 316.602375 201.151778 
L 316.820723 199.893962 
L 316.929988 200.313234 
L 317.149418 201.151778 
L 317.368848 200.313234 
L 317.477932 200.313234 
L 317.586835 200.732506 
L 317.695919 199.893962 
L 317.805003 200.732506 
L 318.022991 199.893962 
L 318.132255 200.732506 
L 318.350423 200.313234 
L 318.462932 200.313234 
L 318.572197 200.732506 
L 318.899449 199.893962 
L 319.117616 200.313234 
L 319.2267 200.313234 
L 319.337227 201.151778 
L 319.446491 199.893962 
L 319.555575 200.732506 
L 319.664659 199.893962 
L 319.773743 201.151778 
L 319.883007 200.313234 
L 320.101175 201.151778 
L 320.210259 199.893962 
L 320.319343 200.313234 
L 320.428607 199.893962 
L 320.646775 200.732506 
L 320.755859 200.313234 
L 320.864943 201.151778 
L 321.192195 199.893962 
L 321.52143 200.732506 
L 321.739598 200.313234 
L 321.848501 200.732506 
L 321.957766 199.893962 
L 322.06685 200.732506 
L 322.176114 200.313234 
L 322.285198 200.732506 
L 322.503185 200.313234 
L 322.612269 200.313234 
L 322.721353 200.732506 
L 322.939521 199.893962 
L 323.157689 201.151778 
L 323.266593 200.313234 
L 323.375677 200.732506 
L 323.484761 199.893962 
L 323.702928 201.990322 
L 324.031623 200.313234 
L 324.140707 201.151778 
L 324.249791 200.732506 
L 324.358874 201.151778 
L 324.467958 199.893962 
L 324.686126 201.151778 
L 324.904114 199.893962 
L 325.013198 201.57105 
L 325.34045 199.893962 
L 325.449534 201.151778 
L 325.776785 199.893962 
L 325.994953 200.732506 
L 326.104037 200.732506 
L 326.322205 200.313234 
L 326.431289 201.57105 
L 326.650719 199.893962 
L 326.759803 199.893962 
L 327.09589 201.151778 
L 327.204974 199.893962 
L 327.314238 200.732506 
L 327.423502 200.313234 
L 327.534029 201.151778 
L 327.752016 199.47469 
L 327.86092 200.313234 
L 328.079268 199.47469 
L 328.188352 201.151778 
L 328.297436 200.732506 
L 328.4067 201.151778 
L 328.843396 199.893962 
L 328.95248 201.151778 
L 329.170829 200.732506 
L 329.279913 200.732506 
L 329.4979 199.893962 
L 329.716068 201.151778 
L 329.826594 200.732506 
L 329.935678 200.313234 
L 330.044762 201.151778 
L 330.153666 199.893962 
L 330.371834 200.313234 
L 330.480918 199.893962 
L 330.590002 201.151778 
L 330.698905 200.732506 
L 330.917073 201.151778 
L 331.026157 200.313234 
L 331.135421 200.732506 
L 331.462673 199.893962 
L 331.789745 200.732506 
L 331.899009 200.732506 
L 332.1188 201.151778 
L 332.336967 200.313234 
L 332.555135 200.732506 
L 332.664219 199.47469 
L 332.991471 201.151778 
L 333.100555 199.893962 
L 333.427627 200.732506 
L 333.75578 200.732506 
L 333.864864 200.313234 
L 333.973767 201.151778 
L 334.191935 200.313234 
L 334.411546 200.732506 
L 334.520449 200.732506 
L 334.738617 201.151778 
L 334.956785 200.313234 
L 335.174953 200.313234 
L 335.284398 201.151778 
L 335.393662 199.47469 
L 335.61183 200.732506 
L 335.829998 200.313234 
L 335.939081 200.313234 
L 336.048165 201.151778 
L 336.375417 200.313234 
L 336.484501 200.313234 
L 336.593585 201.990322 
L 336.813195 200.313234 
L 337.140447 201.151778 
L 337.249531 200.313234 
L 337.358615 201.151778 
L 337.576783 200.732506 
L 337.685867 201.151778 
L 337.904035 200.732506 
L 338.122022 201.151778 
L 338.34019 199.893962 
L 338.449274 199.893962 
L 338.558178 201.151778 
L 338.776346 200.313234 
L 338.88543 201.151778 
L 338.994514 200.313234 
L 339.103598 200.732506 
L 339.432112 199.893962 
L 339.759363 201.151778 
L 339.977531 200.313234 
L 340.195699 200.313234 
L 340.304783 201.151778 
L 340.741119 199.893962 
L 340.959287 200.313234 
L 341.177455 200.313234 
L 341.286539 200.732506 
L 341.504706 200.313234 
L 341.61379 201.151778 
L 341.723956 200.313234 
L 341.83322 201.151778 
L 342.051569 200.313234 
L 342.160653 199.893962 
L 342.269736 201.151778 
L 342.488085 199.893962 
L 342.706072 201.151778 
L 342.815337 200.313234 
L 342.92442 201.151778 
L 343.142588 199.47469 
L 343.251853 201.151778 
L 343.578924 199.47469 
L 343.797092 201.151778 
L 344.016702 200.732506 
L 344.125786 201.151778 
L 344.343954 200.313234 
L 344.562302 201.151778 
L 345.108083 199.47469 
L 345.326431 200.732506 
L 345.435515 200.313234 
L 345.762586 200.313234 
L 345.87167 199.893962 
L 345.980934 200.732506 
L 346.091461 199.893962 
L 346.200545 201.151778 
L 346.418713 199.47469 
L 346.745965 201.151778 
L 346.855229 200.313234 
L 347.073397 201.151778 
L 347.182661 200.732506 
L 347.400829 201.151778 
L 347.509913 200.313234 
L 347.618997 201.151778 
L 347.837345 200.313234 
L 347.946609 200.313234 
L 348.055513 199.893962 
L 348.164777 201.151778 
L 348.384387 200.313234 
L 348.493291 200.732506 
L 348.711639 200.313234 
L 349.039071 201.151778 
L 349.257419 199.893962 
L 349.693755 201.151778 
L 349.912103 201.151778 
L 350.239355 200.313234 
L 350.348439 201.57105 
L 350.566607 200.732506 
L 350.677133 201.151778 
L 350.895301 200.313234 
L 351.113469 199.893962 
L 351.331817 201.151778 
L 351.440901 199.893962 
L 351.659069 200.732506 
L 351.768333 200.313234 
L 351.986501 201.151778 
L 352.313753 200.313234 
L 352.531921 201.151778 
L 352.750089 199.893962 
L 352.968257 199.893962 
L 353.187867 200.732506 
L 353.296951 200.313234 
L 353.406035 201.151778 
L 353.624203 200.313234 
L 353.733467 200.732506 
L 353.842551 200.313234 
L 353.951635 201.151778 
L 354.169803 199.893962 
L 354.387971 200.732506 
L 354.497055 201.151778 
L 354.606139 200.313234 
L 354.715223 201.151778 
L 354.93339 199.47469 
L 355.369726 200.732506 
L 355.47899 199.893962 
L 355.69842 200.732506 
L 355.916588 199.47469 
L 356.025672 201.151778 
L 356.134756 199.47469 
L 356.24384 200.732506 
L 356.352924 200.313234 
L 356.571092 201.151778 
L 357.007428 199.893962 
L 357.225596 200.732506 
L 357.443764 201.151778 
L 357.661931 199.893962 
L 357.880099 200.732506 
L 358.208613 199.893962 
L 358.317697 200.313234 
L 358.426781 199.893962 
L 358.754033 200.732506 
L 358.863117 200.732506 
L 359.081285 199.893962 
L 359.190369 200.313234 
L 359.299453 199.47469 
L 359.408537 200.313234 
L 359.626704 199.893962 
L 359.735788 200.732506 
L 359.844872 199.893962 
L 359.953956 201.151778 
L 360.172305 199.893962 
L 360.499376 201.57105 
L 360.718986 199.893962 
L 360.82807 201.151778 
L 360.937154 200.313234 
L 361.046238 201.151778 
L 361.155322 200.732506 
L 361.264406 201.151778 
L 361.482754 200.313234 
L 361.700922 199.893962 
L 361.91909 199.893962 
L 362.13852 200.732506 
L 362.247604 199.893962 
L 362.356688 200.732506 
L 362.574856 199.893962 
L 362.793024 200.732506 
L 363.121718 199.893962 
L 363.558054 201.57105 
L 363.776222 200.732506 
L 363.885666 201.151778 
L 364.212918 200.313234 
L 364.431086 201.151778 
L 364.539989 199.893962 
L 364.649073 202.409594 
L 364.758157 199.893962 
L 364.976145 200.732506 
L 365.196116 199.893962 
L 365.524269 201.151778 
L 365.633533 200.313234 
L 365.742798 200.732506 
L 366.07023 199.893962 
L 366.179314 201.151778 
L 366.397301 200.313234 
L 366.506385 200.313234 
L 366.615469 201.151778 
L 366.724373 200.313234 
L 366.833277 201.151778 
L 367.051625 200.313234 
L 367.271055 201.151778 
L 367.380319 201.151778 
L 367.489403 200.313234 
L 367.598667 200.732506 
L 367.816835 200.313234 
L 367.925919 201.151778 
L 368.035003 199.893962 
L 368.253171 201.151778 
L 368.362074 201.151778 
L 368.471158 200.313234 
L 368.580062 200.732506 
L 368.689326 199.893962 
L 368.907674 200.313234 
L 369.016758 199.893962 
L 369.125662 200.313234 
L 369.234926 199.893962 
L 369.344191 200.732506 
L 369.562358 200.313234 
L 369.671442 201.151778 
L 369.891053 200.313234 
L 370.000137 200.732506 
L 370.218124 200.313234 
L 370.327208 200.732506 
L 370.436292 199.893962 
L 370.545556 200.732506 
L 370.763724 199.893962 
L 371.090976 200.732506 
L 371.20006 200.732506 
L 371.418408 199.47469 
L 371.527492 200.732506 
L 371.74584 200.313234 
L 371.854924 200.313234 
L 372.074354 201.151778 
L 372.183438 200.313234 
L 372.292522 201.151778 
L 372.619774 199.893962 
L 372.728858 200.732506 
L 372.947026 199.893962 
L 373.165194 201.151778 
L 373.383362 200.313234 
L 373.492445 199.893962 
L 373.710613 201.151778 
L 374.038045 201.151778 
L 374.147129 200.313234 
L 374.474381 201.151778 
L 374.583465 200.732506 
L 374.693992 201.151778 
L 374.803076 199.893962 
L 375.130327 201.57105 
L 375.239411 199.47469 
L 375.348495 200.732506 
L 375.457579 199.893962 
L 375.566663 200.313234 
L 375.675747 199.893962 
L 375.784651 200.313234 
L 375.893194 199.893962 
L 376.111362 200.732506 
L 376.220446 200.313234 
L 376.329529 201.151778 
L 376.547697 199.893962 
L 376.765685 200.313234 
L 376.983673 200.313234 
L 377.092756 200.732506 
L 377.20184 199.893962 
L 377.420008 200.732506 
L 377.529092 199.893962 
L 377.74708 200.732506 
L 377.965248 200.313234 
L 378.184678 201.151778 
L 378.402846 200.732506 
L 378.511749 200.732506 
L 378.620833 201.151778 
L 378.948085 200.313234 
L 379.057169 201.151778 
L 379.275337 200.313234 
L 379.493505 200.313234 
L 379.602589 201.151778 
L 379.820576 200.313234 
L 379.92966 200.313234 
L 380.038744 200.732506 
L 380.147828 200.313234 
L 380.47508 201.151778 
L 380.584164 199.47469 
L 380.693248 200.732506 
L 380.802332 200.313234 
L 380.911416 200.732506 
L 381.24011 199.893962 
L 381.458278 201.151778 
L 381.676446 199.893962 
L 381.894794 201.151778 
L 382.112962 201.151778 
L 382.222046 200.313234 
L 382.33113 201.151778 
L 382.440214 200.313234 
L 382.658562 201.151778 
L 382.876369 200.313234 
L 382.985453 200.732506 
L 383.094537 199.893962 
L 383.203621 200.732506 
L 383.312705 200.313234 
L 383.421789 200.732506 
L 383.530873 200.313234 
L 383.639957 201.151778 
L 383.968831 200.313234 
L 384.296083 200.313234 
L 384.405167 201.151778 
L 384.514071 200.313234 
L 384.732058 201.57105 
L 384.950226 200.313234 
L 385.05931 201.151778 
L 385.168394 200.313234 
L 385.386562 201.151778 
L 385.713633 199.47469 
L 385.822898 200.732506 
L 385.931982 199.893962 
L 386.149969 201.151778 
L 386.259053 199.47469 
L 386.477221 200.732506 
L 386.695389 200.732506 
L 386.804473 200.313234 
L 386.913557 201.151778 
L 387.022641 200.313234 
L 387.351335 201.151778 
L 387.460239 201.151778 
L 387.569322 200.313234 
L 387.678406 200.732506 
L 387.78749 199.47469 
L 387.896574 200.313234 
L 388.005658 199.893962 
L 388.114742 201.990322 
L 388.223826 200.313234 
L 388.33291 200.732506 
L 388.551078 200.313234 
L 388.660162 200.732506 
L 388.769246 200.313234 
L 388.87833 201.151778 
L 389.096498 199.893962 
L 389.205582 200.313234 
L 389.314666 200.313234 
L 389.533014 199.893962 
L 389.641917 200.313234 
L 389.751001 199.47469 
L 389.970612 200.313234 
L 390.18914 201.57105 
L 390.407128 200.313234 
L 390.516392 201.151778 
L 390.73456 200.313234 
L 390.843824 201.57105 
L 390.952908 200.313234 
L 391.170896 201.151778 
L 391.389063 199.893962 
L 391.716496 200.732506 
L 391.936466 200.732506 
L 392.04555 200.313234 
L 392.156077 200.732506 
L 392.374064 200.313234 
L 392.483148 201.151778 
L 392.592232 199.893962 
L 392.701497 200.313234 
L 392.81058 201.57105 
L 392.919664 200.313234 
L 393.028929 200.732506 
L 393.137832 199.893962 
L 393.356361 200.732506 
L 393.465445 200.313234 
L 393.574529 200.732506 
L 393.683613 199.47469 
L 393.792697 201.151778 
L 393.902682 200.313234 
L 394.011766 201.151778 
L 394.34046 200.313234 
L 394.449544 200.313234 
L 394.558628 201.57105 
L 394.776796 200.313234 
L 394.88588 200.732506 
L 394.994964 200.313234 
L 395.212951 201.151778 
L 395.540384 200.313234 
L 395.649287 200.313234 
L 395.758191 201.151778 
L 396.194346 199.47469 
L 396.521598 200.313234 
L 396.739766 200.313234 
L 396.957934 201.151778 
L 397.177364 200.732506 
L 397.286268 201.151778 
L 397.504435 200.313234 
L 397.722603 201.151778 
L 398.050035 199.47469 
L 398.268023 201.151778 
L 398.487273 199.893962 
L 398.487273 199.893962 
" style="fill:none;stroke:#ff7f0e;stroke-linecap:square;stroke-width:1.5;"/>
   </g>
   <g id="patch_3">
    <path d="M 57.6 307.584 
L 57.6 41.472 
" style="fill:none;stroke:#000000;stroke-linecap:square;stroke-linejoin:miter;stroke-width:0.8;"/>
   </g>
   <g id="patch_4">
    <path d="M 414.72 307.584 
L 414.72 41.472 
" style="fill:none;stroke:#000000;stroke-linecap:square;stroke-linejoin:miter;stroke-width:0.8;"/>
   </g>
   <g id="patch_5">
    <path d="M 57.6 307.584 
L 414.72 307.584 
" style="fill:none;stroke:#000000;stroke-linecap:square;stroke-linejoin:miter;stroke-width:0.8;"/>
   </g>
   <g id="patch_6">
    <path d="M 57.6 41.472 
L 414.72 41.472 
" style="fill:none;stroke:#000000;stroke-linecap:square;stroke-linejoin:miter;stroke-width:0.8;"/>
   </g>
   <g id="text_17">
    <!-- Temperatures of heater -->
    <defs>
     <path d="M 30.609375 48.390625 
Q 23.390625 48.390625 19.1875 42.75 
Q 14.984375 37.109375 14.984375 27.296875 
Q 14.984375 17.484375 19.15625 11.84375 
Q 23.34375 6.203125 30.609375 6.203125 
Q 37.796875 6.203125 41.984375 11.859375 
Q 46.1875 17.53125 46.1875 27.296875 
Q 46.1875 37.015625 41.984375 42.703125 
Q 37.796875 48.390625 30.609375 48.390625 
z
M 30.609375 56 
Q 42.328125 56 49.015625 48.375 
Q 55.71875 40.765625 55.71875 27.296875 
Q 55.71875 13.875 49.015625 6.21875 
Q 42.328125 -1.421875 30.609375 -1.421875 
Q 18.84375 -1.421875 12.171875 6.21875 
Q 5.515625 13.875 5.515625 27.296875 
Q 5.515625 40.765625 12.171875 48.375 
Q 18.84375 56 30.609375 56 
z
" id="DejaVuSans-6f"/>
     <path d="M 37.109375 75.984375 
L 37.109375 68.5 
L 28.515625 68.5 
Q 23.6875 68.5 21.796875 66.546875 
Q 19.921875 64.59375 19.921875 59.515625 
L 19.921875 54.6875 
L 34.71875 54.6875 
L 34.71875 47.703125 
L 19.921875 47.703125 
L 19.921875 0 
L 10.890625 0 
L 10.890625 47.703125 
L 2.296875 47.703125 
L 2.296875 54.6875 
L 10.890625 54.6875 
L 10.890625 58.5 
Q 10.890625 67.625 15.140625 71.796875 
Q 19.390625 75.984375 28.609375 75.984375 
z
" id="DejaVuSans-66"/>
     <path d="M 54.890625 33.015625 
L 54.890625 0 
L 45.90625 0 
L 45.90625 32.71875 
Q 45.90625 40.484375 42.875 44.328125 
Q 39.84375 48.1875 33.796875 48.1875 
Q 26.515625 48.1875 22.3125 43.546875 
Q 18.109375 38.921875 18.109375 30.90625 
L 18.109375 0 
L 9.078125 0 
L 9.078125 75.984375 
L 18.109375 75.984375 
L 18.109375 46.1875 
Q 21.34375 51.125 25.703125 53.5625 
Q 30.078125 56 35.796875 56 
Q 45.21875 56 50.046875 50.171875 
Q 54.890625 44.34375 54.890625 33.015625 
z
" id="DejaVuSans-68"/>
    </defs>
    <g transform="translate(164.614688 35.472)scale(0.12 -0.12)">
     <use xlink:href="#DejaVuSans-54"/>
     <use x="60.818359" xlink:href="#DejaVuSans-65"/>
     <use x="122.341797" xlink:href="#DejaVuSans-6d"/>
     <use x="219.753906" xlink:href="#DejaVuSans-70"/>
     <use x="283.230469" xlink:href="#DejaVuSans-65"/>
     <use x="344.753906" xlink:href="#DejaVuSans-72"/>
     <use x="385.867188" xlink:href="#DejaVuSans-61"/>
     <use x="447.146484" xlink:href="#DejaVuSans-74"/>
     <use x="486.355469" xlink:href="#DejaVuSans-75"/>
     <use x="549.734375" xlink:href="#DejaVuSans-72"/>
     <use x="590.816406" xlink:href="#DejaVuSans-65"/>
     <use x="652.339844" xlink:href="#DejaVuSans-73"/>
     <use x="704.439453" xlink:href="#DejaVuSans-20"/>
     <use x="736.226562" xlink:href="#DejaVuSans-6f"/>
     <use x="797.408203" xlink:href="#DejaVuSans-66"/>
     <use x="832.613281" xlink:href="#DejaVuSans-20"/>
     <use x="864.400391" xlink:href="#DejaVuSans-68"/>
     <use x="927.779297" xlink:href="#DejaVuSans-65"/>
     <use x="989.302734" xlink:href="#DejaVuSans-61"/>
     <use x="1050.582031" xlink:href="#DejaVuSans-74"/>
     <use x="1089.791016" xlink:href="#DejaVuSans-65"/>
     <use x="1151.314453" xlink:href="#DejaVuSans-72"/>
    </g>
   </g>
   <g id="legend_1">
    <g id="patch_7">
     <path d="M 328.585625 78.82825 
L 407.72 78.82825 
Q 409.72 78.82825 409.72 76.82825 
L 409.72 48.472 
Q 409.72 46.472 407.72 46.472 
L 328.585625 46.472 
Q 326.585625 46.472 326.585625 48.472 
L 326.585625 76.82825 
Q 326.585625 78.82825 328.585625 78.82825 
z
" style="fill:#ffffff;opacity:0.8;stroke:#cccccc;stroke-linejoin:miter;"/>
    </g>
    <g id="line2d_17">
     <path d="M 330.585625 54.570437 
L 350.585625 54.570437 
" style="fill:none;stroke:#1f77b4;stroke-linecap:square;stroke-width:1.5;"/>
    </g>
    <g id="line2d_18"/>
    <g id="text_18">
     <!-- Setpoints -->
     <defs>
      <path d="M 53.515625 70.515625 
L 53.515625 60.890625 
Q 47.90625 63.578125 42.921875 64.890625 
Q 37.9375 66.21875 33.296875 66.21875 
Q 25.25 66.21875 20.875 63.09375 
Q 16.5 59.96875 16.5 54.203125 
Q 16.5 49.359375 19.40625 46.890625 
Q 22.3125 44.4375 30.421875 42.921875 
L 36.375 41.703125 
Q 47.40625 39.59375 52.65625 34.296875 
Q 57.90625 29 57.90625 20.125 
Q 57.90625 9.515625 50.796875 4.046875 
Q 43.703125 -1.421875 29.984375 -1.421875 
Q 24.8125 -1.421875 18.96875 -0.25 
Q 13.140625 0.921875 6.890625 3.21875 
L 6.890625 13.375 
Q 12.890625 10.015625 18.65625 8.296875 
Q 24.421875 6.59375 29.984375 6.59375 
Q 38.421875 6.59375 43.015625 9.90625 
Q 47.609375 13.234375 47.609375 19.390625 
Q 47.609375 24.75 44.3125 27.78125 
Q 41.015625 30.8125 33.5 32.328125 
L 27.484375 33.5 
Q 16.453125 35.6875 11.515625 40.375 
Q 6.59375 45.0625 6.59375 53.421875 
Q 6.59375 63.09375 13.40625 68.65625 
Q 20.21875 74.21875 32.171875 74.21875 
Q 37.3125 74.21875 42.625 73.28125 
Q 47.953125 72.359375 53.515625 70.515625 
z
" id="DejaVuSans-53"/>
      <path d="M 9.421875 54.6875 
L 18.40625 54.6875 
L 18.40625 0 
L 9.421875 0 
z
M 9.421875 75.984375 
L 18.40625 75.984375 
L 18.40625 64.59375 
L 9.421875 64.59375 
z
" id="DejaVuSans-69"/>
      <path d="M 54.890625 33.015625 
L 54.890625 0 
L 45.90625 0 
L 45.90625 32.71875 
Q 45.90625 40.484375 42.875 44.328125 
Q 39.84375 48.1875 33.796875 48.1875 
Q 26.515625 48.1875 22.3125 43.546875 
Q 18.109375 38.921875 18.109375 30.90625 
L 18.109375 0 
L 9.078125 0 
L 9.078125 54.6875 
L 18.109375 54.6875 
L 18.109375 46.1875 
Q 21.34375 51.125 25.703125 53.5625 
Q 30.078125 56 35.796875 56 
Q 45.21875 56 50.046875 50.171875 
Q 54.890625 44.34375 54.890625 33.015625 
z
" id="DejaVuSans-6e"/>
     </defs>
     <g transform="translate(358.585625 58.070437)scale(0.1 -0.1)">
      <use xlink:href="#DejaVuSans-53"/>
      <use x="63.476562" xlink:href="#DejaVuSans-65"/>
      <use x="125" xlink:href="#DejaVuSans-74"/>
      <use x="164.208984" xlink:href="#DejaVuSans-70"/>
      <use x="227.685547" xlink:href="#DejaVuSans-6f"/>
      <use x="288.867188" xlink:href="#DejaVuSans-69"/>
      <use x="316.650391" xlink:href="#DejaVuSans-6e"/>
      <use x="380.029297" xlink:href="#DejaVuSans-74"/>
      <use x="419.238281" xlink:href="#DejaVuSans-73"/>
     </g>
    </g>
    <g id="line2d_19">
     <path d="M 330.585625 69.248562 
L 350.585625 69.248562 
" style="fill:none;stroke:#ff7f0e;stroke-linecap:square;stroke-width:1.5;"/>
    </g>
    <g id="line2d_20"/>
    <g id="text_19">
     <!-- Heater -->
     <defs>
      <path d="M 9.8125 72.90625 
L 19.671875 72.90625 
L 19.671875 43.015625 
L 55.515625 43.015625 
L 55.515625 72.90625 
L 65.375 72.90625 
L 65.375 0 
L 55.515625 0 
L 55.515625 34.71875 
L 19.671875 34.71875 
L 19.671875 0 
L 9.8125 0 
z
" id="DejaVuSans-48"/>
     </defs>
     <g transform="translate(358.585625 72.748562)scale(0.1 -0.1)">
      <use xlink:href="#DejaVuSans-48"/>
      <use x="75.195312" xlink:href="#DejaVuSans-65"/>
      <use x="136.71875" xlink:href="#DejaVuSans-61"/>
      <use x="197.998047" xlink:href="#DejaVuSans-74"/>
      <use x="237.207031" xlink:href="#DejaVuSans-65"/>
      <use x="298.730469" xlink:href="#DejaVuSans-72"/>
     </g>
    </g>
   </g>
  </g>
 </g>
 <defs>
  <clipPath id="p488bc52b76">
   <rect height="266.112" width="357.12" x="57.6" y="41.472"/>
  </clipPath>
 </defs>
</svg>
