<?xml version="1.0" encoding="utf-8" standalone="no"?>
<!DOCTYPE svg PUBLIC "-//W3C//DTD SVG 1.1//EN"
  "http://www.w3.org/Graphics/SVG/1.1/DTD/svg11.dtd">
<!-- Created with matplotlib (http://matplotlib.org/) -->
<svg height="345pt" version="1.1" viewBox="0 0 460 345" width="460pt" xmlns="http://www.w3.org/2000/svg" xmlns:xlink="http://www.w3.org/1999/xlink">
 <defs>
  <style type="text/css">
*{stroke-linecap:butt;stroke-linejoin:round;}
  </style>
 </defs>
 <g id="figure_1">
  <g id="patch_1">
   <path d="M 0 345.6 
L 460.8 345.6 
L 460.8 0 
L 0 0 
z
" style="fill:#ffffff;"/>
  </g>
  <g id="axes_1">
   <g id="patch_2">
    <path d="M 57.6 307.584 
L 414.72 307.584 
L 414.72 41.472 
L 57.6 41.472 
z
" style="fill:#ffffff;"/>
   </g>
   <g id="matplotlib.axis_1">
    <g id="xtick_1">
     <g id="line2d_1">
      <defs>
       <path d="M 0 0 
L 0 3.5 
" id="m482fbdcac8" style="stroke:#000000;stroke-width:0.8;"/>
      </defs>
      <g>
       <use style="stroke:#000000;stroke-width:0.8;" x="73.832727" xlink:href="#m482fbdcac8" y="307.584"/>
      </g>
     </g>
     <g id="text_1">
      <!-- 0 -->
      <defs>
       <path d="M 31.78125 66.40625 
Q 24.171875 66.40625 20.328125 58.90625 
Q 16.5 51.421875 16.5 36.375 
Q 16.5 21.390625 20.328125 13.890625 
Q 24.171875 6.390625 31.78125 6.390625 
Q 39.453125 6.390625 43.28125 13.890625 
Q 47.125 21.390625 47.125 36.375 
Q 47.125 51.421875 43.28125 58.90625 
Q 39.453125 66.40625 31.78125 66.40625 
z
M 31.78125 74.21875 
Q 44.046875 74.21875 50.515625 64.515625 
Q 56.984375 54.828125 56.984375 36.375 
Q 56.984375 17.96875 50.515625 8.265625 
Q 44.046875 -1.421875 31.78125 -1.421875 
Q 19.53125 -1.421875 13.0625 8.265625 
Q 6.59375 17.96875 6.59375 36.375 
Q 6.59375 54.828125 13.0625 64.515625 
Q 19.53125 74.21875 31.78125 74.21875 
z
" id="DejaVuSans-30"/>
      </defs>
      <g transform="translate(70.651477 322.182437)scale(0.1 -0.1)">
       <use xlink:href="#DejaVuSans-30"/>
      </g>
     </g>
    </g>
    <g id="xtick_2">
     <g id="line2d_2">
      <g>
       <use style="stroke:#000000;stroke-width:0.8;" x="127.977915" xlink:href="#m482fbdcac8" y="307.584"/>
      </g>
     </g>
     <g id="text_2">
      <!-- 10 -->
      <defs>
       <path d="M 12.40625 8.296875 
L 28.515625 8.296875 
L 28.515625 63.921875 
L 10.984375 60.40625 
L 10.984375 69.390625 
L 28.421875 72.90625 
L 38.28125 72.90625 
L 38.28125 8.296875 
L 54.390625 8.296875 
L 54.390625 0 
L 12.40625 0 
z
" id="DejaVuSans-31"/>
      </defs>
      <g transform="translate(121.615415 322.182437)scale(0.1 -0.1)">
       <use xlink:href="#DejaVuSans-31"/>
       <use x="63.623047" xlink:href="#DejaVuSans-30"/>
      </g>
     </g>
    </g>
    <g id="xtick_3">
     <g id="line2d_3">
      <g>
       <use style="stroke:#000000;stroke-width:0.8;" x="182.123103" xlink:href="#m482fbdcac8" y="307.584"/>
      </g>
     </g>
     <g id="text_3">
      <!-- 20 -->
      <defs>
       <path d="M 19.1875 8.296875 
L 53.609375 8.296875 
L 53.609375 0 
L 7.328125 0 
L 7.328125 8.296875 
Q 12.9375 14.109375 22.625 23.890625 
Q 32.328125 33.6875 34.8125 36.53125 
Q 39.546875 41.84375 41.421875 45.53125 
Q 43.3125 49.21875 43.3125 52.78125 
Q 43.3125 58.59375 39.234375 62.25 
Q 35.15625 65.921875 28.609375 65.921875 
Q 23.96875 65.921875 18.8125 64.3125 
Q 13.671875 62.703125 7.8125 59.421875 
L 7.8125 69.390625 
Q 13.765625 71.78125 18.9375 73 
Q 24.125 74.21875 28.421875 74.21875 
Q 39.75 74.21875 46.484375 68.546875 
Q 53.21875 62.890625 53.21875 53.421875 
Q 53.21875 48.921875 51.53125 44.890625 
Q 49.859375 40.875 45.40625 35.40625 
Q 44.1875 33.984375 37.640625 27.21875 
Q 31.109375 20.453125 19.1875 8.296875 
z
" id="DejaVuSans-32"/>
      </defs>
      <g transform="translate(175.760603 322.182437)scale(0.1 -0.1)">
       <use xlink:href="#DejaVuSans-32"/>
       <use x="63.623047" xlink:href="#DejaVuSans-30"/>
      </g>
     </g>
    </g>
    <g id="xtick_4">
     <g id="line2d_4">
      <g>
       <use style="stroke:#000000;stroke-width:0.8;" x="236.26829" xlink:href="#m482fbdcac8" y="307.584"/>
      </g>
     </g>
     <g id="text_4">
      <!-- 30 -->
      <defs>
       <path d="M 40.578125 39.3125 
Q 47.65625 37.796875 51.625 33 
Q 55.609375 28.21875 55.609375 21.1875 
Q 55.609375 10.40625 48.1875 4.484375 
Q 40.765625 -1.421875 27.09375 -1.421875 
Q 22.515625 -1.421875 17.65625 -0.515625 
Q 12.796875 0.390625 7.625 2.203125 
L 7.625 11.71875 
Q 11.71875 9.328125 16.59375 8.109375 
Q 21.484375 6.890625 26.8125 6.890625 
Q 36.078125 6.890625 40.9375 10.546875 
Q 45.796875 14.203125 45.796875 21.1875 
Q 45.796875 27.640625 41.28125 31.265625 
Q 36.765625 34.90625 28.71875 34.90625 
L 20.21875 34.90625 
L 20.21875 43.015625 
L 29.109375 43.015625 
Q 36.375 43.015625 40.234375 45.921875 
Q 44.09375 48.828125 44.09375 54.296875 
Q 44.09375 59.90625 40.109375 62.90625 
Q 36.140625 65.921875 28.71875 65.921875 
Q 24.65625 65.921875 20.015625 65.03125 
Q 15.375 64.15625 9.8125 62.3125 
L 9.8125 71.09375 
Q 15.4375 72.65625 20.34375 73.4375 
Q 25.25 74.21875 29.59375 74.21875 
Q 40.828125 74.21875 47.359375 69.109375 
Q 53.90625 64.015625 53.90625 55.328125 
Q 53.90625 49.265625 50.4375 45.09375 
Q 46.96875 40.921875 40.578125 39.3125 
z
" id="DejaVuSans-33"/>
      </defs>
      <g transform="translate(229.90579 322.182437)scale(0.1 -0.1)">
       <use xlink:href="#DejaVuSans-33"/>
       <use x="63.623047" xlink:href="#DejaVuSans-30"/>
      </g>
     </g>
    </g>
    <g id="xtick_5">
     <g id="line2d_5">
      <g>
       <use style="stroke:#000000;stroke-width:0.8;" x="290.413478" xlink:href="#m482fbdcac8" y="307.584"/>
      </g>
     </g>
     <g id="text_5">
      <!-- 40 -->
      <defs>
       <path d="M 37.796875 64.3125 
L 12.890625 25.390625 
L 37.796875 25.390625 
z
M 35.203125 72.90625 
L 47.609375 72.90625 
L 47.609375 25.390625 
L 58.015625 25.390625 
L 58.015625 17.1875 
L 47.609375 17.1875 
L 47.609375 0 
L 37.796875 0 
L 37.796875 17.1875 
L 4.890625 17.1875 
L 4.890625 26.703125 
z
" id="DejaVuSans-34"/>
      </defs>
      <g transform="translate(284.050978 322.182437)scale(0.1 -0.1)">
       <use xlink:href="#DejaVuSans-34"/>
       <use x="63.623047" xlink:href="#DejaVuSans-30"/>
      </g>
     </g>
    </g>
    <g id="xtick_6">
     <g id="line2d_6">
      <g>
       <use style="stroke:#000000;stroke-width:0.8;" x="344.558666" xlink:href="#m482fbdcac8" y="307.584"/>
      </g>
     </g>
     <g id="text_6">
      <!-- 50 -->
      <defs>
       <path d="M 10.796875 72.90625 
L 49.515625 72.90625 
L 49.515625 64.59375 
L 19.828125 64.59375 
L 19.828125 46.734375 
Q 21.96875 47.46875 24.109375 47.828125 
Q 26.265625 48.1875 28.421875 48.1875 
Q 40.625 48.1875 47.75 41.5 
Q 54.890625 34.8125 54.890625 23.390625 
Q 54.890625 11.625 47.5625 5.09375 
Q 40.234375 -1.421875 26.90625 -1.421875 
Q 22.3125 -1.421875 17.546875 -0.640625 
Q 12.796875 0.140625 7.71875 1.703125 
L 7.71875 11.625 
Q 12.109375 9.234375 16.796875 8.0625 
Q 21.484375 6.890625 26.703125 6.890625 
Q 35.15625 6.890625 40.078125 11.328125 
Q 45.015625 15.765625 45.015625 23.390625 
Q 45.015625 31 40.078125 35.4375 
Q 35.15625 39.890625 26.703125 39.890625 
Q 22.75 39.890625 18.8125 39.015625 
Q 14.890625 38.140625 10.796875 36.28125 
z
" id="DejaVuSans-35"/>
      </defs>
      <g transform="translate(338.196166 322.182437)scale(0.1 -0.1)">
       <use xlink:href="#DejaVuSans-35"/>
       <use x="63.623047" xlink:href="#DejaVuSans-30"/>
      </g>
     </g>
    </g>
    <g id="xtick_7">
     <g id="line2d_7">
      <g>
       <use style="stroke:#000000;stroke-width:0.8;" x="398.703853" xlink:href="#m482fbdcac8" y="307.584"/>
      </g>
     </g>
     <g id="text_7">
      <!-- 60 -->
      <defs>
       <path d="M 33.015625 40.375 
Q 26.375 40.375 22.484375 35.828125 
Q 18.609375 31.296875 18.609375 23.390625 
Q 18.609375 15.53125 22.484375 10.953125 
Q 26.375 6.390625 33.015625 6.390625 
Q 39.65625 6.390625 43.53125 10.953125 
Q 47.40625 15.53125 47.40625 23.390625 
Q 47.40625 31.296875 43.53125 35.828125 
Q 39.65625 40.375 33.015625 40.375 
z
M 52.59375 71.296875 
L 52.59375 62.3125 
Q 48.875 64.0625 45.09375 64.984375 
Q 41.3125 65.921875 37.59375 65.921875 
Q 27.828125 65.921875 22.671875 59.328125 
Q 17.53125 52.734375 16.796875 39.40625 
Q 19.671875 43.65625 24.015625 45.921875 
Q 28.375 48.1875 33.59375 48.1875 
Q 44.578125 48.1875 50.953125 41.515625 
Q 57.328125 34.859375 57.328125 23.390625 
Q 57.328125 12.15625 50.6875 5.359375 
Q 44.046875 -1.421875 33.015625 -1.421875 
Q 20.359375 -1.421875 13.671875 8.265625 
Q 6.984375 17.96875 6.984375 36.375 
Q 6.984375 53.65625 15.1875 63.9375 
Q 23.390625 74.21875 37.203125 74.21875 
Q 40.921875 74.21875 44.703125 73.484375 
Q 48.484375 72.75 52.59375 71.296875 
z
" id="DejaVuSans-36"/>
      </defs>
      <g transform="translate(392.341353 322.182437)scale(0.1 -0.1)">
       <use xlink:href="#DejaVuSans-36"/>
       <use x="63.623047" xlink:href="#DejaVuSans-30"/>
      </g>
     </g>
    </g>
    <g id="text_8">
     <!-- t(s) -->
     <defs>
      <path d="M 18.3125 70.21875 
L 18.3125 54.6875 
L 36.8125 54.6875 
L 36.8125 47.703125 
L 18.3125 47.703125 
L 18.3125 18.015625 
Q 18.3125 11.328125 20.140625 9.421875 
Q 21.96875 7.515625 27.59375 7.515625 
L 36.8125 7.515625 
L 36.8125 0 
L 27.59375 0 
Q 17.1875 0 13.234375 3.875 
Q 9.28125 7.765625 9.28125 18.015625 
L 9.28125 47.703125 
L 2.6875 47.703125 
L 2.6875 54.6875 
L 9.28125 54.6875 
L 9.28125 70.21875 
z
" id="DejaVuSans-74"/>
      <path d="M 31 75.875 
Q 24.46875 64.65625 21.28125 53.65625 
Q 18.109375 42.671875 18.109375 31.390625 
Q 18.109375 20.125 21.3125 9.0625 
Q 24.515625 -2 31 -13.1875 
L 23.1875 -13.1875 
Q 15.875 -1.703125 12.234375 9.375 
Q 8.59375 20.453125 8.59375 31.390625 
Q 8.59375 42.28125 12.203125 53.3125 
Q 15.828125 64.359375 23.1875 75.875 
z
" id="DejaVuSans-28"/>
      <path d="M 44.28125 53.078125 
L 44.28125 44.578125 
Q 40.484375 46.53125 36.375 47.5 
Q 32.28125 48.484375 27.875 48.484375 
Q 21.1875 48.484375 17.84375 46.4375 
Q 14.5 44.390625 14.5 40.28125 
Q 14.5 37.15625 16.890625 35.375 
Q 19.28125 33.59375 26.515625 31.984375 
L 29.59375 31.296875 
Q 39.15625 29.25 43.1875 25.515625 
Q 47.21875 21.78125 47.21875 15.09375 
Q 47.21875 7.46875 41.1875 3.015625 
Q 35.15625 -1.421875 24.609375 -1.421875 
Q 20.21875 -1.421875 15.453125 -0.5625 
Q 10.6875 0.296875 5.421875 2 
L 5.421875 11.28125 
Q 10.40625 8.6875 15.234375 7.390625 
Q 20.0625 6.109375 24.8125 6.109375 
Q 31.15625 6.109375 34.5625 8.28125 
Q 37.984375 10.453125 37.984375 14.40625 
Q 37.984375 18.0625 35.515625 20.015625 
Q 33.0625 21.96875 24.703125 23.78125 
L 21.578125 24.515625 
Q 13.234375 26.265625 9.515625 29.90625 
Q 5.8125 33.546875 5.8125 39.890625 
Q 5.8125 47.609375 11.28125 51.796875 
Q 16.75 56 26.8125 56 
Q 31.78125 56 36.171875 55.265625 
Q 40.578125 54.546875 44.28125 53.078125 
z
" id="DejaVuSans-73"/>
      <path d="M 8.015625 75.875 
L 15.828125 75.875 
Q 23.140625 64.359375 26.78125 53.3125 
Q 30.421875 42.28125 30.421875 31.390625 
Q 30.421875 20.453125 26.78125 9.375 
Q 23.140625 -1.703125 15.828125 -13.1875 
L 8.015625 -13.1875 
Q 14.5 -2 17.703125 9.0625 
Q 20.90625 20.125 20.90625 31.390625 
Q 20.90625 42.671875 17.703125 53.65625 
Q 14.5 64.65625 8.015625 75.875 
z
" id="DejaVuSans-29"/>
     </defs>
     <g transform="translate(227.693594 335.860562)scale(0.1 -0.1)">
      <use xlink:href="#DejaVuSans-74"/>
      <use x="39.208984" xlink:href="#DejaVuSans-28"/>
      <use x="78.222656" xlink:href="#DejaVuSans-73"/>
      <use x="130.322266" xlink:href="#DejaVuSans-29"/>
     </g>
    </g>
   </g>
   <g id="matplotlib.axis_2">
    <g id="ytick_1">
     <g id="line2d_8">
      <defs>
       <path d="M 0 0 
L -3.5 0 
" id="m78fb3b7225" style="stroke:#000000;stroke-width:0.8;"/>
      </defs>
      <g>
       <use style="stroke:#000000;stroke-width:0.8;" x="57.6" xlink:href="#m78fb3b7225" y="306.08349"/>
      </g>
     </g>
     <g id="text_9">
      <!-- 2.95 -->
      <defs>
       <path d="M 10.6875 12.40625 
L 21 12.40625 
L 21 0 
L 10.6875 0 
z
" id="DejaVuSans-2e"/>
       <path d="M 10.984375 1.515625 
L 10.984375 10.5 
Q 14.703125 8.734375 18.5 7.8125 
Q 22.3125 6.890625 25.984375 6.890625 
Q 35.75 6.890625 40.890625 13.453125 
Q 46.046875 20.015625 46.78125 33.40625 
Q 43.953125 29.203125 39.59375 26.953125 
Q 35.25 24.703125 29.984375 24.703125 
Q 19.046875 24.703125 12.671875 31.3125 
Q 6.296875 37.9375 6.296875 49.421875 
Q 6.296875 60.640625 12.9375 67.421875 
Q 19.578125 74.21875 30.609375 74.21875 
Q 43.265625 74.21875 49.921875 64.515625 
Q 56.59375 54.828125 56.59375 36.375 
Q 56.59375 19.140625 48.40625 8.859375 
Q 40.234375 -1.421875 26.421875 -1.421875 
Q 22.703125 -1.421875 18.890625 -0.6875 
Q 15.09375 0.046875 10.984375 1.515625 
z
M 30.609375 32.421875 
Q 37.25 32.421875 41.125 36.953125 
Q 45.015625 41.5 45.015625 49.421875 
Q 45.015625 57.28125 41.125 61.84375 
Q 37.25 66.40625 30.609375 66.40625 
Q 23.96875 66.40625 20.09375 61.84375 
Q 16.21875 57.28125 16.21875 49.421875 
Q 16.21875 41.5 20.09375 36.953125 
Q 23.96875 32.421875 30.609375 32.421875 
z
" id="DejaVuSans-39"/>
      </defs>
      <g transform="translate(28.334375 309.882709)scale(0.1 -0.1)">
       <use xlink:href="#DejaVuSans-32"/>
       <use x="63.623047" xlink:href="#DejaVuSans-2e"/>
       <use x="95.410156" xlink:href="#DejaVuSans-39"/>
       <use x="159.033203" xlink:href="#DejaVuSans-35"/>
      </g>
     </g>
    </g>
    <g id="ytick_2">
     <g id="line2d_9">
      <g>
       <use style="stroke:#000000;stroke-width:0.8;" x="57.6" xlink:href="#m78fb3b7225" y="259.854631"/>
      </g>
     </g>
     <g id="text_10">
      <!-- 2.96 -->
      <g transform="translate(28.334375 263.65385)scale(0.1 -0.1)">
       <use xlink:href="#DejaVuSans-32"/>
       <use x="63.623047" xlink:href="#DejaVuSans-2e"/>
       <use x="95.410156" xlink:href="#DejaVuSans-39"/>
       <use x="159.033203" xlink:href="#DejaVuSans-36"/>
      </g>
     </g>
    </g>
    <g id="ytick_3">
     <g id="line2d_10">
      <g>
       <use style="stroke:#000000;stroke-width:0.8;" x="57.6" xlink:href="#m78fb3b7225" y="213.625772"/>
      </g>
     </g>
     <g id="text_11">
      <!-- 2.97 -->
      <defs>
       <path d="M 8.203125 72.90625 
L 55.078125 72.90625 
L 55.078125 68.703125 
L 28.609375 0 
L 18.3125 0 
L 43.21875 64.59375 
L 8.203125 64.59375 
z
" id="DejaVuSans-37"/>
      </defs>
      <g transform="translate(28.334375 217.424991)scale(0.1 -0.1)">
       <use xlink:href="#DejaVuSans-32"/>
       <use x="63.623047" xlink:href="#DejaVuSans-2e"/>
       <use x="95.410156" xlink:href="#DejaVuSans-39"/>
       <use x="159.033203" xlink:href="#DejaVuSans-37"/>
      </g>
     </g>
    </g>
    <g id="ytick_4">
     <g id="line2d_11">
      <g>
       <use style="stroke:#000000;stroke-width:0.8;" x="57.6" xlink:href="#m78fb3b7225" y="167.396914"/>
      </g>
     </g>
     <g id="text_12">
      <!-- 2.98 -->
      <defs>
       <path d="M 31.78125 34.625 
Q 24.75 34.625 20.71875 30.859375 
Q 16.703125 27.09375 16.703125 20.515625 
Q 16.703125 13.921875 20.71875 10.15625 
Q 24.75 6.390625 31.78125 6.390625 
Q 38.8125 6.390625 42.859375 10.171875 
Q 46.921875 13.96875 46.921875 20.515625 
Q 46.921875 27.09375 42.890625 30.859375 
Q 38.875 34.625 31.78125 34.625 
z
M 21.921875 38.8125 
Q 15.578125 40.375 12.03125 44.71875 
Q 8.5 49.078125 8.5 55.328125 
Q 8.5 64.0625 14.71875 69.140625 
Q 20.953125 74.21875 31.78125 74.21875 
Q 42.671875 74.21875 48.875 69.140625 
Q 55.078125 64.0625 55.078125 55.328125 
Q 55.078125 49.078125 51.53125 44.71875 
Q 48 40.375 41.703125 38.8125 
Q 48.828125 37.15625 52.796875 32.3125 
Q 56.78125 27.484375 56.78125 20.515625 
Q 56.78125 9.90625 50.3125 4.234375 
Q 43.84375 -1.421875 31.78125 -1.421875 
Q 19.734375 -1.421875 13.25 4.234375 
Q 6.78125 9.90625 6.78125 20.515625 
Q 6.78125 27.484375 10.78125 32.3125 
Q 14.796875 37.15625 21.921875 38.8125 
z
M 18.3125 54.390625 
Q 18.3125 48.734375 21.84375 45.5625 
Q 25.390625 42.390625 31.78125 42.390625 
Q 38.140625 42.390625 41.71875 45.5625 
Q 45.3125 48.734375 45.3125 54.390625 
Q 45.3125 60.0625 41.71875 63.234375 
Q 38.140625 66.40625 31.78125 66.40625 
Q 25.390625 66.40625 21.84375 63.234375 
Q 18.3125 60.0625 18.3125 54.390625 
z
" id="DejaVuSans-38"/>
      </defs>
      <g transform="translate(28.334375 171.196133)scale(0.1 -0.1)">
       <use xlink:href="#DejaVuSans-32"/>
       <use x="63.623047" xlink:href="#DejaVuSans-2e"/>
       <use x="95.410156" xlink:href="#DejaVuSans-39"/>
       <use x="159.033203" xlink:href="#DejaVuSans-38"/>
      </g>
     </g>
    </g>
    <g id="ytick_5">
     <g id="line2d_12">
      <g>
       <use style="stroke:#000000;stroke-width:0.8;" x="57.6" xlink:href="#m78fb3b7225" y="121.168055"/>
      </g>
     </g>
     <g id="text_13">
      <!-- 2.99 -->
      <g transform="translate(28.334375 124.967274)scale(0.1 -0.1)">
       <use xlink:href="#DejaVuSans-32"/>
       <use x="63.623047" xlink:href="#DejaVuSans-2e"/>
       <use x="95.410156" xlink:href="#DejaVuSans-39"/>
       <use x="159.033203" xlink:href="#DejaVuSans-39"/>
      </g>
     </g>
    </g>
    <g id="ytick_6">
     <g id="line2d_13">
      <g>
       <use style="stroke:#000000;stroke-width:0.8;" x="57.6" xlink:href="#m78fb3b7225" y="74.939197"/>
      </g>
     </g>
     <g id="text_14">
      <!-- 3.00 -->
      <g transform="translate(28.334375 78.738415)scale(0.1 -0.1)">
       <use xlink:href="#DejaVuSans-33"/>
       <use x="63.623047" xlink:href="#DejaVuSans-2e"/>
       <use x="95.410156" xlink:href="#DejaVuSans-30"/>
       <use x="159.033203" xlink:href="#DejaVuSans-30"/>
      </g>
     </g>
    </g>
    <g id="text_15">
     <!-- Resistance (Ohm) -->
     <defs>
      <path d="M 44.390625 34.1875 
Q 47.5625 33.109375 50.5625 29.59375 
Q 53.5625 26.078125 56.59375 19.921875 
L 66.609375 0 
L 56 0 
L 46.6875 18.703125 
Q 43.0625 26.03125 39.671875 28.421875 
Q 36.28125 30.8125 30.421875 30.8125 
L 19.671875 30.8125 
L 19.671875 0 
L 9.8125 0 
L 9.8125 72.90625 
L 32.078125 72.90625 
Q 44.578125 72.90625 50.734375 67.671875 
Q 56.890625 62.453125 56.890625 51.90625 
Q 56.890625 45.015625 53.6875 40.46875 
Q 50.484375 35.9375 44.390625 34.1875 
z
M 19.671875 64.796875 
L 19.671875 38.921875 
L 32.078125 38.921875 
Q 39.203125 38.921875 42.84375 42.21875 
Q 46.484375 45.515625 46.484375 51.90625 
Q 46.484375 58.296875 42.84375 61.546875 
Q 39.203125 64.796875 32.078125 64.796875 
z
" id="DejaVuSans-52"/>
      <path d="M 56.203125 29.59375 
L 56.203125 25.203125 
L 14.890625 25.203125 
Q 15.484375 15.921875 20.484375 11.0625 
Q 25.484375 6.203125 34.421875 6.203125 
Q 39.59375 6.203125 44.453125 7.46875 
Q 49.3125 8.734375 54.109375 11.28125 
L 54.109375 2.78125 
Q 49.265625 0.734375 44.1875 -0.34375 
Q 39.109375 -1.421875 33.890625 -1.421875 
Q 20.796875 -1.421875 13.15625 6.1875 
Q 5.515625 13.8125 5.515625 26.8125 
Q 5.515625 40.234375 12.765625 48.109375 
Q 20.015625 56 32.328125 56 
Q 43.359375 56 49.78125 48.890625 
Q 56.203125 41.796875 56.203125 29.59375 
z
M 47.21875 32.234375 
Q 47.125 39.59375 43.09375 43.984375 
Q 39.0625 48.390625 32.421875 48.390625 
Q 24.90625 48.390625 20.390625 44.140625 
Q 15.875 39.890625 15.1875 32.171875 
z
" id="DejaVuSans-65"/>
      <path d="M 9.421875 54.6875 
L 18.40625 54.6875 
L 18.40625 0 
L 9.421875 0 
z
M 9.421875 75.984375 
L 18.40625 75.984375 
L 18.40625 64.59375 
L 9.421875 64.59375 
z
" id="DejaVuSans-69"/>
      <path d="M 34.28125 27.484375 
Q 23.390625 27.484375 19.1875 25 
Q 14.984375 22.515625 14.984375 16.5 
Q 14.984375 11.71875 18.140625 8.90625 
Q 21.296875 6.109375 26.703125 6.109375 
Q 34.1875 6.109375 38.703125 11.40625 
Q 43.21875 16.703125 43.21875 25.484375 
L 43.21875 27.484375 
z
M 52.203125 31.203125 
L 52.203125 0 
L 43.21875 0 
L 43.21875 8.296875 
Q 40.140625 3.328125 35.546875 0.953125 
Q 30.953125 -1.421875 24.3125 -1.421875 
Q 15.921875 -1.421875 10.953125 3.296875 
Q 6 8.015625 6 15.921875 
Q 6 25.140625 12.171875 29.828125 
Q 18.359375 34.515625 30.609375 34.515625 
L 43.21875 34.515625 
L 43.21875 35.40625 
Q 43.21875 41.609375 39.140625 45 
Q 35.0625 48.390625 27.6875 48.390625 
Q 23 48.390625 18.546875 47.265625 
Q 14.109375 46.140625 10.015625 43.890625 
L 10.015625 52.203125 
Q 14.9375 54.109375 19.578125 55.046875 
Q 24.21875 56 28.609375 56 
Q 40.484375 56 46.34375 49.84375 
Q 52.203125 43.703125 52.203125 31.203125 
z
" id="DejaVuSans-61"/>
      <path d="M 54.890625 33.015625 
L 54.890625 0 
L 45.90625 0 
L 45.90625 32.71875 
Q 45.90625 40.484375 42.875 44.328125 
Q 39.84375 48.1875 33.796875 48.1875 
Q 26.515625 48.1875 22.3125 43.546875 
Q 18.109375 38.921875 18.109375 30.90625 
L 18.109375 0 
L 9.078125 0 
L 9.078125 54.6875 
L 18.109375 54.6875 
L 18.109375 46.1875 
Q 21.34375 51.125 25.703125 53.5625 
Q 30.078125 56 35.796875 56 
Q 45.21875 56 50.046875 50.171875 
Q 54.890625 44.34375 54.890625 33.015625 
z
" id="DejaVuSans-6e"/>
      <path d="M 48.78125 52.59375 
L 48.78125 44.1875 
Q 44.96875 46.296875 41.140625 47.34375 
Q 37.3125 48.390625 33.40625 48.390625 
Q 24.65625 48.390625 19.8125 42.84375 
Q 14.984375 37.3125 14.984375 27.296875 
Q 14.984375 17.28125 19.8125 11.734375 
Q 24.65625 6.203125 33.40625 6.203125 
Q 37.3125 6.203125 41.140625 7.25 
Q 44.96875 8.296875 48.78125 10.40625 
L 48.78125 2.09375 
Q 45.015625 0.34375 40.984375 -0.53125 
Q 36.96875 -1.421875 32.421875 -1.421875 
Q 20.0625 -1.421875 12.78125 6.34375 
Q 5.515625 14.109375 5.515625 27.296875 
Q 5.515625 40.671875 12.859375 48.328125 
Q 20.21875 56 33.015625 56 
Q 37.15625 56 41.109375 55.140625 
Q 45.0625 54.296875 48.78125 52.59375 
z
" id="DejaVuSans-63"/>
      <path id="DejaVuSans-20"/>
      <path d="M 39.40625 66.21875 
Q 28.65625 66.21875 22.328125 58.203125 
Q 16.015625 50.203125 16.015625 36.375 
Q 16.015625 22.609375 22.328125 14.59375 
Q 28.65625 6.59375 39.40625 6.59375 
Q 50.140625 6.59375 56.421875 14.59375 
Q 62.703125 22.609375 62.703125 36.375 
Q 62.703125 50.203125 56.421875 58.203125 
Q 50.140625 66.21875 39.40625 66.21875 
z
M 39.40625 74.21875 
Q 54.734375 74.21875 63.90625 63.9375 
Q 73.09375 53.65625 73.09375 36.375 
Q 73.09375 19.140625 63.90625 8.859375 
Q 54.734375 -1.421875 39.40625 -1.421875 
Q 24.03125 -1.421875 14.8125 8.828125 
Q 5.609375 19.09375 5.609375 36.375 
Q 5.609375 53.65625 14.8125 63.9375 
Q 24.03125 74.21875 39.40625 74.21875 
z
" id="DejaVuSans-4f"/>
      <path d="M 54.890625 33.015625 
L 54.890625 0 
L 45.90625 0 
L 45.90625 32.71875 
Q 45.90625 40.484375 42.875 44.328125 
Q 39.84375 48.1875 33.796875 48.1875 
Q 26.515625 48.1875 22.3125 43.546875 
Q 18.109375 38.921875 18.109375 30.90625 
L 18.109375 0 
L 9.078125 0 
L 9.078125 75.984375 
L 18.109375 75.984375 
L 18.109375 46.1875 
Q 21.34375 51.125 25.703125 53.5625 
Q 30.078125 56 35.796875 56 
Q 45.21875 56 50.046875 50.171875 
Q 54.890625 44.34375 54.890625 33.015625 
z
" id="DejaVuSans-68"/>
      <path d="M 52 44.1875 
Q 55.375 50.25 60.0625 53.125 
Q 64.75 56 71.09375 56 
Q 79.640625 56 84.28125 50.015625 
Q 88.921875 44.046875 88.921875 33.015625 
L 88.921875 0 
L 79.890625 0 
L 79.890625 32.71875 
Q 79.890625 40.578125 77.09375 44.375 
Q 74.3125 48.1875 68.609375 48.1875 
Q 61.625 48.1875 57.5625 43.546875 
Q 53.515625 38.921875 53.515625 30.90625 
L 53.515625 0 
L 44.484375 0 
L 44.484375 32.71875 
Q 44.484375 40.625 41.703125 44.40625 
Q 38.921875 48.1875 33.109375 48.1875 
Q 26.21875 48.1875 22.15625 43.53125 
Q 18.109375 38.875 18.109375 30.90625 
L 18.109375 0 
L 9.078125 0 
L 9.078125 54.6875 
L 18.109375 54.6875 
L 18.109375 46.1875 
Q 21.1875 51.21875 25.484375 53.609375 
Q 29.78125 56 35.6875 56 
Q 41.65625 56 45.828125 52.96875 
Q 50 49.953125 52 44.1875 
z
" id="DejaVuSans-6d"/>
     </defs>
     <g transform="translate(22.254687 219.158469)rotate(-90)scale(0.1 -0.1)">
      <use xlink:href="#DejaVuSans-52"/>
      <use x="69.419922" xlink:href="#DejaVuSans-65"/>
      <use x="130.943359" xlink:href="#DejaVuSans-73"/>
      <use x="183.042969" xlink:href="#DejaVuSans-69"/>
      <use x="210.826172" xlink:href="#DejaVuSans-73"/>
      <use x="262.925781" xlink:href="#DejaVuSans-74"/>
      <use x="302.134766" xlink:href="#DejaVuSans-61"/>
      <use x="363.414062" xlink:href="#DejaVuSans-6e"/>
      <use x="426.792969" xlink:href="#DejaVuSans-63"/>
      <use x="481.773438" xlink:href="#DejaVuSans-65"/>
      <use x="543.296875" xlink:href="#DejaVuSans-20"/>
      <use x="575.083984" xlink:href="#DejaVuSans-28"/>
      <use x="614.097656" xlink:href="#DejaVuSans-4f"/>
      <use x="692.808594" xlink:href="#DejaVuSans-68"/>
      <use x="756.1875" xlink:href="#DejaVuSans-6d"/>
      <use x="853.599609" xlink:href="#DejaVuSans-29"/>
     </g>
    </g>
    <g id="text_16">
     <!-- 1e7 -->
     <g transform="translate(57.6 38.472)scale(0.1 -0.1)">
      <use xlink:href="#DejaVuSans-31"/>
      <use x="63.623047" xlink:href="#DejaVuSans-65"/>
      <use x="125.146484" xlink:href="#DejaVuSans-37"/>
     </g>
    </g>
   </g>
   <g id="line2d_14">
    <path clip-path="url(#pe4cb6c105d)" d="M 73.832727 295.488 
L 74.103453 135.539604 
L 74.374179 282.556736 
L 74.644904 95.849905 
L 74.915631 281.763088 
L 75.191772 104.184203 
L 75.462497 268.918063 
L 75.733224 106.077374 
L 76.003949 273.538591 
L 76.274675 106.263699 
L 76.545401 251.529085 
L 76.821542 125.10797 
L 77.097683 234.654846 
L 77.368407 142.227956 
L 77.644548 201.601833 
L 77.915274 166.52729 
L 78.186001 208.104185 
L 78.462141 211.916674 
L 78.738281 136.618363 
L 79.009008 236.960005 
L 79.279732 138.83962 
L 79.550459 288.885976 
L 79.8266 87.057459 
L 80.10274 289.642322 
L 80.373466 89.92439 
L 80.649607 289.518726 
L 80.920332 88.769647 
L 81.196474 281.134875 
L 81.472613 103.163355 
L 81.743339 271.989926 
L 82.014066 104.64694 
L 82.28479 259.727159 
L 82.560931 115.064959 
L 82.831657 258.724215 
L 83.102384 114.791262 
L 83.378524 235.022745 
L 83.654664 160.198665 
L 83.925391 207.820309 
L 84.201532 200.694268 
L 84.47767 147.666646 
L 84.748397 236.428916 
L 85.019123 153.080815 
L 85.295263 266.390692 
L 85.56599 110.315594 
L 85.836715 270.965565 
L 86.107442 122.385188 
L 86.383581 289.261992 
L 86.654308 89.092729 
L 86.925034 289.039549 
L 87.201173 87.104807 
L 87.4719 290.784442 
L 87.742626 87.289712 
L 88.013353 270.054402 
L 88.289492 90.710966 
L 88.560218 282.60501 
L 88.830944 92.886583 
L 89.10167 283.394564 
L 89.372396 92.610107 
L 89.643122 285.729709 
L 89.913847 89.60313 
L 90.184574 282.697409 
L 90.4553 91.545487 
L 90.726026 281.962358 
L 91.002166 125.379092 
L 91.278306 220.863799 
L 91.549033 113.16437 
L 91.819757 258.179241 
L 92.090484 114.323672 
L 92.36121 255.554229 
L 92.631937 110.757943 
L 92.908077 235.118319 
L 93.178803 131.492505 
L 93.44953 235.401858 
L 93.720254 163.741178 
L 93.990981 235.994277 
L 94.261707 131.763354 
L 94.532434 236.776227 
L 94.808572 149.466057 
L 95.079299 215.894642 
L 95.350025 149.468294 
L 95.62075 217.959338 
L 95.891476 151.226274 
L 96.162203 217.179706 
L 96.432927 153.268101 
L 96.703654 130.004401 
L 96.97438 210.447865 
L 97.245107 215.389252 
L 97.791973 173.909245 
L 98.0627 194.743328 
L 98.333424 175.471884 
L 98.604151 193.589737 
L 98.874877 175.979315 
L 99.145604 193.404779 
L 99.421742 138.280334 
L 99.692469 222.807571 
L 99.963195 140.223485 
L 100.23392 226.731999 
L 100.510061 110.226283 
L 100.780787 256.046706 
L 101.051514 107.308461 
L 101.327653 280.712896 
L 101.59838 85.531325 
L 101.874521 284.524315 
L 102.150659 90.480019 
L 102.421386 274.857514 
L 102.697527 91.546982 
L 102.968253 270.170921 
L 103.244393 112.886706 
L 103.520534 246.126405 
L 103.79126 120.523854 
L 104.061987 239.044278 
L 104.338125 150.114466 
L 104.608852 217.186814 
L 104.884993 187.853781 
L 105.155718 179.496328 
L 105.431859 221.018007 
L 105.702584 147.475903 
L 105.973311 222.222867 
L 106.249451 126.495716 
L 106.520177 248.940389 
L 106.790904 107.35827 
L 107.061628 244.168354 
L 107.332355 104.906285 
L 107.603081 250.501184 
L 107.873808 108.329121 
L 108.149946 283.631822 
L 108.420673 84.74501 
L 108.691399 281.596887 
L 108.962125 85.207343 
L 109.23285 281.309367 
L 109.503577 83.958695 
L 109.779718 283.354613 
L 110.055857 82.201993 
L 110.326584 278.214046 
L 110.597309 80.351545 
L 110.868035 278.175971 
L 111.138761 174.320791 
L 111.409488 245.239995 
L 111.680214 82.802978 
L 111.956353 270.624969 
L 112.22708 93.585089 
L 112.50322 256.507712 
L 112.773946 100.995227 
L 113.044671 252.495622 
L 113.315398 104.049461 
L 113.586124 254.765554 
L 113.862264 119.271662 
L 114.138405 205.168491 
L 114.409131 147.436366 
L 114.679856 204.859393 
L 114.950582 152.887828 
L 115.221309 204.811893 
L 115.492035 147.070578 
L 116.038901 179.582311 
L 116.309627 172.965119 
L 116.585767 228.671783 
L 116.856493 89.050429 
L 117.12722 272.465233 
L 117.403361 102.040961 
L 117.674085 256.919289 
L 117.944812 100.651698 
L 118.215538 255.57555 
L 118.486263 98.525349 
L 118.756989 263.115366 
L 119.03313 87.289218 
L 119.303856 283.360862 
L 119.579996 102.229506 
L 119.850723 284.364769 
L 120.121448 82.015963 
L 120.397588 275.452135 
L 120.668314 86.317754 
L 120.939041 275.92419 
L 121.215182 93.538821 
L 121.485906 268.939383 
L 121.756633 91.734212 
L 122.027359 268.252319 
L 122.298085 90.255653 
L 122.56881 80.304856 
L 123.121092 230.96298 
L 123.391817 128.47899 
L 123.662544 230.317898 
L 123.938684 156.684446 
L 124.209411 208.688818 
L 124.48555 192.380463 
L 124.76169 144.753151 
L 125.032417 231.907286 
L 125.303142 129.45556 
L 125.573869 226.140185 
L 125.844594 128.30064 
L 126.115321 237.262483 
L 126.391461 103.380752 
L 126.662187 260.660548 
L 126.932914 105.693689 
L 127.203638 259.203904 
L 127.474365 103.196897 
L 127.745091 258.716019 
L 128.015816 102.593456 
L 128.286542 170.537608 
L 128.562683 87.611733 
L 128.838824 283.04576 
L 129.114963 88.631154 
L 129.38569 275.34371 
L 129.656415 86.781245 
L 129.927142 276.098951 
L 130.203282 95.71486 
L 130.474008 266.529818 
L 130.744735 96.270752 
L 131.015459 268.323448 
L 131.286186 96.223841 
L 131.556912 266.329766 
L 131.827638 97.149704 
L 132.098363 264.672793 
L 132.36909 93.771291 
L 132.639816 265.311794 
L 132.915956 102.520557 
L 133.186681 251.017909 
L 133.457408 109.647979 
L 133.728133 250.643215 
L 133.99886 240.655882 
L 134.269585 249.682223 
L 134.540312 108.537634 
L 134.816452 225.097077 
L 135.092592 160.0437 
L 135.363319 201.354354 
L 135.634043 151.317271 
L 135.90477 193.800597 
L 136.180911 203.555598 
L 136.457051 131.395924 
L 136.733191 271.566305 
L 137.003918 93.853987 
L 137.280058 284.192515 
L 137.550785 81.090957 
L 137.826925 282.016836 
L 138.09765 79.51851 
L 138.368377 279.893589 
L 138.644516 86.22581 
L 138.915243 270.824191 
L 139.185968 86.226149 
L 139.456695 270.317951 
L 139.732835 100.899287 
L 140.008975 242.97781 
L 140.279702 111.54979 
L 140.550426 244.00384 
L 140.821153 105.719247 
L 141.091879 247.595524 
L 141.362606 109.32644 
L 141.638746 219.838859 
L 141.914886 165.973121 
L 142.185613 189.13873 
L 142.456337 157.96234 
L 142.727064 197.264172 
L 142.99779 216.94005 
L 143.268517 197.391793 
L 143.544656 206.577924 
L 143.820796 114.477127 
L 144.091523 243.445803 
L 144.362248 119.048585 
L 144.632975 254.530664 
L 144.909116 89.970189 
L 145.179841 268.508651 
L 145.455981 80.443018 
L 145.732122 278.728343 
L 146.008262 88.308829 
L 146.278989 269.659479 
L 146.555129 99.464526 
L 146.825854 256.776741 
L 147.096581 101.364414 
L 147.37272 235.258484 
L 147.643447 113.077924 
L 147.914173 243.672152 
L 148.1849 113.172025 
L 148.461039 221.038353 
L 148.731765 130.282041 
L 149.002492 226.11926 
L 149.273216 131.112711 
L 149.543943 222.25107 
L 149.814669 133.79881 
L 150.085396 227.504961 
L 150.361535 170.388013 
L 150.632262 197.957362 
L 150.902987 175.848912 
L 151.173713 143.43872 
L 151.449854 218.195267 
L 151.72058 143.689072 
L 151.996721 253.174393 
L 152.272861 85.299434 
L 152.543586 273.021292 
L 152.814313 82.524446 
L 153.090453 280.269366 
L 153.366593 82.4791 
L 153.642734 264.47784 
L 153.918875 96.64419 
L 154.189599 252.689213 
L 154.465741 130.654458 
L 154.741882 209.050378 
L 155.012607 138.327247 
L 155.283333 210.622447 
L 155.559473 172.931465 
L 155.8302 175.23175 
L 156.106341 194.668349 
L 156.382479 104.351339 
L 156.653206 251.528455 
L 156.923932 75.771816 
L 157.194658 249.208971 
L 157.465383 101.670972 
L 157.73611 246.343756 
L 158.006836 103.980213 
L 158.282976 273.148021 
L 158.553703 81.275972 
L 158.824428 270.986299 
L 159.095154 79.240459 
L 159.36588 270.283465 
L 159.636607 78.870733 
L 159.907333 267.865508 
L 160.178058 79.795995 
L 160.454198 277.022974 
L 160.724925 73.967885 
L 160.995649 276.472589 
L 161.266376 72.348852 
L 161.537102 274.642469 
L 161.807828 73.736585 
L 162.083969 271.886774 
L 162.360109 82.528015 
L 162.630836 239.006286 
L 162.906975 100.715736 
L 163.177701 248.661069 
L 163.453842 101.600879 
L 163.724568 226.294946 
L 164.000708 145.723854 
L 164.547574 185.117992 
L 164.818301 165.67828 
L 165.094441 213.019274 
L 165.365167 126.998097 
L 165.641308 273.475407 
L 165.917448 80.21245 
L 166.193588 275.407938 
L 166.464315 72.811435 
L 166.73504 275.679129 
L 167.005766 74.245389 
L 167.281907 267.085889 
L 167.552633 84.098189 
L 167.828774 265.486517 
L 168.104914 103.588953 
L 168.375639 230.380767 
L 168.65178 121.955203 
L 168.922505 219.283131 
L 169.193232 126.163719 
L 169.469373 192.300643 
L 169.740099 152.561676 
L 170.016238 150.803788 
L 170.286964 191.634839 
L 170.557691 160.131316 
L 170.833832 228.611733 
L 171.109971 87.749843 
L 171.380698 267.430451 
L 171.656839 78.268906 
L 171.932977 277.179768 
L 172.203704 76.465711 
L 172.47443 277.073215 
L 172.745157 76.696842 
L 173.021297 265.557472 
L 173.297436 93.264883 
L 173.568163 257.885225 
L 173.838888 92.985776 
L 174.109615 251.948552 
L 174.385756 101.181138 
L 174.656482 235.465367 
L 174.932621 128.200276 
L 175.203347 221.17254 
L 175.474074 130.512851 
L 175.744798 211.36025 
L 176.015525 123.385382 
L 176.286251 210.996109 
L 176.556978 121.311058 
L 176.833118 179.843038 
L 177.109258 197.916569 
L 177.379985 131.578611 
L 177.656126 245.048087 
L 177.932264 85.853682 
L 178.202991 262.963572 
L 178.473717 79.888208 
L 178.744443 268.075395 
L 179.015168 81.73851 
L 179.285895 269.680886 
L 179.55662 82.61718 
L 179.827347 275.600766 
L 180.103488 74.245431 
L 180.374213 276.972735 
L 180.650353 77.390674 
L 180.926494 268.99139 
L 181.19722 84.423605 
L 181.467947 266.279451 
L 181.744085 95.486179 
L 182.014812 249.225651 
L 182.290953 114.186403 
L 182.567092 211.223019 
L 182.837819 142.631586 
L 183.11396 123.675623 
L 183.3901 207.420507 
L 183.660826 141.933522 
L 183.931551 205.858015 
L 184.202278 139.346946 
L 184.473003 209.088637 
L 184.74373 140.679263 
L 185.014455 210.605973 
L 185.285182 143.225367 
L 185.561322 274.326997 
L 185.837462 80.119522 
L 186.108189 274.387516 
L 186.38433 75.216697 
L 186.660468 270.78582 
L 186.931195 78.871323 
L 187.207336 267.959835 
L 187.478061 90.393544 
L 187.754202 248.811761 
L 188.024928 100.946603 
L 188.295655 248.028408 
L 188.566379 103.400968 
L 188.837106 239.018049 
L 189.113247 124.356587 
L 189.389387 209.24322 
L 189.665527 180.549144 
L 190.206979 171.904385 
L 190.477705 183.099583 
L 190.748431 181.007291 
L 191.019158 164.707561 
L 191.295297 247.959973 
L 191.566023 114.289006 
L 191.842164 261.658522 
L 192.11289 94.130506 
L 192.383616 256.883991 
L 192.659755 76.280544 
L 192.930482 275.269333 
L 193.206623 73.736561 
L 193.477348 275.554562 
L 193.753489 80.166298 
L 194.024215 268.279365 
L 194.29494 81.091203 
L 194.565666 255.670063 
L 194.836393 79.888357 
L 195.107119 266.021374 
L 195.383258 89.282765 
L 195.653985 255.908231 
L 195.924711 81.278636 
L 196.195437 255.143998 
L 196.466162 93.402605 
L 196.742304 242.509343 
L 197.013029 122.383557 
L 197.283755 239.620038 
L 197.559896 120.243006 
L 197.830622 222.352826 
L 198.101347 120.845508 
L 198.372073 214.580116 
L 198.6428 120.754789 
L 198.913526 221.718005 
L 199.189665 151.681221 
L 199.460391 191.067028 
L 199.731118 159.214528 
L 200.007258 73.22789 
L 200.277984 214.882348 
L 200.554125 118.359384 
L 200.82485 230.264686 
L 201.10099 87.009636 
L 201.371717 261.945105 
L 201.647857 72.904007 
L 201.918584 272.110981 
L 202.194724 70.868533 
L 202.465449 272.097186 
L 202.741591 95.062837 
L 203.01773 251.452911 
L 203.29387 102.111948 
L 203.564597 237.941245 
L 203.835323 104.789048 
L 204.111463 210.743398 
L 204.387604 164.438578 
L 204.663745 147.24547 
L 204.939885 238.593035 
L 205.216024 83.033294 
L 205.486751 269.317097 
L 205.757477 81.691581 
L 206.033618 272.441166 
L 206.309758 72.765201 
L 206.580484 271.536827 
L 206.851211 71.60872 
L 207.121935 271.350049 
L 207.392662 71.747426 
L 207.668802 261.672999 
L 207.939529 80.860754 
L 208.215669 246.371002 
L 208.491808 143.998246 
L 208.762535 235.732817 
L 209.03326 105.578242 
L 209.303987 229.70662 
L 209.574712 113.44242 
L 209.845439 228.09166 
L 210.121579 127.642353 
L 210.392305 211.852003 
L 210.663032 130.414197 
L 210.933756 206.327354 
L 211.204483 135.274723 
L 211.480623 155.050604 
L 211.75135 240.938477 
L 212.02749 149.00005 
L 212.298215 212.605984 
L 212.568942 142.300706 
L 212.839667 217.201748 
L 213.115808 104.951029 
L 213.386534 242.607195 
L 213.657261 109.067015 
L 213.9334 269.190135 
L 214.204126 73.644193 
L 214.480267 274.260866 
L 214.750992 71.4238 
L 215.021718 272.872784 
L 215.29786 72.811286 
L 215.568585 270.810489 
L 215.844725 80.63024 
L 216.120866 242.760335 
L 216.391592 97.384883 
L 216.667733 225.694511 
L 216.943873 134.202812 
L 217.214598 199.579901 
L 217.49074 165.487899 
L 217.761464 168.7622 
L 218.032191 164.51764 
L 218.302917 163.354668 
L 218.573644 167.837127 
L 218.849783 138.692618 
L 219.120509 202.096985 
L 219.391236 136.845829 
L 219.66196 200.443018 
L 219.932687 104.432029 
L 220.208827 241.12167 
L 220.479554 98.38473 
L 220.755694 269.596263 
L 221.02642 75.124197 
L 221.297147 264.737265 
L 221.567871 73.551595 
L 221.838598 269.825335 
L 222.109324 74.707937 
L 222.380051 268.812734 
L 222.656189 70.082447 
L 222.926916 240.550273 
L 223.203057 93.452586 
L 223.484612 245.024895 
L 223.760751 113.209115 
L 224.031478 224.16884 
L 224.302204 109.603436 
L 224.572929 219.654097 
L 224.843655 110.573546 
L 225.114382 224.532356 
L 225.385108 104.371655 
L 225.661247 168.64166 
L 225.937389 169.269651 
L 226.208114 167.520787 
L 226.47884 164.235697 
L 226.749566 180.768359 
L 227.020293 165.749929 
L 227.291018 166.739612 
L 227.567158 206.727129 
L 227.837885 129.404962 
L 228.108611 209.023639 
L 228.379336 130.698449 
L 228.650062 259.865718 
L 228.926203 70.314692 
L 229.202344 267.832803 
L 229.478483 67.261137 
L 229.74921 270.968666 
L 230.019935 67.769995 
L 230.290661 269.186252 
L 230.566802 71.099744 
L 230.837528 267.153219 
L 231.108255 72.394828 
L 231.384393 232.853541 
L 231.65512 80.769046 
L 231.931261 238.351934 
L 232.207401 111.173352 
L 232.483541 197.139985 
L 232.754268 139.615648 
L 233.024994 197.040262 
L 233.295719 125.976582 
L 233.566445 200.923404 
L 233.837172 131.291028 
L 234.384037 261.375694 
L 234.654763 138.451932 
L 234.92549 161.60241 
L 235.196215 164.603456 
L 235.466941 162.068347 
L 235.737667 161.270532 
L 236.008393 159.61472 
L 236.279119 168.203852 
L 236.549845 169.364021 
L 236.825987 127.367965 
L 237.102125 265.855246 
L 237.372852 101.89817 
L 237.643578 247.036953 
L 237.914305 87.702573 
L 238.190445 265.80182 
L 238.466584 65.873354 
L 238.737311 267.930994 
L 239.013451 68.925536 
L 239.284177 267.646069 
L 239.554904 71.423624 
L 239.831044 254.627503 
L 240.101769 220.676927 
L 240.37791 214.770561 
L 240.65405 109.279471 
L 240.924777 224.399774 
L 241.200917 135.268081 
L 241.471643 206.798562 
L 241.74237 120.706678 
L 242.013094 208.172626 
L 242.283821 122.093558 
L 242.554547 212.554507 
L 242.825272 123.466753 
L 243.101412 169.635613 
L 243.372139 164.331762 
L 243.642865 163.680857 
L 243.919005 205.160682 
L 244.195146 101.760249 
L 244.465871 239.911883 
L 244.736598 94.501046 
L 245.012738 263.722706 
L 245.283464 72.487817 
L 245.559605 269.359414 
L 245.830329 91.185672 
L 246.10647 261.770997 
L 246.382611 77.021223 
L 246.658753 242.803162 
L 246.929477 86.277739 
L 247.200204 240.126377 
L 247.476344 106.083609 
L 247.747071 227.24814 
L 248.023211 127.315832 
L 248.29935 171.576681 
L 248.570077 197.087022 
L 248.846218 129.490886 
L 249.122357 229.619236 
L 249.393084 98.431209 
L 249.66381 222.935883 
L 249.934535 102.869248 
L 250.205261 230.991631 
L 250.475988 104.022965 
L 250.746712 225.784937 
L 251.017439 100.281481 
L 251.288165 224.965066 
L 251.558892 101.391097 
L 251.835032 264.273352 
L 252.105757 74.846694 
L 252.381899 269.222748 
L 252.652623 68.140359 
L 252.92335 269.592372 
L 253.194076 68.463983 
L 253.464803 270.554815 
L 253.740942 68.185799 
L 254.011668 268.793359 
L 254.282395 82.4791 
L 254.558533 256.295865 
L 254.82926 78.038762 
L 255.099986 256.160905 
L 255.370713 76.558421 
L 255.646853 243.558885 
L 255.922993 98.868231 
L 256.19372 233.129438 
L 256.464444 96.647667 
L 256.735171 228.82141 
L 257.005897 98.774231 
L 257.276624 226.829466 
L 257.552764 166.63303 
L 257.828903 180.11506 
L 258.09963 149.817414 
L 258.370355 191.534964 
L 258.641082 146.765654 
L 258.911807 179.804163 
L 259.182534 150.096416 
L 259.458674 156.671001 
L 259.7294 183.400776 
L 260.000127 100.781129 
L 260.276265 212.131358 
L 260.546992 109.111891 
L 260.823133 257.09321 
L 261.099273 66.937283 
L 261.369999 268.677994 
L 261.64614 67.723526 
L 261.916866 270.032954 
L 262.187593 65.456876 
L 262.463731 256.909111 
L 262.734458 72.903539 
L 263.005184 256.036798 
L 263.275909 77.113801 
L 263.552051 246.054558 
L 263.822776 87.108339 
L 264.093503 246.620784 
L 264.369642 94.518086 
L 264.640369 235.452539 
L 264.911094 93.406672 
L 265.18182 234.979573 
L 265.452546 97.11009 
L 265.723273 216.793954 
L 265.999414 114.739796 
L 266.275552 183.297109 
L 266.546279 147.746376 
L 266.817005 188.605356 
L 267.087731 144.319256 
L 267.358456 187.773652 
L 267.629183 142.981993 
L 267.899909 183.807574 
L 268.446776 167.020637 
L 268.717501 267.157062 
L 268.993641 94.868817 
L 269.269782 249.854206 
L 269.540508 80.304051 
L 269.811235 250.725218 
L 270.087373 68.741369 
L 270.3581 267.447795 
L 270.628826 67.400123 
L 270.899552 264.977772 
L 271.175693 63.421991 
L 271.446419 255.774065 
L 271.717146 63.977696 
L 271.98787 267.726912 
L 272.258597 62.403905 
L 272.529323 266.575771 
L 272.800048 62.727695 
L 273.070774 265.668931 
L 273.341501 62.912838 
L 273.612227 264.752441 
L 273.888366 66.658434 
L 274.164508 249.477478 
L 274.440647 263.608612 
L 274.982099 86.324361 
L 275.252826 236.938314 
L 275.523551 85.815051 
L 275.799691 223.237695 
L 276.070418 102.289991 
L 276.341144 219.369739 
L 276.617284 127.224864 
L 276.888009 196.956402 
L 277.158736 121.85326 
L 277.434877 157.717699 
L 277.711016 210.51217 
L 277.981743 115.765811 
L 278.257884 241.49304 
L 278.534024 66.243127 
L 278.804749 257.684787 
L 279.075475 70.730224 
L 279.346202 258.416751 
L 279.622342 62.357901 
L 279.898482 264.431645 
L 280.169209 83.269221 
L 280.44535 252.834888 
L 280.716074 71.654451 
L 280.986801 252.173995 
L 281.262941 83.084109 
L 281.533668 239.258799 
L 281.809808 103.07476 
L 282.080533 224.061568 
L 282.35126 102.339287 
L 282.621985 225.216123 
L 282.898126 121.672404 
L 283.168852 194.211463 
L 283.439578 173.236495 
L 283.715718 167.046601 
L 283.991858 180.259069 
L 284.262585 130.510175 
L 284.533309 196.252214 
L 284.804036 129.395158 
L 285.080178 228.705705 
L 285.350903 93.388755 
L 285.627043 252.73006 
L 285.903184 71.145623 
L 286.179324 262.515817 
L 286.450051 63.42153 
L 286.726191 251.596458 
L 287.00233 80.16813 
L 287.273057 240.97421 
L 287.543782 79.428334 
L 287.814509 241.622465 
L 288.085235 74.985472 
L 288.355961 246.424038 
L 288.632101 92.29828 
L 288.902827 226.914237 
L 289.178968 135.816554 
L 289.455109 177.198667 
L 289.731248 180.637393 
L 290.001975 144.326632 
L 290.2727 175.078916 
L 290.543426 144.511542 
L 290.814152 180.208624 
L 291.084879 143.405506 
L 291.355603 174.253682 
L 291.62633 81.642716 
L 291.897056 174.384433 
L 292.167783 151.807027 
L 292.443922 220.581571 
L 292.720062 78.916549 
L 292.990789 247.031792 
L 293.261514 78.176674 
L 293.532241 245.984356 
L 293.802966 82.061503 
L 294.073693 246.405396 
L 294.349833 63.607007 
L 294.625973 264.227151 
L 294.8967 80.537479 
L 295.167424 262.395948 
L 295.438151 59.997713 
L 295.714292 261.717331 
L 295.985018 64.762334 
L 296.261158 243.709241 
L 296.531883 73.04203 
L 296.80261 244.966503 
L 297.073335 71.422075 
L 297.344062 228.716658 
L 297.620203 84.981805 
L 297.896343 211.277266 
L 298.167068 103.723482 
L 298.437794 207.461124 
L 298.708521 106.45414 
L 298.979245 213.73755 
L 299.249972 104.693512 
L 299.520698 209.307421 
L 299.791425 103.683536 
L 300.338291 253.145891 
L 300.614432 149.118712 
L 300.890573 210.334046 
L 301.166711 86.731801 
L 301.437438 239.822757 
L 301.708164 84.788997 
L 301.97889 238.665827 
L 302.255031 68.047444 
L 302.525756 257.089568 
L 302.796483 68.694991 
L 303.072622 254.711418 
L 303.343349 60.55411 
L 303.61949 257.709072 
L 303.89563 72.533299 
L 304.17177 239.10221 
L 304.442496 83.685459 
L 304.713222 238.760604 
L 304.983948 84.796392 
L 305.260088 215.530498 
L 305.530815 99.236804 
L 305.80154 222.358716 
L 306.348407 135.774549 
L 306.624547 145.330492 
L 306.895273 184.085919 
L 307.165998 159.894743 
L 307.436725 176.968644 
L 307.983591 129.307596 
L 308.254318 192.589289 
L 308.525043 132.361181 
L 308.801183 253.210033 
L 309.077324 72.117995 
L 309.353464 265.624633 
L 309.624191 64.162376 
L 309.900331 264.825874 
L 310.171057 63.467442 
L 310.441784 264.038564 
L 310.712509 63.189312 
L 310.988649 253.499457 
L 311.26479 81.417391 
L 311.535516 243.189408 
L 311.811656 106.405028 
L 312.087797 136.012405 
L 312.363936 150.336721 
L 312.634663 170.838185 
L 312.905388 131.610919 
L 313.176115 177.206844 
L 313.44684 144.917749 
L 313.717567 180.3419 
L 313.993707 177.992597 
L 314.269847 104.395816 
L 314.540574 255.344499 
L 314.816714 87.33386 
L 315.08744 244.774206 
L 315.358167 84.74344 
L 315.628892 243.84318 
L 315.905032 63.097504 
L 316.181173 264.737265 
L 316.451899 63.005468 
L 316.722624 265.108782 
L 316.998764 69.480752 
L 317.269491 257.986276 
L 317.540217 67.723093 
L 317.816357 240.614661 
L 318.092498 89.566678 
L 318.368639 210.406518 
L 318.644779 131.936468 
L 318.920919 166.727681 
L 319.191645 173.191241 
L 319.467785 122.418134 
L 319.738512 195.777808 
L 320.014652 85.390995 
L 320.290792 262.896696 
L 320.561519 66.058815 
L 320.832243 262.423414 
L 321.10297 64.069219 
L 321.379111 263.628415 
L 321.655251 66.474406 
L 321.931391 248.579773 
L 322.202118 75.540635 
L 322.472844 251.486422 
L 322.743571 70.03526 
L 323.019709 239.323248 
L 323.290436 85.259894 
L 323.566577 214.049755 
L 323.837302 102.474555 
L 324.113443 197.093784 
L 324.384168 118.526882 
L 324.654895 197.541088 
L 324.931035 159.433119 
L 325.201761 159.42274 
L 325.477902 196.743713 
L 325.748626 134.626622 
L 326.019353 212.600478 
L 326.295494 96.857374 
L 326.56622 229.500679 
L 326.84236 68.695616 
L 327.113085 252.746053 
L 327.383812 67.862855 
L 327.654537 253.851459 
L 327.925264 67.030265 
L 328.195989 242.215736 
L 328.466716 71.516652 
L 328.742856 263.478504 
L 329.018996 60.461022 
L 329.289723 255.997837 
L 329.565864 64.067696 
L 329.842003 247.765129 
L 330.11273 78.918699 
L 330.383455 244.270261 
L 330.654181 81.972946 
L 330.935736 217.247925 
L 331.206462 111.959674 
L 331.477189 205.065694 
L 331.753329 211.703036 
L 332.029468 163.316401 
L 332.300195 180.439782 
L 332.57092 140.214345 
L 332.841647 182.329909 
L 333.112372 155.465842 
L 333.383099 176.785446 
L 333.659239 112.991636 
L 333.929965 208.578809 
L 334.200692 112.254468 
L 334.471416 207.59347 
L 334.742143 70.036879 
L 335.018283 262.927869 
L 335.28901 86.222084 
L 335.559734 246.516602 
L 335.830461 79.70277 
L 336.106603 254.526609 
L 336.377327 62.034247 
L 336.653468 262.75433 
L 336.924194 58.657358 
L 337.194921 261.907728 
L 337.465645 63.652357 
L 337.736372 260.122611 
L 338.012513 62.541556 
L 338.283237 255.493244 
L 338.553964 60.599073 
L 338.82469 259.389003 
L 339.100831 71.33082 
L 339.371556 246.637939 
L 339.642283 70.40496 
L 339.913008 247.41977 
L 340.183734 70.034622 
L 340.45446 140.353032 
L 340.725187 97.100105 
L 341.001328 238.186802 
L 341.277466 98.356758 
L 341.548193 215.389133 
L 341.824334 125.504252 
L 342.095059 194.770577 
L 342.365786 120.744701 
L 342.641925 167.784192 
L 342.912652 140.480226 
L 343.183377 128.039694 
L 343.454104 143.574395 
L 343.724829 166.761964 
L 343.995555 151.752215 
L 344.266281 174.293488 
L 344.537008 150.694642 
L 344.813149 140.351069 
L 345.083873 177.152225 
L 345.3546 130.276247 
L 345.625326 189.814464 
L 345.901466 102.222135 
L 346.172191 191.538051 
L 346.448333 63.007259 
L 346.71906 250.895991 
L 346.995198 58.056884 
L 347.265925 258.745693 
L 347.536651 59.166165 
L 347.807376 260.165112 
L 348.078102 62.219392 
L 348.348829 258.941551 
L 348.619555 59.628564 
L 348.895694 258.597897 
L 349.171836 59.02517 
L 349.442561 253.645198 
L 349.713287 61.893918 
L 349.984013 252.770931 
L 350.25474 64.85465 
L 350.525465 255.153626 
L 350.801605 75.587022 
L 351.077746 229.683431 
L 351.348472 85.030307 
L 351.619199 234.288549 
L 351.895339 145.323675 
L 352.171478 182.262295 
L 352.442205 137.111194 
L 352.718345 143.44694 
L 352.994485 214.16242 
L 353.265212 111.834991 
L 353.541353 246.003163 
L 353.817492 66.105244 
L 354.088219 260.662203 
L 354.358944 61.802844 
L 354.629671 258.307848 
L 354.905811 58.795639 
L 355.176537 261.678597 
L 355.447264 57.361156 
L 355.717988 261.488205 
L 355.994129 62.588557 
L 356.264855 261.024362 
L 356.535582 60.181122 
L 356.811722 244.109166 
L 357.087861 81.835572 
L 357.358588 237.43493 
L 357.629313 113.261912 
L 357.90004 232.735942 
L 358.176181 104.511967 
L 358.452321 202.425033 
L 358.72846 144.170106 
L 358.999187 161.962031 
L 359.269913 148.236125 
L 359.54064 161.824254 
L 359.816779 200.301832 
L 360.087506 119.370017 
L 360.358231 190.2259 
L 360.634371 83.864222 
L 360.910512 254.256566 
L 361.181238 66.984174 
L 361.451965 252.323093 
L 361.728105 59.306026 
L 361.99883 259.708627 
L 362.269557 61.664877 
L 362.545696 260.885768 
L 362.816423 59.165692 
L 363.087148 257.670176 
L 363.357875 67.537546 
L 363.634015 249.130611 
L 363.904741 62.49567 
L 364.175468 251.504065 
L 364.446192 66.982104 
L 364.722333 241.556304 
L 364.993059 73.921103 
L 365.263786 245.957063 
L 365.539926 83.132684 
L 365.810652 227.503896 
L 366.081378 87.622265 
L 366.352103 223.902187 
L 366.62283 148.10764 
L 366.89897 205.464478 
L 367.169697 111.91599 
L 367.445836 177.895911 
L 367.716562 134.660666 
L 367.987289 172.626952 
L 368.263428 178.365564 
L 368.534155 134.526408 
L 368.810296 223.521888 
L 369.086435 57.454197 
L 369.357161 244.37909 
L 369.633302 60.045163 
L 369.904028 258.950973 
L 370.180169 57.083965 
L 370.456309 255.663599 
L 370.727035 59.490106 
L 370.997761 254.887234 
L 371.268486 62.079858 
L 371.539213 257.016062 
L 371.809939 60.321522 
L 372.080665 255.631847 
L 372.356804 90.075256 
L 372.627531 247.74484 
L 372.898257 71.006243 
L 373.168982 250.539765 
L 373.439708 71.006322 
L 373.710435 249.003441 
L 373.981159 70.173287 
L 374.251886 249.143731 
L 374.522612 66.657108 
L 374.793339 224.928809 
L 375.069479 81.511516 
L 375.340204 226.657578 
L 375.610931 84.704521 
L 375.88707 209.571112 
L 376.157797 99.608041 
L 376.433938 186.139779 
L 376.704664 119.448301 
L 376.975389 187.477296 
L 377.246115 113.156719 
L 377.787566 240.793204 
L 378.058293 184.277621 
L 378.334433 160.436876 
L 378.60516 159.383277 
L 378.875885 152.912241 
L 379.146612 163.173323 
L 379.417337 152.215439 
L 379.688063 156.515185 
L 379.964204 194.251108 
L 380.23493 122.695995 
L 380.505657 237.800208 
L 380.781795 89.552484 
L 381.052522 226.929676 
L 381.323248 87.055883 
L 381.593974 234.51319 
L 381.864699 95.933397 
L 382.135426 233.313232 
L 382.406152 89.736427 
L 382.682292 251.820133 
L 382.953019 75.124197 
L 383.223744 254.940629 
L 383.49447 206.642581 
L 383.765196 257.220903 
L 384.035923 66.660423 
L 384.306647 250.243834 
L 384.577374 65.966491 
L 384.8481 250.41638 
L 385.118827 61.848968 
L 385.394965 257.951049 
L 385.665692 56.809144 
L 385.936418 255.795755 
L 386.207143 56.023649 
L 386.483285 255.754187 
L 386.75401 53.568 
L 387.024737 253.552796 
L 387.300876 63.327509 
L 387.571603 244.651647 
L 387.847744 77.438329 
L 388.123884 221.599259 
L 388.400023 109.225982 
L 388.67075 193.973357 
L 389.217616 109.568075 
L 389.493757 159.36829 
L 389.764483 125.514074 
L 390.040624 214.830585 
L 390.311348 92.973501 
L 390.582075 217.938395 
L 390.852801 97.460083 
L 391.123526 212.879922 
L 391.394252 99.356091 
L 391.664979 218.445361 
L 391.935705 98.293411 
L 392.211845 245.364761 
L 392.487986 56.482439 
L 392.764127 254.254773 
L 393.040267 61.290765 
L 393.316406 233.732686 
L 393.587133 73.59715 
L 393.857859 242.922371 
L 394.128585 71.190911 
L 394.39931 238.848063 
L 394.670037 75.170572 
L 394.940763 230.22552 
L 395.216903 87.483022 
L 395.487629 224.451816 
L 395.758356 87.390199 
L 396.02908 217.395674 
L 396.299807 79.984802 
L 396.570533 225.837047 
L 396.84126 84.057589 
L 397.117399 197.211613 
L 397.393539 138.996273 
L 397.664266 167.872904 
L 397.940406 178.585334 
L 398.216546 93.390231 
L 398.487273 216.676333 
L 398.487273 216.676333 
" style="fill:none;stroke:#1f77b4;stroke-linecap:square;stroke-width:1.5;"/>
   </g>
   <g id="patch_3">
    <path d="M 57.6 307.584 
L 57.6 41.472 
" style="fill:none;stroke:#000000;stroke-linecap:square;stroke-linejoin:miter;stroke-width:0.8;"/>
   </g>
   <g id="patch_4">
    <path d="M 414.72 307.584 
L 414.72 41.472 
" style="fill:none;stroke:#000000;stroke-linecap:square;stroke-linejoin:miter;stroke-width:0.8;"/>
   </g>
   <g id="patch_5">
    <path d="M 57.6 307.584 
L 414.72 307.584 
" style="fill:none;stroke:#000000;stroke-linecap:square;stroke-linejoin:miter;stroke-width:0.8;"/>
   </g>
   <g id="patch_6">
    <path d="M 57.6 41.472 
L 414.72 41.472 
" style="fill:none;stroke:#000000;stroke-linecap:square;stroke-linejoin:miter;stroke-width:0.8;"/>
   </g>
   <g id="text_17">
    <!-- Resistance -->
    <g transform="translate(203.562187 35.472)scale(0.12 -0.12)">
     <use xlink:href="#DejaVuSans-52"/>
     <use x="69.419922" xlink:href="#DejaVuSans-65"/>
     <use x="130.943359" xlink:href="#DejaVuSans-73"/>
     <use x="183.042969" xlink:href="#DejaVuSans-69"/>
     <use x="210.826172" xlink:href="#DejaVuSans-73"/>
     <use x="262.925781" xlink:href="#DejaVuSans-74"/>
     <use x="302.134766" xlink:href="#DejaVuSans-61"/>
     <use x="363.414062" xlink:href="#DejaVuSans-6e"/>
     <use x="426.792969" xlink:href="#DejaVuSans-63"/>
     <use x="481.773438" xlink:href="#DejaVuSans-65"/>
    </g>
   </g>
  </g>
 </g>
 <defs>
  <clipPath id="pe4cb6c105d">
   <rect height="266.112" width="357.12" x="57.6" y="41.472"/>
  </clipPath>
 </defs>
</svg>
