<?xml version="1.0" encoding="utf-8" standalone="no"?>
<!DOCTYPE svg PUBLIC "-//W3C//DTD SVG 1.1//EN"
  "http://www.w3.org/Graphics/SVG/1.1/DTD/svg11.dtd">
<!-- Created with matplotlib (http://matplotlib.org/) -->
<svg height="345pt" version="1.1" viewBox="0 0 460 345" width="460pt" xmlns="http://www.w3.org/2000/svg" xmlns:xlink="http://www.w3.org/1999/xlink">
 <defs>
  <style type="text/css">
*{stroke-linecap:butt;stroke-linejoin:round;}
  </style>
 </defs>
 <g id="figure_1">
  <g id="patch_1">
   <path d="M 0 345.6 
L 460.8 345.6 
L 460.8 0 
L 0 0 
z
" style="fill:#ffffff;"/>
  </g>
  <g id="axes_1">
   <g id="patch_2">
    <path d="M 57.6 307.584 
L 414.72 307.584 
L 414.72 41.472 
L 57.6 41.472 
z
" style="fill:#ffffff;"/>
   </g>
   <g id="matplotlib.axis_1">
    <g id="xtick_1">
     <g id="line2d_1">
      <defs>
       <path d="M 0 0 
L 0 3.5 
" id="m97ec1b1bd5" style="stroke:#000000;stroke-width:0.8;"/>
      </defs>
      <g>
       <use style="stroke:#000000;stroke-width:0.8;" x="73.832727" xlink:href="#m97ec1b1bd5" y="307.584"/>
      </g>
     </g>
     <g id="text_1">
      <!-- 0 -->
      <defs>
       <path d="M 31.78125 66.40625 
Q 24.171875 66.40625 20.328125 58.90625 
Q 16.5 51.421875 16.5 36.375 
Q 16.5 21.390625 20.328125 13.890625 
Q 24.171875 6.390625 31.78125 6.390625 
Q 39.453125 6.390625 43.28125 13.890625 
Q 47.125 21.390625 47.125 36.375 
Q 47.125 51.421875 43.28125 58.90625 
Q 39.453125 66.40625 31.78125 66.40625 
z
M 31.78125 74.21875 
Q 44.046875 74.21875 50.515625 64.515625 
Q 56.984375 54.828125 56.984375 36.375 
Q 56.984375 17.96875 50.515625 8.265625 
Q 44.046875 -1.421875 31.78125 -1.421875 
Q 19.53125 -1.421875 13.0625 8.265625 
Q 6.59375 17.96875 6.59375 36.375 
Q 6.59375 54.828125 13.0625 64.515625 
Q 19.53125 74.21875 31.78125 74.21875 
z
" id="DejaVuSans-30"/>
      </defs>
      <g transform="translate(70.651477 322.182437)scale(0.1 -0.1)">
       <use xlink:href="#DejaVuSans-30"/>
      </g>
     </g>
    </g>
    <g id="xtick_2">
     <g id="line2d_2">
      <g>
       <use style="stroke:#000000;stroke-width:0.8;" x="127.977915" xlink:href="#m97ec1b1bd5" y="307.584"/>
      </g>
     </g>
     <g id="text_2">
      <!-- 10 -->
      <defs>
       <path d="M 12.40625 8.296875 
L 28.515625 8.296875 
L 28.515625 63.921875 
L 10.984375 60.40625 
L 10.984375 69.390625 
L 28.421875 72.90625 
L 38.28125 72.90625 
L 38.28125 8.296875 
L 54.390625 8.296875 
L 54.390625 0 
L 12.40625 0 
z
" id="DejaVuSans-31"/>
      </defs>
      <g transform="translate(121.615415 322.182437)scale(0.1 -0.1)">
       <use xlink:href="#DejaVuSans-31"/>
       <use x="63.623047" xlink:href="#DejaVuSans-30"/>
      </g>
     </g>
    </g>
    <g id="xtick_3">
     <g id="line2d_3">
      <g>
       <use style="stroke:#000000;stroke-width:0.8;" x="182.123103" xlink:href="#m97ec1b1bd5" y="307.584"/>
      </g>
     </g>
     <g id="text_3">
      <!-- 20 -->
      <defs>
       <path d="M 19.1875 8.296875 
L 53.609375 8.296875 
L 53.609375 0 
L 7.328125 0 
L 7.328125 8.296875 
Q 12.9375 14.109375 22.625 23.890625 
Q 32.328125 33.6875 34.8125 36.53125 
Q 39.546875 41.84375 41.421875 45.53125 
Q 43.3125 49.21875 43.3125 52.78125 
Q 43.3125 58.59375 39.234375 62.25 
Q 35.15625 65.921875 28.609375 65.921875 
Q 23.96875 65.921875 18.8125 64.3125 
Q 13.671875 62.703125 7.8125 59.421875 
L 7.8125 69.390625 
Q 13.765625 71.78125 18.9375 73 
Q 24.125 74.21875 28.421875 74.21875 
Q 39.75 74.21875 46.484375 68.546875 
Q 53.21875 62.890625 53.21875 53.421875 
Q 53.21875 48.921875 51.53125 44.890625 
Q 49.859375 40.875 45.40625 35.40625 
Q 44.1875 33.984375 37.640625 27.21875 
Q 31.109375 20.453125 19.1875 8.296875 
z
" id="DejaVuSans-32"/>
      </defs>
      <g transform="translate(175.760603 322.182437)scale(0.1 -0.1)">
       <use xlink:href="#DejaVuSans-32"/>
       <use x="63.623047" xlink:href="#DejaVuSans-30"/>
      </g>
     </g>
    </g>
    <g id="xtick_4">
     <g id="line2d_4">
      <g>
       <use style="stroke:#000000;stroke-width:0.8;" x="236.26829" xlink:href="#m97ec1b1bd5" y="307.584"/>
      </g>
     </g>
     <g id="text_4">
      <!-- 30 -->
      <defs>
       <path d="M 40.578125 39.3125 
Q 47.65625 37.796875 51.625 33 
Q 55.609375 28.21875 55.609375 21.1875 
Q 55.609375 10.40625 48.1875 4.484375 
Q 40.765625 -1.421875 27.09375 -1.421875 
Q 22.515625 -1.421875 17.65625 -0.515625 
Q 12.796875 0.390625 7.625 2.203125 
L 7.625 11.71875 
Q 11.71875 9.328125 16.59375 8.109375 
Q 21.484375 6.890625 26.8125 6.890625 
Q 36.078125 6.890625 40.9375 10.546875 
Q 45.796875 14.203125 45.796875 21.1875 
Q 45.796875 27.640625 41.28125 31.265625 
Q 36.765625 34.90625 28.71875 34.90625 
L 20.21875 34.90625 
L 20.21875 43.015625 
L 29.109375 43.015625 
Q 36.375 43.015625 40.234375 45.921875 
Q 44.09375 48.828125 44.09375 54.296875 
Q 44.09375 59.90625 40.109375 62.90625 
Q 36.140625 65.921875 28.71875 65.921875 
Q 24.65625 65.921875 20.015625 65.03125 
Q 15.375 64.15625 9.8125 62.3125 
L 9.8125 71.09375 
Q 15.4375 72.65625 20.34375 73.4375 
Q 25.25 74.21875 29.59375 74.21875 
Q 40.828125 74.21875 47.359375 69.109375 
Q 53.90625 64.015625 53.90625 55.328125 
Q 53.90625 49.265625 50.4375 45.09375 
Q 46.96875 40.921875 40.578125 39.3125 
z
" id="DejaVuSans-33"/>
      </defs>
      <g transform="translate(229.90579 322.182437)scale(0.1 -0.1)">
       <use xlink:href="#DejaVuSans-33"/>
       <use x="63.623047" xlink:href="#DejaVuSans-30"/>
      </g>
     </g>
    </g>
    <g id="xtick_5">
     <g id="line2d_5">
      <g>
       <use style="stroke:#000000;stroke-width:0.8;" x="290.413478" xlink:href="#m97ec1b1bd5" y="307.584"/>
      </g>
     </g>
     <g id="text_5">
      <!-- 40 -->
      <defs>
       <path d="M 37.796875 64.3125 
L 12.890625 25.390625 
L 37.796875 25.390625 
z
M 35.203125 72.90625 
L 47.609375 72.90625 
L 47.609375 25.390625 
L 58.015625 25.390625 
L 58.015625 17.1875 
L 47.609375 17.1875 
L 47.609375 0 
L 37.796875 0 
L 37.796875 17.1875 
L 4.890625 17.1875 
L 4.890625 26.703125 
z
" id="DejaVuSans-34"/>
      </defs>
      <g transform="translate(284.050978 322.182437)scale(0.1 -0.1)">
       <use xlink:href="#DejaVuSans-34"/>
       <use x="63.623047" xlink:href="#DejaVuSans-30"/>
      </g>
     </g>
    </g>
    <g id="xtick_6">
     <g id="line2d_6">
      <g>
       <use style="stroke:#000000;stroke-width:0.8;" x="344.558666" xlink:href="#m97ec1b1bd5" y="307.584"/>
      </g>
     </g>
     <g id="text_6">
      <!-- 50 -->
      <defs>
       <path d="M 10.796875 72.90625 
L 49.515625 72.90625 
L 49.515625 64.59375 
L 19.828125 64.59375 
L 19.828125 46.734375 
Q 21.96875 47.46875 24.109375 47.828125 
Q 26.265625 48.1875 28.421875 48.1875 
Q 40.625 48.1875 47.75 41.5 
Q 54.890625 34.8125 54.890625 23.390625 
Q 54.890625 11.625 47.5625 5.09375 
Q 40.234375 -1.421875 26.90625 -1.421875 
Q 22.3125 -1.421875 17.546875 -0.640625 
Q 12.796875 0.140625 7.71875 1.703125 
L 7.71875 11.625 
Q 12.109375 9.234375 16.796875 8.0625 
Q 21.484375 6.890625 26.703125 6.890625 
Q 35.15625 6.890625 40.078125 11.328125 
Q 45.015625 15.765625 45.015625 23.390625 
Q 45.015625 31 40.078125 35.4375 
Q 35.15625 39.890625 26.703125 39.890625 
Q 22.75 39.890625 18.8125 39.015625 
Q 14.890625 38.140625 10.796875 36.28125 
z
" id="DejaVuSans-35"/>
      </defs>
      <g transform="translate(338.196166 322.182437)scale(0.1 -0.1)">
       <use xlink:href="#DejaVuSans-35"/>
       <use x="63.623047" xlink:href="#DejaVuSans-30"/>
      </g>
     </g>
    </g>
    <g id="xtick_7">
     <g id="line2d_7">
      <g>
       <use style="stroke:#000000;stroke-width:0.8;" x="398.703853" xlink:href="#m97ec1b1bd5" y="307.584"/>
      </g>
     </g>
     <g id="text_7">
      <!-- 60 -->
      <defs>
       <path d="M 33.015625 40.375 
Q 26.375 40.375 22.484375 35.828125 
Q 18.609375 31.296875 18.609375 23.390625 
Q 18.609375 15.53125 22.484375 10.953125 
Q 26.375 6.390625 33.015625 6.390625 
Q 39.65625 6.390625 43.53125 10.953125 
Q 47.40625 15.53125 47.40625 23.390625 
Q 47.40625 31.296875 43.53125 35.828125 
Q 39.65625 40.375 33.015625 40.375 
z
M 52.59375 71.296875 
L 52.59375 62.3125 
Q 48.875 64.0625 45.09375 64.984375 
Q 41.3125 65.921875 37.59375 65.921875 
Q 27.828125 65.921875 22.671875 59.328125 
Q 17.53125 52.734375 16.796875 39.40625 
Q 19.671875 43.65625 24.015625 45.921875 
Q 28.375 48.1875 33.59375 48.1875 
Q 44.578125 48.1875 50.953125 41.515625 
Q 57.328125 34.859375 57.328125 23.390625 
Q 57.328125 12.15625 50.6875 5.359375 
Q 44.046875 -1.421875 33.015625 -1.421875 
Q 20.359375 -1.421875 13.671875 8.265625 
Q 6.984375 17.96875 6.984375 36.375 
Q 6.984375 53.65625 15.1875 63.9375 
Q 23.390625 74.21875 37.203125 74.21875 
Q 40.921875 74.21875 44.703125 73.484375 
Q 48.484375 72.75 52.59375 71.296875 
z
" id="DejaVuSans-36"/>
      </defs>
      <g transform="translate(392.341353 322.182437)scale(0.1 -0.1)">
       <use xlink:href="#DejaVuSans-36"/>
       <use x="63.623047" xlink:href="#DejaVuSans-30"/>
      </g>
     </g>
    </g>
    <g id="text_8">
     <!-- t(s) -->
     <defs>
      <path d="M 18.3125 70.21875 
L 18.3125 54.6875 
L 36.8125 54.6875 
L 36.8125 47.703125 
L 18.3125 47.703125 
L 18.3125 18.015625 
Q 18.3125 11.328125 20.140625 9.421875 
Q 21.96875 7.515625 27.59375 7.515625 
L 36.8125 7.515625 
L 36.8125 0 
L 27.59375 0 
Q 17.1875 0 13.234375 3.875 
Q 9.28125 7.765625 9.28125 18.015625 
L 9.28125 47.703125 
L 2.6875 47.703125 
L 2.6875 54.6875 
L 9.28125 54.6875 
L 9.28125 70.21875 
z
" id="DejaVuSans-74"/>
      <path d="M 31 75.875 
Q 24.46875 64.65625 21.28125 53.65625 
Q 18.109375 42.671875 18.109375 31.390625 
Q 18.109375 20.125 21.3125 9.0625 
Q 24.515625 -2 31 -13.1875 
L 23.1875 -13.1875 
Q 15.875 -1.703125 12.234375 9.375 
Q 8.59375 20.453125 8.59375 31.390625 
Q 8.59375 42.28125 12.203125 53.3125 
Q 15.828125 64.359375 23.1875 75.875 
z
" id="DejaVuSans-28"/>
      <path d="M 44.28125 53.078125 
L 44.28125 44.578125 
Q 40.484375 46.53125 36.375 47.5 
Q 32.28125 48.484375 27.875 48.484375 
Q 21.1875 48.484375 17.84375 46.4375 
Q 14.5 44.390625 14.5 40.28125 
Q 14.5 37.15625 16.890625 35.375 
Q 19.28125 33.59375 26.515625 31.984375 
L 29.59375 31.296875 
Q 39.15625 29.25 43.1875 25.515625 
Q 47.21875 21.78125 47.21875 15.09375 
Q 47.21875 7.46875 41.1875 3.015625 
Q 35.15625 -1.421875 24.609375 -1.421875 
Q 20.21875 -1.421875 15.453125 -0.5625 
Q 10.6875 0.296875 5.421875 2 
L 5.421875 11.28125 
Q 10.40625 8.6875 15.234375 7.390625 
Q 20.0625 6.109375 24.8125 6.109375 
Q 31.15625 6.109375 34.5625 8.28125 
Q 37.984375 10.453125 37.984375 14.40625 
Q 37.984375 18.0625 35.515625 20.015625 
Q 33.0625 21.96875 24.703125 23.78125 
L 21.578125 24.515625 
Q 13.234375 26.265625 9.515625 29.90625 
Q 5.8125 33.546875 5.8125 39.890625 
Q 5.8125 47.609375 11.28125 51.796875 
Q 16.75 56 26.8125 56 
Q 31.78125 56 36.171875 55.265625 
Q 40.578125 54.546875 44.28125 53.078125 
z
" id="DejaVuSans-73"/>
      <path d="M 8.015625 75.875 
L 15.828125 75.875 
Q 23.140625 64.359375 26.78125 53.3125 
Q 30.421875 42.28125 30.421875 31.390625 
Q 30.421875 20.453125 26.78125 9.375 
Q 23.140625 -1.703125 15.828125 -13.1875 
L 8.015625 -13.1875 
Q 14.5 -2 17.703125 9.0625 
Q 20.90625 20.125 20.90625 31.390625 
Q 20.90625 42.671875 17.703125 53.65625 
Q 14.5 64.65625 8.015625 75.875 
z
" id="DejaVuSans-29"/>
     </defs>
     <g transform="translate(227.693594 335.860562)scale(0.1 -0.1)">
      <use xlink:href="#DejaVuSans-74"/>
      <use x="39.208984" xlink:href="#DejaVuSans-28"/>
      <use x="78.222656" xlink:href="#DejaVuSans-73"/>
      <use x="130.322266" xlink:href="#DejaVuSans-29"/>
     </g>
    </g>
   </g>
   <g id="matplotlib.axis_2">
    <g id="ytick_1">
     <g id="line2d_8">
      <defs>
       <path d="M 0 0 
L -3.5 0 
" id="m30db37a08f" style="stroke:#000000;stroke-width:0.8;"/>
      </defs>
      <g>
       <use style="stroke:#000000;stroke-width:0.8;" x="57.6" xlink:href="#m30db37a08f" y="263.730162"/>
      </g>
     </g>
     <g id="text_9">
      <!-- 99.90 -->
      <defs>
       <path d="M 10.984375 1.515625 
L 10.984375 10.5 
Q 14.703125 8.734375 18.5 7.8125 
Q 22.3125 6.890625 25.984375 6.890625 
Q 35.75 6.890625 40.890625 13.453125 
Q 46.046875 20.015625 46.78125 33.40625 
Q 43.953125 29.203125 39.59375 26.953125 
Q 35.25 24.703125 29.984375 24.703125 
Q 19.046875 24.703125 12.671875 31.3125 
Q 6.296875 37.9375 6.296875 49.421875 
Q 6.296875 60.640625 12.9375 67.421875 
Q 19.578125 74.21875 30.609375 74.21875 
Q 43.265625 74.21875 49.921875 64.515625 
Q 56.59375 54.828125 56.59375 36.375 
Q 56.59375 19.140625 48.40625 8.859375 
Q 40.234375 -1.421875 26.421875 -1.421875 
Q 22.703125 -1.421875 18.890625 -0.6875 
Q 15.09375 0.046875 10.984375 1.515625 
z
M 30.609375 32.421875 
Q 37.25 32.421875 41.125 36.953125 
Q 45.015625 41.5 45.015625 49.421875 
Q 45.015625 57.28125 41.125 61.84375 
Q 37.25 66.40625 30.609375 66.40625 
Q 23.96875 66.40625 20.09375 61.84375 
Q 16.21875 57.28125 16.21875 49.421875 
Q 16.21875 41.5 20.09375 36.953125 
Q 23.96875 32.421875 30.609375 32.421875 
z
" id="DejaVuSans-39"/>
       <path d="M 10.6875 12.40625 
L 21 12.40625 
L 21 0 
L 10.6875 0 
z
" id="DejaVuSans-2e"/>
      </defs>
      <g transform="translate(21.971875 267.529381)scale(0.1 -0.1)">
       <use xlink:href="#DejaVuSans-39"/>
       <use x="63.623047" xlink:href="#DejaVuSans-39"/>
       <use x="127.246094" xlink:href="#DejaVuSans-2e"/>
       <use x="159.033203" xlink:href="#DejaVuSans-39"/>
       <use x="222.65625" xlink:href="#DejaVuSans-30"/>
      </g>
     </g>
    </g>
    <g id="ytick_2">
     <g id="line2d_9">
      <g>
       <use style="stroke:#000000;stroke-width:0.8;" x="57.6" xlink:href="#m30db37a08f" y="217.027459"/>
      </g>
     </g>
     <g id="text_10">
      <!-- 99.95 -->
      <g transform="translate(21.971875 220.826678)scale(0.1 -0.1)">
       <use xlink:href="#DejaVuSans-39"/>
       <use x="63.623047" xlink:href="#DejaVuSans-39"/>
       <use x="127.246094" xlink:href="#DejaVuSans-2e"/>
       <use x="159.033203" xlink:href="#DejaVuSans-39"/>
       <use x="222.65625" xlink:href="#DejaVuSans-35"/>
      </g>
     </g>
    </g>
    <g id="ytick_3">
     <g id="line2d_10">
      <g>
       <use style="stroke:#000000;stroke-width:0.8;" x="57.6" xlink:href="#m30db37a08f" y="170.324757"/>
      </g>
     </g>
     <g id="text_11">
      <!-- 100.00 -->
      <g transform="translate(15.609375 174.123976)scale(0.1 -0.1)">
       <use xlink:href="#DejaVuSans-31"/>
       <use x="63.623047" xlink:href="#DejaVuSans-30"/>
       <use x="127.246094" xlink:href="#DejaVuSans-30"/>
       <use x="190.869141" xlink:href="#DejaVuSans-2e"/>
       <use x="222.65625" xlink:href="#DejaVuSans-30"/>
       <use x="286.279297" xlink:href="#DejaVuSans-30"/>
      </g>
     </g>
    </g>
    <g id="ytick_4">
     <g id="line2d_11">
      <g>
       <use style="stroke:#000000;stroke-width:0.8;" x="57.6" xlink:href="#m30db37a08f" y="123.622054"/>
      </g>
     </g>
     <g id="text_12">
      <!-- 100.05 -->
      <g transform="translate(15.609375 127.421273)scale(0.1 -0.1)">
       <use xlink:href="#DejaVuSans-31"/>
       <use x="63.623047" xlink:href="#DejaVuSans-30"/>
       <use x="127.246094" xlink:href="#DejaVuSans-30"/>
       <use x="190.869141" xlink:href="#DejaVuSans-2e"/>
       <use x="222.65625" xlink:href="#DejaVuSans-30"/>
       <use x="286.279297" xlink:href="#DejaVuSans-35"/>
      </g>
     </g>
    </g>
    <g id="ytick_5">
     <g id="line2d_12">
      <g>
       <use style="stroke:#000000;stroke-width:0.8;" x="57.6" xlink:href="#m30db37a08f" y="76.919351"/>
      </g>
     </g>
     <g id="text_13">
      <!-- 100.10 -->
      <g transform="translate(15.609375 80.71857)scale(0.1 -0.1)">
       <use xlink:href="#DejaVuSans-31"/>
       <use x="63.623047" xlink:href="#DejaVuSans-30"/>
       <use x="127.246094" xlink:href="#DejaVuSans-30"/>
       <use x="190.869141" xlink:href="#DejaVuSans-2e"/>
       <use x="222.65625" xlink:href="#DejaVuSans-31"/>
       <use x="286.279297" xlink:href="#DejaVuSans-30"/>
      </g>
     </g>
    </g>
    <g id="text_14">
     <!-- Current (nA) -->
     <defs>
      <path d="M 64.40625 67.28125 
L 64.40625 56.890625 
Q 59.421875 61.53125 53.78125 63.8125 
Q 48.140625 66.109375 41.796875 66.109375 
Q 29.296875 66.109375 22.65625 58.46875 
Q 16.015625 50.828125 16.015625 36.375 
Q 16.015625 21.96875 22.65625 14.328125 
Q 29.296875 6.6875 41.796875 6.6875 
Q 48.140625 6.6875 53.78125 8.984375 
Q 59.421875 11.28125 64.40625 15.921875 
L 64.40625 5.609375 
Q 59.234375 2.09375 53.4375 0.328125 
Q 47.65625 -1.421875 41.21875 -1.421875 
Q 24.65625 -1.421875 15.125 8.703125 
Q 5.609375 18.84375 5.609375 36.375 
Q 5.609375 53.953125 15.125 64.078125 
Q 24.65625 74.21875 41.21875 74.21875 
Q 47.75 74.21875 53.53125 72.484375 
Q 59.328125 70.75 64.40625 67.28125 
z
" id="DejaVuSans-43"/>
      <path d="M 8.5 21.578125 
L 8.5 54.6875 
L 17.484375 54.6875 
L 17.484375 21.921875 
Q 17.484375 14.15625 20.5 10.265625 
Q 23.53125 6.390625 29.59375 6.390625 
Q 36.859375 6.390625 41.078125 11.03125 
Q 45.3125 15.671875 45.3125 23.6875 
L 45.3125 54.6875 
L 54.296875 54.6875 
L 54.296875 0 
L 45.3125 0 
L 45.3125 8.40625 
Q 42.046875 3.421875 37.71875 1 
Q 33.40625 -1.421875 27.6875 -1.421875 
Q 18.265625 -1.421875 13.375 4.4375 
Q 8.5 10.296875 8.5 21.578125 
z
M 31.109375 56 
z
" id="DejaVuSans-75"/>
      <path d="M 41.109375 46.296875 
Q 39.59375 47.171875 37.8125 47.578125 
Q 36.03125 48 33.890625 48 
Q 26.265625 48 22.1875 43.046875 
Q 18.109375 38.09375 18.109375 28.8125 
L 18.109375 0 
L 9.078125 0 
L 9.078125 54.6875 
L 18.109375 54.6875 
L 18.109375 46.1875 
Q 20.953125 51.171875 25.484375 53.578125 
Q 30.03125 56 36.53125 56 
Q 37.453125 56 38.578125 55.875 
Q 39.703125 55.765625 41.0625 55.515625 
z
" id="DejaVuSans-72"/>
      <path d="M 56.203125 29.59375 
L 56.203125 25.203125 
L 14.890625 25.203125 
Q 15.484375 15.921875 20.484375 11.0625 
Q 25.484375 6.203125 34.421875 6.203125 
Q 39.59375 6.203125 44.453125 7.46875 
Q 49.3125 8.734375 54.109375 11.28125 
L 54.109375 2.78125 
Q 49.265625 0.734375 44.1875 -0.34375 
Q 39.109375 -1.421875 33.890625 -1.421875 
Q 20.796875 -1.421875 13.15625 6.1875 
Q 5.515625 13.8125 5.515625 26.8125 
Q 5.515625 40.234375 12.765625 48.109375 
Q 20.015625 56 32.328125 56 
Q 43.359375 56 49.78125 48.890625 
Q 56.203125 41.796875 56.203125 29.59375 
z
M 47.21875 32.234375 
Q 47.125 39.59375 43.09375 43.984375 
Q 39.0625 48.390625 32.421875 48.390625 
Q 24.90625 48.390625 20.390625 44.140625 
Q 15.875 39.890625 15.1875 32.171875 
z
" id="DejaVuSans-65"/>
      <path d="M 54.890625 33.015625 
L 54.890625 0 
L 45.90625 0 
L 45.90625 32.71875 
Q 45.90625 40.484375 42.875 44.328125 
Q 39.84375 48.1875 33.796875 48.1875 
Q 26.515625 48.1875 22.3125 43.546875 
Q 18.109375 38.921875 18.109375 30.90625 
L 18.109375 0 
L 9.078125 0 
L 9.078125 54.6875 
L 18.109375 54.6875 
L 18.109375 46.1875 
Q 21.34375 51.125 25.703125 53.5625 
Q 30.078125 56 35.796875 56 
Q 45.21875 56 50.046875 50.171875 
Q 54.890625 44.34375 54.890625 33.015625 
z
" id="DejaVuSans-6e"/>
      <path id="DejaVuSans-20"/>
      <path d="M 34.1875 63.1875 
L 20.796875 26.90625 
L 47.609375 26.90625 
z
M 28.609375 72.90625 
L 39.796875 72.90625 
L 67.578125 0 
L 57.328125 0 
L 50.6875 18.703125 
L 17.828125 18.703125 
L 11.1875 0 
L 0.78125 0 
z
" id="DejaVuSans-41"/>
     </defs>
     <g transform="translate(9.529687 205.581906)rotate(-90)scale(0.1 -0.1)">
      <use xlink:href="#DejaVuSans-43"/>
      <use x="69.824219" xlink:href="#DejaVuSans-75"/>
      <use x="133.203125" xlink:href="#DejaVuSans-72"/>
      <use x="174.300781" xlink:href="#DejaVuSans-72"/>
      <use x="215.382812" xlink:href="#DejaVuSans-65"/>
      <use x="276.90625" xlink:href="#DejaVuSans-6e"/>
      <use x="340.285156" xlink:href="#DejaVuSans-74"/>
      <use x="379.494141" xlink:href="#DejaVuSans-20"/>
      <use x="411.28125" xlink:href="#DejaVuSans-28"/>
      <use x="450.294922" xlink:href="#DejaVuSans-6e"/>
      <use x="513.673828" xlink:href="#DejaVuSans-41"/>
      <use x="582.082031" xlink:href="#DejaVuSans-29"/>
     </g>
    </g>
   </g>
   <g id="line2d_13">
    <path clip-path="url(#pb8666a10b8)" d="M 73.832727 107.743135 
L 74.103453 232.906378 
L 74.374179 109.611243 
L 74.644904 238.510703 
L 74.915631 105.875027 
L 75.191772 260.928 
L 75.462497 82.523676 
L 75.733224 248.785297 
L 76.003949 83.45773 
L 76.274675 252.521514 
L 76.545401 94.666378 
L 76.821542 275.872865 
L 77.097683 86.259892 
L 77.368407 270.268541 
L 77.644548 132.962595 
L 77.915274 226.368 
L 78.186001 123.622054 
L 78.462141 171.258811 
L 78.738281 185.269622 
L 79.009008 163.786378 
L 79.279732 188.071784 
L 79.550459 109.611243 
L 79.8266 218.895568 
L 80.10274 117.083676 
L 80.373466 214.225297 
L 80.649607 123.622054 
L 80.920332 224.499892 
L 81.196474 114.281514 
L 81.472613 251.587459 
L 81.743339 93.732324 
L 82.014066 260.928 
L 82.28479 82.523676 
L 82.560931 275.872865 
L 82.831657 65.710703 
L 83.102384 285.213405 
L 83.378524 85.325838 
L 83.654664 235.708541 
L 83.925391 118.951784 
L 84.201532 179.665297 
L 84.47767 182.467459 
L 84.748397 150.709622 
L 85.019123 188.071784 
L 85.295263 133.896649 
L 85.56599 200.214486 
L 85.836715 133.896649 
L 86.107442 200.214486 
L 86.383581 112.413405 
L 86.654308 219.829622 
L 86.925034 116.149622 
L 87.201173 227.302054 
L 87.4719 111.479351 
L 87.742626 226.368 
L 88.013353 118.01773 
L 88.289492 216.093405 
L 88.560218 110.545297 
L 88.830944 225.433946 
L 89.10167 112.413405 
L 89.372396 231.03827 
L 89.643122 103.072865 
L 89.913847 230.104216 
L 90.184574 110.545297 
L 90.4553 227.302054 
L 90.726026 112.413405 
L 91.002166 263.730162 
L 91.278306 98.402595 
L 91.549033 268.400432 
L 91.819757 70.380973 
L 92.090484 274.004757 
L 92.36121 74.117189 
L 92.631937 268.400432 
L 92.908077 87.193946 
L 93.178803 272.136649 
L 93.44953 90.930162 
L 93.720254 263.730162 
L 93.990981 86.259892 
L 94.261707 260.928 
L 94.532434 84.391784 
L 94.808572 235.708541 
L 95.079299 111.479351 
L 95.350025 238.510703 
L 95.62075 102.138811 
L 95.891476 238.510703 
L 96.162203 105.875027 
L 96.432927 245.983135 
L 96.703654 259.993946 
L 96.97438 242.246919 
L 97.245107 113.347459 
L 97.521247 192.742054 
L 97.791973 164.720432 
L 98.0627 189.939892 
L 98.333424 156.313946 
L 98.604151 191.808 
L 98.874877 155.379892 
L 99.145604 191.808 
L 99.421742 181.533405 
L 99.692469 159.116108 
L 99.963195 183.401514 
L 100.23392 156.313946 
L 100.510061 208.620973 
L 100.780787 137.632865 
L 101.051514 196.47827 
L 101.327653 111.479351 
L 101.59838 220.763676 
L 101.874521 121.753946 
L 102.150659 217.961514 
L 102.421386 117.083676 
L 102.697527 235.708541 
L 102.968253 85.325838 
L 103.244393 268.400432 
L 103.520534 70.380973 
L 103.79126 271.202595 
L 104.061987 87.193946 
L 104.338125 236.642595 
L 104.608852 110.545297 
L 104.884993 189.939892 
L 105.155718 159.116108 
L 105.702584 174.995027 
L 105.973311 169.390703 
L 106.249451 190.873946 
L 106.520177 143.237189 
L 106.790904 206.752865 
L 107.061628 136.698811 
L 107.332355 203.950703 
L 107.603081 137.632865 
L 107.873808 205.818811 
L 108.149946 115.215568 
L 108.420673 220.763676 
L 108.691399 114.281514 
L 108.962125 218.895568 
L 109.23285 109.611243 
L 109.503577 220.763676 
L 109.779718 115.215568 
L 110.055857 232.906378 
L 110.326584 109.611243 
L 110.597309 231.972324 
L 110.868035 113.347459 
L 111.138761 203.950703 
L 111.409488 116.149622 
L 111.680214 228.236108 
L 111.956353 81.589622 
L 112.22708 248.785297 
L 112.50322 65.710703 
L 112.773946 274.938811 
L 113.044671 68.512865 
L 113.315398 274.004757 
L 113.586124 72.249081 
L 113.862264 265.59827 
L 114.138405 105.875027 
L 114.409131 243.180973 
L 114.679856 116.149622 
L 114.950582 233.840432 
L 115.221309 115.215568 
L 115.492035 248.785297 
L 115.768175 163.786378 
L 116.038901 194.610162 
L 116.309627 146.039351 
L 116.585767 155.379892 
L 116.856493 245.983135 
L 117.12722 165.654486 
L 117.403361 210.489081 
L 117.674085 134.830703 
L 117.944812 203.950703 
L 118.215538 132.962595 
L 118.486263 207.686919 
L 118.756989 136.698811 
L 119.03313 222.631784 
L 119.303856 118.01773 
L 119.579996 222.631784 
L 119.850723 112.413405 
L 120.121448 219.829622 
L 120.397588 114.281514 
L 120.668314 221.69773 
L 120.939041 118.951784 
L 121.215182 248.785297 
L 121.485906 92.79827 
L 121.756633 247.851243 
L 122.027359 95.600432 
L 122.298085 259.993946 
L 122.56881 224.499892 
L 122.844951 265.59827 
L 123.121092 88.128 
L 123.391817 262.796108 
L 123.662544 89.062054 
L 123.938684 237.576649 
L 124.209411 112.413405 
L 124.48555 186.203676 
L 124.76169 181.533405 
L 125.032417 155.379892 
L 125.303142 191.808 
L 125.573869 161.91827 
L 125.844594 193.676108 
L 126.115321 151.643676 
L 126.391461 205.818811 
L 126.662187 133.896649 
L 126.932914 207.686919 
L 127.203638 145.105297 
L 127.474365 209.555027 
L 127.745091 132.028541 
L 128.015816 202.082595 
L 128.286542 167.522595 
L 128.562683 213.291243 
L 128.838824 121.753946 
L 129.114963 226.368 
L 129.38569 106.809081 
L 129.656415 229.170162 
L 129.927142 114.281514 
L 130.203282 255.323676 
L 130.474008 89.062054 
L 130.744735 258.125838 
L 131.015459 85.325838 
L 131.286186 255.323676 
L 131.556912 81.589622 
L 131.827638 257.191784 
L 132.098363 84.391784 
L 132.36909 254.389622 
L 132.639816 80.655568 
L 132.915956 268.400432 
L 133.186681 68.512865 
L 133.457408 270.268541 
L 133.728133 65.710703 
L 133.99886 84.391784 
L 134.269585 70.380973 
L 134.540312 271.202595 
L 134.816452 88.128 
L 135.092592 217.961514 
L 135.363319 120.819892 
L 135.634043 236.642595 
L 135.90477 139.500973 
L 136.180911 175.929081 
L 136.457051 189.005838 
L 136.733191 133.896649 
L 137.003918 205.818811 
L 137.280058 118.01773 
L 137.550785 220.763676 
L 137.826925 116.149622 
L 138.09765 224.499892 
L 138.368377 117.083676 
L 138.644516 226.368 
L 138.915243 110.545297 
L 139.185968 229.170162 
L 139.456695 111.479351 
L 139.732835 262.796108 
L 140.008975 65.710703 
L 140.279702 281.477189 
L 140.550426 71.315027 
L 140.821153 285.213405 
L 141.091879 65.710703 
L 141.362606 276.806919 
L 141.638746 92.79827 
L 141.914886 227.302054 
L 142.185613 144.171243 
L 142.456337 217.961514 
L 142.727064 137.632865 
L 142.99779 160.984216 
L 143.268517 129.226378 
L 143.544656 155.379892 
L 143.820796 199.280432 
L 144.091523 146.039351 
L 144.362248 185.269622 
L 144.632975 142.303135 
L 144.909116 211.423135 
L 145.179841 130.160432 
L 145.455981 214.225297 
L 145.732122 112.413405 
L 146.008262 236.642595 
L 146.278989 105.875027 
L 146.555129 261.862054 
L 146.825854 85.325838 
L 147.096581 271.202595 
L 147.37272 88.128 
L 147.643447 283.345297 
L 147.914173 66.644757 
L 148.1849 287.081514 
L 148.461039 91.864216 
L 148.731765 259.993946 
L 149.002492 91.864216 
L 149.273216 256.25773 
L 149.543943 99.336649 
L 149.814669 259.993946 
L 150.085396 91.864216 
L 150.361535 202.082595 
L 150.632262 137.632865 
L 150.902987 205.818811 
L 151.173713 154.445838 
L 151.72058 180.599351 
L 151.996721 133.896649 
L 152.272861 215.159351 
L 152.543586 122.688 
L 152.814313 216.093405 
L 153.090453 119.885838 
L 153.366593 227.302054 
L 153.642734 102.138811 
L 153.918875 272.136649 
L 154.189599 73.183135 
L 154.465741 263.730162 
L 154.741882 106.809081 
L 155.012607 250.653405 
L 155.283333 107.743135 
L 155.559473 202.082595 
L 155.8302 147.907459 
L 156.106341 167.522595 
L 156.382479 203.950703 
L 156.653206 143.237189 
L 156.923932 226.368 
L 157.194658 138.566919 
L 157.465383 210.489081 
L 157.73611 138.566919 
L 158.006836 200.214486 
L 158.282976 117.083676 
L 158.553703 220.763676 
L 158.824428 121.753946 
L 159.095154 213.291243 
L 159.36588 117.083676 
L 159.636607 219.829622 
L 159.907333 109.611243 
L 160.178058 223.565838 
L 160.454198 114.281514 
L 160.724925 218.895568 
L 160.995649 116.149622 
L 161.266376 225.433946 
L 161.537102 124.556108 
L 161.807828 221.69773 
L 162.083969 110.545297 
L 162.360109 259.993946 
L 162.630836 91.864216 
L 162.906975 268.400432 
L 163.177701 67.578811 
L 163.453842 288.949622 
L 163.724568 86.259892 
L 164.000708 242.246919 
L 164.276849 159.116108 
L 164.547574 183.401514 
L 164.818301 161.91827 
L 165.094441 166.588541 
L 165.365167 179.665297 
L 165.641308 118.951784 
L 165.917448 226.368 
L 166.193588 115.215568 
L 166.464315 224.499892 
L 166.73504 112.413405 
L 167.005766 220.763676 
L 167.281907 112.413405 
L 167.552633 228.236108 
L 167.828774 98.402595 
L 168.104914 281.477189 
L 168.375639 71.315027 
L 168.65178 264.664216 
L 168.922505 91.864216 
L 169.193232 259.993946 
L 169.469373 122.688 
L 169.740099 231.03827 
L 170.016238 174.060973 
L 170.286964 181.533405 
L 170.833832 146.973405 
L 171.109971 208.620973 
L 171.380698 122.688 
L 171.656839 204.884757 
L 171.932977 122.688 
L 172.203704 229.170162 
L 172.47443 116.149622 
L 172.745157 220.763676 
L 173.021297 110.545297 
L 173.297436 267.466378 
L 173.568163 85.325838 
L 173.838888 259.993946 
L 174.109615 72.249081 
L 174.385756 277.740973 
L 174.656482 74.117189 
L 174.932621 260.928 
L 175.203347 89.062054 
L 175.474074 259.059892 
L 175.744798 106.809081 
L 176.015525 256.25773 
L 176.286251 110.545297 
L 176.556978 272.136649 
L 176.833118 138.566919 
L 177.109258 176.863135 
L 177.379985 185.269622 
L 177.656126 137.632865 
L 177.932264 208.620973 
L 178.202991 130.160432 
L 178.473717 217.961514 
L 178.744443 121.753946 
L 179.015168 220.763676 
L 179.285895 116.149622 
L 179.55662 218.895568 
L 179.827347 118.951784 
L 180.103488 215.159351 
L 180.374213 112.413405 
L 180.650353 221.69773 
L 180.926494 95.600432 
L 181.19722 244.115027 
L 181.467947 102.138811 
L 181.744085 267.466378 
L 182.014812 73.183135 
L 182.290953 277.740973 
L 182.567092 107.743135 
L 182.837819 252.521514 
L 183.11396 191.808 
L 183.3901 162.852324 
L 183.660826 182.467459 
L 183.931551 169.390703 
L 184.202278 186.203676 
L 184.473003 165.654486 
L 184.74373 174.060973 
L 185.014455 160.050162 
L 185.285182 178.731243 
L 185.561322 128.292324 
L 185.837462 218.895568 
L 186.108189 113.347459 
L 186.38433 213.291243 
L 186.660468 114.281514 
L 186.931195 233.840432 
L 187.207336 110.545297 
L 187.478061 254.389622 
L 187.754202 74.117189 
L 188.024928 266.532324 
L 188.295655 75.051243 
L 188.566379 272.136649 
L 188.837106 72.249081 
L 189.113247 255.323676 
L 189.389387 112.413405 
L 189.665527 190.873946 
L 189.936254 149.775568 
L 190.206979 192.742054 
L 190.477705 157.248 
L 190.748431 187.13773 
L 191.019158 161.91827 
L 191.295297 162.852324 
L 191.566023 191.808 
L 191.842164 124.556108 
L 192.11289 201.148541 
L 192.383616 140.435027 
L 192.659755 219.829622 
L 192.930482 115.215568 
L 193.206623 223.565838 
L 193.477348 118.951784 
L 193.753489 228.236108 
L 194.024215 108.677189 
L 194.29494 224.499892 
L 194.565666 86.259892 
L 194.836393 220.763676 
L 195.107119 111.479351 
L 195.383258 252.521514 
L 195.653985 89.996108 
L 195.924711 259.993946 
L 196.195437 76.919351 
L 196.466162 261.862054 
L 196.742304 61.974486 
L 197.013029 288.015568 
L 197.283755 73.183135 
L 197.559896 264.664216 
L 197.830622 75.985297 
L 198.101347 266.532324 
L 198.372073 97.468541 
L 198.6428 270.268541 
L 198.913526 83.45773 
L 199.189665 229.170162 
L 199.460391 133.896649 
L 199.731118 221.69773 
L 200.007258 216.093405 
L 200.277984 175.929081 
L 200.554125 194.610162 
L 200.82485 140.435027 
L 201.10099 206.752865 
L 201.371717 129.226378 
L 201.647857 221.69773 
L 201.918584 129.226378 
L 202.194724 228.236108 
L 202.465449 122.688 
L 202.741591 235.708541 
L 203.01773 78.787459 
L 203.29387 295.488 
L 203.564597 63.842595 
L 203.835323 271.202595 
L 204.111463 95.600432 
L 204.387604 218.895568 
L 204.939885 146.039351 
L 205.216024 217.027459 
L 205.486751 118.951784 
L 205.757477 211.423135 
L 206.033618 110.545297 
L 206.309758 223.565838 
L 206.580484 119.885838 
L 206.851211 226.368 
L 207.121935 118.951784 
L 207.392662 228.236108 
L 207.668802 108.677189 
L 207.939529 237.576649 
L 208.215669 77.853405 
L 208.491808 223.565838 
L 208.762535 68.512865 
L 209.03326 278.675027 
L 209.303987 82.523676 
L 209.574712 269.334486 
L 209.845439 83.45773 
L 210.121579 256.25773 
L 210.392305 95.600432 
L 210.663032 248.785297 
L 210.933756 108.677189 
L 211.204483 252.521514 
L 211.480623 166.588541 
L 211.75135 139.500973 
L 212.02749 173.126919 
L 212.298215 168.456649 
L 212.568942 178.731243 
L 212.839667 150.709622 
L 213.115808 199.280432 
L 213.386534 142.303135 
L 213.657261 200.214486 
L 213.9334 124.556108 
L 214.204126 213.291243 
L 214.480267 118.951784 
L 214.750992 223.565838 
L 215.021718 118.01773 
L 215.29786 231.03827 
L 215.568585 104.006919 
L 215.844725 250.653405 
L 216.120866 73.183135 
L 216.391592 273.070703 
L 216.667733 86.259892 
L 216.943873 240.378811 
L 217.214598 106.809081 
L 217.49074 203.950703 
L 217.761464 148.841514 
L 218.032191 204.884757 
L 218.302917 148.841514 
L 218.573644 194.610162 
L 219.120509 157.248 
L 219.391236 179.665297 
L 219.66196 164.720432 
L 219.932687 166.588541 
L 220.208827 138.566919 
L 220.479554 200.214486 
L 220.755694 119.885838 
L 221.02642 213.291243 
L 221.297147 116.149622 
L 221.567871 219.829622 
L 221.838598 118.951784 
L 222.109324 217.027459 
L 222.380051 120.819892 
L 222.656189 222.631784 
L 222.926916 76.919351 
L 223.203057 280.543135 
L 223.484612 74.117189 
L 223.760751 264.664216 
L 224.031478 85.325838 
L 224.302204 274.938811 
L 224.572929 92.79827 
L 224.843655 270.268541 
L 225.114382 81.589622 
L 225.385108 268.400432 
L 225.661247 120.819892 
L 225.937389 193.676108 
L 226.208114 155.379892 
L 226.47884 200.214486 
L 226.749566 139.500973 
L 227.020293 188.071784 
L 227.291018 160.050162 
L 227.567158 162.852324 
L 227.837885 184.335568 
L 228.108611 152.57773 
L 228.379336 182.467459 
L 228.650062 105.875027 
L 228.926203 203.016649 
L 229.202344 116.149622 
L 229.478483 219.829622 
L 229.74921 113.347459 
L 230.019935 218.895568 
L 230.290661 122.688 
L 230.566802 230.104216 
L 230.837528 122.688 
L 231.108255 235.708541 
L 231.384393 86.259892 
L 231.65512 250.653405 
L 231.931261 61.040432 
L 232.207401 265.59827 
L 232.483541 113.347459 
L 232.754268 240.378811 
L 233.024994 107.743135 
L 233.295719 256.25773 
L 233.566445 109.611243 
L 233.837172 245.049081 
L 234.107898 113.347459 
L 234.384037 121.753946 
L 234.92549 203.016649 
L 235.196215 149.775568 
L 235.466941 206.752865 
L 235.737667 144.171243 
L 236.008393 203.950703 
L 236.279119 145.105297 
L 236.549845 195.544216 
L 236.825987 179.665297 
L 237.102125 143.237189 
L 237.372852 196.47827 
L 237.643578 138.566919 
L 237.914305 201.148541 
L 238.190445 117.083676 
L 238.466584 221.69773 
L 238.737311 118.951784 
L 239.013451 231.03827 
L 239.284177 115.215568 
L 239.554904 228.236108 
L 239.831044 96.534486 
L 240.101769 156.313946 
L 240.37791 70.380973 
L 240.65405 274.938811 
L 240.924777 85.325838 
L 241.200917 242.246919 
L 241.471643 115.215568 
L 241.74237 266.532324 
L 242.013094 106.809081 
L 242.283821 263.730162 
L 242.554547 102.138811 
L 242.825272 234.774486 
L 243.101412 144.171243 
L 243.372139 203.950703 
L 243.642865 151.643676 
L 243.919005 166.588541 
L 244.195146 199.280432 
L 244.465871 133.896649 
L 244.736598 203.950703 
L 245.012738 117.083676 
L 245.283464 217.961514 
L 245.559605 117.083676 
L 245.830329 286.147459 
L 246.10647 111.479351 
L 246.382611 247.851243 
L 246.658753 71.315027 
L 246.929477 273.070703 
L 247.200204 72.249081 
L 247.476344 267.466378 
L 247.747071 75.985297 
L 248.023211 251.587459 
L 248.29935 144.171243 
L 248.570077 214.225297 
L 249.122357 141.369081 
L 249.393084 201.148541 
L 249.66381 152.57773 
L 249.934535 196.47827 
L 250.205261 132.962595 
L 250.475988 189.005838 
L 250.746712 142.303135 
L 251.017439 203.016649 
L 251.288165 149.775568 
L 251.558892 202.082595 
L 251.835032 115.215568 
L 252.105757 216.093405 
L 252.381899 118.01773 
L 252.652623 214.225297 
L 252.92335 118.01773 
L 253.194076 216.093405 
L 253.464803 114.281514 
L 253.740942 225.433946 
L 254.011668 111.479351 
L 254.282395 227.302054 
L 254.558533 99.336649 
L 254.82926 237.576649 
L 255.099986 101.204757 
L 255.370713 240.378811 
L 255.646853 80.655568 
L 255.922993 282.411243 
L 256.19372 58.23827 
L 256.464444 287.081514 
L 256.735171 77.853405 
L 257.005897 276.806919 
L 257.276624 74.117189 
L 257.552764 192.742054 
L 257.828903 133.896649 
L 258.09963 212.357189 
L 258.370355 138.566919 
L 258.641082 213.291243 
L 258.911807 145.105297 
L 259.182534 214.225297 
L 259.458674 169.390703 
L 259.7294 177.797189 
L 260.276265 160.050162 
L 260.546992 196.47827 
L 260.823133 129.226378 
L 261.099273 220.763676 
L 261.369999 122.688 
L 261.64614 221.69773 
L 261.916866 107.743135 
L 262.187593 223.565838 
L 262.463731 105.875027 
L 262.734458 243.180973 
L 263.005184 108.677189 
L 263.275909 249.719351 
L 263.552051 81.589622 
L 263.822776 254.389622 
L 264.093503 88.128 
L 264.369642 285.213405 
L 264.640369 66.644757 
L 264.911094 282.411243 
L 265.18182 60.106378 
L 265.452546 285.213405 
L 265.723273 64.776649 
L 265.999414 273.070703 
L 266.275552 128.292324 
L 266.546279 225.433946 
L 266.817005 123.622054 
L 267.087731 219.829622 
L 267.358456 123.622054 
L 267.629183 225.433946 
L 267.899909 130.160432 
L 268.176049 179.665297 
L 268.446776 163.786378 
L 268.717501 124.556108 
L 268.993641 193.676108 
L 269.269782 137.632865 
L 269.540508 210.489081 
L 269.811235 133.896649 
L 270.087373 217.961514 
L 270.3581 108.677189 
L 270.628826 217.027459 
L 270.899552 120.819892 
L 271.175693 220.763676 
L 271.446419 116.149622 
L 271.717146 215.159351 
L 271.98787 109.611243 
L 272.258597 224.499892 
L 272.529323 111.479351 
L 272.800048 224.499892 
L 273.070774 119.885838 
L 273.341501 223.565838 
L 273.612227 123.622054 
L 273.888366 235.708541 
L 274.164508 84.391784 
L 274.440647 129.226378 
L 274.711373 75.985297 
L 274.982099 275.872865 
L 275.252826 71.315027 
L 275.523551 274.004757 
L 275.799691 80.655568 
L 276.070418 271.202595 
L 276.341144 88.128 
L 276.617284 254.389622 
L 276.888009 114.281514 
L 277.158736 245.983135 
L 277.434877 150.709622 
L 277.711016 159.116108 
L 277.981743 185.269622 
L 278.257884 139.500973 
L 278.534024 224.499892 
L 278.804749 124.556108 
L 279.075475 217.961514 
L 279.346202 120.819892 
L 279.622342 222.631784 
L 279.898482 102.138811 
L 280.169209 269.334486 
L 280.44535 101.204757 
L 280.716074 241.312865 
L 280.986801 93.732324 
L 281.262941 269.334486 
L 281.533668 77.853405 
L 281.809808 264.664216 
L 282.080533 75.985297 
L 282.35126 281.477189 
L 282.621985 75.985297 
L 282.898126 254.389622 
L 283.168852 99.336649 
L 283.439578 184.335568 
L 283.715718 143.237189 
L 283.991858 179.665297 
L 284.262585 176.863135 
L 284.533309 176.863135 
L 284.804036 167.522595 
L 285.080178 147.907459 
L 285.350903 191.808 
L 285.627043 118.951784 
L 285.903184 239.444757 
L 286.179324 114.281514 
L 286.450051 224.499892 
L 286.726191 105.875027 
L 287.00233 260.928 
L 287.273057 81.589622 
L 287.543782 273.070703 
L 287.814509 82.523676 
L 288.085235 264.664216 
L 288.355961 81.589622 
L 288.632101 295.488 
L 288.902827 69.446919 
L 289.178968 231.972324 
L 289.455109 129.226378 
L 289.731248 187.13773 
L 290.001975 167.522595 
L 290.2727 177.797189 
L 290.543426 167.522595 
L 290.814152 175.929081 
L 291.084879 172.192865 
L 291.355603 184.335568 
L 291.62633 174.995027 
L 291.897056 176.863135 
L 292.167783 157.248 
L 292.443922 154.445838 
L 292.720062 209.555027 
L 292.990789 135.764757 
L 293.261514 212.357189 
L 293.532241 118.951784 
L 293.802966 210.489081 
L 294.073693 146.973405 
L 294.349833 220.763676 
L 294.625973 115.215568 
L 294.8967 246.917189 
L 295.167424 123.622054 
L 295.438151 230.104216 
L 295.714292 107.743135 
L 295.985018 230.104216 
L 296.261158 87.193946 
L 296.531883 258.125838 
L 296.80261 92.79827 
L 297.073335 269.334486 
L 297.344062 98.402595 
L 297.620203 272.136649 
L 297.896343 81.589622 
L 298.167068 267.466378 
L 298.437794 93.732324 
L 298.708521 268.400432 
L 298.979245 89.996108 
L 299.249972 261.862054 
L 299.520698 92.79827 
L 299.791425 288.015568 
L 300.067565 107.743135 
L 300.338291 118.951784 
L 300.614432 147.907459 
L 300.890573 163.786378 
L 301.166711 203.950703 
L 301.437438 135.764757 
L 301.708164 199.280432 
L 301.97889 134.830703 
L 302.255031 219.829622 
L 302.525756 127.35827 
L 302.796483 219.829622 
L 303.072622 116.149622 
L 303.343349 221.69773 
L 303.61949 113.347459 
L 303.89563 247.851243 
L 304.17177 67.578811 
L 304.442496 266.532324 
L 304.713222 83.45773 
L 304.983948 269.334486 
L 305.260088 84.391784 
L 305.530815 275.872865 
L 305.80154 79.721514 
L 306.07768 175.929081 
L 306.348407 167.522595 
L 306.624547 211.423135 
L 306.895273 131.094486 
L 307.165998 206.752865 
L 307.436725 130.160432 
L 307.707451 210.489081 
L 307.983591 175.929081 
L 308.254318 168.456649 
L 308.525043 179.665297 
L 308.801183 152.57773 
L 309.077324 211.423135 
L 309.353464 120.819892 
L 309.624191 217.961514 
L 309.900331 114.281514 
L 310.171057 227.302054 
L 310.441784 113.347459 
L 310.712509 231.972324 
L 310.988649 110.545297 
L 311.26479 259.059892 
L 311.535516 80.655568 
L 311.811656 259.993946 
L 312.087797 177.797189 
L 312.363936 225.433946 
L 312.634663 145.105297 
L 312.905388 238.510703 
L 313.176115 136.698811 
L 313.44684 216.093405 
L 313.717567 130.160432 
L 313.993707 178.731243 
L 314.269847 198.346378 
L 314.540574 132.962595 
L 314.816714 210.489081 
L 315.08744 139.500973 
L 315.358167 205.818811 
L 315.628892 135.764757 
L 315.905032 226.368 
L 316.181173 116.149622 
L 316.451899 222.631784 
L 316.722624 117.083676 
L 316.998764 229.170162 
L 317.269491 113.347459 
L 317.540217 227.302054 
L 317.816357 87.193946 
L 318.092498 292.685838 
L 318.368639 86.259892 
L 318.644779 241.312865 
L 318.920919 147.907459 
L 319.191645 185.269622 
L 319.738512 167.522595 
L 320.014652 206.752865 
L 320.290792 119.885838 
L 320.561519 217.027459 
L 320.832243 114.281514 
L 321.10297 223.565838 
L 321.379111 116.149622 
L 321.655251 224.499892 
L 321.931391 98.402595 
L 322.202118 242.246919 
L 322.472844 96.534486 
L 322.743571 240.378811 
L 323.019709 61.974486 
L 323.290436 275.872865 
L 323.566577 82.523676 
L 323.837302 269.334486 
L 324.113443 113.347459 
L 324.384168 256.25773 
L 324.654895 102.138811 
L 324.931035 207.686919 
L 325.201761 145.105297 
L 325.748626 179.665297 
L 326.019353 164.720432 
L 326.295494 194.610162 
L 326.56622 153.511784 
L 326.84236 210.489081 
L 327.113085 127.35827 
L 327.383812 214.225297 
L 327.654537 125.490162 
L 327.925264 215.159351 
L 328.195989 130.160432 
L 328.466716 214.225297 
L 328.742856 110.545297 
L 329.018996 225.433946 
L 329.289723 112.413405 
L 329.565864 236.642595 
L 329.842003 82.523676 
L 330.11273 259.993946 
L 330.383455 90.930162 
L 330.654181 262.796108 
L 330.935736 89.996108 
L 331.206462 264.664216 
L 331.477189 98.402595 
L 331.753329 151.643676 
L 332.029468 157.248 
L 332.300195 175.929081 
L 332.57092 170.324757 
L 332.841647 171.258811 
L 333.112372 165.654486 
L 333.659239 185.269622 
L 333.929965 164.720432 
L 334.200692 191.808 
L 334.471416 154.445838 
L 334.742143 209.555027 
L 335.018283 112.413405 
L 335.28901 195.544216 
L 335.559734 132.028541 
L 335.830461 209.555027 
L 336.106603 116.149622 
L 336.377327 221.69773 
L 336.653468 118.01773 
L 336.924194 223.565838 
L 337.194921 110.545297 
L 337.465645 228.236108 
L 337.736372 118.951784 
L 338.012513 232.906378 
L 338.283237 114.281514 
L 338.553964 230.104216 
L 338.82469 98.402595 
L 339.100831 235.708541 
L 339.371556 97.468541 
L 339.642283 248.785297 
L 339.913008 95.600432 
L 340.183734 252.521514 
L 340.45446 170.324757 
L 340.725187 243.180973 
L 341.001328 72.249081 
L 341.277466 273.070703 
L 341.548193 82.523676 
L 341.824334 238.510703 
L 342.095059 103.072865 
L 342.365786 249.719351 
L 342.641925 141.369081 
L 342.912652 219.829622 
L 343.183377 141.369081 
L 343.454104 213.291243 
L 343.724829 135.764757 
L 343.995555 203.016649 
L 344.266281 134.830703 
L 344.537008 210.489081 
L 344.813149 167.522595 
L 345.083873 171.258811 
L 345.3546 172.192865 
L 345.625326 167.522595 
L 345.901466 197.412324 
L 346.172191 104.006919 
L 346.448333 208.620973 
L 346.71906 126.424216 
L 346.995198 218.895568 
L 347.265925 123.622054 
L 347.536651 223.565838 
L 347.807376 117.083676 
L 348.078102 220.763676 
L 348.348829 129.226378 
L 348.619555 224.499892 
L 348.895694 118.951784 
L 349.171836 236.642595 
L 349.442561 114.281514 
L 349.713287 232.906378 
L 349.984013 116.149622 
L 350.25474 231.972324 
L 350.525465 105.875027 
L 350.801605 259.993946 
L 351.077746 68.512865 
L 351.348472 292.685838 
L 351.619199 61.040432 
L 351.895339 263.730162 
L 352.171478 112.413405 
L 352.442205 231.03827 
L 352.718345 165.654486 
L 352.994485 158.182054 
L 353.265212 183.401514 
L 353.541353 129.226378 
L 353.817492 215.159351 
L 354.088219 111.479351 
L 354.358944 222.631784 
L 354.629671 112.413405 
L 354.905811 226.368 
L 355.176537 111.479351 
L 355.447264 229.170162 
L 355.717988 108.677189 
L 355.994129 227.302054 
L 356.264855 107.743135 
L 356.535582 240.378811 
L 356.811722 104.006919 
L 357.087861 282.411243 
L 357.358588 64.776649 
L 357.629313 280.543135 
L 357.90004 71.315027 
L 358.176181 273.070703 
L 358.452321 92.79827 
L 358.72846 205.818811 
L 358.999187 142.303135 
L 359.269913 201.148541 
L 359.54064 143.237189 
L 360.087506 180.599351 
L 360.358231 163.786378 
L 360.634371 200.214486 
L 360.910512 119.885838 
L 361.181238 213.291243 
L 361.451965 123.622054 
L 361.728105 217.027459 
L 361.99883 119.885838 
L 362.269557 217.027459 
L 362.545696 107.743135 
L 362.816423 226.368 
L 363.087148 117.083676 
L 363.357875 233.840432 
L 363.634015 96.534486 
L 363.904741 230.104216 
L 364.175468 105.875027 
L 364.446192 237.576649 
L 364.722333 71.315027 
L 364.993059 267.466378 
L 365.263786 78.787459 
L 365.539926 295.488 
L 365.810652 62.908541 
L 366.081378 290.81773 
L 366.352103 62.908541 
L 366.62283 214.225297 
L 366.89897 86.259892 
L 367.169697 271.202595 
L 367.445836 132.962595 
L 367.716562 232.906378 
L 367.987289 132.028541 
L 368.263428 181.533405 
L 368.534155 167.522595 
L 368.810296 143.237189 
L 369.086435 226.368 
L 369.357161 125.490162 
L 369.633302 222.631784 
L 369.904028 110.545297 
L 370.180169 227.302054 
L 370.456309 106.809081 
L 370.727035 222.631784 
L 370.997761 111.479351 
L 371.268486 226.368 
L 371.539213 113.347459 
L 371.809939 230.104216 
L 372.080665 114.281514 
L 372.356804 288.949622 
L 372.627531 96.534486 
L 372.898257 253.455568 
L 373.168982 84.391784 
L 373.439708 251.587459 
L 373.710435 77.853405 
L 373.981159 255.323676 
L 374.251886 78.787459 
L 374.522612 250.653405 
L 374.793339 98.402595 
L 375.069479 281.477189 
L 375.340204 53.568 
L 375.610931 275.872865 
L 375.88707 83.45773 
L 376.157797 279.609081 
L 376.433938 109.611243 
L 376.704664 247.851243 
L 376.975389 107.743135 
L 377.246115 249.719351 
L 377.516842 103.072865 
L 377.787566 135.764757 
L 378.058293 97.468541 
L 378.334433 192.742054 
L 378.60516 152.57773 
L 378.875885 207.686919 
L 379.146612 152.57773 
L 379.417337 203.950703 
L 379.688063 149.775568 
L 379.964204 166.588541 
L 380.23493 174.995027 
L 380.505657 168.456649 
L 380.781795 202.082595 
L 381.052522 135.764757 
L 381.323248 206.752865 
L 381.593974 138.566919 
L 381.864699 198.346378 
L 382.135426 139.500973 
L 382.406152 195.544216 
L 382.682292 126.424216 
L 382.953019 213.291243 
L 383.223744 115.215568 
L 383.49447 168.456649 
L 383.765196 123.622054 
L 384.035923 213.291243 
L 384.306647 123.622054 
L 384.577374 215.159351 
L 384.8481 117.083676 
L 385.118827 223.565838 
L 385.394965 118.951784 
L 385.665692 213.291243 
L 385.936418 127.35827 
L 386.207143 209.555027 
L 386.483285 105.875027 
L 386.75401 229.170162 
L 387.024737 114.281514 
L 387.300876 236.642595 
L 387.571603 97.468541 
L 387.847744 274.004757 
L 388.123884 66.644757 
L 388.400023 255.323676 
L 388.67075 93.732324 
L 388.94689 212.357189 
L 389.217616 179.665297 
L 389.493757 187.13773 
L 389.764483 171.258811 
L 390.040624 141.369081 
L 390.311348 196.47827 
L 390.582075 148.841514 
L 390.852801 201.148541 
L 391.123526 134.830703 
L 391.394252 201.148541 
L 391.664979 147.907459 
L 391.935705 204.884757 
L 392.211845 133.896649 
L 392.487986 228.236108 
L 392.764127 118.951784 
L 393.040267 245.049081 
L 393.316406 87.193946 
L 393.587133 268.400432 
L 393.857859 86.259892 
L 394.128585 263.730162 
L 394.39931 80.655568 
L 394.670037 263.730162 
L 394.940763 89.062054 
L 395.216903 288.015568 
L 395.487629 60.106378 
L 395.758356 286.147459 
L 396.02908 65.710703 
L 396.299807 293.619892 
L 396.570533 60.106378 
L 396.84126 286.147459 
L 397.117399 97.468541 
L 397.393539 214.225297 
L 397.664266 137.632865 
L 398.216546 199.280432 
L 398.487273 139.500973 
L 398.487273 139.500973 
" style="fill:none;stroke:#1f77b4;stroke-linecap:square;stroke-width:1.5;"/>
   </g>
   <g id="patch_3">
    <path d="M 57.6 307.584 
L 57.6 41.472 
" style="fill:none;stroke:#000000;stroke-linecap:square;stroke-linejoin:miter;stroke-width:0.8;"/>
   </g>
   <g id="patch_4">
    <path d="M 414.72 307.584 
L 414.72 41.472 
" style="fill:none;stroke:#000000;stroke-linecap:square;stroke-linejoin:miter;stroke-width:0.8;"/>
   </g>
   <g id="patch_5">
    <path d="M 57.6 307.584 
L 414.72 307.584 
" style="fill:none;stroke:#000000;stroke-linecap:square;stroke-linejoin:miter;stroke-width:0.8;"/>
   </g>
   <g id="patch_6">
    <path d="M 57.6 41.472 
L 414.72 41.472 
" style="fill:none;stroke:#000000;stroke-linecap:square;stroke-linejoin:miter;stroke-width:0.8;"/>
   </g>
   <g id="text_15">
    <!-- Current -->
    <g transform="translate(213.390938 35.472)scale(0.12 -0.12)">
     <use xlink:href="#DejaVuSans-43"/>
     <use x="69.824219" xlink:href="#DejaVuSans-75"/>
     <use x="133.203125" xlink:href="#DejaVuSans-72"/>
     <use x="174.300781" xlink:href="#DejaVuSans-72"/>
     <use x="215.382812" xlink:href="#DejaVuSans-65"/>
     <use x="276.90625" xlink:href="#DejaVuSans-6e"/>
     <use x="340.285156" xlink:href="#DejaVuSans-74"/>
    </g>
   </g>
  </g>
 </g>
 <defs>
  <clipPath id="pb8666a10b8">
   <rect height="266.112" width="357.12" x="57.6" y="41.472"/>
  </clipPath>
 </defs>
</svg>
